<?xml version="1.0" encoding="UTF-8" standalone="no"?>
<svg
   version="1.1"
   width="900"
   height="900"
   id="svg1"
   sodipodi:docname="drawing2.svg"
   inkscape:version="1.3 (0e150ed, 2023-07-21)"
   xmlns:inkscape="http://www.inkscape.org/namespaces/inkscape"
   xmlns:sodipodi="http://sodipodi.sourceforge.net/DTD/sodipodi-0.dtd"
   xmlns="http://www.w3.org/2000/svg"
   xmlns:svg="http://www.w3.org/2000/svg">
  <sodipodi:namedview
     id="namedview1"
     pagecolor="#505050"
     bordercolor="#eeeeee"
     borderopacity="1"
     inkscape:showpageshadow="0"
     inkscape:pageopacity="0"
     inkscape:pagecheckerboard="0"
     inkscape:deskcolor="#d1d1d1"
     showgrid="false"
     inkscape:zoom="0.89333333"
     inkscape:cx="449.4403"
     inkscape:cy="450"
     inkscape:window-width="1920"
     inkscape:window-height="1044"
     inkscape:window-x="1920"
     inkscape:window-y="0"
     inkscape:window-maximized="1"
     inkscape:current-layer="svg1" />
  <defs
     id="defs1" />
  <path
     fill="#222222"
     stroke="#cccccc"
     paint-order="fill stroke markers"
     d="m 437.30156,213.14457 0.8138,0.86427 20.6736,28.4548 33.45063,-10.86877 0.27062,-0.0174 0.24377,-0.11818 0.90316,0.0452 0.90236,-0.0574 0.24567,0.11489 0.27061,0.0136 0.77028,0.47371 0.81894,0.38335 0.26911,0.28581 0.1217,0.0749 0.0385,0.0954 0.38427,0.40812 20.67363,28.4548 33.45063,-10.86877 2.31991,-0.14751 2.10535,0.98552 0.81381,0.86428 20.67364,28.4548 33.45059,-10.86876 2.31995,-0.14751 2.10535,0.98553 0.81381,0.86427 22.67474,31.20914 0.8572,2.16079 -0.28649,2.30687 -0.57052,1.04103 -14.19776,19.54155 22.97246,-7.4642 0.27062,-0.0174 0.24377,-0.11819 0.90316,0.0453 0.9024,-0.0574 0.24529,0.11489 0.27061,0.0136 0.77028,0.4737 0.81894,0.38336 0.26911,0.28584 0.1217,0.0749 0.0385,0.0954 0.38426,0.40811 22.67479,31.20915 0.85719,2.16079 -0.0476,0.38267 0.0854,0.2109 -0.21657,0.84635 -0.10772,0.86696 -0.21429,0.39124 -0.0378,0.14744 -0.10394,0.11115 -0.2143,0.39124 -20.67364,28.4548 20.67364,28.4548 0.8572,2.16079 -0.0476,0.38267 0.0854,0.2109 -0.21656,0.84634 -0.10772,0.86696 -0.2143,0.39124 -0.0378,0.14741 -0.10394,0.11115 -0.2143,0.39124 -20.6736,28.45479 20.6736,28.45481 0.8572,2.1608 -0.0476,0.38267 0.0854,0.2109 -0.21656,0.84635 -0.10772,0.86695 -0.2143,0.39122 -0.0378,0.1474 -0.10393,0.11112 -0.2143,0.39126 -20.67364,28.4548 20.67364,28.45478 0.8572,2.16079 -0.28687,2.30688 -0.57048,1.04103 -22.67479,31.20915 -1.79013,1.48297 -2.28257,0.4402 -1.1664,-0.22072 -22.97246,-7.46423 14.1978,19.54156 0.85719,2.16079 -0.28686,2.30687 -0.57049,1.04103 -22.67478,31.20915 -1.79013,1.48297 -2.28258,0.44017 -1.1664,-0.22073 -33.45059,-10.86875 -20.67363,28.45478 -0.67276,0.55733 -0.59679,0.63806 -0.28762,0.0945 -0.2332,0.19314 -0.85784,0.16554 -0.82998,0.27288 -0.29745,-0.0552 -0.29707,0.0575 -1.16636,-0.22072 -33.45063,-10.86879 -20.6736,28.45482 -0.67279,0.55732 -0.59675,0.63806 -0.28763,0.0945 -0.2332,0.19314 -0.85784,0.16554 -0.82994,0.27288 -0.29745,-0.0552 -0.29707,0.0571 -1.1664,-0.22073 -33.45063,-10.86875 -20.6736,28.45478 -1.79017,1.48297 -2.28253,0.4402 -1.1664,-0.22072 -36.68855,-11.92082 -1.96358,-1.24429 -1.12396,-2.03483 -0.15043,-1.17751 v -24.15469 l -14.19775,19.54155 -1.79014,1.48297 -2.28256,0.44017 -1.16637,-0.22073 -36.68857,-11.92081 -1.96357,-1.24426 -1.12399,-2.03482 -0.15038,-1.17755 v -35.17204 l -33.45063,-10.86875 -0.2423,-0.15345 -0.28203,-0.0525 -0.68835,-0.56247 -0.75089,-0.47584 -0.13871,-0.25096 -0.22212,-0.18142 -0.33331,-0.82405 -0.42983,-0.77817 -0.0531,-0.41567 -0.0555,-0.1372 0.0182,-0.15458 -0.06,-0.46998 v -35.1721 l -33.45062,-10.86874 -0.2423,-0.15345 -0.28204,-0.0525 -0.68834,-0.56247 -0.75089,-0.47585 -0.13871,-0.25095 -0.22212,-0.18142 -0.33332,-0.82406 -0.42983,-0.77812 -0.0531,-0.41571 -0.0555,-0.1372 0.0182,-0.15496 -0.06,-0.46998 v -35.17219 l -33.45062,-10.86879 -1.96357,-1.24425 -1.12399,-2.03482 -0.15035,-1.17756 v -38.57661 l 0.5766,-2.25196 1.58788,-1.6978 1.07345,-0.50687 22.97246,-7.46422 -22.97246,-7.46419 -0.24231,-0.15345 -0.28203,-0.0525 -0.68835,-0.56247 -0.75089,-0.47581 -0.13871,-0.25096 -0.22212,-0.18141 -0.33335,-0.82409 -0.42983,-0.77813 -0.0531,-0.41572 -0.0555,-0.13719 0.0181,-0.15458 -0.06,-0.46999 v -38.57855 l 0.2129,-0.83149 0.10012,-0.85248 0.18459,-0.2595 0.079,-0.30848 0.5863,-0.62688 0.49749,-0.69944 0.28656,-0.13887 0.21752,-0.23259 1.07344,-0.50689 33.45063,-10.86876 v -35.17207 l 0.2129,-0.83149 0.10016,-0.85248 0.18455,-0.2595 0.079,-0.30848 0.5863,-0.62688 0.49749,-0.69945 0.28656,-0.13886 0.21751,-0.23259 1.07345,-0.50689 33.45062,-10.86877 v -35.17206 l 0.2129,-0.8315 0.10016,-0.85248 0.18455,-0.2595 0.079,-0.30849 0.58629,-0.62686 0.49749,-0.69946 0.28657,-0.13886 0.21751,-0.23255 1.07345,-0.50689 33.45062,-10.86877 v -35.1721 l 0.5766,-2.25197 1.58789,-1.69777 1.07344,-0.50689 36.68855,-11.92083 2.31991,-0.14752 2.10539,0.98553 0.81377,0.86428 14.19779,19.54154 v -24.15466 l 0.57657,-2.25197 1.58789,-1.69777 1.07346,-0.50689 36.68856,-11.92083 2.3199,-0.14752 z m -34.97983,422.9237 v 31.76749 l 30.21271,9.81672 18.67245,-25.70048 -18.67245,-25.70045 z m -59.36332,-19.28833 v 31.7675 l 30.21269,9.81671 18.67245,-25.70044 -18.67245,-25.70049 z m 96.05187,2.44037 20.88491,28.74557 32.00258,10.39827 18.67245,-25.70044 -18.67245,-25.70049 -33.45063,10.86879 -0.58148,0.0378 -0.55351,0.1818 -0.58802,-0.10923 -0.59694,0.0378 -0.52766,-0.24718 -0.57282,-0.10658 -0.46319,-0.37848 -0.54168,-0.25361 -0.77208,-0.81997 -0.0227,-0.0189 -0.004,-0.0114 -0.0151,-0.0151 -14.19776,-19.54156 z m 118.72667,-37.05408 -0.57661,2.25196 -1.58789,1.69777 -1.07343,0.5069 -33.45062,10.86876 v 31.76753 l 30.21267,9.81668 19.77868,-27.22303 v -35.53149 l -13.3028,-18.30977 z m -176.98378,19.28833 18.67245,25.70045 30.21271,-9.81672 V 585.5708 l -30.21271,-9.81672 z m 199.65852,-23.25123 v 31.76749 l 30.21271,9.81672 18.67245,-25.70049 -18.67245,-25.70044 z m -82.93303,-12.57105 -0.67276,0.55733 -0.59679,0.63806 -0.28762,0.0945 -0.23319,0.19313 -0.85784,0.16554 -0.82995,0.27288 -0.29745,-0.0552 -0.29707,0.0575 -1.16636,-0.22072 -33.45063,-10.86879 -18.67246,25.70048 18.67246,25.70045 33.45063,-10.86875 0.27061,-0.0189 0.24379,-0.1183 0.90315,0.0453 0.90236,-0.0575 0.24567,0.11491 0.27062,0.0151 0.77026,0.47372 0.81895,0.38336 0.2691,0.28573 0.1217,0.0748 0.0385,0.0953 0.38427,0.40811 14.19775,19.54156 v -24.15469 l 0.21279,-0.8315 0.10016,-0.85248 0.18444,-0.25965 0.079,-0.30841 0.58632,-0.62687 0.49746,-0.69948 0.28649,-0.13871 0.21732,-0.23243 1.07346,-0.50692 33.45059,-10.86875 V 546.9945 l -30.21266,-9.81672 z m -191.2088,0.65019 V 598.05 l 32.00258,10.39824 33.79243,-10.97983 13.30284,-18.30977 -22.97245,7.46422 -2.31993,0.14741 -2.10537,-0.98551 -0.81379,-0.86431 -20.67362,-28.45477 z m 1.10621,-65.82285 20.67363,28.45482 0.85719,2.16079 -0.0476,0.38264 0.0853,0.2109 -0.21668,0.84634 -0.10776,0.86699 -0.21441,0.39122 -0.0378,0.1474 -0.10394,0.11112 -0.21441,0.39125 -14.19776,19.54152 22.97245,-7.46418 2.31993,-0.14741 2.10536,0.98552 0.8138,0.86426 20.67362,28.45481 30.21269,-9.81667 V 535.0734 l -33.45063,-10.86875 -0.2423,-0.15345 -0.28203,-0.0525 -0.68835,-0.56247 -0.75089,-0.47584 -0.1387,-0.25096 -0.22213,-0.18142 -0.33331,-0.82405 -0.42983,-0.77813 -0.0531,-0.41571 -0.0555,-0.13719 0.0182,-0.15459 -0.06,-0.46998 V 484.5763 l -30.21269,-9.81671 z m 94.94566,32.73173 v 33.64951 l 30.21271,9.81668 19.77868,-27.22303 v -33.64947 l -30.21271,-9.81672 z m 156.52141,10.39827 18.67249,25.70045 30.21267,-9.81672 v -31.76749 l -30.21267,-9.81672 z m 58.25711,-15.88376 v 31.76749 l 30.21271,9.81672 18.67245,-25.70045 -18.67245,-25.70048 z M 461.68506,352.37181 v 35.17207 l -0.5766,2.25197 -1.58789,1.69776 -1.07343,0.50689 -36.68855,11.92083 -2.31995,0.14752 -2.10535,-0.98553 -0.81381,-0.86427 -20.6736,-28.4548 -30.2127,9.8167 v 31.7675 l 33.45063,10.86877 1.96357,1.24427 1.124,2.03482 0.15042,1.17756 v 38.57661 l -0.57657,2.25195 -1.58789,1.6978 -1.07346,0.50688 -33.45062,10.86878 v 31.7675 l 30.2127,9.81668 20.6736,-28.45478 0.43676,-0.3617 0.32882,-0.46216 0.55219,-0.26759 0.47251,-0.39144 0.55684,-0.10734 0.51039,-0.24719 0.61285,0.0302 0.60246,-0.11603 1.05116,0.19918 0.0552,0.003 0.0189,0.0114 0.0419,0.008 36.68855,11.92082 0.95606,0.60585 0.96405,0.5929 0.0114,0.0227 0.034,0.0227 1.12399,2.03482 0.15043,1.17755 v 35.17206 l 30.21271,9.81667 18.67245,-25.70044 -20.6736,-28.45478 -0.42301,-1.06632 -0.43011,-1.06329 0.002,-0.0151 -0.008,-0.0151 0.14136,-1.13805 0.13379,-1.13945 0.008,-0.0151 0.002,-0.0151 0.57048,-1.04104 22.67478,-31.20915 0.43672,-0.36169 0.32882,-0.46217 0.55215,-0.26758 0.47252,-0.39145 0.55688,-0.10734 0.51038,-0.24718 0.61282,0.0302 0.60249,-0.11603 1.05112,0.19919 0.0552,0.003 0.0189,0.0114 0.0419,0.008 33.45063,10.86875 18.67245,-25.70045 -18.67245,-25.70046 -33.45063,10.86877 -0.58148,0.0378 -0.55348,0.1818 -0.58805,-0.10923 -0.5969,0.0378 -0.5277,-0.24681 -0.57283,-0.10658 -0.46314,-0.37844 -0.54172,-0.25361 -0.77208,-0.82001 -0.0227,-0.0189 -0.004,-0.0114 -0.0151,-0.0151 -22.67479,-31.20915 -0.423,-1.06631 -0.43011,-1.06327 0.002,-0.0162 -0.008,-0.0151 0.14135,-1.13807 0.1338,-1.13945 0.008,-0.0132 0.002,-0.0163 0.57052,-1.04103 20.6736,-28.45481 -18.67245,-25.70045 z M 290.4662,485.15745 269.58131,513.90302 v 33.64951 l 30.21269,9.81668 18.67247,-25.70044 -20.67363,-28.45478 -0.423,-1.06632 -0.4301,-1.06329 0.002,-0.0151 -0.006,-0.0151 0.14143,-1.13805 0.13383,-1.13945 0.009,-0.0151 0.002,-0.0151 0.57049,-1.04103 14.19776,-19.54152 z m 209.01364,15.30217 19.77869,27.22303 32.00254,10.39827 18.67249,-25.70044 -19.77868,-27.22303 -32.00258,-10.39827 z m 117.62041,-35.17206 v 35.17206 l -0.57657,2.25196 -1.5879,1.6978 -1.07346,0.50687 -22.97245,7.46423 21.5244,6.99367 33.79245,-10.97982 19.77869,-27.223 -18.67245,-25.70048 z m -384.20749,0 v 31.7675 l 30.21269,9.81672 18.67247,-25.70045 -18.67247,-25.70048 z m 325.95038,-46.53454 20.67363,28.4548 0.85721,2.1608 -0.0476,0.38267 0.0854,0.2109 -0.21656,0.84639 -0.10772,0.86695 -0.2143,0.39121 -0.0378,0.14741 -0.10394,0.11111 -0.2143,0.39126 -20.6736,28.45481 18.67246,25.70045 30.21271,-9.81672 v -35.17205 l 0.57656,-2.25196 1.58789,-1.6978 1.07346,-0.50687 22.97246,-7.46423 -22.97246,-7.46419 -1.96357,-1.24426 -1.124,-2.03482 -0.15042,-1.17754 v -35.17207 l -30.21271,-9.8167 z m -229.89851,15.3254 v 31.7675 l 32.00258,10.39827 32.00257,-10.39827 v -31.7675 l -32.00257,-10.39827 z m -58.25711,15.88373 18.67247,25.70049 30.21269,-9.81672 v -31.7675 l -30.21269,-9.81671 z m -37.79476,-47.09288 v 31.7675 l 30.21269,9.81672 18.67247,-25.70047 -18.67247,-25.70045 z m 357.99711,-15.32539 22.97245,7.46421 1.96358,1.24427 1.124,2.03481 0.15042,1.17754 v 35.17206 l 30.21271,9.81672 18.67245,-25.70047 L 646.2068,391.53 612.41435,380.55017 Z m -248.8264,-35.82228 -0.67277,0.55733 -0.59677,0.63806 -0.28755,0.0945 -0.23308,0.1931 -0.85783,0.16543 -0.82998,0.27277 -0.29756,-0.0553 -0.29719,0.0573 -1.16637,-0.22088 -22.97246,-7.4642 14.19776,19.54154 0.85719,2.1608 -0.0476,0.38266 0.0853,0.2109 -0.21668,0.84635 -0.10775,0.86696 -0.21442,0.39124 -0.0378,0.14744 -0.10393,0.11112 -0.21441,0.39124 -20.67363,28.4548 18.67248,25.70045 30.21269,-9.81671 v -35.17205 l 0.57659,-2.25198 1.58789,-1.69776 1.07345,-0.50689 33.4506,-10.86877 v -31.7675 l -30.21268,-9.8167 z m 177.19506,20.52009 -19.77869,27.22302 18.67246,25.70046 32.00258,-10.39828 19.77868,-27.22301 -18.67249,-25.70046 z M 269.58131,352.37181 v 33.6495 l 20.88489,28.74558 21.52441,6.99371 -14.19777,-19.54154 -0.423,-1.06631 -0.4301,-1.06328 0.002,-0.0162 -0.006,-0.0151 0.14143,-1.13807 0.13383,-1.13946 0.009,-0.0132 0.002,-0.0163 0.57049,-1.04103 20.67362,-28.4548 -18.67246,-25.70046 z M 402.32173,333.0835 v 33.6495 l 19.77868,27.22302 30.21271,-9.8167 v -33.6495 L 432.53444,323.2668 Z m 156.52141,23.25123 18.67249,25.70046 30.21267,-9.81671 v -31.7675 l -30.21267,-9.8167 z m 58.25711,-15.88375 v 31.7675 l 30.21271,9.81671 18.67245,-25.70046 -18.67245,-25.70045 z m -119.62159,-39.22684 -0.67276,0.55732 -0.59679,0.63807 -0.28762,0.0945 -0.23319,0.19309 -0.85784,0.16543 -0.82995,0.27277 -0.29745,-0.0553 -0.29707,0.0573 -1.16636,-0.22087 -33.45063,-10.86877 -18.67246,25.70046 18.67246,25.70045 33.45063,-10.86877 2.31991,-0.14751 2.10539,0.98553 0.81376,0.86427 20.67364,28.4548 30.21271,-9.8167 v -31.7675 l -33.45063,-10.86876 -1.96358,-1.24427 -1.12399,-2.03482 -0.15042,-1.17754 v -24.15468 z m -191.2088,0.65021 v 31.76751 l 30.21269,9.8167 20.67362,-28.4548 0.43674,-0.36181 0.32871,-0.46215 0.55217,-0.26759 0.47253,-0.39144 0.55685,-0.10737 0.51038,-0.24733 0.61284,0.0306 0.60248,-0.11618 1.05114,0.19903 0.0552,0.003 0.0182,0.011 0.0419,0.008 22.97246,7.46421 -13.30285,-18.30978 -33.79244,-10.97983 z M 521.0484,270.6652 v 31.76751 l 33.45062,10.86877 1.96355,1.24427 1.12399,2.03481 0.15043,1.17754 v 24.15468 l 13.3028,-18.30976 v -35.5315 L 551.26111,260.8485 Z m 59.36329,19.28832 v 31.7675 l 30.21271,9.8167 18.67245,-25.70045 -18.67245,-25.70045 z m -199.65852,8.51627 18.67245,25.70045 30.21271,-9.81669 v -31.76752 l -30.21271,-9.8167 z m 79.14202,-46.51133 -20.88491,28.74558 v 22.63211 l 14.19775,-19.54154 0.43677,-0.36182 0.32882,-0.46214 0.55215,-0.26759 0.47255,-0.39144 0.55684,-0.10738 0.51039,-0.24733 0.61285,0.0306 0.60245,-0.11619 1.05117,0.19907 0.0552,0.003 0.0189,0.011 0.0419,0.008 33.4506,10.86877 18.67249,-25.70046 -18.67249,-25.70063 z m -116.93678,-0.58157 v 31.7675 l 30.21269,9.81671 18.67245,-25.70046 -18.67245,-25.70045 z m 59.36332,-19.28831 v 31.7675 l 30.21271,9.81671 18.67245,-25.70046 -18.67245,-25.70045 z"
     stroke-miterlimit="10"
     id="path1"
     style="stroke-width:0.585748" />
</svg>
