<?xml version="1.0" encoding="UTF-8" standalone="no"?>
<svg
   version="1.1"
   width="748.82031"
   height="786.32416"
   id="svg72"
   sodipodi:docname="gearform01.svg"
   inkscape:version="1.3 (0e150ed, 2023-07-21)"
   xmlns:inkscape="http://www.inkscape.org/namespaces/inkscape"
   xmlns:sodipodi="http://sodipodi.sourceforge.net/DTD/sodipodi-0.dtd"
   xmlns="http://www.w3.org/2000/svg"
   xmlns:svg="http://www.w3.org/2000/svg">
  <sodipodi:namedview
     id="namedview72"
     pagecolor="#505050"
     bordercolor="#eeeeee"
     borderopacity="1"
     inkscape:showpageshadow="0"
     inkscape:pageopacity="0"
     inkscape:pagecheckerboard="0"
     inkscape:deskcolor="#d1d1d1"
     showgrid="false"
     inkscape:zoom="0.89333333"
     inkscape:cx="448.8806"
     inkscape:cy="422.01493"
     inkscape:window-width="1920"
     inkscape:window-height="1044"
     inkscape:window-x="1920"
     inkscape:window-y="0"
     inkscape:window-maximized="1"
     inkscape:current-layer="svg72" />
  <defs
     id="defs1" />
  <path
     id="path1"
     d="m 352.54492,0.19140588 c -0.70178,0.31901899 -1.50703,0.15455 -2.2048,0.528809 C 334.62691,5.8249129 318.91499,10.932072 303.20117,16.035156 c -0.49208,0.469102 -1.18772,0.51719 -1.7623,0.779512 -0.68243,0.77462 -1.49018,1.39385 -2.38028,1.911895 -0.26961,0.671762 -0.68398,1.238114 -1.23632,1.705078 -0.21595,1.041894 -0.59401,2.020914 -1.13086,2.939453 0.0891,0.659167 0.0357,1.300664 -0.14844,1.932031 0,14.298698 0,28.597397 0,42.896097 -11.2453,3.65209 -22.48965,7.3071 -33.73438,10.96093 -8.42289,-11.59785 -16.85137,-23.18993 -25.27343,-34.78906 -0.60075,-0.32019 -0.85838,-0.97065 -1.28447,-1.435923 -0.94946,-0.405081 -1.78691,-0.982323 -2.55342,-1.669544 -0.72125,-0.05113 -1.38935,-0.268038 -2.00196,-0.652344 -1.05931,0.11549 -2.10978,0.06771 -3.15039,-0.166015 -0.59485,0.294718 -1.22176,0.433014 -1.87633,0.454786 -15.98599,5.19644 -31.9738,10.38728 -47.95961,15.58428 -0.49461,0.46972 -1.19468,0.51453 -1.76992,0.78164 -0.67957,0.77572 -1.48619,1.39442 -2.37656,1.90976 -0.27143,0.67005 -0.68209,1.23858 -1.23633,1.70313 -0.21577,1.04218 -0.59155,2.02263 -1.1289,2.9414 0.0906,0.65788 0.0309,1.29783 -0.15039,1.92813 0,14.3 0,28.6 0,42.899998 -13.62975,4.43047 -27.26124,8.85555 -40.89063,13.28711 -0.49371,0.47 -1.19217,0.51497 -1.76798,0.77774 -0.6809,0.77602 -1.48687,1.3978 -2.3785,1.91366 -0.27143,0.67005 -0.6821,1.23858 -1.23633,1.70313 -0.21615,1.04138 -0.5901,2.02206 -1.12891,2.93945 0.0897,0.65961 0.0321,1.30205 -0.15039,1.93399 0,16.80846 0,33.61692 0,50.42539 0.2962,0.61328 0.12151,1.2914 0.19584,1.91915 0.52753,0.88747 0.86878,1.84683 1.08346,2.85429 0.55627,0.46166 0.96529,1.02984 1.23633,1.69921 0.92552,0.5267 1.74147,1.18884 2.44921,1.98438 0.65553,0.11598 1.24748,0.36987 1.79229,0.73821 13.59808,4.42004 27.19693,8.8377 40.79561,13.25593 0,11.82357 0,23.64713 0,35.4707 -11.24421,3.6528 -22.4887,7.30472 -33.73243,10.95899 -8.42378,-11.59474 -16.84913,-23.18894 -25.27343,-34.78516 -0.59709,-0.32559 -0.85821,-0.97257 -1.28634,-1.43803 -0.94717,-0.40858 -1.78693,-0.98256 -2.55351,-1.66939 -0.72054,-0.0515 -1.38791,-0.26844 -2,-0.65234 -1.05891,0.11639 -2.10766,0.0641 -3.14843,-0.16407 -0.59807,0.29229 -1.22791,0.42808 -1.88423,0.45455 -15.985711,5.19491 -31.972201,10.38678 -47.957571,15.58256 -0.49277,0.46928 -1.18889,0.51618 -1.76407,0.77774 -0.68038,0.77676 -1.48815,1.39593 -2.37851,1.91367 -0.2693,0.67063 -0.68366,1.2363 -1.23633,1.70117 -0.21458,1.04344 -0.59426,2.02349 -1.13086,2.94336 0.0887,0.65746 0.0335,1.29814 -0.14843,1.92812 -1e-5,14.29935 0,28.5987 0,42.89805 -13.63143,4.43115 -27.264087,8.85862 -40.8964886,13.28711 -0.489374,0.47257 -1.186683,0.51678 -1.760347,0.77951 -0.682434,0.77462 -1.49018,1.39385 -2.380278,1.9119 -0.269611,0.67176 -0.683981,1.23811 -1.236328,1.70507 -0.215946,1.0419 -0.59400502,2.02092 -1.13086002,2.93946 0.08911,0.65917 0.03566,1.30066 -0.14843700499992,1.93203 0,16.80781 0,33.61562 0,50.42344 C 0.29832438,353.59442 0.11835638,354.27296 0.19373738,354.90165 c 0.526647,0.88691 0.86971002,1.84389 1.08556002,2.8503 0.552427,0.46691 0.966395,1.03355 1.236328,1.70508 0.923597,0.52936 1.741821,1.18832 2.451172,1.98242 0.653345,0.11578 1.243262,0.37085 1.78461,0.73973 13.6006116,4.41826 27.2008516,8.83766 40.8013316,13.25636 0,11.82292 -1e-5,23.64584 0,35.46876 -13.6315,4.42908 -27.263126,8.85776 -40.8945356,13.2871 -0.492768,0.46928 -1.18889,0.51619 -1.76407,0.77775 -0.680374,0.77676 -1.488148,1.39592 -2.378508,1.91366 -0.269611,0.67176 -0.683981,1.23812 -1.236328,1.70508 -0.215946,1.04189 -0.59400502,2.02091 -1.13086002,2.93945 0.08911,0.65917 0.03566,1.30067 -0.14843700499992,1.93203 0,16.80847 0,33.61693 0,50.42539 C 0.29572738,484.49748 0.11855938,485.17501 0.19373738,485.80204 c 0.526245,0.88831 0.87088802,1.84632 1.08556002,2.85421 0.552981,0.46464 0.966587,1.03086 1.236328,1.70117 0.924012,0.52887 1.742102,1.18796 2.449218,1.98438 0.654996,0.11447 1.244499,0.37062 1.788447,0.73798 13.5997536,4.41891 27.1995286,8.83776 40.7994486,13.25616 0,14.33203 0,28.66406 0,42.99609 0.29832,0.61395 0.11835,1.29249 0.19373,1.92118 0.52665,0.88691 0.86971,1.84389 1.08556,2.8503 0.55243,0.46691 0.9664,1.03355 1.23633,1.70508 0.92401,0.52887 1.7421,1.18796 2.44922,1.98438 0.65499,0.11447 1.2445,0.37063 1.78845,0.73799 15.98597,5.19381 31.97158,10.38878 47.957641,15.58232 0.67529,-0.0849 1.26927,0.28118 1.88978,0.40816 1.00644,-0.22908 2.0237,-0.25228 3.04772,-0.1484 0.61197,-0.38426 1.27957,-0.60048 2,-0.65234 0.78759,-0.71534 1.66815,-1.28737 2.64258,-1.71484 0.3138,-0.58607 0.73979,-1.06807 1.25595,-1.47355 8.40266,-11.5697 16.80816,-23.13734 25.21475,-34.70419 11.24415,3.65299 22.48831,7.30591 33.73243,10.95899 0,11.82291 0,23.64583 0,35.46875 -13.63014,4.42992 -27.26089,8.85795 -40.89063,13.28906 -0.49371,0.47 -1.19217,0.51497 -1.76798,0.77774 -0.67954,0.77823 -1.48773,1.39693 -2.38046,1.91171 -0.27033,0.66948 -0.67898,1.23897 -1.23437,1.70117 -0.21541,1.04345 -0.59133,2.02534 -1.12891,2.94532 0.0901,0.65833 0.0316,1.29937 -0.15039,1.93008 0,16.80781 0,33.61562 0,50.42343 0.29609,0.61461 0.12158,1.29407 0.19584,1.92306 0.52793,0.88607 0.8676,1.8444 1.08346,2.85038 0.55483,0.46411 0.96449,1.03338 1.23633,1.70313 0.92417,0.52627 1.74099,1.18505 2.44726,1.98046 0.65457,0.12182 1.24851,0.37387 1.79424,0.74212 13.59824,4.41953 27.19692,8.83774 40.79561,13.25593 0,14.33333 0,28.66667 0,43 0.29481,0.61302 0.12232,1.28983 0.19569,1.91727 0.52679,0.8873 0.86805,1.8455 1.0836,2.85226 0.55484,0.46412 0.9645,1.03338 1.23633,1.70313 0.9251,0.52658 1.74221,1.18647 2.44922,1.98242 0.65609,0.1146 1.2465,0.37049 1.7904,0.73994 15.98609,5.19314 31.971,10.38863 47.95765,15.58037 0.67482,-0.0876 1.26588,0.28212 1.88592,0.40846 1.00692,-0.22461 2.02354,-0.25511 3.04767,-0.14869 0.61417,-0.38197 1.28254,-0.59878 2.00391,-0.65039 0.78744,-0.71586 1.66634,-1.29013 2.64257,-1.71485 0.30987,-0.58933 0.73691,-1.07037 1.254,-1.4755 8.40515,-11.56789 16.81123,-23.13511 25.21475,-34.70418 11.24425,3.65543 22.4902,7.3053 33.73438,10.96093 0,14.33203 0,28.66407 0,42.9961 0.29817,0.61329 0.11826,1.29126 0.19388,1.91915 0.52861,0.88729 0.86898,1.84699 1.08542,2.85428 0.55552,0.46362 0.96288,1.0343 1.23632,1.70313 0.9236,0.52936 1.74183,1.18832 2.45118,1.98242 0.65392,0.11718 1.24454,0.37063 1.78837,0.73821 15.98486,5.19524 31.9701,10.38933 47.95577,15.5821 0.67528,-0.0849 1.26926,0.28118 1.88978,0.40816 1.00517,-0.22859 2.02109,-0.25258 3.04381,-0.14839 0.61463,-0.38138 1.28215,-0.59843 2.00391,-0.64844 0.78454,-0.72041 1.66742,-1.28946 2.64257,-1.7168 0.31242,-0.58809 0.7382,-1.07041 1.25596,-1.4755 8.40432,-11.56849 16.80804,-23.13742 25.21475,-34.70418 13.6303,4.42811 27.26046,8.85662 40.89062,13.28515 0.67529,-0.0849 1.26927,0.28118 1.88978,0.40816 1.00644,-0.22908 2.0237,-0.25227 3.04772,-0.14839 0.61119,-0.38657 1.27959,-0.59763 2,-0.64844 0.78781,-0.71686 1.66747,-1.29171 2.64453,-1.7168 0.30987,-0.58932 0.73691,-1.07037 1.254,-1.4755 9.87941,-13.59809 19.75755,-27.19712 29.63858,-40.79403 0.12314,-0.67036 0.66239,-1.11757 0.97087,-1.67101 0.0949,-1.02762 0.38537,-2.00238 0.80062,-2.94422 -0.17488,-0.70037 -0.17425,-1.4012 0,-2.10156 -0.4358,-0.97066 -0.71136,-1.98374 -0.81641,-3.04297 -0.45928,-0.48151 -0.78601,-1.03671 -1.01376,-1.65324 -8.40461,-11.56828 -16.80989,-23.13608 -25.21476,-34.70418 6.95077,-9.5648 13.89991,-19.13043 20.84961,-28.69532 11.24482,3.65191 22.48774,7.30877 33.73243,10.96094 0,14.33333 0,28.66667 0,43 0.29481,0.61302 0.12233,1.28983 0.19569,1.91728 0.52757,0.88715 0.87133,1.84424 1.0836,2.85225 0.55337,0.46549 0.96835,1.03184 1.23828,1.70313 0.92313,0.52851 1.74083,1.18663 2.44727,1.98242 0.65609,0.1146 1.2465,0.37049 1.7904,0.73994 15.98545,5.1948 31.97202,10.38612 47.95765,15.58037 0.67482,-0.0876 1.26588,0.28212 1.88592,0.40846 1.00692,-0.22461 2.02354,-0.25511 3.04767,-0.14869 0.61474,-0.38356 1.28309,-0.60003 2.00586,-0.65039 0.78455,-0.71883 1.66528,-1.2897 2.64062,-1.71485 0.30987,-0.58933 0.73691,-1.07037 1.254,-1.4755 8.40461,-11.56829 16.80989,-23.13608 25.21476,-34.70418 13.63029,4.42987 27.26143,8.85748 40.89257,13.28515 0.67469,-0.0847 1.26818,0.28007 1.88788,0.40846 1.00626,-0.22479 2.02221,-0.25507 3.04572,-0.14869 0.61566,-0.38098 1.28329,-0.59972 2.00586,-0.65039 0.78744,-0.71586 1.66634,-1.29013 2.64257,-1.71485 0.30987,-0.58933 0.73691,-1.07037 1.254,-1.4755 9.87985,-13.5989 19.7601,-27.19751 29.64054,-40.79598 0.1189,-0.67103 0.66208,-1.11412 0.96885,-1.66712 0.0945,-1.02833 0.3852,-2.00373 0.80068,-2.94616 -0.17488,-0.70037 -0.17425,-1.4012 0,-2.10157 -0.43606,-0.97123 -0.71179,-1.98497 -0.81641,-3.04492 -0.45774,-0.48108 -0.78992,-1.03154 -1.01229,-1.64897 -8.40669,-11.5679 -16.8106,-23.13782 -25.21623,-34.7065 6.94887,-9.56518 13.89887,-19.12954 20.84961,-28.69335 13.63212,4.42918 27.26461,8.85719 40.89649,13.2871 0.67362,-0.0922 1.26277,0.2842 1.88198,0.40626 1.00715,-0.22863 2.02496,-0.25263 3.04966,-0.14844 0.61197,-0.38427 1.27957,-0.60049 2,-0.65235 0.78759,-0.71534 1.66815,-1.28736 2.64258,-1.71484 0.3138,-0.58607 0.73979,-1.06806 1.25595,-1.47355 9.8796,-13.5986 19.76026,-27.19645 29.63858,-40.79598 0.12803,-0.66806 0.66036,-1.1188 0.97086,-1.67101 0.0949,-1.02637 0.38423,-2.0002 0.80062,-2.94032 -0.17652,-0.70268 -0.17499,-1.40467 0,-2.10742 -0.43696,-0.97019 -0.71192,-1.98371 -0.8164,-3.04297 -0.46144,-0.47913 -0.78781,-1.03258 -1.01377,-1.64933 -8.4046,-11.56829 -16.80988,-23.13609 -25.21475,-34.70419 8.42691,-11.59329 16.84869,-23.1903 25.27344,-34.78515 0.12298,-0.67081 0.66308,-1.11843 0.9724,-1.67108 0.0914,-1.02739 0.38378,-2.00138 0.79908,-2.9422 -0.17439,-0.70109 -0.17464,-1.40251 0,-2.10352 -0.43579,-0.97066 -0.71136,-1.98373 -0.8164,-3.04297 -0.45929,-0.4815 -0.78602,-1.0367 -1.01377,-1.65323 -9.87883,-13.59982 -19.76145,-27.19689 -29.63858,-40.79794 -0.60074,-0.32019 -0.85838,-0.97065 -1.28446,-1.43593 -0.94946,-0.40508 -1.78692,-0.98232 -2.55343,-1.66954 -0.72124,-0.0511 -1.38934,-0.26804 -2.00195,-0.65234 -1.05845,0.11487 -2.10807,0.0642 -3.14844,-0.16406 -0.59803,0.28825 -1.22478,0.43112 -1.88017,0.45305 -13.59955,4.42018 -27.19973,8.83844 -40.79952,13.25788 -6.94987,-9.5651 -13.89974,-19.13021 -20.84961,-28.69531 6.95002,-9.565 13.89973,-19.13022 20.84961,-28.69531 13.63091,4.42823 27.26142,8.85769 40.89258,13.28515 0.67407,-0.0848 1.26676,0.28064 1.88592,0.40846 1.0069,-0.22495 2.02352,-0.25505 3.04768,-0.14869 0.61416,-0.38197 1.28254,-0.59878 2.0039,-0.65039 0.78745,-0.71586 1.66635,-1.29013 2.64258,-1.71484 0.30994,-0.58759 0.73631,-1.06956 1.25365,-1.47185 9.87704,-13.60111 19.76001,-27.19793 29.63893,-40.79769 0.12803,-0.66805 0.66036,-1.1188 0.97086,-1.67101 0.0949,-1.02762 0.38538,-2.00238 0.80062,-2.94422 -0.17487,-0.70037 -0.17424,-1.4012 0,-2.10156 -0.43579,-0.97066 -0.71136,-1.98374 -0.8164,-3.04297 -0.4578,-0.48249 -0.78996,-1.03479 -1.01363,-1.65334 -8.40271,-11.57006 -16.81075,-23.13542 -25.21294,-34.70408 8.42317,-11.59553 16.84825,-23.18968 25.27149,-34.78516 0.12803,-0.66806 0.66036,-1.1188 0.97086,-1.67101 0.0949,-1.02637 0.38423,-2.0002 0.80062,-2.94032 -0.17652,-0.70268 -0.17499,-1.40467 0,-2.10742 -0.43696,-0.97018 -0.71192,-1.98371 -0.8164,-3.04297 -0.46134,-0.4792 -0.78799,-1.03244 -1.01363,-1.64943 -9.87609,-13.59883 -19.75943,-27.1974 -29.63872,-40.79588 -0.59708,-0.32559 -0.8582,-0.97257 -1.28634,-1.43803 -0.94717,-0.40858 -1.78692,-0.98256 -2.5535,-1.66939 -0.72054,-0.0515 -1.38792,-0.26844 -2,-0.65235 -1.05778,0.11452 -2.10685,0.0649 -3.14648,-0.16406 -0.59852,0.29084 -1.22787,0.42834 -1.88423,0.45455 -13.59934,4.41754 -27.19769,8.83811 -40.79742,13.25443 -6.94995,-9.56439 -13.90097,-19.128 -20.84961,-28.69335 8.42548,-11.59546 16.8482,-23.19292 25.2754,-34.78711 0.11886,-0.67104 0.66215,-1.11411 0.96879,-1.66713 0.0943,-1.02767 0.38432,-2.00283 0.80074,-2.9442 -0.1744,-0.70109 -0.17464,-1.4025 0,-2.10352 -0.43606,-0.97124 -0.71179,-1.98498 -0.81641,-3.04492 -0.4575,-0.48126 -0.7904,-1.0312 -1.01194,-1.64923 -9.87988,-13.60018 -19.7626,-27.19831 -29.6404,-40.799988 -0.60075,-0.32019 -0.85838,-0.97065 -1.28447,-1.43592 -0.94946,-0.40508 -1.78691,-0.98233 -2.55342,-1.66955 -0.72348,-0.0489 -1.38993,-0.27149 -2.00586,-0.65234 -1.05715,0.11521 -2.10543,0.0638 -3.14453,-0.16406 -0.59808,0.28819 -1.22469,0.43129 -1.88025,0.45283 -13.60135,4.41966 -27.19996,8.83875 -40.80139,13.258098 -8.42409,-11.596628 -16.85132,-23.190998 -25.27344,-34.789058 -0.60075,-0.32019 -0.85838,-0.97065 -1.28447,-1.43592 -0.94846,-0.4057 -1.78756,-0.97979 -2.55147,-1.66955 -0.7227,-0.0497 -1.39073,-0.26643 -2.00391,-0.65234 -1.05931,0.11549 -2.10978,0.0677 -3.15039,-0.16602 -0.59485,0.29472 -1.22176,0.43302 -1.87633,0.45479 -15.98641,5.19514 -31.97374,10.38747 -47.9596,15.58428 -0.49462,0.46972 -1.19469,0.51453 -1.76993,0.78164 -0.67892,0.77566 -1.48605,1.39271 -2.37461,1.90976 -0.26946,0.67164 -0.68503,1.23755 -1.23828,1.70313 -0.21155,1.04379 -0.59124,2.02257 -1.1289,2.9414 0.0906,0.65788 0.0309,1.29783 -0.15039,1.92813 0,14.299998 0,28.599998 0,42.899998 -10.79986,3.5085 -21.59924,7.01798 -32.39844,10.52734 1.47265,0.22201 2.94531,0.44401 4.41797,0.66602 -1.06185,1.04492 -2.1237,2.08984 -3.18555,3.13476 -0.41146,-1.26627 -0.82292,-2.53255 -1.23437,-3.79882 -0.51519,0.0139 -1.27746,0.78723 -1.56716,0.10803 -6.87155,-9.45719 -13.74199,-18.91519 -20.61449,-28.37171 8.4244,-11.59511 16.84946,-23.189738 25.27344,-34.785148 0.12803,-0.66806 0.66036,-1.1188 0.97087,-1.67101 0.0949,-1.02762 0.38537,-2.00238 0.80062,-2.94423 -0.17488,-0.70036 -0.17425,-1.4012 0,-2.10156 -0.4358,-0.97066 -0.71136,-1.98373 -0.81641,-3.04297 -0.45928,-0.4815 -0.78601,-1.0367 -1.01376,-1.65323 -9.8821,-13.5976 -19.75753,-27.196881 -29.63858,-40.794034 -0.59874,-0.324555 -0.85883,-0.972361 -1.28447,-1.439831 -0.94946,-0.405081 -1.78691,-0.982323 -2.55342,-1.669544 -0.72151,-0.05119 -1.38967,-0.26865 -2.00391,-0.65039 -1.0579,0.11681 -2.10635,0.06104 -3.14648,-0.164063 -0.59807,0.292287 -1.22791,0.428081 -1.88423,0.45455 -13.59857,4.418244 -27.19684,8.836423 -40.79546,13.254434 -8.42888,-11.597092 -16.84733,-23.187044 -25.27344,-34.7851561 -0.59901,-0.324845 -0.85881,-0.973081 -1.28634,-1.439978 -0.94736,-0.407592 -1.78796,-0.979141 -2.55155,-1.66939703 -0.72277,-0.05003 -1.39037,-0.268884 -2.00586,-0.65039 -1.05726,0.116954 -2.10503,0.06087 -3.14453,-0.16406299500011 C 352.87695,0.06379987 352.71094,0.12760387 352.54492,0.19140588 Z M 365.59961,42.859375 c 3.3485,4.581367 6.64857,9.209617 10.02723,13.761777 0.73578,0.34131 0.80998,1.33746 1.59777,1.57221 0.8742,0.30438 1.50372,1.02626 2.26087,1.48637 0.69056,0.0391 1.31592,0.28089 1.90319,0.63667 1.05846,-0.11486 2.10807,-0.0642 3.14844,0.16407 0.59808,-0.28819 1.22468,-0.43129 1.88024,-0.45284 13.60057,-4.41904 27.20105,-8.83839 40.8014,-13.2581 6.94976,9.56518 13.89813,19.13138 20.84961,28.69531 -8.42718,11.59469 -16.85053,23.19216 -25.27734,34.787108 -0.11891,0.67103 -0.66209,1.11412 -0.96886,1.66712 -0.0955,1.0271 -0.38298,2.00275 -0.79872,2.94421 0.17205,0.70176 0.17218,1.40371 0,2.10547 0.43578,0.97042 0.70899,1.98421 0.81445,3.04297 0.45774,0.48108 0.78992,1.03154 1.01229,1.64897 8.40736,11.56789 16.8102,23.13907 25.21818,34.7065 -6.95074,9.56381 -13.90074,19.12818 -20.84961,28.69335 -13.63169,-4.42582 -27.26124,-8.85824 -40.89258,-13.28515 -0.67528,0.0849 -1.26926,-0.28118 -1.88978,-0.40816 -1.00644,0.22908 -2.02369,0.25228 -3.04772,0.14839 -0.61197,0.38427 -1.27957,0.60049 -2,0.65235 -0.78759,0.71534 -1.66815,1.28736 -2.64258,1.71484 -0.3138,0.58607 -0.73979,1.06806 -1.25595,1.47355 -9.18895,12.65315 -18.38323,25.30244 -27.57412,37.95418 -13.79114,4.48092 -27.58176,8.96249 -41.37305,13.44336 -14.90434,-4.84232 -29.80829,-9.68583 -44.71289,-14.52734 -0.67466,0.0851 -1.26786,-0.28183 -1.88782,-0.4081 -1.00645,0.23118 -2.02349,0.2532 -3.04773,0.14834 -0.61197,0.38426 -1.27957,0.60048 -2,0.65234 -0.78759,0.71534 -1.66815,1.28737 -2.64258,1.71484 -0.3138,0.58607 -0.73979,1.06807 -1.25595,1.47355 -8.40377,11.5689 -16.8106,23.13557 -25.21475,34.70419 -11.24552,-3.65077 -22.48913,-7.30738 -33.73437,-10.95899 0,-14.33203 0,-28.66406 0,-42.99609 -0.29833,-0.61395 -0.11836,-1.2925 -0.19374,-1.92118 -0.52758,-0.88716 -0.87134,-1.84425 -1.08361,-2.85226 -0.55336,-0.46549 -0.96834,-1.03184 -1.23828,-1.70312 -0.92401,-0.52887 -1.7421,-1.18796 -2.44922,-1.98438 -0.65472,-0.11658 -1.24601,-0.37025 -1.79033,-0.73821 -13.59906,-4.41901 -27.19793,-8.83866 -40.79756,-13.25593 0,-11.82292 0,-23.64583 0,-35.46875 13.63077,-4.42996 27.26186,-8.85896 40.89258,-13.28906 0.49282,-0.46907 1.18955,-0.51435 1.76425,-0.77756 0.68244,-0.77462 1.49018,-1.39385 2.38028,-1.91189 0.27305,-0.66923 0.68196,-1.2386 1.23828,-1.70118 0.2128,-1.04433 0.58966,-2.02606 1.12891,-2.94531 -0.0893,-0.65854 -0.0355,-1.29933 0.14844,-1.93008 0,-14.2987 0,-28.597388 0,-42.896088 11.24473,-3.65383 22.48872,-7.30994 33.73437,-10.96094 8.42379,11.59555 16.84865,23.19033 25.27344,34.78516 0.59874,0.32455 0.85882,0.97236 1.28446,1.43983 0.94947,0.40508 1.78692,0.98232 2.55343,1.669538 0.7215,0.0512 1.38967,0.26865 2.0039,0.65039 1.05789,-0.11695 2.10634,-0.0609 3.14649,0.16407 0.59751,-0.2918 1.22661,-0.42806 1.88227,-0.45455 15.98593,-5.193328 31.97136,-10.388168 47.95757,-15.580608 0.49221,-0.47227 1.19001,-0.51753 1.76603,-0.7797 0.68023,-0.77634 1.48723,-1.39602 2.3785,-1.91171 0.27143,-0.67004 0.6821,-1.23857 1.23633,-1.70312 0.21615,-1.04138 0.5901,-2.02206 1.12891,-2.93946 -0.0897,-0.65961 -0.0321,-1.30204 0.15039,-1.93398 0,-14.2987 0,-28.5974 0,-42.896093 11.24422,-3.653616 22.48894,-7.305391 33.73242,-10.960938 5.10807,7.029948 10.21615,14.059896 15.32422,21.089844 z m 201.43555,65.451165 c 3.34905,4.58034 6.64889,9.20732 10.0286,13.7586 0.73542,0.34353 0.81002,1.33944 1.59835,1.57539 0.8742,0.30438 1.50372,1.02626 2.26087,1.48637 0.69079,0.0393 1.31632,0.28137 1.90515,0.63472 1.0579,-0.11681 2.10635,-0.061 3.14648,0.16407 0.59807,-0.29229 1.22791,-0.42809 1.88423,-0.45455 13.59868,-4.41756 27.19646,-8.83788 40.79546,-13.25444 6.94992,9.56507 13.90051,19.12965 20.84961,28.69531 -8.42456,11.59612 -16.84925,23.19214 -25.27539,34.78711 -0.11891,0.67103 -0.66209,1.11412 -0.96886,1.66712 -0.0945,1.02833 -0.3852,2.00374 -0.80068,2.94616 0.17533,0.70102 0.17367,1.40244 0,2.10352 0.43696,0.97018 0.71193,1.98371 0.81641,3.04297 0.45774,0.48108 0.78992,1.03154 1.01229,1.64898 9.88166,13.59758 19.76223,27.19596 29.64006,40.79633 0.59713,0.32549 0.8581,0.97277 1.28641,1.43788 0.95005,0.40426 1.78516,0.98463 2.55343,1.66954 0.72276,0.0493 1.3885,0.2719 2.0039,0.65235 1.05648,-0.11487 2.10422,-0.0644 3.14258,0.16406 0.59908,-0.29133 1.22916,-0.42836 1.88618,-0.45455 13.5995,-4.41703 27.19747,-8.83879 40.79742,-13.25444 6.94988,9.5651 13.89986,19.13012 20.84961,28.69532 -8.42645,11.59297 -16.84953,23.18839 -25.27344,34.7832 -0.1215,0.67174 -0.6657,1.11598 -0.9746,1.66909 -0.0933,1.02704 -0.37686,2.00267 -0.79689,2.94224 0.17202,0.70312 0.172,1.40625 0,2.10937 0.44074,0.96832 0.70883,1.98249 0.8125,3.04102 0.46067,0.48035 0.78992,1.03457 1.01767,1.65128 8.40464,11.56827 16.80802,23.13745 25.21476,34.70419 -6.95148,9.56393 -13.89985,19.13013 -20.84961,28.69531 -13.6317,-4.42582 -27.26124,-8.85824 -40.89258,-13.28516 -0.67468,0.0847 -1.26817,-0.28006 -1.88788,-0.40845 -1.00626,0.22478 -2.02221,0.25507 -3.04572,0.14869 -0.61566,0.38098 -1.28329,0.59971 -2.00585,0.65039 -0.78418,0.71942 -1.66631,1.28787 -2.64063,1.71484 -0.31242,0.5881 -0.73819,1.07042 -1.25595,1.4755 -8.40367,11.56898 -16.80949,23.13638 -25.21475,34.70419 -11.24475,-3.65178 -22.48832,-7.30717 -33.73242,-10.96094 0,-14.33203 0,-28.66406 0,-42.99609 -0.29549,-0.61343 -0.12205,-1.29134 -0.1957,-1.91923 -0.52662,-0.88802 -0.86766,-1.84703 -1.0836,-2.85421 -0.5559,-0.464 -0.96392,-1.03509 -1.23633,-1.70508 -0.92682,-0.52373 -1.74279,-1.1842 -2.44922,-1.98047 -0.65499,-0.11447 -1.2445,-0.37062 -1.78844,-0.73798 -14.87385,-4.83296 -29.74782,-9.66553 -44.62171,-14.49834 -8.52142,-11.73147 -17.04351,-23.46244 -25.56836,-35.19141 0,-15.67253 0,-31.34505 0,-47.01758 -0.29573,-0.61271 -0.11856,-1.29025 -0.19374,-1.91727 -0.52824,-0.8876 -0.87123,-1.84558 -1.08361,-2.85421 -0.55246,-0.46532 -0.96873,-1.03033 -1.23828,-1.70117 -0.92401,-0.52887 -1.7421,-1.18796 -2.44922,-1.98438 -0.65472,-0.11658 -1.24601,-0.37025 -1.79033,-0.73821 -13.59873,-4.42003 -27.19795,-8.83859 -40.79756,-13.25593 0,-11.82292 0,-23.64583 0,-35.46875 13.63075,-4.43002 27.26219,-8.85794 40.89258,-13.28906 0.4932,-0.4696 1.19099,-0.51454 1.76602,-0.77774 0.68054,-0.77537 1.48545,-1.3974 2.37851,-1.90976 0.27172,-0.67124 0.68313,-1.23996 1.23828,-1.70508 0.21174,-1.04438 0.59059,-2.02408 1.12891,-2.94336 -0.0893,-0.65854 -0.0355,-1.29933 0.14844,-1.93008 0,-14.2987 0,-28.59739 0,-42.896088 11.24475,-3.65375 22.48907,-7.30887 33.73437,-10.96094 5.10742,7.02995 10.21484,14.059898 15.32227,21.089838 z m -116.60938,98.05665 c 0.0681,0.65375 0.29979,1.283 0.15732,1.95612 0.2229,0.81818 0.84353,1.53474 0.94508,2.41898 0.004,0.85184 0.93384,1.13789 1.17299,1.88466 0.32679,0.89382 1.46901,1.01247 1.99597,1.76662 0.39627,0.48455 0.86056,0.85197 1.50285,0.91043 0.60258,0.25139 1.1316,0.67631 1.80363,0.78928 13.3248,4.3301 26.64976,8.65971 39.9749,12.98875 0,11.82357 0,23.64713 0,35.4707 -11.24442,3.65245 -22.48776,7.30698 -33.73243,10.95899 -8.42547,-11.5928 -16.84858,-23.18943 -25.27343,-34.78516 -0.59709,-0.32559 -0.85821,-0.97257 -1.28634,-1.43803 -0.94717,-0.40858 -1.78693,-0.98256 -2.55351,-1.66939 -0.72054,-0.0515 -1.38791,-0.26844 -2,-0.65234 -1.05778,0.11451 -2.10685,0.0648 -3.14648,-0.16407 -0.59908,0.29133 -1.22916,0.42836 -1.88618,0.45455 -13.60015,4.41888 -27.19652,8.83667 -40.79546,13.25444 -6.95066,-9.56087 -13.89978,-19.12869 -20.84766,-28.69727 6.9484,-9.5644 13.89854,-19.12753 20.84766,-28.69141 13.63073,4.42678 27.26027,8.85722 40.89062,13.28516 0.67529,-0.0849 1.26927,0.28118 1.88978,0.40816 1.00644,-0.22908 2.0237,-0.25228 3.04772,-0.14839 0.61197,-0.38427 1.27958,-0.60049 2,-0.65235 0.78759,-0.71534 1.66815,-1.28736 2.64258,-1.71484 0.3141,-0.58705 0.7412,-1.06915 1.25804,-1.47541 3.80014,-5.22703 7.59276,-10.45358 11.39235,-15.68279 0,6.4082 0,12.8164 0,19.22461 z m -340.65039,38.89062 c 5.59499,7.69945 11.19036,15.39861 16.7832,23.09961 0.59724,0.32705 0.86145,0.97338 1.29017,1.44013 0.94613,0.40852 1.78208,0.98571 2.54968,1.66925 0.72276,0.0493 1.3885,0.2719 2.0039,0.65234 1.05648,-0.11486 2.10422,-0.0644 3.14258,0.16406 0.59908,-0.29133 1.22916,-0.42836 1.88618,-0.45455 13.5995,-4.41703 27.19747,-8.83879 40.79742,-13.25443 6.95082,9.56375 13.89852,19.12978 20.84961,28.69336 -8.42691,11.59329 -16.84869,23.1903 -25.27344,34.78515 -0.1215,0.67174 -0.66571,1.11599 -0.9746,1.66909 -0.0929,1.0278 -0.37808,2.00351 -0.79689,2.94419 0.1744,0.70109 0.17464,1.40251 0,2.10352 0.43843,0.97049 0.7095,1.98489 0.8125,3.04492 0.46067,0.48036 0.78992,1.03457 1.01767,1.65128 9.19094,12.65107 18.38156,25.30236 27.57413,37.95224 0,14.5013 0,29.0026 0,43.5039 -9.2121,12.67689 -18.42249,25.35502 -27.63281,38.03321 -0.12723,0.66876 -0.66386,1.11738 -0.9746,1.66908 -0.0927,1.02844 -0.37974,2.00429 -0.79689,2.94615 0.17533,0.70101 0.17366,1.40243 0,2.10352 0.44018,0.96928 0.70944,1.98354 0.8125,3.04297 0.46,0.48106 0.79397,1.03246 1.01803,1.65102 8.40453,11.56834 16.80727,23.13799 25.2144,34.70444 -6.95103,9.56362 -13.89982,19.12885 -20.84961,28.69336 -13.6317,-4.42582 -27.26124,-8.85824 -40.89258,-13.28515 -0.67528,0.0849 -1.26927,-0.28118 -1.88978,-0.40816 -1.00517,0.22859 -2.02109,0.25258 -3.04382,0.14839 -0.61548,0.38022 -1.2814,0.60222 -2.0039,0.65234 -0.78867,0.71196 -1.66554,1.28702 -2.63867,1.71485 -0.3151,0.58667 -0.74356,1.0686 -1.25972,1.4756 -8.40306,11.56876 -16.80957,23.13502 -25.21489,34.70213 -11.244471,-3.652 -22.488311,-7.30592 -33.732421,-10.95898 0,-14.33203 -1e-5,-28.66406 0,-42.9961 -0.2961,-0.61461 -0.12159,-1.29406 -0.19585,-1.92305 -0.52771,-0.88551 -0.86686,-1.84329 -1.08345,-2.84843 -0.55243,-0.4669 -0.9664,-1.03355 -1.23633,-1.70508 -0.92401,-0.52887 -1.7421,-1.18796 -2.44922,-1.98437 -0.65499,-0.11448 -1.2445,-0.37063 -1.78845,-0.73799 C 47.199729,485.19258 33.599819,480.77416 20,476.35547 c 0,-11.82292 0,-23.64584 0,-35.46875 13.631869,-4.42994 27.263269,-8.86133 40.896479,-13.28711 0.48938,-0.47258 1.18669,-0.51678 1.76035,-0.77951 0.68244,-0.77462 1.49018,-1.39385 2.38028,-1.9119 0.26961,-0.67176 0.68398,-1.23811 1.23633,-1.70508 0.21696,-1.04051 0.59027,-2.02068 1.1289,-2.9375 -0.0897,-0.65961 -0.0321,-1.30204 0.1504,-1.93398 0,-16.80781 -1e-5,-33.61563 0,-50.42344 -0.2961,-0.61461 -0.12159,-1.29406 -0.19585,-1.92306 -0.52771,-0.88551 -0.86686,-1.84328 -1.08345,-2.84842 -0.55243,-0.46691 -0.9664,-1.03355 -1.23633,-1.70508 -0.9236,-0.52936 -1.74182,-1.18832 -2.45117,-1.98242 -0.65335,-0.11578 -1.24326,-0.37085 -1.78461,-0.73973 C 47.199919,354.29366 33.600139,349.87284 20,345.45312 c 0,-11.82291 0,-23.64583 0,-35.46875 13.631099,-4.4303 27.263309,-8.85717 40.894529,-13.28711 0.49277,-0.46927 1.18889,-0.51618 1.76407,-0.77774 0.68038,-0.77676 1.48815,-1.39592 2.37851,-1.91366 0.26961,-0.67177 0.68398,-1.23812 1.23633,-1.70508 0.21696,-1.04051 0.59027,-2.02068 1.1289,-2.9375 -0.0897,-0.65961 -0.0321,-1.30205 0.1504,-1.93399 0,-14.29869 -1e-5,-28.59739 0,-42.89609 11.24419,-3.65281 22.48792,-7.30708 33.732421,-10.95898 2.83007,3.89453 5.66015,7.78906 8.49023,11.68359 z m 161.97656,-8.7793 c 8.26356,2.68524 16.52698,5.37093 24.79102,8.05469 0,11.82292 0,23.64583 0,35.46875 -13.63028,4.43133 -27.26223,8.85762 -40.89258,13.28906 -0.49282,0.46907 -1.18955,0.51436 -1.76425,0.77756 -0.68244,0.77462 -1.49018,1.39385 -2.38028,1.9119 -0.27305,0.66922 -0.68196,1.23859 -1.23828,1.70117 -0.21279,1.04433 -0.58966,2.02607 -1.12891,2.94531 0.0893,0.65854 0.0355,1.29933 -0.14843,1.93008 0,14.2987 0,28.5974 0,42.89609 -11.24456,3.65374 -22.48963,7.30728 -33.73438,10.96094 -6.94987,-9.5651 -13.89974,-19.13021 -20.84961,-28.69531 8.42722,-11.59306 16.84906,-23.19003 25.27344,-34.78516 0.12723,-0.66876 0.66385,-1.11738 0.9746,-1.66908 0.0927,-1.02844 0.37974,-2.00429 0.79688,-2.94615 -0.17532,-0.70102 -0.17366,-1.40243 0,-2.10352 -0.44017,-0.96928 -0.70943,-1.98354 -0.8125,-3.04297 -0.45999,-0.48106 -0.79396,-1.03246 -1.01802,-1.65102 -3.79823,-5.22706 -7.59577,-10.4548 -11.39213,-15.68296 6.21147,2.0022 12.41102,4.06904 18.63107,6.0274 0.79512,-0.1519 1.44143,0.60382 2.21658,0.33393 0.88791,-0.26878 1.82355,-0.0519 2.70814,-0.12568 0.58019,-0.37571 1.22784,-0.54679 1.911,-0.60674 0.78759,-0.71535 1.66815,-1.28737 2.64258,-1.71485 0.3138,-0.58607 0.73979,-1.06806 1.25595,-1.47355 8.40461,-11.56828 16.80989,-23.13608 25.21475,-34.70418 2.98112,0.9681 5.96224,1.93619 8.94336,2.90429 z m 93.84766,18.1836 c 2.62176,3.61537 5.25489,7.23891 7.88477,10.85351 0,13.16211 0,26.32422 0,39.48633 -11.24415,3.65365 -22.48829,7.30729 -33.73243,10.96094 -7.73632,-10.64779 -15.47265,-21.29557 -23.20898,-31.94336 0,-13.16211 0,-26.32422 0,-39.48633 11.24443,-3.65241 22.48788,-7.30767 33.73242,-10.95898 5.10807,7.02929 10.21615,14.05859 15.32422,21.08789 z m 67.04687,11.38086 c 5.13476,7.07361 10.28074,14.14891 15.42188,21.22461 -8.42784,11.5942 -16.84949,23.19292 -25.27734,34.78711 -0.11887,0.67103 -0.66216,1.1141 -0.9688,1.66712 -0.0953,1.02718 -0.38013,2.00366 -0.79878,2.9442 0.17205,0.70176 0.17218,1.40372 0,2.10547 0.43578,0.97043 0.70899,1.98421 0.81445,3.04297 0.4575,0.48126 0.7904,1.0312 1.01194,1.64923 9.88064,13.60011 19.76443,27.19793 29.64236,40.79999 0.60074,0.32019 0.85838,0.97065 1.28446,1.43593 0.94846,0.40569 1.78757,0.97978 2.55148,1.66954 0.72269,0.0497 1.39073,0.26643 2.0039,0.65234 1.05931,-0.11549 2.10978,-0.0677 3.15039,0.16602 0.59486,-0.29472 1.22177,-0.43302 1.87634,-0.45479 13.60066,-4.41876 27.20102,-8.83846 40.8014,-13.2581 6.94925,9.56443 13.89741,19.12965 20.84765,28.69336 -6.94282,9.56285 -13.89984,19.13167 -20.84765,28.69726 -13.63,-4.43081 -27.26098,-8.85891 -40.89258,-13.28515 -0.67495,0.0887 -1.26538,-0.2836 -1.88387,-0.41177 -1.00677,0.23159 -2.02487,0.25722 -3.04973,0.152 -0.61473,0.38355 -1.28308,0.60003 -2.00585,0.65039 -0.78455,0.71882 -1.66528,1.2897 -2.64063,1.71484 -0.30994,0.58759 -0.73631,1.06956 -1.25365,1.47185 -9.87899,13.60129 -19.76182,27.19981 -29.64283,40.79964 -0.11891,0.67103 -0.66209,1.11412 -0.96886,1.66711 -0.0955,1.02711 -0.38298,2.00276 -0.79872,2.94422 0.17205,0.70175 0.17218,1.40371 0,2.10547 0.43578,0.97042 0.70899,1.98421 0.81445,3.04297 0.45774,0.48108 0.78992,1.03154 1.01229,1.64897 8.40669,11.5679 16.81086,23.13763 25.21623,34.70649 -6.949,9.56462 -13.89814,19.12913 -20.84766,28.69336 -11.24555,-3.65064 -22.48907,-7.30755 -33.73437,-10.95898 0,-14.33203 0,-28.66406 0,-42.9961 -0.29833,-0.61395 -0.11836,-1.29249 -0.19374,-1.92118 -0.52665,-0.88691 -0.86971,-1.84389 -1.08556,-2.8503 -0.55243,-0.4669 -0.9664,-1.03355 -1.23633,-1.70508 -0.92401,-0.52887 -1.7421,-1.18796 -2.44922,-1.98437 -0.65499,-0.11448 -1.2445,-0.37063 -1.78844,-0.73799 -15.98722,-5.19468 -31.9745,-10.38912 -47.96156,-15.58428 -0.67423,0.0921 -1.26418,-0.28362 -1.88393,-0.40626 -1.00716,0.22864 -2.02497,0.25264 -3.04966,0.14845 -0.61197,0.38426 -1.27957,0.60048 -2,0.65234 -0.78759,0.71535 -1.66815,1.28737 -2.64258,1.71485 -0.3138,0.58607 -0.73979,1.06806 -1.25595,1.47354 -8.40285,11.57022 -16.80915,23.13793 -25.21475,34.70614 -11.24345,-3.65565 -22.48831,-7.307 -33.73242,-10.96093 -10e-6,-11.82292 0,-23.64584 0,-35.46875 13.63057,-4.42991 27.26119,-8.85969 40.89257,-13.28711 0.49221,-0.47227 1.19001,-0.51753 1.76603,-0.7797 0.68023,-0.77634 1.48723,-1.39603 2.3785,-1.91171 0.27143,-0.67004 0.6821,-1.23858 1.23633,-1.70312 0.21615,-1.04138 0.5901,-2.02206 1.12891,-2.93946 -0.0897,-0.65961 -0.0321,-1.30204 0.15039,-1.93398 0,-16.80781 0,-33.61563 0,-50.42344 -0.29609,-0.61461 -0.12158,-1.29406 -0.19584,-1.92306 -0.52793,-0.88607 -0.8676,-1.8444 -1.08346,-2.85038 -0.55483,-0.46411 -0.96449,-1.03337 -1.23633,-1.70312 -0.9251,-0.52658 -1.7422,-1.18647 -2.44921,-1.98242 -0.6561,-0.1146 -1.2465,-0.3705 -1.7904,-0.73995 -13.59973,-4.41697 -27.1986,-8.83659 -40.79749,-13.25615 -10e-6,-11.82291 0,-23.64583 0,-35.46875 11.24391,-3.65466 22.48887,-7.30589 33.73242,-10.96093 8.42514,11.59521 16.85119,23.18978 25.27343,34.7871 0.59709,0.3256 0.85821,0.97258 1.28634,1.43804 0.94717,0.40858 1.78693,0.98256 2.55351,1.66939 0.72054,0.0515 1.38791,0.26844 2,0.65234 1.05845,-0.11487 2.10806,-0.0642 3.14844,0.16406 0.59808,-0.28819 1.22468,-0.43129 1.88024,-0.45283 15.98708,-5.19507 31.97437,-10.3895 47.96155,-15.58428 0.49277,-0.46927 1.18889,-0.51618 1.76407,-0.77774 0.68038,-0.77676 1.48815,-1.39592 2.37851,-1.91366 0.26961,-0.67177 0.68398,-1.23812 1.23633,-1.70508 0.21594,-1.0419 0.594,-2.02091 1.13086,-2.93945 -0.0891,-0.65917 -0.0357,-1.30067 0.14844,-1.93204 0,-14.29869 0,-28.59739 0,-42.89609 11.24524,-3.6516 22.48885,-7.30822 33.73437,-10.95898 1.80925,2.48958 3.61849,4.97916 5.42773,7.46875 z m 85.07032,36.18945 c 2.43082,3.34517 4.86197,6.69011 7.29297,10.03516 -7.73879,10.64665 -15.47171,21.29756 -23.20899,31.94531 -12.5188,4.06532 -25.03573,8.13626 -37.55469,12.20117 -6.9499,-9.56508 -13.89885,-19.13085 -20.84961,-28.69531 7.73655,-10.64763 15.47263,-21.2956 23.20899,-31.94336 12.51821,-4.06711 25.03607,-8.1353 37.55469,-12.20117 4.51888,6.2194 9.03776,12.4388 13.55664,18.6582 z m 32.41211,24.69727 c 8.26382,2.68646 16.5285,5.36995 24.79297,8.05468 0,14.33203 0,28.66407 0,42.9961 0.29832,0.61395 0.11835,1.29249 0.19373,1.92118 0.52665,0.88691 0.86971,1.84389 1.08556,2.8503 0.55243,0.46691 0.9664,1.03355 1.23633,1.70508 0.92268,0.52966 1.74225,1.18658 2.44922,1.98242 0.65391,0.11777 1.24407,0.37363 1.78845,0.73994 6.14599,1.99697 12.29188,3.99427 18.43811,5.99053 -6.20196,2.03319 -12.43385,4.00332 -18.6172,6.07575 -0.55267,0.5894 -1.51828,0.35987 -1.98631,1.03167 -0.56355,0.73603 -1.44458,1.11542 -2.11757,1.69462 -0.24866,0.64629 -0.67373,1.16422 -1.19103,1.61593 -0.21594,1.04189 -0.594,2.02091 -1.13086,2.93945 0.0891,0.65917 0.0357,1.30067 -0.14843,1.93203 0,14.2987 0,28.5974 0,42.8961 -11.2448,3.65364 -22.48959,7.30729 -33.73438,10.96093 -6.94903,-9.56571 -13.89946,-19.13041 -20.84961,-28.69531 8.42684,-11.59493 16.85067,-23.19205 25.27735,-34.78711 0.11894,-0.67144 0.66237,-1.11502 0.97069,-1.66713 0.0935,-1.02692 0.3773,-2.00259 0.79688,-2.94224 -0.17201,-0.70313 -0.17199,-1.40625 0,-2.10938 -0.44073,-0.96831 -0.70882,-1.98248 -0.8125,-3.04101 -0.45971,-0.47999 -0.79202,-1.03098 -1.01389,-1.64924 -8.40565,-11.56865 -16.81103,-23.1375 -25.21658,-34.70623 6.94974,-9.56089 13.89629,-19.12954 20.84766,-28.69531 2.98047,0.96875 5.96094,1.9375 8.94141,2.90625 z m -278.37696,40.45117 c 8.26356,2.68524 16.52698,5.37093 24.79102,8.05468 0,11.82292 0,23.64584 0,35.46876 -12.51758,4.06705 -25.03516,8.13411 -37.55273,12.20117 -12.51757,-4.06709 -25.03505,-8.13446 -37.55274,-12.20117 0,-11.82292 0,-23.64584 0,-35.46876 12.51769,-4.06671 25.03517,-8.13408 37.55274,-12.20117 4.2539,1.38216 8.50781,2.76433 12.76171,4.14649 z m 372.22657,58.63476 c 3.34841,4.58033 6.64753,9.20736 10.02664,13.7586 0.73543,0.34353 0.81002,1.33943 1.59836,1.57539 0.87419,0.30438 1.50371,1.02626 2.26087,1.48637 0.69209,0.0378 1.31694,0.28187 1.90709,0.63472 1.05727,-0.11695 2.10504,-0.0609 3.14454,0.16406 0.59806,-0.29228 1.2279,-0.42808 1.88422,-0.45455 13.59892,-4.41896 27.19885,-8.83477 40.79742,-13.25443 6.94976,9.56518 13.89813,19.13138 20.84961,28.69531 -8.42713,11.59473 -16.85136,23.19156 -25.27735,34.78711 -0.11895,0.67144 -0.66238,1.11503 -0.97069,1.66713 -0.0934,1.02692 -0.3773,2.00259 -0.79689,2.94225 0.17202,0.70312 0.172,1.40625 0,2.10937 0.44134,0.96819 0.7091,1.98235 0.8125,3.04102 0.45996,0.47981 0.79155,1.03133 1.01425,1.64897 8.4065,11.56851 16.81208,23.13769 25.21818,34.7065 -6.95102,9.56361 -13.89982,19.12885 -20.84961,28.69336 -13.6317,-4.42583 -27.26124,-8.85825 -40.89258,-13.28516 -0.67528,0.0849 -1.26926,-0.28118 -1.88978,-0.40816 -1.00517,0.2286 -2.02109,0.25259 -3.04382,0.14839 -0.61548,0.38022 -1.2814,0.60222 -2.0039,0.65235 -0.78759,0.71534 -1.66815,1.28736 -2.64258,1.71484 -0.3138,0.58607 -0.73979,1.06806 -1.25595,1.47355 -9.87829,13.60003 -19.75792,27.1991 -29.64053,40.79598 -0.11887,0.67103 -0.66216,1.11411 -0.9688,1.66713 -0.0943,1.02767 -0.38432,2.00283 -0.80074,2.9442 0.17558,0.70275 0.17599,1.40474 0,2.10742 0.43729,0.96949 0.71179,1.98232 0.81641,3.04102 0.4575,0.48126 0.7904,1.03119 1.01194,1.64923 8.40481,11.56926 16.81175,23.13699 25.21658,34.70624 -6.9491,9.56567 -13.89969,19.13024 -20.84961,28.69531 -13.63075,-4.42674 -27.26011,-8.85773 -40.89063,-13.28516 -0.67468,0.0847 -1.26817,-0.28006 -1.88787,-0.40845 -1.0069,0.22495 -2.02352,0.25505 -3.04767,0.14869 -0.61417,0.38196 -1.28254,0.59877 -2.00391,0.65039 -0.78745,0.71585 -1.66635,1.29012 -2.64258,1.71484 -0.30986,0.58933 -0.7369,1.07037 -1.254,1.4755 -8.40552,11.56762 -16.81027,23.13581 -25.21475,34.70419 -11.2453,-3.65207 -22.48962,-7.30719 -33.73437,-10.96094 0,-14.33203 0,-28.66406 0,-42.99609 -0.29807,-0.61335 -0.11846,-1.29117 -0.19374,-1.91923 -0.52824,-0.8876 -0.87123,-1.84558 -1.08361,-2.85421 -0.55624,-0.46433 -0.96645,-1.03392 -1.23828,-1.70508 -0.92699,-0.52312 -1.74201,-1.18537 -2.44922,-1.98047 -0.65472,-0.11658 -1.24601,-0.37025 -1.79033,-0.73821 -13.59872,-4.42071 -27.19883,-8.83717 -40.79756,-13.25788 0,-11.82292 0,-23.64583 0,-35.46875 13.63126,-4.42782 27.26235,-8.85614 40.89258,-13.28711 0.4932,-0.4696 1.19099,-0.51454 1.76602,-0.77774 0.68038,-0.77676 1.48815,-1.39592 2.37851,-1.91367 0.26893,-0.6713 0.68622,-1.23555 1.23828,-1.70117 0.21174,-1.04438 0.59059,-2.02407 1.12891,-2.94336 -0.0887,-0.65746 -0.0335,-1.29813 0.14844,-1.92812 0,-15.63854 0,-31.27709 0,-46.91563 8.52354,-11.73057 17.04748,-23.46085 25.56836,-35.19336 14.90558,-4.84315 29.81129,-9.6859 44.71679,-14.52929 0.49277,-0.46928 1.18889,-0.51619 1.76407,-0.77775 0.6792,-0.77717 1.4858,-1.39657 2.37851,-1.90975 0.27235,-0.67003 0.68128,-1.24046 1.23633,-1.70508 0.21623,-1.04258 0.5915,-2.02397 1.1289,-2.94336 -0.0901,-0.65834 -0.0316,-1.29937 0.1504,-1.93008 0,-14.2987 0,-28.5974 0,-42.89609 11.2441,-3.65378 22.48767,-7.30916 33.73242,-10.96094 5.10807,7.02995 10.21614,14.0599 15.32422,21.08984 z m -419.7793,6.81446 c 8.26373,2.68535 16.52755,5.37045 24.79102,8.05664 0,14.33203 0,28.66406 0,42.99609 0.29806,0.61335 0.11845,1.29116 0.19373,1.91923 0.52824,0.8876 0.87123,1.84558 1.08361,2.85421 0.55624,0.46433 0.96646,1.03392 1.23828,1.70508 0.92699,0.52312 1.74201,1.18536 2.44922,1.98047 0.65716,0.11275 1.24393,0.37946 1.79243,0.7397 13.59884,4.41772 27.19733,8.8365 40.79546,13.25639 0,11.82292 0,23.64583 0,35.46875 -11.24479,3.65299 -22.48958,7.30599 -33.73438,10.95898 -8.42439,-11.59511 -16.84946,-23.18974 -25.27343,-34.78515 -0.59709,-0.32559 -0.85821,-0.97257 -1.28634,-1.43803 -0.94717,-0.40858 -1.78693,-0.98257 -2.55351,-1.6694 -0.72054,-0.0515 -1.38791,-0.26844 -2,-0.65234 -1.05867,0.11599 -2.10804,0.0664 -3.14843,-0.16406 -0.59826,0.291 -1.22589,0.43006 -1.88228,0.45455 -6.14554,1.99571 -12.29069,3.99263 -18.43608,5.98881 3.8227,-5.2882 7.70237,-10.54625 11.48702,-15.85507 0.1221,-0.83205 1.07656,-1.23211 1.02253,-2.10702 0.0147,-0.89248 0.51328,-1.6783 0.69749,-2.51169 -0.17644,-0.66817 -0.13973,-1.33665 0.0156,-2.00474 -0.43842,-0.97049 -0.70949,-1.98489 -0.8125,-3.04492 -0.46066,-0.48035 -0.78991,-1.03457 -1.01767,-1.65128 -8.4046,-11.56829 -16.80988,-23.13609 -25.21475,-34.70419 6.95001,-9.565 13.89972,-19.13022 20.84961,-28.69531 2.98112,0.9681 5.96224,1.9362 8.94336,2.9043 z m 248.98828,0 c 9.53776,3.09894 19.07553,6.1979 28.61328,9.29687 7.73667,10.64772 15.47078,21.2973 23.20703,31.94531 -6.949,9.56462 -13.89813,19.12913 -20.84765,28.69336 -12.51862,-4.06586 -25.03648,-8.13406 -37.55469,-12.20117 -7.73633,-10.64779 -15.47266,-21.29557 -23.20899,-31.94336 6.95002,-9.565 13.89973,-19.13022 20.84961,-28.69531 2.98047,0.9681 5.96094,1.9362 8.94141,2.9043 z m -124.49414,40.45117 c 8.26369,2.6858 16.52778,5.36965 24.79102,8.05664 0,13.16211 0,26.32422 0,39.48633 -7.73469,10.64832 -15.47227,21.29455 -23.20899,31.9414 -11.24448,-3.65193 -22.48821,-7.30619 -33.73242,-10.95898 0,-13.16211 0,-26.32422 0,-39.48633 7.73663,-10.64757 15.47261,-21.29561 23.20898,-31.94336 2.98047,0.9681 5.96094,1.9362 8.94141,2.9043 z m 127.66211,41.48047 c 7.20765,2.34189 14.4153,4.68379 21.62305,7.02539 0,11.82357 0,23.64713 0,35.4707 -13.63013,4.42928 -27.26089,8.85663 -40.89063,13.28711 -0.49371,0.47 -1.19217,0.51497 -1.76798,0.77774 -0.67947,0.77705 -1.48619,1.39654 -2.37655,1.91367 -0.26915,0.6705 -0.68472,1.23573 -1.23828,1.69921 -0.21441,1.04373 -0.59181,2.02522 -1.12891,2.94532 0.0906,0.6573 0.0308,1.29651 -0.15039,1.92617 0,6.46341 0,12.92682 0,19.39023 -3.84973,-5.27041 -7.6501,-10.5876 -11.53055,-15.8289 -0.73059,-0.34471 -0.81165,-1.33257 -1.59445,-1.57149 -0.87391,-0.30849 -1.50906,-1.02559 -2.26672,-1.48838 -0.68985,-0.0395 -1.3145,-0.28123 -1.90125,-0.63662 -1.05778,0.11452 -2.10685,0.0648 -3.14648,-0.16406 -0.59908,0.29133 -1.22916,0.42836 -1.88618,0.45455 -13.59851,4.41806 -27.19647,8.83784 -40.79546,13.25444 -6.95397,-9.56651 -13.89964,-19.12834 -20.84766,-28.69727 6.94937,-9.56385 13.89683,-19.12704 20.84766,-28.69141 13.63038,4.42786 27.26043,8.85671 40.89062,13.28516 0.67529,-0.0849 1.26927,0.28118 1.88978,0.40816 1.00644,-0.22908 2.0237,-0.25228 3.04772,-0.1484 0.61148,-0.38316 1.27785,-0.60167 1.99805,-0.65039 0.79222,-0.71014 1.6659,-1.2939 2.64453,-1.71679 0.3138,-0.58607 0.73979,-1.06807 1.25595,-1.47355 8.40445,-11.56849 16.80913,-23.13677 25.21475,-34.70419 4.03646,1.3112 8.07292,2.6224 12.10938,3.9336 z m -245.04883,28.67187 c 6.5821,9.06032 13.16541,18.11976 19.74805,27.17969 0.59708,0.32559 0.8582,0.97257 1.28634,1.43803 0.94717,0.40858 1.78693,0.98256 2.5535,1.66939 0.72054,0.0515 1.38792,0.26844 2,0.65234 1.05778,-0.11451 2.10685,-0.0648 3.14649,0.16407 0.59851,-0.29084 1.22786,-0.42834 1.88422,-0.45455 14.87268,-4.83123 29.74439,-9.66546 44.61773,-14.49467 13.79171,4.47893 27.58122,8.96221 41.37305,13.44141 9.21043,12.67875 18.42447,25.35488 27.63281,38.03515 0.59708,0.32559 0.8582,0.97257 1.28634,1.43803 0.94717,0.40858 1.78693,0.98256 2.5535,1.66939 0.72054,0.0515 1.38792,0.26844 2,0.65235 1.05778,-0.11452 2.10685,-0.0648 3.14649,0.16406 0.59907,-0.29133 1.22916,-0.42836 1.88618,-0.45455 13.59955,-4.41688 27.19739,-8.83902 40.79741,-13.25443 6.94887,9.56517 13.89887,19.12953 20.84961,28.69335 -8.42784,11.59421 -16.84949,23.19293 -25.27734,34.78711 -0.11887,0.67104 -0.66216,1.11411 -0.9688,1.66713 -0.0953,1.02717 -0.38013,2.00366 -0.79878,2.9442 0.17205,0.70176 0.17218,1.40371 0,2.10547 0.43578,0.97042 0.70899,1.98421 0.81445,3.04297 0.4575,0.48126 0.7904,1.0312 1.01194,1.64923 8.40714,11.56805 16.81097,23.1385 25.21853,34.70624 -6.95214,9.56082 -13.89726,19.12906 -20.84961,28.69531 -13.63021,-4.43038 -27.26092,-8.85922 -40.89258,-13.28516 -0.67597,0.0889 -1.26647,-0.28614 -1.88783,-0.41016 -1.00653,0.22842 -2.02346,0.25638 -3.04771,0.1504 -0.61417,0.38196 -1.28254,0.59878 -2.00391,0.65039 -0.78745,0.71585 -1.66635,1.29012 -2.64258,1.71484 -0.30994,0.58759 -0.73631,1.06956 -1.25364,1.47185 -8.40181,11.57162 -16.80958,23.13892 -25.21511,34.70784 -11.24347,-3.65558 -22.48821,-7.30728 -33.73242,-10.96094 0,-14.33203 0,-28.66406 0,-42.99609 -0.29609,-0.61461 -0.12158,-1.29407 -0.19584,-1.92306 -0.52815,-0.88663 -0.86833,-1.84552 -1.08346,-2.85233 -0.55648,-0.46142 -0.9636,-1.03202 -1.23437,-1.70117 -0.92674,-0.52506 -1.74357,-1.18642 -2.45117,-1.98242 -0.65553,-0.11599 -1.24748,-0.36987 -1.79229,-0.73821 -15.9848,-5.19541 -31.97021,-10.389 -47.95576,-15.58211 -0.67407,0.0848 -1.26676,-0.28063 -1.88592,-0.40845 -1.00693,0.22461 -2.02354,0.25511 -3.04768,0.14869 -0.61416,0.38196 -1.28253,0.59877 -2.0039,0.65039 -0.78745,0.71585 -1.66635,1.29012 -2.64258,1.71484 -0.30986,0.58933 -0.7369,1.07037 -1.254,1.4755 -8.40542,11.56769 -16.81048,23.13566 -25.21475,34.70419 -11.24565,-3.65099 -22.48964,-7.30712 -33.73437,-10.96094 0,-14.33203 0,-28.66406 0,-42.99609 -0.29807,-0.61335 -0.11846,-1.29117 -0.19374,-1.91923 -0.52824,-0.8876 -0.87123,-1.84558 -1.08361,-2.85421 -0.55624,-0.46433 -0.96646,-1.03392 -1.23828,-1.70508 -0.92699,-0.52312 -1.74201,-1.18537 -2.44922,-1.98047 -0.65472,-0.11658 -1.24601,-0.37025 -1.79033,-0.73821 -13.59906,-4.41968 -27.19881,-8.83724 -40.79756,-13.25788 0,-11.82292 0,-23.64583 0,-35.46875 13.63128,-4.42775 27.26202,-8.85716 40.89258,-13.28711 0.4932,-0.4696 1.19098,-0.51454 1.76602,-0.77774 0.68038,-0.77676 1.48815,-1.39592 2.37851,-1.91367 0.26893,-0.6713 0.68622,-1.23555 1.23828,-1.70117 0.21174,-1.04438 0.59059,-2.02407 1.12891,-2.94336 -0.0887,-0.65746 -0.0335,-1.29813 0.14844,-1.92812 0,-14.3 0,-28.6 0,-42.9 11.24524,-3.65161 22.48885,-7.30822 33.73437,-10.95899 1.8418,2.53516 3.68359,5.07032 5.52539,7.60547 z"
     inkscape:export-filename="../../../../Downloads/path1.svg"
     inkscape:export-xdpi="96"
     inkscape:export-ydpi="96" />
  <path
     fill="none"
     stroke="#cccccc"
     paint-order="fill stroke markers"
     d="m 57.552639,368.16992 v 0"
     stroke-miterlimit="10"
     id="path7" />
  <path
     fill="none"
     stroke="#cccccc"
     paint-order="fill stroke markers"
     d="m 9.9998134,352.71907 v 0"
     stroke-miterlimit="10"
     id="path8" />
  <path
     fill="none"
     stroke="#cccccc"
     paint-order="fill stroke markers"
     d="m 9.9998134,302.71907 v 0"
     stroke-miterlimit="10"
     id="path9" />
  <path
     fill="none"
     stroke="#cccccc"
     paint-order="fill stroke markers"
     d="m 57.552639,287.26822 v 0"
     stroke-miterlimit="10"
     id="path10" />
  <path
     fill="none"
     stroke="#cccccc"
     paint-order="fill stroke markers"
     d="m 57.552639,237.26822 v 0"
     stroke-miterlimit="10"
     id="path11" />
  <path
     fill="none"
     stroke="#cccccc"
     paint-order="fill stroke markers"
     d="m 105.10547,221.81737 v 0"
     stroke-miterlimit="10"
     id="path12" />
</svg>
