  0
SECTION
  2
HEADER
  9
$ACADVER
  1
AC1014
  9
$HANDSEED
  5
FFFF
  9
$INSUNITS
 70
     4
  9
$MEASUREMENT
 70
     1
  0
ENDSEC
  0
SECTION
  2
TABLES
  0
TABLE
  2
VPORT
  5
8
330
0
100
AcDbSymbolTable
 70
     4
  0
VPORT
  5
2E
330
8
100
AcDbSymbolTableRecord
100
AcDbViewportTableRecord
  2
*ACTIVE
 70
     0
 10
0.0
 20
0.0
 11
1.0
 21
1.0
 12
210.0
 22
148.5
 13
0.0
 23
0.0
 14
10.0
 24
10.0
 15
10.0
 25
10.0
 16
0.0
 26
0.0
 36
1.0
 17
0.0
 27
0.0
 37
0.0
 40
341.0
 41
1.24
 42
50.0
 43
0.0
 44
0.0
 50
0.0
 51
0.0
 71
     0
 72
   100
 73
     1
 74
     3
 75
     0
 76
     0
 77
     0
 78
     0
  0
ENDTAB
  0
TABLE
  2
LTYPE
  5
5
330
0
100
AcDbSymbolTable
 70
     1
  0
LTYPE
  5
14
330
5
100
AcDbSymbolTableRecord
100
AcDbLinetypeTableRecord
  2
BYBLOCK
 70
     0
  3

 72
    65
 73
     0
 40
0.0
  0
LTYPE
  5
15
330
5
100
AcDbSymbolTableRecord
100
AcDbLinetypeTableRecord
  2
BYLAYER
 70
     0
  3

 72
    65
 73
     0
 40
0.0
  0
LTYPE
  5
16
330
5
100
AcDbSymbolTableRecord
100
AcDbLinetypeTableRecord
  2
CONTINUOUS
 70
     0
  3
Solid line
 72
    65
 73
     0
 40
0.0
  0
ENDTAB
  0
TABLE
  2
LAYER
  5
2
100
AcDbSymbolTable
 70
5
  0
LAYER
  5
50
100
AcDbSymbolTableRecord
100
AcDbLayerTableRecord
  2
0
 70
0
  6
CONTINUOUS
  0
LAYER
  5
51
100
AcDbSymbolTableRecord
100
AcDbLayerTableRecord
  2
Layer_1
 70
0
  6
CONTINUOUS
  0
LAYER
  5
52
100
AcDbSymbolTableRecord
100
AcDbLayerTableRecord
  2
Layer_2
 70
0
  6
CONTINUOUS
  0
LAYER
  5
53
100
AcDbSymbolTableRecord
100
AcDbLayerTableRecord
  2
Layer_3
 70
0
  6
CONTINUOUS
  0
LAYER
  5
54
100
AcDbSymbolTableRecord
100
AcDbLayerTableRecord
  2
Layer_4
 70
0
  6
CONTINUOUS
  0
ENDTAB
  0
TABLE
  2
STYLE
  5
3
330
0
100
AcDbSymbolTable
 70
     1
  0
STYLE
  5
11
330
3
100
AcDbSymbolTableRecord
100
AcDbTextStyleTableRecord
  2
STANDARD
 70
     0
 40
0.0
 41
1.0
 50
0.0
 71
     0
 42
2.5
  3
txt
  4

  0
ENDTAB
  0
TABLE
  2
VIEW
  5
6
330
0
100
AcDbSymbolTable
 70
     0
  0
ENDTAB
  0
TABLE
  2
UCS
  5
7
330
0
100
AcDbSymbolTable
 70
     0
  0
ENDTAB
  0
TABLE
  2
APPID
  5
9
330
0
100
AcDbSymbolTable
 70
     2
  0
APPID
  5
12
330
9
100
AcDbSymbolTableRecord
100
AcDbRegAppTableRecord
  2
ACAD
 70
     0
  0
ENDTAB
  0
TABLE
  2
DIMSTYLE
  5
A
330
0
100
AcDbSymbolTable
 70
     1
  0
DIMSTYLE
105
27
330
A
100
AcDbSymbolTableRecord
100
AcDbDimStyleTableRecord
  2
ISO-25
 70
     0
  3

  4

  5

  6

  7

 40
1.0
 41
2.5
 42
0.625
 43
3.75
 44
1.25
 45
0.0
 46
0.0
 47
0.0
 48
0.0
140
2.5
141
2.5
142
0.0
143
0.03937007874016
144
1.0
145
0.0
146
1.0
147
0.625
 71
     0
 72
     0
 73
     0
 74
     0
 75
     0
 76
     0
 77
     1
 78
     8
170
     0
171
     3
172
     1
173
     0
174
     0
175
     0
176
     0
177
     0
178
     0
270
     2
271
     2
272
     2
273
     2
274
     3
340
11
275
     0
280
     0
281
     0
282
     0
283
     0
284
     8
285
     0
286
     0
287
     3
288
     0
  0
ENDTAB
  0
TABLE
  2
BLOCK_RECORD
  5
1
330
0
100
AcDbSymbolTable
 70
     1
  0
BLOCK_RECORD
  5
1F
330
1
100
AcDbSymbolTableRecord
100
AcDbBlockTableRecord
  2
*MODEL_SPACE
  0
BLOCK_RECORD
  5
1B
330
1
100
AcDbSymbolTableRecord
100
AcDbBlockTableRecord
  2
*PAPER_SPACE
  0
ENDTAB
  0
ENDSEC
  0
SECTION
  2
BLOCKS
  0
BLOCK
  5
20
330
1F
100
AcDbEntity
  8
0
100
AcDbBlockBegin
  2
*MODEL_SPACE
 70
     0
 10
0.0
 20
0.0
 30
0.0
  3
*MODEL_SPACE
  1

  0
ENDBLK
  5
21
330
1F
100
AcDbEntity
  8
0
100
AcDbBlockEnd
  0
BLOCK
  5
1C
330
1B
100
AcDbEntity
 67
     1
  8
0
100
AcDbBlockBegin
  2
*PAPER_SPACE
  1

  0
ENDBLK
  5
1D
330
1B
100
AcDbEntity
 67
     1
  8
0
100
AcDbBlockEnd
  0
ENDSEC
  0
SECTION
  2
ENTITIES
  0
LWPOLYLINE
  5
100
100
AcDbEntity
  8
Layer_4
 62
7
100
AcDbPolyline
 90
704
 70
1
 10
122.133849
 20
173.360435
 30
0.0
 10
122.521670
 20
173.339109
 30
0.0
 10
122.627231
 20
173.301313
 30
0.0
 10
122.697846
 20
173.292847
 30
0.0
 10
128.987285
 20
171.249284
 30
0.0
 10
129.111272
 20
171.188068
 30
0.0
 10
129.241436
 20
171.141464
 30
0.0
 10
129.315149
 20
171.087407
 30
0.0
 10
129.397130
 20
171.046931
 30
0.0
 10
129.498537
 20
170.952922
 30
0.0
 10
129.610025
 20
170.871166
 30
0.0
 10
129.665286
 20
170.798342
 30
0.0
 10
129.732331
 20
170.736189
 30
0.0
 10
129.802744
 20
170.617195
 30
0.0
 10
129.886324
 20
170.507051
 30
0.0
 10
129.900532
 20
170.451936
 30
0.0
 10
129.965098
 20
170.342822
 30
0.0
 10
130.084219
 20
169.739482
 30
0.0
 10
130.084219
 20
164.279763
 30
0.0
 10
134.179789
 20
162.949030
 30
0.0
 10
137.388931
 20
167.366037
 30
0.0
 10
137.540905
 20
167.521895
 30
0.0
 10
137.690643
 20
167.679783
 30
0.0
 10
137.700274
 20
167.685339
 30
0.0
 10
137.708053
 20
167.693303
 30
0.0
 10
137.898177
 20
167.799422
 30
0.0
 10
138.086653
 20
167.908078
 30
0.0
 10
138.097474
 20
167.910724
 30
0.0
 10
138.107185
 20
167.916148
 30
0.0
 10
138.319576
 20
167.963681
 30
0.0
 10
138.531288
 20
168.014153
 30
0.0
 10
138.542374
 20
168.013623
 30
0.0
 10
138.553222
 20
168.016005
 30
0.0
 10
138.599847
 20
168.010422
 30
0.0
 10
138.987668
 20
167.989097
 30
0.0
 10
139.093228
 20
167.951301
 30
0.0
 10
139.163843
 20
167.942834
 30
0.0
 10
145.453283
 20
165.899272
 30
0.0
 10
145.577269
 20
165.838055
 30
0.0
 10
145.707433
 20
165.791451
 30
0.0
 10
145.781146
 20
165.737394
 30
0.0
 10
145.863127
 20
165.696919
 30
0.0
 10
145.964534
 20
165.602909
 30
0.0
 10
146.076022
 20
165.521153
 30
0.0
 10
146.131283
 20
165.448329
 30
0.0
 10
146.198328
 20
165.386176
 30
0.0
 10
146.268742
 20
165.267182
 30
0.0
 10
146.352321
 20
165.157039
 30
0.0
 10
146.366529
 20
165.101924
 30
0.0
 10
146.431095
 20
164.992809
 30
0.0
 10
146.550216
 20
164.389469
 30
0.0
 10
146.550216
 20
157.776360
 30
0.0
 10
146.484414
 20
157.324044
 30
0.0
 10
146.292467
 20
156.909225
 30
0.0
 10
145.990281
 20
156.566291
 30
0.0
 10
145.602912
 20
156.323670
 30
0.0
 10
145.508850
 20
156.297582
 30
0.0
 10
145.453280
 20
156.266565
 30
0.0
 10
140.260776
 20
154.579418
 30
0.0
 10
140.260776
 20
149.119698
 30
0.0
 10
140.194975
 20
148.667383
 30
0.0
 10
140.003027
 20
148.252564
 30
0.0
 10
139.700841
 20
147.909629
 30
0.0
 10
139.313473
 20
147.667009
 30
0.0
 10
139.219411
 20
147.640921
 30
0.0
 10
139.163840
 20
147.609904
 30
0.0
 10
133.971337
 20
145.922757
 30
0.0
 10
133.971337
 20
141.616422
 30
0.0
 10
138.066907
 20
140.285690
 30
0.0
 10
141.276051
 20
144.702697
 30
0.0
 10
141.428025
 20
144.858555
 30
0.0
 10
141.577764
 20
145.016442
 30
0.0
 10
141.587395
 20
145.021998
 30
0.0
 10
141.595173
 20
145.029962
 30
0.0
 10
141.785329
 20
145.136100
 30
0.0
 10
141.973774
 20
145.244738
 30
0.0
 10
141.984569
 20
145.247384
 30
0.0
 10
141.994279
 20
145.252808
 30
0.0
 10
142.206742
 20
145.300353
 30
0.0
 10
142.418379
 20
145.350809
 30
0.0
 10
142.429465
 20
145.350280
 30
0.0
 10
142.440313
 20
145.352662
 30
0.0
 10
142.486938
 20
145.347079
 30
0.0
 10
142.874759
 20
145.325753
 30
0.0
 10
142.980320
 20
145.287958
 30
0.0
 10
143.050935
 20
145.279491
 30
0.0
 10
149.340374
 20
143.235929
 30
0.0
 10
149.464361
 20
143.174712
 30
0.0
 10
149.594525
 20
143.128108
 30
0.0
 10
149.668238
 20
143.074051
 30
0.0
 10
149.750219
 20
143.033575
 30
0.0
 10
149.851626
 20
142.939566
 30
0.0
 10
149.963113
 20
142.857810
 30
0.0
 10
150.018374
 20
142.784986
 30
0.0
 10
150.085420
 20
142.722833
 30
0.0
 10
150.155833
 20
142.603839
 30
0.0
 10
150.239412
 20
142.493696
 30
0.0
 10
150.253621
 20
142.438580
 30
0.0
 10
150.318187
 20
142.329466
 30
0.0
 10
150.437308
 20
141.726126
 30
0.0
 10
150.437308
 20
135.113019
 30
0.0
 10
150.371506
 20
134.660703
 30
0.0
 10
150.179558
 20
134.245884
 30
0.0
 10
149.877373
 20
133.902950
 30
0.0
 10
149.490004
 20
133.660330
 30
0.0
 10
149.395942
 20
133.634242
 30
0.0
 10
149.340372
 20
133.603225
 30
0.0
 10
144.147868
 20
131.916077
 30
0.0
 10
144.147868
 20
127.609743
 30
0.0
 10
148.243438
 20
126.279010
 30
0.0
 10
151.452580
 20
130.696017
 30
0.0
 10
151.604554
 20
130.851876
 30
0.0
 10
151.754292
 20
131.009763
 30
0.0
 10
151.763923
 20
131.015319
 30
0.0
 10
151.771702
 20
131.023283
 30
0.0
 10
151.961826
 20
131.129402
 30
0.0
 10
152.150302
 20
131.238059
 30
0.0
 10
152.161124
 20
131.240705
 30
0.0
 10
152.170834
 20
131.246129
 30
0.0
 10
152.383225
 20
131.293661
 30
0.0
 10
152.594937
 20
131.344133
 30
0.0
 10
152.606023
 20
131.343604
 30
0.0
 10
152.616871
 20
131.345985
 30
0.0
 10
152.663496
 20
131.340402
 30
0.0
 10
153.051317
 20
131.319103
 30
0.0
 10
153.156878
 20
131.281308
 30
0.0
 10
153.227492
 20
131.272841
 30
0.0
 10
158.419998
 20
129.585694
 30
0.0
 10
161.629140
 20
134.002703
 30
0.0
 10
161.781114
 20
134.158561
 30
0.0
 10
161.930853
 20
134.316449
 30
0.0
 10
161.940483
 20
134.322005
 30
0.0
 10
161.948236
 20
134.329969
 30
0.0
 10
162.138360
 20
134.436088
 30
0.0
 10
162.326836
 20
134.544745
 30
0.0
 10
162.337657
 20
134.547390
 30
0.0
 10
162.347368
 20
134.552814
 30
0.0
 10
162.559759
 20
134.600347
 30
0.0
 10
162.771471
 20
134.650819
 30
0.0
 10
162.782557
 20
134.650289
 30
0.0
 10
162.793405
 20
134.652671
 30
0.0
 10
162.840030
 20
134.647088
 30
0.0
 10
163.227851
 20
134.625763
 30
0.0
 10
163.333411
 20
134.587967
 30
0.0
 10
163.404026
 20
134.579500
 30
0.0
 10
169.693466
 20
132.535935
 30
0.0
 10
169.817452
 20
132.474719
 30
0.0
 10
169.947616
 20
132.428115
 30
0.0
 10
170.021329
 20
132.374058
 30
0.0
 10
170.103311
 20
132.333582
 30
0.0
 10
170.204717
 20
132.239573
 30
0.0
 10
170.316205
 20
132.157817
 30
0.0
 10
170.371466
 20
132.084993
 30
0.0
 10
170.438511
 20
132.022839
 30
0.0
 10
170.508925
 20
131.903846
 30
0.0
 10
170.592504
 20
131.793702
 30
0.0
 10
170.606712
 20
131.738587
 30
0.0
 10
170.671278
 20
131.629473
 30
0.0
 10
170.790399
 20
131.026133
 30
0.0
 10
170.790399
 20
124.413026
 30
0.0
 10
170.724597
 20
123.960710
 30
0.0
 10
170.532650
 20
123.545891
 30
0.0
 10
170.230464
 20
123.202957
 30
0.0
 10
169.843095
 20
122.960336
 30
0.0
 10
169.749033
 20
122.934248
 30
0.0
 10
169.693463
 20
122.903231
 30
0.0
 10
164.500960
 20
121.216084
 30
0.0
 10
164.500960
 20
116.909749
 30
0.0
 10
169.693463
 20
115.222602
 30
0.0
 10
169.817449
 20
115.161385
 30
0.0
 10
169.947614
 20
115.114782
 30
0.0
 10
170.021327
 20
115.060725
 30
0.0
 10
170.103308
 20
115.020249
 30
0.0
 10
170.204715
 20
114.926240
 30
0.0
 10
170.316202
 20
114.844483
 30
0.0
 10
170.371463
 20
114.771659
 30
0.0
 10
170.438508
 20
114.709506
 30
0.0
 10
170.508922
 20
114.590512
 30
0.0
 10
170.592501
 20
114.480369
 30
0.0
 10
170.606709
 20
114.425254
 30
0.0
 10
170.671276
 20
114.316140
 30
0.0
 10
170.790396
 20
113.712800
 30
0.0
 10
170.790396
 20
107.099693
 30
0.0
 10
170.724595
 20
106.647377
 30
0.0
 10
170.532647
 20
106.232558
 30
0.0
 10
170.230461
 20
105.889623
 30
0.0
 10
169.843093
 20
105.647003
 30
0.0
 10
169.749031
 20
105.620915
 30
0.0
 10
169.693460
 20
105.589898
 30
0.0
 10
163.404021
 20
103.546336
 30
0.0
 10
163.256973
 20
103.521148
 30
0.0
 10
163.113212
 20
103.481264
 30
0.0
 10
163.032792
 20
103.482852
 30
0.0
 10
162.953509
 20
103.469279
 30
0.0
 10
162.805377
 20
103.487032
 30
0.0
 10
162.656213
 20
103.489757
 30
0.0
 10
162.579542
 20
103.514073
 30
0.0
 10
162.499678
 20
103.523650
 30
0.0
 10
162.362750
 20
103.582864
 30
0.0
 10
162.220537
 20
103.627984
 30
0.0
 10
162.153970
 20
103.673151
 30
0.0
 10
162.080149
 20
103.705073
 30
0.0
 10
162.007063
 20
103.772824
 30
0.0
 10
161.842304
 20
103.884614
 30
0.0
 10
161.703607
 20
104.054135
 30
0.0
 10
161.629143
 20
104.123167
 30
0.0
 10
158.420001
 20
108.540174
 30
0.0
 10
153.227495
 20
106.853027
 30
0.0
 10
153.080447
 20
106.827839
 30
0.0
 10
152.936686
 20
106.787955
 30
0.0
 10
152.856266
 20
106.789543
 30
0.0
 10
152.776984
 20
106.775970
 30
0.0
 10
152.628851
 20
106.793723
 30
0.0
 10
152.479687
 20
106.796448
 30
0.0
 10
152.403016
 20
106.820764
 30
0.0
 10
152.323152
 20
106.830342
 30
0.0
 10
152.186225
 20
106.889555
 30
0.0
 10
152.044011
 20
106.934675
 30
0.0
 10
151.977445
 20
106.979842
 30
0.0
 10
151.903623
 20
107.011764
 30
0.0
 10
151.830537
 20
107.079516
 30
0.0
 10
151.665779
 20
107.191305
 30
0.0
 10
151.527081
 20
107.360826
 30
0.0
 10
151.452617
 20
107.429858
 30
0.0
 10
148.243475
 20
111.846865
 30
0.0
 10
144.147905
 20
110.516133
 30
0.0
 10
144.147905
 20
106.209801
 30
0.0
 10
149.340409
 20
104.522654
 30
0.0
 10
149.464395
 20
104.461437
 30
0.0
 10
149.594559
 20
104.414833
 30
0.0
 10
149.668272
 20
104.360776
 30
0.0
 10
149.750253
 20
104.320300
 30
0.0
 10
149.851660
 20
104.226291
 30
0.0
 10
149.963148
 20
104.144535
 30
0.0
 10
150.018409
 20
104.071711
 30
0.0
 10
150.085454
 20
104.009558
 30
0.0
 10
150.155868
 20
103.890564
 30
0.0
 10
150.239447
 20
103.780421
 30
0.0
 10
150.253655
 20
103.725305
 30
0.0
 10
150.318221
 20
103.616191
 30
0.0
 10
150.437342
 20
103.012851
 30
0.0
 10
150.437342
 20
96.399742
 30
0.0
 10
150.371540
 20
95.947426
 30
0.0
 10
150.179593
 20
95.532607
 30
0.0
 10
149.877407
 20
95.189672
 30
0.0
 10
149.490038
 20
94.947052
 30
0.0
 10
149.395976
 20
94.920964
 30
0.0
 10
149.340406
 20
94.889947
 30
0.0
 10
143.050966
 20
92.846385
 30
0.0
 10
142.903919
 20
92.821196
 30
0.0
 10
142.760158
 20
92.781313
 30
0.0
 10
142.679737
 20
92.782901
 30
0.0
 10
142.600455
 20
92.769328
 30
0.0
 10
142.452323
 20
92.787081
 30
0.0
 10
142.303159
 20
92.789806
 30
0.0
 10
142.226488
 20
92.814121
 30
0.0
 10
142.146623
 20
92.823699
 30
0.0
 10
142.009696
 20
92.882913
 30
0.0
 10
141.867483
 20
92.928033
 30
0.0
 10
141.800916
 20
92.973200
 30
0.0
 10
141.727095
 20
93.005122
 30
0.0
 10
141.654009
 20
93.072873
 30
0.0
 10
141.489250
 20
93.184662
 30
0.0
 10
141.350553
 20
93.354184
 30
0.0
 10
141.276089
 20
93.423216
 30
0.0
 10
138.066944
 20
97.840223
 30
0.0
 10
133.971374
 20
96.509491
 30
0.0
 10
133.971374
 20
92.203159
 30
0.0
 10
139.163877
 20
90.516011
 30
0.0
 10
139.287864
 20
90.454795
 30
0.0
 10
139.418028
 20
90.408191
 30
0.0
 10
139.491741
 20
90.354134
 30
0.0
 10
139.573722
 20
90.313658
 30
0.0
 10
139.675129
 20
90.219649
 30
0.0
 10
139.786617
 20
90.137893
 30
0.0
 10
139.841878
 20
90.065069
 30
0.0
 10
139.908923
 20
90.002916
 30
0.0
 10
139.979336
 20
89.883922
 30
0.0
 10
140.062916
 20
89.773779
 30
0.0
 10
140.077124
 20
89.718663
 30
0.0
 10
140.141690
 20
89.609549
 30
0.0
 10
140.260811
 20
89.006209
 30
0.0
 10
140.260811
 20
83.546487
 30
0.0
 10
145.453314
 20
81.859340
 30
0.0
 10
145.577301
 20
81.798123
 30
0.0
 10
145.707465
 20
81.751519
 30
0.0
 10
145.781178
 20
81.697462
 30
0.0
 10
145.863159
 20
81.656986
 30
0.0
 10
145.964566
 20
81.562977
 30
0.0
 10
146.076054
 20
81.481221
 30
0.0
 10
146.131314
 20
81.408397
 30
0.0
 10
146.198360
 20
81.346244
 30
0.0
 10
146.268773
 20
81.227250
 30
0.0
 10
146.352353
 20
81.117107
 30
0.0
 10
146.366561
 20
81.061991
 30
0.0
 10
146.431127
 20
80.952877
 30
0.0
 10
146.550248
 20
80.349537
 30
0.0
 10
146.550248
 20
73.736430
 30
0.0
 10
146.484446
 20
73.284114
 30
0.0
 10
146.292499
 20
72.869295
 30
0.0
 10
145.990313
 20
72.526361
 30
0.0
 10
145.602944
 20
72.283741
 30
0.0
 10
145.508882
 20
72.257653
 30
0.0
 10
145.453312
 20
72.226636
 30
0.0
 10
139.163872
 20
70.183071
 30
0.0
 10
139.016825
 20
70.157882
 30
0.0
 10
138.873063
 20
70.117999
 30
0.0
 10
138.792643
 20
70.119587
 30
0.0
 10
138.713361
 20
70.106013
 30
0.0
 10
138.565229
 20
70.123767
 30
0.0
 10
138.416064
 20
70.126492
 30
0.0
 10
138.339393
 20
70.150807
 30
0.0
 10
138.259529
 20
70.160385
 30
0.0
 10
138.122602
 20
70.219599
 30
0.0
 10
137.980388
 20
70.264718
 30
0.0
 10
137.913822
 20
70.309886
 30
0.0
 10
137.840000
 20
70.341807
 30
0.0
 10
137.766914
 20
70.409559
 30
0.0
 10
137.602156
 20
70.521348
 30
0.0
 10
137.463459
 20
70.690870
 30
0.0
 10
137.388994
 20
70.759902
 30
0.0
 10
134.179852
 20
75.176912
 30
0.0
 10
130.084282
 20
73.846179
 30
0.0
 10
130.084282
 20
68.386457
 30
0.0
 10
130.018480
 20
67.934141
 30
0.0
 10
129.826533
 20
67.519322
 30
0.0
 10
129.524347
 20
67.176388
 30
0.0
 10
129.136979
 20
66.933768
 30
0.0
 10
129.042917
 20
66.907680
 30
0.0
 10
128.987346
 20
66.876663
 30
0.0
 10
122.697907
 20
64.833100
 30
0.0
 10
122.550859
 20
64.807912
 30
0.0
 10
122.407098
 20
64.768029
 30
0.0
 10
122.326678
 20
64.769616
 30
0.0
 10
122.247395
 20
64.756043
 30
0.0
 10
122.099263
 20
64.773797
 30
0.0
 10
121.950099
 20
64.776522
 30
0.0
 10
121.873428
 20
64.800837
 30
0.0
 10
121.793564
 20
64.810415
 30
0.0
 10
121.656636
 20
64.869629
 30
0.0
 10
121.514423
 20
64.914748
 30
0.0
 10
121.447856
 20
64.959915
 30
0.0
 10
121.374035
 20
64.991837
 30
0.0
 10
121.300949
 20
65.059589
 30
0.0
 10
121.136190
 20
65.171378
 30
0.0
 10
120.997493
 20
65.340899
 30
0.0
 10
120.923029
 20
65.409932
 30
0.0
 10
117.035940
 20
70.760048
 30
0.0
 10
117.003639
 20
70.821513
 30
0.0
 10
116.959668
 20
70.875255
 30
0.0
 10
116.897793
 20
71.022922
 30
0.0
 10
116.823310
 20
71.164654
 30
0.0
 10
116.809869
 20
71.232779
 30
0.0
 10
116.783035
 20
71.296821
 30
0.0
 10
116.765784
 20
71.455997
 30
0.0
 10
116.734773
 20
71.613075
 30
0.0
 10
116.741281
 20
71.682208
 30
0.0
 10
116.733820
 20
71.751240
 30
0.0
 10
116.762649
 20
71.908723
 30
0.0
 10
116.777677
 20
72.068134
 30
0.0
 10
116.801093
 20
72.118747
 30
0.0
 10
116.816121
 20
72.200847
 30
0.0
 10
117.023118
 20
72.608363
 30
0.0
 10
117.031982
 20
72.617703
 30
0.0
 10
117.035950
 20
72.626276
 30
0.0
 10
120.245095
 20
77.043285
 30
0.0
 10
117.035950
 20
81.460292
 30
0.0
 10
117.003650
 20
81.521758
 30
0.0
 10
116.959679
 20
81.575500
 30
0.0
 10
116.897804
 20
81.723166
 30
0.0
 10
116.823321
 20
81.864898
 30
0.0
 10
116.809880
 20
81.933023
 30
0.0
 10
116.783046
 20
81.997066
 30
0.0
 10
116.765795
 20
82.156242
 30
0.0
 10
116.734783
 20
82.313320
 30
0.0
 10
116.741292
 20
82.382453
 30
0.0
 10
116.733831
 20
82.451485
 30
0.0
 10
116.762660
 20
82.608968
 30
0.0
 10
116.777688
 20
82.768379
 30
0.0
 10
116.801104
 20
82.818991
 30
0.0
 10
116.816132
 20
82.901091
 30
0.0
 10
117.023129
 20
83.308608
 30
0.0
 10
117.031992
 20
83.317948
 30
0.0
 10
117.035961
 20
83.326520
 30
0.0
 10
120.245105
 20
87.743530
 30
0.0
 10
117.713906
 20
91.227428
 30
0.0
 10
113.618335
 20
89.896696
 30
0.0
 10
113.618335
 20
84.436974
 30
0.0
 10
113.552534
 20
83.984658
 30
0.0
 10
113.360586
 20
83.569839
 30
0.0
 10
113.058400
 20
83.226905
 30
0.0
 10
112.671032
 20
82.984284
 30
0.0
 10
112.576970
 20
82.958197
 30
0.0
 10
112.521399
 20
82.927179
 30
0.0
 10
106.231963
 20
80.883617
 30
0.0
 10
106.084915
 20
80.858429
 30
0.0
 10
105.941154
 20
80.818545
 30
0.0
 10
105.860734
 20
80.820133
 30
0.0
 10
105.781451
 20
80.806560
 30
0.0
 10
105.633319
 20
80.824313
 30
0.0
 10
105.484155
 20
80.827039
 30
0.0
 10
105.407484
 20
80.851354
 30
0.0
 10
105.327619
 20
80.860932
 30
0.0
 10
105.190692
 20
80.920145
 30
0.0
 10
105.048479
 20
80.965265
 30
0.0
 10
104.981912
 20
81.010432
 30
0.0
 10
104.908091
 20
81.042354
 30
0.0
 10
104.835005
 20
81.110106
 30
0.0
 10
104.670246
 20
81.221895
 30
0.0
 10
104.531549
 20
81.391416
 30
0.0
 10
104.457085
 20
81.460448
 30
0.0
 10
100.569996
 20
86.810567
 30
0.0
 10
100.537695
 20
86.872030
 30
0.0
 10
100.493724
 20
86.925774
 30
0.0
 10
100.431846
 20
87.073449
 30
0.0
 10
100.357366
 20
87.215176
 30
0.0
 10
100.343925
 20
87.283295
 30
0.0
 10
100.317088
 20
87.347340
 30
0.0
 10
100.299838
 20
87.506519
 30
0.0
 10
100.268826
 20
87.663594
 30
0.0
 10
100.275334
 20
87.732727
 30
0.0
 10
100.267873
 20
87.801760
 30
0.0
 10
100.296702
 20
87.959242
 30
0.0
 10
100.311731
 20
88.118654
 30
0.0
 10
100.335146
 20
88.169266
 30
0.0
 10
100.350174
 20
88.251366
 30
0.0
 10
100.557171
 20
88.658883
 30
0.0
 10
100.566035
 20
88.668222
 30
0.0
 10
100.570004
 20
88.676795
 30
0.0
 10
103.779148
 20
93.093802
 30
0.0
 10
101.247948
 20
96.577700
 30
0.0
 10
97.152378
 20
95.246968
 30
0.0
 10
97.152378
 20
89.787248
 30
0.0
 10
97.086576
 20
89.334933
 30
0.0
 10
96.894629
 20
88.920114
 30
0.0
 10
96.592443
 20
88.577179
 30
0.0
 10
96.205074
 20
88.334559
 30
0.0
 10
96.111012
 20
88.308471
 30
0.0
 10
96.055442
 20
88.277454
 30
0.0
 10
90.862938
 20
86.590307
 30
0.0
 10
90.862938
 20
81.130584
 30
0.0
 10
90.797137
 20
80.678269
 30
0.0
 10
90.605189
 20
80.263450
 30
0.0
 10
90.303003
 20
79.920515
 30
0.0
 10
89.915635
 20
79.677895
 30
0.0
 10
89.821573
 20
79.651807
 30
0.0
 10
89.766002
 20
79.620790
 30
0.0
 10
83.476563
 20
77.577228
 30
0.0
 10
83.329515
 20
77.552039
 30
0.0
 10
83.185754
 20
77.512156
 30
0.0
 10
83.105334
 20
77.513744
 30
0.0
 10
83.026052
 20
77.500170
 30
0.0
 10
82.877919
 20
77.517924
 30
0.0
 10
82.728755
 20
77.520649
 30
0.0
 10
82.652084
 20
77.544964
 30
0.0
 10
82.572220
 20
77.554542
 30
0.0
 10
82.435293
 20
77.613756
 30
0.0
 10
82.293079
 20
77.658875
 30
0.0
 10
82.226512
 20
77.704042
 30
0.0
 10
82.152691
 20
77.735964
 30
0.0
 10
82.079605
 20
77.803716
 30
0.0
 10
81.914847
 20
77.915505
 30
0.0
 10
81.776149
 20
78.085027
 30
0.0
 10
81.701685
 20
78.154059
 30
0.0
 10
77.814599
 20
83.504175
 30
0.0
 10
77.782298
 20
83.565638
 30
0.0
 10
77.738327
 20
83.619382
 30
0.0
 10
77.676449
 20
83.767057
 30
0.0
 10
77.601969
 20
83.908784
 30
0.0
 10
77.588528
 20
83.976903
 30
0.0
 10
77.561691
 20
84.040948
 30
0.0
 10
77.544441
 20
84.200127
 30
0.0
 10
77.513429
 20
84.357202
 30
0.0
 10
77.519937
 20
84.426335
 30
0.0
 10
77.512450
 20
84.495367
 30
0.0
 10
77.541279
 20
84.652850
 30
0.0
 10
77.556307
 20
84.812262
 30
0.0
 10
77.579723
 20
84.862874
 30
0.0
 10
77.594751
 20
84.944974
 30
0.0
 10
77.801748
 20
85.352490
 30
0.0
 10
77.810611
 20
85.361830
 30
0.0
 10
77.814580
 20
85.370403
 30
0.0
 10
81.023725
 20
89.787412
 30
0.0
 10
78.492525
 20
93.271311
 30
0.0
 10
73.300019
 20
91.584164
 30
0.0
 10
73.152971
 20
91.558975
 30
0.0
 10
73.009210
 20
91.519092
 30
0.0
 10
72.928790
 20
91.520679
 30
0.0
 10
72.849507
 20
91.507106
 30
0.0
 10
72.701375
 20
91.524860
 30
0.0
 10
72.552211
 20
91.527585
 30
0.0
 10
72.475540
 20
91.551900
 30
0.0
 10
72.395675
 20
91.561478
 30
0.0
 10
72.258748
 20
91.620692
 30
0.0
 10
72.116535
 20
91.665811
 30
0.0
 10
72.049968
 20
91.710978
 30
0.0
 10
71.976147
 20
91.742900
 30
0.0
 10
71.903061
 20
91.810652
 30
0.0
 10
71.738302
 20
91.922441
 30
0.0
 10
71.599605
 20
92.091962
 30
0.0
 10
71.525141
 20
92.160995
 30
0.0
 10
67.638052
 20
97.511111
 30
0.0
 10
67.605751
 20
97.572576
 30
0.0
 10
67.561780
 20
97.626318
 30
0.0
 10
67.499905
 20
97.773985
 30
0.0
 10
67.425422
 20
97.915717
 30
0.0
 10
67.411981
 20
97.983842
 30
0.0
 10
67.385147
 20
98.047884
 30
0.0
 10
67.367896
 20
98.207060
 30
0.0
 10
67.336884
 20
98.364138
 30
0.0
 10
67.343393
 20
98.433271
 30
0.0
 10
67.335905
 20
98.502303
 30
0.0
 10
67.364734
 20
98.659786
 30
0.0
 10
67.379763
 20
98.819197
 30
0.0
 10
67.403178
 20
98.869810
 30
0.0
 10
67.418207
 20
98.951910
 30
0.0
 10
67.625203
 20
99.359426
 30
0.0
 10
67.634067
 20
99.368766
 30
0.0
 10
67.638036
 20
99.377339
 30
0.0
 10
71.525125
 20
104.727457
 30
0.0
 10
71.677099
 20
104.883315
 30
0.0
 10
71.826837
 20
105.041203
 30
0.0
 10
71.836468
 20
105.046759
 30
0.0
 10
71.844247
 20
105.054723
 30
0.0
 10
72.034403
 20
105.160860
 30
0.0
 10
72.222847
 20
105.269498
 30
0.0
 10
72.233642
 20
105.272144
 30
0.0
 10
72.243352
 20
105.277568
 30
0.0
 10
72.455815
 20
105.325114
 30
0.0
 10
72.667453
 20
105.375570
 30
0.0
 10
72.678539
 20
105.375041
 30
0.0
 10
72.689387
 20
105.377422
 30
0.0
 10
72.736012
 20
105.371839
 30
0.0
 10
73.123832
 20
105.350514
 30
0.0
 10
73.229393
 20
105.312718
 30
0.0
 10
73.300008
 20
105.304251
 30
0.0
 10
78.492514
 20
103.617104
 30
0.0
 10
81.701656
 20
108.034111
 30
0.0
 10
81.853630
 20
108.189969
 30
0.0
 10
82.003368
 20
108.347857
 30
0.0
 10
82.012999
 20
108.353413
 30
0.0
 10
82.020778
 20
108.361377
 30
0.0
 10
82.210902
 20
108.467496
 30
0.0
 10
82.399378
 20
108.576152
 30
0.0
 10
82.410199
 20
108.578798
 30
0.0
 10
82.419910
 20
108.584222
 30
0.0
 10
82.632301
 20
108.631755
 30
0.0
 10
82.844013
 20
108.682226
 30
0.0
 10
82.855099
 20
108.681697
 30
0.0
 10
82.865947
 20
108.684079
 30
0.0
 10
82.912572
 20
108.678496
 30
0.0
 10
83.300393
 20
108.657170
 30
0.0
 10
83.405954
 20
108.619375
 30
0.0
 10
83.476568
 20
108.610908
 30
0.0
 10
88.669074
 20
106.923761
 30
0.0
 10
91.200274
 20
110.407659
 30
0.0
 10
88.669074
 20
113.891557
 30
0.0
 10
83.476568
 20
112.204410
 30
0.0
 10
83.026057
 20
112.127218
 30
0.0
 10
82.572225
 20
112.181587
 30
0.0
 10
82.152696
 20
112.363009
 30
0.0
 10
81.701690
 20
112.781104
 30
0.0
 10
77.814604
 20
118.131222
 30
0.0
 10
77.601974
 20
118.535831
 30
0.0
 10
77.513439
 20
118.984249
 30
0.0
 10
77.556339
 20
119.439309
 30
0.0
 10
77.814604
 20
119.997440
 30
0.0
 10
81.701690
 20
125.347555
 30
0.0
 10
81.778057
 20
125.425875
 30
0.0
 10
81.841742
 20
125.514820
 30
0.0
 10
81.936773
 20
125.588646
 30
0.0
 10
82.020788
 20
125.674811
 30
0.0
 10
82.116311
 20
125.728127
 30
0.0
 10
82.202692
 20
125.795236
 30
0.0
 10
82.314825
 20
125.838929
 30
0.0
 10
82.419902
 20
125.897579
 30
0.0
 10
82.526643
 20
125.921471
 30
0.0
 10
82.628579
 20
125.961190
 30
0.0
 10
82.748512
 20
125.971112
 30
0.0
 10
82.865947
 20
125.997385
 30
0.0
 10
82.975088
 20
125.989871
 30
0.0
 10
83.084096
 20
125.998893
 30
0.0
 10
83.220343
 20
125.972964
 30
0.0
 10
83.321943
 20
125.965953
 30
0.0
 10
83.389129
 20
125.940844
 30
0.0
 10
83.476568
 20
125.924202
 30
0.0
 10
88.669074
 20
124.237054
 30
0.0
 10
91.200274
 20
127.720953
 30
0.0
 10
88.669074
 20
131.204854
 30
0.0
 10
83.476568
 20
129.517704
 30
0.0
 10
83.026057
 20
129.440511
 30
0.0
 10
82.572225
 20
129.494881
 30
0.0
 10
82.152696
 20
129.676303
 30
0.0
 10
81.701690
 20
130.094397
 30
0.0
 10
78.492548
 20
134.511407
 30
0.0
 10
73.300042
 20
132.824260
 30
0.0
 10
72.849531
 20
132.747067
 30
0.0
 10
72.395699
 20
132.801437
 30
0.0
 10
71.976171
 20
132.982859
 30
0.0
 10
71.525164
 20
133.400953
 30
0.0
 10
67.638075
 20
138.751069
 30
0.0
 10
67.425446
 20
139.155675
 30
0.0
 10
67.336911
 20
139.604096
 30
0.0
 10
67.379810
 20
140.059156
 30
0.0
 10
67.638075
 20
140.617287
 30
0.0
 10
71.525164
 20
145.967402
 30
0.0
 10
71.844262
 20
146.294658
 30
0.0
 10
72.243379
 20
146.517429
 30
0.0
 10
72.689421
 20
146.617248
 30
0.0
 10
73.300042
 20
146.544096
 30
0.0
 10
78.492548
 20
144.856949
 30
0.0
 10
81.023748
 20
148.340850
 30
0.0
 10
77.814604
 20
152.757857
 30
0.0
 10
77.601974
 20
153.162466
 30
0.0
 10
77.513439
 20
153.610884
 30
0.0
 10
77.556339
 20
154.065944
 30
0.0
 10
77.814604
 20
154.624074
 30
0.0
 10
81.701690
 20
159.974190
 30
0.0
 10
82.020788
 20
160.301445
 30
0.0
 10
82.419902
 20
160.524214
 30
0.0
 10
82.865947
 20
160.624036
 30
0.0
 10
83.476568
 20
160.550884
 30
0.0
 10
89.766008
 20
158.507322
 30
0.0
 10
90.175853
 20
158.304968
 30
0.0
 10
90.511053
 20
157.994226
 30
0.0
 10
90.743823
 20
157.600859
 30
0.0
 10
90.862944
 20
156.997519
 30
0.0
 10
90.862944
 20
151.537800
 30
0.0
 10
96.055447
 20
149.850652
 30
0.0
 10
96.465292
 20
149.648299
 30
0.0
 10
96.800493
 20
149.337556
 30
0.0
 10
97.033263
 20
148.944190
 30
0.0
 10
97.152383
 20
148.340850
 30
0.0
 10
97.152383
 20
142.881128
 30
0.0
 10
101.247953
 20
141.550395
 30
0.0
 10
103.779153
 20
145.034294
 30
0.0
 10
100.570009
 20
149.451303
 30
0.0
 10
100.357379
 20
149.855912
 30
0.0
 10
100.268844
 20
150.304331
 30
0.0
 10
100.311744
 20
150.759390
 30
0.0
 10
100.570009
 20
151.317521
 30
0.0
 10
104.457098
 20
156.667637
 30
0.0
 10
104.776196
 20
156.994892
 30
0.0
 10
105.175312
 20
157.217663
 30
0.0
 10
105.621354
 20
157.317482
 30
0.0
 10
106.231976
 20
157.244330
 30
0.0
 10
112.521413
 20
155.200768
 30
0.0
 10
112.931258
 20
154.998415
 30
0.0
 10
113.266458
 20
154.687672
 30
0.0
 10
113.499228
 20
154.294306
 30
0.0
 10
113.618349
 20
153.690966
 30
0.0
 10
113.618349
 20
148.231244
 30
0.0
 10
117.713919
 20
146.900511
 30
0.0
 10
120.245119
 20
150.384412
 30
0.0
 10
117.035974
 20
154.801419
 30
0.0
 10
117.003674
 20
154.862885
 30
0.0
 10
116.959703
 20
154.916627
 30
0.0
 10
116.897827
 20
155.064293
 30
0.0
 10
116.823344
 20
155.206025
 30
0.0
 10
116.809904
 20
155.274150
 30
0.0
 10
116.783070
 20
155.338193
 30
0.0
 10
116.765819
 20
155.497369
 30
0.0
 10
116.734807
 20
155.654446
 30
0.0
 10
116.741316
 20
155.723579
 30
0.0
 10
116.733854
 20
155.792612
 30
0.0
 10
116.762683
 20
155.950094
 30
0.0
 10
116.777712
 20
156.109506
 30
0.0
 10
116.801127
 20
156.160118
 30
0.0
 10
116.816156
 20
156.242218
 30
0.0
 10
117.023153
 20
156.649735
 30
0.0
 10
117.032016
 20
156.659075
 30
0.0
 10
117.035985
 20
156.667647
 30
0.0
 10
120.245129
 20
161.084657
 30
0.0
 10
117.035985
 20
165.501664
 30
0.0
 10
117.003684
 20
165.563129
 30
0.0
 10
116.959713
 20
165.616871
 30
0.0
 10
116.897838
 20
165.764538
 30
0.0
 10
116.823355
 20
165.906270
 30
0.0
 10
116.809914
 20
165.974395
 30
0.0
 10
116.783080
 20
166.038437
 30
0.0
 10
116.765829
 20
166.197613
 30
0.0
 10
116.734818
 20
166.354691
 30
0.0
 10
116.741326
 20
166.423824
 30
0.0
 10
116.733865
 20
166.492857
 30
0.0
 10
116.762694
 20
166.650339
 30
0.0
 10
116.777722
 20
166.809751
 30
0.0
 10
116.801138
 20
166.860363
 30
0.0
 10
116.816166
 20
166.942463
 30
0.0
 10
117.023163
 20
167.349980
 30
0.0
 10
117.032027
 20
167.359319
 30
0.0
 10
117.035995
 20
167.367892
 30
0.0
 10
120.923084
 20
172.718008
 30
0.0
 10
121.075058
 20
172.873866
 30
0.0
 10
121.224797
 20
173.031753
 30
0.0
 10
121.234428
 20
173.037309
 30
0.0
 10
121.242206
 20
173.045273
 30
0.0
 10
121.432362
 20
173.151411
 30
0.0
 10
121.620807
 20
173.260049
 30
0.0
 10
121.631602
 20
173.262695
 30
0.0
 10
121.641312
 20
173.268119
 30
0.0
 10
121.853775
 20
173.315664
 30
0.0
 10
122.065412
 20
173.366120
 30
0.0
 10
122.076498
 20
173.365591
 30
0.0
 10
122.087346
 20
173.367973
 30
0.0
  0
LWPOLYLINE
  5
101
100
AcDbEntity
  8
Layer_4
 62
7
100
AcDbPolyline
 90
630
 70
1
 10
120.282451
 20
166.432950
 30
0.0
 10
123.491596
 20
162.015943
 30
0.0
 10
123.537382
 20
161.928815
 30
0.0
 10
123.596884
 20
161.850403
 30
0.0
 10
123.614505
 20
161.782067
 30
0.0
 10
123.704228
 20
161.611336
 30
0.0
 10
123.792763
 20
161.162915
 30
0.0
 10
123.787789
 20
161.110017
 30
0.0
 10
123.794800
 20
161.082834
 30
0.0
 10
123.767609
 20
160.895922
 30
0.0
 10
123.749882
 20
160.707856
 30
0.0
 10
123.735833
 20
160.677503
 30
0.0
 10
123.729007
 20
160.630518
 30
0.0
 10
123.537059
 20
160.215699
 30
0.0
 10
123.505664
 20
160.180070
 30
0.0
 10
123.491614
 20
160.149725
 30
0.0
 10
120.282470
 20
155.732715
 30
0.0
 10
123.491614
 20
151.315708
 30
0.0
 10
123.537401
 20
151.228581
 30
0.0
 10
123.596903
 20
151.150169
 30
0.0
 10
123.614524
 20
151.081833
 30
0.0
 10
123.704247
 20
150.911102
 30
0.0
 10
123.792782
 20
150.462681
 30
0.0
 10
123.787808
 20
150.409783
 30
0.0
 10
123.794819
 20
150.382600
 30
0.0
 10
123.767628
 20
150.195687
 30
0.0
 10
123.749901
 20
150.007622
 30
0.0
 10
123.735851
 20
149.977269
 30
0.0
 10
123.729025
 20
149.930284
 30
0.0
 10
123.537078
 20
149.515465
 30
0.0
 10
123.505682
 20
149.479836
 30
0.0
 10
123.491633
 20
149.449491
 30
0.0
 10
119.604544
 20
144.099373
 30
0.0
 10
119.472684
 20
143.964141
 30
0.0
 10
119.347795
 20
143.822412
 30
0.0
 10
119.313608
 20
143.801007
 30
0.0
 10
119.285446
 20
143.772125
 30
0.0
 10
119.120505
 20
143.680061
 30
0.0
 10
118.960426
 20
143.579800
 30
0.0
 10
118.921556
 20
143.569005
 30
0.0
 10
118.886330
 20
143.549346
 30
0.0
 10
118.701984
 20
143.508092
 30
0.0
 10
118.519985
 20
143.457599
 30
0.0
 10
118.479657
 20
143.458393
 30
0.0
 10
118.440287
 20
143.449582
 30
0.0
 10
118.346384
 20
143.460827
 30
0.0
 10
118.062986
 20
143.466013
 30
0.0
 10
117.917320
 20
143.512228
 30
0.0
 10
117.829666
 20
143.522732
 30
0.0
 10
112.030790
 20
145.406904
 30
0.0
 10
106.722482
 20
143.682125
 30
0.0
 10
103.138579
 20
138.749310
 30
0.0
 10
102.819480
 20
138.422055
 30
0.0
 10
102.420364
 20
138.199283
 30
0.0
 10
101.974322
 20
138.099464
 30
0.0
 10
101.363701
 20
138.172616
 30
0.0
 10
95.074261
 20
140.216178
 30
0.0
 10
94.664416
 20
140.418532
 30
0.0
 10
94.329216
 20
140.729274
 30
0.0
 10
94.096446
 20
141.122641
 30
0.0
 10
93.977325
 20
141.725981
 30
0.0
 10
93.977325
 20
147.185703
 30
0.0
 10
88.784822
 20
148.872850
 30
0.0
 10
88.374977
 20
149.075204
 30
0.0
 10
88.039776
 20
149.385946
 30
0.0
 10
87.807006
 20
149.779313
 30
0.0
 10
87.687886
 20
150.382653
 30
0.0
 10
87.687886
 20
155.842372
 30
0.0
 10
83.592315
 20
157.173105
 30
0.0
 10
81.061116
 20
153.689206
 30
0.0
 10
84.270260
 20
149.272199
 30
0.0
 10
84.482890
 20
148.867590
 30
0.0
 10
84.571425
 20
148.419172
 30
0.0
 10
84.528525
 20
147.964112
 30
0.0
 10
84.270260
 20
147.405982
 30
0.0
 10
80.383174
 20
142.055863
 30
0.0
 10
80.064076
 20
141.728608
 30
0.0
 10
79.664962
 20
141.505839
 30
0.0
 10
79.218917
 20
141.406017
 30
0.0
 10
78.608296
 20
141.479169
 30
0.0
 10
73.415790
 20
143.166317
 30
0.0
 10
70.884590
 20
139.682418
 30
0.0
 10
73.415790
 20
136.198520
 30
0.0
 10
78.608296
 20
137.885667
 30
0.0
 10
79.058807
 20
137.962860
 30
0.0
 10
79.512639
 20
137.908490
 30
0.0
 10
79.932168
 20
137.727068
 30
0.0
 10
80.383174
 20
137.308974
 30
0.0
 10
83.592315
 20
132.891964
 30
0.0
 10
88.784822
 20
134.579114
 30
0.0
 10
89.235333
 20
134.656306
 30
0.0
 10
89.689165
 20
134.601937
 30
0.0
 10
90.108693
 20
134.420515
 30
0.0
 10
90.559700
 20
134.002420
 30
0.0
 10
94.446789
 20
128.652302
 30
0.0
 10
94.659418
 20
128.247693
 30
0.0
 10
94.747953
 20
127.799275
 30
0.0
 10
94.705054
 20
127.344215
 30
0.0
 10
94.446789
 20
126.786084
 30
0.0
 10
90.862886
 20
121.853269
 30
0.0
 10
90.862886
 20
116.271776
 30
0.0
 10
94.446789
 20
111.338961
 30
0.0
 10
94.492575
 20
111.251833
 30
0.0
 10
94.552077
 20
111.173421
 30
0.0
 10
94.569698
 20
111.105085
 30
0.0
 10
94.659421
 20
110.934354
 30
0.0
 10
94.747956
 20
110.485933
 30
0.0
 10
94.742955
 20
110.433035
 30
0.0
 10
94.749967
 20
110.405852
 30
0.0
 10
94.722775
 20
110.218940
 30
0.0
 10
94.705048
 20
110.030874
 30
0.0
 10
94.690999
 20
110.000521
 30
0.0
 10
94.684173
 20
109.953536
 30
0.0
 10
94.492225
 20
109.538717
 30
0.0
 10
94.460830
 20
109.503088
 30
0.0
 10
94.446781
 20
109.472743
 30
0.0
 10
90.559692
 20
104.122627
 30
0.0
 10
90.427831
 20
103.987396
 30
0.0
 10
90.302943
 20
103.845667
 30
0.0
 10
90.268756
 20
103.824262
 30
0.0
 10
90.240593
 20
103.795380
 30
0.0
 10
90.075652
 20
103.703316
 30
0.0
 10
89.915574
 20
103.603055
 30
0.0
 10
89.876704
 20
103.592260
 30
0.0
 10
89.841477
 20
103.572601
 30
0.0
 10
89.657132
 20
103.531347
 30
0.0
 10
89.475133
 20
103.480854
 30
0.0
 10
89.434805
 20
103.481648
 30
0.0
 10
89.395435
 20
103.472837
 30
0.0
 10
89.301532
 20
103.484082
 30
0.0
 10
89.018134
 20
103.489268
 30
0.0
 10
88.872467
 20
103.535483
 30
0.0
 10
88.784814
 20
103.545987
 30
0.0
 10
83.592308
 20
105.233134
 30
0.0
 10
80.383166
 20
100.816127
 30
0.0
 10
80.251305
 20
100.680896
 30
0.0
 10
80.126417
 20
100.539166
 30
0.0
 10
80.092230
 20
100.517762
 30
0.0
 10
80.064068
 20
100.488880
 30
0.0
 10
79.899134
 20
100.396821
 30
0.0
 10
79.739048
 20
100.296554
 30
0.0
 10
79.700173
 20
100.285759
 30
0.0
 10
79.664954
 20
100.266100
 30
0.0
 10
79.480630
 20
100.224849
 30
0.0
 10
79.298607
 20
100.174351
 30
0.0
 10
79.258279
 20
100.175145
 30
0.0
 10
79.218909
 20
100.166334
 30
0.0
 10
79.125006
 20
100.177579
 30
0.0
 10
78.841608
 20
100.182765
 30
0.0
 10
78.695942
 20
100.228979
 30
0.0
 10
78.608288
 20
100.239483
 30
0.0
 10
73.415782
 20
101.926631
 30
0.0
 10
70.884582
 20
98.442730
 30
0.0
 10
73.415782
 20
94.958831
 30
0.0
 10
78.608288
 20
96.645979
 30
0.0
 10
78.783720
 20
96.676038
 30
0.0
 10
78.956853
 20
96.717313
 30
0.0
 10
79.008158
 20
96.714482
 30
0.0
 10
79.058799
 20
96.723160
 30
0.0
 10
79.235525
 20
96.701994
 30
0.0
 10
79.413240
 20
96.692231
 30
0.0
 10
79.461614
 20
96.674900
 30
0.0
 10
79.512631
 20
96.668788
 30
0.0
 10
79.675995
 20
96.598142
 30
0.0
 10
79.843567
 20
96.538145
 30
0.0
 10
79.885000
 20
96.507760
 30
0.0
 10
79.932160
 20
96.487361
 30
0.0
 10
80.005417
 20
96.419450
 30
0.0
 10
80.212155
 20
96.267842
 30
0.0
 10
80.314620
 20
96.132809
 30
0.0
 10
80.383166
 20
96.069266
 30
0.0
 10
84.270252
 20
90.719151
 30
0.0
 10
84.316038
 20
90.632023
 30
0.0
 10
84.375540
 20
90.553611
 30
0.0
 10
84.393162
 20
90.485272
 30
0.0
 10
84.482884
 20
90.314542
 30
0.0
 10
84.571419
 20
89.866123
 30
0.0
 10
84.566445
 20
89.813225
 30
0.0
 10
84.573457
 20
89.786042
 30
0.0
 10
84.546265
 20
89.599130
 30
0.0
 10
84.528538
 20
89.411064
 30
0.0
 10
84.514489
 20
89.380711
 30
0.0
 10
84.507663
 20
89.333726
 30
0.0
 10
84.315715
 20
88.918907
 30
0.0
 10
84.284320
 20
88.883278
 30
0.0
 10
84.270271
 20
88.852933
 30
0.0
 10
81.061126
 20
84.435924
 30
0.0
 10
83.592326
 20
80.952025
 30
0.0
 10
87.687896
 20
82.282758
 30
0.0
 10
87.687896
 20
87.742342
 30
0.0
 10
87.692103
 20
87.771319
 30
0.0
 10
87.688954
 20
87.800426
 30
0.0
 10
87.724930
 20
87.996943
 30
0.0
 10
87.753693
 20
88.194658
 30
0.0
 10
87.765996
 20
88.221230
 30
0.0
 10
87.771261
 20
88.250033
 30
0.0
 10
87.861738
 20
88.428153
 30
0.0
 10
87.945640
 20
88.609477
 30
0.0
 10
87.965007
 20
88.631437
 30
0.0
 10
87.978263
 20
88.657552
 30
0.0
 10
88.115725
 20
88.802496
 30
0.0
 10
88.247831
 20
88.952414
 30
0.0
 10
88.269236
 20
88.964373
 30
0.0
 10
88.292784
 20
88.989217
 30
0.0
 10
88.688770
 20
89.217503
 30
0.0
 10
88.748031
 20
89.231631
 30
0.0
 10
88.784822
 20
89.252163
 30
0.0
 10
93.977325
 20
90.939310
 30
0.0
 10
93.977325
 20
96.399030
 30
0.0
 10
93.981532
 20
96.428007
 30
0.0
 10
93.978383
 20
96.457114
 30
0.0
 10
94.014359
 20
96.653630
 30
0.0
 10
94.043122
 20
96.851346
 30
0.0
 10
94.055425
 20
96.877918
 30
0.0
 10
94.060690
 20
96.906720
 30
0.0
 10
94.151167
 20
97.084840
 30
0.0
 10
94.235069
 20
97.266165
 30
0.0
 10
94.254436
 20
97.288125
 30
0.0
 10
94.267692
 20
97.314239
 30
0.0
 10
94.405154
 20
97.459184
 30
0.0
 10
94.537260
 20
97.609102
 30
0.0
 10
94.558665
 20
97.621061
 30
0.0
 10
94.582213
 20
97.645905
 30
0.0
 10
94.978199
 20
97.874190
 30
0.0
 10
95.037460
 20
97.888319
 30
0.0
 10
95.074251
 20
97.908851
 30
0.0
 10
101.363690
 20
99.952413
 30
0.0
 10
101.539122
 20
99.982472
 30
0.0
 10
101.712255
 20
100.023747
 30
0.0
 10
101.763560
 20
100.020916
 30
0.0
 10
101.814201
 20
100.029595
 30
0.0
 10
101.990927
 20
100.008428
 30
0.0
 10
102.168642
 20
99.998665
 30
0.0
 10
102.217016
 20
99.981335
 30
0.0
 10
102.268033
 20
99.975223
 30
0.0
 10
102.431398
 20
99.904576
 30
0.0
 10
102.598969
 20
99.844580
 30
0.0
 10
102.640403
 20
99.814195
 30
0.0
 10
102.687562
 20
99.793795
 30
0.0
 10
102.760820
 20
99.725885
 30
0.0
 10
102.967557
 20
99.574276
 30
0.0
 10
103.070022
 20
99.439243
 30
0.0
 10
103.138568
 20
99.375701
 30
0.0
 10
106.722471
 20
94.442886
 30
0.0
 10
112.030780
 20
92.718109
 30
0.0
 10
117.829655
 20
94.602279
 30
0.0
 10
118.005087
 20
94.632338
 30
0.0
 10
118.178220
 20
94.673613
 30
0.0
 10
118.229526
 20
94.670782
 30
0.0
 10
118.280167
 20
94.679460
 30
0.0
 10
118.456893
 20
94.658294
 30
0.0
 10
118.634608
 20
94.648531
 30
0.0
 10
118.682982
 20
94.631200
 30
0.0
 10
118.733999
 20
94.625089
 30
0.0
 10
118.897363
 20
94.554442
 30
0.0
 10
119.064934
 20
94.494445
 30
0.0
 10
119.106368
 20
94.464060
 30
0.0
 10
119.153527
 20
94.443661
 30
0.0
 10
119.226785
 20
94.375751
 30
0.0
 10
119.433523
 20
94.224142
 30
0.0
 10
119.535988
 20
94.089109
 30
0.0
 10
119.604533
 20
94.025567
 30
0.0
 10
123.491622
 20
88.675451
 30
0.0
 10
123.537408
 20
88.588323
 30
0.0
 10
123.596911
 20
88.509912
 30
0.0
 10
123.614532
 20
88.441575
 30
0.0
 10
123.704255
 20
88.270845
 30
0.0
 10
123.792790
 20
87.822424
 30
0.0
 10
123.787815
 20
87.769525
 30
0.0
 10
123.794827
 20
87.742342
 30
0.0
 10
123.767636
 20
87.555430
 30
0.0
 10
123.749909
 20
87.367364
 30
0.0
 10
123.735859
 20
87.337011
 30
0.0
 10
123.729033
 20
87.290026
 30
0.0
 10
123.537086
 20
86.875207
 30
0.0
 10
123.505690
 20
86.839578
 30
0.0
 10
123.491641
 20
86.809233
 30
0.0
 10
120.282496
 20
82.392224
 30
0.0
 10
123.491641
 20
77.975217
 30
0.0
 10
123.537427
 20
77.888089
 30
0.0
 10
123.596929
 20
77.809677
 30
0.0
 10
123.614550
 20
77.741341
 30
0.0
 10
123.704273
 20
77.570610
 30
0.0
 10
123.792808
 20
77.122189
 30
0.0
 10
123.787834
 20
77.069291
 30
0.0
 10
123.794845
 20
77.042108
 30
0.0
 10
123.767654
 20
76.855196
 30
0.0
 10
123.749927
 20
76.667130
 30
0.0
 10
123.735878
 20
76.636777
 30
0.0
 10
123.729051
 20
76.589792
 30
0.0
 10
123.537104
 20
76.174973
 30
0.0
 10
123.505709
 20
76.139344
 30
0.0
 10
123.491659
 20
76.108999
 30
0.0
 10
120.282515
 20
71.691989
 30
0.0
 10
122.813715
 20
68.208091
 30
0.0
 10
126.909285
 20
69.538824
 30
0.0
 10
126.909285
 20
74.998546
 30
0.0
 10
126.913492
 20
75.027523
 30
0.0
 10
126.910343
 20
75.056630
 30
0.0
 10
126.946319
 20
75.253146
 30
0.0
 10
126.975082
 20
75.450861
 30
0.0
 10
126.987385
 20
75.477433
 30
0.0
 10
126.992650
 20
75.506236
 30
0.0
 10
127.083127
 20
75.684356
 30
0.0
 10
127.167029
 20
75.865680
 30
0.0
 10
127.186396
 20
75.887641
 30
0.0
 10
127.199652
 20
75.913755
 30
0.0
 10
127.337114
 20
76.058699
 30
0.0
 10
127.469220
 20
76.208617
 30
0.0
 10
127.490625
 20
76.220577
 30
0.0
 10
127.514173
 20
76.245421
 30
0.0
 10
127.910159
 20
76.473706
 30
0.0
 10
127.969420
 20
76.487835
 30
0.0
 10
128.006210
 20
76.508367
 30
0.0
 10
134.295650
 20
78.551929
 30
0.0
 10
134.471082
 20
78.581988
 30
0.0
 10
134.644215
 20
78.623263
 30
0.0
 10
134.695520
 20
78.620432
 30
0.0
 10
134.746161
 20
78.629110
 30
0.0
 10
134.922887
 20
78.607944
 30
0.0
 10
135.100602
 20
78.598181
 30
0.0
 10
135.148976
 20
78.580850
 30
0.0
 10
135.199993
 20
78.574739
 30
0.0
 10
135.363357
 20
78.504092
 30
0.0
 10
135.530929
 20
78.444095
 30
0.0
 10
135.572362
 20
78.413711
 30
0.0
 10
135.619522
 20
78.393311
 30
0.0
 10
135.692780
 20
78.325401
 30
0.0
 10
135.899517
 20
78.173792
 30
0.0
 10
136.001982
 20
78.038759
 30
0.0
 10
136.070528
 20
77.975217
 30
0.0
 10
139.279670
 20
73.558207
 30
0.0
 10
143.375240
 20
74.888939
 30
0.0
 10
143.375240
 20
79.195274
 30
0.0
 10
138.182736
 20
80.882421
 30
0.0
 10
138.084647
 20
80.930851
 30
0.0
 10
137.980380
 20
80.963931
 30
0.0
 10
137.880799
 20
81.031498
 30
0.0
 10
137.772891
 20
81.084775
 30
0.0
 10
137.692672
 20
81.159141
 30
0.0
 10
137.602148
 20
81.220561
 30
0.0
 10
137.525940
 20
81.313708
 30
0.0
 10
137.437691
 20
81.395517
 30
0.0
 10
137.381985
 20
81.489658
 30
0.0
 10
137.312715
 20
81.574322
 30
0.0
 10
137.266209
 20
81.685313
 30
0.0
 10
137.204921
 20
81.788884
 30
0.0
 10
137.188993
 20
81.869616
 30
0.0
 10
137.136082
 20
81.995888
 30
0.0
 10
137.102096
 20
82.309740
 30
0.0
 10
137.085798
 20
82.392224
 30
0.0
 10
137.085798
 20
87.851946
 30
0.0
 10
131.893294
 20
89.539093
 30
0.0
 10
131.795205
 20
89.587522
 30
0.0
 10
131.690938
 20
89.620603
 30
0.0
 10
131.591357
 20
89.688170
 30
0.0
 10
131.483449
 20
89.741446
 30
0.0
 10
131.403230
 20
89.815813
 30
0.0
 10
131.312706
 20
89.877233
 30
0.0
 10
131.236498
 20
89.970380
 30
0.0
 10
131.148249
 20
90.052189
 30
0.0
 10
131.092543
 20
90.146330
 30
0.0
 10
131.023273
 20
90.230994
 30
0.0
 10
130.976767
 20
90.341984
 30
0.0
 10
130.915479
 20
90.445556
 30
0.0
 10
130.899551
 20
90.526288
 30
0.0
 10
130.846639
 20
90.652560
 30
0.0
 10
130.812654
 20
90.966412
 30
0.0
 10
130.796355
 20
91.048896
 30
0.0
 10
130.796355
 20
97.662003
 30
0.0
 10
130.800562
 20
97.690980
 30
0.0
 10
130.797414
 20
97.720086
 30
0.0
 10
130.833389
 20
97.916603
 30
0.0
 10
130.862152
 20
98.114318
 30
0.0
 10
130.874455
 20
98.140890
 30
0.0
 10
130.879720
 20
98.169693
 30
0.0
 10
130.970197
 20
98.347813
 30
0.0
 10
131.054099
 20
98.529137
 30
0.0
 10
131.073467
 20
98.551098
 30
0.0
 10
131.086722
 20
98.577212
 30
0.0
 10
131.224184
 20
98.722156
 30
0.0
 10
131.356290
 20
98.872074
 30
0.0
 10
131.377695
 20
98.884034
 30
0.0
 10
131.401243
 20
98.908878
 30
0.0
 10
131.797229
 20
99.137163
 30
0.0
 10
131.856491
 20
99.151292
 30
0.0
 10
131.893281
 20
99.171823
 30
0.0
 10
137.692156
 20
101.055993
 30
0.0
 10
140.972873
 20
105.571510
 30
0.0
 10
140.972873
 20
111.668809
 30
0.0
 10
140.977080
 20
111.697786
 30
0.0
 10
140.973932
 20
111.726893
 30
0.0
 10
141.009907
 20
111.923409
 30
0.0
 10
141.038670
 20
112.121124
 30
0.0
 10
141.050973
 20
112.147697
 30
0.0
 10
141.056238
 20
112.176499
 30
0.0
 10
141.146715
 20
112.354619
 30
0.0
 10
141.230617
 20
112.535944
 30
0.0
 10
141.249985
 20
112.557904
 30
0.0
 10
141.263240
 20
112.584018
 30
0.0
 10
141.400702
 20
112.728962
 30
0.0
 10
141.532808
 20
112.878881
 30
0.0
 10
141.554213
 20
112.890840
 30
0.0
 10
141.577761
 20
112.915684
 30
0.0
 10
141.973747
 20
113.143969
 30
0.0
 10
142.033009
 20
113.158098
 30
0.0
 10
142.069799
 20
113.178630
 30
0.0
 10
148.359238
 20
115.222192
 30
0.0
 10
148.534670
 20
115.252251
 30
0.0
 10
148.707803
 20
115.293526
 30
0.0
 10
148.759108
 20
115.290695
 30
0.0
 10
148.809750
 20
115.299374
 30
0.0
 10
148.986475
 20
115.278207
 30
0.0
 10
149.164191
 20
115.268444
 30
0.0
 10
149.212565
 20
115.251114
 30
0.0
 10
149.263582
 20
115.245002
 30
0.0
 10
149.426946
 20
115.174355
 30
0.0
 10
149.594517
 20
115.114358
 30
0.0
 10
149.635951
 20
115.083974
 30
0.0
 10
149.683110
 20
115.063574
 30
0.0
 10
149.756368
 20
114.995664
 30
0.0
 10
149.963105
 20
114.844055
 30
0.0
 10
150.065571
 20
114.709022
 30
0.0
 10
150.134116
 20
114.645480
 30
0.0
 10
153.343258
 20
110.228473
 30
0.0
 10
158.535764
 20
111.915620
 30
0.0
 10
158.711196
 20
111.945679
 30
0.0
 10
158.884329
 20
111.986954
 30
0.0
 10
158.935634
 20
111.984123
 30
0.0
 10
158.986276
 20
111.992802
 30
0.0
 10
159.163001
 20
111.971635
 30
0.0
 10
159.340717
 20
111.961872
 30
0.0
 10
159.389090
 20
111.944542
 30
0.0
 10
159.440107
 20
111.938430
 30
0.0
 10
159.603472
 20
111.867783
 30
0.0
 10
159.771043
 20
111.807786
 30
0.0
 10
159.812477
 20
111.777402
 30
0.0
 10
159.859636
 20
111.757002
 30
0.0
 10
159.932894
 20
111.689092
 30
0.0
 10
160.139631
 20
111.537483
 30
0.0
 10
160.242097
 20
111.402450
 30
0.0
 10
160.310642
 20
111.338908
 30
0.0
 10
163.519784
 20
106.921901
 30
0.0
 10
167.615354
 20
108.252633
 30
0.0
 10
167.615354
 20
112.558965
 30
0.0
 10
162.422851
 20
114.246112
 30
0.0
 10
162.324762
 20
114.294542
 30
0.0
 10
162.220495
 20
114.327622
 30
0.0
 10
162.120913
 20
114.395189
 30
0.0
 10
162.013006
 20
114.448466
 30
0.0
 10
161.932787
 20
114.522832
 30
0.0
 10
161.842262
 20
114.584252
 30
0.0
 10
161.766054
 20
114.677399
 30
0.0
 10
161.677805
 20
114.759208
 30
0.0
 10
161.622100
 20
114.853350
 30
0.0
 10
161.552829
 20
114.938014
 30
0.0
 10
161.506323
 20
115.049004
 30
0.0
 10
161.445035
 20
115.152575
 30
0.0
 10
161.429107
 20
115.233307
 30
0.0
 10
161.376196
 20
115.359580
 30
0.0
 10
161.342210
 20
115.673431
 30
0.0
 10
161.325938
 20
115.755915
 30
0.0
 10
161.325938
 20
122.369024
 30
0.0
 10
161.330145
 20
122.398002
 30
0.0
 10
161.326997
 20
122.427108
 30
0.0
 10
161.362972
 20
122.623625
 30
0.0
 10
161.391735
 20
122.821340
 30
0.0
 10
161.404038
 20
122.847912
 30
0.0
 10
161.409303
 20
122.876715
 30
0.0
 10
161.499780
 20
123.054835
 30
0.0
 10
161.583682
 20
123.236159
 30
0.0
 10
161.603050
 20
123.258120
 30
0.0
 10
161.616305
 20
123.284234
 30
0.0
 10
161.753767
 20
123.429178
 30
0.0
 10
161.885873
 20
123.579096
 30
0.0
 10
161.907278
 20
123.591055
 30
0.0
 10
161.930826
 20
123.615900
 30
0.0
 10
162.326812
 20
123.844185
 30
0.0
 10
162.386073
 20
123.858314
 30
0.0
 10
162.422864
 20
123.878845
 30
0.0
 10
167.615367
 20
125.565993
 30
0.0
 10
167.615367
 20
129.872327
 30
0.0
 10
163.519797
 20
131.203060
 30
0.0
 10
160.310655
 20
126.786050
 30
0.0
 10
160.178795
 20
126.650819
 30
0.0
 10
160.053906
 20
126.509089
 30
0.0
 10
160.019720
 20
126.487685
 30
0.0
 10
159.991557
 20
126.458803
 30
0.0
 10
159.826624
 20
126.366744
 30
0.0
 10
159.666538
 20
126.266477
 30
0.0
 10
159.627663
 20
126.255682
 30
0.0
 10
159.592444
 20
126.236024
 30
0.0
 10
159.408119
 20
126.194772
 30
0.0
 10
159.226097
 20
126.144274
 30
0.0
 10
159.185769
 20
126.145068
 30
0.0
 10
159.146399
 20
126.136257
 30
0.0
 10
159.052495
 20
126.147502
 30
0.0
 10
158.769098
 20
126.152688
 30
0.0
 10
158.623431
 20
126.198903
 30
0.0
 10
158.535777
 20
126.209406
 30
0.0
 10
153.343271
 20
127.896554
 30
0.0
 10
150.134129
 20
123.479547
 30
0.0
 10
150.002269
 20
123.344316
 30
0.0
 10
149.877380
 20
123.202586
 30
0.0
 10
149.843194
 20
123.181181
 30
0.0
 10
149.815031
 20
123.152300
 30
0.0
 10
149.650098
 20
123.060240
 30
0.0
 10
149.490012
 20
122.959974
 30
0.0
 10
149.451137
 20
122.949179
 30
0.0
 10
149.415918
 20
122.929520
 30
0.0
 10
149.231593
 20
122.888269
 30
0.0
 10
149.049571
 20
122.837771
 30
0.0
 10
149.009243
 20
122.838565
 30
0.0
 10
148.969873
 20
122.829754
 30
0.0
 10
148.875970
 20
122.840999
 30
0.0
 10
148.592572
 20
122.846185
 30
0.0
 10
148.446905
 20
122.892399
 30
0.0
 10
148.359252
 20
122.902903
 30
0.0
 10
142.069812
 20
124.946466
 30
0.0
 10
141.971723
 20
124.994895
 30
0.0
 10
141.867456
 20
125.027976
 30
0.0
 10
141.767875
 20
125.095542
 30
0.0
 10
141.659967
 20
125.148819
 30
0.0
 10
141.579748
 20
125.223185
 30
0.0
 10
141.489224
 20
125.284606
 30
0.0
 10
141.413016
 20
125.377752
 30
0.0
 10
141.324767
 20
125.459561
 30
0.0
 10
141.269061
 20
125.553703
 30
0.0
 10
141.199791
 20
125.638367
 30
0.0
 10
141.153285
 20
125.749357
 30
0.0
 10
141.091997
 20
125.852928
 30
0.0
 10
141.076069
 20
125.933660
 30
0.0
 10
141.023157
 20
126.059933
 30
0.0
 10
140.989172
 20
126.373784
 30
0.0
 10
140.972873
 20
126.456268
 30
0.0
 10
140.972873
 20
132.553570
 30
0.0
 10
137.692156
 20
137.069084
 30
0.0
 10
131.893281
 20
138.953253
 30
0.0
 10
131.795192
 20
139.001683
 30
0.0
 10
131.690925
 20
139.034763
 30
0.0
 10
131.591344
 20
139.102330
 30
0.0
 10
131.483436
 20
139.155607
 30
0.0
 10
131.403217
 20
139.229973
 30
0.0
 10
131.312692
 20
139.291393
 30
0.0
 10
131.236485
 20
139.384540
 30
0.0
 10
131.148235
 20
139.466349
 30
0.0
 10
131.092530
 20
139.560491
 30
0.0
 10
131.023259
 20
139.645155
 30
0.0
 10
130.976754
 20
139.756145
 30
0.0
 10
130.915466
 20
139.859716
 30
0.0
 10
130.899538
 20
139.940448
 30
0.0
 10
130.846626
 20
140.066720
 30
0.0
 10
130.812641
 20
140.380572
 30
0.0
 10
130.796342
 20
140.463056
 30
0.0
 10
130.796342
 20
147.076165
 30
0.0
 10
130.800549
 20
147.105142
 30
0.0
 10
130.797401
 20
147.134249
 30
0.0
 10
130.833376
 20
147.330766
 30
0.0
 10
130.862139
 20
147.528481
 30
0.0
 10
130.874442
 20
147.555053
 30
0.0
 10
130.879707
 20
147.583856
 30
0.0
 10
130.970184
 20
147.761976
 30
0.0
 10
131.054086
 20
147.943300
 30
0.0
 10
131.073454
 20
147.965261
 30
0.0
 10
131.086709
 20
147.991375
 30
0.0
 10
131.224171
 20
148.136319
 30
0.0
 10
131.356277
 20
148.286237
 30
0.0
 10
131.377682
 20
148.298196
 30
0.0
 10
131.401230
 20
148.323041
 30
0.0
 10
131.797216
 20
148.551326
 30
0.0
 10
131.856477
 20
148.565455
 30
0.0
 10
131.893268
 20
148.585986
 30
0.0
 10
137.085771
 20
150.273134
 30
0.0
 10
137.085771
 20
155.732853
 30
0.0
 10
137.089978
 20
155.761830
 30
0.0
 10
137.086829
 20
155.790937
 30
0.0
 10
137.122805
 20
155.987454
 30
0.0
 10
137.151568
 20
156.185169
 30
0.0
 10
137.163871
 20
156.211741
 30
0.0
 10
137.169136
 20
156.240544
 30
0.0
 10
137.259613
 20
156.418664
 30
0.0
 10
137.343515
 20
156.599988
 30
0.0
 10
137.362882
 20
156.621948
 30
0.0
 10
137.376138
 20
156.648063
 30
0.0
 10
137.513600
 20
156.793007
 30
0.0
 10
137.645706
 20
156.942925
 30
0.0
 10
137.667111
 20
156.954884
 30
0.0
 10
137.690659
 20
156.979728
 30
0.0
 10
138.086645
 20
157.208014
 30
0.0
 10
138.145906
 20
157.222142
 30
0.0
 10
138.182697
 20
157.242674
 30
0.0
 10
143.375200
 20
158.929821
 30
0.0
 10
143.375200
 20
163.236156
 30
0.0
 10
139.279630
 20
164.566888
 30
0.0
 10
136.070488
 20
160.149881
 30
0.0
 10
135.938628
 20
160.014650
 30
0.0
 10
135.813739
 20
159.872921
 30
0.0
 10
135.779552
 20
159.851516
 30
0.0
 10
135.751390
 20
159.822634
 30
0.0
 10
135.586457
 20
159.730575
 30
0.0
 10
135.426371
 20
159.630308
 30
0.0
 10
135.387495
 20
159.619513
 30
0.0
 10
135.352277
 20
159.599855
 30
0.0
 10
135.167952
 20
159.558604
 30
0.0
 10
134.985929
 20
159.508105
 30
0.0
 10
134.945602
 20
159.508899
 30
0.0
 10
134.906232
 20
159.500088
 30
0.0
 10
134.812328
 20
159.511333
 30
0.0
 10
134.528930
 20
159.516519
 30
0.0
 10
134.383264
 20
159.562734
 30
0.0
 10
134.295610
 20
159.573238
 30
0.0
 10
128.006171
 20
161.616800
 30
0.0
 10
127.908082
 20
161.665229
 30
0.0
 10
127.803815
 20
161.698310
 30
0.0
 10
127.704234
 20
161.765877
 30
0.0
 10
127.596326
 20
161.819153
 30
0.0
 10
127.516107
 20
161.893520
 30
0.0
 10
127.425582
 20
161.954940
 30
0.0
 10
127.349374
 20
162.048087
 30
0.0
 10
127.261125
 20
162.129896
 30
0.0
 10
127.205420
 20
162.224037
 30
0.0
 10
127.136149
 20
162.308701
 30
0.0
 10
127.089643
 20
162.419691
 30
0.0
 10
127.028355
 20
162.523263
 30
0.0
 10
127.012427
 20
162.603995
 30
0.0
 10
126.959516
 20
162.730267
 30
0.0
 10
126.925530
 20
163.044119
 30
0.0
 10
126.909232
 20
163.126603
 30
0.0
 10
126.909232
 20
168.586322
 30
0.0
 10
122.813662
 20
169.917054
 30
0.0
  0
LWPOLYLINE
  5
102
100
AcDbEntity
  8
Layer_4
 62
7
100
AcDbPolyline
 90
5
 70
1
 10
103.816486
 20
87.742342
 30
0.0
 10
106.347686
 20
84.258441
 30
0.0
 10
110.443253
 20
85.589173
 30
0.0
 10
110.443253
 20
89.895508
 30
0.0
 10
106.347686
 20
91.226240
 30
0.0
  0
LWPOLYLINE
  5
103
100
AcDbEntity
  8
Layer_4
 62
7
100
AcDbPolyline
 90
5
 70
1
 10
140.635506
 20
99.705565
 30
0.0
 10
143.166706
 20
96.221666
 30
0.0
 10
147.262276
 20
97.552399
 30
0.0
 10
147.262276
 20
101.858733
 30
0.0
 10
143.166706
 20
103.189466
 30
0.0
  0
LWPOLYLINE
  5
104
100
AcDbEntity
  8
Layer_4
 62
7
100
AcDbPolyline
 90
5
 70
1
 10
81.061078
 20
119.062471
 30
0.0
 10
83.592278
 20
115.578570
 30
0.0
 10
87.687848
 20
116.909302
 30
0.0
 10
87.687848
 20
121.215637
 30
0.0
 10
83.592278
 20
122.546369
 30
0.0
  0
LWPOLYLINE
  5
105
100
AcDbEntity
  8
Layer_4
 62
7
100
AcDbPolyline
 90
5
 70
1
 10
140.635506
 20
138.419374
 30
0.0
 10
143.166706
 20
134.935476
 30
0.0
 10
147.262276
 20
136.266208
 30
0.0
 10
147.262276
 20
140.572540
 30
0.0
 10
143.166706
 20
141.903273
 30
0.0
  0
LWPOLYLINE
  5
106
100
AcDbEntity
  8
Layer_4
 62
7
100
AcDbPolyline
 90
5
 70
1
 10
103.816486
 20
150.382600
 30
0.0
 10
106.347686
 20
146.898699
 30
0.0
 10
110.443253
 20
148.229431
 30
0.0
 10
110.443253
 20
152.535766
 30
0.0
 10
106.347686
 20
153.866498
 30
0.0
  0
ENDSEC
  0
SECTION
  2
OBJECTS
  0
DICTIONARY
  5
C
330
0
100
AcDbDictionary
  3
ACAD_GROUP
350
D
  3
ACAD_MLINESTYLE
350
17
  0
DICTIONARY
  5
D
330
C
100
AcDbDictionary
  0
DICTIONARY
  5
1A
330
C
100
AcDbDictionary
  0
DICTIONARY
  5
17
330
C
100
AcDbDictionary
  3
STANDARD
350
18
  0
DICTIONARY
  5
19
330
C
100
AcDbDictionary
  0
ENDSEC
  0
EOF
