  0
SECTION
  2
HEADER
  9
$ACADVER
  1
AC1014
  9
$HANDSEED
  5
FFFF
  9
$INSUNITS
 70
     4
  9
$MEASUREMENT
 70
     1
  0
ENDSEC
  0
SECTION
  2
TABLES
  0
TABLE
  2
VPORT
  5
8
330
0
100
AcDbSymbolTable
 70
     4
  0
VPORT
  5
2E
330
8
100
AcDbSymbolTableRecord
100
AcDbViewportTableRecord
  2
*ACTIVE
 70
     0
 10
0.0
 20
0.0
 11
1.0
 21
1.0
 12
210.0
 22
148.5
 13
0.0
 23
0.0
 14
10.0
 24
10.0
 15
10.0
 25
10.0
 16
0.0
 26
0.0
 36
1.0
 17
0.0
 27
0.0
 37
0.0
 40
341.0
 41
1.24
 42
50.0
 43
0.0
 44
0.0
 50
0.0
 51
0.0
 71
     0
 72
   100
 73
     1
 74
     3
 75
     0
 76
     0
 77
     0
 78
     0
  0
ENDTAB
  0
TABLE
  2
LTYPE
  5
5
330
0
100
AcDbSymbolTable
 70
     1
  0
LTYPE
  5
14
330
5
100
AcDbSymbolTableRecord
100
AcDbLinetypeTableRecord
  2
BYBLOCK
 70
     0
  3

 72
    65
 73
     0
 40
0.0
  0
LTYPE
  5
15
330
5
100
AcDbSymbolTableRecord
100
AcDbLinetypeTableRecord
  2
BYLAYER
 70
     0
  3

 72
    65
 73
     0
 40
0.0
  0
LTYPE
  5
16
330
5
100
AcDbSymbolTableRecord
100
AcDbLinetypeTableRecord
  2
CONTINUOUS
 70
     0
  3
Solid line
 72
    65
 73
     0
 40
0.0
  0
ENDTAB
  0
TABLE
  2
LAYER
  5
2
100
AcDbSymbolTable
 70
5
  0
LAYER
  5
50
100
AcDbSymbolTableRecord
100
AcDbLayerTableRecord
  2
0
 70
0
  6
CONTINUOUS
  0
LAYER
  5
51
100
AcDbSymbolTableRecord
100
AcDbLayerTableRecord
  2
Layer_1
 70
0
  6
CONTINUOUS
  0
LAYER
  5
52
100
AcDbSymbolTableRecord
100
AcDbLayerTableRecord
  2
Layer_2
 70
0
  6
CONTINUOUS
  0
LAYER
  5
53
100
AcDbSymbolTableRecord
100
AcDbLayerTableRecord
  2
Layer_3
 70
0
  6
CONTINUOUS
  0
LAYER
  5
54
100
AcDbSymbolTableRecord
100
AcDbLayerTableRecord
  2
Layer_4
 70
0
  6
CONTINUOUS
  0
ENDTAB
  0
TABLE
  2
STYLE
  5
3
330
0
100
AcDbSymbolTable
 70
     1
  0
STYLE
  5
11
330
3
100
AcDbSymbolTableRecord
100
AcDbTextStyleTableRecord
  2
STANDARD
 70
     0
 40
0.0
 41
1.0
 50
0.0
 71
     0
 42
2.5
  3
txt
  4

  0
ENDTAB
  0
TABLE
  2
VIEW
  5
6
330
0
100
AcDbSymbolTable
 70
     0
  0
ENDTAB
  0
TABLE
  2
UCS
  5
7
330
0
100
AcDbSymbolTable
 70
     0
  0
ENDTAB
  0
TABLE
  2
APPID
  5
9
330
0
100
AcDbSymbolTable
 70
     2
  0
APPID
  5
12
330
9
100
AcDbSymbolTableRecord
100
AcDbRegAppTableRecord
  2
ACAD
 70
     0
  0
ENDTAB
  0
TABLE
  2
DIMSTYLE
  5
A
330
0
100
AcDbSymbolTable
 70
     1
  0
DIMSTYLE
105
27
330
A
100
AcDbSymbolTableRecord
100
AcDbDimStyleTableRecord
  2
ISO-25
 70
     0
  3

  4

  5

  6

  7

 40
1.0
 41
2.5
 42
0.625
 43
3.75
 44
1.25
 45
0.0
 46
0.0
 47
0.0
 48
0.0
140
2.5
141
2.5
142
0.0
143
0.03937007874016
144
1.0
145
0.0
146
1.0
147
0.625
 71
     0
 72
     0
 73
     0
 74
     0
 75
     0
 76
     0
 77
     1
 78
     8
170
     0
171
     3
172
     1
173
     0
174
     0
175
     0
176
     0
177
     0
178
     0
270
     2
271
     2
272
     2
273
     2
274
     3
340
11
275
     0
280
     0
281
     0
282
     0
283
     0
284
     8
285
     0
286
     0
287
     3
288
     0
  0
ENDTAB
  0
TABLE
  2
BLOCK_RECORD
  5
1
330
0
100
AcDbSymbolTable
 70
     1
  0
BLOCK_RECORD
  5
1F
330
1
100
AcDbSymbolTableRecord
100
AcDbBlockTableRecord
  2
*MODEL_SPACE
  0
BLOCK_RECORD
  5
1B
330
1
100
AcDbSymbolTableRecord
100
AcDbBlockTableRecord
  2
*PAPER_SPACE
  0
ENDTAB
  0
ENDSEC
  0
SECTION
  2
BLOCKS
  0
BLOCK
  5
20
330
1F
100
AcDbEntity
  8
0
100
AcDbBlockBegin
  2
*MODEL_SPACE
 70
     0
 10
0.0
 20
0.0
 30
0.0
  3
*MODEL_SPACE
  1

  0
ENDBLK
  5
21
330
1F
100
AcDbEntity
  8
0
100
AcDbBlockEnd
  0
BLOCK
  5
1C
330
1B
100
AcDbEntity
 67
     1
  8
0
100
AcDbBlockBegin
  2
*PAPER_SPACE
  1

  0
ENDBLK
  5
1D
330
1B
100
AcDbEntity
 67
     1
  8
0
100
AcDbBlockEnd
  0
ENDSEC
  0
SECTION
  2
ENTITIES
  0
LWPOLYLINE
  5
100
100
AcDbEntity
  8
Layer_3
 62
7
100
AcDbPolyline
 90
287
 70
1
 10
117.086637
 20
173.485881
 30
0.0
 10
117.474458
 20
173.464582
 30
0.0
 10
117.580018
 20
173.426787
 30
0.0
 10
117.650633
 20
173.418320
 30
0.0
 10
127.612521
 20
170.181505
 30
0.0
 10
127.736507
 20
170.120289
 30
0.0
 10
127.866672
 20
170.073685
 30
0.0
 10
127.940385
 20
170.019628
 30
0.0
 10
128.022366
 20
169.979152
 30
0.0
 10
128.123773
 20
169.885143
 30
0.0
 10
128.235260
 20
169.803387
 30
0.0
 10
128.290521
 20
169.730563
 30
0.0
 10
128.357567
 20
169.668410
 30
0.0
 10
128.427980
 20
169.549416
 30
0.0
 10
128.511559
 20
169.439272
 30
0.0
 10
128.525767
 20
169.384157
 30
0.0
 10
128.590334
 20
169.275043
 30
0.0
 10
128.709454
 20
168.671703
 30
0.0
 10
128.709454
 20
159.350541
 30
0.0
 10
136.477470
 20
156.826559
 30
0.0
 10
141.956311
 20
164.367538
 30
0.0
 10
142.108285
 20
164.523396
 30
0.0
 10
142.258023
 20
164.681284
 30
0.0
 10
142.267654
 20
164.686840
 30
0.0
 10
142.275407
 20
164.694804
 30
0.0
 10
142.465494
 20
164.800902
 30
0.0
 10
142.654007
 20
164.909579
 30
0.0
 10
142.664828
 20
164.912225
 30
0.0
 10
142.674538
 20
164.917649
 30
0.0
 10
142.886906
 20
164.965176
 30
0.0
 10
143.098639
 20
165.015653
 30
0.0
 10
143.109725
 20
165.015124
 30
0.0
 10
143.120573
 20
165.017506
 30
0.0
 10
143.167198
 20
165.011923
 30
0.0
 10
143.555019
 20
164.990597
 30
0.0
 10
143.660580
 20
164.952802
 30
0.0
 10
143.731194
 20
164.944335
 30
0.0
 10
153.693082
 20
161.707523
 30
0.0
 10
153.817069
 20
161.646306
 30
0.0
 10
153.947233
 20
161.599703
 30
0.0
 10
154.020946
 20
161.545646
 30
0.0
 10
154.102927
 20
161.505170
 30
0.0
 10
154.204334
 20
161.411161
 30
0.0
 10
154.315821
 20
161.329404
 30
0.0
 10
154.371082
 20
161.256580
 30
0.0
 10
154.438128
 20
161.194427
 30
0.0
 10
154.508541
 20
161.075433
 30
0.0
 10
154.592121
 20
160.965290
 30
0.0
 10
154.606329
 20
160.910175
 30
0.0
 10
154.670895
 20
160.801061
 30
0.0
 10
154.790016
 20
160.197721
 30
0.0
 10
154.790016
 20
150.238979
 30
0.0
 10
160.340429
 20
142.599495
 30
0.0
 10
169.811750
 20
139.522073
 30
0.0
 10
169.935737
 20
139.460856
 30
0.0
 10
170.065901
 20
139.414253
 30
0.0
 10
170.139614
 20
139.360196
 30
0.0
 10
170.221595
 20
139.319720
 30
0.0
 10
170.323002
 20
139.225711
 30
0.0
 10
170.434489
 20
139.143954
 30
0.0
 10
170.489750
 20
139.071130
 30
0.0
 10
170.556796
 20
139.008977
 30
0.0
 10
170.627209
 20
138.889983
 30
0.0
 10
170.710789
 20
138.779840
 30
0.0
 10
170.724997
 20
138.724725
 30
0.0
 10
170.789563
 20
138.615610
 30
0.0
 10
170.908684
 20
138.012271
 30
0.0
 10
170.908684
 20
127.537723
 30
0.0
 10
170.842882
 20
127.085407
 30
0.0
 10
170.650935
 20
126.670588
 30
0.0
 10
170.348749
 20
126.327654
 30
0.0
 10
169.961380
 20
126.085034
 30
0.0
 10
169.867318
 20
126.058946
 30
0.0
 10
169.811748
 20
126.027929
 30
0.0
 10
160.946798
 20
123.147532
 30
0.0
 10
160.946798
 20
114.979757
 30
0.0
 10
169.811748
 20
112.099360
 30
0.0
 10
169.935734
 20
112.038143
 30
0.0
 10
170.065898
 20
111.991540
 30
0.0
 10
170.139611
 20
111.937482
 30
0.0
 10
170.221592
 20
111.897007
 30
0.0
 10
170.322999
 20
111.802997
 30
0.0
 10
170.434487
 20
111.721241
 30
0.0
 10
170.489748
 20
111.648417
 30
0.0
 10
170.556793
 20
111.586264
 30
0.0
 10
170.627207
 20
111.467270
 30
0.0
 10
170.710786
 20
111.357127
 30
0.0
 10
170.724994
 20
111.302012
 30
0.0
 10
170.789560
 20
111.192897
 30
0.0
 10
170.908681
 20
110.589557
 30
0.0
 10
170.908681
 20
100.115008
 30
0.0
 10
170.842879
 20
99.662692
 30
0.0
 10
170.650932
 20
99.247873
 30
0.0
 10
170.348746
 20
98.904938
 30
0.0
 10
169.961377
 20
98.662318
 30
0.0
 10
169.867315
 20
98.636230
 30
0.0
 10
169.811745
 20
98.605213
 30
0.0
 10
160.340424
 20
95.527794
 30
0.0
 10
154.790010
 20
87.888307
 30
0.0
 10
154.790010
 20
77.929568
 30
0.0
 10
154.724208
 20
77.477252
 30
0.0
 10
154.532261
 20
77.062433
 30
0.0
 10
154.230075
 20
76.719499
 30
0.0
 10
153.842707
 20
76.476879
 30
0.0
 10
153.748645
 20
76.450791
 30
0.0
 10
153.693074
 20
76.419773
 30
0.0
 10
143.731186
 20
73.182959
 30
0.0
 10
143.584139
 20
73.157771
 30
0.0
 10
143.440378
 20
73.117887
 30
0.0
 10
143.359957
 20
73.119475
 30
0.0
 10
143.280675
 20
73.105902
 30
0.0
 10
143.132543
 20
73.123655
 30
0.0
 10
142.983379
 20
73.126380
 30
0.0
 10
142.906708
 20
73.150696
 30
0.0
 10
142.826843
 20
73.160274
 30
0.0
 10
142.689916
 20
73.219487
 30
0.0
 10
142.547702
 20
73.264607
 30
0.0
 10
142.481136
 20
73.309774
 30
0.0
 10
142.407315
 20
73.341696
 30
0.0
 10
142.334229
 20
73.409448
 30
0.0
 10
142.169470
 20
73.521237
 30
0.0
 10
142.030773
 20
73.690758
 30
0.0
 10
141.956308
 20
73.759790
 30
0.0
 10
136.477468
 20
81.300770
 30
0.0
 10
128.709452
 20
78.776788
 30
0.0
 10
128.709452
 20
69.455625
 30
0.0
 10
128.643650
 20
69.003310
 30
0.0
 10
128.451703
 20
68.588490
 30
0.0
 10
128.149517
 20
68.245556
 30
0.0
 10
127.762148
 20
68.002936
 30
0.0
 10
127.668086
 20
67.976848
 30
0.0
 10
127.612516
 20
67.945831
 30
0.0
 10
117.650628
 20
64.709019
 30
0.0
 10
117.503580
 20
64.683830
 30
0.0
 10
117.359819
 20
64.643947
 30
0.0
 10
117.279399
 20
64.645535
 30
0.0
 10
117.200116
 20
64.631962
 30
0.0
 10
117.051984
 20
64.649715
 30
0.0
 10
116.902820
 20
64.652440
 30
0.0
 10
116.826149
 20
64.676756
 30
0.0
 10
116.746285
 20
64.686333
 30
0.0
 10
116.609357
 20
64.745547
 30
0.0
 10
116.467144
 20
64.790667
 30
0.0
 10
116.400577
 20
64.835834
 30
0.0
 10
116.326756
 20
64.867756
 30
0.0
 10
116.253670
 20
64.935507
 30
0.0
 10
116.088911
 20
65.047297
 30
0.0
 10
115.950214
 20
65.216818
 30
0.0
 10
115.875750
 20
65.285850
 30
0.0
 10
110.022151
 20
73.342635
 30
0.0
 10
101.041391
 20
76.260664
 30
0.0
 10
91.570069
 20
73.183242
 30
0.0
 10
91.423022
 20
73.158054
 30
0.0
 10
91.279260
 20
73.118170
 30
0.0
 10
91.198840
 20
73.119758
 30
0.0
 10
91.119558
 20
73.106185
 30
0.0
 10
90.971426
 20
73.123938
 30
0.0
 10
90.822261
 20
73.126663
 30
0.0
 10
90.745590
 20
73.150979
 30
0.0
 10
90.665726
 20
73.160557
 30
0.0
 10
90.528799
 20
73.219770
 30
0.0
 10
90.386585
 20
73.264890
 30
0.0
 10
90.320019
 20
73.310057
 30
0.0
 10
90.246197
 20
73.341979
 30
0.0
 10
90.173112
 20
73.409731
 30
0.0
 10
90.008353
 20
73.521520
 30
0.0
 10
89.869656
 20
73.691041
 30
0.0
 10
89.795191
 20
73.760073
 30
0.0
 10
83.638406
 20
82.234162
 30
0.0
 10
83.606106
 20
82.295624
 30
0.0
 10
83.562134
 20
82.349369
 30
0.0
 10
83.500256
 20
82.497044
 30
0.0
 10
83.425776
 20
82.638770
 30
0.0
 10
83.412335
 20
82.706890
 30
0.0
 10
83.385499
 20
82.770935
 30
0.0
 10
83.368248
 20
82.930114
 30
0.0
 10
83.337236
 20
83.087189
 30
0.0
 10
83.343745
 20
83.156322
 30
0.0
 10
83.336283
 20
83.225354
 30
0.0
 10
83.365112
 20
83.382837
 30
0.0
 10
83.380141
 20
83.542248
 30
0.0
 10
83.403556
 20
83.592860
 30
0.0
 10
83.418585
 20
83.674961
 30
0.0
 10
83.625582
 20
84.082477
 30
0.0
 10
83.634445
 20
84.091817
 30
0.0
 10
83.638414
 20
84.100390
 30
0.0
 10
89.117255
 20
91.641369
 30
0.0
 10
84.316358
 20
98.249237
 30
0.0
 10
75.451404
 20
95.368840
 30
0.0
 10
75.000892
 20
95.291648
 30
0.0
 10
74.547061
 20
95.346017
 30
0.0
 10
74.127532
 20
95.527439
 30
0.0
 10
73.676526
 20
95.945534
 30
0.0
 10
67.519741
 20
104.419620
 30
0.0
 10
67.307111
 20
104.824226
 30
0.0
 10
67.218576
 20
105.272647
 30
0.0
 10
67.261475
 20
105.727706
 30
0.0
 10
67.519741
 20
106.285837
 30
0.0
 10
73.373340
 20
114.342624
 30
0.0
 10
73.373340
 20
123.785556
 30
0.0
 10
67.519741
 20
131.842343
 30
0.0
 10
67.487440
 20
131.903806
 30
0.0
 10
67.443469
 20
131.957551
 30
0.0
 10
67.381591
 20
132.105225
 30
0.0
 10
67.307111
 20
132.246952
 30
0.0
 10
67.293670
 20
132.315072
 30
0.0
 10
67.266833
 20
132.379117
 30
0.0
 10
67.249609
 20
132.538295
 30
0.0
 10
67.218597
 20
132.695371
 30
0.0
 10
67.225106
 20
132.764504
 30
0.0
 10
67.217618
 20
132.833536
 30
0.0
 10
67.246447
 20
132.991019
 30
0.0
 10
67.261475
 20
133.150430
 30
0.0
 10
67.284891
 20
133.201042
 30
0.0
 10
67.299919
 20
133.283142
 30
0.0
 10
67.506916
 20
133.690659
 30
0.0
 10
67.515780
 20
133.699999
 30
0.0
 10
67.519748
 20
133.708571
 30
0.0
 10
73.676534
 20
142.182659
 30
0.0
 10
73.828508
 20
142.338518
 30
0.0
 10
73.978246
 20
142.496405
 30
0.0
 10
73.987877
 20
142.501961
 30
0.0
 10
73.995656
 20
142.509925
 30
0.0
 10
74.185743
 20
142.616023
 30
0.0
 10
74.374256
 20
142.724701
 30
0.0
 10
74.385077
 20
142.727347
 30
0.0
 10
74.394788
 20
142.732771
 30
0.0
 10
74.607155
 20
142.780298
 30
0.0
 10
74.818888
 20
142.830775
 30
0.0
 10
74.829974
 20
142.830246
 30
0.0
 10
74.840822
 20
142.832627
 30
0.0
 10
74.887447
 20
142.827044
 30
0.0
 10
75.275268
 20
142.805719
 30
0.0
 10
75.380829
 20
142.767923
 30
0.0
 10
75.451443
 20
142.759456
 30
0.0
 10
84.316398
 20
139.879057
 30
0.0
 10
89.117294
 20
146.486928
 30
0.0
 10
83.638454
 20
154.027905
 30
0.0
 10
83.606153
 20
154.089370
 30
0.0
 10
83.562182
 20
154.143112
 30
0.0
 10
83.500307
 20
154.290779
 30
0.0
 10
83.425824
 20
154.432511
 30
0.0
 10
83.412383
 20
154.500636
 30
0.0
 10
83.385549
 20
154.564678
 30
0.0
 10
83.368298
 20
154.723854
 30
0.0
 10
83.337286
 20
154.880932
 30
0.0
 10
83.343795
 20
154.950065
 30
0.0
 10
83.336334
 20
155.019097
 30
0.0
 10
83.365163
 20
155.176580
 30
0.0
 10
83.380191
 20
155.335991
 30
0.0
 10
83.403607
 20
155.386603
 30
0.0
 10
83.418635
 20
155.468704
 30
0.0
 10
83.625632
 20
155.876220
 30
0.0
 10
83.634495
 20
155.885560
 30
0.0
 10
83.638464
 20
155.894132
 30
0.0
 10
89.795249
 20
164.368221
 30
0.0
 10
89.947223
 20
164.524079
 30
0.0
 10
90.096962
 20
164.681966
 30
0.0
 10
90.106593
 20
164.687523
 30
0.0
 10
90.114345
 20
164.695486
 30
0.0
 10
90.304432
 20
164.801584
 30
0.0
 10
90.492945
 20
164.910262
 30
0.0
 10
90.503767
 20
164.912908
 30
0.0
 10
90.513477
 20
164.918332
 30
0.0
 10
90.725845
 20
164.965859
 30
0.0
 10
90.937577
 20
165.016336
 30
0.0
 10
90.948663
 20
165.015807
 30
0.0
 10
90.959511
 20
165.018188
 30
0.0
 10
91.006136
 20
165.012605
 30
0.0
 10
91.393957
 20
164.991280
 30
0.0
 10
91.499518
 20
164.953484
 30
0.0
 10
91.570133
 20
164.945018
 30
0.0
 10
101.041454
 20
161.867599
 30
0.0
 10
110.022214
 20
164.785625
 30
0.0
 10
115.875813
 20
172.842412
 30
0.0
 10
116.027787
 20
172.998270
 30
0.0
 10
116.177526
 20
173.156158
 30
0.0
 10
116.187157
 20
173.161714
 30
0.0
 10
116.194909
 20
173.169678
 30
0.0
 10
116.384996
 20
173.275776
 30
0.0
 10
116.573509
 20
173.384453
 30
0.0
 10
116.584330
 20
173.387099
 30
0.0
 10
116.594041
 20
173.392523
 30
0.0
 10
116.806409
 20
173.440050
 30
0.0
 10
117.018141
 20
173.490528
 30
0.0
 10
117.029227
 20
173.489998
 30
0.0
 10
117.040075
 20
173.492380
 30
0.0
  0
LWPOLYLINE
  5
101
100
AcDbEntity
  8
Layer_3
 62
7
100
AcDbPolyline
 90
5
 70
1
 10
112.965542
 20
74.692629
 30
0.0
 10
117.766439
 20
68.084761
 30
0.0
 10
125.534457
 20
70.608743
 30
0.0
 10
125.534457
 20
78.776515
 30
0.0
 10
117.766439
 20
81.300500
 30
0.0
  0
LWPOLYLINE
  5
102
100
AcDbEntity
  8
Layer_3
 62
7
100
AcDbPolyline
 90
5
 70
1
 10
86.884981
 20
83.166717
 30
0.0
 10
91.685880
 20
76.558846
 30
0.0
 10
99.453896
 20
79.082829
 30
0.0
 10
99.453896
 20
87.250606
 30
0.0
 10
91.685880
 20
89.774588
 30
0.0
  0
LWPOLYLINE
  5
103
100
AcDbEntity
  8
Layer_3
 62
7
100
AcDbPolyline
 90
5
 70
1
 10
102.628896
 20
87.250603
 30
0.0
 10
102.628896
 20
79.082831
 30
0.0
 10
110.396914
 20
76.558846
 30
0.0
 10
115.197813
 20
83.166717
 30
0.0
 10
110.396914
 20
89.774588
 30
0.0
  0
LWPOLYLINE
  5
104
100
AcDbEntity
  8
Layer_3
 62
7
100
AcDbPolyline
 90
5
 70
1
 10
139.046098
 20
83.166717
 30
0.0
 10
143.846997
 20
76.558846
 30
0.0
 10
151.615016
 20
79.082831
 30
0.0
 10
151.615016
 20
87.250603
 30
0.0
 10
143.846997
 20
89.774588
 30
0.0
  0
LWPOLYLINE
  5
105
100
AcDbEntity
  8
Layer_3
 62
7
100
AcDbPolyline
 90
104
 70
1
 10
118.141197
 20
153.609926
 30
0.0
 10
112.287598
 20
145.553142
 30
0.0
 10
112.155737
 20
145.417910
 30
0.0
 10
112.030849
 20
145.276181
 30
0.0
 10
111.996662
 20
145.254776
 30
0.0
 10
111.968500
 20
145.225894
 30
0.0
 10
111.803558
 20
145.133830
 30
0.0
 10
111.643480
 20
145.033569
 30
0.0
 10
111.604610
 20
145.022774
 30
0.0
 10
111.569384
 20
145.003115
 30
0.0
 10
111.385038
 20
144.961861
 30
0.0
 10
111.203039
 20
144.911368
 30
0.0
 10
111.162711
 20
144.912162
 30
0.0
 10
111.123341
 20
144.903351
 30
0.0
 10
111.029438
 20
144.914596
 30
0.0
 10
110.746040
 20
144.919782
 30
0.0
 10
110.600374
 20
144.965997
 30
0.0
 10
110.512720
 20
144.976501
 30
0.0
 10
101.041396
 20
148.053920
 30
0.0
 10
92.060638
 20
145.135894
 30
0.0
 10
86.510225
 20
137.496407
 30
0.0
 10
86.510225
 20
128.053476
 30
0.0
 10
92.363824
 20
119.996688
 30
0.0
 10
92.409611
 20
119.909561
 30
0.0
 10
92.469113
 20
119.831149
 30
0.0
 10
92.486734
 20
119.762810
 30
0.0
 10
92.576457
 20
119.592079
 30
0.0
 10
92.664992
 20
119.143661
 30
0.0
 10
92.659991
 20
119.090763
 30
0.0
 10
92.667003
 20
119.063580
 30
0.0
 10
92.639811
 20
118.876667
 30
0.0
 10
92.622084
 20
118.688601
 30
0.0
 10
92.608035
 20
118.658248
 30
0.0
 10
92.601209
 20
118.611264
 30
0.0
 10
92.409261
 20
118.196445
 30
0.0
 10
92.377866
 20
118.160816
 30
0.0
 10
92.363817
 20
118.130471
 30
0.0
 10
86.510217
 20
110.073686
 30
0.0
 10
86.510217
 20
100.630752
 30
0.0
 10
92.060630
 20
92.991268
 30
0.0
 10
101.041388
 20
90.073239
 30
0.0
 10
110.512712
 20
93.150661
 30
0.0
 10
110.688144
 20
93.180720
 30
0.0
 10
110.861277
 20
93.221995
 30
0.0
 10
110.912582
 20
93.219164
 30
0.0
 10
110.963223
 20
93.227843
 30
0.0
 10
111.139949
 20
93.206676
 30
0.0
 10
111.317664
 20
93.196913
 30
0.0
 10
111.366038
 20
93.179583
 30
0.0
 10
111.417055
 20
93.173471
 30
0.0
 10
111.580419
 20
93.102824
 30
0.0
 10
111.747991
 20
93.042827
 30
0.0
 10
111.789424
 20
93.012443
 30
0.0
 10
111.836584
 20
92.992043
 30
0.0
 10
111.909841
 20
92.924133
 30
0.0
 10
112.116579
 20
92.772524
 30
0.0
 10
112.219044
 20
92.637491
 30
0.0
 10
112.287590
 20
92.573949
 30
0.0
 10
118.141189
 20
84.517161
 30
0.0
 10
127.121949
 20
81.599132
 30
0.0
 10
136.102706
 20
84.517161
 30
0.0
 10
141.653120
 20
92.156648
 30
0.0
 10
141.653120
 20
102.115387
 30
0.0
 10
141.657327
 20
102.144364
 30
0.0
 10
141.654178
 20
102.173471
 30
0.0
 10
141.690154
 20
102.369988
 30
0.0
 10
141.718916
 20
102.567703
 30
0.0
 10
141.731219
 20
102.594275
 30
0.0
 10
141.736485
 20
102.623078
 30
0.0
 10
141.826962
 20
102.801198
 30
0.0
 10
141.910864
 20
102.982522
 30
0.0
 10
141.930231
 20
103.004482
 30
0.0
 10
141.943487
 20
103.030597
 30
0.0
 10
142.080948
 20
103.175541
 30
0.0
 10
142.213055
 20
103.325459
 30
0.0
 10
142.234460
 20
103.337418
 30
0.0
 10
142.258008
 20
103.362263
 30
0.0
 10
142.653994
 20
103.590548
 30
0.0
 10
142.713255
 20
103.604676
 30
0.0
 10
142.750045
 20
103.625208
 30
0.0
 10
152.221369
 20
106.702627
 30
0.0
 10
157.771783
 20
114.342114
 30
0.0
 10
157.771783
 20
123.785045
 30
0.0
 10
152.221369
 20
131.424532
 30
0.0
 10
142.750045
 20
134.501954
 30
0.0
 10
142.651956
 20
134.550383
 30
0.0
 10
142.547689
 20
134.583464
 30
0.0
 10
142.448108
 20
134.651030
 30
0.0
 10
142.340200
 20
134.704307
 30
0.0
 10
142.259981
 20
134.778673
 30
0.0
 10
142.169457
 20
134.840094
 30
0.0
 10
142.093249
 20
134.933240
 30
0.0
 10
142.005000
 20
135.015049
 30
0.0
 10
141.949294
 20
135.109191
 30
0.0
 10
141.880024
 20
135.193855
 30
0.0
 10
141.833518
 20
135.304845
 30
0.0
 10
141.772230
 20
135.408416
 30
0.0
 10
141.756302
 20
135.489148
 30
0.0
 10
141.703391
 20
135.615421
 30
0.0
 10
141.669405
 20
135.929272
 30
0.0
 10
141.653133
 20
136.011756
 30
0.0
 10
141.653133
 20
145.970495
 30
0.0
 10
136.102720
 20
153.609979
 30
0.0
 10
127.121962
 20
156.528008
 30
0.0
  0
LWPOLYLINE
  5
106
100
AcDbEntity
  8
Layer_3
 62
7
100
AcDbPolyline
 90
5
 70
1
 10
144.828128
 20
100.961965
 30
0.0
 10
144.828128
 20
92.794193
 30
0.0
 10
152.596146
 20
90.270208
 30
0.0
 10
157.397043
 20
96.878079
 30
0.0
 10
152.596146
 20
103.485947
 30
0.0
  0
LWPOLYLINE
  5
107
100
AcDbEntity
  8
Layer_3
 62
7
100
AcDbPolyline
 90
5
 70
1
 10
70.766310
 20
105.352165
 30
0.0
 10
75.567207
 20
98.744297
 30
0.0
 10
83.335225
 20
101.268279
 30
0.0
 10
83.335225
 20
109.436053
 30
0.0
 10
75.567207
 20
111.960036
 30
0.0
  0
LWPOLYLINE
  5
108
100
AcDbEntity
  8
Layer_3
 62
7
100
AcDbPolyline
 90
5
 70
1
 10
155.164774
 20
105.352165
 30
0.0
 10
159.965670
 20
98.744297
 30
0.0
 10
167.733686
 20
101.268279
 30
0.0
 10
167.733686
 20
109.436053
 30
0.0
 10
159.965670
 20
111.960036
 30
0.0
  0
LWPOLYLINE
  5
109
100
AcDbEntity
  8
Layer_3
 62
7
100
AcDbPolyline
 90
5
 70
1
 10
76.548337
 20
123.147413
 30
0.0
 10
76.548337
 20
114.979640
 30
0.0
 10
84.316356
 20
112.455658
 30
0.0
 10
89.117252
 20
119.063527
 30
0.0
 10
84.316356
 20
125.671397
 30
0.0
  0
LWPOLYLINE
  5
10a
100
AcDbEntity
  8
Layer_3
 62
7
100
AcDbPolyline
 90
5
 70
1
 10
70.766308
 20
132.774888
 30
0.0
 10
75.567207
 20
126.167018
 30
0.0
 10
83.335225
 20
128.691002
 30
0.0
 10
83.335225
 20
136.858775
 30
0.0
 10
75.567207
 20
139.382759
 30
0.0
  0
LWPOLYLINE
  5
10b
100
AcDbEntity
  8
Layer_3
 62
7
100
AcDbPolyline
 90
5
 70
1
 10
155.164771
 20
132.774888
 30
0.0
 10
159.965670
 20
126.167018
 30
0.0
 10
167.733686
 20
128.691000
 30
0.0
 10
167.733686
 20
136.858777
 30
0.0
 10
159.965670
 20
139.382759
 30
0.0
  0
LWPOLYLINE
  5
10c
100
AcDbEntity
  8
Layer_3
 62
7
100
AcDbPolyline
 90
5
 70
1
 10
144.828128
 20
145.332863
 30
0.0
 10
144.828128
 20
137.165091
 30
0.0
 10
152.596146
 20
134.641106
 30
0.0
 10
157.397043
 20
141.248977
 30
0.0
 10
152.596146
 20
147.856845
 30
0.0
  0
LWPOLYLINE
  5
10d
100
AcDbEntity
  8
Layer_3
 62
7
100
AcDbPolyline
 90
5
 70
1
 10
86.884984
 20
154.960336
 30
0.0
 10
91.685880
 20
148.352468
 30
0.0
 10
99.453896
 20
150.876450
 30
0.0
 10
99.453896
 20
159.044225
 30
0.0
 10
91.685880
 20
161.568207
 30
0.0
  0
LWPOLYLINE
  5
10e
100
AcDbEntity
  8
Layer_3
 62
7
100
AcDbPolyline
 90
5
 70
1
 10
102.628896
 20
159.044225
 30
0.0
 10
102.628896
 20
150.876450
 30
0.0
 10
110.396914
 20
148.352468
 30
0.0
 10
115.197811
 20
154.960336
 30
0.0
 10
110.396914
 20
161.568207
 30
0.0
  0
LWPOLYLINE
  5
10f
100
AcDbEntity
  8
Layer_3
 62
7
100
AcDbPolyline
 90
5
 70
1
 10
139.046101
 20
154.960336
 30
0.0
 10
143.846997
 20
148.352468
 30
0.0
 10
151.615016
 20
150.876450
 30
0.0
 10
151.615016
 20
159.044225
 30
0.0
 10
143.846997
 20
161.568207
 30
0.0
  0
LWPOLYLINE
  5
110
100
AcDbEntity
  8
Layer_3
 62
7
100
AcDbPolyline
 90
5
 70
1
 10
112.965540
 20
163.434424
 30
0.0
 10
117.766439
 20
156.826553
 30
0.0
 10
125.534457
 20
159.350538
 30
0.0
 10
125.534457
 20
167.518310
 30
0.0
 10
117.766439
 20
170.042295
 30
0.0
  0
ENDSEC
  0
SECTION
  2
OBJECTS
  0
DICTIONARY
  5
C
330
0
100
AcDbDictionary
  3
ACAD_GROUP
350
D
  3
ACAD_MLINESTYLE
350
17
  0
DICTIONARY
  5
D
330
C
100
AcDbDictionary
  0
DICTIONARY
  5
1A
330
C
100
AcDbDictionary
  0
DICTIONARY
  5
17
330
C
100
AcDbDictionary
  3
STANDARD
350
18
  0
DICTIONARY
  5
19
330
C
100
AcDbDictionary
  0
ENDSEC
  0
EOF
