<svg version="1.1" xmlns="http://www.w3.org/2000/svg" xmlns:xlink="http://www.w3.org/1999/xlink" width="900" height="900"><defs/><g><path fill="#222222" stroke="#cccccc" paint-order="fill stroke markers" d=" M 244.23398 34.05343 L 245.8196 34.73912 L 247.52419 36.31932 L 266.15863 61.96743 L 296.3098 52.17072 L 298.01252 51.87897 L 299.72779 52.08446 L 301.31341 52.77015 L 303.018 54.35035 L 321.65244 79.99846 L 351.80362 70.20175 L 352.46667 70.08814 L 353.12103 69.93214 L 353.31494 69.9428 L 353.50634 69.91 L 354.17428 69.99002 L 354.84596 70.02693 L 355.02879 70.09239 L 355.22161 70.11549 L 355.83905 70.3825 L 356.47239 70.60926 L 356.62899 70.7241 L 356.80723 70.80118 L 357.08411 71.05785 L 357.86548 71.63086 L 358.25275 72.14122 L 358.51182 72.38138 L 379.70857 101.55621 L 379.88162 101.88551 L 380.10651 102.18187 L 380.1731 102.44016 L 380.51221 103.08544 L 380.84683 104.78025 L 380.82798 104.98018 L 380.85447 105.08292 L 380.7517 105.78936 L 380.68469 106.50016 L 380.6316 106.61488 L 380.60577 106.79246 L 379.8803 108.36028 L 379.76164 108.49494 L 379.70857 108.60963 L 361.07412 134.25774 L 377.14626 156.37915 L 407.29743 146.58243 L 407.96048 146.46882 L 408.61484 146.31282 L 408.80875 146.32348 L 409.00015 146.29068 L 409.66809 146.3707 L 410.33977 146.40761 L 410.5226 146.47307 L 410.71542 146.49617 L 411.33286 146.76318 L 411.9662 146.98994 L 412.1228 147.10478 L 412.30104 147.18186 L 412.57792 147.43853 L 413.35929 148.01154 L 413.74656 148.5219 L 414.00563 148.76206 L 435.20238 177.93689 L 435.37543 178.26619 L 435.60032 178.56255 L 435.66691 178.82084 L 436.00602 179.46612 L 436.34064 181.16093 L 436.32179 181.36086 L 436.34828 181.4636 L 436.24551 182.17004 L 436.1785 182.88084 L 436.12541 182.99556 L 436.09958 183.17314 L 435.37411 184.74096 L 435.25545 184.87562 L 435.20238 184.99031 L 416.56793 210.63842 L 435.20238 236.28654 L 436.00602 237.81577 L 436.34064 239.51058 L 436.1785 241.23049 L 435.20238 243.33996 L 416.56793 268.98807 L 435.20238 294.63619 L 436.00602 296.16542 L 436.34064 297.86023 L 436.1785 299.58014 L 435.20238 301.68961 L 414.00563 330.86443 L 412.79959 332.1013 L 411.29112 332.94327 L 409.60529 333.32054 L 407.29743 333.04406 L 377.14626 323.24735 L 361.07412 345.36875 L 379.70857 371.01687 L 380.51221 372.5461 L 380.84683 374.24091 L 380.68469 375.96082 L 379.70857 378.07029 L 358.51182 407.24511 L 357.30578 408.48198 L 355.79731 409.32395 L 354.11148 409.70122 L 351.80362 409.42474 L 321.65244 399.62803 L 303.018 425.27615 L 301.81196 426.51302 L 300.3035 427.35498 L 298.61766 427.73226 L 296.3098 427.45578 L 266.15863 417.65906 L 247.52419 443.30718 L 247.02582 443.81829 L 246.5538 444.35396 L 246.42459 444.43489 L 246.31815 444.54405 L 245.69478 444.89199 L 245.08973 445.27095 L 244.9428 445.31171 L 244.80969 445.38601 L 244.11303 445.54192 L 243.42507 445.73278 L 243.27265 445.72999 L 243.12385 445.76329 L 242.76894 445.72077 L 241.69783 445.70117 L 241.14728 445.5265 L 240.81599 445.48681 L 206.51893 434.34302 L 206.1482 434.15998 L 205.75412 434.03495 L 205.37775 433.77958 L 204.96991 433.57822 L 204.66672 433.29715 L 204.32458 433.06501 L 204.03655 432.71296 L 203.70301 432.40376 L 203.49247 432.04795 L 203.23066 431.72796 L 203.05489 431.30847 L 202.82325 430.91702 L 202.76301 430.61189 L 202.56303 430.13464 L 202.43458 428.94843 L 202.37303 428.63668 L 202.37303 396.93387 L 176.36775 388.48424 L 157.73331 414.13235 L 157.23494 414.64346 L 156.76292 415.17913 L 156.63371 415.26006 L 156.52727 415.36922 L 155.90387 415.71718 L 155.29885 416.09612 L 155.15194 416.13688 L 155.0188 416.21119 L 154.32206 416.36711 L 153.63419 416.55795 L 153.48177 416.55516 L 153.33297 416.58846 L 152.97806 416.54594 L 151.90695 416.52634 L 151.3564 416.35167 L 151.02511 416.31198 L 116.72805 405.16819 L 116.35732 404.98515 L 115.96324 404.86012 L 115.58687 404.60475 L 115.17903 404.40339 L 114.87584 404.12232 L 114.5337 403.89018 L 114.24567 403.53813 L 113.91213 403.22893 L 113.70159 402.87312 L 113.43978 402.55313 L 113.26401 402.13364 L 113.03237 401.74219 L 112.97213 401.43706 L 112.77215 400.95981 L 112.6437 399.7736 L 112.58215 399.46185 L 112.58215 367.75905 L 82.43099 357.96234 L 80.88197 357.19754 L 79.61507 356.02308 L 78.73531 354.53634 L 78.28509 352.256 L 78.28509 320.55319 L 48.13392 310.75648 L 46.5849 309.99168 L 45.318 308.81722 L 44.43824 307.33048 L 43.98802 305.05014 L 43.98802 268.98807 L 44.23672 267.27853 L 44.96219 265.71071 L 46.10431 264.41458 L 48.13392 263.28173 L 78.28509 253.48502 L 78.28509 226.14147 L 48.13392 216.34476 L 47.76319 216.16172 L 47.36911 216.03669 L 46.99274 215.78132 L 46.5849 215.57996 L 46.28171 215.29889 L 45.93957 215.06675 L 45.65154 214.7147 L 45.318 214.4055 L 45.10746 214.04969 L 44.84565 213.7297 L 44.66988 213.31021 L 44.43824 212.91876 L 44.378 212.61363 L 44.17802 212.13638 L 44.04957 210.95017 L 43.98802 210.63842 L 43.98802 174.57636 L 44.00395 174.46684 L 43.99204 174.35683 L 44.12801 173.61409 L 44.23672 172.86682 L 44.28319 172.76639 L 44.30312 172.65753 L 44.64508 171.98432 L 44.96219 171.299 L 45.03536 171.21597 L 45.08547 171.11731 L 45.60501 170.56949 L 46.10431 170.00287 L 46.18523 169.9577 L 46.27425 169.86384 L 47.77089 169.00103 L 47.99487 168.94763 L 48.13392 168.87002 L 78.28509 159.07331 L 78.28509 127.3705 L 78.34461 126.96138 L 78.34174 126.54793 L 78.46831 126.11103 L 78.53379 125.66096 L 78.70741 125.28575 L 78.82246 124.88863 L 79.06824 124.50595 L 79.25926 124.09314 L 79.53262 123.78292 L 79.75603 123.43507 L 80.10067 123.13827 L 80.40138 122.79701 L 80.75178 122.57755 L 81.06505 122.30776 L 81.53926 122.08432 L 81.86545 121.88002 L 82.12667 121.80755 L 82.43099 121.66416 L 112.58215 111.86745 L 112.58215 80.16464 L 112.83085 78.4551 L 113.55632 76.88728 L 114.69844 75.59115 L 116.72805 74.4583 L 151.02511 63.31451 L 152.72783 63.02276 L 154.4431 63.22825 L 156.02872 63.91394 L 157.73331 65.49414 L 176.36775 91.14225 L 202.37303 82.69262 L 202.37303 50.98982 L 202.62173 49.28028 L 203.3472 47.71246 L 204.48932 46.41633 L 206.51893 45.28348 L 240.81599 34.13969 L 242.51871 33.84794 Z M 214.37303 394.52412 L 214.37303 424.27742 L 240.3783 432.72705 L 257.86684 408.65613 L 257.86684 378.90284 L 231.86157 370.45321 Z M 269.86684 352.256 L 269.61814 353.96554 L 268.89267 355.53336 L 267.75055 356.82949 L 265.72094 357.96234 L 248.98619 363.39979 L 265.72094 368.83724 L 267.26996 369.60204 L 268.53686 370.7765 L 269.41662 372.26324 L 269.86684 374.54358 L 269.86684 406.24639 L 295.87211 414.69602 L 311.94425 392.57461 L 293.3098 366.9265 L 293.18772 366.6942 L 293.02153 366.49107 L 292.78766 365.93293 L 292.50616 365.39727 L 292.45533 365.13981 L 292.3539 364.89775 L 292.28875 364.29613 L 292.17154 363.70246 L 292.19617 363.44117 L 292.16792 363.18026 L 292.27688 362.58505 L 292.33368 361.98255 L 292.42219 361.79126 L 292.479 361.48096 L 293.26135 359.94074 L 293.29482 359.90544 L 293.3098 359.87308 L 303.65245 345.63764 L 286.91769 351.07509 L 286.36192 351.17032 L 285.81857 351.32106 L 285.51462 351.3155 L 285.21497 351.36684 L 284.6551 351.29977 L 284.09133 351.28945 L 283.80155 351.19751 L 283.4997 351.16135 L 282.98218 350.93755 L 282.44468 350.76702 L 282.19309 350.59631 L 281.91408 350.47566 L 281.63785 350.21959 L 281.01514 349.79708 L 280.49093 349.15637 L 280.20949 348.89546 L 269.86684 334.66003 Z M 124.58215 365.3493 L 124.58215 395.10259 L 150.58742 403.55222 L 168.07596 379.48131 L 168.07596 349.72801 L 142.07069 341.27838 Z M 305.5803 363.39979 L 323.06885 387.4707 L 351.36593 396.66498 L 367.43807 374.54358 L 349.94952 350.47266 L 321.65244 341.27838 Z M 180.07596 349.72801 L 180.07596 377.07156 L 206.08124 385.52119 L 222.15338 363.39979 L 206.08124 341.27838 Z M 124.58215 305.05014 L 124.33345 306.75968 L 123.60798 308.3275 L 122.46586 309.62363 L 121.00179 310.54062 L 120.64628 310.63925 L 120.43625 310.75648 L 90.28509 320.55319 L 90.28509 347.89674 L 116.29036 356.34637 L 134.9248 330.69825 L 136.13084 329.46138 L 137.6393 328.61942 L 139.32514 328.24214 L 141.633 328.51862 L 158.36776 333.95607 L 148.02511 319.72064 L 147.22147 318.19141 L 146.88685 316.4966 L 147.04899 314.77669 L 148.02511 312.66722 L 158.36776 298.43178 L 141.633 303.86924 L 141.07723 303.96447 L 140.53388 304.11521 L 140.22993 304.10965 L 139.93028 304.16099 L 139.37041 304.09392 L 138.80664 304.0836 L 138.51686 303.99166 L 138.21501 303.9555 L 137.69749 303.7317 L 137.15999 303.56117 L 136.9084 303.39046 L 136.62939 303.26981 L 136.35316 303.01374 L 135.73045 302.59123 L 135.20624 301.95052 L 134.9248 301.68961 L 124.58215 287.45417 Z M 215.78943 334.22496 L 231.86157 356.34637 L 257.86684 347.89674 L 257.86684 320.55319 L 231.86157 312.10356 Z M 160.29561 316.19393 L 176.36775 338.31533 L 202.37303 329.8657 L 202.37303 302.52215 L 176.36775 294.07252 Z M 271.28324 316.19393 L 287.35538 338.31533 L 313.36065 329.8657 L 313.36065 302.52215 L 287.35538 294.07252 Z M 325.36065 302.52215 L 325.36065 329.8657 L 351.36593 338.31533 L 367.43807 316.19393 L 351.36593 294.07252 Z M 361.07412 287.0191 L 378.56267 311.09002 L 406.85974 320.2843 L 422.93188 298.1629 L 405.44333 274.09198 L 377.14626 264.8977 Z M 214.37303 181.4636 L 214.12433 183.17314 L 213.39886 184.74096 L 212.25674 186.03709 L 210.79267 186.95408 L 210.43716 187.05271 L 210.22713 187.16994 L 180.07596 196.96665 L 180.07596 228.66946 L 179.82726 230.379 L 179.10179 231.94682 L 177.95967 233.24295 L 176.4956 234.15994 L 176.14009 234.25857 L 175.93006 234.3758 L 159.19531 239.81325 L 175.93006 245.2507 L 176.39867 245.48207 L 176.89063 245.65821 L 177.16923 245.86252 L 177.47908 246.0155 L 177.86235 246.37081 L 178.28372 246.67981 L 178.49258 246.95505 L 178.74598 247.18996 L 179.01211 247.6397 L 179.328 248.05599 L 179.38171 248.2643 L 179.62574 248.6767 L 180.07596 250.95704 L 180.07596 282.65985 L 210.22713 292.45656 L 211.77615 293.22136 L 213.04305 294.39582 L 213.92281 295.88256 L 214.37303 298.1629 L 214.37303 315.75886 L 224.71568 301.52343 L 225.92172 300.28656 L 227.43019 299.44459 L 229.11602 299.06732 L 231.42388 299.3438 L 261.57505 309.14051 L 280.20949 283.49239 L 280.78388 282.90332 L 281.34982 282.30658 L 281.38618 282.28562 L 281.41553 282.25552 L 282.13411 281.85444 L 282.84646 281.44377 L 282.88732 281.43403 L 282.92399 281.41356 L 283.72673 281.23391 L 284.5269 281.04315 L 284.56883 281.04545 L 284.60983 281.03628 L 284.78605 281.05739 L 286.25183 281.13794 L 286.6508 281.28079 L 286.91769 281.31276 L 303.65245 286.75022 L 293.3098 272.51478 L 293.18772 272.28248 L 293.02153 272.07935 L 292.78766 271.52121 L 292.50616 270.98555 L 292.45533 270.72809 L 292.3539 270.48603 L 292.28875 269.88441 L 292.17154 269.29074 L 292.19617 269.02945 L 292.16792 268.76854 L 292.27688 268.17333 L 292.33368 267.57083 L 292.42219 267.37954 L 292.479 267.06924 L 293.26135 265.52902 L 293.29482 265.49372 L 293.3098 265.46136 L 311.94425 239.81325 L 293.3098 214.16513 L 292.50616 212.6359 L 292.17154 210.94109 L 292.33368 209.22118 L 293.3098 207.11171 L 303.65245 192.87628 L 286.91769 198.31373 L 285.21497 198.60548 L 283.4997 198.39999 L 281.91408 197.7143 L 280.20949 196.1341 L 261.57505 170.48599 L 231.42388 180.2827 L 230.86811 180.37793 L 230.32476 180.52867 L 230.02081 180.52311 L 229.72116 180.57445 L 229.16129 180.50738 L 228.59752 180.49706 L 228.30774 180.40512 L 228.00589 180.36896 L 227.48837 180.14516 L 226.95087 179.97463 L 226.69928 179.80392 L 226.42027 179.68327 L 226.14404 179.4272 L 225.52133 179.00469 L 224.99712 178.36398 L 224.71568 178.10307 L 214.37303 163.86763 Z M 55.98802 273.34733 L 55.98802 300.69088 L 84.28509 309.88516 L 112.58215 300.69088 L 112.58215 273.34733 L 84.28509 264.15305 Z M 125.99855 268.98807 L 142.07069 291.10948 L 168.07596 282.65985 L 168.07596 255.3163 L 142.07069 246.86667 Z M 305.5803 268.98807 L 321.65244 291.10948 L 347.65772 282.65985 L 347.65772 255.3163 L 321.65244 246.86667 Z M 359.65772 228.66946 L 359.40902 230.379 L 358.68355 231.94682 L 357.54143 233.24295 L 355.51182 234.3758 L 338.77706 239.81325 L 355.51182 245.2507 L 355.98043 245.48207 L 356.47239 245.65821 L 356.75099 245.86252 L 357.06084 246.0155 L 357.44411 246.37081 L 357.86548 246.67981 L 358.07434 246.95505 L 358.32774 247.18996 L 358.59387 247.6397 L 358.90976 248.05599 L 358.96347 248.2643 L 359.2075 248.6767 L 359.65772 250.95704 L 359.65772 268.553 L 370.00037 254.31757 L 370.57476 253.7285 L 371.1407 253.13176 L 371.17706 253.1108 L 371.20641 253.0807 L 371.92511 252.67955 L 372.63734 252.26895 L 372.67818 252.25921 L 372.71488 252.23873 L 373.51789 252.05903 L 374.31778 251.86833 L 374.35971 251.87063 L 374.40071 251.86146 L 374.57693 251.88257 L 376.04271 251.96312 L 376.44168 252.10597 L 376.70857 252.13794 L 406.85974 261.93465 L 422.93188 239.81325 L 406.85974 217.69184 L 376.70857 227.48855 L 375.00585 227.7803 L 373.29058 227.57481 L 371.70496 226.88912 L 370.00037 225.30892 L 359.65772 211.07349 Z M 90.28509 226.14147 L 90.28509 253.48502 L 116.29036 261.93465 L 132.3625 239.81325 L 116.29036 217.69184 Z M 125.99855 210.63842 L 142.07069 232.75983 L 168.07596 224.3102 L 168.07596 196.96665 L 142.07069 188.51702 Z M 305.5803 210.63842 L 321.65244 232.75983 L 347.65772 224.3102 L 347.65772 196.96665 L 321.65244 188.51702 Z M 55.98802 178.93562 L 55.98802 206.27916 L 84.28509 215.47344 L 112.58215 206.27916 L 112.58215 178.93562 L 84.28509 169.74134 Z M 378.56267 168.53648 L 361.07413 192.60739 L 377.14626 214.72879 L 405.44333 205.53451 L 422.93188 181.4636 L 406.85974 159.34219 Z M 90.28509 131.72976 L 90.28509 159.07331 L 120.43625 168.87002 L 120.90486 169.10139 L 121.39682 169.27753 L 121.67542 169.48184 L 121.98527 169.63482 L 122.36854 169.99013 L 122.78991 170.29913 L 122.99877 170.57437 L 123.25217 170.80928 L 123.5183 171.25902 L 123.83419 171.67531 L 123.8879 171.88362 L 124.13193 172.29602 L 124.58215 174.57636 L 124.58215 192.17232 L 134.9248 177.93689 L 135.49919 177.34782 L 136.06513 176.75108 L 136.10149 176.73012 L 136.13084 176.70002 L 136.84954 176.29887 L 137.56177 175.88827 L 137.60261 175.87853 L 137.63931 175.85805 L 138.44232 175.67835 L 139.24221 175.48765 L 139.28414 175.48995 L 139.32514 175.48078 L 139.50136 175.50189 L 140.96714 175.58244 L 141.36611 175.72529 L 141.633 175.75726 L 158.36776 181.19471 L 148.02511 166.95928 L 147.90303 166.72698 L 147.73684 166.52385 L 147.50297 165.96571 L 147.22147 165.43005 L 147.17064 165.17259 L 147.06921 164.93053 L 147.00406 164.32891 L 146.88685 163.73524 L 146.91148 163.47395 L 146.88323 163.21304 L 146.99219 162.61783 L 147.04899 162.01533 L 147.1375 161.82404 L 147.19431 161.51374 L 147.97666 159.97352 L 148.01013 159.93822 L 148.02511 159.90586 L 158.36776 145.67042 L 141.633 151.10787 L 141.07723 151.2031 L 140.53388 151.35384 L 140.22993 151.34828 L 139.93028 151.39962 L 139.37041 151.33255 L 138.80664 151.32223 L 138.51686 151.23029 L 138.21501 151.19413 L 137.69749 150.97033 L 137.15999 150.7998 L 136.9084 150.62909 L 136.62939 150.50844 L 136.35316 150.25237 L 135.73045 149.82986 L 135.20624 149.18915 L 134.9248 148.92824 L 116.29036 123.28013 Z M 160.29561 163.43257 L 176.36775 185.55397 L 202.37303 177.10434 L 202.37303 149.76079 L 176.36775 141.31116 Z M 271.28324 163.43257 L 287.35538 185.55397 L 313.36065 177.10434 L 313.36065 149.76079 L 287.35538 141.31116 Z M 325.36065 149.76079 L 325.36065 177.10434 L 351.36593 185.55397 L 367.43807 163.43257 L 351.36593 141.31116 Z M 215.78943 145.40153 L 231.86157 167.52294 L 257.86684 159.07331 L 257.86684 131.72976 L 231.86157 123.28013 Z M 269.86684 73.38011 L 269.86684 105.08292 L 269.61814 106.79246 L 268.89267 108.36028 L 267.75055 109.65641 L 266.28648 110.5734 L 265.93097 110.67203 L 265.72094 110.78926 L 248.98619 116.22671 L 265.72094 121.66416 L 266.18955 121.89553 L 266.68151 122.07167 L 266.96011 122.27598 L 267.26996 122.42896 L 267.65323 122.78427 L 268.0746 123.09327 L 268.28346 123.36851 L 268.53686 123.60342 L 268.80299 124.05316 L 269.11888 124.46945 L 269.17259 124.67776 L 269.41662 125.09016 L 269.86684 127.3705 L 269.86684 144.96647 L 280.20949 130.73103 L 281.41553 129.49416 L 282.92399 128.6522 L 284.60983 128.27492 L 286.91769 128.5514 L 303.65245 133.98885 L 293.3098 119.75342 L 292.50616 118.22419 L 292.17154 116.52938 L 292.33368 114.80947 L 293.3098 112.7 L 311.94425 87.05188 L 295.87211 64.93048 Z M 124.58215 84.5239 L 124.58215 114.2772 L 142.07069 138.34811 L 168.07596 129.89848 L 168.07596 100.14518 L 150.58742 76.07427 Z M 180.07596 102.55493 L 180.07596 129.89848 L 206.08124 138.34811 L 222.15338 116.22671 L 206.08124 94.1053 Z M 323.06885 92.15579 L 305.5803 116.22671 L 321.65244 138.34811 L 349.94952 129.15383 L 367.43807 105.08292 L 351.36593 82.96151 Z M 214.37303 55.34908 L 214.37303 85.10237 L 231.86157 109.17329 L 257.86684 100.72366 L 257.86684 70.97036 L 240.3783 46.89945 Z" stroke-miterlimit="10"/><path fill="#222222" stroke="#cccccc" paint-order="fill stroke markers" d=" M 646.91385 35.57517 L 802.74527 86.20787 L 804.29429 86.97267 L 805.56119 88.14713 L 806.44095 89.63387 L 806.89117 91.91421 L 806.89117 138.18765 L 850.89983 152.48693 L 851.36844 152.7183 L 851.8604 152.89444 L 852.139 153.09875 L 852.44885 153.25173 L 852.83212 153.60704 L 853.25349 153.91604 L 853.46235 154.19128 L 853.71575 154.42619 L 853.98188 154.87593 L 854.29777 155.29222 L 854.35148 155.50053 L 854.59551 155.91293 L 855.04573 158.19327 L 855.04573 322.04412 L 854.79703 323.75366 L 854.07156 325.32148 L 852.92944 326.61761 L 850.89983 327.75046 L 806.89117 342.04974 L 806.89117 388.32319 L 806.64247 390.03273 L 805.917 391.60055 L 804.77488 392.89668 L 803.31081 393.81367 L 802.9553 393.9123 L 802.74527 394.02953 L 646.91385 444.66223 L 646.35808 444.75746 L 645.81473 444.9082 L 645.51078 444.90264 L 645.21113 444.95398 L 644.65126 444.88691 L 644.08749 444.87659 L 643.79771 444.78465 L 643.49586 444.74849 L 642.97834 444.52469 L 642.44084 444.35416 L 642.18925 444.18345 L 641.91024 444.0628 L 641.63401 443.80673 L 641.0113 443.38422 L 640.48709 442.74351 L 640.20565 442.4826 L 613.0068 405.0466 L 568.99814 419.34588 L 567.29542 419.63763 L 565.58015 419.43214 L 563.99453 418.74645 L 562.28994 417.16625 L 465.98082 284.60812 L 465.17718 283.07889 L 464.84256 281.38408 L 465.0047 279.66417 L 465.98082 277.5547 L 493.17967 240.1187 L 465.98082 202.68269 L 465.17718 201.15346 L 464.84256 199.45865 L 465.0047 197.73874 L 465.98082 195.62927 L 562.28994 63.07115 L 563.49598 61.83428 L 565.00445 60.99231 L 566.69028 60.61504 L 568.99814 60.89152 L 613.0068 75.1908 L 640.20565 37.7548 L 641.41169 36.51793 L 642.92016 35.67596 L 644.60599 35.29869 Z M 625.0068 401.14756 L 647.35154 431.90247 L 703.55905 413.63954 L 645.05975 394.63196 Z M 569.43583 406.58612 L 605.5904 394.83879 L 593.19699 377.78073 L 534.69768 358.77315 Z M 774.83822 352.46438 L 738.68366 402.22686 L 794.89117 383.96393 L 794.89117 345.94878 Z M 651.05975 383.96393 L 707.26726 402.22686 L 671.1127 352.46438 L 651.05975 345.94878 Z M 728.97546 333.66362 L 728.97546 395.17344 L 763.71362 347.36047 L 741.36887 316.60556 Z M 682.2373 347.36047 L 716.97546 395.17344 L 716.97546 336.07337 L 695.5061 329.09755 Z M 604.32159 372.67682 L 617.59039 390.93975 L 639.05975 383.96393 L 639.05975 342.04974 L 628.95814 338.76753 Z M 538.40589 347.36047 L 594.6134 365.6234 L 616.95814 334.86849 L 596.90519 328.35289 Z M 651.05975 333.33123 L 672.52911 340.30705 L 683.5061 325.19851 L 651.05975 314.65605 Z M 748.78527 306.39776 L 773.42181 340.30705 L 794.89117 333.33123 L 794.89117 310.75702 L 755.02841 297.80482 Z M 534.69768 335.94779 L 590.90519 317.68486 L 590.90519 295.11065 L 569.43583 288.13483 Z M 636.37455 328.55972 L 639.05975 329.43219 L 639.05975 324.86386 Z M 806.89117 308.34727 L 806.89117 329.43219 L 843.04573 317.68486 L 843.04573 258.5848 Z M 478.25132 281.08141 L 512.98948 328.89438 L 512.98948 267.38456 L 500.59607 250.3265 Z M 524.98948 269.79431 L 524.98948 328.89437 L 561.14404 279.1319 L 561.14404 258.04698 Z M 702.92251 318.88974 L 720.68367 324.66069 L 733.95246 306.39776 L 722.97546 291.28921 Z M 602.90519 317.68486 L 624.37455 324.66068 L 635.35155 309.55215 L 602.90519 299.00969 Z M 664.47616 306.39776 L 690.92251 314.9907 L 707.26726 292.49409 Z M 604.32159 240.1187 L 647.35154 299.34434 L 716.97546 276.72215 L 716.97546 203.51524 L 647.35154 180.89305 Z M 774.83822 270.53896 L 762.44482 287.59701 L 798.59938 299.34434 L 833.33753 251.53138 Z M 741.36887 296.18996 L 743.02841 293.90578 L 738.68366 292.49409 Z M 602.90519 286.39214 L 629.35155 294.98508 L 602.90519 258.5848 Z M 732.68366 277.92702 L 750.44482 283.69797 L 763.71362 265.43505 L 752.73661 250.3265 Z M 573.14404 254.14794 L 573.14404 276.72215 L 590.90519 282.4931 L 590.90519 248.37699 Z M 728.97546 262.61531 L 745.32021 240.1187 L 728.97546 217.62208 Z M 508.01248 240.1187 L 521.28127 258.38163 L 561.14404 245.42943 L 561.14404 234.80797 L 521.28127 221.85577 Z M 760.15302 240.1187 L 773.42181 258.38163 L 829.62932 240.1187 L 773.42181 221.85577 Z M 573.14404 241.53039 L 577.48878 240.1187 L 573.14404 238.70701 Z M 573.14404 203.51524 L 573.14404 226.08946 L 590.90519 231.86041 L 590.90519 197.74429 Z M 478.25132 199.15598 L 500.59608 229.91089 L 512.98948 212.85284 L 512.98948 151.34302 Z M 732.68366 202.31037 L 752.73661 229.91089 L 763.71361 214.80235 L 750.44482 196.53942 Z M 762.44481 192.64038 L 774.83822 209.69844 L 833.33753 228.70602 L 798.59938 180.89305 Z M 524.98948 210.44309 L 561.14404 222.19042 L 561.14404 201.10549 L 524.98948 151.34302 Z M 602.90519 193.84525 L 602.90519 221.6526 L 629.35155 185.25231 Z M 806.89117 171.89012 L 843.04573 221.6526 L 843.04573 162.55253 L 806.89117 150.8052 Z M 569.43583 192.10256 L 590.90519 185.12674 L 590.90519 162.55253 L 534.69768 144.2896 Z M 702.92251 161.34766 L 722.97546 188.94818 L 733.95246 173.83963 L 720.68367 155.57671 Z M 738.68366 187.7433 L 743.02841 186.33161 L 741.36886 184.04744 Z M 664.47617 173.83963 L 707.26725 187.7433 L 690.92251 165.2467 Z M 748.78527 173.83964 L 755.0284 182.43257 L 794.89117 169.48037 L 794.89117 146.90616 L 773.42181 139.93034 Z M 602.90519 162.55253 L 602.90519 181.22771 L 635.35155 170.68525 L 624.37455 155.57671 Z M 651.05975 146.90616 L 651.05975 165.58134 L 683.50611 155.03889 L 672.52911 139.93034 Z M 728.97546 146.57378 L 741.36886 163.63183 L 763.71361 132.87692 L 728.97546 85.06396 Z M 636.37455 151.67767 L 639.05975 155.37353 L 639.05975 150.8052 Z M 538.40589 132.87692 L 596.90519 151.8845 L 616.95814 145.3689 L 594.6134 114.61399 Z M 682.2373 132.87692 L 695.5061 151.13985 L 716.97546 144.16403 L 716.97546 85.06396 Z M 604.3216 107.56057 L 628.95814 141.46986 L 639.05975 138.18765 L 639.05975 96.27347 L 617.59039 89.29765 Z M 651.05975 96.27347 L 651.05975 134.28861 L 671.1127 127.77301 L 707.26726 78.01054 Z M 774.83822 127.77301 L 794.89117 134.28861 L 794.89117 96.27347 L 738.68366 78.01054 Z M 534.69768 121.46424 L 593.19699 102.45666 L 605.59039 85.39861 L 569.43583 73.65128 Z M 625.0068 79.08984 L 645.05975 85.60544 L 703.55905 66.59786 L 647.35154 48.33493 Z" stroke-miterlimit="10"/><path fill="#222222" stroke="#cccccc" paint-order="fill stroke markers" d=" M 234.63452 454.62194 L 272.28575 466.85557 L 273.83477 467.62037 L 275.10167 468.79483 L 275.98143 470.28157 L 276.43165 472.56191 L 276.43165 510.20124 L 287.10493 524.89175 L 304.37467 519.28047 L 326.49851 488.82962 L 327.70455 487.59275 L 329.21302 486.75079 L 330.89885 486.37351 L 333.20671 486.64999 L 370.85794 498.88361 L 372.40696 499.64841 L 373.67386 500.82287 L 374.55362 502.30961 L 375.00384 504.58995 L 375.00384 542.22929 L 395.98178 571.10293 L 431.7789 582.73413 L 433.32792 583.49893 L 434.59482 584.67339 L 435.47458 586.16013 L 435.9248 588.44047 L 435.9248 628.02931 L 435.6761 629.73885 L 434.95063 631.30667 L 433.80851 632.6028 L 431.7789 633.73565 L 395.98178 645.36685 L 385.3085 660.05736 L 395.98178 674.74787 L 431.7789 686.37906 L 433.32792 687.14386 L 434.59482 688.31832 L 435.47458 689.80506 L 435.9248 692.0854 L 435.9248 731.67425 L 435.6761 733.38379 L 434.95063 734.95161 L 433.80851 736.24774 L 431.7789 737.38059 L 395.98178 749.01178 L 375.00384 777.88543 L 375.00384 815.52476 L 374.75514 817.2343 L 374.02967 818.80212 L 372.88755 820.09825 L 370.85794 821.2311 L 333.20671 833.46473 L 331.50399 833.75648 L 329.78872 833.55099 L 328.2031 832.8653 L 326.49851 831.2851 L 304.37467 800.83425 L 287.10493 795.22297 L 276.43165 809.91348 L 276.43165 847.55281 L 276.18295 849.26235 L 275.45748 850.83017 L 274.31536 852.1263 L 272.28575 853.25915 L 234.63452 865.49277 L 232.9318 865.78452 L 231.21653 865.57903 L 229.63091 864.89334 L 227.92632 863.31314 L 205.80248 832.8623 L 171.85945 821.83353 L 136.06233 833.46473 L 134.35961 833.75648 L 132.64434 833.55099 L 131.05872 832.8653 L 129.35413 831.2851 L 106.08439 799.25705 L 105.28075 797.72782 L 104.94613 796.03301 L 105.10827 794.3131 L 106.08439 792.20363 L 128.20823 761.75278 L 128.20823 743.5943 L 110.93849 737.98302 L 75.14136 749.61421 L 73.43864 749.90596 L 71.72337 749.70047 L 70.13775 749.01478 L 68.43316 747.43458 L 45.16342 715.40654 L 44.35978 713.87732 L 44.02516 712.1825 L 44.1873 710.46259 L 45.16342 708.35312 L 67.28726 677.90227 L 67.28726 642.21245 L 45.16342 611.7616 L 44.35978 610.23237 L 44.02516 608.53756 L 44.1873 606.81765 L 45.16342 604.70818 L 68.43316 572.68013 L 69.6392 571.44326 L 71.14767 570.6013 L 72.8335 570.22402 L 75.14136 570.5005 L 110.93849 582.1317 L 128.20823 576.52042 L 128.20823 558.36193 L 106.08439 527.91109 L 105.28075 526.38187 L 104.94613 524.68705 L 105.10827 522.96714 L 106.08439 520.85767 L 129.35413 488.82962 L 130.56017 487.59275 L 132.06864 486.75079 L 133.75447 486.37351 L 136.06233 486.64999 L 171.85945 498.28118 L 205.80248 487.25242 L 227.92632 456.80157 L 229.13236 455.5647 L 230.64083 454.72274 L 232.32666 454.34546 Z M 216.92709 827.75839 L 235.07221 852.73301 L 264.43165 843.19355 L 264.43165 812.32323 L 235.07221 802.78376 Z M 118.35489 795.73034 L 136.50002 820.70497 L 165.85945 811.16551 L 165.85945 780.29517 L 136.50002 770.75571 Z M 177.85945 780.29518 L 177.85945 811.1655 L 207.21889 820.70497 L 225.36402 795.73034 L 207.21889 770.75571 Z M 315.49927 795.73034 L 333.6444 820.70497 L 363.00384 811.1655 L 363.00384 780.29518 L 333.6444 770.75571 Z M 153.44382 747.43458 L 152.94545 747.94569 L 152.47343 748.48136 L 152.34422 748.56229 L 152.23778 748.67145 L 151.61441 749.01939 L 151.00936 749.39835 L 150.86243 749.43911 L 150.72932 749.51341 L 150.03266 749.66932 L 149.3447 749.86018 L 149.19228 749.85739 L 149.04348 749.89069 L 148.68857 749.84817 L 147.61746 749.82857 L 147.06691 749.6539 L 146.73562 749.61421 L 140.20823 747.49333 L 140.20823 759.34304 L 171.85945 769.62715 L 207.65658 757.99595 L 209.3593 757.7042 L 211.07457 757.90969 L 212.66019 758.59538 L 214.36478 760.17558 L 236.48862 790.62643 L 268.13986 800.91055 L 275.10493 791.32394 L 268.57755 789.20306 L 268.20682 789.02002 L 267.81274 788.89499 L 267.43637 788.63962 L 267.02853 788.43826 L 266.72534 788.15719 L 266.3832 787.92505 L 266.09517 787.573 L 265.76163 787.2638 L 265.55109 786.90799 L 265.28928 786.588 L 265.11351 786.16851 L 264.88187 785.77706 L 264.82163 785.47193 L 264.62165 784.99468 L 264.4932 783.80847 L 264.43165 783.49672 L 264.43165 752.16617 L 234.63452 761.84784 L 232.9318 762.13959 L 231.21653 761.9341 L 229.63091 761.24841 L 227.92632 759.66821 L 216.10714 743.4005 L 196.98329 749.61421 L 195.28057 749.90596 L 193.5653 749.70047 L 191.97968 749.01478 L 190.27509 747.43458 L 171.85945 722.08763 Z M 337.35261 699.6462 L 337.10391 701.35574 L 336.37844 702.92356 L 335.23632 704.21969 L 333.77225 705.13668 L 333.41674 705.23531 L 333.20671 705.35254 L 314.08287 711.56625 L 314.08287 731.67425 L 313.83417 733.38379 L 313.1087 734.95161 L 311.96658 736.24774 L 309.93697 737.38059 L 280.13985 747.06226 L 298.55548 772.40921 L 298.72853 772.73851 L 298.95342 773.03487 L 299.02001 773.29316 L 299.35912 773.93844 L 299.69374 775.63325 L 299.67489 775.83318 L 299.70138 775.93592 L 299.59861 776.64236 L 299.5316 777.35316 L 299.47851 777.46788 L 299.45268 777.64546 L 298.72721 779.21328 L 298.60855 779.34794 L 298.55548 779.46263 L 294.52133 785.01516 L 305.79108 788.67692 L 325.35261 761.75278 L 325.35261 724.11345 L 325.60131 722.40391 L 326.32678 720.83609 L 327.4689 719.53996 L 329.49851 718.40711 L 365.29564 706.77592 L 384.85718 679.85178 L 377.89209 670.26516 L 373.85794 675.81769 L 373.35957 676.3288 L 372.88755 676.86447 L 372.75834 676.9454 L 372.6519 677.05456 L 372.0285 677.40252 L 371.42348 677.78146 L 371.27657 677.82222 L 371.14343 677.89653 L 370.44669 678.05245 L 369.75882 678.24329 L 369.6064 678.2405 L 369.4576 678.2738 L 369.10269 678.23128 L 368.03158 678.21168 L 367.48103 678.03701 L 367.14974 677.99732 L 337.35261 668.31565 Z M 276.43165 779.13746 L 282.52134 781.11612 L 286.28498 775.93592 L 276.43165 762.37397 Z M 337.35261 728.47271 L 337.35261 759.34303 L 366.71205 768.8825 L 384.85717 743.90787 L 366.71205 718.93325 Z M 238.78042 696.44466 L 238.78042 731.67425 L 238.53172 733.38379 L 237.80625 734.95161 L 236.66413 736.24774 L 234.63452 737.38059 L 228.10713 739.50147 L 235.07221 749.08808 L 302.08287 727.31499 L 302.08287 715.46529 L 295.55548 717.58617 L 294.99971 717.6814 L 294.45636 717.83214 L 294.15241 717.82658 L 293.85276 717.87792 L 293.29289 717.81085 L 292.72912 717.80053 L 292.43934 717.70859 L 292.13749 717.67243 L 291.61997 717.44863 L 291.08247 717.2781 L 290.83088 717.10739 L 290.55187 716.98674 L 290.27564 716.73067 L 289.65293 716.30816 L 289.12872 715.66745 L 288.84728 715.40654 L 268.13986 686.9052 Z M 57.43393 711.87983 L 75.57905 736.85445 L 104.93849 727.31499 L 104.93849 696.44466 L 75.57905 686.9052 Z M 140.20823 728.47271 L 140.20823 734.87579 L 146.29793 736.85445 L 156.15125 723.2925 Z M 173.71355 677.99732 L 172.01083 678.28907 L 170.29556 678.08358 L 168.70994 677.39789 L 167.00535 675.81769 L 162.9712 670.26516 L 156.00612 679.85178 L 197.42098 736.85445 L 208.69073 733.19269 L 204.65658 727.64016 L 203.85294 726.11093 L 203.51832 724.41612 L 203.68046 722.69621 L 204.65658 720.58674 L 225.36401 692.0854 L 207.21889 667.11078 Z M 376.42025 711.87983 L 394.56537 736.85445 L 423.9248 727.31499 L 423.9248 696.44466 L 394.56537 686.9052 Z M 116.93849 592.79973 L 116.93849 626.0798 L 139.06233 656.53065 L 139.86597 658.05988 L 140.20059 659.75469 L 140.03845 661.4746 L 139.06233 663.58407 L 116.93849 694.03491 L 116.93849 727.31499 L 128.20823 730.97675 L 128.20823 724.11345 L 128.22416 724.00393 L 128.21225 723.89392 L 128.34822 723.15118 L 128.45693 722.40391 L 128.5034 722.30348 L 128.52333 722.19462 L 128.86529 721.52141 L 129.1824 720.83609 L 129.25557 720.75306 L 129.30568 720.6544 L 129.82522 720.10658 L 130.32452 719.53996 L 130.40544 719.49479 L 130.49446 719.40093 L 131.9911 718.53812 L 132.21508 718.48472 L 132.35413 718.40711 L 162.15126 708.72544 L 143.73562 683.37849 L 142.93198 681.84926 L 142.59736 680.15445 L 142.7595 678.43454 L 143.73562 676.32507 L 155.5548 660.05736 L 143.73562 643.78965 L 142.93198 642.26042 L 142.59736 640.56561 L 142.7595 638.8457 L 143.73562 636.73623 L 162.15125 611.38928 L 132.35413 601.7076 L 131.9834 601.52456 L 131.58932 601.39953 L 131.21295 601.14416 L 130.80511 600.9428 L 130.50192 600.66173 L 130.15978 600.42959 L 129.87175 600.07754 L 129.53821 599.76834 L 129.32767 599.41253 L 129.06586 599.09254 L 128.89009 598.67305 L 128.65845 598.2816 L 128.59821 597.97647 L 128.39823 597.49922 L 128.26978 596.31301 L 128.20823 596.00126 L 128.20823 589.13796 Z M 216.92708 724.11345 L 220.69072 729.29366 L 226.78042 727.31499 L 226.78042 710.5515 Z M 295.99317 704.82641 L 302.08287 702.84774 L 302.08287 696.44466 L 286.13984 691.26445 Z M 314.08287 628.02931 L 313.83417 629.73885 L 313.1087 631.30667 L 311.96658 632.6028 L 310.50251 633.51979 L 310.147 633.61842 L 309.93697 633.73565 L 276.43165 644.62219 L 276.43165 675.49252 L 309.93697 686.37906 L 311.48599 687.14386 L 312.75289 688.31832 L 313.63265 689.80506 L 314.08287 692.0854 L 314.08287 698.94871 L 325.35261 695.28694 L 325.35261 624.82778 L 314.08287 621.16601 Z M 79.28726 644.6222 L 79.28726 675.49252 L 108.6467 685.03198 L 126.79182 660.05736 L 108.6467 635.08273 Z M 216.92709 660.05736 L 235.07221 685.03198 L 264.43165 675.49252 L 264.43165 644.6222 L 235.07221 635.08273 Z M 170.38761 660.05736 L 174.15124 665.23756 L 190.09427 660.05736 L 174.15124 654.87715 Z M 350.76902 660.05736 L 366.71205 665.23756 L 370.47568 660.05736 L 366.71205 654.87715 Z M 156.00612 640.26294 L 162.9712 649.84955 L 167.00535 644.29702 L 168.21139 643.06015 L 169.71985 642.21819 L 171.40569 641.84091 L 173.71355 642.11739 L 207.21889 653.00394 L 225.36402 628.02931 L 204.65658 599.52797 L 204.5345 599.29567 L 204.36831 599.09254 L 204.13444 598.5344 L 203.85294 597.99874 L 203.80211 597.74128 L 203.70068 597.49922 L 203.63553 596.8976 L 203.51832 596.30393 L 203.54295 596.04264 L 203.5147 595.78173 L 203.62366 595.18652 L 203.68046 594.58402 L 203.76897 594.39273 L 203.82578 594.08243 L 204.60813 592.54221 L 204.6416 592.50691 L 204.65658 592.47455 L 208.69073 586.92203 L 197.42098 583.26026 Z M 294.52133 535.09956 L 298.55548 540.65209 L 298.72853 540.98139 L 298.95342 541.27775 L 299.02001 541.53604 L 299.35912 542.18132 L 299.69374 543.87613 L 299.67489 544.07606 L 299.70138 544.1788 L 299.59861 544.88524 L 299.5316 545.59604 L 299.47851 545.71076 L 299.45268 545.88834 L 298.72721 547.45616 L 298.60855 547.59082 L 298.55548 547.70551 L 280.13985 573.05246 L 309.93697 582.73413 L 311.48599 583.49893 L 312.75289 584.67339 L 313.63265 586.16013 L 314.08287 588.44047 L 314.08287 608.54847 L 333.20671 614.76218 L 333.67532 614.99355 L 334.16728 615.16969 L 334.44588 615.374 L 334.75573 615.52698 L 335.139 615.88229 L 335.56037 616.19129 L 335.76923 616.46653 L 336.02263 616.70144 L 336.28876 617.15118 L 336.60465 617.56747 L 336.65836 617.77578 L 336.90239 618.18818 L 337.35261 620.46852 L 337.35261 651.79907 L 367.14974 642.11739 L 367.81279 642.00378 L 368.46715 641.84778 L 368.66106 641.85844 L 368.85246 641.82564 L 369.5204 641.90566 L 370.19208 641.94257 L 370.37491 642.00803 L 370.56773 642.03113 L 371.18517 642.29814 L 371.81851 642.5249 L 371.97511 642.63974 L 372.15335 642.71682 L 372.43023 642.97349 L 373.2116 643.5465 L 373.59887 644.05686 L 373.85794 644.29702 L 377.89209 649.84955 L 384.85717 640.26294 L 365.29564 613.3388 L 329.49851 601.7076 L 327.94949 600.9428 L 326.68259 599.76834 L 325.80283 598.2816 L 325.35261 596.00126 L 325.35261 558.36193 L 305.79108 531.4378 Z M 57.43392 608.23489 L 75.57905 633.20952 L 104.93849 623.67005 L 104.93849 592.79973 L 75.57905 583.26026 Z M 228.10713 580.61325 L 234.63452 582.73413 L 236.18354 583.49893 L 237.45044 584.67339 L 238.3302 586.16013 L 238.78042 588.44047 L 238.78042 623.67005 L 268.13986 633.20952 L 288.84728 604.70818 L 289.42167 604.11911 L 289.98761 603.52237 L 290.02397 603.50141 L 290.05332 603.47131 L 290.7719 603.07023 L 291.48425 602.65956 L 291.52511 602.64982 L 291.56178 602.62935 L 292.36452 602.4497 L 293.16469 602.25894 L 293.20662 602.26124 L 293.24762 602.25207 L 293.42384 602.27318 L 294.88962 602.35373 L 295.28859 602.49658 L 295.55548 602.52855 L 302.08287 604.64943 L 302.08287 592.79973 L 235.07221 571.02664 Z M 376.42024 608.23489 L 394.56537 633.20952 L 423.9248 623.67006 L 423.9248 592.79972 L 394.56537 583.26026 Z M 286.13985 628.85026 L 302.08287 623.67006 L 302.08287 617.26698 L 295.99317 615.28831 Z M 216.92709 596.00126 L 226.78042 609.56321 L 226.78042 592.79973 L 220.69072 590.82106 Z M 337.35261 560.77168 L 337.35261 591.642 L 366.71205 601.18147 L 384.85717 576.20684 L 366.71205 551.23222 Z M 236.48862 529.48829 L 214.36478 559.93913 L 213.15874 561.176 L 211.65027 562.01797 L 209.96444 562.39524 L 207.65658 562.11876 L 171.85945 550.48757 L 140.20823 560.77168 L 140.20823 572.62138 L 146.73562 570.5005 L 148.43834 570.20875 L 150.15361 570.41424 L 151.73923 571.09993 L 153.44382 572.68013 L 171.85945 598.02709 L 190.27509 572.68013 L 191.48113 571.44326 L 192.98959 570.6013 L 194.67543 570.22402 L 196.98329 570.5005 L 216.10714 576.71422 L 227.92632 560.44651 L 228.50071 559.85744 L 229.06665 559.2607 L 229.10301 559.23974 L 229.13236 559.20964 L 229.85106 558.80849 L 230.56329 558.39789 L 230.60413 558.38815 L 230.64083 558.36767 L 231.44384 558.18797 L 232.24373 557.99727 L 232.28566 557.99957 L 232.32666 557.9904 L 232.50288 558.01151 L 233.96866 558.09206 L 234.36763 558.23491 L 234.63452 558.26688 L 264.43165 567.94855 L 264.43165 536.618 L 264.44758 536.50848 L 264.43567 536.39847 L 264.57164 535.65573 L 264.68035 534.90846 L 264.72682 534.80803 L 264.74675 534.69917 L 265.08871 534.02596 L 265.40582 533.34064 L 265.47899 533.25761 L 265.5291 533.15895 L 266.04864 532.61113 L 266.54794 532.04451 L 266.62886 531.99934 L 266.71788 531.90548 L 268.21452 531.04267 L 268.4385 530.98927 L 268.57755 530.91166 L 275.10493 528.79078 L 268.13986 519.20417 Z M 140.20823 585.23893 L 140.20823 591.64201 L 156.15125 596.82221 L 146.29793 583.26026 Z M 276.43165 540.97726 L 276.43165 557.74074 L 286.28498 544.1788 L 282.52134 538.9986 Z M 118.3549 524.38438 L 136.50002 549.359 L 165.85945 539.81954 L 165.85945 508.94921 L 136.50002 499.40975 Z M 177.85945 508.94921 L 177.85945 539.81954 L 207.21889 549.359 L 225.36401 524.38438 L 207.21889 499.40975 Z M 315.49928 524.38438 L 333.6444 549.359 L 363.00384 539.81954 L 363.00384 508.94921 L 333.6444 499.40975 Z M 216.92708 492.35633 L 235.07221 517.33096 L 264.43165 507.79149 L 264.43165 476.92117 L 235.07221 467.3817 Z" stroke-miterlimit="10"/><path fill="#222222" stroke="#cccccc" paint-order="fill stroke markers" d=" M 663.07777 454.11205 L 664.66339 454.79774 L 666.36798 456.37794 L 675.82377 469.39272 L 691.12357 464.42152 L 692.82629 464.12977 L 694.54156 464.33526 L 696.12718 465.02095 L 697.83177 466.60115 L 709.84987 483.14264 L 710.65351 484.67186 L 710.98813 486.36668 L 710.82599 488.08659 L 709.84987 490.19606 L 700.39407 503.21084 L 707.28756 512.69892 L 718.44146 509.0748 L 718.44146 492.98764 L 718.45739 492.87812 L 718.44548 492.76811 L 718.58145 492.02537 L 718.69016 491.2781 L 718.73663 491.17767 L 718.75656 491.06881 L 719.09852 490.3956 L 719.41563 489.71028 L 719.4888 489.62725 L 719.53891 489.52859 L 720.05845 488.98077 L 720.55775 488.41415 L 720.63867 488.36898 L 720.72769 488.27512 L 722.22433 487.41231 L 722.44831 487.35891 L 722.58736 487.2813 L 742.03305 480.96301 L 742.6961 480.8494 L 743.35046 480.6934 L 743.54437 480.70406 L 743.73577 480.67126 L 744.40371 480.75128 L 745.07539 480.78819 L 745.25822 480.85365 L 745.45104 480.87675 L 746.06848 481.14376 L 746.70182 481.37052 L 746.85842 481.48536 L 747.03666 481.56244 L 747.31354 481.81911 L 748.09491 482.39212 L 748.48218 482.90248 L 748.74125 483.14264 L 758.19704 496.15742 L 773.49684 491.18621 L 774.15989 491.0726 L 774.81425 490.9166 L 775.00816 490.92726 L 775.19956 490.89446 L 775.8675 490.97448 L 776.53918 491.01139 L 776.72201 491.07685 L 776.91483 491.09995 L 777.53227 491.36696 L 778.16561 491.59372 L 778.32221 491.70856 L 778.50045 491.78564 L 778.77733 492.04231 L 779.5587 492.61532 L 779.94597 493.12568 L 780.20504 493.36584 L 792.22314 509.90734 L 792.39619 510.23664 L 792.62108 510.533 L 792.68767 510.79129 L 793.02678 511.43657 L 793.3614 513.13138 L 793.34255 513.33131 L 793.36904 513.43405 L 793.26627 514.14049 L 793.19926 514.85129 L 793.14617 514.96601 L 793.12034 515.14359 L 792.39487 516.71141 L 792.27621 516.84607 L 792.22314 516.96076 L 782.76735 529.97554 L 789.66083 539.46361 L 804.96063 534.49241 L 805.62368 534.3788 L 806.27804 534.2228 L 806.47195 534.23346 L 806.66335 534.20066 L 807.33129 534.28068 L 808.00297 534.31759 L 808.1858 534.38305 L 808.37862 534.40615 L 808.99606 534.67316 L 809.6294 534.89992 L 809.786 535.01476 L 809.96424 535.09184 L 810.24112 535.34851 L 811.02249 535.92152 L 811.40976 536.43188 L 811.66883 536.67204 L 823.68693 553.21353 L 823.85998 553.54283 L 824.08487 553.83919 L 824.15146 554.09747 L 824.49057 554.74275 L 824.82519 556.43757 L 824.80634 556.6375 L 824.83283 556.74024 L 824.73006 557.44668 L 824.66305 558.15748 L 824.60996 558.2722 L 824.58413 558.44978 L 823.85866 560.0176 L 823.74 560.15226 L 823.68693 560.26695 L 814.23113 573.28173 L 821.12462 582.76981 L 836.42442 577.7986 L 837.08747 577.68499 L 837.74183 577.52899 L 837.93574 577.53965 L 838.12714 577.50685 L 838.79508 577.58687 L 839.46676 577.62378 L 839.64959 577.68924 L 839.84241 577.71234 L 840.45985 577.97935 L 841.09319 578.20611 L 841.24979 578.32095 L 841.42803 578.39803 L 841.70491 578.6547 L 842.48628 579.22771 L 842.87355 579.73807 L 843.13262 579.97823 L 855.15072 596.51972 L 855.32377 596.84902 L 855.54866 597.14538 L 855.61525 597.40366 L 855.95436 598.04894 L 856.28898 599.74376 L 856.27013 599.94369 L 856.29662 600.04643 L 856.19385 600.75287 L 856.12684 601.46367 L 856.07375 601.57839 L 856.04792 601.75597 L 855.32245 603.32379 L 855.20379 603.45845 L 855.15072 603.57314 L 845.69492 616.58792 L 855.15072 629.60271 L 855.32377 629.93201 L 855.54866 630.22837 L 855.61525 630.48666 L 855.95436 631.13194 L 856.28898 632.82675 L 856.27013 633.02668 L 856.29662 633.12942 L 856.19385 633.83586 L 856.12684 634.54666 L 856.07375 634.66138 L 856.04792 634.83896 L 855.32245 636.40678 L 855.20379 636.54144 L 855.15072 636.65613 L 843.13262 653.19762 L 842.63425 653.70873 L 842.16223 654.2444 L 842.03302 654.32533 L 841.92658 654.43449 L 841.30318 654.78245 L 840.69816 655.16139 L 840.55125 655.20215 L 840.41811 655.27646 L 839.72137 655.43238 L 839.0335 655.62322 L 838.88108 655.62043 L 838.73228 655.65373 L 838.37737 655.61121 L 837.30626 655.59161 L 836.75571 655.41694 L 836.42442 655.37725 L 821.12462 650.40604 L 814.23113 659.89412 L 821.12462 669.38219 L 836.42442 664.41098 L 838.12714 664.11923 L 839.84241 664.32472 L 841.42803 665.01041 L 843.13262 666.59061 L 855.15072 683.1321 L 855.95436 684.66132 L 856.28898 686.35614 L 856.12684 688.07605 L 855.15072 690.18552 L 845.69492 703.20031 L 855.15072 716.21509 L 855.95436 717.74431 L 856.28898 719.43913 L 856.12684 721.15904 L 855.15072 723.26851 L 843.13262 739.81 L 841.92658 741.04687 L 840.41811 741.88884 L 838.73228 742.26611 L 836.42442 741.98963 L 821.12462 737.01842 L 814.23113 746.5065 L 823.68693 759.52128 L 824.49057 761.0505 L 824.82519 762.74532 L 824.66305 764.46523 L 823.68693 766.5747 L 811.66883 783.11619 L 810.46279 784.35306 L 808.95432 785.19503 L 807.26849 785.5723 L 804.96063 785.29582 L 789.66083 780.32462 L 782.76735 789.81269 L 792.22314 802.82747 L 793.02678 804.35669 L 793.3614 806.05151 L 793.19926 807.77142 L 792.22314 809.88089 L 780.20504 826.42239 L 778.999 827.65926 L 777.49054 828.50122 L 775.8047 828.8785 L 773.49684 828.60202 L 758.19704 823.63081 L 748.74125 836.64559 L 747.53521 837.88246 L 746.02674 838.72443 L 744.34091 839.1017 L 742.03305 838.82522 L 722.58736 832.50693 L 721.03834 831.74213 L 719.77144 830.56767 L 718.89168 829.08093 L 718.44146 826.80059 L 718.44146 810.71343 L 707.28756 807.08931 L 700.39407 816.57739 L 709.84987 829.59217 L 710.02292 829.92147 L 710.24781 830.21783 L 710.3144 830.47611 L 710.65351 831.12139 L 710.98813 832.81621 L 710.96928 833.01614 L 710.99577 833.11888 L 710.893 833.82532 L 710.82599 834.53612 L 710.7729 834.65084 L 710.74707 834.82842 L 710.0216 836.39624 L 709.90294 836.5309 L 709.84987 836.64559 L 697.83177 853.18708 L 697.3334 853.69819 L 696.86138 854.23386 L 696.73217 854.31479 L 696.62573 854.42395 L 696.00233 854.77191 L 695.39731 855.15085 L 695.2504 855.19161 L 695.11726 855.26592 L 694.42052 855.42184 L 693.73265 855.61268 L 693.58023 855.60989 L 693.43143 855.64319 L 693.07652 855.60067 L 692.00541 855.58107 L 691.45486 855.4064 L 691.12357 855.36671 L 675.82377 850.39551 L 666.36798 863.41029 L 665.86961 863.9214 L 665.39759 864.45707 L 665.26838 864.538 L 665.16194 864.64716 L 664.53854 864.99512 L 663.93352 865.37406 L 663.78661 865.41482 L 663.65347 865.48913 L 662.95673 865.64505 L 662.26886 865.83589 L 662.11644 865.8331 L 661.96764 865.8664 L 661.61273 865.82388 L 660.54162 865.80428 L 659.99107 865.62961 L 659.65978 865.58992 L 640.21409 859.27163 L 639.84336 859.08859 L 639.44928 858.96356 L 639.07291 858.70819 L 638.66507 858.50683 L 638.36188 858.22576 L 638.01974 857.99362 L 637.73171 857.64157 L 637.39817 857.33237 L 637.18763 856.97656 L 636.92582 856.65657 L 636.75005 856.23708 L 636.51841 855.84563 L 636.45817 855.5405 L 636.25819 855.06325 L 636.12974 853.87704 L 636.06819 853.56529 L 636.06819 837.47813 L 624.91429 833.85401 L 615.4585 846.8688 L 614.96013 847.37991 L 614.48811 847.91558 L 614.3589 847.99651 L 614.25246 848.10567 L 613.62909 848.45361 L 613.02404 848.83257 L 612.87711 848.87333 L 612.744 848.94763 L 612.04734 849.10354 L 611.35938 849.2944 L 611.20696 849.29161 L 611.05816 849.32491 L 610.70325 849.28239 L 609.63214 849.26279 L 609.08159 849.08812 L 608.7503 849.04843 L 589.30461 842.73014 L 588.93388 842.5471 L 588.5398 842.42207 L 588.16343 842.1667 L 587.75559 841.96534 L 587.4524 841.68427 L 587.11026 841.45213 L 586.82223 841.10008 L 586.48869 840.79088 L 586.27815 840.43507 L 586.01634 840.11508 L 585.84057 839.69559 L 585.60893 839.30414 L 585.54869 838.99901 L 585.34871 838.52176 L 585.22026 837.33555 L 585.15871 837.0238 L 585.15871 820.93664 L 574.00481 817.31252 L 564.54902 830.3273 L 564.05065 830.83841 L 563.57863 831.37408 L 563.44942 831.45501 L 563.34298 831.56417 L 562.71958 831.91213 L 562.11456 832.29107 L 561.96765 832.33183 L 561.83451 832.40614 L 561.13777 832.56206 L 560.4499 832.7529 L 560.29748 832.75011 L 560.14868 832.78341 L 559.79377 832.74089 L 558.72266 832.72129 L 558.17211 832.54662 L 557.84082 832.50693 L 538.39513 826.18864 L 538.0244 826.0056 L 537.63032 825.88057 L 537.25395 825.6252 L 536.84611 825.42384 L 536.54292 825.14277 L 536.20078 824.91063 L 535.91275 824.55858 L 535.57921 824.24938 L 535.36867 823.89357 L 535.10686 823.57358 L 534.93109 823.15409 L 534.69945 822.76264 L 534.63921 822.45751 L 534.43923 821.98026 L 534.31078 820.79405 L 534.24923 820.4823 L 534.24923 804.39515 L 518.94944 799.42395 L 518.57871 799.24091 L 518.18463 799.11588 L 517.80826 798.86051 L 517.40042 798.65915 L 517.09722 798.37807 L 516.75509 798.14594 L 516.46708 797.79392 L 516.13352 797.4847 L 515.92296 797.12886 L 515.66117 796.80889 L 515.48541 796.38944 L 515.25376 795.99796 L 515.19351 795.69281 L 514.99354 795.21557 L 514.86509 794.02936 L 514.80354 793.71761 L 514.80354 773.2712 L 514.81947 773.16168 L 514.80756 773.05167 L 514.94353 772.30893 L 515.05224 771.56166 L 515.09871 771.46123 L 515.11864 771.35237 L 515.4606 770.67916 L 515.77771 769.99384 L 515.85088 769.91081 L 515.90099 769.81215 L 516.42053 769.26433 L 516.91983 768.69771 L 517.00075 768.65254 L 517.08977 768.55868 L 518.58641 767.69587 L 518.81039 767.64247 L 518.94944 767.56486 L 534.24923 762.59366 L 534.24923 750.86575 L 523.09533 747.24163 L 513.63954 760.25641 L 512.4335 761.49328 L 510.92503 762.33525 L 509.2392 762.71252 L 506.93134 762.43604 L 487.48565 756.11775 L 485.93663 755.35295 L 484.66973 754.17849 L 483.78997 752.69175 L 483.33975 750.41141 L 483.33975 734.32426 L 468.03996 729.35306 L 466.49094 728.58826 L 465.22404 727.41381 L 464.34428 725.92707 L 463.89406 723.64672 L 463.89406 703.20031 L 464.14276 701.49077 L 464.86823 699.92295 L 466.01035 698.62682 L 468.03996 697.49397 L 483.33975 692.52277 L 483.33975 680.79486 L 468.03996 675.82366 L 466.49094 675.05886 L 465.22404 673.8844 L 464.34428 672.39766 L 463.89406 670.11732 L 463.89406 649.67091 L 463.90999 649.56139 L 463.89808 649.45138 L 464.03405 648.70864 L 464.14276 647.96137 L 464.18923 647.86094 L 464.20916 647.75208 L 464.55112 647.07887 L 464.86823 646.39355 L 464.9414 646.31052 L 464.99151 646.21186 L 465.51105 645.66404 L 466.01035 645.09742 L 466.09127 645.05225 L 466.18029 644.95839 L 467.67693 644.09558 L 467.90091 644.04218 L 468.03996 643.96457 L 483.33975 638.99337 L 483.33975 627.26546 L 468.03996 622.29426 L 467.66923 622.11122 L 467.27515 621.98619 L 466.89878 621.73082 L 466.49094 621.52946 L 466.18775 621.24839 L 465.84561 621.01625 L 465.55758 620.6642 L 465.22404 620.355 L 465.0135 619.99919 L 464.75169 619.6792 L 464.57592 619.25971 L 464.34428 618.86826 L 464.28404 618.56313 L 464.08406 618.08588 L 463.95561 616.89967 L 463.89406 616.58792 L 463.89406 596.14151 L 463.90999 596.03199 L 463.89808 595.92198 L 464.03405 595.17924 L 464.14276 594.43197 L 464.18923 594.33154 L 464.20916 594.22268 L 464.55112 593.54947 L 464.86823 592.86415 L 464.9414 592.78112 L 464.99151 592.68246 L 465.51105 592.13464 L 466.01035 591.56802 L 466.09127 591.52285 L 466.18029 591.42899 L 467.67693 590.56618 L 467.90091 590.51278 L 468.03996 590.43517 L 483.33975 585.46397 L 483.33975 569.37682 L 483.35568 569.2673 L 483.34377 569.15729 L 483.47974 568.41455 L 483.58845 567.66728 L 483.63492 567.56685 L 483.65485 567.45799 L 483.99681 566.78478 L 484.31392 566.09946 L 484.38709 566.01643 L 484.4372 565.91777 L 484.95674 565.36995 L 485.45604 564.80333 L 485.53696 564.75816 L 485.62598 564.6643 L 487.12262 563.80149 L 487.3466 563.74809 L 487.48565 563.67048 L 506.93134 557.35219 L 507.59439 557.23858 L 508.24875 557.08258 L 508.44266 557.09324 L 508.63406 557.06044 L 509.302 557.14046 L 509.97368 557.17737 L 510.15651 557.24283 L 510.34933 557.26593 L 510.96677 557.53294 L 511.60011 557.7597 L 511.75671 557.87454 L 511.93495 557.95162 L 512.21183 558.20829 L 512.9932 558.7813 L 513.38047 559.29166 L 513.63954 559.53182 L 523.09533 572.5466 L 534.24923 568.92248 L 534.24923 557.19457 L 518.94944 552.22337 L 517.40042 551.45857 L 516.13352 550.28411 L 515.25376 548.79737 L 514.80354 546.51703 L 514.80354 526.07062 L 515.05224 524.36108 L 515.77771 522.79326 L 516.91983 521.49713 L 518.94944 520.36428 L 534.24923 515.39308 L 534.24923 499.30593 L 534.49793 497.59639 L 535.2234 496.02857 L 536.36552 494.73244 L 538.39513 493.59959 L 557.84082 487.2813 L 559.54354 486.98955 L 561.25881 487.19504 L 562.84443 487.88073 L 564.54902 489.46093 L 574.00481 502.47571 L 585.15871 498.85159 L 585.15871 482.76443 L 585.40741 481.05489 L 586.13288 479.48707 L 587.275 478.19094 L 589.30461 477.05809 L 608.7503 470.7398 L 610.45302 470.44805 L 612.16829 470.65354 L 613.75391 471.33923 L 615.4585 472.91943 L 624.91429 485.93422 L 636.06819 482.3101 L 636.06819 466.22294 L 636.31689 464.5134 L 637.04236 462.94558 L 638.18448 461.64945 L 640.21409 460.5166 L 659.65978 454.19831 L 661.3625 453.90656 Z M 627.4766 723.26851 L 626.27056 724.50538 L 624.76209 725.34735 L 623.07626 725.72462 L 620.7684 725.44814 L 605.4686 720.47693 L 598.57511 729.965 L 608.03091 742.97979 L 608.83455 744.50902 L 609.16917 746.20383 L 609.00703 747.92374 L 608.03091 750.03321 L 596.01281 766.5747 L 594.80677 767.81157 L 593.2983 768.65354 L 591.61247 769.03081 L 589.30461 768.75433 L 574.00481 763.78312 L 564.54902 776.79791 L 563.34298 778.03478 L 561.83452 778.87674 L 560.14868 779.25402 L 557.84082 778.97754 L 540.24923 773.26168 L 526.80354 777.63045 L 526.80354 789.35835 L 542.10333 794.32955 L 542.57194 794.56092 L 543.0639 794.73706 L 543.3425 794.94137 L 543.65235 795.09435 L 544.03564 795.44967 L 544.45699 795.75866 L 544.66582 796.03387 L 544.91925 796.2688 L 545.1854 796.71858 L 545.50127 797.13484 L 545.55497 797.34313 L 545.79901 797.75554 L 546.24923 800.03589 L 546.24923 816.12305 L 557.40313 819.74717 L 566.85892 806.73239 L 567.43331 806.14332 L 567.99925 805.54658 L 568.03561 805.52562 L 568.06496 805.49552 L 568.78366 805.09437 L 569.49589 804.68377 L 569.53673 804.67403 L 569.57343 804.65355 L 570.37644 804.47385 L 571.17633 804.28315 L 571.21826 804.28545 L 571.25926 804.27628 L 571.43548 804.29739 L 572.90126 804.37794 L 573.30023 804.52079 L 573.56712 804.55276 L 593.01281 810.87105 L 593.48142 811.10242 L 593.97338 811.27856 L 594.25198 811.48287 L 594.56183 811.63585 L 594.9451 811.99116 L 595.36647 812.30016 L 595.57533 812.5754 L 595.82873 812.81031 L 596.09486 813.26005 L 596.41075 813.67634 L 596.46446 813.88465 L 596.70849 814.29705 L 597.15871 816.57739 L 597.15871 832.66455 L 608.31261 836.28867 L 617.7684 823.27388 L 618.34279 822.68481 L 618.90873 822.08807 L 618.94509 822.06711 L 618.97444 822.03701 L 619.69302 821.63593 L 620.40537 821.22526 L 620.44623 821.21552 L 620.4829 821.19505 L 621.28564 821.0154 L 622.08581 820.82464 L 622.12774 820.82694 L 622.16874 820.81777 L 622.34496 820.83888 L 623.81074 820.91943 L 624.20971 821.06228 L 624.4766 821.09425 L 643.92229 827.41254 L 644.3909 827.64391 L 644.88286 827.82005 L 645.16146 828.02436 L 645.47131 828.17734 L 645.85458 828.53265 L 646.27595 828.84165 L 646.48481 829.11689 L 646.73821 829.3518 L 647.00434 829.80154 L 647.32023 830.21783 L 647.37394 830.42614 L 647.61797 830.83854 L 648.06819 833.11888 L 648.06819 849.20604 L 659.22209 852.83016 L 668.67788 839.81538 L 669.25227 839.22631 L 669.81821 838.62957 L 669.85457 838.60861 L 669.88392 838.57851 L 670.60262 838.17736 L 671.31485 837.76676 L 671.35569 837.75702 L 671.39239 837.73654 L 672.1954 837.55684 L 672.99529 837.36614 L 673.03722 837.36844 L 673.07822 837.35927 L 673.25444 837.38038 L 674.72022 837.46093 L 675.11919 837.60378 L 675.38608 837.63575 L 690.68588 842.60695 L 697.57936 833.11888 L 689.26947 821.6813 L 671.67788 815.96544 L 670.12886 815.20064 L 668.86196 814.02618 L 667.9822 812.53944 L 667.53198 810.2591 L 667.53198 794.17194 L 652.23219 789.20074 L 650.68317 788.43594 L 649.41627 787.26148 L 648.53651 785.77474 L 648.08629 783.4944 L 648.08629 763.04799 L 648.33499 761.33845 L 649.06046 759.77063 L 650.20258 758.4745 L 652.23219 757.34165 L 667.53198 752.37045 L 667.53198 740.64254 L 652.23219 735.67134 L 650.68317 734.90654 L 649.41627 733.73208 L 648.53651 732.24534 L 648.08629 729.965 L 648.08629 713.87785 L 636.93239 710.25373 Z M 822.54103 681.53952 L 811.66883 696.50381 L 811.17046 697.01492 L 810.69844 697.55059 L 810.56923 697.63152 L 810.46279 697.74068 L 809.83939 698.08864 L 809.23437 698.46758 L 809.08746 698.50834 L 808.95432 698.58265 L 808.25758 698.73857 L 807.56971 698.92941 L 807.41729 698.92662 L 807.26849 698.95992 L 806.91358 698.9174 L 805.84247 698.8978 L 805.29192 698.72313 L 804.96063 698.68344 L 789.66083 693.71223 L 780.20504 706.72702 L 779.70667 707.23813 L 779.23465 707.7738 L 779.10544 707.85473 L 778.999 707.96389 L 778.37563 708.31183 L 777.77058 708.69079 L 777.62365 708.73155 L 777.49054 708.80585 L 776.79388 708.96176 L 776.10592 709.15262 L 775.9535 709.14983 L 775.8047 709.18313 L 775.44979 709.14061 L 774.37868 709.12101 L 773.82813 708.94634 L 773.49684 708.90665 L 754.05115 702.58836 L 753.68042 702.40532 L 753.28634 702.28029 L 752.90997 702.02492 L 752.50213 701.82356 L 752.19894 701.54249 L 751.8568 701.31035 L 751.56877 700.9583 L 751.23523 700.6491 L 751.02469 700.29329 L 750.76288 699.9733 L 750.58711 699.55381 L 750.35547 699.16236 L 750.29523 698.85723 L 750.09525 698.37998 L 749.9668 697.19377 L 749.90525 696.88202 L 749.90525 680.79486 L 738.75135 677.17074 L 729.29556 690.18552 L 728.79719 690.69663 L 728.32517 691.2323 L 728.19596 691.31323 L 728.08952 691.42239 L 727.46612 691.77035 L 726.8611 692.14929 L 726.71419 692.19005 L 726.58105 692.26436 L 725.88431 692.42028 L 725.19644 692.61112 L 725.04402 692.60833 L 724.89522 692.64163 L 724.54031 692.59911 L 723.4692 692.57951 L 722.91865 692.40484 L 722.58736 692.36515 L 707.28756 687.39395 L 700.39408 696.88202 L 709.84987 709.8968 L 710.02292 710.2261 L 710.24781 710.52246 L 710.3144 710.78074 L 710.65351 711.42602 L 710.98813 713.12084 L 710.96928 713.32077 L 710.99577 713.42351 L 710.893 714.12995 L 710.82599 714.84075 L 710.7729 714.95547 L 710.74707 715.13305 L 710.0216 716.70087 L 709.90294 716.83553 L 709.84987 716.95022 L 700.39407 729.965 L 707.28756 739.45308 L 722.58736 734.48187 L 723.25041 734.36826 L 723.90477 734.21226 L 724.09868 734.22292 L 724.29008 734.19012 L 724.95802 734.27014 L 725.6297 734.30705 L 725.81253 734.37251 L 726.00535 734.39561 L 726.62279 734.66262 L 727.25613 734.88938 L 727.41273 735.00422 L 727.59097 735.0813 L 727.86785 735.33797 L 728.64922 735.91098 L 729.03649 736.42134 L 729.29556 736.6615 L 741.31366 753.20299 L 741.48671 753.53229 L 741.7116 753.82865 L 741.77819 754.08693 L 742.1173 754.73221 L 742.45192 756.42703 L 742.43307 756.62696 L 742.45956 756.7297 L 742.35679 757.43614 L 742.28978 758.14694 L 742.23669 758.26166 L 742.21086 758.43924 L 741.48539 760.00706 L 741.36673 760.14172 L 741.31366 760.25641 L 731.85786 773.2712 L 741.31366 786.28598 L 741.48671 786.61528 L 741.7116 786.91164 L 741.77819 787.16992 L 742.1173 787.8152 L 742.45192 789.51002 L 742.43307 789.70995 L 742.45956 789.81269 L 742.35679 790.51913 L 742.28978 791.22993 L 742.23669 791.34465 L 742.21086 791.52223 L 741.48539 793.09005 L 741.36673 793.22471 L 741.31366 793.3394 L 730.44146 808.30369 L 730.44146 822.44134 L 741.59536 826.06546 L 751.05115 813.05068 L 752.25719 811.81381 L 753.76566 810.97184 L 755.45149 810.59457 L 757.75935 810.87105 L 773.05915 815.84226 L 779.95264 806.35418 L 770.49684 793.3394 L 769.6932 791.81018 L 769.35858 790.11536 L 769.52072 788.39545 L 770.49684 786.28598 L 782.51494 769.74449 L 783.72098 768.50762 L 785.22945 767.66565 L 786.91528 767.28838 L 789.22314 767.56486 L 804.52294 772.53606 L 811.41642 763.04799 L 801.96063 750.03321 L 801.15699 748.50399 L 800.82237 746.80917 L 800.98451 745.08926 L 801.96063 742.97979 L 813.97873 726.43829 L 815.18477 725.20142 L 816.69323 724.35946 L 818.37907 723.98218 L 820.68693 724.25866 L 835.98673 729.22987 L 842.88021 719.7418 L 833.42442 706.72702 L 832.62078 705.1978 L 832.28616 703.50298 L 832.4483 701.78307 L 833.42442 699.6736 L 842.88022 686.65881 L 835.98673 677.17074 Z M 679.53198 513.88838 L 679.53198 529.97554 L 679.28328 531.68508 L 678.55781 533.2529 L 677.41569 534.54903 L 675.95162 535.46602 L 675.59611 535.56465 L 675.38608 535.68188 L 660.08629 540.65308 L 660.08629 552.38099 L 675.38608 557.35219 L 675.85469 557.58356 L 676.34665 557.7597 L 676.62525 557.96401 L 676.9351 558.11699 L 677.31837 558.4723 L 677.73974 558.7813 L 677.9486 559.05654 L 678.202 559.29145 L 678.46813 559.74119 L 678.78402 560.15748 L 678.83773 560.36579 L 679.08176 560.77819 L 679.53198 563.05853 L 679.53198 583.50494 L 679.28328 585.21448 L 678.55781 586.7823 L 677.41569 588.07843 L 675.95162 588.99542 L 675.59611 589.09405 L 675.38608 589.21128 L 660.08629 594.18248 L 660.08629 610.26964 L 659.83759 611.97918 L 659.11212 613.547 L 657.97 614.84313 L 656.50593 615.76012 L 656.15042 615.85875 L 655.94039 615.97598 L 636.4947 622.29426 L 635.93893 622.38949 L 635.39558 622.54023 L 635.09163 622.53467 L 634.79198 622.58601 L 634.23211 622.51894 L 633.66834 622.50862 L 633.37856 622.41668 L 633.07671 622.38052 L 632.55919 622.15672 L 632.02169 621.98619 L 631.7701 621.81548 L 631.49109 621.69483 L 631.21486 621.43876 L 630.59215 621.01625 L 630.06794 620.37554 L 629.7865 620.11463 L 620.33071 607.09985 L 605.03091 612.07106 L 604.47514 612.16629 L 603.93179 612.31703 L 603.62784 612.31147 L 603.32819 612.36281 L 602.76832 612.29574 L 602.20455 612.28542 L 601.91477 612.19348 L 601.61292 612.15732 L 601.0954 611.93352 L 600.5579 611.76299 L 600.30631 611.59228 L 600.0273 611.47163 L 599.75107 611.21556 L 599.12836 610.79305 L 598.60415 610.15234 L 598.32271 609.89143 L 586.30461 593.34994 L 586.18253 593.11763 L 586.01634 592.91451 L 585.78248 592.3564 L 585.50097 591.82072 L 585.45013 591.56324 L 585.34871 591.32119 L 585.28356 590.71958 L 585.16635 590.1259 L 585.19098 589.86461 L 585.16273 589.6037 L 585.27169 589.00849 L 585.32849 588.40599 L 585.417 588.2147 L 585.47381 587.9044 L 586.25616 586.36418 L 586.28963 586.32888 L 586.30461 586.29652 L 595.76041 573.28173 L 588.86692 563.79366 L 573.56712 568.76487 L 573.01135 568.8601 L 572.468 569.01084 L 572.16405 569.00528 L 571.8644 569.05662 L 571.30453 568.98955 L 570.74076 568.97923 L 570.45098 568.88729 L 570.14913 568.85113 L 569.63161 568.62733 L 569.09411 568.4568 L 568.84252 568.28609 L 568.56351 568.16544 L 568.28728 567.90937 L 567.66457 567.48686 L 567.14036 566.84615 L 566.85892 566.58524 L 557.40313 553.57045 L 546.24923 557.19457 L 546.24923 573.28173 L 546.00053 574.99127 L 545.27506 576.55909 L 544.13294 577.85522 L 542.10333 578.98807 L 526.80354 583.95927 L 526.80354 595.68718 L 542.10333 600.65838 L 543.65235 601.42318 L 544.91925 602.59764 L 545.79901 604.08438 L 546.24923 606.36472 L 546.24923 622.45188 L 557.40313 626.076 L 566.85892 613.06121 L 568.06496 611.82434 L 569.57342 610.98238 L 571.25926 610.6051 L 573.56712 610.88158 L 593.01281 617.19987 L 594.56183 617.96467 L 595.82873 619.13913 L 596.70849 620.62587 L 597.15871 622.90621 L 597.15871 638.99337 L 612.4585 643.96457 L 614.00752 644.72937 L 615.27442 645.90383 L 616.15418 647.39057 L 616.6044 649.67091 L 616.6044 670.11732 L 616.3557 671.82686 L 615.63023 673.39468 L 614.48811 674.69081 L 612.4585 675.82366 L 597.15871 680.79486 L 597.15871 696.88202 L 596.91001 698.59156 L 596.18454 700.15938 L 595.04242 701.45551 L 593.01281 702.58836 L 573.56712 708.90665 L 571.8644 709.1984 L 570.14913 708.99291 L 568.56351 708.30722 L 566.85892 706.72702 L 557.40313 693.71223 L 546.24923 697.33635 L 546.24923 713.42351 L 546.00053 715.13305 L 545.27506 716.70087 L 544.13294 717.997 L 542.10333 719.12985 L 526.80354 724.10105 L 526.80354 735.82896 L 542.10333 740.80016 L 543.65235 741.56496 L 544.91925 742.73942 L 545.79901 744.22616 L 546.24923 746.5065 L 546.24923 762.59366 L 557.40313 766.21778 L 566.85892 753.20299 L 568.06496 751.96612 L 569.57342 751.12416 L 571.25926 750.74688 L 573.56712 751.02336 L 588.86692 755.99457 L 595.76041 746.5065 L 586.30461 733.49171 L 585.50097 731.96248 L 585.16635 730.26767 L 585.32849 728.54776 L 586.30461 726.43829 L 598.32271 709.8968 L 599.52875 708.65993 L 601.03722 707.81796 L 602.72305 707.44069 L 605.03091 707.71717 L 620.33071 712.68838 L 629.7865 699.6736 L 630.99254 698.43673 L 632.50101 697.59476 L 634.18684 697.21749 L 636.4947 697.49397 L 655.94039 703.81225 L 657.48941 704.57705 L 658.75631 705.7515 L 659.63607 707.23824 L 660.08629 709.51859 L 660.08629 725.60575 L 675.38608 730.57695 L 676.9351 731.34175 L 678.202 732.51621 L 679.08176 734.00295 L 679.53198 736.28329 L 679.53198 756.7297 L 679.28328 758.43924 L 678.55781 760.00706 L 677.41569 761.30319 L 675.38608 762.43604 L 660.08629 767.40724 L 660.08629 779.13515 L 675.38608 784.10635 L 676.9351 784.87115 L 678.202 786.04561 L 679.08176 787.53235 L 679.53198 789.81269 L 679.53198 805.89985 L 690.68588 809.52397 L 700.14167 796.50918 L 701.34771 795.27231 L 702.85617 794.43035 L 704.54201 794.05307 L 706.84987 794.32955 L 722.14967 799.30076 L 729.04315 789.81269 L 719.58736 776.79791 L 719.46528 776.5656 L 719.29909 776.36248 L 719.06523 775.80437 L 718.78372 775.26869 L 718.73288 775.01121 L 718.63146 774.76916 L 718.56631 774.16755 L 718.4491 773.57387 L 718.47373 773.31258 L 718.44548 773.05167 L 718.55444 772.45646 L 718.61124 771.85396 L 718.69975 771.66267 L 718.75656 771.35237 L 719.53891 769.81215 L 719.57238 769.77685 L 719.58736 769.74449 L 729.04316 756.7297 L 722.14967 747.24163 L 706.84987 752.21284 L 706.2941 752.30807 L 705.75075 752.45881 L 705.4468 752.45325 L 705.14715 752.50459 L 704.58728 752.43752 L 704.02351 752.4272 L 703.73373 752.33526 L 703.43188 752.2991 L 702.91436 752.0753 L 702.37686 751.90477 L 702.12527 751.73406 L 701.84626 751.61341 L 701.57003 751.35734 L 700.94732 750.93483 L 700.42311 750.29412 L 700.14167 750.03321 L 688.12357 733.49171 L 688.00149 733.25941 L 687.8353 733.05628 L 687.60143 732.49814 L 687.31993 731.96248 L 687.2691 731.70502 L 687.16767 731.46296 L 687.10252 730.86134 L 686.98531 730.26767 L 687.00994 730.00638 L 686.98169 729.74547 L 687.09065 729.15026 L 687.14745 728.54776 L 687.23596 728.35647 L 687.29277 728.04617 L 688.07512 726.50595 L 688.10859 726.47065 L 688.12357 726.43829 L 697.57936 713.42351 L 688.12357 700.40873 L 688.00149 700.17642 L 687.8353 699.9733 L 687.60144 699.41519 L 687.31993 698.87951 L 687.26909 698.62203 L 687.16767 698.37998 L 687.10252 697.77837 L 686.98531 697.18469 L 687.00994 696.9234 L 686.98169 696.66249 L 687.09065 696.06728 L 687.14745 695.46478 L 687.23596 695.27349 L 687.29277 694.96319 L 688.07512 693.42297 L 688.10859 693.38767 L 688.12357 693.35531 L 700.14167 676.81382 L 700.71606 676.22475 L 701.282 675.62801 L 701.31836 675.60705 L 701.34771 675.57695 L 702.06641 675.1758 L 702.77864 674.7652 L 702.81948 674.75546 L 702.85618 674.73498 L 703.65919 674.55528 L 704.45908 674.36458 L 704.50101 674.36688 L 704.54201 674.35771 L 704.71823 674.37882 L 706.18401 674.45937 L 706.58298 674.60222 L 706.84987 674.63419 L 722.14967 679.60539 L 731.60546 666.59061 L 732.17985 666.00154 L 732.74579 665.4048 L 732.78215 665.38384 L 732.8115 665.35374 L 733.5302 664.95259 L 734.24243 664.54199 L 734.28327 664.53225 L 734.31997 664.51177 L 735.12298 664.33207 L 735.92287 664.14137 L 735.9648 664.14367 L 736.0058 664.1345 L 736.18202 664.15561 L 737.6478 664.23616 L 738.04677 664.37901 L 738.31366 664.41098 L 757.75935 670.72927 L 758.22796 670.96064 L 758.71992 671.13678 L 758.99852 671.34109 L 759.30837 671.49407 L 759.69164 671.84938 L 760.11301 672.15838 L 760.32187 672.43362 L 760.57527 672.66853 L 760.8414 673.11827 L 761.15729 673.53456 L 761.211 673.74287 L 761.45503 674.15527 L 761.90525 676.43561 L 761.90525 692.52277 L 773.05915 696.14689 L 782.51494 683.1321 L 783.08933 682.54303 L 783.65527 681.94629 L 783.69163 681.92533 L 783.72098 681.89523 L 784.43956 681.49415 L 785.15191 681.08348 L 785.19277 681.07374 L 785.22944 681.05327 L 786.03218 680.87362 L 786.83235 680.68286 L 786.87428 680.68516 L 786.91528 680.67599 L 787.0915 680.6971 L 788.55728 680.77765 L 788.95625 680.9205 L 789.22314 680.95247 L 804.52294 685.92368 L 811.41642 676.43561 L 801.96063 663.42083 L 801.15699 661.89161 L 800.82237 660.19679 L 800.98451 658.47688 L 801.96063 656.36741 L 811.41643 643.35262 L 804.52294 633.86455 L 789.22314 638.83576 L 787.52042 639.12751 L 785.80515 638.92202 L 784.21953 638.23633 L 782.51494 636.65613 L 773.05915 623.64134 L 761.90525 627.26546 L 761.90525 643.35262 L 761.65655 645.06216 L 760.93108 646.62998 L 759.78896 647.92611 L 757.75935 649.05896 L 738.31366 655.37725 L 736.61094 655.669 L 734.89567 655.46351 L 733.31005 654.77782 L 731.60546 653.19762 L 722.14967 640.18284 L 706.84987 645.15405 L 705.14715 645.4458 L 703.43188 645.24031 L 701.84626 644.55462 L 700.14167 642.97442 L 688.12357 626.43292 L 687.31993 624.90369 L 686.98531 623.20888 L 687.14745 621.48897 L 688.12357 619.3795 L 697.57936 606.36472 L 688.12357 593.34994 L 687.31993 591.82072 L 686.98531 590.1259 L 687.14745 588.40599 L 688.12357 586.29652 L 700.14167 569.75502 L 701.34771 568.51815 L 702.85617 567.67619 L 704.54201 567.29891 L 706.84987 567.57539 L 722.14967 572.5466 L 729.04316 563.05853 L 719.58736 550.04374 L 718.78372 548.51451 L 718.4491 546.8197 L 718.61124 545.09979 L 719.58736 542.99032 L 729.04315 529.97554 L 722.14967 520.48747 L 706.84987 525.45868 L 705.14715 525.75043 L 703.43188 525.54494 L 701.84626 524.85925 L 700.14167 523.27905 L 690.68588 510.26426 Z M 495.33975 573.73607 L 495.33975 589.82323 L 495.09105 591.53277 L 494.36558 593.10059 L 493.22346 594.39672 L 491.75939 595.31371 L 491.40388 595.41234 L 491.19385 595.52957 L 475.89406 600.50077 L 475.89406 612.22867 L 491.19385 617.19987 L 491.66246 617.43124 L 492.15442 617.60738 L 492.43302 617.81169 L 492.74287 617.96467 L 493.12614 618.31998 L 493.54751 618.62898 L 493.75637 618.90422 L 494.00977 619.13913 L 494.2759 619.58887 L 494.59179 620.00516 L 494.6455 620.21347 L 494.88953 620.62587 L 495.33975 622.90621 L 495.33975 643.35262 L 495.09105 645.06216 L 494.36558 646.62998 L 493.22346 647.92611 L 491.75939 648.8431 L 491.40388 648.94173 L 491.19385 649.05896 L 475.89406 654.03016 L 475.89406 665.75807 L 491.19385 670.72927 L 492.74287 671.49407 L 494.00977 672.66853 L 494.88953 674.15527 L 495.33975 676.43561 L 495.33975 696.88202 L 495.09105 698.59156 L 494.36558 700.15938 L 493.22346 701.45551 L 491.19385 702.58836 L 475.89406 707.55956 L 475.89406 719.28746 L 491.19385 724.25866 L 492.74287 725.02346 L 494.00977 726.19791 L 494.88953 727.68465 L 495.33975 729.965 L 495.33975 746.05216 L 506.49365 749.67628 L 514.80354 738.2387 L 514.80354 719.7418 L 515.05224 718.03226 L 515.77771 716.46444 L 516.91983 715.16831 L 518.94944 714.03546 L 534.24923 709.06426 L 534.24923 692.9771 L 534.49793 691.26756 L 535.2234 689.69974 L 536.36552 688.40361 L 538.39513 687.27076 L 557.84082 680.95247 L 559.54354 680.66072 L 561.25881 680.86621 L 562.84443 681.5519 L 564.54902 683.1321 L 574.00481 696.14689 L 585.15871 692.52277 L 585.15871 676.43561 L 585.40741 674.72607 L 586.13288 673.15825 L 587.275 671.86212 L 589.30461 670.72927 L 604.6044 665.75807 L 604.6044 654.03016 L 589.30461 649.05896 L 587.75559 648.29416 L 586.48869 647.1197 L 585.60893 645.63296 L 585.15871 643.35262 L 585.15871 627.26546 L 574.00481 623.64134 L 564.54902 636.65613 L 563.34298 637.893 L 561.83452 638.73496 L 560.14868 639.11224 L 557.84082 638.83576 L 538.39513 632.51747 L 536.84611 631.75267 L 535.57921 630.57821 L 534.69945 629.09147 L 534.24923 626.81113 L 534.24923 610.72397 L 518.94944 605.75277 L 517.40042 604.98797 L 516.13352 603.81351 L 515.25376 602.32677 L 514.80354 600.04643 L 514.80354 581.54953 L 506.49365 570.11195 Z M 730.44146 497.34689 L 730.44146 511.48454 L 741.31366 526.44883 L 742.1173 527.97805 L 742.45192 529.67287 L 742.28978 531.39278 L 741.31366 533.50225 L 731.85786 546.51703 L 741.31366 559.53182 L 742.1173 561.06105 L 742.45192 562.75586 L 742.28978 564.47577 L 741.31366 566.58524 L 729.29556 583.12673 L 728.08952 584.3636 L 726.58105 585.20557 L 724.89522 585.58284 L 722.58736 585.30636 L 707.28756 580.33515 L 700.39407 589.82323 L 709.84987 602.83801 L 710.65351 604.36723 L 710.98813 606.06205 L 710.82599 607.78196 L 709.84987 609.89143 L 700.39407 622.90621 L 707.28756 632.39429 L 722.58736 627.42308 L 724.29008 627.13133 L 726.00535 627.33682 L 727.59097 628.02251 L 729.29556 629.60271 L 738.75135 642.61749 L 749.90525 638.99337 L 749.90525 622.90621 L 750.15395 621.19667 L 750.87942 619.62885 L 752.02154 618.33272 L 754.05115 617.19987 L 773.49684 610.88158 L 775.19956 610.58983 L 776.91483 610.79532 L 778.50045 611.48101 L 780.20504 613.06121 L 789.66083 626.076 L 804.96063 621.10479 L 806.66335 620.81304 L 808.37862 621.01853 L 809.96424 621.70422 L 811.66883 623.28442 L 822.54103 638.24871 L 835.98673 642.61749 L 842.88022 633.12942 L 833.42442 620.11463 L 833.30234 619.88233 L 833.13615 619.6792 L 832.90228 619.12106 L 832.62078 618.5854 L 832.56995 618.32794 L 832.46852 618.08588 L 832.40337 617.48426 L 832.28616 616.89059 L 832.31079 616.6293 L 832.28254 616.36839 L 832.3915 615.77318 L 832.4483 615.17068 L 832.53681 614.97939 L 832.59362 614.66909 L 833.37597 613.12887 L 833.40944 613.09357 L 833.42442 613.06121 L 842.88021 600.04643 L 835.98673 590.55836 L 820.68693 595.52957 L 820.13116 595.6248 L 819.58781 595.77554 L 819.28386 595.76998 L 818.98421 595.82132 L 818.42434 595.75425 L 817.86057 595.74393 L 817.57079 595.65199 L 817.26894 595.61583 L 816.75142 595.39203 L 816.21392 595.2215 L 815.96233 595.05079 L 815.68332 594.93014 L 815.40709 594.67407 L 814.78438 594.25156 L 814.26017 593.61085 L 813.97873 593.34994 L 801.96063 576.80844 L 801.83855 576.57614 L 801.67236 576.37301 L 801.43849 575.81487 L 801.15699 575.27921 L 801.10616 575.02175 L 801.00473 574.77969 L 800.93958 574.17807 L 800.82237 573.5844 L 800.847 573.32311 L 800.81875 573.0622 L 800.92771 572.46699 L 800.98451 571.86449 L 801.07302 571.6732 L 801.12983 571.3629 L 801.91218 569.82268 L 801.94565 569.78738 L 801.96063 569.75502 L 811.41642 556.74024 L 804.52294 547.25217 L 789.22314 552.22337 L 788.66737 552.3186 L 788.12402 552.46934 L 787.82007 552.46378 L 787.52042 552.51512 L 786.96055 552.44805 L 786.39678 552.43773 L 786.107 552.34579 L 785.80515 552.30963 L 785.28763 552.08583 L 784.75013 551.9153 L 784.49854 551.74459 L 784.21953 551.62394 L 783.9433 551.36787 L 783.32059 550.94536 L 782.79638 550.30465 L 782.51494 550.04374 L 770.49684 533.50225 L 770.37476 533.26994 L 770.20857 533.06682 L 769.97471 532.50871 L 769.6932 531.97303 L 769.64236 531.71555 L 769.54094 531.4735 L 769.47579 530.87189 L 769.35858 530.27821 L 769.38321 530.01692 L 769.35496 529.75601 L 769.46392 529.1608 L 769.52072 528.5583 L 769.60923 528.36701 L 769.66604 528.05671 L 770.44839 526.51649 L 770.48186 526.48119 L 770.49684 526.44883 L 779.95264 513.43405 L 773.05915 503.94597 L 757.75935 508.91718 L 757.20358 509.01241 L 756.66023 509.16315 L 756.35628 509.15759 L 756.05663 509.20893 L 755.49676 509.14186 L 754.93299 509.13154 L 754.64321 509.0396 L 754.34136 509.00344 L 753.82384 508.77964 L 753.28634 508.60911 L 753.03475 508.4384 L 752.75574 508.31775 L 752.47951 508.06168 L 751.8568 507.63917 L 751.33259 506.99846 L 751.05115 506.73755 L 741.59536 493.72277 Z M 648.06819 470.58219 L 648.06819 486.66935 L 647.81949 488.37889 L 647.09402 489.94671 L 645.9519 491.24284 L 643.92229 492.37569 L 624.4766 498.69398 L 622.77388 498.98573 L 621.05861 498.78024 L 619.47299 498.09455 L 617.7684 496.51435 L 608.31261 483.49956 L 597.15871 487.12368 L 597.15871 503.21084 L 596.91001 504.92038 L 596.18454 506.4882 L 595.04242 507.78433 L 593.01281 508.91718 L 573.56712 515.23547 L 571.8644 515.52722 L 570.14913 515.32173 L 568.56351 514.63604 L 566.85892 513.05584 L 557.40313 500.04106 L 546.24923 503.66518 L 546.24923 519.75234 L 546.00053 521.46188 L 545.27506 523.0297 L 544.13294 524.32583 L 542.10333 525.45868 L 526.80354 530.42988 L 526.80354 542.15778 L 540.24923 546.52655 L 557.84082 540.81069 L 558.50387 540.69708 L 559.15823 540.54108 L 559.35214 540.55174 L 559.54354 540.51894 L 560.21148 540.59896 L 560.88316 540.63587 L 561.06599 540.70133 L 561.25881 540.72443 L 561.87625 540.99144 L 562.50959 541.2182 L 562.66619 541.33304 L 562.84443 541.41012 L 563.12131 541.66679 L 563.90268 542.2398 L 564.28995 542.75016 L 564.54902 542.99032 L 574.00481 556.00511 L 589.30461 551.0339 L 589.96766 550.92029 L 590.62202 550.76429 L 590.81593 550.77495 L 591.00733 550.74215 L 591.67527 550.82217 L 592.34695 550.85908 L 592.52978 550.92454 L 592.7226 550.94764 L 593.34004 551.21465 L 593.97338 551.44141 L 594.12998 551.55625 L 594.30822 551.63333 L 594.5851 551.89 L 595.36647 552.46301 L 595.75374 552.97337 L 596.01281 553.21353 L 608.03091 569.75502 L 608.20396 570.08432 L 608.42885 570.38068 L 608.49544 570.63896 L 608.83455 571.28424 L 609.16917 572.97906 L 609.15032 573.17899 L 609.17681 573.28173 L 609.07404 573.98817 L 609.00703 574.69897 L 608.95394 574.81369 L 608.92811 574.99127 L 608.20264 576.55909 L 608.08398 576.69375 L 608.03091 576.80844 L 598.57511 589.82323 L 605.4686 599.3113 L 620.7684 594.34009 L 621.43145 594.22648 L 622.08581 594.07048 L 622.27972 594.08114 L 622.47112 594.04834 L 623.13906 594.12836 L 623.81074 594.16527 L 623.99357 594.23073 L 624.18639 594.25383 L 624.80383 594.52084 L 625.43717 594.7476 L 625.59377 594.86244 L 625.77201 594.93952 L 626.04889 595.19619 L 626.83026 595.7692 L 627.21753 596.27956 L 627.4766 596.51972 L 636.93239 609.5345 L 648.08629 605.91038 L 648.08629 589.82323 L 648.10222 589.71371 L 648.09031 589.6037 L 648.22628 588.86096 L 648.33499 588.11369 L 648.38146 588.01326 L 648.40139 587.9044 L 648.74335 587.23119 L 649.06046 586.54587 L 649.13363 586.46284 L 649.18374 586.36418 L 649.70328 585.81636 L 650.20258 585.24974 L 650.2835 585.20457 L 650.37252 585.11071 L 651.86916 584.2479 L 652.09314 584.1945 L 652.23219 584.11689 L 667.53198 579.14569 L 667.53198 567.41778 L 652.23219 562.44658 L 651.86146 562.26354 L 651.46738 562.13851 L 651.09101 561.88314 L 650.68317 561.68178 L 650.37998 561.40071 L 650.03784 561.16857 L 649.74981 560.81652 L 649.41627 560.50732 L 649.20573 560.15151 L 648.94392 559.83152 L 648.76815 559.41203 L 648.53651 559.02058 L 648.47627 558.71545 L 648.27629 558.2382 L 648.14784 557.05199 L 648.08629 556.74024 L 648.08629 536.29383 L 648.10222 536.18431 L 648.09031 536.0743 L 648.22628 535.33156 L 648.33499 534.58429 L 648.38146 534.48386 L 648.40139 534.375 L 648.74335 533.70179 L 649.06046 533.01647 L 649.13363 532.93344 L 649.18374 532.83478 L 649.70328 532.28696 L 650.20258 531.72034 L 650.2835 531.67517 L 650.37252 531.58131 L 651.86916 530.7185 L 652.09314 530.6651 L 652.23219 530.58749 L 667.53198 525.61629 L 667.53198 509.52913 L 667.54791 509.41961 L 667.536 509.3096 L 667.67197 508.56686 L 667.78068 507.81959 L 667.82715 507.71916 L 667.84708 507.6103 L 668.18904 506.93709 L 668.50615 506.25177 L 668.57932 506.16874 L 668.62943 506.07008 L 669.14897 505.52226 L 669.64827 504.95564 L 669.72919 504.91047 L 669.81821 504.81661 L 671.31485 503.9538 L 671.53883 503.9004 L 671.67788 503.82279 L 689.26947 498.10693 L 697.57936 486.66935 L 690.68588 477.18128 L 675.38608 482.15248 L 673.68336 482.44423 L 671.96809 482.23874 L 670.38247 481.55305 L 668.67788 479.97285 L 659.22209 466.95807 Z" stroke-miterlimit="10"/></g></svg>