  0
SECTION
  2
HEADER
  9
$ACADVER
  1
AC1014
  9
$HANDSEED
  5
FFFF
  9
$INSUNITS
 70
     4
  9
$MEASUREMENT
 70
     1
  0
ENDSEC
  0
SECTION
  2
TABLES
  0
TABLE
  2
VPORT
  5
8
330
0
100
AcDbSymbolTable
 70
     4
  0
VPORT
  5
2E
330
8
100
AcDbSymbolTableRecord
100
AcDbViewportTableRecord
  2
*ACTIVE
 70
     0
 10
0.0
 20
0.0
 11
1.0
 21
1.0
 12
210.0
 22
148.5
 13
0.0
 23
0.0
 14
10.0
 24
10.0
 15
10.0
 25
10.0
 16
0.0
 26
0.0
 36
1.0
 17
0.0
 27
0.0
 37
0.0
 40
341.0
 41
1.24
 42
50.0
 43
0.0
 44
0.0
 50
0.0
 51
0.0
 71
     0
 72
   100
 73
     1
 74
     3
 75
     0
 76
     0
 77
     0
 78
     0
  0
ENDTAB
  0
TABLE
  2
LTYPE
  5
5
330
0
100
AcDbSymbolTable
 70
     1
  0
LTYPE
  5
14
330
5
100
AcDbSymbolTableRecord
100
AcDbLinetypeTableRecord
  2
BYBLOCK
 70
     0
  3

 72
    65
 73
     0
 40
0.0
  0
LTYPE
  5
15
330
5
100
AcDbSymbolTableRecord
100
AcDbLinetypeTableRecord
  2
BYLAYER
 70
     0
  3

 72
    65
 73
     0
 40
0.0
  0
LTYPE
  5
16
330
5
100
AcDbSymbolTableRecord
100
AcDbLinetypeTableRecord
  2
CONTINUOUS
 70
     0
  3
Solid line
 72
    65
 73
     0
 40
0.0
  0
ENDTAB
  0
TABLE
  2
LAYER
  5
2
100
AcDbSymbolTable
 70
5
  0
LAYER
  5
50
100
AcDbSymbolTableRecord
100
AcDbLayerTableRecord
  2
0
 70
0
  6
CONTINUOUS
  0
LAYER
  5
51
100
AcDbSymbolTableRecord
100
AcDbLayerTableRecord
  2
Layer_1
 70
0
  6
CONTINUOUS
  0
LAYER
  5
52
100
AcDbSymbolTableRecord
100
AcDbLayerTableRecord
  2
Layer_2
 70
0
  6
CONTINUOUS
  0
LAYER
  5
53
100
AcDbSymbolTableRecord
100
AcDbLayerTableRecord
  2
Layer_3
 70
0
  6
CONTINUOUS
  0
LAYER
  5
54
100
AcDbSymbolTableRecord
100
AcDbLayerTableRecord
  2
Layer_4
 70
0
  6
CONTINUOUS
  0
ENDTAB
  0
TABLE
  2
STYLE
  5
3
330
0
100
AcDbSymbolTable
 70
     1
  0
STYLE
  5
11
330
3
100
AcDbSymbolTableRecord
100
AcDbTextStyleTableRecord
  2
STANDARD
 70
     0
 40
0.0
 41
1.0
 50
0.0
 71
     0
 42
2.5
  3
txt
  4

  0
ENDTAB
  0
TABLE
  2
VIEW
  5
6
330
0
100
AcDbSymbolTable
 70
     0
  0
ENDTAB
  0
TABLE
  2
UCS
  5
7
330
0
100
AcDbSymbolTable
 70
     0
  0
ENDTAB
  0
TABLE
  2
APPID
  5
9
330
0
100
AcDbSymbolTable
 70
     2
  0
APPID
  5
12
330
9
100
AcDbSymbolTableRecord
100
AcDbRegAppTableRecord
  2
ACAD
 70
     0
  0
ENDTAB
  0
TABLE
  2
DIMSTYLE
  5
A
330
0
100
AcDbSymbolTable
 70
     1
  0
DIMSTYLE
105
27
330
A
100
AcDbSymbolTableRecord
100
AcDbDimStyleTableRecord
  2
ISO-25
 70
     0
  3

  4

  5

  6

  7

 40
1.0
 41
2.5
 42
0.625
 43
3.75
 44
1.25
 45
0.0
 46
0.0
 47
0.0
 48
0.0
140
2.5
141
2.5
142
0.0
143
0.03937007874016
144
1.0
145
0.0
146
1.0
147
0.625
 71
     0
 72
     0
 73
     0
 74
     0
 75
     0
 76
     0
 77
     1
 78
     8
170
     0
171
     3
172
     1
173
     0
174
     0
175
     0
176
     0
177
     0
178
     0
270
     2
271
     2
272
     2
273
     2
274
     3
340
11
275
     0
280
     0
281
     0
282
     0
283
     0
284
     8
285
     0
286
     0
287
     3
288
     0
  0
ENDTAB
  0
TABLE
  2
BLOCK_RECORD
  5
1
330
0
100
AcDbSymbolTable
 70
     1
  0
BLOCK_RECORD
  5
1F
330
1
100
AcDbSymbolTableRecord
100
AcDbBlockTableRecord
  2
*MODEL_SPACE
  0
BLOCK_RECORD
  5
1B
330
1
100
AcDbSymbolTableRecord
100
AcDbBlockTableRecord
  2
*PAPER_SPACE
  0
ENDTAB
  0
ENDSEC
  0
SECTION
  2
BLOCKS
  0
BLOCK
  5
20
330
1F
100
AcDbEntity
  8
0
100
AcDbBlockBegin
  2
*MODEL_SPACE
 70
     0
 10
0.0
 20
0.0
 30
0.0
  3
*MODEL_SPACE
  1

  0
ENDBLK
  5
21
330
1F
100
AcDbEntity
  8
0
100
AcDbBlockEnd
  0
BLOCK
  5
1C
330
1B
100
AcDbEntity
 67
     1
  8
0
100
AcDbBlockBegin
  2
*PAPER_SPACE
  1

  0
ENDBLK
  5
1D
330
1B
100
AcDbEntity
 67
     1
  8
0
100
AcDbBlockEnd
  0
ENDSEC
  0
SECTION
  2
ENTITIES
  0
LWPOLYLINE
  5
100
100
AcDbEntity
  8
Layer_1
 62
7
100
AcDbPolyline
 90
276
 70
1
 10
120.137097
 20
173.501285
 30
0.0
 10
120.556626
 20
173.319863
 30
0.0
 10
121.007632
 20
172.901769
 30
0.0
 10
125.937994
 20
166.115706
 30
0.0
 10
133.915491
 20
168.707753
 30
0.0
 10
134.366003
 20
168.784945
 30
0.0
 10
134.819834
 20
168.730575
 30
0.0
 10
135.239363
 20
168.549153
 30
0.0
 10
135.690369
 20
168.131059
 30
0.0
 10
140.620731
 20
161.344996
 30
0.0
 10
148.598231
 20
163.937042
 30
0.0
 10
148.773663
 20
163.967102
 30
0.0
 10
148.946796
 20
164.008377
 30
0.0
 10
148.998101
 20
164.005546
 30
0.0
 10
149.048743
 20
164.014224
 30
0.0
 10
149.225468
 20
163.993057
 30
0.0
 10
149.403184
 20
163.983294
 30
0.0
 10
149.451557
 20
163.965964
 30
0.0
 10
149.502574
 20
163.959852
 30
0.0
 10
149.665939
 20
163.889206
 30
0.0
 10
149.833510
 20
163.829209
 30
0.0
 10
149.874944
 20
163.798824
 30
0.0
 10
149.922103
 20
163.778425
 30
0.0
 10
149.995361
 20
163.710514
 30
0.0
 10
150.202098
 20
163.558905
 30
0.0
 10
150.304563
 20
163.423873
 30
0.0
 10
150.373109
 20
163.360330
 30
0.0
 10
155.981416
 20
155.641156
 30
0.0
 10
156.027202
 20
155.554029
 30
0.0
 10
156.086704
 20
155.475617
 30
0.0
 10
156.104325
 20
155.407278
 30
0.0
 10
156.194048
 20
155.236548
 30
0.0
 10
156.282583
 20
154.788129
 30
0.0
 10
156.277609
 20
154.735231
 30
0.0
 10
156.284620
 20
154.708048
 30
0.0
 10
156.257429
 20
154.521135
 30
0.0
 10
156.239702
 20
154.333070
 30
0.0
 10
156.225653
 20
154.302717
 30
0.0
 10
156.218826
 20
154.255732
 30
0.0
 10
156.026879
 20
153.840913
 30
0.0
 10
155.995484
 20
153.805284
 30
0.0
 10
155.981434
 20
153.774939
 30
0.0
 10
151.051069
 20
146.988877
 30
0.0
 10
155.303490
 20
141.135920
 30
0.0
 10
163.280987
 20
143.727969
 30
0.0
 10
163.456419
 20
143.758028
 30
0.0
 10
163.629552
 20
143.799303
 30
0.0
 10
163.680857
 20
143.796472
 30
0.0
 10
163.731498
 20
143.805151
 30
0.0
 10
163.908224
 20
143.783984
 30
0.0
 10
164.085939
 20
143.774221
 30
0.0
 10
164.134313
 20
143.756891
 30
0.0
 10
164.185330
 20
143.750779
 30
0.0
 10
164.348694
 20
143.680132
 30
0.0
 10
164.516266
 20
143.620135
 30
0.0
 10
164.557699
 20
143.589751
 30
0.0
 10
164.604859
 20
143.569351
 30
0.0
 10
164.678117
 20
143.501441
 30
0.0
 10
164.884854
 20
143.349832
 30
0.0
 10
164.987319
 20
143.214799
 30
0.0
 10
165.055865
 20
143.151257
 30
0.0
 10
170.664172
 20
135.432083
 30
0.0
 10
170.709958
 20
135.344956
 30
0.0
 10
170.769460
 20
135.266544
 30
0.0
 10
170.787081
 20
135.198205
 30
0.0
 10
170.876804
 20
135.027474
 30
0.0
 10
170.965339
 20
134.579056
 30
0.0
 10
170.960365
 20
134.526158
 30
0.0
 10
170.967376
 20
134.498974
 30
0.0
 10
170.940185
 20
134.312062
 30
0.0
 10
170.922458
 20
134.123996
 30
0.0
 10
170.908408
 20
134.093643
 30
0.0
 10
170.901582
 20
134.046659
 30
0.0
 10
170.709635
 20
133.631839
 30
0.0
 10
170.678240
 20
133.596211
 30
0.0
 10
170.664190
 20
133.565866
 30
0.0
 10
165.733825
 20
126.779803
 30
0.0
 10
170.664190
 20
119.993738
 30
0.0
 10
170.876820
 20
119.589129
 30
0.0
 10
170.965355
 20
119.140711
 30
0.0
 10
170.922455
 20
118.685651
 30
0.0
 10
170.664190
 20
118.127521
 30
0.0
 10
165.733825
 20
111.341458
 30
0.0
 10
170.664190
 20
104.555393
 30
0.0
 10
170.876820
 20
104.150784
 30
0.0
 10
170.965355
 20
103.702366
 30
0.0
 10
170.922455
 20
103.247306
 30
0.0
 10
170.664190
 20
102.689176
 30
0.0
 10
165.055883
 20
94.970005
 30
0.0
 10
164.736785
 20
94.642750
 30
0.0
 10
164.337669
 20
94.419978
 30
0.0
 10
163.891627
 20
94.320159
 30
0.0
 10
163.281005
 20
94.393311
 30
0.0
 10
155.303508
 20
96.985357
 30
0.0
 10
151.051088
 20
91.132403
 30
0.0
 10
155.981453
 20
84.346338
 30
0.0
 10
156.194083
 20
83.941730
 30
0.0
 10
156.282618
 20
83.493311
 30
0.0
 10
156.239718
 20
83.038252
 30
0.0
 10
155.981453
 20
82.480121
 30
0.0
 10
150.373146
 20
74.760950
 30
0.0
 10
150.054048
 20
74.433695
 30
0.0
 10
149.654932
 20
74.210923
 30
0.0
 10
149.208890
 20
74.111104
 30
0.0
 10
148.598268
 20
74.184256
 30
0.0
 10
140.620769
 20
76.776302
 30
0.0
 10
135.690406
 20
69.990237
 30
0.0
 10
135.371308
 20
69.662982
 30
0.0
 10
134.972195
 20
69.440213
 30
0.0
 10
134.526150
 20
69.340391
 30
0.0
 10
133.915528
 20
69.413543
 30
0.0
 10
125.938031
 20
72.005592
 30
0.0
 10
121.007669
 20
65.219527
 30
0.0
 10
120.875809
 20
65.084296
 30
0.0
 10
120.750920
 20
64.942567
 30
0.0
 10
120.716733
 20
64.921162
 30
0.0
 10
120.688571
 20
64.892280
 30
0.0
 10
120.523638
 20
64.800221
 30
0.0
 10
120.363551
 20
64.699954
 30
0.0
 10
120.324676
 20
64.689159
 30
0.0
 10
120.289458
 20
64.669501
 30
0.0
 10
120.105133
 20
64.628249
 30
0.0
 10
119.923110
 20
64.577751
 30
0.0
 10
119.882782
 20
64.578545
 30
0.0
 10
119.843412
 20
64.569734
 30
0.0
 10
119.749509
 20
64.580979
 30
0.0
 10
119.466111
 20
64.586165
 30
0.0
 10
119.320445
 20
64.632380
 30
0.0
 10
119.232791
 20
64.642884
 30
0.0
 10
110.158361
 20
67.591345
 30
0.0
 10
110.060272
 20
67.639774
 30
0.0
 10
109.956005
 20
67.672855
 30
0.0
 10
109.856423
 20
67.740422
 30
0.0
 10
109.748516
 20
67.793698
 30
0.0
 10
109.668297
 20
67.868064
 30
0.0
 10
109.577772
 20
67.929485
 30
0.0
 10
109.501564
 20
68.022631
 30
0.0
 10
109.413315
 20
68.104441
 30
0.0
 10
109.357610
 20
68.198582
 30
0.0
 10
109.288339
 20
68.283246
 30
0.0
 10
109.241833
 20
68.394236
 30
0.0
 10
109.180545
 20
68.497807
 30
0.0
 10
109.164617
 20
68.578540
 30
0.0
 10
109.111706
 20
68.704812
 30
0.0
 10
109.077720
 20
69.018663
 30
0.0
 10
109.061422
 20
69.101147
 30
0.0
 10
109.061422
 20
77.489182
 30
0.0
 10
102.180858
 20
79.724814
 30
0.0
 10
97.250496
 20
72.938751
 30
0.0
 10
97.118636
 20
72.803520
 30
0.0
 10
96.993747
 20
72.661791
 30
0.0
 10
96.959560
 20
72.640386
 30
0.0
 10
96.931398
 20
72.611504
 30
0.0
 10
96.766457
 20
72.519439
 30
0.0
 10
96.606379
 20
72.419178
 30
0.0
 10
96.567509
 20
72.408383
 30
0.0
 10
96.532282
 20
72.388725
 30
0.0
 10
96.347936
 20
72.347471
 30
0.0
 10
96.165937
 20
72.296978
 30
0.0
 10
96.125609
 20
72.297772
 30
0.0
 10
96.086239
 20
72.288961
 30
0.0
 10
95.992336
 20
72.300206
 30
0.0
 10
95.708938
 20
72.305392
 30
0.0
 10
95.563272
 20
72.351606
 30
0.0
 10
95.475618
 20
72.362110
 30
0.0
 10
86.401188
 20
75.310571
 30
0.0
 10
86.303099
 20
75.359001
 30
0.0
 10
86.198832
 20
75.392082
 30
0.0
 10
86.099250
 20
75.459648
 30
0.0
 10
85.991343
 20
75.512925
 30
0.0
 10
85.911124
 20
75.587291
 30
0.0
 10
85.820599
 20
75.648712
 30
0.0
 10
85.744391
 20
75.741858
 30
0.0
 10
85.656142
 20
75.823667
 30
0.0
 10
85.600437
 20
75.917809
 30
0.0
 10
85.531166
 20
76.002473
 30
0.0
 10
85.484660
 20
76.113463
 30
0.0
 10
85.423372
 20
76.217034
 30
0.0
 10
85.407444
 20
76.297766
 30
0.0
 10
85.354533
 20
76.424039
 30
0.0
 10
85.320547
 20
76.737890
 30
0.0
 10
85.304275
 20
76.820374
 30
0.0
 10
85.304275
 20
85.208406
 30
0.0
 10
77.326781
 20
87.800453
 30
0.0
 10
76.916936
 20
88.002806
 30
0.0
 10
76.581736
 20
88.313548
 30
0.0
 10
76.348966
 20
88.706915
 30
0.0
 10
76.229845
 20
89.310255
 30
0.0
 10
76.229845
 20
97.698290
 30
0.0
 10
68.252348
 20
100.290336
 30
0.0
 10
67.842503
 20
100.492690
 30
0.0
 10
67.507302
 20
100.803432
 30
0.0
 10
67.274533
 20
101.196799
 30
0.0
 10
67.155412
 20
101.800139
 30
0.0
 10
67.155412
 20
111.341561
 30
0.0
 10
67.221214
 20
111.793877
 30
0.0
 10
67.413161
 20
112.208696
 30
0.0
 10
67.715347
 20
112.551631
 30
0.0
 10
68.252348
 20
112.851364
 30
0.0
 10
76.229845
 20
115.443410
 30
0.0
 10
76.229845
 20
122.678058
 30
0.0
 10
68.252348
 20
125.270104
 30
0.0
 10
68.154259
 20
125.318533
 30
0.0
 10
68.049992
 20
125.351614
 30
0.0
 10
67.950411
 20
125.419181
 30
0.0
 10
67.842503
 20
125.472457
 30
0.0
 10
67.762284
 20
125.546824
 30
0.0
 10
67.671759
 20
125.608244
 30
0.0
 10
67.595552
 20
125.701391
 30
0.0
 10
67.507302
 20
125.783200
 30
0.0
 10
67.451597
 20
125.877341
 30
0.0
 10
67.382326
 20
125.962005
 30
0.0
 10
67.335821
 20
126.072995
 30
0.0
 10
67.274533
 20
126.176566
 30
0.0
 10
67.258605
 20
126.257299
 30
0.0
 10
67.205693
 20
126.383571
 30
0.0
 10
67.171708
 20
126.697423
 30
0.0
 10
67.155409
 20
126.779906
 30
0.0
 10
67.155409
 20
136.321326
 30
0.0
 10
67.159616
 20
136.350304
 30
0.0
 10
67.156468
 20
136.379410
 30
0.0
 10
67.192443
 20
136.575927
 30
0.0
 10
67.221206
 20
136.773642
 30
0.0
 10
67.233509
 20
136.800214
 30
0.0
 10
67.238774
 20
136.829017
 30
0.0
 10
67.329251
 20
137.007137
 30
0.0
 10
67.413153
 20
137.188461
 30
0.0
 10
67.432521
 20
137.210422
 30
0.0
 10
67.445776
 20
137.236536
 30
0.0
 10
67.583238
 20
137.381480
 30
0.0
 10
67.715344
 20
137.531398
 30
0.0
 10
67.736749
 20
137.543357
 30
0.0
 10
67.760297
 20
137.568202
 30
0.0
 10
68.156283
 20
137.796487
 30
0.0
 10
68.215544
 20
137.810616
 30
0.0
 10
68.252335
 20
137.831147
 30
0.0
 10
76.229832
 20
140.423194
 30
0.0
 10
76.229832
 20
148.811126
 30
0.0
 10
76.245574
 20
148.919372
 30
0.0
 10
76.244781
 20
149.028764
 30
0.0
 10
76.278269
 20
149.144360
 30
0.0
 10
76.295599
 20
149.263441
 30
0.0
 10
76.341536
 20
149.362716
 30
0.0
 10
76.371977
 20
149.467787
 30
0.0
 10
76.437006
 20
149.569038
 30
0.0
 10
76.487547
 20
149.678260
 30
0.0
 10
76.559873
 20
149.760339
 30
0.0
 10
76.618984
 20
149.852375
 30
0.0
 10
76.710170
 20
149.930903
 30
0.0
 10
76.789732
 20
150.021195
 30
0.0
 10
76.882442
 20
150.079260
 30
0.0
 10
76.965328
 20
150.150642
 30
0.0
 10
77.090797
 20
150.209761
 30
0.0
 10
77.177101
 20
150.263815
 30
0.0
 10
77.246215
 20
150.282997
 30
0.0
 10
77.326733
 20
150.320936
 30
0.0
 10
85.304228
 20
152.912982
 30
0.0
 10
85.304228
 20
161.301009
 30
0.0
 10
85.370030
 20
161.753325
 30
0.0
 10
85.561977
 20
162.168144
 30
0.0
 10
85.864163
 20
162.511079
 30
0.0
 10
86.401164
 20
162.810812
 30
0.0
 10
95.475594
 20
165.759273
 30
0.0
 10
95.926106
 20
165.836465
 30
0.0
 10
96.379938
 20
165.782096
 30
0.0
 10
96.799466
 20
165.600674
 30
0.0
 10
97.250472
 20
165.182579
 30
0.0
 10
102.180834
 20
158.396517
 30
0.0
 10
109.061398
 20
160.632148
 30
0.0
 10
109.061398
 20
169.020180
 30
0.0
 10
109.127200
 20
169.472496
 30
0.0
 10
109.319147
 20
169.887315
 30
0.0
 10
109.621333
 20
170.230250
 30
0.0
 10
110.158334
 20
170.529983
 30
0.0
 10
119.232765
 20
173.478444
 30
0.0
 10
119.683276
 20
173.555636
 30
0.0
  0
LWPOLYLINE
  5
101
100
AcDbEntity
  8
Layer_1
 62
7
100
AcDbPolyline
 90
6
 70
1
 10
112.236388
 20
78.126749
 30
0.0
 10
112.236388
 20
70.254521
 30
0.0
 10
119.116949
 20
68.018890
 30
0.0
 10
123.744125
 20
74.387654
 30
0.0
 10
123.744125
 20
82.259879
 30
0.0
 10
116.863564
 20
84.495510
 30
0.0
  0
LWPOLYLINE
  5
102
100
AcDbEntity
  8
Layer_1
 62
7
100
AcDbPolyline
 90
51
 70
1
 10
126.919125
 20
89.310189
 30
0.0
 10
126.853323
 20
88.857873
 30
0.0
 10
126.661376
 20
88.443054
 30
0.0
 10
126.359190
 20
88.100120
 30
0.0
 10
125.822189
 20
87.800386
 30
0.0
 10
121.394453
 20
86.361728
 30
0.0
 10
125.822189
 20
84.923069
 30
0.0
 10
126.232034
 20
84.720716
 30
0.0
 10
126.567234
 20
84.409973
 30
0.0
 10
126.800004
 20
84.016607
 30
0.0
 10
126.919125
 20
83.413267
 30
0.0
 10
126.919125
 20
75.025231
 30
0.0
 10
133.799686
 20
72.789600
 30
0.0
 10
138.052106
 20
78.642557
 30
0.0
 10
133.121741
 20
85.428619
 30
0.0
 10
133.089441
 20
85.490082
 30
0.0
 10
133.045470
 20
85.543827
 30
0.0
 10
132.983592
 20
85.691501
 30
0.0
 10
132.909112
 20
85.833228
 30
0.0
 10
132.895671
 20
85.901347
 30
0.0
 10
132.868834
 20
85.965392
 30
0.0
 10
132.851583
 20
86.124571
 30
0.0
 10
132.820571
 20
86.281646
 30
0.0
 10
132.827080
 20
86.350779
 30
0.0
 10
132.819592
 20
86.419812
 30
0.0
 10
132.848421
 20
86.577294
 30
0.0
 10
132.863450
 20
86.736706
 30
0.0
 10
132.886865
 20
86.787318
 30
0.0
 10
132.901894
 20
86.869418
 30
0.0
 10
133.108891
 20
87.276935
 30
0.0
 10
133.117754
 20
87.286274
 30
0.0
 10
133.121723
 20
87.294847
 30
0.0
 10
135.858216
 20
91.061307
 30
0.0
 10
131.430477
 20
89.622649
 30
0.0
 10
131.283430
 20
89.597460
 30
0.0
 10
131.139668
 20
89.557577
 30
0.0
 10
131.059248
 20
89.559164
 30
0.0
 10
130.979966
 20
89.545591
 30
0.0
 10
130.831833
 20
89.563345
 30
0.0
 10
130.682669
 20
89.566070
 30
0.0
 10
130.605998
 20
89.590385
 30
0.0
 10
130.526134
 20
89.599963
 30
0.0
 10
130.389207
 20
89.659177
 30
0.0
 10
130.246993
 20
89.704296
 30
0.0
 10
130.180427
 20
89.749463
 30
0.0
 10
130.106605
 20
89.781385
 30
0.0
 10
130.033519
 20
89.849137
 30
0.0
 10
129.868761
 20
89.960926
 30
0.0
 10
129.730063
 20
90.130447
 30
0.0
 10
129.655599
 20
90.199480
 30
0.0
 10
126.919106
 20
93.965937
 30
0.0
  0
LWPOLYLINE
  5
103
100
AcDbEntity
  8
Layer_1
 62
7
100
AcDbPolyline
 90
6
 70
1
 10
88.479217
 20
85.845920
 30
0.0
 10
88.479217
 20
77.973695
 30
0.0
 10
95.359778
 20
75.738064
 30
0.0
 10
99.986954
 20
82.106826
 30
0.0
 10
99.986954
 20
89.979053
 30
0.0
 10
93.106393
 20
92.214684
 30
0.0
  0
LWPOLYLINE
  5
104
100
AcDbEntity
  8
Layer_1
 62
7
100
AcDbPolyline
 90
6
 70
1
 10
136.368311
 20
86.361728
 30
0.0
 10
140.995490
 20
79.992966
 30
0.0
 10
148.482426
 20
77.560313
 30
0.0
 10
152.734846
 20
83.413267
 30
0.0
 10
148.107667
 20
89.782031
 30
0.0
 10
140.620731
 20
92.214684
 30
0.0
  0
LWPOLYLINE
  5
105
100
AcDbEntity
  8
Layer_1
 62
7
100
AcDbPolyline
 90
5
 70
1
 10
103.161954
 20
89.979053
 30
0.0
 10
103.161954
 20
82.744405
 30
0.0
 10
110.042518
 20
80.508774
 30
0.0
 10
114.294939
 20
86.361728
 30
0.0
 10
110.042518
 20
92.214684
 30
0.0
  0
LWPOLYLINE
  5
106
100
AcDbEntity
  8
Layer_1
 62
7
100
AcDbPolyline
 90
40
 70
1
 10
88.479217
 20
101.800073
 30
0.0
 10
88.413415
 20
101.347757
 30
0.0
 10
88.221468
 20
100.932938
 30
0.0
 10
87.919282
 20
100.590003
 30
0.0
 10
87.531914
 20
100.347383
 30
0.0
 10
87.437852
 20
100.321295
 30
0.0
 10
87.382281
 20
100.290278
 30
0.0
 10
79.404787
 20
97.698232
 30
0.0
 10
79.404787
 20
90.463584
 30
0.0
 10
86.285348
 20
88.227953
 30
0.0
 10
91.215710
 20
95.014018
 30
0.0
 10
91.534808
 20
95.341273
 30
0.0
 10
91.933922
 20
95.564042
 30
0.0
 10
92.379967
 20
95.663864
 30
0.0
 10
92.990588
 20
95.590712
 30
0.0
 10
97.418327
 20
94.152053
 30
0.0
 10
94.681834
 20
97.918511
 30
0.0
 10
94.469204
 20
98.323120
 30
0.0
 10
94.380669
 20
98.771538
 30
0.0
 10
94.423569
 20
99.226598
 30
0.0
 10
94.681834
 20
99.784728
 30
0.0
 10
97.418327
 20
103.551188
 30
0.0
 10
92.990588
 20
102.112527
 30
0.0
 10
92.843541
 20
102.087339
 30
0.0
 10
92.699779
 20
102.047455
 30
0.0
 10
92.619359
 20
102.049043
 30
0.0
 10
92.540077
 20
102.035470
 30
0.0
 10
92.391944
 20
102.053223
 30
0.0
 10
92.242780
 20
102.055949
 30
0.0
 10
92.166109
 20
102.080264
 30
0.0
 10
92.086245
 20
102.089842
 30
0.0
 10
91.949318
 20
102.149055
 30
0.0
 10
91.807104
 20
102.194175
 30
0.0
 10
91.740538
 20
102.239342
 30
0.0
 10
91.666716
 20
102.271264
 30
0.0
 10
91.593630
 20
102.339016
 30
0.0
 10
91.428872
 20
102.450805
 30
0.0
 10
91.290174
 20
102.620326
 30
0.0
 10
91.215710
 20
102.689358
 30
0.0
 10
88.479217
 20
106.455819
 30
0.0
  0
LWPOLYLINE
  5
107
100
AcDbEntity
  8
Layer_1
 62
7
100
AcDbPolyline
 90
5
 70
1
 10
112.611143
 20
94.080902
 30
0.0
 10
116.863564
 20
88.227945
 30
0.0
 10
123.744125
 20
90.463576
 30
0.0
 10
123.744125
 20
97.698224
 30
0.0
 10
116.863564
 20
99.933855
 30
0.0
  0
LWPOLYLINE
  5
108
100
AcDbEntity
  8
Layer_1
 62
7
100
AcDbPolyline
 90
5
 70
1
 10
97.928404
 20
98.851612
 30
0.0
 10
102.180824
 20
92.998658
 30
0.0
 10
109.061388
 20
95.234289
 30
0.0
 10
109.061388
 20
102.468937
 30
0.0
 10
102.180824
 20
104.704568
 30
0.0
  0
LWPOLYLINE
  5
109
100
AcDbEntity
  8
Layer_1
 62
7
100
AcDbPolyline
 90
5
 70
1
 10
127.293881
 20
98.851612
 30
0.0
 10
131.546301
 20
92.998658
 30
0.0
 10
138.426862
 20
95.234289
 30
0.0
 10
138.426862
 20
102.468937
 30
0.0
 10
131.546301
 20
104.704568
 30
0.0
  0
LWPOLYLINE
  5
10a
100
AcDbEntity
  8
Layer_1
 62
7
100
AcDbPolyline
 90
5
 70
1
 10
141.601862
 20
102.468937
 30
0.0
 10
141.601862
 20
95.234289
 30
0.0
 10
148.482426
 20
92.998658
 30
0.0
 10
152.734846
 20
98.851612
 30
0.0
 10
148.482426
 20
104.704568
 30
0.0
  0
LWPOLYLINE
  5
10b
100
AcDbEntity
  8
Layer_1
 62
7
100
AcDbPolyline
 90
6
 70
1
 10
151.051051
 20
106.570785
 30
0.0
 10
155.678230
 20
100.202021
 30
0.0
 10
163.165163
 20
97.769368
 30
0.0
 10
167.417583
 20
103.622322
 30
0.0
 10
162.790404
 20
109.991086
 30
0.0
 10
155.303471
 20
112.423739
 30
0.0
  0
LWPOLYLINE
  5
10c
100
AcDbEntity
  8
Layer_1
 62
7
100
AcDbPolyline
 90
110
 70
1
 10
112.236388
 20
134.499011
 30
0.0
 10
112.170586
 20
134.046696
 30
0.0
 10
111.978638
 20
133.631877
 30
0.0
 10
111.676453
 20
133.288942
 30
0.0
 10
111.289084
 20
133.046322
 30
0.0
 10
111.195022
 20
133.020234
 30
0.0
 10
111.139452
 20
132.989217
 30
0.0
 10
103.161954
 20
130.397171
 30
0.0
 10
103.161954
 20
122.009135
 30
0.0
 10
103.096153
 20
121.556820
 30
0.0
 10
102.904205
 20
121.142001
 30
0.0
 10
102.602019
 20
120.799066
 30
0.0
 10
102.214651
 20
120.556446
 30
0.0
 10
102.120589
 20
120.530358
 30
0.0
 10
102.065018
 20
120.499341
 30
0.0
 10
97.637283
 20
119.060682
 30
0.0
 10
102.065018
 20
117.622024
 30
0.0
 10
102.189005
 20
117.560807
 30
0.0
 10
102.319169
 20
117.514203
 30
0.0
 10
102.392882
 20
117.460146
 30
0.0
 10
102.474863
 20
117.419670
 30
0.0
 10
102.576270
 20
117.325661
 30
0.0
 10
102.687758
 20
117.243905
 30
0.0
 10
102.743019
 20
117.171081
 30
0.0
 10
102.810064
 20
117.108928
 30
0.0
 10
102.880478
 20
116.989934
 30
0.0
 10
102.964057
 20
116.879791
 30
0.0
 10
102.978265
 20
116.824675
 30
0.0
 10
103.042831
 20
116.715561
 30
0.0
 10
103.161952
 20
116.112221
 30
0.0
 10
103.161952
 20
107.724186
 30
0.0
 10
111.139449
 20
105.132140
 30
0.0
 10
111.549294
 20
104.929787
 30
0.0
 10
111.884494
 20
104.619044
 30
0.0
 10
112.117264
 20
104.225677
 30
0.0
 10
112.236385
 20
103.622337
 30
0.0
 10
112.236385
 20
98.966740
 30
0.0
 10
114.972878
 20
102.733197
 30
0.0
 10
115.291976
 20
103.060452
 30
0.0
 10
115.691092
 20
103.283224
 30
0.0
 10
116.137134
 20
103.383043
 30
0.0
 10
116.747756
 20
103.309891
 30
0.0
 10
124.725253
 20
100.717845
 30
0.0
 10
129.655615
 20
107.503910
 30
0.0
 10
129.807589
 20
107.659768
 30
0.0
 10
129.957327
 20
107.817655
 30
0.0
 10
129.966958
 20
107.823212
 30
0.0
 10
129.974710
 20
107.831176
 30
0.0
 10
130.164835
 20
107.937295
 30
0.0
 10
130.353311
 20
108.045951
 30
0.0
 10
130.364132
 20
108.048597
 30
0.0
 10
130.373842
 20
108.054021
 30
0.0
 10
130.586234
 20
108.101553
 30
0.0
 10
130.797946
 20
108.152025
 30
0.0
 10
130.809032
 20
108.151496
 30
0.0
 10
130.819880
 20
108.153877
 30
0.0
 10
130.866504
 20
108.148295
 30
0.0
 10
131.254325
 20
108.126969
 30
0.0
 10
131.359886
 20
108.089173
 30
0.0
 10
131.430501
 20
108.080707
 30
0.0
 10
135.858239
 20
106.642046
 30
0.0
 10
133.121747
 20
110.408506
 30
0.0
 10
133.089446
 20
110.469968
 30
0.0
 10
133.045475
 20
110.523713
 30
0.0
 10
132.983597
 20
110.671388
 30
0.0
 10
132.909117
 20
110.813114
 30
0.0
 10
132.895676
 20
110.881234
 30
0.0
 10
132.868839
 20
110.945279
 30
0.0
 10
132.851589
 20
111.104458
 30
0.0
 10
132.820577
 20
111.261533
 30
0.0
 10
132.827085
 20
111.330666
 30
0.0
 10
132.819598
 20
111.399698
 30
0.0
 10
132.848427
 20
111.557181
 30
0.0
 10
132.863455
 20
111.716592
 30
0.0
 10
132.886871
 20
111.767205
 30
0.0
 10
132.901899
 20
111.849305
 30
0.0
 10
133.108896
 20
112.256821
 30
0.0
 10
133.117759
 20
112.266161
 30
0.0
 10
133.121728
 20
112.274734
 30
0.0
 10
138.052093
 20
119.060796
 30
0.0
 10
133.121728
 20
125.846861
 30
0.0
 10
132.909098
 20
126.251470
 30
0.0
 10
132.820563
 20
126.699888
 30
0.0
 10
132.863463
 20
127.154948
 30
0.0
 10
133.121728
 20
127.713079
 30
0.0
 10
135.858221
 20
131.479536
 30
0.0
 10
131.430482
 20
130.040877
 30
0.0
 10
130.979971
 20
129.963685
 30
0.0
 10
130.526139
 20
130.018054
 30
0.0
 10
130.106611
 20
130.199477
 30
0.0
 10
129.655604
 20
130.617571
 30
0.0
 10
124.725242
 20
137.403634
 30
0.0
 10
116.747745
 20
134.811587
 30
0.0
 10
116.600698
 20
134.786399
 30
0.0
 10
116.456936
 20
134.746516
 30
0.0
 10
116.376516
 20
134.748103
 30
0.0
 10
116.297234
 20
134.734530
 30
0.0
 10
116.149101
 20
134.752284
 30
0.0
 10
115.999937
 20
134.755009
 30
0.0
 10
115.923266
 20
134.779324
 30
0.0
 10
115.843402
 20
134.788902
 30
0.0
 10
115.706475
 20
134.848116
 30
0.0
 10
115.564261
 20
134.893235
 30
0.0
 10
115.497695
 20
134.938402
 30
0.0
 10
115.423873
 20
134.970324
 30
0.0
 10
115.350787
 20
135.038076
 30
0.0
 10
115.186029
 20
135.149865
 30
0.0
 10
115.047332
 20
135.319386
 30
0.0
 10
114.972867
 20
135.388419
 30
0.0
 10
112.236374
 20
139.154879
 30
0.0
  0
LWPOLYLINE
  5
10d
100
AcDbEntity
  8
Layer_1
 62
7
100
AcDbPolyline
 90
6
 70
1
 10
70.330354
 20
110.188108
 30
0.0
 10
70.330354
 20
102.953460
 30
0.0
 10
77.817287
 20
100.520807
 30
0.0
 10
85.304217
 20
102.953460
 30
0.0
 10
85.304217
 20
110.188108
 30
0.0
 10
77.817287
 20
112.620761
 30
0.0
  0
LWPOLYLINE
  5
10e
100
AcDbEntity
  8
Layer_1
 62
7
100
AcDbPolyline
 90
5
 70
1
 10
88.853973
 20
111.341495
 30
0.0
 10
93.106393
 20
105.488539
 30
0.0
 10
99.986954
 20
107.724170
 30
0.0
 10
99.986954
 20
114.958818
 30
0.0
 10
93.106393
 20
117.194449
 30
0.0
  0
LWPOLYLINE
  5
10f
100
AcDbEntity
  8
Layer_1
 62
7
100
AcDbPolyline
 90
5
 70
1
 10
136.368311
 20
111.341495
 30
0.0
 10
140.620731
 20
105.488539
 30
0.0
 10
147.501295
 20
107.724170
 30
0.0
 10
147.501295
 20
114.958818
 30
0.0
 10
140.620731
 20
117.194449
 30
0.0
  0
LWPOLYLINE
  5
110
100
AcDbEntity
  8
Layer_1
 62
7
100
AcDbPolyline
 90
47
 70
1
 10
150.676295
 20
122.009128
 30
0.0
 10
150.610493
 20
121.556812
 30
0.0
 10
150.418546
 20
121.141993
 30
0.0
 10
150.116360
 20
120.799058
 30
0.0
 10
149.579359
 20
120.499325
 30
0.0
 10
145.151621
 20
119.060666
 30
0.0
 10
149.579359
 20
117.622008
 30
0.0
 10
149.703345
 20
117.560791
 30
0.0
 10
149.833510
 20
117.514187
 30
0.0
 10
149.907223
 20
117.460130
 30
0.0
 10
149.989204
 20
117.419654
 30
0.0
 10
150.090611
 20
117.325645
 30
0.0
 10
150.202098
 20
117.243889
 30
0.0
 10
150.257359
 20
117.171065
 30
0.0
 10
150.324405
 20
117.108912
 30
0.0
 10
150.394818
 20
116.989918
 30
0.0
 10
150.478397
 20
116.879775
 30
0.0
 10
150.492606
 20
116.824659
 30
0.0
 10
150.557172
 20
116.715545
 30
0.0
 10
150.676292
 20
116.112205
 30
0.0
 10
150.676292
 20
111.456608
 30
0.0
 10
153.412785
 20
115.223065
 30
0.0
 10
153.564759
 20
115.378923
 30
0.0
 10
153.714498
 20
115.536811
 30
0.0
 10
153.724128
 20
115.542367
 30
0.0
 10
153.731907
 20
115.550331
 30
0.0
 10
153.922063
 20
115.656468
 30
0.0
 10
154.110507
 20
115.765106
 30
0.0
 10
154.121302
 20
115.767752
 30
0.0
 10
154.131013
 20
115.773176
 30
0.0
 10
154.343476
 20
115.820722
 30
0.0
 10
154.555113
 20
115.871178
 30
0.0
 10
154.566199
 20
115.870649
 30
0.0
 10
154.577047
 20
115.873030
 30
0.0
 10
154.623672
 20
115.867447
 30
0.0
 10
155.011493
 20
115.846122
 30
0.0
 10
155.117054
 20
115.808326
 30
0.0
 10
155.187669
 20
115.799859
 30
0.0
 10
163.165166
 20
113.207813
 30
0.0
 10
167.417586
 20
119.060767
 30
0.0
 10
163.165166
 20
124.913723
 30
0.0
 10
155.187669
 20
122.321677
 30
0.0
 10
154.737157
 20
122.244485
 30
0.0
 10
154.283325
 20
122.298854
 30
0.0
 10
153.863797
 20
122.480276
 30
0.0
 10
153.412791
 20
122.898371
 30
0.0
 10
150.676298
 20
126.664828
 30
0.0
  0
LWPOLYLINE
  5
111
100
AcDbEntity
  8
Layer_1
 62
7
100
AcDbPolyline
 90
5
 70
1
 10
79.404787
 20
122.677992
 30
0.0
 10
79.404787
 20
115.443344
 30
0.0
 10
86.285348
 20
113.207713
 30
0.0
 10
90.537768
 20
119.060666
 30
0.0
 10
86.285348
 20
124.913623
 30
0.0
  0
LWPOLYLINE
  5
112
100
AcDbEntity
  8
Layer_1
 62
7
100
AcDbPolyline
 90
5
 70
1
 10
88.853973
 20
126.779840
 30
0.0
 10
93.106393
 20
120.926884
 30
0.0
 10
99.986954
 20
123.162515
 30
0.0
 10
99.986954
 20
130.397163
 30
0.0
 10
93.106393
 20
132.632794
 30
0.0
  0
LWPOLYLINE
  5
113
100
AcDbEntity
  8
Layer_1
 62
7
100
AcDbPolyline
 90
5
 70
1
 10
136.368311
 20
126.779840
 30
0.0
 10
140.620731
 20
120.926884
 30
0.0
 10
147.501295
 20
123.162515
 30
0.0
 10
147.501295
 20
130.397163
 30
0.0
 10
140.620731
 20
132.632794
 30
0.0
  0
LWPOLYLINE
  5
114
100
AcDbEntity
  8
Layer_1
 62
7
100
AcDbPolyline
 90
6
 70
1
 10
70.330354
 20
135.167873
 30
0.0
 10
70.330354
 20
127.933228
 30
0.0
 10
77.817287
 20
125.500574
 30
0.0
 10
85.304217
 20
127.933228
 30
0.0
 10
85.304217
 20
135.167873
 30
0.0
 10
77.817287
 20
137.600526
 30
0.0
  0
LWPOLYLINE
  5
115
100
AcDbEntity
  8
Layer_1
 62
7
100
AcDbPolyline
 90
6
 70
1
 10
155.678230
 20
137.919312
 30
0.0
 10
151.051054
 20
131.550550
 30
0.0
 10
155.303471
 20
125.697596
 30
0.0
 10
162.790404
 20
128.130250
 30
0.0
 10
167.417583
 20
134.499011
 30
0.0
 10
163.165163
 20
140.351968
 30
0.0
  0
LWPOLYLINE
  5
116
100
AcDbEntity
  8
Layer_1
 62
7
100
AcDbPolyline
 90
72
 70
1
 10
79.404787
 20
147.657757
 30
0.0
 10
79.404787
 20
140.423109
 30
0.0
 10
87.382281
 20
137.831063
 30
0.0
 10
87.506268
 20
137.769846
 30
0.0
 10
87.636432
 20
137.723242
 30
0.0
 10
87.710145
 20
137.669185
 30
0.0
 10
87.792126
 20
137.628709
 30
0.0
 10
87.893533
 20
137.534700
 30
0.0
 10
88.005020
 20
137.452944
 30
0.0
 10
88.060281
 20
137.380120
 30
0.0
 10
88.127327
 20
137.317967
 30
0.0
 10
88.197740
 20
137.198973
 30
0.0
 10
88.281319
 20
137.088830
 30
0.0
 10
88.295528
 20
137.033714
 30
0.0
 10
88.360094
 20
136.924600
 30
0.0
 10
88.479215
 20
136.321260
 30
0.0
 10
88.479215
 20
131.665662
 30
0.0
 10
91.215707
 20
135.432120
 30
0.0
 10
91.367681
 20
135.587978
 30
0.0
 10
91.517420
 20
135.745866
 30
0.0
 10
91.527051
 20
135.751422
 30
0.0
 10
91.534803
 20
135.759386
 30
0.0
 10
91.724959
 20
135.865523
 30
0.0
 10
91.913403
 20
135.974161
 30
0.0
 10
91.924198
 20
135.976807
 30
0.0
 10
91.933908
 20
135.982231
 30
0.0
 10
92.146371
 20
136.029777
 30
0.0
 10
92.358009
 20
136.080233
 30
0.0
 10
92.369095
 20
136.079704
 30
0.0
 10
92.379943
 20
136.082085
 30
0.0
 10
92.426568
 20
136.076502
 30
0.0
 10
92.814389
 20
136.055203
 30
0.0
 10
92.919950
 20
136.017407
 30
0.0
 10
92.990564
 20
136.008941
 30
0.0
 10
97.418303
 20
134.570282
 30
0.0
 10
94.681810
 20
138.336740
 30
0.0
 10
94.649510
 20
138.398202
 30
0.0
 10
94.605538
 20
138.451947
 30
0.0
 10
94.543660
 20
138.599622
 30
0.0
 10
94.469180
 20
138.741348
 30
0.0
 10
94.455739
 20
138.809468
 30
0.0
 10
94.428903
 20
138.873513
 30
0.0
 10
94.411678
 20
139.032692
 30
0.0
 10
94.380666
 20
139.189767
 30
0.0
 10
94.387175
 20
139.258900
 30
0.0
 10
94.379688
 20
139.327932
 30
0.0
 10
94.408517
 20
139.485415
 30
0.0
 10
94.423545
 20
139.644826
 30
0.0
 10
94.446960
 20
139.695439
 30
0.0
 10
94.461989
 20
139.777539
 30
0.0
 10
94.668986
 20
140.185055
 30
0.0
 10
94.677849
 20
140.194395
 30
0.0
 10
94.681818
 20
140.202968
 30
0.0
 10
97.418311
 20
143.969428
 30
0.0
 10
92.990572
 20
142.530769
 30
0.0
 10
92.843525
 20
142.505581
 30
0.0
 10
92.699763
 20
142.465698
 30
0.0
 10
92.619343
 20
142.467285
 30
0.0
 10
92.540061
 20
142.453712
 30
0.0
 10
92.391929
 20
142.471465
 30
0.0
 10
92.242764
 20
142.474191
 30
0.0
 10
92.166093
 20
142.498506
 30
0.0
 10
92.086229
 20
142.508084
 30
0.0
 10
91.949302
 20
142.567298
 30
0.0
 10
91.807088
 20
142.612417
 30
0.0
 10
91.740522
 20
142.657584
 30
0.0
 10
91.666700
 20
142.689506
 30
0.0
 10
91.593614
 20
142.757258
 30
0.0
 10
91.428856
 20
142.869047
 30
0.0
 10
91.290159
 20
143.038568
 30
0.0
 10
91.215694
 20
143.107600
 30
0.0
 10
86.285332
 20
149.893663
 30
0.0
  0
LWPOLYLINE
  5
117
100
AcDbEntity
  8
Layer_1
 62
7
100
AcDbPolyline
 90
5
 70
1
 10
97.928404
 20
139.269721
 30
0.0
 10
102.180824
 20
133.416768
 30
0.0
 10
109.061388
 20
135.652399
 30
0.0
 10
109.061388
 20
142.887046
 30
0.0
 10
102.180824
 20
145.122678
 30
0.0
  0
LWPOLYLINE
  5
118
100
AcDbEntity
  8
Layer_1
 62
7
100
AcDbPolyline
 90
5
 70
1
 10
127.293881
 20
139.269721
 30
0.0
 10
131.546301
 20
133.416768
 30
0.0
 10
138.426862
 20
135.652399
 30
0.0
 10
138.426862
 20
142.887046
 30
0.0
 10
131.546301
 20
145.122678
 30
0.0
  0
LWPOLYLINE
  5
119
100
AcDbEntity
  8
Layer_1
 62
7
100
AcDbPolyline
 90
5
 70
1
 10
141.601862
 20
142.887046
 30
0.0
 10
141.601862
 20
135.652399
 30
0.0
 10
148.482426
 20
133.416768
 30
0.0
 10
152.734846
 20
139.269721
 30
0.0
 10
148.482426
 20
145.122678
 30
0.0
  0
LWPOLYLINE
  5
11a
100
AcDbEntity
  8
Layer_1
 62
7
100
AcDbPolyline
 90
5
 70
1
 10
112.611143
 20
144.040434
 30
0.0
 10
116.863564
 20
138.187478
 30
0.0
 10
123.744125
 20
140.423109
 30
0.0
 10
123.744125
 20
147.657757
 30
0.0
 10
116.863564
 20
149.893388
 30
0.0
  0
LWPOLYLINE
  5
11b
100
AcDbEntity
  8
Layer_1
 62
7
100
AcDbPolyline
 90
37
 70
1
 10
126.919125
 20
163.096101
 30
0.0
 10
126.919125
 20
154.708066
 30
0.0
 10
126.853323
 20
154.255750
 30
0.0
 10
126.661376
 20
153.840931
 30
0.0
 10
126.359190
 20
153.497997
 30
0.0
 10
125.971821
 20
153.255377
 30
0.0
 10
125.877759
 20
153.229289
 30
0.0
 10
125.822189
 20
153.198272
 30
0.0
 10
121.394453
 20
151.759613
 30
0.0
 10
125.822189
 20
150.320954
 30
0.0
 10
125.946175
 20
150.259738
 30
0.0
 10
126.076340
 20
150.213134
 30
0.0
 10
126.150053
 20
150.159077
 30
0.0
 10
126.232034
 20
150.118601
 30
0.0
 10
126.333441
 20
150.024592
 30
0.0
 10
126.444928
 20
149.942836
 30
0.0
 10
126.500189
 20
149.870012
 30
0.0
 10
126.567234
 20
149.807859
 30
0.0
 10
126.637648
 20
149.688865
 30
0.0
 10
126.721227
 20
149.578721
 30
0.0
 10
126.735435
 20
149.523606
 30
0.0
 10
126.800001
 20
149.414492
 30
0.0
 10
126.919122
 20
148.811152
 30
0.0
 10
126.919122
 20
144.155552
 30
0.0
 10
129.655615
 20
147.922012
 30
0.0
 10
129.974713
 20
148.249267
 30
0.0
 10
130.373826
 20
148.472036
 30
0.0
 10
130.819872
 20
148.571858
 30
0.0
 10
131.430493
 20
148.498706
 30
0.0
 10
135.858231
 20
147.060047
 30
0.0
 10
133.121739
 20
150.826504
 30
0.0
 10
132.909109
 20
151.231113
 30
0.0
 10
132.820574
 20
151.679532
 30
0.0
 10
132.863474
 20
152.134591
 30
0.0
 10
133.121741
 20
152.692714
 30
0.0
 10
138.052106
 20
159.478779
 30
0.0
 10
133.799686
 20
165.331733
 30
0.0
  0
LWPOLYLINE
  5
11c
100
AcDbEntity
  8
Layer_1
 62
7
100
AcDbPolyline
 90
6
 70
1
 10
88.479217
 20
160.147640
 30
0.0
 10
88.479217
 20
152.275413
 30
0.0
 10
93.106393
 20
145.906651
 30
0.0
 10
99.986954
 20
148.142283
 30
0.0
 10
99.986954
 20
156.014510
 30
0.0
 10
95.359778
 20
162.383272
 30
0.0
  0
LWPOLYLINE
  5
11d
100
AcDbEntity
  8
Layer_1
 62
7
100
AcDbPolyline
 90
5
 70
1
 10
103.161954
 20
155.376930
 30
0.0
 10
103.161954
 20
148.142283
 30
0.0
 10
110.042518
 20
145.906651
 30
0.0
 10
114.294939
 20
151.759605
 30
0.0
 10
110.042518
 20
157.612562
 30
0.0
  0
LWPOLYLINE
  5
11e
100
AcDbEntity
  8
Layer_1
 62
7
100
AcDbPolyline
 90
6
 70
1
 10
140.995490
 20
158.128369
 30
0.0
 10
136.368311
 20
151.759605
 30
0.0
 10
140.620731
 20
145.906651
 30
0.0
 10
148.107667
 20
148.339305
 30
0.0
 10
152.734846
 20
154.708066
 30
0.0
 10
148.482426
 20
160.561023
 30
0.0
  0
LWPOLYLINE
  5
11f
100
AcDbEntity
  8
Layer_1
 62
7
100
AcDbPolyline
 90
6
 70
1
 10
112.236388
 20
167.866811
 30
0.0
 10
112.236388
 20
159.994587
 30
0.0
 10
116.863564
 20
153.625823
 30
0.0
 10
123.744125
 20
155.861454
 30
0.0
 10
123.744125
 20
163.733681
 30
0.0
 10
119.116949
 20
170.102443
 30
0.0
  0
ENDSEC
  0
SECTION
  2
OBJECTS
  0
DICTIONARY
  5
C
330
0
100
AcDbDictionary
  3
ACAD_GROUP
350
D
  3
ACAD_MLINESTYLE
350
17
  0
DICTIONARY
  5
D
330
C
100
AcDbDictionary
  0
DICTIONARY
  5
1A
330
C
100
AcDbDictionary
  0
DICTIONARY
  5
17
330
C
100
AcDbDictionary
  3
STANDARD
350
18
  0
DICTIONARY
  5
19
330
C
100
AcDbDictionary
  0
ENDSEC
  0
EOF
