999
"DXF R12 Output" (www.mydxf.blogspot.com)
 0 
SECTION
 2 
HEADER
 9 
$ACADVER
 1 
AC1009
 9 
$EXTMIN
 10 
 0 
 20 
 0 
 9 
$EXTMAX
 10 
 8.5 
 20 
 11 
 0 
ENDSEC
 0 
SECTION
 2 
ENTITIES
0
LINE
8
Layer 1
10
59.157039
20
229.112642
11
50.802002
21
226.397565
0
LINE
8
Layer 1
10
50.802002
20
226.397565
11
50.114272
21
225.921631
0
LINE
8
Layer 1
10
50.114272
20
225.921631
11
49.774161
21
224.953004
0
LINE
8
Layer 1
10
49.774161
20
224.953004
11
49.774161
21
221.083684
0
LINE
8
Layer 1
10
49.774161
20
221.083684
11
47.461489
21
224.255365
0
LINE
8
Layer 1
10
47.461489
20
224.255365
11
46.816123
21
224.745990
0
LINE
8
Layer 1
10
46.816123
20
224.745990
11
45.789750
21
224.769305
0
LINE
8
Layer 1
10
45.789750
20
224.769305
11
37.394568
21
222.041247
0
LINE
8
Layer 1
10
37.394568
20
222.041247
11
36.706838
21
221.565312
0
LINE
8
Layer 1
10
36.706838
20
221.565312
11
36.366727
21
220.596686
0
LINE
8
Layer 1
10
36.366727
20
220.596686
11
36.366727
21
212.995299
0
LINE
8
Layer 1
10
36.366727
20
212.995299
11
29.035442
21
210.618760
0
LINE
8
Layer 1
10
29.035442
20
210.618760
11
28.643795
21
210.327711
0
LINE
8
Layer 1
10
28.643795
20
210.327711
11
28.360699
21
209.999067
0
LINE
8
Layer 1
10
28.360699
20
209.999067
11
28.213183
21
209.823331
0
LINE
8
Layer 1
10
28.213183
20
209.823331
11
28.170337
21
209.603777
0
LINE
8
Layer 1
10
28.170337
20
209.603777
11
28.080421
21
209.043711
0
LINE
8
Layer 1
10
28.080421
20
209.043711
11
28.080421
21
201.590326
0
LINE
8
Layer 1
10
28.080421
20
201.590326
11
20.777508
21
199.217696
0
LINE
8
Layer 1
10
20.777508
20
199.217696
11
20.561830
21
199.092091
0
LINE
8
Layer 1
10
20.561830
20
199.092091
11
20.357179
21
198.922427
0
LINE
8
Layer 1
10
20.357179
20
198.922427
11
20.075365
21
198.595667
0
LINE
8
Layer 1
10
20.075365
20
198.595667
11
19.927413
21
198.419075
0
LINE
8
Layer 1
10
19.927413
20
198.419075
11
19.884033
21
198.198805
0
LINE
8
Layer 1
10
19.884033
20
198.198805
11
19.794632
21
197.638736
0
LINE
8
Layer 1
10
19.794632
20
197.638736
11
19.794632
21
190.185351
0
LINE
8
Layer 1
10
19.794632
20
190.185351
11
12.463347
21
187.808811
0
LINE
8
Layer 1
10
12.463347
20
187.808811
11
12.071700
21
187.517762
0
LINE
8
Layer 1
10
12.071700
20
187.517762
11
11.788606
21
187.189118
0
LINE
8
Layer 1
10
11.788606
20
187.189118
11
11.641090
21
187.013382
0
LINE
8
Layer 1
10
11.641090
20
187.013382
11
11.598244
21
186.793831
0
LINE
8
Layer 1
10
11.598244
20
186.793831
11
11.508327
21
186.233762
0
LINE
8
Layer 1
10
11.508327
20
186.233762
11
11.508327
21
177.554095
0
LINE
8
Layer 1
10
11.508327
20
177.554095
11
11.560112
21
177.129013
0
LINE
8
Layer 1
10
11.560112
20
177.129013
11
11.748234
21
176.752779
0
LINE
8
Layer 1
10
11.748234
20
176.752779
11
12.231279
21
176.253402
0
LINE
8
Layer 1
10
12.231279
20
176.253402
11
12.630580
21
176.108800
0
LINE
8
Layer 1
10
12.630580
20
176.108800
11
16.244466
21
174.934620
0
LINE
8
Layer 1
10
16.244466
20
174.934620
11
12.514098
21
173.714937
0
LINE
8
Layer 1
10
12.514098
20
173.714937
11
11.848439
21
173.253076
0
LINE
8
Layer 1
10
11.848439
20
173.253076
11
11.508327
21
172.284451
0
LINE
8
Layer 1
10
11.508327
20
172.284451
11
11.508327
21
163.457301
0
LINE
8
Layer 1
10
11.508327
20
163.457301
11
11.748165
21
162.655895
0
LINE
8
Layer 1
10
11.748165
20
162.655895
11
12.565297
21
162.032730
0
LINE
8
Layer 1
10
12.565297
20
162.032730
11
19.794632
21
159.683892
0
LINE
8
Layer 1
10
19.794632
20
159.683892
11
19.794632
21
152.052326
0
LINE
8
Layer 1
10
19.794632
20
152.052326
11
19.846870
21
151.627191
0
LINE
8
Layer 1
10
19.846870
20
151.627191
11
20.034539
21
151.250491
0
LINE
8
Layer 1
10
20.034539
20
151.250491
11
20.517585
21
150.751115
0
LINE
8
Layer 1
10
20.517585
20
150.751115
11
20.967210
21
150.590672
0
LINE
8
Layer 1
10
20.967210
20
150.590672
11
28.080421
21
148.278917
0
LINE
8
Layer 1
10
28.080421
20
148.278917
11
28.080421
21
140.647352
0
LINE
8
Layer 1
10
28.080421
20
140.647352
11
28.133177
21
140.222220
0
LINE
8
Layer 1
10
28.133177
20
140.222220
11
28.320776
21
139.845945
0
LINE
8
Layer 1
10
28.320776
20
139.845945
11
28.803889
21
139.346140
0
LINE
8
Layer 1
10
28.803889
20
139.346140
11
29.202674
21
139.202056
0
LINE
8
Layer 1
10
29.202674
20
139.202056
11
36.366727
21
136.874459
0
LINE
8
Layer 1
10
36.366727
20
136.874459
11
36.366727
21
129.242893
0
LINE
8
Layer 1
10
36.366727
20
129.242893
11
36.606564
21
128.441489
0
LINE
8
Layer 1
10
36.606564
20
128.441489
11
37.423696
21
127.818325
0
LINE
8
Layer 1
10
37.423696
20
127.818325
11
45.818851
21
125.090697
0
LINE
8
Layer 1
10
45.818851
20
125.090697
11
46.655272
21
125.071276
0
LINE
8
Layer 1
10
46.655272
20
125.071276
11
47.499932
21
125.655462
0
LINE
8
Layer 1
10
47.499932
20
125.655462
11
49.774161
21
128.786064
0
LINE
8
Layer 1
10
49.774161
20
128.786064
11
49.781278
21
124.861084
0
LINE
8
Layer 1
10
49.781278
20
124.861084
11
50.013995
21
124.085160
0
LINE
8
Layer 1
10
50.013995
20
124.085160
11
50.831128
21
123.461995
0
LINE
8
Layer 1
10
50.831128
20
123.461995
11
59.226283
21
120.734369
0
LINE
8
Layer 1
10
59.226283
20
120.734369
11
60.062225
21
120.715425
0
LINE
8
Layer 1
10
60.062225
20
120.715425
11
60.906848
21
121.299151
0
LINE
8
Layer 1
10
60.906848
20
121.299151
11
65.375253
21
127.448684
0
LINE
8
Layer 1
10
65.375253
20
127.448684
11
72.633198
21
125.090691
0
LINE
8
Layer 1
10
72.633198
20
125.090691
11
73.294656
21
125.018862
0
LINE
8
Layer 1
10
73.294656
20
125.018862
11
73.700904
21
125.225467
0
LINE
8
Layer 1
10
73.700904
20
125.225467
11
74.293520
21
125.588832
0
LINE
8
Layer 1
10
74.293520
20
125.588832
11
74.867800
21
126.417395
0
LINE
8
Layer 1
10
74.867800
20
126.417395
11
78.782171
21
131.805004
0
LINE
8
Layer 1
10
78.782171
20
131.805004
11
86.040632
21
129.447011
0
LINE
8
Layer 1
10
86.040632
20
129.447011
11
86.704156
21
129.374663
0
LINE
8
Layer 1
10
86.704156
20
129.374663
11
87.108336
21
129.581784
0
LINE
8
Layer 1
10
87.108336
20
129.581784
11
87.700954
21
129.945149
0
LINE
8
Layer 1
10
87.700954
20
129.945149
11
88.275234
21
130.773715
0
LINE
8
Layer 1
10
88.275234
20
130.773715
11
92.189602
21
136.161320
0
LINE
8
Layer 1
10
92.189602
20
136.161320
11
99.447548
21
133.803327
0
LINE
8
Layer 1
10
99.447548
20
133.803327
11
100.284511
21
133.783881
0
LINE
8
Layer 1
10
100.284511
20
133.783881
11
101.129094
21
134.368659
0
LINE
8
Layer 1
10
101.129094
20
134.368659
11
106.317405
21
141.509823
0
LINE
8
Layer 1
10
106.317405
20
141.509823
11
106.593945
21
142.299588
0
LINE
8
Layer 1
10
106.593945
20
142.299588
11
106.299596
21
143.282656
0
LINE
8
Layer 1
10
106.299596
20
143.282656
11
104.025042
21
146.413396
0
LINE
8
Layer 1
10
104.025042
20
146.413396
11
107.760288
21
145.207170
0
LINE
8
Layer 1
10
107.760288
20
145.207170
11
108.570277
21
145.188887
0
LINE
8
Layer 1
10
108.570277
20
145.188887
11
109.414937
21
145.773076
0
LINE
8
Layer 1
10
109.414937
20
145.773076
11
114.603711
21
152.914795
0
LINE
8
Layer 1
10
114.603711
20
152.914795
11
114.880251
21
153.704560
0
LINE
8
Layer 1
10
114.880251
20
153.704560
11
114.585902
21
154.687628
0
LINE
8
Layer 1
10
114.585902
20
154.687628
11
110.117685
21
160.837299
0
LINE
8
Layer 1
10
110.117685
20
160.837299
11
114.603711
21
167.012108
0
LINE
8
Layer 1
10
114.603711
20
167.012108
11
114.912244
21
167.918879
0
LINE
8
Layer 1
10
114.912244
20
167.918879
11
114.730380
21
168.336992
0
LINE
8
Layer 1
10
114.730380
20
168.336992
11
114.451946
21
168.969062
0
LINE
8
Layer 1
10
114.451946
20
168.969062
11
110.117169
21
174.934612
0
LINE
8
Layer 1
10
110.117169
20
174.934612
11
114.603711
21
181.108905
0
LINE
8
Layer 1
10
114.603711
20
181.108905
11
114.902854
21
181.990938
0
LINE
8
Layer 1
10
114.902854
20
181.990938
11
114.844962
21
182.195024
0
LINE
8
Layer 1
10
114.844962
20
182.195024
11
114.737519
21
182.408828
0
LINE
8
Layer 1
10
114.737519
20
182.408828
11
114.451946
21
183.066375
0
LINE
8
Layer 1
10
114.451946
20
183.066375
11
110.117169
21
189.031925
0
LINE
8
Layer 1
10
110.117169
20
189.031925
11
114.603711
21
195.206218
0
LINE
8
Layer 1
10
114.603711
20
195.206218
11
114.902854
21
196.088251
0
LINE
8
Layer 1
10
114.902854
20
196.088251
11
114.844962
21
196.292337
0
LINE
8
Layer 1
10
114.844962
20
196.292337
11
114.737519
21
196.506141
0
LINE
8
Layer 1
10
114.737519
20
196.506141
11
114.451957
21
197.163693
0
LINE
8
Layer 1
10
114.451957
20
197.163693
11
109.397316
21
204.121424
0
LINE
8
Layer 1
10
109.397316
20
204.121424
11
108.698263
21
204.670185
0
LINE
8
Layer 1
10
108.698263
20
204.670185
11
108.224811
21
204.663597
0
LINE
8
Layer 1
10
108.224811
20
204.663597
11
107.514141
21
204.590170
0
LINE
8
Layer 1
10
107.514141
20
204.590170
11
104.025042
21
203.456855
0
LINE
8
Layer 1
10
104.025042
20
203.456855
11
106.326613
21
206.635987
0
LINE
8
Layer 1
10
106.326613
20
206.635987
11
106.593945
21
207.400947
0
LINE
8
Layer 1
10
106.593945
20
207.400947
11
106.299596
21
208.384531
0
LINE
8
Layer 1
10
106.299596
20
208.384531
11
101.111010
21
215.526389
0
LINE
8
Layer 1
10
101.111010
20
215.526389
11
100.445856
21
216.032895
0
LINE
8
Layer 1
10
100.445856
20
216.032895
11
99.418938
21
216.057252
0
LINE
8
Layer 1
10
99.418938
20
216.057252
11
92.189602
21
213.707896
0
LINE
8
Layer 1
10
92.189602
20
213.707896
11
87.704095
21
219.882705
0
LINE
8
Layer 1
10
87.704095
20
219.882705
11
87.038422
21
220.389212
0
LINE
8
Layer 1
10
87.038422
20
220.389212
11
86.012020
21
220.413569
0
LINE
8
Layer 1
10
86.012020
20
220.413569
11
78.782171
21
218.064213
0
LINE
8
Layer 1
10
78.782171
20
218.064213
11
74.296661
21
224.239022
0
LINE
8
Layer 1
10
74.296661
20
224.239022
11
73.597227
21
224.787890
0
LINE
8
Layer 1
10
73.597227
20
224.787890
11
73.123148
21
224.780928
0
LINE
8
Layer 1
10
73.123148
20
224.780928
11
72.413488
21
224.707249
0
LINE
8
Layer 1
10
72.413488
20
224.707249
11
65.375253
21
222.420530
0
LINE
8
Layer 1
10
65.375253
20
222.420530
11
60.889227
21
228.594306
0
LINE
8
Layer 1
10
60.889227
20
228.594306
11
60.224070
21
229.102283
0
LINE
8
Layer 1
10
60.224070
20
229.102283
11
59.196665
21
229.125601
0
LINE
8
Layer 1
10
59.196665
20
229.125601
11
59.171530
21
229.117364
0
LINE
8
Layer 1
10
59.171530
20
229.117364
11
59.157039
21
229.112642
0
LINE
8
Layer 1
10
62.806940
20
220.554518
11
59.041284
21
215.371895
0
LINE
8
Layer 1
10
59.041284
20
215.371895
11
52.949157
21
217.351617
0
LINE
8
Layer 1
10
52.949157
20
217.351617
11
52.949157
21
223.757420
0
LINE
8
Layer 1
10
52.949157
20
223.757420
11
59.041284
21
225.736624
0
LINE
8
Layer 1
10
59.041284
20
225.736624
11
62.806940
21
220.554518
0
LINE
8
Layer 1
10
62.806940
20
220.554518
11
62.806940
21
220.554518
0
LINE
8
Layer 1
10
49.399506
20
216.198201
11
45.633850
21
211.015577
0
LINE
8
Layer 1
10
45.633850
20
211.015577
11
39.541723
21
212.995299
0
LINE
8
Layer 1
10
39.541723
20
212.995299
11
39.541723
21
219.401102
0
LINE
8
Layer 1
10
39.541723
20
219.401102
11
45.633850
21
221.380307
0
LINE
8
Layer 1
10
45.633850
20
221.380307
11
49.399506
21
216.198201
0
LINE
8
Layer 1
10
49.399506
20
216.198201
11
49.399506
21
216.198201
0
LINE
8
Layer 1
10
76.214374
20
216.198201
11
72.448718
21
211.015577
0
LINE
8
Layer 1
10
72.448718
20
211.015577
11
65.362336
21
213.318277
0
LINE
8
Layer 1
10
65.362336
20
213.318277
11
65.161180
21
213.411418
0
LINE
8
Layer 1
10
65.161180
20
213.411418
11
64.905951
21
213.386004
0
LINE
8
Layer 1
10
64.905951
20
213.386004
11
64.353317
21
213.392981
0
LINE
8
Layer 1
10
64.353317
20
213.392981
11
64.130129
21
213.305639
0
LINE
8
Layer 1
10
64.130129
20
213.305639
11
63.937786
21
213.171468
0
LINE
8
Layer 1
10
63.937786
20
213.171468
11
63.406662
21
212.668129
0
LINE
8
Layer 1
10
63.406662
20
212.668129
11
61.234944
21
209.678711
0
LINE
8
Layer 1
10
61.234944
20
209.678711
11
61.234944
21
212.990133
0
LINE
8
Layer 1
10
61.234944
20
212.990133
11
65.749391
21
219.204216
0
LINE
8
Layer 1
10
65.749391
20
219.204216
11
72.448718
21
221.380308
0
LINE
8
Layer 1
10
72.448718
20
221.380308
11
76.214374
21
216.198201
0
LINE
8
Layer 1
10
76.214374
20
216.198201
11
76.214374
21
216.198201
0
LINE
8
Layer 1
10
89.995944
20
211.326153
11
89.995944
21
203.644461
0
LINE
8
Layer 1
10
89.995944
20
203.644461
11
88.049812
21
200.966074
0
LINE
8
Layer 1
10
88.049812
20
200.966074
11
88.042642
21
204.891558
0
LINE
8
Layer 1
10
88.042642
20
204.891558
11
87.808970
21
205.667016
0
LINE
8
Layer 1
10
87.808970
20
205.667016
11
86.993329
21
206.290059
0
LINE
8
Layer 1
10
86.993329
20
206.290059
11
79.763506
21
208.638981
0
LINE
8
Layer 1
10
79.763506
20
208.638981
11
79.763506
21
215.044784
0
LINE
8
Layer 1
10
79.763506
20
215.044784
11
85.855633
21
217.023989
0
LINE
8
Layer 1
10
85.855633
20
217.023989
11
89.995944
21
211.326153
0
LINE
8
Layer 1
10
89.995944
20
211.326153
11
89.995944
21
211.326153
0
LINE
8
Layer 1
10
58.059948
20
212.352445
11
58.059948
21
205.946643
0
LINE
8
Layer 1
10
58.059948
20
205.946643
11
51.967821
21
203.967438
0
LINE
8
Layer 1
10
51.967821
20
203.967438
11
48.202165
21
209.149545
0
LINE
8
Layer 1
10
48.202165
20
209.149545
11
51.967821
21
214.331650
0
LINE
8
Layer 1
10
51.967821
20
214.331650
11
58.059948
21
212.352445
0
LINE
8
Layer 1
10
58.059948
20
212.352445
11
58.059948
21
212.352445
0
LINE
8
Layer 1
10
103.028723
20
207.485566
11
99.263067
21
202.303460
0
LINE
8
Layer 1
10
99.263067
20
202.303460
11
93.170940
21
204.282665
0
LINE
8
Layer 1
10
93.170940
20
204.282665
11
93.170940
21
210.688465
0
LINE
8
Layer 1
10
93.170940
20
210.688465
11
99.263067
21
212.667671
0
LINE
8
Layer 1
10
99.263067
20
212.667671
11
103.028723
21
207.485566
0
LINE
8
Layer 1
10
103.028723
20
207.485566
11
103.028723
21
207.485566
0
LINE
8
Layer 1
10
76.588510
20
207.485566
11
76.808651
21
206.628254
0
LINE
8
Layer 1
10
76.808651
20
206.628254
11
77.644990
21
205.988733
0
LINE
8
Layer 1
10
77.644990
20
205.988733
11
84.874816
21
203.639810
0
LINE
8
Layer 1
10
84.874816
20
203.639810
11
84.874816
21
197.234007
0
LINE
8
Layer 1
10
84.874816
20
197.234007
11
78.782173
21
195.254802
0
LINE
8
Layer 1
10
78.782173
20
195.254802
11
74.296663
21
201.429095
0
LINE
8
Layer 1
10
74.296663
20
201.429095
11
73.630991
21
201.935602
0
LINE
8
Layer 1
10
73.630991
20
201.935602
11
72.604591
21
201.959970
0
LINE
8
Layer 1
10
72.604591
20
201.959970
11
65.375255
21
199.611132
0
LINE
8
Layer 1
10
65.375255
20
199.611132
11
61.609599
21
204.793236
0
LINE
8
Layer 1
10
61.609599
20
204.793236
11
65.375255
21
209.975343
0
LINE
8
Layer 1
10
65.375255
20
209.975343
11
72.633201
21
207.617350
0
LINE
8
Layer 1
10
72.633201
20
207.617350
11
73.294658
21
207.545521
0
LINE
8
Layer 1
10
73.294658
20
207.545521
11
73.700907
21
207.752123
0
LINE
8
Layer 1
10
73.700907
20
207.752123
11
74.293523
21
208.115491
0
LINE
8
Layer 1
10
74.293523
20
208.115491
11
74.867763
21
208.944083
0
LINE
8
Layer 1
10
74.867763
20
208.944083
11
76.588510
21
211.312728
0
LINE
8
Layer 1
10
76.588510
20
211.312728
11
76.588510
21
207.485577
0
LINE
8
Layer 1
10
76.588510
20
207.485577
11
76.588510
21
207.485566
0
LINE
8
Layer 1
10
45.259714
20
207.799240
11
47.205846
21
205.120856
0
LINE
8
Layer 1
10
47.205846
20
205.120856
11
43.661878
21
206.272205
0
LINE
8
Layer 1
10
43.661878
20
206.272205
11
43.462653
21
206.362301
0
LINE
8
Layer 1
10
43.462653
20
206.362301
11
43.212730
21
206.337348
0
LINE
8
Layer 1
10
43.212730
20
206.337348
11
42.660612
21
206.344332
0
LINE
8
Layer 1
10
42.660612
20
206.344332
11
42.437420
21
206.256994
0
LINE
8
Layer 1
10
42.437420
20
206.256994
11
42.244838
21
206.123054
0
LINE
8
Layer 1
10
42.244838
20
206.123054
11
41.713436
21
205.619484
0
LINE
8
Layer 1
10
41.713436
20
205.619484
11
37.348060
21
199.611129
0
LINE
8
Layer 1
10
37.348060
20
199.611129
11
31.255417
21
201.590334
0
LINE
8
Layer 1
10
31.255417
20
201.590334
11
31.255417
21
207.996135
0
LINE
8
Layer 1
10
31.255417
20
207.996135
11
37.954225
21
210.172745
0
LINE
8
Layer 1
10
37.954225
20
210.172745
11
45.259714
21
207.799248
0
LINE
8
Layer 1
10
45.259714
20
207.799248
11
45.259714
21
207.799240
0
LINE
8
Layer 1
10
49.774161
20
200.947472
11
49.774161
21
194.541669
0
LINE
8
Layer 1
10
49.774161
20
194.541669
11
42.515697
21
192.183160
0
LINE
8
Layer 1
10
42.515697
20
192.183160
11
41.827966
21
191.706709
0
LINE
8
Layer 1
10
41.827966
20
191.706709
11
41.487855
21
190.738082
0
LINE
8
Layer 1
10
41.487855
20
190.738082
11
41.487855
21
183.136694
0
LINE
8
Layer 1
10
41.487855
20
183.136694
11
35.395729
21
181.157489
0
LINE
8
Layer 1
10
35.395729
20
181.157489
11
31.630072
21
186.339596
0
LINE
8
Layer 1
10
31.630072
20
186.339596
11
36.116095
21
192.513889
0
LINE
8
Layer 1
10
36.116095
20
192.513889
11
36.415241
21
193.395921
0
LINE
8
Layer 1
10
36.415241
20
193.395921
11
36.357349
21
193.600007
0
LINE
8
Layer 1
10
36.357349
20
193.600007
11
36.249903
21
193.813811
0
LINE
8
Layer 1
10
36.249903
20
193.813811
11
35.964325
21
194.471353
0
LINE
8
Layer 1
10
35.964325
20
194.471353
11
33.823732
21
197.416942
0
LINE
8
Layer 1
10
33.823732
20
197.416942
11
37.558980
21
196.211240
0
LINE
8
Layer 1
10
37.558980
20
196.211240
11
38.194003
21
196.140536
0
LINE
8
Layer 1
10
38.194003
20
196.140536
11
38.600665
21
196.347810
0
LINE
8
Layer 1
10
38.600665
20
196.347810
11
39.192786
21
196.710019
0
LINE
8
Layer 1
10
39.192786
20
196.710019
11
39.751596
21
197.517664
0
LINE
8
Layer 1
10
39.751596
20
197.517664
11
43.681516
21
202.926677
0
LINE
8
Layer 1
10
43.681516
20
202.926677
11
49.774161
21
200.947472
0
LINE
8
Layer 1
10
49.774161
20
200.947472
11
49.774161
21
200.947472
0
LINE
8
Layer 1
10
63.181076
20
197.229356
11
63.181076
21
190.185352
0
LINE
8
Layer 1
10
63.181076
20
190.185352
11
57.088950
21
188.206147
0
LINE
8
Layer 1
10
57.088950
20
188.206147
11
52.949157
21
193.903981
0
LINE
8
Layer 1
10
52.949157
20
193.903981
11
52.949157
21
200.947472
0
LINE
8
Layer 1
10
52.949157
20
200.947472
11
59.041284
21
202.926677
0
LINE
8
Layer 1
10
59.041284
20
202.926677
11
63.181076
21
197.229356
0
LINE
8
Layer 1
10
63.181076
20
197.229356
11
63.181076
21
197.229356
0
LINE
8
Layer 1
10
98.281731
20
199.283493
11
98.281731
21
192.877690
0
LINE
8
Layer 1
10
98.281731
20
192.877690
11
92.189605
21
190.898485
0
LINE
8
Layer 1
10
92.189605
20
190.898485
11
88.423948
21
196.080592
0
LINE
8
Layer 1
10
88.423948
20
196.080592
11
92.189605
21
201.262696
0
LINE
8
Layer 1
10
92.189605
20
201.262696
11
98.281731
21
199.283493
0
LINE
8
Layer 1
10
98.281731
20
199.283493
11
98.281731
21
199.283493
0
LINE
8
Layer 1
10
111.315029
20
196.080592
11
107.549373
21
190.898485
0
LINE
8
Layer 1
10
107.549373
20
190.898485
11
101.456727
21
192.877690
0
LINE
8
Layer 1
10
101.456727
20
192.877690
11
101.456727
21
199.283493
0
LINE
8
Layer 1
10
101.456727
20
199.283493
11
107.549373
21
201.262696
0
LINE
8
Layer 1
10
107.549373
20
201.262696
11
111.315029
21
196.080592
0
LINE
8
Layer 1
10
111.315029
20
196.080592
11
111.315029
21
196.080592
0
LINE
8
Layer 1
10
76.214374
20
193.388769
11
71.727832
21
187.214476
0
LINE
8
Layer 1
10
71.727832
20
187.214476
11
71.607877
21
187.021201
0
LINE
8
Layer 1
10
71.607877
20
187.021201
11
71.557904
21
186.805277
0
LINE
8
Layer 1
10
71.557904
20
186.805277
11
71.478855
21
186.544894
0
LINE
8
Layer 1
10
71.478855
20
186.544894
11
71.490636
21
186.284303
0
LINE
8
Layer 1
10
71.490636
20
186.284303
11
71.509021
21
185.995241
0
LINE
8
Layer 1
10
71.509021
20
185.995241
11
71.599811
21
185.737296
0
LINE
8
Layer 1
10
71.599811
20
185.737296
11
71.832930
21
185.321216
0
LINE
8
Layer 1
10
71.832930
20
185.321216
11
76.934225
21
178.299270
0
LINE
8
Layer 1
10
76.934225
20
178.299270
11
77.311462
21
177.917382
0
LINE
8
Layer 1
10
77.311462
20
177.917382
11
77.745026
21
177.786640
0
LINE
8
Layer 1
10
77.745026
20
177.786640
11
78.440017
21
177.699111
0
LINE
8
Layer 1
10
78.440017
20
177.699111
11
79.421321
21
178.026742
0
LINE
8
Layer 1
10
79.421321
20
178.026742
11
85.855633
21
180.117244
0
LINE
8
Layer 1
10
85.855633
20
180.117244
11
89.621289
21
174.935140
0
LINE
8
Layer 1
10
89.621289
20
174.935140
11
85.855633
21
169.752514
0
LINE
8
Layer 1
10
85.855633
20
169.752514
11
78.762536
21
172.057799
0
LINE
8
Layer 1
10
78.762536
20
172.057799
11
78.563680
21
172.148327
0
LINE
8
Layer 1
10
78.563680
20
172.148327
11
78.313904
21
172.122461
0
LINE
8
Layer 1
10
78.313904
20
172.122461
11
77.761240
21
172.129949
0
LINE
8
Layer 1
10
77.761240
20
172.129949
11
77.538007
21
172.042640
0
LINE
8
Layer 1
10
77.538007
20
172.042640
11
77.345495
21
171.908630
0
LINE
8
Layer 1
10
77.345495
20
171.908630
11
76.814091
21
171.404541
0
LINE
8
Layer 1
10
76.814091
20
171.404541
11
71.727832
21
164.404517
0
LINE
8
Layer 1
10
71.727832
20
164.404517
11
71.607877
21
164.211241
0
LINE
8
Layer 1
10
71.607877
20
164.211241
11
71.557904
21
163.995318
0
LINE
8
Layer 1
10
71.557904
20
163.995318
11
71.478661
21
163.735264
0
LINE
8
Layer 1
10
71.478661
20
163.735264
11
71.490636
21
163.474859
0
LINE
8
Layer 1
10
71.490636
20
163.474859
11
71.509021
21
163.185534
0
LINE
8
Layer 1
10
71.509021
20
163.185534
11
71.599811
21
162.927336
0
LINE
8
Layer 1
10
71.599811
20
162.927336
11
71.832935
21
162.511261
0
LINE
8
Layer 1
10
71.832935
20
162.511261
11
76.214374
21
156.481497
0
LINE
8
Layer 1
10
76.214374
20
156.481497
11
72.448718
21
151.298874
0
LINE
8
Layer 1
10
72.448718
20
151.298874
11
66.356072
21
153.278595
0
LINE
8
Layer 1
10
66.356072
20
153.278595
11
66.356072
21
160.910161
0
LINE
8
Layer 1
10
66.356072
20
160.910161
11
66.116167
21
161.711996
0
LINE
8
Layer 1
10
66.116167
20
161.711996
11
65.299103
21
162.334215
0
LINE
8
Layer 1
10
65.299103
20
162.334215
11
57.076549
21
165.006030
0
LINE
8
Layer 1
10
57.076549
20
165.006030
11
56.888923
21
165.101511
0
LINE
8
Layer 1
10
56.888923
20
165.101511
11
56.647117
21
165.072692
0
LINE
8
Layer 1
10
56.647117
20
165.072692
11
56.067500
21
165.081291
0
LINE
8
Layer 1
10
56.067500
20
165.081291
11
55.844526
21
164.993982
0
LINE
8
Layer 1
10
55.844526
20
164.993982
11
55.652272
21
164.859972
0
LINE
8
Layer 1
10
55.652272
20
164.859972
11
55.120862
21
164.355891
0
LINE
8
Layer 1
10
55.120862
20
164.355891
11
50.754978
21
158.347532
0
LINE
8
Layer 1
10
50.754978
20
158.347532
11
44.662851
21
160.326734
0
LINE
8
Layer 1
10
44.662851
20
160.326734
11
44.662851
21
166.732537
0
LINE
8
Layer 1
10
44.662851
20
166.732537
11
51.921313
21
169.091565
0
LINE
8
Layer 1
10
51.921313
20
169.091565
11
52.609043
21
169.567499
0
LINE
8
Layer 1
10
52.609043
20
169.567499
11
52.949157
21
170.536124
0
LINE
8
Layer 1
10
52.949157
20
170.536124
11
52.949157
21
179.363793
0
LINE
8
Layer 1
10
52.949157
20
179.363793
11
52.708315
21
180.164720
0
LINE
8
Layer 1
10
52.708315
20
180.164720
11
51.892674
21
180.787760
0
LINE
8
Layer 1
10
51.892674
20
180.787760
11
44.662851
21
183.136683
0
LINE
8
Layer 1
10
44.662851
20
183.136683
11
44.662851
21
189.542486
0
LINE
8
Layer 1
10
44.662851
20
189.542486
11
50.754978
21
191.522208
0
LINE
8
Layer 1
10
50.754978
20
191.522208
11
55.241004
21
185.347399
0
LINE
8
Layer 1
10
55.241004
20
185.347399
11
55.906158
21
184.840892
0
LINE
8
Layer 1
10
55.906158
20
184.840892
11
56.932560
21
184.816523
0
LINE
8
Layer 1
10
56.932560
20
184.816523
11
65.328231
21
187.544668
0
LINE
8
Layer 1
10
65.328231
20
187.544668
11
66.015961
21
188.021118
0
LINE
8
Layer 1
10
66.015961
20
188.021118
11
66.356072
21
188.989746
0
LINE
8
Layer 1
10
66.356072
20
188.989746
11
66.356072
21
196.591131
0
LINE
8
Layer 1
10
66.356072
20
196.591131
11
72.448718
21
198.570855
0
LINE
8
Layer 1
10
72.448718
20
198.570855
11
76.214374
21
193.388748
0
LINE
8
Layer 1
10
76.214374
20
193.388748
11
76.214374
21
193.388769
0
LINE
8
Layer 1
10
32.827413
20
193.388240
11
28.340353
21
187.213428
0
LINE
8
Layer 1
10
28.340353
20
187.213428
11
28.220821
21
187.020939
0
LINE
8
Layer 1
10
28.220821
20
187.020939
11
28.170996
21
186.805778
0
LINE
8
Layer 1
10
28.170996
20
186.805778
11
28.091909
21
186.545152
0
LINE
8
Layer 1
10
28.091909
20
186.545152
11
28.103676
21
186.284290
0
LINE
8
Layer 1
10
28.103676
20
186.284290
11
28.122691
21
185.994921
0
LINE
8
Layer 1
10
28.122691
20
185.994921
11
28.213761
21
185.736672
0
LINE
8
Layer 1
10
28.213761
20
185.736672
11
28.445972
21
185.320689
0
LINE
8
Layer 1
10
28.445972
20
185.320689
11
30.633235
21
182.310377
0
LINE
8
Layer 1
10
30.633235
20
182.310377
11
27.483559
21
183.333568
0
LINE
8
Layer 1
10
27.483559
20
183.333568
11
22.969628
21
189.547651
0
LINE
8
Layer 1
10
22.969628
20
189.547651
11
22.969628
21
196.591139
0
LINE
8
Layer 1
10
22.969628
20
196.591139
11
29.061754
21
198.570344
0
LINE
8
Layer 1
10
29.061754
20
198.570344
11
32.827413
21
193.388240
0
LINE
8
Layer 1
10
32.827413
20
193.388240
11
32.827413
21
193.388240
0
LINE
8
Layer 1
10
89.621289
20
189.031921
11
85.481497
21
183.333568
0
LINE
8
Layer 1
10
85.481497
20
183.333568
11
78.782173
21
181.157476
0
LINE
8
Layer 1
10
78.782173
20
181.157476
11
75.016514
21
186.339582
0
LINE
8
Layer 1
10
75.016514
20
186.339582
11
79.156825
21
192.037935
0
LINE
8
Layer 1
10
79.156825
20
192.037935
11
85.855633
21
194.214543
0
LINE
8
Layer 1
10
85.855633
20
194.214543
11
89.621289
21
189.031921
0
LINE
8
Layer 1
10
89.621289
20
189.031921
11
89.621289
21
189.031921
0
LINE
8
Layer 1
10
107.174718
20
187.681619
11
111.315029
21
181.983266
0
LINE
8
Layer 1
10
111.315029
20
181.983266
11
107.549373
21
176.801159
0
LINE
8
Layer 1
10
107.549373
20
176.801159
11
101.456727
21
178.780364
0
LINE
8
Layer 1
10
101.456727
20
178.780364
11
101.456727
21
186.411930
0
LINE
8
Layer 1
10
101.456727
20
186.411930
11
101.216891
21
187.213333
0
LINE
8
Layer 1
10
101.216891
20
187.213333
11
100.399758
21
187.836498
0
LINE
8
Layer 1
10
100.399758
20
187.836498
11
96.720588
21
189.031921
0
LINE
8
Layer 1
10
96.720588
20
189.031921
11
99.869229
21
190.055113
0
LINE
8
Layer 1
10
99.869229
20
190.055113
11
107.174718
21
187.681619
0
LINE
8
Layer 1
10
107.174718
20
187.681619
11
107.174718
21
187.681619
0
LINE
8
Layer 1
10
24.541107
20
181.983279
11
20.775450
21
176.801172
0
LINE
8
Layer 1
10
20.775450
20
176.801172
11
14.683323
21
178.780377
0
LINE
8
Layer 1
10
14.683323
20
178.780377
11
14.683323
21
185.186180
0
LINE
8
Layer 1
10
14.683323
20
185.186180
11
20.775450
21
187.165901
0
LINE
8
Layer 1
10
20.775450
20
187.165901
11
24.541107
21
181.983279
0
LINE
8
Layer 1
10
24.541107
20
181.983279
11
24.541107
21
181.983279
0
LINE
8
Layer 1
10
98.281731
20
185.186180
11
98.281731
21
177.554096
0
LINE
8
Layer 1
10
98.281731
20
177.554096
11
98.522642
21
176.752740
0
LINE
8
Layer 1
10
98.522642
20
176.752740
11
99.338703
21
176.130560
0
LINE
8
Layer 1
10
99.338703
20
176.130560
11
103.018389
21
174.934621
0
LINE
8
Layer 1
10
103.018389
20
174.934621
11
99.287475
21
173.714983
0
LINE
8
Layer 1
10
99.287475
20
173.714983
11
98.621845
21
173.253593
0
LINE
8
Layer 1
10
98.621845
20
173.253593
11
98.281731
21
172.284452
0
LINE
8
Layer 1
10
98.281731
20
172.284452
11
98.281731
21
164.683064
0
LINE
8
Layer 1
10
98.281731
20
164.683064
11
92.189605
21
162.703859
0
LINE
8
Layer 1
10
92.189605
20
162.703859
11
88.423948
21
167.885966
0
LINE
8
Layer 1
10
88.423948
20
167.885966
11
92.910490
21
174.060775
0
LINE
8
Layer 1
10
92.910490
20
174.060775
11
93.209609
21
174.942299
0
LINE
8
Layer 1
10
93.209609
20
174.942299
11
93.159189
21
175.136066
0
LINE
8
Layer 1
10
93.159189
20
175.136066
11
93.050526
21
175.335771
0
LINE
8
Layer 1
10
93.050526
20
175.335771
11
92.758728
21
176.017726
0
LINE
8
Layer 1
10
92.758728
20
176.017726
11
88.423948
21
181.983279
0
LINE
8
Layer 1
10
88.423948
20
181.983279
11
92.189605
21
187.165901
0
LINE
8
Layer 1
10
92.189605
20
187.165901
11
98.281731
21
185.186180
0
LINE
8
Layer 1
10
98.281731
20
185.186180
11
98.281731
21
185.186180
0
LINE
8
Layer 1
10
49.774161
20
178.137523
11
49.774161
21
171.731719
0
LINE
8
Layer 1
10
49.774161
20
171.731719
11
43.075353
21
169.555627
0
LINE
8
Layer 1
10
43.075353
20
169.555627
11
36.376546
21
171.731719
0
LINE
8
Layer 1
10
36.376546
20
171.731719
11
36.376546
21
178.137523
0
LINE
8
Layer 1
10
36.376546
20
178.137523
11
43.075353
21
180.314130
0
LINE
8
Layer 1
10
43.075353
20
180.314130
11
49.774161
21
178.137523
0
LINE
8
Layer 1
10
49.774161
20
178.137523
11
49.774161
21
178.137523
0
LINE
8
Layer 1
10
33.201550
20
178.137523
11
33.201550
21
171.731719
0
LINE
8
Layer 1
10
33.201550
20
171.731719
11
27.109423
21
169.752514
0
LINE
8
Layer 1
10
27.109423
20
169.752514
11
23.343765
21
174.934621
0
LINE
8
Layer 1
10
23.343765
20
174.934621
11
27.109423
21
180.117244
0
LINE
8
Layer 1
10
27.109423
20
180.117244
11
33.201550
21
178.137523
0
LINE
8
Layer 1
10
33.201550
20
178.137523
11
33.201550
21
178.137523
0
LINE
8
Layer 1
10
24.541107
20
167.885966
11
20.775450
21
162.703859
0
LINE
8
Layer 1
10
20.775450
20
162.703859
11
14.683323
21
164.683064
0
LINE
8
Layer 1
10
14.683323
20
164.683064
11
14.683323
21
171.088867
0
LINE
8
Layer 1
10
14.683323
20
171.088867
11
20.775450
21
173.068588
0
LINE
8
Layer 1
10
20.775450
20
173.068588
11
24.541107
21
167.885966
0
LINE
8
Layer 1
10
24.541107
20
167.885966
11
24.541107
21
167.885966
0
LINE
8
Layer 1
10
111.315029
20
167.885966
11
107.174718
21
162.188129
0
LINE
8
Layer 1
10
107.174718
20
162.188129
11
99.869229
21
159.814634
0
LINE
8
Layer 1
10
99.869229
20
159.814634
11
96.720588
21
160.837308
0
LINE
8
Layer 1
10
96.720588
20
160.837308
11
100.450986
21
162.057464
0
LINE
8
Layer 1
10
100.450986
20
162.057464
11
101.116616
21
162.518852
0
LINE
8
Layer 1
10
101.116616
20
162.518852
11
101.456727
21
163.487480
0
LINE
8
Layer 1
10
101.456727
20
163.487480
11
101.456727
21
171.088867
0
LINE
8
Layer 1
10
101.456727
20
171.088867
11
107.549373
21
173.068588
0
LINE
8
Layer 1
10
107.549373
20
173.068588
11
111.315029
21
167.885966
0
LINE
8
Layer 1
10
111.315029
20
167.885966
11
111.315029
21
167.885966
0
LINE
8
Layer 1
10
41.487855
20
166.732548
11
41.487855
21
159.100982
0
LINE
8
Layer 1
10
41.487855
20
159.100982
11
41.539552
21
158.676866
0
LINE
8
Layer 1
10
41.539552
20
158.676866
11
41.727761
21
158.299147
0
LINE
8
Layer 1
10
41.727761
20
158.299147
11
42.210807
21
157.799771
0
LINE
8
Layer 1
10
42.210807
20
157.799771
11
42.660434
21
157.639336
0
LINE
8
Layer 1
10
42.660434
20
157.639336
11
49.774161
21
155.328092
0
LINE
8
Layer 1
10
49.774161
20
155.328092
11
49.774161
21
148.922289
0
LINE
8
Layer 1
10
49.774161
20
148.922289
11
43.681516
21
146.942568
0
LINE
8
Layer 1
10
43.681516
20
146.942568
11
39.196008
21
153.116342
0
LINE
8
Layer 1
10
39.196008
20
153.116342
11
38.530333
21
153.624320
0
LINE
8
Layer 1
10
38.530333
20
153.624320
11
37.503447
21
153.647630
0
LINE
8
Layer 1
10
37.503447
20
153.647630
11
33.823732
21
152.451776
0
LINE
8
Layer 1
10
33.823732
20
152.451776
11
36.125303
21
155.631939
0
LINE
8
Layer 1
10
36.125303
20
155.631939
11
36.392611
21
156.397409
0
LINE
8
Layer 1
10
36.392611
20
156.397409
11
36.407154
21
156.611913
0
LINE
8
Layer 1
10
36.407154
20
156.611913
11
36.277951
21
156.805669
0
LINE
8
Layer 1
10
36.277951
20
156.805669
11
36.166660
21
157.206879
0
LINE
8
Layer 1
10
36.166660
20
157.206879
11
35.964341
21
157.564093
0
LINE
8
Layer 1
10
35.964341
20
157.564093
11
31.630072
21
163.529638
0
LINE
8
Layer 1
10
31.630072
20
163.529638
11
35.395729
21
168.712261
0
LINE
8
Layer 1
10
35.395729
20
168.712261
11
41.487855
21
166.732540
0
LINE
8
Layer 1
10
41.487855
20
166.732540
11
41.487855
21
166.732548
0
LINE
8
Layer 1
10
85.481497
20
166.535661
11
89.621289
21
160.837308
0
LINE
8
Layer 1
10
89.621289
20
160.837308
11
85.855633
21
155.655201
0
LINE
8
Layer 1
10
85.855633
20
155.655201
11
79.156825
21
157.831812
0
LINE
8
Layer 1
10
79.156825
20
157.831812
11
75.016514
21
163.529646
0
LINE
8
Layer 1
10
75.016514
20
163.529646
11
78.782173
21
168.712269
0
LINE
8
Layer 1
10
78.782173
20
168.712269
11
85.481497
21
166.535661
0
LINE
8
Layer 1
10
85.481497
20
166.535661
11
85.481497
21
166.535661
0
LINE
8
Layer 1
10
28.383760
20
164.462923
11
28.175364
21
164.075613
0
LINE
8
Layer 1
10
28.175364
20
164.075613
11
28.104492
21
163.772521
0
LINE
8
Layer 1
10
28.104492
20
163.772521
11
28.103676
21
163.474354
0
LINE
8
Layer 1
10
28.103676
20
163.474354
11
28.122701
21
163.185261
0
LINE
8
Layer 1
10
28.122701
20
163.185261
11
28.213761
21
162.927254
0
LINE
8
Layer 1
10
28.213761
20
162.927254
11
28.445974
21
162.511272
0
LINE
8
Layer 1
10
28.445974
20
162.511272
11
32.827413
21
156.481507
0
LINE
8
Layer 1
10
32.827413
20
156.481507
11
29.061754
21
151.298884
0
LINE
8
Layer 1
10
29.061754
20
151.298884
11
22.969628
21
153.278606
0
LINE
8
Layer 1
10
22.969628
20
153.278606
11
22.969628
21
160.322096
0
LINE
8
Layer 1
10
22.969628
20
160.322096
11
27.483559
21
166.535661
0
LINE
8
Layer 1
10
27.483559
20
166.535661
11
30.633235
21
167.558854
0
LINE
8
Layer 1
10
30.633235
20
167.558854
11
28.383760
21
164.462923
0
LINE
8
Layer 1
10
28.383760
20
164.462923
11
28.383760
21
164.462923
0
LINE
8
Layer 1
10
63.181076
20
159.684409
11
63.181076
21
152.640402
0
LINE
8
Layer 1
10
63.181076
20
152.640402
11
59.041284
21
146.942568
0
LINE
8
Layer 1
10
59.041284
20
146.942568
11
52.949157
21
148.922289
0
LINE
8
Layer 1
10
52.949157
20
148.922289
11
52.949157
21
155.965777
0
LINE
8
Layer 1
10
52.949157
20
155.965777
11
57.088950
21
161.663614
0
LINE
8
Layer 1
10
57.088950
20
161.663614
11
63.181076
21
159.684409
0
LINE
8
Layer 1
10
63.181076
20
159.684409
11
63.181076
21
159.684409
0
LINE
8
Layer 1
10
98.281731
20
156.992070
11
98.281731
21
150.586267
0
LINE
8
Layer 1
10
98.281731
20
150.586267
11
92.189605
21
148.606546
0
LINE
8
Layer 1
10
92.189605
20
148.606546
11
88.423948
21
153.789169
0
LINE
8
Layer 1
10
88.423948
20
153.789169
11
92.189605
21
158.971276
0
LINE
8
Layer 1
10
92.189605
20
158.971276
11
98.281731
21
156.992070
0
LINE
8
Layer 1
10
98.281731
20
156.992070
11
98.281731
21
156.992070
0
LINE
8
Layer 1
10
111.315029
20
153.789169
11
107.549373
21
148.606546
0
LINE
8
Layer 1
10
107.549373
20
148.606546
11
101.456727
21
150.586267
0
LINE
8
Layer 1
10
101.456727
20
150.586267
11
101.456727
21
156.992070
0
LINE
8
Layer 1
10
101.456727
20
156.992070
11
107.549373
21
158.971276
0
LINE
8
Layer 1
10
107.549373
20
158.971276
11
111.315029
21
153.789169
0
LINE
8
Layer 1
10
111.315029
20
153.789169
11
111.315029
21
153.789169
0
LINE
8
Layer 1
10
84.874816
20
152.635751
11
84.874816
21
146.229950
0
LINE
8
Layer 1
10
84.874816
20
146.229950
11
77.570896
21
143.855987
0
LINE
8
Layer 1
10
77.570896
20
143.855987
11
77.355752
21
143.730973
0
LINE
8
Layer 1
10
77.355752
20
143.730973
11
77.151884
21
143.562361
0
LINE
8
Layer 1
10
77.151884
20
143.562361
11
76.868698
21
143.233233
0
LINE
8
Layer 1
10
76.868698
20
143.233233
11
76.720851
21
143.057973
0
LINE
8
Layer 1
10
76.720851
20
143.057973
11
76.678426
21
142.838430
0
LINE
8
Layer 1
10
76.678426
20
142.838430
11
76.588510
21
142.278361
0
LINE
8
Layer 1
10
76.588510
20
142.278361
11
76.588510
21
138.557043
0
LINE
8
Layer 1
10
76.588510
20
138.557043
11
74.276002
21
141.727896
0
LINE
8
Layer 1
10
74.276002
20
141.727896
11
73.597230
21
142.261269
0
LINE
8
Layer 1
10
73.597230
20
142.261269
11
73.123150
21
142.254310
0
LINE
8
Layer 1
10
73.123150
20
142.254310
11
72.413491
21
142.180632
0
LINE
8
Layer 1
10
72.413491
20
142.180632
11
65.375255
21
139.893913
0
LINE
8
Layer 1
10
65.375255
20
139.893913
11
61.609599
21
145.076535
0
LINE
8
Layer 1
10
61.609599
20
145.076535
11
65.375255
21
150.258642
0
LINE
8
Layer 1
10
65.375255
20
150.258642
11
72.633201
21
147.900649
0
LINE
8
Layer 1
10
72.633201
20
147.900649
11
73.293624
21
147.827786
0
LINE
8
Layer 1
10
73.293624
20
147.827786
11
73.701320
21
148.035579
0
LINE
8
Layer 1
10
73.701320
20
148.035579
11
74.294425
21
148.398322
0
LINE
8
Layer 1
10
74.294425
20
148.398322
11
74.883355
21
149.248758
0
LINE
8
Layer 1
10
74.883355
20
149.248758
11
78.782173
21
154.614959
0
LINE
8
Layer 1
10
78.782173
20
154.614959
11
84.874816
21
152.635754
0
LINE
8
Layer 1
10
84.874816
20
152.635754
11
84.874816
21
152.635751
0
LINE
8
Layer 1
10
41.791194
20
144.143258
11
42.472805
21
143.578953
0
LINE
8
Layer 1
10
42.472805
20
143.578953
11
43.525642
21
143.553474
0
LINE
8
Layer 1
10
43.525642
20
143.553474
11
47.205846
21
144.748897
0
LINE
8
Layer 1
10
47.205846
20
144.748897
11
45.259714
21
142.070510
0
LINE
8
Layer 1
10
45.259714
20
142.070510
11
37.954225
21
139.697015
0
LINE
8
Layer 1
10
37.954225
20
139.697015
11
31.255417
21
141.873623
0
LINE
8
Layer 1
10
31.255417
20
141.873623
11
31.255417
21
148.279426
0
LINE
8
Layer 1
10
31.255417
20
148.279426
11
37.348060
21
150.258631
0
LINE
8
Layer 1
10
37.348060
20
150.258631
11
41.791194
21
144.143250
0
LINE
8
Layer 1
10
41.791194
20
144.143250
11
41.791194
21
144.143258
0
LINE
8
Layer 1
10
89.995944
20
146.224783
11
89.995944
21
138.543089
0
LINE
8
Layer 1
10
89.995944
20
138.543089
11
85.855633
21
132.845255
0
LINE
8
Layer 1
10
85.855633
20
132.845255
11
79.763506
21
134.824976
0
LINE
8
Layer 1
10
79.763506
20
134.824976
11
79.763506
21
141.230779
0
LINE
8
Layer 1
10
79.763506
20
141.230779
11
87.021968
21
143.589288
0
LINE
8
Layer 1
10
87.021968
20
143.589288
11
87.709701
21
144.065222
0
LINE
8
Layer 1
10
87.709701
20
144.065222
11
88.049812
21
145.034366
0
LINE
8
Layer 1
10
88.049812
20
145.034366
11
88.049812
21
148.903167
0
LINE
8
Layer 1
10
88.049812
20
148.903167
11
89.995944
21
146.224783
0
LINE
8
Layer 1
10
89.995944
20
146.224783
11
89.995944
21
146.224783
0
LINE
8
Layer 1
10
103.028723
20
142.384194
11
99.263067
21
137.201571
0
LINE
8
Layer 1
10
99.263067
20
137.201571
11
93.170940
21
139.181293
0
LINE
8
Layer 1
10
93.170940
20
139.181293
11
93.170940
21
145.587096
0
LINE
8
Layer 1
10
93.170940
20
145.587096
11
99.263067
21
147.566301
0
LINE
8
Layer 1
10
99.263067
20
147.566301
11
103.028723
21
142.384194
0
LINE
8
Layer 1
10
103.028723
20
142.384194
11
103.028723
21
142.384194
0
LINE
8
Layer 1
10
58.059948
20
143.923117
11
58.059948
21
137.517314
0
LINE
8
Layer 1
10
58.059948
20
137.517314
11
51.967821
21
135.537593
0
LINE
8
Layer 1
10
51.967821
20
135.537593
11
48.202165
21
140.720216
0
LINE
8
Layer 1
10
48.202165
20
140.720216
11
51.967821
21
145.902323
0
LINE
8
Layer 1
10
51.967821
20
145.902323
11
58.059948
21
143.923117
0
LINE
8
Layer 1
10
58.059948
20
143.923117
11
58.059948
21
143.923117
0
LINE
8
Layer 1
10
63.484418
20
137.094601
11
63.904028
21
136.653803
0
LINE
8
Layer 1
10
63.904028
20
136.653803
11
64.337595
21
136.523062
0
LINE
8
Layer 1
10
64.337595
20
136.523062
11
65.033530
21
136.435175
0
LINE
8
Layer 1
10
65.033530
20
136.435175
11
65.963566
21
136.746796
0
LINE
8
Layer 1
10
65.963566
20
136.746796
11
72.448718
21
138.853665
0
LINE
8
Layer 1
10
72.448718
20
138.853665
11
76.214374
21
133.671558
0
LINE
8
Layer 1
10
76.214374
20
133.671558
11
72.448718
21
128.488935
0
LINE
8
Layer 1
10
72.448718
20
128.488935
11
65.749391
21
130.665546
0
LINE
8
Layer 1
10
65.749391
20
130.665546
11
61.234944
21
136.879111
0
LINE
8
Layer 1
10
61.234944
20
136.879111
11
61.234944
21
140.191050
0
LINE
8
Layer 1
10
61.234944
20
140.191050
11
63.484418
21
137.094601
0
LINE
8
Layer 1
10
63.484418
20
137.094601
11
63.484418
21
137.094601
0
LINE
8
Layer 1
10
49.399506
20
133.671558
11
45.633850
21
128.488935
0
LINE
8
Layer 1
10
45.633850
20
128.488935
11
39.541723
21
130.468659
0
LINE
8
Layer 1
10
39.541723
20
130.468659
11
39.541723
21
136.874460
0
LINE
8
Layer 1
10
39.541723
20
136.874460
11
45.633850
21
138.853665
0
LINE
8
Layer 1
10
45.633850
20
138.853665
11
49.399506
21
133.671558
0
LINE
8
Layer 1
10
49.399506
20
133.671558
11
49.399506
21
133.671558
0
LINE
8
Layer 1
10
62.806940
20
129.315241
11
59.041284
21
124.133134
0
LINE
8
Layer 1
10
59.041284
20
124.133134
11
52.949157
21
126.112340
0
LINE
8
Layer 1
10
52.949157
20
126.112340
11
52.949157
21
132.518143
0
LINE
8
Layer 1
10
52.949157
20
132.518143
11
59.041284
21
134.497348
0
LINE
8
Layer 1
10
59.041284
20
134.497348
11
62.806940
21
129.315241
0
LINE
8
Layer 1
10
62.806940
20
129.315241
11
62.806940
21
129.315241
0
LINE
8
Layer 1
10
179.902489
20
228.603629
11
172.383577
21
226.160371
0
LINE
8
Layer 1
10
172.383577
20
226.160371
11
171.695844
21
225.684436
0
LINE
8
Layer 1
10
171.695844
20
225.684436
11
171.355733
21
224.715293
0
LINE
8
Layer 1
10
171.355733
20
224.715293
11
171.355733
21
217.993438
0
LINE
8
Layer 1
10
171.355733
20
217.993438
11
166.099731
21
216.286050
0
LINE
8
Layer 1
10
166.099731
20
216.286050
11
162.130986
21
221.748759
0
LINE
8
Layer 1
10
162.130986
20
221.748759
11
161.465313
21
222.255265
0
LINE
8
Layer 1
10
161.465313
20
222.255265
11
160.438911
21
222.279623
0
LINE
8
Layer 1
10
160.438911
20
222.279623
11
152.879881
21
219.823297
0
LINE
8
Layer 1
10
152.879881
20
219.823297
11
152.192150
21
219.346846
0
LINE
8
Layer 1
10
152.192150
20
219.346846
11
151.852039
21
218.378219
0
LINE
8
Layer 1
10
151.852039
20
218.378219
11
151.852039
21
211.656365
0
LINE
8
Layer 1
10
151.852039
20
211.656365
11
146.596034
21
209.948976
0
LINE
8
Layer 1
10
146.596034
20
209.948976
11
142.590084
21
215.462845
0
LINE
8
Layer 1
10
142.590084
20
215.462845
11
141.986422
21
215.917607
0
LINE
8
Layer 1
10
141.986422
20
215.917607
11
141.349025
21
216.044953
0
LINE
8
Layer 1
10
141.349025
20
216.044953
11
140.960374
21
215.950744
0
LINE
8
Layer 1
10
140.960374
20
215.950744
11
133.376187
21
213.486224
0
LINE
8
Layer 1
10
133.376187
20
213.486224
11
132.688457
21
213.009773
0
LINE
8
Layer 1
10
132.688457
20
213.009773
11
132.348343
21
212.041146
0
LINE
8
Layer 1
10
132.348343
20
212.041146
11
132.348343
21
204.093011
0
LINE
8
Layer 1
10
132.348343
20
204.093011
11
132.589201
21
203.292105
0
LINE
8
Layer 1
10
132.589201
20
203.292105
11
132.489302
21
203.250584
0
LINE
8
Layer 1
10
132.489302
20
203.250584
11
132.237660
21
203.265504
0
LINE
8
Layer 1
10
132.237660
20
203.265504
11
131.510742
21
203.198104
0
LINE
8
Layer 1
10
131.510742
20
203.198104
11
124.167976
21
200.812078
0
LINE
8
Layer 1
10
124.167976
20
200.812078
11
123.480243
21
200.335628
0
LINE
8
Layer 1
10
123.480243
20
200.335628
11
123.140132
21
199.367000
0
LINE
8
Layer 1
10
123.140132
20
199.367000
11
123.140132
21
191.418866
0
LINE
8
Layer 1
10
123.140132
20
191.418866
11
123.380972
21
190.617939
0
LINE
8
Layer 1
10
123.380972
20
190.617939
11
124.196612
21
189.994896
0
LINE
8
Layer 1
10
124.196612
20
189.994896
11
130.589797
21
187.917790
0
LINE
8
Layer 1
10
130.589797
20
187.917790
11
130.589797
21
182.391522
0
LINE
8
Layer 1
10
130.589797
20
182.391522
11
124.095153
21
180.286798
0
LINE
8
Layer 1
10
124.095153
20
180.286798
11
123.703506
21
179.995749
0
LINE
8
Layer 1
10
123.703506
20
179.995749
11
123.420410
21
179.667105
0
LINE
8
Layer 1
10
123.420410
20
179.667105
11
123.272894
21
179.491369
0
LINE
8
Layer 1
10
123.272894
20
179.491369
11
123.230048
21
179.271818
0
LINE
8
Layer 1
10
123.230048
20
179.271818
11
123.140132
21
178.711749
0
LINE
8
Layer 1
10
123.140132
20
178.711749
11
123.140132
21
170.911614
0
LINE
8
Layer 1
10
123.140132
20
170.911614
11
123.380972
21
170.110687
0
LINE
8
Layer 1
10
123.380972
20
170.110687
11
124.196612
21
169.487647
0
LINE
8
Layer 1
10
124.196612
20
169.487647
11
130.589797
21
167.410541
0
LINE
8
Layer 1
10
130.589797
20
167.410541
11
130.589797
21
161.884270
0
LINE
8
Layer 1
10
130.589797
20
161.884270
11
124.106998
21
159.777425
0
LINE
8
Layer 1
10
124.106998
20
159.777425
11
123.488556
21
159.344366
0
LINE
8
Layer 1
10
123.488556
20
159.344366
11
123.170443
21
158.776647
0
LINE
8
Layer 1
10
123.170443
20
158.776647
11
123.140132
21
158.378961
0
LINE
8
Layer 1
10
123.140132
20
158.378961
11
123.140132
21
150.404366
0
LINE
8
Layer 1
10
123.140132
20
150.404366
11
123.380972
21
149.603438
0
LINE
8
Layer 1
10
123.380972
20
149.603438
11
124.196612
21
148.980398
0
LINE
8
Layer 1
10
124.196612
20
148.980398
11
131.755616
21
146.524505
0
LINE
8
Layer 1
10
131.755616
20
146.524505
11
132.592005
21
146.505137
0
LINE
8
Layer 1
10
132.592005
20
146.505137
11
132.600675
21
146.397919
0
LINE
8
Layer 1
10
132.600675
20
146.397919
11
132.508810
21
146.163293
0
LINE
8
Layer 1
10
132.508810
20
146.163293
11
132.348343
21
145.450978
0
LINE
8
Layer 1
10
132.348343
20
145.450978
11
132.348343
21
137.730218
0
LINE
8
Layer 1
10
132.348343
20
137.730218
11
132.589254
21
136.928344
0
LINE
8
Layer 1
10
132.589254
20
136.928344
11
133.405315
21
136.306164
0
LINE
8
Layer 1
10
133.405315
20
136.306164
11
140.963827
21
133.850354
0
LINE
8
Layer 1
10
140.963827
20
133.850354
11
141.800251
21
133.830934
0
LINE
8
Layer 1
10
141.800251
20
133.830934
11
142.644911
21
134.415123
0
LINE
8
Layer 1
10
142.644911
20
134.415123
11
146.596034
21
139.853071
0
LINE
8
Layer 1
10
146.596034
20
139.853071
11
151.852039
21
138.145685
0
LINE
8
Layer 1
10
151.852039
20
138.145685
11
151.852039
21
131.393135
0
LINE
8
Layer 1
10
151.852039
20
131.393135
11
152.092947
21
130.591261
0
LINE
8
Layer 1
10
152.092947
20
130.591261
11
152.909009
21
129.969081
0
LINE
8
Layer 1
10
152.909009
20
129.969081
11
160.467523
21
127.513271
0
LINE
8
Layer 1
10
160.467523
20
127.513271
11
161.303944
21
127.493851
0
LINE
8
Layer 1
10
161.303944
20
127.493851
11
162.148604
21
128.078037
0
LINE
8
Layer 1
10
162.148604
20
128.078037
11
166.099731
21
133.515988
0
LINE
8
Layer 1
10
166.099731
20
133.515988
11
171.355733
21
131.808602
0
LINE
8
Layer 1
10
171.355733
20
131.808602
11
171.355733
21
125.056049
0
LINE
8
Layer 1
10
171.355733
20
125.056049
11
171.595641
21
124.254217
0
LINE
8
Layer 1
10
171.595641
20
124.254217
11
172.412705
21
123.631998
0
LINE
8
Layer 1
10
172.412705
20
123.631998
11
179.971217
21
121.176188
0
LINE
8
Layer 1
10
179.971217
20
121.176188
11
180.807640
21
121.156768
0
LINE
8
Layer 1
10
180.807640
20
121.156768
11
181.652300
21
121.740957
0
LINE
8
Layer 1
10
181.652300
20
121.740957
11
186.323794
21
128.171094
0
LINE
8
Layer 1
10
186.323794
20
128.171094
11
186.600857
21
128.960861
0
LINE
8
Layer 1
10
186.600857
20
128.960861
11
186.705938
21
128.935006
0
LINE
8
Layer 1
10
186.705938
20
128.935006
11
186.899897
21
128.775637
0
LINE
8
Layer 1
10
186.899897
20
128.775637
11
187.528297
21
128.402733
0
LINE
8
Layer 1
10
187.528297
20
128.402733
11
194.870547
21
126.017224
0
LINE
8
Layer 1
10
194.870547
20
126.017224
11
195.706970
21
125.997804
0
LINE
8
Layer 1
10
195.706970
20
125.997804
11
196.551630
21
126.581992
0
LINE
8
Layer 1
10
196.551630
20
126.581992
11
201.223640
21
133.012129
0
LINE
8
Layer 1
10
201.223640
20
133.012129
11
201.500179
21
133.801891
0
LINE
8
Layer 1
10
201.500179
20
133.801891
11
201.205833
21
134.784962
0
LINE
8
Layer 1
10
201.205833
20
134.784962
11
197.254379
21
140.223566
0
LINE
8
Layer 1
10
197.254379
20
140.223566
11
200.502754
21
144.694088
0
LINE
8
Layer 1
10
200.502754
20
144.694088
11
206.924575
21
142.607912
0
LINE
8
Layer 1
10
206.924575
20
142.607912
11
207.760999
21
142.588491
0
LINE
8
Layer 1
10
207.760999
20
142.588491
11
208.605659
21
143.172680
0
LINE
8
Layer 1
10
208.605659
20
143.172680
11
213.277152
21
149.602814
0
LINE
8
Layer 1
10
213.277152
20
149.602814
11
213.553692
21
150.392578
0
LINE
8
Layer 1
10
213.553692
20
150.392578
11
213.259346
21
151.376166
0
LINE
8
Layer 1
10
213.259346
20
151.376166
11
209.307891
21
156.814251
0
LINE
8
Layer 1
10
209.307891
20
156.814251
11
212.556783
21
161.284775
0
LINE
8
Layer 1
10
212.556783
20
161.284775
11
218.979122
21
159.198599
0
LINE
8
Layer 1
10
218.979122
20
159.198599
11
219.815064
21
159.179655
0
LINE
8
Layer 1
10
219.815064
20
159.179655
11
220.659171
21
159.763381
0
LINE
8
Layer 1
10
220.659171
20
159.763381
11
225.331181
21
166.193517
0
LINE
8
Layer 1
10
225.331181
20
166.193517
11
225.607723
21
166.983282
0
LINE
8
Layer 1
10
225.607723
20
166.983282
11
225.313374
21
167.966869
0
LINE
8
Layer 1
10
225.313374
20
167.966869
11
220.641553
21
174.397141
0
LINE
8
Layer 1
10
220.641553
20
174.397141
11
219.976396
21
174.903675
0
LINE
8
Layer 1
10
219.976396
20
174.903675
11
220.032629
21
174.995878
0
LINE
8
Layer 1
10
220.032629
20
174.995878
11
220.244575
21
175.131478
0
LINE
8
Layer 1
10
220.244575
20
175.131478
11
220.792791
21
175.613575
0
LINE
8
Layer 1
10
220.792791
20
175.613575
11
225.331181
21
181.859726
0
LINE
8
Layer 1
10
225.331181
20
181.859726
11
225.607723
21
182.649490
0
LINE
8
Layer 1
10
225.607723
20
182.649490
11
225.313374
21
183.633075
0
LINE
8
Layer 1
10
225.313374
20
183.633075
11
220.641553
21
190.063349
0
LINE
8
Layer 1
10
220.641553
20
190.063349
11
219.976396
21
190.569856
0
LINE
8
Layer 1
10
219.976396
20
190.569856
11
218.949994
21
190.594224
0
LINE
8
Layer 1
10
218.949994
20
190.594224
11
212.556783
21
188.516687
0
LINE
8
Layer 1
10
212.556783
20
188.516687
11
209.307891
21
192.987724
0
LINE
8
Layer 1
10
209.307891
20
192.987724
11
213.277152
21
198.450434
0
LINE
8
Layer 1
10
213.277152
20
198.450434
11
213.553692
21
199.240199
0
LINE
8
Layer 1
10
213.553692
20
199.240199
11
213.259346
21
200.223783
0
LINE
8
Layer 1
10
213.259346
20
200.223783
11
208.588038
21
206.654058
0
LINE
8
Layer 1
10
208.588038
20
206.654058
11
207.922368
21
207.160562
0
LINE
8
Layer 1
10
207.922368
20
207.160562
11
206.895966
21
207.184930
0
LINE
8
Layer 1
10
206.895966
20
207.184930
11
200.502754
21
205.107909
0
LINE
8
Layer 1
10
200.502754
20
205.107909
11
197.254379
21
209.578430
0
LINE
8
Layer 1
10
197.254379
20
209.578430
11
201.261364
21
215.092816
0
LINE
8
Layer 1
10
201.261364
20
215.092816
11
201.506894
21
215.807131
0
LINE
8
Layer 1
10
201.506894
20
215.807131
11
201.430245
21
216.453680
0
LINE
8
Layer 1
10
201.430245
20
216.453680
11
201.221031
21
216.793204
0
LINE
8
Layer 1
10
201.221031
20
216.793204
11
196.534009
21
223.244763
0
LINE
8
Layer 1
10
196.534009
20
223.244763
11
195.868337
21
223.751269
0
LINE
8
Layer 1
10
195.868337
20
223.751269
11
194.841937
21
223.775626
0
LINE
8
Layer 1
10
194.841937
20
223.775626
11
187.282907
21
221.319301
0
LINE
8
Layer 1
10
187.282907
20
221.319301
11
186.595137
21
220.842864
0
LINE
8
Layer 1
10
186.595137
20
220.842864
11
186.525052
21
220.925203
0
LINE
8
Layer 1
10
186.525052
20
220.925203
11
186.461493
21
221.168498
0
LINE
8
Layer 1
10
186.461493
20
221.168498
11
186.172045
21
221.839660
0
LINE
8
Layer 1
10
186.172045
20
221.839660
11
181.634679
21
228.085804
0
LINE
8
Layer 1
10
181.634679
20
228.085804
11
180.969007
21
228.592310
0
LINE
8
Layer 1
10
180.969007
20
228.592310
11
179.942607
21
228.616668
0
LINE
8
Layer 1
10
179.942607
20
228.616668
11
179.917445
21
228.608474
0
LINE
8
Layer 1
10
179.917445
20
228.608474
11
179.902489
21
228.603629
0
LINE
8
Layer 1
10
183.035109
20
220.756573
11
179.786733
21
216.286050
0
LINE
8
Layer 1
10
179.786733
20
216.286050
11
174.530729
21
217.993438
0
LINE
8
Layer 1
10
174.530729
20
217.993438
11
174.530729
21
223.519708
0
LINE
8
Layer 1
10
174.530729
20
223.519708
11
179.786733
21
225.227612
0
LINE
8
Layer 1
10
179.786733
20
225.227612
11
183.035109
21
220.756573
0
LINE
8
Layer 1
10
183.035109
20
220.756573
11
183.035109
21
220.756573
0
LINE
8
Layer 1
10
197.934439
20
215.915531
11
194.686064
21
211.445009
0
LINE
8
Layer 1
10
194.686064
20
211.445009
11
189.430059
21
213.152395
0
LINE
8
Layer 1
10
189.430059
20
213.152395
11
189.430059
21
218.678666
0
LINE
8
Layer 1
10
189.430059
20
218.678666
11
194.686064
21
220.386570
0
LINE
8
Layer 1
10
194.686064
20
220.386570
11
197.934439
21
215.915531
0
LINE
8
Layer 1
10
197.934439
20
215.915531
11
197.934439
21
215.915531
0
LINE
8
Layer 1
10
186.255063
20
211.998979
11
186.475204
21
211.141667
0
LINE
8
Layer 1
10
186.475204
20
211.141667
11
187.311545
21
210.502146
0
LINE
8
Layer 1
10
187.311545
20
210.502146
11
193.704728
21
208.425042
0
LINE
8
Layer 1
10
193.704728
20
208.425042
11
193.704728
21
202.898771
0
LINE
8
Layer 1
10
193.704728
20
202.898771
11
187.237938
21
200.797977
0
LINE
8
Layer 1
10
187.237938
20
200.797977
11
187.022165
21
200.672424
0
LINE
8
Layer 1
10
187.022165
20
200.672424
11
186.817455
21
200.502406
0
LINE
8
Layer 1
10
186.817455
20
200.502406
11
186.535344
21
200.174357
0
LINE
8
Layer 1
10
186.535344
20
200.174357
11
186.387827
21
199.998620
0
LINE
8
Layer 1
10
186.387827
20
199.998620
11
186.344981
21
199.779068
0
LINE
8
Layer 1
10
186.344981
20
199.779068
11
186.255063
21
199.219001
0
LINE
8
Layer 1
10
186.255063
20
199.219001
11
186.255063
21
192.645146
0
LINE
8
Layer 1
10
186.255063
20
192.645146
11
180.392896
21
190.740354
0
LINE
8
Layer 1
10
180.392896
20
190.740354
11
173.924048
21
192.842032
0
LINE
8
Layer 1
10
173.924048
20
192.842032
11
170.301018
21
197.828803
0
LINE
8
Layer 1
10
170.301018
20
197.828803
11
174.270281
21
203.291510
0
LINE
8
Layer 1
10
174.270281
20
203.291510
11
174.569397
21
204.173553
0
LINE
8
Layer 1
10
174.569397
20
204.173553
11
174.518979
21
204.367320
0
LINE
8
Layer 1
10
174.518979
20
204.367320
11
174.410314
21
204.567025
0
LINE
8
Layer 1
10
174.410314
20
204.567025
11
174.118522
21
205.248983
0
LINE
8
Layer 1
10
174.118522
20
205.248983
11
170.301018
21
210.502948
0
LINE
8
Layer 1
10
170.301018
20
210.502948
11
173.549396
21
214.973987
0
LINE
8
Layer 1
10
173.549396
20
214.973987
11
180.032195
21
212.867142
0
LINE
8
Layer 1
10
180.032195
20
212.867142
11
180.787519
21
212.854916
0
LINE
8
Layer 1
10
180.787519
20
212.854916
11
181.378470
21
213.127324
0
LINE
8
Layer 1
10
181.378470
20
213.127324
11
181.636214
21
213.429647
0
LINE
8
Layer 1
10
181.636214
20
213.429647
11
186.255063
21
219.787642
0
LINE
8
Layer 1
10
186.255063
20
219.787642
11
186.255063
21
211.998980
0
LINE
8
Layer 1
10
186.255063
20
211.998980
11
186.255063
21
211.998979
0
LINE
8
Layer 1
10
163.531415
20
214.419500
11
160.283037
21
209.948977
0
LINE
8
Layer 1
10
160.283037
20
209.948977
11
155.027035
21
211.656365
0
LINE
8
Layer 1
10
155.027035
20
211.656365
11
155.027035
21
217.182635
0
LINE
8
Layer 1
10
155.027035
20
217.182635
11
160.283037
21
218.890539
0
LINE
8
Layer 1
10
160.283037
20
218.890539
11
163.531415
21
214.419500
0
LINE
8
Layer 1
10
163.531415
20
214.419500
11
163.531415
21
214.419500
0
LINE
8
Layer 1
10
167.054708
20
211.436224
11
166.846312
21
211.048399
0
LINE
8
Layer 1
10
166.846312
20
211.048399
11
166.775304
21
210.745607
0
LINE
8
Layer 1
10
166.775304
20
210.745607
11
166.774624
21
210.447655
0
LINE
8
Layer 1
10
166.774624
20
210.447655
11
166.793639
21
210.158287
0
LINE
8
Layer 1
10
166.793639
20
210.158287
11
166.884709
21
209.900037
0
LINE
8
Layer 1
10
166.884709
20
209.900037
11
167.116920
21
209.484054
0
LINE
8
Layer 1
10
167.116920
20
209.484054
11
170.981081
21
204.165875
0
LINE
8
Layer 1
10
170.981081
20
204.165875
11
167.011301
21
198.702649
0
LINE
8
Layer 1
10
167.011301
20
198.702649
11
166.891769
21
198.510158
0
LINE
8
Layer 1
10
166.891769
20
198.510158
11
166.841944
21
198.294998
0
LINE
8
Layer 1
10
166.841944
20
198.294998
11
166.762857
21
198.034371
0
LINE
8
Layer 1
10
166.762857
20
198.034371
11
166.774624
21
197.773508
0
LINE
8
Layer 1
10
166.774624
20
197.773508
11
166.793639
21
197.484140
0
LINE
8
Layer 1
10
166.793639
20
197.484140
11
166.884709
21
197.225892
0
LINE
8
Layer 1
10
166.884709
20
197.225892
11
167.116920
21
196.809909
0
LINE
8
Layer 1
10
167.116920
20
196.809909
11
170.981081
21
191.491730
0
LINE
8
Layer 1
10
170.981081
20
191.491730
11
167.732702
21
187.021206
0
LINE
8
Layer 1
10
167.732702
20
187.021206
11
162.476700
21
188.728595
0
LINE
8
Layer 1
10
162.476700
20
188.728595
11
162.476700
21
195.480629
0
LINE
8
Layer 1
10
162.476700
20
195.480629
11
162.236861
21
196.282035
0
LINE
8
Layer 1
10
162.236861
20
196.282035
11
161.419728
21
196.905196
0
LINE
8
Layer 1
10
161.419728
20
196.905196
11
155.027035
21
198.982218
0
LINE
8
Layer 1
10
155.027035
20
198.982218
11
155.027035
21
205.734770
0
LINE
8
Layer 1
10
155.027035
20
205.734770
11
154.786193
21
206.535697
0
LINE
8
Layer 1
10
154.786193
20
206.535697
11
153.970553
21
207.158737
0
LINE
8
Layer 1
10
153.970553
20
207.158737
11
151.127018
21
208.082426
0
LINE
8
Layer 1
10
151.127018
20
208.082426
11
153.439537
21
208.833802
0
LINE
8
Layer 1
10
153.439537
20
208.833802
11
160.467523
21
206.550223
0
LINE
8
Layer 1
10
160.467523
20
206.550223
11
161.128981
21
206.478391
0
LINE
8
Layer 1
10
161.128981
20
206.478391
11
161.535227
21
206.684999
0
LINE
8
Layer 1
10
161.535227
20
206.684999
11
162.127845
21
207.048361
0
LINE
8
Layer 1
10
162.127845
20
207.048361
11
162.702067
21
207.876967
0
LINE
8
Layer 1
10
162.702067
20
207.876967
11
166.473867
21
213.069197
0
LINE
8
Layer 1
10
166.473867
20
213.069197
11
168.787418
21
213.820571
0
LINE
8
Layer 1
10
168.787418
20
213.820571
11
167.054708
21
211.436224
0
LINE
8
Layer 1
10
167.054708
20
211.436224
11
167.054708
21
211.436224
0
LINE
8
Layer 1
10
144.027719
20
208.082426
11
140.779344
21
203.611904
0
LINE
8
Layer 1
10
140.779344
20
203.611904
11
135.523339
21
205.319293
0
LINE
8
Layer 1
10
135.523339
20
205.319293
11
135.523339
21
210.845561
0
LINE
8
Layer 1
10
135.523339
20
210.845561
11
140.779344
21
212.553466
0
LINE
8
Layer 1
10
140.779344
20
212.553466
11
144.027719
21
208.082426
0
LINE
8
Layer 1
10
144.027719
20
208.082426
11
144.027719
21
208.082426
0
LINE
8
Layer 1
10
151.852039
20
204.508489
11
151.852039
21
197.755939
0
LINE
8
Layer 1
10
151.852039
20
197.755939
11
151.903823
21
197.330855
0
LINE
8
Layer 1
10
151.903823
20
197.330855
11
152.093405
21
196.954504
0
LINE
8
Layer 1
10
152.093405
20
196.954504
11
152.574991
21
196.455244
0
LINE
8
Layer 1
10
152.574991
20
196.455244
11
152.974292
21
196.310644
0
LINE
8
Layer 1
10
152.974292
20
196.310644
11
159.301704
21
194.254866
0
LINE
8
Layer 1
10
159.301704
20
194.254866
11
159.301704
21
188.090907
0
LINE
8
Layer 1
10
159.301704
20
188.090907
11
155.304538
21
182.588409
0
LINE
8
Layer 1
10
155.304538
20
182.588409
11
149.441852
21
180.684134
0
LINE
8
Layer 1
10
149.441852
20
180.684134
11
145.473107
21
186.146844
0
LINE
8
Layer 1
10
145.473107
20
186.146844
11
144.807437
21
186.653349
0
LINE
8
Layer 1
10
144.807437
20
186.653349
11
143.781035
21
186.677717
0
LINE
8
Layer 1
10
143.781035
20
186.677717
11
137.387824
21
184.600695
0
LINE
8
Layer 1
10
137.387824
20
184.600695
11
134.139448
21
189.071219
0
LINE
8
Layer 1
10
134.139448
20
189.071219
11
138.108709
21
194.533927
0
LINE
8
Layer 1
10
138.108709
20
194.533927
11
138.385249
21
195.323691
0
LINE
8
Layer 1
10
138.385249
20
195.323691
11
138.090900
21
196.307278
0
LINE
8
Layer 1
10
138.090900
20
196.307278
11
133.487807
21
202.641948
0
LINE
8
Layer 1
10
133.487807
20
202.641948
11
140.964346
21
200.213161
0
LINE
8
Layer 1
10
140.964346
20
200.213161
11
141.800804
21
200.194217
0
LINE
8
Layer 1
10
141.800804
20
200.194217
11
142.644911
21
200.777943
0
LINE
8
Layer 1
10
142.644911
20
200.777943
11
146.596034
21
206.216409
0
LINE
8
Layer 1
10
146.596034
20
206.216409
11
151.852039
21
204.508505
0
LINE
8
Layer 1
10
151.852039
20
204.508505
11
151.852039
21
204.508489
0
LINE
8
Layer 1
10
198.309091
20
202.726171
11
198.309091
21
195.335933
0
LINE
8
Layer 1
10
198.309091
20
195.335933
11
198.361331
21
194.910801
0
LINE
8
Layer 1
10
198.361331
20
194.910801
11
198.548999
21
194.534101
0
LINE
8
Layer 1
10
198.548999
20
194.534101
11
199.032046
21
194.034725
0
LINE
8
Layer 1
10
199.032046
20
194.034725
11
199.481670
21
193.874284
0
LINE
8
Layer 1
10
199.481670
20
193.874284
11
206.365437
21
191.637457
0
LINE
8
Layer 1
10
206.365437
20
191.637457
11
207.794289
21
189.670137
0
LINE
8
Layer 1
10
207.794289
20
189.670137
11
205.094201
21
190.547603
0
LINE
8
Layer 1
10
205.094201
20
190.547603
11
204.893295
21
190.640753
0
LINE
8
Layer 1
10
204.893295
20
190.640753
11
204.638335
21
190.615365
0
LINE
8
Layer 1
10
204.638335
20
190.615365
11
204.085668
21
190.622853
0
LINE
8
Layer 1
10
204.085668
20
190.622853
11
203.862181
21
190.535544
0
LINE
8
Layer 1
10
203.862181
20
190.535544
11
203.669651
21
190.401299
0
LINE
8
Layer 1
10
203.669651
20
190.401299
11
203.138517
21
189.897448
0
LINE
8
Layer 1
10
203.138517
20
189.897448
11
199.289911
21
184.600674
0
LINE
8
Layer 1
10
199.289911
20
184.600674
11
193.040170
21
186.631039
0
LINE
8
Layer 1
10
193.040170
20
186.631039
11
192.839014
21
186.724182
0
LINE
8
Layer 1
10
192.839014
20
186.724182
11
192.583785
21
186.698767
0
LINE
8
Layer 1
10
192.583785
20
186.698767
11
192.031151
21
186.705752
0
LINE
8
Layer 1
10
192.031151
20
186.705752
11
191.808478
21
186.618407
0
LINE
8
Layer 1
10
191.808478
20
186.618407
11
191.616411
21
186.484473
0
LINE
8
Layer 1
10
191.616411
20
186.484473
11
191.085004
21
185.980906
0
LINE
8
Layer 1
10
191.085004
20
185.980906
11
187.236399
21
180.684131
0
LINE
8
Layer 1
10
187.236399
20
180.684131
11
181.980394
21
182.391520
0
LINE
8
Layer 1
10
181.980394
20
182.391520
11
181.980394
21
187.917788
0
LINE
8
Layer 1
10
181.980394
20
187.917788
11
188.402217
21
190.004480
0
LINE
8
Layer 1
10
188.402217
20
190.004480
11
189.089948
21
190.480933
0
LINE
8
Layer 1
10
189.089948
20
190.480933
11
189.430059
21
191.449558
0
LINE
8
Layer 1
10
189.430059
20
191.449558
11
189.430059
21
198.171414
0
LINE
8
Layer 1
10
189.430059
20
198.171414
11
195.851883
21
200.258106
0
LINE
8
Layer 1
10
195.851883
20
200.258106
11
196.539613
21
200.734556
0
LINE
8
Layer 1
10
196.539613
20
200.734556
11
196.879724
21
201.703184
0
LINE
8
Layer 1
10
196.879724
20
201.703184
11
196.879724
21
204.692972
0
LINE
8
Layer 1
10
196.879724
20
204.692972
11
198.309091
21
202.726168
0
LINE
8
Layer 1
10
198.309091
20
202.726168
11
198.309091
21
202.726171
0
LINE
8
Layer 1
10
209.988468
20
199.324834
11
206.740092
21
194.854310
0
LINE
8
Layer 1
10
206.740092
20
194.854310
11
201.484087
21
196.561699
0
LINE
8
Layer 1
10
201.484087
20
196.561699
11
201.484087
21
202.087970
0
LINE
8
Layer 1
10
201.484087
20
202.087970
11
206.740092
21
203.795872
0
LINE
8
Layer 1
10
206.740092
20
203.795872
11
209.988468
21
199.324834
0
LINE
8
Layer 1
10
209.988468
20
199.324834
11
209.988468
21
199.324834
0
LINE
8
Layer 1
10
134.819509
20
195.408281
11
131.571130
21
190.937760
0
LINE
8
Layer 1
10
131.571130
20
190.937760
11
126.315128
21
192.645146
0
LINE
8
Layer 1
10
126.315128
20
192.645146
11
126.315128
21
198.171417
0
LINE
8
Layer 1
10
126.315128
20
198.171417
11
131.571130
21
199.879321
0
LINE
8
Layer 1
10
131.571130
20
199.879321
11
134.819509
21
195.408281
0
LINE
8
Layer 1
10
134.819509
20
195.408281
11
134.819509
21
195.408281
0
LINE
8
Layer 1
10
178.805398
20
187.917791
11
178.805398
21
181.165241
0
LINE
8
Layer 1
10
178.805398
20
181.165241
11
178.857185
21
180.740157
0
LINE
8
Layer 1
10
178.857185
20
180.740157
11
179.045306
21
180.363922
0
LINE
8
Layer 1
10
179.045306
20
180.363922
11
179.527834
21
179.865580
0
LINE
8
Layer 1
10
179.527834
20
179.865580
11
180.003141
21
179.695419
0
LINE
8
Layer 1
10
180.003141
20
179.695419
11
186.255063
21
177.664168
0
LINE
8
Layer 1
10
186.255063
20
177.664168
11
186.255063
21
172.137897
0
LINE
8
Layer 1
10
186.255063
20
172.137897
11
179.760418
21
170.033173
0
LINE
8
Layer 1
10
179.760418
20
170.033173
11
179.368772
21
169.742127
0
LINE
8
Layer 1
10
179.368772
20
169.742127
11
179.085678
21
169.413483
0
LINE
8
Layer 1
10
179.085678
20
169.413483
11
178.938161
21
169.237746
0
LINE
8
Layer 1
10
178.938161
20
169.237746
11
178.895314
21
169.018193
0
LINE
8
Layer 1
10
178.895314
20
169.018193
11
178.805398
21
168.458127
0
LINE
8
Layer 1
10
178.805398
20
168.458127
11
178.805398
21
161.884271
0
LINE
8
Layer 1
10
178.805398
20
161.884271
11
173.549396
21
160.176366
0
LINE
8
Layer 1
10
173.549396
20
160.176366
11
169.580651
21
165.639593
0
LINE
8
Layer 1
10
169.580651
20
165.639593
11
168.914978
21
166.146100
0
LINE
8
Layer 1
10
168.914978
20
166.146100
11
167.888576
21
166.170468
0
LINE
8
Layer 1
10
167.888576
20
166.170468
11
161.495365
21
164.092930
0
LINE
8
Layer 1
10
161.495365
20
164.092930
11
158.246989
21
168.563970
0
LINE
8
Layer 1
10
158.246989
20
168.563970
11
162.216250
21
174.026678
0
LINE
8
Layer 1
10
162.216250
20
174.026678
11
162.492790
21
174.816442
0
LINE
8
Layer 1
10
162.492790
20
174.816442
11
162.198444
21
175.800030
0
LINE
8
Layer 1
10
162.198444
20
175.800030
11
158.246989
21
181.238115
0
LINE
8
Layer 1
10
158.246989
20
181.238115
11
161.495365
21
185.708636
0
LINE
8
Layer 1
10
161.495365
20
185.708636
11
167.917188
21
183.622463
0
LINE
8
Layer 1
10
167.917188
20
183.622463
11
168.578646
21
183.550634
0
LINE
8
Layer 1
10
168.578646
20
183.550634
11
168.984892
21
183.757239
0
LINE
8
Layer 1
10
168.984892
20
183.757239
11
169.577510
21
184.120601
0
LINE
8
Layer 1
10
169.577510
20
184.120601
11
170.151811
21
184.949151
0
LINE
8
Layer 1
10
170.151811
20
184.949151
11
173.549396
21
189.625190
0
LINE
8
Layer 1
10
173.549396
20
189.625190
11
178.805398
21
187.917801
0
LINE
8
Layer 1
10
178.805398
20
187.917801
11
178.805398
21
187.917791
0
LINE
8
Layer 1
10
210.362606
20
185.497272
11
210.362606
21
178.680640
0
LINE
8
Layer 1
10
210.362606
20
178.680640
11
210.583851
21
177.958834
0
LINE
8
Layer 1
10
210.583851
20
177.958834
11
211.026890
21
177.480042
0
LINE
8
Layer 1
10
211.026890
20
177.480042
11
211.394935
21
177.328862
0
LINE
8
Layer 1
10
211.394935
20
177.328862
11
218.866984
21
174.901032
0
LINE
8
Layer 1
10
218.866984
20
174.901032
11
211.390964
21
172.471726
0
LINE
8
Layer 1
10
211.390964
20
172.471726
11
210.702717
21
171.995276
0
LINE
8
Layer 1
10
210.702717
20
171.995276
11
210.362606
21
171.026648
0
LINE
8
Layer 1
10
210.362606
20
171.026648
11
210.362606
21
164.304793
0
LINE
8
Layer 1
10
210.362606
20
164.304793
11
205.107118
21
162.596888
0
LINE
8
Layer 1
10
205.107118
20
162.596888
11
201.138373
21
168.060114
0
LINE
8
Layer 1
10
201.138373
20
168.060114
11
200.472703
21
168.566621
0
LINE
8
Layer 1
10
200.472703
20
168.566621
11
199.446301
21
168.590990
0
LINE
8
Layer 1
10
199.446301
20
168.590990
11
193.053089
21
166.513452
0
LINE
8
Layer 1
10
193.053089
20
166.513452
11
189.430059
21
171.499704
0
LINE
8
Layer 1
10
189.430059
20
171.499704
11
189.430059
21
178.301863
0
LINE
8
Layer 1
10
189.430059
20
178.301863
11
193.053089
21
183.288117
0
LINE
8
Layer 1
10
193.053089
20
183.288117
11
199.474913
21
181.201941
0
LINE
8
Layer 1
10
199.474913
20
181.201941
11
200.138437
21
181.129594
0
LINE
8
Layer 1
10
200.138437
20
181.129594
11
200.542616
21
181.336715
0
LINE
8
Layer 1
10
200.542616
20
181.336715
11
201.135235
21
181.700082
0
LINE
8
Layer 1
10
201.135235
20
181.700082
11
201.709533
21
182.528629
0
LINE
8
Layer 1
10
201.709533
20
182.528629
11
205.107118
21
187.204668
0
LINE
8
Layer 1
10
205.107118
20
187.204668
11
210.362606
21
185.497282
0
LINE
8
Layer 1
10
210.362606
20
185.497282
11
210.362606
21
185.497272
0
LINE
8
Layer 1
10
222.042499
20
182.734136
11
218.793605
21
178.263096
0
LINE
8
Layer 1
10
218.793605
20
178.263096
11
213.537602
21
179.971001
0
LINE
8
Layer 1
10
213.537602
20
179.971001
11
213.537602
21
185.497272
0
LINE
8
Layer 1
10
213.537602
20
185.497272
11
218.793605
21
187.204658
0
LINE
8
Layer 1
10
218.793605
20
187.204658
11
222.042499
21
182.734136
0
LINE
8
Layer 1
10
222.042499
20
182.734136
11
222.042499
21
182.734136
0
LINE
8
Layer 1
10
135.497502
20
181.801378
11
136.178597
21
181.236038
0
LINE
8
Layer 1
10
136.178597
20
181.236038
11
137.232439
21
181.211697
0
LINE
8
Layer 1
10
137.232439
20
181.211697
11
143.624643
21
183.288633
0
LINE
8
Layer 1
10
143.624643
20
183.288633
11
147.593907
21
177.826442
0
LINE
8
Layer 1
10
147.593907
20
177.826442
11
148.259063
21
177.318464
0
LINE
8
Layer 1
10
148.259063
20
177.318464
11
149.285952
21
177.295154
0
LINE
8
Layer 1
10
149.285952
20
177.295154
11
155.678674
21
179.372091
0
LINE
8
Layer 1
10
155.678674
20
179.372091
11
158.927568
21
174.901051
0
LINE
8
Layer 1
10
158.927568
20
174.901051
11
155.678674
21
170.430527
0
LINE
8
Layer 1
10
155.678674
20
170.430527
11
149.434618
21
172.458825
0
LINE
8
Layer 1
10
149.434618
20
172.458825
11
149.245769
21
172.556818
0
LINE
8
Layer 1
10
149.245769
20
172.556818
11
149.000020
21
172.527556
0
LINE
8
Layer 1
10
149.000020
20
172.527556
11
148.420403
21
172.536155
0
LINE
8
Layer 1
10
148.420403
20
172.536155
11
148.196915
21
172.448847
0
LINE
8
Layer 1
10
148.196915
20
172.448847
11
148.004386
21
172.314604
0
LINE
8
Layer 1
10
148.004386
20
172.314604
11
147.473762
21
171.810758
0
LINE
8
Layer 1
10
147.473762
20
171.810758
11
143.624643
21
166.513979
0
LINE
8
Layer 1
10
143.624643
20
166.513979
11
137.374904
21
168.544344
0
LINE
8
Layer 1
10
137.374904
20
168.544344
11
137.174000
21
168.637498
0
LINE
8
Layer 1
10
137.174000
20
168.637498
11
136.919036
21
168.612069
0
LINE
8
Layer 1
10
136.919036
20
168.612069
11
136.366917
21
168.619054
0
LINE
8
Layer 1
10
136.366917
20
168.619054
11
136.143727
21
168.531716
0
LINE
8
Layer 1
10
136.143727
20
168.531716
11
135.951146
21
168.397778
0
LINE
8
Layer 1
10
135.951146
20
168.397778
11
135.419742
21
167.894208
0
LINE
8
Layer 1
10
135.419742
20
167.894208
11
133.764793
21
165.616368
0
LINE
8
Layer 1
10
133.764793
20
165.616368
11
133.764793
21
168.048258
0
LINE
8
Layer 1
10
133.764793
20
168.048258
11
138.108709
21
174.026696
0
LINE
8
Layer 1
10
138.108709
20
174.026696
11
138.385249
21
174.816461
0
LINE
8
Layer 1
10
138.385249
20
174.816461
11
138.090900
21
175.800048
0
LINE
8
Layer 1
10
138.090900
20
175.800048
11
133.764793
21
181.753348
0
LINE
8
Layer 1
10
133.764793
20
181.753348
11
133.764793
21
184.185755
0
LINE
8
Layer 1
10
133.764793
20
184.185755
11
135.497502
21
181.801407
0
LINE
8
Layer 1
10
135.497502
20
181.801407
11
135.497502
21
181.801378
0
LINE
8
Layer 1
10
134.819509
20
174.901032
11
131.571130
21
170.429992
0
LINE
8
Layer 1
10
131.571130
20
170.429992
11
126.315128
21
172.137897
0
LINE
8
Layer 1
10
126.315128
20
172.137897
11
126.315128
21
177.664168
0
LINE
8
Layer 1
10
126.315128
20
177.664168
11
131.571130
21
179.371553
0
LINE
8
Layer 1
10
131.571130
20
179.371553
11
134.819509
21
174.901032
0
LINE
8
Layer 1
10
134.819509
20
174.901032
11
134.819509
21
174.901032
0
LINE
8
Layer 1
10
222.042499
20
167.067928
11
218.793605
21
162.597407
0
LINE
8
Layer 1
10
218.793605
20
162.597407
11
213.537602
21
164.304793
0
LINE
8
Layer 1
10
213.537602
20
164.304793
11
213.537602
21
169.831064
0
LINE
8
Layer 1
10
213.537602
20
169.831064
11
218.793605
21
171.538449
0
LINE
8
Layer 1
10
218.793605
20
171.538449
11
222.042499
21
167.067928
0
LINE
8
Layer 1
10
222.042499
20
167.067928
11
222.042499
21
167.067928
0
LINE
8
Layer 1
10
155.304538
20
167.213655
11
159.301704
21
161.711157
0
LINE
8
Layer 1
10
159.301704
20
161.711157
11
159.301704
21
155.547198
0
LINE
8
Layer 1
10
159.301704
20
155.547198
11
152.808086
21
153.442541
0
LINE
8
Layer 1
10
152.808086
20
153.442541
11
152.414326
21
153.150476
0
LINE
8
Layer 1
10
152.414326
20
153.150476
11
152.132227
21
152.822300
0
LINE
8
Layer 1
10
152.132227
20
152.822300
11
151.984380
21
152.647040
0
LINE
8
Layer 1
10
151.984380
20
152.647040
11
151.941955
21
152.427498
0
LINE
8
Layer 1
10
151.941955
20
152.427498
11
151.852039
21
151.867428
0
LINE
8
Layer 1
10
151.852039
20
151.867428
11
151.852039
21
145.293573
0
LINE
8
Layer 1
10
151.852039
20
145.293573
11
146.596034
21
143.585671
0
LINE
8
Layer 1
10
146.596034
20
143.585671
11
142.589568
21
149.099538
0
LINE
8
Layer 1
10
142.589568
20
149.099538
11
141.986940
21
149.554367
0
LINE
8
Layer 1
10
141.986940
20
149.554367
11
141.347200
21
149.681573
0
LINE
8
Layer 1
10
141.347200
20
149.681573
11
140.959326
21
149.586966
0
LINE
8
Layer 1
10
140.959326
20
149.586966
11
133.487291
21
147.159092
0
LINE
8
Layer 1
10
133.487291
20
147.159092
11
138.108709
21
153.519418
0
LINE
8
Layer 1
10
138.108709
20
153.519418
11
138.385249
21
154.309183
0
LINE
8
Layer 1
10
138.385249
20
154.309183
11
138.090900
21
155.292252
0
LINE
8
Layer 1
10
138.090900
20
155.292252
11
134.139448
21
160.730856
0
LINE
8
Layer 1
10
134.139448
20
160.730856
11
137.387824
21
165.201377
0
LINE
8
Layer 1
10
137.387824
20
165.201377
11
143.809645
21
163.115204
0
LINE
8
Layer 1
10
143.809645
20
163.115204
11
144.475238
21
163.041306
0
LINE
8
Layer 1
10
144.475238
20
163.041306
11
144.877867
21
163.249977
0
LINE
8
Layer 1
10
144.877867
20
163.249977
11
145.469969
21
163.613342
0
LINE
8
Layer 1
10
145.469969
20
163.613342
11
146.044268
21
164.441892
0
LINE
8
Layer 1
10
146.044268
20
164.441892
11
149.441852
21
169.117930
0
LINE
8
Layer 1
10
149.441852
20
169.117930
11
155.304538
21
167.213655
0
LINE
8
Layer 1
10
155.304538
20
167.213655
11
155.304538
21
167.213655
0
LINE
8
Layer 1
10
191.162768
20
163.714132
11
191.843863
21
163.149827
0
LINE
8
Layer 1
10
191.843863
20
163.149827
11
192.896699
21
163.124348
0
LINE
8
Layer 1
10
192.896699
20
163.124348
11
199.289911
21
165.201369
0
LINE
8
Layer 1
10
199.289911
20
165.201369
11
203.258656
21
159.738661
0
LINE
8
Layer 1
10
203.258656
20
159.738661
11
203.924326
21
159.232154
0
LINE
8
Layer 1
10
203.924326
20
159.232154
11
204.950728
21
159.207786
0
LINE
8
Layer 1
10
204.950728
20
159.207786
11
207.794289
21
160.131909
0
LINE
8
Layer 1
10
207.794289
20
160.131909
11
206.365437
21
158.164588
0
LINE
8
Layer 1
10
206.365437
20
158.164588
11
199.336935
21
155.881010
0
LINE
8
Layer 1
10
199.336935
20
155.881010
11
198.649205
21
155.404559
0
LINE
8
Layer 1
10
198.649205
20
155.404559
11
198.309091
21
154.435931
0
LINE
8
Layer 1
10
198.309091
20
154.435931
11
198.309091
21
147.075873
0
LINE
8
Layer 1
10
198.309091
20
147.075873
11
196.879724
21
145.109071
0
LINE
8
Layer 1
10
196.879724
20
145.109071
11
196.872607
21
148.154519
0
LINE
8
Layer 1
10
196.872607
20
148.154519
11
196.639890
21
148.930443
0
LINE
8
Layer 1
10
196.639890
20
148.930443
11
195.822757
21
149.553608
0
LINE
8
Layer 1
10
195.822757
20
149.553608
11
189.430062
21
151.630629
0
LINE
8
Layer 1
10
189.430062
20
151.630629
11
189.430062
21
158.383179
0
LINE
8
Layer 1
10
189.430062
20
158.383179
11
189.189222
21
159.184106
0
LINE
8
Layer 1
10
189.189222
20
159.184106
11
188.373582
21
159.807149
0
LINE
8
Layer 1
10
188.373582
20
159.807149
11
181.980396
21
161.884252
0
LINE
8
Layer 1
10
181.980396
20
161.884252
11
181.980396
21
167.410523
0
LINE
8
Layer 1
10
181.980396
20
167.410523
11
187.236401
21
169.117912
0
LINE
8
Layer 1
10
187.236401
20
169.117912
11
191.162771
21
163.714114
0
LINE
8
Layer 1
10
191.162771
20
163.714114
11
191.162768
21
163.714132
0
LINE
8
Layer 1
10
170.981081
20
158.310334
11
167.011817
21
152.847626
0
LINE
8
Layer 1
10
167.011817
20
152.847626
11
166.735277
21
152.057862
0
LINE
8
Layer 1
10
166.735277
20
152.057862
11
167.029626
21
151.074275
0
LINE
8
Layer 1
10
167.029626
20
151.074275
11
170.981081
21
145.636189
0
LINE
8
Layer 1
10
170.981081
20
145.636189
11
167.011817
21
140.172963
0
LINE
8
Layer 1
10
167.011817
20
140.172963
11
166.735256
21
139.384228
0
LINE
8
Layer 1
10
166.735256
20
139.384228
11
167.029626
21
138.400130
0
LINE
8
Layer 1
10
167.029626
20
138.400130
11
168.787418
21
135.981492
0
LINE
8
Layer 1
10
168.787418
20
135.981492
11
166.473867
21
136.732868
0
LINE
8
Layer 1
10
166.473867
20
136.732868
11
162.130986
21
142.711822
0
LINE
8
Layer 1
10
162.130986
20
142.711822
11
161.465313
21
143.218329
0
LINE
8
Layer 1
10
161.465313
20
143.218329
11
160.438911
21
143.242697
0
LINE
8
Layer 1
10
160.438911
20
143.242697
11
153.439537
21
140.968273
0
LINE
8
Layer 1
10
153.439537
20
140.968273
11
151.127018
21
141.719646
0
LINE
8
Layer 1
10
151.127018
20
141.719646
11
154.021263
21
142.667512
0
LINE
8
Layer 1
10
154.021263
20
142.667512
11
154.686922
21
143.129374
0
LINE
8
Layer 1
10
154.686922
20
143.129374
11
155.027035
21
144.097999
0
LINE
8
Layer 1
10
155.027035
20
144.097999
11
155.027035
21
150.819854
0
LINE
8
Layer 1
10
155.027035
20
150.819854
11
161.448856
21
152.906546
0
LINE
8
Layer 1
10
161.448856
20
152.906546
11
162.136587
21
153.382999
0
LINE
8
Layer 1
10
162.136587
20
153.382999
11
162.476700
21
154.351625
0
LINE
8
Layer 1
10
162.476700
20
154.351625
11
162.476700
21
161.073480
0
LINE
8
Layer 1
10
162.476700
20
161.073480
11
167.732702
21
162.780869
0
LINE
8
Layer 1
10
167.732702
20
162.780869
11
170.981081
21
158.310345
0
LINE
8
Layer 1
10
170.981081
20
158.310345
11
170.981081
21
158.310334
0
LINE
8
Layer 1
10
186.255063
20
157.156919
11
186.255063
21
150.404366
0
LINE
8
Layer 1
10
186.255063
20
150.404366
11
186.306760
21
149.980250
0
LINE
8
Layer 1
10
186.306760
20
149.980250
11
186.496429
21
149.602934
0
LINE
8
Layer 1
10
186.496429
20
149.602934
11
186.978015
21
149.103155
0
LINE
8
Layer 1
10
186.978015
20
149.103155
11
187.427642
21
148.942720
0
LINE
8
Layer 1
10
187.427642
20
148.942720
11
193.704728
21
146.903293
0
LINE
8
Layer 1
10
193.704728
20
146.903293
11
193.704728
21
141.377022
0
LINE
8
Layer 1
10
193.704728
20
141.377022
11
187.221929
21
139.270177
0
LINE
8
Layer 1
10
187.221929
20
139.270177
11
186.603487
21
138.837118
0
LINE
8
Layer 1
10
186.603487
20
138.837118
11
186.285373
21
138.269397
0
LINE
8
Layer 1
10
186.285373
20
138.269397
11
186.255063
21
137.871710
0
LINE
8
Layer 1
10
186.255063
20
137.871710
11
186.255063
21
130.013904
0
LINE
8
Layer 1
10
186.255063
20
130.013904
11
181.634679
21
136.373715
0
LINE
8
Layer 1
10
181.634679
20
136.373715
11
180.969004
21
136.881693
0
LINE
8
Layer 1
10
180.969004
20
136.881693
11
179.942118
21
136.905003
0
LINE
8
Layer 1
10
179.942118
20
136.905003
11
173.549396
21
134.828066
0
LINE
8
Layer 1
10
173.549396
20
134.828066
11
170.301018
21
139.299106
0
LINE
8
Layer 1
10
170.301018
20
139.299106
11
174.270281
21
144.761814
0
LINE
8
Layer 1
10
174.270281
20
144.761814
11
174.546821
21
145.551578
0
LINE
8
Layer 1
10
174.546821
20
145.551578
11
174.252472
21
146.534647
0
LINE
8
Layer 1
10
174.252472
20
146.534647
11
170.301018
21
151.973251
0
LINE
8
Layer 1
10
170.301018
20
151.973251
11
173.924048
21
156.960021
0
LINE
8
Layer 1
10
173.924048
20
156.960021
11
180.392896
21
159.061181
0
LINE
8
Layer 1
10
180.392896
20
159.061181
11
186.255063
21
157.156908
0
LINE
8
Layer 1
10
186.255063
20
157.156908
11
186.255063
21
157.156919
0
LINE
8
Layer 1
10
134.819509
20
154.393783
11
131.571130
21
149.922743
0
LINE
8
Layer 1
10
131.571130
20
149.922743
11
126.315128
21
151.630648
0
LINE
8
Layer 1
10
126.315128
20
151.630648
11
126.315128
21
157.156919
0
LINE
8
Layer 1
10
126.315128
20
157.156919
11
131.571130
21
158.864305
0
LINE
8
Layer 1
10
131.571130
20
158.864305
11
134.819509
21
154.393783
0
LINE
8
Layer 1
10
134.819509
20
154.393783
11
134.819509
21
154.393783
0
LINE
8
Layer 1
10
209.988468
20
150.477230
11
206.740092
21
146.006190
0
LINE
8
Layer 1
10
206.740092
20
146.006190
11
201.484087
21
147.714094
0
LINE
8
Layer 1
10
201.484087
20
147.714094
11
201.484087
21
153.240365
0
LINE
8
Layer 1
10
201.484087
20
153.240365
11
206.740092
21
154.947754
0
LINE
8
Layer 1
10
206.740092
20
154.947754
11
209.988468
21
150.477230
0
LINE
8
Layer 1
10
209.988468
20
150.477230
11
209.988468
21
150.477230
0
LINE
8
Layer 1
10
144.027719
20
141.719636
11
140.779344
21
137.248598
0
LINE
8
Layer 1
10
140.779344
20
137.248598
11
135.523339
21
138.956500
0
LINE
8
Layer 1
10
135.523339
20
138.956500
11
135.523339
21
144.482771
0
LINE
8
Layer 1
10
135.523339
20
144.482771
11
140.779344
21
146.190160
0
LINE
8
Layer 1
10
140.779344
20
146.190160
11
144.027719
21
141.719636
0
LINE
8
Layer 1
10
144.027719
20
141.719636
11
144.027719
21
141.719636
0
LINE
8
Layer 1
10
163.531415
20
135.382563
11
160.283037
21
130.911523
0
LINE
8
Layer 1
10
160.283037
20
130.911523
11
155.027035
21
132.619428
0
LINE
8
Layer 1
10
155.027035
20
132.619428
11
155.027035
21
138.145699
0
LINE
8
Layer 1
10
155.027035
20
138.145699
11
160.283037
21
139.853085
0
LINE
8
Layer 1
10
160.283037
20
139.853085
11
163.531415
21
135.382563
0
LINE
8
Layer 1
10
163.531415
20
135.382563
11
163.531415
21
135.382563
0
LINE
8
Layer 1
10
197.934439
20
133.886532
11
194.686064
21
129.415494
0
LINE
8
Layer 1
10
194.686064
20
129.415494
11
189.430059
21
131.123396
0
LINE
8
Layer 1
10
189.430059
20
131.123396
11
189.430059
21
136.649667
0
LINE
8
Layer 1
10
189.430059
20
136.649667
11
194.686064
21
138.357056
0
LINE
8
Layer 1
10
194.686064
20
138.357056
11
197.934439
21
133.886532
0
LINE
8
Layer 1
10
197.934439
20
133.886532
11
197.934439
21
133.886532
0
LINE
8
Layer 1
10
183.035109
20
129.045491
11
179.786733
21
124.574451
0
LINE
8
Layer 1
10
179.786733
20
124.574451
11
174.530729
21
126.282355
0
LINE
8
Layer 1
10
174.530729
20
126.282355
11
174.530729
21
131.808626
0
LINE
8
Layer 1
10
174.530729
20
131.808626
11
179.786733
21
133.516012
0
LINE
8
Layer 1
10
179.786733
20
133.516012
11
183.035109
21
129.045491
0
LINE
8
Layer 1
10
183.035109
20
129.045491
11
183.035109
21
129.045491
0
LINE
8
Layer 1
10
53.069045
20
116.523791
11
52.642198
21
116.508643
0
LINE
8
Layer 1
10
52.642198
20
116.508643
11
52.226475
21
116.443641
0
LINE
8
Layer 1
10
52.226475
20
116.443641
11
46.464847
21
114.577198
0
LINE
8
Layer 1
10
46.464847
20
114.577198
11
46.073200
21
114.286149
0
LINE
8
Layer 1
10
46.073200
20
114.286149
11
45.790105
21
113.957505
0
LINE
8
Layer 1
10
45.790105
20
113.957505
11
45.642589
21
113.781769
0
LINE
8
Layer 1
10
45.642589
20
113.781769
11
45.599742
21
113.562218
0
LINE
8
Layer 1
10
45.599742
20
113.562218
11
45.509826
21
113.002149
0
LINE
8
Layer 1
10
45.509826
20
113.002149
11
45.509826
21
107.582746
0
LINE
8
Layer 1
10
45.509826
20
107.582746
11
42.940477
21
104.046530
0
LINE
8
Layer 1
10
42.940477
20
104.046530
11
38.400709
21
105.520858
0
LINE
8
Layer 1
10
38.400709
20
105.520858
11
38.211859
21
105.618851
0
LINE
8
Layer 1
10
38.211859
20
105.618851
11
37.966110
21
105.589586
0
LINE
8
Layer 1
10
37.966110
20
105.589586
11
37.386493
21
105.598185
0
LINE
8
Layer 1
10
37.386493
20
105.598185
11
37.163520
21
105.510876
0
LINE
8
Layer 1
10
37.163520
20
105.510876
11
36.971265
21
105.376867
0
LINE
8
Layer 1
10
36.971265
20
105.376867
11
36.439863
21
104.872781
0
LINE
8
Layer 1
10
36.439863
20
104.872781
11
32.924047
21
100.033862
0
LINE
8
Layer 1
10
32.924047
20
100.033862
11
32.803489
21
99.842160
0
LINE
8
Layer 1
10
32.803489
20
99.842160
11
32.753711
21
99.627240
0
LINE
8
Layer 1
10
32.753711
20
99.627240
11
32.675546
21
99.366370
0
LINE
8
Layer 1
10
32.675546
20
99.366370
11
32.686335
21
99.105236
0
LINE
8
Layer 1
10
32.686335
20
99.105236
11
32.705332
21
98.815584
0
LINE
8
Layer 1
10
32.705332
20
98.815584
11
32.796423
21
98.557102
0
LINE
8
Layer 1
10
32.796423
20
98.557102
11
33.029142
21
98.141114
0
LINE
8
Layer 1
10
33.029142
20
98.141114
11
36.559997
21
93.280278
0
LINE
8
Layer 1
10
36.559997
20
93.280278
11
36.938269
21
92.898389
0
LINE
8
Layer 1
10
36.938269
20
92.898389
11
37.370798
21
92.767648
0
LINE
8
Layer 1
10
37.370798
20
92.767648
11
38.066755
21
92.680762
0
LINE
8
Layer 1
10
38.066755
20
92.680762
11
38.996267
21
92.991858
0
LINE
8
Layer 1
10
38.996267
20
92.991858
11
42.940477
21
94.272980
0
LINE
8
Layer 1
10
42.940477
20
94.272980
11
45.135172
21
91.251979
0
LINE
8
Layer 1
10
45.135172
20
91.251979
11
42.940477
21
88.231497
0
LINE
8
Layer 1
10
42.940477
20
88.231497
11
38.395541
21
89.707888
0
LINE
8
Layer 1
10
38.395541
20
89.707888
11
38.207916
21
89.803371
0
LINE
8
Layer 1
10
38.207916
20
89.803371
11
37.966110
21
89.774553
0
LINE
8
Layer 1
10
37.966110
20
89.774553
11
37.386493
21
89.783152
0
LINE
8
Layer 1
10
37.386493
20
89.783152
11
37.163520
21
89.695843
0
LINE
8
Layer 1
10
37.163520
20
89.695843
11
36.971265
21
89.561836
0
LINE
8
Layer 1
10
36.971265
20
89.561836
11
36.439863
21
89.057747
0
LINE
8
Layer 1
10
36.439863
20
89.057747
11
32.924047
21
84.219344
0
LINE
8
Layer 1
10
32.924047
20
84.219344
11
32.803806
21
84.026692
0
LINE
8
Layer 1
10
32.803806
20
84.026692
11
32.753658
21
83.811175
0
LINE
8
Layer 1
10
32.753658
20
83.811175
11
32.675519
21
83.550815
0
LINE
8
Layer 1
10
32.675519
20
83.550815
11
32.686335
21
83.290206
0
LINE
8
Layer 1
10
32.686335
20
83.290206
11
32.705332
21
83.000551
0
LINE
8
Layer 1
10
32.705332
20
83.000551
11
32.796423
21
82.742072
0
LINE
8
Layer 1
10
32.796423
20
82.742072
11
33.029142
21
82.326084
0
LINE
8
Layer 1
10
33.029142
20
82.326084
11
35.839627
21
78.457430
0
LINE
8
Layer 1
10
35.839627
20
78.457430
11
33.644417
21
75.436946
0
LINE
8
Layer 1
10
33.644417
20
75.436946
11
30.093215
21
76.590879
0
LINE
8
Layer 1
10
30.093215
20
76.590879
11
30.086098
21
81.575742
0
LINE
8
Layer 1
10
30.086098
20
81.575742
11
29.853381
21
82.351666
0
LINE
8
Layer 1
10
29.853381
20
82.351666
11
29.036249
21
82.974831
0
LINE
8
Layer 1
10
29.036249
20
82.974831
11
23.359788
21
84.819307
0
LINE
8
Layer 1
10
23.359788
20
84.819307
11
23.170728
21
84.916807
0
LINE
8
Layer 1
10
23.170728
20
84.916807
11
22.925189
21
84.887520
0
LINE
8
Layer 1
10
22.925189
20
84.887520
11
22.346607
21
84.896119
0
LINE
8
Layer 1
10
22.346607
20
84.896119
11
22.123114
21
84.808813
0
LINE
8
Layer 1
10
22.123114
20
84.808813
11
21.930345
21
84.674800
0
LINE
8
Layer 1
10
21.930345
20
84.674800
11
21.398941
21
84.170714
0
LINE
8
Layer 1
10
21.398941
20
84.170714
11
17.883126
21
79.331795
0
LINE
8
Layer 1
10
17.883126
20
79.331795
11
17.763140
21
79.138512
0
LINE
8
Layer 1
10
17.763140
20
79.138512
11
17.713200
21
78.922594
0
LINE
8
Layer 1
10
17.713200
20
78.922594
11
17.633998
21
78.662520
0
LINE
8
Layer 1
10
17.633998
20
78.662520
11
17.645932
21
78.402138
0
LINE
8
Layer 1
10
17.645932
20
78.402138
11
17.664315
21
78.112813
0
LINE
8
Layer 1
10
17.664315
20
78.112813
11
17.755105
21
77.854612
0
LINE
8
Layer 1
10
17.755105
20
77.854612
11
17.988226
21
77.438534
0
LINE
8
Layer 1
10
17.988226
20
77.438534
11
20.798707
21
73.570397
0
LINE
8
Layer 1
10
20.798707
20
73.570397
11
18.229358
21
70.033666
0
LINE
8
Layer 1
10
18.229358
20
70.033666
11
12.832319
21
68.286026
0
LINE
8
Layer 1
10
12.832319
20
68.286026
11
12.440672
21
67.994980
0
LINE
8
Layer 1
10
12.440672
20
67.994980
11
12.157578
21
67.666336
0
LINE
8
Layer 1
10
12.157578
20
67.666336
11
12.010061
21
67.490599
0
LINE
8
Layer 1
10
12.010061
20
67.490599
11
11.967216
21
67.271046
0
LINE
8
Layer 1
10
11.967216
20
67.271046
11
11.877299
21
66.710980
0
LINE
8
Layer 1
10
11.877299
20
66.710980
11
11.877299
21
60.702980
0
LINE
8
Layer 1
10
11.877299
20
60.702980
11
12.118140
21
59.902053
0
LINE
8
Layer 1
10
12.118140
20
59.902053
11
12.933780
21
59.279013
0
LINE
8
Layer 1
10
12.933780
20
59.279013
11
18.229358
21
57.558990
0
LINE
8
Layer 1
10
18.229358
20
57.558990
11
20.798707
21
54.022259
0
LINE
8
Layer 1
10
20.798707
20
54.022259
11
17.873919
21
49.984786
0
LINE
8
Layer 1
10
17.873919
20
49.984786
11
17.606587
21
49.219826
0
LINE
8
Layer 1
10
17.606587
20
49.219826
11
17.900934
21
48.236239
0
LINE
8
Layer 1
10
17.900934
20
48.236239
11
21.519075
21
43.256006
0
LINE
8
Layer 1
10
21.519075
20
43.256006
11
22.184230
21
42.749499
0
LINE
8
Layer 1
10
22.184230
20
42.749499
11
23.211149
21
42.725131
0
LINE
8
Layer 1
10
23.211149
20
42.725131
11
29.065377
21
44.627486
0
LINE
8
Layer 1
10
29.065377
20
44.627486
11
29.753107
21
45.103936
0
LINE
8
Layer 1
10
29.753107
20
45.103936
11
30.093218
21
46.072564
0
LINE
8
Layer 1
10
30.093218
20
46.072564
11
30.093218
21
51.002282
0
LINE
8
Layer 1
10
30.093218
20
51.002282
11
33.644419
21
52.155700
0
LINE
8
Layer 1
10
33.644419
20
52.155700
11
35.839630
21
49.135215
0
LINE
8
Layer 1
10
35.839630
20
49.135215
11
32.914842
21
45.097742
0
LINE
8
Layer 1
10
32.914842
20
45.097742
11
32.647510
21
44.332782
0
LINE
8
Layer 1
10
32.647510
20
44.332782
11
32.941856
21
43.349195
0
LINE
8
Layer 1
10
32.941856
20
43.349195
11
36.560000
21
38.368960
0
LINE
8
Layer 1
10
36.560000
20
38.368960
11
37.225153
21
37.862455
0
LINE
8
Layer 1
10
37.225153
20
37.862455
11
38.251555
21
37.838087
0
LINE
8
Layer 1
10
38.251555
20
37.838087
11
42.940479
21
39.361136
0
LINE
8
Layer 1
10
42.940479
20
39.361136
11
45.135174
21
36.340653
0
LINE
8
Layer 1
10
45.135174
20
36.340653
11
42.940479
21
33.320169
0
LINE
8
Layer 1
10
42.940479
20
33.320169
11
38.395026
21
34.796563
0
LINE
8
Layer 1
10
38.395026
20
34.796563
11
38.193872
21
34.889705
0
LINE
8
Layer 1
10
38.193872
20
34.889705
11
37.938644
21
34.864291
0
LINE
8
Layer 1
10
37.938644
20
34.864291
11
37.386007
21
34.871276
0
LINE
8
Layer 1
10
37.386007
20
34.871276
11
37.163334
21
34.783931
0
LINE
8
Layer 1
10
37.163334
20
34.783931
11
36.971267
21
34.649997
0
LINE
8
Layer 1
10
36.971267
20
34.649997
11
36.439866
21
34.146427
0
LINE
8
Layer 1
10
36.439866
20
34.146427
11
32.924050
21
29.307508
0
LINE
8
Layer 1
10
32.924050
20
29.307508
11
32.803688
21
29.114875
0
LINE
8
Layer 1
10
32.803688
20
29.114875
11
32.753661
21
28.899338
0
LINE
8
Layer 1
10
32.753661
20
28.899338
11
32.675345
21
28.639529
0
LINE
8
Layer 1
10
32.675345
20
28.639529
11
32.686338
21
28.379401
0
LINE
8
Layer 1
10
32.686338
20
28.379401
11
32.705333
21
28.089219
0
LINE
8
Layer 1
10
32.705333
20
28.089219
11
32.796425
21
27.830233
0
LINE
8
Layer 1
10
32.796425
20
27.830233
11
33.029150
21
27.414247
0
LINE
8
Layer 1
10
33.029150
20
27.414247
11
36.560000
21
22.553924
0
LINE
8
Layer 1
10
36.560000
20
22.553924
11
36.936721
21
22.174102
0
LINE
8
Layer 1
10
36.936721
20
22.174102
11
37.370801
21
22.041294
0
LINE
8
Layer 1
10
37.370801
20
22.041294
11
38.065294
21
21.954249
0
LINE
8
Layer 1
10
38.065294
20
21.954249
11
39.046574
21
22.281409
0
LINE
8
Layer 1
10
39.046574
20
22.281409
11
42.940479
21
23.546626
0
LINE
8
Layer 1
10
42.940479
20
23.546626
11
45.509829
21
20.010413
0
LINE
8
Layer 1
10
45.509829
20
20.010413
11
45.509829
21
14.412311
0
LINE
8
Layer 1
10
45.509829
20
14.412311
11
45.561526
21
13.988195
0
LINE
8
Layer 1
10
45.561526
20
13.988195
11
45.749737
21
13.610476
0
LINE
8
Layer 1
10
45.749737
20
13.610476
11
46.232781
21
13.111099
0
LINE
8
Layer 1
10
46.232781
20
13.111099
11
46.682408
21
12.950664
0
LINE
8
Layer 1
10
46.682408
20
12.950664
11
52.420510
21
11.086420
0
LINE
8
Layer 1
10
52.420510
20
11.086420
11
53.084552
21
11.013557
0
LINE
8
Layer 1
10
53.084552
20
11.013557
11
53.489282
21
11.221143
0
LINE
8
Layer 1
10
53.489282
20
11.221143
11
54.080752
21
11.584074
0
LINE
8
Layer 1
10
54.080752
20
11.584074
11
54.639562
21
12.391717
0
LINE
8
Layer 1
10
54.639562
20
12.391717
11
57.373688
21
16.154838
0
LINE
8
Layer 1
10
57.373688
20
16.154838
11
61.531571
21
17.505659
0
LINE
8
Layer 1
10
61.531571
20
17.505659
11
64.467828
21
13.476999
0
LINE
8
Layer 1
10
64.467828
20
13.476999
11
64.825423
21
13.110583
0
LINE
8
Layer 1
10
64.825423
20
13.110583
11
65.257952
21
12.980358
0
LINE
8
Layer 1
10
65.257952
20
12.980358
11
65.953377
21
12.892464
0
LINE
8
Layer 1
10
65.953377
20
12.892464
11
66.883918
21
13.204114
0
LINE
8
Layer 1
10
66.883918
20
13.204114
11
71.993450
21
14.864480
0
LINE
8
Layer 1
10
71.993450
20
14.864480
11
72.681180
21
15.340931
0
LINE
8
Layer 1
10
72.681180
20
15.340931
11
73.021294
21
16.309559
0
LINE
8
Layer 1
10
73.021294
20
16.309559
11
73.021294
21
22.464524
0
LINE
8
Layer 1
10
73.021294
20
22.464524
11
72.781425
21
23.266406
0
LINE
8
Layer 1
10
72.781425
20
23.266406
11
71.964322
21
23.889092
0
LINE
8
Layer 1
10
71.964322
20
23.889092
11
67.276432
21
25.412661
0
LINE
8
Layer 1
10
67.276432
20
25.412661
11
67.276432
21
29.146276
0
LINE
8
Layer 1
10
67.276432
20
29.146276
11
70.827631
21
30.300210
0
LINE
8
Layer 1
10
70.827631
20
30.300210
11
73.763446
21
26.271127
0
LINE
8
Layer 1
10
73.763446
20
26.271127
11
74.119932
21
25.905653
0
LINE
8
Layer 1
10
74.119932
20
25.905653
11
74.553497
21
25.774912
0
LINE
8
Layer 1
10
74.553497
20
25.774912
11
75.248487
21
25.687383
0
LINE
8
Layer 1
10
75.248487
20
25.687383
11
76.229791
21
26.015016
0
LINE
8
Layer 1
10
76.229791
20
26.015016
11
81.288997
21
27.659032
0
LINE
8
Layer 1
10
81.288997
20
27.659032
11
81.977243
21
28.135482
0
LINE
8
Layer 1
10
81.977243
20
28.135482
11
82.317354
21
29.104110
0
LINE
8
Layer 1
10
82.317354
20
29.104110
11
82.317354
21
34.033312
0
LINE
8
Layer 1
10
82.317354
20
34.033312
11
85.868555
21
35.187243
0
LINE
8
Layer 1
10
85.868555
20
35.187243
11
88.063250
21
32.166761
0
LINE
8
Layer 1
10
88.063250
20
32.166761
11
85.138565
21
28.129248
0
LINE
8
Layer 1
10
85.138565
20
28.129248
11
85.018203
21
27.945857
0
LINE
8
Layer 1
10
85.018203
20
27.945857
11
84.977138
21
27.733961
0
LINE
8
Layer 1
10
84.977138
20
27.733961
11
84.896884
21
27.479425
0
LINE
8
Layer 1
10
84.896884
20
27.479425
11
84.910476
21
27.223917
0
LINE
8
Layer 1
10
84.910476
20
27.223917
11
84.928860
21
26.934856
0
LINE
8
Layer 1
10
84.928860
20
26.934856
11
85.019649
21
26.676910
0
LINE
8
Layer 1
10
85.019649
20
26.676910
11
85.252767
21
26.260832
0
LINE
8
Layer 1
10
85.252767
20
26.260832
11
88.783620
21
21.401025
0
LINE
8
Layer 1
10
88.783620
20
21.401025
11
89.161889
21
21.018101
0
LINE
8
Layer 1
10
89.161889
20
21.018101
11
89.594421
21
20.887876
0
LINE
8
Layer 1
10
89.594421
20
20.887876
11
90.289412
21
20.800350
0
LINE
8
Layer 1
10
90.289412
20
20.800350
11
91.270713
21
21.127983
0
LINE
8
Layer 1
10
91.270713
20
21.127983
11
96.329918
21
22.771998
0
LINE
8
Layer 1
10
96.329918
20
22.771998
11
97.017649
21
23.248449
0
LINE
8
Layer 1
10
97.017649
20
23.248449
11
97.357762
21
24.217074
0
LINE
8
Layer 1
10
97.357762
20
24.217074
11
97.357762
21
29.146276
0
LINE
8
Layer 1
10
97.357762
20
29.146276
11
101.515642
21
30.497097
0
LINE
8
Layer 1
10
101.515642
20
30.497097
11
106.838824
21
28.768007
0
LINE
8
Layer 1
10
106.838824
20
28.768007
11
107.500282
21
28.695660
0
LINE
8
Layer 1
10
107.500282
20
28.695660
11
107.906528
21
28.902265
0
LINE
8
Layer 1
10
107.906528
20
28.902265
11
108.499067
21
29.265659
0
LINE
8
Layer 1
10
108.499067
20
29.265659
11
109.057874
21
30.073304
0
LINE
8
Layer 1
10
109.057874
20
30.073304
11
112.147444
21
34.337686
0
LINE
8
Layer 1
10
112.147444
20
34.337686
11
112.414591
21
35.103109
0
LINE
8
Layer 1
10
112.414591
20
35.103109
11
112.429520
21
35.316604
0
LINE
8
Layer 1
10
112.429520
20
35.316604
11
112.300595
21
35.510379
0
LINE
8
Layer 1
10
112.300595
20
35.510379
11
112.189004
21
35.912096
0
LINE
8
Layer 1
10
112.189004
20
35.912096
11
111.986480
21
36.269838
0
LINE
8
Layer 1
10
111.986480
20
36.269838
11
108.848002
21
40.589491
0
LINE
8
Layer 1
10
108.848002
20
40.589491
11
108.848002
21
44.961313
0
LINE
8
Layer 1
10
108.848002
20
44.961313
11
113.587638
21
46.509097
0
LINE
8
Layer 1
10
113.587638
20
46.509097
11
114.253268
21
46.970484
0
LINE
8
Layer 1
10
114.253268
20
46.970484
11
114.593382
21
47.939112
0
LINE
8
Layer 1
10
114.593382
20
47.939112
11
114.593382
21
54.095109
0
LINE
8
Layer 1
10
114.593382
20
54.095109
11
114.352540
21
54.896036
0
LINE
8
Layer 1
10
114.352540
20
54.896036
11
113.536899
21
55.519079
0
LINE
8
Layer 1
10
113.536899
20
55.519079
11
107.854265
21
57.365191
0
LINE
8
Layer 1
10
107.854265
20
57.365191
11
107.653110
21
57.458332
0
LINE
8
Layer 1
10
107.653110
20
57.458332
11
107.397880
21
57.432919
0
LINE
8
Layer 1
10
107.397880
20
57.432919
11
106.845246
21
57.439904
0
LINE
8
Layer 1
10
106.845246
20
57.439904
11
106.622058
21
57.352563
0
LINE
8
Layer 1
10
106.622058
20
57.352563
11
106.429716
21
57.218393
0
LINE
8
Layer 1
10
106.429716
20
57.218393
11
105.898586
21
56.715058
0
LINE
8
Layer 1
10
105.898586
20
56.715058
11
103.103656
21
52.868325
0
LINE
8
Layer 1
10
103.103656
20
52.868325
11
99.552457
21
54.021740
0
LINE
8
Layer 1
10
99.552457
20
54.021740
11
99.552457
21
57.755874
0
LINE
8
Layer 1
10
99.552457
20
57.755874
11
104.291549
21
59.303185
0
LINE
8
Layer 1
10
104.291549
20
59.303185
11
104.957208
21
59.765046
0
LINE
8
Layer 1
10
104.957208
20
59.765046
11
105.297319
21
60.733674
0
LINE
8
Layer 1
10
105.297319
20
60.733674
11
105.297319
21
66.889155
0
LINE
8
Layer 1
10
105.297319
20
66.889155
11
105.057411
21
67.690990
0
LINE
8
Layer 1
10
105.057411
20
67.690990
11
104.240349
21
68.313210
0
LINE
8
Layer 1
10
104.240349
20
68.313210
11
99.552457
21
69.836776
0
LINE
8
Layer 1
10
99.552457
20
69.836776
11
99.552457
21
73.570395
0
LINE
8
Layer 1
10
99.552457
20
73.570395
11
103.103656
21
74.724328
0
LINE
8
Layer 1
10
103.103656
20
74.724328
11
106.039546
21
70.695335
0
LINE
8
Layer 1
10
106.039546
20
70.695335
11
106.684393
21
70.205150
0
LINE
8
Layer 1
10
106.684393
20
70.205150
11
107.710795
21
70.180782
0
LINE
8
Layer 1
10
107.710795
20
70.180782
11
113.565538
21
72.083136
0
LINE
8
Layer 1
10
113.565538
20
72.083136
11
114.253268
21
72.559590
0
LINE
8
Layer 1
10
114.253268
20
72.559590
11
114.593382
21
73.528215
0
LINE
8
Layer 1
10
114.593382
20
73.528215
11
114.593382
21
79.684214
0
LINE
8
Layer 1
10
114.593382
20
79.684214
11
114.352471
21
80.485570
0
LINE
8
Layer 1
10
114.352471
20
80.485570
11
113.536410
21
81.107750
0
LINE
8
Layer 1
10
113.536410
20
81.107750
11
108.848002
21
82.631317
0
LINE
8
Layer 1
10
108.848002
20
82.631317
11
108.848002
21
87.003138
0
LINE
8
Layer 1
10
108.848002
20
87.003138
11
112.138237
21
91.531537
0
LINE
8
Layer 1
10
112.138237
20
91.531537
11
112.414776
21
92.321302
0
LINE
8
Layer 1
10
112.414776
20
92.321302
11
112.120428
21
93.304370
0
LINE
8
Layer 1
10
112.120428
20
93.304370
11
108.502287
21
98.284606
0
LINE
8
Layer 1
10
108.502287
20
98.284606
11
107.836615
21
98.791113
0
LINE
8
Layer 1
10
107.836615
20
98.791113
11
106.810215
21
98.815481
0
LINE
8
Layer 1
10
106.810215
20
98.815481
11
101.515642
21
97.095543
0
LINE
8
Layer 1
10
101.515642
20
97.095543
11
97.357762
21
98.445845
0
LINE
8
Layer 1
10
97.357762
20
98.445845
11
97.350645
21
103.431227
0
LINE
8
Layer 1
10
97.350645
20
103.431227
11
97.117926
21
104.207151
0
LINE
8
Layer 1
10
97.117926
20
104.207151
11
96.300793
21
104.830312
0
LINE
8
Layer 1
10
96.300793
20
104.830312
11
90.447085
21
106.732151
0
LINE
8
Layer 1
10
90.447085
20
106.732151
11
89.610661
21
106.751571
0
LINE
8
Layer 1
10
89.610661
20
106.751571
11
88.766001
21
106.167383
0
LINE
8
Layer 1
10
88.766001
20
106.167383
11
85.147672
21
101.187285
0
LINE
8
Layer 1
10
85.147672
20
101.187285
11
84.871133
21
100.397523
0
LINE
8
Layer 1
10
84.871133
20
100.397523
11
85.165479
21
99.413936
0
LINE
8
Layer 1
10
85.165479
20
99.413936
11
88.063253
21
95.425887
0
LINE
8
Layer 1
10
88.063253
20
95.425887
11
85.868558
21
92.405405
0
LINE
8
Layer 1
10
85.868558
20
92.405405
11
82.317357
21
93.558820
0
LINE
8
Layer 1
10
82.317357
20
93.558820
11
82.310186
21
98.544704
0
LINE
8
Layer 1
10
82.310186
20
98.544704
11
82.076475
21
99.320631
0
LINE
8
Layer 1
10
82.076475
20
99.320631
11
81.259869
21
99.943287
0
LINE
8
Layer 1
10
81.259869
20
99.943287
11
75.405642
21
101.845126
0
LINE
8
Layer 1
10
75.405642
20
101.845126
11
74.569700
21
101.864070
0
LINE
8
Layer 1
10
74.569700
20
101.864070
11
73.725077
21
101.280344
0
LINE
8
Layer 1
10
73.725077
20
101.280344
11
70.827631
21
97.292433
0
LINE
8
Layer 1
10
70.827631
20
97.292433
11
67.276432
21
98.445848
0
LINE
8
Layer 1
10
67.276432
20
98.445848
11
67.276432
21
102.179984
0
LINE
8
Layer 1
10
67.276432
20
102.179984
11
72.015521
21
103.727295
0
LINE
8
Layer 1
10
72.015521
20
103.727295
11
72.681180
21
104.189156
0
LINE
8
Layer 1
10
72.681180
20
104.189156
11
73.021294
21
105.157781
0
LINE
8
Layer 1
10
73.021294
20
105.157781
11
73.021294
21
111.313265
0
LINE
8
Layer 1
10
73.021294
20
111.313265
11
72.781455
21
112.114669
0
LINE
8
Layer 1
10
72.781455
20
112.114669
11
71.964322
21
112.737833
0
LINE
8
Layer 1
10
71.964322
20
112.737833
11
66.282177
21
114.583863
0
LINE
8
Layer 1
10
66.282177
20
114.583863
11
66.081274
21
114.677017
0
LINE
8
Layer 1
10
66.081274
20
114.677017
11
65.826311
21
114.651588
0
LINE
8
Layer 1
10
65.826311
20
114.651588
11
65.274192
21
114.658573
0
LINE
8
Layer 1
10
65.274192
20
114.658573
11
65.051001
21
114.571235
0
LINE
8
Layer 1
10
65.051001
20
114.571235
11
64.858419
21
114.437295
0
LINE
8
Layer 1
10
64.858419
20
114.437295
11
64.327012
21
113.933730
0
LINE
8
Layer 1
10
64.327012
20
113.933730
11
61.531571
21
110.086476
0
LINE
8
Layer 1
10
61.531571
20
110.086476
11
57.373688
21
111.437297
0
LINE
8
Layer 1
10
57.373688
20
111.437297
11
54.063221
21
115.982626
0
LINE
8
Layer 1
10
54.063221
20
115.982626
11
53.365153
21
116.551188
0
LINE
8
Layer 1
10
53.365153
20
116.551188
11
53.069047
21
116.523801
0
LINE
8
Layer 1
10
53.069047
20
116.523801
11
53.069045
21
116.523791
0
LINE
8
Layer 1
10
55.108712
20
109.153707
11
55.489492
21
108.764537
0
LINE
8
Layer 1
10
55.489492
20
108.764537
11
55.846994
21
108.595133
0
LINE
8
Layer 1
10
55.846994
20
108.595133
11
61.716570
21
106.688227
0
LINE
8
Layer 1
10
61.716570
20
106.688227
11
62.380094
21
106.615880
0
LINE
8
Layer 1
10
62.380094
20
106.615880
11
62.784273
21
106.823001
0
LINE
8
Layer 1
10
62.784273
20
106.823001
11
63.376892
21
107.186366
0
LINE
8
Layer 1
10
63.376892
20
107.186366
11
63.951180
21
108.014923
0
LINE
8
Layer 1
10
63.951180
20
108.014923
11
66.295094
21
111.240915
0
LINE
8
Layer 1
10
66.295094
20
111.240915
11
69.846295
21
110.087497
0
LINE
8
Layer 1
10
69.846295
20
110.087497
11
69.846295
21
106.353363
0
LINE
8
Layer 1
10
69.846295
20
106.353363
11
65.056454
21
104.802613
0
LINE
8
Layer 1
10
65.056454
20
104.802613
11
64.664805
21
104.511564
0
LINE
8
Layer 1
10
64.664805
20
104.511564
11
64.381712
21
104.182920
0
LINE
8
Layer 1
10
64.381712
20
104.182920
11
64.234552
21
104.007639
0
LINE
8
Layer 1
10
64.234552
20
104.007639
11
64.191349
21
103.788665
0
LINE
8
Layer 1
10
64.191349
20
103.788665
11
64.101434
21
103.227564
0
LINE
8
Layer 1
10
64.101434
20
103.227564
11
64.101434
21
97.808161
0
LINE
8
Layer 1
10
64.101434
20
97.808161
11
61.531568
21
94.271945
0
LINE
8
Layer 1
10
61.531568
20
94.271945
11
56.788113
21
95.805283
0
LINE
8
Layer 1
10
56.788113
20
95.805283
11
55.978127
21
95.823566
0
LINE
8
Layer 1
10
55.978127
20
95.823566
11
55.133467
21
95.239377
0
LINE
8
Layer 1
10
55.133467
20
95.239377
11
52.236021
21
91.251466
0
LINE
8
Layer 1
10
52.236021
20
91.251466
11
48.078142
21
92.602286
0
LINE
8
Layer 1
10
48.078142
20
92.602286
11
44.767671
21
97.147100
0
LINE
8
Layer 1
10
44.767671
20
97.147100
11
44.088992
21
97.680071
0
LINE
8
Layer 1
10
44.088992
20
97.680071
11
43.614912
21
97.673112
0
LINE
8
Layer 1
10
43.614912
20
97.673112
11
42.905250
21
97.599439
0
LINE
8
Layer 1
10
42.905250
20
97.599439
11
38.407942
21
96.138502
0
LINE
8
Layer 1
10
38.407942
20
96.138502
11
36.212732
21
99.158986
0
LINE
8
Layer 1
10
36.212732
20
99.158986
11
38.407942
21
102.179987
0
LINE
8
Layer 1
10
38.407942
20
102.179987
11
43.151397
21
100.646141
0
LINE
8
Layer 1
10
43.151397
20
100.646141
11
43.786420
21
100.575434
0
LINE
8
Layer 1
10
43.786420
20
100.575434
11
44.193082
21
100.782711
0
LINE
8
Layer 1
10
44.193082
20
100.782711
11
44.785202
21
101.144917
0
LINE
8
Layer 1
10
44.785202
20
101.144917
11
45.344012
21
101.952562
0
LINE
8
Layer 1
10
45.344012
20
101.952562
11
48.431093
21
106.200924
0
LINE
8
Layer 1
10
48.431093
20
106.200924
11
48.684822
21
107.066504
0
LINE
8
Layer 1
10
48.684822
20
107.066504
11
48.684822
21
111.954054
0
LINE
8
Layer 1
10
48.684822
20
111.954054
11
52.236021
21
113.107471
0
LINE
8
Layer 1
10
52.236021
20
113.107471
11
55.108712
21
109.153712
0
LINE
8
Layer 1
10
55.108712
20
109.153712
11
55.108712
21
109.153707
0
LINE
8
Layer 1
10
94.182764
20
102.179982
11
94.189934
21
97.194098
0
LINE
8
Layer 1
10
94.189934
20
97.194098
11
94.423606
21
96.418639
0
LINE
8
Layer 1
10
94.423606
20
96.418639
11
95.239246
21
95.795599
0
LINE
8
Layer 1
10
95.239246
20
95.795599
11
101.104816
21
93.890059
0
LINE
8
Layer 1
10
101.104816
20
93.890059
11
102.006052
21
93.915909
0
LINE
8
Layer 1
10
102.006052
20
93.915909
11
106.654341
21
95.426411
0
LINE
8
Layer 1
10
106.654341
20
95.426411
11
108.849552
21
92.405410
0
LINE
8
Layer 1
10
108.849552
20
92.405410
11
105.926738
21
88.383955
0
LINE
8
Layer 1
10
105.926738
20
88.383955
11
105.673006
21
87.518374
0
LINE
8
Layer 1
10
105.673006
20
87.518374
11
105.673006
21
81.404544
0
LINE
8
Layer 1
10
105.673006
20
81.404544
11
105.913916
21
80.603188
0
LINE
8
Layer 1
10
105.913916
20
80.603188
11
106.729978
21
79.981008
0
LINE
8
Layer 1
10
106.729978
20
79.981008
11
111.418386
21
78.457441
0
LINE
8
Layer 1
10
111.418386
20
78.457441
11
111.418386
21
74.723823
0
LINE
8
Layer 1
10
111.418386
20
74.723823
11
107.866669
21
73.569889
0
LINE
8
Layer 1
10
107.866669
20
73.569889
11
104.930853
21
77.598972
0
LINE
8
Layer 1
10
104.930853
20
77.598972
11
104.286448
21
78.089067
0
LINE
8
Layer 1
10
104.286448
20
78.089067
11
103.259530
21
78.113435
0
LINE
8
Layer 1
10
103.259530
20
78.113435
11
97.964959
21
76.393498
0
LINE
8
Layer 1
10
97.964959
20
76.393498
11
93.807080
21
77.743800
0
LINE
8
Layer 1
10
93.807080
20
77.743800
11
93.799963
21
82.729181
0
LINE
8
Layer 1
10
93.799963
20
82.729181
11
93.567246
21
83.505103
0
LINE
8
Layer 1
10
93.567246
20
83.505103
11
92.750113
21
84.128267
0
LINE
8
Layer 1
10
92.750113
20
84.128267
11
88.062221
21
85.651318
0
LINE
8
Layer 1
10
88.062221
20
85.651318
11
88.062221
21
90.023139
0
LINE
8
Layer 1
10
88.062221
20
90.023139
11
91.352456
21
94.551541
0
LINE
8
Layer 1
10
91.352456
20
94.551541
11
91.628995
21
95.341302
0
LINE
8
Layer 1
10
91.628995
20
95.341302
11
91.334650
21
96.324890
0
LINE
8
Layer 1
10
91.334650
20
96.324890
11
88.436360
21
100.312939
0
LINE
8
Layer 1
10
88.436360
20
100.312939
11
90.631571
21
103.333421
0
LINE
8
Layer 1
10
90.631571
20
103.333421
11
94.182772
21
102.180006
0
LINE
8
Layer 1
10
94.182772
20
102.180006
11
94.182764
21
102.179982
0
LINE
8
Layer 1
10
79.142355
20
97.292946
11
79.149473
21
92.307567
0
LINE
8
Layer 1
10
79.149473
20
92.307567
11
79.382261
21
91.531215
0
LINE
8
Layer 1
10
79.382261
20
91.531215
11
80.199325
21
90.908997
0
LINE
8
Layer 1
10
80.199325
20
90.908997
11
84.887214
21
89.385428
0
LINE
8
Layer 1
10
84.887214
20
89.385428
11
84.887214
21
85.013609
0
LINE
8
Layer 1
10
84.887214
20
85.013609
11
82.317867
21
81.477394
0
LINE
8
Layer 1
10
82.317867
20
81.477394
11
77.778097
21
82.951722
0
LINE
8
Layer 1
10
77.778097
20
82.951722
11
77.589249
21
83.049715
0
LINE
8
Layer 1
10
77.589249
20
83.049715
11
77.343501
21
83.020450
0
LINE
8
Layer 1
10
77.343501
20
83.020450
11
76.763884
21
83.029049
0
LINE
8
Layer 1
10
76.763884
20
83.029049
11
76.540909
21
82.941740
0
LINE
8
Layer 1
10
76.540909
20
82.941740
11
76.348655
21
82.807731
0
LINE
8
Layer 1
10
76.348655
20
82.807731
11
75.817240
21
82.303652
0
LINE
8
Layer 1
10
75.817240
20
82.303652
11
73.021804
21
78.456912
0
LINE
8
Layer 1
10
73.021804
20
78.456912
11
69.470606
21
79.610843
0
LINE
8
Layer 1
10
69.470606
20
79.610843
11
69.463489
21
84.595708
0
LINE
8
Layer 1
10
69.463489
20
84.595708
11
69.230769
21
85.371630
0
LINE
8
Layer 1
10
69.230769
20
85.371630
11
68.413636
21
85.994794
0
LINE
8
Layer 1
10
68.413636
20
85.994794
11
63.725747
21
87.517845
0
LINE
8
Layer 1
10
63.725747
20
87.517845
11
63.725747
21
91.890182
0
LINE
8
Layer 1
10
63.725747
20
91.890182
11
66.295094
21
95.426398
0
LINE
8
Layer 1
10
66.295094
20
95.426398
11
71.038548
21
93.892552
0
LINE
8
Layer 1
10
71.038548
20
93.892552
11
71.848572
21
93.874719
0
LINE
8
Layer 1
10
71.848572
20
93.874719
11
72.693195
21
94.458447
0
LINE
8
Layer 1
10
72.693195
20
94.458447
11
75.590641
21
98.446874
0
LINE
8
Layer 1
10
75.590641
20
98.446874
11
79.142355
21
97.292941
0
LINE
8
Layer 1
10
79.142355
20
97.292941
11
79.142355
21
97.292946
0
LINE
8
Layer 1
10
60.550751
20
91.251979
11
60.557921
21
86.266613
0
LINE
8
Layer 1
10
60.557921
20
86.266613
11
60.590928
21
86.012607
0
LINE
8
Layer 1
10
60.590928
20
86.012607
11
60.667247
21
85.782855
0
LINE
8
Layer 1
10
60.667247
20
85.782855
11
60.753440
21
85.575001
0
LINE
8
Layer 1
10
60.753440
20
85.575001
11
60.894656
21
85.408481
0
LINE
8
Layer 1
10
60.894656
20
85.408481
11
61.299616
21
84.985521
0
LINE
8
Layer 1
10
61.299616
20
84.985521
11
61.773656
21
84.814074
0
LINE
8
Layer 1
10
61.773656
20
84.814074
11
66.295615
21
83.344461
0
LINE
8
Layer 1
10
66.295615
20
83.344461
11
66.302785
21
78.359095
0
LINE
8
Layer 1
10
66.302785
20
78.359095
11
66.336274
21
78.105135
0
LINE
8
Layer 1
10
66.336274
20
78.105135
11
66.412630
21
77.875337
0
LINE
8
Layer 1
10
66.412630
20
77.875337
11
66.498860
21
77.668184
0
LINE
8
Layer 1
10
66.498860
20
77.668184
11
66.639438
21
77.501754
0
LINE
8
Layer 1
10
66.639438
20
77.501754
11
67.044983
21
77.077937
0
LINE
8
Layer 1
10
67.044983
20
77.077937
11
67.518523
21
76.906569
0
LINE
8
Layer 1
10
67.518523
20
76.906569
11
73.206814
21
75.058674
0
LINE
8
Layer 1
10
73.206814
20
75.058674
11
73.870338
21
74.985810
0
LINE
8
Layer 1
10
73.870338
20
74.985810
11
74.274933
21
75.193601
0
LINE
8
Layer 1
10
74.274933
20
75.193601
11
74.867123
21
75.555783
0
LINE
8
Layer 1
10
74.867123
20
75.555783
11
75.425874
21
76.363965
0
LINE
8
Layer 1
10
75.425874
20
76.363965
11
77.785341
21
79.611361
0
LINE
8
Layer 1
10
77.785341
20
79.611361
11
82.528793
21
78.077516
0
LINE
8
Layer 1
10
82.528793
20
78.077516
11
83.163816
21
78.006808
0
LINE
8
Layer 1
10
83.163816
20
78.006808
11
83.570062
21
78.213416
0
LINE
8
Layer 1
10
83.570062
20
78.213416
11
84.162683
21
78.576778
0
LINE
8
Layer 1
10
84.162683
20
78.576778
11
84.736926
21
79.405370
0
LINE
8
Layer 1
10
84.736926
20
79.405370
11
87.080885
21
82.631844
0
LINE
8
Layer 1
10
87.080885
20
82.631844
11
90.632086
21
81.477913
0
LINE
8
Layer 1
10
90.632086
20
81.477913
11
90.632086
21
77.743776
0
LINE
8
Layer 1
10
90.632086
20
77.743776
11
85.843732
21
76.194740
0
LINE
8
Layer 1
10
85.843732
20
76.194740
11
85.449615
21
75.901384
0
LINE
8
Layer 1
10
85.449615
20
75.901384
11
85.167503
21
75.573333
0
LINE
8
Layer 1
10
85.167503
20
75.573333
11
85.019986
21
75.397597
0
LINE
8
Layer 1
10
85.019986
20
75.397597
11
84.977141
21
75.178046
0
LINE
8
Layer 1
10
84.977141
20
75.178046
11
84.887222
21
74.617976
0
LINE
8
Layer 1
10
84.887222
20
74.617976
11
84.887222
21
69.836776
0
LINE
8
Layer 1
10
84.887222
20
69.836776
11
80.098410
21
68.286066
0
LINE
8
Layer 1
10
80.098410
20
68.286066
11
79.705682
21
67.995054
0
LINE
8
Layer 1
10
79.705682
20
67.995054
11
79.423006
21
67.667421
0
LINE
8
Layer 1
10
79.423006
20
67.667421
11
79.274721
21
67.491305
0
LINE
8
Layer 1
10
79.274721
20
67.491305
11
79.231761
21
67.271044
0
LINE
8
Layer 1
10
79.231761
20
67.271044
11
79.142361
21
66.710458
0
LINE
8
Layer 1
10
79.142361
20
66.710458
11
79.142361
21
60.703496
0
LINE
8
Layer 1
10
79.142361
20
60.703496
11
79.194653
21
60.277372
0
LINE
8
Layer 1
10
79.194653
20
60.277372
11
79.382269
21
59.901661
0
LINE
8
Layer 1
10
79.382269
20
59.901661
11
79.865315
21
59.401768
0
LINE
8
Layer 1
10
79.865315
20
59.401768
11
80.314942
21
59.241333
0
LINE
8
Layer 1
10
80.314942
20
59.241333
11
84.887222
21
57.755874
0
LINE
8
Layer 1
10
84.887222
20
57.755874
11
84.894340
21
52.769977
0
LINE
8
Layer 1
10
84.894340
20
52.769977
11
84.927313
21
52.516070
0
LINE
8
Layer 1
10
84.927313
20
52.516070
11
85.003520
21
52.286481
0
LINE
8
Layer 1
10
85.003520
20
52.286481
11
85.091004
21
52.078929
0
LINE
8
Layer 1
10
85.091004
20
52.078929
11
85.232122
21
51.911678
0
LINE
8
Layer 1
10
85.232122
20
51.911678
11
85.635532
21
51.490276
0
LINE
8
Layer 1
10
85.635532
20
51.490276
11
86.110127
21
51.317464
0
LINE
8
Layer 1
10
86.110127
20
51.317464
11
90.632084
21
49.848356
0
LINE
8
Layer 1
10
90.632084
20
49.848356
11
90.632084
21
46.114222
0
LINE
8
Layer 1
10
90.632084
20
46.114222
11
87.080883
21
44.960289
0
LINE
8
Layer 1
10
87.080883
20
44.960289
11
84.144995
21
48.989798
0
LINE
8
Layer 1
10
84.144995
20
48.989798
11
83.500146
21
49.479983
0
LINE
8
Layer 1
10
83.500146
20
49.479983
11
82.473746
21
49.504351
0
LINE
8
Layer 1
10
82.473746
20
49.504351
11
77.785338
21
47.980784
0
LINE
8
Layer 1
10
77.785338
20
47.980784
11
74.849613
21
52.009465
0
LINE
8
Layer 1
10
74.849613
20
52.009465
11
74.204599
21
52.500915
0
LINE
8
Layer 1
10
74.204599
20
52.500915
11
73.177713
21
52.524224
0
LINE
8
Layer 1
10
73.177713
20
52.524224
11
67.323457
21
50.621955
0
LINE
8
Layer 1
10
67.323457
20
50.621955
11
66.635726
21
50.146020
0
LINE
8
Layer 1
10
66.635726
20
50.146020
11
66.295615
21
49.176876
0
LINE
8
Layer 1
10
66.295615
20
49.176876
11
66.295615
21
44.247677
0
LINE
8
Layer 1
10
66.295615
20
44.247677
11
61.556494
21
42.699893
0
LINE
8
Layer 1
10
61.556494
20
42.699893
11
60.890864
21
42.238502
0
LINE
8
Layer 1
10
60.890864
20
42.238502
11
60.550754
21
41.269877
0
LINE
8
Layer 1
10
60.550754
20
41.269877
11
60.550754
21
36.340159
0
LINE
8
Layer 1
10
60.550754
20
36.340159
11
56.999552
21
35.186225
0
LINE
8
Layer 1
10
56.999552
20
35.186225
11
54.804341
21
38.207226
0
LINE
8
Layer 1
10
54.804341
20
38.207226
11
57.729129
21
42.244699
0
LINE
8
Layer 1
10
57.729129
20
42.244699
11
57.996435
21
43.009134
0
LINE
8
Layer 1
10
57.996435
20
43.009134
11
58.011809
21
43.223995
0
LINE
8
Layer 1
10
58.011809
20
43.223995
11
57.882275
21
43.418423
0
LINE
8
Layer 1
10
57.882275
20
43.418423
11
57.770702
21
43.819954
0
LINE
8
Layer 1
10
57.770702
20
43.819954
11
57.568165
21
44.177369
0
LINE
8
Layer 1
10
57.568165
20
44.177369
11
54.804341
21
47.981292
0
LINE
8
Layer 1
10
54.804341
20
47.981292
11
57.729129
21
52.018768
0
LINE
8
Layer 1
10
57.729129
20
52.018768
11
57.996435
21
52.783201
0
LINE
8
Layer 1
10
57.996435
20
52.783201
11
58.011809
21
52.998063
0
LINE
8
Layer 1
10
58.011809
20
52.998063
11
57.882275
21
53.192492
0
LINE
8
Layer 1
10
57.882275
20
53.192492
11
57.770703
21
53.594022
0
LINE
8
Layer 1
10
57.770703
20
53.594022
11
57.568165
21
53.951438
0
LINE
8
Layer 1
10
57.568165
20
53.951438
11
54.083972
21
58.747547
0
LINE
8
Layer 1
10
54.083972
20
58.747547
11
53.361536
21
59.330455
0
LINE
8
Layer 1
10
53.361536
20
59.330455
11
52.442213
21
59.294800
0
LINE
8
Layer 1
10
52.442213
20
59.294800
11
47.703492
21
57.754845
0
LINE
8
Layer 1
10
47.703492
20
57.754845
11
44.767602
21
61.784352
0
LINE
8
Layer 1
10
44.767602
20
61.784352
11
44.088995
21
62.316899
0
LINE
8
Layer 1
10
44.088995
20
62.316899
11
43.614915
21
62.309940
0
LINE
8
Layer 1
10
43.614915
20
62.309940
11
42.905253
21
62.236267
0
LINE
8
Layer 1
10
42.905253
20
62.236267
11
38.407945
21
60.775330
0
LINE
8
Layer 1
10
38.407945
20
60.775330
11
36.212734
21
63.795815
0
LINE
8
Layer 1
10
36.212734
20
63.795815
11
38.407945
21
66.816816
0
LINE
8
Layer 1
10
38.407945
20
66.816816
11
43.151400
21
65.283478
0
LINE
8
Layer 1
10
43.151400
20
65.283478
11
43.961386
21
65.265195
0
LINE
8
Layer 1
10
43.961386
20
65.265195
11
44.806046
21
65.849384
0
LINE
8
Layer 1
10
44.806046
20
65.849384
11
47.703492
21
69.837295
0
LINE
8
Layer 1
10
47.703492
20
69.837295
11
52.447976
21
68.303441
0
LINE
8
Layer 1
10
52.447976
20
68.303441
11
53.257486
21
68.285635
0
LINE
8
Layer 1
10
53.257486
20
68.285635
11
54.101591
21
68.869360
0
LINE
8
Layer 1
10
54.101591
20
68.869360
11
57.719922
21
73.849458
0
LINE
8
Layer 1
10
57.719922
20
73.849458
11
57.996461
21
74.639223
0
LINE
8
Layer 1
10
57.996461
20
74.639223
11
57.702113
21
75.622810
0
LINE
8
Layer 1
10
57.702113
20
75.622810
11
54.804341
21
79.610856
0
LINE
8
Layer 1
10
54.804341
20
79.610856
11
57.729129
21
83.648332
0
LINE
8
Layer 1
10
57.729129
20
83.648332
11
57.996461
21
84.413292
0
LINE
8
Layer 1
10
57.996461
20
84.413292
11
57.702113
21
85.396876
0
LINE
8
Layer 1
10
57.702113
20
85.396876
11
54.804341
21
89.384925
0
LINE
8
Layer 1
10
54.804341
20
89.384925
11
56.999552
21
92.405926
0
LINE
8
Layer 1
10
56.999552
20
92.405926
11
60.550754
21
91.251992
0
LINE
8
Layer 1
10
60.550754
20
91.251992
11
60.550751
21
91.251979
0
LINE
8
Layer 1
10
51.861885
20
88.034610
11
54.431234
21
84.497879
0
LINE
8
Layer 1
10
54.431234
20
84.497879
11
51.505928
21
80.460403
0
LINE
8
Layer 1
10
51.505928
20
80.460403
11
51.238596
21
79.695446
0
LINE
8
Layer 1
10
51.238596
20
79.695446
11
51.532945
21
78.711859
0
LINE
8
Layer 1
10
51.532945
20
78.711859
11
54.431234
21
74.723810
0
LINE
8
Layer 1
10
54.431234
20
74.723810
11
52.236021
21
71.703328
0
LINE
8
Layer 1
10
52.236021
20
71.703328
11
47.492569
21
73.236663
0
LINE
8
Layer 1
10
47.492569
20
73.236663
11
46.682583
21
73.254945
0
LINE
8
Layer 1
10
46.682583
20
73.254945
11
45.837923
21
72.670757
0
LINE
8
Layer 1
10
45.837923
20
72.670757
11
42.940477
21
68.682845
0
LINE
8
Layer 1
10
42.940477
20
68.682845
11
38.782079
21
70.033666
0
LINE
8
Layer 1
10
38.782079
20
70.033666
11
36.212732
21
73.570397
0
LINE
8
Layer 1
10
36.212732
20
73.570397
11
39.137580
21
77.607846
0
LINE
8
Layer 1
10
39.137580
20
77.607846
11
39.405420
21
78.372843
0
LINE
8
Layer 1
10
39.405420
20
78.372843
11
39.420292
21
78.588200
0
LINE
8
Layer 1
10
39.420292
20
78.588200
11
39.290160
21
78.782116
0
LINE
8
Layer 1
10
39.290160
20
78.782116
11
39.178817
21
79.183049
0
LINE
8
Layer 1
10
39.178817
20
79.183049
11
38.976563
21
79.540030
0
LINE
8
Layer 1
10
38.976563
20
79.540030
11
36.212732
21
83.344464
0
LINE
8
Layer 1
10
36.212732
20
83.344464
11
38.407942
21
86.364948
0
LINE
8
Layer 1
10
38.407942
20
86.364948
11
43.151397
21
84.831618
0
LINE
8
Layer 1
10
43.151397
20
84.831618
11
43.785386
21
84.759879
0
LINE
8
Layer 1
10
43.785386
20
84.759879
11
44.193082
21
84.967672
0
LINE
8
Layer 1
10
44.193082
20
84.967672
11
44.786184
21
85.330416
0
LINE
8
Layer 1
10
44.786184
20
85.330416
11
45.375127
21
86.180846
0
LINE
8
Layer 1
10
45.375127
20
86.180846
11
47.703489
21
89.385431
0
LINE
8
Layer 1
10
47.703489
20
89.385431
11
51.861885
21
88.034613
0
LINE
8
Layer 1
10
51.861885
20
88.034613
11
51.861885
21
88.034610
0
LINE
8
Layer 1
10
26.918219
20
80.324495
11
26.925337
21
75.338597
0
LINE
8
Layer 1
10
26.925337
20
75.338597
11
26.958840
21
75.084101
0
LINE
8
Layer 1
10
26.958840
20
75.084101
11
27.035668
21
74.854159
0
LINE
8
Layer 1
10
27.035668
20
74.854159
11
27.121682
21
74.647196
0
LINE
8
Layer 1
10
27.121682
20
74.647196
11
27.262222
21
74.480986
0
LINE
8
Layer 1
10
27.262222
20
74.480986
11
27.666531
21
74.058910
0
LINE
8
Layer 1
10
27.666531
20
74.058910
11
28.141127
21
73.886092
0
LINE
8
Layer 1
10
28.141127
20
73.886092
11
33.270275
21
72.220090
0
LINE
8
Layer 1
10
33.270275
20
72.220090
11
35.839625
21
68.683359
0
LINE
8
Layer 1
10
35.839625
20
68.683359
11
32.914837
21
64.645370
0
LINE
8
Layer 1
10
32.914837
20
64.645370
11
32.647505
21
63.880410
0
LINE
8
Layer 1
10
32.647505
20
63.880410
11
32.941851
21
62.897339
0
LINE
8
Layer 1
10
32.941851
20
62.897339
11
35.839625
21
58.908774
0
LINE
8
Layer 1
10
35.839625
20
58.908774
11
33.270275
21
55.372561
0
LINE
8
Layer 1
10
33.270275
20
55.372561
11
27.946061
21
53.642437
0
LINE
8
Layer 1
10
27.946061
20
53.642437
11
27.258328
21
53.165984
0
LINE
8
Layer 1
10
27.258328
20
53.165984
11
26.918217
21
52.197359
0
LINE
8
Layer 1
10
26.918217
20
52.197359
11
26.918217
21
47.268156
0
LINE
8
Layer 1
10
26.918217
20
47.268156
11
23.367017
21
46.114222
0
LINE
8
Layer 1
10
23.367017
20
46.114222
11
21.171805
21
49.134707
0
LINE
8
Layer 1
10
21.171805
20
49.134707
11
24.097110
21
53.172699
0
LINE
8
Layer 1
10
24.097110
20
53.172699
11
24.364442
21
53.937656
0
LINE
8
Layer 1
10
24.364442
20
53.937656
11
24.070095
21
54.920727
0
LINE
8
Layer 1
10
24.070095
20
54.920727
11
20.445235
21
59.909747
0
LINE
8
Layer 1
10
20.445235
20
59.909747
11
19.705135
21
60.417288
0
LINE
8
Layer 1
10
19.705135
20
60.417288
11
15.052290
21
61.929258
0
LINE
8
Layer 1
10
15.052290
20
61.929258
11
15.052290
21
65.662876
0
LINE
8
Layer 1
10
15.052290
20
65.662876
11
19.780677
21
67.199215
0
LINE
8
Layer 1
10
19.780677
20
67.199215
11
20.441618
21
67.625027
0
LINE
8
Layer 1
10
20.441618
20
67.625027
11
20.976438
21
68.413643
0
LINE
8
Layer 1
10
20.976438
20
68.413643
11
24.097110
21
72.720834
0
LINE
8
Layer 1
10
24.097110
20
72.720834
11
24.364416
21
73.486302
0
LINE
8
Layer 1
10
24.364416
20
73.486302
11
24.379328
21
73.701370
0
LINE
8
Layer 1
10
24.379328
20
73.701370
11
24.249252
21
73.895083
0
LINE
8
Layer 1
10
24.249252
20
73.895083
11
24.138309
21
74.296122
0
LINE
8
Layer 1
10
24.138309
20
74.296122
11
23.936142
21
74.652983
0
LINE
8
Layer 1
10
23.936142
20
74.652983
11
21.171805
21
78.457428
0
LINE
8
Layer 1
10
21.171805
20
78.457428
11
23.367017
21
81.477913
0
LINE
8
Layer 1
10
23.367017
20
81.477913
11
26.918217
21
80.324495
0
LINE
8
Layer 1
10
26.918217
20
80.324495
11
26.918219
21
80.324495
0
LINE
8
Layer 1
10
96.377459
20
73.570395
11
96.384629
21
68.585545
0
LINE
8
Layer 1
10
96.384629
20
68.585545
11
96.617330
21
67.809129
0
LINE
8
Layer 1
10
96.617330
20
67.809129
11
97.434431
21
67.186443
0
LINE
8
Layer 1
10
97.434431
20
67.186443
11
102.122323
21
65.662876
0
LINE
8
Layer 1
10
102.122323
20
65.662876
11
102.122323
21
61.929258
0
LINE
8
Layer 1
10
102.122323
20
61.929258
11
97.383202
21
60.381474
0
LINE
8
Layer 1
10
97.383202
20
60.381474
11
96.717572
21
59.920087
0
LINE
8
Layer 1
10
96.717572
20
59.920087
11
96.377461
21
58.950943
0
LINE
8
Layer 1
10
96.377461
20
58.950943
11
96.377461
21
54.021740
0
LINE
8
Layer 1
10
96.377461
20
54.021740
11
92.219582
21
52.670920
0
LINE
8
Layer 1
10
92.219582
20
52.670920
11
88.062216
21
54.021740
0
LINE
8
Layer 1
10
88.062216
20
54.021740
11
88.055045
21
59.007106
0
LINE
8
Layer 1
10
88.055045
20
59.007106
11
87.821305
21
59.783511
0
LINE
8
Layer 1
10
87.821305
20
59.783511
11
87.005244
21
60.405692
0
LINE
8
Layer 1
10
87.005244
20
60.405692
11
82.317351
21
61.929258
0
LINE
8
Layer 1
10
82.317351
20
61.929258
11
82.317351
21
65.662876
0
LINE
8
Layer 1
10
82.317351
20
65.662876
11
87.056472
21
67.210658
0
LINE
8
Layer 1
10
87.056472
20
67.210658
11
87.722102
21
67.672048
0
LINE
8
Layer 1
10
87.722102
20
67.672048
11
88.062213
21
68.641192
0
LINE
8
Layer 1
10
88.062213
20
68.641192
11
88.062213
21
73.570395
0
LINE
8
Layer 1
10
88.062213
20
73.570395
11
92.219579
21
74.921215
0
LINE
8
Layer 1
10
92.219579
20
74.921215
11
96.377459
21
73.570395
0
LINE
8
Layer 1
10
96.377459
20
73.570395
11
96.377459
21
73.570395
0
LINE
8
Layer 1
10
45.813166
20
54.955533
11
46.232778
21
54.514733
0
LINE
8
Layer 1
10
46.232778
20
54.514733
11
46.666343
21
54.383992
0
LINE
8
Layer 1
10
46.666343
20
54.383992
11
47.361333
21
54.296465
0
LINE
8
Layer 1
10
47.361333
20
54.296465
11
48.342650
21
54.624056
0
LINE
8
Layer 1
10
48.342650
20
54.624056
11
52.236021
21
55.888807
0
LINE
8
Layer 1
10
52.236021
20
55.888807
11
54.431234
21
52.868325
0
LINE
8
Layer 1
10
54.431234
20
52.868325
11
51.506383
21
48.830873
0
LINE
8
Layer 1
10
51.506383
20
48.830873
11
51.385571
21
48.647660
0
LINE
8
Layer 1
10
51.385571
20
48.647660
11
51.344604
21
48.435525
0
LINE
8
Layer 1
10
51.344604
20
48.435525
11
51.264152
21
48.181319
0
LINE
8
Layer 1
10
51.264152
20
48.181319
11
51.277942
21
47.925997
0
LINE
8
Layer 1
10
51.277942
20
47.925997
11
51.296957
21
47.636628
0
LINE
8
Layer 1
10
51.296957
20
47.636628
11
51.388027
21
47.378379
0
LINE
8
Layer 1
10
51.388027
20
47.378379
11
51.620754
21
46.962396
0
LINE
8
Layer 1
10
51.620754
20
46.962396
11
54.431234
21
43.094256
0
LINE
8
Layer 1
10
54.431234
20
43.094256
11
51.861885
21
39.557525
0
LINE
8
Layer 1
10
51.861885
20
39.557525
11
47.703489
21
38.206704
0
LINE
8
Layer 1
10
47.703489
20
38.206704
11
44.767764
21
42.235388
0
LINE
8
Layer 1
10
44.767764
20
42.235388
11
44.122750
21
42.726835
0
LINE
8
Layer 1
10
44.122750
20
42.726835
11
43.095861
21
42.750145
0
LINE
8
Layer 1
10
43.095861
20
42.750145
11
38.407942
21
41.227179
0
LINE
8
Layer 1
10
38.407942
20
41.227179
11
36.212732
21
44.247663
0
LINE
8
Layer 1
10
36.212732
20
44.247663
11
39.137580
21
48.285631
0
LINE
8
Layer 1
10
39.137580
20
48.285631
11
39.405389
21
49.050617
0
LINE
8
Layer 1
10
39.405389
20
49.050617
11
39.110175
21
50.033818
0
LINE
8
Layer 1
10
39.110175
20
50.033818
11
36.212732
21
54.021730
0
LINE
8
Layer 1
10
36.212732
20
54.021730
11
38.782079
21
57.558461
0
LINE
8
Layer 1
10
38.782079
20
57.558461
11
42.940477
21
58.909282
0
LINE
8
Layer 1
10
42.940477
20
58.909282
11
45.813166
21
54.955523
0
LINE
8
Layer 1
10
45.813166
20
54.955523
11
45.813166
21
54.955533
0
LINE
8
Layer 1
10
111.418383
20
52.868325
11
111.418383
21
49.134707
0
LINE
8
Layer 1
10
111.418383
20
49.134707
11
106.629050
21
47.584018
0
LINE
8
Layer 1
10
106.629050
20
47.584018
11
106.235289
21
47.291953
0
LINE
8
Layer 1
10
106.235289
20
47.291953
11
105.953194
21
46.963780
0
LINE
8
Layer 1
10
105.953194
20
46.963780
11
105.805346
21
46.788518
0
LINE
8
Layer 1
10
105.805346
20
46.788518
11
105.762921
21
46.568974
0
LINE
8
Layer 1
10
105.762921
20
46.568974
11
105.673003
21
46.008908
0
LINE
8
Layer 1
10
105.673003
20
46.008908
11
105.673003
21
39.990057
0
LINE
8
Layer 1
10
105.673003
20
39.990057
11
105.726308
21
39.575286
0
LINE
8
Layer 1
10
105.726308
20
39.575286
11
105.957858
21
39.165916
0
LINE
8
Layer 1
10
105.957858
20
39.165916
11
108.849549
21
35.186738
0
LINE
8
Layer 1
10
108.849549
20
35.186738
11
106.654339
21
32.165737
0
LINE
8
Layer 1
10
106.654339
20
32.165737
11
102.104749
21
33.644198
0
LINE
8
Layer 1
10
102.104749
20
33.644198
11
101.910504
21
33.736331
0
LINE
8
Layer 1
10
101.910504
20
33.736331
11
101.664481
21
33.707836
0
LINE
8
Layer 1
10
101.664481
20
33.707836
11
101.237046
21
33.701956
0
LINE
8
Layer 1
10
101.237046
20
33.701956
11
100.823921
21
33.610837
0
LINE
8
Layer 1
10
100.823921
20
33.610837
11
95.137784
21
31.768921
0
LINE
8
Layer 1
10
95.137784
20
31.768921
11
94.746135
21
31.477872
0
LINE
8
Layer 1
10
94.746135
20
31.477872
11
94.463042
21
31.149228
0
LINE
8
Layer 1
10
94.463042
20
31.149228
11
94.315525
21
30.973492
0
LINE
8
Layer 1
10
94.315525
20
30.973492
11
94.272680
21
30.753941
0
LINE
8
Layer 1
10
94.272680
20
30.753941
11
94.182764
21
30.193872
0
LINE
8
Layer 1
10
94.182764
20
30.193872
11
94.182764
21
25.412153
0
LINE
8
Layer 1
10
94.182764
20
25.412153
11
90.631563
21
24.258738
0
LINE
8
Layer 1
10
90.631563
20
24.258738
11
88.436352
21
27.279220
0
LINE
8
Layer 1
10
88.436352
20
27.279220
11
91.361656
21
31.316696
0
LINE
8
Layer 1
10
91.361656
20
31.316696
11
91.628961
21
32.081129
0
LINE
8
Layer 1
10
91.628961
20
32.081129
11
91.650467
21
32.286000
0
LINE
8
Layer 1
10
91.650467
20
32.286000
11
91.520913
21
32.465460
0
LINE
8
Layer 1
10
91.520913
20
32.465460
11
91.407033
21
32.879793
0
LINE
8
Layer 1
10
91.407033
20
32.879793
11
91.200694
21
33.249366
0
LINE
8
Layer 1
10
91.200694
20
33.249366
11
88.062213
21
37.569020
0
LINE
8
Layer 1
10
88.062213
20
37.569020
11
88.062213
21
41.940838
0
LINE
8
Layer 1
10
88.062213
20
41.940838
11
92.801305
21
43.488151
0
LINE
8
Layer 1
10
92.801305
20
43.488151
11
93.466964
21
43.950013
0
LINE
8
Layer 1
10
93.466964
20
43.950013
11
93.807077
21
44.918638
0
LINE
8
Layer 1
10
93.807077
20
44.918638
11
93.807077
21
49.848356
0
LINE
8
Layer 1
10
93.807077
20
49.848356
11
97.964957
21
51.198661
0
LINE
8
Layer 1
10
97.964957
20
51.198661
11
103.288139
21
49.469569
0
LINE
8
Layer 1
10
103.288139
20
49.469569
11
103.951147
21
49.396189
0
LINE
8
Layer 1
10
103.951147
20
49.396189
11
104.355843
21
49.603829
0
LINE
8
Layer 1
10
104.355843
20
49.603829
11
104.949403
21
49.967744
0
LINE
8
Layer 1
10
104.949403
20
49.967744
11
105.538367
21
50.817624
0
LINE
8
Layer 1
10
105.538367
20
50.817624
11
107.867182
21
54.022256
0
LINE
8
Layer 1
10
107.867182
20
54.022256
11
111.418383
21
52.868325
0
LINE
8
Layer 1
10
111.418383
20
52.868325
11
111.418383
21
52.868325
0
LINE
8
Layer 1
10
75.895014
20
45.181464
11
76.576109
21
44.617159
0
LINE
8
Layer 1
10
76.576109
20
44.617159
11
77.628943
21
44.591679
0
LINE
8
Layer 1
10
77.628943
20
44.591679
11
82.317870
21
46.114730
0
LINE
8
Layer 1
10
82.317870
20
46.114730
11
84.887217
21
42.578515
0
LINE
8
Layer 1
10
84.887217
20
42.578515
11
84.887217
21
38.206694
0
LINE
8
Layer 1
10
84.887217
20
38.206694
11
80.097381
21
36.655901
0
LINE
8
Layer 1
10
80.097381
20
36.655901
11
79.705883
21
36.365180
0
LINE
8
Layer 1
10
79.705883
20
36.365180
11
79.423089
21
36.037825
0
LINE
8
Layer 1
10
79.423089
20
36.037825
11
79.275137
21
35.861234
0
LINE
8
Layer 1
10
79.275137
20
35.861234
11
79.231755
21
35.640964
0
LINE
8
Layer 1
10
79.231755
20
35.640964
11
79.142355
21
35.080894
0
LINE
8
Layer 1
10
79.142355
20
35.080894
11
79.142355
21
30.299176
0
LINE
8
Layer 1
10
79.142355
20
30.299176
11
75.590641
21
29.145761
0
LINE
8
Layer 1
10
75.590641
20
29.145761
11
72.654751
21
33.174751
0
LINE
8
Layer 1
10
72.654751
20
33.174751
11
71.954691
21
33.742374
0
LINE
8
Layer 1
10
71.954691
20
33.742374
11
71.033302
21
33.705682
0
LINE
8
Layer 1
10
71.033302
20
33.705682
11
66.295094
21
32.165727
0
LINE
8
Layer 1
10
66.295094
20
32.165727
11
63.725747
21
35.701942
0
LINE
8
Layer 1
10
63.725747
20
35.701942
11
63.725747
21
40.074279
0
LINE
8
Layer 1
10
63.725747
20
40.074279
11
68.464836
21
41.621590
0
LINE
8
Layer 1
10
68.464836
20
41.621590
11
69.130495
21
42.083451
0
LINE
8
Layer 1
10
69.130495
20
42.083451
11
69.470608
21
43.052076
0
LINE
8
Layer 1
10
69.470608
20
43.052076
11
69.470608
21
47.981279
0
LINE
8
Layer 1
10
69.470608
20
47.981279
11
73.021807
21
49.135213
0
LINE
8
Layer 1
10
73.021807
20
49.135213
11
75.895014
21
45.181454
0
LINE
8
Layer 1
10
75.895014
20
45.181454
11
75.895014
21
45.181464
0
LINE
8
Layer 1
10
55.108712
20
32.386913
11
55.790323
21
31.822608
0
LINE
8
Layer 1
10
55.790323
20
31.822608
11
56.843160
21
31.797128
0
LINE
8
Layer 1
10
56.843160
20
31.797128
11
61.531568
21
33.320179
0
LINE
8
Layer 1
10
61.531568
20
33.320179
11
64.101434
21
29.783966
0
LINE
8
Layer 1
10
64.101434
20
29.783966
11
64.101434
21
24.186382
0
LINE
8
Layer 1
10
64.101434
20
24.186382
11
64.153670
21
23.761250
0
LINE
8
Layer 1
10
64.153670
20
23.761250
11
64.341339
21
23.384548
0
LINE
8
Layer 1
10
64.341339
20
23.384548
11
64.824385
21
22.885171
0
LINE
8
Layer 1
10
64.824385
20
22.885171
11
65.274010
21
22.724728
0
LINE
8
Layer 1
10
65.274010
20
22.724728
11
69.846295
21
21.238761
0
LINE
8
Layer 1
10
69.846295
20
21.238761
11
69.846295
21
17.504627
0
LINE
8
Layer 1
10
69.846295
20
17.504627
11
66.295094
21
16.351212
0
LINE
8
Layer 1
10
66.295094
20
16.351212
11
63.359207
21
20.380202
0
LINE
8
Layer 1
10
63.359207
20
20.380202
11
62.656046
21
20.947826
0
LINE
8
Layer 1
10
62.656046
20
20.947826
11
61.737755
21
20.911133
0
LINE
8
Layer 1
10
61.737755
20
20.911133
11
55.783095
21
18.977066
0
LINE
8
Layer 1
10
55.783095
20
18.977066
11
55.563846
21
18.843228
0
LINE
8
Layer 1
10
55.563846
20
18.843228
11
55.363675
21
18.656246
0
LINE
8
Layer 1
10
55.363675
20
18.656246
11
55.002496
21
18.300543
0
LINE
8
Layer 1
10
55.002496
20
18.300543
11
54.704353
21
17.881891
0
LINE
8
Layer 1
10
54.704353
20
17.881891
11
52.236021
21
14.484661
0
LINE
8
Layer 1
10
52.236021
20
14.484661
11
48.684822
21
15.638079
0
LINE
8
Layer 1
10
48.684822
20
15.638079
11
48.684822
21
20.609345
0
LINE
8
Layer 1
10
48.684822
20
20.609345
11
48.384174
21
21.455232
0
LINE
8
Layer 1
10
48.384174
20
21.455232
11
44.788425
21
26.404850
0
LINE
8
Layer 1
10
44.788425
20
26.404850
11
44.088992
21
26.953717
0
LINE
8
Layer 1
10
44.088992
20
26.953717
11
43.614917
21
26.946705
0
LINE
8
Layer 1
10
43.614917
20
26.946705
11
42.905253
21
26.873590
0
LINE
8
Layer 1
10
42.905253
20
26.873590
11
38.407942
21
25.412150
0
LINE
8
Layer 1
10
38.407942
20
25.412150
11
36.212732
21
28.433151
0
LINE
8
Layer 1
10
36.212732
20
28.433151
11
38.407942
21
31.453636
0
LINE
8
Layer 1
10
38.407942
20
31.453636
11
43.151397
21
29.920306
0
LINE
8
Layer 1
10
43.151397
20
29.920306
11
43.785386
21
29.848567
0
LINE
8
Layer 1
10
43.785386
20
29.848567
11
44.193082
21
30.056360
0
LINE
8
Layer 1
10
44.193082
20
30.056360
11
44.785271
21
30.418542
0
LINE
8
Layer 1
10
44.785271
20
30.418542
11
45.344015
21
31.226727
0
LINE
8
Layer 1
10
45.344015
20
31.226727
11
48.078142
21
34.989849
0
LINE
8
Layer 1
10
48.078142
20
34.989849
11
52.236021
21
36.340669
0
LINE
8
Layer 1
10
52.236021
20
36.340669
11
55.108712
21
32.386910
0
LINE
8
Layer 1
10
55.108712
20
32.386910
11
55.108712
21
32.386913
0
LINE
8
Layer 1
10
180.637325
20
117.387818
11
167.341514
21
113.068191
0
LINE
8
Layer 1
10
167.341514
20
113.068191
11
166.790266
21
112.732319
0
LINE
8
Layer 1
10
166.790266
20
112.732319
11
166.518065
21
112.399958
0
LINE
8
Layer 1
10
166.518065
20
112.399958
11
159.086212
21
102.170679
0
LINE
8
Layer 1
10
159.086212
20
102.170679
11
147.044587
21
106.083097
0
LINE
8
Layer 1
10
147.044587
20
106.083097
11
146.841446
21
106.179443
0
LINE
8
Layer 1
10
146.841446
20
106.179443
11
146.580437
21
106.172325
0
LINE
8
Layer 1
10
146.580437
20
106.172325
11
146.139732
21
106.144075
0
LINE
8
Layer 1
10
146.139732
20
106.144075
11
145.350293
21
105.922535
0
LINE
8
Layer 1
10
145.350293
20
105.922535
11
132.637215
21
101.791891
0
LINE
8
Layer 1
10
132.637215
20
101.791891
11
132.433123
21
101.702601
0
LINE
8
Layer 1
10
132.433123
20
101.702601
11
132.261441
21
101.541855
0
LINE
8
Layer 1
10
132.261441
20
101.541855
11
132.037902
21
101.395098
0
LINE
8
Layer 1
10
132.037902
20
101.395098
11
131.899793
21
101.180559
0
LINE
8
Layer 1
10
131.899793
20
101.180559
11
131.753397
21
100.993409
0
LINE
8
Layer 1
10
131.753397
20
100.993409
11
131.699895
21
100.769810
0
LINE
8
Layer 1
10
131.699895
20
100.769810
11
131.609373
21
100.198813
0
LINE
8
Layer 1
10
131.609373
20
100.198813
11
131.609373
21
92.849296
0
LINE
8
Layer 1
10
131.609373
20
92.849296
11
124.450128
21
90.522309
0
LINE
8
Layer 1
10
124.450128
20
90.522309
11
123.762397
21
90.046375
0
LINE
8
Layer 1
10
123.762397
20
90.046375
11
123.422286
21
89.077747
0
LINE
8
Layer 1
10
123.422286
20
89.077747
11
123.422286
21
75.033869
0
LINE
8
Layer 1
10
123.422286
20
75.033869
11
123.474523
21
74.608219
0
LINE
8
Layer 1
10
123.474523
20
74.608219
11
123.662038
21
74.233389
0
LINE
8
Layer 1
10
123.662038
20
74.233389
11
124.441021
21
73.188310
0
LINE
8
Layer 1
10
124.441021
20
73.188310
11
131.235234
21
63.837151
0
LINE
8
Layer 1
10
131.235234
20
63.837151
11
123.682734
21
53.442449
0
LINE
8
Layer 1
10
123.682734
20
53.442449
11
123.562779
21
53.249172
0
LINE
8
Layer 1
10
123.562779
20
53.249172
11
123.512808
21
53.033248
0
LINE
8
Layer 1
10
123.512808
20
53.033248
11
123.422286
21
52.568084
0
LINE
8
Layer 1
10
123.422286
20
52.568084
11
123.422286
21
38.566373
0
LINE
8
Layer 1
10
123.422286
20
38.566373
11
123.662155
21
37.764491
0
LINE
8
Layer 1
10
123.662155
20
37.764491
11
124.479256
21
37.141803
0
LINE
8
Layer 1
10
124.479256
20
37.141803
11
131.609889
21
34.825003
0
LINE
8
Layer 1
10
131.609889
20
34.825003
11
131.609889
21
27.296791
0
LINE
8
Layer 1
10
131.609889
20
27.296791
11
131.849795
21
26.494956
0
LINE
8
Layer 1
10
131.849795
20
26.494956
11
132.666859
21
25.872739
0
LINE
8
Layer 1
10
132.666859
20
25.872739
11
146.001757
21
21.539526
0
LINE
8
Layer 1
10
146.001757
20
21.539526
11
146.645765
21
21.486995
0
LINE
8
Layer 1
10
146.645765
20
21.486995
11
147.060848
21
21.595908
0
LINE
8
Layer 1
10
147.060848
20
21.595908
11
159.086212
21
25.503103
0
LINE
8
Layer 1
10
159.086212
20
25.503103
11
166.625277
21
15.126489
0
LINE
8
Layer 1
10
166.625277
20
15.126489
11
167.114801
21
14.705998
0
LINE
8
Layer 1
10
167.114801
20
14.705998
11
167.515387
21
14.549724
0
LINE
8
Layer 1
10
167.515387
20
14.549724
11
180.706056
21
10.263744
0
LINE
8
Layer 1
10
180.706056
20
10.263744
11
181.369580
21
10.191397
0
LINE
8
Layer 1
10
181.369580
20
10.191397
11
181.773760
21
10.398518
0
LINE
8
Layer 1
10
181.773760
20
10.398518
11
182.368759
21
10.763507
0
LINE
8
Layer 1
10
182.368759
20
10.763507
11
182.940169
21
11.590427
0
LINE
8
Layer 1
10
182.940169
20
11.590427
11
186.794048
21
16.894337
0
LINE
8
Layer 1
10
186.794048
20
16.894337
11
193.953290
21
14.568386
0
LINE
8
Layer 1
10
193.953290
20
14.568386
11
194.789714
21
14.548965
0
LINE
8
Layer 1
10
194.789714
20
14.548965
11
195.634374
21
15.133154
0
LINE
8
Layer 1
10
195.634374
20
15.133154
11
203.889623
21
26.495282
0
LINE
8
Layer 1
10
203.889623
20
26.495282
11
204.166123
21
27.285552
0
LINE
8
Layer 1
10
204.166123
20
27.285552
11
204.150063
21
28.533812
0
LINE
8
Layer 1
10
204.150063
20
28.533812
11
204.150063
21
40.145595
0
LINE
8
Layer 1
10
204.150063
20
40.145595
11
216.369971
21
44.115890
0
LINE
8
Layer 1
10
216.369971
20
44.115890
11
217.057152
21
44.591838
0
LINE
8
Layer 1
10
217.057152
20
44.591838
11
217.809837
21
45.654515
0
LINE
8
Layer 1
10
217.809837
20
45.654515
11
225.324452
21
55.997837
0
LINE
8
Layer 1
10
225.324452
20
55.997837
11
225.624087
21
56.879880
0
LINE
8
Layer 1
10
225.624087
20
56.879880
11
225.573675
21
57.073647
0
LINE
8
Layer 1
10
225.573675
20
57.073647
11
225.464927
21
57.273328
0
LINE
8
Layer 1
10
225.464927
20
57.273328
11
225.172701
21
57.955314
0
LINE
8
Layer 1
10
225.172701
20
57.955314
11
220.899405
21
63.837143
0
LINE
8
Layer 1
10
220.899405
20
63.837143
11
225.324452
21
69.927203
0
LINE
8
Layer 1
10
225.324452
20
69.927203
11
225.601532
21
70.716454
0
LINE
8
Layer 1
10
225.601532
20
70.716454
11
225.306318
21
71.700690
0
LINE
8
Layer 1
10
225.306318
20
71.700690
11
217.052101
21
83.062818
0
LINE
8
Layer 1
10
217.052101
20
83.062818
11
216.386947
21
83.568817
0
LINE
8
Layer 1
10
216.386947
20
83.568817
11
215.143214
21
83.956722
0
LINE
8
Layer 1
10
215.143214
20
83.956722
11
204.150063
21
87.528690
0
LINE
8
Layer 1
10
204.150063
20
87.528690
11
204.150063
21
100.355280
0
LINE
8
Layer 1
10
204.150063
20
100.355280
11
204.000944
21
100.982662
0
LINE
8
Layer 1
10
204.000944
20
100.982662
11
203.768963
21
101.344939
0
LINE
8
Layer 1
10
203.768963
20
101.344939
11
195.616742
21
112.565889
0
LINE
8
Layer 1
10
195.616742
20
112.565889
11
194.893790
21
113.149315
0
LINE
8
Layer 1
10
194.893790
20
113.149315
11
193.974986
21
113.113141
0
LINE
8
Layer 1
10
193.974986
20
113.113141
11
186.794037
21
110.779437
0
LINE
8
Layer 1
10
186.794037
20
110.779437
11
182.368989
21
116.870014
0
LINE
8
Layer 1
10
182.368989
20
116.870014
11
181.703836
21
117.376521
0
LINE
8
Layer 1
10
181.703836
20
117.376521
11
180.677434
21
117.400889
0
LINE
8
Layer 1
10
180.677434
20
117.400889
11
180.652272
21
117.392687
0
LINE
8
Layer 1
10
180.652272
20
117.392687
11
180.637325
21
117.387818
0
LINE
8
Layer 1
10
183.619052
20
109.747984
11
181.127733
21
108.938733
0
LINE
8
Layer 1
10
181.127733
20
108.938733
11
173.017129
21
111.573710
0
LINE
8
Layer 1
10
173.017129
20
111.573710
11
180.521054
21
114.011803
0
LINE
8
Layer 1
10
180.521054
20
114.011803
11
183.619052
21
109.747984
0
LINE
8
Layer 1
10
183.619052
20
109.747984
11
183.619052
21
109.747984
0
LINE
8
Layer 1
10
198.406762
20
103.324094
11
190.295640
21
105.959074
0
LINE
8
Layer 1
10
190.295640
20
105.959074
11
188.756200
21
108.078839
0
LINE
8
Layer 1
10
188.756200
20
108.078839
11
193.768807
21
109.707159
0
LINE
8
Layer 1
10
193.768807
20
109.707159
11
198.406762
21
103.324094
0
LINE
8
Layer 1
10
198.406762
20
103.324094
11
198.406762
21
103.324094
0
LINE
8
Layer 1
10
179.540235
20
106.115654
11
179.540235
21
95.524582
0
LINE
8
Layer 1
10
179.540235
20
95.524582
11
169.467478
21
98.797762
0
LINE
8
Layer 1
10
169.467478
20
98.797762
11
169.467478
21
109.388834
0
LINE
8
Layer 1
10
169.467478
20
109.388834
11
179.540235
21
106.115654
0
LINE
8
Layer 1
10
179.540235
20
106.115654
11
179.540235
21
106.115654
0
LINE
8
Layer 1
10
187.353186
20
104.608769
11
182.715231
21
98.225188
0
LINE
8
Layer 1
10
182.715231
20
98.225188
11
182.715231
21
106.115654
0
LINE
8
Layer 1
10
182.715231
20
106.115654
11
185.581204
21
107.046862
0
LINE
8
Layer 1
10
185.581204
20
107.046862
11
187.353186
21
104.608769
0
LINE
8
Layer 1
10
187.353186
20
104.608769
11
187.353186
21
104.608769
0
LINE
8
Layer 1
10
166.292482
20
98.159558
11
162.213668
21
92.545957
0
LINE
8
Layer 1
10
162.213668
20
92.545957
11
155.613044
21
94.690008
0
LINE
8
Layer 1
10
155.613044
20
94.690008
11
150.600437
21
101.589319
0
LINE
8
Layer 1
10
150.600437
20
101.589319
11
159.270698
21
98.772441
0
LINE
8
Layer 1
10
159.270698
20
98.772441
11
160.107119
21
98.753021
0
LINE
8
Layer 1
10
160.107119
20
98.753021
11
160.951779
21
99.337209
0
LINE
8
Layer 1
10
160.951779
20
99.337209
11
166.292482
21
106.688220
0
LINE
8
Layer 1
10
166.292482
20
106.688220
11
166.292482
21
98.159551
0
LINE
8
Layer 1
10
166.292482
20
98.159551
11
166.292482
21
98.159558
0
LINE
8
Layer 1
10
199.993742
20
99.470072
11
193.768807
21
90.901613
0
LINE
8
Layer 1
10
193.768807
20
90.901613
11
183.696050
21
94.174277
0
LINE
8
Layer 1
10
183.696050
20
94.174277
11
189.921501
21
102.742737
0
LINE
8
Layer 1
10
189.921501
20
102.742737
11
199.993742
21
99.470072
0
LINE
8
Layer 1
10
199.993742
20
99.470072
11
199.993742
21
99.470072
0
LINE
8
Layer 1
10
152.670593
20
93.339706
11
146.444624
21
84.771246
0
LINE
8
Layer 1
10
146.444624
20
84.771246
11
140.219171
21
93.339706
0
LINE
8
Layer 1
10
140.219171
20
93.339706
11
146.444624
21
101.908162
0
LINE
8
Layer 1
10
146.444624
20
101.908162
11
152.670593
21
93.339706
0
LINE
8
Layer 1
10
152.670593
20
93.339706
11
152.670593
21
93.339706
0
LINE
8
Layer 1
10
137.276720
20
94.690008
11
134.784885
21
93.880241
0
LINE
8
Layer 1
10
134.784885
20
93.880241
11
134.784885
21
99.151229
0
LINE
8
Layer 1
10
134.784885
20
99.151229
11
142.289327
21
101.589319
0
LINE
8
Layer 1
10
142.289327
20
101.589319
11
137.276720
21
94.690008
0
LINE
8
Layer 1
10
137.276720
20
94.690008
11
137.276720
21
94.690008
0
LINE
8
Layer 1
10
175.990071
20
93.339706
11
167.879980
21
90.704726
0
LINE
8
Layer 1
10
167.879980
20
90.704726
11
165.388664
21
91.513980
0
LINE
8
Layer 1
10
165.388664
20
91.513980
11
168.486145
21
95.777796
0
LINE
8
Layer 1
10
168.486145
20
95.777796
11
175.990071
21
93.339706
0
LINE
8
Layer 1
10
175.990071
20
93.339706
11
175.990071
21
93.339706
0
LINE
8
Layer 1
10
200.975077
20
86.375280
11
201.195218
21
85.517971
0
LINE
8
Layer 1
10
201.195218
20
85.517971
11
202.031557
21
84.878450
0
LINE
8
Layer 1
10
202.031557
20
84.878450
11
210.672663
21
82.070639
0
LINE
8
Layer 1
10
210.672663
20
82.070639
11
202.562575
21
79.435663
0
LINE
8
Layer 1
10
202.562575
20
79.435663
11
195.962468
21
81.580229
0
LINE
8
Layer 1
10
195.962468
20
81.580229
11
195.962468
21
88.519850
0
LINE
8
Layer 1
10
195.962468
20
88.519850
11
200.975077
21
95.419161
0
LINE
8
Layer 1
10
200.975077
20
95.419161
11
200.975077
21
86.375280
0
LINE
8
Layer 1
10
200.975077
20
86.375280
11
200.975077
21
86.375280
0
LINE
8
Layer 1
10
142.288811
20
85.090606
11
134.784885
21
87.528698
0
LINE
8
Layer 1
10
134.784885
20
87.528698
11
134.784885
21
90.542463
0
LINE
8
Layer 1
10
134.784885
20
90.542463
11
137.650856
21
91.473670
0
LINE
8
Layer 1
10
137.650856
20
91.473670
11
142.288811
21
85.090606
0
LINE
8
Layer 1
10
142.288811
20
85.090606
11
142.288811
21
85.090606
0
LINE
8
Layer 1
10
160.250999
20
89.845350
11
158.711560
21
87.725585
0
LINE
8
Layer 1
10
158.711560
20
87.725585
11
150.600437
21
85.090606
0
LINE
8
Layer 1
10
150.600437
20
85.090606
11
155.238392
21
91.473670
0
LINE
8
Layer 1
10
155.238392
20
91.473670
11
160.250999
21
89.845350
0
LINE
8
Layer 1
10
160.250999
20
89.845350
11
160.250999
21
89.845350
0
LINE
8
Layer 1
10
187.353186
20
82.070639
11
180.521054
21
72.668124
0
LINE
8
Layer 1
10
180.521054
20
72.668124
11
169.467478
21
76.259632
0
LINE
8
Layer 1
10
169.467478
20
76.259632
11
169.467478
21
87.882163
0
LINE
8
Layer 1
10
169.467478
20
87.882163
11
180.521054
21
91.473670
0
LINE
8
Layer 1
10
180.521054
20
91.473670
11
187.353186
21
82.070639
0
LINE
8
Layer 1
10
187.353186
20
82.070639
11
187.353186
21
82.070639
0
LINE
8
Layer 1
10
192.787472
20
87.882163
11
192.787472
21
82.611174
0
LINE
8
Layer 1
10
192.787472
20
82.611174
11
190.295640
21
83.420944
0
LINE
8
Layer 1
10
190.295640
20
83.420944
11
185.283030
21
90.320255
0
LINE
8
Layer 1
10
185.283030
20
90.320255
11
192.787472
21
87.882163
0
LINE
8
Layer 1
10
192.787472
20
87.882163
11
192.787472
21
87.882163
0
LINE
8
Layer 1
10
131.609889
20
86.890495
11
126.597282
21
79.991700
0
LINE
8
Layer 1
10
126.597282
20
79.991700
11
126.597282
21
87.882163
0
LINE
8
Layer 1
10
126.597282
20
87.882163
11
131.609889
21
89.511002
0
LINE
8
Layer 1
10
131.609889
20
89.511002
11
131.609889
21
86.890495
0
LINE
8
Layer 1
10
131.609889
20
86.890495
11
131.609889
21
86.890495
0
LINE
8
Layer 1
10
166.292482
20
87.882163
11
166.292482
21
79.991700
0
LINE
8
Layer 1
10
166.292482
20
79.991700
11
161.654011
21
86.375280
0
LINE
8
Layer 1
10
161.654011
20
86.375280
11
163.425995
21
88.813373
0
LINE
8
Layer 1
10
163.425995
20
88.813373
11
166.292482
21
87.882163
0
LINE
8
Layer 1
10
166.292482
20
87.882163
11
166.292482
21
87.882163
0
LINE
8
Layer 1
10
143.876309
20
81.236065
11
137.650856
21
72.668124
0
LINE
8
Layer 1
10
137.650856
20
72.668124
11
127.578615
21
75.940272
0
LINE
8
Layer 1
10
127.578615
20
75.940272
11
133.803550
21
84.508729
0
LINE
8
Layer 1
10
133.803550
20
84.508729
11
143.876309
21
81.236065
0
LINE
8
Layer 1
10
143.876309
20
81.236065
11
143.876309
21
81.236065
0
LINE
8
Layer 1
10
165.917830
20
75.106214
11
159.086212
21
65.703183
0
LINE
8
Layer 1
10
159.086212
20
65.703183
11
148.032122
21
69.294691
0
LINE
8
Layer 1
10
148.032122
20
69.294691
11
148.032122
21
80.917221
0
LINE
8
Layer 1
10
148.032122
20
80.917221
11
159.086212
21
84.508729
0
LINE
8
Layer 1
10
159.086212
20
84.508729
11
165.917830
21
75.106214
0
LINE
8
Layer 1
10
165.917830
20
75.106214
11
165.917830
21
75.106214
0
LINE
8
Layer 1
10
192.787472
20
79.273396
11
192.787472
21
76.259632
0
LINE
8
Layer 1
10
192.787472
20
76.259632
11
185.283548
21
73.821542
0
LINE
8
Layer 1
10
185.283548
20
73.821542
11
189.921501
21
80.204607
0
LINE
8
Layer 1
10
189.921501
20
80.204607
11
192.787472
21
79.273396
0
LINE
8
Layer 1
10
192.787472
20
79.273396
11
192.787472
21
79.273396
0
LINE
8
Layer 1
10
214.222830
20
69.294691
11
204.150073
21
66.021511
0
LINE
8
Layer 1
10
204.150073
20
66.021511
11
204.150073
21
76.613099
0
LINE
8
Layer 1
10
204.150073
20
76.613099
11
214.222830
21
79.885763
0
LINE
8
Layer 1
10
214.222830
20
79.885763
11
214.222830
21
69.294691
0
LINE
8
Layer 1
10
214.222830
20
69.294691
11
214.222830
21
69.294691
0
LINE
8
Layer 1
10
200.975077
20
76.613099
11
200.975077
21
68.722633
0
LINE
8
Layer 1
10
200.975077
20
68.722633
11
195.962468
21
75.621429
0
LINE
8
Layer 1
10
195.962468
20
75.621429
11
195.962468
21
78.241938
0
LINE
8
Layer 1
10
195.962468
20
78.241938
11
200.975077
21
76.613099
0
LINE
8
Layer 1
10
200.975077
20
76.613099
11
200.975077
21
76.613099
0
LINE
8
Layer 1
10
144.857126
20
68.658038
11
143.317171
21
66.537757
0
LINE
8
Layer 1
10
143.317171
20
66.537757
11
140.219171
21
70.801573
0
LINE
8
Layer 1
10
140.219171
20
70.801573
11
144.857126
21
77.185157
0
LINE
8
Layer 1
10
144.857126
20
77.185157
11
144.857126
21
68.658038
0
LINE
8
Layer 1
10
144.857126
20
68.658038
11
144.857126
21
68.658038
0
LINE
8
Layer 1
10
222.035781
20
70.801573
11
218.937781
21
66.537757
0
LINE
8
Layer 1
10
218.937781
20
66.537757
11
217.397826
21
68.657004
0
LINE
8
Layer 1
10
217.397826
20
68.657004
11
217.397826
21
77.185157
0
LINE
8
Layer 1
10
217.397826
20
77.185157
11
222.035781
21
70.801573
0
LINE
8
Layer 1
10
222.035781
20
70.801573
11
222.035781
21
70.801573
0
LINE
8
Layer 1
10
179.540235
20
69.648158
11
179.540235
21
58.025625
0
LINE
8
Layer 1
10
179.540235
20
58.025625
11
168.486145
21
54.434119
0
LINE
8
Layer 1
10
168.486145
20
54.434119
11
161.654011
21
63.837151
0
LINE
8
Layer 1
10
161.654011
20
63.837151
11
168.486145
21
73.239666
0
LINE
8
Layer 1
10
168.486145
20
73.239666
11
179.540235
21
69.648158
0
LINE
8
Layer 1
10
179.540235
20
69.648158
11
179.540235
21
69.648158
0
LINE
8
Layer 1
10
200.600938
20
63.837151
11
193.768807
21
54.434119
0
LINE
8
Layer 1
10
193.768807
20
54.434119
11
182.715231
21
58.025625
0
LINE
8
Layer 1
10
182.715231
20
58.025625
11
182.715231
21
69.648158
0
LINE
8
Layer 1
10
182.715231
20
69.648158
11
193.768807
21
73.239666
0
LINE
8
Layer 1
10
193.768807
20
73.239666
11
200.600938
21
63.837151
0
LINE
8
Layer 1
10
200.600938
20
63.837151
11
200.600938
21
63.837151
0
LINE
8
Layer 1
10
137.276720
20
69.451271
11
141.355534
21
63.837151
0
LINE
8
Layer 1
10
141.355534
20
63.837151
11
137.276720
21
58.222511
0
LINE
8
Layer 1
10
137.276720
20
58.222511
11
129.165597
21
55.587019
0
LINE
8
Layer 1
10
129.165597
20
55.587019
11
134.523919
21
62.962786
0
LINE
8
Layer 1
10
134.523919
20
62.962786
11
134.823099
21
63.846030
0
LINE
8
Layer 1
10
134.823099
20
63.846030
11
134.765772
21
64.050205
0
LINE
8
Layer 1
10
134.765772
20
64.050205
11
134.657232
21
64.263748
0
LINE
8
Layer 1
10
134.657232
20
64.263748
11
134.372173
21
64.919750
0
LINE
8
Layer 1
10
134.372173
20
64.919750
11
129.165597
21
72.086764
0
LINE
8
Layer 1
10
129.165597
20
72.086764
11
137.276720
21
69.451271
0
LINE
8
Layer 1
10
137.276720
20
69.451271
11
137.276720
21
69.451271
0
LINE
8
Layer 1
10
154.555228
20
63.837151
11
147.051305
21
61.399058
0
LINE
8
Layer 1
10
147.051305
20
61.399058
11
145.279321
21
63.837151
0
LINE
8
Layer 1
10
145.279321
20
63.837151
11
147.051305
21
66.275241
0
LINE
8
Layer 1
10
147.051305
20
66.275241
11
154.555228
21
63.837151
0
LINE
8
Layer 1
10
154.555228
20
63.837151
11
154.555228
21
63.837151
0
LINE
8
Layer 1
10
216.975631
20
63.837151
11
215.204163
21
61.399058
0
LINE
8
Layer 1
10
215.204163
20
61.399058
11
207.699721
21
63.837151
0
LINE
8
Layer 1
10
207.699721
20
63.837151
11
215.204163
21
66.275241
0
LINE
8
Layer 1
10
215.204163
20
66.275241
11
216.975631
21
63.837151
0
LINE
8
Layer 1
10
216.975631
20
63.837151
11
216.975631
21
63.837151
0
LINE
8
Layer 1
10
165.917830
20
52.568084
11
159.086212
21
43.165053
0
LINE
8
Layer 1
10
159.086212
20
43.165053
11
148.032122
21
46.756561
0
LINE
8
Layer 1
10
148.032122
20
46.756561
11
148.032122
21
58.379092
0
LINE
8
Layer 1
10
148.032122
20
58.379092
11
159.086212
21
61.970600
0
LINE
8
Layer 1
10
159.086212
20
61.970600
11
165.917830
21
52.568084
0
LINE
8
Layer 1
10
165.917830
20
52.568084
11
165.917830
21
52.568084
0
LINE
8
Layer 1
10
214.222830
20
58.379092
11
214.222830
21
47.788019
0
LINE
8
Layer 1
10
214.222830
20
47.788019
11
204.150073
21
51.061202
0
LINE
8
Layer 1
10
204.150073
20
51.061202
11
204.150073
21
61.652272
0
LINE
8
Layer 1
10
204.150073
20
61.652272
11
214.222830
21
58.379092
0
LINE
8
Layer 1
10
214.222830
20
58.379092
11
214.222830
21
58.379092
0
LINE
8
Layer 1
10
144.857126
20
59.017295
11
144.857126
21
50.488629
0
LINE
8
Layer 1
10
144.857126
20
50.488629
11
140.219171
21
56.872209
0
LINE
8
Layer 1
10
140.219171
20
56.872209
11
143.317687
21
61.136025
0
LINE
8
Layer 1
10
143.317687
20
61.136025
11
144.857126
21
59.017295
0
LINE
8
Layer 1
10
144.857126
20
59.017295
11
144.857126
21
59.017295
0
LINE
8
Layer 1
10
222.035781
20
56.872209
11
217.397826
21
50.488629
0
LINE
8
Layer 1
10
217.397826
20
50.488629
11
217.397826
21
59.017295
0
LINE
8
Layer 1
10
217.397826
20
59.017295
11
218.937781
21
61.136025
0
LINE
8
Layer 1
10
218.937781
20
61.136025
11
222.035781
21
56.872209
0
LINE
8
Layer 1
10
222.035781
20
56.872209
11
222.035781
21
56.872209
0
LINE
8
Layer 1
10
200.975077
20
51.061202
11
195.962468
21
49.431844
0
LINE
8
Layer 1
10
195.962468
20
49.431844
11
195.962468
21
52.052354
0
LINE
8
Layer 1
10
195.962468
20
52.052354
11
200.975077
21
58.951149
0
LINE
8
Layer 1
10
200.975077
20
58.951149
11
200.975077
21
51.061202
0
LINE
8
Layer 1
10
200.975077
20
51.061202
11
200.975077
21
51.061202
0
LINE
8
Layer 1
10
143.876309
20
46.437717
11
133.803550
21
43.165053
0
LINE
8
Layer 1
10
133.803550
20
43.165053
11
127.578615
21
51.733510
0
LINE
8
Layer 1
10
127.578615
20
51.733510
11
137.650856
21
55.006174
0
LINE
8
Layer 1
10
137.650856
20
55.006174
11
143.876309
21
46.437717
0
LINE
8
Layer 1
10
143.876309
20
46.437717
11
143.876309
21
46.437717
0
LINE
8
Layer 1
10
187.353186
20
45.603143
11
180.521054
21
36.200628
0
LINE
8
Layer 1
10
180.521054
20
36.200628
11
169.467478
21
39.791620
0
LINE
8
Layer 1
10
169.467478
20
39.791620
11
169.467478
21
51.414669
0
LINE
8
Layer 1
10
169.467478
20
51.414669
11
180.521054
21
55.006174
0
LINE
8
Layer 1
10
180.521054
20
55.006174
11
187.353186
21
45.603143
0
LINE
8
Layer 1
10
187.353186
20
45.603143
11
187.353186
21
45.603143
0
LINE
8
Layer 1
10
192.787472
20
51.414669
11
192.787472
21
48.400902
0
LINE
8
Layer 1
10
192.787472
20
48.400902
11
189.921501
21
47.469694
0
LINE
8
Layer 1
10
189.921501
20
47.469694
11
185.283548
21
53.852759
0
LINE
8
Layer 1
10
185.283548
20
53.852759
11
192.787472
21
51.414669
0
LINE
8
Layer 1
10
192.787472
20
51.414669
11
192.787472
21
51.414669
0
LINE
8
Layer 1
10
210.672663
20
45.603143
11
201.957461
21
42.770822
0
LINE
8
Layer 1
10
201.957461
20
42.770822
11
201.741783
21
42.645419
0
LINE
8
Layer 1
10
201.741783
20
42.645419
11
201.537364
21
42.476233
0
LINE
8
Layer 1
10
201.537364
20
42.476233
11
201.255265
21
42.148060
0
LINE
8
Layer 1
10
201.255265
20
42.148060
11
201.107418
21
41.972798
0
LINE
8
Layer 1
10
201.107418
20
41.972798
11
201.064993
21
41.753254
0
LINE
8
Layer 1
10
201.064993
20
41.753254
11
200.975077
21
41.192669
0
LINE
8
Layer 1
10
200.975077
20
41.192669
11
200.975077
21
32.255137
0
LINE
8
Layer 1
10
200.975077
20
32.255137
11
195.962468
21
39.153933
0
LINE
8
Layer 1
10
195.962468
20
39.153933
11
195.962468
21
46.094069
0
LINE
8
Layer 1
10
195.962468
20
46.094069
11
202.562575
21
48.238123
0
LINE
8
Layer 1
10
202.562575
20
48.238123
11
210.672663
21
45.603143
0
LINE
8
Layer 1
10
210.672663
20
45.603143
11
210.672663
21
45.603143
0
LINE
8
Layer 1
10
131.609889
20
40.783288
11
131.609889
21
38.162781
0
LINE
8
Layer 1
10
131.609889
20
38.162781
11
126.597282
21
39.791620
0
LINE
8
Layer 1
10
126.597282
20
39.791620
11
126.597282
21
47.682083
0
LINE
8
Layer 1
10
126.597282
20
47.682083
11
131.609889
21
40.783288
0
LINE
8
Layer 1
10
131.609889
20
40.783288
11
131.609889
21
40.783288
0
LINE
8
Layer 1
10
166.292482
20
39.791620
11
163.425995
21
38.860412
0
LINE
8
Layer 1
10
163.425995
20
38.860412
11
161.654011
21
41.298502
0
LINE
8
Layer 1
10
161.654011
20
41.298502
11
166.292482
21
47.682083
0
LINE
8
Layer 1
10
166.292482
20
47.682083
11
166.292482
21
39.791620
0
LINE
8
Layer 1
10
166.292482
20
39.791620
11
166.292482
21
39.791620
0
LINE
8
Layer 1
10
192.787472
20
39.791620
11
185.283030
21
37.353527
0
LINE
8
Layer 1
10
185.283030
20
37.353527
11
190.295640
21
44.252841
0
LINE
8
Layer 1
10
190.295640
20
44.252841
11
192.787472
21
45.062608
0
LINE
8
Layer 1
10
192.787472
20
45.062608
11
192.787472
21
39.791620
0
LINE
8
Layer 1
10
192.787472
20
39.791620
11
192.787472
21
39.791620
0
LINE
8
Layer 1
10
152.670593
20
34.334077
11
146.444624
21
25.765620
0
LINE
8
Layer 1
10
146.444624
20
25.765620
11
140.219171
21
34.334077
0
LINE
8
Layer 1
10
140.219171
20
34.334077
11
146.444624
21
42.902537
0
LINE
8
Layer 1
10
146.444624
20
42.902537
11
152.670593
21
34.334077
0
LINE
8
Layer 1
10
152.670593
20
34.334077
11
152.670593
21
34.334077
0
LINE
8
Layer 1
10
137.650856
20
36.200628
11
134.784885
21
37.131836
0
LINE
8
Layer 1
10
134.784885
20
37.131836
11
134.784885
21
40.145603
0
LINE
8
Layer 1
10
134.784885
20
40.145603
11
142.288811
21
42.583693
0
LINE
8
Layer 1
10
142.288811
20
42.583693
11
137.650856
21
36.200628
0
LINE
8
Layer 1
10
137.650856
20
36.200628
11
137.650856
21
36.200628
0
LINE
8
Layer 1
10
158.711560
20
39.948200
11
160.250999
21
37.828951
0
LINE
8
Layer 1
10
160.250999
20
37.828951
11
155.238392
21
36.200628
0
LINE
8
Layer 1
10
155.238392
20
36.200628
11
150.600437
21
42.583177
0
LINE
8
Layer 1
10
150.600437
20
42.583177
11
158.711560
21
39.948200
0
LINE
8
Layer 1
10
158.711560
20
39.948200
11
158.711560
21
39.948200
0
LINE
8
Layer 1
10
175.990071
20
34.334077
11
168.486145
21
31.895987
0
LINE
8
Layer 1
10
168.486145
20
31.895987
11
165.388664
21
36.159806
0
LINE
8
Layer 1
10
165.388664
20
36.159806
11
167.879980
21
36.969056
0
LINE
8
Layer 1
10
167.879980
20
36.969056
11
175.990071
21
34.334077
0
LINE
8
Layer 1
10
175.990071
20
34.334077
11
175.990071
21
34.334077
0
LINE
8
Layer 1
10
199.993742
20
28.203710
11
189.921501
21
24.931046
0
LINE
8
Layer 1
10
189.921501
20
24.931046
11
183.696050
21
33.499506
0
LINE
8
Layer 1
10
183.696050
20
33.499506
11
193.768807
21
36.772170
0
LINE
8
Layer 1
10
193.768807
20
36.772170
11
199.993742
21
28.203710
0
LINE
8
Layer 1
10
199.993742
20
28.203710
11
199.993742
21
28.203710
0
LINE
8
Layer 1
10
166.292482
20
29.514224
11
166.292482
21
20.985555
0
LINE
8
Layer 1
10
166.292482
20
20.985555
11
160.934160
21
28.361325
0
LINE
8
Layer 1
10
160.934160
20
28.361325
11
160.268488
21
28.867829
0
LINE
8
Layer 1
10
160.268488
20
28.867829
11
159.242086
21
28.892197
0
LINE
8
Layer 1
10
159.242086
20
28.892197
11
150.600437
21
26.084472
0
LINE
8
Layer 1
10
150.600437
20
26.084472
11
155.613044
21
32.983783
0
LINE
8
Layer 1
10
155.613044
20
32.983783
11
162.213668
21
35.127834
0
LINE
8
Layer 1
10
162.213668
20
35.127834
11
166.292482
21
29.514232
0
LINE
8
Layer 1
10
166.292482
20
29.514232
11
166.292482
21
29.514224
0
LINE
8
Layer 1
10
137.276720
20
32.983775
11
142.289327
21
26.084464
0
LINE
8
Layer 1
10
142.289327
20
26.084464
11
134.784885
21
28.522554
0
LINE
8
Layer 1
10
134.784885
20
28.522554
11
134.784885
21
33.793545
0
LINE
8
Layer 1
10
134.784885
20
33.793545
11
137.276720
21
32.983775
0
LINE
8
Layer 1
10
137.276720
20
32.983775
11
137.276720
21
32.983775
0
LINE
8
Layer 1
10
179.540235
20
21.558131
11
169.467478
21
18.284949
0
LINE
8
Layer 1
10
169.467478
20
18.284949
11
169.467478
21
28.876021
0
LINE
8
Layer 1
10
169.467478
20
28.876021
11
179.540235
21
32.149201
0
LINE
8
Layer 1
10
179.540235
20
32.149201
11
179.540235
21
21.558131
0
LINE
8
Layer 1
10
179.540235
20
21.558131
11
179.540235
21
21.558131
0
LINE
8
Layer 1
10
187.353186
20
23.065013
11
185.581204
21
20.626921
0
LINE
8
Layer 1
10
185.581204
20
20.626921
11
182.715231
21
21.558131
0
LINE
8
Layer 1
10
182.715231
20
21.558131
11
182.715231
21
29.448594
0
LINE
8
Layer 1
10
182.715231
20
29.448594
11
187.353186
21
23.065013
0
LINE
8
Layer 1
10
187.353186
20
23.065013
11
187.353186
21
23.065013
0
LINE
8
Layer 1
10
193.768807
20
17.966623
11
188.756200
21
19.594944
0
LINE
8
Layer 1
10
188.756200
20
19.594944
11
190.295640
21
21.714709
0
LINE
8
Layer 1
10
190.295640
20
21.714709
11
198.406762
21
24.349688
0
LINE
8
Layer 1
10
198.406762
20
24.349688
11
193.768807
21
17.966623
0
LINE
8
Layer 1
10
193.768807
20
17.966623
11
193.768807
21
17.966623
0
LINE
8
Layer 1
10
183.619052
20
17.926314
11
180.521054
21
13.661982
0
LINE
8
Layer 1
10
180.521054
20
13.661982
11
173.017129
21
16.100072
0
LINE
8
Layer 1
10
173.017129
20
16.100072
11
181.127733
21
18.735568
0
LINE
8
Layer 1
10
181.127733
20
18.735568
11
183.619052
21
17.926314
0
LINE
8
Layer 1
10
183.619052
20
17.926314
11
183.619052
21
17.926314
 0 
ENDSEC
 0 
EOF