  0
SECTION
  2
HEADER
  9
$ACADVER
  1
AC1014
  9
$HANDSEED
  5
FFFF
  9
$INSUNITS
 70
     4
  9
$MEASUREMENT
 70
     1
  0
ENDSEC
  0
SECTION
  2
TABLES
  0
TABLE
  2
VPORT
  5
8
330
0
100
AcDbSymbolTable
 70
     4
  0
VPORT
  5
2E
330
8
100
AcDbSymbolTableRecord
100
AcDbViewportTableRecord
  2
*ACTIVE
 70
     0
 10
0.0
 20
0.0
 11
1.0
 21
1.0
 12
210.0
 22
148.5
 13
0.0
 23
0.0
 14
10.0
 24
10.0
 15
10.0
 25
10.0
 16
0.0
 26
0.0
 36
1.0
 17
0.0
 27
0.0
 37
0.0
 40
341.0
 41
1.24
 42
50.0
 43
0.0
 44
0.0
 50
0.0
 51
0.0
 71
     0
 72
   100
 73
     1
 74
     3
 75
     0
 76
     0
 77
     0
 78
     0
  0
ENDTAB
  0
TABLE
  2
LTYPE
  5
5
330
0
100
AcDbSymbolTable
 70
     1
  0
LTYPE
  5
14
330
5
100
AcDbSymbolTableRecord
100
AcDbLinetypeTableRecord
  2
BYBLOCK
 70
     0
  3

 72
    65
 73
     0
 40
0.0
  0
LTYPE
  5
15
330
5
100
AcDbSymbolTableRecord
100
AcDbLinetypeTableRecord
  2
BYLAYER
 70
     0
  3

 72
    65
 73
     0
 40
0.0
  0
LTYPE
  5
16
330
5
100
AcDbSymbolTableRecord
100
AcDbLinetypeTableRecord
  2
CONTINUOUS
 70
     0
  3
Solid line
 72
    65
 73
     0
 40
0.0
  0
ENDTAB
  0
TABLE
  2
LAYER
  5
2
100
AcDbSymbolTable
 70
1
  0
LAYER
  5
50
100
AcDbSymbolTableRecord
100
AcDbLayerTableRecord
  2
0
 70
0
  6
CONTINUOUS
  0
ENDTAB
  0
TABLE
  2
STYLE
  5
3
330
0
100
AcDbSymbolTable
 70
     1
  0
STYLE
  5
11
330
3
100
AcDbSymbolTableRecord
100
AcDbTextStyleTableRecord
  2
STANDARD
 70
     0
 40
0.0
 41
1.0
 50
0.0
 71
     0
 42
2.5
  3
txt
  4

  0
ENDTAB
  0
TABLE
  2
VIEW
  5
6
330
0
100
AcDbSymbolTable
 70
     0
  0
ENDTAB
  0
TABLE
  2
UCS
  5
7
330
0
100
AcDbSymbolTable
 70
     0
  0
ENDTAB
  0
TABLE
  2
APPID
  5
9
330
0
100
AcDbSymbolTable
 70
     2
  0
APPID
  5
12
330
9
100
AcDbSymbolTableRecord
100
AcDbRegAppTableRecord
  2
ACAD
 70
     0
  0
ENDTAB
  0
TABLE
  2
DIMSTYLE
  5
A
330
0
100
AcDbSymbolTable
 70
     1
  0
DIMSTYLE
105
27
330
A
100
AcDbSymbolTableRecord
100
AcDbDimStyleTableRecord
  2
ISO-25
 70
     0
  3

  4

  5

  6

  7

 40
1.0
 41
2.5
 42
0.625
 43
3.75
 44
1.25
 45
0.0
 46
0.0
 47
0.0
 48
0.0
140
2.5
141
2.5
142
0.0
143
0.03937007874016
144
1.0
145
0.0
146
1.0
147
0.625
 71
     0
 72
     0
 73
     0
 74
     0
 75
     0
 76
     0
 77
     1
 78
     8
170
     0
171
     3
172
     1
173
     0
174
     0
175
     0
176
     0
177
     0
178
     0
270
     2
271
     2
272
     2
273
     2
274
     3
340
11
275
     0
280
     0
281
     0
282
     0
283
     0
284
     8
285
     0
286
     0
287
     3
288
     0
  0
ENDTAB
  0
TABLE
  2
BLOCK_RECORD
  5
1
330
0
100
AcDbSymbolTable
 70
     1
  0
BLOCK_RECORD
  5
1F
330
1
100
AcDbSymbolTableRecord
100
AcDbBlockTableRecord
  2
*MODEL_SPACE
  0
BLOCK_RECORD
  5
1B
330
1
100
AcDbSymbolTableRecord
100
AcDbBlockTableRecord
  2
*PAPER_SPACE
  0
ENDTAB
  0
ENDSEC
  0
SECTION
  2
BLOCKS
  0
BLOCK
  5
20
330
1F
100
AcDbEntity
  8
0
100
AcDbBlockBegin
  2
*MODEL_SPACE
 70
     0
 10
0.0
 20
0.0
 30
0.0
  3
*MODEL_SPACE
  1

  0
ENDBLK
  5
21
330
1F
100
AcDbEntity
  8
0
100
AcDbBlockEnd
  0
BLOCK
  5
1C
330
1B
100
AcDbEntity
 67
     1
  8
0
100
AcDbBlockBegin
  2
*PAPER_SPACE
  1

  0
ENDBLK
  5
1D
330
1B
100
AcDbEntity
 67
     1
  8
0
100
AcDbBlockEnd
  0
ENDSEC
  0
SECTION
  2
ENTITIES
  0
LWPOLYLINE
  5
100
100
AcDbEntity
  8
0
 62
7
100
AcDbPolyline
 90
323
 70
1
 10
60.326050
 20
228.871023
 30
0.0
 10
60.745579
 20
228.689601
 30
0.0
 10
61.196585
 20
228.271507
 30
0.0
 10
65.639765
 20
222.155991
 30
0.0
 10
72.828986
 20
224.491912
 30
0.0
 10
73.004418
 20
224.521972
 30
0.0
 10
73.177551
 20
224.563247
 30
0.0
 10
73.228856
 20
224.560426
 30
0.0
 10
73.279497
 20
224.569105
 30
0.0
 10
73.456223
 20
224.547933
 30
0.0
 10
73.633939
 20
224.538167
 30
0.0
 10
73.682312
 20
224.520847
 30
0.0
 10
73.733329
 20
224.514735
 30
0.0
 10
73.896694
 20
224.444089
 30
0.0
 10
74.064265
 20
224.384092
 30
0.0
 10
74.105699
 20
224.353707
 30
0.0
 10
74.152858
 20
224.333313
 30
0.0
 10
74.226116
 20
224.265403
 30
0.0
 10
74.432853
 20
224.113794
 30
0.0
 10
74.535318
 20
223.978761
 30
0.0
 10
74.603864
 20
223.915219
 30
0.0
 10
79.047046
 20
217.799703
 30
0.0
 10
86.236268
 20
220.135622
 30
0.0
 10
86.686779
 20
220.212814
 30
0.0
 10
87.140611
 20
220.158445
 30
0.0
 10
87.560139
 20
219.977023
 30
0.0
 10
88.011146
 20
219.558928
 30
0.0
 10
92.454325
 20
213.443413
 30
0.0
 10
99.643546
 20
215.779334
 30
0.0
 10
100.094058
 20
215.856526
 30
0.0
 10
100.547890
 20
215.802157
 30
0.0
 10
100.967418
 20
215.620735
 30
0.0
 10
101.418424
 20
215.202640
 30
0.0
 10
106.539551
 20
208.154016
 30
0.0
 10
106.752181
 20
207.749410
 30
0.0
 10
106.840716
 20
207.300989
 30
0.0
 10
106.797816
 20
206.845929
 30
0.0
 10
106.539551
 20
206.287799
 30
0.0
 10
104.290238
 20
203.191888
 30
0.0
 10
107.929701
 20
204.374419
 30
0.0
 10
108.105133
 20
204.404479
 30
0.0
 10
108.278266
 20
204.445754
 30
0.0
 10
108.329571
 20
204.442923
 30
0.0
 10
108.380212
 20
204.451601
 30
0.0
 10
108.556938
 20
204.430434
 30
0.0
 10
108.734654
 20
204.420671
 30
0.0
 10
108.783027
 20
204.403341
 30
0.0
 10
108.834044
 20
204.397229
 30
0.0
 10
108.997409
 20
204.326583
 30
0.0
 10
109.164980
 20
204.266586
 30
0.0
 10
109.206414
 20
204.236201
 30
0.0
 10
109.253573
 20
204.215802
 30
0.0
 10
109.326831
 20
204.147891
 30
0.0
 10
109.533568
 20
203.996282
 30
0.0
 10
109.636033
 20
203.861249
 30
0.0
 10
109.704579
 20
203.797707
 30
0.0
 10
114.825706
 20
196.749083
 30
0.0
 10
114.871492
 20
196.661955
 30
0.0
 10
114.930994
 20
196.583543
 30
0.0
 10
114.948615
 20
196.515207
 30
0.0
 10
115.038338
 20
196.344476
 30
0.0
 10
115.126873
 20
195.896055
 30
0.0
 10
115.121899
 20
195.843157
 30
0.0
 10
115.128910
 20
195.815974
 30
0.0
 10
115.101719
 20
195.629062
 30
0.0
 10
115.083992
 20
195.440996
 30
0.0
 10
115.069943
 20
195.410643
 30
0.0
 10
115.063117
 20
195.363658
 30
0.0
 10
114.871169
 20
194.948839
 30
0.0
 10
114.839774
 20
194.913210
 30
0.0
 10
114.825724
 20
194.882865
 30
0.0
 10
110.382542
 20
188.767350
 30
0.0
 10
114.825724
 20
182.651834
 30
0.0
 10
114.871511
 20
182.564707
 30
0.0
 10
114.931013
 20
182.486295
 30
0.0
 10
114.948634
 20
182.417958
 30
0.0
 10
115.038357
 20
182.247228
 30
0.0
 10
115.126892
 20
181.798807
 30
0.0
 10
115.121918
 20
181.745909
 30
0.0
 10
115.128929
 20
181.718725
 30
0.0
 10
115.101738
 20
181.531813
 30
0.0
 10
115.084011
 20
181.343747
 30
0.0
 10
115.069961
 20
181.313394
 30
0.0
 10
115.063135
 20
181.266409
 30
0.0
 10
114.871188
 20
180.851590
 30
0.0
 10
114.839792
 20
180.815962
 30
0.0
 10
114.825743
 20
180.785617
 30
0.0
 10
110.382561
 20
174.670101
 30
0.0
 10
114.825743
 20
168.554585
 30
0.0
 10
114.871529
 20
168.467458
 30
0.0
 10
114.931031
 20
168.389046
 30
0.0
 10
114.948652
 20
168.320709
 30
0.0
 10
115.038375
 20
168.149979
 30
0.0
 10
115.126910
 20
167.701558
 30
0.0
 10
115.121936
 20
167.648660
 30
0.0
 10
115.128948
 20
167.621477
 30
0.0
 10
115.101756
 20
167.434564
 30
0.0
 10
115.084029
 20
167.246498
 30
0.0
 10
115.069980
 20
167.216145
 30
0.0
 10
115.063154
 20
167.169161
 30
0.0
 10
114.871206
 20
166.754342
 30
0.0
 10
114.839811
 20
166.718713
 30
0.0
 10
114.825761
 20
166.688368
 30
0.0
 10
110.382579
 20
160.572852
 30
0.0
 10
114.825761
 20
154.457336
 30
0.0
 10
115.038391
 20
154.052730
 30
0.0
 10
115.126926
 20
153.604309
 30
0.0
 10
115.084027
 20
153.149250
 30
0.0
 10
114.825761
 20
152.591119
 30
0.0
 10
109.704635
 20
145.542495
 30
0.0
 10
109.385537
 20
145.215240
 30
0.0
 10
108.986421
 20
144.992468
 30
0.0
 10
108.540378
 20
144.892649
 30
0.0
 10
107.929757
 20
144.965801
 30
0.0
 10
104.290294
 20
146.148332
 30
0.0
 10
106.539607
 20
143.052422
 30
0.0
 10
106.752237
 20
142.647816
 30
0.0
 10
106.840771
 20
142.199394
 30
0.0
 10
106.797872
 20
141.744335
 30
0.0
 10
106.539607
 20
141.186204
 30
0.0
 10
101.418480
 20
134.137580
 30
0.0
 10
101.099382
 20
133.810325
 30
0.0
 10
100.700266
 20
133.587553
 30
0.0
 10
100.254223
 20
133.487734
 30
0.0
 10
99.643602
 20
133.560886
 30
0.0
 10
92.454381
 20
135.896808
 30
0.0
 10
88.011201
 20
129.781292
 30
0.0
 10
87.879341
 20
129.646061
 30
0.0
 10
87.754452
 20
129.504332
 30
0.0
 10
87.720265
 20
129.482927
 30
0.0
 10
87.692103
 20
129.454045
 30
0.0
 10
87.527170
 20
129.361986
 30
0.0
 10
87.367084
 20
129.261719
 30
0.0
 10
87.328208
 20
129.250924
 30
0.0
 10
87.292990
 20
129.231266
 30
0.0
 10
87.108665
 20
129.190014
 30
0.0
 10
86.926642
 20
129.139516
 30
0.0
 10
86.886314
 20
129.140310
 30
0.0
 10
86.846944
 20
129.131499
 30
0.0
 10
86.753041
 20
129.142744
 30
0.0
 10
86.469643
 20
129.147930
 30
0.0
 10
86.323977
 20
129.194145
 30
0.0
 10
86.236323
 20
129.204649
 30
0.0
 10
79.047102
 20
131.540568
 30
0.0
 10
74.603920
 20
125.425052
 30
0.0
 10
74.472059
 20
125.289821
 30
0.0
 10
74.347171
 20
125.148091
 30
0.0
 10
74.312984
 20
125.126687
 30
0.0
 10
74.284821
 20
125.097805
 30
0.0
 10
74.119880
 20
125.005740
 30
0.0
 10
73.959802
 20
124.905479
 30
0.0
 10
73.920932
 20
124.894684
 30
0.0
 10
73.885705
 20
124.875025
 30
0.0
 10
73.701360
 20
124.833772
 30
0.0
 10
73.519361
 20
124.783279
 30
0.0
 10
73.479033
 20
124.784072
 30
0.0
 10
73.439663
 20
124.775262
 30
0.0
 10
73.345760
 20
124.786506
 30
0.0
 10
73.062362
 20
124.791692
 30
0.0
 10
72.916695
 20
124.837907
 30
0.0
 10
72.829042
 20
124.848411
 30
0.0
 10
65.639820
 20
127.184333
 30
0.0
 10
61.196641
 20
121.068817
 30
0.0
 10
60.877543
 20
120.741562
 30
0.0
 10
60.478429
 20
120.518793
 30
0.0
 10
60.032384
 20
120.418971
 30
0.0
 10
59.421763
 20
120.492123
 30
0.0
 10
51.135608
 20
123.184457
 30
0.0
 10
50.725763
 20
123.386810
 30
0.0
 10
50.390563
 20
123.697553
 30
0.0
 10
50.157793
 20
124.090919
 30
0.0
 10
50.038672
 20
124.694259
 30
0.0
 10
50.038672
 20
128.521018
 30
0.0
 10
47.789359
 20
125.425105
 30
0.0
 10
47.470261
 20
125.097850
 30
0.0
 10
47.071145
 20
124.875078
 30
0.0
 10
46.625103
 20
124.775259
 30
0.0
 10
46.014481
 20
124.848411
 30
0.0
 10
37.728327
 20
127.540747
 30
0.0
 10
37.318482
 20
127.743101
 30
0.0
 10
36.983281
 20
128.053843
 30
0.0
 10
36.750511
 20
128.447210
 30
0.0
 10
36.631391
 20
129.050550
 30
0.0
 10
36.631391
 20
136.609741
 30
0.0
 10
29.442172
 20
138.945660
 30
0.0
 10
29.344083
 20
138.994089
 30
0.0
 10
29.239816
 20
139.027170
 30
0.0
 10
29.140235
 20
139.094737
 30
0.0
 10
29.032327
 20
139.148013
 30
0.0
 10
28.952108
 20
139.222379
 30
0.0
 10
28.861583
 20
139.283800
 30
0.0
 10
28.785375
 20
139.376946
 30
0.0
 10
28.697126
 20
139.458756
 30
0.0
 10
28.641421
 20
139.552897
 30
0.0
 10
28.572150
 20
139.637561
 30
0.0
 10
28.525645
 20
139.748551
 30
0.0
 10
28.464357
 20
139.852122
 30
0.0
 10
28.448429
 20
139.932855
 30
0.0
 10
28.395517
 20
140.059127
 30
0.0
 10
28.361532
 20
140.372978
 30
0.0
 10
28.345260
 20
140.455462
 30
0.0
 10
28.345260
 20
148.014656
 30
0.0
 10
21.156041
 20
150.350575
 30
0.0
 10
21.057952
 20
150.399004
 30
0.0
 10
20.953685
 20
150.432085
 30
0.0
 10
20.854104
 20
150.499651
 30
0.0
 10
20.746196
 20
150.552928
 30
0.0
 10
20.665977
 20
150.627294
 30
0.0
 10
20.575453
 20
150.688715
 30
0.0
 10
20.499245
 20
150.781861
 30
0.0
 10
20.410995
 20
150.863670
 30
0.0
 10
20.355290
 20
150.957812
 30
0.0
 10
20.286020
 20
151.042476
 30
0.0
 10
20.239514
 20
151.153466
 30
0.0
 10
20.178226
 20
151.257037
 30
0.0
 10
20.162287
 20
151.337769
 30
0.0
 10
20.109376
 20
151.464042
 30
0.0
 10
20.075390
 20
151.777893
 30
0.0
 10
20.059105
 20
151.860377
 30
0.0
 10
20.059105
 20
159.419568
 30
0.0
 10
12.869886
 20
161.755487
 30
0.0
 10
12.460041
 20
161.957840
 30
0.0
 10
12.124841
 20
162.268583
 30
0.0
 10
11.892071
 20
162.661949
 30
0.0
 10
11.772950
 20
163.265289
 30
0.0
 10
11.772950
 20
171.977870
 30
0.0
 10
11.838752
 20
172.430186
 30
0.0
 10
12.030699
 20
172.845005
 30
0.0
 10
12.332885
 20
173.187939
 30
0.0
 10
12.869886
 20
173.487673
 30
0.0
 10
16.509344
 20
174.670204
 30
0.0
 10
12.869886
 20
175.852735
 30
0.0
 10
12.771797
 20
175.901165
 30
0.0
 10
12.667530
 20
175.934246
 30
0.0
 10
12.567949
 20
176.001812
 30
0.0
 10
12.460041
 20
176.055089
 30
0.0
 10
12.379822
 20
176.129455
 30
0.0
 10
12.289298
 20
176.190876
 30
0.0
 10
12.213090
 20
176.284022
 30
0.0
 10
12.124841
 20
176.365831
 30
0.0
 10
12.069135
 20
176.459973
 30
0.0
 10
11.999865
 20
176.544637
 30
0.0
 10
11.953359
 20
176.655627
 30
0.0
 10
11.892071
 20
176.759198
 30
0.0
 10
11.876132
 20
176.839930
 30
0.0
 10
11.823221
 20
176.966203
 30
0.0
 10
11.789235
 20
177.280054
 30
0.0
 10
11.772950
 20
177.362538
 30
0.0
 10
11.772950
 20
186.075119
 30
0.0
 10
11.777165
 20
186.104096
 30
0.0
 10
11.774014
 20
186.133203
 30
0.0
 10
11.809989
 20
186.329720
 30
0.0
 10
11.838752
 20
186.527435
 30
0.0
 10
11.851047
 20
186.554007
 30
0.0
 10
11.856320
 20
186.582809
 30
0.0
 10
11.946797
 20
186.760929
 30
0.0
 10
12.030699
 20
186.942254
 30
0.0
 10
12.050059
 20
186.964214
 30
0.0
 10
12.063317
 20
186.990329
 30
0.0
 10
12.200779
 20
187.135273
 30
0.0
 10
12.332885
 20
187.285191
 30
0.0
 10
12.354295
 20
187.297150
 30
0.0
 10
12.377849
 20
187.321994
 30
0.0
 10
12.773835
 20
187.550279
 30
0.0
 10
12.833096
 20
187.564408
 30
0.0
 10
12.869886
 20
187.584940
 30
0.0
 10
20.059105
 20
189.920859
 30
0.0
 10
20.059105
 20
197.479946
 30
0.0
 10
20.063320
 20
197.508924
 30
0.0
 10
20.060169
 20
197.538030
 30
0.0
 10
20.096144
 20
197.734547
 30
0.0
 10
20.124907
 20
197.932262
 30
0.0
 10
20.137202
 20
197.958834
 30
0.0
 10
20.142475
 20
197.987637
 30
0.0
 10
20.232952
 20
198.165757
 30
0.0
 10
20.316854
 20
198.347081
 30
0.0
 10
20.336214
 20
198.369042
 30
0.0
 10
20.349472
 20
198.395156
 30
0.0
 10
20.486934
 20
198.540100
 30
0.0
 10
20.619040
 20
198.690018
 30
0.0
 10
20.640450
 20
198.701977
 30
0.0
 10
20.664003
 20
198.726822
 30
0.0
 10
21.059989
 20
198.955107
 30
0.0
 10
21.119251
 20
198.969236
 30
0.0
 10
21.156041
 20
198.989767
 30
0.0
 10
28.345260
 20
201.325686
 30
0.0
 10
28.345260
 20
208.884880
 30
0.0
 10
28.349467
 20
208.913857
 30
0.0
 10
28.346318
 20
208.942964
 30
0.0
 10
28.382293
 20
209.139480
 30
0.0
 10
28.411056
 20
209.337196
 30
0.0
 10
28.423359
 20
209.363768
 30
0.0
 10
28.428625
 20
209.392570
 30
0.0
 10
28.519101
 20
209.570690
 30
0.0
 10
28.603003
 20
209.752015
 30
0.0
 10
28.622371
 20
209.773975
 30
0.0
 10
28.635627
 20
209.800089
 30
0.0
 10
28.773088
 20
209.945033
 30
0.0
 10
28.905195
 20
210.094952
 30
0.0
 10
28.926599
 20
210.106911
 30
0.0
 10
28.950147
 20
210.131755
 30
0.0
 10
29.346133
 20
210.360040
 30
0.0
 10
29.405395
 20
210.374169
 30
0.0
 10
29.442185
 20
210.394701
 30
0.0
 10
36.631404
 20
212.730620
 30
0.0
 10
36.631404
 20
220.289774
 30
0.0
 10
36.697206
 20
220.742089
 30
0.0
 10
36.889153
 20
221.156908
 30
0.0
 10
37.191339
 20
221.499843
 30
0.0
 10
37.728340
 20
221.799576
 30
0.0
 10
46.014494
 20
224.491912
 30
0.0
 10
46.465006
 20
224.569105
 30
0.0
 10
46.918838
 20
224.514735
 30
0.0
 10
47.338366
 20
224.333313
 30
0.0
 10
47.789372
 20
223.915219
 30
0.0
 10
50.038685
 20
220.819305
 30
0.0
 10
50.038685
 20
224.646064
 30
0.0
 10
50.104487
 20
225.098380
 30
0.0
 10
50.296434
 20
225.513199
 30
0.0
 10
50.598620
 20
225.856133
 30
0.0
 10
51.135621
 20
226.155866
 30
0.0
 10
59.421776
 20
228.848200
 30
0.0
 10
59.872287
 20
228.925393
 30
0.0
  0
LWPOLYLINE
  5
101
100
AcDbEntity
  8
0
 62
7
100
AcDbPolyline
 90
5
 70
1
 10
53.213616
 20
132.253368
 30
0.0
 10
53.213616
 20
125.847562
 30
0.0
 10
59.305902
 20
123.868058
 30
0.0
 10
63.071140
 20
129.050465
 30
0.0
 10
59.305902
 20
134.232872
 30
0.0
  0
LWPOLYLINE
  5
102
100
AcDbEntity
  8
0
 62
7
100
AcDbPolyline
 90
5
 70
1
 10
39.806335
 20
136.609656
 30
0.0
 10
39.806335
 20
130.203850
 30
0.0
 10
45.898620
 20
128.224346
 30
0.0
 10
49.663858
 20
133.406753
 30
0.0
 10
45.898620
 20
138.589160
 30
0.0
  0
LWPOLYLINE
  5
103
100
AcDbEntity
  8
0
 62
7
100
AcDbPolyline
 90
23
 70
1
 10
61.499771
 20
136.614895
 30
0.0
 10
66.014523
 20
130.400872
 30
0.0
 10
72.713181
 20
128.224344
 30
0.0
 10
76.478418
 20
133.406750
 30
0.0
 10
72.713181
 20
138.589157
 30
0.0
 10
65.523959
 20
136.253239
 30
0.0
 10
65.376912
 20
136.228050
 30
0.0
 10
65.233150
 20
136.188167
 30
0.0
 10
65.152730
 20
136.189754
 30
0.0
 10
65.073448
 20
136.176181
 30
0.0
 10
64.925316
 20
136.193935
 30
0.0
 10
64.776152
 20
136.196660
 30
0.0
 10
64.699481
 20
136.220975
 30
0.0
 10
64.619616
 20
136.230553
 30
0.0
 10
64.482689
 20
136.289767
 30
0.0
 10
64.340475
 20
136.334886
 30
0.0
 10
64.273909
 20
136.380053
 30
0.0
 10
64.200087
 20
136.411975
 30
0.0
 10
64.127002
 20
136.479727
 30
0.0
 10
63.962243
 20
136.591516
 30
0.0
 10
63.823546
 20
136.761037
 30
0.0
 10
63.749081
 20
136.830070
 30
0.0
 10
61.499771
 20
139.925981
 30
0.0
  0
LWPOLYLINE
  5
104
100
AcDbEntity
  8
0
 62
7
100
AcDbPolyline
 90
13
 70
1
 10
88.314332
 20
144.811665
 30
0.0
 10
88.248530
 20
144.359350
 30
0.0
 10
88.056582
 20
143.944530
 30
0.0
 10
87.754397
 20
143.601596
 30
0.0
 10
87.367028
 20
143.358976
 30
0.0
 10
87.272966
 20
143.332888
 30
0.0
 10
87.217396
 20
143.301871
 30
0.0
 10
80.028177
 20
140.965952
 30
0.0
 10
80.028177
 20
134.560146
 30
0.0
 10
86.120462
 20
132.580642
 30
0.0
 10
90.260456
 20
138.278857
 30
0.0
 10
90.260456
 20
145.959819
 30
0.0
 10
88.314332
 20
148.638429
 30
0.0
  0
LWPOLYLINE
  5
105
100
AcDbEntity
  8
0
 62
7
100
AcDbPolyline
 90
5
 70
1
 10
48.467248
 20
140.455375
 30
0.0
 10
52.232486
 20
135.272968
 30
0.0
 10
58.324771
 20
137.252472
 30
0.0
 10
58.324771
 20
143.658278
 30
0.0
 10
52.232486
 20
145.637782
 30
0.0
  0
LWPOLYLINE
  5
106
100
AcDbEntity
  8
0
 62
7
100
AcDbPolyline
 90
5
 70
1
 10
93.435456
 20
145.322232
 30
0.0
 10
93.435456
 20
138.916426
 30
0.0
 10
99.527741
 20
136.936922
 30
0.0
 10
103.292979
 20
142.119329
 30
0.0
 10
99.527741
 20
147.301736
 30
0.0
  0
LWPOLYLINE
  5
107
100
AcDbEntity
  8
0
 62
7
100
AcDbPolyline
 90
59
 70
1
 10
74.603864
 20
148.234845
 30
0.0
 10
74.472004
 20
148.099613
 30
0.0
 10
74.347115
 20
147.957884
 30
0.0
 10
74.312928
 20
147.936479
 30
0.0
 10
74.284766
 20
147.907597
 30
0.0
 10
74.119825
 20
147.815533
 30
0.0
 10
73.959746
 20
147.715272
 30
0.0
 10
73.920877
 20
147.704477
 30
0.0
 10
73.885650
 20
147.684818
 30
0.0
 10
73.701304
 20
147.643564
 30
0.0
 10
73.519305
 20
147.593071
 30
0.0
 10
73.478977
 20
147.593865
 30
0.0
 10
73.439607
 20
147.585054
 30
0.0
 10
73.345704
 20
147.596299
 30
0.0
 10
73.062306
 20
147.601485
 30
0.0
 10
72.916640
 20
147.647700
 30
0.0
 10
72.828986
 20
147.658204
 30
0.0
 10
65.639765
 20
149.994125
 30
0.0
 10
61.874527
 20
144.811718
 30
0.0
 10
65.639765
 20
139.629311
 30
0.0
 10
72.828986
 20
141.965230
 30
0.0
 10
73.004418
 20
141.995290
 30
0.0
 10
73.177551
 20
142.036565
 30
0.0
 10
73.228856
 20
142.033733
 30
0.0
 10
73.279497
 20
142.042412
 30
0.0
 10
73.456223
 20
142.021245
 30
0.0
 10
73.633939
 20
142.011482
 30
0.0
 10
73.682312
 20
141.994152
 30
0.0
 10
73.733329
 20
141.988040
 30
0.0
 10
73.896694
 20
141.917394
 30
0.0
 10
74.064265
 20
141.857397
 30
0.0
 10
74.105699
 20
141.827012
 30
0.0
 10
74.152858
 20
141.806613
 30
0.0
 10
74.226116
 20
141.738702
 30
0.0
 10
74.432853
 20
141.587093
 30
0.0
 10
74.535318
 20
141.452060
 30
0.0
 10
74.603864
 20
141.388518
 30
0.0
 10
76.853177
 20
138.292605
 30
0.0
 10
76.853177
 20
142.119363
 30
0.0
 10
76.857384
 20
142.148340
 30
0.0
 10
76.854235
 20
142.177447
 30
0.0
 10
76.890211
 20
142.373964
 30
0.0
 10
76.918973
 20
142.571679
 30
0.0
 10
76.931277
 20
142.598251
 30
0.0
 10
76.936542
 20
142.627054
 30
0.0
 10
77.027019
 20
142.805174
 30
0.0
 10
77.110921
 20
142.986498
 30
0.0
 10
77.130288
 20
143.008458
 30
0.0
 10
77.143544
 20
143.034573
 30
0.0
 10
77.281005
 20
143.179517
 30
0.0
 10
77.413112
 20
143.329435
 30
0.0
 10
77.434517
 20
143.341394
 30
0.0
 10
77.458065
 20
143.366239
 30
0.0
 10
77.854051
 20
143.594524
 30
0.0
 10
77.913312
 20
143.608653
 30
0.0
 10
77.950102
 20
143.629184
 30
0.0
 10
85.139321
 20
145.965103
 30
0.0
 10
85.139321
 20
152.370909
 30
0.0
 10
79.047036
 20
154.350413
 30
0.0
  0
LWPOLYLINE
  5
108
100
AcDbEntity
  8
0
 62
7
100
AcDbPolyline
 90
11
 70
1
 10
31.520180
 20
148.014568
 30
0.0
 10
31.520180
 20
141.608762
 30
0.0
 10
38.218835
 20
139.432236
 30
0.0
 10
45.523862
 20
141.805784
 30
0.0
 10
47.469989
 20
144.484394
 30
0.0
 10
43.830526
 20
143.301863
 30
0.0
 10
43.380014
 20
143.224671
 30
0.0
 10
42.926183
 20
143.279040
 30
0.0
 10
42.506654
 20
143.460462
 30
0.0
 10
42.055648
 20
143.878557
 30
0.0
 10
37.612466
 20
149.994072
 30
0.0
  0
LWPOLYLINE
  5
109
100
AcDbEntity
  8
0
 62
7
100
AcDbPolyline
 90
44
 70
1
 10
31.894939
 20
163.265202
 30
0.0
 10
36.338121
 20
157.149686
 30
0.0
 10
36.383907
 20
157.062559
 30
0.0
 10
36.443409
 20
156.984147
 30
0.0
 10
36.461031
 20
156.915810
 30
0.0
 10
36.550753
 20
156.745080
 30
0.0
 10
36.639288
 20
156.296659
 30
0.0
 10
36.634314
 20
156.243761
 30
0.0
 10
36.641326
 20
156.216578
 30
0.0
 10
36.614134
 20
156.029665
 30
0.0
 10
36.596407
 20
155.841599
 30
0.0
 10
36.582358
 20
155.811246
 30
0.0
 10
36.575532
 20
155.764262
 30
0.0
 10
36.383584
 20
155.349443
 30
0.0
 10
36.352189
 20
155.313814
 30
0.0
 10
36.338140
 20
155.283469
 30
0.0
 10
34.088829
 20
152.187558
 30
0.0
 10
37.728290
 20
153.370092
 30
0.0
 10
38.178801
 20
153.447284
 30
0.0
 10
38.632633
 20
153.392915
 30
0.0
 10
39.052161
 20
153.211493
 30
0.0
 10
39.503167
 20
152.793398
 30
0.0
 10
43.946350
 20
146.677883
 30
0.0
 10
50.038635
 20
148.657387
 30
0.0
 10
50.038635
 20
155.063193
 30
0.0
 10
42.849416
 20
157.399112
 30
0.0
 10
42.751327
 20
157.447541
 30
0.0
 10
42.647060
 20
157.480622
 30
0.0
 10
42.547479
 20
157.548188
 30
0.0
 10
42.439571
 20
157.601465
 30
0.0
 10
42.359352
 20
157.675831
 30
0.0
 10
42.268828
 20
157.737252
 30
0.0
 10
42.192620
 20
157.830398
 30
0.0
 10
42.104371
 20
157.912207
 30
0.0
 10
42.048665
 20
158.006349
 30
0.0
 10
41.979395
 20
158.091013
 30
0.0
 10
41.932889
 20
158.202003
 30
0.0
 10
41.871601
 20
158.305574
 30
0.0
 10
41.855673
 20
158.386306
 30
0.0
 10
41.802762
 20
158.512579
 30
0.0
 10
41.768776
 20
158.826430
 30
0.0
 10
41.752478
 20
158.908914
 30
0.0
 10
41.752478
 20
166.468108
 30
0.0
 10
35.660192
 20
168.447612
 30
0.0
  0
LWPOLYLINE
  5
10a
100
AcDbEntity
  8
0
 62
7
100
AcDbPolyline
 90
6
 70
1
 10
53.213616
 20
155.700770
 30
0.0
 10
53.213616
 20
148.657387
 30
0.0
 10
59.305902
 20
146.677883
 30
0.0
 10
63.445895
 20
152.376098
 30
0.0
 10
63.445895
 20
159.419481
 30
0.0
 10
57.353610
 20
161.398985
 30
0.0
  0
LWPOLYLINE
  5
10b
100
AcDbEntity
  8
0
 62
7
100
AcDbPolyline
 90
5
 70
1
 10
88.689087
 20
153.524244
 30
0.0
 10
92.454325
 20
148.341837
 30
0.0
 10
98.546610
 20
150.321341
 30
0.0
 10
98.546610
 20
156.727147
 30
0.0
 10
92.454325
 20
158.706651
 30
0.0
  0
LWPOLYLINE
  5
10c
100
AcDbEntity
  8
0
 62
7
100
AcDbPolyline
 90
5
 70
1
 10
101.721610
 20
156.727147
 30
0.0
 10
101.721610
 20
150.321341
 30
0.0
 10
107.813896
 20
148.341837
 30
0.0
 10
111.579133
 20
153.524244
 30
0.0
 10
107.813896
 20
158.706651
 30
0.0
  0
LWPOLYLINE
  5
10d
100
AcDbEntity
  8
0
 62
7
100
AcDbPolyline
 90
24
 70
1
 10
27.748778
 20
166.271086
 30
0.0
 10
23.234026
 20
160.057063
 30
0.0
 10
23.234026
 20
153.013677
 30
0.0
 10
29.326311
 20
151.034173
 30
0.0
 10
33.091549
 20
156.216580
 30
0.0
 10
28.648366
 20
162.332096
 30
0.0
 10
28.616066
 20
162.393561
 30
0.0
 10
28.572095
 20
162.447303
 30
0.0
 10
28.510219
 20
162.594970
 30
0.0
 10
28.435737
 20
162.736702
 30
0.0
 10
28.422296
 20
162.804827
 30
0.0
 10
28.395462
 20
162.868869
 30
0.0
 10
28.378237
 20
163.028045
 30
0.0
 10
28.347225
 20
163.185123
 30
0.0
 10
28.353734
 20
163.254256
 30
0.0
 10
28.346273
 20
163.323289
 30
0.0
 10
28.375102
 20
163.480771
 30
0.0
 10
28.390130
 20
163.640183
 30
0.0
 10
28.413546
 20
163.690795
 30
0.0
 10
28.428574
 20
163.772895
 30
0.0
 10
28.635571
 20
164.180412
 30
0.0
 10
28.644435
 20
164.189751
 30
0.0
 10
28.648403
 20
164.198324
 30
0.0
 10
30.897716
 20
167.294237
 30
0.0
  0
LWPOLYLINE
  5
10e
100
AcDbEntity
  8
0
 62
7
100
AcDbPolyline
 90
136
 70
1
 10
66.620895
 20
196.326562
 30
0.0
 10
66.620895
 20
188.767368
 30
0.0
 10
66.555093
 20
188.315052
 30
0.0
 10
66.363146
 20
187.900233
 30
0.0
 10
66.060960
 20
187.557299
 30
0.0
 10
65.523959
 20
187.257566
 30
0.0
 10
57.237805
 20
184.565232
 30
0.0
 10
56.787293
 20
184.488040
 30
0.0
 10
56.333461
 20
184.542409
 30
0.0
 10
55.913933
 20
184.723831
 30
0.0
 10
55.462927
 20
185.141926
 30
0.0
 10
51.019747
 20
191.257441
 30
0.0
 10
44.927462
 20
189.277937
 30
0.0
 10
44.927462
 20
182.872131
 30
0.0
 10
52.116680
 20
180.536212
 30
0.0
 10
52.526525
 20
180.333859
 30
0.0
 10
52.861726
 20
180.023116
 30
0.0
 10
53.094496
 20
179.629750
 30
0.0
 10
53.213616
 20
179.026410
 30
0.0
 10
53.213616
 20
170.313829
 30
0.0
 10
53.147815
 20
169.861513
 30
0.0
 10
52.955867
 20
169.446694
 30
0.0
 10
52.653681
 20
169.103760
 30
0.0
 10
52.116680
 20
168.804026
 30
0.0
 10
44.927462
 20
166.468108
 30
0.0
 10
44.927462
 20
160.062302
 30
0.0
 10
51.019747
 20
158.082798
 30
0.0
 10
55.462927
 20
164.198313
 30
0.0
 10
55.614901
 20
164.354171
 30
0.0
 10
55.764639
 20
164.512059
 30
0.0
 10
55.774270
 20
164.517615
 30
0.0
 10
55.782022
 20
164.525579
 30
0.0
 10
55.972146
 20
164.631698
 30
0.0
 10
56.160622
 20
164.740355
 30
0.0
 10
56.171444
 20
164.743000
 30
0.0
 10
56.181154
 20
164.748424
 30
0.0
 10
56.393546
 20
164.795957
 30
0.0
 10
56.605257
 20
164.846429
 30
0.0
 10
56.616343
 20
164.845899
 30
0.0
 10
56.627191
 20
164.848281
 30
0.0
 10
56.673816
 20
164.842698
 30
0.0
 10
57.061637
 20
164.821399
 30
0.0
 10
57.167198
 20
164.783603
 30
0.0
 10
57.237813
 20
164.775137
 30
0.0
 10
65.523967
 20
162.082803
 30
0.0
 10
65.647954
 20
162.021586
 30
0.0
 10
65.778118
 20
161.974982
 30
0.0
 10
65.851831
 20
161.920925
 30
0.0
 10
65.933812
 20
161.880449
 30
0.0
 10
66.035219
 20
161.786440
 30
0.0
 10
66.146706
 20
161.704684
 30
0.0
 10
66.201967
 20
161.631860
 30
0.0
 10
66.269013
 20
161.569707
 30
0.0
 10
66.339426
 20
161.450713
 30
0.0
 10
66.423006
 20
161.340570
 30
0.0
 10
66.437214
 20
161.285454
 30
0.0
 10
66.501780
 20
161.176340
 30
0.0
 10
66.620901
 20
160.573000
 30
0.0
 10
66.620901
 20
153.013807
 30
0.0
 10
72.713186
 20
151.034303
 30
0.0
 10
76.478424
 20
156.216710
 30
0.0
 10
72.035241
 20
162.332225
 30
0.0
 10
72.002941
 20
162.393691
 30
0.0
 10
71.958970
 20
162.447433
 30
0.0
 10
71.897094
 20
162.595100
 30
0.0
 10
71.822612
 20
162.736832
 30
0.0
 10
71.809171
 20
162.804957
 30
0.0
 10
71.782337
 20
162.868999
 30
0.0
 10
71.765086
 20
163.028175
 30
0.0
 10
71.734074
 20
163.185253
 30
0.0
 10
71.740583
 20
163.254386
 30
0.0
 10
71.733095
 20
163.323418
 30
0.0
 10
71.761924
 20
163.480901
 30
0.0
 10
71.776952
 20
163.640312
 30
0.0
 10
71.800368
 20
163.690924
 30
0.0
 10
71.815396
 20
163.773025
 30
0.0
 10
72.022393
 20
164.180541
 30
0.0
 10
72.031257
 20
164.189881
 30
0.0
 10
72.035226
 20
164.198453
 30
0.0
 10
77.156352
 20
171.247078
 30
0.0
 10
77.308326
 20
171.402936
 30
0.0
 10
77.458065
 20
171.560823
 30
0.0
 10
77.467695
 20
171.566380
 30
0.0
 10
77.475474
 20
171.574344
 30
0.0
 10
77.665630
 20
171.680481
 30
0.0
 10
77.854074
 20
171.789119
 30
0.0
 10
77.864869
 20
171.791765
 30
0.0
 10
77.874580
 20
171.797189
 30
0.0
 10
78.087043
 20
171.844735
 30
0.0
 10
78.298680
 20
171.895191
 30
0.0
 10
78.309766
 20
171.894661
 30
0.0
 10
78.320614
 20
171.897043
 30
0.0
 10
78.367239
 20
171.891460
 30
0.0
 10
78.755060
 20
171.870161
 30
0.0
 10
78.860621
 20
171.832365
 30
0.0
 10
78.931236
 20
171.823899
 30
0.0
 10
86.120457
 20
169.487980
 30
0.0
 10
89.885695
 20
174.670387
 30
0.0
 10
86.120457
 20
179.852794
 30
0.0
 10
78.931236
 20
177.516875
 30
0.0
 10
78.784188
 20
177.491686
 30
0.0
 10
78.640427
 20
177.451803
 30
0.0
 10
78.560007
 20
177.453391
 30
0.0
 10
78.480724
 20
177.439817
 30
0.0
 10
78.332592
 20
177.457571
 30
0.0
 10
78.183428
 20
177.460296
 30
0.0
 10
78.106757
 20
177.484611
 30
0.0
 10
78.026892
 20
177.494189
 30
0.0
 10
77.889965
 20
177.553403
 30
0.0
 10
77.747752
 20
177.598522
 30
0.0
 10
77.681185
 20
177.643689
 30
0.0
 10
77.607364
 20
177.675611
 30
0.0
 10
77.534278
 20
177.743363
 30
0.0
 10
77.369519
 20
177.855152
 30
0.0
 10
77.230822
 20
178.024674
 30
0.0
 10
77.156358
 20
178.093706
 30
0.0
 10
72.035231
 20
185.142330
 30
0.0
 10
72.002930
 20
185.203796
 30
0.0
 10
71.958959
 20
185.257538
 30
0.0
 10
71.897084
 20
185.405204
 30
0.0
 10
71.822601
 20
185.546937
 30
0.0
 10
71.809160
 20
185.615061
 30
0.0
 10
71.782326
 20
185.679104
 30
0.0
 10
71.765075
 20
185.838280
 30
0.0
 10
71.734064
 20
185.995358
 30
0.0
 10
71.740572
 20
186.064491
 30
0.0
 10
71.733085
 20
186.133523
 30
0.0
 10
71.761914
 20
186.291006
 30
0.0
 10
71.776942
 20
186.450417
 30
0.0
 10
71.800358
 20
186.501029
 30
0.0
 10
71.815386
 20
186.583130
 30
0.0
 10
72.022383
 20
186.990646
 30
0.0
 10
72.031246
 20
186.999986
 30
0.0
 10
72.035215
 20
187.008558
 30
0.0
 10
76.478397
 20
193.124074
 30
0.0
 10
72.713159
 20
198.306481
 30
0.0
  0
LWPOLYLINE
  5
10f
100
AcDbEntity
  8
0
 62
7
100
AcDbPolyline
 90
6
 70
1
 10
75.281809
 20
163.265205
 30
0.0
 10
79.421805
 20
157.566990
 30
0.0
 10
86.120462
 20
155.390464
 30
0.0
 10
89.885700
 20
160.572871
 30
0.0
 10
85.745704
 20
166.271086
 30
0.0
 10
79.047046
 20
168.447612
 30
0.0
  0
LWPOLYLINE
  5
110
100
AcDbEntity
  8
0
 62
7
100
AcDbPolyline
 90
11
 70
1
 10
101.721610
 20
170.824398
 30
0.0
 10
101.721610
 20
163.265205
 30
0.0
 10
101.655809
 20
162.812889
 30
0.0
 10
101.463861
 20
162.398070
 30
0.0
 10
101.161675
 20
162.055135
 30
0.0
 10
100.624674
 20
161.755402
 30
0.0
 10
96.985217
 20
160.572871
 30
0.0
 10
100.134110
 20
159.549732
 30
0.0
 10
107.439137
 20
161.923280
 30
0.0
 10
111.579133
 20
167.621495
 30
0.0
 10
107.813896
 20
172.803902
 30
0.0
  0
LWPOLYLINE
  5
111
100
AcDbEntity
  8
0
 62
7
100
AcDbPolyline
 90
5
 70
1
 10
14.947871
 20
170.824398
 30
0.0
 10
14.947871
 20
164.418592
 30
0.0
 10
21.040156
 20
162.439088
 30
0.0
 10
24.805394
 20
167.621495
 30
0.0
 10
21.040156
 20
172.803902
 30
0.0
  0
LWPOLYLINE
  5
112
100
AcDbEntity
  8
0
 62
7
100
AcDbPolyline
 90
32
 70
1
 10
88.689087
 20
181.718744
 30
0.0
 10
93.132270
 20
175.603228
 30
0.0
 10
93.178056
 20
175.516101
 30
0.0
 10
93.237558
 20
175.437689
 30
0.0
 10
93.255179
 20
175.369350
 30
0.0
 10
93.344902
 20
175.198619
 30
0.0
 10
93.433437
 20
174.750201
 30
0.0
 10
93.428463
 20
174.697303
 30
0.0
 10
93.435474
 20
174.670119
 30
0.0
 10
93.408283
 20
174.483207
 30
0.0
 10
93.390556
 20
174.295141
 30
0.0
 10
93.376507
 20
174.264788
 30
0.0
 10
93.369680
 20
174.217804
 30
0.0
 10
93.177733
 20
173.802985
 30
0.0
 10
93.146338
 20
173.767356
 30
0.0
 10
93.132288
 20
173.737011
 30
0.0
 10
88.689106
 20
167.621495
 30
0.0
 10
92.454344
 20
162.439088
 30
0.0
 10
98.546629
 20
164.418592
 30
0.0
 10
98.546629
 20
171.977786
 30
0.0
 10
98.612431
 20
172.430101
 30
0.0
 10
98.804378
 20
172.844920
 30
0.0
 10
99.106564
 20
173.187855
 30
0.0
 10
99.643565
 20
173.487588
 30
0.0
 10
103.283023
 20
174.670119
 30
0.0
 10
99.643565
 20
175.852651
 30
0.0
 10
99.233720
 20
176.055004
 30
0.0
 10
98.898519
 20
176.365747
 30
0.0
 10
98.665750
 20
176.759113
 30
0.0
 10
98.546629
 20
177.362453
 30
0.0
 10
98.546629
 20
184.921647
 30
0.0
 10
92.454344
 20
186.901151
 30
0.0
  0
LWPOLYLINE
  5
113
100
AcDbEntity
  8
0
 62
7
100
AcDbPolyline
 90
6
 70
1
 10
36.641307
 20
177.873022
 30
0.0
 10
36.641307
 20
171.467216
 30
0.0
 10
43.339962
 20
169.290690
 30
0.0
 10
50.038616
 20
171.467216
 30
0.0
 10
50.038616
 20
177.873022
 30
0.0
 10
43.339962
 20
180.049548
 30
0.0
  0
LWPOLYLINE
  5
114
100
AcDbEntity
  8
0
 62
7
100
AcDbPolyline
 90
5
 70
1
 10
23.608781
 20
174.670119
 30
0.0
 10
27.374019
 20
169.487712
 30
0.0
 10
33.466307
 20
171.467216
 30
0.0
 10
33.466307
 20
177.873022
 30
0.0
 10
27.374019
 20
179.852526
 30
0.0
  0
LWPOLYLINE
  5
115
100
AcDbEntity
  8
0
 62
7
100
AcDbPolyline
 90
5
 70
1
 10
14.947871
 20
184.921647
 30
0.0
 10
14.947871
 20
178.515841
 30
0.0
 10
21.040156
 20
176.536337
 30
0.0
 10
24.805394
 20
181.718744
 30
0.0
 10
21.040156
 20
186.901151
 30
0.0
  0
LWPOLYLINE
  5
116
100
AcDbEntity
  8
0
 62
7
100
AcDbPolyline
 90
11
 70
1
 10
96.985217
 20
188.767368
 30
0.0
 10
100.624674
 20
187.584837
 30
0.0
 10
101.034519
 20
187.382483
 30
0.0
 10
101.369720
 20
187.071741
 30
0.0
 10
101.602490
 20
186.678374
 30
0.0
 10
101.721610
 20
186.075034
 30
0.0
 10
101.721610
 20
178.515841
 30
0.0
 10
107.813896
 20
176.536337
 30
0.0
 10
111.579133
 20
181.718744
 30
0.0
 10
107.439137
 20
187.416959
 30
0.0
 10
100.134110
 20
189.790507
 30
0.0
  0
LWPOLYLINE
  5
117
100
AcDbEntity
  8
0
 62
7
100
AcDbPolyline
 90
44
 70
1
 10
39.503149
 20
196.546838
 30
0.0
 10
39.371289
 20
196.411607
 30
0.0
 10
39.246400
 20
196.269877
 30
0.0
 10
39.212213
 20
196.248472
 30
0.0
 10
39.184051
 20
196.219591
 30
0.0
 10
39.019110
 20
196.127526
 30
0.0
 10
38.859031
 20
196.027265
 30
0.0
 10
38.820161
 20
196.016470
 30
0.0
 10
38.784935
 20
195.996811
 30
0.0
 10
38.600589
 20
195.955558
 30
0.0
 10
38.418590
 20
195.905064
 30
0.0
 10
38.378262
 20
195.905858
 30
0.0
 10
38.338892
 20
195.897048
 30
0.0
 10
38.244989
 20
195.908292
 30
0.0
 10
37.961591
 20
195.913478
 30
0.0
 10
37.815925
 20
195.959693
 30
0.0
 10
37.728271
 20
195.970197
 30
0.0
 10
34.088811
 20
197.152731
 30
0.0
 10
36.338121
 20
194.056820
 30
0.0
 10
36.383907
 20
193.969693
 30
0.0
 10
36.443409
 20
193.891281
 30
0.0
 10
36.461031
 20
193.822944
 30
0.0
 10
36.550753
 20
193.652214
 30
0.0
 10
36.639288
 20
193.203793
 30
0.0
 10
36.634314
 20
193.150895
 30
0.0
 10
36.641326
 20
193.123712
 30
0.0
 10
36.614134
 20
192.936799
 30
0.0
 10
36.596407
 20
192.748733
 30
0.0
 10
36.582358
 20
192.718380
 30
0.0
 10
36.575532
 20
192.671396
 30
0.0
 10
36.383584
 20
192.256577
 30
0.0
 10
36.352189
 20
192.220948
 30
0.0
 10
36.338140
 20
192.190603
 30
0.0
 10
31.894957
 20
186.075087
 30
0.0
 10
35.660195
 20
180.892680
 30
0.0
 10
41.752480
 20
182.872184
 30
0.0
 10
41.752480
 20
190.431375
 30
0.0
 10
41.818282
 20
190.883691
 30
0.0
 10
42.010229
 20
191.298510
 30
0.0
 10
42.312415
 20
191.641444
 30
0.0
 10
42.849416
 20
191.941177
 30
0.0
 10
50.038635
 20
194.277096
 30
0.0
 10
50.038635
 20
200.682902
 30
0.0
 10
43.946350
 20
202.662406
 30
0.0
  0
LWPOLYLINE
  5
118
100
AcDbEntity
  8
0
 62
7
100
AcDbPolyline
 90
6
 70
1
 10
79.421805
 20
191.773249
 30
0.0
 10
75.281809
 20
186.075034
 30
0.0
 10
79.047046
 20
180.892627
 30
0.0
 10
85.745704
 20
183.069153
 30
0.0
 10
89.885700
 20
188.767368
 30
0.0
 10
86.120462
 20
193.949775
 30
0.0
  0
LWPOLYLINE
  5
119
100
AcDbEntity
  8
0
 62
7
100
AcDbPolyline
 90
24
 70
1
 10
23.234026
 20
196.326562
 30
0.0
 10
23.234026
 20
189.283176
 30
0.0
 10
27.748778
 20
183.069153
 30
0.0
 10
30.897679
 20
182.046012
 30
0.0
 10
28.648366
 20
185.141926
 30
0.0
 10
28.616066
 20
185.203391
 30
0.0
 10
28.572095
 20
185.257133
 30
0.0
 10
28.510219
 20
185.404800
 30
0.0
 10
28.435737
 20
185.546532
 30
0.0
 10
28.422296
 20
185.614657
 30
0.0
 10
28.395462
 20
185.678699
 30
0.0
 10
28.378237
 20
185.837875
 30
0.0
 10
28.347226
 20
185.994953
 30
0.0
 10
28.353734
 20
186.064086
 30
0.0
 10
28.346273
 20
186.133118
 30
0.0
 10
28.375102
 20
186.290601
 30
0.0
 10
28.390130
 20
186.450012
 30
0.0
 10
28.413546
 20
186.500624
 30
0.0
 10
28.428574
 20
186.582725
 30
0.0
 10
28.635571
 20
186.990241
 30
0.0
 10
28.644435
 20
186.999581
 30
0.0
 10
28.648403
 20
187.008154
 30
0.0
 10
33.091586
 20
193.123669
 30
0.0
 10
29.326348
 20
198.306076
 30
0.0
  0
LWPOLYLINE
  5
11a
100
AcDbEntity
  8
0
 62
7
100
AcDbPolyline
 90
6
 70
1
 10
53.213616
 20
200.682849
 30
0.0
 10
53.213616
 20
193.639466
 30
0.0
 10
57.353610
 20
187.941252
 30
0.0
 10
63.445895
 20
189.920756
 30
0.0
 10
63.445895
 20
196.964139
 30
0.0
 10
59.305902
 20
202.662353
 30
0.0
  0
LWPOLYLINE
  5
11b
100
AcDbEntity
  8
0
 62
7
100
AcDbPolyline
 90
5
 70
1
 10
88.689087
 20
195.815992
 30
0.0
 10
92.454325
 20
190.633585
 30
0.0
 10
98.546610
 20
192.613090
 30
0.0
 10
98.546610
 20
199.018895
 30
0.0
 10
92.454325
 20
200.998399
 30
0.0
  0
LWPOLYLINE
  5
11c
100
AcDbEntity
  8
0
 62
7
100
AcDbPolyline
 90
5
 70
1
 10
101.721610
 20
199.018895
 30
0.0
 10
101.721610
 20
192.613090
 30
0.0
 10
107.813896
 20
190.633585
 30
0.0
 10
111.579133
 20
195.815992
 30
0.0
 10
107.813896
 20
200.998399
 30
0.0
  0
LWPOLYLINE
  5
11d
100
AcDbEntity
  8
0
 62
7
100
AcDbPolyline
 90
34
 70
1
 10
74.603864
 20
207.951753
 30
0.0
 10
74.472004
 20
207.816521
 30
0.0
 10
74.347115
 20
207.674792
 30
0.0
 10
74.312928
 20
207.653387
 30
0.0
 10
74.284766
 20
207.624505
 30
0.0
 10
74.119825
 20
207.532441
 30
0.0
 10
73.959746
 20
207.432180
 30
0.0
 10
73.920877
 20
207.421385
 30
0.0
 10
73.885650
 20
207.401726
 30
0.0
 10
73.701304
 20
207.360472
 30
0.0
 10
73.519305
 20
207.309979
 30
0.0
 10
73.478977
 20
207.310773
 30
0.0
 10
73.439607
 20
207.301962
 30
0.0
 10
73.345704
 20
207.313207
 30
0.0
 10
73.062306
 20
207.318393
 30
0.0
 10
72.916640
 20
207.364608
 30
0.0
 10
72.828986
 20
207.375112
 30
0.0
 10
65.639765
 20
209.711031
 30
0.0
 10
61.874527
 20
204.528624
 30
0.0
 10
65.639765
 20
199.346217
 30
0.0
 10
72.828986
 20
201.682138
 30
0.0
 10
73.279497
 20
201.759331
 30
0.0
 10
73.733329
 20
201.704961
 30
0.0
 10
74.152858
 20
201.523539
 30
0.0
 10
74.603864
 20
201.105445
 30
0.0
 10
79.047046
 20
194.989929
 30
0.0
 10
85.139332
 20
196.969433
 30
0.0
 10
85.139332
 20
203.375239
 30
0.0
 10
77.950113
 20
205.711158
 30
0.0
 10
77.540268
 20
205.913511
 30
0.0
 10
77.205067
 20
206.224254
 30
0.0
 10
76.972298
 20
206.617620
 30
0.0
 10
76.853177
 20
207.220960
 30
0.0
 10
76.853177
 20
211.047719
 30
0.0
  0
LWPOLYLINE
  5
11e
100
AcDbEntity
  8
0
 62
7
100
AcDbPolyline
 90
23
 70
1
 10
31.520180
 20
207.731474
 30
0.0
 10
31.520180
 20
201.325668
 30
0.0
 10
37.612466
 20
199.346164
 30
0.0
 10
42.055648
 20
205.461680
 30
0.0
 10
42.207622
 20
205.617538
 30
0.0
 10
42.357360
 20
205.775425
 30
0.0
 10
42.366991
 20
205.780981
 30
0.0
 10
42.374743
 20
205.788945
 30
0.0
 10
42.564899
 20
205.895083
 30
0.0
 10
42.753343
 20
206.003721
 30
0.0
 10
42.764138
 20
206.006367
 30
0.0
 10
42.773849
 20
206.011791
 30
0.0
 10
42.986312
 20
206.059336
 30
0.0
 10
43.197949
 20
206.109792
 30
0.0
 10
43.209035
 20
206.109263
 30
0.0
 10
43.219883
 20
206.111644
 30
0.0
 10
43.266508
 20
206.106062
 30
0.0
 10
43.654329
 20
206.084736
 30
0.0
 10
43.759890
 20
206.046940
 30
0.0
 10
43.830505
 20
206.038474
 30
0.0
 10
47.469967
 20
204.855942
 30
0.0
 10
45.523841
 20
207.534552
 30
0.0
 10
38.218814
 20
209.908100
 30
0.0
  0
LWPOLYLINE
  5
11f
100
AcDbEntity
  8
0
 62
7
100
AcDbPolyline
 90
11
 70
1
 10
80.028177
 20
214.780098
 30
0.0
 10
80.028177
 20
208.374292
 30
0.0
 10
87.217396
 20
206.038373
 30
0.0
 10
87.627240
 20
205.836020
 30
0.0
 10
87.962441
 20
205.525277
 30
0.0
 10
88.195211
 20
205.131911
 30
0.0
 10
88.314332
 20
204.528571
 30
0.0
 10
88.314332
 20
200.701815
 30
0.0
 10
90.260456
 20
203.380425
 30
0.0
 10
90.260456
 20
211.061387
 30
0.0
 10
86.120462
 20
216.759602
 30
0.0
  0
LWPOLYLINE
  5
120
100
AcDbEntity
  8
0
 62
7
100
AcDbPolyline
 90
5
 70
1
 10
93.435456
 20
210.423810
 30
0.0
 10
93.435456
 20
204.018004
 30
0.0
 10
99.527741
 20
202.038500
 30
0.0
 10
103.292979
 20
207.220907
 30
0.0
 10
99.527741
 20
212.403314
 30
0.0
  0
LWPOLYLINE
  5
121
100
AcDbEntity
  8
0
 62
7
100
AcDbPolyline
 90
5
 70
1
 10
48.467248
 20
208.884861
 30
0.0
 10
52.232486
 20
203.702454
 30
0.0
 10
58.324771
 20
205.681958
 30
0.0
 10
58.324771
 20
212.087764
 30
0.0
 10
52.232486
 20
214.067268
 30
0.0
  0
LWPOLYLINE
  5
122
100
AcDbEntity
  8
0
 62
7
100
AcDbPolyline
 90
23
 70
1
 10
66.014523
 20
218.939364
 30
0.0
 10
61.499771
 20
212.725341
 30
0.0
 10
61.499771
 20
209.414393
 30
0.0
 10
63.749081
 20
212.510304
 30
0.0
 10
63.901055
 20
212.666162
 30
0.0
 10
64.050794
 20
212.824049
 30
0.0
 10
64.060425
 20
212.829595
 30
0.0
 10
64.068177
 20
212.837559
 30
0.0
 10
64.258301
 20
212.943678
 30
0.0
 10
64.446777
 20
213.052335
 30
0.0
 10
64.457599
 20
213.054901
 30
0.0
 10
64.467309
 20
213.060317
 30
0.0
 10
64.679700
 20
213.107849
 30
0.0
 10
64.891412
 20
213.158321
 30
0.0
 10
64.902498
 20
213.157713
 30
0.0
 10
64.913346
 20
213.160147
 30
0.0
 10
64.959971
 20
213.154562
 30
0.0
 10
65.347792
 20
213.133249
 30
0.0
 10
65.453353
 20
213.095454
 30
0.0
 10
65.523967
 20
213.086995
 30
0.0
 10
72.713189
 20
210.751076
 30
0.0
 10
76.478426
 20
215.933483
 30
0.0
 10
72.713189
 20
221.115890
 30
0.0
  0
LWPOLYLINE
  5
123
100
AcDbEntity
  8
0
 62
7
100
AcDbPolyline
 90
5
 70
1
 10
39.806335
 20
219.136389
 30
0.0
 10
39.806335
 20
212.730583
 30
0.0
 10
45.898620
 20
210.751079
 30
0.0
 10
49.663858
 20
215.933486
 30
0.0
 10
45.898620
 20
221.115893
 30
0.0
  0
LWPOLYLINE
  5
124
100
AcDbEntity
  8
0
 62
7
100
AcDbPolyline
 90
5
 70
1
 10
53.213616
 20
223.492676
 30
0.0
 10
53.213616
 20
217.086871
 30
0.0
 10
59.305902
 20
215.107367
 30
0.0
 10
63.071140
 20
220.289774
 30
0.0
 10
59.305902
 20
225.472181
 30
0.0
  0
LWPOLYLINE
  5
125
100
AcDbEntity
  8
0
 62
7
100
AcDbPolyline
 90
255
 70
1
 10
181.071435
 20
228.361841
 30
0.0
 10
181.490964
 20
228.180418
 30
0.0
 10
181.941970
 20
227.762324
 30
0.0
 10
186.546149
 20
221.425214
 30
0.0
 10
186.758778
 20
221.020606
 30
0.0
 10
186.847313
 20
220.572187
 30
0.0
 10
186.841149
 20
220.506756
 30
0.0
 10
187.079813
 20
220.777604
 30
0.0
 10
187.616814
 20
221.077338
 30
0.0
 10
195.066534
 20
223.497897
 30
0.0
 10
195.517045
 20
223.575089
 30
0.0
 10
195.970877
 20
223.520720
 30
0.0
 10
196.390406
 20
223.339298
 30
0.0
 10
196.841412
 20
222.921203
 30
0.0
 10
201.445590
 20
216.584093
 30
0.0
 10
201.496475
 20
216.487264
 30
0.0
 10
201.561388
 20
216.399211
 30
0.0
 10
201.602239
 20
216.286009
 30
0.0
 10
201.658220
 20
216.179485
 30
0.0
 10
201.679413
 20
216.072172
 30
0.0
 10
201.716547
 20
215.969271
 30
0.0
 10
201.723453
 20
215.849126
 30
0.0
 10
201.746763
 20
215.731066
 30
0.0
 10
201.736497
 20
215.622153
 30
0.0
 10
201.742768
 20
215.512946
 30
0.0
 10
201.715156
 20
215.395826
 30
0.0
 10
201.703858
 20
215.276007
 30
0.0
 10
201.662985
 20
215.174536
 30
0.0
 10
201.637876
 20
215.068065
 30
0.0
 10
201.571117
 20
214.946484
 30
0.0
 10
201.533069
 20
214.852033
 30
0.0
 10
201.488429
 20
214.795899
 30
0.0
 10
201.445585
 20
214.717876
 30
0.0
 10
197.519348
 20
209.313875
 30
0.0
 10
200.767640
 20
204.842983
 30
0.0
 10
207.120427
 20
206.907127
 30
0.0
 10
207.570938
 20
206.984320
 30
0.0
 10
208.024770
 20
206.929950
 30
0.0
 10
208.444298
 20
206.748528
 30
0.0
 10
208.895304
 20
206.330434
 30
0.0
 10
213.499483
 20
199.993324
 30
0.0
 10
213.712113
 20
199.588715
 30
0.0
 10
213.800648
 20
199.140297
 30
0.0
 10
213.757748
 20
198.685237
 30
0.0
 10
213.499483
 20
198.127107
 30
0.0
 10
209.573246
 20
192.723106
 30
0.0
 10
212.821539
 20
188.252214
 30
0.0
 10
219.174325
 20
190.316361
 30
0.0
 10
219.624836
 20
190.393553
 30
0.0
 10
220.078668
 20
190.339184
 30
0.0
 10
220.498196
 20
190.157761
 30
0.0
 10
220.949202
 20
189.739667
 30
0.0
 10
225.553384
 20
183.402557
 30
0.0
 10
225.766014
 20
182.997951
 30
0.0
 10
225.854548
 20
182.549530
 30
0.0
 10
225.811649
 20
182.094471
 30
0.0
 10
225.553384
 20
181.536340
 30
0.0
 10
220.949202
 20
175.199228
 30
0.0
 10
220.630104
 20
174.871973
 30
0.0
 10
220.230988
 20
174.649204
 30
0.0
 10
220.166851
 20
174.634864
 30
0.0
 10
220.498196
 20
174.491576
 30
0.0
 10
220.949202
 20
174.073481
 30
0.0
 10
225.553384
 20
167.736372
 30
0.0
 10
225.766014
 20
167.331766
 30
0.0
 10
225.854548
 20
166.883345
 30
0.0
 10
225.811649
 20
166.428285
 30
0.0
 10
225.553384
 20
165.870154
 30
0.0
 10
220.949202
 20
159.533045
 30
0.0
 10
220.630104
 20
159.205790
 30
0.0
 10
220.230988
 20
158.983019
 30
0.0
 10
219.784946
 20
158.883199
 30
0.0
 10
219.174325
 20
158.956351
 30
0.0
 10
212.821539
 20
161.020498
 30
0.0
 10
209.573246
 20
156.549603
 30
0.0
 10
213.499483
 20
151.145602
 30
0.0
 10
213.712113
 20
150.740994
 30
0.0
 10
213.800648
 20
150.292575
 30
0.0
 10
213.757748
 20
149.837516
 30
0.0
 10
213.499483
 20
149.279385
 30
0.0
 10
208.895304
 20
142.942276
 30
0.0
 10
208.576206
 20
142.615020
 30
0.0
 10
208.177093
 20
142.392252
 30
0.0
 10
207.731048
 20
142.292430
 30
0.0
 10
207.120426
 20
142.365582
 30
0.0
 10
200.767640
 20
144.429729
 30
0.0
 10
197.519348
 20
139.958837
 30
0.0
 10
201.445585
 20
134.554836
 30
0.0
 10
201.658215
 20
134.150227
 30
0.0
 10
201.746750
 20
133.701809
 30
0.0
 10
201.703850
 20
133.246749
 30
0.0
 10
201.445585
 20
132.688618
 30
0.0
 10
196.841406
 20
126.351506
 30
0.0
 10
196.522308
 20
126.024251
 30
0.0
 10
196.123195
 20
125.801482
 30
0.0
 10
195.677150
 20
125.701660
 30
0.0
 10
195.066528
 20
125.774812
 30
0.0
 10
187.616809
 20
128.195374
 30
0.0
 10
187.206964
 20
128.397728
 30
0.0
 10
186.871763
 20
128.708470
 30
0.0
 10
186.838294
 20
128.765033
 30
0.0
 10
186.804411
 20
128.405625
 30
0.0
 10
186.546146
 20
127.847495
 30
0.0
 10
181.941967
 20
121.510385
 30
0.0
 10
181.622869
 20
121.183130
 30
0.0
 10
181.223756
 20
120.960362
 30
0.0
 10
180.777711
 20
120.860540
 30
0.0
 10
180.167089
 20
120.933692
 30
0.0
 10
172.717370
 20
123.354253
 30
0.0
 10
172.307525
 20
123.556607
 30
0.0
 10
171.972325
 20
123.867349
 30
0.0
 10
171.739555
 20
124.260716
 30
0.0
 10
171.620434
 20
124.864056
 30
0.0
 10
171.620434
 20
131.543769
 30
0.0
 10
166.364584
 20
133.251498
 30
0.0
 10
162.438347
 20
127.847495
 30
0.0
 10
162.119249
 20
127.520240
 30
0.0
 10
161.720133
 20
127.297471
 30
0.0
 10
161.274091
 20
127.197649
 30
0.0
 10
160.663469
 20
127.270801
 30
0.0
 10
153.213750
 20
129.691363
 30
0.0
 10
152.803905
 20
129.893716
 30
0.0
 10
152.468704
 20
130.204459
 30
0.0
 10
152.235935
 20
130.597825
 30
0.0
 10
152.116814
 20
131.201165
 30
0.0
 10
152.116814
 20
137.880878
 30
0.0
 10
146.860964
 20
139.588608
 30
0.0
 10
142.934730
 20
134.184607
 30
0.0
 10
142.615632
 20
133.857352
 30
0.0
 10
142.216518
 20
133.634583
 30
0.0
 10
141.770473
 20
133.534761
 30
0.0
 10
141.159852
 20
133.607913
 30
0.0
 10
133.710132
 20
136.028472
 30
0.0
 10
133.300287
 20
136.230826
 30
0.0
 10
132.965087
 20
136.541566
 30
0.0
 10
132.732317
 20
136.934935
 30
0.0
 10
132.613196
 20
137.538275
 30
0.0
 10
132.613196
 20
145.371373
 30
0.0
 10
132.678998
 20
145.823689
 30
0.0
 10
132.870945
 20
146.238508
 30
0.0
 10
132.914395
 20
146.287818
 30
0.0
 10
132.562113
 20
146.208980
 30
0.0
 10
131.951492
 20
146.282132
 30
0.0
 10
124.501772
 20
148.702691
 30
0.0
 10
124.091928
 20
148.905045
 30
0.0
 10
123.756727
 20
149.215785
 30
0.0
 10
123.523957
 20
149.609154
 30
0.0
 10
123.404836
 20
150.212494
 30
0.0
 10
123.404836
 20
158.045594
 30
0.0
 10
123.420579
 20
158.153841
 30
0.0
 10
123.419785
 20
158.263233
 30
0.0
 10
123.453276
 20
158.378829
 30
0.0
 10
123.470606
 20
158.497910
 30
0.0
 10
123.516541
 20
158.597182
 30
0.0
 10
123.546984
 20
158.702259
 30
0.0
 10
123.612018
 20
158.803515
 30
0.0
 10
123.662554
 20
158.912729
 30
0.0
 10
123.734878
 20
158.994806
 30
0.0
 10
123.793991
 20
159.086844
 30
0.0
 10
123.885177
 20
159.165372
 30
0.0
 10
123.964740
 20
159.255664
 30
0.0
 10
124.057450
 20
159.313729
 30
0.0
 10
124.140336
 20
159.385111
 30
0.0
 10
124.265804
 20
159.444230
 30
0.0
 10
124.352108
 20
159.498284
 30
0.0
 10
124.421223
 20
159.517466
 30
0.0
 10
124.501741
 20
159.555405
 30
0.0
 10
130.854524
 20
161.619549
 30
0.0
 10
130.854524
 20
167.145875
 30
0.0
 10
124.501741
 20
169.210019
 30
0.0
 10
124.091896
 20
169.412372
 30
0.0
 10
123.756695
 20
169.723115
 30
0.0
 10
123.523925
 20
170.116481
 30
0.0
 10
123.404805
 20
170.719821
 30
0.0
 10
123.404805
 20
178.552898
 30
0.0
 10
123.409011
 20
178.581875
 30
0.0
 10
123.405863
 20
178.610982
 30
0.0
 10
123.441838
 20
178.807499
 30
0.0
 10
123.470601
 20
179.005214
 30
0.0
 10
123.482904
 20
179.031786
 30
0.0
 10
123.488170
 20
179.060589
 30
0.0
 10
123.578646
 20
179.238709
 30
0.0
 10
123.662548
 20
179.420033
 30
0.0
 10
123.681916
 20
179.441994
 30
0.0
 10
123.695172
 20
179.468108
 30
0.0
 10
123.832633
 20
179.613052
 30
0.0
 10
123.964740
 20
179.762970
 30
0.0
 10
123.986144
 20
179.774929
 30
0.0
 10
124.009692
 20
179.799774
 30
0.0
 10
124.405678
 20
180.028059
 30
0.0
 10
124.464940
 20
180.042188
 30
0.0
 10
124.501730
 20
180.062719
 30
0.0
 10
130.854513
 20
182.126864
 30
0.0
 10
130.854513
 20
187.653189
 30
0.0
 10
124.501730
 20
189.717333
 30
0.0
 10
124.091885
 20
189.919687
 30
0.0
 10
123.756685
 20
190.230427
 30
0.0
 10
123.523915
 20
190.623796
 30
0.0
 10
123.404794
 20
191.227136
 30
0.0
 10
123.404794
 20
199.060234
 30
0.0
 10
123.470596
 20
199.512550
 30
0.0
 10
123.662543
 20
199.927369
 30
0.0
 10
123.964729
 20
200.270303
 30
0.0
 10
124.501730
 20
200.570036
 30
0.0
 10
131.951450
 20
202.990598
 30
0.0
 10
132.401961
 20
203.067790
 30
0.0
 10
132.855793
 20
203.013421
 30
0.0
 10
132.916115
 20
202.987333
 30
0.0
 10
132.732275
 20
203.298012
 30
0.0
 10
132.613154
 20
203.901352
 30
0.0
 10
132.613154
 20
211.734437
 30
0.0
 10
132.678956
 20
212.186753
 30
0.0
 10
132.870903
 20
212.601572
 30
0.0
 10
133.173089
 20
212.944506
 30
0.0
 10
133.710090
 20
213.244239
 30
0.0
 10
141.159809
 20
215.664799
 30
0.0
 10
141.267627
 20
215.683272
 30
0.0
 10
141.371428
 20
215.717797
 30
0.0
 10
141.491711
 20
215.721668
 30
0.0
 10
141.610321
 20
215.741991
 30
0.0
 10
141.718930
 20
215.728979
 30
0.0
 10
141.828269
 20
215.732498
 30
0.0
 10
141.944672
 20
215.701936
 30
0.0
 10
142.064153
 20
215.687622
 30
0.0
 10
142.164549
 20
215.644206
 30
0.0
 10
142.270361
 20
215.616425
 30
0.0
 10
142.373236
 20
215.553962
 30
0.0
 10
142.483681
 20
215.506199
 30
0.0
 10
142.567546
 20
215.435979
 30
0.0
 10
142.661058
 20
215.379199
 30
0.0
 10
142.756057
 20
215.278137
 30
0.0
 10
142.834132
 20
215.212763
 30
0.0
 10
142.873725
 20
215.152960
 30
0.0
 10
142.934687
 20
215.088105
 30
0.0
 10
146.860921
 20
209.684104
 30
0.0
 10
152.116771
 20
211.391833
 30
0.0
 10
152.116771
 20
218.071547
 30
0.0
 10
152.182573
 20
218.523862
 30
0.0
 10
152.374521
 20
218.938681
 30
0.0
 10
152.676707
 20
219.281616
 30
0.0
 10
153.213708
 20
219.581349
 30
0.0
 10
160.663427
 20
222.001908
 30
0.0
 10
161.113938
 20
222.079100
 30
0.0
 10
161.567770
 20
222.024731
 30
0.0
 10
161.987299
 20
221.843309
 30
0.0
 10
162.438305
 20
221.425214
 30
0.0
 10
166.364542
 20
216.021214
 30
0.0
 10
171.620392
 20
217.728943
 30
0.0
 10
171.620392
 20
224.408656
 30
0.0
 10
171.686194
 20
224.860972
 30
0.0
 10
171.878141
 20
225.275791
 30
0.0
 10
172.180327
 20
225.618725
 30
0.0
 10
172.717328
 20
225.918458
 30
0.0
 10
180.167047
 20
228.339018
 30
0.0
 10
180.617558
 20
228.416210
 30
0.0
  0
LWPOLYLINE
  5
126
100
AcDbEntity
  8
0
 62
7
100
AcDbPolyline
 90
5
 70
1
 10
174.795437
 20
131.543756
 30
0.0
 10
174.795437
 20
126.017427
 30
0.0
 10
180.051287
 20
124.309698
 30
0.0
 10
183.299579
 20
128.780590
 30
0.0
 10
180.051287
 20
133.251485
 30
0.0
  0
LWPOLYLINE
  5
127
100
AcDbEntity
  8
0
 62
7
100
AcDbPolyline
 90
5
 70
1
 10
189.694876
 20
136.384877
 30
0.0
 10
189.694876
 20
130.858548
 30
0.0
 10
194.950726
 20
129.150819
 30
0.0
 10
198.199018
 20
133.621714
 30
0.0
 10
194.950726
 20
138.092606
 30
0.0
  0
LWPOLYLINE
  5
128
100
AcDbEntity
  8
0
 62
7
100
AcDbPolyline
 90
55
 70
1
 10
174.189065
 20
156.695172
 30
0.0
 10
170.566014
 20
151.708469
 30
0.0
 10
174.492251
 20
146.304468
 30
0.0
 10
174.704880
 20
145.899862
 30
0.0
 10
174.793415
 20
145.451441
 30
0.0
 10
174.750516
 20
144.996382
 30
0.0
 10
174.492251
 20
144.438251
 30
0.0
 10
170.566014
 20
139.034250
 30
0.0
 10
173.814306
 20
134.563358
 30
0.0
 10
180.167092
 20
136.627505
 30
0.0
 10
180.617603
 20
136.704697
 30
0.0
 10
181.071435
 20
136.650328
 30
0.0
 10
181.490964
 20
136.468906
 30
0.0
 10
181.941970
 20
136.050811
 30
0.0
 10
186.519876
 20
129.749860
 30
0.0
 10
186.519876
 20
137.538262
 30
0.0
 10
186.535618
 20
137.646508
 30
0.0
 10
186.534825
 20
137.755900
 30
0.0
 10
186.568313
 20
137.871496
 30
0.0
 10
186.585643
 20
137.990577
 30
0.0
 10
186.631580
 20
138.089852
 30
0.0
 10
186.662020
 20
138.194923
 30
0.0
 10
186.727050
 20
138.296174
 30
0.0
 10
186.777590
 20
138.405396
 30
0.0
 10
186.849917
 20
138.487475
 30
0.0
 10
186.909027
 20
138.579511
 30
0.0
 10
187.000213
 20
138.658039
 30
0.0
 10
187.079776
 20
138.748331
 30
0.0
 10
187.172486
 20
138.806396
 30
0.0
 10
187.255372
 20
138.877778
 30
0.0
 10
187.380840
 20
138.936897
 30
0.0
 10
187.467145
 20
138.990951
 30
0.0
 10
187.536259
 20
139.010133
 30
0.0
 10
187.616777
 20
139.048072
 30
0.0
 10
193.969561
 20
141.112216
 30
0.0
 10
193.969561
 20
146.638542
 30
0.0
 10
187.616777
 20
148.702686
 30
0.0
 10
187.518688
 20
148.751115
 30
0.0
 10
187.414421
 20
148.784196
 30
0.0
 10
187.314840
 20
148.851763
 30
0.0
 10
187.206932
 20
148.905039
 30
0.0
 10
187.126711
 20
148.979408
 30
0.0
 10
187.036189
 20
149.040826
 30
0.0
 10
186.959986
 20
149.133965
 30
0.0
 10
186.871732
 20
149.215779
 30
0.0
 10
186.816021
 20
149.309929
 30
0.0
 10
186.746756
 20
149.394587
 30
0.0
 10
186.700250
 20
149.505575
 30
0.0
 10
186.638962
 20
149.609149
 30
0.0
 10
186.623034
 20
149.689881
 30
0.0
 10
186.570123
 20
149.816153
 30
0.0
 10
186.536137
 20
150.130005
 30
0.0
 10
186.519839
 20
150.212488
 30
0.0
 10
186.519839
 20
156.892202
 30
0.0
 10
180.657619
 20
158.796953
 30
0.0
  0
LWPOLYLINE
  5
129
100
AcDbEntity
  8
0
 62
7
100
AcDbPolyline
 90
5
 70
1
 10
155.291816
 20
137.880865
 30
0.0
 10
155.291816
 20
132.354537
 30
0.0
 10
160.547666
 20
130.646808
 30
0.0
 10
163.795959
 20
135.117702
 30
0.0
 10
160.547666
 20
139.588595
 30
0.0
  0
LWPOLYLINE
  5
12a
100
AcDbEntity
  8
0
 62
7
100
AcDbPolyline
 90
38
 70
1
 10
162.741536
 20
160.808744
 30
0.0
 10
162.741536
 20
154.129031
 30
0.0
 10
162.675734
 20
153.676715
 30
0.0
 10
162.483787
 20
153.261896
 30
0.0
 10
162.181601
 20
152.918962
 30
0.0
 10
161.794232
 20
152.676341
 30
0.0
 10
161.700170
 20
152.650253
 30
0.0
 10
161.644600
 20
152.619236
 30
0.0
 10
155.291816
 20
150.555092
 30
0.0
 10
155.291816
 20
143.875379
 30
0.0
 10
155.226015
 20
143.423063
 30
0.0
 10
155.034067
 20
143.008244
 30
0.0
 10
154.731881
 20
142.665310
 30
0.0
 10
154.344513
 20
142.422689
 30
0.0
 10
154.250451
 20
142.396602
 30
0.0
 10
154.194880
 20
142.365584
 30
0.0
 10
151.391855
 20
141.454828
 30
0.0
 10
153.704316
 20
140.703461
 30
0.0
 10
160.663472
 20
142.964630
 30
0.0
 10
161.113983
 20
143.041822
 30
0.0
 10
161.567815
 20
142.987453
 30
0.0
 10
161.987344
 20
142.806031
 30
0.0
 10
162.438350
 20
142.387936
 30
0.0
 10
166.739345
 20
136.468128
 30
0.0
 10
169.051806
 20
135.716761
 30
0.0
 10
167.319441
 20
138.101157
 30
0.0
 10
167.106812
 20
138.505763
 30
0.0
 10
167.018277
 20
138.954185
 30
0.0
 10
167.061176
 20
139.409244
 30
0.0
 10
167.319441
 20
139.967375
 30
0.0
 10
171.245678
 20
145.371375
 30
0.0
 10
167.319441
 20
150.775376
 30
0.0
 10
167.106812
 20
151.179982
 30
0.0
 10
167.018277
 20
151.628404
 30
0.0
 10
167.061176
 20
152.083463
 30
0.0
 10
167.319441
 20
152.641594
 30
0.0
 10
171.245678
 20
158.045597
 30
0.0
 10
167.997386
 20
162.516489
 30
0.0
  0
LWPOLYLINE
  5
12b
100
AcDbEntity
  8
0
 62
7
100
AcDbPolyline
 90
5
 70
1
 10
135.788199
 20
144.217975
 30
0.0
 10
135.788199
 20
138.691649
 30
0.0
 10
141.044049
 20
136.983920
 30
0.0
 10
144.292341
 20
141.454812
 30
0.0
 10
141.044049
 20
145.925704
 30
0.0
  0
LWPOLYLINE
  5
12c
100
AcDbEntity
  8
0
 62
7
100
AcDbPolyline
 90
68
 70
1
 10
145.780271
 20
163.449582
 30
0.0
 10
145.648410
 20
163.314351
 30
0.0
 10
145.523521
 20
163.172622
 30
0.0
 10
145.489335
 20
163.151217
 30
0.0
 10
145.461172
 20
163.122335
 30
0.0
 10
145.296231
 20
163.030270
 30
0.0
 10
145.136153
 20
162.930009
 30
0.0
 10
145.097283
 20
162.919214
 30
0.0
 10
145.062056
 20
162.899556
 30
0.0
 10
144.877711
 20
162.858302
 30
0.0
 10
144.695712
 20
162.807809
 30
0.0
 10
144.655384
 20
162.808603
 30
0.0
 10
144.616014
 20
162.799792
 30
0.0
 10
144.522111
 20
162.811037
 30
0.0
 10
144.238713
 20
162.816223
 30
0.0
 10
144.093046
 20
162.862437
 30
0.0
 10
144.005393
 20
162.872941
 30
0.0
 10
137.652609
 20
164.937085
 30
0.0
 10
134.404317
 20
160.466193
 30
0.0
 10
138.330554
 20
155.062193
 30
0.0
 10
138.543183
 20
154.657586
 30
0.0
 10
138.631718
 20
154.209165
 30
0.0
 10
138.588819
 20
153.754106
 30
0.0
 10
138.330554
 20
153.195975
 30
0.0
 10
133.752646
 20
146.895026
 30
0.0
 10
141.159854
 20
149.301777
 30
0.0
 10
141.267672
 20
149.320245
 30
0.0
 10
141.371473
 20
149.354770
 30
0.0
 10
141.491756
 20
149.358633
 30
0.0
 10
141.610366
 20
149.378953
 30
0.0
 10
141.718975
 20
149.365936
 30
0.0
 10
141.828314
 20
149.369455
 30
0.0
 10
141.944717
 20
149.338893
 30
0.0
 10
142.064198
 20
149.324579
 30
0.0
 10
142.164594
 20
149.281163
 30
0.0
 10
142.270406
 20
149.253382
 30
0.0
 10
142.373281
 20
149.190919
 30
0.0
 10
142.483726
 20
149.143156
 30
0.0
 10
142.567591
 20
149.072936
 30
0.0
 10
142.661103
 20
149.016156
 30
0.0
 10
142.756102
 20
148.915094
 30
0.0
 10
142.834175
 20
148.849723
 30
0.0
 10
142.873767
 20
148.789917
 30
0.0
 10
142.934732
 20
148.725062
 30
0.0
 10
146.860966
 20
143.321061
 30
0.0
 10
152.116816
 20
145.028790
 30
0.0
 10
152.116816
 20
151.708501
 30
0.0
 10
152.121023
 20
151.737478
 30
0.0
 10
152.117875
 20
151.766585
 30
0.0
 10
152.153850
 20
151.963101
 30
0.0
 10
152.182613
 20
152.160817
 30
0.0
 10
152.194916
 20
152.187389
 30
0.0
 10
152.200181
 20
152.216191
 30
0.0
 10
152.290658
 20
152.394311
 30
0.0
 10
152.374560
 20
152.575636
 30
0.0
 10
152.393928
 20
152.597596
 30
0.0
 10
152.407183
 20
152.623711
 30
0.0
 10
152.544645
 20
152.768655
 30
0.0
 10
152.676752
 20
152.918573
 30
0.0
 10
152.698156
 20
152.930532
 30
0.0
 10
152.721704
 20
152.955376
 30
0.0
 10
153.117690
 20
153.183661
 30
0.0
 10
153.176952
 20
153.197790
 30
0.0
 10
153.213742
 20
153.218322
 30
0.0
 10
159.566525
 20
155.282466
 30
0.0
 10
159.566525
 20
161.446321
 30
0.0
 10
155.568729
 20
166.948829
 30
0.0
 10
149.706507
 20
168.853583
 30
0.0
  0
LWPOLYLINE
  5
12d
100
AcDbEntity
  8
0
 62
7
100
AcDbPolyline
 90
52
 70
1
 10
182.245156
 20
167.145854
 30
0.0
 10
182.245156
 20
161.619528
 30
0.0
 10
188.597940
 20
159.555384
 30
0.0
 10
188.721926
 20
159.494167
 30
0.0
 10
188.852090
 20
159.447563
 30
0.0
 10
188.925803
 20
159.393506
 30
0.0
 10
189.007784
 20
159.353030
 30
0.0
 10
189.109197
 20
159.259019
 30
0.0
 10
189.220679
 20
159.177265
 30
0.0
 10
189.275932
 20
159.104449
 30
0.0
 10
189.342985
 20
159.042290
 30
0.0
 10
189.413401
 20
158.923289
 30
0.0
 10
189.496978
 20
158.813151
 30
0.0
 10
189.511186
 20
158.758038
 30
0.0
 10
189.575752
 20
158.648921
 30
0.0
 10
189.694873
 20
158.045581
 30
0.0
 10
189.694873
 20
151.365868
 30
0.0
 10
196.047656
 20
149.301724
 30
0.0
 10
196.171643
 20
149.240507
 30
0.0
 10
196.301807
 20
149.193904
 30
0.0
 10
196.375520
 20
149.139846
 30
0.0
 10
196.457501
 20
149.099371
 30
0.0
 10
196.558913
 20
149.005359
 30
0.0
 10
196.670396
 20
148.923605
 30
0.0
 10
196.725648
 20
148.850789
 30
0.0
 10
196.792702
 20
148.788631
 30
0.0
 10
196.863118
 20
148.669629
 30
0.0
 10
196.946695
 20
148.559491
 30
0.0
 10
196.960903
 20
148.504378
 30
0.0
 10
197.025469
 20
148.395261
 30
0.0
 10
197.144590
 20
147.791921
 30
0.0
 10
197.144590
 20
144.844646
 30
0.0
 10
198.573768
 20
146.811741
 30
0.0
 10
198.573768
 20
154.129031
 30
0.0
 10
198.639570
 20
154.581347
 30
0.0
 10
198.831517
 20
154.996166
 30
0.0
 10
199.133703
 20
155.339100
 30
0.0
 10
199.670704
 20
155.638833
 30
0.0
 10
206.629860
 20
157.900000
 30
0.0
 10
208.059039
 20
159.867097
 30
0.0
 10
205.256014
 20
158.956338
 30
0.0
 10
204.805502
 20
158.879146
 30
0.0
 10
204.351670
 20
158.933515
 30
0.0
 10
203.932142
 20
159.114937
 30
0.0
 10
203.481136
 20
159.533032
 30
0.0
 10
199.554899
 20
164.937033
 30
0.0
 10
193.202113
 20
162.872888
 30
0.0
 10
192.751602
 20
162.795696
 30
0.0
 10
192.297770
 20
162.850065
 30
0.0
 10
191.878241
 20
163.031487
 30
0.0
 10
191.427235
 20
163.449582
 30
0.0
 10
187.501001
 20
168.853583
 30
0.0
  0
LWPOLYLINE
  5
12e
100
AcDbEntity
  8
0
 62
7
100
AcDbPolyline
 90
5
 70
1
 10
201.748774
 20
152.975643
 30
0.0
 10
201.748774
 20
147.449318
 30
0.0
 10
207.004624
 20
145.741588
 30
0.0
 10
210.252916
 20
150.212481
 30
0.0
 10
207.004624
 20
154.683373
 30
0.0
  0
LWPOLYLINE
  5
12f
100
AcDbEntity
  8
0
 62
7
100
AcDbPolyline
 90
5
 70
1
 10
126.579839
 20
156.892194
 30
0.0
 10
126.579839
 20
151.365868
 30
0.0
 10
131.835689
 20
149.658139
 30
0.0
 10
135.083981
 20
154.129031
 30
0.0
 10
131.835689
 20
158.599923
 30
0.0
  0
LWPOLYLINE
  5
130
100
AcDbEntity
  8
0
 62
7
100
AcDbPolyline
 90
72
 70
1
 10
169.888069
 20
183.956899
 30
0.0
 10
169.756209
 20
183.821668
 30
0.0
 10
169.631320
 20
183.679939
 30
0.0
 10
169.597133
 20
183.658534
 30
0.0
 10
169.568971
 20
183.629652
 30
0.0
 10
169.404030
 20
183.537587
 30
0.0
 10
169.243952
 20
183.437326
 30
0.0
 10
169.205082
 20
183.426531
 30
0.0
 10
169.169855
 20
183.406873
 30
0.0
 10
168.985509
 20
183.365619
 30
0.0
 10
168.803511
 20
183.315126
 30
0.0
 10
168.763183
 20
183.315920
 30
0.0
 10
168.723813
 20
183.307109
 30
0.0
 10
168.629909
 20
183.318354
 30
0.0
 10
168.346512
 20
183.323540
 30
0.0
 10
168.200845
 20
183.369754
 30
0.0
 10
168.113191
 20
183.380258
 30
0.0
 10
161.760405
 20
185.444405
 30
0.0
 10
158.512113
 20
180.973510
 30
0.0
 10
162.438350
 20
175.569510
 30
0.0
 10
162.650980
 20
175.164901
 30
0.0
 10
162.739514
 20
174.716482
 30
0.0
 10
162.696615
 20
174.261423
 30
0.0
 10
162.438350
 20
173.703292
 30
0.0
 10
158.512113
 20
168.299291
 30
0.0
 10
161.760405
 20
163.828399
 30
0.0
 10
168.113191
 20
165.892546
 30
0.0
 10
168.563703
 20
165.969738
 30
0.0
 10
169.017535
 20
165.915369
 30
0.0
 10
169.437063
 20
165.733947
 30
0.0
 10
169.888069
 20
165.315852
 30
0.0
 10
173.814306
 20
159.911852
 30
0.0
 10
179.070156
 20
161.619581
 30
0.0
 10
179.070156
 20
168.299291
 30
0.0
 10
179.074363
 20
168.328269
 30
0.0
 10
179.071214
 20
168.357375
 30
0.0
 10
179.107190
 20
168.553892
 30
0.0
 10
179.135953
 20
168.751607
 30
0.0
 10
179.148256
 20
168.778179
 30
0.0
 10
179.153521
 20
168.806982
 30
0.0
 10
179.243998
 20
168.985102
 30
0.0
 10
179.327900
 20
169.166426
 30
0.0
 10
179.347267
 20
169.188387
 30
0.0
 10
179.360523
 20
169.214501
 30
0.0
 10
179.497985
 20
169.359445
 30
0.0
 10
179.630091
 20
169.509363
 30
0.0
 10
179.651496
 20
169.521322
 30
0.0
 10
179.675044
 20
169.546167
 30
0.0
 10
180.071030
 20
169.774452
 30
0.0
 10
180.130291
 20
169.788581
 30
0.0
 10
180.167082
 20
169.809112
 30
0.0
 10
186.519865
 20
171.873257
 30
0.0
 10
186.519865
 20
177.399582
 30
0.0
 10
180.167082
 20
179.463726
 30
0.0
 10
180.068993
 20
179.512156
 30
0.0
 10
179.964726
 20
179.545237
 30
0.0
 10
179.865144
 20
179.612803
 30
0.0
 10
179.757237
 20
179.666080
 30
0.0
 10
179.677015
 20
179.740449
 30
0.0
 10
179.586493
 20
179.801867
 30
0.0
 10
179.510290
 20
179.895005
 30
0.0
 10
179.422036
 20
179.976820
 30
0.0
 10
179.366325
 20
180.070969
 30
0.0
 10
179.297060
 20
180.155628
 30
0.0
 10
179.250554
 20
180.266615
 30
0.0
 10
179.189266
 20
180.370189
 30
0.0
 10
179.173338
 20
180.450921
 30
0.0
 10
179.120427
 20
180.577194
 30
0.0
 10
179.086441
 20
180.891045
 30
0.0
 10
179.070169
 20
180.973529
 30
0.0
 10
179.070169
 20
187.653242
 30
0.0
 10
173.814319
 20
189.360971
 30
0.0
  0
LWPOLYLINE
  5
131
100
AcDbEntity
  8
0
 62
7
100
AcDbPolyline
 90
55
 70
1
 10
201.445588
 20
181.536340
 30
0.0
 10
201.313727
 20
181.401109
 30
0.0
 10
201.188839
 20
181.259379
 30
0.0
 10
201.154652
 20
181.237975
 30
0.0
 10
201.126490
 20
181.209093
 30
0.0
 10
200.961548
 20
181.117028
 30
0.0
 10
200.801470
 20
181.016767
 30
0.0
 10
200.762600
 20
181.005972
 30
0.0
 10
200.727373
 20
180.986314
 30
0.0
 10
200.543028
 20
180.945060
 30
0.0
 10
200.361029
 20
180.894567
 30
0.0
 10
200.320701
 20
180.895360
 30
0.0
 10
200.281331
 20
180.886550
 30
0.0
 10
200.187428
 20
180.897795
 30
0.0
 10
199.904030
 20
180.902980
 30
0.0
 10
199.758363
 20
180.949195
 30
0.0
 10
199.670710
 20
180.959699
 30
0.0
 10
193.317924
 20
183.023843
 30
0.0
 10
189.694876
 20
178.037143
 30
0.0
 10
189.694876
 20
171.235661
 30
0.0
 10
193.317924
 20
166.248961
 30
0.0
 10
199.670710
 20
168.313105
 30
0.0
 10
200.121221
 20
168.390297
 30
0.0
 10
200.575053
 20
168.335928
 30
0.0
 10
200.994581
 20
168.154506
 30
0.0
 10
201.445588
 20
167.736412
 30
0.0
 10
205.371824
 20
162.332411
 30
0.0
 10
210.627672
 20
164.040140
 30
0.0
 10
210.627672
 20
170.719853
 30
0.0
 10
210.693474
 20
171.172169
 30
0.0
 10
210.885421
 20
171.586988
 30
0.0
 10
211.187607
 20
171.929922
 30
0.0
 10
211.724608
 20
172.229656
 30
0.0
 10
219.131811
 20
174.636401
 30
0.0
 10
211.724608
 20
177.043149
 30
0.0
 10
211.626519
 20
177.091578
 30
0.0
 10
211.522252
 20
177.124659
 30
0.0
 10
211.422671
 20
177.192226
 30
0.0
 10
211.314763
 20
177.245502
 30
0.0
 10
211.234544
 20
177.319869
 30
0.0
 10
211.144019
 20
177.381289
 30
0.0
 10
211.067811
 20
177.474435
 30
0.0
 10
210.979562
 20
177.556245
 30
0.0
 10
210.923857
 20
177.650386
 30
0.0
 10
210.854586
 20
177.735050
 30
0.0
 10
210.808081
 20
177.846040
 30
0.0
 10
210.746792
 20
177.949611
 30
0.0
 10
210.720218
 20
178.055728
 30
0.0
 10
210.677943
 20
178.156616
 30
0.0
 10
210.660480
 20
178.294220
 30
0.0
 10
210.635742
 20
178.392995
 30
0.0
 10
210.638864
 20
178.464644
 30
0.0
 10
210.627672
 20
178.552951
 30
0.0
 10
210.627672
 20
185.232664
 30
0.0
 10
205.371824
 20
186.940394
 30
0.0
  0
LWPOLYLINE
  5
132
100
AcDbEntity
  8
0
 62
7
100
AcDbPolyline
 90
5
 70
1
 10
213.802672
 20
169.566413
 30
0.0
 10
213.802672
 20
164.040087
 30
0.0
 10
219.058522
 20
162.332358
 30
0.0
 10
222.306814
 20
166.803250
 30
0.0
 10
219.058522
 20
171.274142
 30
0.0
  0
LWPOLYLINE
  5
133
100
AcDbEntity
  8
0
 62
7
100
AcDbPolyline
 90
58
 70
1
 10
134.029558
 20
181.489265
 30
0.0
 10
138.330554
 20
175.569457
 30
0.0
 10
138.543183
 20
175.164851
 30
0.0
 10
138.631718
 20
174.716429
 30
0.0
 10
138.588819
 20
174.261370
 30
0.0
 10
138.330554
 20
173.703239
 30
0.0
 10
134.029558
 20
167.783431
 30
0.0
 10
134.029558
 20
165.351960
 30
0.0
 10
135.761926
 20
167.736359
 30
0.0
 10
135.913900
 20
167.892217
 30
0.0
 10
136.063638
 20
168.050104
 30
0.0
 10
136.073269
 20
168.055660
 30
0.0
 10
136.081048
 20
168.063624
 30
0.0
 10
136.271204
 20
168.169762
 30
0.0
 10
136.459648
 20
168.278400
 30
0.0
 10
136.470443
 20
168.281046
 30
0.0
 10
136.480153
 20
168.286470
 30
0.0
 10
136.692616
 20
168.334015
 30
0.0
 10
136.904254
 20
168.384471
 30
0.0
 10
136.915340
 20
168.383942
 30
0.0
 10
136.926188
 20
168.386323
 30
0.0
 10
136.972813
 20
168.380741
 30
0.0
 10
137.360634
 20
168.359442
 30
0.0
 10
137.466194
 20
168.321646
 30
0.0
 10
137.536809
 20
168.313179
 30
0.0
 10
143.889592
 20
166.249035
 30
0.0
 10
147.815829
 20
171.653036
 30
0.0
 10
147.967803
 20
171.808894
 30
0.0
 10
148.117541
 20
171.966782
 30
0.0
 10
148.127172
 20
171.972338
 30
0.0
 10
148.134925
 20
171.980302
 30
0.0
 10
148.325081
 20
172.086439
 30
0.0
 10
148.513525
 20
172.195077
 30
0.0
 10
148.524320
 20
172.197723
 30
0.0
 10
148.534030
 20
172.203147
 30
0.0
 10
148.746493
 20
172.250693
 30
0.0
 10
148.958131
 20
172.301149
 30
0.0
 10
148.969217
 20
172.300620
 30
0.0
 10
148.980065
 20
172.303001
 30
0.0
 10
149.026689
 20
172.297418
 30
0.0
 10
149.414510
 20
172.276119
 30
0.0
 10
149.520071
 20
172.238323
 30
0.0
 10
149.590686
 20
172.229857
 30
0.0
 10
155.943472
 20
170.165710
 30
0.0
 10
159.191764
 20
174.636602
 30
0.0
 10
155.943472
 20
179.107494
 30
0.0
 10
149.590686
 20
177.043350
 30
0.0
 10
149.140175
 20
176.966158
 30
0.0
 10
148.686343
 20
177.020527
 30
0.0
 10
148.266814
 20
177.201949
 30
0.0
 10
147.815808
 20
177.620044
 30
0.0
 10
143.889571
 20
183.024044
 30
0.0
 10
137.536788
 20
180.959900
 30
0.0
 10
137.086276
 20
180.882708
 30
0.0
 10
136.632445
 20
180.937077
 30
0.0
 10
136.212916
 20
181.118499
 30
0.0
 10
135.761910
 20
181.536594
 30
0.0
 10
134.029543
 20
183.920993
 30
0.0
  0
LWPOLYLINE
  5
134
100
AcDbEntity
  8
0
 62
7
100
AcDbPolyline
 90
5
 70
1
 10
126.579839
 20
177.399511
 30
0.0
 10
126.579839
 20
171.873185
 30
0.0
 10
131.835689
 20
170.165456
 30
0.0
 10
135.083981
 20
174.636348
 30
0.0
 10
131.835689
 20
179.107240
 30
0.0
  0
LWPOLYLINE
  5
135
100
AcDbEntity
  8
0
 62
7
100
AcDbPolyline
 90
5
 70
1
 10
213.802672
 20
185.232611
 30
0.0
 10
213.802672
 20
179.706283
 30
0.0
 10
219.058522
 20
177.998554
 30
0.0
 10
222.306814
 20
182.469449
 30
0.0
 10
219.058522
 20
186.940341
 30
0.0
  0
LWPOLYLINE
  5
136
100
AcDbEntity
  8
0
 62
7
100
AcDbPolyline
 90
41
 70
1
 10
142.934732
 20
200.547668
 30
0.0
 10
142.615634
 20
200.220413
 30
0.0
 10
142.216521
 20
199.997645
 30
0.0
 10
141.770476
 20
199.897823
 30
0.0
 10
141.159854
 20
199.970975
 30
0.0
 10
133.752648
 20
202.377720
 30
0.0
 10
138.330554
 20
196.076776
 30
0.0
 10
138.543183
 20
195.672170
 30
0.0
 10
138.631718
 20
195.223749
 30
0.0
 10
138.588819
 20
194.768690
 30
0.0
 10
138.330554
 20
194.210559
 30
0.0
 10
134.404317
 20
188.806558
 30
0.0
 10
137.652609
 20
184.335666
 30
0.0
 10
144.005393
 20
186.399810
 30
0.0
 10
144.455904
 20
186.477002
 30
0.0
 10
144.909736
 20
186.422633
 30
0.0
 10
145.329264
 20
186.241211
 30
0.0
 10
145.780271
 20
185.823117
 30
0.0
 10
149.706507
 20
180.419116
 30
0.0
 10
155.568729
 20
182.323867
 30
0.0
 10
159.566536
 20
187.826377
 30
0.0
 10
159.566536
 20
193.990280
 30
0.0
 10
153.213752
 20
196.054424
 30
0.0
 10
153.115664
 20
196.102854
 30
0.0
 10
153.011397
 20
196.135935
 30
0.0
 10
152.911815
 20
196.203501
 30
0.0
 10
152.803908
 20
196.256778
 30
0.0
 10
152.723686
 20
196.331147
 30
0.0
 10
152.633164
 20
196.392565
 30
0.0
 10
152.556961
 20
196.485703
 30
0.0
 10
152.468707
 20
196.567518
 30
0.0
 10
152.412996
 20
196.661667
 30
0.0
 10
152.343731
 20
196.746326
 30
0.0
 10
152.297225
 20
196.857313
 30
0.0
 10
152.235937
 20
196.960887
 30
0.0
 10
152.220009
 20
197.041619
 30
0.0
 10
152.167098
 20
197.167892
 30
0.0
 10
152.133112
 20
197.481743
 30
0.0
 10
152.116814
 20
197.564227
 30
0.0
 10
152.116814
 20
204.243940
 30
0.0
 10
146.860964
 20
205.951669
 30
0.0
  0
LWPOLYLINE
  5
137
100
AcDbEntity
  8
0
 62
7
100
AcDbPolyline
 90
74
 70
1
 10
197.144595
 20
201.480777
 30
0.0
 10
197.078793
 20
201.028461
 30
0.0
 10
196.886846
 20
200.613642
 30
0.0
 10
196.584660
 20
200.270708
 30
0.0
 10
196.197291
 20
200.028088
 30
0.0
 10
196.103229
 20
200.002000
 30
0.0
 10
196.047659
 20
199.970983
 30
0.0
 10
189.694876
 20
197.906838
 30
0.0
 10
189.694876
 20
191.227125
 30
0.0
 10
189.629074
 20
190.774809
 30
0.0
 10
189.437126
 20
190.359990
 30
0.0
 10
189.134940
 20
190.017056
 30
0.0
 10
188.747572
 20
189.774436
 30
0.0
 10
188.653510
 20
189.748348
 30
0.0
 10
188.597940
 20
189.717331
 30
0.0
 10
182.245156
 20
187.653187
 30
0.0
 10
182.245156
 20
182.126861
 30
0.0
 10
187.501006
 20
180.419132
 30
0.0
 10
191.427240
 20
185.823132
 30
0.0
 10
191.579214
 20
185.978990
 30
0.0
 10
191.728953
 20
186.136878
 30
0.0
 10
191.738583
 20
186.142434
 30
0.0
 10
191.746336
 20
186.150398
 30
0.0
 10
191.936460
 20
186.256517
 30
0.0
 10
192.124936
 20
186.365174
 30
0.0
 10
192.135757
 20
186.367820
 30
0.0
 10
192.145468
 20
186.373243
 30
0.0
 10
192.357859
 20
186.420776
 30
0.0
 10
192.569571
 20
186.471248
 30
0.0
 10
192.580657
 20
186.470719
 30
0.0
 10
192.591505
 20
186.473100
 30
0.0
 10
192.638130
 20
186.467517
 30
0.0
 10
193.025951
 20
186.446218
 30
0.0
 10
193.131511
 20
186.408422
 30
0.0
 10
193.202126
 20
186.399956
 30
0.0
 10
199.554912
 20
184.335812
 30
0.0
 10
203.481149
 20
189.739812
 30
0.0
 10
203.633123
 20
189.895670
 30
0.0
 10
203.782861
 20
190.053558
 30
0.0
 10
203.792492
 20
190.059114
 30
0.0
 10
203.800271
 20
190.067078
 30
0.0
 10
203.990427
 20
190.173216
 30
0.0
 10
204.178871
 20
190.281854
 30
0.0
 10
204.189666
 20
190.284500
 30
0.0
 10
204.199376
 20
190.289923
 30
0.0
 10
204.411839
 20
190.337469
 30
0.0
 10
204.623477
 20
190.387925
 30
0.0
 10
204.634563
 20
190.387396
 30
0.0
 10
204.645411
 20
190.389777
 30
0.0
 10
204.692036
 20
190.384195
 30
0.0
 10
205.079857
 20
190.362896
 30
0.0
 10
205.185417
 20
190.325100
 30
0.0
 10
205.256032
 20
190.316633
 30
0.0
 10
208.059057
 20
189.405874
 30
0.0
 10
206.629878
 20
191.372969
 30
0.0
 10
199.670723
 20
193.634138
 30
0.0
 10
199.572634
 20
193.682567
 30
0.0
 10
199.468367
 20
193.715648
 30
0.0
 10
199.368786
 20
193.783215
 30
0.0
 10
199.260878
 20
193.836491
 30
0.0
 10
199.180659
 20
193.910858
 30
0.0
 10
199.090134
 20
193.972278
 30
0.0
 10
199.013927
 20
194.065424
 30
0.0
 10
198.925677
 20
194.147234
 30
0.0
 10
198.869972
 20
194.241375
 30
0.0
 10
198.800701
 20
194.326039
 30
0.0
 10
198.754196
 20
194.437029
 30
0.0
 10
198.692908
 20
194.540600
 30
0.0
 10
198.676980
 20
194.621333
 30
0.0
 10
198.624068
 20
194.747605
 30
0.0
 10
198.590083
 20
195.061456
 30
0.0
 10
198.573784
 20
195.143940
 30
0.0
 10
198.573784
 20
202.461230
 30
0.0
 10
197.144606
 20
204.428325
 30
0.0
  0
LWPOLYLINE
  5
138
100
AcDbEntity
  8
0
 62
7
100
AcDbPolyline
 90
90
 70
1
 10
166.739345
 20
212.804587
 30
0.0
 10
162.438350
 20
206.884778
 30
0.0
 10
162.306489
 20
206.749547
 30
0.0
 10
162.181601
 20
206.607817
 30
0.0
 10
162.147414
 20
206.586413
 30
0.0
 10
162.119252
 20
206.557531
 30
0.0
 10
161.954311
 20
206.465466
 30
0.0
 10
161.794232
 20
206.365205
 30
0.0
 10
161.755362
 20
206.354410
 30
0.0
 10
161.720136
 20
206.334752
 30
0.0
 10
161.535790
 20
206.293498
 30
0.0
 10
161.353791
 20
206.243005
 30
0.0
 10
161.313463
 20
206.243798
 30
0.0
 10
161.274093
 20
206.234988
 30
0.0
 10
161.180190
 20
206.246233
 30
0.0
 10
160.896792
 20
206.251418
 30
0.0
 10
160.751126
 20
206.297633
 30
0.0
 10
160.663472
 20
206.308137
 30
0.0
 10
153.704316
 20
208.569306
 30
0.0
 10
151.391853
 20
207.817940
 30
0.0
 10
154.194880
 20
206.907180
 30
0.0
 10
154.318867
 20
206.845964
 30
0.0
 10
154.449031
 20
206.799360
 30
0.0
 10
154.522744
 20
206.745303
 30
0.0
 10
154.604725
 20
206.704827
 30
0.0
 10
154.706132
 20
206.610818
 30
0.0
 10
154.817620
 20
206.529062
 30
0.0
 10
154.872881
 20
206.456238
 30
0.0
 10
154.939926
 20
206.394084
 30
0.0
 10
155.010339
 20
206.275091
 30
0.0
 10
155.093919
 20
206.164947
 30
0.0
 10
155.108127
 20
206.109832
 30
0.0
 10
155.172693
 20
206.000718
 30
0.0
 10
155.291814
 20
205.397378
 30
0.0
 10
155.291814
 20
198.717667
 30
0.0
 10
161.644597
 20
196.653523
 30
0.0
 10
161.768584
 20
196.592306
 30
0.0
 10
161.898748
 20
196.545703
 30
0.0
 10
161.972461
 20
196.491646
 30
0.0
 10
162.054442
 20
196.451170
 30
0.0
 10
162.155854
 20
196.357158
 30
0.0
 10
162.267336
 20
196.275404
 30
0.0
 10
162.322589
 20
196.202588
 30
0.0
 10
162.389643
 20
196.140430
 30
0.0
 10
162.460059
 20
196.021428
 30
0.0
 10
162.543636
 20
195.911290
 30
0.0
 10
162.557844
 20
195.856177
 30
0.0
 10
162.622410
 20
195.747061
 30
0.0
 10
162.741531
 20
195.143721
 30
0.0
 10
162.741531
 20
188.464007
 30
0.0
 10
167.997381
 20
186.756278
 30
0.0
 10
171.245673
 20
191.227170
 30
0.0
 10
167.319436
 20
196.631171
 30
0.0
 10
167.287136
 20
196.692636
 30
0.0
 10
167.243165
 20
196.746379
 30
0.0
 10
167.181289
 20
196.894045
 30
0.0
 10
167.106806
 20
197.035777
 30
0.0
 10
167.093366
 20
197.103902
 30
0.0
 10
167.066531
 20
197.167945
 30
0.0
 10
167.049281
 20
197.327120
 30
0.0
 10
167.018269
 20
197.484198
 30
0.0
 10
167.024778
 20
197.553331
 30
0.0
 10
167.017316
 20
197.622364
 30
0.0
 10
167.046145
 20
197.779846
 30
0.0
 10
167.061174
 20
197.939258
 30
0.0
 10
167.084589
 20
197.989870
 30
0.0
 10
167.099618
 20
198.071970
 30
0.0
 10
167.306614
 20
198.479487
 30
0.0
 10
167.315478
 20
198.488827
 30
0.0
 10
167.319447
 20
198.497399
 30
0.0
 10
171.245683
 20
203.901400
 30
0.0
 10
167.319447
 20
209.305403
 30
0.0
 10
167.287146
 20
209.366866
 30
0.0
 10
167.243175
 20
209.420611
 30
0.0
 10
167.181297
 20
209.568285
 30
0.0
 10
167.106817
 20
209.710012
 30
0.0
 10
167.093376
 20
209.778132
 30
0.0
 10
167.066539
 20
209.842177
 30
0.0
 10
167.049289
 20
210.001355
 30
0.0
 10
167.018277
 20
210.158431
 30
0.0
 10
167.024786
 20
210.227564
 30
0.0
 10
167.017324
 20
210.296596
 30
0.0
 10
167.046153
 20
210.454079
 30
0.0
 10
167.061182
 20
210.613490
 30
0.0
 10
167.084597
 20
210.664102
 30
0.0
 10
167.099626
 20
210.746202
 30
0.0
 10
167.306622
 20
211.153719
 30
0.0
 10
167.315486
 20
211.163059
 30
0.0
 10
167.319455
 20
211.171631
 30
0.0
 10
169.051819
 20
213.556027
 30
0.0
  0
LWPOLYLINE
  5
139
100
AcDbEntity
  8
0
 62
7
100
AcDbPolyline
 90
66
 70
1
 10
181.941970
 20
213.221888
 30
0.0
 10
181.865603
 20
213.143571
 30
0.0
 10
181.801918
 20
213.054623
 30
0.0
 10
181.706888
 20
212.980797
 30
0.0
 10
181.622872
 20
212.894632
 30
0.0
 10
181.527349
 20
212.841316
 30
0.0
 10
181.440968
 20
212.774207
 30
0.0
 10
181.328835
 20
212.730514
 30
0.0
 10
181.223759
 20
212.671864
 30
0.0
 10
181.117018
 20
212.647975
 30
0.0
 10
181.015082
 20
212.608255
 30
0.0
 10
180.895149
 20
212.598323
 30
0.0
 10
180.777713
 20
212.572042
 30
0.0
 10
180.668573
 20
212.579559
 30
0.0
 10
180.559564
 20
212.570531
 30
0.0
 10
180.423317
 20
212.596450
 30
0.0
 10
180.321717
 20
212.603448
 30
0.0
 10
180.254532
 20
212.628559
 30
0.0
 10
180.167092
 20
212.645194
 30
0.0
 10
173.814306
 20
214.709341
 30
0.0
 10
170.566014
 20
210.238448
 30
0.0
 10
174.492251
 20
204.834445
 30
0.0
 10
174.538037
 20
204.747318
 30
0.0
 10
174.597539
 20
204.668906
 30
0.0
 10
174.615160
 20
204.600567
 30
0.0
 10
174.704883
 20
204.429836
 30
0.0
 10
174.793418
 20
203.981418
 30
0.0
 10
174.788417
 20
203.928520
 30
0.0
 10
174.795429
 20
203.901336
 30
0.0
 10
174.768237
 20
203.714424
 30
0.0
 10
174.750510
 20
203.526358
 30
0.0
 10
174.736461
 20
203.496005
 30
0.0
 10
174.729635
 20
203.449021
 30
0.0
 10
174.537688
 20
203.034201
 30
0.0
 10
174.506292
 20
202.998573
 30
0.0
 10
174.492243
 20
202.968228
 30
0.0
 10
170.566006
 20
197.564227
 30
0.0
 10
174.189057
 20
192.577527
 30
0.0
 10
180.657648
 20
190.475754
 30
0.0
 10
186.519868
 20
192.380505
 30
0.0
 10
186.519868
 20
199.060215
 30
0.0
 10
186.524075
 20
199.089193
 30
0.0
 10
186.520926
 20
199.118299
 30
0.0
 10
186.556901
 20
199.314816
 30
0.0
 10
186.585664
 20
199.512531
 30
0.0
 10
186.597967
 20
199.539103
 30
0.0
 10
186.603233
 20
199.567906
 30
0.0
 10
186.693709
 20
199.746026
 30
0.0
 10
186.777611
 20
199.927350
 30
0.0
 10
186.796979
 20
199.949311
 30
0.0
 10
186.810235
 20
199.975425
 30
0.0
 10
186.947696
 20
200.120369
 30
0.0
 10
187.079803
 20
200.270287
 30
0.0
 10
187.101207
 20
200.282246
 30
0.0
 10
187.124755
 20
200.307091
 30
0.0
 10
187.520741
 20
200.535376
 30
0.0
 10
187.580003
 20
200.549505
 30
0.0
 10
187.616793
 20
200.570036
 30
0.0
 10
193.969577
 20
202.634181
 30
0.0
 10
193.969577
 20
208.160509
 30
0.0
 10
187.616793
 20
210.224653
 30
0.0
 10
187.206948
 20
210.427006
 30
0.0
 10
186.871748
 20
210.737749
 30
0.0
 10
186.638978
 20
211.131116
 30
0.0
 10
186.519857
 20
211.734456
 30
0.0
 10
186.519857
 20
219.522836
 30
0.0
  0
LWPOLYLINE
  5
13a
100
AcDbEntity
  8
0
 62
7
100
AcDbPolyline
 90
5
 70
1
 10
126.579839
 20
197.906831
 30
0.0
 10
126.579839
 20
192.380505
 30
0.0
 10
131.835689
 20
190.672776
 30
0.0
 10
135.083981
 20
195.143668
 30
0.0
 10
131.835689
 20
199.614560
 30
0.0
  0
LWPOLYLINE
  5
13b
100
AcDbEntity
  8
0
 62
7
100
AcDbPolyline
 90
5
 70
1
 10
201.748774
 20
201.823378
 30
0.0
 10
201.748774
 20
196.297053
 30
0.0
 10
207.004624
 20
194.589323
 30
0.0
 10
210.252916
 20
199.060215
 30
0.0
 10
207.004624
 20
203.531108
 30
0.0
  0
LWPOLYLINE
  5
13c
100
AcDbEntity
  8
0
 62
7
100
AcDbPolyline
 90
5
 70
1
 10
135.788199
 20
210.581050
 30
0.0
 10
135.788199
 20
205.054724
 30
0.0
 10
141.044049
 20
203.346995
 30
0.0
 10
144.292341
 20
207.817887
 30
0.0
 10
141.044049
 20
212.288779
 30
0.0
  0
LWPOLYLINE
  5
13d
100
AcDbEntity
  8
0
 62
7
100
AcDbPolyline
 90
5
 70
1
 10
155.291816
 20
216.918159
 30
0.0
 10
155.291816
 20
211.391833
 30
0.0
 10
160.547666
 20
209.684104
 30
0.0
 10
163.795959
 20
214.154996
 30
0.0
 10
160.547666
 20
218.625888
 30
0.0
  0
LWPOLYLINE
  5
13e
100
AcDbEntity
  8
0
 62
7
100
AcDbPolyline
 90
5
 70
1
 10
189.694876
 20
218.414148
 30
0.0
 10
189.694876
 20
212.887822
 30
0.0
 10
194.950726
 20
211.180093
 30
0.0
 10
198.199018
 20
215.650985
 30
0.0
 10
194.950726
 20
220.121877
 30
0.0
  0
LWPOLYLINE
  5
13f
100
AcDbEntity
  8
0
 62
7
100
AcDbPolyline
 90
5
 70
1
 10
174.795437
 20
223.255268
 30
0.0
 10
174.795437
 20
217.728943
 30
0.0
 10
180.051287
 20
216.021214
 30
0.0
 10
183.299579
 20
220.492106
 30
0.0
 10
180.051287
 20
224.962998
 30
0.0
  0
LWPOLYLINE
  5
140
100
AcDbEntity
  8
0
 62
7
100
AcDbPolyline
 90
627
 70
1
 10
53.243702
 20
116.275146
 30
0.0
 10
53.421418
 20
116.265383
 30
0.0
 10
53.469791
 20
116.248053
 30
0.0
 10
53.520808
 20
116.241941
 30
0.0
 10
53.684173
 20
116.171295
 30
0.0
 10
53.851744
 20
116.111298
 30
0.0
 10
53.893178
 20
116.080913
 30
0.0
 10
53.940337
 20
116.060514
 30
0.0
 10
54.013595
 20
115.992603
 30
0.0
 10
54.220332
 20
115.840994
 30
0.0
 10
54.322797
 20
115.705961
 30
0.0
 10
54.391343
 20
115.642419
 30
0.0
 10
57.638820
 20
111.172651
 30
0.0
 10
61.796414
 20
109.821766
 30
0.0
 10
64.669133
 20
113.775725
 30
0.0
 10
64.821107
 20
113.931584
 30
0.0
 10
64.970845
 20
114.089471
 30
0.0
 10
64.980476
 20
114.095027
 30
0.0
 10
64.988228
 20
114.102991
 30
0.0
 10
65.178353
 20
114.209110
 30
0.0
 10
65.366829
 20
114.317767
 30
0.0
 10
65.377650
 20
114.320413
 30
0.0
 10
65.387360
 20
114.325837
 30
0.0
 10
65.599752
 20
114.373369
 30
0.0
 10
65.811464
 20
114.423841
 30
0.0
 10
65.822550
 20
114.423312
 30
0.0
 10
65.833397
 20
114.425693
 30
0.0
 10
65.880022
 20
114.420110
 30
0.0
 10
66.267843
 20
114.398811
 30
0.0
 10
66.373404
 20
114.361016
 30
0.0
 10
66.444019
 20
114.352549
 30
0.0
 10
72.189112
 20
112.485855
 30
0.0
 10
72.313099
 20
112.424639
 30
0.0
 10
72.443263
 20
112.378035
 30
0.0
 10
72.516976
 20
112.323978
 30
0.0
 10
72.598957
 20
112.283502
 30
0.0
 10
72.700364
 20
112.189493
 30
0.0
 10
72.811852
 20
112.107737
 30
0.0
 10
72.867113
 20
112.034913
 30
0.0
 10
72.934158
 20
111.972759
 30
0.0
 10
73.004572
 20
111.853766
 30
0.0
 10
73.088151
 20
111.743622
 30
0.0
 10
73.102359
 20
111.688507
 30
0.0
 10
73.166925
 20
111.579393
 30
0.0
 10
73.286046
 20
110.976053
 30
0.0
 10
73.286046
 20
104.935306
 30
0.0
 10
73.220244
 20
104.482990
 30
0.0
 10
73.028297
 20
104.068171
 30
0.0
 10
72.726111
 20
103.725237
 30
0.0
 10
72.338742
 20
103.482616
 30
0.0
 10
72.244680
 20
103.456528
 30
0.0
 10
72.189110
 20
103.425511
 30
0.0
 10
67.540952
 20
101.915233
 30
0.0
 10
67.540952
 20
98.181258
 30
0.0
 10
71.092176
 20
97.027394
 30
0.0
 10
73.964895
 20
100.981354
 30
0.0
 10
74.283993
 20
101.308609
 30
0.0
 10
74.683109
 20
101.531380
 30
0.0
 10
75.129152
 20
101.631200
 30
0.0
 10
75.739773
 20
101.558048
 30
0.0
 10
81.484867
 20
99.691354
 30
0.0
 10
81.894712
 20
99.489001
 30
0.0
 10
82.229912
 20
99.178258
 30
0.0
 10
82.462682
 20
98.784892
 30
0.0
 10
82.581803
 20
98.181552
 30
0.0
 10
82.581803
 20
93.294189
 30
0.0
 10
86.133025
 20
92.140326
 30
0.0
 10
88.327802
 20
95.161177
 30
0.0
 10
85.455080
 20
99.115137
 30
0.0
 10
85.242450
 20
99.519745
 30
0.0
 10
85.153915
 20
99.968164
 30
0.0
 10
85.196815
 20
100.423223
 30
0.0
 10
85.455080
 20
100.981354
 30
0.0
 10
89.005743
 20
105.868422
 30
0.0
 10
89.324841
 20
106.195678
 30
0.0
 10
89.723957
 20
106.418449
 30
0.0
 10
90.170000
 20
106.518268
 30
0.0
 10
90.780621
 20
106.445116
 30
0.0
 10
96.525715
 20
104.578420
 30
0.0
 10
96.935560
 20
104.376067
 30
0.0
 10
97.270761
 20
104.065324
 30
0.0
 10
97.503530
 20
103.671957
 30
0.0
 10
97.622651
 20
103.068617
 30
0.0
 10
97.622651
 20
98.181258
 30
0.0
 10
101.780245
 20
96.830372
 30
0.0
 10
107.034772
 20
98.537673
 30
0.0
 10
107.485283
 20
98.614865
 30
0.0
 10
107.939115
 20
98.560496
 30
0.0
 10
108.358644
 20
98.379074
 30
0.0
 10
108.809650
 20
97.960979
 30
0.0
 10
112.360313
 20
93.073911
 30
0.0
 10
112.572943
 20
92.669302
 30
0.0
 10
112.661478
 20
92.220883
 30
0.0
 10
112.618578
 20
91.765824
 30
0.0
 10
112.360313
 20
91.207693
 30
0.0
 10
109.112836
 20
86.737926
 30
0.0
 10
109.112836
 20
82.366374
 30
0.0
 10
113.760993
 20
80.856095
 30
0.0
 10
114.170838
 20
80.653742
 30
0.0
 10
114.506039
 20
80.342999
 30
0.0
 10
114.738809
 20
79.949633
 30
0.0
 10
114.857930
 20
79.346293
 30
0.0
 10
114.857930
 20
73.305543
 30
0.0
 10
114.792128
 20
72.853227
 30
0.0
 10
114.600180
 20
72.438408
 30
0.0
 10
114.297994
 20
72.095474
 30
0.0
 10
113.760993
 20
71.795741
 30
0.0
 10
108.015900
 20
69.929047
 30
0.0
 10
107.565388
 20
69.851855
 30
0.0
 10
107.111557
 20
69.906224
 30
0.0
 10
106.692028
 20
70.087646
 30
0.0
 10
106.241022
 20
70.505741
 30
0.0
 10
103.368303
 20
74.459700
 30
0.0
 10
99.817081
 20
73.305837
 30
0.0
 10
99.817081
 20
69.571862
 30
0.0
 10
104.465239
 20
68.061583
 30
0.0
 10
104.875084
 20
67.859230
 30
0.0
 10
105.210285
 20
67.548487
 30
0.0
 10
105.443054
 20
67.155121
 30
0.0
 10
105.562175
 20
66.551781
 30
0.0
 10
105.562175
 20
60.511034
 30
0.0
 10
105.496373
 20
60.058718
 30
0.0
 10
105.304426
 20
59.643899
 30
0.0
 10
105.002240
 20
59.300965
 30
0.0
 10
104.465239
 20
59.001231
 30
0.0
 10
99.817081
 20
57.490953
 30
0.0
 10
99.817081
 20
53.756978
 30
0.0
 10
103.368303
 20
52.603114
 30
0.0
 10
106.241022
 20
56.557074
 30
0.0
 10
106.392996
 20
56.712932
 30
0.0
 10
106.542734
 20
56.870820
 30
0.0
 10
106.552365
 20
56.876376
 30
0.0
 10
106.560144
 20
56.884340
 30
0.0
 10
106.750268
 20
56.990459
 30
0.0
 10
106.938744
 20
57.099115
 30
0.0
 10
106.949565
 20
57.101761
 30
0.0
 10
106.959276
 20
57.107185
 30
0.0
 10
107.171667
 20
57.154718
 30
0.0
 10
107.383379
 20
57.205189
 30
0.0
 10
107.394465
 20
57.204660
 30
0.0
 10
107.405313
 20
57.207042
 30
0.0
 10
107.451938
 20
57.201459
 30
0.0
 10
107.839759
 20
57.180160
 30
0.0
 10
107.945320
 20
57.142364
 30
0.0
 10
108.015934
 20
57.133897
 30
0.0
 10
113.761028
 20
55.267204
 30
0.0
 10
113.885014
 20
55.205987
 30
0.0
 10
114.015179
 20
55.159383
 30
0.0
 10
114.088892
 20
55.105326
 30
0.0
 10
114.170873
 20
55.064851
 30
0.0
 10
114.272280
 20
54.970841
 30
0.0
 10
114.383767
 20
54.889085
 30
0.0
 10
114.439028
 20
54.816261
 30
0.0
 10
114.506073
 20
54.754108
 30
0.0
 10
114.576487
 20
54.635114
 30
0.0
 10
114.660066
 20
54.524971
 30
0.0
 10
114.674274
 20
54.469856
 30
0.0
 10
114.738841
 20
54.360741
 30
0.0
 10
114.857961
 20
53.757401
 30
0.0
 10
114.857961
 20
47.716652
 30
0.0
 10
114.792159
 20
47.264336
 30
0.0
 10
114.600212
 20
46.849517
 30
0.0
 10
114.298026
 20
46.506582
 30
0.0
 10
113.910658
 20
46.263962
 30
0.0
 10
113.816596
 20
46.237874
 30
0.0
 10
113.761025
 20
46.206857
 30
0.0
 10
109.112868
 20
44.696578
 30
0.0
 10
109.112868
 20
40.325027
 30
0.0
 10
112.360345
 20
35.855259
 30
0.0
 10
112.406131
 20
35.768132
 30
0.0
 10
112.465633
 20
35.689720
 30
0.0
 10
112.483254
 20
35.621381
 30
0.0
 10
112.572977
 20
35.450650
 30
0.0
 10
112.661512
 20
35.002232
 30
0.0
 10
112.656538
 20
34.949334
 30
0.0
 10
112.663549
 20
34.922150
 30
0.0
 10
112.636358
 20
34.735238
 30
0.0
 10
112.618631
 20
34.547172
 30
0.0
 10
112.604582
 20
34.516819
 30
0.0
 10
112.597756
 20
34.469835
 30
0.0
 10
112.405808
 20
34.055016
 30
0.0
 10
112.374413
 20
34.019387
 30
0.0
 10
112.360363
 20
33.989042
 30
0.0
 10
108.809700
 20
29.101973
 30
0.0
 10
108.677840
 20
28.966742
 30
0.0
 10
108.552951
 20
28.825013
 30
0.0
 10
108.518764
 20
28.803608
 30
0.0
 10
108.490602
 20
28.774726
 30
0.0
 10
108.325661
 20
28.682662
 30
0.0
 10
108.165583
 20
28.582400
 30
0.0
 10
108.126713
 20
28.571605
 30
0.0
 10
108.091486
 20
28.551947
 30
0.0
 10
107.907140
 20
28.510693
 30
0.0
 10
107.725141
 20
28.460200
 30
0.0
 10
107.684813
 20
28.460994
 30
0.0
 10
107.645443
 20
28.452183
 30
0.0
 10
107.551540
 20
28.463428
 30
0.0
 10
107.268142
 20
28.468614
 30
0.0
 10
107.122476
 20
28.514828
 30
0.0
 10
107.034822
 20
28.525332
 30
0.0
 10
101.780295
 20
30.232633
 30
0.0
 10
97.622701
 20
28.881747
 30
0.0
 10
97.622701
 20
23.994388
 30
0.0
 10
97.556899
 20
23.542072
 30
0.0
 10
97.364952
 20
23.127253
 30
0.0
 10
97.062766
 20
22.784319
 30
0.0
 10
96.675398
 20
22.541698
 30
0.0
 10
96.581336
 20
22.515610
 30
0.0
 10
96.525765
 20
22.484593
 30
0.0
 10
90.780672
 20
20.617897
 30
0.0
 10
90.633624
 20
20.592709
 30
0.0
 10
90.489863
 20
20.552825
 30
0.0
 10
90.409443
 20
20.554413
 30
0.0
 10
90.330160
 20
20.540840
 30
0.0
 10
90.182028
 20
20.558593
 30
0.0
 10
90.032864
 20
20.561319
 30
0.0
 10
89.956193
 20
20.585634
 30
0.0
 10
89.876328
 20
20.595212
 30
0.0
 10
89.739393
 20
20.654428
 30
0.0
 10
89.597188
 20
20.699545
 30
0.0
 10
89.530629
 20
20.744704
 30
0.0
 10
89.456800
 20
20.776631
 30
0.0
 10
89.383706
 20
20.844394
 30
0.0
 10
89.218955
 20
20.956175
 30
0.0
 10
89.080261
 20
21.125696
 30
0.0
 10
89.005794
 20
21.194728
 30
0.0
 10
85.455130
 20
26.081797
 30
0.0
 10
85.422830
 20
26.143260
 30
0.0
 10
85.378859
 20
26.197004
 30
0.0
 10
85.316981
 20
26.344679
 30
0.0
 10
85.242501
 20
26.486406
 30
0.0
 10
85.229060
 20
26.554525
 30
0.0
 10
85.202223
 20
26.618570
 30
0.0
 10
85.184972
 20
26.777749
 30
0.0
 10
85.153960
 20
26.934824
 30
0.0
 10
85.160469
 20
27.003957
 30
0.0
 10
85.152981
 20
27.072990
 30
0.0
 10
85.181810
 20
27.230472
 30
0.0
 10
85.196839
 20
27.389884
 30
0.0
 10
85.220254
 20
27.440496
 30
0.0
 10
85.235283
 20
27.522596
 30
0.0
 10
85.442279
 20
27.930113
 30
0.0
 10
85.451143
 20
27.939452
 30
0.0
 10
85.455112
 20
27.948025
 30
0.0
 10
88.327833
 20
31.901985
 30
0.0
 10
86.133056
 20
34.922836
 30
0.0
 10
82.581835
 20
33.768972
 30
0.0
 10
82.581835
 20
28.881610
 30
0.0
 10
82.516033
 20
28.429294
 30
0.0
 10
82.324086
 20
28.014475
 30
0.0
 10
82.021900
 20
27.671541
 30
0.0
 10
81.634531
 20
27.428920
 30
0.0
 10
81.540469
 20
27.402832
 30
0.0
 10
81.484899
 20
27.371815
 30
0.0
 10
75.739805
 20
25.505122
 30
0.0
 10
75.592757
 20
25.479933
 30
0.0
 10
75.448996
 20
25.440050
 30
0.0
 10
75.368576
 20
25.441637
 30
0.0
 10
75.289294
 20
25.428064
 30
0.0
 10
75.141161
 20
25.445818
 30
0.0
 10
74.991997
 20
25.448543
 30
0.0
 10
74.915326
 20
25.472858
 30
0.0
 10
74.835462
 20
25.482436
 30
0.0
 10
74.698535
 20
25.541650
 30
0.0
 10
74.556321
 20
25.586769
 30
0.0
 10
74.489755
 20
25.631936
 30
0.0
 10
74.415933
 20
25.663858
 30
0.0
 10
74.342847
 20
25.731610
 30
0.0
 10
74.178089
 20
25.843399
 30
0.0
 10
74.039391
 20
26.012921
 30
0.0
 10
73.964927
 20
26.081953
 30
0.0
 10
71.092208
 20
30.035913
 30
0.0
 10
67.540984
 20
28.882049
 30
0.0
 10
67.540984
 20
25.148074
 30
0.0
 10
72.189142
 20
23.637796
 30
0.0
 10
72.313128
 20
23.576579
 30
0.0
 10
72.443292
 20
23.529975
 30
0.0
 10
72.517005
 20
23.475918
 30
0.0
 10
72.598986
 20
23.435442
 30
0.0
 10
72.700393
 20
23.341433
 30
0.0
 10
72.811881
 20
23.259677
 30
0.0
 10
72.867142
 20
23.186853
 30
0.0
 10
72.934187
 20
23.124700
 30
0.0
 10
73.004601
 20
23.005706
 30
0.0
 10
73.088180
 20
22.895563
 30
0.0
 10
73.102388
 20
22.840447
 30
0.0
 10
73.166954
 20
22.731333
 30
0.0
 10
73.286075
 20
22.127993
 30
0.0
 10
73.286075
 20
16.087246
 30
0.0
 10
73.220273
 20
15.634930
 30
0.0
 10
73.028326
 20
15.220111
 30
0.0
 10
72.726140
 20
14.877177
 30
0.0
 10
72.338771
 20
14.634557
 30
0.0
 10
72.244709
 20
14.608469
 30
0.0
 10
72.189139
 20
14.577452
 30
0.0
 10
66.444045
 20
12.710758
 30
0.0
 10
66.296998
 20
12.685570
 30
0.0
 10
66.153236
 20
12.645686
 30
0.0
 10
66.072816
 20
12.647274
 30
0.0
 10
65.993534
 20
12.633701
 30
0.0
 10
65.845402
 20
12.651454
 30
0.0
 10
65.696237
 20
12.654179
 30
0.0
 10
65.619567
 20
12.678495
 30
0.0
 10
65.539702
 20
12.688073
 30
0.0
 10
65.402775
 20
12.747286
 30
0.0
 10
65.260561
 20
12.792406
 30
0.0
 10
65.193995
 20
12.837573
 30
0.0
 10
65.120173
 20
12.869495
 30
0.0
 10
65.047088
 20
12.937247
 30
0.0
 10
64.882329
 20
13.049036
 30
0.0
 10
64.743632
 20
13.218557
 30
0.0
 10
64.669167
 20
13.287589
 30
0.0
 10
61.796448
 20
17.241549
 30
0.0
 10
57.638855
 20
15.890663
 30
0.0
 10
54.391377
 20
11.420896
 30
0.0
 10
54.259517
 20
11.285665
 30
0.0
 10
54.134628
 20
11.143935
 30
0.0
 10
54.100442
 20
11.122530
 30
0.0
 10
54.072279
 20
11.093648
 30
0.0
 10
53.907338
 20
11.001584
 30
0.0
 10
53.747260
 20
10.901323
 30
0.0
 10
53.708390
 20
10.890528
 30
0.0
 10
53.673163
 20
10.870869
 30
0.0
 10
53.488818
 20
10.829615
 30
0.0
 10
53.306819
 20
10.779122
 30
0.0
 10
53.266491
 20
10.779916
 30
0.0
 10
53.227121
 20
10.771105
 30
0.0
 10
53.133218
 20
10.782350
 30
0.0
 10
52.849820
 20
10.787536
 30
0.0
 10
52.704153
 20
10.833751
 30
0.0
 10
52.616500
 20
10.844255
 30
0.0
 10
46.871406
 20
12.710948
 30
0.0
 10
46.773317
 20
12.759378
 30
0.0
 10
46.669050
 20
12.792459
 30
0.0
 10
46.569469
 20
12.860025
 30
0.0
 10
46.461561
 20
12.913302
 30
0.0
 10
46.381342
 20
12.987668
 30
0.0
 10
46.290817
 20
13.049089
 30
0.0
 10
46.214609
 20
13.142235
 30
0.0
 10
46.126360
 20
13.224044
 30
0.0
 10
46.070655
 20
13.318186
 30
0.0
 10
46.001384
 20
13.402850
 30
0.0
 10
45.954879
 20
13.513840
 30
0.0
 10
45.893590
 20
13.617411
 30
0.0
 10
45.877663
 20
13.698143
 30
0.0
 10
45.824751
 20
13.824416
 30
0.0
 10
45.790765
 20
14.138267
 30
0.0
 10
45.774467
 20
14.220751
 30
0.0
 10
45.774467
 20
19.744875
 30
0.0
 10
43.204934
 20
23.281534
 30
0.0
 10
38.556777
 20
21.771255
 30
0.0
 10
38.409729
 20
21.746067
 30
0.0
 10
38.265968
 20
21.706184
 30
0.0
 10
38.185548
 20
21.707771
 30
0.0
 10
38.106265
 20
21.694198
 30
0.0
 10
37.958133
 20
21.711952
 30
0.0
 10
37.808969
 20
21.714677
 30
0.0
 10
37.732298
 20
21.738992
 30
0.0
 10
37.652433
 20
21.748570
 30
0.0
 10
37.515506
 20
21.807784
 30
0.0
 10
37.373293
 20
21.852903
 30
0.0
 10
37.306726
 20
21.898070
 30
0.0
 10
37.232905
 20
21.929992
 30
0.0
 10
37.159819
 20
21.997744
 30
0.0
 10
36.995060
 20
22.109533
 30
0.0
 10
36.856363
 20
22.279054
 30
0.0
 10
36.781899
 20
22.348087
 30
0.0
 10
33.231235
 20
27.235155
 30
0.0
 10
33.198935
 20
27.296618
 30
0.0
 10
33.154964
 20
27.350363
 30
0.0
 10
33.093086
 20
27.498037
 30
0.0
 10
33.018606
 20
27.639764
 30
0.0
 10
33.005165
 20
27.707884
 30
0.0
 10
32.978328
 20
27.771929
 30
0.0
 10
32.961104
 20
27.931107
 30
0.0
 10
32.930092
 20
28.088183
 30
0.0
 10
32.936601
 20
28.157316
 30
0.0
 10
32.929139
 20
28.226348
 30
0.0
 10
32.957968
 20
28.383831
 30
0.0
 10
32.972997
 20
28.543242
 30
0.0
 10
32.996412
 20
28.593854
 30
0.0
 10
33.011441
 20
28.675954
 30
0.0
 10
33.218438
 20
29.083471
 30
0.0
 10
33.227301
 20
29.092811
 30
0.0
 10
33.231270
 20
29.101383
 30
0.0
 10
36.781933
 20
33.988452
 30
0.0
 10
36.933907
 20
34.144310
 30
0.0
 10
37.083645
 20
34.302197
 30
0.0
 10
37.093276
 20
34.307754
 30
0.0
 10
37.101029
 20
34.315717
 30
0.0
 10
37.291185
 20
34.421855
 30
0.0
 10
37.479629
 20
34.530493
 30
0.0
 10
37.490424
 20
34.533139
 30
0.0
 10
37.500134
 20
34.538563
 30
0.0
 10
37.712597
 20
34.586108
 30
0.0
 10
37.924235
 20
34.636564
 30
0.0
 10
37.935321
 20
34.636035
 30
0.0
 10
37.946169
 20
34.638417
 30
0.0
 10
37.992793
 20
34.632834
 30
0.0
 10
38.380614
 20
34.611508
 30
0.0
 10
38.486175
 20
34.573713
 30
0.0
 10
38.556790
 20
34.565246
 30
0.0
 10
43.204948
 20
33.054967
 30
0.0
 10
45.399722
 20
36.075818
 30
0.0
 10
43.204948
 20
39.096667
 30
0.0
 10
38.556790
 20
37.586388
 30
0.0
 10
38.106279
 20
37.509196
 30
0.0
 10
37.652447
 20
37.563565
 30
0.0
 10
37.232918
 20
37.744987
 30
0.0
 10
36.781912
 20
38.163082
 30
0.0
 10
33.231249
 20
43.050150
 30
0.0
 10
33.018619
 20
43.454759
 30
0.0
 10
32.930084
 20
43.903178
 30
0.0
 10
32.972984
 20
44.358237
 30
0.0
 10
33.231249
 20
44.916368
 30
0.0
 10
36.103970
 20
48.870328
 30
0.0
 10
33.909193
 20
51.891179
 30
0.0
 10
30.357969
 20
50.737315
 30
0.0
 10
30.357969
 20
45.849953
 30
0.0
 10
30.292167
 20
45.397637
 30
0.0
 10
30.100220
 20
44.982818
 30
0.0
 10
29.798034
 20
44.639884
 30
0.0
 10
29.261033
 20
44.340150
 30
0.0
 10
23.515939
 20
42.473457
 30
0.0
 10
23.065428
 20
42.396264
 30
0.0
 10
22.611596
 20
42.450634
 30
0.0
 10
22.192067
 20
42.632056
 30
0.0
 10
21.741061
 20
43.050150
 30
0.0
 10
18.190401
 20
47.937219
 30
0.0
 10
17.977771
 20
48.341828
 30
0.0
 10
17.889236
 20
48.790246
 30
0.0
 10
17.932135
 20
49.245306
 30
0.0
 10
18.190401
 20
49.803436
 30
0.0
 10
21.063119
 20
53.757396
 30
0.0
 10
18.493587
 20
57.294055
 30
0.0
 10
13.239057
 20
59.001356
 30
0.0
 10
12.829212
 20
59.203709
 30
0.0
 10
12.494011
 20
59.514452
 30
0.0
 10
12.261241
 20
59.907818
 30
0.0
 10
12.142121
 20
60.511158
 30
0.0
 10
12.142121
 20
66.551905
 30
0.0
 10
12.146336
 20
66.580882
 30
0.0
 10
12.143184
 20
66.609989
 30
0.0
 10
12.179160
 20
66.806506
 30
0.0
 10
12.207923
 20
67.004221
 30
0.0
 10
12.220218
 20
67.030793
 30
0.0
 10
12.225491
 20
67.059596
 30
0.0
 10
12.315968
 20
67.237716
 30
0.0
 10
12.399870
 20
67.419040
 30
0.0
 10
12.419229
 20
67.441001
 30
0.0
 10
12.432488
 20
67.467115
 30
0.0
 10
12.569949
 20
67.612059
 30
0.0
 10
12.702056
 20
67.761977
 30
0.0
 10
12.723466
 20
67.773936
 30
0.0
 10
12.747019
 20
67.798781
 30
0.0
 10
13.143005
 20
68.027066
 30
0.0
 10
13.202266
 20
68.041195
 30
0.0
 10
13.239057
 20
68.061726
 30
0.0
 10
18.493587
 20
69.769027
 30
0.0
 10
21.063119
 20
73.305686
 30
0.0
 10
18.190401
 20
77.259646
 30
0.0
 10
18.158100
 20
77.321108
 30
0.0
 10
18.114129
 20
77.374853
 30
0.0
 10
18.052251
 20
77.522528
 30
0.0
 10
17.977771
 20
77.664254
 30
0.0
 10
17.964322
 20
77.732374
 30
0.0
 10
17.937485
 20
77.796419
 30
0.0
 10
17.920248
 20
77.955598
 30
0.0
 10
17.889236
 20
78.112673
 30
0.0
 10
17.895753
 20
78.181806
 30
0.0
 10
17.888278
 20
78.250838
 30
0.0
 10
17.917107
 20
78.408321
 30
0.0
 10
17.932135
 20
78.567732
 30
0.0
 10
17.955554
 20
78.618345
 30
0.0
 10
17.970585
 20
78.700445
 30
0.0
 10
18.177581
 20
79.107961
 30
0.0
 10
18.186437
 20
79.117301
 30
0.0
 10
18.190401
 20
79.125874
 30
0.0
 10
21.741061
 20
84.012942
 30
0.0
 10
21.893035
 20
84.168800
 30
0.0
 10
22.042774
 20
84.326688
 30
0.0
 10
22.052394
 20
84.332244
 30
0.0
 10
22.060159
 20
84.340208
 30
0.0
 10
22.250284
 20
84.446327
 30
0.0
 10
22.438760
 20
84.554983
 30
0.0
 10
22.449570
 20
84.557629
 30
0.0
 10
22.459273
 20
84.563053
 30
0.0
 10
22.671664
 20
84.610586
 30
0.0
 10
22.883376
 20
84.661058
 30
0.0
 10
22.894470
 20
84.660528
 30
0.0
 10
22.905318
 20
84.662910
 30
0.0
 10
22.951943
 20
84.657327
 30
0.0
 10
23.339764
 20
84.636001
 30
0.0
 10
23.445324
 20
84.598206
 30
0.0
 10
23.515939
 20
84.589739
 30
0.0
 10
29.261033
 20
82.723045
 30
0.0
 10
29.385019
 20
82.661829
 30
0.0
 10
29.515184
 20
82.615225
 30
0.0
 10
29.588897
 20
82.561168
 30
0.0
 10
29.670878
 20
82.520692
 30
0.0
 10
29.772285
 20
82.426683
 30
0.0
 10
29.883772
 20
82.344927
 30
0.0
 10
29.939033
 20
82.272103
 30
0.0
 10
30.006078
 20
82.209950
 30
0.0
 10
30.076492
 20
82.090956
 30
0.0
 10
30.160071
 20
81.980812
 30
0.0
 10
30.174279
 20
81.925697
 30
0.0
 10
30.238846
 20
81.816583
 30
0.0
 10
30.357966
 20
81.213243
 30
0.0
 10
30.357966
 20
76.325881
 30
0.0
 10
33.909191
 20
75.172017
 30
0.0
 10
36.103967
 20
78.192868
 30
0.0
 10
33.231246
 20
82.146828
 30
0.0
 10
33.198946
 20
82.208291
 30
0.0
 10
33.154975
 20
82.262035
 30
0.0
 10
33.093096
 20
82.409710
 30
0.0
 10
33.018616
 20
82.551437
 30
0.0
 10
33.005175
 20
82.619556
 30
0.0
 10
32.978339
 20
82.683601
 30
0.0
 10
32.961114
 20
82.842780
 30
0.0
 10
32.930103
 20
82.999855
 30
0.0
 10
32.936611
 20
83.068988
 30
0.0
 10
32.929150
 20
83.138021
 30
0.0
 10
32.957979
 20
83.295503
 30
0.0
 10
32.973007
 20
83.454915
 30
0.0
 10
32.996423
 20
83.505527
 30
0.0
 10
33.011451
 20
83.587627
 30
0.0
 10
33.218448
 20
83.995144
 30
0.0
 10
33.227312
 20
84.004483
 30
0.0
 10
33.231280
 20
84.013056
 30
0.0
 10
36.781944
 20
88.900124
 30
0.0
 10
36.933918
 20
89.055982
 30
0.0
 10
37.083656
 20
89.213870
 30
0.0
 10
37.093287
 20
89.219426
 30
0.0
 10
37.101039
 20
89.227390
 30
0.0
 10
37.291195
 20
89.333528
 30
0.0
 10
37.479639
 20
89.442166
 30
0.0
 10
37.490434
 20
89.444811
 30
0.0
 10
37.500145
 20
89.450235
 30
0.0
 10
37.712608
 20
89.497781
 30
0.0
 10
37.924245
 20
89.548237
 30
0.0
 10
37.935331
 20
89.547708
 30
0.0
 10
37.946179
 20
89.550089
 30
0.0
 10
37.992804
 20
89.544506
 30
0.0
 10
38.380625
 20
89.523181
 30
0.0
 10
38.486186
 20
89.485385
 30
0.0
 10
38.556800
 20
89.476919
 30
0.0
 10
43.204958
 20
87.966640
 30
0.0
 10
45.399732
 20
90.987488
 30
0.0
 10
43.204958
 20
94.008340
 30
0.0
 10
38.556800
 20
92.498061
 30
0.0
 10
38.409753
 20
92.472872
 30
0.0
 10
38.265992
 20
92.432989
 30
0.0
 10
38.185572
 20
92.434577
 30
0.0
 10
38.106289
 20
92.421004
 30
0.0
 10
37.958157
 20
92.438757
 30
0.0
 10
37.808993
 20
92.441482
 30
0.0
 10
37.732322
 20
92.465798
 30
0.0
 10
37.652457
 20
92.475375
 30
0.0
 10
37.515530
 20
92.534589
 30
0.0
 10
37.373317
 20
92.579709
 30
0.0
 10
37.306750
 20
92.624876
 30
0.0
 10
37.232929
 20
92.656798
 30
0.0
 10
37.159843
 20
92.724549
 30
0.0
 10
36.995084
 20
92.836339
 30
0.0
 10
36.856387
 20
93.005860
 30
0.0
 10
36.781923
 20
93.074892
 30
0.0
 10
33.231259
 20
97.961961
 30
0.0
 10
33.198959
 20
98.023423
 30
0.0
 10
33.154988
 20
98.077168
 30
0.0
 10
33.093110
 20
98.224843
 30
0.0
 10
33.018629
 20
98.366569
 30
0.0
 10
33.005189
 20
98.434689
 30
0.0
 10
32.978352
 20
98.498734
 30
0.0
 10
32.961128
 20
98.657913
 30
0.0
 10
32.930116
 20
98.814988
 30
0.0
 10
32.936625
 20
98.884121
 30
0.0
 10
32.929163
 20
98.953153
 30
0.0
 10
32.957992
 20
99.110636
 30
0.0
 10
32.973021
 20
99.270047
 30
0.0
 10
32.996436
 20
99.320660
 30
0.0
 10
33.011465
 20
99.402760
 30
0.0
 10
33.218461
 20
99.810276
 30
0.0
 10
33.227325
 20
99.819616
 30
0.0
 10
33.231294
 20
99.828189
 30
0.0
 10
36.781957
 20
104.715257
 30
0.0
 10
36.933931
 20
104.871115
 30
0.0
 10
37.083669
 20
105.029003
 30
0.0
 10
37.093300
 20
105.034559
 30
0.0
 10
37.101052
 20
105.042523
 30
0.0
 10
37.291208
 20
105.148660
 30
0.0
 10
37.479653
 20
105.257298
 30
0.0
 10
37.490448
 20
105.259944
 30
0.0
 10
37.500158
 20
105.265368
 30
0.0
 10
37.712621
 20
105.312914
 30
0.0
 10
37.924258
 20
105.363370
 30
0.0
 10
37.935345
 20
105.362841
 30
0.0
 10
37.946192
 20
105.365222
 30
0.0
 10
37.992817
 20
105.359639
 30
0.0
 10
38.380638
 20
105.338340
 30
0.0
 10
38.486199
 20
105.300545
 30
0.0
 10
38.556814
 20
105.292078
 30
0.0
 10
43.204971
 20
103.781799
 30
0.0
 10
45.774504
 20
107.318458
 30
0.0
 10
45.774504
 20
112.843397
 30
0.0
 10
45.778711
 20
112.872374
 30
0.0
 10
45.775563
 20
112.901481
 30
0.0
 10
45.811538
 20
113.097998
 30
0.0
 10
45.840301
 20
113.295713
 30
0.0
 10
45.852604
 20
113.322285
 30
0.0
 10
45.857869
 20
113.351088
 30
0.0
 10
45.948346
 20
113.529208
 30
0.0
 10
46.032248
 20
113.710532
 30
0.0
 10
46.051616
 20
113.732493
 30
0.0
 10
46.064871
 20
113.758607
 30
0.0
 10
46.202333
 20
113.903551
 30
0.0
 10
46.334439
 20
114.053469
 30
0.0
 10
46.355844
 20
114.065428
 30
0.0
 10
46.379392
 20
114.090273
 30
0.0
 10
46.775378
 20
114.318558
 30
0.0
 10
46.834639
 20
114.332687
 30
0.0
 10
46.871430
 20
114.353218
 30
0.0
 10
52.616523
 20
116.219912
 30
0.0
 10
52.791955
 20
116.249971
 30
0.0
 10
52.965088
 20
116.291246
 30
0.0
 10
53.016393
 20
116.288415
 30
0.0
 10
53.067035
 20
116.297094
 30
0.0
  0
LWPOLYLINE
  5
141
100
AcDbEntity
  8
0
 62
7
100
AcDbPolyline
 90
100
 70
1
 10
48.343063
 20
34.725160
 30
0.0
 10
45.095586
 20
30.255393
 30
0.0
 10
44.963726
 20
30.120161
 30
0.0
 10
44.838837
 20
29.978432
 30
0.0
 10
44.804650
 20
29.957027
 30
0.0
 10
44.776488
 20
29.928145
 30
0.0
 10
44.611547
 20
29.836081
 30
0.0
 10
44.451468
 20
29.735820
 30
0.0
 10
44.412599
 20
29.725025
 30
0.0
 10
44.377372
 20
29.705366
 30
0.0
 10
44.193026
 20
29.664112
 30
0.0
 10
44.011027
 20
29.613619
 30
0.0
 10
43.970699
 20
29.614413
 30
0.0
 10
43.931329
 20
29.605602
 30
0.0
 10
43.837426
 20
29.616847
 30
0.0
 10
43.554028
 20
29.622033
 30
0.0
 10
43.408362
 20
29.668248
 30
0.0
 10
43.320708
 20
29.678752
 30
0.0
 10
38.672550
 20
31.189030
 30
0.0
 10
36.477773
 20
28.168179
 30
0.0
 10
38.672550
 20
25.147328
 30
0.0
 10
43.320708
 20
26.657607
 30
0.0
 10
43.496140
 20
26.687666
 30
0.0
 10
43.669273
 20
26.728941
 30
0.0
 10
43.720578
 20
26.726110
 30
0.0
 10
43.771219
 20
26.734789
 30
0.0
 10
43.947945
 20
26.713622
 30
0.0
 10
44.125661
 20
26.703859
 30
0.0
 10
44.174034
 20
26.686529
 30
0.0
 10
44.225051
 20
26.680417
 30
0.0
 10
44.388416
 20
26.609770
 30
0.0
 10
44.555987
 20
26.549773
 30
0.0
 10
44.597421
 20
26.519389
 30
0.0
 10
44.644580
 20
26.498989
 30
0.0
 10
44.717838
 20
26.431079
 30
0.0
 10
44.924575
 20
26.279470
 30
0.0
 10
45.027040
 20
26.144437
 30
0.0
 10
45.095586
 20
26.080895
 30
0.0
 10
48.646249
 20
21.193826
 30
0.0
 10
48.692035
 20
21.106699
 30
0.0
 10
48.751538
 20
21.028287
 30
0.0
 10
48.769159
 20
20.959948
 30
0.0
 10
48.858882
 20
20.789217
 30
0.0
 10
48.949438
 20
20.260717
 30
0.0
 10
48.949438
 20
15.373358
 30
0.0
 10
52.500662
 20
14.219494
 30
0.0
 10
55.373381
 20
18.173454
 30
0.0
 10
55.525355
 20
18.329312
 30
0.0
 10
55.675093
 20
18.487200
 30
0.0
 10
55.684724
 20
18.492756
 30
0.0
 10
55.692477
 20
18.500720
 30
0.0
 10
55.760871
 20
18.536663
 30
0.0
 10
56.071077
 20
18.715495
 30
0.0
 10
56.126155
 20
18.728619
 30
0.0
 10
56.167128
 20
18.750156
 30
0.0
 10
61.912222
 20
20.616849
 30
0.0
 10
62.087654
 20
20.646909
 30
0.0
 10
62.260787
 20
20.688184
 30
0.0
 10
62.312092
 20
20.685353
 30
0.0
 10
62.362734
 20
20.694031
 30
0.0
 10
62.539459
 20
20.672864
 30
0.0
 10
62.717175
 20
20.663101
 30
0.0
 10
62.765548
 20
20.645771
 30
0.0
 10
62.816565
 20
20.639659
 30
0.0
 10
62.979930
 20
20.569013
 30
0.0
 10
63.147501
 20
20.509016
 30
0.0
 10
63.188935
 20
20.478631
 30
0.0
 10
63.236094
 20
20.458232
 30
0.0
 10
63.309352
 20
20.390321
 30
0.0
 10
63.516089
 20
20.238712
 30
0.0
 10
63.618554
 20
20.103679
 30
0.0
 10
63.687100
 20
20.040137
 30
0.0
 10
66.559819
 20
16.086177
 30
0.0
 10
70.111041
 20
17.240041
 30
0.0
 10
70.111041
 20
20.974016
 30
0.0
 10
65.462883
 20
22.484294
 30
0.0
 10
65.364794
 20
22.532724
 30
0.0
 10
65.260527
 20
22.565804
 30
0.0
 10
65.160946
 20
22.633371
 30
0.0
 10
65.053038
 20
22.686648
 30
0.0
 10
64.972819
 20
22.761014
 30
0.0
 10
64.882294
 20
22.822434
 30
0.0
 10
64.806087
 20
22.915581
 30
0.0
 10
64.717837
 20
22.997390
 30
0.0
 10
64.662132
 20
23.091532
 30
0.0
 10
64.592861
 20
23.176196
 30
0.0
 10
64.546356
 20
23.287186
 30
0.0
 10
64.485068
 20
23.390757
 30
0.0
 10
64.469140
 20
23.471489
 30
0.0
 10
64.416228
 20
23.597762
 30
0.0
 10
64.382243
 20
23.911613
 30
0.0
 10
64.365971
 20
23.994097
 30
0.0
 10
64.365971
 20
29.519036
 30
0.0
 10
61.796438
 20
33.055695
 30
0.0
 10
57.148280
 20
31.545416
 30
0.0
 10
56.697769
 20
31.468224
 30
0.0
 10
56.243937
 20
31.522593
 30
0.0
 10
55.824408
 20
31.704015
 30
0.0
 10
55.373402
 20
32.122110
 30
0.0
 10
52.500683
 20
36.076070
 30
0.0
  0
LWPOLYLINE
  5
142
100
AcDbEntity
  8
0
 62
7
100
AcDbPolyline
 90
103
 70
1
 10
105.258984
 20
49.803664
 30
0.0
 10
105.127123
 20
49.668433
 30
0.0
 10
105.002235
 20
49.526703
 30
0.0
 10
104.968048
 20
49.505298
 30
0.0
 10
104.939886
 20
49.476417
 30
0.0
 10
104.774952
 20
49.384357
 30
0.0
 10
104.614866
 20
49.284091
 30
0.0
 10
104.575991
 20
49.273296
 30
0.0
 10
104.540772
 20
49.253637
 30
0.0
 10
104.356448
 20
49.212386
 30
0.0
 10
104.174425
 20
49.161888
 30
0.0
 10
104.134097
 20
49.162682
 30
0.0
 10
104.094727
 20
49.153871
 30
0.0
 10
104.000824
 20
49.165116
 30
0.0
 10
103.717426
 20
49.170302
 30
0.0
 10
103.571760
 20
49.216516
 30
0.0
 10
103.484106
 20
49.227020
 30
0.0
 10
98.229576
 20
50.934321
 30
0.0
 10
94.071982
 20
49.583435
 30
0.0
 10
94.071982
 20
44.696076
 30
0.0
 10
94.006181
 20
44.243760
 30
0.0
 10
93.814233
 20
43.828941
 30
0.0
 10
93.512047
 20
43.486007
 30
0.0
 10
92.975046
 20
43.186273
 30
0.0
 10
88.326889
 20
41.675995
 30
0.0
 10
88.326889
 20
37.304440
 30
0.0
 10
91.574366
 20
32.834673
 30
0.0
 10
91.620152
 20
32.747545
 30
0.0
 10
91.679654
 20
32.669133
 30
0.0
 10
91.697276
 20
32.600794
 30
0.0
 10
91.786998
 20
32.430064
 30
0.0
 10
91.875533
 20
31.981645
 30
0.0
 10
91.870559
 20
31.928747
 30
0.0
 10
91.877571
 20
31.901564
 30
0.0
 10
91.850379
 20
31.714652
 30
0.0
 10
91.832652
 20
31.526586
 30
0.0
 10
91.818603
 20
31.496233
 30
0.0
 10
91.811777
 20
31.449248
 30
0.0
 10
91.619829
 20
31.034429
 30
0.0
 10
91.588434
 20
30.998800
 30
0.0
 10
91.574385
 20
30.968455
 30
0.0
 10
88.701663
 20
27.014495
 30
0.0
 10
90.896440
 20
23.993644
 30
0.0
 10
94.447664
 20
25.147508
 30
0.0
 10
94.447664
 20
30.034870
 30
0.0
 10
94.451871
 20
30.063847
 30
0.0
 10
94.448723
 20
30.092954
 30
0.0
 10
94.484698
 20
30.289471
 30
0.0
 10
94.513461
 20
30.487186
 30
0.0
 10
94.525764
 20
30.513758
 30
0.0
 10
94.531029
 20
30.542561
 30
0.0
 10
94.621506
 20
30.720681
 30
0.0
 10
94.705408
 20
30.902005
 30
0.0
 10
94.724776
 20
30.923966
 30
0.0
 10
94.738031
 20
30.950080
 30
0.0
 10
94.875493
 20
31.095024
 30
0.0
 10
95.007599
 20
31.244942
 30
0.0
 10
95.029004
 20
31.256901
 30
0.0
 10
95.052552
 20
31.281746
 30
0.0
 10
95.448538
 20
31.510031
 30
0.0
 10
95.507799
 20
31.524160
 30
0.0
 10
95.544590
 20
31.544691
 30
0.0
 10
101.289683
 20
33.411385
 30
0.0
 10
101.465115
 20
33.441444
 30
0.0
 10
101.638248
 20
33.482719
 30
0.0
 10
101.689554
 20
33.479888
 30
0.0
 10
101.740195
 20
33.488566
 30
0.0
 10
101.866793
 20
33.470151
 30
0.0
 10
102.094636
 20
33.457637
 30
0.0
 10
102.191667
 20
33.422897
 30
0.0
 10
102.270811
 20
33.411388
 30
0.0
 10
106.918969
 20
31.901109
 30
0.0
 10
109.113746
 20
34.921960
 30
0.0
 10
106.241024
 20
38.875920
 30
0.0
 10
106.208724
 20
38.937382
 30
0.0
 10
106.164753
 20
38.991127
 30
0.0
 10
106.102875
 20
39.138802
 30
0.0
 10
106.028395
 20
39.280528
 30
0.0
 10
106.017944
 20
39.341473
 30
0.0
 10
105.988101
 20
39.412693
 30
0.0
 10
105.957812
 20
39.692421
 30
0.0
 10
105.937836
 20
39.809028
 30
0.0
 10
105.937836
 20
45.849775
 30
0.0
 10
105.942043
 20
45.878753
 30
0.0
 10
105.938894
 20
45.907859
 30
0.0
 10
105.974870
 20
46.104376
 30
0.0
 10
106.003632
 20
46.302091
 30
0.0
 10
106.015936
 20
46.328663
 30
0.0
 10
106.021201
 20
46.357466
 30
0.0
 10
106.111678
 20
46.535586
 30
0.0
 10
106.195580
 20
46.716910
 30
0.0
 10
106.214947
 20
46.738871
 30
0.0
 10
106.228203
 20
46.764985
 30
0.0
 10
106.365664
 20
46.909929
 30
0.0
 10
106.497771
 20
47.059847
 30
0.0
 10
106.519176
 20
47.071807
 30
0.0
 10
106.542724
 20
47.096651
 30
0.0
 10
106.938710
 20
47.324936
 30
0.0
 10
106.997971
 20
47.339065
 30
0.0
 10
107.034761
 20
47.359596
 30
0.0
 10
111.682919
 20
48.869875
 30
0.0
 10
111.682919
 20
52.603850
 30
0.0
 10
108.131697
 20
53.757714
 30
0.0
  0
LWPOLYLINE
  5
143
100
AcDbEntity
  8
0
 62
7
100
AcDbPolyline
 90
55
 70
1
 10
69.735377
 20
47.716691
 30
0.0
 10
69.735377
 20
42.829329
 30
0.0
 10
69.669575
 20
42.377013
 30
0.0
 10
69.477628
 20
41.962194
 30
0.0
 10
69.175442
 20
41.619260
 30
0.0
 10
68.638441
 20
41.319527
 30
0.0
 10
63.990286
 20
39.809248
 30
0.0
 10
63.990286
 20
35.437696
 30
0.0
 10
66.559819
 20
31.901037
 30
0.0
 10
71.207977
 20
33.411316
 30
0.0
 10
71.383409
 20
33.441375
 30
0.0
 10
71.556541
 20
33.482650
 30
0.0
 10
71.607847
 20
33.479819
 30
0.0
 10
71.658488
 20
33.488498
 30
0.0
 10
71.835214
 20
33.467331
 30
0.0
 10
72.012929
 20
33.457568
 30
0.0
 10
72.061303
 20
33.440238
 30
0.0
 10
72.112320
 20
33.434126
 30
0.0
 10
72.275684
 20
33.363479
 30
0.0
 10
72.443255
 20
33.303483
 30
0.0
 10
72.484689
 20
33.273098
 30
0.0
 10
72.531848
 20
33.252698
 30
0.0
 10
72.605106
 20
33.184788
 30
0.0
 10
72.811844
 20
33.033179
 30
0.0
 10
72.914309
 20
32.898146
 30
0.0
 10
72.982855
 20
32.834604
 30
0.0
 10
75.855573
 20
28.880644
 30
0.0
 10
79.406798
 20
30.034508
 30
0.0
 10
79.406798
 20
34.921870
 30
0.0
 10
79.411005
 20
34.950847
 30
0.0
 10
79.407856
 20
34.979954
 30
0.0
 10
79.443831
 20
35.176471
 30
0.0
 10
79.472594
 20
35.374186
 30
0.0
 10
79.484897
 20
35.400758
 30
0.0
 10
79.490163
 20
35.429560
 30
0.0
 10
79.580639
 20
35.607681
 30
0.0
 10
79.664541
 20
35.789005
 30
0.0
 10
79.683909
 20
35.810965
 30
0.0
 10
79.697165
 20
35.837080
 30
0.0
 10
79.834626
 20
35.982024
 30
0.0
 10
79.966733
 20
36.131942
 30
0.0
 10
79.988137
 20
36.143901
 30
0.0
 10
80.011685
 20
36.168745
 30
0.0
 10
80.407671
 20
36.397031
 30
0.0
 10
80.466933
 20
36.411159
 30
0.0
 10
80.503723
 20
36.431691
 30
0.0
 10
85.151878
 20
37.941970
 30
0.0
 10
85.151878
 20
42.313521
 30
0.0
 10
82.582345
 20
45.850180
 30
0.0
 10
77.934188
 20
44.339902
 30
0.0
 10
77.483676
 20
44.262709
 30
0.0
 10
77.029844
 20
44.317079
 30
0.0
 10
76.610316
 20
44.498501
 30
0.0
 10
76.159310
 20
44.916595
 30
0.0
 10
73.286591
 20
48.870555
 30
0.0
  0
LWPOLYLINE
  5
144
100
AcDbEntity
  8
0
 62
7
100
AcDbPolyline
 90
267
 70
1
 10
55.069285
 20
89.120303
 30
0.0
 10
57.942006
 20
85.166343
 30
0.0
 10
58.154636
 20
84.761734
 30
0.0
 10
58.243171
 20
84.313316
 30
0.0
 10
58.200271
 20
83.858256
 30
0.0
 10
57.942006
 20
83.300125
 30
0.0
 10
55.069288
 20
79.346168
 30
0.0
 10
57.942006
 20
75.392209
 30
0.0
 10
58.154636
 20
74.987600
 30
0.0
 10
58.243171
 20
74.539181
 30
0.0
 10
58.200271
 20
74.084122
 30
0.0
 10
57.942006
 20
73.525991
 30
0.0
 10
54.391343
 20
68.638923
 30
0.0
 10
54.072245
 20
68.311668
 30
0.0
 10
53.673129
 20
68.088896
 30
0.0
 10
53.227086
 20
67.989077
 30
0.0
 10
52.616465
 20
68.062229
 30
0.0
 10
47.968305
 20
69.572508
 30
0.0
 10
45.095586
 20
65.618548
 30
0.0
 10
44.776488
 20
65.291293
 30
0.0
 10
44.377372
 20
65.068521
 30
0.0
 10
43.931329
 20
64.968702
 30
0.0
 10
43.320708
 20
65.041854
 30
0.0
 10
38.672550
 20
66.552133
 30
0.0
 10
36.477776
 20
63.531282
 30
0.0
 10
38.672550
 20
60.510433
 30
0.0
 10
43.320708
 20
62.020712
 30
0.0
 10
43.496140
 20
62.050771
 30
0.0
 10
43.669273
 20
62.092046
 30
0.0
 10
43.720578
 20
62.089215
 30
0.0
 10
43.771219
 20
62.097894
 30
0.0
 10
43.947945
 20
62.076727
 30
0.0
 10
44.125661
 20
62.066964
 30
0.0
 10
44.174034
 20
62.049634
 30
0.0
 10
44.225051
 20
62.043522
 30
0.0
 10
44.388416
 20
61.972875
 30
0.0
 10
44.555987
 20
61.912878
 30
0.0
 10
44.597421
 20
61.882494
 30
0.0
 10
44.644580
 20
61.862094
 30
0.0
 10
44.717838
 20
61.794184
 30
0.0
 10
44.924575
 20
61.642575
 30
0.0
 10
45.027040
 20
61.507542
 30
0.0
 10
45.095586
 20
61.444000
 30
0.0
 10
47.968305
 20
57.490040
 30
0.0
 10
52.616465
 20
59.000319
 30
0.0
 10
52.791897
 20
59.030378
 30
0.0
 10
52.965030
 20
59.071653
 30
0.0
 10
53.016335
 20
59.068822
 30
0.0
 10
53.066976
 20
59.077500
 30
0.0
 10
53.243702
 20
59.056333
 30
0.0
 10
53.421418
 20
59.046570
 30
0.0
 10
53.469791
 20
59.029240
 30
0.0
 10
53.520808
 20
59.023128
 30
0.0
 10
53.684173
 20
58.952482
 30
0.0
 10
53.851744
 20
58.892485
 30
0.0
 10
53.893178
 20
58.862100
 30
0.0
 10
53.940337
 20
58.841701
 30
0.0
 10
54.013595
 20
58.773790
 30
0.0
 10
54.220332
 20
58.622181
 30
0.0
 10
54.322797
 20
58.487149
 30
0.0
 10
54.391343
 20
58.423606
 30
0.0
 10
57.942006
 20
53.536538
 30
0.0
 10
57.987793
 20
53.449410
 30
0.0
 10
58.047295
 20
53.370999
 30
0.0
 10
58.064916
 20
53.302659
 30
0.0
 10
58.154639
 20
53.131929
 30
0.0
 10
58.243174
 20
52.683511
 30
0.0
 10
58.238173
 20
52.630612
 30
0.0
 10
58.245184
 20
52.603429
 30
0.0
 10
58.217993
 20
52.416517
 30
0.0
 10
58.200266
 20
52.228451
 30
0.0
 10
58.186217
 20
52.198098
 30
0.0
 10
58.179391
 20
52.151113
 30
0.0
 10
57.987443
 20
51.736294
 30
0.0
 10
57.956048
 20
51.700665
 30
0.0
 10
57.941998
 20
51.670320
 30
0.0
 10
55.069277
 20
47.716361
 30
0.0
 10
57.941998
 20
43.762401
 30
0.0
 10
57.987785
 20
43.675274
 30
0.0
 10
58.047287
 20
43.596862
 30
0.0
 10
58.064908
 20
43.528522
 30
0.0
 10
58.154631
 20
43.357792
 30
0.0
 10
58.243166
 20
42.909374
 30
0.0
 10
58.238165
 20
42.856475
 30
0.0
 10
58.245177
 20
42.829292
 30
0.0
 10
58.217985
 20
42.642380
 30
0.0
 10
58.200258
 20
42.454314
 30
0.0
 10
58.186209
 20
42.423961
 30
0.0
 10
58.179383
 20
42.376976
 30
0.0
 10
57.987435
 20
41.962157
 30
0.0
 10
57.956040
 20
41.926529
 30
0.0
 10
57.941991
 20
41.896183
 30
0.0
 10
55.069272
 20
37.942226
 30
0.0
 10
57.264046
 20
34.921375
 30
0.0
 10
60.815270
 20
36.075239
 30
0.0
 10
60.815270
 20
40.962599
 30
0.0
 10
60.881072
 20
41.414914
 30
0.0
 10
61.073019
 20
41.829733
 30
0.0
 10
61.375205
 20
42.172668
 30
0.0
 10
61.912206
 20
42.472401
 30
0.0
 10
66.560361
 20
43.982680
 30
0.0
 10
66.560361
 20
48.870042
 30
0.0
 10
66.626163
 20
49.322358
 30
0.0
 10
66.818110
 20
49.737177
 30
0.0
 10
67.120296
 20
50.080111
 30
0.0
 10
67.657297
 20
50.379844
 30
0.0
 10
73.402391
 20
52.246538
 30
0.0
 10
73.852902
 20
52.323730
 30
0.0
 10
74.306734
 20
52.269361
 30
0.0
 10
74.726263
 20
52.087939
 30
0.0
 10
75.177269
 20
51.669844
 30
0.0
 10
78.049988
 20
47.715884
 30
0.0
 10
82.698148
 20
49.226163
 30
0.0
 10
83.148659
 20
49.303355
 30
0.0
 10
83.602491
 20
49.248986
 30
0.0
 10
84.022020
 20
49.067564
 30
0.0
 10
84.473026
 20
48.649469
 30
0.0
 10
87.345742
 20
44.695510
 30
0.0
 10
90.896967
 20
45.849373
 30
0.0
 10
90.896967
 20
49.583348
 30
0.0
 10
86.248809
 20
51.093627
 30
0.0
 10
86.150720
 20
51.142056
 30
0.0
 10
86.046453
 20
51.175137
 30
0.0
 10
85.946872
 20
51.242703
 30
0.0
 10
85.838964
 20
51.295980
 30
0.0
 10
85.758745
 20
51.370346
 30
0.0
 10
85.668220
 20
51.431767
 30
0.0
 10
85.592012
 20
51.524913
 30
0.0
 10
85.503763
 20
51.606723
 30
0.0
 10
85.448058
 20
51.700864
 30
0.0
 10
85.378787
 20
51.785528
 30
0.0
 10
85.332282
 20
51.896518
 30
0.0
 10
85.270994
 20
52.000089
 30
0.0
 10
85.255066
 20
52.080821
 30
0.0
 10
85.202154
 20
52.207094
 30
0.0
 10
85.168168
 20
52.520945
 30
0.0
 10
85.151870
 20
52.603429
 30
0.0
 10
85.151870
 20
57.490791
 30
0.0
 10
80.503715
 20
59.001070
 30
0.0
 10
80.405626
 20
59.049499
 30
0.0
 10
80.301359
 20
59.082580
 30
0.0
 10
80.201778
 20
59.150147
 30
0.0
 10
80.093870
 20
59.203423
 30
0.0
 10
80.013651
 20
59.277790
 30
0.0
 10
79.923127
 20
59.339210
 30
0.0
 10
79.846919
 20
59.432357
 30
0.0
 10
79.758670
 20
59.514166
 30
0.0
 10
79.702964
 20
59.608307
 30
0.0
 10
79.633694
 20
59.692971
 30
0.0
 10
79.587188
 20
59.803961
 30
0.0
 10
79.525900
 20
59.907532
 30
0.0
 10
79.509972
 20
59.988265
 30
0.0
 10
79.457061
 20
60.114537
 30
0.0
 10
79.423075
 20
60.428389
 30
0.0
 10
79.406776
 20
60.510872
 30
0.0
 10
79.406776
 20
66.551619
 30
0.0
 10
79.410983
 20
66.580597
 30
0.0
 10
79.407835
 20
66.609703
 30
0.0
 10
79.443810
 20
66.806220
 30
0.0
 10
79.472573
 20
67.003935
 30
0.0
 10
79.484876
 20
67.030507
 30
0.0
 10
79.490141
 20
67.059310
 30
0.0
 10
79.580618
 20
67.237430
 30
0.0
 10
79.664520
 20
67.418754
 30
0.0
 10
79.683888
 20
67.440715
 30
0.0
 10
79.697143
 20
67.466829
 30
0.0
 10
79.834605
 20
67.611773
 30
0.0
 10
79.966712
 20
67.761691
 30
0.0
 10
79.988116
 20
67.773651
 30
0.0
 10
80.011664
 20
67.798495
 30
0.0
 10
80.407650
 20
68.026780
 30
0.0
 10
80.466912
 20
68.040909
 30
0.0
 10
80.503702
 20
68.061440
 30
0.0
 10
85.151857
 20
69.571719
 30
0.0
 10
85.151857
 20
74.459081
 30
0.0
 10
85.156064
 20
74.488059
 30
0.0
 10
85.152915
 20
74.517165
 30
0.0
 10
85.188891
 20
74.713682
 30
0.0
 10
85.217654
 20
74.911397
 30
0.0
 10
85.229957
 20
74.937969
 30
0.0
 10
85.235222
 20
74.966772
 30
0.0
 10
85.325699
 20
75.144892
 30
0.0
 10
85.409601
 20
75.326216
 30
0.0
 10
85.428968
 20
75.348177
 30
0.0
 10
85.442224
 20
75.374291
 30
0.0
 10
85.579686
 20
75.519235
 30
0.0
 10
85.711792
 20
75.669153
 30
0.0
 10
85.733197
 20
75.681112
 30
0.0
 10
85.756745
 20
75.705957
 30
0.0
 10
86.152731
 20
75.934242
 30
0.0
 10
86.211992
 20
75.948371
 30
0.0
 10
86.248782
 20
75.968902
 30
0.0
 10
90.896940
 20
77.479181
 30
0.0
 10
90.896940
 20
81.213153
 30
0.0
 10
87.345716
 20
82.367017
 30
0.0
 10
84.473000
 20
78.413060
 30
0.0
 10
84.341139
 20
78.277828
 30
0.0
 10
84.216251
 20
78.136099
 30
0.0
 10
84.182064
 20
78.114694
 30
0.0
 10
84.153902
 20
78.085812
 30
0.0
 10
83.988968
 20
77.993753
 30
0.0
 10
83.828882
 20
77.893487
 30
0.0
 10
83.790007
 20
77.882692
 30
0.0
 10
83.754788
 20
77.863033
 30
0.0
 10
83.570464
 20
77.821782
 30
0.0
 10
83.388441
 20
77.771284
 30
0.0
 10
83.348113
 20
77.772077
 30
0.0
 10
83.308743
 20
77.763267
 30
0.0
 10
83.214840
 20
77.774512
 30
0.0
 10
82.931442
 20
77.779697
 30
0.0
 10
82.785775
 20
77.825912
 30
0.0
 10
82.698122
 20
77.836416
 30
0.0
 10
78.049961
 20
79.346695
 30
0.0
 10
75.177243
 20
75.392735
 30
0.0
 10
75.045382
 20
75.257504
 30
0.0
 10
74.920494
 20
75.115775
 30
0.0
 10
74.886307
 20
75.094370
 30
0.0
 10
74.858144
 20
75.065488
 30
0.0
 10
74.693203
 20
74.973423
 30
0.0
 10
74.533125
 20
74.873162
 30
0.0
 10
74.494255
 20
74.862367
 30
0.0
 10
74.459028
 20
74.842709
 30
0.0
 10
74.274683
 20
74.801455
 30
0.0
 10
74.092684
 20
74.750962
 30
0.0
 10
74.052356
 20
74.751755
 30
0.0
 10
74.012986
 20
74.742945
 30
0.0
 10
73.919083
 20
74.754190
 30
0.0
 10
73.635685
 20
74.759375
 30
0.0
 10
73.490018
 20
74.805590
 30
0.0
 10
73.402365
 20
74.816094
 30
0.0
 10
67.657271
 20
76.682788
 30
0.0
 10
67.559182
 20
76.731217
 30
0.0
 10
67.454915
 20
76.764298
 30
0.0
 10
67.355334
 20
76.831865
 30
0.0
 10
67.247426
 20
76.885141
 30
0.0
 10
67.167207
 20
76.959508
 30
0.0
 10
67.076682
 20
77.020928
 30
0.0
 10
67.000475
 20
77.114075
 30
0.0
 10
66.912225
 20
77.195884
 30
0.0
 10
66.856520
 20
77.290025
 30
0.0
 10
66.787249
 20
77.374689
 30
0.0
 10
66.740744
 20
77.485679
 30
0.0
 10
66.679456
 20
77.589250
 30
0.0
 10
66.663528
 20
77.669983
 30
0.0
 10
66.610616
 20
77.796255
 30
0.0
 10
66.576631
 20
78.110106
 30
0.0
 10
66.560332
 20
78.192590
 30
0.0
 10
66.560332
 20
83.079952
 30
0.0
 10
61.912177
 20
84.590231
 30
0.0
 10
61.814088
 20
84.638661
 30
0.0
 10
61.709821
 20
84.671741
 30
0.0
 10
61.610240
 20
84.739308
 30
0.0
 10
61.502332
 20
84.792585
 30
0.0
 10
61.422113
 20
84.866951
 30
0.0
 10
61.331589
 20
84.928371
 30
0.0
 10
61.255381
 20
85.021518
 30
0.0
 10
61.167132
 20
85.103327
 30
0.0
 10
61.111426
 20
85.197468
 30
0.0
 10
61.042156
 20
85.282132
 30
0.0
 10
60.995650
 20
85.393123
 30
0.0
 10
60.934362
 20
85.496694
 30
0.0
 10
60.918434
 20
85.577426
 30
0.0
 10
60.865523
 20
85.703698
 30
0.0
 10
60.831537
 20
86.017550
 30
0.0
 10
60.815239
 20
86.100034
 30
0.0
 10
60.815239
 20
90.987393
 30
0.0
 10
57.264014
 20
92.141257
 30
0.0
  0
LWPOLYLINE
  5
145
100
AcDbEntity
  8
0
 62
7
100
AcDbPolyline
 90
55
 70
1
 10
39.047309
 20
57.293806
 30
0.0
 10
36.477773
 20
53.757147
 30
0.0
 10
39.350495
 20
49.803188
 30
0.0
 10
39.563125
 20
49.398579
 30
0.0
 10
39.651660
 20
48.950160
 30
0.0
 10
39.608760
 20
48.495101
 30
0.0
 10
39.350495
 20
47.936970
 30
0.0
 10
36.477773
 20
43.983010
 30
0.0
 10
38.672550
 20
40.962159
 30
0.0
 10
43.320708
 20
42.472438
 30
0.0
 10
43.771219
 20
42.549630
 30
0.0
 10
44.225051
 20
42.495261
 30
0.0
 10
44.644580
 20
42.313839
 30
0.0
 10
45.095586
 20
41.895744
 30
0.0
 10
47.968305
 20
37.941787
 30
0.0
 10
52.125901
 20
39.292673
 30
0.0
 10
54.695434
 20
42.829329
 30
0.0
 10
51.822715
 20
46.783289
 30
0.0
 10
51.790415
 20
46.844752
 30
0.0
 10
51.746444
 20
46.898496
 30
0.0
 10
51.684566
 20
47.046171
 30
0.0
 10
51.610085
 20
47.187898
 30
0.0
 10
51.596645
 20
47.256017
 30
0.0
 10
51.569808
 20
47.320062
 30
0.0
 10
51.552583
 20
47.479241
 30
0.0
 10
51.521572
 20
47.636316
 30
0.0
 10
51.528080
 20
47.705449
 30
0.0
 10
51.520619
 20
47.774482
 30
0.0
 10
51.549448
 20
47.931964
 30
0.0
 10
51.564476
 20
48.091376
 30
0.0
 10
51.587892
 20
48.141988
 30
0.0
 10
51.602920
 20
48.224088
 30
0.0
 10
51.809917
 20
48.631605
 30
0.0
 10
51.818781
 20
48.640944
 30
0.0
 10
51.822750
 20
48.649517
 30
0.0
 10
54.695471
 20
52.603477
 30
0.0
 10
52.500694
 20
55.624328
 30
0.0
 10
47.852534
 20
54.114049
 30
0.0
 10
47.705486
 20
54.088861
 30
0.0
 10
47.561725
 20
54.048977
 30
0.0
 10
47.481305
 20
54.050565
 30
0.0
 10
47.402022
 20
54.036992
 30
0.0
 10
47.253890
 20
54.054745
 30
0.0
 10
47.104726
 20
54.057471
 30
0.0
 10
47.028055
 20
54.081786
 30
0.0
 10
46.948191
 20
54.091364
 30
0.0
 10
46.811263
 20
54.150577
 30
0.0
 10
46.669050
 20
54.195697
 30
0.0
 10
46.602483
 20
54.240864
 30
0.0
 10
46.528662
 20
54.272786
 30
0.0
 10
46.455576
 20
54.340538
 30
0.0
 10
46.290817
 20
54.452327
 30
0.0
 10
46.152120
 20
54.621848
 30
0.0
 10
46.077656
 20
54.690880
 30
0.0
 10
43.204937
 20
58.644840
 30
0.0
  0
LWPOLYLINE
  5
146
100
AcDbEntity
  8
0
 62
7
100
AcDbPolyline
 90
71
 70
1
 10
21.436925
 20
78.192487
 30
0.0
 10
24.309644
 20
74.238527
 30
0.0
 10
24.355430
 20
74.151400
 30
0.0
 10
24.414932
 20
74.072988
 30
0.0
 10
24.432551
 20
74.004649
 30
0.0
 10
24.522274
 20
73.833919
 30
0.0
 10
24.610809
 20
73.385500
 30
0.0
 10
24.605821
 20
73.332602
 30
0.0
 10
24.612830
 20
73.305419
 30
0.0
 10
24.585639
 20
73.118506
 30
0.0
 10
24.567909
 20
72.930441
 30
0.0
 10
24.553862
 20
72.900088
 30
0.0
 10
24.547028
 20
72.853103
 30
0.0
 10
24.355081
 20
72.438284
 30
0.0
 10
24.323686
 20
72.402655
 30
0.0
 10
24.309644
 20
72.372310
 30
0.0
 10
20.758983
 20
67.485241
 30
0.0
 10
20.627123
 20
67.350010
 30
0.0
 10
20.502234
 20
67.208281
 30
0.0
 10
20.468048
 20
67.186876
 30
0.0
 10
20.439885
 20
67.157994
 30
0.0
 10
20.328353
 20
67.099381
 30
0.0
 10
20.114866
 20
66.965669
 30
0.0
 10
20.028114
 20
66.941592
 30
0.0
 10
19.965233
 20
66.908545
 30
0.0
 10
15.317076
 20
65.398266
 30
0.0
 10
15.317076
 20
61.664294
 30
0.0
 10
19.965233
 20
60.154016
 30
0.0
 10
20.375078
 20
59.951662
 30
0.0
 10
20.758983
 20
59.577322
 30
0.0
 10
24.309644
 20
54.690253
 30
0.0
 10
24.522274
 20
54.285645
 30
0.0
 10
24.610809
 20
53.837226
 30
0.0
 10
24.567909
 20
53.382167
 30
0.0
 10
24.309644
 20
52.824036
 30
0.0
 10
21.436925
 20
48.870076
 30
0.0
 10
23.631702
 20
45.849225
 30
0.0
 10
27.182924
 20
47.003089
 30
0.0
 10
27.182924
 20
51.890454
 30
0.0
 10
27.248726
 20
52.342770
 30
0.0
 10
27.440673
 20
52.757589
 30
0.0
 10
27.742859
 20
53.100523
 30
0.0
 10
28.279860
 20
53.400256
 30
0.0
 10
33.534390
 20
55.107557
 30
0.0
 10
36.103922
 20
58.644216
 30
0.0
 10
33.231204
 20
62.598173
 30
0.0
 10
33.018574
 20
63.002779
 30
0.0
 10
32.930039
 20
63.451200
 30
0.0
 10
32.972939
 20
63.906260
 30
0.0
 10
33.231204
 20
64.464390
 30
0.0
 10
36.103925
 20
68.418350
 30
0.0
 10
33.534390
 20
71.955009
 30
0.0
 10
28.279860
 20
73.662310
 30
0.0
 10
28.181771
 20
73.710739
 30
0.0
 10
28.077504
 20
73.743820
 30
0.0
 10
27.977923
 20
73.811387
 30
0.0
 10
27.870015
 20
73.864663
 30
0.0
 10
27.789796
 20
73.939030
 30
0.0
 10
27.699272
 20
74.000450
 30
0.0
 10
27.623064
 20
74.093597
 30
0.0
 10
27.534814
 20
74.175406
 30
0.0
 10
27.479109
 20
74.269547
 30
0.0
 10
27.409839
 20
74.354211
 30
0.0
 10
27.363333
 20
74.465201
 30
0.0
 10
27.302045
 20
74.568772
 30
0.0
 10
27.286117
 20
74.649505
 30
0.0
 10
27.233205
 20
74.775777
 30
0.0
 10
27.199220
 20
75.089628
 30
0.0
 10
27.182921
 20
75.172112
 30
0.0
 10
27.182921
 20
80.059474
 30
0.0
 10
23.631700
 20
81.213338
 30
0.0
  0
LWPOLYLINE
  5
147
100
AcDbEntity
  8
0
 62
7
100
AcDbPolyline
 90
41
 70
1
 10
88.326889
 20
73.305712
 30
0.0
 10
88.326889
 20
68.418350
 30
0.0
 10
88.261087
 20
67.966034
 30
0.0
 10
88.069140
 20
67.551215
 30
0.0
 10
87.766954
 20
67.208281
 30
0.0
 10
87.379585
 20
66.965661
 30
0.0
 10
87.285523
 20
66.939573
 30
0.0
 10
87.229953
 20
66.908556
 30
0.0
 10
82.581798
 20
65.398277
 30
0.0
 10
82.581798
 20
61.664305
 30
0.0
 10
87.229953
 20
60.154026
 30
0.0
 10
87.353939
 20
60.092810
 30
0.0
 10
87.484103
 20
60.046206
 30
0.0
 10
87.557816
 20
59.992149
 30
0.0
 10
87.639798
 20
59.951673
 30
0.0
 10
87.741204
 20
59.857664
 30
0.0
 10
87.852692
 20
59.775908
 30
0.0
 10
87.907953
 20
59.703084
 30
0.0
 10
87.974998
 20
59.640930
 30
0.0
 10
88.045412
 20
59.521937
 30
0.0
 10
88.128991
 20
59.411793
 30
0.0
 10
88.143199
 20
59.356678
 30
0.0
 10
88.207765
 20
59.247564
 30
0.0
 10
88.326886
 20
58.644224
 30
0.0
 10
88.326886
 20
53.756862
 30
0.0
 10
92.484480
 20
52.405976
 30
0.0
 10
96.642073
 20
53.756862
 30
0.0
 10
96.642073
 20
58.644224
 30
0.0
 10
96.707875
 20
59.096540
 30
0.0
 10
96.899823
 20
59.511359
 30
0.0
 10
97.202009
 20
59.854293
 30
0.0
 10
97.739009
 20
60.154026
 30
0.0
 10
102.387167
 20
61.664305
 30
0.0
 10
102.387167
 20
65.398277
 30
0.0
 10
97.739009
 20
66.908556
 30
0.0
 10
97.329165
 20
67.110909
 30
0.0
 10
96.993964
 20
67.421652
 30
0.0
 10
96.761194
 20
67.815018
 30
0.0
 10
96.642073
 20
68.418358
 30
0.0
 10
96.642073
 20
73.305720
 30
0.0
 10
92.484480
 20
74.656606
 30
0.0
  0
LWPOLYLINE
  5
148
100
AcDbEntity
  8
0
 62
7
100
AcDbPolyline
 90
52
 70
1
 10
45.095586
 20
85.166822
 30
0.0
 10
44.963726
 20
85.031591
 30
0.0
 10
44.838837
 20
84.889861
 30
0.0
 10
44.804650
 20
84.868456
 30
0.0
 10
44.776488
 20
84.839575
 30
0.0
 10
44.611547
 20
84.747510
 30
0.0
 10
44.451468
 20
84.647249
 30
0.0
 10
44.412598
 20
84.636454
 30
0.0
 10
44.377372
 20
84.616795
 30
0.0
 10
44.193026
 20
84.575542
 30
0.0
 10
44.011027
 20
84.525048
 30
0.0
 10
43.970699
 20
84.525842
 30
0.0
 10
43.931329
 20
84.517032
 30
0.0
 10
43.837426
 20
84.528276
 30
0.0
 10
43.554028
 20
84.533462
 30
0.0
 10
43.408362
 20
84.579677
 30
0.0
 10
43.320708
 20
84.590181
 30
0.0
 10
38.672550
 20
86.100460
 30
0.0
 10
36.477773
 20
83.079609
 30
0.0
 10
39.350495
 20
79.125649
 30
0.0
 10
39.396281
 20
79.038521
 30
0.0
 10
39.455783
 20
78.960110
 30
0.0
 10
39.473404
 20
78.891770
 30
0.0
 10
39.563127
 20
78.721040
 30
0.0
 10
39.651662
 20
78.272621
 30
0.0
 10
39.646662
 20
78.219723
 30
0.0
 10
39.653673
 20
78.192540
 30
0.0
 10
39.626482
 20
78.005628
 30
0.0
 10
39.608755
 20
77.817562
 30
0.0
 10
39.594705
 20
77.787209
 30
0.0
 10
39.587879
 20
77.740224
 30
0.0
 10
39.395932
 20
77.325405
 30
0.0
 10
39.364536
 20
77.289776
 30
0.0
 10
39.350487
 20
77.259431
 30
0.0
 10
36.477765
 20
73.305472
 30
0.0
 10
39.047301
 20
69.768813
 30
0.0
 10
43.204895
 20
68.417927
 30
0.0
 10
46.077613
 20
72.371887
 30
0.0
 10
46.396712
 20
72.699142
 30
0.0
 10
46.795828
 20
72.921913
 30
0.0
 10
47.241870
 20
73.021732
 30
0.0
 10
47.852491
 20
72.948580
 30
0.0
 10
52.500652
 20
71.438302
 30
0.0
 10
54.695429
 20
74.459153
 30
0.0
 10
51.822707
 20
78.413113
 30
0.0
 10
51.610077
 20
78.817721
 30
0.0
 10
51.521543
 20
79.266140
 30
0.0
 10
51.564442
 20
79.721199
 30
0.0
 10
51.822707
 20
80.279330
 30
0.0
 10
54.695426
 20
84.233287
 30
0.0
 10
52.125893
 20
87.769946
 30
0.0
 10
47.968297
 20
89.120832
 30
0.0
  0
LWPOLYLINE
  5
149
100
AcDbEntity
  8
0
 62
7
100
AcDbPolyline
 90
52
 70
1
 10
88.701645
 20
100.048121
 30
0.0
 10
91.574366
 20
96.094161
 30
0.0
 10
91.786996
 20
95.689552
 30
0.0
 10
91.875531
 20
95.241134
 30
0.0
 10
91.832631
 20
94.786074
 30
0.0
 10
91.574366
 20
94.227944
 30
0.0
 10
88.326889
 20
89.758176
 30
0.0
 10
88.326889
 20
85.386622
 30
0.0
 10
92.975046
 20
83.876343
 30
0.0
 10
93.099033
 20
83.815126
 30
0.0
 10
93.229197
 20
83.768523
 30
0.0
 10
93.302910
 20
83.714466
 30
0.0
 10
93.384891
 20
83.673990
 30
0.0
 10
93.486298
 20
83.579981
 30
0.0
 10
93.597786
 20
83.498224
 30
0.0
 10
93.653046
 20
83.425400
 30
0.0
 10
93.720092
 20
83.363247
 30
0.0
 10
93.790505
 20
83.244253
 30
0.0
 10
93.874085
 20
83.134110
 30
0.0
 10
93.888293
 20
83.078995
 30
0.0
 10
93.952859
 20
82.969881
 30
0.0
 10
94.071980
 20
82.366541
 30
0.0
 10
94.071980
 20
77.479181
 30
0.0
 10
98.229573
 20
76.128295
 30
0.0
 10
103.484103
 20
77.835596
 30
0.0
 10
103.934615
 20
77.912788
 30
0.0
 10
104.388446
 20
77.858419
 30
0.0
 10
104.807975
 20
77.676997
 30
0.0
 10
105.258981
 20
77.258902
 30
0.0
 10
108.131700
 20
73.304942
 30
0.0
 10
111.682922
 20
74.458806
 30
0.0
 10
111.682922
 20
78.192781
 30
0.0
 10
107.034764
 20
79.703060
 30
0.0
 10
106.624919
 20
79.905413
 30
0.0
 10
106.289718
 20
80.216155
 30
0.0
 10
106.056949
 20
80.609522
 30
0.0
 10
105.937828
 20
81.212862
 30
0.0
 10
105.937828
 20
87.253609
 30
0.0
 10
106.003630
 20
87.705925
 30
0.0
 10
106.241014
 20
88.186718
 30
0.0
 10
109.113735
 20
92.140678
 30
0.0
 10
106.918958
 20
95.161529
 30
0.0
 10
102.270801
 20
93.651250
 30
0.0
 10
101.820289
 20
93.574058
 30
0.0
 10
101.289673
 20
93.651250
 30
0.0
 10
95.544579
 20
95.517944
 30
0.0
 10
95.134734
 20
95.720297
 30
0.0
 10
94.799534
 20
96.031039
 30
0.0
 10
94.566764
 20
96.424406
 30
0.0
 10
94.447643
 20
97.027746
 30
0.0
 10
94.447643
 20
101.915108
 30
0.0
 10
90.896419
 20
103.068972
 30
0.0
  0
LWPOLYLINE
  5
14a
100
AcDbEntity
  8
0
 62
7
100
AcDbPolyline
 90
51
 70
1
 10
72.982855
 20
94.227944
 30
0.0
 10
72.663756
 20
93.900688
 30
0.0
 10
72.264640
 20
93.677917
 30
0.0
 10
71.818598
 20
93.578098
 30
0.0
 10
71.207977
 20
93.651250
 30
0.0
 10
66.559819
 20
95.161529
 30
0.0
 10
63.990286
 20
91.624870
 30
0.0
 10
63.990286
 20
87.253315
 30
0.0
 10
68.638441
 20
85.743037
 30
0.0
 10
68.762428
 20
85.681820
 30
0.0
 10
68.892592
 20
85.635216
 30
0.0
 10
68.966305
 20
85.581159
 30
0.0
 10
69.048286
 20
85.540683
 30
0.0
 10
69.149693
 20
85.446674
 30
0.0
 10
69.261180
 20
85.364918
 30
0.0
 10
69.316441
 20
85.292094
 30
0.0
 10
69.383487
 20
85.229941
 30
0.0
 10
69.453900
 20
85.110947
 30
0.0
 10
69.537479
 20
85.000804
 30
0.0
 10
69.551688
 20
84.945688
 30
0.0
 10
69.616254
 20
84.836574
 30
0.0
 10
69.735375
 20
84.233234
 30
0.0
 10
69.735375
 20
79.345875
 30
0.0
 10
73.286599
 20
78.192011
 30
0.0
 10
76.159318
 20
82.145971
 30
0.0
 10
76.311292
 20
82.301829
 30
0.0
 10
76.461030
 20
82.459716
 30
0.0
 10
76.470661
 20
82.465272
 30
0.0
 10
76.478440
 20
82.473236
 30
0.0
 10
76.668596
 20
82.579374
 30
0.0
 10
76.857040
 20
82.688012
 30
0.0
 10
76.867835
 20
82.690658
 30
0.0
 10
76.877545
 20
82.696082
 30
0.0
 10
77.090008
 20
82.743627
 30
0.0
 10
77.301646
 20
82.794083
 30
0.0
 10
77.312732
 20
82.793554
 30
0.0
 10
77.323580
 20
82.795936
 30
0.0
 10
77.370204
 20
82.790353
 30
0.0
 10
77.758025
 20
82.769027
 30
0.0
 10
77.863586
 20
82.731232
 30
0.0
 10
77.934201
 20
82.722765
 30
0.0
 10
82.582361
 20
81.212486
 30
0.0
 10
85.151891
 20
84.749143
 30
0.0
 10
85.151891
 20
89.120697
 30
0.0
 10
80.503736
 20
90.630976
 30
0.0
 10
80.093891
 20
90.833329
 30
0.0
 10
79.758691
 20
91.144071
 30
0.0
 10
79.525921
 20
91.537438
 30
0.0
 10
79.406800
 20
92.140778
 30
0.0
 10
79.406800
 20
97.028140
 30
0.0
 10
75.855576
 20
98.182004
 30
0.0
  0
LWPOLYLINE
  5
14b
100
AcDbEntity
  8
0
 62
7
100
AcDbPolyline
 90
100
 70
1
 10
48.949435
 20
111.689242
 30
0.0
 10
48.949435
 20
106.801883
 30
0.0
 10
48.883633
 20
106.349567
 30
0.0
 10
48.691686
 20
105.934748
 30
0.0
 10
48.662431
 20
105.901548
 30
0.0
 10
48.646239
 20
105.868774
 30
0.0
 10
45.095575
 20
100.981706
 30
0.0
 10
44.963715
 20
100.846475
 30
0.0
 10
44.838826
 20
100.704745
 30
0.0
 10
44.804640
 20
100.683340
 30
0.0
 10
44.776477
 20
100.654459
 30
0.0
 10
44.611536
 20
100.562394
 30
0.0
 10
44.451458
 20
100.462133
 30
0.0
 10
44.412588
 20
100.451338
 30
0.0
 10
44.377361
 20
100.431679
 30
0.0
 10
44.193015
 20
100.390426
 30
0.0
 10
44.011017
 20
100.339932
 30
0.0
 10
43.970689
 20
100.340726
 30
0.0
 10
43.931319
 20
100.331916
 30
0.0
 10
43.837415
 20
100.343160
 30
0.0
 10
43.554018
 20
100.348346
 30
0.0
 10
43.408351
 20
100.394561
 30
0.0
 10
43.320697
 20
100.405065
 30
0.0
 10
38.672540
 20
101.915344
 30
0.0
 10
36.477763
 20
98.894493
 30
0.0
 10
38.672540
 20
95.873641
 30
0.0
 10
43.320697
 20
97.383920
 30
0.0
 10
43.496129
 20
97.413979
 30
0.0
 10
43.669262
 20
97.455254
 30
0.0
 10
43.720568
 20
97.452423
 30
0.0
 10
43.771209
 20
97.461102
 30
0.0
 10
43.947935
 20
97.439935
 30
0.0
 10
44.125650
 20
97.430172
 30
0.0
 10
44.174024
 20
97.412842
 30
0.0
 10
44.225041
 20
97.406730
 30
0.0
 10
44.388405
 20
97.336083
 30
0.0
 10
44.555976
 20
97.276087
 30
0.0
 10
44.597410
 20
97.245702
 30
0.0
 10
44.644569
 20
97.225302
 30
0.0
 10
44.717827
 20
97.157392
 30
0.0
 10
44.924565
 20
97.005783
 30
0.0
 10
45.027030
 20
96.870750
 30
0.0
 10
45.095575
 20
96.807208
 30
0.0
 10
48.343053
 20
92.337440
 30
0.0
 10
52.500649
 20
90.986554
 30
0.0
 10
55.373368
 20
94.940514
 30
0.0
 10
55.692466
 20
95.267769
 30
0.0
 10
56.091582
 20
95.490541
 30
0.0
 10
56.537625
 20
95.590360
 30
0.0
 10
57.148246
 20
95.517208
 30
0.0
 10
61.796403
 20
94.006929
 30
0.0
 10
64.365936
 20
97.543588
 30
0.0
 10
64.365936
 20
103.068527
 30
0.0
 10
64.370143
 20
103.097505
 30
0.0
 10
64.366995
 20
103.126611
 30
0.0
 10
64.402970
 20
103.323128
 30
0.0
 10
64.431733
 20
103.520843
 30
0.0
 10
64.444036
 20
103.547415
 30
0.0
 10
64.449301
 20
103.576218
 30
0.0
 10
64.539778
 20
103.754338
 30
0.0
 10
64.623680
 20
103.935662
 30
0.0
 10
64.643048
 20
103.957623
 30
0.0
 10
64.656303
 20
103.983737
 30
0.0
 10
64.793765
 20
104.128681
 30
0.0
 10
64.925871
 20
104.278599
 30
0.0
 10
64.947276
 20
104.290558
 30
0.0
 10
64.970824
 20
104.315403
 30
0.0
 10
65.366810
 20
104.543688
 30
0.0
 10
65.426071
 20
104.557817
 30
0.0
 10
65.462862
 20
104.578348
 30
0.0
 10
70.111019
 20
106.088627
 30
0.0
 10
70.111019
 20
109.822602
 30
0.0
 10
66.559798
 20
110.976466
 30
0.0
 10
63.687079
 20
107.022506
 30
0.0
 10
63.555219
 20
106.887275
 30
0.0
 10
63.430330
 20
106.745545
 30
0.0
 10
63.396143
 20
106.724140
 30
0.0
 10
63.367981
 20
106.695259
 30
0.0
 10
63.203048
 20
106.603199
 30
0.0
 10
63.042961
 20
106.502933
 30
0.0
 10
63.004086
 20
106.492138
 30
0.0
 10
62.968867
 20
106.472479
 30
0.0
 10
62.784543
 20
106.431228
 30
0.0
 10
62.602520
 20
106.380730
 30
0.0
 10
62.562192
 20
106.381524
 30
0.0
 10
62.522822
 20
106.372713
 30
0.0
 10
62.428919
 20
106.383958
 30
0.0
 10
62.145521
 20
106.389144
 30
0.0
 10
61.999855
 20
106.435358
 30
0.0
 10
61.912201
 20
106.445862
 30
0.0
 10
56.167107
 20
108.312556
 30
0.0
 10
56.069018
 20
108.360985
 30
0.0
 10
55.964751
 20
108.394066
 30
0.0
 10
55.865170
 20
108.461633
 30
0.0
 10
55.757262
 20
108.514909
 30
0.0
 10
55.690040
 20
108.580457
 30
0.0
 10
55.586519
 20
108.650696
 30
0.0
 10
55.462302
 20
108.802522
 30
0.0
 10
55.373357
 20
108.889250
 30
0.0
 10
52.500638
 20
112.843209
 30
0.0
  0
LWPOLYLINE
  5
14c
100
AcDbEntity
  8
0
 62
7
100
AcDbPolyline
 90
223
 70
1
 10
181.806077
 20
117.145906
 30
0.0
 10
182.225606
 20
116.964484
 30
0.0
 10
182.676612
 20
116.546389
 30
0.0
 10
187.058816
 20
110.514802
 30
0.0
 10
194.149371
 20
112.818664
 30
0.0
 10
194.324803
 20
112.848723
 30
0.0
 10
194.497936
 20
112.889998
 30
0.0
 10
194.549242
 20
112.887167
 30
0.0
 10
194.599883
 20
112.895846
 30
0.0
 10
194.776609
 20
112.874679
 30
0.0
 10
194.954324
 20
112.864916
 30
0.0
 10
195.002698
 20
112.847586
 30
0.0
 10
195.053715
 20
112.841474
 30
0.0
 10
195.217079
 20
112.770827
 30
0.0
 10
195.384650
 20
112.710830
 30
0.0
 10
195.426084
 20
112.680446
 30
0.0
 10
195.473243
 20
112.660046
 30
0.0
 10
195.546501
 20
112.592136
 30
0.0
 10
195.753239
 20
112.440527
 30
0.0
 10
195.855704
 20
112.305494
 30
0.0
 10
195.924249
 20
112.241952
 30
0.0
 10
204.111738
 20
100.972840
 30
0.0
 10
204.157524
 20
100.885712
 30
0.0
 10
204.217027
 20
100.807300
 30
0.0
 10
204.219143
 20
100.799469
 30
0.0
 10
204.227636
 20
100.787959
 30
0.0
 10
204.268488
 20
100.674757
 30
0.0
 10
204.324469
 20
100.568233
 30
0.0
 10
204.345662
 20
100.460921
 30
0.0
 10
204.382796
 20
100.358019
 30
0.0
 10
204.400497
 20
100.183132
 30
0.0
 10
204.412985
 20
100.119815
 30
0.0
 10
204.410048
 20
100.088679
 30
0.0
 10
204.414996
 20
100.039734
 30
0.0
 10
204.414996
 20
87.263732
 30
0.0
 10
216.565697
 20
83.315728
 30
0.0
 10
216.735094
 20
83.232093
 30
0.0
 10
216.908441
 20
83.157129
 30
0.0
 10
216.932968
 20
83.134401
 30
0.0
 10
216.975550
 20
83.113367
 30
0.0
 10
217.310750
 20
82.802624
 30
0.0
 10
217.334933
 20
82.761762
 30
0.0
 10
217.359460
 20
82.739034
 30
0.0
 10
225.546949
 20
71.469922
 30
0.0
 10
225.759579
 20
71.065313
 30
0.0
 10
225.848114
 20
70.616895
 30
0.0
 10
225.805214
 20
70.161835
 30
0.0
 10
225.546949
 20
69.603705
 30
0.0
 10
221.164745
 20
63.572120
 30
0.0
 10
225.546949
 20
57.540533
 30
0.0
 10
225.592735
 20
57.453406
 30
0.0
 10
225.652237
 20
57.374994
 30
0.0
 10
225.669859
 20
57.306655
 30
0.0
 10
225.759581
 20
57.135924
 30
0.0
 10
225.848116
 20
56.687506
 30
0.0
 10
225.843142
 20
56.634608
 30
0.0
 10
225.850154
 20
56.607424
 30
0.0
 10
225.822962
 20
56.420512
 30
0.0
 10
225.805235
 20
56.232446
 30
0.0
 10
225.791186
 20
56.202093
 30
0.0
 10
225.784360
 20
56.155108
 30
0.0
 10
225.592412
 20
55.740289
 30
0.0
 10
225.561017
 20
55.704661
 30
0.0
 10
225.546968
 20
55.674316
 30
0.0
 10
217.359479
 20
44.405203
 30
0.0
 10
217.227618
 20
44.269972
 30
0.0
 10
217.102730
 20
44.128243
 30
0.0
 10
217.068543
 20
44.106838
 30
0.0
 10
217.040381
 20
44.077956
 30
0.0
 10
216.875455
 20
43.985902
 30
0.0
 10
216.715361
 20
43.885631
 30
0.0
 10
216.676481
 20
43.874836
 30
0.0
 10
216.641265
 20
43.855177
 30
0.0
 10
216.594933
 20
43.844805
 30
0.0
 10
216.565729
 20
43.828507
 30
0.0
 10
204.415028
 20
39.880506
 30
0.0
 10
204.415028
 20
27.104504
 30
0.0
 10
204.387836
 20
26.917592
 30
0.0
 10
204.370109
 20
26.729526
 30
0.0
 10
204.356060
 20
26.699173
 30
0.0
 10
204.349234
 20
26.652188
 30
0.0
 10
204.157286
 20
26.237369
 30
0.0
 10
204.125891
 20
26.201740
 30
0.0
 10
204.111841
 20
26.171395
 30
0.0
 10
195.924353
 20
14.902283
 30
0.0
 10
195.605254
 20
14.575028
 30
0.0
 10
195.206138
 20
14.352259
 30
0.0
 10
194.760096
 20
14.252437
 30
0.0
 10
194.149475
 20
14.325589
 30
0.0
 10
187.058919
 20
16.629449
 30
0.0
 10
182.676715
 20
10.597864
 30
0.0
 10
182.544855
 20
10.462633
 30
0.0
 10
182.419966
 20
10.320904
 30
0.0
 10
182.385779
 20
10.299499
 30
0.0
 10
182.357617
 20
10.270617
 30
0.0
 10
182.192692
 20
10.178563
 30
0.0
 10
182.032598
 20
10.078291
 30
0.0
 10
181.993717
 20
10.067496
 30
0.0
 10
181.958501
 20
10.047838
 30
0.0
 10
181.774185
 20
10.006589
 30
0.0
 10
181.592156
 20
9.956088
 30
0.0
 10
181.551826
 20
9.956882
 30
0.0
 10
181.512459
 20
9.948071
 30
0.0
 10
181.418555
 20
9.959316
 30
0.0
 10
181.135158
 20
9.964502
 30
0.0
 10
180.989491
 20
10.010717
 30
0.0
 10
180.901837
 20
10.021221
 30
0.0
 10
167.654203
 20
14.325640
 30
0.0
 10
167.556114
 20
14.374069
 30
0.0
 10
167.451847
 20
14.407150
 30
0.0
 10
167.352266
 20
14.474717
 30
0.0
 10
167.244358
 20
14.527993
 30
0.0
 10
167.164139
 20
14.602359
 30
0.0
 10
167.073614
 20
14.663780
 30
0.0
 10
166.956489
 20
14.794857
 30
0.0
 10
166.909157
 20
14.838736
 30
0.0
 10
166.893229
 20
14.865652
 30
0.0
 10
166.860453
 20
14.902333
 30
0.0
 10
159.350906
 20
25.238337
 30
0.0
 10
147.200205
 20
21.290333
 30
0.0
 10
147.092387
 20
21.271865
 30
0.0
 10
146.988586
 20
21.237340
 30
0.0
 10
146.868303
 20
21.233477
 30
0.0
 10
146.749693
 20
21.213157
 30
0.0
 10
146.641084
 20
21.226174
 30
0.0
 10
146.531745
 20
21.222655
 30
0.0
 10
146.359938
 20
21.259856
 30
0.0
 10
146.295861
 20
21.267528
 30
0.0
 10
146.267159
 20
21.279937
 30
0.0
 10
146.219077
 20
21.290362
 30
0.0
 10
132.971439
 20
25.594781
 30
0.0
 10
132.561595
 20
25.797134
 30
0.0
 10
132.226394
 20
26.107877
 30
0.0
 10
131.993624
 20
26.501243
 30
0.0
 10
131.874503
 20
27.104583
 30
0.0
 10
131.874503
 20
34.560034
 30
0.0
 10
124.783951
 20
36.863893
 30
0.0
 10
124.374106
 20
37.066246
 30
0.0
 10
124.038905
 20
37.376989
 30
0.0
 10
123.806135
 20
37.770356
 30
0.0
 10
123.687015
 20
38.373696
 30
0.0
 10
123.687015
 20
52.303085
 30
0.0
 10
123.691221
 20
52.332062
 30
0.0
 10
123.688073
 20
52.361169
 30
0.0
 10
123.716902
 20
52.518651
 30
0.0
 10
123.731930
 20
52.678063
 30
0.0
 10
123.745980
 20
52.708416
 30
0.0
 10
123.752806
 20
52.755400
 30
0.0
 10
123.765109
 20
52.781973
 30
0.0
 10
123.770374
 20
52.810775
 30
0.0
 10
123.860851
 20
52.988895
 30
0.0
 10
123.944753
 20
53.170220
 30
0.0
 10
123.964121
 20
53.192180
 30
0.0
 10
123.977376
 20
53.218294
 30
0.0
 10
123.986240
 20
53.227634
 30
0.0
 10
123.990208
 20
53.236207
 30
0.0
 10
131.499756
 20
63.572210
 30
0.0
 10
123.990208
 20
73.908214
 30
0.0
 10
123.957908
 20
73.969676
 30
0.0
 10
123.913937
 20
74.023421
 30
0.0
 10
123.867431
 20
74.134411
 30
0.0
 10
123.806143
 20
74.237982
 30
0.0
 10
123.799661
 20
74.270796
 30
0.0
 10
123.777568
 20
74.312822
 30
0.0
 10
123.764127
 20
74.380942
 30
0.0
 10
123.737291
 20
74.444987
 30
0.0
 10
123.720040
 20
74.604166
 30
0.0
 10
123.689028
 20
74.761241
 30
0.0
 10
123.693473
 20
74.808511
 30
0.0
 10
123.686991
 20
74.841322
 30
0.0
 10
123.686991
 20
88.770711
 30
0.0
 10
123.752793
 20
89.223027
 30
0.0
 10
123.944740
 20
89.637846
 30
0.0
 10
124.246926
 20
89.980781
 30
0.0
 10
124.783927
 20
90.280514
 30
0.0
 10
131.874480
 20
92.584373
 30
0.0
 10
131.874480
 20
100.039824
 30
0.0
 10
131.878686
 20
100.068801
 30
0.0
 10
131.875538
 20
100.097908
 30
0.0
 10
131.911513
 20
100.294424
 30
0.0
 10
131.940276
 20
100.492139
 30
0.0
 10
131.952579
 20
100.518711
 30
0.0
 10
131.957845
 20
100.547514
 30
0.0
 10
132.048321
 20
100.725634
 30
0.0
 10
132.132223
 20
100.906958
 30
0.0
 10
132.151591
 20
100.928919
 30
0.0
 10
132.164847
 20
100.955033
 30
0.0
 10
132.302308
 20
101.099977
 30
0.0
 10
132.434415
 20
101.249895
 30
0.0
 10
132.455819
 20
101.261855
 30
0.0
 10
132.479367
 20
101.286699
 30
0.0
 10
132.875353
 20
101.514984
 30
0.0
 10
132.934615
 20
101.529113
 30
0.0
 10
132.971405
 20
101.549644
 30
0.0
 10
146.219042
 20
105.854063
 30
0.0
 10
146.326860
 20
105.872531
 30
0.0
 10
146.430661
 20
105.907057
 30
0.0
 10
146.500064
 20
105.909173
 30
0.0
 10
146.567607
 20
105.925287
 30
0.0
 10
146.618912
 20
105.922456
 30
0.0
 10
146.669554
 20
105.931134
 30
0.0
 10
146.778162
 20
105.918116
 30
0.0
 10
146.887501
 20
105.921635
 30
0.0
 10
146.973806
 20
105.902956
 30
0.0
 10
147.023995
 20
105.900204
 30
0.0
 10
147.072369
 20
105.882874
 30
0.0
 10
147.123385
 20
105.876762
 30
0.0
 10
147.152087
 20
105.864353
 30
0.0
 10
147.200170
 20
105.853928
 30
0.0
 10
159.350871
 20
101.905924
 30
0.0
 10
166.860418
 20
112.241928
 30
0.0
 10
166.936785
 20
112.320245
 30
0.0
 10
167.000470
 20
112.409192
 30
0.0
 10
167.095501
 20
112.483019
 30
0.0
 10
167.179517
 20
112.569183
 30
0.0
 10
167.275039
 20
112.622499
 30
0.0
 10
167.361420
 20
112.689608
 30
0.0
 10
167.522266
 20
112.760493
 30
0.0
 10
167.578633
 20
112.791954
 30
0.0
 10
167.609158
 20
112.798781
 30
0.0
 10
167.654168
 20
112.818624
 30
0.0
 10
180.901803
 20
117.123043
 30
0.0
 10
181.352314
 20
117.200235
 30
0.0
  0
LWPOLYLINE
  5
14d
100
AcDbEntity
  8
0
 62
7
100
AcDbPolyline
 90
4
 70
1
 10
173.281922
 20
15.835410
 30
0.0
 10
180.785929
 20
13.397209
 30
0.0
 10
183.883816
 20
17.661088
 30
0.0
 10
181.392298
 20
18.470631
 30
0.0
  0
LWPOLYLINE
  5
14e
100
AcDbEntity
  8
0
 62
7
100
AcDbPolyline
 90
4
 70
1
 10
190.560915
 20
21.449694
 30
0.0
 10
189.021074
 20
19.330284
 30
0.0
 10
194.033566
 20
17.701628
 30
0.0
 10
198.671296
 20
24.084918
 30
0.0
  0
LWPOLYLINE
  5
14f
100
AcDbEntity
  8
0
 62
7
100
AcDbPolyline
 90
4
 70
1
 10
169.732164
 20
28.611412
 30
0.0
 10
169.732164
 20
18.020416
 30
0.0
 10
179.804798
 20
21.293214
 30
0.0
 10
179.804798
 20
31.884210
 30
0.0
  0
LWPOLYLINE
  5
150
100
AcDbEntity
  8
0
 62
7
100
AcDbPolyline
 90
4
 70
1
 10
182.979798
 20
21.293214
 30
0.0
 10
185.846074
 20
20.361905
 30
0.0
 10
187.617531
 20
22.800104
 30
0.0
 10
182.979798
 20
29.183393
 30
0.0
  0
LWPOLYLINE
  5
151
100
AcDbEntity
  8
0
 62
7
100
AcDbPolyline
 90
10
 70
1
 10
155.878154
 20
32.718806
 30
0.0
 10
150.865665
 20
25.819709
 30
0.0
 10
159.466608
 20
28.614325
 30
0.0
 10
159.917119
 20
28.691517
 30
0.0
 10
160.370951
 20
28.637148
 30
0.0
 10
160.790480
 20
28.455726
 30
0.0
 10
161.241486
 20
28.037631
 30
0.0
 10
166.557164
 20
20.721230
 30
0.0
 10
166.557164
 20
29.248992
 30
0.0
 10
162.478146
 20
34.863275
 30
0.0
  0
LWPOLYLINE
  5
152
100
AcDbEntity
  8
0
 62
7
100
AcDbPolyline
 90
4
 70
1
 10
183.960926
 20
33.234617
 30
0.0
 10
190.186157
 20
24.666321
 30
0.0
 10
200.258796
 20
27.939122
 30
0.0
 10
194.033566
 20
36.507417
 30
0.0
  0
LWPOLYLINE
  5
153
100
AcDbEntity
  8
0
 62
7
100
AcDbPolyline
 90
4
 70
1
 10
140.484304
 20
34.069216
 30
0.0
 10
146.709537
 20
25.500920
 30
0.0
 10
152.934771
 20
34.069216
 30
0.0
 10
146.709537
 20
42.637512
 30
0.0
  0
LWPOLYLINE
  5
154
100
AcDbEntity
  8
0
 62
7
100
AcDbPolyline
 90
4
 70
1
 10
135.049400
 20
28.257910
 30
0.0
 10
142.553410
 20
25.819709
 30
0.0
 10
137.540921
 20
32.718806
 30
0.0
 10
135.049400
 20
33.528352
 30
0.0
  0
LWPOLYLINE
  5
155
100
AcDbEntity
  8
0
 62
7
100
AcDbPolyline
 90
4
 70
1
 10
165.653146
 20
35.894894
 30
0.0
 10
168.751033
 20
31.631017
 30
0.0
 10
176.255040
 20
34.069216
 30
0.0
 10
168.144664
 20
36.704439
 30
0.0
  0
LWPOLYLINE
  5
156
100
AcDbEntity
  8
0
 62
7
100
AcDbPolyline
 90
23
 70
1
 10
196.227435
 20
45.829085
 30
0.0
 10
196.227435
 20
38.889443
 30
0.0
 10
201.239924
 20
31.990345
 30
0.0
 10
201.239924
 20
41.033912
 30
0.0
 10
201.244131
 20
41.062889
 30
0.0
 10
201.240983
 20
41.091996
 30
0.0
 10
201.276958
 20
41.288512
 30
0.0
 10
201.305721
 20
41.486227
 30
0.0
 10
201.318024
 20
41.512800
 30
0.0
 10
201.323289
 20
41.541602
 30
0.0
 10
201.413766
 20
41.719722
 30
0.0
 10
201.497668
 20
41.901047
 30
0.0
 10
201.517036
 20
41.923007
 30
0.0
 10
201.530291
 20
41.949121
 30
0.0
 10
201.667753
 20
42.094065
 30
0.0
 10
201.799859
 20
42.243984
 30
0.0
 10
201.821264
 20
42.255943
 30
0.0
 10
201.844812
 20
42.280787
 30
0.0
 10
202.240798
 20
42.509072
 30
0.0
 10
202.300059
 20
42.523201
 30
0.0
 10
202.336850
 20
42.543733
 30
0.0
 10
210.937793
 20
45.338346
 30
0.0
 10
202.827414
 20
47.973570
 30
0.0
  0
LWPOLYLINE
  5
157
100
AcDbEntity
  8
0
 62
7
100
AcDbPolyline
 90
4
 70
1
 10
135.049400
 20
39.880524
 30
0.0
 10
135.049400
 20
36.866745
 30
0.0
 10
137.915679
 20
35.935433
 30
0.0
 10
142.553410
 20
42.318726
 30
0.0
  0
LWPOLYLINE
  5
158
100
AcDbEntity
  8
0
 62
7
100
AcDbPolyline
 90
4
 70
1
 10
155.503396
 20
35.935433
 30
0.0
 10
160.515887
 20
37.564092
 30
0.0
 10
158.976044
 20
39.683502
 30
0.0
 10
150.865665
 20
42.318723
 30
0.0
  0
LWPOLYLINE
  5
159
100
AcDbEntity
  8
0
 62
7
100
AcDbPolyline
 90
5
 70
1
 10
169.732164
 20
51.149636
 30
0.0
 10
169.732164
 20
39.527020
 30
0.0
 10
180.785929
 20
35.935433
 30
0.0
 10
187.617531
 20
45.338328
 30
0.0
 10
180.785929
 20
54.741223
 30
0.0
  0
LWPOLYLINE
  5
15a
100
AcDbEntity
  8
0
 62
7
100
AcDbPolyline
 90
4
 70
1
 10
190.560915
 20
43.987918
 30
0.0
 10
185.548426
 20
37.088821
 30
0.0
 10
193.052435
 20
39.527022
 30
0.0
 10
193.052435
 20
44.797464
 30
0.0
  0
LWPOLYLINE
  5
15b
100
AcDbEntity
  8
0
 62
7
100
AcDbPolyline
 90
4
 70
1
 10
126.861911
 20
39.527022
 30
0.0
 10
131.874400
 20
37.898364
 30
0.0
 10
131.874400
 20
40.518104
 30
0.0
 10
126.861911
 20
47.417202
 30
0.0
  0
LWPOLYLINE
  5
15c
100
AcDbEntity
  8
0
 62
7
100
AcDbPolyline
 90
4
 70
1
 10
161.919431
 20
41.033912
 30
0.0
 10
163.690887
 20
38.595710
 30
0.0
 10
166.557164
 20
39.527022
 30
0.0
 10
166.557164
 20
47.417204
 30
0.0
  0
LWPOLYLINE
  5
15d
100
AcDbEntity
  8
0
 62
7
100
AcDbPolyline
 90
4
 70
1
 10
127.843039
 20
51.468425
 30
0.0
 10
134.068270
 20
42.900129
 30
0.0
 10
144.140910
 20
46.172927
 30
0.0
 10
137.915679
 20
54.741223
 30
0.0
  0
LWPOLYLINE
  5
15e
100
AcDbEntity
  8
0
 62
7
100
AcDbPolyline
 90
5
 70
1
 10
148.297037
 20
58.114332
 30
0.0
 10
148.297037
 20
46.491716
 30
0.0
 10
159.350803
 20
42.900129
 30
0.0
 10
166.182405
 20
52.303024
 30
0.0
 10
159.350803
 20
61.705919
 30
0.0
  0
LWPOLYLINE
  5
15f
100
AcDbEntity
  8
0
 62
7
100
AcDbPolyline
 90
4
 70
1
 10
190.186157
 20
47.204545
 30
0.0
 10
193.052435
 20
48.135858
 30
0.0
 10
193.052435
 20
51.149636
 30
0.0
 10
185.548426
 20
53.587838
 30
0.0
  0
LWPOLYLINE
  5
160
100
AcDbEntity
  8
0
 62
7
100
AcDbPolyline
 90
4
 70
1
 10
204.414924
 20
50.796134
 30
0.0
 10
214.487562
 20
47.523334
 30
0.0
 10
214.487562
 20
58.114330
 30
0.0
 10
204.414924
 20
61.387130
 30
0.0
  0
LWPOLYLINE
  5
161
100
AcDbEntity
  8
0
 62
7
100
AcDbPolyline
 90
4
 70
1
 10
196.227435
 20
51.787216
 30
0.0
 10
196.227435
 20
49.167476
 30
0.0
 10
201.239924
 20
50.796134
 30
0.0
 10
201.239924
 20
58.686314
 30
0.0
  0
LWPOLYLINE
  5
162
100
AcDbEntity
  8
0
 62
7
100
AcDbPolyline
 90
4
 70
1
 10
140.484304
 20
56.607440
 30
0.0
 10
145.122037
 20
50.224150
 30
0.0
 10
145.122037
 20
58.751909
 30
0.0
 10
143.582194
 20
60.871320
 30
0.0
  0
LWPOLYLINE
  5
163
100
AcDbEntity
  8
0
 62
7
100
AcDbPolyline
 90
4
 70
1
 10
217.662562
 20
58.751909
 30
0.0
 10
217.662562
 20
50.224150
 30
0.0
 10
222.300295
 20
56.607440
 30
0.0
 10
219.202405
 20
60.871320
 30
0.0
  0
LWPOLYLINE
  5
164
100
AcDbEntity
  8
0
 62
7
100
AcDbPolyline
 90
5
 70
1
 10
161.919431
 20
63.572136
 30
0.0
 10
168.751033
 20
54.169241
 30
0.0
 10
179.804798
 20
57.760828
 30
0.0
 10
179.804798
 20
69.383444
 30
0.0
 10
168.751033
 20
72.975031
 30
0.0
  0
LWPOLYLINE
  5
165
100
AcDbEntity
  8
0
 62
7
100
AcDbPolyline
 90
5
 70
1
 10
182.979798
 20
69.383442
 30
0.0
 10
182.979798
 20
57.760828
 30
0.0
 10
194.033566
 20
54.169241
 30
0.0
 10
200.865169
 20
63.572136
 30
0.0
 10
194.033566
 20
72.975031
 30
0.0
  0
LWPOLYLINE
  5
166
100
AcDbEntity
  8
0
 62
7
100
AcDbPolyline
 90
20
 70
1
 10
134.746214
 20
64.505245
 30
0.0
 10
134.792000
 20
64.418117
 30
0.0
 10
134.851502
 20
64.339705
 30
0.0
 10
134.869124
 20
64.271366
 30
0.0
 10
134.958847
 20
64.100636
 30
0.0
 10
135.047381
 20
63.652217
 30
0.0
 10
135.042381
 20
63.599319
 30
0.0
 10
135.049392
 20
63.572136
 30
0.0
 10
135.022201
 20
63.385224
 30
0.0
 10
135.004474
 20
63.197158
 30
0.0
 10
134.990425
 20
63.166805
 30
0.0
 10
134.983598
 20
63.119820
 30
0.0
 10
134.791651
 20
62.705001
 30
0.0
 10
134.760256
 20
62.669372
 30
0.0
 10
134.746206
 20
62.639027
 30
0.0
 10
129.430531
 20
55.322626
 30
0.0
 10
137.540913
 20
57.957850
 30
0.0
 10
141.619930
 20
63.572136
 30
0.0
 10
137.540913
 20
69.186420
 30
0.0
 10
129.430531
 20
71.821643
 30
0.0
  0
LWPOLYLINE
  5
167
100
AcDbEntity
  8
0
 62
7
100
AcDbPolyline
 90
4
 70
1
 10
145.544453
 20
63.572136
 30
0.0
 10
147.315907
 20
61.133934
 30
0.0
 10
154.819914
 20
63.572136
 30
0.0
 10
147.315907
 20
66.010335
 30
0.0
  0
LWPOLYLINE
  5
168
100
AcDbEntity
  8
0
 62
7
100
AcDbPolyline
 90
4
 70
1
 10
207.964683
 20
63.572136
 30
0.0
 10
215.468692
 20
61.133934
 30
0.0
 10
217.240146
 20
63.572136
 30
0.0
 10
215.468692
 20
66.010335
 30
0.0
  0
LWPOLYLINE
  5
169
100
AcDbEntity
  8
0
 62
7
100
AcDbPolyline
 90
5
 70
1
 10
148.297037
 20
80.652557
 30
0.0
 10
148.297037
 20
69.029940
 30
0.0
 10
159.350803
 20
65.438353
 30
0.0
 10
166.182405
 20
74.841248
 30
0.0
 10
159.350803
 20
84.244143
 30
0.0
  0
LWPOLYLINE
  5
16a
100
AcDbEntity
  8
0
 62
7
100
AcDbPolyline
 90
4
 70
1
 10
204.414924
 20
76.348138
 30
0.0
 10
204.414924
 20
65.757142
 30
0.0
 10
214.487562
 20
69.029940
 30
0.0
 10
214.487562
 20
79.620936
 30
0.0
  0
LWPOLYLINE
  5
16b
100
AcDbEntity
  8
0
 62
7
100
AcDbPolyline
 90
4
 70
1
 10
140.484304
 20
70.536829
 30
0.0
 10
143.582194
 20
66.272950
 30
0.0
 10
145.122037
 20
68.392360
 30
0.0
 10
145.122037
 20
76.920119
 30
0.0
  0
LWPOLYLINE
  5
16c
100
AcDbEntity
  8
0
 62
7
100
AcDbPolyline
 90
4
 70
1
 10
217.662562
 20
68.392360
 30
0.0
 10
219.202405
 20
66.272950
 30
0.0
 10
222.300295
 20
70.536829
 30
0.0
 10
217.662562
 20
76.920119
 30
0.0
  0
LWPOLYLINE
  5
16d
100
AcDbEntity
  8
0
 62
7
100
AcDbPolyline
 90
4
 70
1
 10
196.227435
 20
75.357056
 30
0.0
 10
201.239924
 20
68.457958
 30
0.0
 10
201.239924
 20
76.348138
 30
0.0
 10
196.227435
 20
77.976793
 30
0.0
  0
LWPOLYLINE
  5
16e
100
AcDbEntity
  8
0
 62
7
100
AcDbPolyline
 90
4
 70
1
 10
127.843039
 20
75.675847
 30
0.0
 10
137.915679
 20
72.403047
 30
0.0
 10
144.140910
 20
80.971342
 30
0.0
 10
134.068270
 20
84.244143
 30
0.0
  0
LWPOLYLINE
  5
16f
100
AcDbEntity
  8
0
 62
7
100
AcDbPolyline
 90
5
 70
1
 10
169.732164
 20
87.617250
 30
0.0
 10
169.732164
 20
75.994633
 30
0.0
 10
180.785929
 20
72.403047
 30
0.0
 10
187.617531
 20
81.805941
 30
0.0
 10
180.785929
 20
91.208836
 30
0.0
  0
LWPOLYLINE
  5
170
100
AcDbEntity
  8
0
 62
7
100
AcDbPolyline
 90
4
 70
1
 10
185.548426
 20
73.556434
 30
0.0
 10
193.052435
 20
75.994636
 30
0.0
 10
193.052435
 20
79.008415
 30
0.0
 10
190.186157
 20
79.939724
 30
0.0
  0
LWPOLYLINE
  5
171
100
AcDbEntity
  8
0
 62
7
100
AcDbPolyline
 90
10
 70
1
 10
196.227435
 20
88.254829
 30
0.0
 10
196.227435
 20
81.315187
 30
0.0
 10
202.827424
 20
79.170721
 30
0.0
 10
210.937803
 20
81.805941
 30
0.0
 10
202.336860
 20
84.600558
 30
0.0
 10
201.927016
 20
84.802911
 30
0.0
 10
201.591815
 20
85.113654
 30
0.0
 10
201.359045
 20
85.507020
 30
0.0
 10
201.239924
 20
86.110360
 30
0.0
 10
201.239924
 20
95.153927
 30
0.0
  0
LWPOLYLINE
  5
172
100
AcDbEntity
  8
0
 62
7
100
AcDbPolyline
 90
4
 70
1
 10
161.919431
 20
86.110360
 30
0.0
 10
166.557164
 20
79.727068
 30
0.0
 10
166.557164
 20
87.617250
 30
0.0
 10
163.690885
 20
88.548559
 30
0.0
  0
LWPOLYLINE
  5
173
100
AcDbEntity
  8
0
 62
7
100
AcDbPolyline
 90
4
 70
1
 10
126.861911
 20
87.617250
 30
0.0
 10
126.861911
 20
79.727070
 30
0.0
 10
131.874400
 20
86.626168
 30
0.0
 10
131.874400
 20
89.245906
 30
0.0
  0
LWPOLYLINE
  5
174
100
AcDbEntity
  8
0
 62
7
100
AcDbPolyline
 90
4
 70
1
 10
190.560915
 20
83.156351
 30
0.0
 10
193.052435
 20
82.346805
 30
0.0
 10
193.052435
 20
87.617250
 30
0.0
 10
185.548423
 20
90.055451
 30
0.0
  0
LWPOLYLINE
  5
175
100
AcDbEntity
  8
0
 62
7
100
AcDbPolyline
 90
4
 70
1
 10
140.484304
 20
93.075054
 30
0.0
 10
146.709537
 20
84.506758
 30
0.0
 10
152.934771
 20
93.075054
 30
0.0
 10
146.709537
 20
101.643352
 30
0.0
  0
LWPOLYLINE
  5
176
100
AcDbEntity
  8
0
 62
7
100
AcDbPolyline
 90
4
 70
1
 10
135.049400
 20
90.277527
 30
0.0
 10
135.049400
 20
87.263748
 30
0.0
 10
142.553410
 20
84.825546
 30
0.0
 10
137.915679
 20
91.208836
 30
0.0
  0
LWPOLYLINE
  5
177
100
AcDbEntity
  8
0
 62
7
100
AcDbPolyline
 90
4
 70
1
 10
150.865665
 20
84.825546
 30
0.0
 10
158.976044
 20
87.460770
 30
0.0
 10
160.515887
 20
89.580180
 30
0.0
 10
155.503396
 20
91.208836
 30
0.0
  0
LWPOLYLINE
  5
178
100
AcDbEntity
  8
0
 62
7
100
AcDbPolyline
 90
4
 70
1
 10
165.653143
 20
91.249376
 30
0.0
 10
168.144664
 20
90.439833
 30
0.0
 10
176.255042
 20
93.075054
 30
0.0
 10
168.751033
 20
95.513255
 30
0.0
  0
LWPOLYLINE
  5
179
100
AcDbEntity
  8
0
 62
7
100
AcDbPolyline
 90
4
 70
1
 10
183.960926
 20
93.909653
 30
0.0
 10
194.033566
 20
90.636855
 30
0.0
 10
200.258796
 20
99.205150
 30
0.0
 10
190.186157
 20
102.477951
 30
0.0
  0
LWPOLYLINE
  5
17a
100
AcDbEntity
  8
0
 62
7
100
AcDbPolyline
 90
10
 70
1
 10
161.241486
 20
99.106641
 30
0.0
 10
160.922388
 20
98.779386
 30
0.0
 10
160.523272
 20
98.556614
 30
0.0
 10
160.077229
 20
98.456795
 30
0.0
 10
159.466608
 20
98.529947
 30
0.0
 10
150.865665
 20
101.324563
 30
0.0
 10
155.878154
 20
94.425463
 30
0.0
 10
162.478146
 20
92.280997
 30
0.0
 10
166.557164
 20
97.895280
 30
0.0
 10
166.557164
 20
106.423042
 30
0.0
  0
LWPOLYLINE
  5
17b
100
AcDbEntity
  8
0
 62
7
100
AcDbPolyline
 90
4
 70
1
 10
135.049400
 20
98.886362
 30
0.0
 10
135.049400
 20
93.615917
 30
0.0
 10
137.540921
 20
94.425463
 30
0.0
 10
142.553410
 20
101.324563
 30
0.0
  0
LWPOLYLINE
  5
17c
100
AcDbEntity
  8
0
 62
7
100
AcDbPolyline
 90
4
 70
1
 10
169.732164
 20
98.532860
 30
0.0
 10
179.804798
 20
95.260062
 30
0.0
 10
179.804798
 20
105.851058
 30
0.0
 10
169.732164
 20
109.123856
 30
0.0
  0
LWPOLYLINE
  5
17d
100
AcDbEntity
  8
0
 62
7
100
AcDbPolyline
 90
4
 70
1
 10
182.979798
 20
105.851055
 30
0.0
 10
182.979798
 20
97.960876
 30
0.0
 10
187.617531
 20
104.344168
 30
0.0
 10
185.846074
 20
106.782367
 30
0.0
  0
LWPOLYLINE
  5
17e
100
AcDbEntity
  8
0
 62
7
100
AcDbPolyline
 90
4
 70
1
 10
189.021074
 20
107.813986
 30
0.0
 10
190.560915
 20
105.694578
 30
0.0
 10
198.671296
 20
103.059354
 30
0.0
 10
194.033566
 20
109.442644
 30
0.0
  0
LWPOLYLINE
  5
17f
100
AcDbEntity
  8
0
 62
7
100
AcDbPolyline
 90
4
 70
1
 10
173.281919
 20
111.308862
 30
0.0
 10
181.392298
 20
108.673638
 30
0.0
 10
183.883819
 20
109.483184
 30
0.0
 10
180.785929
 20
113.747063
 30
0.0
  0
ENDSEC
  0
SECTION
  2
OBJECTS
  0
DICTIONARY
  5
C
330
0
100
AcDbDictionary
  3
ACAD_GROUP
350
D
  3
ACAD_MLINESTYLE
350
17
  0
DICTIONARY
  5
D
330
C
100
AcDbDictionary
  0
DICTIONARY
  5
1A
330
C
100
AcDbDictionary
  0
DICTIONARY
  5
17
330
C
100
AcDbDictionary
  3
STANDARD
350
18
  0
DICTIONARY
  5
19
330
C
100
AcDbDictionary
  0
ENDSEC
  0
EOF
