  0
SECTION
  2
HEADER
  9
$ACADVER
  1
AC1014
  9
$HANDSEED
  5
FFFF
  9
$INSUNITS
 70
     4
  9
$MEASUREMENT
 70
     1
  0
ENDSEC
  0
SECTION
  2
TABLES
  0
TABLE
  2
VPORT
  5
8
330
0
100
AcDbSymbolTable
 70
     4
  0
VPORT
  5
2E
330
8
100
AcDbSymbolTableRecord
100
AcDbViewportTableRecord
  2
*ACTIVE
 70
     0
 10
0.0
 20
0.0
 11
1.0
 21
1.0
 12
210.0
 22
148.5
 13
0.0
 23
0.0
 14
10.0
 24
10.0
 15
10.0
 25
10.0
 16
0.0
 26
0.0
 36
1.0
 17
0.0
 27
0.0
 37
0.0
 40
341.0
 41
1.24
 42
50.0
 43
0.0
 44
0.0
 50
0.0
 51
0.0
 71
     0
 72
   100
 73
     1
 74
     3
 75
     0
 76
     0
 77
     0
 78
     0
  0
ENDTAB
  0
TABLE
  2
LTYPE
  5
5
330
0
100
AcDbSymbolTable
 70
     1
  0
LTYPE
  5
14
330
5
100
AcDbSymbolTableRecord
100
AcDbLinetypeTableRecord
  2
BYBLOCK
 70
     0
  3

 72
    65
 73
     0
 40
0.0
  0
LTYPE
  5
15
330
5
100
AcDbSymbolTableRecord
100
AcDbLinetypeTableRecord
  2
BYLAYER
 70
     0
  3

 72
    65
 73
     0
 40
0.0
  0
LTYPE
  5
16
330
5
100
AcDbSymbolTableRecord
100
AcDbLinetypeTableRecord
  2
CONTINUOUS
 70
     0
  3
Solid line
 72
    65
 73
     0
 40
0.0
  0
ENDTAB
  0
TABLE
  2
LAYER
  5
2
100
AcDbSymbolTable
 70
5
  0
LAYER
  5
50
100
AcDbSymbolTableRecord
100
AcDbLayerTableRecord
  2
0
 70
0
  6
CONTINUOUS
  0
LAYER
  5
51
100
AcDbSymbolTableRecord
100
AcDbLayerTableRecord
  2
Layer_1
 70
0
  6
CONTINUOUS
  0
LAYER
  5
52
100
AcDbSymbolTableRecord
100
AcDbLayerTableRecord
  2
Layer_2
 70
0
  6
CONTINUOUS
  0
LAYER
  5
53
100
AcDbSymbolTableRecord
100
AcDbLayerTableRecord
  2
Layer_3
 70
0
  6
CONTINUOUS
  0
LAYER
  5
54
100
AcDbSymbolTableRecord
100
AcDbLayerTableRecord
  2
Layer_4
 70
0
  6
CONTINUOUS
  0
ENDTAB
  0
TABLE
  2
STYLE
  5
3
330
0
100
AcDbSymbolTable
 70
     1
  0
STYLE
  5
11
330
3
100
AcDbSymbolTableRecord
100
AcDbTextStyleTableRecord
  2
STANDARD
 70
     0
 40
0.0
 41
1.0
 50
0.0
 71
     0
 42
2.5
  3
txt
  4

  0
ENDTAB
  0
TABLE
  2
VIEW
  5
6
330
0
100
AcDbSymbolTable
 70
     0
  0
ENDTAB
  0
TABLE
  2
UCS
  5
7
330
0
100
AcDbSymbolTable
 70
     0
  0
ENDTAB
  0
TABLE
  2
APPID
  5
9
330
0
100
AcDbSymbolTable
 70
     2
  0
APPID
  5
12
330
9
100
AcDbSymbolTableRecord
100
AcDbRegAppTableRecord
  2
ACAD
 70
     0
  0
ENDTAB
  0
TABLE
  2
DIMSTYLE
  5
A
330
0
100
AcDbSymbolTable
 70
     1
  0
DIMSTYLE
105
27
330
A
100
AcDbSymbolTableRecord
100
AcDbDimStyleTableRecord
  2
ISO-25
 70
     0
  3

  4

  5

  6

  7

 40
1.0
 41
2.5
 42
0.625
 43
3.75
 44
1.25
 45
0.0
 46
0.0
 47
0.0
 48
0.0
140
2.5
141
2.5
142
0.0
143
0.03937007874016
144
1.0
145
0.0
146
1.0
147
0.625
 71
     0
 72
     0
 73
     0
 74
     0
 75
     0
 76
     0
 77
     1
 78
     8
170
     0
171
     3
172
     1
173
     0
174
     0
175
     0
176
     0
177
     0
178
     0
270
     2
271
     2
272
     2
273
     2
274
     3
340
11
275
     0
280
     0
281
     0
282
     0
283
     0
284
     8
285
     0
286
     0
287
     3
288
     0
  0
ENDTAB
  0
TABLE
  2
BLOCK_RECORD
  5
1
330
0
100
AcDbSymbolTable
 70
     1
  0
BLOCK_RECORD
  5
1F
330
1
100
AcDbSymbolTableRecord
100
AcDbBlockTableRecord
  2
*MODEL_SPACE
  0
BLOCK_RECORD
  5
1B
330
1
100
AcDbSymbolTableRecord
100
AcDbBlockTableRecord
  2
*PAPER_SPACE
  0
ENDTAB
  0
ENDSEC
  0
SECTION
  2
BLOCKS
  0
BLOCK
  5
20
330
1F
100
AcDbEntity
  8
0
100
AcDbBlockBegin
  2
*MODEL_SPACE
 70
     0
 10
0.0
 20
0.0
 30
0.0
  3
*MODEL_SPACE
  1

  0
ENDBLK
  5
21
330
1F
100
AcDbEntity
  8
0
100
AcDbBlockEnd
  0
BLOCK
  5
1C
330
1B
100
AcDbEntity
 67
     1
  8
0
100
AcDbBlockBegin
  2
*PAPER_SPACE
  1

  0
ENDBLK
  5
1D
330
1B
100
AcDbEntity
 67
     1
  8
0
100
AcDbBlockEnd
  0
ENDSEC
  0
SECTION
  2
ENTITIES
  0
LWPOLYLINE
  5
100
100
AcDbEntity
  8
Layer_1
 62
7
100
AcDbPolyline
 90
221
 70
1
 10
121.566030
 20
170.921767
 30
0.0
 10
121.985558
 20
170.740345
 30
0.0
 10
122.436565
 20
170.322251
 30
0.0
 10
127.330015
 20
163.586996
 30
0.0
 10
127.542645
 20
163.182390
 30
0.0
 10
127.633201
 20
162.653887
 30
0.0
 10
127.633201
 20
154.844462
 30
0.0
 10
131.545521
 20
149.459617
 30
0.0
 10
137.875791
 20
151.516448
 30
0.0
 10
142.466052
 20
157.834401
 30
0.0
 10
142.785150
 20
158.161657
 30
0.0
 10
143.259802
 20
158.411095
 30
0.0
 10
151.177569
 20
160.983734
 30
0.0
 10
151.628081
 20
161.060926
 30
0.0
 10
152.081913
 20
161.006557
 30
0.0
 10
152.501441
 20
160.825135
 30
0.0
 10
152.952447
 20
160.407040
 30
0.0
 10
157.542712
 20
154.089087
 30
0.0
 10
164.969912
 20
151.675841
 30
0.0
 10
165.093899
 20
151.614624
 30
0.0
 10
165.224063
 20
151.568020
 30
0.0
 10
165.297776
 20
151.513963
 30
0.0
 10
165.379757
 20
151.473487
 30
0.0
 10
165.481164
 20
151.379478
 30
0.0
 10
165.592652
 20
151.297722
 30
0.0
 10
165.647912
 20
151.224898
 30
0.0
 10
165.714958
 20
151.162745
 30
0.0
 10
165.785371
 20
151.043751
 30
0.0
 10
165.868951
 20
150.933608
 30
0.0
 10
165.883159
 20
150.878492
 30
0.0
 10
165.947725
 20
150.769378
 30
0.0
 10
166.066846
 20
150.166038
 30
0.0
 10
166.066846
 20
142.356612
 30
0.0
 10
170.657110
 20
136.038659
 30
0.0
 10
170.869740
 20
135.634053
 30
0.0
 10
170.958275
 20
135.185632
 30
0.0
 10
170.915375
 20
134.730572
 30
0.0
 10
170.657110
 20
134.172441
 30
0.0
 10
165.763660
 20
127.437187
 30
0.0
 10
165.444562
 20
127.109932
 30
0.0
 10
164.969910
 20
126.860493
 30
0.0
 10
157.542709
 20
124.447247
 30
0.0
 10
153.630389
 20
119.062402
 30
0.0
 10
157.542709
 20
113.677557
 30
0.0
 10
164.969910
 20
111.264311
 30
0.0
 10
165.379755
 20
111.061958
 30
0.0
 10
165.763660
 20
110.687617
 30
0.0
 10
170.657110
 20
103.952363
 30
0.0
 10
170.869740
 20
103.547757
 30
0.0
 10
170.958275
 20
103.099336
 30
0.0
 10
170.915375
 20
102.644276
 30
0.0
 10
170.657110
 20
102.086145
 30
0.0
 10
166.066846
 20
95.768192
 30
0.0
 10
166.066846
 20
87.958766
 30
0.0
 10
166.001044
 20
87.506450
 30
0.0
 10
165.809097
 20
87.091631
 30
0.0
 10
165.506911
 20
86.748697
 30
0.0
 10
165.119542
 20
86.506076
 30
0.0
 10
165.025480
 20
86.479989
 30
0.0
 10
164.969910
 20
86.448971
 30
0.0
 10
157.542709
 20
84.035725
 30
0.0
 10
152.952445
 20
77.717772
 30
0.0
 10
152.820584
 20
77.582541
 30
0.0
 10
152.695696
 20
77.440811
 30
0.0
 10
152.661509
 20
77.419406
 30
0.0
 10
152.633347
 20
77.390524
 30
0.0
 10
152.468405
 20
77.298460
 30
0.0
 10
152.308327
 20
77.198199
 30
0.0
 10
152.269457
 20
77.187404
 30
0.0
 10
152.234231
 20
77.167745
 30
0.0
 10
152.049885
 20
77.126491
 30
0.0
 10
151.867886
 20
77.075998
 30
0.0
 10
151.827558
 20
77.076792
 30
0.0
 10
151.788188
 20
77.067982
 30
0.0
 10
151.694285
 20
77.079226
 30
0.0
 10
151.410887
 20
77.084412
 30
0.0
 10
151.265221
 20
77.130627
 30
0.0
 10
151.177567
 20
77.141131
 30
0.0
 10
143.259799
 20
79.713770
 30
0.0
 10
143.161710
 20
79.762199
 30
0.0
 10
143.057443
 20
79.795280
 30
0.0
 10
142.957862
 20
79.862847
 30
0.0
 10
142.849955
 20
79.916123
 30
0.0
 10
142.782732
 20
79.981671
 30
0.0
 10
142.679211
 20
80.051910
 30
0.0
 10
142.554994
 20
80.203736
 30
0.0
 10
142.466049
 20
80.290464
 30
0.0
 10
137.875788
 20
86.608417
 30
0.0
 10
131.545518
 20
88.665248
 30
0.0
 10
127.633198
 20
83.280401
 30
0.0
 10
127.633198
 20
75.470978
 30
0.0
 10
127.567396
 20
75.018662
 30
0.0
 10
127.330012
 20
74.537869
 30
0.0
 10
122.436562
 20
67.802614
 30
0.0
 10
122.117464
 20
67.475359
 30
0.0
 10
121.718348
 20
67.252588
 30
0.0
 10
121.272305
 20
67.152769
 30
0.0
 10
120.661684
 20
67.225921
 30
0.0
 10
113.234483
 20
69.639164
 30
0.0
 10
105.807280
 20
67.225921
 30
0.0
 10
105.660232
 20
67.200732
 30
0.0
 10
105.516471
 20
67.160849
 30
0.0
 10
105.436051
 20
67.162437
 30
0.0
 10
105.356768
 20
67.148863
 30
0.0
 10
105.208636
 20
67.166617
 30
0.0
 10
105.059472
 20
67.169342
 30
0.0
 10
104.982801
 20
67.193657
 30
0.0
 10
104.902937
 20
67.203235
 30
0.0
 10
104.766009
 20
67.262449
 30
0.0
 10
104.623796
 20
67.307568
 30
0.0
 10
104.557229
 20
67.352736
 30
0.0
 10
104.483408
 20
67.384657
 30
0.0
 10
104.410322
 20
67.452409
 30
0.0
 10
104.245563
 20
67.564198
 30
0.0
 10
104.106866
 20
67.733720
 30
0.0
 10
104.032402
 20
67.802752
 30
0.0
 10
99.442138
 20
74.120706
 30
0.0
 10
92.014934
 20
76.533952
 30
0.0
 10
91.916845
 20
76.582381
 30
0.0
 10
91.812578
 20
76.615462
 30
0.0
 10
91.712997
 20
76.683029
 30
0.0
 10
91.605089
 20
76.736305
 30
0.0
 10
91.524870
 20
76.810672
 30
0.0
 10
91.434346
 20
76.872092
 30
0.0
 10
91.358138
 20
76.965239
 30
0.0
 10
91.269889
 20
77.047048
 30
0.0
 10
91.214183
 20
77.141189
 30
0.0
 10
91.144913
 20
77.225853
 30
0.0
 10
91.098407
 20
77.336843
 30
0.0
 10
91.037119
 20
77.440414
 30
0.0
 10
91.021191
 20
77.521147
 30
0.0
 10
90.968280
 20
77.647419
 30
0.0
 10
90.934294
 20
77.961270
 30
0.0
 10
90.917996
 20
78.043754
 30
0.0
 10
90.917996
 20
86.368985
 30
0.0
 10
90.922202
 20
86.397962
 30
0.0
 10
90.919054
 20
86.427069
 30
0.0
 10
90.955029
 20
86.623586
 30
0.0
 10
90.983792
 20
86.821301
 30
0.0
 10
90.995593
 20
86.845219
 30
0.0
 10
91.001361
 20
86.876673
 30
0.0
 10
91.208357
 20
87.284190
 30
0.0
 10
91.216665
 20
87.292947
 30
0.0
 10
91.221190
 20
87.302102
 30
0.0
 10
95.811454
 20
93.620056
 30
0.0
 10
95.811454
 20
100.276094
 30
0.0
 10
89.481186
 20
102.332925
 30
0.0
 10
82.053983
 20
99.919679
 30
0.0
 10
81.603472
 20
99.842487
 30
0.0
 10
81.072855
 20
99.919679
 30
0.0
 10
73.155088
 20
102.492318
 30
0.0
 10
72.745243
 20
102.694671
 30
0.0
 10
72.410042
 20
103.005414
 30
0.0
 10
72.177272
 20
103.398780
 30
0.0
 10
72.058152
 20
104.002120
 30
0.0
 10
72.058152
 20
111.811340
 30
0.0
 10
67.467890
 20
118.129293
 30
0.0
 10
67.255260
 20
118.533902
 30
0.0
 10
67.166725
 20
118.982321
 30
0.0
 10
67.209625
 20
119.437380
 30
0.0
 10
67.467890
 20
119.995511
 30
0.0
 10
72.058152
 20
126.313464
 30
0.0
 10
72.058152
 20
134.122890
 30
0.0
 10
72.062359
 20
134.151867
 30
0.0
 10
72.059210
 20
134.180974
 30
0.0
 10
72.095185
 20
134.377491
 30
0.0
 10
72.123948
 20
134.575206
 30
0.0
 10
72.136251
 20
134.601778
 30
0.0
 10
72.141517
 20
134.630581
 30
0.0
 10
72.231993
 20
134.808701
 30
0.0
 10
72.315895
 20
134.990025
 30
0.0
 10
72.335263
 20
135.011986
 30
0.0
 10
72.348519
 20
135.038100
 30
0.0
 10
72.485980
 20
135.183044
 30
0.0
 10
72.618087
 20
135.332962
 30
0.0
 10
72.639491
 20
135.344921
 30
0.0
 10
72.663039
 20
135.369766
 30
0.0
 10
73.059025
 20
135.598051
 30
0.0
 10
73.118287
 20
135.612180
 30
0.0
 10
73.155077
 20
135.632711
 30
0.0
 10
81.072844
 20
138.205350
 30
0.0
 10
81.248276
 20
138.235410
 30
0.0
 10
81.421409
 20
138.276685
 30
0.0
 10
81.472715
 20
138.273854
 30
0.0
 10
81.523356
 20
138.282532
 30
0.0
 10
81.649954
 20
138.264117
 30
0.0
 10
81.877797
 20
138.251602
 30
0.0
 10
81.974828
 20
138.216862
 30
0.0
 10
82.053972
 20
138.205353
 30
0.0
 10
89.481176
 20
135.792107
 30
0.0
 10
95.811443
 20
137.848938
 30
0.0
 10
95.811443
 20
144.504974
 30
0.0
 10
91.221179
 20
150.822927
 30
0.0
 10
91.008549
 20
151.227533
 30
0.0
 10
90.917993
 20
151.756036
 30
0.0
 10
90.917993
 20
160.081248
 30
0.0
 10
90.983795
 20
160.533564
 30
0.0
 10
91.175742
 20
160.948383
 30
0.0
 10
91.477928
 20
161.291318
 30
0.0
 10
92.014929
 20
161.591051
 30
0.0
 10
99.442132
 20
164.004297
 30
0.0
 10
104.032397
 20
170.322251
 30
0.0
 10
104.184371
 20
170.478109
 30
0.0
 10
104.334109
 20
170.635996
 30
0.0
 10
104.343740
 20
170.641552
 30
0.0
 10
104.351492
 20
170.649516
 30
0.0
 10
104.541648
 20
170.755654
 30
0.0
 10
104.730092
 20
170.864292
 30
0.0
 10
104.740887
 20
170.866938
 30
0.0
 10
104.750597
 20
170.872362
 30
0.0
 10
104.963061
 20
170.919907
 30
0.0
 10
105.174698
 20
170.970363
 30
0.0
 10
105.185784
 20
170.969834
 30
0.0
 10
105.196632
 20
170.972215
 30
0.0
 10
105.243257
 20
170.966633
 30
0.0
 10
105.631078
 20
170.945334
 30
0.0
 10
105.736639
 20
170.907538
 30
0.0
 10
105.807253
 20
170.899071
 30
0.0
 10
113.234457
 20
168.485825
 30
0.0
 10
120.661658
 20
170.899071
 30
0.0
 10
121.112169
 20
170.976264
 30
0.0
  0
LWPOLYLINE
  5
101
100
AcDbEntity
  8
Layer_1
 62
7
100
AcDbPolyline
 90
5
 70
1
 10
102.385527
 20
75.470917
 30
0.0
 10
105.923088
 20
70.601880
 30
0.0
 10
111.646986
 20
72.461686
 30
0.0
 10
111.646986
 20
78.480145
 30
0.0
 10
105.923088
 20
80.339954
 30
0.0
  0
LWPOLYLINE
  5
102
100
AcDbEntity
  8
Layer_1
 62
7
100
AcDbPolyline
 90
6
 70
1
 10
114.821986
 20
79.117724
 30
0.0
 10
114.821986
 20
72.461686
 30
0.0
 10
120.545881
 20
70.601880
 30
0.0
 10
124.458201
 20
75.986725
 30
0.0
 10
124.458201
 20
82.642760
 30
0.0
 10
118.734303
 20
84.502569
 30
0.0
  0
LWPOLYLINE
  5
103
100
AcDbEntity
  8
Layer_1
 62
7
100
AcDbPolyline
 90
6
 70
1
 10
94.093001
 20
85.852979
 30
0.0
 10
94.093001
 20
79.196943
 30
0.0
 10
99.816899
 20
77.337134
 30
0.0
 10
103.729219
 20
82.721979
 30
0.0
 10
103.729219
 20
89.378017
 30
0.0
 10
98.005321
 20
91.237824
 30
0.0
  0
LWPOLYLINE
  5
104
100
AcDbEntity
  8
Layer_1
 62
7
100
AcDbPolyline
 90
6
 70
1
 10
140.819174
 20
87.958766
 30
0.0
 10
144.731494
 20
82.573921
 30
0.0
 10
151.061764
 20
80.517090
 30
0.0
 10
154.599325
 20
85.386127
 30
0.0
 10
150.687005
 20
90.770972
 30
0.0
 10
144.356735
 20
92.827803
 30
0.0
  0
LWPOLYLINE
  5
105
100
AcDbEntity
  8
Layer_1
 62
7
100
AcDbPolyline
 90
6
 70
1
 10
106.904219
 20
90.015597
 30
0.0
 10
106.904219
 20
83.359559
 30
0.0
 10
112.628116
 20
81.499750
 30
0.0
 10
116.540433
 20
86.884595
 30
0.0
 10
116.540433
 20
93.540633
 30
0.0
 10
110.816536
 20
95.400442
 30
0.0
  0
LWPOLYLINE
  5
106
100
AcDbEntity
  8
Layer_1
 62
7
100
AcDbPolyline
 90
210
 70
1
 10
119.715433
 20
150.602627
 30
0.0
 10
119.715433
 20
143.430784
 30
0.0
 10
119.649632
 20
142.978468
 30
0.0
 10
119.457684
 20
142.563649
 30
0.0
 10
119.155498
 20
142.220715
 30
0.0
 10
118.618497
 20
141.920981
 30
0.0
 10
110.700730
 20
139.348342
 30
0.0
 10
110.250219
 20
139.271150
 30
0.0
 10
109.796387
 20
139.325519
 30
0.0
 10
109.376858
 20
139.506941
 30
0.0
 10
108.925852
 20
139.925036
 30
0.0
 10
104.710349
 20
145.727182
 30
0.0
 10
98.986451
 20
143.867373
 30
0.0
 10
98.986451
 20
136.695529
 30
0.0
 10
98.920649
 20
136.243213
 30
0.0
 10
98.728702
 20
135.828394
 30
0.0
 10
98.426516
 20
135.485460
 30
0.0
 10
97.889515
 20
135.185727
 30
0.0
 10
91.068684
 20
132.969503
 30
0.0
 10
91.068684
 20
126.951044
 30
0.0
 10
97.889515
 20
124.734820
 30
0.0
 10
98.013501
 20
124.673603
 30
0.0
 10
98.143666
 20
124.627000
 30
0.0
 10
98.217379
 20
124.572943
 30
0.0
 10
98.299360
 20
124.532467
 30
0.0
 10
98.400767
 20
124.438458
 30
0.0
 10
98.512254
 20
124.356701
 30
0.0
 10
98.567515
 20
124.283877
 30
0.0
 10
98.634561
 20
124.221724
 30
0.0
 10
98.704974
 20
124.102730
 30
0.0
 10
98.788553
 20
123.992587
 30
0.0
 10
98.802762
 20
123.937472
 30
0.0
 10
98.867328
 20
123.828358
 30
0.0
 10
98.986448
 20
123.225018
 30
0.0
 10
98.986448
 20
114.899784
 30
0.0
 10
98.970706
 20
114.791538
 30
0.0
 10
98.971500
 20
114.682146
 30
0.0
 10
98.938009
 20
114.566549
 30
0.0
 10
98.920678
 20
114.447468
 30
0.0
 10
98.874744
 20
114.348197
 30
0.0
 10
98.844301
 20
114.243120
 30
0.0
 10
98.779267
 20
114.141864
 30
0.0
 10
98.728731
 20
114.032649
 30
0.0
 10
98.656407
 20
113.950573
 30
0.0
 10
98.597294
 20
113.858535
 30
0.0
 10
98.506111
 20
113.780009
 30
0.0
 10
98.426545
 20
113.689715
 30
0.0
 10
98.333827
 20
113.631644
 30
0.0
 10
98.250947
 20
113.560267
 30
0.0
 10
98.125486
 20
113.501154
 30
0.0
 10
98.039177
 20
113.447094
 30
0.0
 10
97.970062
 20
113.427912
 30
0.0
 10
97.889544
 20
113.389974
 30
0.0
 10
91.068713
 20
111.173752
 30
0.0
 10
91.068713
 20
105.155294
 30
0.0
 10
97.889544
 20
102.939069
 30
0.0
 10
98.013531
 20
102.877853
 30
0.0
 10
98.143695
 20
102.831249
 30
0.0
 10
98.217408
 20
102.777192
 30
0.0
 10
98.299389
 20
102.736716
 30
0.0
 10
98.400796
 20
102.642707
 30
0.0
 10
98.512283
 20
102.560951
 30
0.0
 10
98.567544
 20
102.488127
 30
0.0
 10
98.634590
 20
102.425974
 30
0.0
 10
98.705003
 20
102.306980
 30
0.0
 10
98.788582
 20
102.196836
 30
0.0
 10
98.802791
 20
102.141721
 30
0.0
 10
98.867357
 20
102.032607
 30
0.0
 10
98.986478
 20
101.429267
 30
0.0
 10
98.986478
 20
94.257421
 30
0.0
 10
104.710376
 20
92.397614
 30
0.0
 10
108.925879
 20
98.199760
 30
0.0
 10
109.077853
 20
98.355618
 30
0.0
 10
109.227591
 20
98.513506
 30
0.0
 10
109.237222
 20
98.519062
 30
0.0
 10
109.244974
 20
98.527026
 30
0.0
 10
109.435098
 20
98.633145
 30
0.0
 10
109.623574
 20
98.741801
 30
0.0
 10
109.634396
 20
98.744447
 30
0.0
 10
109.644106
 20
98.749871
 30
0.0
 10
109.856498
 20
98.797404
 30
0.0
 10
110.068209
 20
98.847876
 30
0.0
 10
110.079295
 20
98.847346
 30
0.0
 10
110.090143
 20
98.849728
 30
0.0
 10
110.136768
 20
98.844145
 30
0.0
 10
110.524589
 20
98.822846
 30
0.0
 10
110.630150
 20
98.785050
 30
0.0
 10
110.700764
 20
98.776584
 30
0.0
 10
118.618532
 20
96.203945
 30
0.0
 10
118.742518
 20
96.142728
 30
0.0
 10
118.872683
 20
96.096124
 30
0.0
 10
118.946396
 20
96.042067
 30
0.0
 10
119.028377
 20
96.001591
 30
0.0
 10
119.129784
 20
95.907582
 30
0.0
 10
119.241271
 20
95.825826
 30
0.0
 10
119.296532
 20
95.753002
 30
0.0
 10
119.363577
 20
95.690849
 30
0.0
 10
119.433991
 20
95.571855
 30
0.0
 10
119.517570
 20
95.461712
 30
0.0
 10
119.531778
 20
95.406596
 30
0.0
 10
119.596345
 20
95.297482
 30
0.0
 10
119.715465
 20
94.694142
 30
0.0
 10
119.715465
 20
87.522296
 30
0.0
 10
125.439363
 20
85.662487
 30
0.0
 10
129.654869
 20
91.464635
 30
0.0
 10
129.806843
 20
91.620493
 30
0.0
 10
129.956581
 20
91.778381
 30
0.0
 10
129.966212
 20
91.783937
 30
0.0
 10
129.973964
 20
91.791901
 30
0.0
 10
130.164089
 20
91.898020
 30
0.0
 10
130.352565
 20
92.006677
 30
0.0
 10
130.363386
 20
92.009322
 30
0.0
 10
130.373096
 20
92.014746
 30
0.0
 10
130.585488
 20
92.062279
 30
0.0
 10
130.797199
 20
92.112751
 30
0.0
 10
130.808286
 20
92.112222
 30
0.0
 10
130.819133
 20
92.114603
 30
0.0
 10
130.865758
 20
92.109020
 30
0.0
 10
131.253579
 20
92.087695
 30
0.0
 10
131.359140
 20
92.049899
 30
0.0
 10
131.429755
 20
92.041432
 30
0.0
 10
138.250589
 20
89.825208
 30
0.0
 10
141.788150
 20
94.694245
 30
0.0
 10
137.572644
 20
100.496391
 30
0.0
 10
137.540344
 20
100.557854
 30
0.0
 10
137.496373
 20
100.611599
 30
0.0
 10
137.434495
 20
100.759273
 30
0.0
 10
137.360014
 20
100.901000
 30
0.0
 10
137.346574
 20
100.969120
 30
0.0
 10
137.319737
 20
101.033165
 30
0.0
 10
137.302486
 20
101.192343
 30
0.0
 10
137.271474
 20
101.349418
 30
0.0
 10
137.277983
 20
101.418551
 30
0.0
 10
137.270522
 20
101.487584
 30
0.0
 10
137.299351
 20
101.645066
 30
0.0
 10
137.314379
 20
101.804478
 30
0.0
 10
137.337795
 20
101.855090
 30
0.0
 10
137.352823
 20
101.937190
 30
0.0
 10
137.559820
 20
102.344707
 30
0.0
 10
137.568683
 20
102.354047
 30
0.0
 10
137.572652
 20
102.362619
 30
0.0
 10
142.466100
 20
109.097874
 30
0.0
 10
142.618074
 20
109.253732
 30
0.0
 10
142.767812
 20
109.411619
 30
0.0
 10
142.777443
 20
109.417175
 30
0.0
 10
142.785222
 20
109.425139
 30
0.0
 10
142.975346
 20
109.531258
 30
0.0
 10
143.163822
 20
109.639915
 30
0.0
 10
143.174643
 20
109.642561
 30
0.0
 10
143.184353
 20
109.647985
 30
0.0
 10
143.396745
 20
109.695517
 30
0.0
 10
143.608457
 20
109.745989
 30
0.0
 10
143.619543
 20
109.745460
 30
0.0
 10
143.630391
 20
109.747841
 30
0.0
 10
143.677016
 20
109.742258
 30
0.0
 10
144.064837
 20
109.720933
 30
0.0
 10
144.170397
 20
109.683137
 30
0.0
 10
144.241012
 20
109.674671
 30
0.0
 10
151.061846
 20
107.458449
 30
0.0
 10
154.599407
 20
112.327486
 30
0.0
 10
150.383901
 20
118.129632
 30
0.0
 10
150.171272
 20
118.534238
 30
0.0
 10
150.082737
 20
118.982659
 30
0.0
 10
150.125636
 20
119.437719
 30
0.0
 10
150.383901
 20
119.995849
 30
0.0
 10
154.599407
 20
125.797995
 30
0.0
 10
151.061846
 20
130.667032
 30
0.0
 10
144.241012
 20
128.450808
 30
0.0
 10
144.093965
 20
128.425620
 30
0.0
 10
143.950203
 20
128.385737
 30
0.0
 10
143.869783
 20
128.387324
 30
0.0
 10
143.790501
 20
128.373751
 30
0.0
 10
143.642368
 20
128.391505
 30
0.0
 10
143.493204
 20
128.394230
 30
0.0
 10
143.416533
 20
128.418545
 30
0.0
 10
143.336669
 20
128.428123
 30
0.0
 10
143.199742
 20
128.487337
 30
0.0
 10
143.057528
 20
128.532456
 30
0.0
 10
142.990962
 20
128.577623
 30
0.0
 10
142.917140
 20
128.609545
 30
0.0
 10
142.844054
 20
128.677297
 30
0.0
 10
142.679296
 20
128.789086
 30
0.0
 10
142.540598
 20
128.958607
 30
0.0
 10
142.466134
 20
129.027640
 30
0.0
 10
137.572686
 20
135.762897
 30
0.0
 10
137.540386
 20
135.824360
 30
0.0
 10
137.496415
 20
135.878104
 30
0.0
 10
137.434537
 20
136.025779
 30
0.0
 10
137.360057
 20
136.167506
 30
0.0
 10
137.346616
 20
136.235625
 30
0.0
 10
137.319779
 20
136.299670
 30
0.0
 10
137.302528
 20
136.458849
 30
0.0
 10
137.271517
 20
136.615924
 30
0.0
 10
137.278025
 20
136.685057
 30
0.0
 10
137.270564
 20
136.754089
 30
0.0
 10
137.299393
 20
136.911572
 30
0.0
 10
137.314421
 20
137.070984
 30
0.0
 10
137.337837
 20
137.121596
 30
0.0
 10
137.352865
 20
137.203696
 30
0.0
 10
137.559862
 20
137.611212
 30
0.0
 10
137.568726
 20
137.620552
 30
0.0
 10
137.572694
 20
137.629125
 30
0.0
 10
141.788200
 20
143.431271
 30
0.0
 10
138.250639
 20
148.300308
 30
0.0
 10
131.429805
 20
146.084084
 30
0.0
 10
130.979294
 20
146.006891
 30
0.0
 10
130.525462
 20
146.061261
 30
0.0
 10
130.105933
 20
146.242683
 30
0.0
 10
129.654927
 20
146.660777
 30
0.0
 10
125.439421
 20
152.462923
 30
0.0
  0
LWPOLYLINE
  5
107
100
AcDbEntity
  8
Layer_1
 62
7
100
AcDbPolyline
 90
5
 70
1
 10
153.630392
 20
92.121381
 30
0.0
 10
157.167953
 20
87.252344
 30
0.0
 10
162.891848
 20
89.112151
 30
0.0
 10
162.891848
 20
95.130612
 30
0.0
 10
157.167953
 20
96.990419
 30
0.0
  0
LWPOLYLINE
  5
108
100
AcDbEntity
  8
Layer_1
 62
7
100
AcDbPolyline
 90
6
 70
1
 10
140.819174
 20
101.429275
 30
0.0
 10
144.731494
 20
96.044430
 30
0.0
 10
151.061764
 20
93.987599
 30
0.0
 10
154.599325
 20
98.856636
 30
0.0
 10
150.687005
 20
104.241484
 30
0.0
 10
144.356735
 20
106.298312
 30
0.0
  0
LWPOLYLINE
  5
109
100
AcDbEntity
  8
Layer_1
 62
7
100
AcDbPolyline
 90
6
 70
1
 10
153.630392
 20
105.591893
 30
0.0
 10
157.542712
 20
100.207045
 30
0.0
 10
163.872979
 20
98.150217
 30
0.0
 10
167.410540
 20
103.019254
 30
0.0
 10
163.498220
 20
108.404099
 30
0.0
 10
157.167953
 20
110.460930
 30
0.0
  0
LWPOLYLINE
  5
10a
100
AcDbEntity
  8
Layer_1
 62
7
100
AcDbPolyline
 90
6
 70
1
 10
75.233149
 20
111.173760
 30
0.0
 10
75.233149
 20
105.155301
 30
0.0
 10
81.563416
 20
103.098470
 30
0.0
 10
87.893684
 20
105.155301
 30
0.0
 10
87.893684
 20
111.173760
 30
0.0
 10
81.563416
 20
113.230589
 30
0.0
  0
LWPOLYLINE
  5
10b
100
AcDbEntity
  8
Layer_1
 62
7
100
AcDbPolyline
 90
6
 70
1
 10
83.150916
 20
122.071630
 30
0.0
 10
83.150916
 20
116.053171
 30
0.0
 10
89.481184
 20
113.996343
 30
0.0
 10
95.811451
 20
116.053171
 30
0.0
 10
95.811451
 20
122.071630
 30
0.0
 10
89.481184
 20
124.128461
 30
0.0
  0
LWPOLYLINE
  5
10c
100
AcDbEntity
  8
Layer_1
 62
7
100
AcDbPolyline
 90
5
 70
1
 10
70.714457
 20
119.062402
 30
0.0
 10
74.252018
 20
114.193365
 30
0.0
 10
79.975916
 20
116.053171
 30
0.0
 10
79.975916
 20
122.071630
 30
0.0
 10
74.252018
 20
123.931439
 30
0.0
  0
LWPOLYLINE
  5
10d
100
AcDbEntity
  8
Layer_1
 62
7
100
AcDbPolyline
 90
6
 70
1
 10
75.233149
 20
132.969503
 30
0.0
 10
75.233149
 20
126.951044
 30
0.0
 10
81.563416
 20
124.894213
 30
0.0
 10
87.893684
 20
126.951044
 30
0.0
 10
87.893684
 20
132.969503
 30
0.0
 10
81.563416
 20
135.026334
 30
0.0
  0
LWPOLYLINE
  5
10e
100
AcDbEntity
  8
Layer_1
 62
7
100
AcDbPolyline
 90
6
 70
1
 10
157.542712
 20
137.917756
 30
0.0
 10
153.630392
 20
132.532911
 30
0.0
 10
157.167953
 20
127.663874
 30
0.0
 10
163.498220
 20
129.720705
 30
0.0
 10
167.410540
 20
135.105550
 30
0.0
 10
163.872979
 20
139.974587
 30
0.0
  0
LWPOLYLINE
  5
10f
100
AcDbEntity
  8
Layer_1
 62
7
100
AcDbPolyline
 90
6
 70
1
 10
144.731494
 20
142.080374
 30
0.0
 10
140.819174
 20
136.695529
 30
0.0
 10
144.356735
 20
131.826489
 30
0.0
 10
150.687005
 20
133.883321
 30
0.0
 10
154.599325
 20
139.268166
 30
0.0
 10
151.061764
 20
144.137205
 30
0.0
  0
LWPOLYLINE
  5
110
100
AcDbEntity
  8
Layer_1
 62
7
100
AcDbPolyline
 90
5
 70
1
 10
153.630392
 20
146.003423
 30
0.0
 10
157.167953
 20
141.134383
 30
0.0
 10
162.891848
 20
142.994190
 30
0.0
 10
162.891848
 20
149.012653
 30
0.0
 10
157.167953
 20
150.872460
 30
0.0
  0
LWPOLYLINE
  5
111
100
AcDbEntity
  8
Layer_1
 62
7
100
AcDbPolyline
 90
6
 70
1
 10
106.904218
 20
154.765245
 30
0.0
 10
106.904218
 20
148.109207
 30
0.0
 10
110.816536
 20
142.724362
 30
0.0
 10
116.540433
 20
144.584171
 30
0.0
 10
116.540433
 20
151.240207
 30
0.0
 10
112.628116
 20
156.625055
 30
0.0
  0
LWPOLYLINE
  5
112
100
AcDbEntity
  8
Layer_1
 62
7
100
AcDbPolyline
 90
6
 70
1
 10
144.731494
 20
155.550883
 30
0.0
 10
140.819174
 20
150.166038
 30
0.0
 10
144.356735
 20
145.297001
 30
0.0
 10
150.687005
 20
147.353832
 30
0.0
 10
154.599325
 20
152.738677
 30
0.0
 10
151.061764
 20
157.607714
 30
0.0
  0
LWPOLYLINE
  5
113
100
AcDbEntity
  8
Layer_1
 62
7
100
AcDbPolyline
 90
6
 70
1
 10
94.093001
 20
158.927861
 30
0.0
 10
94.093001
 20
152.271823
 30
0.0
 10
98.005321
 20
146.886978
 30
0.0
 10
103.729219
 20
148.746787
 30
0.0
 10
103.729219
 20
155.402825
 30
0.0
 10
99.816899
 20
160.787670
 30
0.0
  0
LWPOLYLINE
  5
114
100
AcDbEntity
  8
Layer_1
 62
7
100
AcDbPolyline
 90
6
 70
1
 10
114.821986
 20
165.663118
 30
0.0
 10
114.821986
 20
159.007080
 30
0.0
 10
118.734303
 20
153.622232
 30
0.0
 10
124.458201
 20
155.482041
 30
0.0
 10
124.458201
 20
162.138080
 30
0.0
 10
120.545881
 20
167.522925
 30
0.0
  0
LWPOLYLINE
  5
115
100
AcDbEntity
  8
Layer_1
 62
7
100
AcDbPolyline
 90
5
 70
1
 10
102.385527
 20
162.653887
 30
0.0
 10
105.923088
 20
157.784850
 30
0.0
 10
111.646986
 20
159.644659
 30
0.0
 10
111.646986
 20
165.663115
 30
0.0
 10
105.923088
 20
167.522925
 30
0.0
  0
ENDSEC
  0
SECTION
  2
OBJECTS
  0
DICTIONARY
  5
C
330
0
100
AcDbDictionary
  3
ACAD_GROUP
350
D
  3
ACAD_MLINESTYLE
350
17
  0
DICTIONARY
  5
D
330
C
100
AcDbDictionary
  0
DICTIONARY
  5
1A
330
C
100
AcDbDictionary
  0
DICTIONARY
  5
17
330
C
100
AcDbDictionary
  3
STANDARD
350
18
  0
DICTIONARY
  5
19
330
C
100
AcDbDictionary
  0
ENDSEC
  0
EOF
