<svg version="1.1" xmlns="http://www.w3.org/2000/svg" xmlns:xlink="http://www.w3.org/1999/xlink" width="900" height="900"><defs/><g><path fill="#222222" stroke="#cccccc" paint-order="fill stroke markers" d=" M 244.20516 36.15231 L 245.39045 36.91352 L 245.90616 37.49489 L 265.3947 64.31856 L 296.92783 54.07283 L 298.32328 53.88024 L 299.69897 54.18334 L 300.88426 54.94455 L 301.39997 55.52592 L 320.88851 82.34959 L 352.42165 72.10386 L 352.82621 72.04803 L 353.21785 71.93235 L 353.51856 71.95247 L 353.8171 71.91127 L 354.21588 71.99913 L 354.62339 72.0264 L 354.89849 72.14953 L 355.19279 72.21437 L 355.5364 72.43504 L 355.90916 72.60188 L 356.12451 72.81274 L 356.37808 72.97558 L 356.89379 73.55695 L 378.09054 102.73178 L 378.09884 102.7489 L 378.11245 102.76223 L 378.12631 102.80559 L 378.70493 103.99942 L 378.79144 104.8858 L 378.85447 105.08292 L 378.82614 105.24129 L 378.84177 105.40143 L 378.70279 105.93083 L 378.60642 106.46959 L 378.52494 106.60833 L 378.48409 106.76394 L 378.09054 107.43406 L 358.60199 134.25774 L 376.38233 158.73028 L 407.91546 148.48454 L 408.32002 148.42871 L 408.71166 148.31303 L 409.01237 148.33315 L 409.31091 148.29195 L 409.70969 148.37981 L 410.1172 148.40708 L 410.39231 148.53021 L 410.68659 148.59505 L 411.03019 148.81571 L 411.40297 148.98256 L 411.61833 149.19342 L 411.87189 149.35626 L 412.3876 149.93763 L 433.58435 179.11246 L 433.59265 179.12958 L 433.60626 179.14291 L 433.62012 179.18627 L 434.19874 180.3801 L 434.28525 181.26648 L 434.34828 181.4636 L 434.31995 181.62197 L 434.33558 181.78211 L 434.1966 182.31151 L 434.10023 182.85027 L 434.01875 182.98901 L 433.9779 183.14462 L 433.58435 183.81474 L 414.0958 210.63842 L 433.58435 237.46211 L 434.19874 238.72975 L 434.33558 240.13176 L 433.9779 241.49427 L 433.58435 242.16439 L 414.0958 268.98807 L 433.58435 295.81176 L 434.19874 297.0794 L 434.33558 298.48141 L 433.9779 299.84392 L 433.58435 300.51404 L 412.3876 329.68886 L 411.37186 330.6649 L 410.08075 331.22829 L 408.6744 331.30916 L 407.91546 331.14195 L 376.38233 320.89622 L 358.60199 345.36875 L 378.09054 372.19244 L 378.70493 373.46008 L 378.84177 374.86209 L 378.48409 376.2246 L 378.09054 376.89472 L 356.89379 406.06954 L 355.87805 407.04558 L 354.58694 407.60897 L 353.18059 407.68984 L 352.42165 407.52263 L 320.88851 397.2769 L 301.39997 424.10058 L 300.38423 425.07662 L 299.09312 425.64001 L 297.68677 425.72088 L 296.92783 425.55367 L 265.3947 415.30793 L 245.90616 442.13161 L 245.79016 442.24308 L 245.70867 442.38183 L 245.28504 442.72846 L 244.89042 443.10765 L 244.74296 443.17199 L 244.61843 443.27389 L 244.10092 443.45216 L 243.59931 443.67104 L 243.43869 443.68028 L 243.28656 443.73268 L 242.73934 443.72049 L 242.19296 443.75191 L 241.97286 443.70342 L 241.87823 443.70131 L 241.77101 443.65895 L 241.43402 443.5847 L 207.13696 432.44091 L 206.71552 432.21549 L 206.27105 432.03987 L 206.09876 431.88559 L 205.89481 431.7765 L 205.57766 431.41896 L 205.22163 431.10015 L 205.1135 430.89569 L 204.96002 430.72267 L 204.78648 430.27735 L 204.56305 429.85489 L 204.53251 429.62565 L 204.44852 429.41014 L 204.37303 428.63668 L 204.37303 395.48078 L 175.60382 386.13311 L 156.11528 412.95678 L 155.99928 413.06825 L 155.91779 413.207 L 155.49416 413.55363 L 155.09954 413.93282 L 154.95208 413.99716 L 154.82755 414.09906 L 154.31004 414.27733 L 153.80843 414.49621 L 153.64781 414.50545 L 153.49568 414.55785 L 152.94846 414.54566 L 152.40208 414.57708 L 152.18198 414.52859 L 152.08735 414.52648 L 151.98013 414.48412 L 151.64314 414.40987 L 117.34608 403.26608 L 116.92464 403.04066 L 116.48017 402.86504 L 116.30788 402.71076 L 116.10393 402.60167 L 115.78678 402.24413 L 115.43075 401.92532 L 115.32262 401.72086 L 115.16914 401.54784 L 114.9956 401.10252 L 114.77217 400.68006 L 114.74163 400.45082 L 114.65764 400.23531 L 114.58215 399.46185 L 114.58215 366.30596 L 83.04902 356.06023 L 81.80687 355.39582 L 80.87208 354.34199 L 80.36058 353.02946 L 80.28509 352.256 L 80.28509 319.1001 L 48.75195 308.85437 L 47.5098 308.18996 L 46.57501 307.13613 L 46.06351 305.8236 L 45.98802 305.05014 L 45.98802 268.98807 L 46.23607 267.6014 L 46.94944 266.38671 L 48.03968 265.49465 L 48.75195 265.18384 L 80.28509 254.93811 L 80.28509 224.68838 L 48.75195 214.44265 L 48.33051 214.21723 L 47.88604 214.04161 L 47.71375 213.88733 L 47.5098 213.77824 L 47.19265 213.4207 L 46.83662 213.10189 L 46.72849 212.89743 L 46.57501 212.72441 L 46.40147 212.27909 L 46.17804 211.85663 L 46.1475 211.62739 L 46.06351 211.41188 L 45.98802 210.63842 L 45.98802 174.57636 L 46.0039 174.4876 L 45.99199 174.39824 L 46.12749 173.7967 L 46.23607 173.18969 L 46.28173 173.11195 L 46.30154 173.02399 L 46.63714 172.50676 L 46.94944 171.975 L 47.01923 171.9179 L 47.0683 171.84227 L 47.56242 171.47344 L 48.03968 171.08294 L 48.15019 171.03472 L 48.19717 170.99965 L 48.30048 170.96914 L 48.75195 170.77213 L 80.28509 160.5264 L 80.28509 127.3705 L 80.36925 126.90003 L 80.39892 126.42304 L 80.49242 126.21149 L 80.53314 125.98383 L 80.77517 125.57171 L 80.96836 125.13459 L 81.12938 124.96859 L 81.24651 124.76914 L 81.61641 124.46648 L 81.94915 124.12344 L 82.17628 124.00838 L 82.33675 123.87708 L 82.64525 123.77081 L 83.04902 123.56627 L 114.58215 113.32054 L 114.58215 80.16464 L 114.8302 78.77797 L 115.54357 77.56328 L 116.63381 76.67122 L 117.34608 76.36041 L 151.64314 65.21662 L 153.03859 65.02403 L 154.41428 65.32713 L 155.59957 66.08834 L 156.11528 66.66971 L 175.60382 93.49338 L 204.37303 84.14571 L 204.37303 50.98982 L 204.62108 49.60315 L 205.33445 48.38846 L 206.42469 47.4964 L 207.13696 47.18559 L 241.43402 36.0418 L 242.82947 35.84921 Z M 212.37303 393.87429 L 212.37303 425.73051 L 241.14223 435.07818 L 259.86684 409.30596 L 259.86684 377.44975 L 231.09764 368.10208 Z M 267.86684 352.256 L 267.61879 353.64267 L 266.90542 354.85736 L 265.81518 355.74942 L 265.10291 356.06023 L 242.51407 363.39979 L 265.10291 370.73935 L 266.34506 371.40376 L 267.27985 372.45759 L 267.79135 373.77012 L 267.86684 374.54358 L 267.86684 407.69947 L 296.63604 417.04715 L 314.41638 392.57461 L 294.92783 365.75093 L 294.65078 365.1793 L 294.35392 364.618 L 294.34452 364.54742 L 294.31344 364.4833 L 294.25173 363.85108 L 294.16787 363.22167 L 294.18352 363.15219 L 294.1766 363.08128 L 294.33787 362.46696 L 294.47742 361.84742 L 294.5162 361.78766 L 294.53428 361.71877 L 294.92783 361.04865 L 308.88851 341.83342 L 286.29966 349.17298 L 285.98263 349.21673 L 285.68006 349.32096 L 285.29034 349.31228 L 284.90421 349.36557 L 284.59171 349.29672 L 284.27173 349.28959 L 283.90917 349.14634 L 283.52852 349.06247 L 283.25926 348.88954 L 282.96161 348.77194 L 282.6712 348.51189 L 282.34323 348.30126 L 281.98499 347.89741 L 281.91219 347.83222 L 281.89008 347.79042 L 281.82752 347.71989 L 267.86684 328.50466 Z M 122.58215 364.69947 L 122.58215 396.55568 L 151.35135 405.90335 L 170.07596 380.13114 L 170.07596 348.27492 L 141.30676 338.92725 Z M 303.10817 363.39979 L 321.83278 389.172 L 352.12986 399.01611 L 369.9102 374.54358 L 351.18559 348.77136 L 320.88851 338.92725 Z M 178.07596 348.27492 L 178.07596 378.52465 L 206.84517 387.87232 L 224.62551 363.39979 L 206.84517 338.92725 Z M 122.58215 305.05014 L 122.3341 306.43681 L 121.62073 307.6515 L 120.53049 308.54356 L 119.81822 308.85437 L 88.28509 319.1001 L 88.28509 349.34983 L 117.05429 358.6975 L 136.54283 331.87382 L 137.55857 330.89778 L 138.84968 330.33439 L 140.25603 330.25352 L 141.01497 330.42073 L 163.60382 337.76029 L 149.64314 318.54507 L 149.02875 317.27744 L 148.89191 315.87542 L 149.24959 314.51291 L 149.64314 313.84279 L 163.60382 294.62756 L 141.01497 301.96713 L 140.69794 302.01088 L 140.39537 302.11511 L 140.00565 302.10643 L 139.61952 302.15972 L 139.30702 302.09087 L 138.98704 302.08374 L 138.62447 301.94048 L 138.24384 301.85662 L 137.97459 301.6837 L 137.67692 301.56609 L 137.3865 301.30603 L 137.05854 301.09541 L 136.7003 300.69156 L 136.6275 300.62637 L 136.60539 300.58457 L 136.54283 300.51404 L 122.58215 281.29881 Z M 213.3173 334.22496 L 231.09764 358.6975 L 259.86684 349.34983 L 259.86684 319.1001 L 231.09764 309.75243 Z M 157.82348 316.19393 L 175.60382 340.66646 L 204.37303 331.31879 L 204.37303 301.06907 L 175.60382 291.72139 Z M 268.81111 316.19393 L 286.59145 340.66646 L 315.36065 331.31879 L 315.36065 301.06907 L 286.59145 291.72139 Z M 323.36065 301.06907 L 323.36065 331.31879 L 352.12986 340.66646 L 369.9102 316.19393 L 352.12986 291.72139 Z M 358.60199 287.0191 L 377.3266 312.79132 L 407.62367 322.63543 L 425.40401 298.1629 L 406.6794 272.39068 L 376.38233 262.54657 Z M 212.37303 181.4636 L 212.12498 182.85027 L 211.41161 184.06496 L 210.32137 184.95702 L 209.6091 185.26783 L 178.07596 195.51356 L 178.07596 228.66946 L 177.82791 230.05613 L 177.11454 231.27082 L 176.0243 232.16288 L 175.31203 232.47369 L 152.72319 239.81325 L 175.31203 247.15281 L 175.81099 247.4197 L 176.3274 247.65083 L 176.4289 247.75021 L 176.55418 247.81722 L 176.92964 248.2405 L 177.33394 248.63635 L 177.3639 248.73005 L 177.48897 248.87105 L 178.00047 250.18358 L 178.07596 250.95704 L 178.07596 284.11293 L 209.6091 294.35867 L 210.85125 295.02308 L 211.78604 296.07691 L 212.29754 297.38944 L 212.37303 298.1629 L 212.37303 321.91423 L 226.33371 302.699 L 227.34945 301.72296 L 228.64056 301.15957 L 230.04691 301.0787 L 230.80585 301.24591 L 262.33898 311.49164 L 281.82752 284.66796 L 282.00779 284.49474 L 282.14387 284.28501 L 282.51202 284.01021 L 282.84326 283.69192 L 283.07239 283.59194 L 283.27274 283.44239 L 283.71333 283.31226 L 284.13437 283.12853 L 284.38395 283.11418 L 284.62372 283.04336 L 285.0821 283.07403 L 285.54072 283.04766 L 285.91267 283.12961 L 286.02926 283.13741 L 286.10796 283.17263 L 286.29966 283.21487 L 308.88851 290.55444 L 294.92783 271.33921 L 294.6508 270.76763 L 294.35392 270.20628 L 294.34451 270.13568 L 294.31344 270.07157 L 294.25174 269.43938 L 294.16787 268.80995 L 294.18352 268.74047 L 294.1766 268.66956 L 294.33787 268.05524 L 294.47742 267.4357 L 294.5162 267.37594 L 294.53428 267.30705 L 294.92783 266.63693 L 314.41638 239.81325 L 294.92783 212.98956 L 294.31344 211.72192 L 294.1766 210.31991 L 294.53428 208.9574 L 294.92783 208.28728 L 308.88851 189.07206 L 286.29966 196.41162 L 284.90421 196.60421 L 283.52852 196.30111 L 282.34323 195.5399 L 281.82752 194.95853 L 262.33898 168.13486 L 230.80585 178.38059 L 230.48882 178.42434 L 230.18625 178.52857 L 229.79653 178.51989 L 229.4104 178.57318 L 229.0979 178.50433 L 228.77792 178.4972 L 228.41536 178.35395 L 228.03471 178.27008 L 227.76545 178.09715 L 227.4678 177.97955 L 227.17739 177.7195 L 226.84942 177.50887 L 226.49118 177.10502 L 226.41838 177.03983 L 226.39627 176.99803 L 226.33371 176.9275 L 212.37303 157.71227 Z M 53.98802 271.89424 L 53.98802 302.14397 L 84.28509 311.98808 L 114.58215 302.14397 L 114.58215 271.89424 L 84.28509 262.05013 Z M 123.52642 268.98807 L 141.30676 293.46061 L 170.07596 284.11293 L 170.07596 253.86321 L 141.30676 244.51554 Z M 303.10817 268.98807 L 320.88851 293.46061 L 349.65772 284.11293 L 349.65772 253.86321 L 320.88851 244.51554 Z M 357.65772 228.66946 L 357.40967 230.05613 L 356.6963 231.27082 L 355.60606 232.16288 L 354.89379 232.47369 L 332.30494 239.81325 L 354.89379 247.15281 L 355.39275 247.4197 L 355.90916 247.65083 L 356.01066 247.75021 L 356.13594 247.81722 L 356.5114 248.2405 L 356.9157 248.63635 L 356.94566 248.73005 L 357.07073 248.87105 L 357.58223 250.18358 L 357.65772 250.95704 L 357.65772 274.70837 L 371.6184 255.49314 L 371.79867 255.31992 L 371.93475 255.11019 L 372.3029 254.83539 L 372.63414 254.5171 L 372.86327 254.41712 L 373.06362 254.26757 L 373.50421 254.13744 L 373.92525 253.95371 L 374.17483 253.93936 L 374.4146 253.86854 L 374.87298 253.89921 L 375.3316 253.87284 L 375.70355 253.95479 L 375.82014 253.96259 L 375.89884 253.99781 L 376.09054 254.04005 L 407.62367 264.28578 L 425.40401 239.81325 L 407.62367 215.34071 L 376.09054 225.58644 L 374.69509 225.77903 L 373.3194 225.47593 L 372.13411 224.71472 L 371.6184 224.13335 L 357.65772 204.91812 Z M 88.28509 224.68838 L 88.28509 254.93811 L 117.05429 264.28578 L 134.83463 239.81325 L 117.05429 215.34071 Z M 123.52642 210.63842 L 141.30676 235.11096 L 170.07596 225.76329 L 170.07596 195.51356 L 141.30676 186.16589 Z M 303.10817 210.63842 L 320.88851 235.11096 L 349.65772 225.76329 L 349.65772 195.51356 L 320.88851 186.16589 Z M 53.98802 177.48253 L 53.98802 207.73225 L 84.28509 217.57636 L 114.58215 207.73225 L 114.58215 177.48253 L 84.28509 167.63842 Z M 377.3266 166.83518 L 358.60199 192.60739 L 376.38233 217.07992 L 406.6794 207.23581 L 425.40401 181.4636 L 407.62367 156.99106 Z M 88.28509 130.27667 L 88.28509 160.5264 L 119.81822 170.77213 L 120.31718 171.03902 L 120.83359 171.27015 L 120.93509 171.36953 L 121.06037 171.43654 L 121.43583 171.85982 L 121.84013 172.25567 L 121.87009 172.34937 L 121.99516 172.49037 L 122.50666 173.8029 L 122.58215 174.57636 L 122.58215 198.32769 L 136.54283 179.11246 L 136.7231 178.93924 L 136.85918 178.72951 L 137.22733 178.45471 L 137.55857 178.13642 L 137.7877 178.03644 L 137.98805 177.88689 L 138.42864 177.75676 L 138.84968 177.57303 L 139.09926 177.55868 L 139.33903 177.48786 L 139.79741 177.51853 L 140.25603 177.49216 L 140.62798 177.57411 L 140.74457 177.58191 L 140.82327 177.61713 L 141.01497 177.65937 L 163.60382 184.99893 L 149.64314 165.78371 L 149.36609 165.21208 L 149.06923 164.65078 L 149.05983 164.5802 L 149.02875 164.51608 L 148.96704 163.88386 L 148.88318 163.25445 L 148.89883 163.18497 L 148.89191 163.11406 L 149.05318 162.49974 L 149.19273 161.8802 L 149.23151 161.82044 L 149.24959 161.75155 L 149.64314 161.08143 L 163.60382 141.8662 L 141.01497 149.20576 L 140.69794 149.24951 L 140.39537 149.35374 L 140.00565 149.34506 L 139.61952 149.39835 L 139.30702 149.3295 L 138.98704 149.32237 L 138.62448 149.17912 L 138.24383 149.09525 L 137.97457 148.92232 L 137.67692 148.80472 L 137.38651 148.54467 L 137.05854 148.33404 L 136.7003 147.93019 L 136.6275 147.865 L 136.60539 147.8232 L 136.54283 147.75267 L 117.05429 120.929 Z M 157.82348 163.43257 L 175.60382 187.9051 L 204.37303 178.55743 L 204.37303 148.3077 L 175.60382 138.96003 Z M 268.81111 163.43257 L 286.59145 187.9051 L 315.36065 178.55743 L 315.36065 148.3077 L 286.59145 138.96003 Z M 323.36065 148.3077 L 323.36065 178.55743 L 352.12986 187.9051 L 369.9102 163.43257 L 352.12986 138.96003 Z M 213.3173 145.40153 L 231.09764 169.87407 L 259.86684 160.5264 L 259.86684 130.27667 L 231.09764 120.929 Z M 267.86684 71.92702 L 267.86684 105.08292 L 267.61879 106.46959 L 266.90542 107.68428 L 265.81518 108.57634 L 265.10291 108.88715 L 242.51407 116.22671 L 265.10291 123.56627 L 265.60187 123.83316 L 266.11828 124.06429 L 266.21978 124.16367 L 266.34506 124.23068 L 266.72052 124.65396 L 267.12482 125.04981 L 267.15478 125.14351 L 267.27985 125.28451 L 267.79135 126.59704 L 267.86684 127.3705 L 267.86684 151.12183 L 281.82752 131.9066 L 282.84326 130.93056 L 284.13437 130.36717 L 285.54072 130.2863 L 286.29966 130.45351 L 308.88851 137.79307 L 294.92783 118.57785 L 294.31344 117.31022 L 294.1766 115.9082 L 294.53428 114.54569 L 294.92783 113.87557 L 314.41638 87.05188 L 296.63604 62.57935 Z M 122.58215 83.07081 L 122.58215 114.92703 L 141.30676 140.69924 L 170.07596 131.35157 L 170.07596 99.49535 L 151.35135 73.72314 Z M 178.07596 101.10184 L 178.07596 131.35157 L 206.84517 140.69924 L 224.62551 116.22671 L 206.84517 91.75417 Z M 321.83278 90.45449 L 303.10817 116.22671 L 320.88851 140.69924 L 351.18559 130.85513 L 369.9102 105.08292 L 352.12986 80.61038 Z M 212.37303 53.89599 L 212.37303 85.7522 L 231.09764 111.52442 L 259.86684 102.17675 L 259.86684 70.32053 L 241.14223 44.54832 Z" stroke-miterlimit="10"/><path fill="#222222" stroke="#cccccc" paint-order="fill stroke markers" d=" M 646.29582 37.47728 L 802.12724 88.10998 L 803.36939 88.77439 L 804.30418 89.82822 L 804.81568 91.14075 L 804.89117 91.91421 L 804.89117 139.64073 L 850.2818 154.38904 L 850.78076 154.65593 L 851.29717 154.88706 L 851.39867 154.98644 L 851.52395 155.05345 L 851.89941 155.47673 L 852.30371 155.87258 L 852.33367 155.96628 L 852.45874 156.10728 L 852.97024 157.41981 L 853.04573 158.19327 L 853.04573 322.04412 L 852.79768 323.43079 L 852.08431 324.64548 L 850.99407 325.53754 L 850.2818 325.84835 L 804.89117 340.59666 L 804.89117 388.32319 L 804.64312 389.70986 L 803.92975 390.92455 L 802.83951 391.81661 L 802.12724 392.12742 L 646.29582 442.76012 L 645.97879 442.80387 L 645.67622 442.9081 L 645.2865 442.89942 L 644.90037 442.95271 L 644.58787 442.88386 L 644.26789 442.87673 L 643.90533 442.73348 L 643.52468 442.64961 L 643.25542 442.47668 L 642.95777 442.35908 L 642.66736 442.09903 L 642.33939 441.8884 L 641.98115 441.48455 L 641.90835 441.41936 L 641.88624 441.37756 L 641.82368 441.30703 L 613.77074 402.69546 L 568.38011 417.44377 L 566.98466 417.63636 L 565.60897 417.33326 L 564.42368 416.57205 L 563.90797 415.99068 L 467.59885 283.43255 L 466.98446 282.16491 L 466.84762 280.7629 L 467.2053 279.40039 L 467.59885 278.73027 L 495.6518 240.1187 L 467.59885 201.50712 L 466.98446 200.23948 L 466.84762 198.83747 L 467.2053 197.47496 L 467.59885 196.80484 L 563.90797 64.24672 L 564.92371 63.27068 L 566.21482 62.70729 L 567.62117 62.62642 L 568.38011 62.79363 L 613.77073 77.54194 L 641.82368 38.93037 L 642.83942 37.95433 L 644.13053 37.39094 L 645.53688 37.31007 Z M 621.77074 400.0961 L 646.58761 434.2536 L 710.03117 413.63954 L 645.05975 392.52904 Z M 568.6719 408.93725 L 608.82646 395.89025 L 594.43306 376.07943 L 529.46162 354.96893 Z M 773.60215 350.76308 L 733.4476 406.03108 L 796.89117 385.41702 L 796.89117 343.19602 Z M 649.05975 385.41702 L 712.50332 406.03108 L 672.34877 350.76308 L 649.05975 343.19602 Z M 726.97546 333.01379 L 726.97546 401.3288 L 766.18575 347.36047 L 741.36887 313.20297 Z M 679.76517 347.36047 L 718.97546 401.3288 L 718.97546 334.62028 L 694.74217 326.74641 Z M 601.84946 372.67682 L 616.82646 393.29089 L 641.05975 385.41702 L 641.05975 340.59666 L 628.19421 336.41639 Z M 531.93377 347.36047 L 595.37733 367.97453 L 620.19421 333.81703 L 596.90519 326.24997 Z M 649.05975 334.78431 L 673.29304 342.65818 L 686.74216 324.14705 L 649.05975 311.90329 Z M 746.31314 306.39776 L 772.65788 342.65818 L 796.89117 334.78431 L 796.89117 309.30393 L 754.26448 295.45368 Z M 529.46162 339.75201 L 592.90519 319.13795 L 592.90519 293.65757 L 568.6719 285.7837 Z M 475.77919 281.08141 L 514.98948 335.04974 L 514.98948 266.73473 L 500.59607 246.92391 Z M 522.98948 268.34122 L 522.98948 335.04973 L 563.14404 279.78173 L 563.14404 255.29422 Z M 633.13849 329.61118 L 641.05975 332.18495 L 641.05975 318.7085 Z M 804.89117 307.69744 L 804.89117 332.18495 L 845.04573 319.13795 L 845.04573 252.42944 Z M 600.90519 319.13795 L 625.13848 327.01182 L 638.58761 308.50069 L 600.90519 296.25693 Z M 699.68644 319.9412 L 721.4476 327.01182 L 736.42459 306.39776 L 722.97546 287.88662 Z M 658.00404 306.39776 L 691.68644 317.34184 L 712.50332 288.68987 Z M 601.84946 240.1187 L 646.58761 301.69547 L 718.97546 278.17524 L 718.97546 202.06215 L 646.58761 178.54192 Z M 773.60215 268.83766 L 759.20876 288.64847 L 799.36331 301.69547 L 838.57359 247.72716 Z M 741.36887 299.59255 L 746.26448 292.85432 L 733.4476 288.68987 Z M 600.90519 287.84522 L 634.58761 298.7893 L 600.90519 252.42944 Z M 729.4476 278.97848 L 751.20875 286.04911 L 766.18575 265.43505 L 752.73661 246.92391 Z M 571.14404 252.69486 L 571.14404 278.17524 L 592.90519 285.24586 L 592.90519 245.62423 Z M 726.97546 268.77067 L 747.79234 240.1187 L 726.97546 211.46672 Z M 505.54035 240.1187 L 520.51734 260.73276 L 563.14404 246.88251 L 563.14404 233.35489 L 520.51734 219.50464 Z M 757.68089 240.1187 L 772.65788 260.73276 L 836.10144 240.1187 L 772.65788 219.50464 Z M 571.14404 244.28315 L 583.9609 240.1187 L 571.14404 235.95425 Z M 571.14404 202.06215 L 571.14404 227.54254 L 592.90519 234.61317 L 592.90519 194.99153 Z M 475.77919 199.15598 L 500.59608 233.31349 L 514.98948 213.50267 L 514.98948 145.18766 Z M 729.4476 201.25891 L 752.73661 233.31349 L 766.18575 214.80235 L 751.20875 194.18828 Z M 759.20875 191.58892 L 773.60215 211.39974 L 838.57359 232.51024 L 799.36331 178.54192 Z M 600.90519 192.39217 L 600.90519 227.80796 L 634.5876 181.44809 Z M 804.89117 172.53995 L 845.04573 227.80796 L 845.04573 161.09944 L 804.89117 148.05244 Z M 522.98948 211.89618 L 563.14404 224.94318 L 563.14404 200.45566 L 522.98948 145.18766 Z M 568.6719 194.45369 L 592.90519 186.57982 L 592.90519 161.09944 L 529.46162 140.48538 Z M 699.68645 160.2962 L 722.97546 192.35077 L 736.42459 173.83963 L 721.4476 153.22558 Z M 733.4476 191.54752 L 746.26447 187.38307 L 741.36886 180.64484 Z M 658.00404 173.83963 L 712.50331 191.54752 L 691.68645 162.89556 Z M 746.31314 173.83963 L 754.26447 184.78371 L 796.89117 170.93346 L 796.89117 145.45308 L 772.65788 137.57921 Z M 600.90519 161.09944 L 600.90519 183.98047 L 638.58761 171.73671 L 625.13848 153.22557 Z M 649.05975 145.45308 L 649.05975 168.3341 L 686.74217 156.09035 L 673.29304 137.57921 Z M 726.97546 147.22361 L 741.36886 167.03443 L 766.18575 132.87692 L 726.97546 78.9086 Z M 633.13849 150.62621 L 641.05975 161.52889 L 641.05975 148.05244 Z M 531.93377 132.87692 L 596.90519 153.98742 L 620.19421 146.42036 L 595.37733 112.26286 Z M 679.76517 132.87692 L 694.74217 153.49099 L 718.97546 145.61712 L 718.97546 78.9086 Z M 601.84946 107.56057 L 628.19421 143.821 L 641.05975 139.64073 L 641.05975 94.82038 L 616.82646 86.94651 Z M 649.05975 94.82038 L 649.05975 137.04137 L 672.34877 129.47431 L 712.50332 74.20632 Z M 773.60215 129.47431 L 796.89117 137.04137 L 796.89117 94.82038 L 733.4476 74.20632 Z M 529.46162 125.26846 L 594.43306 104.15796 L 608.82645 84.34715 L 568.6719 71.30015 Z M 621.77073 80.1413 L 645.05975 87.70836 L 710.03117 66.59786 L 646.58761 45.9838 Z" stroke-miterlimit="10"/><path fill="#222222" stroke="#cccccc" paint-order="fill stroke markers" d=" M 234.01649 456.52405 L 271.66772 468.75768 L 272.90987 469.42209 L 273.84466 470.47592 L 274.35616 471.78845 L 274.43165 472.56191 L 274.43165 510.85107 L 286.341 527.24289 L 305.61074 520.98177 L 328.11654 490.00519 L 329.13228 489.02915 L 330.42339 488.46576 L 331.82974 488.38489 L 332.58868 488.5521 L 370.23991 500.78572 L 371.48206 501.45013 L 372.41685 502.50396 L 372.92835 503.81649 L 373.00384 504.58995 L 373.00384 542.87912 L 394.74571 572.80423 L 431.16087 584.63624 L 432.40302 585.30065 L 433.33781 586.35448 L 433.84931 587.66701 L 433.9248 588.44047 L 433.9248 628.02931 L 433.67675 629.41598 L 432.96338 630.63067 L 431.87314 631.52273 L 431.16087 631.83354 L 394.74571 643.66555 L 382.83636 660.05736 L 394.74571 676.44917 L 431.16087 688.28117 L 432.40302 688.94558 L 433.33781 689.99941 L 433.84931 691.31194 L 433.9248 692.0854 L 433.9248 731.67425 L 433.67675 733.06092 L 432.96338 734.27561 L 431.87314 735.16767 L 431.16087 735.47848 L 394.74571 747.31048 L 373.00384 777.2356 L 373.00384 815.52476 L 372.75579 816.91143 L 372.04242 818.12612 L 370.95218 819.01818 L 370.23991 819.32899 L 332.58868 831.56262 L 331.19323 831.75521 L 329.81755 831.45211 L 328.63225 830.6909 L 328.11654 830.10953 L 305.61074 799.13295 L 286.341 792.87183 L 274.43165 809.26365 L 274.43165 847.55281 L 274.1836 848.93948 L 273.47023 850.15417 L 272.37999 851.04623 L 271.66772 851.35704 L 234.01649 863.59066 L 232.62104 863.78325 L 231.24535 863.48015 L 230.06006 862.71894 L 229.54435 862.13757 L 207.03855 831.161 L 171.85945 819.73061 L 135.4443 831.56262 L 134.04885 831.75521 L 132.67317 831.45211 L 131.48787 830.6909 L 130.97216 830.10953 L 107.70242 798.08148 L 107.08803 796.81384 L 106.95119 795.41183 L 107.30887 794.04932 L 107.70242 793.3792 L 130.20823 762.40261 L 130.20823 742.14122 L 110.93849 735.8801 L 74.52333 747.7121 L 73.12788 747.90469 L 71.75219 747.60159 L 70.5669 746.84038 L 70.05119 746.25901 L 46.78145 714.23097 L 46.16706 712.96334 L 46.03022 711.56132 L 46.3879 710.19881 L 46.78145 709.52869 L 69.28726 678.5521 L 69.28726 641.56262 L 46.78145 610.58603 L 46.16706 609.31839 L 46.03022 607.91638 L 46.3879 606.55387 L 46.78145 605.88375 L 70.05119 573.8557 L 71.06693 572.87966 L 72.35804 572.31627 L 73.76439 572.2354 L 74.52333 572.40261 L 110.93849 584.23462 L 130.20823 577.9735 L 130.20823 557.7121 L 107.70242 526.73552 L 107.08803 525.46789 L 106.95119 524.06587 L 107.30887 522.70336 L 107.70242 522.03324 L 130.97216 490.00519 L 131.9879 489.02915 L 133.27901 488.46576 L 134.68536 488.38489 L 135.4443 488.5521 L 171.85945 500.3841 L 207.03855 488.95372 L 229.54435 457.97714 L 230.56009 457.0011 L 231.8512 456.43771 L 233.25755 456.35684 Z M 214.45495 827.75839 L 234.30828 855.08414 L 266.43165 844.64663 L 266.43165 810.87014 L 234.30828 800.43263 Z M 115.88276 795.73034 L 135.73609 823.0561 L 167.85945 812.61859 L 167.85945 778.84209 L 135.73609 768.40458 Z M 175.85945 778.84209 L 175.85945 812.61859 L 207.98282 823.0561 L 227.83615 795.73034 L 207.98282 768.40458 Z M 313.02714 795.73034 L 332.88047 823.0561 L 365.00384 812.61859 L 365.00384 778.84209 L 332.88047 768.40458 Z M 151.82579 746.25901 L 151.70979 746.37048 L 151.6283 746.50923 L 151.20467 746.85586 L 150.81005 747.23505 L 150.66259 747.29939 L 150.53806 747.40129 L 150.02055 747.57956 L 149.51894 747.79844 L 149.35832 747.80768 L 149.20619 747.86008 L 148.65897 747.84789 L 148.11259 747.87931 L 147.89249 747.83082 L 147.79786 747.82871 L 147.69064 747.78635 L 147.35365 747.7121 L 138.20823 744.74057 L 138.20823 760.79612 L 171.85945 771.73007 L 208.27461 759.89806 L 209.67006 759.70547 L 211.04574 760.00857 L 212.23104 760.76978 L 212.74675 761.35115 L 235.25255 792.32773 L 268.90379 803.26168 L 278.341 790.27247 L 269.19558 787.30095 L 268.77414 787.07553 L 268.32967 786.89991 L 268.15738 786.74563 L 267.95343 786.63654 L 267.63628 786.279 L 267.28025 785.96019 L 267.17212 785.75573 L 267.01864 785.58271 L 266.8451 785.13739 L 266.62167 784.71493 L 266.59113 784.48569 L 266.50714 784.27018 L 266.43165 783.49672 L 266.43165 749.41341 L 234.01649 759.94573 L 232.62104 760.13832 L 231.24535 759.83522 L 230.06006 759.07401 L 229.54435 758.49264 L 216.87107 741.04936 L 196.36526 747.7121 L 194.96981 747.90469 L 193.59412 747.60159 L 192.40883 746.84038 L 191.89312 746.25901 L 171.85945 718.68503 Z M 335.35261 699.6462 L 335.10456 701.03287 L 334.39119 702.24756 L 333.30095 703.13962 L 332.58868 703.45043 L 312.08287 710.11317 L 312.08287 731.67425 L 311.83482 733.06092 L 311.12145 734.27561 L 310.03121 735.16767 L 309.31894 735.47848 L 276.90379 746.0108 L 296.93745 773.58478 L 296.94575 773.6019 L 296.95936 773.61523 L 296.97322 773.65859 L 297.55184 774.85242 L 297.63835 775.7388 L 297.70138 775.93592 L 297.67305 776.09429 L 297.68868 776.25443 L 297.5497 776.78384 L 297.45333 777.32259 L 297.37185 777.46132 L 297.331 777.61695 L 296.93745 778.28706 L 291.28527 786.06662 L 306.55501 791.02805 L 327.35261 762.40261 L 327.35261 724.11345 L 327.60066 722.72678 L 328.31403 721.51209 L 329.40427 720.62003 L 330.11654 720.30922 L 366.53171 708.47722 L 387.32931 679.85178 L 377.89209 666.86256 L 372.23991 674.64212 L 372.12391 674.75359 L 372.04242 674.89234 L 371.61879 675.23897 L 371.22417 675.61816 L 371.07671 675.6825 L 370.95218 675.7844 L 370.43467 675.96267 L 369.93306 676.18155 L 369.77244 676.19079 L 369.62031 676.24319 L 369.07309 676.231 L 368.5267 676.26242 L 368.3066 676.21393 L 368.21198 676.21182 L 368.10477 676.16946 L 367.76777 676.09521 L 335.35261 665.56289 Z M 274.43165 780.59055 L 283.28527 783.46726 L 288.75711 775.93592 L 274.43165 756.21861 Z M 335.35261 727.01963 L 335.35261 760.79612 L 367.47598 771.23363 L 387.32931 743.90787 L 367.47598 716.58212 Z M 236.78042 694.99158 L 236.78042 731.67425 L 236.53237 733.06092 L 235.819 734.27561 L 234.72876 735.16767 L 234.01649 735.47848 L 224.87107 738.45001 L 234.30828 751.43921 L 304.08287 728.76808 L 304.08287 712.71253 L 294.93745 715.68406 L 294.62042 715.72781 L 294.31785 715.83204 L 293.92813 715.82336 L 293.542 715.87665 L 293.2295 715.8078 L 292.90952 715.80067 L 292.54695 715.65741 L 292.16632 715.57355 L 291.89707 715.40063 L 291.5994 715.28302 L 291.30898 715.02296 L 290.98102 714.81234 L 290.62278 714.40849 L 290.54998 714.3433 L 290.52787 714.3015 L 290.46531 714.23097 L 268.90379 684.55407 Z M 54.96179 711.87983 L 74.81512 739.20558 L 106.93849 728.76807 L 106.93849 694.99158 L 74.81512 684.55407 Z M 138.20823 727.01962 L 138.20823 736.32887 L 147.06186 739.20558 L 161.38731 719.48829 Z M 173.09552 676.09521 L 171.70007 676.2878 L 170.32438 675.9847 L 169.13909 675.22349 L 168.62338 674.64212 L 162.9712 666.86257 L 153.53399 679.85178 L 196.65705 739.20558 L 211.92679 734.24415 L 206.27461 726.46459 L 205.66022 725.19695 L 205.52338 723.79494 L 205.88106 722.43243 L 206.27461 721.76231 L 227.83615 692.0854 L 207.98282 664.75965 Z M 373.94811 711.87983 L 393.80144 739.20558 L 425.9248 728.76808 L 425.9248 694.99157 L 393.80144 684.55407 Z M 114.93849 591.34664 L 114.93849 626.72963 L 137.4443 657.70622 L 138.05869 658.97386 L 138.19553 660.37587 L 137.83785 661.73838 L 137.4443 662.4085 L 114.93849 693.38508 L 114.93849 728.76807 L 130.20823 733.72951 L 130.20823 724.11345 L 130.22411 724.02469 L 130.2122 723.93533 L 130.3477 723.33379 L 130.45628 722.72678 L 130.50194 722.64904 L 130.52175 722.56108 L 130.85735 722.04385 L 131.16965 721.51209 L 131.23944 721.45499 L 131.28851 721.37936 L 131.78263 721.01053 L 132.25989 720.62003 L 132.3704 720.57181 L 132.41738 720.53674 L 132.52069 720.50623 L 132.97216 720.30922 L 165.38732 709.7769 L 145.35365 682.20292 L 144.73926 680.93528 L 144.60242 679.53327 L 144.9601 678.17076 L 145.35365 677.50064 L 158.02693 660.05736 L 145.35365 642.61408 L 144.73926 641.34644 L 144.60242 639.94443 L 144.9601 638.58192 L 145.35365 637.9118 L 165.38732 610.33782 L 132.97216 599.80549 L 132.55072 599.58007 L 132.10625 599.40445 L 131.93396 599.25017 L 131.73001 599.14108 L 131.41286 598.78354 L 131.05683 598.46473 L 130.9487 598.26027 L 130.79522 598.08725 L 130.62168 597.64193 L 130.39825 597.21947 L 130.36771 596.99023 L 130.28372 596.77472 L 130.20823 596.00126 L 130.20823 586.3852 Z M 214.45495 724.11345 L 219.92679 731.64479 L 228.78042 728.76807 L 228.78042 704.39614 Z M 295.22924 707.17754 L 304.08287 704.30082 L 304.08287 694.99157 L 280.90379 687.46024 Z M 312.08287 628.02931 L 311.83482 629.41598 L 311.12145 630.63067 L 310.03121 631.52273 L 309.31894 631.83354 L 274.43165 643.16911 L 274.43165 676.94561 L 309.31894 688.28117 L 310.56109 688.94558 L 311.49588 689.99941 L 312.00738 691.31194 L 312.08287 692.0854 L 312.08287 701.70147 L 327.35261 696.74003 L 327.35261 623.37469 L 312.08287 618.41325 Z M 77.28726 643.16911 L 77.28726 676.9456 L 109.41063 687.38311 L 129.26396 660.05736 L 109.41063 632.7316 Z M 214.45495 660.05736 L 234.30828 687.38311 L 266.43165 676.9456 L 266.43165 643.16911 L 234.30828 632.7316 Z M 167.91548 660.05736 L 173.38731 667.58869 L 196.56639 660.05736 L 173.38731 652.52602 Z M 344.2969 660.05736 L 367.47598 667.58869 L 372.94782 660.05736 L 367.47598 652.52602 Z M 153.53399 640.26294 L 162.9712 653.25215 L 168.62338 645.47259 L 169.63912 644.49655 L 170.93023 643.93316 L 172.33658 643.85229 L 173.09552 644.0195 L 207.98282 655.35507 L 227.83615 628.02931 L 206.27461 598.3524 L 205.99758 597.78082 L 205.7007 597.21947 L 205.69129 597.14887 L 205.66022 597.08476 L 205.59852 596.45257 L 205.51465 595.82314 L 205.5303 595.75366 L 205.52338 595.68275 L 205.68465 595.06843 L 205.8242 594.44889 L 205.86298 594.38913 L 205.88106 594.32024 L 206.27461 593.65012 L 211.92679 585.87057 L 196.65705 580.90913 Z M 291.28527 534.0481 L 296.93745 541.82766 L 296.94575 541.84478 L 296.95936 541.85811 L 296.97322 541.90147 L 297.55184 543.0953 L 297.63835 543.98168 L 297.70138 544.1788 L 297.67305 544.33717 L 297.68868 544.49731 L 297.5497 545.02672 L 297.45333 545.56547 L 297.37185 545.7042 L 297.331 545.85983 L 296.93745 546.52994 L 276.90379 574.10392 L 309.31894 584.63624 L 310.56109 585.30065 L 311.49588 586.35448 L 312.00738 587.66701 L 312.08287 588.44047 L 312.08287 610.00155 L 332.58868 616.66429 L 333.08764 616.93118 L 333.60405 617.16231 L 333.70555 617.26169 L 333.83083 617.3287 L 334.20629 617.75198 L 334.61059 618.14783 L 334.64055 618.24153 L 334.76562 618.38253 L 335.27712 619.69506 L 335.35261 620.46852 L 335.35261 654.55183 L 367.76777 644.0195 L 368.17233 643.96367 L 368.56397 643.84799 L 368.86468 643.86811 L 369.16322 643.82691 L 369.562 643.91477 L 369.96951 643.94204 L 370.24462 644.06517 L 370.5389 644.13001 L 370.8825 644.35067 L 371.25528 644.51752 L 371.47064 644.72838 L 371.7242 644.89122 L 372.23991 645.47259 L 377.89209 653.25215 L 387.32931 640.26294 L 366.53171 611.6375 L 330.11654 599.80549 L 328.87439 599.14108 L 327.9396 598.08725 L 327.4281 596.77472 L 327.35261 596.00126 L 327.35261 557.7121 L 306.55501 529.08667 Z M 54.96179 608.23489 L 74.81512 635.56065 L 106.93849 625.12314 L 106.93849 591.34664 L 74.81512 580.90913 Z M 373.94811 608.23489 L 393.80144 635.56065 L 425.9248 625.12314 L 425.9248 591.34664 L 393.80144 580.90913 Z M 224.87107 581.66471 L 234.01649 584.63624 L 235.25864 585.30065 L 236.19343 586.35448 L 236.70493 587.66701 L 236.78042 588.44047 L 236.78042 625.12314 L 268.90379 635.56065 L 290.46531 605.88375 L 290.64558 605.71053 L 290.78166 605.5008 L 291.14981 605.226 L 291.48105 604.90771 L 291.71018 604.80773 L 291.91053 604.65818 L 292.35112 604.52805 L 292.77216 604.34432 L 293.02174 604.32997 L 293.26151 604.25915 L 293.71989 604.28982 L 294.17851 604.26345 L 294.55046 604.3454 L 294.66705 604.3532 L 294.74575 604.38842 L 294.93745 604.43066 L 304.08287 607.40219 L 304.08287 591.34664 L 234.30828 568.67551 Z M 280.90379 632.65448 L 304.08287 625.12314 L 304.08287 615.8139 L 295.22924 612.93718 Z M 214.45495 596.00126 L 228.78042 615.71857 L 228.78042 591.34664 L 219.92679 588.46992 Z M 335.35261 559.3186 L 335.35261 593.09509 L 367.47598 603.5326 L 387.32931 576.20684 L 367.47598 548.88109 Z M 235.25255 527.78699 L 212.74675 558.76356 L 211.73101 559.7396 L 210.4399 560.30299 L 209.03354 560.38386 L 208.27461 560.21665 L 171.85945 548.38465 L 138.20823 559.31859 L 138.20823 575.37414 L 147.35365 572.40261 L 148.7491 572.21002 L 150.12478 572.51312 L 151.31008 573.27433 L 151.82579 573.8557 L 171.85945 601.42968 L 191.89312 573.8557 L 192.90886 572.87966 L 194.19997 572.31627 L 195.60632 572.2354 L 196.36526 572.40261 L 216.87107 579.06535 L 229.54435 561.62208 L 229.72462 561.44886 L 229.8607 561.23913 L 230.22885 560.96433 L 230.56009 560.64604 L 230.78922 560.54606 L 230.98957 560.39651 L 231.43016 560.26638 L 231.8512 560.08265 L 232.10078 560.0683 L 232.34055 559.99748 L 232.79894 560.02815 L 233.25756 560.00178 L 233.62951 560.08373 L 233.74609 560.09153 L 233.82479 560.12675 L 234.01649 560.16899 L 266.43165 570.70131 L 266.43165 536.618 L 266.44753 536.52924 L 266.43562 536.43988 L 266.57112 535.83834 L 266.6797 535.23133 L 266.72536 535.15359 L 266.74517 535.06563 L 267.08077 534.5484 L 267.39307 534.01664 L 267.46286 533.95954 L 267.51193 533.88391 L 268.00605 533.51508 L 268.48331 533.12458 L 268.59382 533.07636 L 268.6408 533.04129 L 268.74411 533.01078 L 269.19558 532.81377 L 278.341 529.84225 L 268.90379 516.85304 Z M 138.20823 583.78585 L 138.20823 593.09509 L 161.38731 600.62643 L 147.06186 580.90913 Z M 274.43165 539.52417 L 274.43165 563.8961 L 288.75711 544.1788 L 283.28527 536.64746 Z M 115.88276 524.38438 L 135.73609 551.71013 L 167.85945 541.27263 L 167.85945 507.49612 L 135.73609 497.05862 Z M 175.85945 507.49613 L 175.85945 541.27262 L 207.98282 551.71013 L 227.83615 524.38438 L 207.98282 497.05862 Z M 313.02714 524.38438 L 332.88047 551.71013 L 365.00384 541.27262 L 365.00384 507.49613 L 332.88047 497.05862 Z M 214.45495 492.35633 L 234.30828 519.68209 L 266.43165 509.24458 L 266.43165 475.46808 L 234.30828 465.03057 Z" stroke-miterlimit="10"/><path fill="#222222" stroke="#cccccc" paint-order="fill stroke markers" d=" M 663.04894 456.21093 L 664.23424 456.97214 L 664.74995 457.55351 L 675.05984 471.74385 L 691.7416 466.32363 L 693.13705 466.13104 L 694.51274 466.43414 L 695.69804 467.19535 L 696.21374 467.77672 L 708.23184 484.31821 L 708.84623 485.58584 L 708.98307 486.98786 L 708.62539 488.35037 L 708.23184 489.02049 L 697.92194 503.21084 L 706.52363 515.05005 L 720.44146 510.52788 L 720.44146 492.98764 L 720.45734 492.89888 L 720.44543 492.80952 L 720.58093 492.20798 L 720.68951 491.60097 L 720.73517 491.52323 L 720.75498 491.43527 L 721.09058 490.91804 L 721.40288 490.38628 L 721.47267 490.32918 L 721.52174 490.25355 L 722.01586 489.88472 L 722.49312 489.49422 L 722.60363 489.446 L 722.65061 489.41093 L 722.75392 489.38042 L 723.20539 489.18341 L 742.65108 482.86512 L 743.05564 482.80929 L 743.44728 482.69361 L 743.74799 482.71373 L 744.04653 482.67253 L 744.44531 482.76039 L 744.85282 482.78766 L 745.12793 482.91079 L 745.42221 482.97563 L 745.76581 483.19629 L 746.13859 483.36314 L 746.35395 483.574 L 746.60751 483.73684 L 747.12322 484.31821 L 757.43311 498.50855 L 774.11487 493.08832 L 774.51943 493.03249 L 774.91107 492.91681 L 775.21178 492.93693 L 775.51032 492.89573 L 775.9091 492.98359 L 776.31661 493.01086 L 776.59172 493.13399 L 776.886 493.19883 L 777.2296 493.41949 L 777.60238 493.58634 L 777.81774 493.7972 L 778.0713 493.96004 L 778.58701 494.54141 L 790.60511 511.08291 L 790.61341 511.10003 L 790.62702 511.11336 L 790.64088 511.15672 L 791.2195 512.35055 L 791.30601 513.23693 L 791.36904 513.43405 L 791.34071 513.59242 L 791.35634 513.75256 L 791.21736 514.28197 L 791.12099 514.82072 L 791.03951 514.95945 L 790.99866 515.11508 L 790.60511 515.78519 L 780.29521 529.97554 L 788.8969 541.81474 L 805.57866 536.39452 L 805.98322 536.33869 L 806.37486 536.22301 L 806.67557 536.24313 L 806.97411 536.20193 L 807.37289 536.28979 L 807.7804 536.31706 L 808.0555 536.44019 L 808.3498 536.50503 L 808.69342 536.72571 L 809.06617 536.89254 L 809.28151 537.10338 L 809.5351 537.26624 L 810.0508 537.84761 L 822.0689 554.3891 L 822.0772 554.40622 L 822.09081 554.41955 L 822.10467 554.46291 L 822.68329 555.65673 L 822.7698 556.54312 L 822.83283 556.74024 L 822.8045 556.89861 L 822.82013 557.05875 L 822.68115 557.58815 L 822.58478 558.12691 L 822.5033 558.26565 L 822.46245 558.42126 L 822.0689 559.09138 L 811.759 573.28173 L 820.36069 585.12094 L 837.04245 579.70071 L 837.44701 579.64488 L 837.83865 579.5292 L 838.13936 579.54932 L 838.4379 579.50812 L 838.83668 579.59598 L 839.24419 579.62325 L 839.5193 579.74638 L 839.81358 579.81122 L 840.15718 580.03188 L 840.52996 580.19873 L 840.74532 580.40959 L 840.99888 580.57243 L 841.51459 581.1538 L 853.53269 597.69529 L 853.54099 597.71241 L 853.5546 597.72574 L 853.56846 597.7691 L 854.14708 598.96292 L 854.23359 599.84931 L 854.29662 600.04643 L 854.26829 600.2048 L 854.28392 600.36494 L 854.14494 600.89434 L 854.04857 601.4331 L 853.96709 601.57184 L 853.92624 601.72745 L 853.53269 602.39757 L 843.22279 616.58792 L 853.53269 630.77828 L 853.54099 630.7954 L 853.5546 630.80873 L 853.56846 630.85209 L 854.14708 632.04592 L 854.23359 632.9323 L 854.29662 633.12942 L 854.26829 633.28779 L 854.28392 633.44793 L 854.14494 633.97734 L 854.04857 634.51609 L 853.96709 634.65482 L 853.92624 634.81045 L 853.53269 635.48056 L 841.51459 652.02205 L 841.39859 652.13352 L 841.3171 652.27227 L 840.89347 652.6189 L 840.49885 652.99809 L 840.35139 653.06243 L 840.22686 653.16433 L 839.70935 653.3426 L 839.20774 653.56148 L 839.04712 653.57072 L 838.89499 653.62312 L 838.34777 653.61093 L 837.80138 653.64235 L 837.58128 653.59386 L 837.48666 653.59175 L 837.37945 653.54939 L 837.04245 653.47514 L 820.36069 648.05491 L 811.759 659.89412 L 820.36069 671.73332 L 837.04245 666.31309 L 838.4379 666.1205 L 839.81358 666.4236 L 840.99888 667.18481 L 841.51459 667.76618 L 853.53269 684.30767 L 854.14708 685.5753 L 854.28392 686.97732 L 853.92624 688.33983 L 853.53269 689.00995 L 843.22279 703.20031 L 853.53269 717.39066 L 854.14708 718.65829 L 854.28392 720.06031 L 853.92624 721.42282 L 853.53269 722.09294 L 841.51459 738.63443 L 840.49885 739.61047 L 839.20774 740.17386 L 837.80138 740.25473 L 837.04245 740.08752 L 820.36069 734.66729 L 811.759 746.5065 L 822.0689 760.69685 L 822.68329 761.96448 L 822.82013 763.3665 L 822.46245 764.72901 L 822.0689 765.39913 L 810.0508 781.94062 L 809.03506 782.91666 L 807.74395 783.48005 L 806.33759 783.56092 L 805.57866 783.39371 L 788.8969 777.97349 L 780.29521 789.81269 L 790.60511 804.00304 L 791.2195 805.27067 L 791.35634 806.67269 L 790.99866 808.0352 L 790.60511 808.70532 L 778.58701 825.24682 L 777.57127 826.22286 L 776.28016 826.78625 L 774.87381 826.86712 L 774.11487 826.69991 L 757.43311 821.27968 L 747.12322 835.47002 L 746.10748 836.44606 L 744.81637 837.00945 L 743.41001 837.09032 L 742.65108 836.92311 L 723.20539 830.60482 L 721.96324 829.94041 L 721.02845 828.88658 L 720.51695 827.57405 L 720.44146 826.80059 L 720.44146 809.26035 L 706.52363 804.73818 L 697.92194 816.57739 L 708.23184 830.76774 L 708.24014 830.78486 L 708.25375 830.79819 L 708.26761 830.84155 L 708.84623 832.03537 L 708.93274 832.92176 L 708.99577 833.11888 L 708.96744 833.27725 L 708.98307 833.43739 L 708.84409 833.96679 L 708.74772 834.50555 L 708.66624 834.64429 L 708.62539 834.7999 L 708.23184 835.47002 L 696.21374 852.01151 L 696.09774 852.12298 L 696.01625 852.26173 L 695.59262 852.60836 L 695.198 852.98755 L 695.05054 853.05189 L 694.92601 853.15379 L 694.4085 853.33206 L 693.90689 853.55094 L 693.74627 853.56018 L 693.59414 853.61258 L 693.04692 853.60039 L 692.50053 853.63181 L 692.28043 853.58332 L 692.18581 853.58121 L 692.0786 853.53885 L 691.7416 853.4646 L 675.05984 848.04438 L 664.74995 862.23472 L 664.63395 862.34619 L 664.55246 862.48494 L 664.12883 862.83157 L 663.73421 863.21076 L 663.58675 863.2751 L 663.46222 863.377 L 662.94471 863.55527 L 662.4431 863.77415 L 662.28248 863.78339 L 662.13035 863.83579 L 661.58313 863.8236 L 661.03674 863.85502 L 660.81664 863.80653 L 660.72202 863.80442 L 660.61481 863.76206 L 660.27781 863.68781 L 640.83212 857.36952 L 640.41068 857.1441 L 639.96621 856.96848 L 639.79392 856.8142 L 639.58997 856.70511 L 639.27282 856.34757 L 638.91679 856.02876 L 638.80866 855.8243 L 638.65518 855.65128 L 638.48164 855.20596 L 638.25821 854.7835 L 638.22767 854.55426 L 638.14368 854.33875 L 638.06819 853.56529 L 638.06819 836.02505 L 624.15036 831.50288 L 613.84047 845.69323 L 613.72447 845.8047 L 613.64298 845.94345 L 613.21935 846.29008 L 612.82473 846.66927 L 612.67727 846.73361 L 612.55274 846.83551 L 612.03523 847.01378 L 611.53362 847.23266 L 611.373 847.2419 L 611.22087 847.2943 L 610.67365 847.28211 L 610.12727 847.31353 L 609.90717 847.26504 L 609.81254 847.26293 L 609.70532 847.22057 L 609.36833 847.14632 L 589.92264 840.82803 L 589.5012 840.60261 L 589.05673 840.42699 L 588.88444 840.27271 L 588.68049 840.16362 L 588.36334 839.80608 L 588.00731 839.48727 L 587.89918 839.28281 L 587.7457 839.10979 L 587.57216 838.66447 L 587.34873 838.24201 L 587.31819 838.01277 L 587.2342 837.79726 L 587.15871 837.0238 L 587.15871 819.48356 L 573.24088 814.96139 L 562.93099 829.15173 L 562.81499 829.2632 L 562.7335 829.40195 L 562.30987 829.74858 L 561.91525 830.12777 L 561.76779 830.19211 L 561.64326 830.29401 L 561.12575 830.47228 L 560.62414 830.69116 L 560.46352 830.7004 L 560.31139 830.7528 L 559.76417 830.74061 L 559.21778 830.77203 L 558.99768 830.72354 L 558.90306 830.72143 L 558.79585 830.67907 L 558.45885 830.60482 L 539.01316 824.28653 L 538.59172 824.06111 L 538.14725 823.88549 L 537.97496 823.73121 L 537.77101 823.62212 L 537.45386 823.26458 L 537.09783 822.94577 L 536.9897 822.74131 L 536.83622 822.56829 L 536.66268 822.12297 L 536.43925 821.70051 L 536.40871 821.47127 L 536.32472 821.25576 L 536.24923 820.4823 L 536.24923 802.94207 L 519.56747 797.52184 L 519.14603 797.29642 L 518.70156 797.1208 L 518.52927 796.96652 L 518.32532 796.85743 L 518.00816 796.49988 L 517.65214 796.18108 L 517.54402 795.97665 L 517.39053 795.80361 L 517.21698 795.35826 L 516.99356 794.93582 L 516.96302 794.70658 L 516.87903 794.49107 L 516.80354 793.71761 L 516.80354 773.2712 L 516.81942 773.18244 L 516.80751 773.09308 L 516.94301 772.49154 L 517.05159 771.88453 L 517.09725 771.80679 L 517.11706 771.71883 L 517.45266 771.2016 L 517.76496 770.66984 L 517.83475 770.61274 L 517.88382 770.53711 L 518.37794 770.16828 L 518.8552 769.77778 L 518.96571 769.72956 L 519.01269 769.69449 L 519.116 769.66398 L 519.56747 769.46697 L 536.24923 764.04674 L 536.24923 749.41267 L 522.3314 744.8905 L 512.02151 759.08084 L 511.00577 760.05688 L 509.71466 760.62027 L 508.3083 760.70114 L 507.54937 760.53393 L 488.10368 754.21564 L 486.86153 753.55123 L 485.92674 752.4974 L 485.41524 751.18487 L 485.33975 750.41141 L 485.33975 732.87118 L 468.65799 727.45095 L 467.41584 726.78654 L 466.48105 725.73272 L 465.96955 724.42018 L 465.89406 723.64672 L 465.89406 703.20031 L 466.14211 701.81364 L 466.85548 700.59895 L 467.94572 699.70689 L 468.65799 699.39608 L 485.33975 693.97585 L 485.33975 679.34178 L 468.65799 673.92155 L 467.41584 673.25714 L 466.48105 672.20331 L 465.96955 670.89078 L 465.89406 670.11732 L 465.89406 649.67091 L 465.90994 649.58215 L 465.89803 649.49279 L 466.03353 648.89125 L 466.14211 648.28424 L 466.18777 648.2065 L 466.20758 648.11854 L 466.54318 647.60131 L 466.85548 647.06955 L 466.92527 647.01245 L 466.97434 646.93682 L 467.46846 646.56799 L 467.94572 646.17749 L 468.05623 646.12927 L 468.10321 646.0942 L 468.20652 646.06369 L 468.65799 645.86668 L 485.33975 640.44645 L 485.33975 625.81238 L 468.65799 620.39215 L 468.23655 620.16673 L 467.79208 619.99111 L 467.61979 619.83683 L 467.41584 619.72774 L 467.09869 619.3702 L 466.74266 619.05139 L 466.63453 618.84693 L 466.48105 618.67391 L 466.30751 618.22859 L 466.08408 617.80613 L 466.05354 617.57689 L 465.96955 617.36138 L 465.89406 616.58792 L 465.89406 596.14151 L 465.90994 596.05275 L 465.89803 595.96339 L 466.03353 595.36185 L 466.14211 594.75484 L 466.18777 594.6771 L 466.20758 594.58914 L 466.54318 594.07191 L 466.85548 593.54015 L 466.92527 593.48305 L 466.97434 593.40742 L 467.46846 593.03859 L 467.94572 592.64809 L 468.05623 592.59987 L 468.10321 592.5648 L 468.20652 592.53429 L 468.65799 592.33728 L 485.33975 586.91705 L 485.33975 569.37682 L 485.35563 569.28806 L 485.34372 569.1987 L 485.47922 568.59716 L 485.5878 567.99015 L 485.63346 567.91241 L 485.65327 567.82445 L 485.98887 567.30722 L 486.30117 566.77546 L 486.37096 566.71836 L 486.42003 566.64273 L 486.91415 566.2739 L 487.39141 565.8834 L 487.50192 565.83518 L 487.5489 565.80011 L 487.65221 565.7696 L 488.10368 565.57259 L 507.54937 559.2543 L 507.95393 559.19847 L 508.34557 559.08279 L 508.64628 559.10291 L 508.94482 559.06171 L 509.3436 559.14957 L 509.75111 559.17684 L 510.02622 559.29997 L 510.3205 559.36481 L 510.6641 559.58547 L 511.03688 559.75232 L 511.25224 559.96318 L 511.5058 560.12602 L 512.02151 560.70739 L 522.3314 574.89773 L 536.24923 570.37556 L 536.24923 555.74149 L 519.56747 550.32126 L 518.32532 549.65685 L 517.39053 548.60302 L 516.87903 547.29049 L 516.80354 546.51703 L 516.80354 526.07062 L 517.05159 524.68395 L 517.76496 523.46926 L 518.8552 522.5772 L 519.56747 522.26639 L 536.24923 516.84616 L 536.24923 499.30593 L 536.49728 497.91926 L 537.21065 496.70457 L 538.30089 495.81251 L 539.01316 495.5017 L 558.45885 489.18341 L 559.8543 488.99082 L 561.22998 489.29392 L 562.41528 490.05513 L 562.93099 490.6365 L 573.24088 504.82684 L 587.15871 500.30467 L 587.15871 482.76443 L 587.40676 481.37776 L 588.12013 480.16307 L 589.21037 479.27101 L 589.92264 478.9602 L 609.36833 472.64191 L 610.76378 472.44932 L 612.13946 472.75242 L 613.32476 473.51363 L 613.84047 474.095 L 624.15036 488.28535 L 638.06819 483.76318 L 638.06819 466.22294 L 638.31624 464.83627 L 639.02961 463.62158 L 640.11985 462.72952 L 640.83212 462.41871 L 660.27781 456.10042 L 661.67326 455.90783 Z M 625.85857 722.09294 L 624.84283 723.06898 L 623.55172 723.63237 L 622.14536 723.71324 L 621.38643 723.54603 L 604.70467 718.1258 L 596.10298 729.965 L 606.41288 744.15536 L 607.02727 745.423 L 607.16411 746.82501 L 606.80643 748.18753 L 606.41288 748.85764 L 594.39478 765.39913 L 593.37904 766.37517 L 592.08793 766.93856 L 590.68157 767.01943 L 589.92264 766.85222 L 573.24088 761.43199 L 562.93099 775.62234 L 561.91525 776.59838 L 560.62414 777.16177 L 559.21779 777.24264 L 558.45885 777.07543 L 540.24923 771.15876 L 524.80354 776.17737 L 524.80354 790.81143 L 541.4853 796.23166 L 541.98426 796.49855 L 542.50067 796.72968 L 542.60217 796.82906 L 542.72745 796.89607 L 543.10294 797.31937 L 543.50721 797.7152 L 543.53717 797.80889 L 543.66224 797.94989 L 544.17374 799.26243 L 544.24923 800.03589 L 544.24923 817.57613 L 558.16706 822.0983 L 568.47695 807.90796 L 568.65722 807.73474 L 568.7933 807.52501 L 569.16145 807.25021 L 569.49269 806.93192 L 569.72182 806.83194 L 569.92217 806.68239 L 570.36276 806.55226 L 570.7838 806.36853 L 571.03338 806.35418 L 571.27315 806.28336 L 571.73154 806.31403 L 572.19016 806.28766 L 572.56211 806.36961 L 572.67869 806.37741 L 572.75739 806.41263 L 572.94909 806.45487 L 592.39478 812.77316 L 592.89374 813.04005 L 593.41015 813.27118 L 593.51165 813.37056 L 593.63693 813.43757 L 594.01239 813.86085 L 594.41669 814.2567 L 594.44665 814.3504 L 594.57172 814.4914 L 595.08322 815.80393 L 595.15871 816.57739 L 595.15871 834.11763 L 609.07654 838.6398 L 619.38643 824.44945 L 619.5667 824.27623 L 619.70278 824.0665 L 620.07093 823.7917 L 620.40217 823.47341 L 620.6313 823.37343 L 620.83165 823.22388 L 621.27224 823.09375 L 621.69328 822.91002 L 621.94286 822.89567 L 622.18263 822.82485 L 622.64101 822.85552 L 623.09963 822.82915 L 623.47158 822.9111 L 623.58817 822.9189 L 623.66687 822.95412 L 623.85857 822.99636 L 643.30426 829.31465 L 643.80322 829.58154 L 644.31963 829.81267 L 644.42113 829.91205 L 644.54641 829.97906 L 644.92187 830.40234 L 645.32617 830.79819 L 645.35613 830.89189 L 645.4812 831.03289 L 645.9927 832.34542 L 646.06819 833.11888 L 646.06819 850.65912 L 659.98602 855.18129 L 670.29591 840.99095 L 670.47618 840.81773 L 670.61226 840.608 L 670.98041 840.3332 L 671.31165 840.01491 L 671.54078 839.91493 L 671.74113 839.76538 L 672.18172 839.63525 L 672.60276 839.45152 L 672.85234 839.43717 L 673.09211 839.36635 L 673.5505 839.39702 L 674.00912 839.37065 L 674.38107 839.4526 L 674.49765 839.4604 L 674.57635 839.49562 L 674.76805 839.53786 L 691.44981 844.95808 L 700.0515 833.11888 L 690.50554 819.98 L 672.29591 814.06333 L 671.05376 813.39892 L 670.11897 812.34509 L 669.60747 811.03256 L 669.53198 810.2591 L 669.53198 792.71886 L 652.85022 787.29863 L 651.60807 786.63422 L 650.67328 785.58039 L 650.16178 784.26786 L 650.08629 783.4944 L 650.08629 763.04799 L 650.33434 761.66132 L 651.04771 760.44663 L 652.13795 759.55457 L 652.85022 759.24376 L 669.53198 753.82353 L 669.53198 739.18946 L 652.85022 733.76923 L 651.60807 733.10482 L 650.67328 732.05099 L 650.16178 730.73846 L 650.08629 729.965 L 650.08629 712.42477 L 636.16846 707.9026 Z M 821.30496 679.83822 L 810.0508 695.32824 L 809.9348 695.43971 L 809.85331 695.57846 L 809.42968 695.92509 L 809.03506 696.30428 L 808.8876 696.36862 L 808.76307 696.47052 L 808.24556 696.64879 L 807.74395 696.86767 L 807.58333 696.87691 L 807.4312 696.92931 L 806.88398 696.91712 L 806.33759 696.94854 L 806.11749 696.90005 L 806.02287 696.89794 L 805.91566 696.85558 L 805.57866 696.78133 L 788.8969 691.3611 L 778.58701 705.55145 L 778.47101 705.66292 L 778.38952 705.80167 L 777.96589 706.1483 L 777.57127 706.52749 L 777.42381 706.59183 L 777.29928 706.69373 L 776.78177 706.872 L 776.28016 707.09088 L 776.11954 707.10012 L 775.96741 707.15252 L 775.42019 707.14033 L 774.87381 707.17175 L 774.65371 707.12326 L 774.55908 707.12115 L 774.45186 707.07879 L 774.11487 707.00454 L 754.66918 700.68625 L 754.24774 700.46083 L 753.80327 700.28521 L 753.63098 700.13093 L 753.42703 700.02184 L 753.10988 699.6643 L 752.75385 699.34549 L 752.64572 699.14103 L 752.49224 698.96801 L 752.3187 698.52269 L 752.09527 698.10023 L 752.06473 697.87099 L 751.98074 697.65548 L 751.90525 696.88202 L 751.90525 679.34178 L 737.98742 674.81961 L 727.67753 689.00995 L 727.56153 689.12142 L 727.48004 689.26017 L 727.05641 689.6068 L 726.66179 689.98599 L 726.51433 690.05033 L 726.3898 690.15223 L 725.87229 690.3305 L 725.37068 690.54938 L 725.21006 690.55862 L 725.05793 690.61102 L 724.51071 690.59883 L 723.96432 690.63025 L 723.74422 690.58176 L 723.6496 690.57965 L 723.54239 690.53729 L 723.20539 690.46304 L 706.52363 685.04282 L 697.92194 696.88202 L 708.23184 711.07237 L 708.24014 711.08949 L 708.25375 711.10282 L 708.26761 711.14618 L 708.84623 712.34 L 708.93274 713.22639 L 708.99577 713.42351 L 708.96744 713.58188 L 708.98307 713.74202 L 708.84409 714.27142 L 708.74772 714.81018 L 708.66624 714.94892 L 708.62539 715.10453 L 708.23184 715.77465 L 697.92194 729.965 L 706.52363 741.80421 L 723.20539 736.38398 L 723.60995 736.32815 L 724.00159 736.21247 L 724.3023 736.23259 L 724.60084 736.19139 L 724.99962 736.27925 L 725.40713 736.30652 L 725.68224 736.42965 L 725.97652 736.49449 L 726.32012 736.71515 L 726.6929 736.882 L 726.90826 737.09286 L 727.16182 737.2557 L 727.67753 737.83707 L 739.69563 754.37856 L 739.70393 754.39568 L 739.71754 754.40901 L 739.7314 754.45237 L 740.31002 755.64619 L 740.39653 756.53258 L 740.45956 756.7297 L 740.43123 756.88807 L 740.44686 757.04821 L 740.30788 757.57761 L 740.21151 758.11637 L 740.13003 758.25511 L 740.08918 758.41072 L 739.69563 759.08084 L 729.38573 773.2712 L 739.69563 787.46155 L 739.70393 787.47867 L 739.71754 787.492 L 739.7314 787.53536 L 740.31002 788.72918 L 740.39653 789.61557 L 740.45956 789.81269 L 740.43123 789.97106 L 740.44686 790.1312 L 740.30788 790.6606 L 740.21151 791.19936 L 740.13003 791.3381 L 740.08918 791.49371 L 739.69563 792.16383 L 728.44146 807.65386 L 728.44146 823.89442 L 742.35929 828.41659 L 752.66918 814.22625 L 753.68492 813.25021 L 754.97603 812.68682 L 756.38239 812.60595 L 757.14132 812.77316 L 773.82308 818.19339 L 782.42477 806.35418 L 772.11487 792.16383 L 771.50048 790.8962 L 771.36364 789.49418 L 771.72132 788.13167 L 772.11487 787.46155 L 784.13297 770.92006 L 785.14871 769.94402 L 786.43982 769.38063 L 787.84618 769.29976 L 788.60511 769.46697 L 805.28687 774.88719 L 813.88856 763.04799 L 803.57866 748.85764 L 802.96427 747.59001 L 802.82743 746.18799 L 803.18511 744.82548 L 803.57866 744.15536 L 815.59676 727.61386 L 816.6125 726.63782 L 817.90361 726.07443 L 819.30996 725.99356 L 820.0689 726.16077 L 836.75066 731.581 L 845.35235 719.7418 L 835.04245 705.55145 L 834.42806 704.28382 L 834.29122 702.8818 L 834.6489 701.51929 L 835.04245 700.84917 L 845.35235 686.65881 L 836.75066 674.81961 Z M 677.53198 512.4353 L 677.53198 529.97554 L 677.28393 531.36221 L 676.57056 532.5769 L 675.48032 533.46896 L 674.76805 533.77977 L 658.08629 539.2 L 658.08629 553.83407 L 674.76805 559.2543 L 675.26701 559.52119 L 675.78342 559.75232 L 675.88492 559.8517 L 676.0102 559.91871 L 676.38566 560.34199 L 676.78996 560.73784 L 676.81992 560.83154 L 676.94499 560.97254 L 677.45649 562.28507 L 677.53198 563.05853 L 677.53198 583.50494 L 677.28393 584.89161 L 676.57056 586.1063 L 675.48032 586.99836 L 674.76805 587.30917 L 658.08629 592.7294 L 658.08629 610.26964 L 657.83824 611.65631 L 657.12487 612.871 L 656.03463 613.76306 L 655.32236 614.07387 L 635.87667 620.39215 L 635.55964 620.4359 L 635.25707 620.54013 L 634.86735 620.53145 L 634.48122 620.58474 L 634.16872 620.51589 L 633.84874 620.50876 L 633.48618 620.36551 L 633.10553 620.28164 L 632.83626 620.10871 L 632.53862 619.99111 L 632.24823 619.73107 L 631.92023 619.52043 L 631.56199 619.11657 L 631.4892 619.05139 L 631.46709 619.00959 L 631.40453 618.93906 L 621.09464 604.74872 L 604.41288 610.16895 L 604.09585 610.2127 L 603.79328 610.31693 L 603.40356 610.30825 L 603.01743 610.36154 L 602.70493 610.29269 L 602.38495 610.28556 L 602.02238 610.1423 L 601.64175 610.05844 L 601.3725 609.88552 L 601.07483 609.76791 L 600.78441 609.50785 L 600.45645 609.29723 L 600.09821 608.89338 L 600.02541 608.82819 L 600.0033 608.78639 L 599.94074 608.71586 L 587.92264 592.17437 L 587.64559 591.60274 L 587.34873 591.04144 L 587.33933 590.97086 L 587.30825 590.90674 L 587.24654 590.27452 L 587.16268 589.64511 L 587.17833 589.57563 L 587.17141 589.50472 L 587.33268 588.8904 L 587.47223 588.27086 L 587.51101 588.2111 L 587.52909 588.14221 L 587.92264 587.47209 L 598.23254 573.28173 L 589.63085 561.44253 L 572.94909 566.86276 L 572.63206 566.90651 L 572.32949 567.01074 L 571.93977 567.00206 L 571.55364 567.05535 L 571.24114 566.9865 L 570.92116 566.97937 L 570.55859 566.83611 L 570.17796 566.75225 L 569.90871 566.57933 L 569.61104 566.46172 L 569.32062 566.20166 L 568.99266 565.99104 L 568.63442 565.58719 L 568.56162 565.522 L 568.53951 565.4802 L 568.47695 565.40967 L 558.16706 551.21932 L 544.24923 555.74149 L 544.24923 573.28173 L 544.00118 574.6684 L 543.28781 575.88309 L 542.19757 576.77515 L 541.4853 577.08596 L 524.80354 582.50619 L 524.80354 597.14026 L 541.4853 602.56049 L 542.72745 603.2249 L 543.66224 604.27873 L 544.17374 605.59126 L 544.24923 606.36472 L 544.24923 623.90496 L 558.16706 628.42713 L 568.47695 614.23678 L 569.49269 613.26074 L 570.7838 612.69735 L 572.19015 612.61648 L 572.94909 612.78369 L 592.39478 619.10198 L 593.63693 619.76639 L 594.57172 620.82022 L 595.08322 622.13275 L 595.15871 622.90621 L 595.15871 640.44645 L 611.84047 645.86668 L 613.08262 646.53109 L 614.01741 647.58492 L 614.52891 648.89745 L 614.6044 649.67091 L 614.6044 670.11732 L 614.35635 671.50399 L 613.64298 672.71868 L 612.55274 673.61074 L 611.84047 673.92155 L 595.15871 679.34178 L 595.15871 696.88202 L 594.91066 698.26869 L 594.19729 699.48338 L 593.10705 700.37544 L 592.39478 700.68625 L 572.94909 707.00454 L 571.55364 707.19713 L 570.17796 706.89403 L 568.99266 706.13282 L 568.47695 705.55145 L 558.16706 691.3611 L 544.24923 695.88327 L 544.24923 713.42351 L 544.00118 714.81018 L 543.28781 716.02487 L 542.19757 716.91693 L 541.4853 717.22774 L 524.80354 722.64797 L 524.80354 737.28204 L 541.4853 742.70227 L 542.72745 743.36668 L 543.66224 744.42051 L 544.17374 745.73304 L 544.24923 746.5065 L 544.24923 764.04674 L 558.16706 768.56891 L 568.47695 754.37856 L 569.49269 753.40252 L 570.7838 752.83913 L 572.19015 752.75826 L 572.94909 752.92547 L 589.63085 758.3457 L 598.23254 746.5065 L 587.92264 732.31614 L 587.30825 731.0485 L 587.17141 729.64649 L 587.52909 728.28397 L 587.92264 727.61386 L 599.94074 711.07237 L 600.95648 710.09633 L 602.24759 709.53294 L 603.65395 709.45207 L 604.41288 709.61928 L 621.09464 715.03951 L 631.40453 700.84917 L 632.42027 699.87313 L 633.71138 699.30974 L 635.11774 699.22887 L 635.87667 699.39608 L 655.32236 705.71436 L 656.56451 706.37877 L 657.4993 707.43259 L 658.0108 708.74513 L 658.08629 709.51859 L 658.08629 727.05883 L 674.76805 732.47906 L 676.0102 733.14347 L 676.94499 734.1973 L 677.45649 735.50983 L 677.53198 736.28329 L 677.53198 756.7297 L 677.28393 758.11637 L 676.57056 759.33106 L 675.48032 760.22312 L 674.76805 760.53393 L 658.08629 765.95416 L 658.08629 780.58823 L 674.76805 786.00846 L 676.0102 786.67287 L 676.94499 787.7267 L 677.45649 789.03923 L 677.53198 789.81269 L 677.53198 807.35293 L 691.44981 811.8751 L 701.7597 797.68475 L 702.77544 796.70871 L 704.06655 796.14532 L 705.4729 796.06445 L 706.23184 796.23166 L 722.9136 801.65189 L 731.51529 789.81269 L 721.20539 775.62234 L 720.92834 775.05071 L 720.63148 774.48941 L 720.62208 774.41883 L 720.591 774.35471 L 720.52929 773.72249 L 720.44543 773.09308 L 720.46108 773.0236 L 720.45416 772.95269 L 720.61543 772.33837 L 720.75498 771.71883 L 720.79376 771.65907 L 720.81184 771.59018 L 721.20539 770.92006 L 731.51529 756.7297 L 722.9136 744.8905 L 706.23184 750.31073 L 705.91481 750.35448 L 705.61224 750.45871 L 705.22252 750.45003 L 704.83639 750.50332 L 704.52389 750.43447 L 704.20391 750.42734 L 703.84134 750.28408 L 703.46071 750.20022 L 703.19146 750.0273 L 702.89379 749.90969 L 702.60337 749.64963 L 702.27541 749.43901 L 701.91717 749.03516 L 701.84437 748.96997 L 701.82226 748.92817 L 701.7597 748.85764 L 689.7416 732.31614 L 689.46457 731.74456 L 689.16769 731.18321 L 689.15828 731.11261 L 689.12721 731.0485 L 689.06551 730.41631 L 688.98164 729.78688 L 688.99729 729.7174 L 688.99037 729.64649 L 689.15165 729.03214 L 689.29119 728.41263 L 689.32996 728.35288 L 689.34805 728.28397 L 689.7416 727.61386 L 700.0515 713.42351 L 689.7416 699.23316 L 689.46455 698.66153 L 689.16769 698.10023 L 689.15829 698.02965 L 689.12721 697.96553 L 689.0655 697.33331 L 688.98164 696.7039 L 688.99729 696.63442 L 688.99037 696.56351 L 689.15164 695.94919 L 689.29119 695.32965 L 689.32997 695.26989 L 689.34805 695.201 L 689.7416 694.53088 L 701.7597 677.98939 L 701.93997 677.81617 L 702.07605 677.60644 L 702.4442 677.33164 L 702.77544 677.01335 L 703.00457 676.91337 L 703.20492 676.76382 L 703.64551 676.63369 L 704.06655 676.44996 L 704.31613 676.43561 L 704.5559 676.36479 L 705.01429 676.39546 L 705.47291 676.36909 L 705.84486 676.45104 L 705.96144 676.45884 L 706.04014 676.49406 L 706.23184 676.5363 L 722.9136 681.95652 L 733.22349 667.76618 L 733.40376 667.59296 L 733.53984 667.38323 L 733.90799 667.10843 L 734.23923 666.79014 L 734.46836 666.69016 L 734.66871 666.54061 L 735.1093 666.41048 L 735.53034 666.22675 L 735.77992 666.2124 L 736.01969 666.14158 L 736.47808 666.17225 L 736.9367 666.14588 L 737.30865 666.22783 L 737.42523 666.23563 L 737.50393 666.27085 L 737.69563 666.31309 L 757.14132 672.63138 L 757.64028 672.89827 L 758.15669 673.1294 L 758.25819 673.22878 L 758.38347 673.29579 L 758.75893 673.71907 L 759.16323 674.11492 L 759.19319 674.20862 L 759.31826 674.34962 L 759.82976 675.66215 L 759.90525 676.43561 L 759.90525 693.97585 L 773.82308 698.49802 L 784.13297 684.30767 L 784.31324 684.13445 L 784.44932 683.92472 L 784.81747 683.64992 L 785.14871 683.33163 L 785.37784 683.23165 L 785.57819 683.0821 L 786.01878 682.95197 L 786.43982 682.76824 L 786.6894 682.75389 L 786.92917 682.68307 L 787.38755 682.71374 L 787.84617 682.68737 L 788.21812 682.76932 L 788.33471 682.77712 L 788.41341 682.81234 L 788.60511 682.85458 L 805.28687 688.27481 L 813.88856 676.43561 L 803.57866 662.24526 L 802.96427 660.97763 L 802.82743 659.57561 L 803.18511 658.2131 L 803.57866 657.54298 L 813.88856 643.35262 L 805.28687 631.51342 L 788.60511 636.93365 L 787.20966 637.12624 L 785.83398 636.82314 L 784.64868 636.06193 L 784.13297 635.48056 L 773.82308 621.29021 L 759.90525 625.81238 L 759.90525 643.35262 L 759.6572 644.73929 L 758.94383 645.95398 L 757.85359 646.84604 L 757.14132 647.15685 L 737.69563 653.47514 L 736.30018 653.66773 L 734.9245 653.36463 L 733.7392 652.60342 L 733.22349 652.02205 L 722.9136 637.83171 L 706.23184 643.25194 L 704.83639 643.44453 L 703.46071 643.14143 L 702.27541 642.38022 L 701.7597 641.79885 L 689.7416 625.25735 L 689.12721 623.98971 L 688.99037 622.5877 L 689.34805 621.22518 L 689.7416 620.55507 L 700.0515 606.36472 L 689.7416 592.17437 L 689.12721 590.90674 L 688.99037 589.50472 L 689.34805 588.14221 L 689.7416 587.47209 L 701.7597 570.93059 L 702.77544 569.95455 L 704.06655 569.39116 L 705.4729 569.31029 L 706.23184 569.4775 L 722.9136 574.89773 L 731.51529 563.05853 L 721.20539 548.86817 L 720.591 547.60053 L 720.45416 546.19852 L 720.81184 544.836 L 721.20539 544.16589 L 731.51529 529.97554 L 722.9136 518.13634 L 706.23184 523.55657 L 704.83639 523.74916 L 703.46071 523.44606 L 702.27541 522.68485 L 701.7597 522.10348 L 691.44981 507.91313 Z M 493.33975 572.28299 L 493.33975 589.82323 L 493.0917 591.2099 L 492.37833 592.42459 L 491.28809 593.31665 L 490.57582 593.62746 L 473.89406 599.04769 L 473.89406 613.68175 L 490.57582 619.10198 L 491.07478 619.36887 L 491.59119 619.6 L 491.69269 619.69938 L 491.81797 619.76639 L 492.19343 620.18967 L 492.59773 620.58552 L 492.62769 620.67922 L 492.75276 620.82022 L 493.26426 622.13275 L 493.33975 622.90621 L 493.33975 643.35262 L 493.0917 644.73929 L 492.37833 645.95398 L 491.28809 646.84604 L 490.57582 647.15685 L 473.89406 652.57708 L 473.89406 667.21115 L 490.57582 672.63138 L 491.81797 673.29579 L 492.75276 674.34962 L 493.26426 675.66215 L 493.33975 676.43561 L 493.33975 696.88202 L 493.0917 698.26869 L 492.37833 699.48338 L 491.28809 700.37544 L 490.57582 700.68625 L 473.89406 706.10648 L 473.89406 720.74054 L 490.57582 726.16077 L 491.81797 726.82518 L 492.75276 727.879 L 493.26426 729.19154 L 493.33975 729.965 L 493.33975 747.50524 L 507.25758 752.02741 L 516.80354 738.88853 L 516.80354 719.7418 L 517.05159 718.35513 L 517.76496 717.14044 L 518.8552 716.24838 L 519.56747 715.93757 L 536.24923 710.51734 L 536.24923 692.9771 L 536.49728 691.59043 L 537.21065 690.37574 L 538.30089 689.48368 L 539.01316 689.17287 L 558.45885 682.85458 L 559.8543 682.66199 L 561.22998 682.96509 L 562.41528 683.7263 L 562.93099 684.30767 L 573.24088 698.49802 L 587.15871 693.97585 L 587.15871 676.43561 L 587.40676 675.04894 L 588.12013 673.83425 L 589.21037 672.94219 L 589.92264 672.63138 L 606.6044 667.21115 L 606.6044 652.57708 L 589.92264 647.15685 L 588.68049 646.49244 L 587.7457 645.43861 L 587.2342 644.12608 L 587.15871 643.35262 L 587.15871 625.81238 L 573.24088 621.29021 L 562.93099 635.48056 L 561.91525 636.4566 L 560.62414 637.01999 L 559.21779 637.10086 L 558.45885 636.93365 L 539.01316 630.61536 L 537.77101 629.95095 L 536.83622 628.89712 L 536.32472 627.58459 L 536.24923 626.81113 L 536.24923 609.27089 L 519.56747 603.85066 L 518.32532 603.18625 L 517.39053 602.13242 L 516.87903 600.81989 L 516.80354 600.04643 L 516.80354 580.8997 L 507.25758 567.76082 Z M 728.44146 495.89381 L 728.44146 512.13437 L 739.69563 527.6244 L 740.31002 528.89203 L 740.44686 530.29405 L 740.08918 531.65656 L 739.69563 532.32668 L 729.38573 546.51703 L 739.69563 560.70739 L 740.31002 561.97503 L 740.44686 563.37704 L 740.08918 564.73956 L 739.69563 565.40967 L 727.67753 581.95116 L 726.66179 582.9272 L 725.37068 583.49059 L 723.96432 583.57146 L 723.20539 583.40425 L 706.52363 577.98402 L 697.92194 589.82323 L 708.23184 604.01358 L 708.84623 605.28121 L 708.98307 606.68323 L 708.62539 608.04574 L 708.23184 608.71586 L 697.92194 622.90621 L 706.52363 634.74542 L 723.20539 629.32519 L 724.60084 629.1326 L 725.97652 629.4357 L 727.16182 630.19691 L 727.67753 630.77828 L 737.98742 644.96862 L 751.90525 640.44645 L 751.90525 622.90621 L 752.1533 621.51954 L 752.86667 620.30485 L 753.95691 619.41279 L 754.66918 619.10198 L 774.11487 612.78369 L 775.51032 612.5911 L 776.886 612.8942 L 778.0713 613.65541 L 778.58701 614.23678 L 788.8969 628.42713 L 805.57866 623.0069 L 806.97411 622.81431 L 808.34979 623.11741 L 809.53509 623.87862 L 810.0508 624.45999 L 821.30496 639.95001 L 836.75066 644.96862 L 845.35235 633.12942 L 835.04245 618.93906 L 834.76542 618.36748 L 834.46854 617.80613 L 834.45913 617.73553 L 834.42806 617.67142 L 834.36636 617.03923 L 834.28249 616.4098 L 834.29814 616.34032 L 834.29122 616.26941 L 834.4525 615.65506 L 834.59204 615.03555 L 834.63081 614.9758 L 834.6489 614.90689 L 835.04245 614.23678 L 845.35235 600.04643 L 836.75066 588.20723 L 820.0689 593.62746 L 819.75187 593.67121 L 819.4493 593.77544 L 819.05958 593.76676 L 818.67345 593.82005 L 818.36095 593.7512 L 818.04097 593.74407 L 817.6784 593.60081 L 817.29777 593.51695 L 817.02852 593.34403 L 816.73085 593.22642 L 816.44043 592.96636 L 816.11247 592.75574 L 815.75423 592.35189 L 815.68143 592.2867 L 815.65932 592.2449 L 815.59676 592.17437 L 803.57866 575.63287 L 803.30163 575.06129 L 803.00475 574.49994 L 802.99534 574.42934 L 802.96427 574.36523 L 802.90257 573.73304 L 802.8187 573.10361 L 802.83435 573.03413 L 802.82743 572.96322 L 802.98871 572.34887 L 803.12825 571.72936 L 803.16702 571.66961 L 803.18511 571.6007 L 803.57866 570.93059 L 813.88856 556.74024 L 805.28687 544.90104 L 788.60511 550.32126 L 788.28808 550.36501 L 787.98551 550.46924 L 787.59579 550.46056 L 787.20966 550.51385 L 786.89716 550.445 L 786.57718 550.43787 L 786.21462 550.29462 L 785.83397 550.21075 L 785.5647 550.03782 L 785.26706 549.92022 L 784.97667 549.66018 L 784.64867 549.44954 L 784.29043 549.04568 L 784.21764 548.9805 L 784.19553 548.9387 L 784.13297 548.86817 L 772.11487 532.32668 L 771.83782 531.75505 L 771.54096 531.19375 L 771.53156 531.12317 L 771.50048 531.05905 L 771.43877 530.42683 L 771.35491 529.79742 L 771.37056 529.72794 L 771.36364 529.65703 L 771.52491 529.04271 L 771.66446 528.42317 L 771.70324 528.36341 L 771.72132 528.29452 L 772.11487 527.6244 L 782.42477 513.43405 L 773.82308 501.59484 L 757.14132 507.01507 L 756.82429 507.05882 L 756.52172 507.16305 L 756.132 507.15437 L 755.74587 507.20766 L 755.43337 507.13881 L 755.11339 507.13168 L 754.75082 506.98842 L 754.37019 506.90456 L 754.10094 506.73164 L 753.80327 506.61403 L 753.51285 506.35397 L 753.18489 506.14335 L 752.82665 505.7395 L 752.75385 505.67431 L 752.73174 505.63251 L 752.66918 505.56198 L 742.35929 491.37164 Z M 646.06819 469.12911 L 646.06819 486.66935 L 645.82014 488.05602 L 645.10677 489.27071 L 644.01653 490.16277 L 643.30426 490.47358 L 623.85857 496.79187 L 622.46312 496.98446 L 621.08744 496.68136 L 619.90214 495.92015 L 619.38643 495.33878 L 609.07654 481.14843 L 595.15871 485.6706 L 595.15871 503.21084 L 594.91066 504.59751 L 594.19729 505.8122 L 593.10705 506.70426 L 592.39478 507.01507 L 572.94909 513.33336 L 571.55364 513.52595 L 570.17796 513.22285 L 568.99266 512.46164 L 568.47695 511.88027 L 558.16706 497.68993 L 544.24923 502.2121 L 544.24923 519.75234 L 544.00118 521.13901 L 543.28781 522.3537 L 542.19757 523.24576 L 541.4853 523.55657 L 524.80354 528.9768 L 524.80354 543.61086 L 540.24923 548.62947 L 558.45885 542.7128 L 558.86341 542.65697 L 559.25505 542.54129 L 559.55576 542.56141 L 559.8543 542.52021 L 560.25308 542.60807 L 560.66059 542.63534 L 560.9357 542.75847 L 561.22998 542.82331 L 561.57358 543.04397 L 561.94636 543.21082 L 562.16172 543.42168 L 562.41528 543.58452 L 562.93099 544.16589 L 573.24088 558.35624 L 589.92264 552.93601 L 590.3272 552.88018 L 590.71884 552.7645 L 591.01955 552.78462 L 591.31809 552.74342 L 591.71687 552.83128 L 592.12438 552.85855 L 592.39949 552.98168 L 592.69377 553.04652 L 593.03737 553.26718 L 593.41015 553.43403 L 593.62551 553.64489 L 593.87907 553.80773 L 594.39478 554.3891 L 606.41288 570.93059 L 606.42118 570.94771 L 606.43479 570.96104 L 606.44865 571.0044 L 607.02727 572.19822 L 607.11378 573.08461 L 607.17681 573.28173 L 607.14848 573.4401 L 607.16411 573.60024 L 607.02513 574.12964 L 606.92876 574.6684 L 606.84728 574.80714 L 606.80643 574.96275 L 606.41288 575.63287 L 596.10298 589.82323 L 604.70467 601.66243 L 621.38643 596.2422 L 621.79099 596.18637 L 622.18263 596.07069 L 622.48334 596.09081 L 622.78188 596.04961 L 623.18066 596.13747 L 623.58817 596.16474 L 623.86328 596.28787 L 624.15756 596.35271 L 624.50116 596.57337 L 624.87394 596.74022 L 625.0893 596.95108 L 625.34286 597.11392 L 625.85857 597.69529 L 636.16846 611.88563 L 650.08629 607.36346 L 650.08629 589.82323 L 650.10217 589.73447 L 650.09026 589.64511 L 650.22576 589.04357 L 650.33434 588.43656 L 650.38 588.35882 L 650.39981 588.27086 L 650.73541 587.75363 L 651.04771 587.22187 L 651.1175 587.16477 L 651.16657 587.08914 L 651.66069 586.72031 L 652.13795 586.32981 L 652.24846 586.28159 L 652.29544 586.24652 L 652.39875 586.21601 L 652.85022 586.019 L 669.53198 580.59877 L 669.53198 565.9647 L 652.85022 560.54447 L 652.42878 560.31905 L 651.98431 560.14343 L 651.81202 559.98915 L 651.60807 559.88006 L 651.29092 559.52252 L 650.93489 559.20371 L 650.82676 558.99925 L 650.67328 558.82623 L 650.49974 558.38091 L 650.27631 557.95845 L 650.24577 557.72921 L 650.16178 557.5137 L 650.08629 556.74024 L 650.08629 536.29383 L 650.10217 536.20507 L 650.09026 536.11571 L 650.22576 535.51417 L 650.33434 534.90716 L 650.38 534.82942 L 650.39981 534.74146 L 650.73541 534.22423 L 651.04771 533.69247 L 651.1175 533.63537 L 651.16657 533.55974 L 651.66069 533.19091 L 652.13795 532.80041 L 652.24846 532.75219 L 652.29544 532.71712 L 652.39875 532.68661 L 652.85022 532.4896 L 669.53198 527.06937 L 669.53198 509.52913 L 669.54786 509.44037 L 669.53595 509.35101 L 669.67145 508.74947 L 669.78003 508.14246 L 669.82569 508.06472 L 669.8455 507.97676 L 670.1811 507.45953 L 670.4934 506.92777 L 670.56319 506.87067 L 670.61226 506.79504 L 671.10638 506.42621 L 671.58364 506.03571 L 671.69415 505.98749 L 671.74113 505.95242 L 671.84444 505.92191 L 672.29591 505.7249 L 690.50554 499.80823 L 700.0515 486.66935 L 691.44981 474.83015 L 674.76805 480.25037 L 673.3726 480.44296 L 671.99691 480.13986 L 670.81161 479.37865 L 670.29591 478.79728 L 659.98602 464.60694 Z" stroke-miterlimit="10"/></g></svg>