  0
SECTION
  2
HEADER
  9
$ACADVER
  1
AC1014
  9
$HANDSEED
  5
FFFF
  9
$INSUNITS
 70
     4
  9
$MEASUREMENT
 70
     1
  0
ENDSEC
  0
SECTION
  2
TABLES
  0
TABLE
  2
VPORT
  5
8
330
0
100
AcDbSymbolTable
 70
     4
  0
VPORT
  5
2E
330
8
100
AcDbSymbolTableRecord
100
AcDbViewportTableRecord
  2
*ACTIVE
 70
     0
 10
0.0
 20
0.0
 11
1.0
 21
1.0
 12
210.0
 22
148.5
 13
0.0
 23
0.0
 14
10.0
 24
10.0
 15
10.0
 25
10.0
 16
0.0
 26
0.0
 36
1.0
 17
0.0
 27
0.0
 37
0.0
 40
341.0
 41
1.24
 42
50.0
 43
0.0
 44
0.0
 50
0.0
 51
0.0
 71
     0
 72
   100
 73
     1
 74
     3
 75
     0
 76
     0
 77
     0
 78
     0
  0
ENDTAB
  0
TABLE
  2
LTYPE
  5
5
330
0
100
AcDbSymbolTable
 70
     1
  0
LTYPE
  5
14
330
5
100
AcDbSymbolTableRecord
100
AcDbLinetypeTableRecord
  2
BYBLOCK
 70
     0
  3

 72
    65
 73
     0
 40
0.0
  0
LTYPE
  5
15
330
5
100
AcDbSymbolTableRecord
100
AcDbLinetypeTableRecord
  2
BYLAYER
 70
     0
  3

 72
    65
 73
     0
 40
0.0
  0
LTYPE
  5
16
330
5
100
AcDbSymbolTableRecord
100
AcDbLinetypeTableRecord
  2
CONTINUOUS
 70
     0
  3
Solid line
 72
    65
 73
     0
 40
0.0
  0
ENDTAB
  0
TABLE
  2
LAYER
  5
2
100
AcDbSymbolTable
 70
5
  0
LAYER
  5
50
100
AcDbSymbolTableRecord
100
AcDbLayerTableRecord
  2
0
 70
0
  6
CONTINUOUS
  0
LAYER
  5
51
100
AcDbSymbolTableRecord
100
AcDbLayerTableRecord
  2
Layer_1
 70
0
  6
CONTINUOUS
  0
LAYER
  5
52
100
AcDbSymbolTableRecord
100
AcDbLayerTableRecord
  2
Layer_2
 70
0
  6
CONTINUOUS
  0
LAYER
  5
53
100
AcDbSymbolTableRecord
100
AcDbLayerTableRecord
  2
Layer_3
 70
0
  6
CONTINUOUS
  0
LAYER
  5
54
100
AcDbSymbolTableRecord
100
AcDbLayerTableRecord
  2
Layer_4
 70
0
  6
CONTINUOUS
  0
ENDTAB
  0
TABLE
  2
STYLE
  5
3
330
0
100
AcDbSymbolTable
 70
     1
  0
STYLE
  5
11
330
3
100
AcDbSymbolTableRecord
100
AcDbTextStyleTableRecord
  2
STANDARD
 70
     0
 40
0.0
 41
1.0
 50
0.0
 71
     0
 42
2.5
  3
txt
  4

  0
ENDTAB
  0
TABLE
  2
VIEW
  5
6
330
0
100
AcDbSymbolTable
 70
     0
  0
ENDTAB
  0
TABLE
  2
UCS
  5
7
330
0
100
AcDbSymbolTable
 70
     0
  0
ENDTAB
  0
TABLE
  2
APPID
  5
9
330
0
100
AcDbSymbolTable
 70
     2
  0
APPID
  5
12
330
9
100
AcDbSymbolTableRecord
100
AcDbRegAppTableRecord
  2
ACAD
 70
     0
  0
ENDTAB
  0
TABLE
  2
DIMSTYLE
  5
A
330
0
100
AcDbSymbolTable
 70
     1
  0
DIMSTYLE
105
27
330
A
100
AcDbSymbolTableRecord
100
AcDbDimStyleTableRecord
  2
ISO-25
 70
     0
  3

  4

  5

  6

  7

 40
1.0
 41
2.5
 42
0.625
 43
3.75
 44
1.25
 45
0.0
 46
0.0
 47
0.0
 48
0.0
140
2.5
141
2.5
142
0.0
143
0.03937007874016
144
1.0
145
0.0
146
1.0
147
0.625
 71
     0
 72
     0
 73
     0
 74
     0
 75
     0
 76
     0
 77
     1
 78
     8
170
     0
171
     3
172
     1
173
     0
174
     0
175
     0
176
     0
177
     0
178
     0
270
     2
271
     2
272
     2
273
     2
274
     3
340
11
275
     0
280
     0
281
     0
282
     0
283
     0
284
     8
285
     0
286
     0
287
     3
288
     0
  0
ENDTAB
  0
TABLE
  2
BLOCK_RECORD
  5
1
330
0
100
AcDbSymbolTable
 70
     1
  0
BLOCK_RECORD
  5
1F
330
1
100
AcDbSymbolTableRecord
100
AcDbBlockTableRecord
  2
*MODEL_SPACE
  0
BLOCK_RECORD
  5
1B
330
1
100
AcDbSymbolTableRecord
100
AcDbBlockTableRecord
  2
*PAPER_SPACE
  0
ENDTAB
  0
ENDSEC
  0
SECTION
  2
BLOCKS
  0
BLOCK
  5
20
330
1F
100
AcDbEntity
  8
0
100
AcDbBlockBegin
  2
*MODEL_SPACE
 70
     0
 10
0.0
 20
0.0
 30
0.0
  3
*MODEL_SPACE
  1

  0
ENDBLK
  5
21
330
1F
100
AcDbEntity
  8
0
100
AcDbBlockEnd
  0
BLOCK
  5
1C
330
1B
100
AcDbEntity
 67
     1
  8
0
100
AcDbBlockBegin
  2
*PAPER_SPACE
  1

  0
ENDBLK
  5
1D
330
1B
100
AcDbEntity
 67
     1
  8
0
100
AcDbBlockEnd
  0
ENDSEC
  0
SECTION
  2
ENTITIES
  0
LWPOLYLINE
  5
100
100
AcDbEntity
  8
Layer_2
 62
7
100
AcDbPolyline
 90
255
 70
1
 10
125.503768
 20
172.786170
 30
0.0
 10
125.923297
 20
172.604748
 30
0.0
 10
126.374303
 20
172.186653
 30
0.0
 10
130.978481
 20
165.849543
 30
0.0
 10
131.191111
 20
165.444935
 30
0.0
 10
131.279646
 20
164.996516
 30
0.0
 10
131.273481
 20
164.931085
 30
0.0
 10
131.512146
 20
165.201933
 30
0.0
 10
132.049147
 20
165.501667
 30
0.0
 10
139.498866
 20
167.922226
 30
0.0
 10
139.949378
 20
167.999418
 30
0.0
 10
140.403210
 20
167.945049
 30
0.0
 10
140.822738
 20
167.763627
 30
0.0
 10
141.273744
 20
167.345532
 30
0.0
 10
145.877923
 20
161.008422
 30
0.0
 10
145.928808
 20
160.911593
 30
0.0
 10
145.993720
 20
160.823540
 30
0.0
 10
146.034572
 20
160.710338
 30
0.0
 10
146.090553
 20
160.603814
 30
0.0
 10
146.111746
 20
160.496501
 30
0.0
 10
146.148880
 20
160.393600
 30
0.0
 10
146.155786
 20
160.273455
 30
0.0
 10
146.179096
 20
160.155395
 30
0.0
 10
146.168830
 20
160.046482
 30
0.0
 10
146.175100
 20
159.937275
 30
0.0
 10
146.147488
 20
159.820155
 30
0.0
 10
146.136191
 20
159.700336
 30
0.0
 10
146.095318
 20
159.598865
 30
0.0
 10
146.070209
 20
159.492394
 30
0.0
 10
146.003449
 20
159.370813
 30
0.0
 10
145.965402
 20
159.276362
 30
0.0
 10
145.920762
 20
159.220228
 30
0.0
 10
145.877918
 20
159.142205
 30
0.0
 10
141.951681
 20
153.738204
 30
0.0
 10
145.199973
 20
149.267312
 30
0.0
 10
151.552759
 20
151.331456
 30
0.0
 10
152.003271
 20
151.408649
 30
0.0
 10
152.457102
 20
151.354279
 30
0.0
 10
152.876631
 20
151.172857
 30
0.0
 10
153.327637
 20
150.754763
 30
0.0
 10
157.931816
 20
144.417653
 30
0.0
 10
158.144445
 20
144.013044
 30
0.0
 10
158.232980
 20
143.564626
 30
0.0
 10
158.190081
 20
143.109566
 30
0.0
 10
157.931816
 20
142.551436
 30
0.0
 10
154.005579
 20
137.147435
 30
0.0
 10
157.253871
 20
132.676543
 30
0.0
 10
163.606657
 20
134.740690
 30
0.0
 10
164.057169
 20
134.817882
 30
0.0
 10
164.511000
 20
134.763513
 30
0.0
 10
164.930529
 20
134.582090
 30
0.0
 10
165.381535
 20
134.163996
 30
0.0
 10
169.985716
 20
127.826886
 30
0.0
 10
170.198346
 20
127.422280
 30
0.0
 10
170.286881
 20
126.973859
 30
0.0
 10
170.243982
 20
126.518800
 30
0.0
 10
169.985716
 20
125.960669
 30
0.0
 10
165.381535
 20
119.623557
 30
0.0
 10
165.062437
 20
119.296302
 30
0.0
 10
164.663321
 20
119.073533
 30
0.0
 10
164.599183
 20
119.059193
 30
0.0
 10
164.930529
 20
118.915905
 30
0.0
 10
165.381535
 20
118.497810
 30
0.0
 10
169.985716
 20
112.160701
 30
0.0
 10
170.198346
 20
111.756095
 30
0.0
 10
170.286881
 20
111.307674
 30
0.0
 10
170.243982
 20
110.852614
 30
0.0
 10
169.985716
 20
110.294483
 30
0.0
 10
165.381535
 20
103.957374
 30
0.0
 10
165.062437
 20
103.630119
 30
0.0
 10
164.663321
 20
103.407348
 30
0.0
 10
164.217279
 20
103.307528
 30
0.0
 10
163.606657
 20
103.380680
 30
0.0
 10
157.253871
 20
105.444827
 30
0.0
 10
154.005579
 20
100.973932
 30
0.0
 10
157.931816
 20
95.569932
 30
0.0
 10
158.144445
 20
95.165323
 30
0.0
 10
158.232980
 20
94.716904
 30
0.0
 10
158.190081
 20
94.261845
 30
0.0
 10
157.931816
 20
93.703714
 30
0.0
 10
153.327637
 20
87.366605
 30
0.0
 10
153.008539
 20
87.039349
 30
0.0
 10
152.609426
 20
86.816581
 30
0.0
 10
152.163380
 20
86.716759
 30
0.0
 10
151.552759
 20
86.789911
 30
0.0
 10
145.199973
 20
88.854058
 30
0.0
 10
141.951681
 20
84.383166
 30
0.0
 10
145.877918
 20
78.979165
 30
0.0
 10
146.090547
 20
78.574556
 30
0.0
 10
146.179082
 20
78.126138
 30
0.0
 10
146.136183
 20
77.671078
 30
0.0
 10
145.877918
 20
77.112947
 30
0.0
 10
141.273739
 20
70.775835
 30
0.0
 10
140.954641
 20
70.448580
 30
0.0
 10
140.555528
 20
70.225812
 30
0.0
 10
140.109482
 20
70.125990
 30
0.0
 10
139.498861
 20
70.199142
 30
0.0
 10
132.049142
 20
72.619703
 30
0.0
 10
131.639297
 20
72.822057
 30
0.0
 10
131.304096
 20
73.132799
 30
0.0
 10
131.270626
 20
73.189362
 30
0.0
 10
131.236744
 20
72.829954
 30
0.0
 10
130.978479
 20
72.271824
 30
0.0
 10
126.374300
 20
65.934714
 30
0.0
 10
126.055202
 20
65.607459
 30
0.0
 10
125.656089
 20
65.384691
 30
0.0
 10
125.210043
 20
65.284869
 30
0.0
 10
124.599422
 20
65.358021
 30
0.0
 10
117.149703
 20
67.778582
 30
0.0
 10
116.739858
 20
67.980936
 30
0.0
 10
116.404657
 20
68.291678
 30
0.0
 10
116.171887
 20
68.685045
 30
0.0
 10
116.052767
 20
69.288385
 30
0.0
 10
116.052767
 20
75.968098
 30
0.0
 10
110.796917
 20
77.675827
 30
0.0
 10
106.870680
 20
72.271824
 30
0.0
 10
106.551582
 20
71.944569
 30
0.0
 10
106.152466
 20
71.721800
 30
0.0
 10
105.706423
 20
71.621978
 30
0.0
 10
105.095802
 20
71.695130
 30
0.0
 10
97.646083
 20
74.115692
 30
0.0
 10
97.236238
 20
74.318045
 30
0.0
 10
96.901037
 20
74.628788
 30
0.0
 10
96.668267
 20
75.022154
 30
0.0
 10
96.549146
 20
75.625494
 30
0.0
 10
96.549146
 20
82.305207
 30
0.0
 10
91.293296
 20
84.012937
 30
0.0
 10
87.367062
 20
78.608936
 30
0.0
 10
87.047964
 20
78.281681
 30
0.0
 10
86.648851
 20
78.058912
 30
0.0
 10
86.202806
 20
77.959090
 30
0.0
 10
85.592184
 20
78.032242
 30
0.0
 10
78.142465
 20
80.452801
 30
0.0
 10
77.732620
 20
80.655155
 30
0.0
 10
77.397419
 20
80.965895
 30
0.0
 10
77.164650
 20
81.359264
 30
0.0
 10
77.045529
 20
81.962604
 30
0.0
 10
77.045529
 20
89.795702
 30
0.0
 10
77.111331
 20
90.248018
 30
0.0
 10
77.303278
 20
90.662837
 30
0.0
 10
77.346728
 20
90.712147
 30
0.0
 10
76.994446
 20
90.633309
 30
0.0
 10
76.383825
 20
90.706461
 30
0.0
 10
68.934105
 20
93.127020
 30
0.0
 10
68.524260
 20
93.329374
 30
0.0
 10
68.189060
 20
93.640114
 30
0.0
 10
67.956290
 20
94.033483
 30
0.0
 10
67.837169
 20
94.636823
 30
0.0
 10
67.837169
 20
102.469924
 30
0.0
 10
67.852912
 20
102.578170
 30
0.0
 10
67.852118
 20
102.687562
 30
0.0
 10
67.885609
 20
102.803158
 30
0.0
 10
67.902939
 20
102.922239
 30
0.0
 10
67.948873
 20
103.021511
 30
0.0
 10
67.979316
 20
103.126588
 30
0.0
 10
68.044351
 20
103.227844
 30
0.0
 10
68.094886
 20
103.337058
 30
0.0
 10
68.167210
 20
103.419135
 30
0.0
 10
68.226324
 20
103.511173
 30
0.0
 10
68.317510
 20
103.589701
 30
0.0
 10
68.397072
 20
103.679993
 30
0.0
 10
68.489782
 20
103.738058
 30
0.0
 10
68.572668
 20
103.809440
 30
0.0
 10
68.698136
 20
103.868559
 30
0.0
 10
68.784441
 20
103.922613
 30
0.0
 10
68.853555
 20
103.941795
 30
0.0
 10
68.934073
 20
103.979734
 30
0.0
 10
75.286857
 20
106.043878
 30
0.0
 10
75.286857
 20
111.570204
 30
0.0
 10
68.934073
 20
113.634348
 30
0.0
 10
68.524228
 20
113.836701
 30
0.0
 10
68.189028
 20
114.147444
 30
0.0
 10
67.956258
 20
114.540811
 30
0.0
 10
67.837137
 20
115.144150
 30
0.0
 10
67.837137
 20
122.977227
 30
0.0
 10
67.841344
 20
123.006205
 30
0.0
 10
67.838196
 20
123.035311
 30
0.0
 10
67.874171
 20
123.231828
 30
0.0
 10
67.902934
 20
123.429543
 30
0.0
 10
67.915237
 20
123.456115
 30
0.0
 10
67.920502
 20
123.484918
 30
0.0
 10
68.010979
 20
123.663038
 30
0.0
 10
68.094881
 20
123.844362
 30
0.0
 10
68.114249
 20
123.866323
 30
0.0
 10
68.127504
 20
123.892437
 30
0.0
 10
68.264966
 20
124.037381
 30
0.0
 10
68.397072
 20
124.187299
 30
0.0
 10
68.418477
 20
124.199258
 30
0.0
 10
68.442025
 20
124.224103
 30
0.0
 10
68.838011
 20
124.452388
 30
0.0
 10
68.897272
 20
124.466517
 30
0.0
 10
68.934063
 20
124.487048
 30
0.0
 10
75.286846
 20
126.551193
 30
0.0
 10
75.286846
 20
132.077518
 30
0.0
 10
68.934063
 20
134.141662
 30
0.0
 10
68.524218
 20
134.344016
 30
0.0
 10
68.189017
 20
134.654756
 30
0.0
 10
67.956247
 20
135.048125
 30
0.0
 10
67.837127
 20
135.651465
 30
0.0
 10
67.837127
 20
143.484563
 30
0.0
 10
67.902929
 20
143.936879
 30
0.0
 10
68.094876
 20
144.351698
 30
0.0
 10
68.397062
 20
144.694632
 30
0.0
 10
68.934063
 20
144.994365
 30
0.0
 10
76.383782
 20
147.414927
 30
0.0
 10
76.834294
 20
147.492119
 30
0.0
 10
77.288125
 20
147.437750
 30
0.0
 10
77.348448
 20
147.411662
 30
0.0
 10
77.164607
 20
147.722341
 30
0.0
 10
77.045487
 20
148.325681
 30
0.0
 10
77.045487
 20
156.158766
 30
0.0
 10
77.111288
 20
156.611082
 30
0.0
 10
77.303236
 20
157.025901
 30
0.0
 10
77.605422
 20
157.368835
 30
0.0
 10
78.142423
 20
157.668569
 30
0.0
 10
85.592142
 20
160.089128
 30
0.0
 10
85.699960
 20
160.107596
 30
0.0
 10
85.803761
 20
160.142121
 30
0.0
 10
85.924043
 20
160.145984
 30
0.0
 10
86.042653
 20
160.166304
 30
0.0
 10
86.151262
 20
160.153287
 30
0.0
 10
86.260601
 20
160.156805
 30
0.0
 10
86.377005
 20
160.126243
 30
0.0
 10
86.496485
 20
160.111929
 30
0.0
 10
86.596881
 20
160.068514
 30
0.0
 10
86.702694
 20
160.040733
 30
0.0
 10
86.805569
 20
159.978270
 30
0.0
 10
86.916014
 20
159.930507
 30
0.0
 10
86.999879
 20
159.860287
 30
0.0
 10
87.093391
 20
159.803507
 30
0.0
 10
87.188389
 20
159.702444
 30
0.0
 10
87.266465
 20
159.637071
 30
0.0
 10
87.306057
 20
159.577267
 30
0.0
 10
87.367020
 20
159.512413
 30
0.0
 10
91.293254
 20
154.108412
 30
0.0
 10
96.549104
 20
155.816141
 30
0.0
 10
96.549104
 20
162.495854
 30
0.0
 10
96.614906
 20
162.948170
 30
0.0
 10
96.806853
 20
163.362989
 30
0.0
 10
97.109039
 20
163.705924
 30
0.0
 10
97.646040
 20
164.005657
 30
0.0
 10
105.095760
 20
166.426216
 30
0.0
 10
105.546271
 20
166.503408
 30
0.0
 10
106.000103
 20
166.449039
 30
0.0
 10
106.419631
 20
166.267617
 30
0.0
 10
106.870638
 20
165.849522
 30
0.0
 10
110.796874
 20
160.445521
 30
0.0
 10
116.052724
 20
162.153251
 30
0.0
 10
116.052724
 20
168.832964
 30
0.0
 10
116.118526
 20
169.285280
 30
0.0
 10
116.310473
 20
169.700099
 30
0.0
 10
116.612659
 20
170.043033
 30
0.0
 10
117.149660
 20
170.342766
 30
0.0
 10
124.599380
 20
172.763326
 30
0.0
 10
125.049891
 20
172.840518
 30
0.0
  0
LWPOLYLINE
  5
101
100
AcDbEntity
  8
Layer_2
 62
7
100
AcDbPolyline
 90
5
 70
1
 10
119.227769
 20
75.968085
 30
0.0
 10
119.227769
 20
70.441757
 30
0.0
 10
124.483619
 20
68.734027
 30
0.0
 10
127.731912
 20
73.204919
 30
0.0
 10
124.483619
 20
77.675814
 30
0.0
  0
LWPOLYLINE
  5
102
100
AcDbEntity
  8
Layer_2
 62
7
100
AcDbPolyline
 90
5
 70
1
 10
134.127208
 20
80.809206
 30
0.0
 10
134.127208
 20
75.282877
 30
0.0
 10
139.383058
 20
73.575148
 30
0.0
 10
142.631350
 20
78.046043
 30
0.0
 10
139.383058
 20
82.516935
 30
0.0
  0
LWPOLYLINE
  5
103
100
AcDbEntity
  8
Layer_2
 62
7
100
AcDbPolyline
 90
55
 70
1
 10
118.621397
 20
101.119501
 30
0.0
 10
114.998347
 20
96.132798
 30
0.0
 10
118.924583
 20
90.728797
 30
0.0
 10
119.137213
 20
90.324191
 30
0.0
 10
119.225748
 20
89.875770
 30
0.0
 10
119.182848
 20
89.420711
 30
0.0
 10
118.924583
 20
88.862580
 30
0.0
 10
114.998347
 20
83.458579
 30
0.0
 10
118.246639
 20
78.987687
 30
0.0
 10
124.599425
 20
81.051834
 30
0.0
 10
125.049936
 20
81.129026
 30
0.0
 10
125.503768
 20
81.074657
 30
0.0
 10
125.923297
 20
80.893235
 30
0.0
 10
126.374303
 20
80.475140
 30
0.0
 10
130.952208
 20
74.174189
 30
0.0
 10
130.952208
 20
81.962591
 30
0.0
 10
130.967951
 20
82.070837
 30
0.0
 10
130.967157
 20
82.180229
 30
0.0
 10
131.000646
 20
82.295825
 30
0.0
 10
131.017976
 20
82.414906
 30
0.0
 10
131.063913
 20
82.514181
 30
0.0
 10
131.094353
 20
82.619252
 30
0.0
 10
131.159382
 20
82.720503
 30
0.0
 10
131.209923
 20
82.829725
 30
0.0
 10
131.282250
 20
82.911804
 30
0.0
 10
131.341360
 20
83.003840
 30
0.0
 10
131.432546
 20
83.082368
 30
0.0
 10
131.512109
 20
83.172660
 30
0.0
 10
131.604819
 20
83.230725
 30
0.0
 10
131.687705
 20
83.302107
 30
0.0
 10
131.813173
 20
83.361226
 30
0.0
 10
131.899477
 20
83.415280
 30
0.0
 10
131.968592
 20
83.434462
 30
0.0
 10
132.049110
 20
83.472401
 30
0.0
 10
138.401893
 20
85.536545
 30
0.0
 10
138.401893
 20
91.062871
 30
0.0
 10
132.049110
 20
93.127015
 30
0.0
 10
131.951021
 20
93.175444
 30
0.0
 10
131.846754
 20
93.208525
 30
0.0
 10
131.747173
 20
93.276092
 30
0.0
 10
131.639265
 20
93.329368
 30
0.0
 10
131.559043
 20
93.403737
 30
0.0
 10
131.468521
 20
93.465155
 30
0.0
 10
131.392319
 20
93.558294
 30
0.0
 10
131.304064
 20
93.640108
 30
0.0
 10
131.248354
 20
93.734258
 30
0.0
 10
131.179088
 20
93.818916
 30
0.0
 10
131.132583
 20
93.929904
 30
0.0
 10
131.071295
 20
94.033478
 30
0.0
 10
131.055367
 20
94.114210
 30
0.0
 10
131.002455
 20
94.240482
 30
0.0
 10
130.968470
 20
94.554334
 30
0.0
 10
130.952171
 20
94.636818
 30
0.0
 10
130.952171
 20
101.316531
 30
0.0
 10
125.089952
 20
103.221282
 30
0.0
  0
LWPOLYLINE
  5
104
100
AcDbEntity
  8
Layer_2
 62
7
100
AcDbPolyline
 90
5
 70
1
 10
99.724149
 20
82.305194
 30
0.0
 10
99.724149
 20
76.778866
 30
0.0
 10
104.979999
 20
75.071137
 30
0.0
 10
108.228291
 20
79.542031
 30
0.0
 10
104.979999
 20
84.012924
 30
0.0
  0
LWPOLYLINE
  5
105
100
AcDbEntity
  8
Layer_2
 62
7
100
AcDbPolyline
 90
38
 70
1
 10
107.173869
 20
105.233073
 30
0.0
 10
107.173869
 20
98.553360
 30
0.0
 10
107.108067
 20
98.101044
 30
0.0
 10
106.916119
 20
97.686225
 30
0.0
 10
106.613934
 20
97.343291
 30
0.0
 10
106.226565
 20
97.100670
 30
0.0
 10
106.132503
 20
97.074583
 30
0.0
 10
106.076933
 20
97.043565
 30
0.0
 10
99.724149
 20
94.979421
 30
0.0
 10
99.724149
 20
88.299708
 30
0.0
 10
99.658347
 20
87.847392
 30
0.0
 10
99.466400
 20
87.432573
 30
0.0
 10
99.164214
 20
87.089639
 30
0.0
 10
98.776846
 20
86.847019
 30
0.0
 10
98.682784
 20
86.820931
 30
0.0
 10
98.627213
 20
86.789914
 30
0.0
 10
95.824188
 20
85.879157
 30
0.0
 10
98.136649
 20
85.127790
 30
0.0
 10
105.095805
 20
87.388959
 30
0.0
 10
105.546316
 20
87.466151
 30
0.0
 10
106.000148
 20
87.411782
 30
0.0
 10
106.419676
 20
87.230360
 30
0.0
 10
106.870683
 20
86.812266
 30
0.0
 10
111.171678
 20
80.892457
 30
0.0
 10
113.484139
 20
80.141090
 30
0.0
 10
111.751774
 20
82.525486
 30
0.0
 10
111.539144
 20
82.930092
 30
0.0
 10
111.450609
 20
83.378514
 30
0.0
 10
111.493509
 20
83.833573
 30
0.0
 10
111.751774
 20
84.391704
 30
0.0
 10
115.678011
 20
89.795705
 30
0.0
 10
111.751774
 20
95.199705
 30
0.0
 10
111.539144
 20
95.604311
 30
0.0
 10
111.450609
 20
96.052733
 30
0.0
 10
111.493509
 20
96.507792
 30
0.0
 10
111.751774
 20
97.065923
 30
0.0
 10
115.678011
 20
102.469926
 30
0.0
 10
112.429719
 20
106.940818
 30
0.0
  0
LWPOLYLINE
  5
106
100
AcDbEntity
  8
Layer_2
 62
7
100
AcDbPolyline
 90
5
 70
1
 10
80.220532
 20
88.642304
 30
0.0
 10
80.220532
 20
83.115978
 30
0.0
 10
85.476382
 20
81.408249
 30
0.0
 10
88.724674
 20
85.879141
 30
0.0
 10
85.476382
 20
90.350033
 30
0.0
  0
LWPOLYLINE
  5
107
100
AcDbEntity
  8
Layer_2
 62
7
100
AcDbPolyline
 90
68
 70
1
 10
90.212603
 20
107.873911
 30
0.0
 10
90.080743
 20
107.738680
 30
0.0
 10
89.955854
 20
107.596951
 30
0.0
 10
89.921667
 20
107.575546
 30
0.0
 10
89.893505
 20
107.546664
 30
0.0
 10
89.728564
 20
107.454599
 30
0.0
 10
89.568486
 20
107.354338
 30
0.0
 10
89.529616
 20
107.343543
 30
0.0
 10
89.494389
 20
107.323885
 30
0.0
 10
89.310043
 20
107.282631
 30
0.0
 10
89.128044
 20
107.232138
 30
0.0
 10
89.087717
 20
107.232932
 30
0.0
 10
89.048347
 20
107.224121
 30
0.0
 10
88.954443
 20
107.235366
 30
0.0
 10
88.671045
 20
107.240552
 30
0.0
 10
88.525379
 20
107.286766
 30
0.0
 10
88.437725
 20
107.297270
 30
0.0
 10
82.084942
 20
109.361415
 30
0.0
 10
78.836650
 20
104.890522
 30
0.0
 10
82.762886
 20
99.486522
 30
0.0
 10
82.975516
 20
99.081915
 30
0.0
 10
83.064051
 20
98.633494
 30
0.0
 10
83.021151
 20
98.178435
 30
0.0
 10
82.762886
 20
97.620304
 30
0.0
 10
78.184978
 20
91.319355
 30
0.0
 10
85.592187
 20
93.726106
 30
0.0
 10
85.700005
 20
93.744574
 30
0.0
 10
85.803806
 20
93.779099
 30
0.0
 10
85.924088
 20
93.782962
 30
0.0
 10
86.042698
 20
93.803282
 30
0.0
 10
86.151307
 20
93.790265
 30
0.0
 10
86.260646
 20
93.793784
 30
0.0
 10
86.377050
 20
93.763222
 30
0.0
 10
86.496530
 20
93.748908
 30
0.0
 10
86.596926
 20
93.705492
 30
0.0
 10
86.702739
 20
93.677711
 30
0.0
 10
86.805614
 20
93.615248
 30
0.0
 10
86.916059
 20
93.567485
 30
0.0
 10
86.999924
 20
93.497265
 30
0.0
 10
87.093436
 20
93.440485
 30
0.0
 10
87.188434
 20
93.339423
 30
0.0
 10
87.266507
 20
93.274052
 30
0.0
 10
87.306100
 20
93.214246
 30
0.0
 10
87.367065
 20
93.149391
 30
0.0
 10
91.293299
 20
87.745390
 30
0.0
 10
96.549149
 20
89.453119
 30
0.0
 10
96.549149
 20
96.132830
 30
0.0
 10
96.553356
 20
96.161807
 30
0.0
 10
96.550207
 20
96.190914
 30
0.0
 10
96.586183
 20
96.387431
 30
0.0
 10
96.614946
 20
96.585146
 30
0.0
 10
96.627249
 20
96.611718
 30
0.0
 10
96.632514
 20
96.640520
 30
0.0
 10
96.722991
 20
96.818640
 30
0.0
 10
96.806893
 20
96.999965
 30
0.0
 10
96.826260
 20
97.021925
 30
0.0
 10
96.839516
 20
97.048040
 30
0.0
 10
96.976978
 20
97.192984
 30
0.0
 10
97.109084
 20
97.342902
 30
0.0
 10
97.130489
 20
97.354861
 30
0.0
 10
97.154037
 20
97.379705
 30
0.0
 10
97.550023
 20
97.607990
 30
0.0
 10
97.609284
 20
97.622119
 30
0.0
 10
97.646075
 20
97.642651
 30
0.0
 10
103.998858
 20
99.706795
 30
0.0
 10
103.998858
 20
105.870650
 30
0.0
 10
100.001062
 20
111.373158
 30
0.0
 10
94.138840
 20
113.277912
 30
0.0
  0
LWPOLYLINE
  5
108
100
AcDbEntity
  8
Layer_2
 62
7
100
AcDbPolyline
 90
52
 70
1
 10
126.677489
 20
111.570183
 30
0.0
 10
126.677489
 20
106.043857
 30
0.0
 10
133.030272
 20
103.979713
 30
0.0
 10
133.154259
 20
103.918496
 30
0.0
 10
133.284423
 20
103.871892
 30
0.0
 10
133.358136
 20
103.817835
 30
0.0
 10
133.440117
 20
103.777359
 30
0.0
 10
133.541529
 20
103.683348
 30
0.0
 10
133.653011
 20
103.601594
 30
0.0
 10
133.708264
 20
103.528778
 30
0.0
 10
133.775318
 20
103.466620
 30
0.0
 10
133.845734
 20
103.347618
 30
0.0
 10
133.929310
 20
103.237480
 30
0.0
 10
133.943519
 20
103.182367
 30
0.0
 10
134.008085
 20
103.073250
 30
0.0
 10
134.127206
 20
102.469910
 30
0.0
 10
134.127206
 20
95.790197
 30
0.0
 10
140.479989
 20
93.726053
 30
0.0
 10
140.603975
 20
93.664836
 30
0.0
 10
140.734140
 20
93.618233
 30
0.0
 10
140.807853
 20
93.564176
 30
0.0
 10
140.889834
 20
93.523700
 30
0.0
 10
140.991246
 20
93.429688
 30
0.0
 10
141.102728
 20
93.347934
 30
0.0
 10
141.157981
 20
93.275118
 30
0.0
 10
141.225035
 20
93.212960
 30
0.0
 10
141.295451
 20
93.093958
 30
0.0
 10
141.379027
 20
92.983820
 30
0.0
 10
141.393235
 20
92.928707
 30
0.0
 10
141.457802
 20
92.819590
 30
0.0
 10
141.576922
 20
92.216250
 30
0.0
 10
141.576922
 20
89.268975
 30
0.0
 10
143.006101
 20
91.236070
 30
0.0
 10
143.006101
 20
98.553360
 30
0.0
 10
143.071903
 20
99.005676
 30
0.0
 10
143.263850
 20
99.420495
 30
0.0
 10
143.566036
 20
99.763429
 30
0.0
 10
144.103037
 20
100.063162
 30
0.0
 10
151.062193
 20
102.324329
 30
0.0
 10
152.491371
 20
104.291426
 30
0.0
 10
149.688346
 20
103.380667
 30
0.0
 10
149.237835
 20
103.303475
 30
0.0
 10
148.784003
 20
103.357844
 30
0.0
 10
148.364474
 20
103.539266
 30
0.0
 10
147.913468
 20
103.957361
 30
0.0
 10
143.987232
 20
109.361362
 30
0.0
 10
137.634446
 20
107.297217
 30
0.0
 10
137.183934
 20
107.220025
 30
0.0
 10
136.730102
 20
107.274394
 30
0.0
 10
136.310574
 20
107.455817
 30
0.0
 10
135.859568
 20
107.873911
 30
0.0
 10
131.933334
 20
113.277912
 30
0.0
  0
LWPOLYLINE
  5
109
100
AcDbEntity
  8
Layer_2
 62
7
100
AcDbPolyline
 90
5
 70
1
 10
146.181106
 20
97.399972
 30
0.0
 10
146.181106
 20
91.873647
 30
0.0
 10
151.436956
 20
90.165917
 30
0.0
 10
154.685249
 20
94.636810
 30
0.0
 10
151.436956
 20
99.107702
 30
0.0
  0
LWPOLYLINE
  5
10a
100
AcDbEntity
  8
Layer_2
 62
7
100
AcDbPolyline
 90
5
 70
1
 10
71.012172
 20
101.316523
 30
0.0
 10
71.012172
 20
95.790197
 30
0.0
 10
76.268022
 20
94.082468
 30
0.0
 10
79.516314
 20
98.553360
 30
0.0
 10
76.268022
 20
103.024252
 30
0.0
  0
LWPOLYLINE
  5
10b
100
AcDbEntity
  8
Layer_2
 62
7
100
AcDbPolyline
 90
72
 70
1
 10
114.320402
 20
128.381228
 30
0.0
 10
114.188542
 20
128.245997
 30
0.0
 10
114.063653
 20
128.104268
 30
0.0
 10
114.029466
 20
128.082863
 30
0.0
 10
114.001304
 20
128.053981
 30
0.0
 10
113.836363
 20
127.961917
 30
0.0
 10
113.676284
 20
127.861655
 30
0.0
 10
113.637415
 20
127.850860
 30
0.0
 10
113.602188
 20
127.831202
 30
0.0
 10
113.417842
 20
127.789948
 30
0.0
 10
113.235843
 20
127.739455
 30
0.0
 10
113.195515
 20
127.740249
 30
0.0
 10
113.156145
 20
127.731438
 30
0.0
 10
113.062242
 20
127.742683
 30
0.0
 10
112.778844
 20
127.747869
 30
0.0
 10
112.633178
 20
127.794083
 30
0.0
 10
112.545524
 20
127.804587
 30
0.0
 10
106.192738
 20
129.868734
 30
0.0
 10
102.944446
 20
125.397839
 30
0.0
 10
106.870683
 20
119.993839
 30
0.0
 10
107.083312
 20
119.589230
 30
0.0
 10
107.171847
 20
119.140811
 30
0.0
 10
107.128948
 20
118.685752
 30
0.0
 10
106.870683
 20
118.127621
 30
0.0
 10
102.944446
 20
112.723620
 30
0.0
 10
106.192738
 20
108.252728
 30
0.0
 10
112.545524
 20
110.316875
 30
0.0
 10
112.996035
 20
110.394067
 30
0.0
 10
113.449867
 20
110.339698
 30
0.0
 10
113.869396
 20
110.158276
 30
0.0
 10
114.320402
 20
109.740181
 30
0.0
 10
118.246639
 20
104.336181
 30
0.0
 10
123.502489
 20
106.043910
 30
0.0
 10
123.502489
 20
112.723620
 30
0.0
 10
123.506696
 20
112.752598
 30
0.0
 10
123.503547
 20
112.781704
 30
0.0
 10
123.539523
 20
112.978221
 30
0.0
 10
123.568285
 20
113.175936
 30
0.0
 10
123.580588
 20
113.202508
 30
0.0
 10
123.585854
 20
113.231311
 30
0.0
 10
123.676331
 20
113.409431
 30
0.0
 10
123.760233
 20
113.590755
 30
0.0
 10
123.779600
 20
113.612716
 30
0.0
 10
123.792856
 20
113.638830
 30
0.0
 10
123.930317
 20
113.783774
 30
0.0
 10
124.062424
 20
113.933692
 30
0.0
 10
124.083829
 20
113.945651
 30
0.0
 10
124.107377
 20
113.970496
 30
0.0
 10
124.503363
 20
114.198781
 30
0.0
 10
124.562624
 20
114.212910
 30
0.0
 10
124.599414
 20
114.233441
 30
0.0
 10
130.952198
 20
116.297586
 30
0.0
 10
130.952198
 20
121.823911
 30
0.0
 10
124.599414
 20
123.888056
 30
0.0
 10
124.501325
 20
123.936485
 30
0.0
 10
124.397058
 20
123.969566
 30
0.0
 10
124.297477
 20
124.037132
 30
0.0
 10
124.189569
 20
124.090409
 30
0.0
 10
124.109348
 20
124.164778
 30
0.0
 10
124.018826
 20
124.226196
 30
0.0
 10
123.942623
 20
124.319334
 30
0.0
 10
123.854369
 20
124.401149
 30
0.0
 10
123.798658
 20
124.495298
 30
0.0
 10
123.729393
 20
124.579957
 30
0.0
 10
123.682887
 20
124.690944
 30
0.0
 10
123.621599
 20
124.794518
 30
0.0
 10
123.605671
 20
124.875250
 30
0.0
 10
123.552760
 20
125.001523
 30
0.0
 10
123.518774
 20
125.315374
 30
0.0
 10
123.502502
 20
125.397858
 30
0.0
 10
123.502502
 20
132.077571
 30
0.0
 10
118.246652
 20
133.785300
 30
0.0
  0
LWPOLYLINE
  5
10c
100
AcDbEntity
  8
Layer_2
 62
7
100
AcDbPolyline
 90
55
 70
1
 10
145.877920
 20
125.960669
 30
0.0
 10
145.746060
 20
125.825438
 30
0.0
 10
145.621171
 20
125.683708
 30
0.0
 10
145.586984
 20
125.662304
 30
0.0
 10
145.558822
 20
125.633422
 30
0.0
 10
145.393881
 20
125.541357
 30
0.0
 10
145.233803
 20
125.441096
 30
0.0
 10
145.194933
 20
125.430301
 30
0.0
 10
145.159706
 20
125.410643
 30
0.0
 10
144.975360
 20
125.369389
 30
0.0
 10
144.793361
 20
125.318896
 30
0.0
 10
144.753034
 20
125.319689
 30
0.0
 10
144.713664
 20
125.310879
 30
0.0
 10
144.619760
 20
125.322124
 30
0.0
 10
144.336363
 20
125.327309
 30
0.0
 10
144.190696
 20
125.373524
 30
0.0
 10
144.103042
 20
125.384028
 30
0.0
 10
137.750256
 20
127.448172
 30
0.0
 10
134.127208
 20
122.461472
 30
0.0
 10
134.127208
 20
115.659990
 30
0.0
 10
137.750256
 20
110.673290
 30
0.0
 10
144.103042
 20
112.737434
 30
0.0
 10
144.553554
 20
112.814627
 30
0.0
 10
145.007386
 20
112.760257
 30
0.0
 10
145.426914
 20
112.578835
 30
0.0
 10
145.877920
 20
112.160741
 30
0.0
 10
149.804157
 20
106.756740
 30
0.0
 10
155.060004
 20
108.464469
 30
0.0
 10
155.060004
 20
115.144182
 30
0.0
 10
155.125806
 20
115.596498
 30
0.0
 10
155.317754
 20
116.011317
 30
0.0
 10
155.619939
 20
116.354251
 30
0.0
 10
156.156940
 20
116.653985
 30
0.0
 10
163.564144
 20
119.060730
 30
0.0
 10
156.156940
 20
121.467478
 30
0.0
 10
156.058851
 20
121.515907
 30
0.0
 10
155.954584
 20
121.548988
 30
0.0
 10
155.855003
 20
121.616555
 30
0.0
 10
155.747096
 20
121.669831
 30
0.0
 10
155.666877
 20
121.744198
 30
0.0
 10
155.576352
 20
121.805618
 30
0.0
 10
155.500144
 20
121.898765
 30
0.0
 10
155.411895
 20
121.980574
 30
0.0
 10
155.356190
 20
122.074715
 30
0.0
 10
155.286919
 20
122.159379
 30
0.0
 10
155.240413
 20
122.270369
 30
0.0
 10
155.179125
 20
122.373940
 30
0.0
 10
155.152550
 20
122.480057
 30
0.0
 10
155.110275
 20
122.580945
 30
0.0
 10
155.092813
 20
122.718550
 30
0.0
 10
155.068074
 20
122.817324
 30
0.0
 10
155.071196
 20
122.888973
 30
0.0
 10
155.060004
 20
122.977280
 30
0.0
 10
155.060004
 20
129.656993
 30
0.0
 10
149.804157
 20
131.364723
 30
0.0
  0
LWPOLYLINE
  5
10d
100
AcDbEntity
  8
Layer_2
 62
7
100
AcDbPolyline
 90
5
 70
1
 10
158.235004
 20
113.990742
 30
0.0
 10
158.235004
 20
108.464416
 30
0.0
 10
163.490854
 20
106.756687
 30
0.0
 10
166.739147
 20
111.227579
 30
0.0
 10
163.490854
 20
115.698471
 30
0.0
  0
LWPOLYLINE
  5
10e
100
AcDbEntity
  8
Layer_2
 62
7
100
AcDbPolyline
 90
58
 70
1
 10
78.461891
 20
125.913594
 30
0.0
 10
82.762886
 20
119.993786
 30
0.0
 10
82.975516
 20
119.589180
 30
0.0
 10
83.064051
 20
119.140758
 30
0.0
 10
83.021151
 20
118.685699
 30
0.0
 10
82.762886
 20
118.127568
 30
0.0
 10
78.461891
 20
112.207760
 30
0.0
 10
78.461891
 20
109.776289
 30
0.0
 10
80.194258
 20
112.160688
 30
0.0
 10
80.346232
 20
112.316546
 30
0.0
 10
80.495971
 20
112.474433
 30
0.0
 10
80.505602
 20
112.479989
 30
0.0
 10
80.513380
 20
112.487953
 30
0.0
 10
80.703536
 20
112.594091
 30
0.0
 10
80.891981
 20
112.702729
 30
0.0
 10
80.902776
 20
112.705375
 30
0.0
 10
80.912486
 20
112.710799
 30
0.0
 10
81.124949
 20
112.758344
 30
0.0
 10
81.336586
 20
112.808800
 30
0.0
 10
81.347672
 20
112.808271
 30
0.0
 10
81.358520
 20
112.810652
 30
0.0
 10
81.405145
 20
112.805070
 30
0.0
 10
81.792966
 20
112.783771
 30
0.0
 10
81.898527
 20
112.745975
 30
0.0
 10
81.969142
 20
112.737508
 30
0.0
 10
88.321925
 20
110.673364
 30
0.0
 10
92.248162
 20
116.077365
 30
0.0
 10
92.400136
 20
116.233223
 30
0.0
 10
92.549874
 20
116.391111
 30
0.0
 10
92.559505
 20
116.396667
 30
0.0
 10
92.567257
 20
116.404631
 30
0.0
 10
92.757413
 20
116.510768
 30
0.0
 10
92.945858
 20
116.619406
 30
0.0
 10
92.956653
 20
116.622052
 30
0.0
 10
92.966363
 20
116.627476
 30
0.0
 10
93.178826
 20
116.675022
 30
0.0
 10
93.390463
 20
116.725478
 30
0.0
 10
93.401549
 20
116.724949
 30
0.0
 10
93.412397
 20
116.727330
 30
0.0
 10
93.459022
 20
116.721747
 30
0.0
 10
93.846843
 20
116.700448
 30
0.0
 10
93.952404
 20
116.662652
 30
0.0
 10
94.023019
 20
116.654186
 30
0.0
 10
100.375805
 20
114.590039
 30
0.0
 10
103.624097
 20
119.060931
 30
0.0
 10
100.375805
 20
123.531823
 30
0.0
 10
94.023019
 20
121.467679
 30
0.0
 10
93.572507
 20
121.390487
 30
0.0
 10
93.118675
 20
121.444856
 30
0.0
 10
92.699147
 20
121.626278
 30
0.0
 10
92.248141
 20
122.044373
 30
0.0
 10
88.321904
 20
127.448374
 30
0.0
 10
81.969121
 20
125.384229
 30
0.0
 10
81.518609
 20
125.307037
 30
0.0
 10
81.064777
 20
125.361406
 30
0.0
 10
80.645249
 20
125.542828
 30
0.0
 10
80.194243
 20
125.960923
 30
0.0
 10
78.461875
 20
128.345322
 30
0.0
  0
LWPOLYLINE
  5
10f
100
AcDbEntity
  8
Layer_2
 62
7
100
AcDbPolyline
 90
5
 70
1
 10
71.012172
 20
121.823840
 30
0.0
 10
71.012172
 20
116.297514
 30
0.0
 10
76.268022
 20
114.589785
 30
0.0
 10
79.516314
 20
119.060677
 30
0.0
 10
76.268022
 20
123.531569
 30
0.0
  0
LWPOLYLINE
  5
110
100
AcDbEntity
  8
Layer_2
 62
7
100
AcDbPolyline
 90
5
 70
1
 10
158.235004
 20
129.656941
 30
0.0
 10
158.235004
 20
124.130612
 30
0.0
 10
163.490854
 20
122.422883
 30
0.0
 10
166.739147
 20
126.893778
 30
0.0
 10
163.490854
 20
131.364670
 30
0.0
  0
LWPOLYLINE
  5
111
100
AcDbEntity
  8
Layer_2
 62
7
100
AcDbPolyline
 90
41
 70
1
 10
87.367065
 20
144.971998
 30
0.0
 10
87.047967
 20
144.644742
 30
0.0
 10
86.648854
 20
144.421974
 30
0.0
 10
86.202808
 20
144.322152
 30
0.0
 10
85.592187
 20
144.395304
 30
0.0
 10
78.184981
 20
146.802049
 30
0.0
 10
82.762886
 20
140.501105
 30
0.0
 10
82.975516
 20
140.096499
 30
0.0
 10
83.064051
 20
139.648078
 30
0.0
 10
83.021151
 20
139.193019
 30
0.0
 10
82.762886
 20
138.634888
 30
0.0
 10
78.836650
 20
133.230887
 30
0.0
 10
82.084942
 20
128.759995
 30
0.0
 10
88.437725
 20
130.824139
 30
0.0
 10
88.888237
 20
130.901332
 30
0.0
 10
89.342068
 20
130.846962
 30
0.0
 10
89.761597
 20
130.665540
 30
0.0
 10
90.212603
 20
130.247446
 30
0.0
 10
94.138840
 20
124.843445
 30
0.0
 10
100.001062
 20
126.748196
 30
0.0
 10
103.998869
 20
132.250707
 30
0.0
 10
103.998869
 20
138.414609
 30
0.0
 10
97.646085
 20
140.478753
 30
0.0
 10
97.547996
 20
140.527183
 30
0.0
 10
97.443729
 20
140.560264
 30
0.0
 10
97.344148
 20
140.627830
 30
0.0
 10
97.236240
 20
140.681107
 30
0.0
 10
97.156019
 20
140.755476
 30
0.0
 10
97.065497
 20
140.816894
 30
0.0
 10
96.989294
 20
140.910032
 30
0.0
 10
96.901040
 20
140.991847
 30
0.0
 10
96.845329
 20
141.085996
 30
0.0
 10
96.776064
 20
141.170655
 30
0.0
 10
96.729558
 20
141.281642
 30
0.0
 10
96.668270
 20
141.385216
 30
0.0
 10
96.652342
 20
141.465948
 30
0.0
 10
96.599431
 20
141.592221
 30
0.0
 10
96.565445
 20
141.906072
 30
0.0
 10
96.549147
 20
141.988556
 30
0.0
 10
96.549147
 20
148.668269
 30
0.0
 10
91.293296
 20
150.375998
 30
0.0
  0
LWPOLYLINE
  5
112
100
AcDbEntity
  8
Layer_2
 62
7
100
AcDbPolyline
 90
74
 70
1
 10
141.576928
 20
145.905106
 30
0.0
 10
141.511126
 20
145.452790
 30
0.0
 10
141.319179
 20
145.037971
 30
0.0
 10
141.016993
 20
144.695037
 30
0.0
 10
140.629624
 20
144.452417
 30
0.0
 10
140.535562
 20
144.426329
 30
0.0
 10
140.479992
 20
144.395312
 30
0.0
 10
134.127208
 20
142.331167
 30
0.0
 10
134.127208
 20
135.651454
 30
0.0
 10
134.061406
 20
135.199139
 30
0.0
 10
133.869459
 20
134.784319
 30
0.0
 10
133.567273
 20
134.441385
 30
0.0
 10
133.179905
 20
134.198765
 30
0.0
 10
133.085843
 20
134.172677
 30
0.0
 10
133.030272
 20
134.141660
 30
0.0
 10
126.677489
 20
132.077516
 30
0.0
 10
126.677489
 20
126.551190
 30
0.0
 10
131.933339
 20
124.843461
 30
0.0
 10
135.859573
 20
130.247461
 30
0.0
 10
136.011547
 20
130.403320
 30
0.0
 10
136.161285
 20
130.561207
 30
0.0
 10
136.170916
 20
130.566763
 30
0.0
 10
136.178668
 20
130.574727
 30
0.0
 10
136.368793
 20
130.680846
 30
0.0
 10
136.557269
 20
130.789503
 30
0.0
 10
136.568090
 20
130.792149
 30
0.0
 10
136.577800
 20
130.797573
 30
0.0
 10
136.790192
 20
130.845105
 30
0.0
 10
137.001904
 20
130.895577
 30
0.0
 10
137.012990
 20
130.895048
 30
0.0
 10
137.023837
 20
130.897429
 30
0.0
 10
137.070462
 20
130.891846
 30
0.0
 10
137.458283
 20
130.870547
 30
0.0
 10
137.563844
 20
130.832752
 30
0.0
 10
137.634459
 20
130.824285
 30
0.0
 10
143.987245
 20
128.760141
 30
0.0
 10
147.913482
 20
134.164141
 30
0.0
 10
148.065456
 20
134.320000
 30
0.0
 10
148.215194
 20
134.477887
 30
0.0
 10
148.224825
 20
134.483443
 30
0.0
 10
148.232603
 20
134.491407
 30
0.0
 10
148.422760
 20
134.597545
 30
0.0
 10
148.611204
 20
134.706183
 30
0.0
 10
148.621999
 20
134.708829
 30
0.0
 10
148.631709
 20
134.714253
 30
0.0
 10
148.844172
 20
134.761798
 30
0.0
 10
149.055810
 20
134.812254
 30
0.0
 10
149.066896
 20
134.811725
 30
0.0
 10
149.077744
 20
134.814106
 30
0.0
 10
149.124368
 20
134.808524
 30
0.0
 10
149.512189
 20
134.787225
 30
0.0
 10
149.617750
 20
134.749429
 30
0.0
 10
149.688365
 20
134.740962
 30
0.0
 10
152.491390
 20
133.830203
 30
0.0
 10
151.062211
 20
135.797298
 30
0.0
 10
144.103056
 20
138.058467
 30
0.0
 10
144.004967
 20
138.106896
 30
0.0
 10
143.900700
 20
138.139977
 30
0.0
 10
143.801118
 20
138.207544
 30
0.0
 10
143.693211
 20
138.260820
 30
0.0
 10
143.612992
 20
138.335187
 30
0.0
 10
143.522467
 20
138.396607
 30
0.0
 10
143.446259
 20
138.489754
 30
0.0
 10
143.358010
 20
138.571563
 30
0.0
 10
143.302305
 20
138.665704
 30
0.0
 10
143.233034
 20
138.750368
 30
0.0
 10
143.186528
 20
138.861358
 30
0.0
 10
143.125240
 20
138.964929
 30
0.0
 10
143.109312
 20
139.045662
 30
0.0
 10
143.056401
 20
139.171934
 30
0.0
 10
143.022415
 20
139.485785
 30
0.0
 10
143.006117
 20
139.568269
 30
0.0
 10
143.006117
 20
146.885559
 30
0.0
 10
141.576938
 20
148.852655
 30
0.0
  0
LWPOLYLINE
  5
113
100
AcDbEntity
  8
Layer_2
 62
7
100
AcDbPolyline
 90
90
 70
1
 10
111.171678
 20
157.228916
 30
0.0
 10
106.870683
 20
151.309107
 30
0.0
 10
106.738822
 20
151.173876
 30
0.0
 10
106.613934
 20
151.032146
 30
0.0
 10
106.579747
 20
151.010742
 30
0.0
 10
106.551584
 20
150.981860
 30
0.0
 10
106.386643
 20
150.889795
 30
0.0
 10
106.226565
 20
150.789534
 30
0.0
 10
106.187695
 20
150.778739
 30
0.0
 10
106.152468
 20
150.759081
 30
0.0
 10
105.968123
 20
150.717827
 30
0.0
 10
105.786124
 20
150.667334
 30
0.0
 10
105.745796
 20
150.668127
 30
0.0
 10
105.706426
 20
150.659317
 30
0.0
 10
105.612523
 20
150.670562
 30
0.0
 10
105.329125
 20
150.675747
 30
0.0
 10
105.183458
 20
150.721962
 30
0.0
 10
105.095805
 20
150.732466
 30
0.0
 10
98.136649
 20
152.993635
 30
0.0
 10
95.824186
 20
152.242269
 30
0.0
 10
98.627213
 20
151.331509
 30
0.0
 10
98.751199
 20
151.270293
 30
0.0
 10
98.881364
 20
151.223689
 30
0.0
 10
98.955077
 20
151.169632
 30
0.0
 10
99.037058
 20
151.129156
 30
0.0
 10
99.138465
 20
151.035147
 30
0.0
 10
99.249952
 20
150.953391
 30
0.0
 10
99.305213
 20
150.880567
 30
0.0
 10
99.372259
 20
150.818413
 30
0.0
 10
99.442672
 20
150.699420
 30
0.0
 10
99.526251
 20
150.589276
 30
0.0
 10
99.540460
 20
150.534161
 30
0.0
 10
99.605026
 20
150.425047
 30
0.0
 10
99.724146
 20
149.821707
 30
0.0
 10
99.724146
 20
143.141996
 30
0.0
 10
106.076930
 20
141.077852
 30
0.0
 10
106.200916
 20
141.016635
 30
0.0
 10
106.331081
 20
140.970032
 30
0.0
 10
106.404794
 20
140.915975
 30
0.0
 10
106.486775
 20
140.875499
 30
0.0
 10
106.588187
 20
140.781487
 30
0.0
 10
106.699669
 20
140.699733
 30
0.0
 10
106.754922
 20
140.626917
 30
0.0
 10
106.821975
 20
140.564759
 30
0.0
 10
106.892392
 20
140.445757
 30
0.0
 10
106.975968
 20
140.335619
 30
0.0
 10
106.990176
 20
140.280506
 30
0.0
 10
107.054743
 20
140.171390
 30
0.0
 10
107.173863
 20
139.568050
 30
0.0
 10
107.173863
 20
132.888336
 30
0.0
 10
112.429713
 20
131.180607
 30
0.0
 10
115.678006
 20
135.651499
 30
0.0
 10
111.751769
 20
141.055500
 30
0.0
 10
111.719468
 20
141.116965
 30
0.0
 10
111.675497
 20
141.170708
 30
0.0
 10
111.613622
 20
141.318374
 30
0.0
 10
111.539139
 20
141.460106
 30
0.0
 10
111.525698
 20
141.528231
 30
0.0
 10
111.498864
 20
141.592274
 30
0.0
 10
111.481613
 20
141.751450
 30
0.0
 10
111.450602
 20
141.908527
 30
0.0
 10
111.457110
 20
141.977660
 30
0.0
 10
111.449649
 20
142.046693
 30
0.0
 10
111.478478
 20
142.204175
 30
0.0
 10
111.493506
 20
142.363587
 30
0.0
 10
111.516922
 20
142.414199
 30
0.0
 10
111.531950
 20
142.496299
 30
0.0
 10
111.738947
 20
142.903816
 30
0.0
 10
111.747811
 20
142.913156
 30
0.0
 10
111.751779
 20
142.921728
 30
0.0
 10
115.678016
 20
148.325729
 30
0.0
 10
111.751779
 20
153.729732
 30
0.0
 10
111.719479
 20
153.791195
 30
0.0
 10
111.675508
 20
153.844940
 30
0.0
 10
111.613630
 20
153.992614
 30
0.0
 10
111.539150
 20
154.134341
 30
0.0
 10
111.525709
 20
154.202461
 30
0.0
 10
111.498872
 20
154.266506
 30
0.0
 10
111.481621
 20
154.425684
 30
0.0
 10
111.450609
 20
154.582760
 30
0.0
 10
111.457118
 20
154.651893
 30
0.0
 10
111.449657
 20
154.720925
 30
0.0
 10
111.478486
 20
154.878408
 30
0.0
 10
111.493514
 20
155.037819
 30
0.0
 10
111.516930
 20
155.088431
 30
0.0
 10
111.531958
 20
155.170531
 30
0.0
 10
111.738955
 20
155.578048
 30
0.0
 10
111.747819
 20
155.587388
 30
0.0
 10
111.751787
 20
155.595960
 30
0.0
 10
113.484152
 20
157.980356
 30
0.0
  0
LWPOLYLINE
  5
114
100
AcDbEntity
  8
Layer_2
 62
7
100
AcDbPolyline
 90
66
 70
1
 10
126.374303
 20
157.646217
 30
0.0
 10
126.297936
 20
157.567900
 30
0.0
 10
126.234251
 20
157.478952
 30
0.0
 10
126.139220
 20
157.405126
 30
0.0
 10
126.055205
 20
157.318961
 30
0.0
 10
125.959682
 20
157.265645
 30
0.0
 10
125.873301
 20
157.198536
 30
0.0
 10
125.761168
 20
157.154843
 30
0.0
 10
125.656091
 20
157.096193
 30
0.0
 10
125.549350
 20
157.072301
 30
0.0
 10
125.447414
 20
157.032582
 30
0.0
 10
125.327481
 20
157.022660
 30
0.0
 10
125.210046
 20
156.996387
 30
0.0
 10
125.100905
 20
157.003901
 30
0.0
 10
124.991897
 20
156.994879
 30
0.0
 10
124.855650
 20
157.020808
 30
0.0
 10
124.754050
 20
157.027819
 30
0.0
 10
124.686864
 20
157.052928
 30
0.0
 10
124.599425
 20
157.069570
 30
0.0
 10
118.246639
 20
159.133717
 30
0.0
 10
114.998347
 20
154.662825
 30
0.0
 10
118.924583
 20
149.258822
 30
0.0
 10
118.970369
 20
149.171694
 30
0.0
 10
119.029872
 20
149.093282
 30
0.0
 10
119.047493
 20
149.024943
 30
0.0
 10
119.137216
 20
148.854213
 30
0.0
 10
119.225751
 20
148.405794
 30
0.0
 10
119.220750
 20
148.352896
 30
0.0
 10
119.227761
 20
148.325713
 30
0.0
 10
119.200570
 20
148.138801
 30
0.0
 10
119.182843
 20
147.950735
 30
0.0
 10
119.168794
 20
147.920382
 30
0.0
 10
119.161967
 20
147.873397
 30
0.0
 10
118.970020
 20
147.458578
 30
0.0
 10
118.938625
 20
147.422949
 30
0.0
 10
118.924575
 20
147.392604
 30
0.0
 10
114.998339
 20
141.988603
 30
0.0
 10
118.621389
 20
137.001904
 30
0.0
 10
125.089981
 20
134.900130
 30
0.0
 10
130.952200
 20
136.804882
 30
0.0
 10
130.952200
 20
143.484592
 30
0.0
 10
130.956407
 20
143.513569
 30
0.0
 10
130.953259
 20
143.542676
 30
0.0
 10
130.989234
 20
143.739193
 30
0.0
 10
131.017997
 20
143.936908
 30
0.0
 10
131.030300
 20
143.963480
 30
0.0
 10
131.035565
 20
143.992282
 30
0.0
 10
131.126042
 20
144.170403
 30
0.0
 10
131.209944
 20
144.351727
 30
0.0
 10
131.229312
 20
144.373687
 30
0.0
 10
131.242567
 20
144.399802
 30
0.0
 10
131.380029
 20
144.544746
 30
0.0
 10
131.512135
 20
144.694664
 30
0.0
 10
131.533540
 20
144.706623
 30
0.0
 10
131.557088
 20
144.731467
 30
0.0
 10
131.953074
 20
144.959753
 30
0.0
 10
132.012335
 20
144.973881
 30
0.0
 10
132.049126
 20
144.994413
 30
0.0
 10
138.401909
 20
147.058557
 30
0.0
 10
138.401909
 20
152.584838
 30
0.0
 10
132.049126
 20
154.648982
 30
0.0
 10
131.639281
 20
154.851335
 30
0.0
 10
131.304080
 20
155.162078
 30
0.0
 10
131.071310
 20
155.555445
 30
0.0
 10
130.952190
 20
156.158785
 30
0.0
 10
130.952190
 20
163.947165
 30
0.0
  0
LWPOLYLINE
  5
115
100
AcDbEntity
  8
Layer_2
 62
7
100
AcDbPolyline
 90
5
 70
1
 10
71.012172
 20
142.331160
 30
0.0
 10
71.012172
 20
136.804834
 30
0.0
 10
76.268022
 20
135.097105
 30
0.0
 10
79.516314
 20
139.567997
 30
0.0
 10
76.268022
 20
144.038889
 30
0.0
  0
LWPOLYLINE
  5
116
100
AcDbEntity
  8
Layer_2
 62
7
100
AcDbPolyline
 90
5
 70
1
 10
146.181106
 20
146.247707
 30
0.0
 10
146.181106
 20
140.721382
 30
0.0
 10
151.436956
 20
139.013652
 30
0.0
 10
154.685249
 20
143.484544
 30
0.0
 10
151.436956
 20
147.955437
 30
0.0
  0
LWPOLYLINE
  5
117
100
AcDbEntity
  8
Layer_2
 62
7
100
AcDbPolyline
 90
5
 70
1
 10
80.220532
 20
155.005379
 30
0.0
 10
80.220532
 20
149.479053
 30
0.0
 10
85.476382
 20
147.771324
 30
0.0
 10
88.724674
 20
152.242216
 30
0.0
 10
85.476382
 20
156.713108
 30
0.0
  0
LWPOLYLINE
  5
118
100
AcDbEntity
  8
Layer_2
 62
7
100
AcDbPolyline
 90
5
 70
1
 10
99.724149
 20
161.342488
 30
0.0
 10
99.724149
 20
155.816162
 30
0.0
 10
104.979999
 20
154.108433
 30
0.0
 10
108.228291
 20
158.579325
 30
0.0
 10
104.979999
 20
163.050217
 30
0.0
  0
LWPOLYLINE
  5
119
100
AcDbEntity
  8
Layer_2
 62
7
100
AcDbPolyline
 90
5
 70
1
 10
134.127208
 20
162.838477
 30
0.0
 10
134.127208
 20
157.312151
 30
0.0
 10
139.383058
 20
155.604422
 30
0.0
 10
142.631350
 20
160.075314
 30
0.0
 10
139.383058
 20
164.546206
 30
0.0
  0
LWPOLYLINE
  5
11a
100
AcDbEntity
  8
Layer_2
 62
7
100
AcDbPolyline
 90
5
 70
1
 10
119.227769
 20
167.679598
 30
0.0
 10
119.227769
 20
162.153272
 30
0.0
 10
124.483619
 20
160.445543
 30
0.0
 10
127.731912
 20
164.916435
 30
0.0
 10
124.483619
 20
169.387327
 30
0.0
  0
ENDSEC
  0
SECTION
  2
OBJECTS
  0
DICTIONARY
  5
C
330
0
100
AcDbDictionary
  3
ACAD_GROUP
350
D
  3
ACAD_MLINESTYLE
350
17
  0
DICTIONARY
  5
D
330
C
100
AcDbDictionary
  0
DICTIONARY
  5
1A
330
C
100
AcDbDictionary
  0
DICTIONARY
  5
17
330
C
100
AcDbDictionary
  3
STANDARD
350
18
  0
DICTIONARY
  5
19
330
C
100
AcDbDictionary
  0
ENDSEC
  0
EOF
