<svg version="1.1" xmlns="http://www.w3.org/2000/svg" xmlns:xlink="http://www.w3.org/1999/xlink" width="900" height="900"><defs/><g><path fill="#222222" stroke="#cccccc" paint-order="fill stroke markers" d=" M 213.76712 37.63595 L 215.2329 37.7165 L 215.63187 37.85935 L 215.89876 37.89132 L 245.30218 47.44507 L 245.77079 47.67644 L 246.26275 47.85258 L 246.54135 48.05689 L 246.8512 48.20987 L 247.23447 48.56518 L 247.65584 48.87418 L 247.8647 49.14942 L 248.1181 49.38433 L 248.38423 49.83407 L 248.70012 50.25036 L 248.75383 50.45867 L 248.99786 50.87107 L 249.44808 53.15141 L 249.44808 79.70874 L 270.55971 86.56833 L 286.16971 65.083 L 286.7441 64.49393 L 287.31004 63.89719 L 287.3464 63.87623 L 287.37575 63.84613 L 288.09419 63.44513 L 288.80668 63.03438 L 288.84755 63.02464 L 288.88422 63.00417 L 289.68687 62.82454 L 290.48712 62.63376 L 290.52906 62.63606 L 290.57005 62.62689 L 290.74627 62.648 L 292.21205 62.72855 L 292.61102 62.8714 L 292.87791 62.90337 L 322.28133 72.45712 L 322.74994 72.68849 L 323.2419 72.86463 L 323.5205 73.06894 L 323.83035 73.22192 L 324.21362 73.57723 L 324.63499 73.88623 L 324.84385 74.16147 L 325.09725 74.39638 L 325.36338 74.84612 L 325.67927 75.26241 L 325.73298 75.47072 L 325.97701 75.88312 L 326.42723 78.16346 L 326.42723 104.72078 L 347.53886 111.58037 L 363.14886 90.09504 L 363.72325 89.50597 L 364.28919 88.90923 L 364.32555 88.88827 L 364.3549 88.85817 L 365.07334 88.45717 L 365.78583 88.04642 L 365.8267 88.03668 L 365.86337 88.01621 L 366.66602 87.83658 L 367.46627 87.6458 L 367.50821 87.6481 L 367.5492 87.63893 L 367.72542 87.66004 L 369.1912 87.74059 L 369.59017 87.88344 L 369.85706 87.91541 L 399.26048 97.46916 L 399.72909 97.70053 L 400.22105 97.87667 L 400.49965 98.08098 L 400.8095 98.23396 L 401.19277 98.58927 L 401.61414 98.89827 L 401.823 99.17351 L 402.0764 99.40842 L 402.34253 99.85816 L 402.65842 100.27445 L 402.71213 100.48276 L 402.95616 100.89516 L 403.40638 103.1755 L 403.40638 129.73282 L 428.6639 137.93949 L 429.13251 138.17086 L 429.62447 138.347 L 429.90307 138.55131 L 430.21292 138.70429 L 430.59619 139.0596 L 431.01756 139.3686 L 431.22642 139.64384 L 431.47982 139.87875 L 431.74595 140.32849 L 432.06184 140.74478 L 432.11555 140.95309 L 432.35958 141.36549 L 432.8098 143.64583 L 432.8098 174.56242 L 432.5611 176.27196 L 431.83563 177.83978 L 430.69351 179.13591 L 429.22944 180.0529 L 428.87393 180.15153 L 428.6639 180.26876 L 403.40638 188.47543 L 403.40638 210.67349 L 428.6639 218.88016 L 430.21292 219.64496 L 431.47982 220.81942 L 432.35958 222.30616 L 432.8098 224.5865 L 432.8098 255.50309 L 432.5611 257.21263 L 431.83563 258.78045 L 430.69351 260.07658 L 428.6639 261.20943 L 403.40638 269.4161 L 403.40638 291.61416 L 428.6639 299.82083 L 430.21292 300.58563 L 431.47982 301.76009 L 432.35958 303.24683 L 432.8098 305.52717 L 432.8098 336.44375 L 432.5611 338.15329 L 431.83563 339.72111 L 430.69351 341.01724 L 428.6639 342.15009 L 403.40638 350.35676 L 403.40638 376.91409 L 403.15768 378.62363 L 402.43221 380.19145 L 401.29009 381.48758 L 399.26048 382.62043 L 369.85706 392.17418 L 368.15434 392.46593 L 366.43907 392.26044 L 364.85345 391.57475 L 363.14886 389.99455 L 347.53886 368.50922 L 326.42723 375.36881 L 326.42723 401.92613 L 326.17853 403.63567 L 325.45306 405.20349 L 324.31094 406.49962 L 322.28133 407.63247 L 292.87791 417.18622 L 291.17519 417.47797 L 289.45992 417.27248 L 287.8743 416.58679 L 286.16971 415.00659 L 270.55971 393.52126 L 249.44808 400.38085 L 249.44808 426.93817 L 249.19938 428.64771 L 248.47391 430.21553 L 247.33179 431.51166 L 245.30218 432.64451 L 215.89876 442.19826 L 214.19604 442.49001 L 212.48077 442.28452 L 210.89515 441.59883 L 209.19056 440.01863 L 193.58056 418.5333 L 168.32303 426.73997 L 166.62031 427.03172 L 164.90504 426.82623 L 163.31942 426.14054 L 161.61483 424.56034 L 143.44252 399.5483 L 142.63888 398.01907 L 142.30426 396.32426 L 142.4664 394.60435 L 143.44252 392.49488 L 159.05253 371.00955 L 146.00483 353.05092 L 120.7473 361.25759 L 120.19153 361.35282 L 119.64818 361.50356 L 119.34423 361.498 L 119.04458 361.54934 L 118.48471 361.48227 L 117.92094 361.47195 L 117.63116 361.38001 L 117.32931 361.34385 L 116.81179 361.12005 L 116.27429 360.94952 L 116.0227 360.77881 L 115.74369 360.65816 L 115.46746 360.40209 L 114.84475 359.97958 L 114.32054 359.33887 L 114.0391 359.07796 L 95.86679 334.06592 L 95.74471 333.83362 L 95.57852 333.63049 L 95.34465 333.07235 L 95.06315 332.53669 L 95.01232 332.27923 L 94.91089 332.03717 L 94.84574 331.43555 L 94.72853 330.84188 L 94.75316 330.58059 L 94.72491 330.31968 L 94.83387 329.72447 L 94.89067 329.12197 L 94.97918 328.93068 L 95.03599 328.62038 L 95.81834 327.08016 L 95.85181 327.04486 L 95.86679 327.0125 L 111.4768 305.52717 L 98.4291 287.56855 L 73.17157 295.77522 L 72.6158 295.87045 L 72.07245 296.02119 L 71.7685 296.01563 L 71.46885 296.06697 L 70.90898 295.9999 L 70.34521 295.98958 L 70.05543 295.89764 L 69.75358 295.86148 L 69.23606 295.63768 L 68.69856 295.46715 L 68.44697 295.29644 L 68.16796 295.17579 L 67.89173 294.91972 L 67.26902 294.49721 L 66.74481 293.8565 L 66.46337 293.59559 L 48.29106 268.58355 L 48.16898 268.35125 L 48.00279 268.14812 L 47.76892 267.58998 L 47.48742 267.05432 L 47.43659 266.79686 L 47.33516 266.5548 L 47.27001 265.95318 L 47.1528 265.35951 L 47.17743 265.09822 L 47.14918 264.83731 L 47.25814 264.2421 L 47.31494 263.6396 L 47.40345 263.44831 L 47.46026 263.13801 L 48.24261 261.59779 L 48.27608 261.56249 L 48.29106 261.53013 L 63.90107 240.04479 L 48.29106 218.55946 L 48.16898 218.32716 L 48.00279 218.12403 L 47.76892 217.56589 L 47.48742 217.03023 L 47.43659 216.77277 L 47.33516 216.53071 L 47.27001 215.92909 L 47.1528 215.33542 L 47.17743 215.07413 L 47.14918 214.81322 L 47.25814 214.21801 L 47.31494 213.61551 L 47.40345 213.42422 L 47.46026 213.11392 L 48.24261 211.5737 L 48.27608 211.5384 L 48.29106 211.50604 L 66.46337 186.494 L 67.03776 185.90493 L 67.6037 185.30819 L 67.64006 185.28723 L 67.66941 185.25713 L 68.38785 184.85613 L 69.10034 184.44538 L 69.14121 184.43564 L 69.17788 184.41517 L 69.98053 184.23554 L 70.78078 184.04476 L 70.82272 184.04706 L 70.86371 184.03789 L 71.03993 184.059 L 72.50571 184.13955 L 72.90468 184.2824 L 73.17157 184.31437 L 98.4291 192.52104 L 111.4768 174.56242 L 95.86679 153.07708 L 95.74471 152.84478 L 95.57852 152.64165 L 95.34465 152.08351 L 95.06315 151.54785 L 95.01232 151.29039 L 94.91089 151.04833 L 94.84574 150.44671 L 94.72853 149.85304 L 94.75316 149.59175 L 94.72491 149.33084 L 94.83387 148.73563 L 94.89067 148.13313 L 94.97918 147.94184 L 95.03599 147.63154 L 95.81834 146.09132 L 95.85181 146.05602 L 95.86679 146.02366 L 114.0391 121.01162 L 114.61349 120.42255 L 115.17943 119.82581 L 115.21579 119.80485 L 115.24514 119.77475 L 115.96358 119.37375 L 116.67607 118.963 L 116.71694 118.95326 L 116.75361 118.93279 L 117.55626 118.75316 L 118.35651 118.56238 L 118.39845 118.56468 L 118.43944 118.55551 L 118.61566 118.57662 L 120.08144 118.65717 L 120.48041 118.80002 L 120.7473 118.83199 L 146.00483 127.03866 L 159.05253 109.08004 L 143.44252 87.59471 L 143.32044 87.36241 L 143.15425 87.15928 L 142.92038 86.60114 L 142.63888 86.06548 L 142.58805 85.80802 L 142.48662 85.56596 L 142.42147 84.96434 L 142.30426 84.37067 L 142.32889 84.10938 L 142.30064 83.84847 L 142.4096 83.25326 L 142.4664 82.65076 L 142.55491 82.45947 L 142.61172 82.14917 L 143.39407 80.60895 L 143.42754 80.57365 L 143.44252 80.54129 L 161.61483 55.52925 L 162.18922 54.94018 L 162.75516 54.34344 L 162.79152 54.32248 L 162.82087 54.29238 L 163.53931 53.89138 L 164.2518 53.48063 L 164.29267 53.47089 L 164.32934 53.45042 L 165.13199 53.27079 L 165.93224 53.08001 L 165.97418 53.08231 L 166.01517 53.07314 L 166.19139 53.09425 L 167.65717 53.1748 L 168.05614 53.31765 L 168.32303 53.34962 L 193.58056 61.55629 L 209.19056 40.07095 L 209.76495 39.48188 L 210.33089 38.88514 L 210.36725 38.86418 L 210.3966 38.83408 L 211.11518 38.433 L 211.82753 38.02233 L 211.86839 38.01259 L 211.90506 37.99212 L 212.7078 37.81247 L 213.50797 37.62171 L 213.5499 37.62401 L 213.5909 37.61484 Z M 200.72645 72.13642 L 200.22808 72.64753 L 199.75606 73.1832 L 199.62685 73.26413 L 199.52041 73.37329 L 198.89704 73.72123 L 198.29199 74.10019 L 198.14506 74.14095 L 198.01195 74.21525 L 197.31529 74.37116 L 196.62733 74.56202 L 196.47491 74.55923 L 196.32611 74.59253 L 195.9712 74.55001 L 194.90009 74.53041 L 194.34954 74.35574 L 194.01825 74.31605 L 168.76072 66.10938 L 155.71302 84.068 L 171.32303 105.55333 L 171.49608 105.88263 L 171.72097 106.17899 L 171.78756 106.43728 L 172.12667 107.08256 L 172.46129 108.77737 L 172.44244 108.9773 L 172.46893 109.08004 L 172.36616 109.78648 L 172.29915 110.49728 L 172.24606 110.612 L 172.22023 110.78958 L 171.49476 112.3574 L 171.3761 112.49206 L 171.32303 112.60675 L 155.71302 134.09208 L 170.17713 154.00021 L 197.72645 162.95153 L 199.27547 163.71633 L 200.54237 164.89079 L 201.42213 166.37753 L 201.87235 168.65787 L 201.87235 199.57446 L 201.62365 201.284 L 200.89818 202.85182 L 199.75606 204.14795 L 197.72645 205.2808 L 168.32303 214.83455 L 166.62031 215.1263 L 164.90504 214.92081 L 163.31942 214.23512 L 161.61483 212.65492 L 144.58842 189.22008 L 121.18499 181.61584 L 105.57499 203.10117 L 105.07662 203.61228 L 104.6046 204.14795 L 104.47539 204.22888 L 104.36895 204.33804 L 103.74561 204.68596 L 103.14053 205.06494 L 102.99358 205.10571 L 102.86048 205.18 L 102.16385 205.3359 L 101.47587 205.52677 L 101.32344 205.52398 L 101.17465 205.55728 L 100.81974 205.51476 L 99.74863 205.49516 L 99.19808 205.32049 L 98.86679 205.2808 L 73.60926 197.07413 L 60.56156 215.03275 L 76.17157 236.51808 L 76.34462 236.84738 L 76.56951 237.14374 L 76.6361 237.40203 L 76.97521 238.04731 L 77.30983 239.74212 L 77.29098 239.94205 L 77.31747 240.04479 L 77.2147 240.75123 L 77.14769 241.46203 L 77.0946 241.57675 L 77.06877 241.75433 L 76.3433 243.32215 L 76.22464 243.45681 L 76.17157 243.5715 L 60.56156 265.05684 L 73.60926 283.01546 L 98.86679 274.80879 L 99.52984 274.69518 L 100.1842 274.53918 L 100.37811 274.54984 L 100.56951 274.51704 L 101.23745 274.59706 L 101.90913 274.63397 L 102.09196 274.69943 L 102.28478 274.72253 L 102.90222 274.98954 L 103.53556 275.2163 L 103.69216 275.33114 L 103.8704 275.40822 L 104.14728 275.66489 L 104.92865 276.2379 L 105.31592 276.74826 L 105.57499 276.98842 L 121.18499 298.47375 L 144.58842 290.86951 L 161.61483 267.43467 L 162.82087 266.1978 L 164.32934 265.35584 L 166.01517 264.97856 L 168.32303 265.25504 L 197.72645 274.80879 L 199.27547 275.57359 L 200.54237 276.74805 L 201.42213 278.23479 L 201.87235 280.51513 L 201.87235 311.43171 L 201.62365 313.14125 L 200.89818 314.70907 L 199.75606 316.0052 L 197.72645 317.13805 L 170.17713 326.08937 L 155.71302 345.9975 L 171.32303 367.48284 L 172.12667 369.01207 L 172.46129 370.70688 L 172.29915 372.42679 L 171.32303 374.53626 L 155.71302 396.02159 L 168.76072 413.98021 L 194.01825 405.77354 L 195.72097 405.48179 L 197.43624 405.68728 L 199.02186 406.37297 L 200.72645 407.95317 L 216.33645 429.4385 L 237.44808 422.57891 L 237.44808 396.02159 L 237.69678 394.31205 L 238.42225 392.74423 L 239.56437 391.4481 L 241.59398 390.31525 L 266.8515 382.10858 L 266.8515 357.50076 L 249.82509 334.06592 L 249.02145 332.53669 L 248.68683 330.84188 L 248.84897 329.12197 L 249.82509 327.0125 L 267.9974 302.00046 L 269.20344 300.76359 L 270.71191 299.92163 L 272.39774 299.54435 L 274.7056 299.82083 L 304.10902 309.37458 L 305.65804 310.13938 L 306.92494 311.31384 L 307.8047 312.80058 L 308.25492 315.08092 L 308.25492 344.04799 L 322.71902 363.95613 L 347.97655 355.74946 L 349.67927 355.45771 L 351.39454 355.6632 L 352.98016 356.34889 L 354.68475 357.92909 L 370.29475 379.41442 L 391.40638 372.55483 L 391.40638 345.9975 L 391.65508 344.28796 L 392.38055 342.72014 L 393.52267 341.42401 L 395.55228 340.29116 L 420.8098 332.08449 L 420.8098 309.88643 L 395.55228 301.67976 L 394.00326 300.91496 L 392.73636 299.7405 L 391.8566 298.25376 L 391.40638 295.97342 L 391.40638 269.4161 L 368.00296 261.81186 L 340.45365 270.76318 L 339.89788 270.85841 L 339.35453 271.00915 L 339.05058 271.00359 L 338.75093 271.05493 L 338.19106 270.98786 L 337.62729 270.97754 L 337.33751 270.8856 L 337.03566 270.84944 L 336.51814 270.62564 L 335.98064 270.45511 L 335.72905 270.2844 L 335.45004 270.16375 L 335.17381 269.90768 L 334.5511 269.48517 L 334.02689 268.84446 L 333.74545 268.58355 L 315.57313 243.5715 L 315.45105 243.3392 L 315.28486 243.13607 L 315.05099 242.57793 L 314.76949 242.04227 L 314.71866 241.78481 L 314.61723 241.54275 L 314.55208 240.94113 L 314.43487 240.34746 L 314.4595 240.08617 L 314.43125 239.82526 L 314.54021 239.23005 L 314.59701 238.62755 L 314.68552 238.43626 L 314.74233 238.12596 L 315.52468 236.58574 L 315.55815 236.55044 L 315.57313 236.51808 L 333.74545 211.50604 L 334.31984 210.91697 L 334.88578 210.32023 L 334.92214 210.29927 L 334.95149 210.26917 L 335.67019 209.86802 L 336.38242 209.45742 L 336.42326 209.44768 L 336.45996 209.4272 L 337.26297 209.2475 L 338.06286 209.0568 L 338.10479 209.0591 L 338.14579 209.04993 L 338.32201 209.07104 L 339.78779 209.15159 L 340.18676 209.29444 L 340.45365 209.32641 L 368.00296 218.27773 L 391.40638 210.67349 L 391.40638 184.11617 L 391.42231 184.00665 L 391.4104 183.89664 L 391.54637 183.1539 L 391.65508 182.40663 L 391.70155 182.3062 L 391.72148 182.19734 L 392.06344 181.52413 L 392.38055 180.83881 L 392.45372 180.75578 L 392.50383 180.65712 L 393.02337 180.1093 L 393.52267 179.54268 L 393.60359 179.49751 L 393.69261 179.40365 L 395.18925 178.54084 L 395.41323 178.48744 L 395.55228 178.40983 L 420.8098 170.20316 L 420.8098 148.00509 L 395.55228 139.79842 L 395.18155 139.61538 L 394.78747 139.49035 L 394.4111 139.23498 L 394.00326 139.03362 L 393.70007 138.75255 L 393.35793 138.52041 L 393.0699 138.16836 L 392.73636 137.85916 L 392.52582 137.50335 L 392.26401 137.18336 L 392.08824 136.76387 L 391.8566 136.37242 L 391.79636 136.06729 L 391.59638 135.59004 L 391.46793 134.40383 L 391.40638 134.09208 L 391.40638 107.53476 L 370.29475 100.67517 L 354.68475 122.1605 L 354.18638 122.67161 L 353.71436 123.20728 L 353.58515 123.28821 L 353.47871 123.39737 L 352.85537 123.74529 L 352.25029 124.12427 L 352.10334 124.16504 L 351.97024 124.23933 L 351.27361 124.39523 L 350.58563 124.5861 L 350.4332 124.58331 L 350.28441 124.61661 L 349.9295 124.57409 L 348.85839 124.55449 L 348.30784 124.37982 L 347.97655 124.34013 L 322.71902 116.13346 L 308.25492 136.04159 L 308.25492 165.00867 L 308.00622 166.71821 L 307.28075 168.28603 L 306.13863 169.58216 L 304.10902 170.71501 L 274.7056 180.26876 L 273.00288 180.56051 L 271.28761 180.35502 L 269.70199 179.66933 L 267.9974 178.08913 L 249.82509 153.07708 L 249.02145 151.54785 L 248.68683 149.85304 L 248.84897 148.13313 L 249.82509 146.02366 L 266.8515 122.58882 L 266.8515 97.98101 L 241.59398 89.77434 L 241.22325 89.5913 L 240.82917 89.46627 L 240.4528 89.2109 L 240.04496 89.00954 L 239.74177 88.72847 L 239.39963 88.49633 L 239.1116 88.14428 L 238.77806 87.83508 L 238.56752 87.47927 L 238.30571 87.15928 L 238.12994 86.73979 L 237.8983 86.34834 L 237.83806 86.04321 L 237.63808 85.56596 L 237.50963 84.37975 L 237.44808 84.068 L 237.44808 57.51067 L 216.33645 50.65108 Z M 278.8515 359.91051 L 278.8515 384.51833 L 293.3156 404.42646 L 314.42723 397.56687 L 314.42723 372.95906 L 299.96313 353.05092 Z M 122.6014 310.63108 L 108.13729 330.53921 L 121.18499 348.49783 L 144.58842 340.89359 L 159.05253 320.98546 L 146.00483 303.02684 Z M 262.09559 330.53921 L 275.14329 348.49783 L 296.25492 341.63824 L 296.25492 319.44018 L 275.14329 312.58059 Z M 155.71302 295.97342 L 168.76072 313.93204 L 189.87235 307.07245 L 189.87235 284.87439 L 168.76072 278.0148 Z M 374.00296 228.94576 L 374.00296 251.14383 L 397.40638 258.74807 L 420.8098 251.14383 L 420.8098 228.94576 L 397.40638 221.34152 Z M 327.84364 240.04479 L 340.89134 258.00342 L 362.00296 251.14383 L 362.00296 228.94576 L 340.89134 222.08617 Z M 155.71302 184.11617 L 168.76072 202.07479 L 189.87235 195.2152 L 189.87235 173.01713 L 168.76072 166.15754 Z M 108.13729 149.55037 L 122.6014 169.45851 L 146.00483 177.06275 L 159.05253 159.10412 L 144.58842 139.19599 L 121.18499 131.59175 Z M 262.09559 149.55037 L 275.14329 167.509 L 296.25492 160.64941 L 296.25492 138.45134 L 275.14329 131.59175 Z M 278.8515 95.57126 L 278.8515 120.17907 L 299.96313 127.03866 L 314.42723 107.13053 L 314.42723 82.52272 L 293.3156 75.66313 Z" stroke-miterlimit="10"/><path fill="#222222" stroke="#cccccc" paint-order="fill stroke markers" d=" M 651.24265 34.96372 L 706.583 52.94489 L 708.13202 53.70969 L 709.39892 54.88415 L 710.27868 56.37089 L 710.7289 58.65123 L 710.7289 98.37343 L 734.07702 66.2375 L 735.28306 65.00063 L 736.79153 64.15866 L 738.47736 63.78139 L 740.78522 64.05787 L 796.12558 82.03904 L 797.6746 82.80384 L 798.9415 83.9783 L 799.82126 85.46504 L 800.27148 87.74538 L 800.27148 141.57441 L 851.46593 158.2085 L 851.93454 158.43987 L 852.4265 158.61601 L 852.7051 158.82032 L 853.01495 158.9733 L 853.39822 159.32861 L 853.81959 159.63761 L 854.02845 159.91285 L 854.28185 160.14776 L 854.54798 160.5975 L 854.86387 161.01379 L 854.91758 161.2221 L 855.16161 161.6345 L 855.61183 163.91484 L 855.61183 222.10313 L 855.36313 223.81267 L 854.63766 225.38049 L 853.49554 226.67662 L 852.03147 227.59361 L 851.67596 227.69224 L 851.46593 227.80947 L 813.68788 240.08431 L 851.46593 252.35914 L 853.01495 253.12394 L 854.28185 254.2984 L 855.16161 255.78514 L 855.61183 258.06548 L 855.61183 316.25377 L 855.36313 317.96331 L 854.63766 319.53113 L 853.49554 320.82726 L 851.46593 321.96011 L 800.27148 338.5942 L 800.27148 392.42323 L 800.02278 394.13277 L 799.29731 395.70059 L 798.15519 396.99672 L 796.12558 398.12957 L 740.78522 416.11075 L 739.0825 416.4025 L 737.36723 416.19701 L 735.78161 415.51132 L 734.07702 413.93112 L 710.7289 381.79519 L 710.7289 421.51738 L 710.4802 423.22692 L 709.75473 424.79474 L 708.61261 426.09087 L 706.583 427.22372 L 651.24265 445.20489 L 649.53993 445.49664 L 647.82466 445.29115 L 646.23904 444.60546 L 644.53445 443.02526 L 612.89454 399.47665 L 561.70007 416.11075 L 559.99735 416.4025 L 558.28208 416.19701 L 556.69646 415.51132 L 554.99187 413.93112 L 520.78965 366.8558 L 519.98601 365.32657 L 519.65139 363.63176 L 519.81353 361.91185 L 520.78965 359.80238 L 544.13777 327.66645 L 506.35972 339.94128 L 504.657 340.23303 L 502.94173 340.02754 L 501.35611 339.34185 L 499.65152 337.76165 L 465.4493 290.68633 L 464.64566 289.1571 L 464.31104 287.46229 L 464.47318 285.74238 L 465.4493 283.63291 L 497.08922 240.08431 L 465.4493 196.5357 L 464.64566 195.00647 L 464.31104 193.31166 L 464.47318 191.59175 L 465.4493 189.48228 L 499.65152 142.40696 L 500.85756 141.17009 L 502.36603 140.32813 L 504.05186 139.95085 L 506.35972 140.22733 L 544.13777 152.50216 L 520.78965 120.36623 L 519.98601 118.837 L 519.65139 117.14219 L 519.81353 115.42228 L 520.78965 113.31281 L 554.99187 66.2375 L 556.19791 65.00063 L 557.70638 64.15866 L 559.39221 63.78139 L 561.70007 64.05787 L 612.89454 80.69196 L 644.53445 37.14335 L 645.74049 35.90648 L 647.24896 35.06452 L 648.93479 34.68724 Z M 622.60273 392.42323 L 651.68034 432.44513 L 698.7289 417.15812 L 698.7289 367.68835 L 651.68034 352.40134 Z M 533.06015 363.32909 L 562.13776 403.35099 L 609.18633 388.06398 L 609.18633 338.5942 L 562.13776 323.30719 Z M 712.1453 363.32909 L 741.22291 403.35099 L 788.27148 388.06398 L 788.27148 338.5942 L 741.22291 323.30719 Z M 621.18633 336.18445 L 621.18633 373.95714 L 643.38855 343.39841 L 643.38855 305.62572 Z M 655.38855 291.51888 L 655.38855 340.98866 L 702.43711 356.27567 L 731.51472 316.25377 L 702.43711 276.23187 Z M 477.7198 287.15962 L 506.79741 327.18152 L 553.84597 311.89451 L 553.84597 262.42474 L 506.79741 247.13773 Z M 565.84597 262.42474 L 565.84597 311.89451 L 612.89454 327.18152 L 641.97215 287.15962 L 612.89454 247.13773 Z M 767.48566 287.15962 L 796.56327 327.18152 L 843.61183 311.89451 L 843.61183 262.42474 L 796.56327 247.13773 Z M 742.63932 311.14986 L 778.56328 322.82226 L 756.36106 292.26353 L 720.4371 280.59113 Z M 622.60273 240.08431 L 651.68034 280.1062 L 698.7289 264.81919 L 698.7289 215.34942 L 651.68034 200.06241 Z M 710.7289 215.34942 L 710.7289 264.81919 L 757.77747 280.1062 L 786.85508 240.08431 L 757.77747 200.06241 Z M 523.92202 240.08431 L 559.84597 251.75671 L 595.76992 240.08431 L 559.84597 228.4119 Z M 477.7198 193.00899 L 506.79741 233.03089 L 553.84597 217.74388 L 553.84597 168.2741 L 506.79741 152.98709 Z M 565.84597 168.2741 L 565.84597 217.74388 L 612.89454 233.03089 L 641.97215 193.00899 L 612.89454 152.98709 Z M 767.48566 193.00899 L 796.56327 233.03089 L 843.61183 217.74388 L 843.61183 168.2741 L 796.56327 152.98709 Z M 655.38855 139.17995 L 655.38855 188.64973 L 702.43711 203.93674 L 731.51472 163.91484 L 702.43711 123.89294 Z M 742.63932 169.01875 L 720.4371 199.57748 L 756.36106 187.90508 L 778.56328 157.34635 Z M 621.18633 143.98416 L 643.38855 174.54289 L 643.38855 136.77021 L 621.18633 106.21148 Z M 533.06015 116.83952 L 562.13776 156.86142 L 609.18633 141.57441 L 609.18633 92.10464 L 562.13776 76.81763 Z M 712.1453 116.83952 L 741.22291 156.86142 L 788.27148 141.57441 L 788.27148 92.10464 L 741.22291 76.81763 Z M 622.60273 87.74538 L 651.68034 127.76728 L 698.7289 112.48027 L 698.7289 63.01049 L 651.68034 47.72348 Z" stroke-miterlimit="10"/><path fill="#222222" stroke="#cccccc" paint-order="fill stroke markers" d=" M 232.50288 454.36657 L 233.96866 454.44712 L 234.36763 454.58997 L 234.63452 454.62194 L 272.28575 466.85557 L 272.75436 467.08694 L 273.24632 467.26308 L 273.52492 467.46739 L 273.83477 467.62037 L 274.21804 467.97568 L 274.63941 468.28468 L 274.84827 468.55992 L 275.10167 468.79483 L 275.3678 469.24457 L 275.68369 469.66086 L 275.7374 469.86917 L 275.98143 470.28157 L 276.43165 472.56191 L 276.43165 507.7915 L 305.79108 517.33096 L 326.49851 488.82962 L 327.0729 488.24055 L 327.63884 487.64381 L 327.6752 487.62285 L 327.70455 487.59275 L 328.42299 487.19175 L 329.13548 486.781 L 329.17635 486.77126 L 329.21302 486.75079 L 330.01567 486.57116 L 330.81592 486.38038 L 330.85786 486.38268 L 330.89885 486.37351 L 331.07507 486.39462 L 332.54085 486.47517 L 332.93982 486.61802 L 333.20671 486.64999 L 370.85794 498.88361 L 371.32655 499.11498 L 371.81851 499.29112 L 372.09711 499.49543 L 372.40696 499.64841 L 372.79023 500.00372 L 373.2116 500.31272 L 373.42046 500.58796 L 373.67386 500.82287 L 373.93999 501.27261 L 374.25588 501.6889 L 374.30959 501.89721 L 374.55362 502.30961 L 375.00384 504.58995 L 375.00384 544.1788 L 374.75514 545.88834 L 374.02967 547.45616 L 372.88755 548.75229 L 371.42348 549.66928 L 371.06797 549.76791 L 370.85794 549.88514 L 337.35261 560.77168 L 337.35261 591.642 L 366.71205 601.18147 L 387.41948 572.68013 L 387.99387 572.09106 L 388.55981 571.49432 L 388.59617 571.47336 L 388.62552 571.44326 L 389.34396 571.04226 L 390.05645 570.63151 L 390.09732 570.62177 L 390.13399 570.6013 L 390.93664 570.42167 L 391.73689 570.23089 L 391.77883 570.23319 L 391.81982 570.22402 L 391.99604 570.24513 L 393.46182 570.32568 L 393.86079 570.46853 L 394.12768 570.5005 L 431.7789 582.73413 L 432.24751 582.9655 L 432.73947 583.14164 L 433.01807 583.34595 L 433.32792 583.49893 L 433.71119 583.85424 L 434.13256 584.16324 L 434.34142 584.43848 L 434.59482 584.67339 L 434.86095 585.12313 L 435.17684 585.53942 L 435.23055 585.74773 L 435.47458 586.16013 L 435.9248 588.44047 L 435.9248 628.02931 L 435.6761 629.73885 L 434.95063 631.30667 L 433.80851 632.6028 L 432.34444 633.51979 L 431.98893 633.61842 L 431.7789 633.73565 L 398.27358 644.62219 L 398.27358 675.49252 L 431.7789 686.37906 L 432.24751 686.61043 L 432.73947 686.78657 L 433.01807 686.99088 L 433.32792 687.14386 L 433.71119 687.49917 L 434.13256 687.80817 L 434.34142 688.08341 L 434.59482 688.31832 L 434.86095 688.76806 L 435.17684 689.18435 L 435.23055 689.39266 L 435.47458 689.80506 L 435.9248 692.0854 L 435.9248 731.67425 L 435.6761 733.38379 L 434.95063 734.95161 L 433.80851 736.24774 L 432.34444 737.16473 L 431.98893 737.26336 L 431.7789 737.38059 L 394.12768 749.61421 L 393.57191 749.70944 L 393.02856 749.86018 L 392.72461 749.85462 L 392.42496 749.90596 L 391.86509 749.83889 L 391.30132 749.82857 L 391.01154 749.73663 L 390.70969 749.70047 L 390.19217 749.47667 L 389.65467 749.30614 L 389.40308 749.13543 L 389.12407 749.01478 L 388.84784 748.75871 L 388.22513 748.3362 L 387.70092 747.69549 L 387.41948 747.43458 L 366.71205 718.93325 L 337.35261 728.47271 L 337.35261 759.34303 L 370.85794 770.22958 L 371.32655 770.46095 L 371.81851 770.63709 L 372.09711 770.8414 L 372.40696 770.99438 L 372.79023 771.34969 L 373.2116 771.65869 L 373.42046 771.93393 L 373.67386 772.16884 L 373.93999 772.61858 L 374.25588 773.03487 L 374.30959 773.24318 L 374.55362 773.65558 L 375.00384 775.93592 L 375.00384 815.52476 L 374.75514 817.2343 L 374.02967 818.80212 L 372.88755 820.09825 L 371.42348 821.01524 L 371.06797 821.11387 L 370.85794 821.2311 L 333.20671 833.46473 L 332.65094 833.55996 L 332.10759 833.7107 L 331.80364 833.70514 L 331.50399 833.75648 L 330.94412 833.68941 L 330.38035 833.67909 L 330.09057 833.58715 L 329.78872 833.55099 L 329.2712 833.32719 L 328.7337 833.15666 L 328.48211 832.98595 L 328.2031 832.8653 L 327.92687 832.60923 L 327.30416 832.18672 L 326.77995 831.54601 L 326.49851 831.2851 L 305.79108 802.78376 L 276.43165 812.32322 L 276.43165 847.55281 L 276.18295 849.26235 L 275.45748 850.83017 L 274.31536 852.1263 L 272.85129 853.04329 L 272.49578 853.14192 L 272.28575 853.25915 L 234.63452 865.49277 L 234.07875 865.588 L 233.5354 865.73874 L 233.23145 865.73318 L 232.9318 865.78452 L 232.37193 865.71745 L 231.80816 865.70713 L 231.51838 865.61519 L 231.21653 865.57903 L 230.69901 865.35523 L 230.16151 865.1847 L 229.90992 865.01399 L 229.63091 864.89334 L 229.35468 864.63727 L 228.73197 864.21476 L 228.20776 863.57405 L 227.92632 863.31314 L 204.65658 831.2851 L 204.5345 831.05279 L 204.36831 830.84967 L 204.13445 830.29156 L 203.85294 829.75588 L 203.8021 829.4984 L 203.70068 829.25635 L 203.63553 828.65474 L 203.51832 828.06106 L 203.54295 827.79977 L 203.5147 827.53886 L 203.62366 826.94365 L 203.68046 826.34115 L 203.76897 826.14986 L 203.82578 825.83956 L 204.60813 824.29934 L 204.6416 824.26404 L 204.65658 824.23168 L 225.36402 795.73034 L 207.21889 770.75571 L 177.85945 780.29518 L 177.85945 815.52476 L 177.61075 817.2343 L 176.88528 818.80212 L 175.74316 820.09825 L 174.27909 821.01524 L 173.92358 821.11387 L 173.71355 821.2311 L 136.06233 833.46473 L 135.50656 833.55996 L 134.96321 833.7107 L 134.65926 833.70514 L 134.35961 833.75648 L 133.79974 833.68941 L 133.23597 833.67909 L 132.94619 833.58715 L 132.64434 833.55099 L 132.12682 833.32719 L 131.58932 833.15666 L 131.33773 832.98595 L 131.05872 832.8653 L 130.78249 832.60923 L 130.15978 832.18672 L 129.63557 831.54601 L 129.35413 831.2851 L 106.08439 799.25705 L 105.96231 799.02475 L 105.79612 798.82162 L 105.56225 798.26348 L 105.28075 797.72782 L 105.22992 797.47036 L 105.12849 797.2283 L 105.06334 796.62668 L 104.94613 796.03301 L 104.97076 795.77172 L 104.94251 795.51081 L 105.05147 794.9156 L 105.10827 794.3131 L 105.19678 794.12181 L 105.25359 793.81151 L 106.03594 792.27129 L 106.06941 792.23599 L 106.08439 792.20363 L 126.79182 763.70229 L 108.6467 738.72767 L 75.14136 749.61421 L 74.58559 749.70944 L 74.04224 749.86018 L 73.73829 749.85462 L 73.43864 749.90596 L 72.87877 749.83889 L 72.315 749.82857 L 72.02522 749.73663 L 71.72337 749.70047 L 71.20585 749.47667 L 70.66835 749.30614 L 70.41676 749.13543 L 70.13775 749.01478 L 69.86152 748.75871 L 69.23881 748.3362 L 68.7146 747.69549 L 68.43316 747.43458 L 45.16342 715.40654 L 45.04134 715.17423 L 44.87515 714.97111 L 44.64129 714.413 L 44.35978 713.87732 L 44.30894 713.61984 L 44.20752 713.37779 L 44.14237 712.77618 L 44.02516 712.1825 L 44.04979 711.92121 L 44.02154 711.6603 L 44.1305 711.06509 L 44.1873 710.46259 L 44.27581 710.2713 L 44.33262 709.961 L 45.11497 708.42078 L 45.14844 708.38548 L 45.16342 708.35312 L 68.43316 676.32507 L 69.00755 675.736 L 69.57349 675.13926 L 69.60985 675.1183 L 69.6392 675.0882 L 70.35764 674.6872 L 71.07013 674.27645 L 71.111 674.26671 L 71.14767 674.24624 L 71.95032 674.06661 L 72.75057 673.87583 L 72.79251 673.87813 L 72.8335 673.86896 L 73.00972 673.89007 L 74.4755 673.97062 L 74.87447 674.11347 L 75.14136 674.14544 L 108.6467 685.03198 L 126.79182 660.05736 L 108.6467 635.08273 L 75.14136 645.96928 L 74.58559 646.06451 L 74.04224 646.21525 L 73.73829 646.20969 L 73.43864 646.26103 L 72.87877 646.19396 L 72.315 646.18364 L 72.02522 646.0917 L 71.72337 646.05554 L 71.20585 645.83174 L 70.66835 645.66121 L 70.41676 645.4905 L 70.13775 645.36985 L 69.86152 645.11378 L 69.23881 644.69127 L 68.7146 644.05056 L 68.43316 643.78965 L 45.16342 611.7616 L 45.04134 611.5293 L 44.87515 611.32617 L 44.64128 610.76803 L 44.35978 610.23237 L 44.30895 609.97491 L 44.20752 609.73285 L 44.14237 609.13123 L 44.02516 608.53756 L 44.04979 608.27627 L 44.02154 608.01536 L 44.1305 607.42015 L 44.1873 606.81765 L 44.27581 606.62636 L 44.33262 606.31606 L 45.11497 604.77584 L 45.14844 604.74054 L 45.16342 604.70818 L 68.43316 572.68013 L 69.00755 572.09106 L 69.57349 571.49432 L 69.60985 571.47336 L 69.6392 571.44326 L 70.35764 571.04226 L 71.07013 570.63151 L 71.111 570.62177 L 71.14767 570.6013 L 71.95032 570.42167 L 72.75057 570.23089 L 72.79251 570.23319 L 72.8335 570.22402 L 73.00972 570.24513 L 74.4755 570.32568 L 74.87447 570.46853 L 75.14136 570.5005 L 108.6467 581.38705 L 126.79182 556.41242 L 106.08439 527.91109 L 105.96231 527.67878 L 105.79612 527.47566 L 105.56226 526.91755 L 105.28075 526.38187 L 105.22991 526.12439 L 105.12849 525.88234 L 105.06334 525.28073 L 104.94613 524.68705 L 104.97076 524.42576 L 104.94251 524.16485 L 105.05147 523.56964 L 105.10827 522.96714 L 105.19678 522.77585 L 105.25359 522.46555 L 106.03594 520.92533 L 106.06941 520.89003 L 106.08439 520.85767 L 129.35413 488.82962 L 129.92852 488.24055 L 130.49446 487.64381 L 130.53082 487.62285 L 130.56017 487.59275 L 131.27861 487.19175 L 131.9911 486.781 L 132.03197 486.77126 L 132.06864 486.75079 L 132.87129 486.57116 L 133.67154 486.38038 L 133.71348 486.38268 L 133.75447 486.37351 L 133.93069 486.39462 L 135.39647 486.47517 L 135.79544 486.61802 L 136.06233 486.64999 L 173.71355 498.88361 L 174.18216 499.11498 L 174.67412 499.29112 L 174.95272 499.49543 L 175.26257 499.64841 L 175.64584 500.00372 L 176.06721 500.31272 L 176.27607 500.58796 L 176.52947 500.82287 L 176.7956 501.27261 L 177.11149 501.6889 L 177.1652 501.89721 L 177.40923 502.30961 L 177.85945 504.58995 L 177.85945 539.81954 L 207.21889 549.359 L 225.36401 524.38438 L 204.65658 495.88304 L 204.5345 495.65074 L 204.36831 495.44761 L 204.13444 494.88947 L 203.85294 494.35381 L 203.80211 494.09635 L 203.70068 493.85429 L 203.63553 493.25267 L 203.51832 492.659 L 203.54295 492.39771 L 203.5147 492.1368 L 203.62366 491.54159 L 203.68046 490.93909 L 203.76897 490.7478 L 203.82578 490.4375 L 204.60813 488.89728 L 204.6416 488.86198 L 204.65658 488.82962 L 227.92632 456.80157 L 228.50071 456.2125 L 229.06665 455.61576 L 229.10301 455.5948 L 229.13236 455.5647 L 229.8508 455.1637 L 230.56329 454.75295 L 230.60416 454.74321 L 230.64083 454.72274 L 231.44348 454.54311 L 232.24373 454.35233 L 232.28567 454.35463 L 232.32666 454.34546 Z M 216.92708 492.35633 L 237.63452 520.85767 L 237.80757 521.18697 L 238.03246 521.48333 L 238.09905 521.74162 L 238.43816 522.3869 L 238.77278 524.08171 L 238.75393 524.28164 L 238.78042 524.38438 L 238.67765 525.09082 L 238.61064 525.80162 L 238.55755 525.91634 L 238.53172 526.09392 L 237.80625 527.66174 L 237.68759 527.7964 L 237.63452 527.91109 L 214.36478 559.93913 L 213.86641 560.45024 L 213.39439 560.98591 L 213.26518 561.06684 L 213.15874 561.176 L 212.53534 561.52396 L 211.93032 561.9029 L 211.78341 561.94366 L 211.65027 562.01797 L 210.95353 562.17389 L 210.26566 562.36473 L 210.11324 562.36194 L 209.96444 562.39524 L 209.60953 562.35272 L 208.53842 562.33312 L 207.98787 562.15845 L 207.65658 562.11876 L 170.00535 549.88514 L 169.63462 549.7021 L 169.24054 549.57707 L 168.86417 549.3217 L 168.45633 549.12034 L 168.15314 548.83927 L 167.811 548.60713 L 167.52297 548.25508 L 167.18943 547.94588 L 166.97889 547.59007 L 166.71708 547.27008 L 166.54131 546.85059 L 166.30967 546.45914 L 166.24943 546.15401 L 166.04945 545.67676 L 165.921 544.49055 L 165.85945 544.1788 L 165.85945 508.94921 L 136.50002 499.40975 L 118.3549 524.38438 L 137.91643 551.30851 L 173.71355 562.93971 L 174.18216 563.17108 L 174.67412 563.34722 L 174.95272 563.55153 L 175.26257 563.70451 L 175.64584 564.05982 L 176.06721 564.36882 L 176.27607 564.64406 L 176.52947 564.87897 L 176.7956 565.32871 L 177.11149 565.745 L 177.1652 565.95331 L 177.40923 566.36571 L 177.85945 568.64605 L 177.85945 608.23489 L 177.61075 609.94443 L 176.88528 611.51225 L 175.74316 612.80838 L 174.27909 613.72537 L 173.92358 613.824 L 173.71355 613.94123 L 136.06233 626.17486 L 135.50656 626.27009 L 134.96321 626.42083 L 134.65926 626.41527 L 134.35961 626.46661 L 133.79974 626.39954 L 133.23597 626.38922 L 132.94619 626.29728 L 132.64434 626.26112 L 132.12682 626.03732 L 131.58932 625.86679 L 131.33773 625.69608 L 131.05872 625.57543 L 130.78249 625.31936 L 130.15978 624.89685 L 129.63557 624.25614 L 129.35413 623.99523 L 107.23029 593.54438 L 75.57905 583.26026 L 57.43392 608.23489 L 75.57905 633.20952 L 109.08439 622.32297 L 109.74744 622.20936 L 110.4018 622.05336 L 110.59571 622.06402 L 110.78711 622.03122 L 111.45505 622.11124 L 112.12673 622.14815 L 112.30956 622.21361 L 112.50238 622.23671 L 113.11982 622.50372 L 113.75316 622.73048 L 113.90976 622.84532 L 114.088 622.9224 L 114.36488 623.17907 L 115.14625 623.75208 L 115.53352 624.26244 L 115.79259 624.5026 L 139.06233 656.53065 L 139.23538 656.85995 L 139.46027 657.15631 L 139.52686 657.4146 L 139.86597 658.05988 L 140.20059 659.75469 L 140.18174 659.95462 L 140.20823 660.05736 L 140.10546 660.7638 L 140.03845 661.4746 L 139.98536 661.58932 L 139.95953 661.7669 L 139.23406 663.33472 L 139.1154 663.46938 L 139.06233 663.58407 L 115.79259 695.61211 L 115.29422 696.12322 L 114.8222 696.65889 L 114.69299 696.73982 L 114.58655 696.84898 L 113.96315 697.19694 L 113.35813 697.57588 L 113.21122 697.61664 L 113.07808 697.69095 L 112.38134 697.84687 L 111.69347 698.03771 L 111.54105 698.03492 L 111.39225 698.06822 L 111.03734 698.0257 L 109.96623 698.0061 L 109.41568 697.83143 L 109.08439 697.79174 L 75.57905 686.9052 L 57.43393 711.87983 L 75.57905 736.85445 L 107.23029 726.57034 L 129.35413 696.11949 L 130.56017 694.88262 L 132.06864 694.04066 L 133.75447 693.66338 L 136.06233 693.93986 L 173.71355 706.17349 L 175.26257 706.93829 L 176.52947 708.11275 L 177.40923 709.59949 L 177.85945 711.87983 L 177.85945 751.46867 L 177.61075 753.17821 L 176.88528 754.74603 L 175.74316 756.04216 L 173.71355 757.17501 L 137.91643 768.8062 L 118.35489 795.73034 L 136.50002 820.70497 L 165.85945 811.16551 L 165.85945 775.93592 L 165.87538 775.8264 L 165.86347 775.71639 L 165.99944 774.97365 L 166.10815 774.22638 L 166.15462 774.12595 L 166.17455 774.01709 L 166.51651 773.34388 L 166.83362 772.65856 L 166.90679 772.57553 L 166.9569 772.47687 L 167.47644 771.92905 L 167.97574 771.36243 L 168.05666 771.31726 L 168.14568 771.2234 L 169.64232 770.36059 L 169.8663 770.30719 L 170.00535 770.22958 L 207.65658 757.99595 L 208.31963 757.88234 L 208.97399 757.72634 L 209.1679 757.737 L 209.3593 757.7042 L 210.02724 757.78422 L 210.69892 757.82113 L 210.88175 757.88659 L 211.07457 757.90969 L 211.69201 758.1767 L 212.32535 758.40346 L 212.48195 758.5183 L 212.66019 758.59538 L 212.93707 758.85205 L 213.71844 759.42506 L 214.10571 759.93542 L 214.36478 760.17558 L 237.63452 792.20363 L 237.80757 792.53293 L 238.03246 792.82929 L 238.09905 793.08758 L 238.43816 793.73286 L 238.77278 795.42767 L 238.75393 795.6276 L 238.78042 795.73034 L 238.67765 796.43678 L 238.61064 797.14758 L 238.55755 797.2623 L 238.53172 797.43988 L 237.80625 799.0077 L 237.68759 799.14236 L 237.63452 799.25705 L 216.92709 827.75839 L 235.07221 852.73301 L 264.43165 843.19355 L 264.43165 809.91348 L 242.30781 779.46263 L 242.18573 779.23033 L 242.01954 779.0272 L 241.78567 778.46906 L 241.50417 777.9334 L 241.45334 777.67594 L 241.35191 777.43388 L 241.28676 776.83226 L 241.16955 776.23859 L 241.19418 775.9773 L 241.16593 775.71639 L 241.27489 775.12118 L 241.33169 774.51868 L 241.4202 774.32739 L 241.47701 774.01709 L 242.25936 772.47687 L 242.29283 772.44157 L 242.30781 772.40921 L 265.57755 740.38116 L 266.15194 739.79209 L 266.71788 739.19535 L 266.75424 739.17439 L 266.78359 739.14429 L 267.50203 738.74329 L 268.21452 738.33254 L 268.25539 738.3228 L 268.29206 738.30233 L 269.09471 738.1227 L 269.89496 737.93192 L 269.9369 737.93422 L 269.97789 737.92505 L 270.15411 737.94616 L 271.61989 738.02671 L 272.01886 738.16956 L 272.28575 738.20153 L 309.93697 750.43516 L 310.40558 750.66653 L 310.89754 750.84267 L 311.17614 751.04698 L 311.48599 751.19996 L 311.86926 751.55527 L 312.29063 751.86427 L 312.49949 752.13951 L 312.75289 752.37442 L 313.01902 752.82416 L 313.33491 753.24045 L 313.38862 753.44876 L 313.63265 753.86116 L 314.08287 756.1415 L 314.08287 793.78083 L 333.6444 820.70497 L 363.00384 811.1655 L 363.00384 780.29518 L 329.49851 769.40863 L 329.12778 769.22559 L 328.7337 769.10056 L 328.35733 768.84519 L 327.94949 768.64383 L 327.6463 768.36276 L 327.30416 768.13062 L 327.01613 767.77857 L 326.68259 767.46937 L 326.47205 767.11356 L 326.21024 766.79357 L 326.03447 766.37408 L 325.80283 765.98263 L 325.74259 765.6775 L 325.54261 765.20025 L 325.41416 764.01404 L 325.35261 763.70229 L 325.35261 724.11345 L 325.36854 724.00393 L 325.35663 723.89392 L 325.4926 723.15118 L 325.60131 722.40391 L 325.64778 722.30348 L 325.66771 722.19462 L 326.00967 721.52141 L 326.32678 720.83609 L 326.39995 720.75306 L 326.45006 720.6544 L 326.9696 720.10658 L 327.4689 719.53996 L 327.54982 719.49479 L 327.63884 719.40093 L 329.13548 718.53812 L 329.35946 718.48472 L 329.49851 718.40711 L 367.14974 706.17349 L 367.81279 706.05988 L 368.46715 705.90388 L 368.66106 705.91454 L 368.85246 705.88174 L 369.5204 705.96176 L 370.19208 705.99867 L 370.37491 706.06413 L 370.56773 706.08723 L 371.18517 706.35424 L 371.81851 706.581 L 371.97511 706.69584 L 372.15335 706.77292 L 372.43023 707.02959 L 373.2116 707.6026 L 373.59887 708.11296 L 373.85794 708.35312 L 394.56537 736.85445 L 423.9248 727.31499 L 423.9248 696.44466 L 392.27358 686.16055 L 356.47645 697.79174 L 354.77373 698.08349 L 353.05846 697.878 L 351.47284 697.19231 L 349.76825 695.61211 L 326.49851 663.58407 L 325.69487 662.05485 L 325.36025 660.36003 L 325.52239 658.64012 L 326.49851 656.53065 L 349.76825 624.5026 L 350.05688 624.2066 L 350.29758 623.87042 L 350.65675 623.59139 L 350.97429 623.26573 L 351.33531 623.06423 L 351.6618 622.81058 L 352.08563 622.64543 L 352.48276 622.42377 L 352.88617 622.33349 L 353.27145 622.18336 L 353.72475 622.14582 L 354.16859 622.04649 L 354.58109 622.0749 L 354.99309 622.04078 L 355.50804 622.13874 L 355.89204 622.16519 L 356.14597 622.2601 L 356.47645 622.32297 L 392.27358 633.95417 L 423.9248 623.67006 L 423.9248 592.79972 L 394.56537 583.26026 L 373.85794 611.7616 L 373.35957 612.27271 L 372.88755 612.80838 L 372.75834 612.88931 L 372.6519 612.99847 L 372.02856 613.34639 L 371.42348 613.72537 L 371.27653 613.76614 L 371.14343 613.84043 L 370.4468 613.99633 L 369.75882 614.1872 L 369.60639 614.18441 L 369.4576 614.21771 L 369.10269 614.17519 L 368.03158 614.15559 L 367.48103 613.98092 L 367.14974 613.94123 L 329.49851 601.7076 L 329.12778 601.52456 L 328.7337 601.39953 L 328.35733 601.14416 L 327.94949 600.9428 L 327.6463 600.66173 L 327.30416 600.42959 L 327.01613 600.07754 L 326.68259 599.76834 L 326.47205 599.41253 L 326.21024 599.09254 L 326.03447 598.67305 L 325.80283 598.2816 L 325.74259 597.97647 L 325.54261 597.49922 L 325.41416 596.31301 L 325.35261 596.00126 L 325.35261 556.41242 L 325.36854 556.3029 L 325.35663 556.19289 L 325.4926 555.45015 L 325.60131 554.70288 L 325.64778 554.60245 L 325.66771 554.49359 L 326.00967 553.82038 L 326.32678 553.13506 L 326.39995 553.05203 L 326.45006 552.95337 L 326.9696 552.40555 L 327.4689 551.83893 L 327.54982 551.79376 L 327.63884 551.6999 L 329.13548 550.83709 L 329.35946 550.78369 L 329.49851 550.70608 L 363.00384 539.81954 L 363.00384 508.94921 L 333.6444 499.40975 L 314.08287 526.33389 L 314.08287 563.97322 L 313.83417 565.68276 L 313.1087 567.25058 L 311.96658 568.54671 L 309.93697 569.67956 L 272.28575 581.91318 L 270.58303 582.20493 L 268.86776 581.99944 L 267.28214 581.31375 L 265.57755 579.73355 L 242.30781 547.70551 L 241.50417 546.17629 L 241.16955 544.48147 L 241.33169 542.76156 L 242.30781 540.65209 L 264.43165 510.20124 L 264.43165 476.92117 L 235.07221 467.3817 Z M 254.57831 775.93592 L 272.72344 800.91055 L 302.08287 791.37109 L 302.08287 760.50075 L 272.72344 750.96129 Z M 118.3549 731.67425 L 136.50002 756.64887 L 165.85945 747.10941 L 165.85945 716.23908 L 136.50002 706.69962 Z M 338.76902 660.05736 L 356.91414 685.03198 L 386.27358 675.49252 L 386.27358 644.6222 L 356.91414 635.08273 Z M 118.35489 588.44047 L 136.50002 613.4151 L 165.85945 603.87564 L 165.85945 573.0053 L 136.50002 563.46584 Z M 254.57832 544.1788 L 272.72344 569.15342 L 302.08287 559.61396 L 302.08287 528.74363 L 272.72344 519.20417 Z" stroke-miterlimit="10"/><path fill="#222222" stroke="#cccccc" paint-order="fill stroke markers" d=" M 692.81894 459.43821 L 726.248 470.29997 L 727.79702 471.06477 L 729.06392 472.23923 L 729.94368 473.72597 L 730.3939 476.00631 L 730.3939 506.79644 L 759.67706 516.31112 L 761.22608 517.07592 L 762.49298 518.25038 L 763.37274 519.73712 L 763.82296 522.01746 L 763.82296 557.16686 L 763.57426 558.8764 L 762.84879 560.44422 L 761.70667 561.74035 L 759.67706 562.8732 L 730.3939 572.38788 L 730.3939 598.81875 L 755.53117 606.98635 L 773.62916 582.0766 L 774.20355 581.48753 L 774.76949 580.89079 L 774.80585 580.86983 L 774.8352 580.83973 L 775.5539 580.43858 L 776.26613 580.02798 L 776.30697 580.01824 L 776.34367 579.99776 L 777.14668 579.81806 L 777.94657 579.62736 L 777.9885 579.62966 L 778.0295 579.62049 L 778.20572 579.6416 L 779.6715 579.72215 L 780.07047 579.865 L 780.33736 579.89697 L 813.76642 590.75873 L 814.23503 590.9901 L 814.72699 591.16624 L 815.00559 591.37055 L 815.31544 591.52353 L 815.69871 591.87884 L 816.12008 592.18784 L 816.32894 592.46308 L 816.58234 592.69799 L 816.84847 593.14773 L 817.16436 593.56402 L 817.21807 593.77233 L 817.4621 594.18473 L 817.91232 596.46507 L 817.91232 627.25521 L 847.19548 636.76989 L 847.66409 637.00126 L 848.15605 637.1774 L 848.43465 637.38171 L 848.7445 637.53469 L 849.12777 637.89 L 849.54914 638.199 L 849.758 638.47424 L 850.0114 638.70915 L 850.27753 639.15889 L 850.59342 639.57518 L 850.64713 639.78349 L 850.89116 640.19589 L 851.34138 642.47623 L 851.34138 677.62562 L 851.09268 679.33516 L 850.36721 680.90298 L 849.22509 682.19911 L 847.19548 683.33196 L 817.91232 692.84664 L 817.91232 723.63678 L 817.66362 725.34632 L 816.93815 726.91414 L 815.79603 728.21027 L 813.76642 729.34312 L 780.33736 740.20488 L 778.63464 740.49663 L 776.91937 740.29114 L 775.33375 739.60545 L 773.62916 738.02525 L 755.53117 713.1155 L 730.3939 721.2831 L 730.3939 747.71398 L 759.67706 757.22866 L 761.22608 757.99346 L 762.49298 759.16792 L 763.37274 760.65466 L 763.82296 762.935 L 763.82296 798.08439 L 763.57426 799.79393 L 762.84879 801.36175 L 761.70667 802.65788 L 759.67706 803.79073 L 730.3939 813.30541 L 730.3939 844.09554 L 730.1452 845.80508 L 729.41973 847.3729 L 728.27761 848.66903 L 726.248 849.80188 L 692.81894 860.66364 L 691.11622 860.95539 L 689.40095 860.7499 L 687.81533 860.06421 L 686.11074 858.48401 L 668.01275 833.57427 L 638.72958 843.08895 L 637.02686 843.3807 L 635.31159 843.17521 L 633.72597 842.48952 L 632.02138 840.90932 L 611.36109 812.47286 L 610.55745 810.94363 L 610.22283 809.24882 L 610.38497 807.52891 L 611.36109 805.41944 L 629.45908 780.50969 L 613.9234 759.12666 L 588.78613 767.29426 L 588.78613 798.08439 L 588.53743 799.79393 L 587.81196 801.36175 L 586.66984 802.65788 L 584.64023 803.79073 L 551.21117 814.65249 L 549.50845 814.94424 L 547.79318 814.73875 L 546.20756 814.05306 L 544.50297 812.47286 L 526.40498 787.56311 L 497.12181 797.07779 L 495.41909 797.36954 L 493.70382 797.16405 L 492.1182 796.47836 L 490.41361 794.89816 L 469.75332 766.46171 L 468.94968 764.93248 L 468.61506 763.23767 L 468.7772 761.51776 L 469.75332 759.40829 L 487.85131 734.49854 L 469.75332 709.58879 L 468.94968 708.05956 L 468.61506 706.36475 L 468.7772 704.64484 L 469.75332 702.53537 L 490.41361 674.09891 L 491.61965 672.86204 L 493.12811 672.02008 L 494.81395 671.6428 L 497.12181 671.91928 L 526.40498 681.43396 L 541.94066 660.05093 L 526.40498 638.66789 L 497.12181 648.18257 L 495.41909 648.47432 L 493.70382 648.26883 L 492.1182 647.58314 L 490.41361 646.00294 L 469.75332 617.56648 L 468.94968 616.03725 L 468.61506 614.34244 L 468.7772 612.62253 L 469.75332 610.51306 L 487.85131 585.60331 L 469.75332 560.69357 L 468.94968 559.16434 L 468.61506 557.46953 L 468.7772 555.74962 L 469.75332 553.64015 L 490.41361 525.20369 L 491.61965 523.96682 L 493.12811 523.12486 L 494.81395 522.74758 L 497.12181 523.02406 L 526.40498 532.53874 L 544.50297 507.62899 L 545.70901 506.39212 L 547.21748 505.55015 L 548.90331 505.17288 L 551.21117 505.44936 L 584.64023 516.31112 L 586.18925 517.07592 L 587.45615 518.25038 L 588.33591 519.73712 L 588.78613 522.01746 L 588.78613 552.8076 L 613.9234 560.9752 L 629.45908 539.59216 L 611.36109 514.68241 L 610.55745 513.15318 L 610.22283 511.45837 L 610.38497 509.73846 L 611.36109 507.62899 L 632.02138 479.19254 L 633.22742 477.95567 L 634.73589 477.11371 L 636.42172 476.73643 L 638.72958 477.01291 L 668.01275 486.52759 L 686.11074 461.61784 L 687.31678 460.38097 L 688.82525 459.539 L 690.51108 459.16173 Z M 676.30454 769.64793 L 676.05584 771.35747 L 675.33037 772.92529 L 674.18825 774.22142 L 672.15864 775.35427 L 640.58368 785.6136 L 623.63159 808.94615 L 639.16727 830.32919 L 668.45044 820.81451 L 670.15316 820.52276 L 671.86843 820.72825 L 673.45405 821.41394 L 675.15864 822.99414 L 693.25663 847.90388 L 718.3939 839.73628 L 718.3939 808.94615 L 718.6426 807.23661 L 719.36807 805.66879 L 720.51019 804.37266 L 722.5398 803.23981 L 751.82296 793.72513 L 751.82296 767.29426 L 724.3939 758.38201 L 692.81894 768.64134 L 692.26317 768.73657 L 691.71982 768.88731 L 691.41587 768.88175 L 691.11622 768.93309 L 690.55635 768.86602 L 689.99258 768.8557 L 689.7028 768.76376 L 689.40095 768.7276 L 688.88343 768.5038 L 688.34593 768.33327 L 688.09434 768.16256 L 687.81533 768.04191 L 687.5391 767.78584 L 686.91639 767.36333 L 686.39218 766.72262 L 686.11074 766.46171 L 676.30454 752.96464 Z M 482.02382 706.06208 L 500.12181 730.97183 L 500.92545 732.50106 L 501.26007 734.19587 L 501.09793 735.91578 L 500.12181 738.02525 L 482.02382 762.935 L 497.5595 784.31803 L 526.84267 774.80335 L 528.54539 774.5116 L 530.26066 774.71709 L 531.84628 775.40278 L 533.55087 776.98298 L 551.64886 801.89273 L 576.78613 793.72513 L 576.78613 764.88451 L 557.27173 738.02525 L 557.14965 737.79295 L 556.98346 737.58982 L 556.74959 737.03168 L 556.46809 736.49602 L 556.41726 736.23856 L 556.31583 735.9965 L 556.25068 735.39488 L 556.13347 734.80121 L 556.1581 734.53992 L 556.12985 734.27901 L 556.23881 733.6838 L 556.29561 733.0813 L 556.38412 732.89001 L 556.44093 732.57971 L 557.22328 731.03949 L 557.25675 731.00419 L 557.27173 730.97183 L 567.07793 717.47476 L 551.21117 722.63018 L 549.50845 722.92193 L 547.79318 722.71644 L 546.20756 722.03075 L 544.50297 720.45055 L 524.98857 693.59129 L 497.5595 684.67904 Z M 623.63159 752.07324 L 639.16727 773.45627 L 664.30454 765.28867 L 664.30454 738.8578 L 639.16727 730.6902 Z M 569.54224 734.49854 L 585.07792 755.88158 L 610.21519 747.71398 L 610.21519 721.2831 L 585.07792 713.1155 Z M 677.72095 734.49854 L 693.25663 755.88158 L 718.3939 747.71398 L 718.3939 721.2831 L 693.25663 713.1155 Z M 622.21519 718.87335 L 622.21519 733.60714 L 630.87548 721.68727 L 630.87548 706.95348 Z M 642.87548 692.84664 L 642.87548 719.27752 L 668.01275 727.44512 L 683.54843 706.06208 L 668.01275 684.67904 Z M 763.82296 615.98928 L 763.82296 649.18917 L 763.57426 650.89871 L 762.84879 652.46653 L 761.70667 653.76266 L 760.2426 654.67965 L 759.88709 654.77828 L 759.67706 654.89551 L 743.81031 660.05093 L 759.67706 665.20635 L 761.22608 665.97115 L 762.49298 667.14561 L 763.37274 668.63235 L 763.82296 670.91269 L 763.82296 704.11257 L 780.77505 727.44512 L 805.91232 719.27752 L 805.91232 688.48738 L 806.16102 686.77784 L 806.88649 685.21002 L 808.02861 683.91389 L 810.05822 682.78104 L 839.34138 673.26636 L 839.34138 646.83549 L 810.05822 637.32081 L 809.68749 637.13777 L 809.29341 637.01274 L 808.91704 636.75737 L 808.5092 636.55601 L 808.20601 636.27494 L 807.86387 636.0428 L 807.57584 635.69075 L 807.2423 635.38155 L 807.03176 635.02574 L 806.76995 634.70575 L 806.59418 634.28626 L 806.36254 633.89481 L 806.3023 633.58968 L 806.10232 633.11243 L 805.97387 631.92622 L 805.91232 631.61447 L 805.91232 600.82433 L 780.77505 592.65673 Z M 536.11318 688.48738 L 551.64886 709.87042 L 576.78613 701.70282 L 576.78613 675.27195 L 551.64886 667.10435 Z M 588.78613 675.27195 L 588.78613 701.70282 L 613.9234 709.87042 L 629.45908 688.48738 L 613.9234 667.10435 Z M 711.15001 688.48738 L 726.68569 709.87042 L 751.82296 701.70282 L 751.82296 675.27195 L 726.68569 667.10435 Z M 694.67304 700.95817 L 708.68571 705.51116 L 700.02541 693.59129 L 686.01274 689.0383 Z M 623.63159 660.05093 L 639.16727 681.43396 L 664.30454 673.26636 L 664.30454 646.83549 L 639.16727 638.66789 Z M 676.30454 646.83549 L 676.30454 673.26636 L 701.44182 681.43396 L 716.9775 660.05093 L 701.44182 638.66789 Z M 568.77348 660.05093 L 582.78613 664.60392 L 596.79878 660.05093 L 582.78613 655.49794 Z M 536.11318 631.61447 L 551.64886 652.99751 L 576.78613 644.82991 L 576.78613 618.39903 L 551.64886 610.23143 Z M 588.78613 618.39903 L 588.78613 644.82991 L 613.9234 652.99751 L 629.45908 631.61447 L 613.9234 610.23143 Z M 711.15001 631.61447 L 726.68569 652.99751 L 751.82296 644.82991 L 751.82296 618.39903 L 726.68569 610.23143 Z M 533.55087 543.11887 L 532.34483 544.35574 L 530.83636 545.19771 L 529.15053 545.57498 L 526.84267 545.2985 L 497.5595 535.78382 L 482.02382 557.16686 L 500.12181 582.0766 L 500.92545 583.60583 L 501.26007 585.30064 L 501.09793 587.02055 L 500.12181 589.13002 L 482.02382 614.03977 L 497.5595 635.42281 L 524.98857 626.51056 L 544.50297 599.6513 L 545.07736 599.06223 L 545.6433 598.46549 L 545.67966 598.44453 L 545.70901 598.41443 L 546.42771 598.01328 L 547.13994 597.60268 L 547.18078 597.59294 L 547.21748 597.57246 L 548.02049 597.39276 L 548.82038 597.20206 L 548.86231 597.20436 L 548.90331 597.19519 L 549.07953 597.2163 L 550.54531 597.29685 L 550.94428 597.4397 L 551.21117 597.47167 L 567.07793 602.62709 L 557.27173 589.13002 L 556.46809 587.60079 L 556.13347 585.90598 L 556.29561 584.18607 L 557.27173 582.0766 L 576.78613 555.21735 L 576.78613 526.37672 L 551.64886 518.20912 Z M 642.87548 600.82433 L 642.87548 627.25521 L 668.01275 635.42281 L 683.54843 614.03977 L 668.01275 592.65673 Z M 694.67304 619.14368 L 686.01274 631.06355 L 700.02541 626.51056 L 708.68571 614.59069 Z M 622.21519 601.2285 L 630.87548 613.14837 L 630.87548 598.41458 L 622.21519 586.49472 Z M 569.54224 585.60331 L 585.07792 606.98635 L 610.21519 598.81875 L 610.21519 572.38788 L 585.07792 564.22028 Z M 677.72095 585.60331 L 693.25663 606.98635 L 718.3939 598.81875 L 718.3939 572.38788 L 693.25663 564.22028 Z M 623.63159 568.02862 L 639.16727 589.41165 L 664.30454 581.24405 L 664.30454 554.81318 L 639.16727 546.64558 Z M 675.15864 497.10772 L 673.9526 498.34459 L 672.44413 499.18656 L 670.7583 499.56383 L 668.45044 499.28735 L 639.16727 489.77267 L 623.63159 511.1557 L 640.58368 534.48825 L 672.15864 544.74758 L 672.62725 544.97895 L 673.11921 545.15509 L 673.39781 545.3594 L 673.70766 545.51238 L 674.09093 545.86769 L 674.5123 546.17669 L 674.72116 546.45193 L 674.97456 546.68684 L 675.24069 547.13658 L 675.55658 547.55287 L 675.61029 547.76118 L 675.85432 548.17358 L 676.30454 550.45392 L 676.30454 567.13722 L 686.11074 553.64015 L 686.68513 553.05108 L 687.25107 552.45434 L 687.28743 552.43338 L 687.31678 552.40328 L 688.03548 552.00213 L 688.74771 551.59153 L 688.78855 551.58179 L 688.82525 551.56131 L 689.62826 551.38161 L 690.42815 551.19091 L 690.47008 551.19321 L 690.51108 551.18404 L 690.6873 551.20515 L 692.15308 551.2857 L 692.55205 551.42855 L 692.81894 551.46052 L 724.3939 561.71985 L 751.82296 552.8076 L 751.82296 526.37672 L 722.5398 516.86204 L 720.99078 516.09724 L 719.72388 514.92278 L 718.84412 513.43604 L 718.3939 511.1557 L 718.3939 480.36557 L 693.25663 472.19797 Z" stroke-miterlimit="10"/></g></svg>