  0
SECTION
  2
HEADER
  9
$ACADVER
  1
AC1014
  9
$HANDSEED
  5
FFFF
  9
$INSUNITS
 70
     4
  9
$MEASUREMENT
 70
     1
  0
ENDSEC
  0
SECTION
  2
TABLES
  0
TABLE
  2
VPORT
  5
8
330
0
100
AcDbSymbolTable
 70
     4
  0
VPORT
  5
2E
330
8
100
AcDbSymbolTableRecord
100
AcDbViewportTableRecord
  2
*ACTIVE
 70
     0
 10
0.0
 20
0.0
 11
1.0
 21
1.0
 12
210.0
 22
148.5
 13
0.0
 23
0.0
 14
10.0
 24
10.0
 15
10.0
 25
10.0
 16
0.0
 26
0.0
 36
1.0
 17
0.0
 27
0.0
 37
0.0
 40
341.0
 41
1.24
 42
50.0
 43
0.0
 44
0.0
 50
0.0
 51
0.0
 71
     0
 72
   100
 73
     1
 74
     3
 75
     0
 76
     0
 77
     0
 78
     0
  0
ENDTAB
  0
TABLE
  2
LTYPE
  5
5
330
0
100
AcDbSymbolTable
 70
     1
  0
LTYPE
  5
14
330
5
100
AcDbSymbolTableRecord
100
AcDbLinetypeTableRecord
  2
BYBLOCK
 70
     0
  3

 72
    65
 73
     0
 40
0.0
  0
LTYPE
  5
15
330
5
100
AcDbSymbolTableRecord
100
AcDbLinetypeTableRecord
  2
BYLAYER
 70
     0
  3

 72
    65
 73
     0
 40
0.0
  0
LTYPE
  5
16
330
5
100
AcDbSymbolTableRecord
100
AcDbLinetypeTableRecord
  2
CONTINUOUS
 70
     0
  3
Solid line
 72
    65
 73
     0
 40
0.0
  0
ENDTAB
  0
TABLE
  2
LAYER
  5
2
100
AcDbSymbolTable
 70
5
  0
LAYER
  5
50
100
AcDbSymbolTableRecord
100
AcDbLayerTableRecord
  2
0
 70
0
  6
CONTINUOUS
  0
LAYER
  5
51
100
AcDbSymbolTableRecord
100
AcDbLayerTableRecord
  2
Layer_1
 70
0
  6
CONTINUOUS
  0
LAYER
  5
52
100
AcDbSymbolTableRecord
100
AcDbLayerTableRecord
  2
Layer_2
 70
0
  6
CONTINUOUS
  0
LAYER
  5
53
100
AcDbSymbolTableRecord
100
AcDbLayerTableRecord
  2
Layer_3
 70
0
  6
CONTINUOUS
  0
LAYER
  5
54
100
AcDbSymbolTableRecord
100
AcDbLayerTableRecord
  2
Layer_4
 70
0
  6
CONTINUOUS
  0
ENDTAB
  0
TABLE
  2
STYLE
  5
3
330
0
100
AcDbSymbolTable
 70
     1
  0
STYLE
  5
11
330
3
100
AcDbSymbolTableRecord
100
AcDbTextStyleTableRecord
  2
STANDARD
 70
     0
 40
0.0
 41
1.0
 50
0.0
 71
     0
 42
2.5
  3
txt
  4

  0
ENDTAB
  0
TABLE
  2
VIEW
  5
6
330
0
100
AcDbSymbolTable
 70
     0
  0
ENDTAB
  0
TABLE
  2
UCS
  5
7
330
0
100
AcDbSymbolTable
 70
     0
  0
ENDTAB
  0
TABLE
  2
APPID
  5
9
330
0
100
AcDbSymbolTable
 70
     2
  0
APPID
  5
12
330
9
100
AcDbSymbolTableRecord
100
AcDbRegAppTableRecord
  2
ACAD
 70
     0
  0
ENDTAB
  0
TABLE
  2
DIMSTYLE
  5
A
330
0
100
AcDbSymbolTable
 70
     1
  0
DIMSTYLE
105
27
330
A
100
AcDbSymbolTableRecord
100
AcDbDimStyleTableRecord
  2
ISO-25
 70
     0
  3

  4

  5

  6

  7

 40
1.0
 41
2.5
 42
0.625
 43
3.75
 44
1.25
 45
0.0
 46
0.0
 47
0.0
 48
0.0
140
2.5
141
2.5
142
0.0
143
0.03937007874016
144
1.0
145
0.0
146
1.0
147
0.625
 71
     0
 72
     0
 73
     0
 74
     0
 75
     0
 76
     0
 77
     1
 78
     8
170
     0
171
     3
172
     1
173
     0
174
     0
175
     0
176
     0
177
     0
178
     0
270
     2
271
     2
272
     2
273
     2
274
     3
340
11
275
     0
280
     0
281
     0
282
     0
283
     0
284
     8
285
     0
286
     0
287
     3
288
     0
  0
ENDTAB
  0
TABLE
  2
BLOCK_RECORD
  5
1
330
0
100
AcDbSymbolTable
 70
     1
  0
BLOCK_RECORD
  5
1F
330
1
100
AcDbSymbolTableRecord
100
AcDbBlockTableRecord
  2
*MODEL_SPACE
  0
BLOCK_RECORD
  5
1B
330
1
100
AcDbSymbolTableRecord
100
AcDbBlockTableRecord
  2
*PAPER_SPACE
  0
ENDTAB
  0
ENDSEC
  0
SECTION
  2
BLOCKS
  0
BLOCK
  5
20
330
1F
100
AcDbEntity
  8
0
100
AcDbBlockBegin
  2
*MODEL_SPACE
 70
     0
 10
0.0
 20
0.0
 30
0.0
  3
*MODEL_SPACE
  1

  0
ENDBLK
  5
21
330
1F
100
AcDbEntity
  8
0
100
AcDbBlockEnd
  0
BLOCK
  5
1C
330
1B
100
AcDbEntity
 67
     1
  8
0
100
AcDbBlockBegin
  2
*PAPER_SPACE
  1

  0
ENDBLK
  5
1D
330
1B
100
AcDbEntity
 67
     1
  8
0
100
AcDbBlockEnd
  0
ENDSEC
  0
SECTION
  2
ENTITIES
  0
LWPOLYLINE
  5
100
100
AcDbEntity
  8
Layer_1
 62
7
100
AcDbPolyline
 90
175
 70
1
 10
127.752218
 20
172.143097
 30
0.0
 10
136.596990
 20
169.269257
 30
0.0
 10
137.006835
 20
169.066903
 30
0.0
 10
137.342036
 20
168.756161
 30
0.0
 10
137.574806
 20
168.362794
 30
0.0
 10
137.693927
 20
167.759454
 30
0.0
 10
137.693927
 20
159.612899
 30
0.0
 10
145.441763
 20
157.095473
 30
0.0
 10
145.851607
 20
156.893120
 30
0.0
 10
146.186808
 20
156.582377
 30
0.0
 10
146.419578
 20
156.189011
 30
0.0
 10
146.538699
 20
155.585671
 30
0.0
 10
146.538699
 20
146.285725
 30
0.0
 10
146.472897
 20
145.833409
 30
0.0
 10
146.280949
 20
145.418590
 30
0.0
 10
145.978764
 20
145.075656
 30
0.0
 10
145.441763
 20
144.775923
 30
0.0
 10
137.693927
 20
142.258497
 30
0.0
 10
137.693927
 20
135.265329
 30
0.0
 10
144.344829
 20
133.104319
 30
0.0
 10
149.133256
 20
139.695023
 30
0.0
 10
149.452354
 20
140.022278
 30
0.0
 10
149.851470
 20
140.245050
 30
0.0
 10
150.297512
 20
140.344869
 30
0.0
 10
150.908134
 20
140.271717
 30
0.0
 10
159.752906
 20
137.397876
 30
0.0
 10
160.162751
 20
137.195523
 30
0.0
 10
160.497951
 20
136.884780
 30
0.0
 10
160.730721
 20
136.491414
 30
0.0
 10
160.849842
 20
135.888074
 30
0.0
 10
160.849842
 20
127.741516
 30
0.0
 10
168.597678
 20
125.224090
 30
0.0
 10
169.007523
 20
125.021737
 30
0.0
 10
169.342723
 20
124.710994
 30
0.0
 10
169.575493
 20
124.317628
 30
0.0
 10
169.694614
 20
123.714288
 30
0.0
 10
169.694614
 20
114.414345
 30
0.0
 10
169.628812
 20
113.962029
 30
0.0
 10
169.436865
 20
113.547210
 30
0.0
 10
169.134679
 20
113.204276
 30
0.0
 10
168.597678
 20
112.904543
 30
0.0
 10
160.849842
 20
110.387117
 30
0.0
 10
160.849842
 20
102.240559
 30
0.0
 10
160.784040
 20
101.788243
 30
0.0
 10
160.592093
 20
101.373424
 30
0.0
 10
160.289907
 20
101.030490
 30
0.0
 10
159.752906
 20
100.730756
 30
0.0
 10
150.908134
 20
97.856916
 30
0.0
 10
150.457622
 20
97.779724
 30
0.0
 10
150.003790
 20
97.834093
 30
0.0
 10
149.584262
 20
98.015515
 30
0.0
 10
149.133256
 20
98.433610
 30
0.0
 10
144.344829
 20
105.024314
 30
0.0
 10
137.693927
 20
102.863303
 30
0.0
 10
137.693927
 20
95.870133
 30
0.0
 10
145.441763
 20
93.352707
 30
0.0
 10
145.851607
 20
93.150354
 30
0.0
 10
146.186808
 20
92.839611
 30
0.0
 10
146.419578
 20
92.446245
 30
0.0
 10
146.538699
 20
91.842905
 30
0.0
 10
146.538699
 20
82.542962
 30
0.0
 10
146.472897
 20
82.090646
 30
0.0
 10
146.280950
 20
81.675827
 30
0.0
 10
145.978764
 20
81.332893
 30
0.0
 10
145.441763
 20
81.033160
 30
0.0
 10
137.693927
 20
78.515734
 30
0.0
 10
137.693927
 20
70.369179
 30
0.0
 10
137.628125
 20
69.916863
 30
0.0
 10
137.436177
 20
69.502044
 30
0.0
 10
137.133991
 20
69.159109
 30
0.0
 10
136.596990
 20
68.859376
 30
0.0
 10
127.752218
 20
65.985536
 30
0.0
 10
127.301707
 20
65.908343
 30
0.0
 10
126.847875
 20
65.962713
 30
0.0
 10
126.428347
 20
66.144135
 30
0.0
 10
125.977340
 20
66.562229
 30
0.0
 10
121.188914
 20
73.152931
 30
0.0
 10
113.441075
 20
70.635506
 30
0.0
 10
112.990564
 20
70.558313
 30
0.0
 10
112.536732
 20
70.612683
 30
0.0
 10
112.117203
 20
70.794105
 30
0.0
 10
111.666197
 20
71.212199
 30
0.0
 10
106.199829
 20
78.736013
 30
0.0
 10
105.987199
 20
79.140622
 30
0.0
 10
105.898664
 20
79.589040
 30
0.0
 10
105.941564
 20
80.044100
 30
0.0
 10
106.199829
 20
80.602230
 30
0.0
 10
110.988255
 20
87.192935
 30
0.0
 10
106.877773
 20
92.850528
 30
0.0
 10
100.226871
 20
90.689517
 30
0.0
 10
100.226871
 20
82.542962
 30
0.0
 10
100.161069
 20
82.090646
 30
0.0
 10
99.969122
 20
81.675827
 30
0.0
 10
99.666936
 20
81.332893
 30
0.0
 10
99.129935
 20
81.033160
 30
0.0
 10
90.285163
 20
78.159319
 30
0.0
 10
89.834651
 20
78.082127
 30
0.0
 10
89.380819
 20
78.136496
 30
0.0
 10
88.961291
 20
78.317918
 30
0.0
 10
88.510285
 20
78.736013
 30
0.0
 10
83.721858
 20
85.326717
 30
0.0
 10
75.974019
 20
82.809292
 30
0.0
 10
75.523508
 20
82.732099
 30
0.0
 10
75.069676
 20
82.786469
 30
0.0
 10
74.650148
 20
82.967891
 30
0.0
 10
74.199141
 20
83.385985
 30
0.0
 10
68.732773
 20
90.909796
 30
0.0
 10
68.520143
 20
91.314405
 30
0.0
 10
68.431608
 20
91.762823
 30
0.0
 10
68.474508
 20
92.217883
 30
0.0
 10
68.732773
 20
92.776014
 30
0.0
 10
73.521200
 20
99.366718
 30
0.0
 10
68.732773
 20
105.957423
 30
0.0
 10
68.520143
 20
106.362032
 30
0.0
 10
68.431608
 20
106.810450
 30
0.0
 10
68.474508
 20
107.265510
 30
0.0
 10
68.732773
 20
107.823640
 30
0.0
 10
74.199141
 20
115.347454
 30
0.0
 10
74.518240
 20
115.674709
 30
0.0
 10
74.917353
 20
115.897477
 30
0.0
 10
75.363398
 20
115.997299
 30
0.0
 10
75.974019
 20
115.924147
 30
0.0
 10
83.721858
 20
113.406722
 30
0.0
 10
87.832340
 20
119.064315
 30
0.0
 10
83.721858
 20
124.721911
 30
0.0
 10
75.974019
 20
122.204485
 30
0.0
 10
75.523508
 20
122.127293
 30
0.0
 10
75.069676
 20
122.181662
 30
0.0
 10
74.650148
 20
122.363084
 30
0.0
 10
74.199141
 20
122.781179
 30
0.0
 10
68.732773
 20
130.304992
 30
0.0
 10
68.520143
 20
130.709601
 30
0.0
 10
68.431608
 20
131.158020
 30
0.0
 10
68.474508
 20
131.613079
 30
0.0
 10
68.732773
 20
132.171210
 30
0.0
 10
73.521200
 20
138.761915
 30
0.0
 10
68.732773
 20
145.352617
 30
0.0
 10
68.520143
 20
145.757225
 30
0.0
 10
68.431608
 20
146.205644
 30
0.0
 10
68.474508
 20
146.660703
 30
0.0
 10
68.732773
 20
147.218834
 30
0.0
 10
74.199141
 20
154.742647
 30
0.0
 10
74.518240
 20
155.069902
 30
0.0
 10
74.917353
 20
155.292671
 30
0.0
 10
75.363398
 20
155.392493
 30
0.0
 10
75.974019
 20
155.319341
 30
0.0
 10
83.721858
 20
152.801915
 30
0.0
 10
88.510285
 20
159.392620
 30
0.0
 10
88.829383
 20
159.719875
 30
0.0
 10
89.228499
 20
159.942646
 30
0.0
 10
89.674541
 20
160.042466
 30
0.0
 10
90.285163
 20
159.969314
 30
0.0
 10
99.129935
 20
157.095473
 30
0.0
 10
99.539780
 20
156.893120
 30
0.0
 10
99.874980
 20
156.582377
 30
0.0
 10
100.107750
 20
156.189011
 30
0.0
 10
100.226871
 20
155.585671
 30
0.0
 10
100.226871
 20
147.439113
 30
0.0
 10
106.877773
 20
145.278102
 30
0.0
 10
110.988255
 20
150.935698
 30
0.0
 10
106.199829
 20
157.526403
 30
0.0
 10
105.987199
 20
157.931011
 30
0.0
 10
105.898664
 20
158.379430
 30
0.0
 10
105.941564
 20
158.834489
 30
0.0
 10
106.199829
 20
159.392620
 30
0.0
 10
111.666197
 20
166.916431
 30
0.0
 10
111.985295
 20
167.243686
 30
0.0
 10
112.384411
 20
167.466455
 30
0.0
 10
112.830454
 20
167.566277
 30
0.0
 10
113.441075
 20
167.493125
 30
0.0
 10
121.188914
 20
164.975699
 30
0.0
 10
125.977340
 20
171.566403
 30
0.0
 10
126.296439
 20
171.893659
 30
0.0
 10
126.695555
 20
172.116430
 30
0.0
 10
127.141597
 20
172.216249
 30
0.0
  0
LWPOLYLINE
  5
101
100
AcDbEntity
  8
Layer_1
 62
7
100
AcDbPolyline
 90
35
 70
1
 10
123.079597
 20
98.433610
 30
0.0
 10
122.760499
 20
98.106354
 30
0.0
 10
122.361383
 20
97.883583
 30
0.0
 10
121.915341
 20
97.783764
 30
0.0
 10
121.304719
 20
97.856916
 30
0.0
 10
113.556881
 20
100.374342
 30
0.0
 10
109.446399
 20
94.716746
 30
0.0
 10
114.234825
 20
88.126043
 30
0.0
 10
114.447455
 20
87.721435
 30
0.0
 10
114.535990
 20
87.273016
 30
0.0
 10
114.493090
 20
86.817957
 30
0.0
 10
114.234825
 20
86.259826
 30
0.0
 10
109.446399
 20
79.669121
 30
0.0
 10
113.556881
 20
74.011525
 30
0.0
 10
121.304719
 20
76.528951
 30
0.0
 10
121.755231
 20
76.606143
 30
0.0
 10
122.209063
 20
76.551774
 30
0.0
 10
122.628591
 20
76.370352
 30
0.0
 10
123.079597
 20
75.952257
 30
0.0
 10
127.868024
 20
69.361555
 30
0.0
 10
134.518927
 20
71.522566
 30
0.0
 10
134.518927
 20
79.669121
 30
0.0
 10
134.584728
 20
80.121437
 30
0.0
 10
134.776676
 20
80.536256
 30
0.0
 10
135.078862
 20
80.879191
 30
0.0
 10
135.615863
 20
81.178924
 30
0.0
 10
143.363699
 20
83.696350
 30
0.0
 10
143.363699
 20
90.689517
 30
0.0
 10
135.615863
 20
93.206943
 30
0.0
 10
135.206018
 20
93.409296
 30
0.0
 10
134.870817
 20
93.720039
 30
0.0
 10
134.638047
 20
94.113406
 30
0.0
 10
134.518927
 20
94.716746
 30
0.0
 10
134.518927
 20
102.863303
 30
0.0
 10
127.868024
 20
105.024314
 30
0.0
  0
LWPOLYLINE
  5
102
100
AcDbEntity
  8
Layer_1
 62
7
100
AcDbPolyline
 90
35
 70
1
 10
85.612542
 20
110.607396
 30
0.0
 10
85.293443
 20
110.280140
 30
0.0
 10
84.894327
 20
110.057369
 30
0.0
 10
84.448285
 20
109.957550
 30
0.0
 10
83.837664
 20
110.030702
 30
0.0
 10
76.089825
 20
112.548128
 30
0.0
 10
71.979343
 20
106.890532
 30
0.0
 10
76.767769
 20
100.299827
 30
0.0
 10
76.980399
 20
99.895218
 30
0.0
 10
77.068934
 20
99.446800
 30
0.0
 10
77.026034
 20
98.991740
 30
0.0
 10
76.767769
 20
98.433610
 30
0.0
 10
71.979343
 20
91.842905
 30
0.0
 10
76.089825
 20
86.185312
 30
0.0
 10
83.837664
 20
88.702737
 30
0.0
 10
84.288175
 20
88.779929
 30
0.0
 10
84.742007
 20
88.725560
 30
0.0
 10
85.161535
 20
88.544138
 30
0.0
 10
85.612541
 20
88.126043
 30
0.0
 10
90.400968
 20
81.535339
 30
0.0
 10
97.051871
 20
83.696350
 30
0.0
 10
97.051871
 20
91.842905
 30
0.0
 10
97.117673
 20
92.295221
 30
0.0
 10
97.309620
 20
92.710040
 30
0.0
 10
97.611806
 20
93.052974
 30
0.0
 10
98.148807
 20
93.352707
 30
0.0
 10
105.896643
 20
95.870133
 30
0.0
 10
105.896643
 20
102.863303
 30
0.0
 10
98.148807
 20
105.380729
 30
0.0
 10
97.738962
 20
105.583082
 30
0.0
 10
97.403761
 20
105.893825
 30
0.0
 10
97.170991
 20
106.287192
 30
0.0
 10
97.051871
 20
106.890532
 30
0.0
 10
97.051871
 20
115.037087
 30
0.0
 10
90.400968
 20
117.198098
 30
0.0
  0
LWPOLYLINE
  5
103
100
AcDbEntity
  8
Layer_1
 62
7
100
AcDbPolyline
 90
4
 70
1
 10
109.071643
 20
103.500883
 30
0.0
 10
109.071643
 20
99.602568
 30
0.0
 10
111.363011
 20
102.756367
 30
0.0
 10
111.363011
 20
106.654682
 30
0.0
  0
LWPOLYLINE
  5
104
100
AcDbEntity
  8
Layer_1
 62
7
100
AcDbPolyline
 90
5
 70
1
 10
114.538011
 20
110.387117
 30
0.0
 10
114.538011
 20
103.393946
 30
0.0
 10
121.188914
 20
101.232936
 30
0.0
 10
125.299396
 20
106.890532
 30
0.0
 10
121.188914
 20
112.548128
 30
0.0
  0
LWPOLYLINE
  5
105
100
AcDbEntity
  8
Layer_1
 62
7
100
AcDbPolyline
 90
35
 70
1
 10
146.235513
 20
130.304992
 30
0.0
 10
145.916415
 20
129.977737
 30
0.0
 10
145.517298
 20
129.754966
 30
0.0
 10
145.071256
 20
129.655147
 30
0.0
 10
144.460635
 20
129.728299
 30
0.0
 10
136.712796
 20
132.245724
 30
0.0
 10
132.602314
 20
126.588128
 30
0.0
 10
137.390740
 20
119.997424
 30
0.0
 10
137.603370
 20
119.592815
 30
0.0
 10
137.691905
 20
119.144396
 30
0.0
 10
137.649006
 20
118.689337
 30
0.0
 10
137.390740
 20
118.131206
 30
0.0
 10
132.602314
 20
111.540504
 30
0.0
 10
136.712796
 20
105.882908
 30
0.0
 10
144.460635
 20
108.400334
 30
0.0
 10
144.911146
 20
108.477526
 30
0.0
 10
145.364978
 20
108.423157
 30
0.0
 10
145.784506
 20
108.241735
 30
0.0
 10
146.235513
 20
107.823640
 30
0.0
 10
151.023939
 20
101.232936
 30
0.0
 10
157.674842
 20
103.393946
 30
0.0
 10
157.674842
 20
111.540504
 30
0.0
 10
157.740644
 20
111.992820
 30
0.0
 10
157.932591
 20
112.407639
 30
0.0
 10
158.234777
 20
112.750574
 30
0.0
 10
158.771778
 20
113.050307
 30
0.0
 10
166.519614
 20
115.567733
 30
0.0
 10
166.519614
 20
122.560900
 30
0.0
 10
158.771778
 20
125.078326
 30
0.0
 10
158.361933
 20
125.280679
 30
0.0
 10
158.026732
 20
125.591422
 30
0.0
 10
157.793963
 20
125.984788
 30
0.0
 10
157.674842
 20
126.588128
 30
0.0
 10
157.674842
 20
134.734686
 30
0.0
 10
151.023939
 20
136.895697
 30
0.0
  0
LWPOLYLINE
  5
106
100
AcDbEntity
  8
Layer_1
 62
7
100
AcDbPolyline
 90
5
 70
1
 10
100.226871
 20
115.037087
 30
0.0
 10
100.226871
 20
108.043919
 30
0.0
 10
106.877773
 20
105.882908
 30
0.0
 10
110.988255
 20
111.540504
 30
0.0
 10
106.877773
 20
117.198098
 30
0.0
  0
LWPOLYLINE
  5
107
100
AcDbEntity
  8
Layer_1
 62
7
100
AcDbPolyline
 90
4
 70
1
 10
128.242782
 20
108.240941
 30
0.0
 10
131.950301
 20
107.036296
 30
0.0
 10
129.658930
 20
110.190095
 30
0.0
 10
125.951411
 20
111.394740
 30
0.0
  0
LWPOLYLINE
  5
108
100
AcDbEntity
  8
Layer_1
 62
7
100
AcDbPolyline
 90
5
 70
1
 10
109.446399
 20
119.064315
 30
0.0
 10
113.556881
 20
113.406722
 30
0.0
 10
120.207783
 20
115.567733
 30
0.0
 10
120.207783
 20
122.560900
 30
0.0
 10
113.556881
 20
124.721911
 30
0.0
  0
LWPOLYLINE
  5
109
100
AcDbEntity
  8
Layer_1
 62
7
100
AcDbPolyline
 90
5
 70
1
 10
123.382783
 20
122.560900
 30
0.0
 10
123.382783
 20
115.567733
 30
0.0
 10
130.033689
 20
113.406722
 30
0.0
 10
134.144171
 20
119.064315
 30
0.0
 10
130.033689
 20
124.721911
 30
0.0
  0
LWPOLYLINE
  5
10a
100
AcDbEntity
  8
Layer_1
 62
7
100
AcDbPolyline
 90
4
 70
1
 10
94.931857
 20
119.064315
 30
0.0
 10
98.639371
 20
117.859670
 30
0.0
 10
102.346884
 20
119.064315
 30
0.0
 10
98.639371
 20
120.268960
 30
0.0
  0
LWPOLYLINE
  5
10b
100
AcDbEntity
  8
Layer_1
 62
7
100
AcDbPolyline
 90
35
 70
1
 10
85.612541
 20
150.002589
 30
0.0
 10
85.293443
 20
149.675334
 30
0.0
 10
84.894327
 20
149.452563
 30
0.0
 10
84.448285
 20
149.352743
 30
0.0
 10
83.837664
 20
149.425895
 30
0.0
 10
76.089825
 20
151.943321
 30
0.0
 10
71.979343
 20
146.285725
 30
0.0
 10
76.767769
 20
139.695023
 30
0.0
 10
76.980399
 20
139.290414
 30
0.0
 10
77.068934
 20
138.841996
 30
0.0
 10
77.026034
 20
138.386936
 30
0.0
 10
76.767769
 20
137.828806
 30
0.0
 10
71.979343
 20
131.238101
 30
0.0
 10
76.089825
 20
125.580505
 30
0.0
 10
83.837664
 20
128.097931
 30
0.0
 10
84.288175
 20
128.175123
 30
0.0
 10
84.742007
 20
128.120754
 30
0.0
 10
85.161535
 20
127.939332
 30
0.0
 10
85.612541
 20
127.521237
 30
0.0
 10
90.400968
 20
120.930532
 30
0.0
 10
97.051871
 20
123.091543
 30
0.0
 10
97.051871
 20
131.238101
 30
0.0
 10
97.117673
 20
131.690417
 30
0.0
 10
97.309620
 20
132.105236
 30
0.0
 10
97.611806
 20
132.448170
 30
0.0
 10
98.148807
 20
132.747904
 30
0.0
 10
105.896643
 20
135.265329
 30
0.0
 10
105.896643
 20
142.258497
 30
0.0
 10
98.148807
 20
144.775923
 30
0.0
 10
97.738962
 20
144.978276
 30
0.0
 10
97.403761
 20
145.289019
 30
0.0
 10
97.170991
 20
145.682385
 30
0.0
 10
97.051871
 20
146.285725
 30
0.0
 10
97.051871
 20
154.432283
 30
0.0
 10
90.400968
 20
156.593294
 30
0.0
  0
LWPOLYLINE
  5
10c
100
AcDbEntity
  8
Layer_1
 62
7
100
AcDbPolyline
 90
5
 70
1
 10
100.226871
 20
130.084714
 30
0.0
 10
100.226871
 20
123.091543
 30
0.0
 10
106.877773
 20
120.930532
 30
0.0
 10
110.988255
 20
126.588128
 30
0.0
 10
106.877773
 20
132.245724
 30
0.0
  0
LWPOLYLINE
  5
10d
100
AcDbEntity
  8
Layer_1
 62
7
100
AcDbPolyline
 90
5
 70
1
 10
114.538011
 20
134.734686
 30
0.0
 10
114.538011
 20
127.741516
 30
0.0
 10
121.188914
 20
125.580505
 30
0.0
 10
125.299396
 20
131.238101
 30
0.0
 10
121.188914
 20
136.895697
 30
0.0
  0
LWPOLYLINE
  5
10e
100
AcDbEntity
  8
Layer_1
 62
7
100
AcDbPolyline
 90
4
 70
1
 10
128.242782
 20
129.887692
 30
0.0
 10
125.951411
 20
126.733893
 30
0.0
 10
129.658930
 20
127.938538
 30
0.0
 10
131.950301
 20
131.092337
 30
0.0
  0
LWPOLYLINE
  5
10f
100
AcDbEntity
  8
Layer_1
 62
7
100
AcDbPolyline
 90
4
 70
1
 10
109.071643
 20
134.627750
 30
0.0
 10
111.363011
 20
131.473951
 30
0.0
 10
111.363011
 20
135.372266
 30
0.0
 10
109.071643
 20
138.526062
 30
0.0
  0
LWPOLYLINE
  5
110
100
AcDbEntity
  8
Layer_1
 62
7
100
AcDbPolyline
 90
35
 70
1
 10
123.079597
 20
162.176373
 30
0.0
 10
122.760499
 20
161.849118
 30
0.0
 10
122.361383
 20
161.626346
 30
0.0
 10
121.915341
 20
161.526527
 30
0.0
 10
121.304719
 20
161.599679
 30
0.0
 10
113.556881
 20
164.117105
 30
0.0
 10
109.446399
 20
158.459511
 30
0.0
 10
114.234825
 20
151.868807
 30
0.0
 10
114.447455
 20
151.464198
 30
0.0
 10
114.535990
 20
151.015779
 30
0.0
 10
114.493090
 20
150.560720
 30
0.0
 10
114.234825
 20
150.002589
 30
0.0
 10
109.446399
 20
143.411885
 30
0.0
 10
113.556881
 20
137.754291
 30
0.0
 10
121.304719
 20
140.271717
 30
0.0
 10
121.755231
 20
140.348909
 30
0.0
 10
122.209063
 20
140.294540
 30
0.0
 10
122.628591
 20
140.113118
 30
0.0
 10
123.079597
 20
139.695023
 30
0.0
 10
127.868024
 20
133.104319
 30
0.0
 10
134.518927
 20
135.265329
 30
0.0
 10
134.518927
 20
143.411885
 30
0.0
 10
134.584728
 20
143.864200
 30
0.0
 10
134.776676
 20
144.279019
 30
0.0
 10
135.078862
 20
144.621954
 30
0.0
 10
135.615863
 20
144.921687
 30
0.0
 10
143.363699
 20
147.439113
 30
0.0
 10
143.363699
 20
154.432283
 30
0.0
 10
135.615863
 20
156.949709
 30
0.0
 10
135.206018
 20
157.152062
 30
0.0
 10
134.870817
 20
157.462805
 30
0.0
 10
134.638047
 20
157.856171
 30
0.0
 10
134.518927
 20
158.459511
 30
0.0
 10
134.518927
 20
166.606067
 30
0.0
 10
127.868024
 20
168.767077
 30
0.0
  0
ENDSEC
  0
SECTION
  2
OBJECTS
  0
DICTIONARY
  5
C
330
0
100
AcDbDictionary
  3
ACAD_GROUP
350
D
  3
ACAD_MLINESTYLE
350
17
  0
DICTIONARY
  5
D
330
C
100
AcDbDictionary
  0
DICTIONARY
  5
1A
330
C
100
AcDbDictionary
  0
DICTIONARY
  5
17
330
C
100
AcDbDictionary
  3
STANDARD
350
18
  0
DICTIONARY
  5
19
330
C
100
AcDbDictionary
  0
ENDSEC
  0
EOF
