<?xml version="1.0" encoding="UTF-8" standalone="no"?>
<svg
   version="1.1"
   width="238.125mm"
   height="238.125mm"
   id="svg4"
   sodipodi:docname="quad02b.svg"
   inkscape:version="1.3 (0e150ed, 2023-07-21)"
   xmlns:inkscape="http://www.inkscape.org/namespaces/inkscape"
   xmlns:sodipodi="http://sodipodi.sourceforge.net/DTD/sodipodi-0.dtd"
   xmlns="http://www.w3.org/2000/svg"
   xmlns:svg="http://www.w3.org/2000/svg">
  <sodipodi:namedview
     id="namedview4"
     pagecolor="#505050"
     bordercolor="#eeeeee"
     borderopacity="1"
     inkscape:showpageshadow="0"
     inkscape:pageopacity="0"
     inkscape:pagecheckerboard="0"
     inkscape:deskcolor="#d1d1d1"
     inkscape:zoom="0.89333333"
     inkscape:cx="450"
     inkscape:cy="450"
     inkscape:window-width="1920"
     inkscape:window-height="1044"
     inkscape:window-x="1920"
     inkscape:window-y="0"
     inkscape:window-maximized="1"
     inkscape:current-layer="layer5" />
  <defs
     id="defs1" />
  <g
     inkscape:groupmode="layer"
     id="layer5"
     inkscape:label="Layer 1"
     style="display:none">
    <path
       fill="#222222"
       stroke="#cccccc"
       paint-order="fill stroke markers"
       d="m 454.06147,244.24711 1.58562,0.68569 1.70459,1.5802 18.63444,25.64811 30.15117,-9.79671 1.70272,-0.29175 1.71527,0.20549 1.58562,0.68569 1.70459,1.5802 18.63444,25.64811 30.15118,-9.79671 0.66305,-0.11361 0.65436,-0.156 0.19391,0.0107 0.1914,-0.0328 0.66794,0.08 0.67168,0.0369 0.18283,0.0655 0.19282,0.0231 0.61744,0.26701 0.63334,0.22676 0.1566,0.11484 0.17824,0.0771 0.27688,0.25667 0.78137,0.57301 0.38727,0.51036 0.25907,0.24016 21.19675,29.17483 0.17305,0.3293 0.22489,0.29636 0.0666,0.25829 0.33911,0.64528 0.33462,1.69481 -0.0188,0.19993 0.0265,0.10274 -0.10277,0.70644 -0.067,0.7108 -0.0531,0.11472 -0.0258,0.17758 -0.72547,1.56782 -0.11866,0.13466 -0.0531,0.11469 -18.63445,25.64811 16.07214,22.12141 30.15117,-9.79672 0.66305,-0.11361 0.65436,-0.156 0.19391,0.0107 0.1914,-0.0328 0.66794,0.08 0.67168,0.0369 0.18283,0.0655 0.19282,0.0231 0.61744,0.26701 0.63334,0.22676 0.1566,0.11484 0.17824,0.0771 0.27688,0.25667 0.78137,0.57301 0.38727,0.51036 0.25907,0.24016 21.19675,29.17483 0.17305,0.3293 0.22489,0.29636 0.0666,0.25829 0.33911,0.64528 0.33462,1.69481 -0.0188,0.19993 0.0265,0.10274 -0.10277,0.70644 -0.067,0.7108 -0.0531,0.11472 -0.0258,0.17758 -0.72547,1.56782 -0.11866,0.13466 -0.0531,0.11469 -18.63445,25.64811 18.63445,25.64812 0.80364,1.52923 0.33462,1.69481 -0.16214,1.71991 -0.97612,2.10947 -18.63445,25.64811 18.63445,25.64812 0.80364,1.52923 0.33462,1.69481 -0.16214,1.71991 -0.97612,2.10947 -21.19675,29.17482 -1.20604,1.23687 -1.50847,0.84197 -1.68583,0.37727 -2.30786,-0.27648 -30.15117,-9.79671 -16.07214,22.1214 18.63445,25.64812 0.80364,1.52923 0.33462,1.69481 -0.16214,1.71991 -0.97612,2.10947 -21.19675,29.17482 -1.20604,1.23687 -1.50847,0.84197 -1.68583,0.37727 -2.30786,-0.27648 -30.15118,-9.79671 -18.63444,25.64812 -1.20604,1.23687 -1.50846,0.84196 -1.68584,0.37728 -2.30786,-0.27648 -30.15117,-9.79672 -18.63444,25.64812 -0.49837,0.51111 -0.47202,0.53567 -0.12921,0.0809 -0.10644,0.10916 -0.62337,0.34794 -0.60505,0.37896 -0.14693,0.0408 -0.13311,0.0743 -0.69666,0.15591 -0.68796,0.19086 -0.15242,-0.003 -0.1488,0.0333 -0.35491,-0.0425 -1.07111,-0.0196 -0.55055,-0.17467 -0.33129,-0.0397 -34.29706,-11.14379 -0.37073,-0.18304 -0.39408,-0.12503 -0.37637,-0.25537 -0.40784,-0.20136 -0.30319,-0.28107 -0.34214,-0.23214 -0.28803,-0.35205 -0.33354,-0.3092 -0.21054,-0.35581 -0.26181,-0.31999 -0.17577,-0.41949 -0.23164,-0.39145 -0.0602,-0.30513 -0.19998,-0.47725 -0.12845,-1.18621 -0.0616,-0.31175 V 607.1275 l -26.00528,-8.44963 -18.63444,25.64811 -0.49837,0.51111 -0.47202,0.53567 -0.12921,0.0809 -0.10644,0.10916 -0.6234,0.34796 -0.60502,0.37894 -0.14691,0.0408 -0.13314,0.0743 -0.69674,0.15592 -0.68787,0.19084 -0.15242,-0.003 -0.1488,0.0333 -0.35491,-0.0425 -1.07111,-0.0196 -0.55055,-0.17467 -0.33129,-0.0397 -34.29706,-11.14379 -0.37073,-0.18304 -0.39408,-0.12503 -0.37637,-0.25537 -0.40784,-0.20136 -0.30319,-0.28107 -0.34214,-0.23214 -0.28803,-0.35205 -0.33354,-0.3092 -0.21054,-0.35581 -0.26181,-0.31999 -0.17577,-0.41949 -0.23164,-0.39145 -0.0602,-0.30513 -0.19998,-0.47725 -0.12845,-1.18621 -0.0615,-0.31175 v -31.7028 l -30.15116,-9.79671 -1.54902,-0.7648 -1.2669,-1.17446 -0.87976,-1.48674 -0.45022,-2.28034 v -31.70281 l -30.15117,-9.79671 -1.54902,-0.7648 -1.2669,-1.17446 -0.87976,-1.48674 -0.45022,-2.28034 V 479.1815 l 0.2487,-1.70954 0.72547,-1.56782 1.14212,-1.29613 2.02961,-1.13285 30.15117,-9.79671 V 436.3349 l -30.15117,-9.79671 -0.37073,-0.18304 -0.39408,-0.12503 -0.37637,-0.25537 -0.40784,-0.20136 -0.30319,-0.28107 -0.34214,-0.23214 -0.28803,-0.35205 -0.33354,-0.3092 -0.21054,-0.35581 -0.26181,-0.31999 -0.17577,-0.41949 -0.23164,-0.39145 -0.0602,-0.30513 -0.19998,-0.47725 -0.12845,-1.18621 -0.0616,-0.31175 v -36.06206 l 0.0159,-0.10952 -0.0119,-0.11001 0.13597,-0.74274 0.10871,-0.74727 0.0465,-0.10043 0.0199,-0.10886 0.34196,-0.67321 0.31711,-0.68532 0.0732,-0.083 0.0501,-0.0987 0.51954,-0.54782 0.4993,-0.56662 0.0809,-0.0452 0.089,-0.0939 1.49664,-0.86281 0.22398,-0.0534 0.13905,-0.0776 30.15117,-9.79671 v -31.70242 l 0.0595,-0.40912 -0.003,-0.41345 0.12657,-0.4369 0.0655,-0.45007 0.17362,-0.37521 0.11505,-0.39712 0.24578,-0.38268 0.19102,-0.41281 0.27336,-0.31022 0.22341,-0.34785 0.34464,-0.2968 0.30071,-0.34126 0.3504,-0.21946 0.31327,-0.26979 0.47421,-0.22344 0.32619,-0.2043 0.26122,-0.0725 0.30432,-0.14339 30.15116,-9.79671 v -31.70278 l 0.2487,-1.70954 0.72547,-1.56782 1.14212,-1.29613 2.02961,-1.13285 34.29706,-11.14379 1.70272,-0.29175 1.71527,0.20549 1.58562,0.68569 1.70459,1.5802 18.63444,25.64811 26.00528,-8.44963 v -31.7028 l 0.2487,-1.70954 0.72547,-1.56782 1.14212,-1.29613 2.02961,-1.13285 34.29706,-11.14379 1.70272,-0.29175 z M 424.20052,604.7178 v 29.7533 l 26.00527,8.44963 17.48854,-24.07092 v -29.75329 l -26.00527,-8.44963 z m 55.49381,-42.26812 -0.2487,1.70954 -0.72547,1.56782 -1.14212,1.29613 -2.02961,1.13285 -16.73475,5.43745 16.73475,5.43745 1.54902,0.7648 1.2669,1.17446 0.87976,1.48674 0.45022,2.28034 v 31.70281 l 26.00527,8.44963 16.07214,-22.12141 -18.63445,-25.64811 -0.12208,-0.2323 -0.16619,-0.20313 -0.23387,-0.55814 -0.2815,-0.53566 -0.0508,-0.25746 -0.10143,-0.24206 -0.0652,-0.60162 -0.11721,-0.59367 0.0246,-0.26129 -0.0283,-0.26091 0.10896,-0.59521 0.0568,-0.6025 0.0885,-0.19129 0.0568,-0.3103 0.78235,-1.54022 0.0335,-0.0353 0.015,-0.0324 10.34265,-14.23544 -16.73476,5.43745 -0.55577,0.0952 -0.54335,0.15074 -0.30395,-0.006 -0.29965,0.0513 -0.55987,-0.0671 -0.56377,-0.0103 -0.28978,-0.0919 -0.30185,-0.0362 -0.51752,-0.2238 -0.5375,-0.17053 -0.25159,-0.17071 -0.27901,-0.12065 -0.27623,-0.25607 -0.62271,-0.42251 -0.52421,-0.64071 -0.28144,-0.26091 -10.34265,-14.23543 z m -145.28469,13.0933 v 29.75329 l 26.00527,8.44963 17.48854,-24.07091 v -29.7533 l -26.00527,-8.44963 z m 180.99815,-1.94951 17.48855,24.07091 28.29708,9.19428 16.07214,-22.1214 -17.48855,-24.07092 -28.29708,-9.19428 z M 389.90345,559.92169 v 27.34355 l 26.00528,8.44963 16.07214,-22.1214 -16.07214,-22.12141 z m -55.49381,-44.67787 -0.2487,1.70954 -0.72547,1.56782 -1.14212,1.29613 -1.46407,0.91699 -0.35551,0.0986 -0.21003,0.11723 -30.15116,9.79671 v 27.34355 l 26.00527,8.44963 18.63444,-25.64812 1.20604,-1.23687 1.50846,-0.84196 1.68584,-0.37728 2.30786,0.27648 16.73476,5.43745 -10.34265,-14.23543 -0.80364,-1.52923 -0.33462,-1.69481 0.16214,-1.71991 0.97612,-2.10947 10.34265,-14.23544 -16.73476,5.43746 -0.55577,0.0952 -0.54335,0.15074 -0.30395,-0.006 -0.29965,0.0513 -0.55987,-0.0671 -0.56377,-0.0103 -0.28978,-0.0919 -0.30185,-0.0362 -0.51752,-0.2238 -0.5375,-0.17053 -0.25159,-0.17071 -0.27901,-0.12065 -0.27623,-0.25607 -0.62271,-0.42251 -0.52421,-0.64071 -0.28144,-0.26091 -10.34265,-14.23544 z m 91.20728,29.17482 16.07214,22.12141 26.00527,-8.44963 v -27.34355 l -26.00527,-8.44963 z m -55.49382,-18.03103 16.07214,22.1214 26.00528,-8.44963 v -27.34355 l -26.00528,-8.44963 z m 110.98763,0 16.07214,22.1214 26.00527,-8.44963 v -27.34355 l -26.00527,-8.44963 z m 54.07741,-13.67178 v 27.34355 l 26.00528,8.44963 16.07214,-22.1214 -16.07214,-22.12141 z m 35.71347,-15.50305 17.48855,24.07092 28.29707,9.19428 16.07214,-22.1214 -17.48855,-24.07092 -28.29707,-9.19428 z m -146.70109,-105.5555 -0.2487,1.70954 -0.72547,1.56782 -1.14212,1.29613 -1.46407,0.91699 -0.35551,0.0986 -0.21003,0.11723 -30.15117,9.79671 v 31.70281 l -0.2487,1.70954 -0.72547,1.56782 -1.14212,1.29613 -1.46407,0.91699 -0.35551,0.0986 -0.21003,0.11723 -16.73475,5.43745 16.73475,5.43745 0.46861,0.23137 0.49196,0.17614 0.2786,0.20431 0.30985,0.15298 0.38327,0.35531 0.42137,0.309 0.20886,0.27524 0.2534,0.23491 0.26613,0.44974 0.31589,0.41629 0.0537,0.20831 0.24403,0.4124 0.45022,2.28034 v 31.70281 l 30.15117,9.79671 1.54902,0.7648 1.2669,1.17446 0.87976,1.48674 0.45022,2.28034 v 17.59596 l 10.34265,-14.23543 1.20604,-1.23687 1.50847,-0.84197 1.68583,-0.37727 2.30786,0.27648 30.15117,9.79671 18.63444,-25.64812 0.57439,-0.58907 0.56594,-0.59674 0.0364,-0.021 0.0293,-0.0301 0.71858,-0.40108 0.71235,-0.41067 0.0409,-0.01 0.0367,-0.0205 0.80274,-0.17965 0.80017,-0.19076 0.0419,0.002 0.041,-0.009 0.17622,0.0211 1.46578,0.0806 0.39897,0.14285 0.26689,0.032 16.73476,5.43746 -10.34265,-14.23544 -0.12208,-0.2323 -0.16619,-0.20313 -0.23387,-0.55814 -0.2815,-0.53566 -0.0508,-0.25746 -0.10143,-0.24206 -0.0652,-0.60162 -0.11721,-0.59367 0.0246,-0.26129 -0.0283,-0.26091 0.10896,-0.59521 0.0568,-0.6025 0.0885,-0.19129 0.0568,-0.3103 0.78235,-1.54022 0.0335,-0.0353 0.015,-0.0324 18.63445,-25.64811 -18.63445,-25.64812 -0.80364,-1.52923 -0.33462,-1.69481 0.16214,-1.71991 0.97612,-2.10947 10.34265,-14.23543 -16.73476,5.43745 -1.70272,0.29175 -1.71527,-0.20549 -1.58562,-0.68569 -1.70459,-1.5802 -18.63444,-25.64811 -30.15117,9.79671 -0.55577,0.0952 -0.54335,0.15074 -0.30395,-0.006 -0.29965,0.0513 -0.55987,-0.0671 -0.56377,-0.0103 -0.28978,-0.0919 -0.30185,-0.0362 -0.51752,-0.2238 -0.5375,-0.17053 -0.25159,-0.17071 -0.27901,-0.12065 -0.27623,-0.25607 -0.62271,-0.42251 -0.52421,-0.64071 -0.28144,-0.26091 -10.34265,-14.23544 z m -158.38501,91.88373 v 27.34355 l 28.29707,9.19428 28.29706,-9.19428 v -27.34355 l -28.29706,-9.19428 z m 70.01053,-4.35926 16.07214,22.12141 26.00527,-8.44963 v -27.34355 l -26.00527,-8.44963 z m 179.58175,0 16.07214,22.12141 26.00528,-8.44963 v -27.34355 l -26.00528,-8.44963 z m 54.07742,-40.31861 -0.2487,1.70954 -0.72547,1.56782 -1.14212,1.29613 -2.02961,1.13285 -16.73476,5.43745 16.73476,5.43745 0.46861,0.23137 0.49196,0.17614 0.2786,0.20431 0.30985,0.15298 0.38327,0.35531 0.42137,0.309 0.20886,0.27524 0.2534,0.23491 0.26613,0.44974 0.31589,0.41629 0.0537,0.20831 0.24403,0.4124 0.45022,2.28034 v 17.59596 l 10.34265,-14.23543 0.57439,-0.58907 0.56594,-0.59674 0.0364,-0.021 0.0294,-0.0301 0.7187,-0.40115 0.71223,-0.4106 0.0408,-0.01 0.0367,-0.0205 0.80301,-0.1797 0.79989,-0.1907 0.0419,0.002 0.041,-0.009 0.17622,0.0211 1.46578,0.0806 0.39897,0.14285 0.26689,0.032 30.15117,9.79671 16.07214,-22.1214 -16.07214,-22.12141 -30.15117,9.79671 -1.70272,0.29175 -1.71527,-0.20549 -1.58562,-0.68569 -1.70459,-1.5802 -10.34265,-14.23543 z m -269.37263,-2.52799 v 27.34355 l 26.00527,8.44963 16.07214,-22.1214 -16.07214,-22.12141 z m 35.71346,-15.50305 16.07214,22.12141 26.00527,-8.44963 v -27.34355 l -26.00527,-8.44963 z m 179.58175,0 16.07214,22.12141 26.00528,-8.44963 V 407.16033 L 531.47993,398.7107 Z M 265.81551,389.1293 v 27.34354 l 28.29707,9.19428 28.29706,-9.19428 V 389.1293 l -28.29706,-9.19428 z m 322.57465,-10.39914 -17.48854,24.07091 16.07213,22.1214 28.29707,-9.19428 17.48855,-24.07091 -16.07214,-22.12141 z M 300.11258,341.92344 v 27.34355 l 30.15116,9.79671 0.46861,0.23137 0.49196,0.17614 0.2786,0.20431 0.30985,0.15298 0.38327,0.35531 0.42137,0.309 0.20886,0.27524 0.2534,0.23491 0.26613,0.44974 0.31589,0.41629 0.0537,0.20831 0.24403,0.4124 0.45022,2.28034 V 402.366 l 10.34265,-14.23543 0.57439,-0.58907 0.56594,-0.59674 0.0364,-0.021 0.0293,-0.0301 0.7187,-0.40115 0.71223,-0.4106 0.0408,-0.01 0.0367,-0.0205 0.80301,-0.1797 0.79989,-0.1907 0.0419,0.002 0.041,-0.009 0.17622,0.0211 1.46578,0.0805 0.39897,0.14285 0.26689,0.032 16.73476,5.43745 -10.34265,-14.23543 -0.12208,-0.2323 -0.16619,-0.20313 -0.23387,-0.55814 -0.2815,-0.53566 -0.0508,-0.25746 -0.10143,-0.24206 -0.0651,-0.60162 -0.11721,-0.59367 0.0246,-0.26129 -0.0283,-0.26091 0.10896,-0.59521 0.0568,-0.6025 0.0885,-0.19129 0.0568,-0.3103 0.78235,-1.54022 0.0335,-0.0353 0.015,-0.0324 10.34265,-14.23544 -16.73476,5.43745 -0.55577,0.0952 -0.54335,0.15074 -0.30395,-0.006 -0.29965,0.0513 -0.55987,-0.0671 -0.56377,-0.0103 -0.28978,-0.0919 -0.30185,-0.0362 -0.51752,-0.2238 -0.5375,-0.17053 -0.25159,-0.17071 -0.27901,-0.12065 -0.27623,-0.25607 -0.62271,-0.42251 -0.52421,-0.64071 -0.28144,-0.26091 -18.63444,-25.64811 z m 70.01052,31.70281 16.07214,22.1214 26.00528,-8.44963 v -27.34355 l -26.00528,-8.44963 z m 110.98763,0 16.07214,22.1214 26.00527,-8.44963 v -27.34355 l -26.00527,-8.44963 z m 54.07741,-13.67178 v 27.34355 l 26.00528,8.44963 16.07214,-22.1214 -16.07214,-22.12141 z m -109.57122,-4.35926 16.07214,22.12141 26.00527,-8.44963 v -27.34355 l -26.00527,-8.44963 z m 54.07741,-72.02142 v 31.70281 l -0.2487,1.70954 -0.72547,1.56782 -1.14212,1.29613 -1.46407,0.91699 -0.35551,0.0986 -0.21003,0.11723 -16.73475,5.43745 16.73475,5.43745 0.46861,0.23137 0.49196,0.17614 0.2786,0.20431 0.30985,0.15298 0.38327,0.35531 0.42137,0.309 0.20886,0.27524 0.2534,0.23491 0.26613,0.44974 0.31589,0.41629 0.0537,0.20831 0.24403,0.4124 0.45022,2.28034 v 17.59597 l 10.34265,-14.23544 1.20604,-1.23687 1.50846,-0.84196 1.68584,-0.37728 2.30786,0.27648 16.73476,5.43745 -10.34265,-14.23543 -0.80364,-1.52923 -0.33462,-1.69481 0.16214,-1.71991 0.97613,-2.10944 18.63445,-25.64812 -16.07214,-22.1214 z m -145.28469,11.14379 v 29.7533 l 17.48854,24.07091 26.00527,-8.44963 v -29.7533 l -17.48854,-24.07091 z m 55.49381,18.03103 v 27.34355 l 26.00528,8.44963 16.07214,-22.1214 -16.07214,-22.12141 z m 142.99289,-10.39914 -17.48855,24.07092 16.07214,22.1214 28.29708,-9.19428 17.48855,-24.07091 -16.07214,-22.12141 z M 424.20052,265.54276 v 29.75329 l 17.48854,24.07092 26.00527,-8.44963 v -29.7533 l -17.48854,-24.07091 z"
       stroke-miterlimit="10"
       id="path1" />
  </g>
  <g
     inkscape:groupmode="layer"
     id="layer6"
     inkscape:label="Layer 2"
     style="display:none">
    <path
       fill="#222222"
       stroke="#cccccc"
       paint-order="fill stroke markers"
       d="m 436.97202,245.45016 155.83142,50.6327 1.54902,0.7648 1.2669,1.17446 0.87976,1.48674 0.45022,2.28034 v 46.27344 l 44.00866,14.29928 0.46861,0.23137 0.49196,0.17614 0.2786,0.20431 0.30985,0.15298 0.38327,0.35531 0.42137,0.309 0.20886,0.27524 0.2534,0.23491 0.26613,0.44974 0.31589,0.41629 0.0537,0.20831 0.24403,0.4124 0.45022,2.28034 v 163.85085 l -0.2487,1.70954 -0.72547,1.56782 -1.14212,1.29613 -2.02961,1.13285 -44.00866,14.29928 v 46.27345 l -0.2487,1.70954 -0.72547,1.56782 -1.14212,1.29613 -1.46407,0.91699 -0.35551,0.0986 -0.21003,0.11723 -155.83142,50.6327 -0.55577,0.0952 -0.54335,0.15074 -0.30395,-0.006 -0.29965,0.0513 -0.55987,-0.0671 -0.56377,-0.0103 -0.28978,-0.0919 -0.30185,-0.0362 -0.51752,-0.2238 -0.5375,-0.17053 -0.25159,-0.17071 -0.27901,-0.12065 -0.27623,-0.25607 -0.62271,-0.42251 -0.52421,-0.64071 -0.28144,-0.26091 -27.19885,-37.436 -44.00866,14.29928 -1.70272,0.29175 -1.71527,-0.20549 -1.58562,-0.68569 -1.70459,-1.5802 -96.30912,-132.55813 -0.80364,-1.52923 -0.33462,-1.69481 0.16214,-1.71991 0.97612,-2.10947 27.19885,-37.436 -27.19885,-37.43601 -0.80364,-1.52923 -0.33462,-1.69481 0.16214,-1.71991 0.97612,-2.10947 96.30912,-132.55812 1.20604,-1.23687 1.50847,-0.84197 1.68583,-0.37727 2.30786,0.27648 44.00866,14.29928 27.19885,-37.436 1.20604,-1.23687 1.50847,-0.84197 1.68583,-0.37727 z m -21.90705,365.57239 22.34474,30.75491 56.20751,-18.26293 -58.4993,-19.00758 z m -55.57097,5.43856 36.15457,-11.74733 -12.39341,-17.05806 -58.49931,-19.00758 z m 205.40239,-54.12174 -36.15456,49.76248 56.20751,-18.26293 v -38.01515 z m -123.77847,31.49955 56.20751,18.26293 -36.15456,-49.76248 -20.05295,-6.5156 z m 77.91571,-50.30031 v 61.50982 l 34.73816,-47.81297 -22.34475,-30.75491 z m -46.73816,13.69685 34.73816,47.81297 v -59.10007 l -21.46936,-6.97582 z m -77.91571,25.31635 13.2688,18.26293 21.46936,-6.97582 v -41.91419 l -10.10161,-3.28221 z m -65.9157,-25.31635 56.20751,18.26293 22.34474,-30.75491 -20.05295,-6.5156 z m 112.65386,-14.02924 21.46936,6.97582 10.97699,-15.10854 -32.44635,-10.54246 z m 97.72552,-26.93347 24.63654,33.90929 21.46936,-6.97582 v -22.57421 l -39.86276,-12.9522 z m -214.08759,29.55003 56.20751,-18.26293 V 504.98564 L 359.494,498.00982 Z m 101.67687,-7.38807 2.6852,0.87247 v -4.56833 z m 170.51662,-20.21245 v 21.08492 l 36.15456,-11.74733 v -59.10006 z m -328.63985,-27.26586 34.73816,47.81297 v -61.50982 l -12.39341,-17.05806 z m 46.73816,-11.2871 v 59.10006 l 36.15456,-49.76247 v -21.08492 z m 177.93303,49.09543 17.76116,5.77095 13.26879,-18.26293 -10.977,-15.10855 z m -100.01732,-1.20488 21.46936,6.97582 10.977,-15.10853 -32.44636,-10.54246 z m 61.57097,-11.2871 26.44635,8.59294 16.34475,-22.49661 z m -60.15457,-66.27906 43.02995,59.22564 69.62392,-22.62219 v -73.20691 l -69.62392,-22.62219 z m 170.51663,30.42026 -12.3934,17.05805 36.15456,11.74733 34.73815,-47.81296 z m -33.46935,25.651 1.65954,-2.28418 -4.34475,-1.41169 z m -138.46368,-9.79782 26.44636,8.59294 -26.44636,-36.40028 z m 129.77847,-8.46512 17.76116,5.77095 13.2688,-18.26292 -10.97701,-15.10855 z M 363.20221,464.02293 v 22.57421 l 17.76115,5.77095 v -34.11611 z m 155.83142,8.46737 16.34475,-22.49661 -16.34475,-22.49662 z m -220.96298,-22.49661 13.26879,18.26293 39.86277,-12.9522 v -10.62146 l -39.86277,-12.9522 z m 252.14054,0 13.26879,18.26293 56.20751,-18.26293 -56.20751,-18.26293 z m -187.00898,1.41169 4.34474,-1.41169 -4.34474,-1.41169 z m 0,-38.01515 v 22.57422 l 17.76115,5.77095 v -34.11612 z m -94.89272,-4.35926 22.34476,30.75491 12.3934,-17.05805 v -61.50982 z m 254.43234,3.15439 20.05295,27.60052 10.977,-15.10854 -13.26879,-18.26293 z m 29.76115,-9.66999 12.39341,17.05806 58.49931,19.00758 -34.73815,-47.81297 z m -237.45533,17.80271 36.15456,11.74733 v -21.08493 l -36.15456,-49.76247 z m 77.91571,-16.59784 v 27.80735 l 26.44636,-36.40029 z m 203.98598,-21.95513 36.15456,49.76248 v -59.10007 l -36.15456,-11.74733 z m -237.45534,20.21244 21.46936,-6.97582 v -22.57421 l -56.20751,-18.26293 z m 133.48668,-30.7549 20.05295,27.60052 10.977,-15.10855 -13.26879,-18.26292 z m 35.76115,26.39564 4.34475,-1.41169 -1.65955,-2.28417 z m -74.20749,-13.90367 42.79108,13.90367 -16.34474,-22.4966 z m 84.3091,10e-6 6.24313,8.59293 39.86277,-12.9522 v -22.57421 l -21.46936,-6.97582 z M 392.96336,372.42752 v 18.67518 l 32.44636,-10.54246 -10.977,-15.10854 z m 48.15456,-15.64637 v 18.67518 l 32.44636,-10.54245 -10.977,-15.10855 z m 77.91571,-0.33238 12.3934,17.05805 22.34475,-30.75491 -34.73815,-47.81296 z m -92.60091,5.10389 2.6852,3.69586 v -4.56833 z m -97.96866,-18.80075 58.4993,19.00758 20.05295,-6.5156 -22.34474,-30.75491 z m 143.83141,0 13.2688,18.26293 21.46936,-6.97582 v -59.10007 z m -77.9157,-25.31635 24.63654,33.90929 10.10161,-3.28221 v -41.91418 l -21.46936,-6.97582 z m 46.73815,-11.2871 v 38.01514 l 20.05295,-6.5156 36.15456,-49.76247 z m 123.77847,31.49954 20.05295,6.5156 v -38.01514 l -56.20751,-18.26293 z m -240.14054,-6.30877 58.49931,-19.00758 12.3934,-17.05805 -36.15456,-11.74733 z m 90.30912,-42.3744 20.05295,6.5156 58.4993,-19.00758 -56.20751,-18.26293 z"
       stroke-miterlimit="10"
       id="path2" />
  </g>
  <g
     inkscape:groupmode="layer"
     id="layer7"
     inkscape:label="Layer 3"
     style="display:none">
    <path
       fill="#222222"
       stroke="#cccccc"
       paint-order="fill stroke markers"
       d="m 444.66185,244.55772 37.65123,12.23363 1.54902,0.7648 1.2669,1.17446 0.87976,1.48674 0.45022,2.28034 v 37.63933 l 10.67328,14.69051 17.26974,-5.61128 22.12384,-30.45085 1.20604,-1.23687 1.50847,-0.84196 1.68583,-0.37728 2.30786,0.27648 37.65123,12.23362 1.54902,0.7648 1.2669,1.17446 0.87976,1.48674 0.45022,2.28034 v 37.63934 l 20.97794,28.87364 35.79712,11.6312 1.54902,0.7648 1.2669,1.17446 0.87976,1.48674 0.45022,2.28034 v 39.58884 l -0.2487,1.70954 -0.72547,1.56782 -1.14212,1.29613 -2.02961,1.13285 -35.79712,11.6312 -10.67328,14.69051 10.67328,14.69051 35.79712,11.63119 1.54902,0.7648 1.2669,1.17446 0.87976,1.48674 0.45022,2.28034 v 39.58885 l -0.2487,1.70954 -0.72547,1.56782 -1.14212,1.29613 -2.02961,1.13285 -35.79712,11.63119 -20.97794,28.87365 v 37.63933 l -0.2487,1.70954 -0.72547,1.56782 -1.14212,1.29613 -2.02961,1.13285 -37.65123,12.23363 -1.70272,0.29175 -1.71527,-0.20549 -1.58562,-0.68569 -1.70459,-1.5802 -22.12384,-30.45085 -17.26974,-5.61128 -10.67328,14.69051 v 37.63933 l -0.2487,1.70954 -0.72547,1.56782 -1.14212,1.29613 -2.02961,1.13285 -37.65123,12.23362 -1.70272,0.29175 -1.71527,-0.20549 -1.58562,-0.68569 -1.70459,-1.5802 -22.12384,-30.45084 -33.94303,-11.02877 -35.79712,11.6312 -1.70272,0.29175 -1.71527,-0.20549 -1.58562,-0.68569 -1.70459,-1.5802 -23.26974,-32.02805 -0.80364,-1.52923 -0.33462,-1.69481 0.16214,-1.71991 0.97612,-2.10947 22.12384,-30.45085 v -18.15848 l -17.26974,-5.61128 -35.79713,11.63119 -1.70272,0.29175 -1.71527,-0.20549 -1.58562,-0.68569 -1.70459,-1.5802 -23.26974,-32.02804 -0.80364,-1.52922 -0.33462,-1.69482 0.16214,-1.71991 0.97612,-2.10947 22.12384,-30.45085 v -35.68982 l -22.12384,-30.45085 -0.80364,-1.52923 -0.33462,-1.69481 0.16214,-1.71991 0.97612,-2.10947 23.26974,-32.02805 1.20604,-1.23687 1.50847,-0.84196 1.68583,-0.37728 2.30786,0.27648 35.79713,11.6312 17.26974,-5.61128 v -18.15849 l -22.12384,-30.45084 -0.80364,-1.52922 -0.33462,-1.69482 0.16214,-1.71991 0.97612,-2.10947 23.26974,-32.02805 1.20604,-1.23687 1.50847,-0.84196 1.68583,-0.37728 2.30786,0.27648 35.79712,11.63119 33.94303,-11.02876 22.12384,-30.45085 1.20604,-1.23687 1.50847,-0.84196 1.68583,-0.37728 z m -17.70743,373.13645 18.14512,24.97462 29.35944,-9.53946 v -30.87032 l -29.35944,-9.53947 z m -98.5722,-32.02805 18.14513,24.97463 29.35943,-9.53946 v -30.87034 l -29.35943,-9.53946 z m 59.50456,-15.43516 v 30.87032 l 29.35944,9.53947 18.14513,-24.97463 -18.14513,-24.97463 z m 137.63982,15.43516 18.14513,24.97463 29.35944,-9.53947 v -30.87032 l -29.35944,-9.53947 z m -162.05545,-48.29576 -0.49837,0.51111 -0.47202,0.53567 -0.12921,0.0809 -0.10644,0.10916 -0.62337,0.34794 -0.60505,0.37896 -0.14693,0.0408 -0.13311,0.0743 -0.69666,0.15591 -0.68796,0.19086 -0.15242,-0.003 -0.1488,0.0333 -0.35491,-0.0425 -1.07111,-0.0196 -0.55055,-0.17467 -0.33129,-0.0397 -6.52739,-2.12088 v 11.84971 l 31.65122,10.28411 35.79713,-11.6312 1.70272,-0.29175 1.71527,0.20549 1.58562,0.68569 1.70459,1.5802 22.12384,30.45085 31.65124,10.28412 6.96507,-9.58661 -6.52738,-2.12088 -0.37073,-0.18304 -0.39408,-0.12503 -0.37637,-0.25537 -0.40784,-0.20136 -0.30319,-0.28107 -0.34214,-0.23214 -0.28803,-0.35205 -0.33354,-0.3092 -0.21054,-0.35581 -0.26181,-0.31999 -0.17577,-0.41949 -0.23164,-0.39145 -0.0602,-0.30513 -0.19998,-0.47725 -0.12845,-1.18621 -0.0616,-0.31175 v -31.33055 l -29.79713,9.68167 -1.70272,0.29175 -1.71527,-0.20549 -1.58562,-0.68569 -1.70459,-1.5802 -11.81918,-16.26771 -19.12385,6.21371 -1.70272,0.29175 -1.71527,-0.20549 -1.58562,-0.68569 -1.70459,-1.5802 -18.41564,-25.34695 z m 183.90879,-47.78838 -0.2487,1.70954 -0.72547,1.56782 -1.14212,1.29613 -1.46407,0.91699 -0.35551,0.0986 -0.21003,0.11723 -19.12384,6.21371 v 20.108 l -0.2487,1.70954 -0.72547,1.56782 -1.14212,1.29613 -2.02961,1.13285 -29.79712,9.68167 18.41563,25.34695 0.17305,0.3293 0.22489,0.29636 0.0666,0.25829 0.33911,0.64528 0.33462,1.69481 -0.0188,0.19993 0.0265,0.10274 -0.10277,0.70644 -0.067,0.7108 -0.0531,0.11472 -0.0258,0.17758 -0.72547,1.56782 -0.11866,0.13466 -0.0531,0.11469 -4.03415,5.55253 11.26975,3.66176 19.56153,-26.92414 V 514.0492 l 0.2487,-1.70954 0.72547,-1.56782 1.14212,-1.29613 2.02961,-1.13285 35.79713,-11.63119 19.56154,-26.92414 -6.96509,-9.58662 -4.03415,5.55253 -0.49837,0.51111 -0.47202,0.53567 -0.12921,0.0809 -0.10644,0.10916 -0.6234,0.34796 -0.60502,0.37894 -0.14691,0.0408 -0.13314,0.0743 -0.69674,0.15592 -0.68787,0.19084 -0.15242,-0.003 -0.1488,0.0333 -0.35491,-0.0425 -1.07111,-0.0196 -0.55055,-0.17467 -0.33129,-0.0397 -29.79713,-9.68167 z m -60.92096,79.49126 6.08969,1.97866 3.76364,-5.1802 -9.85333,-13.56195 z m 60.92096,-50.66475 v 30.87032 l 29.35944,9.53947 18.14512,-24.97463 -18.14512,-24.97462 z m -98.57219,-32.02805 v 35.22959 l -0.2487,1.70954 -0.72547,1.56782 -1.14212,1.29613 -2.02961,1.13285 -6.52739,2.12088 6.96508,9.58661 67.01066,-21.77309 v -11.8497 l -6.52739,2.12088 -0.55577,0.0952 -0.54335,0.15074 -0.30395,-0.006 -0.29965,0.0513 -0.55987,-0.0671 -0.56377,-0.0103 -0.28978,-0.0919 -0.30185,-0.0362 -0.51752,-0.2238 -0.5375,-0.17053 -0.25159,-0.17071 -0.27901,-0.12065 -0.27623,-0.25607 -0.62271,-0.42251 -0.52421,-0.64071 -0.28144,-0.26091 -20.70742,-28.50134 z m -181.34649,15.43517 18.14512,24.97462 29.35944,-9.53946 v -30.87033 l -29.35944,-9.53946 z m 82.7743,16.59288 v 6.40308 l 6.0897,1.97866 9.85332,-13.56195 z m 33.50532,-50.47539 -1.70272,0.29175 -1.71527,-0.20549 -1.58562,-0.68569 -1.70459,-1.5802 -4.03415,-5.55253 -6.96508,9.58662 41.41486,57.00267 11.26975,-3.66176 -4.03415,-5.55253 -0.80364,-1.52923 -0.33462,-1.69481 0.16214,-1.71991 0.97612,-2.10947 20.70743,-28.50134 -18.14512,-24.97462 z m 202.7067,33.88251 18.14512,24.97462 29.35943,-9.53946 V 486.38044 L 604.5927,476.84098 Z M 326.96582,382.73551 v 33.28007 l 22.12384,30.45085 0.80364,1.52923 0.33462,1.69481 -0.16214,1.71991 -0.97612,2.10947 -22.12384,30.45084 v 33.28008 l 11.26974,3.66176 v -6.8633 l 0.0159,-0.10952 -0.0119,-0.11001 0.13597,-0.74274 0.10871,-0.74727 0.0465,-0.10043 0.0199,-0.10886 0.34196,-0.67321 0.31711,-0.68532 0.0732,-0.083 0.0501,-0.0987 0.51954,-0.54782 0.4993,-0.56662 0.0809,-0.0452 0.089,-0.0939 1.49664,-0.86281 0.22398,-0.0534 0.13905,-0.0776 29.79713,-9.68167 -18.41564,-25.34695 -0.80364,-1.52923 -0.33462,-1.69481 0.16214,-1.71991 0.97612,-2.10947 11.81918,-16.26771 -11.81918,-16.26771 -0.80364,-1.52923 -0.33462,-1.69481 0.16214,-1.71991 0.97612,-2.10947 18.41563,-25.34695 -29.79712,-9.68168 -0.37073,-0.18304 -0.39408,-0.12503 -0.37637,-0.25537 -0.40784,-0.20136 -0.30319,-0.28107 -0.34214,-0.23214 -0.28803,-0.35205 -0.33354,-0.3092 -0.21054,-0.35581 -0.26181,-0.31999 -0.17577,-0.41949 -0.23164,-0.39145 -0.0602,-0.30513 -0.19998,-0.47725 -0.12845,-1.18621 -0.0616,-0.31175 v -6.8633 z m 99.98859,131.31372 3.76364,5.18021 6.0897,-1.97867 v -16.76349 z m 79.06609,-19.28704 6.0897,-1.97867 v -6.40308 l -15.94303,-5.18021 z m 18.0897,-76.7971 -0.2487,1.70954 -0.72547,1.56782 -1.14212,1.29613 -1.46407,0.91699 -0.35551,0.0986 -0.21003,0.11723 -33.50532,10.88654 v 30.87033 l 33.50532,10.88654 1.54902,0.7648 1.2669,1.17446 0.87976,1.48674 0.45022,2.28034 v 6.86331 l 11.26974,-3.66177 v -70.45916 l -11.26974,-3.66177 z m -234.79561,16.59289 v 30.87032 l 29.35944,9.53946 18.14512,-24.97462 -18.14512,-24.97463 z m 137.63983,15.43516 18.14512,24.97462 29.35944,-9.53946 v -30.87032 l -29.35944,-9.53947 z m -46.53948,0 3.76363,5.1802 15.94303,-5.1802 -15.94303,-5.18021 z m 180.38141,0 15.94303,5.1802 3.76363,-5.1802 -3.76363,-5.18021 z m -194.7629,-19.79442 6.96508,9.58661 4.03415,-5.55253 1.20604,-1.23687 1.50846,-0.84196 1.68584,-0.37728 2.30786,0.27648 33.50534,10.88655 18.14513,-24.97463 -20.70744,-28.50134 -0.12208,-0.2323 -0.16619,-0.20313 -0.23387,-0.55814 -0.2815,-0.53566 -0.0508,-0.25746 -0.10143,-0.24206 -0.0652,-0.60162 -0.11721,-0.59367 0.0246,-0.26129 -0.0282,-0.26091 0.10896,-0.59521 0.0568,-0.6025 0.0885,-0.19129 0.0568,-0.3103 0.78235,-1.54022 0.0335,-0.0353 0.015,-0.0324 4.03415,-5.55252 -11.26975,-3.66177 z m 138.51521,-105.16338 4.03415,5.55253 0.17305,0.3293 0.22489,0.29636 0.0666,0.25829 0.33911,0.64528 0.33462,1.69481 -0.0188,0.19993 0.0265,0.10274 -0.10277,0.70644 -0.067,0.7108 -0.0531,0.11472 -0.0258,0.17758 -0.72547,1.56782 -0.11866,0.13466 -0.0531,0.11469 -18.41563,25.34695 29.79712,9.68167 1.54902,0.7648 1.2669,1.17446 0.87976,1.48674 0.45022,2.28034 v 20.108 l 19.12384,6.21371 0.46861,0.23137 0.49196,0.17614 0.2786,0.20431 0.30985,0.15298 0.38327,0.35531 0.42137,0.309 0.20886,0.27524 0.2534,0.23491 0.26613,0.44974 0.31589,0.41629 0.0537,0.20831 0.24403,0.4124 0.45022,2.28034 v 31.33055 l 29.79713,-9.68168 0.66305,-0.11361 0.65436,-0.156 0.19391,0.0107 0.1914,-0.0328 0.66794,0.08 0.67168,0.0369 0.18283,0.0655 0.19282,0.0231 0.61744,0.26701 0.63334,0.22676 0.1566,0.11484 0.17824,0.0771 0.27688,0.25667 0.78137,0.57301 0.38727,0.51036 0.25907,0.24016 4.03415,5.55253 6.96508,-9.58661 -19.56153,-26.92414 -35.79713,-11.6312 -1.54902,-0.7648 -1.2669,-1.17446 -0.87976,-1.48674 -0.45022,-2.28034 v -37.6394 l -19.56159,-26.92413 z m -237.08741,73.13533 18.14513,24.97463 29.35944,-9.53947 v -30.87032 l -29.35944,-9.53947 z m 170.67321,-27.62164 6.52739,2.12088 1.54902,0.7648 1.2669,1.17446 0.87976,1.48674 0.45022,2.28034 v 35.22958 l 29.35944,9.53947 20.70742,-28.50134 0.57439,-0.58907 0.56594,-0.59674 0.0364,-0.021 0.0293,-0.0301 0.71858,-0.40108 0.71235,-0.41067 0.0409,-0.01 0.0367,-0.0205 0.80274,-0.17965 0.80017,-0.19076 0.0419,0.002 0.041,-0.009 0.17622,0.0211 1.46578,0.0806 0.39897,0.14285 0.26689,0.032 6.52739,2.12088 v -11.8497 l -67.01066,-21.77309 z m 148.31311,27.62164 18.14513,24.97463 29.35943,-9.53946 V 382.7355 l -29.35943,-9.53946 z m -90.28039,20.61537 15.94302,-5.1802 v -6.40308 l -6.0897,-1.97867 z m -69.21276,-32.849 9.85333,13.56195 v -16.76348 l -6.0897,-1.97867 z m 120.42552,-35.22958 v 30.87032 l 29.35944,9.53947 18.14512,-24.97463 -18.14512,-24.97462 z m -100.86399,-31.28339 -22.12384,30.45084 -1.20604,1.23687 -1.50847,0.84197 -1.68583,0.37727 -2.30786,-0.27648 -35.79713,-11.63119 -31.65122,10.28411 v 11.8497 l 6.52739,-2.12088 1.70272,-0.29175 1.71527,0.20549 1.58562,0.68569 1.70459,1.5802 18.41563,25.34696 18.41564,-25.34696 1.20604,-1.23687 1.50846,-0.84196 1.68584,-0.37728 2.30786,0.27648 19.12385,6.21372 11.81918,-16.26771 0.57439,-0.58907 0.56594,-0.59674 0.0364,-0.021 0.0293,-0.0301 0.7187,-0.40115 0.71223,-0.4106 0.0408,-0.01 0.0367,-0.0205 0.80301,-0.1797 0.79989,-0.1907 0.0419,0.002 0.041,-0.009 0.17622,0.0211 1.46578,0.0805 0.39897,0.14285 0.26689,0.032 29.79713,9.68167 v -31.33007 l 0.0159,-0.10952 -0.0119,-0.11001 0.13597,-0.74274 0.10871,-0.74727 0.0465,-0.10043 0.0199,-0.10886 0.34196,-0.67321 0.31711,-0.68532 0.0732,-0.083 0.0501,-0.0987 0.51954,-0.54782 0.4993,-0.56662 0.0809,-0.0452 0.089,-0.0939 1.49664,-0.86281 0.22398,-0.0534 0.13905,-0.0776 6.52738,-2.12088 -6.96507,-9.58661 z m -96.28039,55.75064 v 6.40308 l 15.94302,5.1802 -9.85332,-13.56195 z m 136.22342,-44.26167 v 16.76348 l 9.85333,-13.56194 -3.76364,-5.1802 z m -158.07675,-16.59288 18.14512,24.97462 29.35943,-9.53946 v -30.87033 l -29.35943,-9.53946 z m 59.50455,-15.43517 v 30.87033 l 29.35944,9.53946 18.14512,-24.97462 -18.14512,-24.97463 z m 137.63983,15.43517 18.14512,24.97462 29.35944,-9.53946 v -30.87033 l -29.35944,-9.53946 z m -98.5722,-32.02805 18.14513,24.97463 29.35944,-9.53947 v -30.87032 l -29.35944,-9.53947 z"
       stroke-miterlimit="10"
       id="path3" />
  </g>
  <g
     inkscape:groupmode="layer"
     id="layer8"
     inkscape:label="Layer 4"
     style="display:inline">
    <path
       fill="#222222"
       stroke="#cccccc"
       paint-order="fill stroke markers"
       d="m 452.97845,244.22511 1.58562,0.68569 1.70459,1.5802 9.45579,13.01478 15.2998,-4.9712 1.70272,-0.29175 1.71527,0.20549 1.58562,0.68569 1.70459,1.5802 12.0181,16.54149 0.80364,1.52922 0.33462,1.69482 -0.16214,1.71991 -0.97612,2.10947 -9.4558,13.01478 6.89349,9.48808 11.1539,-3.62412 V 283.1007 l 0.0159,-0.10952 -0.0119,-0.11001 0.13597,-0.74274 0.10871,-0.74727 0.0465,-0.10043 0.0199,-0.10886 0.34196,-0.67321 0.31711,-0.68532 0.0732,-0.083 0.0501,-0.0987 0.51954,-0.54782 0.4993,-0.56662 0.0809,-0.0452 0.089,-0.0939 1.49664,-0.86281 0.22398,-0.0534 0.13905,-0.0776 19.44569,-6.31829 0.66305,-0.11361 0.65436,-0.156 0.19391,0.0107 0.1914,-0.0328 0.66794,0.08 0.67168,0.0369 0.18283,0.0655 0.19282,0.0231 0.61744,0.26701 0.63334,0.22676 0.1566,0.11484 0.17824,0.0771 0.27688,0.25667 0.78137,0.57301 0.38727,0.51036 0.25907,0.24016 9.45579,13.01478 15.2998,-4.97121 0.66305,-0.11361 0.65436,-0.156 0.19391,0.0107 0.1914,-0.0328 0.66794,0.08 0.67168,0.0369 0.18283,0.0655 0.19282,0.0231 0.61744,0.26701 0.63334,0.22676 0.1566,0.11484 0.17824,0.0771 0.27688,0.25667 0.78137,0.57301 0.38727,0.51036 0.25907,0.24016 12.0181,16.5415 0.17305,0.3293 0.22489,0.29636 0.0666,0.25829 0.33911,0.64528 0.33462,1.69481 -0.0189,0.19993 0.0265,0.10274 -0.10277,0.70644 -0.067,0.7108 -0.0531,0.11472 -0.0258,0.17758 -0.72547,1.56782 -0.11866,0.13466 -0.0531,0.11469 -9.45579,13.01478 6.89348,9.48807 15.2998,-4.9712 0.66305,-0.11361 0.65436,-0.156 0.19391,0.0107 0.1914,-0.0328 0.66794,0.08 0.67168,0.0369 0.18283,0.0655 0.19282,0.0231 0.61744,0.26701 0.63334,0.22676 0.1566,0.11484 0.17824,0.0771 0.27688,0.25667 0.78137,0.57301 0.38727,0.51036 0.25907,0.24016 12.0181,16.54149 0.17305,0.3293 0.22489,0.29636 0.0666,0.25828 0.33911,0.64528 0.33462,1.69482 -0.0189,0.19993 0.0265,0.10274 -0.10277,0.70644 -0.067,0.7108 -0.0531,0.11472 -0.0258,0.17758 -0.72547,1.56782 -0.11866,0.13466 -0.0531,0.11469 -9.4558,13.01478 6.89349,9.48808 15.2998,-4.97121 0.66305,-0.11361 0.65436,-0.156 0.19391,0.0107 0.1914,-0.0328 0.66794,0.08 0.67168,0.0369 0.18283,0.0655 0.19282,0.0231 0.61744,0.26701 0.63334,0.22676 0.1566,0.11484 0.17824,0.0771 0.27688,0.25667 0.78137,0.57301 0.38727,0.51036 0.25907,0.24016 12.0181,16.54149 0.17305,0.3293 0.22489,0.29636 0.0666,0.25828 0.33911,0.64528 0.33462,1.69482 -0.0189,0.19993 0.0265,0.10274 -0.10277,0.70644 -0.067,0.7108 -0.0531,0.11472 -0.0258,0.17758 -0.72547,1.56782 -0.11866,0.13466 -0.0531,0.11469 -9.4558,13.01478 9.4558,13.01479 0.17305,0.3293 0.22489,0.29636 0.0666,0.25829 0.33911,0.64528 0.33462,1.69481 -0.0189,0.19993 0.0265,0.10274 -0.10277,0.70644 -0.067,0.7108 -0.0531,0.11472 -0.0258,0.17758 -0.72547,1.56782 -0.11866,0.13466 -0.0531,0.11469 -12.0181,16.54149 -0.49837,0.51111 -0.47202,0.53567 -0.12921,0.0809 -0.10644,0.10916 -0.6234,0.34796 -0.60502,0.37894 -0.14691,0.0408 -0.13314,0.0743 -0.69674,0.15592 -0.68787,0.19084 -0.15242,-0.003 -0.1488,0.0333 -0.35491,-0.0425 -1.07111,-0.0196 -0.55055,-0.17467 -0.33129,-0.0397 -15.2998,-4.97121 -6.89349,9.48808 6.89349,9.48807 15.2998,-4.97121 1.70272,-0.29175 1.71527,0.20549 1.58562,0.68569 1.70459,1.5802 12.0181,16.54149 0.80364,1.52922 0.33462,1.69482 -0.16214,1.71991 -0.97612,2.10947 -9.4558,13.01479 9.4558,13.01478 0.80364,1.52922 0.33462,1.69482 -0.16214,1.71991 -0.97612,2.10947 -12.0181,16.54149 -1.20604,1.23687 -1.50847,0.84197 -1.68583,0.37727 -2.30786,-0.27648 -15.2998,-4.97121 -6.89349,9.48808 9.4558,13.01478 0.80364,1.52922 0.33462,1.69482 -0.16214,1.71991 -0.97612,2.10947 -12.0181,16.54149 -1.20604,1.23687 -1.50847,0.84197 -1.68583,0.37727 -2.30786,-0.27648 -15.2998,-4.9712 -6.89348,9.48807 9.45579,13.01478 0.80364,1.52922 0.33462,1.69482 -0.16214,1.71991 -0.97612,2.10947 -12.0181,16.5415 -1.20604,1.23687 -1.50846,0.84196 -1.68584,0.37728 -2.30786,-0.27648 -15.2998,-4.97121 -9.45579,13.01478 -1.20604,1.23687 -1.50847,0.84197 -1.68583,0.37727 -2.30786,-0.27648 -19.44569,-6.31829 -1.54902,-0.7648 -1.2669,-1.17446 -0.87976,-1.48674 -0.45022,-2.28034 V 600.8265 l -11.1539,-3.62412 -6.89349,9.48808 9.4558,13.01478 0.17305,0.3293 0.22489,0.29636 0.0666,0.25828 0.33911,0.64528 0.33462,1.69482 -0.0188,0.19993 0.0265,0.10274 -0.10277,0.70644 -0.067,0.7108 -0.0531,0.11472 -0.0258,0.17758 -0.72547,1.56782 -0.11866,0.13466 -0.0531,0.11469 -12.0181,16.54149 -0.49837,0.51111 -0.47202,0.53567 -0.12921,0.0809 -0.10644,0.10916 -0.6234,0.34796 -0.60502,0.37894 -0.14691,0.0408 -0.13314,0.0743 -0.69674,0.15592 -0.68787,0.19084 -0.15242,-0.003 -0.1488,0.0333 -0.35491,-0.0425 -1.07111,-0.0196 -0.55055,-0.17467 -0.33129,-0.0397 -15.2998,-4.9712 -9.45579,13.01478 -0.49837,0.51111 -0.47202,0.53567 -0.12921,0.0809 -0.10644,0.10916 -0.6234,0.34796 -0.60502,0.37894 -0.14691,0.0408 -0.13314,0.0743 -0.69674,0.15592 -0.68787,0.19084 -0.15242,-0.003 -0.1488,0.0333 -0.35491,-0.0425 -1.07111,-0.0196 -0.55055,-0.17467 -0.33129,-0.0397 -19.44569,-6.31829 -0.37073,-0.18304 -0.39408,-0.12503 -0.37637,-0.25537 -0.40784,-0.20136 -0.30319,-0.28107 -0.34214,-0.23214 -0.28803,-0.35205 -0.33354,-0.3092 -0.21054,-0.35581 -0.26181,-0.31999 -0.17577,-0.41949 -0.23164,-0.39145 -0.0602,-0.30513 -0.19998,-0.47725 -0.12845,-1.18621 -0.0616,-0.31175 V 627.5908 l -11.1539,-3.62412 -9.45579,13.01479 -0.49837,0.51111 -0.47202,0.53567 -0.12921,0.0809 -0.10644,0.10916 -0.62337,0.34794 -0.60505,0.37896 -0.14693,0.0408 -0.13311,0.0743 -0.69666,0.15591 -0.68796,0.19086 -0.15242,-0.003 -0.1488,0.0333 -0.35491,-0.0425 -1.07111,-0.0196 -0.55055,-0.17467 -0.33129,-0.0397 -19.44569,-6.31829 -0.37073,-0.18304 -0.39408,-0.12503 -0.37637,-0.25537 -0.40784,-0.20136 -0.30319,-0.28107 -0.34214,-0.23214 -0.28803,-0.35205 -0.33354,-0.3092 -0.21054,-0.35581 -0.26181,-0.31999 -0.17577,-0.41949 -0.23164,-0.39145 -0.0602,-0.30513 -0.19998,-0.47725 -0.12845,-1.18621 -0.0616,-0.31175 v -16.08716 l -11.1539,-3.62412 -9.45579,13.01478 -0.49837,0.51111 -0.47202,0.53567 -0.12921,0.0809 -0.10644,0.10916 -0.6234,0.34796 -0.60502,0.37894 -0.14691,0.0408 -0.13314,0.0743 -0.69674,0.15592 -0.68787,0.19084 -0.15242,-0.003 -0.1488,0.0333 -0.35491,-0.0425 -1.07111,-0.0196 -0.55055,-0.17467 -0.33129,-0.0397 -19.44569,-6.31829 -0.37073,-0.18304 -0.39408,-0.12503 -0.37637,-0.25537 -0.40784,-0.20136 -0.30319,-0.28107 -0.34214,-0.23214 -0.28803,-0.35205 -0.33354,-0.3092 -0.21054,-0.35581 -0.26181,-0.31999 -0.17577,-0.41949 -0.23164,-0.39145 -0.0602,-0.30513 -0.19998,-0.47725 -0.12845,-1.18621 -0.0616,-0.31175 v -16.08715 l -15.29979,-4.9712 -0.37073,-0.18304 -0.39408,-0.12503 -0.37637,-0.25537 -0.40784,-0.20136 -0.3032,-0.28108 -0.34213,-0.23213 -0.28801,-0.35202 -0.33356,-0.30922 -0.21056,-0.35584 -0.26179,-0.31997 -0.17576,-0.41945 -0.23165,-0.39148 -0.0603,-0.30515 -0.19997,-0.47724 -0.12845,-1.18621 -0.0616,-0.31175 v -20.44563 l 0.0159,-0.10952 -0.0119,-0.11001 0.13597,-0.74274 0.10871,-0.74727 0.0465,-0.10043 0.0199,-0.10886 0.34196,-0.67321 0.31711,-0.68532 0.0732,-0.083 0.0501,-0.0987 0.51954,-0.54782 0.4993,-0.56662 0.0809,-0.0452 0.089,-0.0939 1.49664,-0.86281 0.22398,-0.0534 0.13905,-0.0776 15.29979,-4.9712 v -11.72791 l -11.1539,-3.62412 -9.45579,13.01478 -1.20604,1.23687 -1.50847,0.84197 -1.68583,0.37727 -2.30786,-0.27648 -19.44569,-6.31829 -1.54902,-0.7648 -1.2669,-1.17446 -0.87976,-1.48674 -0.45022,-2.28034 v -16.08715 l -15.29979,-4.9712 -1.54902,-0.7648 -1.2669,-1.17445 -0.87976,-1.48674 -0.45022,-2.28035 V 493.3133 l 0.2487,-1.70954 0.72547,-1.56782 1.14212,-1.29613 2.02961,-1.13285 15.29979,-4.9712 v -11.72791 l -15.29979,-4.9712 -1.54902,-0.7648 -1.2669,-1.17446 -0.87976,-1.48674 -0.45022,-2.28034 V 439.7839 l 0.0159,-0.10952 -0.0119,-0.11001 0.13597,-0.74274 0.10871,-0.74727 0.0465,-0.10043 0.0199,-0.10886 0.34196,-0.67321 0.31711,-0.68532 0.0732,-0.083 0.0501,-0.0987 0.51954,-0.54782 0.4993,-0.56662 0.0809,-0.0452 0.089,-0.0939 1.49664,-0.86281 0.22398,-0.0534 0.13905,-0.0776 15.29979,-4.9712 v -11.72791 l -15.29979,-4.9712 -0.37073,-0.18304 -0.39408,-0.12503 -0.37637,-0.25537 -0.40784,-0.20136 -0.30319,-0.28107 -0.34214,-0.23214 -0.28803,-0.35205 -0.33354,-0.3092 -0.21054,-0.35581 -0.26181,-0.31999 -0.17577,-0.41949 -0.23164,-0.39145 -0.0602,-0.30513 -0.19998,-0.47725 -0.12845,-1.18621 -0.0615,-0.31175 v -20.44641 l 0.0159,-0.10952 -0.0119,-0.11001 0.13597,-0.74274 0.10871,-0.74727 0.0465,-0.10043 0.0199,-0.10886 0.34196,-0.67321 0.31711,-0.68532 0.0732,-0.083 0.0501,-0.0987 0.51954,-0.54782 0.4993,-0.56662 0.0809,-0.0452 0.089,-0.0939 1.49664,-0.86281 0.22398,-0.0534 0.13905,-0.0776 15.29979,-4.9712 v -16.08715 l 0.0159,-0.10952 -0.0119,-0.11001 0.13597,-0.74274 0.10871,-0.74727 0.0465,-0.10043 0.0199,-0.10886 0.34196,-0.67321 0.31711,-0.68532 0.0732,-0.083 0.0501,-0.0987 0.51954,-0.54782 0.4993,-0.56662 0.0809,-0.0452 0.089,-0.0939 1.49664,-0.86281 0.22398,-0.0534 0.13905,-0.0776 19.44569,-6.31829 0.66305,-0.11361 0.65436,-0.156 0.19391,0.0107 0.1914,-0.0328 0.66794,0.08 0.67168,0.0369 0.18283,0.0655 0.19282,0.0231 0.61744,0.26701 0.63334,0.22676 0.1566,0.11484 0.17824,0.0771 0.27688,0.25667 0.78137,0.57301 0.38727,0.51036 0.25907,0.24016 9.45579,13.01478 11.1539,-3.62412 v -11.72791 l -15.29979,-4.9712 -1.54902,-0.7648 -1.2669,-1.17446 -0.87976,-1.48674 -0.45022,-2.28034 v -20.44641 l 0.2487,-1.70954 0.72547,-1.56782 1.14212,-1.29613 2.02961,-1.13285 15.29979,-4.9712 v -16.08715 l 0.2487,-1.70954 0.72547,-1.56782 1.14212,-1.29613 2.02961,-1.13285 19.44569,-6.31829 1.70272,-0.29175 1.71527,0.20549 1.58562,0.68569 1.70459,1.5802 9.45579,13.01478 11.1539,-3.62412 v -16.08716 l 0.2487,-1.70954 0.72547,-1.56782 1.14212,-1.29613 2.02961,-1.13285 19.44569,-6.31829 1.70272,-0.29175 1.71527,0.20549 1.58562,0.68569 1.70459,1.5802 9.45579,13.01479 11.1539,-3.62412 v -16.08716 l 0.2487,-1.70954 0.72547,-1.56782 1.14212,-1.29613 2.02961,-1.13285 19.44569,-6.31829 1.70272,-0.29175 z m -35.60117,269.15646 -1.20604,1.23687 -1.50847,0.84197 -1.68583,0.37727 -2.30786,-0.27648 -15.2998,-4.97121 -6.89349,9.48807 9.4558,13.01479 0.80364,1.52923 0.33462,1.69481 -0.16214,1.71991 -0.97612,2.10947 -12.0181,16.54149 -1.20604,1.23687 -1.50847,0.84197 -1.68583,0.37727 -2.30786,-0.27648 -15.2998,-4.97121 -9.45579,13.01479 -1.20604,1.23687 -1.50846,0.84196 -1.68584,0.37728 -2.30786,-0.27648 -17.59159,-5.71586 -13.44569,4.36877 v 11.7279 l 15.29979,4.9712 0.46861,0.23137 0.49196,0.17614 0.2786,0.20431 0.30985,0.15298 0.38329,0.35532 0.42135,0.30899 0.20883,0.27521 0.25343,0.23493 0.26615,0.44978 0.31587,0.41626 0.0537,0.20829 0.24404,0.41241 0.45022,2.28035 v 16.08716 l 11.1539,3.62412 9.45579,-13.01478 0.57439,-0.58907 0.56594,-0.59674 0.0364,-0.021 0.0294,-0.0301 0.7187,-0.40115 0.71223,-0.4106 0.0408,-0.01 0.0367,-0.0205 0.80301,-0.1797 0.79989,-0.1907 0.0419,0.002 0.041,-0.009 0.17622,0.0211 1.46578,0.0806 0.39897,0.14285 0.26689,0.032 19.44569,6.31829 0.46861,0.23137 0.49196,0.17614 0.2786,0.20431 0.30985,0.15298 0.38327,0.35531 0.42137,0.309 0.20886,0.27524 0.2534,0.23491 0.26613,0.44974 0.31589,0.41629 0.0537,0.20831 0.24403,0.4124 0.45022,2.28034 v 16.08716 l 11.1539,3.62412 9.45579,-13.01479 0.57439,-0.58907 0.56594,-0.59674 0.0364,-0.021 0.0293,-0.0301 0.71858,-0.40108 0.71235,-0.41067 0.0409,-0.01 0.0367,-0.0205 0.80274,-0.17965 0.80017,-0.19076 0.0419,0.002 0.041,-0.009 0.17622,0.0211 1.46578,0.0806 0.39897,0.14285 0.26689,0.032 19.44569,6.31829 0.46861,0.23137 0.49196,0.17614 0.2786,0.20431 0.30985,0.15298 0.38327,0.35531 0.42137,0.309 0.20886,0.27524 0.2534,0.23491 0.26613,0.44974 0.31589,0.41629 0.0537,0.20831 0.24403,0.4124 0.45022,2.28034 v 16.08716 l 11.1539,3.62412 9.45579,-13.01478 0.57439,-0.58907 0.56594,-0.59674 0.0364,-0.021 0.0294,-0.0301 0.7187,-0.40115 0.71223,-0.4106 0.0408,-0.01 0.0367,-0.0205 0.80301,-0.1797 0.79989,-0.1907 0.0419,0.002 0.041,-0.009 0.17622,0.0211 1.46578,0.0806 0.39897,0.14285 0.26689,0.032 15.2998,4.9712 6.89348,-9.48807 -8.30989,-11.43758 -17.59159,-5.71586 -1.54902,-0.7648 -1.2669,-1.17446 -0.87976,-1.48674 -0.45022,-2.28034 v -16.08716 l -15.29979,-4.9712 -1.54902,-0.7648 -1.2669,-1.17446 -0.87976,-1.48674 -0.45022,-2.28034 V 553.1599 l 0.2487,-1.70954 0.72547,-1.56782 1.14212,-1.29613 2.02961,-1.13285 15.29979,-4.9712 v -11.72791 l -15.29979,-4.9712 -1.54902,-0.7648 -1.2669,-1.17446 -0.87976,-1.48674 -0.45022,-2.28034 v -16.08715 l -11.1539,-3.62412 z m 195.06443,-41.72899 -10.8722,14.96429 -0.49837,0.51111 -0.47202,0.53567 -0.12921,0.0809 -0.10644,0.10916 -0.6234,0.34796 -0.60502,0.37894 -0.14691,0.0408 -0.13314,0.0743 -0.69674,0.15592 -0.68787,0.19084 -0.15242,-0.003 -0.1488,0.0333 -0.35491,-0.0425 -1.07111,-0.0196 -0.55055,-0.17467 -0.33129,-0.0397 -15.2998,-4.97121 -9.45579,13.01479 -0.49837,0.51111 -0.47202,0.53567 -0.12921,0.0809 -0.10644,0.10916 -0.62337,0.34794 -0.60505,0.37896 -0.14693,0.0408 -0.13311,0.0743 -0.69666,0.15591 -0.68796,0.19086 -0.15242,-0.003 -0.1488,0.0333 -0.35491,-0.0425 -1.07111,-0.0196 -0.55055,-0.17467 -0.33129,-0.0397 -19.44569,-6.31829 -0.37073,-0.18304 -0.39408,-0.12503 -0.37637,-0.25537 -0.40784,-0.20136 -0.30319,-0.28107 -0.34214,-0.23214 -0.28803,-0.35205 -0.33354,-0.3092 -0.21054,-0.35581 -0.26181,-0.31999 -0.17577,-0.41949 -0.23164,-0.39145 -0.0602,-0.30513 -0.19998,-0.47725 -0.12845,-1.18621 -0.0616,-0.31175 v -16.08716 l -11.1539,-3.62412 -9.45579,13.01478 -0.49837,0.51111 -0.47202,0.53567 -0.12921,0.0809 -0.10644,0.10916 -0.6234,0.34796 -0.60502,0.37894 -0.14691,0.0408 -0.13314,0.0743 -0.69674,0.15592 -0.68787,0.19084 -0.15242,-0.003 -0.1488,0.0333 -0.35491,-0.0425 -1.07111,-0.0196 -0.55055,-0.17467 -0.33129,-0.0397 -15.2998,-4.9712 -6.89348,9.48807 9.45579,13.01478 0.17305,0.3293 0.22489,0.29636 0.0666,0.25828 0.33911,0.64528 0.33462,1.69482 -0.0188,0.19993 0.0265,0.10274 -0.10277,0.70644 -0.067,0.7108 -0.0531,0.11472 -0.0258,0.17758 -0.72547,1.56782 -0.11866,0.13466 -0.0531,0.11469 -9.4558,13.01478 6.89349,9.48808 15.2998,-4.97121 0.66305,-0.11361 0.65436,-0.156 0.19391,0.0107 0.1914,-0.0328 0.66794,0.08 0.67168,0.0369 0.18283,0.0655 0.19282,0.0231 0.61744,0.26701 0.63334,0.22676 0.1566,0.11484 0.17824,0.0771 0.27688,0.25667 0.78137,0.57301 0.38727,0.51036 0.25907,0.24016 12.0181,16.54149 0.17305,0.3293 0.22489,0.29636 0.0666,0.25828 0.33911,0.64528 0.33462,1.69482 -0.0188,0.19993 0.0265,0.10274 -0.10277,0.70644 -0.067,0.7108 -0.0531,0.11472 -0.0258,0.17758 -0.72547,1.56782 -0.11866,0.13466 -0.0531,0.11469 -9.4558,13.01479 9.4558,13.01478 0.17305,0.3293 0.22489,0.29636 0.0666,0.25828 0.33911,0.64528 0.33462,1.69482 -0.0188,0.19993 0.0265,0.10274 -0.10277,0.70644 -0.067,0.7108 -0.0531,0.11472 -0.0258,0.17758 -0.72547,1.56782 -0.11866,0.13466 -0.0531,0.11469 -10.8722,14.96429 v 14.13765 l 11.1539,3.62412 9.45579,-13.01478 1.20604,-1.23687 1.50847,-0.84197 1.68583,-0.37727 2.30786,0.27648 15.2998,4.97121 6.89349,-9.48808 -9.4558,-13.01478 -0.80364,-1.52922 -0.33462,-1.69482 0.16214,-1.71991 0.97612,-2.10947 12.0181,-16.54149 1.20604,-1.23687 1.50847,-0.84197 1.68583,-0.37727 2.30786,0.27648 15.2998,4.9712 6.89348,-9.48807 -9.45579,-13.01478 -0.80364,-1.52922 -0.33462,-1.69482 0.16214,-1.71991 0.97612,-2.10947 12.0181,-16.5415 1.20604,-1.23687 1.50846,-0.84196 1.68584,-0.37728 2.30786,0.27648 15.2998,4.97121 6.89348,-9.48807 -9.45579,-13.01478 -0.80364,-1.52922 -0.33462,-1.69482 0.16214,-1.71991 0.97612,-2.10947 9.4558,-13.01479 -6.89349,-9.48807 z M 469.43266,304.00144 v 16.08716 l -0.2487,1.70954 -0.72547,1.56782 -1.14212,1.29613 -1.46407,0.91699 -0.35551,0.0986 -0.21003,0.11723 -15.29979,4.9712 v 11.72791 l 15.29979,4.9712 0.46861,0.23137 0.49196,0.17614 0.2786,0.20431 0.30985,0.15298 0.38327,0.35531 0.42137,0.309 0.20886,0.27524 0.2534,0.23491 0.26613,0.44974 0.31589,0.41629 0.0537,0.20831 0.24403,0.4124 0.45022,2.28034 v 20.44641 l -0.2487,1.70954 -0.72547,1.56782 -1.14212,1.29613 -1.46407,0.91699 -0.35551,0.0986 -0.21003,0.11723 -15.29979,4.9712 v 16.08716 l -0.2487,1.70954 -0.72547,1.56782 -1.14212,1.29613 -1.46407,0.91699 -0.35551,0.0986 -0.21003,0.11723 -19.44569,6.31828 -0.55577,0.0952 -0.54335,0.15074 -0.30395,-0.006 -0.29965,0.0513 -0.55987,-0.0671 -0.56377,-0.0103 -0.28978,-0.0919 -0.30185,-0.0362 -0.51752,-0.2238 -0.5375,-0.17053 -0.25159,-0.17071 -0.27901,-0.12065 -0.27623,-0.25607 -0.62271,-0.42251 -0.52421,-0.64071 -0.28144,-0.26091 -9.45579,-13.01478 -15.2998,4.97121 -0.55577,0.0952 -0.54335,0.15074 -0.30395,-0.006 -0.29965,0.0513 -0.55987,-0.0671 -0.56377,-0.0103 -0.28978,-0.0919 -0.30185,-0.0362 -0.51752,-0.2238 -0.5375,-0.17053 -0.25159,-0.17071 -0.27901,-0.12065 -0.27623,-0.25607 -0.62271,-0.42251 -0.52421,-0.64071 -0.28144,-0.26091 -12.0181,-16.54149 -0.12208,-0.23231 -0.16619,-0.20312 -0.23386,-0.55811 -0.28151,-0.53568 -0.0508,-0.25748 -0.10142,-0.24205 -0.0652,-0.60161 -0.11721,-0.59368 0.0246,-0.26129 -0.0282,-0.26091 0.10896,-0.59521 0.0568,-0.6025 0.0885,-0.19129 0.0568,-0.3103 0.78235,-1.54022 0.0335,-0.0353 0.015,-0.0324 9.4558,-13.01479 -6.89349,-9.48807 -15.2998,4.97121 -0.55577,0.0952 -0.54335,0.15074 -0.30395,-0.006 -0.29965,0.0513 -0.55987,-0.0671 -0.56377,-0.0103 -0.28978,-0.0919 -0.30185,-0.0362 -0.51752,-0.2238 -0.5375,-0.17053 -0.25159,-0.17071 -0.27901,-0.12065 -0.27623,-0.25607 -0.62271,-0.42251 -0.52421,-0.64071 -0.28144,-0.26091 -9.45579,-13.01479 -11.1539,3.62412 v 16.08716 l -0.2487,1.70954 -0.72547,1.56782 -1.14212,1.29613 -2.02961,1.13285 -15.29979,4.9712 v 11.72791 l 15.29979,4.9712 1.54902,0.7648 1.2669,1.17446 0.87976,1.48674 0.45022,2.28034 v 16.08716 l 11.1539,3.62412 9.45579,-13.01479 1.20604,-1.23687 1.50846,-0.84196 1.68584,-0.37728 2.30786,0.27648 19.44569,6.31829 1.54902,0.7648 1.2669,1.17446 0.87976,1.48674 0.45022,2.28034 v 16.08716 l 15.29979,4.9712 1.54902,0.7648 1.2669,1.17446 0.87976,1.48674 0.45022,2.28034 v 20.44641 l -0.2487,1.70954 -0.72547,1.56782 -1.14212,1.29613 -2.02961,1.13285 -15.29979,4.9712 v 16.08716 l -0.2487,1.70954 -0.72547,1.56782 -1.14212,1.29613 -2.02961,1.13285 -19.44569,6.31829 -1.70272,0.29175 -1.71527,-0.20549 -1.58562,-0.68569 -1.70459,-1.5802 -9.45579,-13.01479 -11.1539,3.62412 v 16.08716 l -0.2487,1.70954 -0.72547,1.56782 -1.14212,1.29613 -2.02961,1.13285 -15.29979,4.9712 v 11.72791 l 15.29979,4.9712 1.54902,0.7648 1.2669,1.17446 0.87976,1.48674 0.45022,2.28034 v 16.08716 l 11.1539,3.62412 9.45579,-13.01479 1.20604,-1.23687 1.50846,-0.84196 1.68584,-0.37728 2.30786,0.27648 15.2998,4.97121 6.89349,-9.48807 -9.4558,-13.01479 -0.80364,-1.52923 -0.33462,-1.69481 0.16214,-1.71991 0.97612,-2.10947 12.0181,-16.54149 1.20604,-1.23687 1.50847,-0.84197 1.68583,-0.37727 2.30786,0.27648 15.2998,4.97121 9.45579,-13.01478 1.20604,-1.23687 1.50847,-0.84197 1.68583,-0.37727 2.30786,0.27648 19.44569,6.31828 1.54902,0.7648 1.2669,1.17445 0.87976,1.48674 0.45022,2.28035 v 16.08716 l 15.29979,4.9712 1.54902,0.7648 1.2669,1.17446 0.87976,1.48674 0.45022,2.28034 v 20.44641 l -0.2487,1.70954 -0.72547,1.56782 -1.14212,1.29613 -2.02961,1.13285 -15.29979,4.9712 v 11.72791 l 15.29979,4.9712 1.54902,0.7648 1.2669,1.17446 0.87976,1.48674 0.45022,2.28034 v 16.08716 l 11.1539,3.62412 9.45579,-13.01479 1.20604,-1.23687 1.50846,-0.84196 1.68584,-0.37728 2.30786,0.27648 15.2998,4.97121 6.89348,-9.48807 -9.45579,-13.01478 -0.12208,-0.23231 -0.16619,-0.20312 -0.23386,-0.55811 -0.28151,-0.53568 -0.0508,-0.25748 -0.10142,-0.24205 -0.0651,-0.60161 -0.11721,-0.59368 0.0246,-0.26129 -0.0283,-0.26091 0.10896,-0.59521 0.0568,-0.6025 0.0885,-0.19129 0.0568,-0.3103 0.78235,-1.54022 0.0335,-0.0353 0.015,-0.0324 9.4558,-13.01479 -6.89349,-9.48807 -15.2998,4.97121 -0.55577,0.0952 -0.54335,0.15074 -0.30395,-0.006 -0.29965,0.0513 -0.55987,-0.0671 -0.56377,-0.0103 -0.28978,-0.0919 -0.30185,-0.0362 -0.51752,-0.2238 -0.5375,-0.17053 -0.25159,-0.17071 -0.27901,-0.12065 -0.27623,-0.25607 -0.62271,-0.42251 -0.52421,-0.64071 -0.28144,-0.26091 -12.0181,-16.5415 -0.12208,-0.2323 -0.16619,-0.20313 -0.23387,-0.55814 -0.2815,-0.53566 -0.0508,-0.25746 -0.10143,-0.24206 -0.0652,-0.60162 -0.11721,-0.59367 0.0246,-0.26129 -0.0283,-0.26091 0.10896,-0.59521 0.0568,-0.6025 0.0885,-0.19129 0.0568,-0.3103 0.78235,-1.54022 0.0335,-0.0353 0.015,-0.0324 9.45579,-13.01478 -9.45579,-13.01478 -0.12208,-0.23231 -0.16619,-0.20312 -0.23386,-0.55811 -0.28151,-0.53568 -0.0508,-0.25748 -0.10142,-0.24205 -0.0652,-0.60161 -0.11721,-0.59368 0.0246,-0.26129 -0.0283,-0.26091 0.10896,-0.59521 0.0568,-0.6025 0.0885,-0.19129 0.0568,-0.3103 0.78235,-1.54022 0.0335,-0.0353 0.015,-0.0324 12.0181,-16.54149 0.57439,-0.58907 0.56594,-0.59674 0.0364,-0.021 0.0294,-0.0301 0.7187,-0.40115 0.71223,-0.4106 0.0408,-0.01 0.0367,-0.0205 0.80301,-0.1797 0.79989,-0.1907 0.0419,0.002 0.041,-0.009 0.17622,0.0211 1.46578,0.0806 0.39897,0.14285 0.26689,0.032 15.2998,4.9712 9.45579,-13.01478 0.57439,-0.58907 0.56594,-0.59674 0.0364,-0.021 0.0294,-0.0301 0.7187,-0.40115 0.71223,-0.4106 0.0408,-0.01 0.0367,-0.0205 0.80301,-0.1797 0.79989,-0.1907 0.0419,0.002 0.041,-0.009 0.17622,0.0211 1.46578,0.0806 0.39897,0.14285 0.26689,0.032 19.44569,6.31829 0.46861,0.23137 0.49196,0.17614 0.2786,0.20431 0.30985,0.15298 0.38327,0.35531 0.42137,0.309 0.20886,0.27524 0.2534,0.23491 0.26613,0.44974 0.31589,0.41629 0.0537,0.20831 0.24403,0.4124 0.45022,2.28034 v 16.08716 l 11.1539,3.62412 9.45579,-13.01479 0.57439,-0.58907 0.56594,-0.59674 0.0364,-0.021 0.0294,-0.0301 0.71858,-0.40108 0.71235,-0.41067 0.0409,-0.01 0.0367,-0.0205 0.80274,-0.17965 0.80017,-0.19076 0.0419,0.002 0.041,-0.009 0.17622,0.0211 1.46578,0.0806 0.39897,0.14285 0.26689,0.032 15.2998,4.97121 6.89348,-9.48807 -9.45579,-13.01478 -0.80364,-1.52922 -0.33462,-1.69482 0.16214,-1.71991 0.97612,-2.10947 9.4558,-13.01479 -6.89349,-9.48807 -15.2998,4.97121 -1.70272,0.29175 -1.71527,-0.20549 -1.58562,-0.68569 -1.70459,-1.5802 -9.45579,-13.01479 -11.1539,3.62412 v 16.08716 l -0.2487,1.70954 -0.72547,1.56782 -1.14212,1.29613 -2.02961,1.13285 -19.44569,6.31829 -1.70272,0.29175 -1.71527,-0.20549 -1.58562,-0.68569 -1.70459,-1.5802 -9.45579,-13.01478 -15.2998,4.97121 -1.70272,0.29175 -1.71527,-0.20549 -1.58562,-0.68569 -1.70459,-1.5802 -12.0181,-16.5415 -0.80364,-1.52923 -0.33462,-1.69481 0.16214,-1.71991 0.97612,-2.10947 9.45579,-13.01478 -9.45579,-13.01478 -0.80364,-1.52922 -0.33462,-1.69482 0.16214,-1.71991 0.97612,-2.10947 12.0181,-16.5415 1.20604,-1.23687 1.50846,-0.84196 1.68584,-0.37728 2.30786,0.27648 15.2998,4.97121 6.89349,-9.48807 -9.4558,-13.01479 -0.80364,-1.52923 -0.33462,-1.69481 0.16214,-1.71991 0.97612,-2.10947 9.45579,-13.01478 -6.89348,-9.48807 -15.2998,4.97121 -1.70272,0.29175 -1.71527,-0.20549 -1.58562,-0.68569 -1.70459,-1.5802 -9.45579,-13.01479 z m -184.19223,59.84769 v 16.08716 l -0.2487,1.70954 -0.72547,1.56782 -1.14212,1.29613 -1.46407,0.91699 -0.35551,0.0986 -0.21003,0.11723 -15.29979,4.9712 v 11.7279 l 15.29979,4.9712 0.46861,0.23137 0.49196,0.17614 0.2786,0.20431 0.30985,0.15298 0.38327,0.35531 0.42137,0.309 0.20886,0.27524 0.2534,0.23491 0.26613,0.44974 0.31589,0.41629 0.0537,0.20831 0.24403,0.4124 0.45022,2.28034 v 20.44641 l -0.2487,1.70954 -0.72547,1.56782 -1.14212,1.29613 -1.46407,0.91699 -0.35551,0.0986 -0.21003,0.11723 -15.29979,4.9712 v 11.72791 l 15.29979,4.9712 1.54902,0.7648 1.2669,1.17446 0.87976,1.48674 0.45022,2.28034 v 20.44641 l -0.2487,1.70954 -0.72547,1.56782 -1.14212,1.29613 -2.02961,1.13285 -15.29979,4.9712 v 11.7279 l 15.29979,4.9712 1.54902,0.7648 1.2669,1.17445 0.87976,1.48674 0.45022,2.28035 v 16.08716 l 11.1539,3.62412 8.30989,-11.43758 v -18.4969 l 0.2487,-1.70954 0.72547,-1.56782 1.14212,-1.29613 2.02961,-1.13285 15.29979,-4.9712 v -16.0871 l 0.2487,-1.70954 0.72547,-1.56782 1.14212,-1.29613 2.02961,-1.13285 19.44569,-6.31829 1.70272,-0.29175 1.71527,0.20549 1.58562,0.68569 1.70459,1.5802 9.45579,13.01479 11.1539,-3.62412 v -16.08716 l 0.2487,-1.70954 0.72547,-1.56782 1.14212,-1.29613 2.02961,-1.13285 15.29979,-4.9712 v -11.72791 l -15.29979,-4.9712 -1.54902,-0.7648 -1.2669,-1.17446 -0.87976,-1.48674 -0.45022,-2.28034 v -16.08716 l -11.1539,-3.62412 -9.45579,13.01479 -1.20604,1.23687 -1.50846,0.84196 -1.68584,0.37728 -2.30786,-0.27648 -19.44569,-6.31829 -1.54902,-0.7648 -1.2669,-1.17446 -0.87976,-1.48674 -0.45022,-2.28034 v -16.08716 l -15.29979,-4.9712 -1.54902,-0.7648 -1.2669,-1.17446 -0.87976,-1.48674 -0.45022,-2.28034 v -18.4969 l -8.30989,-11.43758 z m 235.10171,-76.38918 v 14.13765 l 10.8722,14.96429 0.80364,1.52922 0.33462,1.69482 -0.16214,1.71991 -0.97612,2.10947 -9.4558,13.01478 9.4558,13.01479 0.80364,1.52923 0.33462,1.69481 -0.16214,1.71991 -0.97612,2.10947 -12.0181,16.54149 -1.20604,1.23687 -1.50847,0.84197 -1.68583,0.37727 -2.30786,-0.27648 -15.2998,-4.97121 -6.89349,9.48808 9.4558,13.01478 0.80364,1.52922 0.33462,1.69482 -0.16214,1.71991 -0.97612,2.10947 -9.4558,13.01478 6.89349,9.48808 15.2998,-4.97121 1.70272,-0.29175 1.71527,0.20549 1.58562,0.68569 1.70459,1.5802 9.45579,13.01478 11.1539,-3.62412 v -16.08716 l 0.2487,-1.70954 0.72547,-1.56782 1.14212,-1.29613 2.02961,-1.13285 19.44569,-6.31829 1.70272,-0.29175 1.71527,0.20549 1.58562,0.68569 1.70459,1.5802 9.45579,13.01479 15.2998,-4.97121 1.70272,-0.29175 1.71527,0.20549 1.58562,0.68569 1.70459,1.5802 10.8722,14.96429 13.4457,4.36878 6.89349,-9.48807 -9.4558,-13.01479 -0.12208,-0.2323 -0.16619,-0.20313 -0.23387,-0.55814 -0.2815,-0.53566 -0.0508,-0.25746 -0.10143,-0.24206 -0.0652,-0.60162 -0.11721,-0.59367 0.0246,-0.26129 -0.0282,-0.26091 0.10896,-0.59521 0.0568,-0.6025 0.0885,-0.19129 0.0568,-0.3103 0.78235,-1.54022 0.0335,-0.0353 0.015,-0.0324 9.45579,-13.01478 -6.89348,-9.48807 -15.2998,4.97121 -0.55577,0.0952 -0.54335,0.15074 -0.30395,-0.006 -0.29965,0.0513 -0.55987,-0.0671 -0.56377,-0.0103 -0.28978,-0.0919 -0.30185,-0.0362 -0.51752,-0.2238 -0.5375,-0.17053 -0.25159,-0.17071 -0.27901,-0.12065 -0.27623,-0.25607 -0.62271,-0.42251 -0.52421,-0.64071 -0.28144,-0.26091 -12.0181,-16.5415 -0.12208,-0.2323 -0.16619,-0.20313 -0.23387,-0.55814 -0.2815,-0.53566 -0.0508,-0.25746 -0.10143,-0.24206 -0.0652,-0.60162 -0.11721,-0.59367 0.0246,-0.26129 -0.0282,-0.26091 0.10896,-0.59521 0.0568,-0.6025 0.0885,-0.19129 0.0568,-0.3103 0.78235,-1.54022 0.0335,-0.0353 0.015,-0.0324 9.45579,-13.01478 -6.89348,-9.48807 -15.2998,4.9712 -0.55577,0.0952 -0.54335,0.15074 -0.30395,-0.006 -0.29965,0.0513 -0.55987,-0.0671 -0.56377,-0.0103 -0.28978,-0.0919 -0.30185,-0.0362 -0.51752,-0.2238 -0.5375,-0.17053 -0.25159,-0.17071 -0.27901,-0.12065 -0.27623,-0.25607 -0.62271,-0.42251 -0.52421,-0.64071 -0.28144,-0.26091 -12.0181,-16.54149 -0.12208,-0.23231 -0.16619,-0.20312 -0.23386,-0.55811 -0.28151,-0.53568 -0.0508,-0.25748 -0.10142,-0.24205 -0.0652,-0.60161 -0.11721,-0.59368 0.0246,-0.26129 -0.0282,-0.26091 0.10896,-0.59521 0.0568,-0.6025 0.0885,-0.19129 0.0568,-0.3103 0.78235,-1.54022 0.0335,-0.0353 0.015,-0.0324 9.4558,-13.01478 -6.89349,-9.48808 -15.2998,4.97121 -0.55577,0.0952 -0.54335,0.15074 -0.30395,-0.006 -0.29965,0.0513 -0.55987,-0.0671 -0.56377,-0.0103 -0.28978,-0.0919 -0.30185,-0.0362 -0.51752,-0.2238 -0.5375,-0.17053 -0.25159,-0.17071 -0.27901,-0.12065 -0.27623,-0.25607 -0.62271,-0.42251 -0.52421,-0.64071 -0.28144,-0.26091 -9.45579,-13.01478 z m -82.37327,-26.7647 v 16.08716 l -0.2487,1.70954 -0.72547,1.56782 -1.14212,1.29613 -2.02961,1.13285 -19.44569,6.31829 -1.70272,0.29175 -1.71527,-0.20549 -1.58562,-0.68569 -1.70459,-1.5802 -9.45579,-13.01479 -11.1539,3.62412 v 16.08716 l -0.2487,1.70954 -0.72547,1.56782 -1.14212,1.29613 -2.02961,1.13285 -19.44569,6.31829 -1.70272,0.29175 -1.71527,-0.20549 -1.58562,-0.68569 -1.70459,-1.5802 -9.45579,-13.01478 -11.1539,3.62412 v 16.08716 l -0.2487,1.70954 -0.72547,1.56782 -1.14212,1.29613 -2.02961,1.13285 -15.29979,4.9712 v 11.7279 l 13.44569,4.36877 17.59159,-5.71586 0.66305,-0.11361 0.65436,-0.156 0.19391,0.0107 0.1914,-0.0328 0.66794,0.08 0.67168,0.0369 0.18283,0.0655 0.19282,0.0231 0.61744,0.26701 0.63334,0.22676 0.1566,0.11484 0.17824,0.0771 0.27688,0.25667 0.78137,0.57301 0.38727,0.51036 0.25907,0.24016 9.45579,13.01479 15.2998,-4.97121 0.66305,-0.11361 0.65436,-0.156 0.19391,0.0107 0.1914,-0.0328 0.66794,0.08 0.67168,0.0369 0.18283,0.0655 0.19282,0.0231 0.61744,0.26701 0.63334,0.22676 0.1566,0.11484 0.17824,0.0771 0.27688,0.25667 0.78137,0.57301 0.38727,0.51036 0.25907,0.24016 12.0181,16.54149 0.17305,0.3293 0.22489,0.29636 0.0666,0.25828 0.33911,0.64528 0.33462,1.69482 -0.0189,0.19993 0.0265,0.10274 -0.10277,0.70644 -0.067,0.7108 -0.0531,0.11472 -0.0258,0.17758 -0.72547,1.56782 -0.11866,0.13466 -0.0531,0.11469 -9.4558,13.01479 6.89349,9.48807 15.2998,-4.97121 0.66305,-0.11361 0.65436,-0.156 0.19391,0.0107 0.1914,-0.0328 0.66794,0.08 0.67168,0.0369 0.18283,0.0655 0.19282,0.0231 0.61744,0.26701 0.63334,0.22676 0.1566,0.11484 0.17824,0.0771 0.27688,0.25667 0.78137,0.57301 0.38727,0.51036 0.25907,0.24016 9.45579,13.01478 11.1539,-3.62412 V 379.9365 l 0.0159,-0.10952 -0.0119,-0.11001 0.13597,-0.74274 0.10871,-0.74727 0.0465,-0.10043 0.0199,-0.10886 0.34196,-0.67321 0.31711,-0.68532 0.0732,-0.083 0.0501,-0.0987 0.51954,-0.54782 0.4993,-0.56662 0.0809,-0.0452 0.089,-0.0939 1.49664,-0.86281 0.22398,-0.0534 0.13905,-0.0776 15.29979,-4.9712 v -11.72791 l -15.29979,-4.9712 -0.37073,-0.18304 -0.39408,-0.12503 -0.37637,-0.25537 -0.40784,-0.20136 -0.30319,-0.28107 -0.34214,-0.23214 -0.28803,-0.35205 -0.33354,-0.3092 -0.21054,-0.35581 -0.26181,-0.31999 -0.17577,-0.41949 -0.23164,-0.39145 -0.0602,-0.30513 -0.19998,-0.47725 -0.12845,-1.18621 -0.0616,-0.31175 v -20.44641 l 0.0159,-0.10952 -0.0119,-0.11001 0.13597,-0.74274 0.10871,-0.74727 0.0465,-0.10043 0.0199,-0.10886 0.34196,-0.67321 0.31711,-0.68532 0.0732,-0.083 0.0501,-0.0987 0.51954,-0.54782 0.4993,-0.56662 0.0809,-0.0452 0.089,-0.0939 1.49664,-0.86281 0.22398,-0.0534 0.13905,-0.0776 15.29979,-4.9712 v -16.08716 l 0.0159,-0.10952 -0.0119,-0.11001 0.13597,-0.74274 0.10871,-0.74727 0.0465,-0.10043 0.0199,-0.10886 0.34196,-0.67321 0.31711,-0.68532 0.0732,-0.083 0.0501,-0.0987 0.51954,-0.54782 0.4993,-0.56662 0.0809,-0.0452 0.089,-0.0939 1.49664,-0.86281 0.22398,-0.0534 0.13905,-0.0776 17.59159,-5.71586 8.30989,-11.43758 -6.89348,-9.48807 -15.2998,4.9712 -1.70272,0.29175 -1.71527,-0.20549 -1.58562,-0.68569 -1.70459,-1.5802 -9.45579,-13.01478 z"
       stroke-miterlimit="10"
       id="path4" />
  </g>
</svg>
