  0
SECTION
  2
HEADER
  9
$ACADVER
  1
AC1014
  9
$HANDSEED
  5
FFFF
  9
$INSUNITS
 70
     4
  9
$MEASUREMENT
 70
     1
  0
ENDSEC
  0
SECTION
  2
TABLES
  0
TABLE
  2
VPORT
  5
8
330
0
100
AcDbSymbolTable
 70
     4
  0
VPORT
  5
2E
330
8
100
AcDbSymbolTableRecord
100
AcDbViewportTableRecord
  2
*ACTIVE
 70
     0
 10
0.0
 20
0.0
 11
1.0
 21
1.0
 12
210.0
 22
148.5
 13
0.0
 23
0.0
 14
10.0
 24
10.0
 15
10.0
 25
10.0
 16
0.0
 26
0.0
 36
1.0
 17
0.0
 27
0.0
 37
0.0
 40
341.0
 41
1.24
 42
50.0
 43
0.0
 44
0.0
 50
0.0
 51
0.0
 71
     0
 72
   100
 73
     1
 74
     3
 75
     0
 76
     0
 77
     0
 78
     0
  0
ENDTAB
  0
TABLE
  2
LTYPE
  5
5
330
0
100
AcDbSymbolTable
 70
     1
  0
LTYPE
  5
14
330
5
100
AcDbSymbolTableRecord
100
AcDbLinetypeTableRecord
  2
BYBLOCK
 70
     0
  3

 72
    65
 73
     0
 40
0.0
  0
LTYPE
  5
15
330
5
100
AcDbSymbolTableRecord
100
AcDbLinetypeTableRecord
  2
BYLAYER
 70
     0
  3

 72
    65
 73
     0
 40
0.0
  0
LTYPE
  5
16
330
5
100
AcDbSymbolTableRecord
100
AcDbLinetypeTableRecord
  2
CONTINUOUS
 70
     0
  3
Solid line
 72
    65
 73
     0
 40
0.0
  0
ENDTAB
  0
TABLE
  2
LAYER
  5
2
100
AcDbSymbolTable
 70
5
  0
LAYER
  5
50
100
AcDbSymbolTableRecord
100
AcDbLayerTableRecord
  2
0
 70
0
  6
CONTINUOUS
  0
LAYER
  5
51
100
AcDbSymbolTableRecord
100
AcDbLayerTableRecord
  2
Layer_1
 70
0
  6
CONTINUOUS
  0
LAYER
  5
52
100
AcDbSymbolTableRecord
100
AcDbLayerTableRecord
  2
Layer_2
 70
0
  6
CONTINUOUS
  0
LAYER
  5
53
100
AcDbSymbolTableRecord
100
AcDbLayerTableRecord
  2
Layer_3
 70
0
  6
CONTINUOUS
  0
LAYER
  5
54
100
AcDbSymbolTableRecord
100
AcDbLayerTableRecord
  2
Layer_4
 70
0
  6
CONTINUOUS
  0
ENDTAB
  0
TABLE
  2
STYLE
  5
3
330
0
100
AcDbSymbolTable
 70
     1
  0
STYLE
  5
11
330
3
100
AcDbSymbolTableRecord
100
AcDbTextStyleTableRecord
  2
STANDARD
 70
     0
 40
0.0
 41
1.0
 50
0.0
 71
     0
 42
2.5
  3
txt
  4

  0
ENDTAB
  0
TABLE
  2
VIEW
  5
6
330
0
100
AcDbSymbolTable
 70
     0
  0
ENDTAB
  0
TABLE
  2
UCS
  5
7
330
0
100
AcDbSymbolTable
 70
     0
  0
ENDTAB
  0
TABLE
  2
APPID
  5
9
330
0
100
AcDbSymbolTable
 70
     2
  0
APPID
  5
12
330
9
100
AcDbSymbolTableRecord
100
AcDbRegAppTableRecord
  2
ACAD
 70
     0
  0
ENDTAB
  0
TABLE
  2
DIMSTYLE
  5
A
330
0
100
AcDbSymbolTable
 70
     1
  0
DIMSTYLE
105
27
330
A
100
AcDbSymbolTableRecord
100
AcDbDimStyleTableRecord
  2
ISO-25
 70
     0
  3

  4

  5

  6

  7

 40
1.0
 41
2.5
 42
0.625
 43
3.75
 44
1.25
 45
0.0
 46
0.0
 47
0.0
 48
0.0
140
2.5
141
2.5
142
0.0
143
0.03937007874016
144
1.0
145
0.0
146
1.0
147
0.625
 71
     0
 72
     0
 73
     0
 74
     0
 75
     0
 76
     0
 77
     1
 78
     8
170
     0
171
     3
172
     1
173
     0
174
     0
175
     0
176
     0
177
     0
178
     0
270
     2
271
     2
272
     2
273
     2
274
     3
340
11
275
     0
280
     0
281
     0
282
     0
283
     0
284
     8
285
     0
286
     0
287
     3
288
     0
  0
ENDTAB
  0
TABLE
  2
BLOCK_RECORD
  5
1
330
0
100
AcDbSymbolTable
 70
     1
  0
BLOCK_RECORD
  5
1F
330
1
100
AcDbSymbolTableRecord
100
AcDbBlockTableRecord
  2
*MODEL_SPACE
  0
BLOCK_RECORD
  5
1B
330
1
100
AcDbSymbolTableRecord
100
AcDbBlockTableRecord
  2
*PAPER_SPACE
  0
ENDTAB
  0
ENDSEC
  0
SECTION
  2
BLOCKS
  0
BLOCK
  5
20
330
1F
100
AcDbEntity
  8
0
100
AcDbBlockBegin
  2
*MODEL_SPACE
 70
     0
 10
0.0
 20
0.0
 30
0.0
  3
*MODEL_SPACE
  1

  0
ENDBLK
  5
21
330
1F
100
AcDbEntity
  8
0
100
AcDbBlockEnd
  0
BLOCK
  5
1C
330
1B
100
AcDbEntity
 67
     1
  8
0
100
AcDbBlockBegin
  2
*PAPER_SPACE
  1

  0
ENDBLK
  5
1D
330
1B
100
AcDbEntity
 67
     1
  8
0
100
AcDbBlockEnd
  0
ENDSEC
  0
SECTION
  2
ENTITIES
  0
LWPOLYLINE
  5
100
100
AcDbEntity
  8
Layer_1
 62
7
100
AcDbPolyline
 90
323
 70
1
 10
115.936496
 20
173.261544
 30
0.0
 10
116.356024
 20
173.080122
 30
0.0
 10
116.807030
 20
172.662027
 30
0.0
 10
121.250210
 20
166.546511
 30
0.0
 10
128.439431
 20
168.882433
 30
0.0
 10
128.614863
 20
168.912492
 30
0.0
 10
128.787996
 20
168.953767
 30
0.0
 10
128.839301
 20
168.950936
 30
0.0
 10
128.889943
 20
168.959615
 30
0.0
 10
129.066668
 20
168.938448
 30
0.0
 10
129.244384
 20
168.928685
 30
0.0
 10
129.292757
 20
168.911355
 30
0.0
 10
129.343774
 20
168.905243
 30
0.0
 10
129.507139
 20
168.834596
 30
0.0
 10
129.674710
 20
168.774599
 30
0.0
 10
129.716144
 20
168.744215
 30
0.0
 10
129.763303
 20
168.723815
 30
0.0
 10
129.836561
 20
168.655905
 30
0.0
 10
130.043298
 20
168.504296
 30
0.0
 10
130.145764
 20
168.369263
 30
0.0
 10
130.214309
 20
168.305721
 30
0.0
 10
134.657491
 20
162.190205
 30
0.0
 10
141.846713
 20
164.526124
 30
0.0
 10
142.297224
 20
164.603316
 30
0.0
 10
142.751056
 20
164.548947
 30
0.0
 10
143.170585
 20
164.367525
 30
0.0
 10
143.621591
 20
163.949430
 30
0.0
 10
148.064770
 20
157.833915
 30
0.0
 10
155.253992
 20
160.169836
 30
0.0
 10
155.704503
 20
160.247028
 30
0.0
 10
156.158335
 20
160.192659
 30
0.0
 10
156.577863
 20
160.011237
 30
0.0
 10
157.028870
 20
159.593142
 30
0.0
 10
162.149996
 20
152.544518
 30
0.0
 10
162.362626
 20
152.139912
 30
0.0
 10
162.451161
 20
151.691491
 30
0.0
 10
162.408261
 20
151.236431
 30
0.0
 10
162.149996
 20
150.678301
 30
0.0
 10
159.900684
 20
147.582390
 30
0.0
 10
163.540146
 20
148.764921
 30
0.0
 10
163.715578
 20
148.794981
 30
0.0
 10
163.888711
 20
148.836256
 30
0.0
 10
163.940016
 20
148.833425
 30
0.0
 10
163.990658
 20
148.842103
 30
0.0
 10
164.167383
 20
148.820936
 30
0.0
 10
164.345099
 20
148.811173
 30
0.0
 10
164.393473
 20
148.793843
 30
0.0
 10
164.444490
 20
148.787731
 30
0.0
 10
164.607854
 20
148.717085
 30
0.0
 10
164.775425
 20
148.657088
 30
0.0
 10
164.816859
 20
148.626703
 30
0.0
 10
164.864018
 20
148.606304
 30
0.0
 10
164.937276
 20
148.538393
 30
0.0
 10
165.144013
 20
148.386784
 30
0.0
 10
165.246479
 20
148.251751
 30
0.0
 10
165.315024
 20
148.188209
 30
0.0
 10
170.436151
 20
141.139585
 30
0.0
 10
170.481937
 20
141.052457
 30
0.0
 10
170.541439
 20
140.974045
 30
0.0
 10
170.559061
 20
140.905709
 30
0.0
 10
170.648783
 20
140.734979
 30
0.0
 10
170.737318
 20
140.286557
 30
0.0
 10
170.732344
 20
140.233659
 30
0.0
 10
170.739356
 20
140.206476
 30
0.0
 10
170.712164
 20
140.019564
 30
0.0
 10
170.694437
 20
139.831498
 30
0.0
 10
170.680388
 20
139.801145
 30
0.0
 10
170.673562
 20
139.754160
 30
0.0
 10
170.481614
 20
139.339341
 30
0.0
 10
170.450219
 20
139.303712
 30
0.0
 10
170.436170
 20
139.273367
 30
0.0
 10
165.992987
 20
133.157852
 30
0.0
 10
170.436170
 20
127.042336
 30
0.0
 10
170.481956
 20
126.955209
 30
0.0
 10
170.541458
 20
126.876797
 30
0.0
 10
170.559079
 20
126.808460
 30
0.0
 10
170.648802
 20
126.637730
 30
0.0
 10
170.737337
 20
126.189309
 30
0.0
 10
170.732363
 20
126.136411
 30
0.0
 10
170.739374
 20
126.109227
 30
0.0
 10
170.712183
 20
125.922315
 30
0.0
 10
170.694456
 20
125.734249
 30
0.0
 10
170.680406
 20
125.703896
 30
0.0
 10
170.673580
 20
125.656912
 30
0.0
 10
170.481633
 20
125.242092
 30
0.0
 10
170.450237
 20
125.206464
 30
0.0
 10
170.436188
 20
125.176119
 30
0.0
 10
165.993006
 20
119.060603
 30
0.0
 10
170.436188
 20
112.945087
 30
0.0
 10
170.481974
 20
112.857960
 30
0.0
 10
170.541476
 20
112.779548
 30
0.0
 10
170.559098
 20
112.711211
 30
0.0
 10
170.648821
 20
112.540481
 30
0.0
 10
170.737355
 20
112.092060
 30
0.0
 10
170.732381
 20
112.039162
 30
0.0
 10
170.739393
 20
112.011979
 30
0.0
 10
170.712201
 20
111.825066
 30
0.0
 10
170.694474
 20
111.637001
 30
0.0
 10
170.680425
 20
111.606648
 30
0.0
 10
170.673599
 20
111.559663
 30
0.0
 10
170.481651
 20
111.144844
 30
0.0
 10
170.450256
 20
111.109215
 30
0.0
 10
170.436207
 20
111.078870
 30
0.0
 10
165.993024
 20
104.963354
 30
0.0
 10
170.436207
 20
98.847839
 30
0.0
 10
170.648836
 20
98.443232
 30
0.0
 10
170.737371
 20
97.994811
 30
0.0
 10
170.694472
 20
97.539752
 30
0.0
 10
170.436207
 20
96.981621
 30
0.0
 10
165.315080
 20
89.932997
 30
0.0
 10
164.995982
 20
89.605742
 30
0.0
 10
164.596866
 20
89.382970
 30
0.0
 10
164.150823
 20
89.283151
 30
0.0
 10
163.540202
 20
89.356303
 30
0.0
 10
159.900739
 20
90.538834
 30
0.0
 10
162.150052
 20
87.442924
 30
0.0
 10
162.362682
 20
87.038318
 30
0.0
 10
162.451217
 20
86.589896
 30
0.0
 10
162.408317
 20
86.134837
 30
0.0
 10
162.150052
 20
85.576706
 30
0.0
 10
157.028925
 20
78.528082
 30
0.0
 10
156.709827
 20
78.200827
 30
0.0
 10
156.310711
 20
77.978056
 30
0.0
 10
155.864668
 20
77.878236
 30
0.0
 10
155.254047
 20
77.951388
 30
0.0
 10
148.064826
 20
80.287310
 30
0.0
 10
143.621646
 20
74.171794
 30
0.0
 10
143.489786
 20
74.036563
 30
0.0
 10
143.364897
 20
73.894834
 30
0.0
 10
143.330710
 20
73.873429
 30
0.0
 10
143.302548
 20
73.844547
 30
0.0
 10
143.137615
 20
73.752488
 30
0.0
 10
142.977529
 20
73.652221
 30
0.0
 10
142.938653
 20
73.641426
 30
0.0
 10
142.903435
 20
73.621768
 30
0.0
 10
142.719110
 20
73.580517
 30
0.0
 10
142.537087
 20
73.530018
 30
0.0
 10
142.496760
 20
73.530812
 30
0.0
 10
142.457390
 20
73.522001
 30
0.0
 10
142.363486
 20
73.533246
 30
0.0
 10
142.080088
 20
73.538432
 30
0.0
 10
141.934422
 20
73.584647
 30
0.0
 10
141.846768
 20
73.595151
 30
0.0
 10
134.657547
 20
75.931070
 30
0.0
 10
130.214365
 20
69.815554
 30
0.0
 10
130.082504
 20
69.680323
 30
0.0
 10
129.957616
 20
69.538593
 30
0.0
 10
129.923429
 20
69.517189
 30
0.0
 10
129.895267
 20
69.488307
 30
0.0
 10
129.730325
 20
69.396242
 30
0.0
 10
129.570247
 20
69.295981
 30
0.0
 10
129.531377
 20
69.285186
 30
0.0
 10
129.496151
 20
69.265527
 30
0.0
 10
129.311805
 20
69.224274
 30
0.0
 10
129.129806
 20
69.173781
 30
0.0
 10
129.089478
 20
69.174574
 30
0.0
 10
129.050108
 20
69.165764
 30
0.0
 10
128.956205
 20
69.177008
 30
0.0
 10
128.672807
 20
69.182194
 30
0.0
 10
128.527141
 20
69.228409
 30
0.0
 10
128.439487
 20
69.238913
 30
0.0
 10
121.250265
 20
71.574835
 30
0.0
 10
116.807086
 20
65.459319
 30
0.0
 10
116.487988
 20
65.132064
 30
0.0
 10
116.088874
 20
64.909295
 30
0.0
 10
115.642829
 20
64.809473
 30
0.0
 10
115.032208
 20
64.882625
 30
0.0
 10
106.746053
 20
67.574959
 30
0.0
 10
106.336208
 20
67.777312
 30
0.0
 10
106.001008
 20
68.088055
 30
0.0
 10
105.768238
 20
68.481422
 30
0.0
 10
105.649117
 20
69.084762
 30
0.0
 10
105.649117
 20
72.911520
 30
0.0
 10
103.399804
 20
69.815607
 30
0.0
 10
103.080706
 20
69.488352
 30
0.0
 10
102.681590
 20
69.265580
 30
0.0
 10
102.235548
 20
69.165761
 30
0.0
 10
101.624926
 20
69.238913
 30
0.0
 10
93.338772
 20
71.931250
 30
0.0
 10
92.928927
 20
72.133603
 30
0.0
 10
92.593726
 20
72.444345
 30
0.0
 10
92.360956
 20
72.837712
 30
0.0
 10
92.241836
 20
73.441052
 30
0.0
 10
92.241836
 20
81.000243
 30
0.0
 10
85.052617
 20
83.336162
 30
0.0
 10
84.954528
 20
83.384591
 30
0.0
 10
84.850261
 20
83.417672
 30
0.0
 10
84.750680
 20
83.485239
 30
0.0
 10
84.642772
 20
83.538515
 30
0.0
 10
84.562553
 20
83.612882
 30
0.0
 10
84.472029
 20
83.674302
 30
0.0
 10
84.395821
 20
83.767448
 30
0.0
 10
84.307572
 20
83.849258
 30
0.0
 10
84.251866
 20
83.943399
 30
0.0
 10
84.182596
 20
84.028063
 30
0.0
 10
84.136090
 20
84.139053
 30
0.0
 10
84.074802
 20
84.242624
 30
0.0
 10
84.058874
 20
84.323357
 30
0.0
 10
84.005962
 20
84.449629
 30
0.0
 10
83.971977
 20
84.763480
 30
0.0
 10
83.955705
 20
84.845964
 30
0.0
 10
83.955705
 20
92.405158
 30
0.0
 10
76.766486
 20
94.741077
 30
0.0
 10
76.668397
 20
94.789506
 30
0.0
 10
76.564130
 20
94.822587
 30
0.0
 10
76.464549
 20
94.890153
 30
0.0
 10
76.356641
 20
94.943430
 30
0.0
 10
76.276422
 20
95.017796
 30
0.0
 10
76.185898
 20
95.079217
 30
0.0
 10
76.109690
 20
95.172363
 30
0.0
 10
76.021441
 20
95.254172
 30
0.0
 10
75.965735
 20
95.348314
 30
0.0
 10
75.896465
 20
95.432978
 30
0.0
 10
75.849959
 20
95.543968
 30
0.0
 10
75.788671
 20
95.647539
 30
0.0
 10
75.772743
 20
95.728271
 30
0.0
 10
75.719832
 20
95.854544
 30
0.0
 10
75.685846
 20
96.168395
 30
0.0
 10
75.669574
 20
96.250879
 30
0.0
 10
75.669574
 20
103.810070
 30
0.0
 10
68.480355
 20
106.145989
 30
0.0
 10
68.070510
 20
106.348342
 30
0.0
 10
67.735310
 20
106.659085
 30
0.0
 10
67.502540
 20
107.052451
 30
0.0
 10
67.383419
 20
107.655791
 30
0.0
 10
67.383419
 20
116.368372
 30
0.0
 10
67.449221
 20
116.820688
 30
0.0
 10
67.641168
 20
117.235507
 30
0.0
 10
67.943354
 20
117.578441
 30
0.0
 10
68.480355
 20
117.878175
 30
0.0
 10
72.119813
 20
119.060706
 30
0.0
 10
68.480355
 20
120.243238
 30
0.0
 10
68.382266
 20
120.291667
 30
0.0
 10
68.277999
 20
120.324748
 30
0.0
 10
68.178418
 20
120.392314
 30
0.0
 10
68.070510
 20
120.445591
 30
0.0
 10
67.990291
 20
120.519957
 30
0.0
 10
67.899767
 20
120.581378
 30
0.0
 10
67.823559
 20
120.674524
 30
0.0
 10
67.735310
 20
120.756333
 30
0.0
 10
67.679604
 20
120.850475
 30
0.0
 10
67.610334
 20
120.935139
 30
0.0
 10
67.563828
 20
121.046129
 30
0.0
 10
67.502540
 20
121.149700
 30
0.0
 10
67.486612
 20
121.230432
 30
0.0
 10
67.433701
 20
121.356705
 30
0.0
 10
67.399715
 20
121.670556
 30
0.0
 10
67.383443
 20
121.753040
 30
0.0
 10
67.383443
 20
130.465621
 30
0.0
 10
67.387650
 20
130.494598
 30
0.0
 10
67.384501
 20
130.523705
 30
0.0
 10
67.420477
 20
130.720222
 30
0.0
 10
67.449240
 20
130.917937
 30
0.0
 10
67.461543
 20
130.944509
 30
0.0
 10
67.466808
 20
130.973311
 30
0.0
 10
67.557285
 20
131.151432
 30
0.0
 10
67.641187
 20
131.332756
 30
0.0
 10
67.660554
 20
131.354716
 30
0.0
 10
67.673810
 20
131.380831
 30
0.0
 10
67.811272
 20
131.525775
 30
0.0
 10
67.943378
 20
131.675693
 30
0.0
 10
67.964783
 20
131.687652
 30
0.0
 10
67.988331
 20
131.712496
 30
0.0
 10
68.384317
 20
131.940782
 30
0.0
 10
68.443578
 20
131.954910
 30
0.0
 10
68.480368
 20
131.975442
 30
0.0
 10
75.669587
 20
134.311361
 30
0.0
 10
75.669587
 20
141.870449
 30
0.0
 10
75.673794
 20
141.899426
 30
0.0
 10
75.670645
 20
141.928533
 30
0.0
 10
75.706621
 20
142.125049
 30
0.0
 10
75.735384
 20
142.322764
 30
0.0
 10
75.747687
 20
142.349336
 30
0.0
 10
75.752952
 20
142.378139
 30
0.0
 10
75.843429
 20
142.556259
 30
0.0
 10
75.927331
 20
142.737583
 30
0.0
 10
75.946698
 20
142.759544
 30
0.0
 10
75.959954
 20
142.785658
 30
0.0
 10
76.097416
 20
142.930602
 30
0.0
 10
76.229522
 20
143.080520
 30
0.0
 10
76.250927
 20
143.092480
 30
0.0
 10
76.274475
 20
143.117324
 30
0.0
 10
76.670461
 20
143.345609
 30
0.0
 10
76.729722
 20
143.359738
 30
0.0
 10
76.766513
 20
143.380270
 30
0.0
 10
83.955731
 20
145.716188
 30
0.0
 10
83.955731
 20
153.275400
 30
0.0
 10
83.959938
 20
153.304378
 30
0.0
 10
83.956790
 20
153.333484
 30
0.0
 10
83.992765
 20
153.530001
 30
0.0
 10
84.021528
 20
153.727716
 30
0.0
 10
84.033831
 20
153.754288
 30
0.0
 10
84.039096
 20
153.783091
 30
0.0
 10
84.129573
 20
153.961211
 30
0.0
 10
84.213475
 20
154.142535
 30
0.0
 10
84.232843
 20
154.164496
 30
0.0
 10
84.246098
 20
154.190610
 30
0.0
 10
84.383560
 20
154.335554
 30
0.0
 10
84.515666
 20
154.485472
 30
0.0
 10
84.537071
 20
154.497431
 30
0.0
 10
84.560619
 20
154.522276
 30
0.0
 10
84.956605
 20
154.750561
 30
0.0
 10
85.015866
 20
154.764690
 30
0.0
 10
85.052657
 20
154.785221
 30
0.0
 10
92.241875
 20
157.121140
 30
0.0
 10
92.241875
 20
164.680294
 30
0.0
 10
92.307677
 20
165.132610
 30
0.0
 10
92.499624
 20
165.547429
 30
0.0
 10
92.801810
 20
165.890363
 30
0.0
 10
93.338811
 20
166.190097
 30
0.0
 10
101.624966
 20
168.882433
 30
0.0
 10
102.075477
 20
168.959625
 30
0.0
 10
102.529309
 20
168.905256
 30
0.0
 10
102.948838
 20
168.723834
 30
0.0
 10
103.399844
 20
168.305739
 30
0.0
 10
105.649157
 20
165.209826
 30
0.0
 10
105.649157
 20
169.036585
 30
0.0
 10
105.714959
 20
169.488900
 30
0.0
 10
105.906906
 20
169.903719
 30
0.0
 10
106.209092
 20
170.246654
 30
0.0
 10
106.746093
 20
170.546387
 30
0.0
 10
115.032248
 20
173.238721
 30
0.0
 10
115.482759
 20
173.315913
 30
0.0
  0
LWPOLYLINE
  5
101
100
AcDbEntity
  8
Layer_1
 62
7
100
AcDbPolyline
 90
5
 70
1
 10
108.824062
 20
76.643889
 30
0.0
 10
108.824062
 20
70.238083
 30
0.0
 10
114.916347
 20
68.258579
 30
0.0
 10
118.681585
 20
73.440986
 30
0.0
 10
114.916347
 20
78.623393
 30
0.0
  0
LWPOLYLINE
  5
102
100
AcDbEntity
  8
Layer_1
 62
7
100
AcDbPolyline
 90
5
 70
1
 10
95.416780
 20
81.000177
 30
0.0
 10
95.416780
 20
74.594371
 30
0.0
 10
101.509065
 20
72.614867
 30
0.0
 10
105.274303
 20
77.797274
 30
0.0
 10
101.509065
 20
82.979681
 30
0.0
  0
LWPOLYLINE
  5
103
100
AcDbEntity
  8
Layer_1
 62
7
100
AcDbPolyline
 90
23
 70
1
 10
117.110216
 20
81.005415
 30
0.0
 10
121.624968
 20
74.791393
 30
0.0
 10
128.323626
 20
72.614864
 30
0.0
 10
132.088864
 20
77.797271
 30
0.0
 10
128.323626
 20
82.979678
 30
0.0
 10
121.134404
 20
80.643759
 30
0.0
 10
120.987357
 20
80.618571
 30
0.0
 10
120.843596
 20
80.578687
 30
0.0
 10
120.763176
 20
80.580275
 30
0.0
 10
120.683893
 20
80.566702
 30
0.0
 10
120.535761
 20
80.584455
 30
0.0
 10
120.386597
 20
80.587181
 30
0.0
 10
120.309926
 20
80.611496
 30
0.0
 10
120.230061
 20
80.621074
 30
0.0
 10
120.093134
 20
80.680287
 30
0.0
 10
119.950921
 20
80.725407
 30
0.0
 10
119.884354
 20
80.770574
 30
0.0
 10
119.810533
 20
80.802496
 30
0.0
 10
119.737447
 20
80.870248
 30
0.0
 10
119.572688
 20
80.982037
 30
0.0
 10
119.433991
 20
81.151558
 30
0.0
 10
119.359527
 20
81.220590
 30
0.0
 10
117.110216
 20
84.316501
 30
0.0
  0
LWPOLYLINE
  5
104
100
AcDbEntity
  8
Layer_1
 62
7
100
AcDbPolyline
 90
13
 70
1
 10
143.924777
 20
89.202186
 30
0.0
 10
143.858975
 20
88.749870
 30
0.0
 10
143.667028
 20
88.335051
 30
0.0
 10
143.364842
 20
87.992117
 30
0.0
 10
142.977473
 20
87.749496
 30
0.0
 10
142.883411
 20
87.723409
 30
0.0
 10
142.827841
 20
87.692391
 30
0.0
 10
135.638622
 20
85.356472
 30
0.0
 10
135.638622
 20
78.950667
 30
0.0
 10
141.730907
 20
76.971163
 30
0.0
 10
145.870901
 20
82.669377
 30
0.0
 10
145.870901
 20
90.350340
 30
0.0
 10
143.924777
 20
93.028950
 30
0.0
  0
LWPOLYLINE
  5
105
100
AcDbEntity
  8
Layer_1
 62
7
100
AcDbPolyline
 90
5
 70
1
 10
104.077693
 20
84.845895
 30
0.0
 10
107.842931
 20
79.663488
 30
0.0
 10
113.935216
 20
81.642992
 30
0.0
 10
113.935216
 20
88.048798
 30
0.0
 10
107.842931
 20
90.028302
 30
0.0
  0
LWPOLYLINE
  5
106
100
AcDbEntity
  8
Layer_1
 62
7
100
AcDbPolyline
 90
5
 70
1
 10
149.045901
 20
89.712752
 30
0.0
 10
149.045901
 20
83.306946
 30
0.0
 10
155.138186
 20
81.327442
 30
0.0
 10
158.903424
 20
86.509849
 30
0.0
 10
155.138186
 20
91.692256
 30
0.0
  0
LWPOLYLINE
  5
107
100
AcDbEntity
  8
Layer_1
 62
7
100
AcDbPolyline
 90
59
 70
1
 10
130.214309
 20
92.625365
 30
0.0
 10
130.082449
 20
92.490134
 30
0.0
 10
129.957560
 20
92.348405
 30
0.0
 10
129.923373
 20
92.327000
 30
0.0
 10
129.895211
 20
92.298118
 30
0.0
 10
129.730270
 20
92.206053
 30
0.0
 10
129.570192
 20
92.105792
 30
0.0
 10
129.531322
 20
92.094997
 30
0.0
 10
129.496095
 20
92.075339
 30
0.0
 10
129.311749
 20
92.034085
 30
0.0
 10
129.129750
 20
91.983592
 30
0.0
 10
129.089423
 20
91.984386
 30
0.0
 10
129.050053
 20
91.975575
 30
0.0
 10
128.956149
 20
91.986820
 30
0.0
 10
128.672751
 20
91.992006
 30
0.0
 10
128.527085
 20
92.038220
 30
0.0
 10
128.439431
 20
92.048724
 30
0.0
 10
121.250210
 20
94.384646
 30
0.0
 10
117.484972
 20
89.202239
 30
0.0
 10
121.250210
 20
84.019832
 30
0.0
 10
128.439431
 20
86.355751
 30
0.0
 10
128.614863
 20
86.385810
 30
0.0
 10
128.787996
 20
86.427085
 30
0.0
 10
128.839301
 20
86.424254
 30
0.0
 10
128.889943
 20
86.432932
 30
0.0
 10
129.066668
 20
86.411766
 30
0.0
 10
129.244384
 20
86.402003
 30
0.0
 10
129.292757
 20
86.384672
 30
0.0
 10
129.343774
 20
86.378561
 30
0.0
 10
129.507139
 20
86.307914
 30
0.0
 10
129.674710
 20
86.247917
 30
0.0
 10
129.716144
 20
86.217532
 30
0.0
 10
129.763303
 20
86.197133
 30
0.0
 10
129.836561
 20
86.129222
 30
0.0
 10
130.043298
 20
85.977614
 30
0.0
 10
130.145764
 20
85.842581
 30
0.0
 10
130.214309
 20
85.779039
 30
0.0
 10
132.463622
 20
82.683125
 30
0.0
 10
132.463622
 20
86.509884
 30
0.0
 10
132.467829
 20
86.538861
 30
0.0
 10
132.464680
 20
86.567968
 30
0.0
 10
132.500656
 20
86.764484
 30
0.0
 10
132.529419
 20
86.962200
 30
0.0
 10
132.541722
 20
86.988772
 30
0.0
 10
132.546987
 20
87.017574
 30
0.0
 10
132.637464
 20
87.195694
 30
0.0
 10
132.721366
 20
87.377019
 30
0.0
 10
132.740733
 20
87.398979
 30
0.0
 10
132.753989
 20
87.425093
 30
0.0
 10
132.891451
 20
87.570037
 30
0.0
 10
133.023557
 20
87.719956
 30
0.0
 10
133.044962
 20
87.731915
 30
0.0
 10
133.068510
 20
87.756759
 30
0.0
 10
133.464496
 20
87.985044
 30
0.0
 10
133.523757
 20
87.999173
 30
0.0
 10
133.560547
 20
88.019705
 30
0.0
 10
140.749766
 20
90.355624
 30
0.0
 10
140.749766
 20
96.761430
 30
0.0
 10
134.657481
 20
98.740934
 30
0.0
  0
LWPOLYLINE
  5
108
100
AcDbEntity
  8
Layer_1
 62
7
100
AcDbPolyline
 90
11
 70
1
 10
87.130625
 20
92.405089
 30
0.0
 10
87.130625
 20
85.999283
 30
0.0
 10
93.829280
 20
83.822757
 30
0.0
 10
101.134307
 20
86.196305
 30
0.0
 10
103.080434
 20
88.874915
 30
0.0
 10
99.440971
 20
87.692383
 30
0.0
 10
98.990460
 20
87.615191
 30
0.0
 10
98.536628
 20
87.669561
 30
0.0
 10
98.117099
 20
87.850983
 30
0.0
 10
97.666093
 20
88.269077
 30
0.0
 10
93.222911
 20
94.384593
 30
0.0
  0
LWPOLYLINE
  5
109
100
AcDbEntity
  8
Layer_1
 62
7
100
AcDbPolyline
 90
44
 70
1
 10
87.505384
 20
107.655722
 30
0.0
 10
91.948566
 20
101.540207
 30
0.0
 10
91.994352
 20
101.453080
 30
0.0
 10
92.053854
 20
101.374668
 30
0.0
 10
92.071476
 20
101.306331
 30
0.0
 10
92.161199
 20
101.135601
 30
0.0
 10
92.249733
 20
100.687180
 30
0.0
 10
92.244759
 20
100.634281
 30
0.0
 10
92.251771
 20
100.607098
 30
0.0
 10
92.224580
 20
100.420186
 30
0.0
 10
92.206852
 20
100.232120
 30
0.0
 10
92.192803
 20
100.201767
 30
0.0
 10
92.185977
 20
100.154782
 30
0.0
 10
91.994030
 20
99.739963
 30
0.0
 10
91.962634
 20
99.704334
 30
0.0
 10
91.948585
 20
99.673989
 30
0.0
 10
89.699275
 20
96.578079
 30
0.0
 10
93.338735
 20
97.760613
 30
0.0
 10
93.789246
 20
97.837805
 30
0.0
 10
94.243078
 20
97.783436
 30
0.0
 10
94.662606
 20
97.602014
 30
0.0
 10
95.113613
 20
97.183919
 30
0.0
 10
99.556795
 20
91.068403
 30
0.0
 10
105.649080
 20
93.047907
 30
0.0
 10
105.649080
 20
99.453713
 30
0.0
 10
98.459862
 20
101.789632
 30
0.0
 10
98.361773
 20
101.838061
 30
0.0
 10
98.257506
 20
101.871142
 30
0.0
 10
98.157924
 20
101.938709
 30
0.0
 10
98.050017
 20
101.991985
 30
0.0
 10
97.969798
 20
102.066352
 30
0.0
 10
97.879273
 20
102.127772
 30
0.0
 10
97.803065
 20
102.220919
 30
0.0
 10
97.714816
 20
102.302728
 30
0.0
 10
97.659111
 20
102.396869
 30
0.0
 10
97.589840
 20
102.481533
 30
0.0
 10
97.543334
 20
102.592524
 30
0.0
 10
97.482046
 20
102.696095
 30
0.0
 10
97.466118
 20
102.776827
 30
0.0
 10
97.413207
 20
102.903099
 30
0.0
 10
97.379221
 20
103.216951
 30
0.0
 10
97.362923
 20
103.299435
 30
0.0
 10
97.362923
 20
110.858628
 30
0.0
 10
91.270638
 20
112.838132
 30
0.0
  0
LWPOLYLINE
  5
10a
100
AcDbEntity
  8
Layer_1
 62
7
100
AcDbPolyline
 90
6
 70
1
 10
108.824062
 20
100.091290
 30
0.0
 10
108.824062
 20
93.047907
 30
0.0
 10
114.916347
 20
91.068403
 30
0.0
 10
119.056340
 20
96.766618
 30
0.0
 10
119.056340
 20
103.810001
 30
0.0
 10
112.964055
 20
105.789505
 30
0.0
  0
LWPOLYLINE
  5
10b
100
AcDbEntity
  8
Layer_1
 62
7
100
AcDbPolyline
 90
5
 70
1
 10
144.299533
 20
97.914764
 30
0.0
 10
148.064770
 20
92.732357
 30
0.0
 10
154.157056
 20
94.711861
 30
0.0
 10
154.157056
 20
101.117667
 30
0.0
 10
148.064770
 20
103.097171
 30
0.0
  0
LWPOLYLINE
  5
10c
100
AcDbEntity
  8
Layer_1
 62
7
100
AcDbPolyline
 90
5
 70
1
 10
157.332056
 20
101.117667
 30
0.0
 10
157.332056
 20
94.711861
 30
0.0
 10
163.424341
 20
92.732357
 30
0.0
 10
167.189579
 20
97.914764
 30
0.0
 10
163.424341
 20
103.097171
 30
0.0
  0
LWPOLYLINE
  5
10d
100
AcDbEntity
  8
Layer_1
 62
7
100
AcDbPolyline
 90
24
 70
1
 10
83.359223
 20
110.661606
 30
0.0
 10
78.844471
 20
104.447583
 30
0.0
 10
78.844471
 20
97.404198
 30
0.0
 10
84.936756
 20
95.424694
 30
0.0
 10
88.701994
 20
100.607101
 30
0.0
 10
84.258811
 20
106.722616
 30
0.0
 10
84.226511
 20
106.784082
 30
0.0
 10
84.182540
 20
106.837824
 30
0.0
 10
84.120665
 20
106.985491
 30
0.0
 10
84.046182
 20
107.127223
 30
0.0
 10
84.032741
 20
107.195347
 30
0.0
 10
84.005907
 20
107.259390
 30
0.0
 10
83.988682
 20
107.418566
 30
0.0
 10
83.957671
 20
107.575644
 30
0.0
 10
83.964179
 20
107.644777
 30
0.0
 10
83.956718
 20
107.713809
 30
0.0
 10
83.985547
 20
107.871292
 30
0.0
 10
84.000575
 20
108.030703
 30
0.0
 10
84.023991
 20
108.081315
 30
0.0
 10
84.039019
 20
108.163416
 30
0.0
 10
84.246016
 20
108.570932
 30
0.0
 10
84.254880
 20
108.580272
 30
0.0
 10
84.258849
 20
108.588844
 30
0.0
 10
86.508161
 20
111.684758
 30
0.0
  0
LWPOLYLINE
  5
10e
100
AcDbEntity
  8
Layer_1
 62
7
100
AcDbPolyline
 90
136
 70
1
 10
122.231341
 20
140.717082
 30
0.0
 10
122.231341
 20
133.157889
 30
0.0
 10
122.165539
 20
132.705573
 30
0.0
 10
121.973591
 20
132.290754
 30
0.0
 10
121.671405
 20
131.947819
 30
0.0
 10
121.134404
 20
131.648086
 30
0.0
 10
112.848250
 20
128.955752
 30
0.0
 10
112.397738
 20
128.878560
 30
0.0
 10
111.943907
 20
128.932929
 30
0.0
 10
111.524378
 20
129.114352
 30
0.0
 10
111.073372
 20
129.532446
 30
0.0
 10
106.630192
 20
135.647962
 30
0.0
 10
100.537907
 20
133.668458
 30
0.0
 10
100.537907
 20
127.262652
 30
0.0
 10
107.727126
 20
124.926733
 30
0.0
 10
108.136970
 20
124.724380
 30
0.0
 10
108.472171
 20
124.413637
 30
0.0
 10
108.704941
 20
124.020270
 30
0.0
 10
108.824062
 20
123.416930
 30
0.0
 10
108.824062
 20
114.704349
 30
0.0
 10
108.758260
 20
114.252034
 30
0.0
 10
108.566312
 20
113.837215
 30
0.0
 10
108.264127
 20
113.494280
 30
0.0
 10
107.727126
 20
113.194547
 30
0.0
 10
100.537907
 20
110.858628
 30
0.0
 10
100.537907
 20
104.452822
 30
0.0
 10
106.630192
 20
102.473318
 30
0.0
 10
111.073372
 20
108.588834
 30
0.0
 10
111.225346
 20
108.744692
 30
0.0
 10
111.375084
 20
108.902579
 30
0.0
 10
111.384715
 20
108.908136
 30
0.0
 10
111.392467
 20
108.916100
 30
0.0
 10
111.582592
 20
109.022219
 30
0.0
 10
111.771068
 20
109.130875
 30
0.0
 10
111.781889
 20
109.133521
 30
0.0
 10
111.791599
 20
109.138945
 30
0.0
 10
112.003991
 20
109.186477
 30
0.0
 10
112.215702
 20
109.236949
 30
0.0
 10
112.226789
 20
109.236420
 30
0.0
 10
112.237636
 20
109.238801
 30
0.0
 10
112.284261
 20
109.233219
 30
0.0
 10
112.672082
 20
109.211920
 30
0.0
 10
112.777643
 20
109.174124
 30
0.0
 10
112.848258
 20
109.165657
 30
0.0
 10
121.134412
 20
106.473323
 30
0.0
 10
121.258399
 20
106.412107
 30
0.0
 10
121.388563
 20
106.365503
 30
0.0
 10
121.462276
 20
106.311446
 30
0.0
 10
121.544257
 20
106.270970
 30
0.0
 10
121.645664
 20
106.176961
 30
0.0
 10
121.757152
 20
106.095205
 30
0.0
 10
121.812412
 20
106.022381
 30
0.0
 10
121.879458
 20
105.960228
 30
0.0
 10
121.949871
 20
105.841234
 30
0.0
 10
122.033451
 20
105.731090
 30
0.0
 10
122.047659
 20
105.675975
 30
0.0
 10
122.112225
 20
105.566861
 30
0.0
 10
122.231346
 20
104.963521
 30
0.0
 10
122.231346
 20
97.404327
 30
0.0
 10
128.323631
 20
95.424823
 30
0.0
 10
132.088869
 20
100.607230
 30
0.0
 10
127.645687
 20
106.722746
 30
0.0
 10
127.613386
 20
106.784211
 30
0.0
 10
127.569415
 20
106.837954
 30
0.0
 10
127.507540
 20
106.985620
 30
0.0
 10
127.433057
 20
107.127352
 30
0.0
 10
127.419616
 20
107.195477
 30
0.0
 10
127.392782
 20
107.259520
 30
0.0
 10
127.375531
 20
107.418695
 30
0.0
 10
127.344519
 20
107.575773
 30
0.0
 10
127.351028
 20
107.644906
 30
0.0
 10
127.343540
 20
107.713939
 30
0.0
 10
127.372369
 20
107.871421
 30
0.0
 10
127.387398
 20
108.030833
 30
0.0
 10
127.410813
 20
108.081445
 30
0.0
 10
127.425842
 20
108.163545
 30
0.0
 10
127.632838
 20
108.571062
 30
0.0
 10
127.641702
 20
108.580402
 30
0.0
 10
127.645671
 20
108.588974
 30
0.0
 10
132.766797
 20
115.637598
 30
0.0
 10
132.918772
 20
115.793456
 30
0.0
 10
133.068510
 20
115.951344
 30
0.0
 10
133.078141
 20
115.956900
 30
0.0
 10
133.085919
 20
115.964864
 30
0.0
 10
133.276075
 20
116.071002
 30
0.0
 10
133.464520
 20
116.179640
 30
0.0
 10
133.475315
 20
116.182286
 30
0.0
 10
133.485025
 20
116.187709
 30
0.0
 10
133.697488
 20
116.235255
 30
0.0
 10
133.909125
 20
116.285711
 30
0.0
 10
133.920211
 20
116.285182
 30
0.0
 10
133.931059
 20
116.287563
 30
0.0
 10
133.977684
 20
116.281981
 30
0.0
 10
134.365505
 20
116.260682
 30
0.0
 10
134.471066
 20
116.222886
 30
0.0
 10
134.541681
 20
116.214419
 30
0.0
 10
141.730902
 20
113.878500
 30
0.0
 10
145.496140
 20
119.060907
 30
0.0
 10
141.730902
 20
124.243314
 30
0.0
 10
134.541681
 20
121.907395
 30
0.0
 10
134.394633
 20
121.882207
 30
0.0
 10
134.250872
 20
121.842324
 30
0.0
 10
134.170452
 20
121.843911
 30
0.0
 10
134.091169
 20
121.830338
 30
0.0
 10
133.943037
 20
121.848092
 30
0.0
 10
133.793873
 20
121.850817
 30
0.0
 10
133.717202
 20
121.875132
 30
0.0
 10
133.637338
 20
121.884710
 30
0.0
 10
133.500410
 20
121.943924
 30
0.0
 10
133.358197
 20
121.989043
 30
0.0
 10
133.291630
 20
122.034210
 30
0.0
 10
133.217809
 20
122.066132
 30
0.0
 10
133.144723
 20
122.133884
 30
0.0
 10
132.979964
 20
122.245673
 30
0.0
 10
132.841267
 20
122.415194
 30
0.0
 10
132.766803
 20
122.484227
 30
0.0
 10
127.645676
 20
129.532851
 30
0.0
 10
127.613376
 20
129.594316
 30
0.0
 10
127.569405
 20
129.648058
 30
0.0
 10
127.507529
 20
129.795725
 30
0.0
 10
127.433046
 20
129.937457
 30
0.0
 10
127.419605
 20
130.005582
 30
0.0
 10
127.392771
 20
130.069624
 30
0.0
 10
127.375520
 20
130.228800
 30
0.0
 10
127.344509
 20
130.385878
 30
0.0
 10
127.351017
 20
130.455011
 30
0.0
 10
127.343530
 20
130.524044
 30
0.0
 10
127.372359
 20
130.681526
 30
0.0
 10
127.387387
 20
130.840938
 30
0.0
 10
127.410803
 20
130.891550
 30
0.0
 10
127.425831
 20
130.973650
 30
0.0
 10
127.632828
 20
131.381167
 30
0.0
 10
127.641691
 20
131.390506
 30
0.0
 10
127.645660
 20
131.399079
 30
0.0
 10
132.088842
 20
137.514595
 30
0.0
 10
128.323605
 20
142.697002
 30
0.0
  0
LWPOLYLINE
  5
10f
100
AcDbEntity
  8
Layer_1
 62
7
100
AcDbPolyline
 90
6
 70
1
 10
130.892254
 20
107.655725
 30
0.0
 10
135.032250
 20
101.957510
 30
0.0
 10
141.730907
 20
99.780984
 30
0.0
 10
145.496145
 20
104.963391
 30
0.0
 10
141.356149
 20
110.661606
 30
0.0
 10
134.657491
 20
112.838132
 30
0.0
  0
LWPOLYLINE
  5
110
100
AcDbEntity
  8
Layer_1
 62
7
100
AcDbPolyline
 90
11
 70
1
 10
157.332056
 20
115.214919
 30
0.0
 10
157.332056
 20
107.655725
 30
0.0
 10
157.266254
 20
107.203409
 30
0.0
 10
157.074306
 20
106.788590
 30
0.0
 10
156.772121
 20
106.445656
 30
0.0
 10
156.235120
 20
106.145923
 30
0.0
 10
152.595662
 20
104.963391
 30
0.0
 10
155.744556
 20
103.940253
 30
0.0
 10
163.049582
 20
106.313801
 30
0.0
 10
167.189579
 20
112.012016
 30
0.0
 10
163.424341
 20
117.194423
 30
0.0
  0
LWPOLYLINE
  5
111
100
AcDbEntity
  8
Layer_1
 62
7
100
AcDbPolyline
 90
5
 70
1
 10
70.558316
 20
115.214919
 30
0.0
 10
70.558316
 20
108.809113
 30
0.0
 10
76.650601
 20
106.829609
 30
0.0
 10
80.415839
 20
112.012016
 30
0.0
 10
76.650601
 20
117.194423
 30
0.0
  0
LWPOLYLINE
  5
112
100
AcDbEntity
  8
Layer_1
 62
7
100
AcDbPolyline
 90
32
 70
1
 10
144.299533
 20
126.109264
 30
0.0
 10
148.742715
 20
119.993749
 30
0.0
 10
148.788501
 20
119.906621
 30
0.0
 10
148.848003
 20
119.828209
 30
0.0
 10
148.865624
 20
119.759870
 30
0.0
 10
148.955347
 20
119.589140
 30
0.0
 10
149.043882
 20
119.140721
 30
0.0
 10
149.038908
 20
119.087823
 30
0.0
 10
149.045919
 20
119.060640
 30
0.0
 10
149.018728
 20
118.873728
 30
0.0
 10
149.001001
 20
118.685662
 30
0.0
 10
148.986952
 20
118.655309
 30
0.0
 10
148.980125
 20
118.608324
 30
0.0
 10
148.788178
 20
118.193505
 30
0.0
 10
148.756783
 20
118.157876
 30
0.0
 10
148.742733
 20
118.127531
 30
0.0
 10
144.299551
 20
112.012016
 30
0.0
 10
148.064789
 20
106.829609
 30
0.0
 10
154.157074
 20
108.809113
 30
0.0
 10
154.157074
 20
116.368306
 30
0.0
 10
154.222876
 20
116.820622
 30
0.0
 10
154.414823
 20
117.235441
 30
0.0
 10
154.717009
 20
117.578375
 30
0.0
 10
155.254010
 20
117.878109
 30
0.0
 10
158.893468
 20
119.060640
 30
0.0
 10
155.254010
 20
120.243171
 30
0.0
 10
154.844165
 20
120.445525
 30
0.0
 10
154.508965
 20
120.756267
 30
0.0
 10
154.276195
 20
121.149634
 30
0.0
 10
154.157074
 20
121.752974
 30
0.0
 10
154.157074
 20
129.312167
 30
0.0
 10
148.064789
 20
131.291671
 30
0.0
  0
LWPOLYLINE
  5
113
100
AcDbEntity
  8
Layer_1
 62
7
100
AcDbPolyline
 90
6
 70
1
 10
92.251752
 20
122.263543
 30
0.0
 10
92.251752
 20
115.857737
 30
0.0
 10
98.950407
 20
113.681211
 30
0.0
 10
105.649062
 20
115.857737
 30
0.0
 10
105.649062
 20
122.263543
 30
0.0
 10
98.950407
 20
124.440069
 30
0.0
  0
LWPOLYLINE
  5
114
100
AcDbEntity
  8
Layer_1
 62
7
100
AcDbPolyline
 90
5
 70
1
 10
79.219227
 20
119.060640
 30
0.0
 10
82.984464
 20
113.878233
 30
0.0
 10
89.076752
 20
115.857737
 30
0.0
 10
89.076752
 20
122.263543
 30
0.0
 10
82.984464
 20
124.243047
 30
0.0
  0
LWPOLYLINE
  5
115
100
AcDbEntity
  8
Layer_1
 62
7
100
AcDbPolyline
 90
5
 70
1
 10
70.558316
 20
129.312167
 30
0.0
 10
70.558316
 20
122.906361
 30
0.0
 10
76.650601
 20
120.926857
 30
0.0
 10
80.415839
 20
126.109264
 30
0.0
 10
76.650601
 20
131.291671
 30
0.0
  0
LWPOLYLINE
  5
116
100
AcDbEntity
  8
Layer_1
 62
7
100
AcDbPolyline
 90
11
 70
1
 10
152.595662
 20
133.157889
 30
0.0
 10
156.235120
 20
131.975357
 30
0.0
 10
156.644964
 20
131.773004
 30
0.0
 10
156.980165
 20
131.462261
 30
0.0
 10
157.212935
 20
131.068895
 30
0.0
 10
157.332056
 20
130.465555
 30
0.0
 10
157.332056
 20
122.906361
 30
0.0
 10
163.424341
 20
120.926857
 30
0.0
 10
167.189579
 20
126.109264
 30
0.0
 10
163.049582
 20
131.807479
 30
0.0
 10
155.744556
 20
134.181027
 30
0.0
  0
LWPOLYLINE
  5
117
100
AcDbEntity
  8
Layer_1
 62
7
100
AcDbPolyline
 90
44
 70
1
 10
95.113594
 20
140.937358
 30
0.0
 10
94.981734
 20
140.802127
 30
0.0
 10
94.856845
 20
140.660398
 30
0.0
 10
94.822658
 20
140.638993
 30
0.0
 10
94.794496
 20
140.610111
 30
0.0
 10
94.629555
 20
140.518047
 30
0.0
 10
94.469477
 20
140.417785
 30
0.0
 10
94.430607
 20
140.406990
 30
0.0
 10
94.395380
 20
140.387332
 30
0.0
 10
94.211034
 20
140.346078
 30
0.0
 10
94.029035
 20
140.295585
 30
0.0
 10
93.988707
 20
140.296379
 30
0.0
 10
93.949337
 20
140.287568
 30
0.0
 10
93.855434
 20
140.298813
 30
0.0
 10
93.572036
 20
140.303999
 30
0.0
 10
93.426370
 20
140.350214
 30
0.0
 10
93.338716
 20
140.360718
 30
0.0
 10
89.699256
 20
141.543252
 30
0.0
 10
91.948566
 20
138.447341
 30
0.0
 10
91.994352
 20
138.360214
 30
0.0
 10
92.053854
 20
138.281802
 30
0.0
 10
92.071476
 20
138.213465
 30
0.0
 10
92.161199
 20
138.042735
 30
0.0
 10
92.249733
 20
137.594314
 30
0.0
 10
92.244759
 20
137.541415
 30
0.0
 10
92.251771
 20
137.514232
 30
0.0
 10
92.224580
 20
137.327320
 30
0.0
 10
92.206852
 20
137.139254
 30
0.0
 10
92.192803
 20
137.108901
 30
0.0
 10
92.185977
 20
137.061916
 30
0.0
 10
91.994030
 20
136.647097
 30
0.0
 10
91.962634
 20
136.611468
 30
0.0
 10
91.948585
 20
136.581123
 30
0.0
 10
87.505402
 20
130.465608
 30
0.0
 10
91.270640
 20
125.283201
 30
0.0
 10
97.362925
 20
127.262705
 30
0.0
 10
97.362925
 20
134.821896
 30
0.0
 10
97.428727
 20
135.274211
 30
0.0
 10
97.620675
 20
135.689030
 30
0.0
 10
97.922861
 20
136.031965
 30
0.0
 10
98.459861
 20
136.331698
 30
0.0
 10
105.649080
 20
138.667617
 30
0.0
 10
105.649080
 20
145.073423
 30
0.0
 10
99.556795
 20
147.052927
 30
0.0
  0
LWPOLYLINE
  5
118
100
AcDbEntity
  8
Layer_1
 62
7
100
AcDbPolyline
 90
6
 70
1
 10
135.032250
 20
136.163770
 30
0.0
 10
130.892254
 20
130.465555
 30
0.0
 10
134.657491
 20
125.283148
 30
0.0
 10
141.356149
 20
127.459674
 30
0.0
 10
145.496145
 20
133.157889
 30
0.0
 10
141.730907
 20
138.340296
 30
0.0
  0
LWPOLYLINE
  5
119
100
AcDbEntity
  8
Layer_1
 62
7
100
AcDbPolyline
 90
24
 70
1
 10
78.844471
 20
140.717082
 30
0.0
 10
78.844471
 20
133.673697
 30
0.0
 10
83.359223
 20
127.459674
 30
0.0
 10
86.508124
 20
126.436533
 30
0.0
 10
84.258811
 20
129.532446
 30
0.0
 10
84.226511
 20
129.593911
 30
0.0
 10
84.182540
 20
129.647654
 30
0.0
 10
84.120665
 20
129.795320
 30
0.0
 10
84.046182
 20
129.937052
 30
0.0
 10
84.032741
 20
130.005177
 30
0.0
 10
84.005907
 20
130.069220
 30
0.0
 10
83.988682
 20
130.228396
 30
0.0
 10
83.957671
 20
130.385473
 30
0.0
 10
83.964179
 20
130.454606
 30
0.0
 10
83.956718
 20
130.523639
 30
0.0
 10
83.985547
 20
130.681121
 30
0.0
 10
84.000575
 20
130.840533
 30
0.0
 10
84.023991
 20
130.891145
 30
0.0
 10
84.039019
 20
130.973245
 30
0.0
 10
84.246016
 20
131.380762
 30
0.0
 10
84.254880
 20
131.390102
 30
0.0
 10
84.258849
 20
131.398674
 30
0.0
 10
88.702031
 20
137.514190
 30
0.0
 10
84.936793
 20
142.696597
 30
0.0
  0
LWPOLYLINE
  5
11a
100
AcDbEntity
  8
Layer_1
 62
7
100
AcDbPolyline
 90
6
 70
1
 10
108.824062
 20
145.073370
 30
0.0
 10
108.824062
 20
138.029987
 30
0.0
 10
112.964055
 20
132.331772
 30
0.0
 10
119.056341
 20
134.311276
 30
0.0
 10
119.056341
 20
141.354659
 30
0.0
 10
114.916347
 20
147.052874
 30
0.0
  0
LWPOLYLINE
  5
11b
100
AcDbEntity
  8
Layer_1
 62
7
100
AcDbPolyline
 90
5
 70
1
 10
144.299533
 20
140.206513
 30
0.0
 10
148.064770
 20
135.024106
 30
0.0
 10
154.157056
 20
137.003610
 30
0.0
 10
154.157056
 20
143.409416
 30
0.0
 10
148.064770
 20
145.388920
 30
0.0
  0
LWPOLYLINE
  5
11c
100
AcDbEntity
  8
Layer_1
 62
7
100
AcDbPolyline
 90
5
 70
1
 10
157.332056
 20
143.409416
 30
0.0
 10
157.332056
 20
137.003610
 30
0.0
 10
163.424341
 20
135.024106
 30
0.0
 10
167.189579
 20
140.206513
 30
0.0
 10
163.424341
 20
145.388920
 30
0.0
  0
LWPOLYLINE
  5
11d
100
AcDbEntity
  8
Layer_1
 62
7
100
AcDbPolyline
 90
34
 70
1
 10
130.214309
 20
152.342273
 30
0.0
 10
130.082449
 20
152.207042
 30
0.0
 10
129.957560
 20
152.065313
 30
0.0
 10
129.923373
 20
152.043908
 30
0.0
 10
129.895211
 20
152.015026
 30
0.0
 10
129.730270
 20
151.922962
 30
0.0
 10
129.570192
 20
151.822700
 30
0.0
 10
129.531322
 20
151.811905
 30
0.0
 10
129.496095
 20
151.792247
 30
0.0
 10
129.311749
 20
151.750993
 30
0.0
 10
129.129750
 20
151.700500
 30
0.0
 10
129.089423
 20
151.701294
 30
0.0
 10
129.050053
 20
151.692483
 30
0.0
 10
128.956149
 20
151.703728
 30
0.0
 10
128.672751
 20
151.708914
 30
0.0
 10
128.527085
 20
151.755128
 30
0.0
 10
128.439431
 20
151.765632
 30
0.0
 10
121.250210
 20
154.101551
 30
0.0
 10
117.484972
 20
148.919144
 30
0.0
 10
121.250210
 20
143.736737
 30
0.0
 10
128.439431
 20
146.072659
 30
0.0
 10
128.889943
 20
146.149851
 30
0.0
 10
129.343774
 20
146.095482
 30
0.0
 10
129.763303
 20
145.914060
 30
0.0
 10
130.214309
 20
145.495965
 30
0.0
 10
134.657491
 20
139.380449
 30
0.0
 10
140.749777
 20
141.359954
 30
0.0
 10
140.749777
 20
147.765759
 30
0.0
 10
133.560558
 20
150.101678
 30
0.0
 10
133.150713
 20
150.304032
 30
0.0
 10
132.815513
 20
150.614774
 30
0.0
 10
132.582743
 20
151.008141
 30
0.0
 10
132.463622
 20
151.611481
 30
0.0
 10
132.463622
 20
155.438240
 30
0.0
  0
LWPOLYLINE
  5
11e
100
AcDbEntity
  8
Layer_1
 62
7
100
AcDbPolyline
 90
23
 70
1
 10
87.130625
 20
152.121994
 30
0.0
 10
87.130625
 20
145.716188
 30
0.0
 10
93.222911
 20
143.736684
 30
0.0
 10
97.666093
 20
149.852200
 30
0.0
 10
97.818067
 20
150.008058
 30
0.0
 10
97.967805
 20
150.165946
 30
0.0
 10
97.977436
 20
150.171502
 30
0.0
 10
97.985188
 20
150.179466
 30
0.0
 10
98.175344
 20
150.285603
 30
0.0
 10
98.363789
 20
150.394241
 30
0.0
 10
98.374584
 20
150.396887
 30
0.0
 10
98.384294
 20
150.402311
 30
0.0
 10
98.596757
 20
150.449857
 30
0.0
 10
98.808394
 20
150.500313
 30
0.0
 10
98.819481
 20
150.499784
 30
0.0
 10
98.830328
 20
150.502165
 30
0.0
 10
98.876953
 20
150.496582
 30
0.0
 10
99.264774
 20
150.475257
 30
0.0
 10
99.370335
 20
150.437461
 30
0.0
 10
99.440950
 20
150.428994
 30
0.0
 10
103.080413
 20
149.246463
 30
0.0
 10
101.134286
 20
151.925073
 30
0.0
 10
93.829259
 20
154.298621
 30
0.0
  0
LWPOLYLINE
  5
11f
100
AcDbEntity
  8
Layer_1
 62
7
100
AcDbPolyline
 90
11
 70
1
 10
135.638622
 20
159.170619
 30
0.0
 10
135.638622
 20
152.764813
 30
0.0
 10
142.827841
 20
150.428894
 30
0.0
 10
143.237686
 20
150.226541
 30
0.0
 10
143.572886
 20
149.915798
 30
0.0
 10
143.805656
 20
149.522431
 30
0.0
 10
143.924777
 20
148.919091
 30
0.0
 10
143.924777
 20
145.092335
 30
0.0
 10
145.870901
 20
147.770945
 30
0.0
 10
145.870901
 20
155.451908
 30
0.0
 10
141.730907
 20
161.150123
 30
0.0
  0
LWPOLYLINE
  5
120
100
AcDbEntity
  8
Layer_1
 62
7
100
AcDbPolyline
 90
5
 70
1
 10
149.045901
 20
154.814331
 30
0.0
 10
149.045901
 20
148.408525
 30
0.0
 10
155.138186
 20
146.429021
 30
0.0
 10
158.903424
 20
151.611428
 30
0.0
 10
155.138186
 20
156.793835
 30
0.0
  0
LWPOLYLINE
  5
121
100
AcDbEntity
  8
Layer_1
 62
7
100
AcDbPolyline
 90
5
 70
1
 10
104.077693
 20
153.275382
 30
0.0
 10
107.842931
 20
148.092975
 30
0.0
 10
113.935216
 20
150.072479
 30
0.0
 10
113.935216
 20
156.478285
 30
0.0
 10
107.842931
 20
158.457789
 30
0.0
  0
LWPOLYLINE
  5
122
100
AcDbEntity
  8
Layer_1
 62
7
100
AcDbPolyline
 90
23
 70
1
 10
121.624968
 20
163.329885
 30
0.0
 10
117.110216
 20
157.115862
 30
0.0
 10
117.110216
 20
153.804914
 30
0.0
 10
119.359527
 20
156.900824
 30
0.0
 10
119.511501
 20
157.056683
 30
0.0
 10
119.661239
 20
157.214570
 30
0.0
 10
119.670870
 20
157.220126
 30
0.0
 10
119.678622
 20
157.228090
 30
0.0
 10
119.868746
 20
157.334209
 30
0.0
 10
120.057222
 20
157.442866
 30
0.0
 10
120.068044
 20
157.445512
 30
0.0
 10
120.077754
 20
157.450936
 30
0.0
 10
120.290145
 20
157.498468
 30
0.0
 10
120.501857
 20
157.548940
 30
0.0
 10
120.512943
 20
157.548411
 30
0.0
 10
120.523791
 20
157.550792
 30
0.0
 10
120.570416
 20
157.545209
 30
0.0
 10
120.958237
 20
157.523884
 30
0.0
 10
121.063798
 20
157.486088
 30
0.0
 10
121.134412
 20
157.477621
 30
0.0
 10
128.323634
 20
155.141702
 30
0.0
 10
132.088871
 20
160.324109
 30
0.0
 10
128.323634
 20
165.506516
 30
0.0
  0
LWPOLYLINE
  5
123
100
AcDbEntity
  8
Layer_1
 62
7
100
AcDbPolyline
 90
5
 70
1
 10
95.416780
 20
163.526909
 30
0.0
 10
95.416780
 20
157.121103
 30
0.0
 10
101.509065
 20
155.141599
 30
0.0
 10
105.274303
 20
160.324006
 30
0.0
 10
101.509065
 20
165.506413
 30
0.0
  0
LWPOLYLINE
  5
124
100
AcDbEntity
  8
Layer_1
 62
7
100
AcDbPolyline
 90
5
 70
1
 10
108.824062
 20
167.883197
 30
0.0
 10
108.824062
 20
161.477391
 30
0.0
 10
114.916347
 20
159.497887
 30
0.0
 10
118.681585
 20
164.680294
 30
0.0
 10
114.916347
 20
169.862701
 30
0.0
  0
ENDSEC
  0
SECTION
  2
OBJECTS
  0
DICTIONARY
  5
C
330
0
100
AcDbDictionary
  3
ACAD_GROUP
350
D
  3
ACAD_MLINESTYLE
350
17
  0
DICTIONARY
  5
D
330
C
100
AcDbDictionary
  0
DICTIONARY
  5
1A
330
C
100
AcDbDictionary
  0
DICTIONARY
  5
17
330
C
100
AcDbDictionary
  3
STANDARD
350
18
  0
DICTIONARY
  5
19
330
C
100
AcDbDictionary
  0
ENDSEC
  0
EOF
