<?xml version="1.0" encoding="UTF-8" standalone="no"?>
<svg
   version="1.1"
   width="238.125mm"
   height="238.125mm"
   id="svg4"
   sodipodi:docname="quad06.svg"
   inkscape:version="1.3.2 (091e20ef0f, 2023-11-25)"
   xmlns:inkscape="http://www.inkscape.org/namespaces/inkscape"
   xmlns:sodipodi="http://sodipodi.sourceforge.net/DTD/sodipodi-0.dtd"
   xmlns="http://www.w3.org/2000/svg"
   xmlns:svg="http://www.w3.org/2000/svg">
  <sodipodi:namedview
     id="namedview4"
     pagecolor="#ffffff"
     bordercolor="#000000"
     borderopacity="0.25"
     inkscape:showpageshadow="2"
     inkscape:pageopacity="0.0"
     inkscape:pagecheckerboard="0"
     inkscape:deskcolor="#d1d1d1"
     inkscape:zoom="0.94"
     inkscape:cx="450"
     inkscape:cy="450"
     inkscape:window-width="1920"
     inkscape:window-height="1044"
     inkscape:window-x="0"
     inkscape:window-y="0"
     inkscape:window-maximized="1"
     inkscape:current-layer="layer4"
     inkscape:document-units="mm" />
  <defs
     id="defs1" />
  <g
     inkscape:groupmode="layer"
     id="layer1"
     inkscape:label="Layer 1"
     style="display:inline">
    <path
       fill="#222222"
       stroke="#cccccc"
       paint-order="fill stroke markers"
       d="m 213.76712,37.63595 1.46578,0.08055 0.39897,0.14285 0.26689,0.03197 29.40342,9.55375 0.46861,0.23137 0.49196,0.17614 0.2786,0.20431 0.30985,0.15298 0.38327,0.35531 0.42137,0.309 0.20886,0.27524 0.2534,0.23491 0.26613,0.44974 0.31589,0.41629 0.0537,0.20831 0.24403,0.4124 0.45022,2.28034 v 26.55733 l 21.11163,6.85959 15.61,-21.48533 0.57439,-0.58907 0.56594,-0.59674 0.0364,-0.02096 0.0293,-0.0301 0.71844,-0.401 0.71249,-0.41075 0.0409,-0.0097 0.0367,-0.02047 0.80265,-0.17963 0.80025,-0.19078 0.0419,0.0023 0.041,-0.0092 0.17622,0.02111 1.46578,0.08055 0.39897,0.14285 0.26689,0.03197 29.40342,9.55375 0.46861,0.23137 0.49196,0.17614 0.2786,0.20431 0.30985,0.15298 0.38327,0.35531 0.42137,0.309 0.20886,0.27524 0.2534,0.23491 0.26613,0.44974 0.31589,0.41629 0.0537,0.20831 0.24403,0.4124 0.45022,2.28034 v 26.55732 l 21.11163,6.85959 15.61,-21.48533 0.57439,-0.58907 0.56594,-0.59674 0.0364,-0.02096 0.0293,-0.0301 0.71844,-0.401 0.71249,-0.41075 0.0409,-0.0097 0.0367,-0.02047 0.80265,-0.17963 0.80025,-0.19078 0.0419,0.0023 0.041,-0.0092 0.17622,0.02111 1.46578,0.08055 0.39897,0.14285 0.26689,0.03197 29.40342,9.55375 0.46861,0.23137 0.49196,0.17614 0.2786,0.20431 0.30985,0.15298 0.38327,0.35531 0.42137,0.309 0.20886,0.27524 0.2534,0.23491 0.26613,0.44974 0.31589,0.41629 0.0537,0.20831 0.24403,0.4124 0.45022,2.28034 v 26.55732 l 25.25752,8.20667 0.46861,0.23137 0.49196,0.17614 0.2786,0.20431 0.30985,0.15298 0.38327,0.35531 0.42137,0.309 0.20886,0.27524 0.2534,0.23491 0.26613,0.44974 0.31589,0.41629 0.0537,0.20831 0.24403,0.4124 0.45022,2.28034 v 30.91659 l -0.2487,1.70954 -0.72547,1.56782 -1.14212,1.29613 -1.46407,0.91699 -0.35551,0.0986 -0.21003,0.11723 -25.25752,8.20667 v 22.19806 l 25.25752,8.20667 1.54902,0.7648 1.2669,1.17446 0.87976,1.48674 0.45022,2.28034 v 30.91659 l -0.2487,1.70954 -0.72547,1.56782 -1.14212,1.29613 -2.02961,1.13285 -25.25752,8.20667 v 22.19806 l 25.25752,8.20667 1.54902,0.7648 1.2669,1.17446 0.87976,1.48674 0.45022,2.28034 v 30.91658 l -0.2487,1.70954 -0.72547,1.56782 -1.14212,1.29613 -2.02961,1.13285 -25.25752,8.20667 v 26.55733 l -0.2487,1.70954 -0.72547,1.56782 -1.14212,1.29613 -2.02961,1.13285 -29.40342,9.55375 -1.70272,0.29175 -1.71527,-0.20549 -1.58562,-0.68569 -1.70459,-1.5802 -15.61,-21.48533 -21.11163,6.85959 v 26.55732 l -0.2487,1.70954 -0.72547,1.56782 -1.14212,1.29613 -2.02961,1.13285 -29.40342,9.55375 -1.70272,0.29175 -1.71527,-0.20549 -1.58562,-0.68569 -1.70459,-1.5802 -15.61,-21.48533 -21.11163,6.85959 v 26.55732 l -0.2487,1.70954 -0.72547,1.56782 -1.14212,1.29613 -2.02961,1.13285 -29.40342,9.55375 -1.70272,0.29175 -1.71527,-0.20549 -1.58562,-0.68569 -1.70459,-1.5802 -15.61,-21.48533 -25.25753,8.20667 -1.70272,0.29175 -1.71527,-0.20549 -1.58562,-0.68569 -1.70459,-1.5802 -18.17231,-25.01204 -0.80364,-1.52923 -0.33462,-1.69481 0.16214,-1.71991 0.97612,-2.10947 15.61001,-21.48533 -13.0477,-17.95863 -25.25753,8.20667 -0.55577,0.0952 -0.54335,0.15074 -0.30395,-0.006 -0.29965,0.0513 -0.55987,-0.0671 -0.56377,-0.0103 -0.28978,-0.0919 -0.30185,-0.0362 -0.51752,-0.2238 -0.5375,-0.17053 -0.25159,-0.17071 -0.27901,-0.12065 -0.27623,-0.25607 -0.62271,-0.42251 -0.52421,-0.64071 -0.28144,-0.26091 -18.17231,-25.01204 -0.12208,-0.2323 -0.16619,-0.20313 -0.23387,-0.55814 -0.2815,-0.53566 -0.05083,-0.25746 -0.10143,-0.24206 -0.06515,-0.60162 -0.11721,-0.59367 0.02463,-0.26129 -0.02825,-0.26091 0.10896,-0.59521 0.0568,-0.6025 0.08851,-0.19129 0.05681,-0.3103 0.78235,-1.54022 0.03347,-0.0353 0.01498,-0.0324 15.61001,-21.48533 -13.0477,-17.95862 -25.25753,8.20667 -0.55577,0.0952 -0.54335,0.15074 -0.30395,-0.006 -0.29965,0.0513 -0.55987,-0.0671 -0.56377,-0.0103 -0.28978,-0.0919 -0.30185,-0.0362 -0.51752,-0.2238 -0.5375,-0.17053 -0.25159,-0.17071 -0.27901,-0.12065 -0.27623,-0.25607 -0.62271,-0.42251 -0.52421,-0.64071 -0.28144,-0.26091 -18.17231,-25.01204 -0.12208,-0.2323 -0.16619,-0.20313 -0.23387,-0.55814 -0.2815,-0.53566 -0.05083,-0.25746 -0.10143,-0.24206 -0.06515,-0.60162 -0.11721,-0.59367 0.02463,-0.26129 -0.02825,-0.26091 0.10896,-0.59521 0.0568,-0.6025 0.08851,-0.19129 0.05681,-0.3103 0.78235,-1.54022 0.03347,-0.0353 0.01498,-0.0324 15.61001,-21.48534 -15.61001,-21.48533 -0.12208,-0.2323 -0.16619,-0.20313 -0.23387,-0.55814 -0.2815,-0.53566 -0.05083,-0.25746 -0.10143,-0.24206 -0.06515,-0.60162 -0.11721,-0.59367 0.02463,-0.26129 -0.02825,-0.26091 0.10896,-0.59521 0.0568,-0.6025 0.08851,-0.19129 0.05681,-0.3103 0.78235,-1.54022 0.03347,-0.0353 0.01498,-0.0324 18.17231,-25.01204 0.57439,-0.58907 0.56594,-0.59674 0.03636,-0.021 0.02935,-0.0301 0.71844,-0.401 0.71249,-0.41075 0.04087,-0.01 0.03667,-0.0205 0.80265,-0.17963 0.80025,-0.19078 0.04194,0.002 0.04099,-0.009 0.17622,0.0211 1.46578,0.0806 0.39897,0.14285 0.26689,0.032 25.25753,8.20667 13.0477,-17.95862 -15.61001,-21.48534 -0.12208,-0.2323 -0.16619,-0.20313 -0.23387,-0.55814 -0.2815,-0.53566 -0.05083,-0.25746 -0.10143,-0.24206 -0.06515,-0.60162 -0.11721,-0.59367 0.02463,-0.26129 -0.02825,-0.26091 0.10896,-0.59521 0.0568,-0.6025 0.08851,-0.19129 0.05681,-0.3103 0.78235,-1.54022 0.03347,-0.0353 0.01498,-0.0324 18.17231,-25.01204 0.57439,-0.58907 0.56594,-0.59674 0.0364,-0.021 0.0294,-0.0301 0.71844,-0.401 0.71249,-0.41075 0.0409,-0.01 0.0367,-0.0205 0.80265,-0.17963 0.80025,-0.19078 0.0419,0.002 0.041,-0.009 0.17622,0.0211 1.46578,0.0805 0.39897,0.14285 0.26689,0.032 25.25753,8.20667 13.0477,-17.95862 -15.61001,-21.48533 -0.12208,-0.2323 -0.16619,-0.20313 -0.23387,-0.55814 -0.2815,-0.53566 -0.0508,-0.25746 -0.10143,-0.24206 -0.0651,-0.60162 -0.11721,-0.59367 0.0246,-0.26129 -0.0283,-0.26091 0.10896,-0.59521 0.0568,-0.6025 0.0885,-0.19129 0.0568,-0.3103 0.78235,-1.54022 0.0335,-0.0353 0.015,-0.03236 18.17231,-25.01204 0.57439,-0.58907 0.56594,-0.59674 0.0364,-0.02096 0.0294,-0.0301 0.71844,-0.401 0.71249,-0.41075 0.0409,-0.0097 0.0367,-0.02047 0.80265,-0.17963 0.80025,-0.19078 0.0419,0.0023 0.041,-0.0092 0.17622,0.02111 1.46578,0.08055 0.39897,0.14285 0.26689,0.03197 25.25753,8.20667 15.61,-21.48534 0.57439,-0.58907 0.56594,-0.59674 0.0364,-0.02096 0.0293,-0.0301 0.71858,-0.40108 0.71235,-0.41067 0.0409,-0.0097 0.0367,-0.02047 0.80274,-0.17965 0.80017,-0.19076 0.0419,0.0023 0.041,-0.0092 z m -13.04067,34.50047 -0.49837,0.51111 -0.47202,0.53567 -0.12921,0.08093 -0.10644,0.10916 -0.62337,0.34794 -0.60505,0.37896 -0.14693,0.04076 -0.13311,0.0743 -0.69666,0.15591 -0.68796,0.19086 -0.15242,-0.0028 -0.1488,0.0333 -0.35491,-0.04252 -1.07111,-0.0196 -0.55055,-0.17467 -0.33129,-0.03969 -25.25753,-8.20667 -13.0477,17.95862 15.61001,21.48533 0.17305,0.3293 0.22489,0.29636 0.0666,0.25829 0.33911,0.64528 0.33462,1.69481 -0.0188,0.19993 0.0265,0.10274 -0.10277,0.70644 -0.067,0.7108 -0.0531,0.11472 -0.0258,0.17758 -0.72547,1.56782 -0.11866,0.13466 -0.0531,0.11469 -15.61001,21.48533 14.46411,19.90813 27.54932,8.95132 1.54902,0.7648 1.2669,1.17446 0.87976,1.48674 0.45022,2.28034 v 30.91659 l -0.2487,1.70954 -0.72547,1.56782 -1.14212,1.29613 -2.02961,1.13285 -29.40342,9.55375 -1.70272,0.29175 -1.71527,-0.20549 -1.58562,-0.68569 -1.70459,-1.5802 -17.02641,-23.43484 -23.40343,-7.60424 -15.61,21.48533 -0.49837,0.51111 -0.47202,0.53567 -0.12921,0.0809 -0.10644,0.10916 -0.62334,0.34792 -0.60508,0.37898 -0.14695,0.0408 -0.1331,0.0743 -0.69663,0.1559 -0.68798,0.19087 -0.15243,-0.003 -0.14879,0.0333 -0.35491,-0.0425 -1.07111,-0.0196 -0.55055,-0.17467 -0.33129,-0.0397 -25.25753,-8.20667 -13.0477,17.95862 15.61001,21.48533 0.17305,0.3293 0.22489,0.29636 0.06659,0.25829 0.33911,0.64528 0.33462,1.69481 -0.01885,0.19993 0.02649,0.10274 -0.10277,0.70644 -0.06701,0.7108 -0.05309,0.11472 -0.02583,0.17758 -0.72547,1.56782 -0.11866,0.13466 -0.05307,0.11469 -15.61001,21.48534 13.0477,17.95862 25.25753,-8.20667 0.66305,-0.11361 0.65436,-0.156 0.19391,0.0107 0.1914,-0.0328 0.66794,0.08 0.67168,0.0369 0.18283,0.0655 0.19282,0.0231 0.61744,0.26701 0.63334,0.22676 0.1566,0.11484 0.17824,0.0771 0.27688,0.25667 0.78137,0.57301 0.38727,0.51036 0.25907,0.24016 15.61,21.48533 23.40343,-7.60424 17.02641,-23.43484 1.20604,-1.23687 1.50847,-0.84196 1.68583,-0.37728 2.30786,0.27648 29.40342,9.55375 1.54902,0.7648 1.2669,1.17446 0.87976,1.48674 0.45022,2.28034 v 30.91658 l -0.2487,1.70954 -0.72547,1.56782 -1.14212,1.29613 -2.02961,1.13285 -27.54932,8.95132 -14.46411,19.90813 15.61001,21.48534 0.80364,1.52923 0.33462,1.69481 -0.16214,1.71991 -0.97612,2.10947 -15.61001,21.48533 13.0477,17.95862 25.25753,-8.20667 1.70272,-0.29175 1.71527,0.20549 1.58562,0.68569 1.70459,1.5802 15.61,21.48533 21.11163,-6.85959 v -26.55732 l 0.2487,-1.70954 0.72547,-1.56782 1.14212,-1.29613 2.02961,-1.13285 25.25752,-8.20667 v -24.60782 l -17.02641,-23.43484 -0.80364,-1.52923 -0.33462,-1.69481 0.16214,-1.71991 0.97612,-2.10947 18.17231,-25.01204 1.20604,-1.23687 1.50847,-0.84196 1.68583,-0.37728 2.30786,0.27648 29.40342,9.55375 1.54902,0.7648 1.2669,1.17446 0.87976,1.48674 0.45022,2.28034 v 28.96707 l 14.4641,19.90814 25.25753,-8.20667 1.70272,-0.29175 1.71527,0.20549 1.58562,0.68569 1.70459,1.5802 15.61,21.48533 21.11163,-6.85959 v -26.5572 l 0.2487,-1.70954 0.72547,-1.56782 1.14212,-1.29613 2.02961,-1.13285 25.25752,-8.20667 v -22.19806 l -25.25752,-8.20667 -1.54902,-0.7648 -1.2669,-1.17446 -0.87976,-1.48674 -0.45022,-2.28034 V 269.4161 l -23.40342,-7.60424 -27.54931,8.95132 -0.55577,0.0952 -0.54335,0.15074 -0.30395,-0.006 -0.29965,0.0513 -0.55987,-0.0671 -0.56377,-0.0103 -0.28978,-0.0919 -0.30185,-0.0362 -0.51752,-0.2238 -0.5375,-0.17053 -0.25159,-0.17071 -0.27901,-0.12065 -0.27623,-0.25607 -0.62271,-0.42251 -0.52421,-0.64071 -0.28144,-0.26091 -18.17232,-25.01205 -0.12208,-0.2323 -0.16619,-0.20313 -0.23387,-0.55814 -0.2815,-0.53566 -0.0508,-0.25746 -0.10143,-0.24206 -0.0652,-0.60162 -0.11721,-0.59367 0.0246,-0.26129 -0.0283,-0.26091 0.10896,-0.59521 0.0568,-0.6025 0.0885,-0.19129 0.0568,-0.3103 0.78235,-1.54022 0.0335,-0.0353 0.015,-0.0324 18.17232,-25.01204 0.57439,-0.58907 0.56594,-0.59674 0.0364,-0.021 0.0293,-0.0301 0.7187,-0.40115 0.71223,-0.4106 0.0408,-0.01 0.0367,-0.0205 0.80301,-0.1797 0.79989,-0.1907 0.0419,0.002 0.041,-0.009 0.17622,0.0211 1.46578,0.0805 0.39897,0.14285 0.26689,0.032 27.54931,8.95132 23.40342,-7.60424 v -26.55732 l 0.0159,-0.10952 -0.0119,-0.11001 0.13597,-0.74274 0.10871,-0.74727 0.0465,-0.10043 0.0199,-0.10886 0.34196,-0.67321 0.31711,-0.68532 0.0732,-0.083 0.0501,-0.0987 0.51954,-0.54782 0.4993,-0.56662 0.0809,-0.0452 0.089,-0.0939 1.49664,-0.86281 0.22398,-0.0534 0.13905,-0.0776 25.25752,-8.20667 v -22.19807 l -25.25752,-8.20667 -0.37073,-0.18304 -0.39408,-0.12503 -0.37637,-0.25537 -0.40784,-0.20136 -0.30319,-0.28107 -0.34214,-0.23214 -0.28803,-0.35205 -0.33354,-0.3092 -0.21054,-0.35581 -0.26181,-0.31999 -0.17577,-0.41949 -0.23164,-0.39145 -0.0602,-0.30513 -0.19998,-0.47725 -0.12845,-1.18621 -0.0616,-0.31175 v -26.55732 l -21.11163,-6.85959 -15.61,21.48533 -0.49837,0.51111 -0.47202,0.53567 -0.12921,0.0809 -0.10644,0.10916 -0.62334,0.34792 -0.60508,0.37898 -0.14695,0.0408 -0.1331,0.0743 -0.69663,0.1559 -0.68798,0.19087 -0.15243,-0.003 -0.14879,0.0333 -0.35491,-0.0425 -1.07111,-0.0196 -0.55055,-0.17467 -0.33129,-0.0397 -25.25753,-8.20667 -14.4641,19.90813 v 28.96708 l -0.2487,1.70954 -0.72547,1.56782 -1.14212,1.29613 -2.02961,1.13285 -29.40342,9.55375 -1.70272,0.29175 -1.71527,-0.20549 -1.58562,-0.68569 -1.70459,-1.5802 -18.17231,-25.01205 -0.80364,-1.52923 -0.33462,-1.69481 0.16214,-1.71991 0.97612,-2.10947 17.02641,-23.43484 V 97.98101 l -25.25752,-8.20667 -0.37073,-0.18304 -0.39408,-0.12503 -0.37637,-0.25537 -0.40784,-0.20136 -0.30319,-0.28107 -0.34214,-0.23214 -0.28803,-0.35205 -0.33354,-0.3092 -0.21054,-0.35581 -0.26181,-0.31999 -0.17577,-0.41949 -0.23164,-0.39145 -0.0602,-0.30513 -0.19998,-0.47725 -0.12845,-1.18621 -0.0615,-0.31175 V 57.51067 l -21.11163,-6.85959 z m 78.12505,287.77409 v 24.60782 l 14.4641,19.90813 21.11163,-6.85959 v -24.60781 l -14.4641,-19.90814 z m -156.2501,-49.27943 -14.46411,19.90813 13.0477,17.95862 23.40343,-7.60424 14.46411,-19.90813 -13.0477,-17.95862 z m 139.49419,19.90813 13.0477,17.95862 21.11163,-6.85959 v -22.19806 l -21.11163,-6.85959 z m -106.38257,-34.56579 13.0477,17.95862 21.11163,-6.85959 v -22.19806 l -21.11163,-6.85959 z m 218.28994,-67.02766 v 22.19807 l 23.40342,7.60424 23.40342,-7.60424 v -22.19807 l -23.40342,-7.60424 z m -46.15932,11.09903 13.0477,17.95863 21.11162,-6.85959 v -22.19807 l -21.11162,-6.85959 z m -172.13062,-55.92862 13.0477,17.95862 21.11163,-6.85959 v -22.19807 l -21.11163,-6.85959 z m -47.57573,-34.5658 14.46411,19.90814 23.40343,7.60424 13.0477,-17.95863 -14.46411,-19.90813 -23.40343,-7.60424 z m 153.9583,0 13.0477,17.95863 21.11163,-6.85959 v -22.19807 l -21.11163,-6.85959 z M 278.8515,95.57126 v 24.60781 l 21.11163,6.85959 14.4641,-19.90813 V 82.52272 L 293.3156,75.66313 Z"
       stroke-miterlimit="10"
       id="path1" />
  </g>
  <g
     inkscape:groupmode="layer"
     id="layer2"
     inkscape:label="Layer 2"
     style="display:none">
    <path
       fill="#222222"
       stroke="#cccccc"
       paint-order="fill stroke markers"
       d="m 651.24265,34.96372 55.34035,17.98117 1.54902,0.7648 1.2669,1.17446 0.87976,1.48674 0.45022,2.28034 v 39.7222 l 23.34812,-32.13593 1.20604,-1.23687 1.50847,-0.84197 1.68583,-0.37727 2.30786,0.27648 55.34036,17.98117 1.54902,0.7648 1.2669,1.17446 0.87976,1.48674 0.45022,2.28034 v 53.82903 l 51.19445,16.63409 0.46861,0.23137 0.49196,0.17614 0.2786,0.20431 0.30985,0.15298 0.38327,0.35531 0.42137,0.309 0.20886,0.27524 0.2534,0.23491 0.26613,0.44974 0.31589,0.41629 0.0537,0.20831 0.24403,0.4124 0.45022,2.28034 v 58.18829 l -0.2487,1.70954 -0.72547,1.56782 -1.14212,1.29613 -1.46407,0.91699 -0.35551,0.0986 -0.21003,0.11723 -37.77805,12.27484 37.77805,12.27483 1.54902,0.7648 1.2669,1.17446 0.87976,1.48674 0.45022,2.28034 v 58.18829 l -0.2487,1.70954 -0.72547,1.56782 -1.14212,1.29613 -2.02961,1.13285 -51.19445,16.63409 v 53.82903 l -0.2487,1.70954 -0.72547,1.56782 -1.14212,1.29613 -2.02961,1.13285 -55.34036,17.98118 -1.70272,0.29175 -1.71527,-0.20549 -1.58562,-0.68569 -1.70459,-1.5802 -23.34812,-32.13593 v 39.72219 l -0.2487,1.70954 -0.72547,1.56782 -1.14212,1.29613 -2.02961,1.13285 -55.34035,17.98117 -1.70272,0.29175 -1.71527,-0.20549 -1.58562,-0.68569 -1.70459,-1.5802 -31.63991,-43.54861 -51.19447,16.6341 -1.70272,0.29175 -1.71527,-0.20549 -1.58562,-0.68569 -1.70459,-1.5802 -34.20222,-47.07532 -0.80364,-1.52923 -0.33462,-1.69481 0.16214,-1.71991 0.97612,-2.10947 23.34812,-32.13593 -37.77805,12.27483 -1.70272,0.29175 -1.71527,-0.20549 -1.58562,-0.68569 -1.70459,-1.5802 -34.20222,-47.07532 -0.80364,-1.52923 -0.33462,-1.69481 0.16214,-1.71991 0.97612,-2.10947 31.63992,-43.5486 -31.63992,-43.54861 -0.80364,-1.52923 -0.33462,-1.69481 0.16214,-1.71991 0.97612,-2.10947 34.20222,-47.07532 1.20604,-1.23687 1.50847,-0.84196 1.68583,-0.37728 2.30786,0.27648 37.77805,12.27483 -23.34812,-32.13593 -0.80364,-1.52923 -0.33462,-1.69481 0.16214,-1.71991 0.97612,-2.10947 34.20222,-47.07531 1.20604,-1.23687 1.50847,-0.84197 1.68583,-0.37727 2.30786,0.27648 51.19447,16.63409 31.63991,-43.54861 1.20604,-1.23687 1.50847,-0.84196 1.68583,-0.37728 z m -28.63992,357.45951 29.07761,40.0219 47.04856,-15.28701 v -49.46977 l -47.04856,-15.28701 z m -89.54258,-29.09414 29.07761,40.0219 47.04857,-15.28701 V 338.5942 l -47.04857,-15.28701 z m 179.08515,0 29.07761,40.0219 47.04857,-15.28701 V 338.5942 l -47.04857,-15.28701 z m -90.95897,-27.14464 v 37.77269 l 22.20222,-30.55873 v -37.77269 z m 34.20222,-44.66557 v 49.46978 l 47.04856,15.28701 29.07761,-40.0219 -29.07761,-40.0219 z m -177.66875,-4.35926 29.07761,40.0219 47.04856,-15.28701 v -49.46977 l -47.04856,-15.28701 z m 88.12617,-24.73488 v 49.46977 l 47.04857,15.28701 29.07761,-40.0219 -29.07761,-40.02189 z m 201.63969,24.73488 29.07761,40.0219 47.04856,-15.28701 v -49.46977 l -47.04856,-15.28701 z m -24.84634,23.99024 35.92396,11.6724 -22.20222,-30.55873 -35.92396,-11.6724 z m -120.03659,-71.06555 29.07761,40.02189 47.04856,-15.28701 v -49.46977 l -47.04856,-15.28701 z m 88.12617,-24.73489 v 49.46977 l 47.04857,15.28701 29.07761,-40.02189 -29.07761,-40.0219 z m -186.80688,24.73489 35.92395,11.6724 35.92395,-11.6724 -35.92395,-11.67241 z m -46.20222,-47.07532 29.07761,40.0219 47.04856,-15.28701 V 168.2741 l -47.04856,-15.28701 z m 88.12617,-24.73489 v 49.46978 l 47.04857,15.28701 29.07761,-40.0219 -29.07761,-40.0219 z m 201.63969,24.73489 29.07761,40.0219 47.04856,-15.28701 V 168.2741 L 796.56327,152.98709 Z M 655.38855,139.17995 v 49.46978 l 47.04856,15.28701 29.07761,-40.0219 -29.07761,-40.0219 z m 87.25077,29.8388 -22.20222,30.55873 35.92396,-11.6724 22.20222,-30.55873 z m -121.45299,-25.03459 22.20222,30.55873 v -37.77268 l -22.20222,-30.55873 z m -88.12618,-27.14464 29.07761,40.0219 47.04857,-15.28701 V 92.10464 L 562.13776,76.81763 Z m 179.08515,0 29.07761,40.0219 47.04857,-15.28701 V 92.10464 L 741.22291,76.81763 Z m -89.54257,-29.09414 29.07761,40.0219 47.04856,-15.28701 V 63.01049 L 651.68034,47.72348 Z"
       stroke-miterlimit="10"
       id="path2" />
  </g>
  <g
     inkscape:groupmode="layer"
     id="layer3"
     inkscape:label="Layer 3"
     style="display:none">
    <path
       fill="#222222"
       stroke="#cccccc"
       paint-order="fill stroke markers"
       d="m 232.50288,454.36657 1.46578,0.0805 0.39897,0.14285 0.26689,0.032 37.65123,12.23363 0.46861,0.23137 0.49196,0.17614 0.2786,0.20431 0.30985,0.15298 0.38327,0.35531 0.42137,0.309 0.20886,0.27524 0.2534,0.23491 0.26613,0.44974 0.31589,0.41629 0.0537,0.20831 0.24403,0.4124 0.45022,2.28034 v 35.22959 l 29.35943,9.53946 20.70743,-28.50134 0.57439,-0.58907 0.56594,-0.59674 0.0364,-0.021 0.0293,-0.0301 0.71844,-0.401 0.71249,-0.41075 0.0409,-0.01 0.0367,-0.0205 0.80265,-0.17963 0.80025,-0.19078 0.0419,0.002 0.041,-0.009 0.17622,0.0211 1.46578,0.0806 0.39897,0.14285 0.26689,0.032 37.65123,12.23362 0.46861,0.23137 0.49196,0.17614 0.2786,0.20431 0.30985,0.15298 0.38327,0.35531 0.42137,0.309 0.20886,0.27524 0.2534,0.23491 0.26613,0.44974 0.31589,0.41629 0.0537,0.20831 0.24403,0.4124 0.45022,2.28034 v 39.58885 l -0.2487,1.70954 -0.72547,1.56782 -1.14212,1.29613 -1.46407,0.91699 -0.35551,0.0986 -0.21003,0.11723 -33.50533,10.88654 V 591.642 l 29.35944,9.53947 20.70743,-28.50134 0.57439,-0.58907 0.56594,-0.59674 0.0364,-0.021 0.0294,-0.0301 0.71844,-0.401 0.71249,-0.41075 0.0409,-0.01 0.0367,-0.0205 0.80265,-0.17963 0.80025,-0.19078 0.0419,0.002 0.041,-0.009 0.17622,0.0211 1.46578,0.0806 0.39897,0.14285 0.26689,0.032 37.65122,12.23363 0.46861,0.23137 0.49196,0.17614 0.2786,0.20431 0.30985,0.15298 0.38327,0.35531 0.42137,0.309 0.20886,0.27524 0.2534,0.23491 0.26613,0.44974 0.31589,0.41629 0.0537,0.20831 0.24403,0.4124 0.45022,2.28034 v 39.58884 l -0.2487,1.70954 -0.72547,1.56782 -1.14212,1.29613 -1.46407,0.91699 -0.35551,0.0986 -0.21003,0.11723 -33.50532,10.88654 v 30.87033 l 33.50532,10.88654 0.46861,0.23137 0.49196,0.17614 0.2786,0.20431 0.30985,0.15298 0.38327,0.35531 0.42137,0.309 0.20886,0.27524 0.2534,0.23491 0.26613,0.44974 0.31589,0.41629 0.0537,0.20831 0.24403,0.4124 0.45022,2.28034 v 39.58885 l -0.2487,1.70954 -0.72547,1.56782 -1.14212,1.29613 -1.46407,0.91699 -0.35551,0.0986 -0.21003,0.11723 -37.65122,12.23362 -0.55577,0.0952 -0.54335,0.15074 -0.30395,-0.006 -0.29965,0.0513 -0.55987,-0.0671 -0.56377,-0.0103 -0.28978,-0.0919 -0.30185,-0.0362 -0.51752,-0.2238 -0.5375,-0.17053 -0.25159,-0.17071 -0.27901,-0.12065 -0.27623,-0.25607 -0.62271,-0.42251 -0.52421,-0.64071 -0.28144,-0.26091 -20.70743,-28.50133 -29.35944,9.53946 v 30.87032 l 33.50533,10.88655 0.46861,0.23137 0.49196,0.17614 0.2786,0.20431 0.30985,0.15298 0.38327,0.35531 0.42137,0.309 0.20886,0.27524 0.2534,0.23491 0.26613,0.44974 0.31589,0.41629 0.0537,0.20831 0.24403,0.4124 0.45022,2.28034 v 39.58884 l -0.2487,1.70954 -0.72547,1.56782 -1.14212,1.29613 -1.46407,0.91699 -0.35551,0.0986 -0.21003,0.11723 -37.65123,12.23363 -0.55577,0.0952 -0.54335,0.15074 -0.30395,-0.006 -0.29965,0.0513 -0.55987,-0.0671 -0.56377,-0.0103 -0.28978,-0.0919 -0.30185,-0.0362 -0.51752,-0.2238 -0.5375,-0.17053 -0.25159,-0.17071 -0.27901,-0.12065 -0.27623,-0.25607 -0.62271,-0.42251 -0.52421,-0.64071 -0.28144,-0.26091 -20.70743,-28.50134 -29.35943,9.53946 v 35.22959 l -0.2487,1.70954 -0.72547,1.56782 -1.14212,1.29613 -1.46407,0.91699 -0.35551,0.0986 -0.21003,0.11723 -37.65123,12.23362 -0.55577,0.0952 -0.54335,0.15074 -0.30395,-0.006 -0.29965,0.0513 -0.55987,-0.0671 -0.56377,-0.0103 -0.28978,-0.0919 -0.30185,-0.0362 -0.51752,-0.2238 -0.5375,-0.17053 -0.25159,-0.17071 -0.27901,-0.12065 -0.27623,-0.25607 -0.62271,-0.42251 -0.52421,-0.64071 -0.28144,-0.26091 -23.26974,-32.02804 -0.12208,-0.23231 -0.16619,-0.20312 -0.23386,-0.55811 -0.28151,-0.53568 -0.0508,-0.25748 -0.10142,-0.24205 -0.0652,-0.60161 -0.11721,-0.59368 0.0246,-0.26129 -0.0282,-0.26091 0.10896,-0.59521 0.0568,-0.6025 0.0885,-0.19129 0.0568,-0.3103 0.78235,-1.54022 0.0335,-0.0353 0.015,-0.0324 20.70744,-28.50134 -18.14513,-24.97463 -29.35944,9.53947 v 35.22958 l -0.2487,1.70954 -0.72547,1.56782 -1.14212,1.29613 -1.46407,0.91699 -0.35551,0.0986 -0.21003,0.11723 -37.65122,12.23363 -0.55577,0.0952 -0.54335,0.15074 -0.30395,-0.006 -0.29965,0.0513 -0.55987,-0.0671 -0.56377,-0.0103 -0.28978,-0.0919 -0.30185,-0.0362 -0.51752,-0.2238 -0.5375,-0.17053 -0.25159,-0.17071 -0.27901,-0.12065 -0.27623,-0.25607 -0.62271,-0.42251 -0.52421,-0.64071 -0.28144,-0.26091 -23.26974,-32.02805 -0.12208,-0.2323 -0.16619,-0.20313 -0.23387,-0.55814 -0.2815,-0.53566 -0.0508,-0.25746 -0.10143,-0.24206 -0.0652,-0.60162 -0.11721,-0.59367 0.0246,-0.26129 -0.0282,-0.26091 0.10896,-0.59521 0.0568,-0.6025 0.0885,-0.19129 0.0568,-0.3103 0.78235,-1.54022 0.0335,-0.0353 0.015,-0.0324 20.70743,-28.50134 -18.14512,-24.97462 -33.50534,10.88654 -0.55577,0.0952 -0.54335,0.15074 -0.30395,-0.006 -0.29965,0.0513 -0.55987,-0.0671 -0.56377,-0.0103 -0.28978,-0.0919 -0.30185,-0.0362 -0.51752,-0.2238 -0.5375,-0.17053 -0.25159,-0.17071 -0.27901,-0.12065 -0.27623,-0.25607 -0.62271,-0.42251 -0.52421,-0.64071 -0.28144,-0.26091 -23.26974,-32.02804 -0.12208,-0.23231 -0.16619,-0.20312 -0.23386,-0.55811 -0.28151,-0.53568 -0.05084,-0.25748 -0.10142,-0.24205 -0.06515,-0.60161 -0.11721,-0.59368 0.02463,-0.26129 -0.02825,-0.26091 0.10896,-0.59521 0.0568,-0.6025 0.08851,-0.19129 0.05681,-0.3103 0.78235,-1.54022 0.03347,-0.0353 0.01498,-0.0324 23.26974,-32.02805 0.57439,-0.58907 0.56594,-0.59674 0.03636,-0.021 0.02935,-0.0301 0.71844,-0.401 0.71249,-0.41075 0.04087,-0.01 0.03667,-0.0205 0.80265,-0.17963 0.80025,-0.19078 0.04194,0.002 0.04099,-0.009 0.17622,0.0211 1.46578,0.0806 0.39897,0.14285 0.26689,0.032 33.50534,10.88654 18.14512,-24.97462 -18.14512,-24.97463 -33.50534,10.88655 -0.55577,0.0952 -0.54335,0.15074 -0.30395,-0.006 -0.29965,0.0513 -0.55987,-0.0671 -0.56377,-0.0103 -0.28978,-0.0919 -0.30185,-0.0362 -0.51752,-0.2238 -0.5375,-0.17053 -0.25159,-0.17071 -0.27901,-0.12065 -0.27623,-0.25607 -0.62271,-0.42251 -0.52421,-0.64071 -0.28144,-0.26091 -23.26974,-32.02805 -0.12208,-0.2323 -0.16619,-0.20313 -0.23387,-0.55814 -0.2815,-0.53566 -0.05083,-0.25746 -0.10143,-0.24206 -0.06515,-0.60162 -0.11721,-0.59367 0.02463,-0.26129 -0.02825,-0.26091 0.10896,-0.59521 0.0568,-0.6025 0.08851,-0.19129 0.05681,-0.3103 0.78235,-1.54022 0.03347,-0.0353 0.01498,-0.0324 23.26974,-32.02805 0.57439,-0.58907 0.56594,-0.59674 0.03636,-0.021 0.02935,-0.0301 0.71844,-0.401 0.71249,-0.41075 0.04087,-0.01 0.03667,-0.0205 0.80265,-0.17963 0.80025,-0.19078 0.04194,0.002 0.04099,-0.009 0.17622,0.0211 1.46578,0.0806 0.39897,0.14285 0.26689,0.032 33.50534,10.88655 18.14512,-24.97463 -20.70743,-28.50133 -0.12208,-0.23231 -0.16619,-0.20312 -0.23386,-0.55811 -0.28151,-0.53568 -0.0508,-0.25748 -0.10142,-0.24205 -0.0652,-0.60161 -0.11721,-0.59368 0.0246,-0.26129 -0.0282,-0.26091 0.10896,-0.59521 0.0568,-0.6025 0.0885,-0.19129 0.0568,-0.3103 0.78235,-1.54022 0.0335,-0.0353 0.015,-0.0324 23.26974,-32.02805 0.57439,-0.58907 0.56594,-0.59674 0.0364,-0.021 0.0293,-0.0301 0.71844,-0.401 0.71249,-0.41075 0.0409,-0.01 0.0367,-0.0205 0.80265,-0.17963 0.80025,-0.19078 0.0419,0.002 0.041,-0.009 0.17622,0.0211 1.46578,0.0806 0.39897,0.14285 0.26689,0.032 37.65122,12.23362 0.46861,0.23137 0.49196,0.17614 0.2786,0.20431 0.30985,0.15298 0.38327,0.35531 0.42137,0.309 0.20886,0.27524 0.2534,0.23491 0.26613,0.44974 0.31589,0.41629 0.0537,0.20831 0.24403,0.4124 0.45022,2.28034 v 35.22959 l 29.35944,9.53946 18.14512,-24.97462 -20.70743,-28.50134 -0.12208,-0.2323 -0.16619,-0.20313 -0.23387,-0.55814 -0.2815,-0.53566 -0.0508,-0.25746 -0.10143,-0.24206 -0.0652,-0.60162 -0.11721,-0.59367 0.0246,-0.26129 -0.0282,-0.26091 0.10896,-0.59521 0.0568,-0.6025 0.0885,-0.19129 0.0568,-0.3103 0.78235,-1.54022 0.0335,-0.0353 0.015,-0.0324 23.26974,-32.02805 0.57439,-0.58907 0.56594,-0.59674 0.0364,-0.021 0.0293,-0.0301 0.71844,-0.401 0.71249,-0.41075 0.0409,-0.01 0.0367,-0.0205 0.80265,-0.17963 0.80025,-0.19078 0.0419,0.002 0.041,-0.009 z m -15.5758,37.98976 20.70744,28.50134 0.17305,0.3293 0.22489,0.29636 0.0666,0.25829 0.33911,0.64528 0.33462,1.69481 -0.0189,0.19993 0.0265,0.10274 -0.10277,0.70644 -0.067,0.7108 -0.0531,0.11472 -0.0258,0.17758 -0.72547,1.56782 -0.11866,0.13466 -0.0531,0.11469 -23.26974,32.02804 -0.49837,0.51111 -0.47202,0.53567 -0.12921,0.0809 -0.10644,0.10916 -0.6234,0.34796 -0.60502,0.37894 -0.14691,0.0408 -0.13314,0.0743 -0.69674,0.15592 -0.68787,0.19084 -0.15242,-0.003 -0.1488,0.0333 -0.35491,-0.0425 -1.07111,-0.0196 -0.55055,-0.17467 -0.33129,-0.0397 -37.65123,-12.23362 -0.37073,-0.18304 -0.39408,-0.12503 -0.37637,-0.25537 -0.40784,-0.20136 -0.30319,-0.28107 -0.34214,-0.23214 -0.28803,-0.35205 -0.33354,-0.3092 -0.21054,-0.35581 -0.26181,-0.31999 -0.17577,-0.41949 -0.23164,-0.39145 -0.0602,-0.30513 -0.19998,-0.47725 -0.12845,-1.18621 -0.0615,-0.31175 v -35.22959 l -29.35943,-9.53946 -18.14512,24.97463 19.56153,26.92413 35.79712,11.6312 0.46861,0.23137 0.49196,0.17614 0.2786,0.20431 0.30985,0.15298 0.38327,0.35531 0.42137,0.309 0.20886,0.27524 0.2534,0.23491 0.26613,0.44974 0.31589,0.41629 0.0537,0.20831 0.24403,0.4124 0.45022,2.28034 v 39.58884 l -0.2487,1.70954 -0.72547,1.56782 -1.14212,1.29613 -1.46407,0.91699 -0.35551,0.0986 -0.21003,0.11723 -37.65122,12.23363 -0.55577,0.0952 -0.54335,0.15074 -0.30395,-0.006 -0.29965,0.0513 -0.55987,-0.0671 -0.56377,-0.0103 -0.28978,-0.0919 -0.30185,-0.0362 -0.51752,-0.2238 -0.5375,-0.17053 -0.25159,-0.17071 -0.27901,-0.12065 -0.27623,-0.25607 -0.62271,-0.42251 -0.52421,-0.64071 -0.28144,-0.26091 -22.12384,-30.45085 -31.65124,-10.28412 -18.14513,24.97463 18.14513,24.97463 33.50534,-10.88655 0.66305,-0.11361 0.65436,-0.156 0.19391,0.0107 0.1914,-0.0328 0.66794,0.08 0.67168,0.0369 0.18283,0.0655 0.19282,0.0231 0.61744,0.26701 0.63334,0.22676 0.1566,0.11484 0.17824,0.0771 0.27688,0.25667 0.78137,0.57301 0.38727,0.51036 0.25907,0.24016 23.26974,32.02805 0.17305,0.3293 0.22489,0.29636 0.0666,0.25829 0.33911,0.64528 0.33462,1.69481 -0.0189,0.19993 0.0265,0.10274 -0.10277,0.70644 -0.067,0.7108 -0.0531,0.11472 -0.0258,0.17758 -0.72547,1.56782 -0.11866,0.13466 -0.0531,0.11469 -23.26974,32.02804 -0.49837,0.51111 -0.47202,0.53567 -0.12921,0.0809 -0.10644,0.10916 -0.6234,0.34796 -0.60502,0.37894 -0.14691,0.0408 -0.13314,0.0743 -0.69674,0.15592 -0.68787,0.19084 -0.15242,-0.003 -0.1488,0.0333 -0.35491,-0.0425 -1.07111,-0.0196 -0.55055,-0.17467 -0.33129,-0.0397 -33.50534,-10.88654 -18.14512,24.97463 18.14512,24.97462 31.65124,-10.28411 22.12384,-30.45085 1.20604,-1.23687 1.50847,-0.84196 1.68583,-0.37728 2.30786,0.27648 37.65122,12.23363 1.54902,0.7648 1.2669,1.17446 0.87976,1.48674 0.45022,2.28034 v 39.58884 l -0.2487,1.70954 -0.72547,1.56782 -1.14212,1.29613 -2.02961,1.13285 -35.79712,11.63119 -19.56154,26.92414 18.14513,24.97463 29.35943,-9.53946 v -35.22959 l 0.0159,-0.10952 -0.0119,-0.11001 0.13597,-0.74274 0.10871,-0.74727 0.0465,-0.10043 0.0199,-0.10886 0.34196,-0.67321 0.31711,-0.68532 0.0732,-0.083 0.0501,-0.0987 0.51954,-0.54782 0.4993,-0.56662 0.0809,-0.0452 0.089,-0.0939 1.49664,-0.86281 0.22398,-0.0534 0.13905,-0.0776 37.65123,-12.23363 0.66305,-0.11361 0.65436,-0.156 0.19391,0.0107 0.1914,-0.0328 0.66794,0.08 0.67168,0.0369 0.18283,0.0655 0.19282,0.0231 0.61744,0.26701 0.63334,0.22676 0.1566,0.11484 0.17824,0.0771 0.27688,0.25667 0.78137,0.57301 0.38727,0.51036 0.25907,0.24016 23.26974,32.02805 0.17305,0.3293 0.22489,0.29636 0.0666,0.25829 0.33911,0.64528 0.33462,1.69481 -0.0189,0.19993 0.0265,0.10274 -0.10277,0.70644 -0.067,0.7108 -0.0531,0.11472 -0.0258,0.17758 -0.72547,1.56782 -0.11866,0.13466 -0.0531,0.11469 -20.70743,28.50134 18.14512,24.97462 29.35944,-9.53946 V 809.9126 l -22.12384,-30.45085 -0.12208,-0.2323 -0.16619,-0.20313 -0.23387,-0.55814 -0.2815,-0.53566 -0.0508,-0.25746 -0.10143,-0.24206 -0.0652,-0.60162 -0.11721,-0.59367 0.0246,-0.26129 -0.0282,-0.26091 0.10896,-0.59521 0.0568,-0.6025 0.0885,-0.19129 0.0568,-0.3103 0.78235,-1.54022 0.0335,-0.0353 0.015,-0.0324 23.26974,-32.02805 0.57439,-0.58907 0.56594,-0.59674 0.0364,-0.021 0.0294,-0.0301 0.71844,-0.401 0.71249,-0.41075 0.0409,-0.01 0.0367,-0.0205 0.80265,-0.17963 0.80025,-0.19078 0.0419,0.002 0.041,-0.009 0.17622,0.0211 1.46578,0.0806 0.39897,0.14285 0.26689,0.032 37.65122,12.23363 0.46861,0.23137 0.49196,0.17614 0.2786,0.20431 0.30985,0.15298 0.38327,0.35531 0.42137,0.309 0.20886,0.27524 0.2534,0.23491 0.26613,0.44974 0.31589,0.41629 0.0537,0.20831 0.24403,0.4124 0.45022,2.28034 v 37.63933 l 19.56153,26.92414 29.35944,-9.53947 v -30.87032 l -33.50533,-10.88655 -0.37073,-0.18304 -0.39408,-0.12503 -0.37637,-0.25537 -0.40784,-0.20136 -0.30319,-0.28107 -0.34214,-0.23214 -0.28803,-0.35205 -0.33354,-0.3092 -0.21054,-0.35581 -0.26181,-0.31999 -0.17577,-0.41949 -0.23164,-0.39145 -0.0602,-0.30513 -0.19998,-0.47725 -0.12845,-1.18621 -0.0615,-0.31175 v -39.58884 l 0.0159,-0.10952 -0.0119,-0.11001 0.13597,-0.74274 0.10871,-0.74727 0.0465,-0.10043 0.0199,-0.10886 0.34196,-0.67321 0.31711,-0.68532 0.0732,-0.083 0.0501,-0.0987 0.51954,-0.54782 0.4993,-0.56662 0.0809,-0.0452 0.089,-0.0939 1.49664,-0.86281 0.22398,-0.0534 0.13905,-0.0776 37.65123,-12.23362 0.66305,-0.11361 0.65436,-0.156 0.19391,0.0107 0.1914,-0.0328 0.66794,0.08 0.67168,0.0369 0.18283,0.0655 0.19282,0.0231 0.61744,0.26701 0.63334,0.22676 0.1566,0.11484 0.17824,0.0771 0.27688,0.25667 0.78137,0.57301 0.38727,0.51036 0.25907,0.24016 20.70743,28.50133 29.35943,-9.53946 v -30.87033 l -31.65122,-10.28411 -35.79713,11.63119 -1.70272,0.29175 -1.71527,-0.20549 -1.58562,-0.68569 -1.70459,-1.5802 -23.26974,-32.02804 -0.80364,-1.52922 -0.33462,-1.69482 0.16214,-1.71991 0.97612,-2.10947 23.26974,-32.02805 0.28863,-0.296 0.2407,-0.33618 0.35917,-0.27903 0.31754,-0.32566 0.36102,-0.2015 0.32649,-0.25365 0.42383,-0.16515 0.39713,-0.22166 0.40341,-0.0903 0.38528,-0.15013 0.4533,-0.0375 0.44384,-0.0993 0.4125,0.0284 0.412,-0.0341 0.51495,0.098 0.384,0.0265 0.25393,0.0949 0.33048,0.0629 35.79713,11.6312 31.65122,-10.28411 v -30.87034 l -29.35943,-9.53946 -20.70743,28.50134 -0.49837,0.51111 -0.47202,0.53567 -0.12921,0.0809 -0.10644,0.10916 -0.62334,0.34792 -0.60508,0.37898 -0.14695,0.0408 -0.1331,0.0743 -0.69663,0.1559 -0.68798,0.19087 -0.15243,-0.003 -0.14879,0.0333 -0.35491,-0.0425 -1.07111,-0.0196 -0.55055,-0.17467 -0.33129,-0.0397 -37.65123,-12.23363 -0.37073,-0.18304 -0.39408,-0.12503 -0.37637,-0.25537 -0.40784,-0.20136 -0.30319,-0.28107 -0.34214,-0.23214 -0.28803,-0.35205 -0.33354,-0.3092 -0.21054,-0.35581 -0.26181,-0.31999 -0.17577,-0.41949 -0.23164,-0.39145 -0.0602,-0.30513 -0.19998,-0.47725 -0.12845,-1.18621 -0.0615,-0.31175 v -39.58884 l 0.0159,-0.10952 -0.0119,-0.11001 0.13597,-0.74274 0.10871,-0.74727 0.0465,-0.10043 0.0199,-0.10886 0.34196,-0.67321 0.31711,-0.68532 0.0732,-0.083 0.0501,-0.0987 0.51954,-0.54782 0.4993,-0.56662 0.0809,-0.0452 0.089,-0.0939 1.49664,-0.86281 0.22398,-0.0534 0.13905,-0.0776 33.50533,-10.88654 v -30.87033 l -29.35944,-9.53946 -19.56153,26.92414 v 37.63933 l -0.2487,1.70954 -0.72547,1.56782 -1.14212,1.29613 -2.02961,1.13285 -37.65122,12.23362 -1.70272,0.29175 -1.71527,-0.20549 -1.58562,-0.68569 -1.70459,-1.5802 -23.26974,-32.02804 -0.80364,-1.52922 -0.33462,-1.69482 0.16214,-1.71991 0.97612,-2.10947 22.12384,-30.45085 V 476.91977 L 235.0724,467.3803 Z m 37.65123,283.57959 18.14513,24.97463 29.35943,-9.53946 v -30.87034 l -29.35943,-9.53946 z m -136.22341,-44.26167 18.14512,24.97462 29.35943,-9.53946 v -30.87033 l -29.35943,-9.53946 z m 220.41412,-71.61689 18.14512,24.97462 29.35944,-9.53946 V 644.6222 l -29.35944,-9.53947 z m -220.41413,-71.61689 18.14513,24.97463 29.35943,-9.53946 V 573.0053 l -29.35943,-9.53946 z m 136.22343,-44.26167 18.14512,24.97462 29.35943,-9.53946 v -30.87033 l -29.35943,-9.53946 z"
       stroke-miterlimit="10"
       id="path3" />
  </g>
  <g
     inkscape:groupmode="layer"
     id="layer4"
     inkscape:label="Layer 4"
     style="display:none">
    <path
       fill="#222222"
       stroke="#cccccc"
       paint-order="fill stroke markers"
       d="m 692.81894,459.43821 33.42906,10.86176 1.54902,0.7648 1.2669,1.17446 0.87976,1.48674 0.45022,2.28034 v 30.79013 l 29.28316,9.51468 1.54902,0.7648 1.2669,1.17446 0.87976,1.48674 0.45022,2.28034 v 35.1494 l -0.2487,1.70954 -0.72547,1.56782 -1.14212,1.29613 -2.02961,1.13285 -29.28316,9.51468 v 26.43087 l 25.13727,8.1676 18.09799,-24.90975 0.57439,-0.58907 0.56594,-0.59674 0.0364,-0.021 0.0294,-0.0301 0.7187,-0.40115 0.71223,-0.4106 0.0408,-0.01 0.0367,-0.0205 0.80301,-0.1797 0.79989,-0.1907 0.0419,0.002 0.041,-0.009 0.17622,0.0211 1.46578,0.0806 0.39897,0.14285 0.26689,0.032 33.42906,10.86176 0.46861,0.23137 0.49196,0.17614 0.2786,0.20431 0.30985,0.15298 0.38327,0.35531 0.42137,0.309 0.20886,0.27524 0.2534,0.23491 0.26613,0.44974 0.31589,0.41629 0.0537,0.20831 0.24403,0.4124 0.45022,2.28034 v 30.79014 l 29.28316,9.51468 0.46861,0.23137 0.49196,0.17614 0.2786,0.20431 0.30985,0.15298 0.38327,0.35531 0.42137,0.309 0.20886,0.27524 0.2534,0.23491 0.26613,0.44974 0.31589,0.41629 0.0537,0.20831 0.24403,0.4124 0.45022,2.28034 v 35.14939 l -0.2487,1.70954 -0.72547,1.56782 -1.14212,1.29613 -2.02961,1.13285 -29.28316,9.51468 v 30.79014 l -0.2487,1.70954 -0.72547,1.56782 -1.14212,1.29613 -2.02961,1.13285 -33.42906,10.86176 -1.70272,0.29175 -1.71527,-0.20549 -1.58562,-0.68569 -1.70459,-1.5802 -18.09799,-24.90975 -25.13727,8.1676 v 26.43088 l 29.28316,9.51468 1.54902,0.7648 1.2669,1.17446 0.87976,1.48674 0.45022,2.28034 v 35.14939 l -0.2487,1.70954 -0.72547,1.56782 -1.14212,1.29613 -2.02961,1.13285 -29.28316,9.51468 v 30.79013 l -0.2487,1.70954 -0.72547,1.56782 -1.14212,1.29613 -2.02961,1.13285 -33.42906,10.86176 -1.70272,0.29175 -1.71527,-0.20549 -1.58562,-0.68569 -1.70459,-1.5802 -18.09799,-24.90974 -29.28317,9.51468 -1.70272,0.29175 -1.71527,-0.20549 -1.58562,-0.68569 -1.70459,-1.5802 -20.66029,-28.43646 -0.80364,-1.52923 -0.33462,-1.69481 0.16214,-1.71991 0.97612,-2.10947 18.09799,-24.90975 -15.53568,-21.38303 -25.13727,8.1676 v 30.79013 l -0.2487,1.70954 -0.72547,1.56782 -1.14212,1.29613 -2.02961,1.13285 -33.42906,10.86176 -1.70272,0.29175 -1.71527,-0.20549 -1.58562,-0.68569 -1.70459,-1.5802 -18.09799,-24.90975 -29.28317,9.51468 -1.70272,0.29175 -1.71527,-0.20549 -1.58562,-0.68569 -1.70459,-1.5802 -20.66029,-28.43645 -0.80364,-1.52923 -0.33462,-1.69481 0.16214,-1.71991 0.97612,-2.10947 18.09799,-24.90975 -18.09799,-24.90975 -0.80364,-1.52923 -0.33462,-1.69481 0.16214,-1.71991 0.97612,-2.10947 20.66029,-28.43646 1.20604,-1.23687 1.50846,-0.84196 1.68584,-0.37728 2.30786,0.27648 29.28317,9.51468 15.53568,-21.38303 -15.53568,-21.38304 -29.28317,9.51468 -1.70272,0.29175 -1.71527,-0.20549 -1.58562,-0.68569 -1.70459,-1.5802 -20.66029,-28.43646 -0.80364,-1.52923 -0.33462,-1.69481 0.16214,-1.71991 0.97612,-2.10947 18.09799,-24.90975 -18.09799,-24.90974 -0.80364,-1.52923 -0.33462,-1.69481 0.16214,-1.71991 0.97612,-2.10947 20.66029,-28.43646 1.20604,-1.23687 1.50846,-0.84196 1.68584,-0.37728 2.30786,0.27648 29.28317,9.51468 18.09799,-24.90975 1.20604,-1.23687 1.50847,-0.84197 1.68583,-0.37727 2.30786,0.27648 33.42906,10.86176 1.54902,0.7648 1.2669,1.17446 0.87976,1.48674 0.45022,2.28034 v 30.79014 l 25.13727,8.1676 15.53568,-21.38304 -18.09799,-24.90975 -0.80364,-1.52923 -0.33462,-1.69481 0.16214,-1.71991 0.97612,-2.10947 20.66029,-28.43645 1.20604,-1.23687 1.50847,-0.84196 1.68583,-0.37728 2.30786,0.27648 29.28317,9.51468 18.09799,-24.90975 1.20604,-1.23687 1.50847,-0.84197 1.68583,-0.37727 z m -16.5144,310.20972 -0.2487,1.70954 -0.72547,1.56782 -1.14212,1.29613 -2.02961,1.13285 -31.57496,10.25933 -16.95209,23.33255 15.53568,21.38304 29.28317,-9.51468 1.70272,-0.29175 1.71527,0.20549 1.58562,0.68569 1.70459,1.5802 18.09799,24.90974 25.13727,-8.1676 v -30.79013 l 0.2487,-1.70954 0.72547,-1.56782 1.14212,-1.29613 2.02961,-1.13285 29.28316,-9.51468 v -26.43087 l -27.42906,-8.91225 -31.57496,10.25933 -0.55577,0.0952 -0.54335,0.15074 -0.30395,-0.006 -0.29965,0.0513 -0.55987,-0.0671 -0.56377,-0.0103 -0.28978,-0.0919 -0.30185,-0.0362 -0.51752,-0.2238 -0.5375,-0.17053 -0.25159,-0.17071 -0.27901,-0.12065 -0.27623,-0.25607 -0.62271,-0.42251 -0.52421,-0.64071 -0.28144,-0.26091 -9.8062,-13.49707 z m -194.28072,-63.58585 18.09799,24.90975 0.80364,1.52923 0.33462,1.69481 -0.16214,1.71991 -0.97612,2.10947 -18.09799,24.90975 15.53568,21.38303 29.28317,-9.51468 1.70272,-0.29175 1.71527,0.20549 1.58562,0.68569 1.70459,1.5802 18.09799,24.90975 25.13727,-8.1676 v -28.84062 l -19.5144,-26.85926 -0.12208,-0.2323 -0.16619,-0.20313 -0.23387,-0.55814 -0.2815,-0.53566 -0.0508,-0.25746 -0.10143,-0.24206 -0.0652,-0.60162 -0.11721,-0.59367 0.0246,-0.26129 -0.0282,-0.26091 0.10896,-0.59521 0.0568,-0.6025 0.0885,-0.19129 0.0568,-0.3103 0.78235,-1.54022 0.0335,-0.0353 0.015,-0.0324 9.8062,-13.49707 -15.86676,5.15542 -1.70272,0.29175 -1.71527,-0.20549 -1.58562,-0.68569 -1.70459,-1.5802 -19.5144,-26.85926 -27.42907,-8.91225 z m 141.60777,46.01116 15.53568,21.38303 25.13727,-8.1676 V 738.8578 l -25.13727,-8.1676 z m -54.08935,-17.5747 15.53568,21.38304 25.13727,-8.1676 V 721.2831 l -25.13727,-8.1676 z m 108.17871,0 15.53568,21.38304 25.13727,-8.1676 V 721.2831 l -25.13727,-8.1676 z m -55.50576,-15.62519 v 14.73379 l 8.66029,-11.91987 v -14.73379 z m 20.66029,-26.02671 v 26.43088 l 25.13727,8.1676 15.53568,-21.38304 -15.53568,-21.38304 z m 120.94748,-76.85736 v 33.19989 l -0.2487,1.70954 -0.72547,1.56782 -1.14212,1.29613 -1.46407,0.91699 -0.35551,0.0986 -0.21003,0.11723 -15.86675,5.15542 15.86675,5.15542 1.54902,0.7648 1.2669,1.17446 0.87976,1.48674 0.45022,2.28034 v 33.19988 l 16.95209,23.33255 25.13727,-8.1676 v -30.79014 l 0.2487,-1.70954 0.72547,-1.56782 1.14212,-1.29613 2.02961,-1.13285 29.28316,-9.51468 v -26.43087 l -29.28316,-9.51468 -0.37073,-0.18304 -0.39408,-0.12503 -0.37637,-0.25537 -0.40784,-0.20136 -0.30319,-0.28107 -0.34214,-0.23214 -0.28803,-0.35205 -0.33354,-0.3092 -0.21054,-0.35581 -0.26181,-0.31999 -0.17577,-0.41949 -0.23164,-0.39145 -0.0602,-0.30513 -0.19998,-0.47725 -0.12845,-1.18621 -0.0616,-0.31175 V 600.8243 l -25.13727,-8.1676 z m -227.70978,72.4981 15.53568,21.38304 25.13727,-8.1676 v -26.43087 l -25.13727,-8.1676 z m 52.67295,-13.21543 v 26.43087 l 25.13727,8.1676 15.53568,-21.38304 -15.53568,-21.38303 z m 122.36388,13.21543 15.53568,21.38304 25.13727,-8.1676 v -26.43087 l -25.13727,-8.1676 z m -16.47697,12.47079 14.01267,4.55299 -8.6603,-11.91987 -14.01267,-4.55299 z m -71.04145,-40.90724 15.53568,21.38303 25.13727,-8.1676 v -26.43087 l -25.13727,-8.1676 z m 52.67295,-13.21544 v 26.43087 l 25.13728,8.1676 15.53568,-21.38303 -15.53568,-21.38304 z m -107.53106,13.21544 14.01265,4.55299 14.01265,-4.55299 -14.01265,-4.55299 z m -32.6603,-28.43646 15.53568,21.38304 25.13727,-8.1676 v -26.43088 l -25.13727,-8.1676 z m 52.67295,-13.21544 v 26.43088 l 25.13727,8.1676 15.53568,-21.38304 -15.53568,-21.38304 z m 122.36388,13.21544 15.53568,21.38304 25.13727,-8.1676 v -26.43088 l -25.13727,-8.1676 z m -177.59914,-88.4956 -1.20604,1.23687 -1.50847,0.84197 -1.68583,0.37727 -2.30786,-0.27648 -29.28317,-9.51468 -15.53568,21.38304 18.09799,24.90974 0.80364,1.52923 0.33462,1.69481 -0.16214,1.71991 -0.97612,2.10947 -18.09799,24.90975 15.53568,21.38304 27.42907,-8.91225 19.5144,-26.85926 0.57439,-0.58907 0.56594,-0.59674 0.0364,-0.021 0.0294,-0.0301 0.7187,-0.40115 0.71223,-0.4106 0.0408,-0.01 0.0367,-0.0205 0.80301,-0.1797 0.79989,-0.1907 0.0419,0.002 0.041,-0.009 0.17622,0.0211 1.46578,0.0805 0.39897,0.14285 0.26689,0.032 15.86676,5.15542 -9.8062,-13.49707 -0.80364,-1.52923 -0.33462,-1.69481 0.16214,-1.71991 0.97612,-2.10947 19.5144,-26.85925 v -28.84063 l -25.13727,-8.1676 z m 109.32461,57.70546 v 26.43088 l 25.13727,8.1676 15.53568,-21.38304 -15.53568,-21.38304 z m 51.79756,18.31935 -8.6603,11.91987 14.01267,-4.55299 8.6603,-11.91987 z m -72.45785,-17.91518 8.66029,11.91987 v -14.73379 l -8.66029,-11.91986 z m -52.67295,-15.62519 15.53568,21.38304 25.13727,-8.1676 v -26.43087 l -25.13727,-8.1676 z m 108.17871,0 15.53568,21.38304 25.13727,-8.1676 v -26.43087 l -25.13727,-8.1676 z m -54.08936,-17.57469 15.53568,21.38303 25.13727,-8.1676 v -26.43087 l -25.13727,-8.1676 z m 51.52705,-70.9209 -1.20604,1.23687 -1.50847,0.84197 -1.68583,0.37727 -2.30786,-0.27648 -29.28317,-9.51468 -15.53568,21.38303 16.95209,23.33255 31.57496,10.25933 0.46861,0.23137 0.49196,0.17614 0.2786,0.20431 0.30985,0.15298 0.38327,0.35531 0.42137,0.309 0.20886,0.27524 0.2534,0.23491 0.26613,0.44974 0.31589,0.41629 0.0537,0.20831 0.24403,0.4124 0.45022,2.28034 v 16.6833 l 9.8062,-13.49707 0.57439,-0.58907 0.56594,-0.59674 0.0364,-0.021 0.0294,-0.0301 0.7187,-0.40115 0.71223,-0.4106 0.0408,-0.01 0.0367,-0.0205 0.80301,-0.1797 0.79989,-0.1907 0.0419,0.002 0.041,-0.009 0.17622,0.0211 1.46578,0.0806 0.39897,0.14285 0.26689,0.032 31.57496,10.25933 27.42906,-8.91225 v -26.43088 l -29.28316,-9.51468 -1.54902,-0.7648 -1.2669,-1.17446 -0.87976,-1.48674 -0.45022,-2.28034 v -30.79013 l -25.13727,-8.1676 z"
       stroke-miterlimit="10"
       id="path4" />
  </g>
</svg>
