  0
SECTION
  2
HEADER
  9
$ACADVER
  1
AC1014
  9
$HANDSEED
  5
FFFF
  9
$INSUNITS
 70
     4
  9
$MEASUREMENT
 70
     1
  0
ENDSEC
  0
SECTION
  2
TABLES
  0
TABLE
  2
VPORT
  5
8
330
0
100
AcDbSymbolTable
 70
     4
  0
VPORT
  5
2E
330
8
100
AcDbSymbolTableRecord
100
AcDbViewportTableRecord
  2
*ACTIVE
 70
     0
 10
0.0
 20
0.0
 11
1.0
 21
1.0
 12
210.0
 22
148.5
 13
0.0
 23
0.0
 14
10.0
 24
10.0
 15
10.0
 25
10.0
 16
0.0
 26
0.0
 36
1.0
 17
0.0
 27
0.0
 37
0.0
 40
341.0
 41
1.24
 42
50.0
 43
0.0
 44
0.0
 50
0.0
 51
0.0
 71
     0
 72
   100
 73
     1
 74
     3
 75
     0
 76
     0
 77
     0
 78
     0
  0
ENDTAB
  0
TABLE
  2
LTYPE
  5
5
330
0
100
AcDbSymbolTable
 70
     1
  0
LTYPE
  5
14
330
5
100
AcDbSymbolTableRecord
100
AcDbLinetypeTableRecord
  2
BYBLOCK
 70
     0
  3

 72
    65
 73
     0
 40
0.0
  0
LTYPE
  5
15
330
5
100
AcDbSymbolTableRecord
100
AcDbLinetypeTableRecord
  2
BYLAYER
 70
     0
  3

 72
    65
 73
     0
 40
0.0
  0
LTYPE
  5
16
330
5
100
AcDbSymbolTableRecord
100
AcDbLinetypeTableRecord
  2
CONTINUOUS
 70
     0
  3
Solid line
 72
    65
 73
     0
 40
0.0
  0
ENDTAB
  0
TABLE
  2
LAYER
  5
2
100
AcDbSymbolTable
 70
1
  0
LAYER
  5
50
100
AcDbSymbolTableRecord
100
AcDbLayerTableRecord
  2
0
 70
0
  6
CONTINUOUS
  0
ENDTAB
  0
TABLE
  2
STYLE
  5
3
330
0
100
AcDbSymbolTable
 70
     1
  0
STYLE
  5
11
330
3
100
AcDbSymbolTableRecord
100
AcDbTextStyleTableRecord
  2
STANDARD
 70
     0
 40
0.0
 41
1.0
 50
0.0
 71
     0
 42
2.5
  3
txt
  4

  0
ENDTAB
  0
TABLE
  2
VIEW
  5
6
330
0
100
AcDbSymbolTable
 70
     0
  0
ENDTAB
  0
TABLE
  2
UCS
  5
7
330
0
100
AcDbSymbolTable
 70
     0
  0
ENDTAB
  0
TABLE
  2
APPID
  5
9
330
0
100
AcDbSymbolTable
 70
     2
  0
APPID
  5
12
330
9
100
AcDbSymbolTableRecord
100
AcDbRegAppTableRecord
  2
ACAD
 70
     0
  0
ENDTAB
  0
TABLE
  2
DIMSTYLE
  5
A
330
0
100
AcDbSymbolTable
 70
     1
  0
DIMSTYLE
105
27
330
A
100
AcDbSymbolTableRecord
100
AcDbDimStyleTableRecord
  2
ISO-25
 70
     0
  3

  4

  5

  6

  7

 40
1.0
 41
2.5
 42
0.625
 43
3.75
 44
1.25
 45
0.0
 46
0.0
 47
0.0
 48
0.0
140
2.5
141
2.5
142
0.0
143
0.03937007874016
144
1.0
145
0.0
146
1.0
147
0.625
 71
     0
 72
     0
 73
     0
 74
     0
 75
     0
 76
     0
 77
     1
 78
     8
170
     0
171
     3
172
     1
173
     0
174
     0
175
     0
176
     0
177
     0
178
     0
270
     2
271
     2
272
     2
273
     2
274
     3
340
11
275
     0
280
     0
281
     0
282
     0
283
     0
284
     8
285
     0
286
     0
287
     3
288
     0
  0
ENDTAB
  0
TABLE
  2
BLOCK_RECORD
  5
1
330
0
100
AcDbSymbolTable
 70
     1
  0
BLOCK_RECORD
  5
1F
330
1
100
AcDbSymbolTableRecord
100
AcDbBlockTableRecord
  2
*MODEL_SPACE
  0
BLOCK_RECORD
  5
1B
330
1
100
AcDbSymbolTableRecord
100
AcDbBlockTableRecord
  2
*PAPER_SPACE
  0
ENDTAB
  0
ENDSEC
  0
SECTION
  2
BLOCKS
  0
BLOCK
  5
20
330
1F
100
AcDbEntity
  8
0
100
AcDbBlockBegin
  2
*MODEL_SPACE
 70
     0
 10
0.0
 20
0.0
 30
0.0
  3
*MODEL_SPACE
  1

  0
ENDBLK
  5
21
330
1F
100
AcDbEntity
  8
0
100
AcDbBlockEnd
  0
BLOCK
  5
1C
330
1B
100
AcDbEntity
 67
     1
  8
0
100
AcDbBlockBegin
  2
*PAPER_SPACE
  1

  0
ENDBLK
  5
1D
330
1B
100
AcDbEntity
 67
     1
  8
0
100
AcDbBlockEnd
  0
ENDSEC
  0
SECTION
  2
ENTITIES
  0
LWPOLYLINE
  5
100
100
AcDbEntity
  8
0
 62
7
100
AcDbPolyline
 90
121
 70
1
 10
115.729716
 20
197.494028
 30
0.0
 10
136.889384
 20
190.618835
 30
0.0
 10
137.481662
 20
190.326410
 30
0.0
 10
137.966066
 20
189.877348
 30
0.0
 10
138.302447
 20
189.308886
 30
0.0
 10
138.474590
 20
188.436986
 30
0.0
 10
138.474590
 20
173.248997
 30
0.0
 10
147.401865
 20
185.536337
 30
0.0
 10
147.863002
 20
186.009261
 30
0.0
 10
148.439772
 20
186.331193
 30
0.0
 10
149.084358
 20
186.475444
 30
0.0
 10
149.966781
 20
186.369730
 30
0.0
 10
171.126454
 20
179.494537
 30
0.0
 10
171.718729
 20
179.202112
 30
0.0
 10
172.203134
 20
178.753050
 30
0.0
 10
172.539514
 20
178.184588
 30
0.0
 10
172.711660
 20
177.312688
 30
0.0
 10
172.711660
 20
156.730880
 30
0.0
 10
192.286123
 20
150.370749
 30
0.0
 10
192.465299
 20
150.282286
 30
0.0
 10
192.653401
 20
150.214936
 30
0.0
 10
192.759925
 20
150.136818
 30
0.0
 10
192.878398
 20
150.078324
 30
0.0
 10
193.024943
 20
149.942471
 30
0.0
 10
193.186055
 20
149.824321
 30
0.0
 10
193.265914
 20
149.719083
 30
0.0
 10
193.362802
 20
149.629265
 30
0.0
 10
193.464558
 20
149.457304
 30
0.0
 10
193.585341
 20
149.298133
 30
0.0
 10
193.605872
 20
149.218483
 30
0.0
 10
193.699178
 20
149.060802
 30
0.0
 10
193.871321
 20
148.188902
 30
0.0
 10
193.871321
 20
125.940307
 30
0.0
 10
193.776230
 20
125.286656
 30
0.0
 10
193.498843
 20
124.687192
 30
0.0
 10
193.062148
 20
124.191609
 30
0.0
 10
192.502353
 20
123.840994
 30
0.0
 10
192.366421
 20
123.803294
 30
0.0
 10
192.286115
 20
123.758471
 30
0.0
 10
177.841484
 20
119.065122
 30
0.0
 10
192.286115
 20
114.371779
 30
0.0
 10
192.878390
 20
114.079353
 30
0.0
 10
193.362797
 20
113.630292
 30
0.0
 10
193.699178
 20
113.061829
 30
0.0
 10
193.871321
 20
112.189929
 30
0.0
 10
193.871321
 20
89.941337
 30
0.0
 10
193.776230
 20
89.287683
 30
0.0
 10
193.498843
 20
88.688220
 30
0.0
 10
193.062148
 20
88.192639
 30
0.0
 10
192.286115
 20
87.759487
 30
0.0
 10
172.711652
 20
81.399356
 30
0.0
 10
172.711652
 20
60.817548
 30
0.0
 10
172.616561
 20
60.163898
 30
0.0
 10
172.339175
 20
59.564434
 30
0.0
 10
171.902480
 20
59.068851
 30
0.0
 10
171.126446
 20
58.635702
 30
0.0
 10
149.966775
 20
51.760504
 30
0.0
 10
149.315731
 20
51.648953
 30
0.0
 10
148.659887
 20
51.727521
 30
0.0
 10
148.053618
 20
51.989699
 30
0.0
 10
147.401859
 20
52.593896
 30
0.0
 10
138.474585
 20
64.881236
 30
0.0
 10
138.474585
 20
49.693251
 30
0.0
 10
138.379494
 20
49.039600
 30
0.0
 10
138.102107
 20
48.440136
 30
0.0
 10
137.665410
 20
47.944553
 30
0.0
 10
136.889379
 20
47.511401
 30
0.0
 10
115.729710
 20
40.636209
 30
0.0
 10
115.078666
 20
40.524658
 30
0.0
 10
114.422825
 20
40.603228
 30
0.0
 10
113.816553
 20
40.865404
 30
0.0
 10
113.164795
 20
41.469601
 30
0.0
 10
101.067113
 20
58.120637
 30
0.0
 10
81.492643
 20
51.760504
 30
0.0
 10
80.841599
 20
51.648953
 30
0.0
 10
80.185755
 20
51.727521
 30
0.0
 10
79.579486
 20
51.989699
 30
0.0
 10
78.927727
 20
52.593896
 30
0.0
 10
65.850331
 20
70.593389
 30
0.0
 10
65.543054
 20
71.178097
 30
0.0
 10
65.415112
 20
71.826117
 30
0.0
 10
65.477107
 20
72.483734
 30
0.0
 10
65.850331
 20
73.290300
 30
0.0
 10
74.777605
 20
85.577638
 30
0.0
 10
60.332975
 20
80.884294
 30
0.0
 10
59.681930
 20
80.772741
 30
0.0
 10
59.026086
 20
80.851312
 30
0.0
 10
58.419817
 20
81.113490
 30
0.0
 10
57.768059
 20
81.717687
 30
0.0
 10
44.690662
 20
99.717177
 30
0.0
 10
44.383386
 20
100.301888
 30
0.0
 10
44.255444
 20
100.949908
 30
0.0
 10
44.317438
 20
101.607525
 30
0.0
 10
44.690662
 20
102.414091
 30
0.0
 10
56.788349
 20
119.065122
 30
0.0
 10
44.690662
 20
135.716158
 30
0.0
 10
44.383386
 20
136.300866
 30
0.0
 10
44.255444
 20
136.948886
 30
0.0
 10
44.317438
 20
137.606503
 30
0.0
 10
44.690662
 20
138.413069
 30
0.0
 10
57.768059
 20
156.412562
 30
0.0
 10
58.229193
 20
156.885487
 30
0.0
 10
58.805966
 20
157.207413
 30
0.0
 10
59.450552
 20
157.351669
 30
0.0
 10
60.332975
 20
157.245955
 30
0.0
 10
74.777605
 20
152.552609
 30
0.0
 10
65.850331
 20
164.839949
 30
0.0
 10
65.543054
 20
165.424657
 30
0.0
 10
65.415112
 20
166.072677
 30
0.0
 10
65.477107
 20
166.730294
 30
0.0
 10
65.850331
 20
167.536860
 30
0.0
 10
78.927727
 20
185.536348
 30
0.0
 10
79.388862
 20
186.009272
 30
0.0
 10
79.965635
 20
186.331204
 30
0.0
 10
80.610221
 20
186.475455
 30
0.0
 10
81.492643
 20
186.369740
 30
0.0
 10
101.067113
 20
180.009610
 30
0.0
 10
113.164795
 20
196.660646
 30
0.0
 10
113.625932
 20
197.133570
 30
0.0
 10
114.202702
 20
197.455499
 30
0.0
 10
114.847288
 20
197.599752
 30
0.0
  0
LWPOLYLINE
  5
101
100
AcDbEntity
  8
0
 62
7
100
AcDbPolyline
 90
5
 70
1
 10
104.779096
 20
60.817538
 30
0.0
 10
115.897070
 20
45.514959
 30
0.0
 10
133.886329
 20
51.360025
 30
0.0
 10
133.886329
 20
70.275048
 30
0.0
 10
115.897070
 20
76.120114
 30
0.0
  0
LWPOLYLINE
  5
102
100
AcDbEntity
  8
0
 62
7
100
AcDbPolyline
 90
5
 70
1
 10
70.542028
 20
71.941833
 30
0.0
 10
81.660003
 20
56.639254
 30
0.0
 10
99.649264
 20
62.484320
 30
0.0
 10
99.649264
 20
81.399346
 30
0.0
 10
81.660003
 20
87.244412
 30
0.0
  0
LWPOLYLINE
  5
103
100
AcDbEntity
  8
0
 62
7
100
AcDbPolyline
 90
5
 70
1
 10
139.016161
 20
71.941833
 30
0.0
 10
150.134135
 20
56.639254
 30
0.0
 10
168.123396
 20
62.484320
 30
0.0
 10
168.123396
 20
81.399346
 30
0.0
 10
150.134135
 20
87.244412
 30
0.0
  0
LWPOLYLINE
  5
104
100
AcDbEntity
  8
0
 62
7
100
AcDbPolyline
 90
4
 70
1
 10
104.237528
 20
82.320725
 30
0.0
 10
104.237528
 20
67.878142
 30
0.0
 10
112.726661
 20
79.562431
 30
0.0
 10
112.726661
 20
94.005014
 30
0.0
  0
LWPOLYLINE
  5
105
100
AcDbEntity
  8
0
 62
7
100
AcDbPolyline
 90
5
 70
1
 10
117.314922
 20
99.398839
 30
0.0
 10
117.314922
 20
80.483811
 30
0.0
 10
135.304183
 20
74.638744
 30
0.0
 10
146.422158
 20
89.941323
 30
0.0
 10
135.304183
 20
105.243905
 30
0.0
  0
LWPOLYLINE
  5
106
100
AcDbEntity
  8
0
 62
7
100
AcDbPolyline
 90
5
 70
1
 10
49.382357
 20
101.065624
 30
0.0
 10
60.500331
 20
85.763042
 30
0.0
 10
78.489593
 20
91.608111
 30
0.0
 10
78.489593
 20
110.523131
 30
0.0
 10
60.500331
 20
116.368200
 30
0.0
  0
LWPOLYLINE
  5
107
100
AcDbEntity
  8
0
 62
7
100
AcDbPolyline
 90
5
 70
1
 10
83.077854
 20
110.523131
 30
0.0
 10
83.077854
 20
91.608111
 30
0.0
 10
101.067119
 20
85.763042
 30
0.0
 10
112.185093
 20
101.065624
 30
0.0
 10
101.067119
 20
116.368200
 30
0.0
  0
LWPOLYLINE
  5
108
100
AcDbEntity
  8
0
 62
7
100
AcDbPolyline
 90
5
 70
1
 10
160.175832
 20
101.065624
 30
0.0
 10
171.293806
 20
85.763042
 30
0.0
 10
189.283065
 20
91.608111
 30
0.0
 10
189.283065
 20
110.523131
 30
0.0
 10
171.293806
 20
116.368200
 30
0.0
  0
LWPOLYLINE
  5
109
100
AcDbEntity
  8
0
 62
7
100
AcDbPolyline
 90
4
 70
1
 10
150.675705
 20
91.892832
 30
0.0
 10
164.411417
 20
87.429829
 30
0.0
 10
155.922284
 20
99.114118
 30
0.0
 10
142.186573
 20
103.577120
 30
0.0
  0
LWPOLYLINE
  5
10a
100
AcDbEntity
  8
0
 62
7
100
AcDbPolyline
 90
5
 70
1
 10
104.779096
 20
119.065111
 30
0.0
 10
115.897070
 20
103.762535
 30
0.0
 10
133.886329
 20
109.607601
 30
0.0
 10
133.886329
 20
128.522624
 30
0.0
 10
115.897070
 20
134.367691
 30
0.0
  0
LWPOLYLINE
  5
10b
100
AcDbEntity
  8
0
 62
7
100
AcDbPolyline
 90
5
 70
1
 10
138.474590
 20
128.522624
 30
0.0
 10
138.474590
 20
109.607601
 30
0.0
 10
156.463854
 20
103.762535
 30
0.0
 10
167.581829
 20
119.065111
 30
0.0
 10
156.463854
 20
134.367691
 30
0.0
  0
LWPOLYLINE
  5
10c
100
AcDbEntity
  8
0
 62
7
100
AcDbPolyline
 90
4
 70
1
 10
67.048015
 20
119.065111
 30
0.0
 10
80.783724
 20
114.602109
 30
0.0
 10
94.519432
 20
119.065111
 30
0.0
 10
80.783724
 20
123.528116
 30
0.0
  0
LWPOLYLINE
  5
10d
100
AcDbEntity
  8
0
 62
7
100
AcDbPolyline
 90
5
 70
1
 10
49.382357
 20
137.064602
 30
0.0
 10
60.500331
 20
121.762023
 30
0.0
 10
78.489593
 20
127.607089
 30
0.0
 10
78.489593
 20
146.522115
 30
0.0
 10
60.500331
 20
152.367184
 30
0.0
  0
LWPOLYLINE
  5
10e
100
AcDbEntity
  8
0
 62
7
100
AcDbPolyline
 90
5
 70
1
 10
83.077854
 20
146.522115
 30
0.0
 10
83.077854
 20
127.607089
 30
0.0
 10
101.067119
 20
121.762023
 30
0.0
 10
112.185093
 20
137.064602
 30
0.0
 10
101.067119
 20
152.367184
 30
0.0
  0
LWPOLYLINE
  5
10f
100
AcDbEntity
  8
0
 62
7
100
AcDbPolyline
 90
5
 70
1
 10
160.175832
 20
137.064602
 30
0.0
 10
171.293806
 20
121.762023
 30
0.0
 10
189.283065
 20
127.607089
 30
0.0
 10
189.283065
 20
146.522115
 30
0.0
 10
171.293806
 20
152.367184
 30
0.0
  0
LWPOLYLINE
  5
110
100
AcDbEntity
  8
0
 62
7
100
AcDbPolyline
 90
5
 70
1
 10
117.314922
 20
157.646415
 30
0.0
 10
117.314922
 20
138.731390
 30
0.0
 10
135.304183
 20
132.886320
 30
0.0
 10
146.422158
 20
148.188902
 30
0.0
 10
135.304183
 20
163.491482
 30
0.0
  0
LWPOLYLINE
  5
111
100
AcDbEntity
  8
0
 62
7
100
AcDbPolyline
 90
4
 70
1
 10
150.675705
 20
146.237394
 30
0.0
 10
142.186573
 20
134.553105
 30
0.0
 10
155.922284
 20
139.016110
 30
0.0
 10
164.411417
 20
150.700396
 30
0.0
  0
LWPOLYLINE
  5
112
100
AcDbEntity
  8
0
 62
7
100
AcDbPolyline
 90
4
 70
1
 10
104.237528
 20
155.809500
 30
0.0
 10
112.726660
 20
144.125212
 30
0.0
 10
112.726660
 20
158.567792
 30
0.0
 10
104.237528
 20
170.252078
 30
0.0
  0
LWPOLYLINE
  5
113
100
AcDbEntity
  8
0
 62
7
100
AcDbPolyline
 90
5
 70
1
 10
70.542028
 20
166.188393
 30
0.0
 10
81.660003
 20
150.885813
 30
0.0
 10
99.649264
 20
156.730880
 30
0.0
 10
99.649264
 20
175.645903
 30
0.0
 10
81.660003
 20
181.490969
 30
0.0
  0
LWPOLYLINE
  5
114
100
AcDbEntity
  8
0
 62
7
100
AcDbPolyline
 90
5
 70
1
 10
139.016161
 20
166.188393
 30
0.0
 10
150.134135
 20
150.885813
 30
0.0
 10
168.123396
 20
156.730880
 30
0.0
 10
168.123396
 20
175.645903
 30
0.0
 10
150.134135
 20
181.490969
 30
0.0
  0
LWPOLYLINE
  5
115
100
AcDbEntity
  8
0
 62
7
100
AcDbPolyline
 90
5
 70
1
 10
104.779096
 20
177.312688
 30
0.0
 10
115.897070
 20
162.010109
 30
0.0
 10
133.886329
 20
167.855175
 30
0.0
 10
133.886329
 20
186.770200
 30
0.0
 10
115.897070
 20
192.615267
 30
0.0
  0
ENDSEC
  0
SECTION
  2
OBJECTS
  0
DICTIONARY
  5
C
330
0
100
AcDbDictionary
  3
ACAD_GROUP
350
D
  3
ACAD_MLINESTYLE
350
17
  0
DICTIONARY
  5
D
330
C
100
AcDbDictionary
  0
DICTIONARY
  5
1A
330
C
100
AcDbDictionary
  0
DICTIONARY
  5
17
330
C
100
AcDbDictionary
  3
STANDARD
350
18
  0
DICTIONARY
  5
19
330
C
100
AcDbDictionary
  0
ENDSEC
  0
EOF
