<?xml version="1.0" encoding="UTF-8" standalone="no"?>
<svg
   version="1.1"
   width="238.125mm"
   height="238.125mm"
   id="svg4"
   sodipodi:docname="quad01b.svg"
   inkscape:version="1.3 (0e150ed, 2023-07-21)"
   xmlns:inkscape="http://www.inkscape.org/namespaces/inkscape"
   xmlns:sodipodi="http://sodipodi.sourceforge.net/DTD/sodipodi-0.dtd"
   xmlns="http://www.w3.org/2000/svg"
   xmlns:svg="http://www.w3.org/2000/svg">
  <sodipodi:namedview
     id="namedview4"
     pagecolor="#505050"
     bordercolor="#eeeeee"
     borderopacity="1"
     inkscape:showpageshadow="0"
     inkscape:pageopacity="0"
     inkscape:pagecheckerboard="0"
     inkscape:deskcolor="#d1d1d1"
     inkscape:zoom="0.89333333"
     inkscape:cx="516.04478"
     inkscape:cy="450"
     inkscape:window-width="1920"
     inkscape:window-height="1044"
     inkscape:window-x="1920"
     inkscape:window-y="0"
     inkscape:window-maximized="1"
     inkscape:current-layer="svg4"
     inkscape:document-units="mm" />
  <defs
     id="defs1" />
  <path
     fill="#222222"
     stroke="#cccccc"
     paint-order="fill stroke markers"
     d="m 228.00397,34.97566 1.58562,0.68569 1.70459,1.5802 16.79312,23.11376 27.17186,-8.82868 0.66305,-0.11361 0.65436,-0.156 0.19391,0.01066 0.1914,-0.0328 0.66794,0.08002 0.67168,0.03691 0.18283,0.06546 0.19282,0.0231 0.61744,0.26701 0.63334,0.22676 0.1566,0.11484 0.17824,0.07708 0.27688,0.25667 0.78137,0.57301 0.38727,0.51036 0.25907,0.24016 16.79313,23.11376 27.17186,-8.82867 1.70272,-0.29175 1.71527,0.20549 1.58562,0.68569 1.70459,1.5802 16.79312,23.11376 27.17186,-8.82868 1.70272,-0.29175 1.71527,0.20549 1.58562,0.68569 1.70459,1.5802 19.35544,26.64047 0.80364,1.52922 0.33462,1.69482 -0.16214,1.71991 -0.97612,2.10947 -8.50134,11.70108 13.75545,-4.46941 0.66305,-0.11361 0.65436,-0.156 0.19391,0.0107 0.1914,-0.0328 0.66794,0.08 0.67168,0.0369 0.18283,0.0655 0.19282,0.0231 0.61744,0.26701 0.63334,0.22676 0.1566,0.11484 0.17824,0.0771 0.27688,0.25667 0.78137,0.57301 0.38727,0.51036 0.25907,0.24016 19.35544,26.64047 0.17305,0.3293 0.22489,0.29636 0.0666,0.25828 0.33911,0.64528 0.33462,1.69482 -0.0188,0.19993 0.0265,0.10274 -0.10277,0.70644 -0.067,0.7108 -0.0531,0.11472 -0.0258,0.17758 -0.72547,1.56782 -0.11866,0.13466 -0.0531,0.11469 -16.79313,23.11376 16.79313,23.11376 0.17305,0.3293 0.22489,0.29636 0.0666,0.25828 0.33911,0.64528 0.33462,1.69482 -0.0188,0.19993 0.0265,0.10274 -0.10277,0.70644 -0.067,0.7108 -0.0531,0.11472 -0.0258,0.17758 -0.72547,1.56782 -0.11866,0.13466 -0.0531,0.11469 -16.79313,23.11376 16.79313,23.11376 0.17305,0.3293 0.22489,0.29636 0.0666,0.25828 0.33911,0.64528 0.33462,1.69482 -0.0188,0.19993 0.0265,0.10274 -0.10277,0.70644 -0.067,0.7108 -0.0531,0.11472 -0.0258,0.17758 -0.72547,1.56782 -0.11866,0.13466 -0.0531,0.11469 -16.79313,23.11376 16.79313,23.11376 0.80364,1.52922 0.33462,1.69482 -0.16214,1.71991 -0.97612,2.10947 -19.35544,26.64047 -1.20604,1.23687 -1.50847,0.84197 -1.68583,0.37727 -2.30786,-0.27648 -13.75545,-4.46941 8.50134,11.70108 0.80364,1.52922 0.33462,1.69482 -0.16214,1.71991 -0.97612,2.10947 -19.35544,26.64047 -1.20604,1.23687 -1.50847,0.84197 -1.68583,0.37727 -2.30786,-0.27648 -27.17186,-8.82868 -16.79312,23.11376 -0.49837,0.51111 -0.47202,0.53567 -0.12921,0.0809 -0.10644,0.10916 -0.62337,0.34794 -0.60505,0.37896 -0.14693,0.0408 -0.13311,0.0743 -0.69666,0.15591 -0.68796,0.19086 -0.15242,-0.003 -0.1488,0.0333 -0.35491,-0.0425 -1.07111,-0.0196 -0.55055,-0.17467 -0.33129,-0.0397 -27.17186,-8.82867 -16.79313,23.11376 -0.49837,0.51111 -0.47202,0.53567 -0.12921,0.0809 -0.10644,0.10916 -0.6234,0.34796 -0.60502,0.37894 -0.14691,0.0408 -0.13314,0.0743 -0.69674,0.15592 -0.68787,0.19084 -0.15242,-0.003 -0.1488,0.0333 -0.35491,-0.0425 -1.07111,-0.0196 -0.55055,-0.17467 -0.33129,-0.0397 -27.17186,-8.82868 -16.79312,23.11376 -1.20604,1.23687 -1.50846,0.84196 -1.68584,0.37728 -2.30786,-0.27648 -31.31775,-10.17575 -1.54902,-0.7648 -1.2669,-1.17446 -0.87976,-1.48674 -0.45022,-2.28034 v -14.46334 l -8.50134,11.70109 -1.20604,1.23687 -1.50847,0.84197 -1.68583,0.37727 -2.30786,-0.27648 -31.31775,-10.17576 -1.54902,-0.7648 -1.2669,-1.17446 -0.87976,-1.48674 -0.45022,-2.28034 v -28.57017 l -27.17185,-8.82867 -0.37073,-0.18304 -0.39408,-0.12503 -0.37637,-0.25537 -0.40784,-0.20136 -0.30319,-0.28107 -0.34214,-0.23214 -0.28803,-0.35205 -0.33354,-0.3092 -0.21054,-0.35581 -0.26181,-0.31999 -0.17577,-0.41949 -0.23164,-0.39145 -0.0602,-0.30513 -0.19998,-0.47725 -0.12845,-1.18621 -0.0615,-0.31175 v -28.57018 l -27.17185,-8.82867 -0.37073,-0.18304 -0.39408,-0.12503 -0.37637,-0.25537 -0.40784,-0.20136 -0.30319,-0.28107 -0.34214,-0.23214 -0.28803,-0.35205 -0.33354,-0.3092 -0.21054,-0.35581 -0.26181,-0.31999 -0.17577,-0.41949 -0.23164,-0.39145 -0.06024,-0.30513 -0.19998,-0.47725 -0.12845,-1.18621 -0.06155,-0.31175 v -28.57017 l -27.17185,-8.82867 -1.54902,-0.7648 -1.2669,-1.17446 -0.87976,-1.48674 -0.45022,-2.28034 V 250.0049 l 0.2487,-1.70954 0.72547,-1.56782 1.14212,-1.29613 2.02961,-1.13285 13.75543,-4.46941 -13.75543,-4.46941 -0.37073,-0.18304 -0.39408,-0.12503 -0.37637,-0.25537 -0.40784,-0.20136 -0.30319,-0.28107 -0.34214,-0.23214 -0.28803,-0.35205 -0.33354,-0.3092 -0.21054,-0.35581 -0.26181,-0.31999 -0.17577,-0.41949 -0.23164,-0.39145 -0.06024,-0.30513 -0.19998,-0.47725 -0.12845,-1.18621 -0.06155,-0.31175 v -32.92944 l 0.01593,-0.10952 -0.01191,-0.11001 0.13597,-0.74274 0.10871,-0.74727 0.04647,-0.10043 0.01993,-0.10886 0.34196,-0.67321 0.31711,-0.68532 0.07317,-0.083 0.05011,-0.0987 0.51954,-0.54782 0.4993,-0.56662 0.08092,-0.0452 0.08902,-0.0939 1.49664,-0.86281 0.22398,-0.0534 0.13905,-0.0776 27.17185,-8.82867 V 153.6191 l 0.01593,-0.10952 -0.01191,-0.11001 0.13597,-0.74274 0.10871,-0.74727 0.04647,-0.10043 0.01993,-0.10886 0.34196,-0.67321 0.31711,-0.68532 0.07317,-0.083 0.05011,-0.0987 0.51954,-0.54782 0.4993,-0.56662 0.08092,-0.0452 0.08902,-0.0939 1.49664,-0.86281 0.22398,-0.0534 0.13905,-0.0776 27.17185,-8.82867 v -28.57018 l 0.0159,-0.10952 -0.0119,-0.11001 0.13597,-0.74274 0.10871,-0.74727 0.0465,-0.10043 0.0199,-0.10886 0.34196,-0.67321 0.31711,-0.68532 0.0732,-0.083 0.0501,-0.0987 0.51954,-0.54782 0.4993,-0.56662 0.0809,-0.0452 0.089,-0.0939 1.49664,-0.86281 0.22398,-0.0534 0.13905,-0.0776 27.17185,-8.82867 V 67.40873 l 0.2487,-1.70954 0.72547,-1.56782 1.14212,-1.29613 2.02961,-1.13285 31.31775,-10.17576 1.70272,-0.29175 1.71527,0.20549 1.58562,0.68569 1.70459,1.5802 8.50134,11.70109 V 50.94401 l 0.2487,-1.70954 0.72547,-1.56782 1.14212,-1.29613 2.02961,-1.13285 31.31775,-10.17575 1.70272,-0.29175 z m -26.88164,365.16909 v 24.21092 l 23.02596,7.48159 14.23082,-19.58705 -14.23082,-19.58705 z m -50.67319,-16.46471 v 24.21092 l 23.02596,7.48159 14.23082,-19.58705 -14.23082,-19.58705 z m 81.99094,-0.0198 17.06363,23.48607 25.31776,8.22625 14.23082,-19.58705 -14.23082,-19.58705 -27.17186,8.82867 -0.55577,0.0952 -0.54335,0.15074 -0.30395,-0.006 -0.29965,0.0513 -0.55987,-0.0671 -0.56377,-0.0103 -0.28978,-0.0919 -0.30185,-0.0362 -0.51752,-0.2238 -0.5375,-0.17053 -0.25159,-0.17071 -0.27901,-0.12065 -0.27623,-0.25607 -0.62271,-0.42251 -0.52421,-0.64071 -0.28144,-0.26091 -8.50133,-11.70108 z m 101.34637,-30.97992 -0.2487,1.70954 -0.72547,1.56782 -1.14212,1.29613 -1.46407,0.91699 -0.35551,0.0986 -0.21003,0.11723 -27.17185,8.82867 v 24.21092 l 23.02596,7.48159 15.64722,-21.53656 v -29.03041 l -7.35543,-10.12388 z m -150.60315,16.46472 14.23082,19.58705 23.02596,-7.48159 v -24.21092 l -23.02596,-7.48159 z m 169.95858,-18.39442 v 24.21092 l 23.02596,7.48159 14.23082,-19.58705 -14.23082,-19.58705 z m -71.17452,-11.0083 -0.49837,0.51111 -0.47202,0.53567 -0.12921,0.0809 -0.10644,0.10916 -0.6234,0.34796 -0.60502,0.37894 -0.14691,0.0408 -0.13314,0.0743 -0.69674,0.15592 -0.68787,0.19084 -0.15242,-0.003 -0.1488,0.0333 -0.35491,-0.0425 -1.07111,-0.0196 -0.55055,-0.17467 -0.33129,-0.0397 -27.17186,-8.82868 -14.23082,19.58705 14.23082,19.58705 27.17186,-8.82867 0.66305,-0.11361 0.65436,-0.156 0.19391,0.0107 0.1914,-0.0328 0.66794,0.08 0.67168,0.0369 0.18283,0.0655 0.19282,0.0231 0.61744,0.26701 0.63334,0.22676 0.1566,0.11484 0.17824,0.0771 0.27688,0.25667 0.78137,0.57301 0.38727,0.51036 0.25907,0.24016 8.50134,11.70109 v -14.46334 l 0.0159,-0.10952 -0.0119,-0.11001 0.13597,-0.74274 0.10871,-0.74727 0.0465,-0.10043 0.0199,-0.10886 0.34196,-0.67321 0.31711,-0.68532 0.0732,-0.083 0.0501,-0.0987 0.51954,-0.54782 0.4993,-0.56662 0.0809,-0.0452 0.089,-0.0939 1.49664,-0.86281 0.22398,-0.0534 0.13905,-0.0776 27.17185,-8.82867 v -24.21092 l -23.02596,-7.48159 z m -162.83597,0.83254 v 24.21092 l 25.31775,8.22624 27.60955,-8.97089 7.35544,-10.12388 -13.75545,4.46941 -1.70272,0.29175 -1.71527,-0.20549 -1.58562,-0.68569 -1.70459,-1.5802 -16.79313,-23.11376 z m 1.41641,-57.64019 16.79313,23.11376 0.17305,0.3293 0.22489,0.29636 0.0666,0.25828 0.33911,0.64528 0.33462,1.69482 -0.0188,0.19993 0.0265,0.10274 -0.10277,0.70644 -0.067,0.7108 -0.0531,0.11472 -0.0258,0.17758 -0.72547,1.56782 -0.11866,0.13466 -0.0531,0.11469 -8.50133,11.70108 13.75544,-4.46942 1.70272,-0.29175 1.71527,0.20549 1.58562,0.68569 1.70459,1.5802 16.79313,23.11376 23.02596,-7.48159 v -24.21092 l -27.17185,-8.82867 -0.37073,-0.18304 -0.39408,-0.12503 -0.37637,-0.25537 -0.40784,-0.20136 -0.30319,-0.28107 -0.34214,-0.23214 -0.28803,-0.35205 -0.33354,-0.3092 -0.21054,-0.35581 -0.26181,-0.31999 -0.17577,-0.41949 -0.23164,-0.39145 -0.0602,-0.30513 -0.19998,-0.47725 -0.12845,-1.18621 -0.0616,-0.31175 V 270.8292 l -23.02596,-7.48159 z m 80.57453,28.58998 v 26.62066 l 23.02596,7.48159 15.64722,-21.53656 v -26.62066 l -23.02596,-7.48159 z m 134.08052,8.22624 14.23082,19.58705 23.02596,-7.48159 v -24.21092 l -23.02596,-7.48159 z m 49.25678,-12.10546 v 24.21092 l 23.02596,7.48159 14.23082,-19.58705 -14.23082,-19.58705 z M 104.87727,271.57385 87.81364,295.05992 v 26.62067 l 23.02596,7.48159 14.23082,-19.58705 -16.79313,-23.11376 -0.12208,-0.23231 -0.16619,-0.20312 -0.23386,-0.55811 -0.28151,-0.53568 -0.0508,-0.25748 -0.10142,-0.24205 -0.0651,-0.60161 -0.11721,-0.59368 0.0246,-0.26129 -0.0282,-0.26091 0.10896,-0.59521 0.0568,-0.6025 0.0885,-0.19129 0.0568,-0.3103 0.78235,-1.54022 0.0335,-0.0353 0.015,-0.0324 8.50134,-11.70109 z m 146.91824,-113.5955 v 28.57018 l -0.2487,1.70954 -0.72547,1.56782 -1.14212,1.29613 -2.02961,1.13285 -31.31775,10.17575 -1.70272,0.29175 -1.71527,-0.20549 -1.58562,-0.68569 -1.70459,-1.5802 -16.79312,-23.11376 -23.02596,7.48159 v 24.21092 l 27.17185,8.82867 1.54902,0.7648 1.2669,1.17446 0.87976,1.48674 0.45022,2.28034 v 32.92944 l -0.2487,1.70954 -0.72547,1.56782 -1.14212,1.29613 -2.02961,1.13285 -27.17185,8.82867 v 24.21092 l 23.02596,7.48159 16.79312,-23.11376 0.57439,-0.58907 0.56594,-0.59674 0.0364,-0.021 0.0293,-0.0301 0.71858,-0.40108 0.71235,-0.41067 0.0409,-0.01 0.0367,-0.0205 0.80274,-0.17965 0.80017,-0.19076 0.0419,0.002 0.041,-0.009 0.17622,0.0211 1.46578,0.0805 0.39897,0.14285 0.26689,0.032 31.31775,10.17575 0.46861,0.23137 0.49196,0.17614 0.2786,0.20431 0.30985,0.15298 0.38327,0.35531 0.42137,0.309 0.20886,0.27524 0.2534,0.23491 0.26613,0.44974 0.31589,0.41629 0.0537,0.20831 0.24403,0.4124 0.45022,2.28034 v 28.57018 l 23.02596,7.48159 14.23082,-19.58705 -16.79313,-23.11376 -0.12208,-0.23231 -0.16619,-0.20312 -0.23386,-0.55811 -0.28151,-0.53568 -0.0508,-0.25748 -0.10142,-0.24205 -0.0652,-0.60161 -0.11721,-0.59368 0.0246,-0.26129 -0.0283,-0.26091 0.10896,-0.59521 0.0568,-0.6025 0.0885,-0.19129 0.0568,-0.3103 0.78235,-1.54022 0.0335,-0.0353 0.015,-0.0324 19.35544,-26.64047 0.57439,-0.58907 0.56594,-0.59674 0.0364,-0.021 0.0294,-0.0301 0.7187,-0.40115 0.71223,-0.4106 0.0408,-0.01 0.0367,-0.0205 0.80301,-0.1797 0.79989,-0.1907 0.0419,0.002 0.041,-0.009 0.17622,0.0211 1.46578,0.0805 0.39897,0.14285 0.26689,0.032 27.17186,8.82867 14.23082,-19.58705 -14.23082,-19.58705 -27.17186,8.82867 -0.55577,0.0952 -0.54335,0.15074 -0.30395,-0.006 -0.29965,0.0513 -0.55987,-0.0671 -0.56377,-0.0103 -0.28978,-0.0919 -0.30185,-0.0362 -0.51752,-0.2238 -0.5375,-0.17053 -0.25159,-0.17071 -0.27901,-0.12065 -0.27623,-0.25607 -0.62271,-0.42251 -0.52421,-0.64071 -0.28144,-0.26091 -19.35544,-26.64047 -0.12208,-0.23231 -0.16619,-0.20312 -0.23386,-0.55811 -0.28151,-0.53568 -0.0508,-0.25748 -0.10142,-0.24205 -0.0652,-0.60161 -0.11721,-0.59368 0.0246,-0.26129 -0.0283,-0.26091 0.10896,-0.59521 0.0568,-0.6025 0.0885,-0.19129 0.0568,-0.3103 0.78235,-1.54022 0.0335,-0.0353 0.015,-0.0324 16.79313,-23.11376 -14.23082,-19.58705 z m 32.73416,124.95631 15.64723,21.53656 25.31776,8.22624 14.23082,-19.58705 -15.64723,-21.53656 -25.31776,-8.22624 z m 99.92996,-28.57018 v 28.57018 l -0.2487,1.70954 -0.72547,1.56782 -1.14212,1.29613 -2.02961,1.13285 -13.75543,4.46941 11.90133,3.86698 27.60955,-8.97089 15.64723,-21.53656 -14.23082,-19.58705 z m -327.96374,0 v 24.21092 l 23.02596,7.48159 14.23082,-19.58705 -14.23082,-19.58705 z m 278.70696,-41.17548 16.79313,23.11376 0.17305,0.3293 0.22489,0.29636 0.0666,0.25829 0.33911,0.64528 0.33462,1.69481 -0.0188,0.19993 0.0265,0.10274 -0.10277,0.70644 -0.067,0.7108 -0.0531,0.11472 -0.0258,0.17758 -0.72547,1.56782 -0.11866,0.13466 -0.0531,0.11469 -16.79313,23.11376 14.23082,19.58705 23.02596,-7.48159 v -28.57018 l 0.2487,-1.70954 0.72547,-1.56782 1.14212,-1.29613 2.02961,-1.13285 13.75543,-4.46941 -13.75543,-4.46941 -1.54902,-0.7648 -1.2669,-1.17446 -0.87976,-1.48674 -0.45022,-2.28034 v -28.57018 l -23.02596,-7.48159 z m -196.71602,14.53501 v 24.21092 l 25.31775,8.22624 25.31775,-8.22624 v -24.21092 l -25.31775,-8.22624 z m -49.25679,12.10546 14.23082,19.58705 23.02597,-7.48159 v -24.21092 l -23.02597,-7.48159 z M 56.49589,201.08354 v 24.21092 L 79.52185,232.77605 93.75267,213.189 79.52185,193.60195 Z m 310.06241,-14.53501 13.75543,4.46941 1.54902,0.7648 1.2669,1.17446 0.87976,1.48674 0.45022,2.28034 v 28.57018 l 23.02596,7.48159 14.23082,-19.58705 -15.64723,-21.53656 -27.60955,-8.97089 z m -217.25506,-29.40272 -0.49837,0.51111 -0.47202,0.53567 -0.12921,0.0809 -0.10644,0.10916 -0.6234,0.34796 -0.60502,0.37894 -0.14691,0.0408 -0.13314,0.0743 -0.69674,0.15592 -0.68787,0.19084 -0.15242,-0.003 -0.1488,0.0333 -0.35491,-0.0425 -1.07111,-0.0196 -0.55055,-0.17467 -0.33129,-0.0397 -13.75544,-4.46942 8.50133,11.70108 0.17305,0.3293 0.22489,0.29636 0.0666,0.25828 0.33911,0.64528 0.33462,1.69482 -0.0188,0.19993 0.0265,0.10274 -0.10277,0.70644 -0.067,0.7108 -0.0531,0.11472 -0.0258,0.17758 -0.72547,1.56782 -0.11866,0.13466 -0.0531,0.11469 -16.79313,23.11376 14.23082,19.58705 23.02596,-7.48159 v -28.57017 l 0.2487,-1.70954 0.72547,-1.56782 1.14212,-1.29613 2.02961,-1.13285 27.17185,-8.82867 v -24.21092 l -23.02596,-7.48159 z m 150.87366,18.04191 -15.64723,21.53656 14.23082,19.58705 25.31776,-8.22624 15.64723,-21.53656 -14.23082,-19.58705 z M 87.81364,157.97835 v 26.62067 l 17.06363,23.48607 11.90136,3.86699 -8.50134,-11.70109 -0.12208,-0.23231 -0.16619,-0.20312 -0.23386,-0.55811 -0.28151,-0.53568 -0.0508,-0.25748 -0.10142,-0.24205 -0.0651,-0.60161 -0.11721,-0.59368 0.0246,-0.26129 -0.0282,-0.26091 0.10896,-0.59521 0.0568,-0.6025 0.0885,-0.19129 0.0568,-0.3103 0.78235,-1.54022 0.0335,-0.0353 0.015,-0.0324 16.79313,-23.11376 -14.23082,-19.58705 z m 113.30869,-16.46471 v 26.62066 l 15.64722,21.53656 23.02596,-7.48159 v -26.62066 l -15.64722,-21.53656 z m 134.08052,18.39442 14.23082,19.58705 23.02596,-7.48159 V 147.8026 l -23.02596,-7.48159 z m 49.25678,-12.10546 v 24.21092 l 23.02596,7.48159 14.23082,-19.58705 -14.23082,-19.58705 z m -102.49227,-33.76198 -0.49837,0.51111 -0.47202,0.53567 -0.12921,0.0809 -0.10644,0.10916 -0.6234,0.34796 -0.60502,0.37894 -0.14691,0.0408 -0.13314,0.0743 -0.69674,0.15592 -0.68787,0.19084 -0.15242,-0.003 -0.1488,0.0333 -0.35491,-0.0425 -1.07111,-0.0196 -0.55055,-0.17467 -0.33129,-0.0397 -27.17186,-8.82867 -14.23082,19.58705 14.23082,19.58705 27.17186,-8.82868 1.70272,-0.29175 1.71527,0.20549 1.58562,0.68569 1.70459,1.5802 16.79313,23.11376 23.02596,-7.48159 v -24.21092 l -27.17185,-8.82867 -1.54902,-0.7648 -1.2669,-1.17446 -0.87976,-1.48674 -0.45022,-2.28034 v -14.46334 z m -162.83597,0.83255 v 24.21092 l 23.02596,7.48159 16.79313,-23.11376 0.57439,-0.58907 0.56594,-0.59674 0.0364,-0.021 0.0293,-0.0301 0.7187,-0.40115 0.71223,-0.4106 0.0408,-0.01 0.0367,-0.0205 0.80301,-0.1797 0.79989,-0.1907 0.0419,0.002 0.041,-0.009 0.17622,0.0211 1.46578,0.0806 0.39897,0.14285 0.26689,0.032 13.75545,4.46941 -7.35544,-10.12388 -27.60955,-8.97089 z M 302.4687,88.2327 v 24.21092 l 27.17185,8.82867 1.54902,0.7648 1.2669,1.17446 0.87976,1.48674 0.45022,2.28034 v 14.46333 l 7.35543,-10.12388 V 102.28767 L 325.49466,80.75111 Z m 50.67318,16.46471 v 24.21092 l 23.02596,7.48159 14.23082,-19.58705 -14.23082,-19.58705 z m -169.95858,5.8165 14.23082,19.58705 23.02596,-7.48159 V 98.40845 l -23.02596,-7.48159 z m 66.32041,-38.00127 -17.06363,23.48607 v 12.51382 l 8.50133,-11.70108 0.57439,-0.58907 0.56594,-0.59674 0.0364,-0.02096 0.0293,-0.0301 0.71858,-0.40108 0.71235,-0.41067 0.0409,-0.0097 0.0367,-0.02047 0.80274,-0.17965 0.80017,-0.19076 0.0419,0.0023 0.041,-0.0092 0.17622,0.02111 1.46578,0.08055 0.39897,0.14285 0.26689,0.03197 27.17186,8.82867 L 289.05232,83.87345 274.8215,64.2864 Z M 150.44914,71.76798 V 95.9789 l 23.02596,7.48159 14.23082,-19.58705 -14.23082,-19.58705 z m 50.67319,-16.46471 v 24.21092 l 23.02596,7.48159 14.23082,-19.58705 -14.23082,-19.58705 z"
     stroke-miterlimit="10"
     id="path1" />
  <path
     fill="#222222"
     stroke="#cccccc"
     paint-order="fill stroke markers"
     d="m 684.36448,36.90013 1.58562,0.68569 1.70459,1.5802 17.40162,23.95128 0.80364,1.52923 0.33462,1.69481 -0.0233,0.2473 0.90204,-1.02368 2.02961,-1.13285 28.15642,-9.14857 1.70272,-0.29175 1.71527,0.20549 1.58562,0.68569 1.70459,1.5802 17.40162,23.95128 0.19232,0.36597 0.24534,0.3328 0.1544,0.42785 0.21158,0.40261 0.0801,0.40559 0.14035,0.38892 0.0261,0.45409 0.0881,0.44621 -0.0388,0.41164 0.0237,0.41275 -0.10436,0.44266 -0.0427,0.45286 -0.15448,0.38351 -0.0949,0.40241 -0.25232,0.45952 -0.1438,0.35698 -0.16872,0.21216 -0.16193,0.29489 -14.83932,20.42457 12.27701,16.89786 24.01053,-7.80149 1.70272,-0.29175 1.71527,0.20549 1.58562,0.68569 1.70459,1.5802 17.40162,23.95128 0.80364,1.52923 0.33462,1.69481 -0.16214,1.71991 -0.97612,2.10947 -14.83932,20.42457 12.27701,16.89786 24.01053,-7.8015 1.70272,-0.29175 1.71527,0.20549 1.58562,0.68569 1.70459,1.5802 17.40163,23.95128 0.80364,1.52922 0.33462,1.69482 -0.16214,1.71991 -0.97612,2.10947 -17.40163,23.95129 -1.20604,1.23687 -1.50847,0.84196 -0.24241,0.0542 1.25233,0.54156 1.70459,1.5802 17.40163,23.95128 0.80364,1.52922 0.33462,1.69482 -0.16214,1.71991 -0.97612,2.10947 -17.40163,23.95128 -1.20604,1.23687 -1.50847,0.84197 -1.68583,0.37727 -2.30786,-0.27648 -24.01053,-7.8015 -12.27701,16.89787 14.83932,20.42457 0.80364,1.52923 0.33462,1.69481 -0.16214,1.71991 -0.97612,2.10947 -17.40162,23.95128 -1.20604,1.23687 -1.50846,0.84196 -1.68584,0.37728 -2.30786,-0.27648 -24.01053,-7.8015 -12.27701,16.89786 14.83932,20.42457 0.80364,1.52923 0.33462,1.69481 -0.16214,1.71991 -0.97612,2.10947 -17.40162,23.95129 -1.20604,1.23687 -1.50846,0.84196 -1.68584,0.37728 -2.30786,-0.27648 -28.15642,-9.14858 -1.54902,-0.7648 -1.2669,-1.17446 -0.1265,-0.21378 -0.12806,1.35839 -0.97612,2.10947 -17.40162,23.95128 -1.20604,1.23687 -1.50846,0.84196 -1.68584,0.37728 -2.30786,-0.27648 -28.15642,-9.14858 -1.54902,-0.7648 -1.2669,-1.17446 -0.87976,-1.48674 -0.45022,-2.28034 V 402.8267 l -19.86463,-6.45441 -14.83932,20.42458 -1.20604,1.23687 -1.50847,0.84196 -1.68583,0.37728 -2.30786,-0.27648 -28.15642,-9.14858 -1.54902,-0.7648 -1.2669,-1.17446 -0.87976,-1.48674 -0.45022,-2.28034 v -25.24616 l -19.86463,-6.45441 -14.83931,20.42457 -1.20604,1.23687 -1.50846,0.84196 -1.68584,0.37728 -2.30786,-0.27648 -28.15642,-9.14857 -1.54902,-0.7648 -1.2669,-1.17445 -0.87976,-1.48675 -0.45022,-2.28034 v -29.60541 l 0.2487,-1.70954 0.72547,-1.56782 0.16422,-0.18637 -1.33146,0.29797 -2.30786,-0.27648 -28.15642,-9.14857 -1.54902,-0.7648 -1.2669,-1.17445 -0.87976,-1.48675 -0.45022,-2.28034 v -29.60542 l 0.0595,-0.40912 -0.003,-0.41345 0.12658,-0.4369 0.0655,-0.45007 0.17361,-0.3752 0.11506,-0.39714 0.2458,-0.3827 0.191,-0.41278 0.27335,-0.31021 0.22342,-0.34786 0.34464,-0.2968 0.30071,-0.34126 0.3504,-0.21946 0.31327,-0.26979 0.47421,-0.22344 0.32619,-0.2043 0.26122,-0.0725 0.30432,-0.14339 24.01052,-7.80149 v -20.8869 l -24.01052,-7.80149 -1.54902,-0.7648 -1.2669,-1.17446 -0.87976,-1.48674 -0.45022,-2.28034 V 225.1544 l 0.0159,-0.10952 -0.0119,-0.11001 0.13597,-0.74274 0.10871,-0.74727 0.0465,-0.10043 0.0199,-0.10886 0.34196,-0.67321 0.31711,-0.68532 0.0732,-0.083 0.0501,-0.0987 0.51954,-0.54782 0.4993,-0.56662 0.0809,-0.0452 0.089,-0.0939 1.49664,-0.86281 0.22398,-0.0534 0.13905,-0.0776 24.01052,-7.80149 v -20.8869 l -24.01052,-7.80149 -1.54902,-0.7648 -1.2669,-1.17445 -0.87976,-1.48675 -0.45022,-2.28034 v -29.60541 l 0.2487,-1.70954 0.72547,-1.56782 1.14212,-1.29613 2.02961,-1.13285 28.15642,-9.14858 1.70272,-0.29175 1.71527,0.20549 0.22799,0.0986 -0.69483,-1.17422 -0.45022,-2.28034 V 99.74386 l 0.2487,-1.70954 0.72547,-1.56782 1.14212,-1.29613 2.02961,-1.13285 28.15642,-9.14857 0.4075,-0.06982 0.39232,-0.13049 0.45461,-0.01463 0.44829,-0.07681 0.41049,0.04918 0.41325,-0.0133 0.43995,0.11551 0.45158,0.0541 0.37945,0.16409 0.39992,0.105 0.38882,0.23608 0.41743,0.18052 0.31697,0.2654 0.35343,0.2146 0.35905,0.38197 0.29509,0.24708 0.14964,0.22603 0.23041,0.24512 14.83931,20.42457 19.86463,-6.45441 V 75.79258 l 0.2487,-1.70954 0.72547,-1.56782 1.14212,-1.29613 2.02961,-1.13285 28.15642,-9.14857 1.70272,-0.29175 1.71527,0.20549 1.58562,0.68569 1.70459,1.5802 14.83932,20.42457 19.86463,-6.45441 V 51.8413 l 0.2487,-1.70954 0.72547,-1.56782 1.14212,-1.29613 2.02961,-1.13285 28.15642,-9.14857 1.70272,-0.29175 z m -23.72031,365.92662 v 20.88691 l 19.86463,6.45441 12.27701,-16.89786 -12.27701,-16.89787 z m 56.31284,-18.29715 v 20.88691 l 19.86463,6.45441 12.27701,-16.89787 -12.27701,-16.89786 z m -58.60464,-76.76332 -13.69342,18.84738 14.83932,20.42457 0.80364,1.52922 0.33462,1.69482 -0.16214,1.71991 -0.97612,2.10947 -14.83932,20.42457 12.27701,16.89786 24.01053,-7.8015 1.70272,-0.29175 1.71527,0.20549 1.58562,0.68569 1.70459,1.5802 17.30232,23.81462 v -29.43648 l 0.0595,-0.40912 -0.003,-0.41345 0.12657,-0.4369 0.0655,-0.45007 0.17362,-0.37521 0.11505,-0.39712 0.24578,-0.38268 0.19102,-0.41281 0.27336,-0.31022 0.22341,-0.34785 0.34464,-0.2968 0.30071,-0.34126 0.3504,-0.21946 0.31327,-0.26979 0.47421,-0.22344 0.32619,-0.2043 0.26122,-0.0725 0.30432,-0.14339 24.01052,-7.80149 v -20.8869 l -24.01052,-7.80149 -0.37073,-0.18304 -0.39408,-0.12503 -0.37637,-0.25537 -0.40784,-0.20136 -0.3032,-0.28108 -0.34213,-0.23213 -0.28801,-0.35202 -0.33356,-0.30922 -0.21056,-0.35584 -0.26179,-0.31997 -0.17577,-0.41948 -0.23164,-0.39146 -0.0602,-0.30513 -0.19998,-0.47725 -0.12845,-1.18621 -0.0616,-0.31175 V 307.0216 l -22.15642,-7.19906 z m -71.42267,71.10919 v 20.88691 l 19.86463,6.45441 12.27701,-16.89787 -12.27701,-16.89786 z m 28.15642,-86.65655 v 25.24616 l -0.2487,1.70954 -0.72547,1.56782 -1.14212,1.29613 -1.46407,0.91699 -0.35551,0.0986 -0.21003,0.11723 -24.01052,7.80149 v 25.24616 l -0.2487,1.70954 -0.72547,1.56782 -1.14212,1.29613 -1.46407,0.91699 -0.35551,0.0986 -0.21003,0.11723 -10.59411,3.44223 8.74001,2.83981 26.30232,-8.54615 1.70272,-0.29175 1.71527,0.20549 1.58562,0.68569 1.70459,1.5802 16.25573,22.37408 8.74001,2.83981 -6.54752,-9.01189 -0.80364,-1.52922 -0.33462,-1.69482 0.16214,-1.71991 0.97612,-2.10947 14.83932,-20.42457 -14.83932,-20.42457 -0.80364,-1.52922 -0.33462,-1.69482 0.16214,-1.71991 0.97612,-2.10947 14.83932,-20.42458 -12.27701,-16.89786 z m -101.87088,62.70527 v 20.8869 l 19.86463,6.45441 12.27701,-16.89786 -12.27701,-16.89786 z m 37.76531,-72.68639 -0.49837,0.51111 -0.47202,0.53567 -0.12921,0.0809 -0.10644,0.10916 -0.6234,0.34796 -0.60502,0.37894 -0.14691,0.0408 -0.13314,0.0743 -0.69674,0.15592 -0.68787,0.19084 -0.15242,-0.003 -0.1488,0.0333 -0.35491,-0.0425 -1.07111,-0.0196 -0.55055,-0.17467 -0.33129,-0.0397 -24.01052,-7.80149 -12.27701,16.89786 14.83932,20.42457 0.80364,1.52922 0.33462,1.69482 -0.16214,1.71991 -0.97612,2.10947 -17.30233,23.81461 27.99575,-9.09638 0.4075,-0.0698 0.39232,-0.13049 0.45461,-0.0146 0.44829,-0.0768 0.41049,0.0492 0.41325,-0.0133 0.43995,0.11551 0.45158,0.0541 0.37945,0.16409 0.39992,0.105 0.38882,0.23608 0.41743,0.18052 0.31697,0.2654 0.35343,0.2146 0.35905,0.38197 0.29508,0.24707 0.14964,0.22604 0.23042,0.24512 14.83931,20.42457 19.86463,-6.45441 v -25.24615 l 0.0159,-0.10952 -0.0119,-0.11001 0.13597,-0.74274 0.10871,-0.74727 0.0465,-0.10043 0.0199,-0.10886 0.34196,-0.67321 0.31711,-0.68532 0.0732,-0.083 0.0501,-0.0987 0.51954,-0.54782 0.4993,-0.56662 0.0809,-0.0452 0.089,-0.0939 1.49664,-0.86281 0.22398,-0.0534 0.13905,-0.0776 24.01052,-7.80149 V 289.80918 L 587.9763,269.0123 565.81987,261.81323 Z m 137.82004,-13.97016 v 20.8869 l 24.01052,7.80149 0.46861,0.23137 0.49196,0.17614 0.2786,0.20431 0.30985,0.15298 0.38329,0.35532 0.42135,0.30899 0.20883,0.27521 0.25343,0.23493 0.26614,0.44977 0.31588,0.41627 0.0537,0.2083 0.24403,0.41241 0.45022,2.28034 v 25.24616 l 24.01052,7.80149 0.46861,0.23137 0.49196,0.17614 0.2786,0.20431 0.30985,0.15298 0.38329,0.35532 0.42135,0.30899 0.20883,0.27521 0.25343,0.23493 0.26614,0.44977 0.31588,0.41627 0.0537,0.2083 0.24403,0.41241 0.45022,2.28034 v 11.13931 l 5.40162,-7.43469 v -27.6559 l 0.2487,-1.70954 0.72547,-1.56782 1.14212,-1.29613 2.02961,-1.13285 26.30232,-8.54614 5.40162,-7.4347 -10.59411,3.44224 -1.70272,0.29175 -1.71527,-0.20549 -1.58562,-0.68569 -1.70459,-1.5802 -14.83932,-20.42457 -24.01053,7.80149 -1.70272,0.29175 -1.71527,-0.20549 -1.58562,-0.68569 -1.70459,-1.5802 -14.83931,-20.42457 z m 73.71446,53.5567 v 20.8869 l 19.86463,6.45441 12.27701,-16.89786 -12.27701,-16.89786 z M 478.41199,307.02163 v 20.8869 l 19.86463,6.45441 12.27701,-16.89786 -12.27701,-16.89786 z m 163.68465,-102.2918 -0.49837,0.51111 -0.47202,0.53567 -0.12921,0.0809 -0.10644,0.10916 -0.6234,0.34796 -0.60502,0.37894 -0.14691,0.0408 -0.13314,0.0743 -0.69674,0.15592 -0.68787,0.19084 -0.15242,-0.003 -0.1488,0.0333 -0.35491,-0.0425 -1.07111,-0.0196 -0.55055,-0.17467 -0.33129,-0.0397 -24.01053,-7.8015 -12.27701,16.89787 14.83932,20.42457 0.80364,1.52923 0.33462,1.69481 -0.16214,1.71991 -0.97612,2.10947 -14.83932,20.42457 12.27701,16.89786 24.01053,-7.8015 1.70272,-0.29175 1.71527,0.20549 1.58562,0.68569 1.70459,1.5802 14.83932,20.42457 19.86463,-6.45441 v -25.24615 l 0.0159,-0.10952 -0.0119,-0.11001 0.13597,-0.74274 0.10871,-0.74727 0.0465,-0.10043 0.0199,-0.10886 0.34196,-0.67321 0.31711,-0.68532 0.0732,-0.083 0.0501,-0.0987 0.51954,-0.54782 0.4993,-0.56662 0.0809,-0.0452 0.089,-0.0939 1.49664,-0.86281 0.22398,-0.0534 0.13905,-0.0776 24.01052,-7.80149 v -20.8869 l -24.01052,-7.80149 -0.37073,-0.18304 -0.39408,-0.12503 -0.37637,-0.25537 -0.40784,-0.20136 -0.3032,-0.28108 -0.34213,-0.23213 -0.28801,-0.35202 -0.33356,-0.30922 -0.21056,-0.35584 -0.26179,-0.31997 -0.17577,-0.41948 -0.23164,-0.39146 -0.0602,-0.30513 -0.19998,-0.47725 -0.12845,-1.18621 -0.0615,-0.31175 V 190.7594 l -19.86463,-6.45441 z m 119.27251,9.14857 -0.49837,0.51111 -0.47202,0.53567 -0.12921,0.0809 -0.10644,0.10916 -0.6234,0.34796 -0.60502,0.37894 -0.14691,0.0408 -0.13314,0.0743 -0.69674,0.15592 -0.68787,0.19084 -0.15242,-0.003 -0.1488,0.0333 -0.35491,-0.0425 -1.07111,-0.0196 -0.55055,-0.17467 -0.33129,-0.0397 -24.01053,-7.80149 -13.69341,18.84737 v 25.70639 l 13.69341,18.84737 24.01053,-7.80149 1.70272,-0.29175 1.71527,0.20549 1.58562,0.68569 1.70459,1.5802 14.83932,20.42457 19.86462,-6.45441 v -25.24616 l 0.2487,-1.70954 0.72547,-1.56782 1.14212,-1.29613 2.02961,-1.13285 27.99573,-9.09636 -27.99573,-9.09637 -0.37073,-0.18304 -0.39408,-0.12503 -0.37637,-0.25537 -0.40784,-0.20136 -0.30319,-0.28107 -0.34214,-0.23214 -0.28803,-0.35205 -0.33354,-0.3092 -0.21054,-0.35581 -0.26181,-0.31999 -0.17577,-0.41949 -0.23164,-0.39145 -0.10044,-0.40107 -0.15978,-0.38131 -0.066,-0.52008 -0.0935,-0.37332 0.0118,-0.2708 -0.0423,-0.33376 v -25.24616 l -19.86462,-6.45441 z m 46.70394,45.24067 v 20.8869 l 19.86463,6.45441 12.27701,-16.89786 -12.27701,-16.89786 z m -301.50468,-45.06275 16.25573,22.37408 0.80364,1.52922 0.33462,1.69482 -0.16214,1.71991 -0.97612,2.10947 -16.25573,22.37408 v 9.18981 l 6.54753,-9.0119 0.57439,-0.58907 0.56594,-0.59674 0.0364,-0.021 0.0294,-0.0301 0.7187,-0.40115 0.71223,-0.4106 0.0408,-0.01 0.0367,-0.0205 0.80301,-0.1797 0.79989,-0.1907 0.0419,0.002 0.041,-0.009 0.17622,0.0211 1.46578,0.0805 0.39897,0.14285 0.26689,0.032 24.01052,7.80149 14.83932,-20.42457 0.57439,-0.58907 0.56594,-0.59674 0.0364,-0.021 0.0293,-0.0301 0.7187,-0.40115 0.71223,-0.4106 0.0408,-0.01 0.0367,-0.0205 0.80301,-0.1797 0.79989,-0.1907 0.0419,0.002 0.041,-0.009 0.17622,0.0211 1.46578,0.0805 0.39897,0.14285 0.26689,0.032 24.01053,7.8015 12.27701,-16.89786 -12.27701,-16.89786 -24.01053,7.80149 -1.70272,0.29175 -1.71527,-0.20549 -1.58562,-0.68569 -1.70459,-1.5802 -14.83932,-20.42457 -24.01052,7.80149 -1.70272,0.29175 -1.71527,-0.20549 -1.58562,-0.68569 -1.70459,-1.5802 -6.54753,-9.0119 z m -28.15642,15.45734 v 20.8869 l 19.86463,6.45441 12.27701,-16.89786 -12.27701,-16.89786 z m 329.6611,-29.60542 v 20.88691 l 19.86463,6.45441 12.27701,-16.89787 -12.27701,-16.89786 z m -267.84733,-57.88368 -1.20604,1.23687 -1.50846,0.84196 -1.68584,0.37728 -2.30786,-0.27648 -27.99574,-9.09636 17.30232,23.81459 0.80364,1.52922 0.33462,1.69482 -0.16214,1.71991 -0.97612,2.10947 -14.83932,20.42457 12.27701,16.89786 24.01052,-7.80149 1.70272,-0.29175 1.71527,0.20549 1.58562,0.68569 1.70459,1.5802 14.83932,20.42457 22.15643,-7.19906 15.10982,-20.79689 v -23.29664 l -24.01052,-7.80149 -0.37073,-0.18304 -0.39408,-0.12503 -0.37637,-0.25537 -0.40784,-0.20136 -0.3032,-0.28108 -0.34213,-0.23213 -0.28801,-0.35202 -0.33356,-0.30922 -0.21056,-0.35584 -0.26179,-0.31997 -0.17577,-0.41948 -0.23164,-0.39146 -0.0602,-0.30513 -0.19998,-0.47725 -0.12845,-1.18621 -0.0616,-0.31175 V 128.0544 l -19.86463,-6.45441 z m 204.88767,-3.52671 -0.2487,1.70954 -0.72547,1.56782 -1.14212,1.29613 -1.46407,0.91699 -0.35551,0.0986 -0.21003,0.11723 -24.01052,7.80149 v 25.24616 l -0.2487,1.70954 -0.72547,1.56782 -1.14212,1.29613 -1.46407,0.91699 -0.35551,0.0986 -0.21003,0.11723 -24.01052,7.80149 v 20.8869 l 19.86463,6.45441 14.83931,-20.42457 0.57439,-0.58907 0.56594,-0.59674 0.0364,-0.021 0.0293,-0.0301 0.71858,-0.40108 0.71235,-0.41067 0.0409,-0.01 0.0367,-0.0205 0.80274,-0.17965 0.80017,-0.19076 0.0419,0.002 0.041,-0.009 0.17622,0.0211 1.46578,0.0805 0.39897,0.14285 0.26689,0.032 24.01053,7.80149 14.83932,-20.42457 0.57439,-0.58907 0.56594,-0.59674 0.0364,-0.021 0.0294,-0.0301 0.7187,-0.40115 0.71223,-0.4106 0.0408,-0.01 0.0367,-0.0205 0.80301,-0.1797 0.79989,-0.1907 0.0419,0.002 0.041,-0.009 0.17622,0.0211 1.46578,0.0805 0.39897,0.14285 0.26689,0.032 10.59411,3.44224 -5.40162,-7.43469 -26.30232,-8.54615 -0.37073,-0.18304 -0.39408,-0.12503 -0.37637,-0.25537 -0.40784,-0.20136 -0.30319,-0.28107 -0.34214,-0.23214 -0.28803,-0.35205 -0.33354,-0.3092 -0.21054,-0.35581 -0.26181,-0.31999 -0.17577,-0.41949 -0.23164,-0.39145 -0.0602,-0.30513 -0.19998,-0.47725 -0.12845,-1.18621 -0.0616,-0.31175 v -27.6559 l -5.40162,-7.43469 z M 630.19595,95.6992 l -16.25573,22.37408 -0.49837,0.51111 -0.47202,0.53567 -0.12921,0.0809 -0.10644,0.10916 -0.6234,0.34796 -0.60502,0.37894 -0.14691,0.0408 -0.13314,0.0743 -0.69674,0.15592 -0.68787,0.19084 -0.15242,-0.003 -0.1488,0.0333 -0.35491,-0.0425 -1.07111,-0.0196 -0.55055,-0.17467 -0.33129,-0.0397 -26.30232,-8.54615 -8.74002,2.83981 10.59412,3.44224 0.46861,0.23137 0.49196,0.17614 0.2786,0.20431 0.30985,0.15298 0.38327,0.35531 0.42137,0.309 0.20886,0.27524 0.2534,0.23491 0.26613,0.44974 0.31589,0.41629 0.0537,0.20831 0.24403,0.4124 0.45022,2.28034 v 25.24615 l 24.01052,7.80149 0.46861,0.23137 0.49196,0.17614 0.2786,0.20431 0.30985,0.15298 0.38329,0.35532 0.42135,0.30899 0.20883,0.27521 0.25343,0.23493 0.26614,0.44977 0.31588,0.41627 0.0537,0.2083 0.24403,0.41241 0.45022,2.28034 v 25.24616 l 19.86463,6.45441 12.27701,-16.89786 -14.83932,-20.42457 -0.12208,-0.23231 -0.16619,-0.20312 -0.23386,-0.55811 -0.28151,-0.53568 -0.0508,-0.25748 -0.10142,-0.24205 -0.0652,-0.60161 -0.11721,-0.59368 0.0246,-0.26129 -0.0282,-0.26091 0.10896,-0.59521 0.0568,-0.6025 0.0885,-0.19129 0.0568,-0.3103 0.78235,-1.54022 0.0335,-0.0353 0.015,-0.0324 14.83932,-20.42457 -14.83932,-20.42458 -0.12208,-0.2323 -0.16619,-0.20313 -0.23387,-0.55814 -0.2815,-0.53566 -0.0508,-0.25746 -0.10143,-0.24206 -0.0652,-0.60162 -0.11721,-0.59367 0.0246,-0.26129 -0.0282,-0.26091 0.10896,-0.59521 0.0568,-0.6025 0.0885,-0.19129 0.0568,-0.3103 0.78235,-1.54022 0.0335,-0.0353 0.015,-0.0324 6.54752,-9.01189 z m 57.45874,-1.5772 -0.28863,0.296 -0.2407,0.33618 -0.35917,0.27903 -0.31754,0.32566 -0.36103,0.20151 -0.32648,0.25364 -0.42381,0.16514 -0.39714,0.22167 -0.40343,0.09029 -0.38527,0.15012 -0.45329,0.03754 -0.44385,0.09933 -0.4125,-0.02841 -0.412,0.03412 -0.51495,-0.09796 -0.384,-0.02645 -0.25393,-0.09491 -0.33048,-0.06287 -24.01053,-7.8015 -12.27701,16.89786 14.83932,20.42458 0.17305,0.3293 0.22489,0.29636 0.0666,0.25829 0.33911,0.64528 0.33462,1.69481 -0.0189,0.19993 0.0265,0.10274 -0.10277,0.70644 -0.067,0.7108 -0.0531,0.11472 -0.0258,0.17758 -0.72547,1.56782 -0.11866,0.13466 -0.0531,0.11469 -14.83932,20.42457 13.69342,18.84737 24.44822,7.94371 22.15642,-7.19906 v -25.24615 l 0.0159,-0.10952 -0.0119,-0.11001 0.13597,-0.74274 0.10871,-0.74727 0.0465,-0.10043 0.0199,-0.10886 0.34196,-0.67321 0.31711,-0.68532 0.0732,-0.083 0.0501,-0.0987 0.51954,-0.54782 0.4993,-0.56662 0.0809,-0.0452 0.089,-0.0939 1.49664,-0.86281 0.22398,-0.0534 0.13905,-0.0776 24.01052,-7.80149 v -20.88691 l -24.01052,-7.80149 -1.54902,-0.7648 -1.2669,-1.17446 -0.87976,-1.48674 -0.45022,-2.28034 v -29.4364 z m -209.2427,57.88368 v 20.8869 l 19.86463,6.45441 12.27701,-16.89786 -12.27701,-16.89786 z m 284.10306,-14.8027 v 20.8869 l 19.86463,6.45441 12.27701,-16.89786 -12.27701,-16.89786 z M 513.21524,104.10312 v 20.8869 l 19.86463,6.45441 12.27701,-16.89786 -12.27701,-16.89786 z M 586.9297,80.15184 v 20.8869 l 19.86463,6.45441 12.27701,-16.89786 -12.27701,-16.89786 z m 130.02731,-5.65413 v 20.8869 l 19.86463,6.45441 L 749.09865,84.94116 736.82164,68.0433 Z M 660.64417,56.20056 v 20.8869 L 680.5088,83.54187 692.78581,66.64401 680.5088,49.74615 Z"
     stroke-miterlimit="10"
     id="path2" />
  <path
     fill="#222222"
     stroke="#cccccc"
     paint-order="fill stroke markers"
     d="m 201.23604,460.53488 0.67168,0.0369 0.18283,0.0655 0.19282,0.0231 0.61744,0.26701 0.63334,0.22676 0.1566,0.11484 0.17824,0.0771 0.27688,0.25667 0.78137,0.57301 0.38727,0.51036 0.25907,0.24016 12.27393,16.89361 15.71374,5.10571 10.85752,-14.9441 0.57439,-0.58907 0.56594,-0.59674 0.0364,-0.021 0.0293,-0.0301 0.71858,-0.40108 0.71235,-0.41067 0.0409,-0.01 0.0367,-0.0205 0.80274,-0.17965 0.80017,-0.19076 0.0419,0.002 0.041,-0.009 0.17622,0.0211 1.46578,0.0805 0.39897,0.14285 0.26689,0.032 21.71374,7.05522 0.46861,0.23137 0.49196,0.17614 0.2786,0.20431 0.30985,0.15298 0.38327,0.35531 0.42137,0.309 0.20886,0.27524 0.2534,0.23491 0.26613,0.44974 0.31589,0.41629 0.0537,0.20831 0.24403,0.4124 0.45022,2.28034 v 22.83117 l -0.2487,1.70954 -0.72547,1.56782 -1.14212,1.29613 -1.46407,0.91699 -0.35551,0.0986 -0.21003,0.11723 -17.56784,5.70814 v 14.11266 l 13.42195,4.36106 10.85752,-14.9441 1.20604,-1.23687 1.50847,-0.84197 1.68583,-0.37727 2.30786,0.27648 21.71374,7.05522 1.54902,0.7648 1.2669,1.17446 0.87976,1.48674 0.45022,2.28034 v 18.47192 l 13.42194,4.36106 8.29522,-11.41739 -10.85753,-14.9441 -0.80364,-1.52923 -0.33462,-1.69481 0.16214,-1.71991 0.97612,-2.10947 13.41983,-18.47081 1.20604,-1.23687 1.50847,-0.84197 1.68583,-0.37727 2.30786,0.27648 21.71374,7.05523 1.54902,0.7648 1.2669,1.17446 0.87976,1.48674 0.45022,2.28034 v 18.47191 l 15.71374,5.10571 19.85963,-6.45279 1.70272,-0.29175 1.71527,0.20549 1.58562,0.68569 1.70459,1.5802 13.41983,18.47081 0.80364,1.52923 0.33462,1.69481 -0.16214,1.71991 -0.97612,2.10947 -12.27393,16.89361 v 16.5224 l 17.56784,5.70814 1.54902,0.7648 1.2669,1.17446 0.87976,1.48674 0.45022,2.28034 v 22.83118 l -0.2487,1.70954 -0.72547,1.56782 -1.14212,1.29613 -2.02961,1.13285 -21.71374,7.05522 -1.70272,0.29175 -1.71527,-0.20549 -1.58562,-0.68569 -1.70459,-1.5802 -10.85752,-14.9441 -13.42194,4.36106 v 14.11266 l 17.56784,5.70814 1.54902,0.7648 1.2669,1.17446 0.87976,1.48674 0.45022,2.28034 v 22.83117 l -0.2487,1.70954 -0.72547,1.56782 -1.14212,1.29613 -2.02961,1.13285 -17.56784,5.70814 v 14.11266 l 13.42194,4.36106 10.85752,-14.9441 0.57439,-0.58907 0.56594,-0.59674 0.0364,-0.021 0.0294,-0.0301 0.71858,-0.40108 0.71235,-0.41067 0.0409,-0.01 0.0367,-0.0205 0.80274,-0.17965 0.80017,-0.19076 0.0419,0.002 0.041,-0.009 0.17622,0.0211 1.46578,0.0805 0.39897,0.14285 0.26689,0.032 21.71374,7.05522 0.46861,0.23137 0.49196,0.17614 0.2786,0.20431 0.30985,0.15298 0.38327,0.35531 0.42137,0.309 0.20886,0.27524 0.2534,0.23491 0.26613,0.44974 0.31589,0.41629 0.0537,0.20831 0.24403,0.4124 0.45022,2.28034 v 22.83118 l -0.2487,1.70954 -0.72547,1.56782 -1.14212,1.29613 -1.46407,0.91699 -0.35551,0.0986 -0.21003,0.11723 -17.56784,5.70814 v 16.5224 l 12.27393,16.89361 0.17305,0.3293 0.22489,0.29636 0.0666,0.25829 0.33911,0.64528 0.33462,1.69481 -0.0188,0.19993 0.0265,0.10274 -0.10277,0.70644 -0.067,0.7108 -0.0531,0.11472 -0.0258,0.17758 -0.72547,1.56782 -0.11866,0.13466 -0.0531,0.11469 -13.41983,18.47081 -0.49837,0.51111 -0.47202,0.53567 -0.12921,0.0809 -0.10644,0.10916 -0.6234,0.34796 -0.60502,0.37894 -0.14691,0.0408 -0.13314,0.0743 -0.69674,0.15592 -0.68787,0.19084 -0.15242,-0.003 -0.1488,0.0333 -0.35491,-0.0425 -1.07111,-0.0196 -0.55055,-0.17467 -0.33129,-0.0397 -19.85963,-6.45279 -15.71374,5.10571 v 18.47191 l -0.2487,1.70954 -0.72547,1.56782 -1.14212,1.29613 -1.46407,0.91699 -0.35551,0.0986 -0.21003,0.11723 -21.71374,7.05523 -0.55577,0.0952 -0.54335,0.15074 -0.30395,-0.006 -0.29965,0.0513 -0.55987,-0.0671 -0.56377,-0.0103 -0.28978,-0.0919 -0.30185,-0.0362 -0.51755,-0.22381 -0.53747,-0.17052 -0.25156,-0.17068 -0.27904,-0.12067 -0.27626,-0.25611 -0.62268,-0.42248 -0.5242,-0.64071 -0.28145,-0.26091 -13.41983,-18.47081 -0.12208,-0.2323 -0.16619,-0.20313 -0.23387,-0.55814 -0.2815,-0.53566 -0.0508,-0.25746 -0.10143,-0.24206 -0.0652,-0.60162 -0.11721,-0.59367 0.0246,-0.26129 -0.0283,-0.26091 0.10896,-0.59521 0.0568,-0.6025 0.0885,-0.19129 0.0568,-0.3103 0.78235,-1.54022 0.0335,-0.0353 0.015,-0.0324 10.85753,-14.9441 -8.29522,-11.41739 -13.42194,4.36106 v 18.47192 l -0.2487,1.70954 -0.72547,1.56782 -1.14212,1.29613 -1.46407,0.91699 -0.35551,0.0986 -0.21003,0.11723 -21.71374,7.05522 -0.55577,0.0952 -0.54335,0.15074 -0.30395,-0.006 -0.29965,0.0513 -0.55987,-0.0671 -0.56377,-0.0103 -0.28978,-0.0919 -0.30185,-0.0362 -0.51752,-0.2238 -0.5375,-0.17053 -0.25159,-0.17071 -0.27901,-0.12065 -0.27623,-0.25607 -0.62271,-0.42251 -0.52421,-0.64071 -0.28144,-0.26091 -10.85752,-14.9441 -13.42195,4.36106 v 14.11266 l 17.56784,5.70814 0.46861,0.23137 0.49196,0.17614 0.2786,0.20431 0.30985,0.15298 0.38327,0.35531 0.42137,0.309 0.20886,0.27524 0.2534,0.23491 0.26613,0.44974 0.31589,0.41629 0.0537,0.20831 0.24403,0.4124 0.45022,2.28034 v 22.83117 l -0.2487,1.70954 -0.72547,1.56782 -1.14212,1.29613 -1.46407,0.91699 -0.35551,0.0986 -0.21003,0.11723 -21.71374,7.05522 -0.55577,0.0952 -0.54335,0.15074 -0.30395,-0.006 -0.29965,0.0513 -0.55987,-0.0671 -0.56377,-0.0103 -0.28978,-0.0919 -0.30185,-0.0362 -0.51752,-0.2238 -0.5375,-0.17053 -0.25159,-0.17071 -0.27901,-0.12065 -0.27623,-0.25607 -0.62271,-0.42251 -0.52421,-0.64071 -0.28144,-0.26091 -10.85752,-14.9441 -15.71374,5.10571 -12.27393,16.89361 -0.49837,0.51111 -0.47202,0.53567 -0.12921,0.0809 -0.10644,0.10916 -0.6234,0.34796 -0.60502,0.37894 -0.14691,0.0408 -0.13314,0.0743 -0.69674,0.15592 -0.68787,0.19084 -0.15242,-0.003 -0.1488,0.0333 -0.35491,-0.0425 -1.07111,-0.0196 -0.55055,-0.17467 -0.33129,-0.0397 -21.71374,-7.05522 -0.37073,-0.18304 -0.39408,-0.12503 -0.37637,-0.25537 -0.40784,-0.20136 -0.30319,-0.28107 -0.34214,-0.23214 -0.28803,-0.35205 -0.33354,-0.3092 -0.21054,-0.35581 -0.26181,-0.31999 -0.17577,-0.41949 -0.23164,-0.39145 -0.0602,-0.30513 -0.19998,-0.47725 -0.12845,-1.18621 -0.0616,-0.31175 V 825.3737 l -9.71162,-13.3669 -17.56784,5.70814 -0.55577,0.0952 -0.54335,0.15074 -0.30395,-0.006 -0.29965,0.0513 -0.55987,-0.0671 -0.56377,-0.0103 -0.28978,-0.0919 -0.30185,-0.0362 -0.51752,-0.2238 -0.5375,-0.17053 -0.25159,-0.17071 -0.27901,-0.12065 -0.27623,-0.25607 -0.62271,-0.42251 -0.52421,-0.64071 -0.28144,-0.26091 -13.41983,-18.47081 -0.12208,-0.2323 -0.16619,-0.20313 -0.23387,-0.55814 -0.2815,-0.53566 -0.0508,-0.25746 -0.10143,-0.24206 -0.0651,-0.60162 -0.11721,-0.59367 0.0246,-0.26129 -0.0282,-0.26091 0.10896,-0.59521 0.0568,-0.6025 0.0885,-0.19129 0.0568,-0.3103 0.78235,-1.54022 0.0335,-0.0353 0.015,-0.0324 13.41983,-18.47081 0.57439,-0.58907 0.56594,-0.59674 0.0364,-0.021 0.0293,-0.0301 0.7187,-0.40115 0.71223,-0.4106 0.0408,-0.01 0.0367,-0.0205 0.80301,-0.1797 0.79989,-0.1907 0.0419,0.002 0.041,-0.009 0.17622,0.0211 1.46578,0.0806 0.39897,0.14285 0.26689,0.032 17.56784,5.70814 8.29521,-11.41739 -8.29521,-11.41738 -17.56784,5.70814 -1.70272,0.29175 -1.71527,-0.20549 -1.58562,-0.68569 -1.70459,-1.5802 -13.41983,-18.47081 -0.80364,-1.52923 -0.33462,-1.69481 0.16214,-1.71991 0.97612,-2.10947 10.85753,-14.9441 -8.29522,-11.41739 -13.42195,4.36106 v 18.47192 l -0.2487,1.70954 -0.72547,1.56782 -1.14212,1.29613 -2.02961,1.13285 -21.71374,7.05522 -1.70272,0.29175 -1.71527,-0.20549 -1.58562,-0.68569 -1.70459,-1.5802 -13.41982,-18.47081 -0.80364,-1.52923 -0.33462,-1.69481 0.16214,-1.71991 0.97612,-2.10947 10.85752,-14.9441 -9.71162,-13.3669 -19.85964,-6.45279 -1.54902,-0.7648 -1.2669,-1.17446 -0.87976,-1.48674 -0.45022,-2.28034 v -22.83117 l 0.01593,-0.10952 -0.01191,-0.11001 0.13597,-0.74274 0.10871,-0.74727 0.04647,-0.10043 0.01993,-0.10886 0.34196,-0.67321 0.31711,-0.68532 0.07317,-0.083 0.05011,-0.0987 0.51954,-0.54782 0.4993,-0.56662 0.08092,-0.0452 0.08902,-0.0939 1.49664,-0.86281 0.22398,-0.0534 0.13905,-0.0776 19.85964,-6.45279 9.71162,-13.3669 -10.85752,-14.9441 -0.12208,-0.2323 -0.16619,-0.20313 -0.23387,-0.55814 -0.2815,-0.53566 -0.05083,-0.25746 -0.10143,-0.24206 -0.06515,-0.60162 -0.11721,-0.59367 0.02463,-0.26129 -0.02825,-0.26091 0.10896,-0.59521 0.0568,-0.6025 0.08851,-0.19129 0.05681,-0.3103 0.78235,-1.54022 0.03347,-0.0353 0.01498,-0.0324 13.41982,-18.47081 0.57439,-0.58907 0.56594,-0.59674 0.03636,-0.021 0.02935,-0.0301 0.71858,-0.40108 0.71235,-0.41067 0.04086,-0.01 0.03667,-0.0205 0.80274,-0.17965 0.80017,-0.19076 0.04193,0.002 0.041,-0.009 0.17622,0.0211 1.46578,0.0806 0.39897,0.14285 0.26689,0.032 21.71374,7.05522 0.46861,0.23137 0.49196,0.17614 0.2786,0.20431 0.30985,0.15298 0.38327,0.35531 0.42137,0.309 0.20886,0.27524 0.2534,0.23491 0.26613,0.44974 0.31589,0.41629 0.0537,0.20831 0.24403,0.4124 0.45022,2.28034 v 18.47192 l 13.42195,4.36106 8.29522,-11.41739 -10.85753,-14.9441 -0.12208,-0.2323 -0.16619,-0.20313 -0.23387,-0.55814 -0.2815,-0.53566 -0.0508,-0.25746 -0.10143,-0.24206 -0.0651,-0.60162 -0.11721,-0.59367 0.0246,-0.26129 -0.0282,-0.26091 0.10896,-0.59521 0.0568,-0.6025 0.0885,-0.19129 0.0568,-0.3103 0.78235,-1.54022 0.0335,-0.0353 0.015,-0.0324 13.41983,-18.47081 0.57439,-0.58907 0.56594,-0.59674 0.0364,-0.021 0.0293,-0.0301 0.7187,-0.40115 0.71223,-0.4106 0.0408,-0.01 0.0367,-0.0205 0.80301,-0.1797 0.79989,-0.1907 0.0419,0.002 0.041,-0.009 0.17622,0.0211 1.46578,0.0806 0.39897,0.14285 0.26689,0.032 17.56784,5.70814 8.29521,-11.41738 -8.29521,-11.41739 -17.56784,5.70814 -0.55577,0.0952 -0.54335,0.15074 -0.30395,-0.006 -0.29965,0.0513 -0.55987,-0.0671 -0.56377,-0.0103 -0.28978,-0.0919 -0.30185,-0.0362 -0.51752,-0.2238 -0.5375,-0.17053 -0.25159,-0.17071 -0.27901,-0.12065 -0.27623,-0.25607 -0.62271,-0.42251 -0.52421,-0.64071 -0.28144,-0.26091 -13.41983,-18.47081 -0.12208,-0.2323 -0.16619,-0.20313 -0.23387,-0.55814 -0.2815,-0.53566 -0.0508,-0.25746 -0.10143,-0.24206 -0.0651,-0.60162 -0.11721,-0.59367 0.0246,-0.26129 -0.0282,-0.26091 0.10896,-0.59521 0.0568,-0.6025 0.0885,-0.19129 0.0568,-0.3103 0.78235,-1.54022 0.0335,-0.0353 0.015,-0.0324 13.41983,-18.47081 0.57439,-0.58907 0.56594,-0.59674 0.0364,-0.021 0.0293,-0.0301 0.7187,-0.40115 0.71223,-0.4106 0.0408,-0.01 0.0367,-0.0205 0.80301,-0.1797 0.79989,-0.1907 0.0419,0.002 0.041,-0.009 0.17622,0.0211 1.46578,0.0805 0.39897,0.14285 0.26689,0.032 17.56784,5.70814 9.71162,-13.3669 v -20.88166 l 0.0159,-0.10952 -0.0119,-0.11001 0.13597,-0.74274 0.10871,-0.74727 0.0465,-0.10043 0.0199,-0.10886 0.34196,-0.67321 0.31711,-0.68532 0.0732,-0.083 0.0501,-0.0987 0.51954,-0.54782 0.4993,-0.56662 0.0809,-0.0452 0.089,-0.0939 1.49664,-0.86281 0.22398,-0.0534 0.13905,-0.0776 21.71374,-7.05522 0.66305,-0.11361 0.65436,-0.156 0.19391,0.0107 0.1914,-0.0328 z m -18.5221,308.22042 -12.27393,16.89361 -0.49837,0.51111 -0.47202,0.53567 -0.12921,0.0809 -0.10644,0.10916 -0.6234,0.34796 -0.60502,0.37894 -0.14691,0.0408 -0.13314,0.0743 -0.69674,0.15592 -0.68787,0.19084 -0.15242,-0.003 -0.1488,0.0333 -0.35491,-0.0425 -1.07111,-0.0196 -0.55055,-0.17467 -0.33129,-0.0397 -17.56784,-5.70814 -8.29522,11.41739 8.29522,11.41739 17.56784,-5.70814 0.66305,-0.11361 0.65436,-0.156 0.19391,0.0107 0.1914,-0.0328 0.66794,0.08 0.67168,0.0369 0.18283,0.0655 0.19282,0.0231 0.61744,0.26701 0.63334,0.22676 0.1566,0.11484 0.17824,0.0771 0.27688,0.25667 0.78137,0.57301 0.38727,0.51036 0.25907,0.24016 13.41983,18.47081 0.17305,0.3293 0.22489,0.29636 0.0666,0.25829 0.33911,0.64528 0.34226,1.99748 v 18.47191 l 13.42195,4.36106 10.85752,-14.9441 0.57439,-0.58907 0.56594,-0.59674 0.0364,-0.021 0.0293,-0.0301 0.2585,-0.13585 1.17243,-0.6759 0.20817,-0.0496 0.15486,-0.0814 21.71374,-7.05522 0.66305,-0.11361 0.65436,-0.156 0.19391,0.0107 0.1914,-0.0328 0.66794,0.08 0.67168,0.0369 0.18283,0.0655 0.19282,0.0231 0.61744,0.26701 0.63334,0.22676 0.1566,0.11484 0.17824,0.0771 0.27688,0.25667 0.78137,0.57301 0.38727,0.51036 0.25907,0.24016 10.85752,14.9441 13.42194,-4.36106 v -14.11266 l -17.56784,-5.70814 -0.37073,-0.18304 -0.39408,-0.12503 -0.37637,-0.25537 -0.40784,-0.20136 -0.30319,-0.28107 -0.34214,-0.23214 -0.28803,-0.35205 -0.33354,-0.3092 -0.21054,-0.35581 -0.26181,-0.31999 -0.17577,-0.41949 -0.23164,-0.39145 -0.0602,-0.30513 -0.19998,-0.47725 -0.12845,-1.18621 -0.0615,-0.31175 v -20.88166 l -9.71162,-13.3669 -17.56784,5.70814 -1.70272,0.29175 -1.71527,-0.20549 -1.58562,-0.68569 -1.70459,-1.5802 -10.85752,-14.9441 z m 215.11529,-56.98962 -0.49837,0.51111 -0.47202,0.53567 -0.12921,0.0809 -0.10644,0.10916 -0.62337,0.34794 -0.60505,0.37896 -0.14693,0.0408 -0.13311,0.0743 -0.69666,0.15591 -0.68796,0.19086 -0.15242,-0.003 -0.1488,0.0333 -0.35491,-0.0425 -1.07111,-0.0196 -0.55055,-0.17467 -0.33129,-0.0397 -19.85964,-6.45279 -15.71374,5.10571 v 18.47191 l -0.2487,1.70954 -0.72547,1.56782 -1.14212,1.29613 -2.02961,1.13285 -17.56784,5.70814 v 16.52241 l 12.27393,16.89361 0.17305,0.3293 0.22489,0.29636 0.0666,0.25829 0.33911,0.64528 0.33462,1.69481 -0.0188,0.19993 0.0265,0.10274 -0.10277,0.70644 -0.067,0.7108 -0.0531,0.11472 -0.0258,0.17758 -0.72547,1.56782 -0.11866,0.13466 -0.0531,0.11469 -10.85753,14.9441 8.29522,11.41739 13.42195,-4.36106 v -18.47192 l 0.0159,-0.10952 -0.0119,-0.11001 0.13597,-0.74274 0.10871,-0.74727 0.0465,-0.10043 0.0199,-0.10886 0.34196,-0.67321 0.31711,-0.68532 0.0732,-0.083 0.0501,-0.0987 0.51954,-0.54782 0.4993,-0.56662 0.0809,-0.0452 0.089,-0.0939 1.49664,-0.86281 0.22398,-0.0534 0.13905,-0.0776 21.71374,-7.05522 0.66305,-0.11361 0.65436,-0.156 0.19391,0.0107 0.1914,-0.0328 0.47848,0.0696 0.86114,0.0473 0.36673,0.1313 0.29913,0.0435 17.56784,5.70814 8.29522,-11.41739 -10.85753,-14.9441 -0.12208,-0.2323 -0.16619,-0.20313 -0.23387,-0.55814 -0.2815,-0.53566 -0.0395,-0.23034 -0.11279,-0.26918 -0.11448,-1.05724 -0.0755,-0.44072 v -22.83117 l 0.0159,-0.10952 -0.0119,-0.11001 0.13597,-0.74274 0.10871,-0.74727 0.0465,-0.10043 0.0199,-0.10886 0.34196,-0.67321 0.31711,-0.68532 0.0732,-0.083 0.0501,-0.0987 0.51954,-0.54782 0.4993,-0.56662 0.0809,-0.0452 0.089,-0.0939 1.49664,-0.86281 0.22398,-0.0534 0.13905,-0.0776 17.56784,-5.70814 V 701.1823 l -13.42194,-4.36106 z m -134.26245,7.88777 v 18.47192 l -0.2487,1.70954 -0.72547,1.56782 -1.14212,1.29613 -2.02961,1.13285 -17.56783,5.70814 v 16.5224 l 9.71162,13.3669 17.56784,-5.70814 0.66305,-0.11361 0.65436,-0.156 0.19391,0.0107 0.1914,-0.0328 0.66794,0.08 0.67168,0.0369 0.18283,0.0655 0.19282,0.0231 0.61744,0.26701 0.63334,0.22676 0.1566,0.11484 0.17824,0.0771 0.27688,0.25667 0.78137,0.57301 0.38727,0.51036 0.25907,0.24016 10.85752,14.9441 13.42195,-4.36106 v -18.47192 l 0.0159,-0.10952 -0.0119,-0.11001 0.13597,-0.74274 0.10871,-0.74727 0.0465,-0.10043 0.0199,-0.10886 0.34196,-0.67321 0.31711,-0.68532 0.0732,-0.083 0.0501,-0.0987 0.51954,-0.54782 0.4993,-0.56662 0.0809,-0.0452 0.089,-0.0939 1.49664,-0.86281 0.22398,-0.0534 0.13905,-0.0776 17.56783,-5.70814 v -16.5224 l -9.71162,-13.3669 -17.56784,5.70814 -1.70272,0.29175 -1.71527,-0.20549 -1.58562,-0.68569 -1.70459,-1.5802 -10.85752,-14.9441 z m -55.4309,-156.48609 10.85753,14.9441 0.80364,1.52923 0.33462,1.69481 -0.16214,1.71991 -0.97612,2.10947 -10.85752,14.94409 10.85752,14.9441 0.80364,1.52923 0.33462,1.69481 -0.16214,1.71991 -0.97612,2.10947 -13.41983,18.47081 -1.20604,1.23687 -1.50847,0.84197 -1.68583,0.37727 -2.30786,-0.27648 -17.56785,-5.70814 -10.85752,14.9441 -1.20604,1.23687 -1.50847,0.84197 -1.68583,0.37727 -2.30786,-0.27648 -17.56784,-5.70814 -8.29521,11.41739 8.29521,11.41738 17.56784,-5.70814 0.66305,-0.11361 0.65436,-0.156 0.19391,0.0107 0.1914,-0.0328 0.66794,0.08 0.67168,0.0369 0.18283,0.0655 0.19282,0.0231 0.61744,0.26701 0.63334,0.22676 0.1566,0.11484 0.17824,0.0771 0.27688,0.25667 0.78137,0.57301 0.38727,0.51036 0.25907,0.24016 10.85752,14.9441 17.56785,-5.70814 0.66305,-0.11361 0.65436,-0.156 0.19391,0.0107 0.1914,-0.0328 0.66794,0.08 0.67168,0.0369 0.18283,0.0655 0.19282,0.0231 0.61744,0.26701 0.63334,0.22676 0.1566,0.11484 0.17824,0.0771 0.27688,0.25667 0.78137,0.57301 0.38727,0.51036 0.25907,0.24016 13.41983,18.47081 0.17305,0.3293 0.22489,0.29636 0.0666,0.25829 0.33911,0.64528 0.33462,1.69481 -0.0189,0.19993 0.0265,0.10274 -0.10277,0.70644 -0.067,0.7108 -0.0531,0.11472 -0.0258,0.17758 -0.72547,1.56782 -0.11866,0.13466 -0.0531,0.11469 -10.85753,14.9441 10.85753,14.9441 0.17305,0.3293 0.22489,0.29636 0.0666,0.25829 0.33911,0.64528 0.33462,1.69481 -0.0189,0.19993 0.0265,0.10274 -0.10277,0.70644 -0.067,0.7108 -0.0531,0.11472 -0.0258,0.17758 -0.72547,1.56782 -0.11866,0.13466 -0.0531,0.11469 -10.85752,14.94409 8.29521,11.41739 13.42195,-4.36106 v -18.47191 l 0.2487,-1.70954 0.72547,-1.56782 1.14212,-1.29613 2.02961,-1.13285 17.56783,-5.70814 v -18.47192 l 0.2487,-1.70954 0.72547,-1.56782 1.14212,-1.29613 2.02961,-1.13285 21.71374,-7.05522 1.70272,-0.29175 1.71527,0.20549 1.58562,0.68569 1.70459,1.5802 10.85752,14.9441 17.56785,-5.70814 1.70272,-0.29175 1.71527,0.20549 1.58562,0.68569 1.70459,1.5802 10.85751,14.9441 13.42195,-4.36106 v -14.11266 l -17.56784,-5.70814 -0.37073,-0.18304 -0.39408,-0.12503 -0.37637,-0.25537 -0.40784,-0.20136 -0.30319,-0.28107 -0.34214,-0.23214 -0.28803,-0.35205 -0.33354,-0.3092 -0.21054,-0.35581 -0.26181,-0.31999 -0.17577,-0.41949 -0.23164,-0.39145 -0.0602,-0.30513 -0.19998,-0.47725 -0.12845,-1.18621 -0.0616,-0.31175 v -18.47192 l -17.56783,-5.70814 -0.37073,-0.18304 -0.39408,-0.12503 -0.37637,-0.25537 -0.40784,-0.20136 -0.30319,-0.28107 -0.34214,-0.23214 -0.28803,-0.35205 -0.33354,-0.3092 -0.21054,-0.35581 -0.26181,-0.31999 -0.17577,-0.41949 -0.23164,-0.39145 -0.0602,-0.30513 -0.19998,-0.47725 -0.12845,-1.18621 -0.0616,-0.31175 v -22.83117 l 0.0159,-0.10952 -0.0119,-0.11001 0.13597,-0.74274 0.10871,-0.74727 0.0465,-0.10043 0.0199,-0.10886 0.34196,-0.67321 0.31711,-0.68532 0.0732,-0.083 0.0501,-0.0987 0.51954,-0.54782 0.4993,-0.56662 0.0809,-0.0452 0.089,-0.0939 1.49664,-0.86281 0.22398,-0.0534 0.13905,-0.0776 17.56783,-5.70814 v -18.47192 l 0.0159,-0.10952 -0.0119,-0.11001 0.13597,-0.74274 0.10871,-0.74727 0.0465,-0.10043 0.0199,-0.10886 0.34196,-0.67321 0.31711,-0.68532 0.0732,-0.083 0.0501,-0.0987 0.51954,-0.54782 0.4993,-0.56662 0.0809,-0.0452 0.089,-0.0939 1.49664,-0.86281 0.22398,-0.0534 0.13905,-0.0776 17.56784,-5.70814 v -14.11265 l -13.42195,-4.36106 -10.85751,14.94409 -0.49837,0.51111 -0.47202,0.53567 -0.12921,0.0809 -0.10644,0.10916 -0.62337,0.34794 -0.60505,0.37896 -0.14693,0.0408 -0.13311,0.0743 -0.69666,0.15591 -0.68796,0.19086 -0.15242,-0.003 -0.1488,0.0333 -0.35491,-0.0425 -1.07111,-0.0196 -0.55055,-0.17467 -0.33129,-0.0397 -17.56785,-5.70814 -10.85752,14.9441 -0.49837,0.51111 -0.47202,0.53567 -0.12921,0.0809 -0.10644,0.10916 -0.6234,0.34796 -0.60502,0.37894 -0.14691,0.0408 -0.13314,0.0743 -0.69674,0.15592 -0.68787,0.19084 -0.15242,-0.003 -0.1488,0.0333 -0.35491,-0.0425 -1.07111,-0.0196 -0.55055,-0.17467 -0.33129,-0.0397 -21.71374,-7.05522 -0.37073,-0.18304 -0.39408,-0.12503 -0.37637,-0.25537 -0.40784,-0.20136 -0.30319,-0.28107 -0.34214,-0.23214 -0.28803,-0.35205 -0.33354,-0.3092 -0.21054,-0.35581 -0.26181,-0.31999 -0.17577,-0.41949 -0.23164,-0.39145 -0.0602,-0.30513 -0.19998,-0.47725 -0.12845,-1.18621 -0.0616,-0.31175 v -18.47192 l -17.56783,-5.70814 -0.37073,-0.18304 -0.39408,-0.12503 -0.37637,-0.25537 -0.40784,-0.20136 -0.30319,-0.28107 -0.34214,-0.23214 -0.28803,-0.35205 -0.33354,-0.3092 -0.21054,-0.35581 -0.26181,-0.31999 -0.17577,-0.41949 -0.23164,-0.39145 -0.0602,-0.30513 -0.19998,-0.47725 -0.12845,-1.18621 -0.0616,-0.31175 v -18.47191 l -13.42195,-4.36106 z m -60.5555,120.28912 -9.71163,13.3669 10.85753,14.9441 0.80364,1.52923 0.33462,1.69481 -0.16214,1.71991 -0.97612,2.10947 -10.85753,14.9441 8.29522,11.41739 17.56784,-5.70814 1.70272,-0.29175 1.71527,0.20549 1.58562,0.68569 1.70459,1.5802 10.85752,14.94409 15.71375,-5.10571 9.71162,-13.36689 -10.85752,-14.9441 -0.12208,-0.2323 -0.16619,-0.20313 -0.23387,-0.55814 -0.2815,-0.53566 -0.0508,-0.25746 -0.10143,-0.24206 -0.0651,-0.60162 -0.11721,-0.59367 0.0246,-0.26129 -0.0282,-0.26091 0.10896,-0.59521 0.0568,-0.6025 0.0885,-0.19129 0.0568,-0.3103 0.78235,-1.54022 0.0335,-0.0353 0.015,-0.0324 10.85753,-14.9441 -8.29522,-11.41739 -17.56785,5.70814 -0.55577,0.0952 -0.54335,0.15074 -0.30395,-0.006 -0.29965,0.0513 -0.55987,-0.0671 -0.56377,-0.0103 -0.28978,-0.0919 -0.30185,-0.0362 -0.51752,-0.2238 -0.5375,-0.17053 -0.25159,-0.17071 -0.27901,-0.12065 -0.27623,-0.25607 -0.62271,-0.42251 -0.52421,-0.64071 -0.28144,-0.26091 -10.85752,-14.9441 z m -66.55893,-78.98714 10.85752,14.9441 0.17305,0.3293 0.22489,0.29636 0.06659,0.25829 0.33911,0.64528 0.33462,1.69481 -0.01885,0.19993 0.02649,0.10274 -0.10277,0.70644 -0.06701,0.7108 -0.05309,0.11472 -0.02583,0.17758 -0.72547,1.56782 -0.11866,0.13466 -0.05307,0.11469 -13.41982,18.47081 -0.49837,0.51111 -0.47202,0.53567 -0.12921,0.0809 -0.10644,0.10916 -0.42154,0.22153 -0.80688,0.50537 -0.32788,0.091 -0.23766,0.1249 -17.56784,5.70814 v 14.11265 l 17.56784,5.70814 1.54902,0.7648 1.45098,1.41483 13.41982,18.47081 0.80364,1.52923 0.33462,1.69481 -0.16214,1.71991 -0.97612,2.10947 -10.85752,14.9441 8.29522,11.41739 13.42194,-4.36106 V 703.8786 l 0.2487,-1.70954 0.72547,-1.56782 1.14212,-1.29613 2.02961,-1.13285 19.85964,-6.45279 9.71162,-13.3669 -10.85752,-14.94409 -0.80364,-1.52922 -0.33462,-1.69482 0.16214,-1.71991 0.97612,-2.10947 10.85753,-14.9441 -9.71163,-13.3669 -19.85964,-6.45279 -0.37073,-0.18304 -0.39408,-0.12503 -0.37637,-0.25537 -0.40784,-0.20136 -0.30319,-0.28107 -0.34214,-0.23214 -0.28803,-0.35205 -0.33354,-0.3092 -0.21054,-0.35581 -0.26181,-0.31999 -0.17577,-0.41949 -0.23164,-0.39145 -0.0602,-0.30513 -0.19998,-0.47725 -0.12845,-1.18621 -0.0616,-0.31175 v -18.47192 l -13.42194,-4.36106 z m 252.81246,18.4697 v 18.47192 l -0.2487,1.70954 -0.72547,1.56782 -1.14212,1.29613 -1.46407,0.91699 -0.35551,0.0986 -0.21003,0.11723 -17.56783,5.70814 v 14.11265 l 17.56783,5.70814 0.46861,0.23137 0.49196,0.17614 0.2786,0.20431 0.30985,0.15298 0.38327,0.35531 0.42137,0.309 0.20886,0.27524 0.2534,0.23491 0.26613,0.44974 0.31589,0.41629 0.0537,0.20831 0.24403,0.4124 0.45022,2.28034 v 18.47192 l 15.71374,5.10571 15.71374,-5.10571 v -18.47192 l 0.2487,-1.70954 0.72547,-1.56782 1.14212,-1.29613 2.02961,-1.13285 17.56784,-5.70814 v -14.11265 l -17.56784,-5.70814 -1.54902,-0.7648 -1.2669,-1.17446 -0.87976,-1.48674 -0.45022,-2.28034 v -18.47192 l -15.71374,-5.10571 z m -163.3939,-44.82939 -0.49837,0.51111 -0.47202,0.53567 -0.12921,0.0809 -0.10644,0.10916 -0.6234,0.34796 -0.60502,0.37894 -0.14691,0.0408 -0.13314,0.0743 -0.69674,0.15592 -0.68787,0.19084 -0.15242,-0.003 -0.1488,0.0333 -0.35491,-0.0425 -1.07111,-0.0196 -0.55055,-0.17467 -0.33129,-0.0397 -17.56784,-5.70814 -8.29522,11.41739 10.85753,14.9441 0.17305,0.3293 0.22489,0.29636 0.0666,0.25829 0.33911,0.64528 0.33462,1.69481 -0.0189,0.19993 0.0265,0.10274 -0.10277,0.70644 -0.067,0.7108 -0.0531,0.11472 -0.0258,0.17758 -0.72547,1.56782 -0.11866,0.13466 -0.0531,0.11469 -10.85753,14.9441 9.71163,13.3669 15.71374,5.10571 10.85752,-14.9441 1.20604,-1.23687 1.50847,-0.84197 1.68583,-0.37727 2.30786,0.27648 17.56785,5.70814 8.29522,-11.41739 -10.85753,-14.9441 -0.80364,-1.52923 -0.33462,-1.69481 0.16214,-1.71991 0.97612,-2.10947 10.85752,-14.94409 -9.71162,-13.3669 -15.71375,-5.10571 z m 164.8103,-56.24428 10.85753,14.9441 0.80364,1.52923 0.33462,1.69481 -0.16214,1.71991 -0.97612,2.10947 -12.27393,16.89361 v 16.52241 l 17.56784,5.70814 0.46861,0.23137 0.49196,0.17614 0.2786,0.20431 0.30985,0.15298 0.38327,0.35531 0.42137,0.309 0.20886,0.27524 0.2534,0.23491 0.26613,0.44974 0.31589,0.41629 0.0537,0.20831 0.24403,0.4124 0.45022,2.28034 v 18.47191 l 15.71374,5.10571 19.85964,-6.45279 1.70272,-0.29175 1.71527,0.20549 1.58562,0.68569 1.70459,1.5802 10.85752,14.9441 13.42194,-4.36106 v -14.11266 l -17.56784,-5.70814 -1.54902,-0.7648 -1.2669,-1.17446 -0.87976,-1.48674 -0.45022,-2.28034 v -22.83117 l 0.2487,-1.70954 0.8972,-1.81717 10.85753,-14.9441 -8.29522,-11.41739 -17.56784,5.70814 -1.70272,0.29175 -2.00548,-0.29175 -21.71374,-7.05522 -1.54902,-0.7648 -1.2669,-1.17446 -0.87976,-1.48674 -0.45022,-2.28034 v -18.47192 l -13.42195,-4.36106 z m -59.4096,21.99752 -1.20604,1.23687 -1.50847,0.84197 -1.68583,0.37727 -2.30786,-0.27648 -17.56784,-5.70814 -9.71162,13.3669 v 16.52241 l 17.56783,5.70814 0.46861,0.23137 0.49196,0.17614 0.2786,0.20431 0.30985,0.15298 0.38327,0.35531 0.42137,0.309 0.20886,0.27524 0.2534,0.23491 0.26613,0.44974 0.31589,0.41629 0.0537,0.20831 0.24403,0.4124 0.45022,2.28034 v 18.47191 l 13.42195,4.36106 10.85752,-14.9441 0.57439,-0.58907 0.56594,-0.59674 0.0364,-0.021 0.0294,-0.0301 0.7187,-0.40115 0.71223,-0.4106 0.0408,-0.01 0.0367,-0.0205 0.80301,-0.1797 0.79989,-0.1907 0.0419,0.002 0.041,-0.009 0.17622,0.0211 1.46578,0.0806 0.39897,0.14285 0.26689,0.032 17.56785,5.70814 9.71161,-13.36689 v -16.52241 l -17.56783,-5.70814 -1.54902,-0.7648 -1.2669,-1.17446 -0.87976,-1.48674 -0.45022,-2.28034 v -18.47192 l -13.42195,-4.36106 z m -90.83497,-65.99546 v 18.47191 l -0.2487,1.70954 -0.72547,1.56782 -0.11057,0.12548 -0.0612,0.12387 -13.41983,18.47081 -0.49837,0.51111 -0.47202,0.53567 -0.12921,0.0809 -0.10644,0.10916 -0.6234,0.34796 -0.60502,0.37894 -0.14691,0.0408 -0.13314,0.0743 -0.69674,0.15592 -0.68787,0.19084 -0.15242,-0.003 -0.1488,0.0333 -0.35491,-0.0425 -1.07111,-0.0196 -0.55055,-0.17467 -0.33129,-0.0397 -17.56784,-5.70814 -8.29522,11.41739 8.29522,11.41739 17.56784,-5.70814 0.66305,-0.11361 0.65436,-0.156 0.19391,0.0107 0.1914,-0.0328 0.66794,0.08 0.67168,0.0369 0.18283,0.0655 0.19282,0.0231 0.61744,0.26701 0.63334,0.22676 0.1566,0.11484 0.17824,0.0771 0.27688,0.25667 0.78137,0.57301 0.38727,0.51036 0.25907,0.24016 12.27393,16.89361 15.71375,5.10571 10.85752,-14.9441 1.20604,-1.23687 1.50847,-0.84197 1.68583,-0.37727 2.30786,0.27648 17.56784,5.70814 9.71162,-13.3669 v -20.88166 l 0.0159,-0.10952 -0.0119,-0.11001 0.13597,-0.74274 0.10871,-0.74727 0.0465,-0.10043 0.0199,-0.10886 0.34196,-0.67321 0.31711,-0.68532 0.0732,-0.083 0.0501,-0.0987 0.51954,-0.54782 0.4993,-0.56662 0.0809,-0.0452 0.089,-0.0939 1.49664,-0.86281 0.22398,-0.0534 0.13905,-0.0776 17.56784,-5.70814 v -14.11266 l -13.42194,-4.36106 -10.85752,14.9441 -0.49837,0.51111 -0.47202,0.53567 -0.12921,0.0809 -0.10644,0.10916 -0.62337,0.34794 -0.60505,0.37896 -0.14693,0.0408 -0.13311,0.0743 -0.69666,0.15591 -0.68796,0.19086 -0.15242,-0.003 -0.1488,0.0333 -0.35491,-0.0425 -1.07111,-0.0196 -0.55055,-0.17467 -0.33129,-0.0397 -21.71374,-7.05522 -0.37073,-0.18304 -0.39408,-0.12503 -0.37637,-0.25537 -0.40784,-0.20136 -0.25407,-0.24774 -0.39126,-0.26547 -0.46948,-0.57383 -0.33617,-0.32779 -10.85752,-14.9441 z"
     stroke-miterlimit="10"
     id="path3" />
  <path
     fill="#222222"
     stroke="#cccccc"
     paint-order="fill stroke markers"
     d="m 687.14108,457.24382 1.58562,0.68569 1.70459,1.5802 16.56266,22.79655 26.79895,-8.70751 0.66305,-0.11361 0.65436,-0.156 0.19391,0.0107 0.1914,-0.0328 0.66794,0.08 0.67168,0.0369 0.18283,0.0655 0.19282,0.0231 0.61744,0.26701 0.63334,0.22676 0.1566,0.11484 0.17824,0.0771 0.27688,0.25667 0.78137,0.57301 0.38727,0.51036 0.25907,0.24016 30.94484,42.59192 0.17305,0.3293 0.22489,0.29636 0.008,0.0296 0.0321,0.0435 0.1544,0.42785 0.21158,0.40261 0.0801,0.40559 0.14035,0.38892 0.0669,0.66099 0.0472,0.23931 -0.0111,0.11768 0.0187,0.18499 v 48.28725 l 45.92391,14.92159 0.64024,0.3161 0.65517,0.28333 0.0927,0.0859 0.16094,0.0795 1.2669,1.17446 0.0914,0.15444 0.0927,0.0859 30.94484,42.59192 0.80364,1.52923 0.33462,1.69481 -0.16214,1.71991 -0.97612,2.10947 -16.56266,22.79654 16.56266,22.79655 0.17305,0.3293 0.22489,0.29636 0.0666,0.25829 0.33911,0.64528 0.33462,1.69481 -0.0188,0.19993 0.0265,0.10274 -0.10277,0.70644 -0.067,0.7108 -0.0531,0.11472 -0.0258,0.17758 -0.72547,1.56782 -0.11866,0.13466 -0.0531,0.11469 -30.94484,42.59192 -0.49837,0.51111 -0.47202,0.53567 -0.12921,0.0809 -0.10644,0.10916 -0.62334,0.34792 -0.60508,0.37898 -0.14695,0.0408 -0.1331,0.0743 -0.17511,0.0392 -0.11038,0.0616 -45.92391,14.92158 v 48.28725 l -0.10277,0.70644 -0.067,0.7108 -0.0531,0.11472 -0.0258,0.17758 -0.72547,1.56782 -0.11866,0.13466 -0.0531,0.11469 -30.94484,42.59192 -1.20604,1.23687 -1.50847,0.84196 -1.68583,0.37728 -2.30786,-0.27648 -26.79895,-8.7075 -16.56266,22.79654 -0.49837,0.51111 -0.47202,0.53567 -0.12921,0.0809 -0.10644,0.10916 -0.62334,0.34792 -0.60508,0.37898 -0.14695,0.0408 -0.1331,0.0743 -0.69663,0.1559 -0.68798,0.19087 -0.15243,-0.003 -0.14879,0.0333 -0.35491,-0.0425 -1.07111,-0.0196 -0.55055,-0.17467 -0.33129,-0.0397 -50.0698,-16.26867 -0.37073,-0.18304 -0.39408,-0.12503 -0.37637,-0.25537 -0.40784,-0.20136 -0.30319,-0.28107 -0.34214,-0.23214 -0.44268,-0.49541 -0.17889,-0.16584 -0.0602,-0.10173 -0.12388,-0.13864 -28.38254,-39.06521 -45.92391,14.92159 -0.4075,0.0698 -0.39232,0.13049 -0.45461,0.0146 -0.44829,0.0768 -0.41049,-0.0492 -0.41325,0.0133 -0.64935,-0.1406 -0.24218,-0.029 -0.10848,-0.0469 -0.18173,-0.0394 -50.06981,-16.26867 -1.54902,-0.7648 -1.2669,-1.17446 -0.87976,-1.48674 -0.45022,-2.28034 V 769.3794 l -26.79894,-8.7075 -1.54902,-0.7648 -1.2669,-1.17446 -0.87976,-1.48674 -0.45022,-2.28034 v -52.64651 l 0.0159,-0.10952 -0.0119,-0.11001 0.10896,-0.59521 0.0568,-0.6025 0.0531,-0.11472 0.0258,-0.17758 0.0465,-0.10043 0.0199,-0.10886 0.34196,-0.67321 0.31711,-0.68532 0.0732,-0.083 0.0501,-0.0987 0.0335,-0.0353 0.015,-0.0324 28.38254,-39.06521 -28.38254,-39.06521 -0.12208,-0.2323 -0.16619,-0.20313 -0.17577,-0.41949 -0.23164,-0.39145 -0.0245,-0.12402 -0.0835,-0.15884 -0.0508,-0.25746 -0.10143,-0.24206 -0.0652,-0.60162 -0.11721,-0.59367 0.0168,-0.17866 -0.0245,-0.12401 v -52.64651 l 0.2487,-1.70954 0.72547,-1.56782 1.14212,-1.29613 2.02961,-1.13285 26.79894,-8.7075 v -28.17808 l 0.0159,-0.10952 -0.0119,-0.11001 0.13597,-0.74274 0.10871,-0.74727 0.0465,-0.10043 0.0199,-0.10886 0.34196,-0.67321 0.31711,-0.68532 0.0732,-0.083 0.0501,-0.0987 0.51954,-0.54782 0.4993,-0.56662 0.0809,-0.0452 0.089,-0.0939 1.49664,-0.86281 0.22398,-0.0534 0.13905,-0.0776 50.06981,-16.26867 0.4075,-0.0698 0.39232,-0.13049 0.26231,-0.008 0.25528,-0.0609 0.19391,0.0107 0.1914,-0.0328 0.41049,0.0492 0.41325,-0.0133 0.32619,0.0706 0.18969,0.0104 0.18283,0.0655 0.19282,0.0231 0.10848,0.0469 0.18173,0.0394 45.92391,14.92159 28.38254,-39.06521 0.28863,-0.296 0.2407,-0.33618 0.35917,-0.27903 0.31754,-0.32566 0.36103,-0.20151 0.32648,-0.25364 0.60792,-0.26791 0.21304,-0.11891 0.11537,-0.0258 0.17012,-0.075 50.0698,-16.26867 1.70272,-0.29175 z m -32.21728,382.90581 28.3616,9.21525 11.70855,-16.11545 -9.41676,-3.05969 z m 65.30643,-21.21934 -5.81987,8.01037 18.94485,6.15555 17.52843,-24.12582 z m -78.72284,-27.06791 v 40.02896 l 38.0698,-12.36963 v -40.02896 z m 50.0698,27.65933 10.83317,3.51991 6.69527,-9.21524 -17.52844,-24.12582 z m -102.43141,-43.18334 -18.94484,26.07533 32.5075,-10.56233 1.70272,-0.29175 1.71527,0.20549 1.58562,0.68569 1.70459,1.5802 20.09075,27.65254 v -32.23091 l -15.41676,-21.21934 z m 106.13961,-1.94952 23.52843,32.38411 38.06982,-12.36964 -23.52843,-32.38411 z m -164.32109,-3.15439 23.52844,32.38411 23.52844,-32.38411 -23.52844,-32.38411 z m -20.54137,21.96399 28.36161,9.21525 -18.94484,-26.07533 -9.41677,-3.0597 z m 115.6677,-28.86419 11.70855,16.11544 28.3616,-9.21524 -30.65339,-9.9599 z M 741.647,726.78771 v 26.22857 l 18.94484,26.07533 V 744.9112 l 0.0159,-0.10952 -0.0119,-0.11001 0.13597,-0.74274 0.10871,-0.74727 0.0465,-0.10043 0.0199,-0.10886 0.34196,-0.67321 0.31711,-0.68532 0.0732,-0.083 0.0501,-0.0987 0.51954,-0.54782 0.4993,-0.56662 0.0809,-0.0452 0.089,-0.0939 1.49664,-0.86281 0.22398,-0.0534 0.13905,-0.0776 32.5075,-10.56232 -30.6534,-9.9599 z m -231.22407,22.48275 v 11.39066 l 10.83318,3.51992 17.52843,-24.12583 z m 77.30644,14.91058 18.94485,-6.15556 -5.81988,-8.01037 -30.6534,-9.95989 z m 53.77802,-57.5025 v 43.928 l 41.77801,13.5745 25.82023,-35.5385 -25.82023,-35.5385 z m 78.72284,27.06791 -18.94484,26.07533 28.36161,-9.21525 v -19.91978 z m -240.75214,16.86008 18.94484,6.15556 v -9.90138 l -18.94484,-26.07533 z m 132.50086,-5.69533 6.69527,9.21525 10.83317,-3.51992 v -29.82116 z m -128.79266,-39.43753 23.52843,32.38411 38.06982,-12.36963 -23.52843,-32.38411 z m 77.30645,-25.11839 v 43.928 l 41.77801,13.5745 25.82023,-35.5385 -25.82023,-35.5385 z m 158.32108,41.23384 10.83318,-3.51992 v -11.39066 l -28.36161,-9.21525 z m 53.77802,-13.57451 38.06981,12.36964 V 680.35529 L 772.59184,667.98565 Z M 741.647,704.26879 v 9.90138 l 18.94484,-6.15556 v -29.82115 z m -210.6827,-18.21817 17.52844,24.12582 v -32.2309 l -5.81988,-8.01037 z m 291.69735,-8.10508 v 32.2309 l 17.52844,-24.12582 -11.70856,-16.11545 z m -210.6827,-18.21818 25.82023,35.5385 41.77801,-13.5745 v -43.928 l -41.77801,-13.5745 z m 79.59824,-21.96399 v 43.92799 l 41.77802,13.5745 25.82023,-35.5385 -25.82023,-35.5385 z m -182.30016,18.43728 0.17305,0.3293 0.22489,0.29636 0.0666,0.25829 0.33911,0.64528 0.33462,1.69481 -0.0189,0.19993 0.0265,0.10274 -0.10277,0.70644 -0.067,0.7108 -0.0531,0.11472 -0.0258,0.17758 -0.72547,1.56782 -0.11866,0.13466 -0.0531,0.11469 -20.09074,27.65254 30.65341,-9.9599 15.41676,-21.21935 -15.41676,-21.21934 -30.65341,-9.9599 z m 40.81224,3.52671 6.69526,9.21525 28.3616,-9.21525 -28.3616,-9.21524 z m 235.91898,0 28.36161,9.21525 6.69526,-9.21525 -6.69526,-9.21524 z M 560.49274,595.17144 v 43.928 l 41.77801,13.5745 25.82023,-35.5385 -25.82023,-35.5385 z m 212.0991,16.26867 v 40.02896 l 38.06981,-12.36963 v -40.02896 z m -241.62754,21.964 11.70856,16.11545 5.81988,-8.01037 v -32.2309 z m 291.69735,8.10508 5.81988,8.01037 11.70856,-16.11545 -17.52844,-24.12582 z M 741.647,615.18593 760.59184,641.26126 V 611.44011 L 741.647,605.28456 Z m -258.46071,-1.20488 38.06982,12.36964 23.52843,-32.38411 -38.06982,-12.36964 z m 158.3211,-45.13286 v 43.928 l 41.77801,13.5745 25.82023,-35.5385 -25.82023,-35.5385 z m 59.778,53.14324 28.36161,-9.21525 v -11.39066 l -10.83318,-3.51991 z M 741.647,566.43844 v 26.22857 l 24.94484,8.10507 30.6534,-9.95989 -32.5075,-10.56233 -1.54902,-0.7648 -1.2669,-1.17446 -0.87976,-1.48674 -0.45022,-2.28034 v -34.18041 z m -129.66805,8.10508 17.52844,24.12583 v -29.82116 l -10.83318,-3.51991 z m -132.50086,-5.69533 v 29.82115 l 18.94484,-26.07533 v -9.90137 z m 240.75214,16.86009 9.41677,3.0597 v -19.91979 l -28.36162,-9.21525 z m -189.26593,-37.48801 23.52844,32.38411 23.52844,-32.38411 -23.52844,-32.38412 z m -20.54137,10.57333 v 11.39066 l 28.36161,9.21525 -17.52843,-24.12582 z m 59.77801,20.60591 30.6534,-9.9599 5.81988,-8.01037 -18.94485,-6.15555 z m 55.88968,-24.27904 9.41677,3.05969 30.6534,-9.95989 -28.36161,-9.21525 z m 69.19477,-10.05459 38.06982,12.36963 23.52843,-32.38411 -38.06982,-12.36964 z m -85.86875,-19.64216 -1.20604,1.23687 -1.50847,0.84197 -1.68583,0.37727 -2.30786,-0.27648 -32.5075,-10.56233 18.94484,26.07534 24.94485,8.10507 15.41676,-21.21934 v -32.23091 z m -98.99371,0.83255 v 19.91979 l 9.41677,-3.0597 18.94484,-26.07534 z m 131.08446,1.33607 38.0698,12.36963 v -40.02896 l -38.0698,-12.36963 z m 50.0698,-27.65932 v 29.82115 l 17.52844,-24.12583 -6.69527,-9.21524 z m 22.83317,-7.41895 5.81987,8.01036 30.65341,9.9599 -17.52843,-24.12582 z m -59.48657,-13.20898 30.6534,9.9599 9.41677,-3.0597 -11.70856,-16.11545 z"
     stroke-miterlimit="10"
     id="path4" />
</svg>
