  0
SECTION
  2
HEADER
  9
$ACADVER
  1
AC1014
  9
$HANDSEED
  5
FFFF
  9
$INSUNITS
 70
     4
  9
$MEASUREMENT
 70
     1
  0
ENDSEC
  0
SECTION
  2
TABLES
  0
TABLE
  2
VPORT
  5
8
330
0
100
AcDbSymbolTable
 70
     4
  0
VPORT
  5
2E
330
8
100
AcDbSymbolTableRecord
100
AcDbViewportTableRecord
  2
*ACTIVE
 70
     0
 10
0.0
 20
0.0
 11
1.0
 21
1.0
 12
210.0
 22
148.5
 13
0.0
 23
0.0
 14
10.0
 24
10.0
 15
10.0
 25
10.0
 16
0.0
 26
0.0
 36
1.0
 17
0.0
 27
0.0
 37
0.0
 40
341.0
 41
1.24
 42
50.0
 43
0.0
 44
0.0
 50
0.0
 51
0.0
 71
     0
 72
   100
 73
     1
 74
     3
 75
     0
 76
     0
 77
     0
 78
     0
  0
ENDTAB
  0
TABLE
  2
LTYPE
  5
5
330
0
100
AcDbSymbolTable
 70
     1
  0
LTYPE
  5
14
330
5
100
AcDbSymbolTableRecord
100
AcDbLinetypeTableRecord
  2
BYBLOCK
 70
     0
  3

 72
    65
 73
     0
 40
0.0
  0
LTYPE
  5
15
330
5
100
AcDbSymbolTableRecord
100
AcDbLinetypeTableRecord
  2
BYLAYER
 70
     0
  3

 72
    65
 73
     0
 40
0.0
  0
LTYPE
  5
16
330
5
100
AcDbSymbolTableRecord
100
AcDbLinetypeTableRecord
  2
CONTINUOUS
 70
     0
  3
Solid line
 72
    65
 73
     0
 40
0.0
  0
ENDTAB
  0
TABLE
  2
LAYER
  5
2
100
AcDbSymbolTable
 70
5
  0
LAYER
  5
50
100
AcDbSymbolTableRecord
100
AcDbLayerTableRecord
  2
0
 70
0
  6
CONTINUOUS
  0
LAYER
  5
51
100
AcDbSymbolTableRecord
100
AcDbLayerTableRecord
  2
Layer_1
 70
0
  6
CONTINUOUS
  0
LAYER
  5
52
100
AcDbSymbolTableRecord
100
AcDbLayerTableRecord
  2
Layer_2
 70
0
  6
CONTINUOUS
  0
LAYER
  5
53
100
AcDbSymbolTableRecord
100
AcDbLayerTableRecord
  2
Layer_3
 70
0
  6
CONTINUOUS
  0
LAYER
  5
54
100
AcDbSymbolTableRecord
100
AcDbLayerTableRecord
  2
Layer_4
 70
0
  6
CONTINUOUS
  0
ENDTAB
  0
TABLE
  2
STYLE
  5
3
330
0
100
AcDbSymbolTable
 70
     1
  0
STYLE
  5
11
330
3
100
AcDbSymbolTableRecord
100
AcDbTextStyleTableRecord
  2
STANDARD
 70
     0
 40
0.0
 41
1.0
 50
0.0
 71
     0
 42
2.5
  3
txt
  4

  0
ENDTAB
  0
TABLE
  2
VIEW
  5
6
330
0
100
AcDbSymbolTable
 70
     0
  0
ENDTAB
  0
TABLE
  2
UCS
  5
7
330
0
100
AcDbSymbolTable
 70
     0
  0
ENDTAB
  0
TABLE
  2
APPID
  5
9
330
0
100
AcDbSymbolTable
 70
     2
  0
APPID
  5
12
330
9
100
AcDbSymbolTableRecord
100
AcDbRegAppTableRecord
  2
ACAD
 70
     0
  0
ENDTAB
  0
TABLE
  2
DIMSTYLE
  5
A
330
0
100
AcDbSymbolTable
 70
     1
  0
DIMSTYLE
105
27
330
A
100
AcDbSymbolTableRecord
100
AcDbDimStyleTableRecord
  2
ISO-25
 70
     0
  3

  4

  5

  6

  7

 40
1.0
 41
2.5
 42
0.625
 43
3.75
 44
1.25
 45
0.0
 46
0.0
 47
0.0
 48
0.0
140
2.5
141
2.5
142
0.0
143
0.03937007874016
144
1.0
145
0.0
146
1.0
147
0.625
 71
     0
 72
     0
 73
     0
 74
     0
 75
     0
 76
     0
 77
     1
 78
     8
170
     0
171
     3
172
     1
173
     0
174
     0
175
     0
176
     0
177
     0
178
     0
270
     2
271
     2
272
     2
273
     2
274
     3
340
11
275
     0
280
     0
281
     0
282
     0
283
     0
284
     8
285
     0
286
     0
287
     3
288
     0
  0
ENDTAB
  0
TABLE
  2
BLOCK_RECORD
  5
1
330
0
100
AcDbSymbolTable
 70
     1
  0
BLOCK_RECORD
  5
1F
330
1
100
AcDbSymbolTableRecord
100
AcDbBlockTableRecord
  2
*MODEL_SPACE
  0
BLOCK_RECORD
  5
1B
330
1
100
AcDbSymbolTableRecord
100
AcDbBlockTableRecord
  2
*PAPER_SPACE
  0
ENDTAB
  0
ENDSEC
  0
SECTION
  2
BLOCKS
  0
BLOCK
  5
20
330
1F
100
AcDbEntity
  8
0
100
AcDbBlockBegin
  2
*MODEL_SPACE
 70
     0
 10
0.0
 20
0.0
 30
0.0
  3
*MODEL_SPACE
  1

  0
ENDBLK
  5
21
330
1F
100
AcDbEntity
  8
0
100
AcDbBlockEnd
  0
BLOCK
  5
1C
330
1B
100
AcDbEntity
 67
     1
  8
0
100
AcDbBlockBegin
  2
*PAPER_SPACE
  1

  0
ENDBLK
  5
1D
330
1B
100
AcDbEntity
 67
     1
  8
0
100
AcDbBlockEnd
  0
ENDSEC
  0
SECTION
  2
ENTITIES
  0
LWPOLYLINE
  5
100
100
AcDbEntity
  8
Layer_4
 62
7
100
AcDbPolyline
 90
223
 70
1
 10
126.098850
 20
172.634323
 30
0.0
 10
126.518379
 20
172.452900
 30
0.0
 10
126.969385
 20
172.034806
 30
0.0
 10
131.351589
 20
166.003219
 30
0.0
 10
138.442144
 20
168.307081
 30
0.0
 10
138.617576
 20
168.337140
 30
0.0
 10
138.790709
 20
168.378415
 30
0.0
 10
138.842014
 20
168.375584
 30
0.0
 10
138.892656
 20
168.384262
 30
0.0
 10
139.069382
 20
168.363096
 30
0.0
 10
139.247097
 20
168.353333
 30
0.0
 10
139.295471
 20
168.336002
 30
0.0
 10
139.346488
 20
168.329890
 30
0.0
 10
139.509852
 20
168.259244
 30
0.0
 10
139.677423
 20
168.199247
 30
0.0
 10
139.718857
 20
168.168862
 30
0.0
 10
139.766016
 20
168.148463
 30
0.0
 10
139.839274
 20
168.080552
 30
0.0
 10
140.046012
 20
167.928944
 30
0.0
 10
140.148477
 20
167.793911
 30
0.0
 10
140.217022
 20
167.730368
 30
0.0
 10
148.404511
 20
156.461256
 30
0.0
 10
148.450297
 20
156.374129
 30
0.0
 10
148.509799
 20
156.295717
 30
0.0
 10
148.511916
 20
156.287885
 30
0.0
 10
148.520409
 20
156.276376
 30
0.0
 10
148.561261
 20
156.163174
 30
0.0
 10
148.617241
 20
156.056650
 30
0.0
 10
148.638435
 20
155.949338
 30
0.0
 10
148.675569
 20
155.846436
 30
0.0
 10
148.693270
 20
155.671549
 30
0.0
 10
148.705758
 20
155.608232
 30
0.0
 10
148.702821
 20
155.577096
 30
0.0
 10
148.707769
 20
155.528150
 30
0.0
 10
148.707769
 20
142.752149
 30
0.0
 10
160.858470
 20
138.804145
 30
0.0
 10
161.027867
 20
138.720510
 30
0.0
 10
161.201214
 20
138.645545
 30
0.0
 10
161.225741
 20
138.622818
 30
0.0
 10
161.268323
 20
138.601783
 30
0.0
 10
161.603523
 20
138.291041
 30
0.0
 10
161.627706
 20
138.250179
 30
0.0
 10
161.652233
 20
138.227451
 30
0.0
 10
169.839722
 20
126.958339
 30
0.0
 10
170.052352
 20
126.553730
 30
0.0
 10
170.140887
 20
126.105311
 30
0.0
 10
170.097987
 20
125.650252
 30
0.0
 10
169.839722
 20
125.092121
 30
0.0
 10
165.457518
 20
119.060537
 30
0.0
 10
169.839722
 20
113.028950
 30
0.0
 10
169.885508
 20
112.941822
 30
0.0
 10
169.945010
 20
112.863410
 30
0.0
 10
169.962632
 20
112.795071
 30
0.0
 10
170.052354
 20
112.624341
 30
0.0
 10
170.140889
 20
112.175922
 30
0.0
 10
170.135915
 20
112.123024
 30
0.0
 10
170.142927
 20
112.095841
 30
0.0
 10
170.115735
 20
111.908929
 30
0.0
 10
170.098008
 20
111.720863
 30
0.0
 10
170.083959
 20
111.690510
 30
0.0
 10
170.077133
 20
111.643525
 30
0.0
 10
169.885185
 20
111.228706
 30
0.0
 10
169.853790
 20
111.193077
 30
0.0
 10
169.839741
 20
111.162732
 30
0.0
 10
161.652252
 20
99.893620
 30
0.0
 10
161.520391
 20
99.758389
 30
0.0
 10
161.395503
 20
99.616660
 30
0.0
 10
161.361316
 20
99.595255
 30
0.0
 10
161.333154
 20
99.566373
 30
0.0
 10
161.168228
 20
99.474319
 30
0.0
 10
161.008134
 20
99.374047
 30
0.0
 10
160.969254
 20
99.363252
 30
0.0
 10
160.934038
 20
99.343594
 30
0.0
 10
160.887706
 20
99.333222
 30
0.0
 10
160.858502
 20
99.316924
 30
0.0
 10
148.707800
 20
95.368922
 30
0.0
 10
148.707800
 20
82.592921
 30
0.0
 10
148.680609
 20
82.406008
 30
0.0
 10
148.662882
 20
82.217943
 30
0.0
 10
148.648833
 20
82.187590
 30
0.0
 10
148.642006
 20
82.140605
 30
0.0
 10
148.450059
 20
81.725786
 30
0.0
 10
148.418664
 20
81.690157
 30
0.0
 10
148.404614
 20
81.659812
 30
0.0
 10
140.217125
 20
70.390700
 30
0.0
 10
139.898027
 20
70.063445
 30
0.0
 10
139.498911
 20
69.840676
 30
0.0
 10
139.052869
 20
69.740854
 30
0.0
 10
138.442248
 20
69.814006
 30
0.0
 10
131.351692
 20
72.117865
 30
0.0
 10
126.969488
 20
66.086281
 30
0.0
 10
126.837628
 20
65.951050
 30
0.0
 10
126.712739
 20
65.809320
 30
0.0
 10
126.678552
 20
65.787916
 30
0.0
 10
126.650390
 20
65.759034
 30
0.0
 10
126.485465
 20
65.666980
 30
0.0
 10
126.325371
 20
65.566708
 30
0.0
 10
126.286490
 20
65.555913
 30
0.0
 10
126.251274
 20
65.536255
 30
0.0
 10
126.066957
 20
65.495006
 30
0.0
 10
125.884929
 20
65.444505
 30
0.0
 10
125.844599
 20
65.445299
 30
0.0
 10
125.805232
 20
65.436488
 30
0.0
 10
125.711328
 20
65.447733
 30
0.0
 10
125.427930
 20
65.452919
 30
0.0
 10
125.282264
 20
65.499133
 30
0.0
 10
125.194610
 20
65.509637
 30
0.0
 10
111.946976
 20
69.814056
 30
0.0
 10
111.848887
 20
69.862486
 30
0.0
 10
111.744620
 20
69.895567
 30
0.0
 10
111.645039
 20
69.963133
 30
0.0
 10
111.537131
 20
70.016410
 30
0.0
 10
111.456912
 20
70.090776
 30
0.0
 10
111.366387
 20
70.152197
 30
0.0
 10
111.249262
 20
70.283274
 30
0.0
 10
111.201930
 20
70.327152
 30
0.0
 10
111.186002
 20
70.354068
 30
0.0
 10
111.153226
 20
70.390750
 30
0.0
 10
103.643679
 20
80.726754
 30
0.0
 10
91.492978
 20
76.778750
 30
0.0
 10
91.385160
 20
76.760282
 30
0.0
 10
91.281358
 20
76.725756
 30
0.0
 10
91.161076
 20
76.721893
 30
0.0
 10
91.042466
 20
76.701573
 30
0.0
 10
90.933857
 20
76.714591
 30
0.0
 10
90.824518
 20
76.711072
 30
0.0
 10
90.652711
 20
76.748272
 30
0.0
 10
90.588634
 20
76.755945
 30
0.0
 10
90.559932
 20
76.768354
 30
0.0
 10
90.511850
 20
76.778779
 30
0.0
 10
77.264212
 20
81.083198
 30
0.0
 10
76.854368
 20
81.285551
 30
0.0
 10
76.519167
 20
81.596294
 30
0.0
 10
76.286397
 20
81.989660
 30
0.0
 10
76.167276
 20
82.593000
 30
0.0
 10
76.167276
 20
90.048450
 30
0.0
 10
69.076723
 20
92.352310
 30
0.0
 10
68.666879
 20
92.554663
 30
0.0
 10
68.331678
 20
92.865406
 30
0.0
 10
68.098908
 20
93.258772
 30
0.0
 10
67.979787
 20
93.862112
 30
0.0
 10
67.979787
 20
107.791501
 30
0.0
 10
67.983994
 20
107.820479
 30
0.0
 10
67.980846
 20
107.849585
 30
0.0
 10
68.009675
 20
108.007068
 30
0.0
 10
68.024703
 20
108.166479
 30
0.0
 10
68.038752
 20
108.196832
 30
0.0
 10
68.045579
 20
108.243817
 30
0.0
 10
68.057882
 20
108.270389
 30
0.0
 10
68.063147
 20
108.299192
 30
0.0
 10
68.153624
 20
108.477312
 30
0.0
 10
68.237526
 20
108.658636
 30
0.0
 10
68.256893
 20
108.680597
 30
0.0
 10
68.270149
 20
108.706711
 30
0.0
 10
68.279013
 20
108.716051
 30
0.0
 10
68.282981
 20
108.724623
 30
0.0
 10
75.792528
 20
119.060627
 30
0.0
 10
68.282981
 20
129.396630
 30
0.0
 10
68.250681
 20
129.458093
 30
0.0
 10
68.206710
 20
129.511838
 30
0.0
 10
68.160204
 20
129.622828
 30
0.0
 10
68.098916
 20
129.726399
 30
0.0
 10
68.092434
 20
129.759213
 30
0.0
 10
68.070341
 20
129.801239
 30
0.0
 10
68.056900
 20
129.869359
 30
0.0
 10
68.030064
 20
129.933404
 30
0.0
 10
68.012813
 20
130.092582
 30
0.0
 10
67.981801
 20
130.249657
 30
0.0
 10
67.986246
 20
130.296928
 30
0.0
 10
67.979764
 20
130.329739
 30
0.0
 10
67.979764
 20
144.259128
 30
0.0
 10
68.045565
 20
144.711444
 30
0.0
 10
68.237513
 20
145.126263
 30
0.0
 10
68.539699
 20
145.469197
 30
0.0
 10
69.076700
 20
145.768930
 30
0.0
 10
76.167253
 20
148.072790
 30
0.0
 10
76.167253
 20
155.528240
 30
0.0
 10
76.171459
 20
155.557217
 30
0.0
 10
76.168311
 20
155.586324
 30
0.0
 10
76.204286
 20
155.782841
 30
0.0
 10
76.233049
 20
155.980556
 30
0.0
 10
76.245352
 20
156.007128
 30
0.0
 10
76.250617
 20
156.035931
 30
0.0
 10
76.341094
 20
156.214051
 30
0.0
 10
76.424996
 20
156.395375
 30
0.0
 10
76.444364
 20
156.417335
 30
0.0
 10
76.457619
 20
156.443450
 30
0.0
 10
76.595081
 20
156.588394
 30
0.0
 10
76.727188
 20
156.738312
 30
0.0
 10
76.748592
 20
156.750271
 30
0.0
 10
76.772140
 20
156.775116
 30
0.0
 10
77.168126
 20
157.003401
 30
0.0
 10
77.227388
 20
157.017530
 30
0.0
 10
77.264178
 20
157.038061
 30
0.0
 10
90.511815
 20
161.342480
 30
0.0
 10
90.619633
 20
161.360948
 30
0.0
 10
90.723434
 20
161.395474
 30
0.0
 10
90.792837
 20
161.397590
 30
0.0
 10
90.860380
 20
161.413703
 30
0.0
 10
90.911685
 20
161.410872
 30
0.0
 10
90.962327
 20
161.419551
 30
0.0
 10
91.070935
 20
161.406533
 30
0.0
 10
91.180274
 20
161.410052
 30
0.0
 10
91.266579
 20
161.391372
 30
0.0
 10
91.316768
 20
161.388621
 30
0.0
 10
91.365141
 20
161.371291
 30
0.0
 10
91.416158
 20
161.365179
 30
0.0
 10
91.444860
 20
161.352770
 30
0.0
 10
91.492943
 20
161.342345
 30
0.0
 10
103.643644
 20
157.394341
 30
0.0
 10
111.153191
 20
167.730345
 30
0.0
 10
111.229558
 20
167.808661
 30
0.0
 10
111.293243
 20
167.897609
 30
0.0
 10
111.388274
 20
167.971436
 30
0.0
 10
111.472289
 20
168.057600
 30
0.0
 10
111.567812
 20
168.110916
 30
0.0
 10
111.654193
 20
168.178025
 30
0.0
 10
111.815039
 20
168.248909
 30
0.0
 10
111.871405
 20
168.280371
 30
0.0
 10
111.901930
 20
168.287197
 30
0.0
 10
111.946941
 20
168.307041
 30
0.0
 10
125.194576
 20
172.611460
 30
0.0
 10
125.645087
 20
172.688652
 30
0.0
  0
LWPOLYLINE
  5
101
100
AcDbEntity
  8
Layer_4
 62
7
100
AcDbPolyline
 90
4
 70
1
 10
117.574695
 20
71.323827
 30
0.0
 10
125.078702
 20
68.885626
 30
0.0
 10
128.176589
 20
73.149505
 30
0.0
 10
125.685071
 20
73.959048
 30
0.0
  0
LWPOLYLINE
  5
102
100
AcDbEntity
  8
Layer_4
 62
7
100
AcDbPolyline
 90
4
 70
1
 10
134.853688
 20
76.938111
 30
0.0
 10
133.313847
 20
74.818700
 30
0.0
 10
138.326339
 20
73.190044
 30
0.0
 10
142.964069
 20
79.573334
 30
0.0
  0
LWPOLYLINE
  5
103
100
AcDbEntity
  8
Layer_4
 62
7
100
AcDbPolyline
 90
4
 70
1
 10
114.024937
 20
84.099829
 30
0.0
 10
114.024937
 20
73.508833
 30
0.0
 10
124.097571
 20
76.781631
 30
0.0
 10
124.097571
 20
87.372627
 30
0.0
  0
LWPOLYLINE
  5
104
100
AcDbEntity
  8
Layer_4
 62
7
100
AcDbPolyline
 90
4
 70
1
 10
127.272571
 20
76.781631
 30
0.0
 10
130.138847
 20
75.850321
 30
0.0
 10
131.910304
 20
78.288520
 30
0.0
 10
127.272571
 20
84.671810
 30
0.0
  0
LWPOLYLINE
  5
105
100
AcDbEntity
  8
Layer_4
 62
7
100
AcDbPolyline
 90
10
 70
1
 10
100.170927
 20
88.207223
 30
0.0
 10
95.158438
 20
81.308125
 30
0.0
 10
103.759381
 20
84.102742
 30
0.0
 10
104.209892
 20
84.179934
 30
0.0
 10
104.663724
 20
84.125565
 30
0.0
 10
105.083253
 20
83.944142
 30
0.0
 10
105.534259
 20
83.526048
 30
0.0
 10
110.849937
 20
76.209647
 30
0.0
 10
110.849937
 20
84.737408
 30
0.0
 10
106.770919
 20
90.351692
 30
0.0
  0
LWPOLYLINE
  5
106
100
AcDbEntity
  8
Layer_4
 62
7
100
AcDbPolyline
 90
4
 70
1
 10
128.253699
 20
88.723033
 30
0.0
 10
134.478929
 20
80.154738
 30
0.0
 10
144.551569
 20
83.427538
 30
0.0
 10
138.326339
 20
91.995834
 30
0.0
  0
LWPOLYLINE
  5
107
100
AcDbEntity
  8
Layer_4
 62
7
100
AcDbPolyline
 90
4
 70
1
 10
84.777077
 20
89.557632
 30
0.0
 10
91.002310
 20
80.989337
 30
0.0
 10
97.227543
 20
89.557632
 30
0.0
 10
91.002310
 20
98.125928
 30
0.0
  0
LWPOLYLINE
  5
108
100
AcDbEntity
  8
Layer_4
 62
7
100
AcDbPolyline
 90
4
 70
1
 10
79.342173
 20
83.746327
 30
0.0
 10
86.846182
 20
81.308125
 30
0.0
 10
81.833694
 20
88.207223
 30
0.0
 10
79.342173
 20
89.016769
 30
0.0
  0
LWPOLYLINE
  5
109
100
AcDbEntity
  8
Layer_4
 62
7
100
AcDbPolyline
 90
4
 70
1
 10
109.945919
 20
91.383310
 30
0.0
 10
113.043806
 20
87.119434
 30
0.0
 10
120.547813
 20
89.557632
 30
0.0
 10
112.437437
 20
92.192856
 30
0.0
  0
LWPOLYLINE
  5
10a
100
AcDbEntity
  8
Layer_4
 62
7
100
AcDbPolyline
 90
23
 70
1
 10
140.520208
 20
101.317502
 30
0.0
 10
140.520208
 20
94.377859
 30
0.0
 10
145.532697
 20
87.478762
 30
0.0
 10
145.532697
 20
96.522328
 30
0.0
 10
145.536904
 20
96.551306
 30
0.0
 10
145.533756
 20
96.580412
 30
0.0
 10
145.569731
 20
96.776929
 30
0.0
 10
145.598494
 20
96.974644
 30
0.0
 10
145.610797
 20
97.001216
 30
0.0
 10
145.616062
 20
97.030019
 30
0.0
 10
145.706539
 20
97.208139
 30
0.0
 10
145.790441
 20
97.389463
 30
0.0
 10
145.809809
 20
97.411424
 30
0.0
 10
145.823064
 20
97.437538
 30
0.0
 10
145.960526
 20
97.582482
 30
0.0
 10
146.092632
 20
97.732400
 30
0.0
 10
146.114037
 20
97.744359
 30
0.0
 10
146.137585
 20
97.769204
 30
0.0
 10
146.533571
 20
97.997489
 30
0.0
 10
146.592832
 20
98.011618
 30
0.0
 10
146.629623
 20
98.032149
 30
0.0
 10
155.230565
 20
100.826763
 30
0.0
 10
147.120187
 20
103.461987
 30
0.0
  0
LWPOLYLINE
  5
10b
100
AcDbEntity
  8
Layer_4
 62
7
100
AcDbPolyline
 90
4
 70
1
 10
79.342173
 20
95.368941
 30
0.0
 10
79.342173
 20
92.355162
 30
0.0
 10
82.208452
 20
91.423850
 30
0.0
 10
86.846182
 20
97.807142
 30
0.0
  0
LWPOLYLINE
  5
10c
100
AcDbEntity
  8
Layer_4
 62
7
100
AcDbPolyline
 90
4
 70
1
 10
99.796169
 20
91.423850
 30
0.0
 10
104.808660
 20
93.052508
 30
0.0
 10
103.268817
 20
95.171919
 30
0.0
 10
95.158438
 20
97.807140
 30
0.0
  0
LWPOLYLINE
  5
10d
100
AcDbEntity
  8
Layer_4
 62
7
100
AcDbPolyline
 90
5
 70
1
 10
114.024937
 20
106.638053
 30
0.0
 10
114.024937
 20
95.015436
 30
0.0
 10
125.078702
 20
91.423850
 30
0.0
 10
131.910304
 20
100.826745
 30
0.0
 10
125.078702
 20
110.229639
 30
0.0
  0
LWPOLYLINE
  5
10e
100
AcDbEntity
  8
Layer_4
 62
7
100
AcDbPolyline
 90
4
 70
1
 10
134.853688
 20
99.476335
 30
0.0
 10
129.841199
 20
92.577237
 30
0.0
 10
137.345208
 20
95.015439
 30
0.0
 10
137.345208
 20
100.285881
 30
0.0
  0
LWPOLYLINE
  5
10f
100
AcDbEntity
  8
Layer_4
 62
7
100
AcDbPolyline
 90
4
 70
1
 10
71.154684
 20
95.015439
 30
0.0
 10
76.167173
 20
93.386780
 30
0.0
 10
76.167173
 20
96.006520
 30
0.0
 10
71.154684
 20
102.905618
 30
0.0
  0
LWPOLYLINE
  5
110
100
AcDbEntity
  8
Layer_4
 62
7
100
AcDbPolyline
 90
4
 70
1
 10
106.212203
 20
96.522328
 30
0.0
 10
107.983660
 20
94.084127
 30
0.0
 10
110.849937
 20
95.015439
 30
0.0
 10
110.849937
 20
102.905621
 30
0.0
  0
LWPOLYLINE
  5
111
100
AcDbEntity
  8
Layer_4
 62
7
100
AcDbPolyline
 90
4
 70
1
 10
72.135812
 20
106.956841
 30
0.0
 10
78.361043
 20
98.388546
 30
0.0
 10
88.433682
 20
101.661344
 30
0.0
 10
82.208452
 20
110.229639
 30
0.0
  0
LWPOLYLINE
  5
112
100
AcDbEntity
  8
Layer_4
 62
7
100
AcDbPolyline
 90
5
 70
1
 10
92.589810
 20
113.602749
 30
0.0
 10
92.589810
 20
101.980132
 30
0.0
 10
103.643576
 20
98.388546
 30
0.0
 10
110.475178
 20
107.791441
 30
0.0
 10
103.643576
 20
117.194335
 30
0.0
  0
LWPOLYLINE
  5
113
100
AcDbEntity
  8
Layer_4
 62
7
100
AcDbPolyline
 90
4
 70
1
 10
134.478929
 20
102.692962
 30
0.0
 10
137.345208
 20
103.624274
 30
0.0
 10
137.345208
 20
106.638053
 30
0.0
 10
129.841199
 20
109.076255
 30
0.0
  0
LWPOLYLINE
  5
114
100
AcDbEntity
  8
Layer_4
 62
7
100
AcDbPolyline
 90
4
 70
1
 10
148.707697
 20
106.284551
 30
0.0
 10
158.780334
 20
103.011751
 30
0.0
 10
158.780334
 20
113.602746
 30
0.0
 10
148.707697
 20
116.875547
 30
0.0
  0
LWPOLYLINE
  5
115
100
AcDbEntity
  8
Layer_4
 62
7
100
AcDbPolyline
 90
4
 70
1
 10
140.520208
 20
107.275633
 30
0.0
 10
140.520208
 20
104.655893
 30
0.0
 10
145.532697
 20
106.284551
 30
0.0
 10
145.532697
 20
114.174730
 30
0.0
  0
LWPOLYLINE
  5
116
100
AcDbEntity
  8
Layer_4
 62
7
100
AcDbPolyline
 90
4
 70
1
 10
84.777077
 20
112.095857
 30
0.0
 10
89.414810
 20
105.712567
 30
0.0
 10
89.414810
 20
114.240326
 30
0.0
 10
87.874967
 20
116.359736
 30
0.0
  0
LWPOLYLINE
  5
117
100
AcDbEntity
  8
Layer_4
 62
7
100
AcDbPolyline
 90
4
 70
1
 10
161.955334
 20
114.240326
 30
0.0
 10
161.955334
 20
105.712567
 30
0.0
 10
166.593068
 20
112.095857
 30
0.0
 10
163.495178
 20
116.359736
 30
0.0
  0
LWPOLYLINE
  5
118
100
AcDbEntity
  8
Layer_4
 62
7
100
AcDbPolyline
 90
5
 70
1
 10
106.212203
 20
119.060553
 30
0.0
 10
113.043806
 20
109.657658
 30
0.0
 10
124.097571
 20
113.249244
 30
0.0
 10
124.097571
 20
124.871861
 30
0.0
 10
113.043806
 20
128.463447
 30
0.0
  0
LWPOLYLINE
  5
119
100
AcDbEntity
  8
Layer_4
 62
7
100
AcDbPolyline
 90
5
 70
1
 10
127.272571
 20
124.871858
 30
0.0
 10
127.272571
 20
113.249244
 30
0.0
 10
138.326339
 20
109.657658
 30
0.0
 10
145.157941
 20
119.060553
 30
0.0
 10
138.326339
 20
128.463447
 30
0.0
  0
LWPOLYLINE
  5
11a
100
AcDbEntity
  8
Layer_4
 62
7
100
AcDbPolyline
 90
20
 70
1
 10
79.038987
 20
119.993661
 30
0.0
 10
79.084773
 20
119.906534
 30
0.0
 10
79.144275
 20
119.828122
 30
0.0
 10
79.161897
 20
119.759783
 30
0.0
 10
79.251619
 20
119.589053
 30
0.0
 10
79.340154
 20
119.140634
 30
0.0
 10
79.335154
 20
119.087736
 30
0.0
 10
79.342165
 20
119.060553
 30
0.0
 10
79.314974
 20
118.873640
 30
0.0
 10
79.297247
 20
118.685575
 30
0.0
 10
79.283198
 20
118.655222
 30
0.0
 10
79.276371
 20
118.608237
 30
0.0
 10
79.084424
 20
118.193418
 30
0.0
 10
79.053029
 20
118.157789
 30
0.0
 10
79.038979
 20
118.127444
 30
0.0
 10
73.723304
 20
110.811043
 30
0.0
 10
81.833686
 20
113.446266
 30
0.0
 10
85.912703
 20
119.060553
 30
0.0
 10
81.833686
 20
124.674836
 30
0.0
 10
73.723304
 20
127.310060
 30
0.0
  0
LWPOLYLINE
  5
11b
100
AcDbEntity
  8
Layer_4
 62
7
100
AcDbPolyline
 90
4
 70
1
 10
89.837226
 20
119.060553
 30
0.0
 10
91.608680
 20
116.622351
 30
0.0
 10
99.112686
 20
119.060553
 30
0.0
 10
91.608680
 20
121.498752
 30
0.0
  0
LWPOLYLINE
  5
11c
100
AcDbEntity
  8
Layer_4
 62
7
100
AcDbPolyline
 90
4
 70
1
 10
152.257456
 20
119.060553
 30
0.0
 10
159.761465
 20
116.622351
 30
0.0
 10
161.532919
 20
119.060553
 30
0.0
 10
159.761465
 20
121.498752
 30
0.0
  0
LWPOLYLINE
  5
11d
100
AcDbEntity
  8
Layer_4
 62
7
100
AcDbPolyline
 90
5
 70
1
 10
92.589810
 20
136.140973
 30
0.0
 10
92.589810
 20
124.518357
 30
0.0
 10
103.643576
 20
120.926770
 30
0.0
 10
110.475178
 20
130.329665
 30
0.0
 10
103.643576
 20
139.732560
 30
0.0
  0
LWPOLYLINE
  5
11e
100
AcDbEntity
  8
Layer_4
 62
7
100
AcDbPolyline
 90
4
 70
1
 10
148.707697
 20
131.836554
 30
0.0
 10
148.707697
 20
121.245559
 30
0.0
 10
158.780334
 20
124.518357
 30
0.0
 10
158.780334
 20
135.109352
 30
0.0
  0
LWPOLYLINE
  5
11f
100
AcDbEntity
  8
Layer_4
 62
7
100
AcDbPolyline
 90
4
 70
1
 10
84.777077
 20
126.025246
 30
0.0
 10
87.874967
 20
121.761366
 30
0.0
 10
89.414810
 20
123.880777
 30
0.0
 10
89.414810
 20
132.408536
 30
0.0
  0
LWPOLYLINE
  5
120
100
AcDbEntity
  8
Layer_4
 62
7
100
AcDbPolyline
 90
4
 70
1
 10
161.955334
 20
123.880777
 30
0.0
 10
163.495178
 20
121.761366
 30
0.0
 10
166.593068
 20
126.025246
 30
0.0
 10
161.955334
 20
132.408536
 30
0.0
  0
LWPOLYLINE
  5
121
100
AcDbEntity
  8
Layer_4
 62
7
100
AcDbPolyline
 90
4
 70
1
 10
140.520208
 20
130.845473
 30
0.0
 10
145.532697
 20
123.946375
 30
0.0
 10
145.532697
 20
131.836554
 30
0.0
 10
140.520208
 20
133.465210
 30
0.0
  0
LWPOLYLINE
  5
122
100
AcDbEntity
  8
Layer_4
 62
7
100
AcDbPolyline
 90
4
 70
1
 10
72.135812
 20
131.164264
 30
0.0
 10
82.208452
 20
127.891463
 30
0.0
 10
88.433682
 20
136.459759
 30
0.0
 10
78.361043
 20
139.732560
 30
0.0
  0
LWPOLYLINE
  5
123
100
AcDbEntity
  8
Layer_4
 62
7
100
AcDbPolyline
 90
5
 70
1
 10
114.024937
 20
143.105666
 30
0.0
 10
114.024937
 20
131.483050
 30
0.0
 10
125.078702
 20
127.891463
 30
0.0
 10
131.910304
 20
137.294358
 30
0.0
 10
125.078702
 20
146.697253
 30
0.0
  0
LWPOLYLINE
  5
124
100
AcDbEntity
  8
Layer_4
 62
7
100
AcDbPolyline
 90
4
 70
1
 10
129.841199
 20
129.044851
 30
0.0
 10
137.345208
 20
131.483052
 30
0.0
 10
137.345208
 20
134.496831
 30
0.0
 10
134.478929
 20
135.428141
 30
0.0
  0
LWPOLYLINE
  5
125
100
AcDbEntity
  8
Layer_4
 62
7
100
AcDbPolyline
 90
10
 70
1
 10
140.520208
 20
143.743246
 30
0.0
 10
140.520208
 20
136.803604
 30
0.0
 10
147.120197
 20
134.659137
 30
0.0
 10
155.230576
 20
137.294358
 30
0.0
 10
146.629633
 20
140.088975
 30
0.0
 10
146.219788
 20
140.291328
 30
0.0
 10
145.884588
 20
140.602070
 30
0.0
 10
145.651818
 20
140.995437
 30
0.0
 10
145.532697
 20
141.598777
 30
0.0
 10
145.532697
 20
150.642344
 30
0.0
  0
LWPOLYLINE
  5
126
100
AcDbEntity
  8
Layer_4
 62
7
100
AcDbPolyline
 90
4
 70
1
 10
106.212203
 20
141.598777
 30
0.0
 10
110.849937
 20
135.215484
 30
0.0
 10
110.849937
 20
143.105666
 30
0.0
 10
107.983658
 20
144.036976
 30
0.0
  0
LWPOLYLINE
  5
127
100
AcDbEntity
  8
Layer_4
 62
7
100
AcDbPolyline
 90
4
 70
1
 10
71.154684
 20
143.105666
 30
0.0
 10
71.154684
 20
135.215487
 30
0.0
 10
76.167173
 20
142.114585
 30
0.0
 10
76.167173
 20
144.734322
 30
0.0
  0
LWPOLYLINE
  5
128
100
AcDbEntity
  8
Layer_4
 62
7
100
AcDbPolyline
 90
4
 70
1
 10
134.853688
 20
138.644768
 30
0.0
 10
137.345208
 20
137.835222
 30
0.0
 10
137.345208
 20
143.105666
 30
0.0
 10
129.841196
 20
145.543868
 30
0.0
  0
LWPOLYLINE
  5
129
100
AcDbEntity
  8
Layer_4
 62
7
100
AcDbPolyline
 90
4
 70
1
 10
84.777077
 20
148.563470
 30
0.0
 10
91.002310
 20
139.995174
 30
0.0
 10
97.227543
 20
148.563470
 30
0.0
 10
91.002310
 20
157.131769
 30
0.0
  0
LWPOLYLINE
  5
12a
100
AcDbEntity
  8
Layer_4
 62
7
100
AcDbPolyline
 90
4
 70
1
 10
79.342173
 20
145.765943
 30
0.0
 10
79.342173
 20
142.752165
 30
0.0
 10
86.846182
 20
140.313963
 30
0.0
 10
82.208452
 20
146.697253
 30
0.0
  0
LWPOLYLINE
  5
12b
100
AcDbEntity
  8
Layer_4
 62
7
100
AcDbPolyline
 90
4
 70
1
 10
95.158438
 20
140.313963
 30
0.0
 10
103.268817
 20
142.949187
 30
0.0
 10
104.808660
 20
145.068597
 30
0.0
 10
99.796169
 20
146.697253
 30
0.0
  0
LWPOLYLINE
  5
12c
100
AcDbEntity
  8
Layer_4
 62
7
100
AcDbPolyline
 90
4
 70
1
 10
109.945916
 20
146.737792
 30
0.0
 10
112.437437
 20
145.928249
 30
0.0
 10
120.547815
 20
148.563470
 30
0.0
 10
113.043806
 20
151.001672
 30
0.0
  0
LWPOLYLINE
  5
12d
100
AcDbEntity
  8
Layer_4
 62
7
100
AcDbPolyline
 90
4
 70
1
 10
128.253699
 20
149.398069
 30
0.0
 10
138.326339
 20
146.125271
 30
0.0
 10
144.551569
 20
154.693567
 30
0.0
 10
134.478929
 20
157.966368
 30
0.0
  0
LWPOLYLINE
  5
12e
100
AcDbEntity
  8
Layer_4
 62
7
100
AcDbPolyline
 90
10
 70
1
 10
105.534259
 20
154.595057
 30
0.0
 10
105.215161
 20
154.267802
 30
0.0
 10
104.816045
 20
154.045031
 30
0.0
 10
104.370002
 20
153.945212
 30
0.0
 10
103.759381
 20
154.018364
 30
0.0
 10
95.158438
 20
156.812980
 30
0.0
 10
100.170927
 20
149.913880
 30
0.0
 10
106.770919
 20
147.769413
 30
0.0
 10
110.849937
 20
153.383697
 30
0.0
 10
110.849937
 20
161.911459
 30
0.0
  0
LWPOLYLINE
  5
12f
100
AcDbEntity
  8
Layer_4
 62
7
100
AcDbPolyline
 90
4
 70
1
 10
79.342173
 20
154.374779
 30
0.0
 10
79.342173
 20
149.104334
 30
0.0
 10
81.833694
 20
149.913880
 30
0.0
 10
86.846182
 20
156.812980
 30
0.0
  0
LWPOLYLINE
  5
130
100
AcDbEntity
  8
Layer_4
 62
7
100
AcDbPolyline
 90
4
 70
1
 10
114.024937
 20
154.021277
 30
0.0
 10
124.097571
 20
150.748479
 30
0.0
 10
124.097571
 20
161.339474
 30
0.0
 10
114.024937
 20
164.612272
 30
0.0
  0
LWPOLYLINE
  5
131
100
AcDbEntity
  8
Layer_4
 62
7
100
AcDbPolyline
 90
4
 70
1
 10
127.272571
 20
161.339472
 30
0.0
 10
127.272571
 20
153.449293
 30
0.0
 10
131.910304
 20
159.832585
 30
0.0
 10
130.138847
 20
162.270784
 30
0.0
  0
LWPOLYLINE
  5
132
100
AcDbEntity
  8
Layer_4
 62
7
100
AcDbPolyline
 90
4
 70
1
 10
133.313847
 20
163.302402
 30
0.0
 10
134.853688
 20
161.182995
 30
0.0
 10
142.964069
 20
158.547771
 30
0.0
 10
138.326339
 20
164.931061
 30
0.0
  0
LWPOLYLINE
  5
133
100
AcDbEntity
  8
Layer_4
 62
7
100
AcDbPolyline
 90
4
 70
1
 10
117.574692
 20
166.797278
 30
0.0
 10
125.685071
 20
164.162055
 30
0.0
 10
128.176592
 20
164.971600
 30
0.0
 10
125.078702
 20
169.235480
 30
0.0
  0
ENDSEC
  0
SECTION
  2
OBJECTS
  0
DICTIONARY
  5
C
330
0
100
AcDbDictionary
  3
ACAD_GROUP
350
D
  3
ACAD_MLINESTYLE
350
17
  0
DICTIONARY
  5
D
330
C
100
AcDbDictionary
  0
DICTIONARY
  5
1A
330
C
100
AcDbDictionary
  0
DICTIONARY
  5
17
330
C
100
AcDbDictionary
  3
STANDARD
350
18
  0
DICTIONARY
  5
19
330
C
100
AcDbDictionary
  0
ENDSEC
  0
EOF
