  0
SECTION
  2
HEADER
  9
$ACADVER
  1
AC1014
  9
$HANDSEED
  5
FFFF
  9
$INSUNITS
 70
     4
  9
$MEASUREMENT
 70
     1
  0
ENDSEC
  0
SECTION
  2
TABLES
  0
TABLE
  2
VPORT
  5
8
330
0
100
AcDbSymbolTable
 70
     4
  0
VPORT
  5
2E
330
8
100
AcDbSymbolTableRecord
100
AcDbViewportTableRecord
  2
*ACTIVE
 70
     0
 10
0.0
 20
0.0
 11
1.0
 21
1.0
 12
210.0
 22
148.5
 13
0.0
 23
0.0
 14
10.0
 24
10.0
 15
10.0
 25
10.0
 16
0.0
 26
0.0
 36
1.0
 17
0.0
 27
0.0
 37
0.0
 40
341.0
 41
1.24
 42
50.0
 43
0.0
 44
0.0
 50
0.0
 51
0.0
 71
     0
 72
   100
 73
     1
 74
     3
 75
     0
 76
     0
 77
     0
 78
     0
  0
ENDTAB
  0
TABLE
  2
LTYPE
  5
5
330
0
100
AcDbSymbolTable
 70
     1
  0
LTYPE
  5
14
330
5
100
AcDbSymbolTableRecord
100
AcDbLinetypeTableRecord
  2
BYBLOCK
 70
     0
  3

 72
    65
 73
     0
 40
0.0
  0
LTYPE
  5
15
330
5
100
AcDbSymbolTableRecord
100
AcDbLinetypeTableRecord
  2
BYLAYER
 70
     0
  3

 72
    65
 73
     0
 40
0.0
  0
LTYPE
  5
16
330
5
100
AcDbSymbolTableRecord
100
AcDbLinetypeTableRecord
  2
CONTINUOUS
 70
     0
  3
Solid line
 72
    65
 73
     0
 40
0.0
  0
ENDTAB
  0
TABLE
  2
LAYER
  5
2
100
AcDbSymbolTable
 70
5
  0
LAYER
  5
50
100
AcDbSymbolTableRecord
100
AcDbLayerTableRecord
  2
0
 70
0
  6
CONTINUOUS
  0
LAYER
  5
51
100
AcDbSymbolTableRecord
100
AcDbLayerTableRecord
  2
Layer_1
 70
0
  6
CONTINUOUS
  0
LAYER
  5
52
100
AcDbSymbolTableRecord
100
AcDbLayerTableRecord
  2
Layer_2
 70
0
  6
CONTINUOUS
  0
LAYER
  5
53
100
AcDbSymbolTableRecord
100
AcDbLayerTableRecord
  2
Layer_3
 70
0
  6
CONTINUOUS
  0
LAYER
  5
54
100
AcDbSymbolTableRecord
100
AcDbLayerTableRecord
  2
Layer_4
 70
0
  6
CONTINUOUS
  0
ENDTAB
  0
TABLE
  2
STYLE
  5
3
330
0
100
AcDbSymbolTable
 70
     1
  0
STYLE
  5
11
330
3
100
AcDbSymbolTableRecord
100
AcDbTextStyleTableRecord
  2
STANDARD
 70
     0
 40
0.0
 41
1.0
 50
0.0
 71
     0
 42
2.5
  3
txt
  4

  0
ENDTAB
  0
TABLE
  2
VIEW
  5
6
330
0
100
AcDbSymbolTable
 70
     0
  0
ENDTAB
  0
TABLE
  2
UCS
  5
7
330
0
100
AcDbSymbolTable
 70
     0
  0
ENDTAB
  0
TABLE
  2
APPID
  5
9
330
0
100
AcDbSymbolTable
 70
     2
  0
APPID
  5
12
330
9
100
AcDbSymbolTableRecord
100
AcDbRegAppTableRecord
  2
ACAD
 70
     0
  0
ENDTAB
  0
TABLE
  2
DIMSTYLE
  5
A
330
0
100
AcDbSymbolTable
 70
     1
  0
DIMSTYLE
105
27
330
A
100
AcDbSymbolTableRecord
100
AcDbDimStyleTableRecord
  2
ISO-25
 70
     0
  3

  4

  5

  6

  7

 40
1.0
 41
2.5
 42
0.625
 43
3.75
 44
1.25
 45
0.0
 46
0.0
 47
0.0
 48
0.0
140
2.5
141
2.5
142
0.0
143
0.03937007874016
144
1.0
145
0.0
146
1.0
147
0.625
 71
     0
 72
     0
 73
     0
 74
     0
 75
     0
 76
     0
 77
     1
 78
     8
170
     0
171
     3
172
     1
173
     0
174
     0
175
     0
176
     0
177
     0
178
     0
270
     2
271
     2
272
     2
273
     2
274
     3
340
11
275
     0
280
     0
281
     0
282
     0
283
     0
284
     8
285
     0
286
     0
287
     3
288
     0
  0
ENDTAB
  0
TABLE
  2
BLOCK_RECORD
  5
1
330
0
100
AcDbSymbolTable
 70
     1
  0
BLOCK_RECORD
  5
1F
330
1
100
AcDbSymbolTableRecord
100
AcDbBlockTableRecord
  2
*MODEL_SPACE
  0
BLOCK_RECORD
  5
1B
330
1
100
AcDbSymbolTableRecord
100
AcDbBlockTableRecord
  2
*PAPER_SPACE
  0
ENDTAB
  0
ENDSEC
  0
SECTION
  2
BLOCKS
  0
BLOCK
  5
20
330
1F
100
AcDbEntity
  8
0
100
AcDbBlockBegin
  2
*MODEL_SPACE
 70
     0
 10
0.0
 20
0.0
 30
0.0
  3
*MODEL_SPACE
  1

  0
ENDBLK
  5
21
330
1F
100
AcDbEntity
  8
0
100
AcDbBlockEnd
  0
BLOCK
  5
1C
330
1B
100
AcDbEntity
 67
     1
  8
0
100
AcDbBlockBegin
  2
*PAPER_SPACE
  1

  0
ENDBLK
  5
1D
330
1B
100
AcDbEntity
 67
     1
  8
0
100
AcDbBlockEnd
  0
ENDSEC
  0
SECTION
  2
ENTITIES
  0
LWPOLYLINE
  5
100
100
AcDbEntity
  8
Layer_4
 62
7
100
AcDbPolyline
 90
590
 70
1
 10
119.850548
 20
173.507106
 30
0.0
 10
120.270077
 20
173.325684
 30
0.0
 10
120.721083
 20
172.907590
 30
0.0
 10
123.222927
 20
169.464096
 30
0.0
 10
127.270999
 20
170.779392
 30
0.0
 10
127.721511
 20
170.856585
 30
0.0
 10
128.175343
 20
170.802215
 30
0.0
 10
128.594871
 20
170.620793
 30
0.0
 10
129.045877
 20
170.202699
 30
0.0
 10
132.225666
 20
165.826096
 30
0.0
 10
132.438296
 20
165.421490
 30
0.0
 10
132.526831
 20
164.973069
 30
0.0
 10
132.483931
 20
164.518009
 30
0.0
 10
132.225666
 20
163.959879
 30
0.0
 10
129.723819
 20
160.516385
 30
0.0
 10
131.547722
 20
158.005997
 30
0.0
 10
134.498858
 20
158.964879
 30
0.0
 10
134.498858
 20
163.221273
 30
0.0
 10
134.503065
 20
163.250250
 30
0.0
 10
134.499916
 20
163.279357
 30
0.0
 10
134.535892
 20
163.475874
 30
0.0
 10
134.564654
 20
163.673589
 30
0.0
 10
134.576958
 20
163.700161
 30
0.0
 10
134.582223
 20
163.728964
 30
0.0
 10
134.672700
 20
163.907084
 30
0.0
 10
134.756602
 20
164.088408
 30
0.0
 10
134.775969
 20
164.110368
 30
0.0
 10
134.789225
 20
164.136483
 30
0.0
 10
134.926686
 20
164.281427
 30
0.0
 10
135.058793
 20
164.431345
 30
0.0
 10
135.080198
 20
164.443304
 30
0.0
 10
135.103746
 20
164.468149
 30
0.0
 10
135.499732
 20
164.696434
 30
0.0
 10
135.558993
 20
164.710562
 30
0.0
 10
135.595783
 20
164.731094
 30
0.0
 10
140.740789
 20
166.402808
 30
0.0
 10
140.916221
 20
166.432868
 30
0.0
 10
141.089354
 20
166.474143
 30
0.0
 10
141.140659
 20
166.471312
 30
0.0
 10
141.191300
 20
166.479990
 30
0.0
 10
141.368026
 20
166.458823
 30
0.0
 10
141.545741
 20
166.449060
 30
0.0
 10
141.594115
 20
166.431730
 30
0.0
 10
141.645132
 20
166.425618
 30
0.0
 10
141.808496
 20
166.354972
 30
0.0
 10
141.976068
 20
166.294975
 30
0.0
 10
142.017501
 20
166.264590
 30
0.0
 10
142.064661
 20
166.244191
 30
0.0
 10
142.137918
 20
166.176280
 30
0.0
 10
142.344656
 20
166.024671
 30
0.0
 10
142.447121
 20
165.889638
 30
0.0
 10
142.515667
 20
165.826096
 30
0.0
 10
145.017511
 20
162.382602
 30
0.0
 10
149.065583
 20
163.697901
 30
0.0
 10
149.241015
 20
163.727961
 30
0.0
 10
149.414148
 20
163.769236
 30
0.0
 10
149.465453
 20
163.766405
 30
0.0
 10
149.516095
 20
163.775083
 30
0.0
 10
149.692820
 20
163.753916
 30
0.0
 10
149.870536
 20
163.744153
 30
0.0
 10
149.918909
 20
163.726823
 30
0.0
 10
149.969926
 20
163.720711
 30
0.0
 10
150.133291
 20
163.650065
 30
0.0
 10
150.300862
 20
163.590068
 30
0.0
 10
150.342296
 20
163.559683
 30
0.0
 10
150.389455
 20
163.539284
 30
0.0
 10
150.462713
 20
163.471373
 30
0.0
 10
150.669450
 20
163.319764
 30
0.0
 10
150.771916
 20
163.184732
 30
0.0
 10
150.840461
 20
163.121189
 30
0.0
 10
154.020250
 20
158.744584
 30
0.0
 10
154.066036
 20
158.657457
 30
0.0
 10
154.125538
 20
158.579045
 30
0.0
 10
154.143160
 20
158.510706
 30
0.0
 10
154.232883
 20
158.339975
 30
0.0
 10
154.321417
 20
157.891557
 30
0.0
 10
154.316417
 20
157.838659
 30
0.0
 10
154.323428
 20
157.811475
 30
0.0
 10
154.296237
 20
157.624563
 30
0.0
 10
154.278510
 20
157.436497
 30
0.0
 10
154.264461
 20
157.406144
 30
0.0
 10
154.257634
 20
157.359160
 30
0.0
 10
154.065687
 20
156.944340
 30
0.0
 10
154.034292
 20
156.908712
 30
0.0
 10
154.020242
 20
156.878367
 30
0.0
 10
151.518398
 20
153.434873
 30
0.0
 10
153.342298
 20
150.924488
 30
0.0
 10
157.390370
 20
152.239784
 30
0.0
 10
157.565802
 20
152.269844
 30
0.0
 10
157.738934
 20
152.311119
 30
0.0
 10
157.790240
 20
152.308287
 30
0.0
 10
157.840881
 20
152.316966
 30
0.0
 10
158.017607
 20
152.295799
 30
0.0
 10
158.195322
 20
152.286036
 30
0.0
 10
158.243696
 20
152.268706
 30
0.0
 10
158.294713
 20
152.262594
 30
0.0
 10
158.458077
 20
152.191948
 30
0.0
 10
158.625648
 20
152.131951
 30
0.0
 10
158.667082
 20
152.101566
 30
0.0
 10
158.714242
 20
152.081167
 30
0.0
 10
158.787499
 20
152.013256
 30
0.0
 10
158.994237
 20
151.861647
 30
0.0
 10
159.096702
 20
151.726614
 30
0.0
 10
159.165248
 20
151.663072
 30
0.0
 10
162.345037
 20
147.286469
 30
0.0
 10
162.390823
 20
147.199342
 30
0.0
 10
162.450325
 20
147.120930
 30
0.0
 10
162.467946
 20
147.052594
 30
0.0
 10
162.557669
 20
146.881863
 30
0.0
 10
162.646204
 20
146.433442
 30
0.0
 10
162.641203
 20
146.380544
 30
0.0
 10
162.648215
 20
146.353361
 30
0.0
 10
162.621023
 20
146.166448
 30
0.0
 10
162.603296
 20
145.978383
 30
0.0
 10
162.589247
 20
145.948030
 30
0.0
 10
162.582421
 20
145.901045
 30
0.0
 10
162.390474
 20
145.486226
 30
0.0
 10
162.359078
 20
145.450597
 30
0.0
 10
162.345029
 20
145.420252
 30
0.0
 10
159.843182
 20
141.976758
 30
0.0
 10
161.667084
 20
139.466370
 30
0.0
 10
165.715156
 20
140.781670
 30
0.0
 10
165.890588
 20
140.811729
 30
0.0
 10
166.063721
 20
140.853004
 30
0.0
 10
166.115026
 20
140.850173
 30
0.0
 10
166.165668
 20
140.858851
 30
0.0
 10
166.342393
 20
140.837685
 30
0.0
 10
166.520109
 20
140.827921
 30
0.0
 10
166.568482
 20
140.810591
 30
0.0
 10
166.619499
 20
140.804479
 30
0.0
 10
166.782864
 20
140.733833
 30
0.0
 10
166.950435
 20
140.673836
 30
0.0
 10
166.991869
 20
140.643451
 30
0.0
 10
167.039028
 20
140.623052
 30
0.0
 10
167.112286
 20
140.555141
 30
0.0
 10
167.319023
 20
140.403532
 30
0.0
 10
167.421489
 20
140.268500
 30
0.0
 10
167.490034
 20
140.204957
 30
0.0
 10
170.669823
 20
135.828355
 30
0.0
 10
170.715609
 20
135.741227
 30
0.0
 10
170.775111
 20
135.662816
 30
0.0
 10
170.792733
 20
135.594479
 30
0.0
 10
170.882456
 20
135.423749
 30
0.0
 10
170.970990
 20
134.975327
 30
0.0
 10
170.965990
 20
134.922429
 30
0.0
 10
170.973001
 20
134.895246
 30
0.0
 10
170.945810
 20
134.708334
 30
0.0
 10
170.928083
 20
134.520268
 30
0.0
 10
170.914034
 20
134.489915
 30
0.0
 10
170.907207
 20
134.442930
 30
0.0
 10
170.715260
 20
134.028111
 30
0.0
 10
170.683865
 20
133.992482
 30
0.0
 10
170.669815
 20
133.962137
 30
0.0
 10
168.167968
 20
130.518643
 30
0.0
 10
170.669815
 20
127.075147
 30
0.0
 10
170.715601
 20
126.988020
 30
0.0
 10
170.775103
 20
126.909608
 30
0.0
 10
170.792725
 20
126.841269
 30
0.0
 10
170.882448
 20
126.670538
 30
0.0
 10
170.970982
 20
126.222120
 30
0.0
 10
170.965982
 20
126.169222
 30
0.0
 10
170.972993
 20
126.142038
 30
0.0
 10
170.945802
 20
125.955126
 30
0.0
 10
170.928075
 20
125.767060
 30
0.0
 10
170.914026
 20
125.736707
 30
0.0
 10
170.907199
 20
125.689722
 30
0.0
 10
170.715252
 20
125.274903
 30
0.0
 10
170.683857
 20
125.239275
 30
0.0
 10
170.669807
 20
125.208930
 30
0.0
 10
167.490018
 20
120.832327
 30
0.0
 10
167.358158
 20
120.697096
 30
0.0
 10
167.233269
 20
120.555366
 30
0.0
 10
167.199082
 20
120.533962
 30
0.0
 10
167.170920
 20
120.505080
 30
0.0
 10
167.005979
 20
120.413015
 30
0.0
 10
166.845901
 20
120.312754
 30
0.0
 10
166.807031
 20
120.301959
 30
0.0
 10
166.771804
 20
120.282301
 30
0.0
 10
166.587458
 20
120.241047
 30
0.0
 10
166.405459
 20
120.190554
 30
0.0
 10
166.365132
 20
120.191347
 30
0.0
 10
166.325762
 20
120.182537
 30
0.0
 10
166.231858
 20
120.193782
 30
0.0
 10
165.948461
 20
120.198967
 30
0.0
 10
165.802794
 20
120.245182
 30
0.0
 10
165.715140
 20
120.255686
 30
0.0
 10
161.667068
 20
121.570985
 30
0.0
 10
159.843166
 20
119.060598
 30
0.0
 10
161.667068
 20
116.550212
 30
0.0
 10
165.715140
 20
117.865512
 30
0.0
 10
166.165652
 20
117.942704
 30
0.0
 10
166.619484
 20
117.888335
 30
0.0
 10
167.039012
 20
117.706913
 30
0.0
 10
167.490018
 20
117.288818
 30
0.0
 10
170.669807
 20
112.912215
 30
0.0
 10
170.882437
 20
112.507609
 30
0.0
 10
170.970972
 20
112.059188
 30
0.0
 10
170.928072
 20
111.604129
 30
0.0
 10
170.669807
 20
111.045998
 30
0.0
 10
168.167960
 20
107.602502
 30
0.0
 10
170.669807
 20
104.159008
 30
0.0
 10
170.882437
 20
103.754402
 30
0.0
 10
170.970972
 20
103.305980
 30
0.0
 10
170.928072
 20
102.850921
 30
0.0
 10
170.669807
 20
102.292790
 30
0.0
 10
167.490018
 20
97.916188
 30
0.0
 10
167.170920
 20
97.588933
 30
0.0
 10
166.771804
 20
97.366161
 30
0.0
 10
166.325762
 20
97.266342
 30
0.0
 10
165.715140
 20
97.339494
 30
0.0
 10
161.667068
 20
98.654793
 30
0.0
 10
159.843166
 20
96.144405
 30
0.0
 10
162.345013
 20
92.700912
 30
0.0
 10
162.557643
 20
92.296305
 30
0.0
 10
162.646177
 20
91.847884
 30
0.0
 10
162.603278
 20
91.392825
 30
0.0
 10
162.345013
 20
90.834694
 30
0.0
 10
159.165224
 20
86.458092
 30
0.0
 10
158.846126
 20
86.130836
 30
0.0
 10
158.447010
 20
85.908065
 30
0.0
 10
158.000967
 20
85.808246
 30
0.0
 10
157.390346
 20
85.881398
 30
0.0
 10
153.342274
 20
87.196695
 30
0.0
 10
151.518374
 20
84.686309
 30
0.0
 10
154.020218
 20
81.242815
 30
0.0
 10
154.232848
 20
80.838209
 30
0.0
 10
154.321383
 20
80.389788
 30
0.0
 10
154.278483
 20
79.934729
 30
0.0
 10
154.020218
 20
79.376598
 30
0.0
 10
150.840429
 20
74.999993
 30
0.0
 10
150.521331
 20
74.672738
 30
0.0
 10
150.122218
 20
74.449969
 30
0.0
 10
149.676173
 20
74.350147
 30
0.0
 10
149.065551
 20
74.423299
 30
0.0
 10
145.017479
 20
75.738598
 30
0.0
 10
142.515635
 20
72.295105
 30
0.0
 10
142.196537
 20
71.967849
 30
0.0
 10
141.797421
 20
71.745078
 30
0.0
 10
141.351378
 20
71.645259
 30
0.0
 10
140.740757
 20
71.718411
 30
0.0
 10
135.595752
 20
73.390125
 30
0.0
 10
135.185907
 20
73.592478
 30
0.0
 10
134.850706
 20
73.903221
 30
0.0
 10
134.617936
 20
74.296588
 30
0.0
 10
134.498816
 20
74.899927
 30
0.0
 10
134.498816
 20
79.156322
 30
0.0
 10
131.547679
 20
80.115204
 30
0.0
 10
129.723777
 20
77.604816
 30
0.0
 10
132.225624
 20
74.161322
 30
0.0
 10
132.271410
 20
74.074195
 30
0.0
 10
132.330912
 20
73.995783
 30
0.0
 10
132.348534
 20
73.927446
 30
0.0
 10
132.438256
 20
73.756716
 30
0.0
 10
132.526791
 20
73.308295
 30
0.0
 10
132.521817
 20
73.255397
 30
0.0
 10
132.528829
 20
73.228213
 30
0.0
 10
132.501637
 20
73.041301
 30
0.0
 10
132.483910
 20
72.853235
 30
0.0
 10
132.469861
 20
72.822882
 30
0.0
 10
132.463035
 20
72.775897
 30
0.0
 10
132.271087
 20
72.361078
 30
0.0
 10
132.239692
 20
72.325450
 30
0.0
 10
132.225643
 20
72.295105
 30
0.0
 10
129.045854
 20
67.918502
 30
0.0
 10
128.913993
 20
67.783271
 30
0.0
 10
128.789105
 20
67.641541
 30
0.0
 10
128.754918
 20
67.620137
 30
0.0
 10
128.726755
 20
67.591255
 30
0.0
 10
128.561814
 20
67.499190
 30
0.0
 10
128.401736
 20
67.398929
 30
0.0
 10
128.362866
 20
67.388134
 30
0.0
 10
128.327639
 20
67.368476
 30
0.0
 10
128.143294
 20
67.327222
 30
0.0
 10
127.961295
 20
67.276729
 30
0.0
 10
127.920967
 20
67.277522
 30
0.0
 10
127.881597
 20
67.268712
 30
0.0
 10
127.787694
 20
67.279957
 30
0.0
 10
127.504296
 20
67.285142
 30
0.0
 10
127.358629
 20
67.331357
 30
0.0
 10
127.270976
 20
67.341861
 30
0.0
 10
123.222904
 20
68.657158
 30
0.0
 10
120.721059
 20
65.213664
 30
0.0
 10
120.589199
 20
65.078433
 30
0.0
 10
120.464310
 20
64.936703
 30
0.0
 10
120.430123
 20
64.915299
 30
0.0
 10
120.401961
 20
64.886417
 30
0.0
 10
120.237020
 20
64.794352
 30
0.0
 10
120.076942
 20
64.694091
 30
0.0
 10
120.038072
 20
64.683296
 30
0.0
 10
120.002845
 20
64.663637
 30
0.0
 10
119.818499
 20
64.622384
 30
0.0
 10
119.636500
 20
64.571891
 30
0.0
 10
119.596173
 20
64.572684
 30
0.0
 10
119.556803
 20
64.563874
 30
0.0
 10
119.462899
 20
64.575119
 30
0.0
 10
119.179501
 20
64.580304
 30
0.0
 10
119.033835
 20
64.626519
 30
0.0
 10
118.946181
 20
64.637023
 30
0.0
 10
113.801176
 20
66.308737
 30
0.0
 10
113.703087
 20
66.357167
 30
0.0
 10
113.598820
 20
66.390247
 30
0.0
 10
113.499239
 20
66.457814
 30
0.0
 10
113.391331
 20
66.511091
 30
0.0
 10
113.311112
 20
66.585457
 30
0.0
 10
113.220587
 20
66.646877
 30
0.0
 10
113.144379
 20
66.740024
 30
0.0
 10
113.056130
 20
66.821833
 30
0.0
 10
113.000425
 20
66.915975
 30
0.0
 10
112.931154
 20
67.000639
 30
0.0
 10
112.884648
 20
67.111629
 30
0.0
 10
112.823360
 20
67.215200
 30
0.0
 10
112.807432
 20
67.295932
 30
0.0
 10
112.754521
 20
67.422204
 30
0.0
 10
112.720535
 20
67.736056
 30
0.0
 10
112.704237
 20
67.818540
 30
0.0
 10
112.704237
 20
72.074934
 30
0.0
 10
109.753101
 20
73.033816
 30
0.0
 10
107.251257
 20
69.590319
 30
0.0
 10
107.119396
 20
69.455088
 30
0.0
 10
106.994508
 20
69.313359
 30
0.0
 10
106.960321
 20
69.291954
 30
0.0
 10
106.932158
 20
69.263072
 30
0.0
 10
106.767225
 20
69.171013
 30
0.0
 10
106.607139
 20
69.070747
 30
0.0
 10
106.568264
 20
69.059952
 30
0.0
 10
106.533045
 20
69.040293
 30
0.0
 10
106.348720
 20
68.999042
 30
0.0
 10
106.166698
 20
68.948543
 30
0.0
 10
106.126370
 20
68.949337
 30
0.0
 10
106.087000
 20
68.940527
 30
0.0
 10
105.993097
 20
68.951771
 30
0.0
 10
105.709699
 20
68.956957
 30
0.0
 10
105.564032
 20
69.003172
 30
0.0
 10
105.476379
 20
69.013676
 30
0.0
 10
100.331373
 20
70.685390
 30
0.0
 10
100.233284
 20
70.733819
 30
0.0
 10
100.129017
 20
70.766900
 30
0.0
 10
100.029436
 20
70.834467
 30
0.0
 10
99.921528
 20
70.887743
 30
0.0
 10
99.841309
 20
70.962110
 30
0.0
 10
99.750785
 20
71.023530
 30
0.0
 10
99.674577
 20
71.116677
 30
0.0
 10
99.586328
 20
71.198486
 30
0.0
 10
99.530622
 20
71.292627
 30
0.0
 10
99.461352
 20
71.377291
 30
0.0
 10
99.414846
 20
71.488281
 30
0.0
 10
99.353558
 20
71.591853
 30
0.0
 10
99.337630
 20
71.672585
 30
0.0
 10
99.284719
 20
71.798857
 30
0.0
 10
99.250733
 20
72.112709
 30
0.0
 10
99.234434
 20
72.195193
 30
0.0
 10
99.234434
 20
76.451587
 30
0.0
 10
96.283298
 20
77.410469
 30
0.0
 10
93.781454
 20
73.966975
 30
0.0
 10
93.649594
 20
73.831744
 30
0.0
 10
93.524705
 20
73.690014
 30
0.0
 10
93.490518
 20
73.668610
 30
0.0
 10
93.462356
 20
73.639728
 30
0.0
 10
93.297415
 20
73.547663
 30
0.0
 10
93.137336
 20
73.447402
 30
0.0
 10
93.098467
 20
73.436607
 30
0.0
 10
93.063240
 20
73.416948
 30
0.0
 10
92.878894
 20
73.375695
 30
0.0
 10
92.696895
 20
73.325202
 30
0.0
 10
92.656567
 20
73.325995
 30
0.0
 10
92.617197
 20
73.317185
 30
0.0
 10
92.523294
 20
73.328429
 30
0.0
 10
92.239896
 20
73.333615
 30
0.0
 10
92.094230
 20
73.379830
 30
0.0
 10
92.006576
 20
73.390334
 30
0.0
 10
86.861571
 20
75.062048
 30
0.0
 10
86.763482
 20
75.110478
 30
0.0
 10
86.659215
 20
75.143558
 30
0.0
 10
86.559633
 20
75.211125
 30
0.0
 10
86.451726
 20
75.264402
 30
0.0
 10
86.371507
 20
75.338768
 30
0.0
 10
86.280982
 20
75.400188
 30
0.0
 10
86.204774
 20
75.493335
 30
0.0
 10
86.116525
 20
75.575144
 30
0.0
 10
86.060820
 20
75.669286
 30
0.0
 10
85.991549
 20
75.753950
 30
0.0
 10
85.945043
 20
75.864940
 30
0.0
 10
85.883755
 20
75.968511
 30
0.0
 10
85.867827
 20
76.049243
 30
0.0
 10
85.814916
 20
76.175515
 30
0.0
 10
85.780930
 20
76.489367
 30
0.0
 10
85.764632
 20
76.571851
 30
0.0
 10
85.764632
 20
80.828242
 30
0.0
 10
81.716562
 20
82.143539
 30
0.0
 10
81.618474
 20
82.191968
 30
0.0
 10
81.514207
 20
82.225049
 30
0.0
 10
81.414625
 20
82.292616
 30
0.0
 10
81.306718
 20
82.345892
 30
0.0
 10
81.226496
 20
82.420262
 30
0.0
 10
81.135974
 20
82.481679
 30
0.0
 10
81.059771
 20
82.574818
 30
0.0
 10
80.971517
 20
82.656632
 30
0.0
 10
80.915806
 20
82.750782
 30
0.0
 10
80.846541
 20
82.835440
 30
0.0
 10
80.800038
 20
82.946420
 30
0.0
 10
80.738747
 20
83.049999
 30
0.0
 10
80.722793
 20
83.130737
 30
0.0
 10
80.669884
 20
83.257006
 30
0.0
 10
80.635898
 20
83.570858
 30
0.0
 10
80.619600
 20
83.653342
 30
0.0
 10
80.619600
 20
89.062915
 30
0.0
 10
80.623807
 20
89.091892
 30
0.0
 10
80.620658
 20
89.120999
 30
0.0
 10
80.656634
 20
89.317515
 30
0.0
 10
80.685397
 20
89.515230
 30
0.0
 10
80.697700
 20
89.541802
 30
0.0
 10
80.702965
 20
89.570605
 30
0.0
 10
80.793442
 20
89.748725
 30
0.0
 10
80.877344
 20
89.930049
 30
0.0
 10
80.896711
 20
89.952010
 30
0.0
 10
80.909967
 20
89.978124
 30
0.0
 10
81.047429
 20
90.123068
 30
0.0
 10
81.179535
 20
90.272986
 30
0.0
 10
81.200940
 20
90.284946
 30
0.0
 10
81.224488
 20
90.309790
 30
0.0
 10
81.620474
 20
90.538075
 30
0.0
 10
81.679735
 20
90.552204
 30
0.0
 10
81.716525
 20
90.572736
 30
0.0
 10
85.764595
 20
91.888032
 30
0.0
 10
85.764595
 20
94.991042
 30
0.0
 10
82.813459
 20
95.949923
 30
0.0
 10
80.311614
 20
92.506430
 30
0.0
 10
79.992516
 20
92.179174
 30
0.0
 10
79.593400
 20
91.956403
 30
0.0
 10
79.147358
 20
91.856584
 30
0.0
 10
78.536736
 20
91.929736
 30
0.0
 10
73.391731
 20
93.601450
 30
0.0
 10
72.981886
 20
93.803803
 30
0.0
 10
72.646686
 20
94.114546
 30
0.0
 10
72.413916
 20
94.507913
 30
0.0
 10
72.294795
 20
95.111252
 30
0.0
 10
72.294795
 20
99.367644
 30
0.0
 10
68.246726
 20
100.682941
 30
0.0
 10
67.836881
 20
100.885294
 30
0.0
 10
67.501680
 20
101.196034
 30
0.0
 10
67.268910
 20
101.589401
 30
0.0
 10
67.149789
 20
102.192743
 30
0.0
 10
67.149789
 20
107.602523
 30
0.0
 10
67.215591
 20
108.054838
 30
0.0
 10
67.407539
 20
108.469658
 30
0.0
 10
67.709725
 20
108.812592
 30
0.0
 10
68.246726
 20
109.112325
 30
0.0
 10
72.294795
 20
110.427622
 30
0.0
 10
72.294795
 20
113.530631
 30
0.0
 10
68.246726
 20
114.845928
 30
0.0
 10
67.836881
 20
115.048281
 30
0.0
 10
67.501680
 20
115.359024
 30
0.0
 10
67.268910
 20
115.752391
 30
0.0
 10
67.149789
 20
116.355730
 30
0.0
 10
67.149789
 20
121.765510
 30
0.0
 10
67.153996
 20
121.794487
 30
0.0
 10
67.150848
 20
121.823594
 30
0.0
 10
67.186823
 20
122.020110
 30
0.0
 10
67.215586
 20
122.217826
 30
0.0
 10
67.227889
 20
122.244398
 30
0.0
 10
67.233154
 20
122.273200
 30
0.0
 10
67.323631
 20
122.451320
 30
0.0
 10
67.407533
 20
122.632645
 30
0.0
 10
67.426901
 20
122.654605
 30
0.0
 10
67.440156
 20
122.680719
 30
0.0
 10
67.577618
 20
122.825663
 30
0.0
 10
67.709725
 20
122.975582
 30
0.0
 10
67.731129
 20
122.987541
 30
0.0
 10
67.754677
 20
123.012385
 30
0.0
 10
68.150663
 20
123.240670
 30
0.0
 10
68.209925
 20
123.254799
 30
0.0
 10
68.246715
 20
123.275331
 30
0.0
 10
72.294784
 20
124.590627
 30
0.0
 10
72.294784
 20
127.693637
 30
0.0
 10
68.246715
 20
129.008934
 30
0.0
 10
68.148626
 20
129.057363
 30
0.0
 10
68.044359
 20
129.090444
 30
0.0
 10
67.944778
 20
129.158010
 30
0.0
 10
67.836870
 20
129.211287
 30
0.0
 10
67.756651
 20
129.285653
 30
0.0
 10
67.666127
 20
129.347074
 30
0.0
 10
67.589919
 20
129.440220
 30
0.0
 10
67.501669
 20
129.522030
 30
0.0
 10
67.445964
 20
129.616171
 30
0.0
 10
67.376694
 20
129.700835
 30
0.0
 10
67.330188
 20
129.811825
 30
0.0
 10
67.268900
 20
129.915396
 30
0.0
 10
67.252972
 20
129.996128
 30
0.0
 10
67.200060
 20
130.122401
 30
0.0
 10
67.166075
 20
130.436252
 30
0.0
 10
67.149803
 20
130.518736
 30
0.0
 10
67.149803
 20
135.928515
 30
0.0
 10
67.154010
 20
135.957493
 30
0.0
 10
67.150861
 20
135.986599
 30
0.0
 10
67.186836
 20
136.183116
 30
0.0
 10
67.215599
 20
136.380831
 30
0.0
 10
67.227902
 20
136.407403
 30
0.0
 10
67.233168
 20
136.436206
 30
0.0
 10
67.323645
 20
136.614326
 30
0.0
 10
67.407547
 20
136.795650
 30
0.0
 10
67.426914
 20
136.817611
 30
0.0
 10
67.440170
 20
136.843725
 30
0.0
 10
67.577631
 20
136.988669
 30
0.0
 10
67.709738
 20
137.138587
 30
0.0
 10
67.731143
 20
137.150546
 30
0.0
 10
67.754690
 20
137.175391
 30
0.0
 10
68.150676
 20
137.403676
 30
0.0
 10
68.209938
 20
137.417805
 30
0.0
 10
68.246728
 20
137.438336
 30
0.0
 10
72.294798
 20
138.753633
 30
0.0
 10
72.294798
 20
143.010025
 30
0.0
 10
72.299004
 20
143.039002
 30
0.0
 10
72.295856
 20
143.068109
 30
0.0
 10
72.331831
 20
143.264625
 30
0.0
 10
72.360594
 20
143.462341
 30
0.0
 10
72.372897
 20
143.488913
 30
0.0
 10
72.378163
 20
143.517715
 30
0.0
 10
72.468639
 20
143.695835
 30
0.0
 10
72.552541
 20
143.877160
 30
0.0
 10
72.571909
 20
143.899120
 30
0.0
 10
72.585165
 20
143.925234
 30
0.0
 10
72.722626
 20
144.070178
 30
0.0
 10
72.854733
 20
144.220097
 30
0.0
 10
72.876137
 20
144.232056
 30
0.0
 10
72.899685
 20
144.256900
 30
0.0
 10
73.295671
 20
144.485185
 30
0.0
 10
73.354933
 20
144.499314
 30
0.0
 10
73.391723
 20
144.519846
 30
0.0
 10
78.536729
 20
146.191560
 30
0.0
 10
78.712161
 20
146.221619
 30
0.0
 10
78.885293
 20
146.262894
 30
0.0
 10
78.936599
 20
146.260063
 30
0.0
 10
78.987240
 20
146.268742
 30
0.0
 10
79.163966
 20
146.247575
 30
0.0
 10
79.341681
 20
146.237812
 30
0.0
 10
79.390055
 20
146.220482
 30
0.0
 10
79.441072
 20
146.214370
 30
0.0
 10
79.604436
 20
146.143723
 30
0.0
 10
79.772007
 20
146.083726
 30
0.0
 10
79.813441
 20
146.053342
 30
0.0
 10
79.860600
 20
146.032942
 30
0.0
 10
79.933858
 20
145.965032
 30
0.0
 10
80.140596
 20
145.813423
 30
0.0
 10
80.243061
 20
145.678390
 30
0.0
 10
80.311606
 20
145.614848
 30
0.0
 10
82.813451
 20
142.171354
 30
0.0
 10
85.764587
 20
143.130236
 30
0.0
 10
85.764587
 20
146.233245
 30
0.0
 10
81.716518
 20
147.548542
 30
0.0
 10
81.306673
 20
147.750895
 30
0.0
 10
80.971472
 20
148.061638
 30
0.0
 10
80.738702
 20
148.455004
 30
0.0
 10
80.619581
 20
149.058344
 30
0.0
 10
80.619581
 20
154.468124
 30
0.0
 10
80.685383
 20
154.920439
 30
0.0
 10
80.877331
 20
155.335258
 30
0.0
 10
81.179517
 20
155.678193
 30
0.0
 10
81.716518
 20
155.977926
 30
0.0
 10
85.764587
 20
157.293223
 30
0.0
 10
85.764587
 20
161.549614
 30
0.0
 10
85.830389
 20
162.001930
 30
0.0
 10
86.022336
 20
162.416749
 30
0.0
 10
86.324522
 20
162.759684
 30
0.0
 10
86.861523
 20
163.059417
 30
0.0
 10
92.006528
 20
164.731131
 30
0.0
 10
92.457040
 20
164.808323
 30
0.0
 10
92.910872
 20
164.753954
 30
0.0
 10
93.330400
 20
164.572532
 30
0.0
 10
93.781406
 20
164.154437
 30
0.0
 10
96.283251
 20
160.710944
 30
0.0
 10
99.234387
 20
161.669825
 30
0.0
 10
99.234387
 20
165.926220
 30
0.0
 10
99.300189
 20
166.378535
 30
0.0
 10
99.492136
 20
166.793355
 30
0.0
 10
99.794322
 20
167.136289
 30
0.0
 10
100.331323
 20
167.436022
 30
0.0
 10
105.476328
 20
169.107736
 30
0.0
 10
105.926840
 20
169.184929
 30
0.0
 10
106.380672
 20
169.130559
 30
0.0
 10
106.800200
 20
168.949137
 30
0.0
 10
107.251206
 20
168.531043
 30
0.0
 10
109.753051
 20
165.087546
 30
0.0
 10
112.704187
 20
166.046428
 30
0.0
 10
112.704187
 20
170.302822
 30
0.0
 10
112.769989
 20
170.755138
 30
0.0
 10
112.961936
 20
171.169957
 30
0.0
 10
113.264122
 20
171.512891
 30
0.0
 10
113.801123
 20
171.812625
 30
0.0
 10
118.946128
 20
173.484339
 30
0.0
 10
119.396640
 20
173.561531
 30
0.0
  0
LWPOLYLINE
  5
101
100
AcDbEntity
  8
Layer_4
 62
7
100
AcDbPolyline
 90
153
 70
1
 10
110.431072
 20
102.292793
 30
0.0
 10
110.111974
 20
101.965538
 30
0.0
 10
109.712858
 20
101.742767
 30
0.0
 10
109.266815
 20
101.642947
 30
0.0
 10
108.656194
 20
101.716099
 30
0.0
 10
104.608122
 20
103.031398
 30
0.0
 10
102.784219
 20
100.521013
 30
0.0
 10
105.286067
 20
97.077517
 30
0.0
 10
105.498696
 20
96.672908
 30
0.0
 10
105.587231
 20
96.224490
 30
0.0
 10
105.544332
 20
95.769430
 30
0.0
 10
105.286067
 20
95.211299
 30
0.0
 10
102.106278
 20
90.834697
 30
0.0
 10
101.787179
 20
90.507442
 30
0.0
 10
101.388063
 20
90.284670
 30
0.0
 10
100.942021
 20
90.184851
 30
0.0
 10
100.331400
 20
90.258003
 30
0.0
 10
96.283328
 20
91.573302
 30
0.0
 10
93.781483
 20
88.129806
 30
0.0
 10
93.462385
 20
87.802551
 30
0.0
 10
93.063272
 20
87.579782
 30
0.0
 10
92.617227
 20
87.479960
 30
0.0
 10
92.006605
 20
87.553112
 30
0.0
 10
87.352164
 20
89.065433
 30
0.0
 10
83.794658
 20
87.909530
 30
0.0
 10
83.794658
 20
84.806523
 30
0.0
 10
87.842728
 20
83.491226
 30
0.0
 10
87.966714
 20
83.430009
 30
0.0
 10
88.096878
 20
83.383406
 30
0.0
 10
88.170591
 20
83.329349
 30
0.0
 10
88.252573
 20
83.288873
 30
0.0
 10
88.353985
 20
83.194861
 30
0.0
 10
88.465467
 20
83.113107
 30
0.0
 10
88.520720
 20
83.040291
 30
0.0
 10
88.587773
 20
82.978133
 30
0.0
 10
88.658192
 20
82.859129
 30
0.0
 10
88.741766
 20
82.748993
 30
0.0
 10
88.755974
 20
82.693883
 30
0.0
 10
88.820543
 20
82.584766
 30
0.0
 10
88.939664
 20
81.981424
 30
0.0
 10
88.939664
 20
77.725029
 30
0.0
 10
91.890800
 20
76.766147
 30
0.0
 10
94.392644
 20
80.209641
 30
0.0
 10
94.544618
 20
80.365499
 30
0.0
 10
94.694356
 20
80.523387
 30
0.0
 10
94.703987
 20
80.528943
 30
0.0
 10
94.711766
 20
80.536907
 30
0.0
 10
94.901922
 20
80.643045
 30
0.0
 10
95.090366
 20
80.751683
 30
0.0
 10
95.101161
 20
80.754328
 30
0.0
 10
95.110871
 20
80.759752
 30
0.0
 10
95.323335
 20
80.807298
 30
0.0
 10
95.534972
 20
80.857754
 30
0.0
 10
95.546058
 20
80.857225
 30
0.0
 10
95.556906
 20
80.859606
 30
0.0
 10
95.603531
 20
80.854023
 30
0.0
 10
95.991352
 20
80.832698
 30
0.0
 10
96.096913
 20
80.794902
 30
0.0
 10
96.167527
 20
80.786436
 30
0.0
 10
101.312533
 20
79.114721
 30
0.0
 10
101.436519
 20
79.053505
 30
0.0
 10
101.566684
 20
79.006901
 30
0.0
 10
101.640397
 20
78.952844
 30
0.0
 10
101.722378
 20
78.912368
 30
0.0
 10
101.823785
 20
78.818359
 30
0.0
 10
101.935272
 20
78.736603
 30
0.0
 10
101.990533
 20
78.663779
 30
0.0
 10
102.057578
 20
78.601626
 30
0.0
 10
102.127992
 20
78.482632
 30
0.0
 10
102.211571
 20
78.372488
 30
0.0
 10
102.225779
 20
78.317373
 30
0.0
 10
102.290346
 20
78.208259
 30
0.0
 10
102.409466
 20
77.604919
 30
0.0
 10
102.409466
 20
73.348525
 30
0.0
 10
105.360602
 20
72.389643
 30
0.0
 10
107.862447
 20
75.833139
 30
0.0
 10
108.014421
 20
75.988997
 30
0.0
 10
108.164159
 20
76.146885
 30
0.0
 10
108.173790
 20
76.152441
 30
0.0
 10
108.181542
 20
76.160405
 30
0.0
 10
108.371666
 20
76.266524
 30
0.0
 10
108.560142
 20
76.375181
 30
0.0
 10
108.570964
 20
76.377826
 30
0.0
 10
108.580674
 20
76.383250
 30
0.0
 10
108.793066
 20
76.430783
 30
0.0
 10
109.004777
 20
76.481255
 30
0.0
 10
109.015863
 20
76.480726
 30
0.0
 10
109.026711
 20
76.483107
 30
0.0
 10
109.073336
 20
76.477524
 30
0.0
 10
109.461157
 20
76.456199
 30
0.0
 10
109.566718
 20
76.418403
 30
0.0
 10
109.637333
 20
76.409936
 30
0.0
 10
114.782338
 20
74.738222
 30
0.0
 10
114.906324
 20
74.677005
 30
0.0
 10
115.036489
 20
74.630402
 30
0.0
 10
115.110202
 20
74.576345
 30
0.0
 10
115.192183
 20
74.535869
 30
0.0
 10
115.293590
 20
74.441860
 30
0.0
 10
115.405077
 20
74.360103
 30
0.0
 10
115.460338
 20
74.287279
 30
0.0
 10
115.527384
 20
74.225126
 30
0.0
 10
115.597797
 20
74.106132
 30
0.0
 10
115.681376
 20
73.995989
 30
0.0
 10
115.695584
 20
73.940874
 30
0.0
 10
115.760151
 20
73.831760
 30
0.0
 10
115.879271
 20
73.228420
 30
0.0
 10
115.879271
 20
68.972025
 30
0.0
 10
118.830407
 20
68.013143
 30
0.0
 10
121.332252
 20
71.456637
 30
0.0
 10
121.484226
 20
71.612495
 30
0.0
 10
121.633964
 20
71.770383
 30
0.0
 10
121.643595
 20
71.775939
 30
0.0
 10
121.651374
 20
71.783903
 30
0.0
 10
121.841530
 20
71.890041
 30
0.0
 10
122.029974
 20
71.998679
 30
0.0
 10
122.040769
 20
72.001324
 30
0.0
 10
122.050479
 20
72.006748
 30
0.0
 10
122.262942
 20
72.054294
 30
0.0
 10
122.474580
 20
72.104750
 30
0.0
 10
122.485666
 20
72.104221
 30
0.0
 10
122.496514
 20
72.106602
 30
0.0
 10
122.543139
 20
72.101019
 30
0.0
 10
122.930960
 20
72.079694
 30
0.0
 10
123.036520
 20
72.041898
 30
0.0
 10
123.107135
 20
72.033432
 30
0.0
 10
127.155207
 20
70.718135
 30
0.0
 10
128.979107
 20
73.228520
 30
0.0
 10
126.780449
 20
76.254713
 30
0.0
 10
122.126007
 20
77.767034
 30
0.0
 10
121.716162
 20
77.969388
 30
0.0
 10
121.380962
 20
78.280130
 30
0.0
 10
121.148192
 20
78.673497
 30
0.0
 10
121.029071
 20
79.276837
 30
0.0
 10
121.029071
 20
83.533231
 30
0.0
 10
116.981002
 20
84.848528
 30
0.0
 10
116.571157
 20
85.050881
 30
0.0
 10
116.235956
 20
85.361624
 30
0.0
 10
116.003186
 20
85.754991
 30
0.0
 10
115.884066
 20
86.358330
 30
0.0
 10
115.884066
 20
91.768110
 30
0.0
 10
115.949868
 20
92.220426
 30
0.0
 10
116.141815
 20
92.635245
 30
0.0
 10
116.444001
 20
92.978179
 30
0.0
 10
116.981002
 20
93.277912
 30
0.0
 10
121.029071
 20
94.593209
 30
0.0
 10
121.029071
 20
97.696218
 30
0.0
 10
116.981002
 20
99.011515
 30
0.0
 10
116.571157
 20
99.213868
 30
0.0
 10
116.235956
 20
99.524611
 30
0.0
 10
116.003186
 20
99.917978
 30
0.0
 10
115.884066
 20
100.521318
 30
0.0
 10
115.884066
 20
104.777709
 30
0.0
 10
112.932930
 20
105.736591
 30
0.0
  0
LWPOLYLINE
  5
102
100
AcDbEntity
  8
Layer_4
 62
7
100
AcDbPolyline
 90
180
 70
1
 10
162.041869
 20
113.333588
 30
0.0
 10
159.165266
 20
109.374286
 30
0.0
 10
159.033406
 20
109.239055
 30
0.0
 10
158.908517
 20
109.097326
 30
0.0
 10
158.874330
 20
109.075921
 30
0.0
 10
158.846168
 20
109.047039
 30
0.0
 10
158.681227
 20
108.954975
 30
0.0
 10
158.521149
 20
108.854714
 30
0.0
 10
158.482279
 20
108.843919
 30
0.0
 10
158.447052
 20
108.824260
 30
0.0
 10
158.262706
 20
108.783006
 30
0.0
 10
158.080707
 20
108.732513
 30
0.0
 10
158.040380
 20
108.733307
 30
0.0
 10
158.001010
 20
108.724496
 30
0.0
 10
157.907106
 20
108.735741
 30
0.0
 10
157.623708
 20
108.740927
 30
0.0
 10
157.478042
 20
108.787142
 30
0.0
 10
157.390388
 20
108.797646
 30
0.0
 10
153.342316
 20
110.112945
 30
0.0
 10
150.840472
 20
106.669448
 30
0.0
 10
150.708611
 20
106.534217
 30
0.0
 10
150.583723
 20
106.392488
 30
0.0
 10
150.549536
 20
106.371083
 30
0.0
 10
150.521374
 20
106.342201
 30
0.0
 10
150.356440
 20
106.250142
 30
0.0
 10
150.196354
 20
106.149876
 30
0.0
 10
150.157479
 20
106.139081
 30
0.0
 10
150.122260
 20
106.119422
 30
0.0
 10
149.937936
 20
106.078171
 30
0.0
 10
149.755913
 20
106.027672
 30
0.0
 10
149.715585
 20
106.028466
 30
0.0
 10
149.676215
 20
106.019656
 30
0.0
 10
149.582312
 20
106.030900
 30
0.0
 10
149.298914
 20
106.036086
 30
0.0
 10
149.153248
 20
106.082301
 30
0.0
 10
149.065594
 20
106.092805
 30
0.0
 10
143.920588
 20
107.764519
 30
0.0
 10
143.822499
 20
107.812948
 30
0.0
 10
143.718232
 20
107.846029
 30
0.0
 10
143.618651
 20
107.913596
 30
0.0
 10
143.510743
 20
107.966872
 30
0.0
 10
143.430524
 20
108.041239
 30
0.0
 10
143.340000
 20
108.102659
 30
0.0
 10
143.263792
 20
108.195806
 30
0.0
 10
143.175543
 20
108.277615
 30
0.0
 10
143.119837
 20
108.371756
 30
0.0
 10
143.050567
 20
108.456420
 30
0.0
 10
143.004061
 20
108.567411
 30
0.0
 10
142.942773
 20
108.670982
 30
0.0
 10
142.926845
 20
108.751714
 30
0.0
 10
142.873934
 20
108.877986
 30
0.0
 10
142.839948
 20
109.191838
 30
0.0
 10
142.823650
 20
109.274322
 30
0.0
 10
142.823650
 20
113.530716
 30
0.0
 10
139.872514
 20
114.489598
 30
0.0
 10
137.370669
 20
111.046104
 30
0.0
 10
137.238809
 20
110.910873
 30
0.0
 10
137.113920
 20
110.769143
 30
0.0
 10
137.079733
 20
110.747739
 30
0.0
 10
137.051571
 20
110.718857
 30
0.0
 10
136.886630
 20
110.626792
 30
0.0
 10
136.726552
 20
110.526531
 30
0.0
 10
136.687682
 20
110.515736
 30
0.0
 10
136.652455
 20
110.496077
 30
0.0
 10
136.468109
 20
110.454824
 30
0.0
 10
136.286110
 20
110.404331
 30
0.0
 10
136.245783
 20
110.405124
 30
0.0
 10
136.206413
 20
110.396314
 30
0.0
 10
136.112509
 20
110.407558
 30
0.0
 10
135.829111
 20
110.412744
 30
0.0
 10
135.683445
 20
110.458959
 30
0.0
 10
135.595791
 20
110.469463
 30
0.0
 10
131.547719
 20
111.784760
 30
0.0
 10
129.723819
 20
109.274375
 30
0.0
 10
132.225664
 20
105.830881
 30
0.0
 10
132.271450
 20
105.743753
 30
0.0
 10
132.330952
 20
105.665341
 30
0.0
 10
132.348573
 20
105.597005
 30
0.0
 10
132.438296
 20
105.426275
 30
0.0
 10
132.526831
 20
104.977853
 30
0.0
 10
132.521857
 20
104.924955
 30
0.0
 10
132.528868
 20
104.897772
 30
0.0
 10
132.501677
 20
104.710860
 30
0.0
 10
132.483950
 20
104.522794
 30
0.0
 10
132.469901
 20
104.492441
 30
0.0
 10
132.463074
 20
104.445456
 30
0.0
 10
132.271127
 20
104.030637
 30
0.0
 10
132.239732
 20
103.995008
 30
0.0
 10
132.225682
 20
103.964663
 30
0.0
 10
129.723835
 20
100.521169
 30
0.0
 10
131.547738
 20
98.010782
 30
0.0
 10
135.595810
 20
99.326081
 30
0.0
 10
135.771242
 20
99.356140
 30
0.0
 10
135.944375
 20
99.397415
 30
0.0
 10
135.995680
 20
99.394584
 30
0.0
 10
136.046321
 20
99.403262
 30
0.0
 10
136.223047
 20
99.382096
 30
0.0
 10
136.400762
 20
99.372333
 30
0.0
 10
136.449136
 20
99.355002
 30
0.0
 10
136.500153
 20
99.348891
 30
0.0
 10
136.663517
 20
99.278244
 30
0.0
 10
136.831089
 20
99.218247
 30
0.0
 10
136.872522
 20
99.187863
 30
0.0
 10
136.919682
 20
99.167463
 30
0.0
 10
136.992939
 20
99.099553
 30
0.0
 10
137.199677
 20
98.947944
 30
0.0
 10
137.302142
 20
98.812911
 30
0.0
 10
137.370688
 20
98.749369
 30
0.0
 10
140.550477
 20
94.372766
 30
0.0
 10
140.596263
 20
94.285639
 30
0.0
 10
140.655765
 20
94.207227
 30
0.0
 10
140.673386
 20
94.138890
 30
0.0
 10
140.763109
 20
93.968160
 30
0.0
 10
140.851644
 20
93.519739
 30
0.0
 10
140.846670
 20
93.466841
 30
0.0
 10
140.853681
 20
93.439657
 30
0.0
 10
140.826490
 20
93.252745
 30
0.0
 10
140.808763
 20
93.064679
 30
0.0
 10
140.794714
 20
93.034326
 30
0.0
 10
140.787887
 20
92.987342
 30
0.0
 10
140.595940
 20
92.572523
 30
0.0
 10
140.564545
 20
92.536894
 30
0.0
 10
140.550495
 20
92.506549
 30
0.0
 10
138.048648
 20
89.063052
 30
0.0
 10
140.550495
 20
85.619558
 30
0.0
 10
140.596281
 20
85.532431
 30
0.0
 10
140.655783
 20
85.454019
 30
0.0
 10
140.673405
 20
85.385682
 30
0.0
 10
140.763128
 20
85.214952
 30
0.0
 10
140.851662
 20
84.766531
 30
0.0
 10
140.846688
 20
84.713633
 30
0.0
 10
140.853700
 20
84.686450
 30
0.0
 10
140.826509
 20
84.499537
 30
0.0
 10
140.808781
 20
84.311471
 30
0.0
 10
140.794732
 20
84.281118
 30
0.0
 10
140.787906
 20
84.234134
 30
0.0
 10
140.595959
 20
83.819315
 30
0.0
 10
140.564563
 20
83.783686
 30
0.0
 10
140.550514
 20
83.753341
 30
0.0
 10
137.673911
 20
79.794039
 30
0.0
 10
137.673911
 20
76.053453
 30
0.0
 10
140.625047
 20
75.094571
 30
0.0
 10
143.126891
 20
78.538065
 30
0.0
 10
143.445989
 20
78.865320
 30
0.0
 10
143.845105
 20
79.088091
 30
0.0
 10
144.291148
 20
79.187910
 30
0.0
 10
144.901769
 20
79.114758
 30
0.0
 10
148.949841
 20
77.799459
 30
0.0
 10
150.773744
 20
80.309847
 30
0.0
 10
148.271897
 20
83.753341
 30
0.0
 10
148.059267
 20
84.157947
 30
0.0
 10
147.970732
 20
84.606368
 30
0.0
 10
148.013632
 20
85.061428
 30
0.0
 10
148.271897
 20
85.619558
 30
0.0
 10
151.451686
 20
89.996161
 30
0.0
 10
151.770784
 20
90.323416
 30
0.0
 10
152.169900
 20
90.546187
 30
0.0
 10
152.615942
 20
90.646007
 30
0.0
 10
153.226564
 20
90.572855
 30
0.0
 10
157.274636
 20
89.257558
 30
0.0
 10
159.098536
 20
91.767943
 30
0.0
 10
156.596691
 20
95.211437
 30
0.0
 10
156.384061
 20
95.616043
 30
0.0
 10
156.295527
 20
96.064464
 30
0.0
 10
156.338426
 20
96.519524
 30
0.0
 10
156.596691
 20
97.077654
 30
0.0
 10
159.776480
 20
101.454260
 30
0.0
 10
160.095578
 20
101.781515
 30
0.0
 10
160.494692
 20
102.004283
 30
0.0
 10
160.940737
 20
102.104105
 30
0.0
 10
161.551358
 20
102.030953
 30
0.0
 10
165.599430
 20
100.715654
 30
0.0
 10
167.423330
 20
103.226039
 30
0.0
 10
164.921486
 20
106.669533
 30
0.0
 10
164.708856
 20
107.074139
 30
0.0
 10
164.620321
 20
107.522560
 30
0.0
 10
164.663221
 20
107.977620
 30
0.0
 10
164.921486
 20
108.535750
 30
0.0
 10
167.423333
 20
111.979247
 30
0.0
 10
165.599430
 20
114.489632
 30
0.0
  0
LWPOLYLINE
  5
103
100
AcDbEntity
  8
Layer_4
 62
7
100
AcDbPolyline
 90
435
 70
1
 10
124.204058
 20
157.691286
 30
0.0
 10
124.204058
 20
153.434891
 30
0.0
 10
124.138256
 20
152.982575
 30
0.0
 10
123.946309
 20
152.567756
 30
0.0
 10
123.644123
 20
152.224822
 30
0.0
 10
123.256754
 20
151.982202
 30
0.0
 10
123.162692
 20
151.956114
 30
0.0
 10
123.107122
 20
151.925097
 30
0.0
 10
119.059052
 20
150.609800
 30
0.0
 10
119.059052
 20
147.506791
 30
0.0
 10
123.107122
 20
146.191494
 30
0.0
 10
123.231108
 20
146.130277
 30
0.0
 10
123.361273
 20
146.083674
 30
0.0
 10
123.434986
 20
146.029616
 30
0.0
 10
123.516967
 20
145.989141
 30
0.0
 10
123.618374
 20
145.895131
 30
0.0
 10
123.729861
 20
145.813375
 30
0.0
 10
123.785122
 20
145.740551
 30
0.0
 10
123.852167
 20
145.678398
 30
0.0
 10
123.922581
 20
145.559404
 30
0.0
 10
124.006160
 20
145.449261
 30
0.0
 10
124.020368
 20
145.394146
 30
0.0
 10
124.084935
 20
145.285031
 30
0.0
 10
124.204055
 20
144.681691
 30
0.0
 10
124.204055
 20
139.271912
 30
0.0
 10
124.138253
 20
138.819596
 30
0.0
 10
123.946306
 20
138.404777
 30
0.0
 10
123.644120
 20
138.061843
 30
0.0
 10
123.256752
 20
137.819223
 30
0.0
 10
123.162690
 20
137.793135
 30
0.0
 10
123.107119
 20
137.762118
 30
0.0
 10
119.059050
 20
136.446821
 30
0.0
 10
119.059050
 20
132.190427
 30
0.0
 10
118.993248
 20
131.738111
 30
0.0
 10
118.801301
 20
131.323292
 30
0.0
 10
118.499115
 20
130.980357
 30
0.0
 10
118.111746
 20
130.737737
 30
0.0
 10
118.017684
 20
130.711649
 30
0.0
 10
117.962114
 20
130.680632
 30
0.0
 10
112.817108
 20
129.008920
 30
0.0
 10
112.670061
 20
128.983732
 30
0.0
 10
112.526299
 20
128.943849
 30
0.0
 10
112.445879
 20
128.945436
 30
0.0
 10
112.366597
 20
128.931863
 30
0.0
 10
112.218465
 20
128.949617
 30
0.0
 10
112.069301
 20
128.952342
 30
0.0
 10
111.992630
 20
128.976657
 30
0.0
 10
111.912765
 20
128.986235
 30
0.0
 10
111.775838
 20
129.045449
 30
0.0
 10
111.633624
 20
129.090568
 30
0.0
 10
111.567058
 20
129.135735
 30
0.0
 10
111.493237
 20
129.167657
 30
0.0
 10
111.420151
 20
129.235409
 30
0.0
 10
111.255392
 20
129.347198
 30
0.0
 10
111.116695
 20
129.516719
 30
0.0
 10
111.042230
 20
129.585752
 30
0.0
 10
108.540386
 20
133.029246
 30
0.0
 10
104.492314
 20
131.713946
 30
0.0
 10
104.345266
 20
131.688758
 30
0.0
 10
104.201505
 20
131.648875
 30
0.0
 10
104.121085
 20
131.650462
 30
0.0
 10
104.041803
 20
131.636889
 30
0.0
 10
103.893670
 20
131.654643
 30
0.0
 10
103.744506
 20
131.657368
 30
0.0
 10
103.667835
 20
131.681683
 30
0.0
 10
103.587971
 20
131.691261
 30
0.0
 10
103.451044
 20
131.750475
 30
0.0
 10
103.308830
 20
131.795594
 30
0.0
 10
103.242263
 20
131.840761
 30
0.0
 10
103.168442
 20
131.872683
 30
0.0
 10
103.095356
 20
131.940435
 30
0.0
 10
102.930598
 20
132.052224
 30
0.0
 10
102.791900
 20
132.221745
 30
0.0
 10
102.717436
 20
132.290778
 30
0.0
 10
99.537647
 20
136.667380
 30
0.0
 10
99.505347
 20
136.728846
 30
0.0
 10
99.461376
 20
136.782588
 30
0.0
 10
99.399500
 20
136.930254
 30
0.0
 10
99.325017
 20
137.071986
 30
0.0
 10
99.311576
 20
137.140111
 30
0.0
 10
99.284742
 20
137.204154
 30
0.0
 10
99.267492
 20
137.363330
 30
0.0
 10
99.236480
 20
137.520407
 30
0.0
 10
99.242988
 20
137.589540
 30
0.0
 10
99.235527
 20
137.658573
 30
0.0
 10
99.264356
 20
137.816056
 30
0.0
 10
99.279385
 20
137.975467
 30
0.0
 10
99.302800
 20
138.026079
 30
0.0
 10
99.317829
 20
138.108179
 30
0.0
 10
99.524825
 20
138.515696
 30
0.0
 10
99.533689
 20
138.525036
 30
0.0
 10
99.537658
 20
138.533608
 30
0.0
 10
102.039505
 20
141.977105
 30
0.0
 10
100.215602
 20
144.487490
 30
0.0
 10
96.167530
 20
143.172191
 30
0.0
 10
96.020483
 20
143.147002
 30
0.0
 10
95.876721
 20
143.107119
 30
0.0
 10
95.796301
 20
143.108706
 30
0.0
 10
95.717019
 20
143.095133
 30
0.0
 10
95.568886
 20
143.112887
 30
0.0
 10
95.419722
 20
143.115612
 30
0.0
 10
95.343051
 20
143.139927
 30
0.0
 10
95.263187
 20
143.149505
 30
0.0
 10
95.126260
 20
143.208719
 30
0.0
 10
94.984046
 20
143.253838
 30
0.0
 10
94.917480
 20
143.299005
 30
0.0
 10
94.843658
 20
143.330927
 30
0.0
 10
94.770572
 20
143.398679
 30
0.0
 10
94.605814
 20
143.510468
 30
0.0
 10
94.467116
 20
143.679989
 30
0.0
 10
94.392652
 20
143.749022
 30
0.0
 10
91.890808
 20
147.192518
 30
0.0
 10
88.939672
 20
146.233637
 30
0.0
 10
88.939672
 20
141.977242
 30
0.0
 10
88.873870
 20
141.524926
 30
0.0
 10
88.681922
 20
141.110107
 30
0.0
 10
88.379737
 20
140.767173
 30
0.0
 10
87.842736
 20
140.467440
 30
0.0
 10
83.794666
 20
139.152143
 30
0.0
 10
83.794666
 20
136.049134
 30
0.0
 10
87.842736
 20
134.733837
 30
0.0
 10
88.252580
 20
134.531484
 30
0.0
 10
88.587781
 20
134.220741
 30
0.0
 10
88.820551
 20
133.827374
 30
0.0
 10
88.939672
 20
133.224035
 30
0.0
 10
88.939672
 20
128.967640
 30
0.0
 10
91.890808
 20
128.008758
 30
0.0
 10
94.392652
 20
131.452255
 30
0.0
 10
94.711750
 20
131.779510
 30
0.0
 10
95.110864
 20
132.002279
 30
0.0
 10
95.556909
 20
132.102101
 30
0.0
 10
96.167530
 20
132.028949
 30
0.0
 10
101.312536
 20
130.357234
 30
0.0
 10
101.722380
 20
130.154881
 30
0.0
 10
102.057581
 20
129.844139
 30
0.0
 10
102.290351
 20
129.450772
 30
0.0
 10
102.409472
 20
128.847432
 30
0.0
 10
102.409472
 20
124.591038
 30
0.0
 10
106.457541
 20
123.275741
 30
0.0
 10
106.867386
 20
123.073388
 30
0.0
 10
107.202586
 20
122.762645
 30
0.0
 10
107.435356
 20
122.369278
 30
0.0
 10
107.554477
 20
121.765938
 30
0.0
 10
107.554477
 20
116.356159
 30
0.0
 10
107.488675
 20
115.903843
 30
0.0
 10
107.296728
 20
115.489024
 30
0.0
 10
106.994542
 20
115.146090
 30
0.0
 10
106.457541
 20
114.846357
 30
0.0
 10
102.409472
 20
113.531060
 30
0.0
 10
102.409472
 20
109.274666
 30
0.0
 10
102.343670
 20
108.822350
 30
0.0
 10
102.151722
 20
108.407531
 30
0.0
 10
101.849536
 20
108.064596
 30
0.0
 10
101.312536
 20
107.764863
 30
0.0
 10
96.167530
 20
106.093149
 30
0.0
 10
95.717019
 20
106.015957
 30
0.0
 10
95.263187
 20
106.070326
 30
0.0
 10
94.843658
 20
106.251748
 30
0.0
 10
94.392652
 20
106.669843
 30
0.0
 10
91.890808
 20
110.113339
 30
0.0
 10
88.939672
 20
109.154457
 30
0.0
 10
88.939672
 20
104.898063
 30
0.0
 10
88.873870
 20
104.445747
 30
0.0
 10
88.681922
 20
104.030928
 30
0.0
 10
88.379737
 20
103.687994
 30
0.0
 10
87.842736
 20
103.388261
 30
0.0
 10
83.794666
 20
102.072964
 30
0.0
 10
83.794666
 20
98.969954
 30
0.0
 10
87.842736
 20
97.654658
 30
0.0
 10
88.252580
 20
97.452304
 30
0.0
 10
88.587781
 20
97.141562
 30
0.0
 10
88.820551
 20
96.748195
 30
0.0
 10
88.939672
 20
96.144855
 30
0.0
 10
88.939672
 20
91.888461
 30
0.0
 10
91.890808
 20
90.929579
 30
0.0
 10
94.392652
 20
94.373076
 30
0.0
 10
94.711750
 20
94.700331
 30
0.0
 10
95.110864
 20
94.923099
 30
0.0
 10
95.556909
 20
95.022921
 30
0.0
 10
96.167530
 20
94.949769
 30
0.0
 10
100.215602
 20
93.634470
 30
0.0
 10
102.039505
 20
96.144855
 30
0.0
 10
99.537658
 20
99.588352
 30
0.0
 10
99.325028
 20
99.992961
 30
0.0
 10
99.236493
 20
100.441379
 30
0.0
 10
99.279393
 20
100.896439
 30
0.0
 10
99.537658
 20
101.454569
 30
0.0
 10
102.717447
 20
105.831172
 30
0.0
 10
103.036545
 20
106.158427
 30
0.0
 10
103.435661
 20
106.381198
 30
0.0
 10
103.881703
 20
106.481017
 30
0.0
 10
104.492324
 20
106.407865
 30
0.0
 10
108.540397
 20
105.092566
 30
0.0
 10
111.042241
 20
108.536060
 30
0.0
 10
111.361339
 20
108.863315
 30
0.0
 10
111.760455
 20
109.086086
 30
0.0
 10
112.206498
 20
109.185906
 30
0.0
 10
112.817119
 20
109.112754
 30
0.0
 10
117.962124
 20
107.441042
 30
0.0
 10
118.371969
 20
107.238689
 30
0.0
 10
118.707170
 20
106.927949
 30
0.0
 10
118.939940
 20
106.534582
 30
0.0
 10
119.059060
 20
105.931240
 30
0.0
 10
119.059060
 20
101.674845
 30
0.0
 10
123.107130
 20
100.359549
 30
0.0
 10
123.516975
 20
100.157195
 30
0.0
 10
123.852175
 20
99.846453
 30
0.0
 10
124.084945
 20
99.453086
 30
0.0
 10
124.204066
 20
98.849746
 30
0.0
 10
124.204066
 20
93.439967
 30
0.0
 10
124.138264
 20
92.987651
 30
0.0
 10
123.946317
 20
92.572832
 30
0.0
 10
123.644131
 20
92.229898
 30
0.0
 10
123.107130
 20
91.930164
 30
0.0
 10
119.059060
 20
90.614868
 30
0.0
 10
119.059060
 20
87.511858
 30
0.0
 10
123.107130
 20
86.196562
 30
0.0
 10
123.516975
 20
85.994208
 30
0.0
 10
123.852175
 20
85.683466
 30
0.0
 10
124.084945
 20
85.290099
 30
0.0
 10
124.204066
 20
84.686759
 30
0.0
 10
124.204066
 20
80.430365
 30
0.0
 10
127.155202
 20
79.471483
 30
0.0
 10
129.657046
 20
82.914979
 30
0.0
 10
129.976144
 20
83.242235
 30
0.0
 10
130.375258
 20
83.465003
 30
0.0
 10
130.821303
 20
83.564825
 30
0.0
 10
131.431924
 20
83.491673
 30
0.0
 10
135.479996
 20
82.176374
 30
0.0
 10
137.303896
 20
84.686759
 30
0.0
 10
134.802052
 20
88.130253
 30
0.0
 10
134.769752
 20
88.191718
 30
0.0
 10
134.725780
 20
88.245461
 30
0.0
 10
134.663905
 20
88.393127
 30
0.0
 10
134.589422
 20
88.534859
 30
0.0
 10
134.575981
 20
88.602984
 30
0.0
 10
134.549147
 20
88.667026
 30
0.0
 10
134.531923
 20
88.826202
 30
0.0
 10
134.500911
 20
88.983280
 30
0.0
 10
134.507420
 20
89.052413
 30
0.0
 10
134.499932
 20
89.121446
 30
0.0
 10
134.528761
 20
89.278928
 30
0.0
 10
134.543789
 20
89.438340
 30
0.0
 10
134.567205
 20
89.488952
 30
0.0
 10
134.582233
 20
89.571052
 30
0.0
 10
134.789230
 20
89.978569
 30
0.0
 10
134.798094
 20
89.987908
 30
0.0
 10
134.802062
 20
89.996481
 30
0.0
 10
137.303910
 20
93.439977
 30
0.0
 10
135.480007
 20
95.950363
 30
0.0
 10
131.431935
 20
94.635063
 30
0.0
 10
131.284887
 20
94.609875
 30
0.0
 10
131.141126
 20
94.569992
 30
0.0
 10
131.060706
 20
94.571579
 30
0.0
 10
130.981424
 20
94.558006
 30
0.0
 10
130.833291
 20
94.575760
 30
0.0
 10
130.684127
 20
94.578485
 30
0.0
 10
130.607456
 20
94.602800
 30
0.0
 10
130.527592
 20
94.612378
 30
0.0
 10
130.390665
 20
94.671592
 30
0.0
 10
130.248451
 20
94.716711
 30
0.0
 10
130.181884
 20
94.761878
 30
0.0
 10
130.108063
 20
94.793800
 30
0.0
 10
130.034977
 20
94.861552
 30
0.0
 10
129.870219
 20
94.973341
 30
0.0
 10
129.731521
 20
95.142862
 30
0.0
 10
129.657057
 20
95.211895
 30
0.0
 10
126.477268
 20
99.588500
 30
0.0
 10
126.444968
 20
99.649963
 30
0.0
 10
126.400997
 20
99.703707
 30
0.0
 10
126.339118
 20
99.851382
 30
0.0
 10
126.264638
 20
99.993109
 30
0.0
 10
126.251197
 20
100.061228
 30
0.0
 10
126.224361
 20
100.125273
 30
0.0
 10
126.207110
 20
100.284452
 30
0.0
 10
126.176098
 20
100.441527
 30
0.0
 10
126.182607
 20
100.510660
 30
0.0
 10
126.175119
 20
100.579693
 30
0.0
 10
126.203948
 20
100.737175
 30
0.0
 10
126.218976
 20
100.896587
 30
0.0
 10
126.242392
 20
100.947199
 30
0.0
 10
126.257420
 20
101.029299
 30
0.0
 10
126.464417
 20
101.436816
 30
0.0
 10
126.473281
 20
101.446155
 30
0.0
 10
126.477249
 20
101.454728
 30
0.0
 10
128.979094
 20
104.898222
 30
0.0
 10
126.477249
 20
108.341716
 30
0.0
 10
126.444949
 20
108.403181
 30
0.0
 10
126.400978
 20
108.456923
 30
0.0
 10
126.339103
 20
108.604590
 30
0.0
 10
126.264620
 20
108.746322
 30
0.0
 10
126.251179
 20
108.814447
 30
0.0
 10
126.224345
 20
108.878489
 30
0.0
 10
126.207094
 20
109.037665
 30
0.0
 10
126.176082
 20
109.194743
 30
0.0
 10
126.182591
 20
109.263876
 30
0.0
 10
126.175103
 20
109.332908
 30
0.0
 10
126.203932
 20
109.490391
 30
0.0
 10
126.218961
 20
109.649802
 30
0.0
 10
126.242376
 20
109.700415
 30
0.0
 10
126.257405
 20
109.782515
 30
0.0
 10
126.464401
 20
110.190031
 30
0.0
 10
126.473265
 20
110.199371
 30
0.0
 10
126.477234
 20
110.207944
 30
0.0
 10
129.657023
 20
114.584546
 30
0.0
 10
129.808997
 20
114.740404
 30
0.0
 10
129.958735
 20
114.898292
 30
0.0
 10
129.968366
 20
114.903848
 30
0.0
 10
129.976144
 20
114.911812
 30
0.0
 10
130.166301
 20
115.017950
 30
0.0
 10
130.354745
 20
115.126587
 30
0.0
 10
130.365540
 20
115.129233
 30
0.0
 10
130.375250
 20
115.134657
 30
0.0
 10
130.587713
 20
115.182203
 30
0.0
 10
130.799351
 20
115.232659
 30
0.0
 10
130.810437
 20
115.232130
 30
0.0
 10
130.821284
 20
115.234511
 30
0.0
 10
130.867909
 20
115.228928
 30
0.0
 10
131.255730
 20
115.207603
 30
0.0
 10
131.361291
 20
115.169807
 30
0.0
 10
131.431906
 20
115.161340
 30
0.0
 10
135.479978
 20
113.846044
 30
0.0
 10
137.981822
 20
117.289538
 30
0.0
 10
138.133796
 20
117.445396
 30
0.0
 10
138.283535
 20
117.603283
 30
0.0
 10
138.293165
 20
117.608839
 30
0.0
 10
138.300944
 20
117.616803
 30
0.0
 10
138.491100
 20
117.722941
 30
0.0
 10
138.679544
 20
117.831579
 30
0.0
 10
138.690339
 20
117.834225
 30
0.0
 10
138.700050
 20
117.839649
 30
0.0
 10
138.912513
 20
117.887194
 30
0.0
 10
139.124150
 20
117.937650
 30
0.0
 10
139.135236
 20
117.937121
 30
0.0
 10
139.146084
 20
117.939502
 30
0.0
 10
139.192709
 20
117.933920
 30
0.0
 10
139.580530
 20
117.912594
 30
0.0
 10
139.686091
 20
117.874799
 30
0.0
 10
139.756706
 20
117.866332
 30
0.0
 10
144.901711
 20
116.194618
 30
0.0
 10
145.025697
 20
116.133401
 30
0.0
 10
145.155862
 20
116.086797
 30
0.0
 10
145.229575
 20
116.032740
 30
0.0
 10
145.311556
 20
115.992264
 30
0.0
 10
145.412963
 20
115.898255
 30
0.0
 10
145.524450
 20
115.816499
 30
0.0
 10
145.579711
 20
115.743675
 30
0.0
 10
145.646756
 20
115.681522
 30
0.0
 10
145.717170
 20
115.562528
 30
0.0
 10
145.800749
 20
115.452385
 30
0.0
 10
145.814957
 20
115.397269
 30
0.0
 10
145.879524
 20
115.288155
 30
0.0
 10
145.998644
 20
114.684815
 30
0.0
 10
145.998644
 20
110.428421
 30
0.0
 10
148.949780
 20
109.469539
 30
0.0
 10
151.451625
 20
112.913036
 30
0.0
 10
151.603599
 20
113.068894
 30
0.0
 10
151.753337
 20
113.226781
 30
0.0
 10
151.762968
 20
113.232337
 30
0.0
 10
151.770747
 20
113.240301
 30
0.0
 10
151.960871
 20
113.346420
 30
0.0
 10
152.149347
 20
113.455077
 30
0.0
 10
152.160168
 20
113.457723
 30
0.0
 10
152.169879
 20
113.463147
 30
0.0
 10
152.382270
 20
113.510679
 30
0.0
 10
152.593982
 20
113.561151
 30
0.0
 10
152.605068
 20
113.560622
 30
0.0
 10
152.615916
 20
113.563003
 30
0.0
 10
152.662541
 20
113.557420
 30
0.0
 10
153.050362
 20
113.536095
 30
0.0
 10
153.155923
 20
113.498299
 30
0.0
 10
153.226537
 20
113.489833
 30
0.0
 10
157.274609
 20
112.174533
 30
0.0
 10
159.098509
 20
114.684918
 30
0.0
 10
156.596665
 20
118.128412
 30
0.0
 10
156.384035
 20
118.533018
 30
0.0
 10
156.295500
 20
118.981440
 30
0.0
 10
156.338400
 20
119.436499
 30
0.0
 10
156.596665
 20
119.994630
 30
0.0
 10
159.098512
 20
123.438126
 30
0.0
 10
157.274609
 20
125.948511
 30
0.0
 10
153.226537
 20
124.633212
 30
0.0
 10
152.776026
 20
124.556020
 30
0.0
 10
152.322194
 20
124.610389
 30
0.0
 10
151.902665
 20
124.791811
 30
0.0
 10
151.451659
 20
125.209906
 30
0.0
 10
148.949815
 20
128.653402
 30
0.0
 10
145.998679
 20
127.694521
 30
0.0
 10
145.998679
 20
123.438126
 30
0.0
 10
145.932877
 20
122.985810
 30
0.0
 10
145.740930
 20
122.570991
 30
0.0
 10
145.438744
 20
122.228057
 30
0.0
 10
144.901743
 20
121.928324
 30
0.0
 10
139.756737
 20
120.256610
 30
0.0
 10
139.306226
 20
120.179417
 30
0.0
 10
138.852394
 20
120.233787
 30
0.0
 10
138.432865
 20
120.415209
 30
0.0
 10
137.981859
 20
120.833303
 30
0.0
 10
135.480015
 20
124.276797
 30
0.0
 10
131.431943
 20
122.961498
 30
0.0
 10
130.981431
 20
122.884306
 30
0.0
 10
130.527600
 20
122.938675
 30
0.0
 10
130.108071
 20
123.120097
 30
0.0
 10
129.657065
 20
123.538192
 30
0.0
 10
126.477276
 20
127.914797
 30
0.0
 10
126.264646
 20
128.319406
 30
0.0
 10
126.176111
 20
128.767824
 30
0.0
 10
126.219011
 20
129.222884
 30
0.0
 10
126.477276
 20
129.781014
 30
0.0
 10
128.979120
 20
133.224508
 30
0.0
 10
126.477276
 20
136.668002
 30
0.0
 10
126.264646
 20
137.072608
 30
0.0
 10
126.176111
 20
137.521029
 30
0.0
 10
126.219011
 20
137.976089
 30
0.0
 10
126.477276
 20
138.534219
 30
0.0
 10
129.657065
 20
142.910825
 30
0.0
 10
129.976163
 20
143.238080
 30
0.0
 10
130.375276
 20
143.460848
 30
0.0
 10
130.821322
 20
143.560670
 30
0.0
 10
131.431943
 20
143.487518
 30
0.0
 10
135.480015
 20
142.172219
 30
0.0
 10
137.303917
 20
144.682604
 30
0.0
 10
134.802070
 20
148.126101
 30
0.0
 10
134.589441
 20
148.530710
 30
0.0
 10
134.500906
 20
148.979128
 30
0.0
 10
134.543805
 20
149.434188
 30
0.0
 10
134.802070
 20
149.992318
 30
0.0
 10
137.303915
 20
153.435812
 30
0.0
 10
135.480015
 20
155.946197
 30
0.0
 10
131.431943
 20
154.630898
 30
0.0
 10
130.981431
 20
154.553706
 30
0.0
 10
130.527600
 20
154.608075
 30
0.0
 10
130.108071
 20
154.789497
 30
0.0
 10
129.657065
 20
155.207592
 30
0.0
 10
127.155220
 20
158.651088
 30
0.0
  0
LWPOLYLINE
  5
104
100
AcDbEntity
  8
Layer_4
 62
7
100
AcDbPolyline
 90
103
 70
1
 10
75.469864
 20
141.856584
 30
0.0
 10
75.469864
 20
137.600190
 30
0.0
 10
75.404062
 20
137.147874
 30
0.0
 10
75.212115
 20
136.733055
 30
0.0
 10
74.909929
 20
136.390121
 30
0.0
 10
74.522560
 20
136.147500
 30
0.0
 10
74.428498
 20
136.121413
 30
0.0
 10
74.372928
 20
136.090395
 30
0.0
 10
70.324858
 20
134.775099
 30
0.0
 10
70.324858
 20
131.672092
 30
0.0
 10
74.372928
 20
130.356795
 30
0.0
 10
74.496914
 20
130.295579
 30
0.0
 10
74.627079
 20
130.248975
 30
0.0
 10
74.700791
 20
130.194918
 30
0.0
 10
74.782773
 20
130.154442
 30
0.0
 10
74.884179
 20
130.060433
 30
0.0
 10
74.995667
 20
129.978677
 30
0.0
 10
75.050928
 20
129.905853
 30
0.0
 10
75.117973
 20
129.843699
 30
0.0
 10
75.188387
 20
129.724706
 30
0.0
 10
75.271966
 20
129.614562
 30
0.0
 10
75.286174
 20
129.559447
 30
0.0
 10
75.350740
 20
129.450333
 30
0.0
 10
75.469861
 20
128.846993
 30
0.0
 10
75.469861
 20
123.437213
 30
0.0
 10
75.404059
 20
122.984898
 30
0.0
 10
75.212112
 20
122.570079
 30
0.0
 10
74.909926
 20
122.227144
 30
0.0
 10
74.522558
 20
121.984524
 30
0.0
 10
74.428496
 20
121.958436
 30
0.0
 10
74.372925
 20
121.927419
 30
0.0
 10
70.324856
 20
120.612122
 30
0.0
 10
70.324856
 20
117.509113
 30
0.0
 10
74.372925
 20
116.193816
 30
0.0
 10
74.782770
 20
115.991463
 30
0.0
 10
75.117971
 20
115.680720
 30
0.0
 10
75.350740
 20
115.287354
 30
0.0
 10
75.469861
 20
114.684014
 30
0.0
 10
75.469861
 20
109.274234
 30
0.0
 10
75.404059
 20
108.821918
 30
0.0
 10
75.212112
 20
108.407099
 30
0.0
 10
74.909926
 20
108.064165
 30
0.0
 10
74.372925
 20
107.764432
 30
0.0
 10
70.324856
 20
106.449135
 30
0.0
 10
70.324856
 20
103.346128
 30
0.0
 10
74.372925
 20
102.030832
 30
0.0
 10
74.782770
 20
101.828478
 30
0.0
 10
75.117971
 20
101.517738
 30
0.0
 10
75.350740
 20
101.124372
 30
0.0
 10
75.469861
 20
100.521029
 30
0.0
 10
75.469861
 20
96.264635
 30
0.0
 10
78.420997
 20
95.305753
 30
0.0
 10
80.619656
 20
98.331946
 30
0.0
 10
80.619656
 20
103.225917
 30
0.0
 10
80.685457
 20
103.678233
 30
0.0
 10
80.877405
 20
104.093052
 30
0.0
 10
81.179591
 20
104.435987
 30
0.0
 10
81.716592
 20
104.735720
 30
0.0
 10
85.764661
 20
106.051017
 30
0.0
 10
85.764661
 20
110.307395
 30
0.0
 10
85.830463
 20
110.759711
 30
0.0
 10
86.022410
 20
111.174530
 30
0.0
 10
86.324596
 20
111.517464
 30
0.0
 10
86.861597
 20
111.817198
 30
0.0
 10
92.006603
 20
113.488912
 30
0.0
 10
92.457114
 20
113.566104
 30
0.0
 10
92.910946
 20
113.511735
 30
0.0
 10
93.330474
 20
113.330313
 30
0.0
 10
93.781480
 20
112.912218
 30
0.0
 10
96.283325
 20
109.468722
 30
0.0
 10
99.234461
 20
110.427603
 30
0.0
 10
99.234461
 20
114.683998
 30
0.0
 10
99.300263
 20
115.136314
 30
0.0
 10
99.492210
 20
115.551133
 30
0.0
 10
99.794396
 20
115.894067
 30
0.0
 10
100.331397
 20
116.193800
 30
0.0
 10
104.379466
 20
117.509097
 30
0.0
 10
104.379466
 20
120.612106
 30
0.0
 10
100.331397
 20
121.927403
 30
0.0
 10
99.921552
 20
122.129756
 30
0.0
 10
99.586351
 20
122.440499
 30
0.0
 10
99.353582
 20
122.833866
 30
0.0
 10
99.234461
 20
123.437205
 30
0.0
 10
99.234461
 20
127.693600
 30
0.0
 10
96.283325
 20
128.652482
 30
0.0
 10
93.781480
 20
125.208985
 30
0.0
 10
93.462382
 20
124.881730
 30
0.0
 10
93.063269
 20
124.658961
 30
0.0
 10
92.617224
 20
124.559139
 30
0.0
 10
92.006603
 20
124.632291
 30
0.0
 10
86.861597
 20
126.304006
 30
0.0
 10
86.451752
 20
126.506359
 30
0.0
 10
86.116552
 20
126.817101
 30
0.0
 10
85.883782
 20
127.210468
 30
0.0
 10
85.764661
 20
127.813808
 30
0.0
 10
85.764661
 20
132.070202
 30
0.0
 10
81.716592
 20
133.385499
 30
0.0
 10
81.306747
 20
133.587852
 30
0.0
 10
80.971546
 20
133.898595
 30
0.0
 10
80.738776
 20
134.291962
 30
0.0
 10
80.619656
 20
134.895302
 30
0.0
 10
80.619656
 20
139.789273
 30
0.0
 10
78.420997
 20
142.815466
 30
0.0
  0
LWPOLYLINE
  5
105
100
AcDbEntity
  8
Layer_4
 62
7
100
AcDbPolyline
 90
165
 70
1
 10
137.673858
 20
162.067888
 30
0.0
 10
137.673858
 20
158.327302
 30
0.0
 10
140.550461
 20
154.368000
 30
0.0
 10
140.763091
 20
153.963394
 30
0.0
 10
140.851625
 20
153.514973
 30
0.0
 10
140.808726
 20
153.059913
 30
0.0
 10
140.550461
 20
152.501783
 30
0.0
 10
138.048614
 20
149.058289
 30
0.0
 10
140.550461
 20
145.614792
 30
0.0
 10
140.763091
 20
145.210183
 30
0.0
 10
140.851625
 20
144.761765
 30
0.0
 10
140.808726
 20
144.306705
 30
0.0
 10
140.550461
 20
143.748575
 30
0.0
 10
137.370672
 20
139.371972
 30
0.0
 10
137.051574
 20
139.044717
 30
0.0
 10
136.652458
 20
138.821946
 30
0.0
 10
136.206415
 20
138.722126
 30
0.0
 10
135.595794
 20
138.795278
 30
0.0
 10
131.547722
 20
140.110578
 30
0.0
 10
129.723819
 20
137.600190
 30
0.0
 10
132.225666
 20
134.156696
 30
0.0
 10
132.438296
 20
133.752090
 30
0.0
 10
132.526831
 20
133.303669
 30
0.0
 10
132.483931
 20
132.848609
 30
0.0
 10
132.225666
 20
132.290479
 30
0.0
 10
129.723819
 20
128.846985
 30
0.0
 10
131.547722
 20
126.336597
 30
0.0
 10
135.595794
 20
127.651896
 30
0.0
 10
136.046305
 20
127.729088
 30
0.0
 10
136.500137
 20
127.674719
 30
0.0
 10
136.919666
 20
127.493297
 30
0.0
 10
137.370672
 20
127.075203
 30
0.0
 10
139.872516
 20
123.631709
 30
0.0
 10
142.823652
 20
124.590590
 30
0.0
 10
142.823652
 20
128.846985
 30
0.0
 10
142.889454
 20
129.299301
 30
0.0
 10
143.081401
 20
129.714120
 30
0.0
 10
143.383587
 20
130.057054
 30
0.0
 10
143.920588
 20
130.356787
 30
0.0
 10
149.065594
 20
132.028501
 30
0.0
 10
149.516105
 20
132.105694
 30
0.0
 10
149.969937
 20
132.051324
 30
0.0
 10
150.389466
 20
131.869902
 30
0.0
 10
150.840472
 20
131.451808
 30
0.0
 10
153.342316
 20
128.008311
 30
0.0
 10
157.390388
 20
129.323611
 30
0.0
 10
157.840900
 20
129.400803
 30
0.0
 10
158.294731
 20
129.346433
 30
0.0
 10
158.714260
 20
129.165011
 30
0.0
 10
159.165266
 20
128.746917
 30
0.0
 10
162.041869
 20
124.787615
 30
0.0
 10
165.599377
 20
123.631709
 30
0.0
 10
167.423280
 20
126.142094
 30
0.0
 10
164.921433
 20
129.585590
 30
0.0
 10
164.889132
 20
129.647053
 30
0.0
 10
164.845161
 20
129.700798
 30
0.0
 10
164.783283
 20
129.848472
 30
0.0
 10
164.708803
 20
129.990199
 30
0.0
 10
164.695362
 20
130.058319
 30
0.0
 10
164.668525
 20
130.122364
 30
0.0
 10
164.651275
 20
130.281542
 30
0.0
 10
164.620263
 20
130.438618
 30
0.0
 10
164.626772
 20
130.507751
 30
0.0
 10
164.619310
 20
130.576783
 30
0.0
 10
164.648139
 20
130.734266
 30
0.0
 10
164.663168
 20
130.893677
 30
0.0
 10
164.686583
 20
130.944289
 30
0.0
 10
164.701612
 20
131.026389
 30
0.0
 10
164.908608
 20
131.433906
 30
0.0
 10
164.917472
 20
131.443246
 30
0.0
 10
164.921441
 20
131.451818
 30
0.0
 10
167.423285
 20
134.895312
 30
0.0
 10
165.599385
 20
137.405697
 30
0.0
 10
161.551313
 20
136.090398
 30
0.0
 10
161.404266
 20
136.065210
 30
0.0
 10
161.260504
 20
136.025326
 30
0.0
 10
161.180084
 20
136.026914
 30
0.0
 10
161.100802
 20
136.013341
 30
0.0
 10
160.952669
 20
136.031094
 30
0.0
 10
160.803505
 20
136.033820
 30
0.0
 10
160.726834
 20
136.058135
 30
0.0
 10
160.646970
 20
136.067713
 30
0.0
 10
160.510043
 20
136.126926
 30
0.0
 10
160.367829
 20
136.172046
 30
0.0
 10
160.301263
 20
136.217213
 30
0.0
 10
160.227441
 20
136.249135
 30
0.0
 10
160.154355
 20
136.316887
 30
0.0
 10
159.989597
 20
136.428676
 30
0.0
 10
159.850899
 20
136.598197
 30
0.0
 10
159.776435
 20
136.667229
 30
0.0
 10
156.596646
 20
141.043835
 30
0.0
 10
156.564346
 20
141.105297
 30
0.0
 10
156.520375
 20
141.159042
 30
0.0
 10
156.458497
 20
141.306717
 30
0.0
 10
156.384016
 20
141.448443
 30
0.0
 10
156.370576
 20
141.516563
 30
0.0
 10
156.343739
 20
141.580608
 30
0.0
 10
156.326488
 20
141.739787
 30
0.0
 10
156.295476
 20
141.896862
 30
0.0
 10
156.301985
 20
141.965995
 30
0.0
 10
156.294524
 20
142.035027
 30
0.0
 10
156.323353
 20
142.192510
 30
0.0
 10
156.338381
 20
142.351921
 30
0.0
 10
156.361797
 20
142.402534
 30
0.0
 10
156.376825
 20
142.484634
 30
0.0
 10
156.583822
 20
142.892150
 30
0.0
 10
156.592685
 20
142.901490
 30
0.0
 10
156.596654
 20
142.910063
 30
0.0
 10
159.098499
 20
146.353556
 30
0.0
 10
157.274599
 20
148.863942
 30
0.0
 10
153.226527
 20
147.548645
 30
0.0
 10
153.079479
 20
147.523457
 30
0.0
 10
152.935718
 20
147.483573
 30
0.0
 10
152.855298
 20
147.485161
 30
0.0
 10
152.776015
 20
147.471588
 30
0.0
 10
152.627883
 20
147.489341
 30
0.0
 10
152.478719
 20
147.492066
 30
0.0
 10
152.402048
 20
147.516382
 30
0.0
 10
152.322183
 20
147.525960
 30
0.0
 10
152.185256
 20
147.585173
 30
0.0
 10
152.043043
 20
147.630293
 30
0.0
 10
151.976476
 20
147.675460
 30
0.0
 10
151.902655
 20
147.707382
 30
0.0
 10
151.829569
 20
147.775134
 30
0.0
 10
151.664810
 20
147.886923
 30
0.0
 10
151.526113
 20
148.056444
 30
0.0
 10
151.451649
 20
148.125476
 30
0.0
 10
148.271860
 20
152.502079
 30
0.0
 10
148.239559
 20
152.563544
 30
0.0
 10
148.195588
 20
152.617286
 30
0.0
 10
148.133713
 20
152.764953
 30
0.0
 10
148.059230
 20
152.906685
 30
0.0
 10
148.045789
 20
152.974810
 30
0.0
 10
148.018955
 20
153.038852
 30
0.0
 10
148.001704
 20
153.198028
 30
0.0
 10
147.970692
 20
153.355106
 30
0.0
 10
147.977201
 20
153.424239
 30
0.0
 10
147.969740
 20
153.493272
 30
0.0
 10
147.998569
 20
153.650754
 30
0.0
 10
148.013597
 20
153.810166
 30
0.0
 10
148.037013
 20
153.860778
 30
0.0
 10
148.052041
 20
153.942878
 30
0.0
 10
148.259038
 20
154.350395
 30
0.0
 10
148.267902
 20
154.359734
 30
0.0
 10
148.271870
 20
154.368307
 30
0.0
 10
150.773717
 20
157.811801
 30
0.0
 10
148.949815
 20
160.322189
 30
0.0
 10
144.901743
 20
159.006889
 30
0.0
 10
144.754695
 20
158.981701
 30
0.0
 10
144.610934
 20
158.941818
 30
0.0
 10
144.530514
 20
158.943405
 30
0.0
 10
144.451231
 20
158.929832
 30
0.0
 10
144.303099
 20
158.947586
 30
0.0
 10
144.153935
 20
158.950311
 30
0.0
 10
144.077264
 20
158.974626
 30
0.0
 10
143.997400
 20
158.984204
 30
0.0
 10
143.860472
 20
159.043418
 30
0.0
 10
143.718259
 20
159.088537
 30
0.0
 10
143.651692
 20
159.133704
 30
0.0
 10
143.577871
 20
159.165626
 30
0.0
 10
143.504785
 20
159.233378
 30
0.0
 10
143.340026
 20
159.345167
 30
0.0
 10
143.201329
 20
159.514688
 30
0.0
 10
143.126865
 20
159.583721
 30
0.0
 10
140.625020
 20
163.027214
 30
0.0
  0
LWPOLYLINE
  5
106
100
AcDbEntity
  8
Layer_4
 62
7
100
AcDbPolyline
 90
187
 70
1
 10
115.879264
 20
169.149382
 30
0.0
 10
115.879264
 20
164.892987
 30
0.0
 10
115.813462
 20
164.440672
 30
0.0
 10
115.621514
 20
164.025853
 30
0.0
 10
115.319328
 20
163.682918
 30
0.0
 10
114.782327
 20
163.383185
 30
0.0
 10
109.637322
 20
161.711471
 30
0.0
 10
109.186811
 20
161.634278
 30
0.0
 10
108.732979
 20
161.688648
 30
0.0
 10
108.313450
 20
161.870070
 30
0.0
 10
107.862444
 20
162.288164
 30
0.0
 10
105.360600
 20
165.731661
 30
0.0
 10
102.409464
 20
164.772779
 30
0.0
 10
102.409464
 20
160.516385
 30
0.0
 10
102.343662
 20
160.064069
 30
0.0
 10
102.151714
 20
159.649250
 30
0.0
 10
101.849529
 20
159.306316
 30
0.0
 10
101.312528
 20
159.006582
 30
0.0
 10
96.167522
 20
157.334868
 30
0.0
 10
95.717011
 20
157.257676
 30
0.0
 10
95.263179
 20
157.312045
 30
0.0
 10
94.843650
 20
157.493467
 30
0.0
 10
94.392644
 20
157.911562
 30
0.0
 10
91.890800
 20
161.355056
 30
0.0
 10
88.939664
 20
160.396174
 30
0.0
 10
88.939664
 20
156.139780
 30
0.0
 10
88.873862
 20
155.687464
 30
0.0
 10
88.681915
 20
155.272645
 30
0.0
 10
88.379729
 20
154.929710
 30
0.0
 10
87.842728
 20
154.629977
 30
0.0
 10
83.794658
 20
153.314680
 30
0.0
 10
83.794658
 20
150.211674
 30
0.0
 10
87.352164
 20
149.055770
 30
0.0
 10
92.006605
 20
150.568091
 30
0.0
 10
92.182037
 20
150.598150
 30
0.0
 10
92.355170
 20
150.639425
 30
0.0
 10
92.406475
 20
150.636594
 30
0.0
 10
92.457117
 20
150.645273
 30
0.0
 10
92.633842
 20
150.624106
 30
0.0
 10
92.811558
 20
150.614343
 30
0.0
 10
92.859931
 20
150.597013
 30
0.0
 10
92.910948
 20
150.590901
 30
0.0
 10
93.074313
 20
150.520254
 30
0.0
 10
93.241884
 20
150.460258
 30
0.0
 10
93.283318
 20
150.429873
 30
0.0
 10
93.330477
 20
150.409473
 30
0.0
 10
93.403735
 20
150.341563
 30
0.0
 10
93.610472
 20
150.189954
 30
0.0
 10
93.712938
 20
150.054921
 30
0.0
 10
93.781483
 20
149.991379
 30
0.0
 10
96.283328
 20
146.547882
 30
0.0
 10
100.331400
 20
147.863182
 30
0.0
 10
100.506832
 20
147.893241
 30
0.0
 10
100.679964
 20
147.934516
 30
0.0
 10
100.731270
 20
147.931685
 30
0.0
 10
100.781911
 20
147.940363
 30
0.0
 10
100.958637
 20
147.919197
 30
0.0
 10
101.136352
 20
147.909433
 30
0.0
 10
101.184726
 20
147.892103
 30
0.0
 10
101.235743
 20
147.885991
 30
0.0
 10
101.399107
 20
147.815345
 30
0.0
 10
101.566678
 20
147.755348
 30
0.0
 10
101.608112
 20
147.724963
 30
0.0
 10
101.655271
 20
147.704564
 30
0.0
 10
101.728529
 20
147.636653
 30
0.0
 10
101.935267
 20
147.485044
 30
0.0
 10
102.037732
 20
147.350012
 30
0.0
 10
102.106278
 20
147.286469
 30
0.0
 10
105.286067
 20
142.909867
 30
0.0
 10
105.331853
 20
142.822740
 30
0.0
 10
105.391355
 20
142.744328
 30
0.0
 10
105.408976
 20
142.675991
 30
0.0
 10
105.498699
 20
142.505261
 30
0.0
 10
105.587234
 20
142.056840
 30
0.0
 10
105.582233
 20
142.003941
 30
0.0
 10
105.589245
 20
141.976758
 30
0.0
 10
105.562053
 20
141.789846
 30
0.0
 10
105.544326
 20
141.601780
 30
0.0
 10
105.530277
 20
141.571427
 30
0.0
 10
105.523451
 20
141.524442
 30
0.0
 10
105.331503
 20
141.109623
 30
0.0
 10
105.300108
 20
141.073994
 30
0.0
 10
105.286059
 20
141.043649
 30
0.0
 10
102.784212
 20
137.600153
 30
0.0
 10
104.608114
 20
135.089768
 30
0.0
 10
108.656186
 20
136.405067
 30
0.0
 10
108.831618
 20
136.435126
 30
0.0
 10
109.004751
 20
136.476401
 30
0.0
 10
109.056056
 20
136.473570
 30
0.0
 10
109.106697
 20
136.482249
 30
0.0
 10
109.283423
 20
136.461082
 30
0.0
 10
109.461139
 20
136.451319
 30
0.0
 10
109.509512
 20
136.433989
 30
0.0
 10
109.560529
 20
136.427877
 30
0.0
 10
109.723894
 20
136.357230
 30
0.0
 10
109.891465
 20
136.297233
 30
0.0
 10
109.932899
 20
136.266849
 30
0.0
 10
109.980058
 20
136.246449
 30
0.0
 10
110.053316
 20
136.178539
 30
0.0
 10
110.260053
 20
136.026930
 30
0.0
 10
110.362518
 20
135.891897
 30
0.0
 10
110.431064
 20
135.828355
 30
0.0
 10
112.932909
 20
132.384861
 30
0.0
 10
115.884045
 20
133.343743
 30
0.0
 10
115.884045
 20
137.600134
 30
0.0
 10
115.888251
 20
137.629112
 30
0.0
 10
115.885103
 20
137.658218
 30
0.0
 10
115.921078
 20
137.854735
 30
0.0
 10
115.949841
 20
138.052450
 30
0.0
 10
115.962144
 20
138.079022
 30
0.0
 10
115.967409
 20
138.107825
 30
0.0
 10
116.057886
 20
138.285945
 30
0.0
 10
116.141788
 20
138.467269
 30
0.0
 10
116.161156
 20
138.489230
 30
0.0
 10
116.174412
 20
138.515344
 30
0.0
 10
116.311873
 20
138.660288
 30
0.0
 10
116.443980
 20
138.810206
 30
0.0
 10
116.465384
 20
138.822165
 30
0.0
 10
116.488932
 20
138.847010
 30
0.0
 10
116.884918
 20
139.075295
 30
0.0
 10
116.944180
 20
139.089424
 30
0.0
 10
116.980970
 20
139.109955
 30
0.0
 10
121.029039
 20
140.425252
 30
0.0
 10
121.029039
 20
143.528262
 30
0.0
 10
116.980970
 20
144.843558
 30
0.0
 10
116.882881
 20
144.891988
 30
0.0
 10
116.778614
 20
144.925068
 30
0.0
 10
116.679033
 20
144.992635
 30
0.0
 10
116.571125
 20
145.045912
 30
0.0
 10
116.490906
 20
145.120278
 30
0.0
 10
116.400382
 20
145.181698
 30
0.0
 10
116.324174
 20
145.274845
 30
0.0
 10
116.235925
 20
145.356654
 30
0.0
 10
116.180219
 20
145.450795
 30
0.0
 10
116.110949
 20
145.535460
 30
0.0
 10
116.064443
 20
145.646450
 30
0.0
 10
116.003155
 20
145.750021
 30
0.0
 10
115.987227
 20
145.830753
 30
0.0
 10
115.934315
 20
145.957025
 30
0.0
 10
115.900330
 20
146.270877
 30
0.0
 10
115.884031
 20
146.353361
 30
0.0
 10
115.884031
 20
151.763140
 30
0.0
 10
115.888238
 20
151.792117
 30
0.0
 10
115.885090
 20
151.821224
 30
0.0
 10
115.921065
 20
152.017741
 30
0.0
 10
115.949828
 20
152.215456
 30
0.0
 10
115.962131
 20
152.242028
 30
0.0
 10
115.967396
 20
152.270830
 30
0.0
 10
116.057873
 20
152.448951
 30
0.0
 10
116.141775
 20
152.630275
 30
0.0
 10
116.161143
 20
152.652235
 30
0.0
 10
116.174398
 20
152.678350
 30
0.0
 10
116.311860
 20
152.823294
 30
0.0
 10
116.443966
 20
152.973212
 30
0.0
 10
116.465371
 20
152.985171
 30
0.0
 10
116.488919
 20
153.010015
 30
0.0
 10
116.884905
 20
153.238301
 30
0.0
 10
116.944166
 20
153.252429
 30
0.0
 10
116.980957
 20
153.272961
 30
0.0
 10
121.029026
 20
154.588258
 30
0.0
 10
121.029026
 20
158.844652
 30
0.0
 10
121.033233
 20
158.873629
 30
0.0
 10
121.030085
 20
158.902736
 30
0.0
 10
121.066060
 20
159.099253
 30
0.0
 10
121.094823
 20
159.296968
 30
0.0
 10
121.107126
 20
159.323540
 30
0.0
 10
121.112391
 20
159.352342
 30
0.0
 10
121.202868
 20
159.530463
 30
0.0
 10
121.286770
 20
159.711787
 30
0.0
 10
121.306138
 20
159.733747
 30
0.0
 10
121.319393
 20
159.759862
 30
0.0
 10
121.456855
 20
159.904806
 30
0.0
 10
121.588961
 20
160.054724
 30
0.0
 10
121.610366
 20
160.066683
 30
0.0
 10
121.633914
 20
160.091527
 30
0.0
 10
122.029900
 20
160.319813
 30
0.0
 10
122.089161
 20
160.333941
 30
0.0
 10
122.125952
 20
160.354473
 30
0.0
 10
126.780393
 20
161.866794
 30
0.0
 10
128.979052
 20
164.892987
 30
0.0
 10
127.155152
 20
167.403373
 30
0.0
 10
123.107080
 20
166.088076
 30
0.0
 10
122.656568
 20
166.010884
 30
0.0
 10
122.202736
 20
166.065253
 30
0.0
 10
121.783208
 20
166.246675
 30
0.0
 10
121.332202
 20
166.664770
 30
0.0
 10
118.830357
 20
170.108264
 30
0.0
  0
ENDSEC
  0
SECTION
  2
OBJECTS
  0
DICTIONARY
  5
C
330
0
100
AcDbDictionary
  3
ACAD_GROUP
350
D
  3
ACAD_MLINESTYLE
350
17
  0
DICTIONARY
  5
D
330
C
100
AcDbDictionary
  0
DICTIONARY
  5
1A
330
C
100
AcDbDictionary
  0
DICTIONARY
  5
17
330
C
100
AcDbDictionary
  3
STANDARD
350
18
  0
DICTIONARY
  5
19
330
C
100
AcDbDictionary
  0
ENDSEC
  0
EOF
