  0
SECTION
  2
HEADER
  9
$ACADVER
  1
AC1014
  9
$HANDSEED
  5
FFFF
  9
$INSUNITS
 70
     4
  9
$MEASUREMENT
 70
     1
  0
ENDSEC
  0
SECTION
  2
TABLES
  0
TABLE
  2
VPORT
  5
8
330
0
100
AcDbSymbolTable
 70
     4
  0
VPORT
  5
2E
330
8
100
AcDbSymbolTableRecord
100
AcDbViewportTableRecord
  2
*ACTIVE
 70
     0
 10
0.0
 20
0.0
 11
1.0
 21
1.0
 12
210.0
 22
148.5
 13
0.0
 23
0.0
 14
10.0
 24
10.0
 15
10.0
 25
10.0
 16
0.0
 26
0.0
 36
1.0
 17
0.0
 27
0.0
 37
0.0
 40
341.0
 41
1.24
 42
50.0
 43
0.0
 44
0.0
 50
0.0
 51
0.0
 71
     0
 72
   100
 73
     1
 74
     3
 75
     0
 76
     0
 77
     0
 78
     0
  0
ENDTAB
  0
TABLE
  2
LTYPE
  5
5
330
0
100
AcDbSymbolTable
 70
     1
  0
LTYPE
  5
14
330
5
100
AcDbSymbolTableRecord
100
AcDbLinetypeTableRecord
  2
BYBLOCK
 70
     0
  3

 72
    65
 73
     0
 40
0.0
  0
LTYPE
  5
15
330
5
100
AcDbSymbolTableRecord
100
AcDbLinetypeTableRecord
  2
BYLAYER
 70
     0
  3

 72
    65
 73
     0
 40
0.0
  0
LTYPE
  5
16
330
5
100
AcDbSymbolTableRecord
100
AcDbLinetypeTableRecord
  2
CONTINUOUS
 70
     0
  3
Solid line
 72
    65
 73
     0
 40
0.0
  0
ENDTAB
  0
TABLE
  2
LAYER
  5
2
100
AcDbSymbolTable
 70
5
  0
LAYER
  5
50
100
AcDbSymbolTableRecord
100
AcDbLayerTableRecord
  2
0
 70
0
  6
CONTINUOUS
  0
LAYER
  5
51
100
AcDbSymbolTableRecord
100
AcDbLayerTableRecord
  2
Layer_1
 70
0
  6
CONTINUOUS
  0
LAYER
  5
52
100
AcDbSymbolTableRecord
100
AcDbLayerTableRecord
  2
Layer_2
 70
0
  6
CONTINUOUS
  0
LAYER
  5
53
100
AcDbSymbolTableRecord
100
AcDbLayerTableRecord
  2
Layer_3
 70
0
  6
CONTINUOUS
  0
LAYER
  5
54
100
AcDbSymbolTableRecord
100
AcDbLayerTableRecord
  2
Layer_4
 70
0
  6
CONTINUOUS
  0
ENDTAB
  0
TABLE
  2
STYLE
  5
3
330
0
100
AcDbSymbolTable
 70
     1
  0
STYLE
  5
11
330
3
100
AcDbSymbolTableRecord
100
AcDbTextStyleTableRecord
  2
STANDARD
 70
     0
 40
0.0
 41
1.0
 50
0.0
 71
     0
 42
2.5
  3
txt
  4

  0
ENDTAB
  0
TABLE
  2
VIEW
  5
6
330
0
100
AcDbSymbolTable
 70
     0
  0
ENDTAB
  0
TABLE
  2
UCS
  5
7
330
0
100
AcDbSymbolTable
 70
     0
  0
ENDTAB
  0
TABLE
  2
APPID
  5
9
330
0
100
AcDbSymbolTable
 70
     2
  0
APPID
  5
12
330
9
100
AcDbSymbolTableRecord
100
AcDbRegAppTableRecord
  2
ACAD
 70
     0
  0
ENDTAB
  0
TABLE
  2
DIMSTYLE
  5
A
330
0
100
AcDbSymbolTable
 70
     1
  0
DIMSTYLE
105
27
330
A
100
AcDbSymbolTableRecord
100
AcDbDimStyleTableRecord
  2
ISO-25
 70
     0
  3

  4

  5

  6

  7

 40
1.0
 41
2.5
 42
0.625
 43
3.75
 44
1.25
 45
0.0
 46
0.0
 47
0.0
 48
0.0
140
2.5
141
2.5
142
0.0
143
0.03937007874016
144
1.0
145
0.0
146
1.0
147
0.625
 71
     0
 72
     0
 73
     0
 74
     0
 75
     0
 76
     0
 77
     1
 78
     8
170
     0
171
     3
172
     1
173
     0
174
     0
175
     0
176
     0
177
     0
178
     0
270
     2
271
     2
272
     2
273
     2
274
     3
340
11
275
     0
280
     0
281
     0
282
     0
283
     0
284
     8
285
     0
286
     0
287
     3
288
     0
  0
ENDTAB
  0
TABLE
  2
BLOCK_RECORD
  5
1
330
0
100
AcDbSymbolTable
 70
     1
  0
BLOCK_RECORD
  5
1F
330
1
100
AcDbSymbolTableRecord
100
AcDbBlockTableRecord
  2
*MODEL_SPACE
  0
BLOCK_RECORD
  5
1B
330
1
100
AcDbSymbolTableRecord
100
AcDbBlockTableRecord
  2
*PAPER_SPACE
  0
ENDTAB
  0
ENDSEC
  0
SECTION
  2
BLOCKS
  0
BLOCK
  5
20
330
1F
100
AcDbEntity
  8
0
100
AcDbBlockBegin
  2
*MODEL_SPACE
 70
     0
 10
0.0
 20
0.0
 30
0.0
  3
*MODEL_SPACE
  1

  0
ENDBLK
  5
21
330
1F
100
AcDbEntity
  8
0
100
AcDbBlockEnd
  0
BLOCK
  5
1C
330
1B
100
AcDbEntity
 67
     1
  8
0
100
AcDbBlockBegin
  2
*PAPER_SPACE
  1

  0
ENDBLK
  5
1D
330
1B
100
AcDbEntity
 67
     1
  8
0
100
AcDbBlockEnd
  0
ENDSEC
  0
SECTION
  2
ENTITIES
  0
LWPOLYLINE
  5
100
100
AcDbEntity
  8
Layer_1
 62
7
100
AcDbPolyline
 90
144
 70
1
 10
102.373483
 20
192.033155
 30
0.0
 10
102.373483
 20
183.102769
 30
0.0
 10
110.107423
 20
178.637576
 30
0.0
 10
110.107423
 20
169.707192
 30
0.0
 10
115.195533
 20
166.769571
 30
0.0
 10
122.929470
 20
171.234761
 30
0.0
 10
130.663410
 20
166.769574
 30
0.0
 10
135.751517
 20
169.707192
 30
0.0
 10
135.751517
 20
178.637576
 30
0.0
 10
146.131291
 20
184.630343
 30
0.0
 10
156.511064
 20
178.637576
 30
0.0
 10
156.511064
 20
166.652046
 30
0.0
 10
148.777124
 20
162.186853
 30
0.0
 10
148.777124
 20
156.311613
 30
0.0
 10
156.511064
 20
151.846420
 30
0.0
 10
156.511064
 20
142.916034
 30
0.0
 10
161.599174
 20
139.978413
 30
0.0
 10
169.333114
 20
144.443609
 30
0.0
 10
177.067054
 20
139.978413
 30
0.0
 10
184.800994
 20
144.443609
 30
0.0
 10
195.180768
 20
138.450841
 30
0.0
 10
195.180768
 20
126.465314
 30
0.0
 10
184.800994
 20
120.472547
 30
0.0
 10
174.421221
 20
126.465314
 30
0.0
 10
174.421221
 20
135.395697
 30
0.0
 10
169.333114
 20
138.333319
 30
0.0
 10
161.599174
 20
133.868123
 30
0.0
 10
153.865231
 20
138.333319
 30
0.0
 10
148.777124
 20
135.395697
 30
0.0
 10
148.777124
 20
126.465314
 30
0.0
 10
141.043184
 20
122.000121
 30
0.0
 10
141.043184
 20
116.124879
 30
0.0
 10
148.777124
 20
111.659686
 30
0.0
 10
148.777124
 20
102.729303
 30
0.0
 10
153.865231
 20
99.791681
 30
0.0
 10
161.599174
 20
104.256877
 30
0.0
 10
169.333114
 20
99.791681
 30
0.0
 10
174.421221
 20
102.729303
 30
0.0
 10
174.421221
 20
111.659686
 30
0.0
 10
184.800994
 20
117.652453
 30
0.0
 10
195.180768
 20
111.659686
 30
0.0
 10
195.180768
 20
99.674159
 30
0.0
 10
184.800994
 20
93.681391
 30
0.0
 10
177.067054
 20
98.146587
 30
0.0
 10
169.333114
 20
93.681391
 30
0.0
 10
161.599174
 20
98.146587
 30
0.0
 10
156.511064
 20
95.208966
 30
0.0
 10
156.511064
 20
86.278580
 30
0.0
 10
148.777124
 20
81.813387
 30
0.0
 10
148.777124
 20
75.938147
 30
0.0
 10
156.511064
 20
71.472954
 30
0.0
 10
156.511064
 20
59.487424
 30
0.0
 10
146.131291
 20
53.494657
 30
0.0
 10
135.751517
 20
59.487424
 30
0.0
 10
135.751517
 20
68.417808
 30
0.0
 10
130.663410
 20
71.355426
 30
0.0
 10
122.929470
 20
66.890239
 30
0.0
 10
115.195533
 20
71.355429
 30
0.0
 10
110.107423
 20
68.417808
 30
0.0
 10
110.107423
 20
59.487424
 30
0.0
 10
102.373483
 20
55.022231
 30
0.0
 10
102.373483
 20
47.619417
 30
0.0
 10
102.352396
 20
47.431648
 30
0.0
 10
102.346548
 20
47.242772
 30
0.0
 10
102.319526
 20
47.138979
 30
0.0
 10
102.307541
 20
47.032407
 30
0.0
 10
102.245316
 20
46.853996
 30
0.0
 10
102.197704
 20
46.671127
 30
0.0
 10
102.148330
 20
46.575922
 30
0.0
 10
102.113011
 20
46.474658
 30
0.0
 10
102.012747
 20
46.314490
 30
0.0
 10
101.925755
 20
46.146749
 30
0.0
 10
101.856490
 20
46.064871
 30
0.0
 10
101.799583
 20
45.973966
 30
0.0
 10
101.666289
 20
45.840036
 30
0.0
 10
101.544247
 20
45.695775
 30
0.0
 10
101.460977
 20
45.633751
 30
0.0
 10
101.382886
 20
45.555289
 30
0.0
 10
101.202080
 20
45.440912
 30
0.0
 10
101.050564
 20
45.328057
 30
0.0
 10
91.993707
 20
40.099083
 30
0.0
 10
81.613933
 20
46.091845
 30
0.0
 10
81.613933
 20
58.077375
 30
0.0
 10
91.993707
 20
64.070143
 30
0.0
 10
99.727647
 20
59.604947
 30
0.0
 10
104.815754
 20
62.542568
 30
0.0
 10
104.815754
 20
71.472954
 30
0.0
 10
112.549694
 20
75.938147
 30
0.0
 10
112.549694
 20
81.813387
 30
0.0
 10
104.815756
 20
86.278580
 30
0.0
 10
104.815756
 20
95.208966
 30
0.0
 10
99.727650
 20
98.146587
 30
0.0
 10
91.993709
 20
93.681391
 30
0.0
 10
84.259769
 20
98.146587
 30
0.0
 10
79.171660
 20
95.208963
 30
0.0
 10
79.171660
 20
86.278580
 30
0.0
 10
71.437720
 20
81.813387
 30
0.0
 10
71.437720
 20
75.938147
 30
0.0
 10
79.171660
 20
71.472954
 30
0.0
 10
79.171660
 20
59.487424
 30
0.0
 10
68.791886
 20
53.494657
 30
0.0
 10
58.412113
 20
59.487424
 30
0.0
 10
58.412113
 20
71.472954
 30
0.0
 10
66.146053
 20
75.938147
 30
0.0
 10
66.146053
 20
84.868531
 30
0.0
 10
73.879993
 20
89.333724
 30
0.0
 10
73.879993
 20
95.208966
 30
0.0
 10
66.146053
 20
99.674159
 30
0.0
 10
66.146053
 20
108.604542
 30
0.0
 10
61.057946
 20
111.542163
 30
0.0
 10
53.324006
 20
107.076968
 30
0.0
 10
42.944232
 20
113.069735
 30
0.0
 10
42.944232
 20
125.055265
 30
0.0
 10
53.324006
 20
131.048032
 30
0.0
 10
61.057946
 20
126.582837
 30
0.0
 10
66.146053
 20
129.520458
 30
0.0
 10
66.146053
 20
138.450841
 30
0.0
 10
73.879993
 20
142.916034
 30
0.0
 10
73.879993
 20
148.791276
 30
0.0
 10
66.146053
 20
153.256469
 30
0.0
 10
66.146053
 20
162.186853
 30
0.0
 10
58.412113
 20
166.652046
 30
0.0
 10
58.412113
 20
178.637576
 30
0.0
 10
68.791886
 20
184.630343
 30
0.0
 10
79.171660
 20
178.637576
 30
0.0
 10
79.171660
 20
166.652046
 30
0.0
 10
71.437720
 20
162.186853
 30
0.0
 10
71.437720
 20
156.311613
 30
0.0
 10
79.171660
 20
151.846420
 30
0.0
 10
79.171660
 20
142.916037
 30
0.0
 10
84.259769
 20
139.978413
 30
0.0
 10
91.993709
 20
144.443609
 30
0.0
 10
99.727650
 20
139.978413
 30
0.0
 10
104.815756
 20
142.916034
 30
0.0
 10
104.815756
 20
151.846420
 30
0.0
 10
112.549697
 20
156.311613
 30
0.0
 10
112.549697
 20
162.186853
 30
0.0
 10
104.815756
 20
166.652046
 30
0.0
 10
104.815756
 20
175.582432
 30
0.0
 10
99.727650
 20
178.520053
 30
0.0
 10
91.993709
 20
174.054857
 30
0.0
 10
81.613936
 20
180.047625
 30
0.0
 10
81.613936
 20
192.033155
 30
0.0
 10
91.993709
 20
198.025917
 30
0.0
  0
LWPOLYLINE
  5
101
100
AcDbEntity
  8
Layer_1
 62
7
100
AcDbPolyline
 90
6
 70
1
 10
86.905603
 20
55.022231
 30
0.0
 10
86.905603
 20
49.146992
 30
0.0
 10
91.993709
 20
46.209373
 30
0.0
 10
97.081816
 20
49.146992
 30
0.0
 10
97.081816
 20
55.022231
 30
0.0
 10
91.993709
 20
57.959853
 30
0.0
  0
LWPOLYLINE
  5
102
100
AcDbEntity
  8
Layer_1
 62
7
100
AcDbPolyline
 90
6
 70
1
 10
63.703779
 20
68.417808
 30
0.0
 10
63.703779
 20
62.542568
 30
0.0
 10
68.791886
 20
59.604947
 30
0.0
 10
73.879993
 20
62.542568
 30
0.0
 10
73.879993
 20
68.417808
 30
0.0
 10
68.791884
 20
71.355426
 30
0.0
  0
LWPOLYLINE
  5
103
100
AcDbEntity
  8
Layer_1
 62
7
100
AcDbPolyline
 90
66
 70
1
 10
141.043184
 20
175.582432
 30
0.0
 10
141.043184
 20
166.652046
 30
0.0
 10
130.663410
 20
160.659284
 30
0.0
 10
122.929470
 20
165.124471
 30
0.0
 10
117.841363
 20
162.186853
 30
0.0
 10
117.841363
 20
153.256469
 30
0.0
 10
110.107423
 20
148.791276
 30
0.0
 10
110.107423
 20
142.916034
 30
0.0
 10
117.841363
 20
138.450841
 30
0.0
 10
117.841363
 20
126.465314
 30
0.0
 10
107.461590
 20
120.472547
 30
0.0
 10
97.081816
 20
126.465314
 30
0.0
 10
97.081816
 20
135.395697
 30
0.0
 10
91.993709
 20
138.333319
 30
0.0
 10
84.259769
 20
133.868123
 30
0.0
 10
76.525826
 20
138.333319
 30
0.0
 10
71.437720
 20
135.395697
 30
0.0
 10
71.437720
 20
126.465314
 30
0.0
 10
61.057946
 20
120.472547
 30
0.0
 10
53.324006
 20
124.937742
 30
0.0
 10
48.235899
 20
122.000121
 30
0.0
 10
48.235899
 20
116.124879
 30
0.0
 10
53.324006
 20
113.187258
 30
0.0
 10
61.057946
 20
117.652453
 30
0.0
 10
71.437720
 20
111.659686
 30
0.0
 10
71.437720
 20
102.729303
 30
0.0
 10
76.525826
 20
99.791681
 30
0.0
 10
84.259769
 20
104.256877
 30
0.0
 10
91.993709
 20
99.791681
 30
0.0
 10
97.081816
 20
102.729303
 30
0.0
 10
97.081816
 20
111.659686
 30
0.0
 10
107.461590
 20
117.652453
 30
0.0
 10
117.841363
 20
111.659686
 30
0.0
 10
117.841363
 20
99.674159
 30
0.0
 10
110.107423
 20
95.208966
 30
0.0
 10
110.107423
 20
89.333724
 30
0.0
 10
117.841363
 20
84.868531
 30
0.0
 10
117.841363
 20
75.938147
 30
0.0
 10
122.929470
 20
73.000529
 30
0.0
 10
130.663410
 20
77.465716
 30
0.0
 10
141.043184
 20
71.472954
 30
0.0
 10
141.043184
 20
62.542568
 30
0.0
 10
146.131291
 20
59.604947
 30
0.0
 10
151.219397
 20
62.542568
 30
0.0
 10
151.219397
 20
68.417808
 30
0.0
 10
143.485457
 20
72.883001
 30
0.0
 10
143.485457
 20
84.868531
 30
0.0
 10
151.219397
 20
89.333724
 30
0.0
 10
151.219397
 20
95.208966
 30
0.0
 10
143.485457
 20
99.674159
 30
0.0
 10
143.485457
 20
108.604542
 30
0.0
 10
138.397350
 20
111.542163
 30
0.0
 10
130.663410
 20
107.076968
 30
0.0
 10
120.283637
 20
113.069735
 30
0.0
 10
120.283637
 20
125.055265
 30
0.0
 10
130.663410
 20
131.048032
 30
0.0
 10
138.397350
 20
126.582837
 30
0.0
 10
143.485457
 20
129.520458
 30
0.0
 10
143.485457
 20
138.450841
 30
0.0
 10
151.219397
 20
142.916034
 30
0.0
 10
151.219397
 20
148.791276
 30
0.0
 10
143.485457
 20
153.256469
 30
0.0
 10
143.485457
 20
165.241999
 30
0.0
 10
151.219397
 20
169.707192
 30
0.0
 10
151.219397
 20
175.582432
 30
0.0
 10
146.131291
 20
178.520053
 30
0.0
  0
LWPOLYLINE
  5
104
100
AcDbEntity
  8
Layer_1
 62
7
100
AcDbPolyline
 90
6
 70
1
 10
102.373483
 20
108.604542
 30
0.0
 10
102.373483
 20
102.729303
 30
0.0
 10
107.461590
 20
99.791681
 30
0.0
 10
112.549697
 20
102.729303
 30
0.0
 10
112.549697
 20
108.604542
 30
0.0
 10
107.461590
 20
111.542163
 30
0.0
  0
LWPOLYLINE
  5
105
100
AcDbEntity
  8
Layer_1
 62
7
100
AcDbPolyline
 90
6
 70
1
 10
179.712887
 20
108.604542
 30
0.0
 10
179.712887
 20
102.729303
 30
0.0
 10
184.800994
 20
99.791681
 30
0.0
 10
189.889101
 20
102.729303
 30
0.0
 10
189.889101
 20
108.604542
 30
0.0
 10
184.800994
 20
111.542163
 30
0.0
  0
LWPOLYLINE
  5
106
100
AcDbEntity
  8
Layer_1
 62
7
100
AcDbPolyline
 90
6
 70
1
 10
125.575303
 20
122.000121
 30
0.0
 10
125.575303
 20
116.124879
 30
0.0
 10
130.663410
 20
113.187258
 30
0.0
 10
135.751517
 20
116.124879
 30
0.0
 10
135.751517
 20
122.000121
 30
0.0
 10
130.663410
 20
124.937742
 30
0.0
  0
LWPOLYLINE
  5
107
100
AcDbEntity
  8
Layer_1
 62
7
100
AcDbPolyline
 90
6
 70
1
 10
102.373483
 20
135.395697
 30
0.0
 10
102.373483
 20
129.520458
 30
0.0
 10
107.461590
 20
126.582837
 30
0.0
 10
112.549697
 20
129.520458
 30
0.0
 10
112.549697
 20
135.395697
 30
0.0
 10
107.461590
 20
138.333319
 30
0.0
  0
LWPOLYLINE
  5
108
100
AcDbEntity
  8
Layer_1
 62
7
100
AcDbPolyline
 90
6
 70
1
 10
179.712887
 20
135.395697
 30
0.0
 10
179.712887
 20
129.520458
 30
0.0
 10
184.800994
 20
126.582837
 30
0.0
 10
189.889101
 20
129.520458
 30
0.0
 10
189.889101
 20
135.395697
 30
0.0
 10
184.800994
 20
138.333319
 30
0.0
  0
LWPOLYLINE
  5
109
100
AcDbEntity
  8
Layer_1
 62
7
100
AcDbPolyline
 90
6
 70
1
 10
63.703779
 20
175.582432
 30
0.0
 10
63.703779
 20
169.707192
 30
0.0
 10
68.791889
 20
166.769574
 30
0.0
 10
73.879993
 20
169.707192
 30
0.0
 10
73.879993
 20
175.582432
 30
0.0
 10
68.791886
 20
178.520053
 30
0.0
  0
LWPOLYLINE
  5
10a
100
AcDbEntity
  8
Layer_1
 62
7
100
AcDbPolyline
 90
6
 70
1
 10
86.905603
 20
188.978008
 30
0.0
 10
86.905603
 20
183.102769
 30
0.0
 10
91.993709
 20
180.165147
 30
0.0
 10
97.081816
 20
183.102769
 30
0.0
 10
97.081816
 20
188.978008
 30
0.0
 10
91.993709
 20
191.915627
 30
0.0
  0
ENDSEC
  0
SECTION
  2
OBJECTS
  0
DICTIONARY
  5
C
330
0
100
AcDbDictionary
  3
ACAD_GROUP
350
D
  3
ACAD_MLINESTYLE
350
17
  0
DICTIONARY
  5
D
330
C
100
AcDbDictionary
  0
DICTIONARY
  5
1A
330
C
100
AcDbDictionary
  0
DICTIONARY
  5
17
330
C
100
AcDbDictionary
  3
STANDARD
350
18
  0
DICTIONARY
  5
19
330
C
100
AcDbDictionary
  0
ENDSEC
  0
EOF
