<svg version="1.1" xmlns="http://www.w3.org/2000/svg" xmlns:xlink="http://www.w3.org/1999/xlink" width="900" height="900"><defs/><g><path fill="#222222" stroke="#cccccc" paint-order="fill stroke markers" d=" M 272.81894 39.43821 L 306.248 50.29997 L 307.79702 51.06477 L 309.06392 52.23923 L 309.94368 53.72597 L 310.3939 56.00631 L 310.3939 86.79644 L 339.67706 96.31112 L 341.22608 97.07592 L 342.49298 98.25038 L 343.37274 99.73712 L 343.82296 102.01746 L 343.82296 137.16686 L 343.57426 138.8764 L 342.84879 140.44422 L 341.70667 141.74035 L 339.67706 142.8732 L 310.3939 152.38788 L 310.3939 178.81875 L 335.53117 186.98635 L 353.62916 162.0766 L 354.8352 160.83973 L 356.34367 159.99776 L 358.0295 159.62049 L 360.33736 159.89697 L 393.76642 170.75873 L 395.31544 171.52353 L 396.58234 172.69799 L 397.4621 174.18473 L 397.91232 176.46507 L 397.91232 207.25521 L 427.19548 216.76989 L 428.7445 217.53469 L 430.0114 218.70915 L 430.89116 220.19589 L 431.34138 222.47623 L 431.34138 257.62562 L 431.09268 259.33516 L 430.36721 260.90298 L 429.22509 262.19911 L 427.19548 263.33196 L 397.91232 272.84664 L 397.91232 303.63678 L 397.66362 305.34632 L 396.93815 306.91414 L 395.79603 308.21027 L 393.76642 309.34312 L 360.33736 320.20488 L 358.63464 320.49663 L 356.91937 320.29114 L 355.33375 319.60545 L 353.62916 318.02525 L 335.53117 293.1155 L 310.3939 301.2831 L 310.3939 327.71398 L 339.67706 337.22866 L 341.22608 337.99346 L 342.49298 339.16792 L 343.37274 340.65466 L 343.82296 342.935 L 343.82296 378.08439 L 343.57426 379.79393 L 342.84879 381.36175 L 341.70667 382.65788 L 339.67706 383.79073 L 310.3939 393.30541 L 310.3939 424.09554 L 310.1452 425.80508 L 309.41973 427.3729 L 308.27761 428.66903 L 306.248 429.80188 L 272.81894 440.66364 L 271.11622 440.95539 L 269.40095 440.7499 L 267.81533 440.06421 L 266.11074 438.48401 L 248.01275 413.57427 L 218.72958 423.08895 L 217.02686 423.3807 L 215.31159 423.17521 L 213.72597 422.48952 L 212.02138 420.90932 L 191.36109 392.47286 L 190.55745 390.94363 L 190.22283 389.24882 L 190.38497 387.52891 L 191.36109 385.41944 L 209.45908 360.50969 L 193.9234 339.12666 L 168.78613 347.29426 L 168.78613 378.08439 L 168.53743 379.79393 L 167.81196 381.36175 L 166.66984 382.65788 L 164.64023 383.79073 L 131.21117 394.65249 L 129.50845 394.94424 L 127.79318 394.73875 L 126.20756 394.05306 L 124.50297 392.47286 L 106.40498 367.56311 L 77.12181 377.07779 L 75.41909 377.36954 L 73.70382 377.16405 L 72.1182 376.47836 L 70.41361 374.89816 L 49.75332 346.46171 L 48.94968 344.93248 L 48.61506 343.23767 L 48.7772 341.51776 L 49.75332 339.40829 L 67.85131 314.49854 L 49.75332 289.58879 L 48.94968 288.05956 L 48.61506 286.36475 L 48.7772 284.64484 L 49.75332 282.53537 L 70.41361 254.09891 L 71.61965 252.86204 L 73.12811 252.02008 L 74.81395 251.6428 L 77.12181 251.91928 L 106.40498 261.43396 L 121.94066 240.05093 L 106.40498 218.66789 L 77.12181 228.18257 L 75.41909 228.47432 L 73.70382 228.26883 L 72.1182 227.58314 L 70.41361 226.00294 L 49.75332 197.56648 L 48.94968 196.03725 L 48.61506 194.34244 L 48.7772 192.62253 L 49.75332 190.51306 L 67.85131 165.60331 L 49.75332 140.69357 L 48.94968 139.16434 L 48.61506 137.46953 L 48.7772 135.74962 L 49.75332 133.64015 L 70.41361 105.20369 L 71.61965 103.96682 L 73.12811 103.12486 L 74.81395 102.74758 L 77.12181 103.02406 L 106.40498 112.53874 L 124.50297 87.62899 L 125.70901 86.39212 L 127.21748 85.55015 L 128.90331 85.17288 L 131.21117 85.44936 L 164.64023 96.31112 L 166.18925 97.07592 L 167.45615 98.25038 L 168.33591 99.73712 L 168.78613 102.01746 L 168.78613 132.8076 L 193.9234 140.9752 L 209.45908 119.59216 L 191.36109 94.68241 L 190.55745 93.15318 L 190.22283 91.45837 L 190.38497 89.73846 L 191.36109 87.62899 L 212.02138 59.19254 L 213.22742 57.95567 L 214.73589 57.11371 L 216.42172 56.73643 L 218.72958 57.01291 L 248.01275 66.52759 L 266.11074 41.61784 L 267.31678 40.38097 L 268.82525 39.539 L 270.51108 39.16173 Z M 255.15864 318.02525 L 253.9526 319.26212 L 252.44413 320.10409 L 250.7583 320.48136 L 248.45044 320.20488 L 219.16727 310.6902 L 203.63159 332.07324 L 221.72958 356.98298 L 222.53322 358.51221 L 222.86784 360.20702 L 222.7057 361.92693 L 221.72958 364.0364 L 203.63159 388.94615 L 219.16727 410.32919 L 248.45044 400.81451 L 250.15316 400.52276 L 251.86843 400.72825 L 253.45405 401.41394 L 255.15864 402.99414 L 273.25663 427.90388 L 298.3939 419.73628 L 298.3939 388.94615 L 298.6426 387.23661 L 299.36807 385.66879 L 300.51019 384.37266 L 302.5398 383.23981 L 331.82296 373.72513 L 331.82296 347.29426 L 302.5398 337.77958 L 300.99078 337.01478 L 299.72388 335.84032 L 298.84412 334.35358 L 298.3939 332.07324 L 298.3939 301.2831 L 273.25663 293.1155 Z M 113.55087 272.01409 L 112.34483 273.25096 L 110.83636 274.09293 L 109.15053 274.4702 L 106.84267 274.19372 L 77.5595 264.67904 L 62.02382 286.06208 L 80.12181 310.97183 L 80.92545 312.50106 L 81.26007 314.19587 L 81.09793 315.91578 L 80.12181 318.02525 L 62.02382 342.935 L 77.5595 364.31803 L 106.84267 354.80335 L 108.54539 354.5116 L 110.26066 354.71709 L 111.84628 355.40278 L 113.55087 356.98298 L 131.64886 381.89273 L 156.78613 373.72513 L 156.78613 342.935 L 157.03483 341.22546 L 157.7603 339.65764 L 158.90242 338.36151 L 160.93203 337.22866 L 190.21519 327.71398 L 190.21519 301.2831 L 160.93203 291.76842 L 159.38301 291.00362 L 158.11611 289.82916 L 157.23635 288.34242 L 156.78613 286.06208 L 156.78613 255.27195 L 131.64886 247.10435 Z M 202.21519 298.87335 L 202.21519 313.60714 L 210.87548 301.68727 L 210.87548 286.95348 Z M 222.87548 272.84664 L 222.87548 299.27752 L 248.01275 307.44512 L 263.54843 286.06208 L 248.01275 264.67904 Z M 342.67706 197.56648 L 341.47102 198.80335 L 339.96255 199.64532 L 338.27672 200.02259 L 335.96886 199.74611 L 306.68569 190.23143 L 291.15001 211.61447 L 309.248 236.52422 L 310.05164 238.05345 L 310.38626 239.74826 L 310.22412 241.46817 L 309.248 243.57764 L 291.15001 268.48738 L 306.68569 289.87042 L 335.96886 280.35574 L 337.67158 280.06399 L 339.38685 280.26948 L 340.97247 280.95517 L 342.67706 282.53537 L 360.77505 307.44512 L 385.91232 299.27752 L 385.91232 268.48738 L 386.16102 266.77784 L 386.88649 265.21002 L 388.02861 263.91389 L 390.05822 262.78104 L 419.34138 253.26636 L 419.34138 226.83549 L 390.05822 217.32081 L 388.5092 216.55601 L 387.2423 215.38155 L 386.36254 213.89481 L 385.91232 211.61447 L 385.91232 180.82433 L 360.77505 172.65673 Z M 168.78613 255.27195 L 168.78613 281.70282 L 193.9234 289.87042 L 209.45908 268.48738 L 193.9234 247.10435 Z M 274.67304 280.95817 L 288.68571 285.51116 L 280.02541 273.59129 L 266.01274 269.0383 Z M 203.63159 240.05093 L 219.16727 261.43396 L 244.30454 253.26636 L 244.30454 226.83549 L 219.16727 218.66789 Z M 256.30454 226.83549 L 256.30454 253.26636 L 281.44182 261.43396 L 296.9775 240.05093 L 281.44182 218.66789 Z M 148.77348 240.05093 L 162.78613 244.60392 L 176.79878 240.05093 L 162.78613 235.49794 Z M 113.55087 123.11887 L 112.34483 124.35574 L 110.83636 125.19771 L 109.15053 125.57498 L 106.84267 125.2985 L 77.5595 115.78382 L 62.02382 137.16686 L 80.12181 162.0766 L 80.92545 163.60583 L 81.26007 165.30064 L 81.09793 167.02055 L 80.12181 169.13002 L 62.02382 194.03977 L 77.5595 215.42281 L 106.84267 205.90813 L 108.54539 205.61638 L 110.26066 205.82187 L 111.84628 206.50756 L 113.55087 208.08776 L 131.64886 232.99751 L 156.78613 224.82991 L 156.78613 194.03977 L 157.03483 192.33023 L 157.7603 190.76241 L 158.90242 189.46628 L 160.93203 188.33343 L 190.21519 178.81875 L 190.21519 152.38788 L 160.93203 142.8732 L 159.38301 142.1084 L 158.11611 140.93394 L 157.23635 139.4472 L 156.78613 137.16686 L 156.78613 106.37672 L 131.64886 98.20912 Z M 168.78613 198.39903 L 168.78613 224.82991 L 193.9234 232.99751 L 209.45908 211.61447 L 193.9234 190.23143 Z M 222.87548 180.82433 L 222.87548 207.25521 L 248.01275 215.42281 L 263.54843 194.03977 L 248.01275 172.65673 Z M 274.67304 199.14368 L 266.01274 211.06355 L 280.02541 206.51056 L 288.68571 194.59069 Z M 202.21519 181.2285 L 210.87548 193.14837 L 210.87548 178.41458 L 202.21519 166.49472 Z M 255.15864 77.10772 L 253.9526 78.34459 L 252.44413 79.18656 L 250.7583 79.56383 L 248.45044 79.28735 L 219.16727 69.77267 L 203.63159 91.1557 L 221.72958 116.06545 L 222.53322 117.59468 L 222.86784 119.28949 L 222.7057 121.0094 L 221.72958 123.11887 L 203.63159 148.02862 L 219.16727 169.41165 L 248.45044 159.89697 L 250.15316 159.60522 L 251.86843 159.81071 L 253.45405 160.4964 L 255.15864 162.0766 L 273.25663 186.98635 L 298.3939 178.81875 L 298.3939 148.02862 L 298.6426 146.31908 L 299.36807 144.75126 L 300.51019 143.45513 L 302.5398 142.32228 L 331.82296 132.8076 L 331.82296 106.37672 L 302.5398 96.86204 L 300.99078 96.09724 L 299.72388 94.92278 L 298.84412 93.43604 L 298.3939 91.1557 L 298.3939 60.36557 L 273.25663 52.19797 Z" stroke-miterlimit="10"/><path fill="#222222" stroke="#cccccc" paint-order="fill stroke markers" d=" M 634.57145 37.8822 L 636.15707 38.56789 L 637.86166 40.14809 L 663.92404 76.01989 L 706.09388 89.7217 L 706.56249 89.95307 L 707.05445 90.12921 L 707.33305 90.33352 L 707.6429 90.4865 L 708.02617 90.84181 L 708.44754 91.15081 L 708.6564 91.42605 L 708.9098 91.66096 L 709.17593 92.1107 L 709.49182 92.52699 L 709.54553 92.7353 L 709.78956 93.1477 L 710.23978 95.42804 L 710.23978 123.25144 L 726.59396 100.74184 L 727.16835 100.15277 L 727.73429 99.55603 L 727.77065 99.53507 L 727.8 99.50497 L 728.51858 99.10389 L 729.23093 98.69322 L 729.27179 98.68348 L 729.30846 98.66301 L 730.1112 98.48336 L 730.91137 98.2926 L 730.9533 98.2949 L 730.9943 98.28573 L 731.17052 98.30684 L 732.6363 98.38739 L 733.03527 98.53024 L 733.30216 98.56221 L 775.47199 112.26402 L 817.64183 98.56221 L 818.30488 98.4486 L 818.95924 98.2926 L 819.15315 98.30326 L 819.34455 98.27046 L 820.01249 98.35048 L 820.68417 98.38739 L 820.867 98.45285 L 821.05982 98.47595 L 821.67726 98.74296 L 822.3106 98.96972 L 822.4672 99.08456 L 822.64544 99.16164 L 822.92232 99.41831 L 823.70369 99.99132 L 824.09096 100.50168 L 824.35003 100.74184 L 851.55831 138.19083 L 851.73136 138.52013 L 851.95625 138.81649 L 852.02284 139.07478 L 852.36195 139.72006 L 852.69657 141.41487 L 852.67772 141.6148 L 852.70421 141.71754 L 852.60144 142.42398 L 852.53443 143.13478 L 852.48134 143.2495 L 852.45551 143.42708 L 851.73004 144.9949 L 851.61138 145.12956 L 851.55831 145.24425 L 825.49593 181.11605 L 825.49593 225.45604 L 825.24723 227.16558 L 824.52176 228.7334 L 823.37964 230.02953 L 821.91557 230.94652 L 821.56006 231.04515 L 821.35003 231.16238 L 794.8884 239.76028 L 821.35003 248.35819 L 821.81864 248.58956 L 822.3106 248.7657 L 822.5892 248.97001 L 822.89905 249.12299 L 823.28232 249.4783 L 823.70369 249.7873 L 823.91255 250.06254 L 824.16595 250.29745 L 824.43208 250.74719 L 824.74797 251.16348 L 824.80168 251.37179 L 825.04571 251.78419 L 825.49593 254.06453 L 825.49593 298.40452 L 851.55831 334.27631 L 851.73136 334.60561 L 851.95625 334.90197 L 852.02284 335.16026 L 852.36195 335.80554 L 852.69657 337.50035 L 852.67772 337.70028 L 852.70421 337.80302 L 852.60144 338.50946 L 852.53443 339.22026 L 852.48134 339.33498 L 852.45551 339.51256 L 851.73004 341.08038 L 851.61138 341.21504 L 851.55831 341.32973 L 824.35003 378.77873 L 823.85166 379.28984 L 823.37964 379.82551 L 823.25043 379.90644 L 823.14399 380.0156 L 822.52062 380.36354 L 821.91557 380.7425 L 821.76864 380.78326 L 821.63553 380.85756 L 820.93887 381.01347 L 820.25091 381.20433 L 820.09849 381.20154 L 819.94969 381.23484 L 819.59478 381.19232 L 818.52367 381.17272 L 817.97312 380.99805 L 817.64183 380.95836 L 775.47199 367.25654 L 733.30216 380.95836 L 732.74639 381.05359 L 732.20304 381.20433 L 731.89909 381.19877 L 731.59944 381.25011 L 731.03957 381.18304 L 730.4758 381.17272 L 730.18602 381.08078 L 729.88417 381.04462 L 729.36665 380.82082 L 728.82915 380.65029 L 728.57756 380.47958 L 728.29855 380.35893 L 728.02232 380.10286 L 727.39961 379.68035 L 726.8754 379.03964 L 726.59396 378.77873 L 710.23978 356.26912 L 710.23978 384.09252 L 709.99108 385.80206 L 709.26561 387.36988 L 708.12349 388.66601 L 706.65942 389.583 L 706.30391 389.68163 L 706.09388 389.79886 L 663.92404 403.50068 L 637.86166 439.37247 L 637.36329 439.88358 L 636.89127 440.41925 L 636.76206 440.50018 L 636.65562 440.60934 L 636.03225 440.95728 L 635.4272 441.33624 L 635.28027 441.377 L 635.14716 441.4513 L 634.4505 441.60721 L 633.76254 441.79807 L 633.61012 441.79528 L 633.46132 441.82858 L 633.10641 441.78606 L 632.0353 441.76646 L 631.48475 441.59179 L 631.15346 441.5521 L 587.12952 427.24786 L 586.75879 427.06482 L 586.36471 426.93979 L 585.98834 426.68442 L 585.5805 426.48306 L 585.27731 426.20199 L 584.93517 425.96985 L 584.64714 425.6178 L 584.3136 425.3086 L 584.10306 424.95279 L 583.84125 424.6328 L 583.66548 424.21331 L 583.43384 423.82186 L 583.3736 423.51673 L 583.17362 423.03948 L 583.04517 421.85327 L 582.98362 421.54152 L 582.98362 377.20153 L 556.92124 341.32973 L 556.79916 341.09743 L 556.63297 340.8943 L 556.3991 340.33616 L 556.1176 339.8005 L 556.06677 339.54304 L 555.96534 339.30098 L 555.90019 338.69936 L 555.78298 338.10569 L 555.80761 337.8444 L 555.77936 337.58349 L 555.88832 336.98828 L 555.94512 336.38578 L 556.03363 336.19449 L 556.09044 335.88419 L 556.87279 334.34397 L 556.90626 334.30867 L 556.92124 334.27631 L 573.27542 311.76671 L 546.81379 320.36461 L 546.25802 320.45984 L 545.71467 320.61058 L 545.41072 320.60502 L 545.11107 320.65636 L 544.5512 320.58929 L 543.98743 320.57897 L 543.69765 320.48703 L 543.3958 320.45087 L 542.87828 320.22707 L 542.34078 320.05654 L 542.08919 319.88583 L 541.81018 319.76518 L 541.53395 319.50911 L 540.91124 319.0866 L 540.38703 318.44589 L 540.10559 318.18498 L 514.0432 282.31319 L 471.87337 268.61137 L 470.32435 267.84657 L 469.05745 266.67211 L 468.17769 265.18537 L 467.72747 262.90503 L 467.72747 216.61553 L 467.7434 216.50601 L 467.73149 216.396 L 467.86746 215.65326 L 467.97617 214.90599 L 468.02264 214.80556 L 468.04257 214.6967 L 468.38453 214.02349 L 468.70164 213.33817 L 468.77481 213.25514 L 468.82492 213.15648 L 469.34446 212.60866 L 469.84376 212.04204 L 469.92468 211.99687 L 470.0137 211.90301 L 471.51034 211.0402 L 471.73432 210.9868 L 471.87337 210.90919 L 514.0432 197.20738 L 540.10559 161.33558 L 540.67998 160.74651 L 541.24592 160.14977 L 541.28228 160.12881 L 541.31163 160.09871 L 542.03007 159.69771 L 542.74256 159.28696 L 542.78343 159.27722 L 542.8201 159.25675 L 543.62275 159.07712 L 544.423 158.88634 L 544.46494 158.88864 L 544.50593 158.87947 L 544.68215 158.90058 L 546.14793 158.98113 L 546.5469 159.12398 L 546.81379 159.15595 L 573.27542 167.75386 L 556.92124 145.24425 L 556.1176 143.71502 L 555.78298 142.02021 L 555.94512 140.3003 L 556.92124 138.19083 L 582.98362 102.31904 L 582.98362 57.97905 L 583.23232 56.26951 L 583.95779 54.70169 L 585.09991 53.40556 L 587.12952 52.27271 L 631.15346 37.96846 L 632.85618 37.67671 Z M 594.98362 379.61127 L 594.98362 417.18226 L 630.71577 428.79234 L 652.79944 398.39677 L 630.71577 368.00119 Z M 640.42396 360.94777 L 662.50763 391.34335 L 698.23978 379.73327 L 698.23978 342.16228 L 662.50763 330.5522 Z M 569.19174 337.80302 L 591.27541 368.1986 L 627.00756 356.58852 L 627.00756 319.01753 L 591.27541 307.40745 Z M 711.65618 337.80302 L 733.73985 368.1986 L 769.47199 356.58852 L 769.47199 319.01753 L 733.73985 307.40745 Z M 781.47199 319.01753 L 781.47199 356.58852 L 817.20414 368.1986 L 839.28781 337.80302 L 817.20414 307.40745 Z M 639.00756 316.60778 L 639.00756 342.48167 L 654.21584 321.54927 L 654.21584 295.67538 Z M 666.21584 281.56853 L 666.21584 319.13952 L 701.94799 330.7496 L 724.03166 300.35403 L 701.94799 269.95845 Z M 525.16781 277.20928 L 547.25148 307.60485 L 582.98362 295.99477 L 582.98362 258.42378 L 547.25148 246.8137 Z M 594.98362 258.42378 L 594.98362 295.99477 L 630.71577 307.60485 L 652.79944 277.20928 L 630.71577 246.8137 Z M 755.68011 277.20928 L 777.76378 307.60485 L 813.49593 295.99477 L 813.49593 258.42378 L 777.76378 246.8137 Z M 735.15626 295.25012 L 759.76379 303.24559 L 744.55551 282.31319 L 719.94798 274.31771 Z M 479.72747 220.97479 L 479.72747 258.54578 L 515.45961 270.15586 L 537.54328 239.76028 L 515.45961 209.36471 Z M 640.42396 239.76028 L 662.50763 270.15586 L 698.23978 258.54578 L 698.23978 220.97479 L 662.50763 209.36471 Z M 710.23978 220.97479 L 710.23978 258.54578 L 745.97192 270.15586 L 768.05559 239.76028 L 745.97192 209.36471 Z M 564.37609 239.76028 L 588.98362 247.75576 L 613.59115 239.76028 L 588.98362 231.76481 Z M 525.16781 202.31129 L 547.25148 232.70686 L 582.98362 221.09678 L 582.98362 183.52579 L 547.25148 171.91571 Z M 594.98362 183.52579 L 594.98362 221.09678 L 630.71577 232.70686 L 652.79944 202.31129 L 630.71577 171.91571 Z M 755.68011 202.31129 L 777.76378 232.70686 L 813.49593 221.09678 L 813.49593 183.52579 L 777.76378 171.91571 Z M 666.21584 160.38104 L 666.21584 197.95203 L 701.94799 209.56211 L 724.03166 179.16654 L 701.94799 148.77096 Z M 735.15626 184.27045 L 719.94798 205.20285 L 744.55551 197.20738 L 759.76379 176.27497 Z M 639.00756 162.91278 L 654.21584 183.84519 L 654.21584 157.9713 L 639.00756 137.03889 Z M 569.19174 141.71754 L 591.27541 172.11312 L 627.00756 160.50304 L 627.00756 122.93205 L 591.27541 111.32197 Z M 711.65618 141.71754 L 733.73985 172.11312 L 769.47199 160.50304 L 769.47199 122.93205 L 733.73985 111.32197 Z M 781.47199 122.93205 L 781.47199 160.50304 L 817.20414 172.11312 L 839.28781 141.71754 L 817.20414 111.32197 Z M 640.42396 118.57279 L 662.50763 148.96837 L 698.23978 137.35829 L 698.23978 99.7873 L 662.50763 88.17722 Z M 594.98362 62.3383 L 594.98362 99.90929 L 630.71577 111.51937 L 652.79944 81.1238 L 630.71577 50.72822 Z" stroke-miterlimit="10"/><path fill="#222222" stroke="#cccccc" paint-order="fill stroke markers" d=" M 232.50288 454.36657 L 233.96866 454.44712 L 234.36763 454.58997 L 234.63452 454.62194 L 272.28575 466.85557 L 272.75436 467.08694 L 273.24632 467.26308 L 273.52492 467.46739 L 273.83477 467.62037 L 274.21804 467.97568 L 274.63941 468.28468 L 274.84827 468.55992 L 275.10167 468.79483 L 275.3678 469.24457 L 275.68369 469.66086 L 275.7374 469.86917 L 275.98143 470.28157 L 276.43165 472.56191 L 276.43165 507.7915 L 305.79108 517.33096 L 326.49851 488.82962 L 327.0729 488.24055 L 327.63884 487.64381 L 327.6752 487.62285 L 327.70455 487.59275 L 328.42299 487.19175 L 329.13548 486.781 L 329.17635 486.77126 L 329.21302 486.75079 L 330.01567 486.57116 L 330.81592 486.38038 L 330.85786 486.38268 L 330.89885 486.37351 L 331.07507 486.39462 L 332.54085 486.47517 L 332.93982 486.61802 L 333.20671 486.64999 L 370.85794 498.88361 L 371.32655 499.11498 L 371.81851 499.29112 L 372.09711 499.49543 L 372.40696 499.64841 L 372.79023 500.00372 L 373.2116 500.31272 L 373.42046 500.58796 L 373.67386 500.82287 L 373.93999 501.27261 L 374.25588 501.6889 L 374.30959 501.89721 L 374.55362 502.30961 L 375.00384 504.58995 L 375.00384 542.22929 L 395.98178 571.10293 L 431.7789 582.73413 L 432.24751 582.9655 L 432.73947 583.14164 L 433.01807 583.34595 L 433.32792 583.49893 L 433.71119 583.85424 L 434.13256 584.16324 L 434.34142 584.43848 L 434.59482 584.67339 L 434.86095 585.12313 L 435.17684 585.53942 L 435.23055 585.74773 L 435.47458 586.16013 L 435.9248 588.44047 L 435.9248 628.02931 L 435.6761 629.73885 L 434.95063 631.30667 L 433.80851 632.6028 L 432.34444 633.51979 L 431.98893 633.61842 L 431.7789 633.73565 L 398.27358 644.62219 L 398.27358 675.49252 L 431.7789 686.37906 L 432.24751 686.61043 L 432.73947 686.78657 L 433.01807 686.99088 L 433.32792 687.14386 L 433.71119 687.49917 L 434.13256 687.80817 L 434.34142 688.08341 L 434.59482 688.31832 L 434.86095 688.76806 L 435.17684 689.18435 L 435.23055 689.39266 L 435.47458 689.80506 L 435.9248 692.0854 L 435.9248 731.67425 L 435.6761 733.38379 L 434.95063 734.95161 L 433.80851 736.24774 L 432.34444 737.16473 L 431.98893 737.26336 L 431.7789 737.38059 L 395.98178 749.01178 L 375.00384 777.88543 L 375.00384 815.52476 L 374.75514 817.2343 L 374.02967 818.80212 L 372.88755 820.09825 L 371.42348 821.01524 L 371.06797 821.11387 L 370.85794 821.2311 L 333.20671 833.46473 L 332.65094 833.55996 L 332.10759 833.7107 L 331.80364 833.70514 L 331.50399 833.75648 L 330.94412 833.68941 L 330.38035 833.67909 L 330.09057 833.58715 L 329.78872 833.55099 L 329.2712 833.32719 L 328.7337 833.15666 L 328.48211 832.98595 L 328.2031 832.8653 L 327.92687 832.60923 L 327.30416 832.18672 L 326.77995 831.54601 L 326.49851 831.2851 L 305.79108 802.78376 L 276.43165 812.32322 L 276.43165 847.55281 L 276.18295 849.26235 L 275.45748 850.83017 L 274.31536 852.1263 L 272.85129 853.04329 L 272.49578 853.14192 L 272.28575 853.25915 L 234.63452 865.49277 L 234.07875 865.588 L 233.5354 865.73874 L 233.23145 865.73318 L 232.9318 865.78452 L 232.37193 865.71745 L 231.80816 865.70713 L 231.51838 865.61519 L 231.21653 865.57903 L 230.69901 865.35523 L 230.16151 865.1847 L 229.90992 865.01399 L 229.63091 864.89334 L 229.35468 864.63727 L 228.73197 864.21476 L 228.20776 863.57405 L 227.92632 863.31314 L 205.80248 832.8623 L 171.85945 821.83353 L 136.06233 833.46473 L 135.50656 833.55996 L 134.96321 833.7107 L 134.65926 833.70514 L 134.35961 833.75648 L 133.79974 833.68941 L 133.23597 833.67909 L 132.94619 833.58715 L 132.64434 833.55099 L 132.12682 833.32719 L 131.58932 833.15666 L 131.33773 832.98595 L 131.05872 832.8653 L 130.78249 832.60923 L 130.15978 832.18672 L 129.63557 831.54601 L 129.35413 831.2851 L 106.08439 799.25705 L 105.96231 799.02475 L 105.79612 798.82162 L 105.56225 798.26348 L 105.28075 797.72782 L 105.22992 797.47036 L 105.12849 797.2283 L 105.06334 796.62668 L 104.94613 796.03301 L 104.97076 795.77172 L 104.94251 795.51081 L 105.05147 794.9156 L 105.10827 794.3131 L 105.19678 794.12181 L 105.25359 793.81151 L 106.03594 792.27129 L 106.06941 792.23599 L 106.08439 792.20363 L 126.79182 763.70229 L 108.6467 738.72767 L 75.14136 749.61421 L 73.43864 749.90596 L 71.72337 749.70047 L 70.13775 749.01478 L 68.43316 747.43458 L 45.16342 715.40654 L 44.35978 713.87732 L 44.02516 712.1825 L 44.1873 710.46259 L 45.16342 708.35312 L 67.28726 677.90227 L 67.28726 642.21245 L 45.16342 611.7616 L 45.04134 611.5293 L 44.87515 611.32617 L 44.64128 610.76803 L 44.35978 610.23237 L 44.30895 609.97491 L 44.20752 609.73285 L 44.14237 609.13123 L 44.02516 608.53756 L 44.04979 608.27627 L 44.02154 608.01536 L 44.1305 607.42015 L 44.1873 606.81765 L 44.27581 606.62636 L 44.33262 606.31606 L 45.11497 604.77584 L 45.14844 604.74054 L 45.16342 604.70818 L 68.43316 572.68013 L 69.00755 572.09106 L 69.57349 571.49432 L 69.60985 571.47336 L 69.6392 571.44326 L 70.35764 571.04226 L 71.07013 570.63151 L 71.111 570.62177 L 71.14767 570.6013 L 71.95032 570.42167 L 72.75057 570.23089 L 72.79251 570.23319 L 72.8335 570.22402 L 73.00972 570.24513 L 74.4755 570.32568 L 74.87447 570.46853 L 75.14136 570.5005 L 108.6467 581.38705 L 126.79182 556.41242 L 106.08439 527.91109 L 105.96231 527.67878 L 105.79612 527.47566 L 105.56226 526.91755 L 105.28075 526.38187 L 105.22991 526.12439 L 105.12849 525.88234 L 105.06334 525.28073 L 104.94613 524.68705 L 104.97076 524.42576 L 104.94251 524.16485 L 105.05147 523.56964 L 105.10827 522.96714 L 105.19678 522.77585 L 105.25359 522.46555 L 106.03594 520.92533 L 106.06941 520.89003 L 106.08439 520.85767 L 129.35413 488.82962 L 129.92852 488.24055 L 130.49446 487.64381 L 130.53082 487.62285 L 130.56017 487.59275 L 131.27861 487.19175 L 131.9911 486.781 L 132.03197 486.77126 L 132.06864 486.75079 L 132.87129 486.57116 L 133.67154 486.38038 L 133.71348 486.38268 L 133.75447 486.37351 L 133.93069 486.39462 L 135.39647 486.47517 L 135.79544 486.61802 L 136.06233 486.64999 L 171.85945 498.28118 L 205.80248 487.25242 L 227.92632 456.80157 L 228.50071 456.2125 L 229.06665 455.61576 L 229.10301 455.5948 L 229.13236 455.5647 L 229.8508 455.1637 L 230.56329 454.75295 L 230.60416 454.74321 L 230.64083 454.72274 L 231.44348 454.54311 L 232.24373 454.35233 L 232.28567 454.35463 L 232.32666 454.34546 Z M 216.92709 827.75839 L 235.07221 852.73301 L 264.43165 843.19355 L 264.43165 812.32323 L 235.07221 802.78376 Z M 118.35489 795.73034 L 136.50002 820.70497 L 165.85945 811.16551 L 165.85945 780.29517 L 136.50002 770.75571 Z M 177.85945 780.29518 L 177.85945 811.1655 L 207.21889 820.70497 L 225.36402 795.73034 L 207.21889 770.75571 Z M 315.49927 795.73034 L 333.6444 820.70497 L 363.00384 811.1655 L 363.00384 780.29518 L 333.6444 770.75571 Z M 236.48862 529.48829 L 214.36478 559.93913 L 213.86641 560.45024 L 213.39439 560.98591 L 213.26518 561.06684 L 213.15874 561.176 L 212.53534 561.52396 L 211.93032 561.9029 L 211.78341 561.94366 L 211.65027 562.01797 L 210.95353 562.17389 L 210.26566 562.36473 L 210.11324 562.36194 L 209.96444 562.39524 L 209.60953 562.35272 L 208.53842 562.33312 L 207.98787 562.15845 L 207.65658 562.11876 L 171.85945 550.48757 L 137.91643 561.51633 L 116.93849 590.38998 L 116.93849 626.0798 L 139.06233 656.53065 L 139.23538 656.85995 L 139.46027 657.15631 L 139.52686 657.4146 L 139.86597 658.05988 L 140.20059 659.75469 L 140.18174 659.95462 L 140.20823 660.05736 L 140.10546 660.7638 L 140.03845 661.4746 L 139.98536 661.58932 L 139.95953 661.7669 L 139.23406 663.33472 L 139.1154 663.46938 L 139.06233 663.58407 L 116.93849 694.03491 L 116.93849 729.72474 L 137.91643 758.59838 L 171.85945 769.62715 L 207.65658 757.99595 L 208.31963 757.88234 L 208.97399 757.72634 L 209.1679 757.737 L 209.3593 757.7042 L 210.02724 757.78422 L 210.69892 757.82113 L 210.88175 757.88659 L 211.07457 757.90969 L 211.69201 758.1767 L 212.32535 758.40346 L 212.48195 758.5183 L 212.66019 758.59538 L 212.93707 758.85205 L 213.71844 759.42506 L 214.10571 759.93542 L 214.36478 760.17558 L 236.48862 790.62643 L 270.43165 801.6552 L 304.37467 790.62643 L 325.35261 761.75278 L 325.35261 724.11345 L 325.36854 724.00393 L 325.35663 723.89392 L 325.4926 723.15118 L 325.60131 722.40391 L 325.64778 722.30348 L 325.66771 722.19462 L 326.00967 721.52141 L 326.32678 720.83609 L 326.39995 720.75306 L 326.45006 720.6544 L 326.9696 720.10658 L 327.4689 719.53996 L 327.54982 719.49479 L 327.63884 719.40093 L 329.13548 718.53812 L 329.35946 718.48472 L 329.49851 718.40711 L 365.29564 706.77592 L 386.27358 677.90227 L 386.27358 642.21245 L 365.29564 613.3388 L 329.49851 601.7076 L 329.12778 601.52456 L 328.7337 601.39953 L 328.35733 601.14416 L 327.94949 600.9428 L 327.6463 600.66173 L 327.30416 600.42959 L 327.01613 600.07754 L 326.68259 599.76834 L 326.47205 599.41253 L 326.21024 599.09254 L 326.03447 598.67305 L 325.80283 598.2816 L 325.74259 597.97647 L 325.54261 597.49922 L 325.41416 596.31301 L 325.35261 596.00126 L 325.35261 558.36193 L 304.37467 529.48829 L 270.43165 518.45952 Z M 337.35261 728.47271 L 337.35261 759.34303 L 366.71205 768.8825 L 384.85717 743.90787 L 366.71205 718.93325 Z M 57.43393 711.87983 L 75.57905 736.85445 L 104.93849 727.31499 L 104.93849 696.44466 L 75.57905 686.9052 Z M 376.42025 711.87983 L 394.56537 736.85445 L 423.9248 727.31499 L 423.9248 696.44466 L 394.56537 686.9052 Z M 79.28726 644.6222 L 79.28726 675.49252 L 108.6467 685.03198 L 126.79182 660.05736 L 108.6467 635.08273 Z M 57.43392 608.23489 L 75.57905 633.20952 L 104.93849 623.67005 L 104.93849 592.79973 L 75.57905 583.26026 Z M 376.42024 608.23489 L 394.56537 633.20952 L 423.9248 623.67006 L 423.9248 592.79972 L 394.56537 583.26026 Z M 337.35261 560.77168 L 337.35261 591.642 L 366.71205 601.18147 L 384.85717 576.20684 L 366.71205 551.23222 Z M 118.3549 524.38438 L 136.50002 549.359 L 165.85945 539.81954 L 165.85945 508.94921 L 136.50002 499.40975 Z M 177.85945 508.94921 L 177.85945 539.81954 L 207.21889 549.359 L 225.36401 524.38438 L 207.21889 499.40975 Z M 315.49928 524.38438 L 333.6444 549.359 L 363.00384 539.81954 L 363.00384 508.94921 L 333.6444 499.40975 Z M 216.92708 492.35633 L 235.07221 517.33096 L 264.43165 507.79149 L 264.43165 476.92117 L 235.07221 467.3817 Z" stroke-miterlimit="10"/><path fill="#222222" stroke="#cccccc" paint-order="fill stroke markers" d=" M 671.58981 454.81556 L 673.05559 454.89611 L 673.45456 455.03896 L 673.72145 455.07093 L 697.49256 462.79463 L 697.96117 463.026 L 698.45313 463.20214 L 698.73173 463.40645 L 699.04158 463.55943 L 699.42485 463.91474 L 699.84622 464.22374 L 700.05508 464.49898 L 700.30848 464.73389 L 700.57461 465.18363 L 700.8905 465.59992 L 700.94421 465.80823 L 701.18824 466.22063 L 701.63846 468.50097 L 701.63846 489.13613 L 717.11778 494.16567 L 729.24682 477.47147 L 729.82121 476.8824 L 730.38715 476.28566 L 730.42351 476.2647 L 730.45286 476.2346 L 731.17144 475.83352 L 731.88379 475.42285 L 731.92465 475.41311 L 731.96132 475.39264 L 732.76406 475.21299 L 733.56423 475.02223 L 733.60616 475.02453 L 733.64716 475.01536 L 733.82338 475.03647 L 735.28916 475.11702 L 735.68813 475.25987 L 735.95502 475.29184 L 759.72613 483.01554 L 760.19474 483.24691 L 760.6867 483.42305 L 760.9653 483.62736 L 761.27515 483.78034 L 761.65842 484.13565 L 762.07979 484.44465 L 762.28865 484.71989 L 762.54205 484.9548 L 762.80818 485.40454 L 763.12407 485.82083 L 763.17778 486.02914 L 763.42181 486.44154 L 763.87203 488.72188 L 763.87203 513.71631 L 763.62333 515.42585 L 762.89786 516.99367 L 761.75574 518.2898 L 760.29167 519.20679 L 759.93616 519.30542 L 759.72613 519.42265 L 740.10092 525.79927 L 740.10092 546.43443 L 739.85222 548.14397 L 739.12675 549.71179 L 737.98463 551.00792 L 736.52056 551.92491 L 736.16505 552.02354 L 735.95502 552.14077 L 716.32981 558.51739 L 716.32981 574.7933 L 731.80913 579.82284 L 743.93818 563.12864 L 744.51257 562.53957 L 745.07851 561.94283 L 745.11487 561.92187 L 745.14422 561.89177 L 745.86292 561.49062 L 746.57515 561.08002 L 746.61599 561.07028 L 746.65269 561.0498 L 747.4557 560.8701 L 748.25559 560.6794 L 748.29752 560.6817 L 748.33852 560.67253 L 748.51474 560.69364 L 749.98052 560.77419 L 750.37949 560.91704 L 750.64638 560.94901 L 774.41749 568.67271 L 774.8861 568.90408 L 775.37806 569.08022 L 775.65666 569.28453 L 775.96651 569.43751 L 776.34978 569.79282 L 776.77115 570.10182 L 776.98001 570.37706 L 777.23341 570.61197 L 777.49954 571.06171 L 777.81543 571.478 L 777.86914 571.68631 L 778.11317 572.09871 L 778.56339 574.37905 L 778.56339 599.37347 L 778.31469 601.08301 L 777.58922 602.65083 L 776.4471 603.94696 L 774.98303 604.86395 L 774.62752 604.96258 L 774.41749 605.07981 L 754.79228 611.45643 L 754.79228 627.73234 L 770.2716 632.76188 L 782.40064 616.06768 L 782.97503 615.47861 L 783.54097 614.88187 L 783.57733 614.86091 L 783.60668 614.83081 L 784.32526 614.42973 L 785.03761 614.01906 L 785.07847 614.00932 L 785.11514 613.98885 L 785.91788 613.8092 L 786.71805 613.61844 L 786.75998 613.62074 L 786.80098 613.61157 L 786.9772 613.63268 L 788.44298 613.71323 L 788.84195 613.85608 L 789.10884 613.88805 L 808.73406 620.26467 L 820.8631 603.57046 L 821.43749 602.98139 L 822.00343 602.38465 L 822.03979 602.36369 L 822.06914 602.33359 L 822.78772 601.93251 L 823.50007 601.52184 L 823.54093 601.5121 L 823.5776 601.49163 L 824.38034 601.31198 L 825.18051 601.12122 L 825.22244 601.12352 L 825.26344 601.11435 L 825.43966 601.13546 L 826.90544 601.21601 L 827.30441 601.35886 L 827.5713 601.39083 L 851.34241 609.11454 L 851.81102 609.34591 L 852.30298 609.52205 L 852.58158 609.72636 L 852.89143 609.87934 L 853.2747 610.23465 L 853.69607 610.54365 L 853.90493 610.81889 L 854.15833 611.0538 L 854.42446 611.50354 L 854.74035 611.91983 L 854.79406 612.12814 L 855.03809 612.54054 L 855.48831 614.82088 L 855.48831 639.8153 L 855.23961 641.52484 L 854.51414 643.09266 L 853.37202 644.38879 L 851.90795 645.30578 L 851.55244 645.40441 L 851.34241 645.52164 L 831.7172 651.89826 L 831.7172 668.17417 L 851.34241 674.55079 L 851.81102 674.78216 L 852.30298 674.9583 L 852.58158 675.16261 L 852.89143 675.31559 L 853.2747 675.6709 L 853.69607 675.9799 L 853.90493 676.25514 L 854.15833 676.49005 L 854.42446 676.93979 L 854.74035 677.35608 L 854.79406 677.56439 L 855.03809 677.97679 L 855.48831 680.25713 L 855.48831 705.25155 L 855.23961 706.96109 L 854.51414 708.52891 L 853.37202 709.82504 L 851.90795 710.74203 L 851.55244 710.84066 L 851.34241 710.95789 L 827.5713 718.68159 L 827.01553 718.77682 L 826.47218 718.92756 L 826.16823 718.922 L 825.86858 718.97334 L 825.30871 718.90627 L 824.74494 718.89595 L 824.45516 718.80401 L 824.15331 718.76785 L 823.63579 718.54405 L 823.09829 718.37352 L 822.8467 718.20281 L 822.56769 718.08216 L 822.29146 717.82609 L 821.66875 717.40358 L 821.14454 716.76287 L 820.8631 716.50196 L 808.73406 699.80776 L 789.10884 706.18438 L 788.55307 706.27961 L 788.00972 706.43035 L 787.70577 706.42479 L 787.40612 706.47613 L 786.84625 706.40906 L 786.28248 706.39874 L 785.9927 706.3068 L 785.69085 706.27064 L 785.17333 706.04684 L 784.63583 705.87631 L 784.38424 705.7056 L 784.10523 705.58495 L 783.829 705.32888 L 783.20629 704.90637 L 782.68208 704.26566 L 782.40064 704.00475 L 770.2716 687.31055 L 754.79228 692.34009 L 754.79228 708.61599 L 774.41749 714.99261 L 774.8861 715.22398 L 775.37806 715.40012 L 775.65666 715.60443 L 775.96651 715.75741 L 776.34978 716.11272 L 776.77115 716.42172 L 776.98001 716.69696 L 777.23341 716.93187 L 777.49954 717.38161 L 777.81543 717.7979 L 777.86914 718.00621 L 778.11317 718.41861 L 778.56339 720.69895 L 778.56339 745.69338 L 778.31469 747.40292 L 777.58922 748.97074 L 776.4471 750.26687 L 774.98303 751.18386 L 774.62752 751.28249 L 774.41749 751.39972 L 750.64638 759.12342 L 750.09061 759.21865 L 749.54726 759.36939 L 749.24331 759.36383 L 748.94366 759.41517 L 748.38379 759.3481 L 747.82002 759.33778 L 747.53024 759.24584 L 747.22839 759.20968 L 746.71087 758.98588 L 746.17337 758.81535 L 745.92178 758.64464 L 745.64277 758.52399 L 745.36654 758.26792 L 744.74383 757.84541 L 744.21962 757.2047 L 743.93818 756.94379 L 731.80913 740.24959 L 716.32981 745.27913 L 716.32981 761.55503 L 735.95502 767.93165 L 736.42363 768.16302 L 736.91559 768.33916 L 737.19419 768.54347 L 737.50404 768.69645 L 737.88731 769.05176 L 738.30868 769.36076 L 738.51754 769.636 L 738.77094 769.87091 L 739.03707 770.32065 L 739.35296 770.73694 L 739.40667 770.94525 L 739.6507 771.35765 L 740.10092 773.63799 L 740.10092 794.27316 L 759.72613 800.64978 L 760.19474 800.88115 L 760.6867 801.05729 L 760.9653 801.2616 L 761.27515 801.41458 L 761.65842 801.76989 L 762.07979 802.07889 L 762.28865 802.35413 L 762.54205 802.58904 L 762.80818 803.03878 L 763.12407 803.45507 L 763.17778 803.66338 L 763.42181 804.07578 L 763.87203 806.35612 L 763.87203 831.35054 L 763.62333 833.06008 L 762.89786 834.6279 L 761.75574 835.92403 L 760.29167 836.84102 L 759.93616 836.93965 L 759.72613 837.05688 L 735.95502 844.78059 L 735.39925 844.87582 L 734.8559 845.02656 L 734.55195 845.021 L 734.2523 845.07234 L 733.69243 845.00527 L 733.12866 844.99495 L 732.83888 844.90301 L 732.53703 844.86685 L 732.01951 844.64305 L 731.48201 844.47252 L 731.23042 844.30181 L 730.95141 844.18116 L 730.67518 843.92509 L 730.05247 843.50258 L 729.52826 842.86187 L 729.24682 842.60096 L 717.11778 825.90675 L 701.63846 830.93629 L 701.63846 851.57146 L 701.38976 853.281 L 700.66429 854.84882 L 699.52217 856.14495 L 698.0581 857.06194 L 697.70259 857.16057 L 697.49256 857.2778 L 673.72145 865.0015 L 673.16568 865.09673 L 672.62233 865.24747 L 672.31838 865.24191 L 672.01873 865.29325 L 671.45886 865.22618 L 670.89509 865.21586 L 670.60531 865.12392 L 670.30346 865.08776 L 669.78594 864.86396 L 669.24844 864.69343 L 668.99685 864.52272 L 668.71784 864.40207 L 668.44161 864.146 L 667.8189 863.72349 L 667.29469 863.08278 L 667.01325 862.82187 L 652.32189 842.60096 L 652.19981 842.36865 L 652.03362 842.16553 L 651.79976 841.60742 L 651.51825 841.07174 L 651.46741 840.81426 L 651.36599 840.57221 L 651.30084 839.9706 L 651.18363 839.37692 L 651.20826 839.11563 L 651.18001 838.85472 L 651.28897 838.25951 L 651.34577 837.65701 L 651.43428 837.46572 L 651.49109 837.15542 L 652.27344 835.6152 L 652.30691 835.5799 L 652.32189 835.54754 L 664.45094 818.85333 L 652.32189 802.15913 L 652.19981 801.92682 L 652.03362 801.7237 L 651.79976 801.16559 L 651.51825 800.62991 L 651.46741 800.37243 L 651.36599 800.13038 L 651.30084 799.52877 L 651.18363 798.93509 L 651.20826 798.6738 L 651.18001 798.41289 L 651.28897 797.81768 L 651.34577 797.21518 L 651.43428 797.02389 L 651.49109 796.71359 L 652.27344 795.17337 L 652.30691 795.13807 L 652.32189 795.10571 L 664.45094 778.4115 L 654.8842 765.24401 L 639.40488 770.27355 L 639.40488 790.90872 L 639.15618 792.61826 L 638.43071 794.18608 L 637.28859 795.48221 L 635.82452 796.3992 L 635.46901 796.49783 L 635.25898 796.61506 L 611.48788 804.33876 L 610.93211 804.43399 L 610.38876 804.58473 L 610.08481 804.57917 L 609.78516 804.63051 L 609.22529 804.56344 L 608.66152 804.55312 L 608.37174 804.46118 L 608.06989 804.42502 L 607.55237 804.20122 L 607.01487 804.03069 L 606.76328 803.85998 L 606.48427 803.73933 L 606.20804 803.48326 L 605.58533 803.06075 L 605.06112 802.42004 L 604.77968 802.15913 L 590.08832 781.93821 L 589.96624 781.70591 L 589.80005 781.50278 L 589.56618 780.94464 L 589.28468 780.40898 L 589.23385 780.15152 L 589.13242 779.90946 L 589.06727 779.30784 L 588.95006 778.71417 L 588.97469 778.45288 L 588.94644 778.19197 L 589.0554 777.59676 L 589.1122 776.99426 L 589.20071 776.80297 L 589.25752 776.49267 L 590.03987 774.95245 L 590.07334 774.91715 L 590.08832 774.88479 L 602.21737 758.19059 L 592.65063 745.0231 L 577.17131 750.05264 L 577.17131 770.6878 L 576.92261 772.39734 L 576.19714 773.96516 L 575.05502 775.26129 L 573.59095 776.17828 L 573.23544 776.27691 L 573.02541 776.39414 L 553.4002 782.77076 L 553.4002 803.40593 L 553.1515 805.11547 L 552.42603 806.68329 L 551.28391 807.97942 L 549.81984 808.89641 L 549.46433 808.99504 L 549.2543 809.11227 L 525.48319 816.83597 L 524.92742 816.9312 L 524.38407 817.08194 L 524.08012 817.07638 L 523.78047 817.12772 L 523.2206 817.06065 L 522.65683 817.05033 L 522.36705 816.95839 L 522.0652 816.92223 L 521.54768 816.69843 L 521.01018 816.5279 L 520.75859 816.35719 L 520.47958 816.23654 L 520.20335 815.98047 L 519.58064 815.55796 L 519.05643 814.91725 L 518.77499 814.65634 L 504.08364 794.43543 L 503.96156 794.20313 L 503.79537 794 L 503.5615 793.44186 L 503.28 792.9062 L 503.22917 792.64874 L 503.12774 792.40668 L 503.06259 791.80506 L 502.94538 791.21139 L 502.97001 790.9501 L 502.94176 790.68919 L 503.05072 790.09398 L 503.10752 789.49148 L 503.19603 789.30019 L 503.25284 788.98989 L 504.03519 787.44967 L 504.06866 787.41437 L 504.08364 787.38201 L 516.21269 770.6878 L 506.64595 757.52031 L 487.02073 763.89693 L 486.46496 763.99216 L 485.92161 764.1429 L 485.61766 764.13734 L 485.31801 764.18868 L 484.75814 764.12161 L 484.19437 764.11129 L 483.90459 764.01935 L 483.60274 763.98319 L 483.08522 763.75939 L 482.54772 763.58886 L 482.29613 763.41815 L 482.01712 763.2975 L 481.74089 763.04143 L 481.11818 762.61892 L 480.59397 761.97821 L 480.31253 761.7173 L 465.62117 741.49639 L 465.49909 741.26408 L 465.3329 741.06096 L 465.09904 740.50285 L 464.81753 739.96717 L 464.76669 739.70969 L 464.66527 739.46764 L 464.60012 738.86603 L 464.48291 738.27235 L 464.50754 738.01106 L 464.47929 737.75015 L 464.58825 737.15494 L 464.64505 736.55244 L 464.73356 736.36115 L 464.79037 736.05085 L 465.57272 734.51063 L 465.60619 734.47533 L 465.62117 734.44297 L 480.31253 714.22205 L 480.88692 713.63298 L 481.45286 713.03624 L 481.48922 713.01528 L 481.51857 712.98518 L 482.23727 712.58403 L 482.9495 712.17343 L 482.99034 712.16369 L 483.02704 712.14321 L 483.83005 711.96351 L 484.62994 711.77281 L 484.67187 711.77511 L 484.71287 711.76594 L 484.88909 711.78705 L 486.35487 711.8676 L 486.75384 712.01045 L 487.02073 712.04242 L 506.64595 718.41904 L 518.77499 701.72484 L 519.34938 701.13577 L 519.91532 700.53903 L 519.95168 700.51807 L 519.98103 700.48797 L 520.69961 700.08689 L 521.41196 699.67622 L 521.45282 699.66648 L 521.48949 699.64601 L 522.29223 699.46636 L 523.0924 699.2756 L 523.13433 699.2779 L 523.17533 699.26873 L 523.35155 699.28984 L 524.81733 699.37039 L 525.2163 699.51324 L 525.48319 699.54521 L 545.10841 705.92183 L 554.67515 692.75434 L 545.10841 679.58685 L 525.48319 685.96347 L 523.78047 686.25522 L 522.0652 686.04973 L 520.47958 685.36404 L 518.77499 683.78384 L 504.08364 663.56292 L 503.28 662.03369 L 502.94538 660.33888 L 503.10752 658.61897 L 504.08364 656.5095 L 518.77499 636.28859 L 519.06362 635.99258 L 519.30432 635.65641 L 519.66349 635.37738 L 519.98103 635.05172 L 520.34206 634.85021 L 520.66854 634.59657 L 521.09235 634.43143 L 521.48949 634.20976 L 521.89292 634.11947 L 522.27819 633.96935 L 522.73148 633.93181 L 523.17533 633.83248 L 523.58783 633.86089 L 523.99983 633.82677 L 524.51478 633.92473 L 524.89878 633.95118 L 525.15271 634.04609 L 525.48319 634.10896 L 545.10841 640.48558 L 554.67515 627.31809 L 545.10841 614.15059 L 525.48319 620.52722 L 523.78047 620.81897 L 522.0652 620.61348 L 520.47958 619.92779 L 518.77499 618.34759 L 506.64595 601.65338 L 487.02073 608.03 L 485.31801 608.32175 L 483.60274 608.11626 L 482.01712 607.43057 L 480.31253 605.85037 L 465.62117 585.62946 L 464.81753 584.10024 L 464.48291 582.40542 L 464.64505 580.68551 L 465.62117 578.57604 L 480.31253 558.35513 L 481.51857 557.11826 L 483.02704 556.27629 L 484.71287 555.89902 L 487.02073 556.1755 L 506.64595 562.55212 L 516.21269 549.38462 L 504.08364 532.69042 L 503.28 531.16119 L 502.94538 529.46638 L 503.10752 527.74647 L 504.08364 525.637 L 518.77499 505.41609 L 519.98103 504.17922 L 521.48949 503.33726 L 523.17533 502.95998 L 525.48319 503.23646 L 549.2543 510.96016 L 550.80332 511.72496 L 552.07022 512.89942 L 552.94998 514.38616 L 553.4002 516.6665 L 553.4002 537.30166 L 573.02541 543.67828 L 574.57443 544.44308 L 575.84133 545.61754 L 576.72109 547.10428 L 577.17131 549.38462 L 577.17131 570.01979 L 592.65063 575.04933 L 602.21737 561.88184 L 590.08832 545.18763 L 589.28468 543.6584 L 588.95006 541.96359 L 589.1122 540.24368 L 590.08832 538.13421 L 604.77968 517.9133 L 605.98572 516.67643 L 607.49419 515.83446 L 609.18002 515.45719 L 611.48788 515.73367 L 635.25898 523.45737 L 636.808 524.22217 L 638.0749 525.39663 L 638.95466 526.88337 L 639.40488 529.16371 L 639.40488 549.79888 L 654.8842 554.82842 L 664.45094 541.66092 L 652.32189 524.96672 L 652.19981 524.73441 L 652.03362 524.53129 L 651.79976 523.97318 L 651.51825 523.4375 L 651.46741 523.18002 L 651.36599 522.93797 L 651.30084 522.33636 L 651.18363 521.74268 L 651.20826 521.48139 L 651.18001 521.22048 L 651.28897 520.62527 L 651.34577 520.02277 L 651.43428 519.83148 L 651.49109 519.52118 L 652.27344 517.98096 L 652.30691 517.94566 L 652.32189 517.9133 L 664.45094 501.21909 L 652.32189 484.52489 L 652.19981 484.29258 L 652.03362 484.08946 L 651.79976 483.53135 L 651.51825 482.99567 L 651.46741 482.73819 L 651.36599 482.49614 L 651.30084 481.89453 L 651.18363 481.30085 L 651.20826 481.03956 L 651.18001 480.77865 L 651.28897 480.18344 L 651.34577 479.58094 L 651.43428 479.38965 L 651.49109 479.07935 L 652.27344 477.53913 L 652.30691 477.50383 L 652.32189 477.47147 L 667.01325 457.25056 L 667.58764 456.66149 L 668.15358 456.06475 L 668.18994 456.04379 L 668.21929 456.01369 L 668.93799 455.61254 L 669.65022 455.20194 L 669.69106 455.1922 L 669.72776 455.17172 L 670.53077 454.99202 L 671.33066 454.80132 L 671.37259 454.80362 L 671.41359 454.79445 Z M 664.5924 480.99818 L 676.72145 497.69238 L 676.8945 498.02168 L 677.11939 498.31804 L 677.18598 498.57632 L 677.52509 499.2216 L 677.85971 500.91642 L 677.84086 501.11635 L 677.86735 501.21909 L 677.76458 501.92553 L 677.69757 502.63633 L 677.64448 502.75105 L 677.61865 502.92863 L 676.89318 504.49645 L 676.77452 504.63111 L 676.72145 504.7458 L 664.5924 521.44001 L 676.72145 538.13421 L 676.8945 538.46351 L 677.11939 538.75987 L 677.18598 539.01815 L 677.52509 539.66343 L 677.85971 541.35825 L 677.84086 541.55818 L 677.86735 541.66092 L 677.76458 542.36736 L 677.69757 543.07816 L 677.64448 543.19288 L 677.61865 543.37046 L 676.89318 544.93828 L 676.77452 545.07294 L 676.72145 545.18763 L 662.03009 565.40855 L 661.53172 565.91966 L 661.0597 566.45533 L 660.93049 566.53626 L 660.82405 566.64542 L 660.20065 566.99338 L 659.59563 567.37232 L 659.44872 567.41308 L 659.31558 567.48739 L 658.61884 567.64331 L 657.93097 567.83415 L 657.77855 567.83136 L 657.62975 567.86466 L 657.27484 567.82214 L 656.20373 567.80254 L 655.65318 567.62787 L 655.32189 567.58818 L 633.40488 560.4669 L 613.34198 566.98575 L 599.79652 585.62946 L 598.59048 586.86633 L 597.08201 587.7083 L 595.39618 588.08557 L 593.08832 587.80909 L 569.31721 580.08539 L 567.76819 579.32059 L 566.50129 578.14613 L 565.62153 576.65939 L 565.17131 574.37905 L 565.17131 553.74388 L 545.5461 547.36726 L 543.99708 546.60246 L 542.73018 545.428 L 541.85042 543.94126 L 541.4002 541.66092 L 541.4002 521.02576 L 525.92088 515.99622 L 516.35414 529.16371 L 528.48319 545.85791 L 529.28683 547.38714 L 529.62145 549.08195 L 529.45931 550.80186 L 528.48319 552.91133 L 513.79184 573.13225 L 512.5858 574.36912 L 511.07734 575.21108 L 509.3915 575.58836 L 507.08364 575.31188 L 487.45842 568.93526 L 477.89168 582.10275 L 487.45842 595.27024 L 507.08364 588.89362 L 508.78636 588.60187 L 510.50163 588.80736 L 512.08725 589.49305 L 513.79184 591.07325 L 525.92088 607.76746 L 545.5461 601.39083 L 547.24882 601.09908 L 548.96409 601.30457 L 550.54971 601.99026 L 552.2543 603.57046 L 566.94566 623.79138 L 567.7493 625.32061 L 568.08392 627.01542 L 567.92178 628.73533 L 566.94566 630.8448 L 553.4002 649.48851 L 553.4002 670.58392 L 566.94566 689.22763 L 567.11871 689.55693 L 567.3436 689.85329 L 567.41019 690.11157 L 567.7493 690.75685 L 568.08392 692.45167 L 568.06507 692.6516 L 568.09156 692.75434 L 567.98879 693.46078 L 567.92178 694.17158 L 567.86869 694.2863 L 567.84286 694.46388 L 567.11739 696.0317 L 566.99873 696.16636 L 566.94566 696.28105 L 552.2543 716.50196 L 551.75593 717.01307 L 551.28391 717.54874 L 551.1547 717.62967 L 551.04826 717.73883 L 550.42486 718.08679 L 549.81984 718.46573 L 549.67293 718.50649 L 549.53979 718.5808 L 548.84305 718.73672 L 548.15518 718.92756 L 548.00276 718.92477 L 547.85396 718.95807 L 547.49905 718.91555 L 546.42794 718.89595 L 545.87739 718.72128 L 545.5461 718.68159 L 525.92088 712.30497 L 513.79184 728.99917 L 513.29347 729.51028 L 512.82145 730.04595 L 512.69224 730.12688 L 512.5858 730.23604 L 511.96243 730.58398 L 511.35738 730.96294 L 511.21045 731.0037 L 511.07734 731.078 L 510.38068 731.23391 L 509.69272 731.42477 L 509.5403 731.42198 L 509.3915 731.45528 L 509.03659 731.41276 L 507.96548 731.39316 L 507.41493 731.21849 L 507.08364 731.1788 L 487.45842 724.80218 L 477.89168 737.96968 L 487.45842 751.13717 L 507.08364 744.76055 L 507.74669 744.64694 L 508.40105 744.49094 L 508.59496 744.5016 L 508.78636 744.4688 L 509.4543 744.54882 L 510.12598 744.58573 L 510.30881 744.65119 L 510.50163 744.67429 L 511.11907 744.9413 L 511.75241 745.16806 L 511.90901 745.2829 L 512.08725 745.35998 L 512.36413 745.61665 L 513.1455 746.18966 L 513.53277 746.70002 L 513.79184 746.94018 L 528.48319 767.16109 L 528.65624 767.49039 L 528.88113 767.78675 L 528.94772 768.04504 L 529.28683 768.69032 L 529.62145 770.38513 L 529.6026 770.58506 L 529.62909 770.6878 L 529.52632 771.39424 L 529.45931 772.10504 L 529.40622 772.21976 L 529.38039 772.39734 L 528.65492 773.96516 L 528.53626 774.09982 L 528.48319 774.21451 L 516.35414 790.90872 L 525.92088 804.07621 L 541.4002 799.04667 L 541.4002 778.4115 L 541.41613 778.30198 L 541.40422 778.19197 L 541.54019 777.44923 L 541.6489 776.70196 L 541.69537 776.60153 L 541.7153 776.49267 L 542.05726 775.81946 L 542.37437 775.13414 L 542.44754 775.05111 L 542.49765 774.95245 L 543.01719 774.40463 L 543.51649 773.83801 L 543.59741 773.79284 L 543.68643 773.69898 L 545.18307 772.83617 L 545.40705 772.78277 L 545.5461 772.70516 L 565.17131 766.32854 L 565.17131 745.69338 L 565.18724 745.58386 L 565.17533 745.47385 L 565.3113 744.73111 L 565.42001 743.98384 L 565.46648 743.88341 L 565.48641 743.77455 L 565.82837 743.10134 L 566.14548 742.41602 L 566.21865 742.33299 L 566.26876 742.23433 L 566.7883 741.68651 L 567.2876 741.11989 L 567.36852 741.07472 L 567.45754 740.98086 L 568.95418 740.11805 L 569.17816 740.06465 L 569.31721 739.98704 L 593.08832 732.26334 L 593.75137 732.14973 L 594.40573 731.99373 L 594.59964 732.00439 L 594.79104 731.97159 L 595.45898 732.05161 L 596.13066 732.08852 L 596.31349 732.15398 L 596.50631 732.17708 L 597.12375 732.44409 L 597.75709 732.67085 L 597.91369 732.78569 L 598.09193 732.86277 L 598.36881 733.11944 L 599.15018 733.69245 L 599.53745 734.20281 L 599.79652 734.44297 L 613.34198 753.08668 L 633.40488 759.60552 L 655.32189 752.48425 L 655.98494 752.37064 L 656.6393 752.21464 L 656.83321 752.2253 L 657.02461 752.1925 L 657.69255 752.27252 L 658.36423 752.30943 L 658.54706 752.37489 L 658.73988 752.39799 L 659.35732 752.665 L 659.99066 752.89176 L 660.14726 753.0066 L 660.3255 753.08368 L 660.60238 753.34035 L 661.38375 753.91336 L 661.77102 754.42372 L 662.03009 754.66388 L 676.72145 774.88479 L 676.8945 775.21409 L 677.11939 775.51045 L 677.18598 775.76873 L 677.52509 776.41401 L 677.85971 778.10883 L 677.84086 778.30876 L 677.86735 778.4115 L 677.76458 779.11794 L 677.69757 779.82874 L 677.64448 779.94346 L 677.61865 780.12104 L 676.89318 781.68886 L 676.77452 781.82352 L 676.72145 781.93821 L 664.5924 798.63242 L 676.72145 815.32662 L 676.8945 815.65592 L 677.11939 815.95228 L 677.18598 816.21056 L 677.52509 816.85584 L 677.85971 818.55066 L 677.84086 818.75059 L 677.86735 818.85333 L 677.76458 819.55977 L 677.69757 820.27057 L 677.64448 820.38529 L 677.61865 820.56287 L 676.89318 822.13069 L 676.77452 822.26535 L 676.72145 822.38004 L 664.5924 839.07425 L 674.15914 852.24174 L 689.63846 847.2122 L 689.63846 826.57703 L 689.65439 826.46751 L 689.64248 826.3575 L 689.77845 825.61476 L 689.88716 824.86749 L 689.93363 824.76706 L 689.95356 824.6582 L 690.29552 823.98499 L 690.61263 823.29967 L 690.6858 823.21664 L 690.73591 823.11798 L 691.25545 822.57016 L 691.75475 822.00354 L 691.83567 821.95837 L 691.92469 821.86451 L 693.42133 821.0017 L 693.64531 820.9483 L 693.78436 820.87069 L 717.55547 813.14699 L 718.21852 813.03338 L 718.87288 812.87738 L 719.06679 812.88804 L 719.25819 812.85524 L 719.92613 812.93526 L 720.59781 812.97217 L 720.78064 813.03763 L 720.97346 813.06073 L 721.5909 813.32774 L 722.22424 813.5545 L 722.38084 813.66934 L 722.55908 813.74642 L 722.83596 814.00309 L 723.61733 814.5761 L 724.0046 815.08646 L 724.26367 815.32662 L 736.39271 832.02083 L 751.87203 826.99129 L 751.87203 810.71538 L 732.24682 804.33876 L 731.87609 804.15572 L 731.48201 804.03069 L 731.10564 803.77532 L 730.6978 803.57396 L 730.39461 803.29289 L 730.05247 803.06075 L 729.76444 802.7087 L 729.4309 802.3995 L 729.22036 802.04369 L 728.95855 801.7237 L 728.78278 801.30421 L 728.55114 800.91276 L 728.4909 800.60763 L 728.29092 800.13038 L 728.16247 798.94417 L 728.10092 798.63242 L 728.10092 777.99725 L 708.47571 771.62063 L 708.10498 771.43759 L 707.7109 771.31256 L 707.33453 771.05719 L 706.92669 770.85583 L 706.6235 770.57476 L 706.28136 770.34262 L 705.99333 769.99057 L 705.65979 769.68137 L 705.44925 769.32556 L 705.18744 769.00557 L 705.01167 768.58608 L 704.78003 768.19463 L 704.71979 767.8895 L 704.51981 767.41225 L 704.39136 766.22604 L 704.32981 765.91429 L 704.32981 740.91987 L 704.34574 740.81035 L 704.33383 740.70034 L 704.4698 739.9576 L 704.57851 739.21033 L 704.62498 739.1099 L 704.64491 739.00104 L 704.98687 738.32783 L 705.30398 737.64251 L 705.37715 737.55948 L 705.42726 737.46082 L 705.9468 736.913 L 706.4461 736.34638 L 706.52702 736.30121 L 706.61604 736.20735 L 708.11268 735.34454 L 708.33666 735.29114 L 708.47571 735.21353 L 730.39272 728.09226 L 742.79228 711.02574 L 742.79228 687.98083 L 742.80821 687.87131 L 742.7963 687.7613 L 742.93227 687.01856 L 743.04098 686.27129 L 743.08745 686.17086 L 743.10738 686.062 L 743.44934 685.38879 L 743.76645 684.70347 L 743.83962 684.62044 L 743.88973 684.52178 L 744.40927 683.97396 L 744.90857 683.40734 L 744.98949 683.36217 L 745.07851 683.26831 L 746.57515 682.4055 L 746.79913 682.3521 L 746.93818 682.27449 L 770.70929 674.55079 L 771.37234 674.43718 L 772.0267 674.28118 L 772.22061 674.29184 L 772.41201 674.25904 L 773.07995 674.33906 L 773.75163 674.37597 L 773.93446 674.44143 L 774.12728 674.46453 L 774.74472 674.73154 L 775.37806 674.9583 L 775.53466 675.07314 L 775.7129 675.15022 L 775.98978 675.40689 L 776.77115 675.9799 L 777.15842 676.49026 L 777.41749 676.73042 L 789.54653 693.42462 L 809.17175 687.048 L 809.8348 686.93439 L 810.48916 686.77839 L 810.68307 686.78905 L 810.87447 686.75625 L 811.54241 686.83627 L 812.21409 686.87318 L 812.39692 686.93864 L 812.58974 686.96174 L 813.20718 687.22875 L 813.84052 687.45551 L 813.99712 687.57035 L 814.17536 687.64743 L 814.45224 687.9041 L 815.23361 688.47711 L 815.62088 688.98747 L 815.87995 689.22763 L 828.00899 705.92183 L 843.48831 700.89229 L 843.48831 684.61639 L 823.8631 678.23977 L 823.49237 678.05673 L 823.09829 677.9317 L 822.72192 677.67633 L 822.31408 677.47497 L 822.01089 677.1939 L 821.66875 676.96176 L 821.38072 676.60971 L 821.04718 676.30051 L 820.83664 675.9447 L 820.57483 675.62471 L 820.39906 675.20522 L 820.16742 674.81377 L 820.10718 674.50864 L 819.9072 674.03139 L 819.77875 672.84518 L 819.7172 672.53343 L 819.7172 647.539 L 819.73313 647.42948 L 819.72122 647.31947 L 819.85719 646.57673 L 819.9659 645.82946 L 820.01237 645.72903 L 820.0323 645.62017 L 820.37426 644.94696 L 820.69137 644.26164 L 820.76454 644.17861 L 820.81465 644.07995 L 821.33419 643.53213 L 821.83349 642.96551 L 821.91441 642.92034 L 822.00343 642.82648 L 823.50007 641.96367 L 823.72405 641.91027 L 823.8631 641.83266 L 843.48831 635.45604 L 843.48831 619.18013 L 828.00899 614.15059 L 815.87995 630.8448 L 815.38158 631.35591 L 814.90956 631.89158 L 814.78035 631.97251 L 814.67391 632.08167 L 814.05054 632.42961 L 813.44549 632.80857 L 813.29856 632.84933 L 813.16545 632.92363 L 812.46879 633.07954 L 811.78083 633.2704 L 811.62841 633.26761 L 811.47961 633.30091 L 811.1247 633.25839 L 810.05359 633.23879 L 809.50304 633.06412 L 809.17175 633.02443 L 789.54653 626.64781 L 777.41749 643.34201 L 776.91912 643.85312 L 776.4471 644.38879 L 776.31789 644.46972 L 776.21145 644.57888 L 775.58808 644.92682 L 774.98303 645.30578 L 774.8361 645.34654 L 774.70299 645.42084 L 774.00633 645.57675 L 773.31837 645.76761 L 773.16595 645.76482 L 773.01715 645.79812 L 772.66224 645.7556 L 771.59113 645.736 L 771.04058 645.56133 L 770.70929 645.52164 L 746.93818 637.79794 L 746.56745 637.6149 L 746.17337 637.48987 L 745.797 637.2345 L 745.38916 637.03314 L 745.08597 636.75207 L 744.74383 636.51993 L 744.4558 636.16788 L 744.12226 635.85868 L 743.91172 635.50287 L 743.64991 635.18288 L 743.47414 634.76339 L 743.2425 634.37194 L 743.18226 634.06681 L 742.98228 633.58956 L 742.85383 632.40335 L 742.79228 632.0916 L 742.79228 609.04668 L 730.39272 591.98017 L 708.47571 584.8589 L 708.10498 584.67586 L 707.7109 584.55083 L 707.33453 584.29546 L 706.92669 584.0941 L 706.6235 583.81303 L 706.28136 583.58089 L 705.99333 583.22884 L 705.65979 582.91964 L 705.44925 582.56383 L 705.18744 582.24384 L 705.01167 581.82435 L 704.78003 581.4329 L 704.71979 581.12777 L 704.51981 580.65052 L 704.39136 579.46431 L 704.32981 579.15256 L 704.32981 554.15813 L 704.34574 554.04861 L 704.33383 553.9386 L 704.4698 553.19586 L 704.57851 552.44859 L 704.62498 552.34816 L 704.64491 552.2393 L 704.98687 551.56609 L 705.30398 550.88077 L 705.37715 550.79774 L 705.42726 550.69908 L 705.9468 550.15126 L 706.4461 549.58464 L 706.52702 549.53947 L 706.61604 549.44561 L 708.11268 548.5828 L 708.33666 548.5294 L 708.47571 548.45179 L 728.10092 542.07517 L 728.10092 521.44001 L 728.11685 521.33049 L 728.10494 521.22048 L 728.24091 520.47774 L 728.34962 519.73047 L 728.39609 519.63004 L 728.41602 519.52118 L 728.75798 518.84797 L 729.07509 518.16265 L 729.14826 518.07962 L 729.19837 517.98096 L 729.71791 517.43314 L 730.21721 516.86652 L 730.29813 516.82135 L 730.38715 516.72749 L 731.88379 515.86468 L 732.10777 515.81128 L 732.24682 515.73367 L 751.87203 509.35705 L 751.87203 493.08114 L 736.39271 488.0516 L 724.26367 504.7458 L 723.7653 505.25691 L 723.29328 505.79258 L 723.16407 505.87351 L 723.05763 505.98267 L 722.43426 506.33061 L 721.82921 506.70957 L 721.68228 506.75033 L 721.54917 506.82463 L 720.85251 506.98054 L 720.16455 507.1714 L 720.01213 507.16861 L 719.86333 507.20191 L 719.50842 507.15939 L 718.43731 507.13979 L 717.88676 506.96512 L 717.55547 506.92543 L 693.78436 499.20173 L 693.41363 499.01869 L 693.01955 498.89366 L 692.64318 498.63829 L 692.23534 498.43693 L 691.93215 498.15586 L 691.59001 497.92372 L 691.30198 497.57167 L 690.96844 497.26247 L 690.7579 496.90666 L 690.49609 496.58667 L 690.32032 496.16718 L 690.08868 495.77573 L 690.02844 495.4706 L 689.82846 494.99335 L 689.70001 493.80714 L 689.63846 493.49539 L 689.63846 472.86023 L 674.15914 467.83069 Z M 602.35883 778.4115 L 611.92557 791.579 L 627.40488 786.54946 L 627.40488 770.27355 L 611.92557 765.24401 Z M 741.51733 733.19617 L 751.08407 746.36366 L 766.56339 741.33412 L 766.56339 725.05821 L 751.08407 720.02867 Z M 516.35414 660.03621 L 525.92088 673.20371 L 541.4002 668.17417 L 541.4002 651.89826 L 525.92088 646.86872 Z M 741.51733 586.87626 L 751.08407 600.04375 L 766.56339 595.01421 L 766.56339 578.73831 L 751.08407 573.70877 Z M 602.35883 541.66092 L 611.92557 554.82842 L 627.40488 549.79888 L 627.40488 533.52297 L 611.92557 528.49343 Z" stroke-miterlimit="10"/></g></svg>