<svg version="1.1" xmlns="http://www.w3.org/2000/svg" xmlns:xlink="http://www.w3.org/1999/xlink" width="900" height="900"><defs/><g><path fill="#222222" stroke="#cccccc" paint-order="fill stroke markers" d=" M 76.9234 -135.7946 L 76.9234 -102.04196 L 106.15404 -85.16564 L 106.15404 -51.41301 L 125.38469 -40.31019 L 154.61532 -57.1865 L 183.84596 -40.3102 L 203.0766 -51.41301 L 203.0766 -85.16564 L 242.30724 -107.81547 L 281.53788 -85.16564 L 281.53788 -39.866 L 252.30724 -22.98968 L 252.30724 -0.78405 L 281.53788 16.09227 L 281.53788 49.84491 L 300.76853 60.94773 L 329.99917 44.0714 L 359.22981 60.94773 L 388.46045 44.0714 L 427.69109 66.72123 L 427.69109 112.02086 L 388.46045 134.67069 L 349.22981 112.02086 L 349.22981 78.26823 L 329.99917 67.16541 L 300.76853 84.04174 L 271.53788 67.16541 L 252.30724 78.26823 L 252.30724 112.02086 L 223.0766 128.89718 L 223.0766 151.10282 L 252.30724 167.97914 L 252.30724 201.73177 L 271.53788 212.83459 L 300.76853 195.95826 L 329.99917 212.83459 L 349.22981 201.73177 L 349.22981 167.97914 L 388.46045 145.32931 L 427.69109 167.97914 L 427.69109 213.27877 L 388.46045 235.9286 L 359.22981 219.05227 L 329.99917 235.9286 L 300.76853 219.05227 L 281.53788 230.15509 L 281.53788 263.90773 L 252.30724 280.78405 L 252.30724 302.98968 L 281.53788 319.866 L 281.53788 365.16564 L 242.30724 387.81547 L 203.0766 365.16564 L 203.0766 331.41301 L 183.84596 320.3102 L 154.61532 337.1865 L 125.38469 320.31019 L 106.15404 331.41301 L 106.15404 365.16564 L 76.9234 382.04196 L 76.9234 410.0211 L 76.84368 410.73078 L 76.82156 411.44464 L 76.71943 411.83693 L 76.67418 412.23972 L 76.439 412.91403 L 76.25905 413.60519 L 76.07244 413.96502 L 75.93895 414.34775 L 75.56 414.95311 L 75.23121 415.58709 L 74.96942 415.89655 L 74.75434 416.24013 L 74.25055 416.74632 L 73.78929 417.29156 L 73.47457 417.52598 L 73.17942 417.82253 L 72.49606 418.25482 L 71.9234 418.68136 L 37.69276 438.44441 L -1.53788 415.7946 L -1.53788 370.49496 L 37.69276 347.84513 L 66.9234 364.72146 L 86.15404 353.61864 L 86.15404 319.866 L 115.38468 302.98968 L 115.38468 280.78405 L 86.15404 263.90773 L 86.15404 230.15509 L 66.9234 219.05227 L 37.69276 235.9286 L 8.46212 219.05227 L -10.76853 230.1551 L -10.76853 263.90773 L -39.99917 280.78405 L -39.99917 302.98968 L -10.76853 319.866 L -10.76853 365.16564 L -49.99917 387.81547 L -89.22981 365.16564 L -89.22981 319.866 L -59.99917 302.98968 L -59.99917 269.23705 L -30.76853 252.36073 L -30.76853 230.15509 L -59.99917 213.27877 L -59.99917 179.52614 L -79.22981 168.42332 L -108.46045 185.29965 L -147.69109 162.64982 L -147.69109 117.35018 L -108.46045 94.70035 L -79.22981 111.57668 L -59.99917 100.47386 L -59.99917 66.72123 L -30.76853 49.84491 L -30.76853 27.63927 L -59.99917 10.76295 L -59.99917 -22.98968 L -89.22981 -39.866 L -89.22981 -85.16564 L -49.99917 -107.81547 L -10.76853 -85.16564 L -10.76853 -39.866 L -39.99917 -22.98968 L -39.99917 -0.78405 L -10.76853 16.09227 L -10.76853 49.8449 L 8.46212 60.94773 L 37.69276 44.0714 L 66.9234 60.94773 L 86.15404 49.84491 L 86.15404 16.09227 L 115.38468 -0.78405 L 115.38468 -22.98968 L 86.15404 -39.866 L 86.15404 -73.61864 L 66.9234 -84.72146 L 37.69276 -67.84513 L -1.53788 -90.49496 L -1.53788 -135.7946 L 37.69276 -158.44441 Z M 18.46212 382.04196 L 18.46212 404.24759 L 37.69276 415.3504 L 56.9234 404.24759 L 56.9234 382.04196 L 37.69276 370.93914 Z M -69.22981 331.41301 L -69.22981 353.61864 L -49.99917 364.72146 L -30.76853 353.61864 L -30.76853 331.41301 L -49.99918 320.3102 Z M 223.0766 -73.61864 L 223.0766 -39.866 L 183.84596 -17.21619 L 154.61532 -34.09249 L 135.38468 -22.98968 L 135.38468 10.76295 L 106.15404 27.63927 L 106.15404 49.84491 L 135.38468 66.72123 L 135.38468 112.02086 L 96.15404 134.67069 L 56.9234 112.02086 L 56.9234 78.26823 L 37.69276 67.16541 L 8.46212 84.04174 L -20.76853 67.16541 L -39.99917 78.26823 L -39.99917 112.02086 L -79.22981 134.67069 L -108.46045 117.79436 L -127.69109 128.89718 L -127.69109 151.10282 L -108.46045 162.20564 L -79.22981 145.32931 L -39.99917 167.97914 L -39.99917 201.73177 L -20.76853 212.83459 L 8.46212 195.95826 L 37.69276 212.83459 L 56.9234 201.73177 L 56.9234 167.97914 L 96.15404 145.32931 L 135.38468 167.97914 L 135.38468 213.27877 L 106.15404 230.15509 L 106.15404 252.36073 L 135.38468 269.23705 L 135.38468 302.98968 L 154.61532 314.09249 L 183.84596 297.21619 L 223.0766 319.866 L 223.0766 353.61864 L 242.30724 364.72146 L 261.53788 353.61864 L 261.53788 331.41301 L 232.30724 314.53669 L 232.30724 269.23705 L 261.53788 252.36073 L 261.53788 230.15509 L 232.30724 213.27877 L 232.30724 179.52614 L 213.0766 168.42332 L 183.84596 185.29965 L 144.61532 162.64982 L 144.61532 117.35018 L 183.84596 94.70035 L 213.0766 111.57668 L 232.30724 100.47386 L 232.30724 66.72123 L 261.53788 49.84491 L 261.53788 27.63927 L 232.30724 10.76295 L 232.30724 -34.53669 L 261.53788 -51.41301 L 261.53788 -73.61864 L 242.30724 -84.72146 Z M 76.9234 179.52614 L 76.9234 201.73177 L 96.15404 212.83459 L 115.38468 201.73177 L 115.38468 179.52614 L 96.15404 168.42332 Z M 369.22981 179.52614 L 369.22981 201.73177 L 388.46045 212.83459 L 407.69109 201.73177 L 407.69109 179.52614 L 388.46045 168.42332 Z M 164.61532 128.89718 L 164.61532 151.10282 L 183.84596 162.20564 L 203.0766 151.10282 L 203.0766 128.89718 L 183.84596 117.79436 Z M 76.9234 78.26823 L 76.9234 100.47386 L 96.15404 111.57668 L 115.38468 100.47386 L 115.38468 78.26823 L 96.15404 67.16541 Z M 369.22981 78.26823 L 369.22981 100.47386 L 388.46045 111.57668 L 407.69109 100.47386 L 407.69109 78.26823 L 388.46045 67.16541 Z M -69.22981 -73.61864 L -69.22981 -51.41301 L -49.99916 -40.3102 L -30.76853 -51.41301 L -30.76853 -73.61864 L -49.99917 -84.72146 Z M 18.46212 -124.24759 L 18.46212 -102.04196 L 37.69276 -90.93914 L 56.9234 -102.04196 L 56.9234 -124.24759 L 37.69276 -135.3504 Z" stroke-miterlimit="10"/><path fill="#222222" stroke="#cccccc" paint-order="fill stroke markers" d=" M 746.66859 -135.18145 L 746.66859 -81.29986 L 793.33141 -54.35907 L 793.33141 -0.47748 L 829.99424 20.68982 L 876.65707 -6.25099 L 923.31989 20.68982 L 969.98272 -6.25099 L 1026.64554 26.46332 L 1026.64554 91.89191 L 969.98272 124.6062 L 913.31989 91.89191 L 913.31989 38.01032 L 876.65707 16.84302 L 839.99424 38.01032 L 839.99424 80.34491 L 886.65707 107.2857 L 886.65707 172.7143 L 839.99424 199.65509 L 839.99424 241.98967 L 876.65707 263.15698 L 913.31989 241.98968 L 913.31989 188.10809 L 969.98272 155.3938 L 1026.64554 188.10809 L 1026.64554 253.53668 L 969.98272 286.25099 L 923.31989 259.31018 L 876.65707 286.25099 L 829.99424 259.31018 L 793.33141 280.47749 L 793.33141 334.35907 L 746.66859 361.29986 L 746.66859 415.18145 L 690.00576 447.89576 L 633.34293 415.18145 L 633.34293 349.75286 L 690.00576 317.03857 L 736.66859 343.97936 L 773.33141 322.81207 L 773.33141 280.47748 L 736.66859 259.31018 L 690.00576 286.25099 L 638.34293 256.42343 L 637.76819 255.99956 L 637.16103 255.62347 L 636.87238 255.33889 L 636.54616 255.0983 L 636.07976 254.55744 L 635.5712 254.05605 L 635.35288 253.71452 L 635.08817 253.40755 L 634.75339 252.77671 L 634.36874 252.17497 L 634.23163 251.79351 L 634.04162 251.43546 L 633.85516 250.7461 L 633.61358 250.07399 L 633.56792 249.68419 L 633.45869 249.28034 L 633.426 248.47239 L 633.34293 247.76318 L 633.34293 199.65509 L 596.68011 178.4878 L 560.01728 199.65509 L 560.01728 241.98968 L 606.68011 268.93048 L 606.68011 334.35907 L 550.01728 367.07336 L 493.35446 334.35907 L 493.35446 268.93048 L 540.01728 241.98968 L 540.01728 188.10809 L 586.68011 161.1673 L 586.68011 118.8327 L 540.01728 91.89191 L 540.01728 38.01032 L 493.35446 11.06952 L 493.35446 -54.35907 L 550.01728 -87.07336 L 606.68011 -54.35907 L 606.68011 11.06952 L 560.01728 38.01032 L 560.01728 80.34491 L 596.68011 101.5122 L 633.34293 80.34491 L 633.34293 26.46332 L 690.00576 -6.25099 L 736.66859 20.68982 L 773.33141 -0.47748 L 773.33141 -42.81207 L 736.66859 -63.97936 L 690.00576 -37.03857 L 633.34293 -69.75286 L 633.34293 -135.18145 L 690.00576 -167.89576 Z M 653.34293 361.29986 L 653.34293 403.63445 L 690.00576 424.80175 L 726.66859 403.63445 L 726.66859 361.29986 L 690.00576 340.13257 Z M 513.35446 280.47748 L 513.35446 322.81207 L 550.01728 343.97936 L 586.68011 322.81207 L 586.68011 280.47748 L 550.01728 259.31018 Z M 653.34293 38.01032 L 653.34293 80.34491 L 700.00576 107.2857 L 700.00576 172.7143 L 653.34293 199.65509 L 653.34293 241.98968 L 690.00576 263.15698 L 726.66859 241.98968 L 726.66859 188.10809 L 783.33141 155.3938 L 829.99424 182.33459 L 866.65707 161.1673 L 866.65707 118.8327 L 829.99424 97.66541 L 788.33141 121.71945 L 787.677 122.00523 L 787.04767 122.34303 L 786.65684 122.45073 L 786.28542 122.61293 L 785.58387 122.74641 L 784.89533 122.93615 L 784.49041 122.95445 L 784.09219 123.03022 L 783.37844 123.00472 L 782.66503 123.03697 L 782.26615 122.96498 L 781.86104 122.95051 L 781.17074 122.76729 L 780.46795 122.64046 L 780.10758 122.48512 L 779.70318 122.37778 L 778.98709 122.0021 L 778.33141 121.71945 L 726.66859 91.89191 L 726.66859 38.01033 L 690.00576 16.84302 Z M 746.66859 199.65509 L 746.66859 241.98968 L 783.33141 263.15698 L 819.99424 241.98967 L 819.99424 199.65509 L 783.33141 178.4878 Z M 933.31989 199.65509 L 933.31989 241.98967 L 969.98272 263.15698 L 1006.64554 241.98968 L 1006.64554 199.65509 L 969.98272 178.4878 Z M 606.68011 118.8327 L 606.68011 161.1673 L 643.34293 182.33459 L 680.00576 161.1673 L 680.00576 118.8327 L 643.34293 97.66541 Z M 746.66859 38.01032 L 746.66859 80.34491 L 783.33141 101.5122 L 819.99424 80.34491 L 819.99424 38.01032 L 783.33141 16.84302 Z M 933.31989 38.01032 L 933.31989 80.34491 L 969.98272 101.5122 L 1006.64554 80.34491 L 1006.64554 38.01032 L 969.98272 16.84302 Z M 513.35446 -42.81207 L 513.35446 -0.47748 L 550.01728 20.68982 L 586.68011 -0.47748 L 586.68011 -42.81207 L 550.01728 -63.97936 Z M 653.34293 -123.63445 L 653.34293 -81.29986 L 690.00576 -60.13257 L 726.66859 -81.29986 L 726.66859 -123.63445 L 690.00576 -144.80175 Z" stroke-miterlimit="10"/><path fill="#222222" stroke="#cccccc" paint-order="fill stroke markers" d=" M 107.28789 507.62802 L 107.28789 556.94772 L 150 581.60756 L 150 642.47426 L 107.28789 667.13411 L 107.28789 704.9068 L 140 723.79315 L 172.71211 704.90679 L 172.71211 655.58711 L 225.42422 625.15375 L 268.13633 649.81361 L 310.84844 625.15375 L 363.56055 655.58711 L 363.56055 704.90679 L 406.27266 729.56665 L 406.27266 790.43335 L 363.56055 815.09321 L 363.56055 864.41289 L 310.84844 894.84625 L 268.13633 870.18639 L 225.42422 894.84625 L 172.71211 864.41289 L 172.71211 815.09321 L 140 796.20685 L 107.28789 815.0932 L 107.28789 852.86589 L 150 877.52574 L 150 938.39244 L 107.28789 963.05228 L 107.28789 1006.59848 L 107.20817 1007.30816 L 107.18605 1008.02202 L 107.08392 1008.4143 L 107.03867 1008.8171 L 106.80348 1009.49143 L 106.62354 1010.18256 L 106.43693 1010.54239 L 106.30344 1010.92513 L 105.92452 1011.53045 L 105.59571 1012.16447 L 105.33388 1012.47397 L 105.11883 1012.81751 L 104.61506 1013.32367 L 104.15378 1013.86894 L 103.83907 1014.10335 L 103.54391 1014.39991 L 102.86049 1014.83224 L 102.28789 1015.25873 L 54.57578 1042.80534 L 11.86367 1018.14548 L -30.84844 1042.80534 L -83.56055 1012.37198 L -83.56055 963.05228 L -126.27266 938.39244 L -126.27266 877.52574 L -83.56055 852.86589 L -83.56055 803.5462 L -30.84844 773.11284 L 11.86367 797.7727 L 44.57578 778.88634 L 44.57578 741.11365 L 11.86367 722.2273 L -30.84844 746.88716 L -83.56055 716.4538 L -83.56055 667.13411 L -126.27266 642.47426 L -126.27266 581.60756 L -83.56055 556.94772 L -83.56055 507.62802 L -30.84844 477.19466 L 11.86367 501.85452 L 54.57578 477.19466 Z M -20.84844 889.07274 L -20.84844 932.61894 L -20.92816 933.32862 L -20.95028 934.04248 L -21.05241 934.43477 L -21.09766 934.83756 L -21.33284 935.51187 L -21.51279 936.20303 L -21.6994 936.56286 L -21.83289 936.94559 L -22.21184 937.55095 L -22.54063 938.18493 L -22.80242 938.49439 L -23.0175 938.83797 L -23.52129 939.34416 L -23.98255 939.8894 L -24.29726 940.12381 L -24.59242 940.42037 L -25.27584 940.8527 L -25.84844 941.27919 L -63.56055 963.05228 L -63.56055 1000.82498 L -30.84844 1019.71133 L 1.86367 1000.82498 L 1.86367 951.50528 L 44.57578 926.84544 L 44.57578 889.07274 L 11.86367 870.18639 Z M 21.86367 963.05228 L 21.86367 1000.82498 L 54.57578 1019.71133 L 87.28789 1000.82498 L 87.28789 963.05228 L 54.57578 944.16594 Z M -106.27266 889.07274 L -106.27266 926.84544 L -73.56055 945.73178 L -40.84844 926.84544 L -40.84844 889.07274 L -73.56055 870.18639 Z M 64.57578 889.07274 L 64.57578 926.84544 L 97.28789 945.73178 L 130 926.84544 L 130 889.07274 L 97.28789 870.18639 Z M -63.56055 815.0932 L -63.56055 852.86589 L -30.84844 871.75224 L 1.86367 852.86588 L 1.86367 815.0932 L -30.84844 796.20685 Z M 21.86367 815.0932 L 21.86367 852.86588 L 54.57578 871.75224 L 87.28789 852.86589 L 87.28789 815.0932 L 54.57578 796.20685 Z M 192.71211 815.09321 L 192.71211 852.86589 L 225.42422 871.75224 L 258.13633 852.86588 L 258.13633 815.09321 L 225.42422 796.20685 Z M 278.13633 815.09321 L 278.13633 852.86588 L 310.84844 871.75224 L 343.56055 852.86589 L 343.56055 815.09321 L 310.84844 796.20685 Z M 64.57578 741.11365 L 64.57578 778.88634 L 97.28789 797.7727 L 130 778.88635 L 130 741.11365 L 97.28789 722.2273 Z M 150 741.11365 L 150 778.88635 L 182.71211 797.7727 L 215.42422 778.88635 L 215.42422 741.11365 L 182.71211 722.2273 Z M 310.84844 746.88716 L 268.13633 722.2273 L 235.42422 741.11365 L 235.42422 778.88635 L 268.13633 797.7727 L 310.84844 773.11284 L 353.56055 797.7727 L 386.27266 778.88635 L 386.27266 741.11365 L 353.56055 722.2273 Z M -63.56055 667.13411 L -63.56055 704.9068 L -30.84844 723.79315 L 1.86367 704.9068 L 1.86367 667.13412 L -30.84844 648.24776 Z M 21.86367 667.13412 L 21.86367 704.9068 L 54.57578 723.79315 L 87.28789 704.9068 L 87.28789 667.13411 L 54.57578 648.24776 Z M 192.71211 667.13411 L 192.71211 704.90679 L 225.42422 723.79315 L 258.13633 704.90679 L 258.13633 667.13411 L 225.42422 648.24776 Z M 278.13633 667.13411 L 278.13633 704.90679 L 310.84844 723.79315 L 343.56055 704.90679 L 343.56055 667.13411 L 310.84844 648.24776 Z M -106.27266 593.15456 L -106.27266 630.92726 L -73.56055 649.81361 L -40.84844 630.92726 L -40.84844 593.15456 L -73.56055 574.26822 Z M -63.56055 519.17502 L -63.56055 556.94772 L -20.84844 581.60756 L -20.84844 630.92726 L 11.86367 649.81361 L 44.57578 630.92725 L 44.57578 593.15456 L 1.86367 568.49472 L 1.86367 519.17502 L -30.84844 500.28867 Z M 64.57578 593.15456 L 64.57578 630.92725 L 97.28789 649.81361 L 130 630.92726 L 130 593.15456 L 97.28789 574.26822 Z M 21.86367 519.17502 L 21.86367 556.94772 L 54.57578 575.83406 L 87.28789 556.94772 L 87.28789 519.17502 L 54.57578 500.28867 Z" stroke-miterlimit="10"/><path fill="#222222" stroke="#cccccc" paint-order="fill stroke markers" d=" M 807.11537 475.65507 L 807.11537 518.51221 L 844.23075 539.94079 L 844.23075 594.34493 L 807.11537 615.7735 L 807.11537 658.63064 L 770 680.05921 L 770 711.36936 L 797.11537 727.02443 L 824.23075 711.36936 L 824.23075 668.51221 L 861.34612 647.08364 L 861.34612 604.2265 L 908.4615 577.02442 L 945.57687 598.453 L 982.69225 577.02442 L 1029.80762 604.2265 L 1029.80762 658.63064 L 992.69225 680.05921 L 992.69225 722.91636 L 955.57687 744.34493 L 955.57687 775.65506 L 992.69225 797.08364 L 992.69225 839.94079 L 1029.80762 861.36936 L 1029.80762 915.7735 L 982.69225 942.97558 L 945.57687 921.547 L 908.4615 942.97558 L 861.34612 915.7735 L 861.34612 872.91636 L 824.23075 851.48779 L 824.23075 808.63064 L 797.11537 792.97557 L 770 808.63064 L 770 839.94079 L 807.11537 861.36936 L 807.11537 904.2265 L 844.23075 925.65507 L 844.23075 980.05921 L 807.11537 1001.48779 L 807.11537 1038.57143 L 807.03565 1039.28111 L 807.01353 1039.99497 L 806.9114 1040.38725 L 806.86615 1040.79005 L 806.63096 1041.46438 L 806.45102 1042.15551 L 806.26441 1042.51534 L 806.13092 1042.89808 L 805.752 1043.5034 L 805.42319 1044.13742 L 805.16136 1044.44692 L 804.94631 1044.79046 L 804.44254 1045.29662 L 803.98126 1045.84189 L 803.66655 1046.0763 L 803.37139 1046.37286 L 802.68797 1046.80519 L 802.11537 1047.23168 L 760 1071.54701 L 712.88463 1044.34493 L 712.88463 1001.48779 L 675.76925 980.05921 L 675.76925 937.20208 L 648.65388 921.547 L 611.5385 942.97558 L 574.42313 921.547 L 537.30775 942.97558 L 490.19238 915.7735 L 490.19238 861.36936 L 527.30775 839.94078 L 527.30775 797.08364 L 574.42313 769.88156 L 611.5385 791.31014 L 648.65388 769.88156 L 685.76925 791.31014 L 712.88463 775.65507 L 712.88463 744.34493 L 685.76925 728.68986 L 648.65388 750.11844 L 611.5385 728.68986 L 574.42313 750.11844 L 527.30775 722.91636 L 527.30775 680.05921 L 490.19238 658.63064 L 490.19238 604.2265 L 537.30775 577.02442 L 574.42313 598.453 L 611.5385 577.02442 L 648.65388 598.453 L 675.76925 582.79793 L 675.76925 539.94079 L 712.88463 518.51221 L 712.88463 475.65507 L 760 448.45299 Z M 695.76925 937.20208 L 695.76925 968.51221 L 732.88463 989.94079 L 732.88463 1032.79793 L 760 1048.453 L 787.11537 1032.79793 L 787.11537 1001.48779 L 750 980.05921 L 750 937.20207 L 722.88463 921.547 Z M 770 551.48779 L 770 594.34493 L 732.88463 615.7735 L 732.88463 658.63064 L 685.76925 685.83272 L 648.65388 664.40414 L 611.5385 685.83272 L 574.42313 664.40414 L 547.30775 680.05921 L 547.30775 711.36936 L 574.42313 727.02443 L 611.5385 705.59585 L 648.65388 727.02443 L 685.76925 705.59585 L 732.88463 732.79793 L 732.88463 787.20207 L 685.76925 814.40415 L 648.65388 792.97557 L 611.5385 814.40415 L 574.42313 792.97557 L 547.30775 808.63064 L 547.30775 839.94078 L 574.42313 855.59586 L 611.5385 834.16728 L 648.65388 855.59586 L 680.76925 837.05404 L 681.42366 836.76826 L 682.05299 836.43046 L 682.44382 836.32276 L 682.81524 836.16056 L 683.51679 836.02708 L 684.20533 835.83734 L 684.61025 835.81904 L 685.00847 835.74327 L 685.72222 835.76877 L 686.43563 835.73652 L 686.83452 835.80851 L 687.23961 835.82298 L 687.92989 836.00619 L 688.63271 836.13303 L 688.99309 836.28838 L 689.39747 836.39571 L 690.11353 836.77138 L 690.76925 837.05404 L 732.88463 861.36936 L 732.88463 904.2265 L 770 925.65507 L 770 968.51221 L 797.11537 984.16729 L 824.23075 968.51221 L 824.23075 937.20207 L 787.11537 915.7735 L 787.11537 872.91636 L 750 851.48779 L 750 797.08364 L 797.11537 769.88156 L 844.23075 797.08364 L 844.23075 839.94079 L 881.34612 861.36936 L 881.34612 904.2265 L 908.4615 919.88157 L 935.57687 904.2265 L 935.57687 872.91636 L 898.4615 851.48779 L 898.4615 808.63065 L 861.34612 787.20207 L 861.34612 732.79793 L 898.4615 711.36935 L 898.4615 668.51221 L 935.57687 647.08364 L 935.57687 615.7735 L 908.4615 600.11843 L 881.34612 615.7735 L 881.34612 658.63064 L 844.23075 680.05921 L 844.23075 722.91636 L 797.11537 750.11844 L 750 722.91636 L 750 668.51221 L 787.11537 647.08364 L 787.11537 604.2265 L 824.23075 582.79793 L 824.23075 551.48779 L 797.11537 535.83271 Z M 574.42313 878.68987 L 537.30775 857.26129 L 510.19238 872.91636 L 510.19238 904.2265 L 537.30775 919.88157 L 574.42313 898.45299 L 611.5385 919.88157 L 638.65388 904.2265 L 638.65388 872.91636 L 611.5385 857.26129 Z M 658.65388 872.91636 L 658.65388 904.2265 L 685.76925 919.88157 L 712.88463 904.2265 L 712.88463 872.91636 L 685.76925 857.26129 Z M 918.4615 808.63064 L 918.4615 839.94079 L 955.57687 861.36936 L 955.57687 904.22649 L 982.69225 919.88157 L 1009.80762 904.2265 L 1009.80762 872.91636 L 972.69225 851.48779 L 972.69225 808.63064 L 945.57687 792.97557 Z M 881.34612 744.34493 L 881.34612 775.65507 L 908.4615 791.31014 L 935.57687 775.65507 L 935.57687 744.34493 L 908.4615 728.68986 Z M 955.57687 615.77351 L 955.57687 658.63064 L 918.4615 680.05921 L 918.4615 711.36935 L 945.57687 727.02443 L 972.69225 711.36936 L 972.69225 668.51221 L 1009.80762 647.08364 L 1009.80762 615.7735 L 982.69225 600.11843 Z M 574.42313 621.54701 L 537.30775 600.11843 L 510.19238 615.7735 L 510.19238 647.08364 L 537.30775 662.73871 L 574.42313 641.31013 L 611.5385 662.73871 L 638.65388 647.08364 L 638.65388 615.7735 L 611.5385 600.11843 Z M 658.65388 615.7735 L 658.65388 647.08364 L 685.76925 662.73871 L 712.88463 647.08364 L 712.88463 615.7735 L 685.76925 600.11843 Z M 732.88463 487.20207 L 732.88463 530.05921 L 695.76925 551.48779 L 695.76925 582.79793 L 722.88463 598.453 L 750 582.79793 L 750 539.94079 L 787.11537 518.51221 L 787.11537 487.20207 L 760 471.547 Z" stroke-miterlimit="10"/></g></svg>