  0
SECTION
  2
HEADER
  9
$ACADVER
  1
AC1014
  9
$HANDSEED
  5
FFFF
  9
$INSUNITS
 70
     4
  9
$MEASUREMENT
 70
     1
  0
ENDSEC
  0
SECTION
  2
TABLES
  0
TABLE
  2
VPORT
  5
8
330
0
100
AcDbSymbolTable
 70
     4
  0
VPORT
  5
2E
330
8
100
AcDbSymbolTableRecord
100
AcDbViewportTableRecord
  2
*ACTIVE
 70
     0
 10
0.0
 20
0.0
 11
1.0
 21
1.0
 12
210.0
 22
148.5
 13
0.0
 23
0.0
 14
10.0
 24
10.0
 15
10.0
 25
10.0
 16
0.0
 26
0.0
 36
1.0
 17
0.0
 27
0.0
 37
0.0
 40
341.0
 41
1.24
 42
50.0
 43
0.0
 44
0.0
 50
0.0
 51
0.0
 71
     0
 72
   100
 73
     1
 74
     3
 75
     0
 76
     0
 77
     0
 78
     0
  0
ENDTAB
  0
TABLE
  2
LTYPE
  5
5
330
0
100
AcDbSymbolTable
 70
     1
  0
LTYPE
  5
14
330
5
100
AcDbSymbolTableRecord
100
AcDbLinetypeTableRecord
  2
BYBLOCK
 70
     0
  3

 72
    65
 73
     0
 40
0.0
  0
LTYPE
  5
15
330
5
100
AcDbSymbolTableRecord
100
AcDbLinetypeTableRecord
  2
BYLAYER
 70
     0
  3

 72
    65
 73
     0
 40
0.0
  0
LTYPE
  5
16
330
5
100
AcDbSymbolTableRecord
100
AcDbLinetypeTableRecord
  2
CONTINUOUS
 70
     0
  3
Solid line
 72
    65
 73
     0
 40
0.0
  0
ENDTAB
  0
TABLE
  2
LAYER
  5
2
100
AcDbSymbolTable
 70
5
  0
LAYER
  5
50
100
AcDbSymbolTableRecord
100
AcDbLayerTableRecord
  2
0
 70
0
  6
CONTINUOUS
  0
LAYER
  5
51
100
AcDbSymbolTableRecord
100
AcDbLayerTableRecord
  2
Layer_1
 70
0
  6
CONTINUOUS
  0
LAYER
  5
52
100
AcDbSymbolTableRecord
100
AcDbLayerTableRecord
  2
Layer_2
 70
0
  6
CONTINUOUS
  0
LAYER
  5
53
100
AcDbSymbolTableRecord
100
AcDbLayerTableRecord
  2
Layer_3
 70
0
  6
CONTINUOUS
  0
LAYER
  5
54
100
AcDbSymbolTableRecord
100
AcDbLayerTableRecord
  2
Layer_4
 70
0
  6
CONTINUOUS
  0
ENDTAB
  0
TABLE
  2
STYLE
  5
3
330
0
100
AcDbSymbolTable
 70
     1
  0
STYLE
  5
11
330
3
100
AcDbSymbolTableRecord
100
AcDbTextStyleTableRecord
  2
STANDARD
 70
     0
 40
0.0
 41
1.0
 50
0.0
 71
     0
 42
2.5
  3
txt
  4

  0
ENDTAB
  0
TABLE
  2
VIEW
  5
6
330
0
100
AcDbSymbolTable
 70
     0
  0
ENDTAB
  0
TABLE
  2
UCS
  5
7
330
0
100
AcDbSymbolTable
 70
     0
  0
ENDTAB
  0
TABLE
  2
APPID
  5
9
330
0
100
AcDbSymbolTable
 70
     2
  0
APPID
  5
12
330
9
100
AcDbSymbolTableRecord
100
AcDbRegAppTableRecord
  2
ACAD
 70
     0
  0
ENDTAB
  0
TABLE
  2
DIMSTYLE
  5
A
330
0
100
AcDbSymbolTable
 70
     1
  0
DIMSTYLE
105
27
330
A
100
AcDbSymbolTableRecord
100
AcDbDimStyleTableRecord
  2
ISO-25
 70
     0
  3

  4

  5

  6

  7

 40
1.0
 41
2.5
 42
0.625
 43
3.75
 44
1.25
 45
0.0
 46
0.0
 47
0.0
 48
0.0
140
2.5
141
2.5
142
0.0
143
0.03937007874016
144
1.0
145
0.0
146
1.0
147
0.625
 71
     0
 72
     0
 73
     0
 74
     0
 75
     0
 76
     0
 77
     1
 78
     8
170
     0
171
     3
172
     1
173
     0
174
     0
175
     0
176
     0
177
     0
178
     0
270
     2
271
     2
272
     2
273
     2
274
     3
340
11
275
     0
280
     0
281
     0
282
     0
283
     0
284
     8
285
     0
286
     0
287
     3
288
     0
  0
ENDTAB
  0
TABLE
  2
BLOCK_RECORD
  5
1
330
0
100
AcDbSymbolTable
 70
     1
  0
BLOCK_RECORD
  5
1F
330
1
100
AcDbSymbolTableRecord
100
AcDbBlockTableRecord
  2
*MODEL_SPACE
  0
BLOCK_RECORD
  5
1B
330
1
100
AcDbSymbolTableRecord
100
AcDbBlockTableRecord
  2
*PAPER_SPACE
  0
ENDTAB
  0
ENDSEC
  0
SECTION
  2
BLOCKS
  0
BLOCK
  5
20
330
1F
100
AcDbEntity
  8
0
100
AcDbBlockBegin
  2
*MODEL_SPACE
 70
     0
 10
0.0
 20
0.0
 30
0.0
  3
*MODEL_SPACE
  1

  0
ENDBLK
  5
21
330
1F
100
AcDbEntity
  8
0
100
AcDbBlockEnd
  0
BLOCK
  5
1C
330
1B
100
AcDbEntity
 67
     1
  8
0
100
AcDbBlockBegin
  2
*PAPER_SPACE
  1

  0
ENDBLK
  5
1D
330
1B
100
AcDbEntity
 67
     1
  8
0
100
AcDbBlockEnd
  0
ENDSEC
  0
SECTION
  2
ENTITIES
  0
LWPOLYLINE
  5
100
100
AcDbEntity
  8
Layer_1
 62
7
100
AcDbPolyline
 90
374
 70
1
 10
112.127795
 20
172.617955
 30
0.0
 10
112.515616
 20
172.596630
 30
0.0
 10
112.621176
 20
172.558834
 30
0.0
 10
112.691791
 20
172.550368
 30
0.0
 10
120.471446
 20
170.022605
 30
0.0
 10
120.595432
 20
169.961388
 30
0.0
 10
120.725597
 20
169.914784
 30
0.0
 10
120.799310
 20
169.860727
 30
0.0
 10
120.881291
 20
169.820251
 30
0.0
 10
120.982698
 20
169.726242
 30
0.0
 10
121.094185
 20
169.644486
 30
0.0
 10
121.149446
 20
169.571662
 30
0.0
 10
121.216491
 20
169.509509
 30
0.0
 10
121.286905
 20
169.390515
 30
0.0
 10
121.370484
 20
169.280372
 30
0.0
 10
121.384692
 20
169.225256
 30
0.0
 10
121.449259
 20
169.116142
 30
0.0
 10
121.568379
 20
168.512802
 30
0.0
 10
121.568379
 20
161.486175
 30
0.0
 10
127.154165
 20
159.671242
 30
0.0
 10
131.284311
 20
165.355902
 30
0.0
 10
131.436285
 20
165.511760
 30
0.0
 10
131.586023
 20
165.669648
 30
0.0
 10
131.595654
 20
165.675204
 30
0.0
 10
131.603406
 20
165.683168
 30
0.0
 10
131.793493
 20
165.789266
 30
0.0
 10
131.982006
 20
165.897944
 30
0.0
 10
131.992828
 20
165.900589
 30
0.0
 10
132.002538
 20
165.906013
 30
0.0
 10
132.214906
 20
165.953541
 30
0.0
 10
132.426639
 20
166.004018
 30
0.0
 10
132.437725
 20
166.003489
 30
0.0
 10
132.448573
 20
166.005870
 30
0.0
 10
132.495197
 20
166.000287
 30
0.0
 10
132.883018
 20
165.978962
 30
0.0
 10
132.988579
 20
165.941166
 30
0.0
 10
133.059194
 20
165.932699
 30
0.0
 10
140.838849
 20
163.404936
 30
0.0
 10
140.962835
 20
163.343720
 30
0.0
 10
141.093000
 20
163.297116
 30
0.0
 10
141.166712
 20
163.243059
 30
0.0
 10
141.248694
 20
163.202583
 30
0.0
 10
141.350100
 20
163.108574
 30
0.0
 10
141.461588
 20
163.026818
 30
0.0
 10
141.516849
 20
162.953994
 30
0.0
 10
141.583894
 20
162.891840
 30
0.0
 10
141.654308
 20
162.772847
 30
0.0
 10
141.737887
 20
162.662703
 30
0.0
 10
141.752095
 20
162.607588
 30
0.0
 10
141.816661
 20
162.498474
 30
0.0
 10
141.935782
 20
161.895134
 30
0.0
 10
141.935782
 20
154.868510
 30
0.0
 10
147.521568
 20
153.053576
 30
0.0
 10
151.651713
 20
158.738237
 30
0.0
 10
151.803687
 20
158.894095
 30
0.0
 10
151.953426
 20
159.051982
 30
0.0
 10
151.963056
 20
159.057538
 30
0.0
 10
151.970809
 20
159.065502
 30
0.0
 10
152.160896
 20
159.171600
 30
0.0
 10
152.349409
 20
159.280278
 30
0.0
 10
152.360230
 20
159.282924
 30
0.0
 10
152.369941
 20
159.288348
 30
0.0
 10
152.582308
 20
159.335875
 30
0.0
 10
152.794041
 20
159.386352
 30
0.0
 10
152.805127
 20
159.385823
 30
0.0
 10
152.815975
 20
159.388204
 30
0.0
 10
152.862600
 20
159.382621
 30
0.0
 10
153.250421
 20
159.361296
 30
0.0
 10
153.355982
 20
159.323500
 30
0.0
 10
153.426597
 20
159.315034
 30
0.0
 10
161.206251
 20
156.787271
 30
0.0
 10
161.330238
 20
156.726054
 30
0.0
 10
161.460402
 20
156.679450
 30
0.0
 10
161.534115
 20
156.625393
 30
0.0
 10
161.616096
 20
156.584917
 30
0.0
 10
161.717503
 20
156.490908
 30
0.0
 10
161.828991
 20
156.409152
 30
0.0
 10
161.884252
 20
156.336328
 30
0.0
 10
161.951297
 20
156.274175
 30
0.0
 10
162.021710
 20
156.155181
 30
0.0
 10
162.105290
 20
156.045038
 30
0.0
 10
162.119498
 20
155.989922
 30
0.0
 10
162.184064
 20
155.880808
 30
0.0
 10
162.303185
 20
155.277468
 30
0.0
 10
162.303185
 20
148.250844
 30
0.0
 10
168.985904
 20
146.079496
 30
0.0
 10
169.109890
 20
146.018279
 30
0.0
 10
169.240054
 20
145.971675
 30
0.0
 10
169.313767
 20
145.917618
 30
0.0
 10
169.395749
 20
145.877142
 30
0.0
 10
169.497155
 20
145.783133
 30
0.0
 10
169.608643
 20
145.701377
 30
0.0
 10
169.663904
 20
145.628553
 30
0.0
 10
169.730949
 20
145.566400
 30
0.0
 10
169.801363
 20
145.447406
 30
0.0
 10
169.884942
 20
145.337263
 30
0.0
 10
169.899150
 20
145.282147
 30
0.0
 10
169.963716
 20
145.173033
 30
0.0
 10
170.082837
 20
144.569693
 30
0.0
 10
170.082837
 20
136.389679
 30
0.0
 10
170.017035
 20
135.937363
 30
0.0
 10
169.825088
 20
135.522544
 30
0.0
 10
169.522902
 20
135.179610
 30
0.0
 10
169.135533
 20
134.936989
 30
0.0
 10
169.041471
 20
134.910901
 30
0.0
 10
168.985901
 20
134.879884
 30
0.0
 10
162.303182
 20
132.708536
 30
0.0
 10
162.303182
 20
126.835300
 30
0.0
 10
168.985901
 20
124.663951
 30
0.0
 10
169.395746
 20
124.461598
 30
0.0
 10
169.730947
 20
124.150856
 30
0.0
 10
169.963716
 20
123.757489
 30
0.0
 10
170.082837
 20
123.154149
 30
0.0
 10
170.082837
 20
114.974135
 30
0.0
 10
170.017035
 20
114.521819
 30
0.0
 10
169.825088
 20
114.107000
 30
0.0
 10
169.522902
 20
113.764065
 30
0.0
 10
168.985901
 20
113.464332
 30
0.0
 10
162.303182
 20
111.292984
 30
0.0
 10
162.303182
 20
105.419747
 30
0.0
 10
168.985901
 20
103.248399
 30
0.0
 10
169.395746
 20
103.046046
 30
0.0
 10
169.730947
 20
102.735303
 30
0.0
 10
169.963716
 20
102.341937
 30
0.0
 10
170.082837
 20
101.738597
 30
0.0
 10
170.082837
 20
93.558585
 30
0.0
 10
170.017035
 20
93.106269
 30
0.0
 10
169.825088
 20
92.691450
 30
0.0
 10
169.522902
 20
92.348516
 30
0.0
 10
168.985901
 20
92.048782
 30
0.0
 10
162.303182
 20
89.877434
 30
0.0
 10
162.303182
 20
82.850807
 30
0.0
 10
162.237380
 20
82.398492
 30
0.0
 10
162.045433
 20
81.983673
 30
0.0
 10
161.743247
 20
81.640738
 30
0.0
 10
161.206246
 20
81.341005
 30
0.0
 10
153.426591
 20
78.813242
 30
0.0
 10
152.976080
 20
78.736050
 30
0.0
 10
152.522248
 20
78.790419
 30
0.0
 10
152.102719
 20
78.971841
 30
0.0
 10
151.651713
 20
79.389936
 30
0.0
 10
147.521568
 20
85.074596
 30
0.0
 10
141.935782
 20
83.259663
 30
0.0
 10
141.935782
 20
76.233039
 30
0.0
 10
141.869980
 20
75.780723
 30
0.0
 10
141.678033
 20
75.365904
 30
0.0
 10
141.375847
 20
75.022969
 30
0.0
 10
140.838846
 20
74.723236
 30
0.0
 10
133.059191
 20
72.195473
 30
0.0
 10
132.608680
 20
72.118281
 30
0.0
 10
132.154848
 20
72.172650
 30
0.0
 10
131.735319
 20
72.354072
 30
0.0
 10
131.284313
 20
72.772167
 30
0.0
 10
127.154167
 20
78.456827
 30
0.0
 10
121.568382
 20
76.641894
 30
0.0
 10
121.568382
 20
69.615270
 30
0.0
 10
121.502580
 20
69.162954
 30
0.0
 10
121.310633
 20
68.748135
 30
0.0
 10
121.008447
 20
68.405200
 30
0.0
 10
120.471446
 20
68.105467
 30
0.0
 10
112.691791
 20
65.577704
 30
0.0
 10
112.241280
 20
65.500512
 30
0.0
 10
111.787448
 20
65.554881
 30
0.0
 10
111.367919
 20
65.736303
 30
0.0
 10
110.916913
 20
66.154398
 30
0.0
 10
106.786767
 20
71.839058
 30
0.0
 10
100.104046
 20
69.667710
 30
0.0
 10
99.653534
 20
69.590518
 30
0.0
 10
99.199703
 20
69.644887
 30
0.0
 10
98.780174
 20
69.826309
 30
0.0
 10
98.329168
 20
70.244404
 30
0.0
 10
93.521078
 20
76.862173
 30
0.0
 10
93.308448
 20
77.266781
 30
0.0
 10
93.219913
 20
77.715200
 30
0.0
 10
93.262812
 20
78.170259
 30
0.0
 10
93.521078
 20
78.728390
 30
0.0
 10
97.651226
 20
84.413050
 30
0.0
 10
94.199022
 20
89.164605
 30
0.0
 10
87.516301
 20
86.993256
 30
0.0
 10
87.369253
 20
86.968068
 30
0.0
 10
87.225492
 20
86.928185
 30
0.0
 10
87.145072
 20
86.929772
 30
0.0
 10
87.065789
 20
86.916199
 30
0.0
 10
86.917657
 20
86.933953
 30
0.0
 10
86.768493
 20
86.936678
 30
0.0
 10
86.691822
 20
86.960993
 30
0.0
 10
86.611957
 20
86.970571
 30
0.0
 10
86.475030
 20
87.029785
 30
0.0
 10
86.332817
 20
87.074904
 30
0.0
 10
86.266250
 20
87.120071
 30
0.0
 10
86.192429
 20
87.151993
 30
0.0
 10
86.119343
 20
87.219745
 30
0.0
 10
85.954584
 20
87.331534
 30
0.0
 10
85.815887
 20
87.501055
 30
0.0
 10
85.741423
 20
87.570088
 30
0.0
 10
80.933332
 20
94.187857
 30
0.0
 10
80.901032
 20
94.249319
 30
0.0
 10
80.857061
 20
94.303064
 30
0.0
 10
80.795183
 20
94.450739
 30
0.0
 10
80.720703
 20
94.592465
 30
0.0
 10
80.707262
 20
94.660585
 30
0.0
 10
80.680425
 20
94.724630
 30
0.0
 10
80.663201
 20
94.883809
 30
0.0
 10
80.632189
 20
95.040884
 30
0.0
 10
80.638698
 20
95.110017
 30
0.0
 10
80.631210
 20
95.179049
 30
0.0
 10
80.660039
 20
95.336532
 30
0.0
 10
80.675067
 20
95.495943
 30
0.0
 10
80.698483
 20
95.546556
 30
0.0
 10
80.713511
 20
95.628656
 30
0.0
 10
80.920508
 20
96.036172
 30
0.0
 10
80.929372
 20
96.045512
 30
0.0
 10
80.933340
 20
96.054085
 30
0.0
 10
85.063489
 20
101.738745
 30
0.0
 10
81.611285
 20
106.490296
 30
0.0
 10
74.928563
 20
104.318948
 30
0.0
 10
74.781516
 20
104.293760
 30
0.0
 10
74.637754
 20
104.253877
 30
0.0
 10
74.557334
 20
104.255464
 30
0.0
 10
74.478052
 20
104.241891
 30
0.0
 10
74.329920
 20
104.259645
 30
0.0
 10
74.180756
 20
104.262370
 30
0.0
 10
74.104085
 20
104.286685
 30
0.0
 10
74.024220
 20
104.296263
 30
0.0
 10
73.887293
 20
104.355477
 30
0.0
 10
73.745079
 20
104.400596
 30
0.0
 10
73.678513
 20
104.445763
 30
0.0
 10
73.604692
 20
104.477685
 30
0.0
 10
73.531606
 20
104.545437
 30
0.0
 10
73.366847
 20
104.657226
 30
0.0
 10
73.228150
 20
104.826747
 30
0.0
 10
73.153685
 20
104.895780
 30
0.0
 10
68.345595
 20
111.513549
 30
0.0
 10
68.313295
 20
111.575011
 30
0.0
 10
68.269324
 20
111.628756
 30
0.0
 10
68.207446
 20
111.776431
 30
0.0
 10
68.132965
 20
111.918157
 30
0.0
 10
68.119524
 20
111.986277
 30
0.0
 10
68.092688
 20
112.050322
 30
0.0
 10
68.075437
 20
112.209501
 30
0.0
 10
68.044425
 20
112.366576
 30
0.0
 10
68.050934
 20
112.435709
 30
0.0
 10
68.043446
 20
112.504741
 30
0.0
 10
68.072275
 20
112.662224
 30
0.0
 10
68.087304
 20
112.821635
 30
0.0
 10
68.110719
 20
112.872247
 30
0.0
 10
68.125747
 20
112.954348
 30
0.0
 10
68.332744
 20
113.361864
 30
0.0
 10
68.341608
 20
113.371204
 30
0.0
 10
68.345577
 20
113.379777
 30
0.0
 10
72.475725
 20
119.064439
 30
0.0
 10
68.345577
 20
124.749100
 30
0.0
 10
68.313276
 20
124.810562
 30
0.0
 10
68.269305
 20
124.864307
 30
0.0
 10
68.207427
 20
125.011982
 30
0.0
 10
68.132947
 20
125.153708
 30
0.0
 10
68.119506
 20
125.221828
 30
0.0
 10
68.092669
 20
125.285873
 30
0.0
 10
68.075418
 20
125.445052
 30
0.0
 10
68.044407
 20
125.602127
 30
0.0
 10
68.050915
 20
125.671260
 30
0.0
 10
68.043428
 20
125.740292
 30
0.0
 10
68.072257
 20
125.897775
 30
0.0
 10
68.087285
 20
126.057186
 30
0.0
 10
68.110701
 20
126.107799
 30
0.0
 10
68.125729
 20
126.189899
 30
0.0
 10
68.332726
 20
126.597415
 30
0.0
 10
68.341589
 20
126.606755
 30
0.0
 10
68.345558
 20
126.615328
 30
0.0
 10
73.153648
 20
133.233097
 30
0.0
 10
73.305622
 20
133.388955
 30
0.0
 10
73.455361
 20
133.546842
 30
0.0
 10
73.464992
 20
133.552398
 30
0.0
 10
73.472770
 20
133.560362
 30
0.0
 10
73.662858
 20
133.666460
 30
0.0
 10
73.851370
 20
133.775138
 30
0.0
 10
73.862192
 20
133.777784
 30
0.0
 10
73.871902
 20
133.783208
 30
0.0
 10
74.084270
 20
133.830735
 30
0.0
 10
74.296003
 20
133.881212
 30
0.0
 10
74.307089
 20
133.880683
 30
0.0
 10
74.317937
 20
133.883064
 30
0.0
 10
74.364562
 20
133.877481
 30
0.0
 10
74.752383
 20
133.856156
 30
0.0
 10
74.857943
 20
133.818360
 30
0.0
 10
74.928558
 20
133.809893
 30
0.0
 10
81.611280
 20
131.638545
 30
0.0
 10
85.063483
 20
136.390097
 30
0.0
 10
80.933335
 20
142.074760
 30
0.0
 10
80.901035
 20
142.136222
 30
0.0
 10
80.857064
 20
142.189967
 30
0.0
 10
80.795185
 20
142.337642
 30
0.0
 10
80.720705
 20
142.479369
 30
0.0
 10
80.707264
 20
142.547488
 30
0.0
 10
80.680428
 20
142.611533
 30
0.0
 10
80.663203
 20
142.770712
 30
0.0
 10
80.632192
 20
142.927787
 30
0.0
 10
80.638700
 20
142.996920
 30
0.0
 10
80.631213
 20
143.065952
 30
0.0
 10
80.660042
 20
143.223435
 30
0.0
 10
80.675070
 20
143.382847
 30
0.0
 10
80.698486
 20
143.433459
 30
0.0
 10
80.713514
 20
143.515559
 30
0.0
 10
80.920511
 20
143.923075
 30
0.0
 10
80.929374
 20
143.932415
 30
0.0
 10
80.933343
 20
143.940988
 30
0.0
 10
85.741433
 20
150.558757
 30
0.0
 10
85.893407
 20
150.714615
 30
0.0
 10
86.043146
 20
150.872502
 30
0.0
 10
86.052776
 20
150.878058
 30
0.0
 10
86.060555
 20
150.886022
 30
0.0
 10
86.250642
 20
150.992120
 30
0.0
 10
86.439155
 20
151.100798
 30
0.0
 10
86.449977
 20
151.103444
 30
0.0
 10
86.459687
 20
151.108868
 30
0.0
 10
86.672055
 20
151.156395
 30
0.0
 10
86.883788
 20
151.206872
 30
0.0
 10
86.894874
 20
151.206343
 30
0.0
 10
86.905722
 20
151.208724
 30
0.0
 10
86.952347
 20
151.203141
 30
0.0
 10
87.340167
 20
151.181842
 30
0.0
 10
87.445728
 20
151.144047
 30
0.0
 10
87.516343
 20
151.135580
 30
0.0
 10
94.199064
 20
148.964232
 30
0.0
 10
97.651268
 20
153.715784
 30
0.0
 10
93.521120
 20
159.400444
 30
0.0
 10
93.488820
 20
159.461906
 30
0.0
 10
93.444848
 20
159.515651
 30
0.0
 10
93.382970
 20
159.663326
 30
0.0
 10
93.308490
 20
159.805053
 30
0.0
 10
93.295049
 20
159.873172
 30
0.0
 10
93.268213
 20
159.937217
 30
0.0
 10
93.250988
 20
160.096396
 30
0.0
 10
93.219976
 20
160.253471
 30
0.0
 10
93.226485
 20
160.322604
 30
0.0
 10
93.218997
 20
160.391636
 30
0.0
 10
93.247826
 20
160.549119
 30
0.0
 10
93.262855
 20
160.708531
 30
0.0
 10
93.286270
 20
160.759143
 30
0.0
 10
93.301299
 20
160.841243
 30
0.0
 10
93.508296
 20
161.248759
 30
0.0
 10
93.517159
 20
161.258099
 30
0.0
 10
93.521128
 20
161.266672
 30
0.0
 10
98.329218
 20
167.884441
 30
0.0
 10
98.481192
 20
168.040299
 30
0.0
 10
98.630931
 20
168.198186
 30
0.0
 10
98.640561
 20
168.203742
 30
0.0
 10
98.648340
 20
168.211706
 30
0.0
 10
98.838427
 20
168.317804
 30
0.0
 10
99.026940
 20
168.426482
 30
0.0
 10
99.037762
 20
168.429128
 30
0.0
 10
99.047472
 20
168.434552
 30
0.0
 10
99.259840
 20
168.482079
 30
0.0
 10
99.471573
 20
168.532556
 30
0.0
 10
99.482659
 20
168.532027
 30
0.0
 10
99.493507
 20
168.534408
 30
0.0
 10
99.540131
 20
168.528825
 30
0.0
 10
99.927952
 20
168.507500
 30
0.0
 10
100.033513
 20
168.469704
 30
0.0
 10
100.104128
 20
168.461238
 30
0.0
 10
106.786849
 20
166.289889
 30
0.0
 10
110.916995
 20
171.974552
 30
0.0
 10
111.068969
 20
172.130410
 30
0.0
 10
111.218707
 20
172.288298
 30
0.0
 10
111.228338
 20
172.293854
 30
0.0
 10
111.236091
 20
172.301818
 30
0.0
 10
111.426215
 20
172.407937
 30
0.0
 10
111.614691
 20
172.516594
 30
0.0
 10
111.625512
 20
172.519239
 30
0.0
 10
111.635223
 20
172.524663
 30
0.0
 10
111.847614
 20
172.572196
 30
0.0
 10
112.059326
 20
172.622668
 30
0.0
 10
112.070412
 20
172.622139
 30
0.0
 10
112.081260
 20
172.624520
 30
0.0
  0
LWPOLYLINE
  5
101
100
AcDbEntity
  8
Layer_1
 62
7
100
AcDbPolyline
 90
332
 70
1
 10
108.677451
 20
163.489706
 30
0.0
 10
108.545590
 20
163.354475
 30
0.0
 10
108.420702
 20
163.212746
 30
0.0
 10
108.386515
 20
163.191341
 30
0.0
 10
108.358353
 20
163.162459
 30
0.0
 10
108.193419
 20
163.070400
 30
0.0
 10
108.033333
 20
162.970133
 30
0.0
 10
107.994458
 20
162.959338
 30
0.0
 10
107.959239
 20
162.939680
 30
0.0
 10
107.774915
 20
162.898429
 30
0.0
 10
107.592892
 20
162.847930
 30
0.0
 10
107.552564
 20
162.848724
 30
0.0
 10
107.513194
 20
162.839913
 30
0.0
 10
107.419291
 20
162.851158
 30
0.0
 10
107.135893
 20
162.856344
 30
0.0
 10
106.990227
 20
162.902559
 30
0.0
 10
106.902573
 20
162.913063
 30
0.0
 10
100.219851
 20
165.084411
 30
0.0
 10
96.767647
 20
160.332859
 30
0.0
 10
100.897796
 20
154.648199
 30
0.0
 10
100.943582
 20
154.561072
 30
0.0
 10
101.003084
 20
154.482660
 30
0.0
 10
101.020705
 20
154.414321
 30
0.0
 10
101.110428
 20
154.243590
 30
0.0
 10
101.198963
 20
153.795172
 30
0.0
 10
101.193989
 20
153.742274
 30
0.0
 10
101.201000
 20
153.715090
 30
0.0
 10
101.173809
 20
153.528178
 30
0.0
 10
101.156082
 20
153.340112
 30
0.0
 10
101.142033
 20
153.309759
 30
0.0
 10
101.135206
 20
153.262775
 30
0.0
 10
100.943259
 20
152.847955
 30
0.0
 10
100.911864
 20
152.812327
 30
0.0
 10
100.897814
 20
152.781982
 30
0.0
 10
96.767666
 20
147.097321
 30
0.0
 10
100.594628
 20
141.829962
 30
0.0
 10
107.883719
 20
139.461592
 30
0.0
 10
108.293564
 20
139.259239
 30
0.0
 10
108.628765
 20
138.948496
 30
0.0
 10
108.861535
 20
138.555129
 30
0.0
 10
108.980655
 20
137.951789
 30
0.0
 10
108.980655
 20
129.771775
 30
0.0
 10
108.914853
 20
129.319459
 30
0.0
 10
108.722906
 20
128.904640
 30
0.0
 10
108.420720
 20
128.561706
 30
0.0
 10
107.883719
 20
128.261973
 30
0.0
 10
100.104064
 20
125.734210
 30
0.0
 10
99.653553
 20
125.657017
 30
0.0
 10
99.199721
 20
125.711387
 30
0.0
 10
98.780193
 20
125.892809
 30
0.0
 10
98.329186
 20
126.310903
 30
0.0
 10
93.824282
 20
132.511371
 30
0.0
 10
87.632125
 20
134.523327
 30
0.0
 10
83.501979
 20
128.838666
 30
0.0
 10
83.370118
 20
128.703435
 30
0.0
 10
83.245230
 20
128.561706
 30
0.0
 10
83.211043
 20
128.540301
 30
0.0
 10
83.182881
 20
128.511419
 30
0.0
 10
83.017955
 20
128.419365
 30
0.0
 10
82.857861
 20
128.319093
 30
0.0
 10
82.818981
 20
128.308298
 30
0.0
 10
82.783765
 20
128.288640
 30
0.0
 10
82.599448
 20
128.247391
 30
0.0
 10
82.417420
 20
128.196890
 30
0.0
 10
82.377090
 20
128.197684
 30
0.0
 10
82.337722
 20
128.188873
 30
0.0
 10
82.243819
 20
128.200118
 30
0.0
 10
81.960421
 20
128.205304
 30
0.0
 10
81.814755
 20
128.251519
 30
0.0
 10
81.727101
 20
128.262023
 30
0.0
 10
75.044379
 20
130.433371
 30
0.0
 10
71.592175
 20
125.681819
 30
0.0
 10
75.722324
 20
119.997159
 30
0.0
 10
75.768110
 20
119.910032
 30
0.0
 10
75.827612
 20
119.831620
 30
0.0
 10
75.845233
 20
119.763281
 30
0.0
 10
75.934956
 20
119.592550
 30
0.0
 10
76.023491
 20
119.144132
 30
0.0
 10
76.018517
 20
119.091234
 30
0.0
 10
76.025528
 20
119.064050
 30
0.0
 10
75.998337
 20
118.877138
 30
0.0
 10
75.980610
 20
118.689072
 30
0.0
 10
75.966561
 20
118.658719
 30
0.0
 10
75.959735
 20
118.611735
 30
0.0
 10
75.767787
 20
118.196916
 30
0.0
 10
75.736392
 20
118.161287
 30
0.0
 10
75.722342
 20
118.130942
 30
0.0
 10
71.592194
 20
112.446279
 30
0.0
 10
75.044398
 20
107.694727
 30
0.0
 10
81.727119
 20
109.866075
 30
0.0
 10
81.902551
 20
109.896135
 30
0.0
 10
82.075684
 20
109.937410
 30
0.0
 10
82.126989
 20
109.934579
 30
0.0
 10
82.177631
 20
109.943257
 30
0.0
 10
82.354357
 20
109.922090
 30
0.0
 10
82.532072
 20
109.912327
 30
0.0
 10
82.580446
 20
109.894997
 30
0.0
 10
82.631463
 20
109.888885
 30
0.0
 10
82.794827
 20
109.818239
 30
0.0
 10
82.962398
 20
109.758242
 30
0.0
 10
83.003832
 20
109.727857
 30
0.0
 10
83.050991
 20
109.707458
 30
0.0
 10
83.124249
 20
109.639547
 30
0.0
 10
83.330987
 20
109.487938
 30
0.0
 10
83.433452
 20
109.352906
 30
0.0
 10
83.501997
 20
109.289363
 30
0.0
 10
87.632143
 20
103.604703
 30
0.0
 10
93.824301
 20
105.616658
 30
0.0
 10
98.329205
 20
111.817126
 30
0.0
 10
98.648303
 20
112.144381
 30
0.0
 10
99.047419
 20
112.367150
 30
0.0
 10
99.493462
 20
112.466972
 30
0.0
 10
100.104083
 20
112.393820
 30
0.0
 10
107.883738
 20
109.866057
 30
0.0
 10
108.293583
 20
109.663704
 30
0.0
 10
108.628783
 20
109.352961
 30
0.0
 10
108.861553
 20
108.959594
 30
0.0
 10
108.980674
 20
108.356254
 30
0.0
 10
108.980674
 20
100.176243
 30
0.0
 10
108.914872
 20
99.723927
 30
0.0
 10
108.722925
 20
99.309108
 30
0.0
 10
108.420739
 20
98.966173
 30
0.0
 10
107.883738
 20
98.666440
 30
0.0
 10
100.594647
 20
96.298070
 30
0.0
 10
96.767684
 20
91.030711
 30
0.0
 10
100.897833
 20
85.346048
 30
0.0
 10
101.110463
 20
84.941439
 30
0.0
 10
101.198998
 20
84.493021
 30
0.0
 10
101.156098
 20
84.037961
 30
0.0
 10
100.897833
 20
83.479831
 30
0.0
 10
96.767684
 20
77.795170
 30
0.0
 10
100.219888
 20
73.043619
 30
0.0
 10
106.902610
 20
75.214967
 30
0.0
 10
107.353121
 20
75.292159
 30
0.0
 10
107.806953
 20
75.237790
 30
0.0
 10
108.226482
 20
75.056368
 30
0.0
 10
108.677488
 20
74.638273
 30
0.0
 10
112.807634
 20
68.953613
 30
0.0
 10
118.393419
 20
70.768546
 30
0.0
 10
118.393419
 20
77.795170
 30
0.0
 10
118.459221
 20
78.247486
 30
0.0
 10
118.651168
 20
78.662305
 30
0.0
 10
118.953354
 20
79.005240
 30
0.0
 10
119.490355
 20
79.304973
 30
0.0
 10
126.173074
 20
81.476321
 30
0.0
 10
126.173074
 20
87.987140
 30
0.0
 10
121.668170
 20
94.187608
 30
0.0
 10
121.455540
 20
94.592217
 30
0.0
 10
121.367005
 20
95.040635
 30
0.0
 10
121.409905
 20
95.495695
 30
0.0
 10
121.668170
 20
96.053825
 30
0.0
 10
126.476260
 20
102.671594
 30
0.0
 10
126.795358
 20
102.998849
 30
0.0
 10
127.194474
 20
103.221618
 30
0.0
 10
127.640517
 20
103.321440
 30
0.0
 10
128.251138
 20
103.248288
 30
0.0
 10
136.030793
 20
100.720525
 30
0.0
 10
136.440638
 20
100.518172
 30
0.0
 10
136.775838
 20
100.207429
 30
0.0
 10
137.008608
 20
99.814063
 30
0.0
 10
137.127729
 20
99.210723
 30
0.0
 10
137.127729
 20
91.546519
 30
0.0
 10
140.954689
 20
86.279157
 30
0.0
 10
147.637410
 20
88.450505
 30
0.0
 10
148.087921
 20
88.527697
 30
0.0
 10
148.541753
 20
88.473328
 30
0.0
 10
148.961282
 20
88.291905
 30
0.0
 10
149.412288
 20
87.873811
 30
0.0
 10
153.542434
 20
82.189151
 30
0.0
 10
159.128219
 20
84.004084
 30
0.0
 10
159.128219
 20
91.030676
 30
0.0
 10
159.194021
 20
91.482992
 30
0.0
 10
159.385968
 20
91.897811
 30
0.0
 10
159.688154
 20
92.240746
 30
0.0
 10
160.225155
 20
92.540479
 30
0.0
 10
166.907874
 20
94.711827
 30
0.0
 10
166.907874
 20
100.585064
 30
0.0
 10
160.225155
 20
102.756412
 30
0.0
 10
159.815310
 20
102.958765
 30
0.0
 10
159.480110
 20
103.269508
 30
0.0
 10
159.247340
 20
103.662874
 30
0.0
 10
159.128219
 20
104.266214
 30
0.0
 10
159.128219
 20
111.292838
 30
0.0
 10
152.936064
 20
113.304794
 30
0.0
 10
145.646976
 20
110.936424
 30
0.0
 10
145.499929
 20
110.911235
 30
0.0
 10
145.356167
 20
110.871352
 30
0.0
 10
145.275747
 20
110.872939
 30
0.0
 10
145.196465
 20
110.859366
 30
0.0
 10
145.048332
 20
110.877120
 30
0.0
 10
144.899168
 20
110.879845
 30
0.0
 10
144.822497
 20
110.904160
 30
0.0
 10
144.742633
 20
110.913738
 30
0.0
 10
144.605706
 20
110.972952
 30
0.0
 10
144.463492
 20
111.018071
 30
0.0
 10
144.396926
 20
111.063238
 30
0.0
 10
144.323104
 20
111.095160
 30
0.0
 10
144.250018
 20
111.162912
 30
0.0
 10
144.085260
 20
111.274701
 30
0.0
 10
143.946563
 20
111.444222
 30
0.0
 10
143.872098
 20
111.513255
 30
0.0
 10
139.064005
 20
118.131026
 30
0.0
 10
139.031705
 20
118.192489
 30
0.0
 10
138.987734
 20
118.246234
 30
0.0
 10
138.925856
 20
118.393909
 30
0.0
 10
138.851375
 20
118.535635
 30
0.0
 10
138.837935
 20
118.603755
 30
0.0
 10
138.811098
 20
118.667800
 30
0.0
 10
138.793847
 20
118.826979
 30
0.0
 10
138.762835
 20
118.984054
 30
0.0
 10
138.769344
 20
119.053187
 30
0.0
 10
138.761856
 20
119.122219
 30
0.0
 10
138.790685
 20
119.279702
 30
0.0
 10
138.805714
 20
119.439113
 30
0.0
 10
138.829129
 20
119.489725
 30
0.0
 10
138.844158
 20
119.571826
 30
0.0
 10
139.051154
 20
119.979342
 30
0.0
 10
139.060018
 20
119.988682
 30
0.0
 10
139.063987
 20
119.997254
 30
0.0
 10
143.872080
 20
126.615023
 30
0.0
 10
144.024054
 20
126.770881
 30
0.0
 10
144.173792
 20
126.928769
 30
0.0
 10
144.183423
 20
126.934325
 30
0.0
 10
144.191175
 20
126.942289
 30
0.0
 10
144.381331
 20
127.048427
 30
0.0
 10
144.569775
 20
127.157065
 30
0.0
 10
144.580570
 20
127.159710
 30
0.0
 10
144.590281
 20
127.165134
 30
0.0
 10
144.802744
 20
127.212680
 30
0.0
 10
145.014381
 20
127.263136
 30
0.0
 10
145.025467
 20
127.262607
 30
0.0
 10
145.036315
 20
127.264988
 30
0.0
 10
145.082940
 20
127.259405
 30
0.0
 10
145.470761
 20
127.238106
 30
0.0
 10
145.576322
 20
127.200311
 30
0.0
 10
145.646936
 20
127.191844
 30
0.0
 10
152.936025
 20
124.823474
 30
0.0
 10
159.128180
 20
126.835429
 30
0.0
 10
159.128180
 20
133.862053
 30
0.0
 10
159.132386
 20
133.891031
 30
0.0
 10
159.129238
 20
133.920137
 30
0.0
 10
159.165213
 20
134.116654
 30
0.0
 10
159.193976
 20
134.314369
 30
0.0
 10
159.206279
 20
134.340941
 30
0.0
 10
159.211544
 20
134.369744
 30
0.0
 10
159.302021
 20
134.547864
 30
0.0
 10
159.385923
 20
134.729188
 30
0.0
 10
159.405291
 20
134.751149
 30
0.0
 10
159.418547
 20
134.777263
 30
0.0
 10
159.556008
 20
134.922207
 30
0.0
 10
159.688115
 20
135.072125
 30
0.0
 10
159.709519
 20
135.084084
 30
0.0
 10
159.733067
 20
135.108929
 30
0.0
 10
160.129053
 20
135.337214
 30
0.0
 10
160.188315
 20
135.351343
 30
0.0
 10
160.225105
 20
135.371874
 30
0.0
 10
166.907824
 20
137.543223
 30
0.0
 10
166.907824
 20
143.416462
 30
0.0
 10
160.225105
 20
145.587810
 30
0.0
 10
160.127016
 20
145.636239
 30
0.0
 10
160.022749
 20
145.669320
 30
0.0
 10
159.923168
 20
145.736887
 30
0.0
 10
159.815260
 20
145.790163
 30
0.0
 10
159.735041
 20
145.864530
 30
0.0
 10
159.644517
 20
145.925950
 30
0.0
 10
159.568309
 20
146.019097
 30
0.0
 10
159.480059
 20
146.100906
 30
0.0
 10
159.424354
 20
146.195047
 30
0.0
 10
159.355084
 20
146.279711
 30
0.0
 10
159.308578
 20
146.390701
 30
0.0
 10
159.247290
 20
146.494272
 30
0.0
 10
159.231362
 20
146.575005
 30
0.0
 10
159.178450
 20
146.701277
 30
0.0
 10
159.144465
 20
147.015129
 30
0.0
 10
159.128166
 20
147.097612
 30
0.0
 10
159.128166
 20
154.124237
 30
0.0
 10
153.542381
 20
155.939170
 30
0.0
 10
149.412235
 20
150.254510
 30
0.0
 10
149.280375
 20
150.119278
 30
0.0
 10
149.155486
 20
149.977549
 30
0.0
 10
149.121299
 20
149.956144
 30
0.0
 10
149.093137
 20
149.927262
 30
0.0
 10
148.928212
 20
149.835209
 30
0.0
 10
148.768117
 20
149.734937
 30
0.0
 10
148.729237
 20
149.724142
 30
0.0
 10
148.694021
 20
149.704483
 30
0.0
 10
148.509704
 20
149.663235
 30
0.0
 10
148.327676
 20
149.612734
 30
0.0
 10
148.287346
 20
149.613527
 30
0.0
 10
148.247978
 20
149.604717
 30
0.0
 10
148.154075
 20
149.615962
 30
0.0
 10
147.870677
 20
149.621147
 30
0.0
 10
147.725011
 20
149.667362
 30
0.0
 10
147.637357
 20
149.677866
 30
0.0
 10
140.954636
 20
151.849214
 30
0.0
 10
137.127676
 20
146.581855
 30
0.0
 10
137.127676
 20
138.917648
 30
0.0
 10
137.061874
 20
138.465332
 30
0.0
 10
136.869927
 20
138.050513
 30
0.0
 10
136.567741
 20
137.707579
 30
0.0
 10
136.030740
 20
137.407846
 30
0.0
 10
128.251085
 20
134.880083
 30
0.0
 10
127.800574
 20
134.802891
 30
0.0
 10
127.346742
 20
134.857260
 30
0.0
 10
126.927213
 20
135.038682
 30
0.0
 10
126.476207
 20
135.456777
 30
0.0
 10
121.668117
 20
142.074548
 30
0.0
 10
121.455487
 20
142.479157
 30
0.0
 10
121.366952
 20
142.927575
 30
0.0
 10
121.409852
 20
143.382635
 30
0.0
 10
121.668117
 20
143.940765
 30
0.0
 10
126.173021
 20
150.141234
 30
0.0
 10
126.173021
 20
156.651706
 30
0.0
 10
119.490302
 20
158.823054
 30
0.0
 10
119.392213
 20
158.871483
 30
0.0
 10
119.287946
 20
158.904564
 30
0.0
 10
119.188365
 20
158.972131
 30
0.0
 10
119.080457
 20
159.025407
 30
0.0
 10
119.000238
 20
159.099774
 30
0.0
 10
118.909714
 20
159.161194
 30
0.0
 10
118.833506
 20
159.254341
 30
0.0
 10
118.745257
 20
159.336150
 30
0.0
 10
118.689551
 20
159.430291
 30
0.0
 10
118.620281
 20
159.514955
 30
0.0
 10
118.573775
 20
159.625945
 30
0.0
 10
118.512487
 20
159.729517
 30
0.0
 10
118.496559
 20
159.810249
 30
0.0
 10
118.443648
 20
159.936521
 30
0.0
 10
118.409662
 20
160.250373
 30
0.0
 10
118.393390
 20
160.332857
 30
0.0
 10
118.393390
 20
167.359436
 30
0.0
 10
112.807604
 20
169.174369
 30
0.0
  0
LWPOLYLINE
  5
102
100
AcDbEntity
  8
Layer_1
 62
7
100
AcDbPolyline
 90
6
 70
1
 10
129.348037
 20
87.349478
 30
0.0
 10
129.348037
 20
80.838659
 30
0.0
 10
133.174997
 20
75.571300
 30
0.0
 10
138.760782
 20
77.386233
 30
0.0
 10
138.760782
 20
83.897049
 30
0.0
 10
134.933822
 20
89.164411
 30
0.0
  0
LWPOLYLINE
  5
103
100
AcDbEntity
  8
Layer_1
 62
7
100
AcDbPolyline
 90
6
 70
1
 10
88.006865
 20
100.387994
 30
0.0
 10
84.179902
 20
95.120635
 30
0.0
 10
87.632106
 20
90.369083
 30
0.0
 10
93.824264
 20
92.381038
 30
0.0
 10
97.651226
 20
97.648398
 30
0.0
 10
94.199022
 20
102.399949
 30
0.0
  0
LWPOLYLINE
  5
104
100
AcDbEntity
  8
Layer_1
 62
7
100
AcDbPolyline
 90
5
 70
1
 10
124.914702
 20
95.120635
 30
0.0
 10
128.366906
 20
90.369083
 30
0.0
 10
133.952692
 20
92.184016
 30
0.0
 10
133.952692
 20
98.057253
 30
0.0
 10
128.366906
 20
99.872186
 30
0.0
  0
LWPOLYLINE
  5
105
100
AcDbEntity
  8
Layer_1
 62
7
100
AcDbPolyline
 90
5
 70
1
 10
96.767647
 20
104.266167
 30
0.0
 10
100.219851
 20
99.514615
 30
0.0
 10
105.805637
 20
101.329548
 30
0.0
 10
105.805637
 20
107.202785
 30
0.0
 10
100.219851
 20
109.017718
 30
0.0
  0
LWPOLYLINE
  5
106
100
AcDbEntity
  8
Layer_1
 62
7
100
AcDbPolyline
 90
6
 70
1
 10
154.523527
 20
122.000568
 30
0.0
 10
154.523527
 20
116.127329
 30
0.0
 10
160.715682
 20
114.115374
 30
0.0
 10
166.907837
 20
116.127329
 30
0.0
 10
166.907837
 20
122.000568
 30
0.0
 10
160.715682
 20
124.012523
 30
0.0
  0
LWPOLYLINE
  5
107
100
AcDbEntity
  8
Layer_1
 62
7
100
AcDbPolyline
 90
5
 70
1
 10
142.310541
 20
119.063950
 30
0.0
 10
145.762745
 20
114.312396
 30
0.0
 10
151.348527
 20
116.127329
 30
0.0
 10
151.348527
 20
122.000568
 30
0.0
 10
145.762745
 20
123.815501
 30
0.0
  0
LWPOLYLINE
  5
108
100
AcDbEntity
  8
Layer_1
 62
7
100
AcDbPolyline
 90
5
 70
1
 10
96.767647
 20
133.861731
 30
0.0
 10
100.219851
 20
129.110179
 30
0.0
 10
105.805637
 20
130.925112
 30
0.0
 10
105.805637
 20
136.798352
 30
0.0
 10
100.219851
 20
138.613285
 30
0.0
  0
LWPOLYLINE
  5
109
100
AcDbEntity
  8
Layer_1
 62
7
100
AcDbPolyline
 90
6
 70
1
 10
84.179902
 20
143.007265
 30
0.0
 10
88.006865
 20
137.739903
 30
0.0
 10
94.199022
 20
135.727948
 30
0.0
 10
97.651226
 20
140.479502
 30
0.0
 10
93.824264
 20
145.746862
 30
0.0
 10
87.632106
 20
147.758817
 30
0.0
  0
LWPOLYLINE
  5
10a
100
AcDbEntity
  8
Layer_1
 62
7
100
AcDbPolyline
 90
5
 70
1
 10
124.914702
 20
143.007265
 30
0.0
 10
128.366906
 20
138.255711
 30
0.0
 10
133.952692
 20
140.070644
 30
0.0
 10
133.952692
 20
145.943884
 30
0.0
 10
128.366906
 20
147.758817
 30
0.0
  0
LWPOLYLINE
  5
10b
100
AcDbEntity
  8
Layer_1
 62
7
100
AcDbPolyline
 90
6
 70
1
 10
129.348037
 20
157.289238
 30
0.0
 10
129.348037
 20
150.778422
 30
0.0
 10
134.933822
 20
148.963488
 30
0.0
 10
138.760782
 20
154.230848
 30
0.0
 10
138.760782
 20
160.741664
 30
0.0
 10
133.174997
 20
162.556597
 30
0.0
  0
ENDSEC
  0
SECTION
  2
OBJECTS
  0
DICTIONARY
  5
C
330
0
100
AcDbDictionary
  3
ACAD_GROUP
350
D
  3
ACAD_MLINESTYLE
350
17
  0
DICTIONARY
  5
D
330
C
100
AcDbDictionary
  0
DICTIONARY
  5
1A
330
C
100
AcDbDictionary
  0
DICTIONARY
  5
17
330
C
100
AcDbDictionary
  3
STANDARD
350
18
  0
DICTIONARY
  5
19
330
C
100
AcDbDictionary
  0
ENDSEC
  0
EOF
