<?xml version="1.0" encoding="UTF-8" standalone="no"?>
<svg
   version="1.1"
   width="238.125mm"
   height="238.125mm"
   id="svg4"
   sodipodi:docname="quad03.svg"
   inkscape:version="1.3 (0e150ed, 2023-07-21)"
   xmlns:inkscape="http://www.inkscape.org/namespaces/inkscape"
   xmlns:sodipodi="http://sodipodi.sourceforge.net/DTD/sodipodi-0.dtd"
   xmlns="http://www.w3.org/2000/svg"
   xmlns:svg="http://www.w3.org/2000/svg">
  <sodipodi:namedview
     id="namedview4"
     pagecolor="#505050"
     bordercolor="#eeeeee"
     borderopacity="1"
     inkscape:showpageshadow="0"
     inkscape:pageopacity="0"
     inkscape:pagecheckerboard="0"
     inkscape:deskcolor="#d1d1d1"
     inkscape:zoom="0.89333333"
     inkscape:cx="450"
     inkscape:cy="450"
     inkscape:window-width="1920"
     inkscape:window-height="1044"
     inkscape:window-x="1920"
     inkscape:window-y="0"
     inkscape:window-maximized="1"
     inkscape:current-layer="layer12" />
  <defs
     id="defs1" />
  <g
     inkscape:groupmode="layer"
     id="layer9"
     inkscape:label="Layer 1"
     style="display:none">
    <path
       fill="#222222"
       stroke="#cccccc"
       paint-order="fill stroke markers"
       d="m 459.46216,253.99647 1.58562,0.68569 1.70459,1.5802 18.49493,25.45608 0.80364,1.52922 0.34226,1.99749 v 29.51594 l 14.78672,20.35217 23.92543,-7.77385 17.34902,-23.87888 1.20604,-1.23687 1.79396,-0.94276 29.92542,-9.72336 1.70272,-0.29175 1.71527,0.20549 1.58562,0.68569 1.70459,1.5802 17.34903,23.87888 28.07131,9.12093 0.46861,0.23137 0.49196,0.17614 0.2786,0.20431 0.30985,0.15298 0.38327,0.35531 0.42137,0.309 0.20886,0.27524 0.2534,0.23491 0.26613,0.44974 0.31589,0.41629 0.0537,0.20831 0.24403,0.4124 0.45022,2.28034 v 29.51594 l 17.34903,23.87888 0.80364,1.52922 0.33462,1.69482 -0.16214,1.71991 -0.97612,2.10947 -18.49493,25.45608 -1.20604,1.23687 -1.79396,0.94276 -28.07131,9.12093 -14.78672,20.35217 14.78672,20.35217 28.07131,9.12093 1.54902,0.7648 1.45098,1.41483 18.49493,25.45608 0.80364,1.52922 0.33462,1.69482 -0.16214,1.71991 -0.97612,2.10947 -17.34903,23.87888 v 29.51594 l -0.2487,1.70954 -0.72547,1.56782 -1.14212,1.29613 -1.46407,0.91699 -0.35551,0.0986 -0.21003,0.11723 -28.07131,9.12093 -17.34903,23.87888 -0.49837,0.51111 -0.47202,0.53567 -0.12921,0.0809 -0.10644,0.10916 -0.6234,0.34796 -0.60502,0.37894 -0.14691,0.0408 -0.13314,0.0743 -0.69674,0.15592 -0.68787,0.19084 -0.15242,-0.003 -0.1488,0.0333 -0.35491,-0.0425 -1.07111,-0.0196 -0.55055,-0.17467 -0.33129,-0.0397 -29.92542,-9.72336 -0.37073,-0.18304 -0.39408,-0.12503 -0.37637,-0.25537 -0.40784,-0.20136 -0.25407,-0.24774 -0.39126,-0.26547 -0.46948,-0.57383 -0.33617,-0.32779 -17.34902,-23.87888 -23.92543,-7.77385 -14.78672,20.35218 v 29.51593 l -0.2487,1.70954 -0.8972,1.81717 -18.49493,25.45608 -1.20604,1.23687 -1.50847,0.84197 -1.68583,0.37727 -2.30786,-0.27648 -28.07131,-9.12092 -28.07132,9.12092 -0.55577,0.0952 -0.54335,0.15074 -0.30395,-0.006 -0.29965,0.0513 -0.55987,-0.0671 -0.56377,-0.0103 -0.28978,-0.0919 -0.30185,-0.0362 -0.51752,-0.2238 -0.5375,-0.17053 -0.25159,-0.17071 -0.27901,-0.12065 -0.27623,-0.25607 -0.62271,-0.42251 -0.52421,-0.64071 -0.28144,-0.26091 -17.34903,-23.87888 -28.07132,-9.12093 -0.37073,-0.18304 -0.39408,-0.12503 -0.37637,-0.25537 -0.40784,-0.20136 -0.30319,-0.28107 -0.34214,-0.23214 -0.28803,-0.35205 -0.33354,-0.3092 -0.21054,-0.35581 -0.26181,-0.31999 -0.17577,-0.41949 -0.23164,-0.39145 -0.0602,-0.30513 -0.19998,-0.47725 -0.12845,-1.18621 -0.0616,-0.31175 v -31.46544 l 0.0159,-0.10952 -0.0119,-0.11001 0.13597,-0.74274 0.10871,-0.74727 0.0446,-0.0904 0.0218,-0.11888 0.78235,-1.54022 0.0314,-0.0331 0.0171,-0.0346 17.34903,-23.87888 v -25.15668 l -23.92542,-7.77385 -28.07132,9.12093 -1.70272,0.29175 -2.00548,-0.29175 -29.92542,-9.72336 -1.54902,-0.7648 -1.2669,-1.17446 -0.87976,-1.48674 -0.45022,-2.28034 v -29.51516 l -17.34902,-23.87888 -0.80364,-1.52923 -0.33462,-1.69481 0.16214,-1.71991 0.97612,-2.10947 17.34902,-23.87888 v -29.51594 l 0.0159,-0.10952 -0.0119,-0.11001 0.13597,-0.74274 0.10871,-0.74727 0.0465,-0.10043 0.0199,-0.10886 0.34196,-0.67321 0.31711,-0.68532 0.0732,-0.083 0.0501,-0.0987 0.51954,-0.54782 0.4993,-0.56662 0.0809,-0.0452 0.089,-0.0939 1.49664,-0.86281 0.22398,-0.0534 0.13905,-0.0776 29.92542,-9.72336 0.66305,-0.11361 0.65436,-0.156 0.19391,0.0107 0.1914,-0.0328 0.47848,0.0696 0.86114,0.0473 0.36673,0.1313 0.29913,0.0435 28.07132,9.12093 23.92542,-7.77385 v -25.15667 l -17.34903,-23.87888 -0.80364,-1.52922 -0.34226,-1.99749 v -31.46537 l 0.2487,-1.70954 0.72547,-1.56782 1.14212,-1.29613 2.02961,-1.13285 28.07132,-9.12093 17.34903,-23.87888 0.57439,-0.58907 0.56594,-0.59674 0.0364,-0.021 0.0293,-0.0301 0.7187,-0.40115 0.71223,-0.4106 0.0408,-0.01 0.0367,-0.0205 0.80301,-0.1797 0.79989,-0.1907 0.0419,0.002 0.041,-0.009 0.17622,0.0211 1.46578,0.0805 0.39897,0.14285 0.26689,0.032 28.07132,9.12093 28.07131,-9.12093 1.70272,-0.29175 z m -72.49324,360.75912 13.37031,18.40266 21.63363,-7.02919 v -22.74693 l -21.63363,-7.0292 z m 47.00394,-13.78321 v 25.15668 l 21.63362,7.02919 14.78672,-20.35217 v -25.15667 l -21.63363,-7.0292 z M 355.62709,575.5163 v 25.15667 l 21.63363,7.0292 14.78672,-20.35217 v -25.15668 l -21.63363,-7.02919 z m 176.60286,-7.95888 14.78672,20.35217 23.92543,7.77385 13.37031,-18.40266 -14.78672,-20.35217 -23.92543,-7.77385 z m -128.18251,-7.77385 v 25.15668 l 21.63363,7.0292 14.78671,-20.35217 V 546.4606 l -21.63363,-7.0292 z m 48.42034,-228.99035 v 27.10618 l -0.2487,1.70954 -0.72547,1.56782 -1.14212,1.29613 -2.02961,1.13285 -29.92542,9.72336 -1.70272,0.29175 -1.71527,-0.20549 -1.58562,-0.68569 -1.70459,-1.5802 -15.93261,-21.92937 -21.63363,7.0292 v 27.10618 l -0.2487,1.70954 -0.72547,1.56782 -1.14212,1.29613 -2.02961,1.13285 -25.77952,8.37628 v 22.74693 l 25.77952,8.37628 0.46861,0.23137 0.49196,0.17614 0.2786,0.20431 0.30985,0.15298 0.38327,0.35531 0.42137,0.309 0.20886,0.27524 0.2534,0.23491 0.26613,0.44974 0.31589,0.41629 0.0537,0.20831 0.24403,0.4124 0.45022,2.28034 v 31.46545 l -0.0595,0.40912 0.003,0.41345 -0.12658,0.4369 -0.0655,0.45007 -0.17361,0.3752 -0.11506,0.39714 -0.2458,0.3827 -0.191,0.41278 -0.27335,0.31021 -0.22342,0.34786 -0.34463,0.29679 -0.30072,0.34127 -0.35043,0.21948 -0.31325,0.26977 -0.47418,0.22342 -0.32621,0.20432 -0.26122,0.0725 -0.30432,0.14339 -25.77952,8.37627 v 22.74693 l 25.77952,8.37628 0.46861,0.23137 0.49196,0.17614 0.2786,0.20431 0.30985,0.15298 0.38327,0.35531 0.42137,0.309 0.20886,0.27524 0.2534,0.23491 0.26613,0.44974 0.31589,0.41629 0.0537,0.20831 0.24403,0.4124 0.45022,2.28034 v 27.10619 l 21.63363,7.02919 15.93261,-21.92937 0.57439,-0.58907 0.56594,-0.59674 0.0364,-0.021 0.0293,-0.0301 0.71858,-0.40108 0.71235,-0.41067 0.0409,-0.01 0.0367,-0.0205 0.80274,-0.17965 0.80017,-0.19076 0.0419,0.002 0.041,-0.009 0.17622,0.0211 1.46578,0.0805 0.39897,0.14285 0.26689,0.032 29.92542,9.72336 0.46861,0.23137 0.49196,0.17614 0.2786,0.20431 0.30985,0.15298 0.38327,0.35531 0.42137,0.309 0.20886,0.27524 0.2534,0.23491 0.26613,0.44974 0.31589,0.41629 0.0537,0.20831 0.24403,0.4124 0.45022,2.28034 v 27.10619 l 21.63363,7.0292 15.93262,-21.92938 0.57439,-0.58907 0.56594,-0.59674 0.0364,-0.021 0.0293,-0.0301 0.71858,-0.40108 0.71235,-0.41067 0.0409,-0.01 0.0367,-0.0205 0.80274,-0.17965 0.80017,-0.19076 0.0419,0.002 0.041,-0.009 0.17622,0.0211 1.46578,0.0806 0.39897,0.14285 0.26689,0.032 25.77953,8.37628 13.37031,-18.40266 -15.93262,-21.92937 -0.12208,-0.2323 -0.16619,-0.20313 -0.23387,-0.55814 -0.2815,-0.53566 -0.0508,-0.25746 -0.10143,-0.24206 -0.0652,-0.60162 -0.11721,-0.59367 0.0246,-0.26129 -0.0282,-0.26091 0.10896,-0.59521 0.0568,-0.6025 0.0885,-0.19129 0.0568,-0.3103 0.78235,-1.54022 0.0335,-0.0353 0.015,-0.0324 18.49492,-25.45608 0.57439,-0.58907 0.56594,-0.59674 0.0364,-0.021 0.0294,-0.0301 0.71858,-0.40108 0.71235,-0.41067 0.0409,-0.01 0.0367,-0.0205 0.80274,-0.17965 0.80017,-0.19076 0.0419,0.002 0.041,-0.009 0.17622,0.0211 1.46578,0.0806 0.39897,0.14285 0.26689,0.032 25.77953,8.37627 13.37031,-18.40266 -15.93262,-21.92937 -0.80364,-1.52922 -0.33462,-1.69482 0.16214,-1.71991 0.97612,-2.10947 15.93262,-21.92937 -13.37031,-18.40266 -25.77953,8.37628 -0.55577,0.0952 -0.54335,0.15074 -0.30395,-0.006 -0.29965,0.0513 -0.55987,-0.0671 -0.56377,-0.0103 -0.28978,-0.0919 -0.30185,-0.0362 -0.51752,-0.2238 -0.5375,-0.17053 -0.25159,-0.17071 -0.27901,-0.12065 -0.27623,-0.25607 -0.62271,-0.42251 -0.52421,-0.64071 -0.28144,-0.26091 -18.49492,-25.45609 -0.12208,-0.2323 -0.16619,-0.20313 -0.23387,-0.55814 -0.2815,-0.53566 -0.0508,-0.25746 -0.10143,-0.24206 -0.0652,-0.60162 -0.11721,-0.59367 0.0246,-0.26129 -0.0282,-0.26091 0.10896,-0.59521 0.0568,-0.6025 0.0885,-0.19129 0.0568,-0.3103 0.78235,-1.54022 0.0335,-0.0353 0.015,-0.0324 15.93262,-21.92937 -13.37031,-18.40266 -25.77953,8.37628 -1.70272,0.29175 -1.71527,-0.20549 -1.58562,-0.68569 -1.70459,-1.5802 -15.93262,-21.92937 z m 128.18252,221.03148 13.37031,18.40266 21.63362,-7.02919 v -22.74694 l -21.63362,-7.02919 z m -48.42035,-35.17944 14.78672,20.35217 23.92543,7.77385 13.37031,-18.40266 -14.78672,-20.35218 -23.92543,-7.77384 z m 48.42035,-15.73273 14.78672,20.35218 23.92542,7.77384 13.37031,-18.40266 -14.78672,-20.35217 -23.92542,-7.77385 z M 284.34576,479.81571 v 22.74693 l 23.92542,7.77385 23.92542,-7.77385 v -22.74693 l -23.92542,-7.77384 z m 29.92542,-41.1888 v 22.74693 l 23.92542,7.77384 23.92542,-7.77384 v -22.74693 l -23.92542,-7.77385 z m -47.00394,11.37346 13.37031,18.40266 21.63363,-7.02919 v -22.74693 l -21.63363,-7.0292 z m 17.07852,-52.56227 v 22.74693 l 23.92542,7.77385 23.92542,-7.77385 V 397.4381 l -23.92542,-7.77385 z m 311.09126,-18.70206 -14.78672,20.35217 13.37031,18.40266 23.92542,-7.77385 14.78672,-20.35217 -13.37031,-18.40266 z m -48.42035,-15.73273 -14.78672,20.35217 13.37031,18.40267 23.92543,-7.77385 14.78672,-20.35217 -13.37031,-18.40267 z m 33.63363,-14.82727 13.37031,18.40267 21.63362,-7.02919 v -22.74695 l -21.63362,-7.02919 z M 404.04744,315.06049 v 25.15668 l 14.78671,20.35217 21.63363,-7.0292 v -25.15667 l -14.78671,-20.35218 z m 142.96923,-2.96934 -14.78672,20.35217 13.37031,18.40266 23.92543,-7.77385 14.78672,-20.35217 L 570.9421,304.3173 Z M 355.62709,299.32777 v 25.15668 l 14.78672,20.35217 21.63363,-7.0292 v -25.15668 l -14.78672,-20.35217 z m 78.34577,-25.45609 v 25.15668 l 14.78671,20.35218 21.63363,-7.0292 v -25.15668 l -14.78672,-20.35217 z m -47.00394,11.37347 13.37031,18.40266 21.63363,-7.0292 v -22.74692 l -21.63363,-7.0292 z"
       stroke-miterlimit="10"
       id="path1" />
  </g>
  <g
     inkscape:groupmode="layer"
     id="layer10"
     inkscape:label="Layer 2"
     style="display:none">
    <path
       fill="#222222"
       stroke="#cccccc"
       paint-order="fill stroke markers"
       d="m 428.19823,247.0927 1.58562,0.68569 1.70459,1.5802 31.2467,43.0074 50.55824,-16.42737 1.70272,-0.29175 1.71527,0.20549 1.58562,0.68569 1.70459,1.5802 31.2467,43.0074 50.55824,-16.42736 0.66305,-0.11361 0.65436,-0.156 0.19391,0.0107 0.1914,-0.0328 0.66794,0.08 0.67168,0.0369 0.18283,0.0655 0.19282,0.0231 0.61744,0.26701 0.63334,0.22676 0.1566,0.11484 0.17824,0.0771 0.27688,0.25667 0.78137,0.57301 0.38727,0.51036 0.25907,0.24016 33.80901,46.53411 0.17305,0.3293 0.22489,0.29636 0.0666,0.25829 0.33911,0.64528 0.33462,1.69481 -0.0189,0.19993 0.0265,0.10274 -0.10277,0.70644 -0.067,0.7108 -0.0531,0.11472 -0.0258,0.17758 -0.72547,1.56782 -0.11866,0.13466 -0.0531,0.11469 -31.24671,43.0074 31.24671,43.0074 0.17305,0.3293 0.22489,0.29636 0.0666,0.25829 0.33911,0.64528 0.33462,1.69481 -0.0189,0.19993 0.0265,0.10274 -0.10277,0.70644 -0.067,0.7108 -0.0531,0.11472 -0.0258,0.17758 -0.72547,1.56782 -0.11866,0.13466 -0.0531,0.11469 -31.24671,43.00741 31.24671,43.0074 0.80364,1.52923 0.33462,1.69481 -0.16214,1.71991 -0.97612,2.10947 -33.80901,46.53411 -1.20604,1.23687 -1.50847,0.84196 -1.68583,0.37728 -2.30786,-0.27648 -50.55824,-16.42737 -31.2467,43.0074 -1.20604,1.23687 -1.50847,0.84196 -1.68583,0.37728 -2.30786,-0.27648 -50.55824,-16.42736 -31.2467,43.0074 -0.49837,0.51111 -0.47202,0.53567 -0.12921,0.0809 -0.10644,0.10916 -0.62334,0.34792 -0.60508,0.37898 -0.14695,0.0408 -0.1331,0.0743 -0.69663,0.1559 -0.68798,0.19087 -0.15243,-0.003 -0.14879,0.0333 -0.35491,-0.0425 -1.07111,-0.0196 -0.55055,-0.17467 -0.33129,-0.0397 -54.70414,-17.77445 -0.37073,-0.18304 -0.39408,-0.12503 -0.37637,-0.25537 -0.40784,-0.20136 -0.30319,-0.28107 -0.34214,-0.23214 -0.28803,-0.35205 -0.33354,-0.3092 -0.21054,-0.35581 -0.26181,-0.31999 -0.17577,-0.41949 -0.23164,-0.39145 -0.0602,-0.30513 -0.19998,-0.47725 -0.12845,-1.18621 -0.0616,-0.31175 v -53.16007 l -50.55823,-16.42737 -0.37073,-0.18304 -0.39408,-0.12503 -0.37637,-0.25537 -0.40784,-0.20136 -0.30319,-0.28107 -0.34214,-0.23214 -0.28803,-0.35205 -0.33354,-0.3092 -0.21054,-0.35581 -0.26181,-0.31999 -0.17577,-0.41949 -0.23164,-0.39145 -0.0602,-0.30513 -0.19998,-0.47725 -0.12845,-1.18621 -0.0615,-0.31175 v -53.16006 l -50.55823,-16.42737 -0.37073,-0.18304 -0.39408,-0.12503 -0.37637,-0.25537 -0.40784,-0.20136 -0.30319,-0.28107 -0.34214,-0.23214 -0.28803,-0.35205 -0.33354,-0.3092 -0.21054,-0.35581 -0.26181,-0.31999 -0.17577,-0.41949 -0.23164,-0.39145 -0.0602,-0.30513 -0.19998,-0.47725 -0.12845,-1.18621 -0.0615,-0.31175 V 421.2473 l 0.0159,-0.10952 -0.0119,-0.11001 0.13597,-0.74274 0.10871,-0.74727 0.0465,-0.10043 0.0199,-0.10886 0.34196,-0.67321 0.31711,-0.68532 0.0732,-0.083 0.0501,-0.0987 0.51954,-0.54782 0.4993,-0.56662 0.0809,-0.0452 0.089,-0.0939 1.49664,-0.86281 0.22398,-0.0534 0.13905,-0.0776 50.55823,-16.42737 v -53.16007 l 0.0159,-0.10952 -0.0119,-0.11001 0.13597,-0.74274 0.10871,-0.74727 0.0465,-0.10043 0.0199,-0.10886 0.34196,-0.67321 0.31711,-0.68532 0.0732,-0.083 0.0501,-0.0987 0.51954,-0.54782 0.4993,-0.56662 0.0809,-0.0452 0.089,-0.0939 1.49664,-0.86281 0.22398,-0.0534 0.13905,-0.0776 50.55823,-16.42737 v -53.15992 l 0.2487,-1.70954 0.72547,-1.56782 1.14212,-1.29613 2.02961,-1.13285 54.70414,-17.77445 1.70272,-0.29175 z M 377.9302,573.78436 v 51.21056 l 46.41235,15.08029 30.1008,-41.4302 v -51.21056 l -46.41234,-15.08029 z m 88.51315,-26.34991 v 48.80081 l 46.41234,15.08028 28.6844,-39.48069 -28.6844,-39.48069 z m 56.12053,-22.13371 30.10081,41.4302 48.70414,15.82494 28.6844,-39.48069 -30.10081,-41.4302 -48.70414,-15.82494 z m -199.33781,-24.4004 v 48.8008 l 46.41234,15.08029 28.6844,-39.48069 -28.6844,-39.48069 z m 108.26237,-0.83255 -0.49837,0.51111 -0.47202,0.53567 -0.12921,0.0809 -0.10644,0.10916 -0.62337,0.34794 -0.60505,0.37896 -0.14693,0.0408 -0.13311,0.0743 -0.69666,0.15591 -0.68796,0.19086 -0.15242,-0.003 -0.1488,0.0333 -0.35491,-0.0425 -1.07111,-0.0196 -0.55055,-0.17467 -0.33129,-0.0397 -13.04102,-4.23728 v 22.93134 l 46.41234,15.08029 13.47871,-18.55186 -13.04102,-4.23728 -1.54902,-0.7648 -1.2669,-1.17446 -0.87976,-1.48674 -0.45022,-2.28034 v -39.05323 z m 44.66311,31.59472 19.57952,-6.36177 -12.10081,-3.93179 z m 43.85003,-60.35439 -1.20604,1.23687 -1.50847,0.84196 -1.68583,0.37728 -2.30786,-0.27648 -37.14184,-12.06811 22.95492,31.59473 0.80364,1.52923 0.33462,1.69481 -0.16214,1.71991 -0.97612,2.10947 -8.05979,11.09335 21.80902,7.08618 28.6844,-39.48069 -13.47872,-18.55186 z m -53.55823,31.85891 12.60333,4.09507 7.78928,-10.72102 -20.39261,-28.06802 z m -66.70413,3.66762 V 494.1111 L 387.6384,490.17931 Z M 268.52194,425.60656 v 48.80081 l 48.70413,15.82494 48.70413,-15.82494 v -48.80081 l -48.70413,-15.82494 z m 143.21728,46.53411 v 13.25192 l 12.60333,4.09507 20.39261,-28.06802 z m 143.21727,-46.53411 v 48.80081 l 46.41234,15.08029 28.6844,-39.4807 -28.6844,-39.48069 z m -177.02629,0 v 48.80081 l 21.80902,7.08618 v -13.71214 l 0.2487,-1.70954 0.72547,-1.56782 1.14212,-1.29613 2.02961,-1.13285 37.14182,-12.06811 -37.14182,-12.06811 -0.37073,-0.18304 -0.39408,-0.12503 -0.37637,-0.25537 -0.40784,-0.20136 -0.30319,-0.28107 -0.34214,-0.23214 -0.28803,-0.35205 -0.33354,-0.3092 -0.21054,-0.35581 -0.26181,-0.31999 -0.17577,-0.41949 -0.23164,-0.39145 -0.0602,-0.30513 -0.19998,-0.47725 -0.12845,-1.18621 -0.0616,-0.31175 v -13.71213 z m 101.92956,24.4004 32.99593,10.72103 7.78928,-10.72103 -7.78928,-10.72103 z m 55.61802,0 7.47871,10.29357 V 439.7134 Z m -44.43111,-61.15417 8.05979,11.09335 0.80364,1.52923 0.33462,1.69481 -0.16214,1.71991 -0.97612,2.10947 -22.95491,31.59472 37.14183,-12.06811 0.4075,-0.0698 0.39232,-0.13049 0.45461,-0.0146 0.44829,-0.0768 0.41049,0.0492 0.41325,-0.0133 0.43995,0.11551 0.45158,0.0541 0.37945,0.16409 0.39992,0.105 0.38882,0.23608 0.41743,0.18052 0.31697,0.2654 0.35343,0.2146 0.35905,0.38197 0.29508,0.24707 0.14964,0.22604 0.23042,0.24512 8.05979,11.09336 13.47872,-18.55186 -28.6844,-39.48069 z m -79.30745,25.76855 v 13.25191 l 32.99593,10.72103 -20.3926,-28.06801 z m 0,-35.54889 v 22.93134 l 13.04102,-4.23728 1.70272,-0.29175 1.71527,0.20549 1.58562,0.68569 1.70459,1.5802 22.95491,31.59473 v -39.05323 l 0.2487,-1.70954 0.72547,-1.56782 1.14212,-1.29613 2.02961,-1.13285 13.04102,-4.23728 -13.47871,-18.55186 z m 54.70413,17.77445 v 34.69397 l 20.39261,-28.06802 -7.78928,-10.72102 z m 86.22134,-63.56392 -30.10081,41.43021 28.6844,39.48069 48.70414,-15.82494 30.10081,-41.4302 -28.6844,-39.48069 z m -229.43862,17.0298 v 48.80081 l 46.41234,15.08029 28.6844,-39.48069 -28.6844,-39.4807 z m 64.41233,59.52184 12.10082,-3.93179 v -12.72355 z m 95.99186,-31.18964 12.10081,-3.93179 -19.57952,-6.36177 z M 377.9302,275.01901 v 51.21055 l 30.10081,41.43021 46.41234,-15.08029 v -51.21056 l -30.1008,-41.4302 z m 88.51315,28.75966 v 48.80081 l 46.41234,15.08029 28.6844,-39.4807 -28.6844,-39.48069 z"
       stroke-miterlimit="10"
       id="path2" />
  </g>
  <g
     inkscape:groupmode="layer"
     id="layer11"
     inkscape:label="Layer 3"
     style="display:none">
    <path
       fill="#222222"
       stroke="#cccccc"
       paint-order="fill stroke markers"
       d="m 494.27091,254.00331 1.58562,0.68569 1.70459,1.5802 52.78641,72.65426 0.80364,1.52923 0.33462,1.69481 -0.16214,1.71991 -0.97612,2.10947 -30.06149,41.37608 7.33657,10.09792 48.64051,-15.80426 1.70272,-0.29175 1.71527,0.20549 1.58562,0.68569 1.70459,1.5802 52.78641,72.65426 0.80364,1.52923 0.33462,1.69481 -0.16214,1.71991 -0.97612,2.10947 -52.78641,72.65425 -1.20604,1.23687 -1.50847,0.84197 -1.68583,0.37727 -2.30786,-0.27648 -48.64051,-15.80426 -7.33657,10.09792 30.06149,41.37609 0.17305,0.3293 0.22489,0.29636 0.0666,0.25829 0.33911,0.64528 0.33462,1.69481 -0.0188,0.19993 0.0265,0.10274 -0.10277,0.70644 -0.067,0.7108 -0.0531,0.11472 -0.0258,0.17758 -0.72547,1.56782 -0.11866,0.13466 -0.0531,0.11469 -52.78641,72.65425 -0.49837,0.51111 -0.47202,0.53567 -0.12921,0.0809 -0.10644,0.10916 -0.6234,0.34796 -0.60502,0.37894 -0.14691,0.0408 -0.13314,0.0743 -0.69674,0.15592 -0.68787,0.19084 -0.15242,-0.003 -0.1488,0.0333 -0.35491,-0.0425 -1.07111,-0.0196 -0.55055,-0.17467 -0.33129,-0.0397 -85.41019,-27.75146 -0.37073,-0.18304 -0.39408,-0.12503 -0.37637,-0.25537 -0.40784,-0.20136 -0.30319,-0.28107 -0.34214,-0.23214 -0.28803,-0.35205 -0.33354,-0.3092 -0.21054,-0.35581 -0.26181,-0.31999 -0.17577,-0.41949 -0.23164,-0.39145 -0.0602,-0.30513 -0.19998,-0.47725 -0.12845,-1.18621 -0.0616,-0.31175 v -51.14365 l -11.87082,-3.85706 -30.06149,41.37608 -0.49837,0.51111 -0.47202,0.53567 -0.12921,0.0809 -0.10644,0.10916 -0.6234,0.34796 -0.60502,0.37894 -0.14691,0.0408 -0.13314,0.0743 -0.69674,0.15592 -0.68787,0.19084 -0.15242,-0.003 -0.1488,0.0333 -0.35491,-0.0425 -1.07111,-0.0196 -0.55055,-0.17467 -0.33129,-0.0397 -85.41019,-27.75145 -0.37073,-0.18304 -0.39408,-0.12503 -0.37637,-0.25537 -0.40784,-0.20136 -0.30319,-0.28107 -0.34214,-0.23214 -0.28803,-0.35205 -0.33354,-0.3092 -0.21054,-0.35581 -0.26181,-0.31999 -0.17577,-0.41949 -0.23164,-0.39145 -0.0602,-0.30513 -0.19998,-0.47725 -0.12845,-1.18621 -0.0616,-0.31175 v -89.8056 l 0.0159,-0.10952 -0.0119,-0.11001 0.13597,-0.74274 0.10871,-0.74727 0.0465,-0.10043 0.0199,-0.10886 0.34196,-0.67321 0.31711,-0.68532 0.0732,-0.083 0.0501,-0.0987 0.51954,-0.54782 0.4993,-0.56662 0.0809,-0.0452 0.089,-0.0939 1.49664,-0.86281 0.22398,-0.0534 0.13905,-0.0776 48.6405,-15.80425 v -12.48172 l -48.6405,-15.80426 -0.37073,-0.18304 -0.39408,-0.12503 -0.37637,-0.25537 -0.40784,-0.20136 -0.30319,-0.28107 -0.34214,-0.23214 -0.28803,-0.35205 -0.33354,-0.3092 -0.21054,-0.35581 -0.26181,-0.31999 -0.17577,-0.41949 -0.23164,-0.39145 -0.0602,-0.30513 -0.19998,-0.47725 -0.12845,-1.18621 -0.0616,-0.31175 V 332.4497 l 0.0159,-0.10952 -0.0119,-0.11001 0.13597,-0.74274 0.10871,-0.74727 0.0465,-0.10043 0.0199,-0.10886 0.34196,-0.67321 0.31711,-0.68532 0.0732,-0.083 0.0501,-0.0987 0.51954,-0.54782 0.4993,-0.56662 0.0809,-0.0452 0.089,-0.0939 1.49664,-0.86281 0.22398,-0.0534 0.13905,-0.0776 85.41019,-27.75146 0.66305,-0.11361 0.65436,-0.156 0.19391,0.0107 0.1914,-0.0328 0.66794,0.08 0.67168,0.0369 0.18283,0.0655 0.19282,0.0231 0.61744,0.26701 0.63334,0.22676 0.1566,0.11484 0.17824,0.0771 0.27688,0.25667 0.78137,0.57301 0.38727,0.51036 0.25907,0.24016 30.06149,41.37609 11.87082,-3.85707 V 287.5469 l 0.2487,-1.70954 0.72547,-1.56782 1.14212,-1.29613 2.02961,-1.13285 85.41019,-27.75146 1.70272,-0.29175 z m 3.29021,299.93632 -1.20604,1.23687 -1.50847,0.84197 -1.68583,0.37727 -2.30786,-0.27648 -28.47789,-9.25303 -17.60031,24.22475 -1.20604,1.23687 -1.50847,0.84196 -1.68583,0.37728 -2.30786,-0.27648 -24.76969,-8.04816 v 42.88535 l 77.1184,25.0573 47.6618,-65.60083 -25.2074,-34.695 z m -222.46089,-71.8217 v 81.08708 l 77.1184,25.05729 25.20738,-34.69499 -24.76969,-8.04816 -1.54902,-0.7648 -1.2669,-1.17446 -0.87976,-1.48674 -0.45022,-2.28034 v -29.94343 l -28.47789,-9.25303 -1.54902,-0.7648 -1.2669,-1.17446 -0.87976,-1.48674 -0.45022,-2.28034 v -26.04439 z m 138.1966,70.48697 24.332,7.90595 12.7462,-17.54365 -37.0782,-12.04744 z m -16.45441,-5.34636 4.45441,1.44732 v -7.5783 z m -36.332,-11.80499 24.332,7.90595 12.74621,-17.54365 -37.07821,-12.04744 z m 109.28102,1.20487 20.62379,6.70108 15.038,-20.69803 -12.74621,-17.54365 z m -43.0782,-13.99695 31.0782,10.09792 19.20739,-26.4367 z m -64.78642,-72.65425 47.6618,65.60083 77.1184,-25.0573 v -81.08707 l -77.1184,-25.0573 z m 173.1122,-52.34853 15.30851,21.07036 0.80364,1.52923 0.33462,1.69481 -0.16214,1.71991 -0.97612,2.10947 -17.60031,24.22475 17.60031,24.22474 0.80364,1.52923 0.33462,1.69481 -0.16214,1.71991 -0.97612,2.10947 -15.30851,21.07036 40.78641,13.25231 47.6618,-65.60083 -47.6618,-65.60084 z m -22.16939,114.79497 2.75298,-3.78915 -7.20739,-2.34182 z m -152.35921,-11.30279 31.0782,10.09792 -31.0782,-42.77548 z m 141.90481,-9.39525 20.62379,6.70108 15.038,-20.69803 -12.7462,-17.54365 z m -174.5286,-26.78903 v 25.58416 l 20.62379,6.70108 v -38.98632 z m 170.82039,11.47733 19.20739,-26.4367 -19.20739,-26.43671 z m -170.82039,-24.09488 7.20738,-2.34182 -7.20738,-2.34182 z m 0,-42.88536 v 25.58417 l 20.62379,6.70108 V 402.7626 Z m 174.5286,-1.20487 22.91559,31.5406 12.74621,-17.54365 -15.03801,-20.69803 z m -141.90481,-9.39525 v 32.67756 l 31.07821,-42.77548 z m -85.41019,-62.05413 v 81.08707 l 40.7864,13.25231 v -26.04439 l 0.0159,-0.10952 -0.0119,-0.11001 0.13597,-0.74274 0.10871,-0.74727 0.0465,-0.10043 0.0199,-0.10886 0.34196,-0.67321 0.31711,-0.68532 0.0732,-0.083 0.0501,-0.0987 0.51954,-0.54782 0.4993,-0.56662 0.0809,-0.0452 0.089,-0.0939 1.49664,-0.86281 0.22398,-0.0534 0.13905,-0.0776 28.47789,-9.25303 v -29.94343 l 0.2487,-1.70954 0.72547,-1.56782 1.14212,-1.29613 2.02961,-1.13285 24.76969,-8.04816 -25.20738,-34.69499 z m 194.6912,26.54658 22.91559,31.5406 12.74621,-17.54365 -15.038,-20.69803 z m 38.62379,30.33573 7.20739,-2.34182 -2.75297,-3.78915 z m -81.70198,-16.33878 50.28558,16.33878 -19.20738,-26.4367 z m -66.20282,-12.79208 v 21.68514 l 37.07821,-12.04744 -12.74621,-17.54365 z m 52.78641,-17.15134 v 21.68513 l 37.0782,-12.04744 -12.7462,-17.54364 z m 0,-55.50291 v 42.88536 l 24.76969,-8.04816 1.70272,-0.29175 1.71527,0.20549 1.58562,0.68569 1.70459,1.5802 17.6003,24.22474 28.4779,-9.25303 0.4075,-0.0698 0.39232,-0.13049 0.45461,-0.0146 0.44829,-0.0768 0.41049,0.0492 0.41325,-0.0133 0.43995,0.11551 0.45158,0.0541 0.37945,0.16409 0.39992,0.105 0.38882,0.23608 0.41743,0.18052 0.31696,0.2654 0.35344,0.2146 0.35908,0.382 0.29505,0.24705 0.14963,0.22601 0.23043,0.24514 15.30852,21.07036 25.20739,-34.69499 -47.6618,-65.60084 z m -16.45441,60.84927 4.45441,6.13097 v -7.5783 z"
       stroke-miterlimit="10"
       id="path3" />
  </g>
  <g
     inkscape:groupmode="layer"
     id="layer12"
     inkscape:label="Layer 4"
     style="display:inline">
    <path
       fill="#222222"
       stroke="#cccccc"
       paint-order="fill stroke markers"
       d="m 456.30313,244.33183 1.58562,0.68569 1.70459,1.5802 23.66117,32.56679 36.43047,11.83699 38.28458,-12.43942 1.70272,-0.29175 1.71527,0.20549 1.58562,0.68569 1.70459,1.5802 24.80706,34.144 0.80364,1.52923 0.33462,1.69481 -0.16214,1.71991 -0.97612,2.10947 -23.66116,32.5668 v 9.81184 l 9.33161,3.03203 38.28457,-12.43942 1.70272,-0.29175 1.71527,0.20549 1.58562,0.68569 1.70459,1.5802 24.80707,34.144 0.80364,1.52923 0.33462,1.69481 -0.16214,1.71991 -0.97612,2.10947 -23.66117,32.56679 v 38.30528 l 23.66117,32.5668 0.80364,1.52923 0.33462,1.69481 -0.16214,1.71991 -0.97612,2.10947 -24.80707,34.144 -1.20604,1.23687 -1.50847,0.84197 -1.68583,0.37727 -2.30786,-0.27648 -38.28457,-12.43942 -9.33161,3.03203 v 9.81184 l 23.66116,32.5668 0.80364,1.52923 0.33462,1.69481 -0.16214,1.71991 -0.97612,2.10947 -24.80706,34.14399 -1.20604,1.23687 -1.50847,0.84196 -1.68583,0.37728 -2.30786,-0.27648 -38.28458,-12.43941 -36.43047,11.83698 -23.66117,32.5668 -1.20604,1.23687 -1.50847,0.84197 -1.68583,0.37727 -2.30786,-0.27648 -40.13867,-13.04185 -1.54902,-0.7648 -1.2669,-1.17446 -0.87976,-1.48674 -0.45022,-2.28034 v -40.25479 l -5.76725,-7.93793 -9.33162,3.03203 -23.66117,32.56679 -1.20604,1.23687 -1.50847,0.84197 -1.68583,0.37727 -2.30786,-0.27648 -40.13867,-13.04184 -1.54902,-0.7648 -1.2669,-1.17446 -0.87976,-1.48674 -0.45022,-2.28034 v -40.25479 l -22.51527,-30.9896 -38.28457,-12.43941 -1.54902,-0.7648 -1.2669,-1.17446 -0.87976,-1.48674 -0.45022,-2.28034 v -42.20431 l 0.2487,-1.70954 0.72547,-1.56782 1.14212,-1.29613 2.02961,-1.13285 38.28457,-12.43941 5.76725,-7.93794 -5.76725,-7.93793 -38.28457,-12.43942 -1.54902,-0.7648 -1.2669,-1.17446 -0.87976,-1.48674 -0.45022,-2.28034 v -42.2043 l 0.2487,-1.70954 0.72547,-1.56782 1.14212,-1.29613 2.02961,-1.13285 38.28457,-12.43942 22.51527,-30.98959 v -40.25479 l 0.2487,-1.70954 0.72547,-1.56782 1.14212,-1.29613 2.02961,-1.13285 40.13867,-13.04185 1.70272,-0.29175 1.71527,0.20549 1.58562,0.68569 1.70459,1.5802 23.66117,32.5668 9.33162,3.03203 5.76725,-7.93794 v -40.25479 l 0.2487,-1.70954 0.72547,-1.56782 1.14212,-1.29613 2.02961,-1.13285 40.13867,-13.04184 1.70272,-0.29175 z m -35.70256,354.67058 v 33.48579 l 31.84688,10.34768 19.68245,-27.09058 -19.68245,-27.09057 z m -89.75281,-29.16246 v 33.48579 l 31.84688,10.34768 19.68245,-27.09057 -19.68245,-27.09058 z m 131.30789,11.76136 19.68245,27.09057 31.84688,-10.34768 V 564.85841 L 481.8381,554.51073 Z m 63.52933,-16.74289 v 33.48578 l 31.84689,10.34768 19.68245,-27.09057 -19.68245,-27.09058 z m -25.95296,-34.97655 -0.49837,0.51111 -0.47202,0.53567 -0.12921,0.0809 -0.10644,0.10916 -0.42154,0.22153 -0.80688,0.50537 -0.32788,0.091 -0.23766,0.1249 -40.13868,13.04185 -0.25865,0.0443 -0.24455,0.0953 -0.60309,0.05 -0.59643,0.10219 -0.26059,-0.0312 -0.26153,0.0217 -0.75231,-0.14312 -0.44084,-0.0528 -0.1282,-0.0554 -0.16201,-0.0308 -16.95297,-5.50835 v 33.946 l -0.2487,1.70954 -0.72547,1.56782 -1.14212,1.29613 -1.46407,0.91699 -0.35551,0.0986 -0.21003,0.11723 -16.95296,5.50835 2.05905,2.83404 34.13868,-11.09233 23.66117,-32.5668 1.20604,-1.23687 1.50847,-0.84197 1.68583,-0.37727 2.30786,0.27648 38.28457,12.43942 34.13868,-11.09234 v -3.50305 l -16.95297,5.50835 -0.55577,0.0952 -0.54335,0.15074 -0.30395,-0.006 -0.29965,0.0513 -0.55987,-0.0671 -0.56377,-0.0103 -0.28978,-0.0919 -0.30185,-0.0362 -0.51752,-0.2238 -0.5375,-0.17053 -0.25159,-0.17071 -0.27901,-0.12065 -0.27623,-0.25607 -0.62271,-0.42251 -0.52421,-0.64071 -0.28144,-0.26091 -19.95297,-27.4629 z m -192.27492,-66.83316 21.09886,29.04008 38.28457,12.43942 1.54902,0.7648 1.2669,1.17446 0.87976,1.48674 0.45022,2.28034 v 40.25479 l 21.09886,29.04009 3.33162,-1.08251 -10.47751,-14.42105 -0.12208,-0.23231 -0.16619,-0.20312 -0.23386,-0.55811 -0.28151,-0.53568 -0.0508,-0.25748 -0.10142,-0.24205 -0.0652,-0.60161 -0.11721,-0.59368 0.0246,-0.26129 -0.0283,-0.26091 0.10896,-0.59521 0.0568,-0.6025 0.0885,-0.19129 0.0568,-0.3103 0.78235,-1.54022 0.0335,-0.0353 0.015,-0.0324 19.95296,-27.4629 -16.95296,-5.50835 -0.64024,-0.3161 -0.65517,-0.28333 -0.0927,-0.0859 -0.16094,-0.0795 -1.2669,-1.17446 -0.0914,-0.15444 -0.0927,-0.0859 -24.80707,-34.144 -0.19232,-0.36597 -0.24534,-0.3328 -0.1544,-0.42785 -0.21158,-0.40261 -0.0599,-0.34975 -0.1605,-0.44476 -0.0425,-0.74016 -0.0793,-0.46281 v -17.8254 l -32.28457,10.48989 -0.55577,0.0952 -0.54335,0.15074 -0.30395,-0.006 -0.29965,0.0513 -0.55987,-0.0671 -0.56377,-0.0103 -0.28978,-0.0919 -0.30185,-0.0362 -0.51752,-0.2238 -0.5375,-0.17053 -0.25159,-0.17071 -0.27901,-0.12065 -0.27623,-0.25607 -0.62271,-0.42251 -0.52421,-0.64071 -0.28144,-0.26091 -10.47751,-14.42105 z m 89.75281,97.45045 10.20699,14.04872 16.51527,-5.36613 v -33.48579 l -7.03981,-2.28737 z m -89.75282,-29.16246 19.68246,27.09058 31.84688,-10.34768 v -33.4858 l -31.84688,-10.34768 z m 127.32918,-133.04927 -1.20604,1.23687 -1.50847,0.84197 -1.68583,0.37727 -2.30786,-0.27648 -35.99278,-11.69477 -19.68245,27.09058 22.24476,30.61728 0.17305,0.3293 0.22489,0.29636 0.0666,0.25828 0.33911,0.64528 0.33462,1.69482 -0.0189,0.19993 0.0265,0.10274 -0.10277,0.70644 -0.067,0.7108 -0.0531,0.11472 -0.0258,0.17758 -0.72547,1.56782 -0.11866,0.13466 -0.0531,0.11469 -22.24477,30.61729 19.68246,27.09058 35.99278,-11.69477 1.70272,-0.29175 1.71527,0.20549 1.58562,0.68569 1.70459,1.5802 22.24476,30.61729 31.84689,-10.34769 v -37.84504 l 0.0159,-0.10952 -0.0119,-0.11001 0.13597,-0.74274 0.10871,-0.74727 0.0465,-0.10043 0.0199,-0.10886 0.34196,-0.67321 0.31711,-0.68532 0.0732,-0.083 0.0501,-0.0987 0.51954,-0.54782 0.4993,-0.56662 0.0809,-0.0452 0.089,-0.0939 1.49664,-0.86281 0.22398,-0.0534 0.13905,-0.0776 35.99277,-11.69476 V 433.2639 l -35.99277,-11.69476 -0.37073,-0.18304 -0.39408,-0.12503 -0.37637,-0.25537 -0.40784,-0.20136 -0.30319,-0.28107 -0.34214,-0.23214 -0.28803,-0.35205 -0.33354,-0.3092 -0.21054,-0.35581 -0.26181,-0.31999 -0.17577,-0.41949 -0.23164,-0.39145 -0.0602,-0.30513 -0.19998,-0.47725 -0.12845,-1.18621 -0.0616,-0.31175 v -37.84504 l -31.84689,-10.34769 z m 82.83966,106.96558 19.68245,27.09058 16.51528,-5.36614 v -17.36518 l -31.84688,-10.34769 z m 63.52934,-16.7429 v 33.4858 l 31.84688,10.34768 19.68246,-27.09058 -19.68246,-27.09058 z m -171.94537,29.78475 29.82114,9.68947 -11.39066,-15.6779 z M 265.90202,480.44981 v 33.48579 l 31.84688,10.34768 19.68245,-27.09058 -19.68245,-27.09057 z m 299.92164,-85.68909 -0.2487,1.70954 -0.72547,1.56782 -1.14212,1.29613 -1.46407,0.91699 -0.35551,0.0986 -0.21003,0.11723 -32.28458,10.48989 10.47751,14.42105 0.33208,0.63191 0.3636,0.61446 0.037,0.14791 0.0709,0.13495 0.0804,0.46933 0.2313,0.92359 -0.0148,0.33992 0.0453,0.26464 v 42.2043 l -0.0595,0.40912 0.003,0.41345 -0.12657,0.4369 -0.0655,0.45007 -0.1571,0.31818 -0.13157,0.45415 -0.40066,0.62382 -0.20787,0.42102 -10.47751,14.42105 32.28458,10.4899 0.46861,0.23137 0.49196,0.17614 0.2786,0.20431 0.30985,0.15298 0.38327,0.35531 0.42137,0.309 0.20886,0.27524 0.2534,0.23491 0.26613,0.44974 0.31589,0.41629 0.0537,0.20831 0.24403,0.4124 0.45022,2.28034 v 17.8254 l 3.33161,-1.08251 v -35.89553 l -23.66117,-32.5668 -0.80364,-1.52923 -0.33462,-1.69481 0.16214,-1.71991 0.97612,-2.10947 23.66117,-32.56679 V 378.0178 l -3.33161,-1.08251 z m -64.94574,93.74939 v 19.37895 l 18.43047,-25.36737 z m 56.88669,-38.50325 19.68245,27.09058 31.84688,-10.34768 v -33.48579 l -31.84688,-10.34768 z m -186.77818,15.6779 11.39066,-15.6779 -11.39066,-15.6779 z m -54.05388,-15.6779 10.207,14.04873 31.84688,-10.34768 v -7.4021 l -31.84688,-10.34768 z m 54.05388,-100.48248 v 40.25479 l -0.2487,1.70954 -0.72547,1.56782 -1.14212,1.29613 -2.02961,1.13285 -38.28457,12.43942 -21.09886,29.04009 2.05905,2.83404 10.47751,-14.42106 0.57439,-0.58907 0.56594,-0.59674 0.0364,-0.021 0.0294,-0.0301 0.7187,-0.40115 0.71223,-0.4106 0.0408,-0.01 0.0367,-0.0205 0.80301,-0.1797 0.79989,-0.1907 0.0419,0.002 0.041,-0.009 0.17622,0.0211 1.46578,0.0806 0.39897,0.14285 0.26689,0.032 32.28457,10.4899 v -17.8254 l 0.10277,-0.70644 0.067,-0.7108 0.057,-0.14144 0.022,-0.15086 0.2108,-0.42696 0.35575,-0.88316 0.21179,-0.26631 0.11886,-0.24074 24.80707,-34.144 0.18321,-0.1879 0.14183,-0.22082 0.45853,-0.39488 0.42247,-0.43327 0.22917,-0.12792 0.19885,-0.17124 0.69272,-0.32639 0.38773,-0.21642 0.13633,-0.0305 0.14916,-0.0703 16.95296,-5.50835 -19.95296,-27.4629 -0.12208,-0.2323 -0.16619,-0.20313 -0.23387,-0.55814 -0.2815,-0.53566 -0.0508,-0.25746 -0.10143,-0.24206 -0.0652,-0.60162 -0.11721,-0.59367 0.0246,-0.26129 -0.0283,-0.26091 0.10896,-0.59521 0.0568,-0.6025 0.0885,-0.19129 0.0568,-0.3103 0.78235,-1.54022 0.0335,-0.0353 0.015,-0.0324 10.47751,-14.42105 -3.33162,-1.08251 z m -105.08441,36.55374 v 33.4858 l 31.84688,10.34768 19.68246,-27.09058 -19.68246,-27.09058 z m 315.25325,-8.0603 v 33.48579 l 31.84688,10.34768 19.68245,-27.09057 -19.68245,-27.09058 z m -80.27735,33.48579 18.43047,5.98843 -18.43047,-25.36737 z m 16.74801,-16.7429 4.35084,5.98843 31.84689,-10.34768 v -17.36518 l -16.51528,-5.36614 z m -210.16883,-26.08369 19.68245,27.09058 31.84688,-10.34768 v -33.48579 l -31.84688,-10.34768 z m 101.7528,13.04185 18.43048,5.98843 11.39066,-15.6779 z m 5.62341,-66.46084 16.95296,5.50835 0.46861,0.23137 0.49196,0.17614 0.2786,0.20431 0.30985,0.15298 0.38327,0.35531 0.42137,0.309 0.20886,0.27524 0.2534,0.23491 0.26613,0.44974 0.31589,0.41629 0.0537,0.20831 0.24403,0.4124 0.45022,2.28034 v 33.94601 l 16.95297,-5.50835 0.7036,-0.12056 0.69674,-0.15592 0.15212,0.0105 0.15026,-0.0258 0.47121,0.0686 0.94986,0.0654 0.31873,0.11913 0.26568,0.0386 40.13868,13.04185 0.37073,0.18304 0.39408,0.12503 0.37637,0.25537 0.40784,0.20136 0.25407,0.24774 0.39126,0.26547 0.46948,0.57383 0.33617,0.32779 10.4775,14.42105 19.95297,-27.4629 0.57439,-0.58907 0.56594,-0.59674 0.0364,-0.021 0.0293,-0.0301 0.7187,-0.40115 0.71223,-0.4106 0.0408,-0.01 0.0367,-0.0205 0.80301,-0.1797 0.79989,-0.1907 0.0419,0.002 0.041,-0.009 0.17622,0.0211 1.46578,0.0806 0.39897,0.14285 0.26689,0.032 16.95297,5.50835 v -3.50305 l -34.13868,-11.09234 -38.28457,12.43942 -1.70272,0.29175 -1.71527,-0.20549 -1.58562,-0.68569 -1.70459,-1.5802 -23.66117,-32.5668 -34.13868,-11.09234 z m -17.62341,24.25654 19.68246,27.09057 7.03981,-2.28737 v -33.48579 l -16.51527,-5.36614 z m 64.94574,-21.10215 19.68246,27.09058 31.84688,-10.34768 v -33.4858 L 481.8381,291.32184 Z m 63.52934,-16.74289 v 33.48578 l 31.84689,10.34769 19.68245,-27.09058 -19.68245,-27.09058 z m -194.83722,-4.98155 v 33.48579 l 31.84688,10.34768 19.68245,-27.09057 -19.68245,-27.09058 z m 89.75281,-29.16245 v 33.48579 l 31.84688,10.34768 19.68245,-27.09058 -19.68245,-27.09057 z"
       stroke-miterlimit="10"
       id="path4" />
  </g>
</svg>
