  0
SECTION
  2
HEADER
  9
$ACADVER
  1
AC1014
  9
$HANDSEED
  5
FFFF
  9
$INSUNITS
 70
     4
  9
$MEASUREMENT
 70
     1
  0
ENDSEC
  0
SECTION
  2
TABLES
  0
TABLE
  2
VPORT
  5
8
330
0
100
AcDbSymbolTable
 70
     4
  0
VPORT
  5
2E
330
8
100
AcDbSymbolTableRecord
100
AcDbViewportTableRecord
  2
*ACTIVE
 70
     0
 10
0.0
 20
0.0
 11
1.0
 21
1.0
 12
210.0
 22
148.5
 13
0.0
 23
0.0
 14
10.0
 24
10.0
 15
10.0
 25
10.0
 16
0.0
 26
0.0
 36
1.0
 17
0.0
 27
0.0
 37
0.0
 40
341.0
 41
1.24
 42
50.0
 43
0.0
 44
0.0
 50
0.0
 51
0.0
 71
     0
 72
   100
 73
     1
 74
     3
 75
     0
 76
     0
 77
     0
 78
     0
  0
ENDTAB
  0
TABLE
  2
LTYPE
  5
5
330
0
100
AcDbSymbolTable
 70
     1
  0
LTYPE
  5
14
330
5
100
AcDbSymbolTableRecord
100
AcDbLinetypeTableRecord
  2
BYBLOCK
 70
     0
  3

 72
    65
 73
     0
 40
0.0
  0
LTYPE
  5
15
330
5
100
AcDbSymbolTableRecord
100
AcDbLinetypeTableRecord
  2
BYLAYER
 70
     0
  3

 72
    65
 73
     0
 40
0.0
  0
LTYPE
  5
16
330
5
100
AcDbSymbolTableRecord
100
AcDbLinetypeTableRecord
  2
CONTINUOUS
 70
     0
  3
Solid line
 72
    65
 73
     0
 40
0.0
  0
ENDTAB
  0
TABLE
  2
LAYER
  5
2
100
AcDbSymbolTable
 70
5
  0
LAYER
  5
50
100
AcDbSymbolTableRecord
100
AcDbLayerTableRecord
  2
0
 70
0
  6
CONTINUOUS
  0
LAYER
  5
51
100
AcDbSymbolTableRecord
100
AcDbLayerTableRecord
  2
Layer_1
 70
0
  6
CONTINUOUS
  0
LAYER
  5
52
100
AcDbSymbolTableRecord
100
AcDbLayerTableRecord
  2
Layer_2
 70
0
  6
CONTINUOUS
  0
LAYER
  5
53
100
AcDbSymbolTableRecord
100
AcDbLayerTableRecord
  2
Layer_3
 70
0
  6
CONTINUOUS
  0
LAYER
  5
54
100
AcDbSymbolTableRecord
100
AcDbLayerTableRecord
  2
Layer_4
 70
0
  6
CONTINUOUS
  0
ENDTAB
  0
TABLE
  2
STYLE
  5
3
330
0
100
AcDbSymbolTable
 70
     1
  0
STYLE
  5
11
330
3
100
AcDbSymbolTableRecord
100
AcDbTextStyleTableRecord
  2
STANDARD
 70
     0
 40
0.0
 41
1.0
 50
0.0
 71
     0
 42
2.5
  3
txt
  4

  0
ENDTAB
  0
TABLE
  2
VIEW
  5
6
330
0
100
AcDbSymbolTable
 70
     0
  0
ENDTAB
  0
TABLE
  2
UCS
  5
7
330
0
100
AcDbSymbolTable
 70
     0
  0
ENDTAB
  0
TABLE
  2
APPID
  5
9
330
0
100
AcDbSymbolTable
 70
     2
  0
APPID
  5
12
330
9
100
AcDbSymbolTableRecord
100
AcDbRegAppTableRecord
  2
ACAD
 70
     0
  0
ENDTAB
  0
TABLE
  2
DIMSTYLE
  5
A
330
0
100
AcDbSymbolTable
 70
     1
  0
DIMSTYLE
105
27
330
A
100
AcDbSymbolTableRecord
100
AcDbDimStyleTableRecord
  2
ISO-25
 70
     0
  3

  4

  5

  6

  7

 40
1.0
 41
2.5
 42
0.625
 43
3.75
 44
1.25
 45
0.0
 46
0.0
 47
0.0
 48
0.0
140
2.5
141
2.5
142
0.0
143
0.03937007874016
144
1.0
145
0.0
146
1.0
147
0.625
 71
     0
 72
     0
 73
     0
 74
     0
 75
     0
 76
     0
 77
     1
 78
     8
170
     0
171
     3
172
     1
173
     0
174
     0
175
     0
176
     0
177
     0
178
     0
270
     2
271
     2
272
     2
273
     2
274
     3
340
11
275
     0
280
     0
281
     0
282
     0
283
     0
284
     8
285
     0
286
     0
287
     3
288
     0
  0
ENDTAB
  0
TABLE
  2
BLOCK_RECORD
  5
1
330
0
100
AcDbSymbolTable
 70
     1
  0
BLOCK_RECORD
  5
1F
330
1
100
AcDbSymbolTableRecord
100
AcDbBlockTableRecord
  2
*MODEL_SPACE
  0
BLOCK_RECORD
  5
1B
330
1
100
AcDbSymbolTableRecord
100
AcDbBlockTableRecord
  2
*PAPER_SPACE
  0
ENDTAB
  0
ENDSEC
  0
SECTION
  2
BLOCKS
  0
BLOCK
  5
20
330
1F
100
AcDbEntity
  8
0
100
AcDbBlockBegin
  2
*MODEL_SPACE
 70
     0
 10
0.0
 20
0.0
 30
0.0
  3
*MODEL_SPACE
  1

  0
ENDBLK
  5
21
330
1F
100
AcDbEntity
  8
0
100
AcDbBlockEnd
  0
BLOCK
  5
1C
330
1B
100
AcDbEntity
 67
     1
  8
0
100
AcDbBlockBegin
  2
*PAPER_SPACE
  1

  0
ENDBLK
  5
1D
330
1B
100
AcDbEntity
 67
     1
  8
0
100
AcDbBlockEnd
  0
ENDSEC
  0
SECTION
  2
ENTITIES
  0
LWPOLYLINE
  5
100
100
AcDbEntity
  8
Layer_2
 62
7
100
AcDbPolyline
 90
121
 70
1
 10
116.756267
 20
173.335797
 30
0.0
 10
131.398402
 20
168.578279
 30
0.0
 10
131.808246
 20
168.375925
 30
0.0
 10
132.143447
 20
168.065183
 30
0.0
 10
132.376217
 20
167.671816
 30
0.0
 10
132.495338
 20
167.068476
 30
0.0
 10
132.495338
 20
156.558644
 30
0.0
 10
138.672861
 20
165.061276
 30
0.0
 10
138.991959
 20
165.388531
 30
0.0
 10
139.391075
 20
165.611302
 30
0.0
 10
139.837118
 20
165.711121
 30
0.0
 10
140.447739
 20
165.637969
 30
0.0
 10
155.089876
 20
160.880451
 30
0.0
 10
155.499721
 20
160.678098
 30
0.0
 10
155.834921
 20
160.367356
 30
0.0
 10
156.067691
 20
159.973989
 30
0.0
 10
156.186812
 20
159.370649
 30
0.0
 10
156.186812
 20
145.128385
 30
0.0
 10
169.732010
 20
140.727282
 30
0.0
 10
169.855997
 20
140.666065
 30
0.0
 10
169.986161
 20
140.619461
 30
0.0
 10
170.059874
 20
140.565404
 30
0.0
 10
170.141855
 20
140.524928
 30
0.0
 10
170.243262
 20
140.430919
 30
0.0
 10
170.354749
 20
140.349163
 30
0.0
 10
170.410010
 20
140.276339
 30
0.0
 10
170.477056
 20
140.214186
 30
0.0
 10
170.547469
 20
140.095192
 30
0.0
 10
170.631048
 20
139.985049
 30
0.0
 10
170.645257
 20
139.929934
 30
0.0
 10
170.709823
 20
139.820819
 30
0.0
 10
170.828944
 20
139.217479
 30
0.0
 10
170.828944
 20
123.821828
 30
0.0
 10
170.763142
 20
123.369512
 30
0.0
 10
170.571194
 20
122.954693
 30
0.0
 10
170.269008
 20
122.611758
 30
0.0
 10
169.881640
 20
122.369138
 30
0.0
 10
169.787578
 20
122.343050
 30
0.0
 10
169.732008
 20
122.312033
 30
0.0
 10
159.736565
 20
119.064315
 30
0.0
 10
169.732008
 20
115.816600
 30
0.0
 10
170.141852
 20
115.614246
 30
0.0
 10
170.477053
 20
115.303504
 30
0.0
 10
170.709823
 20
114.910137
 30
0.0
 10
170.828944
 20
114.306797
 30
0.0
 10
170.828944
 20
98.911145
 30
0.0
 10
170.763142
 20
98.458830
 30
0.0
 10
170.571194
 20
98.044011
 30
0.0
 10
170.269008
 20
97.701076
 30
0.0
 10
169.732008
 20
97.401343
 30
0.0
 10
156.186809
 20
93.000240
 30
0.0
 10
156.186809
 20
78.757976
 30
0.0
 10
156.121007
 20
78.305660
 30
0.0
 10
155.929060
 20
77.890841
 30
0.0
 10
155.626874
 20
77.547907
 30
0.0
 10
155.089873
 20
77.248173
 30
0.0
 10
140.447736
 20
72.490653
 30
0.0
 10
139.997225
 20
72.413461
 30
0.0
 10
139.543393
 20
72.467830
 30
0.0
 10
139.123865
 20
72.649252
 30
0.0
 10
138.672858
 20
73.067347
 30
0.0
 10
132.495335
 20
81.569978
 30
0.0
 10
132.495335
 20
71.060149
 30
0.0
 10
132.429533
 20
70.607833
 30
0.0
 10
132.237586
 20
70.193014
 30
0.0
 10
131.935400
 20
69.850079
 30
0.0
 10
131.398399
 20
69.550346
 30
0.0
 10
116.756265
 20
64.792828
 30
0.0
 10
116.305753
 20
64.715636
 30
0.0
 10
115.851921
 20
64.770005
 30
0.0
 10
115.432393
 20
64.951427
 30
0.0
 10
114.981387
 20
65.369522
 30
0.0
 10
106.609994
 20
76.891758
 30
0.0
 10
93.064790
 20
72.490653
 30
0.0
 10
92.614279
 20
72.413461
 30
0.0
 10
92.160447
 20
72.467830
 30
0.0
 10
91.740919
 20
72.649252
 30
0.0
 10
91.289912
 20
73.067347
 30
0.0
 10
82.240575
 20
85.522692
 30
0.0
 10
82.027945
 20
85.927300
 30
0.0
 10
81.939410
 20
86.375719
 30
0.0
 10
81.982310
 20
86.830778
 30
0.0
 10
82.240575
 20
87.388909
 30
0.0
 10
88.418099
 20
95.891541
 30
0.0
 10
78.422656
 20
92.643825
 30
0.0
 10
77.972145
 20
92.566633
 30
0.0
 10
77.518313
 20
92.621002
 30
0.0
 10
77.098784
 20
92.802424
 30
0.0
 10
76.647778
 20
93.220519
 30
0.0
 10
67.598441
 20
105.675864
 30
0.0
 10
67.385811
 20
106.080473
 30
0.0
 10
67.297276
 20
106.528891
 30
0.0
 10
67.340176
 20
106.983951
 30
0.0
 10
67.598441
 20
107.542081
 30
0.0
 10
75.969836
 20
119.064315
 30
0.0
 10
67.598441
 20
130.586551
 30
0.0
 10
67.385811
 20
130.991160
 30
0.0
 10
67.297276
 20
131.439579
 30
0.0
 10
67.340176
 20
131.894638
 30
0.0
 10
67.598441
 20
132.452769
 30
0.0
 10
76.647778
 20
144.908114
 30
0.0
 10
76.966876
 20
145.235369
 30
0.0
 10
77.365992
 20
145.458138
 30
0.0
 10
77.812035
 20
145.557960
 30
0.0
 10
78.422656
 20
145.484808
 30
0.0
 10
88.418099
 20
142.237092
 30
0.0
 10
82.240575
 20
150.739724
 30
0.0
 10
82.027945
 20
151.144332
 30
0.0
 10
81.939410
 20
151.592751
 30
0.0
 10
81.982310
 20
152.047810
 30
0.0
 10
82.240575
 20
152.605941
 30
0.0
 10
91.289912
 20
165.061284
 30
0.0
 10
91.609011
 20
165.388539
 30
0.0
 10
92.008127
 20
165.611310
 30
0.0
 10
92.454169
 20
165.711129
 30
0.0
 10
93.064790
 20
165.637977
 30
0.0
 10
106.609994
 20
161.236874
 30
0.0
 10
114.981387
 20
172.759111
 30
0.0
 10
115.300485
 20
173.086366
 30
0.0
 10
115.699601
 20
173.309134
 30
0.0
 10
116.145643
 20
173.408956
 30
0.0
  0
LWPOLYLINE
  5
101
100
AcDbEntity
  8
Layer_2
 62
7
100
AcDbPolyline
 90
5
 70
1
 10
109.178622
 20
78.757968
 30
0.0
 10
116.872073
 20
68.168840
 30
0.0
 10
129.320338
 20
72.213528
 30
0.0
 10
129.320338
 20
85.302405
 30
0.0
 10
116.872073
 20
89.347093
 30
0.0
  0
LWPOLYLINE
  5
102
100
AcDbEntity
  8
Layer_2
 62
7
100
AcDbPolyline
 90
5
 70
1
 10
85.487148
 20
86.455792
 30
0.0
 10
93.180598
 20
75.866665
 30
0.0
 10
105.628866
 20
79.911353
 30
0.0
 10
105.628866
 20
93.000232
 30
0.0
 10
93.180598
 20
97.044920
 30
0.0
  0
LWPOLYLINE
  5
103
100
AcDbEntity
  8
Layer_2
 62
7
100
AcDbPolyline
 90
5
 70
1
 10
132.870093
 20
86.455792
 30
0.0
 10
140.563544
 20
75.866665
 30
0.0
 10
153.011812
 20
79.911353
 30
0.0
 10
153.011812
 20
93.000232
 30
0.0
 10
140.563544
 20
97.044920
 30
0.0
  0
LWPOLYLINE
  5
104
100
AcDbEntity
  8
Layer_2
 62
7
100
AcDbPolyline
 90
4
 70
1
 10
108.803866
 20
93.637812
 30
0.0
 10
108.803866
 20
83.643788
 30
0.0
 10
114.678203
 20
91.729118
 30
0.0
 10
114.678203
 20
101.723142
 30
0.0
  0
LWPOLYLINE
  5
105
100
AcDbEntity
  8
Layer_2
 62
7
100
AcDbPolyline
 90
5
 70
1
 10
117.853203
 20
105.455577
 30
0.0
 10
117.853203
 20
92.366698
 30
0.0
 10
130.301468
 20
88.322010
 30
0.0
 10
137.994919
 20
98.911137
 30
0.0
 10
130.301468
 20
109.500265
 30
0.0
  0
LWPOLYLINE
  5
106
100
AcDbEntity
  8
Layer_2
 62
7
100
AcDbPolyline
 90
5
 70
1
 10
70.845013
 20
106.608965
 30
0.0
 10
78.538464
 20
96.019837
 30
0.0
 10
90.986729
 20
100.064525
 30
0.0
 10
90.986729
 20
113.153402
 30
0.0
 10
78.538464
 20
117.198090
 30
0.0
  0
LWPOLYLINE
  5
107
100
AcDbEntity
  8
Layer_2
 62
7
100
AcDbPolyline
 90
5
 70
1
 10
94.161729
 20
113.153402
 30
0.0
 10
94.161729
 20
100.064525
 30
0.0
 10
106.609997
 20
96.019837
 30
0.0
 10
114.303448
 20
106.608965
 30
0.0
 10
106.609997
 20
117.198090
 30
0.0
  0
LWPOLYLINE
  5
108
100
AcDbEntity
  8
Layer_2
 62
7
100
AcDbPolyline
 90
5
 70
1
 10
147.512230
 20
106.608965
 30
0.0
 10
155.205681
 20
96.019837
 30
0.0
 10
167.653946
 20
100.064525
 30
0.0
 10
167.653946
 20
113.153402
 30
0.0
 10
155.205681
 20
117.198090
 30
0.0
  0
LWPOLYLINE
  5
109
100
AcDbEntity
  8
Layer_2
 62
7
100
AcDbPolyline
 90
4
 70
1
 10
140.938303
 20
100.261547
 30
0.0
 10
150.443184
 20
97.173225
 30
0.0
 10
144.568847
 20
105.258555
 30
0.0
 10
135.063966
 20
108.346878
 30
0.0
  0
LWPOLYLINE
  5
10a
100
AcDbEntity
  8
Layer_2
 62
7
100
AcDbPolyline
 90
5
 70
1
 10
109.178622
 20
119.064307
 30
0.0
 10
116.872073
 20
108.475182
 30
0.0
 10
129.320338
 20
112.519870
 30
0.0
 10
129.320338
 20
125.608747
 30
0.0
 10
116.872073
 20
129.653435
 30
0.0
  0
LWPOLYLINE
  5
10b
100
AcDbEntity
  8
Layer_2
 62
7
100
AcDbPolyline
 90
5
 70
1
 10
132.495338
 20
125.608747
 30
0.0
 10
132.495338
 20
112.519870
 30
0.0
 10
144.943605
 20
108.475182
 30
0.0
 10
152.637056
 20
119.064307
 30
0.0
 10
144.943605
 20
129.653435
 30
0.0
  0
LWPOLYLINE
  5
10c
100
AcDbEntity
  8
Layer_2
 62
7
100
AcDbPolyline
 90
4
 70
1
 10
83.069351
 20
119.064307
 30
0.0
 10
92.574229
 20
115.975985
 30
0.0
 10
102.079107
 20
119.064307
 30
0.0
 10
92.574229
 20
122.152632
 30
0.0
  0
LWPOLYLINE
  5
10d
100
AcDbEntity
  8
Layer_2
 62
7
100
AcDbPolyline
 90
5
 70
1
 10
70.845013
 20
131.519652
 30
0.0
 10
78.538464
 20
120.930524
 30
0.0
 10
90.986729
 20
124.975213
 30
0.0
 10
90.986729
 20
138.064092
 30
0.0
 10
78.538464
 20
142.108780
 30
0.0
  0
LWPOLYLINE
  5
10e
100
AcDbEntity
  8
Layer_2
 62
7
100
AcDbPolyline
 90
5
 70
1
 10
94.161729
 20
138.064092
 30
0.0
 10
94.161729
 20
124.975213
 30
0.0
 10
106.609997
 20
120.930524
 30
0.0
 10
114.303448
 20
131.519652
 30
0.0
 10
106.609997
 20
142.108780
 30
0.0
  0
LWPOLYLINE
  5
10f
100
AcDbEntity
  8
Layer_2
 62
7
100
AcDbPolyline
 90
5
 70
1
 10
147.512230
 20
131.519652
 30
0.0
 10
155.205681
 20
120.930524
 30
0.0
 10
167.653946
 20
124.975213
 30
0.0
 10
167.653946
 20
138.064092
 30
0.0
 10
155.205681
 20
142.108780
 30
0.0
  0
LWPOLYLINE
  5
110
100
AcDbEntity
  8
Layer_2
 62
7
100
AcDbPolyline
 90
5
 70
1
 10
117.853203
 20
145.761919
 30
0.0
 10
117.853203
 20
132.673040
 30
0.0
 10
130.301468
 20
128.628352
 30
0.0
 10
137.994919
 20
139.217479
 30
0.0
 10
130.301468
 20
149.806607
 30
0.0
  0
LWPOLYLINE
  5
111
100
AcDbEntity
  8
Layer_2
 62
7
100
AcDbPolyline
 90
4
 70
1
 10
140.938303
 20
137.867070
 30
0.0
 10
135.063966
 20
129.781739
 30
0.0
 10
144.568847
 20
132.870062
 30
0.0
 10
150.443184
 20
140.955392
 30
0.0
  0
LWPOLYLINE
  5
112
100
AcDbEntity
  8
Layer_2
 62
7
100
AcDbPolyline
 90
4
 70
1
 10
108.803866
 20
144.490805
 30
0.0
 10
114.678203
 20
136.405474
 30
0.0
 10
114.678203
 20
146.399496
 30
0.0
 10
108.803866
 20
154.484827
 30
0.0
  0
LWPOLYLINE
  5
113
100
AcDbEntity
  8
Layer_2
 62
7
100
AcDbPolyline
 90
5
 70
1
 10
85.487148
 20
151.672824
 30
0.0
 10
93.180599
 20
141.083697
 30
0.0
 10
105.628866
 20
145.128385
 30
0.0
 10
105.628866
 20
158.217261
 30
0.0
 10
93.180599
 20
162.261950
 30
0.0
  0
LWPOLYLINE
  5
114
100
AcDbEntity
  8
Layer_2
 62
7
100
AcDbPolyline
 90
5
 70
1
 10
132.870093
 20
151.672824
 30
0.0
 10
140.563544
 20
141.083697
 30
0.0
 10
153.011812
 20
145.128385
 30
0.0
 10
153.011812
 20
158.217261
 30
0.0
 10
140.563544
 20
162.261950
 30
0.0
  0
LWPOLYLINE
  5
115
100
AcDbEntity
  8
Layer_2
 62
7
100
AcDbPolyline
 90
5
 70
1
 10
109.178622
 20
159.370649
 30
0.0
 10
116.872073
 20
148.781521
 30
0.0
 10
129.320338
 20
152.826209
 30
0.0
 10
129.320338
 20
165.915089
 30
0.0
 10
116.872073
 20
169.959777
 30
0.0
  0
ENDSEC
  0
SECTION
  2
OBJECTS
  0
DICTIONARY
  5
C
330
0
100
AcDbDictionary
  3
ACAD_GROUP
350
D
  3
ACAD_MLINESTYLE
350
17
  0
DICTIONARY
  5
D
330
C
100
AcDbDictionary
  0
DICTIONARY
  5
1A
330
C
100
AcDbDictionary
  0
DICTIONARY
  5
17
330
C
100
AcDbDictionary
  3
STANDARD
350
18
  0
DICTIONARY
  5
19
330
C
100
AcDbDictionary
  0
ENDSEC
  0
EOF
