  0
SECTION
  2
HEADER
  9
$ACADVER
  1
AC1014
  9
$HANDSEED
  5
FFFF
  9
$INSUNITS
 70
     4
  9
$MEASUREMENT
 70
     1
  0
ENDSEC
  0
SECTION
  2
TABLES
  0
TABLE
  2
VPORT
  5
8
330
0
100
AcDbSymbolTable
 70
     4
  0
VPORT
  5
2E
330
8
100
AcDbSymbolTableRecord
100
AcDbViewportTableRecord
  2
*ACTIVE
 70
     0
 10
0.0
 20
0.0
 11
1.0
 21
1.0
 12
210.0
 22
148.5
 13
0.0
 23
0.0
 14
10.0
 24
10.0
 15
10.0
 25
10.0
 16
0.0
 26
0.0
 36
1.0
 17
0.0
 27
0.0
 37
0.0
 40
341.0
 41
1.24
 42
50.0
 43
0.0
 44
0.0
 50
0.0
 51
0.0
 71
     0
 72
   100
 73
     1
 74
     3
 75
     0
 76
     0
 77
     0
 78
     0
  0
ENDTAB
  0
TABLE
  2
LTYPE
  5
5
330
0
100
AcDbSymbolTable
 70
     1
  0
LTYPE
  5
14
330
5
100
AcDbSymbolTableRecord
100
AcDbLinetypeTableRecord
  2
BYBLOCK
 70
     0
  3

 72
    65
 73
     0
 40
0.0
  0
LTYPE
  5
15
330
5
100
AcDbSymbolTableRecord
100
AcDbLinetypeTableRecord
  2
BYLAYER
 70
     0
  3

 72
    65
 73
     0
 40
0.0
  0
LTYPE
  5
16
330
5
100
AcDbSymbolTableRecord
100
AcDbLinetypeTableRecord
  2
CONTINUOUS
 70
     0
  3
Solid line
 72
    65
 73
     0
 40
0.0
  0
ENDTAB
  0
TABLE
  2
LAYER
  5
2
100
AcDbSymbolTable
 70
5
  0
LAYER
  5
50
100
AcDbSymbolTableRecord
100
AcDbLayerTableRecord
  2
0
 70
0
  6
CONTINUOUS
  0
LAYER
  5
51
100
AcDbSymbolTableRecord
100
AcDbLayerTableRecord
  2
Layer_1
 70
0
  6
CONTINUOUS
  0
LAYER
  5
52
100
AcDbSymbolTableRecord
100
AcDbLayerTableRecord
  2
Layer_2
 70
0
  6
CONTINUOUS
  0
LAYER
  5
53
100
AcDbSymbolTableRecord
100
AcDbLayerTableRecord
  2
Layer_3
 70
0
  6
CONTINUOUS
  0
LAYER
  5
54
100
AcDbSymbolTableRecord
100
AcDbLayerTableRecord
  2
Layer_4
 70
0
  6
CONTINUOUS
  0
ENDTAB
  0
TABLE
  2
STYLE
  5
3
330
0
100
AcDbSymbolTable
 70
     1
  0
STYLE
  5
11
330
3
100
AcDbSymbolTableRecord
100
AcDbTextStyleTableRecord
  2
STANDARD
 70
     0
 40
0.0
 41
1.0
 50
0.0
 71
     0
 42
2.5
  3
txt
  4

  0
ENDTAB
  0
TABLE
  2
VIEW
  5
6
330
0
100
AcDbSymbolTable
 70
     0
  0
ENDTAB
  0
TABLE
  2
UCS
  5
7
330
0
100
AcDbSymbolTable
 70
     0
  0
ENDTAB
  0
TABLE
  2
APPID
  5
9
330
0
100
AcDbSymbolTable
 70
     2
  0
APPID
  5
12
330
9
100
AcDbSymbolTableRecord
100
AcDbRegAppTableRecord
  2
ACAD
 70
     0
  0
ENDTAB
  0
TABLE
  2
DIMSTYLE
  5
A
330
0
100
AcDbSymbolTable
 70
     1
  0
DIMSTYLE
105
27
330
A
100
AcDbSymbolTableRecord
100
AcDbDimStyleTableRecord
  2
ISO-25
 70
     0
  3

  4

  5

  6

  7

 40
1.0
 41
2.5
 42
0.625
 43
3.75
 44
1.25
 45
0.0
 46
0.0
 47
0.0
 48
0.0
140
2.5
141
2.5
142
0.0
143
0.03937007874016
144
1.0
145
0.0
146
1.0
147
0.625
 71
     0
 72
     0
 73
     0
 74
     0
 75
     0
 76
     0
 77
     1
 78
     8
170
     0
171
     3
172
     1
173
     0
174
     0
175
     0
176
     0
177
     0
178
     0
270
     2
271
     2
272
     2
273
     2
274
     3
340
11
275
     0
280
     0
281
     0
282
     0
283
     0
284
     8
285
     0
286
     0
287
     3
288
     0
  0
ENDTAB
  0
TABLE
  2
BLOCK_RECORD
  5
1
330
0
100
AcDbSymbolTable
 70
     1
  0
BLOCK_RECORD
  5
1F
330
1
100
AcDbSymbolTableRecord
100
AcDbBlockTableRecord
  2
*MODEL_SPACE
  0
BLOCK_RECORD
  5
1B
330
1
100
AcDbSymbolTableRecord
100
AcDbBlockTableRecord
  2
*PAPER_SPACE
  0
ENDTAB
  0
ENDSEC
  0
SECTION
  2
BLOCKS
  0
BLOCK
  5
20
330
1F
100
AcDbEntity
  8
0
100
AcDbBlockBegin
  2
*MODEL_SPACE
 70
     0
 10
0.0
 20
0.0
 30
0.0
  3
*MODEL_SPACE
  1

  0
ENDBLK
  5
21
330
1F
100
AcDbEntity
  8
0
100
AcDbBlockEnd
  0
BLOCK
  5
1C
330
1B
100
AcDbEntity
 67
     1
  8
0
100
AcDbBlockBegin
  2
*PAPER_SPACE
  1

  0
ENDBLK
  5
1D
330
1B
100
AcDbEntity
 67
     1
  8
0
100
AcDbBlockEnd
  0
ENDSEC
  0
SECTION
  2
ENTITIES
  0
LWPOLYLINE
  5
100
100
AcDbEntity
  8
Layer_3
 62
7
100
AcDbPolyline
 90
627
 70
1
 10
108.806282
 20
171.803724
 30
0.0
 10
108.983997
 20
171.793961
 30
0.0
 10
109.032371
 20
171.776631
 30
0.0
 10
109.083388
 20
171.770519
 30
0.0
 10
109.246752
 20
171.699872
 30
0.0
 10
109.414323
 20
171.639876
 30
0.0
 10
109.455757
 20
171.609491
 30
0.0
 10
109.502916
 20
171.589091
 30
0.0
 10
109.576174
 20
171.521181
 30
0.0
 10
109.782912
 20
171.369572
 30
0.0
 10
109.885377
 20
171.234539
 30
0.0
 10
109.953922
 20
171.170997
 30
0.0
 10
113.201400
 20
166.701229
 30
0.0
 10
117.358993
 20
165.350343
 30
0.0
 10
120.231712
 20
169.304303
 30
0.0
 10
120.383686
 20
169.460161
 30
0.0
 10
120.533425
 20
169.618049
 30
0.0
 10
120.543055
 20
169.623605
 30
0.0
 10
120.550808
 20
169.631569
 30
0.0
 10
120.740932
 20
169.737688
 30
0.0
 10
120.929408
 20
169.846345
 30
0.0
 10
120.940229
 20
169.848990
 30
0.0
 10
120.949940
 20
169.854414
 30
0.0
 10
121.162331
 20
169.901947
 30
0.0
 10
121.374043
 20
169.952419
 30
0.0
 10
121.385129
 20
169.951889
 30
0.0
 10
121.395977
 20
169.954271
 30
0.0
 10
121.442602
 20
169.948688
 30
0.0
 10
121.830423
 20
169.927389
 30
0.0
 10
121.935983
 20
169.889593
 30
0.0
 10
122.006598
 20
169.881127
 30
0.0
 10
127.751692
 20
168.014433
 30
0.0
 10
127.875678
 20
167.953216
 30
0.0
 10
128.005843
 20
167.906613
 30
0.0
 10
128.079556
 20
167.852556
 30
0.0
 10
128.161537
 20
167.812080
 30
0.0
 10
128.262944
 20
167.718071
 30
0.0
 10
128.374431
 20
167.636314
 30
0.0
 10
128.429692
 20
167.563490
 30
0.0
 10
128.496737
 20
167.501337
 30
0.0
 10
128.567151
 20
167.382343
 30
0.0
 10
128.650730
 20
167.272200
 30
0.0
 10
128.664938
 20
167.217085
 30
0.0
 10
128.729505
 20
167.107971
 30
0.0
 10
128.848625
 20
166.504631
 30
0.0
 10
128.848625
 20
160.463884
 30
0.0
 10
128.782823
 20
160.011568
 30
0.0
 10
128.590876
 20
159.596749
 30
0.0
 10
128.288690
 20
159.253814
 30
0.0
 10
127.901322
 20
159.011194
 30
0.0
 10
127.807260
 20
158.985106
 30
0.0
 10
127.751689
 20
158.954089
 30
0.0
 10
123.103532
 20
157.443810
 30
0.0
 10
123.103532
 20
153.709836
 30
0.0
 10
126.654756
 20
152.555972
 30
0.0
 10
129.527475
 20
156.509932
 30
0.0
 10
129.846573
 20
156.837187
 30
0.0
 10
130.245689
 20
157.059958
 30
0.0
 10
130.691731
 20
157.159777
 30
0.0
 10
131.302353
 20
157.086625
 30
0.0
 10
137.047446
 20
155.219932
 30
0.0
 10
137.457291
 20
155.017578
 30
0.0
 10
137.792492
 20
154.706836
 30
0.0
 10
138.025262
 20
154.313469
 30
0.0
 10
138.144382
 20
153.710129
 30
0.0
 10
138.144382
 20
148.822767
 30
0.0
 10
141.695604
 20
147.668903
 30
0.0
 10
143.890381
 20
150.689754
 30
0.0
 10
141.017659
 20
154.643714
 30
0.0
 10
140.805030
 20
155.048323
 30
0.0
 10
140.716495
 20
155.496742
 30
0.0
 10
140.759394
 20
155.951801
 30
0.0
 10
141.017659
 20
156.509932
 30
0.0
 10
144.568323
 20
161.397000
 30
0.0
 10
144.887421
 20
161.724255
 30
0.0
 10
145.286537
 20
161.947027
 30
0.0
 10
145.732579
 20
162.046846
 30
0.0
 10
146.343201
 20
161.973694
 30
0.0
 10
152.088294
 20
160.106998
 30
0.0
 10
152.498139
 20
159.904644
 30
0.0
 10
152.833340
 20
159.593902
 30
0.0
 10
153.066110
 20
159.200535
 30
0.0
 10
153.185230
 20
158.597195
 30
0.0
 10
153.185230
 20
153.709836
 30
0.0
 10
157.342824
 20
152.358950
 30
0.0
 10
162.597351
 20
154.066251
 30
0.0
 10
163.047863
 20
154.143443
 30
0.0
 10
163.501694
 20
154.089074
 30
0.0
 10
163.921223
 20
153.907651
 30
0.0
 10
164.372229
 20
153.489557
 30
0.0
 10
167.922893
 20
148.602488
 30
0.0
 10
168.135522
 20
148.197880
 30
0.0
 10
168.224057
 20
147.749461
 30
0.0
 10
168.181158
 20
147.294402
 30
0.0
 10
167.922893
 20
146.736271
 30
0.0
 10
164.675415
 20
142.266503
 30
0.0
 10
164.675415
 20
137.894952
 30
0.0
 10
169.323573
 20
136.384673
 30
0.0
 10
169.733418
 20
136.182320
 30
0.0
 10
170.068618
 20
135.871577
 30
0.0
 10
170.301388
 20
135.478210
 30
0.0
 10
170.420509
 20
134.874870
 30
0.0
 10
170.420509
 20
128.834121
 30
0.0
 10
170.354707
 20
128.381805
 30
0.0
 10
170.162760
 20
127.966986
 30
0.0
 10
169.860574
 20
127.624052
 30
0.0
 10
169.323573
 20
127.324318
 30
0.0
 10
163.578479
 20
125.457625
 30
0.0
 10
163.127968
 20
125.380432
 30
0.0
 10
162.674136
 20
125.434802
 30
0.0
 10
162.254607
 20
125.616224
 30
0.0
 10
161.803601
 20
126.034318
 30
0.0
 10
158.930882
 20
129.988278
 30
0.0
 10
155.379661
 20
128.834414
 30
0.0
 10
155.379661
 20
125.100440
 30
0.0
 10
160.027818
 20
123.590161
 30
0.0
 10
160.437663
 20
123.387808
 30
0.0
 10
160.772864
 20
123.077065
 30
0.0
 10
161.005634
 20
122.683699
 30
0.0
 10
161.124754
 20
122.080359
 30
0.0
 10
161.124754
 20
116.039612
 30
0.0
 10
161.058953
 20
115.587296
 30
0.0
 10
160.867005
 20
115.172477
 30
0.0
 10
160.564819
 20
114.829542
 30
0.0
 10
160.027818
 20
114.529809
 30
0.0
 10
155.379661
 20
113.019530
 30
0.0
 10
155.379661
 20
109.285556
 30
0.0
 10
158.930882
 20
108.131692
 30
0.0
 10
161.803601
 20
112.085652
 30
0.0
 10
161.955575
 20
112.241510
 30
0.0
 10
162.105314
 20
112.399397
 30
0.0
 10
162.114944
 20
112.404954
 30
0.0
 10
162.122723
 20
112.412918
 30
0.0
 10
162.312847
 20
112.519037
 30
0.0
 10
162.501323
 20
112.627693
 30
0.0
 10
162.512145
 20
112.630339
 30
0.0
 10
162.521855
 20
112.635763
 30
0.0
 10
162.734247
 20
112.683295
 30
0.0
 10
162.945958
 20
112.733767
 30
0.0
 10
162.957044
 20
112.733238
 30
0.0
 10
162.967892
 20
112.735619
 30
0.0
 10
163.014517
 20
112.730037
 30
0.0
 10
163.402338
 20
112.708738
 30
0.0
 10
163.507899
 20
112.670942
 30
0.0
 10
163.578514
 20
112.662475
 30
0.0
 10
169.323607
 20
110.795782
 30
0.0
 10
169.447594
 20
110.734565
 30
0.0
 10
169.577758
 20
110.687961
 30
0.0
 10
169.651471
 20
110.633904
 30
0.0
 10
169.733452
 20
110.593428
 30
0.0
 10
169.834859
 20
110.499419
 30
0.0
 10
169.946346
 20
110.417663
 30
0.0
 10
170.001607
 20
110.344839
 30
0.0
 10
170.068653
 20
110.282686
 30
0.0
 10
170.139066
 20
110.163692
 30
0.0
 10
170.222646
 20
110.053549
 30
0.0
 10
170.236854
 20
109.998433
 30
0.0
 10
170.301420
 20
109.889319
 30
0.0
 10
170.420541
 20
109.285979
 30
0.0
 10
170.420541
 20
103.245229
 30
0.0
 10
170.354739
 20
102.792914
 30
0.0
 10
170.162792
 20
102.378095
 30
0.0
 10
169.860606
 20
102.035160
 30
0.0
 10
169.473237
 20
101.792540
 30
0.0
 10
169.379175
 20
101.766452
 30
0.0
 10
169.323605
 20
101.735435
 30
0.0
 10
164.675447
 20
100.225156
 30
0.0
 10
164.675447
 20
95.853605
 30
0.0
 10
167.922924
 20
91.383837
 30
0.0
 10
167.968710
 20
91.296710
 30
0.0
 10
168.028213
 20
91.218298
 30
0.0
 10
168.045834
 20
91.149958
 30
0.0
 10
168.135557
 20
90.979228
 30
0.0
 10
168.224092
 20
90.530810
 30
0.0
 10
168.219117
 20
90.477911
 30
0.0
 10
168.226129
 20
90.450728
 30
0.0
 10
168.198938
 20
90.263816
 30
0.0
 10
168.181211
 20
90.075750
 30
0.0
 10
168.167161
 20
90.045397
 30
0.0
 10
168.160335
 20
89.998412
 30
0.0
 10
167.968388
 20
89.583593
 30
0.0
 10
167.936992
 20
89.547965
 30
0.0
 10
167.922943
 20
89.517620
 30
0.0
 10
164.372279
 20
84.630551
 30
0.0
 10
164.240419
 20
84.495320
 30
0.0
 10
164.115530
 20
84.353590
 30
0.0
 10
164.081344
 20
84.332186
 30
0.0
 10
164.053181
 20
84.303304
 30
0.0
 10
163.888240
 20
84.211239
 30
0.0
 10
163.728162
 20
84.110978
 30
0.0
 10
163.689292
 20
84.100183
 30
0.0
 10
163.654065
 20
84.080525
 30
0.0
 10
163.469720
 20
84.039271
 30
0.0
 10
163.287721
 20
83.988778
 30
0.0
 10
163.247393
 20
83.989571
 30
0.0
 10
163.208023
 20
83.980761
 30
0.0
 10
163.114120
 20
83.992006
 30
0.0
 10
162.830722
 20
83.997191
 30
0.0
 10
162.685055
 20
84.043406
 30
0.0
 10
162.597402
 20
84.053910
 30
0.0
 10
157.342874
 20
85.761211
 30
0.0
 10
153.185281
 20
84.410325
 30
0.0
 10
153.185281
 20
79.522966
 30
0.0
 10
153.119479
 20
79.070650
 30
0.0
 10
152.927532
 20
78.655831
 30
0.0
 10
152.625346
 20
78.312896
 30
0.0
 10
152.237977
 20
78.070276
 30
0.0
 10
152.143915
 20
78.044188
 30
0.0
 10
152.088345
 20
78.013171
 30
0.0
 10
146.343251
 20
76.146475
 30
0.0
 10
146.196203
 20
76.121286
 30
0.0
 10
146.052442
 20
76.081403
 30
0.0
 10
145.972022
 20
76.082991
 30
0.0
 10
145.892740
 20
76.069418
 30
0.0
 10
145.744607
 20
76.087171
 30
0.0
 10
145.595443
 20
76.089896
 30
0.0
 10
145.518772
 20
76.114211
 30
0.0
 10
145.438908
 20
76.123789
 30
0.0
 10
145.301973
 20
76.183006
 30
0.0
 10
145.159767
 20
76.228123
 30
0.0
 10
145.093208
 20
76.273282
 30
0.0
 10
145.019379
 20
76.305209
 30
0.0
 10
144.946285
 20
76.372971
 30
0.0
 10
144.781535
 20
76.484753
 30
0.0
 10
144.642840
 20
76.654274
 30
0.0
 10
144.568373
 20
76.723306
 30
0.0
 10
141.017710
 20
81.610375
 30
0.0
 10
140.985409
 20
81.671837
 30
0.0
 10
140.941438
 20
81.725582
 30
0.0
 10
140.879560
 20
81.873257
 30
0.0
 10
140.805080
 20
82.014983
 30
0.0
 10
140.791639
 20
82.083103
 30
0.0
 10
140.764802
 20
82.147148
 30
0.0
 10
140.747552
 20
82.306327
 30
0.0
 10
140.716540
 20
82.463402
 30
0.0
 10
140.723049
 20
82.532535
 30
0.0
 10
140.715561
 20
82.601567
 30
0.0
 10
140.744390
 20
82.759050
 30
0.0
 10
140.759418
 20
82.918461
 30
0.0
 10
140.782834
 20
82.969074
 30
0.0
 10
140.797862
 20
83.051174
 30
0.0
 10
141.004859
 20
83.458690
 30
0.0
 10
141.013722
 20
83.468030
 30
0.0
 10
141.017691
 20
83.476603
 30
0.0
 10
143.890413
 20
87.430562
 30
0.0
 10
141.695636
 20
90.451413
 30
0.0
 10
138.144414
 20
89.297550
 30
0.0
 10
138.144414
 20
84.410188
 30
0.0
 10
138.078612
 20
83.957872
 30
0.0
 10
137.886665
 20
83.543053
 30
0.0
 10
137.584479
 20
83.200118
 30
0.0
 10
137.197110
 20
82.957498
 30
0.0
 10
137.103048
 20
82.931410
 30
0.0
 10
137.047478
 20
82.900393
 30
0.0
 10
131.302384
 20
81.033699
 30
0.0
 10
131.155337
 20
81.008511
 30
0.0
 10
131.011575
 20
80.968628
 30
0.0
 10
130.931155
 20
80.970215
 30
0.0
 10
130.851873
 20
80.956642
 30
0.0
 10
130.703741
 20
80.974396
 30
0.0
 10
130.554577
 20
80.977121
 30
0.0
 10
130.477906
 20
81.001436
 30
0.0
 10
130.398041
 20
81.011014
 30
0.0
 10
130.261114
 20
81.070228
 30
0.0
 10
130.118900
 20
81.115347
 30
0.0
 10
130.052334
 20
81.160514
 30
0.0
 10
129.978512
 20
81.192436
 30
0.0
 10
129.905427
 20
81.260188
 30
0.0
 10
129.740668
 20
81.371977
 30
0.0
 10
129.601971
 20
81.541498
 30
0.0
 10
129.527506
 20
81.610531
 30
0.0
 10
126.654788
 20
85.564491
 30
0.0
 10
123.103563
 20
84.410627
 30
0.0
 10
123.103563
 20
80.676652
 30
0.0
 10
127.751721
 20
79.166373
 30
0.0
 10
127.875707
 20
79.105157
 30
0.0
 10
128.005872
 20
79.058553
 30
0.0
 10
128.079585
 20
79.004496
 30
0.0
 10
128.161566
 20
78.964020
 30
0.0
 10
128.262973
 20
78.870011
 30
0.0
 10
128.374460
 20
78.788255
 30
0.0
 10
128.429721
 20
78.715431
 30
0.0
 10
128.496766
 20
78.653278
 30
0.0
 10
128.567180
 20
78.534284
 30
0.0
 10
128.650759
 20
78.424140
 30
0.0
 10
128.664967
 20
78.369025
 30
0.0
 10
128.729534
 20
78.259911
 30
0.0
 10
128.848654
 20
77.656571
 30
0.0
 10
128.848654
 20
71.615824
 30
0.0
 10
128.782852
 20
71.163508
 30
0.0
 10
128.590905
 20
70.748689
 30
0.0
 10
128.288719
 20
70.405755
 30
0.0
 10
127.901351
 20
70.163134
 30
0.0
 10
127.807289
 20
70.137046
 30
0.0
 10
127.751718
 20
70.106029
 30
0.0
 10
122.006625
 20
68.239336
 30
0.0
 10
121.859577
 20
68.214147
 30
0.0
 10
121.715816
 20
68.174264
 30
0.0
 10
121.635396
 20
68.175852
 30
0.0
 10
121.556113
 20
68.162278
 30
0.0
 10
121.407981
 20
68.180032
 30
0.0
 10
121.258817
 20
68.182757
 30
0.0
 10
121.182146
 20
68.207072
 30
0.0
 10
121.102281
 20
68.216650
 30
0.0
 10
120.965354
 20
68.275864
 30
0.0
 10
120.823141
 20
68.320984
 30
0.0
 10
120.756574
 20
68.366151
 30
0.0
 10
120.682753
 20
68.398072
 30
0.0
 10
120.609667
 20
68.465824
 30
0.0
 10
120.444908
 20
68.577613
 30
0.0
 10
120.306211
 20
68.747135
 30
0.0
 10
120.231747
 20
68.816167
 30
0.0
 10
117.359028
 20
72.770127
 30
0.0
 10
113.201434
 20
71.419241
 30
0.0
 10
109.953957
 20
66.949473
 30
0.0
 10
109.822096
 20
66.814242
 30
0.0
 10
109.697208
 20
66.672513
 30
0.0
 10
109.663021
 20
66.651108
 30
0.0
 10
109.634859
 20
66.622226
 30
0.0
 10
109.469917
 20
66.530162
 30
0.0
 10
109.309839
 20
66.429901
 30
0.0
 10
109.270969
 20
66.419106
 30
0.0
 10
109.235743
 20
66.399447
 30
0.0
 10
109.051397
 20
66.358193
 30
0.0
 10
108.869398
 20
66.307700
 30
0.0
 10
108.829070
 20
66.308494
 30
0.0
 10
108.789700
 20
66.299683
 30
0.0
 10
108.695797
 20
66.310928
 30
0.0
 10
108.412399
 20
66.316114
 30
0.0
 10
108.266733
 20
66.362329
 30
0.0
 10
108.179079
 20
66.372833
 30
0.0
 10
102.433985
 20
68.239526
 30
0.0
 10
102.335896
 20
68.287956
 30
0.0
 10
102.231629
 20
68.321036
 30
0.0
 10
102.132048
 20
68.388603
 30
0.0
 10
102.024140
 20
68.441880
 30
0.0
 10
101.943921
 20
68.516246
 30
0.0
 10
101.853397
 20
68.577666
 30
0.0
 10
101.777189
 20
68.670813
 30
0.0
 10
101.688940
 20
68.752622
 30
0.0
 10
101.633234
 20
68.846764
 30
0.0
 10
101.563964
 20
68.931428
 30
0.0
 10
101.517458
 20
69.042418
 30
0.0
 10
101.456170
 20
69.145989
 30
0.0
 10
101.440242
 20
69.226721
 30
0.0
 10
101.387331
 20
69.352993
 30
0.0
 10
101.353345
 20
69.666845
 30
0.0
 10
101.337047
 20
69.749329
 30
0.0
 10
101.337047
 20
75.273453
 30
0.0
 10
98.767514
 20
78.810112
 30
0.0
 10
94.119356
 20
77.299833
 30
0.0
 10
93.972309
 20
77.274645
 30
0.0
 10
93.828547
 20
77.234762
 30
0.0
 10
93.748127
 20
77.236349
 30
0.0
 10
93.668845
 20
77.222776
 30
0.0
 10
93.520712
 20
77.240530
 30
0.0
 10
93.371548
 20
77.243255
 30
0.0
 10
93.294877
 20
77.267570
 30
0.0
 10
93.215013
 20
77.277148
 30
0.0
 10
93.078086
 20
77.336362
 30
0.0
 10
92.935872
 20
77.381481
 30
0.0
 10
92.869306
 20
77.426648
 30
0.0
 10
92.795484
 20
77.458570
 30
0.0
 10
92.722398
 20
77.526322
 30
0.0
 10
92.557640
 20
77.638111
 30
0.0
 10
92.418942
 20
77.807632
 30
0.0
 10
92.344478
 20
77.876665
 30
0.0
 10
88.793815
 20
82.763733
 30
0.0
 10
88.761514
 20
82.825196
 30
0.0
 10
88.717543
 20
82.878941
 30
0.0
 10
88.655665
 20
83.026615
 30
0.0
 10
88.581185
 20
83.168342
 30
0.0
 10
88.567744
 20
83.236461
 30
0.0
 10
88.540908
 20
83.300506
 30
0.0
 10
88.523683
 20
83.459685
 30
0.0
 10
88.492671
 20
83.616760
 30
0.0
 10
88.499180
 20
83.685893
 30
0.0
 10
88.491719
 20
83.754926
 30
0.0
 10
88.520548
 20
83.912408
 30
0.0
 10
88.535576
 20
84.071820
 30
0.0
 10
88.558992
 20
84.122432
 30
0.0
 10
88.574020
 20
84.204532
 30
0.0
 10
88.781017
 20
84.612049
 30
0.0
 10
88.789880
 20
84.621389
 30
0.0
 10
88.793849
 20
84.629961
 30
0.0
 10
92.344513
 20
89.517029
 30
0.0
 10
92.496487
 20
89.672888
 30
0.0
 10
92.646225
 20
89.830775
 30
0.0
 10
92.655856
 20
89.836331
 30
0.0
 10
92.663608
 20
89.844295
 30
0.0
 10
92.853764
 20
89.950433
 30
0.0
 10
93.042208
 20
90.059071
 30
0.0
 10
93.053003
 20
90.061717
 30
0.0
 10
93.062713
 20
90.067141
 30
0.0
 10
93.275176
 20
90.114686
 30
0.0
 10
93.486814
 20
90.165142
 30
0.0
 10
93.497900
 20
90.164613
 30
0.0
 10
93.508748
 20
90.166994
 30
0.0
 10
93.555373
 20
90.161412
 30
0.0
 10
93.943194
 20
90.140086
 30
0.0
 10
94.048755
 20
90.102290
 30
0.0
 10
94.119369
 20
90.093824
 30
0.0
 10
98.767527
 20
88.583545
 30
0.0
 10
100.962301
 20
91.604396
 30
0.0
 10
98.767527
 20
94.625245
 30
0.0
 10
94.119369
 20
93.114966
 30
0.0
 10
93.668858
 20
93.037774
 30
0.0
 10
93.215026
 20
93.092143
 30
0.0
 10
92.795497
 20
93.273565
 30
0.0
 10
92.344491
 20
93.691660
 30
0.0
 10
88.793828
 20
98.578728
 30
0.0
 10
88.581198
 20
98.983337
 30
0.0
 10
88.492663
 20
99.431755
 30
0.0
 10
88.535563
 20
99.886815
 30
0.0
 10
88.793828
 20
100.444946
 30
0.0
 10
91.666549
 20
104.398905
 30
0.0
 10
89.471773
 20
107.419756
 30
0.0
 10
85.920548
 20
106.265893
 30
0.0
 10
85.920548
 20
101.378531
 30
0.0
 10
85.854746
 20
100.926215
 30
0.0
 10
85.662799
 20
100.511396
 30
0.0
 10
85.360613
 20
100.168461
 30
0.0
 10
84.823612
 20
99.868728
 30
0.0
 10
79.078519
 20
98.002034
 30
0.0
 10
78.628007
 20
97.924842
 30
0.0
 10
78.174175
 20
97.979211
 30
0.0
 10
77.754647
 20
98.160634
 30
0.0
 10
77.303641
 20
98.578728
 30
0.0
 10
73.752980
 20
103.465797
 30
0.0
 10
73.540350
 20
103.870405
 30
0.0
 10
73.451815
 20
104.318824
 30
0.0
 10
73.494715
 20
104.773883
 30
0.0
 10
73.752980
 20
105.332014
 30
0.0
 10
76.625699
 20
109.285974
 30
0.0
 10
74.056166
 20
112.822633
 30
0.0
 10
68.801636
 20
114.529934
 30
0.0
 10
68.391791
 20
114.732287
 30
0.0
 10
68.056591
 20
115.043029
 30
0.0
 10
67.823821
 20
115.436396
 30
0.0
 10
67.704700
 20
116.039736
 30
0.0
 10
67.704700
 20
122.080483
 30
0.0
 10
67.708907
 20
122.109460
 30
0.0
 10
67.705758
 20
122.138567
 30
0.0
 10
67.741734
 20
122.335084
 30
0.0
 10
67.770497
 20
122.532799
 30
0.0
 10
67.782800
 20
122.559371
 30
0.0
 10
67.788065
 20
122.588173
 30
0.0
 10
67.878542
 20
122.766294
 30
0.0
 10
67.962444
 20
122.947618
 30
0.0
 10
67.981811
 20
122.969578
 30
0.0
 10
67.995067
 20
122.995693
 30
0.0
 10
68.132529
 20
123.140637
 30
0.0
 10
68.264635
 20
123.290555
 30
0.0
 10
68.286040
 20
123.302514
 30
0.0
 10
68.309588
 20
123.327358
 30
0.0
 10
68.705574
 20
123.555644
 30
0.0
 10
68.764835
 20
123.569772
 30
0.0
 10
68.801626
 20
123.590304
 30
0.0
 10
74.056155
 20
125.297605
 30
0.0
 10
76.625688
 20
128.834264
 30
0.0
 10
73.752969
 20
132.788223
 30
0.0
 10
73.720669
 20
132.849686
 30
0.0
 10
73.676698
 20
132.903431
 30
0.0
 10
73.614820
 20
133.051106
 30
0.0
 10
73.540340
 20
133.192832
 30
0.0
 10
73.526899
 20
133.260952
 30
0.0
 10
73.500062
 20
133.324997
 30
0.0
 10
73.482811
 20
133.484176
 30
0.0
 10
73.451799
 20
133.641251
 30
0.0
 10
73.458308
 20
133.710384
 30
0.0
 10
73.450820
 20
133.779416
 30
0.0
 10
73.479649
 20
133.936899
 30
0.0
 10
73.494678
 20
134.096310
 30
0.0
 10
73.518093
 20
134.146922
 30
0.0
 10
73.533122
 20
134.229023
 30
0.0
 10
73.740118
 20
134.636539
 30
0.0
 10
73.748982
 20
134.645879
 30
0.0
 10
73.752951
 20
134.654451
 30
0.0
 10
77.303611
 20
139.541520
 30
0.0
 10
77.455586
 20
139.697378
 30
0.0
 10
77.605324
 20
139.855265
 30
0.0
 10
77.614955
 20
139.860822
 30
0.0
 10
77.622707
 20
139.868786
 30
0.0
 10
77.812831
 20
139.974905
 30
0.0
 10
78.001307
 20
140.083561
 30
0.0
 10
78.012129
 20
140.086207
 30
0.0
 10
78.021839
 20
140.091631
 30
0.0
 10
78.234230
 20
140.139163
 30
0.0
 10
78.445942
 20
140.189635
 30
0.0
 10
78.457028
 20
140.189106
 30
0.0
 10
78.467876
 20
140.191487
 30
0.0
 10
78.514501
 20
140.185905
 30
0.0
 10
78.902322
 20
140.164579
 30
0.0
 10
79.007883
 20
140.126784
 30
0.0
 10
79.078497
 20
140.118317
 30
0.0
 10
84.823591
 20
138.251623
 30
0.0
 10
84.947577
 20
138.190407
 30
0.0
 10
85.077742
 20
138.143803
 30
0.0
 10
85.151455
 20
138.089746
 30
0.0
 10
85.233436
 20
138.049270
 30
0.0
 10
85.334843
 20
137.955261
 30
0.0
 10
85.446330
 20
137.873505
 30
0.0
 10
85.501591
 20
137.800681
 30
0.0
 10
85.568637
 20
137.738527
 30
0.0
 10
85.639050
 20
137.619534
 30
0.0
 10
85.722629
 20
137.509390
 30
0.0
 10
85.736837
 20
137.454275
 30
0.0
 10
85.801404
 20
137.345161
 30
0.0
 10
85.920524
 20
136.741821
 30
0.0
 10
85.920524
 20
131.854459
 30
0.0
 10
89.471749
 20
130.700595
 30
0.0
 10
91.666526
 20
133.721446
 30
0.0
 10
88.793804
 20
137.675406
 30
0.0
 10
88.761504
 20
137.736868
 30
0.0
 10
88.717533
 20
137.790613
 30
0.0
 10
88.655655
 20
137.938288
 30
0.0
 10
88.581174
 20
138.080014
 30
0.0
 10
88.567734
 20
138.148134
 30
0.0
 10
88.540897
 20
138.212179
 30
0.0
 10
88.523673
 20
138.371358
 30
0.0
 10
88.492661
 20
138.528433
 30
0.0
 10
88.499169
 20
138.597566
 30
0.0
 10
88.491708
 20
138.666598
 30
0.0
 10
88.520537
 20
138.824081
 30
0.0
 10
88.535566
 20
138.983492
 30
0.0
 10
88.558981
 20
139.034105
 30
0.0
 10
88.574010
 20
139.116205
 30
0.0
 10
88.781006
 20
139.523721
 30
0.0
 10
88.789870
 20
139.533061
 30
0.0
 10
88.793839
 20
139.541634
 30
0.0
 10
92.344502
 20
144.428702
 30
0.0
 10
92.496476
 20
144.584560
 30
0.0
 10
92.646214
 20
144.742448
 30
0.0
 10
92.655845
 20
144.748004
 30
0.0
 10
92.663597
 20
144.755968
 30
0.0
 10
92.853753
 20
144.862105
 30
0.0
 10
93.042198
 20
144.970743
 30
0.0
 10
93.052993
 20
144.973389
 30
0.0
 10
93.062703
 20
144.978813
 30
0.0
 10
93.275166
 20
145.026359
 30
0.0
 10
93.486803
 20
145.076815
 30
0.0
 10
93.497889
 20
145.076286
 30
0.0
 10
93.508737
 20
145.078667
 30
0.0
 10
93.555362
 20
145.073084
 30
0.0
 10
93.943183
 20
145.051759
 30
0.0
 10
94.048744
 20
145.013963
 30
0.0
 10
94.119359
 20
145.005496
 30
0.0
 10
98.767516
 20
143.495218
 30
0.0
 10
100.962291
 20
146.516066
 30
0.0
 10
98.767516
 20
149.536917
 30
0.0
 10
94.119359
 20
148.026639
 30
0.0
 10
93.972311
 20
148.001450
 30
0.0
 10
93.828550
 20
147.961567
 30
0.0
 10
93.748130
 20
147.963154
 30
0.0
 10
93.668847
 20
147.949581
 30
0.0
 10
93.520715
 20
147.967335
 30
0.0
 10
93.371551
 20
147.970060
 30
0.0
 10
93.294880
 20
147.994375
 30
0.0
 10
93.215016
 20
148.003953
 30
0.0
 10
93.078088
 20
148.063167
 30
0.0
 10
92.935875
 20
148.108286
 30
0.0
 10
92.869308
 20
148.153453
 30
0.0
 10
92.795487
 20
148.185375
 30
0.0
 10
92.722401
 20
148.253127
 30
0.0
 10
92.557642
 20
148.364916
 30
0.0
 10
92.418945
 20
148.534437
 30
0.0
 10
92.344481
 20
148.603470
 30
0.0
 10
88.793817
 20
153.490538
 30
0.0
 10
88.761517
 20
153.552001
 30
0.0
 10
88.717546
 20
153.605746
 30
0.0
 10
88.655668
 20
153.753420
 30
0.0
 10
88.581188
 20
153.895147
 30
0.0
 10
88.567747
 20
153.963267
 30
0.0
 10
88.540910
 20
154.027312
 30
0.0
 10
88.523686
 20
154.186490
 30
0.0
 10
88.492674
 20
154.343566
 30
0.0
 10
88.499183
 20
154.412699
 30
0.0
 10
88.491721
 20
154.481731
 30
0.0
 10
88.520550
 20
154.639214
 30
0.0
 10
88.535579
 20
154.798625
 30
0.0
 10
88.558994
 20
154.849237
 30
0.0
 10
88.574023
 20
154.931338
 30
0.0
 10
88.781020
 20
155.338854
 30
0.0
 10
88.789883
 20
155.348194
 30
0.0
 10
88.793852
 20
155.356766
 30
0.0
 10
92.344515
 20
160.243835
 30
0.0
 10
92.496489
 20
160.399693
 30
0.0
 10
92.646227
 20
160.557580
 30
0.0
 10
92.655858
 20
160.563137
 30
0.0
 10
92.663611
 20
160.571101
 30
0.0
 10
92.853767
 20
160.677238
 30
0.0
 10
93.042211
 20
160.785876
 30
0.0
 10
93.053006
 20
160.788522
 30
0.0
 10
93.062716
 20
160.793946
 30
0.0
 10
93.275179
 20
160.841492
 30
0.0
 10
93.486817
 20
160.891948
 30
0.0
 10
93.497903
 20
160.891418
 30
0.0
 10
93.508751
 20
160.893800
 30
0.0
 10
93.555376
 20
160.888217
 30
0.0
 10
93.943196
 20
160.866918
 30
0.0
 10
94.048757
 20
160.829122
 30
0.0
 10
94.119372
 20
160.820656
 30
0.0
 10
98.767530
 20
159.310377
 30
0.0
 10
101.337062
 20
162.847036
 30
0.0
 10
101.337062
 20
168.371975
 30
0.0
 10
101.341269
 20
168.400952
 30
0.0
 10
101.338121
 20
168.430059
 30
0.0
 10
101.374096
 20
168.626576
 30
0.0
 10
101.402859
 20
168.824291
 30
0.0
 10
101.415162
 20
168.850863
 30
0.0
 10
101.420427
 20
168.879666
 30
0.0
 10
101.510904
 20
169.057786
 30
0.0
 10
101.594806
 20
169.239110
 30
0.0
 10
101.614174
 20
169.261070
 30
0.0
 10
101.627429
 20
169.287185
 30
0.0
 10
101.764891
 20
169.432129
 30
0.0
 10
101.896997
 20
169.582047
 30
0.0
 10
101.918402
 20
169.594006
 30
0.0
 10
101.941950
 20
169.618851
 30
0.0
 10
102.337936
 20
169.847136
 30
0.0
 10
102.397198
 20
169.861264
 30
0.0
 10
102.433988
 20
169.881796
 30
0.0
 10
108.179082
 20
171.748490
 30
0.0
 10
108.354514
 20
171.778549
 30
0.0
 10
108.527646
 20
171.819824
 30
0.0
 10
108.578952
 20
171.816993
 30
0.0
 10
108.629593
 20
171.825671
 30
0.0
  0
LWPOLYLINE
  5
101
100
AcDbEntity
  8
Layer_3
 62
7
100
AcDbPolyline
 90
100
 70
1
 10
103.905643
 20
90.253738
 30
0.0
 10
100.658165
 20
85.783970
 30
0.0
 10
100.526305
 20
85.648739
 30
0.0
 10
100.401416
 20
85.507010
 30
0.0
 10
100.367230
 20
85.485605
 30
0.0
 10
100.339067
 20
85.456723
 30
0.0
 10
100.174126
 20
85.364659
 30
0.0
 10
100.014048
 20
85.264397
 30
0.0
 10
99.975178
 20
85.253602
 30
0.0
 10
99.939951
 20
85.233944
 30
0.0
 10
99.755605
 20
85.192690
 30
0.0
 10
99.573607
 20
85.142197
 30
0.0
 10
99.533279
 20
85.142991
 30
0.0
 10
99.493909
 20
85.134180
 30
0.0
 10
99.400005
 20
85.145425
 30
0.0
 10
99.116608
 20
85.150611
 30
0.0
 10
98.970941
 20
85.196826
 30
0.0
 10
98.883287
 20
85.207329
 30
0.0
 10
94.235130
 20
86.717608
 30
0.0
 10
92.040353
 20
83.696757
 30
0.0
 10
94.235130
 20
80.675906
 30
0.0
 10
98.883287
 20
82.186185
 30
0.0
 10
99.058719
 20
82.216244
 30
0.0
 10
99.231852
 20
82.257519
 30
0.0
 10
99.283158
 20
82.254688
 30
0.0
 10
99.333799
 20
82.263366
 30
0.0
 10
99.510525
 20
82.242200
 30
0.0
 10
99.688240
 20
82.232437
 30
0.0
 10
99.736614
 20
82.215106
 30
0.0
 10
99.787631
 20
82.208994
 30
0.0
 10
99.950995
 20
82.138348
 30
0.0
 10
100.118566
 20
82.078351
 30
0.0
 10
100.160000
 20
82.047966
 30
0.0
 10
100.207159
 20
82.027567
 30
0.0
 10
100.280417
 20
81.959656
 30
0.0
 10
100.487155
 20
81.808047
 30
0.0
 10
100.589620
 20
81.673015
 30
0.0
 10
100.658165
 20
81.609472
 30
0.0
 10
104.208829
 20
76.722404
 30
0.0
 10
104.254615
 20
76.635277
 30
0.0
 10
104.314117
 20
76.556865
 30
0.0
 10
104.331738
 20
76.488525
 30
0.0
 10
104.421461
 20
76.317795
 30
0.0
 10
104.512017
 20
75.789295
 30
0.0
 10
104.512017
 20
70.901936
 30
0.0
 10
108.063242
 20
69.748072
 30
0.0
 10
110.935960
 20
73.702032
 30
0.0
 10
111.087935
 20
73.857890
 30
0.0
 10
111.237673
 20
74.015777
 30
0.0
 10
111.247304
 20
74.021334
 30
0.0
 10
111.255056
 20
74.029297
 30
0.0
 10
111.323451
 20
74.065241
 30
0.0
 10
111.633656
 20
74.244073
 30
0.0
 10
111.688734
 20
74.257196
 30
0.0
 10
111.729708
 20
74.278733
 30
0.0
 10
117.474802
 20
76.145427
 30
0.0
 10
117.650234
 20
76.175486
 30
0.0
 10
117.823366
 20
76.216761
 30
0.0
 10
117.874672
 20
76.213930
 30
0.0
 10
117.925313
 20
76.222609
 30
0.0
 10
118.102039
 20
76.201442
 30
0.0
 10
118.279754
 20
76.191679
 30
0.0
 10
118.328128
 20
76.174349
 30
0.0
 10
118.379145
 20
76.168237
 30
0.0
 10
118.542509
 20
76.097590
 30
0.0
 10
118.710080
 20
76.037593
 30
0.0
 10
118.751514
 20
76.007209
 30
0.0
 10
118.798673
 20
75.986809
 30
0.0
 10
118.871931
 20
75.918899
 30
0.0
 10
119.078669
 20
75.767290
 30
0.0
 10
119.181134
 20
75.632257
 30
0.0
 10
119.249679
 20
75.568715
 30
0.0
 10
122.122398
 20
71.614755
 30
0.0
 10
125.673620
 20
72.768619
 30
0.0
 10
125.673620
 20
76.502593
 30
0.0
 10
121.025462
 20
78.012872
 30
0.0
 10
120.927373
 20
78.061301
 30
0.0
 10
120.823106
 20
78.094382
 30
0.0
 10
120.723525
 20
78.161949
 30
0.0
 10
120.615617
 20
78.215225
 30
0.0
 10
120.535398
 20
78.289592
 30
0.0
 10
120.444874
 20
78.351012
 30
0.0
 10
120.368666
 20
78.444159
 30
0.0
 10
120.280417
 20
78.525968
 30
0.0
 10
120.224711
 20
78.620109
 30
0.0
 10
120.155441
 20
78.704773
 30
0.0
 10
120.108935
 20
78.815763
 30
0.0
 10
120.047647
 20
78.919335
 30
0.0
 10
120.031719
 20
79.000067
 30
0.0
 10
119.978808
 20
79.126339
 30
0.0
 10
119.944822
 20
79.440191
 30
0.0
 10
119.928550
 20
79.522675
 30
0.0
 10
119.928550
 20
85.047614
 30
0.0
 10
117.359017
 20
88.584273
 30
0.0
 10
112.710860
 20
87.073994
 30
0.0
 10
112.260348
 20
86.996802
 30
0.0
 10
111.806516
 20
87.051171
 30
0.0
 10
111.386988
 20
87.232593
 30
0.0
 10
110.935982
 20
87.650688
 30
0.0
 10
108.063263
 20
91.604648
 30
0.0
  0
LWPOLYLINE
  5
102
100
AcDbEntity
  8
Layer_3
 62
7
100
AcDbPolyline
 90
103
 70
1
 10
160.821563
 20
105.332242
 30
0.0
 10
160.689703
 20
105.197010
 30
0.0
 10
160.564814
 20
105.055281
 30
0.0
 10
160.530627
 20
105.033876
 30
0.0
 10
160.502465
 20
105.004994
 30
0.0
 10
160.337532
 20
104.912935
 30
0.0
 10
160.177446
 20
104.812669
 30
0.0
 10
160.138570
 20
104.801874
 30
0.0
 10
160.103352
 20
104.782215
 30
0.0
 10
159.919027
 20
104.740964
 30
0.0
 10
159.737004
 20
104.690466
 30
0.0
 10
159.696677
 20
104.691259
 30
0.0
 10
159.657307
 20
104.682449
 30
0.0
 10
159.563403
 20
104.693694
 30
0.0
 10
159.280005
 20
104.698879
 30
0.0
 10
159.134339
 20
104.745094
 30
0.0
 10
159.046685
 20
104.755598
 30
0.0
 10
153.792155
 20
106.462899
 30
0.0
 10
149.634562
 20
105.112013
 30
0.0
 10
149.634562
 20
100.224654
 30
0.0
 10
149.568760
 20
99.772338
 30
0.0
 10
149.376813
 20
99.357519
 30
0.0
 10
149.074627
 20
99.014584
 30
0.0
 10
148.537626
 20
98.714851
 30
0.0
 10
143.889468
 20
97.204572
 30
0.0
 10
143.889468
 20
92.833018
 30
0.0
 10
147.136945
 20
88.363250
 30
0.0
 10
147.182732
 20
88.276123
 30
0.0
 10
147.242234
 20
88.197711
 30
0.0
 10
147.259855
 20
88.129372
 30
0.0
 10
147.349578
 20
87.958642
 30
0.0
 10
147.438113
 20
87.510223
 30
0.0
 10
147.433138
 20
87.457325
 30
0.0
 10
147.440150
 20
87.430142
 30
0.0
 10
147.412959
 20
87.243229
 30
0.0
 10
147.395232
 20
87.055164
 30
0.0
 10
147.381182
 20
87.024811
 30
0.0
 10
147.374356
 20
86.977826
 30
0.0
 10
147.182409
 20
86.563007
 30
0.0
 10
147.151013
 20
86.527378
 30
0.0
 10
147.136964
 20
86.497033
 30
0.0
 10
144.264242
 20
82.543073
 30
0.0
 10
146.459019
 20
79.522222
 30
0.0
 10
150.010244
 20
80.676086
 30
0.0
 10
150.010244
 20
85.563448
 30
0.0
 10
150.014451
 20
85.592425
 30
0.0
 10
150.011302
 20
85.621532
 30
0.0
 10
150.047277
 20
85.818049
 30
0.0
 10
150.076040
 20
86.015764
 30
0.0
 10
150.088343
 20
86.042336
 30
0.0
 10
150.093609
 20
86.071139
 30
0.0
 10
150.184085
 20
86.249259
 30
0.0
 10
150.267987
 20
86.430583
 30
0.0
 10
150.287355
 20
86.452543
 30
0.0
 10
150.300611
 20
86.478658
 30
0.0
 10
150.438072
 20
86.623602
 30
0.0
 10
150.570179
 20
86.773520
 30
0.0
 10
150.591583
 20
86.785479
 30
0.0
 10
150.615131
 20
86.810323
 30
0.0
 10
151.011117
 20
87.038609
 30
0.0
 10
151.070379
 20
87.052737
 30
0.0
 10
151.107169
 20
87.073269
 30
0.0
 10
156.852263
 20
88.939963
 30
0.0
 10
157.027695
 20
88.970022
 30
0.0
 10
157.200828
 20
89.011297
 30
0.0
 10
157.252133
 20
89.008466
 30
0.0
 10
157.302774
 20
89.017144
 30
0.0
 10
157.429372
 20
88.998729
 30
0.0
 10
157.657215
 20
88.986214
 30
0.0
 10
157.754246
 20
88.951475
 30
0.0
 10
157.833391
 20
88.939965
 30
0.0
 10
162.481548
 20
87.429687
 30
0.0
 10
164.676325
 20
90.450538
 30
0.0
 10
161.803604
 20
94.404497
 30
0.0
 10
161.771304
 20
94.465960
 30
0.0
 10
161.727332
 20
94.519705
 30
0.0
 10
161.665454
 20
94.667380
 30
0.0
 10
161.590974
 20
94.809106
 30
0.0
 10
161.580523
 20
94.870050
 30
0.0
 10
161.550681
 20
94.941271
 30
0.0
 10
161.520391
 20
95.220999
 30
0.0
 10
161.500415
 20
95.337606
 30
0.0
 10
161.500415
 20
101.378353
 30
0.0
 10
161.504622
 20
101.407330
 30
0.0
 10
161.501474
 20
101.436437
 30
0.0
 10
161.537449
 20
101.632954
 30
0.0
 10
161.566212
 20
101.830669
 30
0.0
 10
161.578515
 20
101.857241
 30
0.0
 10
161.583780
 20
101.886044
 30
0.0
 10
161.674257
 20
102.064164
 30
0.0
 10
161.758159
 20
102.245488
 30
0.0
 10
161.777527
 20
102.267448
 30
0.0
 10
161.790782
 20
102.293563
 30
0.0
 10
161.928244
 20
102.438507
 30
0.0
 10
162.060350
 20
102.588425
 30
0.0
 10
162.081755
 20
102.600384
 30
0.0
 10
162.105303
 20
102.625229
 30
0.0
 10
162.501289
 20
102.853514
 30
0.0
 10
162.560550
 20
102.867643
 30
0.0
 10
162.597341
 20
102.888174
 30
0.0
 10
167.245498
 20
104.398453
 30
0.0
 10
167.245498
 20
108.132428
 30
0.0
 10
163.694277
 20
109.286291
 30
0.0
  0
LWPOLYLINE
  5
103
100
AcDbEntity
  8
Layer_3
 62
7
100
AcDbPolyline
 90
55
 70
1
 10
125.297957
 20
103.245269
 30
0.0
 10
125.297957
 20
98.357907
 30
0.0
 10
125.232155
 20
97.905591
 30
0.0
 10
125.040207
 20
97.490772
 30
0.0
 10
124.738022
 20
97.147838
 30
0.0
 10
124.201021
 20
96.848105
 30
0.0
 10
119.552866
 20
95.337826
 30
0.0
 10
119.552866
 20
90.966274
 30
0.0
 10
122.122398
 20
87.429615
 30
0.0
 10
126.770556
 20
88.939894
 30
0.0
 10
126.945988
 20
88.969953
 30
0.0
 10
127.119121
 20
89.011228
 30
0.0
 10
127.170426
 20
89.008397
 30
0.0
 10
127.221067
 20
89.017075
 30
0.0
 10
127.397793
 20
88.995909
 30
0.0
 10
127.575508
 20
88.986146
 30
0.0
 10
127.623882
 20
88.968815
 30
0.0
 10
127.674899
 20
88.962704
 30
0.0
 10
127.838263
 20
88.892057
 30
0.0
 10
128.005835
 20
88.832060
 30
0.0
 10
128.047268
 20
88.801676
 30
0.0
 10
128.094428
 20
88.781276
 30
0.0
 10
128.167686
 20
88.713366
 30
0.0
 10
128.374423
 20
88.561757
 30
0.0
 10
128.476888
 20
88.426724
 30
0.0
 10
128.545434
 20
88.363182
 30
0.0
 10
131.418153
 20
84.409222
 30
0.0
 10
134.969377
 20
85.563086
 30
0.0
 10
134.969377
 20
90.450448
 30
0.0
 10
134.973584
 20
90.479425
 30
0.0
 10
134.970435
 20
90.508532
 30
0.0
 10
135.006411
 20
90.705048
 30
0.0
 10
135.035174
 20
90.902764
 30
0.0
 10
135.047477
 20
90.929336
 30
0.0
 10
135.052742
 20
90.958138
 30
0.0
 10
135.143219
 20
91.136258
 30
0.0
 10
135.227121
 20
91.317583
 30
0.0
 10
135.246488
 20
91.339543
 30
0.0
 10
135.259744
 20
91.365657
 30
0.0
 10
135.397206
 20
91.510601
 30
0.0
 10
135.529312
 20
91.660520
 30
0.0
 10
135.550717
 20
91.672479
 30
0.0
 10
135.574265
 20
91.697323
 30
0.0
 10
135.970251
 20
91.925608
 30
0.0
 10
136.029512
 20
91.939737
 30
0.0
 10
136.066302
 20
91.960269
 30
0.0
 10
140.714457
 20
93.470547
 30
0.0
 10
140.714457
 20
97.842099
 30
0.0
 10
138.144925
 20
101.378758
 30
0.0
 10
133.496767
 20
99.868479
 30
0.0
 10
133.046256
 20
99.791287
 30
0.0
 10
132.592424
 20
99.845656
 30
0.0
 10
132.172895
 20
100.027079
 30
0.0
 10
131.721889
 20
100.445173
 30
0.0
 10
128.849170
 20
104.399133
 30
0.0
  0
LWPOLYLINE
  5
104
100
AcDbEntity
  8
Layer_3
 62
7
100
AcDbPolyline
 90
267
 70
1
 10
110.631864
 20
144.648880
 30
0.0
 10
113.504586
 20
140.694921
 30
0.0
 10
113.717216
 20
140.290312
 30
0.0
 10
113.805750
 20
139.841893
 30
0.0
 10
113.762851
 20
139.386834
 30
0.0
 10
113.504586
 20
138.828703
 30
0.0
 10
110.631867
 20
134.874746
 30
0.0
 10
113.504586
 20
130.920786
 30
0.0
 10
113.717216
 20
130.516178
 30
0.0
 10
113.805750
 20
130.067759
 30
0.0
 10
113.762851
 20
129.612700
 30
0.0
 10
113.504586
 20
129.054569
 30
0.0
 10
109.953922
 20
124.167500
 30
0.0
 10
109.634824
 20
123.840245
 30
0.0
 10
109.235708
 20
123.617474
 30
0.0
 10
108.789666
 20
123.517655
 30
0.0
 10
108.179044
 20
123.590807
 30
0.0
 10
103.530884
 20
125.101085
 30
0.0
 10
100.658165
 20
121.147126
 30
0.0
 10
100.339067
 20
120.819870
 30
0.0
 10
99.939951
 20
120.597099
 30
0.0
 10
99.493909
 20
120.497280
 30
0.0
 10
98.883287
 20
120.570432
 30
0.0
 10
94.235130
 20
122.080711
 30
0.0
 10
92.040355
 20
119.059859
 30
0.0
 10
94.235130
 20
116.039011
 30
0.0
 10
98.883287
 20
117.549290
 30
0.0
 10
99.058719
 20
117.579349
 30
0.0
 10
99.231852
 20
117.620624
 30
0.0
 10
99.283158
 20
117.617793
 30
0.0
 10
99.333799
 20
117.626471
 30
0.0
 10
99.510525
 20
117.605305
 30
0.0
 10
99.688240
 20
117.595542
 30
0.0
 10
99.736614
 20
117.578211
 30
0.0
 10
99.787631
 20
117.572099
 30
0.0
 10
99.950995
 20
117.501453
 30
0.0
 10
100.118566
 20
117.441456
 30
0.0
 10
100.160000
 20
117.411071
 30
0.0
 10
100.207159
 20
117.390672
 30
0.0
 10
100.280417
 20
117.322761
 30
0.0
 10
100.487155
 20
117.171153
 30
0.0
 10
100.589620
 20
117.036120
 30
0.0
 10
100.658165
 20
116.972577
 30
0.0
 10
103.530884
 20
113.018618
 30
0.0
 10
108.179044
 20
114.528896
 30
0.0
 10
108.354476
 20
114.558956
 30
0.0
 10
108.527609
 20
114.600231
 30
0.0
 10
108.578915
 20
114.597400
 30
0.0
 10
108.629556
 20
114.606078
 30
0.0
 10
108.806282
 20
114.584911
 30
0.0
 10
108.983997
 20
114.575148
 30
0.0
 10
109.032371
 20
114.557818
 30
0.0
 10
109.083388
 20
114.551706
 30
0.0
 10
109.246752
 20
114.481060
 30
0.0
 10
109.414323
 20
114.421063
 30
0.0
 10
109.455757
 20
114.390678
 30
0.0
 10
109.502916
 20
114.370279
 30
0.0
 10
109.576174
 20
114.302368
 30
0.0
 10
109.782912
 20
114.150759
 30
0.0
 10
109.885377
 20
114.015726
 30
0.0
 10
109.953922
 20
113.952184
 30
0.0
 10
113.504586
 20
109.065116
 30
0.0
 10
113.550372
 20
108.977988
 30
0.0
 10
113.609874
 20
108.899576
 30
0.0
 10
113.627495
 20
108.831237
 30
0.0
 10
113.717218
 20
108.660507
 30
0.0
 10
113.805753
 20
108.212088
 30
0.0
 10
113.800752
 20
108.159190
 30
0.0
 10
113.807764
 20
108.132007
 30
0.0
 10
113.780573
 20
107.945095
 30
0.0
 10
113.762846
 20
107.757029
 30
0.0
 10
113.748796
 20
107.726676
 30
0.0
 10
113.741970
 20
107.679691
 30
0.0
 10
113.550023
 20
107.264872
 30
0.0
 10
113.518627
 20
107.229243
 30
0.0
 10
113.504578
 20
107.198898
 30
0.0
 10
110.631856
 20
103.244938
 30
0.0
 10
113.504578
 20
99.290979
 30
0.0
 10
113.550364
 20
99.203851
 30
0.0
 10
113.609866
 20
99.125439
 30
0.0
 10
113.627487
 20
99.057100
 30
0.0
 10
113.717210
 20
98.886370
 30
0.0
 10
113.805745
 20
98.437951
 30
0.0
 10
113.800744
 20
98.385053
 30
0.0
 10
113.807756
 20
98.357870
 30
0.0
 10
113.780565
 20
98.170958
 30
0.0
 10
113.762838
 20
97.982892
 30
0.0
 10
113.748788
 20
97.952539
 30
0.0
 10
113.741962
 20
97.905554
 30
0.0
 10
113.550015
 20
97.490735
 30
0.0
 10
113.518619
 20
97.455106
 30
0.0
 10
113.504570
 20
97.424761
 30
0.0
 10
110.631851
 20
93.470804
 30
0.0
 10
112.826625
 20
90.449953
 30
0.0
 10
116.377850
 20
91.603817
 30
0.0
 10
116.377850
 20
96.491176
 30
0.0
 10
116.443652
 20
96.943492
 30
0.0
 10
116.635599
 20
97.358311
 30
0.0
 10
116.937785
 20
97.701246
 30
0.0
 10
117.474786
 20
98.000979
 30
0.0
 10
122.122941
 20
99.511257
 30
0.0
 10
122.122941
 20
104.398620
 30
0.0
 10
122.188743
 20
104.850935
 30
0.0
 10
122.380690
 20
105.265754
 30
0.0
 10
122.682876
 20
105.608689
 30
0.0
 10
123.219877
 20
105.908422
 30
0.0
 10
128.964970
 20
107.775116
 30
0.0
 10
129.415482
 20
107.852308
 30
0.0
 10
129.869314
 20
107.797939
 30
0.0
 10
130.288842
 20
107.616517
 30
0.0
 10
130.739848
 20
107.198422
 30
0.0
 10
133.612567
 20
103.244462
 30
0.0
 10
138.260728
 20
104.754741
 30
0.0
 10
138.711239
 20
104.831933
 30
0.0
 10
139.165071
 20
104.777564
 30
0.0
 10
139.584599
 20
104.596142
 30
0.0
 10
140.035605
 20
104.178047
 30
0.0
 10
142.908322
 20
100.224087
 30
0.0
 10
146.459546
 20
101.377951
 30
0.0
 10
146.459546
 20
105.111926
 30
0.0
 10
141.811388
 20
106.622204
 30
0.0
 10
141.713299
 20
106.670634
 30
0.0
 10
141.609032
 20
106.703715
 30
0.0
 10
141.509451
 20
106.771281
 30
0.0
 10
141.401543
 20
106.824558
 30
0.0
 10
141.321324
 20
106.898924
 30
0.0
 10
141.230800
 20
106.960345
 30
0.0
 10
141.154592
 20
107.053491
 30
0.0
 10
141.066343
 20
107.135300
 30
0.0
 10
141.010637
 20
107.229442
 30
0.0
 10
140.941367
 20
107.314106
 30
0.0
 10
140.894861
 20
107.425096
 30
0.0
 10
140.833573
 20
107.528667
 30
0.0
 10
140.817645
 20
107.609399
 30
0.0
 10
140.764734
 20
107.735672
 30
0.0
 10
140.730748
 20
108.049523
 30
0.0
 10
140.714450
 20
108.132007
 30
0.0
 10
140.714450
 20
113.019369
 30
0.0
 10
136.066295
 20
114.529648
 30
0.0
 10
135.968206
 20
114.578077
 30
0.0
 10
135.863939
 20
114.611158
 30
0.0
 10
135.764357
 20
114.678725
 30
0.0
 10
135.656450
 20
114.732001
 30
0.0
 10
135.576231
 20
114.806368
 30
0.0
 10
135.485706
 20
114.867788
 30
0.0
 10
135.409498
 20
114.960934
 30
0.0
 10
135.321249
 20
115.042744
 30
0.0
 10
135.265544
 20
115.136885
 30
0.0
 10
135.196273
 20
115.221549
 30
0.0
 10
135.149767
 20
115.332539
 30
0.0
 10
135.088479
 20
115.436110
 30
0.0
 10
135.072551
 20
115.516843
 30
0.0
 10
135.019640
 20
115.643115
 30
0.0
 10
134.985654
 20
115.956966
 30
0.0
 10
134.969356
 20
116.039450
 30
0.0
 10
134.969356
 20
122.080197
 30
0.0
 10
134.973563
 20
122.109174
 30
0.0
 10
134.970414
 20
122.138281
 30
0.0
 10
135.006390
 20
122.334798
 30
0.0
 10
135.035152
 20
122.532513
 30
0.0
 10
135.047456
 20
122.559085
 30
0.0
 10
135.052721
 20
122.587888
 30
0.0
 10
135.143198
 20
122.766008
 30
0.0
 10
135.227100
 20
122.947332
 30
0.0
 10
135.246467
 20
122.969293
 30
0.0
 10
135.259723
 20
122.995407
 30
0.0
 10
135.397184
 20
123.140351
 30
0.0
 10
135.529291
 20
123.290269
 30
0.0
 10
135.550696
 20
123.302228
 30
0.0
 10
135.574244
 20
123.327073
 30
0.0
 10
135.970230
 20
123.555358
 30
0.0
 10
136.029491
 20
123.569487
 30
0.0
 10
136.066281
 20
123.590018
 30
0.0
 10
140.714436
 20
125.100297
 30
0.0
 10
140.714436
 20
129.987659
 30
0.0
 10
140.718643
 20
130.016636
 30
0.0
 10
140.715495
 20
130.045743
 30
0.0
 10
140.751470
 20
130.242260
 30
0.0
 10
140.780233
 20
130.439975
 30
0.0
 10
140.792536
 20
130.466547
 30
0.0
 10
140.797801
 20
130.495350
 30
0.0
 10
140.888278
 20
130.673470
 30
0.0
 10
140.972180
 20
130.854794
 30
0.0
 10
140.991548
 20
130.876754
 30
0.0
 10
141.004803
 20
130.902869
 30
0.0
 10
141.142265
 20
131.047813
 30
0.0
 10
141.274371
 20
131.197731
 30
0.0
 10
141.295776
 20
131.209690
 30
0.0
 10
141.319324
 20
131.234535
 30
0.0
 10
141.715310
 20
131.462820
 30
0.0
 10
141.774571
 20
131.476948
 30
0.0
 10
141.811362
 20
131.497480
 30
0.0
 10
146.459519
 20
133.007759
 30
0.0
 10
146.459519
 20
136.741731
 30
0.0
 10
142.908295
 20
137.895595
 30
0.0
 10
140.035579
 20
133.941637
 30
0.0
 10
139.903719
 20
133.806406
 30
0.0
 10
139.778830
 20
133.664677
 30
0.0
 10
139.744643
 20
133.643272
 30
0.0
 10
139.716481
 20
133.614390
 30
0.0
 10
139.551548
 20
133.522331
 30
0.0
 10
139.391461
 20
133.422065
 30
0.0
 10
139.352586
 20
133.411270
 30
0.0
 10
139.317368
 20
133.391611
 30
0.0
 10
139.133043
 20
133.350360
 30
0.0
 10
138.951020
 20
133.299861
 30
0.0
 10
138.910692
 20
133.300655
 30
0.0
 10
138.871322
 20
133.291845
 30
0.0
 10
138.777419
 20
133.303089
 30
0.0
 10
138.494021
 20
133.308275
 30
0.0
 10
138.348355
 20
133.354490
 30
0.0
 10
138.260701
 20
133.364994
 30
0.0
 10
133.612541
 20
134.875273
 30
0.0
 10
130.739822
 20
130.921313
 30
0.0
 10
130.607962
 20
130.786082
 30
0.0
 10
130.483073
 20
130.644352
 30
0.0
 10
130.448886
 20
130.622948
 30
0.0
 10
130.420724
 20
130.594066
 30
0.0
 10
130.255783
 20
130.502001
 30
0.0
 10
130.095704
 20
130.401740
 30
0.0
 10
130.056834
 20
130.390945
 30
0.0
 10
130.021608
 20
130.371286
 30
0.0
 10
129.837262
 20
130.330033
 30
0.0
 10
129.655263
 20
130.279540
 30
0.0
 10
129.614935
 20
130.280333
 30
0.0
 10
129.575565
 20
130.271523
 30
0.0
 10
129.481662
 20
130.282767
 30
0.0
 10
129.198264
 20
130.287953
 30
0.0
 10
129.052598
 20
130.334168
 30
0.0
 10
128.964944
 20
130.344672
 30
0.0
 10
123.219850
 20
132.211366
 30
0.0
 10
123.121761
 20
132.259795
 30
0.0
 10
123.017494
 20
132.292876
 30
0.0
 10
122.917913
 20
132.360442
 30
0.0
 10
122.810005
 20
132.413719
 30
0.0
 10
122.729786
 20
132.488085
 30
0.0
 10
122.639262
 20
132.549506
 30
0.0
 10
122.563054
 20
132.642652
 30
0.0
 10
122.474805
 20
132.724462
 30
0.0
 10
122.419099
 20
132.818603
 30
0.0
 10
122.349829
 20
132.903267
 30
0.0
 10
122.303323
 20
133.014257
 30
0.0
 10
122.242035
 20
133.117828
 30
0.0
 10
122.226107
 20
133.198560
 30
0.0
 10
122.173196
 20
133.324833
 30
0.0
 10
122.139210
 20
133.638684
 30
0.0
 10
122.122912
 20
133.721168
 30
0.0
 10
122.122912
 20
138.608530
 30
0.0
 10
117.474757
 20
140.118809
 30
0.0
 10
117.376668
 20
140.167238
 30
0.0
 10
117.272401
 20
140.200319
 30
0.0
 10
117.172819
 20
140.267886
 30
0.0
 10
117.064912
 20
140.321162
 30
0.0
 10
116.984693
 20
140.395529
 30
0.0
 10
116.894168
 20
140.456949
 30
0.0
 10
116.817960
 20
140.550096
 30
0.0
 10
116.729711
 20
140.631905
 30
0.0
 10
116.674006
 20
140.726046
 30
0.0
 10
116.604735
 20
140.810710
 30
0.0
 10
116.558229
 20
140.921700
 30
0.0
 10
116.496941
 20
141.025271
 30
0.0
 10
116.481013
 20
141.106004
 30
0.0
 10
116.428102
 20
141.232276
 30
0.0
 10
116.394116
 20
141.546128
 30
0.0
 10
116.377818
 20
141.628611
 30
0.0
 10
116.377818
 20
146.515971
 30
0.0
 10
112.826594
 20
147.669835
 30
0.0
  0
LWPOLYLINE
  5
105
100
AcDbEntity
  8
Layer_3
 62
7
100
AcDbPolyline
 90
55
 70
1
 10
94.609888
 20
112.822384
 30
0.0
 10
92.040353
 20
109.285725
 30
0.0
 10
94.913074
 20
105.331765
 30
0.0
 10
95.125704
 20
104.927157
 30
0.0
 10
95.214239
 20
104.478738
 30
0.0
 10
95.171339
 20
104.023679
 30
0.0
 10
94.913074
 20
103.465548
 30
0.0
 10
92.040353
 20
99.511588
 30
0.0
 10
94.235130
 20
96.490737
 30
0.0
 10
98.883287
 20
98.001016
 30
0.0
 10
99.333799
 20
98.078208
 30
0.0
 10
99.787631
 20
98.023839
 30
0.0
 10
100.207159
 20
97.842417
 30
0.0
 10
100.658165
 20
97.424322
 30
0.0
 10
103.530884
 20
93.470365
 30
0.0
 10
107.688481
 20
94.821251
 30
0.0
 10
110.258013
 20
98.357907
 30
0.0
 10
107.385294
 20
102.311867
 30
0.0
 10
107.352994
 20
102.373329
 30
0.0
 10
107.309023
 20
102.427074
 30
0.0
 10
107.247145
 20
102.574749
 30
0.0
 10
107.172665
 20
102.716476
 30
0.0
 10
107.159224
 20
102.784595
 30
0.0
 10
107.132387
 20
102.848640
 30
0.0
 10
107.115163
 20
103.007819
 30
0.0
 10
107.084151
 20
103.164894
 30
0.0
 10
107.090660
 20
103.234027
 30
0.0
 10
107.083199
 20
103.303059
 30
0.0
 10
107.112028
 20
103.460542
 30
0.0
 10
107.127056
 20
103.619954
 30
0.0
 10
107.150471
 20
103.670566
 30
0.0
 10
107.165500
 20
103.752666
 30
0.0
 10
107.372497
 20
104.160182
 30
0.0
 10
107.381360
 20
104.169522
 30
0.0
 10
107.385329
 20
104.178095
 30
0.0
 10
110.258050
 20
108.132054
 30
0.0
 10
108.063273
 20
111.152906
 30
0.0
 10
103.415113
 20
109.642627
 30
0.0
 10
103.268066
 20
109.617439
 30
0.0
 10
103.124304
 20
109.577555
 30
0.0
 10
103.043884
 20
109.579143
 30
0.0
 10
102.964602
 20
109.565570
 30
0.0
 10
102.816469
 20
109.583323
 30
0.0
 10
102.667305
 20
109.586048
 30
0.0
 10
102.590634
 20
109.610364
 30
0.0
 10
102.510770
 20
109.619942
 30
0.0
 10
102.373843
 20
109.679155
 30
0.0
 10
102.231629
 20
109.724275
 30
0.0
 10
102.165063
 20
109.769442
 30
0.0
 10
102.091241
 20
109.801364
 30
0.0
 10
102.018155
 20
109.869116
 30
0.0
 10
101.853397
 20
109.980905
 30
0.0
 10
101.714700
 20
110.150426
 30
0.0
 10
101.640235
 20
110.219458
 30
0.0
 10
98.767516
 20
114.173418
 30
0.0
  0
LWPOLYLINE
  5
106
100
AcDbEntity
  8
Layer_3
 62
7
100
AcDbPolyline
 90
71
 70
1
 10
76.999505
 20
133.721065
 30
0.0
 10
79.872224
 20
129.767105
 30
0.0
 10
79.918010
 20
129.679978
 30
0.0
 10
79.977512
 20
129.601566
 30
0.0
 10
79.995133
 20
129.533227
 30
0.0
 10
80.084856
 20
129.362496
 30
0.0
 10
80.173391
 20
128.914078
 30
0.0
 10
80.168390
 20
128.861180
 30
0.0
 10
80.175402
 20
128.833996
 30
0.0
 10
80.148210
 20
128.647084
 30
0.0
 10
80.130483
 20
128.459018
 30
0.0
 10
80.116434
 20
128.428665
 30
0.0
 10
80.109608
 20
128.381681
 30
0.0
 10
79.917660
 20
127.966862
 30
0.0
 10
79.886265
 20
127.931233
 30
0.0
 10
79.872216
 20
127.900888
 30
0.0
 10
76.321555
 20
123.013819
 30
0.0
 10
76.189694
 20
122.878588
 30
0.0
 10
76.064806
 20
122.736859
 30
0.0
 10
76.030619
 20
122.715454
 30
0.0
 10
76.002457
 20
122.686572
 30
0.0
 10
75.890924
 20
122.627959
 30
0.0
 10
75.677437
 20
122.494246
 30
0.0
 10
75.590686
 20
122.470169
 30
0.0
 10
75.527805
 20
122.437123
 30
0.0
 10
70.879647
 20
120.926844
 30
0.0
 10
70.879647
 20
117.192872
 30
0.0
 10
75.527805
 20
115.682593
 30
0.0
 10
75.937650
 20
115.480240
 30
0.0
 10
76.321555
 20
115.105900
 30
0.0
 10
79.872216
 20
110.218831
 30
0.0
 10
80.084845
 20
109.814222
 30
0.0
 10
80.173380
 20
109.365804
 30
0.0
 10
80.130481
 20
108.910744
 30
0.0
 10
79.872216
 20
108.352614
 30
0.0
 10
76.999497
 20
104.398654
 30
0.0
 10
79.194274
 20
101.377803
 30
0.0
 10
82.745495
 20
102.531667
 30
0.0
 10
82.745495
 20
107.419032
 30
0.0
 10
82.811297
 20
107.871347
 30
0.0
 10
83.003244
 20
108.286166
 30
0.0
 10
83.305430
 20
108.629101
 30
0.0
 10
83.842431
 20
108.928834
 30
0.0
 10
89.096961
 20
110.636135
 30
0.0
 10
91.666494
 20
114.172794
 30
0.0
 10
88.793775
 20
118.126751
 30
0.0
 10
88.581145
 20
118.531357
 30
0.0
 10
88.492610
 20
118.979778
 30
0.0
 10
88.535510
 20
119.434838
 30
0.0
 10
88.793775
 20
119.992968
 30
0.0
 10
91.666497
 20
123.946928
 30
0.0
 10
89.096961
 20
127.483587
 30
0.0
 10
83.842431
 20
129.190888
 30
0.0
 10
83.744342
 20
129.239317
 30
0.0
 10
83.640075
 20
129.272398
 30
0.0
 10
83.540494
 20
129.339964
 30
0.0
 10
83.432586
 20
129.393241
 30
0.0
 10
83.352367
 20
129.467607
 30
0.0
 10
83.261843
 20
129.529028
 30
0.0
 10
83.185635
 20
129.622174
 30
0.0
 10
83.097386
 20
129.703983
 30
0.0
 10
83.041681
 20
129.798125
 30
0.0
 10
82.972410
 20
129.882789
 30
0.0
 10
82.925904
 20
129.993779
 30
0.0
 10
82.864616
 20
130.097350
 30
0.0
 10
82.848688
 20
130.178082
 30
0.0
 10
82.795777
 20
130.304355
 30
0.0
 10
82.761791
 20
130.618206
 30
0.0
 10
82.745493
 20
130.700690
 30
0.0
 10
82.745493
 20
135.588052
 30
0.0
 10
79.194271
 20
136.741916
 30
0.0
  0
LWPOLYLINE
  5
107
100
AcDbEntity
  8
Layer_3
 62
7
100
AcDbPolyline
 90
41
 70
1
 10
143.889468
 20
128.834290
 30
0.0
 10
143.889468
 20
123.946928
 30
0.0
 10
143.823666
 20
123.494612
 30
0.0
 10
143.631719
 20
123.079793
 30
0.0
 10
143.329533
 20
122.736859
 30
0.0
 10
142.942164
 20
122.494238
 30
0.0
 10
142.848102
 20
122.468151
 30
0.0
 10
142.792532
 20
122.437133
 30
0.0
 10
138.144377
 20
120.926855
 30
0.0
 10
138.144377
 20
117.192883
 30
0.0
 10
142.792532
 20
115.682604
 30
0.0
 10
142.916518
 20
115.621387
 30
0.0
 10
143.046683
 20
115.574784
 30
0.0
 10
143.120396
 20
115.520727
 30
0.0
 10
143.202377
 20
115.480251
 30
0.0
 10
143.303784
 20
115.386242
 30
0.0
 10
143.415271
 20
115.304485
 30
0.0
 10
143.470532
 20
115.231661
 30
0.0
 10
143.537578
 20
115.169508
 30
0.0
 10
143.607991
 20
115.050514
 30
0.0
 10
143.691570
 20
114.940371
 30
0.0
 10
143.705778
 20
114.885256
 30
0.0
 10
143.770345
 20
114.776142
 30
0.0
 10
143.889465
 20
114.172802
 30
0.0
 10
143.889465
 20
109.285439
 30
0.0
 10
148.047059
 20
107.934554
 30
0.0
 10
152.204653
 20
109.285439
 30
0.0
 10
152.204653
 20
114.172802
 30
0.0
 10
152.270455
 20
114.625117
 30
0.0
 10
152.462402
 20
115.039936
 30
0.0
 10
152.764588
 20
115.382871
 30
0.0
 10
153.301589
 20
115.682604
 30
0.0
 10
157.949747
 20
117.192883
 30
0.0
 10
157.949747
 20
120.926855
 30
0.0
 10
153.301589
 20
122.437133
 30
0.0
 10
152.891744
 20
122.639487
 30
0.0
 10
152.556543
 20
122.950229
 30
0.0
 10
152.323774
 20
123.343596
 30
0.0
 10
152.204653
 20
123.946936
 30
0.0
 10
152.204653
 20
128.834298
 30
0.0
 10
148.047059
 20
130.185184
 30
0.0
  0
LWPOLYLINE
  5
108
100
AcDbEntity
  8
Layer_3
 62
7
100
AcDbPolyline
 90
52
 70
1
 10
100.658165
 20
140.695400
 30
0.0
 10
100.526305
 20
140.560168
 30
0.0
 10
100.401416
 20
140.418439
 30
0.0
 10
100.367230
 20
140.397034
 30
0.0
 10
100.339067
 20
140.368152
 30
0.0
 10
100.174126
 20
140.276088
 30
0.0
 10
100.014048
 20
140.175827
 30
0.0
 10
99.975178
 20
140.165032
 30
0.0
 10
99.939951
 20
140.145373
 30
0.0
 10
99.755605
 20
140.104119
 30
0.0
 10
99.573607
 20
140.053626
 30
0.0
 10
99.533279
 20
140.054420
 30
0.0
 10
99.493909
 20
140.045609
 30
0.0
 10
99.400005
 20
140.056854
 30
0.0
 10
99.116608
 20
140.062040
 30
0.0
 10
98.970941
 20
140.108255
 30
0.0
 10
98.883287
 20
140.118759
 30
0.0
 10
94.235130
 20
141.629037
 30
0.0
 10
92.040353
 20
138.608186
 30
0.0
 10
94.913074
 20
134.654227
 30
0.0
 10
94.958860
 20
134.567099
 30
0.0
 10
95.018363
 20
134.488687
 30
0.0
 10
95.035984
 20
134.420348
 30
0.0
 10
95.125707
 20
134.249618
 30
0.0
 10
95.214242
 20
133.801199
 30
0.0
 10
95.209241
 20
133.748301
 30
0.0
 10
95.216252
 20
133.721118
 30
0.0
 10
95.189061
 20
133.534206
 30
0.0
 10
95.171334
 20
133.346140
 30
0.0
 10
95.157285
 20
133.315787
 30
0.0
 10
95.150458
 20
133.268802
 30
0.0
 10
94.958511
 20
132.853983
 30
0.0
 10
94.927116
 20
132.818354
 30
0.0
 10
94.913066
 20
132.788009
 30
0.0
 10
92.040345
 20
128.834049
 30
0.0
 10
94.609880
 20
125.297390
 30
0.0
 10
98.767474
 20
123.946505
 30
0.0
 10
101.640193
 20
127.900464
 30
0.0
 10
101.959291
 20
128.227720
 30
0.0
 10
102.358407
 20
128.450491
 30
0.0
 10
102.804449
 20
128.550310
 30
0.0
 10
103.415071
 20
128.477158
 30
0.0
 10
108.063231
 20
126.966879
 30
0.0
 10
110.258008
 20
129.987731
 30
0.0
 10
107.385287
 20
133.941690
 30
0.0
 10
107.172657
 20
134.346299
 30
0.0
 10
107.084122
 20
134.794718
 30
0.0
 10
107.127021
 20
135.249777
 30
0.0
 10
107.385287
 20
135.807908
 30
0.0
 10
110.258005
 20
139.761865
 30
0.0
 10
107.688473
 20
143.298524
 30
0.0
 10
103.530876
 20
144.649410
 30
0.0
  0
LWPOLYLINE
  5
109
100
AcDbEntity
  8
Layer_3
 62
7
100
AcDbPolyline
 90
52
 70
1
 10
144.264224
 20
155.576699
 30
0.0
 10
147.136945
 20
151.622739
 30
0.0
 10
147.349575
 20
151.218130
 30
0.0
 10
147.438110
 20
150.769712
 30
0.0
 10
147.395210
 20
150.314652
 30
0.0
 10
147.136945
 20
149.756521
 30
0.0
 10
143.889468
 20
145.286754
 30
0.0
 10
143.889468
 20
140.915199
 30
0.0
 10
148.537626
 20
139.404921
 30
0.0
 10
148.661612
 20
139.343704
 30
0.0
 10
148.791777
 20
139.297100
 30
0.0
 10
148.865489
 20
139.243043
 30
0.0
 10
148.947471
 20
139.202567
 30
0.0
 10
149.048877
 20
139.108558
 30
0.0
 10
149.160365
 20
139.026802
 30
0.0
 10
149.215626
 20
138.953978
 30
0.0
 10
149.282671
 20
138.891825
 30
0.0
 10
149.353085
 20
138.772831
 30
0.0
 10
149.436664
 20
138.662688
 30
0.0
 10
149.450872
 20
138.607572
 30
0.0
 10
149.515438
 20
138.498458
 30
0.0
 10
149.634559
 20
137.895118
 30
0.0
 10
149.634559
 20
133.007759
 30
0.0
 10
153.792153
 20
131.656873
 30
0.0
 10
159.046683
 20
133.364174
 30
0.0
 10
159.497194
 20
133.441366
 30
0.0
 10
159.951026
 20
133.386997
 30
0.0
 10
160.370554
 20
133.205575
 30
0.0
 10
160.821560
 20
132.787480
 30
0.0
 10
163.694279
 20
128.833520
 30
0.0
 10
167.245501
 20
129.987384
 30
0.0
 10
167.245501
 20
133.721359
 30
0.0
 10
162.597343
 20
135.231637
 30
0.0
 10
162.187498
 20
135.433991
 30
0.0
 10
161.852298
 20
135.744733
 30
0.0
 10
161.619528
 20
136.138100
 30
0.0
 10
161.500407
 20
136.741440
 30
0.0
 10
161.500407
 20
142.782187
 30
0.0
 10
161.566209
 20
143.234503
 30
0.0
 10
161.803593
 20
143.715295
 30
0.0
 10
164.676315
 20
147.669255
 30
0.0
 10
162.481538
 20
150.690106
 30
0.0
 10
157.833380
 20
149.179828
 30
0.0
 10
157.382869
 20
149.102635
 30
0.0
 10
156.852252
 20
149.179828
 30
0.0
 10
151.107159
 20
151.046521
 30
0.0
 10
150.697314
 20
151.248875
 30
0.0
 10
150.362113
 20
151.559617
 30
0.0
 10
150.129343
 20
151.952984
 30
0.0
 10
150.010222
 20
152.556324
 30
0.0
 10
150.010222
 20
157.443686
 30
0.0
 10
146.458998
 20
158.597550
 30
0.0
  0
LWPOLYLINE
  5
10a
100
AcDbEntity
  8
Layer_3
 62
7
100
AcDbPolyline
 90
51
 70
1
 10
128.545434
 20
149.756521
 30
0.0
 10
128.226336
 20
149.429266
 30
0.0
 10
127.827220
 20
149.206495
 30
0.0
 10
127.381177
 20
149.106676
 30
0.0
 10
126.770556
 20
149.179828
 30
0.0
 10
122.122398
 20
150.690106
 30
0.0
 10
119.552866
 20
147.153447
 30
0.0
 10
119.552866
 20
142.781893
 30
0.0
 10
124.201021
 20
141.271614
 30
0.0
 10
124.325007
 20
141.210398
 30
0.0
 10
124.455171
 20
141.163794
 30
0.0
 10
124.528884
 20
141.109737
 30
0.0
 10
124.610865
 20
141.069261
 30
0.0
 10
124.712272
 20
140.975252
 30
0.0
 10
124.823760
 20
140.893496
 30
0.0
 10
124.879021
 20
140.820672
 30
0.0
 10
124.946066
 20
140.758519
 30
0.0
 10
125.016480
 20
140.639525
 30
0.0
 10
125.100059
 20
140.529381
 30
0.0
 10
125.114267
 20
140.474266
 30
0.0
 10
125.178833
 20
140.365152
 30
0.0
 10
125.297954
 20
139.761812
 30
0.0
 10
125.297954
 20
134.874452
 30
0.0
 10
128.849178
 20
133.720589
 30
0.0
 10
131.721897
 20
137.674548
 30
0.0
 10
131.873871
 20
137.830407
 30
0.0
 10
132.023609
 20
137.988294
 30
0.0
 10
132.033240
 20
137.993850
 30
0.0
 10
132.041019
 20
138.001814
 30
0.0
 10
132.231175
 20
138.107952
 30
0.0
 10
132.419619
 20
138.216590
 30
0.0
 10
132.430414
 20
138.219236
 30
0.0
 10
132.440124
 20
138.224660
 30
0.0
 10
132.652587
 20
138.272205
 30
0.0
 10
132.864225
 20
138.322661
 30
0.0
 10
132.875311
 20
138.322132
 30
0.0
 10
132.886159
 20
138.324513
 30
0.0
 10
132.932784
 20
138.318931
 30
0.0
 10
133.320605
 20
138.297605
 30
0.0
 10
133.426166
 20
138.259809
 30
0.0
 10
133.496780
 20
138.251343
 30
0.0
 10
138.144941
 20
136.741064
 30
0.0
 10
140.714471
 20
140.277720
 30
0.0
 10
140.714471
 20
144.649275
 30
0.0
 10
136.066316
 20
146.159553
 30
0.0
 10
135.656471
 20
146.361907
 30
0.0
 10
135.321270
 20
146.672649
 30
0.0
 10
135.088500
 20
147.066016
 30
0.0
 10
134.969380
 20
147.669356
 30
0.0
 10
134.969380
 20
152.556718
 30
0.0
 10
131.418155
 20
153.710582
 30
0.0
  0
LWPOLYLINE
  5
10b
100
AcDbEntity
  8
Layer_3
 62
7
100
AcDbPolyline
 90
100
 70
1
 10
104.512015
 20
167.217820
 30
0.0
 10
104.512015
 20
162.330461
 30
0.0
 10
104.446213
 20
161.878145
 30
0.0
 10
104.254266
 20
161.463326
 30
0.0
 10
104.225011
 20
161.430126
 30
0.0
 10
104.208818
 20
161.397352
 30
0.0
 10
100.658155
 20
156.510284
 30
0.0
 10
100.526294
 20
156.375052
 30
0.0
 10
100.401406
 20
156.233323
 30
0.0
 10
100.367219
 20
156.211918
 30
0.0
 10
100.339057
 20
156.183036
 30
0.0
 10
100.174115
 20
156.090972
 30
0.0
 10
100.014037
 20
155.990711
 30
0.0
 10
99.975167
 20
155.979916
 30
0.0
 10
99.939941
 20
155.960257
 30
0.0
 10
99.755595
 20
155.919003
 30
0.0
 10
99.573596
 20
155.868510
 30
0.0
 10
99.533268
 20
155.869304
 30
0.0
 10
99.493898
 20
155.860493
 30
0.0
 10
99.399995
 20
155.871738
 30
0.0
 10
99.116597
 20
155.876924
 30
0.0
 10
98.970931
 20
155.923139
 30
0.0
 10
98.883277
 20
155.933643
 30
0.0
 10
94.235119
 20
157.443921
 30
0.0
 10
92.040342
 20
154.423070
 30
0.0
 10
94.235119
 20
151.402219
 30
0.0
 10
98.883277
 20
152.912498
 30
0.0
 10
99.058709
 20
152.942557
 30
0.0
 10
99.231842
 20
152.983832
 30
0.0
 10
99.283147
 20
152.981001
 30
0.0
 10
99.333788
 20
152.989680
 30
0.0
 10
99.510514
 20
152.968513
 30
0.0
 10
99.688229
 20
152.958750
 30
0.0
 10
99.736603
 20
152.941420
 30
0.0
 10
99.787620
 20
152.935308
 30
0.0
 10
99.950984
 20
152.864661
 30
0.0
 10
100.118556
 20
152.804664
 30
0.0
 10
100.159989
 20
152.774280
 30
0.0
 10
100.207149
 20
152.753880
 30
0.0
 10
100.280406
 20
152.685970
 30
0.0
 10
100.487144
 20
152.534361
 30
0.0
 10
100.589609
 20
152.399328
 30
0.0
 10
100.658155
 20
152.335786
 30
0.0
 10
103.905632
 20
147.866018
 30
0.0
 10
108.063228
 20
146.515132
 30
0.0
 10
110.935947
 20
150.469092
 30
0.0
 10
111.255045
 20
150.796347
 30
0.0
 10
111.654161
 20
151.019118
 30
0.0
 10
112.100204
 20
151.118938
 30
0.0
 10
112.710825
 20
151.045786
 30
0.0
 10
117.358983
 20
149.535507
 30
0.0
 10
119.928516
 20
153.072166
 30
0.0
 10
119.928516
 20
158.597105
 30
0.0
 10
119.932723
 20
158.626082
 30
0.0
 10
119.929574
 20
158.655189
 30
0.0
 10
119.965549
 20
158.851706
 30
0.0
 10
119.994312
 20
159.049421
 30
0.0
 10
120.006615
 20
159.075993
 30
0.0
 10
120.011881
 20
159.104796
 30
0.0
 10
120.102357
 20
159.282916
 30
0.0
 10
120.186259
 20
159.464240
 30
0.0
 10
120.205627
 20
159.486200
 30
0.0
 10
120.218883
 20
159.512315
 30
0.0
 10
120.356344
 20
159.657259
 30
0.0
 10
120.488451
 20
159.807177
 30
0.0
 10
120.509855
 20
159.819136
 30
0.0
 10
120.533403
 20
159.843981
 30
0.0
 10
120.929389
 20
160.072266
 30
0.0
 10
120.988651
 20
160.086395
 30
0.0
 10
121.025441
 20
160.106926
 30
0.0
 10
125.673599
 20
161.617205
 30
0.0
 10
125.673599
 20
165.351180
 30
0.0
 10
122.122377
 20
166.505043
 30
0.0
 10
119.249658
 20
162.551084
 30
0.0
 10
119.117798
 20
162.415852
 30
0.0
 10
118.992909
 20
162.274123
 30
0.0
 10
118.958722
 20
162.252718
 30
0.0
 10
118.930560
 20
162.223836
 30
0.0
 10
118.765627
 20
162.131777
 30
0.0
 10
118.605541
 20
162.031511
 30
0.0
 10
118.566666
 20
162.020716
 30
0.0
 10
118.531447
 20
162.001057
 30
0.0
 10
118.347122
 20
161.959806
 30
0.0
 10
118.165099
 20
161.909308
 30
0.0
 10
118.124772
 20
161.910101
 30
0.0
 10
118.085402
 20
161.901291
 30
0.0
 10
117.991498
 20
161.912535
 30
0.0
 10
117.708101
 20
161.917721
 30
0.0
 10
117.562434
 20
161.963936
 30
0.0
 10
117.474780
 20
161.974440
 30
0.0
 10
111.729687
 20
163.841134
 30
0.0
 10
111.631598
 20
163.889563
 30
0.0
 10
111.527331
 20
163.922644
 30
0.0
 10
111.427749
 20
163.990211
 30
0.0
 10
111.319842
 20
164.043487
 30
0.0
 10
111.252619
 20
164.109035
 30
0.0
 10
111.149098
 20
164.179274
 30
0.0
 10
111.024882
 20
164.331100
 30
0.0
 10
110.935937
 20
164.417827
 30
0.0
 10
108.063218
 20
168.371787
 30
0.0
  0
ENDSEC
  0
SECTION
  2
OBJECTS
  0
DICTIONARY
  5
C
330
0
100
AcDbDictionary
  3
ACAD_GROUP
350
D
  3
ACAD_MLINESTYLE
350
17
  0
DICTIONARY
  5
D
330
C
100
AcDbDictionary
  0
DICTIONARY
  5
1A
330
C
100
AcDbDictionary
  0
DICTIONARY
  5
17
330
C
100
AcDbDictionary
  3
STANDARD
350
18
  0
DICTIONARY
  5
19
330
C
100
AcDbDictionary
  0
ENDSEC
  0
EOF
