<svg version="1.1" xmlns="http://www.w3.org/2000/svg" xmlns:xlink="http://www.w3.org/1999/xlink" width="900" height="900"><defs/><g><rect fill="#000000" stroke="none" x="0" y="0" width="900" height="900"/><path fill="#222222" stroke="#cccccc" paint-order="fill stroke markers" d=" M 227.97515 37.07454 L 229.16044 37.83575 L 229.67615 38.41712 L 247.32337 62.70644 L 275.87719 53.42874 L 276.28175 53.37291 L 276.67339 53.25723 L 276.9741 53.27735 L 277.27264 53.23615 L 277.67142 53.32401 L 278.07893 53.35128 L 278.35404 53.47441 L 278.64832 53.53925 L 278.99192 53.75991 L 279.3647 53.92676 L 279.58006 54.13762 L 279.83362 54.30046 L 280.34933 54.88183 L 297.99656 79.17115 L 326.55038 69.89346 L 327.94583 69.70087 L 329.32152 70.00397 L 330.50681 70.76518 L 331.02252 71.34655 L 348.66974 95.63587 L 377.22356 86.35817 L 378.61901 86.16558 L 379.99469 86.46868 L 381.17999 87.22989 L 381.6957 87.81126 L 401.05114 114.45173 L 401.66553 115.71936 L 401.80237 117.12138 L 401.44469 118.48389 L 401.05114 119.15401 L 388.93177 135.83488 L 408.54131 129.46336 L 408.94587 129.40753 L 409.33751 129.29185 L 409.63822 129.31197 L 409.93676 129.27077 L 410.33554 129.35863 L 410.74305 129.3859 L 411.01815 129.50903 L 411.31245 129.57387 L 411.65606 129.79454 L 412.02882 129.96138 L 412.24417 130.17224 L 412.49774 130.33508 L 413.01345 130.91645 L 432.36889 157.55692 L 432.37719 157.57404 L 432.3908 157.58737 L 432.40466 157.63073 L 432.98328 158.82455 L 433.06979 159.71094 L 433.13282 159.90806 L 433.10449 160.06643 L 433.12012 160.22657 L 432.98114 160.75597 L 432.88477 161.29473 L 432.80329 161.43347 L 432.76244 161.58908 L 432.36889 162.2592 L 414.72165 186.54853 L 432.36889 210.83786 L 432.37719 210.85498 L 432.3908 210.86831 L 432.40466 210.91167 L 432.98328 212.10549 L 433.06979 212.99188 L 433.13282 213.189 L 433.10449 213.34737 L 433.12012 213.50751 L 432.98114 214.03691 L 432.88477 214.57567 L 432.80329 214.71441 L 432.76244 214.87002 L 432.36889 215.54014 L 414.72165 239.82947 L 432.36889 264.1188 L 432.37719 264.13592 L 432.3908 264.14925 L 432.40466 264.19261 L 432.98328 265.38643 L 433.06979 266.27282 L 433.13282 266.46994 L 433.10449 266.62831 L 433.12012 266.78845 L 432.98114 267.31785 L 432.88477 267.85661 L 432.80329 267.99535 L 432.76244 268.15096 L 432.36889 268.82108 L 414.72165 293.11041 L 432.36889 317.39974 L 432.98328 318.66737 L 433.12012 320.06939 L 432.76244 321.4319 L 432.36889 322.10202 L 413.01345 348.74249 L 411.99771 349.71853 L 410.7066 350.28192 L 409.30024 350.36279 L 408.54131 350.19558 L 388.93177 343.82406 L 401.05114 360.50493 L 401.66553 361.77256 L 401.80237 363.17458 L 401.44469 364.53709 L 401.05114 365.20721 L 381.6957 391.84768 L 380.67996 392.82372 L 379.38885 393.38711 L 377.98249 393.46798 L 377.22356 393.30077 L 348.66974 384.02307 L 331.02252 408.31239 L 330.90652 408.42386 L 330.82503 408.56261 L 330.4014 408.90924 L 330.00678 409.28843 L 329.85932 409.35277 L 329.73479 409.45467 L 329.21728 409.63294 L 328.71567 409.85182 L 328.55505 409.86106 L 328.40292 409.91346 L 327.8557 409.90127 L 327.30932 409.93269 L 327.08922 409.8842 L 326.99459 409.88209 L 326.88737 409.83973 L 326.55038 409.76548 L 297.99656 400.48779 L 280.34933 424.77711 L 280.23333 424.88858 L 280.15184 425.02733 L 279.72821 425.37396 L 279.33359 425.75315 L 279.18613 425.81749 L 279.0616 425.91939 L 278.54409 426.09766 L 278.04248 426.31654 L 277.88186 426.32578 L 277.72973 426.37818 L 277.18251 426.36599 L 276.63612 426.39741 L 276.41602 426.34892 L 276.3214 426.34681 L 276.21419 426.30445 L 275.87719 426.2302 L 247.32337 416.9525 L 229.67615 441.24182 L 228.66041 442.21786 L 227.3693 442.78125 L 225.96295 442.86212 L 225.20401 442.69491 L 193.88626 432.51916 L 192.64411 431.85475 L 191.70932 430.80092 L 191.19782 429.48839 L 191.12233 428.71493 L 191.12233 408.09623 L 179.00296 424.77711 L 177.98722 425.75315 L 176.69611 426.31654 L 175.28975 426.39741 L 174.53082 426.2302 L 143.21307 416.05444 L 141.97092 415.39003 L 141.03613 414.3362 L 140.52463 413.02367 L 140.44914 412.25021 L 140.44914 382.22696 L 111.89532 372.94926 L 111.47388 372.72384 L 111.02941 372.54822 L 110.85712 372.39394 L 110.65317 372.28485 L 110.33602 371.92731 L 109.97999 371.6085 L 109.87186 371.40404 L 109.71838 371.23102 L 109.54484 370.7857 L 109.32141 370.36324 L 109.29087 370.134 L 109.20688 369.91849 L 109.13139 369.14503 L 109.13139 339.12177 L 80.57757 329.84407 L 80.15613 329.61865 L 79.71166 329.44303 L 79.53937 329.28875 L 79.33542 329.17966 L 79.01827 328.82212 L 78.66224 328.50331 L 78.55411 328.29885 L 78.40063 328.12583 L 78.22709 327.68051 L 78.00366 327.25805 L 77.97312 327.02881 L 77.88913 326.8133 L 77.81364 326.03984 L 77.81364 296.01659 L 49.25982 286.73889 L 48.01767 286.07448 L 47.08288 285.02065 L 46.57138 283.70812 L 46.49589 282.93466 L 46.49589 250.00522 L 46.74394 248.61855 L 47.45731 247.40386 L 48.54755 246.5118 L 49.25982 246.20099 L 68.86935 239.82947 L 49.25982 233.45795 L 48.83838 233.23253 L 48.39391 233.05691 L 48.22162 232.90263 L 48.01767 232.79354 L 47.70052 232.436 L 47.34449 232.11719 L 47.23636 231.91273 L 47.08288 231.73971 L 46.90934 231.29439 L 46.68591 230.87193 L 46.65537 230.64269 L 46.57138 230.42718 L 46.49589 229.65372 L 46.49589 196.72428 L 46.51177 196.63552 L 46.49986 196.54616 L 46.63536 195.94462 L 46.74394 195.33761 L 46.7896 195.25987 L 46.80941 195.17191 L 47.14501 194.65468 L 47.45731 194.12292 L 47.5271 194.06582 L 47.57617 193.99019 L 48.07029 193.62136 L 48.54755 193.23086 L 48.65806 193.18264 L 48.70504 193.14757 L 48.80835 193.11706 L 49.25982 192.92005 L 77.81364 183.64235 L 77.81364 153.6191 L 77.82952 153.53034 L 77.81761 153.44098 L 77.95311 152.83944 L 78.06169 152.23243 L 78.10735 152.15469 L 78.12716 152.06673 L 78.46276 151.5495 L 78.77506 151.01774 L 78.84485 150.96064 L 78.89392 150.88501 L 79.38804 150.51618 L 79.8653 150.12568 L 79.97581 150.07746 L 80.02279 150.04239 L 80.1261 150.01188 L 80.57757 149.81487 L 109.13139 140.53717 L 109.13139 110.51391 L 109.14727 110.42515 L 109.13536 110.33579 L 109.27086 109.73425 L 109.37944 109.12724 L 109.4251 109.0495 L 109.44491 108.96154 L 109.78051 108.44431 L 110.09281 107.91255 L 110.1626 107.85545 L 110.21167 107.77982 L 110.70579 107.41099 L 111.18305 107.02049 L 111.29356 106.97227 L 111.34054 106.9372 L 111.44385 106.90669 L 111.89532 106.70968 L 140.44914 97.43198 L 140.44914 67.40873 L 140.69719 66.02206 L 141.41056 64.80737 L 142.5008 63.91531 L 143.21307 63.6045 L 174.53082 53.42874 L 175.92627 53.23615 L 177.30195 53.53925 L 178.48725 54.30046 L 179.00296 54.88183 L 191.12233 71.56271 L 191.12233 50.94401 L 191.37038 49.55734 L 192.08375 48.34265 L 193.17399 47.45059 L 193.88626 47.13978 L 225.20401 36.96403 L 226.59946 36.77144 Z M 199.12233 398.69167 L 199.12233 425.80875 L 224.91222 434.18839 L 240.85124 412.25021 L 224.91222 390.31203 Z M 148.44914 382.22696 L 148.44914 409.34404 L 174.23903 417.72368 L 190.17806 395.7855 L 174.23903 373.84732 Z M 230.44008 384.31006 L 248.26764 408.8476 L 275.5854 417.72368 L 291.52443 395.7855 L 275.5854 373.84732 L 247.03158 383.12501 L 246.71455 383.16876 L 246.41198 383.27299 L 246.02226 383.26431 L 245.63613 383.3176 L 245.32363 383.24875 L 245.00365 383.24162 L 244.64109 383.09837 L 244.26044 383.0145 L 243.99118 382.84157 L 243.69353 382.72397 L 243.40312 382.46392 L 243.07515 382.25329 L 242.71691 381.84944 L 242.64411 381.78425 L 242.622 381.74245 L 242.55944 381.67192 L 230.44008 364.99105 Z M 331.78645 352.68031 L 331.5384 354.06698 L 330.82503 355.28167 L 329.73479 356.17373 L 329.02252 356.48454 L 300.4687 365.76224 L 300.4687 392.87932 L 326.25859 401.25896 L 343.14188 378.0211 L 343.14188 347.69103 L 331.78645 332.06162 Z M 180.71116 369.14503 L 196.65019 391.08321 L 222.44008 382.70357 L 222.44008 355.58649 L 196.65019 347.20685 Z M 351.14188 349.29753 L 351.14188 376.41461 L 376.93177 384.79425 L 392.8708 362.85607 L 376.93177 340.91789 Z M 280.34933 338.56674 L 280.23333 338.67821 L 280.15184 338.81696 L 279.72821 339.16359 L 279.33359 339.54278 L 279.18613 339.60712 L 279.0616 339.70902 L 278.54409 339.88729 L 278.04248 340.10617 L 277.88186 340.11541 L 277.72973 340.16781 L 277.18251 340.15562 L 276.63612 340.18704 L 276.41602 340.13855 L 276.3214 340.13644 L 276.21419 340.09408 L 275.87719 340.01983 L 247.32337 330.74213 L 231.38435 352.68031 L 247.32337 374.61849 L 275.87719 365.3408 L 276.28175 365.28497 L 276.67339 365.16929 L 276.9741 365.18941 L 277.27264 365.14821 L 277.67142 365.23607 L 278.07893 365.26334 L 278.35403 365.38647 L 278.64833 365.45131 L 278.99194 365.67198 L 279.3647 365.83882 L 279.58005 366.04968 L 279.83362 366.21252 L 280.34933 366.79389 L 292.4687 383.47477 L 292.4687 362.85607 L 292.48458 362.76731 L 292.47267 362.67795 L 292.60817 362.07641 L 292.71675 361.4694 L 292.76241 361.39166 L 292.78222 361.3037 L 293.11782 360.78647 L 293.43012 360.25471 L 293.49991 360.19761 L 293.54898 360.12198 L 294.0431 359.75315 L 294.52036 359.36265 L 294.63087 359.31443 L 294.67785 359.27936 L 294.78116 359.24885 L 295.23263 359.05184 L 323.78645 349.77414 L 323.78645 322.65706 L 297.99656 314.27742 Z M 117.13139 339.12177 L 117.13139 366.23885 L 144.44914 375.11493 L 173.29476 365.74242 L 184.65019 350.11302 L 165.04065 356.48454 L 163.6452 356.67713 L 162.26951 356.37403 L 161.08422 355.61282 L 160.56851 355.03145 L 142.92128 330.74213 Z M 118.07566 282.93466 L 135.7229 307.22399 L 135.7312 307.24111 L 135.74481 307.25444 L 135.75867 307.2978 L 136.33729 308.49162 L 136.4238 309.37801 L 136.48683 309.57513 L 136.4585 309.7335 L 136.47413 309.89364 L 136.33515 310.42304 L 136.23878 310.9618 L 136.1573 311.10054 L 136.11645 311.25615 L 135.7229 311.92627 L 123.60354 328.60714 L 143.21307 322.23561 L 144.60852 322.04302 L 145.9842 322.34612 L 147.1695 323.10733 L 147.68521 323.6887 L 165.33244 347.97802 L 191.12233 339.59838 L 191.12233 312.4813 L 162.56851 303.2036 L 162.14707 302.97818 L 161.7026 302.80256 L 161.53031 302.64828 L 161.32636 302.53919 L 161.00921 302.18165 L 160.65318 301.86284 L 160.54505 301.65838 L 160.39157 301.48536 L 160.21803 301.04004 L 159.9946 300.61758 L 159.96406 300.38834 L 159.88007 300.17283 L 159.80458 299.39937 L 159.80458 269.37612 L 134.01469 260.99648 Z M 199.12233 310.87481 L 199.12233 339.59838 L 224.91222 347.97802 L 241.79551 324.74016 L 241.79551 296.01659 L 216.00562 287.63695 Z M 332.73072 319.75088 L 348.66974 341.68906 L 374.45963 333.30942 L 374.45963 306.19234 L 348.66974 297.8127 Z M 382.45963 306.19234 L 382.45963 333.30942 L 408.24952 341.68906 L 424.18855 319.75088 L 408.24952 297.8127 Z M 249.79551 156.52527 L 249.79551 186.54853 L 249.54746 187.9352 L 248.83409 189.14989 L 247.74385 190.04195 L 247.03158 190.35276 L 215.71383 200.52851 L 214.31838 200.7211 L 212.94269 200.418 L 211.7574 199.65679 L 211.24169 199.07542 L 193.59447 174.7861 L 167.80458 183.16574 L 167.80458 210.28282 L 196.3584 219.56052 L 197.60055 220.22493 L 198.53534 221.27876 L 199.04684 222.59129 L 199.12233 223.36475 L 199.12233 256.29419 L 198.87428 257.68086 L 198.16091 258.89555 L 197.07067 259.78761 L 196.3584 260.09842 L 167.80458 269.37612 L 167.80458 296.4932 L 193.59447 304.87284 L 211.24169 280.58352 L 211.42196 280.4103 L 211.55804 280.20057 L 211.92619 279.92577 L 212.25743 279.60748 L 212.48656 279.5075 L 212.68691 279.35795 L 213.1275 279.22782 L 213.54854 279.04409 L 213.79812 279.02974 L 214.03789 278.95892 L 214.49627 278.98959 L 214.95489 278.96322 L 215.32684 279.04517 L 215.44343 279.05297 L 215.52213 279.08819 L 215.71383 279.13043 L 247.03158 289.30618 L 247.53054 289.57307 L 248.04695 289.8042 L 248.14845 289.90358 L 248.27373 289.97059 L 248.64919 290.39387 L 249.05349 290.78972 L 249.08345 290.88342 L 249.20852 291.02442 L 249.72002 292.33695 L 249.79551 293.11041 L 249.79551 323.13367 L 275.5854 331.51331 L 291.52443 309.57513 L 273.87719 285.2858 L 273.60014 284.71417 L 273.30328 284.15287 L 273.29388 284.08229 L 273.2628 284.01817 L 273.20109 283.38595 L 273.11723 282.75654 L 273.13288 282.68706 L 273.12596 282.61615 L 273.28723 282.00183 L 273.42678 281.38229 L 273.46556 281.32253 L 273.48364 281.25364 L 273.87719 280.58352 L 293.23263 253.94305 L 293.4129 253.76983 L 293.54898 253.5601 L 293.91713 253.2853 L 294.24837 252.96701 L 294.4775 252.86703 L 294.67785 252.71748 L 295.11844 252.58735 L 295.53948 252.40362 L 295.78906 252.38927 L 296.02883 252.31845 L 296.48722 252.34912 L 296.94584 252.32275 L 297.31779 252.4047 L 297.43437 252.4125 L 297.51307 252.44772 L 297.70477 252.48996 L 326.25859 261.76765 L 342.19761 239.82947 L 326.25859 217.89129 L 297.70477 227.16898 L 297.38774 227.21273 L 297.08517 227.31696 L 296.69545 227.30828 L 296.30932 227.36157 L 295.99682 227.29272 L 295.67684 227.28559 L 295.31428 227.14234 L 294.93363 227.05847 L 294.66437 226.88554 L 294.36672 226.76794 L 294.07631 226.50789 L 293.74834 226.29726 L 293.3901 225.89341 L 293.3173 225.82822 L 293.29519 225.78642 L 293.23263 225.71589 L 273.87719 199.07542 L 273.60014 198.50379 L 273.30328 197.94249 L 273.29388 197.87191 L 273.2628 197.80779 L 273.20109 197.17557 L 273.11723 196.54616 L 273.13288 196.47668 L 273.12596 196.40577 L 273.28723 195.79145 L 273.42678 195.17191 L 273.46556 195.11215 L 273.48364 195.04326 L 273.87719 194.37314 L 291.52443 170.08381 L 275.5854 148.14563 Z M 103.6412 269.87255 L 85.81364 294.41009 L 85.81364 323.13367 L 111.60353 331.51331 L 127.54256 309.57513 L 109.89532 285.2858 L 109.61827 284.71417 L 109.32141 284.15287 L 109.31201 284.08229 L 109.28093 284.01817 L 109.21922 283.38595 L 109.13536 282.75654 L 109.15101 282.68706 L 109.14409 282.61615 L 109.30536 282.00183 L 109.44491 281.38229 L 109.48369 281.32253 L 109.50177 281.25364 L 109.89532 280.58352 L 122.01469 263.90265 Z M 282.05753 282.93466 L 298.94083 306.17252 L 326.25859 315.04859 L 342.19761 293.11041 L 325.31432 269.87255 L 297.99656 260.99648 Z M 382.45963 252.9114 L 382.45963 282.93466 L 382.21158 284.32133 L 381.49821 285.53602 L 380.40797 286.42808 L 379.6957 286.73889 L 360.08617 293.11041 L 378.45963 299.08031 L 407.30525 289.7078 L 424.18855 266.46994 L 408.24952 244.53176 Z M 54.49589 252.9114 L 54.49589 280.02848 L 80.28578 288.40812 L 96.2248 266.46994 L 80.28578 244.53176 Z M 332.73072 213.189 L 350.37795 237.47833 L 350.38625 237.49545 L 350.39986 237.50878 L 350.41372 237.55214 L 350.99234 238.74597 L 351.07885 239.63235 L 351.14188 239.82947 L 351.11355 239.98784 L 351.12918 240.14798 L 350.9902 240.67738 L 350.89383 241.21614 L 350.81235 241.35488 L 350.7715 241.51049 L 350.37795 242.18061 L 332.73072 266.46994 L 348.66974 288.40812 L 374.45963 280.02848 L 374.45963 250.00522 L 374.70768 248.61855 L 375.42105 247.40386 L 376.51129 246.5118 L 377.22356 246.20099 L 396.83309 239.82947 L 377.22356 233.45795 L 375.98141 232.79354 L 375.04662 231.73971 L 374.53512 230.42718 L 374.45963 229.65372 L 374.45963 199.63046 L 348.66974 191.25082 Z M 136.48683 226.27093 L 136.48683 253.38801 L 163.80458 262.26409 L 191.12233 253.38801 L 191.12233 226.27093 L 163.80458 217.39485 Z M 86.75791 239.82947 L 102.69693 261.76765 L 128.48683 253.38801 L 128.48683 226.27093 L 102.69693 217.89129 Z M 54.49589 199.63046 L 54.49589 226.74754 L 80.28578 235.12718 L 96.2248 213.189 L 80.28578 191.25082 Z M 360.08617 186.54853 L 379.6957 192.92005 L 380.93785 193.58446 L 381.87264 194.63829 L 382.38414 195.95082 L 382.45963 196.72428 L 382.45963 226.74754 L 408.24952 235.12718 L 424.18855 213.189 L 407.30525 189.95114 L 378.45963 180.57863 Z M 147.68521 155.97024 L 147.56921 156.08171 L 147.48772 156.22046 L 147.06409 156.56709 L 146.66947 156.94628 L 146.52201 157.01062 L 146.39748 157.11252 L 145.87997 157.29079 L 145.37836 157.50967 L 145.21774 157.51891 L 145.06561 157.57131 L 144.51839 157.55912 L 143.972 157.59054 L 143.7519 157.54205 L 143.65728 157.53994 L 143.55007 157.49758 L 143.21307 157.42333 L 123.60354 151.0518 L 135.7229 167.73267 L 135.7312 167.74979 L 135.74481 167.76312 L 135.75867 167.80648 L 136.33729 169.0003 L 136.4238 169.88669 L 136.48683 170.08381 L 136.4585 170.24218 L 136.47413 170.40232 L 136.33515 170.93172 L 136.23878 171.47048 L 136.1573 171.60922 L 136.11645 171.76483 L 135.7229 172.43495 L 118.07566 196.72428 L 134.01469 218.66246 L 159.80458 210.28282 L 159.80458 180.25957 L 160.05263 178.8729 L 160.766 177.65821 L 161.85624 176.76615 L 162.56851 176.45534 L 191.12233 167.17764 L 191.12233 140.06056 L 165.33244 131.68092 Z M 298.94083 173.48642 L 282.05753 196.72428 L 297.99656 218.66246 L 325.31432 209.78639 L 342.19761 186.54853 L 326.25859 164.61035 Z M 85.81364 156.52527 L 85.81364 185.24885 L 103.6412 209.78639 L 122.01469 215.75629 L 109.89532 199.07542 L 109.61827 198.50379 L 109.32141 197.94249 L 109.31201 197.87191 L 109.28093 197.80779 L 109.21922 197.17557 L 109.13536 196.54616 L 109.15101 196.47668 L 109.14409 196.40577 L 109.30536 195.79145 L 109.44491 195.17191 L 109.48369 195.11215 L 109.50177 195.04326 L 109.89532 194.37314 L 127.54256 170.08381 L 111.60353 148.14563 Z M 199.12233 140.06056 L 199.12233 168.78413 L 216.00562 192.02199 L 241.79551 183.64235 L 241.79551 154.91878 L 224.91222 131.68092 Z M 332.73072 159.90806 L 348.66974 181.84624 L 374.45963 173.4666 L 374.45963 146.34952 L 348.66974 137.96988 Z M 382.45963 146.34952 L 382.45963 173.4666 L 408.24952 181.84624 L 424.18855 159.90806 L 408.24952 137.96988 Z M 280.34933 112.86505 L 280.23333 112.97652 L 280.15184 113.11527 L 279.72821 113.4619 L 279.33359 113.84109 L 279.18613 113.90543 L 279.0616 114.00733 L 278.54409 114.1856 L 278.04248 114.40448 L 277.88186 114.41372 L 277.72973 114.46612 L 277.18251 114.45393 L 276.63612 114.48535 L 276.41602 114.43686 L 276.3214 114.43475 L 276.21419 114.39239 L 275.87719 114.31814 L 247.32337 105.04045 L 231.38435 126.97863 L 247.32337 148.91681 L 275.87719 139.63911 L 277.27264 139.44652 L 278.64832 139.74962 L 279.83362 140.51083 L 280.34933 141.0922 L 297.99656 165.38152 L 323.78645 157.00188 L 323.78645 129.8848 L 295.23263 120.6071 L 293.99048 119.94269 L 293.05569 118.88886 L 292.54419 117.57633 L 292.4687 116.80287 L 292.4687 96.18417 Z M 117.13139 113.42009 L 117.13139 140.53717 L 142.92128 148.91681 L 160.56851 124.62749 L 160.74878 124.45427 L 160.88486 124.24454 L 161.25301 123.96974 L 161.58425 123.65145 L 161.81338 123.55147 L 162.01373 123.40192 L 162.45432 123.27179 L 162.87536 123.08806 L 163.12494 123.07371 L 163.36471 123.00289 L 163.8231 123.03356 L 164.28172 123.00719 L 164.65367 123.08914 L 164.77025 123.09694 L 164.84895 123.13216 L 165.04065 123.1744 L 184.65019 129.54592 L 173.29476 113.91652 L 144.44914 104.54401 Z M 300.4687 86.77962 L 300.4687 113.8967 L 329.02252 123.1744 L 330.26467 123.83881 L 331.19946 124.89264 L 331.71096 126.20517 L 331.78645 126.97863 L 331.78645 147.59732 L 343.14188 131.96791 L 343.14188 101.63784 L 326.25859 78.39998 Z M 351.14188 103.24433 L 351.14188 130.36141 L 376.93177 138.74105 L 392.8708 116.80287 L 376.93177 94.86469 Z M 180.71116 110.51391 L 196.65019 132.45209 L 222.44008 124.07245 L 222.44008 96.95537 L 196.65019 88.57573 Z M 248.26764 70.81134 L 230.44008 95.34888 L 230.44008 114.66789 L 242.55944 97.98702 L 242.73971 97.8138 L 242.87579 97.60407 L 243.24394 97.32927 L 243.57518 97.01098 L 243.80431 96.911 L 244.00466 96.76145 L 244.44525 96.63132 L 244.86629 96.44759 L 245.11587 96.43324 L 245.35564 96.36242 L 245.81402 96.39309 L 246.27264 96.36672 L 246.64459 96.44867 L 246.76118 96.45647 L 246.83988 96.49169 L 247.03158 96.53393 L 275.5854 105.81162 L 291.52443 83.87344 L 275.5854 61.93526 Z M 148.44914 70.3149 L 148.44914 97.43198 L 174.23903 105.81162 L 190.17806 83.87344 L 174.23903 61.93526 Z M 199.12233 53.85019 L 199.12233 80.96727 L 224.91222 89.34691 L 240.85124 67.40873 L 224.91222 45.47055 Z" stroke-miterlimit="10"/><path fill="#222222" stroke="#cccccc" paint-order="fill stroke markers" d=" M 684.33566 38.99901 L 685.52095 39.76022 L 686.03666 40.34159 L 703.43828 64.29287 L 704.05267 65.56051 L 704.18951 66.96252 L 703.83183 68.32503 L 703.43828 68.99515 L 686.03666 92.94643 L 685.69205 93.27757 L 685.38767 93.64603 L 685.18769 93.76222 L 685.02092 93.92247 L 684.58288 94.11361 L 684.16965 94.3537 L 683.94179 94.39336 L 683.72981 94.48586 L 683.2527 94.5133 L 682.78183 94.59525 L 682.53043 94.55483 L 682.32346 94.56673 L 682.01143 94.47138 L 681.56452 94.39952 L 656.17203 86.149 L 642.18681 105.39799 L 657.88024 126.99814 L 657.88854 127.01526 L 657.90215 127.02859 L 657.91601 127.07195 L 658.49463 128.26578 L 658.58114 129.15216 L 658.64417 129.34928 L 658.61584 129.50765 L 658.63147 129.66779 L 658.49249 130.19719 L 658.39612 130.73595 L 658.31464 130.87469 L 658.27379 131.0303 L 657.88024 131.70042 L 642.18681 153.30056 L 657.1163 173.84923 L 682.80059 182.19456 L 706.95701 174.34566 L 706.95701 147.64643 L 706.97289 147.55767 L 706.96098 147.46831 L 707.09648 146.86677 L 707.20506 146.25976 L 707.25072 146.18202 L 707.27053 146.09406 L 707.60613 145.57683 L 707.91843 145.04507 L 707.98822 144.98797 L 708.03729 144.91234 L 708.53141 144.54351 L 709.00867 144.15301 L 709.11918 144.10479 L 709.16616 144.06972 L 709.26947 144.03921 L 709.72094 143.8422 L 735.11343 135.59168 L 735.11343 111.79861 L 709.72094 103.54809 L 708.47879 102.88368 L 707.544 101.82985 L 707.0325 100.51732 L 706.95701 99.74386 L 706.95701 70.13845 L 707.20506 68.75178 L 707.91843 67.53709 L 709.00867 66.64503 L 709.72094 66.33422 L 737.87736 57.18565 L 739.27281 56.99306 L 740.6485 57.29616 L 741.83379 58.05737 L 742.3495 58.63874 L 759.75112 82.59002 L 759.95956 83.02008 L 760.21593 83.42343 L 760.26464 83.64953 L 760.36551 83.85766 L 760.41193 84.33331 L 760.51258 84.80052 L 760.47988 85.02949 L 760.50235 85.25967 L 760.381 85.72191 L 760.31344 86.19505 L 760.19731 86.42165 L 760.14467 86.62218 L 759.95756 86.88948 L 759.75112 87.2923 L 744.0577 108.89244 L 758.04291 128.14143 L 783.4354 119.89092 L 784.83085 119.69833 L 786.20654 120.00143 L 787.39183 120.76264 L 787.90754 121.34401 L 805.30916 145.29529 L 805.92355 146.56293 L 806.06039 147.96494 L 805.70271 149.32745 L 805.30916 149.99757 L 789.61574 171.59771 L 803.60095 190.8467 L 828.99344 182.59618 L 830.38889 182.40359 L 831.76457 182.70669 L 832.94987 183.4679 L 833.46558 184.04927 L 850.86721 208.00055 L 851.4816 209.26818 L 851.61844 210.6702 L 851.26076 212.03271 L 850.86721 212.70283 L 833.46558 236.65412 L 832.44984 237.63016 L 831.15873 238.19355 L 829.75238 238.27442 L 828.99344 238.10721 L 800.83702 228.95863 L 800.41558 228.73321 L 799.97111 228.55759 L 799.79882 228.40331 L 799.59487 228.29422 L 799.27772 227.93668 L 798.92169 227.61787 L 798.81356 227.41341 L 798.66008 227.24039 L 798.48654 226.79507 L 798.26311 226.37261 L 798.22387 226.12107 L 798.14858 225.92786 L 798.14284 225.60158 L 798.07309 225.1544 L 798.07309 198.45516 L 775.44454 191.1027 L 759.75112 212.70283 L 759.63512 212.8143 L 759.55363 212.95305 L 759.13 213.29968 L 758.73538 213.67887 L 758.58792 213.74321 L 758.46339 213.84511 L 757.94588 214.02338 L 757.44427 214.24226 L 757.28365 214.2515 L 757.13152 214.3039 L 756.5843 214.29171 L 756.03791 214.32313 L 755.81781 214.27464 L 755.72319 214.27253 L 755.61598 214.23017 L 755.27898 214.15592 L 729.88649 205.90541 L 714.95701 226.45408 L 714.95701 253.46013 L 729.88649 274.0088 L 755.27898 265.75829 L 756.67443 265.5657 L 758.05012 265.8688 L 759.23541 266.63001 L 759.75112 267.21138 L 775.44454 288.81151 L 798.07309 281.45905 L 798.07309 254.75981 L 798.32114 253.37314 L 799.03451 252.15845 L 800.12475 251.26639 L 800.83702 250.95558 L 828.99344 241.80701 L 830.38889 241.61442 L 831.76458 241.91752 L 832.94987 242.67873 L 833.46558 243.2601 L 850.86721 267.21138 L 851.4816 268.47901 L 851.61844 269.88103 L 851.26076 271.24354 L 850.86721 271.91366 L 833.46558 295.86494 L 832.44984 296.84098 L 831.15873 297.40437 L 829.75237 297.48524 L 828.99344 297.31803 L 803.60095 289.06751 L 789.61574 308.31651 L 805.30916 329.91665 L 805.92355 331.18429 L 806.06039 332.5863 L 805.70271 333.94881 L 805.30916 334.61893 L 787.90754 358.57021 L 786.8918 359.54625 L 785.60069 360.10964 L 784.19434 360.19051 L 783.4354 360.0233 L 758.04291 351.77278 L 744.0577 371.02177 L 759.75112 392.62191 L 760.36551 393.88955 L 760.50235 395.29156 L 760.14467 396.65407 L 759.75112 397.32419 L 742.3495 421.27548 L 741.33376 422.25152 L 740.04265 422.81491 L 738.6363 422.89578 L 737.87736 422.72857 L 709.72094 413.57999 L 708.47879 412.91558 L 707.544 411.86175 L 707.0325 410.54922 L 706.95701 409.77576 L 706.95701 380.17035 L 707.04117 379.69988 L 707.07084 379.22289 L 707.16434 379.01134 L 707.20506 378.78368 L 707.44709 378.37156 L 707.64028 377.93444 L 707.8013 377.76844 L 707.91843 377.56899 L 708.28833 377.26633 L 708.62107 376.92329 L 708.8482 376.80823 L 709.00867 376.67693 L 709.31717 376.57066 L 709.72094 376.36612 L 735.11343 368.1156 L 735.11343 344.32254 L 709.72094 336.07202 L 709.2995 335.8466 L 708.85503 335.67098 L 708.68274 335.5167 L 708.47879 335.40761 L 708.16164 335.05007 L 707.80561 334.73126 L 707.69748 334.5268 L 707.544 334.35378 L 707.37046 333.90846 L 707.14703 333.486 L 707.11649 333.25676 L 707.0325 333.04125 L 706.95701 332.26779 L 706.95701 305.56855 L 682.80059 297.71965 L 657.1163 306.06498 L 642.18681 326.61366 L 657.88024 348.2138 L 658.49463 349.48143 L 658.63147 350.88345 L 658.27379 352.24596 L 657.88024 352.91608 L 642.18681 374.51622 L 656.17203 393.76521 L 681.56452 385.51469 L 682.95997 385.3221 L 684.33565 385.6252 L 685.52095 386.38641 L 686.03666 386.96778 L 703.43828 410.91907 L 704.05267 412.18671 L 704.18951 413.58872 L 703.83183 414.95124 L 703.43828 415.62135 L 686.03666 439.57263 L 685.02092 440.54867 L 683.72981 441.11206 L 682.32346 441.19293 L 681.56452 441.02572 L 653.4081 431.87714 L 652.16595 431.21273 L 651.23116 430.1589 L 650.71966 428.84637 L 650.64417 428.07291 L 650.64417 401.37367 L 628.01561 394.02121 L 612.32219 415.62135 L 611.30645 416.59739 L 610.01534 417.16078 L 608.60899 417.24165 L 607.85005 417.07444 L 579.69363 407.92586 L 578.45148 407.26145 L 577.51669 406.20762 L 577.00519 404.89509 L 576.9297 404.12163 L 576.9297 377.42239 L 554.30114 370.06993 L 538.60773 391.67006 L 537.59199 392.6461 L 536.30088 393.20949 L 534.89453 393.29036 L 534.13559 393.12315 L 505.97917 383.97458 L 504.73702 383.31017 L 503.80223 382.25634 L 503.29073 380.94381 L 503.21524 380.17035 L 503.21524 350.56494 L 503.46329 349.17827 L 504.17666 347.96358 L 505.2669 347.07152 L 505.97917 346.76071 L 534.13559 337.61213 L 534.60902 337.54679 L 535.07185 337.42761 L 535.30194 337.45116 L 535.53104 337.41954 L 535.99776 337.52237 L 536.47321 337.57103 L 536.68086 337.67288 L 536.90672 337.72264 L 537.30883 337.98088 L 537.73795 338.19135 L 537.91758 338.37182 L 538.09202 338.48385 L 538.28841 338.7444 L 538.60773 339.06522 L 554.30114 360.66535 L 576.9297 353.31289 L 576.9297 326.61366 L 576.94558 326.5249 L 576.93367 326.43554 L 577.06917 325.834 L 577.17775 325.22699 L 577.22341 325.14925 L 577.24322 325.06129 L 577.57882 324.54406 L 577.89112 324.0123 L 577.96091 323.9552 L 578.00998 323.87957 L 578.5041 323.51074 L 578.98136 323.12024 L 579.09187 323.07202 L 579.13885 323.03695 L 579.24216 323.00644 L 579.69363 322.80943 L 605.08612 314.55891 L 605.08612 289.15935 L 589.21237 267.311 L 565.05594 259.4621 L 549.36252 281.06223 L 549.24652 281.1737 L 549.16503 281.31245 L 548.7414 281.65908 L 548.34678 282.03827 L 548.19932 282.10261 L 548.07479 282.20451 L 547.55728 282.38278 L 547.05567 282.60166 L 546.89505 282.6109 L 546.74292 282.6633 L 546.1957 282.65111 L 545.64931 282.68253 L 545.42921 282.63404 L 545.33459 282.63193 L 545.22738 282.58957 L 544.89038 282.51532 L 519.4979 274.26481 L 505.51268 293.5138 L 521.20611 315.11394 L 521.8205 316.38157 L 521.95734 317.78359 L 521.59966 319.1461 L 521.20611 319.81622 L 503.80448 343.7675 L 502.78874 344.74354 L 501.49763 345.30693 L 500.09127 345.3878 L 499.33234 345.22059 L 471.17592 336.07202 L 469.93377 335.40761 L 468.99898 334.35378 L 468.48748 333.04125 L 468.41199 332.26779 L 468.41199 302.66237 L 468.49615 302.1919 L 468.52582 301.71491 L 468.61932 301.50336 L 468.66004 301.2757 L 468.90207 300.86358 L 469.09526 300.42646 L 469.25628 300.26046 L 469.37341 300.06101 L 469.74331 299.75835 L 470.07605 299.41531 L 470.30318 299.30025 L 470.46365 299.16895 L 470.77215 299.06268 L 471.17592 298.85814 L 496.56841 290.60762 L 496.56841 266.81456 L 471.17592 258.56404 L 469.93377 257.89963 L 468.99898 256.8458 L 468.48748 255.53327 L 468.41199 254.75981 L 468.41199 225.1544 L 468.42787 225.06564 L 468.41596 224.97628 L 468.55146 224.37474 L 468.66004 223.76773 L 468.7057 223.68999 L 468.72551 223.60203 L 469.06111 223.0848 L 469.37341 222.55304 L 469.4432 222.49594 L 469.49227 222.42031 L 469.98639 222.05148 L 470.46365 221.66098 L 470.57416 221.61276 L 470.62114 221.57769 L 470.72445 221.54718 L 471.17592 221.35017 L 496.56841 213.09965 L 496.56841 189.30659 L 471.17592 181.05607 L 469.93377 180.39166 L 468.99898 179.33783 L 468.48748 178.0253 L 468.41199 177.25184 L 468.41199 147.64643 L 468.66004 146.25976 L 469.37341 145.04507 L 470.46365 144.15301 L 471.17592 143.8422 L 499.33234 134.69362 L 500.72779 134.50103 L 502.10347 134.80413 L 503.28877 135.56534 L 503.80448 136.14671 L 521.20611 160.09799 L 521.8205 161.36562 L 521.95734 162.76764 L 521.59966 164.13015 L 521.20611 164.80027 L 505.51268 186.40041 L 519.4979 205.6494 L 544.89038 197.39889 L 546.28583 197.2063 L 547.66152 197.5094 L 548.84681 198.27061 L 549.36252 198.85198 L 565.05594 220.45211 L 589.21237 212.60322 L 605.08612 190.75486 L 605.08612 165.35531 L 579.69363 157.10479 L 579.27219 156.87937 L 578.82772 156.70375 L 578.65543 156.54947 L 578.45148 156.44038 L 578.13433 156.08284 L 577.7783 155.76403 L 577.67017 155.55957 L 577.51669 155.38655 L 577.34315 154.94123 L 577.11972 154.51877 L 577.08918 154.28953 L 577.00519 154.07402 L 576.9297 153.30056 L 576.9297 126.60132 L 554.30114 119.24886 L 538.60773 140.84899 L 537.59199 141.82503 L 536.30088 142.38842 L 534.89453 142.46929 L 534.13559 142.30208 L 505.97917 133.15351 L 504.73702 132.4891 L 503.80223 131.43527 L 503.29073 130.12274 L 503.21524 129.34928 L 503.21524 99.74386 L 503.46329 98.35719 L 504.17666 97.1425 L 505.2669 96.25044 L 505.97917 95.93963 L 534.13559 86.79106 L 534.60902 86.72572 L 535.07185 86.60654 L 535.30194 86.63009 L 535.53104 86.59847 L 535.99776 86.7013 L 536.47321 86.74996 L 536.68085 86.8518 L 536.90673 86.90157 L 537.30886 87.15982 L 537.73795 87.37028 L 537.91757 87.55075 L 538.09202 87.66278 L 538.28841 87.92333 L 538.60773 88.24415 L 554.30114 109.84428 L 576.9297 102.49182 L 576.9297 75.79258 L 577.17775 74.40591 L 577.89112 73.19122 L 578.98136 72.29916 L 579.69363 71.98835 L 607.85005 62.83978 L 609.2455 62.64719 L 610.62119 62.95029 L 611.80648 63.7115 L 612.32219 64.29287 L 628.01561 85.893 L 650.64417 78.54054 L 650.64417 51.8413 L 650.89222 50.45463 L 651.60559 49.23994 L 652.69583 48.34788 L 653.4081 48.03707 L 681.56452 38.8885 L 682.95997 38.69591 Z M 658.64417 401.37367 L 658.64417 425.16674 L 681.27273 432.5192 L 695.25794 413.27021 L 681.27273 394.02121 Z M 714.95701 383.07652 L 714.95701 406.86959 L 737.58557 414.22205 L 751.57078 394.97305 L 737.58557 375.72406 Z M 584.9297 377.42239 L 584.9297 401.21546 L 607.55826 408.56792 L 621.54348 389.31892 L 607.55826 370.06993 Z M 613.08612 290.76584 L 613.08612 317.46508 L 612.83807 318.85175 L 612.1247 320.06644 L 611.03446 320.9585 L 610.32219 321.26931 L 584.9297 329.51983 L 584.9297 356.21907 L 584.68165 357.60574 L 583.96828 358.82043 L 582.87804 359.71249 L 582.16577 360.0233 L 565.71757 365.36764 L 580.9297 370.31037 L 607.85005 361.56341 L 609.2455 361.37082 L 610.62118 361.67392 L 611.80648 362.43513 L 612.32219 363.0165 L 628.95988 385.91631 L 644.17202 390.85904 L 634.00647 376.86736 L 633.39208 375.59973 L 633.25524 374.19771 L 633.61292 372.8352 L 634.00647 372.16508 L 649.6999 350.56494 L 634.00647 328.9648 L 633.39208 327.69717 L 633.25524 326.29515 L 633.61292 324.93264 L 634.00647 324.26252 L 649.6999 302.66237 L 635.71468 283.41338 Z M 511.21524 353.47111 L 511.21524 377.26417 L 533.8438 384.61663 L 547.82901 365.36764 L 533.8438 346.11865 Z M 686.80059 266.81456 L 686.80059 290.60762 L 712.19308 298.85814 L 712.69204 299.12503 L 713.20845 299.35616 L 713.30995 299.45554 L 713.43523 299.52255 L 713.81069 299.94583 L 714.21499 300.34168 L 714.24495 300.43538 L 714.37002 300.57638 L 714.88152 301.88891 L 714.95701 302.66237 L 714.95701 329.36161 L 740.3495 337.61213 L 740.84846 337.87902 L 741.36487 338.11015 L 741.46637 338.20953 L 741.59165 338.27654 L 741.96711 338.69982 L 742.37141 339.09567 L 742.40137 339.18937 L 742.52644 339.33037 L 743.03794 340.6429 L 743.11343 341.41636 L 743.11343 358.71103 L 752.51505 345.77081 L 752.51505 317.46508 L 752.7631 316.07841 L 753.47647 314.86372 L 754.56671 313.97166 L 755.27898 313.66085 L 782.19934 304.9139 L 791.60095 291.97368 L 775.15275 297.31803 L 773.7573 297.51062 L 772.38162 297.20752 L 771.19632 296.44631 L 770.68061 295.86494 L 754.98719 274.26481 L 729.5947 282.51532 L 728.19925 282.70791 L 726.82356 282.40481 L 725.63827 281.6436 L 725.12256 281.06223 L 709.42915 259.4621 Z M 760.51505 320.37126 L 760.51505 344.16432 L 783.14361 351.51678 L 797.12882 332.26779 L 783.14361 313.0188 Z M 476.41199 305.56855 L 476.41199 329.36161 L 499.04055 336.71407 L 513.02577 317.46508 L 499.04055 298.21609 Z M 640.47861 203.55426 L 640.36261 203.66573 L 640.28112 203.80448 L 639.85749 204.15111 L 639.46287 204.5303 L 639.31541 204.59464 L 639.19088 204.69654 L 638.67337 204.87481 L 638.17176 205.09369 L 638.01114 205.10293 L 637.85901 205.15533 L 637.31179 205.14314 L 636.7654 205.17456 L 636.5453 205.12607 L 636.45068 205.12396 L 636.34347 205.0816 L 636.00647 205.00735 L 610.61398 196.75683 L 596.62877 216.00583 L 612.32219 237.60597 L 612.93658 238.87361 L 613.07342 240.27562 L 612.71574 241.63813 L 612.32219 242.30825 L 596.62877 263.90839 L 610.61398 283.15738 L 636.00647 274.90686 L 637.40192 274.71427 L 638.7776 275.01737 L 639.9629 275.77858 L 640.47861 276.35995 L 656.17203 297.96008 L 678.80059 290.60762 L 678.80059 263.90839 L 678.81647 263.81963 L 678.80456 263.73027 L 678.94006 263.12873 L 679.04864 262.52172 L 679.0943 262.44398 L 679.11411 262.35602 L 679.44971 261.83879 L 679.76201 261.30703 L 679.8318 261.24993 L 679.88087 261.1743 L 680.37499 260.80547 L 680.85225 260.41497 L 680.96276 260.36675 L 681.00974 260.33168 L 681.11305 260.30117 L 681.56452 260.10416 L 706.95701 251.85364 L 706.95701 228.06058 L 681.56452 219.81006 L 681.14308 219.58464 L 680.69861 219.40902 L 680.52632 219.25474 L 680.32237 219.14565 L 680.00522 218.78811 L 679.64919 218.4693 L 679.54106 218.26484 L 679.38758 218.09182 L 679.21404 217.6465 L 678.99061 217.22404 L 678.96007 216.9948 L 678.87608 216.77929 L 678.80059 216.00583 L 678.80059 189.30659 L 656.17203 181.95413 Z M 806.07309 257.66599 L 806.07309 281.45905 L 828.70165 288.81151 L 842.68687 269.56252 L 828.70165 250.31353 Z M 504.56841 214.70615 L 521.20611 237.60597 L 521.8205 238.8736 L 521.95734 240.27562 L 521.59966 241.63813 L 521.20611 242.30825 L 504.56841 265.20807 L 504.56841 281.20307 L 514.73397 267.21138 L 514.91424 267.03816 L 515.05032 266.82843 L 515.41847 266.55363 L 515.74971 266.23534 L 515.97884 266.13536 L 516.17919 265.98581 L 516.61978 265.85568 L 517.04082 265.67195 L 517.2904 265.6576 L 517.53017 265.58678 L 517.98856 265.61745 L 518.44718 265.59108 L 518.81913 265.67303 L 518.93571 265.68083 L 519.01441 265.71605 L 519.20611 265.75829 L 544.59859 274.0088 L 560.29201 252.40867 L 560.47228 252.23545 L 560.60836 252.02572 L 560.97651 251.75092 L 561.30775 251.43263 L 561.53688 251.33265 L 561.73723 251.1831 L 562.17782 251.05297 L 562.59886 250.86924 L 562.84844 250.85489 L 563.08821 250.78407 L 563.5466 250.81474 L 564.00522 250.78837 L 564.37717 250.87032 L 564.49375 250.87812 L 564.57245 250.91334 L 564.76415 250.95558 L 590.15664 259.2061 L 604.14185 239.95711 L 590.15664 220.70812 L 564.76415 228.95863 L 563.3687 229.15122 L 561.99301 228.84812 L 560.80772 228.08691 L 560.29201 227.50554 L 544.59859 205.90541 L 519.20611 214.15592 L 517.81066 214.34851 L 516.43497 214.04541 L 515.24968 213.2842 L 514.73397 212.70283 L 504.56841 198.71114 Z M 476.41199 228.06058 L 476.41199 251.85364 L 499.04055 259.2061 L 513.02577 239.95711 L 499.04055 220.70812 Z M 806.07309 198.45516 L 806.07309 222.24823 L 828.70165 229.60069 L 842.68687 210.35169 L 828.70165 191.1027 Z M 743.11343 138.49785 L 742.86538 139.88452 L 742.15201 141.09921 L 741.06177 141.99127 L 740.3495 142.30208 L 714.95701 150.5526 L 714.95701 177.25184 L 714.70896 178.63851 L 713.99559 179.8532 L 712.90535 180.74526 L 712.19308 181.05607 L 686.80059 189.30659 L 686.80059 213.09965 L 709.42915 220.45211 L 725.12256 198.85198 L 725.30283 198.67876 L 725.43891 198.46903 L 725.80706 198.19423 L 726.1383 197.87594 L 726.36743 197.77596 L 726.56778 197.62641 L 727.00837 197.49628 L 727.42941 197.31255 L 727.67899 197.2982 L 727.91876 197.22738 L 728.37714 197.25805 L 728.83576 197.23168 L 729.20771 197.31363 L 729.3243 197.32143 L 729.403 197.35665 L 729.5947 197.39889 L 754.98719 205.6494 L 770.68061 184.04927 L 770.86088 183.87605 L 770.99696 183.66632 L 771.36511 183.39152 L 771.69635 183.07323 L 771.92548 182.97325 L 772.12583 182.8237 L 772.56642 182.69357 L 772.98746 182.50984 L 773.23704 182.49549 L 773.47681 182.42467 L 773.9352 182.45534 L 774.39382 182.42897 L 774.76577 182.51092 L 774.88235 182.51872 L 774.96105 182.55394 L 775.15275 182.59618 L 791.60095 187.94053 L 782.19934 175.00032 L 755.27898 166.25336 L 754.85754 166.02794 L 754.41307 165.85232 L 754.24078 165.69804 L 754.03683 165.58895 L 753.71968 165.23141 L 753.36365 164.9126 L 753.25552 164.70814 L 753.10204 164.53512 L 752.9285 164.0898 L 752.70507 163.66734 L 752.67453 163.4381 L 752.59054 163.22259 L 752.51505 162.44913 L 752.51505 134.1434 L 743.11343 121.20318 Z M 628.95988 93.9979 L 612.32219 116.89771 L 612.20619 117.00918 L 612.1247 117.14793 L 611.70107 117.49456 L 611.30645 117.87375 L 611.15899 117.93809 L 611.03446 118.03999 L 610.51695 118.21826 L 610.01534 118.43714 L 609.85472 118.44638 L 609.70259 118.49878 L 609.15537 118.48659 L 608.60898 118.51801 L 608.38888 118.46952 L 608.29426 118.46741 L 608.18705 118.42505 L 607.85005 118.3508 L 580.9297 109.60384 L 565.71756 114.54657 L 582.16577 119.89092 L 582.66473 120.15781 L 583.18114 120.38894 L 583.28264 120.48832 L 583.40792 120.55533 L 583.78338 120.97861 L 584.18768 121.37446 L 584.21764 121.46816 L 584.34271 121.60916 L 584.85421 122.92169 L 584.9297 123.69515 L 584.9297 150.39438 L 610.32219 158.6449 L 610.82115 158.91179 L 611.33756 159.14292 L 611.43906 159.2423 L 611.56434 159.30931 L 611.9398 159.73259 L 612.3441 160.12844 L 612.37406 160.22214 L 612.49913 160.36314 L 613.01063 161.67567 L 613.08612 162.44913 L 613.08612 189.14837 L 635.71468 196.50083 L 649.6999 177.25184 L 634.00647 155.6517 L 633.72942 155.08007 L 633.43256 154.51877 L 633.42316 154.44819 L 633.39208 154.38407 L 633.33037 153.75185 L 633.24651 153.12244 L 633.26216 153.05296 L 633.25524 152.98205 L 633.41651 152.36773 L 633.55606 151.74819 L 633.59484 151.68843 L 633.61292 151.61954 L 634.00647 150.94942 L 649.6999 129.34928 L 634.00647 107.74913 L 633.72944 107.17755 L 633.43256 106.6162 L 633.42315 106.5456 L 633.39208 106.48149 L 633.33038 105.8493 L 633.24651 105.21987 L 633.26216 105.15039 L 633.25524 105.07948 L 633.41651 104.46516 L 633.55606 103.84562 L 633.59484 103.78586 L 633.61292 103.71697 L 634.00647 103.04685 L 644.17202 89.05517 Z M 476.41199 150.5526 L 476.41199 174.34566 L 499.04055 181.69812 L 513.02577 162.44913 L 499.04055 143.20014 Z M 760.51505 135.7499 L 760.51505 159.54296 L 783.14361 166.89542 L 797.12882 147.64643 L 783.14361 128.39744 Z M 511.21524 102.65004 L 511.21524 126.4431 L 533.8438 133.79556 L 547.82901 114.54657 L 533.8438 95.29758 Z M 584.9297 78.69876 L 584.9297 102.49182 L 607.55826 109.84428 L 621.54348 90.59529 L 607.55826 71.3463 Z M 714.95701 73.04463 L 714.95701 96.83769 L 737.58557 104.19015 L 751.57078 84.94116 L 737.58557 65.69217 Z M 658.64417 54.74748 L 658.64417 78.54054 L 681.27273 85.893 L 695.25794 66.64401 L 681.27273 47.39502 Z" stroke-miterlimit="10"/><path fill="#222222" stroke="#cccccc" paint-order="fill stroke markers" d=" M 201.27764 462.54399 L 201.68515 462.57126 L 201.96025 462.69439 L 202.25455 462.75923 L 202.59816 462.9799 L 202.97092 463.14674 L 203.18627 463.3576 L 203.43984 463.52044 L 203.95555 464.10181 L 216.61144 481.52115 L 234.32519 487.27669 L 246.0368 471.15703 L 246.21707 470.98381 L 246.35315 470.77408 L 246.7213 470.49928 L 247.05254 470.18099 L 247.28167 470.08101 L 247.48202 469.93146 L 247.92261 469.80133 L 248.34365 469.6176 L 248.59323 469.60325 L 248.833 469.53243 L 249.29138 469.5631 L 249.75 469.53673 L 250.12195 469.61868 L 250.23854 469.62648 L 250.31724 469.6617 L 250.50894 469.70394 L 272.22268 476.75916 L 272.72164 477.02605 L 273.23805 477.25718 L 273.33955 477.35656 L 273.46483 477.42357 L 273.84029 477.84685 L 274.24459 478.2427 L 274.27455 478.3364 L 274.39962 478.4774 L 274.91112 479.78993 L 274.98661 480.56339 L 274.98661 503.39456 L 274.73856 504.78123 L 274.02519 505.99592 L 272.93495 506.88798 L 272.22268 507.19879 L 253.27287 513.35596 L 253.27287 530.37479 L 269.45875 535.63389 L 281.17037 519.51423 L 282.18611 518.53819 L 283.47722 517.9748 L 284.88357 517.89393 L 285.64251 518.06114 L 307.35625 525.11636 L 308.5984 525.78077 L 309.53319 526.8346 L 310.04469 528.14713 L 310.12018 528.92059 L 310.12018 548.8456 L 326.30605 554.1047 L 336.30947 540.33618 L 324.59784 524.21651 L 323.98345 522.94887 L 323.84661 521.54686 L 324.20429 520.18435 L 324.59784 519.51423 L 338.01767 501.04342 L 339.03341 500.06738 L 340.32452 499.50399 L 341.73087 499.42312 L 342.48981 499.59033 L 364.20355 506.64556 L 365.4457 507.30998 L 366.38049 508.3638 L 366.89199 509.67633 L 366.96748 510.44979 L 366.96748 530.37479 L 384.68122 536.13033 L 405.15888 529.47673 L 406.55433 529.28414 L 407.93002 529.58724 L 409.11531 530.34845 L 409.63102 530.92982 L 423.05085 549.40063 L 423.66524 550.66827 L 423.80208 552.07028 L 423.4444 553.43279 L 423.05085 554.10291 L 410.39495 571.52226 L 410.39495 590.14758 L 429.34476 596.30474 L 430.58691 596.96915 L 431.5217 598.02298 L 432.0332 599.33551 L 432.10869 600.10897 L 432.10869 622.94015 L 431.86064 624.32682 L 431.14727 625.54151 L 430.05703 626.43357 L 429.34476 626.74438 L 407.63102 633.7996 L 406.23557 633.99219 L 404.85988 633.68909 L 403.67459 632.92788 L 403.15888 632.34651 L 391.44727 616.22685 L 375.26139 621.48595 L 375.26139 638.50479 L 394.2112 644.66195 L 395.45335 645.32636 L 396.38814 646.38019 L 396.89964 647.69272 L 396.97513 648.46618 L 396.97513 671.29735 L 396.72708 672.68402 L 396.01371 673.89871 L 394.92347 674.79077 L 394.2112 675.10158 L 375.26139 681.25874 L 375.26139 698.27758 L 391.44727 703.53668 L 403.15888 687.41702 L 403.33915 687.2438 L 403.47523 687.03407 L 403.84338 686.75927 L 404.17462 686.44098 L 404.40375 686.341 L 404.6041 686.19145 L 405.04469 686.06132 L 405.46573 685.87759 L 405.71531 685.86324 L 405.95508 685.79242 L 406.41346 685.82309 L 406.87208 685.79672 L 407.24403 685.87867 L 407.36062 685.88647 L 407.43932 685.92169 L 407.63102 685.96393 L 429.34476 693.01915 L 429.84372 693.28604 L 430.36013 693.51717 L 430.46163 693.61655 L 430.58691 693.68356 L 430.96237 694.10684 L 431.36667 694.50269 L 431.39663 694.59639 L 431.5217 694.73739 L 432.0332 696.04992 L 432.10869 696.82338 L 432.10869 719.65456 L 431.86064 721.04123 L 431.14727 722.25592 L 430.05703 723.14798 L 429.34476 723.45879 L 410.39495 729.61595 L 410.39495 748.24127 L 423.05085 765.66062 L 423.05915 765.67774 L 423.07276 765.69107 L 423.08662 765.73443 L 423.66524 766.92826 L 423.75175 767.81464 L 423.81478 768.01176 L 423.78645 768.17013 L 423.80208 768.33027 L 423.6631 768.85967 L 423.56673 769.39843 L 423.48525 769.53717 L 423.4444 769.69278 L 423.05085 770.3629 L 409.63102 788.83371 L 409.51502 788.94518 L 409.43353 789.08393 L 409.0099 789.43056 L 408.61528 789.80975 L 408.46782 789.87409 L 408.34329 789.97599 L 407.82578 790.15426 L 407.32417 790.37314 L 407.16355 790.38238 L 407.01142 790.43478 L 406.4642 790.42259 L 405.91782 790.45401 L 405.69772 790.40552 L 405.60309 790.40341 L 405.49587 790.36105 L 405.15888 790.2868 L 384.68122 783.6332 L 366.96748 789.38874 L 366.96748 809.31374 L 366.71943 810.70041 L 366.00606 811.9151 L 364.91582 812.80716 L 364.20355 813.11797 L 342.48981 820.1732 L 342.17278 820.21695 L 341.87021 820.32118 L 341.48049 820.3125 L 341.09436 820.36579 L 340.78186 820.29694 L 340.46188 820.28981 L 340.09931 820.14655 L 339.71868 820.06269 L 339.44943 819.88977 L 339.15176 819.77216 L 338.86134 819.5121 L 338.53338 819.30148 L 338.17514 818.89763 L 338.10234 818.83244 L 338.08023 818.79064 L 338.01767 818.72011 L 324.59784 800.2493 L 324.32081 799.67772 L 324.02393 799.11637 L 324.01452 799.04577 L 323.98345 798.98166 L 323.92175 798.34947 L 323.83788 797.72004 L 323.85353 797.65056 L 323.84661 797.57965 L 324.00788 796.96533 L 324.14743 796.34579 L 324.18621 796.28603 L 324.20429 796.21714 L 324.59784 795.54702 L 336.30947 779.42735 L 326.30605 765.65883 L 310.12018 770.91793 L 310.12018 790.84294 L 309.87213 792.22961 L 309.15876 793.4443 L 308.06852 794.33636 L 307.35625 794.64717 L 285.64251 801.70239 L 285.32548 801.74614 L 285.02291 801.85037 L 284.63319 801.84169 L 284.24706 801.89498 L 283.93456 801.82613 L 283.61458 801.819 L 283.25202 801.67575 L 282.87137 801.59188 L 282.60211 801.41895 L 282.30446 801.30135 L 282.01405 801.0413 L 281.68608 800.83067 L 281.32784 800.42682 L 281.25504 800.36163 L 281.23293 800.31983 L 281.17037 800.2493 L 269.45875 784.12964 L 253.27287 789.38874 L 253.27287 806.40757 L 272.22268 812.56474 L 272.72159 812.83161 L 273.23805 813.06276 L 273.33957 813.16216 L 273.46483 813.22916 L 273.84025 813.65239 L 274.24459 814.04828 L 274.27455 814.14199 L 274.39962 814.28298 L 274.91112 815.59551 L 274.98661 816.36897 L 274.98661 839.20014 L 274.73856 840.58681 L 274.02519 841.8015 L 272.93495 842.69356 L 272.22268 843.00437 L 250.50894 850.05959 L 250.19191 850.10334 L 249.88934 850.20757 L 249.49962 850.19889 L 249.11349 850.25218 L 248.80099 850.18333 L 248.48101 850.1762 L 248.11845 850.03295 L 247.7378 849.94908 L 247.46854 849.77615 L 247.17089 849.65855 L 246.88048 849.3985 L 246.55251 849.18787 L 246.19427 848.78402 L 246.12147 848.71883 L 246.09936 848.67703 L 246.0368 848.6065 L 234.32519 832.48684 L 216.61144 838.24238 L 203.95555 855.66172 L 203.83955 855.77319 L 203.75806 855.91194 L 203.33443 856.25857 L 202.93981 856.63776 L 202.79235 856.7021 L 202.66782 856.804 L 202.15031 856.98227 L 201.6487 857.20115 L 201.48808 857.21039 L 201.33595 857.26279 L 200.78873 857.2506 L 200.24235 857.28202 L 200.02225 857.23353 L 199.92762 857.23142 L 199.8204 857.18906 L 199.48341 857.11481 L 177.76967 850.05959 L 177.34823 849.83417 L 176.90376 849.65855 L 176.73147 849.50427 L 176.52752 849.39518 L 176.21037 849.03764 L 175.85434 848.71883 L 175.74621 848.51437 L 175.59273 848.34135 L 175.41919 847.89603 L 175.19576 847.47357 L 175.16522 847.24433 L 175.08123 847.02882 L 175.00574 846.25536 L 175.00574 824.72387 L 164.05805 809.65567 L 145.10825 815.81283 L 144.79122 815.85658 L 144.48865 815.96081 L 144.09893 815.95213 L 143.7128 816.00542 L 143.4003 815.93657 L 143.08032 815.92944 L 142.71776 815.78619 L 142.33711 815.70232 L 142.06785 815.52939 L 141.7702 815.41179 L 141.47979 815.15174 L 141.15182 814.94111 L 140.79358 814.53726 L 140.72078 814.47207 L 140.69867 814.43027 L 140.63611 814.35974 L 127.21628 795.88893 L 126.93925 795.31735 L 126.64237 794.756 L 126.63296 794.6854 L 126.60189 794.62129 L 126.54019 793.9891 L 126.45632 793.35967 L 126.47197 793.29019 L 126.46505 793.21928 L 126.62632 792.60496 L 126.76587 791.98542 L 126.80465 791.92566 L 126.82273 791.85677 L 127.21628 791.18665 L 140.63611 772.71584 L 140.81638 772.54262 L 140.95246 772.33289 L 141.32061 772.05809 L 141.65185 771.7398 L 141.88098 771.63982 L 142.08133 771.49027 L 142.52192 771.36014 L 142.94296 771.17641 L 143.19254 771.16206 L 143.43231 771.09124 L 143.89069 771.12191 L 144.34931 771.09554 L 144.72126 771.17749 L 144.83785 771.18529 L 144.91655 771.22051 L 145.10825 771.26275 L 164.05805 777.41991 L 174.06147 763.65139 L 164.05805 749.88288 L 145.10825 756.04004 L 143.7128 756.23263 L 142.33711 755.92953 L 141.15182 755.16832 L 140.63611 754.58695 L 127.21628 736.11614 L 126.60189 734.8485 L 126.46505 733.44649 L 126.82273 732.08398 L 127.21628 731.41386 L 138.92791 715.29419 L 128.92449 701.52567 L 112.73861 706.78477 L 112.73861 726.70978 L 112.49056 728.09645 L 111.77719 729.31114 L 110.68695 730.2032 L 109.97468 730.51401 L 88.26094 737.56923 L 86.86549 737.76182 L 85.4898 737.45872 L 84.30451 736.69751 L 83.7888 736.11614 L 70.36898 717.64533 L 69.75459 716.37769 L 69.61775 714.97568 L 69.97543 713.61316 L 70.36898 712.94305 L 82.0806 696.82338 L 71.13292 681.75518 L 50.65524 675.10158 L 49.41309 674.43717 L 48.4783 673.38334 L 47.9668 672.07081 L 47.89131 671.29735 L 47.89131 648.46618 L 47.90719 648.37742 L 47.89528 648.28806 L 48.03078 647.68652 L 48.13936 647.07951 L 48.18502 647.00177 L 48.20483 646.91381 L 48.54043 646.39658 L 48.85273 645.86482 L 48.92252 645.80772 L 48.97159 645.73209 L 49.46571 645.36326 L 49.94297 644.97276 L 50.05348 644.92454 L 50.10046 644.88947 L 50.20377 644.85896 L 50.65524 644.66195 L 71.13292 638.00835 L 82.0806 622.94015 L 70.36898 606.82048 L 70.09195 606.2489 L 69.79507 605.68755 L 69.78566 605.61695 L 69.75459 605.55284 L 69.69289 604.92065 L 69.60902 604.29122 L 69.62467 604.22174 L 69.61775 604.15083 L 69.77903 603.53648 L 69.91857 602.91697 L 69.95734 602.85722 L 69.97543 602.78831 L 70.36898 602.1182 L 83.7888 583.64739 L 83.96907 583.47417 L 84.10515 583.26444 L 84.4733 582.98964 L 84.80454 582.67135 L 85.03367 582.57137 L 85.23402 582.42182 L 85.67461 582.29169 L 86.09565 582.10796 L 86.34523 582.09361 L 86.585 582.02279 L 87.04338 582.05346 L 87.502 582.02709 L 87.87395 582.10904 L 87.99054 582.11684 L 88.06924 582.15206 L 88.26094 582.1943 L 109.97468 589.24952 L 110.47364 589.51641 L 110.99005 589.74754 L 111.09155 589.84692 L 111.21683 589.91393 L 111.59229 590.33721 L 111.99659 590.73306 L 112.02655 590.82676 L 112.15162 590.96776 L 112.66312 592.28029 L 112.73861 593.05375 L 112.73861 612.97876 L 128.92449 618.23786 L 138.92791 604.46934 L 127.21628 588.34967 L 126.93925 587.77809 L 126.64237 587.21674 L 126.63296 587.14614 L 126.60189 587.08203 L 126.54019 586.44984 L 126.45632 585.82041 L 126.47197 585.75093 L 126.46505 585.68002 L 126.62632 585.0657 L 126.76587 584.44616 L 126.80465 584.3864 L 126.82273 584.31751 L 127.21628 583.64739 L 140.63611 565.17658 L 140.81638 565.00336 L 140.95246 564.79363 L 141.32061 564.51883 L 141.65185 564.20054 L 141.88098 564.10056 L 142.08133 563.95101 L 142.52192 563.82088 L 142.94296 563.63715 L 143.19254 563.6228 L 143.43231 563.55198 L 143.89069 563.58265 L 144.34931 563.55628 L 144.72126 563.63823 L 144.83785 563.64603 L 144.91655 563.68125 L 145.10825 563.72349 L 164.05805 569.88065 L 174.06147 556.11214 L 164.05805 542.34362 L 145.10825 548.50078 L 144.79122 548.54453 L 144.48865 548.64876 L 144.09893 548.64008 L 143.7128 548.69337 L 143.4003 548.62452 L 143.08032 548.61739 L 142.71776 548.47414 L 142.33711 548.39027 L 142.06785 548.21734 L 141.7702 548.09974 L 141.47979 547.83969 L 141.15182 547.62906 L 140.79358 547.22521 L 140.72078 547.16002 L 140.69867 547.11822 L 140.63611 547.04769 L 127.21628 528.57688 L 126.93925 528.0053 L 126.64237 527.44395 L 126.63296 527.37335 L 126.60189 527.30924 L 126.54019 526.67705 L 126.45632 526.04762 L 126.47197 525.97814 L 126.46505 525.90723 L 126.62632 525.29291 L 126.76587 524.67337 L 126.80465 524.61361 L 126.82273 524.54472 L 127.21628 523.8746 L 140.63611 505.40379 L 140.81638 505.23057 L 140.95246 505.02084 L 141.32061 504.74604 L 141.65185 504.42775 L 141.88098 504.32777 L 142.08133 504.17822 L 142.52192 504.04809 L 142.94296 503.86436 L 143.19254 503.85001 L 143.43231 503.77919 L 143.89069 503.80986 L 144.34931 503.78349 L 144.72126 503.86544 L 144.83785 503.87324 L 144.91655 503.90846 L 145.10825 503.9507 L 164.05805 510.10786 L 175.00574 495.03966 L 175.00574 473.50817 L 175.02162 473.41941 L 175.00971 473.33005 L 175.14521 472.72851 L 175.25379 472.1215 L 175.29945 472.04376 L 175.31926 471.9558 L 175.65486 471.43857 L 175.96716 470.90681 L 176.03695 470.84971 L 176.08602 470.77408 L 176.58014 470.40525 L 177.0574 470.01475 L 177.16791 469.96653 L 177.21489 469.93146 L 177.3182 469.90095 L 177.76967 469.70394 L 199.48341 462.64872 L 199.88797 462.59289 L 200.27961 462.47721 L 200.58032 462.49733 L 200.87886 462.45613 Z M 181.47787 767.054 L 168.82198 784.47334 L 168.70598 784.58481 L 168.62449 784.72356 L 168.20086 785.07019 L 167.80624 785.44938 L 167.65878 785.51372 L 167.53425 785.61562 L 167.01674 785.79389 L 166.51513 786.01277 L 166.35451 786.02201 L 166.20238 786.07441 L 165.65516 786.06222 L 165.10878 786.09364 L 164.88868 786.04515 L 164.79405 786.04304 L 164.68683 786.00068 L 164.34984 785.92643 L 145.40004 779.76927 L 135.39662 793.53779 L 145.40004 807.30631 L 164.34984 801.14915 L 164.7544 801.09332 L 165.14604 800.97764 L 165.44675 800.99776 L 165.74529 800.95656 L 166.14407 801.04442 L 166.55158 801.07169 L 166.82668 801.19482 L 167.12098 801.25966 L 167.46459 801.48033 L 167.83735 801.64717 L 168.0527 801.85803 L 168.30627 802.02087 L 168.82198 802.60224 L 182.24181 821.07305 L 182.25011 821.09017 L 182.26372 821.1035 L 182.27758 821.14686 L 182.8562 822.34069 L 183.00574 823.42419 L 183.00574 843.34919 L 199.19162 848.60829 L 210.90324 832.48863 L 211.08351 832.31541 L 211.21959 832.10568 L 211.58774 831.83088 L 211.91898 831.51259 L 212.19041 831.38103 L 212.34846 831.26306 L 212.56698 831.19852 L 212.90324 831.03554 L 234.61698 823.98032 L 235.02154 823.92449 L 235.41318 823.80881 L 235.71389 823.82893 L 236.01243 823.78773 L 236.41121 823.87559 L 236.81872 823.90286 L 237.09382 824.02599 L 237.38812 824.09083 L 237.73173 824.3115 L 238.10449 824.47834 L 238.31984 824.6892 L 238.57341 824.85204 L 239.08912 825.43341 L 250.80073 841.55307 L 266.98661 836.29397 L 266.98661 819.27514 L 248.0368 813.11797 L 247.61539 812.89256 L 247.17089 812.71693 L 246.99858 812.56263 L 246.79465 812.45355 L 246.47753 812.09605 L 246.12147 811.77721 L 246.01334 811.57275 L 245.85986 811.39973 L 245.68632 810.95441 L 245.46289 810.53195 L 245.43235 810.30271 L 245.34836 810.0872 L 245.27287 809.31374 L 245.27287 787.78225 L 234.32519 772.71405 L 215.37538 778.87121 L 213.97993 779.0638 L 212.60424 778.7607 L 211.41895 777.99949 L 210.90324 777.41812 L 199.19162 761.29846 Z M 396.2112 710.59011 L 396.0952 710.70158 L 396.01371 710.84033 L 395.59008 711.18696 L 395.19546 711.56615 L 395.048 711.63049 L 394.92347 711.73239 L 394.40596 711.91066 L 393.90435 712.12954 L 393.74373 712.13878 L 393.5916 712.19118 L 393.04438 712.17899 L 392.498 712.21041 L 392.2779 712.16192 L 392.18327 712.15981 L 392.07605 712.11745 L 391.73906 712.0432 L 371.26139 705.3896 L 353.54765 711.14514 L 353.54765 731.07014 L 353.2996 732.45681 L 352.58623 733.6715 L 351.49599 734.56356 L 350.78372 734.87437 L 331.83391 741.03154 L 331.83391 759.65686 L 344.48981 777.07621 L 344.49811 777.09333 L 344.51172 777.10666 L 344.52558 777.15002 L 345.1042 778.34385 L 345.19071 779.23023 L 345.25374 779.42735 L 345.22541 779.58572 L 345.24104 779.74586 L 345.10206 780.27526 L 345.00569 780.81402 L 344.92421 780.95276 L 344.88336 781.10837 L 344.48981 781.77849 L 332.77818 797.89816 L 342.7816 811.66668 L 358.96748 806.40757 L 358.96748 786.48257 L 358.98336 786.39381 L 358.97145 786.30445 L 359.10695 785.70291 L 359.21553 785.0959 L 359.26119 785.01816 L 359.281 784.9302 L 359.6166 784.41297 L 359.9289 783.88121 L 359.99869 783.82411 L 360.04776 783.74848 L 360.54188 783.37965 L 361.01914 782.98915 L 361.12965 782.94093 L 361.17663 782.90586 L 361.27994 782.87535 L 361.73141 782.67834 L 383.44515 775.62312 L 383.84971 775.56729 L 384.24135 775.45161 L 384.54206 775.47173 L 384.8406 775.43053 L 385.38704 775.52827 L 385.64689 775.54566 L 385.75516 775.59412 L 385.91729 775.62312 L 404.86709 781.78028 L 414.87051 768.01176 L 403.15888 751.89209 L 402.88185 751.32051 L 402.58497 750.75916 L 402.57556 750.68856 L 402.54449 750.62445 L 402.39495 749.54095 L 402.39495 726.70978 L 402.41083 726.62102 L 402.39892 726.53166 L 402.53442 725.93012 L 402.643 725.32311 L 402.68866 725.24537 L 402.70847 725.15741 L 403.04407 724.64018 L 403.35637 724.10842 L 403.42616 724.05132 L 403.47523 723.97569 L 403.96935 723.60686 L 404.44661 723.21636 L 404.55712 723.16814 L 404.6041 723.13307 L 404.70741 723.10256 L 405.15888 722.90555 L 424.10869 716.74839 L 424.10869 699.72955 L 407.92281 694.47045 Z M 261.56678 718.20036 L 261.56678 738.12537 L 261.31873 739.51204 L 260.60536 740.72673 L 259.51512 741.61879 L 258.80285 741.9296 L 239.85305 748.08676 L 239.85305 766.71208 L 250.80073 781.78028 L 269.75054 775.62312 L 270.1551 775.56729 L 270.54674 775.45161 L 270.84745 775.47173 L 271.14599 775.43053 L 271.54477 775.51839 L 271.95228 775.54566 L 272.22738 775.66879 L 272.52168 775.73363 L 272.86529 775.9543 L 273.23805 776.12114 L 273.4534 776.332 L 273.70697 776.49484 L 274.22268 777.07621 L 285.9343 793.19587 L 302.12018 787.93677 L 302.12018 768.01176 L 302.13606 767.923 L 302.12415 767.83364 L 302.25965 767.2321 L 302.36823 766.62509 L 302.41389 766.54735 L 302.4337 766.45939 L 302.7693 765.94216 L 303.0816 765.4104 L 303.15139 765.3533 L 303.20046 765.27767 L 303.69458 764.90884 L 304.17184 764.51834 L 304.28235 764.47012 L 304.32933 764.43505 L 304.43264 764.40454 L 304.88411 764.20753 L 323.83391 758.05037 L 323.83391 739.42505 L 312.88623 724.35685 L 293.93642 730.51401 L 292.54097 730.7066 L 291.16528 730.4035 L 289.97999 729.64229 L 289.46428 729.06092 L 277.75266 712.94126 Z M 205.66375 563.16736 L 217.37538 579.28703 L 217.98977 580.55467 L 218.12661 581.95668 L 217.76893 583.31919 L 217.37538 583.98931 L 205.66375 600.10897 L 217.37538 616.22864 L 217.98977 617.49628 L 218.12661 618.89829 L 217.76893 620.2608 L 217.37538 620.93092 L 203.95555 639.40173 L 202.93981 640.37777 L 201.6487 640.94116 L 200.24235 641.02203 L 199.48341 640.85482 L 180.5336 634.69766 L 168.82198 650.81732 L 167.80624 651.79336 L 166.51513 652.35675 L 165.10878 652.43762 L 164.34984 652.27041 L 145.40004 646.11325 L 135.39662 659.88177 L 145.40004 673.65028 L 164.34984 667.49312 L 164.7544 667.43729 L 165.14604 667.32161 L 165.44675 667.34173 L 165.74529 667.30053 L 166.14407 667.38839 L 166.55158 667.41566 L 166.82668 667.53879 L 167.12098 667.60363 L 167.46459 667.8243 L 167.83735 667.99114 L 168.0527 668.202 L 168.30627 668.36484 L 168.82198 668.94621 L 180.5336 685.06587 L 199.48341 678.90871 L 199.88797 678.85288 L 200.27961 678.7372 L 200.58032 678.75732 L 200.87886 678.71612 L 201.27764 678.80398 L 201.68515 678.83125 L 201.96025 678.95438 L 202.25455 679.01922 L 202.59816 679.23989 L 202.97092 679.40673 L 203.18627 679.61759 L 203.43984 679.78043 L 203.95555 680.3618 L 217.37538 698.83261 L 217.38368 698.84973 L 217.39729 698.86306 L 217.41115 698.90642 L 217.98977 700.10025 L 218.07628 700.98663 L 218.13931 701.18375 L 218.11098 701.34212 L 218.12661 701.50226 L 217.98763 702.03166 L 217.89126 702.57042 L 217.80978 702.70916 L 217.76893 702.86477 L 217.37538 703.53489 L 205.66375 719.65456 L 217.37538 735.77423 L 217.38368 735.79135 L 217.39729 735.80468 L 217.41115 735.84804 L 217.98977 737.04187 L 218.07628 737.92825 L 218.13931 738.12537 L 218.11098 738.28374 L 218.12661 738.44388 L 217.98763 738.97328 L 217.89126 739.51204 L 217.80978 739.65078 L 217.76893 739.80639 L 217.37538 740.47651 L 205.66375 756.59617 L 215.66717 770.36469 L 231.85305 765.10559 L 231.85305 745.18059 L 232.1011 743.79392 L 232.81447 742.57923 L 233.90471 741.68717 L 234.61698 741.37636 L 253.56678 735.2192 L 253.56678 715.29419 L 253.81483 713.90752 L 254.5282 712.69283 L 255.61844 711.80077 L 256.33071 711.48996 L 278.04445 704.43474 L 279.4399 704.24215 L 280.81559 704.54525 L 282.00088 705.30646 L 282.51659 705.88783 L 294.22821 722.00749 L 313.17802 715.85033 L 314.57347 715.65774 L 315.94916 715.96084 L 317.13445 716.72205 L 317.65016 717.30342 L 329.36177 733.42308 L 345.54765 728.16397 L 345.54765 711.14514 L 326.59784 704.98798 L 326.1764 704.76256 L 325.73193 704.58694 L 325.55964 704.43266 L 325.35569 704.32357 L 325.03854 703.96603 L 324.68251 703.64722 L 324.57438 703.44276 L 324.4209 703.26974 L 324.24736 702.82442 L 324.02393 702.40196 L 323.99339 702.17272 L 323.9094 701.95721 L 323.83391 701.18375 L 323.83391 681.25874 L 304.88411 675.10158 L 304.46267 674.87616 L 304.0182 674.70054 L 303.84591 674.54626 L 303.64196 674.43717 L 303.32481 674.07963 L 302.96878 673.76082 L 302.86065 673.55636 L 302.70717 673.38334 L 302.53363 672.93802 L 302.3102 672.51556 L 302.27966 672.28632 L 302.19567 672.07081 L 302.12018 671.29735 L 302.12018 648.46618 L 302.13606 648.37742 L 302.12415 648.28806 L 302.25965 647.68652 L 302.36823 647.07951 L 302.41389 647.00177 L 302.4337 646.91381 L 302.7693 646.39658 L 303.0816 645.86482 L 303.15139 645.80772 L 303.20046 645.73209 L 303.69458 645.36326 L 304.17184 644.97276 L 304.28235 644.92454 L 304.32933 644.88947 L 304.43264 644.85896 L 304.88411 644.66195 L 323.83391 638.50479 L 323.83391 618.57978 L 323.84979 618.49102 L 323.83788 618.40166 L 323.97338 617.80012 L 324.08196 617.19311 L 324.12762 617.11537 L 324.14743 617.02741 L 324.48303 616.51018 L 324.79533 615.97842 L 324.86512 615.92132 L 324.91419 615.84569 L 325.40831 615.47686 L 325.88557 615.08636 L 325.99608 615.03814 L 326.04306 615.00307 L 326.14637 614.97256 L 326.59784 614.77555 L 345.54765 608.61839 L 345.54765 591.59956 L 329.36177 586.34046 L 317.65016 602.46011 L 317.53416 602.57158 L 317.45267 602.71033 L 317.02904 603.05696 L 316.63442 603.43615 L 316.48696 603.50049 L 316.36243 603.60239 L 315.84492 603.78066 L 315.34331 603.99954 L 315.18269 604.00878 L 315.03056 604.06118 L 314.48334 604.04899 L 313.93696 604.08041 L 313.71686 604.03192 L 313.62223 604.02981 L 313.51501 603.98745 L 313.17802 603.9132 L 294.22821 597.75604 L 282.51659 613.8757 L 282.40059 613.98717 L 282.3191 614.12592 L 281.89547 614.47255 L 281.50085 614.85174 L 281.35339 614.91608 L 281.22886 615.01798 L 280.71135 615.19625 L 280.20974 615.41513 L 280.04912 615.42437 L 279.89699 615.47677 L 279.34977 615.46458 L 278.80339 615.496 L 278.58329 615.44751 L 278.48866 615.4454 L 278.38144 615.40304 L 278.04445 615.32879 L 256.33071 608.27357 L 255.90927 608.04815 L 255.4648 607.87253 L 255.29251 607.71825 L 255.08856 607.60916 L 254.77141 607.25162 L 254.41538 606.93281 L 254.30725 606.72835 L 254.15377 606.55533 L 253.98023 606.11001 L 253.7568 605.68755 L 253.72626 605.45831 L 253.64227 605.2428 L 253.56678 604.46934 L 253.56678 584.54434 L 234.61698 578.38717 L 234.19557 578.16176 L 233.75107 577.98613 L 233.57876 577.83183 L 233.37483 577.72275 L 233.05771 577.36525 L 232.70165 577.04641 L 232.59352 576.84195 L 232.44004 576.66893 L 232.2665 576.22361 L 232.04307 575.80115 L 232.01253 575.57191 L 231.92854 575.3564 L 231.85305 574.58294 L 231.85305 554.65794 L 215.66717 549.39884 Z M 146.34431 681.75518 L 135.39662 696.82338 L 147.10825 712.94305 L 147.72264 714.21069 L 147.85948 715.6127 L 147.5018 716.97521 L 147.10825 717.64533 L 135.39662 733.765 L 145.40004 747.53352 L 164.34984 741.37636 L 165.74529 741.18377 L 167.12098 741.48687 L 168.30627 742.24808 L 168.82198 742.82945 L 180.5336 758.9491 L 198.24735 753.19356 L 209.19504 738.12537 L 197.48341 722.0057 L 197.20638 721.43412 L 196.9095 720.87277 L 196.90009 720.80217 L 196.86902 720.73806 L 196.80732 720.10587 L 196.72345 719.47644 L 196.7391 719.40696 L 196.73218 719.33605 L 196.89345 718.72173 L 197.033 718.10219 L 197.07178 718.04243 L 197.08986 717.97354 L 197.48341 717.30342 L 209.19504 701.18375 L 199.19162 687.41523 L 180.24181 693.57239 L 179.92478 693.61614 L 179.62221 693.72037 L 179.23249 693.71169 L 178.84636 693.76498 L 178.53386 693.69613 L 178.21388 693.689 L 177.85132 693.54575 L 177.47067 693.46188 L 177.20141 693.28895 L 176.90376 693.17135 L 176.61335 692.9113 L 176.28538 692.70067 L 175.92714 692.29682 L 175.85434 692.23163 L 175.83223 692.18983 L 175.76967 692.1193 L 164.05805 675.99964 Z M 78.54932 604.46934 L 90.26094 620.58901 L 90.26924 620.60613 L 90.28285 620.61946 L 90.29671 620.66282 L 90.87533 621.85665 L 90.96184 622.74303 L 91.02487 622.94015 L 90.99654 623.09852 L 91.01217 623.25866 L 90.87319 623.78807 L 90.77682 624.32682 L 90.69534 624.46555 L 90.65449 624.62118 L 90.26094 625.29129 L 76.84112 643.7621 L 76.72512 643.87357 L 76.64363 644.01232 L 76.22 644.35895 L 75.82538 644.73814 L 75.65656 644.81996 L 75.55339 644.90438 L 75.30795 644.98893 L 74.84112 645.21519 L 55.89131 651.37235 L 55.89131 668.39118 L 74.84112 674.54834 L 76.08327 675.21275 L 76.84112 676.00143 L 90.26094 694.47224 L 90.87533 695.73988 L 91.01217 697.14189 L 90.65449 698.50441 L 90.26094 699.17452 L 78.54932 715.29419 L 88.55273 729.06271 L 104.73861 723.80361 L 104.73861 703.8786 L 104.98666 702.49193 L 105.70003 701.27724 L 106.79027 700.38518 L 107.50254 700.07437 L 127.98022 693.42077 L 138.92791 678.35257 L 127.21628 662.23291 L 126.60189 660.96528 L 126.46505 659.56326 L 126.82273 658.20075 L 127.21628 657.53063 L 138.92791 641.41096 L 127.98022 626.34276 L 107.50254 619.68916 L 107.0811 619.46374 L 106.63663 619.28812 L 106.46434 619.13384 L 106.26039 619.02475 L 105.94324 618.66721 L 105.58721 618.3484 L 105.47908 618.14394 L 105.3256 617.97092 L 105.15206 617.5256 L 104.92863 617.10314 L 104.89809 616.8739 L 104.8141 616.65839 L 104.73861 615.88493 L 104.73861 595.95992 L 88.55273 590.70082 Z M 331.83391 621.48595 L 331.83391 641.41096 L 331.58586 642.79763 L 330.87249 644.01232 L 329.78225 644.90438 L 329.06998 645.21519 L 310.12018 651.37235 L 310.12018 668.39118 L 329.06998 674.54834 L 329.56894 674.81523 L 330.08535 675.04636 L 330.18685 675.14574 L 330.31213 675.21275 L 330.68759 675.63603 L 331.09189 676.03188 L 331.12185 676.12558 L 331.24692 676.26658 L 331.75842 677.57911 L 331.83391 678.35257 L 331.83391 698.27758 L 349.54765 704.03312 L 367.26139 698.27758 L 367.26139 678.35257 L 367.50944 676.9659 L 368.22281 675.75121 L 369.31305 674.85915 L 370.02532 674.54834 L 388.97513 668.39118 L 388.97513 651.37235 L 370.02532 645.21519 L 368.78317 644.55078 L 367.84838 643.49695 L 367.33688 642.18442 L 367.26139 641.41096 L 367.26139 621.48595 L 349.54765 615.73041 Z M 168.82198 576.93408 L 168.70598 577.04555 L 168.62449 577.1843 L 168.20086 577.53093 L 167.80624 577.91012 L 167.65878 577.97446 L 167.53425 578.07636 L 167.01674 578.25463 L 166.51513 578.47351 L 166.35451 578.48275 L 166.20238 578.53515 L 165.65516 578.52296 L 165.10877 578.55438 L 164.88867 578.50589 L 164.79405 578.50378 L 164.68684 578.46142 L 164.34984 578.38717 L 145.40004 572.23001 L 135.39662 585.99853 L 147.10825 602.1182 L 147.11655 602.13532 L 147.13016 602.14865 L 147.14402 602.19201 L 147.72264 603.38584 L 147.80915 604.27222 L 147.87218 604.46934 L 147.84385 604.62771 L 147.85948 604.78785 L 147.7205 605.31725 L 147.62413 605.85601 L 147.54265 605.99475 L 147.5018 606.15036 L 147.10825 606.82048 L 135.39662 622.94015 L 146.34431 638.00835 L 164.05805 643.76389 L 175.76967 627.64423 L 176.78541 626.66819 L 178.07652 626.1048 L 179.48287 626.02393 L 180.24181 626.19114 L 199.19162 632.3483 L 209.19504 618.57978 L 197.48341 602.46011 L 196.86902 601.19247 L 196.73218 599.79046 L 197.08986 598.42795 L 197.48341 597.75783 L 209.19504 581.63817 L 198.24735 566.56997 L 180.5336 560.81443 Z M 332.77818 521.86537 L 344.48981 537.98504 L 345.1042 539.25268 L 345.24104 540.65469 L 344.88336 542.0172 L 344.48981 542.68732 L 331.83391 560.10667 L 331.83391 578.732 L 350.78372 584.88916 L 351.28268 585.15605 L 351.79909 585.38718 L 351.90059 585.48656 L 352.02587 585.55357 L 352.40133 585.97685 L 352.80563 586.3727 L 352.83559 586.4664 L 352.96066 586.6074 L 353.47216 587.91993 L 353.54765 588.69339 L 353.54765 608.61839 L 371.26139 614.37393 L 391.73906 607.72033 L 393.13451 607.52774 L 394.5102 607.83084 L 395.69549 608.59205 L 396.2112 609.17342 L 407.92281 625.29308 L 424.10869 620.03398 L 424.10869 603.01514 L 405.15888 596.85798 L 403.91673 596.19357 L 402.98194 595.13974 L 402.47044 593.82721 L 402.39495 593.05375 L 402.39495 570.22258 L 402.643 568.83591 L 403.15888 567.87144 L 414.87051 551.75177 L 404.86709 537.98325 L 385.91729 544.14041 L 384.52184 544.333 L 383.44515 544.14041 L 361.73141 537.08519 L 360.48926 536.42078 L 359.55447 535.36695 L 359.04297 534.05442 L 358.96748 533.28096 L 358.96748 513.35596 L 342.7816 508.09685 Z M 274.22268 542.68732 L 273.20694 543.66336 L 271.91583 544.22675 L 270.50948 544.30762 L 269.75054 544.14041 L 250.80073 537.98325 L 239.85305 553.05145 L 239.85305 571.67677 L 258.80285 577.83394 L 259.30176 578.10081 L 259.81822 578.33196 L 259.91974 578.43136 L 260.045 578.49836 L 260.42042 578.92159 L 260.82476 579.31748 L 260.85472 579.41119 L 260.97979 579.55218 L 261.49129 580.86471 L 261.56678 581.63817 L 261.56678 601.56317 L 277.75266 606.82227 L 289.46428 590.70261 L 289.64455 590.52939 L 289.78063 590.31966 L 290.14878 590.04486 L 290.48002 589.72657 L 290.70915 589.62659 L 290.9095 589.47704 L 291.35009 589.34691 L 291.77113 589.16318 L 292.02071 589.14883 L 292.26048 589.07801 L 292.71886 589.10868 L 293.17748 589.08231 L 293.54943 589.16426 L 293.66602 589.17206 L 293.74472 589.20728 L 293.93642 589.24952 L 312.88623 595.40668 L 323.83391 580.33849 L 323.83391 561.71316 L 304.88411 555.556 L 303.64196 554.89159 L 302.70717 553.83776 L 302.19567 552.52523 L 302.12018 551.75177 L 302.12018 531.82676 L 285.9343 526.56766 Z M 183.00574 476.41434 L 183.00574 496.33934 L 182.75769 497.72601 L 182.24181 498.69048 L 168.82198 517.16129 L 168.70598 517.27276 L 168.62449 517.41151 L 168.20086 517.75814 L 167.80624 518.13733 L 167.65878 518.20167 L 167.53425 518.30357 L 167.01674 518.48184 L 166.51513 518.70072 L 166.35451 518.70996 L 166.20238 518.76236 L 165.65516 518.75017 L 165.10878 518.78159 L 164.88868 518.7331 L 164.79405 518.73099 L 164.68683 518.68863 L 164.34984 518.61438 L 145.40004 512.45722 L 135.39662 526.22574 L 145.40004 539.99426 L 164.34984 533.8371 L 164.7544 533.78127 L 165.14604 533.66559 L 165.44675 533.68571 L 165.74529 533.64451 L 166.14407 533.73237 L 166.55158 533.75964 L 166.82668 533.88277 L 167.12098 533.94761 L 167.46459 534.16828 L 167.83735 534.33512 L 168.0527 534.54598 L 168.30627 534.70882 L 168.82198 535.29019 L 181.47787 552.70953 L 199.19162 558.46507 L 210.90324 542.34541 L 211.91898 541.36937 L 213.21009 540.80598 L 214.61644 540.72511 L 215.37538 540.89232 L 234.32519 547.04948 L 245.27287 531.98128 L 245.27287 510.44979 L 245.28875 510.36103 L 245.27684 510.27167 L 245.41234 509.67013 L 245.52092 509.06312 L 245.56658 508.98538 L 245.58639 508.89742 L 245.92199 508.38019 L 246.23429 507.84843 L 246.30408 507.79133 L 246.35315 507.7157 L 246.84727 507.34687 L 247.32453 506.95637 L 247.43504 506.90815 L 247.48202 506.87308 L 247.58533 506.84257 L 248.0368 506.64556 L 266.98661 500.48839 L 266.98661 483.46956 L 250.80073 478.21046 L 239.08912 494.33012 L 238.97312 494.44159 L 238.89163 494.58034 L 238.468 494.92697 L 238.07338 495.30616 L 237.92592 495.3705 L 237.80139 495.4724 L 237.28388 495.65067 L 236.78227 495.86955 L 236.62165 495.87879 L 236.46952 495.93119 L 235.9223 495.919 L 235.37592 495.95042 L 235.15582 495.90193 L 235.06119 495.89982 L 234.95397 495.85746 L 234.61698 495.78321 L 212.90324 488.72799 L 212.4818 488.50257 L 212.03733 488.32695 L 211.86504 488.17267 L 211.66109 488.06358 L 211.15467 487.53656 L 210.98791 487.38723 L 210.95943 487.33337 L 210.90324 487.2749 L 199.19162 471.15524 Z" stroke-miterlimit="10"/><path fill="#222222" stroke="#cccccc" paint-order="fill stroke markers" d=" M 687.11225 459.3427 L 688.29755 460.10391 L 688.81326 460.68528 L 706.23002 484.65739 L 734.41093 475.50086 L 734.81549 475.44503 L 735.20713 475.32935 L 735.50784 475.34947 L 735.80638 475.30827 L 736.20516 475.39613 L 736.61267 475.4234 L 736.88777 475.54653 L 737.18207 475.61137 L 737.52568 475.83204 L 737.89844 475.99888 L 738.11379 476.20974 L 738.36736 476.37258 L 738.88307 476.95395 L 769.82791 519.54587 L 769.83621 519.56299 L 769.84982 519.57632 L 769.86368 519.61968 L 770.03635 519.97593 L 770.29272 520.37928 L 770.33444 520.59097 L 770.4423 520.81351 L 770.50509 521.45685 L 770.59184 521.89701 L 770.59184 571.63735 L 817.89772 587.00796 L 818.03961 587.08385 L 818.19672 587.11847 L 818.65719 587.41419 L 819.13987 587.67237 L 819.24665 587.79275 L 819.38201 587.87968 L 819.89772 588.46105 L 850.84256 631.05297 L 851.45695 632.32061 L 851.59379 633.72262 L 851.23611 635.08513 L 850.84256 635.75525 L 833.4258 659.72736 L 850.84256 683.69948 L 850.85086 683.7166 L 850.86447 683.72993 L 850.87833 683.77329 L 851.45695 684.96712 L 851.54346 685.8535 L 851.60649 686.05062 L 851.57816 686.20899 L 851.59379 686.36913 L 851.45481 686.89853 L 851.35844 687.43729 L 851.27696 687.57603 L 851.23611 687.73164 L 850.84256 688.40176 L 819.89772 730.99368 L 819.78172 731.10515 L 819.70023 731.2439 L 819.2766 731.59053 L 818.88198 731.96972 L 818.73452 732.03406 L 818.60999 732.13596 L 817.89772 732.44677 L 770.59184 747.81738 L 770.59184 797.55771 L 770.56351 797.71608 L 770.57914 797.87622 L 770.44016 798.40562 L 770.34379 798.94438 L 770.26231 799.08312 L 770.22146 799.23873 L 769.82791 799.90885 L 738.88307 842.50077 L 737.86733 843.47681 L 736.57622 844.0402 L 735.16987 844.12107 L 734.41093 843.95386 L 706.23002 834.79733 L 688.81326 858.76944 L 688.69726 858.88091 L 688.61577 859.01966 L 688.19214 859.36629 L 687.79752 859.74548 L 687.65006 859.80982 L 687.52553 859.91172 L 687.00802 860.08999 L 686.50641 860.30887 L 686.34579 860.31811 L 686.19366 860.37051 L 685.64644 860.35832 L 685.10006 860.38974 L 684.87996 860.34125 L 684.78533 860.33914 L 684.67811 860.29678 L 684.34112 860.22253 L 634.27132 843.95386 L 633.84988 843.72844 L 633.40541 843.55282 L 633.23312 843.39854 L 633.02917 843.28945 L 632.71202 842.93191 L 632.35599 842.6131 L 632.32091 842.54678 L 632.27132 842.50077 L 603.03468 802.26 L 555.72881 817.63061 L 555.25538 817.69595 L 554.79255 817.81513 L 554.57832 817.78939 L 554.33336 817.8232 L 553.70218 817.68413 L 553.25667 817.63061 L 503.18686 801.36194 L 501.94471 800.69753 L 501.00992 799.6437 L 500.49842 798.33117 L 500.42293 797.55771 L 500.42293 767.92655 L 472.24202 758.77002 L 470.99987 758.10561 L 470.06508 757.05178 L 469.55358 755.73925 L 469.47809 754.96579 L 469.47809 702.31928 L 469.49397 702.23052 L 469.48206 702.14116 L 469.49771 702.07168 L 469.49079 702.00077 L 469.62977 701.47137 L 469.72614 700.93261 L 469.7718 700.85487 L 469.79161 700.76691 L 469.83039 700.70715 L 469.84847 700.63826 L 470.24202 699.96814 L 499.47866 659.72736 L 470.24202 619.48658 L 470.17184 619.34179 L 470.06508 619.22143 L 469.89154 618.77611 L 469.66811 618.35365 L 469.6587 618.28305 L 469.62763 618.21894 L 469.612 618.05881 L 469.55358 617.9089 L 469.47809 617.13544 L 469.47809 564.48893 L 469.72614 563.10226 L 470.43951 561.88757 L 471.52975 560.99551 L 472.24202 560.6847 L 500.42293 551.52817 L 500.42293 521.89701 L 500.43881 521.80825 L 500.4269 521.71889 L 500.5624 521.11735 L 500.67098 520.51034 L 500.71664 520.4326 L 500.73645 520.34464 L 501.07205 519.82741 L 501.38435 519.29565 L 501.45414 519.23855 L 501.50321 519.16292 L 501.99733 518.79409 L 502.47459 518.40359 L 502.5851 518.35537 L 502.63208 518.3203 L 502.73539 518.28979 L 503.18686 518.09278 L 553.25667 501.82411 L 553.66123 501.76828 L 554.05287 501.6526 L 554.12394 501.65736 L 554.19293 501.63959 L 554.40716 501.66533 L 554.65212 501.63152 L 555.0509 501.71938 L 555.45841 501.74665 L 555.59576 501.80813 L 555.72881 501.82411 L 603.03468 517.19472 L 632.27132 476.95395 L 632.61593 476.62281 L 632.92031 476.25435 L 633.10875 476.14926 L 633.28706 475.97791 L 633.87946 475.71941 L 634.27132 475.50086 L 684.34112 459.23219 L 685.73657 459.0396 Z M 648.45168 840.14963 L 684.04933 851.71601 L 698.23001 832.19797 L 685.57719 828.08682 Z M 718.99416 817.22899 L 711.17429 827.99212 L 734.11914 835.44734 L 756.1197 805.16617 Z M 639.50739 790.40929 L 639.50739 834.6441 L 681.57719 820.9748 L 681.57719 776.73999 Z M 587.90971 774.63707 L 564.96488 806.21792 L 603.32647 793.75348 L 604.72192 793.56089 L 606.0976 793.86399 L 607.2829 794.6252 L 607.79861 795.20657 L 631.50739 827.8389 L 631.50739 788.8028 L 614.85456 765.88216 Z M 689.57719 820.97479 L 703.17429 825.39276 L 711.57776 813.82638 L 689.57719 783.5452 Z M 692.04933 773.33739 L 718.04989 809.12409 L 760.1197 795.45478 L 734.11914 759.66808 Z M 528.49217 771.23446 L 554.49274 807.02117 L 580.49331 771.23446 L 554.49274 735.44775 Z M 508.42293 794.65154 L 544.0206 806.21792 L 521.07577 774.63707 L 508.42293 770.52591 Z M 739.647 725.33463 L 739.647 753.66611 L 762.59184 785.24697 L 762.59184 744.9112 L 762.60772 744.82244 L 762.59581 744.73308 L 762.73131 744.13154 L 762.83989 743.52453 L 762.88555 743.44679 L 762.90536 743.35883 L 763.24096 742.8416 L 763.55326 742.30984 L 763.62305 742.25274 L 763.67212 742.17711 L 764.16624 741.80828 L 764.6435 741.41778 L 764.75401 741.36956 L 764.80099 741.33449 L 764.9043 741.30398 L 765.35577 741.10697 L 803.71736 728.64254 L 766.59184 716.57972 Z M 622.85456 763.2828 L 637.03525 782.80083 L 672.6329 771.23446 L 635.50739 759.17164 Z M 508.42293 747.81738 L 508.42293 762.11421 L 522.02004 766.53217 L 544.0206 736.251 Z M 586.96544 766.53217 L 609.91028 759.07694 L 602.09041 748.31381 L 564.96488 736.251 Z M 639.50739 705.22545 L 639.50739 752.05962 L 684.04933 766.53217 L 711.57776 728.64254 L 684.04933 690.75291 Z M 718.99416 732.04515 L 696.04933 763.626 L 731.647 752.05962 L 731.647 727.93399 Z M 477.47809 752.05962 L 500.42293 759.51485 L 500.42293 746.21088 L 477.47809 714.63002 Z M 609.50681 744.9112 L 617.91029 756.47758 L 631.50739 752.05962 L 631.50739 714.63001 Z M 479.95023 704.42221 L 505.95079 740.20891 L 548.0206 726.53961 L 522.02004 690.75291 Z M 558.49274 678.9022 L 558.49274 725.73637 L 603.03468 740.20891 L 630.56312 702.31928 L 603.03468 664.42965 Z M 718.04989 723.94025 L 731.647 719.52229 L 731.647 705.22546 L 696.04933 693.65908 Z M 770.59184 709.4677 L 812.66165 723.13701 L 812.66165 678.9022 L 770.59184 665.23289 Z M 739.647 703.61896 L 739.647 716.92293 L 762.59184 709.4677 L 762.59184 672.0381 Z M 528.49217 686.05062 L 550.49274 716.3318 L 550.49274 677.29571 L 542.67286 666.53257 Z M 820.66165 677.29571 L 820.66165 716.3318 L 842.66222 686.05062 L 828.48153 666.53257 Z M 609.50681 659.72736 L 637.03525 697.61699 L 681.57719 683.14445 L 681.57719 636.31028 L 637.03525 621.83773 Z M 689.57719 636.31028 L 689.57719 683.14444 L 734.11914 697.61699 L 761.64757 659.72736 L 734.11914 621.83773 Z M 507.659 657.37622 L 507.6673 657.39334 L 507.68091 657.40667 L 507.69477 657.45003 L 508.27339 658.64386 L 508.3599 659.53024 L 508.42293 659.72736 L 508.3946 659.88573 L 508.41023 660.04587 L 508.27125 660.57527 L 508.17488 661.11403 L 508.0934 661.25277 L 508.05255 661.40838 L 507.659 662.0785 L 483.95023 694.71082 L 521.07577 682.64801 L 537.72859 659.72736 L 521.07577 636.80672 L 483.95023 624.7439 Z M 547.61714 659.72736 L 556.0206 671.29374 L 591.61825 659.72736 L 556.0206 648.16099 Z M 779.53613 659.72736 L 815.13379 671.29374 L 823.53725 659.72736 L 815.13379 648.16099 Z M 558.49274 593.71836 L 558.49274 640.55253 L 603.03468 655.02507 L 630.56312 617.13544 L 603.03468 579.24581 Z M 770.59184 609.98703 L 770.59184 654.22183 L 812.66165 640.55252 L 812.66165 596.31772 Z M 528.49217 633.40411 L 542.67286 652.92216 L 550.49274 642.15902 L 550.49274 603.12293 Z M 820.66165 642.15902 L 828.48153 652.92216 L 842.66222 633.40411 L 820.66165 603.12293 Z M 739.647 615.83576 L 762.59184 647.41662 L 762.59184 609.98703 L 739.647 602.5318 Z M 479.95023 615.03251 L 522.02004 628.70182 L 548.0206 592.91512 L 505.95079 579.24581 Z M 639.50739 567.3951 L 639.50739 614.22927 L 684.04933 628.70182 L 711.57776 590.81219 L 684.04933 552.92256 Z M 696.04933 625.79565 L 731.647 614.22927 L 731.647 599.93244 L 718.04989 595.51448 Z M 609.50681 574.54352 L 631.50739 604.82471 L 631.50739 567.39511 L 617.91028 562.97714 Z M 477.47809 567.39511 L 477.47809 604.8247 L 500.42293 573.24384 L 500.42293 559.93988 Z M 739.647 565.78861 L 739.647 594.12009 L 766.59184 602.875 L 803.71736 590.81219 L 765.35577 578.34775 L 764.11362 577.68334 L 763.17883 576.62951 L 762.66733 575.31698 L 762.59184 574.54352 L 762.59184 534.20775 Z M 718.99416 587.40958 L 731.647 591.52074 L 731.647 567.3951 L 696.04933 555.82872 Z M 528.49217 548.22027 L 554.49274 584.00698 L 580.49331 548.22027 L 554.49274 512.43355 Z M 564.96488 583.20373 L 602.09041 571.14091 L 609.91028 560.37778 L 586.96544 552.92256 Z M 508.42293 557.34052 L 508.42293 571.63735 L 544.0206 583.20373 L 522.02004 552.92256 Z M 622.85456 556.17193 L 635.50739 560.28308 L 672.63291 548.22027 L 637.03525 536.65389 Z M 692.04933 546.11734 L 734.11914 559.78664 L 760.1197 523.99994 L 718.04989 510.33063 Z M 607.79861 524.24815 L 606.78287 525.22419 L 605.49176 525.78758 L 604.0854 525.86845 L 603.32647 525.70124 L 564.96488 513.2368 L 587.90971 544.81766 L 614.85456 553.57257 L 631.50739 530.65192 L 631.50739 491.61582 Z M 508.42293 524.80318 L 508.42293 548.92882 L 521.07577 544.81766 L 544.0206 513.2368 Z M 639.50739 529.04543 L 681.57719 542.71473 L 681.57719 498.47993 L 639.50739 484.81062 Z M 689.57719 498.47993 L 689.57719 535.90953 L 711.57776 505.62834 L 703.1743 494.06197 Z M 711.1743 491.46261 L 718.99416 502.22573 L 756.1197 514.28855 L 734.11914 484.00738 Z M 648.45167 479.30509 L 685.57719 491.36791 L 698.23002 487.25675 L 684.04933 467.73871 Z" stroke-miterlimit="10"/></g></svg>