  0
SECTION
  2
HEADER
  9
$ACADVER
  1
AC1014
  9
$HANDSEED
  5
FFFF
  9
$INSUNITS
 70
     4
  9
$MEASUREMENT
 70
     1
  0
ENDSEC
  0
SECTION
  2
TABLES
  0
TABLE
  2
VPORT
  5
8
330
0
100
AcDbSymbolTable
 70
     4
  0
VPORT
  5
2E
330
8
100
AcDbSymbolTableRecord
100
AcDbViewportTableRecord
  2
*ACTIVE
 70
     0
 10
0.0
 20
0.0
 11
1.0
 21
1.0
 12
210.0
 22
148.5
 13
0.0
 23
0.0
 14
10.0
 24
10.0
 15
10.0
 25
10.0
 16
0.0
 26
0.0
 36
1.0
 17
0.0
 27
0.0
 37
0.0
 40
341.0
 41
1.24
 42
50.0
 43
0.0
 44
0.0
 50
0.0
 51
0.0
 71
     0
 72
   100
 73
     1
 74
     3
 75
     0
 76
     0
 77
     0
 78
     0
  0
ENDTAB
  0
TABLE
  2
LTYPE
  5
5
330
0
100
AcDbSymbolTable
 70
     1
  0
LTYPE
  5
14
330
5
100
AcDbSymbolTableRecord
100
AcDbLinetypeTableRecord
  2
BYBLOCK
 70
     0
  3

 72
    65
 73
     0
 40
0.0
  0
LTYPE
  5
15
330
5
100
AcDbSymbolTableRecord
100
AcDbLinetypeTableRecord
  2
BYLAYER
 70
     0
  3

 72
    65
 73
     0
 40
0.0
  0
LTYPE
  5
16
330
5
100
AcDbSymbolTableRecord
100
AcDbLinetypeTableRecord
  2
CONTINUOUS
 70
     0
  3
Solid line
 72
    65
 73
     0
 40
0.0
  0
ENDTAB
  0
TABLE
  2
LAYER
  5
2
100
AcDbSymbolTable
 70
5
  0
LAYER
  5
50
100
AcDbSymbolTableRecord
100
AcDbLayerTableRecord
  2
0
 70
0
  6
CONTINUOUS
  0
LAYER
  5
51
100
AcDbSymbolTableRecord
100
AcDbLayerTableRecord
  2
Layer_1
 70
0
  6
CONTINUOUS
  0
LAYER
  5
52
100
AcDbSymbolTableRecord
100
AcDbLayerTableRecord
  2
Layer_2
 70
0
  6
CONTINUOUS
  0
LAYER
  5
53
100
AcDbSymbolTableRecord
100
AcDbLayerTableRecord
  2
Layer_3
 70
0
  6
CONTINUOUS
  0
LAYER
  5
54
100
AcDbSymbolTableRecord
100
AcDbLayerTableRecord
  2
Layer_4
 70
0
  6
CONTINUOUS
  0
ENDTAB
  0
TABLE
  2
STYLE
  5
3
330
0
100
AcDbSymbolTable
 70
     1
  0
STYLE
  5
11
330
3
100
AcDbSymbolTableRecord
100
AcDbTextStyleTableRecord
  2
STANDARD
 70
     0
 40
0.0
 41
1.0
 50
0.0
 71
     0
 42
2.5
  3
txt
  4

  0
ENDTAB
  0
TABLE
  2
VIEW
  5
6
330
0
100
AcDbSymbolTable
 70
     0
  0
ENDTAB
  0
TABLE
  2
UCS
  5
7
330
0
100
AcDbSymbolTable
 70
     0
  0
ENDTAB
  0
TABLE
  2
APPID
  5
9
330
0
100
AcDbSymbolTable
 70
     2
  0
APPID
  5
12
330
9
100
AcDbSymbolTableRecord
100
AcDbRegAppTableRecord
  2
ACAD
 70
     0
  0
ENDTAB
  0
TABLE
  2
DIMSTYLE
  5
A
330
0
100
AcDbSymbolTable
 70
     1
  0
DIMSTYLE
105
27
330
A
100
AcDbSymbolTableRecord
100
AcDbDimStyleTableRecord
  2
ISO-25
 70
     0
  3

  4

  5

  6

  7

 40
1.0
 41
2.5
 42
0.625
 43
3.75
 44
1.25
 45
0.0
 46
0.0
 47
0.0
 48
0.0
140
2.5
141
2.5
142
0.0
143
0.03937007874016
144
1.0
145
0.0
146
1.0
147
0.625
 71
     0
 72
     0
 73
     0
 74
     0
 75
     0
 76
     0
 77
     1
 78
     8
170
     0
171
     3
172
     1
173
     0
174
     0
175
     0
176
     0
177
     0
178
     0
270
     2
271
     2
272
     2
273
     2
274
     3
340
11
275
     0
280
     0
281
     0
282
     0
283
     0
284
     8
285
     0
286
     0
287
     3
288
     0
  0
ENDTAB
  0
TABLE
  2
BLOCK_RECORD
  5
1
330
0
100
AcDbSymbolTable
 70
     1
  0
BLOCK_RECORD
  5
1F
330
1
100
AcDbSymbolTableRecord
100
AcDbBlockTableRecord
  2
*MODEL_SPACE
  0
BLOCK_RECORD
  5
1B
330
1
100
AcDbSymbolTableRecord
100
AcDbBlockTableRecord
  2
*PAPER_SPACE
  0
ENDTAB
  0
ENDSEC
  0
SECTION
  2
BLOCKS
  0
BLOCK
  5
20
330
1F
100
AcDbEntity
  8
0
100
AcDbBlockBegin
  2
*MODEL_SPACE
 70
     0
 10
0.0
 20
0.0
 30
0.0
  3
*MODEL_SPACE
  1

  0
ENDBLK
  5
21
330
1F
100
AcDbEntity
  8
0
100
AcDbBlockEnd
  0
BLOCK
  5
1C
330
1B
100
AcDbEntity
 67
     1
  8
0
100
AcDbBlockBegin
  2
*PAPER_SPACE
  1

  0
ENDBLK
  5
1D
330
1B
100
AcDbEntity
 67
     1
  8
0
100
AcDbBlockEnd
  0
ENDSEC
  0
SECTION
  2
ENTITIES
  0
LWPOLYLINE
  5
100
100
AcDbEntity
  8
Layer_3
 62
7
100
AcDbPolyline
 90
193
 70
1
 10
130.775845
 20
170.919958
 30
0.0
 10
131.195374
 20
170.738535
 30
0.0
 10
131.646380
 20
170.320441
 30
0.0
 10
145.612784
 20
151.097335
 30
0.0
 10
145.825414
 20
150.692726
 30
0.0
 10
145.913949
 20
150.244307
 30
0.0
 10
145.871049
 20
149.789248
 30
0.0
 10
145.612784
 20
149.231117
 30
0.0
 10
137.659015
 20
138.283696
 30
0.0
 10
139.600149
 20
135.611955
 30
0.0
 10
152.469617
 20
139.793498
 30
0.0
 10
152.920128
 20
139.870691
 30
0.0
 10
153.373960
 20
139.816321
 30
0.0
 10
153.793489
 20
139.634899
 30
0.0
 10
154.244495
 20
139.216805
 30
0.0
 10
168.210899
 20
119.993698
 30
0.0
 10
168.423529
 20
119.589090
 30
0.0
 10
168.512064
 20
119.140671
 30
0.0
 10
168.469164
 20
118.685612
 30
0.0
 10
168.210899
 20
118.127481
 30
0.0
 10
154.244495
 20
98.904377
 30
0.0
 10
153.925397
 20
98.577122
 30
0.0
 10
153.526281
 20
98.354351
 30
0.0
 10
153.080238
 20
98.254532
 30
0.0
 10
152.469617
 20
98.327684
 30
0.0
 10
139.600149
 20
102.509227
 30
0.0
 10
137.659015
 20
99.837486
 30
0.0
 10
145.612784
 20
88.890062
 30
0.0
 10
145.658570
 20
88.802935
 30
0.0
 10
145.718072
 20
88.724523
 30
0.0
 10
145.735694
 20
88.656184
 30
0.0
 10
145.825416
 20
88.485453
 30
0.0
 10
145.913951
 20
88.037035
 30
0.0
 10
145.908977
 20
87.984137
 30
0.0
 10
145.915989
 20
87.956954
 30
0.0
 10
145.888797
 20
87.770041
 30
0.0
 10
145.871070
 20
87.581975
 30
0.0
 10
145.857021
 20
87.551622
 30
0.0
 10
145.850195
 20
87.504638
 30
0.0
 10
145.658247
 20
87.089819
 30
0.0
 10
145.626852
 20
87.054190
 30
0.0
 10
145.612802
 20
87.023845
 30
0.0
 10
131.646398
 20
67.800741
 30
0.0
 10
131.514538
 20
67.665510
 30
0.0
 10
131.389649
 20
67.523781
 30
0.0
 10
131.355462
 20
67.502376
 30
0.0
 10
131.327300
 20
67.473494
 30
0.0
 10
131.162359
 20
67.381430
 30
0.0
 10
131.002281
 20
67.281168
 30
0.0
 10
130.963411
 20
67.270373
 30
0.0
 10
130.928184
 20
67.250715
 30
0.0
 10
130.743838
 20
67.209461
 30
0.0
 10
130.561839
 20
67.158968
 30
0.0
 10
130.521512
 20
67.159762
 30
0.0
 10
130.482142
 20
67.150951
 30
0.0
 10
130.388238
 20
67.162196
 30
0.0
 10
130.104840
 20
67.167382
 30
0.0
 10
129.959174
 20
67.213596
 30
0.0
 10
129.871520
 20
67.224100
 30
0.0
 10
107.273407
 20
74.566674
 30
0.0
 10
107.175319
 20
74.615104
 30
0.0
 10
107.071052
 20
74.648184
 30
0.0
 10
106.971470
 20
74.715751
 30
0.0
 10
106.863563
 20
74.769028
 30
0.0
 10
106.783344
 20
74.843394
 30
0.0
 10
106.692819
 20
74.904814
 30
0.0
 10
106.616611
 20
74.997961
 30
0.0
 10
106.528362
 20
75.079770
 30
0.0
 10
106.472657
 20
75.173911
 30
0.0
 10
106.403386
 20
75.258575
 30
0.0
 10
106.356880
 20
75.369566
 30
0.0
 10
106.295592
 20
75.473137
 30
0.0
 10
106.279664
 20
75.553869
 30
0.0
 10
106.226753
 20
75.680141
 30
0.0
 10
106.192767
 20
75.993993
 30
0.0
 10
106.176469
 20
76.076477
 30
0.0
 10
106.176469
 20
89.608234
 30
0.0
 10
103.035648
 20
90.628748
 30
0.0
 10
95.081878
 20
79.681327
 30
0.0
 10
94.950018
 20
79.546095
 30
0.0
 10
94.825129
 20
79.404366
 30
0.0
 10
94.790943
 20
79.382961
 30
0.0
 10
94.762780
 20
79.354079
 30
0.0
 10
94.597839
 20
79.262015
 30
0.0
 10
94.437761
 20
79.161754
 30
0.0
 10
94.398891
 20
79.150959
 30
0.0
 10
94.363664
 20
79.131300
 30
0.0
 10
94.179319
 20
79.090046
 30
0.0
 10
93.997320
 20
79.039553
 30
0.0
 10
93.956992
 20
79.040347
 30
0.0
 10
93.917622
 20
79.031536
 30
0.0
 10
93.823719
 20
79.042781
 30
0.0
 10
93.540321
 20
79.047967
 30
0.0
 10
93.394654
 20
79.094182
 30
0.0
 10
93.307001
 20
79.104686
 30
0.0
 10
70.708888
 20
86.447257
 30
0.0
 10
70.610799
 20
86.495686
 30
0.0
 10
70.506532
 20
86.528767
 30
0.0
 10
70.406951
 20
86.596334
 30
0.0
 10
70.299043
 20
86.649610
 30
0.0
 10
70.218824
 20
86.723977
 30
0.0
 10
70.128299
 20
86.785397
 30
0.0
 10
70.052091
 20
86.878544
 30
0.0
 10
69.963842
 20
86.960353
 30
0.0
 10
69.908137
 20
87.054494
 30
0.0
 10
69.838866
 20
87.139158
 30
0.0
 10
69.792361
 20
87.250148
 30
0.0
 10
69.731072
 20
87.353719
 30
0.0
 10
69.715145
 20
87.434452
 30
0.0
 10
69.662233
 20
87.560724
 30
0.0
 10
69.628247
 20
87.874576
 30
0.0
 10
69.611949
 20
87.957059
 30
0.0
 10
69.611949
 20
111.718124
 30
0.0
 10
69.616156
 20
111.747102
 30
0.0
 10
69.613007
 20
111.776208
 30
0.0
 10
69.648983
 20
111.972725
 30
0.0
 10
69.677746
 20
112.170440
 30
0.0
 10
69.690049
 20
112.197012
 30
0.0
 10
69.695314
 20
112.225815
 30
0.0
 10
69.785791
 20
112.403935
 30
0.0
 10
69.869693
 20
112.585259
 30
0.0
 10
69.889060
 20
112.607220
 30
0.0
 10
69.902316
 20
112.633334
 30
0.0
 10
70.039778
 20
112.778278
 30
0.0
 10
70.171884
 20
112.928196
 30
0.0
 10
70.193289
 20
112.940155
 30
0.0
 10
70.216837
 20
112.965000
 30
0.0
 10
70.612823
 20
113.193285
 30
0.0
 10
70.672084
 20
113.207414
 30
0.0
 10
70.708875
 20
113.227945
 30
0.0
 10
83.578340
 20
117.409487
 30
0.0
 10
83.578340
 20
120.711942
 30
0.0
 10
70.708875
 20
124.893485
 30
0.0
 10
70.610786
 20
124.941915
 30
0.0
 10
70.506519
 20
124.974996
 30
0.0
 10
70.406937
 20
125.042562
 30
0.0
 10
70.299030
 20
125.095839
 30
0.0
 10
70.218811
 20
125.170205
 30
0.0
 10
70.128286
 20
125.231626
 30
0.0
 10
70.052078
 20
125.324772
 30
0.0
 10
69.963829
 20
125.406581
 30
0.0
 10
69.908124
 20
125.500723
 30
0.0
 10
69.838853
 20
125.585387
 30
0.0
 10
69.792347
 20
125.696377
 30
0.0
 10
69.731059
 20
125.799948
 30
0.0
 10
69.715131
 20
125.880680
 30
0.0
 10
69.662220
 20
126.006953
 30
0.0
 10
69.628234
 20
126.320804
 30
0.0
 10
69.611936
 20
126.403288
 30
0.0
 10
69.611936
 20
150.164350
 30
0.0
 10
69.616143
 20
150.193327
 30
0.0
 10
69.612994
 20
150.222434
 30
0.0
 10
69.648970
 20
150.418951
 30
0.0
 10
69.677732
 20
150.616666
 30
0.0
 10
69.690036
 20
150.643238
 30
0.0
 10
69.695301
 20
150.672041
 30
0.0
 10
69.785778
 20
150.850161
 30
0.0
 10
69.869680
 20
151.031485
 30
0.0
 10
69.889047
 20
151.053445
 30
0.0
 10
69.902303
 20
151.079560
 30
0.0
 10
70.039764
 20
151.224504
 30
0.0
 10
70.171871
 20
151.374422
 30
0.0
 10
70.193276
 20
151.386381
 30
0.0
 10
70.216824
 20
151.411226
 30
0.0
 10
70.612810
 20
151.639511
 30
0.0
 10
70.672071
 20
151.653640
 30
0.0
 10
70.708861
 20
151.674171
 30
0.0
 10
93.306974
 20
159.016745
 30
0.0
 10
93.482406
 20
159.046804
 30
0.0
 10
93.655539
 20
159.088079
 30
0.0
 10
93.706844
 20
159.085248
 30
0.0
 10
93.757485
 20
159.093927
 30
0.0
 10
93.934211
 20
159.072760
 30
0.0
 10
94.111927
 20
159.062997
 30
0.0
 10
94.160300
 20
159.045667
 30
0.0
 10
94.211317
 20
159.039555
 30
0.0
 10
94.374682
 20
158.968908
 30
0.0
 10
94.542253
 20
158.908911
 30
0.0
 10
94.583687
 20
158.878527
 30
0.0
 10
94.630846
 20
158.858127
 30
0.0
 10
94.704104
 20
158.790217
 30
0.0
 10
94.910841
 20
158.638608
 30
0.0
 10
95.013306
 20
158.503575
 30
0.0
 10
95.081852
 20
158.440033
 30
0.0
 10
103.035621
 20
147.492609
 30
0.0
 10
106.176442
 20
148.513125
 30
0.0
 10
106.176442
 20
162.044883
 30
0.0
 10
106.242244
 20
162.497198
 30
0.0
 10
106.434191
 20
162.912018
 30
0.0
 10
106.736377
 20
163.254952
 30
0.0
 10
107.273378
 20
163.554685
 30
0.0
 10
129.871491
 20
170.897259
 30
0.0
 10
130.322002
 20
170.974451
 30
0.0
  0
LWPOLYLINE
  5
101
100
AcDbEntity
  8
Layer_3
 62
7
100
AcDbPolyline
 90
16
 70
1
 10
131.646380
 20
91.561806
 30
0.0
 10
131.327282
 20
91.234551
 30
0.0
 10
130.928166
 20
91.011780
 30
0.0
 10
130.482123
 20
90.911960
 30
0.0
 10
129.871502
 20
90.985112
 30
0.0
 10
122.336727
 20
93.433310
 30
0.0
 10
117.679978
 20
87.023845
 30
0.0
 10
117.360880
 20
86.696590
 30
0.0
 10
116.961764
 20
86.473821
 30
0.0
 10
116.515721
 20
86.373999
 30
0.0
 10
115.905100
 20
86.447151
 30
0.0
 10
109.351453
 20
88.576560
 30
0.0
 10
109.351453
 20
77.229811
 30
0.0
 10
129.755696
 20
70.600067
 30
0.0
 10
142.366214
 20
87.956954
 30
0.0
 10
135.696756
 20
97.136672
 30
0.0
  0
LWPOLYLINE
  5
102
100
AcDbEntity
  8
Layer_3
 62
7
100
AcDbPolyline
 90
16
 70
1
 10
72.786936
 20
110.564631
 30
0.0
 10
72.786936
 20
89.110341
 30
0.0
 10
93.191179
 20
82.480600
 30
0.0
 10
99.860632
 20
91.660316
 30
0.0
 10
93.306985
 20
93.789725
 30
0.0
 10
92.897140
 20
93.992078
 30
0.0
 10
92.561939
 20
94.302821
 30
0.0
 10
92.329169
 20
94.696187
 30
0.0
 10
92.210049
 20
95.299527
 30
0.0
 10
92.210049
 20
103.222060
 30
0.0
 10
84.675274
 20
105.670257
 30
0.0
 10
84.265429
 20
105.872611
 30
0.0
 10
83.930228
 20
106.183353
 30
0.0
 10
83.697458
 20
106.576720
 30
0.0
 10
83.578338
 20
107.180060
 30
0.0
 10
83.578338
 20
114.070971
 30
0.0
  0
LWPOLYLINE
  5
103
100
AcDbEntity
  8
Layer_3
 62
7
100
AcDbPolyline
 90
4
 70
1
 10
109.351453
 20
91.914954
 30
0.0
 10
115.789295
 20
89.823171
 30
0.0
 10
119.161727
 20
94.464928
 30
0.0
 10
109.351453
 20
97.652480
 30
0.0
  0
LWPOLYLINE
  5
104
100
AcDbEntity
  8
Layer_3
 62
7
100
AcDbPolyline
 90
3
 70
1
 10
104.997890
 20
93.329511
 30
0.0
 10
106.176453
 20
92.946575
 30
0.0
 10
106.176453
 20
94.951666
 30
0.0
  0
LWPOLYLINE
  5
105
100
AcDbEntity
  8
Layer_3
 62
7
100
AcDbPolyline
 90
4
 70
1
 10
95.385049
 20
96.452915
 30
0.0
 10
101.822890
 20
94.361132
 30
0.0
 10
105.195325
 20
99.002890
 30
0.0
 10
95.385049
 20
102.190442
 30
0.0
  0
LWPOLYLINE
  5
106
100
AcDbEntity
  8
Layer_3
 62
7
100
AcDbPolyline
 90
4
 70
1
 10
124.298985
 20
96.134126
 30
0.0
 10
129.755696
 20
94.361132
 30
0.0
 10
133.734500
 20
99.837486
 30
0.0
 10
130.362066
 20
104.479243
 30
0.0
  0
LWPOLYLINE
  5
107
100
AcDbEntity
  8
Layer_3
 62
7
100
AcDbPolyline
 90
3
 70
1
 10
112.901211
 20
99.837486
 30
0.0
 10
121.123985
 20
97.165745
 30
0.0
 10
126.205940
 20
104.160455
 30
0.0
  0
LWPOLYLINE
  5
108
100
AcDbEntity
  8
Layer_3
 62
7
100
AcDbPolyline
 90
5
 70
1
 10
95.759804
 20
119.060590
 30
0.0
 10
108.370322
 20
101.703703
 30
0.0
 10
128.774566
 20
108.333447
 30
0.0
 10
128.774566
 20
129.787735
 30
0.0
 10
108.370322
 20
136.417479
 30
0.0
  0
LWPOLYLINE
  5
109
100
AcDbEntity
  8
Layer_3
 62
7
100
AcDbPolyline
 90
16
 70
1
 10
141.562407
 20
132.911138
 30
0.0
 10
145.612784
 20
127.336272
 30
0.0
 10
145.825414
 20
126.931663
 30
0.0
 10
145.913949
 20
126.483245
 30
0.0
 10
145.871049
 20
126.028185
 30
0.0
 10
145.612784
 20
125.470055
 30
0.0
 10
140.956035
 20
119.060590
 30
0.0
 10
145.612784
 20
112.651127
 30
0.0
 10
145.825414
 20
112.246518
 30
0.0
 10
145.913949
 20
111.798100
 30
0.0
 10
145.871049
 20
111.343040
 30
0.0
 10
145.612784
 20
110.784910
 30
0.0
 10
141.562407
 20
105.210044
 30
0.0
 10
152.353812
 20
101.703703
 30
0.0
 10
164.964330
 20
119.060590
 30
0.0
 10
152.353812
 20
136.417479
 30
0.0
  0
LWPOLYLINE
  5
10a
100
AcDbEntity
  8
Layer_3
 62
7
100
AcDbPolyline
 90
3
 70
1
 10
135.696756
 20
102.538302
 30
0.0
 10
136.425149
 20
103.540848
 30
0.0
 10
134.518194
 20
104.160455
 30
0.0
  0
LWPOLYLINE
  5
10b
100
AcDbEntity
  8
Layer_3
 62
7
100
AcDbPolyline
 90
3
 70
1
 10
95.385049
 20
105.528832
 30
0.0
 10
103.607822
 20
102.857091
 30
0.0
 10
95.385049
 20
114.174770
 30
0.0
  0
LWPOLYLINE
  5
10c
100
AcDbEntity
  8
Layer_3
 62
7
100
AcDbPolyline
 90
4
 70
1
 10
132.930696
 20
108.014659
 30
0.0
 10
138.387407
 20
106.241665
 30
0.0
 10
142.366212
 20
111.718019
 30
0.0
 10
138.993779
 20
116.359776
 30
0.0
  0
LWPOLYLINE
  5
10d
100
AcDbEntity
  8
Layer_3
 62
7
100
AcDbPolyline
 90
4
 70
1
 10
86.753338
 20
115.102590
 30
0.0
 10
86.753338
 20
108.333447
 30
0.0
 10
92.210049
 20
106.560453
 30
0.0
 10
92.210049
 20
116.875584
 30
0.0
  0
LWPOLYLINE
  5
10e
100
AcDbEntity
  8
Layer_3
 62
7
100
AcDbPolyline
 90
3
 70
1
 10
131.949566
 20
112.065879
 30
0.0
 10
137.031521
 20
119.060590
 30
0.0
 10
131.949566
 20
126.055303
 30
0.0
  0
LWPOLYLINE
  5
10f
100
AcDbEntity
  8
Layer_3
 62
7
100
AcDbPolyline
 90
3
 70
1
 10
86.753338
 20
118.440983
 30
0.0
 10
88.660290
 20
119.060590
 30
0.0
 10
86.753338
 20
119.680196
 30
0.0
  0
LWPOLYLINE
  5
110
100
AcDbEntity
  8
Layer_3
 62
7
100
AcDbPolyline
 90
4
 70
1
 10
86.753338
 20
129.787735
 30
0.0
 10
86.753338
 20
123.018590
 30
0.0
 10
92.210049
 20
121.245596
 30
0.0
 10
92.210049
 20
131.560729
 30
0.0
  0
LWPOLYLINE
  5
111
100
AcDbEntity
  8
Layer_3
 62
7
100
AcDbPolyline
 90
4
 70
1
 10
132.930696
 20
130.106523
 30
0.0
 10
138.993779
 20
121.761406
 30
0.0
 10
142.366214
 20
126.403163
 30
0.0
 10
138.387407
 20
131.879517
 30
0.0
  0
LWPOLYLINE
  5
112
100
AcDbEntity
  8
Layer_3
 62
7
100
AcDbPolyline
 90
3
 70
1
 10
95.385049
 20
132.592350
 30
0.0
 10
95.385049
 20
123.946412
 30
0.0
 10
103.607825
 20
135.264091
 30
0.0
  0
LWPOLYLINE
  5
113
100
AcDbEntity
  8
Layer_3
 62
7
100
AcDbPolyline
 90
29
 70
1
 10
72.786936
 20
149.010838
 30
0.0
 10
72.786936
 20
127.556551
 30
0.0
 10
83.578338
 20
124.050211
 30
0.0
 10
83.578338
 20
130.941122
 30
0.0
 10
83.582544
 20
130.970099
 30
0.0
 10
83.579396
 20
130.999206
 30
0.0
 10
83.615371
 20
131.195723
 30
0.0
 10
83.644134
 20
131.393438
 30
0.0
 10
83.656437
 20
131.420010
 30
0.0
 10
83.661702
 20
131.448813
 30
0.0
 10
83.752179
 20
131.626933
 30
0.0
 10
83.836081
 20
131.808257
 30
0.0
 10
83.855449
 20
131.830217
 30
0.0
 10
83.868704
 20
131.856332
 30
0.0
 10
84.006166
 20
132.001276
 30
0.0
 10
84.138273
 20
132.151194
 30
0.0
 10
84.159677
 20
132.163153
 30
0.0
 10
84.183225
 20
132.187998
 30
0.0
 10
84.579211
 20
132.416283
 30
0.0
 10
84.638473
 20
132.430412
 30
0.0
 10
84.675263
 20
132.450943
 30
0.0
 10
92.210038
 20
134.899141
 30
0.0
 10
92.210038
 20
142.821673
 30
0.0
 10
92.275840
 20
143.273989
 30
0.0
 10
92.467787
 20
143.688808
 30
0.0
 10
92.769973
 20
144.031742
 30
0.0
 10
93.306974
 20
144.331476
 30
0.0
 10
99.860621
 20
146.460885
 30
0.0
 10
93.191169
 20
155.640601
 30
0.0
  0
LWPOLYLINE
  5
114
100
AcDbEntity
  8
Layer_3
 62
7
100
AcDbPolyline
 90
4
 70
1
 10
124.298983
 20
141.987056
 30
0.0
 10
130.362066
 20
133.641939
 30
0.0
 10
133.734500
 20
138.283696
 30
0.0
 10
129.755696
 20
143.760050
 30
0.0
  0
LWPOLYLINE
  5
115
100
AcDbEntity
  8
Layer_3
 62
7
100
AcDbPolyline
 90
3
 70
1
 10
134.518194
 20
133.960727
 30
0.0
 10
136.425149
 20
134.580334
 30
0.0
 10
135.696759
 20
135.582880
 30
0.0
  0
LWPOLYLINE
  5
116
100
AcDbEntity
  8
Layer_3
 62
7
100
AcDbPolyline
 90
3
 70
1
 10
112.901211
 20
138.283696
 30
0.0
 10
126.205938
 20
133.960727
 30
0.0
 10
121.123985
 20
140.955437
 30
0.0
  0
LWPOLYLINE
  5
117
100
AcDbEntity
  8
Layer_3
 62
7
100
AcDbPolyline
 90
4
 70
1
 10
95.385049
 20
141.668267
 30
0.0
 10
95.385049
 20
135.930741
 30
0.0
 10
105.195325
 20
139.118292
 30
0.0
 10
101.822890
 20
143.760050
 30
0.0
  0
LWPOLYLINE
  5
118
100
AcDbEntity
  8
Layer_3
 62
7
100
AcDbPolyline
 90
4
 70
1
 10
109.351453
 20
146.206226
 30
0.0
 10
109.351453
 20
140.468702
 30
0.0
 10
119.161727
 20
143.656254
 30
0.0
 10
115.789295
 20
148.298008
 30
0.0
  0
LWPOLYLINE
  5
119
100
AcDbEntity
  8
Layer_3
 62
7
100
AcDbPolyline
 90
30
 70
1
 10
109.351453
 20
160.891371
 30
0.0
 10
109.351453
 20
149.544619
 30
0.0
 10
115.905100
 20
151.674028
 30
0.0
 10
116.355611
 20
151.751220
 30
0.0
 10
116.809443
 20
151.696851
 30
0.0
 10
117.228972
 20
151.515429
 30
0.0
 10
117.679978
 20
151.097335
 30
0.0
 10
122.336724
 20
144.687872
 30
0.0
 10
129.871502
 20
147.136070
 30
0.0
 10
129.979319
 20
147.154538
 30
0.0
 10
130.083121
 20
147.189063
 30
0.0
 10
130.203403
 20
147.192926
 30
0.0
 10
130.322013
 20
147.213246
 30
0.0
 10
130.430622
 20
147.200228
 30
0.0
 10
130.539961
 20
147.203747
 30
0.0
 10
130.656364
 20
147.173185
 30
0.0
 10
130.775845
 20
147.158871
 30
0.0
 10
130.876241
 20
147.115456
 30
0.0
 10
130.982053
 20
147.087675
 30
0.0
 10
131.084929
 20
147.025212
 30
0.0
 10
131.195374
 20
146.977449
 30
0.0
 10
131.279236
 20
146.907229
 30
0.0
 10
131.372750
 20
146.850449
 30
0.0
 10
131.467757
 20
146.749378
 30
0.0
 10
131.545822
 20
146.684013
 30
0.0
 10
131.585412
 20
146.624215
 30
0.0
 10
131.646380
 20
146.559355
 30
0.0
 10
135.696759
 20
140.984489
 30
0.0
 10
142.366214
 20
150.164205
 30
0.0
 10
129.755696
 20
167.521094
 30
0.0
  0
LWPOLYLINE
  5
11a
100
AcDbEntity
  8
Layer_3
 62
7
100
AcDbPolyline
 90
3
 70
1
 10
104.997890
 20
144.791668
 30
0.0
 10
106.176453
 20
143.169516
 30
0.0
 10
106.176453
 20
145.174608
 30
0.0
  0
ENDSEC
  0
SECTION
  2
OBJECTS
  0
DICTIONARY
  5
C
330
0
100
AcDbDictionary
  3
ACAD_GROUP
350
D
  3
ACAD_MLINESTYLE
350
17
  0
DICTIONARY
  5
D
330
C
100
AcDbDictionary
  0
DICTIONARY
  5
1A
330
C
100
AcDbDictionary
  0
DICTIONARY
  5
17
330
C
100
AcDbDictionary
  3
STANDARD
350
18
  0
DICTIONARY
  5
19
330
C
100
AcDbDictionary
  0
ENDSEC
  0
EOF
