  0
SECTION
  2
HEADER
  9
$ACADVER
  1
AC1014
  9
$HANDSEED
  5
FFFF
  9
$INSUNITS
 70
     4
  9
$MEASUREMENT
 70
     1
  0
ENDSEC
  0
SECTION
  2
TABLES
  0
TABLE
  2
VPORT
  5
8
330
0
100
AcDbSymbolTable
 70
     4
  0
VPORT
  5
2E
330
8
100
AcDbSymbolTableRecord
100
AcDbViewportTableRecord
  2
*ACTIVE
 70
     0
 10
0.0
 20
0.0
 11
1.0
 21
1.0
 12
210.0
 22
148.5
 13
0.0
 23
0.0
 14
10.0
 24
10.0
 15
10.0
 25
10.0
 16
0.0
 26
0.0
 36
1.0
 17
0.0
 27
0.0
 37
0.0
 40
341.0
 41
1.24
 42
50.0
 43
0.0
 44
0.0
 50
0.0
 51
0.0
 71
     0
 72
   100
 73
     1
 74
     3
 75
     0
 76
     0
 77
     0
 78
     0
  0
ENDTAB
  0
TABLE
  2
LTYPE
  5
5
330
0
100
AcDbSymbolTable
 70
     1
  0
LTYPE
  5
14
330
5
100
AcDbSymbolTableRecord
100
AcDbLinetypeTableRecord
  2
BYBLOCK
 70
     0
  3

 72
    65
 73
     0
 40
0.0
  0
LTYPE
  5
15
330
5
100
AcDbSymbolTableRecord
100
AcDbLinetypeTableRecord
  2
BYLAYER
 70
     0
  3

 72
    65
 73
     0
 40
0.0
  0
LTYPE
  5
16
330
5
100
AcDbSymbolTableRecord
100
AcDbLinetypeTableRecord
  2
CONTINUOUS
 70
     0
  3
Solid line
 72
    65
 73
     0
 40
0.0
  0
ENDTAB
  0
TABLE
  2
LAYER
  5
2
100
AcDbSymbolTable
 70
5
  0
LAYER
  5
50
100
AcDbSymbolTableRecord
100
AcDbLayerTableRecord
  2
0
 70
0
  6
CONTINUOUS
  0
LAYER
  5
51
100
AcDbSymbolTableRecord
100
AcDbLayerTableRecord
  2
Layer_1
 70
0
  6
CONTINUOUS
  0
LAYER
  5
52
100
AcDbSymbolTableRecord
100
AcDbLayerTableRecord
  2
Layer_2
 70
0
  6
CONTINUOUS
  0
LAYER
  5
53
100
AcDbSymbolTableRecord
100
AcDbLayerTableRecord
  2
Layer_3
 70
0
  6
CONTINUOUS
  0
LAYER
  5
54
100
AcDbSymbolTableRecord
100
AcDbLayerTableRecord
  2
Layer_4
 70
0
  6
CONTINUOUS
  0
ENDTAB
  0
TABLE
  2
STYLE
  5
3
330
0
100
AcDbSymbolTable
 70
     1
  0
STYLE
  5
11
330
3
100
AcDbSymbolTableRecord
100
AcDbTextStyleTableRecord
  2
STANDARD
 70
     0
 40
0.0
 41
1.0
 50
0.0
 71
     0
 42
2.5
  3
txt
  4

  0
ENDTAB
  0
TABLE
  2
VIEW
  5
6
330
0
100
AcDbSymbolTable
 70
     0
  0
ENDTAB
  0
TABLE
  2
UCS
  5
7
330
0
100
AcDbSymbolTable
 70
     0
  0
ENDTAB
  0
TABLE
  2
APPID
  5
9
330
0
100
AcDbSymbolTable
 70
     2
  0
APPID
  5
12
330
9
100
AcDbSymbolTableRecord
100
AcDbRegAppTableRecord
  2
ACAD
 70
     0
  0
ENDTAB
  0
TABLE
  2
DIMSTYLE
  5
A
330
0
100
AcDbSymbolTable
 70
     1
  0
DIMSTYLE
105
27
330
A
100
AcDbSymbolTableRecord
100
AcDbDimStyleTableRecord
  2
ISO-25
 70
     0
  3

  4

  5

  6

  7

 40
1.0
 41
2.5
 42
0.625
 43
3.75
 44
1.25
 45
0.0
 46
0.0
 47
0.0
 48
0.0
140
2.5
141
2.5
142
0.0
143
0.03937007874016
144
1.0
145
0.0
146
1.0
147
0.625
 71
     0
 72
     0
 73
     0
 74
     0
 75
     0
 76
     0
 77
     1
 78
     8
170
     0
171
     3
172
     1
173
     0
174
     0
175
     0
176
     0
177
     0
178
     0
270
     2
271
     2
272
     2
273
     2
274
     3
340
11
275
     0
280
     0
281
     0
282
     0
283
     0
284
     8
285
     0
286
     0
287
     3
288
     0
  0
ENDTAB
  0
TABLE
  2
BLOCK_RECORD
  5
1
330
0
100
AcDbSymbolTable
 70
     1
  0
BLOCK_RECORD
  5
1F
330
1
100
AcDbSymbolTableRecord
100
AcDbBlockTableRecord
  2
*MODEL_SPACE
  0
BLOCK_RECORD
  5
1B
330
1
100
AcDbSymbolTableRecord
100
AcDbBlockTableRecord
  2
*PAPER_SPACE
  0
ENDTAB
  0
ENDSEC
  0
SECTION
  2
BLOCKS
  0
BLOCK
  5
20
330
1F
100
AcDbEntity
  8
0
100
AcDbBlockBegin
  2
*MODEL_SPACE
 70
     0
 10
0.0
 20
0.0
 30
0.0
  3
*MODEL_SPACE
  1

  0
ENDBLK
  5
21
330
1F
100
AcDbEntity
  8
0
100
AcDbBlockEnd
  0
BLOCK
  5
1C
330
1B
100
AcDbEntity
 67
     1
  8
0
100
AcDbBlockBegin
  2
*PAPER_SPACE
  1

  0
ENDBLK
  5
1D
330
1B
100
AcDbEntity
 67
     1
  8
0
100
AcDbBlockEnd
  0
ENDSEC
  0
SECTION
  2
ENTITIES
  0
LWPOLYLINE
  5
100
100
AcDbEntity
  8
Layer_3
 62
7
100
AcDbPolyline
 90
463
 70
1
 10
117.086602
 20
173.485453
 30
0.0
 10
117.474423
 20
173.464154
 30
0.0
 10
117.579984
 20
173.426358
 30
0.0
 10
117.650599
 20
173.417891
 30
0.0
 10
127.612487
 20
170.181077
 30
0.0
 10
127.736473
 20
170.119860
 30
0.0
 10
127.866637
 20
170.073257
 30
0.0
 10
127.940350
 20
170.019199
 30
0.0
 10
128.022331
 20
169.978724
 30
0.0
 10
128.123738
 20
169.884714
 30
0.0
 10
128.235226
 20
169.802958
 30
0.0
 10
128.290487
 20
169.730134
 30
0.0
 10
128.357532
 20
169.667981
 30
0.0
 10
128.427946
 20
169.548987
 30
0.0
 10
128.511525
 20
169.438844
 30
0.0
 10
128.525733
 20
169.383729
 30
0.0
 10
128.590299
 20
169.274614
 30
0.0
 10
128.709420
 20
168.671274
 30
0.0
 10
128.709420
 20
159.350112
 30
0.0
 10
136.477436
 20
156.826130
 30
0.0
 10
141.956277
 20
164.367109
 30
0.0
 10
142.108251
 20
164.522968
 30
0.0
 10
142.257989
 20
164.680855
 30
0.0
 10
142.267620
 20
164.686411
 30
0.0
 10
142.275372
 20
164.694375
 30
0.0
 10
142.465459
 20
164.800473
 30
0.0
 10
142.653972
 20
164.909151
 30
0.0
 10
142.664794
 20
164.911797
 30
0.0
 10
142.674504
 20
164.917221
 30
0.0
 10
142.886872
 20
164.964748
 30
0.0
 10
143.098605
 20
165.015225
 30
0.0
 10
143.109691
 20
165.014696
 30
0.0
 10
143.120539
 20
165.017077
 30
0.0
 10
143.167164
 20
165.011494
 30
0.0
 10
143.554984
 20
164.990169
 30
0.0
 10
143.660545
 20
164.952373
 30
0.0
 10
143.731160
 20
164.943906
 30
0.0
 10
153.693048
 20
161.707094
 30
0.0
 10
153.817034
 20
161.645878
 30
0.0
 10
153.947199
 20
161.599274
 30
0.0
 10
154.020912
 20
161.545217
 30
0.0
 10
154.102893
 20
161.504741
 30
0.0
 10
154.204300
 20
161.410732
 30
0.0
 10
154.315787
 20
161.328976
 30
0.0
 10
154.371048
 20
161.256152
 30
0.0
 10
154.438093
 20
161.193999
 30
0.0
 10
154.508507
 20
161.075005
 30
0.0
 10
154.592086
 20
160.964861
 30
0.0
 10
154.606294
 20
160.909746
 30
0.0
 10
154.670861
 20
160.800632
 30
0.0
 10
154.789981
 20
160.197292
 30
0.0
 10
154.789981
 20
149.722742
 30
0.0
 10
154.724179
 20
149.270426
 30
0.0
 10
154.532232
 20
148.855607
 30
0.0
 10
154.230046
 20
148.512673
 30
0.0
 10
153.842678
 20
148.270053
 30
0.0
 10
153.748616
 20
148.243965
 30
0.0
 10
153.693045
 20
148.212948
 30
0.0
 10
144.828093
 20
145.332551
 30
0.0
 10
144.828093
 20
137.164662
 30
0.0
 10
152.596112
 20
134.640677
 30
0.0
 10
158.074953
 20
142.181657
 30
0.0
 10
158.226927
 20
142.337515
 30
0.0
 10
158.376665
 20
142.495402
 30
0.0
 10
158.386296
 20
142.500959
 30
0.0
 10
158.394075
 20
142.508922
 30
0.0
 10
158.584162
 20
142.615020
 30
0.0
 10
158.772675
 20
142.723698
 30
0.0
 10
158.783496
 20
142.726344
 30
0.0
 10
158.793206
 20
142.731768
 30
0.0
 10
159.005574
 20
142.779295
 30
0.0
 10
159.217307
 20
142.829772
 30
0.0
 10
159.228393
 20
142.829243
 30
0.0
 10
159.239241
 20
142.831624
 30
0.0
 10
159.285866
 20
142.826041
 30
0.0
 10
159.673687
 20
142.804716
 30
0.0
 10
159.779248
 20
142.766920
 30
0.0
 10
159.849862
 20
142.758454
 30
0.0
 10
169.811748
 20
139.521639
 30
0.0
 10
169.935734
 20
139.460422
 30
0.0
 10
170.065898
 20
139.413819
 30
0.0
 10
170.139611
 20
139.359762
 30
0.0
 10
170.221592
 20
139.319286
 30
0.0
 10
170.322999
 20
139.225277
 30
0.0
 10
170.434487
 20
139.143520
 30
0.0
 10
170.489748
 20
139.070696
 30
0.0
 10
170.556793
 20
139.008543
 30
0.0
 10
170.627207
 20
138.889549
 30
0.0
 10
170.710786
 20
138.779406
 30
0.0
 10
170.724994
 20
138.724291
 30
0.0
 10
170.789560
 20
138.615177
 30
0.0
 10
170.908681
 20
138.011837
 30
0.0
 10
170.908681
 20
127.537289
 30
0.0
 10
170.842879
 20
127.084974
 30
0.0
 10
170.650932
 20
126.670155
 30
0.0
 10
170.348746
 20
126.327220
 30
0.0
 10
169.961377
 20
126.084600
 30
0.0
 10
169.867315
 20
126.058512
 30
0.0
 10
169.811745
 20
126.027495
 30
0.0
 10
160.946796
 20
123.147098
 30
0.0
 10
160.946796
 20
114.979323
 30
0.0
 10
169.811745
 20
112.098926
 30
0.0
 10
169.935731
 20
112.037709
 30
0.0
 10
170.065896
 20
111.991106
 30
0.0
 10
170.139609
 20
111.937049
 30
0.0
 10
170.221590
 20
111.896573
 30
0.0
 10
170.322997
 20
111.802564
 30
0.0
 10
170.434484
 20
111.720807
 30
0.0
 10
170.489745
 20
111.647983
 30
0.0
 10
170.556790
 20
111.585830
 30
0.0
 10
170.627204
 20
111.466836
 30
0.0
 10
170.710783
 20
111.356693
 30
0.0
 10
170.724991
 20
111.301578
 30
0.0
 10
170.789558
 20
111.192463
 30
0.0
 10
170.908678
 20
110.589123
 30
0.0
 10
170.908678
 20
100.114574
 30
0.0
 10
170.842876
 20
99.662258
 30
0.0
 10
170.650929
 20
99.247439
 30
0.0
 10
170.348743
 20
98.904504
 30
0.0
 10
169.961375
 20
98.661884
 30
0.0
 10
169.867313
 20
98.635796
 30
0.0
 10
169.811742
 20
98.604779
 30
0.0
 10
159.849857
 20
95.367967
 30
0.0
 10
159.702810
 20
95.342779
 30
0.0
 10
159.559048
 20
95.302895
 30
0.0
 10
159.478628
 20
95.304483
 30
0.0
 10
159.399346
 20
95.290910
 30
0.0
 10
159.251213
 20
95.308663
 30
0.0
 10
159.102049
 20
95.311389
 30
0.0
 10
159.025378
 20
95.335704
 30
0.0
 10
158.945514
 20
95.345282
 30
0.0
 10
158.808587
 20
95.404495
 30
0.0
 10
158.666373
 20
95.449615
 30
0.0
 10
158.599807
 20
95.494782
 30
0.0
 10
158.525985
 20
95.526704
 30
0.0
 10
158.452899
 20
95.594456
 30
0.0
 10
158.288141
 20
95.706245
 30
0.0
 10
158.149443
 20
95.875766
 30
0.0
 10
158.074979
 20
95.944798
 30
0.0
 10
152.596138
 20
103.485775
 30
0.0
 10
144.828120
 20
100.961793
 30
0.0
 10
144.828120
 20
92.794021
 30
0.0
 10
153.693072
 20
89.913621
 30
0.0
 10
153.817058
 20
89.852405
 30
0.0
 10
153.947222
 20
89.805801
 30
0.0
 10
154.020935
 20
89.751744
 30
0.0
 10
154.102917
 20
89.711268
 30
0.0
 10
154.204323
 20
89.617259
 30
0.0
 10
154.315811
 20
89.535503
 30
0.0
 10
154.371072
 20
89.462679
 30
0.0
 10
154.438117
 20
89.400526
 30
0.0
 10
154.508531
 20
89.281532
 30
0.0
 10
154.592110
 20
89.171388
 30
0.0
 10
154.606318
 20
89.116273
 30
0.0
 10
154.670884
 20
89.007159
 30
0.0
 10
154.790005
 20
88.403819
 30
0.0
 10
154.790005
 20
77.929272
 30
0.0
 10
154.724203
 20
77.476956
 30
0.0
 10
154.532256
 20
77.062137
 30
0.0
 10
154.230070
 20
76.719202
 30
0.0
 10
153.842701
 20
76.476582
 30
0.0
 10
153.748639
 20
76.450494
 30
0.0
 10
153.693069
 20
76.419477
 30
0.0
 10
143.731181
 20
73.182663
 30
0.0
 10
143.584134
 20
73.157474
 30
0.0
 10
143.440372
 20
73.117591
 30
0.0
 10
143.359952
 20
73.119178
 30
0.0
 10
143.280670
 20
73.105605
 30
0.0
 10
143.132537
 20
73.123359
 30
0.0
 10
142.983373
 20
73.126084
 30
0.0
 10
142.906702
 20
73.150399
 30
0.0
 10
142.826838
 20
73.159977
 30
0.0
 10
142.689911
 20
73.219191
 30
0.0
 10
142.547697
 20
73.264310
 30
0.0
 10
142.481131
 20
73.309477
 30
0.0
 10
142.407309
 20
73.341399
 30
0.0
 10
142.334223
 20
73.409151
 30
0.0
 10
142.169465
 20
73.520940
 30
0.0
 10
142.030767
 20
73.690461
 30
0.0
 10
141.956303
 20
73.759494
 30
0.0
 10
136.477462
 20
81.300473
 30
0.0
 10
128.709446
 20
78.776491
 30
0.0
 10
128.709446
 20
69.455329
 30
0.0
 10
128.643645
 20
69.003013
 30
0.0
 10
128.451697
 20
68.588194
 30
0.0
 10
128.149511
 20
68.245260
 30
0.0
 10
127.762143
 20
68.002639
 30
0.0
 10
127.668081
 20
67.976552
 30
0.0
 10
127.612510
 20
67.945534
 30
0.0
 10
117.650622
 20
64.708722
 30
0.0
 10
117.503575
 20
64.683534
 30
0.0
 10
117.359814
 20
64.643651
 30
0.0
 10
117.279394
 20
64.645238
 30
0.0
 10
117.200111
 20
64.631665
 30
0.0
 10
117.051979
 20
64.649419
 30
0.0
 10
116.902815
 20
64.652144
 30
0.0
 10
116.826144
 20
64.676459
 30
0.0
 10
116.746279
 20
64.686037
 30
0.0
 10
116.609352
 20
64.745251
 30
0.0
 10
116.467139
 20
64.790370
 30
0.0
 10
116.400572
 20
64.835537
 30
0.0
 10
116.326751
 20
64.867459
 30
0.0
 10
116.253665
 20
64.935211
 30
0.0
 10
116.088906
 20
65.047000
 30
0.0
 10
115.950209
 20
65.216521
 30
0.0
 10
115.875745
 20
65.285554
 30
0.0
 10
109.718959
 20
73.759639
 30
0.0
 10
109.686659
 20
73.821105
 30
0.0
 10
109.642688
 20
73.874847
 30
0.0
 10
109.580812
 20
74.022514
 30
0.0
 10
109.506329
 20
74.164246
 30
0.0
 10
109.492889
 20
74.232370
 30
0.0
 10
109.466055
 20
74.296413
 30
0.0
 10
109.448804
 20
74.455589
 30
0.0
 10
109.417792
 20
74.612667
 30
0.0
 10
109.424301
 20
74.681800
 30
0.0
 10
109.416839
 20
74.750832
 30
0.0
 10
109.445668
 20
74.908315
 30
0.0
 10
109.460697
 20
75.067726
 30
0.0
 10
109.484112
 20
75.118338
 30
0.0
 10
109.499141
 20
75.200439
 30
0.0
 10
109.706137
 20
75.607955
 30
0.0
 10
109.715001
 20
75.617295
 30
0.0
 10
109.718970
 20
75.625867
 30
0.0
 10
115.197813
 20
83.166847
 30
0.0
 10
110.396914
 20
89.774718
 30
0.0
 10
102.628896
 20
87.250733
 30
0.0
 10
102.628896
 20
77.929573
 30
0.0
 10
102.563094
 20
77.477258
 30
0.0
 10
102.371147
 20
77.062438
 30
0.0
 10
102.068961
 20
76.719504
 30
0.0
 10
101.681592
 20
76.476884
 30
0.0
 10
101.587530
 20
76.450796
 30
0.0
 10
101.531960
 20
76.419779
 30
0.0
 10
91.570074
 20
73.182964
 30
0.0
 10
91.423027
 20
73.157776
 30
0.0
 10
91.279266
 20
73.117893
 30
0.0
 10
91.198846
 20
73.119480
 30
0.0
 10
91.119563
 20
73.105907
 30
0.0
 10
90.971431
 20
73.123660
 30
0.0
 10
90.822267
 20
73.126386
 30
0.0
 10
90.745596
 20
73.150701
 30
0.0
 10
90.665731
 20
73.160279
 30
0.0
 10
90.528804
 20
73.219493
 30
0.0
 10
90.386591
 20
73.264612
 30
0.0
 10
90.320024
 20
73.309779
 30
0.0
 10
90.246203
 20
73.341701
 30
0.0
 10
90.173117
 20
73.409453
 30
0.0
 10
90.008358
 20
73.521242
 30
0.0
 10
89.869661
 20
73.690763
 30
0.0
 10
89.795197
 20
73.759796
 30
0.0
 10
83.638411
 20
82.233884
 30
0.0
 10
83.606111
 20
82.295346
 30
0.0
 10
83.562140
 20
82.349091
 30
0.0
 10
83.500262
 20
82.496766
 30
0.0
 10
83.425781
 20
82.638493
 30
0.0
 10
83.412341
 20
82.706612
 30
0.0
 10
83.385504
 20
82.770657
 30
0.0
 10
83.368253
 20
82.929836
 30
0.0
 10
83.337241
 20
83.086911
 30
0.0
 10
83.343750
 20
83.156044
 30
0.0
 10
83.336289
 20
83.225076
 30
0.0
 10
83.365118
 20
83.382559
 30
0.0
 10
83.380146
 20
83.541971
 30
0.0
 10
83.403562
 20
83.592583
 30
0.0
 10
83.418590
 20
83.674683
 30
0.0
 10
83.625587
 20
84.082199
 30
0.0
 10
83.634450
 20
84.091539
 30
0.0
 10
83.638419
 20
84.100112
 30
0.0
 10
89.117260
 20
91.641091
 30
0.0
 10
84.316364
 20
98.248959
 30
0.0
 10
75.451409
 20
95.368562
 30
0.0
 10
75.304362
 20
95.343374
 30
0.0
 10
75.160600
 20
95.303491
 30
0.0
 10
75.080180
 20
95.305078
 30
0.0
 10
75.000898
 20
95.291505
 30
0.0
 10
74.852765
 20
95.309259
 30
0.0
 10
74.703601
 20
95.311984
 30
0.0
 10
74.626930
 20
95.336299
 30
0.0
 10
74.547066
 20
95.345877
 30
0.0
 10
74.410139
 20
95.405091
 30
0.0
 10
74.267925
 20
95.450210
 30
0.0
 10
74.201359
 20
95.495377
 30
0.0
 10
74.127537
 20
95.527299
 30
0.0
 10
74.054451
 20
95.595051
 30
0.0
 10
73.889693
 20
95.706840
 30
0.0
 10
73.750996
 20
95.876361
 30
0.0
 10
73.676531
 20
95.945394
 30
0.0
 10
67.519746
 20
104.419479
 30
0.0
 10
67.487445
 20
104.480945
 30
0.0
 10
67.443474
 20
104.534687
 30
0.0
 10
67.381599
 20
104.682353
 30
0.0
 10
67.307116
 20
104.824085
 30
0.0
 10
67.293675
 20
104.892210
 30
0.0
 10
67.266841
 20
104.956253
 30
0.0
 10
67.249617
 20
105.115429
 30
0.0
 10
67.218605
 20
105.272507
 30
0.0
 10
67.225114
 20
105.341640
 30
0.0
 10
67.217652
 20
105.410672
 30
0.0
 10
67.246481
 20
105.568155
 30
0.0
 10
67.261510
 20
105.727566
 30
0.0
 10
67.284925
 20
105.778178
 30
0.0
 10
67.299954
 20
105.860278
 30
0.0
 10
67.506951
 20
106.267795
 30
0.0
 10
67.515814
 20
106.277135
 30
0.0
 10
67.519783
 20
106.285707
 30
0.0
 10
73.676568
 20
114.759796
 30
0.0
 10
73.828542
 20
114.915654
 30
0.0
 10
73.978281
 20
115.073541
 30
0.0
 10
73.987911
 20
115.079097
 30
0.0
 10
73.995690
 20
115.087061
 30
0.0
 10
74.185777
 20
115.193159
 30
0.0
 10
74.374290
 20
115.301837
 30
0.0
 10
74.385112
 20
115.304483
 30
0.0
 10
74.394822
 20
115.309907
 30
0.0
 10
74.607190
 20
115.357434
 30
0.0
 10
74.818923
 20
115.407911
 30
0.0
 10
74.830009
 20
115.407382
 30
0.0
 10
74.840857
 20
115.409763
 30
0.0
 10
74.887481
 20
115.404180
 30
0.0
 10
75.275302
 20
115.382855
 30
0.0
 10
75.380863
 20
115.345059
 30
0.0
 10
75.451478
 20
115.336593
 30
0.0
 10
84.316432
 20
112.456195
 30
0.0
 10
89.117329
 20
119.064064
 30
0.0
 10
84.316432
 20
125.671935
 30
0.0
 10
75.451478
 20
122.791535
 30
0.0
 10
75.304430
 20
122.766347
 30
0.0
 10
75.160669
 20
122.726463
 30
0.0
 10
75.080249
 20
122.728051
 30
0.0
 10
75.000967
 20
122.714478
 30
0.0
 10
74.852834
 20
122.732231
 30
0.0
 10
74.703670
 20
122.734956
 30
0.0
 10
74.626999
 20
122.759272
 30
0.0
 10
74.547135
 20
122.768849
 30
0.0
 10
74.410208
 20
122.828063
 30
0.0
 10
74.267994
 20
122.873183
 30
0.0
 10
74.201427
 20
122.918350
 30
0.0
 10
74.127606
 20
122.950272
 30
0.0
 10
74.054520
 20
123.018023
 30
0.0
 10
73.889762
 20
123.129813
 30
0.0
 10
73.751064
 20
123.299334
 30
0.0
 10
73.676600
 20
123.368366
 30
0.0
 10
67.519815
 20
131.842454
 30
0.0
 10
67.487514
 20
131.903917
 30
0.0
 10
67.443543
 20
131.957662
 30
0.0
 10
67.381665
 20
132.105336
 30
0.0
 10
67.307185
 20
132.247063
 30
0.0
 10
67.293744
 20
132.315183
 30
0.0
 10
67.266907
 20
132.379228
 30
0.0
 10
67.249683
 20
132.538406
 30
0.0
 10
67.218671
 20
132.695482
 30
0.0
 10
67.225180
 20
132.764615
 30
0.0
 10
67.217719
 20
132.833647
 30
0.0
 10
67.246548
 20
132.991130
 30
0.0
 10
67.261576
 20
133.150541
 30
0.0
 10
67.284992
 20
133.201153
 30
0.0
 10
67.300020
 20
133.283254
 30
0.0
 10
67.507017
 20
133.690770
 30
0.0
 10
67.515880
 20
133.700110
 30
0.0
 10
67.519849
 20
133.708682
 30
0.0
 10
73.676634
 20
142.182771
 30
0.0
 10
73.828608
 20
142.338629
 30
0.0
 10
73.978347
 20
142.496516
 30
0.0
 10
73.987978
 20
142.502072
 30
0.0
 10
73.995756
 20
142.510036
 30
0.0
 10
74.185844
 20
142.616134
 30
0.0
 10
74.374356
 20
142.724812
 30
0.0
 10
74.385178
 20
142.727458
 30
0.0
 10
74.394888
 20
142.732882
 30
0.0
 10
74.607256
 20
142.780409
 30
0.0
 10
74.818989
 20
142.830886
 30
0.0
 10
74.830075
 20
142.830357
 30
0.0
 10
74.840923
 20
142.832738
 30
0.0
 10
74.887548
 20
142.827155
 30
0.0
 10
75.275369
 20
142.805830
 30
0.0
 10
75.380929
 20
142.768034
 30
0.0
 10
75.451544
 20
142.759568
 30
0.0
 10
84.316499
 20
139.879168
 30
0.0
 10
89.117395
 20
146.487039
 30
0.0
 10
83.638554
 20
154.028016
 30
0.0
 10
83.606254
 20
154.089481
 30
0.0
 10
83.562283
 20
154.143223
 30
0.0
 10
83.500407
 20
154.290890
 30
0.0
 10
83.425924
 20
154.432622
 30
0.0
 10
83.412483
 20
154.500747
 30
0.0
 10
83.385649
 20
154.564789
 30
0.0
 10
83.368399
 20
154.723965
 30
0.0
 10
83.337387
 20
154.881043
 30
0.0
 10
83.343896
 20
154.950176
 30
0.0
 10
83.336434
 20
155.019208
 30
0.0
 10
83.365263
 20
155.176691
 30
0.0
 10
83.380292
 20
155.336102
 30
0.0
 10
83.403707
 20
155.386715
 30
0.0
 10
83.418736
 20
155.468815
 30
0.0
 10
83.625732
 20
155.876331
 30
0.0
 10
83.634596
 20
155.885671
 30
0.0
 10
83.638565
 20
155.894244
 30
0.0
 10
89.795350
 20
164.368332
 30
0.0
 10
89.947324
 20
164.524190
 30
0.0
 10
90.097062
 20
164.682077
 30
0.0
 10
90.106693
 20
164.687634
 30
0.0
 10
90.114445
 20
164.695598
 30
0.0
 10
90.304533
 20
164.801696
 30
0.0
 10
90.493046
 20
164.910373
 30
0.0
 10
90.503867
 20
164.913019
 30
0.0
 10
90.513577
 20
164.918443
 30
0.0
 10
90.725945
 20
164.965970
 30
0.0
 10
90.937678
 20
165.016447
 30
0.0
 10
90.948764
 20
165.015918
 30
0.0
 10
90.959612
 20
165.018299
 30
0.0
 10
91.006237
 20
165.012717
 30
0.0
 10
91.394058
 20
164.991391
 30
0.0
 10
91.499619
 20
164.953595
 30
0.0
 10
91.570233
 20
164.945129
 30
0.0
 10
101.532119
 20
161.708317
 30
0.0
 10
101.656105
 20
161.647100
 30
0.0
 10
101.786269
 20
161.600496
 30
0.0
 10
101.859982
 20
161.546439
 30
0.0
 10
101.941963
 20
161.505963
 30
0.0
 10
102.043370
 20
161.411954
 30
0.0
 10
102.154858
 20
161.330198
 30
0.0
 10
102.210119
 20
161.257374
 30
0.0
 10
102.277164
 20
161.195221
 30
0.0
 10
102.347578
 20
161.076227
 30
0.0
 10
102.431157
 20
160.966084
 30
0.0
 10
102.445365
 20
160.910968
 30
0.0
 10
102.509931
 20
160.801854
 30
0.0
 10
102.629052
 20
160.198514
 30
0.0
 10
102.629052
 20
150.877352
 30
0.0
 10
110.397070
 20
148.353370
 30
0.0
 10
115.197967
 20
154.961238
 30
0.0
 10
109.719126
 20
162.502218
 30
0.0
 10
109.686826
 20
162.563680
 30
0.0
 10
109.642854
 20
162.617425
 30
0.0
 10
109.580976
 20
162.765100
 30
0.0
 10
109.506496
 20
162.906826
 30
0.0
 10
109.493055
 20
162.974946
 30
0.0
 10
109.466219
 20
163.038991
 30
0.0
 10
109.448968
 20
163.198170
 30
0.0
 10
109.417956
 20
163.355245
 30
0.0
 10
109.424465
 20
163.424378
 30
0.0
 10
109.417003
 20
163.493410
 30
0.0
 10
109.445832
 20
163.650893
 30
0.0
 10
109.460861
 20
163.810304
 30
0.0
 10
109.484276
 20
163.860917
 30
0.0
 10
109.499305
 20
163.943017
 30
0.0
 10
109.706302
 20
164.350533
 30
0.0
 10
109.715165
 20
164.359873
 30
0.0
 10
109.719134
 20
164.368446
 30
0.0
 10
115.875919
 20
172.842534
 30
0.0
 10
116.027893
 20
172.998392
 30
0.0
 10
116.177632
 20
173.156279
 30
0.0
 10
116.187262
 20
173.161836
 30
0.0
 10
116.195015
 20
173.169800
 30
0.0
 10
116.385102
 20
173.275898
 30
0.0
 10
116.573615
 20
173.384575
 30
0.0
 10
116.584436
 20
173.387221
 30
0.0
 10
116.594147
 20
173.392645
 30
0.0
 10
116.806514
 20
173.440172
 30
0.0
 10
117.018247
 20
173.490649
 30
0.0
 10
117.029333
 20
173.490120
 30
0.0
 10
117.040181
 20
173.492501
 30
0.0
  0
LWPOLYLINE
  5
101
100
AcDbEntity
  8
Layer_3
 62
7
100
AcDbPolyline
 90
438
 70
1
 10
112.965505
 20
163.433995
 30
0.0
 10
118.444349
 20
155.893016
 30
0.0
 10
118.490135
 20
155.805889
 30
0.0
 10
118.549637
 20
155.727477
 30
0.0
 10
118.567258
 20
155.659138
 30
0.0
 10
118.656981
 20
155.488407
 30
0.0
 10
118.745516
 20
155.039989
 30
0.0
 10
118.740515
 20
154.987091
 30
0.0
 10
118.747527
 20
154.959907
 30
0.0
 10
118.720336
 20
154.772995
 30
0.0
 10
118.702608
 20
154.584929
 30
0.0
 10
118.688559
 20
154.554576
 30
0.0
 10
118.681733
 20
154.507591
 30
0.0
 10
118.489786
 20
154.092772
 30
0.0
 10
118.458390
 20
154.057144
 30
0.0
 10
118.444341
 20
154.026799
 30
0.0
 10
112.287555
 20
145.552713
 30
0.0
 10
112.155695
 20
145.417482
 30
0.0
 10
112.030806
 20
145.275752
 30
0.0
 10
111.996620
 20
145.254348
 30
0.0
 10
111.968457
 20
145.225466
 30
0.0
 10
111.803516
 20
145.133401
 30
0.0
 10
111.643438
 20
145.033140
 30
0.0
 10
111.604568
 20
145.022345
 30
0.0
 10
111.569341
 20
145.002687
 30
0.0
 10
111.384995
 20
144.961433
 30
0.0
 10
111.202997
 20
144.910940
 30
0.0
 10
111.162669
 20
144.911733
 30
0.0
 10
111.123299
 20
144.902923
 30
0.0
 10
111.029395
 20
144.914168
 30
0.0
 10
110.745998
 20
144.919353
 30
0.0
 10
110.600331
 20
144.965568
 30
0.0
 10
110.512677
 20
144.976072
 30
0.0
 10
100.550790
 20
148.212884
 30
0.0
 10
100.452701
 20
148.261313
 30
0.0
 10
100.348434
 20
148.294394
 30
0.0
 10
100.248852
 20
148.361961
 30
0.0
 10
100.140945
 20
148.415237
 30
0.0
 10
100.060726
 20
148.489604
 30
0.0
 10
99.970201
 20
148.551024
 30
0.0
 10
99.893993
 20
148.644171
 30
0.0
 10
99.805744
 20
148.725980
 30
0.0
 10
99.750039
 20
148.820121
 30
0.0
 10
99.680768
 20
148.904785
 30
0.0
 10
99.634262
 20
149.015775
 30
0.0
 10
99.572974
 20
149.119347
 30
0.0
 10
99.557046
 20
149.200079
 30
0.0
 10
99.504135
 20
149.326351
 30
0.0
 10
99.470149
 20
149.640203
 30
0.0
 10
99.453877
 20
149.722687
 30
0.0
 10
99.453877
 20
159.043849
 30
0.0
 10
91.685861
 20
161.567831
 30
0.0
 10
86.884965
 20
154.959960
 30
0.0
 10
92.060620
 20
147.836284
 30
0.0
 10
101.531941
 20
144.758862
 30
0.0
 10
101.655928
 20
144.697646
 30
0.0
 10
101.786092
 20
144.651042
 30
0.0
 10
101.859805
 20
144.596985
 30
0.0
 10
101.941786
 20
144.556509
 30
0.0
 10
102.043193
 20
144.462500
 30
0.0
 10
102.154680
 20
144.380744
 30
0.0
 10
102.209941
 20
144.307920
 30
0.0
 10
102.276987
 20
144.245767
 30
0.0
 10
102.347400
 20
144.126773
 30
0.0
 10
102.430980
 20
144.016629
 30
0.0
 10
102.445188
 20
143.961514
 30
0.0
 10
102.509754
 20
143.852400
 30
0.0
 10
102.628875
 20
143.249060
 30
0.0
 10
102.628875
 20
132.774513
 30
0.0
 10
102.563073
 20
132.322197
 30
0.0
 10
102.371125
 20
131.907378
 30
0.0
 10
102.068940
 20
131.564444
 30
0.0
 10
101.681571
 20
131.321823
 30
0.0
 10
101.587509
 20
131.295735
 30
0.0
 10
101.531939
 20
131.264718
 30
0.0
 10
91.570053
 20
128.027904
 30
0.0
 10
91.423006
 20
128.002715
 30
0.0
 10
91.279244
 20
127.962832
 30
0.0
 10
91.198824
 20
127.964419
 30
0.0
 10
91.119542
 20
127.950846
 30
0.0
 10
90.971410
 20
127.968600
 30
0.0
 10
90.822246
 20
127.971325
 30
0.0
 10
90.745575
 20
127.995640
 30
0.0
 10
90.665710
 20
128.005218
 30
0.0
 10
90.528783
 20
128.064432
 30
0.0
 10
90.386569
 20
128.109551
 30
0.0
 10
90.320003
 20
128.154718
 30
0.0
 10
90.246181
 20
128.186640
 30
0.0
 10
90.173096
 20
128.254392
 30
0.0
 10
90.008337
 20
128.366181
 30
0.0
 10
89.869640
 20
128.535703
 30
0.0
 10
89.795175
 20
128.604735
 30
0.0
 10
83.941576
 20
136.661522
 30
0.0
 10
75.567185
 20
139.382529
 30
0.0
 10
70.766286
 20
132.774658
 30
0.0
 10
75.567185
 20
126.166787
 30
0.0
 10
84.432140
 20
129.047187
 30
0.0
 10
84.607572
 20
129.077246
 30
0.0
 10
84.780705
 20
129.118521
 30
0.0
 10
84.832010
 20
129.115690
 30
0.0
 10
84.882651
 20
129.124369
 30
0.0
 10
85.059377
 20
129.103202
 30
0.0
 10
85.237092
 20
129.093439
 30
0.0
 10
85.285466
 20
129.076109
 30
0.0
 10
85.336483
 20
129.069997
 30
0.0
 10
85.499848
 20
128.999350
 30
0.0
 10
85.667419
 20
128.939354
 30
0.0
 10
85.708852
 20
128.908969
 30
0.0
 10
85.756012
 20
128.888569
 30
0.0
 10
85.829270
 20
128.820659
 30
0.0
 10
86.036007
 20
128.669050
 30
0.0
 10
86.138472
 20
128.534017
 30
0.0
 10
86.207018
 20
128.470475
 30
0.0
 10
92.363803
 20
119.996387
 30
0.0
 10
92.409589
 20
119.909259
 30
0.0
 10
92.469092
 20
119.830847
 30
0.0
 10
92.486713
 20
119.762508
 30
0.0
 10
92.576436
 20
119.591778
 30
0.0
 10
92.664971
 20
119.143359
 30
0.0
 10
92.659970
 20
119.090461
 30
0.0
 10
92.666981
 20
119.063278
 30
0.0
 10
92.639790
 20
118.876366
 30
0.0
 10
92.622063
 20
118.688300
 30
0.0
 10
92.608014
 20
118.657947
 30
0.0
 10
92.601187
 20
118.610962
 30
0.0
 10
92.409240
 20
118.196143
 30
0.0
 10
92.377845
 20
118.160514
 30
0.0
 10
92.363795
 20
118.130169
 30
0.0
 10
86.207010
 20
109.656084
 30
0.0
 10
86.075150
 20
109.520852
 30
0.0
 10
85.950261
 20
109.379123
 30
0.0
 10
85.916074
 20
109.357718
 30
0.0
 10
85.887912
 20
109.328836
 30
0.0
 10
85.722971
 20
109.236772
 30
0.0
 10
85.562892
 20
109.136511
 30
0.0
 10
85.524023
 20
109.125716
 30
0.0
 10
85.488796
 20
109.106057
 30
0.0
 10
85.304450
 20
109.064803
 30
0.0
 10
85.122451
 20
109.014310
 30
0.0
 10
85.082123
 20
109.015104
 30
0.0
 10
85.042753
 20
109.006293
 30
0.0
 10
84.948850
 20
109.017538
 30
0.0
 10
84.665452
 20
109.022724
 30
0.0
 10
84.519786
 20
109.068939
 30
0.0
 10
84.432132
 20
109.079443
 30
0.0
 10
75.567178
 20
111.959840
 30
0.0
 10
70.766281
 20
105.351969
 30
0.0
 10
75.567178
 20
98.744101
 30
0.0
 10
83.941568
 20
101.465105
 30
0.0
 10
89.795167
 20
109.521892
 30
0.0
 10
90.114266
 20
109.849147
 30
0.0
 10
90.513382
 20
110.071916
 30
0.0
 10
90.959424
 20
110.171738
 30
0.0
 10
91.570045
 20
110.098586
 30
0.0
 10
101.531931
 20
106.861771
 30
0.0
 10
101.941776
 20
106.659418
 30
0.0
 10
102.276976
 20
106.348676
 30
0.0
 10
102.509746
 20
105.955309
 30
0.0
 10
102.628867
 20
105.351969
 30
0.0
 10
102.628867
 20
94.877422
 30
0.0
 10
102.563065
 20
94.425106
 30
0.0
 10
102.371118
 20
94.010287
 30
0.0
 10
102.068932
 20
93.667352
 30
0.0
 10
101.531931
 20
93.367619
 30
0.0
 10
92.060609
 20
90.290200
 30
0.0
 10
86.884952
 20
83.166522
 30
0.0
 10
91.685851
 20
76.558651
 30
0.0
 10
99.453867
 20
79.082633
 30
0.0
 10
99.453867
 20
88.403795
 30
0.0
 10
99.458074
 20
88.432772
 30
0.0
 10
99.454925
 20
88.461879
 30
0.0
 10
99.490900
 20
88.658396
 30
0.0
 10
99.519663
 20
88.856111
 30
0.0
 10
99.531966
 20
88.882683
 30
0.0
 10
99.537232
 20
88.911486
 30
0.0
 10
99.627709
 20
89.089606
 30
0.0
 10
99.711611
 20
89.270930
 30
0.0
 10
99.730978
 20
89.292890
 30
0.0
 10
99.744234
 20
89.319005
 30
0.0
 10
99.881695
 20
89.463949
 30
0.0
 10
100.013802
 20
89.613867
 30
0.0
 10
100.035207
 20
89.625826
 30
0.0
 10
100.058754
 20
89.650671
 30
0.0
 10
100.454740
 20
89.878956
 30
0.0
 10
100.514002
 20
89.893084
 30
0.0
 10
100.550792
 20
89.913616
 30
0.0
 10
110.512680
 20
93.150431
 30
0.0
 10
110.688112
 20
93.180490
 30
0.0
 10
110.861245
 20
93.221765
 30
0.0
 10
110.912550
 20
93.218934
 30
0.0
 10
110.963191
 20
93.227612
 30
0.0
 10
111.139917
 20
93.206446
 30
0.0
 10
111.317633
 20
93.196683
 30
0.0
 10
111.366006
 20
93.179352
 30
0.0
 10
111.417023
 20
93.173240
 30
0.0
 10
111.580388
 20
93.102594
 30
0.0
 10
111.747959
 20
93.042597
 30
0.0
 10
111.789393
 20
93.012212
 30
0.0
 10
111.836552
 20
92.991813
 30
0.0
 10
111.909810
 20
92.923902
 30
0.0
 10
112.116547
 20
92.772294
 30
0.0
 10
112.219012
 20
92.637261
 30
0.0
 10
112.287558
 20
92.573718
 30
0.0
 10
118.444343
 20
84.099630
 30
0.0
 10
118.490130
 20
84.012503
 30
0.0
 10
118.549632
 20
83.934091
 30
0.0
 10
118.567253
 20
83.865752
 30
0.0
 10
118.656976
 20
83.695021
 30
0.0
 10
118.745511
 20
83.246603
 30
0.0
 10
118.740510
 20
83.193705
 30
0.0
 10
118.747521
 20
83.166522
 30
0.0
 10
118.720330
 20
82.979609
 30
0.0
 10
118.702603
 20
82.791543
 30
0.0
 10
118.688554
 20
82.761190
 30
0.0
 10
118.681728
 20
82.714206
 30
0.0
 10
118.489780
 20
82.299387
 30
0.0
 10
118.458385
 20
82.263758
 30
0.0
 10
118.444335
 20
82.233413
 30
0.0
 10
112.965495
 20
74.692433
 30
0.0
 10
117.766391
 20
68.084565
 30
0.0
 10
125.534409
 20
70.608547
 30
0.0
 10
125.534409
 20
79.413899
 30
0.0
 10
119.680810
 20
87.470686
 30
0.0
 10
119.648510
 20
87.532149
 30
0.0
 10
119.604539
 20
87.585894
 30
0.0
 10
119.542661
 20
87.733569
 30
0.0
 10
119.468180
 20
87.875295
 30
0.0
 10
119.454740
 20
87.943415
 30
0.0
 10
119.427903
 20
88.007460
 30
0.0
 10
119.410652
 20
88.166639
 30
0.0
 10
119.379640
 20
88.323714
 30
0.0
 10
119.386149
 20
88.392847
 30
0.0
 10
119.378688
 20
88.461879
 30
0.0
 10
119.407517
 20
88.619362
 30
0.0
 10
119.422545
 20
88.778773
 30
0.0
 10
119.445961
 20
88.829385
 30
0.0
 10
119.460989
 20
88.911486
 30
0.0
 10
119.667986
 20
89.319002
 30
0.0
 10
119.676849
 20
89.328342
 30
0.0
 10
119.680818
 20
89.336914
 30
0.0
 10
125.837603
 20
97.811003
 30
0.0
 10
125.989577
 20
97.966861
 30
0.0
 10
126.139316
 20
98.124748
 30
0.0
 10
126.148947
 20
98.130304
 30
0.0
 10
126.156725
 20
98.138268
 30
0.0
 10
126.346813
 20
98.244366
 30
0.0
 10
126.535326
 20
98.353044
 30
0.0
 10
126.546147
 20
98.355690
 30
0.0
 10
126.555857
 20
98.361114
 30
0.0
 10
126.768225
 20
98.408641
 30
0.0
 10
126.979958
 20
98.459118
 30
0.0
 10
126.991044
 20
98.458589
 30
0.0
 10
127.001892
 20
98.460970
 30
0.0
 10
127.048517
 20
98.455387
 30
0.0
 10
127.436338
 20
98.434062
 30
0.0
 10
127.541898
 20
98.396266
 30
0.0
 10
127.612513
 20
98.387800
 30
0.0
 10
137.574398
 20
95.150985
 30
0.0
 10
137.698385
 20
95.089768
 30
0.0
 10
137.828549
 20
95.043165
 30
0.0
 10
137.902262
 20
94.989108
 30
0.0
 10
137.984243
 20
94.948632
 30
0.0
 10
138.085650
 20
94.854623
 30
0.0
 10
138.197138
 20
94.772866
 30
0.0
 10
138.252398
 20
94.700042
 30
0.0
 10
138.319444
 20
94.637889
 30
0.0
 10
138.389857
 20
94.518895
 30
0.0
 10
138.473437
 20
94.408752
 30
0.0
 10
138.487645
 20
94.353637
 30
0.0
 10
138.552211
 20
94.244522
 30
0.0
 10
138.671332
 20
93.641183
 30
0.0
 10
138.671332
 20
83.682443
 30
0.0
 10
143.846987
 20
76.558764
 30
0.0
 10
151.615005
 20
79.082749
 30
0.0
 10
151.615005
 20
87.250521
 30
0.0
 10
142.750053
 20
90.130921
 30
0.0
 10
142.651964
 20
90.179350
 30
0.0
 10
142.547697
 20
90.212431
 30
0.0
 10
142.448116
 20
90.279998
 30
0.0
 10
142.340208
 20
90.333274
 30
0.0
 10
142.259989
 20
90.407641
 30
0.0
 10
142.169465
 20
90.469061
 30
0.0
 10
142.093257
 20
90.562208
 30
0.0
 10
142.005008
 20
90.644017
 30
0.0
 10
141.949302
 20
90.738158
 30
0.0
 10
141.880032
 20
90.822822
 30
0.0
 10
141.833526
 20
90.933812
 30
0.0
 10
141.772238
 20
91.037384
 30
0.0
 10
141.756310
 20
91.118116
 30
0.0
 10
141.703399
 20
91.244388
 30
0.0
 10
141.669413
 20
91.558240
 30
0.0
 10
141.653141
 20
91.640724
 30
0.0
 10
141.653141
 20
102.115271
 30
0.0
 10
141.657348
 20
102.144248
 30
0.0
 10
141.654199
 20
102.173355
 30
0.0
 10
141.690175
 20
102.369871
 30
0.0
 10
141.718938
 20
102.567587
 30
0.0
 10
141.731241
 20
102.594159
 30
0.0
 10
141.736506
 20
102.622961
 30
0.0
 10
141.826983
 20
102.801081
 30
0.0
 10
141.910885
 20
102.982406
 30
0.0
 10
141.930252
 20
103.004366
 30
0.0
 10
141.943508
 20
103.030480
 30
0.0
 10
142.080970
 20
103.175424
 30
0.0
 10
142.213076
 20
103.325343
 30
0.0
 10
142.234481
 20
103.337302
 30
0.0
 10
142.258029
 20
103.362146
 30
0.0
 10
142.654015
 20
103.590431
 30
0.0
 10
142.713276
 20
103.604560
 30
0.0
 10
142.750066
 20
103.625092
 30
0.0
 10
152.711954
 20
106.861904
 30
0.0
 10
152.887386
 20
106.891963
 30
0.0
 10
153.060519
 20
106.933238
 30
0.0
 10
153.111824
 20
106.930407
 30
0.0
 10
153.162466
 20
106.939085
 30
0.0
 10
153.339191
 20
106.917919
 30
0.0
 10
153.516907
 20
106.908156
 30
0.0
 10
153.565281
 20
106.890825
 30
0.0
 10
153.616298
 20
106.884713
 30
0.0
 10
153.779662
 20
106.814067
 30
0.0
 10
153.947233
 20
106.754070
 30
0.0
 10
153.988667
 20
106.723685
 30
0.0
 10
154.035826
 20
106.703286
 30
0.0
 10
154.109084
 20
106.635375
 30
0.0
 10
154.315821
 20
106.483766
 30
0.0
 10
154.418287
 20
106.348734
 30
0.0
 10
154.486832
 20
106.285191
 30
0.0
 10
159.965673
 20
98.744215
 30
0.0
 10
167.733689
 20
101.268197
 30
0.0
 10
167.733689
 20
109.435971
 30
0.0
 10
159.359304
 20
112.156976
 30
0.0
 10
149.887980
 20
109.079557
 30
0.0
 10
149.437468
 20
109.002364
 30
0.0
 10
148.983637
 20
109.056734
 30
0.0
 10
148.564108
 20
109.238156
 30
0.0
 10
148.113102
 20
109.656250
 30
0.0
 10
141.956316
 20
118.130336
 30
0.0
 10
141.743687
 20
118.534942
 30
0.0
 10
141.655152
 20
118.983363
 30
0.0
 10
141.698051
 20
119.438423
 30
0.0
 10
141.956316
 20
119.996553
 30
0.0
 10
148.113102
 20
128.470641
 30
0.0
 10
148.189468
 20
128.548958
 30
0.0
 10
148.253154
 20
128.637906
 30
0.0
 10
148.348184
 20
128.711732
 30
0.0
 10
148.432200
 20
128.797897
 30
0.0
 10
148.527720
 20
128.851210
 30
0.0
 10
148.614104
 20
128.918322
 30
0.0
 10
148.726242
 20
128.962018
 30
0.0
 10
148.831316
 20
129.020665
 30
0.0
 10
148.938051
 20
129.044557
 30
0.0
 10
149.039990
 20
129.084279
 30
0.0
 10
149.159926
 20
129.094201
 30
0.0
 10
149.277358
 20
129.120474
 30
0.0
 10
149.386499
 20
129.112960
 30
0.0
 10
149.495507
 20
129.121982
 30
0.0
 10
149.631755
 20
129.096053
 30
0.0
 10
149.733355
 20
129.089042
 30
0.0
 10
149.800540
 20
129.063933
 30
0.0
 10
149.887980
 20
129.047290
 30
0.0
 10
159.359304
 20
125.969869
 30
0.0
 10
167.733689
 20
128.690873
 30
0.0
 10
167.733689
 20
136.858650
 30
0.0
 10
159.965673
 20
139.382632
 30
0.0
 10
154.486832
 20
131.841653
 30
0.0
 10
154.354972
 20
131.706422
 30
0.0
 10
154.230083
 20
131.564692
 30
0.0
 10
154.195896
 20
131.543287
 30
0.0
 10
154.167734
 20
131.514406
 30
0.0
 10
154.002809
 20
131.422352
 30
0.0
 10
153.842715
 20
131.322080
 30
0.0
 10
153.803834
 20
131.311285
 30
0.0
 10
153.768618
 20
131.291626
 30
0.0
 10
153.584301
 20
131.250378
 30
0.0
 10
153.402273
 20
131.199877
 30
0.0
 10
153.361943
 20
131.200671
 30
0.0
 10
153.322576
 20
131.191860
 30
0.0
 10
153.228672
 20
131.203105
 30
0.0
 10
152.945275
 20
131.208291
 30
0.0
 10
152.799608
 20
131.254505
 30
0.0
 10
152.711954
 20
131.265009
 30
0.0
 10
142.750066
 20
134.501824
 30
0.0
 10
142.651977
 20
134.550253
 30
0.0
 10
142.547710
 20
134.583334
 30
0.0
 10
142.448129
 20
134.650901
 30
0.0
 10
142.340222
 20
134.704177
 30
0.0
 10
142.260003
 20
134.778544
 30
0.0
 10
142.169478
 20
134.839964
 30
0.0
 10
142.093270
 20
134.933111
 30
0.0
 10
142.005021
 20
135.014920
 30
0.0
 10
141.949316
 20
135.109061
 30
0.0
 10
141.880045
 20
135.193725
 30
0.0
 10
141.833539
 20
135.304715
 30
0.0
 10
141.772251
 20
135.408286
 30
0.0
 10
141.756323
 20
135.489019
 30
0.0
 10
141.703412
 20
135.615291
 30
0.0
 10
141.669426
 20
135.929142
 30
0.0
 10
141.653154
 20
136.011626
 30
0.0
 10
141.653154
 20
146.486174
 30
0.0
 10
141.657361
 20
146.515151
 30
0.0
 10
141.654213
 20
146.544258
 30
0.0
 10
141.690188
 20
146.740774
 30
0.0
 10
141.718951
 20
146.938489
 30
0.0
 10
141.731254
 20
146.965061
 30
0.0
 10
141.736519
 20
146.993864
 30
0.0
 10
141.826996
 20
147.171984
 30
0.0
 10
141.910898
 20
147.353308
 30
0.0
 10
141.930266
 20
147.375269
 30
0.0
 10
141.943521
 20
147.401383
 30
0.0
 10
142.080983
 20
147.546327
 30
0.0
 10
142.213089
 20
147.696245
 30
0.0
 10
142.234494
 20
147.708205
 30
0.0
 10
142.258042
 20
147.733049
 30
0.0
 10
142.654028
 20
147.961334
 30
0.0
 10
142.713289
 20
147.975463
 30
0.0
 10
142.750080
 20
147.995995
 30
0.0
 10
151.615032
 20
150.876392
 30
0.0
 10
151.615032
 20
159.044166
 30
0.0
 10
143.847013
 20
161.568149
 30
0.0
 10
138.671358
 20
154.444470
 30
0.0
 10
138.671358
 20
144.485730
 30
0.0
 10
138.605556
 20
144.033415
 30
0.0
 10
138.413609
 20
143.618596
 30
0.0
 10
138.111423
 20
143.275661
 30
0.0
 10
137.574422
 20
142.975928
 30
0.0
 10
127.612537
 20
139.739116
 30
0.0
 10
127.162026
 20
139.661924
 30
0.0
 10
126.708194
 20
139.716293
 30
0.0
 10
126.288665
 20
139.897715
 30
0.0
 10
125.837659
 20
140.315810
 30
0.0
 10
119.680874
 20
148.789895
 30
0.0
 10
119.468244
 20
149.194501
 30
0.0
 10
119.379709
 20
149.642923
 30
0.0
 10
119.422609
 20
150.097982
 30
0.0
 10
119.680874
 20
150.656113
 30
0.0
 10
125.534473
 20
158.712900
 30
0.0
 10
125.534473
 20
167.518252
 30
0.0
 10
117.766454
 20
170.042237
 30
0.0
  0
LWPOLYLINE
  5
102
100
AcDbEntity
  8
Layer_3
 62
7
100
AcDbPolyline
 90
5
 70
1
 10
122.927393
 20
88.403562
 30
0.0
 10
127.728292
 20
81.795691
 30
0.0
 10
135.496308
 20
84.319674
 30
0.0
 10
135.496308
 20
92.487451
 30
0.0
 10
127.728292
 20
95.011433
 30
0.0
  0
LWPOLYLINE
  5
103
100
AcDbEntity
  8
Layer_3
 62
7
100
AcDbPolyline
 90
5
 70
1
 10
86.884949
 20
100.114462
 30
0.0
 10
91.685846
 20
93.506594
 30
0.0
 10
99.453861
 20
96.030576
 30
0.0
 10
99.453861
 20
104.198351
 30
0.0
 10
91.685846
 20
106.722333
 30
0.0
  0
LWPOLYLINE
  5
104
100
AcDbEntity
  8
Layer_3
 62
7
100
AcDbPolyline
 90
5
 70
1
 10
145.202852
 20
119.063098
 30
0.0
 10
150.003748
 20
112.455230
 30
0.0
 10
157.771767
 20
114.979212
 30
0.0
 10
157.771767
 20
123.146984
 30
0.0
 10
150.003748
 20
125.670969
 30
0.0
  0
LWPOLYLINE
  5
105
100
AcDbEntity
  8
Layer_3
 62
7
100
AcDbPolyline
 90
5
 70
1
 10
86.884947
 20
138.011733
 30
0.0
 10
91.685846
 20
131.403863
 30
0.0
 10
99.453861
 20
133.927845
 30
0.0
 10
99.453861
 20
142.095622
 30
0.0
 10
91.685846
 20
144.619604
 30
0.0
  0
LWPOLYLINE
  5
106
100
AcDbEntity
  8
Layer_3
 62
7
100
AcDbPolyline
 90
5
 70
1
 10
122.927396
 20
149.722634
 30
0.0
 10
127.728292
 20
143.114765
 30
0.0
 10
135.496308
 20
145.638748
 30
0.0
 10
135.496308
 20
153.806522
 30
0.0
 10
127.728292
 20
156.330504
 30
0.0
  0
ENDSEC
  0
SECTION
  2
OBJECTS
  0
DICTIONARY
  5
C
330
0
100
AcDbDictionary
  3
ACAD_GROUP
350
D
  3
ACAD_MLINESTYLE
350
17
  0
DICTIONARY
  5
D
330
C
100
AcDbDictionary
  0
DICTIONARY
  5
1A
330
C
100
AcDbDictionary
  0
DICTIONARY
  5
17
330
C
100
AcDbDictionary
  3
STANDARD
350
18
  0
DICTIONARY
  5
19
330
C
100
AcDbDictionary
  0
ENDSEC
  0
EOF
