  0
SECTION
  2
HEADER
  9
$ACADVER
  1
AC1014
  9
$HANDSEED
  5
FFFF
  9
$INSUNITS
 70
     4
  9
$MEASUREMENT
 70
     1
  0
ENDSEC
  0
SECTION
  2
TABLES
  0
TABLE
  2
VPORT
  5
8
330
0
100
AcDbSymbolTable
 70
     4
  0
VPORT
  5
2E
330
8
100
AcDbSymbolTableRecord
100
AcDbViewportTableRecord
  2
*ACTIVE
 70
     0
 10
0.0
 20
0.0
 11
1.0
 21
1.0
 12
210.0
 22
148.5
 13
0.0
 23
0.0
 14
10.0
 24
10.0
 15
10.0
 25
10.0
 16
0.0
 26
0.0
 36
1.0
 17
0.0
 27
0.0
 37
0.0
 40
341.0
 41
1.24
 42
50.0
 43
0.0
 44
0.0
 50
0.0
 51
0.0
 71
     0
 72
   100
 73
     1
 74
     3
 75
     0
 76
     0
 77
     0
 78
     0
  0
ENDTAB
  0
TABLE
  2
LTYPE
  5
5
330
0
100
AcDbSymbolTable
 70
     1
  0
LTYPE
  5
14
330
5
100
AcDbSymbolTableRecord
100
AcDbLinetypeTableRecord
  2
BYBLOCK
 70
     0
  3

 72
    65
 73
     0
 40
0.0
  0
LTYPE
  5
15
330
5
100
AcDbSymbolTableRecord
100
AcDbLinetypeTableRecord
  2
BYLAYER
 70
     0
  3

 72
    65
 73
     0
 40
0.0
  0
LTYPE
  5
16
330
5
100
AcDbSymbolTableRecord
100
AcDbLinetypeTableRecord
  2
CONTINUOUS
 70
     0
  3
Solid line
 72
    65
 73
     0
 40
0.0
  0
ENDTAB
  0
TABLE
  2
LAYER
  5
2
100
AcDbSymbolTable
 70
5
  0
LAYER
  5
50
100
AcDbSymbolTableRecord
100
AcDbLayerTableRecord
  2
0
 70
0
  6
CONTINUOUS
  0
LAYER
  5
51
100
AcDbSymbolTableRecord
100
AcDbLayerTableRecord
  2
Layer_1
 70
0
  6
CONTINUOUS
  0
LAYER
  5
52
100
AcDbSymbolTableRecord
100
AcDbLayerTableRecord
  2
Layer_2
 70
0
  6
CONTINUOUS
  0
LAYER
  5
53
100
AcDbSymbolTableRecord
100
AcDbLayerTableRecord
  2
Layer_3
 70
0
  6
CONTINUOUS
  0
LAYER
  5
54
100
AcDbSymbolTableRecord
100
AcDbLayerTableRecord
  2
Layer_4
 70
0
  6
CONTINUOUS
  0
ENDTAB
  0
TABLE
  2
STYLE
  5
3
330
0
100
AcDbSymbolTable
 70
     1
  0
STYLE
  5
11
330
3
100
AcDbSymbolTableRecord
100
AcDbTextStyleTableRecord
  2
STANDARD
 70
     0
 40
0.0
 41
1.0
 50
0.0
 71
     0
 42
2.5
  3
txt
  4

  0
ENDTAB
  0
TABLE
  2
VIEW
  5
6
330
0
100
AcDbSymbolTable
 70
     0
  0
ENDTAB
  0
TABLE
  2
UCS
  5
7
330
0
100
AcDbSymbolTable
 70
     0
  0
ENDTAB
  0
TABLE
  2
APPID
  5
9
330
0
100
AcDbSymbolTable
 70
     2
  0
APPID
  5
12
330
9
100
AcDbSymbolTableRecord
100
AcDbRegAppTableRecord
  2
ACAD
 70
     0
  0
ENDTAB
  0
TABLE
  2
DIMSTYLE
  5
A
330
0
100
AcDbSymbolTable
 70
     1
  0
DIMSTYLE
105
27
330
A
100
AcDbSymbolTableRecord
100
AcDbDimStyleTableRecord
  2
ISO-25
 70
     0
  3

  4

  5

  6

  7

 40
1.0
 41
2.5
 42
0.625
 43
3.75
 44
1.25
 45
0.0
 46
0.0
 47
0.0
 48
0.0
140
2.5
141
2.5
142
0.0
143
0.03937007874016
144
1.0
145
0.0
146
1.0
147
0.625
 71
     0
 72
     0
 73
     0
 74
     0
 75
     0
 76
     0
 77
     1
 78
     8
170
     0
171
     3
172
     1
173
     0
174
     0
175
     0
176
     0
177
     0
178
     0
270
     2
271
     2
272
     2
273
     2
274
     3
340
11
275
     0
280
     0
281
     0
282
     0
283
     0
284
     8
285
     0
286
     0
287
     3
288
     0
  0
ENDTAB
  0
TABLE
  2
BLOCK_RECORD
  5
1
330
0
100
AcDbSymbolTable
 70
     1
  0
BLOCK_RECORD
  5
1F
330
1
100
AcDbSymbolTableRecord
100
AcDbBlockTableRecord
  2
*MODEL_SPACE
  0
BLOCK_RECORD
  5
1B
330
1
100
AcDbSymbolTableRecord
100
AcDbBlockTableRecord
  2
*PAPER_SPACE
  0
ENDTAB
  0
ENDSEC
  0
SECTION
  2
BLOCKS
  0
BLOCK
  5
20
330
1F
100
AcDbEntity
  8
0
100
AcDbBlockBegin
  2
*MODEL_SPACE
 70
     0
 10
0.0
 20
0.0
 30
0.0
  3
*MODEL_SPACE
  1

  0
ENDBLK
  5
21
330
1F
100
AcDbEntity
  8
0
100
AcDbBlockEnd
  0
BLOCK
  5
1C
330
1B
100
AcDbEntity
 67
     1
  8
0
100
AcDbBlockBegin
  2
*PAPER_SPACE
  1

  0
ENDBLK
  5
1D
330
1B
100
AcDbEntity
 67
     1
  8
0
100
AcDbBlockEnd
  0
ENDSEC
  0
SECTION
  2
ENTITIES
  0
LWPOLYLINE
  5
100
100
AcDbEntity
  8
Layer_2
 62
7
100
AcDbPolyline
 90
279
 70
1
 10
112.276276
 20
172.474131
 30
0.0
 10
112.695805
 20
172.292709
 30
0.0
 10
113.146811
 20
171.874614
 30
0.0
 10
120.042482
 20
162.383533
 30
0.0
 10
131.199919
 20
158.758263
 30
0.0
 10
131.323906
 20
158.697046
 30
0.0
 10
131.454070
 20
158.650443
 30
0.0
 10
131.527783
 20
158.596386
 30
0.0
 10
131.609764
 20
158.555910
 30
0.0
 10
131.711171
 20
158.461901
 30
0.0
 10
131.822658
 20
158.380144
 30
0.0
 10
131.877919
 20
158.307320
 30
0.0
 10
131.944965
 20
158.245167
 30
0.0
 10
132.015378
 20
158.126173
 30
0.0
 10
132.098957
 20
158.016030
 30
0.0
 10
132.113166
 20
157.960915
 30
0.0
 10
132.177732
 20
157.851800
 30
0.0
 10
132.296852
 20
157.248460
 30
0.0
 10
132.296852
 20
149.886853
 30
0.0
 10
136.623896
 20
155.842518
 30
0.0
 10
136.775870
 20
155.998376
 30
0.0
 10
136.925608
 20
156.156263
 30
0.0
 10
136.935239
 20
156.161819
 30
0.0
 10
136.942991
 20
156.169783
 30
0.0
 10
137.133116
 20
156.275902
 30
0.0
 10
137.321592
 20
156.384559
 30
0.0
 10
137.332413
 20
156.387205
 30
0.0
 10
137.342123
 20
156.392629
 30
0.0
 10
137.554515
 20
156.440161
 30
0.0
 10
137.766227
 20
156.490633
 30
0.0
 10
137.777313
 20
156.490104
 30
0.0
 10
137.788161
 20
156.492485
 30
0.0
 10
137.834785
 20
156.486902
 30
0.0
 10
138.222606
 20
156.465577
 30
0.0
 10
138.328167
 20
156.427781
 30
0.0
 10
138.398782
 20
156.419315
 30
0.0
 10
149.556216
 20
152.794044
 30
0.0
 10
160.713653
 20
156.419315
 30
0.0
 10
160.889085
 20
156.449374
 30
0.0
 10
161.062218
 20
156.490649
 30
0.0
 10
161.113523
 20
156.487818
 30
0.0
 10
161.164164
 20
156.496496
 30
0.0
 10
161.340890
 20
156.475329
 30
0.0
 10
161.518605
 20
156.465566
 30
0.0
 10
161.566979
 20
156.448236
 30
0.0
 10
161.617996
 20
156.442124
 30
0.0
 10
161.781360
 20
156.371478
 30
0.0
 10
161.948932
 20
156.311481
 30
0.0
 10
161.990365
 20
156.281096
 30
0.0
 10
162.037525
 20
156.260697
 30
0.0
 10
162.110782
 20
156.192786
 30
0.0
 10
162.317520
 20
156.041177
 30
0.0
 10
162.419985
 20
155.906145
 30
0.0
 10
162.488531
 20
155.842602
 30
0.0
 10
169.687388
 20
145.934224
 30
0.0
 10
169.733174
 20
145.847096
 30
0.0
 10
169.792676
 20
145.768684
 30
0.0
 10
169.810298
 20
145.700345
 30
0.0
 10
169.900021
 20
145.529615
 30
0.0
 10
169.988555
 20
145.081196
 30
0.0
 10
169.983581
 20
145.028298
 30
0.0
 10
169.990593
 20
145.001115
 30
0.0
 10
169.963401
 20
144.814203
 30
0.0
 10
169.945674
 20
144.626137
 30
0.0
 10
169.931625
 20
144.595784
 30
0.0
 10
169.924799
 20
144.548799
 30
0.0
 10
169.732852
 20
144.133980
 30
0.0
 10
169.701456
 20
144.098351
 30
0.0
 10
169.687407
 20
144.068006
 30
0.0
 10
162.791735
 20
134.576926
 30
0.0
 10
162.791735
 20
122.845303
 30
0.0
 10
162.725933
 20
122.392988
 30
0.0
 10
162.533986
 20
121.978169
 30
0.0
 10
162.231800
 20
121.635234
 30
0.0
 10
161.844432
 20
121.392614
 30
0.0
 10
161.750370
 20
121.366526
 30
0.0
 10
161.694799
 20
121.335509
 30
0.0
 10
154.693493
 20
119.060648
 30
0.0
 10
161.694799
 20
116.785784
 30
0.0
 10
161.818786
 20
116.724568
 30
0.0
 10
161.948950
 20
116.677964
 30
0.0
 10
162.022663
 20
116.623907
 30
0.0
 10
162.104644
 20
116.583431
 30
0.0
 10
162.206051
 20
116.489422
 30
0.0
 10
162.317538
 20
116.407666
 30
0.0
 10
162.372799
 20
116.334842
 30
0.0
 10
162.439845
 20
116.272688
 30
0.0
 10
162.510258
 20
116.153695
 30
0.0
 10
162.593838
 20
116.043551
 30
0.0
 10
162.608046
 20
115.988436
 30
0.0
 10
162.672612
 20
115.879322
 30
0.0
 10
162.791733
 20
115.275982
 30
0.0
 10
162.791733
 20
103.544359
 30
0.0
 10
169.687404
 20
94.053282
 30
0.0
 10
169.733190
 20
93.966154
 30
0.0
 10
169.792692
 20
93.887742
 30
0.0
 10
169.810314
 20
93.819403
 30
0.0
 10
169.900036
 20
93.648673
 30
0.0
 10
169.988571
 20
93.200254
 30
0.0
 10
169.983597
 20
93.147356
 30
0.0
 10
169.990609
 20
93.120173
 30
0.0
 10
169.963417
 20
92.933261
 30
0.0
 10
169.945690
 20
92.745195
 30
0.0
 10
169.931641
 20
92.714842
 30
0.0
 10
169.924815
 20
92.667857
 30
0.0
 10
169.732867
 20
92.253038
 30
0.0
 10
169.701472
 20
92.217409
 30
0.0
 10
169.687423
 20
92.187064
 30
0.0
 10
162.488565
 20
82.278683
 30
0.0
 10
162.356705
 20
82.143452
 30
0.0
 10
162.231816
 20
82.001722
 30
0.0
 10
162.197629
 20
81.980318
 30
0.0
 10
162.169467
 20
81.951436
 30
0.0
 10
162.004534
 20
81.859377
 30
0.0
 10
161.844448
 20
81.759110
 30
0.0
 10
161.805572
 20
81.748315
 30
0.0
 10
161.770354
 20
81.728657
 30
0.0
 10
161.586029
 20
81.687405
 30
0.0
 10
161.404006
 20
81.636907
 30
0.0
 10
161.363679
 20
81.637701
 30
0.0
 10
161.324309
 20
81.628890
 30
0.0
 10
161.230405
 20
81.640135
 30
0.0
 10
160.947007
 20
81.645321
 30
0.0
 10
160.801341
 20
81.691536
 30
0.0
 10
160.713687
 20
81.702040
 30
0.0
 10
149.556250
 20
85.327313
 30
0.0
 10
138.398816
 20
81.702040
 30
0.0
 10
138.251769
 20
81.676851
 30
0.0
 10
138.108007
 20
81.636968
 30
0.0
 10
138.027587
 20
81.638555
 30
0.0
 10
137.948305
 20
81.624982
 30
0.0
 10
137.800173
 20
81.642736
 30
0.0
 10
137.651008
 20
81.645461
 30
0.0
 10
137.574337
 20
81.669776
 30
0.0
 10
137.494473
 20
81.679354
 30
0.0
 10
137.357546
 20
81.738568
 30
0.0
 10
137.215332
 20
81.783687
 30
0.0
 10
137.148766
 20
81.828854
 30
0.0
 10
137.074944
 20
81.860776
 30
0.0
 10
137.001859
 20
81.928528
 30
0.0
 10
136.837100
 20
82.040317
 30
0.0
 10
136.698403
 20
82.209838
 30
0.0
 10
136.623938
 20
82.278871
 30
0.0
 10
132.296895
 20
88.234539
 30
0.0
 10
132.296895
 20
80.872931
 30
0.0
 10
132.231093
 20
80.420615
 30
0.0
 10
132.039146
 20
80.005796
 30
0.0
 10
131.736960
 20
79.662861
 30
0.0
 10
131.349591
 20
79.420241
 30
0.0
 10
131.255529
 20
79.394153
 30
0.0
 10
131.199959
 20
79.363136
 30
0.0
 10
120.042522
 20
75.737863
 30
0.0
 10
113.146851
 20
66.246785
 30
0.0
 10
113.014990
 20
66.111554
 30
0.0
 10
112.890102
 20
65.969825
 30
0.0
 10
112.855915
 20
65.948420
 30
0.0
 10
112.827752
 20
65.919538
 30
0.0
 10
112.662819
 20
65.827479
 30
0.0
 10
112.502733
 20
65.727212
 30
0.0
 10
112.463858
 20
65.716417
 30
0.0
 10
112.428639
 20
65.696759
 30
0.0
 10
112.244314
 20
65.655507
 30
0.0
 10
112.062292
 20
65.605009
 30
0.0
 10
112.021964
 20
65.605803
 30
0.0
 10
111.982594
 20
65.596992
 30
0.0
 10
111.888691
 20
65.608237
 30
0.0
 10
111.605293
 20
65.613423
 30
0.0
 10
111.459626
 20
65.659638
 30
0.0
 10
111.371973
 20
65.670142
 30
0.0
 10
99.723972
 20
69.454805
 30
0.0
 10
99.625883
 20
69.503234
 30
0.0
 10
99.521616
 20
69.536315
 30
0.0
 10
99.422035
 20
69.603882
 30
0.0
 10
99.314127
 20
69.657158
 30
0.0
 10
99.233908
 20
69.731525
 30
0.0
 10
99.143383
 20
69.792945
 30
0.0
 10
99.067175
 20
69.886092
 30
0.0
 10
98.978926
 20
69.967901
 30
0.0
 10
98.923221
 20
70.062042
 30
0.0
 10
98.853950
 20
70.146706
 30
0.0
 10
98.807445
 20
70.257696
 30
0.0
 10
98.746157
 20
70.361268
 30
0.0
 10
98.730229
 20
70.442000
 30
0.0
 10
98.677317
 20
70.568272
 30
0.0
 10
98.643332
 20
70.882124
 30
0.0
 10
98.627033
 20
70.964608
 30
0.0
 10
98.627033
 20
82.696230
 30
0.0
 10
91.731362
 20
92.187310
 30
0.0
 10
91.699061
 20
92.248773
 30
0.0
 10
91.655090
 20
92.302518
 30
0.0
 10
91.593212
 20
92.450192
 30
0.0
 10
91.518732
 20
92.591919
 30
0.0
 10
91.505291
 20
92.660039
 30
0.0
 10
91.478455
 20
92.724084
 30
0.0
 10
91.461204
 20
92.883262
 30
0.0
 10
91.430192
 20
93.040338
 30
0.0
 10
91.436701
 20
93.109471
 30
0.0
 10
91.429239
 20
93.178503
 30
0.0
 10
91.458068
 20
93.335986
 30
0.0
 10
91.473097
 20
93.495397
 30
0.0
 10
91.496512
 20
93.546009
 30
0.0
 10
91.511541
 20
93.628109
 30
0.0
 10
91.718537
 20
94.035626
 30
0.0
 10
91.727401
 20
94.044966
 30
0.0
 10
91.731370
 20
94.053538
 30
0.0
 10
96.058413
 20
100.009203
 30
0.0
 10
89.057107
 20
97.734342
 30
0.0
 10
88.910059
 20
97.709154
 30
0.0
 10
88.766298
 20
97.669271
 30
0.0
 10
88.685878
 20
97.670858
 30
0.0
 10
88.606596
 20
97.657285
 30
0.0
 10
88.458463
 20
97.675039
 30
0.0
 10
88.309299
 20
97.677764
 30
0.0
 10
88.232628
 20
97.702079
 30
0.0
 10
88.152764
 20
97.711657
 30
0.0
 10
88.015837
 20
97.770871
 30
0.0
 10
87.873623
 20
97.815990
 30
0.0
 10
87.807057
 20
97.861157
 30
0.0
 10
87.733235
 20
97.893079
 30
0.0
 10
87.660149
 20
97.960831
 30
0.0
 10
87.495391
 20
98.072620
 30
0.0
 10
87.356693
 20
98.242141
 30
0.0
 10
87.282229
 20
98.311174
 30
0.0
 10
80.386555
 20
107.802251
 30
0.0
 10
69.229121
 20
111.427525
 30
0.0
 10
68.819276
 20
111.629878
 30
0.0
 10
68.484075
 20
111.940620
 30
0.0
 10
68.251305
 20
112.333987
 30
0.0
 10
68.132185
 20
112.937327
 30
0.0
 10
68.132185
 20
125.184757
 30
0.0
 10
68.136392
 20
125.213734
 30
0.0
 10
68.133243
 20
125.242841
 30
0.0
 10
68.169218
 20
125.439358
 30
0.0
 10
68.197981
 20
125.637073
 30
0.0
 10
68.210284
 20
125.663645
 30
0.0
 10
68.215550
 20
125.692448
 30
0.0
 10
68.306027
 20
125.870568
 30
0.0
 10
68.389929
 20
126.051892
 30
0.0
 10
68.409296
 20
126.073852
 30
0.0
 10
68.422552
 20
126.099967
 30
0.0
 10
68.560013
 20
126.244911
 30
0.0
 10
68.692120
 20
126.394829
 30
0.0
 10
68.713525
 20
126.406788
 30
0.0
 10
68.737073
 20
126.431633
 30
0.0
 10
69.133059
 20
126.659918
 30
0.0
 10
69.192320
 20
126.674047
 30
0.0
 10
69.229110
 20
126.694578
 30
0.0
 10
80.386544
 20
130.319849
 30
0.0
 10
87.282218
 20
139.810929
 30
0.0
 10
87.434192
 20
139.966787
 30
0.0
 10
87.583931
 20
140.124675
 30
0.0
 10
87.593562
 20
140.130231
 30
0.0
 10
87.601340
 20
140.138195
 30
0.0
 10
87.791428
 20
140.244293
 30
0.0
 10
87.979941
 20
140.352970
 30
0.0
 10
87.990762
 20
140.355616
 30
0.0
 10
88.000472
 20
140.361040
 30
0.0
 10
88.212840
 20
140.408567
 30
0.0
 10
88.424573
 20
140.459045
 30
0.0
 10
88.435659
 20
140.458515
 30
0.0
 10
88.446507
 20
140.460897
 30
0.0
 10
88.493132
 20
140.455314
 30
0.0
 10
88.880953
 20
140.433989
 30
0.0
 10
88.986513
 20
140.396193
 30
0.0
 10
89.057128
 20
140.387726
 30
0.0
 10
96.058434
 20
138.112862
 30
0.0
 10
91.731391
 20
144.068530
 30
0.0
 10
91.518761
 20
144.473139
 30
0.0
 10
91.430226
 20
144.921557
 30
0.0
 10
91.473126
 20
145.376617
 30
0.0
 10
91.731391
 20
145.934747
 30
0.0
 10
98.627062
 20
155.425825
 30
0.0
 10
98.627062
 20
167.156926
 30
0.0
 10
98.692864
 20
167.609242
 30
0.0
 10
98.884811
 20
168.024061
 30
0.0
 10
99.186997
 20
168.366996
 30
0.0
 10
99.723998
 20
168.666729
 30
0.0
 10
111.371999
 20
172.451395
 30
0.0
 10
111.822510
 20
172.528587
 30
0.0
  0
LWPOLYLINE
  5
101
100
AcDbEntity
  8
Layer_2
 62
7
100
AcDbPolyline
 90
5
 70
1
 10
101.801996
 20
82.058314
 30
0.0
 10
101.801996
 20
72.117656
 30
0.0
 10
111.256127
 20
69.045823
 30
0.0
 10
117.099099
 20
77.087984
 30
0.0
 10
111.256127
 20
85.130148
 30
0.0
  0
LWPOLYLINE
  5
102
100
AcDbEntity
  8
Layer_2
 62
7
100
AcDbPolyline
 90
5
 70
1
 10
113.824753
 20
86.996365
 30
0.0
 10
119.667724
 20
78.954201
 30
0.0
 10
129.121855
 20
82.026035
 30
0.0
 10
129.121855
 20
91.966693
 30
0.0
 10
119.667724
 20
95.038526
 30
0.0
  0
LWPOLYLINE
  5
103
100
AcDbEntity
  8
Layer_2
 62
7
100
AcDbPolyline
 90
5
 70
1
 10
94.977895
 20
93.120080
 30
0.0
 10
100.820866
 20
85.077916
 30
0.0
 10
110.274997
 20
88.149750
 30
0.0
 10
110.274997
 20
98.090408
 30
0.0
 10
100.820866
 20
101.162242
 30
0.0
  0
LWPOLYLINE
  5
104
100
AcDbEntity
  8
Layer_2
 62
7
100
AcDbPolyline
 90
5
 70
1
 10
132.671611
 20
93.120080
 30
0.0
 10
138.514582
 20
85.077916
 30
0.0
 10
147.968711
 20
88.149750
 30
0.0
 10
147.968711
 20
98.090408
 30
0.0
 10
138.514582
 20
101.162242
 30
0.0
  0
LWPOLYLINE
  5
105
100
AcDbEntity
  8
Layer_2
 62
7
100
AcDbPolyline
 90
5
 70
1
 10
151.143711
 20
98.090408
 30
0.0
 10
151.143711
 20
88.149750
 30
0.0
 10
160.597842
 20
85.077916
 30
0.0
 10
166.440813
 20
93.120080
 30
0.0
 10
160.597842
 20
101.162242
 30
0.0
  0
LWPOLYLINE
  5
106
100
AcDbEntity
  8
Layer_2
 62
7
100
AcDbPolyline
 90
4
 70
1
 10
113.449997
 20
98.727988
 30
0.0
 10
113.449997
 20
91.882188
 30
0.0
 10
117.473854
 20
97.420552
 30
0.0
 10
117.473854
 20
104.266352
 30
0.0
  0
LWPOLYLINE
  5
107
100
AcDbEntity
  8
Layer_2
 62
7
100
AcDbPolyline
 90
5
 70
1
 10
120.648854
 20
107.998789
 30
0.0
 10
120.648854
 20
98.058131
 30
0.0
 10
130.102986
 20
94.986298
 30
0.0
 10
135.945957
 20
103.028459
 30
0.0
 10
130.102986
 20
111.070623
 30
0.0
  0
LWPOLYLINE
  5
108
100
AcDbEntity
  8
Layer_2
 62
7
100
AcDbPolyline
 90
5
 70
1
 10
83.329896
 20
109.152174
 30
0.0
 10
89.172867
 20
101.110013
 30
0.0
 10
98.626996
 20
104.181847
 30
0.0
 10
98.626996
 20
114.122504
 30
0.0
 10
89.172867
 20
117.194338
 30
0.0
  0
LWPOLYLINE
  5
109
100
AcDbEntity
  8
Layer_2
 62
7
100
AcDbPolyline
 90
5
 70
1
 10
101.801996
 20
114.122504
 30
0.0
 10
101.801996
 20
104.181847
 30
0.0
 10
111.256127
 20
101.110013
 30
0.0
 10
117.099099
 20
109.152174
 30
0.0
 10
111.256127
 20
117.194338
 30
0.0
  0
LWPOLYLINE
  5
10a
100
AcDbEntity
  8
Layer_2
 62
7
100
AcDbPolyline
 90
5
 70
1
 10
144.319609
 20
109.152174
 30
0.0
 10
150.162580
 20
101.110013
 30
0.0
 10
159.616712
 20
104.181847
 30
0.0
 10
159.616712
 20
114.122504
 30
0.0
 10
150.162580
 20
117.194338
 30
0.0
  0
LWPOLYLINE
  5
10b
100
AcDbEntity
  8
Layer_2
 62
7
100
AcDbPolyline
 90
4
 70
1
 10
138.889340
 20
104.378868
 30
0.0
 10
145.400083
 20
102.263400
 30
0.0
 10
141.376225
 20
107.801765
 30
0.0
 10
134.865483
 20
109.917235
 30
0.0
  0
LWPOLYLINE
  5
10c
100
AcDbEntity
  8
Layer_2
 62
7
100
AcDbPolyline
 90
5
 70
1
 10
71.307140
 20
124.030883
 30
0.0
 10
71.307140
 20
114.090225
 30
0.0
 10
80.761268
 20
111.018391
 30
0.0
 10
86.604240
 20
119.060555
 30
0.0
 10
80.761268
 20
127.102717
 30
0.0
  0
LWPOLYLINE
  5
10d
100
AcDbEntity
  8
Layer_2
 62
7
100
AcDbPolyline
 90
5
 70
1
 10
113.824753
 20
119.060555
 30
0.0
 10
119.667724
 20
111.018391
 30
0.0
 10
129.121855
 20
114.090225
 30
0.0
 10
129.121855
 20
124.030883
 30
0.0
 10
119.667724
 20
127.102717
 30
0.0
  0
LWPOLYLINE
  5
10e
100
AcDbEntity
  8
Layer_2
 62
7
100
AcDbPolyline
 90
5
 70
1
 10
132.296855
 20
124.030883
 30
0.0
 10
132.296855
 20
114.090225
 30
0.0
 10
141.750984
 20
111.018391
 30
0.0
 10
147.593955
 20
119.060555
 30
0.0
 10
141.750984
 20
127.102717
 30
0.0
  0
LWPOLYLINE
  5
10f
100
AcDbEntity
  8
Layer_2
 62
7
100
AcDbPolyline
 90
4
 70
1
 10
93.703754
 20
119.060555
 30
0.0
 10
100.214496
 20
116.945085
 30
0.0
 10
106.725238
 20
119.060555
 30
0.0
 10
100.214496
 20
121.176023
 30
0.0
  0
LWPOLYLINE
  5
110
100
AcDbEntity
  8
Layer_2
 62
7
100
AcDbPolyline
 90
5
 70
1
 10
83.329896
 20
128.968934
 30
0.0
 10
89.172867
 20
120.926773
 30
0.0
 10
98.626996
 20
123.998606
 30
0.0
 10
98.626996
 20
133.939264
 30
0.0
 10
89.172867
 20
137.011098
 30
0.0
  0
LWPOLYLINE
  5
111
100
AcDbEntity
  8
Layer_2
 62
7
100
AcDbPolyline
 90
5
 70
1
 10
101.801996
 20
133.939264
 30
0.0
 10
101.801996
 20
123.998606
 30
0.0
 10
111.256128
 20
120.926773
 30
0.0
 10
117.099099
 20
128.968934
 30
0.0
 10
111.256128
 20
137.011098
 30
0.0
  0
LWPOLYLINE
  5
112
100
AcDbEntity
  8
Layer_2
 62
7
100
AcDbPolyline
 90
5
 70
1
 10
144.319609
 20
128.968934
 30
0.0
 10
150.162580
 20
120.926773
 30
0.0
 10
159.616712
 20
123.998606
 30
0.0
 10
159.616712
 20
133.939264
 30
0.0
 10
150.162580
 20
137.011098
 30
0.0
  0
LWPOLYLINE
  5
113
100
AcDbEntity
  8
Layer_2
 62
7
100
AcDbPolyline
 90
5
 70
1
 10
120.648854
 20
140.062979
 30
0.0
 10
120.648854
 20
130.122321
 30
0.0
 10
130.102986
 20
127.050488
 30
0.0
 10
135.945957
 20
135.092649
 30
0.0
 10
130.102986
 20
143.134813
 30
0.0
  0
LWPOLYLINE
  5
114
100
AcDbEntity
  8
Layer_2
 62
7
100
AcDbPolyline
 90
4
 70
1
 10
138.889340
 20
133.742239
 30
0.0
 10
134.865483
 20
128.203875
 30
0.0
 10
141.376225
 20
130.319343
 30
0.0
 10
145.400083
 20
135.857710
 30
0.0
  0
LWPOLYLINE
  5
115
100
AcDbEntity
  8
Layer_2
 62
7
100
AcDbPolyline
 90
4
 70
1
 10
113.449997
 20
139.393123
 30
0.0
 10
117.473854
 20
133.854756
 30
0.0
 10
117.473854
 20
140.700556
 30
0.0
 10
113.449997
 20
146.238923
 30
0.0
  0
LWPOLYLINE
  5
116
100
AcDbEntity
  8
Layer_2
 62
7
100
AcDbPolyline
 90
5
 70
1
 10
94.977895
 20
145.001030
 30
0.0
 10
100.820866
 20
136.958866
 30
0.0
 10
110.274997
 20
140.030700
 30
0.0
 10
110.274997
 20
149.971358
 30
0.0
 10
100.820866
 20
153.043191
 30
0.0
  0
LWPOLYLINE
  5
117
100
AcDbEntity
  8
Layer_2
 62
7
100
AcDbPolyline
 90
5
 70
1
 10
132.671611
 20
145.001030
 30
0.0
 10
138.514582
 20
136.958866
 30
0.0
 10
147.968711
 20
140.030700
 30
0.0
 10
147.968711
 20
149.971358
 30
0.0
 10
138.514582
 20
153.043191
 30
0.0
  0
LWPOLYLINE
  5
118
100
AcDbEntity
  8
Layer_2
 62
7
100
AcDbPolyline
 90
5
 70
1
 10
151.143711
 20
149.971358
 30
0.0
 10
151.143711
 20
140.030700
 30
0.0
 10
160.597842
 20
136.958866
 30
0.0
 10
166.440813
 20
145.001030
 30
0.0
 10
160.597842
 20
153.043192
 30
0.0
  0
LWPOLYLINE
  5
119
100
AcDbEntity
  8
Layer_2
 62
7
100
AcDbPolyline
 90
5
 70
1
 10
113.824753
 20
151.124745
 30
0.0
 10
119.667724
 20
143.082582
 30
0.0
 10
129.121855
 20
146.154415
 30
0.0
 10
129.121855
 20
156.095073
 30
0.0
 10
119.667724
 20
159.166907
 30
0.0
  0
LWPOLYLINE
  5
11a
100
AcDbEntity
  8
Layer_2
 62
7
100
AcDbPolyline
 90
5
 70
1
 10
101.801996
 20
166.003454
 30
0.0
 10
101.801996
 20
156.062796
 30
0.0
 10
111.256127
 20
152.990963
 30
0.0
 10
117.099099
 20
161.033124
 30
0.0
 10
111.256127
 20
169.075288
 30
0.0
  0
ENDSEC
  0
SECTION
  2
OBJECTS
  0
DICTIONARY
  5
C
330
0
100
AcDbDictionary
  3
ACAD_GROUP
350
D
  3
ACAD_MLINESTYLE
350
17
  0
DICTIONARY
  5
D
330
C
100
AcDbDictionary
  0
DICTIONARY
  5
1A
330
C
100
AcDbDictionary
  0
DICTIONARY
  5
17
330
C
100
AcDbDictionary
  3
STANDARD
350
18
  0
DICTIONARY
  5
19
330
C
100
AcDbDictionary
  0
ENDSEC
  0
EOF
