<?xml version="1.0" encoding="UTF-8" standalone="no"?>
<svg
   version="1.1"
   width="238.125mm"
   height="238.125mm"
   id="svg4"
   sodipodi:docname="quad04.svg"
   inkscape:version="1.3 (0e150ed, 2023-07-21)"
   xmlns:inkscape="http://www.inkscape.org/namespaces/inkscape"
   xmlns:sodipodi="http://sodipodi.sourceforge.net/DTD/sodipodi-0.dtd"
   xmlns:xlink="http://www.w3.org/1999/xlink"
   xmlns="http://www.w3.org/2000/svg"
   xmlns:svg="http://www.w3.org/2000/svg">
  <sodipodi:namedview
     id="namedview4"
     pagecolor="#505050"
     bordercolor="#eeeeee"
     borderopacity="1"
     inkscape:showpageshadow="0"
     inkscape:pageopacity="0"
     inkscape:pagecheckerboard="0"
     inkscape:deskcolor="#d1d1d1"
     inkscape:zoom="0.89333333"
     inkscape:cx="450"
     inkscape:cy="439.92537"
     inkscape:window-width="1920"
     inkscape:window-height="1044"
     inkscape:window-x="1920"
     inkscape:window-y="0"
     inkscape:window-maximized="1"
     inkscape:current-layer="layer13"
     inkscape:document-units="mm" />
  <defs
     id="defs1" />
  <g
     inkscape:groupmode="layer"
     id="layer13"
     inkscape:label="Layer 1"
     style="display:inline">
    <path
       fill="#222222"
       stroke="#cccccc"
       paint-order="fill stroke markers"
       d="m 482.84303,249.38042 33.42906,10.86176 1.54902,0.7648 1.2669,1.17446 0.87976,1.48674 0.45022,2.28034 v 30.79013 l 29.28316,9.51468 1.54902,0.7648 1.2669,1.17446 0.87976,1.48674 0.45022,2.28034 v 35.1494 l -0.2487,1.70954 -0.72547,1.56782 -1.14212,1.29613 -2.02961,1.13285 -29.28316,9.51468 v 26.43087 l 25.13727,8.1676 18.09799,-24.90975 1.20604,-1.23687 1.50847,-0.84197 1.68583,-0.37727 2.30786,0.27648 33.42906,10.86176 1.54902,0.7648 1.2669,1.17446 0.87976,1.48674 0.45022,2.28034 v 30.79014 l 29.28316,9.51468 1.54902,0.7648 1.2669,1.17446 0.87976,1.48674 0.45022,2.28034 v 35.14939 l -0.2487,1.70954 -0.72547,1.56782 -1.14212,1.29613 -2.02961,1.13285 -29.28316,9.51468 v 30.79014 l -0.2487,1.70954 -0.72547,1.56782 -1.14212,1.29613 -2.02961,1.13285 -33.42906,10.86176 -1.70272,0.29175 -1.71527,-0.20549 -1.58562,-0.68569 -1.70459,-1.5802 -18.09799,-24.90975 -25.13727,8.1676 v 26.43088 l 29.28316,9.51468 1.54902,0.7648 1.2669,1.17446 0.87976,1.48674 0.45022,2.28034 v 35.14939 l -0.2487,1.70954 -0.72547,1.56782 -1.14212,1.29613 -2.02961,1.13285 -29.28316,9.51468 v 30.79013 l -0.2487,1.70954 -0.72547,1.56782 -1.14212,1.29613 -2.02961,1.13285 -33.42906,10.86176 -1.70272,0.29175 -1.71527,-0.20549 -1.58562,-0.68569 -1.70459,-1.5802 -18.09799,-24.90974 -29.28317,9.51468 -1.70272,0.29175 -1.71527,-0.20549 -1.58562,-0.68569 -1.70459,-1.5802 -20.66029,-28.43646 -0.80364,-1.52923 -0.33462,-1.69481 0.16214,-1.71991 0.97612,-2.10947 18.09799,-24.90975 -15.53568,-21.38303 -25.13727,8.1676 v 30.79013 l -0.2487,1.70954 -0.72547,1.56782 -1.14212,1.29613 -2.02961,1.13285 -33.42906,10.86176 -1.70272,0.29175 -1.71527,-0.20549 -1.58562,-0.68569 -1.70459,-1.5802 -18.09799,-24.90975 -29.28317,9.51468 -1.70272,0.29175 -1.71527,-0.20549 -1.58562,-0.68569 -1.70459,-1.5802 -20.66029,-28.43645 -0.80364,-1.52923 -0.33462,-1.69481 0.16214,-1.71991 0.97612,-2.10947 18.09799,-24.90975 -18.09799,-24.90975 -0.80364,-1.52923 -0.33462,-1.69481 0.16214,-1.71991 0.97612,-2.10947 20.66029,-28.43646 1.20604,-1.23687 1.50846,-0.84196 1.68584,-0.37728 2.30786,0.27648 29.28317,9.51468 15.53568,-21.38303 -15.53568,-21.38304 -29.28317,9.51468 -1.70272,0.29175 -1.71527,-0.20549 -1.58562,-0.68569 -1.70459,-1.5802 -20.66029,-28.43646 -0.80364,-1.52923 -0.33462,-1.69481 0.16214,-1.71991 0.97612,-2.10947 18.09799,-24.90975 -18.09799,-24.90974 -0.80364,-1.52923 -0.33462,-1.69481 0.16214,-1.71991 0.97612,-2.10947 20.66029,-28.43646 1.20604,-1.23687 1.50846,-0.84196 1.68584,-0.37728 2.30786,0.27648 29.28317,9.51468 18.09799,-24.90975 1.20604,-1.23687 1.50847,-0.84197 1.68583,-0.37727 2.30786,0.27648 33.42906,10.86176 1.54902,0.7648 1.2669,1.17446 0.87976,1.48674 0.45022,2.28034 v 30.79014 l 25.13727,8.1676 15.53568,-21.38304 -18.09799,-24.90975 -0.80364,-1.52923 -0.33462,-1.69481 0.16214,-1.71991 0.97612,-2.10947 20.66029,-28.43645 1.20604,-1.23687 1.50847,-0.84196 1.68583,-0.37728 2.30786,0.27648 29.28317,9.51468 18.09799,-24.90975 1.20604,-1.23687 1.50847,-0.84197 1.68583,-0.37727 z m -17.6603,278.58704 -1.20604,1.23687 -1.50847,0.84197 -1.68583,0.37727 -2.30786,-0.27648 -29.28317,-9.51468 -15.53568,21.38304 18.09799,24.90974 0.80364,1.52923 0.33462,1.69481 -0.16214,1.71991 -0.97612,2.10947 -18.09799,24.90975 15.53568,21.38304 29.28317,-9.51468 1.70272,-0.29175 1.71527,0.20549 1.58562,0.68569 1.70459,1.5802 18.09799,24.90974 25.13727,-8.1676 v -30.79013 l 0.2487,-1.70954 0.72547,-1.56782 1.14212,-1.29613 2.02961,-1.13285 29.28316,-9.51468 v -26.43087 l -29.28316,-9.51468 -1.54902,-0.7648 -1.2669,-1.17446 -0.87976,-1.48674 -0.45022,-2.28034 v -30.79014 l -25.13727,-8.1676 z m -141.60777,-46.01116 -1.20604,1.23687 -1.50847,0.84197 -1.68583,0.37727 -2.30786,-0.27648 -29.28317,-9.51468 -15.53568,21.38304 18.09799,24.90975 0.80364,1.52923 0.33462,1.69481 -0.16214,1.71991 -0.97612,2.10947 -18.09799,24.90975 15.53568,21.38303 29.28317,-9.51468 1.70272,-0.29175 1.71527,0.20549 1.58562,0.68569 1.70459,1.5802 18.09799,24.90975 25.13727,-8.1676 v -30.79013 l 0.2487,-1.70954 0.72547,-1.56782 1.14212,-1.29613 2.02961,-1.13285 29.28316,-9.51468 v -26.43088 l -29.28316,-9.51468 -1.54902,-0.7648 -1.2669,-1.17446 -0.87976,-1.48674 -0.45022,-2.28034 v -30.79013 l -25.13727,-8.1676 z m 88.66432,26.85926 v 14.73379 l 8.66029,-11.91987 v -14.73379 z m 20.66029,-26.02671 v 26.43088 l 25.13727,8.1676 15.53568,-21.38304 -15.53568,-21.38304 z m 119.80158,-75.28016 -1.20604,1.23687 -1.50847,0.84197 -1.68583,0.37727 -2.30786,-0.27648 -29.28317,-9.51468 -15.53568,21.38304 18.09799,24.90975 0.80364,1.52923 0.33462,1.69481 -0.16214,1.71991 -0.97612,2.10947 -18.09799,24.90974 15.53568,21.38304 29.28317,-9.51468 1.70272,-0.29175 1.71527,0.20549 1.58562,0.68569 1.70459,1.5802 18.09799,24.90975 25.13727,-8.1676 v -30.79014 l 0.2487,-1.70954 0.72547,-1.56782 1.14212,-1.29613 2.02961,-1.13285 29.28316,-9.51468 V 436.7777 l -29.28316,-9.51468 -1.54902,-0.7648 -1.2669,-1.17446 -0.87976,-1.48674 -0.45022,-2.28034 v -30.79014 l -25.13727,-8.1676 z m -173.89093,57.70547 v 26.43087 l 25.13727,8.1676 15.53568,-21.38304 -15.53568,-21.38303 z m 105.88691,25.68622 14.01267,4.55299 -8.6603,-11.91987 -14.01267,-4.55299 z m -71.04145,-40.90724 15.53568,21.38303 25.13727,-8.1676 V 436.7777 l -25.13727,-8.1676 z m 52.67295,-13.21544 v 26.43087 l 25.13728,8.1676 15.53568,-21.38303 -15.53568,-21.38304 z m -107.53106,13.21544 14.01265,4.55299 14.01265,-4.55299 -14.01265,-4.55299 z m -35.22261,-116.93206 -1.20604,1.23687 -1.50847,0.84197 -1.68583,0.37727 -2.30786,-0.27648 -29.28317,-9.51468 -15.53568,21.38304 18.09799,24.90974 0.80364,1.52923 0.33462,1.69481 -0.16214,1.71991 -0.97612,2.10947 -18.09799,24.90975 15.53568,21.38304 29.28317,-9.51468 1.70272,-0.29175 1.71527,0.20549 1.58562,0.68569 1.70459,1.5802 18.09799,24.90975 25.13727,-8.1676 v -30.79014 l 0.2487,-1.70954 0.72547,-1.56782 1.14212,-1.29613 2.02961,-1.13285 29.28316,-9.51468 v -26.43087 l -29.28316,-9.51468 -1.54902,-0.7648 -1.2669,-1.17446 -0.87976,-1.48674 -0.45022,-2.28034 v -30.79014 l -25.13727,-8.1676 z m 55.23526,75.28016 v 26.43088 l 25.13727,8.1676 15.53568,-21.38304 -15.53568,-21.38304 z m 54.08935,-17.5747 v 26.43088 l 25.13727,8.1676 15.53568,-21.38304 -15.53568,-21.38304 z m 51.79756,18.31935 -8.6603,11.91987 14.01267,-4.55299 8.6603,-11.91987 z m -72.45785,-17.91518 8.66029,11.91987 v -14.73379 l -8.66029,-11.91986 z m 52.94345,-104.12078 -1.20604,1.23687 -1.50847,0.84197 -1.68583,0.37727 -2.30786,-0.27648 -29.28317,-9.51468 -15.53568,21.38303 18.09799,24.90975 0.80364,1.52923 0.33462,1.69481 -0.16214,1.71991 -0.97612,2.10947 -18.09799,24.90975 15.53568,21.38303 29.28317,-9.51468 1.70272,-0.29175 1.71527,0.20549 1.58562,0.68569 1.70459,1.5802 18.09799,24.90975 25.13727,-8.1676 v -30.79013 l 0.2487,-1.70954 0.72547,-1.56782 1.14212,-1.29613 2.02961,-1.13285 29.28316,-9.51468 v -26.43088 l -29.28316,-9.51468 -1.54902,-0.7648 -1.2669,-1.17446 -0.87976,-1.48674 -0.45022,-2.28034 v -30.79013 l -25.13727,-8.1676 z"
       stroke-miterlimit="10"
       id="path1" />
    <text
       x="0"
       y="0"
       id="text4"><textPath
         style="fill:#000000;fill-opacity:1.0;font-size:12;font-style:normal;font-weight:normal;stroke:none;text-align:center;text-anchor:start;vertical-align:bottom"
         xlink:href="#path1"
         startOffset="50%"
         dy="-22.677165354330707"
         id="textPath4">5416.02 px</textPath></text>
  </g>
</svg>
