  0
SECTION
  2
HEADER
  9
$ACADVER
  1
AC1014
  9
$HANDSEED
  5
FFFF
  9
$INSUNITS
 70
     4
  9
$MEASUREMENT
 70
     1
  0
ENDSEC
  0
SECTION
  2
TABLES
  0
TABLE
  2
VPORT
  5
8
330
0
100
AcDbSymbolTable
 70
     4
  0
VPORT
  5
2E
330
8
100
AcDbSymbolTableRecord
100
AcDbViewportTableRecord
  2
*ACTIVE
 70
     0
 10
0.0
 20
0.0
 11
1.0
 21
1.0
 12
210.0
 22
148.5
 13
0.0
 23
0.0
 14
10.0
 24
10.0
 15
10.0
 25
10.0
 16
0.0
 26
0.0
 36
1.0
 17
0.0
 27
0.0
 37
0.0
 40
341.0
 41
1.24
 42
50.0
 43
0.0
 44
0.0
 50
0.0
 51
0.0
 71
     0
 72
   100
 73
     1
 74
     3
 75
     0
 76
     0
 77
     0
 78
     0
  0
ENDTAB
  0
TABLE
  2
LTYPE
  5
5
330
0
100
AcDbSymbolTable
 70
     1
  0
LTYPE
  5
14
330
5
100
AcDbSymbolTableRecord
100
AcDbLinetypeTableRecord
  2
BYBLOCK
 70
     0
  3

 72
    65
 73
     0
 40
0.0
  0
LTYPE
  5
15
330
5
100
AcDbSymbolTableRecord
100
AcDbLinetypeTableRecord
  2
BYLAYER
 70
     0
  3

 72
    65
 73
     0
 40
0.0
  0
LTYPE
  5
16
330
5
100
AcDbSymbolTableRecord
100
AcDbLinetypeTableRecord
  2
CONTINUOUS
 70
     0
  3
Solid line
 72
    65
 73
     0
 40
0.0
  0
ENDTAB
  0
TABLE
  2
LAYER
  5
2
100
AcDbSymbolTable
 70
5
  0
LAYER
  5
50
100
AcDbSymbolTableRecord
100
AcDbLayerTableRecord
  2
0
 70
0
  6
CONTINUOUS
  0
LAYER
  5
51
100
AcDbSymbolTableRecord
100
AcDbLayerTableRecord
  2
Layer_1
 70
0
  6
CONTINUOUS
  0
LAYER
  5
52
100
AcDbSymbolTableRecord
100
AcDbLayerTableRecord
  2
Layer_2
 70
0
  6
CONTINUOUS
  0
LAYER
  5
53
100
AcDbSymbolTableRecord
100
AcDbLayerTableRecord
  2
Layer_3
 70
0
  6
CONTINUOUS
  0
LAYER
  5
54
100
AcDbSymbolTableRecord
100
AcDbLayerTableRecord
  2
Layer_4
 70
0
  6
CONTINUOUS
  0
ENDTAB
  0
TABLE
  2
STYLE
  5
3
330
0
100
AcDbSymbolTable
 70
     1
  0
STYLE
  5
11
330
3
100
AcDbSymbolTableRecord
100
AcDbTextStyleTableRecord
  2
STANDARD
 70
     0
 40
0.0
 41
1.0
 50
0.0
 71
     0
 42
2.5
  3
txt
  4

  0
ENDTAB
  0
TABLE
  2
VIEW
  5
6
330
0
100
AcDbSymbolTable
 70
     0
  0
ENDTAB
  0
TABLE
  2
UCS
  5
7
330
0
100
AcDbSymbolTable
 70
     0
  0
ENDTAB
  0
TABLE
  2
APPID
  5
9
330
0
100
AcDbSymbolTable
 70
     2
  0
APPID
  5
12
330
9
100
AcDbSymbolTableRecord
100
AcDbRegAppTableRecord
  2
ACAD
 70
     0
  0
ENDTAB
  0
TABLE
  2
DIMSTYLE
  5
A
330
0
100
AcDbSymbolTable
 70
     1
  0
DIMSTYLE
105
27
330
A
100
AcDbSymbolTableRecord
100
AcDbDimStyleTableRecord
  2
ISO-25
 70
     0
  3

  4

  5

  6

  7

 40
1.0
 41
2.5
 42
0.625
 43
3.75
 44
1.25
 45
0.0
 46
0.0
 47
0.0
 48
0.0
140
2.5
141
2.5
142
0.0
143
0.03937007874016
144
1.0
145
0.0
146
1.0
147
0.625
 71
     0
 72
     0
 73
     0
 74
     0
 75
     0
 76
     0
 77
     1
 78
     8
170
     0
171
     3
172
     1
173
     0
174
     0
175
     0
176
     0
177
     0
178
     0
270
     2
271
     2
272
     2
273
     2
274
     3
340
11
275
     0
280
     0
281
     0
282
     0
283
     0
284
     8
285
     0
286
     0
287
     3
288
     0
  0
ENDTAB
  0
TABLE
  2
BLOCK_RECORD
  5
1
330
0
100
AcDbSymbolTable
 70
     1
  0
BLOCK_RECORD
  5
1F
330
1
100
AcDbSymbolTableRecord
100
AcDbBlockTableRecord
  2
*MODEL_SPACE
  0
BLOCK_RECORD
  5
1B
330
1
100
AcDbSymbolTableRecord
100
AcDbBlockTableRecord
  2
*PAPER_SPACE
  0
ENDTAB
  0
ENDSEC
  0
SECTION
  2
BLOCKS
  0
BLOCK
  5
20
330
1F
100
AcDbEntity
  8
0
100
AcDbBlockBegin
  2
*MODEL_SPACE
 70
     0
 10
0.0
 20
0.0
 30
0.0
  3
*MODEL_SPACE
  1

  0
ENDBLK
  5
21
330
1F
100
AcDbEntity
  8
0
100
AcDbBlockEnd
  0
BLOCK
  5
1C
330
1B
100
AcDbEntity
 67
     1
  8
0
100
AcDbBlockBegin
  2
*PAPER_SPACE
  1

  0
ENDBLK
  5
1D
330
1B
100
AcDbEntity
 67
     1
  8
0
100
AcDbBlockEnd
  0
ENDSEC
  0
SECTION
  2
ENTITIES
  0
LWPOLYLINE
  5
100
100
AcDbEntity
  8
Layer_4
 62
7
100
AcDbPolyline
 90
125
 70
1
 10
120.730203
 20
173.478870
 30
0.0
 10
121.149732
 20
173.297448
 30
0.0
 10
121.600738
 20
172.879353
 30
0.0
 10
127.861089
 20
164.262723
 30
0.0
 10
137.499984
 20
161.130853
 30
0.0
 10
147.629446
 20
164.422116
 30
0.0
 10
148.079957
 20
164.499309
 30
0.0
 10
148.533789
 20
164.444939
 30
0.0
 10
148.953318
 20
164.263517
 30
0.0
 10
149.404324
 20
163.845423
 30
0.0
 10
155.967859
 20
154.811489
 30
0.0
 10
156.180488
 20
154.406880
 30
0.0
 10
156.269023
 20
153.958462
 30
0.0
 10
156.226124
 20
153.503402
 30
0.0
 10
155.967859
 20
152.945272
 30
0.0
 10
149.707510
 20
144.328639
 30
0.0
 10
149.707510
 20
141.732590
 30
0.0
 10
152.176499
 20
140.930365
 30
0.0
 10
162.305958
 20
144.221629
 30
0.0
 10
162.756469
 20
144.298821
 30
0.0
 10
163.210301
 20
144.244452
 30
0.0
 10
163.629829
 20
144.063029
 30
0.0
 10
164.080836
 20
143.644935
 30
0.0
 10
170.644373
 20
134.611002
 30
0.0
 10
170.857003
 20
134.206393
 30
0.0
 10
170.945537
 20
133.757974
 30
0.0
 10
170.902638
 20
133.302915
 30
0.0
 10
170.644373
 20
132.744784
 30
0.0
 10
164.384022
 20
124.128154
 30
0.0
 10
164.384022
 20
113.993216
 30
0.0
 10
170.644373
 20
105.376583
 30
0.0
 10
170.857003
 20
104.971974
 30
0.0
 10
170.945537
 20
104.523556
 30
0.0
 10
170.902638
 20
104.068496
 30
0.0
 10
170.644373
 20
103.510366
 30
0.0
 10
164.080836
 20
94.476432
 30
0.0
 10
163.761737
 20
94.149177
 30
0.0
 10
163.362621
 20
93.926406
 30
0.0
 10
162.916579
 20
93.826587
 30
0.0
 10
162.305958
 20
93.899739
 30
0.0
 10
152.176499
 20
97.191002
 30
0.0
 10
149.707510
 20
96.388777
 30
0.0
 10
149.707510
 20
93.792728
 30
0.0
 10
155.967859
 20
85.176095
 30
0.0
 10
156.180488
 20
84.771487
 30
0.0
 10
156.269023
 20
84.323068
 30
0.0
 10
156.226124
 20
83.868009
 30
0.0
 10
155.967859
 20
83.309878
 30
0.0
 10
149.404324
 20
74.275947
 30
0.0
 10
149.085226
 20
73.948692
 30
0.0
 10
148.686110
 20
73.725924
 30
0.0
 10
148.240067
 20
73.626102
 30
0.0
 10
147.629446
 20
73.699254
 30
0.0
 10
137.499984
 20
76.990514
 30
0.0
 10
127.861089
 20
73.858647
 30
0.0
 10
121.600738
 20
65.242014
 30
0.0
 10
121.281640
 20
64.914759
 30
0.0
 10
120.882524
 20
64.691988
 30
0.0
 10
120.436481
 20
64.592168
 30
0.0
 10
119.825860
 20
64.665320
 30
0.0
 10
109.205837
 20
68.115976
 30
0.0
 10
108.795992
 20
68.318330
 30
0.0
 10
108.460791
 20
68.629072
 30
0.0
 10
108.228022
 20
69.022439
 30
0.0
 10
108.108901
 20
69.625779
 30
0.0
 10
108.108901
 20
80.276525
 30
0.0
 10
106.582983
 20
82.376769
 30
0.0
 10
104.113991
 20
81.574545
 30
0.0
 10
97.853640
 20
72.957915
 30
0.0
 10
97.534542
 20
72.630660
 30
0.0
 10
97.135426
 20
72.407888
 30
0.0
 10
96.689384
 20
72.308069
 30
0.0
 10
96.078762
 20
72.381221
 30
0.0
 10
85.458739
 20
75.831875
 30
0.0
 10
85.048894
 20
76.034228
 30
0.0
 10
84.713694
 20
76.344971
 30
0.0
 10
84.480924
 20
76.738337
 30
0.0
 10
84.361803
 20
77.341677
 30
0.0
 10
84.361803
 20
87.992424
 30
0.0
 10
78.404638
 20
96.191755
 30
0.0
 10
68.275179
 20
99.483016
 30
0.0
 10
67.865334
 20
99.685369
 30
0.0
 10
67.530133
 20
99.996112
 30
0.0
 10
67.297363
 20
100.389478
 30
0.0
 10
67.178243
 20
100.992818
 30
0.0
 10
67.178243
 20
112.159375
 30
0.0
 10
67.244045
 20
112.611691
 30
0.0
 10
67.435992
 20
113.026510
 30
0.0
 10
67.738178
 20
113.369445
 30
0.0
 10
68.275179
 20
113.669178
 30
0.0
 10
78.404638
 20
116.960438
 30
0.0
 10
79.930556
 20
119.060685
 30
0.0
 10
78.404638
 20
121.160929
 30
0.0
 10
68.275179
 20
124.452192
 30
0.0
 10
67.865334
 20
124.654545
 30
0.0
 10
67.530133
 20
124.965288
 30
0.0
 10
67.297363
 20
125.358655
 30
0.0
 10
67.178243
 20
125.961995
 30
0.0
 10
67.178243
 20
137.128549
 30
0.0
 10
67.244045
 20
137.580865
 30
0.0
 10
67.435992
 20
137.995684
 30
0.0
 10
67.738178
 20
138.338618
 30
0.0
 10
68.275179
 20
138.638351
 30
0.0
 10
78.404638
 20
141.929615
 30
0.0
 10
84.361803
 20
150.128944
 30
0.0
 10
84.361803
 20
160.779690
 30
0.0
 10
84.427605
 20
161.232006
 30
0.0
 10
84.619552
 20
161.646825
 30
0.0
 10
84.921738
 20
161.989759
 30
0.0
 10
85.458739
 20
162.289493
 30
0.0
 10
96.078762
 20
165.740149
 30
0.0
 10
96.529274
 20
165.817341
 30
0.0
 10
96.983105
 20
165.762972
 30
0.0
 10
97.402634
 20
165.581550
 30
0.0
 10
97.853640
 20
165.163455
 30
0.0
 10
104.113991
 20
156.546823
 30
0.0
 10
106.582983
 20
155.744598
 30
0.0
 10
108.108901
 20
157.844845
 30
0.0
 10
108.108901
 20
168.495591
 30
0.0
 10
108.174703
 20
168.947907
 30
0.0
 10
108.366650
 20
169.362726
 30
0.0
 10
108.668836
 20
169.705660
 30
0.0
 10
109.205837
 20
170.005394
 30
0.0
 10
119.825860
 20
173.456047
 30
0.0
 10
120.276371
 20
173.533239
 30
0.0
  0
LWPOLYLINE
  5
101
100
AcDbEntity
  8
Layer_4
 62
7
100
AcDbPolyline
 90
5
 70
1
 10
111.283901
 20
79.638946
 30
0.0
 10
111.283901
 20
70.779164
 30
0.0
 10
119.710054
 20
68.041340
 30
0.0
 10
124.917703
 20
75.209056
 30
0.0
 10
119.710054
 20
82.376769
 30
0.0
  0
LWPOLYLINE
  5
102
100
AcDbEntity
  8
Layer_4
 62
7
100
AcDbPolyline
 90
5
 70
1
 10
87.536803
 20
87.354847
 30
0.0
 10
87.536803
 20
78.495065
 30
0.0
 10
95.962957
 20
75.757241
 30
0.0
 10
101.170605
 20
82.924954
 30
0.0
 10
95.962957
 20
90.092670
 30
0.0
  0
LWPOLYLINE
  5
103
100
AcDbEntity
  8
Layer_4
 62
7
100
AcDbPolyline
 90
5
 70
1
 10
122.278682
 20
84.242987
 30
0.0
 10
127.486331
 20
77.075273
 30
0.0
 10
135.912484
 20
79.813097
 30
0.0
 10
135.912484
 20
88.672879
 30
0.0
 10
127.486331
 20
91.410703
 30
0.0
  0
LWPOLYLINE
  5
104
100
AcDbEntity
  8
Layer_4
 62
7
100
AcDbPolyline
 90
5
 70
1
 10
139.087484
 20
88.672876
 30
0.0
 10
139.087484
 20
79.813097
 30
0.0
 10
147.513641
 20
77.075273
 30
0.0
 10
152.721289
 20
84.242987
 30
0.0
 10
147.513641
 20
91.410703
 30
0.0
  0
LWPOLYLINE
  5
105
100
AcDbEntity
  8
Layer_4
 62
7
100
AcDbPolyline
 90
57
 70
1
 10
132.220764
 20
97.927089
 30
0.0
 10
132.088903
 20
97.791857
 30
0.0
 10
131.964015
 20
97.650128
 30
0.0
 10
131.929828
 20
97.628723
 30
0.0
 10
131.901666
 20
97.599841
 30
0.0
 10
131.790133
 20
97.541228
 30
0.0
 10
131.576646
 20
97.407516
 30
0.0
 10
131.489894
 20
97.383439
 30
0.0
 10
131.427014
 20
97.350392
 30
0.0
 10
120.806988
 20
93.899736
 30
0.0
 10
120.738553
 20
93.888015
 30
0.0
 10
120.673850
 20
93.862800
 30
0.0
 10
120.514282
 20
93.849571
 30
0.0
 10
120.356477
 20
93.822533
 30
0.0
 10
120.287529
 20
93.830788
 30
0.0
 10
120.218332
 20
93.825047
 30
0.0
 10
120.019284
 20
93.862914
 30
0.0
 10
119.902645
 20
93.876884
 30
0.0
 10
119.868725
 20
93.891542
 30
0.0
 10
119.825860
 20
93.899691
 30
0.0
 10
115.340387
 20
95.357109
 30
0.0
 10
115.340387
 20
86.375563
 30
0.0
 10
115.274585
 20
85.923247
 30
0.0
 10
115.082638
 20
85.508428
 30
0.0
 10
114.780452
 20
85.165494
 30
0.0
 10
114.393083
 20
84.922873
 30
0.0
 10
114.299021
 20
84.896785
 30
0.0
 10
114.243451
 20
84.865768
 30
0.0
 10
109.757980
 20
83.408351
 30
0.0
 10
110.302770
 20
82.658511
 30
0.0
 10
119.335296
 20
85.593357
 30
0.0
 10
125.595647
 20
94.209989
 30
0.0
 10
125.914745
 20
94.537244
 30
0.0
 10
126.313861
 20
94.760015
 30
0.0
 10
126.759904
 20
94.859835
 30
0.0
 10
127.370525
 20
94.786683
 30
0.0
 10
137.499984
 20
91.495420
 30
0.0
 10
146.532510
 20
94.430268
 30
0.0
 10
146.532510
 20
95.357117
 30
0.0
 10
142.047037
 20
93.899699
 30
0.0
 10
141.899989
 20
93.874511
 30
0.0
 10
141.756228
 20
93.834627
 30
0.0
 10
141.675808
 20
93.836215
 30
0.0
 10
141.596525
 20
93.822642
 30
0.0
 10
141.448393
 20
93.840395
 30
0.0
 10
141.299229
 20
93.843120
 30
0.0
 10
141.222558
 20
93.867436
 30
0.0
 10
141.142694
 20
93.877014
 30
0.0
 10
141.005766
 20
93.936227
 30
0.0
 10
140.863553
 20
93.981347
 30
0.0
 10
140.796986
 20
94.026514
 30
0.0
 10
140.723165
 20
94.058436
 30
0.0
 10
140.650079
 20
94.126188
 30
0.0
 10
140.485320
 20
94.237977
 30
0.0
 10
140.346623
 20
94.407498
 30
0.0
 10
140.272159
 20
94.476530
 30
0.0
 10
134.992935
 20
101.742756
 30
0.0
  0
LWPOLYLINE
  5
106
100
AcDbEntity
  8
Layer_4
 62
7
100
AcDbPolyline
 90
65
 70
1
 10
81.348024
 20
115.610029
 30
0.0
 10
86.930431
 20
107.926508
 30
0.0
 10
97.059890
 20
104.635244
 30
0.0
 10
97.469735
 20
104.432891
 30
0.0
 10
97.804936
 20
104.122149
 30
0.0
 10
98.037706
 20
103.728782
 30
0.0
 10
98.156826
 20
103.125442
 30
0.0
 10
98.156826
 20
92.474695
 30
0.0
 10
103.739233
 20
84.791172
 30
0.0
 10
104.620724
 20
85.077586
 30
0.0
 10
101.848550
 20
88.893155
 30
0.0
 10
101.816249
 20
88.954621
 30
0.0
 10
101.772278
 20
89.008363
 30
0.0
 10
101.710403
 20
89.156029
 30
0.0
 10
101.635920
 20
89.297761
 30
0.0
 10
101.622479
 20
89.365886
 30
0.0
 10
101.595645
 20
89.429929
 30
0.0
 10
101.578394
 20
89.589105
 30
0.0
 10
101.547382
 20
89.746182
 30
0.0
 10
101.553891
 20
89.815315
 30
0.0
 10
101.546403
 20
89.884348
 30
0.0
 10
101.575232
 20
90.041831
 30
0.0
 10
101.590261
 20
90.201242
 30
0.0
 10
101.613676
 20
90.251854
 30
0.0
 10
101.628705
 20
90.333954
 30
0.0
 10
101.835701
 20
90.741471
 30
0.0
 10
101.844565
 20
90.750811
 30
0.0
 10
101.848534
 20
90.759383
 30
0.0
 10
107.127754
 20
98.025609
 30
0.0
 10
102.642284
 20
99.483026
 30
0.0
 10
102.472887
 20
99.566661
 30
0.0
 10
102.299540
 20
99.641626
 30
0.0
 10
102.275013
 20
99.664353
 30
0.0
 10
102.232431
 20
99.685388
 30
0.0
 10
101.897230
 20
99.996130
 30
0.0
 10
101.873047
 20
100.036992
 30
0.0
 10
101.848520
 20
100.059720
 30
0.0
 10
95.284983
 20
109.093654
 30
0.0
 10
95.234099
 20
109.190483
 30
0.0
 10
95.169186
 20
109.278536
 30
0.0
 10
95.128334
 20
109.391738
 30
0.0
 10
95.072353
 20
109.498262
 30
0.0
 10
95.056505
 20
109.590800
 30
0.0
 10
95.014039
 20
109.708476
 30
0.0
 10
95.002794
 20
109.904310
 30
0.0
 10
94.981813
 20
110.026762
 30
0.0
 10
94.981813
 20
114.743066
 30
0.0
 10
86.439854
 20
111.967616
 30
0.0
 10
86.292806
 20
111.942428
 30
0.0
 10
86.149045
 20
111.902544
 30
0.0
 10
86.068625
 20
111.904132
 30
0.0
 10
85.989343
 20
111.890559
 30
0.0
 10
85.841210
 20
111.908312
 30
0.0
 10
85.692046
 20
111.911037
 30
0.0
 10
85.615375
 20
111.935353
 30
0.0
 10
85.535511
 20
111.944931
 30
0.0
 10
85.398584
 20
112.004144
 30
0.0
 10
85.256370
 20
112.049264
 30
0.0
 10
85.189803
 20
112.094431
 30
0.0
 10
85.115982
 20
112.126353
 30
0.0
 10
85.042896
 20
112.194105
 30
0.0
 10
84.878138
 20
112.305894
 30
0.0
 10
84.739440
 20
112.475415
 30
0.0
 10
84.664976
 20
112.544447
 30
0.0
 10
81.892801
 20
116.360017
 30
0.0
  0
LWPOLYLINE
  5
107
100
AcDbEntity
  8
Layer_4
 62
7
100
AcDbPolyline
 90
5
 70
1
 10
105.095122
 20
89.826264
 30
0.0
 10
107.795721
 20
86.109207
 30
0.0
 10
112.165387
 20
87.528995
 30
0.0
 10
112.165387
 20
96.388777
 30
0.0
 10
110.302770
 20
96.993977
 30
0.0
  0
LWPOLYLINE
  5
108
100
AcDbEntity
  8
Layer_4
 62
7
100
AcDbPolyline
 90
5
 70
1
 10
81.348022
 20
97.542165
 30
0.0
 10
86.555673
 20
90.374449
 30
0.0
 10
94.981826
 20
93.112272
 30
0.0
 10
94.981826
 20
101.972057
 30
0.0
 10
86.555673
 20
104.709881
 30
0.0
  0
LWPOLYLINE
  5
109
100
AcDbEntity
  8
Layer_4
 62
7
100
AcDbPolyline
 90
70
 70
1
 10
115.037201
 20
132.744784
 30
0.0
 10
114.718103
 20
132.417529
 30
0.0
 10
114.318987
 20
132.194758
 30
0.0
 10
113.872944
 20
132.094938
 30
0.0
 10
113.262323
 20
132.168090
 30
0.0
 10
103.739233
 20
135.262332
 30
0.0
 10
98.531585
 20
128.094616
 30
0.0
 10
104.417178
 20
119.993794
 30
0.0
 10
104.462964
 20
119.906666
 30
0.0
 10
104.522466
 20
119.828254
 30
0.0
 10
104.540087
 20
119.759918
 30
0.0
 10
104.629810
 20
119.589188
 30
0.0
 10
104.718345
 20
119.140766
 30
0.0
 10
104.713344
 20
119.087868
 30
0.0
 10
104.720356
 20
119.060685
 30
0.0
 10
104.693164
 20
118.873773
 30
0.0
 10
104.675437
 20
118.685707
 30
0.0
 10
104.661388
 20
118.655354
 30
0.0
 10
104.654562
 20
118.608369
 30
0.0
 10
104.462614
 20
118.193550
 30
0.0
 10
104.431219
 20
118.157921
 30
0.0
 10
104.417170
 20
118.127576
 30
0.0
 10
98.531574
 20
110.026752
 30
0.0
 10
103.739225
 20
102.859036
 30
0.0
 10
113.262315
 20
105.953277
 30
0.0
 10
113.712826
 20
106.030469
 30
0.0
 10
114.166658
 20
105.976100
 30
0.0
 10
114.586187
 20
105.794678
 30
0.0
 10
115.037193
 20
105.376583
 30
0.0
 10
120.922785
 20
97.275758
 30
0.0
 10
129.348942
 20
100.013585
 30
0.0
 10
129.348942
 20
110.026752
 30
0.0
 10
129.353149
 20
110.055729
 30
0.0
 10
129.350000
 20
110.084836
 30
0.0
 10
129.385975
 20
110.281352
 30
0.0
 10
129.414738
 20
110.479067
 30
0.0
 10
129.427041
 20
110.505640
 30
0.0
 10
129.432307
 20
110.534442
 30
0.0
 10
129.522784
 20
110.712562
 30
0.0
 10
129.606686
 20
110.893886
 30
0.0
 10
129.626053
 20
110.915847
 30
0.0
 10
129.639309
 20
110.941961
 30
0.0
 10
129.776770
 20
111.086905
 30
0.0
 10
129.908877
 20
111.236824
 30
0.0
 10
129.930282
 20
111.248783
 30
0.0
 10
129.953829
 20
111.273627
 30
0.0
 10
130.349815
 20
111.501912
 30
0.0
 10
130.409077
 20
111.516041
 30
0.0
 10
130.445867
 20
111.536573
 30
0.0
 10
139.968954
 20
114.630811
 30
0.0
 10
139.968954
 20
123.490593
 30
0.0
 10
130.445867
 20
126.584832
 30
0.0
 10
130.347778
 20
126.633261
 30
0.0
 10
130.243511
 20
126.666342
 30
0.0
 10
130.143930
 20
126.733909
 30
0.0
 10
130.036022
 20
126.787185
 30
0.0
 10
129.955803
 20
126.861551
 30
0.0
 10
129.865279
 20
126.922972
 30
0.0
 10
129.789071
 20
127.016118
 30
0.0
 10
129.700822
 20
127.097928
 30
0.0
 10
129.645116
 20
127.192069
 30
0.0
 10
129.575846
 20
127.276733
 30
0.0
 10
129.529340
 20
127.387723
 30
0.0
 10
129.468052
 20
127.491294
 30
0.0
 10
129.452124
 20
127.572027
 30
0.0
 10
129.399213
 20
127.698299
 30
0.0
 10
129.365227
 20
128.012150
 30
0.0
 10
129.348928
 20
128.094634
 30
0.0
 10
129.348928
 20
138.107801
 30
0.0
 10
120.922772
 20
140.845627
 30
0.0
  0
LWPOLYLINE
  5
10a
100
AcDbEntity
  8
Layer_4
 62
7
100
AcDbPolyline
 90
5
 70
1
 10
136.955194
 20
104.443474
 30
0.0
 10
142.162842
 20
97.275758
 30
0.0
 10
146.532510
 20
98.695550
 30
0.0
 10
146.532510
 20
103.290087
 30
0.0
 10
138.106356
 20
106.027913
 30
0.0
  0
LWPOLYLINE
  5
10b
100
AcDbEntity
  8
Layer_4
 62
7
100
AcDbPolyline
 90
5
 70
1
 10
153.763999
 20
108.873367
 30
0.0
 10
153.763999
 20
100.013582
 30
0.0
 10
162.190152
 20
97.275758
 30
0.0
 10
167.397803
 20
104.443474
 30
0.0
 10
162.190152
 20
111.611190
 30
0.0
  0
LWPOLYLINE
  5
10c
100
AcDbEntity
  8
Layer_4
 62
7
100
AcDbPolyline
 90
3
 70
1
 10
108.270119
 20
100.992818
 30
0.0
 10
116.160296
 20
98.429146
 30
0.0
 10
113.146517
 20
102.577257
 30
0.0
  0
LWPOLYLINE
  5
10d
100
AcDbEntity
  8
Layer_4
 62
7
100
AcDbPolyline
 90
5
 70
1
 10
70.353243
 20
111.005988
 30
0.0
 10
70.353243
 20
102.146206
 30
0.0
 10
78.779396
 20
99.408382
 30
0.0
 10
83.987045
 20
106.576098
 30
0.0
 10
78.779396
 20
113.743811
 30
0.0
  0
LWPOLYLINE
  5
10e
100
AcDbEntity
  8
Layer_4
 62
7
100
AcDbPolyline
 90
52
 70
1
 10
149.707510
 20
133.677893
 30
0.0
 10
149.641708
 20
133.225577
 30
0.0
 10
149.449761
 20
132.810758
 30
0.0
 10
149.147575
 20
132.467824
 30
0.0
 10
148.760206
 20
132.225203
 30
0.0
 10
148.666144
 20
132.199115
 30
0.0
 10
148.610574
 20
132.168098
 30
0.0
 10
140.068612
 20
129.392648
 30
0.0
 10
142.840787
 20
125.577079
 30
0.0
 10
142.928650
 20
125.409886
 30
0.0
 10
143.024852
 20
125.247310
 30
0.0
 10
143.034642
 20
125.208176
 30
0.0
 10
143.053401
 20
125.172470
 30
0.0
 10
143.074673
 20
125.048293
 30
0.0
 10
143.135871
 20
124.803927
 30
0.0
 10
143.131955
 20
124.713989
 30
0.0
 10
143.143941
 20
124.643970
 30
0.0
 10
143.143941
 20
113.477416
 30
0.0
 10
143.128198
 20
113.369169
 30
0.0
 10
143.128992
 20
113.259777
 30
0.0
 10
143.095504
 20
113.144181
 30
0.0
 10
143.078174
 20
113.025100
 30
0.0
 10
143.036608
 20
112.940915
 30
0.0
 10
143.001796
 20
112.820754
 30
0.0
 10
142.895788
 20
112.655702
 30
0.0
 10
142.840789
 20
112.544307
 30
0.0
 10
140.068615
 20
108.728738
 30
0.0
 10
148.610577
 20
105.953285
 30
0.0
 10
148.734563
 20
105.892068
 30
0.0
 10
148.864727
 20
105.845464
 30
0.0
 10
148.938440
 20
105.791407
 30
0.0
 10
149.020422
 20
105.750932
 30
0.0
 10
149.121828
 20
105.656922
 30
0.0
 10
149.233316
 20
105.575166
 30
0.0
 10
149.288577
 20
105.502342
 30
0.0
 10
149.355622
 20
105.440189
 30
0.0
 10
149.426036
 20
105.321195
 30
0.0
 10
149.509615
 20
105.211052
 30
0.0
 10
149.523823
 20
105.155936
 30
0.0
 10
149.588389
 20
105.046822
 30
0.0
 10
149.707510
 20
104.443482
 30
0.0
 10
149.707510
 20
99.727179
 30
0.0
 10
150.588999
 20
100.013593
 30
0.0
 10
150.588999
 20
109.510952
 30
0.0
 10
144.328647
 20
118.127584
 30
0.0
 10
144.116018
 20
118.532193
 30
0.0
 10
144.027483
 20
118.980611
 30
0.0
 10
144.070382
 20
119.435671
 30
0.0
 10
144.328647
 20
119.993802
 30
0.0
 10
150.588999
 20
128.610431
 30
0.0
 10
150.588999
 20
138.107790
 30
0.0
 10
149.707510
 20
138.394205
 30
0.0
  0
LWPOLYLINE
  5
10f
100
AcDbEntity
  8
Layer_4
 62
7
100
AcDbPolyline
 90
3
 70
1
 10
132.523950
 20
108.873367
 30
0.0
 10
132.523950
 20
103.746020
 30
0.0
 10
137.400345
 20
110.457803
 30
0.0
  0
LWPOLYLINE
  5
110
100
AcDbEntity
  8
Layer_4
 62
7
100
AcDbPolyline
 90
5
 70
1
 10
147.575220
 20
119.060685
 30
0.0
 10
152.782868
 20
111.892969
 30
0.0
 10
161.209022
 20
114.630793
 30
0.0
 10
161.209022
 20
123.490575
 30
0.0
 10
152.782868
 20
126.228398
 30
0.0
  0
LWPOLYLINE
  5
111
100
AcDbEntity
  8
Layer_4
 62
7
100
AcDbPolyline
 90
3
 70
1
 10
98.156826
 20
114.912574
 30
0.0
 10
101.170605
 20
119.060685
 30
0.0
 10
98.156826
 20
123.208796
 30
0.0
  0
LWPOLYLINE
  5
112
100
AcDbEntity
  8
Layer_4
 62
7
100
AcDbPolyline
 90
5
 70
1
 10
83.855071
 20
119.060685
 30
0.0
 10
86.555673
 20
115.343625
 30
0.0
 10
94.981826
 20
118.081449
 30
0.0
 10
94.981826
 20
120.039921
 30
0.0
 10
86.555673
 20
122.777745
 30
0.0
  0
LWPOLYLINE
  5
113
100
AcDbEntity
  8
Layer_4
 62
7
100
AcDbPolyline
 90
68
 70
1
 10
98.156826
 20
145.646674
 30
0.0
 10
98.156826
 20
134.995928
 30
0.0
 10
98.091024
 20
134.543612
 30
0.0
 10
97.899077
 20
134.128793
 30
0.0
 10
97.596891
 20
133.785859
 30
0.0
 10
97.059890
 20
133.486125
 30
0.0
 10
86.930431
 20
130.194862
 30
0.0
 10
81.348024
 20
122.511338
 30
0.0
 10
81.892815
 20
121.761499
 30
0.0
 10
84.664989
 20
125.577071
 30
0.0
 10
84.816963
 20
125.732929
 30
0.0
 10
84.966702
 20
125.890816
 30
0.0
 10
84.976332
 20
125.896373
 30
0.0
 10
84.984111
 20
125.904337
 30
0.0
 10
85.174267
 20
126.010474
 30
0.0
 10
85.362711
 20
126.119112
 30
0.0
 10
85.373506
 20
126.121758
 30
0.0
 10
85.383217
 20
126.127182
 30
0.0
 10
85.595680
 20
126.174728
 30
0.0
 10
85.807317
 20
126.225184
 30
0.0
 10
85.818403
 20
126.224654
 30
0.0
 10
85.829251
 20
126.227036
 30
0.0
 10
85.875876
 20
126.221453
 30
0.0
 10
86.263697
 20
126.200128
 30
0.0
 10
86.369258
 20
126.162332
 30
0.0
 10
86.439872
 20
126.153865
 30
0.0
 10
94.981832
 20
123.378412
 30
0.0
 10
94.981832
 20
128.094716
 30
0.0
 10
95.009023
 20
128.281628
 30
0.0
 10
95.026750
 20
128.469694
 30
0.0
 10
95.041831
 20
128.507117
 30
0.0
 10
95.047652
 20
128.547032
 30
0.0
 10
95.103426
 20
128.659998
 30
0.0
 10
95.197552
 20
128.893668
 30
0.0
 10
95.253588
 20
128.964129
 30
0.0
 10
95.285036
 20
129.027825
 30
0.0
 10
101.848573
 20
138.061758
 30
0.0
 10
101.897048
 20
138.111473
 30
0.0
 10
101.934574
 20
138.169899
 30
0.0
 10
102.055893
 20
138.274377
 30
0.0
 10
102.167671
 20
138.389013
 30
0.0
 10
102.228306
 20
138.422859
 30
0.0
 10
102.280918
 20
138.468166
 30
0.0
 10
102.464201
 20
138.554524
 30
0.0
 10
102.566788
 20
138.611785
 30
0.0
 10
102.602858
 20
138.619854
 30
0.0
 10
102.642323
 20
138.638455
 30
0.0
 10
107.127794
 20
140.095872
 30
0.0
 10
101.848573
 20
147.362098
 30
0.0
 10
101.816273
 20
147.423561
 30
0.0
 10
101.772302
 20
147.477305
 30
0.0
 10
101.710424
 20
147.624980
 30
0.0
 10
101.635944
 20
147.766707
 30
0.0
 10
101.622503
 20
147.834826
 30
0.0
 10
101.595666
 20
147.898871
 30
0.0
 10
101.578415
 20
148.058050
 30
0.0
 10
101.547403
 20
148.215125
 30
0.0
 10
101.553912
 20
148.284258
 30
0.0
 10
101.546425
 20
148.353291
 30
0.0
 10
101.575254
 20
148.510773
 30
0.0
 10
101.590282
 20
148.670185
 30
0.0
 10
101.613697
 20
148.720797
 30
0.0
 10
101.628726
 20
148.802897
 30
0.0
 10
101.835723
 20
149.210414
 30
0.0
 10
101.844586
 20
149.219753
 30
0.0
 10
101.848555
 20
149.228326
 30
0.0
 10
104.620729
 20
153.043895
 30
0.0
 10
103.739238
 20
153.330309
 30
0.0
  0
LWPOLYLINE
  5
114
100
AcDbEntity
  8
Layer_4
 62
7
100
AcDbPolyline
 90
5
 70
1
 10
70.353243
 20
135.975164
 30
0.0
 10
70.353243
 20
127.115380
 30
0.0
 10
78.779396
 20
124.377556
 30
0.0
 10
83.987047
 20
131.545272
 30
0.0
 10
78.779396
 20
138.712988
 30
0.0
  0
LWPOLYLINE
  5
115
100
AcDbEntity
  8
Layer_4
 62
7
100
AcDbPolyline
 90
5
 70
1
 10
153.763999
 20
138.107785
 30
0.0
 10
153.763999
 20
129.248003
 30
0.0
 10
162.190152
 20
126.510180
 30
0.0
 10
167.397800
 20
133.677893
 30
0.0
 10
162.190152
 20
140.845609
 30
0.0
  0
LWPOLYLINE
  5
116
100
AcDbEntity
  8
Layer_4
 62
7
100
AcDbPolyline
 90
3
 70
1
 10
132.523950
 20
129.248003
 30
0.0
 10
137.400345
 20
127.663564
 30
0.0
 10
132.523950
 20
134.375348
 30
0.0
  0
LWPOLYLINE
  5
117
100
AcDbEntity
  8
Layer_4
 62
7
100
AcDbPolyline
 90
5
 70
1
 10
136.955194
 20
133.677895
 30
0.0
 10
138.106354
 20
132.093457
 30
0.0
 10
146.532510
 20
134.831280
 30
0.0
 10
146.532510
 20
139.425818
 30
0.0
 10
142.162842
 20
140.845609
 30
0.0
  0
LWPOLYLINE
  5
118
100
AcDbEntity
  8
Layer_4
 62
7
100
AcDbPolyline
 90
5
 70
1
 10
81.348024
 20
140.579205
 30
0.0
 10
86.555673
 20
133.411489
 30
0.0
 10
94.981826
 20
136.149313
 30
0.0
 10
94.981826
 20
145.009095
 30
0.0
 10
86.555673
 20
147.746918
 30
0.0
  0
LWPOLYLINE
  5
119
100
AcDbEntity
  8
Layer_4
 62
7
100
AcDbPolyline
 90
3
 70
1
 10
108.270119
 20
137.128549
 30
0.0
 10
113.146517
 20
135.544110
 30
0.0
 10
116.160296
 20
139.692221
 30
0.0
  0
LWPOLYLINE
  5
11a
100
AcDbEntity
  8
Layer_4
 62
7
100
AcDbPolyline
 90
62
 70
1
 10
109.757980
 20
154.712980
 30
0.0
 10
114.243451
 20
153.255562
 30
0.0
 10
114.367437
 20
153.194345
 30
0.0
 10
114.497601
 20
153.147742
 30
0.0
 10
114.571314
 20
153.093685
 30
0.0
 10
114.653295
 20
153.053209
 30
0.0
 10
114.754702
 20
152.959200
 30
0.0
 10
114.866190
 20
152.877443
 30
0.0
 10
114.921451
 20
152.804619
 30
0.0
 10
114.988496
 20
152.742466
 30
0.0
 10
115.058910
 20
152.623472
 30
0.0
 10
115.142489
 20
152.513329
 30
0.0
 10
115.156697
 20
152.458214
 30
0.0
 10
115.221263
 20
152.349099
 30
0.0
 10
115.340384
 20
151.745759
 30
0.0
 10
115.340384
 20
142.764211
 30
0.0
 10
119.825857
 20
144.221629
 30
0.0
 10
120.012018
 20
144.253527
 30
0.0
 10
120.196364
 20
144.294781
 30
0.0
 10
120.236612
 20
144.292002
 30
0.0
 10
120.276369
 20
144.298829
 30
0.0
 10
120.401043
 20
144.280678
 30
0.0
 10
120.652360
 20
144.263375
 30
0.0
 10
120.736691
 20
144.231855
 30
0.0
 10
120.806985
 20
144.221642
 30
0.0
 10
131.427011
 20
140.770986
 30
0.0
 10
131.525100
 20
140.722556
 30
0.0
 10
131.629367
 20
140.689476
 30
0.0
 10
131.728948
 20
140.621909
 30
0.0
 10
131.836856
 20
140.568632
 30
0.0
 10
131.904079
 20
140.503084
 30
0.0
 10
132.007599
 20
140.432846
 30
0.0
 10
132.131816
 20
140.281020
 30
0.0
 10
132.220761
 20
140.194292
 30
0.0
 10
134.992933
 20
136.378722
 30
0.0
 10
140.272156
 20
143.644948
 30
0.0
 10
140.424130
 20
143.800806
 30
0.0
 10
140.573868
 20
143.958694
 30
0.0
 10
140.583499
 20
143.964250
 30
0.0
 10
140.591252
 20
143.972214
 30
0.0
 10
140.781408
 20
144.078351
 30
0.0
 10
140.969852
 20
144.186989
 30
0.0
 10
140.980647
 20
144.189635
 30
0.0
 10
140.990357
 20
144.195059
 30
0.0
 10
141.202820
 20
144.242605
 30
0.0
 10
141.414458
 20
144.293061
 30
0.0
 10
141.425544
 20
144.292532
 30
0.0
 10
141.436392
 20
144.294913
 30
0.0
 10
141.483016
 20
144.289330
 30
0.0
 10
141.870837
 20
144.268005
 30
0.0
 10
141.976398
 20
144.230209
 30
0.0
 10
142.047013
 20
144.221742
 30
0.0
 10
146.532486
 20
142.764325
 30
0.0
 10
146.532486
 20
143.691173
 30
0.0
 10
137.499960
 20
146.626022
 30
0.0
 10
127.370501
 20
143.334759
 30
0.0
 10
126.919990
 20
143.257566
 30
0.0
 10
126.466158
 20
143.311936
 30
0.0
 10
126.046630
 20
143.493358
 30
0.0
 10
125.595623
 20
143.911452
 30
0.0
 10
119.335272
 20
152.528085
 30
0.0
 10
110.302746
 20
155.462933
 30
0.0
  0
LWPOLYLINE
  5
11b
100
AcDbEntity
  8
Layer_4
 62
7
100
AcDbPolyline
 90
5
 70
1
 10
105.095119
 20
148.295103
 30
0.0
 10
110.302770
 20
141.127390
 30
0.0
 10
112.165387
 20
141.732590
 30
0.0
 10
112.165387
 20
150.592372
 30
0.0
 10
107.795721
 20
152.012163
 30
0.0
  0
LWPOLYLINE
  5
11c
100
AcDbEntity
  8
Layer_4
 62
7
100
AcDbPolyline
 90
5
 70
1
 10
122.278680
 20
153.878381
 30
0.0
 10
127.486331
 20
146.710665
 30
0.0
 10
135.912484
 20
149.448488
 30
0.0
 10
135.912484
 20
158.308273
 30
0.0
 10
127.486331
 20
161.046096
 30
0.0
  0
LWPOLYLINE
  5
11d
100
AcDbEntity
  8
Layer_4
 62
7
100
AcDbPolyline
 90
5
 70
1
 10
139.087484
 20
158.308270
 30
0.0
 10
139.087484
 20
149.448491
 30
0.0
 10
147.513641
 20
146.710665
 30
0.0
 10
152.721289
 20
153.878381
 30
0.0
 10
147.513641
 20
161.046096
 30
0.0
  0
LWPOLYLINE
  5
11e
100
AcDbEntity
  8
Layer_4
 62
7
100
AcDbPolyline
 90
5
 70
1
 10
87.536803
 20
159.626305
 30
0.0
 10
87.536803
 20
150.766523
 30
0.0
 10
95.962957
 20
148.028700
 30
0.0
 10
101.170605
 20
155.196413
 30
0.0
 10
95.962957
 20
162.364129
 30
0.0
  0
LWPOLYLINE
  5
11f
100
AcDbEntity
  8
Layer_4
 62
7
100
AcDbPolyline
 90
5
 70
1
 10
111.283901
 20
167.342204
 30
0.0
 10
111.283901
 20
158.482422
 30
0.0
 10
119.710054
 20
155.744598
 30
0.0
 10
124.917703
 20
162.912314
 30
0.0
 10
119.710054
 20
170.080027
 30
0.0
  0
ENDSEC
  0
SECTION
  2
OBJECTS
  0
DICTIONARY
  5
C
330
0
100
AcDbDictionary
  3
ACAD_GROUP
350
D
  3
ACAD_MLINESTYLE
350
17
  0
DICTIONARY
  5
D
330
C
100
AcDbDictionary
  0
DICTIONARY
  5
1A
330
C
100
AcDbDictionary
  0
DICTIONARY
  5
17
330
C
100
AcDbDictionary
  3
STANDARD
350
18
  0
DICTIONARY
  5
19
330
C
100
AcDbDictionary
  0
ENDSEC
  0
EOF
