<svg version="1.1" xmlns="http://www.w3.org/2000/svg" xmlns:xlink="http://www.w3.org/1999/xlink" width="900" height="900"><defs/><g><path fill="#222222" stroke="#cccccc" paint-order="fill stroke markers" d=" M 249.13805 43.95051 L 250.72367 44.6362 L 252.42826 46.2164 L 270.92319 71.67248 L 271.72683 73.2017 L 272.06909 75.19919 L 272.06909 104.71513 L 286.85581 125.0673 L 310.78124 117.29345 L 328.13026 93.41457 L 329.3363 92.1777 L 331.13026 91.23494 L 361.05568 81.51158 L 362.7584 81.21983 L 364.47367 81.42532 L 366.05929 82.11101 L 367.76388 83.69121 L 385.11291 107.57009 L 413.18422 116.69102 L 413.65283 116.92239 L 414.14479 117.09853 L 414.42339 117.30284 L 414.73324 117.45582 L 415.11651 117.81113 L 415.53788 118.12013 L 415.74674 118.39537 L 416.00014 118.63028 L 416.26627 119.08002 L 416.58216 119.49631 L 416.63587 119.70462 L 416.8799 120.11702 L 417.33012 122.39736 L 417.33012 151.9133 L 434.67915 175.79218 L 435.48279 177.3214 L 435.81741 179.01622 L 435.65527 180.73613 L 434.67915 182.8456 L 416.18422 208.30168 L 414.97818 209.53855 L 413.18422 210.48131 L 385.11291 219.60224 L 370.32619 239.95441 L 385.11291 260.30658 L 413.18422 269.42751 L 414.73324 270.19231 L 416.18422 271.60714 L 434.67915 297.06322 L 435.48279 298.59244 L 435.81741 300.28726 L 435.65527 302.00717 L 434.67915 304.11664 L 417.33012 327.99552 L 417.33012 357.51146 L 417.08142 359.221 L 416.35595 360.78882 L 415.21383 362.08495 L 413.74976 363.00194 L 413.39425 363.10057 L 413.18422 363.2178 L 385.11291 372.33873 L 367.76388 396.21761 L 367.26551 396.72872 L 366.79349 397.26439 L 366.66428 397.34532 L 366.55784 397.45448 L 365.93444 397.80244 L 365.32942 398.18138 L 365.18251 398.22214 L 365.04937 398.29645 L 364.35263 398.45237 L 363.66476 398.64321 L 363.51234 398.64042 L 363.36354 398.67372 L 363.00863 398.6312 L 361.93752 398.6116 L 361.38697 398.43693 L 361.05568 398.39724 L 331.13026 388.67388 L 330.75953 388.49084 L 330.36545 388.36581 L 329.98908 388.11044 L 329.58124 387.90908 L 329.32717 387.66134 L 328.93591 387.39587 L 328.46643 386.82204 L 328.13026 386.49425 L 310.78124 362.61537 L 286.85581 354.84152 L 272.06909 375.1937 L 272.06909 404.70963 L 271.82039 406.41917 L 270.92319 408.23634 L 252.42826 433.69242 L 251.22222 434.92929 L 249.71375 435.77126 L 248.02792 436.14853 L 245.72006 435.87205 L 217.64875 426.75113 L 189.57743 435.87205 L 189.02166 435.96728 L 188.47831 436.11802 L 188.17436 436.11246 L 187.87471 436.1638 L 187.31484 436.09673 L 186.75107 436.08641 L 186.46129 435.99447 L 186.15944 435.95831 L 185.64192 435.73451 L 185.10442 435.56398 L 184.85283 435.39327 L 184.57382 435.27262 L 184.29759 435.01655 L 183.67488 434.59404 L 183.15067 433.95333 L 182.86923 433.69242 L 165.5202 409.81354 L 137.44888 400.69261 L 137.07815 400.50957 L 136.68407 400.38454 L 136.3077 400.12917 L 135.89986 399.92781 L 135.59667 399.64674 L 135.25453 399.4146 L 134.9665 399.06255 L 134.63296 398.75335 L 134.42242 398.39754 L 134.16061 398.07755 L 133.98484 397.65806 L 133.7532 397.26661 L 133.69296 396.96148 L 133.49298 396.48423 L 133.36453 395.29802 L 133.30298 394.98627 L 133.30298 363.52083 L 133.31891 363.41131 L 133.307 363.3013 L 133.44297 362.55856 L 133.55168 361.81129 L 133.59632 361.72088 L 133.61808 361.602 L 134.40043 360.06178 L 134.43181 360.02869 L 134.44888 359.99412 L 151.79791 336.11524 L 151.79791 310.95856 L 127.87249 303.18471 L 99.80117 312.30564 L 98.09845 312.59739 L 96.09297 312.30564 L 66.16755 302.58228 L 64.61853 301.81748 L 63.35163 300.64302 L 62.47187 299.15628 L 62.02165 296.87594 L 62.02165 267.36 L 44.67263 243.48112 L 43.86899 241.95189 L 43.53437 240.25708 L 43.69651 238.53717 L 44.67263 236.4277 L 62.02165 212.54882 L 62.02165 183.03288 L 62.03758 182.92336 L 62.02567 182.81335 L 62.16164 182.07061 L 62.27035 181.32334 L 62.31682 181.22291 L 62.33675 181.11405 L 62.67871 180.44084 L 62.99582 179.75552 L 63.06899 179.67249 L 63.1191 179.57383 L 63.63864 179.02601 L 64.13794 178.45939 L 64.21886 178.41422 L 64.30788 178.32036 L 65.80452 177.45755 L 66.0285 177.40415 L 66.16755 177.32654 L 96.09297 167.60318 L 96.75602 167.48957 L 97.41038 167.33357 L 97.60429 167.34423 L 97.79569 167.31143 L 98.27417 167.38104 L 99.13531 167.42836 L 99.50204 167.55966 L 99.80117 167.60318 L 127.87249 176.72411 L 151.79791 168.95026 L 151.79791 143.79359 L 134.44888 119.91471 L 133.64524 118.38549 L 133.30298 116.388 L 133.30298 84.92255 L 133.55168 83.21301 L 134.27715 81.64519 L 135.41927 80.34906 L 137.44888 79.21621 L 165.5202 70.09528 L 182.86923 46.2164 L 183.44362 45.62733 L 184.00956 45.03059 L 184.04592 45.00963 L 184.07527 44.97953 L 184.79397 44.57838 L 185.5062 44.16778 L 185.54704 44.15804 L 185.58374 44.13756 L 186.38675 43.95786 L 187.18664 43.76716 L 187.22857 43.76946 L 187.26957 43.76029 L 187.44579 43.7814 L 188.91157 43.86195 L 189.31054 44.0048 L 189.57743 44.03677 L 217.64875 53.1577 L 245.72006 44.03677 L 247.42278 43.74502 Z M 176.64481 404.70963 L 190.01512 423.11229 L 211.64875 416.0831 L 211.64875 393.33617 L 190.01512 386.30697 Z M 223.64875 390.92642 L 223.64875 416.0831 L 245.28237 423.11229 L 260.06909 402.76012 L 260.06909 377.60345 L 238.43546 370.57425 Z M 145.30298 365.47034 L 145.30298 390.62701 L 166.93661 397.65621 L 181.72333 377.30404 L 181.72333 352.14736 L 160.0897 345.11817 Z M 321.90584 357.51146 L 336.69256 377.86363 L 360.61799 385.63748 L 373.9883 367.23482 L 359.20158 346.88265 L 335.27615 339.1088 Z M 193.72333 349.73761 L 193.72333 374.89429 L 215.35696 381.92349 L 230.14367 361.57132 L 230.14367 336.41464 L 208.51004 329.38544 Z M 242.14367 120.74726 L 242.14367 147.85344 L 241.89497 149.56298 L 241.1695 151.1308 L 240.02738 152.42693 L 237.99777 153.55978 L 208.07235 163.28314 L 206.36963 163.57489 L 204.65436 163.3694 L 203.06874 162.68371 L 201.36415 161.10351 L 185.43154 139.17414 L 163.79791 146.20334 L 163.79791 173.30952 L 163.54921 175.01906 L 162.82374 176.58688 L 161.68162 177.88301 L 159.65201 179.01586 L 133.87249 187.39214 L 133.87249 210.13907 L 159.65201 218.51535 L 160.12062 218.74672 L 160.61258 218.92286 L 160.89118 219.12717 L 161.20103 219.28015 L 161.5843 219.63546 L 162.00567 219.94446 L 162.21453 220.2197 L 162.46793 220.45461 L 162.73406 220.90435 L 163.04995 221.32064 L 163.10366 221.52895 L 163.34769 221.94135 L 163.79791 224.22169 L 163.79791 255.68714 L 163.73839 256.09626 L 163.74126 256.50971 L 163.61468 256.94661 L 163.54921 257.39668 L 163.3756 257.77188 L 163.26054 258.16902 L 163.01474 258.55172 L 162.82374 258.9645 L 162.55039 259.27471 L 162.32697 259.62257 L 161.98234 259.91936 L 161.68162 260.26063 L 161.33119 260.48011 L 161.01794 260.74988 L 160.54376 260.9733 L 160.21755 261.17762 L 159.95633 261.25009 L 159.65201 261.39348 L 133.87249 269.76975 L 133.87249 292.51668 L 159.65201 300.89296 L 160.12062 301.12433 L 160.61258 301.30047 L 160.89118 301.50478 L 161.20103 301.65776 L 161.5843 302.01307 L 162.00567 302.32207 L 162.21453 302.59731 L 162.46793 302.83222 L 162.73406 303.28196 L 163.04995 303.69825 L 163.10366 303.90656 L 163.34769 304.31896 L 163.79791 306.5993 L 163.79791 333.70549 L 185.43154 340.73468 L 201.36415 318.80531 L 201.93854 318.21624 L 202.50448 317.6195 L 202.54084 317.59854 L 202.57019 317.56844 L 203.28877 317.16736 L 204.00112 316.75669 L 204.04198 316.74695 L 204.07865 316.72648 L 204.88139 316.54683 L 205.68156 316.35607 L 205.72349 316.35837 L 205.76449 316.3492 L 205.94071 316.37031 L 207.40649 316.45086 L 207.80546 316.59371 L 208.07235 316.62568 L 237.99777 326.34904 L 238.46638 326.58041 L 238.95834 326.75655 L 239.23694 326.96086 L 239.54679 327.11384 L 239.93006 327.46915 L 240.35143 327.77815 L 240.56029 328.05339 L 240.81369 328.2883 L 241.07982 328.73804 L 241.39571 329.15433 L 241.44942 329.36264 L 241.69345 329.77504 L 242.14367 332.05538 L 242.14367 359.16157 L 263.7773 366.19077 L 279.70992 344.26139 L 280.28431 343.67232 L 280.85025 343.07558 L 280.88661 343.05462 L 280.91596 343.02452 L 281.63454 342.62344 L 282.34689 342.21277 L 282.38775 342.20303 L 282.42442 342.18256 L 283.22716 342.00291 L 284.02733 341.81215 L 284.06926 341.81445 L 284.11026 341.80528 L 284.28648 341.82639 L 285.75226 341.90694 L 286.15123 342.04979 L 286.41812 342.08176 L 312.19765 350.45804 L 325.56796 332.05538 L 309.63534 310.12601 L 309.51326 309.89371 L 309.34707 309.69058 L 309.1132 309.13244 L 308.8317 308.59678 L 308.78087 308.33932 L 308.67944 308.09726 L 308.61429 307.49564 L 308.49708 306.90197 L 308.52171 306.64068 L 308.49346 306.37977 L 308.60242 305.78456 L 308.65922 305.18206 L 308.74773 304.99077 L 308.80454 304.68047 L 309.58689 303.14025 L 309.62036 303.10495 L 309.63534 303.07259 L 328.13026 277.61651 L 328.70465 277.02744 L 329.27059 276.4307 L 329.30695 276.40974 L 329.3363 276.37964 L 330.05488 275.97856 L 330.76723 275.56789 L 330.80809 275.55815 L 330.84476 275.53768 L 331.6475 275.35803 L 332.44767 275.16727 L 332.4896 275.16957 L 332.5306 275.1604 L 332.70682 275.18151 L 334.1726 275.26206 L 334.57157 275.40491 L 334.83846 275.43688 L 360.61799 283.81315 L 373.9883 265.41049 L 358.05568 243.48112 L 357.25204 241.9519 L 356.91742 240.25708 L 357.07956 238.53717 L 358.05568 236.4277 L 373.9883 214.49833 L 360.61799 196.09567 L 334.83846 204.47195 L 334.28269 204.56718 L 333.73934 204.71792 L 333.43539 204.71236 L 333.13574 204.7637 L 332.57587 204.69663 L 332.0121 204.68631 L 331.72232 204.59437 L 331.42047 204.55821 L 330.90295 204.33441 L 330.36545 204.16388 L 330.11386 203.99317 L 329.83485 203.87252 L 329.55862 203.61645 L 328.93591 203.19394 L 328.4117 202.55323 L 328.13026 202.29232 L 309.63534 176.83623 L 309.51326 176.60393 L 309.34707 176.4008 L 309.1132 175.84266 L 308.8317 175.307 L 308.78087 175.04954 L 308.67944 174.80748 L 308.61429 174.20586 L 308.49708 173.61219 L 308.52171 173.3509 L 308.49346 173.08999 L 308.60242 172.49478 L 308.65922 171.89228 L 308.74773 171.70099 L 308.80454 171.39069 L 309.58689 169.85047 L 309.62036 169.81517 L 309.63534 169.78281 L 325.56796 147.85344 L 312.19765 129.45078 L 286.41812 137.82706 L 284.7154 138.11881 L 283.00013 137.91332 L 281.41451 137.22763 L 279.70992 135.64743 L 263.7773 113.71806 Z M 370.32619 341.77874 L 383.6965 360.1814 L 405.33012 353.15221 L 405.33012 330.40527 L 383.6965 323.37608 Z M 321.90584 306.5993 L 336.69256 326.95147 L 360.61799 334.72532 L 373.9883 316.32266 L 359.20158 295.97048 L 335.27615 288.19664 Z M 370.32619 290.86657 L 385.11291 311.21875 L 409.03833 318.99259 L 422.40864 300.58993 L 407.62192 280.23776 L 383.6965 272.46391 Z M 74.02165 269.76975 L 74.02165 292.51668 L 97.94707 300.29053 L 121.87249 292.51668 L 121.87249 269.76975 L 97.94707 261.99591 Z M 103.94707 228.58095 L 103.94707 251.32788 L 127.87249 259.10172 L 151.79791 251.32788 L 151.79791 228.58095 L 127.87249 220.8071 Z M 56.94313 239.95441 L 70.31344 258.35707 L 91.94707 251.32788 L 91.94707 228.58095 L 70.31344 221.55175 Z M 74.02165 187.39214 L 74.02165 210.13907 L 97.94707 217.91292 L 121.87249 210.13907 L 121.87249 187.39214 L 97.94707 179.61829 Z M 385.11291 168.69008 L 370.32619 189.04225 L 383.6965 207.44491 L 407.62192 199.67106 L 422.40864 179.31889 L 409.03833 160.91623 Z M 336.69256 152.95735 L 321.90584 173.30952 L 335.27615 191.71219 L 359.20158 183.93834 L 373.9883 163.58617 L 360.61799 145.1835 Z M 370.32619 138.13008 L 383.6965 156.53275 L 405.33012 149.50356 L 405.33012 126.75661 L 383.6965 119.72742 Z M 193.72333 105.01453 L 193.72333 130.17121 L 208.51004 150.52338 L 230.14367 143.49418 L 230.14367 118.33751 L 215.35696 97.98533 Z M 336.69256 102.04519 L 321.90584 122.39736 L 335.27615 140.80002 L 359.20158 133.02617 L 373.9883 112.674 L 360.61799 94.27134 Z M 145.30298 89.28181 L 145.30298 114.43849 L 160.0897 134.79066 L 181.72333 127.76146 L 181.72333 102.60478 L 166.93661 82.25261 Z M 223.64875 63.82572 L 223.64875 88.9824 L 238.43546 109.33458 L 260.06909 102.30538 L 260.06909 77.1487 L 245.28237 56.79653 Z M 176.64481 75.19919 L 190.01512 93.60185 L 211.64875 86.57265 L 211.64875 63.82573 L 190.01512 56.79653 Z" stroke-miterlimit="10"/><path fill="#222222" stroke="#cccccc" paint-order="fill stroke markers" d=" M 638.24434 37.0024 L 639.82996 37.68809 L 641.53455 39.26829 L 672.78125 82.27569 L 723.33949 65.84832 L 725.04221 65.55657 L 726.75748 65.76206 L 728.3431 66.44775 L 730.04769 68.02795 L 761.29439 111.03535 L 811.85263 94.60799 L 812.51568 94.49438 L 813.17004 94.33838 L 813.36395 94.34904 L 813.55535 94.31624 L 814.22329 94.39626 L 814.89497 94.43317 L 815.0778 94.49863 L 815.27062 94.52173 L 815.88806 94.78874 L 816.5214 95.0155 L 816.678 95.13034 L 816.85624 95.20742 L 817.13312 95.46409 L 817.91449 96.0371 L 818.30176 96.54746 L 818.56083 96.78762 L 852.36984 143.32173 L 852.54289 143.65103 L 852.76778 143.94739 L 852.83437 144.20568 L 853.17348 144.85096 L 853.5081 146.54577 L 853.48925 146.7457 L 853.51574 146.84844 L 853.41297 147.55488 L 853.34596 148.26568 L 853.29287 148.3804 L 853.26704 148.55798 L 852.54157 150.1258 L 852.42291 150.26046 L 852.36984 150.37515 L 821.12313 193.38255 L 852.36984 236.38995 L 852.54289 236.71925 L 852.76778 237.01561 L 852.83437 237.2739 L 853.17348 237.91918 L 853.5081 239.61399 L 853.48925 239.81392 L 853.51574 239.91666 L 853.41297 240.6231 L 853.34596 241.3339 L 853.29287 241.44862 L 853.26704 241.6262 L 852.54157 243.19402 L 852.42291 243.32868 L 852.36984 243.44337 L 821.12313 286.45078 L 852.36984 329.45818 L 853.17348 330.98741 L 853.5081 332.68222 L 853.34596 334.40213 L 852.36984 336.5116 L 818.56083 383.04571 L 817.35479 384.28258 L 815.84632 385.12454 L 814.16049 385.50182 L 811.85263 385.22534 L 761.29439 368.79797 L 730.04769 411.80537 L 728.84165 413.04224 L 727.33318 413.8842 L 725.64735 414.26148 L 723.33949 413.985 L 672.78125 397.55764 L 641.53455 440.56504 L 641.03618 441.07615 L 640.56416 441.61182 L 640.43495 441.69275 L 640.32851 441.80191 L 639.70517 442.14983 L 639.10009 442.52881 L 638.95314 442.56958 L 638.82004 442.64387 L 638.12341 442.79977 L 637.43543 442.99064 L 637.283 442.98785 L 637.13421 443.02115 L 636.7793 442.97863 L 635.70819 442.95903 L 635.15764 442.78436 L 634.82635 442.74467 L 580.12221 424.97022 L 579.75148 424.78718 L 579.3574 424.66215 L 578.98103 424.40678 L 578.57319 424.20542 L 578.27 423.92435 L 577.92786 423.69221 L 577.63983 423.34016 L 577.30629 423.03096 L 577.09575 422.67515 L 576.83394 422.35516 L 576.65817 421.93567 L 576.42653 421.54422 L 576.36629 421.23909 L 576.16631 420.76184 L 576.03786 419.57563 L 575.97631 419.26388 L 575.97631 366.10381 L 525.41808 349.67644 L 525.04735 349.4934 L 524.65327 349.36837 L 524.2769 349.113 L 523.86906 348.91164 L 523.56587 348.63057 L 523.22373 348.39843 L 522.9357 348.04638 L 522.60216 347.73718 L 522.39162 347.38137 L 522.12981 347.06138 L 521.95404 346.64189 L 521.7224 346.25044 L 521.66216 345.94531 L 521.46218 345.46806 L 521.33373 344.28185 L 521.27218 343.9701 L 521.27218 290.81004 L 470.71395 274.38267 L 470.34322 274.19963 L 469.94914 274.0746 L 469.57277 273.81923 L 469.16493 273.61787 L 468.86174 273.3368 L 468.5196 273.10466 L 468.23157 272.75261 L 467.89803 272.44341 L 467.68749 272.0876 L 467.42568 271.76761 L 467.24991 271.34812 L 467.01827 270.95667 L 466.95803 270.65154 L 466.75805 270.17429 L 466.6296 268.98808 L 466.56805 268.67633 L 466.56805 211.157 L 466.58398 211.04748 L 466.57207 210.93747 L 466.70804 210.19473 L 466.81675 209.44746 L 466.86322 209.34703 L 466.88315 209.23817 L 467.22511 208.56496 L 467.54222 207.87964 L 467.61539 207.79661 L 467.6655 207.69795 L 468.18504 207.15013 L 468.68434 206.58351 L 468.76526 206.53834 L 468.85428 206.44448 L 470.35092 205.58167 L 470.5749 205.52827 L 470.71395 205.45066 L 521.27218 189.02329 L 521.27218 135.86322 L 521.28811 135.7537 L 521.2762 135.64369 L 521.41217 134.90095 L 521.52088 134.15368 L 521.56735 134.05325 L 521.58728 133.94439 L 521.92924 133.27118 L 522.24635 132.58586 L 522.31952 132.50283 L 522.36963 132.40417 L 522.88917 131.85635 L 523.38847 131.28973 L 523.46939 131.24456 L 523.55841 131.1507 L 525.05505 130.28789 L 525.27903 130.23449 L 525.41808 130.15688 L 575.97631 113.72951 L 575.97631 60.56945 L 576.22501 58.85991 L 576.95048 57.29209 L 578.0926 55.99596 L 580.12221 54.86311 L 634.82635 37.08866 L 636.52907 36.79691 Z M 587.97631 363.69406 L 587.97631 414.90462 L 634.38866 429.98491 L 664.48946 388.55471 L 664.48946 337.34415 L 618.07712 322.26386 Z M 676.48946 337.34415 L 676.48946 386.14496 L 722.9018 401.22524 L 751.5862 361.74455 L 722.9018 322.26386 Z M 732.60999 315.21044 L 762.7108 356.64064 L 811.41494 372.46558 L 840.09934 332.98489 L 809.99853 291.55469 L 761.29439 275.72975 Z M 533.27218 290.81004 L 533.27218 339.61084 L 579.68452 354.69113 L 608.36892 315.21044 L 579.68452 275.72975 Z M 641.53455 289.97749 L 641.03618 290.4886 L 640.56416 291.02427 L 640.43495 291.1052 L 640.32851 291.21436 L 639.70514 291.5623 L 639.10009 291.94126 L 638.95316 291.98202 L 638.82005 292.05632 L 638.12339 292.21223 L 637.43543 292.40309 L 637.28301 292.4003 L 637.13421 292.4336 L 636.7793 292.39108 L 635.70819 292.37148 L 635.15764 292.19681 L 634.82635 292.15712 L 621.78533 287.91984 L 621.78533 310.85118 L 668.19767 325.93147 L 681.67638 307.37961 L 668.63536 303.14233 L 667.08634 302.37753 L 665.81944 301.20307 L 664.93968 299.71633 L 664.48946 297.43599 L 664.48946 258.38276 Z M 686.19766 321.57221 L 705.77718 315.21044 L 693.67637 311.27865 Z M 730.04769 261.21782 L 728.84165 262.45469 L 727.33318 263.29665 L 725.64735 263.67393 L 723.33949 263.39745 L 686.19765 251.32934 L 709.15257 282.92407 L 709.95621 284.4533 L 710.29083 286.14811 L 710.12869 287.86802 L 709.15257 289.97749 L 701.09278 301.07084 L 722.9018 308.15702 L 751.5862 268.67633 L 738.10748 250.12447 Z M 676.48946 293.07673 L 689.09279 297.1718 L 696.88207 286.45078 L 676.48946 258.38276 Z M 609.78533 296.74435 L 609.78533 284.0208 L 597.68451 280.08901 Z M 478.56805 215.51626 L 478.56805 264.31707 L 527.27218 280.14201 L 575.97631 264.31707 L 575.97631 215.51626 L 527.27218 199.69132 Z M 621.78533 262.05037 L 621.78533 275.30229 L 634.38866 279.39736 L 654.78127 251.32934 Z M 765.0026 215.51626 L 765.0026 264.31707 L 811.41494 279.39736 L 840.09934 239.91666 L 811.41494 200.43597 Z M 587.97631 215.51626 L 587.97631 264.31707 L 609.78533 271.40325 L 609.78533 257.69111 L 610.03403 255.98157 L 610.7595 254.41375 L 611.90162 253.11762 L 613.93123 251.98477 L 651.07305 239.91666 L 613.93123 227.84855 L 613.5605 227.66551 L 613.16642 227.54048 L 612.79005 227.28511 L 612.38221 227.08375 L 612.07902 226.80268 L 611.73688 226.57054 L 611.44885 226.21849 L 611.11531 225.90929 L 610.90477 225.55348 L 610.64296 225.23349 L 610.46719 224.814 L 610.23555 224.42255 L 610.17531 224.11742 L 609.97533 223.64017 L 609.84688 222.45396 L 609.78533 222.14221 L 609.78533 208.43008 Z M 689.90587 239.91666 L 722.9018 250.63769 L 730.69108 239.91666 L 722.9018 229.19563 Z M 745.52389 239.91666 L 753.0026 250.21023 L 753.0026 229.6231 Z M 701.09278 178.76249 L 709.15257 189.85584 L 709.95621 191.38507 L 710.29083 193.07988 L 710.12869 194.79979 L 709.15257 196.90926 L 686.19766 228.50398 L 723.33949 216.43587 L 723.74699 216.36605 L 724.13931 216.23556 L 724.59392 216.22093 L 725.04221 216.14412 L 725.4527 216.1933 L 725.86595 216.18 L 726.3059 216.29551 L 726.75748 216.34961 L 727.13693 216.5137 L 727.53685 216.6187 L 727.92567 216.85478 L 728.3431 217.0353 L 728.66007 217.3007 L 729.0135 217.5153 L 729.37255 217.89727 L 729.66763 218.14434 L 729.81727 218.37038 L 730.04769 218.6155 L 738.10748 229.70886 L 751.5862 211.157 L 722.9018 171.67631 Z M 621.78533 204.53104 L 621.78533 217.78295 L 654.78126 228.50398 L 634.38866 200.43597 Z M 621.78533 168.98215 L 621.78533 191.91349 L 634.82635 187.67621 L 636.52907 187.38446 L 638.24434 187.58995 L 639.82996 188.27564 L 641.53455 189.85584 L 664.48946 221.45057 L 664.48946 182.39734 L 664.73816 180.6878 L 665.46363 179.11998 L 666.60575 177.82385 L 668.63536 176.691 L 681.67638 172.45372 L 668.19767 153.90186 Z M 676.48946 186.7566 L 676.48946 221.45057 L 696.88207 193.38255 L 689.09279 182.66153 Z M 762.7108 123.19268 L 732.60999 164.62289 L 761.29439 204.10358 L 809.99853 188.27864 L 840.09934 146.84844 L 811.41494 107.36775 Z M 533.27218 140.22248 L 533.27218 189.02329 L 579.68452 204.10358 L 608.36892 164.62289 L 579.68452 125.14219 Z M 597.68451 199.74432 L 609.78533 195.81253 L 609.78533 183.08898 Z M 693.67637 168.55468 L 705.77718 164.62289 L 686.19766 158.26112 Z M 587.97631 64.92871 L 587.97631 116.13926 L 618.07712 157.56947 L 664.48946 142.48918 L 664.48946 91.27862 L 634.38866 49.84842 Z M 676.48946 93.68837 L 676.48946 142.48918 L 722.9018 157.56947 L 751.5862 118.08877 L 722.9018 78.60808 Z" stroke-miterlimit="10"/><path fill="#222222" stroke="#cccccc" paint-order="fill stroke markers" d=" M 284.3344 463.86598 L 285.92002 464.55167 L 287.62461 466.13187 L 340.41102 538.78613 L 341.21466 540.31536 L 341.54928 542.01017 L 341.38714 543.73008 L 340.41102 545.83955 L 310.34953 587.21563 L 317.6861 597.31355 L 366.32661 581.50929 L 368.02933 581.21754 L 369.7446 581.42303 L 371.33022 582.10872 L 373.03481 583.68892 L 425.82122 656.34318 L 426.62486 657.87241 L 426.95948 659.56722 L 426.79734 661.28713 L 425.82122 663.3966 L 373.03481 736.05085 L 371.82877 737.28772 L 370.3203 738.12969 L 368.63447 738.50696 L 366.32661 738.23048 L 317.6861 722.42622 L 310.34953 732.52414 L 340.41102 773.90023 L 340.58407 774.22953 L 340.80896 774.52589 L 340.87555 774.78418 L 341.21466 775.42946 L 341.54928 777.12427 L 341.53043 777.3242 L 341.55692 777.42694 L 341.45415 778.13338 L 341.38714 778.84418 L 341.33405 778.9589 L 341.30822 779.13648 L 340.58275 780.7043 L 340.46409 780.83896 L 340.41102 780.95365 L 287.62461 853.6079 L 287.12624 854.11901 L 286.65422 854.65468 L 286.52501 854.73561 L 286.41857 854.84477 L 285.79517 855.19273 L 285.19015 855.57167 L 285.04324 855.61243 L 284.9101 855.68674 L 284.21336 855.84266 L 283.52549 856.0335 L 283.37307 856.03071 L 283.22427 856.06401 L 282.86936 856.02149 L 281.79825 856.00189 L 281.2477 855.82722 L 280.91641 855.78753 L 195.50622 828.03607 L 195.13549 827.85303 L 194.74141 827.728 L 194.36504 827.47263 L 193.9572 827.27127 L 193.65401 826.9902 L 193.31187 826.75806 L 193.02384 826.40601 L 192.6903 826.09681 L 192.47976 825.741 L 192.21795 825.42101 L 192.04218 825.00152 L 191.81054 824.61007 L 191.7503 824.30494 L 191.55032 823.82769 L 191.42187 822.64148 L 191.36032 822.32973 L 191.36032 771.18608 L 179.4895 767.32902 L 149.42801 808.7051 L 148.92964 809.21621 L 148.45762 809.75188 L 148.32841 809.83281 L 148.22197 809.94197 L 147.59857 810.28993 L 146.99355 810.66887 L 146.84664 810.70963 L 146.7135 810.78394 L 146.01676 810.93986 L 145.32889 811.1307 L 145.17647 811.12791 L 145.02767 811.16121 L 144.67276 811.11869 L 143.60165 811.09909 L 143.0511 810.92442 L 142.71981 810.88473 L 57.30962 783.13328 L 56.93889 782.95024 L 56.54481 782.82521 L 56.16844 782.56984 L 55.7606 782.36848 L 55.45741 782.08741 L 55.11527 781.85527 L 54.82724 781.50322 L 54.4937 781.19402 L 54.28316 780.83821 L 54.02135 780.51822 L 53.84558 780.09873 L 53.61394 779.70728 L 53.5537 779.40215 L 53.35372 778.9249 L 53.22527 777.73869 L 53.16372 777.42694 L 53.16372 687.62134 L 53.17965 687.51182 L 53.16774 687.40181 L 53.30371 686.65907 L 53.41242 685.9118 L 53.45889 685.81137 L 53.47882 685.70251 L 53.82078 685.0293 L 54.13789 684.34398 L 54.21106 684.26095 L 54.26117 684.16229 L 54.78071 683.61447 L 55.28001 683.04785 L 55.36093 683.00268 L 55.44995 682.90882 L 56.94659 682.04601 L 57.17057 681.99261 L 57.30962 681.915 L 105.95012 666.11075 L 105.95012 653.62903 L 57.30962 637.82477 L 56.93889 637.64173 L 56.54481 637.5167 L 56.16844 637.26133 L 55.7606 637.05997 L 55.45741 636.7789 L 55.11527 636.54676 L 54.82724 636.19471 L 54.4937 635.88551 L 54.28316 635.5297 L 54.02135 635.20971 L 53.84558 634.79022 L 53.61394 634.39877 L 53.5537 634.09364 L 53.35372 633.61639 L 53.22527 632.43018 L 53.16372 632.11843 L 53.16372 542.31284 L 53.17965 542.20332 L 53.16774 542.09331 L 53.30371 541.35057 L 53.41242 540.6033 L 53.45889 540.50287 L 53.47882 540.39401 L 53.82078 539.7208 L 54.13789 539.03548 L 54.21106 538.95245 L 54.26117 538.85379 L 54.78071 538.30597 L 55.28001 537.73935 L 55.36093 537.69418 L 55.44995 537.60032 L 56.94659 536.73751 L 57.17057 536.68411 L 57.30962 536.6065 L 142.71981 508.85504 L 143.38286 508.74143 L 144.03722 508.58543 L 144.23113 508.59609 L 144.42253 508.56329 L 145.09047 508.64331 L 145.76215 508.68022 L 145.94498 508.74568 L 146.1378 508.76878 L 146.75524 509.03579 L 147.38858 509.26255 L 147.54518 509.37739 L 147.72342 509.45447 L 148.0003 509.71114 L 148.78167 510.28415 L 149.16894 510.79451 L 149.42801 511.03467 L 179.4895 552.41076 L 191.36032 548.55369 L 191.36032 497.41004 L 191.60902 495.7005 L 192.33449 494.13268 L 193.47661 492.83655 L 195.50622 491.7037 L 280.91641 463.95224 L 282.61913 463.66049 Z M 287.62461 763.8023 L 286.41857 765.03917 L 284.9101 765.88114 L 283.22427 766.25841 L 280.91641 765.98193 L 252.43852 756.7289 L 234.83821 780.95365 L 233.63217 782.19052 L 232.1237 783.03248 L 230.43787 783.40976 L 228.13001 783.13328 L 203.36032 775.08512 L 203.36032 817.97047 L 280.47872 843.02777 L 328.14052 777.42694 L 302.93312 742.73194 Z M 65.16372 691.9806 L 65.16372 773.06768 L 142.28212 798.12497 L 167.4895 763.42998 L 142.71981 755.38182 L 141.17079 754.61702 L 139.90389 753.44256 L 139.02413 751.95582 L 138.57391 749.67548 L 138.57391 719.73205 L 110.09602 710.47902 L 108.547 709.71422 L 107.2801 708.53976 L 106.40034 707.05302 L 105.95012 704.77268 L 105.95012 678.72829 Z M 203.36032 762.46757 L 227.69232 770.37352 L 240.43852 752.82987 L 203.36032 740.78243 Z M 186.90591 757.12121 L 191.36032 758.56853 L 191.36032 750.99023 Z M 150.57391 745.31622 L 174.90591 753.22217 L 187.65212 735.67852 L 150.57391 723.63108 Z M 259.85493 746.52109 L 280.47872 753.22217 L 295.51672 732.52414 L 282.77051 714.98049 Z M 216.77673 732.52414 L 247.85493 742.62206 L 267.06232 716.18536 Z M 151.99031 659.86989 L 199.65211 725.47072 L 276.77051 700.41342 L 276.77051 619.32635 L 199.65211 594.26905 Z M 325.10251 607.52136 L 340.41102 628.59172 L 341.21466 630.12095 L 341.54928 631.81576 L 341.38714 633.53567 L 340.41102 635.64514 L 322.81071 659.86989 L 340.41102 684.09463 L 341.21466 685.62386 L 341.54928 687.31867 L 341.38714 689.03858 L 340.41102 691.14805 L 325.10251 712.21841 L 365.88892 725.47072 L 413.55072 659.86989 L 365.88892 594.26905 Z M 302.93312 722.31633 L 305.6861 718.52718 L 298.47871 716.18536 Z M 150.57391 711.01354 L 181.65211 721.11146 L 150.57391 678.33598 Z M 292.47872 701.61829 L 313.10251 708.31937 L 328.14051 687.62134 L 315.39431 670.07769 Z M 117.95012 674.82926 L 117.95012 700.41342 L 138.57391 707.1145 L 138.57391 668.12818 Z M 288.77051 686.30659 L 307.9779 659.86989 L 288.77051 633.43318 Z M 117.95012 662.21171 L 125.1575 659.86989 L 117.95012 657.52807 Z M 117.95012 619.32635 L 117.95012 644.91052 L 138.57391 651.6116 L 138.57391 612.62527 Z M 292.47872 618.12148 L 315.39431 649.66208 L 328.14052 632.11843 L 313.10251 611.4204 Z M 150.57391 608.72623 L 150.57391 641.40379 L 181.65212 598.62831 Z M 65.16372 546.6721 L 65.16372 627.75917 L 105.95012 641.01148 L 105.95012 614.96709 L 105.96605 614.85757 L 105.95414 614.74756 L 106.09011 614.00482 L 106.19882 613.25755 L 106.24529 613.15712 L 106.26522 613.04826 L 106.60718 612.37505 L 106.92429 611.68973 L 106.99746 611.6067 L 107.04757 611.50804 L 107.56711 610.96022 L 108.06641 610.3936 L 108.14733 610.34843 L 108.23635 610.25457 L 109.73299 609.39176 L 109.95697 609.33836 L 110.09602 609.26075 L 138.57391 600.00772 L 138.57391 570.06429 L 138.82261 568.35475 L 139.54808 566.78693 L 140.6902 565.4908 L 142.71981 564.35795 L 167.4895 556.30979 L 142.28212 521.6148 Z M 259.85492 573.21868 L 282.77051 604.75928 L 295.51672 587.21563 L 280.47872 566.5176 Z M 298.47871 603.55441 L 305.6861 601.21259 L 302.93313 597.42344 Z M 216.77673 587.21563 L 267.06231 603.55441 L 247.85493 577.11771 Z M 150.57391 574.42355 L 150.57391 596.10869 L 187.65212 584.06125 L 174.90591 566.5176 Z M 203.36032 557.27221 L 203.36032 578.95734 L 240.43852 566.9099 L 227.69232 549.36626 Z M 203.36032 501.7693 L 203.36032 544.65466 L 228.13001 536.6065 L 229.83273 536.31475 L 231.548 536.52024 L 233.13362 537.20593 L 234.83821 538.78613 L 252.43851 563.01087 L 280.91641 553.75784 L 281.32391 553.68802 L 281.71623 553.55753 L 282.17084 553.5429 L 282.61913 553.46609 L 283.02962 553.51527 L 283.44287 553.50197 L 283.88282 553.61748 L 284.3344 553.67158 L 284.71385 553.83567 L 285.11377 553.94067 L 285.50259 554.17675 L 285.92002 554.35727 L 286.23698 554.62267 L 286.59042 554.83727 L 286.9495 555.21927 L 287.24455 555.46632 L 287.39418 555.69233 L 287.62461 555.93747 L 302.93313 577.00783 L 328.14052 542.31284 L 280.47872 476.712 Z M 186.90591 562.61857 L 191.36032 568.74954 L 191.36032 561.17124 Z" stroke-miterlimit="10"/><path fill="#222222" stroke="#cccccc" paint-order="fill stroke markers" d=" M 666.33236 454.26382 L 667.91798 454.94951 L 669.62257 456.52971 L 693.28374 489.0965 L 729.71421 500.93349 L 767.99879 488.49407 L 769.70151 488.20232 L 771.41678 488.40781 L 773.0024 489.0935 L 774.70699 490.6737 L 799.51405 524.8177 L 800.31769 526.34693 L 800.65231 528.04174 L 800.49017 529.76165 L 799.51405 531.87112 L 775.85289 564.43792 L 775.85289 574.24976 L 785.1845 577.28179 L 823.46907 564.84237 L 825.17179 564.55062 L 826.88706 564.75611 L 828.47268 565.4418 L 830.17727 567.022 L 854.98434 601.166 L 855.78798 602.69523 L 856.1226 604.39004 L 855.96046 606.10995 L 854.98434 608.21942 L 831.32317 640.78621 L 831.32317 679.09149 L 854.98434 711.65829 L 855.78798 713.18752 L 856.1226 714.88233 L 855.96046 716.60224 L 854.98434 718.71171 L 830.17727 752.85571 L 828.97123 754.09258 L 827.46276 754.93455 L 825.77693 755.31182 L 823.46907 755.03534 L 785.1845 742.59592 L 775.85289 745.62795 L 775.85289 755.43979 L 799.51405 788.00659 L 800.31769 789.53582 L 800.65231 791.23063 L 800.49017 792.95054 L 799.51405 795.06001 L 774.70699 829.204 L 773.50095 830.44087 L 771.99248 831.28283 L 770.30665 831.66011 L 767.99879 831.38363 L 729.71421 818.94422 L 693.28374 830.7812 L 669.62257 863.348 L 668.41653 864.58487 L 666.90806 865.42684 L 665.22223 865.80411 L 662.91437 865.52763 L 622.7757 852.48578 L 621.22668 851.72098 L 619.95978 850.54652 L 619.08002 849.05978 L 618.6298 846.77944 L 618.6298 806.52465 L 612.86255 798.58672 L 603.53093 801.61875 L 579.86976 834.18554 L 578.66372 835.42241 L 577.15525 836.26438 L 575.46942 836.64165 L 573.16156 836.36517 L 533.02289 823.32333 L 531.47387 822.55853 L 530.20697 821.38407 L 529.32721 819.89733 L 528.87699 817.61699 L 528.87699 777.3622 L 506.36172 746.3726 L 468.07715 733.93319 L 466.52813 733.16839 L 465.26123 731.99393 L 464.38147 730.50719 L 463.93125 728.22685 L 463.93125 686.02254 L 464.17995 684.313 L 464.90542 682.74518 L 466.04754 681.44905 L 468.07715 680.3162 L 506.36172 667.87679 L 512.12897 659.93885 L 506.36172 652.00092 L 468.07715 639.5615 L 466.52813 638.7967 L 465.26123 637.62224 L 464.38147 636.1355 L 463.93125 633.85516 L 463.93125 591.65086 L 464.17995 589.94132 L 464.90542 588.3735 L 466.04754 587.07737 L 468.07715 585.94452 L 506.36172 573.5051 L 528.87699 542.51551 L 528.87699 502.26072 L 529.12569 500.55118 L 529.85116 498.98336 L 530.99328 497.68723 L 533.02289 496.55438 L 573.16156 483.51253 L 574.86428 483.22078 L 576.57955 483.42627 L 578.16517 484.11196 L 579.86976 485.69216 L 603.53093 518.25896 L 612.86255 521.29099 L 618.6298 513.35305 L 618.6298 473.09826 L 618.8785 471.38872 L 619.60397 469.8209 L 620.74609 468.52477 L 622.7757 467.39192 L 662.91437 454.35008 L 664.61709 454.05833 Z M 630.6298 808.9344 L 630.6298 842.42019 L 662.47668 852.76787 L 682.15913 825.67729 L 662.47668 798.58672 Z M 540.87699 779.77194 L 540.87699 813.25773 L 572.72387 823.60541 L 592.40632 796.51484 L 572.72387 769.42426 Z M 672.18488 791.5333 L 691.86733 818.62387 L 723.71421 808.27619 L 723.71421 774.7904 L 691.86733 764.44272 Z M 735.71421 774.79041 L 735.71421 808.27619 L 767.5611 818.62387 L 787.24355 791.5333 L 767.5611 764.44272 Z M 709.76125 739.81386 L 709.26288 740.32497 L 708.79086 740.86064 L 708.66165 740.94157 L 708.55521 741.05073 L 708.13367 741.27226 L 707.32679 741.77763 L 706.99891 741.86859 L 706.76125 741.99349 L 666.62257 755.03534 L 666.36392 755.07966 L 666.11937 755.17495 L 665.51628 755.2249 L 664.91985 755.32709 L 664.65926 755.29587 L 664.39773 755.31753 L 663.64542 755.17441 L 663.20458 755.1216 L 663.07638 755.06616 L 662.91437 755.03534 L 645.9614 749.52699 L 645.9614 783.47299 L 645.7127 785.18253 L 644.98723 786.75035 L 643.84511 788.04648 L 642.38104 788.96347 L 642.02553 789.0621 L 641.8155 789.17933 L 624.86254 794.68768 L 626.92159 797.52172 L 661.06027 786.42939 L 684.72144 753.86259 L 685.92748 752.62572 L 687.43595 751.78375 L 689.12178 751.40648 L 691.42964 751.68296 L 729.71421 764.12238 L 763.85289 753.03004 L 763.85289 749.52699 L 746.89992 755.03534 L 746.34415 755.13057 L 745.8008 755.28131 L 745.49685 755.27575 L 745.1972 755.32709 L 744.63733 755.26002 L 744.07356 755.2497 L 743.78378 755.15776 L 743.48193 755.1216 L 742.96441 754.8978 L 742.42691 754.72727 L 742.17532 754.55656 L 741.89631 754.43591 L 741.62008 754.17984 L 740.99737 753.75733 L 740.47316 753.11662 L 740.19172 752.85571 L 720.23875 725.39281 Z M 517.48633 672.9807 L 538.58519 702.02078 L 576.86976 714.4602 L 578.41878 715.225 L 579.68568 716.39946 L 580.56544 717.8862 L 581.01566 720.16654 L 581.01566 760.42133 L 602.11452 789.46142 L 605.44614 788.37891 L 594.96863 773.95786 L 594.84655 773.72555 L 594.68036 773.52243 L 594.4465 772.96432 L 594.16499 772.42864 L 594.11415 772.17116 L 594.01273 771.92911 L 593.94758 771.3275 L 593.83037 770.73382 L 593.855 770.47253 L 593.82675 770.21162 L 593.93571 769.61641 L 593.99251 769.01391 L 594.08102 768.82262 L 594.13783 768.51232 L 594.92018 766.9721 L 594.95365 766.9368 L 594.96863 766.90444 L 614.92159 739.44154 L 597.96863 733.93319 L 597.32839 733.61709 L 596.67322 733.33376 L 596.58055 733.24785 L 596.41961 733.16839 L 595.15271 731.99393 L 595.06132 731.83949 L 594.96863 731.75356 L 570.16156 697.60956 L 569.96924 697.24359 L 569.7239 696.91079 L 569.5695 696.48294 L 569.35792 696.08033 L 569.29799 695.73058 L 569.13749 695.28582 L 569.09496 694.54566 L 569.01566 694.08285 L 569.01566 676.25745 L 536.73109 686.74734 L 536.17532 686.84257 L 535.63197 686.99331 L 535.32802 686.98775 L 535.02837 687.03909 L 534.4685 686.97202 L 533.90473 686.9617 L 533.61495 686.86976 L 533.3131 686.8336 L 532.79558 686.6098 L 532.25808 686.43927 L 532.00649 686.26856 L 531.72748 686.14791 L 531.45125 685.89184 L 530.82854 685.46933 L 530.30433 684.82862 L 530.02289 684.56771 L 519.54538 670.14666 Z M 607.23914 770.43115 L 617.44613 784.47987 L 633.9614 779.11374 L 633.9614 745.62795 L 626.92159 743.34058 Z M 517.48632 741.26869 L 537.16878 768.35927 L 569.01566 758.01159 L 569.01566 724.52579 L 537.16878 714.17811 Z M 644.8155 608.21942 L 643.60946 609.45629 L 642.10099 610.29826 L 640.41516 610.67553 L 638.1073 610.39905 L 602.11452 598.70428 L 582.43207 625.79486 L 604.67683 656.41214 L 604.84988 656.74144 L 605.07477 657.0378 L 605.14136 657.29608 L 605.48047 657.94136 L 605.81509 659.63618 L 605.79624 659.83611 L 605.82273 659.93885 L 605.71996 660.64529 L 605.65295 661.35609 L 605.59986 661.47081 L 605.57403 661.64839 L 604.84856 663.21621 L 604.7299 663.35087 L 604.67683 663.46556 L 582.43206 694.08285 L 602.11452 721.17343 L 638.1073 709.47866 L 639.81002 709.18691 L 641.52529 709.3924 L 643.11091 710.07809 L 644.8155 711.65829 L 667.06026 742.27558 L 698.90715 731.92789 L 698.90715 694.08285 L 698.92308 693.97333 L 698.91117 693.86332 L 699.04714 693.12058 L 699.15585 692.37331 L 699.20232 692.27288 L 699.22225 692.16402 L 699.56421 691.49081 L 699.88132 690.80549 L 699.95449 690.72246 L 700.0046 690.6238 L 700.52414 690.07598 L 701.02344 689.50936 L 701.10436 689.46419 L 701.19338 689.37033 L 702.69002 688.50752 L 702.914 688.45412 L 703.05305 688.37651 L 739.04582 676.68175 L 739.04582 643.19596 L 703.05305 631.5012 L 702.68232 631.31816 L 702.28824 631.19313 L 701.91187 630.93776 L 701.50403 630.7364 L 701.20084 630.45533 L 700.8587 630.22319 L 700.57067 629.87114 L 700.23713 629.56194 L 700.02659 629.20613 L 699.76478 628.88614 L 699.58901 628.46665 L 699.35737 628.0752 L 699.29713 627.77007 L 699.09715 627.29282 L 698.9687 626.10661 L 698.90715 625.79486 L 698.90715 587.94982 L 667.06026 577.60213 Z M 727.65516 715.185 L 747.33761 742.27558 L 763.85289 736.90944 L 763.85289 719.54426 L 732.00601 709.19657 Z M 791.1845 698.4421 L 791.1845 731.9279 L 823.03138 742.27558 L 842.71384 715.185 L 823.03138 688.09442 Z M 619.23913 728.22685 L 649.06027 737.91632 L 637.66961 722.23842 Z M 475.93125 690.3818 L 475.93125 723.86759 L 507.77813 734.21527 L 527.46058 707.12469 L 507.77813 680.03412 Z M 775.85289 604.69271 L 775.60419 606.40225 L 774.87872 607.97007 L 773.7366 609.2662 L 772.27253 610.18319 L 771.91702 610.28182 L 771.70699 610.39905 L 739.42241 620.88894 L 749.89992 635.30999 L 750.232 635.9419 L 750.5956 636.55636 L 750.63264 636.70427 L 750.70356 636.83922 L 750.78398 637.30855 L 751.01528 638.23214 L 751.00048 638.57206 L 751.04582 638.8367 L 751.04582 681.041 L 750.9863 681.45012 L 750.98917 681.86357 L 750.8626 682.30047 L 750.79712 682.75054 L 750.64002 683.06872 L 750.50845 683.52287 L 750.10779 684.14669 L 749.89992 684.56771 L 739.42241 698.98876 L 771.70699 709.47866 L 772.1756 709.71003 L 772.66756 709.88617 L 772.94616 710.09048 L 773.25601 710.24346 L 773.63928 710.59877 L 774.06065 710.90777 L 774.26951 711.18301 L 774.52291 711.41792 L 774.78904 711.86766 L 775.10493 712.28395 L 775.15864 712.49226 L 775.40267 712.90466 L 775.85289 715.185 L 775.85289 733.0104 L 779.1845 731.92789 L 779.1845 696.03236 L 755.52333 663.46556 L 754.71969 661.93633 L 754.38507 660.24152 L 754.54721 658.52161 L 755.52333 656.41214 L 779.1845 623.84535 L 779.1845 587.94982 L 775.85289 586.86731 Z M 710.90715 698.4421 L 710.90715 717.82105 L 729.33762 692.45368 Z M 767.79384 659.93885 L 787.47629 687.02943 L 819.32317 676.68175 L 819.32317 643.19596 L 787.47629 632.84828 Z M 581.01566 675.61675 L 592.40632 659.93885 L 581.01566 644.26095 Z M 526.96178 659.93885 L 537.16878 673.98758 L 569.01566 663.6399 L 569.01566 656.2378 L 537.16878 645.89012 Z M 581.01566 559.45637 L 581.01566 599.71116 L 580.76696 601.4207 L 580.04149 602.98852 L 578.89937 604.28465 L 576.86976 605.4175 L 538.58519 617.85692 L 517.48633 646.89701 L 519.54538 649.73105 L 530.02289 635.30999 L 530.59728 634.72092 L 531.16322 634.12418 L 531.19958 634.10322 L 531.22893 634.07312 L 531.94763 633.67197 L 532.65986 633.26137 L 532.7007 633.25163 L 532.7374 633.23115 L 533.54041 633.05145 L 534.3403 632.86075 L 534.38223 632.86305 L 534.42323 632.85388 L 534.59945 632.87499 L 536.06523 632.95554 L 536.4642 633.09839 L 536.73109 633.13036 L 569.01566 643.62026 L 569.01566 625.79486 L 569.11843 625.08842 L 569.18544 624.37762 L 569.24241 624.23618 L 569.26436 624.08532 L 569.47516 623.65836 L 569.83091 622.7752 L 570.0427 622.50889 L 570.16156 622.26815 L 594.96863 588.12415 L 595.15184 587.93625 L 595.29367 587.71543 L 595.7522 587.32055 L 596.17467 586.88728 L 596.40384 586.75936 L 596.60269 586.58812 L 597.29541 586.26173 L 597.68314 586.04531 L 597.81947 586.0148 L 597.96863 585.94452 L 614.92159 580.43617 L 594.96863 552.97327 L 594.84655 552.74097 L 594.68036 552.53784 L 594.44649 551.9797 L 594.16499 551.44404 L 594.11416 551.18658 L 594.01273 550.94452 L 593.94758 550.3429 L 593.83037 549.74923 L 593.855 549.48794 L 593.82675 549.22703 L 593.93571 548.63182 L 593.99251 548.02932 L 594.08102 547.83803 L 594.13783 547.52773 L 594.92018 545.98751 L 594.95365 545.95221 L 594.96863 545.91985 L 605.44614 531.4988 L 602.11452 530.41629 Z M 475.93125 596.01011 L 475.93125 629.49591 L 507.77813 639.84359 L 527.46059 612.75301 L 507.77813 585.66243 Z M 791.1845 587.94981 L 791.1845 621.4356 L 823.03138 631.78328 L 842.71383 604.69271 L 823.03138 577.60213 Z M 710.90715 621.4356 L 729.33762 627.42403 L 710.90715 602.05666 Z M 727.65516 604.6927 L 732.006 610.68113 L 763.85289 600.33345 L 763.85289 582.96827 L 747.33761 577.60213 Z M 517.48633 578.60901 L 537.16878 605.69959 L 569.01566 595.35191 L 569.01566 561.86612 L 537.16878 551.51844 Z M 619.23913 591.65086 L 637.66961 597.63929 L 649.06027 581.96139 Z M 624.86254 525.19002 L 641.8155 530.69837 L 642.28411 530.92974 L 642.77607 531.10588 L 643.05467 531.31019 L 643.36452 531.46317 L 643.74779 531.81848 L 644.16916 532.12748 L 644.37802 532.40272 L 644.63142 532.63763 L 644.89755 533.08737 L 645.21344 533.50366 L 645.26715 533.71197 L 645.51118 534.12437 L 645.9614 536.40471 L 645.9614 570.35072 L 662.91437 564.84237 L 663.61797 564.72181 L 664.31471 564.56589 L 664.46683 564.57637 L 664.61709 564.55062 L 665.0883 564.61917 L 666.03816 564.68459 L 666.35689 564.80372 L 666.62257 564.84237 L 706.76125 577.88422 L 707.13198 578.06726 L 707.52606 578.19229 L 707.90243 578.44766 L 708.31027 578.64902 L 708.56434 578.89676 L 708.9556 579.16223 L 709.42508 579.73606 L 709.76125 580.06385 L 720.23875 594.4849 L 740.19172 567.022 L 740.76611 566.43293 L 741.33205 565.83619 L 741.36841 565.81523 L 741.39776 565.78513 L 742.11646 565.38398 L 742.82869 564.97338 L 742.86953 564.96364 L 742.90623 564.94316 L 743.70924 564.76346 L 744.50913 564.57276 L 744.55106 564.57506 L 744.59206 564.56589 L 744.76828 564.587 L 746.23406 564.66755 L 746.63303 564.8104 L 746.89992 564.84237 L 763.85289 570.35072 L 763.85289 566.84767 L 729.71421 555.75533 L 691.42964 568.19475 L 689.72692 568.4865 L 688.01165 568.28101 L 686.42603 567.59532 L 684.72144 566.01512 L 661.06027 533.44832 L 626.92159 522.35598 Z M 607.23913 549.44656 L 626.92159 576.53713 L 633.9614 574.24976 L 633.9614 540.76397 L 617.44613 535.39783 Z M 672.18487 528.34441 L 691.86733 555.43499 L 723.71421 545.08731 L 723.71421 511.60151 L 691.86733 501.25383 Z M 735.71421 511.60152 L 735.71421 545.0873 L 767.5611 555.43499 L 787.24355 528.34441 L 767.5611 501.25383 Z M 540.87699 506.61997 L 540.87699 540.10576 L 572.72387 550.45344 L 592.40632 523.36287 L 572.72387 496.27229 Z M 630.6298 477.45752 L 630.6298 510.94331 L 662.47668 521.29099 L 682.15913 494.20041 L 662.47668 467.10984 Z" stroke-miterlimit="10"/></g></svg>