  0
SECTION
  2
HEADER
  9
$ACADVER
  1
AC1014
  9
$HANDSEED
  5
FFFF
  9
$INSUNITS
 70
     4
  9
$MEASUREMENT
 70
     1
  0
ENDSEC
  0
SECTION
  2
TABLES
  0
TABLE
  2
VPORT
  5
8
330
0
100
AcDbSymbolTable
 70
     4
  0
VPORT
  5
2E
330
8
100
AcDbSymbolTableRecord
100
AcDbViewportTableRecord
  2
*ACTIVE
 70
     0
 10
0.0
 20
0.0
 11
1.0
 21
1.0
 12
210.0
 22
148.5
 13
0.0
 23
0.0
 14
10.0
 24
10.0
 15
10.0
 25
10.0
 16
0.0
 26
0.0
 36
1.0
 17
0.0
 27
0.0
 37
0.0
 40
341.0
 41
1.24
 42
50.0
 43
0.0
 44
0.0
 50
0.0
 51
0.0
 71
     0
 72
   100
 73
     1
 74
     3
 75
     0
 76
     0
 77
     0
 78
     0
  0
ENDTAB
  0
TABLE
  2
LTYPE
  5
5
330
0
100
AcDbSymbolTable
 70
     1
  0
LTYPE
  5
14
330
5
100
AcDbSymbolTableRecord
100
AcDbLinetypeTableRecord
  2
BYBLOCK
 70
     0
  3

 72
    65
 73
     0
 40
0.0
  0
LTYPE
  5
15
330
5
100
AcDbSymbolTableRecord
100
AcDbLinetypeTableRecord
  2
BYLAYER
 70
     0
  3

 72
    65
 73
     0
 40
0.0
  0
LTYPE
  5
16
330
5
100
AcDbSymbolTableRecord
100
AcDbLinetypeTableRecord
  2
CONTINUOUS
 70
     0
  3
Solid line
 72
    65
 73
     0
 40
0.0
  0
ENDTAB
  0
TABLE
  2
LAYER
  5
2
100
AcDbSymbolTable
 70
5
  0
LAYER
  5
50
100
AcDbSymbolTableRecord
100
AcDbLayerTableRecord
  2
0
 70
0
  6
CONTINUOUS
  0
LAYER
  5
51
100
AcDbSymbolTableRecord
100
AcDbLayerTableRecord
  2
Layer_1
 70
0
  6
CONTINUOUS
  0
LAYER
  5
52
100
AcDbSymbolTableRecord
100
AcDbLayerTableRecord
  2
Layer_2
 70
0
  6
CONTINUOUS
  0
LAYER
  5
53
100
AcDbSymbolTableRecord
100
AcDbLayerTableRecord
  2
Layer_3
 70
0
  6
CONTINUOUS
  0
LAYER
  5
54
100
AcDbSymbolTableRecord
100
AcDbLayerTableRecord
  2
Layer_4
 70
0
  6
CONTINUOUS
  0
ENDTAB
  0
TABLE
  2
STYLE
  5
3
330
0
100
AcDbSymbolTable
 70
     1
  0
STYLE
  5
11
330
3
100
AcDbSymbolTableRecord
100
AcDbTextStyleTableRecord
  2
STANDARD
 70
     0
 40
0.0
 41
1.0
 50
0.0
 71
     0
 42
2.5
  3
txt
  4

  0
ENDTAB
  0
TABLE
  2
VIEW
  5
6
330
0
100
AcDbSymbolTable
 70
     0
  0
ENDTAB
  0
TABLE
  2
UCS
  5
7
330
0
100
AcDbSymbolTable
 70
     0
  0
ENDTAB
  0
TABLE
  2
APPID
  5
9
330
0
100
AcDbSymbolTable
 70
     2
  0
APPID
  5
12
330
9
100
AcDbSymbolTableRecord
100
AcDbRegAppTableRecord
  2
ACAD
 70
     0
  0
ENDTAB
  0
TABLE
  2
DIMSTYLE
  5
A
330
0
100
AcDbSymbolTable
 70
     1
  0
DIMSTYLE
105
27
330
A
100
AcDbSymbolTableRecord
100
AcDbDimStyleTableRecord
  2
ISO-25
 70
     0
  3

  4

  5

  6

  7

 40
1.0
 41
2.5
 42
0.625
 43
3.75
 44
1.25
 45
0.0
 46
0.0
 47
0.0
 48
0.0
140
2.5
141
2.5
142
0.0
143
0.03937007874016
144
1.0
145
0.0
146
1.0
147
0.625
 71
     0
 72
     0
 73
     0
 74
     0
 75
     0
 76
     0
 77
     1
 78
     8
170
     0
171
     3
172
     1
173
     0
174
     0
175
     0
176
     0
177
     0
178
     0
270
     2
271
     2
272
     2
273
     2
274
     3
340
11
275
     0
280
     0
281
     0
282
     0
283
     0
284
     8
285
     0
286
     0
287
     3
288
     0
  0
ENDTAB
  0
TABLE
  2
BLOCK_RECORD
  5
1
330
0
100
AcDbSymbolTable
 70
     1
  0
BLOCK_RECORD
  5
1F
330
1
100
AcDbSymbolTableRecord
100
AcDbBlockTableRecord
  2
*MODEL_SPACE
  0
BLOCK_RECORD
  5
1B
330
1
100
AcDbSymbolTableRecord
100
AcDbBlockTableRecord
  2
*PAPER_SPACE
  0
ENDTAB
  0
ENDSEC
  0
SECTION
  2
BLOCKS
  0
BLOCK
  5
20
330
1F
100
AcDbEntity
  8
0
100
AcDbBlockBegin
  2
*MODEL_SPACE
 70
     0
 10
0.0
 20
0.0
 30
0.0
  3
*MODEL_SPACE
  1

  0
ENDBLK
  5
21
330
1F
100
AcDbEntity
  8
0
100
AcDbBlockEnd
  0
BLOCK
  5
1C
330
1B
100
AcDbEntity
 67
     1
  8
0
100
AcDbBlockBegin
  2
*PAPER_SPACE
  1

  0
ENDBLK
  5
1D
330
1B
100
AcDbEntity
 67
     1
  8
0
100
AcDbBlockEnd
  0
ENDSEC
  0
SECTION
  2
ENTITIES
  0
LWPOLYLINE
  5
100
100
AcDbEntity
  8
Layer_2
 62
7
100
AcDbPolyline
 90
191
 70
1
 10
113.294115
 20
172.748390
 30
0.0
 10
113.713644
 20
172.566968
 30
0.0
 10
114.164650
 20
172.148873
 30
0.0
 10
122.432006
 20
160.769832
 30
0.0
 10
135.808873
 20
165.116240
 30
0.0
 10
136.259385
 20
165.193432
 30
0.0
 10
136.713217
 20
165.139063
 30
0.0
 10
137.132745
 20
164.957641
 30
0.0
 10
137.583751
 20
164.539546
 30
0.0
 10
145.851107
 20
153.160505
 30
0.0
 10
159.227975
 20
157.506911
 30
0.0
 10
159.403407
 20
157.536970
 30
0.0
 10
159.576540
 20
157.578245
 30
0.0
 10
159.627845
 20
157.575414
 30
0.0
 10
159.678486
 20
157.584092
 30
0.0
 10
159.855212
 20
157.562926
 30
0.0
 10
160.032928
 20
157.553163
 30
0.0
 10
160.081301
 20
157.535832
 30
0.0
 10
160.132318
 20
157.529720
 30
0.0
 10
160.295683
 20
157.459074
 30
0.0
 10
160.463254
 20
157.399077
 30
0.0
 10
160.504688
 20
157.368692
 30
0.0
 10
160.551847
 20
157.348293
 30
0.0
 10
160.625105
 20
157.280382
 30
0.0
 10
160.831842
 20
157.128774
 30
0.0
 10
160.934307
 20
156.993741
 30
0.0
 10
161.002853
 20
156.930198
 30
0.0
 10
169.948154
 20
144.618049
 30
0.0
 10
169.993940
 20
144.530921
 30
0.0
 10
170.053442
 20
144.452509
 30
0.0
 10
170.071063
 20
144.384170
 30
0.0
 10
170.160786
 20
144.213440
 30
0.0
 10
170.249321
 20
143.765021
 30
0.0
 10
170.244320
 20
143.712123
 30
0.0
 10
170.251332
 20
143.684940
 30
0.0
 10
170.224140
 20
143.498028
 30
0.0
 10
170.206413
 20
143.309962
 30
0.0
 10
170.192364
 20
143.279609
 30
0.0
 10
170.185538
 20
143.232624
 30
0.0
 10
169.993590
 20
142.817805
 30
0.0
 10
169.962195
 20
142.782176
 30
0.0
 10
169.948146
 20
142.751831
 30
0.0
 10
161.680787
 20
131.372790
 30
0.0
 10
169.948146
 20
119.993749
 30
0.0
 10
169.993932
 20
119.906621
 30
0.0
 10
170.053434
 20
119.828209
 30
0.0
 10
170.071055
 20
119.759870
 30
0.0
 10
170.160778
 20
119.589140
 30
0.0
 10
170.249313
 20
119.140721
 30
0.0
 10
170.244312
 20
119.087823
 30
0.0
 10
170.251324
 20
119.060640
 30
0.0
 10
170.224132
 20
118.873728
 30
0.0
 10
170.206405
 20
118.685662
 30
0.0
 10
170.192356
 20
118.655309
 30
0.0
 10
170.185530
 20
118.608324
 30
0.0
 10
169.993583
 20
118.193505
 30
0.0
 10
169.962187
 20
118.157876
 30
0.0
 10
169.948138
 20
118.127531
 30
0.0
 10
161.680779
 20
106.748487
 30
0.0
 10
169.948138
 20
95.369446
 30
0.0
 10
170.160767
 20
94.964837
 30
0.0
 10
170.249302
 20
94.516419
 30
0.0
 10
170.206403
 20
94.061359
 30
0.0
 10
169.948138
 20
93.503229
 30
0.0
 10
161.002837
 20
81.191079
 30
0.0
 10
160.683739
 20
80.863824
 30
0.0
 10
160.284623
 20
80.641055
 30
0.0
 10
159.838580
 20
80.541233
 30
0.0
 10
159.227959
 20
80.614385
 30
0.0
 10
145.851092
 20
84.960793
 30
0.0
 10
137.583735
 20
73.581752
 30
0.0
 10
137.264637
 20
73.254497
 30
0.0
 10
136.865521
 20
73.031728
 30
0.0
 10
136.419479
 20
72.931906
 30
0.0
 10
135.808858
 20
73.005058
 30
0.0
 10
122.431990
 20
77.351464
 30
0.0
 10
114.164634
 20
65.972423
 30
0.0
 10
114.032773
 20
65.837192
 30
0.0
 10
113.907885
 20
65.695462
 30
0.0
 10
113.873698
 20
65.674057
 30
0.0
 10
113.845536
 20
65.645176
 30
0.0
 10
113.680610
 20
65.553122
 30
0.0
 10
113.520516
 20
65.452850
 30
0.0
 10
113.481636
 20
65.442055
 30
0.0
 10
113.446420
 20
65.422396
 30
0.0
 10
113.262103
 20
65.381148
 30
0.0
 10
113.080075
 20
65.330647
 30
0.0
 10
113.039745
 20
65.331441
 30
0.0
 10
113.000377
 20
65.322630
 30
0.0
 10
112.906474
 20
65.333875
 30
0.0
 10
112.623076
 20
65.339061
 30
0.0
 10
112.477410
 20
65.385275
 30
0.0
 10
112.389756
 20
65.395779
 30
0.0
 10
97.915952
 20
70.098603
 30
0.0
 10
97.817863
 20
70.147032
 30
0.0
 10
97.713596
 20
70.180113
 30
0.0
 10
97.614015
 20
70.247679
 30
0.0
 10
97.506107
 20
70.300956
 30
0.0
 10
97.425888
 20
70.375322
 30
0.0
 10
97.335364
 20
70.436743
 30
0.0
 10
97.259156
 20
70.529889
 30
0.0
 10
97.170907
 20
70.611698
 30
0.0
 10
97.115201
 20
70.705840
 30
0.0
 10
97.045931
 20
70.790504
 30
0.0
 10
96.999425
 20
70.901494
 30
0.0
 10
96.938137
 20
71.005065
 30
0.0
 10
96.922209
 20
71.085797
 30
0.0
 10
96.869298
 20
71.212070
 30
0.0
 10
96.835312
 20
71.525921
 30
0.0
 10
96.819014
 20
71.608405
 30
0.0
 10
96.819014
 20
85.673673
 30
0.0
 10
83.442149
 20
90.020082
 30
0.0
 10
83.344060
 20
90.068511
 30
0.0
 10
83.239793
 20
90.101592
 30
0.0
 10
83.140211
 20
90.169159
 30
0.0
 10
83.032304
 20
90.222435
 30
0.0
 10
82.952085
 20
90.296802
 30
0.0
 10
82.861560
 20
90.358222
 30
0.0
 10
82.785352
 20
90.451369
 30
0.0
 10
82.697103
 20
90.533178
 30
0.0
 10
82.641398
 20
90.627319
 30
0.0
 10
82.572127
 20
90.711983
 30
0.0
 10
82.525621
 20
90.822973
 30
0.0
 10
82.464333
 20
90.926544
 30
0.0
 10
82.448405
 20
91.007277
 30
0.0
 10
82.395494
 20
91.133549
 30
0.0
 10
82.361508
 20
91.447400
 30
0.0
 10
82.345236
 20
91.529884
 30
0.0
 10
82.345236
 20
105.595150
 30
0.0
 10
68.968371
 20
109.941558
 30
0.0
 10
68.870282
 20
109.989988
 30
0.0
 10
68.766015
 20
110.023069
 30
0.0
 10
68.666434
 20
110.090635
 30
0.0
 10
68.558526
 20
110.143912
 30
0.0
 10
68.478307
 20
110.218278
 30
0.0
 10
68.387783
 20
110.279699
 30
0.0
 10
68.311575
 20
110.372845
 30
0.0
 10
68.223326
 20
110.454654
 30
0.0
 10
68.167620
 20
110.548796
 30
0.0
 10
68.098350
 20
110.633460
 30
0.0
 10
68.051844
 20
110.744450
 30
0.0
 10
67.990556
 20
110.848021
 30
0.0
 10
67.974628
 20
110.928753
 30
0.0
 10
67.921717
 20
111.055026
 30
0.0
 10
67.887731
 20
111.368877
 30
0.0
 10
67.871459
 20
111.451361
 30
0.0
 10
67.871459
 20
126.669985
 30
0.0
 10
67.875666
 20
126.698962
 30
0.0
 10
67.872517
 20
126.728069
 30
0.0
 10
67.908493
 20
126.924586
 30
0.0
 10
67.937256
 20
127.122301
 30
0.0
 10
67.949559
 20
127.148873
 30
0.0
 10
67.954824
 20
127.177676
 30
0.0
 10
68.045301
 20
127.355796
 30
0.0
 10
68.129203
 20
127.537120
 30
0.0
 10
68.148570
 20
127.559080
 30
0.0
 10
68.161826
 20
127.585195
 30
0.0
 10
68.299288
 20
127.730139
 30
0.0
 10
68.431394
 20
127.880057
 30
0.0
 10
68.452799
 20
127.892016
 30
0.0
 10
68.476347
 20
127.916861
 30
0.0
 10
68.872333
 20
128.145146
 30
0.0
 10
68.931594
 20
128.159275
 30
0.0
 10
68.968385
 20
128.179806
 30
0.0
 10
82.345250
 20
132.526215
 30
0.0
 10
82.345250
 20
146.591483
 30
0.0
 10
82.349456
 20
146.620460
 30
0.0
 10
82.346308
 20
146.649567
 30
0.0
 10
82.382283
 20
146.846084
 30
0.0
 10
82.411046
 20
147.043799
 30
0.0
 10
82.423349
 20
147.070371
 30
0.0
 10
82.428614
 20
147.099173
 30
0.0
 10
82.519091
 20
147.277294
 30
0.0
 10
82.602993
 20
147.458618
 30
0.0
 10
82.622361
 20
147.480578
 30
0.0
 10
82.635617
 20
147.506693
 30
0.0
 10
82.773078
 20
147.651637
 30
0.0
 10
82.905185
 20
147.801555
 30
0.0
 10
82.926589
 20
147.813514
 30
0.0
 10
82.950137
 20
147.838358
 30
0.0
 10
83.346123
 20
148.066644
 30
0.0
 10
83.405385
 20
148.080772
 30
0.0
 10
83.442175
 20
148.101304
 30
0.0
 10
96.819040
 20
152.447712
 30
0.0
 10
96.819040
 20
166.512941
 30
0.0
 10
96.884842
 20
166.965257
 30
0.0
 10
97.076789
 20
167.380076
 30
0.0
 10
97.378975
 20
167.723010
 30
0.0
 10
97.915976
 20
168.022744
 30
0.0
 10
112.389780
 20
172.725567
 30
0.0
 10
112.840291
 20
172.802759
 30
0.0
  0
LWPOLYLINE
  5
101
100
AcDbEntity
  8
Layer_2
 62
7
100
AcDbPolyline
 90
6
 70
1
 10
99.994032
 20
86.311221
 30
0.0
 10
99.994032
 20
72.761761
 30
0.0
 10
112.273966
 20
68.771767
 30
0.0
 10
120.238136
 20
79.733508
 30
0.0
 10
120.238136
 20
93.282968
 30
0.0
 10
107.958205
 20
97.272962
 30
0.0
  0
LWPOLYLINE
  5
102
100
AcDbEntity
  8
Layer_2
 62
7
100
AcDbPolyline
 90
5
 70
1
 10
123.413136
 20
93.282968
 30
0.0
 10
123.413136
 20
80.371087
 30
0.0
 10
135.693068
 20
76.381097
 30
0.0
 10
143.282482
 20
86.827029
 30
0.0
 10
135.693068
 20
97.272962
 30
0.0
  0
LWPOLYLINE
  5
103
100
AcDbEntity
  8
Layer_2
 62
7
100
AcDbPolyline
 90
6
 70
1
 10
138.261693
 20
99.139179
 30
0.0
 10
146.225866
 20
88.177439
 30
0.0
 10
159.112170
 20
83.990423
 30
0.0
 10
166.701584
 20
94.436356
 30
0.0
 10
158.737411
 20
105.398096
 30
0.0
 10
145.851107
 20
109.585112
 30
0.0
  0
LWPOLYLINE
  5
104
100
AcDbEntity
  8
Layer_2
 62
7
100
AcDbPolyline
 90
5
 70
1
 10
85.520231
 20
105.595118
 30
0.0
 10
85.520231
 20
92.683240
 30
0.0
 10
97.800163
 20
88.693247
 30
0.0
 10
105.389577
 20
99.139179
 30
0.0
 10
97.800163
 20
109.585112
 30
0.0
  0
LWPOLYLINE
  5
105
100
AcDbEntity
  8
Layer_2
 62
7
100
AcDbPolyline
 90
27
 70
1
 10
114.164650
 20
105.815397
 30
0.0
 10
114.032789
 20
105.680166
 30
0.0
 10
113.907901
 20
105.538437
 30
0.0
 10
113.873714
 20
105.517032
 30
0.0
 10
113.845552
 20
105.488150
 30
0.0
 10
113.680618
 20
105.396091
 30
0.0
 10
113.520532
 20
105.295824
 30
0.0
 10
113.481657
 20
105.285029
 30
0.0
 10
113.446438
 20
105.265371
 30
0.0
 10
113.262114
 20
105.224120
 30
0.0
 10
113.080091
 20
105.173621
 30
0.0
 10
113.039763
 20
105.174415
 30
0.0
 10
113.000393
 20
105.165604
 30
0.0
 10
112.906490
 20
105.176849
 30
0.0
 10
112.623092
 20
105.182035
 30
0.0
 10
112.477426
 20
105.228250
 30
0.0
 10
112.389772
 20
105.238754
 30
0.0
 10
108.939335
 20
106.359867
 30
0.0
 10
108.939335
 20
100.292617
 30
0.0
 10
121.219267
 20
96.302624
 30
0.0
 10
124.785509
 20
101.211137
 30
0.0
 10
121.335072
 20
102.332250
 30
0.0
 10
120.925228
 20
102.534604
 30
0.0
 10
120.590027
 20
102.845346
 30
0.0
 10
120.357257
 20
103.238713
 30
0.0
 10
120.238136
 20
103.842053
 30
0.0
 10
120.238136
 20
114.174886
 30
0.0
  0
LWPOLYLINE
  5
106
100
AcDbEntity
  8
Layer_2
 62
7
100
AcDbPolyline
 90
3
 70
1
 10
125.981764
 20
97.455961
 30
0.0
 10
131.162179
 20
99.139179
 30
0.0
 10
127.960506
 20
100.179465
 30
0.0
  0
LWPOLYLINE
  5
107
100
AcDbEntity
  8
Layer_2
 62
7
100
AcDbPolyline
 90
15
 70
1
 10
137.583751
 20
113.424727
 30
0.0
 10
137.264653
 20
113.097471
 30
0.0
 10
136.865537
 20
112.874703
 30
0.0
 10
136.419495
 20
112.774881
 30
0.0
 10
135.808873
 20
112.848033
 30
0.0
 10
125.981762
 20
116.041054
 30
0.0
 10
132.055251
 20
107.681615
 30
0.0
 10
132.267881
 20
107.277006
 30
0.0
 10
132.356415
 20
106.828587
 30
0.0
 10
132.313516
 20
106.373528
 30
0.0
 10
132.055251
 20
105.815397
 30
0.0
 10
129.922765
 20
102.880282
 30
0.0
 10
135.693068
 20
101.005397
 30
0.0
 10
143.282482
 20
111.451329
 30
0.0
 10
139.716237
 20
116.359842
 30
0.0
  0
LWPOLYLINE
  5
108
100
AcDbEntity
  8
Layer_2
 62
7
100
AcDbPolyline
 90
4
 70
1
 10
123.413136
 20
104.995390
 30
0.0
 10
126.747767
 20
103.911903
 30
0.0
 10
128.808681
 20
106.748506
 30
0.0
 10
123.413136
 20
114.174836
 30
0.0
  0
LWPOLYLINE
  5
109
100
AcDbEntity
  8
Layer_2
 62
7
100
AcDbPolyline
 90
3
 70
1
 10
105.764335
 20
104.024999
 30
0.0
 10
105.764335
 20
107.391438
 30
0.0
 10
102.562660
 20
108.431724
 30
0.0
  0
LWPOLYLINE
  5
10a
100
AcDbEntity
  8
Layer_2
 62
7
100
AcDbPolyline
 90
6
 70
1
 10
71.046430
 20
125.516598
 30
0.0
 10
71.046430
 20
112.604717
 30
0.0
 10
83.932731
 20
108.417701
 30
0.0
 10
96.819032
 20
112.604717
 30
0.0
 10
96.819032
 20
125.516598
 30
0.0
 10
83.932731
 20
129.703613
 30
0.0
  0
LWPOLYLINE
  5
10b
100
AcDbEntity
  8
Layer_2
 62
7
100
AcDbPolyline
 90
4
 70
1
 10
108.939335
 20
113.204448
 30
0.0
 10
108.939335
 20
109.698211
 30
0.0
 10
112.273966
 20
108.614723
 30
0.0
 10
117.669511
 20
116.041054
 30
0.0
  0
LWPOLYLINE
  5
10c
100
AcDbEntity
  8
Layer_2
 62
7
100
AcDbPolyline
 90
5
 70
1
 10
146.832238
 20
125.516598
 30
0.0
 10
146.832238
 20
112.604717
 30
0.0
 10
159.112170
 20
108.614723
 30
0.0
 10
166.701584
 20
119.060659
 30
0.0
 10
159.112170
 20
129.506591
 30
0.0
  0
LWPOLYLINE
  5
10d
100
AcDbEntity
  8
Layer_2
 62
7
100
AcDbPolyline
 90
27
 70
1
 10
99.994032
 20
125.516598
 30
0.0
 10
99.994032
 20
112.604717
 30
0.0
 10
105.764335
 20
110.729832
 30
0.0
 10
105.764335
 20
114.357835
 30
0.0
 10
105.830137
 20
114.810151
 30
0.0
 10
106.022084
 20
115.224970
 30
0.0
 10
106.324270
 20
115.567904
 30
0.0
 10
106.861271
 20
115.867638
 30
0.0
 10
116.688378
 20
119.060658
 30
0.0
 10
106.861271
 20
122.253679
 30
0.0
 10
106.763182
 20
122.302109
 30
0.0
 10
106.658915
 20
122.335189
 30
0.0
 10
106.559334
 20
122.402756
 30
0.0
 10
106.451426
 20
122.456033
 30
0.0
 10
106.371207
 20
122.530399
 30
0.0
 10
106.280683
 20
122.591819
 30
0.0
 10
106.204475
 20
122.684966
 30
0.0
 10
106.116226
 20
122.766775
 30
0.0
 10
106.060520
 20
122.860917
 30
0.0
 10
105.991250
 20
122.945581
 30
0.0
 10
105.944744
 20
123.056571
 30
0.0
 10
105.883456
 20
123.160142
 30
0.0
 10
105.867528
 20
123.240874
 30
0.0
 10
105.814617
 20
123.367146
 30
0.0
 10
105.780631
 20
123.680998
 30
0.0
 10
105.764333
 20
123.763482
 30
0.0
 10
105.764333
 20
127.391483
 30
0.0
  0
LWPOLYLINE
  5
10e
100
AcDbEntity
  8
Layer_2
 62
7
100
AcDbPolyline
 90
4
 70
1
 10
126.962895
 20
119.060659
 30
0.0
 10
135.693068
 20
116.224053
 30
0.0
 10
137.753982
 20
119.060659
 30
0.0
 10
135.693068
 20
121.897264
 30
0.0
  0
LWPOLYLINE
  5
10f
100
AcDbEntity
  8
Layer_2
 62
7
100
AcDbPolyline
 90
3
 70
1
 10
141.678496
 20
119.060659
 30
0.0
 10
143.657238
 20
116.337151
 30
0.0
 10
143.657238
 20
121.784163
 30
0.0
  0
LWPOLYLINE
  5
110
100
AcDbEntity
  8
Layer_2
 62
7
100
AcDbPolyline
 90
29
 70
1
 10
129.922765
 20
135.241033
 30
0.0
 10
132.055251
 20
132.305917
 30
0.0
 10
132.267881
 20
131.901308
 30
0.0
 10
132.356415
 20
131.452890
 30
0.0
 10
132.313516
 20
130.997830
 30
0.0
 10
132.055251
 20
130.439700
 30
0.0
 10
125.981764
 20
122.080263
 30
0.0
 10
135.808873
 20
125.273284
 30
0.0
 10
135.916691
 20
125.291752
 30
0.0
 10
136.020493
 20
125.326278
 30
0.0
 10
136.140775
 20
125.330140
 30
0.0
 10
136.259385
 20
125.350460
 30
0.0
 10
136.367994
 20
125.337443
 30
0.0
 10
136.477333
 20
125.340962
 30
0.0
 10
136.593736
 20
125.310400
 30
0.0
 10
136.713217
 20
125.296086
 30
0.0
 10
136.813613
 20
125.252671
 30
0.0
 10
136.919425
 20
125.224889
 30
0.0
 10
137.022300
 20
125.162426
 30
0.0
 10
137.132745
 20
125.114664
 30
0.0
 10
137.216610
 20
125.044443
 30
0.0
 10
137.310122
 20
124.987664
 30
0.0
 10
137.405121
 20
124.886601
 30
0.0
 10
137.483194
 20
124.821230
 30
0.0
 10
137.522786
 20
124.761424
 30
0.0
 10
137.583751
 20
124.696569
 30
0.0
 10
139.716237
 20
121.761451
 30
0.0
 10
143.282482
 20
126.669964
 30
0.0
 10
135.693068
 20
137.115897
 30
0.0
  0
LWPOLYLINE
  5
111
100
AcDbEntity
  8
Layer_2
 62
7
100
AcDbPolyline
 90
4
 70
1
 10
108.939335
 20
128.423104
 30
0.0
 10
108.939335
 20
124.916869
 30
0.0
 10
117.669508
 20
122.080263
 30
0.0
 10
112.273966
 20
129.506591
 30
0.0
  0
LWPOLYLINE
  5
112
100
AcDbEntity
  8
Layer_2
 62
7
100
AcDbPolyline
 90
15
 70
1
 10
108.939335
 20
137.828748
 30
0.0
 10
108.939335
 20
131.761497
 30
0.0
 10
112.389772
 20
132.882611
 30
0.0
 10
112.840283
 20
132.959803
 30
0.0
 10
113.294115
 20
132.905434
 30
0.0
 10
113.713644
 20
132.724012
 30
0.0
 10
114.164650
 20
132.305917
 30
0.0
 10
120.238136
 20
123.946478
 30
0.0
 10
120.238136
 20
134.279312
 30
0.0
 10
120.303938
 20
134.731628
 30
0.0
 10
120.495885
 20
135.146447
 30
0.0
 10
120.798071
 20
135.489381
 30
0.0
 10
121.335072
 20
135.789114
 30
0.0
 10
124.785509
 20
136.910228
 30
0.0
 10
121.219267
 20
141.818741
 30
0.0
  0
LWPOLYLINE
  5
113
100
AcDbEntity
  8
Layer_2
 62
7
100
AcDbPolyline
 90
4
 70
1
 10
123.413136
 20
133.125924
 30
0.0
 10
123.413136
 20
123.946478
 30
0.0
 10
128.808681
 20
131.372808
 30
0.0
 10
126.747767
 20
134.209412
 30
0.0
  0
LWPOLYLINE
  5
114
100
AcDbEntity
  8
Layer_2
 62
7
100
AcDbPolyline
 90
6
 70
1
 10
146.225866
 20
149.943878
 30
0.0
 10
138.261693
 20
138.982135
 30
0.0
 10
145.851107
 20
128.536203
 30
0.0
 10
158.737411
 20
132.723218
 30
0.0
 10
166.701584
 20
143.684958
 30
0.0
 10
159.112170
 20
154.130891
 30
0.0
  0
LWPOLYLINE
  5
115
100
AcDbEntity
  8
Layer_2
 62
7
100
AcDbPolyline
 90
5
 70
1
 10
85.520231
 20
145.438077
 30
0.0
 10
85.520231
 20
132.526196
 30
0.0
 10
97.800163
 20
128.536203
 30
0.0
 10
105.389577
 20
138.982135
 30
0.0
 10
97.800163
 20
149.428070
 30
0.0
  0
LWPOLYLINE
  5
116
100
AcDbEntity
  8
Layer_2
 62
7
100
AcDbPolyline
 90
3
 70
1
 10
102.562660
 20
129.689590
 30
0.0
 10
105.764335
 20
130.729876
 30
0.0
 10
105.764335
 20
134.096316
 30
0.0
  0
LWPOLYLINE
  5
117
100
AcDbEntity
  8
Layer_2
 62
7
100
AcDbPolyline
 90
3
 70
1
 10
127.960506
 20
137.941849
 30
0.0
 10
131.162179
 20
138.982135
 30
0.0
 10
125.981764
 20
140.665353
 30
0.0
  0
LWPOLYLINE
  5
118
100
AcDbEntity
  8
Layer_2
 62
7
100
AcDbPolyline
 90
6
 70
1
 10
99.994032
 20
165.359554
 30
0.0
 10
99.994032
 20
151.810096
 30
0.0
 10
107.958205
 20
140.848353
 30
0.0
 10
120.238136
 20
144.838346
 30
0.0
 10
120.238136
 20
158.387807
 30
0.0
 10
112.273966
 20
169.349547
 30
0.0
  0
LWPOLYLINE
  5
119
100
AcDbEntity
  8
Layer_2
 62
7
100
AcDbPolyline
 90
5
 70
1
 10
123.413136
 20
157.750227
 30
0.0
 10
123.413136
 20
144.838346
 30
0.0
 10
135.693068
 20
140.848353
 30
0.0
 10
143.282482
 20
151.294288
 30
0.0
 10
135.693068
 20
161.740220
 30
0.0
  0
ENDSEC
  0
SECTION
  2
OBJECTS
  0
DICTIONARY
  5
C
330
0
100
AcDbDictionary
  3
ACAD_GROUP
350
D
  3
ACAD_MLINESTYLE
350
17
  0
DICTIONARY
  5
D
330
C
100
AcDbDictionary
  0
DICTIONARY
  5
1A
330
C
100
AcDbDictionary
  0
DICTIONARY
  5
17
330
C
100
AcDbDictionary
  3
STANDARD
350
18
  0
DICTIONARY
  5
19
330
C
100
AcDbDictionary
  0
ENDSEC
  0
EOF
