  0
SECTION
  2
HEADER
  9
$ACADVER
  1
AC1014
  9
$HANDSEED
  5
FFFF
  9
$INSUNITS
 70
     4
  9
$MEASUREMENT
 70
     1
  0
ENDSEC
  0
SECTION
  2
TABLES
  0
TABLE
  2
VPORT
  5
8
330
0
100
AcDbSymbolTable
 70
     4
  0
VPORT
  5
2E
330
8
100
AcDbSymbolTableRecord
100
AcDbViewportTableRecord
  2
*ACTIVE
 70
     0
 10
0.0
 20
0.0
 11
1.0
 21
1.0
 12
210.0
 22
148.5
 13
0.0
 23
0.0
 14
10.0
 24
10.0
 15
10.0
 25
10.0
 16
0.0
 26
0.0
 36
1.0
 17
0.0
 27
0.0
 37
0.0
 40
341.0
 41
1.24
 42
50.0
 43
0.0
 44
0.0
 50
0.0
 51
0.0
 71
     0
 72
   100
 73
     1
 74
     3
 75
     0
 76
     0
 77
     0
 78
     0
  0
ENDTAB
  0
TABLE
  2
LTYPE
  5
5
330
0
100
AcDbSymbolTable
 70
     1
  0
LTYPE
  5
14
330
5
100
AcDbSymbolTableRecord
100
AcDbLinetypeTableRecord
  2
BYBLOCK
 70
     0
  3

 72
    65
 73
     0
 40
0.0
  0
LTYPE
  5
15
330
5
100
AcDbSymbolTableRecord
100
AcDbLinetypeTableRecord
  2
BYLAYER
 70
     0
  3

 72
    65
 73
     0
 40
0.0
  0
LTYPE
  5
16
330
5
100
AcDbSymbolTableRecord
100
AcDbLinetypeTableRecord
  2
CONTINUOUS
 70
     0
  3
Solid line
 72
    65
 73
     0
 40
0.0
  0
ENDTAB
  0
TABLE
  2
LAYER
  5
2
100
AcDbSymbolTable
 70
5
  0
LAYER
  5
50
100
AcDbSymbolTableRecord
100
AcDbLayerTableRecord
  2
0
 70
0
  6
CONTINUOUS
  0
LAYER
  5
51
100
AcDbSymbolTableRecord
100
AcDbLayerTableRecord
  2
Layer_1
 70
0
  6
CONTINUOUS
  0
LAYER
  5
52
100
AcDbSymbolTableRecord
100
AcDbLayerTableRecord
  2
Layer_2
 70
0
  6
CONTINUOUS
  0
LAYER
  5
53
100
AcDbSymbolTableRecord
100
AcDbLayerTableRecord
  2
Layer_3
 70
0
  6
CONTINUOUS
  0
LAYER
  5
54
100
AcDbSymbolTableRecord
100
AcDbLayerTableRecord
  2
Layer_4
 70
0
  6
CONTINUOUS
  0
ENDTAB
  0
TABLE
  2
STYLE
  5
3
330
0
100
AcDbSymbolTable
 70
     1
  0
STYLE
  5
11
330
3
100
AcDbSymbolTableRecord
100
AcDbTextStyleTableRecord
  2
STANDARD
 70
     0
 40
0.0
 41
1.0
 50
0.0
 71
     0
 42
2.5
  3
txt
  4

  0
ENDTAB
  0
TABLE
  2
VIEW
  5
6
330
0
100
AcDbSymbolTable
 70
     0
  0
ENDTAB
  0
TABLE
  2
UCS
  5
7
330
0
100
AcDbSymbolTable
 70
     0
  0
ENDTAB
  0
TABLE
  2
APPID
  5
9
330
0
100
AcDbSymbolTable
 70
     2
  0
APPID
  5
12
330
9
100
AcDbSymbolTableRecord
100
AcDbRegAppTableRecord
  2
ACAD
 70
     0
  0
ENDTAB
  0
TABLE
  2
DIMSTYLE
  5
A
330
0
100
AcDbSymbolTable
 70
     1
  0
DIMSTYLE
105
27
330
A
100
AcDbSymbolTableRecord
100
AcDbDimStyleTableRecord
  2
ISO-25
 70
     0
  3

  4

  5

  6

  7

 40
1.0
 41
2.5
 42
0.625
 43
3.75
 44
1.25
 45
0.0
 46
0.0
 47
0.0
 48
0.0
140
2.5
141
2.5
142
0.0
143
0.03937007874016
144
1.0
145
0.0
146
1.0
147
0.625
 71
     0
 72
     0
 73
     0
 74
     0
 75
     0
 76
     0
 77
     1
 78
     8
170
     0
171
     3
172
     1
173
     0
174
     0
175
     0
176
     0
177
     0
178
     0
270
     2
271
     2
272
     2
273
     2
274
     3
340
11
275
     0
280
     0
281
     0
282
     0
283
     0
284
     8
285
     0
286
     0
287
     3
288
     0
  0
ENDTAB
  0
TABLE
  2
BLOCK_RECORD
  5
1
330
0
100
AcDbSymbolTable
 70
     1
  0
BLOCK_RECORD
  5
1F
330
1
100
AcDbSymbolTableRecord
100
AcDbBlockTableRecord
  2
*MODEL_SPACE
  0
BLOCK_RECORD
  5
1B
330
1
100
AcDbSymbolTableRecord
100
AcDbBlockTableRecord
  2
*PAPER_SPACE
  0
ENDTAB
  0
ENDSEC
  0
SECTION
  2
BLOCKS
  0
BLOCK
  5
20
330
1F
100
AcDbEntity
  8
0
100
AcDbBlockBegin
  2
*MODEL_SPACE
 70
     0
 10
0.0
 20
0.0
 30
0.0
  3
*MODEL_SPACE
  1

  0
ENDBLK
  5
21
330
1F
100
AcDbEntity
  8
0
100
AcDbBlockEnd
  0
BLOCK
  5
1C
330
1B
100
AcDbEntity
 67
     1
  8
0
100
AcDbBlockBegin
  2
*PAPER_SPACE
  1

  0
ENDBLK
  5
1D
330
1B
100
AcDbEntity
 67
     1
  8
0
100
AcDbBlockEnd
  0
ENDSEC
  0
SECTION
  2
ENTITIES
  0
LWPOLYLINE
  5
100
100
AcDbEntity
  8
Layer_3
 62
7
100
AcDbPolyline
 90
125
 70
1
 10
117.650114
 20
173.419103
 30
0.0
 10
127.612002
 20
170.182289
 30
0.0
 10
128.021847
 20
169.979935
 30
0.0
 10
128.357048
 20
169.669193
 30
0.0
 10
128.589818
 20
169.275826
 30
0.0
 10
128.708938
 20
168.672486
 30
0.0
 10
128.708938
 20
158.713747
 30
0.0
 10
131.532910
 20
154.826883
 30
0.0
 10
136.102196
 20
156.311534
 30
0.0
 10
141.955795
 20
164.368321
 30
0.0
 10
142.274893
 20
164.695576
 30
0.0
 10
142.674009
 20
164.918345
 30
0.0
 10
143.120052
 20
165.018167
 30
0.0
 10
143.730673
 20
164.945015
 30
0.0
 10
153.692561
 20
161.708203
 30
0.0
 10
154.102406
 20
161.505850
 30
0.0
 10
154.437607
 20
161.195107
 30
0.0
 10
154.670376
 20
160.801741
 30
0.0
 10
154.789497
 20
160.198401
 30
0.0
 10
154.789497
 20
150.239659
 30
0.0
 10
160.339910
 20
142.600175
 30
0.0
 10
169.811232
 20
139.522753
 30
0.0
 10
170.221077
 20
139.320400
 30
0.0
 10
170.556277
 20
139.009657
 30
0.0
 10
170.789047
 20
138.616290
 30
0.0
 10
170.908168
 20
138.012951
 30
0.0
 10
170.908168
 20
127.538403
 30
0.0
 10
170.842366
 20
127.086087
 30
0.0
 10
170.650419
 20
126.671268
 30
0.0
 10
170.348233
 20
126.328334
 30
0.0
 10
169.811232
 20
126.028601
 30
0.0
 10
160.339910
 20
122.951179
 30
0.0
 10
157.515938
 20
119.064315
 30
0.0
 10
160.339910
 20
115.177451
 30
0.0
 10
169.811232
 20
112.100032
 30
0.0
 10
170.221077
 20
111.897679
 30
0.0
 10
170.556277
 20
111.586936
 30
0.0
 10
170.789047
 20
111.193569
 30
0.0
 10
170.908168
 20
110.590229
 30
0.0
 10
170.908168
 20
100.115680
 30
0.0
 10
170.842366
 20
99.663364
 30
0.0
 10
170.650419
 20
99.248545
 30
0.0
 10
170.348233
 20
98.905610
 30
0.0
 10
169.811232
 20
98.605877
 30
0.0
 10
160.339910
 20
95.528458
 30
0.0
 10
154.789497
 20
87.888972
 30
0.0
 10
154.789497
 20
77.930232
 30
0.0
 10
154.723695
 20
77.477916
 30
0.0
 10
154.531748
 20
77.063097
 30
0.0
 10
154.229562
 20
76.720163
 30
0.0
 10
153.692561
 20
76.420430
 30
0.0
 10
143.730673
 20
73.183615
 30
0.0
 10
143.280162
 20
73.106423
 30
0.0
 10
142.826330
 20
73.160792
 30
0.0
 10
142.406801
 20
73.342214
 30
0.0
 10
141.955795
 20
73.760309
 30
0.0
 10
136.102196
 20
81.817096
 30
0.0
 10
131.532910
 20
83.301747
 30
0.0
 10
128.708938
 20
79.414883
 30
0.0
 10
128.708938
 20
69.456144
 30
0.0
 10
128.643137
 20
69.003828
 30
0.0
 10
128.451189
 20
68.589009
 30
0.0
 10
128.149003
 20
68.246075
 30
0.0
 10
127.612002
 20
67.946341
 30
0.0
 10
117.650114
 20
64.709529
 30
0.0
 10
117.199603
 20
64.632337
 30
0.0
 10
116.745771
 20
64.686707
 30
0.0
 10
116.326243
 20
64.868129
 30
0.0
 10
115.875237
 20
65.286223
 30
0.0
 10
110.021637
 20
73.343008
 30
0.0
 10
101.040877
 20
76.261037
 30
0.0
 10
91.569556
 20
73.183615
 30
0.0
 10
91.119045
 20
73.106423
 30
0.0
 10
90.665213
 20
73.160792
 30
0.0
 10
90.245684
 20
73.342214
 30
0.0
 10
89.794678
 20
73.760309
 30
0.0
 10
83.637893
 20
82.234397
 30
0.0
 10
83.425263
 20
82.639006
 30
0.0
 10
83.336728
 20
83.087424
 30
0.0
 10
83.379628
 20
83.542484
 30
0.0
 10
83.637893
 20
84.100614
 30
0.0
 10
89.491492
 20
92.157402
 30
0.0
 10
89.491492
 20
96.961833
 30
0.0
 10
84.922207
 20
98.446484
 30
0.0
 10
75.450883
 20
95.369065
 30
0.0
 10
75.000371
 20
95.291873
 30
0.0
 10
74.546539
 20
95.346242
 30
0.0
 10
74.127011
 20
95.527664
 30
0.0
 10
73.676005
 20
95.945759
 30
0.0
 10
67.519219
 20
104.419845
 30
0.0
 10
67.306590
 20
104.824451
 30
0.0
 10
67.218055
 20
105.272872
 30
0.0
 10
67.260954
 20
105.727931
 30
0.0
 10
67.519219
 20
106.286062
 30
0.0
 10
73.372819
 20
114.342849
 30
0.0
 10
73.372819
 20
123.785781
 30
0.0
 10
67.519219
 20
131.842568
 30
0.0
 10
67.306590
 20
132.247177
 30
0.0
 10
67.218055
 20
132.695595
 30
0.0
 10
67.260954
 20
133.150655
 30
0.0
 10
67.519219
 20
133.708786
 30
0.0
 10
73.676005
 20
142.182874
 30
0.0
 10
73.995103
 20
142.510129
 30
0.0
 10
74.394219
 20
142.732898
 30
0.0
 10
74.840261
 20
142.832720
 30
0.0
 10
75.450883
 20
142.759568
 30
0.0
 10
84.922207
 20
139.682146
 30
0.0
 10
89.491492
 20
141.166797
 30
0.0
 10
89.491492
 20
145.971231
 30
0.0
 10
83.637893
 20
154.028016
 30
0.0
 10
83.425263
 20
154.432622
 30
0.0
 10
83.336728
 20
154.881043
 30
0.0
 10
83.379628
 20
155.336102
 30
0.0
 10
83.637893
 20
155.894233
 30
0.0
 10
89.794678
 20
164.368321
 30
0.0
 10
90.113776
 20
164.695576
 30
0.0
 10
90.512892
 20
164.918345
 30
0.0
 10
90.958935
 20
165.018167
 30
0.0
 10
91.569556
 20
164.945015
 30
0.0
 10
101.040877
 20
161.867596
 30
0.0
 10
110.021637
 20
164.785622
 30
0.0
 10
115.875237
 20
172.842409
 30
0.0
 10
116.194335
 20
173.169665
 30
0.0
 10
116.593451
 20
173.392433
 30
0.0
 10
117.039493
 20
173.492255
 30
0.0
  0
LWPOLYLINE
  5
101
100
AcDbEntity
  8
Layer_3
 62
7
100
AcDbPolyline
 90
5
 70
1
 10
112.965024
 20
74.693418
 30
0.0
 10
117.765920
 20
68.085549
 30
0.0
 10
125.533938
 20
70.609531
 30
0.0
 10
125.533938
 20
78.777304
 30
0.0
 10
117.765920
 20
81.301288
 30
0.0
  0
LWPOLYLINE
  5
102
100
AcDbEntity
  8
Layer_3
 62
7
100
AcDbPolyline
 90
5
 70
1
 10
86.884462
 20
83.167506
 30
0.0
 10
91.685361
 20
76.559635
 30
0.0
 10
99.453377
 20
79.083617
 30
0.0
 10
99.453377
 20
87.251394
 30
0.0
 10
91.685361
 20
89.775377
 30
0.0
  0
LWPOLYLINE
  5
103
100
AcDbEntity
  8
Layer_3
 62
7
100
AcDbPolyline
 90
5
 70
1
 10
102.628377
 20
87.251392
 30
0.0
 10
102.628377
 20
79.083620
 30
0.0
 10
110.396396
 20
76.559635
 30
0.0
 10
115.197295
 20
83.167506
 30
0.0
 10
110.396396
 20
89.775377
 30
0.0
  0
LWPOLYLINE
  5
104
100
AcDbEntity
  8
Layer_3
 62
7
100
AcDbPolyline
 90
5
 70
1
 10
139.045580
 20
83.167506
 30
0.0
 10
143.846479
 20
76.559635
 30
0.0
 10
151.614497
 20
79.083620
 30
0.0
 10
151.614497
 20
87.251392
 30
0.0
 10
143.846479
 20
89.775377
 30
0.0
  0
LWPOLYLINE
  5
105
100
AcDbEntity
  8
Layer_3
 62
7
100
AcDbPolyline
 90
58
 70
1
 10
96.168408
 20
95.945759
 30
0.0
 10
96.036548
 20
95.810528
 30
0.0
 10
95.911659
 20
95.668798
 30
0.0
 10
95.877473
 20
95.647394
 30
0.0
 10
95.849310
 20
95.618512
 30
0.0
 10
95.684377
 20
95.526453
 30
0.0
 10
95.524291
 20
95.426186
 30
0.0
 10
95.485416
 20
95.415391
 30
0.0
 10
95.450197
 20
95.395732
 30
0.0
 10
95.265872
 20
95.354481
 30
0.0
 10
95.083850
 20
95.303983
 30
0.0
 10
95.043522
 20
95.304777
 30
0.0
 10
95.004152
 20
95.295966
 30
0.0
 10
94.910249
 20
95.307211
 30
0.0
 10
94.626851
 20
95.312397
 30
0.0
 10
94.481184
 20
95.358611
 30
0.0
 10
94.393531
 20
95.369115
 30
0.0
 10
92.666492
 20
95.930265
 30
0.0
 10
92.666492
 20
92.795029
 30
0.0
 10
101.040877
 20
90.074025
 30
0.0
 10
110.512201
 20
93.151447
 30
0.0
 10
110.962713
 20
93.228639
 30
0.0
 10
111.416544
 20
93.174270
 30
0.0
 10
111.836073
 20
92.992848
 30
0.0
 10
112.287079
 20
92.574753
 30
0.0
 10
118.140678
 20
84.517966
 30
0.0
 10
126.515069
 20
81.796959
 30
0.0
 10
128.357910
 20
84.333416
 30
0.0
 10
126.630875
 20
84.894566
 30
0.0
 10
126.532786
 20
84.942995
 30
0.0
 10
126.428519
 20
84.976076
 30
0.0
 10
126.328937
 20
85.043642
 30
0.0
 10
126.221030
 20
85.096919
 30
0.0
 10
126.140811
 20
85.171285
 30
0.0
 10
126.050286
 20
85.232706
 30
0.0
 10
125.974078
 20
85.325852
 30
0.0
 10
125.885829
 20
85.407661
 30
0.0
 10
125.830124
 20
85.501803
 30
0.0
 10
125.760853
 20
85.586467
 30
0.0
 10
125.714347
 20
85.697457
 30
0.0
 10
125.653059
 20
85.801028
 30
0.0
 10
125.637131
 20
85.881760
 30
0.0
 10
125.584220
 20
86.008033
 30
0.0
 10
125.550234
 20
86.321884
 30
0.0
 10
125.533936
 20
86.404368
 30
0.0
 10
125.533936
 20
94.693909
 30
0.0
 10
117.650112
 20
92.132301
 30
0.0
 10
117.199601
 20
92.055109
 30
0.0
 10
116.745769
 20
92.109478
 30
0.0
 10
116.326240
 20
92.290900
 30
0.0
 10
115.875234
 20
92.708995
 30
0.0
 10
112.748076
 20
97.013160
 30
0.0
 10
107.688224
 20
95.369115
 30
0.0
 10
107.237713
 20
95.291923
 30
0.0
 10
106.783881
 20
95.346292
 30
0.0
 10
106.364352
 20
95.527715
 30
0.0
 10
105.913346
 20
95.945809
 30
0.0
 10
101.040875
 20
102.652190
 30
0.0
  0
LWPOLYLINE
  5
106
100
AcDbEntity
  8
Layer_3
 62
7
100
AcDbPolyline
 90
58
 70
1
 10
144.827609
 20
108.589768
 30
0.0
 10
144.761807
 20
108.137452
 30
0.0
 10
144.569860
 20
107.722633
 30
0.0
 10
144.267674
 20
107.379699
 30
0.0
 10
143.880306
 20
107.137078
 30
0.0
 10
143.786244
 20
107.110990
 30
0.0
 10
143.730673
 20
107.079973
 30
0.0
 10
138.670824
 20
105.435929
 30
0.0
 10
138.670824
 20
100.115688
 30
0.0
 10
138.605022
 20
99.663372
 30
0.0
 10
138.413075
 20
99.248553
 30
0.0
 10
138.110889
 20
98.905618
 30
0.0
 10
137.573888
 20
98.605885
 30
0.0
 10
129.690066
 20
96.044277
 30
0.0
 10
134.562535
 20
89.337896
 30
0.0
 10
134.608321
 20
89.250769
 30
0.0
 10
134.667823
 20
89.172357
 30
0.0
 10
134.685445
 20
89.104018
 30
0.0
 10
134.775168
 20
88.933287
 30
0.0
 10
134.863702
 20
88.484869
 30
0.0
 10
134.858728
 20
88.431971
 30
0.0
 10
134.865740
 20
88.404787
 30
0.0
 10
134.838548
 20
88.217875
 30
0.0
 10
134.820821
 20
88.029809
 30
0.0
 10
134.806772
 20
87.999456
 30
0.0
 10
134.799946
 20
87.952472
 30
0.0
 10
134.607999
 20
87.537652
 30
0.0
 10
134.576603
 20
87.502024
 30
0.0
 10
134.562554
 20
87.471679
 30
0.0
 10
133.495185
 20
86.002572
 30
0.0
 10
136.476973
 20
85.033731
 30
0.0
 10
141.652628
 20
92.157410
 30
0.0
 10
141.652628
 20
102.116149
 30
0.0
 10
141.718430
 20
102.568465
 30
0.0
 10
141.910377
 20
102.983284
 30
0.0
 10
142.212563
 20
103.326218
 30
0.0
 10
142.749564
 20
103.625952
 30
0.0
 10
152.220888
 20
106.703371
 30
0.0
 10
157.396545
 20
113.827049
 30
0.0
 10
155.553698
 20
116.363509
 30
0.0
 10
154.486330
 20
114.894402
 30
0.0
 10
154.354469
 20
114.759171
 30
0.0
 10
154.229581
 20
114.617442
 30
0.0
 10
154.195394
 20
114.596037
 30
0.0
 10
154.167231
 20
114.567155
 30
0.0
 10
154.002290
 20
114.475091
 30
0.0
 10
153.842212
 20
114.374829
 30
0.0
 10
153.803342
 20
114.364034
 30
0.0
 10
153.768115
 20
114.344376
 30
0.0
 10
153.583770
 20
114.303122
 30
0.0
 10
153.401771
 20
114.252629
 30
0.0
 10
153.361443
 20
114.253423
 30
0.0
 10
153.322073
 20
114.244612
 30
0.0
 10
153.228170
 20
114.255857
 30
0.0
 10
152.944772
 20
114.261043
 30
0.0
 10
152.799105
 20
114.307258
 30
0.0
 10
152.711452
 20
114.317761
 30
0.0
 10
144.827628
 20
116.879370
 30
0.0
  0
LWPOLYLINE
  5
107
100
AcDbEntity
  8
Layer_3
 62
7
100
AcDbPolyline
 90
4
 70
1
 10
128.708938
 20
87.557705
 30
0.0
 10
130.320169
 20
87.034185
 30
0.0
 10
131.315965
 20
88.404779
 30
0.0
 10
128.708938
 20
91.993045
 30
0.0
  0
LWPOLYLINE
  5
108
100
AcDbEntity
  8
Layer_3
 62
7
100
AcDbPolyline
 90
5
 70
1
 10
144.827609
 20
100.962754
 30
0.0
 10
144.827609
 20
92.794982
 30
0.0
 10
152.595628
 20
90.270997
 30
0.0
 10
157.396524
 20
96.878868
 30
0.0
 10
152.595628
 20
103.486736
 30
0.0
  0
LWPOLYLINE
  5
109
100
AcDbEntity
  8
Layer_3
 62
7
100
AcDbPolyline
 90
28
 70
1
 10
118.747051
 20
109.436842
 30
0.0
 10
118.747051
 20
100.115680
 30
0.0
 10
118.681249
 20
99.663364
 30
0.0
 10
118.489301
 20
99.248545
 30
0.0
 10
118.187115
 20
98.905610
 30
0.0
 10
117.650114
 20
98.605877
 30
0.0
 10
115.923076
 20
98.044728
 30
0.0
 10
117.765920
 20
95.508270
 30
0.0
 10
135.495824
 20
101.269067
 30
0.0
 10
135.495824
 20
104.404300
 30
0.0
 10
133.768785
 20
103.843151
 30
0.0
 10
133.621738
 20
103.817962
 30
0.0
 10
133.477976
 20
103.778079
 30
0.0
 10
133.397556
 20
103.779667
 30
0.0
 10
133.318274
 20
103.766093
 30
0.0
 10
133.170142
 20
103.783847
 30
0.0
 10
133.020977
 20
103.786572
 30
0.0
 10
132.944306
 20
103.810887
 30
0.0
 10
132.864442
 20
103.820465
 30
0.0
 10
132.727515
 20
103.879679
 30
0.0
 10
132.585301
 20
103.924799
 30
0.0
 10
132.518735
 20
103.969966
 30
0.0
 10
132.444913
 20
104.001888
 30
0.0
 10
132.371827
 20
104.069639
 30
0.0
 10
132.207069
 20
104.181428
 30
0.0
 10
132.068372
 20
104.350950
 30
0.0
 10
131.993907
 20
104.419982
 30
0.0
 10
126.515069
 20
111.960962
 30
0.0
  0
LWPOLYLINE
  5
10a
100
AcDbEntity
  8
Layer_3
 62
7
100
AcDbPolyline
 90
5
 70
1
 10
70.765792
 20
105.352953
 30
0.0
 10
75.566688
 20
98.745085
 30
0.0
 10
83.334707
 20
101.269067
 30
0.0
 10
83.334707
 20
109.436842
 30
0.0
 10
75.566688
 20
111.960824
 30
0.0
  0
LWPOLYLINE
  5
10b
100
AcDbEntity
  8
Layer_3
 62
7
100
AcDbPolyline
 90
4
 70
1
 10
92.666492
 20
100.962754
 30
0.0
 10
92.666492
 20
99.268605
 30
0.0
 10
94.277725
 20
98.745085
 30
0.0
 10
96.884749
 20
102.333351
 30
0.0
  0
LWPOLYLINE
  5
10c
100
AcDbEntity
  8
Layer_3
 62
7
100
AcDbPolyline
 90
16
 70
1
 10
101.531441
 20
114.317701
 30
0.0
 10
101.080930
 20
114.240508
 30
0.0
 10
100.627098
 20
114.294878
 30
0.0
 10
100.207569
 20
114.476300
 30
0.0
 10
99.756563
 20
114.894394
 30
0.0
 10
98.689194
 20
116.363501
 30
0.0
 10
96.846350
 20
113.827041
 30
0.0
 10
107.804032
 20
98.745085
 30
0.0
 10
110.785820
 20
99.713926
 30
0.0
 10
109.718451
 20
101.183033
 30
0.0
 10
109.505821
 20
101.587641
 30
0.0
 10
109.417287
 20
102.036060
 30
0.0
 10
109.460186
 20
102.491119
 30
0.0
 10
109.718451
 20
103.049250
 30
0.0
 10
115.197292
 20
110.590229
 30
0.0
 10
110.396396
 20
117.198098
 30
0.0
  0
LWPOLYLINE
  5
10d
100
AcDbEntity
  8
Layer_3
 62
7
100
AcDbPolyline
 90
5
 70
1
 10
155.164256
 20
105.352953
 30
0.0
 10
159.965152
 20
98.745085
 30
0.0
 10
167.733168
 20
101.269067
 30
0.0
 10
167.733168
 20
109.436842
 30
0.0
 10
159.965152
 20
111.960824
 30
0.0
  0
LWPOLYLINE
  5
10e
100
AcDbEntity
  8
Layer_3
 62
7
100
AcDbPolyline
 90
59
 70
1
 10
86.509707
 20
136.859563
 30
0.0
 10
86.509707
 20
128.054211
 30
0.0
 10
92.363306
 20
119.997424
 30
0.0
 10
92.575936
 20
119.592815
 30
0.0
 10
92.664470
 20
119.144396
 30
0.0
 10
92.621571
 20
118.689337
 30
0.0
 10
92.363306
 20
118.131206
 30
0.0
 10
86.509707
 20
110.074422
 30
0.0
 10
86.509707
 20
101.269067
 30
0.0
 10
89.491492
 20
100.300226
 30
0.0
 10
89.491492
 20
102.116141
 30
0.0
 10
89.495699
 20
102.145118
 30
0.0
 10
89.492550
 20
102.174225
 30
0.0
 10
89.528526
 20
102.370742
 30
0.0
 10
89.557288
 20
102.568457
 30
0.0
 10
89.569592
 20
102.595029
 30
0.0
 10
89.574857
 20
102.623832
 30
0.0
 10
89.665334
 20
102.801952
 30
0.0
 10
89.749236
 20
102.983276
 30
0.0
 10
89.768603
 20
103.005236
 30
0.0
 10
89.781859
 20
103.031351
 30
0.0
 10
89.919321
 20
103.176295
 30
0.0
 10
90.051427
 20
103.326213
 30
0.0
 10
90.072832
 20
103.338172
 30
0.0
 10
90.096380
 20
103.363017
 30
0.0
 10
90.492366
 20
103.591302
 30
0.0
 10
90.551627
 20
103.605431
 30
0.0
 10
90.588417
 20
103.625962
 30
0.0
 10
98.472241
 20
106.187571
 30
0.0
 10
93.599770
 20
112.893951
 30
0.0
 10
93.387140
 20
113.298560
 30
0.0
 10
93.298605
 20
113.746979
 30
0.0
 10
93.341505
 20
114.202038
 30
0.0
 10
93.599770
 20
114.760169
 30
0.0
 10
96.726928
 20
119.064334
 30
0.0
 10
93.599770
 20
123.368499
 30
0.0
 10
93.387140
 20
123.773107
 30
0.0
 10
93.298605
 20
124.221526
 30
0.0
 10
93.341505
 20
124.676585
 30
0.0
 10
93.599770
 20
125.234716
 30
0.0
 10
98.472239
 20
131.941096
 30
0.0
 10
90.588417
 20
134.502708
 30
0.0
 10
90.490328
 20
134.551137
 30
0.0
 10
90.386061
 20
134.584218
 30
0.0
 10
90.286480
 20
134.651784
 30
0.0
 10
90.178572
 20
134.705061
 30
0.0
 10
90.098353
 20
134.779427
 30
0.0
 10
90.007829
 20
134.840848
 30
0.0
 10
89.931621
 20
134.933994
 30
0.0
 10
89.843372
 20
135.015803
 30
0.0
 10
89.787666
 20
135.109945
 30
0.0
 10
89.718396
 20
135.194609
 30
0.0
 10
89.671890
 20
135.305599
 30
0.0
 10
89.610602
 20
135.409170
 30
0.0
 10
89.594674
 20
135.489902
 30
0.0
 10
89.541763
 20
135.616175
 30
0.0
 10
89.507777
 20
135.930026
 30
0.0
 10
89.491479
 20
136.012510
 30
0.0
 10
89.491479
 20
137.828425
 30
0.0
  0
LWPOLYLINE
  5
10f
100
AcDbEntity
  8
Layer_3
 62
7
100
AcDbPolyline
 90
4
 70
1
 10
112.965021
 20
102.116141
 30
0.0
 10
113.960817
 20
100.745544
 30
0.0
 10
115.572051
 20
101.269067
 30
0.0
 10
115.572051
 20
105.704407
 30
0.0
  0
LWPOLYLINE
  5
110
100
AcDbEntity
  8
Layer_3
 62
7
100
AcDbPolyline
 90
4
 70
1
 10
133.884591
 20
107.219171
 30
0.0
 10
135.495824
 20
107.742694
 30
0.0
 10
135.495824
 20
109.436842
 30
0.0
 10
131.277564
 20
110.807439
 30
0.0
  0
LWPOLYLINE
  5
111
100
AcDbEntity
  8
Layer_3
 62
7
100
AcDbPolyline
 90
18
 70
1
 10
138.670824
 20
127.538403
 30
0.0
 10
138.605022
 20
127.086087
 30
0.0
 10
138.413075
 20
126.671268
 30
0.0
 10
138.110889
 20
126.328334
 30
0.0
 10
137.723520
 20
126.085714
 30
0.0
 10
137.629458
 20
126.059626
 30
0.0
 10
137.573888
 20
126.028609
 30
0.0
 10
128.708938
 20
123.148212
 30
0.0
 10
128.708938
 20
114.980437
 30
0.0
 10
137.573888
 20
112.100040
 30
0.0
 10
137.983733
 20
111.897687
 30
0.0
 10
138.318933
 20
111.586944
 30
0.0
 10
138.551703
 20
111.193577
 30
0.0
 10
138.670824
 20
110.590237
 30
0.0
 10
138.670824
 20
108.774320
 30
0.0
 10
141.652609
 20
109.743163
 30
0.0
 10
141.652609
 20
128.385483
 30
0.0
 10
138.670824
 20
129.354326
 30
0.0
  0
LWPOLYLINE
  5
112
100
AcDbEntity
  8
Layer_3
 62
7
100
AcDbPolyline
 90
5
 70
1
 10
76.547819
 20
123.148201
 30
0.0
 10
76.547819
 20
114.980429
 30
0.0
 10
84.315837
 20
112.456447
 30
0.0
 10
89.116733
 20
119.064315
 30
0.0
 10
84.315837
 20
125.672186
 30
0.0
  0
LWPOLYLINE
  5
113
100
AcDbEntity
  8
Layer_3
 62
7
100
AcDbPolyline
 90
5
 70
1
 10
112.965024
 20
119.064315
 30
0.0
 10
117.765920
 20
112.456447
 30
0.0
 10
125.533938
 20
114.980429
 30
0.0
 10
125.533938
 20
123.148201
 30
0.0
 10
117.765920
 20
125.672186
 30
0.0
  0
LWPOLYLINE
  5
114
100
AcDbEntity
  8
Layer_3
 62
7
100
AcDbPolyline
 90
4
 70
1
 10
100.651453
 20
119.064315
 30
0.0
 10
101.647247
 20
117.693720
 30
0.0
 10
105.865507
 20
119.064315
 30
0.0
 10
101.647247
 20
120.434912
 30
0.0
  0
LWPOLYLINE
  5
115
100
AcDbEntity
  8
Layer_3
 62
7
100
AcDbPolyline
 90
4
 70
1
 10
148.377368
 20
119.064315
 30
0.0
 10
152.595628
 20
117.693720
 30
0.0
 10
153.591421
 20
119.064315
 30
0.0
 10
152.595628
 20
120.434912
 30
0.0
  0
LWPOLYLINE
  5
116
100
AcDbEntity
  8
Layer_3
 62
7
100
AcDbPolyline
 90
29
 70
1
 10
96.846350
 20
124.301589
 30
0.0
 10
98.689194
 20
121.765131
 30
0.0
 10
99.756563
 20
123.234238
 30
0.0
 10
100.075661
 20
123.561494
 30
0.0
 10
100.474775
 20
123.784262
 30
0.0
 10
100.920820
 20
123.884084
 30
0.0
 10
101.531441
 20
123.810932
 30
0.0
 10
110.396396
 20
120.930532
 30
0.0
 10
115.197295
 20
127.538403
 30
0.0
 10
109.718451
 20
135.079383
 30
0.0
 10
109.686151
 20
135.140846
 30
0.0
 10
109.642180
 20
135.194590
 30
0.0
 10
109.580302
 20
135.342265
 30
0.0
 10
109.505821
 20
135.483992
 30
0.0
 10
109.492381
 20
135.552111
 30
0.0
 10
109.465544
 20
135.616156
 30
0.0
 10
109.448293
 20
135.775335
 30
0.0
 10
109.417281
 20
135.932410
 30
0.0
 10
109.423790
 20
136.001543
 30
0.0
 10
109.416329
 20
136.070575
 30
0.0
 10
109.445158
 20
136.228058
 30
0.0
 10
109.460186
 20
136.387470
 30
0.0
 10
109.483602
 20
136.438082
 30
0.0
 10
109.498630
 20
136.520182
 30
0.0
 10
109.705627
 20
136.927698
 30
0.0
 10
109.714490
 20
136.937038
 30
0.0
 10
109.718459
 20
136.945611
 30
0.0
 10
110.785828
 20
138.414715
 30
0.0
 10
107.804040
 20
139.383558
 30
0.0
  0
LWPOLYLINE
  5
117
100
AcDbEntity
  8
Layer_3
 62
7
100
AcDbPolyline
 90
65
 70
1
 10
133.495166
 20
152.126066
 30
0.0
 10
134.562535
 20
150.656959
 30
0.0
 10
134.608321
 20
150.569832
 30
0.0
 10
134.667823
 20
150.491420
 30
0.0
 10
134.685445
 20
150.423081
 30
0.0
 10
134.775168
 20
150.252351
 30
0.0
 10
134.863702
 20
149.803932
 30
0.0
 10
134.858728
 20
149.751034
 30
0.0
 10
134.865740
 20
149.723851
 30
0.0
 10
134.838548
 20
149.536938
 30
0.0
 10
134.820821
 20
149.348873
 30
0.0
 10
134.806772
 20
149.318520
 30
0.0
 10
134.799946
 20
149.271535
 30
0.0
 10
134.607998
 20
148.856716
 30
0.0
 10
134.576603
 20
148.821087
 30
0.0
 10
134.562554
 20
148.790742
 30
0.0
 10
129.690085
 20
142.084362
 30
0.0
 10
137.573906
 20
139.522753
 30
0.0
 10
137.983751
 20
139.320400
 30
0.0
 10
138.318952
 20
139.009657
 30
0.0
 10
138.551722
 20
138.616290
 30
0.0
 10
138.670842
 20
138.012951
 30
0.0
 10
138.670842
 20
132.692709
 30
0.0
 10
143.730692
 20
131.048665
 30
0.0
 10
143.854678
 20
130.987448
 30
0.0
 10
143.984842
 20
130.940844
 30
0.0
 10
144.058555
 20
130.886787
 30
0.0
 10
144.140536
 20
130.846311
 30
0.0
 10
144.241943
 20
130.752302
 30
0.0
 10
144.353431
 20
130.670546
 30
0.0
 10
144.408692
 20
130.597722
 30
0.0
 10
144.475737
 20
130.535569
 30
0.0
 10
144.546151
 20
130.416575
 30
0.0
 10
144.629730
 20
130.306432
 30
0.0
 10
144.643938
 20
130.251316
 30
0.0
 10
144.708504
 20
130.142202
 30
0.0
 10
144.827625
 20
129.538862
 30
0.0
 10
144.827625
 20
121.249321
 30
0.0
 10
152.711449
 20
123.810932
 30
0.0
 10
152.886881
 20
123.840991
 30
0.0
 10
153.060014
 20
123.882266
 30
0.0
 10
153.111319
 20
123.879435
 30
0.0
 10
153.161960
 20
123.888114
 30
0.0
 10
153.338686
 20
123.866947
 30
0.0
 10
153.516401
 20
123.857184
 30
0.0
 10
153.564775
 20
123.839854
 30
0.0
 10
153.615792
 20
123.833742
 30
0.0
 10
153.779156
 20
123.763095
 30
0.0
 10
153.946728
 20
123.703099
 30
0.0
 10
153.988161
 20
123.672714
 30
0.0
 10
154.035321
 20
123.652314
 30
0.0
 10
154.108579
 20
123.584404
 30
0.0
 10
154.315316
 20
123.432795
 30
0.0
 10
154.417781
 20
123.297762
 30
0.0
 10
154.486327
 20
123.234220
 30
0.0
 10
155.553696
 20
121.765113
 30
0.0
 10
157.396540
 20
124.301570
 30
0.0
 10
152.220885
 20
131.425249
 30
0.0
 10
142.749561
 20
134.502671
 30
0.0
 10
142.339716
 20
134.705024
 30
0.0
 10
142.004516
 20
135.015766
 30
0.0
 10
141.771746
 20
135.409133
 30
0.0
 10
141.652625
 20
136.012473
 30
0.0
 10
141.652625
 20
145.971231
 30
0.0
 10
136.476954
 20
153.094907
 30
0.0
  0
LWPOLYLINE
  5
118
100
AcDbEntity
  8
Layer_3
 62
7
100
AcDbPolyline
 90
5
 70
1
 10
70.765789
 20
132.775677
 30
0.0
 10
75.566688
 20
126.167806
 30
0.0
 10
83.334707
 20
128.691791
 30
0.0
 10
83.334707
 20
136.859563
 30
0.0
 10
75.566688
 20
139.383548
 30
0.0
  0
LWPOLYLINE
  5
119
100
AcDbEntity
  8
Layer_3
 62
7
100
AcDbPolyline
 90
28
 70
1
 10
115.923076
 20
140.083902
 30
0.0
 10
117.650114
 20
139.522753
 30
0.0
 10
118.059959
 20
139.320400
 30
0.0
 10
118.395160
 20
139.009657
 30
0.0
 10
118.627930
 20
138.616290
 30
0.0
 10
118.747051
 20
138.012951
 30
0.0
 10
118.747051
 20
128.691791
 30
0.0
 10
126.515069
 20
126.167806
 30
0.0
 10
131.993907
 20
133.708786
 30
0.0
 10
132.145881
 20
133.864644
 30
0.0
 10
132.295620
 20
134.022531
 30
0.0
 10
132.305250
 20
134.028087
 30
0.0
 10
132.313003
 20
134.036051
 30
0.0
 10
132.503127
 20
134.142170
 30
0.0
 10
132.691603
 20
134.250827
 30
0.0
 10
132.702424
 20
134.253473
 30
0.0
 10
132.712135
 20
134.258897
 30
0.0
 10
132.924526
 20
134.306429
 30
0.0
 10
133.136238
 20
134.356901
 30
0.0
 10
133.147324
 20
134.356372
 30
0.0
 10
133.158172
 20
134.358753
 30
0.0
 10
133.204797
 20
134.353170
 30
0.0
 10
133.592618
 20
134.331845
 30
0.0
 10
133.698178
 20
134.294049
 30
0.0
 10
133.768793
 20
134.285583
 30
0.0
 10
135.495832
 20
133.724433
 30
0.0
 10
135.495832
 20
136.859666
 30
0.0
 10
117.765928
 20
142.620463
 30
0.0
  0
LWPOLYLINE
  5
11a
100
AcDbEntity
  8
Layer_3
 62
7
100
AcDbPolyline
 90
5
 70
1
 10
155.164253
 20
132.775677
 30
0.0
 10
159.965152
 20
126.167806
 30
0.0
 10
167.733168
 20
128.691788
 30
0.0
 10
167.733168
 20
136.859566
 30
0.0
 10
159.965152
 20
139.383548
 30
0.0
  0
LWPOLYLINE
  5
11b
100
AcDbEntity
  8
Layer_3
 62
7
100
AcDbPolyline
 90
4
 70
1
 10
131.277566
 20
127.321194
 30
0.0
 10
135.495824
 20
128.691788
 30
0.0
 10
135.495824
 20
130.385936
 30
0.0
 10
133.884591
 20
130.909460
 30
0.0
  0
LWPOLYLINE
  5
11c
100
AcDbEntity
  8
Layer_3
 62
7
100
AcDbPolyline
 90
4
 70
1
 10
112.965024
 20
136.012492
 30
0.0
 10
115.572051
 20
132.424226
 30
0.0
 10
115.572051
 20
136.859563
 30
0.0
 10
113.960817
 20
137.383086
 30
0.0
  0
LWPOLYLINE
  5
11d
100
AcDbEntity
  8
Layer_3
 62
7
100
AcDbPolyline
 90
5
 70
1
 10
144.827609
 20
145.333651
 30
0.0
 10
144.827609
 20
137.165879
 30
0.0
 10
152.595628
 20
134.641894
 30
0.0
 10
157.396524
 20
141.249765
 30
0.0
 10
152.595628
 20
147.857633
 30
0.0
  0
LWPOLYLINE
  5
11e
100
AcDbEntity
  8
Layer_3
 62
7
100
AcDbPolyline
 90
59
 70
1
 10
118.140678
 20
153.610715
 30
0.0
 10
112.287079
 20
145.553930
 30
0.0
 10
111.967981
 20
145.226675
 30
0.0
 10
111.568865
 20
145.003904
 30
0.0
 10
111.122822
 20
144.904084
 30
0.0
 10
110.512201
 20
144.977236
 30
0.0
 10
101.040877
 20
148.054655
 30
0.0
 10
92.666492
 20
145.333651
 30
0.0
 10
92.666492
 20
142.198418
 30
0.0
 10
94.393531
 20
142.759568
 30
0.0
 10
94.844042
 20
142.836760
 30
0.0
 10
95.297874
 20
142.782391
 30
0.0
 10
95.717402
 20
142.600968
 30
0.0
 10
96.168408
 20
142.182874
 30
0.0
 10
101.040877
 20
135.476491
 30
0.0
 10
105.913349
 20
142.182874
 30
0.0
 10
106.232447
 20
142.510129
 30
0.0
 10
106.631560
 20
142.732898
 30
0.0
 10
107.077605
 20
142.832720
 30
0.0
 10
107.688227
 20
142.759568
 30
0.0
 10
112.748079
 20
141.115521
 30
0.0
 10
115.875237
 20
145.419686
 30
0.0
 10
116.027211
 20
145.575544
 30
0.0
 10
116.176949
 20
145.733431
 30
0.0
 10
116.186580
 20
145.738988
 30
0.0
 10
116.194332
 20
145.746952
 30
0.0
 10
116.384488
 20
145.853089
 30
0.0
 10
116.572932
 20
145.961727
 30
0.0
 10
116.583727
 20
145.964373
 30
0.0
 10
116.593437
 20
145.969797
 30
0.0
 10
116.805900
 20
146.017342
 30
0.0
 10
117.017538
 20
146.067799
 30
0.0
 10
117.028624
 20
146.067269
 30
0.0
 10
117.039472
 20
146.069651
 30
0.0
 10
117.086097
 20
146.064068
 30
0.0
 10
117.473918
 20
146.042769
 30
0.0
 10
117.579479
 20
146.004973
 30
0.0
 10
117.650093
 20
145.996507
 30
0.0
 10
125.533917
 20
143.434898
 30
0.0
 10
125.533917
 20
151.724312
 30
0.0
 10
125.538124
 20
151.753290
 30
0.0
 10
125.534976
 20
151.782396
 30
0.0
 10
125.570951
 20
151.978913
 30
0.0
 10
125.599714
 20
152.176628
 30
0.0
 10
125.612017
 20
152.203200
 30
0.0
 10
125.617282
 20
152.232003
 30
0.0
 10
125.707759
 20
152.410123
 30
0.0
 10
125.791661
 20
152.591447
 30
0.0
 10
125.811029
 20
152.613408
 30
0.0
 10
125.824284
 20
152.639522
 30
0.0
 10
125.961746
 20
152.784466
 30
0.0
 10
126.093852
 20
152.934384
 30
0.0
 10
126.115257
 20
152.946343
 30
0.0
 10
126.138805
 20
152.971188
 30
0.0
 10
126.534791
 20
153.199473
 30
0.0
 10
126.594052
 20
153.213602
 30
0.0
 10
126.630843
 20
153.234133
 30
0.0
 10
128.357879
 20
153.795283
 30
0.0
 10
126.515037
 20
156.331740
 30
0.0
  0
LWPOLYLINE
  5
11f
100
AcDbEntity
  8
Layer_3
 62
7
100
AcDbPolyline
 90
4
 70
1
 10
92.666492
 20
138.860025
 30
0.0
 10
92.666492
 20
137.165876
 30
0.0
 10
96.884749
 20
135.795282
 30
0.0
 10
94.277725
 20
139.383548
 30
0.0
  0
LWPOLYLINE
  5
120
100
AcDbEntity
  8
Layer_3
 62
7
100
AcDbPolyline
 90
4
 70
1
 10
128.708938
 20
150.570925
 30
0.0
 10
128.708938
 20
146.135587
 30
0.0
 10
131.315965
 20
149.723851
 30
0.0
 10
130.320169
 20
151.094445
 30
0.0
  0
LWPOLYLINE
  5
121
100
AcDbEntity
  8
Layer_3
 62
7
100
AcDbPolyline
 90
5
 70
1
 10
86.884465
 20
154.961124
 30
0.0
 10
91.685361
 20
148.353256
 30
0.0
 10
99.453377
 20
150.877238
 30
0.0
 10
99.453377
 20
159.045013
 30
0.0
 10
91.685361
 20
161.568995
 30
0.0
  0
LWPOLYLINE
  5
122
100
AcDbEntity
  8
Layer_3
 62
7
100
AcDbPolyline
 90
5
 70
1
 10
102.628377
 20
159.045013
 30
0.0
 10
102.628377
 20
150.877238
 30
0.0
 10
110.396396
 20
148.353256
 30
0.0
 10
115.197292
 20
154.961124
 30
0.0
 10
110.396396
 20
161.568995
 30
0.0
  0
LWPOLYLINE
  5
123
100
AcDbEntity
  8
Layer_3
 62
7
100
AcDbPolyline
 90
5
 70
1
 10
139.045582
 20
154.961124
 30
0.0
 10
143.846479
 20
148.353256
 30
0.0
 10
151.614497
 20
150.877238
 30
0.0
 10
151.614497
 20
159.045013
 30
0.0
 10
143.846479
 20
161.568995
 30
0.0
  0
LWPOLYLINE
  5
124
100
AcDbEntity
  8
Layer_3
 62
7
100
AcDbPolyline
 90
5
 70
1
 10
112.965021
 20
163.435213
 30
0.0
 10
117.765920
 20
156.827342
 30
0.0
 10
125.533938
 20
159.351326
 30
0.0
 10
125.533938
 20
167.519099
 30
0.0
 10
117.765920
 20
170.043083
 30
0.0
  0
ENDSEC
  0
SECTION
  2
OBJECTS
  0
DICTIONARY
  5
C
330
0
100
AcDbDictionary
  3
ACAD_GROUP
350
D
  3
ACAD_MLINESTYLE
350
17
  0
DICTIONARY
  5
D
330
C
100
AcDbDictionary
  0
DICTIONARY
  5
1A
330
C
100
AcDbDictionary
  0
DICTIONARY
  5
17
330
C
100
AcDbDictionary
  3
STANDARD
350
18
  0
DICTIONARY
  5
19
330
C
100
AcDbDictionary
  0
ENDSEC
  0
EOF
