  0
SECTION
  2
HEADER
  9
$ACADVER
  1
AC1014
  9
$HANDSEED
  5
FFFF
  9
$INSUNITS
 70
     4
  9
$MEASUREMENT
 70
     1
  0
ENDSEC
  0
SECTION
  2
TABLES
  0
TABLE
  2
VPORT
  5
8
330
0
100
AcDbSymbolTable
 70
     4
  0
VPORT
  5
2E
330
8
100
AcDbSymbolTableRecord
100
AcDbViewportTableRecord
  2
*ACTIVE
 70
     0
 10
0.0
 20
0.0
 11
1.0
 21
1.0
 12
210.0
 22
148.5
 13
0.0
 23
0.0
 14
10.0
 24
10.0
 15
10.0
 25
10.0
 16
0.0
 26
0.0
 36
1.0
 17
0.0
 27
0.0
 37
0.0
 40
341.0
 41
1.24
 42
50.0
 43
0.0
 44
0.0
 50
0.0
 51
0.0
 71
     0
 72
   100
 73
     1
 74
     3
 75
     0
 76
     0
 77
     0
 78
     0
  0
ENDTAB
  0
TABLE
  2
LTYPE
  5
5
330
0
100
AcDbSymbolTable
 70
     1
  0
LTYPE
  5
14
330
5
100
AcDbSymbolTableRecord
100
AcDbLinetypeTableRecord
  2
BYBLOCK
 70
     0
  3

 72
    65
 73
     0
 40
0.0
  0
LTYPE
  5
15
330
5
100
AcDbSymbolTableRecord
100
AcDbLinetypeTableRecord
  2
BYLAYER
 70
     0
  3

 72
    65
 73
     0
 40
0.0
  0
LTYPE
  5
16
330
5
100
AcDbSymbolTableRecord
100
AcDbLinetypeTableRecord
  2
CONTINUOUS
 70
     0
  3
Solid line
 72
    65
 73
     0
 40
0.0
  0
ENDTAB
  0
TABLE
  2
LAYER
  5
2
100
AcDbSymbolTable
 70
5
  0
LAYER
  5
50
100
AcDbSymbolTableRecord
100
AcDbLayerTableRecord
  2
0
 70
0
  6
CONTINUOUS
  0
LAYER
  5
51
100
AcDbSymbolTableRecord
100
AcDbLayerTableRecord
  2
Layer_1
 70
0
  6
CONTINUOUS
  0
LAYER
  5
52
100
AcDbSymbolTableRecord
100
AcDbLayerTableRecord
  2
Layer_2
 70
0
  6
CONTINUOUS
  0
LAYER
  5
53
100
AcDbSymbolTableRecord
100
AcDbLayerTableRecord
  2
Layer_3
 70
0
  6
CONTINUOUS
  0
LAYER
  5
54
100
AcDbSymbolTableRecord
100
AcDbLayerTableRecord
  2
Layer_4
 70
0
  6
CONTINUOUS
  0
ENDTAB
  0
TABLE
  2
STYLE
  5
3
330
0
100
AcDbSymbolTable
 70
     1
  0
STYLE
  5
11
330
3
100
AcDbSymbolTableRecord
100
AcDbTextStyleTableRecord
  2
STANDARD
 70
     0
 40
0.0
 41
1.0
 50
0.0
 71
     0
 42
2.5
  3
txt
  4

  0
ENDTAB
  0
TABLE
  2
VIEW
  5
6
330
0
100
AcDbSymbolTable
 70
     0
  0
ENDTAB
  0
TABLE
  2
UCS
  5
7
330
0
100
AcDbSymbolTable
 70
     0
  0
ENDTAB
  0
TABLE
  2
APPID
  5
9
330
0
100
AcDbSymbolTable
 70
     2
  0
APPID
  5
12
330
9
100
AcDbSymbolTableRecord
100
AcDbRegAppTableRecord
  2
ACAD
 70
     0
  0
ENDTAB
  0
TABLE
  2
DIMSTYLE
  5
A
330
0
100
AcDbSymbolTable
 70
     1
  0
DIMSTYLE
105
27
330
A
100
AcDbSymbolTableRecord
100
AcDbDimStyleTableRecord
  2
ISO-25
 70
     0
  3

  4

  5

  6

  7

 40
1.0
 41
2.5
 42
0.625
 43
3.75
 44
1.25
 45
0.0
 46
0.0
 47
0.0
 48
0.0
140
2.5
141
2.5
142
0.0
143
0.03937007874016
144
1.0
145
0.0
146
1.0
147
0.625
 71
     0
 72
     0
 73
     0
 74
     0
 75
     0
 76
     0
 77
     1
 78
     8
170
     0
171
     3
172
     1
173
     0
174
     0
175
     0
176
     0
177
     0
178
     0
270
     2
271
     2
272
     2
273
     2
274
     3
340
11
275
     0
280
     0
281
     0
282
     0
283
     0
284
     8
285
     0
286
     0
287
     3
288
     0
  0
ENDTAB
  0
TABLE
  2
BLOCK_RECORD
  5
1
330
0
100
AcDbSymbolTable
 70
     1
  0
BLOCK_RECORD
  5
1F
330
1
100
AcDbSymbolTableRecord
100
AcDbBlockTableRecord
  2
*MODEL_SPACE
  0
BLOCK_RECORD
  5
1B
330
1
100
AcDbSymbolTableRecord
100
AcDbBlockTableRecord
  2
*PAPER_SPACE
  0
ENDTAB
  0
ENDSEC
  0
SECTION
  2
BLOCKS
  0
BLOCK
  5
20
330
1F
100
AcDbEntity
  8
0
100
AcDbBlockBegin
  2
*MODEL_SPACE
 70
     0
 10
0.0
 20
0.0
 30
0.0
  3
*MODEL_SPACE
  1

  0
ENDBLK
  5
21
330
1F
100
AcDbEntity
  8
0
100
AcDbBlockEnd
  0
BLOCK
  5
1C
330
1B
100
AcDbEntity
 67
     1
  8
0
100
AcDbBlockBegin
  2
*PAPER_SPACE
  1

  0
ENDBLK
  5
1D
330
1B
100
AcDbEntity
 67
     1
  8
0
100
AcDbBlockEnd
  0
ENDSEC
  0
SECTION
  2
ENTITIES
  0
LWPOLYLINE
  5
100
100
AcDbEntity
  8
Layer_2
 62
7
100
AcDbPolyline
 90
96
 70
1
 10
115.535247
 20
191.870925
 30
0.0
 10
115.535247
 20
177.614755
 30
0.0
 10
127.881451
 20
170.486671
 30
0.0
 10
127.881451
 20
156.230500
 30
0.0
 10
137.581825
 20
150.629985
 30
0.0
 10
149.928032
 20
157.758074
 30
0.0
 10
162.274237
 20
150.629985
 30
0.0
 10
174.620444
 20
157.758074
 30
0.0
 10
189.612471
 20
149.102413
 30
0.0
 10
189.612471
 20
131.791099
 30
0.0
 10
174.620444
 20
123.135443
 30
0.0
 10
159.628403
 20
131.791099
 30
0.0
 10
159.628403
 20
146.047269
 30
0.0
 10
149.928032
 20
151.647784
 30
0.0
 10
140.227659
 20
146.047269
 30
0.0
 10
140.227659
 20
134.846243
 30
0.0
 10
152.573866
 20
127.718159
 30
0.0
 10
152.573866
 20
110.406841
 30
0.0
 10
140.227659
 20
103.278757
 30
0.0
 10
140.227659
 20
92.077733
 30
0.0
 10
149.928032
 20
86.477216
 30
0.0
 10
159.628403
 20
92.077731
 30
0.0
 10
159.628403
 20
106.333901
 30
0.0
 10
174.620444
 20
114.989557
 30
0.0
 10
189.612471
 20
106.333901
 30
0.0
 10
189.612471
 20
89.022587
 30
0.0
 10
174.620444
 20
80.366926
 30
0.0
 10
162.274237
 20
87.495015
 30
0.0
 10
149.928032
 20
80.366926
 30
0.0
 10
137.581825
 20
87.495015
 30
0.0
 10
127.881451
 20
81.894497
 30
0.0
 10
127.881451
 20
67.638329
 30
0.0
 10
115.535247
 20
60.510245
 30
0.0
 10
115.535247
 20
46.254075
 30
0.0
 10
100.543207
 20
37.598414
 30
0.0
 10
85.551166
 20
46.254075
 30
0.0
 10
85.551166
 20
63.565389
 30
0.0
 10
100.543207
 20
72.221045
 30
0.0
 10
112.889414
 20
65.092961
 30
0.0
 10
122.589785
 20
70.693473
 30
0.0
 10
122.589785
 20
81.894500
 30
0.0
 10
112.889414
 20
87.495015
 30
0.0
 10
100.543207
 20
80.366926
 30
0.0
 10
86.874083
 20
88.258801
 30
0.0
 10
86.722016
 20
88.370950
 30
0.0
 10
86.561372
 20
88.470457
 30
0.0
 10
86.485000
 20
88.545752
 30
0.0
 10
86.398687
 20
88.609408
 30
0.0
 10
86.275286
 20
88.752511
 30
0.0
 10
86.140729
 20
88.885170
 30
0.0
 10
86.082965
 20
88.975533
 30
0.0
 10
86.012928
 20
89.056752
 30
0.0
 10
85.924350
 20
89.223662
 30
0.0
 10
85.822578
 20
89.382873
 30
0.0
 10
85.786301
 20
89.483800
 30
0.0
 10
85.736028
 20
89.578535
 30
0.0
 10
85.686694
 20
89.760928
 30
0.0
 10
85.622776
 20
89.938757
 30
0.0
 10
85.610684
 20
90.041891
 30
0.0
 10
85.581784
 20
90.148743
 30
0.0
 10
85.573132
 20
90.362513
 30
0.0
 10
85.551145
 20
90.550159
 30
0.0
 10
85.551145
 20
103.278757
 30
0.0
 10
75.850774
 20
108.879270
 30
0.0
 10
66.150400
 20
103.278757
 30
0.0
 10
66.150400
 20
92.077730
 30
0.0
 10
78.496607
 20
84.949644
 30
0.0
 10
78.496607
 20
67.638329
 30
0.0
 10
63.504567
 20
58.982673
 30
0.0
 10
48.512529
 20
67.638329
 30
0.0
 10
48.512529
 20
84.949644
 30
0.0
 10
60.858733
 20
92.077730
 30
0.0
 10
60.858733
 20
106.333901
 30
0.0
 10
73.204962
 20
113.461985
 30
0.0
 10
73.204962
 20
124.663015
 30
0.0
 10
60.858755
 20
131.791099
 30
0.0
 10
60.858755
 20
146.047269
 30
0.0
 10
48.512550
 20
153.175356
 30
0.0
 10
48.512550
 20
170.486671
 30
0.0
 10
63.504588
 20
179.142326
 30
0.0
 10
78.496628
 20
170.486671
 30
0.0
 10
78.496628
 20
153.175356
 30
0.0
 10
66.150421
 20
146.047269
 30
0.0
 10
66.150421
 20
134.846243
 30
0.0
 10
75.850795
 20
129.245730
 30
0.0
 10
85.551166
 20
134.846243
 30
0.0
 10
85.551166
 20
149.102413
 30
0.0
 10
100.543207
 20
157.758074
 30
0.0
 10
112.889414
 20
150.629985
 30
0.0
 10
122.589785
 20
156.230500
 30
0.0
 10
122.589785
 20
167.431527
 30
0.0
 10
112.889414
 20
173.032039
 30
0.0
 10
100.543207
 20
165.903955
 30
0.0
 10
85.551166
 20
174.559611
 30
0.0
 10
85.551166
 20
191.870925
 30
0.0
 10
100.543207
 20
200.526586
 30
0.0
  0
LWPOLYLINE
  5
101
100
AcDbEntity
  8
Layer_2
 62
7
100
AcDbPolyline
 90
6
 70
1
 10
90.842833
 20
60.510245
 30
0.0
 10
90.842833
 20
49.309218
 30
0.0
 10
100.543207
 20
43.708704
 30
0.0
 10
110.243580
 20
49.309218
 30
0.0
 10
110.243580
 20
60.510245
 30
0.0
 10
100.543207
 20
66.110758
 30
0.0
  0
LWPOLYLINE
  5
102
100
AcDbEntity
  8
Layer_2
 62
7
100
AcDbPolyline
 90
6
 70
1
 10
53.804217
 20
81.894500
 30
0.0
 10
53.804217
 20
70.693473
 30
0.0
 10
63.504588
 20
65.092961
 30
0.0
 10
73.204962
 20
70.693473
 30
0.0
 10
73.204962
 20
81.894500
 30
0.0
 10
63.504588
 20
87.495015
 30
0.0
  0
LWPOLYLINE
  5
103
100
AcDbEntity
  8
Layer_2
 62
7
100
AcDbPolyline
 90
36
 70
1
 10
90.842833
 20
146.047269
 30
0.0
 10
90.842833
 20
134.846243
 30
0.0
 10
103.189040
 20
127.718159
 30
0.0
 10
103.189040
 20
110.406841
 30
0.0
 10
90.842833
 20
103.278757
 30
0.0
 10
90.842833
 20
92.077731
 30
0.0
 10
100.543207
 20
86.477216
 30
0.0
 10
110.243580
 20
92.077731
 30
0.0
 10
110.243580
 20
106.333901
 30
0.0
 10
125.235618
 20
114.989557
 30
0.0
 10
137.581825
 20
107.861473
 30
0.0
 10
147.282199
 20
113.461985
 30
0.0
 10
147.282199
 20
124.663015
 30
0.0
 10
137.581825
 20
130.263527
 30
0.0
 10
126.558535
 20
123.899229
 30
0.0
 10
126.385389
 20
123.823616
 30
0.0
 10
126.218879
 20
123.734240
 30
0.0
 10
126.115471
 20
123.705744
 30
0.0
 10
126.017200
 20
123.662829
 30
0.0
 10
125.831581
 20
123.627512
 30
0.0
 10
125.649405
 20
123.577310
 30
0.0
 10
125.542270
 20
123.572468
 30
0.0
 10
125.436908
 20
123.552413
 30
0.0
 10
125.248061
 20
123.559160
 30
0.0
 10
125.059305
 20
123.550640
 30
0.0
 10
124.953768
 20
123.569690
 30
0.0
 10
124.846583
 20
123.573527
 30
0.0
 10
124.663941
 20
123.622004
 30
0.0
 10
124.477994
 20
123.655561
 30
0.0
 10
124.382646
 20
123.696661
 30
0.0
 10
124.275649
 20
123.725062
 30
0.0
 10
124.086183
 20
123.824460
 30
0.0
 10
123.912701
 20
123.899245
 30
0.0
 10
110.243580
 20
131.791115
 30
0.0
 10
110.243580
 20
146.047267
 30
0.0
 10
100.543207
 20
151.647784
 30
0.0
  0
LWPOLYLINE
  5
104
100
AcDbEntity
  8
Layer_2
 62
7
100
AcDbPolyline
 90
6
 70
1
 10
115.535247
 20
103.278757
 30
0.0
 10
115.535247
 20
92.077731
 30
0.0
 10
125.235618
 20
86.477216
 30
0.0
 10
134.935992
 20
92.077733
 30
0.0
 10
134.935992
 20
103.278757
 30
0.0
 10
125.235618
 20
108.879270
 30
0.0
  0
LWPOLYLINE
  5
105
100
AcDbEntity
  8
Layer_2
 62
7
100
AcDbPolyline
 90
6
 70
1
 10
164.920070
 20
103.278757
 30
0.0
 10
164.920070
 20
92.077733
 30
0.0
 10
174.620444
 20
86.477216
 30
0.0
 10
184.320804
 20
92.077731
 30
0.0
 10
184.320804
 20
103.278757
 30
0.0
 10
174.620444
 20
108.879270
 30
0.0
  0
LWPOLYLINE
  5
106
100
AcDbEntity
  8
Layer_2
 62
7
100
AcDbPolyline
 90
6
 70
1
 10
78.496628
 20
124.663015
 30
0.0
 10
78.496628
 20
113.461985
 30
0.0
 10
88.196999
 20
107.861473
 30
0.0
 10
97.897373
 20
113.461985
 30
0.0
 10
97.897373
 20
124.663015
 30
0.0
 10
88.196999
 20
130.263527
 30
0.0
  0
LWPOLYLINE
  5
107
100
AcDbEntity
  8
Layer_2
 62
7
100
AcDbPolyline
 90
6
 70
1
 10
115.535247
 20
146.047269
 30
0.0
 10
115.535247
 20
134.846243
 30
0.0
 10
125.235618
 20
129.245730
 30
0.0
 10
134.935992
 20
134.846243
 30
0.0
 10
134.935992
 20
146.047269
 30
0.0
 10
125.235618
 20
151.647784
 30
0.0
  0
LWPOLYLINE
  5
108
100
AcDbEntity
  8
Layer_2
 62
7
100
AcDbPolyline
 90
6
 70
1
 10
164.920070
 20
146.047269
 30
0.0
 10
164.920070
 20
134.846243
 30
0.0
 10
174.620444
 20
129.245730
 30
0.0
 10
184.320804
 20
134.846243
 30
0.0
 10
184.320804
 20
146.047269
 30
0.0
 10
174.620444
 20
151.647784
 30
0.0
  0
LWPOLYLINE
  5
109
100
AcDbEntity
  8
Layer_2
 62
7
100
AcDbPolyline
 90
6
 70
1
 10
53.804217
 20
167.431527
 30
0.0
 10
53.804217
 20
156.230500
 30
0.0
 10
63.504588
 20
150.629985
 30
0.0
 10
73.204962
 20
156.230500
 30
0.0
 10
73.204962
 20
167.431527
 30
0.0
 10
63.504588
 20
173.032039
 30
0.0
  0
LWPOLYLINE
  5
10a
100
AcDbEntity
  8
Layer_2
 62
7
100
AcDbPolyline
 90
6
 70
1
 10
90.842833
 20
188.815782
 30
0.0
 10
90.842833
 20
177.614755
 30
0.0
 10
100.543207
 20
172.014242
 30
0.0
 10
110.243580
 20
177.614755
 30
0.0
 10
110.243580
 20
188.815782
 30
0.0
 10
100.543207
 20
194.416296
 30
0.0
  0
ENDSEC
  0
SECTION
  2
OBJECTS
  0
DICTIONARY
  5
C
330
0
100
AcDbDictionary
  3
ACAD_GROUP
350
D
  3
ACAD_MLINESTYLE
350
17
  0
DICTIONARY
  5
D
330
C
100
AcDbDictionary
  0
DICTIONARY
  5
1A
330
C
100
AcDbDictionary
  0
DICTIONARY
  5
17
330
C
100
AcDbDictionary
  3
STANDARD
350
18
  0
DICTIONARY
  5
19
330
C
100
AcDbDictionary
  0
ENDSEC
  0
EOF
