  0
SECTION
  2
HEADER
  9
$ACADVER
  1
AC1014
  9
$HANDSEED
  5
FFFF
  9
$INSUNITS
 70
     4
  9
$MEASUREMENT
 70
     1
  0
ENDSEC
  0
SECTION
  2
TABLES
  0
TABLE
  2
VPORT
  5
8
330
0
100
AcDbSymbolTable
 70
     4
  0
VPORT
  5
2E
330
8
100
AcDbSymbolTableRecord
100
AcDbViewportTableRecord
  2
*ACTIVE
 70
     0
 10
0.0
 20
0.0
 11
1.0
 21
1.0
 12
210.0
 22
148.5
 13
0.0
 23
0.0
 14
10.0
 24
10.0
 15
10.0
 25
10.0
 16
0.0
 26
0.0
 36
1.0
 17
0.0
 27
0.0
 37
0.0
 40
341.0
 41
1.24
 42
50.0
 43
0.0
 44
0.0
 50
0.0
 51
0.0
 71
     0
 72
   100
 73
     1
 74
     3
 75
     0
 76
     0
 77
     0
 78
     0
  0
ENDTAB
  0
TABLE
  2
LTYPE
  5
5
330
0
100
AcDbSymbolTable
 70
     1
  0
LTYPE
  5
14
330
5
100
AcDbSymbolTableRecord
100
AcDbLinetypeTableRecord
  2
BYBLOCK
 70
     0
  3

 72
    65
 73
     0
 40
0.0
  0
LTYPE
  5
15
330
5
100
AcDbSymbolTableRecord
100
AcDbLinetypeTableRecord
  2
BYLAYER
 70
     0
  3

 72
    65
 73
     0
 40
0.0
  0
LTYPE
  5
16
330
5
100
AcDbSymbolTableRecord
100
AcDbLinetypeTableRecord
  2
CONTINUOUS
 70
     0
  3
Solid line
 72
    65
 73
     0
 40
0.0
  0
ENDTAB
  0
TABLE
  2
LAYER
  5
2
100
AcDbSymbolTable
 70
5
  0
LAYER
  5
50
100
AcDbSymbolTableRecord
100
AcDbLayerTableRecord
  2
0
 70
0
  6
CONTINUOUS
  0
LAYER
  5
51
100
AcDbSymbolTableRecord
100
AcDbLayerTableRecord
  2
Layer_1
 70
0
  6
CONTINUOUS
  0
LAYER
  5
52
100
AcDbSymbolTableRecord
100
AcDbLayerTableRecord
  2
Layer_2
 70
0
  6
CONTINUOUS
  0
LAYER
  5
53
100
AcDbSymbolTableRecord
100
AcDbLayerTableRecord
  2
Layer_3
 70
0
  6
CONTINUOUS
  0
LAYER
  5
54
100
AcDbSymbolTableRecord
100
AcDbLayerTableRecord
  2
Layer_4
 70
0
  6
CONTINUOUS
  0
ENDTAB
  0
TABLE
  2
STYLE
  5
3
330
0
100
AcDbSymbolTable
 70
     1
  0
STYLE
  5
11
330
3
100
AcDbSymbolTableRecord
100
AcDbTextStyleTableRecord
  2
STANDARD
 70
     0
 40
0.0
 41
1.0
 50
0.0
 71
     0
 42
2.5
  3
txt
  4

  0
ENDTAB
  0
TABLE
  2
VIEW
  5
6
330
0
100
AcDbSymbolTable
 70
     0
  0
ENDTAB
  0
TABLE
  2
UCS
  5
7
330
0
100
AcDbSymbolTable
 70
     0
  0
ENDTAB
  0
TABLE
  2
APPID
  5
9
330
0
100
AcDbSymbolTable
 70
     2
  0
APPID
  5
12
330
9
100
AcDbSymbolTableRecord
100
AcDbRegAppTableRecord
  2
ACAD
 70
     0
  0
ENDTAB
  0
TABLE
  2
DIMSTYLE
  5
A
330
0
100
AcDbSymbolTable
 70
     1
  0
DIMSTYLE
105
27
330
A
100
AcDbSymbolTableRecord
100
AcDbDimStyleTableRecord
  2
ISO-25
 70
     0
  3

  4

  5

  6

  7

 40
1.0
 41
2.5
 42
0.625
 43
3.75
 44
1.25
 45
0.0
 46
0.0
 47
0.0
 48
0.0
140
2.5
141
2.5
142
0.0
143
0.03937007874016
144
1.0
145
0.0
146
1.0
147
0.625
 71
     0
 72
     0
 73
     0
 74
     0
 75
     0
 76
     0
 77
     1
 78
     8
170
     0
171
     3
172
     1
173
     0
174
     0
175
     0
176
     0
177
     0
178
     0
270
     2
271
     2
272
     2
273
     2
274
     3
340
11
275
     0
280
     0
281
     0
282
     0
283
     0
284
     8
285
     0
286
     0
287
     3
288
     0
  0
ENDTAB
  0
TABLE
  2
BLOCK_RECORD
  5
1
330
0
100
AcDbSymbolTable
 70
     1
  0
BLOCK_RECORD
  5
1F
330
1
100
AcDbSymbolTableRecord
100
AcDbBlockTableRecord
  2
*MODEL_SPACE
  0
BLOCK_RECORD
  5
1B
330
1
100
AcDbSymbolTableRecord
100
AcDbBlockTableRecord
  2
*PAPER_SPACE
  0
ENDTAB
  0
ENDSEC
  0
SECTION
  2
BLOCKS
  0
BLOCK
  5
20
330
1F
100
AcDbEntity
  8
0
100
AcDbBlockBegin
  2
*MODEL_SPACE
 70
     0
 10
0.0
 20
0.0
 30
0.0
  3
*MODEL_SPACE
  1

  0
ENDBLK
  5
21
330
1F
100
AcDbEntity
  8
0
100
AcDbBlockEnd
  0
BLOCK
  5
1C
330
1B
100
AcDbEntity
 67
     1
  8
0
100
AcDbBlockBegin
  2
*PAPER_SPACE
  1

  0
ENDBLK
  5
1D
330
1B
100
AcDbEntity
 67
     1
  8
0
100
AcDbBlockEnd
  0
ENDSEC
  0
SECTION
  2
ENTITIES
  0
LWPOLYLINE
  5
100
100
AcDbEntity
  8
Layer_2
 62
7
100
AcDbPolyline
 90
78
 70
1
 10
115.615514
 20
173.182978
 30
0.0
 10
156.845910
 20
159.786410
 30
0.0
 10
157.255755
 20
159.584057
 30
0.0
 10
157.590956
 20
159.273314
 30
0.0
 10
157.823726
 20
158.879947
 30
0.0
 10
157.942846
 20
158.276608
 30
0.0
 10
157.942846
 20
146.033427
 30
0.0
 10
169.586804
 20
142.250075
 30
0.0
 10
169.710791
 20
142.188859
 30
0.0
 10
169.840955
 20
142.142255
 30
0.0
 10
169.914668
 20
142.088198
 30
0.0
 10
169.996649
 20
142.047722
 30
0.0
 10
170.098056
 20
141.953713
 30
0.0
 10
170.209543
 20
141.871957
 30
0.0
 10
170.264804
 20
141.799133
 30
0.0
 10
170.331850
 20
141.736979
 30
0.0
 10
170.402263
 20
141.617986
 30
0.0
 10
170.485842
 20
141.507842
 30
0.0
 10
170.500051
 20
141.452727
 30
0.0
 10
170.564617
 20
141.343613
 30
0.0
 10
170.683738
 20
140.740273
 30
0.0
 10
170.683738
 20
97.388069
 30
0.0
 10
170.617936
 20
96.935753
 30
0.0
 10
170.425988
 20
96.520934
 30
0.0
 10
170.123802
 20
96.178000
 30
0.0
 10
169.586802
 20
95.878266
 30
0.0
 10
157.942844
 20
92.094915
 30
0.0
 10
157.942844
 20
79.851732
 30
0.0
 10
157.877042
 20
79.399416
 30
0.0
 10
157.685094
 20
78.984597
 30
0.0
 10
157.382908
 20
78.641662
 30
0.0
 10
156.995540
 20
78.399042
 30
0.0
 10
156.901478
 20
78.372954
 30
0.0
 10
156.845908
 20
78.341937
 30
0.0
 10
115.615511
 20
64.945368
 30
0.0
 10
115.468464
 20
64.920180
 30
0.0
 10
115.324702
 20
64.880297
 30
0.0
 10
115.244282
 20
64.881884
 30
0.0
 10
115.165000
 20
64.868311
 30
0.0
 10
115.016867
 20
64.886065
 30
0.0
 10
114.867703
 20
64.888790
 30
0.0
 10
114.791032
 20
64.913105
 30
0.0
 10
114.711168
 20
64.922683
 30
0.0
 10
114.574241
 20
64.981897
 30
0.0
 10
114.432027
 20
65.027016
 30
0.0
 10
114.365461
 20
65.072183
 30
0.0
 10
114.291639
 20
65.104105
 30
0.0
 10
114.218553
 20
65.171857
 30
0.0
 10
114.053795
 20
65.283646
 30
0.0
 10
113.915097
 20
65.453167
 30
0.0
 10
113.840633
 20
65.522200
 30
0.0
 10
106.644271
 20
75.427142
 30
0.0
 10
95.000313
 20
71.643790
 30
0.0
 10
94.549801
 20
71.566598
 30
0.0
 10
94.095970
 20
71.620967
 30
0.0
 10
93.676441
 20
71.802390
 30
0.0
 10
93.225435
 20
72.220484
 30
0.0
 10
67.743647
 20
107.293156
 30
0.0
 10
67.531017
 20
107.697765
 30
0.0
 10
67.442482
 20
108.146183
 30
0.0
 10
67.485382
 20
108.601243
 30
0.0
 10
67.743647
 20
109.159373
 30
0.0
 10
74.940009
 20
119.064315
 30
0.0
 10
67.743647
 20
128.969259
 30
0.0
 10
67.531017
 20
129.373868
 30
0.0
 10
67.442482
 20
129.822287
 30
0.0
 10
67.485382
 20
130.277346
 30
0.0
 10
67.743647
 20
130.835477
 30
0.0
 10
93.225435
 20
165.908146
 30
0.0
 10
93.544533
 20
166.235401
 30
0.0
 10
93.943649
 20
166.458172
 30
0.0
 10
94.389691
 20
166.557992
 30
0.0
 10
95.000313
 20
166.484840
 30
0.0
 10
106.644271
 20
162.701489
 30
0.0
 10
113.840633
 20
172.606430
 30
0.0
 10
114.159731
 20
172.933685
 30
0.0
 10
114.558847
 20
173.156457
 30
0.0
 10
115.004890
 20
173.256276
 30
0.0
  0
LWPOLYLINE
  5
101
100
AcDbEntity
  8
Layer_2
 62
7
100
AcDbPolyline
 90
4
 70
1
 10
109.819273
 20
76.458617
 30
0.0
 10
115.731319
 20
68.321380
 30
0.0
 10
130.602889
 20
73.153447
 30
0.0
 10
115.124950
 20
78.182536
 30
0.0
  0
LWPOLYLINE
  5
102
100
AcDbEntity
  8
Layer_2
 62
7
100
AcDbPolyline
 90
4
 70
1
 10
95.116121
 20
75.019665
 30
0.0
 10
104.682017
 20
78.127812
 30
0.0
 10
101.402928
 20
82.641091
 30
0.0
 10
85.924985
 20
87.670180
 30
0.0
  0
LWPOLYLINE
  5
103
100
AcDbEntity
  8
Layer_2
 62
7
100
AcDbPolyline
 90
4
 70
1
 10
149.462170
 20
89.339375
 30
0.0
 10
139.896276
 20
76.173052
 30
0.0
 10
154.767846
 20
81.005119
 30
0.0
 10
154.767846
 20
91.063294
 30
0.0
  0
LWPOLYLINE
  5
104
100
AcDbEntity
  8
Layer_2
 62
7
100
AcDbPolyline
 90
4
 70
1
 10
116.712450
 20
81.005119
 30
0.0
 10
131.584020
 20
76.173052
 30
0.0
 10
122.018126
 20
89.339375
 30
0.0
 10
116.712450
 20
91.063294
 30
0.0
  0
LWPOLYLINE
  5
105
100
AcDbEntity
  8
Layer_2
 62
7
100
AcDbPolyline
 90
4
 70
1
 10
137.327648
 20
94.313743
 30
0.0
 10
137.327648
 20
78.039270
 30
0.0
 10
146.518786
 20
90.689785
 30
0.0
 10
140.606738
 20
98.827021
 30
0.0
  0
LWPOLYLINE
  5
106
100
AcDbEntity
  8
Layer_2
 62
7
100
AcDbPolyline
 90
4
 70
1
 10
124.961510
 20
90.689785
 30
0.0
 10
134.152648
 20
78.039270
 30
0.0
 10
134.152648
 20
93.676163
 30
0.0
 10
128.472213
 20
95.521849
 30
0.0
  0
LWPOLYLINE
  5
107
100
AcDbEntity
  8
Layer_2
 62
7
100
AcDbPolyline
 90
5
 70
1
 10
104.346312
 20
83.991500
 30
0.0
 10
107.857015
 20
79.159433
 30
0.0
 10
113.537450
 20
81.005119
 30
0.0
 10
113.537450
 20
92.094915
 30
0.0
 10
110.864732
 20
92.963333
 30
0.0
  0
LWPOLYLINE
  5
108
100
AcDbEntity
  8
Layer_2
 62
7
100
AcDbPolyline
 90
4
 70
1
 10
86.906116
 20
90.689785
 30
0.0
 10
101.777686
 20
85.857718
 30
0.0
 10
107.689732
 20
93.994954
 30
0.0
 10
102.384056
 20
95.718873
 30
0.0
  0
LWPOLYLINE
  5
109
100
AcDbEntity
  8
Layer_2
 62
7
100
AcDbPolyline
 90
4
 70
1
 10
116.712450
 20
94.401688
 30
0.0
 10
122.392885
 20
92.556002
 30
0.0
 10
125.297213
 20
96.553470
 30
0.0
 10
116.712450
 20
99.342829
 30
0.0
  0
LWPOLYLINE
  5
10a
100
AcDbEntity
  8
Layer_2
 62
7
100
AcDbPolyline
 90
5
 70
1
 10
142.568994
 20
101.527835
 30
0.0
 10
149.087411
 20
92.556002
 30
0.0
 10
154.767846
 20
94.401688
 30
0.0
 10
154.767846
 20
100.374447
 30
0.0
 10
144.220824
 20
103.801384
 30
0.0
  0
LWPOLYLINE
  5
10b
100
AcDbEntity
  8
Layer_2
 62
7
100
AcDbPolyline
 90
4
 70
1
 10
85.924985
 20
93.709389
 30
0.0
 10
100.796556
 20
98.541456
 30
0.0
 10
100.796556
 20
104.514216
 30
0.0
 10
95.116121
 20
106.359902
 30
0.0
  0
LWPOLYLINE
  5
10c
100
AcDbEntity
  8
Layer_2
 62
7
100
AcDbPolyline
 90
3
 70
1
 10
112.826991
 20
95.664150
 30
0.0
 10
113.537450
 20
95.433309
 30
0.0
 10
113.537450
 20
96.642013
 30
0.0
  0
LWPOLYLINE
  5
10d
100
AcDbEntity
  8
Layer_2
 62
7
100
AcDbPolyline
 90
4
 70
1
 10
157.942846
 20
101.012027
 30
0.0
 10
157.942846
 20
95.433309
 30
0.0
 10
167.508740
 20
98.541456
 30
0.0
 10
167.508740
 20
114.178347
 30
0.0
  0
LWPOLYLINE
  5
10e
100
AcDbEntity
  8
Layer_2
 62
7
100
AcDbPolyline
 90
4
 70
1
 10
70.990219
 20
108.226119
 30
0.0
 10
80.181357
 20
95.575604
 30
0.0
 10
80.181357
 20
111.850077
 30
0.0
 10
76.902268
 20
116.363356
 30
0.0
  0
LWPOLYLINE
  5
10f
100
AcDbEntity
  8
Layer_2
 62
7
100
AcDbPolyline
 90
4
 70
1
 10
83.356357
 20
111.212498
 30
0.0
 10
83.356357
 20
95.575607
 30
0.0
 10
92.922251
 20
108.741927
 30
0.0
 10
92.922251
 20
114.320645
 30
0.0
  0
LWPOLYLINE
  5
110
100
AcDbEntity
  8
Layer_2
 62
7
100
AcDbPolyline
 90
4
 70
1
 10
130.434472
 20
98.222665
 30
0.0
 10
135.133779
 20
96.695768
 30
0.0
 10
138.644479
 20
101.527835
 30
0.0
 10
135.740148
 20
105.525305
 30
0.0
  0
LWPOLYLINE
  5
111
100
AcDbEntity
  8
Layer_2
 62
7
100
AcDbPolyline
 90
4
 70
1
 10
103.971556
 20
98.541456
 30
0.0
 10
109.651991
 20
96.695771
 30
0.0
 10
112.556322
 20
100.693236
 30
0.0
 10
103.971556
 20
103.482595
 30
0.0
  0
LWPOLYLINE
  5
112
100
AcDbEntity
  8
Layer_2
 62
7
100
AcDbPolyline
 90
3
 70
1
 10
120.262208
 20
101.527835
 30
0.0
 10
127.259472
 20
99.254286
 30
0.0
 10
131.584020
 20
105.206514
 30
0.0
  0
LWPOLYLINE
  5
113
100
AcDbEntity
  8
Layer_2
 62
7
100
AcDbPolyline
 90
5
 70
1
 10
104.346312
 20
119.064170
 30
0.0
 10
115.731319
 20
103.394052
 30
0.0
 10
134.152648
 20
109.379507
 30
0.0
 10
134.152648
 20
128.748835
 30
0.0
 10
115.731319
 20
134.734289
 30
0.0
  0
LWPOLYLINE
  5
114
100
AcDbEntity
  8
Layer_2
 62
7
100
AcDbPolyline
 90
4
 70
1
 10
149.462170
 20
111.015476
 30
0.0
 10
146.183083
 20
106.502200
 30
0.0
 10
155.748977
 20
103.394052
 30
0.0
 10
164.940112
 20
116.044565
 30
0.0
  0
LWPOLYLINE
  5
115
100
AcDbEntity
  8
Layer_2
 62
7
100
AcDbPolyline
 90
3
 70
1
 10
140.606738
 20
104.228649
 30
0.0
 10
141.045824
 20
104.833005
 30
0.0
 10
139.896276
 20
105.206514
 30
0.0
  0
LWPOLYLINE
  5
116
100
AcDbEntity
  8
Layer_2
 62
7
100
AcDbPolyline
 90
3
 70
1
 10
103.971556
 20
106.820989
 30
0.0
 10
110.968822
 20
104.547440
 30
0.0
 10
103.971556
 20
114.178347
 30
0.0
  0
LWPOLYLINE
  5
117
100
AcDbEntity
  8
Layer_2
 62
7
100
AcDbPolyline
 90
4
 70
1
 10
138.308776
 20
109.060718
 30
0.0
 10
143.008083
 20
107.533821
 30
0.0
 10
146.518786
 20
112.365885
 30
0.0
 10
143.614452
 20
116.363356
 30
0.0
  0
LWPOLYLINE
  5
118
100
AcDbEntity
  8
Layer_2
 62
7
100
AcDbPolyline
 90
4
 70
1
 10
96.097251
 20
115.352266
 30
0.0
 10
96.097251
 20
109.379507
 30
0.0
 10
100.796556
 20
107.852610
 30
0.0
 10
100.796556
 20
116.879164
 30
0.0
  0
LWPOLYLINE
  5
119
100
AcDbEntity
  8
Layer_2
 62
7
100
AcDbPolyline
 90
3
 70
1
 10
137.327648
 20
113.111941
 30
0.0
 10
141.652196
 20
119.064170
 30
0.0
 10
137.327648
 20
125.016400
 30
0.0
  0
LWPOLYLINE
  5
11a
100
AcDbEntity
  8
Layer_2
 62
7
100
AcDbPolyline
 90
5
 70
1
 10
78.864526
 20
119.064170
 30
0.0
 10
82.375227
 20
114.232103
 30
0.0
 10
92.922251
 20
117.659039
 30
0.0
 10
92.922251
 20
120.469300
 30
0.0
 10
82.375227
 20
123.896236
 30
0.0
  0
LWPOLYLINE
  5
11b
100
AcDbEntity
  8
Layer_2
 62
7
100
AcDbPolyline
 90
4
 70
1
 10
145.576711
 20
119.064170
 30
0.0
 10
149.087411
 20
114.232103
 30
0.0
 10
163.958982
 20
119.064170
 30
0.0
 10
149.087411
 20
123.896236
 30
0.0
  0
LWPOLYLINE
  5
11c
100
AcDbEntity
  8
Layer_2
 62
7
100
AcDbPolyline
 90
3
 70
1
 10
96.097251
 20
118.690660
 30
0.0
 10
97.246797
 20
119.064170
 30
0.0
 10
96.097251
 20
119.437679
 30
0.0
  0
LWPOLYLINE
  5
11d
100
AcDbEntity
  8
Layer_2
 62
7
100
AcDbPolyline
 90
4
 70
1
 10
96.097251
 20
128.748835
 30
0.0
 10
96.097251
 20
122.776073
 30
0.0
 10
100.796556
 20
121.249175
 30
0.0
 10
100.796556
 20
130.275732
 30
0.0
  0
LWPOLYLINE
  5
11e
100
AcDbEntity
  8
Layer_2
 62
7
100
AcDbPolyline
 90
4
 70
1
 10
70.990219
 20
129.902223
 30
0.0
 10
76.902270
 20
121.764986
 30
0.0
 10
80.181357
 20
126.278262
 30
0.0
 10
80.181357
 20
142.552735
 30
0.0
  0
LWPOLYLINE
  5
11f
100
AcDbEntity
  8
Layer_2
 62
7
100
AcDbPolyline
 90
4
 70
1
 10
138.308776
 20
129.067623
 30
0.0
 10
143.614452
 20
121.764986
 30
0.0
 10
146.518783
 20
125.762454
 30
0.0
 10
143.008083
 20
130.594521
 30
0.0
  0
LWPOLYLINE
  5
120
100
AcDbEntity
  8
Layer_2
 62
7
100
AcDbPolyline
 90
4
 70
1
 10
146.183080
 20
131.626142
 30
0.0
 10
149.462170
 20
127.112863
 30
0.0
 10
164.940112
 20
122.083774
 30
0.0
 10
155.748977
 20
134.734289
 30
0.0
  0
LWPOLYLINE
  5
121
100
AcDbEntity
  8
Layer_2
 62
7
100
AcDbPolyline
 90
4
 70
1
 10
83.356357
 20
126.915841
 30
0.0
 10
92.922251
 20
123.807694
 30
0.0
 10
92.922251
 20
129.386415
 30
0.0
 10
83.356357
 20
142.552735
 30
0.0
  0
LWPOLYLINE
  5
122
100
AcDbEntity
  8
Layer_2
 62
7
100
AcDbPolyline
 90
3
 70
1
 10
103.971556
 20
131.307353
 30
0.0
 10
103.971556
 20
123.949992
 30
0.0
 10
110.968822
 20
133.580902
 30
0.0
  0
LWPOLYLINE
  5
123
100
AcDbEntity
  8
Layer_2
 62
7
100
AcDbPolyline
 90
4
 70
1
 10
157.942846
 20
137.116315
 30
0.0
 10
167.508740
 20
123.949992
 30
0.0
 10
167.508740
 20
139.586885
 30
0.0
 10
157.942846
 20
142.695033
 30
0.0
  0
LWPOLYLINE
  5
124
100
AcDbEntity
  8
Layer_2
 62
7
100
AcDbPolyline
 90
4
 70
1
 10
95.116121
 20
131.768440
 30
0.0
 10
100.796556
 20
133.614126
 30
0.0
 10
100.796556
 20
139.586885
 30
0.0
 10
85.924985
 20
144.418952
 30
0.0
  0
LWPOLYLINE
  5
125
100
AcDbEntity
  8
Layer_2
 62
7
100
AcDbPolyline
 90
4
 70
1
 10
130.434472
 20
139.905674
 30
0.0
 10
135.740148
 20
132.603036
 30
0.0
 10
138.644479
 20
136.600507
 30
0.0
 10
135.133779
 20
141.432571
 30
0.0
  0
LWPOLYLINE
  5
126
100
AcDbEntity
  8
Layer_2
 62
7
100
AcDbPolyline
 90
3
 70
1
 10
139.896276
 20
132.921827
 30
0.0
 10
141.045824
 20
133.295337
 30
0.0
 10
140.606735
 20
133.899690
 30
0.0
  0
LWPOLYLINE
  5
127
100
AcDbEntity
  8
Layer_2
 62
7
100
AcDbPolyline
 90
3
 70
1
 10
120.262211
 20
136.600507
 30
0.0
 10
131.584017
 20
132.921827
 30
0.0
 10
127.259472
 20
138.874053
 30
0.0
  0
LWPOLYLINE
  5
128
100
AcDbEntity
  8
Layer_2
 62
7
100
AcDbPolyline
 90
5
 70
1
 10
142.568994
 20
136.600504
 30
0.0
 10
144.220822
 20
134.326958
 30
0.0
 10
154.767846
 20
137.753894
 30
0.0
 10
154.767846
 20
143.726654
 30
0.0
 10
149.087411
 20
145.572340
 30
0.0
  0
LWPOLYLINE
  5
129
100
AcDbEntity
  8
Layer_2
 62
7
100
AcDbPolyline
 90
4
 70
1
 10
103.971556
 20
139.586885
 30
0.0
 10
103.971556
 20
134.645744
 30
0.0
 10
112.556322
 20
137.435103
 30
0.0
 10
109.651991
 20
141.432571
 30
0.0
  0
LWPOLYLINE
  5
12a
100
AcDbEntity
  8
Layer_2
 62
7
100
AcDbPolyline
 90
4
 70
1
 10
116.712450
 20
143.726654
 30
0.0
 10
116.712450
 20
138.785513
 30
0.0
 10
125.297216
 20
141.574869
 30
0.0
 10
122.392885
 20
145.572340
 30
0.0
  0
LWPOLYLINE
  5
12b
100
AcDbEntity
  8
Layer_2
 62
7
100
AcDbPolyline
 90
4
 70
1
 10
137.327648
 20
143.814596
 30
0.0
 10
140.606735
 20
139.301321
 30
0.0
 10
146.518783
 20
147.438557
 30
0.0
 10
137.327648
 20
160.089069
 30
0.0
  0
LWPOLYLINE
  5
12c
100
AcDbEntity
  8
Layer_2
 62
7
100
AcDbPolyline
 90
3
 70
1
 10
112.826991
 20
142.464192
 30
0.0
 10
113.537450
 20
141.486329
 30
0.0
 10
113.537450
 20
142.695033
 30
0.0
  0
LWPOLYLINE
  5
12d
100
AcDbEntity
  8
Layer_2
 62
7
100
AcDbPolyline
 90
4
 70
1
 10
86.906116
 20
147.438557
 30
0.0
 10
102.384056
 20
142.409468
 30
0.0
 10
107.689732
 20
144.133387
 30
0.0
 10
101.777686
 20
152.270624
 30
0.0
  0
LWPOLYLINE
  5
12e
100
AcDbEntity
  8
Layer_2
 62
7
100
AcDbPolyline
 90
4
 70
1
 10
124.961510
 20
147.438557
 30
0.0
 10
128.472213
 20
142.606490
 30
0.0
 10
134.152648
 20
144.452176
 30
0.0
 10
134.152648
 20
160.089069
 30
0.0
  0
LWPOLYLINE
  5
12f
100
AcDbEntity
  8
Layer_2
 62
7
100
AcDbPolyline
 90
5
 70
1
 10
104.346314
 20
154.136841
 30
0.0
 10
110.864732
 20
145.165008
 30
0.0
 10
113.537450
 20
146.033427
 30
0.0
 10
113.537450
 20
157.123220
 30
0.0
 10
107.857015
 20
158.968906
 30
0.0
  0
LWPOLYLINE
  5
130
100
AcDbEntity
  8
Layer_2
 62
7
100
AcDbPolyline
 90
4
 70
1
 10
116.712450
 20
157.123220
 30
0.0
 10
116.712450
 20
147.065047
 30
0.0
 10
122.018126
 20
148.788967
 30
0.0
 10
131.584020
 20
161.955287
 30
0.0
  0
LWPOLYLINE
  5
131
100
AcDbEntity
  8
Layer_2
 62
7
100
AcDbPolyline
 90
4
 70
1
 10
149.462170
 20
148.788967
 30
0.0
 10
154.767846
 20
147.065047
 30
0.0
 10
154.767846
 20
157.123220
 30
0.0
 10
139.896276
 20
161.955287
 30
0.0
  0
LWPOLYLINE
  5
132
100
AcDbEntity
  8
Layer_2
 62
7
100
AcDbPolyline
 90
4
 70
1
 10
85.924985
 20
150.458162
 30
0.0
 10
101.402928
 20
155.487251
 30
0.0
 10
104.682015
 20
160.000527
 30
0.0
 10
95.116121
 20
163.108674
 30
0.0
  0
LWPOLYLINE
  5
133
100
AcDbEntity
  8
Layer_2
 62
7
100
AcDbPolyline
 90
4
 70
1
 10
109.819273
 20
161.669722
 30
0.0
 10
115.124950
 20
159.945803
 30
0.0
 10
130.602889
 20
164.974892
 30
0.0
 10
115.731319
 20
169.806959
 30
0.0
  0
ENDSEC
  0
SECTION
  2
OBJECTS
  0
DICTIONARY
  5
C
330
0
100
AcDbDictionary
  3
ACAD_GROUP
350
D
  3
ACAD_MLINESTYLE
350
17
  0
DICTIONARY
  5
D
330
C
100
AcDbDictionary
  0
DICTIONARY
  5
1A
330
C
100
AcDbDictionary
  0
DICTIONARY
  5
17
330
C
100
AcDbDictionary
  3
STANDARD
350
18
  0
DICTIONARY
  5
19
330
C
100
AcDbDictionary
  0
ENDSEC
  0
EOF
