<?xml version="1.0" encoding="UTF-8"?>
<!DOCTYPE svg PUBLIC "-//W3C//DTD SVG 1.1//EN" "http://www.w3.org/Graphics/SVG/1.1/DTD/svg11.dtd">
<svg version="1.1" xmlns="http://www.w3.org/2000/svg" xmlns:xlink="http://www.w3.org/1999/xlink" x="0" y="0" width="298" height="586" viewBox="0, 0, 298, 586">
  <g id="Layer_2" transform="translate(-679, -67)">
    <g>
      <path d="M792,144 C772.118,144 756,127.882 756,108 C756,88.118 772.118,72 792,72 L936,72 C955.882,72 972,88.118 972,108 C972,127.882 955.882,144 936,144 L864,144 C883.882,144 900,160.118 900,180 C900,199.882 883.882,216 864,216 L936,216 C955.882,216 972,232.118 972,252 C972,271.882 955.882,288 936,288 L864,288 C883.882,288 900,304.118 900,324 C900,343.882 883.882,360 864,360 L936,360 C955.882,360 972,376.118 972,396 C972,415.882 955.882,432 936,432 L864,432 C883.882,432 900,448.118 900,468 C900,487.882 883.882,504 864,504 L936,504 C955.882,504 972,520.118 972,540 C972,559.882 955.882,576 936,576 L864,576 C883.882,576 900,592.118 900,612 C900,631.882 883.882,648 864,648 L720,648 C700.118,648 684,631.882 684,612 C684,592.118 700.118,576 720,576 L792,576 C772.118,576 756,559.882 756,540 C756,520.118 772.118,504 792,504 L720,504 C700.118,504 684,487.882 684,468 C684,448.118 700.118,432 720,432 L792,432 C772.118,432 756,415.882 756,396 C756,376.118 772.118,360 792,360 L720,360 C700.118,360 684,343.882 684,324 C684,304.118 700.118,288 720,288 L792,288 C772.118,288 756,271.882 756,252 C756,232.118 772.118,216 792,216 L720,216 C700.118,216 684,199.882 684,180 C684,160.118 700.118,144 720,144 L792,144 z" fill="#FFFFFF" fill-opacity="0.203"/>
      <path d="M792,144 C772.118,144 756,127.882 756,108 C756,88.118 772.118,72 792,72 L936,72 C955.882,72 972,88.118 972,108 C972,127.882 955.882,144 936,144 L864,144 C883.882,144 900,160.118 900,180 C900,199.882 883.882,216 864,216 L936,216 C955.882,216 972,232.118 972,252 C972,271.882 955.882,288 936,288 L864,288 C883.882,288 900,304.118 900,324 C900,343.882 883.882,360 864,360 L936,360 C955.882,360 972,376.118 972,396 C972,415.882 955.882,432 936,432 L864,432 C883.882,432 900,448.118 900,468 C900,487.882 883.882,504 864,504 L936,504 C955.882,504 972,520.118 972,540 C972,559.882 955.882,576 936,576 L864,576 C883.882,576 900,592.118 900,612 C900,631.882 883.882,648 864,648 L720,648 C700.118,648 684,631.882 684,612 C684,592.118 700.118,576 720,576 L792,576 C772.118,576 756,559.882 756,540 C756,520.118 772.118,504 792,504 L720,504 C700.118,504 684,487.882 684,468 C684,448.118 700.118,432 720,432 L792,432 C772.118,432 756,415.882 756,396 C756,376.118 772.118,360 792,360 L720,360 C700.118,360 684,343.882 684,324 C684,304.118 700.118,288 720,288 L792,288 C772.118,288 756,271.882 756,252 C756,232.118 772.118,216 792,216 L720,216 C700.118,216 684,199.882 684,180 C684,160.118 700.118,144 720,144 L792,144 z" fill-opacity="0" stroke="#E6E6E6" stroke-width="2" stroke-opacity="0.305"/>
    </g>
  </g>
</svg>
