  0
SECTION
  2
HEADER
  9
$ACADVER
  1
AC1014
  9
$HANDSEED
  5
FFFF
  9
$INSUNITS
 70
     1
  9
$MEASUREMENT
 70
     1
  0
ENDSEC
  0
SECTION
  2
TABLES
  0
TABLE
  2
VPORT
  5
8
330
0
100
AcDbSymbolTable
 70
     4
  0
VPORT
  5
2E
330
8
100
AcDbSymbolTableRecord
100
AcDbViewportTableRecord
  2
*ACTIVE
 70
     0
 10
0.0
 20
0.0
 11
1.0
 21
1.0
 12
210.0
 22
148.5
 13
0.0
 23
0.0
 14
10.0
 24
10.0
 15
10.0
 25
10.0
 16
0.0
 26
0.0
 36
1.0
 17
0.0
 27
0.0
 37
0.0
 40
341.0
 41
1.24
 42
50.0
 43
0.0
 44
0.0
 50
0.0
 51
0.0
 71
     0
 72
   100
 73
     1
 74
     3
 75
     0
 76
     0
 77
     0
 78
     0
  0
ENDTAB
  0
TABLE
  2
LTYPE
  5
5
330
0
100
AcDbSymbolTable
 70
     1
  0
LTYPE
  5
14
330
5
100
AcDbSymbolTableRecord
100
AcDbLinetypeTableRecord
  2
BYBLOCK
 70
     0
  3

 72
    65
 73
     0
 40
0.0
  0
LTYPE
  5
15
330
5
100
AcDbSymbolTableRecord
100
AcDbLinetypeTableRecord
  2
BYLAYER
 70
     0
  3

 72
    65
 73
     0
 40
0.0
  0
LTYPE
  5
16
330
5
100
AcDbSymbolTableRecord
100
AcDbLinetypeTableRecord
  2
CONTINUOUS
 70
     0
  3
Solid line
 72
    65
 73
     0
 40
0.0
  0
ENDTAB
  0
TABLE
  2
LAYER
  5
2
100
AcDbSymbolTable
 70
1
  0
LAYER
  5
50
100
AcDbSymbolTableRecord
100
AcDbLayerTableRecord
  2
0
 70
0
  6
CONTINUOUS
  0
ENDTAB
  0
TABLE
  2
STYLE
  5
3
330
0
100
AcDbSymbolTable
 70
     1
  0
STYLE
  5
11
330
3
100
AcDbSymbolTableRecord
100
AcDbTextStyleTableRecord
  2
STANDARD
 70
     0
 40
0.0
 41
1.0
 50
0.0
 71
     0
 42
2.5
  3
txt
  4

  0
ENDTAB
  0
TABLE
  2
VIEW
  5
6
330
0
100
AcDbSymbolTable
 70
     0
  0
ENDTAB
  0
TABLE
  2
UCS
  5
7
330
0
100
AcDbSymbolTable
 70
     0
  0
ENDTAB
  0
TABLE
  2
APPID
  5
9
330
0
100
AcDbSymbolTable
 70
     2
  0
APPID
  5
12
330
9
100
AcDbSymbolTableRecord
100
AcDbRegAppTableRecord
  2
ACAD
 70
     0
  0
ENDTAB
  0
TABLE
  2
DIMSTYLE
  5
A
330
0
100
AcDbSymbolTable
 70
     1
  0
DIMSTYLE
105
27
330
A
100
AcDbSymbolTableRecord
100
AcDbDimStyleTableRecord
  2
ISO-25
 70
     0
  3

  4

  5

  6

  7

 40
1.0
 41
2.5
 42
0.625
 43
3.75
 44
1.25
 45
0.0
 46
0.0
 47
0.0
 48
0.0
140
2.5
141
2.5
142
0.0
143
0.03937007874016
144
1.0
145
0.0
146
1.0
147
0.625
 71
     0
 72
     0
 73
     0
 74
     0
 75
     0
 76
     0
 77
     1
 78
     8
170
     0
171
     3
172
     1
173
     0
174
     0
175
     0
176
     0
177
     0
178
     0
270
     2
271
     2
272
     2
273
     2
274
     3
340
11
275
     0
280
     0
281
     0
282
     0
283
     0
284
     8
285
     0
286
     0
287
     3
288
     0
  0
ENDTAB
  0
TABLE
  2
BLOCK_RECORD
  5
1
330
0
100
AcDbSymbolTable
 70
     1
  0
BLOCK_RECORD
  5
1F
330
1
100
AcDbSymbolTableRecord
100
AcDbBlockTableRecord
  2
*MODEL_SPACE
  0
BLOCK_RECORD
  5
1B
330
1
100
AcDbSymbolTableRecord
100
AcDbBlockTableRecord
  2
*PAPER_SPACE
  0
ENDTAB
  0
ENDSEC
  0
SECTION
  2
BLOCKS
  0
BLOCK
  5
20
330
1F
100
AcDbEntity
  8
0
100
AcDbBlockBegin
  2
*MODEL_SPACE
 70
     0
 10
0.0
 20
0.0
 30
0.0
  3
*MODEL_SPACE
  1

  0
ENDBLK
  5
21
330
1F
100
AcDbEntity
  8
0
100
AcDbBlockEnd
  0
BLOCK
  5
1C
330
1B
100
AcDbEntity
 67
     1
  8
0
100
AcDbBlockBegin
  2
*PAPER_SPACE
  1

  0
ENDBLK
  5
1D
330
1B
100
AcDbEntity
 67
     1
  8
0
100
AcDbBlockEnd
  0
ENDSEC
  0
SECTION
  2
ENTITIES
  0
LWPOLYLINE
  5
100
100
AcDbEntity
  8
0
 62
7
100
AcDbPolyline
 90
652
 70
1
 10
3.937364
 20
6.695317
 30
0.0
 10
3.967616
 20
6.687590
 30
0.0
 10
3.996166
 20
6.674950
 30
0.0
 10
4.022223
 20
6.657748
 30
0.0
 10
4.045064
 20
6.636460
 30
0.0
 10
4.064055
 20
6.611678
 30
0.0
 10
4.078671
 20
6.584087
 30
0.0
 10
4.088505
 20
6.554453
 30
0.0
 10
4.093750
 20
6.510417
 30
0.0
 10
4.093750
 20
6.177083
 30
0.0
 10
4.239583
 20
6.177083
 30
0.0
 10
4.239583
 20
6.510417
 30
0.0
 10
4.242183
 20
6.541531
 30
0.0
 10
4.249910
 20
6.571783
 30
0.0
 10
4.262550
 20
6.600333
 30
0.0
 10
4.279752
 20
6.626389
 30
0.0
 10
4.301040
 20
6.649230
 30
0.0
 10
4.325822
 20
6.668222
 30
0.0
 10
4.353413
 20
6.682837
 30
0.0
 10
4.383047
 20
6.692672
 30
0.0
 10
4.413901
 20
6.697453
 30
0.0
 10
4.445122
 20
6.697048
 30
0.0
 10
4.475842
 20
6.691467
 30
0.0
 10
4.505210
 20
6.680865
 30
0.0
 10
4.532411
 20
6.665538
 30
0.0
 10
4.556692
 20
6.645908
 30
0.0
 10
4.577379
 20
6.622522
 30
0.0
 10
4.593898
 20
6.596027
 30
0.0
 10
4.605792
 20
6.567158
 30
0.0
 10
4.612730
 20
6.536716
 30
0.0
 10
4.614583
 20
6.510417
 30
0.0
 10
4.614583
 20
6.177083
 30
0.0
 10
4.760417
 20
6.177083
 30
0.0
 10
4.760417
 20
6.510417
 30
0.0
 10
4.763016
 20
6.541531
 30
0.0
 10
4.770743
 20
6.571783
 30
0.0
 10
4.783383
 20
6.600333
 30
0.0
 10
4.800585
 20
6.626389
 30
0.0
 10
4.821873
 20
6.649230
 30
0.0
 10
4.846656
 20
6.668222
 30
0.0
 10
4.874246
 20
6.682837
 30
0.0
 10
4.903880
 20
6.692672
 30
0.0
 10
4.947917
 20
6.697917
 30
0.0
 10
5.989583
 20
6.697917
 30
0.0
 10
6.020698
 20
6.695317
 30
0.0
 10
6.050949
 20
6.687590
 30
0.0
 10
6.079499
 20
6.674950
 30
0.0
 10
6.105556
 20
6.657748
 30
0.0
 10
6.128397
 20
6.636460
 30
0.0
 10
6.147388
 20
6.611678
 30
0.0
 10
6.162004
 20
6.584087
 30
0.0
 10
6.171839
 20
6.554453
 30
0.0
 10
6.176619
 20
6.523599
 30
0.0
 10
6.176214
 20
6.492378
 30
0.0
 10
6.170633
 20
6.461658
 30
0.0
 10
6.160032
 20
6.432290
 30
0.0
 10
6.144704
 20
6.405089
 30
0.0
 10
6.125075
 20
6.380808
 30
0.0
 10
6.101689
 20
6.360121
 30
0.0
 10
6.075194
 20
6.343602
 30
0.0
 10
6.046325
 20
6.331708
 30
0.0
 10
6.015883
 20
6.324770
 30
0.0
 10
5.989583
 20
6.322917
 30
0.0
 10
5.135417
 20
6.322917
 30
0.0
 10
5.135417
 20
5.656250
 30
0.0
 10
5.281250
 20
5.656250
 30
0.0
 10
5.281250
 20
5.989583
 30
0.0
 10
5.283850
 20
6.020698
 30
0.0
 10
5.291576
 20
6.050949
 30
0.0
 10
5.304216
 20
6.079499
 30
0.0
 10
5.321419
 20
6.105556
 30
0.0
 10
5.342706
 20
6.128397
 30
0.0
 10
5.367489
 20
6.147388
 30
0.0
 10
5.395080
 20
6.162004
 30
0.0
 10
5.424713
 20
6.171839
 30
0.0
 10
5.455568
 20
6.176619
 30
0.0
 10
5.486788
 20
6.176214
 30
0.0
 10
5.517508
 20
6.170633
 30
0.0
 10
5.546876
 20
6.160032
 30
0.0
 10
5.574078
 20
6.144704
 30
0.0
 10
5.598359
 20
6.125075
 30
0.0
 10
5.619046
 20
6.101689
 30
0.0
 10
5.635565
 20
6.075194
 30
0.0
 10
5.647458
 20
6.046325
 30
0.0
 10
5.654396
 20
6.015883
 30
0.0
 10
5.656250
 20
5.989583
 30
0.0
 10
5.656250
 20
5.468750
 30
0.0
 10
5.653650
 20
5.437636
 30
0.0
 10
5.645924
 20
5.407384
 30
0.0
 10
5.633284
 20
5.378834
 30
0.0
 10
5.616081
 20
5.352777
 30
0.0
 10
5.594794
 20
5.329936
 30
0.0
 10
5.570011
 20
5.310945
 30
0.0
 10
5.542420
 20
5.296329
 30
0.0
 10
5.512787
 20
5.286495
 30
0.0
 10
5.468750
 20
5.281250
 30
0.0
 10
5.135417
 20
5.281250
 30
0.0
 10
5.135417
 20
5.135417
 30
0.0
 10
5.802083
 20
5.135417
 30
0.0
 10
5.802083
 20
5.989583
 30
0.0
 10
5.804683
 20
6.020698
 30
0.0
 10
5.812410
 20
6.050949
 30
0.0
 10
5.825050
 20
6.079499
 30
0.0
 10
5.842252
 20
6.105556
 30
0.0
 10
5.863540
 20
6.128397
 30
0.0
 10
5.888322
 20
6.147388
 30
0.0
 10
5.915913
 20
6.162004
 30
0.0
 10
5.945547
 20
6.171839
 30
0.0
 10
5.976401
 20
6.176619
 30
0.0
 10
6.007622
 20
6.176214
 30
0.0
 10
6.038342
 20
6.170633
 30
0.0
 10
6.067710
 20
6.160032
 30
0.0
 10
6.094911
 20
6.144704
 30
0.0
 10
6.119192
 20
6.125075
 30
0.0
 10
6.139879
 20
6.101689
 30
0.0
 10
6.156398
 20
6.075194
 30
0.0
 10
6.168292
 20
6.046325
 30
0.0
 10
6.175230
 20
6.015883
 30
0.0
 10
6.177083
 20
5.989583
 30
0.0
 10
6.177083
 20
5.656250
 30
0.0
 10
6.322917
 20
5.656250
 30
0.0
 10
6.322917
 20
6.510417
 30
0.0
 10
6.325516
 20
6.541531
 30
0.0
 10
6.333243
 20
6.571783
 30
0.0
 10
6.345883
 20
6.600333
 30
0.0
 10
6.363085
 20
6.626389
 30
0.0
 10
6.384373
 20
6.649230
 30
0.0
 10
6.409156
 20
6.668222
 30
0.0
 10
6.436746
 20
6.682837
 30
0.0
 10
6.466380
 20
6.692672
 30
0.0
 10
6.497235
 20
6.697453
 30
0.0
 10
6.528455
 20
6.697048
 30
0.0
 10
6.559175
 20
6.691467
 30
0.0
 10
6.588543
 20
6.680865
 30
0.0
 10
6.615744
 20
6.665538
 30
0.0
 10
6.640025
 20
6.645908
 30
0.0
 10
6.660712
 20
6.622522
 30
0.0
 10
6.677232
 20
6.596027
 30
0.0
 10
6.689125
 20
6.567158
 30
0.0
 10
6.696063
 20
6.536716
 30
0.0
 10
6.697917
 20
6.510417
 30
0.0
 10
6.697917
 20
5.468750
 30
0.0
 10
6.695317
 20
5.437636
 30
0.0
 10
6.687590
 20
5.407384
 30
0.0
 10
6.674950
 20
5.378834
 30
0.0
 10
6.657748
 20
5.352777
 30
0.0
 10
6.636460
 20
5.329936
 30
0.0
 10
6.611678
 20
5.310945
 30
0.0
 10
6.584087
 20
5.296329
 30
0.0
 10
6.554453
 20
5.286495
 30
0.0
 10
6.510417
 20
5.281250
 30
0.0
 10
6.177083
 20
5.281250
 30
0.0
 10
6.177083
 20
5.135417
 30
0.0
 10
6.510417
 20
5.135417
 30
0.0
 10
6.541531
 20
5.132817
 30
0.0
 10
6.571783
 20
5.125090
 30
0.0
 10
6.600333
 20
5.112450
 30
0.0
 10
6.626389
 20
5.095248
 30
0.0
 10
6.649230
 20
5.073960
 30
0.0
 10
6.668222
 20
5.049178
 30
0.0
 10
6.682837
 20
5.021587
 30
0.0
 10
6.692672
 20
4.991953
 30
0.0
 10
6.697453
 20
4.961099
 30
0.0
 10
6.697048
 20
4.929878
 30
0.0
 10
6.691467
 20
4.899158
 30
0.0
 10
6.680865
 20
4.869790
 30
0.0
 10
6.665538
 20
4.842589
 30
0.0
 10
6.645908
 20
4.818308
 30
0.0
 10
6.622522
 20
4.797621
 30
0.0
 10
6.596027
 20
4.781102
 30
0.0
 10
6.567158
 20
4.769208
 30
0.0
 10
6.536716
 20
4.762270
 30
0.0
 10
6.510417
 20
4.760417
 30
0.0
 10
5.656250
 20
4.760417
 30
0.0
 10
5.656250
 20
4.614583
 30
0.0
 10
6.510417
 20
4.614583
 30
0.0
 10
6.541531
 20
4.611984
 30
0.0
 10
6.571783
 20
4.604257
 30
0.0
 10
6.600333
 20
4.591617
 30
0.0
 10
6.626389
 20
4.574415
 30
0.0
 10
6.649230
 20
4.553127
 30
0.0
 10
6.668222
 20
4.528344
 30
0.0
 10
6.682837
 20
4.500754
 30
0.0
 10
6.692672
 20
4.471120
 30
0.0
 10
6.697917
 20
4.427083
 30
0.0
 10
6.697917
 20
3.906250
 30
0.0
 10
6.695317
 20
3.875136
 30
0.0
 10
6.687590
 20
3.844884
 30
0.0
 10
6.674950
 20
3.816334
 30
0.0
 10
6.657748
 20
3.790277
 30
0.0
 10
6.636460
 20
3.767436
 30
0.0
 10
6.611678
 20
3.748445
 30
0.0
 10
6.584087
 20
3.733829
 30
0.0
 10
6.554453
 20
3.723995
 30
0.0
 10
6.523599
 20
3.719214
 30
0.0
 10
6.492378
 20
3.719619
 30
0.0
 10
6.461658
 20
3.725200
 30
0.0
 10
6.432290
 20
3.735801
 30
0.0
 10
6.405089
 20
3.751129
 30
0.0
 10
6.380808
 20
3.770758
 30
0.0
 10
6.360121
 20
3.794145
 30
0.0
 10
6.343602
 20
3.820640
 30
0.0
 10
6.331708
 20
3.849509
 30
0.0
 10
6.324770
 20
3.879951
 30
0.0
 10
6.322917
 20
3.906250
 30
0.0
 10
6.322917
 20
4.239583
 30
0.0
 10
5.656250
 20
4.239583
 30
0.0
 10
5.656250
 20
4.093750
 30
0.0
 10
5.989583
 20
4.093750
 30
0.0
 10
6.020698
 20
4.091150
 30
0.0
 10
6.050949
 20
4.083424
 30
0.0
 10
6.079499
 20
4.070784
 30
0.0
 10
6.105556
 20
4.053581
 30
0.0
 10
6.128397
 20
4.032294
 30
0.0
 10
6.147388
 20
4.007511
 30
0.0
 10
6.162004
 20
3.979920
 30
0.0
 10
6.171839
 20
3.950287
 30
0.0
 10
6.177083
 20
3.906250
 30
0.0
 10
6.177083
 20
3.572917
 30
0.0
 10
6.510417
 20
3.572917
 30
0.0
 10
6.541531
 20
3.570317
 30
0.0
 10
6.571783
 20
3.562590
 30
0.0
 10
6.600333
 20
3.549950
 30
0.0
 10
6.626389
 20
3.532748
 30
0.0
 10
6.649230
 20
3.511460
 30
0.0
 10
6.668222
 20
3.486678
 30
0.0
 10
6.682837
 20
3.459087
 30
0.0
 10
6.692672
 20
3.429453
 30
0.0
 10
6.697453
 20
3.398599
 30
0.0
 10
6.697048
 20
3.367378
 30
0.0
 10
6.691467
 20
3.336658
 30
0.0
 10
6.680865
 20
3.307290
 30
0.0
 10
6.665538
 20
3.280089
 30
0.0
 10
6.645908
 20
3.255808
 30
0.0
 10
6.622522
 20
3.235121
 30
0.0
 10
6.596027
 20
3.218602
 30
0.0
 10
6.567158
 20
3.206708
 30
0.0
 10
6.536716
 20
3.199770
 30
0.0
 10
6.510417
 20
3.197917
 30
0.0
 10
5.989583
 20
3.197917
 30
0.0
 10
5.958469
 20
3.200516
 30
0.0
 10
5.928217
 20
3.208243
 30
0.0
 10
5.899667
 20
3.220883
 30
0.0
 10
5.873611
 20
3.238085
 30
0.0
 10
5.850770
 20
3.259373
 30
0.0
 10
5.831778
 20
3.284156
 30
0.0
 10
5.817162
 20
3.311746
 30
0.0
 10
5.807328
 20
3.341380
 30
0.0
 10
5.802083
 20
3.385417
 30
0.0
 10
5.802083
 20
3.718750
 30
0.0
 10
5.656250
 20
3.718750
 30
0.0
 10
5.656250
 20
3.052083
 30
0.0
 10
6.510417
 20
3.052083
 30
0.0
 10
6.541531
 20
3.049484
 30
0.0
 10
6.571783
 20
3.041757
 30
0.0
 10
6.600333
 20
3.029117
 30
0.0
 10
6.626389
 20
3.011915
 30
0.0
 10
6.649230
 20
2.990627
 30
0.0
 10
6.668222
 20
2.965844
 30
0.0
 10
6.682837
 20
2.938254
 30
0.0
 10
6.692672
 20
2.908620
 30
0.0
 10
6.697453
 20
2.877765
 30
0.0
 10
6.697048
 20
2.846545
 30
0.0
 10
6.691467
 20
2.815825
 30
0.0
 10
6.680865
 20
2.786457
 30
0.0
 10
6.665538
 20
2.759256
 30
0.0
 10
6.645908
 20
2.734975
 30
0.0
 10
6.622522
 20
2.714288
 30
0.0
 10
6.596027
 20
2.697768
 30
0.0
 10
6.567158
 20
2.685875
 30
0.0
 10
6.536716
 20
2.678937
 30
0.0
 10
6.510417
 20
2.677083
 30
0.0
 10
4.947917
 20
2.677083
 30
0.0
 10
4.916802
 20
2.679683
 30
0.0
 10
4.886551
 20
2.687410
 30
0.0
 10
4.858001
 20
2.700050
 30
0.0
 10
4.831944
 20
2.717252
 30
0.0
 10
4.809103
 20
2.738540
 30
0.0
 10
4.790112
 20
2.763322
 30
0.0
 10
4.775496
 20
2.790913
 30
0.0
 10
4.765661
 20
2.820547
 30
0.0
 10
4.760881
 20
2.851401
 30
0.0
 10
4.761286
 20
2.882622
 30
0.0
 10
4.766867
 20
2.913342
 30
0.0
 10
4.777468
 20
2.942710
 30
0.0
 10
4.792796
 20
2.969911
 30
0.0
 10
4.812425
 20
2.994192
 30
0.0
 10
4.835811
 20
3.014879
 30
0.0
 10
4.862306
 20
3.031398
 30
0.0
 10
4.891175
 20
3.043292
 30
0.0
 10
4.921617
 20
3.050230
 30
0.0
 10
4.947917
 20
3.052083
 30
0.0
 10
5.281250
 20
3.052083
 30
0.0
 10
5.281250
 20
4.760417
 30
0.0
 10
5.135417
 20
4.760417
 30
0.0
 10
5.135417
 20
3.385417
 30
0.0
 10
5.132817
 20
3.354302
 30
0.0
 10
5.125090
 20
3.324051
 30
0.0
 10
5.112450
 20
3.295501
 30
0.0
 10
5.095248
 20
3.269444
 30
0.0
 10
5.073960
 20
3.246603
 30
0.0
 10
5.049178
 20
3.227612
 30
0.0
 10
5.021587
 20
3.212996
 30
0.0
 10
4.991953
 20
3.203161
 30
0.0
 10
4.961099
 20
3.198381
 30
0.0
 10
4.929878
 20
3.198786
 30
0.0
 10
4.899158
 20
3.204367
 30
0.0
 10
4.869790
 20
3.214968
 30
0.0
 10
4.842589
 20
3.230296
 30
0.0
 10
4.818308
 20
3.249925
 30
0.0
 10
4.797621
 20
3.273311
 30
0.0
 10
4.781102
 20
3.299806
 30
0.0
 10
4.769208
 20
3.328675
 30
0.0
 10
4.762270
 20
3.359117
 30
0.0
 10
4.760417
 20
3.385417
 30
0.0
 10
4.760417
 20
3.718750
 30
0.0
 10
4.614583
 20
3.718750
 30
0.0
 10
4.614583
 20
2.864583
 30
0.0
 10
4.611984
 20
2.833469
 30
0.0
 10
4.604257
 20
2.803217
 30
0.0
 10
4.591617
 20
2.774667
 30
0.0
 10
4.574415
 20
2.748611
 30
0.0
 10
4.553127
 20
2.725770
 30
0.0
 10
4.528344
 20
2.706778
 30
0.0
 10
4.500754
 20
2.692163
 30
0.0
 10
4.471120
 20
2.682328
 30
0.0
 10
4.440265
 20
2.677547
 30
0.0
 10
4.409045
 20
2.677952
 30
0.0
 10
4.378325
 20
2.683533
 30
0.0
 10
4.348957
 20
2.694135
 30
0.0
 10
4.321756
 20
2.709462
 30
0.0
 10
4.297475
 20
2.729092
 30
0.0
 10
4.276788
 20
2.752478
 30
0.0
 10
4.260268
 20
2.778973
 30
0.0
 10
4.248375
 20
2.807842
 30
0.0
 10
4.241437
 20
2.838284
 30
0.0
 10
4.239583
 20
2.864583
 30
0.0
 10
4.239583
 20
3.197917
 30
0.0
 10
4.093750
 20
3.197917
 30
0.0
 10
4.093750
 20
2.864583
 30
0.0
 10
4.091150
 20
2.833469
 30
0.0
 10
4.083424
 20
2.803217
 30
0.0
 10
4.070784
 20
2.774667
 30
0.0
 10
4.053581
 20
2.748611
 30
0.0
 10
4.032294
 20
2.725770
 30
0.0
 10
4.007511
 20
2.706778
 30
0.0
 10
3.979920
 20
2.692163
 30
0.0
 10
3.950287
 20
2.682328
 30
0.0
 10
3.919432
 20
2.677547
 30
0.0
 10
3.888212
 20
2.677952
 30
0.0
 10
3.857492
 20
2.683533
 30
0.0
 10
3.828124
 20
2.694135
 30
0.0
 10
3.800922
 20
2.709462
 30
0.0
 10
3.776641
 20
2.729092
 30
0.0
 10
3.755954
 20
2.752478
 30
0.0
 10
3.739435
 20
2.778973
 30
0.0
 10
3.727542
 20
2.807842
 30
0.0
 10
3.720604
 20
2.838284
 30
0.0
 10
3.718750
 20
2.864583
 30
0.0
 10
3.718750
 20
3.197917
 30
0.0
 10
3.572917
 20
3.197917
 30
0.0
 10
3.572917
 20
2.864583
 30
0.0
 10
3.570317
 20
2.833469
 30
0.0
 10
3.562590
 20
2.803217
 30
0.0
 10
3.549950
 20
2.774667
 30
0.0
 10
3.532748
 20
2.748611
 30
0.0
 10
3.511460
 20
2.725770
 30
0.0
 10
3.486678
 20
2.706778
 30
0.0
 10
3.459087
 20
2.692163
 30
0.0
 10
3.429453
 20
2.682328
 30
0.0
 10
3.385417
 20
2.677083
 30
0.0
 10
2.864583
 20
2.677083
 30
0.0
 10
2.833469
 20
2.679683
 30
0.0
 10
2.803217
 20
2.687410
 30
0.0
 10
2.774667
 20
2.700050
 30
0.0
 10
2.748611
 20
2.717252
 30
0.0
 10
2.725770
 20
2.738540
 30
0.0
 10
2.706778
 20
2.763322
 30
0.0
 10
2.692163
 20
2.790913
 30
0.0
 10
2.682328
 20
2.820547
 30
0.0
 10
2.677547
 20
2.851401
 30
0.0
 10
2.677953
 20
2.882622
 30
0.0
 10
2.683533
 20
2.913342
 30
0.0
 10
2.694135
 20
2.942710
 30
0.0
 10
2.709462
 20
2.969911
 30
0.0
 10
2.729092
 20
2.994192
 30
0.0
 10
2.752478
 20
3.014879
 30
0.0
 10
2.778973
 20
3.031398
 30
0.0
 10
2.807842
 20
3.043292
 30
0.0
 10
2.838284
 20
3.050230
 30
0.0
 10
2.864583
 20
3.052083
 30
0.0
 10
3.197917
 20
3.052083
 30
0.0
 10
3.197917
 20
3.197917
 30
0.0
 10
2.864583
 20
3.197917
 30
0.0
 10
2.833469
 20
3.200516
 30
0.0
 10
2.803217
 20
3.208243
 30
0.0
 10
2.774667
 20
3.220883
 30
0.0
 10
2.748611
 20
3.238085
 30
0.0
 10
2.725770
 20
3.259373
 30
0.0
 10
2.706778
 20
3.284156
 30
0.0
 10
2.692163
 20
3.311746
 30
0.0
 10
2.682328
 20
3.341380
 30
0.0
 10
2.677083
 20
3.385417
 30
0.0
 10
2.677083
 20
3.906250
 30
0.0
 10
2.679683
 20
3.937364
 30
0.0
 10
2.687410
 20
3.967616
 30
0.0
 10
2.700050
 20
3.996166
 30
0.0
 10
2.717252
 20
4.022223
 30
0.0
 10
2.738540
 20
4.045064
 30
0.0
 10
2.763322
 20
4.064055
 30
0.0
 10
2.790913
 20
4.078671
 30
0.0
 10
2.820547
 20
4.088505
 30
0.0
 10
2.864583
 20
4.093750
 30
0.0
 10
3.197917
 20
4.093750
 30
0.0
 10
3.197917
 20
4.239583
 30
0.0
 10
2.864583
 20
4.239583
 30
0.0
 10
2.833469
 20
4.242183
 30
0.0
 10
2.803217
 20
4.249910
 30
0.0
 10
2.774667
 20
4.262550
 30
0.0
 10
2.748611
 20
4.279752
 30
0.0
 10
2.725770
 20
4.301040
 30
0.0
 10
2.706778
 20
4.325822
 30
0.0
 10
2.692163
 20
4.353413
 30
0.0
 10
2.682328
 20
4.383047
 30
0.0
 10
2.677547
 20
4.413901
 30
0.0
 10
2.677953
 20
4.445122
 30
0.0
 10
2.683533
 20
4.475842
 30
0.0
 10
2.694135
 20
4.505210
 30
0.0
 10
2.709462
 20
4.532411
 30
0.0
 10
2.729092
 20
4.556692
 30
0.0
 10
2.752478
 20
4.577379
 30
0.0
 10
2.778973
 20
4.593898
 30
0.0
 10
2.807842
 20
4.605792
 30
0.0
 10
2.838284
 20
4.612730
 30
0.0
 10
2.864583
 20
4.614583
 30
0.0
 10
3.385417
 20
4.614583
 30
0.0
 10
3.416531
 20
4.611984
 30
0.0
 10
3.446783
 20
4.604257
 30
0.0
 10
3.475333
 20
4.591617
 30
0.0
 10
3.501389
 20
4.574415
 30
0.0
 10
3.524230
 20
4.553127
 30
0.0
 10
3.543222
 20
4.528344
 30
0.0
 10
3.557837
 20
4.500754
 30
0.0
 10
3.567672
 20
4.471120
 30
0.0
 10
3.572917
 20
4.427083
 30
0.0
 10
3.572917
 20
3.906250
 30
0.0
 10
3.570317
 20
3.875136
 30
0.0
 10
3.562590
 20
3.844884
 30
0.0
 10
3.549950
 20
3.816334
 30
0.0
 10
3.532748
 20
3.790277
 30
0.0
 10
3.511460
 20
3.767436
 30
0.0
 10
3.486678
 20
3.748445
 30
0.0
 10
3.459087
 20
3.733829
 30
0.0
 10
3.429453
 20
3.723995
 30
0.0
 10
3.385417
 20
3.718750
 30
0.0
 10
3.052083
 20
3.718750
 30
0.0
 10
3.052083
 20
3.572917
 30
0.0
 10
4.239583
 20
3.572917
 30
0.0
 10
4.239583
 20
4.239583
 30
0.0
 10
4.093750
 20
4.239583
 30
0.0
 10
4.093750
 20
3.906250
 30
0.0
 10
4.091150
 20
3.875136
 30
0.0
 10
4.083424
 20
3.844884
 30
0.0
 10
4.070784
 20
3.816334
 30
0.0
 10
4.053581
 20
3.790277
 30
0.0
 10
4.032294
 20
3.767436
 30
0.0
 10
4.007511
 20
3.748445
 30
0.0
 10
3.979920
 20
3.733829
 30
0.0
 10
3.950287
 20
3.723995
 30
0.0
 10
3.919432
 20
3.719214
 30
0.0
 10
3.888212
 20
3.719619
 30
0.0
 10
3.857492
 20
3.725200
 30
0.0
 10
3.828124
 20
3.735801
 30
0.0
 10
3.800922
 20
3.751129
 30
0.0
 10
3.776641
 20
3.770758
 30
0.0
 10
3.755954
 20
3.794145
 30
0.0
 10
3.739435
 20
3.820640
 30
0.0
 10
3.727542
 20
3.849509
 30
0.0
 10
3.720604
 20
3.879951
 30
0.0
 10
3.718750
 20
3.906250
 30
0.0
 10
3.718750
 20
4.427083
 30
0.0
 10
3.721350
 20
4.458198
 30
0.0
 10
3.729076
 20
4.488449
 30
0.0
 10
3.741716
 20
4.516999
 30
0.0
 10
3.758919
 20
4.543056
 30
0.0
 10
3.780206
 20
4.565897
 30
0.0
 10
3.804989
 20
4.584888
 30
0.0
 10
3.832580
 20
4.599504
 30
0.0
 10
3.862213
 20
4.609339
 30
0.0
 10
3.906250
 20
4.614583
 30
0.0
 10
4.239583
 20
4.614583
 30
0.0
 10
4.239583
 20
5.468750
 30
0.0
 10
4.242183
 20
5.499864
 30
0.0
 10
4.249910
 20
5.530116
 30
0.0
 10
4.262550
 20
5.558666
 30
0.0
 10
4.279752
 20
5.584723
 30
0.0
 10
4.301040
 20
5.607564
 30
0.0
 10
4.325822
 20
5.626555
 30
0.0
 10
4.353413
 20
5.641171
 30
0.0
 10
4.383047
 20
5.651005
 30
0.0
 10
4.413901
 20
5.655786
 30
0.0
 10
4.445122
 20
5.655381
 30
0.0
 10
4.475842
 20
5.649800
 30
0.0
 10
4.505210
 20
5.639199
 30
0.0
 10
4.532411
 20
5.623871
 30
0.0
 10
4.556692
 20
5.604242
 30
0.0
 10
4.577379
 20
5.580855
 30
0.0
 10
4.593898
 20
5.554360
 30
0.0
 10
4.605792
 20
5.525491
 30
0.0
 10
4.612730
 20
5.495049
 30
0.0
 10
4.614583
 20
5.468750
 30
0.0
 10
4.614583
 20
4.093750
 30
0.0
 10
4.760417
 20
4.093750
 30
0.0
 10
4.760417
 20
5.802083
 30
0.0
 10
4.093750
 20
5.802083
 30
0.0
 10
4.093750
 20
4.947917
 30
0.0
 10
4.092998
 20
4.938913
 30
0.0
 10
4.092880
 20
4.929878
 30
0.0
 10
4.091700
 20
4.923382
 30
0.0
 10
4.091150
 20
4.916802
 30
0.0
 10
4.088914
 20
4.908048
 30
0.0
 10
4.087299
 20
4.899158
 30
0.0
 10
4.085057
 20
4.892948
 30
0.0
 10
4.083423
 20
4.886551
 30
0.0
 10
4.079765
 20
4.878288
 30
0.0
 10
4.076698
 20
4.869790
 30
0.0
 10
4.073457
 20
4.864039
 30
0.0
 10
4.070783
 20
4.858001
 30
0.0
 10
4.065805
 20
4.850460
 30
0.0
 10
4.061370
 20
4.842589
 30
0.0
 10
4.057219
 20
4.837454
 30
0.0
 10
4.053581
 20
4.831944
 30
0.0
 10
4.047421
 20
4.825334
 30
0.0
 10
4.041741
 20
4.818308
 30
0.0
 10
4.036795
 20
4.813933
 30
0.0
 10
4.032293
 20
4.809103
 30
0.0
 10
4.025123
 20
4.803608
 30
0.0
 10
4.018354
 20
4.797621
 30
0.0
 10
4.012751
 20
4.794128
 30
0.0
 10
4.007511
 20
4.790112
 30
0.0
 10
3.999527
 20
4.785882
 30
0.0
 10
3.991859
 20
4.781102
 30
0.0
 10
3.985754
 20
4.778587
 30
0.0
 10
3.979920
 20
4.775496
 30
0.0
 10
3.971344
 20
4.772650
 30
0.0
 10
3.962991
 20
4.769208
 30
0.0
 10
3.956553
 20
4.767741
 30
0.0
 10
3.950286
 20
4.765661
 30
0.0
 10
3.941357
 20
4.764278
 30
0.0
 10
3.932548
 20
4.762270
 30
0.0
 10
3.924938
 20
4.761734
 30
0.0
 10
3.919432
 20
4.760881
 30
0.0
 10
3.913860
 20
4.760954
 30
0.0
 10
3.906250
 20
4.760417
 30
0.0
 10
3.385417
 20
4.760417
 30
0.0
 10
3.354302
 20
4.763016
 30
0.0
 10
3.324051
 20
4.770743
 30
0.0
 10
3.295501
 20
4.783383
 30
0.0
 10
3.269444
 20
4.800585
 30
0.0
 10
3.246603
 20
4.821873
 30
0.0
 10
3.227612
 20
4.846656
 30
0.0
 10
3.212996
 20
4.874246
 30
0.0
 10
3.203161
 20
4.903880
 30
0.0
 10
3.198381
 20
4.934735
 30
0.0
 10
3.198786
 20
4.965955
 30
0.0
 10
3.204367
 20
4.996675
 30
0.0
 10
3.214968
 20
5.026043
 30
0.0
 10
3.230296
 20
5.053244
 30
0.0
 10
3.249925
 20
5.077525
 30
0.0
 10
3.273311
 20
5.098212
 30
0.0
 10
3.299806
 20
5.114732
 30
0.0
 10
3.328675
 20
5.126625
 30
0.0
 10
3.359117
 20
5.133563
 30
0.0
 10
3.385417
 20
5.135417
 30
0.0
 10
3.718750
 20
5.135417
 30
0.0
 10
3.718750
 20
6.322917
 30
0.0
 10
3.572917
 20
6.322917
 30
0.0
 10
3.572917
 20
5.468750
 30
0.0
 10
3.570317
 20
5.437636
 30
0.0
 10
3.562590
 20
5.407384
 30
0.0
 10
3.549950
 20
5.378834
 30
0.0
 10
3.532748
 20
5.352777
 30
0.0
 10
3.511460
 20
5.329936
 30
0.0
 10
3.486678
 20
5.310945
 30
0.0
 10
3.459087
 20
5.296329
 30
0.0
 10
3.429453
 20
5.286495
 30
0.0
 10
3.398599
 20
5.281714
 30
0.0
 10
3.367378
 20
5.282119
 30
0.0
 10
3.336658
 20
5.287700
 30
0.0
 10
3.307290
 20
5.298301
 30
0.0
 10
3.280089
 20
5.313629
 30
0.0
 10
3.255808
 20
5.333258
 30
0.0
 10
3.235121
 20
5.356645
 30
0.0
 10
3.218602
 20
5.383140
 30
0.0
 10
3.206708
 20
5.412009
 30
0.0
 10
3.199770
 20
5.442451
 30
0.0
 10
3.197917
 20
5.468750
 30
0.0
 10
3.197917
 20
5.802083
 30
0.0
 10
3.052083
 20
5.802083
 30
0.0
 10
3.052083
 20
4.947917
 30
0.0
 10
3.049484
 20
4.916802
 30
0.0
 10
3.041757
 20
4.886551
 30
0.0
 10
3.029117
 20
4.858001
 30
0.0
 10
3.011915
 20
4.831944
 30
0.0
 10
2.990627
 20
4.809103
 30
0.0
 10
2.965844
 20
4.790112
 30
0.0
 10
2.938254
 20
4.775496
 30
0.0
 10
2.908620
 20
4.765661
 30
0.0
 10
2.877765
 20
4.760881
 30
0.0
 10
2.846545
 20
4.761286
 30
0.0
 10
2.815825
 20
4.766867
 30
0.0
 10
2.786457
 20
4.777468
 30
0.0
 10
2.759256
 20
4.792796
 30
0.0
 10
2.734975
 20
4.812425
 30
0.0
 10
2.714288
 20
4.835811
 30
0.0
 10
2.697768
 20
4.862306
 30
0.0
 10
2.685875
 20
4.891175
 30
0.0
 10
2.678937
 20
4.921617
 30
0.0
 10
2.677083
 20
4.947917
 30
0.0
 10
2.677083
 20
5.989583
 30
0.0
 10
2.679683
 20
6.020698
 30
0.0
 10
2.687410
 20
6.050949
 30
0.0
 10
2.700050
 20
6.079499
 30
0.0
 10
2.717252
 20
6.105556
 30
0.0
 10
2.738540
 20
6.128397
 30
0.0
 10
2.763322
 20
6.147388
 30
0.0
 10
2.790913
 20
6.162004
 30
0.0
 10
2.820547
 20
6.171839
 30
0.0
 10
2.864583
 20
6.177083
 30
0.0
 10
3.197917
 20
6.177083
 30
0.0
 10
3.197917
 20
6.322917
 30
0.0
 10
2.864583
 20
6.322917
 30
0.0
 10
2.833469
 20
6.325516
 30
0.0
 10
2.803217
 20
6.333243
 30
0.0
 10
2.774667
 20
6.345883
 30
0.0
 10
2.748611
 20
6.363085
 30
0.0
 10
2.725770
 20
6.384373
 30
0.0
 10
2.706778
 20
6.409156
 30
0.0
 10
2.692163
 20
6.436746
 30
0.0
 10
2.682328
 20
6.466380
 30
0.0
 10
2.677547
 20
6.497235
 30
0.0
 10
2.677953
 20
6.528455
 30
0.0
 10
2.683533
 20
6.559175
 30
0.0
 10
2.694135
 20
6.588543
 30
0.0
 10
2.709462
 20
6.615744
 30
0.0
 10
2.729092
 20
6.640025
 30
0.0
 10
2.752478
 20
6.660712
 30
0.0
 10
2.778973
 20
6.677232
 30
0.0
 10
2.807842
 20
6.689125
 30
0.0
 10
2.838284
 20
6.696063
 30
0.0
 10
2.864583
 20
6.697917
 30
0.0
 10
3.906250
 20
6.697917
 30
0.0
  0
ENDSEC
  0
SECTION
  2
OBJECTS
  0
DICTIONARY
  5
C
330
0
100
AcDbDictionary
  3
ACAD_GROUP
350
D
  3
ACAD_MLINESTYLE
350
17
  0
DICTIONARY
  5
D
330
C
100
AcDbDictionary
  0
DICTIONARY
  5
1A
330
C
100
AcDbDictionary
  0
DICTIONARY
  5
17
330
C
100
AcDbDictionary
  3
STANDARD
350
18
  0
DICTIONARY
  5
19
330
C
100
AcDbDictionary
  0
ENDSEC
  0
EOF
