  0
SECTION
  2
HEADER
  9
$ACADVER
  1
AC1014
  9
$HANDSEED
  5
FFFF
  9
$INSUNITS
 70
     1
  9
$MEASUREMENT
 70
     1
  0
ENDSEC
  0
SECTION
  2
TABLES
  0
TABLE
  2
VPORT
  5
8
330
0
100
AcDbSymbolTable
 70
     4
  0
VPORT
  5
2E
330
8
100
AcDbSymbolTableRecord
100
AcDbViewportTableRecord
  2
*ACTIVE
 70
     0
 10
0.0
 20
0.0
 11
1.0
 21
1.0
 12
210.0
 22
148.5
 13
0.0
 23
0.0
 14
10.0
 24
10.0
 15
10.0
 25
10.0
 16
0.0
 26
0.0
 36
1.0
 17
0.0
 27
0.0
 37
0.0
 40
341.0
 41
1.24
 42
50.0
 43
0.0
 44
0.0
 50
0.0
 51
0.0
 71
     0
 72
   100
 73
     1
 74
     3
 75
     0
 76
     0
 77
     0
 78
     0
  0
ENDTAB
  0
TABLE
  2
LTYPE
  5
5
330
0
100
AcDbSymbolTable
 70
     1
  0
LTYPE
  5
14
330
5
100
AcDbSymbolTableRecord
100
AcDbLinetypeTableRecord
  2
BYBLOCK
 70
     0
  3

 72
    65
 73
     0
 40
0.0
  0
LTYPE
  5
15
330
5
100
AcDbSymbolTableRecord
100
AcDbLinetypeTableRecord
  2
BYLAYER
 70
     0
  3

 72
    65
 73
     0
 40
0.0
  0
LTYPE
  5
16
330
5
100
AcDbSymbolTableRecord
100
AcDbLinetypeTableRecord
  2
CONTINUOUS
 70
     0
  3
Solid line
 72
    65
 73
     0
 40
0.0
  0
ENDTAB
  0
TABLE
  2
LAYER
  5
2
100
AcDbSymbolTable
 70
1
  0
LAYER
  5
50
100
AcDbSymbolTableRecord
100
AcDbLayerTableRecord
  2
0
 70
0
  6
CONTINUOUS
  0
ENDTAB
  0
TABLE
  2
STYLE
  5
3
330
0
100
AcDbSymbolTable
 70
     1
  0
STYLE
  5
11
330
3
100
AcDbSymbolTableRecord
100
AcDbTextStyleTableRecord
  2
STANDARD
 70
     0
 40
0.0
 41
1.0
 50
0.0
 71
     0
 42
2.5
  3
txt
  4

  0
ENDTAB
  0
TABLE
  2
VIEW
  5
6
330
0
100
AcDbSymbolTable
 70
     0
  0
ENDTAB
  0
TABLE
  2
UCS
  5
7
330
0
100
AcDbSymbolTable
 70
     0
  0
ENDTAB
  0
TABLE
  2
APPID
  5
9
330
0
100
AcDbSymbolTable
 70
     2
  0
APPID
  5
12
330
9
100
AcDbSymbolTableRecord
100
AcDbRegAppTableRecord
  2
ACAD
 70
     0
  0
ENDTAB
  0
TABLE
  2
DIMSTYLE
  5
A
330
0
100
AcDbSymbolTable
 70
     1
  0
DIMSTYLE
105
27
330
A
100
AcDbSymbolTableRecord
100
AcDbDimStyleTableRecord
  2
ISO-25
 70
     0
  3

  4

  5

  6

  7

 40
1.0
 41
2.5
 42
0.625
 43
3.75
 44
1.25
 45
0.0
 46
0.0
 47
0.0
 48
0.0
140
2.5
141
2.5
142
0.0
143
0.03937007874016
144
1.0
145
0.0
146
1.0
147
0.625
 71
     0
 72
     0
 73
     0
 74
     0
 75
     0
 76
     0
 77
     1
 78
     8
170
     0
171
     3
172
     1
173
     0
174
     0
175
     0
176
     0
177
     0
178
     0
270
     2
271
     2
272
     2
273
     2
274
     3
340
11
275
     0
280
     0
281
     0
282
     0
283
     0
284
     8
285
     0
286
     0
287
     3
288
     0
  0
ENDTAB
  0
TABLE
  2
BLOCK_RECORD
  5
1
330
0
100
AcDbSymbolTable
 70
     1
  0
BLOCK_RECORD
  5
1F
330
1
100
AcDbSymbolTableRecord
100
AcDbBlockTableRecord
  2
*MODEL_SPACE
  0
BLOCK_RECORD
  5
1B
330
1
100
AcDbSymbolTableRecord
100
AcDbBlockTableRecord
  2
*PAPER_SPACE
  0
ENDTAB
  0
ENDSEC
  0
SECTION
  2
BLOCKS
  0
BLOCK
  5
20
330
1F
100
AcDbEntity
  8
0
100
AcDbBlockBegin
  2
*MODEL_SPACE
 70
     0
 10
0.0
 20
0.0
 30
0.0
  3
*MODEL_SPACE
  1

  0
ENDBLK
  5
21
330
1F
100
AcDbEntity
  8
0
100
AcDbBlockEnd
  0
BLOCK
  5
1C
330
1B
100
AcDbEntity
 67
     1
  8
0
100
AcDbBlockBegin
  2
*PAPER_SPACE
  1

  0
ENDBLK
  5
1D
330
1B
100
AcDbEntity
 67
     1
  8
0
100
AcDbBlockEnd
  0
ENDSEC
  0
SECTION
  2
ENTITIES
  0
LWPOLYLINE
  5
100
100
AcDbEntity
  8
0
 62
7
100
AcDbPolyline
 90
714
 70
1
 10
3.937364
 20
6.695317
 30
0.0
 10
3.967616
 20
6.687590
 30
0.0
 10
3.996166
 20
6.674950
 30
0.0
 10
4.022223
 20
6.657748
 30
0.0
 10
4.045064
 20
6.636460
 30
0.0
 10
4.064055
 20
6.611678
 30
0.0
 10
4.078671
 20
6.584087
 30
0.0
 10
4.088505
 20
6.554453
 30
0.0
 10
4.093286
 20
6.523599
 30
0.0
 10
4.092881
 20
6.492378
 30
0.0
 10
4.087300
 20
6.461658
 30
0.0
 10
4.076699
 20
6.432290
 30
0.0
 10
4.061371
 20
6.405089
 30
0.0
 10
4.041742
 20
6.380808
 30
0.0
 10
4.018355
 20
6.360121
 30
0.0
 10
3.991860
 20
6.343602
 30
0.0
 10
3.962991
 20
6.331708
 30
0.0
 10
3.932549
 20
6.324770
 30
0.0
 10
3.906250
 20
6.322917
 30
0.0
 10
3.572917
 20
6.322917
 30
0.0
 10
3.572917
 20
6.177083
 30
0.0
 10
4.427083
 20
6.177083
 30
0.0
 10
4.458198
 20
6.174484
 30
0.0
 10
4.488449
 20
6.166757
 30
0.0
 10
4.516999
 20
6.154117
 30
0.0
 10
4.543056
 20
6.136915
 30
0.0
 10
4.565897
 20
6.115627
 30
0.0
 10
4.584888
 20
6.090844
 30
0.0
 10
4.599504
 20
6.063254
 30
0.0
 10
4.609339
 20
6.033620
 30
0.0
 10
4.614119
 20
6.002765
 30
0.0
 10
4.613714
 20
5.971545
 30
0.0
 10
4.608133
 20
5.940825
 30
0.0
 10
4.597532
 20
5.911457
 30
0.0
 10
4.582204
 20
5.884256
 30
0.0
 10
4.562575
 20
5.859975
 30
0.0
 10
4.539189
 20
5.839288
 30
0.0
 10
4.512694
 20
5.822768
 30
0.0
 10
4.483825
 20
5.810875
 30
0.0
 10
4.453383
 20
5.803937
 30
0.0
 10
4.427083
 20
5.802083
 30
0.0
 10
3.572917
 20
5.802083
 30
0.0
 10
3.572917
 20
5.656250
 30
0.0
 10
4.427083
 20
5.656250
 30
0.0
 10
4.458198
 20
5.653650
 30
0.0
 10
4.488449
 20
5.645924
 30
0.0
 10
4.516999
 20
5.633284
 30
0.0
 10
4.543056
 20
5.616081
 30
0.0
 10
4.565897
 20
5.594794
 30
0.0
 10
4.584888
 20
5.570011
 30
0.0
 10
4.599504
 20
5.542420
 30
0.0
 10
4.609339
 20
5.512787
 30
0.0
 10
4.614119
 20
5.481932
 30
0.0
 10
4.613714
 20
5.450712
 30
0.0
 10
4.608133
 20
5.419992
 30
0.0
 10
4.597532
 20
5.390624
 30
0.0
 10
4.582204
 20
5.363422
 30
0.0
 10
4.562575
 20
5.339141
 30
0.0
 10
4.539189
 20
5.318454
 30
0.0
 10
4.512694
 20
5.301935
 30
0.0
 10
4.483825
 20
5.290042
 30
0.0
 10
4.453383
 20
5.283104
 30
0.0
 10
4.427083
 20
5.281250
 30
0.0
 10
3.572917
 20
5.281250
 30
0.0
 10
3.572917
 20
5.135417
 30
0.0
 10
4.760417
 20
5.135417
 30
0.0
 10
4.760417
 20
6.322917
 30
0.0
 10
4.427083
 20
6.322917
 30
0.0
 10
4.395969
 20
6.325516
 30
0.0
 10
4.365717
 20
6.333243
 30
0.0
 10
4.337167
 20
6.345883
 30
0.0
 10
4.311111
 20
6.363085
 30
0.0
 10
4.288270
 20
6.384373
 30
0.0
 10
4.269278
 20
6.409156
 30
0.0
 10
4.254663
 20
6.436746
 30
0.0
 10
4.244828
 20
6.466380
 30
0.0
 10
4.240047
 20
6.497235
 30
0.0
 10
4.240452
 20
6.528455
 30
0.0
 10
4.246033
 20
6.559175
 30
0.0
 10
4.256635
 20
6.588543
 30
0.0
 10
4.271962
 20
6.615744
 30
0.0
 10
4.291592
 20
6.640025
 30
0.0
 10
4.314978
 20
6.660712
 30
0.0
 10
4.341473
 20
6.677232
 30
0.0
 10
4.370342
 20
6.689125
 30
0.0
 10
4.400784
 20
6.696063
 30
0.0
 10
4.427083
 20
6.697917
 30
0.0
 10
4.947917
 20
6.697917
 30
0.0
 10
4.979031
 20
6.695317
 30
0.0
 10
5.009283
 20
6.687590
 30
0.0
 10
5.037833
 20
6.674950
 30
0.0
 10
5.063889
 20
6.657748
 30
0.0
 10
5.086730
 20
6.636460
 30
0.0
 10
5.105722
 20
6.611678
 30
0.0
 10
5.120337
 20
6.584087
 30
0.0
 10
5.130172
 20
6.554453
 30
0.0
 10
5.135417
 20
6.510417
 30
0.0
 10
5.135417
 20
6.177083
 30
0.0
 10
5.281250
 20
6.177083
 30
0.0
 10
5.281250
 20
6.510417
 30
0.0
 10
5.283850
 20
6.541531
 30
0.0
 10
5.291576
 20
6.571783
 30
0.0
 10
5.304216
 20
6.600333
 30
0.0
 10
5.321419
 20
6.626389
 30
0.0
 10
5.342706
 20
6.649230
 30
0.0
 10
5.367489
 20
6.668222
 30
0.0
 10
5.395080
 20
6.682837
 30
0.0
 10
5.424713
 20
6.692672
 30
0.0
 10
5.455568
 20
6.697453
 30
0.0
 10
5.486788
 20
6.697048
 30
0.0
 10
5.517508
 20
6.691467
 30
0.0
 10
5.546876
 20
6.680865
 30
0.0
 10
5.574078
 20
6.665538
 30
0.0
 10
5.598359
 20
6.645908
 30
0.0
 10
5.619046
 20
6.622522
 30
0.0
 10
5.635565
 20
6.596027
 30
0.0
 10
5.647458
 20
6.567158
 30
0.0
 10
5.654396
 20
6.536716
 30
0.0
 10
5.656250
 20
6.510417
 30
0.0
 10
5.656250
 20
5.989583
 30
0.0
 10
5.653650
 20
5.958469
 30
0.0
 10
5.645924
 20
5.928217
 30
0.0
 10
5.633284
 20
5.899667
 30
0.0
 10
5.616081
 20
5.873611
 30
0.0
 10
5.594794
 20
5.850770
 30
0.0
 10
5.570011
 20
5.831778
 30
0.0
 10
5.542420
 20
5.817163
 30
0.0
 10
5.512787
 20
5.807328
 30
0.0
 10
5.468750
 20
5.802083
 30
0.0
 10
5.135417
 20
5.802083
 30
0.0
 10
5.135417
 20
5.656250
 30
0.0
 10
6.322917
 20
5.656250
 30
0.0
 10
6.322917
 20
5.802083
 30
0.0
 10
5.989583
 20
5.802083
 30
0.0
 10
5.958469
 20
5.804683
 30
0.0
 10
5.928217
 20
5.812410
 30
0.0
 10
5.899667
 20
5.825050
 30
0.0
 10
5.873611
 20
5.842252
 30
0.0
 10
5.850770
 20
5.863540
 30
0.0
 10
5.831778
 20
5.888322
 30
0.0
 10
5.817162
 20
5.915913
 30
0.0
 10
5.807328
 20
5.945547
 30
0.0
 10
5.802083
 20
5.989583
 30
0.0
 10
5.802083
 20
6.510417
 30
0.0
 10
5.804683
 20
6.541531
 30
0.0
 10
5.812410
 20
6.571783
 30
0.0
 10
5.825050
 20
6.600333
 30
0.0
 10
5.842252
 20
6.626389
 30
0.0
 10
5.863540
 20
6.649230
 30
0.0
 10
5.888322
 20
6.668222
 30
0.0
 10
5.915913
 20
6.682837
 30
0.0
 10
5.945547
 20
6.692672
 30
0.0
 10
5.976401
 20
6.697453
 30
0.0
 10
6.007622
 20
6.697048
 30
0.0
 10
6.038342
 20
6.691467
 30
0.0
 10
6.067710
 20
6.680865
 30
0.0
 10
6.094911
 20
6.665538
 30
0.0
 10
6.119192
 20
6.645908
 30
0.0
 10
6.139879
 20
6.622522
 30
0.0
 10
6.156398
 20
6.596027
 30
0.0
 10
6.168292
 20
6.567158
 30
0.0
 10
6.175230
 20
6.536716
 30
0.0
 10
6.177083
 20
6.510417
 30
0.0
 10
6.177083
 20
6.177083
 30
0.0
 10
6.322917
 20
6.177083
 30
0.0
 10
6.322917
 20
6.510417
 30
0.0
 10
6.325516
 20
6.541531
 30
0.0
 10
6.333243
 20
6.571783
 30
0.0
 10
6.345883
 20
6.600333
 30
0.0
 10
6.363085
 20
6.626389
 30
0.0
 10
6.384373
 20
6.649230
 30
0.0
 10
6.409156
 20
6.668222
 30
0.0
 10
6.436746
 20
6.682837
 30
0.0
 10
6.466380
 20
6.692672
 30
0.0
 10
6.497235
 20
6.697453
 30
0.0
 10
6.528455
 20
6.697048
 30
0.0
 10
6.559175
 20
6.691467
 30
0.0
 10
6.588543
 20
6.680865
 30
0.0
 10
6.615744
 20
6.665538
 30
0.0
 10
6.640025
 20
6.645908
 30
0.0
 10
6.660712
 20
6.622522
 30
0.0
 10
6.677232
 20
6.596027
 30
0.0
 10
6.689125
 20
6.567158
 30
0.0
 10
6.696063
 20
6.536716
 30
0.0
 10
6.697917
 20
6.510417
 30
0.0
 10
6.697917
 20
4.427083
 30
0.0
 10
6.695317
 20
4.395969
 30
0.0
 10
6.687590
 20
4.365717
 30
0.0
 10
6.674950
 20
4.337167
 30
0.0
 10
6.657748
 20
4.311111
 30
0.0
 10
6.636460
 20
4.288270
 30
0.0
 10
6.611678
 20
4.269278
 30
0.0
 10
6.584087
 20
4.254663
 30
0.0
 10
6.554453
 20
4.244828
 30
0.0
 10
6.523599
 20
4.240047
 30
0.0
 10
6.492378
 20
4.240453
 30
0.0
 10
6.461658
 20
4.246033
 30
0.0
 10
6.432290
 20
4.256635
 30
0.0
 10
6.405089
 20
4.271963
 30
0.0
 10
6.380808
 20
4.291592
 30
0.0
 10
6.360121
 20
4.314978
 30
0.0
 10
6.343602
 20
4.341473
 30
0.0
 10
6.331708
 20
4.370342
 30
0.0
 10
6.324770
 20
4.400784
 30
0.0
 10
6.322917
 20
4.427083
 30
0.0
 10
6.322917
 20
5.281250
 30
0.0
 10
6.177083
 20
5.281250
 30
0.0
 10
6.177083
 20
4.947917
 30
0.0
 10
6.174484
 20
4.916802
 30
0.0
 10
6.166757
 20
4.886551
 30
0.0
 10
6.154117
 20
4.858001
 30
0.0
 10
6.136915
 20
4.831944
 30
0.0
 10
6.115627
 20
4.809103
 30
0.0
 10
6.090844
 20
4.790112
 30
0.0
 10
6.063254
 20
4.775496
 30
0.0
 10
6.033620
 20
4.765661
 30
0.0
 10
6.002765
 20
4.760881
 30
0.0
 10
5.971545
 20
4.761286
 30
0.0
 10
5.940825
 20
4.766867
 30
0.0
 10
5.911457
 20
4.777468
 30
0.0
 10
5.884256
 20
4.792796
 30
0.0
 10
5.859975
 20
4.812425
 30
0.0
 10
5.839288
 20
4.835811
 30
0.0
 10
5.822768
 20
4.862306
 30
0.0
 10
5.810875
 20
4.891175
 30
0.0
 10
5.803937
 20
4.921617
 30
0.0
 10
5.802083
 20
4.947917
 30
0.0
 10
5.802083
 20
5.281250
 30
0.0
 10
5.656250
 20
5.281250
 30
0.0
 10
5.656250
 20
4.947917
 30
0.0
 10
5.653650
 20
4.916802
 30
0.0
 10
5.645924
 20
4.886551
 30
0.0
 10
5.633284
 20
4.858001
 30
0.0
 10
5.616081
 20
4.831944
 30
0.0
 10
5.594794
 20
4.809103
 30
0.0
 10
5.570011
 20
4.790112
 30
0.0
 10
5.542420
 20
4.775496
 30
0.0
 10
5.512787
 20
4.765661
 30
0.0
 10
5.481932
 20
4.760881
 30
0.0
 10
5.450712
 20
4.761286
 30
0.0
 10
5.419992
 20
4.766867
 30
0.0
 10
5.390624
 20
4.777468
 30
0.0
 10
5.363422
 20
4.792796
 30
0.0
 10
5.339141
 20
4.812425
 30
0.0
 10
5.318454
 20
4.835811
 30
0.0
 10
5.301935
 20
4.862306
 30
0.0
 10
5.290042
 20
4.891175
 30
0.0
 10
5.283104
 20
4.921617
 30
0.0
 10
5.281250
 20
4.947917
 30
0.0
 10
5.281250
 20
5.281250
 30
0.0
 10
5.135417
 20
5.281250
 30
0.0
 10
5.135417
 20
4.093750
 30
0.0
 10
5.281250
 20
4.093750
 30
0.0
 10
5.281250
 20
4.427083
 30
0.0
 10
5.283850
 20
4.458198
 30
0.0
 10
5.291576
 20
4.488449
 30
0.0
 10
5.304216
 20
4.516999
 30
0.0
 10
5.321419
 20
4.543056
 30
0.0
 10
5.342706
 20
4.565897
 30
0.0
 10
5.367489
 20
4.584888
 30
0.0
 10
5.395080
 20
4.599504
 30
0.0
 10
5.424713
 20
4.609339
 30
0.0
 10
5.468750
 20
4.614583
 30
0.0
 10
5.989583
 20
4.614583
 30
0.0
 10
6.020698
 20
4.611984
 30
0.0
 10
6.050949
 20
4.604257
 30
0.0
 10
6.079499
 20
4.591617
 30
0.0
 10
6.105556
 20
4.574415
 30
0.0
 10
6.128397
 20
4.553127
 30
0.0
 10
6.147388
 20
4.528344
 30
0.0
 10
6.162004
 20
4.500754
 30
0.0
 10
6.171839
 20
4.471120
 30
0.0
 10
6.176619
 20
4.440265
 30
0.0
 10
6.176214
 20
4.409045
 30
0.0
 10
6.170633
 20
4.378325
 30
0.0
 10
6.160032
 20
4.348957
 30
0.0
 10
6.144704
 20
4.321756
 30
0.0
 10
6.125075
 20
4.297475
 30
0.0
 10
6.101689
 20
4.276788
 30
0.0
 10
6.075194
 20
4.260268
 30
0.0
 10
6.046325
 20
4.248375
 30
0.0
 10
6.015883
 20
4.241437
 30
0.0
 10
5.989583
 20
4.239583
 30
0.0
 10
5.656250
 20
4.239583
 30
0.0
 10
5.656250
 20
4.093750
 30
0.0
 10
6.510417
 20
4.093750
 30
0.0
 10
6.541531
 20
4.091150
 30
0.0
 10
6.571783
 20
4.083424
 30
0.0
 10
6.600333
 20
4.070784
 30
0.0
 10
6.626389
 20
4.053581
 30
0.0
 10
6.649230
 20
4.032294
 30
0.0
 10
6.668222
 20
4.007511
 30
0.0
 10
6.682837
 20
3.979920
 30
0.0
 10
6.692672
 20
3.950287
 30
0.0
 10
6.697453
 20
3.919432
 30
0.0
 10
6.697048
 20
3.888212
 30
0.0
 10
6.691467
 20
3.857492
 30
0.0
 10
6.680865
 20
3.828124
 30
0.0
 10
6.665538
 20
3.800922
 30
0.0
 10
6.645908
 20
3.776641
 30
0.0
 10
6.622522
 20
3.755954
 30
0.0
 10
6.596027
 20
3.739435
 30
0.0
 10
6.567158
 20
3.727542
 30
0.0
 10
6.536716
 20
3.720604
 30
0.0
 10
6.510417
 20
3.718750
 30
0.0
 10
6.177083
 20
3.718750
 30
0.0
 10
6.177083
 20
3.572917
 30
0.0
 10
6.510417
 20
3.572917
 30
0.0
 10
6.519420
 20
3.572165
 30
0.0
 10
6.528455
 20
3.572047
 30
0.0
 10
6.534952
 20
3.570867
 30
0.0
 10
6.541531
 20
3.570317
 30
0.0
 10
6.550285
 20
3.568081
 30
0.0
 10
6.559175
 20
3.566466
 30
0.0
 10
6.565385
 20
3.564224
 30
0.0
 10
6.571783
 20
3.562590
 30
0.0
 10
6.580046
 20
3.558932
 30
0.0
 10
6.588543
 20
3.555864
 30
0.0
 10
6.594295
 20
3.552623
 30
0.0
 10
6.600333
 20
3.549950
 30
0.0
 10
6.607873
 20
3.544972
 30
0.0
 10
6.615744
 20
3.540537
 30
0.0
 10
6.620879
 20
3.536386
 30
0.0
 10
6.626389
 20
3.532748
 30
0.0
 10
6.632999
 20
3.526588
 30
0.0
 10
6.640025
 20
3.520907
 30
0.0
 10
6.644401
 20
3.515961
 30
0.0
 10
6.649230
 20
3.511460
 30
0.0
 10
6.654725
 20
3.504289
 30
0.0
 10
6.660712
 20
3.497521
 30
0.0
 10
6.664206
 20
3.491918
 30
0.0
 10
6.668222
 20
3.486677
 30
0.0
 10
6.672451
 20
3.478693
 30
0.0
 10
6.677232
 20
3.471026
 30
0.0
 10
6.679747
 20
3.464921
 30
0.0
 10
6.682838
 20
3.459086
 30
0.0
 10
6.685684
 20
3.450511
 30
0.0
 10
6.689125
 20
3.442157
 30
0.0
 10
6.690592
 20
3.435720
 30
0.0
 10
6.692672
 20
3.429453
 30
0.0
 10
6.694056
 20
3.420523
 30
0.0
 10
6.696063
 20
3.411715
 30
0.0
 10
6.696600
 20
3.404105
 30
0.0
 10
6.697453
 20
3.398598
 30
0.0
 10
6.697380
 20
3.393026
 30
0.0
 10
6.697917
 20
3.385417
 30
0.0
 10
6.697917
 20
2.864583
 30
0.0
 10
6.697165
 20
2.855580
 30
0.0
 10
6.697047
 20
2.846545
 30
0.0
 10
6.695867
 20
2.840048
 30
0.0
 10
6.695317
 20
2.833469
 30
0.0
 10
6.693081
 20
2.824715
 30
0.0
 10
6.691466
 20
2.815825
 30
0.0
 10
6.689224
 20
2.809615
 30
0.0
 10
6.687590
 20
2.803217
 30
0.0
 10
6.683932
 20
2.794954
 30
0.0
 10
6.680864
 20
2.786457
 30
0.0
 10
6.677623
 20
2.780705
 30
0.0
 10
6.674950
 20
2.774667
 30
0.0
 10
6.669972
 20
2.767127
 30
0.0
 10
6.665537
 20
2.759256
 30
0.0
 10
6.661386
 20
2.754121
 30
0.0
 10
6.657748
 20
2.748611
 30
0.0
 10
6.651588
 20
2.742001
 30
0.0
 10
6.645907
 20
2.734975
 30
0.0
 10
6.640961
 20
2.730599
 30
0.0
 10
6.636460
 20
2.725770
 30
0.0
 10
6.629289
 20
2.720275
 30
0.0
 10
6.622521
 20
2.714288
 30
0.0
 10
6.616918
 20
2.710794
 30
0.0
 10
6.611677
 20
2.706778
 30
0.0
 10
6.603693
 20
2.702549
 30
0.0
 10
6.596026
 20
2.697768
 30
0.0
 10
6.589921
 20
2.695253
 30
0.0
 10
6.584086
 20
2.692162
 30
0.0
 10
6.575511
 20
2.689316
 30
0.0
 10
6.567157
 20
2.685875
 30
0.0
 10
6.560720
 20
2.684408
 30
0.0
 10
6.554453
 20
2.682328
 30
0.0
 10
6.545523
 20
2.680944
 30
0.0
 10
6.536715
 20
2.678937
 30
0.0
 10
6.529105
 20
2.678400
 30
0.0
 10
6.523598
 20
2.677547
 30
0.0
 10
6.518026
 20
2.677620
 30
0.0
 10
6.510417
 20
2.677083
 30
0.0
 10
5.989583
 20
2.677083
 30
0.0
 10
5.958469
 20
2.679683
 30
0.0
 10
5.928217
 20
2.687410
 30
0.0
 10
5.899667
 20
2.700050
 30
0.0
 10
5.873611
 20
2.717252
 30
0.0
 10
5.850770
 20
2.738540
 30
0.0
 10
5.831778
 20
2.763322
 30
0.0
 10
5.817162
 20
2.790913
 30
0.0
 10
5.807328
 20
2.820547
 30
0.0
 10
5.802547
 20
2.851401
 30
0.0
 10
5.802952
 20
2.882622
 30
0.0
 10
5.808533
 20
2.913342
 30
0.0
 10
5.819135
 20
2.942710
 30
0.0
 10
5.834462
 20
2.969911
 30
0.0
 10
5.854092
 20
2.994192
 30
0.0
 10
5.877478
 20
3.014879
 30
0.0
 10
5.903973
 20
3.031398
 30
0.0
 10
5.932842
 20
3.043292
 30
0.0
 10
5.963284
 20
3.050230
 30
0.0
 10
5.989583
 20
3.052083
 30
0.0
 10
6.322917
 20
3.052083
 30
0.0
 10
6.322917
 20
3.197917
 30
0.0
 10
5.656250
 20
3.197917
 30
0.0
 10
5.656250
 20
2.864583
 30
0.0
 10
5.653650
 20
2.833469
 30
0.0
 10
5.645924
 20
2.803217
 30
0.0
 10
5.633284
 20
2.774667
 30
0.0
 10
5.616081
 20
2.748611
 30
0.0
 10
5.594794
 20
2.725770
 30
0.0
 10
5.570011
 20
2.706778
 30
0.0
 10
5.542420
 20
2.692163
 30
0.0
 10
5.512787
 20
2.682328
 30
0.0
 10
5.481932
 20
2.677547
 30
0.0
 10
5.450712
 20
2.677952
 30
0.0
 10
5.419992
 20
2.683533
 30
0.0
 10
5.390624
 20
2.694135
 30
0.0
 10
5.363422
 20
2.709462
 30
0.0
 10
5.339141
 20
2.729092
 30
0.0
 10
5.318454
 20
2.752478
 30
0.0
 10
5.301935
 20
2.778973
 30
0.0
 10
5.290042
 20
2.807842
 30
0.0
 10
5.283104
 20
2.838284
 30
0.0
 10
5.281250
 20
2.864583
 30
0.0
 10
5.281250
 20
3.197917
 30
0.0
 10
4.947917
 20
3.197917
 30
0.0
 10
4.916802
 20
3.200516
 30
0.0
 10
4.886551
 20
3.208243
 30
0.0
 10
4.858001
 20
3.220883
 30
0.0
 10
4.831944
 20
3.238085
 30
0.0
 10
4.809103
 20
3.259373
 30
0.0
 10
4.790112
 20
3.284156
 30
0.0
 10
4.775496
 20
3.311746
 30
0.0
 10
4.765661
 20
3.341380
 30
0.0
 10
4.760881
 20
3.372235
 30
0.0
 10
4.761286
 20
3.403455
 30
0.0
 10
4.766867
 20
3.434175
 30
0.0
 10
4.777468
 20
3.463543
 30
0.0
 10
4.792796
 20
3.490744
 30
0.0
 10
4.812425
 20
3.515025
 30
0.0
 10
4.835811
 20
3.535712
 30
0.0
 10
4.862306
 20
3.552232
 30
0.0
 10
4.891175
 20
3.564125
 30
0.0
 10
4.921617
 20
3.571063
 30
0.0
 10
4.947917
 20
3.572917
 30
0.0
 10
5.802083
 20
3.572917
 30
0.0
 10
5.802083
 20
3.718750
 30
0.0
 10
4.614583
 20
3.718750
 30
0.0
 10
4.614583
 20
3.052083
 30
0.0
 10
4.947917
 20
3.052083
 30
0.0
 10
4.979031
 20
3.049484
 30
0.0
 10
5.009283
 20
3.041757
 30
0.0
 10
5.037833
 20
3.029117
 30
0.0
 10
5.063889
 20
3.011915
 30
0.0
 10
5.086730
 20
2.990627
 30
0.0
 10
5.105722
 20
2.965844
 30
0.0
 10
5.120337
 20
2.938254
 30
0.0
 10
5.130172
 20
2.908620
 30
0.0
 10
5.134953
 20
2.877765
 30
0.0
 10
5.134547
 20
2.846545
 30
0.0
 10
5.128967
 20
2.815825
 30
0.0
 10
5.118365
 20
2.786457
 30
0.0
 10
5.103037
 20
2.759256
 30
0.0
 10
5.083408
 20
2.734975
 30
0.0
 10
5.060022
 20
2.714288
 30
0.0
 10
5.033527
 20
2.697768
 30
0.0
 10
5.004658
 20
2.685875
 30
0.0
 10
4.974216
 20
2.678937
 30
0.0
 10
4.947917
 20
2.677083
 30
0.0
 10
4.427083
 20
2.677083
 30
0.0
 10
4.395969
 20
2.679683
 30
0.0
 10
4.365717
 20
2.687410
 30
0.0
 10
4.337167
 20
2.700050
 30
0.0
 10
4.311111
 20
2.717252
 30
0.0
 10
4.288270
 20
2.738540
 30
0.0
 10
4.269278
 20
2.763322
 30
0.0
 10
4.254663
 20
2.790913
 30
0.0
 10
4.244828
 20
2.820547
 30
0.0
 10
4.239583
 20
2.864583
 30
0.0
 10
4.239583
 20
3.197917
 30
0.0
 10
4.093750
 20
3.197917
 30
0.0
 10
4.093750
 20
2.864583
 30
0.0
 10
4.091150
 20
2.833469
 30
0.0
 10
4.083424
 20
2.803217
 30
0.0
 10
4.070784
 20
2.774667
 30
0.0
 10
4.053581
 20
2.748611
 30
0.0
 10
4.032294
 20
2.725770
 30
0.0
 10
4.007511
 20
2.706778
 30
0.0
 10
3.979920
 20
2.692163
 30
0.0
 10
3.950287
 20
2.682328
 30
0.0
 10
3.919432
 20
2.677547
 30
0.0
 10
3.888212
 20
2.677952
 30
0.0
 10
3.857492
 20
2.683533
 30
0.0
 10
3.828124
 20
2.694135
 30
0.0
 10
3.800922
 20
2.709462
 30
0.0
 10
3.776641
 20
2.729092
 30
0.0
 10
3.755954
 20
2.752478
 30
0.0
 10
3.739435
 20
2.778973
 30
0.0
 10
3.727542
 20
2.807842
 30
0.0
 10
3.720604
 20
2.838284
 30
0.0
 10
3.718750
 20
2.864583
 30
0.0
 10
3.718750
 20
3.197917
 30
0.0
 10
3.572917
 20
3.197917
 30
0.0
 10
3.572917
 20
2.864583
 30
0.0
 10
3.570317
 20
2.833469
 30
0.0
 10
3.562590
 20
2.803217
 30
0.0
 10
3.549950
 20
2.774667
 30
0.0
 10
3.532748
 20
2.748611
 30
0.0
 10
3.511460
 20
2.725770
 30
0.0
 10
3.486678
 20
2.706778
 30
0.0
 10
3.459087
 20
2.692163
 30
0.0
 10
3.429453
 20
2.682328
 30
0.0
 10
3.398599
 20
2.677547
 30
0.0
 10
3.367378
 20
2.677952
 30
0.0
 10
3.336658
 20
2.683533
 30
0.0
 10
3.307290
 20
2.694135
 30
0.0
 10
3.280089
 20
2.709462
 30
0.0
 10
3.255808
 20
2.729092
 30
0.0
 10
3.235121
 20
2.752478
 30
0.0
 10
3.218602
 20
2.778973
 30
0.0
 10
3.206708
 20
2.807842
 30
0.0
 10
3.199770
 20
2.838284
 30
0.0
 10
3.197917
 20
2.864583
 30
0.0
 10
3.197917
 20
3.197917
 30
0.0
 10
3.052083
 20
3.197917
 30
0.0
 10
3.052083
 20
2.864583
 30
0.0
 10
3.049484
 20
2.833469
 30
0.0
 10
3.041757
 20
2.803217
 30
0.0
 10
3.029117
 20
2.774667
 30
0.0
 10
3.011915
 20
2.748611
 30
0.0
 10
2.990627
 20
2.725770
 30
0.0
 10
2.965844
 20
2.706778
 30
0.0
 10
2.938254
 20
2.692163
 30
0.0
 10
2.908620
 20
2.682328
 30
0.0
 10
2.877765
 20
2.677547
 30
0.0
 10
2.846545
 20
2.677952
 30
0.0
 10
2.815825
 20
2.683533
 30
0.0
 10
2.786457
 20
2.694135
 30
0.0
 10
2.759256
 20
2.709462
 30
0.0
 10
2.734975
 20
2.729092
 30
0.0
 10
2.714288
 20
2.752478
 30
0.0
 10
2.697768
 20
2.778973
 30
0.0
 10
2.685875
 20
2.807842
 30
0.0
 10
2.678937
 20
2.838284
 30
0.0
 10
2.677083
 20
2.864583
 30
0.0
 10
2.677083
 20
3.906250
 30
0.0
 10
2.679683
 20
3.937364
 30
0.0
 10
2.687410
 20
3.967616
 30
0.0
 10
2.700050
 20
3.996166
 30
0.0
 10
2.717252
 20
4.022223
 30
0.0
 10
2.738540
 20
4.045064
 30
0.0
 10
2.763322
 20
4.064055
 30
0.0
 10
2.790913
 20
4.078671
 30
0.0
 10
2.820547
 20
4.088505
 30
0.0
 10
2.851401
 20
4.093286
 30
0.0
 10
2.882622
 20
4.092881
 30
0.0
 10
2.913342
 20
4.087300
 30
0.0
 10
2.942710
 20
4.076699
 30
0.0
 10
2.969911
 20
4.061371
 30
0.0
 10
2.994192
 20
4.041742
 30
0.0
 10
3.014879
 20
4.018355
 30
0.0
 10
3.031398
 20
3.991860
 30
0.0
 10
3.043292
 20
3.962991
 30
0.0
 10
3.050230
 20
3.932549
 30
0.0
 10
3.052083
 20
3.906250
 30
0.0
 10
3.052083
 20
3.572917
 30
0.0
 10
4.239583
 20
3.572917
 30
0.0
 10
4.239583
 20
3.906250
 30
0.0
 10
4.242183
 20
3.937364
 30
0.0
 10
4.249910
 20
3.967616
 30
0.0
 10
4.262550
 20
3.996166
 30
0.0
 10
4.279752
 20
4.022223
 30
0.0
 10
4.301040
 20
4.045064
 30
0.0
 10
4.325822
 20
4.064055
 30
0.0
 10
4.353413
 20
4.078671
 30
0.0
 10
4.383047
 20
4.088505
 30
0.0
 10
4.427083
 20
4.093750
 30
0.0
 10
4.760417
 20
4.093750
 30
0.0
 10
4.760417
 20
4.760417
 30
0.0
 10
4.614583
 20
4.760417
 30
0.0
 10
4.614583
 20
4.427083
 30
0.0
 10
4.611984
 20
4.395969
 30
0.0
 10
4.604257
 20
4.365717
 30
0.0
 10
4.591617
 20
4.337167
 30
0.0
 10
4.574415
 20
4.311111
 30
0.0
 10
4.553127
 20
4.288270
 30
0.0
 10
4.528344
 20
4.269278
 30
0.0
 10
4.500754
 20
4.254663
 30
0.0
 10
4.471120
 20
4.244828
 30
0.0
 10
4.440265
 20
4.240047
 30
0.0
 10
4.409045
 20
4.240453
 30
0.0
 10
4.378325
 20
4.246033
 30
0.0
 10
4.348957
 20
4.256635
 30
0.0
 10
4.321756
 20
4.271963
 30
0.0
 10
4.297475
 20
4.291592
 30
0.0
 10
4.276788
 20
4.314978
 30
0.0
 10
4.260268
 20
4.341473
 30
0.0
 10
4.248375
 20
4.370342
 30
0.0
 10
4.241437
 20
4.400784
 30
0.0
 10
4.239583
 20
4.427083
 30
0.0
 10
4.239583
 20
4.760417
 30
0.0
 10
4.093750
 20
4.760417
 30
0.0
 10
4.093750
 20
3.906250
 30
0.0
 10
4.091150
 20
3.875136
 30
0.0
 10
4.083424
 20
3.844884
 30
0.0
 10
4.070784
 20
3.816334
 30
0.0
 10
4.053581
 20
3.790277
 30
0.0
 10
4.032294
 20
3.767436
 30
0.0
 10
4.007511
 20
3.748445
 30
0.0
 10
3.979920
 20
3.733829
 30
0.0
 10
3.950287
 20
3.723995
 30
0.0
 10
3.906250
 20
3.718750
 30
0.0
 10
3.385417
 20
3.718750
 30
0.0
 10
3.354302
 20
3.721350
 30
0.0
 10
3.324051
 20
3.729076
 30
0.0
 10
3.295501
 20
3.741716
 30
0.0
 10
3.269444
 20
3.758919
 30
0.0
 10
3.246603
 20
3.780206
 30
0.0
 10
3.227612
 20
3.804989
 30
0.0
 10
3.212996
 20
3.832580
 30
0.0
 10
3.203161
 20
3.862213
 30
0.0
 10
3.198381
 20
3.893068
 30
0.0
 10
3.198786
 20
3.924288
 30
0.0
 10
3.204367
 20
3.955008
 30
0.0
 10
3.214968
 20
3.984376
 30
0.0
 10
3.230296
 20
4.011578
 30
0.0
 10
3.249925
 20
4.035859
 30
0.0
 10
3.273311
 20
4.056546
 30
0.0
 10
3.299806
 20
4.073065
 30
0.0
 10
3.328675
 20
4.084958
 30
0.0
 10
3.359117
 20
4.091896
 30
0.0
 10
3.385417
 20
4.093750
 30
0.0
 10
3.718750
 20
4.093750
 30
0.0
 10
3.718750
 20
4.239583
 30
0.0
 10
2.864583
 20
4.239583
 30
0.0
 10
2.833469
 20
4.242183
 30
0.0
 10
2.803217
 20
4.249910
 30
0.0
 10
2.774667
 20
4.262550
 30
0.0
 10
2.748611
 20
4.279752
 30
0.0
 10
2.725770
 20
4.301040
 30
0.0
 10
2.706778
 20
4.325822
 30
0.0
 10
2.692163
 20
4.353413
 30
0.0
 10
2.682328
 20
4.383047
 30
0.0
 10
2.677547
 20
4.413901
 30
0.0
 10
2.677953
 20
4.445122
 30
0.0
 10
2.683533
 20
4.475842
 30
0.0
 10
2.694135
 20
4.505210
 30
0.0
 10
2.709462
 20
4.532411
 30
0.0
 10
2.729092
 20
4.556692
 30
0.0
 10
2.752478
 20
4.577379
 30
0.0
 10
2.778973
 20
4.593898
 30
0.0
 10
2.807842
 20
4.605792
 30
0.0
 10
2.838284
 20
4.612730
 30
0.0
 10
2.864583
 20
4.614583
 30
0.0
 10
3.718750
 20
4.614583
 30
0.0
 10
3.718750
 20
4.760417
 30
0.0
 10
2.864583
 20
4.760417
 30
0.0
 10
2.833469
 20
4.763016
 30
0.0
 10
2.803217
 20
4.770743
 30
0.0
 10
2.774667
 20
4.783383
 30
0.0
 10
2.748611
 20
4.800585
 30
0.0
 10
2.725770
 20
4.821873
 30
0.0
 10
2.706778
 20
4.846656
 30
0.0
 10
2.692163
 20
4.874246
 30
0.0
 10
2.682328
 20
4.903880
 30
0.0
 10
2.677083
 20
4.947917
 30
0.0
 10
2.677083
 20
5.989583
 30
0.0
 10
2.679683
 20
6.020698
 30
0.0
 10
2.687410
 20
6.050949
 30
0.0
 10
2.700050
 20
6.079499
 30
0.0
 10
2.717252
 20
6.105556
 30
0.0
 10
2.738540
 20
6.128397
 30
0.0
 10
2.763322
 20
6.147388
 30
0.0
 10
2.790913
 20
6.162004
 30
0.0
 10
2.820547
 20
6.171839
 30
0.0
 10
2.851401
 20
6.176619
 30
0.0
 10
2.882622
 20
6.176214
 30
0.0
 10
2.913342
 20
6.170633
 30
0.0
 10
2.942710
 20
6.160032
 30
0.0
 10
2.969911
 20
6.144704
 30
0.0
 10
2.994192
 20
6.125075
 30
0.0
 10
3.014879
 20
6.101689
 30
0.0
 10
3.031398
 20
6.075194
 30
0.0
 10
3.043292
 20
6.046325
 30
0.0
 10
3.050230
 20
6.015883
 30
0.0
 10
3.052083
 20
5.989583
 30
0.0
 10
3.052083
 20
5.135417
 30
0.0
 10
3.197917
 20
5.135417
 30
0.0
 10
3.197917
 20
6.322917
 30
0.0
 10
2.864583
 20
6.322917
 30
0.0
 10
2.833469
 20
6.325516
 30
0.0
 10
2.803217
 20
6.333243
 30
0.0
 10
2.774667
 20
6.345883
 30
0.0
 10
2.748611
 20
6.363085
 30
0.0
 10
2.725770
 20
6.384373
 30
0.0
 10
2.706778
 20
6.409156
 30
0.0
 10
2.692163
 20
6.436746
 30
0.0
 10
2.682328
 20
6.466380
 30
0.0
 10
2.677547
 20
6.497235
 30
0.0
 10
2.677953
 20
6.528455
 30
0.0
 10
2.683533
 20
6.559175
 30
0.0
 10
2.694135
 20
6.588543
 30
0.0
 10
2.709462
 20
6.615744
 30
0.0
 10
2.729092
 20
6.640025
 30
0.0
 10
2.752478
 20
6.660712
 30
0.0
 10
2.778973
 20
6.677232
 30
0.0
 10
2.807842
 20
6.689125
 30
0.0
 10
2.838284
 20
6.696063
 30
0.0
 10
2.864583
 20
6.697917
 30
0.0
 10
3.906250
 20
6.697917
 30
0.0
  0
LWPOLYLINE
  5
101
100
AcDbEntity
  8
0
 62
7
100
AcDbPolyline
 90
32
 70
1
 10
2.937500
 20
6.510417
 30
0.0
 10
2.936099
 20
6.524642
 30
0.0
 10
2.931950
 20
6.538321
 30
0.0
 10
2.925211
 20
6.550927
 30
0.0
 10
2.916143
 20
6.561977
 30
0.0
 10
2.905094
 20
6.571045
 30
0.0
 10
2.892487
 20
6.577783
 30
0.0
 10
2.878809
 20
6.581932
 30
0.0
 10
2.864583
 20
6.583333
 30
0.0
 10
2.850358
 20
6.581932
 30
0.0
 10
2.836679
 20
6.577783
 30
0.0
 10
2.824073
 20
6.571045
 30
0.0
 10
2.813023
 20
6.561977
 30
0.0
 10
2.803955
 20
6.550927
 30
0.0
 10
2.797217
 20
6.538321
 30
0.0
 10
2.793068
 20
6.524642
 30
0.0
 10
2.791667
 20
6.510417
 30
0.0
 10
2.793068
 20
6.496191
 30
0.0
 10
2.797217
 20
6.482513
 30
0.0
 10
2.803955
 20
6.469906
 30
0.0
 10
2.813023
 20
6.458857
 30
0.0
 10
2.824073
 20
6.449789
 30
0.0
 10
2.836679
 20
6.443050
 30
0.0
 10
2.850358
 20
6.438901
 30
0.0
 10
2.864583
 20
6.437500
 30
0.0
 10
2.878809
 20
6.438901
 30
0.0
 10
2.892487
 20
6.443050
 30
0.0
 10
2.905094
 20
6.449789
 30
0.0
 10
2.916143
 20
6.458857
 30
0.0
 10
2.925211
 20
6.469906
 30
0.0
 10
2.931950
 20
6.482513
 30
0.0
 10
2.936099
 20
6.496191
 30
0.0
  0
ENDSEC
  0
SECTION
  2
OBJECTS
  0
DICTIONARY
  5
C
330
0
100
AcDbDictionary
  3
ACAD_GROUP
350
D
  3
ACAD_MLINESTYLE
350
17
  0
DICTIONARY
  5
D
330
C
100
AcDbDictionary
  0
DICTIONARY
  5
1A
330
C
100
AcDbDictionary
  0
DICTIONARY
  5
17
330
C
100
AcDbDictionary
  3
STANDARD
350
18
  0
DICTIONARY
  5
19
330
C
100
AcDbDictionary
  0
ENDSEC
  0
EOF
