  0
SECTION
  2
HEADER
  9
$ACADVER
  1
AC1014
  9
$HANDSEED
  5
FFFF
  9
$INSUNITS
 70
     1
  9
$MEASUREMENT
 70
     1
  0
ENDSEC
  0
SECTION
  2
TABLES
  0
TABLE
  2
VPORT
  5
8
330
0
100
AcDbSymbolTable
 70
     4
  0
VPORT
  5
2E
330
8
100
AcDbSymbolTableRecord
100
AcDbViewportTableRecord
  2
*ACTIVE
 70
     0
 10
0.0
 20
0.0
 11
1.0
 21
1.0
 12
210.0
 22
148.5
 13
0.0
 23
0.0
 14
10.0
 24
10.0
 15
10.0
 25
10.0
 16
0.0
 26
0.0
 36
1.0
 17
0.0
 27
0.0
 37
0.0
 40
341.0
 41
1.24
 42
50.0
 43
0.0
 44
0.0
 50
0.0
 51
0.0
 71
     0
 72
   100
 73
     1
 74
     3
 75
     0
 76
     0
 77
     0
 78
     0
  0
ENDTAB
  0
TABLE
  2
LTYPE
  5
5
330
0
100
AcDbSymbolTable
 70
     1
  0
LTYPE
  5
14
330
5
100
AcDbSymbolTableRecord
100
AcDbLinetypeTableRecord
  2
BYBLOCK
 70
     0
  3

 72
    65
 73
     0
 40
0.0
  0
LTYPE
  5
15
330
5
100
AcDbSymbolTableRecord
100
AcDbLinetypeTableRecord
  2
BYLAYER
 70
     0
  3

 72
    65
 73
     0
 40
0.0
  0
LTYPE
  5
16
330
5
100
AcDbSymbolTableRecord
100
AcDbLinetypeTableRecord
  2
CONTINUOUS
 70
     0
  3
Solid line
 72
    65
 73
     0
 40
0.0
  0
ENDTAB
  0
TABLE
  2
LAYER
  5
2
100
AcDbSymbolTable
 70
1
  0
LAYER
  5
50
100
AcDbSymbolTableRecord
100
AcDbLayerTableRecord
  2
0
 70
0
  6
CONTINUOUS
  0
ENDTAB
  0
TABLE
  2
STYLE
  5
3
330
0
100
AcDbSymbolTable
 70
     1
  0
STYLE
  5
11
330
3
100
AcDbSymbolTableRecord
100
AcDbTextStyleTableRecord
  2
STANDARD
 70
     0
 40
0.0
 41
1.0
 50
0.0
 71
     0
 42
2.5
  3
txt
  4

  0
ENDTAB
  0
TABLE
  2
VIEW
  5
6
330
0
100
AcDbSymbolTable
 70
     0
  0
ENDTAB
  0
TABLE
  2
UCS
  5
7
330
0
100
AcDbSymbolTable
 70
     0
  0
ENDTAB
  0
TABLE
  2
APPID
  5
9
330
0
100
AcDbSymbolTable
 70
     2
  0
APPID
  5
12
330
9
100
AcDbSymbolTableRecord
100
AcDbRegAppTableRecord
  2
ACAD
 70
     0
  0
ENDTAB
  0
TABLE
  2
DIMSTYLE
  5
A
330
0
100
AcDbSymbolTable
 70
     1
  0
DIMSTYLE
105
27
330
A
100
AcDbSymbolTableRecord
100
AcDbDimStyleTableRecord
  2
ISO-25
 70
     0
  3

  4

  5

  6

  7

 40
1.0
 41
2.5
 42
0.625
 43
3.75
 44
1.25
 45
0.0
 46
0.0
 47
0.0
 48
0.0
140
2.5
141
2.5
142
0.0
143
0.03937007874016
144
1.0
145
0.0
146
1.0
147
0.625
 71
     0
 72
     0
 73
     0
 74
     0
 75
     0
 76
     0
 77
     1
 78
     8
170
     0
171
     3
172
     1
173
     0
174
     0
175
     0
176
     0
177
     0
178
     0
270
     2
271
     2
272
     2
273
     2
274
     3
340
11
275
     0
280
     0
281
     0
282
     0
283
     0
284
     8
285
     0
286
     0
287
     3
288
     0
  0
ENDTAB
  0
TABLE
  2
BLOCK_RECORD
  5
1
330
0
100
AcDbSymbolTable
 70
     1
  0
BLOCK_RECORD
  5
1F
330
1
100
AcDbSymbolTableRecord
100
AcDbBlockTableRecord
  2
*MODEL_SPACE
  0
BLOCK_RECORD
  5
1B
330
1
100
AcDbSymbolTableRecord
100
AcDbBlockTableRecord
  2
*PAPER_SPACE
  0
ENDTAB
  0
ENDSEC
  0
SECTION
  2
BLOCKS
  0
BLOCK
  5
20
330
1F
100
AcDbEntity
  8
0
100
AcDbBlockBegin
  2
*MODEL_SPACE
 70
     0
 10
0.0
 20
0.0
 30
0.0
  3
*MODEL_SPACE
  1

  0
ENDBLK
  5
21
330
1F
100
AcDbEntity
  8
0
100
AcDbBlockEnd
  0
BLOCK
  5
1C
330
1B
100
AcDbEntity
 67
     1
  8
0
100
AcDbBlockBegin
  2
*PAPER_SPACE
  1

  0
ENDBLK
  5
1D
330
1B
100
AcDbEntity
 67
     1
  8
0
100
AcDbBlockEnd
  0
ENDSEC
  0
SECTION
  2
ENTITIES
  0
LWPOLYLINE
  5
100
100
AcDbEntity
  8
0
 62
7
100
AcDbPolyline
 90
829
 70
1
 10
4.195045
 20
6.924485
 30
0.0
 10
4.222480
 20
6.916775
 30
0.0
 10
4.248058
 20
6.904210
 30
0.0
 10
4.270929
 20
6.887209
 30
0.0
 10
4.290332
 20
6.866337
 30
0.0
 10
4.305621
 20
6.842288
 30
0.0
 10
4.316288
 20
6.815863
 30
0.0
 10
4.321977
 20
6.787939
 30
0.0
 10
4.322501
 20
6.759446
 30
0.0
 10
4.317841
 20
6.731332
 30
0.0
 10
4.308153
 20
6.704532
 30
0.0
 10
4.293758
 20
6.679938
 30
0.0
 10
4.275135
 20
6.658367
 30
0.0
 10
4.252905
 20
6.640537
 30
0.0
 10
4.227805
 20
6.627041
 30
0.0
 10
4.200672
 20
6.618329
 30
0.0
 10
4.166667
 20
6.614583
 30
0.0
 10
3.281250
 20
6.614583
 30
0.0
 10
3.281250
 20
6.406250
 30
0.0
 10
4.531250
 20
6.406250
 30
0.0
 10
4.531250
 20
6.770833
 30
0.0
 10
4.533849
 20
6.799212
 30
0.0
 10
4.541559
 20
6.826647
 30
0.0
 10
4.554123
 20
6.852225
 30
0.0
 10
4.571124
 20
6.875096
 30
0.0
 10
4.591996
 20
6.894498
 30
0.0
 10
4.616045
 20
6.909787
 30
0.0
 10
4.642471
 20
6.920454
 30
0.0
 10
4.670394
 20
6.926144
 30
0.0
 10
4.698887
 20
6.926668
 30
0.0
 10
4.727001
 20
6.922008
 30
0.0
 10
4.753801
 20
6.912319
 30
0.0
 10
4.778396
 20
6.897924
 30
0.0
 10
4.799966
 20
6.879302
 30
0.0
 10
4.817796
 20
6.857071
 30
0.0
 10
4.831292
 20
6.831972
 30
0.0
 10
4.840005
 20
6.804839
 30
0.0
 10
4.843750
 20
6.770833
 30
0.0
 10
4.843750
 20
6.250000
 30
0.0
 10
4.843229
 20
6.244318
 30
0.0
 10
4.843334
 20
6.238613
 30
0.0
 10
4.841933
 20
6.230157
 30
0.0
 10
4.841152
 20
6.221621
 30
0.0
 10
4.839608
 20
6.216128
 30
0.0
 10
4.838674
 20
6.210499
 30
0.0
 10
4.835760
 20
6.202438
 30
0.0
 10
4.833441
 20
6.194186
 30
0.0
 10
4.830926
 20
6.189065
 30
0.0
 10
4.828986
 20
6.183699
 30
0.0
 10
4.824656
 20
6.176301
 30
0.0
 10
4.820877
 20
6.168608
 30
0.0
 10
4.817473
 20
6.164029
 30
0.0
 10
4.814591
 20
6.159104
 30
0.0
 10
4.808989
 20
6.152616
 30
0.0
 10
4.803876
 20
6.145738
 30
0.0
 10
4.799697
 20
6.141852
 30
0.0
 10
4.795968
 20
6.137534
 30
0.0
 10
4.789282
 20
6.132171
 30
0.0
 10
4.783004
 20
6.126335
 30
0.0
 10
4.778189
 20
6.123274
 30
0.0
 10
4.773738
 20
6.119704
 30
0.0
 10
4.766188
 20
6.115644
 30
0.0
 10
4.758955
 20
6.111046
 30
0.0
 10
4.753664
 20
6.108910
 30
0.0
 10
4.748638
 20
6.106208
 30
0.0
 10
4.740477
 20
6.103587
 30
0.0
 10
4.732529
 20
6.100379
 30
0.0
 10
4.726938
 20
6.099240
 30
0.0
 10
4.721505
 20
6.097495
 30
0.0
 10
4.714697
 20
6.096745
 30
0.0
 10
4.704606
 20
6.094689
 30
0.0
 10
4.694309
 20
6.094499
 30
0.0
 10
4.687500
 20
6.093750
 30
0.0
 10
4.322917
 20
6.093750
 30
0.0
 10
4.322917
 20
5.729167
 30
0.0
 10
4.320318
 20
5.700788
 30
0.0
 10
4.312608
 20
5.673353
 30
0.0
 10
4.300044
 20
5.647775
 30
0.0
 10
4.283043
 20
5.624904
 30
0.0
 10
4.262171
 20
5.605502
 30
0.0
 10
4.238122
 20
5.590213
 30
0.0
 10
4.211696
 20
5.579546
 30
0.0
 10
4.183772
 20
5.573856
 30
0.0
 10
4.155279
 20
5.573332
 30
0.0
 10
4.127166
 20
5.577992
 30
0.0
 10
4.100366
 20
5.587681
 30
0.0
 10
4.075771
 20
5.602076
 30
0.0
 10
4.054200
 20
5.620698
 30
0.0
 10
4.036370
 20
5.642929
 30
0.0
 10
4.022875
 20
5.668028
 30
0.0
 10
4.014162
 20
5.695161
 30
0.0
 10
4.010417
 20
5.729167
 30
0.0
 10
4.010417
 20
6.093750
 30
0.0
 10
3.802083
 20
6.093750
 30
0.0
 10
3.802083
 20
5.364583
 30
0.0
 10
5.052083
 20
5.364583
 30
0.0
 10
5.052083
 20
5.572917
 30
0.0
 10
4.687500
 20
5.572917
 30
0.0
 10
4.659121
 20
5.575515
 30
0.0
 10
4.631686
 20
5.583225
 30
0.0
 10
4.606108
 20
5.595790
 30
0.0
 10
4.583238
 20
5.612791
 30
0.0
 10
4.563835
 20
5.633663
 30
0.0
 10
4.548546
 20
5.657712
 30
0.0
 10
4.537879
 20
5.684138
 30
0.0
 10
4.532189
 20
5.712061
 30
0.0
 10
4.531665
 20
5.740554
 30
0.0
 10
4.536325
 20
5.768668
 30
0.0
 10
4.546014
 20
5.795468
 30
0.0
 10
4.560409
 20
5.820062
 30
0.0
 10
4.579031
 20
5.841633
 30
0.0
 10
4.601262
 20
5.859463
 30
0.0
 10
4.626361
 20
5.872959
 30
0.0
 10
4.653494
 20
5.881671
 30
0.0
 10
4.687500
 20
5.885417
 30
0.0
 10
5.052083
 20
5.885417
 30
0.0
 10
5.052083
 20
6.770833
 30
0.0
 10
5.054682
 20
6.799212
 30
0.0
 10
5.062392
 20
6.826647
 30
0.0
 10
5.074956
 20
6.852225
 30
0.0
 10
5.091957
 20
6.875096
 30
0.0
 10
5.112829
 20
6.894498
 30
0.0
 10
5.136878
 20
6.909787
 30
0.0
 10
5.163304
 20
6.920454
 30
0.0
 10
5.191228
 20
6.926144
 30
0.0
 10
5.219721
 20
6.926668
 30
0.0
 10
5.247834
 20
6.922008
 30
0.0
 10
5.274634
 20
6.912319
 30
0.0
 10
5.299229
 20
6.897924
 30
0.0
 10
5.320800
 20
6.879302
 30
0.0
 10
5.338630
 20
6.857071
 30
0.0
 10
5.352125
 20
6.831972
 30
0.0
 10
5.360838
 20
6.804839
 30
0.0
 10
5.364583
 20
6.770833
 30
0.0
 10
5.364583
 20
5.364583
 30
0.0
 10
5.729167
 20
5.364583
 30
0.0
 10
5.757545
 20
5.361985
 30
0.0
 10
5.784980
 20
5.354275
 30
0.0
 10
5.810558
 20
5.341710
 30
0.0
 10
5.833429
 20
5.324709
 30
0.0
 10
5.852832
 20
5.303837
 30
0.0
 10
5.868121
 20
5.279788
 30
0.0
 10
5.878788
 20
5.253362
 30
0.0
 10
5.884478
 20
5.225439
 30
0.0
 10
5.885001
 20
5.196946
 30
0.0
 10
5.880341
 20
5.168832
 30
0.0
 10
5.870653
 20
5.142032
 30
0.0
 10
5.856258
 20
5.117438
 30
0.0
 10
5.837635
 20
5.095867
 30
0.0
 10
5.815405
 20
5.078037
 30
0.0
 10
5.790305
 20
5.064541
 30
0.0
 10
5.763172
 20
5.055829
 30
0.0
 10
5.729167
 20
5.052083
 30
0.0
 10
4.843750
 20
5.052083
 30
0.0
 10
4.843750
 20
4.322917
 30
0.0
 10
5.052083
 20
4.322917
 30
0.0
 10
5.052083
 20
4.687500
 30
0.0
 10
5.054682
 20
4.715879
 30
0.0
 10
5.062392
 20
4.743314
 30
0.0
 10
5.074956
 20
4.768892
 30
0.0
 10
5.091957
 20
4.791762
 30
0.0
 10
5.112829
 20
4.811165
 30
0.0
 10
5.136878
 20
4.826454
 30
0.0
 10
5.163304
 20
4.837121
 30
0.0
 10
5.191228
 20
4.842811
 30
0.0
 10
5.208333
 20
4.843750
 30
0.0
 10
6.093750
 20
4.843750
 30
0.0
 10
6.093750
 20
5.572917
 30
0.0
 10
5.729167
 20
5.572917
 30
0.0
 10
5.700788
 20
5.575515
 30
0.0
 10
5.673353
 20
5.583225
 30
0.0
 10
5.647775
 20
5.595790
 30
0.0
 10
5.624904
 20
5.612791
 30
0.0
 10
5.605502
 20
5.633663
 30
0.0
 10
5.590213
 20
5.657712
 30
0.0
 10
5.579546
 20
5.684138
 30
0.0
 10
5.573856
 20
5.712061
 30
0.0
 10
5.573332
 20
5.740554
 30
0.0
 10
5.577992
 20
5.768668
 30
0.0
 10
5.587681
 20
5.795468
 30
0.0
 10
5.602076
 20
5.820062
 30
0.0
 10
5.620698
 20
5.841633
 30
0.0
 10
5.642929
 20
5.859463
 30
0.0
 10
5.668028
 20
5.872959
 30
0.0
 10
5.695161
 20
5.881671
 30
0.0
 10
5.729167
 20
5.885417
 30
0.0
 10
6.093750
 20
5.885417
 30
0.0
 10
6.093750
 20
6.093750
 30
0.0
 10
5.729167
 20
6.093750
 30
0.0
 10
5.700788
 20
6.096349
 30
0.0
 10
5.673353
 20
6.104059
 30
0.0
 10
5.647775
 20
6.116623
 30
0.0
 10
5.624904
 20
6.133624
 30
0.0
 10
5.605502
 20
6.154496
 30
0.0
 10
5.590213
 20
6.178545
 30
0.0
 10
5.579546
 20
6.204971
 30
0.0
 10
5.573856
 20
6.232894
 30
0.0
 10
5.572917
 20
6.250000
 30
0.0
 10
5.572917
 20
6.770833
 30
0.0
 10
5.575515
 20
6.799212
 30
0.0
 10
5.583225
 20
6.826647
 30
0.0
 10
5.595790
 20
6.852225
 30
0.0
 10
5.612791
 20
6.875096
 30
0.0
 10
5.633663
 20
6.894498
 30
0.0
 10
5.657712
 20
6.909787
 30
0.0
 10
5.684137
 20
6.920454
 30
0.0
 10
5.712061
 20
6.926144
 30
0.0
 10
5.740554
 20
6.926668
 30
0.0
 10
5.768668
 20
6.922008
 30
0.0
 10
5.795468
 20
6.912319
 30
0.0
 10
5.820062
 20
6.897924
 30
0.0
 10
5.841633
 20
6.879302
 30
0.0
 10
5.859463
 20
6.857071
 30
0.0
 10
5.872959
 20
6.831972
 30
0.0
 10
5.881671
 20
6.804839
 30
0.0
 10
5.885417
 20
6.770833
 30
0.0
 10
5.885417
 20
6.406250
 30
0.0
 10
6.614583
 20
6.406250
 30
0.0
 10
6.614583
 20
6.614583
 30
0.0
 10
6.250000
 20
6.614583
 30
0.0
 10
6.221621
 20
6.617182
 30
0.0
 10
6.194186
 20
6.624892
 30
0.0
 10
6.168608
 20
6.637456
 30
0.0
 10
6.145737
 20
6.654457
 30
0.0
 10
6.126335
 20
6.675329
 30
0.0
 10
6.111046
 20
6.699378
 30
0.0
 10
6.100379
 20
6.725804
 30
0.0
 10
6.094689
 20
6.753728
 30
0.0
 10
6.094165
 20
6.782221
 30
0.0
 10
6.098825
 20
6.810334
 30
0.0
 10
6.108514
 20
6.837134
 30
0.0
 10
6.122909
 20
6.861729
 30
0.0
 10
6.141531
 20
6.883300
 30
0.0
 10
6.163762
 20
6.901130
 30
0.0
 10
6.188861
 20
6.914625
 30
0.0
 10
6.215994
 20
6.923338
 30
0.0
 10
6.250000
 20
6.927083
 30
0.0
 10
6.770833
 20
6.927083
 30
0.0
 10
6.799212
 20
6.924485
 30
0.0
 10
6.826647
 20
6.916775
 30
0.0
 10
6.852225
 20
6.904210
 30
0.0
 10
6.875096
 20
6.887209
 30
0.0
 10
6.894498
 20
6.866337
 30
0.0
 10
6.909787
 20
6.842288
 30
0.0
 10
6.920454
 20
6.815863
 30
0.0
 10
6.926144
 20
6.787939
 30
0.0
 10
6.927083
 20
6.770833
 30
0.0
 10
6.927083
 20
5.729167
 30
0.0
 10
6.924485
 20
5.700788
 30
0.0
 10
6.916775
 20
5.673353
 30
0.0
 10
6.904210
 20
5.647775
 30
0.0
 10
6.887209
 20
5.624904
 30
0.0
 10
6.866337
 20
5.605502
 30
0.0
 10
6.842288
 20
5.590213
 30
0.0
 10
6.815862
 20
5.579546
 30
0.0
 10
6.787939
 20
5.573856
 30
0.0
 10
6.759446
 20
5.573332
 30
0.0
 10
6.731332
 20
5.577992
 30
0.0
 10
6.704532
 20
5.587681
 30
0.0
 10
6.679938
 20
5.602076
 30
0.0
 10
6.658367
 20
5.620698
 30
0.0
 10
6.640537
 20
5.642929
 30
0.0
 10
6.627041
 20
5.668028
 30
0.0
 10
6.618329
 20
5.695161
 30
0.0
 10
6.614583
 20
5.729167
 30
0.0
 10
6.614583
 20
6.093750
 30
0.0
 10
6.406250
 20
6.093750
 30
0.0
 10
6.406250
 20
5.364583
 30
0.0
 10
6.770833
 20
5.364583
 30
0.0
 10
6.799212
 20
5.361985
 30
0.0
 10
6.826647
 20
5.354275
 30
0.0
 10
6.852225
 20
5.341710
 30
0.0
 10
6.875096
 20
5.324709
 30
0.0
 10
6.894498
 20
5.303837
 30
0.0
 10
6.909787
 20
5.279788
 30
0.0
 10
6.920454
 20
5.253362
 30
0.0
 10
6.926144
 20
5.225439
 30
0.0
 10
6.927083
 20
5.208333
 30
0.0
 10
6.927083
 20
4.687500
 30
0.0
 10
6.924485
 20
4.659121
 30
0.0
 10
6.916775
 20
4.631686
 30
0.0
 10
6.904210
 20
4.606108
 30
0.0
 10
6.887209
 20
4.583238
 30
0.0
 10
6.866337
 20
4.563835
 30
0.0
 10
6.842288
 20
4.548546
 30
0.0
 10
6.815862
 20
4.537879
 30
0.0
 10
6.787939
 20
4.532189
 30
0.0
 10
6.759446
 20
4.531665
 30
0.0
 10
6.731332
 20
4.536325
 30
0.0
 10
6.704532
 20
4.546014
 30
0.0
 10
6.679938
 20
4.560409
 30
0.0
 10
6.658367
 20
4.579031
 30
0.0
 10
6.640537
 20
4.601262
 30
0.0
 10
6.627041
 20
4.626361
 30
0.0
 10
6.618329
 20
4.653494
 30
0.0
 10
6.614583
 20
4.687500
 30
0.0
 10
6.614583
 20
5.052083
 30
0.0
 10
6.406250
 20
5.052083
 30
0.0
 10
6.406250
 20
4.322917
 30
0.0
 10
6.770833
 20
4.322917
 30
0.0
 10
6.799212
 20
4.320318
 30
0.0
 10
6.826647
 20
4.312608
 30
0.0
 10
6.852225
 20
4.300044
 30
0.0
 10
6.875096
 20
4.283043
 30
0.0
 10
6.894498
 20
4.262171
 30
0.0
 10
6.909787
 20
4.238122
 30
0.0
 10
6.920454
 20
4.211696
 30
0.0
 10
6.926144
 20
4.183772
 30
0.0
 10
6.926668
 20
4.155279
 30
0.0
 10
6.922008
 20
4.127166
 30
0.0
 10
6.912319
 20
4.100366
 30
0.0
 10
6.897924
 20
4.075771
 30
0.0
 10
6.879302
 20
4.054200
 30
0.0
 10
6.857071
 20
4.036370
 30
0.0
 10
6.831972
 20
4.022875
 30
0.0
 10
6.804839
 20
4.014162
 30
0.0
 10
6.770833
 20
4.010417
 30
0.0
 10
6.406250
 20
4.010417
 30
0.0
 10
6.406250
 20
3.802083
 30
0.0
 10
6.770833
 20
3.802083
 30
0.0
 10
6.799212
 20
3.799485
 30
0.0
 10
6.826647
 20
3.791775
 30
0.0
 10
6.852225
 20
3.779210
 30
0.0
 10
6.875096
 20
3.762209
 30
0.0
 10
6.894498
 20
3.741337
 30
0.0
 10
6.909787
 20
3.717288
 30
0.0
 10
6.920454
 20
3.690863
 30
0.0
 10
6.926144
 20
3.662939
 30
0.0
 10
6.926668
 20
3.634446
 30
0.0
 10
6.922008
 20
3.606332
 30
0.0
 10
6.912319
 20
3.579532
 30
0.0
 10
6.897924
 20
3.554938
 30
0.0
 10
6.879302
 20
3.533367
 30
0.0
 10
6.857071
 20
3.515537
 30
0.0
 10
6.831972
 20
3.502041
 30
0.0
 10
6.804839
 20
3.493329
 30
0.0
 10
6.770833
 20
3.489583
 30
0.0
 10
6.406250
 20
3.489583
 30
0.0
 10
6.406250
 20
3.281250
 30
0.0
 10
6.770833
 20
3.281250
 30
0.0
 10
6.799212
 20
3.278651
 30
0.0
 10
6.826647
 20
3.270941
 30
0.0
 10
6.852225
 20
3.258377
 30
0.0
 10
6.875096
 20
3.241376
 30
0.0
 10
6.894498
 20
3.220504
 30
0.0
 10
6.909787
 20
3.196455
 30
0.0
 10
6.920454
 20
3.170029
 30
0.0
 10
6.926144
 20
3.142106
 30
0.0
 10
6.927083
 20
3.125000
 30
0.0
 10
6.927083
 20
2.604167
 30
0.0
 10
6.924485
 20
2.575788
 30
0.0
 10
6.916775
 20
2.548353
 30
0.0
 10
6.904210
 20
2.522775
 30
0.0
 10
6.887209
 20
2.499904
 30
0.0
 10
6.866337
 20
2.480502
 30
0.0
 10
6.842288
 20
2.465213
 30
0.0
 10
6.815862
 20
2.454546
 30
0.0
 10
6.787939
 20
2.448856
 30
0.0
 10
6.759446
 20
2.448332
 30
0.0
 10
6.731332
 20
2.452992
 30
0.0
 10
6.704532
 20
2.462681
 30
0.0
 10
6.679938
 20
2.477076
 30
0.0
 10
6.658367
 20
2.495698
 30
0.0
 10
6.640537
 20
2.517929
 30
0.0
 10
6.627041
 20
2.543028
 30
0.0
 10
6.618329
 20
2.570161
 30
0.0
 10
6.614583
 20
2.604167
 30
0.0
 10
6.614583
 20
2.968750
 30
0.0
 10
6.406250
 20
2.968750
 30
0.0
 10
6.406250
 20
2.604167
 30
0.0
 10
6.403651
 20
2.575788
 30
0.0
 10
6.395941
 20
2.548353
 30
0.0
 10
6.383377
 20
2.522775
 30
0.0
 10
6.366376
 20
2.499904
 30
0.0
 10
6.345504
 20
2.480502
 30
0.0
 10
6.321455
 20
2.465213
 30
0.0
 10
6.295029
 20
2.454546
 30
0.0
 10
6.267106
 20
2.448856
 30
0.0
 10
6.238613
 20
2.448332
 30
0.0
 10
6.210499
 20
2.452992
 30
0.0
 10
6.183699
 20
2.462681
 30
0.0
 10
6.159104
 20
2.477076
 30
0.0
 10
6.137534
 20
2.495698
 30
0.0
 10
6.119704
 20
2.517929
 30
0.0
 10
6.106208
 20
2.543028
 30
0.0
 10
6.097495
 20
2.570161
 30
0.0
 10
6.093750
 20
2.604167
 30
0.0
 10
6.093750
 20
4.531250
 30
0.0
 10
5.364583
 20
4.531250
 30
0.0
 10
5.364583
 20
4.322917
 30
0.0
 10
5.729167
 20
4.322917
 30
0.0
 10
5.734849
 20
4.322396
 30
0.0
 10
5.740554
 20
4.322501
 30
0.0
 10
5.749009
 20
4.321099
 30
0.0
 10
5.757545
 20
4.320318
 30
0.0
 10
5.763039
 20
4.318774
 30
0.0
 10
5.768668
 20
4.317841
 30
0.0
 10
5.776728
 20
4.314927
 30
0.0
 10
5.784980
 20
4.312608
 30
0.0
 10
5.790102
 20
4.310092
 30
0.0
 10
5.795468
 20
4.308153
 30
0.0
 10
5.802865
 20
4.303823
 30
0.0
 10
5.810558
 20
4.300044
 30
0.0
 10
5.815137
 20
4.296640
 30
0.0
 10
5.820062
 20
4.293758
 30
0.0
 10
5.826550
 20
4.288156
 30
0.0
 10
5.833429
 20
4.283043
 30
0.0
 10
5.837314
 20
4.278863
 30
0.0
 10
5.841633
 20
4.275135
 30
0.0
 10
5.846996
 20
4.268449
 30
0.0
 10
5.852832
 20
4.262171
 30
0.0
 10
5.855893
 20
4.257355
 30
0.0
 10
5.859463
 20
4.252904
 30
0.0
 10
5.863522
 20
4.245355
 30
0.0
 10
5.868121
 20
4.238122
 30
0.0
 10
5.870256
 20
4.232831
 30
0.0
 10
5.872959
 20
4.227805
 30
0.0
 10
5.875579
 20
4.219644
 30
0.0
 10
5.878788
 20
4.211696
 30
0.0
 10
5.879927
 20
4.206105
 30
0.0
 10
5.881671
 20
4.200672
 30
0.0
 10
5.882421
 20
4.193863
 30
0.0
 10
5.884478
 20
4.183772
 30
0.0
 10
5.884667
 20
4.173476
 30
0.0
 10
5.885417
 20
4.166667
 30
0.0
 10
5.885417
 20
2.604167
 30
0.0
 10
5.882818
 20
2.575788
 30
0.0
 10
5.875108
 20
2.548353
 30
0.0
 10
5.862544
 20
2.522775
 30
0.0
 10
5.845543
 20
2.499904
 30
0.0
 10
5.824671
 20
2.480502
 30
0.0
 10
5.800622
 20
2.465213
 30
0.0
 10
5.774196
 20
2.454546
 30
0.0
 10
5.746272
 20
2.448856
 30
0.0
 10
5.717779
 20
2.448332
 30
0.0
 10
5.689666
 20
2.452992
 30
0.0
 10
5.662866
 20
2.462681
 30
0.0
 10
5.638271
 20
2.477076
 30
0.0
 10
5.616700
 20
2.495698
 30
0.0
 10
5.598870
 20
2.517929
 30
0.0
 10
5.585375
 20
2.543028
 30
0.0
 10
5.576662
 20
2.570161
 30
0.0
 10
5.572917
 20
2.604167
 30
0.0
 10
5.572917
 20
2.968750
 30
0.0
 10
5.208333
 20
2.968750
 30
0.0
 10
5.179955
 20
2.971349
 30
0.0
 10
5.152520
 20
2.979059
 30
0.0
 10
5.126942
 20
2.991623
 30
0.0
 10
5.104071
 20
3.008624
 30
0.0
 10
5.084668
 20
3.029496
 30
0.0
 10
5.069379
 20
3.053545
 30
0.0
 10
5.058712
 20
3.079971
 30
0.0
 10
5.053023
 20
3.107894
 30
0.0
 10
5.052083
 20
3.125000
 30
0.0
 10
5.052083
 20
3.645833
 30
0.0
 10
5.054682
 20
3.674212
 30
0.0
 10
5.062392
 20
3.701647
 30
0.0
 10
5.074956
 20
3.727225
 30
0.0
 10
5.091957
 20
3.750096
 30
0.0
 10
5.112829
 20
3.769498
 30
0.0
 10
5.136878
 20
3.784787
 30
0.0
 10
5.163304
 20
3.795454
 30
0.0
 10
5.191228
 20
3.801144
 30
0.0
 10
5.219721
 20
3.801668
 30
0.0
 10
5.247834
 20
3.797008
 30
0.0
 10
5.274634
 20
3.787319
 30
0.0
 10
5.299229
 20
3.772924
 30
0.0
 10
5.320800
 20
3.754302
 30
0.0
 10
5.338630
 20
3.732071
 30
0.0
 10
5.352125
 20
3.706972
 30
0.0
 10
5.360838
 20
3.679839
 30
0.0
 10
5.364583
 20
3.645833
 30
0.0
 10
5.364583
 20
3.281250
 30
0.0
 10
5.572917
 20
3.281250
 30
0.0
 10
5.572917
 20
4.010417
 30
0.0
 10
4.322917
 20
4.010417
 30
0.0
 10
4.322917
 20
3.802083
 30
0.0
 10
4.687500
 20
3.802083
 30
0.0
 10
4.693182
 20
3.801564
 30
0.0
 10
4.698887
 20
3.801669
 30
0.0
 10
4.707343
 20
3.800267
 30
0.0
 10
4.715879
 20
3.799486
 30
0.0
 10
4.721372
 20
3.797942
 30
0.0
 10
4.727001
 20
3.797009
 30
0.0
 10
4.735062
 20
3.794095
 30
0.0
 10
4.743314
 20
3.791776
 30
0.0
 10
4.748435
 20
3.789260
 30
0.0
 10
4.753801
 20
3.787320
 30
0.0
 10
4.761199
 20
3.782990
 30
0.0
 10
4.768892
 20
3.779211
 30
0.0
 10
4.773471
 20
3.775808
 30
0.0
 10
4.778396
 20
3.772925
 30
0.0
 10
4.784884
 20
3.767324
 30
0.0
 10
4.791762
 20
3.762211
 30
0.0
 10
4.795648
 20
3.758031
 30
0.0
 10
4.799966
 20
3.754303
 30
0.0
 10
4.805329
 20
3.747616
 30
0.0
 10
4.811165
 20
3.741338
 30
0.0
 10
4.814226
 20
3.736523
 30
0.0
 10
4.817796
 20
3.732072
 30
0.0
 10
4.821856
 20
3.724522
 30
0.0
 10
4.826454
 20
3.717289
 30
0.0
 10
4.828590
 20
3.711999
 30
0.0
 10
4.831292
 20
3.706973
 30
0.0
 10
4.833913
 20
3.698812
 30
0.0
 10
4.837121
 20
3.690864
 30
0.0
 10
4.838260
 20
3.685272
 30
0.0
 10
4.840005
 20
3.679840
 30
0.0
 10
4.840755
 20
3.673031
 30
0.0
 10
4.842811
 20
3.662940
 30
0.0
 10
4.843001
 20
3.652643
 30
0.0
 10
4.843750
 20
3.645833
 30
0.0
 10
4.843750
 20
2.760417
 30
0.0
 10
5.208333
 20
2.760417
 30
0.0
 10
5.236712
 20
2.757818
 30
0.0
 10
5.264147
 20
2.750108
 30
0.0
 10
5.289725
 20
2.737544
 30
0.0
 10
5.312596
 20
2.720543
 30
0.0
 10
5.331998
 20
2.699671
 30
0.0
 10
5.347287
 20
2.675622
 30
0.0
 10
5.357954
 20
2.649196
 30
0.0
 10
5.363644
 20
2.621272
 30
0.0
 10
5.364168
 20
2.592779
 30
0.0
 10
5.359508
 20
2.564666
 30
0.0
 10
5.349819
 20
2.537866
 30
0.0
 10
5.335424
 20
2.513271
 30
0.0
 10
5.316802
 20
2.491700
 30
0.0
 10
5.294571
 20
2.473870
 30
0.0
 10
5.269472
 20
2.460375
 30
0.0
 10
5.242339
 20
2.451662
 30
0.0
 10
5.208333
 20
2.447917
 30
0.0
 10
4.687500
 20
2.447917
 30
0.0
 10
4.659121
 20
2.450515
 30
0.0
 10
4.631686
 20
2.458225
 30
0.0
 10
4.606108
 20
2.470790
 30
0.0
 10
4.583238
 20
2.487791
 30
0.0
 10
4.563835
 20
2.508663
 30
0.0
 10
4.548546
 20
2.532712
 30
0.0
 10
4.537879
 20
2.559138
 30
0.0
 10
4.532189
 20
2.587061
 30
0.0
 10
4.531250
 20
2.604167
 30
0.0
 10
4.531250
 20
2.968750
 30
0.0
 10
4.322917
 20
2.968750
 30
0.0
 10
4.322917
 20
2.604167
 30
0.0
 10
4.320318
 20
2.575788
 30
0.0
 10
4.312608
 20
2.548353
 30
0.0
 10
4.300044
 20
2.522775
 30
0.0
 10
4.283043
 20
2.499904
 30
0.0
 10
4.262171
 20
2.480502
 30
0.0
 10
4.238122
 20
2.465213
 30
0.0
 10
4.211696
 20
2.454546
 30
0.0
 10
4.183772
 20
2.448856
 30
0.0
 10
4.155279
 20
2.448332
 30
0.0
 10
4.127166
 20
2.452992
 30
0.0
 10
4.100366
 20
2.462681
 30
0.0
 10
4.075771
 20
2.477076
 30
0.0
 10
4.054200
 20
2.495698
 30
0.0
 10
4.036370
 20
2.517929
 30
0.0
 10
4.022875
 20
2.543028
 30
0.0
 10
4.014162
 20
2.570161
 30
0.0
 10
4.010417
 20
2.604167
 30
0.0
 10
4.010417
 20
3.125000
 30
0.0
 10
4.013015
 20
3.153379
 30
0.0
 10
4.020725
 20
3.180814
 30
0.0
 10
4.033290
 20
3.206392
 30
0.0
 10
4.050291
 20
3.229263
 30
0.0
 10
4.071163
 20
3.248665
 30
0.0
 10
4.095212
 20
3.263954
 30
0.0
 10
4.121638
 20
3.274621
 30
0.0
 10
4.149561
 20
3.280311
 30
0.0
 10
4.166667
 20
3.281250
 30
0.0
 10
4.531250
 20
3.281250
 30
0.0
 10
4.531250
 20
3.489583
 30
0.0
 10
3.802083
 20
3.489583
 30
0.0
 10
3.802083
 20
3.125000
 30
0.0
 10
3.799485
 20
3.096621
 30
0.0
 10
3.791775
 20
3.069186
 30
0.0
 10
3.779210
 20
3.043608
 30
0.0
 10
3.762209
 20
3.020737
 30
0.0
 10
3.741337
 20
3.001335
 30
0.0
 10
3.717288
 20
2.986046
 30
0.0
 10
3.690862
 20
2.975379
 30
0.0
 10
3.662939
 20
2.969689
 30
0.0
 10
3.634446
 20
2.969165
 30
0.0
 10
3.606332
 20
2.973825
 30
0.0
 10
3.579532
 20
2.983514
 30
0.0
 10
3.554938
 20
2.997909
 30
0.0
 10
3.533367
 20
3.016531
 30
0.0
 10
3.515537
 20
3.038762
 30
0.0
 10
3.502041
 20
3.063861
 30
0.0
 10
3.493329
 20
3.090994
 30
0.0
 10
3.489583
 20
3.125000
 30
0.0
 10
3.489583
 20
3.645833
 30
0.0
 10
3.492182
 20
3.674212
 30
0.0
 10
3.499892
 20
3.701647
 30
0.0
 10
3.512456
 20
3.727225
 30
0.0
 10
3.529457
 20
3.750096
 30
0.0
 10
3.550329
 20
3.769498
 30
0.0
 10
3.574378
 20
3.784787
 30
0.0
 10
3.600804
 20
3.795454
 30
0.0
 10
3.628728
 20
3.801144
 30
0.0
 10
3.645833
 20
3.802083
 30
0.0
 10
4.010417
 20
3.802083
 30
0.0
 10
4.010417
 20
4.010417
 30
0.0
 10
3.281250
 20
4.010417
 30
0.0
 10
3.281250
 20
2.760417
 30
0.0
 10
3.645833
 20
2.760417
 30
0.0
 10
3.674212
 20
2.757818
 30
0.0
 10
3.701647
 20
2.750108
 30
0.0
 10
3.727225
 20
2.737544
 30
0.0
 10
3.750096
 20
2.720543
 30
0.0
 10
3.769498
 20
2.699671
 30
0.0
 10
3.784787
 20
2.675622
 30
0.0
 10
3.795454
 20
2.649196
 30
0.0
 10
3.801144
 20
2.621272
 30
0.0
 10
3.801668
 20
2.592779
 30
0.0
 10
3.797008
 20
2.564666
 30
0.0
 10
3.787319
 20
2.537866
 30
0.0
 10
3.772924
 20
2.513271
 30
0.0
 10
3.754302
 20
2.491700
 30
0.0
 10
3.732071
 20
2.473870
 30
0.0
 10
3.706972
 20
2.460375
 30
0.0
 10
3.679839
 20
2.451662
 30
0.0
 10
3.645833
 20
2.447917
 30
0.0
 10
2.604167
 20
2.447917
 30
0.0
 10
2.575788
 20
2.450515
 30
0.0
 10
2.548353
 20
2.458225
 30
0.0
 10
2.522775
 20
2.470790
 30
0.0
 10
2.499904
 20
2.487791
 30
0.0
 10
2.480502
 20
2.508663
 30
0.0
 10
2.465213
 20
2.532712
 30
0.0
 10
2.454546
 20
2.559138
 30
0.0
 10
2.448856
 20
2.587061
 30
0.0
 10
2.448332
 20
2.615554
 30
0.0
 10
2.452992
 20
2.643668
 30
0.0
 10
2.462681
 20
2.670468
 30
0.0
 10
2.477076
 20
2.695062
 30
0.0
 10
2.495698
 20
2.716633
 30
0.0
 10
2.517929
 20
2.734463
 30
0.0
 10
2.543028
 20
2.747959
 30
0.0
 10
2.570161
 20
2.756671
 30
0.0
 10
2.604167
 20
2.760417
 30
0.0
 10
2.968750
 20
2.760417
 30
0.0
 10
2.968750
 20
2.968750
 30
0.0
 10
2.604167
 20
2.968750
 30
0.0
 10
2.575788
 20
2.971349
 30
0.0
 10
2.548353
 20
2.979059
 30
0.0
 10
2.522775
 20
2.991623
 30
0.0
 10
2.499904
 20
3.008624
 30
0.0
 10
2.480502
 20
3.029496
 30
0.0
 10
2.465213
 20
3.053545
 30
0.0
 10
2.454546
 20
3.079971
 30
0.0
 10
2.448856
 20
3.107894
 30
0.0
 10
2.448332
 20
3.136387
 30
0.0
 10
2.452992
 20
3.164501
 30
0.0
 10
2.462681
 20
3.191301
 30
0.0
 10
2.477076
 20
3.215896
 30
0.0
 10
2.495698
 20
3.237466
 30
0.0
 10
2.517929
 20
3.255296
 30
0.0
 10
2.543028
 20
3.268792
 30
0.0
 10
2.570161
 20
3.277505
 30
0.0
 10
2.604167
 20
3.281250
 30
0.0
 10
2.968750
 20
3.281250
 30
0.0
 10
2.968750
 20
3.489583
 30
0.0
 10
2.604167
 20
3.489583
 30
0.0
 10
2.575788
 20
3.492182
 30
0.0
 10
2.548353
 20
3.499892
 30
0.0
 10
2.522775
 20
3.512456
 30
0.0
 10
2.499904
 20
3.529457
 30
0.0
 10
2.480502
 20
3.550329
 30
0.0
 10
2.465213
 20
3.574378
 30
0.0
 10
2.454546
 20
3.600804
 30
0.0
 10
2.448856
 20
3.628728
 30
0.0
 10
2.448332
 20
3.657221
 30
0.0
 10
2.452992
 20
3.685334
 30
0.0
 10
2.462681
 20
3.712134
 30
0.0
 10
2.477076
 20
3.736729
 30
0.0
 10
2.495698
 20
3.758300
 30
0.0
 10
2.517929
 20
3.776130
 30
0.0
 10
2.543028
 20
3.789625
 30
0.0
 10
2.570161
 20
3.798338
 30
0.0
 10
2.604167
 20
3.802083
 30
0.0
 10
2.968750
 20
3.802083
 30
0.0
 10
2.968750
 20
4.166667
 30
0.0
 10
2.971349
 20
4.195045
 30
0.0
 10
2.979059
 20
4.222480
 30
0.0
 10
2.991623
 20
4.248058
 30
0.0
 10
3.008624
 20
4.270929
 30
0.0
 10
3.029496
 20
4.290332
 30
0.0
 10
3.053545
 20
4.305621
 30
0.0
 10
3.079971
 20
4.316288
 30
0.0
 10
3.107894
 20
4.321977
 30
0.0
 10
3.125000
 20
4.322917
 30
0.0
 10
3.489583
 20
4.322917
 30
0.0
 10
3.489583
 20
4.531250
 30
0.0
 10
2.760417
 20
4.531250
 30
0.0
 10
2.760417
 20
4.166667
 30
0.0
 10
2.757818
 20
4.138288
 30
0.0
 10
2.750108
 20
4.110853
 30
0.0
 10
2.737544
 20
4.085275
 30
0.0
 10
2.720543
 20
4.062404
 30
0.0
 10
2.699671
 20
4.043002
 30
0.0
 10
2.675622
 20
4.027713
 30
0.0
 10
2.649196
 20
4.017046
 30
0.0
 10
2.621272
 20
4.011356
 30
0.0
 10
2.592779
 20
4.010832
 30
0.0
 10
2.564666
 20
4.015492
 30
0.0
 10
2.537866
 20
4.025181
 30
0.0
 10
2.513271
 20
4.039576
 30
0.0
 10
2.491700
 20
4.058198
 30
0.0
 10
2.473870
 20
4.080429
 30
0.0
 10
2.460375
 20
4.105528
 30
0.0
 10
2.451662
 20
4.132661
 30
0.0
 10
2.447917
 20
4.166667
 30
0.0
 10
2.447917
 20
4.687500
 30
0.0
 10
2.450515
 20
4.715879
 30
0.0
 10
2.458225
 20
4.743314
 30
0.0
 10
2.470790
 20
4.768892
 30
0.0
 10
2.487791
 20
4.791762
 30
0.0
 10
2.508663
 20
4.811165
 30
0.0
 10
2.532712
 20
4.826454
 30
0.0
 10
2.559137
 20
4.837121
 30
0.0
 10
2.587061
 20
4.842811
 30
0.0
 10
2.604167
 20
4.843750
 30
0.0
 10
3.645833
 20
4.843750
 30
0.0
 10
3.674212
 20
4.841151
 30
0.0
 10
3.701647
 20
4.833441
 30
0.0
 10
3.727225
 20
4.820877
 30
0.0
 10
3.750096
 20
4.803876
 30
0.0
 10
3.769498
 20
4.783004
 30
0.0
 10
3.784787
 20
4.758955
 30
0.0
 10
3.795454
 20
4.732529
 30
0.0
 10
3.801144
 20
4.704606
 30
0.0
 10
3.802083
 20
4.687500
 30
0.0
 10
3.802083
 20
4.322917
 30
0.0
 10
4.531250
 20
4.322917
 30
0.0
 10
4.531250
 20
5.052083
 30
0.0
 10
4.322917
 20
5.052083
 30
0.0
 10
4.322917
 20
4.687500
 30
0.0
 10
4.320318
 20
4.659121
 30
0.0
 10
4.312608
 20
4.631686
 30
0.0
 10
4.300044
 20
4.606108
 30
0.0
 10
4.283043
 20
4.583238
 30
0.0
 10
4.262171
 20
4.563835
 30
0.0
 10
4.238122
 20
4.548546
 30
0.0
 10
4.211696
 20
4.537879
 30
0.0
 10
4.183772
 20
4.532189
 30
0.0
 10
4.155279
 20
4.531665
 30
0.0
 10
4.127166
 20
4.536325
 30
0.0
 10
4.100366
 20
4.546014
 30
0.0
 10
4.075771
 20
4.560409
 30
0.0
 10
4.054200
 20
4.579031
 30
0.0
 10
4.036370
 20
4.601262
 30
0.0
 10
4.022875
 20
4.626361
 30
0.0
 10
4.014162
 20
4.653494
 30
0.0
 10
4.010417
 20
4.687500
 30
0.0
 10
4.010417
 20
5.052083
 30
0.0
 10
2.604167
 20
5.052083
 30
0.0
 10
2.575788
 20
5.054682
 30
0.0
 10
2.548353
 20
5.062392
 30
0.0
 10
2.522775
 20
5.074956
 30
0.0
 10
2.499904
 20
5.091957
 30
0.0
 10
2.480502
 20
5.112829
 30
0.0
 10
2.465213
 20
5.136878
 30
0.0
 10
2.454546
 20
5.163304
 30
0.0
 10
2.448856
 20
5.191228
 30
0.0
 10
2.447917
 20
5.208333
 30
0.0
 10
2.447917
 20
6.770833
 30
0.0
 10
2.450515
 20
6.799212
 30
0.0
 10
2.458225
 20
6.826647
 30
0.0
 10
2.470790
 20
6.852225
 30
0.0
 10
2.487791
 20
6.875096
 30
0.0
 10
2.508663
 20
6.894498
 30
0.0
 10
2.532712
 20
6.909787
 30
0.0
 10
2.559137
 20
6.920454
 30
0.0
 10
2.587061
 20
6.926144
 30
0.0
 10
2.615554
 20
6.926668
 30
0.0
 10
2.643668
 20
6.922008
 30
0.0
 10
2.670468
 20
6.912319
 30
0.0
 10
2.695062
 20
6.897924
 30
0.0
 10
2.716633
 20
6.879302
 30
0.0
 10
2.734463
 20
6.857071
 30
0.0
 10
2.747959
 20
6.831972
 30
0.0
 10
2.756671
 20
6.804839
 30
0.0
 10
2.760417
 20
6.770833
 30
0.0
 10
2.760417
 20
5.364583
 30
0.0
 10
3.489583
 20
5.364583
 30
0.0
 10
3.489583
 20
5.572917
 30
0.0
 10
3.125000
 20
5.572917
 30
0.0
 10
3.096621
 20
5.575515
 30
0.0
 10
3.069186
 20
5.583225
 30
0.0
 10
3.043608
 20
5.595790
 30
0.0
 10
3.020738
 20
5.612791
 30
0.0
 10
3.001335
 20
5.633663
 30
0.0
 10
2.986046
 20
5.657712
 30
0.0
 10
2.975379
 20
5.684138
 30
0.0
 10
2.969689
 20
5.712061
 30
0.0
 10
2.969165
 20
5.740554
 30
0.0
 10
2.973825
 20
5.768668
 30
0.0
 10
2.983514
 20
5.795468
 30
0.0
 10
2.997909
 20
5.820062
 30
0.0
 10
3.016531
 20
5.841633
 30
0.0
 10
3.038762
 20
5.859463
 30
0.0
 10
3.063861
 20
5.872959
 30
0.0
 10
3.090994
 20
5.881671
 30
0.0
 10
3.125000
 20
5.885417
 30
0.0
 10
3.489583
 20
5.885417
 30
0.0
 10
3.489583
 20
6.093750
 30
0.0
 10
3.125000
 20
6.093750
 30
0.0
 10
3.096621
 20
6.096349
 30
0.0
 10
3.069186
 20
6.104059
 30
0.0
 10
3.043608
 20
6.116623
 30
0.0
 10
3.020738
 20
6.133624
 30
0.0
 10
3.001335
 20
6.154496
 30
0.0
 10
2.986046
 20
6.178545
 30
0.0
 10
2.975379
 20
6.204971
 30
0.0
 10
2.969689
 20
6.232894
 30
0.0
 10
2.968750
 20
6.250000
 30
0.0
 10
2.968750
 20
6.770833
 30
0.0
 10
2.971349
 20
6.799212
 30
0.0
 10
2.979059
 20
6.826647
 30
0.0
 10
2.991623
 20
6.852225
 30
0.0
 10
3.008624
 20
6.875096
 30
0.0
 10
3.029496
 20
6.894498
 30
0.0
 10
3.053545
 20
6.909787
 30
0.0
 10
3.079971
 20
6.920454
 30
0.0
 10
3.107894
 20
6.926144
 30
0.0
 10
3.125000
 20
6.927083
 30
0.0
 10
4.166667
 20
6.927083
 30
0.0
  0
ENDSEC
  0
SECTION
  2
OBJECTS
  0
DICTIONARY
  5
C
330
0
100
AcDbDictionary
  3
ACAD_GROUP
350
D
  3
ACAD_MLINESTYLE
350
17
  0
DICTIONARY
  5
D
330
C
100
AcDbDictionary
  0
DICTIONARY
  5
1A
330
C
100
AcDbDictionary
  0
DICTIONARY
  5
17
330
C
100
AcDbDictionary
  3
STANDARD
350
18
  0
DICTIONARY
  5
19
330
C
100
AcDbDictionary
  0
ENDSEC
  0
EOF
