  0
SECTION
  2
HEADER
  9
$ACADVER
  1
AC1014
  9
$HANDSEED
  5
FFFF
  9
$INSUNITS
 70
     1
  9
$MEASUREMENT
 70
     1
  0
ENDSEC
  0
SECTION
  2
TABLES
  0
TABLE
  2
VPORT
  5
8
330
0
100
AcDbSymbolTable
 70
     4
  0
VPORT
  5
2E
330
8
100
AcDbSymbolTableRecord
100
AcDbViewportTableRecord
  2
*ACTIVE
 70
     0
 10
0.0
 20
0.0
 11
1.0
 21
1.0
 12
210.0
 22
148.5
 13
0.0
 23
0.0
 14
10.0
 24
10.0
 15
10.0
 25
10.0
 16
0.0
 26
0.0
 36
1.0
 17
0.0
 27
0.0
 37
0.0
 40
341.0
 41
1.24
 42
50.0
 43
0.0
 44
0.0
 50
0.0
 51
0.0
 71
     0
 72
   100
 73
     1
 74
     3
 75
     0
 76
     0
 77
     0
 78
     0
  0
ENDTAB
  0
TABLE
  2
LTYPE
  5
5
330
0
100
AcDbSymbolTable
 70
     1
  0
LTYPE
  5
14
330
5
100
AcDbSymbolTableRecord
100
AcDbLinetypeTableRecord
  2
BYBLOCK
 70
     0
  3

 72
    65
 73
     0
 40
0.0
  0
LTYPE
  5
15
330
5
100
AcDbSymbolTableRecord
100
AcDbLinetypeTableRecord
  2
BYLAYER
 70
     0
  3

 72
    65
 73
     0
 40
0.0
  0
LTYPE
  5
16
330
5
100
AcDbSymbolTableRecord
100
AcDbLinetypeTableRecord
  2
CONTINUOUS
 70
     0
  3
Solid line
 72
    65
 73
     0
 40
0.0
  0
ENDTAB
  0
TABLE
  2
LAYER
  5
2
100
AcDbSymbolTable
 70
1
  0
LAYER
  5
50
100
AcDbSymbolTableRecord
100
AcDbLayerTableRecord
  2
0
 70
0
  6
CONTINUOUS
  0
ENDTAB
  0
TABLE
  2
STYLE
  5
3
330
0
100
AcDbSymbolTable
 70
     1
  0
STYLE
  5
11
330
3
100
AcDbSymbolTableRecord
100
AcDbTextStyleTableRecord
  2
STANDARD
 70
     0
 40
0.0
 41
1.0
 50
0.0
 71
     0
 42
2.5
  3
txt
  4

  0
ENDTAB
  0
TABLE
  2
VIEW
  5
6
330
0
100
AcDbSymbolTable
 70
     0
  0
ENDTAB
  0
TABLE
  2
UCS
  5
7
330
0
100
AcDbSymbolTable
 70
     0
  0
ENDTAB
  0
TABLE
  2
APPID
  5
9
330
0
100
AcDbSymbolTable
 70
     2
  0
APPID
  5
12
330
9
100
AcDbSymbolTableRecord
100
AcDbRegAppTableRecord
  2
ACAD
 70
     0
  0
ENDTAB
  0
TABLE
  2
DIMSTYLE
  5
A
330
0
100
AcDbSymbolTable
 70
     1
  0
DIMSTYLE
105
27
330
A
100
AcDbSymbolTableRecord
100
AcDbDimStyleTableRecord
  2
ISO-25
 70
     0
  3

  4

  5

  6

  7

 40
1.0
 41
2.5
 42
0.625
 43
3.75
 44
1.25
 45
0.0
 46
0.0
 47
0.0
 48
0.0
140
2.5
141
2.5
142
0.0
143
0.03937007874016
144
1.0
145
0.0
146
1.0
147
0.625
 71
     0
 72
     0
 73
     0
 74
     0
 75
     0
 76
     0
 77
     1
 78
     8
170
     0
171
     3
172
     1
173
     0
174
     0
175
     0
176
     0
177
     0
178
     0
270
     2
271
     2
272
     2
273
     2
274
     3
340
11
275
     0
280
     0
281
     0
282
     0
283
     0
284
     8
285
     0
286
     0
287
     3
288
     0
  0
ENDTAB
  0
TABLE
  2
BLOCK_RECORD
  5
1
330
0
100
AcDbSymbolTable
 70
     1
  0
BLOCK_RECORD
  5
1F
330
1
100
AcDbSymbolTableRecord
100
AcDbBlockTableRecord
  2
*MODEL_SPACE
  0
BLOCK_RECORD
  5
1B
330
1
100
AcDbSymbolTableRecord
100
AcDbBlockTableRecord
  2
*PAPER_SPACE
  0
ENDTAB
  0
ENDSEC
  0
SECTION
  2
BLOCKS
  0
BLOCK
  5
20
330
1F
100
AcDbEntity
  8
0
100
AcDbBlockBegin
  2
*MODEL_SPACE
 70
     0
 10
0.0
 20
0.0
 30
0.0
  3
*MODEL_SPACE
  1

  0
ENDBLK
  5
21
330
1F
100
AcDbEntity
  8
0
100
AcDbBlockEnd
  0
BLOCK
  5
1C
330
1B
100
AcDbEntity
 67
     1
  8
0
100
AcDbBlockBegin
  2
*PAPER_SPACE
  1

  0
ENDBLK
  5
1D
330
1B
100
AcDbEntity
 67
     1
  8
0
100
AcDbBlockEnd
  0
ENDSEC
  0
SECTION
  2
ENTITIES
  0
LWPOLYLINE
  5
100
100
AcDbEntity
  8
0
 62
7
100
AcDbPolyline
 90
1019
 70
1
 10
2.892962
 20
7.184901
 30
0.0
 10
2.920397
 20
7.177191
 30
0.0
 10
2.945975
 20
7.164627
 30
0.0
 10
2.968846
 20
7.147626
 30
0.0
 10
2.988248
 20
7.126754
 30
0.0
 10
3.003537
 20
7.102705
 30
0.0
 10
3.014204
 20
7.076279
 30
0.0
 10
3.019894
 20
7.048356
 30
0.0
 10
3.020833
 20
7.031250
 30
0.0
 10
3.020833
 20
6.666667
 30
0.0
 10
3.229167
 20
6.666667
 30
0.0
 10
3.229167
 20
7.031250
 30
0.0
 10
3.231765
 20
7.059629
 30
0.0
 10
3.239475
 20
7.087064
 30
0.0
 10
3.252040
 20
7.112642
 30
0.0
 10
3.269041
 20
7.135512
 30
0.0
 10
3.289913
 20
7.154915
 30
0.0
 10
3.313962
 20
7.170204
 30
0.0
 10
3.340388
 20
7.180871
 30
0.0
 10
3.368311
 20
7.186561
 30
0.0
 10
3.396804
 20
7.187085
 30
0.0
 10
3.424918
 20
7.182425
 30
0.0
 10
3.451718
 20
7.172736
 30
0.0
 10
3.476312
 20
7.158341
 30
0.0
 10
3.497883
 20
7.139719
 30
0.0
 10
3.515713
 20
7.117488
 30
0.0
 10
3.529209
 20
7.092389
 30
0.0
 10
3.537921
 20
7.065256
 30
0.0
 10
3.541667
 20
7.031250
 30
0.0
 10
3.541667
 20
6.145833
 30
0.0
 10
3.750000
 20
6.145833
 30
0.0
 10
3.750000
 20
7.031250
 30
0.0
 10
3.752599
 20
7.059629
 30
0.0
 10
3.760309
 20
7.087064
 30
0.0
 10
3.772873
 20
7.112642
 30
0.0
 10
3.789874
 20
7.135512
 30
0.0
 10
3.810746
 20
7.154915
 30
0.0
 10
3.834795
 20
7.170204
 30
0.0
 10
3.861221
 20
7.180871
 30
0.0
 10
3.889144
 20
7.186561
 30
0.0
 10
3.906250
 20
7.187500
 30
0.0
 10
4.427083
 20
7.187500
 30
0.0
 10
4.455462
 20
7.184901
 30
0.0
 10
4.482897
 20
7.177191
 30
0.0
 10
4.508475
 20
7.164627
 30
0.0
 10
4.531346
 20
7.147626
 30
0.0
 10
4.550748
 20
7.126754
 30
0.0
 10
4.566037
 20
7.102705
 30
0.0
 10
4.576704
 20
7.076279
 30
0.0
 10
4.582394
 20
7.048356
 30
0.0
 10
4.582918
 20
7.019863
 30
0.0
 10
4.578258
 20
6.991749
 30
0.0
 10
4.568569
 20
6.964949
 30
0.0
 10
4.554174
 20
6.940354
 30
0.0
 10
4.535552
 20
6.918784
 30
0.0
 10
4.513321
 20
6.900954
 30
0.0
 10
4.488222
 20
6.887458
 30
0.0
 10
4.461089
 20
6.878745
 30
0.0
 10
4.427083
 20
6.875000
 30
0.0
 10
4.062500
 20
6.875000
 30
0.0
 10
4.062500
 20
6.666667
 30
0.0
 10
4.791667
 20
6.666667
 30
0.0
 10
4.791667
 20
7.031250
 30
0.0
 10
4.794265
 20
7.059629
 30
0.0
 10
4.801975
 20
7.087064
 30
0.0
 10
4.814540
 20
7.112642
 30
0.0
 10
4.831541
 20
7.135512
 30
0.0
 10
4.852413
 20
7.154915
 30
0.0
 10
4.876462
 20
7.170204
 30
0.0
 10
4.902888
 20
7.180871
 30
0.0
 10
4.930811
 20
7.186561
 30
0.0
 10
4.947917
 20
7.187500
 30
0.0
 10
5.468750
 20
7.187500
 30
0.0
 10
5.497129
 20
7.184901
 30
0.0
 10
5.524564
 20
7.177191
 30
0.0
 10
5.550142
 20
7.164627
 30
0.0
 10
5.573013
 20
7.147626
 30
0.0
 10
5.592415
 20
7.126754
 30
0.0
 10
5.607704
 20
7.102705
 30
0.0
 10
5.618371
 20
7.076279
 30
0.0
 10
5.624061
 20
7.048356
 30
0.0
 10
5.624585
 20
7.019863
 30
0.0
 10
5.619925
 20
6.991749
 30
0.0
 10
5.610236
 20
6.964949
 30
0.0
 10
5.595841
 20
6.940354
 30
0.0
 10
5.577219
 20
6.918784
 30
0.0
 10
5.554988
 20
6.900954
 30
0.0
 10
5.529889
 20
6.887458
 30
0.0
 10
5.502756
 20
6.878745
 30
0.0
 10
5.468750
 20
6.875000
 30
0.0
 10
5.104167
 20
6.875000
 30
0.0
 10
5.104167
 20
6.666667
 30
0.0
 10
5.468750
 20
6.666667
 30
0.0
 10
5.497129
 20
6.664068
 30
0.0
 10
5.524564
 20
6.656358
 30
0.0
 10
5.550142
 20
6.643794
 30
0.0
 10
5.573013
 20
6.626793
 30
0.0
 10
5.592415
 20
6.605921
 30
0.0
 10
5.607704
 20
6.581872
 30
0.0
 10
5.618371
 20
6.555446
 30
0.0
 10
5.624061
 20
6.527522
 30
0.0
 10
5.624585
 20
6.499029
 30
0.0
 10
5.619925
 20
6.470916
 30
0.0
 10
5.610236
 20
6.444116
 30
0.0
 10
5.595841
 20
6.419521
 30
0.0
 10
5.577219
 20
6.397950
 30
0.0
 10
5.554988
 20
6.380120
 30
0.0
 10
5.529889
 20
6.366625
 30
0.0
 10
5.502756
 20
6.357912
 30
0.0
 10
5.468750
 20
6.354167
 30
0.0
 10
4.583333
 20
6.354167
 30
0.0
 10
4.583333
 20
5.989583
 30
0.0
 10
4.580735
 20
5.961205
 30
0.0
 10
4.573025
 20
5.933770
 30
0.0
 10
4.560460
 20
5.908192
 30
0.0
 10
4.543459
 20
5.885321
 30
0.0
 10
4.522587
 20
5.865918
 30
0.0
 10
4.498538
 20
5.850629
 30
0.0
 10
4.472112
 20
5.839962
 30
0.0
 10
4.444189
 20
5.834273
 30
0.0
 10
4.415696
 20
5.833749
 30
0.0
 10
4.387582
 20
5.838409
 30
0.0
 10
4.360782
 20
5.848097
 30
0.0
 10
4.336188
 20
5.862492
 30
0.0
 10
4.314617
 20
5.881115
 30
0.0
 10
4.296787
 20
5.903345
 30
0.0
 10
4.283291
 20
5.928445
 30
0.0
 10
4.274579
 20
5.955578
 30
0.0
 10
4.270833
 20
5.989583
 30
0.0
 10
4.270833
 20
6.354167
 30
0.0
 10
4.062500
 20
6.354167
 30
0.0
 10
4.062500
 20
5.625000
 30
0.0
 10
4.947917
 20
5.625000
 30
0.0
 10
4.976295
 20
5.622401
 30
0.0
 10
5.003730
 20
5.614691
 30
0.0
 10
5.029308
 20
5.602127
 30
0.0
 10
5.052179
 20
5.585126
 30
0.0
 10
5.071582
 20
5.564254
 30
0.0
 10
5.086871
 20
5.540205
 30
0.0
 10
5.097538
 20
5.513779
 30
0.0
 10
5.103227
 20
5.485856
 30
0.0
 10
5.103751
 20
5.457363
 30
0.0
 10
5.099091
 20
5.429249
 30
0.0
 10
5.089403
 20
5.402449
 30
0.0
 10
5.075008
 20
5.377854
 30
0.0
 10
5.056385
 20
5.356284
 30
0.0
 10
5.034155
 20
5.338454
 30
0.0
 10
5.009055
 20
5.324958
 30
0.0
 10
4.981922
 20
5.316245
 30
0.0
 10
4.947917
 20
5.312500
 30
0.0
 10
4.062500
 20
5.312500
 30
0.0
 10
4.062500
 20
5.104167
 30
0.0
 10
5.312500
 20
5.104167
 30
0.0
 10
5.312500
 20
5.833333
 30
0.0
 10
4.947917
 20
5.833333
 30
0.0
 10
4.919538
 20
5.835932
 30
0.0
 10
4.892103
 20
5.843642
 30
0.0
 10
4.866525
 20
5.856206
 30
0.0
 10
4.843654
 20
5.873207
 30
0.0
 10
4.824252
 20
5.894079
 30
0.0
 10
4.808963
 20
5.918128
 30
0.0
 10
4.798296
 20
5.944554
 30
0.0
 10
4.792606
 20
5.972478
 30
0.0
 10
4.792082
 20
6.000971
 30
0.0
 10
4.796742
 20
6.029084
 30
0.0
 10
4.806431
 20
6.055884
 30
0.0
 10
4.820826
 20
6.080479
 30
0.0
 10
4.839448
 20
6.102050
 30
0.0
 10
4.861679
 20
6.119880
 30
0.0
 10
4.886778
 20
6.133375
 30
0.0
 10
4.913911
 20
6.142088
 30
0.0
 10
4.947917
 20
6.145833
 30
0.0
 10
5.833333
 20
6.145833
 30
0.0
 10
5.833333
 20
7.031250
 30
0.0
 10
5.835932
 20
7.059629
 30
0.0
 10
5.843642
 20
7.087064
 30
0.0
 10
5.856206
 20
7.112642
 30
0.0
 10
5.873207
 20
7.135512
 30
0.0
 10
5.894079
 20
7.154915
 30
0.0
 10
5.918128
 20
7.170204
 30
0.0
 10
5.944554
 20
7.180871
 30
0.0
 10
5.972478
 20
7.186561
 30
0.0
 10
6.000971
 20
7.187085
 30
0.0
 10
6.029084
 20
7.182425
 30
0.0
 10
6.055884
 20
7.172736
 30
0.0
 10
6.080479
 20
7.158341
 30
0.0
 10
6.102050
 20
7.139719
 30
0.0
 10
6.119880
 20
7.117488
 30
0.0
 10
6.133375
 20
7.092389
 30
0.0
 10
6.142088
 20
7.065256
 30
0.0
 10
6.145833
 20
7.031250
 30
0.0
 10
6.145833
 20
6.666667
 30
0.0
 10
6.510417
 20
6.666667
 30
0.0
 10
6.538795
 20
6.664068
 30
0.0
 10
6.566230
 20
6.656358
 30
0.0
 10
6.591808
 20
6.643794
 30
0.0
 10
6.614679
 20
6.626793
 30
0.0
 10
6.634082
 20
6.605921
 30
0.0
 10
6.649371
 20
6.581872
 30
0.0
 10
6.660038
 20
6.555446
 30
0.0
 10
6.665728
 20
6.527522
 30
0.0
 10
6.666251
 20
6.499029
 30
0.0
 10
6.661591
 20
6.470916
 30
0.0
 10
6.651903
 20
6.444116
 30
0.0
 10
6.637508
 20
6.419521
 30
0.0
 10
6.618885
 20
6.397950
 30
0.0
 10
6.596655
 20
6.380120
 30
0.0
 10
6.571555
 20
6.366625
 30
0.0
 10
6.544422
 20
6.357912
 30
0.0
 10
6.510417
 20
6.354167
 30
0.0
 10
6.145833
 20
6.354167
 30
0.0
 10
6.145833
 20
5.989583
 30
0.0
 10
6.145314
 20
5.983901
 30
0.0
 10
6.145419
 20
5.978196
 30
0.0
 10
6.144017
 20
5.969741
 30
0.0
 10
6.143236
 20
5.961205
 30
0.0
 10
6.141692
 20
5.955711
 30
0.0
 10
6.140759
 20
5.950082
 30
0.0
 10
6.137845
 20
5.942022
 30
0.0
 10
6.135526
 20
5.933770
 30
0.0
 10
6.133010
 20
5.928648
 30
0.0
 10
6.131070
 20
5.923282
 30
0.0
 10
6.126740
 20
5.915885
 30
0.0
 10
6.122961
 20
5.908192
 30
0.0
 10
6.119558
 20
5.903613
 30
0.0
 10
6.116675
 20
5.898688
 30
0.0
 10
6.111074
 20
5.892200
 30
0.0
 10
6.105961
 20
5.885321
 30
0.0
 10
6.101781
 20
5.881436
 30
0.0
 10
6.098053
 20
5.877117
 30
0.0
 10
6.091366
 20
5.871754
 30
0.0
 10
6.085088
 20
5.865918
 30
0.0
 10
6.080273
 20
5.862857
 30
0.0
 10
6.075822
 20
5.859287
 30
0.0
 10
6.068272
 20
5.855228
 30
0.0
 10
6.061039
 20
5.850629
 30
0.0
 10
6.055749
 20
5.848494
 30
0.0
 10
6.050723
 20
5.845791
 30
0.0
 10
6.042562
 20
5.843171
 30
0.0
 10
6.034614
 20
5.839962
 30
0.0
 10
6.029022
 20
5.838823
 30
0.0
 10
6.023590
 20
5.837079
 30
0.0
 10
6.016781
 20
5.836329
 30
0.0
 10
6.006690
 20
5.834272
 30
0.0
 10
5.996393
 20
5.834083
 30
0.0
 10
5.989583
 20
5.833333
 30
0.0
 10
5.625000
 20
5.833333
 30
0.0
 10
5.625000
 20
4.947917
 30
0.0
 10
5.624480
 20
4.942234
 30
0.0
 10
5.624585
 20
4.936529
 30
0.0
 10
5.623184
 20
4.928074
 30
0.0
 10
5.622403
 20
4.919538
 30
0.0
 10
5.620859
 20
4.914045
 30
0.0
 10
5.619926
 20
4.908416
 30
0.0
 10
5.617011
 20
4.900355
 30
0.0
 10
5.614692
 20
4.892103
 30
0.0
 10
5.612177
 20
4.886982
 30
0.0
 10
5.610237
 20
4.881616
 30
0.0
 10
5.605907
 20
4.874218
 30
0.0
 10
5.602128
 20
4.866525
 30
0.0
 10
5.598724
 20
4.861946
 30
0.0
 10
5.595842
 20
4.857021
 30
0.0
 10
5.590241
 20
4.850533
 30
0.0
 10
5.585127
 20
4.843654
 30
0.0
 10
5.580948
 20
4.839769
 30
0.0
 10
5.577219
 20
4.835450
 30
0.0
 10
5.570533
 20
4.830088
 30
0.0
 10
5.564255
 20
4.824252
 30
0.0
 10
5.559440
 20
4.821190
 30
0.0
 10
5.554989
 20
4.817620
 30
0.0
 10
5.547439
 20
4.813561
 30
0.0
 10
5.540206
 20
4.808963
 30
0.0
 10
5.534915
 20
4.806827
 30
0.0
 10
5.529889
 20
4.804125
 30
0.0
 10
5.521728
 20
4.801504
 30
0.0
 10
5.513780
 20
4.798296
 30
0.0
 10
5.508189
 20
4.797156
 30
0.0
 10
5.502756
 20
4.795412
 30
0.0
 10
5.495948
 20
4.794662
 30
0.0
 10
5.485857
 20
4.792606
 30
0.0
 10
5.475560
 20
4.792416
 30
0.0
 10
5.468750
 20
4.791667
 30
0.0
 10
4.583333
 20
4.791667
 30
0.0
 10
4.583333
 20
4.583333
 30
0.0
 10
5.833333
 20
4.583333
 30
0.0
 10
5.833333
 20
5.468750
 30
0.0
 10
5.835932
 20
5.497129
 30
0.0
 10
5.843642
 20
5.524564
 30
0.0
 10
5.856206
 20
5.550142
 30
0.0
 10
5.873207
 20
5.573012
 30
0.0
 10
5.894079
 20
5.592415
 30
0.0
 10
5.918128
 20
5.607704
 30
0.0
 10
5.944554
 20
5.618371
 30
0.0
 10
5.972478
 20
5.624061
 30
0.0
 10
6.000971
 20
5.624585
 30
0.0
 10
6.029084
 20
5.619925
 30
0.0
 10
6.055884
 20
5.610236
 30
0.0
 10
6.080479
 20
5.595841
 30
0.0
 10
6.102050
 20
5.577219
 30
0.0
 10
6.119880
 20
5.554988
 30
0.0
 10
6.133375
 20
5.529889
 30
0.0
 10
6.142088
 20
5.502756
 30
0.0
 10
6.145833
 20
5.468750
 30
0.0
 10
6.145833
 20
5.104167
 30
0.0
 10
6.354167
 20
5.104167
 30
0.0
 10
6.354167
 20
5.468750
 30
0.0
 10
6.356765
 20
5.497129
 30
0.0
 10
6.364475
 20
5.524564
 30
0.0
 10
6.377040
 20
5.550142
 30
0.0
 10
6.394041
 20
5.573012
 30
0.0
 10
6.414913
 20
5.592415
 30
0.0
 10
6.438962
 20
5.607704
 30
0.0
 10
6.465387
 20
5.618371
 30
0.0
 10
6.493311
 20
5.624061
 30
0.0
 10
6.521804
 20
5.624585
 30
0.0
 10
6.549918
 20
5.619925
 30
0.0
 10
6.576718
 20
5.610236
 30
0.0
 10
6.601312
 20
5.595841
 30
0.0
 10
6.622883
 20
5.577219
 30
0.0
 10
6.640713
 20
5.554988
 30
0.0
 10
6.654209
 20
5.529889
 30
0.0
 10
6.662921
 20
5.502756
 30
0.0
 10
6.666667
 20
5.468750
 30
0.0
 10
6.666667
 20
5.104167
 30
0.0
 10
6.875000
 20
5.104167
 30
0.0
 10
6.875000
 20
5.833333
 30
0.0
 10
6.510417
 20
5.833333
 30
0.0
 10
6.482038
 20
5.835932
 30
0.0
 10
6.454603
 20
5.843642
 30
0.0
 10
6.429025
 20
5.856206
 30
0.0
 10
6.406154
 20
5.873207
 30
0.0
 10
6.386752
 20
5.894079
 30
0.0
 10
6.371463
 20
5.918128
 30
0.0
 10
6.360796
 20
5.944554
 30
0.0
 10
6.355106
 20
5.972478
 30
0.0
 10
6.354582
 20
6.000971
 30
0.0
 10
6.359242
 20
6.029084
 30
0.0
 10
6.368931
 20
6.055884
 30
0.0
 10
6.383326
 20
6.080479
 30
0.0
 10
6.401948
 20
6.102050
 30
0.0
 10
6.424179
 20
6.119880
 30
0.0
 10
6.449278
 20
6.133375
 30
0.0
 10
6.476411
 20
6.142088
 30
0.0
 10
6.510417
 20
6.145833
 30
0.0
 10
6.875000
 20
6.145833
 30
0.0
 10
6.875000
 20
6.875000
 30
0.0
 10
6.510417
 20
6.875000
 30
0.0
 10
6.482038
 20
6.877599
 30
0.0
 10
6.454603
 20
6.885309
 30
0.0
 10
6.429025
 20
6.897873
 30
0.0
 10
6.406154
 20
6.914874
 30
0.0
 10
6.386752
 20
6.935746
 30
0.0
 10
6.371463
 20
6.959795
 30
0.0
 10
6.360796
 20
6.986221
 30
0.0
 10
6.355106
 20
7.014144
 30
0.0
 10
6.354582
 20
7.042637
 30
0.0
 10
6.359242
 20
7.070751
 30
0.0
 10
6.368931
 20
7.097551
 30
0.0
 10
6.383326
 20
7.122146
 30
0.0
 10
6.401948
 20
7.143716
 30
0.0
 10
6.424179
 20
7.161546
 30
0.0
 10
6.449278
 20
7.175042
 30
0.0
 10
6.476411
 20
7.183755
 30
0.0
 10
6.510417
 20
7.187500
 30
0.0
 10
7.031250
 20
7.187500
 30
0.0
 10
7.059629
 20
7.184901
 30
0.0
 10
7.087064
 20
7.177191
 30
0.0
 10
7.112642
 20
7.164627
 30
0.0
 10
7.135513
 20
7.147626
 30
0.0
 10
7.154915
 20
7.126754
 30
0.0
 10
7.170204
 20
7.102705
 30
0.0
 10
7.180871
 20
7.076279
 30
0.0
 10
7.186561
 20
7.048356
 30
0.0
 10
7.187500
 20
7.031250
 30
0.0
 10
7.187500
 20
4.947917
 30
0.0
 10
7.184901
 20
4.919538
 30
0.0
 10
7.177191
 20
4.892103
 30
0.0
 10
7.164627
 20
4.866525
 30
0.0
 10
7.147626
 20
4.843654
 30
0.0
 10
7.126754
 20
4.824252
 30
0.0
 10
7.102705
 20
4.808963
 30
0.0
 10
7.076279
 20
4.798296
 30
0.0
 10
7.048356
 20
4.792606
 30
0.0
 10
7.031250
 20
4.791667
 30
0.0
 10
6.145833
 20
4.791667
 30
0.0
 10
6.145833
 20
3.541667
 30
0.0
 10
6.875000
 20
3.541667
 30
0.0
 10
6.875000
 20
3.750000
 30
0.0
 10
6.510417
 20
3.750000
 30
0.0
 10
6.482038
 20
3.752599
 30
0.0
 10
6.454603
 20
3.760309
 30
0.0
 10
6.429025
 20
3.772873
 30
0.0
 10
6.406154
 20
3.789874
 30
0.0
 10
6.386752
 20
3.810746
 30
0.0
 10
6.371463
 20
3.834795
 30
0.0
 10
6.360796
 20
3.861221
 30
0.0
 10
6.355106
 20
3.889144
 30
0.0
 10
6.354582
 20
3.917637
 30
0.0
 10
6.359242
 20
3.945751
 30
0.0
 10
6.368931
 20
3.972551
 30
0.0
 10
6.383326
 20
3.997146
 30
0.0
 10
6.401948
 20
4.018716
 30
0.0
 10
6.424179
 20
4.036546
 30
0.0
 10
6.449278
 20
4.050042
 30
0.0
 10
6.476411
 20
4.058755
 30
0.0
 10
6.510417
 20
4.062500
 30
0.0
 10
6.875000
 20
4.062500
 30
0.0
 10
6.875000
 20
4.270833
 30
0.0
 10
6.510417
 20
4.270833
 30
0.0
 10
6.482038
 20
4.273432
 30
0.0
 10
6.454603
 20
4.281142
 30
0.0
 10
6.429025
 20
4.293706
 30
0.0
 10
6.406154
 20
4.310707
 30
0.0
 10
6.386752
 20
4.331579
 30
0.0
 10
6.371463
 20
4.355628
 30
0.0
 10
6.360796
 20
4.382054
 30
0.0
 10
6.355106
 20
4.409978
 30
0.0
 10
6.354582
 20
4.438471
 30
0.0
 10
6.359242
 20
4.466584
 30
0.0
 10
6.368931
 20
4.493384
 30
0.0
 10
6.383326
 20
4.517979
 30
0.0
 10
6.401948
 20
4.539550
 30
0.0
 10
6.424179
 20
4.557380
 30
0.0
 10
6.449278
 20
4.570875
 30
0.0
 10
6.476411
 20
4.579588
 30
0.0
 10
6.510417
 20
4.583333
 30
0.0
 10
7.031250
 20
4.583333
 30
0.0
 10
7.059629
 20
4.580735
 30
0.0
 10
7.087064
 20
4.573025
 30
0.0
 10
7.112642
 20
4.560460
 30
0.0
 10
7.135513
 20
4.543459
 30
0.0
 10
7.154915
 20
4.522587
 30
0.0
 10
7.170204
 20
4.498538
 30
0.0
 10
7.180871
 20
4.472112
 30
0.0
 10
7.186561
 20
4.444189
 30
0.0
 10
7.187500
 20
4.427083
 30
0.0
 10
7.187500
 20
3.385417
 30
0.0
 10
7.186980
 20
3.379734
 30
0.0
 10
7.187085
 20
3.374029
 30
0.0
 10
7.185684
 20
3.365574
 30
0.0
 10
7.184903
 20
3.357038
 30
0.0
 10
7.183359
 20
3.351545
 30
0.0
 10
7.182426
 20
3.345916
 30
0.0
 10
7.179511
 20
3.337855
 30
0.0
 10
7.177192
 20
3.329603
 30
0.0
 10
7.174677
 20
3.324482
 30
0.0
 10
7.172737
 20
3.319116
 30
0.0
 10
7.168407
 20
3.311718
 30
0.0
 10
7.164628
 20
3.304025
 30
0.0
 10
7.161224
 20
3.299446
 30
0.0
 10
7.158342
 20
3.294521
 30
0.0
 10
7.152741
 20
3.288033
 30
0.0
 10
7.147627
 20
3.281154
 30
0.0
 10
7.143448
 20
3.277269
 30
0.0
 10
7.139719
 20
3.272950
 30
0.0
 10
7.133033
 20
3.267588
 30
0.0
 10
7.126755
 20
3.261752
 30
0.0
 10
7.121940
 20
3.258690
 30
0.0
 10
7.117489
 20
3.255120
 30
0.0
 10
7.109939
 20
3.251061
 30
0.0
 10
7.102706
 20
3.246463
 30
0.0
 10
7.097415
 20
3.244327
 30
0.0
 10
7.092389
 20
3.241625
 30
0.0
 10
7.084228
 20
3.239004
 30
0.0
 10
7.076280
 20
3.235796
 30
0.0
 10
7.070689
 20
3.234656
 30
0.0
 10
7.065256
 20
3.232912
 30
0.0
 10
7.058448
 20
3.232162
 30
0.0
 10
7.048357
 20
3.230106
 30
0.0
 10
7.038060
 20
3.229916
 30
0.0
 10
7.031250
 20
3.229167
 30
0.0
 10
6.666667
 20
3.229167
 30
0.0
 10
6.666667
 20
2.500000
 30
0.0
 10
6.875000
 20
2.500000
 30
0.0
 10
6.875000
 20
2.864583
 30
0.0
 10
6.877599
 20
2.892962
 30
0.0
 10
6.885309
 20
2.920397
 30
0.0
 10
6.897873
 20
2.945975
 30
0.0
 10
6.914874
 20
2.968846
 30
0.0
 10
6.935746
 20
2.988248
 30
0.0
 10
6.959795
 20
3.003537
 30
0.0
 10
6.986221
 20
3.014204
 30
0.0
 10
7.014144
 20
3.019894
 30
0.0
 10
7.042637
 20
3.020418
 30
0.0
 10
7.070751
 20
3.015758
 30
0.0
 10
7.097551
 20
3.006069
 30
0.0
 10
7.122146
 20
2.991674
 30
0.0
 10
7.143716
 20
2.973052
 30
0.0
 10
7.161546
 20
2.950821
 30
0.0
 10
7.175042
 20
2.925722
 30
0.0
 10
7.183755
 20
2.898589
 30
0.0
 10
7.187500
 20
2.864583
 30
0.0
 10
7.187500
 20
2.343750
 30
0.0
 10
7.184901
 20
2.315371
 30
0.0
 10
7.177191
 20
2.287936
 30
0.0
 10
7.164627
 20
2.262358
 30
0.0
 10
7.147626
 20
2.239487
 30
0.0
 10
7.126754
 20
2.220085
 30
0.0
 10
7.102705
 20
2.204796
 30
0.0
 10
7.076279
 20
2.194129
 30
0.0
 10
7.048356
 20
2.188439
 30
0.0
 10
7.031250
 20
2.187500
 30
0.0
 10
6.510417
 20
2.187500
 30
0.0
 10
6.482038
 20
2.190099
 30
0.0
 10
6.454603
 20
2.197809
 30
0.0
 10
6.429025
 20
2.210373
 30
0.0
 10
6.406154
 20
2.227374
 30
0.0
 10
6.386752
 20
2.248246
 30
0.0
 10
6.371463
 20
2.272295
 30
0.0
 10
6.360796
 20
2.298721
 30
0.0
 10
6.355106
 20
2.326644
 30
0.0
 10
6.354167
 20
2.343750
 30
0.0
 10
6.354167
 20
2.708333
 30
0.0
 10
5.989583
 20
2.708333
 30
0.0
 10
5.961205
 20
2.710932
 30
0.0
 10
5.933770
 20
2.718642
 30
0.0
 10
5.908192
 20
2.731206
 30
0.0
 10
5.885321
 20
2.748207
 30
0.0
 10
5.865918
 20
2.769079
 30
0.0
 10
5.850629
 20
2.793128
 30
0.0
 10
5.839962
 20
2.819554
 30
0.0
 10
5.834272
 20
2.847478
 30
0.0
 10
5.833749
 20
2.875971
 30
0.0
 10
5.838409
 20
2.904084
 30
0.0
 10
5.848097
 20
2.930884
 30
0.0
 10
5.862492
 20
2.955479
 30
0.0
 10
5.881115
 20
2.977050
 30
0.0
 10
5.903345
 20
2.994880
 30
0.0
 10
5.928445
 20
3.008375
 30
0.0
 10
5.955578
 20
3.017088
 30
0.0
 10
5.989583
 20
3.020833
 30
0.0
 10
6.354167
 20
3.020833
 30
0.0
 10
6.354167
 20
3.229167
 30
0.0
 10
5.625000
 20
3.229167
 30
0.0
 10
5.625000
 20
2.500000
 30
0.0
 10
5.989583
 20
2.500000
 30
0.0
 10
6.017962
 20
2.497401
 30
0.0
 10
6.045397
 20
2.489691
 30
0.0
 10
6.070975
 20
2.477127
 30
0.0
 10
6.093846
 20
2.460126
 30
0.0
 10
6.113248
 20
2.439254
 30
0.0
 10
6.128537
 20
2.415205
 30
0.0
 10
6.139204
 20
2.388779
 30
0.0
 10
6.144894
 20
2.360856
 30
0.0
 10
6.145418
 20
2.332363
 30
0.0
 10
6.140758
 20
2.304249
 30
0.0
 10
6.131069
 20
2.277449
 30
0.0
 10
6.116674
 20
2.252854
 30
0.0
 10
6.098052
 20
2.231284
 30
0.0
 10
6.075821
 20
2.213454
 30
0.0
 10
6.050722
 20
2.199958
 30
0.0
 10
6.023589
 20
2.191245
 30
0.0
 10
5.989583
 20
2.187500
 30
0.0
 10
5.468750
 20
2.187500
 30
0.0
 10
5.440371
 20
2.190099
 30
0.0
 10
5.412936
 20
2.197809
 30
0.0
 10
5.387358
 20
2.210373
 30
0.0
 10
5.364487
 20
2.227374
 30
0.0
 10
5.345085
 20
2.248246
 30
0.0
 10
5.329796
 20
2.272295
 30
0.0
 10
5.319129
 20
2.298721
 30
0.0
 10
5.313439
 20
2.326644
 30
0.0
 10
5.312500
 20
2.343750
 30
0.0
 10
5.312500
 20
3.385417
 30
0.0
 10
5.315099
 20
3.413795
 30
0.0
 10
5.322809
 20
3.441230
 30
0.0
 10
5.335373
 20
3.466808
 30
0.0
 10
5.352374
 20
3.489679
 30
0.0
 10
5.373246
 20
3.509082
 30
0.0
 10
5.397295
 20
3.524371
 30
0.0
 10
5.423721
 20
3.535038
 30
0.0
 10
5.451644
 20
3.540728
 30
0.0
 10
5.468750
 20
3.541667
 30
0.0
 10
5.833333
 20
3.541667
 30
0.0
 10
5.833333
 20
4.270833
 30
0.0
 10
5.625000
 20
4.270833
 30
0.0
 10
5.625000
 20
3.906250
 30
0.0
 10
5.622401
 20
3.877871
 30
0.0
 10
5.614691
 20
3.850436
 30
0.0
 10
5.602127
 20
3.824858
 30
0.0
 10
5.585126
 20
3.801987
 30
0.0
 10
5.564254
 20
3.782585
 30
0.0
 10
5.540205
 20
3.767296
 30
0.0
 10
5.513779
 20
3.756629
 30
0.0
 10
5.485856
 20
3.750939
 30
0.0
 10
5.457363
 20
3.750415
 30
0.0
 10
5.429249
 20
3.755075
 30
0.0
 10
5.402449
 20
3.764764
 30
0.0
 10
5.377854
 20
3.779159
 30
0.0
 10
5.356284
 20
3.797781
 30
0.0
 10
5.338454
 20
3.820012
 30
0.0
 10
5.324958
 20
3.845111
 30
0.0
 10
5.316245
 20
3.872244
 30
0.0
 10
5.312500
 20
3.906250
 30
0.0
 10
5.312500
 20
4.270833
 30
0.0
 10
5.104167
 20
4.270833
 30
0.0
 10
5.104167
 20
2.343750
 30
0.0
 10
5.101568
 20
2.315371
 30
0.0
 10
5.093858
 20
2.287936
 30
0.0
 10
5.081294
 20
2.262358
 30
0.0
 10
5.064293
 20
2.239487
 30
0.0
 10
5.043421
 20
2.220085
 30
0.0
 10
5.019372
 20
2.204796
 30
0.0
 10
4.992946
 20
2.194129
 30
0.0
 10
4.965022
 20
2.188439
 30
0.0
 10
4.936529
 20
2.187915
 30
0.0
 10
4.908416
 20
2.192575
 30
0.0
 10
4.881616
 20
2.202264
 30
0.0
 10
4.857021
 20
2.216659
 30
0.0
 10
4.835450
 20
2.235281
 30
0.0
 10
4.817620
 20
2.257512
 30
0.0
 10
4.804125
 20
2.282611
 30
0.0
 10
4.795412
 20
2.309744
 30
0.0
 10
4.791667
 20
2.343750
 30
0.0
 10
4.791667
 20
4.270833
 30
0.0
 10
4.583333
 20
4.270833
 30
0.0
 10
4.583333
 20
2.864583
 30
0.0
 10
4.582812
 20
2.858901
 30
0.0
 10
4.582918
 20
2.853196
 30
0.0
 10
4.581516
 20
2.844741
 30
0.0
 10
4.580735
 20
2.836205
 30
0.0
 10
4.579191
 20
2.830711
 30
0.0
 10
4.578258
 20
2.825082
 30
0.0
 10
4.575344
 20
2.817022
 30
0.0
 10
4.573025
 20
2.808770
 30
0.0
 10
4.570509
 20
2.803648
 30
0.0
 10
4.568569
 20
2.798282
 30
0.0
 10
4.564239
 20
2.790885
 30
0.0
 10
4.560460
 20
2.783192
 30
0.0
 10
4.557057
 20
2.778613
 30
0.0
 10
4.554174
 20
2.773688
 30
0.0
 10
4.548573
 20
2.767200
 30
0.0
 10
4.543459
 20
2.760321
 30
0.0
 10
4.539280
 20
2.756436
 30
0.0
 10
4.535552
 20
2.752117
 30
0.0
 10
4.528865
 20
2.746754
 30
0.0
 10
4.522587
 20
2.740918
 30
0.0
 10
4.517772
 20
2.737857
 30
0.0
 10
4.513321
 20
2.734287
 30
0.0
 10
4.505771
 20
2.730228
 30
0.0
 10
4.498538
 20
2.725629
 30
0.0
 10
4.493247
 20
2.723494
 30
0.0
 10
4.488222
 20
2.720791
 30
0.0
 10
4.480061
 20
2.718171
 30
0.0
 10
4.472112
 20
2.714962
 30
0.0
 10
4.466521
 20
2.713823
 30
0.0
 10
4.461089
 20
2.712079
 30
0.0
 10
4.454280
 20
2.711329
 30
0.0
 10
4.444189
 20
2.709272
 30
0.0
 10
4.433892
 20
2.709083
 30
0.0
 10
4.427083
 20
2.708333
 30
0.0
 10
3.906250
 20
2.708333
 30
0.0
 10
3.877871
 20
2.710932
 30
0.0
 10
3.850436
 20
2.718642
 30
0.0
 10
3.824858
 20
2.731206
 30
0.0
 10
3.801988
 20
2.748207
 30
0.0
 10
3.782585
 20
2.769079
 30
0.0
 10
3.767296
 20
2.793128
 30
0.0
 10
3.756629
 20
2.819554
 30
0.0
 10
3.750939
 20
2.847478
 30
0.0
 10
3.750415
 20
2.875971
 30
0.0
 10
3.755075
 20
2.904084
 30
0.0
 10
3.764764
 20
2.930884
 30
0.0
 10
3.779159
 20
2.955479
 30
0.0
 10
3.797781
 20
2.977050
 30
0.0
 10
3.820012
 20
2.994880
 30
0.0
 10
3.845111
 20
3.008375
 30
0.0
 10
3.872244
 20
3.017088
 30
0.0
 10
3.906250
 20
3.020833
 30
0.0
 10
4.270833
 20
3.020833
 30
0.0
 10
4.270833
 20
3.229167
 30
0.0
 10
3.906250
 20
3.229167
 30
0.0
 10
3.877871
 20
3.231765
 30
0.0
 10
3.850436
 20
3.239475
 30
0.0
 10
3.824858
 20
3.252040
 30
0.0
 10
3.801988
 20
3.269041
 30
0.0
 10
3.782585
 20
3.289913
 30
0.0
 10
3.767296
 20
3.313962
 30
0.0
 10
3.756629
 20
3.340388
 30
0.0
 10
3.750939
 20
3.368311
 30
0.0
 10
3.750415
 20
3.396804
 30
0.0
 10
3.755075
 20
3.424918
 30
0.0
 10
3.764764
 20
3.451718
 30
0.0
 10
3.779159
 20
3.476312
 30
0.0
 10
3.797781
 20
3.497883
 30
0.0
 10
3.820012
 20
3.515713
 30
0.0
 10
3.845111
 20
3.529209
 30
0.0
 10
3.872244
 20
3.537921
 30
0.0
 10
3.906250
 20
3.541667
 30
0.0
 10
4.270833
 20
3.541667
 30
0.0
 10
4.270833
 20
3.750000
 30
0.0
 10
3.541667
 20
3.750000
 30
0.0
 10
3.541667
 20
2.500000
 30
0.0
 10
4.427083
 20
2.500000
 30
0.0
 10
4.455462
 20
2.497401
 30
0.0
 10
4.482897
 20
2.489691
 30
0.0
 10
4.508475
 20
2.477127
 30
0.0
 10
4.531346
 20
2.460126
 30
0.0
 10
4.550748
 20
2.439254
 30
0.0
 10
4.566037
 20
2.415205
 30
0.0
 10
4.576704
 20
2.388779
 30
0.0
 10
4.582394
 20
2.360856
 30
0.0
 10
4.582918
 20
2.332363
 30
0.0
 10
4.578258
 20
2.304249
 30
0.0
 10
4.568569
 20
2.277449
 30
0.0
 10
4.554174
 20
2.252854
 30
0.0
 10
4.535552
 20
2.231284
 30
0.0
 10
4.513321
 20
2.213454
 30
0.0
 10
4.488222
 20
2.199958
 30
0.0
 10
4.461089
 20
2.191245
 30
0.0
 10
4.427083
 20
2.187500
 30
0.0
 10
2.864583
 20
2.187500
 30
0.0
 10
2.836205
 20
2.190099
 30
0.0
 10
2.808770
 20
2.197809
 30
0.0
 10
2.783192
 20
2.210373
 30
0.0
 10
2.760321
 20
2.227374
 30
0.0
 10
2.740918
 20
2.248246
 30
0.0
 10
2.725629
 20
2.272295
 30
0.0
 10
2.714962
 20
2.298721
 30
0.0
 10
2.709273
 20
2.326644
 30
0.0
 10
2.708749
 20
2.355137
 30
0.0
 10
2.713409
 20
2.383251
 30
0.0
 10
2.723097
 20
2.410051
 30
0.0
 10
2.737492
 20
2.434646
 30
0.0
 10
2.756115
 20
2.456216
 30
0.0
 10
2.778345
 20
2.474046
 30
0.0
 10
2.803445
 20
2.487542
 30
0.0
 10
2.830578
 20
2.496255
 30
0.0
 10
2.864583
 20
2.500000
 30
0.0
 10
3.229167
 20
2.500000
 30
0.0
 10
3.229167
 20
3.229167
 30
0.0
 10
3.020833
 20
3.229167
 30
0.0
 10
3.020833
 20
2.864583
 30
0.0
 10
3.018235
 20
2.836205
 30
0.0
 10
3.010525
 20
2.808770
 30
0.0
 10
2.997960
 20
2.783192
 30
0.0
 10
2.980959
 20
2.760321
 30
0.0
 10
2.960087
 20
2.740918
 30
0.0
 10
2.936038
 20
2.725629
 30
0.0
 10
2.909612
 20
2.714962
 30
0.0
 10
2.881689
 20
2.709272
 30
0.0
 10
2.853196
 20
2.708749
 30
0.0
 10
2.825082
 20
2.713409
 30
0.0
 10
2.798282
 20
2.723097
 30
0.0
 10
2.773688
 20
2.737492
 30
0.0
 10
2.752117
 20
2.756115
 30
0.0
 10
2.734287
 20
2.778345
 30
0.0
 10
2.720791
 20
2.803445
 30
0.0
 10
2.712079
 20
2.830578
 30
0.0
 10
2.708333
 20
2.864583
 30
0.0
 10
2.708333
 20
3.229167
 30
0.0
 10
2.500000
 20
3.229167
 30
0.0
 10
2.500000
 20
2.343750
 30
0.0
 10
2.497401
 20
2.315371
 30
0.0
 10
2.489691
 20
2.287936
 30
0.0
 10
2.477127
 20
2.262358
 30
0.0
 10
2.460126
 20
2.239487
 30
0.0
 10
2.439254
 20
2.220085
 30
0.0
 10
2.415205
 20
2.204796
 30
0.0
 10
2.388779
 20
2.194129
 30
0.0
 10
2.360856
 20
2.188439
 30
0.0
 10
2.332363
 20
2.187915
 30
0.0
 10
2.304249
 20
2.192575
 30
0.0
 10
2.277449
 20
2.202264
 30
0.0
 10
2.252854
 20
2.216659
 30
0.0
 10
2.231284
 20
2.235281
 30
0.0
 10
2.213454
 20
2.257512
 30
0.0
 10
2.199958
 20
2.282611
 30
0.0
 10
2.191245
 20
2.309744
 30
0.0
 10
2.187500
 20
2.343750
 30
0.0
 10
2.187500
 20
4.427083
 30
0.0
 10
2.190099
 20
4.455462
 30
0.0
 10
2.197809
 20
4.482897
 30
0.0
 10
2.210373
 20
4.508475
 30
0.0
 10
2.227374
 20
4.531346
 30
0.0
 10
2.248246
 20
4.550748
 30
0.0
 10
2.272295
 20
4.566037
 30
0.0
 10
2.298721
 20
4.576704
 30
0.0
 10
2.326644
 20
4.582394
 30
0.0
 10
2.355137
 20
4.582918
 30
0.0
 10
2.383251
 20
4.578258
 30
0.0
 10
2.410051
 20
4.568569
 30
0.0
 10
2.434646
 20
4.554174
 30
0.0
 10
2.456216
 20
4.535552
 30
0.0
 10
2.474046
 20
4.513321
 30
0.0
 10
2.487542
 20
4.488222
 30
0.0
 10
2.496255
 20
4.461089
 30
0.0
 10
2.500000
 20
4.427083
 30
0.0
 10
2.500000
 20
4.062500
 30
0.0
 10
2.864583
 20
4.062500
 30
0.0
 10
2.892962
 20
4.059901
 30
0.0
 10
2.920397
 20
4.052191
 30
0.0
 10
2.945975
 20
4.039627
 30
0.0
 10
2.968846
 20
4.022626
 30
0.0
 10
2.988248
 20
4.001754
 30
0.0
 10
3.003537
 20
3.977705
 30
0.0
 10
3.014204
 20
3.951279
 30
0.0
 10
3.019894
 20
3.923356
 30
0.0
 10
3.020418
 20
3.894863
 30
0.0
 10
3.015758
 20
3.866749
 30
0.0
 10
3.006069
 20
3.839949
 30
0.0
 10
2.991674
 20
3.815354
 30
0.0
 10
2.973052
 20
3.793784
 30
0.0
 10
2.950821
 20
3.775954
 30
0.0
 10
2.925722
 20
3.762458
 30
0.0
 10
2.898589
 20
3.753745
 30
0.0
 10
2.864583
 20
3.750000
 30
0.0
 10
2.500000
 20
3.750000
 30
0.0
 10
2.500000
 20
3.541667
 30
0.0
 10
3.229167
 20
3.541667
 30
0.0
 10
3.229167
 20
3.906250
 30
0.0
 10
3.231765
 20
3.934629
 30
0.0
 10
3.239475
 20
3.962064
 30
0.0
 10
3.252040
 20
3.987642
 30
0.0
 10
3.269041
 20
4.010513
 30
0.0
 10
3.289913
 20
4.029915
 30
0.0
 10
3.313962
 20
4.045204
 30
0.0
 10
3.340388
 20
4.055871
 30
0.0
 10
3.368311
 20
4.061561
 30
0.0
 10
3.385417
 20
4.062500
 30
0.0
 10
4.270833
 20
4.062500
 30
0.0
 10
4.270833
 20
4.791667
 30
0.0
 10
4.062500
 20
4.791667
 30
0.0
 10
4.062500
 20
4.427083
 30
0.0
 10
4.061979
 20
4.421401
 30
0.0
 10
4.062084
 20
4.415696
 30
0.0
 10
4.060683
 20
4.407241
 30
0.0
 10
4.059902
 20
4.398705
 30
0.0
 10
4.058358
 20
4.393211
 30
0.0
 10
4.057424
 20
4.387582
 30
0.0
 10
4.054510
 20
4.379522
 30
0.0
 10
4.052191
 20
4.371270
 30
0.0
 10
4.049676
 20
4.366148
 30
0.0
 10
4.047736
 20
4.360782
 30
0.0
 10
4.043406
 20
4.353385
 30
0.0
 10
4.039627
 20
4.345692
 30
0.0
 10
4.036223
 20
4.341113
 30
0.0
 10
4.033341
 20
4.336188
 30
0.0
 10
4.027739
 20
4.329700
 30
0.0
 10
4.022626
 20
4.322821
 30
0.0
 10
4.018447
 20
4.318936
 30
0.0
 10
4.014718
 20
4.314617
 30
0.0
 10
4.008032
 20
4.309254
 30
0.0
 10
4.001754
 20
4.303418
 30
0.0
 10
3.996939
 20
4.300357
 30
0.0
 10
3.992488
 20
4.296787
 30
0.0
 10
3.984938
 20
4.292728
 30
0.0
 10
3.977705
 20
4.288129
 30
0.0
 10
3.972414
 20
4.285994
 30
0.0
 10
3.967388
 20
4.283291
 30
0.0
 10
3.959227
 20
4.280671
 30
0.0
 10
3.951279
 20
4.277462
 30
0.0
 10
3.945688
 20
4.276323
 30
0.0
 10
3.940255
 20
4.274579
 30
0.0
 10
3.933447
 20
4.273829
 30
0.0
 10
3.923356
 20
4.271772
 30
0.0
 10
3.913059
 20
4.271583
 30
0.0
 10
3.906250
 20
4.270833
 30
0.0
 10
3.385417
 20
4.270833
 30
0.0
 10
3.357038
 20
4.273432
 30
0.0
 10
3.329603
 20
4.281142
 30
0.0
 10
3.304025
 20
4.293706
 30
0.0
 10
3.281154
 20
4.310707
 30
0.0
 10
3.261752
 20
4.331579
 30
0.0
 10
3.246463
 20
4.355628
 30
0.0
 10
3.235796
 20
4.382054
 30
0.0
 10
3.230106
 20
4.409978
 30
0.0
 10
3.229167
 20
4.427083
 30
0.0
 10
3.229167
 20
4.791667
 30
0.0
 10
3.020833
 20
4.791667
 30
0.0
 10
3.020833
 20
4.427083
 30
0.0
 10
3.018235
 20
4.398705
 30
0.0
 10
3.010525
 20
4.371270
 30
0.0
 10
2.997960
 20
4.345692
 30
0.0
 10
2.980959
 20
4.322821
 30
0.0
 10
2.960087
 20
4.303418
 30
0.0
 10
2.936038
 20
4.288129
 30
0.0
 10
2.909612
 20
4.277462
 30
0.0
 10
2.881689
 20
4.271773
 30
0.0
 10
2.853196
 20
4.271249
 30
0.0
 10
2.825082
 20
4.275909
 30
0.0
 10
2.798282
 20
4.285597
 30
0.0
 10
2.773688
 20
4.299992
 30
0.0
 10
2.752117
 20
4.318615
 30
0.0
 10
2.734287
 20
4.340845
 30
0.0
 10
2.720791
 20
4.365945
 30
0.0
 10
2.712079
 20
4.393078
 30
0.0
 10
2.708333
 20
4.427083
 30
0.0
 10
2.708333
 20
4.791667
 30
0.0
 10
2.343750
 20
4.791667
 30
0.0
 10
2.315371
 20
4.794265
 30
0.0
 10
2.287936
 20
4.801975
 30
0.0
 10
2.262358
 20
4.814540
 30
0.0
 10
2.239488
 20
4.831541
 30
0.0
 10
2.220085
 20
4.852413
 30
0.0
 10
2.204796
 20
4.876462
 30
0.0
 10
2.194129
 20
4.902888
 30
0.0
 10
2.188439
 20
4.930811
 30
0.0
 10
2.187500
 20
4.947917
 30
0.0
 10
2.187500
 20
5.468750
 30
0.0
 10
2.190099
 20
5.497129
 30
0.0
 10
2.197809
 20
5.524564
 30
0.0
 10
2.210373
 20
5.550142
 30
0.0
 10
2.227374
 20
5.573012
 30
0.0
 10
2.248246
 20
5.592415
 30
0.0
 10
2.272295
 20
5.607704
 30
0.0
 10
2.298721
 20
5.618371
 30
0.0
 10
2.326644
 20
5.624061
 30
0.0
 10
2.355137
 20
5.624585
 30
0.0
 10
2.383251
 20
5.619925
 30
0.0
 10
2.410051
 20
5.610236
 30
0.0
 10
2.434646
 20
5.595841
 30
0.0
 10
2.456216
 20
5.577219
 30
0.0
 10
2.474046
 20
5.554988
 30
0.0
 10
2.487542
 20
5.529889
 30
0.0
 10
2.496255
 20
5.502756
 30
0.0
 10
2.500000
 20
5.468750
 30
0.0
 10
2.500000
 20
5.104167
 30
0.0
 10
3.229167
 20
5.104167
 30
0.0
 10
3.229167
 20
5.468750
 30
0.0
 10
3.231765
 20
5.497129
 30
0.0
 10
3.239475
 20
5.524564
 30
0.0
 10
3.252040
 20
5.550142
 30
0.0
 10
3.269041
 20
5.573012
 30
0.0
 10
3.289913
 20
5.592415
 30
0.0
 10
3.313962
 20
5.607704
 30
0.0
 10
3.340388
 20
5.618371
 30
0.0
 10
3.368311
 20
5.624061
 30
0.0
 10
3.396804
 20
5.624585
 30
0.0
 10
3.424918
 20
5.619925
 30
0.0
 10
3.451718
 20
5.610236
 30
0.0
 10
3.476312
 20
5.595841
 30
0.0
 10
3.497883
 20
5.577219
 30
0.0
 10
3.515713
 20
5.554988
 30
0.0
 10
3.529209
 20
5.529889
 30
0.0
 10
3.537921
 20
5.502756
 30
0.0
 10
3.541667
 20
5.468750
 30
0.0
 10
3.541667
 20
4.583333
 30
0.0
 10
3.750000
 20
4.583333
 30
0.0
 10
3.750000
 20
5.833333
 30
0.0
 10
3.020833
 20
5.833333
 30
0.0
 10
3.020833
 20
5.468750
 30
0.0
 10
3.018235
 20
5.440371
 30
0.0
 10
3.010525
 20
5.412936
 30
0.0
 10
2.997960
 20
5.387358
 30
0.0
 10
2.980959
 20
5.364488
 30
0.0
 10
2.960087
 20
5.345085
 30
0.0
 10
2.936038
 20
5.329796
 30
0.0
 10
2.909612
 20
5.319129
 30
0.0
 10
2.881689
 20
5.313439
 30
0.0
 10
2.853196
 20
5.312915
 30
0.0
 10
2.825082
 20
5.317575
 30
0.0
 10
2.798282
 20
5.327264
 30
0.0
 10
2.773688
 20
5.341659
 30
0.0
 10
2.752117
 20
5.360281
 30
0.0
 10
2.734287
 20
5.382512
 30
0.0
 10
2.720791
 20
5.407611
 30
0.0
 10
2.712079
 20
5.434744
 30
0.0
 10
2.708333
 20
5.468750
 30
0.0
 10
2.708333
 20
5.833333
 30
0.0
 10
2.343750
 20
5.833333
 30
0.0
 10
2.315371
 20
5.835932
 30
0.0
 10
2.287936
 20
5.843642
 30
0.0
 10
2.262358
 20
5.856206
 30
0.0
 10
2.239488
 20
5.873207
 30
0.0
 10
2.220085
 20
5.894079
 30
0.0
 10
2.204796
 20
5.918128
 30
0.0
 10
2.194129
 20
5.944554
 30
0.0
 10
2.188439
 20
5.972478
 30
0.0
 10
2.187915
 20
6.000971
 30
0.0
 10
2.192575
 20
6.029084
 30
0.0
 10
2.202264
 20
6.055884
 30
0.0
 10
2.216659
 20
6.080479
 30
0.0
 10
2.235281
 20
6.102050
 30
0.0
 10
2.257512
 20
6.119880
 30
0.0
 10
2.282611
 20
6.133375
 30
0.0
 10
2.309744
 20
6.142088
 30
0.0
 10
2.343750
 20
6.145833
 30
0.0
 10
3.229167
 20
6.145833
 30
0.0
 10
3.229167
 20
6.354167
 30
0.0
 10
2.343750
 20
6.354167
 30
0.0
 10
2.315371
 20
6.356765
 30
0.0
 10
2.287936
 20
6.364475
 30
0.0
 10
2.262358
 20
6.377040
 30
0.0
 10
2.239488
 20
6.394041
 30
0.0
 10
2.220085
 20
6.414913
 30
0.0
 10
2.204796
 20
6.438962
 30
0.0
 10
2.194129
 20
6.465388
 30
0.0
 10
2.188439
 20
6.493311
 30
0.0
 10
2.187915
 20
6.521804
 30
0.0
 10
2.192575
 20
6.549918
 30
0.0
 10
2.202264
 20
6.576718
 30
0.0
 10
2.216659
 20
6.601312
 30
0.0
 10
2.235281
 20
6.622883
 30
0.0
 10
2.257512
 20
6.640713
 30
0.0
 10
2.282611
 20
6.654209
 30
0.0
 10
2.309744
 20
6.662921
 30
0.0
 10
2.343750
 20
6.666667
 30
0.0
 10
2.708333
 20
6.666667
 30
0.0
 10
2.708333
 20
6.875000
 30
0.0
 10
2.343750
 20
6.875000
 30
0.0
 10
2.315371
 20
6.877599
 30
0.0
 10
2.287936
 20
6.885309
 30
0.0
 10
2.262358
 20
6.897873
 30
0.0
 10
2.239488
 20
6.914874
 30
0.0
 10
2.220085
 20
6.935746
 30
0.0
 10
2.204796
 20
6.959795
 30
0.0
 10
2.194129
 20
6.986221
 30
0.0
 10
2.188439
 20
7.014144
 30
0.0
 10
2.187915
 20
7.042637
 30
0.0
 10
2.192575
 20
7.070751
 30
0.0
 10
2.202264
 20
7.097551
 30
0.0
 10
2.216659
 20
7.122146
 30
0.0
 10
2.235281
 20
7.143716
 30
0.0
 10
2.257512
 20
7.161546
 30
0.0
 10
2.282611
 20
7.175042
 30
0.0
 10
2.309744
 20
7.183755
 30
0.0
 10
2.343750
 20
7.187500
 30
0.0
 10
2.864583
 20
7.187500
 30
0.0
  0
ENDSEC
  0
SECTION
  2
OBJECTS
  0
DICTIONARY
  5
C
330
0
100
AcDbDictionary
  3
ACAD_GROUP
350
D
  3
ACAD_MLINESTYLE
350
17
  0
DICTIONARY
  5
D
330
C
100
AcDbDictionary
  0
DICTIONARY
  5
1A
330
C
100
AcDbDictionary
  0
DICTIONARY
  5
17
330
C
100
AcDbDictionary
  3
STANDARD
350
18
  0
DICTIONARY
  5
19
330
C
100
AcDbDictionary
  0
ENDSEC
  0
EOF
