  0
SECTION
  2
HEADER
  9
$ACADVER
  1
AC1014
  9
$HANDSEED
  5
FFFF
  9
$INSUNITS
 70
     1
  9
$MEASUREMENT
 70
     1
  0
ENDSEC
  0
SECTION
  2
TABLES
  0
TABLE
  2
VPORT
  5
8
330
0
100
AcDbSymbolTable
 70
     4
  0
VPORT
  5
2E
330
8
100
AcDbSymbolTableRecord
100
AcDbViewportTableRecord
  2
*ACTIVE
 70
     0
 10
0.0
 20
0.0
 11
1.0
 21
1.0
 12
210.0
 22
148.5
 13
0.0
 23
0.0
 14
10.0
 24
10.0
 15
10.0
 25
10.0
 16
0.0
 26
0.0
 36
1.0
 17
0.0
 27
0.0
 37
0.0
 40
341.0
 41
1.24
 42
50.0
 43
0.0
 44
0.0
 50
0.0
 51
0.0
 71
     0
 72
   100
 73
     1
 74
     3
 75
     0
 76
     0
 77
     0
 78
     0
  0
ENDTAB
  0
TABLE
  2
LTYPE
  5
5
330
0
100
AcDbSymbolTable
 70
     1
  0
LTYPE
  5
14
330
5
100
AcDbSymbolTableRecord
100
AcDbLinetypeTableRecord
  2
BYBLOCK
 70
     0
  3

 72
    65
 73
     0
 40
0.0
  0
LTYPE
  5
15
330
5
100
AcDbSymbolTableRecord
100
AcDbLinetypeTableRecord
  2
BYLAYER
 70
     0
  3

 72
    65
 73
     0
 40
0.0
  0
LTYPE
  5
16
330
5
100
AcDbSymbolTableRecord
100
AcDbLinetypeTableRecord
  2
CONTINUOUS
 70
     0
  3
Solid line
 72
    65
 73
     0
 40
0.0
  0
ENDTAB
  0
TABLE
  2
LAYER
  5
2
100
AcDbSymbolTable
 70
1
  0
LAYER
  5
50
100
AcDbSymbolTableRecord
100
AcDbLayerTableRecord
  2
0
 70
0
  6
CONTINUOUS
  0
ENDTAB
  0
TABLE
  2
STYLE
  5
3
330
0
100
AcDbSymbolTable
 70
     1
  0
STYLE
  5
11
330
3
100
AcDbSymbolTableRecord
100
AcDbTextStyleTableRecord
  2
STANDARD
 70
     0
 40
0.0
 41
1.0
 50
0.0
 71
     0
 42
2.5
  3
txt
  4

  0
ENDTAB
  0
TABLE
  2
VIEW
  5
6
330
0
100
AcDbSymbolTable
 70
     0
  0
ENDTAB
  0
TABLE
  2
UCS
  5
7
330
0
100
AcDbSymbolTable
 70
     0
  0
ENDTAB
  0
TABLE
  2
APPID
  5
9
330
0
100
AcDbSymbolTable
 70
     2
  0
APPID
  5
12
330
9
100
AcDbSymbolTableRecord
100
AcDbRegAppTableRecord
  2
ACAD
 70
     0
  0
ENDTAB
  0
TABLE
  2
DIMSTYLE
  5
A
330
0
100
AcDbSymbolTable
 70
     1
  0
DIMSTYLE
105
27
330
A
100
AcDbSymbolTableRecord
100
AcDbDimStyleTableRecord
  2
ISO-25
 70
     0
  3

  4

  5

  6

  7

 40
1.0
 41
2.5
 42
0.625
 43
3.75
 44
1.25
 45
0.0
 46
0.0
 47
0.0
 48
0.0
140
2.5
141
2.5
142
0.0
143
0.03937007874016
144
1.0
145
0.0
146
1.0
147
0.625
 71
     0
 72
     0
 73
     0
 74
     0
 75
     0
 76
     0
 77
     1
 78
     8
170
     0
171
     3
172
     1
173
     0
174
     0
175
     0
176
     0
177
     0
178
     0
270
     2
271
     2
272
     2
273
     2
274
     3
340
11
275
     0
280
     0
281
     0
282
     0
283
     0
284
     8
285
     0
286
     0
287
     3
288
     0
  0
ENDTAB
  0
TABLE
  2
BLOCK_RECORD
  5
1
330
0
100
AcDbSymbolTable
 70
     1
  0
BLOCK_RECORD
  5
1F
330
1
100
AcDbSymbolTableRecord
100
AcDbBlockTableRecord
  2
*MODEL_SPACE
  0
BLOCK_RECORD
  5
1B
330
1
100
AcDbSymbolTableRecord
100
AcDbBlockTableRecord
  2
*PAPER_SPACE
  0
ENDTAB
  0
ENDSEC
  0
SECTION
  2
BLOCKS
  0
BLOCK
  5
20
330
1F
100
AcDbEntity
  8
0
100
AcDbBlockBegin
  2
*MODEL_SPACE
 70
     0
 10
0.0
 20
0.0
 30
0.0
  3
*MODEL_SPACE
  1

  0
ENDBLK
  5
21
330
1F
100
AcDbEntity
  8
0
100
AcDbBlockEnd
  0
BLOCK
  5
1C
330
1B
100
AcDbEntity
 67
     1
  8
0
100
AcDbBlockBegin
  2
*PAPER_SPACE
  1

  0
ENDBLK
  5
1D
330
1B
100
AcDbEntity
 67
     1
  8
0
100
AcDbBlockEnd
  0
ENDSEC
  0
SECTION
  2
ENTITIES
  0
LWPOLYLINE
  5
100
100
AcDbEntity
  8
0
 62
7
100
AcDbPolyline
 90
1962
 70
1
 10
3.155230
 20
8.507817
 30
0.0
 10
3.184573
 20
8.500095
 30
0.0
 10
3.212166
 20
8.487478
 30
0.0
 10
3.237201
 20
8.470335
 30
0.0
 10
3.258942
 20
8.449170
 30
0.0
 10
3.276750
 20
8.424604
 30
0.0
 10
3.290104
 20
8.397359
 30
0.0
 10
3.298610
 20
8.368234
 30
0.0
 10
3.302020
 20
8.338085
 30
0.0
 10
3.300232
 20
8.307796
 30
0.0
 10
3.293301
 20
8.278257
 30
0.0
 10
3.281428
 20
8.250334
 30
0.0
 10
3.264963
 20
8.224849
 30
0.0
 10
3.244389
 20
8.202548
 30
0.0
 10
3.220310
 20
8.184087
 30
0.0
 10
3.193433
 20
8.170007
 30
0.0
 10
3.164547
 20
8.160722
 30
0.0
 10
3.125000
 20
8.156250
 30
0.0
 10
2.260417
 20
8.156250
 30
0.0
 10
2.260417
 20
6.947917
 30
0.0
 10
2.427083
 20
6.947917
 30
0.0
 10
2.427083
 20
7.812500
 30
0.0
 10
2.429683
 20
7.842730
 30
0.0
 10
2.437405
 20
7.872073
 30
0.0
 10
2.450022
 20
7.899666
 30
0.0
 10
2.467165
 20
7.924701
 30
0.0
 10
2.488330
 20
7.946442
 30
0.0
 10
2.512896
 20
7.964250
 30
0.0
 10
2.540141
 20
7.977604
 30
0.0
 10
2.569266
 20
7.986110
 30
0.0
 10
2.604167
 20
7.989583
 30
0.0
 10
3.125000
 20
7.989583
 30
0.0
 10
3.155230
 20
7.986984
 30
0.0
 10
3.184573
 20
7.979262
 30
0.0
 10
3.212166
 20
7.966645
 30
0.0
 10
3.237201
 20
7.949502
 30
0.0
 10
3.258942
 20
7.928337
 30
0.0
 10
3.276750
 20
7.903771
 30
0.0
 10
3.290104
 20
7.876526
 30
0.0
 10
3.298610
 20
7.847401
 30
0.0
 10
3.302020
 20
7.817252
 30
0.0
 10
3.300232
 20
7.786963
 30
0.0
 10
3.293301
 20
7.757423
 30
0.0
 10
3.281428
 20
7.729501
 30
0.0
 10
3.264963
 20
7.704016
 30
0.0
 10
3.244389
 20
7.681715
 30
0.0
 10
3.220310
 20
7.663254
 30
0.0
 10
3.193433
 20
7.649174
 30
0.0
 10
3.164547
 20
7.639889
 30
0.0
 10
3.125000
 20
7.635417
 30
0.0
 10
2.781250
 20
7.635417
 30
0.0
 10
2.781250
 20
7.468750
 30
0.0
 10
3.125000
 20
7.468750
 30
0.0
 10
3.155230
 20
7.466151
 30
0.0
 10
3.184573
 20
7.458429
 30
0.0
 10
3.212166
 20
7.445811
 30
0.0
 10
3.237201
 20
7.428668
 30
0.0
 10
3.258942
 20
7.407503
 30
0.0
 10
3.276750
 20
7.382938
 30
0.0
 10
3.290104
 20
7.355692
 30
0.0
 10
3.298610
 20
7.326568
 30
0.0
 10
3.302020
 20
7.296418
 30
0.0
 10
3.300232
 20
7.266129
 30
0.0
 10
3.293301
 20
7.236590
 30
0.0
 10
3.281428
 20
7.208668
 30
0.0
 10
3.264963
 20
7.183182
 30
0.0
 10
3.244389
 20
7.160881
 30
0.0
 10
3.220310
 20
7.142420
 30
0.0
 10
3.193433
 20
7.128341
 30
0.0
 10
3.164547
 20
7.119056
 30
0.0
 10
3.125000
 20
7.114583
 30
0.0
 10
2.781250
 20
7.114583
 30
0.0
 10
2.781250
 20
6.947917
 30
0.0
 10
3.125000
 20
6.947917
 30
0.0
 10
3.155230
 20
6.945317
 30
0.0
 10
3.184573
 20
6.937595
 30
0.0
 10
3.212166
 20
6.924978
 30
0.0
 10
3.237201
 20
6.907835
 30
0.0
 10
3.258942
 20
6.886670
 30
0.0
 10
3.276750
 20
6.862104
 30
0.0
 10
3.290104
 20
6.834859
 30
0.0
 10
3.298610
 20
6.805734
 30
0.0
 10
3.302083
 20
6.770833
 30
0.0
 10
3.302083
 20
6.427083
 30
0.0
 10
3.645833
 20
6.427083
 30
0.0
 10
3.676063
 20
6.424484
 30
0.0
 10
3.705406
 20
6.416762
 30
0.0
 10
3.733000
 20
6.404145
 30
0.0
 10
3.758034
 20
6.387002
 30
0.0
 10
3.779775
 20
6.365837
 30
0.0
 10
3.797583
 20
6.341271
 30
0.0
 10
3.810937
 20
6.314026
 30
0.0
 10
3.819443
 20
6.284901
 30
0.0
 10
3.822917
 20
6.250000
 30
0.0
 10
3.822917
 20
5.906250
 30
0.0
 10
3.989583
 20
5.906250
 30
0.0
 10
3.989583
 20
6.593750
 30
0.0
 10
3.645833
 20
6.593750
 30
0.0
 10
3.615603
 20
6.596349
 30
0.0
 10
3.586261
 20
6.604071
 30
0.0
 10
3.558667
 20
6.616689
 30
0.0
 10
3.533632
 20
6.633832
 30
0.0
 10
3.511892
 20
6.654997
 30
0.0
 10
3.494083
 20
6.679562
 30
0.0
 10
3.480730
 20
6.706808
 30
0.0
 10
3.472223
 20
6.735932
 30
0.0
 10
3.468750
 20
6.770833
 30
0.0
 10
3.468750
 20
8.333333
 30
0.0
 10
3.471349
 20
8.363563
 30
0.0
 10
3.479071
 20
8.392906
 30
0.0
 10
3.491689
 20
8.420500
 30
0.0
 10
3.508832
 20
8.445534
 30
0.0
 10
3.529997
 20
8.467275
 30
0.0
 10
3.554562
 20
8.485083
 30
0.0
 10
3.581808
 20
8.498437
 30
0.0
 10
3.610932
 20
8.506943
 30
0.0
 10
3.641082
 20
8.510353
 30
0.0
 10
3.671371
 20
8.508566
 30
0.0
 10
3.700910
 20
8.501634
 30
0.0
 10
3.728832
 20
8.489761
 30
0.0
 10
3.754318
 20
8.473296
 30
0.0
 10
3.776619
 20
8.452722
 30
0.0
 10
3.795080
 20
8.428643
 30
0.0
 10
3.809159
 20
8.401766
 30
0.0
 10
3.818444
 20
8.372880
 30
0.0
 10
3.822917
 20
8.333333
 30
0.0
 10
3.822917
 20
6.947917
 30
0.0
 10
3.989583
 20
6.947917
 30
0.0
 10
3.989583
 20
8.333333
 30
0.0
 10
3.992183
 20
8.363563
 30
0.0
 10
3.999905
 20
8.392906
 30
0.0
 10
4.012522
 20
8.420500
 30
0.0
 10
4.029665
 20
8.445534
 30
0.0
 10
4.050830
 20
8.467275
 30
0.0
 10
4.075396
 20
8.485083
 30
0.0
 10
4.102641
 20
8.498437
 30
0.0
 10
4.131766
 20
8.506943
 30
0.0
 10
4.161915
 20
8.510353
 30
0.0
 10
4.192204
 20
8.508566
 30
0.0
 10
4.221743
 20
8.501634
 30
0.0
 10
4.249666
 20
8.489761
 30
0.0
 10
4.275151
 20
8.473296
 30
0.0
 10
4.297452
 20
8.452722
 30
0.0
 10
4.315913
 20
8.428643
 30
0.0
 10
4.329993
 20
8.401766
 30
0.0
 10
4.339278
 20
8.372880
 30
0.0
 10
4.343750
 20
8.333333
 30
0.0
 10
4.343750
 20
7.468750
 30
0.0
 10
4.510417
 20
7.468750
 30
0.0
 10
4.510417
 20
8.333333
 30
0.0
 10
4.513016
 20
8.363563
 30
0.0
 10
4.520738
 20
8.392906
 30
0.0
 10
4.533355
 20
8.420500
 30
0.0
 10
4.550498
 20
8.445534
 30
0.0
 10
4.571663
 20
8.467275
 30
0.0
 10
4.596229
 20
8.485083
 30
0.0
 10
4.623474
 20
8.498437
 30
0.0
 10
4.652599
 20
8.506943
 30
0.0
 10
4.682748
 20
8.510353
 30
0.0
 10
4.713037
 20
8.508566
 30
0.0
 10
4.742577
 20
8.501634
 30
0.0
 10
4.770499
 20
8.489761
 30
0.0
 10
4.795984
 20
8.473296
 30
0.0
 10
4.818285
 20
8.452722
 30
0.0
 10
4.836746
 20
8.428643
 30
0.0
 10
4.850826
 20
8.401766
 30
0.0
 10
4.860111
 20
8.372880
 30
0.0
 10
4.864583
 20
8.333333
 30
0.0
 10
4.864583
 20
7.989583
 30
0.0
 10
5.031250
 20
7.989583
 30
0.0
 10
5.031250
 20
8.333333
 30
0.0
 10
5.033849
 20
8.363563
 30
0.0
 10
5.041571
 20
8.392906
 30
0.0
 10
5.054189
 20
8.420500
 30
0.0
 10
5.071332
 20
8.445534
 30
0.0
 10
5.092497
 20
8.467275
 30
0.0
 10
5.117062
 20
8.485083
 30
0.0
 10
5.144308
 20
8.498437
 30
0.0
 10
5.173432
 20
8.506943
 30
0.0
 10
5.208333
 20
8.510417
 30
0.0
 10
5.729167
 20
8.510417
 30
0.0
 10
5.759397
 20
8.507817
 30
0.0
 10
5.788739
 20
8.500095
 30
0.0
 10
5.816333
 20
8.487478
 30
0.0
 10
5.841368
 20
8.470335
 30
0.0
 10
5.863108
 20
8.449170
 30
0.0
 10
5.880917
 20
8.424604
 30
0.0
 10
5.894270
 20
8.397359
 30
0.0
 10
5.902777
 20
8.368234
 30
0.0
 10
5.906186
 20
8.338085
 30
0.0
 10
5.904399
 20
8.307796
 30
0.0
 10
5.897467
 20
8.278257
 30
0.0
 10
5.885595
 20
8.250334
 30
0.0
 10
5.869130
 20
8.224849
 30
0.0
 10
5.848556
 20
8.202548
 30
0.0
 10
5.824477
 20
8.184087
 30
0.0
 10
5.797600
 20
8.170007
 30
0.0
 10
5.768714
 20
8.160722
 30
0.0
 10
5.729167
 20
8.156250
 30
0.0
 10
5.385417
 20
8.156250
 30
0.0
 10
5.385417
 20
7.989583
 30
0.0
 10
6.072917
 20
7.989583
 30
0.0
 10
6.072917
 20
8.333333
 30
0.0
 10
6.075516
 20
8.363563
 30
0.0
 10
6.083238
 20
8.392906
 30
0.0
 10
6.095855
 20
8.420500
 30
0.0
 10
6.112998
 20
8.445534
 30
0.0
 10
6.134163
 20
8.467275
 30
0.0
 10
6.158729
 20
8.485083
 30
0.0
 10
6.185974
 20
8.498437
 30
0.0
 10
6.215099
 20
8.506943
 30
0.0
 10
6.250000
 20
8.510417
 30
0.0
 10
7.812500
 20
8.510417
 30
0.0
 10
7.842730
 20
8.507817
 30
0.0
 10
7.872073
 20
8.500095
 30
0.0
 10
7.899666
 20
8.487478
 30
0.0
 10
7.924701
 20
8.470335
 30
0.0
 10
7.946442
 20
8.449170
 30
0.0
 10
7.964250
 20
8.424604
 30
0.0
 10
7.977604
 20
8.397359
 30
0.0
 10
7.986110
 20
8.368234
 30
0.0
 10
7.989520
 20
8.338085
 30
0.0
 10
7.987732
 20
8.307796
 30
0.0
 10
7.980801
 20
8.278257
 30
0.0
 10
7.968928
 20
8.250334
 30
0.0
 10
7.952463
 20
8.224849
 30
0.0
 10
7.931889
 20
8.202548
 30
0.0
 10
7.907810
 20
8.184087
 30
0.0
 10
7.880933
 20
8.170007
 30
0.0
 10
7.852047
 20
8.160722
 30
0.0
 10
7.812500
 20
8.156250
 30
0.0
 10
6.427083
 20
8.156250
 30
0.0
 10
6.427083
 20
7.812500
 30
0.0
 10
6.424484
 20
7.782270
 30
0.0
 10
6.416762
 20
7.752927
 30
0.0
 10
6.404145
 20
7.725334
 30
0.0
 10
6.387002
 20
7.700299
 30
0.0
 10
6.365837
 20
7.678558
 30
0.0
 10
6.341271
 20
7.660750
 30
0.0
 10
6.314026
 20
7.647396
 30
0.0
 10
6.284901
 20
7.638890
 30
0.0
 10
6.250000
 20
7.635417
 30
0.0
 10
4.864583
 20
7.635417
 30
0.0
 10
4.864583
 20
7.468750
 30
0.0
 10
6.250000
 20
7.468750
 30
0.0
 10
6.280230
 20
7.466151
 30
0.0
 10
6.309573
 20
7.458429
 30
0.0
 10
6.337166
 20
7.445811
 30
0.0
 10
6.362201
 20
7.428668
 30
0.0
 10
6.383942
 20
7.407503
 30
0.0
 10
6.401750
 20
7.382938
 30
0.0
 10
6.415104
 20
7.355692
 30
0.0
 10
6.423610
 20
7.326568
 30
0.0
 10
6.427020
 20
7.296418
 30
0.0
 10
6.425232
 20
7.266129
 30
0.0
 10
6.418301
 20
7.236590
 30
0.0
 10
6.406428
 20
7.208668
 30
0.0
 10
6.389963
 20
7.183182
 30
0.0
 10
6.369389
 20
7.160881
 30
0.0
 10
6.345310
 20
7.142420
 30
0.0
 10
6.318433
 20
7.128341
 30
0.0
 10
6.289547
 20
7.119056
 30
0.0
 10
6.250000
 20
7.114583
 30
0.0
 10
4.343750
 20
7.114583
 30
0.0
 10
4.343750
 20
6.427083
 30
0.0
 10
4.510417
 20
6.427083
 30
0.0
 10
4.510417
 20
6.770833
 30
0.0
 10
4.513016
 20
6.801063
 30
0.0
 10
4.520738
 20
6.830406
 30
0.0
 10
4.533355
 20
6.858000
 30
0.0
 10
4.550498
 20
6.883034
 30
0.0
 10
4.571663
 20
6.904775
 30
0.0
 10
4.596229
 20
6.922583
 30
0.0
 10
4.623474
 20
6.935937
 30
0.0
 10
4.652599
 20
6.944443
 30
0.0
 10
4.682748
 20
6.947853
 30
0.0
 10
4.713037
 20
6.946066
 30
0.0
 10
4.742577
 20
6.939134
 30
0.0
 10
4.770499
 20
6.927261
 30
0.0
 10
4.795984
 20
6.910796
 30
0.0
 10
4.818285
 20
6.890222
 30
0.0
 10
4.836746
 20
6.866143
 30
0.0
 10
4.850826
 20
6.839266
 30
0.0
 10
4.860111
 20
6.810380
 30
0.0
 10
4.864583
 20
6.770833
 30
0.0
 10
4.864583
 20
6.250000
 30
0.0
 10
4.861984
 20
6.219770
 30
0.0
 10
4.854262
 20
6.190427
 30
0.0
 10
4.841645
 20
6.162834
 30
0.0
 10
4.824502
 20
6.137799
 30
0.0
 10
4.803337
 20
6.116058
 30
0.0
 10
4.778771
 20
6.098250
 30
0.0
 10
4.751526
 20
6.084896
 30
0.0
 10
4.722401
 20
6.076390
 30
0.0
 10
4.687500
 20
6.072917
 30
0.0
 10
4.343750
 20
6.072917
 30
0.0
 10
4.343750
 20
4.864583
 30
0.0
 10
5.031250
 20
4.864583
 30
0.0
 10
5.031250
 20
5.031250
 30
0.0
 10
4.687500
 20
5.031250
 30
0.0
 10
4.657270
 20
5.033849
 30
0.0
 10
4.627927
 20
5.041571
 30
0.0
 10
4.600334
 20
5.054189
 30
0.0
 10
4.575299
 20
5.071332
 30
0.0
 10
4.553558
 20
5.092497
 30
0.0
 10
4.535750
 20
5.117062
 30
0.0
 10
4.522396
 20
5.144308
 30
0.0
 10
4.513890
 20
5.173432
 30
0.0
 10
4.510417
 20
5.208333
 30
0.0
 10
4.510417
 20
5.729167
 30
0.0
 10
4.513016
 20
5.759397
 30
0.0
 10
4.520738
 20
5.788739
 30
0.0
 10
4.533355
 20
5.816333
 30
0.0
 10
4.550498
 20
5.841368
 30
0.0
 10
4.571663
 20
5.863108
 30
0.0
 10
4.596229
 20
5.880917
 30
0.0
 10
4.623474
 20
5.894270
 30
0.0
 10
4.652599
 20
5.902777
 30
0.0
 10
4.682748
 20
5.906186
 30
0.0
 10
4.713037
 20
5.904399
 30
0.0
 10
4.742577
 20
5.897467
 30
0.0
 10
4.770499
 20
5.885595
 30
0.0
 10
4.795984
 20
5.869130
 30
0.0
 10
4.818285
 20
5.848556
 30
0.0
 10
4.836746
 20
5.824477
 30
0.0
 10
4.850826
 20
5.797600
 30
0.0
 10
4.860111
 20
5.768714
 30
0.0
 10
4.864583
 20
5.729167
 30
0.0
 10
4.864583
 20
5.385417
 30
0.0
 10
5.031250
 20
5.385417
 30
0.0
 10
5.031250
 20
6.770833
 30
0.0
 10
5.033849
 20
6.801063
 30
0.0
 10
5.041571
 20
6.830406
 30
0.0
 10
5.054189
 20
6.858000
 30
0.0
 10
5.071332
 20
6.883034
 30
0.0
 10
5.092497
 20
6.904775
 30
0.0
 10
5.117062
 20
6.922583
 30
0.0
 10
5.144308
 20
6.935937
 30
0.0
 10
5.173432
 20
6.944443
 30
0.0
 10
5.208333
 20
6.947917
 30
0.0
 10
5.729167
 20
6.947917
 30
0.0
 10
5.759397
 20
6.945317
 30
0.0
 10
5.788739
 20
6.937595
 30
0.0
 10
5.816333
 20
6.924978
 30
0.0
 10
5.841368
 20
6.907835
 30
0.0
 10
5.863108
 20
6.886670
 30
0.0
 10
5.880917
 20
6.862104
 30
0.0
 10
5.894270
 20
6.834859
 30
0.0
 10
5.902777
 20
6.805734
 30
0.0
 10
5.906186
 20
6.775585
 30
0.0
 10
5.904399
 20
6.745296
 30
0.0
 10
5.897467
 20
6.715757
 30
0.0
 10
5.885595
 20
6.687834
 30
0.0
 10
5.869130
 20
6.662349
 30
0.0
 10
5.848556
 20
6.640048
 30
0.0
 10
5.824477
 20
6.621587
 30
0.0
 10
5.797600
 20
6.607507
 30
0.0
 10
5.768714
 20
6.598222
 30
0.0
 10
5.729167
 20
6.593750
 30
0.0
 10
5.385417
 20
6.593750
 30
0.0
 10
5.385417
 20
5.906250
 30
0.0
 10
5.552083
 20
5.906250
 30
0.0
 10
5.552083
 20
6.250000
 30
0.0
 10
5.554683
 20
6.280230
 30
0.0
 10
5.562405
 20
6.309573
 30
0.0
 10
5.575022
 20
6.337166
 30
0.0
 10
5.592165
 20
6.362201
 30
0.0
 10
5.613330
 20
6.383942
 30
0.0
 10
5.637896
 20
6.401750
 30
0.0
 10
5.665141
 20
6.415104
 30
0.0
 10
5.694266
 20
6.423610
 30
0.0
 10
5.729167
 20
6.427083
 30
0.0
 10
6.072917
 20
6.427083
 30
0.0
 10
6.072917
 20
6.770833
 30
0.0
 10
6.075516
 20
6.801063
 30
0.0
 10
6.083238
 20
6.830406
 30
0.0
 10
6.095855
 20
6.858000
 30
0.0
 10
6.112998
 20
6.883034
 30
0.0
 10
6.134163
 20
6.904775
 30
0.0
 10
6.158729
 20
6.922583
 30
0.0
 10
6.185974
 20
6.935937
 30
0.0
 10
6.215099
 20
6.944443
 30
0.0
 10
6.250000
 20
6.947917
 30
0.0
 10
6.770833
 20
6.947917
 30
0.0
 10
6.801063
 20
6.945317
 30
0.0
 10
6.830406
 20
6.937595
 30
0.0
 10
6.858000
 20
6.924978
 30
0.0
 10
6.883034
 20
6.907835
 30
0.0
 10
6.904775
 20
6.886670
 30
0.0
 10
6.922583
 20
6.862104
 30
0.0
 10
6.935937
 20
6.834859
 30
0.0
 10
6.944443
 20
6.805734
 30
0.0
 10
6.947917
 20
6.770833
 30
0.0
 10
6.947917
 20
6.250000
 30
0.0
 10
6.945317
 20
6.219770
 30
0.0
 10
6.937595
 20
6.190427
 30
0.0
 10
6.924978
 20
6.162834
 30
0.0
 10
6.907835
 20
6.137799
 30
0.0
 10
6.886670
 20
6.116058
 30
0.0
 10
6.862104
 20
6.098250
 30
0.0
 10
6.834859
 20
6.084896
 30
0.0
 10
6.805734
 20
6.076390
 30
0.0
 10
6.775585
 20
6.072980
 30
0.0
 10
6.745296
 20
6.074768
 30
0.0
 10
6.715757
 20
6.081699
 30
0.0
 10
6.687834
 20
6.093572
 30
0.0
 10
6.662349
 20
6.110037
 30
0.0
 10
6.640048
 20
6.130611
 30
0.0
 10
6.621587
 20
6.154690
 30
0.0
 10
6.607507
 20
6.181567
 30
0.0
 10
6.598222
 20
6.210453
 30
0.0
 10
6.593750
 20
6.250000
 30
0.0
 10
6.593750
 20
6.593750
 30
0.0
 10
6.427083
 20
6.593750
 30
0.0
 10
6.427083
 20
6.250000
 30
0.0
 10
6.424484
 20
6.219770
 30
0.0
 10
6.416762
 20
6.190427
 30
0.0
 10
6.404145
 20
6.162834
 30
0.0
 10
6.387002
 20
6.137799
 30
0.0
 10
6.365837
 20
6.116058
 30
0.0
 10
6.341271
 20
6.098250
 30
0.0
 10
6.314026
 20
6.084896
 30
0.0
 10
6.284901
 20
6.076390
 30
0.0
 10
6.250000
 20
6.072917
 30
0.0
 10
5.906250
 20
6.072917
 30
0.0
 10
5.906250
 20
5.385417
 30
0.0
 10
6.593750
 20
5.385417
 30
0.0
 10
6.593750
 20
5.552083
 30
0.0
 10
6.250000
 20
5.552083
 30
0.0
 10
6.219770
 20
5.554683
 30
0.0
 10
6.190427
 20
5.562405
 30
0.0
 10
6.162834
 20
5.575022
 30
0.0
 10
6.137799
 20
5.592165
 30
0.0
 10
6.116058
 20
5.613330
 30
0.0
 10
6.098250
 20
5.637896
 30
0.0
 10
6.084896
 20
5.665141
 30
0.0
 10
6.076390
 20
5.694266
 30
0.0
 10
6.072980
 20
5.724415
 30
0.0
 10
6.074768
 20
5.754704
 30
0.0
 10
6.081699
 20
5.784243
 30
0.0
 10
6.093572
 20
5.812166
 30
0.0
 10
6.110037
 20
5.837651
 30
0.0
 10
6.130611
 20
5.859952
 30
0.0
 10
6.154690
 20
5.878413
 30
0.0
 10
6.181567
 20
5.892493
 30
0.0
 10
6.210453
 20
5.901778
 30
0.0
 10
6.250000
 20
5.906250
 30
0.0
 10
6.770833
 20
5.906250
 30
0.0
 10
6.801063
 20
5.903651
 30
0.0
 10
6.830406
 20
5.895929
 30
0.0
 10
6.858000
 20
5.883311
 30
0.0
 10
6.883034
 20
5.866168
 30
0.0
 10
6.904775
 20
5.845003
 30
0.0
 10
6.922583
 20
5.820438
 30
0.0
 10
6.935937
 20
5.793192
 30
0.0
 10
6.944443
 20
5.764068
 30
0.0
 10
6.947917
 20
5.729167
 30
0.0
 10
6.947917
 20
5.385417
 30
0.0
 10
7.114583
 20
5.385417
 30
0.0
 10
7.114583
 20
7.114583
 30
0.0
 10
6.770833
 20
7.114583
 30
0.0
 10
6.740603
 20
7.117183
 30
0.0
 10
6.711261
 20
7.124905
 30
0.0
 10
6.683667
 20
7.137522
 30
0.0
 10
6.658632
 20
7.154665
 30
0.0
 10
6.636892
 20
7.175830
 30
0.0
 10
6.619083
 20
7.200396
 30
0.0
 10
6.605730
 20
7.227641
 30
0.0
 10
6.597223
 20
7.256766
 30
0.0
 10
6.593750
 20
7.291667
 30
0.0
 10
6.593750
 20
7.812500
 30
0.0
 10
6.596349
 20
7.842730
 30
0.0
 10
6.604071
 20
7.872073
 30
0.0
 10
6.616689
 20
7.899666
 30
0.0
 10
6.633832
 20
7.924701
 30
0.0
 10
6.654997
 20
7.946442
 30
0.0
 10
6.679562
 20
7.964250
 30
0.0
 10
6.706808
 20
7.977604
 30
0.0
 10
6.735932
 20
7.986110
 30
0.0
 10
6.766082
 20
7.989520
 30
0.0
 10
6.796371
 20
7.987732
 30
0.0
 10
6.825910
 20
7.980801
 30
0.0
 10
6.853832
 20
7.968928
 30
0.0
 10
6.879318
 20
7.952463
 30
0.0
 10
6.901619
 20
7.931889
 30
0.0
 10
6.920080
 20
7.907810
 30
0.0
 10
6.934159
 20
7.880933
 30
0.0
 10
6.943444
 20
7.852047
 30
0.0
 10
6.947917
 20
7.812500
 30
0.0
 10
6.947917
 20
7.468750
 30
0.0
 10
7.114583
 20
7.468750
 30
0.0
 10
7.114583
 20
7.812500
 30
0.0
 10
7.117183
 20
7.842730
 30
0.0
 10
7.124905
 20
7.872073
 30
0.0
 10
7.137522
 20
7.899666
 30
0.0
 10
7.154665
 20
7.924701
 30
0.0
 10
7.175830
 20
7.946442
 30
0.0
 10
7.200396
 20
7.964250
 30
0.0
 10
7.227641
 20
7.977604
 30
0.0
 10
7.256766
 20
7.986110
 30
0.0
 10
7.291667
 20
7.989583
 30
0.0
 10
7.812500
 20
7.989583
 30
0.0
 10
7.842730
 20
7.986984
 30
0.0
 10
7.872073
 20
7.979262
 30
0.0
 10
7.899666
 20
7.966645
 30
0.0
 10
7.924701
 20
7.949502
 30
0.0
 10
7.946442
 20
7.928337
 30
0.0
 10
7.964250
 20
7.903771
 30
0.0
 10
7.977604
 20
7.876526
 30
0.0
 10
7.986110
 20
7.847401
 30
0.0
 10
7.989520
 20
7.817252
 30
0.0
 10
7.987732
 20
7.786963
 30
0.0
 10
7.980801
 20
7.757423
 30
0.0
 10
7.968928
 20
7.729501
 30
0.0
 10
7.952463
 20
7.704016
 30
0.0
 10
7.931889
 20
7.681715
 30
0.0
 10
7.907810
 20
7.663254
 30
0.0
 10
7.880933
 20
7.649174
 30
0.0
 10
7.852047
 20
7.639889
 30
0.0
 10
7.812500
 20
7.635417
 30
0.0
 10
7.468750
 20
7.635417
 30
0.0
 10
7.468750
 20
6.947917
 30
0.0
 10
8.156250
 20
6.947917
 30
0.0
 10
8.156250
 20
7.114583
 30
0.0
 10
7.812500
 20
7.114583
 30
0.0
 10
7.782270
 20
7.117183
 30
0.0
 10
7.752927
 20
7.124905
 30
0.0
 10
7.725334
 20
7.137522
 30
0.0
 10
7.700299
 20
7.154665
 30
0.0
 10
7.678558
 20
7.175830
 30
0.0
 10
7.660750
 20
7.200396
 30
0.0
 10
7.647396
 20
7.227641
 30
0.0
 10
7.638890
 20
7.256766
 30
0.0
 10
7.635480
 20
7.286915
 30
0.0
 10
7.637268
 20
7.317204
 30
0.0
 10
7.644199
 20
7.346743
 30
0.0
 10
7.656072
 20
7.374666
 30
0.0
 10
7.672537
 20
7.400151
 30
0.0
 10
7.693111
 20
7.422452
 30
0.0
 10
7.717190
 20
7.440913
 30
0.0
 10
7.744067
 20
7.454993
 30
0.0
 10
7.772953
 20
7.464278
 30
0.0
 10
7.812500
 20
7.468750
 30
0.0
 10
8.156250
 20
7.468750
 30
0.0
 10
8.156250
 20
8.333333
 30
0.0
 10
8.158849
 20
8.363563
 30
0.0
 10
8.166571
 20
8.392906
 30
0.0
 10
8.179189
 20
8.420500
 30
0.0
 10
8.196332
 20
8.445534
 30
0.0
 10
8.217497
 20
8.467275
 30
0.0
 10
8.242062
 20
8.485083
 30
0.0
 10
8.269308
 20
8.498437
 30
0.0
 10
8.298432
 20
8.506943
 30
0.0
 10
8.328582
 20
8.510353
 30
0.0
 10
8.358871
 20
8.508566
 30
0.0
 10
8.388410
 20
8.501634
 30
0.0
 10
8.416332
 20
8.489761
 30
0.0
 10
8.441818
 20
8.473296
 30
0.0
 10
8.464119
 20
8.452722
 30
0.0
 10
8.482580
 20
8.428643
 30
0.0
 10
8.496659
 20
8.401766
 30
0.0
 10
8.505944
 20
8.372880
 30
0.0
 10
8.510417
 20
8.333333
 30
0.0
 10
8.510417
 20
6.770833
 30
0.0
 10
8.507817
 20
6.740603
 30
0.0
 10
8.500095
 20
6.711261
 30
0.0
 10
8.487478
 20
6.683667
 30
0.0
 10
8.470335
 20
6.658632
 30
0.0
 10
8.449170
 20
6.636892
 30
0.0
 10
8.424604
 20
6.619083
 30
0.0
 10
8.397359
 20
6.605730
 30
0.0
 10
8.368234
 20
6.597223
 30
0.0
 10
8.333333
 20
6.593750
 30
0.0
 10
7.468750
 20
6.593750
 30
0.0
 10
7.468750
 20
6.427083
 30
0.0
 10
8.333333
 20
6.427083
 30
0.0
 10
8.363563
 20
6.424484
 30
0.0
 10
8.392906
 20
6.416762
 30
0.0
 10
8.420500
 20
6.404145
 30
0.0
 10
8.445534
 20
6.387002
 30
0.0
 10
8.467275
 20
6.365837
 30
0.0
 10
8.485083
 20
6.341271
 30
0.0
 10
8.498437
 20
6.314026
 30
0.0
 10
8.506943
 20
6.284901
 30
0.0
 10
8.510353
 20
6.254752
 30
0.0
 10
8.508566
 20
6.224463
 30
0.0
 10
8.501634
 20
6.194923
 30
0.0
 10
8.489761
 20
6.167001
 30
0.0
 10
8.473296
 20
6.141516
 30
0.0
 10
8.452722
 20
6.119215
 30
0.0
 10
8.428643
 20
6.100754
 30
0.0
 10
8.401766
 20
6.086674
 30
0.0
 10
8.372880
 20
6.077389
 30
0.0
 10
8.333333
 20
6.072917
 30
0.0
 10
7.468750
 20
6.072917
 30
0.0
 10
7.468750
 20
5.385417
 30
0.0
 10
7.635417
 20
5.385417
 30
0.0
 10
7.635417
 20
5.729167
 30
0.0
 10
7.638016
 20
5.759397
 30
0.0
 10
7.645738
 20
5.788739
 30
0.0
 10
7.658355
 20
5.816333
 30
0.0
 10
7.675498
 20
5.841368
 30
0.0
 10
7.696663
 20
5.863108
 30
0.0
 10
7.721229
 20
5.880917
 30
0.0
 10
7.748474
 20
5.894270
 30
0.0
 10
7.777599
 20
5.902777
 30
0.0
 10
7.812500
 20
5.906250
 30
0.0
 10
8.333333
 20
5.906250
 30
0.0
 10
8.363563
 20
5.903651
 30
0.0
 10
8.392906
 20
5.895929
 30
0.0
 10
8.420500
 20
5.883311
 30
0.0
 10
8.445534
 20
5.866168
 30
0.0
 10
8.467275
 20
5.845003
 30
0.0
 10
8.485083
 20
5.820438
 30
0.0
 10
8.498437
 20
5.793192
 30
0.0
 10
8.506943
 20
5.764068
 30
0.0
 10
8.510353
 20
5.733918
 30
0.0
 10
8.508566
 20
5.703629
 30
0.0
 10
8.501634
 20
5.674090
 30
0.0
 10
8.489761
 20
5.646168
 30
0.0
 10
8.473296
 20
5.620682
 30
0.0
 10
8.452722
 20
5.598381
 30
0.0
 10
8.428643
 20
5.579920
 30
0.0
 10
8.401766
 20
5.565841
 30
0.0
 10
8.372880
 20
5.556556
 30
0.0
 10
8.333333
 20
5.552083
 30
0.0
 10
7.989583
 20
5.552083
 30
0.0
 10
7.989583
 20
5.385417
 30
0.0
 10
8.333333
 20
5.385417
 30
0.0
 10
8.363563
 20
5.382817
 30
0.0
 10
8.392906
 20
5.375095
 30
0.0
 10
8.420500
 20
5.362478
 30
0.0
 10
8.445534
 20
5.345335
 30
0.0
 10
8.467275
 20
5.324170
 30
0.0
 10
8.485083
 20
5.299604
 30
0.0
 10
8.498437
 20
5.272359
 30
0.0
 10
8.506943
 20
5.243234
 30
0.0
 10
8.510353
 20
5.213085
 30
0.0
 10
8.508566
 20
5.182796
 30
0.0
 10
8.501634
 20
5.153257
 30
0.0
 10
8.489761
 20
5.125334
 30
0.0
 10
8.473296
 20
5.099849
 30
0.0
 10
8.452722
 20
5.077548
 30
0.0
 10
8.428643
 20
5.059087
 30
0.0
 10
8.401766
 20
5.045007
 30
0.0
 10
8.372880
 20
5.035722
 30
0.0
 10
8.333333
 20
5.031250
 30
0.0
 10
5.906250
 20
5.031250
 30
0.0
 10
5.906250
 20
4.864583
 30
0.0
 10
6.250000
 20
4.864583
 30
0.0
 10
6.280230
 20
4.861984
 30
0.0
 10
6.309573
 20
4.854262
 30
0.0
 10
6.337166
 20
4.841645
 30
0.0
 10
6.362201
 20
4.824502
 30
0.0
 10
6.383942
 20
4.803337
 30
0.0
 10
6.401750
 20
4.778771
 30
0.0
 10
6.415104
 20
4.751526
 30
0.0
 10
6.423610
 20
4.722401
 30
0.0
 10
6.427020
 20
4.692252
 30
0.0
 10
6.425232
 20
4.661963
 30
0.0
 10
6.418301
 20
4.632423
 30
0.0
 10
6.406428
 20
4.604501
 30
0.0
 10
6.389963
 20
4.579016
 30
0.0
 10
6.369389
 20
4.556715
 30
0.0
 10
6.345310
 20
4.538254
 30
0.0
 10
6.318433
 20
4.524174
 30
0.0
 10
6.289547
 20
4.514889
 30
0.0
 10
6.250000
 20
4.510417
 30
0.0
 10
5.729167
 20
4.510417
 30
0.0
 10
5.716411
 20
4.511514
 30
0.0
 10
5.703629
 20
4.512268
 30
0.0
 10
5.701310
 20
4.512811
 30
0.0
 10
5.698937
 20
4.513016
 30
0.0
 10
5.686554
 20
4.516274
 30
0.0
 10
5.674090
 20
4.519199
 30
0.0
 10
5.671898
 20
4.520131
 30
0.0
 10
5.669594
 20
4.520738
 30
0.0
 10
5.657950
 20
4.526062
 30
0.0
 10
5.646168
 20
4.531072
 30
0.0
 10
5.644167
 20
4.532364
 30
0.0
 10
5.642000
 20
4.533355
 30
0.0
 10
5.631435
 20
4.540590
 30
0.0
 10
5.620682
 20
4.547537
 30
0.0
 10
5.618931
 20
4.549152
 30
0.0
 10
5.616966
 20
4.550498
 30
0.0
 10
5.607791
 20
4.559429
 30
0.0
 10
5.598381
 20
4.568111
 30
0.0
 10
5.596932
 20
4.570001
 30
0.0
 10
5.595225
 20
4.571663
 30
0.0
 10
5.587710
 20
4.582029
 30
0.0
 10
5.579920
 20
4.592189
 30
0.0
 10
5.578815
 20
4.594300
 30
0.0
 10
5.577417
 20
4.596228
 30
0.0
 10
5.571781
 20
4.607726
 30
0.0
 10
5.565841
 20
4.619067
 30
0.0
 10
5.565111
 20
4.621334
 30
0.0
 10
5.564063
 20
4.623474
 30
0.0
 10
5.560473
 20
4.635766
 30
0.0
 10
5.556555
 20
4.647953
 30
0.0
 10
5.556329
 20
4.649952
 30
0.0
 10
5.555556
 20
4.652598
 30
0.0
 10
5.552147
 20
4.682748
 30
0.0
 10
5.552309
 20
4.685500
 30
0.0
 10
5.552083
 20
4.687500
 30
0.0
 10
5.552083
 20
5.552083
 30
0.0
 10
5.385417
 20
5.552083
 30
0.0
 10
5.385417
 20
4.166667
 30
0.0
 10
5.382817
 20
4.136437
 30
0.0
 10
5.375095
 20
4.107094
 30
0.0
 10
5.362478
 20
4.079500
 30
0.0
 10
5.345335
 20
4.054466
 30
0.0
 10
5.324170
 20
4.032725
 30
0.0
 10
5.299604
 20
4.014917
 30
0.0
 10
5.272359
 20
4.001563
 30
0.0
 10
5.243234
 20
3.993057
 30
0.0
 10
5.213085
 20
3.989647
 30
0.0
 10
5.182796
 20
3.991434
 30
0.0
 10
5.153257
 20
3.998366
 30
0.0
 10
5.125334
 20
4.010239
 30
0.0
 10
5.099849
 20
4.026704
 30
0.0
 10
5.077548
 20
4.047278
 30
0.0
 10
5.059087
 20
4.071357
 30
0.0
 10
5.045007
 20
4.098234
 30
0.0
 10
5.035722
 20
4.127120
 30
0.0
 10
5.031250
 20
4.166667
 30
0.0
 10
5.031250
 20
4.510417
 30
0.0
 10
4.343750
 20
4.510417
 30
0.0
 10
4.343750
 20
4.343750
 30
0.0
 10
4.687500
 20
4.343750
 30
0.0
 10
4.717730
 20
4.341151
 30
0.0
 10
4.747073
 20
4.333429
 30
0.0
 10
4.774666
 20
4.320811
 30
0.0
 10
4.799701
 20
4.303668
 30
0.0
 10
4.821442
 20
4.282503
 30
0.0
 10
4.839250
 20
4.257938
 30
0.0
 10
4.852604
 20
4.230692
 30
0.0
 10
4.861110
 20
4.201568
 30
0.0
 10
4.864583
 20
4.166667
 30
0.0
 10
4.864583
 20
3.822917
 30
0.0
 10
5.552083
 20
3.822917
 30
0.0
 10
5.552083
 20
4.166667
 30
0.0
 10
5.554683
 20
4.196897
 30
0.0
 10
5.562405
 20
4.226239
 30
0.0
 10
5.575022
 20
4.253833
 30
0.0
 10
5.592165
 20
4.278868
 30
0.0
 10
5.613330
 20
4.300608
 30
0.0
 10
5.637896
 20
4.318417
 30
0.0
 10
5.665141
 20
4.331770
 30
0.0
 10
5.694266
 20
4.340277
 30
0.0
 10
5.724415
 20
4.343686
 30
0.0
 10
5.754704
 20
4.341899
 30
0.0
 10
5.784243
 20
4.334967
 30
0.0
 10
5.812166
 20
4.323095
 30
0.0
 10
5.837651
 20
4.306630
 30
0.0
 10
5.859952
 20
4.286056
 30
0.0
 10
5.878413
 20
4.261977
 30
0.0
 10
5.892493
 20
4.235100
 30
0.0
 10
5.901778
 20
4.206214
 30
0.0
 10
5.906250
 20
4.166667
 30
0.0
 10
5.906250
 20
3.822917
 30
0.0
 10
6.072917
 20
3.822917
 30
0.0
 10
6.072917
 20
4.166667
 30
0.0
 10
6.075516
 20
4.196897
 30
0.0
 10
6.083238
 20
4.226239
 30
0.0
 10
6.095855
 20
4.253833
 30
0.0
 10
6.112998
 20
4.278868
 30
0.0
 10
6.134163
 20
4.300608
 30
0.0
 10
6.158729
 20
4.318417
 30
0.0
 10
6.185974
 20
4.331770
 30
0.0
 10
6.215099
 20
4.340277
 30
0.0
 10
6.250000
 20
4.343750
 30
0.0
 10
6.593750
 20
4.343750
 30
0.0
 10
6.593750
 20
4.687500
 30
0.0
 10
6.596349
 20
4.717730
 30
0.0
 10
6.604071
 20
4.747073
 30
0.0
 10
6.616689
 20
4.774666
 30
0.0
 10
6.633832
 20
4.799701
 30
0.0
 10
6.654997
 20
4.821442
 30
0.0
 10
6.679562
 20
4.839250
 30
0.0
 10
6.706808
 20
4.852604
 30
0.0
 10
6.735932
 20
4.861110
 30
0.0
 10
6.770833
 20
4.864583
 30
0.0
 10
7.291667
 20
4.864583
 30
0.0
 10
7.321897
 20
4.861984
 30
0.0
 10
7.351239
 20
4.854262
 30
0.0
 10
7.378833
 20
4.841645
 30
0.0
 10
7.403868
 20
4.824502
 30
0.0
 10
7.425608
 20
4.803337
 30
0.0
 10
7.443417
 20
4.778771
 30
0.0
 10
7.456770
 20
4.751526
 30
0.0
 10
7.465277
 20
4.722401
 30
0.0
 10
7.468686
 20
4.692252
 30
0.0
 10
7.466899
 20
4.661963
 30
0.0
 10
7.459967
 20
4.632423
 30
0.0
 10
7.448095
 20
4.604501
 30
0.0
 10
7.431630
 20
4.579016
 30
0.0
 10
7.411056
 20
4.556715
 30
0.0
 10
7.386977
 20
4.538254
 30
0.0
 10
7.360100
 20
4.524174
 30
0.0
 10
7.331214
 20
4.514889
 30
0.0
 10
7.291667
 20
4.510417
 30
0.0
 10
6.947917
 20
4.510417
 30
0.0
 10
6.947917
 20
4.343750
 30
0.0
 10
7.635417
 20
4.343750
 30
0.0
 10
7.635417
 20
4.687500
 30
0.0
 10
7.638016
 20
4.717730
 30
0.0
 10
7.645738
 20
4.747073
 30
0.0
 10
7.658355
 20
4.774666
 30
0.0
 10
7.675498
 20
4.799701
 30
0.0
 10
7.696663
 20
4.821442
 30
0.0
 10
7.721229
 20
4.839250
 30
0.0
 10
7.748474
 20
4.852604
 30
0.0
 10
7.777599
 20
4.861110
 30
0.0
 10
7.812500
 20
4.864583
 30
0.0
 10
8.333333
 20
4.864583
 30
0.0
 10
8.363563
 20
4.861984
 30
0.0
 10
8.392906
 20
4.854262
 30
0.0
 10
8.420500
 20
4.841645
 30
0.0
 10
8.445534
 20
4.824502
 30
0.0
 10
8.467275
 20
4.803337
 30
0.0
 10
8.485083
 20
4.778771
 30
0.0
 10
8.498437
 20
4.751526
 30
0.0
 10
8.506943
 20
4.722401
 30
0.0
 10
8.510417
 20
4.687500
 30
0.0
 10
8.510417
 20
3.645833
 30
0.0
 10
8.507817
 20
3.615603
 30
0.0
 10
8.500095
 20
3.586261
 30
0.0
 10
8.487478
 20
3.558667
 30
0.0
 10
8.470335
 20
3.533632
 30
0.0
 10
8.449170
 20
3.511892
 30
0.0
 10
8.424604
 20
3.494083
 30
0.0
 10
8.397359
 20
3.480730
 30
0.0
 10
8.368234
 20
3.472223
 30
0.0
 10
8.338085
 20
3.468814
 30
0.0
 10
8.307796
 20
3.470601
 30
0.0
 10
8.278257
 20
3.477533
 30
0.0
 10
8.250334
 20
3.489405
 30
0.0
 10
8.224849
 20
3.505870
 30
0.0
 10
8.202548
 20
3.526444
 30
0.0
 10
8.184087
 20
3.550523
 30
0.0
 10
8.170007
 20
3.577400
 30
0.0
 10
8.160722
 20
3.606286
 30
0.0
 10
8.156250
 20
3.645833
 30
0.0
 10
8.156250
 20
4.510417
 30
0.0
 10
7.989583
 20
4.510417
 30
0.0
 10
7.989583
 20
4.166667
 30
0.0
 10
7.986984
 20
4.136437
 30
0.0
 10
7.979262
 20
4.107094
 30
0.0
 10
7.966645
 20
4.079500
 30
0.0
 10
7.949502
 20
4.054466
 30
0.0
 10
7.928337
 20
4.032725
 30
0.0
 10
7.903771
 20
4.014917
 30
0.0
 10
7.876526
 20
4.001563
 30
0.0
 10
7.847401
 20
3.993057
 30
0.0
 10
7.812500
 20
3.989583
 30
0.0
 10
7.468750
 20
3.989583
 30
0.0
 10
7.468750
 20
3.822917
 30
0.0
 10
7.812500
 20
3.822917
 30
0.0
 10
7.842730
 20
3.820317
 30
0.0
 10
7.872073
 20
3.812595
 30
0.0
 10
7.899666
 20
3.799978
 30
0.0
 10
7.924701
 20
3.782835
 30
0.0
 10
7.946442
 20
3.761670
 30
0.0
 10
7.964250
 20
3.737104
 30
0.0
 10
7.977604
 20
3.709859
 30
0.0
 10
7.986110
 20
3.680734
 30
0.0
 10
7.989583
 20
3.645833
 30
0.0
 10
7.989583
 20
2.781250
 30
0.0
 10
8.156250
 20
2.781250
 30
0.0
 10
8.156250
 20
3.125000
 30
0.0
 10
8.158849
 20
3.155230
 30
0.0
 10
8.166571
 20
3.184573
 30
0.0
 10
8.179189
 20
3.212166
 30
0.0
 10
8.196332
 20
3.237201
 30
0.0
 10
8.217497
 20
3.258942
 30
0.0
 10
8.242062
 20
3.276750
 30
0.0
 10
8.269308
 20
3.290104
 30
0.0
 10
8.298432
 20
3.298610
 30
0.0
 10
8.328582
 20
3.302020
 30
0.0
 10
8.358871
 20
3.300232
 30
0.0
 10
8.388410
 20
3.293301
 30
0.0
 10
8.416332
 20
3.281428
 30
0.0
 10
8.441818
 20
3.264963
 30
0.0
 10
8.464119
 20
3.244389
 30
0.0
 10
8.482580
 20
3.220310
 30
0.0
 10
8.496659
 20
3.193433
 30
0.0
 10
8.505944
 20
3.164547
 30
0.0
 10
8.510417
 20
3.125000
 30
0.0
 10
8.510417
 20
2.083333
 30
0.0
 10
8.507817
 20
2.053103
 30
0.0
 10
8.500095
 20
2.023761
 30
0.0
 10
8.487478
 20
1.996167
 30
0.0
 10
8.470335
 20
1.971132
 30
0.0
 10
8.449170
 20
1.949392
 30
0.0
 10
8.424604
 20
1.931583
 30
0.0
 10
8.397359
 20
1.918230
 30
0.0
 10
8.368234
 20
1.909723
 30
0.0
 10
8.338085
 20
1.906314
 30
0.0
 10
8.307796
 20
1.908101
 30
0.0
 10
8.278257
 20
1.915033
 30
0.0
 10
8.250334
 20
1.926905
 30
0.0
 10
8.224849
 20
1.943370
 30
0.0
 10
8.202548
 20
1.963944
 30
0.0
 10
8.184087
 20
1.988023
 30
0.0
 10
8.170007
 20
2.014900
 30
0.0
 10
8.160722
 20
2.043786
 30
0.0
 10
8.156250
 20
2.083333
 30
0.0
 10
8.156250
 20
2.427083
 30
0.0
 10
7.989583
 20
2.427083
 30
0.0
 10
7.989583
 20
2.083333
 30
0.0
 10
7.986984
 20
2.053103
 30
0.0
 10
7.979262
 20
2.023761
 30
0.0
 10
7.966645
 20
1.996167
 30
0.0
 10
7.949502
 20
1.971132
 30
0.0
 10
7.928337
 20
1.949392
 30
0.0
 10
7.903771
 20
1.931583
 30
0.0
 10
7.876526
 20
1.918230
 30
0.0
 10
7.847401
 20
1.909723
 30
0.0
 10
7.817252
 20
1.906314
 30
0.0
 10
7.786963
 20
1.908101
 30
0.0
 10
7.757423
 20
1.915033
 30
0.0
 10
7.729501
 20
1.926905
 30
0.0
 10
7.704016
 20
1.943370
 30
0.0
 10
7.681715
 20
1.963944
 30
0.0
 10
7.663254
 20
1.988023
 30
0.0
 10
7.649174
 20
2.014900
 30
0.0
 10
7.639889
 20
2.043786
 30
0.0
 10
7.635417
 20
2.083333
 30
0.0
 10
7.635417
 20
3.468750
 30
0.0
 10
7.468750
 20
3.468750
 30
0.0
 10
7.468750
 20
1.739583
 30
0.0
 10
8.333333
 20
1.739583
 30
0.0
 10
8.363563
 20
1.736984
 30
0.0
 10
8.392906
 20
1.729262
 30
0.0
 10
8.420500
 20
1.716645
 30
0.0
 10
8.445534
 20
1.699502
 30
0.0
 10
8.467275
 20
1.678337
 30
0.0
 10
8.485083
 20
1.653771
 30
0.0
 10
8.498437
 20
1.626526
 30
0.0
 10
8.506943
 20
1.597401
 30
0.0
 10
8.510417
 20
1.562500
 30
0.0
 10
8.510417
 20
1.041667
 30
0.0
 10
8.507817
 20
1.011437
 30
0.0
 10
8.500095
 20
0.982094
 30
0.0
 10
8.487478
 20
0.954500
 30
0.0
 10
8.470335
 20
0.929466
 30
0.0
 10
8.449170
 20
0.907725
 30
0.0
 10
8.424604
 20
0.889917
 30
0.0
 10
8.397359
 20
0.876563
 30
0.0
 10
8.368234
 20
0.868057
 30
0.0
 10
8.338085
 20
0.864647
 30
0.0
 10
8.307796
 20
0.866434
 30
0.0
 10
8.278257
 20
0.873366
 30
0.0
 10
8.250334
 20
0.885239
 30
0.0
 10
8.224849
 20
0.901704
 30
0.0
 10
8.202548
 20
0.922278
 30
0.0
 10
8.184087
 20
0.946357
 30
0.0
 10
8.170007
 20
0.973234
 30
0.0
 10
8.160722
 20
1.002120
 30
0.0
 10
8.156250
 20
1.041667
 30
0.0
 10
8.156250
 20
1.385417
 30
0.0
 10
7.468750
 20
1.385417
 30
0.0
 10
7.468750
 20
1.218750
 30
0.0
 10
7.812500
 20
1.218750
 30
0.0
 10
7.842730
 20
1.216151
 30
0.0
 10
7.872073
 20
1.208429
 30
0.0
 10
7.899666
 20
1.195811
 30
0.0
 10
7.924701
 20
1.178668
 30
0.0
 10
7.946442
 20
1.157503
 30
0.0
 10
7.964250
 20
1.132938
 30
0.0
 10
7.977604
 20
1.105692
 30
0.0
 10
7.986110
 20
1.076568
 30
0.0
 10
7.989520
 20
1.046418
 30
0.0
 10
7.987732
 20
1.016129
 30
0.0
 10
7.980801
 20
0.986590
 30
0.0
 10
7.968928
 20
0.958668
 30
0.0
 10
7.952463
 20
0.933182
 30
0.0
 10
7.931889
 20
0.910881
 30
0.0
 10
7.907810
 20
0.892420
 30
0.0
 10
7.880933
 20
0.878341
 30
0.0
 10
7.852047
 20
0.869056
 30
0.0
 10
7.812500
 20
0.864583
 30
0.0
 10
6.770833
 20
0.864583
 30
0.0
 10
6.740603
 20
0.867183
 30
0.0
 10
6.711261
 20
0.874905
 30
0.0
 10
6.683667
 20
0.887522
 30
0.0
 10
6.658632
 20
0.904665
 30
0.0
 10
6.636892
 20
0.925830
 30
0.0
 10
6.619083
 20
0.950396
 30
0.0
 10
6.605730
 20
0.977641
 30
0.0
 10
6.597223
 20
1.006766
 30
0.0
 10
6.593814
 20
1.036915
 30
0.0
 10
6.595601
 20
1.067204
 30
0.0
 10
6.602533
 20
1.096743
 30
0.0
 10
6.614405
 20
1.124666
 30
0.0
 10
6.630870
 20
1.150151
 30
0.0
 10
6.651444
 20
1.172452
 30
0.0
 10
6.675523
 20
1.190913
 30
0.0
 10
6.702400
 20
1.204993
 30
0.0
 10
6.731286
 20
1.214278
 30
0.0
 10
6.770833
 20
1.218750
 30
0.0
 10
7.114583
 20
1.218750
 30
0.0
 10
7.114583
 20
2.947917
 30
0.0
 10
6.947917
 20
2.947917
 30
0.0
 10
6.947917
 20
1.562500
 30
0.0
 10
6.945317
 20
1.532270
 30
0.0
 10
6.937595
 20
1.502927
 30
0.0
 10
6.924978
 20
1.475334
 30
0.0
 10
6.907835
 20
1.450299
 30
0.0
 10
6.886670
 20
1.428558
 30
0.0
 10
6.862104
 20
1.410750
 30
0.0
 10
6.834859
 20
1.397396
 30
0.0
 10
6.805734
 20
1.388890
 30
0.0
 10
6.775585
 20
1.385480
 30
0.0
 10
6.745296
 20
1.387268
 30
0.0
 10
6.715757
 20
1.394199
 30
0.0
 10
6.687834
 20
1.406072
 30
0.0
 10
6.662349
 20
1.422537
 30
0.0
 10
6.640048
 20
1.443111
 30
0.0
 10
6.621587
 20
1.467190
 30
0.0
 10
6.607507
 20
1.494067
 30
0.0
 10
6.598222
 20
1.522953
 30
0.0
 10
6.593750
 20
1.562500
 30
0.0
 10
6.593750
 20
2.427083
 30
0.0
 10
6.427083
 20
2.427083
 30
0.0
 10
6.427083
 20
1.041667
 30
0.0
 10
6.424484
 20
1.011437
 30
0.0
 10
6.416762
 20
0.982094
 30
0.0
 10
6.404145
 20
0.954500
 30
0.0
 10
6.387002
 20
0.929466
 30
0.0
 10
6.365837
 20
0.907725
 30
0.0
 10
6.341271
 20
0.889917
 30
0.0
 10
6.314026
 20
0.876563
 30
0.0
 10
6.284901
 20
0.868057
 30
0.0
 10
6.254752
 20
0.864647
 30
0.0
 10
6.224463
 20
0.866434
 30
0.0
 10
6.194923
 20
0.873366
 30
0.0
 10
6.167001
 20
0.885239
 30
0.0
 10
6.141516
 20
0.901704
 30
0.0
 10
6.119215
 20
0.922278
 30
0.0
 10
6.100754
 20
0.946357
 30
0.0
 10
6.086674
 20
0.973234
 30
0.0
 10
6.077389
 20
1.002120
 30
0.0
 10
6.072917
 20
1.041667
 30
0.0
 10
6.072917
 20
1.906250
 30
0.0
 10
5.729167
 20
1.906250
 30
0.0
 10
5.698937
 20
1.908849
 30
0.0
 10
5.669594
 20
1.916571
 30
0.0
 10
5.642000
 20
1.929189
 30
0.0
 10
5.616966
 20
1.946332
 30
0.0
 10
5.595225
 20
1.967497
 30
0.0
 10
5.577417
 20
1.992062
 30
0.0
 10
5.564063
 20
2.019308
 30
0.0
 10
5.555557
 20
2.048432
 30
0.0
 10
5.552147
 20
2.078582
 30
0.0
 10
5.553934
 20
2.108871
 30
0.0
 10
5.560866
 20
2.138410
 30
0.0
 10
5.572739
 20
2.166332
 30
0.0
 10
5.589204
 20
2.191818
 30
0.0
 10
5.609778
 20
2.214119
 30
0.0
 10
5.633857
 20
2.232580
 30
0.0
 10
5.660734
 20
2.246659
 30
0.0
 10
5.689620
 20
2.255944
 30
0.0
 10
5.729167
 20
2.260417
 30
0.0
 10
6.072917
 20
2.260417
 30
0.0
 10
6.072917
 20
2.427083
 30
0.0
 10
5.385417
 20
2.427083
 30
0.0
 10
5.385417
 20
2.083333
 30
0.0
 10
5.382817
 20
2.053103
 30
0.0
 10
5.375095
 20
2.023761
 30
0.0
 10
5.362478
 20
1.996167
 30
0.0
 10
5.345335
 20
1.971132
 30
0.0
 10
5.324170
 20
1.949392
 30
0.0
 10
5.299604
 20
1.931583
 30
0.0
 10
5.272359
 20
1.918230
 30
0.0
 10
5.243234
 20
1.909723
 30
0.0
 10
5.213085
 20
1.906314
 30
0.0
 10
5.182796
 20
1.908101
 30
0.0
 10
5.153257
 20
1.915033
 30
0.0
 10
5.125334
 20
1.926905
 30
0.0
 10
5.099849
 20
1.943370
 30
0.0
 10
5.077548
 20
1.963944
 30
0.0
 10
5.059087
 20
1.988023
 30
0.0
 10
5.045007
 20
2.014900
 30
0.0
 10
5.035722
 20
2.043786
 30
0.0
 10
5.031250
 20
2.083333
 30
0.0
 10
5.031250
 20
3.125000
 30
0.0
 10
5.033849
 20
3.155230
 30
0.0
 10
5.041571
 20
3.184573
 30
0.0
 10
5.054189
 20
3.212166
 30
0.0
 10
5.071332
 20
3.237201
 30
0.0
 10
5.092497
 20
3.258942
 30
0.0
 10
5.117062
 20
3.276750
 30
0.0
 10
5.144308
 20
3.290104
 30
0.0
 10
5.173432
 20
3.298610
 30
0.0
 10
5.203582
 20
3.302020
 30
0.0
 10
5.233871
 20
3.300232
 30
0.0
 10
5.263410
 20
3.293301
 30
0.0
 10
5.291332
 20
3.281428
 30
0.0
 10
5.316818
 20
3.264963
 30
0.0
 10
5.339119
 20
3.244389
 30
0.0
 10
5.357580
 20
3.220310
 30
0.0
 10
5.371659
 20
3.193433
 30
0.0
 10
5.380944
 20
3.164547
 30
0.0
 10
5.385417
 20
3.125000
 30
0.0
 10
5.385417
 20
2.781250
 30
0.0
 10
6.593750
 20
2.781250
 30
0.0
 10
6.593750
 20
2.947917
 30
0.0
 10
5.729167
 20
2.947917
 30
0.0
 10
5.698937
 20
2.950516
 30
0.0
 10
5.669594
 20
2.958238
 30
0.0
 10
5.642000
 20
2.970855
 30
0.0
 10
5.616966
 20
2.987998
 30
0.0
 10
5.595225
 20
3.009163
 30
0.0
 10
5.577417
 20
3.033729
 30
0.0
 10
5.564063
 20
3.060974
 30
0.0
 10
5.555557
 20
3.090099
 30
0.0
 10
5.552147
 20
3.120248
 30
0.0
 10
5.553934
 20
3.150537
 30
0.0
 10
5.560866
 20
3.180077
 30
0.0
 10
5.572739
 20
3.207999
 30
0.0
 10
5.589204
 20
3.233484
 30
0.0
 10
5.609778
 20
3.255785
 30
0.0
 10
5.633857
 20
3.274246
 30
0.0
 10
5.660734
 20
3.288326
 30
0.0
 10
5.689620
 20
3.297611
 30
0.0
 10
5.729167
 20
3.302083
 30
0.0
 10
7.114583
 20
3.302083
 30
0.0
 10
7.114583
 20
3.989583
 30
0.0
 10
6.427083
 20
3.989583
 30
0.0
 10
6.427083
 20
3.822917
 30
0.0
 10
6.770833
 20
3.822917
 30
0.0
 10
6.801063
 20
3.820317
 30
0.0
 10
6.830406
 20
3.812595
 30
0.0
 10
6.858000
 20
3.799978
 30
0.0
 10
6.883034
 20
3.782835
 30
0.0
 10
6.904775
 20
3.761670
 30
0.0
 10
6.922583
 20
3.737104
 30
0.0
 10
6.935937
 20
3.709859
 30
0.0
 10
6.944443
 20
3.680734
 30
0.0
 10
6.947853
 20
3.650585
 30
0.0
 10
6.946066
 20
3.620296
 30
0.0
 10
6.939134
 20
3.590757
 30
0.0
 10
6.927261
 20
3.562834
 30
0.0
 10
6.910796
 20
3.537349
 30
0.0
 10
6.890222
 20
3.515048
 30
0.0
 10
6.866143
 20
3.496587
 30
0.0
 10
6.839266
 20
3.482507
 30
0.0
 10
6.810380
 20
3.473222
 30
0.0
 10
6.770833
 20
3.468750
 30
0.0
 10
4.864583
 20
3.468750
 30
0.0
 10
4.864583
 20
2.083333
 30
0.0
 10
4.861984
 20
2.053103
 30
0.0
 10
4.854262
 20
2.023761
 30
0.0
 10
4.841645
 20
1.996167
 30
0.0
 10
4.824502
 20
1.971132
 30
0.0
 10
4.803337
 20
1.949392
 30
0.0
 10
4.778771
 20
1.931583
 30
0.0
 10
4.751526
 20
1.918230
 30
0.0
 10
4.722401
 20
1.909723
 30
0.0
 10
4.687500
 20
1.906250
 30
0.0
 10
3.822917
 20
1.906250
 30
0.0
 10
3.822917
 20
1.739583
 30
0.0
 10
5.729167
 20
1.739583
 30
0.0
 10
5.759397
 20
1.736984
 30
0.0
 10
5.788739
 20
1.729262
 30
0.0
 10
5.816333
 20
1.716645
 30
0.0
 10
5.841368
 20
1.699502
 30
0.0
 10
5.863108
 20
1.678337
 30
0.0
 10
5.880917
 20
1.653771
 30
0.0
 10
5.894270
 20
1.626526
 30
0.0
 10
5.902777
 20
1.597401
 30
0.0
 10
5.906186
 20
1.567252
 30
0.0
 10
5.904399
 20
1.536963
 30
0.0
 10
5.897467
 20
1.507423
 30
0.0
 10
5.885595
 20
1.479501
 30
0.0
 10
5.869130
 20
1.454016
 30
0.0
 10
5.848556
 20
1.431715
 30
0.0
 10
5.824477
 20
1.413254
 30
0.0
 10
5.797600
 20
1.399174
 30
0.0
 10
5.768714
 20
1.389889
 30
0.0
 10
5.729167
 20
1.385417
 30
0.0
 10
5.385417
 20
1.385417
 30
0.0
 10
5.385417
 20
1.218750
 30
0.0
 10
5.729167
 20
1.218750
 30
0.0
 10
5.759397
 20
1.216151
 30
0.0
 10
5.788739
 20
1.208429
 30
0.0
 10
5.816333
 20
1.195811
 30
0.0
 10
5.841368
 20
1.178668
 30
0.0
 10
5.863108
 20
1.157503
 30
0.0
 10
5.880917
 20
1.132938
 30
0.0
 10
5.894270
 20
1.105692
 30
0.0
 10
5.902777
 20
1.076568
 30
0.0
 10
5.906186
 20
1.046418
 30
0.0
 10
5.904399
 20
1.016129
 30
0.0
 10
5.897467
 20
0.986590
 30
0.0
 10
5.885595
 20
0.958668
 30
0.0
 10
5.869130
 20
0.933182
 30
0.0
 10
5.848556
 20
0.910881
 30
0.0
 10
5.824477
 20
0.892420
 30
0.0
 10
5.797600
 20
0.878341
 30
0.0
 10
5.768714
 20
0.869056
 30
0.0
 10
5.729167
 20
0.864583
 30
0.0
 10
5.208333
 20
0.864583
 30
0.0
 10
5.178103
 20
0.867183
 30
0.0
 10
5.148761
 20
0.874905
 30
0.0
 10
5.121167
 20
0.887522
 30
0.0
 10
5.096132
 20
0.904665
 30
0.0
 10
5.074392
 20
0.925830
 30
0.0
 10
5.056583
 20
0.950396
 30
0.0
 10
5.043230
 20
0.977641
 30
0.0
 10
5.034723
 20
1.006766
 30
0.0
 10
5.031250
 20
1.041667
 30
0.0
 10
5.031250
 20
1.385417
 30
0.0
 10
3.822917
 20
1.385417
 30
0.0
 10
3.822917
 20
1.218750
 30
0.0
 10
4.687500
 20
1.218750
 30
0.0
 10
4.717730
 20
1.216151
 30
0.0
 10
4.747073
 20
1.208429
 30
0.0
 10
4.774666
 20
1.195811
 30
0.0
 10
4.799701
 20
1.178668
 30
0.0
 10
4.821442
 20
1.157503
 30
0.0
 10
4.839250
 20
1.132938
 30
0.0
 10
4.852604
 20
1.105692
 30
0.0
 10
4.861110
 20
1.076568
 30
0.0
 10
4.864520
 20
1.046418
 30
0.0
 10
4.862732
 20
1.016129
 30
0.0
 10
4.855801
 20
0.986590
 30
0.0
 10
4.843928
 20
0.958668
 30
0.0
 10
4.827463
 20
0.933182
 30
0.0
 10
4.806889
 20
0.910881
 30
0.0
 10
4.782810
 20
0.892420
 30
0.0
 10
4.755933
 20
0.878341
 30
0.0
 10
4.727047
 20
0.869056
 30
0.0
 10
4.687500
 20
0.864583
 30
0.0
 10
3.645833
 20
0.864583
 30
0.0
 10
3.615603
 20
0.867183
 30
0.0
 10
3.586261
 20
0.874905
 30
0.0
 10
3.558667
 20
0.887522
 30
0.0
 10
3.533632
 20
0.904665
 30
0.0
 10
3.511892
 20
0.925830
 30
0.0
 10
3.494083
 20
0.950396
 30
0.0
 10
3.480730
 20
0.977641
 30
0.0
 10
3.472223
 20
1.006766
 30
0.0
 10
3.468750
 20
1.041667
 30
0.0
 10
3.468750
 20
2.083333
 30
0.0
 10
3.471349
 20
2.113563
 30
0.0
 10
3.479071
 20
2.142906
 30
0.0
 10
3.491689
 20
2.170500
 30
0.0
 10
3.508832
 20
2.195534
 30
0.0
 10
3.529997
 20
2.217275
 30
0.0
 10
3.554562
 20
2.235083
 30
0.0
 10
3.581808
 20
2.248437
 30
0.0
 10
3.610932
 20
2.256943
 30
0.0
 10
3.645833
 20
2.260417
 30
0.0
 10
3.989583
 20
2.260417
 30
0.0
 10
3.989583
 20
2.604167
 30
0.0
 10
3.992183
 20
2.634397
 30
0.0
 10
3.999905
 20
2.663739
 30
0.0
 10
4.012522
 20
2.691333
 30
0.0
 10
4.029665
 20
2.716368
 30
0.0
 10
4.050830
 20
2.738108
 30
0.0
 10
4.075396
 20
2.755917
 30
0.0
 10
4.102641
 20
2.769270
 30
0.0
 10
4.131766
 20
2.777777
 30
0.0
 10
4.161915
 20
2.781186
 30
0.0
 10
4.192204
 20
2.779399
 30
0.0
 10
4.221743
 20
2.772467
 30
0.0
 10
4.249666
 20
2.760595
 30
0.0
 10
4.275151
 20
2.744130
 30
0.0
 10
4.297452
 20
2.723556
 30
0.0
 10
4.315913
 20
2.699477
 30
0.0
 10
4.329993
 20
2.672600
 30
0.0
 10
4.339278
 20
2.643714
 30
0.0
 10
4.343750
 20
2.604167
 30
0.0
 10
4.343750
 20
2.260417
 30
0.0
 10
4.510417
 20
2.260417
 30
0.0
 10
4.510417
 20
2.947917
 30
0.0
 10
4.166667
 20
2.947917
 30
0.0
 10
4.136437
 20
2.950516
 30
0.0
 10
4.107094
 20
2.958238
 30
0.0
 10
4.079500
 20
2.970855
 30
0.0
 10
4.054466
 20
2.987998
 30
0.0
 10
4.032725
 20
3.009163
 30
0.0
 10
4.014917
 20
3.033729
 30
0.0
 10
4.001563
 20
3.060974
 30
0.0
 10
3.993057
 20
3.090099
 30
0.0
 10
3.989647
 20
3.120248
 30
0.0
 10
3.991434
 20
3.150537
 30
0.0
 10
3.998366
 20
3.180077
 30
0.0
 10
4.010239
 20
3.207999
 30
0.0
 10
4.026704
 20
3.233484
 30
0.0
 10
4.047278
 20
3.255785
 30
0.0
 10
4.071357
 20
3.274246
 30
0.0
 10
4.098234
 20
3.288326
 30
0.0
 10
4.127120
 20
3.297611
 30
0.0
 10
4.166667
 20
3.302083
 30
0.0
 10
4.510417
 20
3.302083
 30
0.0
 10
4.510417
 20
3.989583
 30
0.0
 10
4.343750
 20
3.989583
 30
0.0
 10
4.343750
 20
3.645833
 30
0.0
 10
4.342653
 20
3.633077
 30
0.0
 10
4.341899
 20
3.620296
 30
0.0
 10
4.341355
 20
3.617977
 30
0.0
 10
4.341151
 20
3.615603
 30
0.0
 10
4.337892
 20
3.603221
 30
0.0
 10
4.334968
 20
3.590757
 30
0.0
 10
4.334035
 20
3.588564
 30
0.0
 10
4.333429
 20
3.586261
 30
0.0
 10
4.328105
 20
3.574617
 30
0.0
 10
4.323095
 20
3.562834
 30
0.0
 10
4.321802
 20
3.560834
 30
0.0
 10
4.320812
 20
3.558667
 30
0.0
 10
4.313577
 20
3.548102
 30
0.0
 10
4.306630
 20
3.537349
 30
0.0
 10
4.305015
 20
3.535598
 30
0.0
 10
4.303669
 20
3.533632
 30
0.0
 10
4.294737
 20
3.524458
 30
0.0
 10
4.286056
 20
3.515048
 30
0.0
 10
4.284166
 20
3.513599
 30
0.0
 10
4.282504
 20
3.511892
 30
0.0
 10
4.272138
 20
3.504377
 30
0.0
 10
4.261977
 20
3.496587
 30
0.0
 10
4.259867
 20
3.495481
 30
0.0
 10
4.257938
 20
3.494083
 30
0.0
 10
4.246441
 20
3.488448
 30
0.0
 10
4.235100
 20
3.482507
 30
0.0
 10
4.232833
 20
3.481778
 30
0.0
 10
4.230693
 20
3.480729
 30
0.0
 10
4.218401
 20
3.477139
 30
0.0
 10
4.206214
 20
3.473222
 30
0.0
 10
4.204215
 20
3.472996
 30
0.0
 10
4.201568
 20
3.472223
 30
0.0
 10
4.171419
 20
3.468814
 30
0.0
 10
4.168667
 20
3.468976
 30
0.0
 10
4.166667
 20
3.468750
 30
0.0
 10
3.822917
 20
3.468750
 30
0.0
 10
3.822917
 20
2.604167
 30
0.0
 10
3.820317
 20
2.573937
 30
0.0
 10
3.812595
 20
2.544594
 30
0.0
 10
3.799978
 20
2.517000
 30
0.0
 10
3.782835
 20
2.491966
 30
0.0
 10
3.761670
 20
2.470225
 30
0.0
 10
3.737104
 20
2.452417
 30
0.0
 10
3.709859
 20
2.439063
 30
0.0
 10
3.680734
 20
2.430557
 30
0.0
 10
3.650585
 20
2.427147
 30
0.0
 10
3.620296
 20
2.428934
 30
0.0
 10
3.590757
 20
2.435866
 30
0.0
 10
3.562834
 20
2.447739
 30
0.0
 10
3.537349
 20
2.464204
 30
0.0
 10
3.515048
 20
2.484778
 30
0.0
 10
3.496587
 20
2.508857
 30
0.0
 10
3.482507
 20
2.535734
 30
0.0
 10
3.473222
 20
2.564620
 30
0.0
 10
3.468750
 20
2.604167
 30
0.0
 10
3.468750
 20
3.645833
 30
0.0
 10
3.471349
 20
3.676063
 30
0.0
 10
3.479071
 20
3.705406
 30
0.0
 10
3.491689
 20
3.733000
 30
0.0
 10
3.508832
 20
3.758034
 30
0.0
 10
3.529997
 20
3.779775
 30
0.0
 10
3.554562
 20
3.797583
 30
0.0
 10
3.581808
 20
3.810937
 30
0.0
 10
3.610932
 20
3.819443
 30
0.0
 10
3.645833
 20
3.822917
 30
0.0
 10
3.989583
 20
3.822917
 30
0.0
 10
3.989583
 20
5.031250
 30
0.0
 10
3.822917
 20
5.031250
 30
0.0
 10
3.822917
 20
4.166667
 30
0.0
 10
3.820317
 20
4.136437
 30
0.0
 10
3.812595
 20
4.107094
 30
0.0
 10
3.799978
 20
4.079500
 30
0.0
 10
3.782835
 20
4.054466
 30
0.0
 10
3.761670
 20
4.032725
 30
0.0
 10
3.737104
 20
4.014917
 30
0.0
 10
3.709859
 20
4.001563
 30
0.0
 10
3.680734
 20
3.993057
 30
0.0
 10
3.650585
 20
3.989647
 30
0.0
 10
3.620296
 20
3.991434
 30
0.0
 10
3.590757
 20
3.998366
 30
0.0
 10
3.562834
 20
4.010239
 30
0.0
 10
3.537349
 20
4.026704
 30
0.0
 10
3.515048
 20
4.047278
 30
0.0
 10
3.496587
 20
4.071357
 30
0.0
 10
3.482507
 20
4.098234
 30
0.0
 10
3.473222
 20
4.127120
 30
0.0
 10
3.468750
 20
4.166667
 30
0.0
 10
3.468750
 20
4.510417
 30
0.0
 10
3.302083
 20
4.510417
 30
0.0
 10
3.302083
 20
1.562500
 30
0.0
 10
3.299484
 20
1.532270
 30
0.0
 10
3.291762
 20
1.502927
 30
0.0
 10
3.279145
 20
1.475334
 30
0.0
 10
3.262002
 20
1.450299
 30
0.0
 10
3.240837
 20
1.428558
 30
0.0
 10
3.216271
 20
1.410750
 30
0.0
 10
3.189026
 20
1.397396
 30
0.0
 10
3.159901
 20
1.388890
 30
0.0
 10
3.125000
 20
1.385417
 30
0.0
 10
2.781250
 20
1.385417
 30
0.0
 10
2.781250
 20
1.218750
 30
0.0
 10
3.125000
 20
1.218750
 30
0.0
 10
3.155230
 20
1.216151
 30
0.0
 10
3.184573
 20
1.208429
 30
0.0
 10
3.212166
 20
1.195811
 30
0.0
 10
3.237201
 20
1.178668
 30
0.0
 10
3.258942
 20
1.157503
 30
0.0
 10
3.276750
 20
1.132938
 30
0.0
 10
3.290104
 20
1.105692
 30
0.0
 10
3.298610
 20
1.076568
 30
0.0
 10
3.302020
 20
1.046418
 30
0.0
 10
3.300232
 20
1.016129
 30
0.0
 10
3.293301
 20
0.986590
 30
0.0
 10
3.281428
 20
0.958668
 30
0.0
 10
3.264963
 20
0.933182
 30
0.0
 10
3.244389
 20
0.910881
 30
0.0
 10
3.220310
 20
0.892420
 30
0.0
 10
3.193433
 20
0.878341
 30
0.0
 10
3.164547
 20
0.869056
 30
0.0
 10
3.125000
 20
0.864583
 30
0.0
 10
2.083333
 20
0.864583
 30
0.0
 10
2.053103
 20
0.867183
 30
0.0
 10
2.023761
 20
0.874905
 30
0.0
 10
1.996167
 20
0.887522
 30
0.0
 10
1.971132
 20
0.904665
 30
0.0
 10
1.949392
 20
0.925830
 30
0.0
 10
1.931583
 20
0.950396
 30
0.0
 10
1.918230
 20
0.977641
 30
0.0
 10
1.909723
 20
1.006766
 30
0.0
 10
1.906314
 20
1.036915
 30
0.0
 10
1.908101
 20
1.067204
 30
0.0
 10
1.915033
 20
1.096743
 30
0.0
 10
1.926905
 20
1.124666
 30
0.0
 10
1.943370
 20
1.150151
 30
0.0
 10
1.963944
 20
1.172452
 30
0.0
 10
1.988023
 20
1.190913
 30
0.0
 10
2.014900
 20
1.204993
 30
0.0
 10
2.043786
 20
1.214278
 30
0.0
 10
2.083333
 20
1.218750
 30
0.0
 10
2.427083
 20
1.218750
 30
0.0
 10
2.427083
 20
1.385417
 30
0.0
 10
2.083333
 20
1.385417
 30
0.0
 10
2.053103
 20
1.388016
 30
0.0
 10
2.023761
 20
1.395738
 30
0.0
 10
1.996167
 20
1.408355
 30
0.0
 10
1.971132
 20
1.425498
 30
0.0
 10
1.949392
 20
1.446663
 30
0.0
 10
1.931583
 20
1.471229
 30
0.0
 10
1.918230
 20
1.498474
 30
0.0
 10
1.909723
 20
1.527599
 30
0.0
 10
1.906314
 20
1.557748
 30
0.0
 10
1.908101
 20
1.588037
 30
0.0
 10
1.915033
 20
1.617577
 30
0.0
 10
1.926905
 20
1.645499
 30
0.0
 10
1.943370
 20
1.670984
 30
0.0
 10
1.963944
 20
1.693285
 30
0.0
 10
1.988023
 20
1.711746
 30
0.0
 10
2.014900
 20
1.725826
 30
0.0
 10
2.043786
 20
1.735111
 30
0.0
 10
2.083333
 20
1.739583
 30
0.0
 10
2.947917
 20
1.739583
 30
0.0
 10
2.947917
 20
3.468750
 30
0.0
 10
2.781250
 20
3.468750
 30
0.0
 10
2.781250
 20
2.083333
 30
0.0
 10
2.778651
 20
2.053103
 30
0.0
 10
2.770929
 20
2.023761
 30
0.0
 10
2.758311
 20
1.996167
 30
0.0
 10
2.741168
 20
1.971132
 30
0.0
 10
2.720003
 20
1.949392
 30
0.0
 10
2.695438
 20
1.931583
 30
0.0
 10
2.668192
 20
1.918230
 30
0.0
 10
2.639068
 20
1.909723
 30
0.0
 10
2.604167
 20
1.906250
 30
0.0
 10
1.739583
 20
1.906250
 30
0.0
 10
1.739583
 20
1.562500
 30
0.0
 10
1.736984
 20
1.532270
 30
0.0
 10
1.729262
 20
1.502927
 30
0.0
 10
1.716645
 20
1.475334
 30
0.0
 10
1.699502
 20
1.450299
 30
0.0
 10
1.678337
 20
1.428558
 30
0.0
 10
1.653771
 20
1.410750
 30
0.0
 10
1.626526
 20
1.397396
 30
0.0
 10
1.597401
 20
1.388890
 30
0.0
 10
1.562500
 20
1.385417
 30
0.0
 10
1.218750
 20
1.385417
 30
0.0
 10
1.218750
 20
1.218750
 30
0.0
 10
1.562500
 20
1.218750
 30
0.0
 10
1.592730
 20
1.216151
 30
0.0
 10
1.622073
 20
1.208429
 30
0.0
 10
1.649666
 20
1.195811
 30
0.0
 10
1.674701
 20
1.178668
 30
0.0
 10
1.696442
 20
1.157503
 30
0.0
 10
1.714250
 20
1.132938
 30
0.0
 10
1.727604
 20
1.105692
 30
0.0
 10
1.736110
 20
1.076568
 30
0.0
 10
1.739520
 20
1.046418
 30
0.0
 10
1.737732
 20
1.016129
 30
0.0
 10
1.730801
 20
0.986590
 30
0.0
 10
1.718928
 20
0.958668
 30
0.0
 10
1.702463
 20
0.933182
 30
0.0
 10
1.681889
 20
0.910881
 30
0.0
 10
1.657810
 20
0.892420
 30
0.0
 10
1.630933
 20
0.878341
 30
0.0
 10
1.602047
 20
0.869056
 30
0.0
 10
1.562500
 20
0.864583
 30
0.0
 10
1.041667
 20
0.864583
 30
0.0
 10
1.011437
 20
0.867183
 30
0.0
 10
0.982094
 20
0.874905
 30
0.0
 10
0.954500
 20
0.887522
 30
0.0
 10
0.929466
 20
0.904665
 30
0.0
 10
0.907725
 20
0.925830
 30
0.0
 10
0.889917
 20
0.950396
 30
0.0
 10
0.876563
 20
0.977641
 30
0.0
 10
0.868057
 20
1.006766
 30
0.0
 10
0.864583
 20
1.041667
 30
0.0
 10
0.864583
 20
1.562500
 30
0.0
 10
0.867183
 20
1.592730
 30
0.0
 10
0.874905
 20
1.622073
 30
0.0
 10
0.887522
 20
1.649666
 30
0.0
 10
0.904665
 20
1.674701
 30
0.0
 10
0.925830
 20
1.696442
 30
0.0
 10
0.950396
 20
1.714250
 30
0.0
 10
0.977641
 20
1.727604
 30
0.0
 10
1.006766
 20
1.736110
 30
0.0
 10
1.041667
 20
1.739583
 30
0.0
 10
1.385417
 20
1.739583
 30
0.0
 10
1.385417
 20
1.906250
 30
0.0
 10
1.041667
 20
1.906250
 30
0.0
 10
1.011437
 20
1.908849
 30
0.0
 10
0.982094
 20
1.916571
 30
0.0
 10
0.954500
 20
1.929189
 30
0.0
 10
0.929466
 20
1.946332
 30
0.0
 10
0.907725
 20
1.967497
 30
0.0
 10
0.889917
 20
1.992062
 30
0.0
 10
0.876563
 20
2.019308
 30
0.0
 10
0.868057
 20
2.048432
 30
0.0
 10
0.864647
 20
2.078582
 30
0.0
 10
0.866434
 20
2.108871
 30
0.0
 10
0.873366
 20
2.138410
 30
0.0
 10
0.885239
 20
2.166332
 30
0.0
 10
0.901704
 20
2.191818
 30
0.0
 10
0.922278
 20
2.214119
 30
0.0
 10
0.946357
 20
2.232580
 30
0.0
 10
0.973234
 20
2.246659
 30
0.0
 10
1.002120
 20
2.255944
 30
0.0
 10
1.041667
 20
2.260417
 30
0.0
 10
2.427083
 20
2.260417
 30
0.0
 10
2.427083
 20
2.427083
 30
0.0
 10
1.041667
 20
2.427083
 30
0.0
 10
1.011437
 20
2.429683
 30
0.0
 10
0.982094
 20
2.437405
 30
0.0
 10
0.954500
 20
2.450022
 30
0.0
 10
0.929466
 20
2.467165
 30
0.0
 10
0.907725
 20
2.488330
 30
0.0
 10
0.889917
 20
2.512896
 30
0.0
 10
0.876563
 20
2.540141
 30
0.0
 10
0.868057
 20
2.569266
 30
0.0
 10
0.864647
 20
2.599415
 30
0.0
 10
0.866434
 20
2.629704
 30
0.0
 10
0.873366
 20
2.659243
 30
0.0
 10
0.885239
 20
2.687166
 30
0.0
 10
0.901704
 20
2.712651
 30
0.0
 10
0.922278
 20
2.734952
 30
0.0
 10
0.946357
 20
2.753413
 30
0.0
 10
0.973234
 20
2.767493
 30
0.0
 10
1.002120
 20
2.776778
 30
0.0
 10
1.041667
 20
2.781250
 30
0.0
 10
2.427083
 20
2.781250
 30
0.0
 10
2.427083
 20
3.468750
 30
0.0
 10
2.260417
 20
3.468750
 30
0.0
 10
2.260417
 20
3.125000
 30
0.0
 10
2.257817
 20
3.094770
 30
0.0
 10
2.250095
 20
3.065427
 30
0.0
 10
2.237478
 20
3.037834
 30
0.0
 10
2.220335
 20
3.012799
 30
0.0
 10
2.199170
 20
2.991058
 30
0.0
 10
2.174604
 20
2.973250
 30
0.0
 10
2.147359
 20
2.959896
 30
0.0
 10
2.118234
 20
2.951390
 30
0.0
 10
2.088085
 20
2.947980
 30
0.0
 10
2.057796
 20
2.949768
 30
0.0
 10
2.028257
 20
2.956699
 30
0.0
 10
2.000334
 20
2.968572
 30
0.0
 10
1.974849
 20
2.985037
 30
0.0
 10
1.952548
 20
3.005611
 30
0.0
 10
1.934087
 20
3.029690
 30
0.0
 10
1.920007
 20
3.056567
 30
0.0
 10
1.910722
 20
3.085453
 30
0.0
 10
1.906250
 20
3.125000
 30
0.0
 10
1.906250
 20
3.468750
 30
0.0
 10
1.739583
 20
3.468750
 30
0.0
 10
1.739583
 20
3.125000
 30
0.0
 10
1.736984
 20
3.094770
 30
0.0
 10
1.729262
 20
3.065427
 30
0.0
 10
1.716645
 20
3.037834
 30
0.0
 10
1.699502
 20
3.012799
 30
0.0
 10
1.678337
 20
2.991058
 30
0.0
 10
1.653771
 20
2.973250
 30
0.0
 10
1.626526
 20
2.959896
 30
0.0
 10
1.597401
 20
2.951390
 30
0.0
 10
1.562500
 20
2.947917
 30
0.0
 10
1.041667
 20
2.947917
 30
0.0
 10
1.011437
 20
2.950516
 30
0.0
 10
0.982094
 20
2.958238
 30
0.0
 10
0.954500
 20
2.970855
 30
0.0
 10
0.929466
 20
2.987998
 30
0.0
 10
0.907725
 20
3.009163
 30
0.0
 10
0.889917
 20
3.033729
 30
0.0
 10
0.876563
 20
3.060974
 30
0.0
 10
0.868057
 20
3.090099
 30
0.0
 10
0.864647
 20
3.120248
 30
0.0
 10
0.866434
 20
3.150537
 30
0.0
 10
0.873366
 20
3.180077
 30
0.0
 10
0.885239
 20
3.207999
 30
0.0
 10
0.901704
 20
3.233484
 30
0.0
 10
0.922278
 20
3.255785
 30
0.0
 10
0.946357
 20
3.274246
 30
0.0
 10
0.973234
 20
3.288326
 30
0.0
 10
1.002120
 20
3.297611
 30
0.0
 10
1.041667
 20
3.302083
 30
0.0
 10
1.385417
 20
3.302083
 30
0.0
 10
1.385417
 20
3.645833
 30
0.0
 10
1.388016
 20
3.676063
 30
0.0
 10
1.395738
 20
3.705406
 30
0.0
 10
1.408355
 20
3.733000
 30
0.0
 10
1.425498
 20
3.758034
 30
0.0
 10
1.446663
 20
3.779775
 30
0.0
 10
1.471229
 20
3.797583
 30
0.0
 10
1.498474
 20
3.810937
 30
0.0
 10
1.527599
 20
3.819443
 30
0.0
 10
1.562500
 20
3.822917
 30
0.0
 10
2.947917
 20
3.822917
 30
0.0
 10
2.947917
 20
4.510417
 30
0.0
 10
2.781250
 20
4.510417
 30
0.0
 10
2.781250
 20
4.166667
 30
0.0
 10
2.778651
 20
4.136437
 30
0.0
 10
2.770929
 20
4.107094
 30
0.0
 10
2.758311
 20
4.079500
 30
0.0
 10
2.741168
 20
4.054466
 30
0.0
 10
2.720003
 20
4.032725
 30
0.0
 10
2.695438
 20
4.014917
 30
0.0
 10
2.668192
 20
4.001563
 30
0.0
 10
2.639068
 20
3.993057
 30
0.0
 10
2.604167
 20
3.989583
 30
0.0
 10
1.562500
 20
3.989583
 30
0.0
 10
1.532270
 20
3.992183
 30
0.0
 10
1.502927
 20
3.999905
 30
0.0
 10
1.475334
 20
4.012522
 30
0.0
 10
1.450299
 20
4.029665
 30
0.0
 10
1.428558
 20
4.050830
 30
0.0
 10
1.410750
 20
4.075396
 30
0.0
 10
1.397396
 20
4.102641
 30
0.0
 10
1.388890
 20
4.131766
 30
0.0
 10
1.385480
 20
4.161915
 30
0.0
 10
1.387268
 20
4.192204
 30
0.0
 10
1.394199
 20
4.221743
 30
0.0
 10
1.406072
 20
4.249666
 30
0.0
 10
1.422537
 20
4.275151
 30
0.0
 10
1.443111
 20
4.297452
 30
0.0
 10
1.467190
 20
4.315913
 30
0.0
 10
1.494067
 20
4.329993
 30
0.0
 10
1.522953
 20
4.339278
 30
0.0
 10
1.562500
 20
4.343750
 30
0.0
 10
2.427083
 20
4.343750
 30
0.0
 10
2.427083
 20
4.510417
 30
0.0
 10
1.218750
 20
4.510417
 30
0.0
 10
1.218750
 20
3.645833
 30
0.0
 10
1.216151
 20
3.615603
 30
0.0
 10
1.208429
 20
3.586261
 30
0.0
 10
1.195811
 20
3.558667
 30
0.0
 10
1.178668
 20
3.533632
 30
0.0
 10
1.157503
 20
3.511892
 30
0.0
 10
1.132938
 20
3.494083
 30
0.0
 10
1.105692
 20
3.480730
 30
0.0
 10
1.076568
 20
3.472223
 30
0.0
 10
1.046418
 20
3.468814
 30
0.0
 10
1.016129
 20
3.470601
 30
0.0
 10
0.986590
 20
3.477533
 30
0.0
 10
0.958668
 20
3.489405
 30
0.0
 10
0.933182
 20
3.505870
 30
0.0
 10
0.910881
 20
3.526444
 30
0.0
 10
0.892420
 20
3.550523
 30
0.0
 10
0.878341
 20
3.577400
 30
0.0
 10
0.869056
 20
3.606286
 30
0.0
 10
0.864583
 20
3.645833
 30
0.0
 10
0.864583
 20
4.687500
 30
0.0
 10
0.867183
 20
4.717730
 30
0.0
 10
0.874905
 20
4.747073
 30
0.0
 10
0.887522
 20
4.774666
 30
0.0
 10
0.904665
 20
4.799701
 30
0.0
 10
0.925830
 20
4.821442
 30
0.0
 10
0.950396
 20
4.839250
 30
0.0
 10
0.977641
 20
4.852604
 30
0.0
 10
1.006766
 20
4.861110
 30
0.0
 10
1.041667
 20
4.864583
 30
0.0
 10
1.385417
 20
4.864583
 30
0.0
 10
1.385417
 20
5.031250
 30
0.0
 10
1.041667
 20
5.031250
 30
0.0
 10
1.011437
 20
5.033849
 30
0.0
 10
0.982094
 20
5.041571
 30
0.0
 10
0.954500
 20
5.054189
 30
0.0
 10
0.929466
 20
5.071332
 30
0.0
 10
0.907725
 20
5.092497
 30
0.0
 10
0.889917
 20
5.117062
 30
0.0
 10
0.876563
 20
5.144308
 30
0.0
 10
0.868057
 20
5.173432
 30
0.0
 10
0.864647
 20
5.203582
 30
0.0
 10
0.866434
 20
5.233871
 30
0.0
 10
0.873366
 20
5.263410
 30
0.0
 10
0.885239
 20
5.291332
 30
0.0
 10
0.901704
 20
5.316818
 30
0.0
 10
0.922278
 20
5.339119
 30
0.0
 10
0.946357
 20
5.357580
 30
0.0
 10
0.973234
 20
5.371659
 30
0.0
 10
1.002120
 20
5.380944
 30
0.0
 10
1.041667
 20
5.385417
 30
0.0
 10
1.385417
 20
5.385417
 30
0.0
 10
1.385417
 20
5.552083
 30
0.0
 10
1.041667
 20
5.552083
 30
0.0
 10
1.011437
 20
5.554683
 30
0.0
 10
0.982094
 20
5.562405
 30
0.0
 10
0.954500
 20
5.575022
 30
0.0
 10
0.929466
 20
5.592165
 30
0.0
 10
0.907725
 20
5.613330
 30
0.0
 10
0.889917
 20
5.637896
 30
0.0
 10
0.876563
 20
5.665141
 30
0.0
 10
0.868057
 20
5.694266
 30
0.0
 10
0.864583
 20
5.729167
 30
0.0
 10
0.864583
 20
7.291667
 30
0.0
 10
0.867183
 20
7.321897
 30
0.0
 10
0.874905
 20
7.351239
 30
0.0
 10
0.887522
 20
7.378833
 30
0.0
 10
0.904665
 20
7.403868
 30
0.0
 10
0.925830
 20
7.425608
 30
0.0
 10
0.950396
 20
7.443417
 30
0.0
 10
0.977641
 20
7.456770
 30
0.0
 10
1.006766
 20
7.465277
 30
0.0
 10
1.036915
 20
7.468686
 30
0.0
 10
1.067204
 20
7.466899
 30
0.0
 10
1.096743
 20
7.459967
 30
0.0
 10
1.124666
 20
7.448095
 30
0.0
 10
1.150151
 20
7.431630
 30
0.0
 10
1.172452
 20
7.411056
 30
0.0
 10
1.190913
 20
7.386977
 30
0.0
 10
1.204993
 20
7.360100
 30
0.0
 10
1.214278
 20
7.331214
 30
0.0
 10
1.218750
 20
7.291667
 30
0.0
 10
1.218750
 20
5.906250
 30
0.0
 10
1.562500
 20
5.906250
 30
0.0
 10
1.592730
 20
5.903651
 30
0.0
 10
1.622073
 20
5.895929
 30
0.0
 10
1.649666
 20
5.883311
 30
0.0
 10
1.674701
 20
5.866168
 30
0.0
 10
1.696442
 20
5.845003
 30
0.0
 10
1.714250
 20
5.820438
 30
0.0
 10
1.727604
 20
5.793192
 30
0.0
 10
1.736110
 20
5.764068
 30
0.0
 10
1.739583
 20
5.729167
 30
0.0
 10
1.739583
 20
4.864583
 30
0.0
 10
1.906250
 20
4.864583
 30
0.0
 10
1.906250
 20
5.208333
 30
0.0
 10
1.908849
 20
5.238563
 30
0.0
 10
1.916571
 20
5.267906
 30
0.0
 10
1.929189
 20
5.295500
 30
0.0
 10
1.946332
 20
5.320534
 30
0.0
 10
1.967497
 20
5.342275
 30
0.0
 10
1.992062
 20
5.360083
 30
0.0
 10
2.019308
 20
5.373437
 30
0.0
 10
2.048432
 20
5.381943
 30
0.0
 10
2.078582
 20
5.385353
 30
0.0
 10
2.108871
 20
5.383566
 30
0.0
 10
2.138410
 20
5.376634
 30
0.0
 10
2.166332
 20
5.364761
 30
0.0
 10
2.191818
 20
5.348296
 30
0.0
 10
2.214119
 20
5.327722
 30
0.0
 10
2.232580
 20
5.303643
 30
0.0
 10
2.246659
 20
5.276766
 30
0.0
 10
2.255944
 20
5.247880
 30
0.0
 10
2.260417
 20
5.208333
 30
0.0
 10
2.260417
 20
4.864583
 30
0.0
 10
3.468750
 20
4.864583
 30
0.0
 10
3.468750
 20
5.208333
 30
0.0
 10
3.471349
 20
5.238563
 30
0.0
 10
3.479071
 20
5.267906
 30
0.0
 10
3.491689
 20
5.295500
 30
0.0
 10
3.508832
 20
5.320534
 30
0.0
 10
3.529997
 20
5.342275
 30
0.0
 10
3.554562
 20
5.360083
 30
0.0
 10
3.581808
 20
5.373437
 30
0.0
 10
3.610932
 20
5.381943
 30
0.0
 10
3.645833
 20
5.385417
 30
0.0
 10
3.989583
 20
5.385417
 30
0.0
 10
3.989583
 20
5.552083
 30
0.0
 10
3.302083
 20
5.552083
 30
0.0
 10
3.302083
 20
5.208333
 30
0.0
 10
3.299484
 20
5.178103
 30
0.0
 10
3.291762
 20
5.148761
 30
0.0
 10
3.279145
 20
5.121167
 30
0.0
 10
3.262002
 20
5.096132
 30
0.0
 10
3.240837
 20
5.074392
 30
0.0
 10
3.216271
 20
5.056583
 30
0.0
 10
3.189026
 20
5.043230
 30
0.0
 10
3.159901
 20
5.034723
 30
0.0
 10
3.125000
 20
5.031250
 30
0.0
 10
2.604167
 20
5.031250
 30
0.0
 10
2.573937
 20
5.033849
 30
0.0
 10
2.544594
 20
5.041571
 30
0.0
 10
2.517000
 20
5.054189
 30
0.0
 10
2.491966
 20
5.071332
 30
0.0
 10
2.470225
 20
5.092497
 30
0.0
 10
2.452417
 20
5.117062
 30
0.0
 10
2.439063
 20
5.144308
 30
0.0
 10
2.430557
 20
5.173432
 30
0.0
 10
2.427147
 20
5.203582
 30
0.0
 10
2.428934
 20
5.233871
 30
0.0
 10
2.435866
 20
5.263410
 30
0.0
 10
2.447739
 20
5.291332
 30
0.0
 10
2.464204
 20
5.316818
 30
0.0
 10
2.484778
 20
5.339119
 30
0.0
 10
2.508857
 20
5.357580
 30
0.0
 10
2.535734
 20
5.371659
 30
0.0
 10
2.564620
 20
5.380944
 30
0.0
 10
2.604167
 20
5.385417
 30
0.0
 10
2.947917
 20
5.385417
 30
0.0
 10
2.947917
 20
5.552083
 30
0.0
 10
2.083333
 20
5.552083
 30
0.0
 10
2.053103
 20
5.554683
 30
0.0
 10
2.023761
 20
5.562405
 30
0.0
 10
1.996167
 20
5.575022
 30
0.0
 10
1.971132
 20
5.592165
 30
0.0
 10
1.949392
 20
5.613330
 30
0.0
 10
1.931583
 20
5.637896
 30
0.0
 10
1.918230
 20
5.665141
 30
0.0
 10
1.909723
 20
5.694266
 30
0.0
 10
1.906314
 20
5.724415
 30
0.0
 10
1.908101
 20
5.754704
 30
0.0
 10
1.915033
 20
5.784243
 30
0.0
 10
1.926905
 20
5.812166
 30
0.0
 10
1.943370
 20
5.837651
 30
0.0
 10
1.963944
 20
5.859952
 30
0.0
 10
1.988023
 20
5.878413
 30
0.0
 10
2.014900
 20
5.892493
 30
0.0
 10
2.043786
 20
5.901778
 30
0.0
 10
2.083333
 20
5.906250
 30
0.0
 10
3.468750
 20
5.906250
 30
0.0
 10
3.468750
 20
6.072917
 30
0.0
 10
1.562500
 20
6.072917
 30
0.0
 10
1.532270
 20
6.075516
 30
0.0
 10
1.502927
 20
6.083238
 30
0.0
 10
1.475334
 20
6.095855
 30
0.0
 10
1.450299
 20
6.112998
 30
0.0
 10
1.428558
 20
6.134163
 30
0.0
 10
1.410750
 20
6.158729
 30
0.0
 10
1.397396
 20
6.185974
 30
0.0
 10
1.388890
 20
6.215099
 30
0.0
 10
1.385480
 20
6.245248
 30
0.0
 10
1.387268
 20
6.275537
 30
0.0
 10
1.394199
 20
6.305077
 30
0.0
 10
1.406072
 20
6.332999
 30
0.0
 10
1.422537
 20
6.358484
 30
0.0
 10
1.443111
 20
6.380785
 30
0.0
 10
1.467190
 20
6.399246
 30
0.0
 10
1.494067
 20
6.413326
 30
0.0
 10
1.522953
 20
6.422611
 30
0.0
 10
1.562500
 20
6.427083
 30
0.0
 10
2.947917
 20
6.427083
 30
0.0
 10
2.947917
 20
6.593750
 30
0.0
 10
1.562500
 20
6.593750
 30
0.0
 10
1.532270
 20
6.596349
 30
0.0
 10
1.502927
 20
6.604071
 30
0.0
 10
1.475334
 20
6.616689
 30
0.0
 10
1.450299
 20
6.633832
 30
0.0
 10
1.428558
 20
6.654997
 30
0.0
 10
1.410750
 20
6.679562
 30
0.0
 10
1.397396
 20
6.706808
 30
0.0
 10
1.388890
 20
6.735932
 30
0.0
 10
1.385480
 20
6.766082
 30
0.0
 10
1.387268
 20
6.796371
 30
0.0
 10
1.394199
 20
6.825910
 30
0.0
 10
1.406072
 20
6.853832
 30
0.0
 10
1.422537
 20
6.879318
 30
0.0
 10
1.443111
 20
6.901619
 30
0.0
 10
1.467190
 20
6.920080
 30
0.0
 10
1.494067
 20
6.934159
 30
0.0
 10
1.522953
 20
6.943444
 30
0.0
 10
1.562500
 20
6.947917
 30
0.0
 10
1.906250
 20
6.947917
 30
0.0
 10
1.906250
 20
7.114583
 30
0.0
 10
1.562500
 20
7.114583
 30
0.0
 10
1.532270
 20
7.117183
 30
0.0
 10
1.502927
 20
7.124905
 30
0.0
 10
1.475334
 20
7.137522
 30
0.0
 10
1.450299
 20
7.154665
 30
0.0
 10
1.428558
 20
7.175830
 30
0.0
 10
1.410750
 20
7.200396
 30
0.0
 10
1.397396
 20
7.227641
 30
0.0
 10
1.388890
 20
7.256766
 30
0.0
 10
1.385480
 20
7.286915
 30
0.0
 10
1.387268
 20
7.317204
 30
0.0
 10
1.394199
 20
7.346743
 30
0.0
 10
1.406072
 20
7.374666
 30
0.0
 10
1.422537
 20
7.400151
 30
0.0
 10
1.443111
 20
7.422452
 30
0.0
 10
1.467190
 20
7.440913
 30
0.0
 10
1.494067
 20
7.454993
 30
0.0
 10
1.522953
 20
7.464278
 30
0.0
 10
1.562500
 20
7.468750
 30
0.0
 10
1.906250
 20
7.468750
 30
0.0
 10
1.906250
 20
7.635417
 30
0.0
 10
1.041667
 20
7.635417
 30
0.0
 10
1.011437
 20
7.638016
 30
0.0
 10
0.982094
 20
7.645738
 30
0.0
 10
0.954500
 20
7.658355
 30
0.0
 10
0.929466
 20
7.675498
 30
0.0
 10
0.907725
 20
7.696663
 30
0.0
 10
0.889917
 20
7.721229
 30
0.0
 10
0.876563
 20
7.748474
 30
0.0
 10
0.868057
 20
7.777599
 30
0.0
 10
0.864583
 20
7.812500
 30
0.0
 10
0.864583
 20
8.333333
 30
0.0
 10
0.867183
 20
8.363563
 30
0.0
 10
0.874905
 20
8.392906
 30
0.0
 10
0.887522
 20
8.420500
 30
0.0
 10
0.904665
 20
8.445534
 30
0.0
 10
0.925830
 20
8.467275
 30
0.0
 10
0.950396
 20
8.485083
 30
0.0
 10
0.977641
 20
8.498437
 30
0.0
 10
1.006766
 20
8.506943
 30
0.0
 10
1.036915
 20
8.510353
 30
0.0
 10
1.067204
 20
8.508566
 30
0.0
 10
1.096743
 20
8.501634
 30
0.0
 10
1.124666
 20
8.489761
 30
0.0
 10
1.150151
 20
8.473296
 30
0.0
 10
1.172452
 20
8.452722
 30
0.0
 10
1.190913
 20
8.428643
 30
0.0
 10
1.204993
 20
8.401766
 30
0.0
 10
1.214278
 20
8.372880
 30
0.0
 10
1.218750
 20
8.333333
 30
0.0
 10
1.218750
 20
7.989583
 30
0.0
 10
1.906250
 20
7.989583
 30
0.0
 10
1.906250
 20
8.156250
 30
0.0
 10
1.562500
 20
8.156250
 30
0.0
 10
1.532270
 20
8.158849
 30
0.0
 10
1.502927
 20
8.166571
 30
0.0
 10
1.475334
 20
8.179189
 30
0.0
 10
1.450299
 20
8.196332
 30
0.0
 10
1.428558
 20
8.217497
 30
0.0
 10
1.410750
 20
8.242062
 30
0.0
 10
1.397396
 20
8.269308
 30
0.0
 10
1.388890
 20
8.298432
 30
0.0
 10
1.385480
 20
8.328582
 30
0.0
 10
1.387268
 20
8.358871
 30
0.0
 10
1.394199
 20
8.388410
 30
0.0
 10
1.406072
 20
8.416332
 30
0.0
 10
1.422537
 20
8.441818
 30
0.0
 10
1.443111
 20
8.464119
 30
0.0
 10
1.467190
 20
8.482580
 30
0.0
 10
1.494067
 20
8.496659
 30
0.0
 10
1.522953
 20
8.505944
 30
0.0
 10
1.562500
 20
8.510417
 30
0.0
 10
3.125000
 20
8.510417
 30
0.0
  0
ENDSEC
  0
SECTION
  2
OBJECTS
  0
DICTIONARY
  5
C
330
0
100
AcDbDictionary
  3
ACAD_GROUP
350
D
  3
ACAD_MLINESTYLE
350
17
  0
DICTIONARY
  5
D
330
C
100
AcDbDictionary
  0
DICTIONARY
  5
1A
330
C
100
AcDbDictionary
  0
DICTIONARY
  5
17
330
C
100
AcDbDictionary
  3
STANDARD
350
18
  0
DICTIONARY
  5
19
330
C
100
AcDbDictionary
  0
ENDSEC
  0
EOF
