  0
SECTION
  2
HEADER
  9
$ACADVER
  1
AC1014
  9
$HANDSEED
  5
FFFF
  9
$INSUNITS
 70
     1
  9
$MEASUREMENT
 70
     1
  0
ENDSEC
  0
SECTION
  2
TABLES
  0
TABLE
  2
VPORT
  5
8
330
0
100
AcDbSymbolTable
 70
     4
  0
VPORT
  5
2E
330
8
100
AcDbSymbolTableRecord
100
AcDbViewportTableRecord
  2
*ACTIVE
 70
     0
 10
0.0
 20
0.0
 11
1.0
 21
1.0
 12
210.0
 22
148.5
 13
0.0
 23
0.0
 14
10.0
 24
10.0
 15
10.0
 25
10.0
 16
0.0
 26
0.0
 36
1.0
 17
0.0
 27
0.0
 37
0.0
 40
341.0
 41
1.24
 42
50.0
 43
0.0
 44
0.0
 50
0.0
 51
0.0
 71
     0
 72
   100
 73
     1
 74
     3
 75
     0
 76
     0
 77
     0
 78
     0
  0
ENDTAB
  0
TABLE
  2
LTYPE
  5
5
330
0
100
AcDbSymbolTable
 70
     1
  0
LTYPE
  5
14
330
5
100
AcDbSymbolTableRecord
100
AcDbLinetypeTableRecord
  2
BYBLOCK
 70
     0
  3

 72
    65
 73
     0
 40
0.0
  0
LTYPE
  5
15
330
5
100
AcDbSymbolTableRecord
100
AcDbLinetypeTableRecord
  2
BYLAYER
 70
     0
  3

 72
    65
 73
     0
 40
0.0
  0
LTYPE
  5
16
330
5
100
AcDbSymbolTableRecord
100
AcDbLinetypeTableRecord
  2
CONTINUOUS
 70
     0
  3
Solid line
 72
    65
 73
     0
 40
0.0
  0
ENDTAB
  0
TABLE
  2
LAYER
  5
2
100
AcDbSymbolTable
 70
1
  0
LAYER
  5
50
100
AcDbSymbolTableRecord
100
AcDbLayerTableRecord
  2
0
 70
0
  6
CONTINUOUS
  0
ENDTAB
  0
TABLE
  2
STYLE
  5
3
330
0
100
AcDbSymbolTable
 70
     1
  0
STYLE
  5
11
330
3
100
AcDbSymbolTableRecord
100
AcDbTextStyleTableRecord
  2
STANDARD
 70
     0
 40
0.0
 41
1.0
 50
0.0
 71
     0
 42
2.5
  3
txt
  4

  0
ENDTAB
  0
TABLE
  2
VIEW
  5
6
330
0
100
AcDbSymbolTable
 70
     0
  0
ENDTAB
  0
TABLE
  2
UCS
  5
7
330
0
100
AcDbSymbolTable
 70
     0
  0
ENDTAB
  0
TABLE
  2
APPID
  5
9
330
0
100
AcDbSymbolTable
 70
     2
  0
APPID
  5
12
330
9
100
AcDbSymbolTableRecord
100
AcDbRegAppTableRecord
  2
ACAD
 70
     0
  0
ENDTAB
  0
TABLE
  2
DIMSTYLE
  5
A
330
0
100
AcDbSymbolTable
 70
     1
  0
DIMSTYLE
105
27
330
A
100
AcDbSymbolTableRecord
100
AcDbDimStyleTableRecord
  2
ISO-25
 70
     0
  3

  4

  5

  6

  7

 40
1.0
 41
2.5
 42
0.625
 43
3.75
 44
1.25
 45
0.0
 46
0.0
 47
0.0
 48
0.0
140
2.5
141
2.5
142
0.0
143
0.03937007874016
144
1.0
145
0.0
146
1.0
147
0.625
 71
     0
 72
     0
 73
     0
 74
     0
 75
     0
 76
     0
 77
     1
 78
     8
170
     0
171
     3
172
     1
173
     0
174
     0
175
     0
176
     0
177
     0
178
     0
270
     2
271
     2
272
     2
273
     2
274
     3
340
11
275
     0
280
     0
281
     0
282
     0
283
     0
284
     8
285
     0
286
     0
287
     3
288
     0
  0
ENDTAB
  0
TABLE
  2
BLOCK_RECORD
  5
1
330
0
100
AcDbSymbolTable
 70
     1
  0
BLOCK_RECORD
  5
1F
330
1
100
AcDbSymbolTableRecord
100
AcDbBlockTableRecord
  2
*MODEL_SPACE
  0
BLOCK_RECORD
  5
1B
330
1
100
AcDbSymbolTableRecord
100
AcDbBlockTableRecord
  2
*PAPER_SPACE
  0
ENDTAB
  0
ENDSEC
  0
SECTION
  2
BLOCKS
  0
BLOCK
  5
20
330
1F
100
AcDbEntity
  8
0
100
AcDbBlockBegin
  2
*MODEL_SPACE
 70
     0
 10
0.0
 20
0.0
 30
0.0
  3
*MODEL_SPACE
  1

  0
ENDBLK
  5
21
330
1F
100
AcDbEntity
  8
0
100
AcDbBlockEnd
  0
BLOCK
  5
1C
330
1B
100
AcDbEntity
 67
     1
  8
0
100
AcDbBlockBegin
  2
*PAPER_SPACE
  1

  0
ENDBLK
  5
1D
330
1B
100
AcDbEntity
 67
     1
  8
0
100
AcDbBlockEnd
  0
ENDSEC
  0
SECTION
  2
ENTITIES
  0
LWPOLYLINE
  5
100
100
AcDbEntity
  8
0
 62
7
100
AcDbPolyline
 90
783
 70
1
 10
3.937364
 20
6.695317
 30
0.0
 10
3.967616
 20
6.687590
 30
0.0
 10
3.996166
 20
6.674950
 30
0.0
 10
4.022223
 20
6.657748
 30
0.0
 10
4.045064
 20
6.636460
 30
0.0
 10
4.064055
 20
6.611678
 30
0.0
 10
4.078671
 20
6.584087
 30
0.0
 10
4.088505
 20
6.554453
 30
0.0
 10
4.093750
 20
6.510417
 30
0.0
 10
4.093750
 20
6.177083
 30
0.0
 10
4.239583
 20
6.177083
 30
0.0
 10
4.239583
 20
6.510417
 30
0.0
 10
4.242183
 20
6.541531
 30
0.0
 10
4.249910
 20
6.571783
 30
0.0
 10
4.262550
 20
6.600333
 30
0.0
 10
4.279752
 20
6.626389
 30
0.0
 10
4.301040
 20
6.649230
 30
0.0
 10
4.325822
 20
6.668222
 30
0.0
 10
4.353413
 20
6.682837
 30
0.0
 10
4.383047
 20
6.692672
 30
0.0
 10
4.413901
 20
6.697453
 30
0.0
 10
4.445122
 20
6.697048
 30
0.0
 10
4.475842
 20
6.691467
 30
0.0
 10
4.505210
 20
6.680865
 30
0.0
 10
4.532411
 20
6.665538
 30
0.0
 10
4.556692
 20
6.645908
 30
0.0
 10
4.577379
 20
6.622522
 30
0.0
 10
4.593898
 20
6.596027
 30
0.0
 10
4.605792
 20
6.567158
 30
0.0
 10
4.612730
 20
6.536716
 30
0.0
 10
4.614583
 20
6.510417
 30
0.0
 10
4.614583
 20
5.656250
 30
0.0
 10
4.760417
 20
5.656250
 30
0.0
 10
4.760417
 20
6.510417
 30
0.0
 10
4.763016
 20
6.541531
 30
0.0
 10
4.770743
 20
6.571783
 30
0.0
 10
4.783383
 20
6.600333
 30
0.0
 10
4.800585
 20
6.626389
 30
0.0
 10
4.821873
 20
6.649230
 30
0.0
 10
4.846656
 20
6.668222
 30
0.0
 10
4.874246
 20
6.682837
 30
0.0
 10
4.903880
 20
6.692672
 30
0.0
 10
4.947917
 20
6.697917
 30
0.0
 10
5.468750
 20
6.697917
 30
0.0
 10
5.499864
 20
6.695317
 30
0.0
 10
5.530116
 20
6.687590
 30
0.0
 10
5.558666
 20
6.674950
 30
0.0
 10
5.584723
 20
6.657748
 30
0.0
 10
5.607564
 20
6.636460
 30
0.0
 10
5.626555
 20
6.611678
 30
0.0
 10
5.641171
 20
6.584087
 30
0.0
 10
5.651005
 20
6.554453
 30
0.0
 10
5.655786
 20
6.523599
 30
0.0
 10
5.655381
 20
6.492378
 30
0.0
 10
5.649800
 20
6.461658
 30
0.0
 10
5.639199
 20
6.432290
 30
0.0
 10
5.623871
 20
6.405089
 30
0.0
 10
5.604242
 20
6.380808
 30
0.0
 10
5.580855
 20
6.360121
 30
0.0
 10
5.554360
 20
6.343602
 30
0.0
 10
5.525491
 20
6.331708
 30
0.0
 10
5.495049
 20
6.324770
 30
0.0
 10
5.468750
 20
6.322917
 30
0.0
 10
5.135417
 20
6.322917
 30
0.0
 10
5.135417
 20
5.135417
 30
0.0
 10
5.281250
 20
5.135417
 30
0.0
 10
5.281250
 20
5.989583
 30
0.0
 10
5.283850
 20
6.020698
 30
0.0
 10
5.291576
 20
6.050949
 30
0.0
 10
5.304216
 20
6.079499
 30
0.0
 10
5.321419
 20
6.105556
 30
0.0
 10
5.342706
 20
6.128397
 30
0.0
 10
5.367489
 20
6.147388
 30
0.0
 10
5.395080
 20
6.162004
 30
0.0
 10
5.424713
 20
6.171839
 30
0.0
 10
5.468750
 20
6.177083
 30
0.0
 10
5.802083
 20
6.177083
 30
0.0
 10
5.802083
 20
6.510417
 30
0.0
 10
5.804683
 20
6.541531
 30
0.0
 10
5.812410
 20
6.571783
 30
0.0
 10
5.825050
 20
6.600333
 30
0.0
 10
5.842252
 20
6.626389
 30
0.0
 10
5.863540
 20
6.649230
 30
0.0
 10
5.888322
 20
6.668222
 30
0.0
 10
5.915913
 20
6.682837
 30
0.0
 10
5.945547
 20
6.692672
 30
0.0
 10
5.989583
 20
6.697917
 30
0.0
 10
6.510417
 20
6.697917
 30
0.0
 10
6.541531
 20
6.695317
 30
0.0
 10
6.571783
 20
6.687590
 30
0.0
 10
6.600333
 20
6.674950
 30
0.0
 10
6.626389
 20
6.657748
 30
0.0
 10
6.649230
 20
6.636460
 30
0.0
 10
6.668222
 20
6.611678
 30
0.0
 10
6.682837
 20
6.584087
 30
0.0
 10
6.692672
 20
6.554453
 30
0.0
 10
6.697453
 20
6.523599
 30
0.0
 10
6.697048
 20
6.492378
 30
0.0
 10
6.691467
 20
6.461658
 30
0.0
 10
6.680865
 20
6.432290
 30
0.0
 10
6.665538
 20
6.405089
 30
0.0
 10
6.645908
 20
6.380808
 30
0.0
 10
6.622522
 20
6.360121
 30
0.0
 10
6.596027
 20
6.343602
 30
0.0
 10
6.567158
 20
6.331708
 30
0.0
 10
6.536716
 20
6.324770
 30
0.0
 10
6.510417
 20
6.322917
 30
0.0
 10
6.177083
 20
6.322917
 30
0.0
 10
6.177083
 20
5.989583
 30
0.0
 10
6.174484
 20
5.958469
 30
0.0
 10
6.166757
 20
5.928217
 30
0.0
 10
6.154117
 20
5.899667
 30
0.0
 10
6.136915
 20
5.873611
 30
0.0
 10
6.115627
 20
5.850770
 30
0.0
 10
6.090844
 20
5.831778
 30
0.0
 10
6.063254
 20
5.817163
 30
0.0
 10
6.033620
 20
5.807328
 30
0.0
 10
5.989583
 20
5.802083
 30
0.0
 10
5.656250
 20
5.802083
 30
0.0
 10
5.656250
 20
5.656250
 30
0.0
 10
6.322917
 20
5.656250
 30
0.0
 10
6.322917
 20
5.989583
 30
0.0
 10
6.325516
 20
6.020698
 30
0.0
 10
6.333243
 20
6.050949
 30
0.0
 10
6.345883
 20
6.079499
 30
0.0
 10
6.363085
 20
6.105556
 30
0.0
 10
6.384373
 20
6.128397
 30
0.0
 10
6.409156
 20
6.147388
 30
0.0
 10
6.436746
 20
6.162004
 30
0.0
 10
6.466380
 20
6.171839
 30
0.0
 10
6.497235
 20
6.176619
 30
0.0
 10
6.528455
 20
6.176214
 30
0.0
 10
6.559175
 20
6.170633
 30
0.0
 10
6.588543
 20
6.160032
 30
0.0
 10
6.615744
 20
6.144704
 30
0.0
 10
6.640025
 20
6.125075
 30
0.0
 10
6.660712
 20
6.101689
 30
0.0
 10
6.677232
 20
6.075194
 30
0.0
 10
6.689125
 20
6.046325
 30
0.0
 10
6.696063
 20
6.015883
 30
0.0
 10
6.697917
 20
5.989583
 30
0.0
 10
6.697917
 20
5.468750
 30
0.0
 10
6.695317
 20
5.437636
 30
0.0
 10
6.687590
 20
5.407384
 30
0.0
 10
6.674950
 20
5.378834
 30
0.0
 10
6.657748
 20
5.352777
 30
0.0
 10
6.636460
 20
5.329936
 30
0.0
 10
6.611678
 20
5.310945
 30
0.0
 10
6.584087
 20
5.296329
 30
0.0
 10
6.554453
 20
5.286495
 30
0.0
 10
6.510417
 20
5.281250
 30
0.0
 10
6.177083
 20
5.281250
 30
0.0
 10
6.177083
 20
5.135417
 30
0.0
 10
6.510417
 20
5.135417
 30
0.0
 10
6.541531
 20
5.132817
 30
0.0
 10
6.571783
 20
5.125090
 30
0.0
 10
6.600333
 20
5.112450
 30
0.0
 10
6.626389
 20
5.095248
 30
0.0
 10
6.649230
 20
5.073960
 30
0.0
 10
6.668222
 20
5.049178
 30
0.0
 10
6.682837
 20
5.021587
 30
0.0
 10
6.692672
 20
4.991953
 30
0.0
 10
6.697917
 20
4.947917
 30
0.0
 10
6.697917
 20
4.427083
 30
0.0
 10
6.695317
 20
4.395969
 30
0.0
 10
6.687590
 20
4.365717
 30
0.0
 10
6.674950
 20
4.337167
 30
0.0
 10
6.657748
 20
4.311111
 30
0.0
 10
6.636460
 20
4.288270
 30
0.0
 10
6.611678
 20
4.269278
 30
0.0
 10
6.584087
 20
4.254663
 30
0.0
 10
6.554453
 20
4.244828
 30
0.0
 10
6.523599
 20
4.240047
 30
0.0
 10
6.492378
 20
4.240453
 30
0.0
 10
6.461658
 20
4.246033
 30
0.0
 10
6.432290
 20
4.256635
 30
0.0
 10
6.405089
 20
4.271963
 30
0.0
 10
6.380808
 20
4.291592
 30
0.0
 10
6.360121
 20
4.314978
 30
0.0
 10
6.343602
 20
4.341473
 30
0.0
 10
6.331708
 20
4.370342
 30
0.0
 10
6.324770
 20
4.400784
 30
0.0
 10
6.322917
 20
4.427083
 30
0.0
 10
6.322917
 20
4.760417
 30
0.0
 10
5.989583
 20
4.760417
 30
0.0
 10
5.958469
 20
4.763016
 30
0.0
 10
5.928217
 20
4.770743
 30
0.0
 10
5.899667
 20
4.783383
 30
0.0
 10
5.873611
 20
4.800585
 30
0.0
 10
5.850770
 20
4.821873
 30
0.0
 10
5.831778
 20
4.846656
 30
0.0
 10
5.817162
 20
4.874246
 30
0.0
 10
5.807328
 20
4.903880
 30
0.0
 10
5.802083
 20
4.947917
 30
0.0
 10
5.802083
 20
5.281250
 30
0.0
 10
5.656250
 20
5.281250
 30
0.0
 10
5.656250
 20
4.614583
 30
0.0
 10
5.989583
 20
4.614583
 30
0.0
 10
6.020698
 20
4.611984
 30
0.0
 10
6.050949
 20
4.604257
 30
0.0
 10
6.079499
 20
4.591617
 30
0.0
 10
6.105556
 20
4.574415
 30
0.0
 10
6.128397
 20
4.553127
 30
0.0
 10
6.147388
 20
4.528344
 30
0.0
 10
6.162004
 20
4.500754
 30
0.0
 10
6.171839
 20
4.471120
 30
0.0
 10
6.177083
 20
4.427083
 30
0.0
 10
6.177083
 20
4.093750
 30
0.0
 10
6.510417
 20
4.093750
 30
0.0
 10
6.541531
 20
4.091150
 30
0.0
 10
6.571783
 20
4.083424
 30
0.0
 10
6.600333
 20
4.070784
 30
0.0
 10
6.626389
 20
4.053581
 30
0.0
 10
6.649230
 20
4.032294
 30
0.0
 10
6.668222
 20
4.007511
 30
0.0
 10
6.682837
 20
3.979920
 30
0.0
 10
6.692672
 20
3.950287
 30
0.0
 10
6.697917
 20
3.906250
 30
0.0
 10
6.697917
 20
2.864583
 30
0.0
 10
6.695317
 20
2.833469
 30
0.0
 10
6.687590
 20
2.803217
 30
0.0
 10
6.674950
 20
2.774667
 30
0.0
 10
6.657748
 20
2.748611
 30
0.0
 10
6.636460
 20
2.725770
 30
0.0
 10
6.611678
 20
2.706778
 30
0.0
 10
6.584087
 20
2.692163
 30
0.0
 10
6.554453
 20
2.682328
 30
0.0
 10
6.523599
 20
2.677547
 30
0.0
 10
6.492378
 20
2.677952
 30
0.0
 10
6.461658
 20
2.683533
 30
0.0
 10
6.432290
 20
2.694135
 30
0.0
 10
6.405089
 20
2.709462
 30
0.0
 10
6.380808
 20
2.729092
 30
0.0
 10
6.360121
 20
2.752478
 30
0.0
 10
6.343602
 20
2.778973
 30
0.0
 10
6.331708
 20
2.807842
 30
0.0
 10
6.324770
 20
2.838284
 30
0.0
 10
6.322917
 20
2.864583
 30
0.0
 10
6.322917
 20
3.197917
 30
0.0
 10
5.989583
 20
3.197917
 30
0.0
 10
5.958469
 20
3.200516
 30
0.0
 10
5.928217
 20
3.208243
 30
0.0
 10
5.899667
 20
3.220883
 30
0.0
 10
5.873611
 20
3.238085
 30
0.0
 10
5.850770
 20
3.259373
 30
0.0
 10
5.831778
 20
3.284156
 30
0.0
 10
5.817162
 20
3.311746
 30
0.0
 10
5.807328
 20
3.341380
 30
0.0
 10
5.802547
 20
3.372235
 30
0.0
 10
5.802952
 20
3.403455
 30
0.0
 10
5.808533
 20
3.434175
 30
0.0
 10
5.819135
 20
3.463543
 30
0.0
 10
5.834462
 20
3.490744
 30
0.0
 10
5.854092
 20
3.515025
 30
0.0
 10
5.877478
 20
3.535712
 30
0.0
 10
5.903973
 20
3.552232
 30
0.0
 10
5.932842
 20
3.564125
 30
0.0
 10
5.963284
 20
3.571063
 30
0.0
 10
5.989583
 20
3.572917
 30
0.0
 10
6.322917
 20
3.572917
 30
0.0
 10
6.322917
 20
3.718750
 30
0.0
 10
5.989583
 20
3.718750
 30
0.0
 10
5.958469
 20
3.721350
 30
0.0
 10
5.928217
 20
3.729076
 30
0.0
 10
5.899667
 20
3.741716
 30
0.0
 10
5.873611
 20
3.758919
 30
0.0
 10
5.850770
 20
3.780206
 30
0.0
 10
5.831778
 20
3.804989
 30
0.0
 10
5.817162
 20
3.832580
 30
0.0
 10
5.807328
 20
3.862213
 30
0.0
 10
5.802083
 20
3.906250
 30
0.0
 10
5.802083
 20
4.239583
 30
0.0
 10
5.468750
 20
4.239583
 30
0.0
 10
5.459746
 20
4.240335
 30
0.0
 10
5.450712
 20
4.240453
 30
0.0
 10
5.444215
 20
4.241633
 30
0.0
 10
5.437636
 20
4.242183
 30
0.0
 10
5.428881
 20
4.244419
 30
0.0
 10
5.419992
 20
4.246034
 30
0.0
 10
5.413782
 20
4.248276
 30
0.0
 10
5.407384
 20
4.249910
 30
0.0
 10
5.399121
 20
4.253568
 30
0.0
 10
5.390624
 20
4.256636
 30
0.0
 10
5.384872
 20
4.259877
 30
0.0
 10
5.378834
 20
4.262550
 30
0.0
 10
5.371293
 20
4.267528
 30
0.0
 10
5.363422
 20
4.271963
 30
0.0
 10
5.358287
 20
4.276114
 30
0.0
 10
5.352777
 20
4.279752
 30
0.0
 10
5.346168
 20
4.285912
 30
0.0
 10
5.339141
 20
4.291593
 30
0.0
 10
5.334766
 20
4.296539
 30
0.0
 10
5.329936
 20
4.301040
 30
0.0
 10
5.324441
 20
4.308211
 30
0.0
 10
5.318454
 20
4.314979
 30
0.0
 10
5.314961
 20
4.320582
 30
0.0
 10
5.310945
 20
4.325823
 30
0.0
 10
5.306716
 20
4.333807
 30
0.0
 10
5.301935
 20
4.341474
 30
0.0
 10
5.299420
 20
4.347579
 30
0.0
 10
5.296329
 20
4.353414
 30
0.0
 10
5.293483
 20
4.361989
 30
0.0
 10
5.290042
 20
4.370343
 30
0.0
 10
5.288574
 20
4.376780
 30
0.0
 10
5.286495
 20
4.383047
 30
0.0
 10
5.285111
 20
4.391977
 30
0.0
 10
5.283104
 20
4.400785
 30
0.0
 10
5.282567
 20
4.408395
 30
0.0
 10
5.281714
 20
4.413902
 30
0.0
 10
5.281787
 20
4.419474
 30
0.0
 10
5.281250
 20
4.427083
 30
0.0
 10
5.281250
 20
4.760417
 30
0.0
 10
4.093750
 20
4.760417
 30
0.0
 10
4.093750
 20
4.614583
 30
0.0
 10
4.947917
 20
4.614583
 30
0.0
 10
4.956920
 20
4.613831
 30
0.0
 10
4.965955
 20
4.613714
 30
0.0
 10
4.972452
 20
4.612533
 30
0.0
 10
4.979031
 20
4.611983
 30
0.0
 10
4.987785
 20
4.609747
 30
0.0
 10
4.996675
 20
4.608132
 30
0.0
 10
5.002885
 20
4.605891
 30
0.0
 10
5.009283
 20
4.604256
 30
0.0
 10
5.017546
 20
4.600598
 30
0.0
 10
5.026043
 20
4.597531
 30
0.0
 10
5.031795
 20
4.594290
 30
0.0
 10
5.037833
 20
4.591617
 30
0.0
 10
5.045373
 20
4.586639
 30
0.0
 10
5.053244
 20
4.582203
 30
0.0
 10
5.058379
 20
4.578052
 30
0.0
 10
5.063889
 20
4.574414
 30
0.0
 10
5.070499
 20
4.568254
 30
0.0
 10
5.077525
 20
4.562574
 30
0.0
 10
5.081901
 20
4.557628
 30
0.0
 10
5.086730
 20
4.553127
 30
0.0
 10
5.092225
 20
4.545956
 30
0.0
 10
5.098212
 20
4.539188
 30
0.0
 10
5.101706
 20
4.533585
 30
0.0
 10
5.105722
 20
4.528344
 30
0.0
 10
5.109951
 20
4.520360
 30
0.0
 10
5.114732
 20
4.512693
 30
0.0
 10
5.117247
 20
4.506588
 30
0.0
 10
5.120337
 20
4.500753
 30
0.0
 10
5.123184
 20
4.492178
 30
0.0
 10
5.126625
 20
4.483824
 30
0.0
 10
5.128092
 20
4.477387
 30
0.0
 10
5.130172
 20
4.471120
 30
0.0
 10
5.131556
 20
4.462190
 30
0.0
 10
5.133563
 20
4.453382
 30
0.0
 10
5.134100
 20
4.445772
 30
0.0
 10
5.134953
 20
4.440265
 30
0.0
 10
5.134880
 20
4.434693
 30
0.0
 10
5.135417
 20
4.427083
 30
0.0
 10
5.135417
 20
4.093750
 30
0.0
 10
5.468750
 20
4.093750
 30
0.0
 10
5.499864
 20
4.091150
 30
0.0
 10
5.530116
 20
4.083424
 30
0.0
 10
5.558666
 20
4.070784
 30
0.0
 10
5.584723
 20
4.053581
 30
0.0
 10
5.607564
 20
4.032294
 30
0.0
 10
5.626555
 20
4.007511
 30
0.0
 10
5.641171
 20
3.979920
 30
0.0
 10
5.651005
 20
3.950287
 30
0.0
 10
5.655786
 20
3.919432
 30
0.0
 10
5.655381
 20
3.888212
 30
0.0
 10
5.649800
 20
3.857492
 30
0.0
 10
5.639199
 20
3.828124
 30
0.0
 10
5.623871
 20
3.800922
 30
0.0
 10
5.604242
 20
3.776641
 30
0.0
 10
5.580855
 20
3.755954
 30
0.0
 10
5.554360
 20
3.739435
 30
0.0
 10
5.525491
 20
3.727542
 30
0.0
 10
5.495049
 20
3.720604
 30
0.0
 10
5.468750
 20
3.718750
 30
0.0
 10
4.947917
 20
3.718750
 30
0.0
 10
4.916802
 20
3.721350
 30
0.0
 10
4.886551
 20
3.729076
 30
0.0
 10
4.858001
 20
3.741716
 30
0.0
 10
4.831944
 20
3.758919
 30
0.0
 10
4.809103
 20
3.780206
 30
0.0
 10
4.790112
 20
3.804989
 30
0.0
 10
4.775496
 20
3.832580
 30
0.0
 10
4.765661
 20
3.862213
 30
0.0
 10
4.760417
 20
3.906250
 30
0.0
 10
4.760417
 20
4.239583
 30
0.0
 10
4.614583
 20
4.239583
 30
0.0
 10
4.614583
 20
3.572917
 30
0.0
 10
5.468750
 20
3.572917
 30
0.0
 10
5.499864
 20
3.570317
 30
0.0
 10
5.530116
 20
3.562590
 30
0.0
 10
5.558666
 20
3.549950
 30
0.0
 10
5.584723
 20
3.532748
 30
0.0
 10
5.607564
 20
3.511460
 30
0.0
 10
5.626555
 20
3.486678
 30
0.0
 10
5.641171
 20
3.459087
 30
0.0
 10
5.651005
 20
3.429453
 30
0.0
 10
5.655786
 20
3.398599
 30
0.0
 10
5.655381
 20
3.367378
 30
0.0
 10
5.649800
 20
3.336658
 30
0.0
 10
5.639199
 20
3.307290
 30
0.0
 10
5.623871
 20
3.280089
 30
0.0
 10
5.604242
 20
3.255808
 30
0.0
 10
5.580855
 20
3.235121
 30
0.0
 10
5.554360
 20
3.218602
 30
0.0
 10
5.525491
 20
3.206708
 30
0.0
 10
5.495049
 20
3.199770
 30
0.0
 10
5.468750
 20
3.197917
 30
0.0
 10
5.135417
 20
3.197917
 30
0.0
 10
5.135417
 20
3.052083
 30
0.0
 10
5.989583
 20
3.052083
 30
0.0
 10
6.020698
 20
3.049484
 30
0.0
 10
6.050949
 20
3.041757
 30
0.0
 10
6.079499
 20
3.029117
 30
0.0
 10
6.105556
 20
3.011915
 30
0.0
 10
6.128397
 20
2.990627
 30
0.0
 10
6.147388
 20
2.965844
 30
0.0
 10
6.162004
 20
2.938254
 30
0.0
 10
6.171839
 20
2.908620
 30
0.0
 10
6.176619
 20
2.877765
 30
0.0
 10
6.176214
 20
2.846545
 30
0.0
 10
6.170633
 20
2.815825
 30
0.0
 10
6.160032
 20
2.786457
 30
0.0
 10
6.144704
 20
2.759256
 30
0.0
 10
6.125075
 20
2.734975
 30
0.0
 10
6.101689
 20
2.714288
 30
0.0
 10
6.075194
 20
2.697768
 30
0.0
 10
6.046325
 20
2.685875
 30
0.0
 10
6.015883
 20
2.678937
 30
0.0
 10
5.989583
 20
2.677083
 30
0.0
 10
4.947917
 20
2.677083
 30
0.0
 10
4.938913
 20
2.677835
 30
0.0
 10
4.929878
 20
2.677953
 30
0.0
 10
4.923382
 20
2.679133
 30
0.0
 10
4.916802
 20
2.679683
 30
0.0
 10
4.908048
 20
2.681919
 30
0.0
 10
4.899158
 20
2.683534
 30
0.0
 10
4.892948
 20
2.685776
 30
0.0
 10
4.886551
 20
2.687410
 30
0.0
 10
4.878288
 20
2.691068
 30
0.0
 10
4.869790
 20
2.694136
 30
0.0
 10
4.864039
 20
2.697377
 30
0.0
 10
4.858001
 20
2.700050
 30
0.0
 10
4.850460
 20
2.705028
 30
0.0
 10
4.842589
 20
2.709463
 30
0.0
 10
4.837454
 20
2.713614
 30
0.0
 10
4.831944
 20
2.717252
 30
0.0
 10
4.825334
 20
2.723412
 30
0.0
 10
4.818308
 20
2.729093
 30
0.0
 10
4.813933
 20
2.734039
 30
0.0
 10
4.809103
 20
2.738540
 30
0.0
 10
4.803608
 20
2.745711
 30
0.0
 10
4.797621
 20
2.752479
 30
0.0
 10
4.794128
 20
2.758082
 30
0.0
 10
4.790112
 20
2.763323
 30
0.0
 10
4.785882
 20
2.771307
 30
0.0
 10
4.781102
 20
2.778974
 30
0.0
 10
4.778587
 20
2.785079
 30
0.0
 10
4.775496
 20
2.790914
 30
0.0
 10
4.772650
 20
2.799489
 30
0.0
 10
4.769208
 20
2.807843
 30
0.0
 10
4.767741
 20
2.814280
 30
0.0
 10
4.765661
 20
2.820547
 30
0.0
 10
4.764278
 20
2.829477
 30
0.0
 10
4.762270
 20
2.838285
 30
0.0
 10
4.761734
 20
2.845895
 30
0.0
 10
4.760881
 20
2.851402
 30
0.0
 10
4.760954
 20
2.856974
 30
0.0
 10
4.760417
 20
2.864583
 30
0.0
 10
4.760417
 20
3.197917
 30
0.0
 10
4.093750
 20
3.197917
 30
0.0
 10
4.093750
 20
3.052083
 30
0.0
 10
4.427083
 20
3.052083
 30
0.0
 10
4.458198
 20
3.049484
 30
0.0
 10
4.488449
 20
3.041757
 30
0.0
 10
4.516999
 20
3.029117
 30
0.0
 10
4.543056
 20
3.011915
 30
0.0
 10
4.565897
 20
2.990627
 30
0.0
 10
4.584888
 20
2.965844
 30
0.0
 10
4.599504
 20
2.938254
 30
0.0
 10
4.609339
 20
2.908620
 30
0.0
 10
4.614119
 20
2.877765
 30
0.0
 10
4.613714
 20
2.846545
 30
0.0
 10
4.608133
 20
2.815825
 30
0.0
 10
4.597532
 20
2.786457
 30
0.0
 10
4.582204
 20
2.759256
 30
0.0
 10
4.562575
 20
2.734975
 30
0.0
 10
4.539189
 20
2.714288
 30
0.0
 10
4.512694
 20
2.697768
 30
0.0
 10
4.483825
 20
2.685875
 30
0.0
 10
4.453383
 20
2.678937
 30
0.0
 10
4.427083
 20
2.677083
 30
0.0
 10
3.906250
 20
2.677083
 30
0.0
 10
3.875136
 20
2.679683
 30
0.0
 10
3.844884
 20
2.687410
 30
0.0
 10
3.816334
 20
2.700050
 30
0.0
 10
3.790277
 20
2.717252
 30
0.0
 10
3.767436
 20
2.738540
 30
0.0
 10
3.748445
 20
2.763322
 30
0.0
 10
3.733829
 20
2.790913
 30
0.0
 10
3.723995
 20
2.820547
 30
0.0
 10
3.718750
 20
2.864583
 30
0.0
 10
3.718750
 20
3.197917
 30
0.0
 10
3.572917
 20
3.197917
 30
0.0
 10
3.572917
 20
2.864583
 30
0.0
 10
3.572165
 20
2.855580
 30
0.0
 10
3.572047
 20
2.846545
 30
0.0
 10
3.570867
 20
2.840048
 30
0.0
 10
3.570317
 20
2.833469
 30
0.0
 10
3.568081
 20
2.824715
 30
0.0
 10
3.566466
 20
2.815825
 30
0.0
 10
3.564224
 20
2.809615
 30
0.0
 10
3.562590
 20
2.803217
 30
0.0
 10
3.558932
 20
2.794954
 30
0.0
 10
3.555864
 20
2.786457
 30
0.0
 10
3.552623
 20
2.780705
 30
0.0
 10
3.549950
 20
2.774667
 30
0.0
 10
3.544972
 20
2.767127
 30
0.0
 10
3.540537
 20
2.759256
 30
0.0
 10
3.536386
 20
2.754121
 30
0.0
 10
3.532748
 20
2.748611
 30
0.0
 10
3.526588
 20
2.742001
 30
0.0
 10
3.520907
 20
2.734975
 30
0.0
 10
3.515961
 20
2.730599
 30
0.0
 10
3.511460
 20
2.725770
 30
0.0
 10
3.504289
 20
2.720275
 30
0.0
 10
3.497521
 20
2.714288
 30
0.0
 10
3.491918
 20
2.710794
 30
0.0
 10
3.486677
 20
2.706778
 30
0.0
 10
3.478693
 20
2.702549
 30
0.0
 10
3.471026
 20
2.697768
 30
0.0
 10
3.464921
 20
2.695253
 30
0.0
 10
3.459086
 20
2.692162
 30
0.0
 10
3.450511
 20
2.689316
 30
0.0
 10
3.442157
 20
2.685875
 30
0.0
 10
3.435720
 20
2.684408
 30
0.0
 10
3.429453
 20
2.682328
 30
0.0
 10
3.420523
 20
2.680944
 30
0.0
 10
3.411715
 20
2.678937
 30
0.0
 10
3.404105
 20
2.678400
 30
0.0
 10
3.398598
 20
2.677547
 30
0.0
 10
3.393026
 20
2.677620
 30
0.0
 10
3.385417
 20
2.677083
 30
0.0
 10
2.864583
 20
2.677083
 30
0.0
 10
2.833469
 20
2.679683
 30
0.0
 10
2.803217
 20
2.687410
 30
0.0
 10
2.774667
 20
2.700050
 30
0.0
 10
2.748611
 20
2.717252
 30
0.0
 10
2.725770
 20
2.738540
 30
0.0
 10
2.706778
 20
2.763322
 30
0.0
 10
2.692163
 20
2.790913
 30
0.0
 10
2.682328
 20
2.820547
 30
0.0
 10
2.677083
 20
2.864583
 30
0.0
 10
2.677083
 20
3.385417
 30
0.0
 10
2.679683
 20
3.416531
 30
0.0
 10
2.687410
 20
3.446783
 30
0.0
 10
2.700050
 20
3.475333
 30
0.0
 10
2.717252
 20
3.501389
 30
0.0
 10
2.738540
 20
3.524230
 30
0.0
 10
2.763322
 20
3.543222
 30
0.0
 10
2.790913
 20
3.557838
 30
0.0
 10
2.820547
 20
3.567672
 30
0.0
 10
2.851401
 20
3.572453
 30
0.0
 10
2.882622
 20
3.572048
 30
0.0
 10
2.913342
 20
3.566467
 30
0.0
 10
2.942710
 20
3.555865
 30
0.0
 10
2.969911
 20
3.540538
 30
0.0
 10
2.994192
 20
3.520908
 30
0.0
 10
3.014879
 20
3.497522
 30
0.0
 10
3.031398
 20
3.471027
 30
0.0
 10
3.043292
 20
3.442158
 30
0.0
 10
3.050230
 20
3.411716
 30
0.0
 10
3.052083
 20
3.385417
 30
0.0
 10
3.052083
 20
3.052083
 30
0.0
 10
3.197917
 20
3.052083
 30
0.0
 10
3.197917
 20
3.718750
 30
0.0
 10
2.864583
 20
3.718750
 30
0.0
 10
2.833469
 20
3.721350
 30
0.0
 10
2.803217
 20
3.729076
 30
0.0
 10
2.774667
 20
3.741716
 30
0.0
 10
2.748611
 20
3.758919
 30
0.0
 10
2.725770
 20
3.780206
 30
0.0
 10
2.706778
 20
3.804989
 30
0.0
 10
2.692163
 20
3.832580
 30
0.0
 10
2.682328
 20
3.862213
 30
0.0
 10
2.677083
 20
3.906250
 30
0.0
 10
2.677083
 20
4.947917
 30
0.0
 10
2.679683
 20
4.979031
 30
0.0
 10
2.687410
 20
5.009283
 30
0.0
 10
2.700050
 20
5.037833
 30
0.0
 10
2.717252
 20
5.063889
 30
0.0
 10
2.738540
 20
5.086730
 30
0.0
 10
2.763322
 20
5.105722
 30
0.0
 10
2.790913
 20
5.120337
 30
0.0
 10
2.820547
 20
5.130172
 30
0.0
 10
2.851401
 20
5.134953
 30
0.0
 10
2.882622
 20
5.134548
 30
0.0
 10
2.913342
 20
5.128967
 30
0.0
 10
2.942710
 20
5.118365
 30
0.0
 10
2.969911
 20
5.103038
 30
0.0
 10
2.994192
 20
5.083408
 30
0.0
 10
3.014879
 20
5.060022
 30
0.0
 10
3.031398
 20
5.033527
 30
0.0
 10
3.043292
 20
5.004658
 30
0.0
 10
3.050230
 20
4.974216
 30
0.0
 10
3.052083
 20
4.947917
 30
0.0
 10
3.052083
 20
4.093750
 30
0.0
 10
3.385417
 20
4.093750
 30
0.0
 10
3.416531
 20
4.091150
 30
0.0
 10
3.446783
 20
4.083424
 30
0.0
 10
3.475333
 20
4.070784
 30
0.0
 10
3.501389
 20
4.053581
 30
0.0
 10
3.524230
 20
4.032294
 30
0.0
 10
3.543222
 20
4.007511
 30
0.0
 10
3.557837
 20
3.979920
 30
0.0
 10
3.567672
 20
3.950287
 30
0.0
 10
3.572917
 20
3.906250
 30
0.0
 10
3.572917
 20
3.572917
 30
0.0
 10
4.239583
 20
3.572917
 30
0.0
 10
4.239583
 20
3.718750
 30
0.0
 10
3.906250
 20
3.718750
 30
0.0
 10
3.875136
 20
3.721350
 30
0.0
 10
3.844884
 20
3.729076
 30
0.0
 10
3.816334
 20
3.741716
 30
0.0
 10
3.790277
 20
3.758919
 30
0.0
 10
3.767436
 20
3.780206
 30
0.0
 10
3.748445
 20
3.804989
 30
0.0
 10
3.733829
 20
3.832580
 30
0.0
 10
3.723995
 20
3.862213
 30
0.0
 10
3.719214
 20
3.893068
 30
0.0
 10
3.719619
 20
3.924288
 30
0.0
 10
3.725200
 20
3.955008
 30
0.0
 10
3.735801
 20
3.984376
 30
0.0
 10
3.751129
 20
4.011578
 30
0.0
 10
3.770758
 20
4.035859
 30
0.0
 10
3.794145
 20
4.056546
 30
0.0
 10
3.820640
 20
4.073065
 30
0.0
 10
3.849509
 20
4.084958
 30
0.0
 10
3.879951
 20
4.091896
 30
0.0
 10
3.906250
 20
4.093750
 30
0.0
 10
4.239583
 20
4.093750
 30
0.0
 10
4.239583
 20
4.239583
 30
0.0
 10
3.385417
 20
4.239583
 30
0.0
 10
3.354302
 20
4.242183
 30
0.0
 10
3.324051
 20
4.249910
 30
0.0
 10
3.295501
 20
4.262550
 30
0.0
 10
3.269444
 20
4.279752
 30
0.0
 10
3.246603
 20
4.301040
 30
0.0
 10
3.227612
 20
4.325822
 30
0.0
 10
3.212996
 20
4.353413
 30
0.0
 10
3.203161
 20
4.383047
 30
0.0
 10
3.198381
 20
4.413901
 30
0.0
 10
3.198786
 20
4.445122
 30
0.0
 10
3.204367
 20
4.475842
 30
0.0
 10
3.214968
 20
4.505210
 30
0.0
 10
3.230296
 20
4.532411
 30
0.0
 10
3.249925
 20
4.556692
 30
0.0
 10
3.273311
 20
4.577379
 30
0.0
 10
3.299806
 20
4.593898
 30
0.0
 10
3.328675
 20
4.605792
 30
0.0
 10
3.359117
 20
4.612730
 30
0.0
 10
3.385417
 20
4.614583
 30
0.0
 10
3.718750
 20
4.614583
 30
0.0
 10
3.718750
 20
5.281250
 30
0.0
 10
3.572917
 20
5.281250
 30
0.0
 10
3.572917
 20
4.947917
 30
0.0
 10
3.570317
 20
4.916802
 30
0.0
 10
3.562590
 20
4.886551
 30
0.0
 10
3.549950
 20
4.858001
 30
0.0
 10
3.532748
 20
4.831944
 30
0.0
 10
3.511460
 20
4.809103
 30
0.0
 10
3.486678
 20
4.790112
 30
0.0
 10
3.459087
 20
4.775496
 30
0.0
 10
3.429453
 20
4.765661
 30
0.0
 10
3.398599
 20
4.760881
 30
0.0
 10
3.367378
 20
4.761286
 30
0.0
 10
3.336658
 20
4.766867
 30
0.0
 10
3.307290
 20
4.777468
 30
0.0
 10
3.280089
 20
4.792796
 30
0.0
 10
3.255808
 20
4.812425
 30
0.0
 10
3.235121
 20
4.835811
 30
0.0
 10
3.218602
 20
4.862306
 30
0.0
 10
3.206708
 20
4.891175
 30
0.0
 10
3.199770
 20
4.921617
 30
0.0
 10
3.197917
 20
4.947917
 30
0.0
 10
3.197917
 20
5.281250
 30
0.0
 10
2.864583
 20
5.281250
 30
0.0
 10
2.833469
 20
5.283850
 30
0.0
 10
2.803217
 20
5.291576
 30
0.0
 10
2.774667
 20
5.304216
 30
0.0
 10
2.748611
 20
5.321419
 30
0.0
 10
2.725770
 20
5.342706
 30
0.0
 10
2.706778
 20
5.367489
 30
0.0
 10
2.692163
 20
5.395080
 30
0.0
 10
2.682328
 20
5.424713
 30
0.0
 10
2.677083
 20
5.468750
 30
0.0
 10
2.677083
 20
5.989583
 30
0.0
 10
2.679683
 20
6.020698
 30
0.0
 10
2.687410
 20
6.050949
 30
0.0
 10
2.700050
 20
6.079499
 30
0.0
 10
2.717252
 20
6.105556
 30
0.0
 10
2.738540
 20
6.128397
 30
0.0
 10
2.763322
 20
6.147388
 30
0.0
 10
2.790913
 20
6.162004
 30
0.0
 10
2.820547
 20
6.171839
 30
0.0
 10
2.851401
 20
6.176619
 30
0.0
 10
2.882622
 20
6.176214
 30
0.0
 10
2.913342
 20
6.170633
 30
0.0
 10
2.942710
 20
6.160032
 30
0.0
 10
2.969911
 20
6.144704
 30
0.0
 10
2.994192
 20
6.125075
 30
0.0
 10
3.014879
 20
6.101689
 30
0.0
 10
3.031398
 20
6.075194
 30
0.0
 10
3.043292
 20
6.046325
 30
0.0
 10
3.050230
 20
6.015883
 30
0.0
 10
3.052083
 20
5.989583
 30
0.0
 10
3.052083
 20
5.656250
 30
0.0
 10
3.906250
 20
5.656250
 30
0.0
 10
3.937364
 20
5.653650
 30
0.0
 10
3.967616
 20
5.645924
 30
0.0
 10
3.996166
 20
5.633284
 30
0.0
 10
4.022223
 20
5.616081
 30
0.0
 10
4.045064
 20
5.594794
 30
0.0
 10
4.064055
 20
5.570011
 30
0.0
 10
4.078671
 20
5.542420
 30
0.0
 10
4.088505
 20
5.512787
 30
0.0
 10
4.093750
 20
5.468750
 30
0.0
 10
4.093750
 20
5.135417
 30
0.0
 10
4.760417
 20
5.135417
 30
0.0
 10
4.760417
 20
5.281250
 30
0.0
 10
4.427083
 20
5.281250
 30
0.0
 10
4.395969
 20
5.283850
 30
0.0
 10
4.365717
 20
5.291576
 30
0.0
 10
4.337167
 20
5.304216
 30
0.0
 10
4.311111
 20
5.321419
 30
0.0
 10
4.288270
 20
5.342706
 30
0.0
 10
4.269278
 20
5.367489
 30
0.0
 10
4.254663
 20
5.395080
 30
0.0
 10
4.244828
 20
5.424713
 30
0.0
 10
4.239583
 20
5.468750
 30
0.0
 10
4.239583
 20
5.802083
 30
0.0
 10
3.385417
 20
5.802083
 30
0.0
 10
3.354302
 20
5.804683
 30
0.0
 10
3.324051
 20
5.812410
 30
0.0
 10
3.295501
 20
5.825050
 30
0.0
 10
3.269444
 20
5.842252
 30
0.0
 10
3.246603
 20
5.863540
 30
0.0
 10
3.227612
 20
5.888322
 30
0.0
 10
3.212996
 20
5.915913
 30
0.0
 10
3.203161
 20
5.945547
 30
0.0
 10
3.198381
 20
5.976401
 30
0.0
 10
3.198786
 20
6.007622
 30
0.0
 10
3.204367
 20
6.038342
 30
0.0
 10
3.214968
 20
6.067710
 30
0.0
 10
3.230296
 20
6.094911
 30
0.0
 10
3.249925
 20
6.119192
 30
0.0
 10
3.273311
 20
6.139879
 30
0.0
 10
3.299806
 20
6.156398
 30
0.0
 10
3.328675
 20
6.168292
 30
0.0
 10
3.359117
 20
6.175230
 30
0.0
 10
3.385417
 20
6.177083
 30
0.0
 10
3.718750
 20
6.177083
 30
0.0
 10
3.718750
 20
6.322917
 30
0.0
 10
2.864583
 20
6.322917
 30
0.0
 10
2.833469
 20
6.325516
 30
0.0
 10
2.803217
 20
6.333243
 30
0.0
 10
2.774667
 20
6.345883
 30
0.0
 10
2.748611
 20
6.363085
 30
0.0
 10
2.725770
 20
6.384373
 30
0.0
 10
2.706778
 20
6.409156
 30
0.0
 10
2.692163
 20
6.436746
 30
0.0
 10
2.682328
 20
6.466380
 30
0.0
 10
2.677547
 20
6.497235
 30
0.0
 10
2.677953
 20
6.528455
 30
0.0
 10
2.683533
 20
6.559175
 30
0.0
 10
2.694135
 20
6.588543
 30
0.0
 10
2.709462
 20
6.615744
 30
0.0
 10
2.729092
 20
6.640025
 30
0.0
 10
2.752478
 20
6.660712
 30
0.0
 10
2.778973
 20
6.677232
 30
0.0
 10
2.807842
 20
6.689125
 30
0.0
 10
2.838284
 20
6.696063
 30
0.0
 10
2.864583
 20
6.697917
 30
0.0
 10
3.906250
 20
6.697917
 30
0.0
  0
LWPOLYLINE
  5
101
100
AcDbEntity
  8
0
 62
7
100
AcDbPolyline
 90
32
 70
1
 10
2.937500
 20
6.510417
 30
0.0
 10
2.936099
 20
6.524642
 30
0.0
 10
2.931950
 20
6.538321
 30
0.0
 10
2.925211
 20
6.550927
 30
0.0
 10
2.916143
 20
6.561977
 30
0.0
 10
2.905094
 20
6.571045
 30
0.0
 10
2.892487
 20
6.577783
 30
0.0
 10
2.878809
 20
6.581932
 30
0.0
 10
2.864583
 20
6.583333
 30
0.0
 10
2.850358
 20
6.581932
 30
0.0
 10
2.836679
 20
6.577783
 30
0.0
 10
2.824073
 20
6.571045
 30
0.0
 10
2.813023
 20
6.561977
 30
0.0
 10
2.803955
 20
6.550927
 30
0.0
 10
2.797217
 20
6.538321
 30
0.0
 10
2.793068
 20
6.524642
 30
0.0
 10
2.791667
 20
6.510417
 30
0.0
 10
2.793068
 20
6.496191
 30
0.0
 10
2.797217
 20
6.482513
 30
0.0
 10
2.803955
 20
6.469906
 30
0.0
 10
2.813023
 20
6.458857
 30
0.0
 10
2.824073
 20
6.449789
 30
0.0
 10
2.836679
 20
6.443050
 30
0.0
 10
2.850358
 20
6.438901
 30
0.0
 10
2.864583
 20
6.437500
 30
0.0
 10
2.878809
 20
6.438901
 30
0.0
 10
2.892487
 20
6.443050
 30
0.0
 10
2.905094
 20
6.449789
 30
0.0
 10
2.916143
 20
6.458857
 30
0.0
 10
2.925211
 20
6.469906
 30
0.0
 10
2.931950
 20
6.482513
 30
0.0
 10
2.936099
 20
6.496191
 30
0.0
  0
ENDSEC
  0
SECTION
  2
OBJECTS
  0
DICTIONARY
  5
C
330
0
100
AcDbDictionary
  3
ACAD_GROUP
350
D
  3
ACAD_MLINESTYLE
350
17
  0
DICTIONARY
  5
D
330
C
100
AcDbDictionary
  0
DICTIONARY
  5
1A
330
C
100
AcDbDictionary
  0
DICTIONARY
  5
17
330
C
100
AcDbDictionary
  3
STANDARD
350
18
  0
DICTIONARY
  5
19
330
C
100
AcDbDictionary
  0
ENDSEC
  0
EOF
