<svg version="1.1" xmlns="http://www.w3.org/2000/svg" xmlns:xlink="http://www.w3.org/1999/xlink" width="900" height="900"><defs/><g><rect fill="#000000" stroke="none" x="0" y="0" width="900" height="900"/><path fill="#222222" stroke="#cccccc" paint-order="fill stroke markers" d=" M 458.29399 41.57614 L 458.38829 41.58087 L 458.41914 41.59984 L 458.49073 41.6134 L 518.34157 61.06012 L 519.9738 62.09442 L 521.61961 63.10661 L 521.63632 63.14792 L 521.69382 63.18436 L 523.61272 66.65824 L 523.86943 68.66857 L 523.86943 131.59947 L 522.88506 135.44408 L 522.47927 135.87795 L 522.34157 136.30175 L 488.76813 182.51163 L 518.92516 224.01923 L 567.72027 208.16474 L 567.72027 151.04618 L 568.02837 150.09795 L 568.25469 148.17127 L 568.99053 147.13671 L 569.24813 146.3439 L 606.23798 95.43174 L 606.98359 94.81407 L 607.54477 94.02508 L 608.48746 93.56826 L 609.29416 92.89999 L 610.24484 92.71665 L 611.11616 92.29442 L 612.16242 92.34685 L 613.19099 92.14849 L 614.98552 92.48831 L 615.07982 92.49304 L 615.11067 92.51201 L 615.18226 92.52557 L 675.0331 111.97228 L 676.66533 113.00658 L 678.31114 114.01877 L 678.32785 114.06008 L 678.38535 114.09652 L 680.30425 117.5704 L 680.56096 119.58073 L 680.56096 179.91227 L 716.02295 228.72151 L 717.48637 232.41046 L 716.99691 236.34879 L 716.02295 238.12607 L 693.50523 269.11906 L 729.93966 257.28079 L 733.90029 257.02894 L 737.49461 258.71145 L 738.88394 260.18696 L 774.34593 308.9962 L 831.72463 327.63967 L 833.35686 328.67397 L 835.00267 329.68616 L 835.01938 329.72747 L 835.07688 329.76391 L 836.99578 333.23779 L 837.25249 335.24812 L 837.25249 398.17901 L 836.26812 402.02362 L 833.55724 404.92209 L 831.72463 405.78746 L 771.87379 425.23418 L 771.07318 425.23418 L 769.93615 425.60785 L 767.92597 425.23418 L 766.92951 425.23418 L 712.60654 407.58357 L 682.44951 449.09118 L 712.60654 490.59878 L 766.92951 472.94817 L 767.33069 472.94817 L 767.80769 472.71702 L 771.77135 472.91564 L 771.82424 472.94817 L 771.87379 472.94817 L 831.72463 492.39489 L 833.35686 493.42919 L 835.00267 494.44138 L 835.01938 494.48269 L 835.07688 494.51913 L 836.99578 497.99301 L 837.25249 500.00334 L 837.25249 562.93424 L 836.26812 566.77885 L 833.55724 569.67732 L 831.72463 570.54269 L 774.34593 589.18615 L 738.88394 637.99539 L 735.82776 640.52714 L 731.93093 641.27864 L 729.93966 640.90156 L 693.50523 629.0633 L 716.02295 660.05628 L 717.48637 663.74523 L 716.99691 667.68356 L 716.02295 669.46084 L 680.56096 718.27009 L 680.56096 778.60162 L 679.57659 782.44623 L 676.86571 785.3447 L 675.0331 786.21007 L 615.18226 805.65679 L 614.18958 805.71991 L 613.24462 806.03046 L 612.24069 805.84384 L 611.22163 805.90864 L 610.32078 805.48695 L 609.34283 805.30516 L 608.55212 804.65903 L 607.62731 804.22613 L 606.30917 802.82623 L 606.26972 802.79399 L 606.26287 802.77705 L 606.23798 802.75062 L 569.24813 751.83845 L 569.19017 751.66006 L 567.79169 748.20278 L 567.86475 747.58083 L 567.72027 747.13617 L 567.72027 690.01762 L 518.92516 674.16312 L 488.76813 715.67073 L 522.34157 761.88061 L 523.86943 766.58289 L 523.86943 829.51378 L 522.88506 833.35839 L 520.17418 836.25686 L 518.34157 837.12223 L 458.49073 856.56895 L 457.49805 856.63207 L 456.55309 856.94262 L 455.54916 856.756 L 454.5301 856.8208 L 453.62925 856.39911 L 452.6513 856.21732 L 451.86059 855.57119 L 450.93578 855.13829 L 449.61764 853.73839 L 449.57819 853.70615 L 449.57134 853.68921 L 449.54645 853.66278 L 414.08446 804.85354 L 356.70576 786.21007 L 353.35351 784.08583 L 351.43461 780.61195 L 351.1779 778.60162 L 351.1779 740.2922 L 328.66019 771.28517 L 325.60401 773.81692 L 321.70718 774.56842 L 319.71591 774.19134 L 262.33721 755.54787 L 204.95852 774.19134 L 203.96583 774.25447 L 203.02088 774.56501 L 202.01698 774.3784 L 200.99789 774.4432 L 200.09701 774.0215 L 199.11909 773.83971 L 198.32838 773.19359 L 197.40357 772.76068 L 196.08543 771.36078 L 196.04598 771.32854 L 196.03913 771.3116 L 196.01424 771.28517 L 159.02438 720.37301 L 158.30221 718.55259 L 157.56794 716.73734 L 157.57117 716.70981 L 157.56096 716.68406 L 157.80243 714.74112 L 158.03094 712.79582 L 158.047 712.77324 L 158.05042 712.74573 L 159.02438 710.96845 L 196.01424 660.05628 L 196.64807 659.59578 L 197.32103 658.64962 L 199.21075 657.73388 L 200.01424 657.15011 L 254.33721 639.49951 L 254.33721 588.19329 L 205.54211 572.3388 L 171.96866 618.54868 L 171.16152 619.1351 L 169.80127 620.58948 L 168.62989 620.97444 L 167.96866 621.45485 L 108.11783 640.90156 L 107.12515 640.96468 L 106.18019 641.27523 L 105.17626 641.08861 L 104.1572 641.15341 L 103.25635 640.73172 L 102.2784 640.54993 L 101.48769 639.9038 L 100.56288 639.4709 L 99.24474 638.071 L 99.20529 638.03876 L 99.19844 638.02182 L 99.17355 637.99539 L 62.1837 587.08323 L 61.46153 585.26281 L 60.72726 583.44756 L 60.73049 583.42003 L 60.72028 583.39428 L 60.96175 581.45134 L 61.19026 579.50604 L 61.20632 579.48346 L 61.20974 579.45595 L 62.1837 577.67867 L 97.64569 528.86943 L 97.64569 468.53789 L 98.63007 464.69328 L 101.34094 461.79481 L 103.17355 460.92944 L 139.60798 449.09118 L 103.17355 437.25291 L 102.75989 436.99078 L 102.2784 436.90128 L 101.10323 435.941 L 99.8213 435.12867 L 99.5845 434.69998 L 99.20529 434.39011 L 98.63621 432.98324 L 97.9024 431.65479 L 97.81178 430.9451 L 97.71711 430.71107 L 97.74815 430.44683 L 97.64569 429.64446 L 97.64569 369.31293 L 62.1837 320.50368 L 61.46153 318.68326 L 60.72726 316.86801 L 60.73049 316.84048 L 60.72028 316.81473 L 60.96175 314.87179 L 61.19026 312.92649 L 61.20632 312.90391 L 61.20974 312.8764 L 62.1837 311.09912 L 99.17355 260.18696 L 99.91916 259.56929 L 100.48034 258.7803 L 101.42303 258.32348 L 102.22973 257.65521 L 103.18041 257.47187 L 104.05173 257.04964 L 105.09799 257.10207 L 106.12656 256.90371 L 107.92109 257.24353 L 108.01539 257.24826 L 108.04624 257.26723 L 108.11783 257.28079 L 167.96866 276.72751 L 168.24186 276.926 L 171.2467 278.774 L 171.43869 279.24863 L 171.96866 279.63368 L 205.54211 325.84356 L 254.33721 309.98906 L 254.33721 258.68285 L 200.01424 241.03224 L 196.01424 238.12607 L 159.02438 187.21391 L 157.56096 183.52496 L 158.05042 179.58663 L 159.02438 177.80935 L 196.01424 126.89719 L 199.07042 124.36544 L 202.96725 123.61394 L 204.95852 123.99102 L 262.33721 142.63448 L 319.71591 123.99102 L 323.67654 123.73917 L 327.27086 125.42168 L 328.66019 126.89719 L 351.1779 157.89016 L 351.1779 119.58073 L 351.54136 118.16119 L 351.71232 116.70582 L 352.02743 116.26279 L 352.16228 115.73612 L 353.16322 114.66591 L 354.01255 113.47179 L 354.50179 113.23471 L 354.87315 112.83765 L 356.70576 111.97228 L 414.08446 93.32882 L 449.54645 44.51957 L 450.29206 43.9019 L 450.85324 43.11291 L 451.79593 42.65609 L 452.60263 41.98782 L 453.55331 41.80448 L 454.42463 41.38225 L 455.47089 41.43468 L 456.49946 41.23632 Z M 365.65004 555.61778 L 364.50147 556.56926 L 363.48265 557.65858 L 362.99177 557.8199 L 362.59386 558.14953 L 361.12935 558.43196 L 359.7124 558.89762 L 359.20439 558.80319 L 358.69703 558.90103 L 356.70576 558.52395 L 330.18805 549.90783 L 330.18805 562.93424 L 329.20368 566.77885 L 326.4928 569.67732 L 324.66019 570.54269 L 270.33721 588.19329 L 270.33721 645.31185 L 269.35284 649.15646 L 266.64196 652.05493 L 264.80935 652.9203 L 207.43066 671.56376 L 175.38507 715.67073 L 205.54211 757.17833 L 254.33721 741.32383 L 254.33721 684.20528 L 254.70067 682.78574 L 254.87163 681.33037 L 255.18674 680.88734 L 255.32159 680.36067 L 256.32253 679.29046 L 257.17186 678.09634 L 257.6611 677.85926 L 258.03246 677.4622 L 259.86507 676.59683 L 317.24377 657.95336 L 352.70576 609.14412 L 355.76194 606.61237 L 359.65877 605.86087 L 361.65004 606.23795 L 421.50088 625.68466 L 424.85313 627.8089 L 426.77203 631.28278 L 427.02874 633.29311 L 427.02874 693.62465 L 462.49073 742.43389 L 463.95415 746.12284 L 463.87296 746.77614 L 464.01859 747.13617 L 463.64864 748.58108 L 463.46469 750.06117 L 463.09866 750.7291 L 463.03422 750.98078 L 462.85676 751.17052 L 462.49073 751.83845 L 428.91729 798.04834 L 459.07432 839.55594 L 507.86943 823.70144 L 507.86943 769.18225 L 472.40744 720.37301 L 471.68527 718.55259 L 470.951 716.73734 L 470.95423 716.70981 L 470.94402 716.68406 L 471.18549 714.74112 L 471.414 712.79582 L 471.43006 712.77324 L 471.43348 712.74573 L 472.40744 710.96845 L 505.98088 664.75856 L 472.40744 618.54868 L 471.68527 616.72826 L 470.951 614.91301 L 470.95423 614.88548 L 470.94402 614.85973 L 471.18549 612.91679 L 471.414 610.97149 L 471.43006 610.94891 L 471.43348 610.9214 L 472.40744 609.14412 L 480.06417 598.60553 L 453.54645 589.9894 L 453.13279 589.72727 L 452.6513 589.63777 L 451.47613 588.67749 L 450.1942 587.86516 L 449.9574 587.43647 L 449.57819 587.1266 L 449.00911 585.71973 L 448.2753 584.39128 L 448.18468 583.68159 L 448.09001 583.44756 L 448.12105 583.18332 L 448.01859 582.38095 L 448.01859 525.2624 L 399.22349 509.4079 Z M 367.1779 721.48307 L 367.1779 772.78928 L 415.97301 788.64378 L 446.13004 747.13617 L 415.97301 705.62857 Z M 615.18226 476.14634 L 614.18958 476.20946 L 613.24462 476.52001 L 612.24069 476.33339 L 611.22163 476.39819 L 610.32078 475.9765 L 609.34283 475.79471 L 608.55212 475.14858 L 607.62731 474.71568 L 606.30917 473.31578 L 606.26972 473.28354 L 606.26287 473.2666 L 606.23798 473.24017 L 598.58125 462.70159 L 582.19241 485.2589 L 581.04384 486.21038 L 580.02502 487.2997 L 579.53414 487.46102 L 579.13623 487.79065 L 577.67172 488.07308 L 576.25477 488.53874 L 575.74676 488.44431 L 575.2394 488.54215 L 573.24813 488.16507 L 518.92516 470.51447 L 488.76813 512.02207 L 522.34157 558.23196 L 523.80499 561.92091 L 523.7238 562.57421 L 523.86943 562.93424 L 523.49948 564.37915 L 523.31553 565.85924 L 522.9495 566.52717 L 522.88506 566.77885 L 522.7076 566.96859 L 522.34157 567.63652 L 505.95272 590.19384 L 518.34157 594.21922 L 519.9738 595.25352 L 521.61961 596.26571 L 521.63632 596.30702 L 521.69382 596.34346 L 523.61272 599.81734 L 523.86943 601.82767 L 523.86943 658.94622 L 578.19241 676.59683 L 579.82464 677.63113 L 581.47045 678.64332 L 581.48716 678.68463 L 581.54466 678.72107 L 583.46356 682.19495 L 583.72027 684.20528 L 583.72027 744.53681 L 615.76585 788.64378 L 664.56096 772.78928 L 664.56096 721.48307 L 610.23798 703.83246 L 609.82432 703.57033 L 609.34283 703.48083 L 608.16766 702.52055 L 606.88573 701.70822 L 606.64893 701.27953 L 606.26972 700.96966 L 605.70064 699.56279 L 604.96683 698.23434 L 604.87621 697.52465 L 604.78154 697.29062 L 604.81258 697.02638 L 604.71012 696.22401 L 604.71012 635.89247 L 569.24813 587.08323 L 567.78471 583.39428 L 568.27417 579.45595 L 569.24813 577.67867 L 606.23798 526.76651 L 609.29416 524.23476 L 613.19099 523.48326 L 615.18226 523.86034 L 672.56096 542.5038 L 729.93966 523.86034 L 730.40143 523.83098 L 730.81784 523.62919 L 732.35971 523.70645 L 733.90029 523.60849 L 734.31935 523.80465 L 734.7815 523.82781 L 736.09648 524.63653 L 737.49461 525.291 L 737.95408 525.77897 L 738.16198 525.90683 L 738.22789 526.06976 L 738.88394 526.76651 L 772.45738 572.97639 L 821.25249 557.1219 L 821.25249 505.81568 L 769.40165 488.96832 L 712.02295 507.61179 L 711.03027 507.67491 L 710.08531 507.98546 L 709.08138 507.79884 L 708.06232 507.86364 L 707.16147 507.44195 L 706.18352 507.26016 L 705.39281 506.61403 L 704.468 506.18113 L 703.14986 504.78123 L 703.11041 504.74899 L 703.10356 504.73205 L 703.07867 504.70562 L 669.50523 458.49574 Z M 270.33721 690.01762 L 270.33721 741.32383 L 319.13232 757.17833 L 349.28935 715.67073 L 319.13232 674.16312 Z M 332.0766 664.75856 L 362.23363 706.26617 L 411.02874 690.41167 L 411.02874 639.10545 L 362.23363 623.25096 Z M 620.71012 639.10545 L 620.71012 690.41167 L 669.50523 706.26617 L 699.66226 664.75856 L 669.50523 623.25096 Z M 488.76813 613.8464 L 507.86943 640.13709 L 507.86943 607.64001 L 496.06418 603.80425 Z M 78.54439 315.8014 L 108.70142 357.30901 L 163.02438 339.6584 L 163.48616 339.62904 L 163.90256 339.42725 L 165.44437 339.50451 L 166.98501 339.40654 L 167.40409 339.60271 L 167.86622 339.62587 L 169.18117 340.43457 L 170.57933 341.08906 L 171.0388 341.57703 L 171.2467 341.70489 L 171.31261 341.86782 L 171.96866 342.56457 L 207.43066 391.37381 L 264.80935 410.01728 L 266.44158 411.05158 L 268.08739 412.06377 L 268.1041 412.10508 L 268.1616 412.14152 L 270.0805 415.6154 L 270.33721 417.62573 L 270.33721 480.55662 L 269.35284 484.40123 L 266.64196 487.2997 L 264.80935 488.16507 L 207.43066 506.80854 L 171.96866 555.61778 L 168.91248 558.14953 L 165.01565 558.90103 L 163.02438 558.52395 L 108.70142 540.87335 L 78.54439 582.38095 L 108.70142 623.88855 L 160.55224 607.0412 L 196.01424 558.23196 L 196.75985 557.61429 L 197.32103 556.8253 L 198.26372 556.36848 L 199.07042 555.70021 L 200.0211 555.51687 L 200.89242 555.09464 L 201.93868 555.14707 L 202.96725 554.94871 L 204.76178 555.28853 L 204.85608 555.29326 L 204.88693 555.31223 L 204.95852 555.32579 L 259.28148 572.97639 L 292.85493 526.76651 L 293.60054 526.14884 L 294.16172 525.35985 L 295.10441 524.90303 L 295.91111 524.23476 L 296.86179 524.05142 L 297.73311 523.62919 L 298.77937 523.68162 L 299.80794 523.48326 L 301.60247 523.82308 L 301.69677 523.82781 L 301.72762 523.84678 L 301.79921 523.86034 L 314.18805 527.88572 L 314.18805 500.00334 L 315.17243 496.15873 L 317.8833 493.26026 L 319.71591 492.39489 L 374.03889 474.74428 L 374.03889 423.43807 L 319.71591 405.78746 L 316.36366 403.66322 L 314.44476 400.18934 L 314.18805 398.17901 L 314.18805 370.29664 L 301.79921 374.32202 L 300.80652 374.38515 L 299.86157 374.69569 L 298.85767 374.50908 L 297.83858 374.57388 L 296.9377 374.15218 L 295.95978 373.97039 L 295.16907 373.32427 L 294.24426 372.89136 L 292.92612 371.49146 L 292.88667 371.45922 L 292.87982 371.44228 L 292.85493 371.41585 L 259.28148 325.20596 L 204.95852 342.85657 L 203.96583 342.9197 L 203.02088 343.23024 L 202.01698 343.04363 L 200.99789 343.10843 L 200.09701 342.68673 L 199.11909 342.50494 L 198.32838 341.85882 L 197.40357 341.42591 L 196.08543 340.02601 L 196.04598 339.99377 L 196.03913 339.97683 L 196.01424 339.9504 L 160.55224 291.14116 L 108.70142 274.2938 Z M 585.60882 582.38095 L 615.76585 623.88855 L 664.56096 608.03406 L 664.56096 556.72784 L 615.76585 540.87335 Z M 680.56096 556.72784 L 680.56096 608.03406 L 729.35607 623.88855 L 759.5131 582.38095 L 729.35607 540.87335 Z M 464.01859 321.61374 L 464.01859 378.7323 L 463.03422 382.57691 L 460.32334 385.47538 L 458.49073 386.34075 L 398.6399 405.78746 L 397.64722 405.85058 L 396.70226 406.16113 L 395.69833 405.97451 L 394.67927 406.03931 L 393.77842 405.61762 L 392.80047 405.43583 L 392.00976 404.7897 L 391.08495 404.3568 L 389.76681 402.9569 L 389.72736 402.92466 L 389.72051 402.90772 L 389.69562 402.88129 L 356.12217 356.67141 L 330.18805 365.09792 L 330.18805 392.36667 L 384.51103 410.01728 L 387.86328 412.14152 L 389.78218 415.6154 L 390.03889 417.62573 L 390.03889 480.55662 L 389.05452 484.40123 L 386.34364 487.2997 L 384.51103 488.16507 L 330.18805 505.81568 L 330.18805 533.08443 L 356.12217 541.51094 L 389.69562 495.30106 L 390.44123 494.68339 L 391.00241 493.8944 L 391.9451 493.43758 L 392.7518 492.76931 L 393.70248 492.58597 L 394.5738 492.16374 L 395.62006 492.21617 L 396.64863 492.01781 L 398.44316 492.35763 L 398.53746 492.36236 L 398.56831 492.38133 L 398.6399 492.39489 L 458.49073 511.84161 L 460.12296 512.87591 L 461.76877 513.8881 L 461.78548 513.92941 L 461.84298 513.96585 L 463.76188 517.43973 L 464.01859 519.45006 L 464.01859 576.56861 L 489.95272 584.99512 L 505.98088 562.93424 L 472.40744 516.72435 L 471.68527 514.90393 L 470.951 513.08868 L 470.95423 513.06115 L 470.94402 513.0354 L 471.18549 511.09246 L 471.414 509.14716 L 471.43006 509.12458 L 471.43348 509.09707 L 472.40744 507.31979 L 509.39729 456.40763 L 510.1429 455.78996 L 510.70408 455.00097 L 511.64677 454.54415 L 512.45347 453.87588 L 513.40415 453.69254 L 514.27547 453.27031 L 515.32173 453.32274 L 516.3503 453.12438 L 518.14483 453.4642 L 518.23913 453.46893 L 518.26998 453.4879 L 518.34157 453.50146 L 572.66454 471.15206 L 588.69271 449.09118 L 572.66454 427.03029 L 518.34157 444.6809 L 517.34889 444.74402 L 516.40393 445.05457 L 515.4 444.86795 L 514.38094 444.93275 L 513.48009 444.51106 L 512.50214 444.32927 L 511.71143 443.68314 L 510.78662 443.25024 L 509.46848 441.85034 L 509.42903 441.8181 L 509.42218 441.80116 L 509.39729 441.77473 L 472.40744 390.86256 L 471.68527 389.04214 L 470.951 387.22689 L 470.95423 387.19936 L 470.94402 387.17361 L 471.18549 385.23067 L 471.414 383.28537 L 471.43006 383.26279 L 471.43348 383.23528 L 472.40744 381.458 L 505.98088 335.24812 L 489.95271 313.18724 Z M 283.28149 567.16405 L 314.18805 557.1219 L 314.18805 544.70911 L 302.3828 540.87335 Z M 113.64569 474.35023 L 113.64569 525.65645 L 162.44079 541.51094 L 192.59783 500.00334 L 162.44079 458.49574 Z M 175.38507 449.09118 L 205.54211 490.59878 L 254.33721 474.74428 L 254.33721 423.43807 L 205.54211 407.58357 Z M 608.4698 449.09118 L 615.76585 459.13333 L 646.67242 449.09118 L 615.76585 439.04902 Z M 113.64569 372.52591 L 113.64569 423.83212 L 162.44079 439.68662 L 192.59783 398.17901 L 162.44079 356.67141 Z M 583.72027 153.64554 L 583.72027 213.97708 L 582.7359 217.82169 L 580.02502 220.72016 L 578.19241 221.58553 L 523.86943 239.23613 L 523.86943 296.35469 L 522.88506 300.1993 L 520.17418 303.09777 L 518.34157 303.96314 L 505.95272 307.98852 L 522.34157 330.54584 L 523.80499 334.23479 L 523.7238 334.88809 L 523.86943 335.24812 L 523.49948 336.69303 L 523.31553 338.17312 L 522.9495 338.84105 L 522.88506 339.09273 L 522.7076 339.28247 L 522.34157 339.9504 L 488.76813 386.16028 L 518.92516 427.66789 L 573.24813 410.01728 L 573.7099 409.98792 L 574.12631 409.78613 L 575.66818 409.86339 L 577.20876 409.76543 L 577.62782 409.96159 L 578.08997 409.98475 L 579.40495 410.79347 L 580.80308 411.44794 L 581.26255 411.93591 L 581.47045 412.06377 L 581.53636 412.2267 L 582.19241 412.92345 L 598.58125 435.48076 L 606.23798 424.94218 L 606.98359 424.32451 L 607.54477 423.53552 L 608.48746 423.0787 L 609.29416 422.41043 L 610.24484 422.22709 L 611.11616 421.80486 L 612.16242 421.85729 L 613.19099 421.65893 L 614.98552 421.99875 L 615.07982 422.00348 L 615.11067 422.02245 L 615.18226 422.03601 L 669.50523 439.68662 L 703.07867 393.47673 L 703.82428 392.85906 L 704.38546 392.07007 L 705.32815 391.61325 L 706.13485 390.94498 L 707.08553 390.76164 L 707.95685 390.33941 L 709.00311 390.39184 L 710.03168 390.19348 L 711.82621 390.5333 L 711.92051 390.53803 L 711.95136 390.557 L 712.02295 390.57056 L 769.40165 409.21403 L 821.25249 392.36667 L 821.25249 341.06046 L 772.45738 325.20596 L 738.88394 371.41585 L 737.73537 372.36733 L 736.71655 373.45665 L 736.22567 373.61797 L 735.82776 373.9476 L 734.36325 374.23003 L 732.9463 374.69569 L 732.43829 374.60126 L 731.93093 374.6991 L 729.93966 374.32202 L 672.56096 355.67855 L 615.18226 374.32202 L 611.22163 374.57387 L 607.62731 372.89136 L 606.23798 371.41585 L 569.24813 320.50368 L 567.78471 316.81473 L 568.27417 312.8764 L 569.24813 311.09912 L 604.71012 262.28988 L 604.71012 201.95834 L 605.07358 200.5388 L 605.24454 199.08343 L 605.55965 198.6404 L 605.6945 198.11373 L 606.69544 197.04352 L 607.54477 195.8494 L 608.03401 195.61232 L 608.40537 195.21526 L 610.23798 194.34989 L 664.56096 176.69929 L 664.56096 125.39307 L 615.76585 109.53858 Z M 428.91729 100.13402 L 462.49073 146.3439 L 463.95415 150.03285 L 463.87296 150.68615 L 464.01859 151.04618 L 463.64864 152.49109 L 463.46469 153.97118 L 463.09866 154.63911 L 463.03422 154.89079 L 462.85676 155.08053 L 462.49073 155.74846 L 427.02874 204.5577 L 427.02874 264.88924 L 426.04437 268.73385 L 423.33349 271.63232 L 421.50088 272.49769 L 361.65004 291.94441 L 357.68941 292.19626 L 354.09509 290.51375 L 352.70576 289.03824 L 317.24377 240.22899 L 259.86507 221.58553 L 256.51282 219.46129 L 254.59392 215.98741 L 254.33721 213.97708 L 254.33721 156.85852 L 205.54211 141.00403 L 175.38507 182.51163 L 207.43066 226.61859 L 264.80935 245.26206 L 268.1616 247.3863 L 270.0805 250.86018 L 270.33721 252.87051 L 270.33721 309.98906 L 324.66019 327.63967 L 328.01244 329.76391 L 329.93134 333.23779 L 330.18805 335.24812 L 330.18805 348.27453 L 356.70576 339.6584 L 357.16754 339.62904 L 357.58394 339.42725 L 359.12575 339.50451 L 360.66639 339.40654 L 361.08547 339.60271 L 361.5476 339.62587 L 362.86255 340.43457 L 364.26071 341.08906 L 364.72018 341.57703 L 364.92808 341.70489 L 364.99399 341.86782 L 365.65004 342.56457 L 399.22349 388.77445 L 448.01859 372.91996 L 448.01859 315.8014 L 448.38205 314.38186 L 448.55301 312.92649 L 448.86812 312.48346 L 449.00297 311.95679 L 450.00391 310.88658 L 450.85324 309.69246 L 451.34248 309.45538 L 451.71384 309.05832 L 453.54645 308.19295 L 480.06417 299.57682 L 472.40744 289.03824 L 471.68527 287.21782 L 470.951 285.40257 L 470.95423 285.37504 L 470.94402 285.34929 L 471.18549 283.40635 L 471.414 281.46105 L 471.43006 281.43847 L 471.43348 281.41096 L 472.40744 279.63368 L 505.98088 233.42379 L 472.40744 187.21391 L 471.68527 185.39349 L 470.951 183.57824 L 470.95423 183.55071 L 470.94402 183.52496 L 471.18549 181.58202 L 471.414 179.63672 L 471.43006 179.61414 L 471.43348 179.58663 L 472.40744 177.80935 L 507.86943 129.00011 L 507.86943 74.48091 L 459.07432 58.62641 Z M 302.3828 357.30901 L 314.18805 353.47325 L 314.18805 341.06046 L 283.28149 331.01831 Z M 585.60882 315.8014 L 615.76585 357.30901 L 664.56096 341.45451 L 664.56096 290.1483 L 615.76585 274.2938 Z M 680.56096 290.1483 L 680.56096 341.45451 L 729.35607 357.30901 L 759.5131 315.8014 L 729.35607 274.2938 Z M 488.76813 284.33596 L 496.06417 294.37811 L 507.86943 290.54235 L 507.86943 258.04527 Z M 332.0766 233.42379 L 362.23363 274.9314 L 411.02874 259.0769 L 411.02874 207.77068 L 362.23363 191.91619 Z M 620.71012 207.77068 L 620.71012 259.0769 L 669.50523 274.9314 L 699.66226 233.42379 L 669.50523 191.91619 Z M 270.33721 156.85852 L 270.33721 208.16474 L 319.13232 224.01923 L 349.28935 182.51163 L 319.13232 141.00403 Z M 367.1779 125.39307 L 367.1779 176.69929 L 415.97301 192.55378 L 446.13004 151.04618 L 415.97301 109.53858 Z" stroke-miterlimit="10"/></g></svg>