<svg version="1.1" xmlns="http://www.w3.org/2000/svg" xmlns:xlink="http://www.w3.org/1999/xlink" width="1200" height="1600"><defs/><g><path fill="#222222" stroke="#cccccc" paint-order="fill stroke markers" d=" M 356.6903 80.45904 L 357.95675 80.9271 L 375.97117 91.32773 L 377.04804 92.23588 L 377.7433 93.46102 L 377.97117 94.79183 L 377.97117 113.28368 L 391.98558 121.37491 L 408 112.12898 L 409.32491 111.65046 L 410.73355 111.66092 L 412 112.12898 L 430.01442 122.52961 L 431.09129 123.43776 L 431.78655 124.6629 L 432.01442 125.99371 L 432.01442 146.79497 L 431.76637 148.18164 L 431.053 149.39633 L 430.01442 150.25907 L 414 159.505 L 414 177.99686 L 413.75195 179.38353 L 413.03858 180.59822 L 412 181.46096 L 395.98558 190.70689 L 395.98558 206.88934 L 410 214.98057 L 424.01442 206.88934 L 424.01442 188.39749 L 424.26247 187.01082 L 424.97584 185.79613 L 426.01442 184.93339 L 442.02883 175.68746 L 442.02883 157.1956 L 442.27688 155.80893 L 442.99025 154.59424 L 444.02883 153.7315 L 462.04325 143.33087 L 463.36816 142.85235 L 464.7768 142.86281 L 466.04325 143.33087 L 484.05767 153.7315 L 485.13454 154.63965 L 485.8298 155.86479 L 486.05767 157.1956 L 486.05767 175.68746 L 500.07209 183.77869 L 516.0865 174.53276 L 517.41141 174.05424 L 518.82005 174.0647 L 520.0865 174.53276 L 538.10092 184.93339 L 539.17779 185.84154 L 539.87305 187.06668 L 540.10092 188.39749 L 540.10092 209.19874 L 539.85287 210.58541 L 539.1395 211.8001 L 538.10092 212.66284 L 522.0865 221.90877 L 522.0865 238.09123 L 538.10092 247.33716 L 539.17779 248.24531 L 539.87305 249.47045 L 540.10092 250.80126 L 540.10092 271.60251 L 539.85287 272.98918 L 539.1395 274.20387 L 538.10092 275.06661 L 520.0865 285.46724 L 518.76159 285.94576 L 517.35295 285.9353 L 516.0865 285.46724 L 500.07209 276.22131 L 486.05767 284.31254 L 486.05767 302.8044 L 485.80962 304.19107 L 485.09625 305.40576 L 484.05767 306.2685 L 466.04325 316.66913 L 464.71834 317.14765 L 463.3097 317.13719 L 462.04325 316.66913 L 444.02883 306.2685 L 442.95196 305.36035 L 442.2567 304.13521 L 442.02883 302.8044 L 442.02883 284.31254 L 426.01442 275.06661 L 424.93755 274.15846 L 424.24229 272.93332 L 424.01442 271.60251 L 424.01442 253.11066 L 410 245.01943 L 395.98558 253.11066 L 395.98558 269.29311 L 412 278.53904 L 413.07687 279.44719 L 413.77213 280.67233 L 414 282.00314 L 414 300.495 L 430.01442 309.74093 L 431.09129 310.64908 L 431.78655 311.87422 L 432.01442 313.20503 L 432.01442 334.00629 L 431.76637 335.39296 L 431.053 336.60765 L 430.01442 337.47039 L 412 347.87102 L 410.67509 348.34954 L 409.26645 348.33908 L 408 347.87102 L 391.98558 338.62509 L 377.97117 346.71632 L 377.97117 365.20817 L 377.72312 366.59484 L 377.00975 367.80953 L 375.97117 368.67227 L 357.95675 379.0729 L 356.63184 379.55142 L 355.2232 379.54096 L 353.95675 379.0729 L 335.94233 368.67227 L 334.86546 367.76412 L 334.1702 366.53898 L 333.94233 365.20817 L 333.94233 346.71632 L 319.92791 338.62509 L 303.9135 347.87102 L 302.58859 348.34954 L 301.17995 348.33908 L 299.9135 347.87102 L 281.89908 337.47039 L 280.82221 336.56224 L 280.12695 335.3371 L 279.89908 334.00629 L 279.89908 313.20503 L 280.14713 311.81836 L 280.8605 310.60367 L 281.89908 309.74093 L 297.9135 300.495 L 297.9135 284.31254 L 281.89908 275.06661 L 280.82221 274.15846 L 280.12695 272.93332 L 279.89908 271.60251 L 279.89908 250.80126 L 280.14713 249.41459 L 280.8605 248.1999 L 281.89908 247.33716 L 299.9135 236.93653 L 299.9701 236.91609 L 300.01724 236.87867 L 300.631 236.67739 L 301.23841 236.45801 L 301.29859 236.45846 L 301.35578 236.4397 L 302.00135 236.46368 L 302.64705 236.46847 L 302.70333 236.48975 L 302.76349 236.49198 L 303.9135 236.93653 L 319.92791 246.18246 L 335.94233 236.93653 L 337.26724 236.45801 L 338.67588 236.46847 L 339.94233 236.93653 L 355.95675 246.18246 L 369.97117 238.09123 L 369.97117 221.90877 L 355.95675 213.81754 L 339.94233 223.06347 L 338.61742 223.54199 L 337.20878 223.53153 L 335.94233 223.06347 L 319.92791 213.81754 L 303.9135 223.06347 L 302.58859 223.54199 L 301.17995 223.53153 L 299.9135 223.06347 L 281.89908 212.66284 L 280.82221 211.75469 L 280.12695 210.52955 L 279.89908 209.19874 L 279.89908 188.39749 L 280.14713 187.01082 L 280.8605 185.79613 L 281.89908 184.93339 L 297.9135 175.68746 L 297.9135 159.505 L 281.89908 150.25907 L 280.82221 149.35092 L 280.12695 148.12578 L 279.89908 146.79497 L 279.89908 125.99371 L 280.14713 124.60704 L 280.8605 123.39235 L 281.89908 122.52961 L 299.9135 112.12898 L 301.23841 111.65046 L 302.64705 111.66092 L 303.9135 112.12898 L 319.92791 121.37491 L 333.94233 113.28368 L 333.94233 94.79183 L 334.19038 93.40516 L 334.90375 92.19047 L 335.94233 91.32773 L 353.95675 80.9271 L 355.28166 80.44858 Z M 393.98558 316.66913 L 392.66067 317.14765 L 391.25203 317.13719 L 389.98558 316.66913 L 373.97117 307.4232 L 359.95675 315.51443 L 359.95675 334.00629 L 359.7087 335.39296 L 358.99533 336.60765 L 357.95675 337.47039 L 341.94233 346.71632 L 341.94233 362.89877 L 355.95675 370.99 L 369.97117 362.89877 L 369.97117 344.40692 L 370.21922 343.02025 L 370.93259 341.80556 L 371.97117 340.94282 L 389.98558 330.54219 L 391.31049 330.06367 L 392.71913 330.07413 L 393.98558 330.54219 L 410 339.78812 L 424.01442 331.69689 L 424.01442 315.51443 L 410 307.4232 Z M 287.89908 253.11066 L 287.89908 269.29311 L 303.9135 278.53904 L 304.99037 279.44719 L 305.68563 280.67233 L 305.9135 282.00314 L 305.9135 302.8044 L 305.66545 304.19107 L 304.95208 305.40576 L 303.9135 306.2685 L 287.89908 315.51443 L 287.89908 331.69689 L 301.9135 339.78812 L 315.92791 331.69689 L 315.92791 313.20503 L 316.17596 311.81836 L 316.88933 310.60367 L 317.92791 309.74093 L 333.94233 300.495 L 333.94233 284.31254 L 317.92791 275.06661 L 316.85104 274.15846 L 316.15578 272.93332 L 315.92791 271.60251 L 315.92791 253.11066 L 301.9135 245.01943 Z M 323.92791 315.51443 L 323.92791 331.69689 L 337.94233 339.78812 L 351.95675 331.69689 L 351.95675 315.51443 L 337.94233 307.4232 Z M 341.94233 284.31254 L 341.94233 300.495 L 355.95675 308.58623 L 369.97117 300.495 L 369.97117 284.31254 L 355.95675 276.22131 Z M 357.95675 254.26536 L 356.63184 254.74388 L 355.2232 254.73342 L 353.95675 254.26536 L 337.94233 245.01943 L 323.92791 253.11066 L 323.92791 269.29311 L 337.94233 277.38434 L 353.95675 268.13841 L 355.28166 267.65989 L 356.6903 267.67035 L 357.95675 268.13841 L 375.97117 278.53904 L 377.04804 279.44719 L 377.7433 280.67233 L 377.97117 282.00314 L 377.97117 300.495 L 391.98558 308.58623 L 406 300.495 L 406 284.31254 L 389.98558 275.06661 L 388.90871 274.15846 L 388.21345 272.93332 L 387.98558 271.60251 L 387.98558 253.11066 L 373.97117 245.01943 Z M 502.07209 254.26536 L 500.74718 254.74388 L 499.33854 254.73342 L 498.07209 254.26536 L 482.05767 245.01943 L 468.04325 253.11066 L 468.04325 271.60251 L 467.7952 272.98918 L 467.08183 274.20387 L 466.04325 275.06661 L 450.02883 284.31254 L 450.02883 300.495 L 464.04325 308.58623 L 478.05767 300.495 L 478.05767 282.00314 L 478.30572 280.61647 L 479.01909 279.40178 L 480.05767 278.53904 L 498.07209 268.13841 L 499.397 267.65989 L 500.80564 267.67035 L 502.07209 268.13841 L 518.0865 277.38434 L 532.10092 269.29311 L 532.10092 253.11066 L 518.0865 245.01943 Z M 432.01442 190.70689 L 432.01442 209.19874 L 431.76637 210.58541 L 431.053 211.8001 L 430.01442 212.66284 L 414 221.90877 L 414 238.09123 L 430.01442 247.33716 L 431.09129 248.24531 L 431.78655 249.47045 L 432.01442 250.80126 L 432.01442 269.29311 L 446.02883 277.38434 L 460.04325 269.29311 L 460.04325 253.11066 L 444.02883 243.86473 L 442.95196 242.95658 L 442.2567 241.73144 L 442.02883 240.40063 L 442.02883 219.59937 L 442.27688 218.2127 L 442.99025 216.99801 L 444.02883 216.13527 L 460.04325 206.88934 L 460.04325 190.70689 L 446.02883 182.61566 Z M 377.97117 221.90877 L 377.97117 238.09123 L 391.98558 246.18246 L 406 238.09123 L 406 221.90877 L 391.98558 213.81754 Z M 450.02883 221.90877 L 450.02883 238.09123 L 464.04325 246.18246 L 478.05767 238.09123 L 478.05767 221.90877 L 464.04325 213.81754 Z M 486.05767 221.90877 L 486.05767 238.09123 L 500.07209 246.18246 L 514.0865 238.09123 L 514.0865 221.90877 L 500.07209 213.81754 Z M 287.89908 128.30311 L 287.89908 144.48557 L 303.9135 153.7315 L 304.99037 154.63965 L 305.68563 155.86479 L 305.9135 157.1956 L 305.9135 177.99686 L 305.66545 179.38353 L 304.95208 180.59822 L 303.9135 181.46096 L 287.89908 190.70689 L 287.89908 206.88934 L 301.9135 214.98057 L 315.92791 206.88934 L 315.92791 188.39749 L 316.17596 187.01082 L 316.88933 185.79613 L 317.92791 184.93339 L 333.94233 175.68746 L 333.94233 159.505 L 317.92791 150.25907 L 316.85104 149.35092 L 316.15578 148.12578 L 315.92791 146.79497 L 315.92791 128.30311 L 301.9135 120.21188 Z M 377.97117 159.505 L 377.97117 177.99686 L 377.72312 179.38353 L 377.00975 180.59822 L 375.97117 181.46096 L 357.95675 191.86159 L 356.63184 192.34011 L 355.2232 192.32965 L 353.95675 191.86159 L 337.94233 182.61566 L 323.92791 190.70689 L 323.92791 206.88934 L 337.94233 214.98057 L 353.95675 205.73464 L 355.28166 205.25612 L 356.6903 205.26658 L 357.95675 205.73464 L 373.97117 214.98057 L 387.98558 206.88934 L 387.98558 188.39749 L 388.23363 187.01082 L 388.947 185.79613 L 389.98558 184.93339 L 406 175.68746 L 406 159.505 L 391.98558 151.41377 Z M 450.02883 159.505 L 450.02883 175.68746 L 466.04325 184.93339 L 467.12012 185.84154 L 467.81538 187.06668 L 468.04325 188.39749 L 468.04325 206.88934 L 482.05767 214.98057 L 498.07209 205.73464 L 499.397 205.25612 L 500.80564 205.26658 L 502.07209 205.73464 L 518.0865 214.98057 L 532.10092 206.88934 L 532.10092 190.70689 L 518.0865 182.61566 L 502.07209 191.86159 L 500.74718 192.34011 L 499.33854 192.32965 L 498.07209 191.86159 L 480.05767 181.46096 L 478.9808 180.55281 L 478.28554 179.32767 L 478.05767 177.99686 L 478.05767 159.505 L 464.04325 151.41377 Z M 341.94233 159.505 L 341.94233 175.68746 L 355.95675 183.77869 L 369.97117 175.68746 L 369.97117 159.505 L 355.95675 151.41377 Z M 323.92791 128.30311 L 323.92791 144.48557 L 337.94233 152.5768 L 351.95675 144.48557 L 351.95675 128.30311 L 337.94233 120.21188 Z M 341.94233 97.10123 L 341.94233 113.28368 L 357.95675 122.52961 L 359.03362 123.43776 L 359.72888 124.6629 L 359.95675 125.99371 L 359.95675 144.48557 L 373.97117 152.5768 L 389.98558 143.33087 L 391.31049 142.85235 L 392.71913 142.86281 L 393.98558 143.33087 L 410 152.5768 L 424.01442 144.48557 L 424.01442 128.30311 L 410 120.21188 L 393.98558 129.45781 L 392.66067 129.93633 L 391.25203 129.92587 L 389.98558 129.45781 L 371.97117 119.05718 L 370.8943 118.14903 L 370.19904 116.92389 L 369.97117 115.59308 L 369.97117 97.10123 L 355.95675 89.01 Z" stroke-miterlimit="10"/><path fill="#222222" stroke="#cccccc" paint-order="fill stroke markers" d=" M 864.38209 84.33116 L 865.64854 84.79922 L 877.92329 91.88606 L 879.00016 92.79421 L 879.69542 94.01936 L 879.92329 95.35016 L 879.92329 107.21442 L 888.19805 111.99186 L 898.47281 106.05972 L 899.79772 105.5812 L 901.20636 105.59166 L 902.47281 106.05972 L 914.74756 113.14656 L 915.82443 114.05471 L 916.51969 115.27986 L 916.74756 116.61066 L 916.74756 130.78433 L 916.49951 132.171 L 915.78614 133.38569 L 914.74756 134.24843 L 902.47281 141.33526 L 901.1479 141.81378 L 899.73926 141.80332 L 898.47281 141.33526 L 888.19805 135.40313 L 879.92329 140.18056 L 879.92329 152.04483 L 879.67524 153.4315 L 878.96187 154.64619 L 877.92329 155.50893 L 867.64854 161.44106 L 867.64854 170.99593 L 875.92329 175.77336 L 886.19805 169.84123 L 887.52296 169.36271 L 888.9316 169.37317 L 890.19805 169.84123 L 902.47281 176.92806 L 903.54968 177.83621 L 904.24494 179.06135 L 904.47281 180.39216 L 904.47281 194.56583 L 904.22476 195.9525 L 903.51139 197.16719 L 902.47281 198.02993 L 892.19805 203.96206 L 892.19805 215.82633 L 891.95 217.213 L 891.23663 218.42769 L 890.19805 219.29043 L 879.92329 225.22257 L 879.92329 234.77743 L 890.19805 240.70957 L 891.27492 241.61772 L 891.97018 242.84287 L 892.19805 244.17367 L 892.19805 256.03794 L 902.47281 261.97007 L 903.54968 262.87822 L 904.24494 264.10336 L 904.47281 265.43417 L 904.47281 279.60784 L 904.22476 280.99451 L 903.51139 282.2092 L 902.47281 283.07194 L 890.19805 290.15877 L 888.87314 290.63729 L 887.4645 290.62683 L 886.19805 290.15877 L 875.92329 284.22664 L 867.64854 289.00407 L 867.64854 298.55894 L 877.92329 304.49107 L 879.00016 305.39922 L 879.69542 306.62436 L 879.92329 307.95517 L 879.92329 319.81944 L 888.19805 324.59687 L 898.47281 318.66474 L 899.79772 318.18622 L 901.20636 318.19668 L 902.47281 318.66474 L 914.74756 325.75157 L 915.82443 326.65972 L 916.51969 327.88486 L 916.74756 329.21567 L 916.74756 343.38934 L 916.49951 344.77601 L 915.78614 345.9907 L 914.74756 346.85344 L 902.47281 353.94028 L 901.1479 354.4188 L 899.73926 354.40834 L 898.47281 353.94028 L 888.19805 348.00814 L 879.92329 352.78558 L 879.92329 364.64984 L 879.67524 366.03651 L 878.96187 367.2512 L 877.92329 368.11394 L 865.64854 375.20078 L 864.32363 375.6793 L 862.91499 375.66884 L 861.64854 375.20078 L 849.37378 368.11394 L 848.29691 367.20579 L 847.60165 365.98064 L 847.37378 364.64984 L 847.37378 350.47618 L 847.62183 349.08951 L 848.3352 347.87482 L 849.37378 347.01208 L 859.64854 341.07994 L 859.64854 331.52507 L 849.37378 325.59294 L 848.29691 324.68479 L 847.60165 323.45965 L 847.37378 322.12884 L 847.37378 310.26457 L 839.09903 305.48714 L 830.82427 310.26457 L 830.82427 322.12884 L 830.57622 323.51551 L 829.86285 324.7302 L 828.82427 325.59294 L 816.54951 332.67977 L 815.2246 333.15829 L 813.81596 333.14783 L 812.54951 332.67977 L 800.27476 325.59294 L 799.19789 324.68479 L 798.50263 323.45965 L 798.27476 322.12884 L 798.27476 310.26457 L 788 304.33244 L 786.92313 303.42429 L 786.22787 302.19915 L 786 300.86834 L 786 289.00407 L 777.72524 284.22664 L 767.45049 290.15877 L 766.12558 290.63729 L 764.71694 290.62683 L 763.45049 290.15877 L 753.17573 284.22664 L 742.90097 290.15877 L 741.57606 290.63729 L 740.16742 290.62683 L 738.90097 290.15877 L 726.62622 283.07194 L 725.54935 282.16379 L 724.85409 280.93865 L 724.62622 279.60784 L 724.62622 265.43417 L 724.87427 264.0475 L 725.58764 262.83281 L 726.62622 261.97007 L 736.90097 256.03794 L 736.90097 246.48307 L 728.62622 241.70563 L 718.35146 247.63777 L 717.02655 248.11629 L 715.61791 248.10583 L 714.35146 247.63777 L 704.07671 241.70563 L 695.80195 246.48307 L 695.80195 258.34734 L 695.5539 259.73401 L 694.84053 260.9487 L 693.80195 261.81144 L 681.52719 268.89827 L 680.20228 269.37679 L 678.79364 269.36633 L 677.52719 268.89827 L 665.25244 261.81144 L 664.17557 260.90329 L 663.48031 259.67815 L 663.25244 258.34734 L 663.25244 244.17367 L 663.50049 242.787 L 664.21386 241.57231 L 665.25244 240.70957 L 675.52719 234.77743 L 675.52719 225.22257 L 665.25244 219.29043 L 664.17557 218.38228 L 663.48031 217.15713 L 663.25244 215.82633 L 663.25244 201.65266 L 663.50049 200.26599 L 664.21386 199.0513 L 665.25244 198.18856 L 677.52719 191.10173 L 678.8521 190.62321 L 680.26074 190.63367 L 681.52719 191.10173 L 693.80195 198.18856 L 694.87882 199.09671 L 695.57408 200.32185 L 695.80195 201.65266 L 695.80195 213.51693 L 704.07671 218.29437 L 714.35146 212.36223 L 715.67637 211.88371 L 717.08501 211.89417 L 718.35146 212.36223 L 728.62622 218.29437 L 736.90097 213.51693 L 736.90097 203.96206 L 726.62622 198.02993 L 725.54935 197.12178 L 724.85409 195.89664 L 724.62622 194.56583 L 724.62622 180.39216 L 724.87427 179.00549 L 725.58764 177.7908 L 726.62622 176.92806 L 738.90097 169.84123 L 740.22588 169.36271 L 741.63452 169.37317 L 742.90097 169.84123 L 753.17573 175.77336 L 763.45049 169.84123 L 764.7754 169.36271 L 766.18404 169.37317 L 767.45049 169.84123 L 777.72524 175.77336 L 786 170.99593 L 786 159.13166 L 786.24805 157.74499 L 786.96142 156.5303 L 788 155.66756 L 798.27476 149.73543 L 798.27476 137.87116 L 798.52281 136.48449 L 799.23618 135.2698 L 800.27476 134.40706 L 812.54951 127.32023 L 813.87442 126.84171 L 815.28306 126.85217 L 816.54951 127.32023 L 828.82427 134.40706 L 829.90114 135.31521 L 830.5964 136.54035 L 830.82427 137.87116 L 830.82427 149.73543 L 839.09903 154.51286 L 847.37378 149.73543 L 847.37378 137.87116 L 847.62183 136.48449 L 848.3352 135.2698 L 849.37378 134.40706 L 859.64854 128.47493 L 859.64854 118.92006 L 849.37378 112.98792 L 848.29691 112.07977 L 847.60165 110.85462 L 847.37378 109.52382 L 847.37378 95.35016 L 847.62183 93.96349 L 848.3352 92.7488 L 849.37378 91.88606 L 861.64854 84.79922 L 862.97345 84.3207 Z M 855.37378 97.65956 L 855.37378 107.21442 L 865.64854 113.14656 L 866.72541 114.05471 L 867.42067 115.27986 L 867.64854 116.61066 L 867.64854 130.78433 L 867.40049 132.171 L 866.68712 133.38569 L 865.64854 134.24843 L 855.37378 140.18056 L 855.37378 152.04483 L 855.12573 153.4315 L 854.41236 154.64619 L 853.37378 155.50893 L 841.09903 162.59576 L 839.77412 163.07428 L 838.36548 163.06382 L 837.09903 162.59576 L 824.82427 155.50893 L 823.7474 154.60078 L 823.05214 153.37564 L 822.82427 152.04483 L 822.82427 140.18056 L 814.54951 135.40313 L 806.27476 140.18056 L 806.27476 149.73543 L 816.54951 155.66756 L 817.62638 156.57571 L 818.32164 157.80085 L 818.54951 159.13166 L 818.54951 170.99593 L 828.82427 176.92806 L 829.90114 177.83621 L 830.5964 179.06135 L 830.82427 180.39216 L 830.82427 194.56583 L 830.57622 195.9525 L 829.86285 197.16719 L 828.82427 198.02993 L 816.54951 205.11676 L 815.2246 205.59528 L 813.81596 205.58482 L 812.54951 205.11676 L 802.27476 199.18463 L 794 203.96206 L 794 215.82633 L 793.75195 217.213 L 793.03858 218.42769 L 792 219.29043 L 779.72524 226.37727 L 778.40033 226.85579 L 776.99169 226.84533 L 775.72524 226.37727 L 763.45049 219.29043 L 762.37362 218.38228 L 761.67836 217.15713 L 761.45049 215.82633 L 761.45049 203.96206 L 751.17573 198.02993 L 750.09886 197.12178 L 749.4036 195.89664 L 749.17573 194.56583 L 749.17573 182.70156 L 740.90097 177.92413 L 732.62622 182.70156 L 732.62622 192.25643 L 742.90097 198.18856 L 743.97784 199.09671 L 744.6731 200.32185 L 744.90097 201.65266 L 744.90097 215.82633 L 744.65292 217.213 L 743.93955 218.42769 L 742.90097 219.29043 L 730.62622 226.37727 L 729.30131 226.85579 L 727.89267 226.84533 L 726.62622 226.37727 L 716.35146 220.44513 L 706.07671 226.37727 L 704.7518 226.85579 L 703.34316 226.84533 L 702.07671 226.37727 L 689.80195 219.29043 L 688.72508 218.38228 L 688.02982 217.15713 L 687.80195 215.82633 L 687.80195 203.96206 L 679.52719 199.18463 L 671.25244 203.96206 L 671.25244 213.51693 L 681.52719 219.44907 L 682.60406 220.35722 L 683.29932 221.58237 L 683.52719 222.91317 L 683.52719 237.08683 L 683.27914 238.4735 L 682.56577 239.68819 L 681.52719 240.55093 L 671.25244 246.48307 L 671.25244 256.03794 L 679.52719 260.81537 L 687.80195 256.03794 L 687.80195 244.17367 L 688.05 242.787 L 688.76337 241.57231 L 689.80195 240.70957 L 702.07671 233.62273 L 703.40162 233.14421 L 704.81026 233.15467 L 706.07671 233.62273 L 716.35146 239.55487 L 726.62622 233.62273 L 727.95113 233.14421 L 729.35977 233.15467 L 730.62622 233.62273 L 742.90097 240.70957 L 743.97784 241.61772 L 744.6731 242.84287 L 744.90097 244.17367 L 744.90097 258.34734 L 744.65292 259.73401 L 743.93955 260.9487 L 742.90097 261.81144 L 732.62622 267.74357 L 732.62622 277.29844 L 740.90097 282.07587 L 749.17573 277.29844 L 749.17573 265.43417 L 749.42378 264.0475 L 750.13715 262.83281 L 751.17573 261.97007 L 761.45049 256.03794 L 761.45049 244.17367 L 761.69854 242.787 L 762.41191 241.57231 L 763.45049 240.70957 L 775.72524 233.62273 L 777.05015 233.14421 L 778.45879 233.15467 L 779.72524 233.62273 L 792 240.70957 L 793.07687 241.61772 L 793.77213 242.84287 L 794 244.17367 L 794 256.03794 L 802.27476 260.81537 L 812.54951 254.88324 L 813.87442 254.40472 L 815.28306 254.41518 L 816.54951 254.88324 L 828.82427 261.97007 L 829.90114 262.87822 L 830.5964 264.10336 L 830.82427 265.43417 L 830.82427 279.60784 L 830.57622 280.99451 L 829.86285 282.2092 L 828.82427 283.07194 L 818.54951 289.00407 L 818.54951 300.86834 L 818.53891 300.92757 L 818.54775 300.98711 L 818.41518 301.61926 L 818.30146 302.25501 L 818.27098 302.30691 L 818.25863 302.3658 L 817.91529 302.91255 L 817.58809 303.4697 L 817.54149 303.50783 L 817.5095 303.55877 L 816.54951 304.33244 L 806.27476 310.26457 L 806.27476 319.81944 L 814.54951 324.59687 L 822.82427 319.81944 L 822.82427 307.95517 L 823.07232 306.5685 L 823.78569 305.35381 L 824.82427 304.49107 L 837.09903 297.40424 L 838.42394 296.92572 L 839.83258 296.93618 L 841.09903 297.40424 L 853.37378 304.49107 L 854.45065 305.39922 L 855.14591 306.62436 L 855.37378 307.95517 L 855.37378 319.81944 L 865.64854 325.75157 L 866.72541 326.65972 L 867.42067 327.88486 L 867.64854 329.21567 L 867.64854 343.38934 L 867.40049 344.77601 L 866.68712 345.9907 L 865.64854 346.85344 L 855.37378 352.78558 L 855.37378 362.34044 L 863.64854 367.11788 L 871.92329 362.34044 L 871.92329 350.47618 L 872.17134 349.08951 L 872.88471 347.87482 L 873.92329 347.01208 L 886.19805 339.92524 L 887.52296 339.44672 L 888.9316 339.45718 L 890.19805 339.92524 L 900.47281 345.85738 L 908.74756 341.07994 L 908.74756 331.52507 L 900.47281 326.74764 L 890.19805 332.67977 L 888.87314 333.15829 L 887.4645 333.14783 L 886.19805 332.67977 L 873.92329 325.59294 L 872.84642 324.68479 L 872.15116 323.45965 L 871.92329 322.12884 L 871.92329 310.26457 L 861.64854 304.33244 L 860.57167 303.42429 L 859.87641 302.19915 L 859.64854 300.86834 L 859.64854 286.69467 L 859.89659 285.308 L 860.60996 284.09331 L 861.64854 283.23057 L 873.92329 276.14374 L 875.2482 275.66522 L 876.65684 275.67568 L 877.92329 276.14374 L 888.19805 282.07587 L 896.47281 277.29844 L 896.47281 267.74357 L 888.19805 262.96614 L 877.92329 268.89827 L 876.59838 269.37679 L 875.18974 269.36633 L 873.92329 268.89827 L 863.64854 262.96614 L 853.37378 268.89827 L 852.04887 269.37679 L 850.64023 269.36633 L 849.37378 268.89827 L 837.09903 261.81144 L 836.02216 260.90329 L 835.3269 259.67815 L 835.09903 258.34734 L 835.09903 244.17367 L 835.34708 242.787 L 836.06045 241.57231 L 837.09903 240.70957 L 847.37378 234.77743 L 847.37378 225.22257 L 837.09903 219.29043 L 836.02216 218.38228 L 835.3269 217.15713 L 835.09903 215.82633 L 835.09903 201.65266 L 835.34708 200.26599 L 836.06045 199.0513 L 837.09903 198.18856 L 849.37378 191.10173 L 850.69869 190.62321 L 852.10733 190.63367 L 853.37378 191.10173 L 863.64854 197.03386 L 873.92329 191.10173 L 875.2482 190.62321 L 876.65684 190.63367 L 877.92329 191.10173 L 888.19805 197.03386 L 896.47281 192.25643 L 896.47281 182.70156 L 888.19805 177.92413 L 877.92329 183.85626 L 876.59838 184.33478 L 875.18974 184.32432 L 873.92329 183.85626 L 861.64854 176.76943 L 860.57167 175.86128 L 859.87641 174.63614 L 859.64854 173.30533 L 859.64854 159.13166 L 859.89659 157.74499 L 860.60996 156.5303 L 861.64854 155.66756 L 871.92329 149.73543 L 871.92329 137.87116 L 872.17134 136.48449 L 872.88471 135.2698 L 873.92329 134.40706 L 886.19805 127.32023 L 887.52296 126.84171 L 888.9316 126.85217 L 890.19805 127.32023 L 900.47281 133.25236 L 908.74756 128.47493 L 908.74756 118.92006 L 900.47281 114.14262 L 890.19805 120.07476 L 888.87314 120.55328 L 887.4645 120.54282 L 886.19805 120.07476 L 873.92329 112.98792 L 872.84642 112.07977 L 872.15116 110.85462 L 871.92329 109.52382 L 871.92329 97.65956 L 863.64854 92.88212 Z M 769.45049 246.48307 L 769.45049 258.34734 L 769.20244 259.73401 L 768.48907 260.9487 L 767.45049 261.81144 L 757.17573 267.74357 L 757.17573 277.29844 L 765.45049 282.07587 L 775.72524 276.14374 L 777.05015 275.66522 L 778.45879 275.67568 L 779.72524 276.14374 L 792 283.23057 L 793.07687 284.13872 L 793.77213 285.36386 L 794 286.69467 L 794 298.55894 L 802.27476 303.33637 L 810.54951 298.55894 L 810.54951 286.69467 L 810.79756 285.308 L 811.51093 284.09331 L 812.54951 283.23057 L 822.82427 277.29844 L 822.82427 267.74357 L 814.54951 262.96614 L 804.27476 268.89827 L 802.94985 269.37679 L 801.54121 269.36633 L 800.27476 268.89827 L 788 261.81144 L 786.92313 260.90329 L 786.22787 259.67815 L 786 258.34734 L 786 246.48307 L 777.72524 241.70563 Z M 865.64854 205.11676 L 864.32363 205.59528 L 862.91499 205.58482 L 861.64854 205.11676 L 851.37378 199.18463 L 843.09903 203.96206 L 843.09903 213.51693 L 853.37378 219.44907 L 854.45065 220.35722 L 855.14591 221.58237 L 855.37378 222.91317 L 855.37378 237.08683 L 855.12573 238.4735 L 854.41236 239.68819 L 853.37378 240.55093 L 843.09903 246.48307 L 843.09903 256.03794 L 851.37378 260.81537 L 861.64854 254.88324 L 862.97345 254.40472 L 864.38209 254.41518 L 865.64854 254.88324 L 875.92329 260.81537 L 884.19805 256.03794 L 884.19805 246.48307 L 873.92329 240.55093 L 872.84642 239.64278 L 872.15116 238.41763 L 871.92329 237.08683 L 871.92329 222.91317 L 872.17134 221.5265 L 872.88471 220.31181 L 873.92329 219.44907 L 884.19805 213.51693 L 884.19805 203.96206 L 875.92329 199.18463 Z M 794 161.44106 L 794 173.30533 L 793.75195 174.692 L 793.03858 175.90669 L 792 176.76943 L 779.72524 183.85626 L 778.40033 184.33478 L 776.99169 184.32432 L 775.72524 183.85626 L 765.45049 177.92413 L 757.17573 182.70156 L 757.17573 192.25643 L 767.45049 198.18856 L 768.52736 199.09671 L 769.22262 200.32185 L 769.45049 201.65266 L 769.45049 213.51693 L 777.72524 218.29437 L 786 213.51693 L 786 201.65266 L 786.24805 200.26599 L 786.96142 199.0513 L 788 198.18856 L 800.27476 191.10173 L 801.59967 190.62321 L 803.00831 190.63367 L 804.27476 191.10173 L 814.54951 197.03386 L 822.82427 192.25643 L 822.82427 182.70156 L 812.54951 176.76943 L 811.47264 175.86128 L 810.77738 174.63614 L 810.54951 173.30533 L 810.54951 161.44106 L 802.27476 156.66363 Z" stroke-miterlimit="10"/><path fill="#222222" stroke="#cccccc" paint-order="fill stroke markers" d=" M 375.73643 457.89347 L 377.00288 458.36153 L 400.33429 471.83192 L 401.41116 472.74007 L 402.10642 473.96521 L 402.33429 475.29602 L 402.33429 502.23682 L 402.08624 503.62349 L 401.37287 504.83818 L 400.33429 505.70092 L 379.00288 518.01662 L 379.00288 540.33861 L 398.33429 551.49961 L 419.66571 539.18391 L 420.99062 538.70539 L 422.39926 538.71585 L 423.66571 539.18391 L 446.99712 552.65431 L 448.07399 553.56246 L 448.76925 554.7876 L 448.99712 556.11841 L 448.99712 580.7498 L 468.32853 591.9108 L 487.65995 580.7498 L 487.65995 556.11841 L 487.908 554.73174 L 488.62137 553.51705 L 489.65995 552.65431 L 512.99136 539.18391 L 514.31627 538.70539 L 515.72491 538.71585 L 516.99136 539.18391 L 540.32277 552.65431 L 541.39964 553.56246 L 542.0949 554.7876 L 542.32277 556.11841 L 542.32277 583.0592 L 542.07472 584.44587 L 541.36135 585.66056 L 540.32277 586.5233 L 516.99136 599.9937 L 515.66645 600.47222 L 514.25781 600.46176 L 512.99136 599.9937 L 491.65995 587.678 L 472.32853 598.839 L 472.32853 621.161 L 491.65995 632.322 L 512.99136 620.0063 L 514.31627 619.52778 L 515.72491 619.53824 L 516.99136 620.0063 L 540.32277 633.4767 L 541.39964 634.38485 L 542.0949 635.60999 L 542.32277 636.9408 L 542.32277 663.88159 L 542.07472 665.26826 L 541.36135 666.48295 L 540.32277 667.34569 L 516.99136 680.81609 L 515.66645 681.29461 L 514.25781 681.28415 L 512.99136 680.81609 L 489.65995 667.34569 L 488.58308 666.43754 L 487.88782 665.2124 L 487.65995 663.88159 L 487.65995 639.2502 L 468.32853 628.0892 L 448.99712 639.2502 L 448.99712 663.88159 L 448.74907 665.26826 L 448.0357 666.48295 L 446.99712 667.34569 L 423.66571 680.81609 L 422.3408 681.29461 L 420.93216 681.28415 L 419.66571 680.81609 L 398.33429 668.50039 L 379.00288 679.66139 L 379.00288 701.98338 L 400.33429 714.29908 L 401.41116 715.20723 L 402.10642 716.43237 L 402.33429 717.76318 L 402.33429 744.70398 L 402.08624 746.09065 L 401.37287 747.30534 L 400.33429 748.16808 L 377.00288 761.63847 L 375.67797 762.11699 L 374.26933 762.10653 L 373.00288 761.63847 L 349.67147 748.16808 L 348.5946 747.25993 L 347.89934 746.03479 L 347.67147 744.70398 L 347.67147 717.76318 L 347.91952 716.37651 L 348.63289 715.16182 L 349.67147 714.29908 L 371.00288 701.98338 L 371.00288 679.66139 L 351.67147 668.50039 L 332.34005 679.66139 L 332.34005 704.29278 L 332.092 705.67945 L 331.37863 706.89414 L 330.34005 707.75688 L 307.00864 721.22728 L 305.68373 721.7058 L 304.27509 721.69534 L 303.00864 721.22728 L 279.67723 707.75688 L 278.60036 706.84873 L 277.9051 705.62359 L 277.67723 704.29278 L 277.67723 677.35199 L 277.92528 675.96532 L 278.63865 674.75063 L 279.67723 673.88789 L 303.00864 660.41749 L 304.33355 659.93897 L 305.74219 659.94943 L 307.00864 660.41749 L 328.34005 672.73319 L 347.67147 661.57219 L 347.67147 639.2502 L 326.34005 626.9345 L 325.26318 626.02635 L 324.56792 624.80121 L 324.34005 623.4704 L 324.34005 596.5296 L 324.5881 595.14293 L 325.30147 593.92824 L 326.34005 593.0655 L 347.67147 580.7498 L 347.67147 558.42781 L 328.34005 547.26681 L 307.00864 559.58251 L 305.68373 560.06103 L 304.27509 560.05057 L 303.00864 559.58251 L 279.67723 546.11211 L 278.60036 545.20396 L 277.9051 543.97882 L 277.67723 542.64801 L 277.67723 515.70722 L 277.92528 514.32055 L 278.63865 513.10586 L 279.67723 512.24312 L 303.00864 498.77272 L 304.33355 498.2942 L 305.74219 498.30466 L 307.00864 498.77272 L 330.34005 512.24312 L 331.41692 513.15127 L 332.11218 514.37641 L 332.34005 515.70722 L 332.34005 540.33861 L 351.67147 551.49961 L 371.00288 540.33861 L 371.00288 518.01662 L 349.67147 505.70092 L 348.5946 504.79277 L 347.89934 503.56763 L 347.67147 502.23682 L 347.67147 475.29602 L 347.91952 473.90935 L 348.63289 472.69466 L 349.67147 471.83192 L 373.00288 458.36153 L 374.32779 457.88301 Z M 355.67147 720.07258 L 355.67147 742.39458 L 375.00288 753.55557 L 394.33429 742.39458 L 394.33429 720.07258 L 375.00288 708.91158 Z M 285.67723 679.66139 L 285.67723 701.98338 L 305.00864 713.14438 L 324.34005 701.98338 L 324.34005 679.66139 L 305.00864 668.50039 Z M 355.67147 639.2502 L 355.67147 661.57219 L 375.00288 672.73319 L 394.33429 661.57219 L 394.33429 639.2502 L 375.00288 628.0892 Z M 402.33429 558.42781 L 402.33429 583.0592 L 402.08624 584.44587 L 401.37287 585.66056 L 400.33429 586.5233 L 377.00288 599.9937 L 375.67797 600.47222 L 374.26933 600.46176 L 373.00288 599.9937 L 351.67147 587.678 L 332.34005 598.839 L 332.34005 621.161 L 351.67147 632.322 L 373.00288 620.0063 L 374.32779 619.52778 L 375.73643 619.53824 L 377.00288 620.0063 L 400.33429 633.4767 L 401.41116 634.38485 L 402.10642 635.60999 L 402.33429 636.9408 L 402.33429 661.57219 L 421.66571 672.73319 L 440.99712 661.57219 L 440.99712 639.2502 L 419.66571 626.9345 L 419.61971 626.89571 L 419.56373 626.87359 L 419.08251 626.44267 L 418.58884 626.02635 L 418.55914 625.97401 L 418.51431 625.93387 L 418.21242 625.36304 L 417.89358 624.80121 L 417.88386 624.7418 L 417.85573 624.68861 L 417.66571 623.4704 L 417.66571 596.5296 L 417.91376 595.14293 L 418.62713 593.92824 L 419.66571 593.0655 L 440.99712 580.7498 L 440.99712 558.42781 L 421.66571 547.26681 Z M 495.65995 639.2502 L 495.65995 661.57219 L 514.99136 672.73319 L 534.32277 661.57219 L 534.32277 639.2502 L 514.99136 628.0892 Z M 425.66571 598.839 L 425.66571 621.161 L 444.99712 632.322 L 464.32853 621.161 L 464.32853 598.839 L 444.99712 587.678 Z M 355.67147 558.42781 L 355.67147 580.7498 L 375.00288 591.9108 L 394.33429 580.7498 L 394.33429 558.42781 L 375.00288 547.26681 Z M 495.65995 558.42781 L 495.65995 580.7498 L 514.99136 591.9108 L 534.32277 580.7498 L 534.32277 558.42781 L 514.99136 547.26681 Z M 285.67723 518.01662 L 285.67723 540.33861 L 305.00864 551.49961 L 324.34005 540.33861 L 324.34005 518.01662 L 305.00864 506.85562 Z M 355.67147 477.60542 L 355.67147 499.92742 L 375.00288 511.08842 L 394.33429 499.92742 L 394.33429 477.60542 L 375.00288 466.44443 Z" stroke-miterlimit="10"/><path fill="#222222" stroke="#cccccc" paint-order="fill stroke markers" d=" M 835.76959 460.45904 L 837.03604 460.9271 L 855.05046 471.32773 L 856.12733 472.23588 L 856.82259 473.46102 L 857.05046 474.79183 L 857.05046 493.28368 L 871.06488 501.37491 L 887.0793 492.12898 L 888.40421 491.65046 L 889.81285 491.66092 L 891.0793 492.12898 L 909.09371 502.52961 L 910.17058 503.43776 L 910.86584 504.6629 L 911.09371 505.99371 L 911.09371 524.48557 L 927.10813 533.7315 L 928.185 534.63965 L 928.88026 535.86479 L 929.10813 537.1956 L 929.10813 557.99686 L 928.86008 559.38353 L 928.14671 560.59822 L 927.10813 561.46096 L 911.09371 570.70689 L 911.09371 589.19874 L 910.84566 590.58541 L 910.13229 591.8001 L 909.09371 592.66284 L 891.0793 603.06347 L 889.75439 603.54199 L 888.34575 603.53153 L 887.0793 603.06347 L 871.06488 593.81754 L 855.05046 603.06347 L 853.72555 603.54199 L 852.31691 603.53153 L 851.05046 603.06347 L 835.03604 593.81754 L 821.02163 601.90877 L 821.02163 618.09123 L 835.03604 626.18246 L 851.05046 616.93653 L 852.37537 616.45801 L 853.78401 616.46847 L 855.05046 616.93653 L 871.06488 626.18246 L 887.0793 616.93653 L 888.40421 616.45801 L 889.81285 616.46847 L 891.0793 616.93653 L 909.09371 627.33716 L 910.17058 628.24531 L 910.86584 629.47045 L 911.09371 630.80126 L 911.09371 649.29311 L 927.10813 658.53904 L 928.185 659.44719 L 928.88026 660.67233 L 929.10813 662.00314 L 929.10813 682.8044 L 928.86008 684.19107 L 928.14671 685.40576 L 927.10813 686.2685 L 911.09371 695.51443 L 911.09371 714.00629 L 910.84566 715.39296 L 910.13229 716.60765 L 909.09371 717.47039 L 891.0793 727.87102 L 889.75439 728.34954 L 888.34575 728.33908 L 887.0793 727.87102 L 871.06488 718.62509 L 857.05046 726.71632 L 857.05046 745.20817 L 856.80241 746.59484 L 856.08904 747.80953 L 855.05046 748.67227 L 837.03604 759.0729 L 835.71113 759.55142 L 834.30249 759.54096 L 833.03604 759.0729 L 817.02163 749.82697 L 801.00721 759.0729 L 799.6823 759.55142 L 798.27366 759.54096 L 797.00721 759.0729 L 778.99279 748.67227 L 777.91592 747.76412 L 777.22066 746.53898 L 776.99279 745.20817 L 776.99279 726.71632 L 760.97837 717.47039 L 759.9015 716.56224 L 759.20624 715.3371 L 758.97837 714.00629 L 758.97837 693.20503 L 759.22642 691.81836 L 759.93979 690.60367 L 760.97837 689.74093 L 776.99279 680.495 L 776.99279 662.00314 L 777.24084 660.61647 L 777.95421 659.40178 L 778.99279 658.53904 L 795.00721 649.29311 L 795.00721 633.11066 L 780.99279 625.01943 L 766.97837 633.11066 L 766.97837 651.60251 L 766.73032 652.98918 L 766.01695 654.20387 L 764.97837 655.06661 L 748.96396 664.31254 L 748.96396 682.8044 L 748.71591 684.19107 L 748.00254 685.40576 L 746.96396 686.2685 L 728.94954 696.66913 L 727.62463 697.14765 L 726.21599 697.13719 L 724.94954 696.66913 L 708.93512 687.4232 L 692.9207 696.66913 L 691.59579 697.14765 L 690.18715 697.13719 L 688.9207 696.66913 L 670.90629 686.2685 L 669.82942 685.36035 L 669.13416 684.13521 L 668.90629 682.8044 L 668.90629 664.31254 L 652.89187 655.06661 L 651.815 654.15846 L 651.11974 652.93332 L 650.89187 651.60251 L 650.89187 630.80126 L 651.13992 629.41459 L 651.85329 628.1999 L 652.89187 627.33716 L 668.90629 618.09123 L 668.90629 601.90877 L 652.89187 592.66284 L 652.84587 592.62405 L 652.78989 592.60193 L 652.30867 592.17101 L 651.815 591.75469 L 651.7853 591.70235 L 651.74047 591.66221 L 651.43858 591.09138 L 651.11974 590.52955 L 651.11002 590.47014 L 651.08189 590.41695 L 650.89187 589.19874 L 650.89187 568.39749 L 651.13992 567.01082 L 651.85329 565.79613 L 652.89187 564.93339 L 668.90629 555.68746 L 668.90629 537.1956 L 669.15434 535.80893 L 669.86771 534.59424 L 670.90629 533.7315 L 688.9207 523.33087 L 690.24561 522.85235 L 691.65425 522.86281 L 692.9207 523.33087 L 708.93512 532.5768 L 724.94954 523.33087 L 726.27445 522.85235 L 727.68309 522.86281 L 728.94954 523.33087 L 746.96396 533.7315 L 748.04083 534.63965 L 748.73609 535.86479 L 748.96396 537.1956 L 748.96396 555.68746 L 764.97837 564.93339 L 766.05524 565.84154 L 766.7505 567.06668 L 766.97837 568.39749 L 766.97837 586.88934 L 780.99279 594.98057 L 795.00721 586.88934 L 795.00721 570.70689 L 778.99279 561.46096 L 777.91592 560.55281 L 777.22066 559.32767 L 776.99279 557.99686 L 776.99279 539.505 L 760.97837 530.25907 L 759.9015 529.35092 L 759.20624 528.12578 L 758.97837 526.79497 L 758.97837 505.99371 L 759.22642 504.60704 L 759.93979 503.39235 L 760.97837 502.52961 L 776.99279 493.28368 L 776.99279 474.79183 L 777.24084 473.40516 L 777.95421 472.19047 L 778.99279 471.32773 L 797.00721 460.9271 L 798.33212 460.44858 L 799.74076 460.45904 L 801.00721 460.9271 L 817.02163 470.17303 L 833.03604 460.9271 L 834.36095 460.44858 Z M 873.06488 634.26536 L 871.73997 634.74388 L 870.33133 634.73342 L 869.06488 634.26536 L 853.05046 625.01943 L 839.03604 633.11066 L 839.03604 649.29311 L 853.05046 657.38434 L 869.06488 648.13841 L 870.38979 647.65989 L 871.79843 647.67035 L 873.06488 648.13841 L 891.0793 658.53904 L 892.15617 659.44719 L 892.85143 660.67233 L 893.0793 662.00314 L 893.0793 682.8044 L 892.83125 684.19107 L 892.11788 685.40576 L 891.0793 686.2685 L 873.06488 696.66913 L 871.73997 697.14765 L 870.33133 697.13719 L 869.06488 696.66913 L 851.05046 686.2685 L 849.97359 685.36035 L 849.27833 684.13521 L 849.05046 682.8044 L 849.05046 664.31254 L 835.03604 656.22131 L 821.02163 664.31254 L 821.02163 680.495 L 837.03604 689.74093 L 838.11291 690.64908 L 838.80817 691.87422 L 839.03604 693.20503 L 839.03604 714.00629 L 838.78799 715.39296 L 838.07462 716.60765 L 837.03604 717.47039 L 819.02163 727.87102 L 817.69672 728.34954 L 816.28808 728.33908 L 815.02163 727.87102 L 797.00721 717.47039 L 795.93034 716.56224 L 795.23508 715.3371 L 795.00721 714.00629 L 795.00721 693.20503 L 795.25526 691.81836 L 795.96863 690.60367 L 797.00721 689.74093 L 813.02163 680.495 L 813.02163 664.31254 L 799.00721 656.22131 L 784.99279 664.31254 L 784.99279 682.8044 L 784.74474 684.19107 L 784.03137 685.40576 L 782.99279 686.2685 L 766.97837 695.51443 L 766.97837 711.69689 L 782.99279 720.94282 L 784.06966 721.85097 L 784.76492 723.07611 L 784.99279 724.40692 L 784.99279 742.89877 L 799.00721 750.99 L 815.02163 741.74407 L 816.34654 741.26555 L 817.75518 741.27601 L 819.02163 741.74407 L 835.03604 750.99 L 849.05046 742.89877 L 849.05046 724.40692 L 849.29851 723.02025 L 850.01188 721.80556 L 851.05046 720.94282 L 869.06488 710.54219 L 870.38979 710.06367 L 871.79843 710.07413 L 873.06488 710.54219 L 889.0793 719.78812 L 903.09371 711.69689 L 903.09371 693.20503 L 903.34176 691.81836 L 904.05513 690.60367 L 905.09371 689.74093 L 921.10813 680.495 L 921.10813 664.31254 L 905.09371 655.06661 L 904.01684 654.15846 L 903.32158 652.93332 L 903.09371 651.60251 L 903.09371 633.11066 L 889.0793 625.01943 Z M 803.00721 695.51443 L 803.00721 711.69689 L 817.02163 719.78812 L 831.03604 711.69689 L 831.03604 695.51443 L 817.02163 687.4232 Z M 710.93512 540.6597 L 709.61021 541.13822 L 708.20157 541.12776 L 706.93512 540.6597 L 690.9207 531.41377 L 676.90629 539.505 L 676.90629 557.99686 L 676.65824 559.38353 L 675.94487 560.59822 L 674.90629 561.46096 L 658.89187 570.70689 L 658.89187 586.88934 L 674.90629 596.13527 L 675.98316 597.04342 L 676.67842 598.26856 L 676.90629 599.59937 L 676.90629 620.40063 L 676.65824 621.7873 L 675.94487 623.00199 L 674.90629 623.86473 L 658.89187 633.11066 L 658.89187 649.29311 L 674.90629 658.53904 L 675.98316 659.44719 L 676.67842 660.67233 L 676.90629 662.00314 L 676.90629 680.495 L 690.9207 688.58623 L 706.93512 679.3403 L 708.26003 678.86178 L 709.66867 678.87224 L 710.93512 679.3403 L 726.94954 688.58623 L 740.96396 680.495 L 740.96396 662.00314 L 741.21201 660.61647 L 741.92538 659.40178 L 742.96396 658.53904 L 758.97837 649.29311 L 758.97837 633.11066 L 744.96396 625.01943 L 730.94954 633.11066 L 730.94954 651.60251 L 730.70149 652.98918 L 729.98812 654.20387 L 728.94954 655.06661 L 710.93512 665.46724 L 709.61021 665.94576 L 708.20157 665.9353 L 706.93512 665.46724 L 688.9207 655.06661 L 687.84383 654.15846 L 687.14857 652.93332 L 686.9207 651.60251 L 686.9207 630.80126 L 687.16875 629.41459 L 687.88212 628.1999 L 688.9207 627.33716 L 706.93512 616.93653 L 708.26003 616.45801 L 709.66867 616.46847 L 710.93512 616.93653 L 726.94954 626.18246 L 740.96396 618.09123 L 740.96396 601.90877 L 726.94954 593.81754 L 710.93512 603.06347 L 709.61021 603.54199 L 708.20157 603.53153 L 706.93512 603.06347 L 688.9207 592.66284 L 687.84383 591.75469 L 687.14857 590.52955 L 686.9207 589.19874 L 686.9207 568.39749 L 687.16875 567.01082 L 687.88212 565.79613 L 688.9207 564.93339 L 706.93512 554.53276 L 708.26003 554.05424 L 709.66867 554.0647 L 710.93512 554.53276 L 728.94954 564.93339 L 730.02641 565.84154 L 730.72167 567.06668 L 730.94954 568.39749 L 730.94954 586.88934 L 744.96396 594.98057 L 758.97837 586.88934 L 758.97837 570.70689 L 742.96396 561.46096 L 741.88709 560.55281 L 741.19183 559.32767 L 740.96396 557.99686 L 740.96396 539.505 L 726.94954 531.41377 Z M 857.05046 664.31254 L 857.05046 680.495 L 871.06488 688.58623 L 885.0793 680.495 L 885.0793 664.31254 L 871.06488 656.22131 Z M 694.9207 633.11066 L 694.9207 649.29311 L 708.93512 657.38434 L 722.94954 649.29311 L 722.94954 633.11066 L 708.93512 625.01943 Z M 803.00721 633.11066 L 803.00721 649.29311 L 817.02163 657.38434 L 831.03604 649.29311 L 831.03604 633.11066 L 817.02163 625.01943 Z M 748.96396 601.90877 L 748.96396 618.09123 L 762.97837 626.18246 L 776.99279 618.09123 L 776.99279 601.90877 L 762.97837 593.81754 Z M 784.99279 601.90877 L 784.99279 618.09123 L 799.00721 626.18246 L 813.02163 618.09123 L 813.02163 601.90877 L 799.00721 593.81754 Z M 694.9207 570.70689 L 694.9207 586.88934 L 708.93512 594.98057 L 722.94954 586.88934 L 722.94954 570.70689 L 708.93512 562.61566 Z M 803.00721 570.70689 L 803.00721 586.88934 L 817.02163 594.98057 L 831.03604 586.88934 L 831.03604 570.70689 L 817.02163 562.61566 Z M 819.02163 478.25593 L 817.69672 478.73445 L 816.28808 478.72399 L 815.02163 478.25593 L 799.00721 469.01 L 784.99279 477.10123 L 784.99279 495.59308 L 784.74474 496.97975 L 784.03137 498.19444 L 782.99279 499.05718 L 766.97837 508.30311 L 766.97837 524.48557 L 782.99279 533.7315 L 784.06966 534.63965 L 784.76492 535.86479 L 784.99279 537.1956 L 784.99279 555.68746 L 799.00721 563.77869 L 813.02163 555.68746 L 813.02163 539.505 L 797.00721 530.25907 L 795.93034 529.35092 L 795.23508 528.12578 L 795.00721 526.79497 L 795.00721 505.99371 L 795.25526 504.60704 L 795.96863 503.39235 L 797.00721 502.52961 L 815.02163 492.12898 L 816.34654 491.65046 L 817.75518 491.66092 L 819.02163 492.12898 L 837.03604 502.52961 L 838.11291 503.43776 L 838.80817 504.6629 L 839.03604 505.99371 L 839.03604 526.79497 L 839.02544 526.8542 L 839.03428 526.91374 L 838.90169 527.54604 L 838.78799 528.18164 L 838.75752 528.23352 L 838.74517 528.29243 L 838.40168 528.83943 L 838.07462 529.39633 L 838.02804 529.43444 L 837.99604 529.4854 L 837.03604 530.25907 L 821.02163 539.505 L 821.02163 555.68746 L 835.03604 563.77869 L 849.05046 555.68746 L 849.05046 537.1956 L 849.29851 535.80893 L 850.01188 534.59424 L 851.05046 533.7315 L 869.06488 523.33087 L 870.38979 522.85235 L 871.79843 522.86281 L 873.06488 523.33087 L 891.0793 533.7315 L 892.15617 534.63965 L 892.85143 535.86479 L 893.0793 537.1956 L 893.0793 557.99686 L 892.83125 559.38353 L 892.11788 560.59822 L 891.0793 561.46096 L 873.06488 571.86159 L 871.73997 572.34011 L 870.33133 572.32965 L 869.06488 571.86159 L 853.05046 562.61566 L 839.03604 570.70689 L 839.03604 586.88934 L 853.05046 594.98057 L 869.06488 585.73464 L 870.38979 585.25612 L 871.79843 585.26658 L 873.06488 585.73464 L 889.0793 594.98057 L 903.09371 586.88934 L 903.09371 568.39749 L 903.34176 567.01082 L 904.05513 565.79613 L 905.09371 564.93339 L 921.10813 555.68746 L 921.10813 539.505 L 905.09371 530.25907 L 904.01684 529.35092 L 903.32158 528.12578 L 903.09371 526.79497 L 903.09371 508.30311 L 889.0793 500.21188 L 873.06488 509.45781 L 871.73997 509.93633 L 870.33133 509.92587 L 869.06488 509.45781 L 851.05046 499.05718 L 849.97359 498.14903 L 849.27833 496.92389 L 849.05046 495.59308 L 849.05046 477.10123 L 835.03604 469.01 Z M 857.05046 539.505 L 857.05046 555.68746 L 871.06488 563.77869 L 885.0793 555.68746 L 885.0793 539.505 L 871.06488 531.41377 Z M 803.00721 508.30311 L 803.00721 524.48557 L 817.02163 532.5768 L 831.03604 524.48557 L 831.03604 508.30311 L 817.02163 500.21188 Z" stroke-miterlimit="10"/><path fill="#222222" stroke="#cccccc" paint-order="fill stroke markers" d=" M 356.6903 840.45904 L 357.95675 840.9271 L 375.97117 851.32773 L 377.04804 852.23588 L 377.7433 853.46102 L 377.97117 854.79183 L 377.97117 875.59308 L 377.72312 876.97975 L 377.00975 878.19444 L 375.97117 879.05718 L 359.95675 888.30311 L 359.95675 904.48557 L 375.97117 913.7315 L 377.04804 914.63965 L 377.7433 915.86479 L 377.97117 917.1956 L 377.97117 935.68746 L 391.98558 943.77869 L 406 935.68746 L 406 917.1956 L 406.24805 915.80893 L 406.96142 914.59424 L 408 913.7315 L 426.01442 903.33087 L 427.33933 902.85235 L 428.74797 902.86281 L 430.01442 903.33087 L 448.02883 913.7315 L 449.1057 914.63965 L 449.80096 915.86479 L 450.02883 917.1956 L 450.02883 937.99686 L 449.78078 939.38353 L 449.06741 940.59822 L 448.02883 941.46096 L 432.01442 950.70689 L 432.01442 966.88934 L 446.02883 974.98057 L 462.04325 965.73464 L 463.36816 965.25612 L 464.7768 965.26658 L 466.04325 965.73464 L 482.05767 974.98057 L 496.07209 966.88934 L 496.07209 948.39749 L 496.32014 947.01082 L 497.03351 945.79613 L 498.07209 944.93339 L 516.0865 934.53276 L 517.41141 934.05424 L 518.82005 934.0647 L 520.0865 934.53276 L 538.10092 944.93339 L 539.17779 945.84154 L 539.87305 947.06668 L 540.10092 948.39749 L 540.10092 969.19874 L 539.85287 970.58541 L 539.1395 971.8001 L 538.10092 972.66284 L 522.0865 981.90877 L 522.0865 998.09123 L 538.10092 1007.33716 L 539.17779 1008.24531 L 539.87305 1009.47045 L 540.10092 1010.80126 L 540.10092 1031.60251 L 539.85287 1032.98918 L 539.1395 1034.20387 L 538.10092 1035.06661 L 520.0865 1045.46724 L 518.76159 1045.94576 L 517.35295 1045.9353 L 516.0865 1045.46724 L 498.07209 1035.06661 L 496.99522 1034.15846 L 496.29996 1032.93332 L 496.07209 1031.60251 L 496.07209 1013.11066 L 482.05767 1005.01943 L 466.04325 1014.26536 L 464.71834 1014.74388 L 463.3097 1014.73342 L 462.04325 1014.26536 L 446.02883 1005.01943 L 432.01442 1013.11066 L 432.01442 1029.29311 L 448.02883 1038.53904 L 449.1057 1039.44719 L 449.80096 1040.67233 L 450.02883 1042.00314 L 450.02883 1062.8044 L 449.78078 1064.19107 L 449.06741 1065.40576 L 448.02883 1066.2685 L 430.01442 1076.66913 L 428.68951 1077.14765 L 427.28087 1077.13719 L 426.01442 1076.66913 L 408 1066.2685 L 406.92313 1065.36035 L 406.22787 1064.13521 L 406 1062.8044 L 406 1044.31254 L 391.98558 1036.22131 L 377.97117 1044.31254 L 377.97117 1062.8044 L 377.72312 1064.19107 L 377.00975 1065.40576 L 375.97117 1066.2685 L 359.95675 1075.51443 L 359.95675 1091.69689 L 375.97117 1100.94282 L 377.04804 1101.85097 L 377.7433 1103.07611 L 377.97117 1104.40692 L 377.97117 1125.20817 L 377.72312 1126.59484 L 377.00975 1127.80953 L 375.97117 1128.67227 L 357.95675 1139.0729 L 356.63184 1139.55142 L 355.2232 1139.54096 L 353.95675 1139.0729 L 335.94233 1128.67227 L 334.86546 1127.76412 L 334.1702 1126.53898 L 333.94233 1125.20817 L 333.94233 1106.71632 L 319.92791 1098.62509 L 303.9135 1107.87102 L 302.58859 1108.34954 L 301.17995 1108.33908 L 299.9135 1107.87102 L 281.89908 1097.47039 L 280.82221 1096.56224 L 280.12695 1095.3371 L 279.89908 1094.00629 L 279.89908 1073.20503 L 280.14713 1071.81836 L 280.8605 1070.60367 L 281.89908 1069.74093 L 299.9135 1059.3403 L 301.23841 1058.86178 L 302.64705 1058.87224 L 303.9135 1059.3403 L 319.92791 1068.58623 L 333.94233 1060.495 L 333.94233 1042.00314 L 334.19038 1040.61647 L 334.90375 1039.40178 L 335.94233 1038.53904 L 351.95675 1029.29311 L 351.95675 1013.11066 L 337.94233 1005.01943 L 321.92791 1014.26536 L 320.603 1014.74388 L 319.19436 1014.73342 L 317.92791 1014.26536 L 299.9135 1003.86473 L 298.83663 1002.95658 L 298.14137 1001.73144 L 297.9135 1000.40063 L 297.9135 979.59937 L 298.16155 978.2127 L 298.87492 976.99801 L 299.9135 976.13527 L 317.92791 965.73464 L 319.25282 965.25612 L 320.66146 965.26658 L 321.92791 965.73464 L 337.94233 974.98057 L 351.95675 966.88934 L 351.95675 950.70689 L 335.94233 941.46096 L 334.86546 940.55281 L 334.1702 939.32767 L 333.94233 937.99686 L 333.94233 919.505 L 319.92791 911.41377 L 303.9135 920.6597 L 302.58859 921.13822 L 301.17995 921.12776 L 299.9135 920.6597 L 281.89908 910.25907 L 280.82221 909.35092 L 280.12695 908.12578 L 279.89908 906.79497 L 279.89908 885.99371 L 280.14713 884.60704 L 280.8605 883.39235 L 281.89908 882.52961 L 299.9135 872.12898 L 301.23841 871.65046 L 302.64705 871.66092 L 303.9135 872.12898 L 319.92791 881.37491 L 333.94233 873.28368 L 333.94233 854.79183 L 334.19038 853.40516 L 334.90375 852.19047 L 335.94233 851.32773 L 353.95675 840.9271 L 355.28166 840.44858 Z M 341.94233 1106.71632 L 341.94233 1122.89877 L 355.95675 1130.99 L 369.97117 1122.89877 L 369.97117 1106.71632 L 355.95675 1098.62509 Z M 287.89908 1075.51443 L 287.89908 1091.69689 L 301.9135 1099.78812 L 315.92791 1091.69689 L 315.92791 1075.51443 L 301.9135 1067.4232 Z M 323.92791 1075.51443 L 323.92791 1091.69689 L 337.94233 1099.78812 L 351.95675 1091.69689 L 351.95675 1075.51443 L 337.94233 1067.4232 Z M 341.94233 919.505 L 341.94233 935.68746 L 357.95675 944.93339 L 359.03362 945.84154 L 359.72888 947.06668 L 359.95675 948.39749 L 359.95675 966.88934 L 375.97117 976.13527 L 377.04804 977.04342 L 377.7433 978.26856 L 377.97117 979.59937 L 377.97117 1000.40063 L 377.72312 1001.7873 L 377.00975 1003.00199 L 375.97117 1003.86473 L 359.95675 1013.11066 L 359.95675 1031.60251 L 359.7087 1032.98918 L 358.99533 1034.20387 L 357.95675 1035.06661 L 341.94233 1044.31254 L 341.94233 1060.495 L 355.95675 1068.58623 L 369.97117 1060.495 L 369.97117 1042.00314 L 370.21922 1040.61647 L 370.93259 1039.40178 L 371.97117 1038.53904 L 387.98558 1029.29311 L 387.98558 1010.80126 L 388.23363 1009.41459 L 388.947 1008.1999 L 389.98558 1007.33716 L 408 996.93653 L 409.32491 996.45801 L 410.73355 996.46847 L 412 996.93653 L 428.01442 1006.18246 L 444.02883 996.93653 L 445.35374 996.45801 L 446.76238 996.46847 L 448.02883 996.93653 L 464.04325 1006.18246 L 478.05767 998.09123 L 478.05767 981.90877 L 464.04325 973.81754 L 448.02883 983.06347 L 446.70392 983.54199 L 445.29528 983.53153 L 444.02883 983.06347 L 428.01442 973.81754 L 412 983.06347 L 410.67509 983.54199 L 409.26645 983.53153 L 408 983.06347 L 389.98558 972.66284 L 388.90871 971.75469 L 388.21345 970.52955 L 387.98558 969.19874 L 387.98558 950.70689 L 371.97117 941.46096 L 370.8943 940.55281 L 370.19904 939.32767 L 369.97117 937.99686 L 369.97117 919.505 L 355.95675 911.41377 Z M 414 1044.31254 L 414 1060.495 L 428.01442 1068.58623 L 442.02883 1060.495 L 442.02883 1044.31254 L 428.01442 1036.22131 Z M 395.98558 1013.11066 L 395.98558 1029.29311 L 410 1037.38434 L 424.01442 1029.29311 L 424.01442 1013.11066 L 410 1005.01943 Z M 504.07209 1013.11066 L 504.07209 1029.29311 L 518.0865 1037.38434 L 532.10092 1029.29311 L 532.10092 1013.11066 L 518.0865 1005.01943 Z M 305.9135 981.90877 L 305.9135 998.09123 L 319.92791 1006.18246 L 333.94233 998.09123 L 333.94233 981.90877 L 319.92791 973.81754 Z M 341.94233 981.90877 L 341.94233 998.09123 L 355.95675 1006.18246 L 369.97117 998.09123 L 369.97117 981.90877 L 355.95675 973.81754 Z M 486.05767 981.90877 L 486.05767 998.09123 L 500.07209 1006.18246 L 514.0865 998.09123 L 514.0865 981.90877 L 500.07209 973.81754 Z M 395.98558 950.70689 L 395.98558 966.88934 L 410 974.98057 L 424.01442 966.88934 L 424.01442 950.70689 L 410 942.61566 Z M 504.07209 950.70689 L 504.07209 966.88934 L 518.0865 974.98057 L 532.10092 966.88934 L 532.10092 950.70689 L 518.0865 942.61566 Z M 414 919.505 L 414 935.68746 L 428.01442 943.77869 L 442.02883 935.68746 L 442.02883 919.505 L 428.01442 911.41377 Z M 287.89908 888.30311 L 287.89908 904.48557 L 301.9135 912.5768 L 315.92791 904.48557 L 315.92791 888.30311 L 301.9135 880.21188 Z M 323.92791 888.30311 L 323.92791 904.48557 L 337.94233 912.5768 L 351.95675 904.48557 L 351.95675 888.30311 L 337.94233 880.21188 Z M 341.94233 857.10123 L 341.94233 873.28368 L 355.95675 881.37491 L 369.97117 873.28368 L 369.97117 857.10123 L 355.95675 849.01 Z" stroke-miterlimit="10"/><path fill="#222222" stroke="#cccccc" paint-order="fill stroke markers" d=" M 801.41158 850.43868 L 802.67803 850.90674 L 824.03408 863.23666 L 824.08008 863.27545 L 824.13606 863.29757 L 824.61728 863.72849 L 825.11095 864.14481 L 825.14065 864.19715 L 825.18548 864.23729 L 825.48737 864.80812 L 825.80621 865.36995 L 825.81593 865.42936 L 825.84406 865.48255 L 826.03408 866.70076 L 826.03408 889.05121 L 843.39014 899.07173 L 862.74619 887.89651 L 864.0711 887.41799 L 865.47974 887.42845 L 866.74619 887.89651 L 888.10225 900.22643 L 889.17912 901.13458 L 889.87438 902.35972 L 890.10225 903.69053 L 890.10225 928.35038 L 889.8542 929.73705 L 889.14083 930.95174 L 888.10225 931.81448 L 866.74619 944.1444 L 865.42128 944.62292 L 864.01264 944.61246 L 862.74619 944.1444 L 843.39014 932.96918 L 826.03408 942.9897 L 826.03408 963.03075 L 843.39014 973.05128 L 862.74619 961.87605 L 864.0711 961.39753 L 865.47974 961.40799 L 866.74619 961.87605 L 886.10225 973.05128 L 905.4583 961.87605 L 905.5149 961.85561 L 905.56204 961.81819 L 906.1758 961.61691 L 906.78321 961.39753 L 906.84339 961.39798 L 906.90058 961.37922 L 907.54615 961.4032 L 908.19185 961.40799 L 908.24813 961.42927 L 908.30829 961.4315 L 909.4583 961.87605 L 930.81436 974.20598 L 931.89123 975.11413 L 932.58649 976.33927 L 932.81436 977.67008 L 932.81436 1002.32992 L 932.56631 1003.71659 L 931.85294 1004.93128 L 930.81436 1005.79402 L 909.4583 1018.12395 L 908.13339 1018.60247 L 906.72475 1018.59201 L 905.4583 1018.12395 L 886.10225 1006.94872 L 866.74619 1018.12395 L 865.42128 1018.60247 L 864.01264 1018.59201 L 862.74619 1018.12395 L 843.39014 1006.94872 L 826.03408 1016.96925 L 826.03408 1037.0103 L 843.39014 1047.03082 L 862.74619 1035.8556 L 864.0711 1035.37708 L 865.47974 1035.38754 L 866.74619 1035.8556 L 888.10225 1048.18552 L 889.17912 1049.09367 L 889.87438 1050.31881 L 890.10225 1051.64962 L 890.10225 1076.30947 L 889.8542 1077.69614 L 889.14083 1078.91083 L 888.10225 1079.77357 L 866.74619 1092.10349 L 865.42128 1092.58201 L 864.01264 1092.57155 L 862.74619 1092.10349 L 843.39014 1080.92827 L 826.03408 1090.94879 L 826.03408 1113.29924 L 825.78603 1114.68591 L 825.07266 1115.9006 L 824.03408 1116.76334 L 802.67803 1129.09326 L 801.35312 1129.57178 L 799.94448 1129.56132 L 798.67803 1129.09326 L 777.32197 1116.76334 L 776.2451 1115.85519 L 775.54984 1114.63005 L 775.32197 1113.29924 L 775.32197 1088.63939 L 775.57002 1087.25272 L 776.28339 1086.03803 L 777.32197 1085.17529 L 796.67803 1074.00007 L 796.67803 1053.95902 L 779.32197 1043.9385 L 761.96592 1053.95902 L 761.96592 1076.30947 L 761.71787 1077.69614 L 761.0045 1078.91083 L 759.96592 1079.77357 L 740.60986 1090.94879 L 740.60986 1113.29924 L 740.36181 1114.68591 L 739.64844 1115.9006 L 738.60986 1116.76334 L 717.25381 1129.09326 L 715.9289 1129.57178 L 714.52026 1129.56132 L 713.25381 1129.09326 L 691.89775 1116.76334 L 690.82088 1115.85519 L 690.12562 1114.63005 L 689.89775 1113.29924 L 689.89775 1088.63939 L 690.1458 1087.25272 L 690.85917 1086.03803 L 691.89775 1085.17529 L 711.25381 1074.00007 L 711.25381 1051.64962 L 711.50186 1050.26295 L 712.21523 1049.04826 L 713.25381 1048.18552 L 732.60986 1037.0103 L 732.60986 1016.96925 L 715.25381 1006.94872 L 697.89775 1016.96925 L 697.89775 1039.3197 L 697.6497 1040.70637 L 696.93633 1041.92106 L 695.89775 1042.7838 L 674.5417 1055.11372 L 673.21679 1055.59224 L 671.80815 1055.58178 L 670.5417 1055.11372 L 649.18564 1042.7838 L 648.10877 1041.87565 L 647.41351 1040.65051 L 647.18564 1039.3197 L 647.18564 1014.65985 L 647.43369 1013.27318 L 648.14706 1012.05849 L 649.18564 1011.19575 L 668.5417 1000.02052 L 668.5417 979.97948 L 649.18564 968.80425 L 648.10877 967.8961 L 647.41351 966.67096 L 647.18564 965.34015 L 647.18564 940.6803 L 647.43369 939.29363 L 648.14706 938.07894 L 649.18564 937.2162 L 670.5417 924.88628 L 671.86661 924.40776 L 673.27525 924.41822 L 674.5417 924.88628 L 695.89775 937.2162 L 696.97462 938.12435 L 697.66988 939.34949 L 697.89775 940.6803 L 697.89775 963.03075 L 715.25381 973.05128 L 732.60986 963.03075 L 732.60986 942.9897 L 713.25381 931.81448 L 712.17694 930.90633 L 711.48168 929.68119 L 711.25381 928.35038 L 711.25381 905.99993 L 691.89775 894.82471 L 690.82088 893.91656 L 690.12562 892.69142 L 689.89775 891.36061 L 689.89775 866.70076 L 690.1458 865.31409 L 690.85917 864.0994 L 691.89775 863.23666 L 713.25381 850.90674 L 714.57872 850.42822 L 715.98736 850.43868 L 717.25381 850.90674 L 738.60986 863.23666 L 739.68673 864.14481 L 740.38199 865.36995 L 740.60986 866.70076 L 740.60986 889.05121 L 759.96592 900.22643 L 761.04279 901.13458 L 761.73805 902.35972 L 761.96592 903.69053 L 761.96592 926.04098 L 779.32197 936.0615 L 796.67803 926.04098 L 796.67803 905.99993 L 777.32197 894.82471 L 776.2451 893.91656 L 775.54984 892.69142 L 775.32197 891.36061 L 775.32197 866.70076 L 775.57002 865.31409 L 776.28339 864.0994 L 777.32197 863.23666 L 798.67803 850.90674 L 800.00294 850.42822 Z M 697.89775 1090.94879 L 697.89775 1110.98984 L 715.25381 1121.01036 L 732.60986 1110.98984 L 732.60986 1090.94879 L 715.25381 1080.92827 Z M 783.32197 1090.94879 L 783.32197 1110.98984 L 800.67803 1121.01036 L 818.03408 1110.98984 L 818.03408 1090.94879 L 800.67803 1080.92827 Z M 740.60986 1016.96925 L 740.60986 1039.3197 L 740.36181 1040.70637 L 739.64844 1041.92106 L 738.60986 1042.7838 L 719.25381 1053.95902 L 719.25381 1074.00007 L 736.60986 1084.02059 L 753.96592 1074.00007 L 753.96592 1051.64962 L 754.21397 1050.26295 L 754.92734 1049.04826 L 755.96592 1048.18552 L 775.32197 1037.0103 L 775.32197 1016.96925 L 757.96592 1006.94872 Z M 783.32197 1016.96925 L 783.32197 1037.0103 L 802.67803 1048.18552 L 803.7549 1049.09367 L 804.45016 1050.31881 L 804.67803 1051.64962 L 804.67803 1074.00007 L 822.03408 1084.02059 L 839.39014 1074.00007 L 839.39014 1053.95902 L 820.03408 1042.7838 L 818.95721 1041.87565 L 818.26195 1040.65051 L 818.03408 1039.3197 L 818.03408 1016.96925 L 800.67803 1006.94872 Z M 847.39014 1053.95902 L 847.39014 1074.00007 L 864.74619 1084.02059 L 882.10225 1074.00007 L 882.10225 1053.95902 L 864.74619 1043.9385 Z M 655.18564 1016.96925 L 655.18564 1037.0103 L 672.5417 1047.03082 L 689.89775 1037.0103 L 689.89775 1016.96925 L 672.5417 1006.94872 Z M 717.25381 981.13418 L 715.9289 981.6127 L 714.52026 981.60224 L 713.25381 981.13418 L 693.89775 969.95895 L 676.5417 979.97948 L 676.5417 1000.02052 L 693.89775 1010.04105 L 713.25381 998.86582 L 714.57872 998.3873 L 715.98736 998.39776 L 717.25381 998.86582 L 736.60986 1010.04105 L 753.96592 1000.02052 L 753.96592 979.97948 L 736.60986 969.95895 Z M 761.96592 979.97948 L 761.96592 1000.02052 L 779.32197 1010.04105 L 796.67803 1000.02052 L 796.67803 979.97948 L 779.32197 969.95895 Z M 845.39014 981.13418 L 844.06523 981.6127 L 842.65659 981.60224 L 841.39014 981.13418 L 822.03408 969.95895 L 804.67803 979.97948 L 804.67803 1000.02052 L 822.03408 1010.04105 L 841.39014 998.86582 L 842.71505 998.3873 L 844.12369 998.39776 L 845.39014 998.86582 L 864.74619 1010.04105 L 882.10225 1000.02052 L 882.10225 979.97948 L 864.74619 969.95895 Z M 890.10225 979.97948 L 890.10225 1000.02052 L 907.4583 1010.04105 L 924.81436 1000.02052 L 924.81436 979.97948 L 907.4583 969.95895 Z M 655.18564 942.9897 L 655.18564 963.03075 L 672.5417 973.05128 L 689.89775 963.03075 L 689.89775 942.9897 L 672.5417 932.96918 Z M 719.25381 905.99993 L 719.25381 926.04098 L 738.60986 937.2162 L 739.68673 938.12435 L 740.38199 939.34949 L 740.60986 940.6803 L 740.60986 963.03075 L 757.96592 973.05128 L 775.32197 963.03075 L 775.32197 942.9897 L 755.96592 931.81448 L 754.88905 930.90633 L 754.19379 929.68119 L 753.96592 928.35038 L 753.96592 905.99993 L 736.60986 895.97941 Z M 804.67803 905.99993 L 804.67803 928.35038 L 804.42998 929.73705 L 803.71661 930.95174 L 802.67803 931.81448 L 783.32197 942.9897 L 783.32197 963.03075 L 800.67803 973.05128 L 818.03408 963.03075 L 818.03408 940.6803 L 818.28213 939.29363 L 818.9955 938.07894 L 820.03408 937.2162 L 839.39014 926.04098 L 839.39014 905.99993 L 822.03408 895.97941 Z M 847.39014 905.99993 L 847.39014 926.04098 L 864.74619 936.0615 L 882.10225 926.04098 L 882.10225 905.99993 L 864.74619 895.97941 Z M 697.89775 869.01016 L 697.89775 889.05121 L 715.25381 899.07173 L 732.60986 889.05121 L 732.60986 869.01016 L 715.25381 858.98964 Z M 783.32197 869.01016 L 783.32197 889.05121 L 800.67803 899.07173 L 818.03408 889.05121 L 818.03408 869.01016 L 800.67803 858.98964 Z" stroke-miterlimit="10"/><path fill="#222222" stroke="#cccccc" paint-order="fill stroke markers" d=" M 344.96461 1222.61913 L 346.23106 1223.08719 L 360.84638 1231.52535 L 361.92325 1232.4335 L 362.61851 1233.65864 L 362.84638 1234.98945 L 362.84638 1249.55637 L 375.4617 1256.83983 L 376.53857 1257.74798 L 377.23383 1258.97312 L 377.4617 1260.30393 L 377.4617 1277.18025 L 377.21365 1278.56692 L 376.50028 1279.78161 L 375.4617 1280.64435 L 362.84638 1287.92781 L 362.84638 1300.18533 L 373.4617 1306.31409 L 384.07702 1300.18533 L 384.07702 1285.61841 L 384.32507 1284.23174 L 385.03844 1283.01705 L 386.07702 1282.15431 L 400.69234 1273.71615 L 402.01725 1273.23763 L 403.42589 1273.24809 L 404.69234 1273.71615 L 419.30766 1282.15431 L 420.38453 1283.06246 L 421.07979 1284.2876 L 421.30766 1285.61841 L 421.30766 1300.18533 L 431.92298 1306.31409 L 444.5383 1299.03063 L 445.86321 1298.55211 L 447.27185 1298.56257 L 448.5383 1299.03063 L 463.15362 1307.46879 L 464.23049 1308.37694 L 464.92575 1309.60208 L 465.15362 1310.93289 L 465.15362 1327.8092 L 464.90557 1329.19587 L 464.1922 1330.41056 L 463.15362 1331.2733 L 450.5383 1338.55676 L 450.5383 1350.81428 L 461.15362 1356.94304 L 471.76894 1350.81428 L 471.76894 1336.24736 L 472.01699 1334.86069 L 472.73036 1333.646 L 473.76894 1332.78326 L 488.38426 1324.3451 L 489.70917 1323.86658 L 491.11781 1323.87704 L 492.38426 1324.3451 L 504.99958 1331.62856 L 517.6149 1324.3451 L 518.93981 1323.86658 L 520.34845 1323.87704 L 521.6149 1324.3451 L 536.23022 1332.78326 L 537.30709 1333.69141 L 538.00235 1334.91655 L 538.23022 1336.24736 L 538.23022 1353.12368 L 537.98217 1354.51035 L 537.2688 1355.72504 L 536.23022 1356.58778 L 521.6149 1365.02594 L 520.28999 1365.50446 L 518.88135 1365.494 L 517.6149 1365.02594 L 504.99958 1357.74248 L 492.38426 1365.02594 L 491.05935 1365.50446 L 489.65071 1365.494 L 488.38426 1365.02594 L 475.76894 1357.74248 L 465.15362 1363.87124 L 465.15362 1376.12876 L 475.76894 1382.25752 L 488.38426 1374.97406 L 489.70917 1374.49554 L 491.11781 1374.506 L 492.38426 1374.97406 L 504.99958 1382.25752 L 517.6149 1374.97406 L 518.93981 1374.49554 L 520.34845 1374.506 L 521.6149 1374.97406 L 536.23022 1383.41222 L 537.30709 1384.32037 L 538.00235 1385.54551 L 538.23022 1386.87632 L 538.23022 1403.75264 L 537.98217 1405.13931 L 537.2688 1406.354 L 536.23022 1407.21674 L 521.6149 1415.6549 L 521.5583 1415.67534 L 521.51116 1415.71276 L 520.8974 1415.91404 L 520.28999 1416.13342 L 520.22981 1416.13297 L 520.17262 1416.15173 L 519.52705 1416.12775 L 518.88135 1416.12296 L 518.82507 1416.10168 L 518.76491 1416.09945 L 517.6149 1415.6549 L 504.99958 1408.37144 L 492.38426 1415.6549 L 491.05935 1416.13342 L 489.65071 1416.12296 L 488.38426 1415.6549 L 473.76894 1407.21674 L 472.69207 1406.30859 L 471.99681 1405.08345 L 471.76894 1403.75264 L 471.76894 1389.18572 L 461.15362 1383.05696 L 450.5383 1389.18572 L 450.5383 1401.44324 L 463.15362 1408.7267 L 464.23049 1409.63485 L 464.92575 1410.85999 L 465.15362 1412.1908 L 465.15362 1429.06711 L 464.90557 1430.45378 L 464.1922 1431.66847 L 463.15362 1432.53121 L 448.5383 1440.96937 L 447.21339 1441.44789 L 445.80475 1441.43743 L 444.5383 1440.96937 L 431.92298 1433.68591 L 421.30766 1439.81467 L 421.30766 1454.38159 L 421.05961 1455.76826 L 420.34624 1456.98295 L 419.30766 1457.84569 L 404.69234 1466.28385 L 403.36743 1466.76237 L 401.95879 1466.75191 L 400.69234 1466.28385 L 386.07702 1457.84569 L 385.00015 1456.93754 L 384.30489 1455.7124 L 384.07702 1454.38159 L 384.07702 1439.81467 L 373.4617 1433.68591 L 362.84638 1439.81467 L 362.84638 1452.07219 L 375.4617 1459.35565 L 376.53857 1460.2638 L 377.23383 1461.48894 L 377.4617 1462.81975 L 377.4617 1479.69607 L 377.21365 1481.08274 L 376.50028 1482.29743 L 375.4617 1483.16017 L 362.84638 1490.44363 L 362.84638 1505.01055 L 362.59833 1506.39722 L 361.88496 1507.61191 L 360.84638 1508.47465 L 346.23106 1516.91281 L 344.90615 1517.39133 L 343.49751 1517.38087 L 342.23106 1516.91281 L 327.61574 1508.47465 L 326.53887 1507.5665 L 325.84361 1506.34136 L 325.61574 1505.01055 L 325.61574 1488.13423 L 325.86379 1486.74756 L 326.57716 1485.53287 L 327.61574 1484.67013 L 340.23106 1477.38667 L 340.23106 1462.81975 L 340.47911 1461.43308 L 341.19248 1460.21839 L 342.23106 1459.35565 L 354.84638 1452.07219 L 354.84638 1439.81467 L 344.23106 1433.68591 L 333.61574 1439.81467 L 333.61574 1454.38159 L 333.36769 1455.76826 L 332.65432 1456.98295 L 331.61574 1457.84569 L 319.00042 1465.12915 L 319.00042 1479.69607 L 318.75237 1481.08274 L 318.039 1482.29743 L 317.00042 1483.16017 L 302.3851 1491.59833 L 301.06019 1492.07685 L 299.65155 1492.06639 L 298.3851 1491.59833 L 283.76978 1483.16017 L 282.69291 1482.25202 L 281.99765 1481.02688 L 281.76978 1479.69607 L 281.76978 1462.81975 L 282.01783 1461.43308 L 282.7312 1460.21839 L 283.76978 1459.35565 L 296.3851 1452.07219 L 296.3851 1437.50527 L 296.63315 1436.1186 L 297.34652 1434.90391 L 298.3851 1434.04117 L 313.00042 1425.60301 L 314.32533 1425.12449 L 315.73397 1425.13495 L 317.00042 1425.60301 L 329.61574 1432.88647 L 340.23106 1426.75771 L 340.23106 1414.5002 L 329.61574 1408.37144 L 317.00042 1415.6549 L 315.67551 1416.13342 L 314.26687 1416.12296 L 313.00042 1415.6549 L 298.3851 1407.21674 L 297.30823 1406.30859 L 296.61297 1405.08345 L 296.3851 1403.75264 L 296.3851 1386.87632 L 296.63315 1385.48965 L 297.34652 1384.27496 L 298.3851 1383.41222 L 311.00042 1376.12876 L 311.00042 1363.87124 L 298.3851 1356.58778 L 297.30823 1355.67963 L 296.61297 1354.45449 L 296.3851 1353.12368 L 296.3851 1336.24736 L 296.63315 1334.86069 L 297.34652 1333.646 L 298.3851 1332.78326 L 313.00042 1324.3451 L 314.32533 1323.86658 L 315.73397 1323.87704 L 317.00042 1324.3451 L 329.61574 1331.62856 L 340.23106 1325.4998 L 340.23106 1313.24229 L 329.61574 1307.11353 L 317.00042 1314.39699 L 315.67551 1314.87551 L 314.26687 1314.86505 L 313.00042 1314.39699 L 298.3851 1305.95883 L 297.30823 1305.05068 L 296.61297 1303.82554 L 296.3851 1302.49473 L 296.3851 1287.92781 L 283.76978 1280.64435 L 282.69291 1279.7362 L 281.99765 1278.51106 L 281.76978 1277.18025 L 281.76978 1260.30393 L 282.01783 1258.91726 L 282.7312 1257.70257 L 283.76978 1256.83983 L 298.3851 1248.40167 L 299.71001 1247.92315 L 301.11865 1247.93361 L 302.3851 1248.40167 L 317.00042 1256.83983 L 318.07729 1257.74798 L 318.77255 1258.97312 L 319.00042 1260.30393 L 319.00042 1274.87085 L 331.61574 1282.15431 L 332.69261 1283.06246 L 333.38787 1284.2876 L 333.61574 1285.61841 L 333.61574 1300.18533 L 344.23106 1306.31409 L 354.84638 1300.18533 L 354.84638 1287.92781 L 342.23106 1280.64435 L 341.15419 1279.7362 L 340.45893 1278.51106 L 340.23106 1277.18025 L 340.23106 1262.61333 L 327.61574 1255.32987 L 326.53887 1254.42172 L 325.84361 1253.19658 L 325.61574 1251.86577 L 325.61574 1234.98945 L 325.86379 1233.60278 L 326.57716 1232.38809 L 327.61574 1231.52535 L 342.23106 1223.08719 L 343.55597 1222.60867 Z M 333.61574 1490.44363 L 333.61574 1502.70115 L 344.23106 1508.82991 L 354.84638 1502.70115 L 354.84638 1490.44363 L 344.23106 1484.31487 Z M 289.76978 1465.12915 L 289.76978 1477.38667 L 300.3851 1483.51543 L 311.00042 1477.38667 L 311.00042 1465.12915 L 300.3851 1459.00039 Z M 348.23106 1465.12915 L 348.23106 1477.38667 L 358.84638 1483.51543 L 369.4617 1477.38667 L 369.4617 1465.12915 L 358.84638 1459.00039 Z M 304.3851 1439.81467 L 304.3851 1452.07219 L 315.00042 1458.20095 L 325.61574 1452.07219 L 325.61574 1439.81467 L 315.00042 1433.68591 Z M 392.07702 1439.81467 L 392.07702 1452.07219 L 402.69234 1458.20095 L 413.30766 1452.07219 L 413.30766 1439.81467 L 402.69234 1433.68591 Z M 348.23106 1414.5002 L 348.23106 1426.75771 L 358.84638 1432.88647 L 369.4617 1426.75771 L 369.4617 1414.5002 L 358.84638 1408.37144 Z M 404.69234 1314.39699 L 403.36743 1314.87551 L 401.95879 1314.86505 L 400.69234 1314.39699 L 388.07702 1307.11353 L 377.4617 1313.24229 L 377.4617 1327.8092 L 377.21365 1329.19587 L 376.50028 1330.41056 L 375.4617 1331.2733 L 360.84638 1339.71146 L 359.52147 1340.18998 L 358.11283 1340.17952 L 356.84638 1339.71146 L 344.23106 1332.428 L 333.61574 1338.55676 L 333.61574 1353.12368 L 333.36769 1354.51035 L 332.65432 1355.72504 L 331.61574 1356.58778 L 319.00042 1363.87124 L 319.00042 1376.12876 L 331.61574 1383.41222 L 332.69261 1384.32037 L 333.38787 1385.54551 L 333.61574 1386.87632 L 333.61574 1401.44324 L 344.23106 1407.572 L 356.84638 1400.28854 L 358.17129 1399.81002 L 359.57993 1399.82048 L 360.84638 1400.28854 L 375.4617 1408.7267 L 376.53857 1409.63485 L 377.23383 1410.85999 L 377.4617 1412.1908 L 377.4617 1426.75771 L 388.07702 1432.88647 L 400.69234 1425.60301 L 402.01725 1425.12449 L 403.42589 1425.13495 L 404.69234 1425.60301 L 417.30766 1432.88647 L 427.92298 1426.75771 L 427.92298 1412.1908 L 428.17103 1410.80413 L 428.8844 1409.58944 L 429.92298 1408.7267 L 442.5383 1401.44324 L 442.5383 1389.18572 L 429.92298 1381.90226 L 428.84611 1380.99411 L 428.15085 1379.76897 L 427.92298 1378.43816 L 427.92298 1361.56184 L 428.17103 1360.17517 L 428.8844 1358.96048 L 429.92298 1358.09774 L 442.5383 1350.81428 L 442.5383 1338.55676 L 429.92298 1331.2733 L 428.84611 1330.36515 L 428.15085 1329.14001 L 427.92298 1327.8092 L 427.92298 1313.24229 L 417.30766 1307.11353 Z M 435.92298 1414.5002 L 435.92298 1426.75771 L 446.5383 1432.88647 L 457.15362 1426.75771 L 457.15362 1414.5002 L 446.5383 1408.37144 Z M 304.3851 1389.18572 L 304.3851 1401.44324 L 315.00042 1407.572 L 325.61574 1401.44324 L 325.61574 1389.18572 L 315.00042 1383.05696 Z M 479.76894 1389.18572 L 479.76894 1401.44324 L 490.38426 1407.572 L 500.99958 1401.44324 L 500.99958 1389.18572 L 490.38426 1383.05696 Z M 508.99958 1389.18572 L 508.99958 1401.44324 L 519.6149 1407.572 L 530.23022 1401.44324 L 530.23022 1389.18572 L 519.6149 1383.05696 Z M 435.92298 1363.87124 L 435.92298 1376.12876 L 446.5383 1382.25752 L 457.15362 1376.12876 L 457.15362 1363.87124 L 446.5383 1357.74248 Z M 304.3851 1338.55676 L 304.3851 1350.81428 L 315.00042 1356.94304 L 325.61574 1350.81428 L 325.61574 1338.55676 L 315.00042 1332.428 Z M 479.76894 1338.55676 L 479.76894 1350.81428 L 490.38426 1356.94304 L 500.99958 1350.81428 L 500.99958 1338.55676 L 490.38426 1332.428 Z M 508.99958 1338.55676 L 508.99958 1350.81428 L 519.6149 1356.94304 L 530.23022 1350.81428 L 530.23022 1338.55676 L 519.6149 1332.428 Z M 348.23106 1313.24229 L 348.23106 1325.4998 L 358.84638 1331.62856 L 369.4617 1325.4998 L 369.4617 1313.24229 L 358.84638 1307.11353 Z M 435.92298 1313.24229 L 435.92298 1325.4998 L 446.5383 1331.62856 L 457.15362 1325.4998 L 457.15362 1313.24229 L 446.5383 1307.11353 Z M 304.3851 1287.92781 L 304.3851 1300.18533 L 315.00042 1306.31409 L 325.61574 1300.18533 L 325.61574 1287.92781 L 315.00042 1281.79905 Z M 392.07702 1287.92781 L 392.07702 1300.18533 L 402.69234 1306.31409 L 413.30766 1300.18533 L 413.30766 1287.92781 L 402.69234 1281.79905 Z M 289.76978 1262.61333 L 289.76978 1274.87085 L 300.3851 1280.99961 L 311.00042 1274.87085 L 311.00042 1262.61333 L 300.3851 1256.48457 Z M 348.23106 1262.61333 L 348.23106 1274.87085 L 358.84638 1280.99961 L 369.4617 1274.87085 L 369.4617 1262.61333 L 358.84638 1256.48457 Z M 333.61574 1237.29885 L 333.61574 1249.55637 L 344.23106 1255.68513 L 354.84638 1249.55637 L 354.84638 1237.29885 L 344.23106 1231.17009 Z" stroke-miterlimit="10"/><path fill="#222222" stroke="#cccccc" paint-order="fill stroke markers" d=" M 801.41158 1230.43868 L 802.67803 1230.90674 L 824.03408 1243.23666 L 825.11095 1244.14481 L 825.80621 1245.36995 L 826.03408 1246.70076 L 826.03408 1269.05121 L 843.39014 1279.07173 L 862.74619 1267.89651 L 864.0711 1267.41799 L 865.47974 1267.42845 L 866.74619 1267.89651 L 888.10225 1280.22643 L 889.17912 1281.13458 L 889.87438 1282.35972 L 890.10225 1283.69053 L 890.10225 1306.04098 L 909.4583 1317.2162 L 910.53517 1318.12435 L 911.23043 1319.34949 L 911.4583 1320.6803 L 911.4583 1343.03075 L 930.81436 1354.20598 L 931.89123 1355.11413 L 932.58649 1356.33927 L 932.81436 1357.67008 L 932.81436 1382.32992 L 932.56631 1383.71659 L 931.85294 1384.93128 L 930.81436 1385.79402 L 911.4583 1396.96925 L 911.4583 1419.3197 L 911.21025 1420.70637 L 910.49688 1421.92106 L 909.4583 1422.7838 L 890.10225 1433.95902 L 890.10225 1456.30947 L 889.8542 1457.69614 L 889.14083 1458.91083 L 888.10225 1459.77357 L 866.74619 1472.10349 L 865.42128 1472.58201 L 864.01264 1472.57155 L 862.74619 1472.10349 L 843.39014 1460.92827 L 826.03408 1470.94879 L 826.03408 1493.29924 L 825.78603 1494.68591 L 825.07266 1495.9006 L 824.03408 1496.76334 L 802.67803 1509.09326 L 801.35312 1509.57178 L 799.94448 1509.56132 L 798.67803 1509.09326 L 779.32197 1497.91804 L 759.96592 1509.09326 L 758.64101 1509.57178 L 757.23237 1509.56132 L 755.96592 1509.09326 L 736.60986 1497.91804 L 717.25381 1509.09326 L 715.9289 1509.57178 L 714.52026 1509.56132 L 713.25381 1509.09326 L 691.89775 1496.76334 L 690.82088 1495.85519 L 690.12562 1494.63005 L 689.89775 1493.29924 L 689.89775 1470.94879 L 670.5417 1459.77357 L 669.46483 1458.86542 L 668.76957 1457.64028 L 668.5417 1456.30947 L 668.5417 1433.95902 L 649.18564 1422.7838 L 648.10877 1421.87565 L 647.41351 1420.65051 L 647.18564 1419.3197 L 647.18564 1394.65985 L 647.43369 1393.27318 L 648.14706 1392.05849 L 649.18564 1391.19575 L 668.5417 1380.02052 L 668.5417 1359.97948 L 649.18564 1348.80425 L 648.10877 1347.8961 L 647.41351 1346.67096 L 647.18564 1345.34015 L 647.18564 1320.6803 L 647.43369 1319.29363 L 648.14706 1318.07894 L 649.18564 1317.2162 L 668.5417 1306.04098 L 668.5417 1283.69053 L 668.78975 1282.30386 L 669.50312 1281.08917 L 670.5417 1280.22643 L 689.89775 1269.05121 L 689.89775 1246.70076 L 690.1458 1245.31409 L 690.85917 1244.0994 L 691.89775 1243.23666 L 713.25381 1230.90674 L 714.57872 1230.42822 L 715.98736 1230.43868 L 717.25381 1230.90674 L 736.60986 1242.08196 L 755.96592 1230.90674 L 757.29083 1230.42822 L 758.69947 1230.43868 L 759.96592 1230.90674 L 779.32197 1242.08196 L 798.67803 1230.90674 L 800.00294 1230.42822 Z M 697.89775 1470.94879 L 697.89775 1490.98984 L 715.25381 1501.01036 L 732.60986 1490.98984 L 732.60986 1470.94879 L 715.25381 1460.92827 Z M 781.32197 1472.10349 L 781.26537 1472.12393 L 781.21823 1472.16135 L 780.60447 1472.36263 L 779.99706 1472.58201 L 779.93688 1472.58156 L 779.87969 1472.60032 L 779.23412 1472.57634 L 778.58842 1472.57155 L 778.53214 1472.55027 L 778.47198 1472.54804 L 777.32197 1472.10349 L 757.96592 1460.92827 L 740.60986 1470.94879 L 740.60986 1490.98984 L 757.96592 1501.01036 L 777.32197 1489.83514 L 778.64688 1489.35662 L 780.05552 1489.36708 L 781.32197 1489.83514 L 800.67803 1501.01036 L 818.03408 1490.98984 L 818.03408 1470.94879 L 800.67803 1460.92827 Z M 655.18564 1396.96925 L 655.18564 1417.0103 L 674.5417 1428.18552 L 675.61857 1429.09367 L 676.31383 1430.31881 L 676.5417 1431.64962 L 676.5417 1454.00007 L 693.89775 1464.02059 L 711.25381 1454.00007 L 711.25381 1433.95902 L 691.89775 1422.7838 L 690.82088 1421.87565 L 690.12562 1420.65051 L 689.89775 1419.3197 L 689.89775 1396.96925 L 672.5417 1386.94872 Z M 697.89775 1396.96925 L 697.89775 1417.0103 L 717.25381 1428.18552 L 718.33068 1429.09367 L 719.02594 1430.31881 L 719.25381 1431.64962 L 719.25381 1454.00007 L 736.60986 1464.02059 L 755.96592 1452.84537 L 757.29083 1452.36685 L 758.69947 1452.37731 L 759.96592 1452.84537 L 779.32197 1464.02059 L 796.67803 1454.00007 L 796.67803 1433.95902 L 779.32197 1423.9385 L 759.96592 1435.11372 L 758.64101 1435.59224 L 757.23237 1435.58178 L 755.96592 1435.11372 L 734.60986 1422.7838 L 733.53299 1421.87565 L 732.83773 1420.65051 L 732.60986 1419.3197 L 732.60986 1396.96925 L 715.25381 1386.94872 Z M 804.67803 1433.95902 L 804.67803 1454.00007 L 822.03408 1464.02059 L 839.39014 1454.00007 L 839.39014 1433.95902 L 822.03408 1423.9385 Z M 868.74619 1396.96925 L 868.74619 1419.3197 L 868.49814 1420.70637 L 867.78477 1421.92106 L 866.74619 1422.7838 L 847.39014 1433.95902 L 847.39014 1454.00007 L 864.74619 1464.02059 L 882.10225 1454.00007 L 882.10225 1431.64962 L 882.3503 1430.26295 L 883.06367 1429.04826 L 884.10225 1428.18552 L 903.4583 1417.0103 L 903.4583 1396.96925 L 886.10225 1386.94872 Z M 740.60986 1322.9897 L 740.60986 1343.03075 L 759.96592 1354.20598 L 761.04279 1355.11413 L 761.73805 1356.33927 L 761.96592 1357.67008 L 761.96592 1382.32992 L 761.71787 1383.71659 L 761.0045 1384.93128 L 759.96592 1385.79402 L 740.60986 1396.96925 L 740.60986 1417.0103 L 757.96592 1427.03082 L 775.32197 1417.0103 L 775.32197 1394.65985 L 775.57002 1393.27318 L 776.28339 1392.05849 L 777.32197 1391.19575 L 798.67803 1378.86582 L 800.00294 1378.3873 L 801.41158 1378.39776 L 802.67803 1378.86582 L 822.03408 1390.04105 L 839.39014 1380.02052 L 839.39014 1359.97948 L 822.03408 1349.95895 L 802.67803 1361.13418 L 801.35312 1361.6127 L 799.94448 1361.60224 L 798.67803 1361.13418 L 777.32197 1348.80425 L 776.2451 1347.8961 L 775.54984 1346.67096 L 775.32197 1345.34015 L 775.32197 1322.9897 L 757.96592 1312.96918 Z M 783.32197 1396.96925 L 783.32197 1417.0103 L 800.67803 1427.03082 L 818.03408 1417.0103 L 818.03408 1396.96925 L 800.67803 1386.94872 Z M 826.03408 1322.9897 L 826.03408 1343.03075 L 845.39014 1354.20598 L 846.46701 1355.11413 L 847.16227 1356.33927 L 847.39014 1357.67008 L 847.39014 1382.32992 L 847.14209 1383.71659 L 846.42872 1384.93128 L 845.39014 1385.79402 L 826.03408 1396.96925 L 826.03408 1417.0103 L 843.39014 1427.03082 L 860.74619 1417.0103 L 860.74619 1394.65985 L 860.99424 1393.27318 L 861.70761 1392.05849 L 862.74619 1391.19575 L 882.10225 1380.02052 L 882.10225 1359.97948 L 862.74619 1348.80425 L 861.66932 1347.8961 L 860.97406 1346.67096 L 860.74619 1345.34015 L 860.74619 1322.9897 L 843.39014 1312.96918 Z M 676.5417 1359.97948 L 676.5417 1380.02052 L 693.89775 1390.04105 L 711.25381 1380.02052 L 711.25381 1359.97948 L 693.89775 1349.95895 Z M 719.25381 1359.97948 L 719.25381 1380.02052 L 736.60986 1390.04105 L 753.96592 1380.02052 L 753.96592 1359.97948 L 736.60986 1349.95895 Z M 890.10225 1359.97948 L 890.10225 1380.02052 L 907.4583 1390.04105 L 924.81436 1380.02052 L 924.81436 1359.97948 L 907.4583 1349.95895 Z M 676.5417 1285.99993 L 676.5417 1308.35038 L 676.29365 1309.73705 L 675.58028 1310.95174 L 674.5417 1311.81448 L 655.18564 1322.9897 L 655.18564 1343.03075 L 672.5417 1353.05128 L 689.89775 1343.03075 L 689.89775 1320.6803 L 690.1458 1319.29363 L 690.85917 1318.07894 L 691.89775 1317.2162 L 711.25381 1306.04098 L 711.25381 1285.99993 L 693.89775 1275.97941 Z M 759.96592 1287.15463 L 758.64101 1287.63315 L 757.23237 1287.62269 L 755.96592 1287.15463 L 736.60986 1275.97941 L 719.25381 1285.99993 L 719.25381 1308.35038 L 719.00576 1309.73705 L 718.29239 1310.95174 L 717.25381 1311.81448 L 697.89775 1322.9897 L 697.89775 1343.03075 L 715.25381 1353.05128 L 732.60986 1343.03075 L 732.60986 1320.6803 L 732.85791 1319.29363 L 733.57128 1318.07894 L 734.60986 1317.2162 L 755.96592 1304.88628 L 757.29083 1304.40776 L 758.69947 1304.41822 L 759.96592 1304.88628 L 779.32197 1316.0615 L 796.67803 1306.04098 L 796.67803 1285.99993 L 779.32197 1275.97941 Z M 783.32197 1322.9897 L 783.32197 1343.03075 L 800.67803 1353.05128 L 818.03408 1343.03075 L 818.03408 1322.9897 L 800.67803 1312.96918 Z M 847.39014 1285.99993 L 847.39014 1306.04098 L 866.74619 1317.2162 L 867.82306 1318.12435 L 868.51832 1319.34949 L 868.74619 1320.6803 L 868.74619 1343.03075 L 886.10225 1353.05128 L 903.4583 1343.03075 L 903.4583 1322.9897 L 884.10225 1311.81448 L 883.02538 1310.90633 L 882.33012 1309.68119 L 882.10225 1308.35038 L 882.10225 1285.99993 L 864.74619 1275.97941 Z M 804.67803 1285.99993 L 804.67803 1306.04098 L 822.03408 1316.0615 L 839.39014 1306.04098 L 839.39014 1285.99993 L 822.03408 1275.97941 Z M 697.89775 1249.01016 L 697.89775 1269.05121 L 715.25381 1279.07173 L 732.60986 1269.05121 L 732.60986 1249.01016 L 715.25381 1238.98964 Z M 781.32197 1250.16486 L 779.99706 1250.64338 L 778.58842 1250.63292 L 777.32197 1250.16486 L 757.96592 1238.98964 L 740.60986 1249.01016 L 740.60986 1269.05121 L 757.96592 1279.07173 L 777.32197 1267.89651 L 778.64688 1267.41799 L 780.05552 1267.42845 L 781.32197 1267.89651 L 800.67803 1279.07173 L 818.03408 1269.05121 L 818.03408 1249.01016 L 800.67803 1238.98964 Z" stroke-miterlimit="10"/></g></svg>