<svg version="1.1" xmlns="http://www.w3.org/2000/svg" xmlns:xlink="http://www.w3.org/1999/xlink" width="900" height="1600"><defs/><g><path fill="#222222" stroke="#cccccc" paint-order="fill stroke markers" d=" M 297.6513 88.08749 L 297.6513 114.09312 L 312.93704 93.05412 L 352.14199 105.79258 L 352.14199 142.80927 L 371.42773 169.3538 L 406.63268 180.79258 L 406.63268 219.10895 L 406.54852 219.57942 L 406.51885 220.05641 L 406.42535 220.26796 L 406.38463 220.49562 L 406.1426 220.90774 L 405.94941 221.34486 L 405.78839 221.51086 L 405.67126 221.71031 L 405.30136 222.01297 L 404.96862 222.35601 L 404.74149 222.47107 L 404.58102 222.60237 L 404.27252 222.70864 L 403.86875 222.91318 L 381.89986 230.0513 L 406.63268 238.08749 L 406.63268 279.31002 L 371.42772 290.74882 L 352.14199 317.29334 L 352.14199 354.31002 L 312.93704 367.04849 L 297.6513 346.00948 L 297.6513 372.01512 L 258.44635 384.75358 L 236.68849 354.80646 L 205.48352 344.66735 L 170.27856 356.10613 L 146.04856 322.7564 L 161.33428 301.7174 L 136.60146 309.75358 L 112.37146 276.40385 L 134.12932 246.45672 L 134.12932 213.64589 L 112.37146 183.69875 L 136.60146 150.34902 L 161.33428 158.3852 L 146.04856 137.34621 L 170.27856 103.99647 L 205.48352 115.43526 L 236.68849 105.29614 L 258.44635 75.34902 Z M 244.10489 351.40385 L 261.50207 375.34901 L 289.6513 366.20278 L 289.6513 336.60492 L 261.50207 327.45868 Z M 298.59557 333.69875 L 315.99276 357.64392 L 344.14199 348.49768 L 344.14199 318.89983 L 315.99276 309.75359 Z M 209.48352 307.95747 L 209.48352 337.55533 L 237.63275 346.70157 L 255.02994 322.7564 L 237.63276 298.81124 Z M 155.9371 322.7564 L 173.33428 346.70156 L 201.48352 337.55533 L 201.48352 307.95747 L 173.33428 298.81123 Z M 263.97421 290.25238 L 263.97421 319.85023 L 292.12344 328.99647 L 309.52063 305.0513 L 292.12344 281.10614 Z M 318.4649 272.54728 L 318.4649 302.14513 L 346.61413 311.29137 L 364.01132 287.34621 L 346.61413 263.40104 Z M 242.39669 168.3448 L 242.05208 168.67594 L 241.7477 169.0444 L 241.54771 169.16059 L 241.38095 169.32084 L 240.94295 169.51196 L 240.52968 169.75208 L 240.30179 169.79174 L 240.08984 169.88423 L 239.61276 169.91166 L 239.14186 169.99362 L 238.89046 169.9532 L 238.68349 169.9651 L 238.37146 169.86975 L 237.92455 169.79789 L 215.95566 162.65976 L 231.24138 183.69875 L 207.01138 217.04849 L 182.27856 209.01231 L 195.85608 227.70016 L 196.06452 228.13022 L 196.32089 228.53357 L 196.3696 228.75967 L 196.47047 228.9678 L 196.51689 229.44345 L 196.61754 229.91066 L 196.58484 230.13963 L 196.60731 230.36981 L 196.48596 230.83205 L 196.4184 231.30519 L 196.30227 231.53179 L 196.24963 231.73232 L 196.06252 231.99962 L 195.85608 232.40244 L 182.27856 251.09029 L 207.01138 243.05412 L 231.24138 276.40385 L 215.95566 297.44284 L 237.92455 290.30472 L 238.39798 290.23938 L 238.86081 290.1202 L 239.0909 290.14375 L 239.32 290.11213 L 239.78672 290.21496 L 240.26217 290.26362 L 240.46981 290.36546 L 240.69569 290.41523 L 241.09782 290.67348 L 241.52691 290.88394 L 241.70653 291.06441 L 241.88098 291.17644 L 242.07737 291.43699 L 242.39669 291.75781 L 255.97421 310.44567 L 255.97421 284.44004 L 295.17916 271.70157 L 310.4649 292.74057 L 310.4649 269.64111 L 310.54906 269.17064 L 310.57873 268.69366 L 310.67222 268.48212 L 310.71295 268.25444 L 310.95499 267.84231 L 311.14817 267.4052 L 311.30919 267.2392 L 311.42632 267.03975 L 311.79622 266.73709 L 312.12896 266.39405 L 312.35609 266.27899 L 312.51656 266.14769 L 312.82506 266.04142 L 313.22883 265.83688 L 335.19772 258.69875 L 310.4649 250.66257 L 310.4649 209.44004 L 335.19771 201.40385 L 313.22883 194.26573 L 312.80739 194.04031 L 312.36292 193.86469 L 312.19063 193.71041 L 311.98668 193.60132 L 311.66953 193.24378 L 311.3135 192.92497 L 311.20537 192.72051 L 311.05189 192.54749 L 310.87835 192.10217 L 310.65492 191.67971 L 310.61568 191.42817 L 310.54039 191.23496 L 310.53465 190.90868 L 310.4649 190.4615 L 310.4649 167.36203 L 295.17916 188.40103 L 255.97421 175.66257 L 255.97421 149.65695 Z M 175.80642 261.60492 L 175.80642 291.20278 L 203.95566 300.34902 L 221.35284 276.40385 L 203.95566 252.45869 Z M 122.26 276.40385 L 139.65718 300.34901 L 167.80642 291.20278 L 167.80642 261.60492 L 139.65718 252.45869 Z M 353.08626 258.69875 L 370.48345 282.64393 L 398.63268 273.49768 L 398.63268 243.89983 L 370.48345 234.75359 Z M 318.4649 215.25238 L 318.4649 244.85023 L 346.61413 253.99646 L 364.01132 230.0513 L 346.61413 206.10613 Z M 142.12932 215.25238 L 142.12932 244.85023 L 170.27856 253.99646 L 187.67574 230.0513 L 170.27856 206.10613 Z M 353.08626 201.40385 L 370.48345 225.34901 L 398.63268 216.20278 L 398.63268 186.60492 L 370.48345 177.45869 Z M 122.26 183.69875 L 139.65718 207.64392 L 167.80642 198.49768 L 167.80642 168.89983 L 139.65718 159.75359 Z M 175.80642 168.89983 L 175.80642 198.49768 L 203.95566 207.64392 L 221.35284 183.69875 L 203.95566 159.75359 Z M 318.4649 157.95747 L 318.4649 187.55533 L 346.61413 196.70157 L 364.01132 172.7564 L 346.61413 148.81124 Z M 263.97421 140.25238 L 263.97421 169.85023 L 292.12344 178.99646 L 309.52063 155.0513 L 292.12344 131.10614 Z M 155.9371 137.34621 L 173.33428 161.29138 L 201.48352 152.14513 L 201.48352 122.54728 L 173.33428 113.40104 Z M 209.48352 122.54728 L 209.48352 152.14513 L 237.63276 161.29137 L 255.02994 137.34621 L 237.63275 113.40103 Z M 298.59557 126.40385 L 315.99276 150.34902 L 344.14199 141.20278 L 344.14199 111.60492 L 315.99276 102.45869 Z M 244.10489 108.69875 L 261.50207 132.64392 L 289.6513 123.49768 L 289.6513 93.89983 L 261.50207 84.75359 Z" stroke-miterlimit="10"/><path fill="#222222" stroke="#cccccc" paint-order="fill stroke markers" d=" M 702.51776 92.64592 L 702.51776 135.78542 L 743.54586 149.11625 L 743.54586 192.25575 L 784.57396 205.58659 L 784.57396 254.53842 L 743.54586 267.86926 L 743.54586 311.00875 L 702.51776 324.33959 L 702.51776 367.47908 L 655.96181 382.60603 L 630.60505 347.70546 L 589.57695 361.03628 L 564.22018 326.1357 L 523.19209 339.46654 L 494.41892 299.86367 L 519.77568 264.96309 L 494.41892 230.0625 L 519.77568 195.16192 L 494.41892 160.26133 L 523.19209 120.65847 L 564.22019 133.9893 L 589.57695 99.08872 L 630.60505 112.41955 L 655.96181 77.51897 Z M 636.13291 302.76984 L 636.13291 341.7035 L 659.01753 373.20146 L 694.51776 361.66674 L 694.51776 322.7331 L 671.63313 291.23511 Z M 570.69232 321.43342 L 592.63267 351.63171 L 628.13291 340.097 L 628.13291 302.76984 L 592.63268 291.23511 Z M 527.19208 268.3657 L 504.30746 299.86367 L 526.24781 330.06197 L 563.27592 318.03081 L 586.16054 286.53283 L 564.22019 256.33454 Z M 678.10527 286.53283 L 700.04562 316.73113 L 735.54586 305.19641 L 735.54586 267.86926 L 700.04562 256.33454 Z M 593.57694 176.99478 L 569.74805 209.79244 L 569.74805 250.33258 L 593.57694 283.13022 L 632.13291 295.65782 L 670.68887 283.13022 L 694.51776 250.33257 L 694.51776 209.79244 L 670.68887 176.99478 L 632.13291 164.46718 Z M 702.51776 211.39893 L 702.51776 248.72608 L 739.54587 260.75724 L 776.57396 248.72608 L 776.57396 211.39893 L 739.54586 199.36777 Z M 504.30746 230.0625 L 526.24782 260.26081 L 561.74805 248.72608 L 561.74805 211.39893 L 526.24781 199.86421 Z M 504.30746 160.26133 L 527.19209 191.75932 L 564.22019 203.79047 L 586.16054 173.59217 L 563.27591 142.09419 L 526.24781 130.06304 Z M 678.10527 173.59217 L 700.04562 203.79047 L 735.54586 192.25575 L 735.54586 154.92859 L 700.04563 143.39387 Z M 570.69232 138.69159 L 592.63268 168.88989 L 628.13291 157.35516 L 628.13291 120.02801 L 592.63267 108.49329 Z M 636.13291 118.42152 L 636.13291 157.35516 L 671.63313 168.88989 L 694.51776 137.39191 L 694.51776 98.45826 L 659.01753 86.92354 Z" stroke-miterlimit="10"/><path fill="#222222" stroke="#cccccc" paint-order="fill stroke markers" d=" M 262.63401 487.44024 L 297.17983 498.66486 L 297.17983 523.97743 L 312.05819 503.49913 L 346.60399 514.72374 L 381.14981 503.49913 L 404.97243 536.28816 L 383.62195 565.67458 L 383.62195 601.9982 L 359.54828 609.82021 L 383.62195 617.64222 L 383.62195 653.96584 L 404.97243 683.35227 L 381.14981 716.14129 L 346.60399 704.91668 L 312.05819 716.14129 L 297.17983 695.663 L 297.17983 720.97556 L 262.63402 732.20018 L 241.28353 761.5866 L 202.73772 749.06231 L 202.73772 712.73868 L 181.38723 683.35227 L 196.26558 662.87398 L 172.19191 670.69598 L 150.84141 641.30956 L 116.2956 630.08495 L 116.2956 589.55548 L 150.84142 578.33086 L 172.19191 548.94444 L 196.26558 556.76644 L 181.38723 536.28816 L 202.73772 506.90174 L 202.73772 470.57812 L 241.28353 458.05382 Z M 210.73772 714.34518 L 210.73772 743.24997 L 238.22781 752.18203 L 255.21761 728.79758 L 238.22781 705.41312 Z M 241.28353 670.69598 L 208.26558 659.9678 L 191.27577 683.35227 L 208.26558 706.73672 L 241.28353 696.00855 L 261.68974 724.09529 L 289.17983 715.16322 L 289.17983 686.25844 L 258.92581 676.42831 L 258.50437 676.20289 L 258.0599 676.02727 L 257.88761 675.87299 L 257.68366 675.7639 L 257.36651 675.40636 L 257.01048 675.08755 L 256.90235 674.88309 L 256.74887 674.71007 L 256.57533 674.26475 L 256.3519 673.84229 L 256.31266 673.59075 L 256.23737 673.39754 L 256.23163 673.07126 L 256.16188 672.62408 L 256.16188 650.21769 Z M 329.43385 640.2581 L 329.08924 640.58924 L 328.78486 640.9577 L 328.58488 641.07389 L 328.41811 641.23414 L 327.98007 641.42528 L 327.56684 641.66537 L 327.33898 641.70503 L 327.127 641.79753 L 326.64989 641.82497 L 326.17902 641.90692 L 325.92762 641.8665 L 325.72065 641.8784 L 325.40862 641.78305 L 324.96171 641.71119 L 303.65197 634.78724 L 318.53032 655.26552 L 298.1241 683.35227 L 315.11391 706.73672 L 342.604 697.80466 L 342.604 663.08753 L 375.62195 652.35935 L 375.62195 623.45456 L 348.13186 614.52249 Z M 350.604 668.89987 L 350.604 697.80466 L 378.09409 706.73672 L 395.08389 683.35227 L 378.09408 659.9678 Z M 264.16188 640.81313 L 264.16188 669.71791 L 291.65197 678.64998 L 308.64178 655.26552 L 291.65197 631.88106 Z M 158.25782 581.73347 L 178.66404 609.82021 L 158.25782 637.90696 L 175.24763 661.29141 L 202.73772 652.35935 L 202.73772 620.54839 L 202.82188 620.07792 L 202.85155 619.60093 L 202.94505 619.38938 L 202.98577 619.16172 L 203.2278 618.7496 L 203.42099 618.31248 L 203.58201 618.14648 L 203.69914 617.94703 L 204.06904 617.64437 L 204.40178 617.30133 L 204.62891 617.18627 L 204.78938 617.05497 L 205.09788 616.9487 L 205.50165 616.74416 L 226.81138 609.82021 L 202.73772 601.9982 L 202.73772 567.28107 L 175.24763 558.34901 Z M 210.73772 623.45456 L 210.73772 652.35935 L 238.22781 661.29141 L 255.21761 637.90696 L 238.22781 614.52249 Z M 124.2956 595.36782 L 124.2956 624.27261 L 151.78569 633.20467 L 168.7755 609.82021 L 151.78569 586.43575 Z M 244.69994 609.82021 L 261.68974 633.20467 L 289.17983 624.27261 L 289.17983 595.36782 L 261.68974 586.43575 Z M 297.17983 595.36782 L 297.17983 624.27261 L 324.66992 633.20467 L 341.65973 609.82021 L 324.66992 586.43576 Z M 210.73772 567.28107 L 210.73772 596.18586 L 238.22781 605.11793 L 255.21761 581.73347 L 238.22781 558.34901 Z M 298.1241 536.28816 L 316.82212 562.02376 L 317.03056 562.45383 L 317.28693 562.85717 L 317.33563 563.08326 L 317.43651 563.29139 L 317.48294 563.76706 L 317.58358 564.23426 L 317.55088 564.46323 L 317.57335 564.69341 L 317.452 565.15565 L 317.38444 565.62879 L 317.26831 565.85539 L 317.21567 566.05592 L 317.02856 566.32322 L 316.82212 566.72604 L 303.65197 584.85319 L 327.72564 577.03119 L 348.13186 605.11793 L 375.62195 596.18586 L 375.62195 567.28107 L 342.604 556.55289 L 342.604 521.83576 L 315.11391 512.9037 Z M 264.16188 549.92251 L 264.16188 578.8273 L 291.65197 587.75937 L 308.64178 564.3749 L 291.65197 540.99045 Z M 241.28353 523.63187 L 208.26558 512.9037 L 191.27577 536.28816 L 208.26558 559.67262 L 238.5196 549.84249 L 238.99303 549.77715 L 239.45586 549.65797 L 239.68595 549.68152 L 239.91505 549.6499 L 240.38177 549.75273 L 240.85722 549.80139 L 241.06486 549.90323 L 241.29074 549.953 L 241.69287 550.21125 L 242.12196 550.42171 L 242.30158 550.60218 L 242.47603 550.71421 L 242.67242 550.97476 L 242.99174 551.29558 L 256.16188 569.42273 L 256.16188 544.11017 L 289.17983 533.38199 L 289.17983 504.4772 L 261.68974 495.54513 Z M 350.604 521.83576 L 350.604 550.74055 L 378.09408 559.67262 L 395.08389 536.28816 L 378.09409 512.9037 Z M 210.73772 476.39046 L 210.73772 505.29524 L 238.22781 514.2273 L 255.21761 490.84285 L 238.22781 467.45839 Z" stroke-miterlimit="10"/><path fill="#222222" stroke="#cccccc" paint-order="fill stroke markers" d=" M 707.09881 474.39759 L 707.09881 526.7176 L 735.37961 565.64278 L 785.13889 581.81055 L 785.13889 638.3364 L 735.3796 654.50418 L 707.09881 693.42935 L 707.09881 745.74936 L 653.33953 763.21681 L 622.5866 720.88904 L 576.82731 706.02094 L 527.06803 722.18871 L 493.84296 676.45833 L 524.59589 634.13055 L 524.59589 586.0164 L 493.84296 543.68862 L 527.06803 497.95824 L 576.82731 514.12601 L 622.5866 499.25791 L 653.33953 456.93014 Z M 630.003 717.48643 L 656.39525 753.81224 L 699.09881 739.93702 L 699.09881 695.03584 L 656.39525 681.16061 Z M 580.82731 654.00774 L 580.82731 698.90892 L 623.53086 712.78415 L 649.92312 676.45833 L 623.53087 640.13252 Z M 503.7315 676.45833 L 530.12375 712.78414 L 572.82731 698.90892 L 572.82731 654.00774 L 530.12375 640.13252 Z M 658.86739 628.65098 L 658.86739 673.55216 L 701.57095 687.42738 L 727.9632 651.10157 L 701.57095 614.77576 Z M 626.58659 589.419 L 587.29945 576.65384 L 611.58024 610.07348 L 587.29945 643.49311 L 626.58659 630.72795 L 650.86739 664.1476 L 650.86739 622.83864 L 690.15452 610.07348 L 650.86739 597.30831 L 650.86739 555.99935 Z M 708.04308 610.07348 L 734.43534 646.39929 L 777.13889 632.52406 L 777.13889 587.62289 L 734.43533 573.74767 Z M 532.59589 587.62289 L 532.59589 632.52406 L 575.29945 646.39928 L 601.6917 610.07348 L 575.29945 573.74766 Z M 658.86739 546.59479 L 658.86739 591.49597 L 701.57095 605.3712 L 727.9632 569.04538 L 701.57095 532.71957 Z M 503.7315 543.68862 L 530.12375 580.01443 L 572.82731 566.13921 L 572.82731 521.23803 L 530.12375 507.36281 Z M 580.82731 521.23803 L 580.82731 566.13921 L 623.53087 580.01443 L 649.92312 543.68862 L 623.53086 507.3628 Z M 630.003 502.66052 L 656.39525 538.98633 L 699.09881 525.11111 L 699.09881 480.20993 L 656.39525 466.33471 Z" stroke-miterlimit="10"/><path fill="#222222" stroke="#cccccc" paint-order="fill stroke markers" d=" M 283.31151 865.19354 L 314.51648 875.33265 L 349.72144 863.89387 L 373.95144 897.2436 L 358.66572 918.2826 L 383.39854 910.24642 L 407.62854 943.59615 L 385.87068 973.54328 L 385.87068 1006.35411 L 407.62854 1036.30125 L 383.39854 1069.65098 L 358.66572 1061.6148 L 373.95144 1082.65379 L 349.72144 1116.00353 L 314.51648 1104.56474 L 283.31151 1114.70386 L 261.55365 1144.65098 L 222.3487 1131.91251 L 222.3487 1105.90688 L 207.06296 1126.94588 L 167.85801 1114.20742 L 167.85801 1077.19073 L 148.57228 1050.64621 L 113.36732 1039.20742 L 113.36732 997.98488 L 138.10013 989.9487 L 113.36732 981.91251 L 113.36732 940.68998 L 148.57228 929.25118 L 167.85801 902.70666 L 167.85801 865.68998 L 207.06296 852.95151 L 222.3487 873.99052 L 222.3487 847.98488 L 261.55365 835.24642 Z M 230.3487 1096.50232 L 230.3487 1126.10017 L 258.49793 1135.24641 L 275.89511 1111.30125 L 258.49793 1087.35607 Z M 175.85801 1078.79722 L 175.85801 1108.39508 L 204.00724 1117.54131 L 221.40443 1093.59615 L 204.00723 1069.65098 Z M 264.02579 898.54328 L 264.02579 935.55996 L 224.82084 948.29843 L 203.06297 918.35131 L 173.38587 908.70863 L 155.98868 932.65379 L 174.33014 957.89864 L 209.5351 969.33743 L 209.5351 1010.55996 L 174.33015 1021.99875 L 155.98868 1047.2436 L 173.38587 1071.18876 L 203.06297 1061.54609 L 224.82084 1031.59897 L 264.02579 1044.33743 L 264.02579 1081.35411 L 282.36725 1106.59897 L 310.51648 1097.45272 L 310.51648 1066.24838 L 288.75862 1036.30125 L 312.98862 1002.95151 L 348.19359 1014.3903 L 377.87068 1004.74762 L 377.87068 975.14977 L 348.19358 965.5071 L 312.98862 976.94588 L 288.75862 943.59615 L 310.51648 913.64903 L 310.51648 882.44467 L 282.36725 873.29843 Z M 318.51648 1067.85487 L 318.51648 1097.45272 L 346.66572 1106.59896 L 364.0629 1082.65379 L 346.66572 1058.70863 Z M 210.47937 1064.9487 L 227.87656 1088.89386 L 256.02579 1079.74762 L 256.02579 1050.14977 L 227.87656 1041.00354 Z M 298.64716 1036.30125 L 316.04434 1060.24641 L 344.19358 1051.10017 L 344.19358 1021.50232 L 316.04434 1012.35608 Z M 352.19358 1021.50232 L 352.19358 1051.10017 L 380.34282 1060.24641 L 397.74 1036.30125 L 380.34282 1012.35608 Z M 121.36732 1003.79722 L 121.36732 1033.39508 L 149.51654 1042.54132 L 166.91374 1018.59615 L 149.51655 994.65098 Z M 155.98868 989.9487 L 173.38587 1013.89386 L 201.5351 1004.74762 L 201.5351 975.14977 L 173.38588 966.00353 Z M 121.36732 946.50232 L 121.36732 976.10017 L 149.51655 985.24642 L 166.91374 961.30125 L 149.51655 937.35607 Z M 298.64716 943.59615 L 316.04434 967.54131 L 344.19358 958.39508 L 344.19358 928.79722 L 316.04434 919.65099 Z M 352.19358 928.79722 L 352.19358 958.39508 L 380.34282 967.54131 L 397.74 943.59615 L 380.34282 919.65099 Z M 210.47937 914.9487 L 227.87656 938.89386 L 256.02579 929.74762 L 256.02579 900.14977 L 227.87656 891.00354 Z M 318.51648 882.44467 L 318.51648 912.04253 L 346.66572 921.18877 L 364.0629 897.2436 L 346.66572 873.29844 Z M 175.85801 871.50232 L 175.85801 901.10017 L 204.00724 910.24641 L 221.40443 886.30125 L 204.00724 862.35608 Z M 230.3487 853.79722 L 230.3487 883.39508 L 258.49793 892.54131 L 275.89511 868.59615 L 258.49793 844.65099 Z" stroke-miterlimit="10"/><path fill="#222222" stroke="#cccccc" paint-order="fill stroke markers" d=" M 642.63401 867.44024 L 677.17983 878.66486 L 677.17983 903.97743 L 692.05819 883.49913 L 726.60399 894.72374 L 761.14981 883.49913 L 784.97243 916.28816 L 763.62195 945.67458 L 763.62195 981.9982 L 739.54828 989.82021 L 763.62195 997.64222 L 763.62195 1033.96584 L 784.97243 1063.35227 L 761.14981 1096.14129 L 726.60399 1084.91668 L 692.05819 1096.14129 L 677.17983 1075.663 L 677.17983 1100.97556 L 642.63402 1112.20018 L 621.28353 1141.5866 L 582.73772 1129.06231 L 582.73772 1092.73868 L 561.38723 1063.35227 L 576.26558 1042.87398 L 552.19191 1050.69598 L 530.84141 1021.30956 L 496.2956 1010.08495 L 496.2956 969.55548 L 530.84142 958.33086 L 552.19191 928.94444 L 576.26558 936.76644 L 561.38723 916.28816 L 582.73772 886.90174 L 582.73772 850.57812 L 621.28353 838.05382 Z M 590.73772 1094.34518 L 590.73772 1123.24997 L 618.22781 1132.18203 L 635.21761 1108.79758 L 618.22781 1085.41312 Z M 621.28353 1050.69598 L 588.26558 1039.9678 L 571.27577 1063.35227 L 588.26558 1086.73672 L 621.28353 1076.00855 L 641.68974 1104.09529 L 669.17983 1095.16322 L 669.17983 1066.25844 L 638.92581 1056.42831 L 638.50437 1056.20289 L 638.0599 1056.02727 L 637.88761 1055.87299 L 637.68366 1055.7639 L 637.36651 1055.40636 L 637.01048 1055.08755 L 636.90235 1054.88309 L 636.74887 1054.71007 L 636.57533 1054.26475 L 636.3519 1053.84229 L 636.31266 1053.59075 L 636.23737 1053.39754 L 636.23163 1053.07126 L 636.16188 1052.62408 L 636.16188 1030.21769 Z M 709.43385 1020.2581 L 709.08924 1020.58924 L 708.78486 1020.9577 L 708.58488 1021.07389 L 708.41811 1021.23414 L 707.98007 1021.42528 L 707.56684 1021.66537 L 707.33898 1021.70503 L 707.127 1021.79753 L 706.64989 1021.82497 L 706.17902 1021.90692 L 705.92762 1021.8665 L 705.72065 1021.8784 L 705.40862 1021.78305 L 704.96171 1021.71119 L 683.65197 1014.78724 L 698.53032 1035.26552 L 678.1241 1063.35227 L 695.11391 1086.73672 L 722.604 1077.80466 L 722.604 1043.08753 L 755.62195 1032.35935 L 755.62195 1003.45456 L 728.13186 994.52249 Z M 730.604 1048.89987 L 730.604 1077.80466 L 758.09409 1086.73672 L 775.08389 1063.35227 L 758.09408 1039.9678 Z M 644.16188 1020.81313 L 644.16188 1049.71791 L 671.65197 1058.64998 L 688.64178 1035.26552 L 671.65197 1011.88106 Z M 538.25782 961.73347 L 558.66404 989.82021 L 538.25782 1017.90696 L 555.24763 1041.29141 L 582.73772 1032.35935 L 582.73772 1000.54839 L 582.82188 1000.07792 L 582.85155 999.60093 L 582.94505 999.38938 L 582.98577 999.16172 L 583.2278 998.7496 L 583.42099 998.31248 L 583.58201 998.14648 L 583.69914 997.94703 L 584.06904 997.64437 L 584.40178 997.30133 L 584.62891 997.18627 L 584.78938 997.05497 L 585.09788 996.9487 L 585.50165 996.74416 L 606.81138 989.82021 L 582.73772 981.9982 L 582.73772 947.28107 L 555.24763 938.34901 Z M 590.73772 1003.45456 L 590.73772 1032.35935 L 618.22781 1041.29141 L 635.21761 1017.90696 L 618.22781 994.52249 Z M 504.2956 975.36782 L 504.2956 1004.27261 L 531.78569 1013.20467 L 548.7755 989.82021 L 531.78569 966.43575 Z M 624.69994 989.82021 L 641.68974 1013.20467 L 669.17983 1004.27261 L 669.17983 975.36782 L 641.68974 966.43575 Z M 677.17983 975.36782 L 677.17983 1004.27261 L 704.66992 1013.20467 L 721.65973 989.82021 L 704.66992 966.43576 Z M 590.73772 947.28107 L 590.73772 976.18586 L 618.22781 985.11793 L 635.21761 961.73347 L 618.22781 938.34901 Z M 678.1241 916.28816 L 696.82212 942.02376 L 697.03056 942.45383 L 697.28693 942.85717 L 697.33563 943.08326 L 697.43651 943.29139 L 697.48294 943.76706 L 697.58358 944.23426 L 697.55088 944.46323 L 697.57335 944.69341 L 697.452 945.15565 L 697.38444 945.62879 L 697.26831 945.85539 L 697.21567 946.05592 L 697.02856 946.32322 L 696.82212 946.72604 L 683.65197 964.85319 L 707.72564 957.03119 L 728.13186 985.11793 L 755.62195 976.18586 L 755.62195 947.28107 L 722.604 936.55289 L 722.604 901.83576 L 695.11391 892.9037 Z M 644.16188 929.92251 L 644.16188 958.8273 L 671.65197 967.75937 L 688.64178 944.3749 L 671.65197 920.99045 Z M 621.28353 903.63187 L 588.26558 892.9037 L 571.27577 916.28816 L 588.26558 939.67262 L 618.5196 929.84249 L 618.99303 929.77715 L 619.45586 929.65797 L 619.68595 929.68152 L 619.91505 929.6499 L 620.38177 929.75273 L 620.85722 929.80139 L 621.06486 929.90323 L 621.29074 929.953 L 621.69287 930.21125 L 622.12196 930.42171 L 622.30158 930.60218 L 622.47603 930.71421 L 622.67242 930.97476 L 622.99174 931.29558 L 636.16188 949.42273 L 636.16188 924.11017 L 669.17983 913.38199 L 669.17983 884.4772 L 641.68974 875.54513 Z M 730.604 901.83576 L 730.604 930.74055 L 758.09408 939.67262 L 775.08389 916.28816 L 758.09409 892.9037 Z M 590.73772 856.39046 L 590.73772 885.29524 L 618.22781 894.2273 L 635.21761 870.84285 L 618.22781 847.45839 Z" stroke-miterlimit="10"/><path fill="#222222" stroke="#cccccc" paint-order="fill stroke markers" d=" M 288.35031 1225.04891 L 288.35031 1250.67197 L 307.19143 1256.79381 L 322.25229 1236.06433 L 352.14912 1245.7784 L 352.14912 1277.2138 L 327.78015 1285.13176 L 327.78015 1310.75482 L 301.8833 1319.16922 L 289.29458 1336.4961 L 300.93903 1352.5233 L 321.30802 1345.90502 L 337.31314 1323.87586 L 361.68212 1331.79381 L 376.74298 1311.06433 L 406.63981 1320.7784 L 406.63981 1349.30763 L 406.55565 1349.7781 L 406.52598 1350.25509 L 406.43248 1350.46664 L 406.39176 1350.6943 L 406.14973 1351.10642 L 405.95654 1351.54354 L 405.79552 1351.70954 L 405.67839 1351.90899 L 405.30849 1352.21165 L 404.97575 1352.55469 L 404.74862 1352.66975 L 404.58815 1352.80105 L 404.27965 1352.90732 L 403.87588 1353.11186 L 382.27084 1360.13176 L 382.27084 1379.94248 L 406.63981 1387.86044 L 406.63981 1419.29584 L 376.74298 1429.00991 L 361.68212 1408.28043 L 337.31314 1416.19838 L 321.30802 1394.16922 L 300.93903 1387.55094 L 289.29458 1403.57814 L 301.8833 1420.90502 L 327.78015 1429.31942 L 327.78015 1454.94248 L 352.14912 1462.86044 L 352.14912 1494.29584 L 322.25229 1504.00991 L 307.19143 1483.28043 L 288.35031 1489.40227 L 288.35031 1515.02533 L 258.45348 1524.7394 L 239.97621 1499.30763 L 255.03707 1478.57814 L 239.97621 1457.84865 L 255.98134 1435.81948 L 255.98134 1414.40227 L 237.14022 1408.28043 L 224.5515 1425.60731 L 224.5515 1452.83686 L 200.18253 1460.75482 L 200.18253 1486.37788 L 170.28569 1496.09195 L 151.80842 1470.66018 L 166.86928 1449.93069 L 155.22483 1433.90349 L 130.85585 1441.82144 L 112.37859 1416.38967 L 130.85585 1390.9579 L 155.22483 1398.87585 L 170.28569 1378.14637 L 196.18253 1386.56076 L 216.5515 1379.94248 L 216.5515 1360.13176 L 196.18253 1353.51348 L 170.28569 1361.92787 L 155.22483 1341.19839 L 130.85585 1349.11634 L 112.37859 1323.68457 L 130.85585 1298.2528 L 155.22483 1306.17076 L 166.86928 1290.14356 L 151.80842 1269.41406 L 170.28569 1243.98229 L 200.18253 1253.69637 L 200.18253 1279.31942 L 224.5515 1287.23739 L 224.5515 1314.46693 L 237.14022 1331.79381 L 255.98134 1325.67197 L 255.98134 1304.25476 L 239.97621 1282.22559 L 255.03707 1261.4961 L 239.97621 1240.76661 L 258.45348 1215.33484 Z M 287.58638 1447.38826 L 287.24177 1447.7194 L 286.93739 1448.08786 L 286.73741 1448.20405 L 286.57064 1448.3643 L 286.1326 1448.55544 L 285.71937 1448.79553 L 285.49151 1448.83519 L 285.27953 1448.92769 L 284.80242 1448.95513 L 284.33155 1449.03708 L 284.08015 1448.99666 L 283.87318 1449.00856 L 283.56115 1448.91321 L 283.11424 1448.84135 L 261.5092 1441.82145 L 249.86475 1457.84865 L 264.92561 1478.57814 L 249.86475 1499.30763 L 261.5092 1515.33483 L 280.35031 1509.21299 L 280.35031 1483.58993 L 310.24715 1473.87586 L 325.30801 1494.60534 L 344.14912 1488.4835 L 344.14912 1468.67278 L 319.78015 1460.75482 L 319.78015 1435.13176 L 300.93904 1429.00991 Z M 158.28055 1408.28042 L 133.91157 1400.36247 L 122.26713 1416.38967 L 133.91157 1432.41687 L 158.28055 1424.49892 L 176.75782 1449.93069 L 161.69696 1470.66018 L 173.34141 1486.68738 L 192.18253 1480.56554 L 192.18253 1454.94248 L 216.5515 1447.02452 L 216.5515 1427.2138 L 194.94646 1420.1939 L 194.52502 1419.96848 L 194.08055 1419.79286 L 193.90826 1419.63858 L 193.70431 1419.52949 L 193.38716 1419.17195 L 193.03113 1418.85314 L 192.923 1418.64868 L 192.76952 1418.47566 L 192.59598 1418.03034 L 192.37255 1417.60788 L 192.33331 1417.35634 L 192.25802 1417.16313 L 192.25228 1416.83685 L 192.18253 1416.38967 L 192.18253 1393.67278 L 173.34141 1387.55094 Z M 263.98134 1305.86125 L 263.98134 1331.48431 L 234.0845 1341.19838 L 219.02364 1320.4689 L 200.18253 1326.59074 L 200.18253 1346.40146 L 224.5515 1354.31942 L 224.5515 1385.75482 L 200.18253 1393.67278 L 200.18253 1413.4835 L 219.02364 1419.60534 L 234.0845 1398.87586 L 263.98134 1408.58993 L 263.98134 1434.21299 L 282.82245 1440.33483 L 294.4669 1424.30763 L 279.40604 1403.57814 L 297.88331 1378.14637 L 322.25228 1386.06433 L 333.89673 1370.03712 L 322.25228 1354.00991 L 297.88331 1361.92787 L 279.40604 1336.4961 L 294.4669 1315.76661 L 282.82245 1299.73941 Z M 364.73784 1341.19838 L 340.36886 1333.28043 L 328.72442 1349.30763 L 342.07707 1367.68598 L 342.28551 1368.11604 L 342.54188 1368.51939 L 342.59059 1368.74549 L 342.69146 1368.95362 L 342.73788 1369.42927 L 342.83853 1369.89648 L 342.80583 1370.12545 L 342.8283 1370.35563 L 342.70695 1370.81788 L 342.63939 1371.29101 L 342.52327 1371.5176 L 342.47062 1371.71815 L 342.28349 1371.98547 L 342.07707 1372.38826 L 328.72442 1390.76661 L 340.36886 1406.79381 L 364.73784 1398.87586 L 379.7987 1419.60534 L 398.63981 1413.4835 L 398.63981 1393.67278 L 374.27084 1385.75482 L 374.27084 1354.31942 L 398.63981 1346.40146 L 398.63981 1326.59074 L 379.7987 1320.4689 Z M 161.69696 1269.41406 L 176.75782 1290.14356 L 158.28055 1315.57533 L 133.91157 1307.65737 L 122.26713 1323.68457 L 133.91157 1339.71177 L 158.28055 1331.79382 L 173.34141 1352.5233 L 192.18253 1346.40146 L 192.18253 1323.68457 L 192.26669 1323.2141 L 192.29636 1322.73711 L 192.38986 1322.52556 L 192.43058 1322.2979 L 192.67261 1321.88578 L 192.8658 1321.44866 L 193.02682 1321.28266 L 193.14395 1321.08321 L 193.51385 1320.78055 L 193.84659 1320.43751 L 194.07372 1320.32245 L 194.23419 1320.19115 L 194.54269 1320.08488 L 194.94646 1319.88034 L 216.5515 1312.86044 L 216.5515 1293.04973 L 192.18253 1285.13176 L 192.18253 1259.50871 L 173.34141 1253.38686 Z M 249.86475 1240.76661 L 264.92561 1261.4961 L 249.86475 1282.22559 L 261.5092 1298.25279 L 283.11424 1291.23289 L 283.58766 1291.16755 L 284.0505 1291.04837 L 284.28059 1291.07192 L 284.50969 1291.0403 L 284.97641 1291.14313 L 285.45186 1291.19179 L 285.6595 1291.29363 L 285.88538 1291.3434 L 286.28751 1291.60165 L 286.7166 1291.81211 L 286.89622 1291.99258 L 287.07067 1292.10461 L 287.26706 1292.36516 L 287.58638 1292.68598 L 300.93904 1311.06433 L 319.78015 1304.94248 L 319.78015 1279.31942 L 344.14912 1271.40146 L 344.14912 1251.59074 L 325.30801 1245.4689 L 310.24715 1266.19838 L 280.35031 1256.48431 L 280.35031 1230.86125 L 261.5092 1224.73941 Z" stroke-miterlimit="10"/><path fill="#222222" stroke="#cccccc" paint-order="fill stroke markers" d=" M 697.39888 1230.8082 L 697.39888 1267.13182 L 718.74936 1296.51825 L 703.87102 1316.99654 L 727.94469 1309.17453 L 749.29517 1338.56094 L 783.84099 1349.78557 L 783.84099 1390.31503 L 749.29517 1401.53966 L 727.94469 1430.92607 L 703.87101 1423.10406 L 718.74936 1443.58235 L 697.39888 1472.96878 L 697.39888 1509.2924 L 658.85307 1521.81669 L 637.50258 1492.43027 L 602.95676 1481.20565 L 602.95676 1455.89309 L 588.07841 1476.37138 L 553.5326 1465.14677 L 518.98679 1476.37138 L 495.16416 1443.58235 L 516.51465 1414.19593 L 516.51465 1377.87231 L 540.58832 1370.0503 L 516.51465 1362.22829 L 516.51465 1325.90467 L 495.16416 1296.51825 L 518.98679 1263.72922 L 553.5326 1274.95383 L 588.07841 1263.72922 L 602.95676 1284.20751 L 602.95676 1258.89495 L 637.50258 1247.67033 L 658.85307 1218.28391 Z M 644.91898 1489.02766 L 661.90879 1512.41212 L 689.39888 1503.48006 L 689.39888 1474.57527 L 661.90879 1465.64321 Z M 610.95676 1446.48852 L 610.95676 1475.39331 L 638.44684 1484.32538 L 655.43666 1460.94092 L 638.44684 1437.55645 Z M 505.0527 1443.58235 L 522.04251 1466.96681 L 549.5326 1458.03475 L 549.5326 1429.12996 L 522.04251 1420.1979 Z M 557.5326 1429.12996 L 557.5326 1458.03475 L 585.02269 1466.96681 L 602.01249 1443.58235 L 585.02269 1420.19789 Z M 664.38093 1429.12996 L 664.38093 1458.03475 L 691.87102 1466.96681 L 708.86082 1443.58235 L 691.87102 1420.1979 Z M 643.97471 1431.55449 L 656.38093 1448.63018 L 656.38093 1427.52346 L 643.97471 1410.44778 Z M 591.49482 1415.49561 L 608.48462 1438.88006 L 635.97471 1429.948 L 635.97471 1401.04322 L 608.48462 1392.11114 Z M 644.91898 1398.13705 L 661.90879 1421.5215 L 689.39888 1412.58944 L 689.39888 1383.68465 L 661.90879 1374.75259 Z M 697.39888 1383.68465 L 697.39888 1412.58944 L 724.88897 1421.5215 L 741.87877 1398.13705 L 724.88897 1374.75259 Z M 524.51465 1383.68465 L 524.51465 1412.58944 L 552.00474 1421.5215 L 568.99454 1398.13704 L 552.00474 1374.75258 Z M 576.41095 1401.53965 L 564.00474 1418.61533 L 584.07842 1412.093 L 596.48462 1395.01732 Z M 610.95676 1355.59791 L 610.95676 1384.50269 L 638.44685 1393.43477 L 655.43666 1370.0503 L 638.44685 1346.66584 Z M 731.3611 1370.0503 L 748.35091 1393.43477 L 775.84099 1384.50269 L 775.84099 1355.59791 L 748.35091 1346.66583 Z M 558.47687 1370.0503 L 575.46667 1393.43476 L 602.95676 1384.50269 L 602.95676 1355.59791 L 575.46667 1346.66584 Z M 673.32521 1370.0503 L 693.39889 1376.57263 L 713.47255 1370.0503 L 693.39888 1363.52797 Z M 524.51465 1327.51116 L 524.51465 1356.41595 L 552.00474 1365.34802 L 568.99454 1341.96355 L 552.00474 1318.5791 Z M 644.91898 1341.96355 L 661.90879 1365.34801 L 689.39888 1356.41595 L 689.39888 1327.51116 L 661.90879 1318.5791 Z M 697.39888 1327.51116 L 697.39888 1356.41595 L 724.88897 1365.34801 L 741.87877 1341.96355 L 724.88897 1318.5791 Z M 591.49482 1324.60499 L 608.48462 1347.98946 L 635.97471 1339.05738 L 635.97471 1310.1526 L 608.48462 1301.22054 Z M 576.41095 1338.56095 L 596.48462 1345.08328 L 584.07842 1328.0076 L 564.00474 1321.48527 Z M 643.97471 1308.54611 L 643.97471 1329.65282 L 656.38093 1312.57714 L 656.38093 1291.47042 Z M 557.5326 1282.06585 L 557.5326 1310.97064 L 585.02269 1319.90271 L 602.01249 1296.51825 L 585.02269 1273.13379 Z M 664.38093 1282.06585 L 664.38093 1310.97064 L 691.87102 1319.90271 L 708.86082 1296.51825 L 691.87102 1273.13379 Z M 505.0527 1296.51825 L 522.04251 1319.9027 L 549.5326 1310.97064 L 549.5326 1282.06585 L 522.04251 1273.13379 Z M 610.95676 1264.70729 L 610.95676 1293.61208 L 638.44684 1302.54415 L 655.43666 1279.15968 L 638.44684 1255.77522 Z M 644.91898 1251.07294 L 661.90879 1274.4574 L 689.39888 1265.52533 L 689.39888 1236.62054 L 661.90879 1227.68848 Z" stroke-miterlimit="10"/></g></svg>