<svg version="1.1" xmlns="http://www.w3.org/2000/svg" xmlns:xlink="http://www.w3.org/1999/xlink" width="900" height="900"><defs/><g><path fill="#222222" stroke="#cccccc" paint-order="fill stroke markers" d=" M 352.98699 282.24957 L 355.89115 282.99134 L 358.63195 284.20476 L 361.13339 285.85618 L 363.3261 287.8998 L 365.14929 290.27894 L 366.5524 292.92766 L 367.49652 295.77248 L 367.95546 298.73453 L 367.91651 301.73167 L 367.38074 304.68079 L 366.36301 307.50012 L 364.89155 310.11147 L 363.00714 312.44244 L 360.76206 314.42838 L 358.21854 316.01423 L 355.44713 317.15601 L 352.52468 317.82206 L 350 318 L 318 318 L 318 332 L 432 332 L 432 318 L 400 318 L 397.01301 317.75043 L 394.10885 317.00866 L 391.36805 315.79524 L 388.86661 314.14382 L 386.6739 312.1002 L 384.85071 309.72106 L 383.4476 307.07234 L 382.50348 304.22752 L 382.04454 301.26547 L 382.08349 298.26833 L 382.61926 295.31921 L 383.63699 292.49988 L 385.10845 289.88853 L 386.99286 287.55756 L 389.23794 285.57162 L 391.78146 283.98577 L 394.55287 282.84399 L 397.47532 282.17794 L 400 282 L 500 282 L 500.86435 282.07222 L 501.73167 282.08349 L 502.35535 282.1968 L 502.98699 282.24957 L 503.82739 282.46422 L 504.68079 282.61926 L 505.27695 282.83446 L 505.89115 282.99134 L 506.68437 283.34252 L 507.50012 283.63699 L 508.05229 283.94813 L 508.63195 284.20476 L 509.35584 284.68266 L 510.11147 285.10845 L 510.60441 285.50695 L 511.13339 285.85618 L 511.76789 286.44754 L 512.44244 286.99286 L 512.86245 287.46767 L 513.3261 287.8998 L 513.85364 288.5882 L 514.42838 289.23794 L 514.76376 289.77584 L 515.14929 290.27894 L 515.55531 291.04541 L 516.01423 291.78146 L 516.25568 292.36754 L 516.5524 292.92766 L 516.82562 293.75092 L 517.15601 294.55287 L 517.29685 295.17083 L 517.49652 295.77248 L 517.62934 296.62972 L 517.82206 297.47532 L 517.87355 298.20587 L 517.95546 298.73453 L 517.94851 299.26942 L 518 300 L 518 350 L 517.75043 352.98699 L 517.00866 355.89115 L 515.79524 358.63195 L 514.14382 361.13339 L 512.1002 363.3261 L 509.72106 365.14929 L 507.07234 366.5524 L 504.22752 367.49652 L 501.26547 367.95546 L 498.26833 367.91651 L 495.31921 367.38074 L 492.49988 366.36301 L 489.88853 364.89155 L 487.55756 363.00714 L 485.57162 360.76206 L 483.98577 358.21854 L 482.84399 355.44713 L 482.17794 352.52468 L 482 350 L 482 318 L 468 318 L 468 382 L 532 382 L 532 300 L 532.24957 297.01301 L 532.99134 294.10885 L 534.20476 291.36805 L 535.85618 288.86661 L 537.8998 286.6739 L 540.27894 284.85071 L 542.92766 283.4476 L 545.77248 282.50348 L 548.73453 282.04454 L 551.73167 282.08349 L 554.68079 282.61926 L 557.50012 283.63699 L 560.11147 285.10845 L 562.44244 286.99286 L 564.42838 289.23794 L 566.01423 291.78146 L 567.15601 294.55287 L 567.82206 297.47532 L 568 300 L 568 332 L 582 332 L 582 300 L 582.24957 297.01301 L 582.99134 294.10885 L 584.20476 291.36805 L 585.85618 288.86661 L 587.8998 286.6739 L 590.27894 284.85071 L 592.92766 283.4476 L 595.77248 282.50348 L 598.73453 282.04454 L 601.73167 282.08349 L 604.68079 282.61926 L 607.50012 283.63699 L 610.11147 285.10845 L 612.44244 286.99286 L 614.42838 289.23794 L 616.01423 291.78146 L 617.15601 294.55287 L 617.82206 297.47532 L 618 300 L 618 350 L 617.75043 352.98699 L 617.00866 355.89115 L 615.79524 358.63195 L 614.14382 361.13339 L 612.1002 363.3261 L 609.72106 365.14929 L 607.07234 366.5524 L 604.22752 367.49652 L 600 368 L 568 368 L 568 382 L 600 382 L 602.98699 382.24957 L 605.89115 382.99134 L 608.63195 384.20476 L 611.13339 385.85618 L 613.3261 387.8998 L 615.14929 390.27894 L 616.5524 392.92766 L 617.49652 395.77248 L 618 400 L 618 450 L 617.75043 452.98699 L 617.00866 455.89115 L 615.79524 458.63195 L 614.14382 461.13339 L 612.1002 463.3261 L 609.72106 465.14929 L 607.07234 466.5524 L 604.22752 467.49652 L 601.26547 467.95546 L 598.26833 467.91651 L 595.31921 467.38074 L 592.49988 466.36301 L 589.88853 464.89155 L 587.55756 463.00714 L 585.57162 460.76206 L 583.98577 458.21854 L 582.84399 455.44713 L 582.17794 452.52468 L 582 450 L 582 418 L 468 418 L 468 432 L 500 432 L 502.98699 432.24957 L 505.89115 432.99134 L 508.63195 434.20476 L 511.13339 435.85618 L 513.3261 437.8998 L 515.14929 440.27894 L 516.5524 442.92766 L 517.49652 445.77248 L 518 450 L 518 482 L 532 482 L 532 450 L 532.24957 447.01301 L 532.99134 444.10885 L 534.20476 441.36805 L 535.85618 438.86661 L 537.8998 436.6739 L 540.27894 434.85071 L 542.92766 433.4476 L 545.77248 432.50348 L 548.73453 432.04454 L 551.73167 432.08349 L 554.68079 432.61926 L 557.50012 433.63699 L 560.11147 435.10845 L 562.44244 436.99286 L 564.42838 439.23794 L 566.01423 441.78146 L 567.15601 444.55287 L 567.82206 447.47532 L 568 450 L 568 482 L 600 482 L 602.98699 482.24957 L 605.89115 482.99134 L 608.63195 484.20476 L 611.13339 485.85618 L 613.3261 487.8998 L 615.14929 490.27894 L 616.5524 492.92766 L 617.49652 495.77248 L 618 500 L 618 600 L 617.75043 602.98699 L 617.00866 605.89115 L 615.79524 608.63195 L 614.14382 611.13339 L 612.1002 613.3261 L 609.72106 615.14929 L 607.07234 616.5524 L 604.22752 617.49652 L 600 618 L 550 618 L 547.01301 617.75043 L 544.10885 617.00866 L 541.36805 615.79524 L 538.86661 614.14382 L 536.6739 612.1002 L 534.85071 609.72106 L 533.4476 607.07234 L 532.50348 604.22752 L 532.04454 601.26547 L 532.08349 598.26833 L 532.61926 595.31921 L 533.63699 592.49988 L 535.10845 589.88853 L 536.99286 587.55756 L 539.23794 585.57162 L 541.78146 583.98577 L 544.55287 582.84399 L 547.47532 582.17794 L 550 582 L 582 582 L 582 518 L 518 518 L 518 532 L 550 532 L 552.98699 532.24957 L 555.89115 532.99134 L 558.63195 534.20476 L 561.13339 535.85618 L 563.3261 537.8998 L 565.14929 540.27894 L 566.5524 542.92766 L 567.49652 545.77248 L 567.95546 548.73453 L 567.91651 551.73167 L 567.38074 554.68079 L 566.36301 557.50012 L 564.89155 560.11147 L 563.00714 562.44244 L 560.76206 564.42838 L 558.21854 566.01423 L 555.44713 567.15601 L 552.52468 567.82206 L 550 568 L 518 568 L 518 600 L 517.75043 602.98699 L 517.00866 605.89115 L 515.79524 608.63195 L 514.14382 611.13339 L 512.1002 613.3261 L 509.72106 615.14929 L 507.07234 616.5524 L 504.22752 617.49652 L 501.26547 617.95546 L 498.26833 617.91651 L 495.31921 617.38074 L 492.49988 616.36301 L 489.88853 614.89155 L 487.55756 613.00714 L 485.57162 610.76206 L 483.98577 608.21854 L 482.84399 605.44713 L 482.17794 602.52468 L 482 600 L 482 468 L 450 468 L 449.13565 467.92778 L 448.26833 467.91651 L 447.64465 467.8032 L 447.01301 467.75043 L 446.17261 467.53578 L 445.31921 467.38074 L 444.72305 467.16554 L 444.10885 467.00866 L 443.31563 466.65748 L 442.49988 466.36301 L 441.94771 466.05187 L 441.36805 465.79524 L 440.64416 465.31734 L 439.88853 464.89155 L 439.39559 464.49305 L 438.86661 464.14382 L 438.23211 463.55246 L 437.55756 463.00714 L 437.13755 462.53233 L 436.6739 462.1002 L 436.14636 461.4118 L 435.57162 460.76206 L 435.23624 460.22416 L 434.85071 459.72106 L 434.44469 458.95459 L 433.98577 458.21854 L 433.74432 457.63246 L 433.4476 457.07234 L 433.17438 456.24908 L 432.84399 455.44713 L 432.70315 454.82917 L 432.50348 454.22752 L 432.37066 453.37028 L 432.17794 452.52468 L 432.12645 451.79413 L 432.04454 451.26547 L 432.05149 450.73058 L 432 450 L 432 368 L 418 368 L 418 482 L 450 482 L 452.98699 482.24957 L 455.89115 482.99134 L 458.63195 484.20476 L 461.13339 485.85618 L 463.3261 487.8998 L 465.14929 490.27894 L 466.5524 492.92766 L 467.49652 495.77248 L 467.95546 498.73453 L 467.91651 501.73167 L 467.38074 504.68079 L 466.36301 507.50012 L 464.89155 510.11147 L 463.00714 512.44244 L 460.76206 514.42838 L 458.21854 516.01423 L 455.44713 517.15601 L 452.52468 517.82206 L 450 518 L 418 518 L 418 532 L 450 532 L 452.98699 532.24957 L 455.89115 532.99134 L 458.63195 534.20476 L 461.13339 535.85618 L 463.3261 537.8998 L 465.14929 540.27894 L 466.5524 542.92766 L 467.49652 545.77248 L 467.95546 548.73453 L 467.91651 551.73167 L 467.38074 554.68079 L 466.36301 557.50012 L 464.89155 560.11147 L 463.00714 562.44244 L 460.76206 564.42838 L 458.21854 566.01423 L 455.44713 567.15601 L 452.52468 567.82206 L 450 568 L 418 568 L 418 582 L 450 582 L 452.98699 582.24957 L 455.89115 582.99134 L 458.63195 584.20476 L 461.13339 585.85618 L 463.3261 587.8998 L 465.14929 590.27894 L 466.5524 592.92766 L 467.49652 595.77248 L 467.95546 598.73453 L 467.91651 601.73167 L 467.38074 604.68079 L 466.36301 607.50012 L 464.89155 610.11147 L 463.00714 612.44244 L 460.76206 614.42838 L 458.21854 616.01423 L 455.44713 617.15601 L 452.52468 617.82206 L 450 618 L 350 618 L 347.01301 617.75043 L 344.10885 617.00866 L 341.36805 615.79524 L 338.86661 614.14382 L 336.6739 612.1002 L 334.85071 609.72106 L 333.4476 607.07234 L 332.50348 604.22752 L 332.04454 601.26547 L 332.08349 598.26833 L 332.61926 595.31921 L 333.63699 592.49988 L 335.10845 589.88853 L 336.99286 587.55756 L 339.23794 585.57162 L 341.78146 583.98577 L 344.55287 582.84399 L 347.47532 582.17794 L 350 582 L 382 582 L 382 468 L 368 468 L 368 500 L 367.75043 502.98699 L 367.00866 505.89115 L 365.79524 508.63195 L 364.14382 511.13339 L 362.1002 513.3261 L 359.72106 515.14929 L 357.07234 516.5524 L 354.22752 517.49652 L 351.26547 517.95546 L 348.26833 517.91651 L 345.31921 517.38074 L 342.49988 516.36301 L 339.88853 514.89155 L 337.55756 513.00714 L 335.57162 510.76206 L 333.98577 508.21854 L 332.84399 505.44713 L 332.17794 502.52468 L 332 500 L 332 468 L 318 468 L 318 532 L 350 532 L 352.98699 532.24957 L 355.89115 532.99134 L 358.63195 534.20476 L 361.13339 535.85618 L 363.3261 537.8998 L 365.14929 540.27894 L 366.5524 542.92766 L 367.49652 545.77248 L 367.95546 548.73453 L 367.91651 551.73167 L 367.38074 554.68079 L 366.36301 557.50012 L 364.89155 560.11147 L 363.00714 562.44244 L 360.76206 564.42838 L 358.21854 566.01423 L 355.44713 567.15601 L 352.52468 567.82206 L 350 568 L 318 568 L 318 600 L 317.75043 602.98699 L 317.00866 605.89115 L 315.79524 608.63195 L 314.14382 611.13339 L 312.1002 613.3261 L 309.72106 615.14929 L 307.07234 616.5524 L 304.22752 617.49652 L 301.26547 617.95546 L 298.26833 617.91651 L 295.31921 617.38074 L 292.49988 616.36301 L 289.88853 614.89155 L 287.55756 613.00714 L 285.57162 610.76206 L 283.98577 608.21854 L 282.84399 605.44713 L 282.17794 602.52468 L 282 600 L 282 450 L 282.24957 447.01301 L 282.99134 444.10885 L 284.20476 441.36805 L 285.85618 438.86661 L 287.8998 436.6739 L 290.27894 434.85071 L 292.92766 433.4476 L 295.77248 432.50348 L 300 432 L 382 432 L 382 368 L 368 368 L 368 400 L 367.75043 402.98699 L 367.00866 405.89115 L 365.79524 408.63195 L 364.14382 411.13339 L 362.1002 413.3261 L 359.72106 415.14929 L 357.07234 416.5524 L 354.22752 417.49652 L 350 418 L 300 418 L 297.01301 417.75043 L 294.10885 417.00866 L 291.36805 415.79524 L 288.86661 414.14382 L 286.6739 412.1002 L 284.85071 409.72106 L 283.4476 407.07234 L 282.50348 404.22752 L 282.04454 401.26547 L 282.08349 398.26833 L 282.61926 395.31921 L 283.63699 392.49988 L 285.10845 389.88853 L 286.99286 387.55756 L 289.23794 385.57162 L 291.78146 383.98577 L 294.55287 382.84399 L 297.47532 382.17794 L 300 382 L 332 382 L 332 368 L 300 368 L 297.01301 367.75043 L 294.10885 367.00866 L 291.36805 365.79524 L 288.86661 364.14382 L 286.6739 362.1002 L 284.85071 359.72106 L 283.4476 357.07234 L 282.50348 354.22752 L 282 350 L 282 300 L 282.24957 297.01301 L 282.99134 294.10885 L 284.20476 291.36805 L 285.85618 288.86661 L 287.8998 286.6739 L 290.27894 284.85071 L 292.92766 283.4476 L 295.77248 282.50348 L 300 282 L 350 282 Z" stroke-miterlimit="10"/></g></svg>