<svg version="1.1" xmlns="http://www.w3.org/2000/svg" xmlns:xlink="http://www.w3.org/1999/xlink" width="900" height="900"><defs/><g><rect fill="#000000" stroke="none" x="0" y="0" width="900" height="900"/><path fill="none" stroke="cyan" paint-order="fill stroke markers" d=" M 280.8779091658342 218.50759849805556 L 300.8226790851601 245.959219222973 L 290.85029412549716 259.68502958543183 L 274.7146363118642 254.44223655010808 L 264.74225135220127 268.1680469125668 L 248.60659353856832 262.9252538772431 L 248.60659353856832 245.95921922297305 L 264.74225135220127 240.71642618764932 L 264.74225135220127 223.7503915333793 L 280.8779091658342 218.50759849805556 L 280.8779091658342 201.54156384378558 L 264.74225135220127 196.29877080846185 L 264.74225135220127 179.3327361541918 L 248.60659353856832 174.08994311886806 L 248.60659353856832 157.12390846459803 L 264.74225135220127 151.8811154292743 L 274.7146363118642 165.60692579173303 L 290.85029412549716 160.36413275640933 L 300.8226790851601 174.08994311886806 L 300.8226790851601 191.05597777313798" stroke-miterlimit="10" stroke-width="0.5"/><path fill="none" stroke="cyan" paint-order="fill stroke markers" d=" M 300.8226790851601 174.08994311886806 L 280.8779091658342 201.54156384378553" stroke-miterlimit="10" stroke-width="0.5"/><path fill="none" stroke="cyan" paint-order="fill stroke markers" d=" M 333.0939947124259 174.089943118868 L 316.958336898793 196.2987708084617 L 290.85029412549716 187.81575348132677 L 306.98595193913 210.02458117092053 L 333.0939947124259 201.54156384378555 L 316.958336898793 223.75039153337923 L 316.958336898793 196.29877080846174 L 333.0939947124259 218.50759849805556 L 306.98595193913 210.02458117092056" stroke-miterlimit="10" stroke-width="0.5"/><path fill="none" stroke="cyan" paint-order="fill stroke markers" d=" M 290.85029412549716 215.2673742062443 L 300.8226790851601 201.54156384378555 L 333.0939947124259 191.055977773138 L 349.2296525260589 196.29877080846177 L 349.2296525260589 223.7503915333793 L 333.0939947124259 228.99318456870304 L 323.121609752763 215.26737420624428 L 323.121609752763 232.23340886051432 L 306.98595193913 237.47620189583805 L 290.85029412549716 215.2673742062443" stroke-miterlimit="10" stroke-width="0.5"/><path fill="none" stroke="cyan" paint-order="fill stroke markers" d=" M 343.0663796720889 232.23340886051437 L 316.958336898793 240.71642618764932 L 306.98595193913 226.99061582519056 L 306.98595193913 193.0585465166505 L 316.958336898793 179.33273615419176 L 343.0663796720889 187.81575348132668 L 343.0663796720889 204.78178813559674 L 326.93072185845597 210.02458117092047 L 343.0663796720889 215.2673742062443 L 343.0663796720889 232.23340886051437" stroke-miterlimit="10" stroke-width="0.5"/><path fill="none" stroke="cyan" paint-order="fill stroke markers" d=" M 333.0939947124259 245.95921922297305 L 316.958336898793 223.75039153337934 L 290.85029412549716 232.23340886051432 L 306.98595193913 210.02458117092053" stroke-miterlimit="10" stroke-width="0.5"/><path fill="none" stroke="cyan" paint-order="fill stroke markers" d=" M 300.8226790851601 228.99318456870307 L 300.8226790851601 245.9592192229731 L 316.958336898793 251.20201225829686 L 349.2296525260589 240.71642618764932 L 359.20203748572186 254.44223655010813 L 349.2296525260589 268.16804691256687 L 359.20203748572186 281.89385727502565 L 349.2296525260589 295.6196676374844 L 333.0939947124259 290.3768746021606 L 333.0939947124259 273.4108399478906 L 316.958336898793 268.16804691256687 L 316.958336898793 251.2020122582968 L 326.93072185845597 237.47620189583807" stroke-miterlimit="10" stroke-width="0.5"/><path fill="none" stroke="cyan" paint-order="fill stroke markers" d=" M 300.8226790851601 201.54156384378555 L 316.958336898793 206.78435687910928 L 306.98595193913 193.05854651665052" stroke-miterlimit="10" stroke-width="0.5"/><path fill="none" stroke="cyan" paint-order="fill stroke markers" d=" M 306.98595193913 226.99061582519056 L 316.958336898793 213.2648054627318 L 300.8226790851601 218.5075984980555 L 290.8502941254971 204.78178813559674 L 306.98595193913 182.572960446003 L 323.121609752763 187.81575348132674 L 343.0663796720889 215.2673742062443" stroke-miterlimit="10" stroke-width="0.5"/><path fill="none" stroke="cyan" paint-order="fill stroke markers" d=" M 333.0939947124259 245.9592192229731 L 333.0939947124259 218.50759849805556 L 359.20203748572186 210.02458117092056" stroke-miterlimit="10" stroke-width="0.5"/><path fill="none" stroke="cyan" paint-order="fill stroke markers" d=" M 349.2296525260589 206.78435687910925 L 359.20203748572186 193.0585465166505 L 375.3376952993547 187.8157534813268 L 385.3100802590177 201.54156384378555 L 401.4457380726506 196.29877080846182 L 411.4181230323136 210.02458117092056 L 401.4457380726506 223.75039153337934 L 385.3100802590177 218.5075984980556 L 375.3376952993547 232.23340886051434 L 359.20203748572186 226.99061582519062 L 359.20203748572186 193.05854651665052 L 349.2296525260589 179.33273615419176 L 316.958336898793 168.84715008354422 L 316.958336898793 151.88111542927425 L 333.0939947124259 146.63832239395052 L 333.0939947124259 129.67228773968046 L 349.2296525260589 124.42949470435673 L 359.20203748572186 138.1553050668155 L 349.2296525260589 151.88111542927425 L 359.20203748572186 165.60692579173298 L 349.2296525260589 179.33273615419174 L 333.0939947124259 184.5755291895155" stroke-miterlimit="10" stroke-width="0.5"/><path fill="none" stroke="cyan" paint-order="fill stroke markers" d=" M 359.20203748572186 226.99061582519062 L 349.2296525260589 240.71642618764938" stroke-miterlimit="10" stroke-width="0.5"/><path fill="none" stroke="cyan" paint-order="fill stroke markers" d=" M 333.0939947124259 228.99318456870304 L 300.8226790851601 218.50759849805547" stroke-miterlimit="10" stroke-width="0.5"/><path fill="none" stroke="cyan" paint-order="fill stroke markers" d=" M 333.0939947124259 174.08994311886795 L 333.0939947124259 201.54156384378555 L 359.2020374857218 210.0245811709205" stroke-miterlimit="10" stroke-width="0.5"/><path fill="none" stroke="cyan" paint-order="fill stroke markers" d=" M 300.8226790851601 174.08994311886804 L 316.958336898793 168.8471500835443" stroke-miterlimit="10" stroke-width="0.5"/><path fill="none" stroke="cyan" paint-order="fill stroke markers" d=" M 297.0135669794671 196.29877080846177 L 280.8779091658342 201.54156384378553" stroke-miterlimit="10" stroke-width="0.5"/><path fill="none" stroke="cyan" paint-order="fill stroke markers" d=" M 280.8779091658342 218.50759849805556 L 297.0135669794671 223.7503915333793" stroke-miterlimit="10" stroke-width="0.5"/><path fill="none" stroke="cyan" paint-order="fill stroke markers" d=" M 323.121609752763 187.81575348132674 L 323.121609752763 204.7817881355968 L 333.0939947124259 191.05597777313804" stroke-miterlimit="10" stroke-width="0.5"/><path fill="none" stroke="cyan" paint-order="fill stroke markers" d=" M 343.0663796720889 204.78178813559674 L 323.121609752763 232.2334088605143" stroke-miterlimit="10" stroke-width="0.5"/><path fill="none" stroke="cyan" paint-order="fill stroke markers" d=" M 333.0939947124259 235.4736331523256 L 349.2296525260589 240.71642618764932" stroke-miterlimit="10" stroke-width="0.5"/><path fill="none" stroke="cyan" paint-order="fill stroke markers" d=" M 359.2020374857218 226.99061582519056 L 349.2296525260589 213.2648054627318" stroke-miterlimit="10" stroke-width="0.5"/><path fill="none" stroke="cyan" paint-order="fill stroke markers" d=" M 326.93072185845597 182.57296044600298 L 316.958336898793 168.84715008354422" stroke-miterlimit="10" stroke-width="0.5"/><path fill="none" stroke="cyan" paint-order="fill stroke markers" d=" M 575.9384705062547 289.32173330265925 L 556.7211762656368 295.56581070973925 L 544.8442352531274 279.2186038296186 L 556.7211762656368 262.871396949498 L 575.9384705062547 269.115474356578 L 575.9384705062547 289.32173330265925 L 595.1557647468726 295.565810709739 L 607.0327057593821 279.21860382961836 L 595.1557647468726 262.871396949498 L 614.3730589874905 269.1154743565779 L 638.1269410125094 236.42106059633647 L 626.25 220.07385371621587 L 626.25 199.8675947701349 L 638.1269410125094 183.52038789001426 L 614.3730589874905 150.82597412977287 L 595.1557647468726 157.07005153685282 L 595.1557647468726 177.27631048293415 L 575.9384705062547 183.5203878900141 L 564.0615294937453 167.17318100989345 L 575.9384705062547 150.82597412977285 L 564.0615294937453 134.4787672496522 L 525.6269410125095 146.9669220638123 L 525.6269410125095 167.17318100989365 L 513.75 150.825974129773 L 494.5327057593821 157.07005153685273 L 494.5327057593821 177.27631048293406 L 513.75 183.5203878900142 L 494.5327057593821 189.76446529709415 L 494.5327057593821 230.17698318925662 L 513.75 236.42106059633653 L 525.6269410125095 220.07385371621592 L 544.8442352531274 226.31793112329586 L 544.8442352531274 246.52419006937723 L 525.6269410125095 252.76826747645714 L 525.6269410125095 272.9745264225384 L 564.0615294937453 285.4626812366986 L 575.9384705062547 269.115474356578 L 564.0615294937453 252.76826747645734 L 575.9384705062547 236.4210605963367 L 595.1557647468726 242.66513800341667 L 595.1557647468726 262.871396949498 L 607.0327057593821 246.52419006937737 L 626.25 252.76826747645734 L 614.3730589874905 236.42106059633667 L 626.25 220.07385371621606 L 645.4672942406179 226.317931123296 L 645.4672942406179 246.52419006937714 L 626.25 252.7682674764571 L 626.25 272.97452642253864 L 607.0327057593821 279.2186038296186" stroke-miterlimit="10" stroke-width="0.5"/><path fill="none" stroke="cyan" paint-order="fill stroke markers" d=" M 626.25 220.0738537162162 L 607.0327057593821 226.31793112329615 L 595.1557647468726 209.97072424317554 L 607.0327057593821 193.62351736305493 L 626.25 199.86759477013487 L 614.3730589874905 183.52038789001426 L 626.25 167.17318100989368 L 607.0327057593821 173.4172584169736 L 595.1557647468726 157.070051536853 L 607.0327057593821 140.72284465673235 L 626.25 146.96692206381212 L 626.25 167.17318100989345 L 645.4672942406179 173.4172584169736 L 645.4672942406179 193.62351736305493 L 626.25 199.86759477013487" stroke-miterlimit="10" stroke-width="0.5"/><path fill="none" stroke="cyan" paint-order="fill stroke markers" d=" M 607.0327057593821 140.72284465673235 L 595.1557647468726 124.37563777661173 L 575.9384705062547 130.61971518369168 L 575.9384705062547 150.82597412977302 L 556.7211762656368 157.070051536853 L 544.8442352531274 140.72284465673235 L 556.7211762656368 124.37563777661154 L 575.9384705062547 130.61971518369148" stroke-miterlimit="10" stroke-width="0.5"/><path fill="none" stroke="cyan" paint-order="fill stroke markers" d=" M 575.9384705062547 150.82597412977302 L 595.1557647468726 157.070051536853" stroke-miterlimit="10" stroke-width="0.5"/><path fill="none" stroke="cyan" paint-order="fill stroke markers" d=" M 513.75 150.825974129773 L 525.6269410125095 134.47876724965238 L 544.8442352531274 140.72284465673232 L 544.8442352531274 160.92910360281365 L 525.6269410125095 167.1731810098936 L 544.8442352531274 173.41725841697357 L 544.8442352531274 193.6235173630549 L 525.6269410125095 199.86759477013484 L 513.75 183.52038789001423 L 513.75 203.72664683609554 L 494.5327057593821 209.97072424317548 L 513.75 216.2148016502554 L 513.75 236.42106059633673 L 494.5327057593821 242.66513800341667 L 482.65576474687265 226.31793112329586 L 494.5327057593821 209.97072424317525 L 482.65576474687265 193.62351736305487 L 494.5327057593821 177.27631048293426" stroke-miterlimit="10" stroke-width="0.5"/><path fill="none" stroke="cyan" paint-order="fill stroke markers" d=" M 513.75 183.52038789001423 L 525.6269410125095 167.17318100989363" stroke-miterlimit="10" stroke-width="0.5"/><path fill="none" stroke="cyan" paint-order="fill stroke markers" d=" M 494.5327057593821 242.66513800341667 L 494.5327057593821 262.871396949498 L 513.75 269.115474356578 L 525.6269410125095 252.76826747645734 L 544.8442352531274 259.0123448835373 L 544.8442352531274 279.2186038296186 L 525.6269410125095 285.46268123669836 L 513.75 269.11547435657775" stroke-miterlimit="10" stroke-width="0.5"/><path fill="none" stroke="cyan" paint-order="fill stroke markers" d=" M 525.6269410125095 252.76826747645734 L 513.75 236.42106059633673" stroke-miterlimit="10" stroke-width="0.5"/><path fill="none" stroke="cyan" paint-order="fill stroke markers" d=" M 595.1557647468726 262.871396949498 L 575.9384705062547 269.115474356578" stroke-miterlimit="10" stroke-width="0.5"/><path fill="none" stroke="cyan" paint-order="fill stroke markers" d=" M 645.4672942406179 226.317931123296 L 657.3442352531273 209.9707242431754" stroke-miterlimit="10" stroke-width="0.5"/><path fill="none" stroke="cyan" paint-order="fill stroke markers" d=" M 657.3442352531273 209.9707242431754 L 645.4672942406179 193.6235173630548" stroke-miterlimit="10" stroke-width="0.5"/><path fill="none" stroke="cyan" paint-order="fill stroke markers" d=" M 283.9510411771589 454.60298978405683 L 269.7177616543692 449.978316925114 L 283.9510411771589 445.353644066171 L 292.7476916936208 457.4611947977326 L 292.7476916936208 442.49543905249527 L 283.9510411771589 454.60298978405683" stroke-miterlimit="10" stroke-width="0.5"/><path fill="none" stroke="cyan" paint-order="fill stroke markers" d=" M 306.9809712164105 422.9050104483149 L 321.2142507392002 418.28033758937204 L 306.9809712164105 413.65566473042907 L 306.9809712164105 398.6899089851916 L 315.77762173287243 410.7974597167532 L 306.9809712164105 422.90501044831484 L 292.7476916936208 418.28033758937204 L 283.9510411771589 430.3878883209336 L 292.7476916936208 442.4954390524952 L 306.9809712164105 437.8707661935524 L 306.9809712164105 422.9050104483149" stroke-miterlimit="10" stroke-width="0.5"/><path fill="none" stroke="cyan" paint-order="fill stroke markers" d=" M 306.9809712164105 462.08586765667565 L 292.7476916936208 457.46119479773273 L 283.9510411771589 469.56874552929435 L 292.7476916936208 481.67629626085596 L 306.9809712164105 477.05162340191305 L 315.77762173287243 489.15917413347466 L 306.9809712164105 501.2667248650363 L 306.9809712164105 486.30096911979876 L 321.2142507392002 481.6762962608559 L 330.0109012556622 493.7838469924175 L 344.2441807784519 489.1591741334746 L 344.2441807784519 474.1934183882372 L 330.0109012556622 469.5687455292943 L 321.2142507392002 481.67629626085585 L 306.9809712164105 477.05162340191293 L 306.9809712164105 462.08586765667553 L 321.2142507392002 457.4611947977326 L 330.0109012556622 469.56874552929423 L 330.0109012556622 454.6029897840569 L 344.2441807784519 449.978316925114 L 353.0408312949138 462.0858676566756 L 344.2441807784519 474.1934183882372 L 358.4774603012416 469.56874552929423 L 367.2741108177035 481.67629626085585 L 353.0408312949138 477.05162340191293 L 353.0408312949138 462.0858676566755 L 367.2741108177035 457.46119479773273 L 367.2741108177035 442.49543905249527 L 353.0408312949138 437.87076619355236 L 353.0408312949138 422.90501044831495 L 367.2741108177035 418.28033758937204 L 358.4774603012416 430.3878883209336 L 344.2441807784519 425.76321546199074 L 344.2441807784519 410.7974597167533 L 330.0109012556622 406.1727868578104 L 321.2142507392002 418.28033758937204 L 330.0109012556622 430.3878883209336 L 344.2441807784519 425.7632154619907 L 353.0408312949138 437.87076619355224 L 344.2441807784519 449.97831692511386 L 330.0109012556622 445.353644066171 L 330.0109012556622 430.38788832093354 L 321.2142507392002 442.4954390524952 L 306.9809712164105 437.87076619355236 L 315.77762173287243 449.97831692511403 L 306.9809712164105 462.08586765667565" stroke-miterlimit="10" stroke-width="0.5"/><path fill="none" stroke="cyan" paint-order="fill stroke markers" d=" M 278.5144121708311 501.2667248650363 L 260.92111113790725 477.05162340191293 L 269.7177616543692 464.9440726703514 L 269.7177616543692 435.0125611798765 L 260.92111113790725 422.9050104483149 L 278.5144121708311 398.68990898519166 L 292.7476916936208 403.31458184413447 L 321.2142507392002 394.06523612624875 L 330.0109012556622 381.95768539468713 L 358.4774603012416 391.20703111257296 L 367.2741108177035 379.09948038101135 L 358.4774603012416 366.99192964944973 L 344.2441807784519 371.61660250839265 L 344.2441807784519 386.5823582536301 L 353.0408312949138 374.47480752206843 L 344.2441807784519 362.3672567905068 L 330.0109012556622 366.99192964944973 L 330.0109012556622 381.95768539468713 L 315.77762173287243 386.58235825363005 L 315.77762173287243 401.5481139988675 L 301.54434221008273 406.1727868578103 L 292.7476916936208 394.06523612624875 L 278.5144121708311 398.6899089851916 L 269.7177616543692 386.58235825363005 L 255.4844821315795 391.2070311125729 L 255.4844821315795 406.17278685781037 L 269.7177616543692 410.7974597167532 L 260.92111113790725 398.68990898519166 L 246.68783161511757 403.3145818441345 L 246.68783161511757 418.280337589372 L 260.92111113790725 422.9050104483149 L 260.92111113790725 437.8707661935523 L 275.154390660697 442.4954390524952 L 275.154390660697 457.4611947977327 L 260.92111113790725 462.08586765667553 L 260.92111113790725 477.05162340191293 L 246.68783161511757 481.67629626085585 L 246.68783161511757 496.6420520060933 L 260.92111113790725 501.26672486503617 L 269.7177616543692 489.15917413347455 L 255.4844821315795 493.7838469924176 L 255.4844821315795 508.749602737655 L 269.7177616543692 513.3742755965978 L 278.5144121708311 501.2667248650363 L 292.7476916936208 505.8913977239791 L 301.5443422100828 493.7838469924176 L 315.77762173287243 498.4085198513604 L 315.7776217328725 513.3742755965978 L 330.0109012556622 517.9989484555407 L 330.0109012556622 532.9647042007782 L 344.2441807784519 537.5893770597211 L 353.0408312949138 525.4818263281594 L 344.2441807784519 513.3742755965978 L 344.2441807784519 528.3400313418351 L 358.4774603012416 532.9647042007781 L 367.2741108177035 520.8571534692164 L 358.4774603012416 508.74960273765487 L 330.0109012556622 517.9989484555407 L 321.2142507392002 505.8913977239791 L 292.7476916936208 496.6420520060934 L 278.5144121708311 501.2667248650363" stroke-miterlimit="10" stroke-width="0.5"/><path fill="none" stroke="cyan" paint-order="fill stroke markers" d=" M 390.30404085695517 435.0125611798765 L 390.30404085695517 464.9440726703513 L 376.0707613341654 469.5687455292942 L 358.4774603012416 493.78384699241747 L 358.4774603012416 508.74960273765487 L 367.2741108177035 496.64205200609325 L 358.4774603012416 484.5345012745317 L 367.2741108177035 472.42695054297 L 381.5073903404932 477.05162340191293 L 390.30404085695517 464.9440726703513 L 404.5373203797448 469.5687455292942 L 413.3339708962068 457.4611947977326 L 404.5373203797448 445.353644066171 L 390.30404085695517 449.97831692511386 L 404.5373203797448 454.6029897840569 L 413.3339708962068 442.49543905249527 L 404.5373203797448 430.38788832093365 L 390.30404085695517 435.0125611798765 L 381.5073903404932 422.9050104483149 L 367.2741108177035 427.52968330725776 L 358.4774603012416 415.4221325756962 L 367.2741108177035 403.3145818441346 L 358.4774603012416 391.20703111257296 L 358.4774603012416 406.1727868578104 L 376.0707613341654 430.38788832093365" stroke-miterlimit="10" stroke-width="0.5"/><path fill="none" stroke="cyan" paint-order="fill stroke markers" d=" M 376.0707613341654 430.38788832093365 L 390.30404085695517 435.0125611798765" stroke-miterlimit="10" stroke-width="0.5"/><path fill="none" stroke="cyan" paint-order="fill stroke markers" d=" M 513.6669771428255 484.3292172252922 L 495.6045733710947 490.19804797203903 L 484.4413939216408 474.8332496028354 L 495.6045733710947 459.46845123363164 L 495.6045733710947 440.4765159887183 L 484.4413939216408 425.11171761951454 L 495.6045733710947 409.74691925031084 L 513.6669771428255 415.61574999705766" stroke-miterlimit="10" stroke-width="0.5"/><path fill="none" stroke="cyan" paint-order="fill stroke markers" d=" M 542.8925603640103 406.11978237460085 L 542.8925603640103 425.11171761951454 L 560.954964135741 430.9805483662614 L 572.1181435851948 415.61574999705766 L 590.1805473569256 421.48458074380454 L 590.1805473569256 440.47651598871823 L 608.2429511286564 446.34534673546506 L 619.4061305781104 430.98054836626136 L 637.4685343498411 436.8493791130082 L 637.4685343498411 463.0955881093417 L 619.4061305781104 468.9644188560885 L 608.2429511286564 453.5996204868848 L 590.1805473569256 459.4684512336317 L 590.1805473569256 478.4603864785454 L 572.1181435851948 484.32921722529227 L 560.954964135741 468.9644188560885 L 542.8925603640103 474.8332496028354 L 542.8925603640103 493.82518484774903 L 524.8301565922794 499.6940155944959 L 509.40302201564845 478.46038647854544 L 520.5662014651023 463.09558810934175 L 538.6286052368331 468.9644188560886 L 549.7917846862871 453.5996204868849 L 538.6286052368331 438.2348221176812 L 549.7917846862871 422.8700237484774 L 567.8541884580178 428.7388544952243 L 579.0173679074718 413.3740561260206 L 567.8541884580178 398.00925775681685 L 579.0173679074718 382.64445938761315 L 603.9789960014793 390.754984005397 L 603.9789960014793 409.74691925031067 L 585.9165922297485 415.61574999705755 L 585.9165922297485 434.60768524197124 L 603.9789960014793 440.4765159887181 L 603.9789960014793 459.4684512336318 L 585.9165922297485 465.3372819803787 L 585.9165922297485 484.3292172252924 L 603.9789960014793 490.1980479720392 L 603.9789960014793 509.1899832169529 L 579.0173679074718 517.3005078347368 L 567.8541884580178 501.935709465533 L 579.0173679074718 486.5709110963293 L 567.8541884580178 471.2061127271256 L 549.7917846862871 477.07494347387245 L 538.6286052368331 461.71014510466875 L 549.7917846862871 446.345346735465 L 567.8541884580178 452.2141774822119 L 567.8541884580178 471.2061127271256 L 585.9165922297485 477.07494347387245 L 601.3437268063795 455.84131435792193 L 590.1805473569256 440.4765159887182 L 572.1181435851948 446.3453467354651 L 560.954964135741 430.98054836626136 L 542.8925603640103 436.84937911300824 L 542.8925603640103 463.0955881093417 L 560.954964135741 468.9644188560885 L 572.1181435851948 453.5996204868848 L 590.1805473569256 459.4684512336317 L 601.3437268063795 444.10365286442794 L 585.9165922297485 422.8700237484774 L 567.8541884580178 428.7388544952243 L 567.8541884580178 447.730789740138 L 549.7917846862871 453.5996204868849 L 549.7917846862871 472.59155573179856 L 574.7534127802946 480.7020803495824 L 585.9165922297485 465.33728198037863 L 574.7534127802946 449.972483611175 L 585.9165922297485 434.60768524197124 L 574.7534127802946 419.24288687276754 L 549.7917846862871 427.3534114905513 L 549.7917846862871 446.345346735465 L 538.6286052368331 430.98054836626125 L 520.5662014651023 436.8493791130081 L 509.40302201564845 421.48458074380443 L 524.8301565922794 400.25095162785396 L 542.8925603640103 406.11978237460085" stroke-miterlimit="10" stroke-width="0.5"/><path fill="none" stroke="cyan" paint-order="fill stroke markers" d=" M 542.8925603640103 455.84131435792193 L 560.954964135741 461.7101451046688 L 579.0173679074718 436.8493791130082 L 567.8541884580178 421.48458074380443" stroke-miterlimit="10" stroke-width="0.5"/><path fill="none" stroke="cyan" paint-order="fill stroke markers" d=" M 590.1805473569256 428.73885449522425 L 572.1181435851948 434.6076852419711 L 572.1181435851948 465.33728198037875 L 590.1805473569256 471.2061127271256" stroke-miterlimit="10" stroke-width="0.5"/><path fill="none" stroke="cyan" paint-order="fill stroke markers" d=" M 637.4685343498411 455.84131435792193 L 655.5309381215719 461.7101451046688 L 655.5309381215719 480.7020803495825 L 637.4685343498411 486.5709110963293 L 626.3053549003872 501.9357094655331 L 626.3053549003872 520.9276447104468 L 608.2429511286564 526.7964754571937 L 597.0797716792025 511.4316770879899" stroke-miterlimit="10" stroke-width="0.5"/><path fill="none" stroke="cyan" paint-order="fill stroke markers" d=" M 597.0797716792025 461.71014510466875 L 585.9165922297485 446.345346735465 L 556.6910090085639 455.8413143579218 L 556.6910090085639 474.8332496028355" stroke-miterlimit="10" stroke-width="0.5"/><path fill="none" stroke="cyan" paint-order="fill stroke markers" d=" M 520.5662014651023 406.1197823746007 L 509.40302201564845 390.754984005397 L 520.5662014651023 375.3901856361932 L 538.6286052368331 381.2590163829401 L 556.6910090085639 375.3901856361932 L 567.8541884580178 360.0253872669895 L 585.9165922297485 365.8942180137364 L 585.9165922297485 384.8861532586501" stroke-miterlimit="10" stroke-width="0.5"/><path fill="none" stroke="cyan" paint-order="fill stroke markers" d=" M 556.6910090085639 425.11171761951437 L 556.6910090085639 444.1036528644281 L 585.9165922297485 453.5996204868849 L 597.0797716792025 438.2348221176812" stroke-miterlimit="10" stroke-width="0.5"/><path fill="none" stroke="cyan" paint-order="fill stroke markers" d=" M 585.9165922297485 515.0588139636998 L 585.9165922297485 534.0507492086135 L 567.8541884580178 539.9195799553604 L 556.6910090085639 524.5547815861567 L 538.6286052368331 518.6859508394098 L 520.5662014651023 524.5547815861567 L 509.40302201564845 509.1899832169529 L 520.5662014651023 493.8251848477492" stroke-miterlimit="10" stroke-width="0.5"/><path fill="none" stroke="cyan" paint-order="fill stroke markers" d=" M 567.8541884580178 478.46038647854544 L 579.0173679074718 463.09558810934175 L 560.954964135741 438.23482211768106 L 542.8925603640103 444.10365286442794" stroke-miterlimit="10" stroke-width="0.5"/><path fill="none" stroke="cyan" paint-order="fill stroke markers" d=" M 597.0797716792025 388.51329013436 L 608.2429511286564 373.1484917651563 L 626.3053549003872 379.0173225119031 L 626.3053549003872 398.00925775681685 L 637.4685343498411 413.37405612602055 L 655.5309381215719 419.24288687276743 L 655.5309381215719 438.2348221176811" stroke-miterlimit="10" stroke-width="0.5"/><path fill="none" stroke="cyan" paint-order="fill stroke markers" d=" M 655.5309381215719 438.2348221176811 L 637.4685343498411 444.10365286442794" stroke-miterlimit="10" stroke-width="0.5"/><path fill="none" stroke="cyan" paint-order="fill stroke markers" d=" M 358.9568001150292 719.6017746431246 L 347.3683356637588 703.6516216863731 L 366.1188650233342 709.7440379900926 L 366.11886502333425 729.4595112961567 L 328.6178063041833 741.6443439035955 L 317.02934185291286 725.694190946844 L 328.6178063041833 709.7440379900925 L 347.3683356637588 715.8364542938119 L 347.3683356637588 755.2674009059402 L 328.6178063041833 761.3598172096597 L 317.02934185291286 745.4096642529082 L 335.77987121248833 751.5020805566277 L 358.9568001150292 719.6017746431246 L 396.4578588341801 731.7866072505634 L 415.2083881937556 725.694190946844 L 415.2083881937556 705.9787176407799 L 396.4578588341801 699.8863013370604 L 396.4578588341801 680.1708280309966 L 415.2083881937556 674.0784117272772 L 415.2083881937556 654.362938421213 L 396.4578588341801 648.2705221174936 L 358.9568001150292 660.4553547249325 L 335.77987121248833 628.5550488114294 L 317.02934185291286 634.6474651151489 L 328.6178063041833 618.6973121583974 L 347.3683356637588 624.7897284621167 L 347.3683356637588 664.2206750742452 L 328.6178063041833 670.3130913779646 L 347.3683356637588 676.405507681684 L 335.77987121248833 660.4553547249325 L 358.9568001150292 628.5550488114295 L 377.70732947460465 634.647465115149 L 377.70732947460465 654.362938421213 L 366.1188650233342 638.4127854644615 L 328.6178063041833 650.5976180719003 L 305.44087740164247 618.6973121583974 L 286.690348042067 612.6048958546779 L 275.1018835907966 628.5550488114294 L 286.690348042067 644.5052017681809 L 275.1018835907966 660.4553547249325 L 256.35135423122114 654.362938421213 L 244.7628897799507 670.3130913779645 L 256.35135423122114 686.263244334716 L 293.852412950372 698.4480769421549 L 293.852412950372 737.8790235542831 L 312.6029423099475 743.9714398580026 L 293.852412950372 750.063856161722 L 282.2639484991016 734.1137032049705 L 305.44087740164247 702.2133972914675 L 324.1914067612179 708.3058135951869 L 312.6029423099475 692.3556606384354 L 312.6029423099475 712.0711339444996 L 275.1018835907966 724.2559665519384 L 263.51341913952615 708.3058135951869 L 275.1018835907966 692.3556606384354 L 275.1018835907966 712.0711339444996 L 312.6029423099475 724.2559665519384 L 312.6029423099475 763.6869131640667 L 324.1914067612179 779.6370661208182 L 342.9419361207934 773.5446498170988 L 342.9419361207934 753.8291765110347 L 361.6924654803688 747.7367602073152 L 373.28092993163926 763.6869131640667 L 392.0314592912147 757.5944968603472 L 392.0314592912147 737.8790235542831 L 368.8545303886738 705.97871764078 L 392.0314592912147 674.078411727277 L 380.4429948399443 658.1282587705255 L 399.1935241995197 664.2206750742449 L 399.1935241995197 683.9361483803091 L 361.6924654803688 696.120980987748 L 350.1040010290984 680.1708280309965 L 350.1040010290984 699.8863013370607 L 361.6924654803688 683.9361483803091 L 399.1935241995197 696.120980987748 L 399.1935241995197 715.8364542938122 L 380.4429948399443 721.9288705975315 L 392.0314592912147 705.9787176407801 L 368.8545303886738 674.0784117272771 L 392.0314592912147 642.178105813774 L 392.0314592912147 622.4626325077098 L 373.28092993163926 616.3702162039904 L 361.6924654803688 632.3203691607418 L 342.9419361207934 626.2279528570225 L 342.9419361207934 606.5124795509583 L 324.1914067612179 600.4200632472388 L 312.6029423099475 616.3702162039904 L 312.6029423099475 655.8011628161186 L 275.1018835907966 667.9859954235575 L 275.1018835907966 687.7014687296215 L 263.51341913952615 671.7513157728702 L 275.1018835907966 655.8011628161186 L 312.6029423099475 667.9859954235575 L 312.6029423099475 687.7014687296216 L 324.1914067612179 671.7513157728702 L 305.44087740164247 677.8437320765895 L 282.2639484991016 645.9434261630865 L 293.852412950372 629.9932732063351 L 312.6029423099475 636.0856895100545 L 293.852412950372 642.178105813774 L 293.852412950372 681.6090524259022 L 256.35135423122114 693.793885033341 L 244.7628897799507 709.7440379900926 L 256.35135423122114 725.6941909468441 L 275.1018835907966 719.6017746431246 L 286.690348042067 735.5519275998761 L 275.1018835907966 751.5020805566277 L 286.690348042067 767.4522335133792 L 305.44087740164247 761.3598172096597 L 328.6178063041833 729.4595112961567 L 366.1188650233342 741.6443439035955 L 377.70732947460465 725.694190946844 L 377.70732947460465 745.4096642529081 L 358.9568001150292 751.5020805566276 L 335.77987121248833 719.6017746431246 L 347.3683356637588 703.6516216863731 L 328.6178063041833 709.7440379900926 L 328.6178063041833 729.4595112961567" stroke-miterlimit="10" stroke-width="0.5"/><path fill="none" stroke="cyan" paint-order="fill stroke markers" d=" M 328.6178063041833 650.5976180719003 L 328.6178063041833 670.3130913779645 L 317.02934185291286 654.362938421213 L 328.6178063041833 638.4127854644615 L 366.1188650233342 650.5976180719003 L 366.11886502333425 670.3130913779645 L 347.3683356637588 676.405507681684 L 358.9568001150292 660.4553547249325" stroke-miterlimit="10" stroke-width="0.5"/><path fill="none" stroke="cyan" paint-order="fill stroke markers" d=" M 312.6029423099475 724.2559665519384 L 324.1914067612179 708.3058135951869 L 324.1914067612179 728.0212869012511 L 305.44087740164247 734.1137032049705 L 282.2639484991016 702.2133972914675 L 293.852412950372 686.263244334716 L 312.6029423099475 692.3556606384354 L 293.852412950372 698.4480769421549" stroke-miterlimit="10" stroke-width="0.5"/><path fill="none" stroke="cyan" paint-order="fill stroke markers" d=" M 368.8545303886738 674.0784117272771 L 350.1040010290984 680.1708280309965 L 361.6924654803688 664.2206750742449 L 380.4429948399443 670.3130913779644 L 380.4429948399443 709.7440379900926 L 361.6924654803688 715.836454293812 L 350.1040010290984 699.8863013370606 L 368.8545303886738 705.97871764078" stroke-miterlimit="10" stroke-width="0.5"/><path fill="none" stroke="cyan" paint-order="fill stroke markers" d=" M 293.852412950372 681.6090524259022 L 312.6029423099475 687.7014687296216 L 293.852412950372 693.7938850333411 L 282.2639484991016 677.8437320765896 L 305.44087740164247 645.9434261630865 L 324.1914067612179 652.035842466806 L 324.1914067612179 671.7513157728702" stroke-miterlimit="10" stroke-width="0.5"/><path fill="none" stroke="cyan" paint-order="fill stroke markers" d=" M 324.1914067612179 671.7513157728702 L 312.6029423099475 655.8011628161186" stroke-miterlimit="10" stroke-width="0.5"/><path fill="none" stroke="cyan" paint-order="fill stroke markers" d=" M 514.5344347899261 701.4757516238736 L 506.21171811549993 712.9309883837578 L 492.74527965754277 708.5554772906594 L 492.74527965754277 694.396025957088 L 506.21171811549993 690.0205148639894 L 514.5344347899261 701.4757516238736 L 528.0008732478832 697.100240530775 L 528.0008732478832 682.9407891972038 L 514.5344347899261 678.5652781041052 L 506.21171811549993 690.0205148639894 L 492.74527965754277 685.6450037708908 L 492.74527965754277 671.4855524373194 L 506.21171811549993 667.1100413442208 L 514.5344347899261 678.565278104105" stroke-miterlimit="10" stroke-width="0.5"/><path fill="none" stroke="cyan" paint-order="fill stroke markers" d=" M 492.74527965754277 708.5554772906594 L 484.42256298311656 720.0107140505436 L 492.74527965754277 731.4659508104278 L 506.21171811549993 727.0904397173292 L 514.5344347899261 715.635202957445 L 528.0008732478832 720.0107140505436 L 528.0008732478832 734.1701653841147 L 514.5344347899261 738.5456764772133 L 506.21171811549993 750.0009132370976 L 514.5344347899261 761.4561499969818 L 528.0008732478832 757.0806389038833 L 528.0008732478832 742.9211875703119 L 541.4673117058403 738.5456764772133 L 549.7900283802666 750.0009132370976 L 563.2564668382237 745.625402143999 L 571.5791835126499 757.0806389038833 L 563.2564668382237 768.5358756637675 L 571.5791835126499 779.9911124236517 L 585.045621970607 775.6156013305531 L 585.045621970607 761.4561499969818 L 576.7229052961808 750.0009132370976 L 585.045621970607 738.5456764772133 L 576.7229052961808 727.0904397173291 L 585.045621970607 715.6352029574449 L 576.7229052961808 704.1799661975607 L 585.045621970607 692.7247294376764 L 598.5120604285642 697.100240530775 L 606.8347771029903 685.6450037708908 L 620.3012155609475 690.0205148639893 L 628.6239322353737 678.5652781041051 L 642.0903706933308 682.9407891972037 L 655.556809151288 678.5652781041051 L 655.556809151288 664.4058267705337 L 642.0903706933308 660.0303156774352 L 633.7676540189046 671.4855524373195 L 620.3012155609475 667.1100413442209 L 620.3012155609475 652.9505900106495 L 606.8347771029903 648.575078917551 L 606.8347771029903 634.4156275839797 L 620.3012155609475 630.0401164908811 L 620.3012155609475 615.8806651573097 L 606.8347771029903 611.5051540642112 L 598.5120604285642 622.9603908240954 L 598.5120604285642 637.1198421576668 L 585.045621970607 641.4953532507653 L 585.045621970607 655.6548045843367 L 571.5791835126499 660.0303156774352 L 571.5791835126499 674.1897670110066 L 558.1127450546928 678.5652781041051 L 549.7900283802666 667.1100413442209 L 536.3235899223095 671.4855524373195 L 528.0008732478832 660.0303156774352 L 514.5344347899261 664.4058267705337 L 506.21171811549993 652.9505900106495 L 492.74527965754277 648.575078917551 L 484.42256298311656 660.0303156774352 L 492.74527965754277 671.4855524373194" stroke-miterlimit="10" stroke-width="0.5"/><path fill="none" stroke="cyan" paint-order="fill stroke markers" d=" M 528.0008732478832 622.9603908240955 L 541.4673117058403 618.5848797309969 L 549.7900283802666 630.0401164908811 L 541.4673117058403 641.4953532507653 L 528.0008732478832 637.1198421576668 L 528.0008732478832 622.9603908240955 L 514.5344347899261 618.5848797309969 L 506.21171811549993 630.0401164908811 L 514.5344347899261 641.4953532507653 L 528.0008732478832 645.8708643438639 L 528.0008732478832 660.0303156774353 L 541.4673117058403 664.4058267705338 L 541.4673117058403 678.5652781041051 L 554.9337501637975 682.9407891972037 L 554.9337501637975 697.100240530775 L 541.4673117058403 701.4757516238735 L 541.4673117058403 715.6352029574449 L 528.0008732478832 720.0107140505435 L 536.3235899223095 708.5554772906594 L 549.7900283802666 712.9309883837578 L 558.1127450546928 701.4757516238736 L 571.5791835126499 705.8512627169722 L 571.5791835126499 720.0107140505435 L 585.045621970607 724.386225143642 L 585.045621970607 738.5456764772134 L 598.5120604285642 742.921187570312 L 598.5120604285642 757.0806389038833 L 606.8347771029903 768.5358756637675 L 620.3012155609475 764.1603645706689 L 620.3012155609475 750.0009132370976 L 606.8347771029903 745.625402143999 L 606.8347771029903 731.4659508104278 L 620.3012155609475 727.0904397173292 L 620.3012155609475 712.9309883837578 L 633.7676540189046 708.5554772906593 L 642.0903706933308 720.0107140505435 L 655.556809151288 715.6352029574449 L 655.556809151288 701.4757516238736 L 642.0903706933308 697.1002405307751 L 628.6239322353737 701.4757516238736 L 620.3012155609475 690.0205148639894 L 606.8347771029903 694.396025957088 L 598.5120604285642 682.9407891972037 L 585.045621970607 687.3163002903023 L 576.7229052961808 675.861063530418 L 585.045621970607 664.4058267705338 L 576.7229052961808 652.9505900106496 L 585.045621970607 641.4953532507653 L 576.7229052961808 630.0401164908811 L 585.045621970607 618.5848797309969 L 585.045621970607 604.4254283974255 L 571.5791835126499 600.049917304327 L 563.2564668382237 611.5051540642113 L 571.5791835126499 622.9603908240955 L 563.2564668382237 634.4156275839797 L 549.7900283802666 630.0401164908811 L 549.7900283802666 615.8806651573099 L 563.2564668382237 611.5051540642113" stroke-miterlimit="10" stroke-width="0.5"/><path fill="none" stroke="cyan" paint-order="fill stroke markers" d=" M 642.0903706933308 720.0107140505435 L 633.7676540189046 731.4659508104278 L 620.3012155609475 727.0904397173292 L 628.6239322353737 738.5456764772134 L 620.3012155609475 750.0009132370976" stroke-miterlimit="10" stroke-width="0.5"/><path fill="none" stroke="cyan" paint-order="fill stroke markers" d=" M 620.3012155609475 712.9309883837578 L 606.8347771029903 708.5554772906593 L 598.5120604285642 720.0107140505435 L 606.8347771029903 731.4659508104278" stroke-miterlimit="10" stroke-width="0.5"/><path fill="none" stroke="cyan" paint-order="fill stroke markers" d=" M 541.4673117058403 641.4953532507653 L 549.7900283802666 652.9505900106496 L 563.2564668382237 648.5750789175511 L 563.2564668382237 634.4156275839797" stroke-miterlimit="10" stroke-width="0.5"/><path fill="none" stroke="cyan" paint-order="fill stroke markers" d=" M 563.2564668382237 768.5358756637675 L 549.7900283802666 764.1603645706689 L 549.7900283802666 750.0009132370976 L 541.4673117058403 761.4561499969818 L 528.0008732478832 757.0806389038833" stroke-miterlimit="10" stroke-width="0.5"/><path fill="none" stroke="cyan" paint-order="fill stroke markers" d=" M 563.2564668382237 745.625402143999 L 563.2564668382237 731.4659508104277 L 549.7900283802666 727.0904397173291 L 541.4673117058403 738.5456764772133" stroke-miterlimit="10" stroke-width="0.5"/><path fill="none" stroke="cyan" paint-order="fill stroke markers" d=" M 620.3012155609475 630.0401164908811 L 628.6239322353737 641.4953532507653 L 620.3012155609475 652.9505900106495 L 633.7676540189046 648.575078917551 L 642.0903706933308 660.0303156774352" stroke-miterlimit="10" stroke-width="0.5"/><path fill="none" stroke="cyan" paint-order="fill stroke markers" d=" M 606.8347771029903 648.575078917551 L 598.5120604285642 660.0303156774352 L 606.8347771029903 671.4855524373195" stroke-miterlimit="10" stroke-width="0.5"/><path fill="none" stroke="cyan" paint-order="fill stroke markers" d=" M 606.8347771029903 671.4855524373195 L 620.3012155609475 667.1100413442209" stroke-miterlimit="10" stroke-width="0.5"/></g></svg>