<svg version="1.1" xmlns="http://www.w3.org/2000/svg" xmlns:xlink="http://www.w3.org/1999/xlink" width="900" height="900"><defs/><g><path fill="#222222" stroke="#cccccc" paint-order="fill stroke markers" d=" M 127.9408 51.60512 L 141.41119 59.38226 L 142.12053 60.07596 L 142.41119 61.11431 L 142.41119 76.66859 L 142.1651 77.62974 L 141.41119 78.40064 L 128.9408 85.60042 L 128.9408 114.39958 L 141.41119 121.59936 L 142.12052 122.29306 L 142.41119 123.33141 L 142.41119 138.88569 L 142.1651 139.84684 L 141.41119 140.61774 L 127.9408 148.39488 L 126.98537 148.66233 L 125.9408 148.39488 L 112.4704 140.61774 L 111.76106 139.92404 L 111.4704 138.88569 L 111.4704 124.48611 L 86.5296 110.08654 L 74.0592 117.28633 L 73.10377 117.55378 L 72.0592 117.28633 L 58.58881 109.50919 L 57.87947 108.81549 L 57.58881 107.77714 L 57.58881 92.22286 L 57.8349 91.26171 L 58.58881 90.49081 L 72.0592 82.71367 L 72.4537 82.60324 L 72.83679 82.45813 L 72.91424 82.47432 L 73.01463 82.44622 L 73.98103 82.67083 L 74.0197 82.70541 L 74.0592 82.71367 L 86.5296 89.91346 L 111.4704 75.51389 L 111.4704 61.11431 L 111.71649 60.15316 L 112.4704 59.38226 L 125.9408 51.60512 L 126.89623 51.33767 Z M 104 115.55428 L 114.4704 121.59936 L 115.17973 122.29306 L 115.4704 123.33141 L 115.4704 137.73099 L 126.9408 144.35343 L 138.41119 137.73099 L 138.41119 124.48611 L 125.9408 117.28633 L 125.23147 116.59263 L 124.9408 115.55428 L 124.9408 103.4641 Z M 61.58881 93.37756 L 61.58881 106.62244 L 73.0592 113.24488 L 85.5296 106.04509 L 86.48503 105.77764 L 87.5296 106.04509 L 98 112.09018 L 98 87.90982 L 87.5296 93.95491 L 86.57417 94.22236 L 85.5296 93.95491 L 73.0592 86.75512 Z M 102 112.09018 L 109.4704 107.77714 L 102 103.4641 Z M 115.4704 104.31304 L 122.9408 100 L 115.4704 95.68696 Z M 104 100 L 111.4704 104.31304 L 111.4704 95.68696 Z M 102 96.5359 L 109.4704 92.22286 L 102 87.90982 Z M 115.4704 62.26901 L 115.4704 76.66859 L 115.22431 77.62974 L 114.4704 78.40064 L 104 84.44572 L 124.9408 96.5359 L 124.9408 84.44572 L 125.18689 83.48457 L 125.9408 82.71367 L 138.41119 75.51389 L 138.41119 62.26901 L 126.9408 55.64657 Z" stroke-miterlimit="10"/><path fill="#222222" stroke="#cccccc" paint-order="fill stroke markers" d=" M 261.72309 50.18666 L 261.76176 50.22124 L 261.80126 50.2295 L 282.60251 62.23912 L 282.92628 62.55575 L 283.26388 62.85768 L 283.2761 62.89786 L 283.31185 62.93282 L 283.60052 63.88205 L 283.59029 63.93099 L 283.60251 63.97117 L 283.60251 136.02883 L 283.50089 136.42571 L 283.43502 136.83001 L 283.38228 136.88898 L 283.35642 136.98998 L 282.6787 137.7146 L 282.62941 137.7308 L 282.60251 137.76088 L 261.80126 149.7705 L 261.40676 149.88093 L 261.02367 150.02604 L 260.94622 150.00985 L 260.84583 150.03795 L 259.87943 149.81334 L 259.84076 149.77876 L 259.80126 149.7705 L 197.39749 113.74166 L 197.10458 113.4552 L 196.78739 113.19602 L 196.76269 113.12085 L 196.68815 113.04796 L 196.39948 112.09873 L 196.41009 112.04796 L 196.39749 112.00961 L 196.39749 87.99039 L 196.50985 87.55155 L 196.6025 87.10835 L 196.63117 87.07769 L 196.64358 87.02924 L 197.3213 86.30462 L 197.36881 86.28901 L 197.39749 86.25834 L 259.80126 50.2295 L 260.19576 50.11907 L 260.57885 49.97396 L 260.6563 49.99015 L 260.75669 49.96205 Z M 262.80126 144.57435 L 277.60251 136.02883 L 262.80126 127.48332 Z M 243.99999 136.02883 L 258.80126 144.57435 L 258.80126 127.48332 Z M 221.19874 77.13548 L 221.19874 122.86452 L 240 133.71943 L 279.60251 110.85491 L 279.60251 89.14509 L 240 66.28057 Z M 264.80126 124.01922 L 279.60251 132.56473 L 279.60251 115.47371 Z M 202.39749 112.00961 L 217.19874 120.55512 L 217.19874 103.4641 Z M 200.39749 108.54551 L 215.19874 100 L 200.39749 91.45449 Z M 202.39749 87.99039 L 217.19874 96.5359 L 217.19874 79.44488 Z M 264.80126 75.98078 L 279.60251 84.52629 L 279.60251 67.43527 Z M 262.80126 72.51668 L 277.60251 63.97117 L 262.80126 55.42565 Z M 243.99999 63.97117 L 258.80126 72.51668 L 258.80126 55.42565 Z" stroke-miterlimit="10"/><path fill="#222222" stroke="#cccccc" paint-order="fill stroke markers" d=" M 395.01549 49.08677 L 395.78377 49.71456 L 396.17367 50.90097 L 396.17367 66.11262 L 408.34734 73.14109 L 421.521 65.53527 L 422.47643 65.26782 L 423.44283 65.49243 L 424.18237 66.15383 L 424.51306 67.08926 L 424.35351 68.0685 L 423.521 68.99937 L 398.17367 83.63366 L 409.34734 90.08478 L 410.05667 90.77848 L 410.34734 91.81683 L 410.34734 108.18317 L 410.10125 109.14432 L 409.34734 109.91522 L 398.17367 116.36634 L 423.521 131.00063 L 424.23034 131.69433 L 424.51901 132.64356 L 424.31599 133.61472 L 423.67124 134.36882 L 422.74341 134.72027 L 421.521 134.46473 L 408.34734 126.85891 L 396.17367 133.88738 L 396.17367 149.09903 L 395.92758 150.06018 L 395.24986 150.7848 L 394.3073 151.09456 L 393.33185 150.91323 L 392.56357 150.28544 L 392.17367 149.09903 L 392.17367 119.83044 L 381 126.28156 L 380.04457 126.54901 L 379 126.28156 L 364.82633 118.09839 L 364.117 117.40469 L 363.82633 116.36634 L 363.82633 103.4641 L 338.479 118.09839 L 337.52357 118.36584 L 336.55717 118.14123 L 335.81763 117.47983 L 335.48694 116.5444 L 335.64649 115.56516 L 336.479 114.63429 L 349.65266 107.02847 L 349.65266 92.97153 L 336.479 85.36571 L 335.76966 84.67201 L 335.48099 83.72278 L 335.68401 82.75162 L 336.32876 81.99752 L 337.25659 81.64607 L 338.479 81.90161 L 363.82633 96.5359 L 363.82633 83.63366 L 364.07242 82.67251 L 364.82633 81.90161 L 379 73.71844 L 379.3945 73.60801 L 379.77759 73.4629 L 379.85504 73.47909 L 379.95543 73.45099 L 380.92183 73.6756 L 380.9605 73.71018 L 381 73.71844 L 392.17367 80.16956 L 392.17367 50.90097 L 392.41976 49.93982 L 393.09748 49.2152 L 394.04004 48.90544 Z M 396.17367 129.26858 L 404.34734 124.54951 L 396.17367 119.83044 Z M 367.82633 84.78836 L 367.82633 115.21164 L 380 122.24011 L 406.34734 107.02847 L 406.34734 92.97153 L 380 77.75989 Z M 353.65266 104.71907 L 361.82633 100 L 353.65266 95.28093 Z M 396.17367 80.16956 L 404.34734 75.45049 L 396.17367 70.73142 Z" stroke-miterlimit="10"/><path fill="#222222" stroke="#cccccc" paint-order="fill stroke markers" d=" M 529.44491 48.51584 L 530.21319 49.14363 L 530.60309 50.33004 L 530.60309 69.04332 L 545.80927 77.82261 L 562.01545 68.46597 L 562.97088 68.19852 L 563.93728 68.42313 L 564.67682 69.08453 L 565.00751 70.01996 L 564.84796 70.9992 L 564.01545 71.93007 L 547.80927 81.28671 L 547.80927 118.71329 L 564.01545 128.06993 L 564.72478 128.76363 L 565.01346 129.71286 L 564.81044 130.68402 L 564.16569 131.43812 L 563.23786 131.78957 L 562.01545 131.53403 L 545.80927 122.17739 L 530.60309 130.95668 L 530.60309 149.66996 L 530.357 150.63111 L 529.67928 151.35573 L 528.73672 151.66549 L 527.76127 151.48416 L 526.99299 150.85637 L 526.60309 149.66996 L 526.60309 130.95668 L 494.19073 112.24339 L 477.98455 121.60004 L 477.02912 121.86749 L 476.06272 121.64288 L 475.32318 120.98148 L 474.99249 120.04605 L 475.15204 119.06681 L 475.98455 118.13594 L 492.19073 108.77929 L 492.19073 91.22071 L 475.98455 81.86406 L 475.27521 81.17036 L 474.98654 80.22113 L 475.18956 79.24997 L 475.83431 78.49587 L 476.76214 78.14442 L 477.98455 78.39996 L 494.19073 87.75661 L 526.60309 69.04332 L 526.60309 50.33004 L 526.84918 49.36889 L 527.5269 48.64427 L 528.46946 48.33451 Z M 515.39691 119.86799 L 528.60309 127.49258 L 543.80927 118.71329 L 543.80927 103.4641 Z M 513.39691 116.40389 L 524.6031 109.93399 L 513.39691 103.4641 Z M 496.19073 91.22071 L 496.19073 108.77929 L 509.39691 116.40388 L 509.39691 83.59612 Z M 530.60309 106.46989 L 541.80927 100 L 530.60309 93.53011 Z M 515.39691 100 L 526.60309 106.46989 L 526.60309 93.53011 Z M 513.39691 96.5359 L 524.6031 90.06601 L 513.39691 83.59611 Z M 515.39691 80.13201 L 543.80927 96.5359 L 543.80927 81.28671 L 528.60309 72.50742 Z" stroke-miterlimit="10"/><path fill="#222222" stroke="#cccccc" paint-order="fill stroke markers" d=" M 646.66815 49.08677 L 647.43643 49.71456 L 647.82633 50.90097 L 647.82633 66.11262 L 661 73.71844 L 661.29289 74.00487 L 661.6101 74.26408 L 661.63481 74.33926 L 661.70933 74.41214 L 661.99801 75.36137 L 661.9874 75.41214 L 662 75.45049 L 662 88.35273 L 673.17367 81.90161 L 674.1291 81.63416 L 675.17367 81.90161 L 688.34734 89.50743 L 701.521 81.90161 L 702.47643 81.63416 L 703.44283 81.85877 L 704.18237 82.52017 L 704.51306 83.4556 L 704.35351 84.43484 L 703.521 85.36571 L 690.34734 92.97153 L 690.34734 107.02847 L 703.521 114.63429 L 704.23034 115.32799 L 704.51901 116.27722 L 704.31599 117.24838 L 703.67124 118.00248 L 702.74341 118.35393 L 701.521 118.09839 L 688.34734 110.49257 L 675.17367 118.09839 L 674.77917 118.20882 L 674.39608 118.35393 L 674.31863 118.33774 L 674.21824 118.36584 L 673.25184 118.14123 L 673.21317 118.10665 L 673.17367 118.09839 L 662 111.64727 L 662 124.54951 L 661.89838 124.94639 L 661.83251 125.35069 L 661.77977 125.40966 L 661.75391 125.51066 L 661.07619 126.23528 L 661.0269 126.25148 L 661 126.28156 L 647.82633 133.88738 L 647.82633 149.09903 L 647.58024 150.06018 L 646.90252 150.7848 L 645.95996 151.09456 L 644.98451 150.91323 L 644.21623 150.28544 L 643.82633 149.09903 L 643.82633 133.88738 L 631.65266 126.85891 L 618.479 134.46473 L 617.52357 134.73218 L 616.55717 134.50757 L 615.81763 133.84617 L 615.48694 132.91074 L 615.64649 131.9315 L 616.479 131.00063 L 629.65266 123.39481 L 629.65266 108.18317 L 629.89875 107.22202 L 630.65266 106.45112 L 641.82633 100 L 630.65266 93.54888 L 630.35977 93.26245 L 630.04256 93.00324 L 630.01785 92.92806 L 629.94333 92.85518 L 629.65465 91.90595 L 629.66526 91.85518 L 629.65266 91.81683 L 629.65266 76.60519 L 616.479 68.99937 L 615.76966 68.30567 L 615.48099 67.35644 L 615.68401 66.38528 L 616.32876 65.63118 L 617.25659 65.27973 L 618.479 65.53527 L 631.65266 73.14109 L 643.82633 66.11262 L 643.82633 50.90097 L 644.07242 49.93982 L 644.75014 49.2152 L 645.6927 48.90544 Z M 633.65266 109.33787 L 633.65266 123.39481 L 645.82633 130.42328 L 658 123.39481 L 658 109.33787 L 645.82633 102.3094 Z M 662 92.97153 L 662 107.02847 L 674.17367 114.05694 L 686.34734 107.02847 L 686.34734 92.97153 L 674.17367 85.94306 Z M 649.82633 100 L 658 104.71907 L 658 95.28093 Z M 633.65266 76.60519 L 633.65266 90.66213 L 645.82633 97.6906 L 658 90.66213 L 658 76.60519 L 645.82633 69.57672 Z" stroke-miterlimit="10"/><path fill="#222222" stroke="#cccccc" paint-order="fill stroke markers" d=" M 827.9408 51.60512 L 841.41119 59.38226 L 842.12053 60.07596 L 842.41119 61.11431 L 842.41119 76.66859 L 842.1651 77.62974 L 841.41119 78.40064 L 830.9408 84.44572 L 841.41119 90.49081 L 842.12053 91.18451 L 842.4092 92.13374 L 842.20618 93.1049 L 841.56143 93.859 L 840.6336 94.21045 L 839.41119 93.95491 L 826.9408 86.75512 L 815.4704 93.37756 L 815.4704 106.62244 L 826.9408 113.24488 L 839.41119 106.04509 L 840.36662 105.77764 L 841.33302 106.00225 L 842.07256 106.66365 L 842.40325 107.59908 L 842.2437 108.57832 L 841.41119 109.50919 L 830.9408 115.55428 L 841.41119 121.59936 L 842.12053 122.29306 L 842.41119 123.33141 L 842.41119 138.88569 L 842.1651 139.84684 L 841.41119 140.61774 L 827.9408 148.39488 L 826.98537 148.66233 L 825.9408 148.39488 L 812.4704 140.61774 L 812.17749 140.33128 L 811.8603 140.0721 L 811.8356 139.99693 L 811.76106 139.92404 L 811.47239 138.97481 L 811.483 138.92404 L 811.4704 138.88569 L 811.4704 126.79551 L 801 132.8406 L 800.04457 133.10805 L 799.07817 132.88344 L 798.33863 132.22204 L 798.00794 131.28661 L 798.16749 130.30737 L 799 129.3765 L 811.4704 122.17671 L 811.4704 108.93184 L 800 102.3094 L 788.5296 108.93184 L 788.5296 123.33141 L 788.28351 124.29256 L 787.60579 125.01718 L 786.66323 125.32694 L 785.68778 125.14561 L 784.9195 124.51782 L 784.5296 123.33141 L 784.5296 111.24124 L 774.0592 117.28633 L 773.10377 117.55378 L 772.0592 117.28633 L 758.58881 109.50919 L 757.87947 108.81549 L 757.58881 107.77714 L 757.58881 92.22286 L 757.8349 91.26171 L 758.58881 90.49081 L 772.0592 82.71367 L 773.01463 82.44622 L 774.0592 82.71367 L 784.5296 88.75876 L 784.5296 76.66859 L 784.77569 75.70744 L 785.45341 74.98282 L 786.39597 74.67306 L 787.37142 74.85439 L 788.1397 75.48218 L 788.5296 76.66859 L 788.5296 91.06816 L 800 97.6906 L 811.4704 91.06816 L 811.4704 77.82329 L 799 70.6235 L 798.29066 69.9298 L 798.00199 68.98057 L 798.20501 68.00941 L 798.84976 67.25531 L 799.77759 66.90386 L 801 67.1594 L 811.4704 73.20449 L 811.4704 61.11431 L 811.57202 60.71743 L 811.63789 60.31313 L 811.69063 60.25416 L 811.71649 60.15316 L 812.39421 59.42854 L 812.4435 59.41234 L 812.4704 59.38226 L 825.9408 51.60512 L 826.89623 51.33767 Z M 815.4704 137.73099 L 826.9408 144.35343 L 838.41119 137.73099 L 838.41119 124.48611 L 815.4704 111.24124 Z M 761.58881 93.37756 L 761.58881 106.62244 L 773.0592 113.24488 L 796 100 L 773.0592 86.75512 Z M 804 100 L 811.4704 104.31304 L 811.4704 95.68696 Z M 815.4704 62.26901 L 815.4704 88.75876 L 838.41119 75.51389 L 838.41119 62.26901 L 826.9408 55.64657 Z" stroke-miterlimit="10"/><path fill="#222222" stroke="#cccccc" paint-order="fill stroke markers" d=" M 86.07438 188.97639 L 86.66815 189.08677 L 86.74238 189.14743 L 86.82633 189.16892 L 143.521 221.90161 L 143.84477 222.21824 L 144.18237 222.52017 L 144.19459 222.56035 L 144.23034 222.59531 L 144.51901 223.54454 L 144.50878 223.59348 L 144.521 223.63366 L 144.521 256.36634 L 144.41938 256.76322 L 144.35351 257.16752 L 144.30077 257.22649 L 144.27491 257.32749 L 143.59719 258.05211 L 143.5479 258.06831 L 143.521 258.09839 L 86.82633 290.83108 L 86.43183 290.94151 L 86.04874 291.08662 L 85.97129 291.07043 L 85.8709 291.09853 L 84.9045 290.87392 L 84.86583 290.83934 L 84.82633 290.83108 L 56.479 274.46473 L 56.15523 274.1481 L 55.81763 273.84617 L 55.80541 273.80599 L 55.76966 273.77103 L 55.48099 272.8218 L 55.49122 272.77286 L 55.479 272.73268 L 55.479 207.26732 L 55.59136 206.82848 L 55.68401 206.38528 L 55.71268 206.35462 L 55.72509 206.30617 L 56.40281 205.58155 L 56.45032 205.56594 L 56.479 205.53527 L 84.82633 189.16892 L 85.2624 189.04685 L 85.6927 188.90544 L 85.7377 188.9138 L 85.78176 188.90147 Z M 87.82633 285.63493 L 110.17367 272.73268 L 87.82633 259.83044 Z M 61.479 272.73268 L 83.82633 285.63493 L 83.82633 259.83044 Z M 59.479 269.26858 L 81.82633 256.36634 L 59.479 243.4641 Z M 116.17367 269.26858 L 138.521 256.36634 L 116.17367 243.4641 Z M 61.479 240 L 112.17367 269.26858 L 112.17367 210.73142 Z M 118.17367 240 L 140.521 252.90224 L 140.521 227.09776 Z M 59.479 236.5359 L 81.82633 223.63366 L 59.479 210.73142 Z M 116.17367 236.5359 L 138.521 223.63366 L 116.17367 210.73142 Z M 87.82633 220.16956 L 110.17367 207.26732 L 87.82633 194.36507 Z M 61.479 207.26732 L 83.82633 220.16956 L 83.82633 194.36507 Z" stroke-miterlimit="10"/><path fill="#222222" stroke="#cccccc" paint-order="fill stroke markers" d=" M 249.44491 188.51584 L 250.21319 189.14363 L 250.60309 190.33004 L 250.60309 209.04332 L 265.80927 217.82261 L 282.01545 208.46597 L 282.97088 208.19852 L 283.93728 208.42313 L 284.67682 209.08453 L 285.00751 210.01996 L 284.84796 210.9992 L 284.01545 211.93007 L 267.80927 221.28671 L 267.80927 258.71329 L 284.01545 268.06993 L 284.72478 268.76363 L 285.01346 269.71286 L 284.81044 270.68402 L 284.16569 271.43812 L 283.23786 271.78957 L 282.01545 271.53403 L 265.80927 262.17739 L 250.60309 270.95668 L 250.60309 289.66996 L 250.357 290.63111 L 249.67928 291.35573 L 248.73672 291.66549 L 247.76127 291.48416 L 246.99299 290.85637 L 246.60309 289.66996 L 246.60309 270.95668 L 214.19073 252.24339 L 197.98455 261.60004 L 197.02912 261.86749 L 196.06272 261.64288 L 195.32318 260.98148 L 194.99249 260.04605 L 195.15204 259.06681 L 195.98455 258.13594 L 212.19073 248.77929 L 212.19073 231.22071 L 195.98455 221.86406 L 195.27521 221.17036 L 194.98654 220.22113 L 195.18956 219.24997 L 195.83431 218.49587 L 196.76214 218.14442 L 197.98455 218.39996 L 214.19073 227.75661 L 246.60309 209.04332 L 246.60309 190.33004 L 246.84918 189.36889 L 247.5269 188.64427 L 248.46946 188.33451 Z M 235.39691 259.86799 L 248.60309 267.49258 L 263.80927 258.71329 L 263.80927 243.4641 Z M 233.39691 256.40389 L 244.6031 249.93399 L 233.39691 243.4641 Z M 216.19073 231.22071 L 216.19073 248.77929 L 229.39691 256.40388 L 229.39691 223.59612 Z M 250.60309 246.46989 L 261.80927 240 L 250.60309 233.53011 Z M 235.39691 240 L 246.60309 246.46989 L 246.60309 233.53011 Z M 233.39691 236.5359 L 244.6031 230.06601 L 233.39691 223.59611 Z M 235.39691 220.13201 L 263.80927 236.5359 L 263.80927 221.28671 L 248.60309 212.50742 Z" stroke-miterlimit="10"/><path fill="#222222" stroke="#cccccc" paint-order="fill stroke markers" d=" M 360.19874 190.2295 L 381 202.23912 L 381.70934 202.93282 L 382 203.97117 L 382 224.52629 L 399.80126 214.24873 L 400.75669 213.98128 L 401.80126 214.24873 L 422.60251 226.25834 L 423.31185 226.95204 L 423.60052 227.90127 L 423.3975 228.87243 L 422.75275 229.62653 L 421.82492 229.97798 L 420.60251 229.72244 L 400.80126 218.29018 L 382 229.14509 L 382 250.85491 L 400.80126 261.70982 L 420.60251 250.27756 L 421.55794 250.01011 L 422.52434 250.23472 L 423.26388 250.89612 L 423.59457 251.83155 L 423.43502 252.81079 L 422.60251 253.74166 L 401.80126 265.75127 L 401.40676 265.8617 L 401.02367 266.00681 L 400.94622 265.99062 L 400.84583 266.01872 L 399.87943 265.79411 L 399.84076 265.75953 L 399.80126 265.75127 L 382 255.47371 L 382 276.02883 L 381.89838 276.42571 L 381.83251 276.83001 L 381.77977 276.88898 L 381.75391 276.98998 L 381.07619 277.7146 L 381.0269 277.7308 L 381 277.76088 L 360.19874 289.7705 L 359.24331 290.03795 L 358.27691 289.81334 L 357.53737 289.15194 L 357.20668 288.21651 L 357.36623 287.23727 L 358.19874 286.3064 L 378 274.87413 L 378 253.16431 L 359.19875 242.3094 L 340.39749 253.16431 L 340.39749 276.02883 L 340.1514 276.98998 L 339.47368 277.7146 L 338.53112 278.02436 L 337.55567 277.84303 L 336.78739 277.21524 L 336.39749 276.02883 L 336.39749 252.00961 L 336.49911 251.61273 L 336.56498 251.20843 L 336.61772 251.14946 L 336.64358 251.04846 L 337.3213 250.32384 L 337.37059 250.30764 L 337.39749 250.27756 L 355.19875 240 L 337.39749 229.72244 L 336.68816 229.02874 L 336.39749 227.99039 L 336.39749 203.97117 L 336.64358 203.01002 L 337.3213 202.2854 L 338.26386 201.97564 L 339.23931 202.15697 L 340.00759 202.78476 L 340.39749 203.97117 L 340.39749 226.83569 L 359.19875 237.6906 L 378 226.83569 L 378 205.12587 L 358.19874 193.6936 L 357.4894 192.9999 L 357.20073 192.05067 L 357.40375 191.07951 L 358.0485 190.32541 L 358.97633 189.97396 Z M 363.19875 240 L 378 248.54551 L 378 231.45449 Z" stroke-miterlimit="10"/><path fill="#222222" stroke="#cccccc" paint-order="fill stroke markers" d=" M 547.9408 191.60512 L 561.41119 199.38226 L 562.12053 200.07596 L 562.41119 201.11431 L 562.41119 216.66859 L 562.1651 217.62974 L 561.41119 218.40064 L 548.9408 225.60042 L 548.9408 254.39958 L 561.41119 261.59936 L 562.12052 262.29306 L 562.41119 263.33141 L 562.41119 278.88569 L 562.1651 279.84684 L 561.41119 280.61774 L 547.9408 288.39488 L 546.98537 288.66233 L 545.9408 288.39488 L 532.4704 280.61774 L 531.76106 279.92404 L 531.4704 278.88569 L 531.4704 264.48611 L 506.5296 250.08654 L 494.0592 257.28633 L 493.10377 257.55378 L 492.0592 257.28633 L 478.58881 249.50919 L 477.87947 248.81549 L 477.58881 247.77714 L 477.58881 232.22286 L 477.8349 231.26171 L 478.58881 230.49081 L 492.0592 222.71367 L 492.4537 222.60324 L 492.83679 222.45813 L 492.91424 222.47432 L 493.01463 222.44622 L 493.98103 222.67083 L 494.0197 222.70541 L 494.0592 222.71367 L 506.5296 229.91346 L 531.4704 215.51389 L 531.4704 201.11431 L 531.71649 200.15316 L 532.4704 199.38226 L 545.9408 191.60512 L 546.89623 191.33767 Z M 524 255.55428 L 534.4704 261.59936 L 535.17973 262.29306 L 535.4704 263.33141 L 535.4704 277.73099 L 546.9408 284.35343 L 558.41119 277.73099 L 558.41119 264.48611 L 545.9408 257.28633 L 545.23147 256.59263 L 544.9408 255.55428 L 544.9408 243.4641 Z M 481.58881 233.37756 L 481.58881 246.62244 L 493.0592 253.24488 L 505.5296 246.04509 L 506.48503 245.77764 L 507.5296 246.04509 L 518 252.09018 L 518 227.90982 L 507.5296 233.95491 L 506.57417 234.22236 L 505.5296 233.95491 L 493.0592 226.75512 Z M 522 252.09018 L 529.4704 247.77714 L 522 243.4641 Z M 535.4704 244.31304 L 542.9408 240 L 535.4704 235.68696 Z M 524 240 L 531.4704 244.31304 L 531.4704 235.68696 Z M 522 236.5359 L 529.4704 232.22286 L 522 227.90982 Z M 535.4704 202.26901 L 535.4704 216.66859 L 535.22431 217.62974 L 534.4704 218.40064 L 524 224.44572 L 544.9408 236.5359 L 544.9408 224.44572 L 545.18689 223.48457 L 545.9408 222.71367 L 558.41119 215.51389 L 558.41119 202.26901 L 546.9408 195.64657 Z" stroke-miterlimit="10"/><path fill="#222222" stroke="#cccccc" paint-order="fill stroke markers" d=" M 640.04056 190.14735 L 640.80884 190.77514 L 641.19874 191.96155 L 641.19874 212.51668 L 659 202.23912 L 659.3945 202.12869 L 659.77759 201.98358 L 659.85504 201.99977 L 659.95543 201.97167 L 660.92183 202.19628 L 660.9605 202.23086 L 661 202.23912 L 681.80126 214.24873 L 682.51059 214.94243 L 682.80126 215.98078 L 682.80126 236.5359 L 700.60251 226.25834 L 701.55794 225.99089 L 702.52434 226.2155 L 703.26388 226.8769 L 703.59457 227.81233 L 703.43502 228.79157 L 702.60251 229.72244 L 684.80125 240 L 702.60251 250.27756 L 703.31185 250.97126 L 703.60052 251.92049 L 703.3975 252.89165 L 702.75275 253.64575 L 701.82492 253.9972 L 700.60251 253.74166 L 682.80126 243.4641 L 682.80126 264.01922 L 682.55517 264.98037 L 681.80126 265.75127 L 661 277.76088 L 660.04457 278.02833 L 659 277.76088 L 641.19874 267.48332 L 641.19874 288.03845 L 640.95265 288.9996 L 640.27493 289.72422 L 639.33237 290.03398 L 638.35692 289.85265 L 637.58864 289.22486 L 637.19874 288.03845 L 637.19874 267.48332 L 619.39749 277.76088 L 618.44206 278.02833 L 617.47566 277.80372 L 616.73612 277.14232 L 616.40543 276.20689 L 616.56498 275.22765 L 617.39749 274.29678 L 635.19875 264.01922 L 617.39749 253.74166 L 616.68815 253.04796 L 616.39749 252.00961 L 616.39749 227.99039 L 616.64358 227.02924 L 617.39749 226.25834 L 635.19875 215.98078 L 617.39749 205.70322 L 616.68815 205.00952 L 616.39948 204.06029 L 616.6025 203.08913 L 617.24725 202.33503 L 618.17508 201.98358 L 619.39749 202.23912 L 637.19874 212.51668 L 637.19874 191.96155 L 637.44483 191.0004 L 638.12255 190.27578 L 639.06511 189.96602 Z M 643.19874 264.01922 L 660 273.71943 L 678.80126 262.86452 L 678.80126 243.4641 Z M 641.19874 260.55512 L 656 252.00961 L 641.19874 243.4641 Z M 620.39749 229.14509 L 620.39749 250.85491 L 637.19874 260.55512 L 637.19874 219.44488 Z M 662 248.54551 L 676.80126 240 L 662 231.45449 Z M 643.19874 240 L 658 248.54551 L 658 231.45449 Z M 641.19874 236.5359 L 656 227.99039 L 641.19874 219.44488 Z M 643.19874 215.98078 L 678.80126 236.5359 L 678.80126 217.13548 L 660 206.28057 Z" stroke-miterlimit="10"/><path fill="#222222" stroke="#cccccc" paint-order="fill stroke markers" d=" M 786.82633 189.16892 L 843.521 221.90161 L 844.23034 222.59531 L 844.51901 223.54454 L 844.31599 224.5157 L 843.521 225.36571 L 818.17367 240 L 843.521 254.63429 L 843.84477 254.95092 L 844.18237 255.25285 L 844.19762 255.29599 L 844.23034 255.32799 L 844.3621 255.76126 L 844.51306 256.18828 L 844.5057 256.23345 L 844.51901 256.27722 L 844.42635 256.72047 L 844.35351 257.16752 L 844.3266 257.1976 L 844.31599 257.24838 L 843.67124 258.00248 L 843.57375 258.03941 L 843.521 258.09839 L 786.82633 290.83108 L 785.8709 291.09853 L 784.9045 290.87392 L 784.16496 290.21252 L 783.82633 289.09903 L 783.82633 259.83044 L 758.479 274.46473 L 757.52357 274.73218 L 756.55717 274.50757 L 755.81763 273.84617 L 755.479 272.73268 L 755.479 207.26732 L 755.59136 206.82848 L 755.68401 206.38528 L 755.71374 206.35051 L 755.72509 206.30617 L 756.03449 205.97536 L 756.32876 205.63118 L 756.37155 205.61497 L 756.40281 205.58155 L 756.83313 205.44013 L 757.25659 205.27973 L 757.29609 205.28799 L 757.34537 205.27179 L 758.32082 205.45312 L 758.40154 205.51908 L 758.479 205.53527 L 783.82633 220.16956 L 783.82633 190.90097 L 784.07242 189.93982 L 784.75014 189.2152 L 785.6927 188.90544 Z M 787.82633 285.63493 L 810.17367 272.73268 L 787.82633 259.83044 Z M 759.479 269.26858 L 781.82634 256.36634 L 759.479 243.4641 Z M 816.17367 269.26858 L 838.521 256.36634 L 816.17367 243.4641 Z M 789.82633 256.36634 L 812.17367 269.26858 L 812.17367 243.4641 Z M 787.82633 252.90224 L 810.17367 240 L 787.82633 227.09776 Z M 761.479 240 L 783.82633 252.90224 L 783.82633 227.09776 Z M 759.479 236.5359 L 781.82634 223.63366 L 759.479 210.73142 Z M 816.17367 236.5359 L 838.521 223.63366 L 816.17367 210.73142 Z M 789.82633 223.63366 L 812.17367 236.5359 L 812.17367 210.73142 Z M 787.82633 220.16956 L 810.17367 207.26732 L 787.82633 194.36507 Z" stroke-miterlimit="10"/><path fill="#222222" stroke="#cccccc" paint-order="fill stroke markers" d=" M 74.0592 331.60512 L 87.5296 339.38226 L 88.23894 340.07596 L 88.52761 341.02519 L 88.32459 341.99635 L 87.5296 342.84636 L 77.0592 348.89145 L 87.5296 354.93654 L 88.23894 355.63024 L 88.5296 356.66859 L 88.5296 371.06816 L 100 377.6906 L 112.4704 370.49081 L 113.42583 370.22336 L 114.4704 370.49081 L 124.9408 376.5359 L 124.9408 364.44572 L 125.18689 363.48457 L 125.86461 362.75995 L 126.80717 362.45019 L 127.9408 362.71367 L 141.41119 370.49081 L 141.7041 370.77727 L 142.02129 371.03645 L 142.04599 371.11162 L 142.12053 371.18451 L 142.4092 372.13374 L 142.39859 372.18451 L 142.41119 372.22286 L 142.41119 387.77714 L 142.1651 388.73829 L 141.41119 389.50919 L 127.9408 397.28633 L 126.98537 397.55378 L 126.01897 397.32917 L 125.27943 396.66777 L 124.9408 395.55428 L 124.9408 383.4641 L 114.4704 389.50919 L 113.51497 389.77664 L 112.4704 389.50919 L 100 382.3094 L 88.5296 388.93184 L 88.5296 403.33141 L 88.28351 404.29256 L 87.5296 405.06346 L 77.0592 411.10855 L 87.5296 417.15364 L 88.23894 417.84734 L 88.52761 418.79657 L 88.32459 419.76773 L 87.5296 420.61774 L 74.0592 428.39488 L 73.6647 428.50531 L 73.28161 428.65042 L 73.20416 428.63423 L 73.10377 428.66233 L 72.13737 428.43772 L 72.0987 428.40314 L 72.0592 428.39488 L 58.58881 420.61774 L 57.87947 419.92404 L 57.58881 418.88569 L 57.58881 403.33141 L 57.8349 402.37026 L 58.51262 401.64564 L 59.45518 401.33588 L 60.58881 401.59936 L 71.0592 407.64445 L 71.0592 395.55428 L 71.16082 395.1574 L 71.22669 394.7531 L 71.27943 394.69413 L 71.30529 394.59313 L 71.98301 393.86851 L 72.0323 393.85231 L 72.0592 393.82223 L 84.5296 386.62244 L 84.5296 373.37756 L 72.0592 366.17777 L 71.34986 365.48407 L 71.0592 364.44572 L 71.0592 352.35555 L 60.58881 358.40064 L 60.15274 358.52271 L 59.72244 358.66412 L 59.67744 358.65576 L 59.63338 358.66809 L 59.19221 358.56555 L 58.74699 358.48279 L 58.71156 358.45384 L 58.66698 358.44348 L 58.32931 358.14149 L 57.97871 357.855 L 57.96611 357.81667 L 57.92744 357.78208 L 57.59675 356.84665 L 57.61351 356.74376 L 57.58881 356.66859 L 57.58881 341.11431 L 57.69043 340.71743 L 57.7563 340.31313 L 57.80904 340.25416 L 57.8349 340.15316 L 58.51262 339.42854 L 58.56191 339.41234 L 58.58881 339.38226 L 72.0592 331.60512 L 73.01463 331.33767 Z M 61.58881 417.73099 L 73.0592 424.35343 L 82.5296 418.88569 L 61.58881 406.79551 Z M 75.0592 396.70898 L 75.0592 407.64445 L 84.5296 402.17671 L 84.5296 391.24124 Z M 128.9408 392.09018 L 138.41119 386.62244 L 138.41119 373.37756 L 128.9408 367.90982 Z M 104 380 L 113.4704 385.46774 L 122.9408 380 L 113.4704 374.53226 Z M 88.5296 384.31304 L 96 380 L 88.5296 375.68696 Z M 75.0592 363.29102 L 84.5296 368.75876 L 84.5296 357.82329 L 75.0592 352.35555 Z M 61.58881 342.26901 L 61.58881 353.20449 L 82.5296 341.11431 L 73.0592 335.64657 Z" stroke-miterlimit="10"/><path fill="#222222" stroke="#cccccc" paint-order="fill stroke markers" d=" M 226.66815 329.08677 L 227.43643 329.71456 L 227.82633 330.90097 L 227.82633 362.47896 L 254.17367 377.6906 L 281.521 361.90161 L 282.47643 361.63416 L 283.44283 361.85877 L 284.18237 362.52017 L 284.51306 363.4556 L 284.35351 364.43484 L 283.521 365.36571 L 270.34734 372.97153 L 270.34734 387.02847 L 283.521 394.63429 L 284.23034 395.32799 L 284.51901 396.27722 L 284.31599 397.24838 L 283.67124 398.00248 L 282.74341 398.35393 L 281.521 398.09839 L 254.17367 382.3094 L 227.82633 397.52104 L 227.82633 429.09903 L 227.58024 430.06018 L 226.90252 430.7848 L 225.95996 431.09456 L 224.98451 430.91323 L 224.21623 430.28544 L 223.82633 429.09903 L 223.82633 413.88738 L 211.65266 406.85891 L 198.479 414.46473 L 197.52357 414.73218 L 196.55717 414.50757 L 195.81763 413.84617 L 195.48694 412.91074 L 195.64649 411.9315 L 196.479 411.00063 L 223.82633 395.21164 L 223.82633 364.78836 L 196.479 348.99937 L 195.76966 348.30567 L 195.48099 347.35644 L 195.68401 346.38528 L 196.32876 345.63118 L 197.25659 345.27973 L 198.479 345.53527 L 211.65266 353.14109 L 223.82633 346.11262 L 223.82633 330.90097 L 224.07242 329.93982 L 224.75014 329.2152 L 225.6927 328.90544 Z M 215.65266 404.54951 L 223.82633 409.26858 L 223.82633 399.83044 Z M 227.82633 392.90224 L 236 388.18317 L 227.82633 383.4641 Z M 242 384.71907 L 250.17367 380 L 242 375.28093 Z M 258.17367 380 L 266.34734 384.71907 L 266.34734 375.28093 Z M 229.82633 380 L 238 384.71907 L 238 375.28093 Z M 227.82633 376.5359 L 236 371.81683 L 227.82633 367.09776 Z M 215.65266 355.45049 L 223.82633 360.16956 L 223.82633 350.73142 Z" stroke-miterlimit="10"/><path fill="#222222" stroke="#cccccc" paint-order="fill stroke markers" d=" M 417.8966 334.80177 L 418.34182 334.88453 L 418.37725 334.91348 L 418.42183 334.92384 L 418.7595 335.22583 L 419.1101 335.51232 L 419.1227 335.55065 L 419.16137 335.58524 L 419.49206 336.52067 L 419.4753 336.62356 L 419.5 336.69873 L 419.5 423.30127 L 419.38764 423.74011 L 419.29499 424.18331 L 419.26526 424.21808 L 419.25391 424.26242 L 418.94451 424.59323 L 418.65024 424.93741 L 418.60745 424.95362 L 418.57619 424.98704 L 418.14587 425.12846 L 417.72241 425.28886 L 417.68291 425.2806 L 417.63363 425.2968 L 416.65818 425.11547 L 416.57746 425.04951 L 416.5 425.03332 L 341.5 381.73205 L 340.79066 381.03835 L 340.50199 380.08912 L 340.70501 379.11796 L 341.5 378.26795 L 416.5 334.96668 L 416.93607 334.84461 L 417.36637 334.7032 L 417.41137 334.71156 L 417.45543 334.69923 Z M 402.75 412.47595 L 415.5 419.83717 L 415.5 405.11474 Z M 400.75 409.01185 L 413.5 401.65064 L 400.75 394.28942 Z M 384 401.65064 L 396.75 409.01185 L 396.75 394.28942 Z M 382 398.18654 L 413.5 380 L 382 361.81346 Z M 402.75 390.82532 L 415.5 398.18654 L 415.5 383.4641 Z M 365.25 390.82532 L 378 398.18653 L 378 383.4641 Z M 363.25 387.36122 L 376 380 L 363.25 372.63878 Z M 346.5 380 L 359.25 387.36122 L 359.25 372.63878 Z M 365.25 369.17468 L 378 376.5359 L 378 361.81347 Z M 402.75 369.17468 L 415.5 376.5359 L 415.5 361.81346 Z M 400.75 365.71058 L 413.5 358.34936 L 400.75 350.98815 Z M 384 358.34936 L 396.75 365.71058 L 396.75 350.98815 Z M 402.75 347.52405 L 415.5 354.88526 L 415.5 340.16283 Z" stroke-miterlimit="10"/><path fill="#222222" stroke="#cccccc" paint-order="fill stroke markers" d=" M 534.42172 328.97639 L 535.01549 329.08677 L 535.08972 329.14743 L 535.17367 329.16892 L 563.521 345.53527 L 563.84477 345.8519 L 564.18237 346.15383 L 564.19762 346.19697 L 564.23034 346.22897 L 564.31177 346.51986 L 564.51306 347.08926 L 564.49764 347.18388 L 564.521 347.26732 L 564.521 412.73268 L 564.40864 413.17152 L 564.31599 413.61472 L 564.28626 413.64949 L 564.27491 413.69383 L 564.06369 413.90981 L 563.67124 414.36882 L 563.58158 414.40278 L 563.521 414.46473 L 535.17367 430.83108 L 534.7376 430.95315 L 534.3073 431.09456 L 534.2623 431.0862 L 534.21824 431.09853 L 533.92562 431.02361 L 533.33185 430.91323 L 533.25762 430.85257 L 533.17367 430.83108 L 476.479 398.09839 L 476.15523 397.78176 L 475.81763 397.47983 L 475.80238 397.43669 L 475.76966 397.40469 L 475.68823 397.1138 L 475.48694 396.5444 L 475.50236 396.44978 L 475.479 396.36634 L 475.479 363.63366 L 475.58062 363.23678 L 475.64649 362.83248 L 475.69923 362.77351 L 475.72509 362.67251 L 476.40281 361.94789 L 476.4521 361.93169 L 476.479 361.90161 L 533.17367 329.16892 L 533.60974 329.04685 L 534.04004 328.90544 L 534.08504 328.9138 L 534.1291 328.90147 Z M 536.17367 425.63493 L 558.521 412.73268 L 536.17367 399.83044 Z M 509.82633 412.73268 L 532.17367 425.63493 L 532.17367 399.83044 Z M 507.82633 409.26858 L 530.17367 396.36634 L 507.82633 383.4641 Z M 538.17366 396.36634 L 560.521 409.26858 L 560.521 383.4641 Z M 481.479 396.36634 L 503.82633 409.26858 L 503.82633 383.4641 Z M 479.479 392.90224 L 501.82633 380 L 479.479 367.09776 Z M 536.17367 392.90224 L 558.521 380 L 536.17367 367.09776 Z M 509.82633 380 L 532.17367 392.90224 L 532.17367 367.09776 Z M 507.82633 376.5359 L 530.17367 363.63366 L 507.82633 350.73142 Z M 538.17366 363.63366 L 560.521 376.5359 L 560.521 350.73142 Z M 481.479 363.63366 L 503.82633 376.5359 L 503.82633 350.73142 Z M 536.17367 360.16956 L 558.521 347.26732 L 536.17367 334.36507 Z M 509.82633 347.26732 L 532.17367 360.16956 L 532.17367 334.36507 Z" stroke-miterlimit="10"/><path fill="#222222" stroke="#cccccc" paint-order="fill stroke markers" d=" M 676.44276 330.14735 L 677.21104 330.77514 L 677.60094 331.96155 L 677.60094 342.81647 L 686.00157 347.66657 L 695.4022 342.23912 L 696.35763 341.97167 L 697.32403 342.19628 L 698.06357 342.85768 L 698.39426 343.79311 L 698.23471 344.77235 L 697.4022 345.70322 L 690.00157 349.97597 L 697.4022 354.24873 L 698.11154 354.94243 L 698.4022 355.98078 L 698.4022 366.83569 L 707.80283 372.26314 L 708.51216 372.95684 L 708.80283 373.99519 L 708.80283 386.00481 L 708.55674 386.96596 L 707.80283 387.73686 L 698.4022 393.16431 L 698.4022 404.01922 L 698.15611 404.98037 L 697.4022 405.75127 L 690.00157 410.02403 L 697.4022 414.29678 L 698.11153 414.99048 L 698.40021 415.93971 L 698.19719 416.91087 L 697.55244 417.66497 L 696.62461 418.01642 L 695.4022 417.76088 L 686.00157 412.33343 L 677.60094 417.18353 L 677.60094 428.03845 L 677.35485 428.9996 L 676.67713 429.72422 L 675.73457 430.03398 L 674.75912 429.85265 L 673.99084 429.22486 L 673.60094 428.03845 L 673.60094 419.49293 L 666.20031 423.76569 L 665.24488 424.03314 L 664.20031 423.76569 L 654.79969 418.33823 L 645.39906 423.76569 L 644.44363 424.03314 L 643.39906 423.76569 L 632.99843 417.76088 L 632.28909 417.06718 L 631.99843 416.02883 L 631.99843 405.17392 L 622.5978 399.74647 L 621.88847 399.05277 L 621.5978 398.01442 L 621.5978 389.46891 L 614.19717 393.74166 L 613.24174 394.00911 L 612.27534 393.7845 L 611.5358 393.1231 L 611.20511 392.18767 L 611.36466 391.20843 L 612.19717 390.27756 L 621.5978 384.85011 L 621.5978 375.14989 L 612.19717 369.72244 L 611.48784 369.02874 L 611.19916 368.07951 L 611.40218 367.10835 L 612.04693 366.35425 L 612.97476 366.0028 L 614.19717 366.25834 L 621.5978 370.53109 L 621.5978 361.98558 L 621.84389 361.02443 L 622.5978 360.25353 L 631.99843 354.82608 L 631.99843 343.97117 L 632.24452 343.01002 L 632.99843 342.23912 L 643.39906 336.23431 L 644.35449 335.96686 L 645.39906 336.23431 L 654.79969 341.66177 L 664.20031 336.23431 L 665.15574 335.96686 L 666.20031 336.23431 L 673.60094 340.50707 L 673.60094 331.96155 L 673.84703 331.0004 L 674.52475 330.27578 L 675.46731 329.96602 Z M 655.79969 345.70322 L 654.84426 345.97067 L 653.79969 345.70322 L 644.39906 340.27576 L 635.99843 345.12587 L 635.99843 355.98078 L 635.75234 356.94193 L 634.99843 357.71283 L 625.5978 363.14028 L 625.5978 396.85972 L 634.99843 402.28717 L 635.70776 402.98087 L 635.99843 404.01922 L 635.99843 414.87413 L 644.39906 419.72424 L 653.79969 414.29678 L 654.75512 414.02933 L 655.79969 414.29678 L 665.20031 419.72424 L 694.4022 402.86452 L 694.4022 392.00961 L 694.64829 391.04846 L 695.4022 390.27756 L 704.80283 384.85011 L 704.80283 375.14989 L 695.4022 369.72244 L 695.10931 369.43601 L 694.7921 369.1768 L 694.76739 369.10162 L 694.69287 369.02874 L 694.40419 368.07951 L 694.4148 368.02874 L 694.4022 367.99039 L 694.4022 357.13548 L 665.20031 340.27576 Z" stroke-miterlimit="10"/><path fill="#222222" stroke="#cccccc" paint-order="fill stroke markers" d=" M 763.34182 334.88453 L 763.42254 334.95049 L 763.5 334.96668 L 782.25 345.792 L 782.54291 346.07846 L 782.8601 346.33764 L 782.8848 346.41281 L 782.95934 346.4857 L 783.24801 347.43493 L 783.2374 347.4857 L 783.25 347.52405 L 783.25 368.01998 L 800 377.6906 L 817.75 367.44263 L 818.70543 367.17518 L 819.75 367.44263 L 838.5 378.26795 L 839.20934 378.96165 L 839.49801 379.91088 L 839.29499 380.88204 L 838.5 381.73205 L 819.75 392.55737 L 818.79457 392.82482 L 817.75 392.55737 L 800 382.3094 L 783.25 391.98002 L 783.25 412.47595 L 783.14838 412.87283 L 783.08251 413.27713 L 783.02977 413.3361 L 783.00391 413.4371 L 782.32619 414.16172 L 782.2769 414.17792 L 782.25 414.208 L 763.5 425.03332 L 762.54457 425.30077 L 761.57817 425.07616 L 760.83863 424.41476 L 760.5 423.30127 L 760.5 401.65064 L 760.74609 400.68949 L 761.5 399.91859 L 779.25 389.67062 L 779.25 370.32938 L 761.5 360.08141 L 760.79066 359.38771 L 760.5 358.34936 L 760.5 336.69873 L 760.61236 336.25989 L 760.70501 335.81669 L 760.73474 335.78192 L 760.74609 335.73758 L 761.05549 335.40677 L 761.34976 335.06259 L 761.39255 335.04638 L 761.42381 335.01296 L 761.85413 334.87154 L 762.27759 334.71114 L 762.31709 334.7194 L 762.36637 334.7032 Z M 764.5 402.80534 L 764.5 419.83717 L 779.25 411.32125 L 779.25 394.28942 Z M 804 380 L 818.75 388.51592 L 833.5 380 L 818.75 371.48408 Z M 783.25 387.36122 L 796 380 L 783.25 372.63878 Z M 764.5 357.19466 L 779.25 365.71058 L 779.25 348.67875 L 764.5 340.16283 Z" stroke-miterlimit="10"/><path fill="#222222" stroke="#cccccc" paint-order="fill stroke markers" d=" M 109.52492 468.55515 L 110.26446 469.21655 L 110.60309 470.33004 L 110.60309 489.04332 L 125.80927 497.82261 L 142.01545 488.46597 L 142.45152 488.3439 L 142.88182 488.20249 L 142.92682 488.21085 L 142.97088 488.19852 L 143.41205 488.30106 L 143.85727 488.38382 L 143.8927 488.41277 L 143.93728 488.42313 L 144.27495 488.72512 L 144.62555 489.01161 L 144.63815 489.04994 L 144.67682 489.08453 L 145.00751 490.01996 L 144.99075 490.12285 L 145.01545 490.19802 L 145.01545 510.06601 L 144.91383 510.46289 L 144.84796 510.86719 L 144.79522 510.92616 L 144.76936 511.02716 L 144.09164 511.75178 L 144.04235 511.76798 L 144.01545 511.79806 L 129.80927 520 L 144.01545 528.20194 L 144.72479 528.89564 L 145.01545 529.93399 L 145.01545 549.80198 L 144.76936 550.76313 L 144.09164 551.48775 L 143.14908 551.79751 L 142.01545 551.53403 L 125.80927 542.17739 L 110.60309 550.95668 L 110.60309 569.66996 L 110.357 570.63111 L 109.67928 571.35573 L 108.73672 571.66549 L 107.60309 571.40201 L 90.39691 561.46802 L 90.10402 561.18159 L 89.78681 560.92238 L 89.7621 560.8472 L 89.68758 560.77432 L 89.3989 559.82509 L 89.40951 559.77432 L 89.39691 559.73597 L 89.39691 543.33209 L 75.19073 551.53403 L 74.79623 551.64446 L 74.41314 551.78957 L 74.33569 551.77338 L 74.2353 551.80148 L 73.2689 551.57687 L 73.23023 551.54229 L 73.19073 551.53403 L 55.98455 541.60004 L 55.27522 540.90634 L 54.98654 539.95711 L 55.18956 538.98595 L 55.98455 538.13594 L 72.19073 528.77929 L 72.19073 511.22071 L 55.98455 501.86406 L 55.27521 501.17036 L 54.98654 500.22113 L 55.18956 499.24997 L 55.98455 498.39996 L 73.19073 488.46597 L 74.14616 488.19852 L 75.19073 488.46597 L 89.39691 496.66791 L 89.39691 480.26403 L 89.49853 479.86715 L 89.5644 479.46285 L 89.61714 479.40388 L 89.643 479.30288 L 90.32072 478.57826 L 90.37001 478.56206 L 90.39691 478.53198 L 107.60309 468.59799 L 108.55852 468.33054 Z M 93.39691 541.02269 L 93.39691 558.58127 L 106.60309 566.20586 L 106.60309 549.80198 L 106.84918 548.84083 L 107.60309 548.06993 L 124.80927 538.13594 L 125.7647 537.86849 L 126.80927 538.13594 L 141.01545 546.33788 L 141.01545 531.08869 L 125.80927 522.3094 Z M 60.98455 500.13201 L 75.19073 508.33396 L 75.90007 509.02766 L 76.19073 510.06601 L 76.19073 529.93399 L 75.94464 530.89514 L 75.19073 531.66604 L 60.98455 539.86799 L 74.19073 547.49258 L 89.39691 538.71329 L 89.39691 501.28671 L 74.19073 492.50742 Z M 93.39691 536.40389 L 104.6031 529.93399 L 93.39691 523.4641 Z M 110.60309 526.46989 L 121.80928 520 L 110.60309 513.53011 Z M 95.39691 520 L 106.60309 526.46989 L 106.60309 513.53011 Z M 93.39691 481.41873 L 93.39691 498.97731 L 125.80927 517.6906 L 141.01545 508.91131 L 141.01545 493.66212 L 126.80927 501.86406 L 125.85384 502.13151 L 124.80927 501.86406 L 107.60309 491.93007 L 106.89376 491.23637 L 106.60309 490.19802 L 106.60309 473.79414 Z M 93.39691 516.5359 L 104.6031 510.06601 L 93.39691 503.59611 Z" stroke-miterlimit="10"/><path fill="#222222" stroke="#cccccc" paint-order="fill stroke markers" d=" M 261.64308 470.14735 L 262.41136 470.77514 L 262.80126 471.96155 L 262.80126 492.51668 L 280.60251 482.23912 L 281.55794 481.97167 L 282.52434 482.19628 L 283.26388 482.85768 L 283.59457 483.79311 L 283.43502 484.77235 L 282.60251 485.70322 L 264.80125 495.98078 L 282.60251 506.25834 L 283.31185 506.95204 L 283.60052 507.90127 L 283.3975 508.87243 L 282.60251 509.72244 L 264.80125 520 L 282.60251 530.27756 L 282.92622 530.59414 L 283.26388 530.89612 L 283.27914 530.93928 L 283.31184 530.97126 L 283.44357 531.40442 L 283.59457 531.83155 L 283.58721 531.87672 L 283.60052 531.92049 L 283.50786 532.36374 L 283.43502 532.81079 L 283.40811 532.84087 L 283.3975 532.89165 L 282.75275 533.64575 L 282.65526 533.68268 L 282.60251 533.74166 L 264.80125 544.01922 L 282.60251 554.29678 L 283.31185 554.99048 L 283.60052 555.93971 L 283.3975 556.91087 L 282.75275 557.66497 L 281.82492 558.01642 L 280.60251 557.76088 L 262.80126 547.48332 L 262.80126 568.03845 L 262.55517 568.9996 L 261.87745 569.72422 L 260.93489 570.03398 L 259.95944 569.85265 L 259.19116 569.22486 L 258.80126 568.03845 L 258.80126 547.48332 L 241 557.76088 L 240.04457 558.02833 L 239.07817 557.80372 L 238.33863 557.14232 L 238 556.02883 L 238 535.47371 L 220.19874 545.75127 L 219.24331 546.01872 L 218.27691 545.79411 L 217.53737 545.13271 L 217.19874 544.01922 L 217.19874 523.4641 L 199.39749 533.74166 L 198.44206 534.00911 L 197.47566 533.7845 L 196.73612 533.1231 L 196.40543 532.18767 L 196.56498 531.20843 L 197.39749 530.27756 L 215.19875 520 L 197.39749 509.72244 L 196.68815 509.02874 L 196.39948 508.07951 L 196.6025 507.10835 L 197.24725 506.35425 L 198.17508 506.0028 L 199.39749 506.25834 L 217.19874 516.5359 L 217.19874 495.98078 L 217.3111 495.54194 L 217.40375 495.09874 L 217.43348 495.06397 L 217.44483 495.01963 L 217.75423 494.68882 L 218.0485 494.34464 L 218.09129 494.32843 L 218.12255 494.29501 L 218.55287 494.15359 L 218.97633 493.99319 L 219.01583 494.00145 L 219.06511 493.98525 L 220.04056 494.16658 L 220.12128 494.23254 L 220.19874 494.24873 L 238 504.52629 L 238 483.97117 L 238.24609 483.01002 L 238.92381 482.2854 L 239.86637 481.97564 L 241 482.23912 L 258.80126 492.51668 L 258.80126 471.96155 L 259.04735 471.0004 L 259.72507 470.27578 L 260.66763 469.96602 Z M 242 552.56473 L 256.80126 544.01922 L 242 535.47371 Z M 221.19874 540.55512 L 236 532.00961 L 221.19874 523.4641 Z M 262.80126 540.55512 L 277.60251 532.00961 L 262.80126 523.4641 Z M 244 532.00961 L 258.80126 540.55512 L 258.80126 523.4641 Z M 242 528.54551 L 256.80125 520 L 242 511.45449 Z M 223.19874 520 L 238 528.54551 L 238 511.45449 Z M 221.19874 516.5359 L 236 507.99039 L 221.19874 499.44488 Z M 262.80126 516.5359 L 277.60251 507.99039 L 262.80126 499.44488 Z M 244 507.99039 L 258.80126 516.5359 L 258.80126 499.44488 Z M 242 504.52629 L 256.80126 495.98078 L 242 487.43527 Z" stroke-miterlimit="10"/><path fill="#222222" stroke="#cccccc" paint-order="fill stroke markers" d=" M 395.01549 469.08677 L 395.78377 469.71456 L 396.17367 470.90097 L 396.17367 486.11262 L 408.34734 493.14109 L 421.521 485.53527 L 422.47643 485.26782 L 423.44283 485.49243 L 424.18237 486.15383 L 424.51306 487.08926 L 424.35351 488.0685 L 423.521 488.99937 L 398.17367 503.63366 L 409.34734 510.08478 L 410.05667 510.77848 L 410.34734 511.81683 L 410.34734 528.18317 L 410.10125 529.14432 L 409.34734 529.91522 L 398.17367 536.36634 L 423.521 551.00063 L 424.23034 551.69433 L 424.51901 552.64356 L 424.31599 553.61472 L 423.67124 554.36882 L 422.74341 554.72027 L 421.521 554.46473 L 408.34734 546.85891 L 396.17367 553.88738 L 396.17367 569.09903 L 395.92758 570.06018 L 395.24986 570.7848 L 394.3073 571.09456 L 393.33185 570.91323 L 392.56357 570.28544 L 392.17367 569.09903 L 392.17367 539.83044 L 381 546.28156 L 380.04457 546.54901 L 379 546.28156 L 364.82633 538.09839 L 364.117 537.40469 L 363.82633 536.36634 L 363.82633 523.4641 L 338.479 538.09839 L 337.52357 538.36584 L 336.55717 538.14123 L 335.81763 537.47983 L 335.48694 536.5444 L 335.64649 535.56516 L 336.479 534.63429 L 349.65266 527.02847 L 349.65266 512.97153 L 336.479 505.36571 L 335.76966 504.67201 L 335.48099 503.72278 L 335.68401 502.75162 L 336.32876 501.99752 L 337.25659 501.64607 L 338.479 501.90161 L 363.82633 516.5359 L 363.82633 503.63366 L 364.07242 502.67251 L 364.82633 501.90161 L 379 493.71844 L 379.3945 493.60801 L 379.77759 493.4629 L 379.85504 493.47909 L 379.95543 493.45099 L 380.92183 493.6756 L 380.9605 493.71018 L 381 493.71844 L 392.17367 500.16956 L 392.17367 470.90097 L 392.41976 469.93982 L 393.09748 469.2152 L 394.04004 468.90544 Z M 396.17367 549.26858 L 404.34734 544.54951 L 396.17367 539.83044 Z M 367.82633 504.78836 L 367.82633 535.21164 L 380 542.24011 L 406.34734 527.02847 L 406.34734 512.97153 L 380 497.75989 Z M 353.65266 524.71907 L 361.82633 520 L 353.65266 515.28093 Z M 396.17367 500.16956 L 404.34734 495.45049 L 396.17367 490.73142 Z" stroke-miterlimit="10"/><path fill="#222222" stroke="#cccccc" paint-order="fill stroke markers" d=" M 541.2056 471.60512 L 554.67599 479.38226 L 555.38533 480.07596 L 555.67599 481.11431 L 555.67599 495.51389 L 568.14639 502.71367 L 568.4701 503.03025 L 568.80776 503.33223 L 568.81998 503.37242 L 568.85572 503.40737 L 569.1444 504.3566 L 569.13417 504.40554 L 569.14639 504.44572 L 569.14639 535.55428 L 569.03403 535.99312 L 568.94138 536.43632 L 568.91271 536.46698 L 568.9003 536.51543 L 568.22258 537.24005 L 568.17507 537.25566 L 568.14639 537.28633 L 555.67599 544.48611 L 555.67599 558.88569 L 555.4299 559.84684 L 554.67599 560.61774 L 541.2056 568.39488 L 540.25017 568.66233 L 539.2056 568.39488 L 526.7352 561.19509 L 514.2648 568.39488 L 513.8703 568.50531 L 513.48721 568.65042 L 513.40976 568.63423 L 513.30937 568.66233 L 512.34297 568.43772 L 512.3043 568.40314 L 512.2648 568.39488 L 485.32401 552.8406 L 485.00024 552.52397 L 484.66264 552.22204 L 484.65042 552.18186 L 484.61467 552.1469 L 484.326 551.19767 L 484.33623 551.14873 L 484.32401 551.10855 L 484.32401 536.70898 L 471.85361 529.50919 L 471.14427 528.81549 L 470.85361 527.77714 L 470.85361 512.22286 L 471.0997 511.26171 L 471.85361 510.49081 L 484.32401 503.29102 L 484.32401 488.89145 L 484.42563 488.49457 L 484.4915 488.09027 L 484.54424 488.0313 L 484.5701 487.9303 L 485.24782 487.20568 L 485.29711 487.18948 L 485.32401 487.1594 L 512.2648 471.60512 L 512.70087 471.48305 L 513.13117 471.34164 L 513.17208 471.35115 L 513.22023 471.33767 L 514.18663 471.56228 L 514.2239 471.59561 L 514.2648 471.60512 L 526.7352 478.80491 L 539.2056 471.60512 L 540.16103 471.33767 Z M 527.7352 482.84636 L 526.77977 483.11381 L 525.7352 482.84636 L 515.2648 476.80127 L 515.2648 488.89145 L 515.01871 489.8526 L 514.2648 490.6235 L 500.7944 498.40064 L 499.83897 498.66809 L 498.7944 498.40064 L 488.32401 492.35555 L 488.32401 504.44572 L 488.07792 505.40687 L 487.32401 506.17777 L 474.85361 513.37756 L 474.85361 526.62244 L 487.32401 533.82223 L 488.03335 534.51593 L 488.32401 535.55428 L 488.32401 547.64445 L 498.7944 541.59936 L 499.74983 541.33191 L 500.7944 541.59936 L 514.2648 549.3765 L 514.97414 550.0702 L 515.2648 551.10855 L 515.2648 563.19873 L 525.7352 557.15364 L 526.69063 556.88619 L 527.7352 557.15364 L 540.2056 564.35343 L 551.67599 557.73099 L 551.67599 543.33141 L 551.92208 542.37026 L 552.67599 541.59936 L 563.14639 535.55428 L 552.67599 529.50919 L 551.96665 528.81549 L 551.67599 527.77714 L 551.67599 512.22286 L 551.92208 511.26171 L 552.67599 510.49081 L 563.14639 504.44572 L 552.67599 498.40064 L 551.96666 497.70694 L 551.67599 496.66859 L 551.67599 482.26901 L 540.2056 475.64657 Z M 490.32401 551.10855 L 511.2648 563.19873 L 511.2648 552.26325 L 499.7944 545.64081 Z M 555.67599 513.37756 L 555.67599 526.62244 L 565.14639 532.09018 L 565.14639 507.90982 Z M 490.32401 488.89145 L 499.7944 494.35919 L 511.2648 487.73675 L 511.2648 476.80127 Z" stroke-miterlimit="10"/><path fill="#222222" stroke="#cccccc" paint-order="fill stroke markers" d=" M 639.44679 470.03697 L 640.04056 470.14735 L 640.11479 470.20801 L 640.19874 470.2295 L 661 482.23912 L 661.70934 482.93282 L 662 483.97117 L 662 504.52629 L 679.80126 494.24873 L 680.75669 493.98128 L 681.80126 494.24873 L 702.60251 506.25834 L 702.92628 506.57497 L 703.26388 506.8769 L 703.2761 506.91708 L 703.31185 506.95204 L 703.60052 507.90127 L 703.59029 507.95021 L 703.60251 507.99039 L 703.60251 532.00961 L 703.50089 532.40649 L 703.43502 532.81079 L 703.40811 532.84087 L 703.3975 532.89165 L 703.36777 532.92642 L 703.35642 532.97076 L 703.04702 533.30157 L 702.75275 533.64575 L 702.70996 533.66196 L 702.6787 533.69538 L 702.62941 533.71158 L 702.60251 533.74166 L 681.80126 545.75127 L 680.84583 546.01872 L 679.80126 545.75127 L 662 535.47371 L 662 556.02883 L 661.75391 556.98998 L 661 557.76088 L 640.19874 569.7705 L 639.80424 569.88093 L 639.42115 570.02604 L 639.3437 570.00985 L 639.24331 570.03795 L 638.27691 569.81334 L 638.23824 569.77876 L 638.19874 569.7705 L 617.39749 557.76088 L 617.07372 557.44425 L 616.73612 557.14232 L 616.7239 557.10214 L 616.68815 557.06718 L 616.39948 556.11795 L 616.40971 556.06901 L 616.39749 556.02883 L 616.39749 532.00961 L 616.64358 531.04846 L 617.39749 530.27756 L 635.19874 520 L 617.39749 509.72244 L 616.68815 509.02874 L 616.39749 507.99039 L 616.39749 483.97117 L 616.50985 483.53233 L 616.6025 483.08913 L 616.63223 483.05436 L 616.64358 483.01002 L 616.8548 482.79404 L 617.24725 482.33503 L 617.33691 482.30107 L 617.39749 482.23912 L 638.19874 470.2295 L 638.63481 470.10743 L 639.06511 469.96602 L 639.11011 469.97438 L 639.15417 469.96205 Z M 641.19874 545.17392 L 641.19874 564.57435 L 658 554.87413 L 658 535.47371 Z M 622.39749 556.02883 L 637.19874 564.57435 L 637.19874 547.48332 Z M 620.39749 533.16431 L 620.39749 552.56473 L 637.19874 542.86452 L 637.19874 523.4641 Z M 664 532.00961 L 680.80126 541.70982 L 697.60251 532.00961 L 680.80125 522.3094 Z M 641.19874 540.55512 L 676.80126 520 L 641.19874 499.44488 Z M 684.80125 520 L 699.60251 528.54551 L 699.60251 511.45449 Z M 664 507.99039 L 680.80125 517.6906 L 697.60251 507.99039 L 680.80126 498.29018 Z M 620.39749 506.83569 L 637.19874 516.5359 L 637.19874 497.13548 L 620.39749 487.43527 Z M 641.19874 494.82608 L 658 504.52629 L 658 485.12587 L 641.19874 475.42565 Z M 622.39749 483.97117 L 637.19874 492.51668 L 637.19874 475.42565 Z" stroke-miterlimit="10"/><path fill="#222222" stroke="#cccccc" paint-order="fill stroke markers" d=" M 774.0592 471.60512 L 787.5296 479.38226 L 788.23894 480.07596 L 788.5296 481.11431 L 788.5296 495.51389 L 798 500.98163 L 798 488.89145 L 798.24609 487.9303 L 798.92381 487.20568 L 799.86637 486.89592 L 801 487.1594 L 814.4704 494.93654 L 814.79417 495.25317 L 815.13177 495.5551 L 815.14702 495.59824 L 815.17974 495.63024 L 815.3115 496.06351 L 815.46246 496.49053 L 815.4551 496.5357 L 815.46841 496.57947 L 815.37575 497.02272 L 815.30291 497.46977 L 815.276 497.49985 L 815.26539 497.55063 L 814.62064 498.30473 L 814.52315 498.34166 L 814.4704 498.40064 L 804 504.44572 L 813.4704 509.91346 L 825.9408 502.71367 L 826.3353 502.60324 L 826.71839 502.45813 L 826.79584 502.47432 L 826.89623 502.44622 L 827.86263 502.67083 L 827.9013 502.70541 L 827.9408 502.71367 L 841.41119 510.49081 L 842.12053 511.18451 L 842.41119 512.22286 L 842.41119 527.77714 L 842.1651 528.73829 L 841.41119 529.50919 L 827.9408 537.28633 L 826.98537 537.55378 L 825.9408 537.28633 L 813.4704 530.08654 L 804 535.55428 L 814.4704 541.59936 L 814.79411 541.91594 L 815.13177 542.21792 L 815.14703 542.26108 L 815.17973 542.29306 L 815.31146 542.72622 L 815.46246 543.15335 L 815.4551 543.19852 L 815.46841 543.24229 L 815.37575 543.68554 L 815.30291 544.13259 L 815.276 544.16267 L 815.26539 544.21345 L 814.62064 544.96755 L 814.52315 545.00448 L 814.4704 545.06346 L 801 552.8406 L 800.56393 552.96267 L 800.13363 553.10408 L 800.08863 553.09572 L 800.04457 553.10805 L 799.6034 553.00551 L 799.15818 552.92275 L 799.12275 552.8938 L 799.07817 552.88344 L 798.7405 552.58145 L 798.3899 552.29496 L 798.3773 552.25663 L 798.33863 552.22204 L 798.00794 551.28661 L 798.0247 551.18372 L 798 551.10855 L 798 539.01837 L 788.5296 544.48611 L 788.5296 558.88569 L 788.28351 559.84684 L 787.5296 560.61774 L 774.0592 568.39488 L 773.10377 568.66233 L 772.0592 568.39488 L 758.58881 560.61774 L 757.87947 559.92404 L 757.58881 558.88569 L 757.58881 543.33141 L 757.8349 542.37026 L 758.58881 541.59936 L 771.0592 534.39958 L 771.0592 523.4641 L 760.58881 529.50919 L 759.63338 529.77664 L 758.66698 529.55203 L 757.92744 528.89063 L 757.58881 527.77714 L 757.58881 512.22286 L 757.70117 511.78402 L 757.79382 511.34082 L 757.82355 511.30605 L 757.8349 511.26171 L 758.1443 510.9309 L 758.43857 510.58672 L 758.48136 510.57051 L 758.51262 510.53709 L 758.94294 510.39567 L 759.3664 510.23527 L 759.4059 510.24353 L 759.45518 510.22733 L 760.43063 510.40866 L 760.51135 510.47462 L 760.58881 510.49081 L 771.0592 516.5359 L 771.0592 505.60042 L 758.58881 498.40064 L 757.87948 497.70694 L 757.58881 496.66859 L 757.58881 481.11431 L 757.8349 480.15316 L 758.58881 479.38226 L 772.0592 471.60512 L 773.01463 471.33767 Z M 761.58881 482.26901 L 761.58881 495.51389 L 774.0592 502.71367 L 774.76853 503.40737 L 775.0592 504.44572 L 775.0592 535.55428 L 774.81311 536.51543 L 774.0592 537.28633 L 761.58881 544.48611 L 761.58881 557.73099 L 773.0592 564.35343 L 784.5296 557.73099 L 784.5296 543.33141 L 784.77569 542.37026 L 785.5296 541.59936 L 812.4704 526.04509 L 813.42583 525.77764 L 814.4704 526.04509 L 826.9408 533.24488 L 838.41119 526.62244 L 838.41119 513.37756 L 826.9408 506.75512 L 814.4704 513.95491 L 813.51497 514.22236 L 812.4704 513.95491 L 785.5296 498.40064 L 784.82027 497.70694 L 784.5296 496.66859 L 784.5296 482.26901 L 773.0592 475.64657 Z M 802 547.64445 L 809.4704 543.33141 L 802 539.01838 Z M 761.58881 524.31304 L 769.0592 520 L 761.58881 515.68696 Z M 802 500.98162 L 809.4704 496.66859 L 802 492.35555 Z" stroke-miterlimit="10"/><path fill="#222222" stroke="#cccccc" paint-order="fill stroke markers" d=" M 74.0592 611.60512 L 87.5296 619.38226 L 88.23894 620.07596 L 88.52761 621.02519 L 88.32459 621.99635 L 87.5296 622.84636 L 77.0592 628.89145 L 86.5296 634.35919 L 99 627.1594 L 99.95543 626.89195 L 101 627.1594 L 114.4704 634.93654 L 115.17974 635.63024 L 115.4704 636.66859 L 115.4704 651.06816 L 124.9408 656.5359 L 124.9408 644.44572 L 125.18689 643.48457 L 125.86461 642.75995 L 126.80717 642.45019 L 127.9408 642.71367 L 141.41119 650.49081 L 141.7041 650.77727 L 142.02129 651.03645 L 142.04599 651.11162 L 142.12053 651.18451 L 142.4092 652.13374 L 142.39859 652.18451 L 142.41119 652.22286 L 142.41119 667.77714 L 142.1651 668.73829 L 141.41119 669.50919 L 127.9408 677.28633 L 126.98537 677.55378 L 126.01897 677.32917 L 125.27943 676.66777 L 124.9408 675.55428 L 124.9408 663.4641 L 115.4704 668.93184 L 115.4704 683.33141 L 115.22431 684.29256 L 114.4704 685.06346 L 101 692.8406 L 100.04457 693.10805 L 99 692.8406 L 86.5296 685.64081 L 77.0592 691.10855 L 87.5296 697.15364 L 88.23894 697.84734 L 88.52761 698.79657 L 88.32459 699.76773 L 87.5296 700.61774 L 74.0592 708.39488 L 73.6647 708.50531 L 73.28161 708.65042 L 73.20416 708.63423 L 73.10377 708.66233 L 72.13737 708.43772 L 72.0987 708.40314 L 72.0592 708.39488 L 58.58881 700.61774 L 57.87947 699.92404 L 57.58881 698.88569 L 57.58881 683.33141 L 57.8349 682.37026 L 58.51262 681.64564 L 59.45518 681.33588 L 60.58881 681.59936 L 71.0592 687.64445 L 71.0592 676.70898 L 58.58881 669.50919 L 58.2959 669.22273 L 57.97871 668.96355 L 57.95401 668.88838 L 57.87947 668.81549 L 57.5908 667.86626 L 57.60141 667.81549 L 57.58881 667.77714 L 57.58881 652.22286 L 57.69043 651.82598 L 57.7563 651.42168 L 57.80904 651.36271 L 57.8349 651.26171 L 58.51262 650.53709 L 58.56191 650.52089 L 58.58881 650.49081 L 71.0592 643.29102 L 71.0592 632.35555 L 60.58881 638.40064 L 60.15274 638.52271 L 59.72244 638.66412 L 59.67744 638.65576 L 59.63338 638.66809 L 59.19221 638.56555 L 58.74699 638.48279 L 58.71156 638.45384 L 58.66698 638.44348 L 58.32931 638.14149 L 57.97871 637.855 L 57.96611 637.81667 L 57.92744 637.78208 L 57.59675 636.84665 L 57.61351 636.74376 L 57.58881 636.66859 L 57.58881 621.11431 L 57.69043 620.71743 L 57.7563 620.31313 L 57.80904 620.25416 L 57.8349 620.15316 L 58.51262 619.42854 L 58.56191 619.41234 L 58.58881 619.38226 L 72.0592 611.60512 L 73.01463 611.33767 Z M 61.58881 697.73099 L 73.0592 704.35343 L 82.5296 698.88569 L 61.58881 686.79551 Z M 87.5296 638.40064 L 86.57417 638.66809 L 85.5296 638.40064 L 75.0592 632.35555 L 75.0592 644.44572 L 74.81311 645.40687 L 74.0592 646.17777 L 61.58881 653.37756 L 61.58881 666.62244 L 74.0592 673.82223 L 74.76854 674.51593 L 75.0592 675.55428 L 75.0592 687.64445 L 85.5296 681.59936 L 86.48503 681.33191 L 87.5296 681.59936 L 100 688.79915 L 111.4704 682.17671 L 111.4704 667.77714 L 111.71649 666.81599 L 112.4704 666.04509 L 122.9408 660 L 112.4704 653.95491 L 111.76106 653.26121 L 111.4704 652.22286 L 111.4704 637.82329 L 100 631.20085 Z M 128.9408 672.09018 L 138.41119 666.62244 L 138.41119 653.37756 L 128.9408 647.90982 Z M 61.58881 622.26901 L 61.58881 633.20449 L 82.5296 621.11431 L 73.0592 615.64657 Z" stroke-miterlimit="10"/><path fill="#222222" stroke="#cccccc" paint-order="fill stroke markers" d=" M 213.98103 611.56228 L 214.0197 611.59686 L 214.0592 611.60512 L 227.5296 619.38226 L 228.23894 620.07596 L 228.52761 621.02519 L 228.32459 621.99635 L 227.67984 622.75045 L 226.75201 623.1019 L 225.5296 622.84636 L 215.0592 616.80127 L 215.0592 627.73675 L 226.5296 634.35919 L 239 627.1594 L 239.95543 626.89195 L 241 627.1594 L 254.4704 634.93654 L 255.17974 635.63024 L 255.4704 636.66859 L 255.4704 651.06816 L 266.9408 657.6906 L 276.41119 652.22286 L 265.9408 646.17777 L 265.23146 645.48407 L 264.94279 644.53484 L 265.14581 643.56368 L 265.79056 642.80958 L 266.71839 642.45813 L 267.9408 642.71367 L 281.41119 650.49081 L 281.73496 650.80744 L 282.07256 651.10937 L 282.08478 651.14955 L 282.12053 651.18451 L 282.4092 652.13374 L 282.39897 652.18268 L 282.41119 652.22286 L 282.41119 667.77714 L 282.30957 668.17402 L 282.2437 668.57832 L 282.21679 668.6084 L 282.20618 668.65918 L 282.17645 668.69395 L 282.1651 668.73829 L 281.8557 669.0691 L 281.56143 669.41328 L 281.51864 669.42949 L 281.48738 669.46291 L 281.43809 669.47911 L 281.41119 669.50919 L 267.9408 677.28633 L 266.98537 677.55378 L 266.01897 677.32917 L 265.27943 676.66777 L 264.94874 675.73234 L 265.10829 674.7531 L 265.9408 673.82223 L 276.41119 667.77714 L 266.9408 662.3094 L 255.4704 668.93184 L 255.4704 683.33141 L 255.22431 684.29256 L 254.4704 685.06346 L 241 692.8406 L 240.04457 693.10805 L 239 692.8406 L 226.5296 685.64081 L 215.0592 692.26325 L 215.0592 703.19873 L 225.5296 697.15364 L 226.48503 696.88619 L 227.45143 697.1108 L 228.19097 697.7722 L 228.52166 698.70763 L 228.36211 699.68687 L 227.5296 700.61774 L 214.0592 708.39488 L 213.6647 708.50531 L 213.28161 708.65042 L 213.20416 708.63423 L 213.10377 708.66233 L 212.13737 708.43772 L 212.0987 708.40314 L 212.0592 708.39488 L 198.58881 700.61774 L 198.2959 700.33128 L 197.97871 700.0721 L 197.95401 699.99693 L 197.87947 699.92404 L 197.5908 698.97481 L 197.60141 698.92404 L 197.58881 698.88569 L 197.58881 683.33141 L 197.8349 682.37026 L 198.51262 681.64564 L 199.45518 681.33588 L 200.43063 681.51721 L 201.19891 682.145 L 201.58881 683.33141 L 201.58881 695.42159 L 211.0592 689.95385 L 211.0592 676.70898 L 198.58881 669.50919 L 197.87947 668.81549 L 197.58881 667.77714 L 197.58881 652.22286 L 197.8349 651.26171 L 198.58881 650.49081 L 211.0592 643.29102 L 211.0592 630.04615 L 201.58881 624.57841 L 201.58881 636.66859 L 201.34272 637.62974 L 200.665 638.35436 L 199.72244 638.66412 L 198.74699 638.48279 L 197.97871 637.855 L 197.58881 636.66859 L 197.58881 621.11431 L 197.69043 620.71743 L 197.7563 620.31313 L 197.80904 620.25416 L 197.8349 620.15316 L 198.51262 619.42854 L 198.56191 619.41234 L 198.58881 619.38226 L 212.0592 611.60512 L 212.4537 611.49469 L 212.83679 611.34958 L 212.91424 611.36577 L 213.01463 611.33767 Z M 203.58881 698.88569 L 211.0592 703.19873 L 211.0592 694.57265 Z M 227.5296 638.40064 L 226.57417 638.66809 L 225.5296 638.40064 L 215.0592 632.35555 L 215.0592 644.44572 L 214.95758 644.8426 L 214.89171 645.2469 L 214.83897 645.30587 L 214.81311 645.40687 L 214.13539 646.13149 L 214.0861 646.14769 L 214.0592 646.17777 L 201.58881 653.37756 L 201.58881 666.62244 L 214.0592 673.82223 L 214.76854 674.51593 L 215.0592 675.55428 L 215.0592 687.64445 L 225.5296 681.59936 L 225.9241 681.48893 L 226.30719 681.34382 L 226.38464 681.36001 L 226.48503 681.33191 L 227.45143 681.55652 L 227.4901 681.5911 L 227.5296 681.59936 L 240 688.79915 L 251.4704 682.17671 L 251.4704 667.77714 L 251.57202 667.38026 L 251.63789 666.97596 L 251.69063 666.91699 L 251.71649 666.81599 L 252.39421 666.09137 L 252.4435 666.07517 L 252.4704 666.04509 L 262.9408 660 L 252.4704 653.95491 L 251.76106 653.26121 L 251.4704 652.22286 L 251.4704 637.82329 L 240 631.20085 Z M 270.94079 660 L 278.41119 664.31304 L 278.41119 655.68696 Z M 203.58881 621.11431 L 211.0592 625.42735 L 211.0592 616.80127 Z" stroke-miterlimit="10"/><path fill="#222222" stroke="#cccccc" paint-order="fill stroke markers" d=" M 351.80312 611.87937 L 352.24834 611.96213 L 352.28377 611.99108 L 352.32835 612.00144 L 352.66602 612.30343 L 353.01662 612.58992 L 353.02922 612.62825 L 353.06789 612.66284 L 353.39858 613.59827 L 353.38182 613.70116 L 353.40652 613.77633 L 353.40652 625.82839 L 363.84391 631.85442 L 364.13682 632.14088 L 364.45401 632.40006 L 364.47871 632.47523 L 364.55325 632.54812 L 364.84192 633.49735 L 364.83131 633.54812 L 364.84391 633.58647 L 364.84391 645.63853 L 385.7187 657.6906 L 396.15609 651.66457 L 396.55059 651.55414 L 396.93368 651.40903 L 397.01113 651.42522 L 397.11152 651.39712 L 398.07792 651.62173 L 398.11659 651.65631 L 398.15609 651.66457 L 408.59348 657.6906 L 419.03087 651.66457 L 419.9863 651.39712 L 420.9527 651.62173 L 421.69224 652.28313 L 422.03087 653.39662 L 422.03087 666.60338 L 421.91851 667.04222 L 421.82586 667.48542 L 421.79613 667.52019 L 421.78478 667.56453 L 421.47538 667.89534 L 421.18111 668.23952 L 421.13832 668.25573 L 421.10706 668.28915 L 420.67674 668.43057 L 420.25328 668.59097 L 420.21378 668.58271 L 420.1645 668.59891 L 419.18905 668.41758 L 419.10833 668.35162 L 419.03087 668.33543 L 408.59348 662.3094 L 398.15609 668.33543 L 397.20066 668.60288 L 396.15609 668.33543 L 385.7187 662.3094 L 364.84391 674.36147 L 364.84391 686.41353 L 364.59782 687.37468 L 363.84391 688.14558 L 353.40652 694.17161 L 353.40652 706.22367 L 353.16043 707.18482 L 352.48271 707.90944 L 351.54015 708.2192 L 350.40652 707.95572 L 338.96913 701.35234 L 338.64536 701.03571 L 338.30776 700.73378 L 338.29251 700.69064 L 338.25979 700.65864 L 338.12803 700.22537 L 337.97707 699.79835 L 337.98443 699.75318 L 337.97112 699.70941 L 338.06378 699.26616 L 338.13662 698.81911 L 338.16353 698.78903 L 338.17414 698.73825 L 338.81889 697.98415 L 338.91638 697.94722 L 338.96913 697.88824 L 349.40652 691.86221 L 349.40652 679.81015 L 349.65261 678.849 L 350.40652 678.0781 L 360.84391 672.05207 L 360.84391 647.94793 L 350.40652 641.9219 L 350.11361 641.63544 L 349.79642 641.37626 L 349.77172 641.30109 L 349.69718 641.2282 L 349.40851 640.27897 L 349.41912 640.2282 L 349.40652 640.18985 L 349.40652 628.13779 L 338.96913 622.11176 L 338.64536 621.79513 L 338.30776 621.4932 L 338.29251 621.45006 L 338.25979 621.41806 L 338.12803 620.98479 L 337.97707 620.55777 L 337.98443 620.5126 L 337.97112 620.46883 L 338.06378 620.02558 L 338.13662 619.57853 L 338.16353 619.54845 L 338.17414 619.49767 L 338.81889 618.74357 L 338.91638 618.70664 L 338.96913 618.64766 L 350.40652 612.04428 L 350.84259 611.92221 L 351.27289 611.7808 L 351.31789 611.78916 L 351.36195 611.77683 Z M 343.96913 699.62029 L 349.40652 702.75957 L 349.40652 696.48101 Z M 353.40652 680.96485 L 353.40652 689.55281 L 360.84391 685.25883 L 360.84391 676.67087 Z M 364.84391 669.74267 L 370.28131 666.60338 L 364.84391 663.4641 Z M 389.7187 660 L 397.15609 664.29398 L 404.59348 660 L 397.15609 655.70602 Z M 376.2813 663.13929 L 381.7187 660 L 376.2813 656.86071 Z M 412.59348 660 L 418.03087 663.13928 L 418.03087 656.86072 Z M 366.84391 660 L 372.2813 663.13928 L 372.2813 656.86072 Z M 364.84391 656.5359 L 370.28131 653.39662 L 364.84391 650.25733 Z M 353.40652 639.03515 L 360.84391 643.32913 L 360.84391 634.74117 L 353.40652 630.44719 Z M 343.96913 620.37971 L 349.40652 623.51899 L 349.40652 617.24043 Z" stroke-miterlimit="10"/><path fill="#222222" stroke="#cccccc" paint-order="fill stroke markers" d=" M 529.52492 608.55515 L 530.26446 609.21655 L 530.60309 610.33004 L 530.60309 629.04332 L 545.80927 637.82261 L 562.01545 628.46597 L 562.97088 628.19852 L 563.93728 628.42313 L 564.67682 629.08453 L 565.01545 630.19802 L 565.01545 650.06601 L 564.76936 651.02716 L 564.01545 651.79806 L 549.80927 660 L 564.01545 668.20194 L 564.72478 668.89564 L 565.01545 669.93399 L 565.01545 689.80198 L 564.76936 690.76313 L 564.09164 691.48775 L 563.14908 691.79751 L 562.01545 691.53403 L 545.80927 682.17739 L 530.60309 690.95668 L 530.60309 709.66996 L 530.357 710.63111 L 529.67928 711.35573 L 528.73672 711.66549 L 527.60309 711.40201 L 510.39691 701.46802 L 509.68758 700.77432 L 509.39691 699.73597 L 509.39691 683.33209 L 495.19073 691.53403 L 494.2353 691.80148 L 493.19073 691.53403 L 475.98455 681.60004 L 475.27522 680.90634 L 474.98654 679.95711 L 475.18956 678.98595 L 475.98455 678.13594 L 492.19073 668.77929 L 492.19073 651.22071 L 475.98455 641.86406 L 475.27521 641.17036 L 474.98654 640.22113 L 475.18956 639.24997 L 475.98455 638.39996 L 493.19073 628.46597 L 494.14616 628.19852 L 495.19073 628.46597 L 509.39691 636.66791 L 509.39691 620.26403 L 509.49853 619.86715 L 509.5644 619.46285 L 509.61714 619.40388 L 509.643 619.30288 L 510.32072 618.57826 L 510.37001 618.56206 L 510.39691 618.53198 L 527.60309 608.59799 L 528.55852 608.33054 Z M 513.39691 698.58127 L 526.60309 706.20586 L 526.60309 690.95668 L 513.39691 683.33209 Z M 480.98455 679.86799 L 494.19073 687.49258 L 507.39692 679.86799 L 494.19073 672.24339 Z M 496.19073 651.22071 L 496.19073 668.77929 L 528.60309 687.49258 L 543.80927 678.71329 L 543.80927 641.28671 L 528.60309 632.50742 Z M 547.80927 678.71329 L 561.01545 686.33788 L 561.01545 671.08869 L 547.80927 663.4641 Z M 547.80927 641.28671 L 547.80927 656.5359 L 561.01545 648.91131 L 561.01545 633.66212 Z M 480.98455 640.13201 L 494.19073 647.75661 L 507.39692 640.13201 L 494.19073 632.50742 Z M 513.39691 621.41873 L 513.39691 636.66791 L 526.60309 629.04332 L 526.60309 613.79414 Z" stroke-miterlimit="10"/><path fill="#222222" stroke="#cccccc" paint-order="fill stroke markers" d=" M 633.98103 611.56228 L 634.0197 611.59686 L 634.0592 611.60512 L 647.5296 619.38226 L 648.23894 620.07596 L 648.52761 621.02519 L 648.32459 621.99635 L 647.67984 622.75045 L 646.75201 623.1019 L 645.5296 622.84636 L 635.0592 616.80127 L 635.0592 627.73675 L 647.5296 634.93654 L 648.23894 635.63024 L 648.5296 636.66859 L 648.5296 651.06816 L 660 657.6906 L 672.4704 650.49081 L 673.42583 650.22336 L 674.4704 650.49081 L 686.9408 657.6906 L 696.41119 652.22286 L 685.9408 646.17777 L 685.23146 645.48407 L 684.94279 644.53484 L 685.14581 643.56368 L 685.79056 642.80958 L 686.71839 642.45813 L 687.9408 642.71367 L 701.41119 650.49081 L 701.73496 650.80744 L 702.07256 651.10937 L 702.08478 651.14955 L 702.12053 651.18451 L 702.4092 652.13374 L 702.39897 652.18268 L 702.41119 652.22286 L 702.41119 667.77714 L 702.30957 668.17402 L 702.2437 668.57832 L 702.21679 668.6084 L 702.20618 668.65918 L 702.17645 668.69395 L 702.1651 668.73829 L 701.8557 669.0691 L 701.56143 669.41328 L 701.51864 669.42949 L 701.48738 669.46291 L 701.43809 669.47911 L 701.41119 669.50919 L 687.9408 677.28633 L 686.98537 677.55378 L 686.01897 677.32917 L 685.27943 676.66777 L 684.94874 675.73234 L 685.10829 674.7531 L 685.9408 673.82223 L 696.41119 667.77714 L 686.9408 662.3094 L 674.4704 669.50919 L 673.51497 669.77664 L 672.4704 669.50919 L 660 662.3094 L 648.5296 668.93184 L 648.5296 683.33141 L 648.42798 683.72829 L 648.36211 684.13259 L 648.30937 684.19156 L 648.28351 684.29256 L 647.60579 685.01718 L 647.5565 685.03338 L 647.5296 685.06346 L 635.0592 692.26325 L 635.0592 703.19873 L 645.5296 697.15364 L 646.48503 696.88619 L 647.45143 697.1108 L 648.19097 697.7722 L 648.52166 698.70763 L 648.36211 699.68687 L 647.5296 700.61774 L 634.0592 708.39488 L 633.6647 708.50531 L 633.28161 708.65042 L 633.20416 708.63423 L 633.10377 708.66233 L 632.13737 708.43772 L 632.0987 708.40314 L 632.0592 708.39488 L 618.58881 700.61774 L 618.2959 700.33128 L 617.97871 700.0721 L 617.95401 699.99693 L 617.87947 699.92404 L 617.5908 698.97481 L 617.60141 698.92404 L 617.58881 698.88569 L 617.58881 683.33141 L 617.8349 682.37026 L 618.51262 681.64564 L 619.45518 681.33588 L 620.43063 681.51721 L 621.19891 682.145 L 621.58881 683.33141 L 621.58881 695.42159 L 631.0592 689.95385 L 631.0592 675.55428 L 631.30529 674.59313 L 632.0592 673.82223 L 644.5296 666.62244 L 644.5296 653.37756 L 632.0592 646.17777 L 631.34986 645.48407 L 631.0592 644.44572 L 631.0592 630.04615 L 621.58881 624.57841 L 621.58881 636.66859 L 621.34272 637.62974 L 620.665 638.35436 L 619.72244 638.66412 L 618.74699 638.48279 L 617.97871 637.855 L 617.58881 636.66859 L 617.58881 621.11431 L 617.70117 620.67547 L 617.79382 620.23227 L 617.82355 620.1975 L 617.8349 620.15316 L 618.04612 619.93718 L 618.43857 619.47817 L 618.52823 619.44421 L 618.58881 619.38226 L 632.0592 611.60512 L 632.4537 611.49469 L 632.83679 611.34958 L 632.91424 611.36577 L 633.01463 611.33767 Z M 623.58881 698.88569 L 631.0592 703.19873 L 631.0592 694.57265 Z M 635.0592 676.70898 L 635.0592 687.64445 L 644.5296 682.17671 L 644.5296 671.24124 Z M 664 660 L 673.4704 665.46774 L 682.9408 660 L 673.4704 654.53226 Z M 648.5296 664.31304 L 656 660 L 648.5296 655.68696 Z M 690.94079 660 L 698.41119 664.31304 L 698.41119 655.68696 Z M 635.0592 643.29102 L 644.5296 648.75876 L 644.5296 637.82329 L 635.0592 632.35555 Z M 623.58881 621.11431 L 631.0592 625.42735 L 631.0592 616.80127 Z" stroke-miterlimit="10"/><path fill="#222222" stroke="#cccccc" paint-order="fill stroke markers" d=" M 792.23873 608.51584 L 793.00701 609.14363 L 793.39691 610.33004 L 793.39691 629.04332 L 825.80927 647.75661 L 842.01545 638.39996 L 842.97088 638.13251 L 843.93728 638.35712 L 844.67682 639.01852 L 845.00751 639.95395 L 844.84796 640.93319 L 844.01545 641.86406 L 827.80927 651.22071 L 827.80927 668.77929 L 844.01545 678.13594 L 844.72479 678.82964 L 845.01346 679.77887 L 844.81044 680.75003 L 844.16569 681.50413 L 843.23786 681.85558 L 842.01545 681.60004 L 825.80927 672.24339 L 793.39691 690.95668 L 793.39691 709.66996 L 793.15082 710.63111 L 792.4731 711.35573 L 791.53054 711.66549 L 790.55509 711.48416 L 789.78681 710.85637 L 789.39691 709.66996 L 789.39691 690.95668 L 774.19073 682.17739 L 757.98455 691.53403 L 757.02912 691.80148 L 756.06272 691.57687 L 755.32318 690.91547 L 754.99249 689.98004 L 755.15204 689.0008 L 755.98455 688.06993 L 772.19073 678.71329 L 772.19073 641.28671 L 755.98455 631.93007 L 755.27522 631.23637 L 754.98654 630.28714 L 755.18956 629.31598 L 755.83431 628.56188 L 756.76214 628.21043 L 757.98455 628.46597 L 774.19073 637.82261 L 789.39691 629.04332 L 789.39691 610.33004 L 789.643 609.36889 L 790.32072 608.64427 L 791.26328 608.33451 Z M 776.19073 678.71329 L 791.39691 687.49258 L 804.60309 679.86799 L 776.19073 663.4641 Z M 795.3969 669.93399 L 806.60309 676.40389 L 806.60309 663.4641 Z M 810.60309 676.40388 L 823.80927 668.77929 L 823.80927 651.22071 L 810.60309 643.59612 Z M 793.39691 666.46989 L 804.60309 660 L 793.39691 653.53011 Z M 778.19073 660 L 789.39691 666.46989 L 789.39691 653.53011 Z M 776.19073 641.28671 L 776.19073 656.5359 L 804.60309 640.13201 L 791.39691 632.50742 Z M 795.3969 650.06601 L 806.60309 656.5359 L 806.60309 643.59611 Z" stroke-miterlimit="10"/><path fill="#222222" stroke="#cccccc" paint-order="fill stroke markers" d=" M 100.92183 752.00144 L 101.66137 752.66284 L 101.99206 753.59827 L 101.83251 754.57751 L 101 755.50838 L 92.56261 760.37971 L 100 764.67369 L 110.43739 758.64766 L 111.39282 758.38021 L 112.43739 758.64766 L 123.87479 765.25104 L 124.58412 765.94474 L 124.87479 766.98309 L 124.87479 779.03515 L 132.31218 783.32913 L 132.31218 773.58647 L 132.55827 772.62532 L 133.23599 771.9007 L 134.17855 771.59094 L 135.154 771.77227 L 135.92228 772.40006 L 136.31218 773.58647 L 136.31218 785.63854 L 146.74957 791.66457 L 147.45891 792.35827 L 147.74957 793.39662 L 147.74957 806.60338 L 147.50348 807.56453 L 146.74957 808.33543 L 136.31218 814.36146 L 136.31218 826.41353 L 136.06609 827.37468 L 135.38837 828.0993 L 134.44581 828.40906 L 133.47036 828.22773 L 132.70208 827.59994 L 132.31218 826.41353 L 132.31218 816.67087 L 124.87479 820.96485 L 124.87479 833.01691 L 124.6287 833.97806 L 123.87479 834.74896 L 112.43739 841.35234 L 111.48196 841.61979 L 110.43739 841.35234 L 100 835.32631 L 92.56261 839.62029 L 101 844.49162 L 101.70934 845.18532 L 101.99801 846.13455 L 101.79499 847.10571 L 101.15024 847.85981 L 100.22241 848.21126 L 99 847.95572 L 88.56261 841.92969 L 78.12521 847.95572 L 77.16978 848.22317 L 76.12521 847.95572 L 64.68782 841.35234 L 63.97848 840.65864 L 63.68782 839.62029 L 63.68782 827.56823 L 53.25043 821.5422 L 52.54109 820.8485 L 52.25242 819.89927 L 52.45544 818.92811 L 53.10019 818.17401 L 54.02802 817.82256 L 55.25043 818.0781 L 63.68782 822.94943 L 63.68782 814.36146 L 53.25043 808.33543 L 52.54109 807.64173 L 52.25043 806.60338 L 52.25043 793.39662 L 52.49652 792.43547 L 53.25043 791.66457 L 63.68782 785.63854 L 63.68782 777.05057 L 55.25043 781.9219 L 54.295 782.18935 L 53.3286 781.96474 L 52.58906 781.30334 L 52.25837 780.36791 L 52.41792 779.38867 L 53.25043 778.4578 L 63.68782 772.43177 L 63.68782 760.37971 L 63.93391 759.41856 L 64.68782 758.64766 L 76.12521 752.04428 L 77.08064 751.77683 L 78.12521 752.04428 L 88.56261 758.07031 L 99 752.04428 L 99.95543 751.77683 Z M 67.68782 761.53441 L 67.68782 786.79324 L 67.44173 787.75439 L 66.68782 788.52529 L 56.25043 794.55132 L 56.25043 805.44868 L 66.68782 811.47471 L 67.39716 812.16841 L 67.68782 813.20676 L 67.68782 838.46559 L 77.12521 843.91427 L 99 831.28486 L 99.95543 831.01741 L 101 831.28486 L 111.43739 837.31089 L 120.87479 831.86221 L 120.87479 819.81015 L 121.12088 818.849 L 121.87479 818.0781 L 143.74957 805.44868 L 143.74957 794.55132 L 121.87479 781.9219 L 121.58188 781.63544 L 121.26469 781.37626 L 121.23999 781.30109 L 121.16545 781.2282 L 120.87678 780.27897 L 120.88739 780.2282 L 120.87479 780.18985 L 120.87479 768.13779 L 111.43739 762.68911 L 101 768.71514 L 100.04457 768.98259 L 99 768.71514 L 77.12521 756.08573 Z" stroke-miterlimit="10"/><path fill="#222222" stroke="#cccccc" paint-order="fill stroke markers" d=" M 214.0592 751.60512 L 227.5296 759.38226 L 228.23894 760.07596 L 228.5296 761.11431 L 228.5296 773.20449 L 239 767.1594 L 239.3945 767.04897 L 239.77759 766.90386 L 239.85504 766.92005 L 239.95543 766.89195 L 240.92183 767.11656 L 240.9605 767.15114 L 241 767.1594 L 254.4704 774.93654 L 255.17974 775.63024 L 255.4704 776.66859 L 255.4704 788.75876 L 265.9408 782.71367 L 266.89623 782.44622 L 267.9408 782.71367 L 281.41119 790.49081 L 282.12053 791.18451 L 282.4092 792.13374 L 282.20618 793.1049 L 281.56143 793.859 L 280.6336 794.21045 L 279.41119 793.95491 L 266.9408 786.75512 L 255.4704 793.37756 L 255.4704 806.62244 L 266.9408 813.24488 L 279.41119 806.04509 L 280.36662 805.77764 L 281.33302 806.00225 L 282.07256 806.66365 L 282.40325 807.59908 L 282.2437 808.57832 L 281.41119 809.50919 L 267.9408 817.28633 L 267.5463 817.39676 L 267.16321 817.54187 L 267.08576 817.52568 L 266.98537 817.55378 L 266.01897 817.32917 L 265.9803 817.29459 L 265.9408 817.28633 L 255.4704 811.24124 L 255.4704 823.33141 L 255.22431 824.29256 L 254.4704 825.06346 L 241 832.8406 L 240.04457 833.10805 L 239 832.8406 L 228.5296 826.79551 L 228.5296 838.88569 L 228.28351 839.84684 L 227.5296 840.61774 L 214.0592 848.39488 L 213.10377 848.66233 L 212.13737 848.43772 L 211.39783 847.77632 L 211.06714 846.84089 L 211.22669 845.86165 L 212.0592 844.93078 L 224.5296 837.73099 L 224.5296 824.48611 L 213.05921 817.86368 L 201.58881 824.48611 L 201.58881 838.88569 L 201.34272 839.84684 L 200.665 840.57146 L 199.72244 840.88122 L 198.74699 840.69989 L 197.97871 840.0721 L 197.58881 838.88569 L 197.58881 823.33141 L 197.8349 822.37026 L 198.58881 821.59936 L 209.05921 815.55428 L 198.58881 809.50919 L 197.87947 808.81549 L 197.58881 807.77714 L 197.58881 792.22286 L 197.8349 791.26171 L 198.58881 790.49081 L 209.05921 784.44572 L 198.58881 778.40064 L 197.87948 777.70694 L 197.58881 776.66859 L 197.58881 761.11431 L 197.8349 760.15316 L 198.51262 759.42854 L 199.45518 759.11878 L 200.43063 759.30011 L 201.19891 759.9279 L 201.58881 761.11431 L 201.58881 775.51389 L 213.05921 782.13632 L 224.5296 775.51389 L 224.5296 762.26901 L 212.0592 755.06922 L 211.34986 754.37552 L 211.06119 753.42629 L 211.26421 752.45513 L 211.90896 751.70103 L 212.83679 751.34958 Z M 201.58881 793.37756 L 201.58881 806.62244 L 240 828.79915 L 251.4704 822.17671 L 251.4704 777.82329 L 240 771.20085 Z" stroke-miterlimit="10"/><path fill="#222222" stroke="#cccccc" paint-order="fill stroke markers" d=" M 366.66815 749.08677 L 367.43643 749.71456 L 367.82633 750.90097 L 367.82633 780.16956 L 379 773.71844 L 379.3945 773.60801 L 379.77759 773.4629 L 379.85504 773.47909 L 379.95543 773.45099 L 380.92183 773.6756 L 380.9605 773.71018 L 381 773.71844 L 395.17367 781.90161 L 395.883 782.59531 L 396.17367 783.63366 L 396.17367 796.5359 L 421.521 781.90161 L 422.47643 781.63416 L 423.44283 781.85877 L 424.18237 782.52017 L 424.51306 783.4556 L 424.35351 784.43484 L 423.521 785.36571 L 410.34734 792.97153 L 410.34734 807.02847 L 423.521 814.63429 L 424.23034 815.32799 L 424.51901 816.27722 L 424.31599 817.24838 L 423.67124 818.00248 L 422.74341 818.35393 L 421.521 818.09839 L 396.17367 803.4641 L 396.17367 816.36634 L 395.92758 817.32749 L 395.17367 818.09839 L 381 826.28156 L 380.04457 826.54901 L 379 826.28156 L 367.82633 819.83044 L 367.82633 849.09903 L 367.58024 850.06018 L 366.90252 850.7848 L 365.95996 851.09456 L 364.98451 850.91323 L 364.21623 850.28544 L 363.82633 849.09903 L 363.82633 833.88738 L 351.65266 826.85891 L 338.479 834.46473 L 337.52357 834.73218 L 336.55717 834.50757 L 335.81763 833.84617 L 335.48694 832.91074 L 335.64649 831.9315 L 336.479 831.00063 L 361.82633 816.36634 L 350.65266 809.91522 L 349.94333 809.22152 L 349.65266 808.18317 L 349.65266 791.81683 L 349.89875 790.85568 L 350.65266 790.08478 L 361.82633 783.63366 L 336.479 768.99937 L 335.76966 768.30567 L 335.48099 767.35644 L 335.68401 766.38528 L 336.32876 765.63118 L 337.25659 765.27973 L 338.479 765.53527 L 351.65266 773.14109 L 363.82633 766.11262 L 363.82633 750.90097 L 364.07242 749.93982 L 364.75014 749.2152 L 365.6927 748.90544 Z M 355.65266 824.54951 L 363.82633 829.26858 L 363.82633 819.83044 Z M 353.65266 792.97153 L 353.65266 807.02847 L 380 822.24011 L 392.17367 815.21164 L 392.17367 784.78836 L 380 777.75989 Z M 398.17367 800 L 406.34734 804.71907 L 406.34734 795.28093 Z M 355.65266 775.45049 L 363.82633 780.16956 L 363.82633 770.73142 Z" stroke-miterlimit="10"/><path fill="#222222" stroke="#cccccc" paint-order="fill stroke markers" d=" M 549.59348 752.04428 L 561.03087 758.64766 L 561.35464 758.96429 L 561.69224 759.26622 L 561.70749 759.30936 L 561.74021 759.34136 L 561.87197 759.77463 L 562.02293 760.20165 L 562.01557 760.24682 L 562.02888 760.29059 L 561.93622 760.73384 L 561.86338 761.18089 L 561.83647 761.21097 L 561.82586 761.26175 L 561.18111 762.01585 L 561.08362 762.05278 L 561.03087 762.11176 L 550.59348 768.13779 L 550.59348 780.18985 L 550.49186 780.58673 L 550.42599 780.99103 L 550.37325 781.05 L 550.34739 781.151 L 549.66967 781.87562 L 549.62038 781.89182 L 549.59348 781.9219 L 541.15609 786.79324 L 549.59348 791.66457 L 550.30282 792.35827 L 550.59348 793.39662 L 550.59348 806.60338 L 550.34739 807.56453 L 549.59348 808.33543 L 541.15609 813.20676 L 549.59348 818.0781 L 550.30282 818.7718 L 550.59348 819.81015 L 550.59348 831.86221 L 561.03087 837.88824 L 561.35464 838.20487 L 561.69224 838.5068 L 561.70749 838.54994 L 561.74021 838.58194 L 561.87197 839.01521 L 562.02293 839.44223 L 562.01557 839.4874 L 562.02888 839.53117 L 561.93622 839.97442 L 561.86338 840.42147 L 561.83647 840.45155 L 561.82586 840.50233 L 561.18111 841.25643 L 561.08362 841.29336 L 561.03087 841.35234 L 549.59348 847.95572 L 549.15741 848.07779 L 548.72711 848.2192 L 548.68211 848.21084 L 548.63805 848.22317 L 548.19688 848.12063 L 547.75166 848.03787 L 547.71623 848.00892 L 547.67165 847.99856 L 547.33398 847.69657 L 546.98338 847.41008 L 546.97078 847.37175 L 546.93211 847.33716 L 546.60142 846.40173 L 546.61818 846.29884 L 546.59348 846.22367 L 546.59348 834.17161 L 536.15609 828.14558 L 535.86318 827.85912 L 535.54599 827.59994 L 535.52129 827.52477 L 535.44675 827.45188 L 535.15808 826.50265 L 535.16869 826.45188 L 535.15609 826.41353 L 535.15609 816.67087 L 526.7187 821.5422 L 525.76327 821.80965 L 524.7187 821.5422 L 513.2813 814.93881 L 512.57196 814.24511 L 512.2813 813.20676 L 512.2813 803.4641 L 503.84391 808.33543 L 502.88848 808.60288 L 501.84391 808.33543 L 491.40652 802.3094 L 480.96913 808.33543 L 480.0137 808.60288 L 479.0473 808.37827 L 478.30776 807.71687 L 477.96913 806.60338 L 477.96913 793.39662 L 478.08149 792.95778 L 478.17414 792.51458 L 478.20387 792.47981 L 478.21522 792.43547 L 478.52462 792.10466 L 478.81889 791.76048 L 478.86168 791.74427 L 478.89294 791.71085 L 479.32326 791.56943 L 479.74672 791.40903 L 479.78622 791.41729 L 479.8355 791.40109 L 480.81095 791.58242 L 480.89167 791.64838 L 480.96913 791.66457 L 491.40652 797.6906 L 501.84391 791.66457 L 502.23841 791.55414 L 502.6215 791.40903 L 502.69895 791.42522 L 502.79934 791.39712 L 503.76574 791.62173 L 503.80441 791.65631 L 503.84391 791.66457 L 512.2813 796.5359 L 512.2813 786.79324 L 512.52739 785.83209 L 513.2813 785.06119 L 524.7187 778.4578 L 525.1132 778.34737 L 525.49629 778.20226 L 525.57374 778.21845 L 525.67413 778.19035 L 526.64053 778.41496 L 526.6792 778.44954 L 526.7187 778.4578 L 535.15609 783.32913 L 535.15609 773.58647 L 535.40218 772.62532 L 536.15609 771.85442 L 546.59348 765.82839 L 546.59348 753.77633 L 546.83957 752.81518 L 547.51729 752.09056 L 548.45985 751.7808 Z M 550.59348 842.75957 L 556.03087 839.62029 L 550.59348 836.48101 Z M 539.15609 825.25883 L 546.59348 829.55281 L 546.59348 820.96485 L 539.15609 816.67086 Z M 516.2813 787.94794 L 516.2813 812.05206 L 525.7187 817.50075 L 546.59348 805.44868 L 546.59348 794.55132 L 525.7187 782.49925 Z M 495.40652 800 L 502.84391 804.29398 L 510.2813 800 L 502.84391 795.70602 Z M 481.96913 803.13928 L 487.40652 800 L 481.96913 796.86072 Z M 539.15609 774.74117 L 539.15609 783.32914 L 546.59348 779.03515 L 546.59348 770.44719 Z M 550.59348 763.51899 L 556.03087 760.37971 L 550.59348 757.24043 Z" stroke-miterlimit="10"/><path fill="#222222" stroke="#cccccc" paint-order="fill stroke markers" d=" M 687.86263 751.56228 L 687.9013 751.59686 L 687.9408 751.60512 L 701.41119 759.38226 L 702.12053 760.07596 L 702.41119 761.11431 L 702.41119 776.66859 L 702.1651 777.62974 L 701.48738 778.35436 L 700.54482 778.66412 L 699.41119 778.40064 L 688.9408 772.35555 L 688.9408 783.29102 L 701.41119 790.49081 L 702.12053 791.18451 L 702.41119 792.22286 L 702.41119 807.77714 L 702.1651 808.73829 L 701.41119 809.50919 L 688.9408 816.70898 L 688.9408 827.64445 L 699.41119 821.59936 L 700.36662 821.33191 L 701.33302 821.55652 L 702.07256 822.21792 L 702.41119 823.33141 L 702.41119 838.88569 L 702.30957 839.28257 L 702.2437 839.68687 L 702.19096 839.74584 L 702.1651 839.84684 L 701.48738 840.57146 L 701.43809 840.58766 L 701.41119 840.61774 L 687.9408 848.39488 L 686.98537 848.66233 L 685.9408 848.39488 L 672.4704 840.61774 L 671.76106 839.92404 L 671.47239 838.97481 L 671.67541 838.00365 L 672.4704 837.15364 L 682.9408 831.10855 L 673.4704 825.64081 L 661 832.8406 L 660.04457 833.10805 L 659 832.8406 L 645.5296 825.06346 L 645.23669 824.777 L 644.9195 824.51782 L 644.8948 824.44265 L 644.82026 824.36976 L 644.53159 823.42053 L 644.5422 823.36976 L 644.5296 823.33141 L 644.5296 808.93184 L 635.0592 803.4641 L 635.0592 815.55428 L 634.81311 816.51543 L 634.13539 817.24005 L 633.19283 817.54981 L 632.0592 817.28633 L 618.58881 809.50919 L 617.87947 808.81549 L 617.58881 807.77714 L 617.58881 792.22286 L 617.8349 791.26171 L 618.58881 790.49081 L 632.0592 782.71367 L 632.49527 782.5916 L 632.92557 782.45019 L 632.97057 782.45855 L 633.01463 782.44622 L 633.4558 782.54876 L 633.90102 782.63152 L 633.93645 782.66047 L 633.98103 782.67083 L 634.3187 782.97282 L 634.6693 783.25931 L 634.6819 783.29764 L 634.72057 783.33223 L 635.05126 784.26766 L 635.0345 784.37055 L 635.0592 784.44572 L 635.0592 796.5359 L 644.5296 791.06816 L 644.5296 776.66859 L 644.77569 775.70744 L 645.5296 774.93654 L 659 767.1594 L 659.95543 766.89195 L 661 767.1594 L 673.4704 774.35919 L 682.9408 768.89145 L 672.4704 762.84636 L 672.14663 762.52973 L 671.80903 762.2278 L 671.79378 762.18466 L 671.76106 762.15266 L 671.6293 761.71939 L 671.47834 761.29237 L 671.4857 761.2472 L 671.47239 761.20343 L 671.56505 760.76018 L 671.63789 760.31313 L 671.6648 760.28305 L 671.67541 760.23227 L 672.32016 759.47817 L 672.41765 759.44124 L 672.4704 759.38226 L 685.9408 751.60512 L 686.3353 751.49469 L 686.71839 751.34958 L 686.79584 751.36577 L 686.89623 751.33767 Z M 677.4704 838.88569 L 686.9408 844.35343 L 698.41119 837.73099 L 698.41119 826.79551 Z M 648.5296 777.82329 L 648.5296 792.22286 L 648.28351 793.18401 L 647.5296 793.95491 L 637.0592 800 L 647.5296 806.04509 L 648.23894 806.73879 L 648.5296 807.77714 L 648.5296 822.17671 L 660 828.79915 L 672.4704 821.59936 L 673.42583 821.33191 L 674.4704 821.59936 L 684.9408 827.64445 L 684.9408 815.55428 L 685.18689 814.59313 L 685.9408 813.82223 L 698.41119 806.62244 L 698.41119 793.37756 L 685.9408 786.17777 L 685.23146 785.48407 L 684.9408 784.44572 L 684.9408 772.35555 L 674.4704 778.40064 L 673.51497 778.66809 L 672.4704 778.40064 L 660 771.20085 Z M 621.58881 793.37756 L 621.58881 806.62244 L 631.0592 812.09018 L 631.0592 787.90982 Z M 677.4704 761.11431 L 698.41119 773.20449 L 698.41119 762.26901 L 686.9408 755.64657 Z" stroke-miterlimit="10"/><path fill="#222222" stroke="#cccccc" paint-order="fill stroke markers" d=" M 821.04931 750.03697 L 821.64308 750.14735 L 821.71731 750.20801 L 821.80126 750.2295 L 842.60251 762.23912 L 842.92628 762.55575 L 843.26388 762.85768 L 843.27913 762.90082 L 843.31185 762.93282 L 843.39328 763.22371 L 843.59457 763.79311 L 843.57915 763.88773 L 843.60251 763.97117 L 843.60251 787.99039 L 843.35642 788.95154 L 842.60251 789.72244 L 824.80126 800 L 842.60251 810.27756 L 843.31185 810.97126 L 843.60251 812.00961 L 843.60251 836.02883 L 843.49015 836.46767 L 843.3975 836.91087 L 843.36777 836.94564 L 843.35642 836.98998 L 843.1452 837.20596 L 842.75275 837.66497 L 842.66309 837.69893 L 842.60251 837.76088 L 821.80126 849.7705 L 821.36519 849.89257 L 820.93489 850.03398 L 820.88989 850.02562 L 820.84583 850.03795 L 820.55321 849.96303 L 819.95944 849.85265 L 819.88521 849.79199 L 819.80126 849.7705 L 799 837.76088 L 798.29066 837.06718 L 798 836.02883 L 798 815.47371 L 780.19874 825.75127 L 779.24331 826.01872 L 778.19874 825.75127 L 757.39749 813.74166 L 757.07372 813.42503 L 756.73612 813.1231 L 756.72087 813.07996 L 756.68815 813.04796 L 756.60672 812.75707 L 756.40543 812.18767 L 756.42085 812.09305 L 756.39749 812.00961 L 756.39749 787.99039 L 756.50985 787.55155 L 756.6025 787.10835 L 756.63223 787.07358 L 756.64358 787.02924 L 756.8548 786.81326 L 757.24725 786.35425 L 757.33691 786.32029 L 757.39749 786.25834 L 778.19874 774.24873 L 778.59324 774.1383 L 778.97633 773.99319 L 779.05378 774.00938 L 779.15417 773.98128 L 780.12057 774.20589 L 780.15924 774.24047 L 780.19874 774.24873 L 798 784.52629 L 798 763.97117 L 798.24609 763.01002 L 799 762.23912 L 819.80126 750.2295 L 820.23733 750.10743 L 820.66763 749.96602 L 820.71263 749.97438 L 820.75669 749.96205 Z M 822.80126 844.57435 L 837.60251 836.02883 L 822.80126 827.48332 Z M 802 834.87413 L 818.80126 844.57435 L 818.80126 825.17392 L 802 815.47371 Z M 822.80126 822.86452 L 839.60251 832.56473 L 839.60251 813.16431 L 822.80126 803.4641 Z M 762.39749 812.00961 L 779.19874 821.70982 L 796 812.00961 L 779.19875 802.3094 Z M 783.19874 800 L 818.80126 820.55512 L 818.80126 779.44488 Z M 760.39749 808.54551 L 775.19875 800 L 760.39749 791.45449 Z M 762.39749 787.99039 L 779.19875 797.6906 L 796 787.99039 L 779.19874 778.29018 Z M 822.80126 777.13548 L 822.80126 796.5359 L 839.60251 786.83569 L 839.60251 767.43527 Z M 802 765.12587 L 802 784.52629 L 818.80126 774.82608 L 818.80126 755.42565 Z M 822.80126 772.51668 L 837.60251 763.97117 L 822.80126 755.42565 Z" stroke-miterlimit="10"/></g></svg>