<svg version="1.1" xmlns="http://www.w3.org/2000/svg" xmlns:xlink="http://www.w3.org/1999/xlink" width="900" height="900"><defs/><g><rect fill="#000000" stroke="none" x="0" y="0" width="900" height="900"/><path fill="none" stroke="cyan" paint-order="fill stroke markers" d=" M 229.5902703948201 221.43350763414563 L 229.5902703948201 231.70753630713813 L 219.81908847676735 234.8823857677883 L 219.81908847676738 245.15641444078082 L 229.59027039482015 248.331263901431 L 229.59027039482015 258.6052925744235 L 219.81908847676738 261.78014203507365 L 219.81908847676738 272.0541707080661 L 210.04790655871463 275.2290201687163 L 210.04790655871463 285.5030488417088 L 200.27672464066188 288.677898302359 L 194.23780210504688 296.98976209950536 L 184.46662018699413 293.8149126388552 L 184.46662018699413 283.5408839658627 L 178.42769765137916 275.2290201687163 L 184.46662018699413 266.9171563715699 L 178.42769765137916 258.6052925744235 L 184.46662018699413 250.2934287772771 L 178.42769765137916 241.98156498013066 L 184.46662018699413 233.66970118298426 L 194.23780210504688 236.84455064363442 L 200.27672464066188 228.532686846488 L 194.23780210504694 220.22082304934162 L 184.4666201869941 223.3956725099917 L 184.4666201869941 233.6697011829842 L 174.69543826894136 236.84455064363436 L 168.65651573332636 228.53268684648793 L 158.8853338152736 231.70753630713813 L 152.8464112796586 223.3956725099917 L 143.07522936160586 226.57052197064186 L 137.03630682599086 218.25865817349546 L 127.26512490793812 215.0838087128453 L 127.26512490793822 204.80978003985294 L 137.03630682599095 201.63493057920277 L 143.07522936160598 193.32306678205634 L 152.8464112796587 196.49791624270654 L 158.8853338152737 188.1860524455601 L 168.65651573332644 191.3609019062103 L 174.69543826894144 183.04903810906387 L 184.4666201869942 186.22388756971404 L 178.4276976513792 177.91202377256758 L 184.4666201869942 169.60015997542118 L 178.4276976513792 161.28829617827475 L 184.4666201869942 152.97643238112835 L 178.4276976513792 144.66456858398192 L 184.4666201869942 136.35270478683552 L 184.4666201869942 126.07867611384304 L 194.23780210504694 122.90382665319288 L 200.27672464066194 131.21569045033928 L 210.0479065587147 134.39053991098945 L 210.0479065587147 144.66456858398195 L 219.81908847676743 147.8394180446321 L 219.81908847676743 158.11344671762458 L 229.59027039482018 161.28829617827478 L 229.59027039482018 171.56232485126725 L 235.62919293043507 163.2504610541208 L 245.40037484848784 166.42531051477096 L 251.43929738410282 158.11344671762453 L 261.2104793021556 161.28829617827472 L 267.24940183777056 152.9764323811283 L 277.0205837558233 156.15128184177848 L 286.79176567387606 152.9764323811283 L 292.8306882094911 161.28829617827472 L 286.79176567387606 169.60015997542112 L 286.79176567387606 179.87418864841362 L 277.0205837558233 183.0490381090638 L 277.0205837558233 193.32306678205626 L 267.24940183777056 196.49791624270642 L 267.24940183777056 206.7719449156989 L 257.4782199197178 209.9467943763491 L 251.43929738410282 201.63493057920266 L 241.66811546605007 204.80978003985282 L 229.5902703948201 188.18605244556002 L 235.62919293043507 179.87418864841362 L 229.5902703948201 171.5623248512672 L 219.81908847676743 174.7371743119174 L 219.81908847676743 185.01120298490991 L 200.27672464066194 191.36090190621022 L 210.0479065587146 194.53575136686035" stroke-miterlimit="10" stroke-width="0.5"/><path fill="none" stroke="cyan" paint-order="fill stroke markers" d=" M 200.27672464066185 207.98462950050302 L 194.23780210504685 199.67276570335662 L 200.27672464066185 191.3609019062102 L 194.23780210504694 183.04903810906382 L 184.4666201869942 186.22388756971398 L 184.4666201869942 196.49791624270654 L 194.23780210504694 199.6727657033567 L 194.23780210504685 220.22082304934153 L 200.27672464066194 211.90895925219522" stroke-miterlimit="10" stroke-width="0.5"/><path fill="none" stroke="cyan" paint-order="fill stroke markers" d=" M 219.81908847676735 218.2586581734955 L 235.62919293043518 223.3956725099918 L 225.85801101238238 209.94679437634912 L 210.0479065587147 215.0838087128454 L 219.81908847676743 201.63493057920277 L 219.81908847676735 218.2586581734955 L 210.04790655871463 204.80978003985288 L 225.85801101238243 209.94679437634915 L 235.62919293043507 196.49791624270642 L 219.81908847676743 201.63493057920275 L 210.0479065587147 188.18605244556008 L 210.0479065587146 204.80978003985285 L 194.23780210504685 209.94679437634906 L 210.0479065587147 215.08380871284538 L 210.04790655871463 231.70753630713818 L 219.81908847676743 218.25865817349558" stroke-miterlimit="10" stroke-width="0.5"/><path fill="none" stroke="cyan" paint-order="fill stroke markers" d=" M 204.0089840230997 213.12164383699934 L 204.0089840230997 223.3956725099918 L 219.81908847676743 228.53268684648805 L 225.85801101238243 220.22082304934165" stroke-miterlimit="10" stroke-width="0.5"/><path fill="none" stroke="cyan" paint-order="fill stroke markers" d=" M 213.78016594115246 193.32306678205634 L 219.81908847676743 185.01120298490994 L 229.5902703948202 188.1860524455601 L 229.5902703948202 198.46008111855258" stroke-miterlimit="10" stroke-width="0.5"/><path fill="none" stroke="cyan" paint-order="fill stroke markers" d=" M 231.89693354799738 201.63493057920272 L 241.66811546605015 204.80978003985288 L 241.66811546605015 215.08380871284538 L 251.4392973841029 218.25865817349555 L 257.4782199197179 209.94679437634915 L 267.2494018377706 213.1216438369993 L 267.2494018377706 223.3956725099918 L 277.0205837558234 226.57052197064198 L 277.0205837558234 236.84455064363445 L 286.79176567387617 240.0194001042846 L 286.79176567387617 250.29342877727711 L 292.83068820949114 258.6052925744235 L 286.79176567387617 266.91715637156994 L 277.0205837558234 263.74230691091975 L 267.2494018377706 266.91715637156994 L 261.21047930215565 258.6052925744235 L 251.4392973841029 261.7801420350737 L 245.40037484848793 253.46827823792728 L 235.62919293043518 256.6431276985774 L 229.5902703948202 248.33126390143104 L 235.6291929304352 240.0194001042846 L 229.5902703948202 231.7075363071382 L 241.66811546605015 215.0838087128454 L 231.89693354799738 218.25865817349552" stroke-miterlimit="10" stroke-width="0.5"/><path fill="none" stroke="cyan" paint-order="fill stroke markers" d=" M 229.5902703948202 215.08380871284538 L 235.6291929304352 206.77194491569898 L 225.85801101238243 193.32306678205632 L 216.0868290943297 196.49791624270648" stroke-miterlimit="10" stroke-width="0.5"/><path fill="none" stroke="cyan" paint-order="fill stroke markers" d=" M 210.0479065587147 225.35783738583785 L 200.27672464066194 228.53268684648802 L 219.81908847676738 234.88238576778835 L 213.78016594115235 226.57052197064186" stroke-miterlimit="10" stroke-width="0.5"/><path fill="none" stroke="cyan" paint-order="fill stroke markers" d=" M 210.0479065587147 198.46008111855255 L 200.2767246406619 201.63493057920272 L 200.27672464066188 218.25865817349552 L 210.04790655871463 221.43350763414568" stroke-miterlimit="10" stroke-width="0.5"/><path fill="none" stroke="cyan" paint-order="fill stroke markers" d=" M 216.0868290943296 223.39567250999175 L 225.85801101238238 226.57052197064192 L 235.62919293043507 213.12164383699925 L 229.5902703948201 204.80978003985285" stroke-miterlimit="10" stroke-width="0.5"/><path fill="none" stroke="cyan" paint-order="fill stroke markers" d=" M 225.85801101238232 199.6727657033566 L 219.81908847676735 191.36090190621016 L 204.0089840230996 196.4979162427064" stroke-miterlimit="10" stroke-width="0.5"/><path fill="none" stroke="cyan" paint-order="fill stroke markers" d=" M 204.0089840230996 196.4979162427064 L 204.0089840230996 206.7719449156989" stroke-miterlimit="10" stroke-width="0.5"/><path fill="none" stroke="cyan" paint-order="fill stroke markers" d=" M 441.27313300070915 232.37113117035722 L 441.27313300070915 187.47386393464478" stroke-miterlimit="10" stroke-width="0.5"/><path fill="none" stroke="cyan" paint-order="fill stroke markers" d=" M 441.27313300070915 202.43961967988233 L 412.80657395512975 193.19027396199658" stroke-miterlimit="10" stroke-width="0.5"/><path fill="none" stroke="cyan" paint-order="fill stroke markers" d=" M 427.03985347791945 197.81494682093947 L 418.2432029614575 209.92249755250106 L 427.03985347791945 222.03004828406256" stroke-miterlimit="10" stroke-width="0.5"/><path fill="none" stroke="cyan" paint-order="fill stroke markers" d=" M 427.03985347791945 212.7807025661769 L 441.27313300070915 217.4053754251198 L 412.80657395512975 226.65472114300542 L 404.00992343866784 214.54717041144383 L 389.7766439158781 209.92249755250094 L 380.9799933994162 222.03004828406267 L 389.7766439158781 234.13759901562415 L 404.00992343866784 229.51292615668126 L 404.00992343866784 214.54717041144383 L 418.2432029614575 209.92249755250094 L 404.00992343866784 205.29782469355817 L 412.80657395512975 193.19027396199658" stroke-miterlimit="10" stroke-width="0.5"/><path fill="none" stroke="cyan" paint-order="fill stroke markers" d=" M 380.9799933994162 222.03004828406267 L 366.7467138766265 217.4053754251198 L 366.7467138766265 202.43961967988233 L 380.9799933994162 197.81494682093947 L 389.7766439158781 209.92249755250106 L 404.00992343866784 205.29782469355817 L 404.00992343866784 190.33206894832074 L 389.7766439158781 185.70739608937785 L 380.9799933994162 197.81494682093947" stroke-miterlimit="10" stroke-width="0.5"/><path fill="none" stroke="cyan" paint-order="fill stroke markers" d=" M 427.03985347791945 197.81494682093947 L 427.03985347791945 222.03004828406256" stroke-miterlimit="10" stroke-width="0.5"/><path fill="none" stroke="cyan" paint-order="fill stroke markers" d=" M 441.27313300070915 232.37113117035722 L 455.50641252349885 236.9958040293001 L 481.89636407288464 200.67315183461528 L 473.0997135564227 188.56560110305367 L 430.39987498805357 202.43961967988227 L 430.39987498805357 217.40537542511973 L 473.0997135564227 231.27939400194833 L 481.89636407288464 219.17184327038674 L 455.50641252349885 182.8491910757019 L 441.27313300070915 187.47386393464478" stroke-miterlimit="10" stroke-width="0.5"/><path fill="none" stroke="cyan" paint-order="fill stroke markers" d=" M 464.3030630399608 224.88825329773852 L 478.5363425627505 229.51292615668137" stroke-miterlimit="10" stroke-width="0.5"/><path fill="none" stroke="cyan" paint-order="fill stroke markers" d=" M 473.0997135564227 236.99580402930007 L 487.33299307921243 217.40537542511976" stroke-miterlimit="10" stroke-width="0.5"/><path fill="none" stroke="cyan" paint-order="fill stroke markers" d=" M 481.89636407288464 224.8882532977385 L 473.0997135564227 212.78070256617687 L 501.56627260200213 222.03004828406264 L 501.56627260200213 236.9958040293001 L 487.33299307921243 232.37113117035722 L 496.1296435956744 244.47868190191883 L 481.89636407288464 249.1033547608617" stroke-miterlimit="10" stroke-width="0.5"/><path fill="none" stroke="cyan" paint-order="fill stroke markers" d=" M 524.5962026412537 244.47868190191883 L 524.5962026412537 229.51292615668137 L 510.36292311846404 224.8882532977385 L 501.56627260200213 236.9958040293001 L 510.36292311846404 249.10335476086172 L 496.1296435956744 244.4786819019188 L 487.33299307921243 256.5862326334804 L 496.1296435956744 268.693783365042 L 510.36292311846404 264.06911050609915 L 510.36292311846404 249.10335476086172 L 524.5962026412537 244.47868190191883 L 533.3928531577158 256.58623263348045 L 524.5962026412537 268.693783365042 L 510.36292311846404 264.06911050609915" stroke-miterlimit="10" stroke-width="0.5"/><path fill="none" stroke="cyan" paint-order="fill stroke markers" d=" M 473.0997135564227 236.9958040293001 L 487.33299307921243 232.37113117035722 L 487.33299307921243 217.40537542511976" stroke-miterlimit="10" stroke-width="0.5"/><path fill="none" stroke="cyan" paint-order="fill stroke markers" d=" M 464.3030630399608 224.8882532977385 L 481.89636407288464 249.1033547608617" stroke-miterlimit="10" stroke-width="0.5"/><path fill="none" stroke="cyan" paint-order="fill stroke markers" d=" M 458.866434033633 193.19027396199655 L 450.06978351717106 181.08272323043494" stroke-miterlimit="10" stroke-width="0.5"/><path fill="none" stroke="cyan" paint-order="fill stroke markers" d=" M 458.866434033633 178.22451821675907 L 435.83650399438136 185.70739608937782" stroke-miterlimit="10" stroke-width="0.5"/><path fill="none" stroke="cyan" paint-order="fill stroke markers" d=" M 444.63315451084327 182.84919107570195 L 444.63315451084327 197.8149468209394 L 427.03985347791945 173.5998453578162 L 435.83650399438136 161.4922946262546 L 444.63315451084327 173.5998453578162 L 444.63315451084327 158.63408961257875 L 458.866434033633 163.2587624715216" stroke-miterlimit="10" stroke-width="0.5"/><path fill="none" stroke="cyan" paint-order="fill stroke markers" d=" M 421.60322447159166 141.90186602207427 L 412.80657395512975 154.00941675363586 L 421.60322447159166 166.11696748519745 L 435.83650399438136 161.4922946262546 L 435.83650399438136 146.52653888101713 L 444.63315451084327 158.63408961257875 L 458.866434033633 154.00941675363586 L 458.866434033633 139.0436610083984 L 444.63315451084327 134.41898814945552 L 435.83650399438136 146.52653888101713 L 421.60322447159166 141.90186602207427 L 421.60322447159166 126.93611027683681 L 435.83650399438136 122.31143741789393 L 444.63315451084327 134.41898814945552" stroke-miterlimit="10" stroke-width="0.5"/><path fill="none" stroke="cyan" paint-order="fill stroke markers" d=" M 458.866434033633 178.22451821675907 L 444.63315451084327 173.59984535781618 L 435.83650399438136 185.7073960893778" stroke-miterlimit="10" stroke-width="0.5"/><path fill="none" stroke="cyan" paint-order="fill stroke markers" d=" M 458.866434033633 193.19027396199652 L 458.866434033633 163.2587624715216" stroke-miterlimit="10" stroke-width="0.5"/><path fill="none" stroke="cyan" paint-order="fill stroke markers" d=" M 444.63315451084327 222.0300482840626 L 444.63315451084327 236.99580402930005" stroke-miterlimit="10" stroke-width="0.5"/><path fill="none" stroke="cyan" paint-order="fill stroke markers" d=" M 435.83650399438136 234.1375990156242 L 458.866434033633 241.62047688824293" stroke-miterlimit="10" stroke-width="0.5"/><path fill="none" stroke="cyan" paint-order="fill stroke markers" d=" M 450.06978351717106 238.7622718745671 L 458.866434033633 226.65472114300547 L 458.866434033633 256.5862326334804 L 444.63315451084327 261.21090549242325 L 444.63315451084327 246.24514974718582 L 435.83650399438136 258.3527004787474 L 427.03985347791945 246.24514974718582" stroke-miterlimit="10" stroke-width="0.5"/><path fill="none" stroke="cyan" paint-order="fill stroke markers" d=" M 444.63315451084327 285.4260069555464 L 458.866434033633 280.80133409660357 L 458.866434033633 265.83557835136617 L 444.63315451084327 261.21090549242325 L 435.83650399438136 273.31845622398487 L 435.83650399438136 258.3527004787474 L 421.60322447159166 253.72802761980455 L 412.80657395512975 265.83557835136617 L 421.60322447159166 277.9431290829277 L 435.83650399438136 273.31845622398487 L 444.63315451084327 285.4260069555464 L 435.83650399438136 297.5335576871081 L 421.60322447159166 292.9088848281652 L 421.60322447159166 277.9431290829277" stroke-miterlimit="10" stroke-width="0.5"/><path fill="none" stroke="cyan" paint-order="fill stroke markers" d=" M 435.83650399438136 234.1375990156242 L 444.63315451084327 246.24514974718582 L 458.866434033633 241.62047688824293" stroke-miterlimit="10" stroke-width="0.5"/><path fill="none" stroke="cyan" paint-order="fill stroke markers" d=" M 444.63315451084327 222.0300482840626 L 427.03985347791945 246.24514974718582" stroke-miterlimit="10" stroke-width="0.5"/><path fill="none" stroke="cyan" paint-order="fill stroke markers" d=" M 473.0997135564227 207.06429253882513 L 481.89636407288464 194.95674180726354" stroke-miterlimit="10" stroke-width="0.5"/><path fill="none" stroke="cyan" paint-order="fill stroke markers" d=" M 487.33299307921243 202.4396196798822 L 473.0997135564227 182.84919107570192" stroke-miterlimit="10" stroke-width="0.5"/><path fill="none" stroke="cyan" paint-order="fill stroke markers" d=" M 478.5363425627505 190.33206894832063 L 464.3030630399608 194.9567418072635 L 481.89636407288464 170.7416403441403 L 496.1296435956744 175.3663132030832 L 487.33299307921243 187.47386393464478 L 501.56627260200213 182.8491910757019 L 501.56627260200213 197.81494682093935" stroke-miterlimit="10" stroke-width="0.5"/><path fill="none" stroke="cyan" paint-order="fill stroke markers" d=" M 510.36292311846404 155.77588459890285 L 496.1296435956744 151.15121173995996 L 487.33299307921243 163.25876247152158 L 496.1296435956744 175.36631320308317 L 510.36292311846404 170.7416403441403 L 501.56627260200213 182.8491910757019 L 510.36292311846404 194.9567418072635 L 524.5962026412537 190.33206894832063 L 524.5962026412537 175.36631320308317 L 510.36292311846404 170.7416403441403 L 510.36292311846404 155.77588459890285 L 524.5962026412537 151.15121173995996 L 533.3928531577158 163.25876247152158 L 524.5962026412537 175.36631320308317" stroke-miterlimit="10" stroke-width="0.5"/><path fill="none" stroke="cyan" paint-order="fill stroke markers" d=" M 487.33299307921243 202.4396196798822 L 487.33299307921243 187.47386393464478 L 473.0997135564227 182.8491910757019" stroke-miterlimit="10" stroke-width="0.5"/><path fill="none" stroke="cyan" paint-order="fill stroke markers" d=" M 473.0997135564227 207.0642925388251 L 501.56627260200213 197.81494682093935" stroke-miterlimit="10" stroke-width="0.5"/><path fill="none" stroke="cyan" paint-order="fill stroke markers" d=" M 441.27313300070915 202.4396196798822 L 427.03985347791945 207.0642925388251" stroke-miterlimit="10" stroke-width="0.5"/><path fill="none" stroke="cyan" paint-order="fill stroke markers" d=" M 720.5672001488037 195.67963658970055 L 731.0385822425914 181.26701559346563 L 747.9816343795269 186.77214694705697 L 758.4530164733145 172.35952595082207 L 775.3960686102499 177.86465730441344 L 775.3960686102499 195.67963658970052 L 758.4530164733145 201.1847679432919 L 758.4530164733145 218.999747228579 L 775.3960686102499 224.50487858217036 L 775.3960686102499 242.31985786745744 L 758.4530164733145 247.82498922104878 L 747.9816343795269 233.4123682248139 L 731.0385822425914 238.91749957840523 L 731.0385822425915 256.7324788636923 L 747.9816343795269 262.23761021728365 L 747.9816343795269 280.05258950257075 L 731.0385822425915 285.55772085616206 L 720.5672001488037 271.1450998599272 L 703.6241480118682 276.6502312135185 L 703.6241480118682 294.4652104988056 L 686.6810958749328 299.970341852397 L 676.2097137811452 285.55772085616206 L 686.6810958749328 271.1450998599272 L 676.2097137811452 256.7324788636923 L 686.6810958749328 242.31985786745736 L 686.6810958749328 224.50487858217028 L 703.6241480118682 218.999747228579 L 714.0955301056559 233.41236822481383 L 731.0385822425914 238.9174995784052 L 720.5672001488037 224.50487858217033 L 703.6241480118682 218.999747228579 L 703.6241480118682 201.18476794329197 L 720.5672001488037 195.67963658970055 L 720.5672001488037 177.86465730441344 L 686.6810958749328 166.85439459723068 L 676.2097137811452 181.2670155934656 L 686.6810958749328 195.67963658970052 L 676.2097137811452 210.0922575859355 L 659.2666616442096 204.58712623234405 L 648.795279550422 218.99974722857894 L 669.7380437379974 247.82498922104875 L 686.6810958749328 242.3198578674574" stroke-miterlimit="10" stroke-width="0.5"/><path fill="none" stroke="cyan" paint-order="fill stroke markers" d=" M 659.2666616442096 204.58712623234405 L 642.3236095072742 210.0922575859354 L 631.8522274134866 195.6796365897005 L 614.9091752765511 201.18476794329186 L 604.4377931827635 186.77214694705694 L 614.9091752765511 172.35952595082205 L 631.8522274134866 177.8646573044134 L 642.3236095072742 163.4520363081785 L 631.8522274134866 149.03941531194357 L 642.3236095072742 134.62679431570865 L 659.2666616442096 140.13192566930002 L 659.2666616442096 157.94690495458713 L 676.2097137811452 163.4520363081785 L 686.6810958749328 149.03941531194369 L 676.2097137811452 134.62679431570876 L 686.6810958749328 120.21417331947384 L 703.6241480118682 125.71930467306522 L 703.6241480118682 143.53428395835232 L 720.5672001488037 149.03941531194369 L 731.0385822425914 134.62679431570876 L 747.9816343795269 140.13192566930013 L 747.9816343795269 157.9469049545872 L 731.0385822425914 163.4520363081786 L 731.0385822425914 181.2670155934657 L 714.0955301056559 186.77214694705702 L 703.6241480118682 201.18476794329197 L 686.6810958749328 195.6796365897006 L 686.6810958749328 177.8646573044135 L 669.7380437379974 172.35952595082213 L 648.795279550422 201.18476794329194 L 659.2666616442096 215.59738893952684 L 676.2097137811452 210.0922575859355 L 686.6810958749328 224.5048785821704 L 676.2097137811452 238.9174995784053 L 686.6810958749328 253.33012057464018 L 720.5672001488037 242.31985786745744 L 720.5672001488037 224.50487858217036" stroke-miterlimit="10" stroke-width="0.5"/><path fill="none" stroke="cyan" paint-order="fill stroke markers" d=" M 686.6810958749328 177.8646573044135 L 703.6241480118682 172.35952595082213 L 693.1527659180806 186.77214694705697 L 714.0955301056559 215.59738893952687 L 731.0385822425914 210.0922575859355 L 714.0955301056559 204.587126232344 L 693.1527659180806 233.4123682248139 L 703.6241480118682 247.8249892210488 L 686.6810958749328 242.3198578674574" stroke-miterlimit="10" stroke-width="0.5"/><path fill="none" stroke="cyan" paint-order="fill stroke markers" d=" M 659.2666616442096 204.58712623234405 L 659.2666616442096 186.77214694705697 L 669.7380437379974 201.18476794329194 L 703.6241480118682 190.17450523610916 L 703.6241480118682 172.35952595082205 L 714.0955301056559 186.77214694705705" stroke-miterlimit="10" stroke-width="0.5"/><path fill="none" stroke="cyan" paint-order="fill stroke markers" d=" M 714.0955301056559 233.4123682248138 L 731.0385822425915 227.90723687122244 L 731.0385822425914 192.27727830064842 L 714.0955301056559 186.77214694705705" stroke-miterlimit="10" stroke-width="0.5"/><path fill="none" stroke="cyan" paint-order="fill stroke markers" d=" M 686.6810958749328 177.8646573044135 L 676.2097137811452 163.4520363081786 L 676.2097137811452 181.26701559346557" stroke-miterlimit="10" stroke-width="0.5"/><path fill="none" stroke="cyan" paint-order="fill stroke markers" d=" M 676.2097137811452 238.9174995784053 L 659.2666616442096 233.41236822481395 L 676.2097137811452 227.90723687122247 L 676.2097137811452 192.2772783006484 L 659.2666616442096 186.77214694705702 L 676.2097137811452 181.2670155934656" stroke-miterlimit="10" stroke-width="0.5"/><path fill="none" stroke="cyan" paint-order="fill stroke markers" d=" M 714.0955301056559 233.41236822481383 L 703.6241480118682 247.82498922104875 L 703.6241480118682 230.01000993576173 L 669.7380437379974 218.99974722857894 L 659.2666616442096 233.41236822481383 L 659.2666616442096 215.59738893952684" stroke-miterlimit="10" stroke-width="0.5"/><path fill="none" stroke="cyan" paint-order="fill stroke markers" d=" M 676.2097137811452 238.9174995784053 L 676.2097137811452 256.7324788636924 L 659.2666616442096 262.23761021728376 L 659.2666616442096 280.05258950257087 L 642.3236095072742 285.5577208561622 L 631.8522274134866 271.1450998599273 L 642.3236095072742 256.7324788636924 L 631.8522274134866 242.31985786745747 L 614.9091752765511 247.82498922104884 L 604.4377931827635 233.41236822481392 L 614.9091752765511 218.99974722857903 L 631.8522274134866 224.50487858217036 L 642.3236095072742 210.09225758593547 L 659.2666616442096 215.59738893952684" stroke-miterlimit="10" stroke-width="0.5"/><path fill="none" stroke="cyan" paint-order="fill stroke markers" d=" M 720.5672001488037 195.67963658970055 L 731.0385822425914 210.09225758593547" stroke-miterlimit="10" stroke-width="0.5"/><path fill="none" stroke="cyan" paint-order="fill stroke markers" d=" M 731.0385822425914 210.09225758593547 L 720.5672001488037 224.50487858217036" stroke-miterlimit="10" stroke-width="0.5"/><path fill="none" stroke="cyan" paint-order="fill stroke markers" d=" M 162.94525452225741 497.66470254538376 L 171.94554723881248 510.05254271939856 L 162.94525452225741 522.4403828934134 L 148.38247499817317 517.7086489941411 L 148.38247499817317 502.396436444656 L 162.94525452225741 497.6647025453838 L 162.94525452225741 482.3524899958987 L 177.50803404634166 477.6207560966264 L 177.50803404634166 462.3085435471413 L 192.0708135704259 457.576809647869 L 192.07081357042588 442.264597098384 L 177.50803404634163 437.5328631991118 L 162.94525452225741 442.264597098384 L 153.94496180570232 429.87675692436915 L 171.94554723881248 405.1010765763396 L 186.50832676289673 409.83281047561184 L 186.50832676289673 425.145023025097 L 195.50861947945182 437.5328631991117 L 210.07139900353607 432.8011292998395 L 210.07139900353607 417.48891675035435 L 201.07110628698098 405.10107657633955 L 210.07139900353607 392.71323640232475 L 239.19695805170454 402.17670420086927 L 239.19695805170454 417.48891675035435 L 224.63417852762032 422.22065064962663 L 215.63388581106523 434.6084908236414 L 224.63417852762032 446.9963309976562 L 239.19695805170454 442.26459709838394 L 248.19725076825966 454.65243727239874 L 262.7600302923439 449.92070337312646 L 248.19725076825966 445.18896947385434 L 239.19695805170454 457.5768096478691 L 224.63417852762032 462.3085435471413 L 215.63388581106523 449.92070337312646 L 201.07110628698098 454.65243727239874 L 201.07110628698098 469.9646498218838 L 186.50832676289673 474.6963837211561 L 186.50832676289673 490.0085962706412 L 171.94554723881248 494.7403301699134 L 153.94496180570232 469.9646498218839 L 162.94525452225741 457.5768096478691 L 177.50803404634166 462.3085435471413 L 186.50832676289673 449.9207033731265 L 201.07110628698098 454.65243727239874 L 210.07139900353607 442.26459709838394 L 201.07110628698098 429.87675692436915 L 210.07139900353607 417.48891675035435 L 224.63417852762032 412.7571828510821 L 224.63417852762032 397.444970301597 L 215.63388581106523 409.8328104756118 L 224.63417852762032 422.2206506496266 L 224.63417852762032 437.5328631991117 L 210.07139900353607 442.26459709838394 L 210.07139900353607 457.5768096478691 L 224.6341785276203 462.3085435471413 L 224.63417852762032 477.62075609662645 L 239.19695805170454 482.3524899958987 L 239.19695805170454 497.6647025453838 L 210.07139900353607 507.1281703439283 L 201.07110628698098 494.7403301699135 L 210.07139900353607 482.35248999589874 L 210.07139900353607 467.04027744641354 L 195.50861947945182 462.3085435471413 L 186.50832676289673 474.6963837211561 L 171.94554723881248 469.9646498218839 L 162.94525452225741 482.3524899958987 L 148.38247499817317 477.62075609662645 L 139.38218228161807 490.00859627064125 L 148.38247499817317 502.39643644465605" stroke-miterlimit="10" stroke-width="0.5"/><path fill="none" stroke="cyan" paint-order="fill stroke markers" d=" M 239.19695805170454 507.1281703439283 L 253.75973757578885 502.39643644465605 L 262.7600302923439 514.7842766186709 L 253.75973757578885 527.1721167926856 L 239.19695805170454 522.4403828934135 L 239.19695805170454 507.1281703439283 L 224.63417852762032 502.39643644465605 L 224.63417852762032 487.0842238951709 L 210.07139900353607 482.3524899958987 L 201.07110628698098 469.9646498218839 L 210.07139900353607 457.5768096478691 L 201.07110628698098 445.18896947385434 L 186.50832676289673 449.9207033731265 L 177.50803404634166 437.5328631991117 L 177.50803404634163 422.22065064962663 L 162.9452545222574 417.4889167503544 L 171.94554723881248 429.87675692436915 L 186.50832676289673 425.1450230250969 L 201.07110628698098 429.8767569243692 L 201.07110628698098 445.18896947385434 L 215.63388581106523 449.92070337312657 L 224.63417852762032 437.5328631991118 L 239.19695805170454 442.264597098384 L 248.19725076825966 429.8767569243692 L 262.7600302923439 434.60849082364143 L 262.7600302923439 465.2329159226116 L 248.19725076825966 469.9646498218838 L 239.19695805170454 457.576809647869 L 224.63417852762032 452.84507574859686 L 215.63388581106523 465.23291592261165 L 224.63417852762032 477.62075609662645 L 215.63388581106523 490.0085962706413 L 224.63417852762032 502.39643644465605 L 215.63388581106523 514.7842766186709 L 224.63417852762032 527.1721167926856 L 239.19695805170454 522.4403828934135" stroke-miterlimit="10" stroke-width="0.5"/><path fill="none" stroke="cyan" paint-order="fill stroke markers" d=" M 148.38247499817317 422.22065064962663 L 139.38218228161807 434.60849082364143 L 124.81940275753382 429.87675692436915 L 124.81940275753382 414.56454437488406 L 139.38218228161807 409.83281047561184 L 148.38247499817317 422.22065064962663 L 162.94525452225741 417.4889167503544 L 162.9452545222574 402.17670420086927 L 148.38247499817317 397.44497030159704 L 139.38218228161807 409.83281047561184" stroke-miterlimit="10" stroke-width="0.5"/><path fill="none" stroke="cyan" paint-order="fill stroke markers" d=" M 148.38247499817317 397.44497030159704 L 148.38247499817317 382.1327577521119 L 162.94525452225741 377.40102385283967 L 171.94554723881248 389.78886402685447 L 162.94525452225741 402.17670420086927" stroke-miterlimit="10" stroke-width="0.5"/><path fill="none" stroke="cyan" paint-order="fill stroke markers" d=" M 271.760323008899 437.5328631991118 L 271.760323008899 422.22065064962663 L 286.3231025329833 417.4889167503544 L 295.3233952495383 429.8767569243692 L 286.3231025329833 442.264597098384 L 271.760323008899 437.5328631991118 L 262.7600302923439 449.9207033731265 L 271.760323008899 462.30854354714137 L 286.3231025329833 457.5768096478691 L 295.3233952495383 469.9646498218838 L 286.3231025329833 482.3524899958986 L 271.760323008899 477.6207560966264 L 271.760323008899 462.3085435471413" stroke-miterlimit="10" stroke-width="0.5"/><path fill="none" stroke="cyan" paint-order="fill stroke markers" d=" M 286.3231025329833 457.5768096478691 L 286.3231025329833 442.264597098384" stroke-miterlimit="10" stroke-width="0.5"/><path fill="none" stroke="cyan" paint-order="fill stroke markers" d=" M 224.63417852762032 527.1721167926856 L 215.63388581106523 539.5599569667005 L 201.07110628698098 534.8282230674282 L 201.07110628698098 519.5160105179431 L 215.63388581106523 514.7842766186709" stroke-miterlimit="10" stroke-width="0.5"/><path fill="none" stroke="cyan" paint-order="fill stroke markers" d=" M 215.63388581106523 385.0571301275822 L 201.07110628698098 380.32539622830996 L 201.07110628698098 365.0131836788248 L 215.63388581106523 360.28144977955253 L 224.63417852762032 372.6692899535674 L 215.63388581106523 385.05713012758224 L 224.63417852762032 397.444970301597 L 239.19695805170454 392.7132364023248 L 239.19695805170454 377.40102385283967 L 224.63417852762032 372.66928995356744" stroke-miterlimit="10" stroke-width="0.5"/><path fill="none" stroke="cyan" paint-order="fill stroke markers" d=" M 239.19695805170454 377.40102385283967 L 253.75973757578885 372.66928995356744 L 262.7600302923439 385.05713012758224 L 253.75973757578885 397.444970301597 L 239.19695805170454 392.7132364023248" stroke-miterlimit="10" stroke-width="0.5"/><path fill="none" stroke="cyan" paint-order="fill stroke markers" d=" M 139.38218228161807 490.00859627064125 L 124.81940275753382 485.276862371369 L 124.81940275753382 469.9646498218839 L 139.38218228161807 465.23291592261165" stroke-miterlimit="10" stroke-width="0.5"/><path fill="none" stroke="cyan" paint-order="fill stroke markers" d=" M 139.38218228161807 465.23291592261165 L 148.38247499817317 477.62075609662645" stroke-miterlimit="10" stroke-width="0.5"/><path fill="none" stroke="cyan" paint-order="fill stroke markers" d=" M 414.8893416678323 437.02065002634737 L 430.10339702000226 457.96100075012174 L 430.1033970200022 483.8446977173939 L 454.72025568653544 475.8461954772556 L 479.3371143530686 483.8446977173941 L 479.3371143530686 457.9610007501216 L 494.5511697052386 437.02065002634737 L 469.93431103870535 429.0221477862091 L 439.5062003343655 470.90284923375776 L 439.5062003343655 522.6702431683021 L 414.8893416678323 530.6687454084406 L 399.6752863156624 509.7283946846661 L 414.8893416678323 488.78804396089174 L 414.8893416678323 411.13695305907527 L 399.6752863156624 390.1966023353009 L 414.8893416678323 369.2562516115265 L 414.8893416678323 395.1399485787985 L 439.5062003343655 403.13845081893686 L 454.72025568653544 382.19810009516243 L 439.5062003343655 361.25774937138806 L 414.8893416678323 369.2562516115264 L 439.5062003343655 377.2547538516648 L 439.5062003343655 429.0221477862093 L 469.93431103870535 470.90284923375793 L 519.1680283717717 486.89985371403446 L 519.1680283717717 512.7835506813066 L 494.5511697052386 520.7820529214449 L 479.3371143530686 499.8417021976705 L 509.76522505740854 457.96100075012185 L 534.3820837239417 465.9595029902602 L 534.3820837239417 491.8431999575323 L 519.1680283717717 470.9028492337578 L 494.5511697052386 478.90135147389617 L 494.5511697052386 504.78504844116827 L 519.1680283717717 512.7835506813067 L 534.3820837239417 491.8431999575322 L 509.76522505740854 499.8417021976706 L 479.3371143530686 457.96100075012174 L 430.10339702000226 441.96399626984527 L 380.8696796869358 457.9610007501218 L 365.6556243347659 437.02065002634737 L 380.8696796869358 416.080299302573 L 405.48653835346903 424.07880154271135 L 405.486538353469 475.84619547725566 L 479.3371143530686 499.8417021976705" stroke-miterlimit="10" stroke-width="0.5"/><path fill="none" stroke="cyan" paint-order="fill stroke markers" d=" M 414.8893416678323 437.0206500263477 L 439.5062003343655 429.0221477862093" stroke-miterlimit="10" stroke-width="0.5"/><path fill="none" stroke="cyan" paint-order="fill stroke markers" d=" M 405.486538353469 475.84619547725566 L 380.8696796869358 483.84469771739396 L 365.6556243347659 462.9043469936196 L 390.27248300129907 470.9028492337579 L 405.486538353469 449.9624985099835 L 390.27248300129907 429.02214778620913 L 365.6556243347659 437.0206500263474 L 365.6556243347659 462.9043469936195 L 380.8696796869358 441.9639962698452 L 430.1033970200022 457.96100075012185 L 479.3371143530686 441.9639962698454 L 509.76522505740854 400.08329482229635 L 534.3820837239417 408.0817970624347 L 534.3820837239417 433.9654940297068 L 509.76522505740854 441.96399626984515 L 479.3371143530686 400.0832948222965 L 405.48653835346903 424.07880154271135" stroke-miterlimit="10" stroke-width="0.5"/><path fill="none" stroke="cyan" paint-order="fill stroke markers" d=" M 439.5062003343655 470.90284923375776 L 454.72025568653544 491.84319995753214 L 469.93431103870535 470.9028492337579 L 494.5511697052386 462.9043469936196 L 479.3371143530686 441.9639962698453 L 479.3371143530686 416.0802993025733 L 454.72025568653544 424.0788015427113 L 430.10339702000226 416.08029930257305 L 430.1033970200022 441.9639962698452 L 414.8893416678323 462.90434699361964 L 439.5062003343655 470.90284923375805" stroke-miterlimit="10" stroke-width="0.5"/><path fill="none" stroke="cyan" paint-order="fill stroke markers" d=" M 509.76522505740854 457.96100075012185 L 464.1230590008987 395.1399485787989 L 414.8893416678323 411.13695305907527" stroke-miterlimit="10" stroke-width="0.5"/><path fill="none" stroke="cyan" paint-order="fill stroke markers" d=" M 414.8893416678323 488.78804396089174 L 464.1230590008987 504.78504844116816 L 464.1230590008987 530.6687454084403 L 439.5062003343655 538.6672476485785 L 424.29214498219557 517.7268969248042 L 454.72025568653544 475.8461954772557 L 454.72025568653544 424.07880154271135 L 424.2921449821955 382.19810009516283 L 439.5062003343655 361.25774937138846 L 464.1230590008987 369.2562516115268 L 464.1230590008987 395.1399485787989" stroke-miterlimit="10" stroke-width="0.5"/><path fill="none" stroke="cyan" paint-order="fill stroke markers" d=" M 414.8893416678323 530.6687454084406 L 439.5062003343655 538.667247648579 L 454.72025568653544 517.7268969248045 L 439.5062003343655 496.78654620103015 L 414.8893416678323 504.78504844116844 L 414.8893416678323 530.6687454084406" stroke-miterlimit="10" stroke-width="0.5"/><path fill="none" stroke="cyan" paint-order="fill stroke markers" d=" M 464.1230590008987 504.78504844116816 L 509.76522505740854 441.96399626984515" stroke-miterlimit="10" stroke-width="0.5"/><path fill="none" stroke="cyan" paint-order="fill stroke markers" d=" M 479.3371143530686 400.0832948222965 L 494.5511697052386 379.1429440985221 L 519.1680283717717 387.14144633866044 L 494.5511697052386 395.13994857879874 L 494.5511697052386 421.0236455460708 L 519.1680283717717 429.0221477862092 L 534.3820837239417 408.08179706243476 L 519.1680283717717 387.14144633866044 L 519.1680283717717 413.02514330593254 L 469.93431103870535 429.0221477862092 L 454.72025568653544 408.08179706243476" stroke-miterlimit="10" stroke-width="0.5"/><path fill="none" stroke="cyan" paint-order="fill stroke markers" d=" M 454.72025568653544 408.0817970624348 L 439.5062003343655 429.02214778620925" stroke-miterlimit="10" stroke-width="0.5"/><path fill="none" stroke="cyan" paint-order="fill stroke markers" d=" M 627.5260834305899 461.9114730135147 L 618.816137904023 473.89968456457024 L 604.7231500018775 469.3205952163911 L 604.7231500018775 454.5023508106383 L 618.816137904023 449.92326146245915 L 627.5260834305899 461.9114730135147 L 641.6190713327353 457.33238366533544 L 641.6190713327353 442.51413925958275 L 632.9091258061684 430.5259277085271 L 641.6190713327353 418.53771615747155 L 632.9091258061684 406.549504606416 L 618.816137904023 411.12859395459515 L 618.816137904023 425.94683836034795 L 627.5260834305899 437.9350499114035 L 618.816137904023 449.92326146245915 L 604.7231500018775 445.3441721142799 L 604.7231500018775 430.5259277085271 L 618.816137904023 425.94683836034795" stroke-miterlimit="10" stroke-width="0.5"/><path fill="none" stroke="cyan" paint-order="fill stroke markers" d=" M 738.2138474231633 387.1521708524841 L 752.3068353253087 382.573081504305 L 761.0167808518758 394.5612930553605 L 752.3068353253087 406.549504606416 L 738.2138474231633 401.9704152582369 L 738.2138474231633 387.1521708524841 L 729.5039018965964 375.1639593014286 L 715.410913994451 379.74304864960766 L 715.410913994451 394.5612930553605 L 729.5039018965964 399.1403824035396 L 729.5039018965964 413.95862680929247 L 715.410913994451 418.53771615747155 L 706.700968467884 406.54950460641606 L 692.6079805657386 411.1285939545952 L 692.6079805657386 425.94683836034795 L 678.5149926635931 430.5259277085271 L 669.8050471370262 418.53771615747155 L 655.7120592348808 423.11680550565075 L 655.7120592348808 437.93504991140355 L 641.6190713327353 442.51413925958263 L 627.5260834305899 437.9350499114036" stroke-miterlimit="10" stroke-width="0.5"/><path fill="none" stroke="cyan" paint-order="fill stroke markers" d=" M 618.816137904023 473.8996845645702 L 618.816137904023 488.71792897032304 L 632.9091258061684 493.2970183185022 L 632.9091258061684 508.11526272425493 L 647.0021137083138 512.694352072434 L 661.0951016104592 508.11526272425493 L 669.8050471370262 520.1034742753104 L 683.8980350391716 515.5243849271313 L 692.6079805657386 527.5125964781869 L 706.700968467884 532.091685826366 L 715.410913994451 520.1034742753104 L 706.700968467884 508.1152627242549 L 692.6079805657386 512.694352072434 L 683.8980350391716 500.7061405213785 L 692.6079805657386 488.71792897032293 L 706.700968467884 493.2970183185021 L 715.410913994451 481.3088067674466 L 706.700968467884 469.320595216391 L 715.410913994451 457.33238366533544 L 729.5039018965964 461.9114730135146 L 738.2138474231633 449.9232614624591 L 729.5039018965964 437.93504991140355 L 738.2138474231633 425.946838360348 L 752.3068353253087 421.3677490121689 L 752.3068353253087 406.549504606416 L 766.3998232274542 401.9704152582369 L 775.1097687540212 413.95862680929247 L 766.3998232274542 425.946838360348 L 752.3068353253087 421.3677490121689" stroke-miterlimit="10" stroke-width="0.5"/><path fill="none" stroke="cyan" paint-order="fill stroke markers" d=" M 683.8980350391716 515.5243849271313 L 683.8980350391716 500.7061405213785 L 669.8050471370262 496.12705117319933 L 655.7120592348808 500.70614052137853 L 647.0021137083138 488.71792897032293 L 632.9091258061684 493.2970183185021 L 641.6190713327353 481.30880676744664 L 632.9091258061684 469.3205952163911 L 641.6190713327353 457.33238366533556 L 655.7120592348808 461.91147301351464 L 655.7120592348808 476.72971741926744 L 669.8050471370262 481.30880676744664 L 669.8050471370262 496.1270511731994 L 661.0951016104592 508.1152627242549" stroke-miterlimit="10" stroke-width="0.5"/><path fill="none" stroke="cyan" paint-order="fill stroke markers" d=" M 669.8050471370262 481.30880676744664 L 678.5149926635931 469.32059521639104 L 692.6079805657386 473.8996845645702 L 692.6079805657386 488.71792897032304" stroke-miterlimit="10" stroke-width="0.5"/><path fill="none" stroke="cyan" paint-order="fill stroke markers" d=" M 715.410913994451 481.3088067674466 L 729.5039018965964 485.8878961156257 L 738.2138474231633 497.8761076666812 L 752.3068353253087 493.2970183185021 L 752.3068353253087 478.47877391274926 L 766.3998232274542 473.8996845645702 L 775.1097687540212 461.91147301351464 L 766.3998232274542 449.9232614624591 L 775.1097687540212 437.9350499114035 L 766.3998232274542 425.946838360348" stroke-miterlimit="10" stroke-width="0.5"/><path fill="none" stroke="cyan" paint-order="fill stroke markers" d=" M 738.2138474231633 401.9704152582369 L 729.5039018965964 413.95862680929247 L 738.2138474231633 425.946838360348 L 752.3068353253087 430.5259277085271 L 752.3068353253087 445.34417211427996 L 766.3998232274542 449.92326146245904 L 752.3068353253087 454.50235081063823 L 752.3068353253087 469.32059521639104 L 738.2138474231633 473.8996845645702 L 729.5039018965964 485.8878961156257 L 729.5039018965964 500.70614052137853 L 715.410913994451 505.2852298695576 L 715.410913994451 520.1034742753104 L 729.5039018965964 524.6825636234896 L 738.2138474231633 512.6943520724341 L 738.2138474231633 497.8761076666812" stroke-miterlimit="10" stroke-width="0.5"/><path fill="none" stroke="cyan" paint-order="fill stroke markers" d=" M 766.3998232274542 473.8996845645702 L 775.1097687540212 485.8878961156257 L 766.3998232274542 497.8761076666812 L 752.3068353253087 493.2970183185021 L 761.0167808518758 505.2852298695576 L 752.3068353253087 517.2734414206132 L 738.2138474231633 512.6943520724341" stroke-miterlimit="10" stroke-width="0.5"/><path fill="none" stroke="cyan" paint-order="fill stroke markers" d=" M 752.3068353253087 478.47877391274926 L 738.2138474231633 473.8996845645702 L 729.5039018965964 461.91147301351464" stroke-miterlimit="10" stroke-width="0.5"/><path fill="none" stroke="cyan" paint-order="fill stroke markers" d=" M 729.5039018965964 437.93504991140355 L 715.410913994451 442.5141392595827 L 706.700968467884 430.52592770852715 L 715.410913994451 418.5377161574716" stroke-miterlimit="10" stroke-width="0.5"/><path fill="none" stroke="cyan" paint-order="fill stroke markers" d=" M 692.6079805657386 411.1285939545952 L 683.8980350391716 399.14038240353966 L 683.8980350391716 384.32213799778685 L 669.8050471370262 379.7430486496077 L 661.0951016104592 391.73126020066326 L 647.0021137083138 387.1521708524841 L 632.9091258061684 391.73126020066326 L 632.9091258061684 406.54950460641606 L 647.0021137083138 411.1285939545952 L 655.7120592348808 399.14038240353966 L 669.8050471370262 403.7194717517188 L 669.8050471370262 418.5377161574716" stroke-miterlimit="10" stroke-width="0.5"/><path fill="none" stroke="cyan" paint-order="fill stroke markers" d=" M 661.0951016104592 391.73126020066326 L 669.8050471370262 403.7194717517188 L 683.8980350391716 399.14038240353966 L 692.6079805657386 387.1521708524841 L 706.700968467884 391.73126020066326 L 715.410913994451 379.7430486496077 L 706.700968467884 367.7548370985522 L 692.6079805657386 372.3339264467313 L 683.8980350391716 384.32213799778685" stroke-miterlimit="10" stroke-width="0.5"/><path fill="none" stroke="cyan" paint-order="fill stroke markers" d=" M 647.0021137083138 387.1521708524841 L 647.0021137083138 372.3339264467313 L 661.0951016104592 367.7548370985522 L 669.8050471370262 379.7430486496077 L 669.8050471370262 364.92480424385485 L 683.8980350391716 360.34571489567577 L 692.6079805657386 372.3339264467313" stroke-miterlimit="10" stroke-width="0.5"/><path fill="none" stroke="cyan" paint-order="fill stroke markers" d=" M 655.7120592348808 437.93504991140355 L 669.8050471370262 442.5141392595827 L 669.8050471370262 457.3323836653355 L 655.7120592348808 461.91147301351464" stroke-miterlimit="10" stroke-width="0.5"/><path fill="none" stroke="cyan" paint-order="fill stroke markers" d=" M 692.6079805657386 527.5125964781869 L 683.8980350391716 539.5008080292423 L 669.8050471370262 534.9217186810632 L 669.8050471370262 520.1034742753104 L 661.0951016104592 532.091685826366 L 647.0021137083138 527.5125964781869" stroke-miterlimit="10" stroke-width="0.5"/><path fill="none" stroke="cyan" paint-order="fill stroke markers" d=" M 647.0021137083138 527.5125964781869 L 647.0021137083138 512.694352072434" stroke-miterlimit="10" stroke-width="0.5"/><path fill="none" stroke="cyan" paint-order="fill stroke markers" d=" M 197.48737197497692 679.475854306103 L 205.182871566295 690.0678008125865 L 217.6344514654586 686.0220372541305 L 209.9389518741405 696.613983760614 L 217.6344514654586 707.2059302670975 L 217.6344514654586 694.1135643710425 L 205.182871566295 690.0678008125865 L 197.48737197497692 700.65974731907 L 185.03579207581333 696.613983760614 L 177.34029248449525 707.2059302670975 L 164.8887125853317 711.2516938255535 L 164.8887125853317 724.3440597216086 L 152.4371326861681 728.3898232800645 L 144.74163309485002 717.797876773581 L 132.29005319568643 721.843640332037 L 124.59455360436836 711.2516938255535 L 132.29005319568643 700.65974731907 L 144.74163309485002 704.705510877526 L 144.74163309485002 717.797876773581 L 157.1932129940136 721.843640332037 L 164.8887125853317 711.2516938255535 L 157.1932129940136 700.65974731907 L 164.8887125853317 690.0678008125865 L 157.1932129940136 679.475854306103 L 164.8887125853317 668.8839077996195 L 157.1932129940136 658.291961293136 L 144.74163309485002 662.3377248515919 L 144.74163309485002 675.430090747647 L 132.29005319568643 679.475854306103 L 124.59455360436836 668.8839077996195 L 132.29005319568643 658.291961293136 L 144.74163309485002 662.3377248515919 L 152.4371326861681 651.7457783451084 L 164.8887125853317 655.7915419035644 L 157.1932129940136 645.1995953970809 L 164.8887125853317 634.6076488905974 L 157.1932129940136 624.0157023841139 L 164.8887125853317 613.4237558776304 L 177.34029248449525 617.4695194360863 L 177.34029248449525 630.5618853321414 L 164.8887125853317 634.6076488905974 L 164.8887125853317 647.7000147866523 L 177.34029248449525 651.7457783451084 L 164.8887125853317 655.7915419035644 L 164.8887125853317 668.8839077996195 L 177.34029248449525 672.9296713580754 L 185.03579207581333 683.521617864559 L 197.48737197497692 679.475854306103 L 197.48737197497692 666.383488410048 L 185.03579207581333 662.337724851592 L 185.03579207581333 649.245358955537 L 209.9389518741405 641.1538318386249 L 217.6344514654586 651.7457783451084 L 209.9389518741405 662.3377248515919 L 217.6344514654586 672.9296713580754 L 230.08603136462216 668.8839077996195 L 230.08603136462216 655.7915419035644 L 237.78153095594027 645.199595397081 L 230.0860313646222 634.6076488905975 L 237.78153095594027 624.0157023841139 L 250.23311085510383 628.06146594257 L 257.92861044642194 617.4695194360864 L 270.3801903455855 621.5152829945424 L 270.3801903455855 634.6076488905975 L 257.92861044642194 638.6534124490535 L 250.23311085510383 628.06146594257 L 237.78153095594027 632.1072295010259 L 237.78153095594027 645.199595397081 L 250.23311085510383 649.245358955537 L 250.23311085510383 662.337724851592 L 262.6846907542674 666.3834884100479 L 262.6846907542674 679.475854306103 L 275.136270653431 683.521617864559 L 282.8317702447491 672.9296713580754 L 275.136270653431 662.3377248515919 L 282.8317702447491 651.7457783451084 L 295.2833501439127 655.7915419035644 L 295.2833501439127 668.8839077996195 L 282.8317702447491 672.9296713580754 L 282.8317702447491 686.0220372541305 L 270.3801903455855 690.0678008125865 L 262.6846907542674 679.475854306103 L 250.23311085510383 683.521617864559 L 250.23311085510383 696.613983760614 L 262.6846907542674 700.65974731907 L 270.3801903455855 690.0678008125865 L 282.8317702447491 694.1135643710425 L 282.8317702447491 707.2059302670975 L 295.2833501439127 711.2516938255535 L 295.2833501439127 724.3440597216086 L 282.8317702447491 728.3898232800645 L 275.136270653431 717.797876773581 L 282.8317702447491 707.2059302670975 L 275.136270653431 696.613983760614 L 262.6846907542674 700.65974731907 L 262.6846907542674 713.7521132151251 L 250.23311085510383 717.797876773581 L 250.23311085510383 730.890242669636 L 237.78153095594027 734.936006228092 L 237.78153095594027 748.028372124147 L 250.23311085510383 752.074135682603 L 257.92861044642194 741.4821891761195 L 270.3801903455855 745.5279527345755 L 270.3801903455855 758.6203186306305 L 257.92861044642194 762.6660821890865 L 250.23311085510383 752.074135682603 L 237.78153095594027 756.119899241059 L 230.0860313646222 745.5279527345755 L 230.0860313646222 758.6203186306305 L 217.6344514654586 762.6660821890865 L 217.6344514654586 775.7584480851416 L 205.182871566295 779.8042116435976 L 197.48737197497692 769.2122651371141 L 205.182871566295 758.6203186306305 L 217.6344514654586 762.6660821890865 L 225.32995105677668 752.074135682603 L 217.6344514654586 741.4821891761195 L 230.0860313646222 745.5279527345755 L 237.78153095594027 734.936006228092 L 230.0860313646222 724.3440597216085 L 230.0860313646222 711.2516938255535 L 217.6344514654586 707.2059302670975 L 209.9389518741405 717.797876773581 L 217.6344514654586 728.3898232800647 L 209.9389518741405 738.9817697865482 L 185.03579207581333 730.890242669636 L 185.03579207581333 717.7978767735809 L 197.48737197497692 713.752113215125 L 197.48737197497692 700.6597473190699 L 209.9389518741405 696.6139837606139 L 209.9389518741405 683.5216178645591 L 217.6344514654586 694.1135643710425 L 230.0860313646222 690.0678008125865 L 237.78153095594027 700.65974731907 L 250.23311085510383 696.6139837606139 L 257.92861044642194 707.2059302670975 L 242.53761126378575 728.3898232800645 L 230.0860313646222 724.3440597216086 L 217.6344514654586 728.3898232800644 L 217.6344514654586 741.4821891761195 L 205.182871566295 745.5279527345755 L 197.48737197497692 734.936006228092 L 185.03579207581333 738.9817697865482 L 177.34029248449525 728.3898232800645 L 185.03579207581333 717.797876773581 L 177.34029248449525 707.2059302670975 L 164.8887125853317 703.1601667086416 L 164.8887125853317 676.9754349165314 L 177.34029248449525 672.9296713580754 L 185.03579207581333 662.3377248515919 L 177.34029248449525 651.7457783451084 L 185.03579207581333 641.1538318386249 L 197.48737197497692 645.1995953970809 L 205.182871566295 634.6076488905975 L 217.6344514654586 638.6534124490535 L 217.6344514654586 651.7457783451084 L 230.0860313646222 655.7915419035645 L 242.53761126378575 651.7457783451084 L 257.92861044642194 672.9296713580756 L 250.23311085510383 683.5216178645591 L 237.78153095594027 679.475854306103 L 230.0860313646222 690.0678008125866 L 217.6344514654586 686.0220372541305 L 217.6344514654586 672.9296713580754 L 209.9389518741405 683.521617864559 L 197.48737197497692 679.475854306103" stroke-miterlimit="10" stroke-width="0.5"/><path fill="none" stroke="cyan" paint-order="fill stroke markers" d=" M 217.6344514654586 617.4695194360864 L 205.182871566295 621.5152829945424 L 197.48737197497692 610.9233364880589 L 205.182871566295 600.3313899815754 L 217.6344514654586 604.3771535400314 L 217.6344514654586 617.4695194360864 L 230.0860313646222 621.5152829945424 L 230.0860313646222 634.6076488905975 L 217.6344514654586 638.6534124490535 L 225.32995105677668 628.06146594257 L 217.6344514654586 617.4695194360864" stroke-miterlimit="10" stroke-width="0.5"/><path fill="none" stroke="cyan" paint-order="fill stroke markers" d=" M 164.8887125853317 745.5279527345756 L 177.34029248449525 749.5737162930316 L 177.34029248449525 762.6660821890866 L 164.8887125853317 766.7118457475426 L 157.1932129940136 756.1198992410591 L 164.8887125853317 745.5279527345756 L 157.1932129940136 734.9360062280921 L 164.8887125853317 724.3440597216086 L 177.34029248449525 728.3898232800645 L 164.8887125853317 732.4355868385205" stroke-miterlimit="10" stroke-width="0.5"/><path fill="none" stroke="cyan" paint-order="fill stroke markers" d=" M 164.8887125853317 732.4355868385205 L 164.8887125853317 745.5279527345756" stroke-miterlimit="10" stroke-width="0.5"/><path fill="none" stroke="cyan" paint-order="fill stroke markers" d=" M 460.03427969866624 633.673871227339 L 442.84580919241154 628.0889986117384 L 453.468868179902 642.7103849422192 L 453.468868179902 660.7834123719796 L 464.0919271673926 675.4047987024603 L 481.2803976736473 669.8199260868598 L 470.65733868615683 684.4413124173406 L 481.2803976736473 699.0626987478214 L 498.4688681799021 704.6475713634219 L 498.4688681799021 722.7205987931824 L 481.2803976736473 728.305471408783 L 470.65733868615683 713.6840850783021 L 453.468868179902 708.0992124627016 L 442.84580919241154 722.7205987931824 L 442.84580919241154 704.6475713634219 L 425.6573386861568 699.0626987478214 L 408.4688681799021 704.6475713634219 L 391.28039767364737 699.0626987478213 L 391.28039767364737 680.989671318061 L 408.4688681799021 675.4047987024604 L 425.6573386861568 680.9896713180609 L 442.84580919241154 675.4047987024603 L 442.84580919241154 657.3317712726999 L 453.468868179902 671.9531576031807 L 470.65733868615683 666.3682849875801 L 481.2803976736473 651.7468986570995 L 498.4688681799021 646.1620260414987 L 481.2803976736473 640.5771534258982" stroke-miterlimit="10" stroke-width="0.5"/><path fill="none" stroke="cyan" paint-order="fill stroke markers" d=" M 401.9034566611379 666.3682849875801 L 391.28039767364737 680.9896713180608 L 374.0919271673926 675.4047987024604 L 374.0919271673926 657.3317712726999 L 391.28039767364737 651.7468986570993 L 419.0919271673926 690.0261850329412 L 436.28039767364737 684.4413124173407 L 436.28039767364737 666.3682849875802 L 425.6573386861568 651.7468986570995 L 425.6573386861568 633.673871227339 L 415.03427969866624 648.2952575578197" stroke-miterlimit="10" stroke-width="0.5"/><path fill="none" stroke="cyan" paint-order="fill stroke markers" d=" M 374.0919271673926 675.4047987024604 L 363.4688681799021 690.0261850329412 L 374.0919271673926 704.647571363422 L 391.28039767364737 699.0626987478214 L 401.9034566611379 713.6840850783022" stroke-miterlimit="10" stroke-width="0.5"/><path fill="none" stroke="cyan" paint-order="fill stroke markers" d=" M 415.03427969866624 731.7571125080626 L 425.6573386861568 746.3784988385434 L 425.6573386861568 728.305471408783 L 436.28039767364737 713.6840850783021 L 436.28039767364737 695.6110576485416 L 419.0919271673926 690.026185032941 L 391.28039767364737 728.305471408783 L 374.0919271673926 722.7205987931825 L 374.0919271673926 704.647571363422" stroke-miterlimit="10" stroke-width="0.5"/><path fill="none" stroke="cyan" paint-order="fill stroke markers" d=" M 425.6573386861568 651.7468986570995 L 436.28039767364737 637.1255123266186 L 453.468868179902 642.7103849422192" stroke-miterlimit="10" stroke-width="0.5"/><path fill="none" stroke="cyan" paint-order="fill stroke markers" d=" M 442.84580919241154 657.3317712726999 L 470.65733868615683 619.0524848968581" stroke-miterlimit="10" stroke-width="0.5"/><path fill="none" stroke="cyan" paint-order="fill stroke markers" d=" M 464.0919271673926 628.0889986117384 L 481.2803976736473 633.673871227339" stroke-miterlimit="10" stroke-width="0.5"/><path fill="none" stroke="cyan" paint-order="fill stroke markers" d=" M 481.2803976736473 622.5041259961378 L 481.2803976736473 669.8199260868598 L 526.2803976736473 684.4413124173406" stroke-miterlimit="10" stroke-width="0.5"/><path fill="none" stroke="cyan" paint-order="fill stroke markers" d=" M 481.2803976736473 651.7468986570995 L 498.4688681799021 657.3317712726999 L 498.4688681799021 675.4047987024604 L 481.2803976736473 680.989671318061 L 470.65733868615683 695.6110576485418 L 481.2803976736473 710.2324439790225 L 464.0919271673926 704.6475713634219 L 453.468868179902 719.2689576939027 L 453.468868179902 737.3419851236632 L 442.84580919241154 751.963371454144 L 460.03427969866624 746.3784988385434" stroke-miterlimit="10" stroke-width="0.5"/><path fill="none" stroke="cyan" paint-order="fill stroke markers" d=" M 481.2803976736473 739.4752166399841 L 498.4688681799021 733.8903440243835 L 509.0919271673926 748.5117303548643 L 498.4688681799021 763.133116685345 L 481.2803976736473 757.5482440697446 L 481.2803976736473 710.2324439790225 L 526.2803976736473 695.6110576485418 L 536.9034566611379 710.2324439790225 L 526.2803976736473 724.8538303095032 L 509.0919271673926 719.2689576939027 L 509.0919271673926 701.1959302641422" stroke-miterlimit="10" stroke-width="0.5"/><path fill="none" stroke="cyan" paint-order="fill stroke markers" d=" M 498.4688681799021 704.6475713634219 L 509.0919271673926 719.2689576939027 L 498.4688681799021 733.8903440243835 L 481.2803976736473 728.305471408783" stroke-miterlimit="10" stroke-width="0.5"/><path fill="none" stroke="cyan" paint-order="fill stroke markers" d=" M 509.0919271673926 748.5117303548643 L 526.2803976736473 742.9268577392637 L 526.2803976736473 724.8538303095032" stroke-miterlimit="10" stroke-width="0.5"/><path fill="none" stroke="cyan" paint-order="fill stroke markers" d=" M 453.468868179902 737.3419851236632 L 436.28039767364737 742.9268577392637 L 425.6573386861568 728.305471408783" stroke-miterlimit="10" stroke-width="0.5"/><path fill="none" stroke="cyan" paint-order="fill stroke markers" d=" M 442.84580919241154 722.7205987931824 L 397.84580919241154 737.3419851236631" stroke-miterlimit="10" stroke-width="0.5"/><path fill="none" stroke="cyan" paint-order="fill stroke markers" d=" M 408.4688681799021 733.8903440243835 L 397.84580919241154 719.2689576939027" stroke-miterlimit="10" stroke-width="0.5"/><path fill="none" stroke="cyan" paint-order="fill stroke markers" d=" M 408.4688681799021 704.6475713634219 L 397.84580919241154 690.0261850329412 L 408.4688681799021 675.4047987024604" stroke-miterlimit="10" stroke-width="0.5"/><path fill="none" stroke="cyan" paint-order="fill stroke markers" d=" M 442.84580919241154 657.3317712726999 L 397.84580919241154 642.7103849422192 L 397.84580919241154 624.6373575124587 L 415.03427969866624 619.0524848968581 L 425.6573386861568 633.673871227339 L 442.84580919241154 628.0889986117384 L 442.84580919241154 610.015971181978 L 425.6573386861568 604.4310985663774 L 415.03427969866624 619.0524848968581" stroke-miterlimit="10" stroke-width="0.5"/><path fill="none" stroke="cyan" paint-order="fill stroke markers" d=" M 442.84580919241154 610.015971181978 L 460.03427969866624 604.4310985663774 L 470.65733868615683 619.0524848968581" stroke-miterlimit="10" stroke-width="0.5"/><path fill="none" stroke="cyan" paint-order="fill stroke markers" d=" M 515.6573386861568 680.9896713180609 L 515.6573386861568 699.0626987478214" stroke-miterlimit="10" stroke-width="0.5"/><path fill="none" stroke="cyan" paint-order="fill stroke markers" d=" M 442.84580919241154 722.7205987931824 L 470.65733868615683 760.9998851690242 L 460.03427969866624 775.6212714995049 L 442.84580919241154 770.0363988839044 L 442.84580919241154 751.963371454144 L 425.6573386861568 746.3784988385434 L 415.03427969866624 760.9998851690242 L 425.6573386861568 775.6212714995049 L 442.84580919241154 770.0363988839044" stroke-miterlimit="10" stroke-width="0.5"/><path fill="none" stroke="cyan" paint-order="fill stroke markers" d=" M 415.03427969866624 760.9998851690242 L 397.84580919241154 755.4150125534236 L 397.84580919241154 737.3419851236631" stroke-miterlimit="10" stroke-width="0.5"/><path fill="none" stroke="cyan" paint-order="fill stroke markers" d=" M 397.84580919241154 660.7834123719796 L 408.4688681799021 646.1620260414987" stroke-miterlimit="10" stroke-width="0.5"/><path fill="none" stroke="cyan" paint-order="fill stroke markers" d=" M 481.2803976736473 622.5041259961378 L 498.4688681799021 616.9192533805372 L 509.0919271673926 631.540639711018 L 498.4688681799021 646.1620260414987 L 509.0919271673926 660.7834123719796 L 498.4688681799021 675.4047987024603" stroke-miterlimit="10" stroke-width="0.5"/><path fill="none" stroke="cyan" paint-order="fill stroke markers" d=" M 509.0919271673926 678.8564398017401 L 509.0919271673926 660.7834123719796 L 526.2803976736473 655.198539756379 L 526.2803976736473 637.1255123266185 L 509.0919271673926 631.540639711018" stroke-miterlimit="10" stroke-width="0.5"/><path fill="none" stroke="cyan" paint-order="fill stroke markers" d=" M 526.2803976736473 655.198539756379 L 536.9034566611379 669.8199260868598 L 526.2803976736473 684.4413124173406" stroke-miterlimit="10" stroke-width="0.5"/><path fill="none" stroke="cyan" paint-order="fill stroke markers" d=" M 481.2803976736473 746.3784988385434 L 464.0919271673926 751.9633714541438" stroke-miterlimit="10" stroke-width="0.5"/><path fill="none" stroke="cyan" paint-order="fill stroke markers" d=" M 760.0754953388548 745.3245502968164 L 735.1723355405277 737.2330231799044 L 735.1723355405277 711.0482913877944 L 760.0754953388548 702.9567642708823 L 760.0754953388548 676.7720324787723 L 735.1723355405277 668.6805053618602 L 735.1723355405277 642.49577356975 L 760.0754953388548 634.404246452838" stroke-miterlimit="10" stroke-width="0.5"/><path fill="none" stroke="cyan" paint-order="fill stroke markers" d=" M 735.1723355405277 668.6805053618602 L 685.3660159438734 737.2330231799043 L 700.7570151265095 758.4169161928713 L 685.3660159438734 779.6008092058383 L 645.07185696291 766.5084433097832 L 645.07185696291 740.3237115176731 L 669.9750167612373 732.2321844007612 L 685.3660159438734 753.4160774137282 L 669.9750167612373 774.5999704266952" stroke-miterlimit="10" stroke-width="0.5"/><path fill="none" stroke="cyan" paint-order="fill stroke markers" d=" M 765.9543339058 642.4957735697501 L 750.5633347231638 663.6796665827171 L 725.6601749248367 655.5881394658052 L 725.6601749248367 629.4034076736951 L 700.7570151265096 621.3118805567831 L 685.3660159438734 642.4957735697501 L 735.1723355405277 711.0482913877944" stroke-miterlimit="10" stroke-width="0.5"/><path fill="none" stroke="cyan" paint-order="fill stroke markers" d=" M 760.0754953388548 702.9567642708823 L 775.466494521491 724.1406572838494 L 750.5633347231638 758.4169161928713 L 725.6601749248367 750.3253890759594 L 725.6601749248367 724.1406572838492 L 645.07185696291 697.9559254917391 L 629.680857780274 719.1398185047061 L 604.7776979819467 711.0482913877942 L 604.7776979819467 668.6805053618602 L 629.6808577802739 660.5889782449483 L 645.07185696291 681.7728712579153 L 725.6601749248367 655.5881394658052" stroke-miterlimit="10" stroke-width="0.5"/><path fill="none" stroke="cyan" paint-order="fill stroke markers" d=" M 735.1723355405277 737.2330231799044 L 685.3660159438734 753.4160774137282" stroke-miterlimit="10" stroke-width="0.5"/><path fill="none" stroke="cyan" paint-order="fill stroke markers" d=" M 710.2691757422006 719.1398185047061 L 710.2691757422006 745.3245502968161 L 694.8781765595643 724.1406572838494" stroke-miterlimit="10" stroke-width="0.5"/><path fill="none" stroke="cyan" paint-order="fill stroke markers" d=" M 669.9750167612373 689.8643983748271 L 710.2691757422006 702.9567642708822 L 685.3660159438734 668.6805053618602 L 685.3660159438734 711.0482913877942 L 710.2691757422006 676.7720324787721 L 669.9750167612373 689.8643983748273" stroke-miterlimit="10" stroke-width="0.5"/><path fill="none" stroke="cyan" paint-order="fill stroke markers" d=" M 669.9750167612373 605.1288263229592 L 685.3660159438734 626.3127193359262 L 669.9750167612373 647.4966123488932 L 669.9750167612373 732.2321844007612" stroke-miterlimit="10" stroke-width="0.5"/><path fill="none" stroke="cyan" paint-order="fill stroke markers" d=" M 669.9750167612373 716.0491301669374 L 694.8781765595643 724.1406572838494" stroke-miterlimit="10" stroke-width="0.5"/><path fill="none" stroke="cyan" paint-order="fill stroke markers" d=" M 669.9750167612373 716.0491301669374 L 645.07185696291 724.1406572838494 L 660.4628561455462 702.9567642708822" stroke-miterlimit="10" stroke-width="0.5"/><path fill="none" stroke="cyan" paint-order="fill stroke markers" d=" M 660.4628561455462 771.5092820889264 L 660.4628561455462 745.3245502968163 L 629.6808577802739 702.9567642708823 L 604.7776979819467 694.8652371539704" stroke-miterlimit="10" stroke-width="0.5"/><path fill="none" stroke="cyan" paint-order="fill stroke markers" d=" M 645.07185696291 681.7728712579153 L 629.6808577802739 702.9567642708823" stroke-miterlimit="10" stroke-width="0.5"/><path fill="none" stroke="cyan" paint-order="fill stroke markers" d=" M 669.9750167612373 647.4966123488932 L 645.07185696291 639.4050852319813 L 645.07185696291 613.2203534398712 L 685.3660159438734 600.1279875438161 L 700.7570151265096 621.3118805567831" stroke-miterlimit="10" stroke-width="0.5"/><path fill="none" stroke="cyan" paint-order="fill stroke markers" d=" M 645.07185696291 639.4050852319813 L 629.6808577802739 660.5889782449483" stroke-miterlimit="10" stroke-width="0.5"/><path fill="none" stroke="cyan" paint-order="fill stroke markers" d=" M 685.3660159438734 626.3127193359262 L 735.1723355405277 642.49577356975" stroke-miterlimit="10" stroke-width="0.5"/><path fill="none" stroke="cyan" paint-order="fill stroke markers" d=" M 694.8781765595644 655.588139465805 L 710.2691757422006 634.404246452838 L 710.2691757422006 660.5889782449483" stroke-miterlimit="10" stroke-width="0.5"/><path fill="none" stroke="cyan" paint-order="fill stroke markers" d=" M 725.6601749248367 681.7728712579152 L 710.2691757422006 660.5889782449483" stroke-miterlimit="10" stroke-width="0.5"/><path fill="none" stroke="cyan" paint-order="fill stroke markers" d=" M 725.6601749248367 681.7728712579152 L 750.5633347231638 689.8643983748273 L 725.6601749248367 697.9559254917392" stroke-miterlimit="10" stroke-width="0.5"/><path fill="none" stroke="cyan" paint-order="fill stroke markers" d=" M 750.5633347231638 663.6796665827171 L 750.5633347231638 716.0491301669373 L 765.9543339058 737.2330231799043" stroke-miterlimit="10" stroke-width="0.5"/><path fill="none" stroke="cyan" paint-order="fill stroke markers" d=" M 725.6601749248367 724.1406572838492 L 750.5633347231638 716.0491301669373" stroke-miterlimit="10" stroke-width="0.5"/><path fill="none" stroke="cyan" paint-order="fill stroke markers" d=" M 700.7570151265095 758.4169161928713 L 725.6601749248367 750.3253890759594" stroke-miterlimit="10" stroke-width="0.5"/><path fill="none" stroke="cyan" paint-order="fill stroke markers" d=" M 660.4628561455462 745.3245502968163 L 685.3660159438734 737.2330231799043" stroke-miterlimit="10" stroke-width="0.5"/><path fill="none" stroke="cyan" paint-order="fill stroke markers" d=" M 660.4628561455462 676.7720324787722 L 660.4628561455462 702.9567642708822" stroke-miterlimit="10" stroke-width="0.5"/><path fill="none" stroke="cyan" paint-order="fill stroke markers" d=" M 660.4628561455462 676.7720324787722 L 645.07185696291 655.5881394658052 L 669.9750167612373 663.679666582717" stroke-miterlimit="10" stroke-width="0.5"/><path fill="none" stroke="cyan" paint-order="fill stroke markers" d=" M 604.7776979819467 684.863559595684 L 629.680857780274 676.7720324787721 L 660.4628561455462 634.4042464528382 L 660.4628561455462 608.219514660728" stroke-miterlimit="10" stroke-width="0.5"/><path fill="none" stroke="cyan" paint-order="fill stroke markers" d=" M 685.3660159438734 642.4957735697501 L 660.4628561455462 634.4042464528382" stroke-miterlimit="10" stroke-width="0.5"/><path fill="none" stroke="cyan" paint-order="fill stroke markers" d=" M 725.6601749248367 629.4034076736951 L 750.5633347231638 621.3118805567831 L 775.466494521491 655.588139465805 L 760.0754953388548 676.7720324787721" stroke-miterlimit="10" stroke-width="0.5"/><path fill="none" stroke="cyan" paint-order="fill stroke markers" d=" M 710.2691757422006 719.1398185047061 L 725.6601749248367 697.9559254917391" stroke-miterlimit="10" stroke-width="0.5"/><path fill="none" stroke="cyan" paint-order="fill stroke markers" d=" M 629.680857780274 719.1398185047061 L 645.07185696291 740.3237115176731" stroke-miterlimit="10" stroke-width="0.5"/><path fill="none" stroke="cyan" paint-order="fill stroke markers" d=" M 629.680857780274 676.7720324787721 L 645.07185696291 697.9559254917391" stroke-miterlimit="10" stroke-width="0.5"/><path fill="none" stroke="cyan" paint-order="fill stroke markers" d=" M 694.8781765595644 655.588139465805 L 669.9750167612373 663.679666582717" stroke-miterlimit="10" stroke-width="0.5"/></g></svg>