<svg version="1.1" xmlns="http://www.w3.org/2000/svg" xmlns:xlink="http://www.w3.org/1999/xlink" width="900" height="900"><defs/><g><path fill="#222222" stroke="#cccccc" paint-order="fill stroke markers" d=" M 395.12707 195.44426 L 396.66519 195.75022 L 399.66668 196.66071 L 401.11559 197.26086 L 403.88178 198.73942 L 405.18574 199.6107 L 407.61032 201.6005 L 408.71926 202.70944 L 410.70907 205.13403 L 411.58036 206.438 L 413.05892 209.20419 L 413.65907 210.6531 L 414.56956 213.65459 L 414.87552 215.19274 L 415.18295 218.31418 L 415.18295 219.88242 L 414.87552 223.00387 L 414.56956 224.54202 L 413.65907 227.54351 L 413.05891 228.99243 L 411.58035 231.75861 L 410.70907 233.06257 L 408.71926 235.48716 L 407.61032 236.5961 L 405.18574 238.5859 L 403.88178 239.45718 L 401.11559 240.93574 L 399.66671 241.53589 L 399.22147 241.67095 L 399.22147 277.49894 L 408.85503 290.75839 L 420.01645 275.39602 L 421.38202 273.94014 L 423.06551 272.86764 L 424.9621 272.24529 L 426.95372 272.11183 L 428.91639 272.47558 L 430.72791 273.31389 L 432.27551 274.57457 L 433.46284 276.17914 L 434.21598 278.02769 L 434.48805 280.00515 L 434.2621 281.98841 L 433.55221 283.854 L 432.96073 284.80058 L 416.85503 306.96817 L 416.85503 346.76945 L 426.48859 360.0289 L 437.65001 344.66653 L 439.01558 343.21065 L 440.69907 342.13815 L 442.59566 341.5158 L 444.58728 341.38234 L 446.54995 341.74609 L 448.36147 342.5844 L 449.90907 343.84508 L 451.0964 345.44965 L 451.84954 347.2982 L 452.12161 349.27566 L 451.89566 351.25892 L 451.18577 353.12451 L 450.59429 354.07109 L 434.48859 376.23868 L 434.48859 416.03996 L 450 437.38958 L 465.51141 416.03996 L 465.51141 373.63932 L 465.76043 371.65882 L 466.492 369.80163 L 467.66057 368.18335 L 469.19338 366.90473 L 470.99502 366.04539 L 472.95332 365.65881 L 474.94636 365.76907 L 476.85007 366.36929 L 478.54593 367.42212 L 479.92836 368.862 L 480.91129 370.5993 L 481.43354 372.52586 L 481.51141 373.63932 L 481.51141 407.62827 L 511.36467 397.92836 L 525.94251 377.86369 L 525.94251 338.06241 L 511.36467 317.99774 L 471.03927 304.89522 L 469.23266 304.04638 L 467.69243 302.77671 L 466.51446 301.16526 L 465.77209 299.31236 L 465.51155 297.33334 L 465.74904 295.35143 L 466.46978 293.49001 L 467.6289 291.86495 L 469.15425 290.57744 L 470.95085 289.70762 L 472.90687 289.30964 L 474.90052 289.40829 L 475.98355 289.67832 L 508.30895 300.18148 L 508.30895 272.76518 L 507.86375 272.63013 L 506.41484 272.02998 L 503.64865 270.55142 L 502.34468 269.68013 L 499.92009 267.69032 L 498.81115 266.58138 L 496.82135 264.1568 L 495.95007 262.85284 L 494.47151 260.08665 L 493.87136 258.63774 L 492.96087 255.63625 L 492.65491 254.09813 L 492.34747 250.97669 L 492.34747 249.40839 L 492.65491 246.28694 L 492.96087 244.74882 L 493.87136 241.74733 L 494.47151 240.29842 L 495.95007 237.53223 L 496.82135 236.22827 L 498.81115 233.80369 L 499.92009 232.69475 L 502.34468 230.70494 L 503.64865 229.83365 L 506.41484 228.35509 L 507.86375 227.75494 L 510.86524 226.84445 L 512.40339 226.53849 L 515.52483 226.23106 L 517.09307 226.23106 L 520.21452 226.53849 L 521.75267 226.84445 L 524.75416 227.75494 L 526.20307 228.35509 L 528.96926 229.83365 L 530.27324 230.70495 L 532.69782 232.69476 L 533.80673 233.80367 L 535.79654 236.22825 L 536.66784 237.53223 L 538.1464 240.29842 L 538.74655 241.74733 L 539.65704 244.74882 L 539.963 246.28697 L 540.27043 249.40842 L 540.27043 250.97666 L 539.963 254.0981 L 539.65704 255.63625 L 538.74655 258.63774 L 538.1464 260.08665 L 536.66784 262.85284 L 535.79654 264.15682 L 533.80673 266.5814 L 532.69782 267.69031 L 530.27324 269.68012 L 528.96926 270.55142 L 526.20307 272.02998 L 524.75416 272.63013 L 524.30895 272.76518 L 524.30895 308.59318 L 533.94251 321.85263 L 545.10393 306.49026 L 546.4695 305.03438 L 548.15299 303.96188 L 550.04958 303.33953 L 552.0412 303.20607 L 554.00387 303.56982 L 555.81539 304.40813 L 557.36299 305.66881 L 558.55032 307.27338 L 559.30346 309.12193 L 559.57553 311.09939 L 559.34958 313.08265 L 558.63969 314.94824 L 558.04821 315.89482 L 541.94251 338.06241 L 541.94251 369.45199 L 571.79577 359.75208 L 586.37361 339.68741 L 586.37361 297.28677 L 586.62263 295.30627 L 587.3542 293.44908 L 588.52277 291.8308 L 590.05558 290.55218 L 591.85722 289.69284 L 593.81552 289.30626 L 595.80856 289.41652 L 597.71227 290.01674 L 599.40813 291.06957 L 600.79056 292.50945 L 601.77349 294.24675 L 602.29574 296.17331 L 602.37361 297.28677 L 602.37361 331.27572 L 628.44805 322.80362 L 628.43892 322.33845 L 628.56197 320.775 L 629.11337 317.6873 L 629.53905 316.17795 L 630.68222 313.25715 L 631.39422 311.85978 L 633.08526 309.21812 L 634.05616 307.98653 L 636.23006 305.72554 L 637.42259 304.70703 L 639.99582 302.91359 L 641.36413 302.1473 L 644.2378 300.89033 L 645.72932 300.4057 L 648.79299 299.73351 L 650.3504 299.54918 L 653.48634 299.4876 L 655.04976 299.61065 L 658.13747 300.16204 L 659.64688 300.58773 L 662.56768 301.73091 L 663.96502 302.44289 L 666.60667 304.13392 L 667.83827 305.10484 L 670.09926 307.27875 L 671.11774 308.47124 L 672.91119 311.04446 L 673.67751 312.41282 L 674.93447 315.28649 L 675.41909 316.77799 L 676.09128 319.84167 L 676.27561 321.39905 L 676.3372 324.53499 L 676.21415 326.09847 L 675.66275 329.18617 L 675.23706 330.69555 L 674.09388 333.61635 L 673.38191 335.01367 L 671.69088 337.65533 L 670.71996 338.88694 L 668.54606 341.14793 L 667.35353 342.16644 L 664.7803 343.95988 L 663.41199 344.72617 L 660.53832 345.98314 L 659.0468 346.46777 L 655.98313 347.13996 L 654.42572 347.32429 L 651.28977 347.38587 L 649.72635 347.26282 L 646.63865 346.71143 L 645.12924 346.28574 L 642.20844 345.14256 L 640.8111 344.43058 L 638.16945 342.73955 L 636.93786 341.76864 L 634.67686 339.59473 L 633.65835 338.4022 L 633.39233 338.02052 L 599.31789 349.09197 L 589.68432 362.35143 L 607.74389 368.21934 L 609.5505 369.06818 L 611.09073 370.33785 L 612.2687 371.9493 L 613.01107 373.8022 L 613.27161 375.78122 L 613.03413 377.76313 L 612.31338 379.62455 L 611.15426 381.24961 L 609.62891 382.53712 L 607.83231 383.40694 L 605.87629 383.80492 L 603.88264 383.70627 L 602.79961 383.43624 L 576.74005 374.96898 L 538.88679 387.26825 L 529.25322 400.52771 L 547.31279 406.39562 L 549.1194 407.24446 L 550.65963 408.51413 L 551.8376 410.12558 L 552.57997 411.97848 L 552.84051 413.9575 L 552.60303 415.93941 L 551.88228 417.80083 L 550.72316 419.42589 L 549.19781 420.7134 L 547.40121 421.58322 L 545.44519 421.9812 L 543.45154 421.88255 L 542.36851 421.61252 L 516.30895 413.14526 L 478.45569 425.44452 L 462.94427 446.79415 L 488.04226 454.94898 L 528.36766 441.84647 L 530.32818 441.4713 L 532.32055 441.59315 L 534.22073 442.20445 L 535.91043 443.26713 L 537.28445 444.71504 L 538.25726 446.45803 L 538.76828 448.3876 L 538.78571 450.38361 L 538.30846 452.32181 L 537.36625 454.08153 L 536.01772 455.55321 L 534.34684 456.64524 L 533.31194 457.06337 L 500.98654 467.56653 L 519.43688 492.96124 L 543.0243 500.62525 L 580.87756 488.32599 L 595.45539 468.26132 L 595.45539 425.86068 L 595.70441 423.88018 L 596.43598 422.02299 L 597.60455 420.40471 L 599.13736 419.12609 L 600.939 418.26675 L 602.8973 417.88017 L 604.89034 417.99043 L 606.79405 418.59065 L 608.48991 419.64348 L 609.87234 421.08336 L 610.85527 422.82066 L 611.37752 424.74722 L 611.45539 425.86068 L 611.45539 459.84963 L 637.52984 451.37753 L 637.5207 450.91239 L 637.64375 449.34891 L 638.19515 446.26121 L 638.62084 444.75183 L 639.76402 441.83103 L 640.47599 440.43371 L 642.16702 437.79205 L 643.13794 436.56044 L 645.31184 434.29945 L 646.50437 433.28094 L 649.0776 431.4875 L 650.44591 430.72121 L 653.31958 429.46424 L 654.8111 428.97961 L 657.87477 428.30742 L 659.43218 428.12309 L 662.56813 428.06151 L 664.13155 428.18456 L 667.21925 428.73595 L 668.72866 429.16164 L 671.64946 430.30482 L 673.0468 431.0168 L 675.68845 432.70783 L 676.92003 433.67873 L 679.18103 435.85263 L 680.19955 437.04517 L 681.99299 439.6184 L 682.75928 440.98671 L 684.01625 443.86038 L 684.50088 445.3519 L 685.17307 448.41557 L 685.3574 449.97298 L 685.41898 453.10893 L 685.29593 454.67238 L 684.74453 457.76008 L 684.31885 459.26943 L 683.17568 462.19023 L 682.46368 463.5876 L 680.77264 466.22926 L 679.80174 467.46085 L 677.62784 469.72184 L 676.43531 470.74035 L 673.86208 472.53379 L 672.49377 473.30008 L 669.6201 474.55705 L 668.12858 475.04168 L 665.06491 475.71387 L 663.5075 475.8982 L 660.37156 475.95978 L 658.80814 475.83673 L 655.72043 475.28534 L 654.21102 474.85965 L 651.29022 473.71647 L 649.89287 473.00448 L 647.25122 471.31344 L 646.01964 470.34254 L 643.75865 468.16864 L 642.74015 466.97613 L 642.47412 466.59443 L 608.39967 477.66588 L 598.76611 490.92534 L 616.82567 496.79325 L 618.63228 497.64209 L 620.17251 498.91176 L 621.35048 500.52321 L 622.09285 502.37611 L 622.35339 504.35513 L 622.11591 506.33704 L 621.39516 508.19846 L 620.23604 509.82352 L 618.71069 511.11103 L 616.91409 511.98085 L 614.95807 512.37883 L 612.96442 512.28018 L 611.88139 512.01015 L 585.82183 503.54289 L 555.96856 513.2428 L 574.41891 538.63752 L 598.00632 546.30153 L 638.33173 533.19901 L 640.29225 532.82384 L 642.28462 532.94569 L 644.1848 533.55699 L 645.8745 534.61967 L 647.24852 536.06758 L 648.22133 537.81057 L 648.73235 539.74014 L 648.74978 541.73615 L 648.27253 543.67435 L 647.33032 545.43407 L 645.98179 546.90575 L 644.31091 547.99778 L 643.27601 548.41591 L 610.95059 558.91908 L 627.0655 581.09933 L 627.50508 580.9469 L 629.02999 580.5808 L 632.13696 580.15105 L 633.70403 580.08947 L 636.83514 580.27412 L 638.38411 580.51946 L 641.41903 581.31141 L 642.89038 581.85422 L 645.71248 583.22304 L 647.04965 584.04246 L 649.55049 585.93555 L 650.7021 587.00008 L 652.78556 589.34467 L 653.70737 590.61344 L 655.29339 593.31945 L 655.94997 594.74369 L 656.97759 597.70712 L 657.34369 599.23203 L 657.77344 602.339 L 657.83502 603.90607 L 657.65037 607.03718 L 657.40503 608.58615 L 656.61308 611.62107 L 656.07027 613.09242 L 654.70145 615.91452 L 653.88203 617.25169 L 651.98894 619.75253 L 650.92441 620.90414 L 648.57982 622.9876 L 647.31105 623.90941 L 644.60504 625.49543 L 643.1808 626.15201 L 640.21737 627.17963 L 638.69246 627.54573 L 635.58549 627.97548 L 634.01842 628.03706 L 630.88731 627.85241 L 629.33834 627.60707 L 626.30342 626.81512 L 624.83207 626.27231 L 622.00997 624.90349 L 620.67281 624.08408 L 618.17197 622.191 L 617.02034 621.12644 L 614.93688 618.78184 L 614.01508 617.51309 L 612.42906 614.80708 L 611.77248 613.38284 L 610.74486 610.41941 L 610.37876 608.8945 L 609.94901 605.78753 L 609.88743 604.22046 L 610.07208 601.08935 L 610.31742 599.54038 L 611.10937 596.50546 L 611.65218 595.03411 L 613.021 592.21201 L 613.84041 590.87485 L 614.12122 590.50389 L 593.06204 561.51843 L 577.47463 556.45378 L 577.47463 575.44272 L 577.22561 577.42322 L 576.49404 579.28041 L 575.32547 580.89869 L 573.79266 582.17731 L 571.99102 583.03665 L 570.03272 583.42323 L 568.03968 583.31297 L 566.13597 582.71275 L 564.44011 581.65992 L 563.05768 580.22004 L 562.07475 578.48274 L 561.5525 576.55618 L 561.47463 575.44272 L 561.47463 548.04208 L 538.08001 515.84215 L 522.4926 510.7775 L 522.4926 529.76644 L 522.24358 531.74694 L 521.51201 533.60413 L 520.34344 535.22241 L 518.81063 536.50103 L 517.00899 537.36037 L 515.05069 537.74695 L 513.05765 537.63669 L 511.15394 537.03647 L 509.45808 535.98364 L 508.07565 534.54376 L 507.09272 532.80646 L 506.57047 530.8799 L 506.4926 529.76644 L 506.4926 502.3658 L 483.09798 470.16588 L 458 462.01105 L 458 488.40064 L 482.92248 522.70348 L 483.88512 524.4521 L 484.3849 526.38461 L 484.39071 528.38069 L 483.90219 530.31608 L 482.94974 532.07028 L 481.59267 533.53409 L 479.91546 534.61637 L 478.02252 535.24975 L 476.03171 535.3948 L 474.06696 535.04248 L 472.25059 534.21473 L 470.69568 532.96308 L 469.9782 532.10804 L 450 504.61041 L 431.54966 530.00512 L 431.54966 554.8064 L 454.94428 587.00633 L 478.5317 594.67034 L 518.8571 581.56782 L 520.81762 581.19265 L 522.80999 581.3145 L 524.71017 581.9258 L 526.39987 582.98848 L 527.77389 584.43639 L 528.7467 586.17938 L 529.25772 588.10895 L 529.27515 590.10496 L 528.7979 592.04316 L 527.85569 593.80287 L 526.50716 595.27456 L 524.83628 596.36659 L 523.80138 596.78472 L 491.47597 607.28789 L 507.59086 629.46814 L 508.03042 629.31571 L 509.55536 628.94961 L 512.66233 628.51986 L 514.2294 628.45828 L 517.36051 628.64293 L 518.90948 628.88827 L 521.9444 629.68022 L 523.41575 630.22303 L 526.23785 631.59185 L 527.57502 632.41127 L 530.07586 634.30436 L 531.22747 635.36889 L 533.31093 637.71348 L 534.23274 638.98225 L 535.81876 641.68826 L 536.47534 643.1125 L 537.50296 646.07593 L 537.86906 647.60084 L 538.29881 650.70781 L 538.36039 652.27488 L 538.17574 655.40599 L 537.9304 656.95496 L 537.13845 659.98988 L 536.59564 661.46123 L 535.22682 664.28333 L 534.40741 665.62049 L 532.51433 668.12133 L 531.44977 669.27296 L 529.10517 671.35642 L 527.83642 672.27822 L 525.13041 673.86424 L 523.70617 674.52082 L 520.74274 675.54844 L 519.21783 675.91454 L 516.11086 676.34429 L 514.54379 676.40587 L 511.41268 676.22122 L 509.86371 675.97588 L 506.82879 675.18393 L 505.35744 674.64112 L 502.53534 673.2723 L 501.19818 672.45289 L 498.69734 670.55981 L 497.54571 669.49525 L 495.46225 667.15065 L 494.54043 665.88188 L 492.95442 663.17587 L 492.29786 661.75168 L 491.27023 658.78825 L 490.90413 657.26331 L 490.47438 654.15634 L 490.4128 652.58927 L 490.59745 649.45816 L 490.84279 647.90919 L 491.63474 644.87427 L 492.17755 643.40292 L 493.54637 640.58082 L 494.36579 639.24365 L 494.64659 638.8727 L 473.58742 609.88724 L 458 604.82258 L 458 623.81153 L 457.75098 625.79203 L 457.01941 627.64922 L 455.85084 629.2675 L 454.31803 630.54612 L 452.51639 631.40546 L 450.55809 631.79204 L 448.56505 631.68178 L 446.66134 631.08156 L 444.96548 630.02873 L 443.58305 628.58885 L 442.60012 626.85155 L 442.07787 624.92499 L 442 623.81153 L 442 596.41089 L 423.54966 571.01618 L 405.09933 596.41089 L 405.09933 621.21217 L 430.0218 655.51501 L 430.98444 657.26364 L 431.48422 659.19614 L 431.49003 661.19223 L 431.00151 663.12761 L 430.04906 664.88181 L 428.69199 666.34562 L 427.01478 667.4279 L 425.12184 668.06128 L 423.13103 668.20633 L 421.16628 667.85401 L 419.34991 667.02626 L 417.795 665.77461 L 417.07752 664.91957 L 397.09933 637.42195 L 380.98443 659.60219 L 381.26524 659.97315 L 382.08465 661.31031 L 383.45347 664.13241 L 383.99628 665.60376 L 384.78823 668.63868 L 385.03357 670.18765 L 385.21822 673.31876 L 385.15665 674.8858 L 384.72691 677.99277 L 384.3608 679.51774 L 383.33317 682.48117 L 382.67659 683.90538 L 381.09057 686.61139 L 380.16877 687.88014 L 378.08531 690.22474 L 376.93368 691.2893 L 374.43284 693.18238 L 373.09568 694.00179 L 370.27358 695.37061 L 368.80223 695.91342 L 365.76731 696.70537 L 364.21834 696.95071 L 361.08723 697.13536 L 359.52016 697.07378 L 356.41319 696.64403 L 354.88828 696.27793 L 351.92485 695.25031 L 350.50061 694.59373 L 347.7946 693.00771 L 346.52583 692.0859 L 344.18124 690.00244 L 343.11671 688.85083 L 341.22362 686.34999 L 340.40419 685.0128 L 339.03538 682.1907 L 338.49258 680.71939 L 337.70062 677.68447 L 337.45528 676.13548 L 337.27063 673.00437 L 337.33221 671.4373 L 337.76196 668.33033 L 338.12806 666.80539 L 339.15569 663.84196 L 339.81225 662.41777 L 341.39826 659.71176 L 342.32009 658.44297 L 344.40355 656.09838 L 345.55516 655.03385 L 348.056 653.14076 L 349.39317 652.32134 L 352.21527 650.95252 L 353.68663 650.4097 L 356.72156 649.61775 L 358.27052 649.37243 L 361.40162 649.18778 L 362.96869 649.24935 L 366.07566 649.6791 L 367.6006 650.0452 L 368.04016 650.19763 L 389.09933 621.21217 L 389.09933 604.82258 L 371.03977 610.69049 L 369.07925 611.06566 L 367.08688 610.94381 L 365.1867 610.33251 L 363.497 609.26983 L 362.12298 607.82192 L 361.15017 606.07893 L 360.63915 604.14936 L 360.62172 602.15335 L 361.09897 600.21515 L 362.04118 598.45543 L 363.38971 596.98375 L 365.06059 595.89172 L 366.09549 595.47359 L 392.15505 587.00633 L 415.54966 554.8064 L 415.54966 538.41682 L 397.49011 544.28472 L 395.52959 544.65989 L 393.53722 544.53804 L 391.63704 543.92674 L 389.94734 542.86406 L 388.57332 541.41615 L 387.60051 539.67316 L 387.08949 537.74359 L 387.07206 535.74758 L 387.54931 533.80938 L 388.49152 532.04966 L 389.84005 530.57798 L 391.51093 529.48595 L 392.54583 529.06782 L 418.60538 520.60056 L 442 488.40064 L 442 462.01105 L 416.90202 470.16588 L 391.97954 504.46872 L 390.61396 505.9246 L 388.93048 506.99711 L 387.03389 507.61945 L 385.04227 507.75291 L 383.0796 507.38916 L 381.26808 506.55084 L 379.72048 505.29017 L 378.53315 503.6856 L 377.78001 501.83705 L 377.50794 499.85959 L 377.73389 497.87633 L 378.44378 496.01074 L 379.03526 495.06416 L 399.01346 467.56653 L 369.16019 457.86661 L 345.57278 465.53062 L 322.17816 497.73055 L 322.17816 522.53183 L 347.10064 556.83467 L 348.06328 558.58329 L 348.56306 560.5158 L 348.56887 562.51188 L 348.08035 564.44727 L 347.1279 566.20147 L 345.77083 567.66528 L 344.09362 568.74756 L 342.20068 569.38094 L 340.20987 569.52599 L 338.24512 569.17367 L 336.42875 568.34592 L 334.87384 567.09427 L 334.15636 566.23923 L 314.17816 538.74161 L 298.06327 560.92185 L 298.34407 561.2928 L 299.16349 562.62997 L 300.53231 565.45207 L 301.07512 566.92342 L 301.86707 569.95834 L 302.11241 571.50731 L 302.29706 574.63842 L 302.23548 576.20549 L 301.80573 579.31246 L 301.43963 580.8374 L 300.412 583.80083 L 299.75544 585.22502 L 298.16943 587.93103 L 297.24761 589.1998 L 295.16415 591.5444 L 294.01252 592.60896 L 291.51168 594.50204 L 290.17452 595.32145 L 287.35242 596.69027 L 285.88107 597.23308 L 282.84615 598.02503 L 281.29718 598.27037 L 278.16607 598.45502 L 276.599 598.39344 L 273.49203 597.96369 L 271.96712 597.59759 L 269.00369 596.56997 L 267.57945 595.91339 L 264.87344 594.32737 L 263.60469 593.40557 L 261.26009 591.32211 L 260.19553 590.17048 L 258.30245 587.66964 L 257.48304 586.33248 L 256.11422 583.51038 L 255.57141 582.03903 L 254.77946 579.00411 L 254.53412 577.45514 L 254.34947 574.32403 L 254.41105 572.75696 L 254.8408 569.64999 L 255.2069 568.12508 L 256.23452 565.16165 L 256.8911 563.73741 L 258.47712 561.0314 L 259.39893 559.76263 L 261.48239 557.41804 L 262.634 556.35351 L 265.13484 554.46042 L 266.47201 553.641 L 269.29411 552.27218 L 270.76546 551.72937 L 273.80038 550.93742 L 275.34935 550.69208 L 278.48046 550.50743 L 280.04753 550.56901 L 283.1545 550.99876 L 284.67944 551.36486 L 285.119 551.51729 L 306.17816 522.53183 L 306.17816 506.14225 L 288.11861 512.01015 L 286.15809 512.38532 L 284.16572 512.26347 L 282.26554 511.65217 L 280.57584 510.58949 L 279.20182 509.14158 L 278.22901 507.39859 L 277.71799 505.46902 L 277.70056 503.47301 L 278.17781 501.53481 L 279.12002 499.77509 L 280.46855 498.30341 L 282.13943 497.21138 L 283.17433 496.79325 L 309.23388 488.32599 L 327.68423 462.93127 L 297.83096 453.23136 L 274.24354 460.89537 L 249.32107 495.19821 L 247.9555 496.65409 L 246.27201 497.72659 L 244.37542 498.34894 L 242.3838 498.4824 L 240.42113 498.11865 L 238.60961 497.28034 L 237.06201 496.01966 L 235.87468 494.41509 L 235.12154 492.56654 L 234.84947 490.58908 L 235.07542 488.60582 L 235.78531 486.74023 L 236.37679 485.79365 L 256.35499 458.29602 L 230.28054 449.82392 L 230.01452 450.2056 L 228.99601 451.39813 L 226.73502 453.57203 L 225.50343 454.54293 L 222.86177 456.23397 L 221.46443 456.94596 L 218.54363 458.08914 L 217.03422 458.51483 L 213.94652 459.06622 L 212.3831 459.18927 L 209.24716 459.12769 L 207.68975 458.94336 L 204.62607 458.27117 L 203.13455 457.78654 L 200.26088 456.52957 L 198.89256 455.76327 L 196.31934 453.96983 L 195.12683 452.95134 L 192.95292 450.69035 L 191.98199 449.45873 L 190.29096 446.81707 L 189.57899 445.41975 L 188.43581 442.49895 L 188.01012 440.98954 L 187.45873 437.90184 L 187.33568 436.33842 L 187.39726 433.20247 L 187.58159 431.64506 L 188.25378 428.58139 L 188.73841 427.08987 L 189.99538 424.2162 L 190.76167 422.84789 L 192.55511 420.27466 L 193.57362 419.08213 L 195.83461 416.90823 L 197.06622 415.93731 L 199.70788 414.24628 L 201.1052 413.53431 L 204.026 412.39113 L 205.53541 411.96544 L 208.62311 411.41405 L 210.18653 411.291 L 213.32247 411.35258 L 214.87988 411.53691 L 217.94356 412.2091 L 219.43509 412.69373 L 222.30875 413.9507 L 223.67705 414.71699 L 226.25028 416.51043 L 227.4428 417.52893 L 229.61671 419.78992 L 230.58764 421.02154 L 232.27867 423.6632 L 232.99064 425.06052 L 234.13382 427.98132 L 234.55951 429.49073 L 235.1109 432.57843 L 235.23395 434.14185 L 235.22482 434.60702 L 269.29926 445.67847 L 284.88669 440.61381 L 273.72526 425.25143 L 272.76262 423.50281 L 272.26284 421.5703 L 272.25703 419.57422 L 272.74555 417.63883 L 273.698 415.88463 L 275.05507 414.42082 L 276.73228 413.33854 L 278.62522 412.70516 L 280.61603 412.56011 L 282.58078 412.91243 L 284.39715 413.74018 L 285.95206 414.99183 L 286.66954 415.84687 L 302.77524 438.01446 L 340.62851 450.31373 L 356.21593 445.24907 L 345.0545 429.88669 L 344.09186 428.13807 L 343.59208 426.20556 L 343.58627 424.20948 L 344.07479 422.27409 L 345.02724 420.51989 L 346.38431 419.05608 L 348.06152 417.9738 L 349.95446 417.34042 L 351.94527 417.19537 L 353.91002 417.54769 L 355.72639 418.37544 L 357.2813 419.62709 L 357.99878 420.48213 L 374.10448 442.64972 L 411.95774 454.94898 L 437.05573 446.79415 L 421.54431 425.44452 L 381.21891 412.34201 L 379.4123 411.49317 L 377.87207 410.2235 L 376.6941 408.61205 L 375.95173 406.75915 L 375.69119 404.78013 L 375.92867 402.79822 L 376.64942 400.9368 L 377.80854 399.31174 L 379.33389 398.02423 L 381.13049 397.15441 L 383.08651 396.75643 L 385.08016 396.85508 L 386.16319 397.12511 L 418.48859 407.62827 L 418.48859 376.23868 L 403.91075 356.17401 L 366.05749 343.87475 L 342.47007 351.53876 L 317.5476 385.8416 L 316.18203 387.29748 L 314.49854 388.36998 L 312.60195 388.99233 L 310.61033 389.12579 L 308.64766 388.76204 L 306.83614 387.92373 L 305.28854 386.66305 L 304.10121 385.05848 L 303.34807 383.20993 L 303.076 381.23247 L 303.30195 379.24921 L 304.01184 377.38362 L 304.60332 376.43704 L 324.58152 348.93941 L 298.50707 340.4673 L 298.24105 340.84899 L 297.22254 342.04152 L 294.96155 344.21542 L 293.72994 345.18634 L 291.08828 346.87737 L 289.69096 347.58934 L 286.77016 348.73252 L 285.26078 349.15821 L 282.17308 349.70961 L 280.6096 349.83266 L 277.47366 349.77107 L 275.91628 349.58674 L 272.8526 348.91455 L 271.36107 348.42992 L 268.48741 347.17295 L 267.11911 346.40666 L 264.54588 344.61322 L 263.35335 343.59471 L 261.17945 341.33372 L 260.20855 340.10214 L 258.51751 337.46049 L 257.80552 336.06314 L 256.66234 333.14234 L 256.23665 331.63293 L 255.68526 328.54522 L 255.56221 326.9818 L 255.62379 323.84586 L 255.80812 322.28845 L 256.48031 319.22478 L 256.96494 317.73326 L 258.22191 314.85959 L 258.9882 313.49128 L 260.78164 310.91805 L 261.80015 309.72552 L 264.06114 307.55162 L 265.29273 306.58072 L 267.93439 304.88968 L 269.33176 304.17768 L 272.25256 303.03451 L 273.76191 302.60883 L 276.84961 302.05743 L 278.41306 301.93438 L 281.549 301.99596 L 283.10641 302.18029 L 286.17009 302.85248 L 287.66161 303.33711 L 290.53528 304.59408 L 291.9036 305.36038 L 294.47682 307.15382 L 295.66934 308.17232 L 297.84325 310.43332 L 298.81416 311.66491 L 300.50519 314.30656 L 301.21717 315.7039 L 302.36035 318.6247 L 302.78604 320.13411 L 303.33743 323.22181 L 303.46048 324.78523 L 303.45135 325.2504 L 337.52579 336.32186 L 353.11322 331.2572 L 341.95179 315.89482 L 340.98915 314.1462 L 340.48937 312.21369 L 340.48356 310.21761 L 340.97208 308.28222 L 341.92453 306.52802 L 343.2816 305.06421 L 344.95881 303.98193 L 346.85175 303.34855 L 348.84256 303.2035 L 350.80731 303.55582 L 352.62368 304.38357 L 354.17859 305.63522 L 354.89607 306.49026 L 371.00177 328.65785 L 400.85503 338.35776 L 400.85503 306.96817 L 386.27719 286.9035 L 345.95179 273.80099 L 344.14518 272.95215 L 342.60495 271.68248 L 341.42698 270.07103 L 340.68461 268.21813 L 340.42407 266.23911 L 340.66155 264.2572 L 341.3823 262.39578 L 342.54142 260.77072 L 344.06677 259.48321 L 345.86337 258.61339 L 347.81939 258.21541 L 349.81304 258.31406 L 350.89607 258.58409 L 383.22147 269.08725 L 383.22147 241.67095 L 382.77624 241.53589 L 381.32736 240.93574 L 378.56117 239.45718 L 377.25721 238.5859 L 374.83263 236.5961 L 373.72369 235.48716 L 371.73388 233.06257 L 370.8626 231.75861 L 369.38404 228.99243 L 368.78388 227.54351 L 367.87339 224.54202 L 367.56743 223.0039 L 367.25999 219.88245 L 367.25999 218.31415 L 367.56743 215.19271 L 367.87339 213.65459 L 368.78388 210.6531 L 369.38403 209.20419 L 370.86259 206.438 L 371.73388 205.13403 L 373.72369 202.70944 L 374.83263 201.6005 L 377.25721 199.6107 L 378.56117 198.73942 L 381.32736 197.26086 L 382.77627 196.66071 L 385.77776 195.75022 L 387.31588 195.44426 L 390.43732 195.13682 L 392.00562 195.13682 Z M 359.99905 665.29828 L 358.48885 665.69236 L 357.08467 666.37344 L 355.84031 667.3154 L 354.80361 668.48203 L 354.01445 669.82848 L 353.5031 671.30308 L 353.28927 672.84897 L 353.38115 674.40699 L 353.77522 675.91713 L 354.45631 677.32133 L 355.39826 678.56568 L 356.56492 679.60241 L 357.91135 680.39156 L 359.38588 680.90288 L 360.93183 681.11672 L 362.48989 681.02483 L 363.99996 680.63079 L 365.40418 679.94969 L 366.64857 679.00771 L 367.68525 677.8411 L 368.47441 676.49467 L 368.98575 675.02009 L 369.19958 673.47414 L 369.10769 671.9161 L 368.71365 670.40603 L 368.03255 669.00181 L 367.09057 667.75742 L 365.924 666.72077 L 364.57751 665.93159 L 363.10291 665.42024 L 361.55697 665.20641 Z M 512.52811 644.69075 L 511.05351 645.2021 L 509.70706 645.99126 L 508.54043 647.02796 L 507.59847 648.27232 L 506.91737 649.67654 L 506.52333 651.18661 L 506.43144 652.74467 L 506.64527 654.29056 L 507.15662 655.76516 L 507.9458 657.11165 L 508.98245 658.27822 L 510.22684 659.2202 L 511.63106 659.9013 L 513.14113 660.29534 L 514.69919 660.38723 L 516.24514 660.17339 L 517.71967 659.66207 L 519.06613 658.8729 L 520.23274 657.83622 L 521.17472 656.59183 L 521.85582 655.18761 L 522.24986 653.67754 L 522.34175 652.11948 L 522.12791 650.57353 L 521.61659 649.099 L 520.82744 647.75257 L 519.79071 646.58591 L 518.54635 645.64395 L 517.14213 644.96285 L 515.63206 644.56881 L 514.074 644.47692 Z M 632.00268 596.32195 L 630.52815 596.83327 L 629.18169 597.62244 L 628.01508 598.65912 L 627.0731 599.90351 L 626.392 601.30773 L 625.99796 602.8178 L 625.90607 604.37586 L 626.11991 605.92181 L 626.63123 607.39634 L 627.4204 608.7428 L 628.45708 609.90941 L 629.70147 610.85139 L 631.10569 611.53249 L 632.61576 611.92653 L 634.17382 612.01842 L 635.71977 611.80458 L 637.1943 611.29326 L 638.54073 610.50411 L 639.70739 609.46738 L 640.64935 608.22302 L 641.33045 606.8188 L 641.72449 605.30873 L 641.81638 603.75067 L 641.60254 602.20472 L 641.09122 600.73019 L 640.30207 599.38376 L 639.26534 598.2171 L 638.02098 597.27514 L 636.61676 596.59404 L 635.10669 596.2 L 633.54863 596.10811 Z M 277.0778 566.61796 L 275.56773 567.012 L 274.16351 567.6931 L 272.91915 568.63506 L 271.88242 569.80172 L 271.09327 571.14815 L 270.58195 572.62268 L 270.36811 574.16863 L 270.46 575.72669 L 270.85404 577.23676 L 271.53514 578.64098 L 272.47712 579.88537 L 273.64373 580.92205 L 274.99019 581.71122 L 276.46472 582.22254 L 278.01067 582.43638 L 279.56873 582.34449 L 281.0788 581.95045 L 282.48302 581.26935 L 283.72741 580.32737 L 284.76406 579.1608 L 285.55324 577.81431 L 286.06459 576.33971 L 286.27842 574.79382 L 286.18653 573.23576 L 285.79249 571.72569 L 285.11139 570.32147 L 284.16943 569.07711 L 283.0028 568.04041 L 281.65635 567.25125 L 280.18175 566.7399 L 278.63586 566.52607 Z M 660.53409 444.10454 L 659.00964 444.43901 L 657.57978 445.06445 L 656.29941 445.95682 L 655.21771 447.08185 L 654.37629 448.39629 L 653.80745 449.84965 L 653.53309 451.386 L 653.56374 452.94639 L 653.89821 454.47083 L 654.52365 455.9007 L 655.41602 457.18107 L 656.54107 458.26279 L 657.85549 459.10421 L 659.30885 459.67304 L 660.84517 459.94739 L 662.40559 459.91675 L 663.93004 459.58228 L 665.3599 458.95684 L 666.64027 458.06447 L 667.722 456.93941 L 668.56339 455.62503 L 669.13222 454.17166 L 669.40659 452.63527 L 669.37595 451.07489 L 669.04148 449.55044 L 668.41604 448.12058 L 667.52368 446.84022 L 666.39864 445.75852 L 665.08419 444.91708 L 663.63083 444.34825 L 662.09451 444.0739 Z M 209.12383 427.57774 L 207.67046 428.14658 L 206.35602 428.988 L 205.23099 430.0697 L 204.33862 431.35007 L 203.71318 432.77993 L 203.37871 434.30438 L 203.34807 435.8648 L 203.62242 437.40112 L 204.19126 438.85449 L 205.03267 440.16892 L 206.1144 441.29397 L 207.39475 442.18633 L 208.82461 442.81176 L 210.34907 443.14624 L 211.90948 443.17688 L 213.4458 442.90253 L 214.89919 442.33368 L 216.21358 441.49229 L 217.33864 440.41056 L 218.231 439.1302 L 218.85645 437.70032 L 219.19092 436.17588 L 219.22156 434.61547 L 218.94721 433.07915 L 218.37837 431.62578 L 217.53696 430.31135 L 216.45525 429.18631 L 215.17488 428.29395 L 213.745 427.6685 L 212.22056 427.33403 L 210.66015 427.30339 Z M 277.35033 318.22114 L 275.89696 318.78997 L 274.58258 319.63136 L 273.45752 320.71309 L 272.56515 321.99346 L 271.93971 323.42332 L 271.60524 324.94777 L 271.5746 326.50819 L 271.84895 328.04451 L 272.41778 329.49787 L 273.2592 330.81229 L 274.34092 331.93734 L 275.62128 332.8297 L 277.05116 333.45515 L 278.5756 333.78962 L 280.13599 333.82027 L 281.67234 333.54591 L 283.1257 332.97707 L 284.44014 332.13565 L 285.56517 331.05395 L 286.45754 329.77358 L 287.08298 328.34372 L 287.41745 326.81927 L 287.44809 325.25885 L 287.17374 323.72253 L 286.60491 322.26917 L 285.76348 320.95473 L 284.68175 319.82967 L 283.40141 318.93732 L 281.97155 318.31189 L 280.44709 317.97741 L 278.88672 317.94677 Z M 651.45231 315.53063 L 649.92786 315.8651 L 648.498 316.49054 L 647.21763 317.38291 L 646.1359 318.50797 L 645.29451 319.82235 L 644.72568 321.27572 L 644.45131 322.81211 L 644.48195 324.37248 L 644.81642 325.89692 L 645.44187 327.3268 L 646.33423 328.60716 L 647.45927 329.68887 L 648.77371 330.5303 L 650.22707 331.09913 L 651.76339 331.37348 L 653.32381 331.34284 L 654.84826 331.00837 L 656.27812 330.38293 L 657.55849 329.49056 L 658.64019 328.36553 L 659.48161 327.05109 L 660.05045 325.59773 L 660.32481 324.06138 L 660.29416 322.50099 L 659.95968 320.97652 L 659.33426 319.54668 L 658.44189 318.26631 L 657.31684 317.1846 L 656.00241 316.34317 L 654.54905 315.77434 L 653.01273 315.49999 Z M 514.75575 242.38422 L 513.26233 242.83724 L 511.88589 243.57297 L 510.67947 244.56305 L 509.68939 245.76947 L 508.95366 247.14591 L 508.50064 248.63933 L 508.34766 250.19254 L 508.50064 251.74574 L 508.95366 253.23916 L 509.68939 254.6156 L 510.67947 255.82202 L 511.88589 256.8121 L 513.26233 257.54783 L 514.75575 258.00085 L 516.30895 258.15383 L 517.86216 258.00085 L 519.35558 257.54783 L 520.73202 256.8121 L 521.93844 255.82202 L 522.92852 254.6156 L 523.66425 253.23916 L 524.11727 251.74574 L 524.27024 250.19254 L 524.11727 248.63933 L 523.66425 247.14591 L 522.92852 245.76947 L 521.93844 244.56305 L 520.73202 243.57297 L 519.35558 242.83724 L 517.86216 242.38422 L 516.30895 242.23125 Z M 389.66827 211.28999 L 388.17485 211.74301 L 386.79841 212.47874 L 385.59199 213.46882 L 384.60191 214.67524 L 383.86618 216.05168 L 383.41316 217.5451 L 383.26018 219.0983 L 383.41316 220.65151 L 383.86619 222.14494 L 384.60189 223.52134 L 385.59199 224.72778 L 386.79841 225.71786 L 388.17483 226.45357 L 389.66833 226.90662 L 391.22147 227.05959 L 392.77463 226.90662 L 394.26812 226.45357 L 395.64454 225.71786 L 396.85096 224.72778 L 397.84106 223.52134 L 398.57676 222.14494 L 399.02979 220.65151 L 399.18276 219.0983 L 399.02979 217.5451 L 398.57677 216.05168 L 397.84104 214.67524 L 396.85096 213.46882 L 395.64454 212.47874 L 394.2681 211.74301 L 392.77468 211.28999 L 391.22147 211.13701 Z" stroke-miterlimit="10"/></g></svg>