<svg version="1.1" xmlns="http://www.w3.org/2000/svg" xmlns:xlink="http://www.w3.org/1999/xlink" width="900" height="900"><defs/><g><path fill="#222222" stroke="#cccccc" paint-order="fill stroke markers" d=" M 402.98699 282.24957 L 405.89115 282.99134 L 408.63195 284.20476 L 411.13339 285.85618 L 413.3261 287.8998 L 415.14929 290.27894 L 416.5524 292.92766 L 417.49652 295.77248 L 417.95546 298.73453 L 417.91651 301.73167 L 417.38074 304.68079 L 416.36301 307.50012 L 414.89155 310.11147 L 413.00714 312.44244 L 410.76206 314.42838 L 408.21854 316.01423 L 405.44713 317.15601 L 402.52468 317.82206 L 400 318 L 368 318 L 368 382 L 482 382 L 482 318 L 468 318 L 468 350 L 467.75043 352.98699 L 467.00866 355.89115 L 465.79524 358.63195 L 464.14382 361.13339 L 462.1002 363.3261 L 459.72106 365.14929 L 457.07234 366.5524 L 454.22752 367.49652 L 450 368 L 400 368 L 397.01301 367.75043 L 394.10885 367.00866 L 391.36805 365.79524 L 388.86661 364.14382 L 386.6739 362.1002 L 384.85071 359.72106 L 383.4476 357.07234 L 382.50348 354.22752 L 382.04454 351.26547 L 382.08349 348.26833 L 382.61926 345.31921 L 383.63699 342.49988 L 385.10845 339.88853 L 386.99286 337.55756 L 389.23794 335.57162 L 391.78146 333.98577 L 394.55287 332.84399 L 397.47532 332.17794 L 400 332 L 432 332 L 432 300 L 432.24957 297.01301 L 432.99134 294.10885 L 434.20476 291.36805 L 435.85618 288.86661 L 437.8998 286.6739 L 440.27894 284.85071 L 442.92766 283.4476 L 445.77248 282.50348 L 450 282 L 550 282 L 552.98699 282.24957 L 555.89115 282.99134 L 558.63195 284.20476 L 561.13339 285.85618 L 563.3261 287.8998 L 565.14929 290.27894 L 566.5524 292.92766 L 567.49652 295.77248 L 567.95546 298.73453 L 567.91651 301.73167 L 567.38074 304.68079 L 566.36301 307.50012 L 564.89155 310.11147 L 563.00714 312.44244 L 560.76206 314.42838 L 558.21854 316.01423 L 555.44713 317.15601 L 552.52468 317.82206 L 550 318 L 518 318 L 518 332 L 582 332 L 582 300 L 582.24957 297.01301 L 582.99134 294.10885 L 584.20476 291.36805 L 585.85618 288.86661 L 587.8998 286.6739 L 590.27894 284.85071 L 592.92766 283.4476 L 595.77248 282.50348 L 598.73453 282.04454 L 601.73167 282.08349 L 604.68079 282.61926 L 607.50012 283.63699 L 610.11147 285.10845 L 612.44244 286.99286 L 614.42838 289.23794 L 616.01423 291.78146 L 617.15601 294.55287 L 617.82206 297.47532 L 618 300 L 618 350 L 617.75043 352.98699 L 617.00866 355.89115 L 615.79524 358.63195 L 614.14382 361.13339 L 612.1002 363.3261 L 609.72106 365.14929 L 607.07234 366.5524 L 604.22752 367.49652 L 600 368 L 518 368 L 518 400 L 517.92778 400.86435 L 517.91651 401.73167 L 517.8032 402.35535 L 517.75043 402.98699 L 517.53578 403.82739 L 517.38074 404.68079 L 517.16554 405.27695 L 517.00866 405.89115 L 516.65748 406.68437 L 516.36301 407.50012 L 516.05187 408.05229 L 515.79524 408.63195 L 515.31734 409.35584 L 514.89155 410.11147 L 514.49305 410.60441 L 514.14382 411.13339 L 513.55246 411.76789 L 513.00714 412.44244 L 512.53233 412.86245 L 512.1002 413.3261 L 511.4118 413.85364 L 510.76206 414.42838 L 510.22416 414.76376 L 509.72106 415.14929 L 508.95459 415.55531 L 508.21854 416.01423 L 507.63246 416.25568 L 507.07234 416.5524 L 506.24908 416.82562 L 505.44713 417.15601 L 504.82917 417.29685 L 504.22752 417.49652 L 503.37028 417.62934 L 502.52468 417.82206 L 501.79413 417.87355 L 501.26547 417.95546 L 500.73058 417.94851 L 500 418 L 468 418 L 468 432 L 532 432 L 532 400 L 532.24957 397.01301 L 532.99134 394.10885 L 534.20476 391.36805 L 535.85618 388.86661 L 537.8998 386.6739 L 540.27894 384.85071 L 542.92766 383.4476 L 545.77248 382.50348 L 548.73453 382.04454 L 551.73167 382.08349 L 554.68079 382.61926 L 557.50012 383.63699 L 560.11147 385.10845 L 562.44244 386.99286 L 564.42838 389.23794 L 566.01423 391.78146 L 567.15601 394.55287 L 567.82206 397.47532 L 568 400 L 568 432 L 582 432 L 582 400 L 582.24957 397.01301 L 582.99134 394.10885 L 584.20476 391.36805 L 585.85618 388.86661 L 587.8998 386.6739 L 590.27894 384.85071 L 592.92766 383.4476 L 595.77248 382.50348 L 598.73453 382.04454 L 601.73167 382.08349 L 604.68079 382.61926 L 607.50012 383.63699 L 610.11147 385.10845 L 612.44244 386.99286 L 614.42838 389.23794 L 616.01423 391.78146 L 617.15601 394.55287 L 617.82206 397.47532 L 618 400 L 618 600 L 617.75043 602.98699 L 617.00866 605.89115 L 615.79524 608.63195 L 614.14382 611.13339 L 612.1002 613.3261 L 609.72106 615.14929 L 607.07234 616.5524 L 604.22752 617.49652 L 601.26547 617.95546 L 598.26833 617.91651 L 595.31921 617.38074 L 592.49988 616.36301 L 589.88853 614.89155 L 587.55756 613.00714 L 585.57162 610.76206 L 583.98577 608.21854 L 582.84399 605.44713 L 582.17794 602.52468 L 582 600 L 582 518 L 550 518 L 547.01301 517.75043 L 544.10885 517.00866 L 541.36805 515.79524 L 538.86661 514.14382 L 536.6739 512.1002 L 534.85071 509.72106 L 533.4476 507.07234 L 532.50348 504.22752 L 532.04454 501.26547 L 532.08349 498.26833 L 532.61926 495.31921 L 533.63699 492.49988 L 535.10845 489.88853 L 536.99286 487.55756 L 539.23794 485.57162 L 541.78146 483.98577 L 544.55287 482.84399 L 547.47532 482.17794 L 550 482 L 582 482 L 582 468 L 518 468 L 518 532 L 550 532 L 552.98699 532.24957 L 555.89115 532.99134 L 558.63195 534.20476 L 561.13339 535.85618 L 563.3261 537.8998 L 565.14929 540.27894 L 566.5524 542.92766 L 567.49652 545.77248 L 567.95546 548.73453 L 567.91651 551.73167 L 567.38074 554.68079 L 566.36301 557.50012 L 564.89155 560.11147 L 563.00714 562.44244 L 560.76206 564.42838 L 558.21854 566.01423 L 555.44713 567.15601 L 552.52468 567.82206 L 550 568 L 518 568 L 518 582 L 550 582 L 552.98699 582.24957 L 555.89115 582.99134 L 558.63195 584.20476 L 561.13339 585.85618 L 563.3261 587.8998 L 565.14929 590.27894 L 566.5524 592.92766 L 567.49652 595.77248 L 567.95546 598.73453 L 567.91651 601.73167 L 567.38074 604.68079 L 566.36301 607.50012 L 564.89155 610.11147 L 563.00714 612.44244 L 560.76206 614.42838 L 558.21854 616.01423 L 555.44713 617.15601 L 552.52468 617.82206 L 550 618 L 500 618 L 497.01301 617.75043 L 494.10885 617.00866 L 491.36805 615.79524 L 488.86661 614.14382 L 486.6739 612.1002 L 484.85071 609.72106 L 483.4476 607.07234 L 482.50348 604.22752 L 482 600 L 482 518 L 450 518 L 447.01301 517.75043 L 444.10885 517.00866 L 441.36805 515.79524 L 438.86661 514.14382 L 436.6739 512.1002 L 434.85071 509.72106 L 433.4476 507.07234 L 432.50348 504.22752 L 432.04454 501.26547 L 432.08349 498.26833 L 432.61926 495.31921 L 433.63699 492.49988 L 435.10845 489.88853 L 436.99286 487.55756 L 439.23794 485.57162 L 441.78146 483.98577 L 444.55287 482.84399 L 447.47532 482.17794 L 450 482 L 482 482 L 482 468 L 450 468 L 449.13565 467.92778 L 448.26833 467.91651 L 447.64465 467.8032 L 447.01301 467.75043 L 446.17261 467.53578 L 445.31921 467.38074 L 444.72305 467.16554 L 444.10885 467.00866 L 443.31563 466.65748 L 442.49988 466.36301 L 441.94771 466.05187 L 441.36805 465.79524 L 440.64416 465.31734 L 439.88853 464.89155 L 439.39559 464.49305 L 438.86661 464.14382 L 438.23211 463.55246 L 437.55756 463.00714 L 437.13755 462.53233 L 436.6739 462.1002 L 436.14636 461.4118 L 435.57162 460.76206 L 435.23624 460.22416 L 434.85071 459.72106 L 434.44469 458.95459 L 433.98577 458.21854 L 433.74432 457.63246 L 433.4476 457.07234 L 433.17438 456.24908 L 432.84399 455.44713 L 432.70315 454.82917 L 432.50348 454.22752 L 432.37066 453.37028 L 432.17794 452.52468 L 432.12645 451.79413 L 432.04454 451.26547 L 432.05149 450.73058 L 432 450 L 432 418 L 418 418 L 418 532 L 450 532 L 450.86435 532.07222 L 451.73167 532.08349 L 452.35535 532.1968 L 452.98699 532.24957 L 453.82739 532.46422 L 454.68079 532.61926 L 455.27695 532.83446 L 455.89115 532.99134 L 456.68437 533.34252 L 457.50012 533.63699 L 458.05229 533.94813 L 458.63195 534.20476 L 459.35584 534.68266 L 460.11147 535.10845 L 460.60441 535.50695 L 461.13339 535.85618 L 461.76789 536.44754 L 462.44244 536.99286 L 462.86245 537.46767 L 463.3261 537.8998 L 463.85364 538.5882 L 464.42838 539.23794 L 464.76376 539.77584 L 465.14929 540.27894 L 465.55531 541.04541 L 466.01423 541.78146 L 466.25568 542.36754 L 466.5524 542.92766 L 466.82562 543.75092 L 467.15601 544.55287 L 467.29685 545.17083 L 467.49652 545.77248 L 467.62934 546.62972 L 467.82206 547.47532 L 467.87355 548.20587 L 467.95546 548.73453 L 467.94851 549.26942 L 468 550 L 468 600 L 467.92778 600.86435 L 467.91651 601.73167 L 467.8032 602.35535 L 467.75043 602.98699 L 467.53578 603.82739 L 467.38074 604.68079 L 467.16554 605.27695 L 467.00866 605.89115 L 466.65748 606.68437 L 466.36301 607.50012 L 466.05187 608.05229 L 465.79524 608.63195 L 465.31734 609.35584 L 464.89155 610.11147 L 464.49305 610.60441 L 464.14382 611.13339 L 463.55246 611.76789 L 463.00714 612.44244 L 462.53233 612.86245 L 462.1002 613.3261 L 461.4118 613.85364 L 460.76206 614.42838 L 460.22416 614.76376 L 459.72106 615.14929 L 458.95459 615.55531 L 458.21854 616.01423 L 457.63246 616.25568 L 457.07234 616.5524 L 456.24908 616.82562 L 455.44713 617.15601 L 454.82917 617.29685 L 454.22752 617.49652 L 453.37028 617.62934 L 452.52468 617.82206 L 451.79413 617.87355 L 451.26547 617.95546 L 450.73058 617.94851 L 450 618 L 400 618 L 397.01301 617.75043 L 394.10885 617.00866 L 391.36805 615.79524 L 388.86661 614.14382 L 386.6739 612.1002 L 384.85071 609.72106 L 383.4476 607.07234 L 382.50348 604.22752 L 382.04454 601.26547 L 382.08349 598.26833 L 382.61926 595.31921 L 383.63699 592.49988 L 385.10845 589.88853 L 386.99286 587.55756 L 389.23794 585.57162 L 391.78146 583.98577 L 394.55287 582.84399 L 397.47532 582.17794 L 400 582 L 432 582 L 432 568 L 368 568 L 368 600 L 367.75043 602.98699 L 367.00866 605.89115 L 365.79524 608.63195 L 364.14382 611.13339 L 362.1002 613.3261 L 359.72106 615.14929 L 357.07234 616.5524 L 354.22752 617.49652 L 351.26547 617.95546 L 348.26833 617.91651 L 345.31921 617.38074 L 342.49988 616.36301 L 339.88853 614.89155 L 337.55756 613.00714 L 335.57162 610.76206 L 333.98577 608.21854 L 332.84399 605.44713 L 332.17794 602.52468 L 332 600 L 332 568 L 318 568 L 318 600 L 317.75043 602.98699 L 317.00866 605.89115 L 315.79524 608.63195 L 314.14382 611.13339 L 312.1002 613.3261 L 309.72106 615.14929 L 307.07234 616.5524 L 304.22752 617.49652 L 301.26547 617.95546 L 298.26833 617.91651 L 295.31921 617.38074 L 292.49988 616.36301 L 289.88853 614.89155 L 287.55756 613.00714 L 285.57162 610.76206 L 283.98577 608.21854 L 282.84399 605.44713 L 282.17794 602.52468 L 282 600 L 282 550 L 282.24957 547.01301 L 282.99134 544.10885 L 284.20476 541.36805 L 285.85618 538.86661 L 287.8998 536.6739 L 290.27894 534.85071 L 292.92766 533.4476 L 295.77248 532.50348 L 300 532 L 382 532 L 382 518 L 350 518 L 347.01301 517.75043 L 344.10885 517.00866 L 341.36805 515.79524 L 338.86661 514.14382 L 336.6739 512.1002 L 334.85071 509.72106 L 333.4476 507.07234 L 332.50348 504.22752 L 332.04454 501.26547 L 332.08349 498.26833 L 332.61926 495.31921 L 333.63699 492.49988 L 335.10845 489.88853 L 336.99286 487.55756 L 339.23794 485.57162 L 341.78146 483.98577 L 344.55287 482.84399 L 347.47532 482.17794 L 350 482 L 382 482 L 382 468 L 318 468 L 318 500 L 317.75043 502.98699 L 317.00866 505.89115 L 315.79524 508.63195 L 314.14382 511.13339 L 312.1002 513.3261 L 309.72106 515.14929 L 307.07234 516.5524 L 304.22752 517.49652 L 301.26547 517.95546 L 298.26833 517.91651 L 295.31921 517.38074 L 292.49988 516.36301 L 289.88853 514.89155 L 287.55756 513.00714 L 285.57162 510.76206 L 283.98577 508.21854 L 282.84399 505.44713 L 282.17794 502.52468 L 282 500 L 282 450 L 282.24957 447.01301 L 282.99134 444.10885 L 284.20476 441.36805 L 285.85618 438.86661 L 287.8998 436.6739 L 290.27894 434.85071 L 292.92766 433.4476 L 295.77248 432.50348 L 300 432 L 382 432 L 382 418 L 350 418 L 347.01301 417.75043 L 344.10885 417.00866 L 341.36805 415.79524 L 338.86661 414.14382 L 336.6739 412.1002 L 334.85071 409.72106 L 333.4476 407.07234 L 332.50348 404.22752 L 332 400 L 332 368 L 318 368 L 318 400 L 317.75043 402.98699 L 317.00866 405.89115 L 315.79524 408.63195 L 314.14382 411.13339 L 312.1002 413.3261 L 309.72106 415.14929 L 307.07234 416.5524 L 304.22752 417.49652 L 301.26547 417.95546 L 298.26833 417.91651 L 295.31921 417.38074 L 292.49988 416.36301 L 289.88853 414.89155 L 287.55756 413.00714 L 285.57162 410.76206 L 283.98577 408.21854 L 282.84399 405.44713 L 282.17794 402.52468 L 282 400 L 282 350 L 282.24957 347.01301 L 282.99134 344.10885 L 284.20476 341.36805 L 285.85618 338.86661 L 287.8998 336.6739 L 290.27894 334.85071 L 292.92766 333.4476 L 295.77248 332.50348 L 300 332 L 332 332 L 332 318 L 300 318 L 297.01301 317.75043 L 294.10885 317.00866 L 291.36805 315.79524 L 288.86661 314.14382 L 286.6739 312.1002 L 284.85071 309.72106 L 283.4476 307.07234 L 282.50348 304.22752 L 282.04454 301.26547 L 282.08349 298.26833 L 282.61926 295.31921 L 283.63699 292.49988 L 285.10845 289.88853 L 286.99286 287.55756 L 289.23794 285.57162 L 291.78146 283.98577 L 294.55287 282.84399 L 297.47532 282.17794 L 300 282 L 400 282 Z" stroke-miterlimit="10"/></g></svg>