<svg version="1.1" xmlns="http://www.w3.org/2000/svg" xmlns:xlink="http://www.w3.org/1999/xlink" width="768" height="768"><defs/><g><rect fill="#000000" stroke="none" x="0" y="0" width="768" height="768"/><path fill="#fb6b41" stroke="rgb(0,0,0)" paint-order="fill stroke markers" d=" M 170.65384999999998 364.866 L 170.15385 364 L 173.15384999999998 358.8038 L 174.15384999999998 358.8038 L 174.15384999999998 349.1962 L 173.15384999999998 349.1962 L 170.15385 344 L 173.15384999999998 338.8038 L 179.15384999999998 338.8038 L 179.65384999999998 339.6698 L 187.97445 334.866 L 187.47445 334 L 190.47445 328.8038 L 196.47445 328.8038 L 199.47445 334 L 198.97445 334.866 L 207.29494999999997 339.6698 L 207.79494999999997 338.8038 L 213.79494999999997 338.8038 L 214.29494999999997 339.6698 L 222.61545 334.866 L 222.11545 334 L 225.11545 328.8038 L 226.11545 328.8038 L 226.11545 319.1962 L 225.11545 319.1962 L 222.11545 314 L 222.61545 313.134 L 214.29494999999997 308.3302 L 213.79494999999997 309.1962 L 207.79494999999997 309.1962 L 207.29494999999997 308.3302 L 198.97445 313.134 L 199.47445 314 L 196.47445 319.1962 L 190.47445 319.1962 L 187.47445 314 L 187.97445 313.134 L 179.65384999999998 308.3302 L 179.15384999999998 309.1962 L 173.15384999999998 309.1962 L 170.15385 304 L 173.15384999999998 298.8038 L 174.15384999999998 298.8038 L 174.15384999999998 289.1962 L 173.15384999999998 289.1962 L 170.15385 284 L 173.15384999999998 278.8038 L 179.15384999999998 278.8038 L 179.65384999999998 279.6698 L 187.97445 274.866 L 187.47445 274 L 190.47445 268.8038 L 191.47445 268.8038 L 191.47445 259.1962 L 190.47445 259.1962 L 187.47445 254 L 190.47445 248.8038 L 196.47445 248.8038 L 196.97445 249.6698 L 205.29494999999997 244.86599999999999 L 204.79494999999997 244 L 207.79494999999997 238.8038 L 213.79494999999997 238.8038 L 216.79494999999997 244 L 216.29494999999997 244.86599999999999 L 224.61545 249.6698 L 225.11545 248.8038 L 231.11545 248.8038 L 231.61545 249.6698 L 239.93595 244.86599999999999 L 239.43595 244 L 242.43595 238.8038 L 243.43595 238.8038 L 243.43595 229.1962 L 242.43595 229.1962 L 239.43595 224 L 242.43595 218.8038 L 248.43595 218.8038 L 248.93595 219.6698 L 257.25645 214.86599999999999 L 256.75645 214 L 259.75645 208.8038 L 260.75645 208.8038 L 260.75645 199.1962 L 259.75645 199.1962 L 256.75645 194 L 259.75645 188.8038 L 265.75645 188.8038 L 266.25645 189.6698 L 274.57695 184.86599999999999 L 274.07695 184 L 277.07695 178.8038 L 278.07695 178.8038 L 278.07695 169.1962 L 277.07695 169.1962 L 274.07695 164 L 274.57695 163.134 L 266.25645 158.3302 L 265.75645 159.1962 L 259.75645 159.1962 L 259.25645 158.3302 L 250.93595 163.134 L 251.43595 164 L 248.43595 169.1962 L 247.43595 169.1962 L 247.43595 178.8038 L 248.43595 178.8038 L 251.43595 184 L 248.43595 189.1962 L 242.43595 189.1962 L 241.93595 188.3302 L 233.61545 193.13400000000001 L 234.11545 194 L 231.11545 199.1962 L 230.11545 199.1962 L 230.11545 208.8038 L 231.11545 208.8038 L 234.11545 214 L 231.11545 219.1962 L 225.11545 219.1962 L 224.61545 218.3302 L 217.79514999999998 222.2679 L 216.29494999999997 223.13400000000001 L 216.79494999999997 224 L 213.79494999999997 229.1962 L 207.79494999999997 229.1962 L 204.79494999999997 224 L 205.29494999999997 223.13400000000001 L 196.97445 218.3302 L 196.47445 219.1962 L 190.47445 219.1962 L 189.97445 218.3302 L 181.65384999999998 223.13400000000001 L 182.15384999999998 224 L 179.15384999999998 229.1962 L 173.15384999999998 229.1962 L 170.15385 224 L 170.65384999999998 223.13400000000001 L 162.33335 218.3302 L 161.83335 219.1962 L 155.83335 219.1962 L 152.83335 214 L 155.83335 208.8038 L 156.83335 208.8038 L 156.83335 199.1962 L 155.83335 199.1962 L 152.83335 194 L 153.33335 193.13400000000001 L 145.01285 188.3302 L 144.51285 189.1962 L 138.51285 189.1962 L 135.51285 184 L 138.51285 178.8038 L 139.51285 178.8038 L 139.51285 169.1962 L 138.51285 169.1962 L 135.51285 164 L 138.51285 158.8038 L 144.51285 158.8038 L 145.01285 159.6698 L 153.33335 154.866 L 152.83335 154 L 155.83335 148.8038 L 161.83335 148.8038 L 164.83335 154 L 164.33335 154.866 L 172.65384999999998 159.6698 L 173.15384999999998 158.8038 L 179.15384999999998 158.8038 L 179.65384999999998 159.6698 L 187.97445 154.866 L 187.47445 154 L 190.47445 148.8038 L 191.47445 148.8038 L 191.47445 139.1962 L 190.47445 139.1962 L 187.47445 134 L 190.47445 128.8038 L 196.47445 128.8038 L 196.97445 129.6698 L 205.29494999999997 124.86600000000001 L 204.79494999999997 124 L 207.79494999999997 118.8038 L 208.79494999999997 118.8038 L 208.79494999999997 109.1962 L 207.79494999999997 109.1962 L 204.79494999999997 104 L 207.79494999999997 98.8038 L 213.79494999999997 98.8038 L 214.29494999999997 99.66980000000001 L 222.61545 94.86600000000001 L 222.11545 94 L 225.11545 88.8038 L 231.11545 88.8038 L 234.11545 94 L 233.61545 94.86600000000001 L 241.93595 99.66980000000001 L 242.43595 98.8038 L 248.43595 98.8038 L 251.43595 104 L 248.43595 109.1962 L 247.43595 109.1962 L 247.43595 118.8038 L 248.43595 118.8038 L 251.43595 124 L 250.93595 124.86600000000001 L 259.25645 129.6698 L 259.75645 128.8038 L 265.75645 128.8038 L 266.25645 129.6698 L 274.57695 124.86600000000001 L 274.07695 124 L 277.07695 118.8038 L 283.07695 118.8038 L 286.07695 124 L 285.57695 124.86600000000001 L 293.89745 129.6698 L 294.39745 128.8038 L 300.39745 128.8038 L 303.39745 134 L 300.39745 139.1962 L 299.39745 139.1962 L 299.39745 148.8038 L 300.39745 148.8038 L 303.39745 154 L 300.39745 159.1962 L 294.39745 159.1962 L 293.89745 158.3302 L 285.57695 163.134 L 286.07695 164 L 283.07695 169.1962 L 282.07695 169.1962 L 282.07695 178.8038 L 283.07695 178.8038 L 286.07695 184 L 285.57695 184.86599999999999 L 293.89745 189.6698 L 294.39745 188.8038 L 300.39745 188.8038 L 300.89745 189.6698 L 309.21795 184.86599999999999 L 308.71795 184 L 311.71795 178.8038 L 317.71795 178.8038 L 320.71795 184 L 320.21795 184.86599999999999 L 328.53845 189.6698 L 329.03845 188.8038 L 335.03845 188.8038 L 338.03845 194 L 335.03845 199.1962 L 334.03845 199.1962 L 334.03845 208.8038 L 335.03845 208.8038 L 338.03845 214 L 337.53845 214.86599999999999 L 345.85895 219.6698 L 346.35895 218.8038 L 352.35895 218.8038 L 352.85895 219.6698 L 361.17945 214.86599999999999 L 360.67945 214 L 363.67945 208.8038 L 364.67945 208.8038 L 364.67945 199.1962 L 363.67945 199.1962 L 360.67945 194 L 361.17945 193.13400000000001 L 352.85895 188.3302 L 352.35895 189.1962 L 346.35895 189.1962 L 343.35895 184 L 346.35895 178.8038 L 347.35895 178.8038 L 347.35895 169.1962 L 346.35895 169.1962 L 343.35895 164 L 346.35895 158.8038 L 352.35895 158.8038 L 352.85895 159.6698 L 361.17945 154.866 L 360.67945 154 L 363.67945 148.8038 L 369.67945 148.8038 L 372.67945 154 L 372.17945 154.866 L 380.49995 159.6698 L 380.99995 158.8038 L 386.99995 158.8038 L 387.49995 159.6698 L 395.82045 154.866 L 395.32045 154 L 398.32045 148.8038 L 404.32045 148.8038 L 407.32045 154 L 406.82045 154.866 L 415.14105 159.6698 L 415.64105 158.8038 L 421.64105 158.8038 L 424.64105 164 L 421.64105 169.1962 L 420.64105 169.1962 L 420.64105 178.8038 L 421.64105 178.8038 L 424.64105 184 L 424.14105 184.86599999999999 L 432.46155000000005 189.6698 L 432.96155000000005 188.8038 L 438.96155000000005 188.8038 L 439.46155000000005 189.6698 L 447.78204999999997 184.86599999999999 L 447.28204999999997 184 L 450.28204999999997 178.8038 L 456.28204999999997 178.8038 L 459.28204999999997 184 L 458.78204999999997 184.86599999999999 L 467.10255 189.6698 L 467.60255 188.8038 L 473.60255 188.8038 L 474.10255 189.6698 L 482.42305000000005 184.86599999999999 L 481.92305000000005 184 L 484.92305000000005 178.8038 L 490.92305000000005 178.8038 L 493.92305000000005 184 L 493.42305000000005 184.86599999999999 L 501.74354999999997 189.6698 L 502.24354999999997 188.8038 L 508.24354999999997 188.8038 L 508.74354999999997 189.6698 L 517.06405 184.86599999999999 L 516.56405 184 L 519.56405 178.8038 L 520.56405 178.8038 L 520.56405 169.1962 L 519.56405 169.1962 L 516.56405 164 L 517.06405 163.134 L 508.74354999999997 158.3302 L 508.24354999999997 159.1962 L 502.24354999999997 159.1962 L 501.74354999999997 158.3302 L 493.42305000000005 163.134 L 493.92305000000005 164 L 490.92305000000005 169.1962 L 484.92305000000005 169.1962 L 481.92305000000005 164 L 482.42305000000005 163.134 L 474.10255 158.3302 L 473.60255 159.1962 L 467.60255 159.1962 L 467.10255 158.3302 L 460.28225000000003 162.2679 L 458.78204999999997 163.134 L 459.28204999999997 164 L 456.28204999999997 169.1962 L 450.28204999999997 169.1962 L 447.28204999999997 164 L 447.78204999999997 163.134 L 439.46155000000005 158.3302 L 438.96155000000005 159.1962 L 432.96155000000005 159.1962 L 429.96155000000005 154 L 432.96155000000005 148.8038 L 433.96155000000005 148.8038 L 433.96155000000005 139.1962 L 432.96155000000005 139.1962 L 429.96155000000005 134 L 430.46155000000005 133.134 L 422.14105 128.3302 L 421.64105 129.1962 L 415.64105 129.1962 L 412.64105 124 L 415.64105 118.8038 L 416.64105 118.8038 L 416.64105 109.1962 L 415.64105 109.1962 L 412.64105 104 L 415.64105 98.8038 L 421.64105 98.8038 L 422.14105 99.66980000000001 L 430.46155000000005 94.86600000000001 L 429.96155000000005 94 L 432.96155000000005 88.8038 L 433.96155000000005 88.8038 L 433.96155000000005 79.1962 L 432.96155000000005 79.1962 L 429.96155000000005 74 L 432.96155000000005 68.8038 L 438.96155000000005 68.8038 L 439.46155000000005 69.66980000000001 L 447.78204999999997 64.86600000000001 L 447.28204999999997 64 L 450.28204999999997 58.803799999999995 L 456.28204999999997 58.803799999999995 L 459.28204999999997 64 L 458.78204999999997 64.86600000000001 L 467.10255 69.66980000000001 L 467.60255 68.8038 L 473.60255 68.8038 L 476.60255 74 L 473.60255 79.1962 L 472.60255 79.1962 L 472.60255 88.8038 L 473.60255 88.8038 L 476.60255 94 L 476.10255 94.86600000000001 L 484.42305000000005 99.66980000000001 L 484.92305000000005 98.8038 L 490.92305000000005 98.8038 L 491.42305000000005 99.66980000000001 L 499.74354999999997 94.86600000000001 L 499.24354999999997 94 L 502.24354999999997 88.8038 L 508.24354999999997 88.8038 L 511.24354999999997 94 L 510.74354999999997 94.86600000000001 L 519.06405 99.66980000000001 L 519.56405 98.8038 L 525.56405 98.8038 L 526.06405 99.66980000000001 L 534.38455 94.86600000000001 L 533.88455 94 L 536.88455 88.8038 L 542.88455 88.8038 L 545.88455 94 L 545.38455 94.86600000000001 L 553.70505 99.66980000000001 L 554.20505 98.8038 L 560.20505 98.8038 L 563.20505 104 L 560.20505 109.1962 L 559.20505 109.1962 L 559.20505 118.8038 L 560.20505 118.8038 L 563.20505 124 L 560.20505 129.1962 L 554.20505 129.1962 L 553.70505 128.3302 L 545.38455 133.134 L 545.88455 134 L 542.88455 139.1962 L 541.88455 139.1962 L 541.88455 148.8038 L 542.88455 148.8038 L 545.88455 154 L 545.38455 154.866 L 553.70505 159.6698 L 554.20505 158.8038 L 560.20505 158.8038 L 563.20505 164 L 560.20505 169.1962 L 559.20505 169.1962 L 559.20505 178.8038 L 560.20505 178.8038 L 563.20505 184 L 560.20505 189.1962 L 554.20505 189.1962 L 553.70505 188.3302 L 545.38455 193.13400000000001 L 545.88455 194 L 542.88455 199.1962 L 536.88455 199.1962 L 533.88455 194 L 534.38455 193.13400000000001 L 526.06405 188.3302 L 525.56405 189.1962 L 519.56405 189.1962 L 519.06405 188.3302 L 512.2437500000001 192.2679 L 510.74354999999997 193.13400000000001 L 511.24354999999997 194 L 508.24354999999997 199.1962 L 507.24354999999997 199.1962 L 507.24354999999997 208.8038 L 508.24354999999997 208.8038 L 511.24354999999997 214 L 510.74354999999997 214.86599999999999 L 519.06405 219.6698 L 519.56405 218.8038 L 525.56405 218.8038 L 528.56405 224 L 525.56405 229.1962 L 524.56405 229.1962 L 524.56405 238.8038 L 525.56405 238.8038 L 528.56405 244 L 525.56405 249.1962 L 519.56405 249.1962 L 519.06405 248.3302 L 510.74354999999997 253.13400000000001 L 511.24354999999997 254 L 508.24354999999997 259.1962 L 507.24354999999997 259.1962 L 507.24354999999997 268.8038 L 508.24354999999997 268.8038 L 511.24354999999997 274 L 510.74354999999997 274.866 L 519.06405 279.6698 L 519.56405 278.8038 L 525.56405 278.8038 L 526.06405 279.6698 L 534.38455 274.866 L 533.88455 274 L 536.88455 268.8038 L 537.88455 268.8038 L 537.88455 259.1962 L 536.88455 259.1962 L 533.88455 254 L 536.88455 248.8038 L 542.88455 248.8038 L 543.38455 249.6698 L 551.70505 244.86599999999999 L 551.20505 244 L 554.20505 238.8038 L 560.20505 238.8038 L 563.20505 244 L 562.70505 244.86599999999999 L 571.0255500000001 249.6698 L 571.5255500000001 248.8038 L 577.5255500000001 248.8038 L 580.5255500000001 254 L 577.5255500000001 259.1962 L 576.5255500000001 259.1962 L 576.5255500000001 268.8038 L 577.5255500000001 268.8038 L 580.5255500000001 274 L 580.0255500000001 274.866 L 588.3460500000001 279.6698 L 588.8460500000001 278.8038 L 594.8460500000001 278.8038 L 597.8460500000001 284 L 594.8460500000001 289.1962 L 593.8460500000001 289.1962 L 593.8460500000001 298.8038 L 594.8460500000001 298.8038 L 597.8460500000001 304 L 594.8460500000001 309.1962 L 588.8460500000001 309.1962 L 588.3460500000001 308.3302 L 580.0255500000001 313.134 L 580.5255500000001 314 L 577.5255500000001 319.1962 L 576.5255500000001 319.1962 L 576.5255500000001 328.8038 L 577.5255500000001 328.8038 L 580.5255500000001 334 L 580.0255500000001 334.866 L 588.3460500000001 339.6698 L 588.8460500000001 338.8038 L 594.8460500000001 338.8038 L 597.8460500000001 344 L 594.8460500000001 349.1962 L 593.8460500000001 349.1962 L 593.8460500000001 358.8038 L 594.8460500000001 358.8038 L 597.8460500000001 364 L 597.3460500000001 364.866 L 605.6665499999999 369.6698 L 606.1665499999999 368.8038 L 612.1665499999999 368.8038 L 615.1665499999999 374 L 612.1665499999999 379.1962 L 611.1665499999999 379.1962 L 611.1665499999999 388.8038 L 612.1665499999999 388.8038 L 615.1665499999999 394 L 614.6665499999999 394.866 L 616.1667500000001 395.7321 L 622.9871499999999 399.6698 L 623.4871499999999 398.8038 L 629.4871499999999 398.8038 L 629.9871499999999 399.6698 L 638.30765 394.866 L 637.80765 394 L 640.80765 388.8038 L 641.80765 388.8038 L 641.80765 379.1962 L 640.80765 379.1962 L 637.80765 374 L 638.30765 373.134 L 629.9871499999999 368.3302 L 629.4871499999999 369.1962 L 623.4871499999999 369.1962 L 620.4871499999999 364 L 623.4871499999999 358.8038 L 624.4871499999999 358.8038 L 624.4871499999999 349.1962 L 623.4871499999999 349.1962 L 620.4871499999999 344 L 620.9871499999999 343.134 L 614.1665499999999 339.1962 L 612.6665499999999 338.3302 L 612.1665499999999 339.1962 L 606.1665499999999 339.1962 L 603.1665499999999 334 L 606.1665499999999 328.8038 L 607.1665499999999 328.8038 L 607.1665499999999 319.1962 L 606.1665499999999 319.1962 L 603.1665499999999 314 L 606.1665499999999 308.8038 L 612.1665499999999 308.8038 L 612.6665499999999 309.6698 L 619.48695 305.7321 L 620.9871499999999 304.866 L 620.4871499999999 304 L 623.4871499999999 298.8038 L 624.4871499999999 298.8038 L 624.4871499999999 289.1962 L 623.4871499999999 289.1962 L 620.4871499999999 284 L 623.4871499999999 278.8038 L 629.4871499999999 278.8038 L 629.9871499999999 279.6698 L 638.30765 274.866 L 637.80765 274 L 640.80765 268.8038 L 646.80765 268.8038 L 649.80765 274 L 649.30765 274.866 L 657.62815 279.6698 L 658.12815 278.8038 L 664.12815 278.8038 L 664.62815 279.6698 L 672.94865 274.866 L 672.44865 274 L 675.44865 268.8038 L 681.44865 268.8038 L 684.44865 274 L 683.94865 274.866 L 692.2691500000001 279.6698 L 692.7691500000001 278.8038 L 698.7691500000001 278.8038 L 701.7691500000001 284 L 698.7691500000001 289.1962 L 697.7691500000001 289.1962 L 697.7691500000001 298.8038 L 698.7691500000001 298.8038 L 701.7691500000001 304 L 698.7691500000001 309.1962 L 692.7691500000001 309.1962 L 692.2691500000001 308.3302 L 683.94865 313.134 L 684.44865 314 L 681.44865 319.1962 L 680.44865 319.1962 L 680.44865 328.8038 L 681.44865 328.8038 L 684.44865 334 L 683.94865 334.866 L 692.2691500000001 339.6698 L 692.7691500000001 338.8038 L 698.7691500000001 338.8038 L 701.7691500000001 344 L 698.7691500000001 349.1962 L 697.7691500000001 349.1962 L 697.7691500000001 358.8038 L 698.7691500000001 358.8038 L 701.7691500000001 364 L 701.2691500000001 364.866 L 709.5896499999999 369.6698 L 710.0896499999999 368.8038 L 716.0896499999999 368.8038 L 719.0896499999999 374 L 716.0896499999999 379.1962 L 715.0896499999999 379.1962 L 715.0896499999999 388.8038 L 716.0896499999999 388.8038 L 719.0896499999999 394 L 716.0896499999999 399.1962 L 710.0896499999999 399.1962 L 709.5896499999999 398.3302 L 701.2691500000001 403.134 L 701.7691500000001 404 L 698.7691500000001 409.1962 L 692.7691500000001 409.1962 L 689.7691500000001 404 L 690.2691500000001 403.134 L 681.94865 398.3302 L 681.44865 399.1962 L 675.44865 399.1962 L 674.94865 398.3302 L 666.62815 403.134 L 667.12815 404 L 664.12815 409.1962 L 663.12815 409.1962 L 663.12815 418.8038 L 664.12815 418.8038 L 667.12815 424 L 664.12815 429.1962 L 658.12815 429.1962 L 657.62815 428.3302 L 649.30765 433.134 L 649.80765 434 L 646.80765 439.1962 L 640.80765 439.1962 L 637.80765 434 L 638.30765 433.134 L 629.9871499999999 428.3302 L 629.4871499999999 429.1962 L 623.4871499999999 429.1962 L 620.4871499999999 424 L 623.4871499999999 418.8038 L 624.4871499999999 418.8038 L 624.4871499999999 409.1962 L 623.4871499999999 409.1962 L 620.4871499999999 404 L 620.9871499999999 403.134 L 614.1665499999999 399.1962 L 612.6665499999999 398.3302 L 612.1665499999999 399.1962 L 606.1665499999999 399.1962 L 605.6665499999999 398.3302 L 597.3460500000001 403.134 L 597.8460500000001 404 L 594.8460500000001 409.1962 L 593.8460500000001 409.1962 L 593.8460500000001 418.8038 L 594.8460500000001 418.8038 L 597.8460500000001 424 L 594.8460500000001 429.1962 L 588.8460500000001 429.1962 L 588.3460500000001 428.3302 L 580.0255500000001 433.134 L 580.5255500000001 434 L 577.5255500000001 439.1962 L 571.5255500000001 439.1962 L 568.5255500000001 434 L 569.0255500000001 433.134 L 560.70505 428.3302 L 560.20505 429.1962 L 554.20505 429.1962 L 553.70505 428.3302 L 545.38455 433.134 L 545.88455 434 L 542.88455 439.1962 L 541.88455 439.1962 L 541.88455 448.8038 L 542.88455 448.8038 L 545.88455 454 L 545.38455 454.866 L 553.70505 459.6698 L 554.20505 458.8038 L 560.20505 458.8038 L 560.70505 459.6698 L 569.0255500000001 454.866 L 568.5255500000001 454 L 571.5255500000001 448.8038 L 577.5255500000001 448.8038 L 580.5255500000001 454 L 580.0255500000001 454.866 L 588.3460500000001 459.6698 L 588.8460500000001 458.8038 L 594.8460500000001 458.8038 L 597.8460500000001 464 L 594.8460500000001 469.1962 L 593.8460500000001 469.1962 L 593.8460500000001 478.8038 L 594.8460500000001 478.8038 L 597.8460500000001 484 L 594.8460500000001 489.1962 L 588.8460500000001 489.1962 L 588.3460500000001 488.3302 L 580.0255500000001 493.134 L 580.5255500000001 494 L 577.5255500000001 499.1962 L 576.5255500000001 499.1962 L 576.5255500000001 508.8038 L 577.5255500000001 508.8038 L 580.5255500000001 514 L 577.5255500000001 519.1962 L 571.5255500000001 519.1962 L 571.0255500000001 518.3302 L 562.70505 523.134 L 563.20505 524 L 560.20505 529.1962 L 554.20505 529.1962 L 551.20505 524 L 551.70505 523.134 L 543.38455 518.3302 L 542.88455 519.1962 L 536.88455 519.1962 L 536.38455 518.3302 L 528.06405 523.134 L 528.56405 524 L 525.56405 529.1962 L 524.56405 529.1962 L 524.56405 538.8038 L 525.56405 538.8038 L 528.56405 544 L 525.56405 549.1962 L 519.56405 549.1962 L 519.06405 548.3302 L 510.74354999999997 553.134 L 511.24354999999997 554 L 508.24354999999997 559.1962 L 507.24354999999997 559.1962 L 507.24354999999997 568.8038 L 508.24354999999997 568.8038 L 511.24354999999997 574 L 508.24354999999997 579.1962 L 502.24354999999997 579.1962 L 501.74354999999997 578.3302 L 493.42305000000005 583.134 L 493.92305000000005 584 L 490.92305000000005 589.1962 L 489.92305000000005 589.1962 L 489.92305000000005 598.8038 L 490.92305000000005 598.8038 L 493.92305000000005 604 L 493.42305000000005 604.866 L 501.74354999999997 609.6698 L 502.24354999999997 608.8038 L 508.24354999999997 608.8038 L 508.74354999999997 609.6698 L 517.06405 604.866 L 516.56405 604 L 519.56405 598.8038 L 520.56405 598.8038 L 520.56405 589.1962 L 519.56405 589.1962 L 516.56405 584 L 519.56405 578.8038 L 525.56405 578.8038 L 526.06405 579.6698 L 534.38455 574.866 L 533.88455 574 L 536.88455 568.8038 L 537.88455 568.8038 L 537.88455 559.1962 L 536.88455 559.1962 L 533.88455 554 L 536.88455 548.8038 L 542.88455 548.8038 L 543.38455 549.6698 L 551.70505 544.866 L 551.20505 544 L 554.20505 538.8038 L 560.20505 538.8038 L 563.20505 544 L 562.70505 544.866 L 564.20525 545.7321 L 566.8652500000001 547.2679 L 571.0255500000001 549.6698 L 571.5255500000001 548.8038 L 577.5255500000001 548.8038 L 578.0255500000001 549.6698 L 586.3460500000001 544.866 L 585.8460500000001 544 L 588.8460500000001 538.8038 L 594.8460500000001 538.8038 L 597.8460500000001 544 L 597.3460500000001 544.866 L 605.6665499999999 549.6698 L 606.1665499999999 548.8038 L 612.1665499999999 548.8038 L 615.1665499999999 554 L 612.1665499999999 559.1962 L 611.1665499999999 559.1962 L 611.1665499999999 568.8038 L 612.1665499999999 568.8038 L 615.1665499999999 574 L 614.6665499999999 574.866 L 622.9871499999999 579.6698 L 623.4871499999999 578.8038 L 629.4871499999999 578.8038 L 632.4871499999999 584 L 629.4871499999999 589.1962 L 628.4871499999999 589.1962 L 628.4871499999999 598.8038 L 629.4871499999999 598.8038 L 632.4871499999999 604 L 629.4871499999999 609.1962 L 623.4871499999999 609.1962 L 622.9871499999999 608.3302 L 614.6665499999999 613.134 L 615.1665499999999 614 L 612.1665499999999 619.1962 L 606.1665499999999 619.1962 L 603.1665499999999 614 L 603.6665499999999 613.134 L 595.3460500000001 608.3302 L 594.8460500000001 609.1962 L 588.8460500000001 609.1962 L 588.3460500000001 608.3302 L 580.0255500000001 613.134 L 580.5255500000001 614 L 577.5255500000001 619.1962 L 576.5255500000001 619.1962 L 576.5255500000001 628.8038 L 577.5255500000001 628.8038 L 580.5255500000001 634 L 577.5255500000001 639.1962 L 571.5255500000001 639.1962 L 571.0255500000001 638.3302 L 562.70505 643.134 L 563.20505 644 L 560.20505 649.1962 L 559.20505 649.1962 L 559.20505 658.8038 L 560.20505 658.8038 L 563.20505 664 L 560.20505 669.1962 L 554.20505 669.1962 L 553.70505 668.3302 L 545.38455 673.134 L 545.88455 674 L 542.88455 679.1962 L 536.88455 679.1962 L 533.88455 674 L 534.38455 673.134 L 526.06405 668.3302 L 525.56405 669.1962 L 519.56405 669.1962 L 516.56405 664 L 519.56405 658.8038 L 520.56405 658.8038 L 520.56405 649.1962 L 519.56405 649.1962 L 516.56405 644 L 517.06405 643.134 L 508.74354999999997 638.3302 L 508.24354999999997 639.1962 L 502.24354999999997 639.1962 L 501.74354999999997 638.3302 L 493.42305000000005 643.134 L 493.92305000000005 644 L 490.92305000000005 649.1962 L 484.92305000000005 649.1962 L 481.92305000000005 644 L 482.42305000000005 643.134 L 474.10255 638.3302 L 473.60255 639.1962 L 467.60255 639.1962 L 464.60255 634 L 467.60255 628.8038 L 468.60255 628.8038 L 468.60255 619.1962 L 467.60255 619.1962 L 464.60255 614 L 467.60255 608.8038 L 473.60255 608.8038 L 474.10255 609.6698 L 482.42305000000005 604.866 L 481.92305000000005 604 L 484.92305000000005 598.8038 L 485.92305000000005 598.8038 L 485.92305000000005 589.1962 L 484.92305000000005 589.1962 L 481.92305000000005 584 L 482.42305000000005 583.134 L 474.10255 578.3302 L 473.60255 579.1962 L 467.60255 579.1962 L 467.10255 578.3302 L 458.78204999999997 583.134 L 459.28204999999997 584 L 456.28204999999997 589.1962 L 450.28204999999997 589.1962 L 447.28204999999997 584 L 447.78204999999997 583.134 L 439.46155000000005 578.3302 L 438.96155000000005 579.1962 L 432.96155000000005 579.1962 L 429.96155000000005 574 L 432.96155000000005 568.8038 L 433.96155000000005 568.8038 L 433.96155000000005 559.1962 L 432.96155000000005 559.1962 L 429.96155000000005 554 L 430.46155000000005 553.134 L 422.14105 548.3302 L 421.64105 549.1962 L 415.64105 549.1962 L 415.14105 548.3302 L 406.82045 553.134 L 407.32045 554 L 404.32045 559.1962 L 403.32045 559.1962 L 403.32045 568.8038 L 404.32045 568.8038 L 407.32045 574 L 406.82045 574.866 L 415.14105 579.6698 L 415.64105 578.8038 L 421.64105 578.8038 L 424.64105 584 L 421.64105 589.1962 L 420.64105 589.1962 L 420.64105 598.8038 L 421.64105 598.8038 L 424.64105 604 L 421.64105 609.1962 L 415.64105 609.1962 L 415.14105 608.3302 L 406.82045 613.134 L 407.32045 614 L 404.32045 619.1962 L 398.32045 619.1962 L 395.32045 614 L 395.82045 613.134 L 387.49995 608.3302 L 386.99995 609.1962 L 380.99995 609.1962 L 380.49995 608.3302 L 372.17945 613.134 L 372.67945 614 L 369.67945 619.1962 L 363.67945 619.1962 L 360.67945 614 L 361.17945 613.134 L 352.85895 608.3302 L 352.35895 609.1962 L 346.35895 609.1962 L 343.35895 604 L 346.35895 598.8038 L 347.35895 598.8038 L 347.35895 589.1962 L 346.35895 589.1962 L 343.35895 584 L 343.85895 583.134 L 335.53845 578.3302 L 335.03845 579.1962 L 329.03845 579.1962 L 328.53845 578.3302 L 320.21795 583.134 L 320.71795 584 L 317.71795 589.1962 L 311.71795 589.1962 L 308.71795 584 L 309.21795 583.134 L 300.89745 578.3302 L 300.39745 579.1962 L 294.39745 579.1962 L 293.89745 578.3302 L 285.57695 583.134 L 286.07695 584 L 283.07695 589.1962 L 277.07695 589.1962 L 274.07695 584 L 274.57695 583.134 L 266.25645 578.3302 L 265.75645 579.1962 L 259.75645 579.1962 L 259.25645 578.3302 L 252.43615 582.2679 L 250.93595 583.134 L 251.43595 584 L 248.43595 589.1962 L 247.43595 589.1962 L 247.43595 598.8038 L 248.43595 598.8038 L 251.43595 604 L 250.93595 604.866 L 259.25645 609.6698 L 259.75645 608.8038 L 265.75645 608.8038 L 266.25645 609.6698 L 274.57695 604.866 L 274.07695 604 L 277.07695 598.8038 L 283.07695 598.8038 L 286.07695 604 L 285.57695 604.866 L 293.89745 609.6698 L 294.39745 608.8038 L 300.39745 608.8038 L 300.89745 609.6698 L 309.21795 604.866 L 308.71795 604 L 311.71795 598.8038 L 317.71795 598.8038 L 320.71795 604 L 320.21795 604.866 L 321.71815 605.7321 L 324.37815 607.2679 L 328.53845 609.6698 L 329.03845 608.8038 L 335.03845 608.8038 L 338.03845 614 L 335.03845 619.1962 L 334.03845 619.1962 L 334.03845 628.8038 L 335.03845 628.8038 L 338.03845 634 L 337.53845 634.866 L 345.85895 639.6698 L 346.35895 638.8038 L 352.35895 638.8038 L 355.35895 644 L 352.35895 649.1962 L 351.35895 649.1962 L 351.35895 658.8038 L 352.35895 658.8038 L 355.35895 664 L 352.35895 669.1962 L 346.35895 669.1962 L 345.85895 668.3302 L 337.53845 673.134 L 338.03845 674 L 335.03845 679.1962 L 334.03845 679.1962 L 334.03845 688.8038 L 335.03845 688.8038 L 338.03845 694 L 335.03845 699.1962 L 329.03845 699.1962 L 328.53845 698.3302 L 320.21795 703.134 L 320.71795 704 L 317.71795 709.1962 L 311.71795 709.1962 L 308.71795 704 L 309.21795 703.134 L 300.89745 698.3302 L 300.39745 699.1962 L 294.39745 699.1962 L 291.39745 694 L 294.39745 688.8038 L 295.39745 688.8038 L 295.39745 679.1962 L 294.39745 679.1962 L 291.39745 674 L 291.89745 673.134 L 290.39735 672.2679 L 283.57695 668.3302 L 283.07695 669.1962 L 277.07695 669.1962 L 276.57695 668.3302 L 269.75665 672.2679 L 268.25645 673.134 L 268.75645 674 L 265.75645 679.1962 L 259.75645 679.1962 L 256.75645 674 L 257.25645 673.134 L 255.75635 672.2679 L 248.93595 668.3302 L 248.43595 669.1962 L 242.43595 669.1962 L 241.93595 668.3302 L 235.11565000000002 672.2679 L 233.61545 673.134 L 234.11545 674 L 231.11545 679.1962 L 225.11545 679.1962 L 222.11545 674 L 222.61545 673.134 L 221.11534999999998 672.2679 L 214.29494999999997 668.3302 L 213.79494999999997 669.1962 L 207.79494999999997 669.1962 L 204.79494999999997 664 L 207.79494999999997 658.8038 L 208.79494999999997 658.8038 L 208.79494999999997 649.1962 L 207.79494999999997 649.1962 L 204.79494999999997 644 L 207.79494999999997 638.8038 L 213.79494999999997 638.8038 L 214.29494999999997 639.6698 L 222.61545 634.866 L 222.11545 634 L 225.11545 628.8038 L 226.11545 628.8038 L 226.11545 619.1962 L 225.11545 619.1962 L 222.11545 614 L 222.61545 613.134 L 214.29494999999997 608.3302 L 213.79494999999997 609.1962 L 207.79494999999997 609.1962 L 204.79494999999997 604 L 207.79494999999997 598.8038 L 208.79494999999997 598.8038 L 208.79494999999997 589.1962 L 207.79494999999997 589.1962 L 204.79494999999997 584 L 207.79494999999997 578.8038 L 213.79494999999997 578.8038 L 214.29494999999997 579.6698 L 222.61545 574.866 L 222.11545 574 L 225.11545 568.8038 L 231.11545 568.8038 L 234.11545 574 L 233.61545 574.866 L 241.93595 579.6698 L 242.43595 578.8038 L 248.43595 578.8038 L 248.93595 579.6698 L 257.25645 574.866 L 256.75645 574 L 259.75645 568.8038 L 260.75645 568.8038 L 260.75645 559.1962 L 259.75645 559.1962 L 256.75645 554 L 257.25645 553.134 L 255.75635 552.2679 L 248.93595 548.3302 L 248.43595 549.1962 L 242.43595 549.1962 L 239.43595 544 L 242.43595 538.8038 L 243.43595 538.8038 L 243.43595 529.1962 L 242.43595 529.1962 L 239.43595 524 L 242.43595 518.8038 L 248.43595 518.8038 L 248.93595 519.6698 L 257.25645 514.866 L 256.75645 514 L 259.75645 508.8038 L 260.75645 508.8038 L 260.75645 499.1962 L 259.75645 499.1962 L 256.75645 494 L 257.25645 493.134 L 255.75635 492.2679 L 248.93595 488.3302 L 248.43595 489.1962 L 242.43595 489.1962 L 241.93595 488.3302 L 235.11565000000002 492.2679 L 233.61545 493.134 L 234.11545 494 L 231.11545 499.1962 L 230.11545 499.1962 L 230.11545 508.8038 L 231.11545 508.8038 L 234.11545 514 L 231.11545 519.1962 L 225.11545 519.1962 L 224.61545 518.3302 L 217.79514999999998 522.2679 L 216.29494999999997 523.134 L 216.79494999999997 524 L 213.79494999999997 529.1962 L 207.79494999999997 529.1962 L 204.79494999999997 524 L 205.29494999999997 523.134 L 203.79485 522.2679 L 196.97445 518.3302 L 196.47445 519.1962 L 190.47445 519.1962 L 187.47445 514 L 190.47445 508.8038 L 191.47445 508.8038 L 191.47445 499.1962 L 190.47445 499.1962 L 187.47445 494 L 187.97445 493.134 L 181.15384999999998 489.1962 L 179.65384999999998 488.3302 L 179.15384999999998 489.1962 L 173.15384999999998 489.1962 L 170.15385 484 L 173.15384999999998 478.8038 L 174.15384999999998 478.8038 L 174.15384999999998 469.1962 L 173.15384999999998 469.1962 L 170.15385 464 L 173.15384999999998 458.8038 L 179.15384999999998 458.8038 L 179.65384999999998 459.6698 L 186.47424999999998 455.7321 L 187.97445 454.866 L 187.47445 454 L 190.47445 448.8038 L 191.47445 448.8038 L 191.47445 439.1962 L 190.47445 439.1962 L 187.47445 434 L 187.97445 433.134 L 181.15384999999998 429.1962 L 179.65384999999998 428.3302 L 179.15384999999998 429.1962 L 173.15384999999998 429.1962 L 170.15385 424 L 173.15384999999998 418.8038 L 174.15384999999998 418.8038 L 174.15384999999998 409.1962 L 173.15384999999998 409.1962 L 170.15385 404 L 170.65384999999998 403.134 L 169.15375 402.2679 L 162.33335 398.3302 L 161.83335 399.1962 L 155.83335 399.1962 L 152.83335 394 L 155.83335 388.8038 L 156.83335 388.8038 L 156.83335 379.1962 L 155.83335 379.1962 L 152.83335 374 L 153.33335 373.134 L 151.83325 372.2679 L 145.01285 368.3302 L 144.51285 369.1962 L 138.51285 369.1962 L 138.01285 368.3302 L 131.19254999999998 372.2679 L 129.69235 373.134 L 130.19235 374 L 127.19235 379.1962 L 126.19235 379.1962 L 126.19235 388.8038 L 127.19235 388.8038 L 130.19235 394 L 129.69235 394.866 L 133.85254999999998 397.2679 L 138.01285 399.6698 L 138.51285 398.8038 L 144.51285 398.8038 L 147.51285 404 L 144.51285 409.1962 L 143.51285 409.1962 L 143.51285 418.8038 L 144.51285 418.8038 L 147.51285 424 L 147.01285 424.866 L 151.17315 427.2679 L 155.33335 429.6698 L 155.83335 428.8038 L 161.83335 428.8038 L 164.83335 434 L 161.83335 439.1962 L 160.83335 439.1962 L 160.83335 448.8038 L 161.83335 448.8038 L 164.83335 454 L 161.83335 459.1962 L 155.83335 459.1962 L 155.33335 458.3302 L 148.51305 462.2679 L 147.01285 463.134 L 147.51285 464 L 144.51285 469.1962 L 143.51285 469.1962 L 143.51285 478.8038 L 144.51285 478.8038 L 147.51285 484 L 144.51285 489.1962 L 138.51285 489.1962 L 138.01285 488.3302 L 131.19254999999998 492.2679 L 129.69235 493.134 L 130.19235 494 L 127.19235 499.1962 L 121.19235 499.1962 L 118.19235 494 L 118.69235 493.134 L 117.19225 492.2679 L 110.37185 488.3302 L 109.87185 489.1962 L 103.87185 489.1962 L 103.37185 488.3302 L 96.55154999999999 492.2679 L 95.05134999999999 493.134 L 95.55134999999999 494 L 92.55134999999999 499.1962 L 86.55134999999999 499.1962 L 83.55134999999999 494 L 84.05134999999999 493.134 L 82.55124999999998 492.2679 L 75.73085 488.3302 L 75.23085 489.1962 L 69.23085 489.1962 L 66.23085 484 L 69.23085 478.8038 L 70.23085 478.8038 L 70.23085 469.1962 L 69.23085 469.1962 L 66.23085 464 L 69.23085 458.8038 L 75.23085 458.8038 L 75.73085 459.6698 L 84.05134999999999 454.866 L 83.55134999999999 454 L 86.55134999999999 448.8038 L 87.55134999999999 448.8038 L 87.55134999999999 439.1962 L 86.55134999999999 439.1962 L 83.55134999999999 434 L 84.05134999999999 433.134 L 82.55124999999998 432.2679 L 75.73085 428.3302 L 75.23085 429.1962 L 69.23085 429.1962 L 66.23085 424 L 69.23085 418.8038 L 70.23085 418.8038 L 70.23085 409.1962 L 69.23085 409.1962 L 66.23085 404 L 66.73085 403.134 L 65.23075 402.2679 L 58.410349999999994 398.3302 L 57.910349999999994 399.1962 L 51.910349999999994 399.1962 L 48.910349999999994 394 L 51.910349999999994 388.8038 L 52.910349999999994 388.8038 L 52.910349999999994 379.1962 L 51.910349999999994 379.1962 L 48.910349999999994 374 L 51.910349999999994 368.8038 L 57.910349999999994 368.8038 L 58.410349999999994 369.6698 L 66.73085 364.866 L 66.23085 364 L 69.23085 358.8038 L 75.23085 358.8038 L 78.23085 364 L 77.73085 364.866 L 81.89104999999998 367.2679 L 86.05134999999999 369.6698 L 86.55134999999999 368.8038 L 92.55134999999999 368.8038 L 93.05134999999999 369.6698 L 101.37185 364.866 L 100.87185 364 L 103.87185 358.8038 L 104.87185 358.8038 L 104.87185 349.1962 L 103.87185 349.1962 L 100.87185 344 L 103.87185 338.8038 L 109.87185 338.8038 L 110.37185 339.6698 L 118.69235 334.866 L 118.19235 334 L 121.19235 328.8038 L 127.19235 328.8038 L 130.19235 334 L 129.69235 334.866 L 133.85254999999998 337.2679 L 138.01285 339.6698 L 138.51285 338.8038 L 144.51285 338.8038 L 147.51285 344 L 144.51285 349.1962 L 143.51285 349.1962 L 143.51285 358.8038 L 144.51285 358.8038 L 147.51285 364 L 147.01285 364.866 L 151.17315 367.2679 L 155.33335 369.6698 L 155.83335 368.8038 L 161.83335 368.8038 L 162.33335 369.6698 Z M 248.43595 609.1962 L 242.43595 609.1962 L 241.93595 608.3302 L 235.11565000000002 612.2679 L 233.61545 613.134 L 234.11545 614 L 231.11545 619.1962 L 230.11545 619.1962 L 230.11545 628.8038 L 231.11545 628.8038 L 234.11545 634 L 231.11545 639.1962 L 225.11545 639.1962 L 224.61545 638.3302 L 217.79514999999998 642.2679 L 216.29494999999997 643.134 L 216.79494999999997 644 L 213.79494999999997 649.1962 L 212.79494999999997 649.1962 L 212.79494999999997 658.8038 L 213.79494999999997 658.8038 L 216.79494999999997 664 L 216.29494999999997 664.866 L 220.45515 667.2679 L 224.61545 669.6698 L 225.11545 668.8038 L 231.11545 668.8038 L 231.61545 669.6698 L 239.93595 664.866 L 239.43595 664 L 242.43595 658.8038 L 248.43595 658.8038 L 251.43595 664 L 250.93595 664.866 L 255.09614999999997 667.2679 L 259.25645 669.6698 L 259.75645 668.8038 L 265.75645 668.8038 L 266.25645 669.6698 L 274.57695 664.866 L 274.07695 664 L 277.07695 658.8038 L 283.07695 658.8038 L 286.07695 664 L 285.57695 664.866 L 289.73715 667.2679 L 293.89745 669.6698 L 294.39745 668.8038 L 300.39745 668.8038 L 303.39745 674 L 300.39745 679.1962 L 299.39745 679.1962 L 299.39745 688.8038 L 300.39745 688.8038 L 303.39745 694 L 302.89745 694.866 L 311.21795 699.6698 L 311.71795 698.8038 L 317.71795 698.8038 L 318.21795 699.6698 L 326.53845 694.866 L 326.03845 694 L 329.03845 688.8038 L 330.03845 688.8038 L 330.03845 679.1962 L 329.03845 679.1962 L 326.03845 674 L 329.03845 668.8038 L 335.03845 668.8038 L 335.53845 669.6698 L 343.85895 664.866 L 343.35895 664 L 346.35895 658.8038 L 347.35895 658.8038 L 347.35895 649.1962 L 346.35895 649.1962 L 343.35895 644 L 343.85895 643.134 L 335.53845 638.3302 L 335.03845 639.1962 L 329.03845 639.1962 L 328.53845 638.3302 L 321.71815 642.2679 L 320.21795 643.134 L 320.71795 644 L 317.71795 649.1962 L 311.71795 649.1962 L 308.71795 644 L 309.21795 643.134 L 307.71785 642.2679 L 300.89745 638.3302 L 300.39745 639.1962 L 294.39745 639.1962 L 293.89745 638.3302 L 287.07715 642.2679 L 285.57695 643.134 L 286.07695 644 L 283.07695 649.1962 L 277.07695 649.1962 L 274.07695 644 L 274.57695 643.134 L 273.07685 642.2679 L 266.25645 638.3302 L 265.75645 639.1962 L 259.75645 639.1962 L 256.75645 634 L 259.75645 628.8038 L 260.75645 628.8038 L 260.75645 619.1962 L 259.75645 619.1962 L 256.75645 614 L 257.25645 613.134 L 248.93595 608.3302 Z M 594.8460500000001 549.1962 L 588.8460500000001 549.1962 L 588.3460500000001 548.3302 L 580.0255500000001 553.134 L 580.5255500000001 554 L 577.5255500000001 559.1962 L 576.5255500000001 559.1962 L 576.5255500000001 568.8038 L 577.5255500000001 568.8038 L 580.5255500000001 574 L 577.5255500000001 579.1962 L 571.5255500000001 579.1962 L 571.0255500000001 578.3302 L 564.20525 582.2679 L 562.70505 583.134 L 563.20505 584 L 560.20505 589.1962 L 559.20505 589.1962 L 559.20505 598.8038 L 560.20505 598.8038 L 563.20505 604 L 560.20505 609.1962 L 554.20505 609.1962 L 553.70505 608.3302 L 546.8847499999999 612.2679 L 545.38455 613.134 L 545.88455 614 L 542.88455 619.1962 L 536.88455 619.1962 L 533.88455 614 L 534.38455 613.134 L 532.88445 612.2679 L 526.06405 608.3302 L 525.56405 609.1962 L 519.56405 609.1962 L 519.06405 608.3302 L 510.74354999999997 613.134 L 511.24354999999997 614 L 508.24354999999997 619.1962 L 507.24354999999997 619.1962 L 507.24354999999997 628.8038 L 508.24354999999997 628.8038 L 511.24354999999997 634 L 510.74354999999997 634.866 L 519.06405 639.6698 L 519.56405 638.8038 L 525.56405 638.8038 L 528.56405 644 L 525.56405 649.1962 L 524.56405 649.1962 L 524.56405 658.8038 L 525.56405 658.8038 L 528.56405 664 L 528.06405 664.866 L 536.38455 669.6698 L 536.88455 668.8038 L 542.88455 668.8038 L 543.38455 669.6698 L 551.70505 664.866 L 551.20505 664 L 554.20505 658.8038 L 555.20505 658.8038 L 555.20505 649.1962 L 554.20505 649.1962 L 551.20505 644 L 554.20505 638.8038 L 560.20505 638.8038 L 560.70505 639.6698 L 569.0255500000001 634.866 L 568.5255500000001 634 L 571.5255500000001 628.8038 L 572.5255500000001 628.8038 L 572.5255500000001 619.1962 L 571.5255500000001 619.1962 L 568.5255500000001 614 L 571.5255500000001 608.8038 L 577.5255500000001 608.8038 L 578.0255500000001 609.6698 L 586.3460500000001 604.866 L 585.8460500000001 604 L 588.8460500000001 598.8038 L 594.8460500000001 598.8038 L 597.8460500000001 604 L 597.3460500000001 604.866 L 605.6665499999999 609.6698 L 606.1665499999999 608.8038 L 612.1665499999999 608.8038 L 612.6665499999999 609.6698 L 620.9871499999999 604.866 L 620.4871499999999 604 L 623.4871499999999 598.8038 L 624.4871499999999 598.8038 L 624.4871499999999 589.1962 L 623.4871499999999 589.1962 L 620.4871499999999 584 L 620.9871499999999 583.134 L 612.6665499999999 578.3302 L 612.1665499999999 579.1962 L 606.1665499999999 579.1962 L 603.1665499999999 574 L 606.1665499999999 568.8038 L 607.1665499999999 568.8038 L 607.1665499999999 559.1962 L 606.1665499999999 559.1962 L 603.1665499999999 554 L 603.6665499999999 553.134 L 595.3460500000001 548.3302 Z M 283.07695 609.1962 L 277.07695 609.1962 L 276.57695 608.3302 L 268.25645 613.134 L 268.75645 614 L 265.75645 619.1962 L 264.75645 619.1962 L 264.75645 628.8038 L 265.75645 628.8038 L 268.75645 634 L 268.25645 634.866 L 272.41665 637.2679 L 276.57695 639.6698 L 277.07695 638.8038 L 283.07695 638.8038 L 283.57695 639.6698 L 291.89745 634.866 L 291.39745 634 L 294.39745 628.8038 L 295.39745 628.8038 L 295.39745 619.1962 L 294.39745 619.1962 L 291.39745 614 L 291.89745 613.134 L 283.57695 608.3302 Z M 490.92305000000005 609.1962 L 484.92305000000005 609.1962 L 484.42305000000005 608.3302 L 476.10255 613.134 L 476.60255 614 L 473.60255 619.1962 L 472.60255 619.1962 L 472.60255 628.8038 L 473.60255 628.8038 L 476.60255 634 L 476.10255 634.866 L 484.42305000000005 639.6698 L 484.92305000000005 638.8038 L 490.92305000000005 638.8038 L 491.42305000000005 639.6698 L 499.74354999999997 634.866 L 499.24354999999997 634 L 502.24354999999997 628.8038 L 503.24354999999997 628.8038 L 503.24354999999997 619.1962 L 502.24354999999997 619.1962 L 499.24354999999997 614 L 499.74354999999997 613.134 L 491.42305000000005 608.3302 Z M 317.71795 609.1962 L 311.71795 609.1962 L 311.21795 608.3302 L 304.39765 612.2679 L 302.89745 613.134 L 303.39745 614 L 300.39745 619.1962 L 299.39745 619.1962 L 299.39745 628.8038 L 300.39745 628.8038 L 303.39745 634 L 302.89745 634.866 L 307.05764999999997 637.2679 L 311.21795 639.6698 L 311.71795 638.8038 L 317.71795 638.8038 L 318.21795 639.6698 L 326.53845 634.866 L 326.03845 634 L 329.03845 628.8038 L 330.03845 628.8038 L 330.03845 619.1962 L 329.03845 619.1962 L 326.03845 614 L 326.53845 613.134 L 318.21795 608.3302 Z M 404.32045 159.1962 L 398.32045 159.1962 L 397.82045 158.3302 L 389.49995 163.134 L 389.99995 164 L 386.99995 169.1962 L 380.99995 169.1962 L 377.99995 164 L 378.49995 163.134 L 370.17945 158.3302 L 369.67945 159.1962 L 363.67945 159.1962 L 363.17945 158.3302 L 354.85895 163.134 L 355.35895 164 L 352.35895 169.1962 L 351.35895 169.1962 L 351.35895 178.8038 L 352.35895 178.8038 L 355.35895 184 L 354.85895 184.86599999999999 L 363.17945 189.6698 L 363.67945 188.8038 L 369.67945 188.8038 L 372.67945 194 L 369.67945 199.1962 L 368.67945 199.1962 L 368.67945 208.8038 L 369.67945 208.8038 L 372.67945 214 L 369.67945 219.1962 L 363.67945 219.1962 L 363.17945 218.3302 L 354.85895 223.13400000000001 L 355.35895 224 L 352.35895 229.1962 L 346.35895 229.1962 L 343.35895 224 L 343.85895 223.13400000000001 L 335.53845 218.3302 L 335.03845 219.1962 L 329.03845 219.1962 L 326.03845 214 L 329.03845 208.8038 L 330.03845 208.8038 L 330.03845 199.1962 L 329.03845 199.1962 L 326.03845 194 L 326.53845 193.13400000000001 L 318.21795 188.3302 L 317.71795 189.1962 L 311.71795 189.1962 L 311.21795 188.3302 L 302.89745 193.13400000000001 L 303.39745 194 L 300.39745 199.1962 L 294.39745 199.1962 L 291.39745 194 L 291.89745 193.13400000000001 L 283.57695 188.3302 L 283.07695 189.1962 L 277.07695 189.1962 L 276.57695 188.3302 L 268.25645 193.13400000000001 L 268.75645 194 L 265.75645 199.1962 L 264.75645 199.1962 L 264.75645 208.8038 L 265.75645 208.8038 L 268.75645 214 L 265.75645 219.1962 L 259.75645 219.1962 L 259.25645 218.3302 L 250.93595 223.13400000000001 L 251.43595 224 L 248.43595 229.1962 L 247.43595 229.1962 L 247.43595 238.8038 L 248.43595 238.8038 L 251.43595 244 L 248.43595 249.1962 L 242.43595 249.1962 L 241.93595 248.3302 L 233.61545 253.13400000000001 L 234.11545 254 L 231.11545 259.1962 L 225.11545 259.1962 L 222.11545 254 L 222.61545 253.13400000000001 L 214.29494999999997 248.3302 L 213.79494999999997 249.1962 L 207.79494999999997 249.1962 L 207.29494999999997 248.3302 L 198.97445 253.13400000000001 L 199.47445 254 L 196.47445 259.1962 L 195.47445 259.1962 L 195.47445 268.8038 L 196.47445 268.8038 L 199.47445 274 L 196.47445 279.1962 L 190.47445 279.1962 L 189.97445 278.3302 L 181.65384999999998 283.134 L 182.15384999999998 284 L 179.15384999999998 289.1962 L 178.15384999999998 289.1962 L 178.15384999999998 298.8038 L 179.15384999999998 298.8038 L 182.15384999999998 304 L 181.65384999999998 304.866 L 189.97445 309.6698 L 190.47445 308.8038 L 196.47445 308.8038 L 196.97445 309.6698 L 205.29494999999997 304.866 L 204.79494999999997 304 L 207.79494999999997 298.8038 L 213.79494999999997 298.8038 L 216.79494999999997 304 L 216.29494999999997 304.866 L 224.61545 309.6698 L 225.11545 308.8038 L 231.11545 308.8038 L 234.11545 314 L 231.11545 319.1962 L 230.11545 319.1962 L 230.11545 328.8038 L 231.11545 328.8038 L 234.11545 334 L 231.11545 339.1962 L 225.11545 339.1962 L 224.61545 338.3302 L 216.29494999999997 343.134 L 216.79494999999997 344 L 213.79494999999997 349.1962 L 207.79494999999997 349.1962 L 204.79494999999997 344 L 205.29494999999997 343.134 L 196.97445 338.3302 L 196.47445 339.1962 L 190.47445 339.1962 L 189.97445 338.3302 L 181.65384999999998 343.134 L 182.15384999999998 344 L 179.15384999999998 349.1962 L 178.15384999999998 349.1962 L 178.15384999999998 358.8038 L 179.15384999999998 358.8038 L 182.15384999999998 364 L 179.15384999999998 369.1962 L 173.15384999999998 369.1962 L 172.65384999999998 368.3302 L 164.33335 373.134 L 164.83335 374 L 161.83335 379.1962 L 160.83335 379.1962 L 160.83335 388.8038 L 161.83335 388.8038 L 164.83335 394 L 164.33335 394.866 L 168.49355 397.2679 L 172.65384999999998 399.6698 L 173.15384999999998 398.8038 L 179.15384999999998 398.8038 L 182.15384999999998 404 L 179.15384999999998 409.1962 L 178.15384999999998 409.1962 L 178.15384999999998 418.8038 L 179.15384999999998 418.8038 L 182.15384999999998 424 L 181.65384999999998 424.866 L 183.15404999999998 425.7321 L 189.97445 429.6698 L 190.47445 428.8038 L 196.47445 428.8038 L 199.47445 434 L 196.47445 439.1962 L 195.47445 439.1962 L 195.47445 448.8038 L 196.47445 448.8038 L 199.47445 454 L 196.47445 459.1962 L 190.47445 459.1962 L 189.97445 458.3302 L 188.47445 459.1962 L 181.65384999999998 463.134 L 182.15384999999998 464 L 179.15384999999998 469.1962 L 178.15384999999998 469.1962 L 178.15384999999998 478.8038 L 179.15384999999998 478.8038 L 182.15384999999998 484 L 181.65384999999998 484.866 L 183.15404999999998 485.7321 L 189.97445 489.6698 L 190.47445 488.8038 L 196.47445 488.8038 L 199.47445 494 L 196.47445 499.1962 L 195.47445 499.1962 L 195.47445 508.8038 L 196.47445 508.8038 L 199.47445 514 L 198.97445 514.866 L 203.13475 517.2679 L 207.29494999999997 519.6698 L 207.79494999999997 518.8038 L 213.79494999999997 518.8038 L 214.29494999999997 519.6698 L 222.61545 514.866 L 222.11545 514 L 225.11545 508.8038 L 226.11545 508.8038 L 226.11545 499.1962 L 225.11545 499.1962 L 222.11545 494 L 225.11545 488.8038 L 231.11545 488.8038 L 231.61545 489.6698 L 239.93595 484.866 L 239.43595 484 L 242.43595 478.8038 L 248.43595 478.8038 L 251.43595 484 L 250.93595 484.866 L 255.09625 487.2679 L 259.25645 489.6698 L 259.75645 488.8038 L 265.75645 488.8038 L 268.75645 494 L 265.75645 499.1962 L 264.75645 499.1962 L 264.75645 508.8038 L 265.75645 508.8038 L 268.75645 514 L 265.75645 519.1962 L 259.75645 519.1962 L 259.25645 518.3302 L 252.43615 522.2679 L 250.93595 523.134 L 251.43595 524 L 248.43595 529.1962 L 247.43595 529.1962 L 247.43595 538.8038 L 248.43595 538.8038 L 251.43595 544 L 250.93595 544.866 L 255.09614999999997 547.2679 L 259.25645 549.6698 L 259.75645 548.8038 L 265.75645 548.8038 L 268.75645 554 L 265.75645 559.1962 L 264.75645 559.1962 L 264.75645 568.8038 L 265.75645 568.8038 L 268.75645 574 L 268.25645 574.866 L 276.57695 579.6698 L 277.07695 578.8038 L 283.07695 578.8038 L 283.57695 579.6698 L 291.89745 574.866 L 291.39745 574 L 294.39745 568.8038 L 300.39745 568.8038 L 303.39745 574 L 302.89745 574.866 L 311.21795 579.6698 L 311.71795 578.8038 L 317.71795 578.8038 L 318.21795 579.6698 L 326.53845 574.866 L 326.03845 574 L 329.03845 568.8038 L 335.03845 568.8038 L 338.03845 574 L 337.53845 574.866 L 345.85895 579.6698 L 346.35895 578.8038 L 352.35895 578.8038 L 355.35895 584 L 352.35895 589.1962 L 351.35895 589.1962 L 351.35895 598.8038 L 352.35895 598.8038 L 355.35895 604 L 354.85895 604.866 L 363.17945 609.6698 L 363.67945 608.8038 L 369.67945 608.8038 L 370.17945 609.6698 L 378.49995 604.866 L 377.99995 604 L 380.99995 598.8038 L 386.99995 598.8038 L 389.99995 604 L 389.49995 604.866 L 397.82045 609.6698 L 398.32045 608.8038 L 404.32045 608.8038 L 404.82045 609.6698 L 413.14105 604.866 L 412.64105 604 L 415.64105 598.8038 L 416.64105 598.8038 L 416.64105 589.1962 L 415.64105 589.1962 L 412.64105 584 L 413.14105 583.134 L 404.82045 578.3302 L 404.32045 579.1962 L 398.32045 579.1962 L 395.32045 574 L 398.32045 568.8038 L 399.32045 568.8038 L 399.32045 559.1962 L 398.32045 559.1962 L 395.32045 554 L 398.32045 548.8038 L 404.32045 548.8038 L 404.82045 549.6698 L 413.14105 544.866 L 412.64105 544 L 415.64105 538.8038 L 421.64105 538.8038 L 424.64105 544 L 424.14105 544.866 L 432.46155000000005 549.6698 L 432.96155000000005 548.8038 L 438.96155000000005 548.8038 L 441.96155000000005 554 L 438.96155000000005 559.1962 L 437.96155000000005 559.1962 L 437.96155000000005 568.8038 L 438.96155000000005 568.8038 L 441.96155000000005 574 L 441.46155000000005 574.866 L 449.78204999999997 579.6698 L 450.28204999999997 578.8038 L 456.28204999999997 578.8038 L 456.78204999999997 579.6698 L 465.10255 574.866 L 464.60255 574 L 467.60255 568.8038 L 473.60255 568.8038 L 476.60255 574 L 476.10255 574.866 L 484.42305000000005 579.6698 L 484.92305000000005 578.8038 L 490.92305000000005 578.8038 L 491.42305000000005 579.6698 L 499.74354999999997 574.866 L 499.24354999999997 574 L 502.24354999999997 568.8038 L 503.24354999999997 568.8038 L 503.24354999999997 559.1962 L 502.24354999999997 559.1962 L 499.24354999999997 554 L 502.24354999999997 548.8038 L 508.24354999999997 548.8038 L 508.74354999999997 549.6698 L 517.06405 544.866 L 516.56405 544 L 519.56405 538.8038 L 520.56405 538.8038 L 520.56405 529.1962 L 519.56405 529.1962 L 516.56405 524 L 519.56405 518.8038 L 525.56405 518.8038 L 526.06405 519.6698 L 534.38455 514.866 L 533.88455 514 L 536.88455 508.8038 L 542.88455 508.8038 L 545.88455 514 L 545.38455 514.866 L 553.70505 519.6698 L 554.20505 518.8038 L 560.20505 518.8038 L 560.70505 519.6698 L 569.0255500000001 514.866 L 568.5255500000001 514 L 571.5255500000001 508.8038 L 572.5255500000001 508.8038 L 572.5255500000001 499.1962 L 571.5255500000001 499.1962 L 568.5255500000001 494 L 571.5255500000001 488.8038 L 577.5255500000001 488.8038 L 578.0255500000001 489.6698 L 586.3460500000001 484.866 L 585.8460500000001 484 L 588.8460500000001 478.8038 L 589.8460500000001 478.8038 L 589.8460500000001 469.1962 L 588.8460500000001 469.1962 L 585.8460500000001 464 L 586.3460500000001 463.134 L 578.0255500000001 458.3302 L 577.5255500000001 459.1962 L 571.5255500000001 459.1962 L 571.0255500000001 458.3302 L 562.70505 463.134 L 563.20505 464 L 560.20505 469.1962 L 554.20505 469.1962 L 551.20505 464 L 551.70505 463.134 L 543.38455 458.3302 L 542.88455 459.1962 L 536.88455 459.1962 L 533.88455 454 L 536.88455 448.8038 L 537.88455 448.8038 L 537.88455 439.1962 L 536.88455 439.1962 L 533.88455 434 L 536.88455 428.8038 L 542.88455 428.8038 L 543.38455 429.6698 L 551.70505 424.866 L 551.20505 424 L 554.20505 418.8038 L 560.20505 418.8038 L 563.20505 424 L 562.70505 424.866 L 571.0255500000001 429.6698 L 571.5255500000001 428.8038 L 577.5255500000001 428.8038 L 578.0255500000001 429.6698 L 586.3460500000001 424.866 L 585.8460500000001 424 L 588.8460500000001 418.8038 L 589.8460500000001 418.8038 L 589.8460500000001 409.1962 L 588.8460500000001 409.1962 L 585.8460500000001 404 L 588.8460500000001 398.8038 L 594.8460500000001 398.8038 L 595.3460500000001 399.6698 L 603.6665499999999 394.866 L 603.1665499999999 394 L 606.1665499999999 388.8038 L 607.1665499999999 388.8038 L 607.1665499999999 379.1962 L 606.1665499999999 379.1962 L 603.1665499999999 374 L 603.6665499999999 373.134 L 595.3460500000001 368.3302 L 594.8460500000001 369.1962 L 588.8460500000001 369.1962 L 585.8460500000001 364 L 588.8460500000001 358.8038 L 589.8460500000001 358.8038 L 589.8460500000001 349.1962 L 588.8460500000001 349.1962 L 585.8460500000001 344 L 586.3460500000001 343.134 L 578.0255500000001 338.3302 L 577.5255500000001 339.1962 L 571.5255500000001 339.1962 L 568.5255500000001 334 L 571.5255500000001 328.8038 L 572.5255500000001 328.8038 L 572.5255500000001 319.1962 L 571.5255500000001 319.1962 L 568.5255500000001 314 L 571.5255500000001 308.8038 L 577.5255500000001 308.8038 L 578.0255500000001 309.6698 L 586.3460500000001 304.866 L 585.8460500000001 304 L 588.8460500000001 298.8038 L 589.8460500000001 298.8038 L 589.8460500000001 289.1962 L 588.8460500000001 289.1962 L 585.8460500000001 284 L 586.3460500000001 283.134 L 578.0255500000001 278.3302 L 577.5255500000001 279.1962 L 571.5255500000001 279.1962 L 568.5255500000001 274 L 571.5255500000001 268.8038 L 572.5255500000001 268.8038 L 572.5255500000001 259.1962 L 571.5255500000001 259.1962 L 568.5255500000001 254 L 569.0255500000001 253.13400000000001 L 560.70505 248.3302 L 560.20505 249.1962 L 554.20505 249.1962 L 553.70505 248.3302 L 545.38455 253.13400000000001 L 545.88455 254 L 542.88455 259.1962 L 541.88455 259.1962 L 541.88455 268.8038 L 542.88455 268.8038 L 545.88455 274 L 542.88455 279.1962 L 536.88455 279.1962 L 536.38455 278.3302 L 528.06405 283.134 L 528.56405 284 L 525.56405 289.1962 L 519.56405 289.1962 L 516.56405 284 L 517.06405 283.134 L 508.74354999999997 278.3302 L 508.24354999999997 279.1962 L 502.24354999999997 279.1962 L 499.24354999999997 274 L 502.24354999999997 268.8038 L 503.24354999999997 268.8038 L 503.24354999999997 259.1962 L 502.24354999999997 259.1962 L 499.24354999999997 254 L 502.24354999999997 248.8038 L 508.24354999999997 248.8038 L 508.74354999999997 249.6698 L 517.06405 244.86599999999999 L 516.56405 244 L 519.56405 238.8038 L 520.56405 238.8038 L 520.56405 229.1962 L 519.56405 229.1962 L 516.56405 224 L 517.06405 223.13400000000001 L 508.74354999999997 218.3302 L 508.24354999999997 219.1962 L 502.24354999999997 219.1962 L 499.24354999999997 214 L 502.24354999999997 208.8038 L 503.24354999999997 208.8038 L 503.24354999999997 199.1962 L 502.24354999999997 199.1962 L 499.24354999999997 194 L 499.74354999999997 193.13400000000001 L 491.42305000000005 188.3302 L 490.92305000000005 189.1962 L 484.92305000000005 189.1962 L 484.42305000000005 188.3302 L 476.10255 193.13400000000001 L 476.60255 194 L 473.60255 199.1962 L 467.60255 199.1962 L 464.60255 194 L 465.10255 193.13400000000001 L 456.78204999999997 188.3302 L 456.28204999999997 189.1962 L 450.28204999999997 189.1962 L 449.78204999999997 188.3302 L 441.46155000000005 193.13400000000001 L 441.96155000000005 194 L 438.96155000000005 199.1962 L 432.96155000000005 199.1962 L 429.96155000000005 194 L 430.46155000000005 193.13400000000001 L 422.14105 188.3302 L 421.64105 189.1962 L 415.64105 189.1962 L 412.64105 184 L 415.64105 178.8038 L 416.64105 178.8038 L 416.64105 169.1962 L 415.64105 169.1962 L 412.64105 164 L 413.14105 163.134 L 404.82045 158.3302 Z M 542.88455 579.1962 L 536.88455 579.1962 L 536.38455 578.3302 L 528.06405 583.134 L 528.56405 584 L 525.56405 589.1962 L 524.56405 589.1962 L 524.56405 598.8038 L 525.56405 598.8038 L 528.56405 604 L 528.06405 604.866 L 532.22425 607.2679 L 536.38455 609.6698 L 536.88455 608.8038 L 542.88455 608.8038 L 543.38455 609.6698 L 551.70505 604.866 L 551.20505 604 L 554.20505 598.8038 L 555.20505 598.8038 L 555.20505 589.1962 L 554.20505 589.1962 L 551.20505 584 L 551.70505 583.134 L 550.20495 582.2679 L 543.38455 578.3302 Z M 231.11545 579.1962 L 225.11545 579.1962 L 224.61545 578.3302 L 216.29494999999997 583.134 L 216.79494999999997 584 L 213.79494999999997 589.1962 L 212.79494999999997 589.1962 L 212.79494999999997 598.8038 L 213.79494999999997 598.8038 L 216.79494999999997 604 L 216.29494999999997 604.866 L 224.61545 609.6698 L 225.11545 608.8038 L 231.11545 608.8038 L 231.61545 609.6698 L 239.93595 604.866 L 239.43595 604 L 242.43595 598.8038 L 243.43595 598.8038 L 243.43595 589.1962 L 242.43595 589.1962 L 239.43595 584 L 239.93595 583.134 L 231.61545 578.3302 Z M 560.20505 549.1962 L 554.20505 549.1962 L 553.70505 548.3302 L 546.8847499999999 552.2679 L 545.38455 553.134 L 545.88455 554 L 542.88455 559.1962 L 541.88455 559.1962 L 541.88455 568.8038 L 542.88455 568.8038 L 545.88455 574 L 545.38455 574.866 L 549.54485 577.2679 L 553.70505 579.6698 L 554.20505 578.8038 L 560.20505 578.8038 L 560.70505 579.6698 L 569.0255500000001 574.866 L 568.5255500000001 574 L 571.5255500000001 568.8038 L 572.5255500000001 568.8038 L 572.5255500000001 559.1962 L 571.5255500000001 559.1962 L 568.5255500000001 554 L 569.0255500000001 553.134 L 560.70505 548.3302 Z M 109.87185 369.1962 L 103.87185 369.1962 L 103.37185 368.3302 L 96.55154999999999 372.2679 L 95.05134999999999 373.134 L 95.55134999999999 374 L 92.55134999999999 379.1962 L 86.55134999999999 379.1962 L 83.55134999999999 374 L 84.05134999999999 373.134 L 82.55124999999998 372.2679 L 75.73085 368.3302 L 75.23085 369.1962 L 69.23085 369.1962 L 68.73085 368.3302 L 61.91055 372.2679 L 60.410349999999994 373.134 L 60.910349999999994 374 L 57.910349999999994 379.1962 L 56.910349999999994 379.1962 L 56.910349999999994 388.8038 L 57.910349999999994 388.8038 L 60.910349999999994 394 L 60.410349999999994 394.866 L 64.57055 397.2679 L 68.73085 399.6698 L 69.23085 398.8038 L 75.23085 398.8038 L 78.23085 404 L 75.23085 409.1962 L 74.23085 409.1962 L 74.23085 418.8038 L 75.23085 418.8038 L 78.23085 424 L 77.73085 424.866 L 81.89114999999998 427.2679 L 86.05134999999999 429.6698 L 86.55134999999999 428.8038 L 92.55134999999999 428.8038 L 95.55134999999999 434 L 92.55134999999999 439.1962 L 91.55134999999999 439.1962 L 91.55134999999999 448.8038 L 92.55134999999999 448.8038 L 95.55134999999999 454 L 92.55134999999999 459.1962 L 86.55134999999999 459.1962 L 86.05134999999999 458.3302 L 79.23104999999998 462.2679 L 77.73085 463.134 L 78.23085 464 L 75.23085 469.1962 L 74.23085 469.1962 L 74.23085 478.8038 L 75.23085 478.8038 L 78.23085 484 L 77.73085 484.866 L 81.89114999999998 487.2679 L 86.05134999999999 489.6698 L 86.55134999999999 488.8038 L 92.55134999999999 488.8038 L 93.05134999999999 489.6698 L 101.37185 484.866 L 100.87185 484 L 103.87185 478.8038 L 109.87185 478.8038 L 112.87185 484 L 112.37185 484.866 L 116.53215 487.2679 L 120.69235 489.6698 L 121.19235 488.8038 L 127.19235 488.8038 L 127.69235 489.6698 L 136.01285 484.866 L 135.51285 484 L 138.51285 478.8038 L 139.51285 478.8038 L 139.51285 469.1962 L 138.51285 469.1962 L 135.51285 464 L 136.01285 463.134 L 134.51274999999998 462.2679 L 127.69235 458.3302 L 127.19235 459.1962 L 121.19235 459.1962 L 118.19235 454 L 121.19235 448.8038 L 122.19235 448.8038 L 122.19235 439.1962 L 121.19235 439.1962 L 118.19235 434 L 118.69235 433.134 L 117.19225 432.2679 L 110.37185 428.3302 L 109.87185 429.1962 L 103.87185 429.1962 L 100.87185 424 L 103.87185 418.8038 L 104.87185 418.8038 L 104.87185 409.1962 L 103.87185 409.1962 L 100.87185 404 L 103.87185 398.8038 L 109.87185 398.8038 L 110.37185 399.6698 L 118.69235 394.866 L 118.19235 394 L 121.19235 388.8038 L 122.19235 388.8038 L 122.19235 379.1962 L 121.19235 379.1962 L 118.19235 374 L 118.69235 373.134 L 117.19225 372.2679 L 110.37185 368.3302 Z M 144.51285 429.1962 L 138.51285 429.1962 L 138.01285 428.3302 L 131.19254999999998 432.2679 L 129.69235 433.134 L 130.19235 434 L 127.19235 439.1962 L 126.19235 439.1962 L 126.19235 448.8038 L 127.19235 448.8038 L 130.19235 454 L 129.69235 454.866 L 131.19254999999998 455.7321 L 133.85254999999998 457.2679 L 138.01285 459.6698 L 138.51285 458.8038 L 144.51285 458.8038 L 145.01285 459.6698 L 153.33335 454.866 L 152.83335 454 L 155.83335 448.8038 L 156.83335 448.8038 L 156.83335 439.1962 L 155.83335 439.1962 L 152.83335 434 L 153.33335 433.134 L 151.83325 432.2679 L 145.01285 428.3302 Z M 646.80765 399.1962 L 640.80765 399.1962 L 640.30765 398.3302 L 631.9871499999999 403.134 L 632.4871499999999 404 L 629.4871499999999 409.1962 L 628.4871499999999 409.1962 L 628.4871499999999 418.8038 L 629.4871499999999 418.8038 L 632.4871499999999 424 L 631.9871499999999 424.866 L 640.30765 429.6698 L 640.80765 428.8038 L 646.80765 428.8038 L 647.30765 429.6698 L 655.62815 424.866 L 655.12815 424 L 658.12815 418.8038 L 659.12815 418.8038 L 659.12815 409.1962 L 658.12815 409.1962 L 655.12815 404 L 655.62815 403.134 L 654.12805 402.2679 L 647.30765 398.3302 Z M 127.19235 399.1962 L 121.19235 399.1962 L 120.69235 398.3302 L 113.87205 402.2679 L 112.37185 403.134 L 112.87185 404 L 109.87185 409.1962 L 108.87185 409.1962 L 108.87185 418.8038 L 109.87185 418.8038 L 112.87185 424 L 112.37185 424.866 L 116.53215 427.2679 L 120.69235 429.6698 L 121.19235 428.8038 L 127.19235 428.8038 L 127.69235 429.6698 L 136.01285 424.866 L 135.51285 424 L 138.51285 418.8038 L 139.51285 418.8038 L 139.51285 409.1962 L 138.51285 409.1962 L 135.51285 404 L 136.01285 403.134 L 134.51274999999998 402.2679 L 127.69235 398.3302 Z M 681.44865 279.1962 L 675.44865 279.1962 L 674.94865 278.3302 L 666.62815 283.134 L 667.12815 284 L 664.12815 289.1962 L 658.12815 289.1962 L 655.12815 284 L 655.62815 283.134 L 647.30765 278.3302 L 646.80765 279.1962 L 640.80765 279.1962 L 640.30765 278.3302 L 631.9871499999999 283.134 L 632.4871499999999 284 L 629.4871499999999 289.1962 L 628.4871499999999 289.1962 L 628.4871499999999 298.8038 L 629.4871499999999 298.8038 L 632.4871499999999 304 L 631.9871499999999 304.866 L 636.1474499999999 307.2679 L 640.30765 309.6698 L 640.80765 308.8038 L 646.80765 308.8038 L 649.80765 314 L 646.80765 319.1962 L 645.80765 319.1962 L 645.80765 328.8038 L 646.80765 328.8038 L 649.80765 334 L 649.30765 334.866 L 653.46795 337.2679 L 657.62815 339.6698 L 658.12815 338.8038 L 664.12815 338.8038 L 667.12815 344 L 664.12815 349.1962 L 663.12815 349.1962 L 663.12815 358.8038 L 664.12815 358.8038 L 667.12815 364 L 664.12815 369.1962 L 658.12815 369.1962 L 657.62815 368.3302 L 650.8078499999999 372.2679 L 649.30765 373.134 L 649.80765 374 L 646.80765 379.1962 L 645.80765 379.1962 L 645.80765 388.8038 L 646.80765 388.8038 L 649.80765 394 L 649.30765 394.866 L 653.46795 397.2679 L 657.62815 399.6698 L 658.12815 398.8038 L 664.12815 398.8038 L 664.62815 399.6698 L 672.94865 394.866 L 672.44865 394 L 675.44865 388.8038 L 681.44865 388.8038 L 684.44865 394 L 683.94865 394.866 L 692.2691500000001 399.6698 L 692.7691500000001 398.8038 L 698.7691500000001 398.8038 L 699.2691500000001 399.6698 L 707.5896499999999 394.866 L 707.0896499999999 394 L 710.0896499999999 388.8038 L 711.0896499999999 388.8038 L 711.0896499999999 379.1962 L 710.0896499999999 379.1962 L 707.0896499999999 374 L 707.5896499999999 373.134 L 699.2691500000001 368.3302 L 698.7691500000001 369.1962 L 692.7691500000001 369.1962 L 689.7691500000001 364 L 692.7691500000001 358.8038 L 693.7691500000001 358.8038 L 693.7691500000001 349.1962 L 692.7691500000001 349.1962 L 689.7691500000001 344 L 690.2691500000001 343.134 L 681.94865 338.3302 L 681.44865 339.1962 L 675.44865 339.1962 L 672.44865 334 L 675.44865 328.8038 L 676.44865 328.8038 L 676.44865 319.1962 L 675.44865 319.1962 L 672.44865 314 L 675.44865 308.8038 L 681.44865 308.8038 L 681.94865 309.6698 L 690.2691500000001 304.866 L 689.7691500000001 304 L 692.7691500000001 298.8038 L 693.7691500000001 298.8038 L 693.7691500000001 289.1962 L 692.7691500000001 289.1962 L 689.7691500000001 284 L 690.2691500000001 283.134 L 681.94865 278.3302 Z M 646.80765 339.1962 L 640.80765 339.1962 L 640.30765 338.3302 L 633.4873499999999 342.2679 L 631.9871499999999 343.134 L 632.4871499999999 344 L 629.4871499999999 349.1962 L 628.4871499999999 349.1962 L 628.4871499999999 358.8038 L 629.4871499999999 358.8038 L 632.4871499999999 364 L 631.9871499999999 364.866 L 640.30765 369.6698 L 640.80765 368.8038 L 646.80765 368.8038 L 647.30765 369.6698 L 655.62815 364.866 L 655.12815 364 L 658.12815 358.8038 L 659.12815 358.8038 L 659.12815 349.1962 L 658.12815 349.1962 L 655.12815 344 L 655.62815 343.134 L 654.12805 342.2679 L 647.30765 338.3302 Z M 127.19235 339.1962 L 121.19235 339.1962 L 120.69235 338.3302 L 113.87205 342.2679 L 112.37185 343.134 L 112.87185 344 L 109.87185 349.1962 L 108.87185 349.1962 L 108.87185 358.8038 L 109.87185 358.8038 L 112.87185 364 L 112.37185 364.866 L 113.87205 365.7321 L 116.53205 367.2679 L 120.69235 369.6698 L 121.19235 368.8038 L 127.19235 368.8038 L 127.69235 369.6698 L 136.01285 364.866 L 135.51285 364 L 138.51285 358.8038 L 139.51285 358.8038 L 139.51285 349.1962 L 138.51285 349.1962 L 135.51285 344 L 136.01285 343.134 L 134.51274999999998 342.2679 L 127.69235 338.3302 Z M 629.4871499999999 309.1962 L 623.4871499999999 309.1962 L 622.9871499999999 308.3302 L 621.4871499999999 309.1962 L 614.6665499999999 313.134 L 615.1665499999999 314 L 612.1665499999999 319.1962 L 611.1665499999999 319.1962 L 611.1665499999999 328.8038 L 612.1665499999999 328.8038 L 615.1665499999999 334 L 614.6665499999999 334.866 L 616.1667500000001 335.7321 L 622.9871499999999 339.6698 L 623.4871499999999 338.8038 L 629.4871499999999 338.8038 L 629.9871499999999 339.6698 L 638.30765 334.866 L 637.80765 334 L 640.80765 328.8038 L 641.80765 328.8038 L 641.80765 319.1962 L 640.80765 319.1962 L 637.80765 314 L 638.30765 313.134 L 636.80755 312.2679 L 629.9871499999999 308.3302 Z M 213.79494999999997 189.1962 L 207.79494999999997 189.1962 L 207.29494999999997 188.3302 L 200.47465 192.2679 L 198.97445 193.13400000000001 L 199.47445 194 L 196.47445 199.1962 L 195.47445 199.1962 L 195.47445 208.8038 L 196.47445 208.8038 L 199.47445 214 L 198.97445 214.86599999999999 L 203.13475 217.2679 L 207.29494999999997 219.6698 L 207.79494999999997 218.8038 L 213.79494999999997 218.8038 L 214.29494999999997 219.6698 L 222.61545 214.86599999999999 L 222.11545 214 L 225.11545 208.8038 L 226.11545 208.8038 L 226.11545 199.1962 L 225.11545 199.1962 L 222.11545 194 L 222.61545 193.13400000000001 L 221.11534999999998 192.2679 L 214.29494999999997 188.3302 Z M 231.11545 99.1962 L 225.11545 99.1962 L 224.61545 98.33019999999999 L 216.29494999999997 103.13399999999999 L 216.79494999999997 104 L 213.79494999999997 109.1962 L 212.79494999999997 109.1962 L 212.79494999999997 118.8038 L 213.79494999999997 118.8038 L 216.79494999999997 124 L 213.79494999999997 129.1962 L 207.79494999999997 129.1962 L 207.29494999999997 128.3302 L 198.97445 133.134 L 199.47445 134 L 196.47445 139.1962 L 195.47445 139.1962 L 195.47445 148.8038 L 196.47445 148.8038 L 199.47445 154 L 196.47445 159.1962 L 190.47445 159.1962 L 189.97445 158.3302 L 181.65384999999998 163.134 L 182.15384999999998 164 L 179.15384999999998 169.1962 L 173.15384999999998 169.1962 L 170.15385 164 L 170.65384999999998 163.134 L 162.33335 158.3302 L 161.83335 159.1962 L 155.83335 159.1962 L 155.33335 158.3302 L 147.01285 163.134 L 147.51285 164 L 144.51285 169.1962 L 143.51285 169.1962 L 143.51285 178.8038 L 144.51285 178.8038 L 147.51285 184 L 147.01285 184.86599999999999 L 155.33335 189.6698 L 155.83335 188.8038 L 161.83335 188.8038 L 164.83335 194 L 161.83335 199.1962 L 160.83335 199.1962 L 160.83335 208.8038 L 161.83335 208.8038 L 164.83335 214 L 164.33335 214.86599999999999 L 172.65384999999998 219.6698 L 173.15384999999998 218.8038 L 179.15384999999998 218.8038 L 179.65384999999998 219.6698 L 187.97445 214.86599999999999 L 187.47445 214 L 190.47445 208.8038 L 191.47445 208.8038 L 191.47445 199.1962 L 190.47445 199.1962 L 187.47445 194 L 190.47445 188.8038 L 196.47445 188.8038 L 196.97445 189.6698 L 205.29494999999997 184.86599999999999 L 204.79494999999997 184 L 207.79494999999997 178.8038 L 208.79494999999997 178.8038 L 208.79494999999997 169.1962 L 207.79494999999997 169.1962 L 204.79494999999997 164 L 207.79494999999997 158.8038 L 213.79494999999997 158.8038 L 214.29494999999997 159.6698 L 222.61545 154.866 L 222.11545 154 L 225.11545 148.8038 L 231.11545 148.8038 L 234.11545 154 L 233.61545 154.866 L 237.77575000000002 157.2679 L 241.93595 159.6698 L 242.43595 158.8038 L 248.43595 158.8038 L 248.93595 159.6698 L 257.25645 154.866 L 256.75645 154 L 259.75645 148.8038 L 260.75645 148.8038 L 260.75645 139.1962 L 259.75645 139.1962 L 256.75645 134 L 257.25645 133.134 L 248.93595 128.3302 L 248.43595 129.1962 L 242.43595 129.1962 L 239.43595 124 L 242.43595 118.8038 L 243.43595 118.8038 L 243.43595 109.1962 L 242.43595 109.1962 L 239.43595 104 L 239.93595 103.13399999999999 L 231.61545 98.33019999999999 Z M 231.11545 159.1962 L 225.11545 159.1962 L 224.61545 158.3302 L 217.79514999999998 162.2679 L 216.29494999999997 163.134 L 216.79494999999997 164 L 213.79494999999997 169.1962 L 212.79494999999997 169.1962 L 212.79494999999997 178.8038 L 213.79494999999997 178.8038 L 216.79494999999997 184 L 216.29494999999997 184.86599999999999 L 220.45515 187.2679 L 224.61545 189.6698 L 225.11545 188.8038 L 231.11545 188.8038 L 231.61545 189.6698 L 239.93595 184.86599999999999 L 239.43595 184 L 242.43595 178.8038 L 243.43595 178.8038 L 243.43595 169.1962 L 242.43595 169.1962 L 239.43595 164 L 239.93595 163.134 L 238.43585000000002 162.2679 L 231.61545 158.3302 Z M 542.88455 159.1962 L 536.88455 159.1962 L 536.38455 158.3302 L 529.5642499999999 162.2679 L 528.06405 163.134 L 528.56405 164 L 525.56405 169.1962 L 524.56405 169.1962 L 524.56405 178.8038 L 525.56405 178.8038 L 528.56405 184 L 528.06405 184.86599999999999 L 536.38455 189.6698 L 536.88455 188.8038 L 542.88455 188.8038 L 543.38455 189.6698 L 551.70505 184.86599999999999 L 551.20505 184 L 554.20505 178.8038 L 555.20505 178.8038 L 555.20505 169.1962 L 554.20505 169.1962 L 551.20505 164 L 551.70505 163.134 L 543.38455 158.3302 Z M 283.07695 129.1962 L 277.07695 129.1962 L 276.57695 128.3302 L 268.25645 133.134 L 268.75645 134 L 265.75645 139.1962 L 264.75645 139.1962 L 264.75645 148.8038 L 265.75645 148.8038 L 268.75645 154 L 268.25645 154.866 L 276.57695 159.6698 L 277.07695 158.8038 L 283.07695 158.8038 L 283.57695 159.6698 L 291.89745 154.866 L 291.39745 154 L 294.39745 148.8038 L 295.39745 148.8038 L 295.39745 139.1962 L 294.39745 139.1962 L 291.39745 134 L 291.89745 133.134 L 283.57695 128.3302 Z M 456.28204999999997 69.1962 L 450.28204999999997 69.1962 L 449.78204999999997 68.33019999999999 L 441.46155000000005 73.13399999999999 L 441.96155000000005 74 L 438.96155000000005 79.1962 L 437.96155000000005 79.1962 L 437.96155000000005 88.8038 L 438.96155000000005 88.8038 L 441.96155000000005 94 L 438.96155000000005 99.1962 L 432.96155000000005 99.1962 L 432.46155000000005 98.33019999999999 L 424.14105 103.13399999999999 L 424.64105 104 L 421.64105 109.1962 L 420.64105 109.1962 L 420.64105 118.8038 L 421.64105 118.8038 L 424.64105 124 L 424.14105 124.86600000000001 L 432.46155000000005 129.6698 L 432.96155000000005 128.8038 L 438.96155000000005 128.8038 L 439.46155000000005 129.6698 L 447.78204999999997 124.86600000000001 L 447.28204999999997 124 L 450.28204999999997 118.8038 L 456.28204999999997 118.8038 L 459.28204999999997 124 L 458.78204999999997 124.86600000000001 L 462.94235 127.2679 L 467.10255 129.6698 L 467.60255 128.8038 L 473.60255 128.8038 L 474.10255 129.6698 L 482.42305000000005 124.86600000000001 L 481.92305000000005 124 L 484.92305000000005 118.8038 L 490.92305000000005 118.8038 L 493.92305000000005 124 L 493.42305000000005 124.86600000000001 L 497.58334999999994 127.2679 L 501.74354999999997 129.6698 L 502.24354999999997 128.8038 L 508.24354999999997 128.8038 L 511.24354999999997 134 L 508.24354999999997 139.1962 L 507.24354999999997 139.1962 L 507.24354999999997 148.8038 L 508.24354999999997 148.8038 L 511.24354999999997 154 L 510.74354999999997 154.866 L 519.06405 159.6698 L 519.56405 158.8038 L 525.56405 158.8038 L 526.06405 159.6698 L 534.38455 154.866 L 533.88455 154 L 536.88455 148.8038 L 537.88455 148.8038 L 537.88455 139.1962 L 536.88455 139.1962 L 533.88455 134 L 536.88455 128.8038 L 542.88455 128.8038 L 543.38455 129.6698 L 551.70505 124.86600000000001 L 551.20505 124 L 554.20505 118.8038 L 555.20505 118.8038 L 555.20505 109.1962 L 554.20505 109.1962 L 551.20505 104 L 551.70505 103.13399999999999 L 543.38455 98.33019999999999 L 542.88455 99.1962 L 536.88455 99.1962 L 536.38455 98.33019999999999 L 528.06405 103.13399999999999 L 528.56405 104 L 525.56405 109.1962 L 519.56405 109.1962 L 516.56405 104 L 517.06405 103.13399999999999 L 508.74354999999997 98.33019999999999 L 508.24354999999997 99.1962 L 502.24354999999997 99.1962 L 501.74354999999997 98.33019999999999 L 493.42305000000005 103.13399999999999 L 493.92305000000005 104 L 490.92305000000005 109.1962 L 484.92305000000005 109.1962 L 481.92305000000005 104 L 482.42305000000005 103.13399999999999 L 474.10255 98.33019999999999 L 473.60255 99.1962 L 467.60255 99.1962 L 464.60255 94 L 467.60255 88.8038 L 468.60255 88.8038 L 468.60255 79.1962 L 467.60255 79.1962 L 464.60255 74 L 465.10255 73.13399999999999 L 456.78204999999997 68.33019999999999 Z M 456.28204999999997 129.1962 L 450.28204999999997 129.1962 L 449.78204999999997 128.3302 L 442.96175 132.2679 L 441.46155000000005 133.134 L 441.96155000000005 134 L 438.96155000000005 139.1962 L 437.96155000000005 139.1962 L 437.96155000000005 148.8038 L 438.96155000000005 148.8038 L 441.96155000000005 154 L 441.46155000000005 154.866 L 445.62184999999994 157.2679 L 449.78204999999997 159.6698 L 450.28204999999997 158.8038 L 456.28204999999997 158.8038 L 456.78204999999997 159.6698 L 465.10255 154.866 L 464.60255 154 L 467.60255 148.8038 L 468.60255 148.8038 L 468.60255 139.1962 L 467.60255 139.1962 L 464.60255 134 L 465.10255 133.134 L 463.60245000000003 132.2679 L 456.78204999999997 128.3302 Z M 490.92305000000005 129.1962 L 484.92305000000005 129.1962 L 484.42305000000005 128.3302 L 477.60274999999996 132.2679 L 476.10255 133.134 L 476.60255 134 L 473.60255 139.1962 L 472.60255 139.1962 L 472.60255 148.8038 L 473.60255 148.8038 L 476.60255 154 L 476.10255 154.866 L 484.42305000000005 159.6698 L 484.92305000000005 158.8038 L 490.92305000000005 158.8038 L 491.42305000000005 159.6698 L 499.74354999999997 154.866 L 499.24354999999997 154 L 502.24354999999997 148.8038 L 503.24354999999997 148.8038 L 503.24354999999997 139.1962 L 502.24354999999997 139.1962 L 499.24354999999997 134 L 499.74354999999997 133.134 L 498.24345 132.2679 L 491.42305000000005 128.3302 Z" stroke-opacity="0" stroke-miterlimit="10" stroke-width="0"/></g></svg>