<svg version="1.1" xmlns="http://www.w3.org/2000/svg" xmlns:xlink="http://www.w3.org/1999/xlink" width="900" height="900"><defs/><g><path fill="#222222" stroke="#cccccc" paint-order="fill stroke markers" d=" M 343.43547 56.52184 L 343.43547 85.95179 L 317.94838 100.66677 L 298.46128 89.41589 L 284.97419 97.20267 L 284.97419 112.77623 L 298.46128 120.56301 L 317.94838 109.31213 L 343.43547 124.02711 L 343.43547 146.52887 L 356.92256 154.31565 L 370.40966 146.52887 L 370.40966 130.95531 L 350.92256 119.70443 L 350.92256 90.27447 L 376.40966 75.55949 L 401.89675 90.27447 L 401.89675 112.77623 L 421.38385 124.02711 L 421.38385 153.45707 L 395.89675 168.17205 L 376.40966 156.92117 L 362.92256 164.70795 L 362.92256 180.2815 L 376.40966 188.06828 L 395.89675 176.8174 L 421.38385 191.53238 L 421.38385 220.96234 L 401.89675 232.21322 L 401.89675 247.78678 L 421.38385 259.03766 L 421.38385 288.46762 L 395.89675 303.1826 L 376.40966 291.93172 L 362.92256 299.7185 L 362.92256 315.29205 L 376.40966 323.07883 L 395.89675 311.82795 L 421.38385 326.54293 L 421.38385 355.97289 L 401.89675 367.22377 L 401.89675 389.72553 L 376.40966 404.44051 L 350.92256 389.72553 L 350.92256 360.29557 L 370.40966 349.04469 L 370.40966 333.47113 L 356.92256 325.68435 L 343.43547 333.47113 L 343.43547 355.97289 L 317.94838 370.68787 L 298.46128 359.43699 L 284.97419 367.22377 L 284.97419 382.79733 L 298.46128 390.58411 L 317.94838 379.33323 L 343.43547 394.04821 L 343.43547 423.47816 L 317.94838 438.19314 L 298.46128 426.94226 L 278.97419 438.19314 L 253.48709 423.47816 L 253.48709 394.04821 L 272.97419 382.79733 L 272.97419 367.22377 L 259.48709 359.43699 L 246 367.22377 L 246 389.72553 L 220.51291 404.44051 L 195.02581 389.72553 L 195.02581 367.22377 L 181.53872 359.43699 L 162.05162 370.68787 L 136.56453 355.97289 L 136.56453 326.54293 L 156.05162 315.29205 L 156.05162 299.7185 L 142.56453 291.93172 L 129.07744 299.7185 L 129.07744 322.22025 L 103.59034 336.93523 L 78.10325 322.22025 L 78.10325 299.7185 L 58.61615 288.46762 L 58.61615 259.03766 L 84.10325 244.32268 L 109.59034 259.03766 L 109.59034 281.53942 L 123.07744 289.3262 L 136.56453 281.53942 L 136.56453 265.96586 L 117.07744 254.71498 L 117.07744 225.28502 L 136.56453 214.03414 L 136.56453 198.46058 L 123.07744 190.6738 L 109.59034 198.46058 L 109.59034 220.96234 L 84.10325 235.67732 L 58.61615 220.96234 L 58.61615 191.53238 L 78.10325 180.2815 L 78.10325 157.77975 L 103.59034 143.06477 L 126.07744 156.0477 L 126.5878 156.45043 L 127.12589 156.81552 L 127.26329 156.98346 L 127.4336 157.11785 L 127.80809 157.64934 L 128.21981 158.15257 L 128.30366 158.35267 L 128.42863 158.53004 L 128.63617 159.14624 L 128.88744 159.74589 L 128.91722 159.98065 L 128.98005 160.1672 L 128.99556 160.59828 L 129.07744 161.24385 L 129.07744 180.2815 L 142.56453 188.06828 L 156.05162 180.2815 L 156.05162 164.70795 L 136.56453 153.45707 L 136.56453 124.02711 L 162.05162 109.31213 L 181.53872 120.56301 L 195.02581 112.77623 L 195.02581 90.27447 L 220.51291 75.55949 L 246 90.27447 L 246 112.77623 L 259.48709 120.56301 L 272.97419 112.77623 L 272.97419 97.20267 L 253.48709 85.95179 L 253.48709 56.52184 L 278.97419 41.80686 L 298.46128 53.05774 L 317.94838 41.80686 Z M 298.46128 404.44051 L 278.97419 393.18963 L 265.48709 400.97641 L 265.48709 416.54996 L 278.97419 424.33674 L 298.46128 413.08586 L 317.94838 424.33674 L 331.43547 416.54996 L 331.43547 400.97641 L 317.94838 393.18963 Z M 207.02581 97.20267 L 207.02581 119.70443 L 181.53872 134.41941 L 162.05162 123.16853 L 148.56453 130.95531 L 148.56453 146.52887 L 168.05162 157.77975 L 168.05162 187.2097 L 148.56453 198.46058 L 148.56453 214.03414 L 168.05162 225.28502 L 168.05162 254.71498 L 148.56453 265.96586 L 148.56453 281.53942 L 168.05162 292.7903 L 168.05162 322.22025 L 148.56453 333.47113 L 148.56453 349.04469 L 162.05162 356.83147 L 181.53872 345.58059 L 207.02581 360.29557 L 207.02581 382.79733 L 220.51291 390.58411 L 234 382.79733 L 234 360.29557 L 259.48709 345.58059 L 278.97419 356.83147 L 292.46128 349.04469 L 292.46128 326.54293 L 317.94838 311.82795 L 337.43547 323.07883 L 350.92256 315.29205 L 350.92256 292.7903 L 376.40966 278.07532 L 395.89675 289.3262 L 409.38385 281.53942 L 409.38385 265.96586 L 389.89675 254.71498 L 389.89675 225.28502 L 409.38385 214.03414 L 409.38385 198.46058 L 395.89675 190.6738 L 376.40966 201.92468 L 350.92256 187.2097 L 350.92256 164.70795 L 337.43547 156.92117 L 317.94838 168.17205 L 292.46128 153.45707 L 292.46128 130.95531 L 278.97419 123.16853 L 259.48709 134.41941 L 234 119.70443 L 234 97.20267 L 220.51291 89.41589 Z M 382.40966 333.47113 L 382.40966 355.97289 L 362.92256 367.22377 L 362.92256 382.79733 L 376.40966 390.58411 L 389.89675 382.79733 L 389.89675 360.29557 L 409.38385 349.04469 L 409.38385 333.47113 L 395.89675 325.68435 Z M 304.46128 333.47113 L 304.46128 349.04469 L 317.94838 356.83147 L 331.43547 349.04469 L 331.43547 333.47113 L 317.94838 325.68435 Z M 70.61615 265.96586 L 70.61615 281.53942 L 90.10325 292.7903 L 90.10325 315.29205 L 103.59034 323.07883 L 117.07744 315.29205 L 117.07744 299.7185 L 97.59034 288.46762 L 97.59034 265.96586 L 84.10325 258.17908 Z M 129.07744 232.21322 L 129.07744 247.78678 L 142.56453 255.57356 L 156.05162 247.78678 L 156.05162 232.21322 L 142.56453 224.42644 Z M 90.10325 164.70795 L 90.10325 187.2097 L 70.61615 198.46058 L 70.61615 214.03414 L 84.10325 221.82092 L 97.59034 214.03414 L 97.59034 191.53238 L 117.07744 180.2815 L 117.07744 164.70795 L 103.59034 156.92117 Z M 304.46128 130.95531 L 304.46128 146.52887 L 317.94838 154.31565 L 331.43547 146.52887 L 331.43547 130.95531 L 317.94838 123.16853 Z M 362.92256 97.20267 L 362.92256 112.77623 L 382.40966 124.02711 L 382.40966 146.52887 L 395.89675 154.31565 L 409.38385 146.52887 L 409.38385 130.95531 L 389.89675 119.70443 L 389.89675 97.20267 L 376.40966 89.41589 Z M 298.46128 66.91414 L 278.97419 55.66326 L 265.48709 63.45004 L 265.48709 79.02359 L 278.97419 86.81037 L 298.46128 75.55949 L 317.94838 86.81037 L 331.43547 79.02359 L 331.43547 63.45004 L 317.94838 55.66326 Z" stroke-miterlimit="10"/><path fill="#222222" stroke="#cccccc" paint-order="fill stroke markers" d=" M 708.71211 72.13691 L 708.71211 105.01671 L 731.18685 117.99251 L 759.66159 101.55261 L 794.13633 121.45661 L 794.13633 161.26461 L 765.66159 177.70451 L 765.66159 203.6561 L 788.13633 216.6319 L 816.61107 200.192 L 851.08581 220.096 L 851.08581 259.904 L 816.61107 279.808 L 788.13633 263.3681 L 765.66159 276.3439 L 765.66159 302.29549 L 794.13633 318.73539 L 794.13633 358.54339 L 759.66159 378.44739 L 731.18685 362.00749 L 708.71211 374.98329 L 708.71211 407.86309 L 674.23737 427.76709 L 639.76263 407.86309 L 639.76263 374.98329 L 617.28789 362.00749 L 594.81315 374.98329 L 594.81315 407.86309 L 560.33841 427.76709 L 525.86367 407.86309 L 525.86367 368.05509 L 554.33841 351.61519 L 554.33841 325.66359 L 531.86367 312.68779 L 503.38893 329.12769 L 468.91419 309.22369 L 468.91419 269.4157 L 497.38893 252.9758 L 497.38893 227.0242 L 468.91419 210.5843 L 468.91419 170.77631 L 503.38893 150.87231 L 531.86367 167.31221 L 554.33841 154.33641 L 554.33841 128.38481 L 525.86367 111.94491 L 525.86367 72.13691 L 560.33841 52.23291 L 594.81315 72.13691 L 594.81315 105.01671 L 617.28789 117.99251 L 639.76263 105.01671 L 639.76263 72.13691 L 674.23737 52.23291 Z M 537.86367 276.3439 L 537.86367 302.29549 L 566.33841 318.73539 L 566.33841 358.54339 L 537.86367 374.98329 L 537.86367 400.93489 L 560.33841 413.91069 L 582.81315 400.93489 L 582.81315 368.05509 L 617.28789 348.15109 L 645.76263 364.59099 L 668.23737 351.61519 L 668.23737 325.66359 L 645.76263 312.68779 L 617.28789 329.12769 L 582.81315 309.22369 L 582.81315 276.3439 L 560.33841 263.3681 Z M 651.76263 276.3439 L 651.76263 302.29549 L 680.23737 318.73539 L 680.23737 358.54339 L 651.76263 374.98329 L 651.76263 400.93489 L 674.23737 413.91069 L 696.71211 400.93489 L 696.71211 368.05509 L 731.18685 348.15109 L 759.66159 364.59099 L 782.13633 351.61519 L 782.13633 325.66359 L 759.66159 312.68779 L 731.18685 329.12769 L 696.71211 309.22369 L 696.71211 276.3439 L 674.23737 263.3681 Z M 480.91419 177.70451 L 480.91419 203.6561 L 509.38893 220.096 L 509.38893 259.904 L 480.91419 276.3439 L 480.91419 302.29549 L 503.38893 315.27129 L 525.86367 302.29549 L 525.86367 269.4157 L 560.33841 249.5117 L 588.81315 265.9516 L 611.28789 252.9758 L 611.28789 227.0242 L 588.81315 214.0484 L 560.33841 230.4883 L 525.86367 210.5843 L 525.86367 177.70451 L 503.38893 164.72871 Z M 594.81315 177.70451 L 594.81315 203.6561 L 623.28789 220.096 L 623.28789 259.904 L 594.81315 276.3439 L 594.81315 302.29549 L 617.28789 315.27129 L 639.76263 302.29549 L 639.76263 269.4157 L 674.23737 249.5117 L 702.71211 265.9516 L 725.18685 252.9758 L 725.18685 227.0242 L 702.71211 214.0484 L 674.23737 230.4883 L 639.76263 210.5843 L 639.76263 177.70451 L 617.28789 164.72871 Z M 708.71211 177.70451 L 708.71211 203.6561 L 737.18685 220.096 L 737.18685 259.904 L 708.71211 276.3439 L 708.71211 302.29549 L 731.18685 315.27129 L 753.66159 302.29549 L 753.66159 272.8798 L 753.75519 272.23641 L 753.80232 271.5879 L 753.87906 271.38494 L 753.91029 271.17026 L 754.18333 270.58019 L 754.41328 269.97201 L 754.54464 269.79936 L 754.63576 269.60244 L 755.06565 269.11458 L 755.45932 268.59717 L 755.64773 268.45401 L 755.77788 268.30631 L 756.14349 268.07732 L 756.66159 267.68365 L 788.13633 249.5117 L 816.61107 265.9516 L 839.08581 252.9758 L 839.08581 227.0242 L 816.61107 214.0484 L 788.13633 230.4883 L 753.66159 210.5843 L 753.66159 177.70451 L 731.18685 164.72871 Z M 537.86367 79.06511 L 537.86367 105.01671 L 566.33841 121.45661 L 566.33841 161.26461 L 537.86367 177.70451 L 537.86367 203.6561 L 560.33841 216.6319 L 582.81315 203.6561 L 582.81315 170.77631 L 617.28789 150.87231 L 645.76263 167.31221 L 668.23737 154.33641 L 668.23737 128.38481 L 645.76263 115.40901 L 617.28789 131.84891 L 582.81315 111.94491 L 582.81315 79.06511 L 560.33841 66.08931 Z M 651.76263 79.06511 L 651.76263 105.01671 L 680.23737 121.45661 L 680.23737 161.26461 L 651.76263 177.70451 L 651.76263 203.6561 L 674.23737 216.6319 L 696.71211 203.6561 L 696.71211 170.77631 L 731.18685 150.87231 L 759.66159 167.31221 L 782.13633 154.33641 L 782.13633 128.38481 L 759.66159 115.40901 L 731.18685 131.84891 L 696.71211 111.94491 L 696.71211 79.06511 L 674.23737 66.08931 Z" stroke-miterlimit="10"/><path fill="#222222" stroke="#cccccc" paint-order="fill stroke markers" d=" M 270.74358 470.82161 L 270.74358 499.39304 L 295.48717 513.67876 L 295.48717 542.25019 L 314.23075 553.0718 L 338.97433 538.78609 L 363.71791 553.0718 L 388.4615 538.78609 L 419.20508 556.5359 L 419.20508 592.03553 L 388.4615 609.78534 L 363.71791 595.49963 L 344.97433 606.32124 L 344.97433 627.96447 L 369.71791 642.25019 L 369.71791 677.74981 L 344.97433 692.03553 L 344.97433 713.67876 L 363.71791 724.50037 L 388.4615 710.21466 L 419.20508 727.96447 L 419.20508 763.4641 L 388.4615 781.21391 L 363.71791 766.9282 L 338.97433 781.21391 L 314.23075 766.9282 L 295.48717 777.74981 L 295.48717 806.32124 L 270.74358 820.60696 L 270.74358 849.17839 L 240 866.9282 L 209.25642 849.17839 L 209.25642 813.67876 L 234 799.39304 L 234 777.74981 L 215.25642 766.9282 L 190.51283 781.21391 L 159.76925 763.4641 L 159.76925 734.89267 L 141.02567 724.07106 L 122.28209 734.89267 L 122.28209 763.4641 L 91.5385 781.21391 L 60.79492 763.4641 L 60.79492 727.96447 L 85.5385 713.67876 L 85.5385 685.10733 L 110.28209 670.82161 L 110.28209 649.17839 L 85.5385 634.89267 L 85.5385 606.32124 L 60.79492 592.03553 L 60.79492 556.5359 L 91.5385 538.78609 L 122.28209 556.5359 L 122.28209 585.10733 L 141.02567 595.92894 L 159.76925 585.10733 L 159.76925 556.5359 L 190.51283 538.78609 L 215.25642 553.0718 L 234 542.25019 L 234 520.60696 L 209.25642 506.32124 L 209.25642 470.82161 L 240 453.0718 Z M 221.25642 734.89267 L 221.25642 756.5359 L 246 770.82161 L 246 806.32124 L 221.25642 820.60696 L 221.25642 842.25019 L 240 853.0718 L 258.74358 842.25019 L 258.74358 813.67876 L 283.48717 799.39304 L 283.48717 777.74981 L 258.74358 763.4641 L 258.74358 734.89267 L 240 724.07106 Z M 141.02567 695.49963 L 116.28209 681.21391 L 97.5385 692.03553 L 97.5385 720.60696 L 72.79492 734.89267 L 72.79492 756.5359 L 91.5385 767.35751 L 110.28209 756.5359 L 110.28209 727.96447 L 141.02567 710.21466 L 165.76925 724.50037 L 184.51283 713.67876 L 184.51283 692.03553 L 165.76925 681.21391 Z M 196.51283 692.03553 L 196.51283 720.60696 L 171.76925 734.89267 L 171.76925 756.5359 L 190.51283 767.35751 L 209.25642 756.5359 L 209.25642 727.96447 L 234 713.67876 L 234 692.03553 L 215.25642 681.21391 Z M 246 692.03553 L 246 713.67876 L 267.74358 726.23242 L 268.25394 726.63515 L 268.79203 727.00024 L 268.92943 727.16818 L 269.09974 727.30257 L 269.47423 727.83406 L 269.88595 728.33729 L 269.9698 728.53739 L 270.09477 728.71476 L 270.30231 729.33096 L 270.55358 729.93061 L 270.58336 730.16537 L 270.64619 730.35192 L 270.6617 730.783 L 270.74358 731.42857 L 270.74358 756.5359 L 289.48717 767.35751 L 308.23075 756.5359 L 308.23075 734.89267 L 283.48717 720.60696 L 283.48717 692.03553 L 264.74358 681.21391 Z M 295.48717 692.03553 L 295.48717 713.67876 L 320.23075 727.96447 L 320.23075 756.5359 L 338.97433 767.35751 L 363.71791 753.0718 L 388.4615 767.35751 L 407.20508 756.5359 L 407.20508 734.89267 L 388.4615 724.07106 L 363.71791 738.35677 L 332.97433 720.60696 L 332.97433 692.03553 L 314.23075 681.21391 Z M 165.76925 652.64249 L 141.02567 638.35677 L 122.28209 649.17839 L 122.28209 670.82161 L 141.02567 681.64323 L 165.76925 667.35751 L 190.51283 681.64323 L 209.25642 670.82161 L 209.25642 649.17839 L 190.51283 638.35677 Z M 221.25642 649.17839 L 221.25642 670.82161 L 240 681.64323 L 258.74358 670.82161 L 258.74358 649.17839 L 240 638.35677 Z M 314.23075 652.64249 L 289.48717 638.35677 L 270.74358 649.17839 L 270.74358 670.82161 L 289.48717 681.64323 L 314.23075 667.35751 L 338.97433 681.64323 L 357.71791 670.82161 L 357.71791 649.17839 L 338.97433 638.35677 Z M 72.79492 563.4641 L 72.79492 585.10733 L 97.5385 599.39304 L 97.5385 627.96447 L 116.28209 638.78609 L 141.02567 624.50037 L 165.76925 638.78609 L 184.51283 627.96447 L 184.51283 606.32124 L 165.76925 595.49963 L 141.02567 609.78534 L 110.28209 592.03553 L 110.28209 563.4641 L 91.5385 552.64249 Z M 171.76925 563.4641 L 171.76925 585.10733 L 196.51283 599.39304 L 196.51283 627.96447 L 215.25642 638.78609 L 234 627.96447 L 234 606.32124 L 209.25642 592.03553 L 209.25642 563.4641 L 190.51283 552.64249 Z M 270.74358 563.4641 L 270.74358 592.03553 L 246 606.32124 L 246 627.96447 L 264.74358 638.78609 L 283.48717 627.96447 L 283.48717 599.39304 L 308.23075 585.10733 L 308.23075 563.4641 L 289.48717 552.64249 Z M 363.71791 566.9282 L 338.97433 552.64249 L 320.23075 563.4641 L 320.23075 592.03553 L 295.48717 606.32124 L 295.48717 627.96447 L 314.23075 638.78609 L 332.97433 627.96447 L 332.97433 599.39304 L 363.71791 581.64323 L 388.4615 595.92894 L 407.20508 585.10733 L 407.20508 563.4641 L 388.4615 552.64249 Z M 221.25642 477.74981 L 221.25642 499.39304 L 246 513.67876 L 246 549.17839 L 221.25642 563.4641 L 221.25642 585.10733 L 240 595.92894 L 258.74358 585.10733 L 258.74358 556.5359 L 283.48717 542.25019 L 283.48717 520.60696 L 258.74358 506.32124 L 258.74358 477.74981 L 240 466.9282 Z" stroke-miterlimit="10"/><path fill="#222222" stroke="#cccccc" paint-order="fill stroke markers" d=" M 811.25461 488.81033 L 811.25461 509.77602 L 829.41143 520.25887 L 829.41143 548.15277 L 811.25461 558.63562 L 811.25461 579.60131 L 787.09778 593.54826 L 768.94096 583.06541 L 756.78413 590.08416 L 756.78413 604.12166 L 768.94096 611.14041 L 787.09778 600.65756 L 811.25461 614.60451 L 811.25461 635.5702 L 829.41143 646.05305 L 829.41143 673.94695 L 811.25461 684.4298 L 811.25461 705.39549 L 787.09778 719.34244 L 768.94096 708.85959 L 756.78413 715.87834 L 756.78413 729.91584 L 768.94096 736.93459 L 787.09778 726.45174 L 811.25461 740.39869 L 811.25461 761.36438 L 829.41143 771.84723 L 829.41143 799.74113 L 811.25461 810.22398 L 811.25461 831.18967 L 787.09778 845.13662 L 768.94096 834.65377 L 750.78413 845.13662 L 726.6273 831.18967 L 726.6273 810.22398 L 708.47048 799.74113 L 708.47048 771.84723 L 726.6273 761.36438 L 726.6273 747.32689 L 714.47048 740.30814 L 702.31365 747.32689 L 702.31365 768.29258 L 678.15683 782.23953 L 660 771.75668 L 641.84317 782.23953 L 617.68635 768.29258 L 617.68635 747.32689 L 599.52952 736.84404 L 599.52952 708.95014 L 617.68635 698.46729 L 617.68635 684.4298 L 605.52952 677.41105 L 593.3727 684.4298 L 593.3727 705.39549 L 569.21587 719.34244 L 551.05904 708.85959 L 532.90222 719.34244 L 508.74539 705.39549 L 508.74539 684.4298 L 490.58857 673.94695 L 490.58857 646.05305 L 508.74539 635.5702 L 508.74539 614.60451 L 532.90222 600.65756 L 551.05904 611.14041 L 569.21587 600.65756 L 593.3727 614.60451 L 593.3727 635.5702 L 605.52952 642.58895 L 617.68635 635.5702 L 617.68635 621.53271 L 599.52952 611.04986 L 599.52952 583.15596 L 617.68635 572.67311 L 617.68635 551.70742 L 641.84317 537.76047 L 660 548.24332 L 678.15683 537.76047 L 702.31365 551.70742 L 702.31365 572.67311 L 714.47048 579.69186 L 726.6273 572.67311 L 726.6273 558.63562 L 708.47048 548.15277 L 708.47048 520.25887 L 726.6273 509.77602 L 726.6273 488.81033 L 750.78413 474.86338 L 768.94096 485.34623 L 787.09778 474.86338 Z M 738.6273 810.22398 L 738.6273 824.26147 L 750.78413 831.28022 L 762.94096 824.26147 L 762.94096 810.22398 L 750.78413 803.20523 Z M 768.94096 750.79099 L 750.78413 740.30814 L 738.6273 747.32689 L 738.6273 768.29258 L 720.47048 778.77543 L 720.47048 792.81293 L 732.6273 799.83168 L 747.78413 791.08088 L 748.38812 790.84024 L 748.97331 790.55681 L 749.18743 790.52179 L 749.38898 790.44149 L 750.03654 790.38291 L 750.67819 790.27797 L 750.8934 790.30541 L 751.10949 790.28586 L 751.7469 790.41422 L 752.39186 790.49644 L 752.61004 790.58803 L 752.80303 790.62689 L 753.18415 790.82902 L 753.78413 791.08088 L 774.94096 803.29578 L 774.94096 824.26147 L 787.09778 831.28022 L 799.25461 824.26147 L 799.25461 810.22398 L 781.09778 799.74113 L 781.09778 771.84723 L 799.25461 761.36438 L 799.25461 747.32689 L 787.09778 740.30814 Z M 793.09778 778.77543 L 793.09778 792.81293 L 805.25461 799.83168 L 817.41143 792.81293 L 817.41143 778.77543 L 805.25461 771.75668 Z M 660 562.09972 L 641.84317 551.61687 L 629.68635 558.63562 L 629.68635 579.60131 L 611.52952 590.08416 L 611.52952 604.12166 L 629.68635 614.60451 L 629.68635 642.4984 L 611.52952 652.98125 L 611.52952 667.01875 L 629.68635 677.5016 L 629.68635 705.39549 L 611.52952 715.87834 L 611.52952 729.91584 L 629.68635 740.39869 L 629.68635 761.36438 L 641.84317 768.38313 L 660 757.90028 L 678.15683 768.38313 L 690.31365 761.36438 L 690.31365 740.39869 L 714.47048 726.45174 L 732.6273 736.93459 L 744.78413 729.91584 L 744.78413 708.95014 L 768.94096 695.00319 L 787.09778 705.48604 L 799.25461 698.46729 L 799.25461 677.5016 L 817.41143 667.01875 L 817.41143 652.98125 L 799.25461 642.4984 L 799.25461 621.53271 L 787.09778 614.51396 L 768.94096 624.99681 L 744.78413 611.04986 L 744.78413 590.08416 L 732.6273 583.06541 L 714.47048 593.54826 L 690.31365 579.60131 L 690.31365 558.63562 L 678.15683 551.61687 Z M 520.74539 684.4298 L 520.74539 698.46729 L 532.90222 705.48604 L 545.05904 698.46729 L 545.05904 684.4298 L 532.90222 677.41105 Z M 557.05904 621.53271 L 557.05904 642.4984 L 532.90222 656.44535 L 514.74539 645.9625 L 502.58857 652.98125 L 502.58857 667.01875 L 514.74539 674.0375 L 532.90222 663.55465 L 557.05904 677.5016 L 557.05904 698.46729 L 569.21587 705.48604 L 581.3727 698.46729 L 581.3727 677.5016 L 599.52952 667.01875 L 599.52952 652.98125 L 581.3727 642.4984 L 581.3727 621.53271 L 569.21587 614.51396 Z M 520.74539 621.53271 L 520.74539 635.5702 L 532.90222 642.58895 L 545.05904 635.5702 L 545.05904 621.53271 L 532.90222 614.51396 Z M 774.94096 495.73853 L 774.94096 516.70422 L 750.78413 530.65117 L 732.6273 520.16832 L 720.47048 527.18707 L 720.47048 541.22457 L 738.6273 551.70742 L 738.6273 572.67311 L 750.78413 579.69186 L 768.94096 569.20901 L 787.09778 579.69186 L 799.25461 572.67311 L 799.25461 558.63562 L 781.09778 548.15277 L 781.09778 520.25887 L 799.25461 509.77602 L 799.25461 495.73853 L 787.09778 488.71978 Z M 793.09778 527.18707 L 793.09778 541.22457 L 805.25461 548.24332 L 817.41143 541.22457 L 817.41143 527.18707 L 805.25461 520.16832 Z M 738.6273 495.73853 L 738.6273 509.77602 L 750.78413 516.79477 L 762.94096 509.77602 L 762.94096 495.73853 L 750.78413 488.71978 Z" stroke-miterlimit="10"/></g></svg>