<svg version="1.1" xmlns="http://www.w3.org/2000/svg" xmlns:xlink="http://www.w3.org/1999/xlink" width="768" height="768"><defs/><g><rect fill="#000000" stroke="none" x="0" y="0" width="768" height="768"/><path fill="#000000" stroke="#cccccc" paint-order="fill stroke markers" d=" M 349.66564999999997 191.07414999999997 L 351.34934999999996 191.52524999999997 L 352.92914999999994 192.26194999999998 L 354.35695 193.26174999999998 L 355.58955 194.49435 L 356.58934999999997 195.92215 L 357.32604999999995 197.50195 L 357.77714999999995 199.18574999999998 L 357.92914999999994 200.92215 L 357.77714999999995 202.65865 L 357.32604999999995 204.34234999999998 L 356.58934999999997 205.92215 L 355.58955 207.35004999999998 L 354.35695 208.58265 L 352.92914999999994 209.58245 L 351.34934999999996 210.31914999999998 L 349.66564999999997 210.77024999999998 L 347.92914999999994 210.92215 L 346.82994999999994 210.82594999999998 L 327.34164999999996 244.58085 L 337.75095 272.07135 L 365.10355 259.74365 L 374.89545 242.78355 L 374.26264999999995 241.87975 L 373.52594999999997 240.29994999999997 L 373.07484999999997 238.61624999999998 L 372.92285 236.87975 L 373.07484999999997 235.14324999999997 L 373.52594999999997 233.45954999999998 L 374.26264999999995 231.87975 L 375.26244999999994 230.45184999999998 L 376.49504999999994 229.21925 L 377.92285 228.21945 L 379.50264999999996 227.48284999999998 L 381.18645 227.03164999999998 L 382.92285 226.87975 L 384.65934999999996 227.03164999999998 L 386.34315 227.48284999999998 L 387.92285 228.21945 L 389.35074999999995 229.21925 L 390.58334999999994 230.45184999999998 L 391.58315 231.87975 L 392.31985 233.45954999999998 L 392.77094999999997 235.14324999999997 L 392.92285 236.87975 L 392.77094999999997 238.61624999999998 L 392.31985 240.29994999999997 L 391.58315 241.87975 L 390.58334999999994 243.30764999999997 L 389.35074999999995 244.54014999999998 L 387.92285 245.53994999999998 L 386.34315 246.27665 L 384.65934999999996 246.72785 L 382.92285 246.87975 L 381.82374999999996 246.78364999999997 L 373.99354999999997 260.34595 L 408.42064999999997 269.57075 L 408.55875 269.37354999999997 L 409.79134999999997 268.14104999999995 L 411.21914999999996 267.14115 L 412.79895 266.40455 L 414.48274999999995 265.95335 L 416.21914999999996 265.80145 L 417.95564999999993 265.95335 L 419.63935 266.40455 L 421.21914999999996 267.14115 L 422.64705 268.14104999999995 L 423.87964999999997 269.37354999999997 L 424.87944999999996 270.80145 L 425.61614999999995 272.38124999999997 L 426.06724999999994 274.06494999999995 L 426.21914999999996 275.80145 L 426.06724999999994 277.53794999999997 L 425.61614999999995 279.22164999999995 L 424.87944999999996 280.80145 L 423.87964999999997 282.22934999999995 L 422.64705 283.46184999999997 L 421.21914999999996 284.46175 L 419.63935 285.19835 L 417.95564999999993 285.64955 L 416.21914999999996 285.80145 L 414.48274999999995 285.64955 L 412.79895 285.19835 L 411.21914999999996 284.46175 L 409.79134999999997 283.46184999999997 L 408.55875 282.22934999999995 L 407.55895 280.80145 L 406.82224999999994 279.22164999999995 L 406.37114999999994 277.53794999999997 L 406.35015 277.29814999999996 L 368.71964999999994 267.21515 L 340.48224999999996 287.53515 L 327.89975 348.16454999999996 L 336.03984999999994 361.04465 L 360.02464999999995 398.99585 L 364.34765 405.83624999999995 L 368.42764999999997 412.29205 L 373.71034999999995 407.41605 L 385.48465 396.54814999999996 L 389.30805 393.01905 L 425.45435 359.65535 L 445.78135 298.10495 L 439.89944999999994 262.03184999999996 L 426.06494999999995 248.19734999999997 L 425.84675 248.29904999999997 L 424.16304999999994 248.75025 L 422.42654999999996 248.90214999999998 L 420.69014999999996 248.75025 L 419.00634999999994 248.29904999999997 L 417.42654999999996 247.56234999999998 L 415.99875 246.56255 L 414.76615 245.33004999999997 L 413.76635 243.90214999999998 L 413.02964999999995 242.32234999999997 L 412.57854999999995 240.63864999999998 L 412.42654999999996 238.90214999999998 L 412.57854999999995 237.16564999999997 L 413.02964999999995 235.48194999999998 L 413.76635 233.90214999999998 L 414.76615 232.47424999999998 L 415.99875 231.24165 L 417.42654999999996 230.24185 L 419.00634999999994 229.50525 L 420.69014999999996 229.05405 L 422.42654999999996 228.90214999999998 L 424.16304999999994 229.05405 L 425.84675 229.50525 L 427.42654999999996 230.24185 L 428.85445 231.24165 L 430.08705 232.47424999999998 L 431.08684999999997 233.90214999999998 L 431.82354999999995 235.48194999999998 L 432.27464999999995 237.16564999999997 L 432.42654999999996 238.90214999999998 L 432.27464999999995 240.63864999999998 L 431.82354999999995 242.32234999999997 L 431.72184999999996 242.54055 L 442.78214999999994 253.60084999999998 L 460.61234999999994 222.71785 L 459.97954999999996 221.81404999999998 L 459.24285 220.23424999999997 L 458.79175 218.55055 L 458.63974999999994 216.81404999999998 L 458.79175 215.07754999999997 L 459.24285 213.39385 L 459.97954999999996 211.81404999999998 L 460.97934999999995 210.38615 L 462.21194999999994 209.15364999999997 L 463.63974999999994 208.15384999999998 L 465.21954999999997 207.41715 L 466.90335 206.96595 L 468.63974999999994 206.81404999999998 L 470.37624999999997 206.96595 L 472.06005 207.41715 L 473.63974999999994 208.15384999999998 L 475.06764999999996 209.15364999999997 L 476.30024999999995 210.38615 L 477.30004999999994 211.81404999999998 L 478.03675 213.39385 L 478.48785 215.07754999999997 L 478.63974999999994 216.81404999999998 L 478.48785 218.55055 L 478.03675 220.23424999999997 L 477.30004999999994 221.81404999999998 L 476.30024999999995 223.24194999999997 L 475.06764999999996 224.47455 L 473.63974999999994 225.47435 L 472.06005 226.21094999999997 L 470.37624999999997 226.66215 L 468.63974999999994 226.81404999999998 L 467.54064999999997 226.71794999999997 L 448.05235 260.47275 L 458.46155 287.96325 L 485.81424999999996 275.63554999999997 L 495.60624999999993 258.67544999999996 L 494.97335 257.77164999999997 L 494.23664999999994 256.19185 L 493.78544999999997 254.50804999999997 L 493.63354999999996 252.77164999999997 L 493.78544999999997 251.03515 L 494.23664999999994 249.35145 L 494.97335 247.77164999999997 L 495.9731499999999 246.34375 L 497.20574999999997 245.11114999999998 L 498.63355 244.11135 L 500.21335 243.37464999999997 L 501.8970499999999 242.92354999999998 L 503.63355 242.77164999999997 L 505.37005 242.92354999999998 L 507.0537499999999 243.37464999999997 L 508.63355 244.11135 L 510.0614499999999 245.11114999999998 L 511.29404999999997 246.34375 L 512.2938499999999 247.77164999999997 L 513.03055 249.35145 L 513.48165 251.03515 L 513.63355 252.77164999999997 L 513.48165 254.50804999999997 L 513.03055 256.19185 L 512.2938499999999 257.77164999999997 L 511.29404999999997 259.19944999999996 L 510.0614499999999 260.43205 L 508.63355 261.43185 L 507.0537499999999 262.16855 L 505.37005 262.61965 L 503.63355 262.77164999999997 L 502.53445 262.67544999999996 L 494.7041499999999 276.23785 L 529.13135 285.46265 L 529.26945 285.26545 L 530.50195 284.03285 L 531.92985 283.03305 L 533.50965 282.29634999999996 L 535.19335 281.84524999999996 L 536.92985 281.69335 L 538.66635 281.84524999999996 L 540.35005 282.29634999999996 L 541.92985 283.03305 L 543.35775 284.03285 L 544.59035 285.26545 L 545.59015 286.69335 L 546.32675 288.27315 L 546.7779499999999 289.95685 L 546.92985 291.69335 L 546.7779499999999 293.42975 L 546.32675 295.11355 L 545.59015 296.69335 L 544.59035 298.12115 L 543.35775 299.35375 L 541.92985 300.35355 L 540.35005 301.09024999999997 L 538.66635 301.54134999999997 L 536.92985 301.69335 L 535.19335 301.54134999999997 L 533.50965 301.09024999999997 L 531.92985 300.35355 L 530.50195 299.35375 L 529.26945 298.12115 L 528.26965 296.69335 L 527.5329499999999 295.11355 L 527.0817499999999 293.42975 L 527.06075 293.19005 L 489.43044999999995 283.10695 L 472.74564999999996 295.11355 L 461.19284999999996 303.42705 L 450.88894999999997 353.07745 L 450.45214999999996 355.18185 L 504.37505 358.26824999999997 L 537.69695 343.25035 L 547.48885 326.29025 L 546.85595 325.38644999999997 L 546.1193499999999 323.80665 L 545.66815 322.12284999999997 L 545.51625 320.38644999999997 L 545.66815 318.64995 L 546.1193499999999 316.96624999999995 L 546.85595 315.38644999999997 L 547.85575 313.95854999999995 L 549.08835 312.72595 L 550.51625 311.72614999999996 L 552.09605 310.98945 L 553.7797499999999 310.53835 L 555.51625 310.38644999999997 L 557.25275 310.53835 L 558.9364499999999 310.98945 L 560.51625 311.72614999999996 L 561.9441499999999 312.72595 L 563.17665 313.95854999999995 L 564.1764499999999 315.38644999999997 L 564.91315 316.96624999999995 L 565.36435 318.64995 L 565.51625 320.38644999999997 L 565.36435 322.12284999999997 L 564.91315 323.80665 L 564.1764499999999 325.38644999999997 L 563.17665 326.81425 L 561.9441499999999 328.04684999999995 L 560.51625 329.04665 L 558.9364499999999 329.78335 L 557.25275 330.23445 L 555.51625 330.38644999999997 L 554.41715 330.29025 L 546.5868499999999 343.85265 L 581.0139499999999 353.07745 L 581.1520499999999 352.88025 L 582.38465 351.64765 L 583.81255 350.64784999999995 L 585.39235 349.91115 L 587.07605 349.46005 L 588.81255 349.30814999999996 L 590.54905 349.46005 L 592.23275 349.91115 L 593.81255 350.64784999999995 L 595.24045 351.64765 L 596.47295 352.88025 L 597.47275 354.30814999999996 L 598.20945 355.88795 L 598.6606499999999 357.57165 L 598.81255 359.30814999999996 L 598.6606499999999 361.04465 L 598.20945 362.72835 L 597.47275 364.30814999999996 L 596.47295 365.73605 L 595.24045 366.96855 L 593.81255 367.96835 L 592.23275 368.70504999999997 L 590.54905 369.15625 L 588.81255 369.30814999999996 L 587.07605 369.15625 L 585.39235 368.70504999999997 L 583.81255 367.96835 L 582.38465 366.96855 L 581.1520499999999 365.73605 L 580.15225 364.30814999999996 L 579.4156499999999 362.72835 L 578.9644499999999 361.04465 L 578.94345 360.80485 L 541.31315 350.72175 L 518.7358499999999 366.96855 L 517.45335 367.89144999999996 L 536.4404499999999 391.12154999999996 L 555.33875 396.18534999999997 L 555.47685 395.98815 L 556.70935 394.75554999999997 L 558.13725 393.75575 L 559.71705 393.01905 L 561.40075 392.56795 L 563.13725 392.41605 L 564.87375 392.56795 L 566.55745 393.01905 L 568.13725 393.75575 L 569.56515 394.75554999999997 L 570.79775 395.98815 L 571.79755 397.41605 L 572.5342499999999 398.99585 L 572.9853499999999 400.67954999999995 L 573.13725 402.41605 L 572.9853499999999 404.15245 L 572.5342499999999 405.83624999999995 L 571.79755 407.41605 L 570.79775 408.84385 L 569.56515 410.07645 L 568.13725 411.07624999999996 L 566.55745 411.81295 L 564.87375 412.26405 L 563.13725 412.41605 L 561.40075 412.26405 L 559.71705 411.81295 L 558.13725 411.07624999999996 L 556.70935 410.07645 L 555.47685 408.84385 L 554.47705 407.41605 L 553.7403499999999 405.83624999999995 L 553.28915 404.15245 L 553.26815 403.91274999999996 L 538.15945 399.86434999999994 L 538.15945 435.52485 L 539.15945 435.99114999999995 L 540.58735 436.99095 L 541.81995 438.22354999999993 L 542.81975 439.65144999999995 L 543.5564499999999 441.23124999999993 L 544.0075499999999 442.91495 L 544.15945 444.65144999999995 L 544.0075499999999 446.38794999999993 L 543.5564499999999 448.07165 L 542.81975 449.65144999999995 L 541.81995 451.07935 L 540.58735 452.31184999999994 L 539.15945 453.31165 L 537.57975 454.04835 L 535.89595 454.49955 L 534.15945 454.65144999999995 L 532.42305 454.49955 L 530.73925 454.04835 L 529.15945 453.31165 L 527.73165 452.31184999999994 L 526.49905 451.07935 L 525.49925 449.65144999999995 L 524.7625499999999 448.07165 L 524.3114499999999 446.38794999999993 L 524.15945 444.65144999999995 L 524.3114499999999 442.91495 L 524.7625499999999 441.23124999999993 L 525.49925 439.65144999999995 L 526.49905 438.22354999999993 L 527.73165 436.99095 L 529.15945 435.99114999999995 L 530.15945 435.52485 L 530.15945 396.54814999999996 L 528.08385 394.85164999999995 L 503.22354999999993 374.53195 L 441.40344999999996 378.07034999999996 L 384.56294999999994 439.65144999999995 L 381.37444999999997 443.10585000000003 L 385.15344999999996 556.41115 L 379.54044999999996 570.98225 L 365.16454999999996 577.07785 L 350.78864999999996 570.98225 L 345.17564999999996 556.41115 L 349.03245 440.77215 L 342.60304999999994 428.52995 L 305.98425 358.80395 L 251.79234999999994 323.23924999999997 L 215.42594999999997 319.58425 L 198.46584999999996 329.37615 L 198.56204999999997 330.47535 L 198.41004999999996 332.21175 L 197.95894999999996 333.89554999999996 L 197.22224999999997 335.47535 L 196.22244999999995 336.90315 L 194.98984999999996 338.13575 L 193.56204999999997 339.13554999999997 L 191.98224999999996 339.87225 L 190.29844999999997 340.32335 L 188.56204999999997 340.47535 L 186.82554999999996 340.32335 L 185.14184999999998 339.87225 L 183.56204999999997 339.13554999999997 L 182.13414999999998 338.13575 L 180.90154999999996 336.90315 L 179.90174999999996 335.47535 L 179.16504999999995 333.89554999999996 L 178.71394999999995 332.21175 L 178.56204999999997 330.47535 L 178.71394999999995 328.73884999999996 L 179.16504999999995 327.05515 L 179.90174999999996 325.47535 L 180.90154999999996 324.04745 L 182.13414999999998 322.81485 L 183.56204999999997 321.81505 L 185.14184999999998 321.07835 L 186.82554999999996 320.62725 L 188.56204999999997 320.47535 L 190.29844999999997 320.62725 L 191.98224999999996 321.07835 L 193.56204999999997 321.81505 L 194.46584999999996 322.44795 L 208.02824999999996 314.61765 L 182.82584999999997 289.41515 L 182.60764999999995 289.51685 L 180.92394999999996 289.96804999999995 L 179.18744999999996 290.11995 L 177.45094999999995 289.96804999999995 L 175.76724999999996 289.51685 L 174.18744999999996 288.78024999999997 L 172.75954999999996 287.78045 L 171.52694999999997 286.54785 L 170.52714999999995 285.11995 L 169.79054999999997 283.54015 L 169.33934999999997 281.85645 L 169.18744999999996 280.11995 L 169.33934999999997 278.38345 L 169.79054999999997 276.69975 L 170.52714999999995 275.11995 L 171.52694999999997 273.69205 L 172.75954999999996 272.45955 L 174.18744999999996 271.45975 L 175.76724999999996 270.72305 L 177.45094999999995 270.27185 L 179.18744999999996 270.11995 L 180.92394999999996 270.27185 L 182.60764999999995 270.72305 L 184.18744999999996 271.45975 L 185.61534999999995 272.45955 L 186.84784999999997 273.69205 L 187.84764999999996 275.11995 L 188.58434999999997 276.69975 L 189.03554999999997 278.38345 L 189.18744999999996 280.11995 L 189.03554999999997 281.85645 L 188.58434999999997 283.54015 L 188.48264999999995 283.75834999999995 L 216.02994999999996 311.30565 L 245.27794999999998 308.36614999999995 L 240.44974999999994 278.75495 L 226.61504999999997 264.92025 L 226.39704999999995 265.02195 L 224.71324999999996 265.47315 L 222.97684999999996 265.62505 L 221.24034999999995 265.47315 L 219.55664999999996 265.02195 L 217.97684999999996 264.28535 L 216.54894999999996 263.28555 L 215.31634999999997 262.05295 L 214.31654999999995 260.62505 L 213.57984999999996 259.04525 L 213.12874999999997 257.36154999999997 L 212.97684999999996 255.62505 L 213.12874999999997 253.88854999999998 L 213.57984999999996 252.20484999999996 L 214.31654999999995 250.62505 L 215.31634999999997 249.19714999999997 L 216.54894999999996 247.96464999999998 L 217.97684999999996 246.96484999999998 L 219.55664999999996 246.22814999999997 L 221.24034999999995 245.77695 L 222.97684999999996 245.62505 L 224.71324999999996 245.77695 L 226.39704999999995 246.22814999999997 L 227.97684999999996 246.96484999999998 L 229.40464999999998 247.96464999999998 L 230.63724999999997 249.19714999999997 L 231.63704999999996 250.62505 L 232.37374999999997 252.20484999999996 L 232.82484999999997 253.88854999999998 L 232.97684999999996 255.62505 L 232.82484999999997 257.36154999999997 L 232.37374999999997 259.04525 L 232.27204999999995 259.26345 L 243.33234999999996 270.32375 L 261.16265 239.44084999999998 L 260.52975 238.53704999999997 L 259.79304999999994 236.95725 L 259.34194999999994 235.27344999999997 L 259.19005 233.53705 L 259.34194999999994 231.80055 L 259.79304999999994 230.11685 L 260.52975 228.53705 L 261.52955 227.10915 L 262.76214999999996 225.87654999999998 L 264.19005 224.87675 L 265.76984999999996 224.14004999999997 L 267.45354999999995 223.68894999999998 L 269.19005 223.53705 L 270.92645 223.68894999999998 L 272.61024999999995 224.14004999999997 L 274.19005 224.87675 L 275.61785 225.87654999999998 L 276.85044999999997 227.10915 L 277.85024999999996 228.53705 L 278.58694999999994 230.11685 L 279.03804999999994 231.80055 L 279.19005 233.53705 L 279.03804999999994 235.27344999999997 L 278.58694999999994 236.95725 L 277.85024999999996 238.53704999999997 L 276.85044999999997 239.96484999999998 L 275.61785 241.19745 L 274.19005 242.19725 L 272.61024999999995 242.93394999999998 L 270.92645 243.38504999999998 L 269.19005 243.53704999999997 L 268.09085 243.44084999999998 L 248.60254999999995 277.19565 L 260.92164999999994 309.73015 L 308.13314999999994 333.50005 L 325.07064999999994 282.21325 L 319.18874999999997 246.13995 L 305.35425 232.30544999999998 L 305.13615 232.40715 L 303.45234999999997 232.85834999999997 L 301.71594999999996 233.01024999999998 L 299.97945 232.85834999999997 L 298.29574999999994 232.40715 L 296.71594999999996 231.67055 L 295.28804999999994 230.67075 L 294.05544999999995 229.43814999999998 L 293.05564999999996 228.01024999999998 L 292.31895 226.43044999999998 L 291.86785 224.74675 L 291.71594999999996 223.01024999999998 L 291.86785 221.27374999999998 L 292.31895 219.59005 L 293.05564999999996 218.01024999999998 L 294.05544999999995 216.58235 L 295.28804999999994 215.34984999999998 L 296.71594999999996 214.35004999999998 L 298.29574999999994 213.61334999999997 L 299.97945 213.16215 L 301.71594999999996 213.01024999999998 L 303.45234999999997 213.16215 L 305.13615 213.61334999999997 L 306.71594999999996 214.35004999999998 L 308.14374999999995 215.34984999999998 L 309.37634999999995 216.58235 L 310.37614999999994 218.01024999999998 L 311.11285 219.59005 L 311.56395 221.27374999999998 L 311.71594999999996 223.01024999999998 L 311.56395 224.74675 L 311.11285 226.43044999999998 L 311.01115 226.64864999999998 L 322.07144999999997 237.70895 L 339.90174999999994 206.82604999999998 L 339.26885 205.92215 L 338.53214999999994 204.34234999999998 L 338.08104999999995 202.65865 L 337.92914999999994 200.92215 L 338.08104999999995 199.18574999999998 L 338.53214999999994 197.50195 L 339.26885 195.92215 L 340.26865 194.49435 L 341.50124999999997 193.26174999999998 L 342.92914999999994 192.26194999999998 L 344.50894999999997 191.52524999999997 L 346.19264999999996 191.07414999999997 L 347.92914999999994 190.92215 Z" stroke-miterlimit="10"/></g></svg>