<svg version="1.1" xmlns="http://www.w3.org/2000/svg" xmlns:xlink="http://www.w3.org/1999/xlink" width="900" height="900"><defs/><g><rect fill="#000000" stroke="none" x="0" y="0" width="900" height="900"/><path fill="#222222" stroke="#cccccc" paint-order="fill stroke markers" d=" M 499.68398 48.20766 L 501.07331 49.68317 L 535.87656 97.58574 L 537.33998 101.27469 L 536.85052 105.21302 L 535.87656 106.9903 L 501.07331 154.89286 L 500.69617 155.20529 L 500.46226 155.63554 L 499.18584 156.45645 L 498.01713 157.42461 L 497.53626 157.51735 L 497.12436 157.78225 L 496.14557 157.78554 L 494.1203 158.17611 L 492.9379 157.79631 L 492.12903 157.79903 L 441.34406 141.29799 L 413.37364 179.79599 L 444.76047 222.99627 L 446.22389 226.68522 L 446.1427 227.33852 L 446.28833 227.69855 L 445.91838 229.14346 L 445.73443 230.62355 L 445.3684 231.29148 L 445.30396 231.54316 L 445.1265 231.7329 L 444.76047 232.40083 L 413.37364 275.60111 L 443.23261 316.69848 L 494.60117 333.38913 L 542.91401 317.69134 L 542.91401 264.29285 L 543.27747 262.87331 L 543.44843 261.41794 L 543.76354 260.97491 L 543.89839 260.44824 L 544.89933 259.37803 L 545.74866 258.18391 L 546.2379 257.94683 L 546.60926 257.54977 L 548.44187 256.6844 L 599.22685 240.18336 L 599.22685 192.59722 L 548.44187 176.09618 L 545.08962 173.97194 L 543.17072 170.49806 L 542.91401 168.48773 L 542.91401 109.2769 L 543.89839 105.43229 L 546.60926 102.53382 L 548.44187 101.66845 L 604.75471 83.3713 L 608.71534 83.11945 L 612.30966 84.80196 L 613.69899 86.27747 L 648.50224 134.18004 L 648.68283 134.63526 L 649.01974 134.99067 L 649.40604 136.45832 L 649.96566 137.86899 L 649.90526 138.35497 L 650.02992 138.82858 L 649.73058 139.76049 L 649.4762 141.80732 L 648.74961 142.81448 L 648.50224 143.5846 L 617.1154 186.78488 L 645.08583 225.28288 L 695.8708 208.78184 L 699.83143 208.52999 L 703.42575 210.2125 L 704.81508 211.68801 L 739.61833 259.59057 L 741.08175 263.27952 L 740.59229 267.21785 L 739.61833 268.99513 L 708.23149 312.19542 L 736.20192 350.69342 L 786.98689 334.19238 L 790.94752 333.94053 L 794.54184 335.62304 L 795.93117 337.09855 L 830.73442 385.00111 L 832.19784 388.69006 L 831.70838 392.62839 L 830.73442 394.40567 L 795.93117 442.30823 L 792.87499 444.83998 L 788.97816 445.59148 L 786.98689 445.2144 L 730.67405 426.91725 L 730.26039 426.65512 L 729.7789 426.56562 L 728.60373 425.60534 L 727.3218 424.79301 L 727.085 424.36432 L 726.70579 424.05445 L 726.40021 423.12461 L 725.4029 421.31913 L 725.39873 420.07724 L 725.14619 419.3088 L 725.14619 365.91032 L 679.88908 351.20539 L 648.50224 394.40567 L 647.35367 395.35715 L 646.33485 396.44647 L 645.84397 396.60779 L 645.44606 396.93742 L 643.98155 397.21985 L 642.5646 397.68551 L 642.05659 397.59108 L 641.54923 397.68892 L 639.55796 397.31184 L 588.77299 380.8108 L 558.91401 421.90816 L 558.91401 475.92026 L 588.77299 517.01763 L 639.55796 500.51659 L 643.51859 500.26474 L 647.11291 501.94725 L 648.50224 503.42276 L 679.88908 546.62304 L 725.14619 531.91811 L 725.14619 478.51962 L 726.13057 474.67501 L 728.84144 471.77654 L 730.67405 470.91117 L 786.98689 452.61402 L 790.94752 452.36217 L 794.54184 454.04468 L 795.93117 455.52019 L 830.73442 503.42276 L 832.19784 507.11171 L 831.70838 511.05004 L 830.73442 512.82732 L 795.93117 560.72988 L 792.87499 563.26163 L 788.97816 564.01313 L 786.98689 563.63605 L 736.20192 547.13501 L 708.23149 585.63301 L 739.61833 628.83329 L 741.08175 632.52224 L 740.59229 636.46057 L 739.61833 638.23785 L 704.81508 686.14041 L 701.7589 688.67216 L 697.86207 689.42366 L 695.8708 689.04658 L 645.08583 672.54554 L 617.1154 711.04355 L 648.50224 754.24383 L 649.96566 757.93278 L 649.4762 761.87111 L 648.50224 763.64839 L 613.69899 811.55095 L 610.64281 814.0827 L 606.74598 814.8342 L 604.75471 814.45712 L 548.44187 796.15997 L 545.08962 794.03573 L 543.17072 790.56185 L 542.91401 788.55152 L 542.91401 729.3407 L 543.03548 728.86627 L 542.97182 728.3807 L 543.52196 726.96627 L 543.89839 725.49609 L 544.2329 725.13843 L 544.41043 724.682 L 545.20036 724.10402 L 546.60926 722.59762 L 547.78908 722.20989 L 548.44187 721.73225 L 599.22685 705.23121 L 599.22685 657.64506 L 548.44187 641.14402 L 548.02821 640.88189 L 547.54672 640.79239 L 546.37155 639.83211 L 545.08962 639.01978 L 544.85282 638.59109 L 544.47361 638.28122 L 543.90453 636.87435 L 543.17072 635.5459 L 543.0801 634.83621 L 542.98543 634.60218 L 543.01647 634.33794 L 542.91401 633.53557 L 542.91401 580.13709 L 494.60117 564.4393 L 443.23261 581.12995 L 413.37364 622.22731 L 444.76047 665.42759 L 446.22389 669.11654 L 445.73443 673.05487 L 444.76047 674.83215 L 413.37364 718.03244 L 441.34406 756.53044 L 492.12903 740.0294 L 496.08966 739.77755 L 499.68398 741.46006 L 501.07331 742.93557 L 535.87656 790.83813 L 537.33998 794.52708 L 536.85052 798.46541 L 535.87656 800.24269 L 501.07331 848.14525 L 498.01713 850.677 L 494.1203 851.4285 L 492.12903 851.05142 L 435.81619 832.75427 L 432.46394 830.63003 L 430.54504 827.15615 L 430.28833 825.14582 L 430.28833 771.74734 L 385.03123 757.04241 L 353.64439 800.24269 L 350.58821 802.77444 L 346.69138 803.52594 L 344.70011 803.14886 L 288.38727 784.85171 L 285.03502 782.72747 L 283.11612 779.25359 L 282.85941 777.24326 L 282.85941 723.84478 L 237.6023 709.13985 L 206.21546 752.34013 L 203.15928 754.87188 L 199.26245 755.62338 L 197.27118 755.2463 L 140.95834 736.94915 L 137.60609 734.82491 L 135.68719 731.35103 L 135.43048 729.3407 L 135.43048 670.12987 L 136.41486 666.28526 L 139.12573 663.38679 L 140.95834 662.52142 L 197.27118 644.22427 L 197.75992 644.19319 L 198.20206 643.98259 L 199.71729 644.06873 L 201.23181 643.97242 L 201.67533 644.18003 L 202.16429 644.20783 L 202.95809 644.7805 L 204.82613 645.65493 L 205.55947 646.65719 L 206.21546 647.13044 L 237.6023 690.33073 L 282.85941 675.62579 L 282.85941 622.22731 L 283.22287 620.80777 L 283.39383 619.3524 L 283.70894 618.90937 L 283.84379 618.3827 L 284.84473 617.31249 L 285.69406 616.11837 L 286.1833 615.88129 L 286.55466 615.48423 L 288.38727 614.61886 L 339.17225 598.11782 L 339.17225 547.3187 L 307.42472 503.62197 L 259.11189 487.92418 L 227.72505 531.12447 L 226.57648 532.07595 L 225.55766 533.16527 L 225.06678 533.32659 L 224.66887 533.65622 L 223.20436 533.93865 L 221.78741 534.40431 L 221.2794 534.30988 L 220.77204 534.40772 L 218.78077 534.03064 L 167.9958 517.5296 L 140.02537 556.0276 L 171.41221 599.22788 L 172.87563 602.91683 L 172.38617 606.85516 L 171.41221 608.63244 L 136.60896 656.535 L 133.55278 659.06675 L 129.65595 659.81825 L 127.66468 659.44117 L 71.35184 641.14402 L 67.99959 639.01978 L 66.08069 635.5459 L 65.82398 633.53557 L 65.82398 574.32475 L 65.94545 573.85032 L 65.88179 573.36475 L 66.43193 571.95032 L 66.80836 570.48014 L 67.14287 570.12248 L 67.3204 569.66605 L 68.11033 569.08807 L 69.51923 567.58167 L 70.69905 567.19394 L 71.35184 566.7163 L 122.13682 550.21526 L 122.13682 502.62911 L 71.35184 486.12807 L 67.99959 484.00383 L 66.08069 480.52995 L 65.82398 478.51962 L 65.82398 419.3088 L 66.18744 417.88926 L 66.3584 416.43389 L 66.67351 415.99086 L 66.80836 415.46419 L 67.8093 414.39398 L 68.65863 413.19986 L 69.14787 412.96278 L 69.51923 412.56572 L 71.35184 411.70035 L 122.13682 395.19931 L 122.13682 347.61317 L 71.35184 331.11213 L 67.99959 328.98789 L 66.08069 325.51401 L 65.82398 323.50368 L 65.82398 264.29285 L 66.80836 260.44824 L 69.51923 257.54977 L 71.35184 256.6844 L 127.66468 238.38725 L 131.62531 238.1354 L 135.21963 239.81791 L 136.60896 241.29342 L 171.41221 289.19598 L 172.87563 292.88493 L 172.38617 296.82326 L 171.41221 298.60054 L 140.02537 341.80083 L 167.9958 380.29883 L 218.78077 363.79779 L 222.7414 363.54594 L 226.33572 365.22845 L 227.72505 366.70396 L 259.11189 409.90424 L 307.42472 394.20645 L 339.17225 350.50973 L 339.17225 299.7106 L 288.38727 283.20956 L 287.97361 282.94743 L 287.49212 282.85793 L 286.31695 281.89765 L 285.03502 281.08532 L 284.79822 280.65663 L 284.41901 280.34676 L 283.84993 278.93989 L 283.11612 277.61144 L 283.0255 276.90175 L 282.93083 276.66772 L 282.96187 276.40348 L 282.85941 275.60111 L 282.85941 222.20263 L 237.6023 207.4977 L 206.21546 250.69798 L 203.15928 253.22973 L 199.26245 253.98123 L 197.27118 253.60415 L 140.95834 235.307 L 137.60609 233.18276 L 135.68719 229.70888 L 135.43048 227.69855 L 135.43048 168.48773 L 136.41486 164.64312 L 139.12573 161.74465 L 140.95834 160.87928 L 197.27118 142.58213 L 197.75992 142.55105 L 198.20206 142.34045 L 199.71729 142.42659 L 201.23181 142.33028 L 201.67533 142.53789 L 202.16429 142.56569 L 202.95809 143.13836 L 204.82613 144.01279 L 205.55947 145.01505 L 206.21546 145.4883 L 237.6023 188.68858 L 282.85941 173.98365 L 282.85941 120.58517 L 283.84379 116.74056 L 286.55466 113.84209 L 288.38727 112.97672 L 344.70011 94.67957 L 348.66074 94.42772 L 352.25506 96.11023 L 353.64439 97.58574 L 385.03123 140.78602 L 430.28833 126.08109 L 430.28833 72.6826 L 431.27271 68.83799 L 433.98358 65.93952 L 435.81619 65.07415 L 492.12903 46.777 L 496.08966 46.52515 Z M 446.28833 771.74734 L 446.28833 819.33348 L 491.54544 834.03841 L 519.51587 795.54041 L 491.54544 757.04241 Z M 558.91401 735.15304 L 558.91401 782.73918 L 604.17112 797.44411 L 632.14155 758.94611 L 604.17112 720.44811 Z M 298.85941 723.84478 L 298.85941 771.43092 L 344.11652 786.13585 L 372.08695 747.63785 L 344.11652 709.13985 Z M 355.17225 550.53168 L 355.17225 603.93016 L 354.18788 607.77477 L 351.477 610.67324 L 349.64439 611.53861 L 298.85941 628.03965 L 298.85941 681.43813 L 297.87504 685.28274 L 295.16416 688.18121 L 293.33155 689.04658 L 260.43511 699.73529 L 290.85941 709.62074 L 344.70011 692.12684 L 348.66074 691.87499 L 352.25506 693.5575 L 353.64439 695.03301 L 386.91978 740.83265 L 417.34406 750.7181 L 397.01295 722.73472 L 395.54953 719.04577 L 396.03899 715.10744 L 397.01295 713.33016 L 428.39978 670.12987 L 397.01295 626.92959 L 395.54953 623.24064 L 396.03899 619.30231 L 397.01295 617.52503 L 428.39978 574.32475 L 400.42936 535.82675 Z M 151.43048 675.94221 L 151.43048 723.52836 L 196.68759 738.23329 L 224.65802 699.73529 L 196.68759 661.23728 Z M 502.60117 502.62911 L 502.60117 550.21526 L 553.38615 566.7163 L 555.01838 567.7506 L 556.66419 568.76279 L 556.6809 568.8041 L 556.7384 568.84054 L 558.6573 572.31442 L 558.91401 574.32475 L 558.91401 627.72323 L 609.69899 644.22427 L 611.33122 645.25857 L 612.97703 646.27076 L 612.99374 646.31207 L 613.05124 646.34851 L 614.97014 649.82239 L 615.22685 651.83272 L 615.22685 686.42208 L 634.0301 660.54162 L 634.0301 603.93016 L 635.01448 600.08555 L 637.72535 597.18708 L 639.55796 596.32171 L 693.39866 578.82781 L 712.20191 552.94735 L 679.30549 563.63605 L 675.34486 563.8879 L 671.75054 562.20539 L 670.36121 560.72988 L 638.97437 517.5296 L 588.1894 534.03064 L 584.22877 534.28249 L 580.63445 532.59998 L 579.24512 531.12447 L 547.85828 487.92418 Z M 650.0301 609.7425 L 650.0301 657.32864 L 695.28721 672.03357 L 723.25764 633.53557 L 695.28721 595.03757 Z M 81.82398 580.13709 L 81.82398 627.72323 L 127.08109 642.42816 L 155.05152 603.93016 L 127.08109 565.43216 Z M 409.95723 376.10852 L 408.80866 377.06 L 407.78984 378.14932 L 407.29896 378.31064 L 406.90105 378.64027 L 405.43654 378.9227 L 404.01959 379.38836 L 403.51158 379.29393 L 403.00422 379.39177 L 401.01295 379.01469 L 350.22798 362.51365 L 322.25755 401.01165 L 353.64439 444.21193 L 355.10781 447.90088 L 354.61835 451.83921 L 353.64439 453.61649 L 322.25755 496.81677 L 350.22798 535.31478 L 401.01295 518.81374 L 404.97358 518.56189 L 408.5679 520.2444 L 409.95723 521.71991 L 441.34406 564.92019 L 486.60117 550.21526 L 486.60117 496.81677 L 486.96463 495.39723 L 487.13559 493.94186 L 487.4507 493.49883 L 487.58555 492.97216 L 488.58649 491.90195 L 489.43582 490.70783 L 489.92506 490.47075 L 490.29642 490.07369 L 492.12903 489.20832 L 542.91401 472.70728 L 542.91401 425.12114 L 492.12903 408.6201 L 491.71537 408.35797 L 491.23388 408.26847 L 490.05871 407.30819 L 488.77678 406.49586 L 488.53998 406.06717 L 488.16077 405.7573 L 487.59169 404.35043 L 486.85788 403.02198 L 486.76726 402.31229 L 486.67259 402.07826 L 486.70363 401.81402 L 486.60117 401.01165 L 486.60117 347.61317 L 441.34406 332.90824 Z M 741.14619 484.33196 L 741.14619 531.91811 L 786.4033 546.62304 L 814.37373 508.12504 L 786.4033 469.62703 Z M 138.13682 398.41229 L 171.41221 444.21193 L 172.87563 447.90088 L 172.38617 451.83921 L 171.41221 453.61649 L 138.13682 499.41613 L 138.13682 531.40613 L 158.46793 503.42276 L 159.21354 502.80509 L 159.77472 502.0161 L 160.71741 501.55928 L 161.52411 500.89101 L 162.47479 500.70767 L 163.34611 500.28544 L 164.39237 500.33787 L 165.42094 500.13951 L 167.21547 500.47933 L 167.30977 500.48406 L 167.34062 500.50303 L 167.41221 500.51659 L 218.19718 517.01763 L 249.58402 473.81734 L 250.32963 473.19967 L 250.89081 472.41068 L 251.8335 471.95386 L 252.6402 471.28559 L 253.59088 471.10225 L 254.4622 470.68002 L 255.50846 470.73245 L 256.53703 470.53409 L 258.33156 470.87391 L 258.42586 470.87864 L 258.45671 470.89761 L 258.5283 470.91117 L 309.31327 487.41221 L 337.2837 448.91421 L 309.31327 410.41621 L 258.5283 426.91725 L 254.56767 427.1691 L 250.97335 425.48659 L 249.58402 424.01108 L 218.19718 380.8108 L 167.41221 397.31184 L 163.45158 397.56369 L 159.85726 395.88118 L 158.46793 394.40567 L 138.13682 366.4223 Z M 81.82398 425.12114 L 81.82398 472.70728 L 127.08109 487.41221 L 155.05152 448.91421 L 127.08109 410.41621 Z M 741.14619 365.91032 L 741.14619 413.49646 L 786.4033 428.20139 L 814.37373 389.70339 L 786.4033 351.20539 Z M 615.22685 245.9957 L 614.24248 249.84031 L 611.5316 252.73878 L 609.69899 253.60415 L 558.91401 270.10519 L 558.91401 323.50368 L 557.92964 327.34829 L 555.21876 330.24676 L 553.38615 331.11213 L 502.60117 347.61317 L 502.60117 395.19931 L 547.85828 409.90424 L 579.24512 366.70396 L 579.99073 366.08629 L 580.55191 365.2973 L 581.4946 364.84048 L 582.3013 364.17221 L 583.25198 363.98887 L 584.1233 363.56664 L 585.16956 363.61907 L 586.19813 363.42071 L 587.99266 363.76053 L 588.08696 363.76526 L 588.11781 363.78423 L 588.1894 363.79779 L 638.97437 380.29883 L 670.36121 337.09855 L 671.10682 336.48088 L 671.668 335.69189 L 672.61069 335.23507 L 673.41739 334.5668 L 674.36807 334.38346 L 675.23939 333.96123 L 676.28565 334.01366 L 677.31422 333.8153 L 679.10875 334.15512 L 679.20305 334.15985 L 679.2339 334.17882 L 679.30549 334.19238 L 712.20191 344.88108 L 693.39866 319.00062 L 639.55796 301.50671 L 639.1443 301.24458 L 638.66281 301.15508 L 637.48764 300.1948 L 636.20571 299.38247 L 635.96891 298.95378 L 635.5897 298.64391 L 635.02062 297.23704 L 634.28681 295.90859 L 634.19619 295.1989 L 634.10152 294.96487 L 634.13256 294.70063 L 634.0301 293.89826 L 634.0301 237.2868 L 615.22685 211.40635 Z M 386.91978 156.99578 L 353.64439 202.79542 L 352.49582 203.7469 L 351.477 204.83622 L 350.98612 204.99754 L 350.58821 205.32717 L 349.1237 205.6096 L 347.70675 206.07526 L 347.19874 205.98083 L 346.69138 206.07867 L 344.70011 205.70159 L 290.85941 188.20769 L 260.43511 198.09314 L 293.33155 208.78184 L 294.96378 209.81614 L 296.60959 210.82833 L 296.6263 210.86964 L 296.6838 210.90608 L 298.6027 214.37996 L 298.85941 216.39029 L 298.85941 269.78877 L 349.64439 286.28981 L 351.27662 287.32411 L 352.92243 288.3363 L 352.93914 288.37761 L 352.99664 288.41405 L 354.91554 291.88793 L 355.17225 293.89826 L 355.17225 347.29675 L 400.42936 362.00168 L 428.39978 323.50368 L 397.01295 280.30339 L 396.29078 278.48297 L 395.55651 276.66772 L 395.55974 276.64019 L 395.54953 276.61444 L 395.791 274.6715 L 396.01951 272.7262 L 396.03557 272.70362 L 396.03899 272.67611 L 397.01295 270.89883 L 428.39978 227.69855 L 397.01295 184.49827 L 396.29078 182.67785 L 395.55651 180.8626 L 395.55974 180.83507 L 395.54953 180.80932 L 395.791 178.86638 L 396.01951 176.92108 L 396.03557 176.8985 L 396.03899 176.87099 L 397.01295 175.09371 L 417.34406 147.11033 Z M 81.82398 270.10519 L 81.82398 317.69134 L 127.08109 332.39627 L 155.05152 293.89826 L 127.08109 255.40026 Z M 650.0301 240.49978 L 650.0301 288.08592 L 695.28721 302.79086 L 723.25764 264.29285 L 695.28721 225.79485 Z M 151.43048 174.30007 L 151.43048 221.88621 L 196.68759 236.59114 L 224.65802 198.09314 L 196.68759 159.59514 Z M 298.85941 126.39751 L 298.85941 173.98365 L 344.11652 188.68858 L 372.08695 150.19058 L 344.11652 111.69258 Z M 558.91401 115.08924 L 558.91401 162.67539 L 604.17112 177.38032 L 632.14155 138.88232 L 604.17112 100.38431 Z M 446.28833 78.49494 L 446.28833 126.08109 L 491.54544 140.78602 L 519.51587 102.28802 L 491.54544 63.79001 Z" stroke-miterlimit="10"/></g></svg>