<svg version="1.1" xmlns="http://www.w3.org/2000/svg" xmlns:xlink="http://www.w3.org/1999/xlink" width="900" height="900"><defs/><g><rect fill="#000000" stroke="none" x="0" y="0" width="900" height="900"/><path fill="#222222" stroke="#cccccc" paint-order="fill stroke markers" d=" M 391.5301 60.83883 L 474.46815 87.78703 L 557.40621 60.83883 L 557.86798 60.80947 L 558.28439 60.60768 L 559.82626 60.68494 L 561.36684 60.58698 L 561.7859 60.78314 L 562.24805 60.8063 L 563.56303 61.61502 L 564.96116 62.26949 L 565.42063 62.75746 L 565.62853 62.88532 L 565.69444 63.04825 L 566.35049 63.745 L 617.60903 134.29633 L 700.54709 161.24454 L 702.17932 162.27884 L 703.82513 163.29103 L 703.84184 163.33234 L 703.89934 163.36878 L 705.81824 166.84266 L 706.07495 168.85299 L 706.07495 252.84624 L 785.95729 278.80159 L 787.58952 279.83589 L 789.23533 280.84808 L 789.25204 280.88939 L 789.30954 280.92583 L 791.22844 284.39971 L 791.48515 286.41004 L 791.48515 373.61627 L 842.74369 444.16761 L 844.20711 447.85656 L 843.71765 451.79489 L 842.74369 453.57217 L 791.48515 524.1235 L 791.48515 611.32973 L 790.50078 615.17434 L 787.7899 618.07281 L 785.95729 618.93818 L 706.07495 644.89353 L 706.07495 728.88678 L 705.09058 732.73139 L 702.3797 735.62986 L 700.54709 736.49523 L 617.60903 763.44344 L 566.35049 833.99477 L 563.29431 836.52652 L 559.39748 837.27802 L 557.40621 836.90094 L 474.46815 809.95274 L 391.5301 836.90094 L 387.56947 837.15279 L 383.97515 835.47028 L 382.58582 833.99477 L 333.21582 766.0428 L 253.3335 791.99814 L 249.37287 792.24999 L 245.77855 790.56748 L 244.38922 789.09197 L 193.13067 718.54064 L 110.19261 691.59244 L 109.77895 691.33031 L 109.29746 691.24081 L 108.12229 690.28053 L 106.84036 689.4682 L 106.60356 689.03951 L 106.22435 688.72964 L 105.65527 687.32277 L 104.92146 685.99432 L 104.83084 685.28463 L 104.73617 685.0506 L 104.76721 684.78636 L 104.66475 683.98399 L 104.66475 596.77775 L 53.40621 526.22642 L 52.68404 524.406 L 51.94977 522.59075 L 51.953 522.56322 L 51.94279 522.53747 L 52.18426 520.59453 L 52.41277 518.64923 L 52.42883 518.62665 L 52.43225 518.59914 L 53.40621 516.82186 L 102.7762 448.86989 L 53.40621 380.91791 L 52.68404 379.09749 L 51.94977 377.28224 L 51.953 377.25471 L 51.94279 377.22896 L 52.18426 375.28602 L 52.41277 373.34072 L 52.42883 373.31814 L 52.43225 373.29063 L 53.40621 371.51335 L 104.66475 300.96202 L 104.66475 213.75578 L 105.02821 212.33624 L 105.19917 210.88087 L 105.51428 210.43784 L 105.64913 209.91117 L 106.65007 208.84096 L 107.4994 207.64684 L 107.98864 207.40976 L 108.36 207.0127 L 110.19261 206.14733 L 193.13067 179.19913 L 244.38922 108.6478 L 247.4454 106.11605 L 251.34223 105.36455 L 253.3335 105.74163 L 333.21582 131.69697 L 382.58582 63.745 L 385.642 61.21325 L 389.53883 60.46175 Z M 428.15389 789.09197 L 427.00532 790.04345 L 425.9865 791.13277 L 425.49562 791.29409 L 425.09771 791.62372 L 423.6332 791.90615 L 422.21625 792.37181 L 421.70824 792.27738 L 421.20088 792.37522 L 419.20961 791.99814 L 357.21582 771.85514 L 392.11369 819.88793 L 466.46815 795.7287 L 466.46815 736.35691 Z M 482.46815 717.54778 L 482.46815 795.7287 L 556.82262 819.88793 L 602.7762 756.63824 L 556.82262 693.38855 Z M 207.9635 711.73544 L 253.91709 774.98513 L 310.38302 756.63824 L 248.38922 736.49523 L 245.03697 734.37099 L 243.11807 730.89711 L 242.86136 728.88678 L 242.86136 663.70266 Z M 349.21583 752.43239 L 418.62602 774.98513 L 461.52388 715.94129 L 392.11369 693.38855 Z M 651.76069 716.43772 L 648.70451 718.96947 L 644.80768 719.72097 L 642.81641 719.34389 L 580.82262 699.20089 L 615.72048 747.23368 L 690.07495 723.07444 L 690.07495 663.70267 Z M 258.86136 723.07444 L 328.27155 745.62718 L 328.27155 672.64498 L 258.86136 650.09224 Z M 344.27155 230.90713 L 343.28718 234.75174 L 340.5763 237.65021 L 338.74369 238.51558 L 276.7499 258.65858 L 338.74369 278.80159 L 340.37592 279.83589 L 342.02173 280.84808 L 342.03844 280.88939 L 342.09594 280.92583 L 344.01484 284.39971 L 344.27155 286.41004 L 344.27155 376.21563 L 343.28718 380.06024 L 340.5763 382.95871 L 338.74369 383.82408 L 253.3335 411.57554 L 252.34082 411.63866 L 251.39586 411.94921 L 250.39193 411.76259 L 249.37287 411.82739 L 248.47202 411.4057 L 247.49407 411.22391 L 246.70336 410.57778 L 245.77855 410.14488 L 244.46041 408.74498 L 244.42096 408.71274 L 244.41411 408.6958 L 244.38922 408.66937 L 206.07495 355.93431 L 206.07495 421.11843 L 205.09058 424.96304 L 202.3797 427.86151 L 200.54709 428.72688 L 138.55329 448.86989 L 200.54709 469.01289 L 202.17932 470.04719 L 203.82513 471.05938 L 203.84184 471.10069 L 203.89934 471.13713 L 205.81824 474.61101 L 206.07495 476.62134 L 206.07495 541.80547 L 244.38922 489.0704 L 245.13483 488.45273 L 245.69601 487.66374 L 246.6387 487.20692 L 247.4454 486.53865 L 248.39608 486.35531 L 249.2674 485.93308 L 250.31366 485.98551 L 251.34223 485.78715 L 253.13676 486.12697 L 253.23106 486.1317 L 253.26191 486.15067 L 253.3335 486.16423 L 338.74369 513.91569 L 340.37592 514.94999 L 342.02173 515.96218 L 342.03844 516.00349 L 342.09594 516.03993 L 344.01484 519.51381 L 344.27155 521.52414 L 344.27155 611.32973 L 343.28718 615.17434 L 340.5763 618.07281 L 338.74369 618.93818 L 276.7499 639.08119 L 338.74369 659.22419 L 342.09594 661.34843 L 344.01484 664.82231 L 344.27155 666.83264 L 344.27155 732.01677 L 382.58582 679.28171 L 385.642 676.74996 L 389.53883 675.99846 L 391.5301 676.37554 L 453.52388 696.51854 L 415.20961 643.78347 L 414.48744 641.96305 L 413.75317 640.1478 L 413.7564 640.12027 L 413.74619 640.09452 L 413.98766 638.15158 L 414.21617 636.20628 L 414.23223 636.1837 L 414.23565 636.15619 L 415.20961 634.37891 L 467.99601 561.72466 L 468.74162 561.10699 L 469.3028 560.318 L 470.24549 559.86118 L 471.05219 559.19291 L 472.00287 559.00957 L 472.87419 558.58734 L 473.92045 558.63977 L 474.94902 558.44141 L 476.74355 558.78123 L 476.83785 558.78596 L 476.8687 558.80493 L 476.94029 558.81849 L 562.35049 586.56994 L 563.98272 587.60424 L 565.62853 588.61643 L 565.64524 588.65774 L 565.70274 588.69418 L 567.62164 592.16806 L 567.87835 594.17839 L 567.87835 659.36251 L 606.19261 606.62745 L 606.93822 606.00978 L 607.4994 605.22079 L 608.44209 604.76397 L 609.24879 604.0957 L 610.19947 603.91236 L 611.07079 603.49013 L 612.11705 603.54256 L 613.14562 603.3442 L 614.94015 603.68402 L 615.03445 603.68875 L 615.0653 603.70772 L 615.13689 603.72128 L 677.13068 623.86428 L 638.81641 571.12922 L 638.09424 569.3088 L 637.35997 567.49355 L 637.3632 567.46602 L 637.35299 567.44027 L 637.59446 565.49733 L 637.82297 563.55203 L 637.83903 563.52945 L 637.84245 563.50194 L 638.81641 561.72466 L 677.13068 508.98958 L 615.13689 529.13259 L 611.17626 529.38444 L 607.58194 527.70193 L 606.19261 526.22642 L 553.40621 453.57217 L 551.94279 449.88322 L 552.43225 445.94489 L 553.40621 444.16761 L 606.19261 371.51335 L 609.24879 368.9816 L 613.14562 368.2301 L 615.13689 368.60718 L 677.13068 388.75018 L 638.81641 336.01512 L 638.09424 334.1947 L 637.35997 332.37945 L 637.3632 332.35192 L 637.35299 332.32617 L 637.59446 330.38323 L 637.82297 328.43793 L 637.83903 328.41535 L 637.84245 328.38784 L 638.81641 326.61056 L 677.13068 273.87548 L 615.13689 294.01849 L 614.14421 294.08161 L 613.19925 294.39216 L 612.19532 294.20554 L 611.17626 294.27034 L 610.27541 293.84865 L 609.29746 293.66686 L 608.50675 293.02073 L 607.58194 292.58783 L 606.2638 291.18793 L 606.22435 291.15569 L 606.2175 291.13875 L 606.19261 291.11232 L 567.87835 238.37726 L 567.87835 303.56138 L 566.89398 307.40599 L 564.1831 310.30446 L 562.35049 311.16983 L 476.94029 338.92129 L 475.94761 338.98441 L 475.00265 339.29496 L 473.99872 339.10834 L 472.97966 339.17314 L 472.07881 338.75145 L 471.10086 338.56966 L 470.31015 337.92353 L 469.38534 337.49063 L 468.0672 336.09073 L 468.02775 336.05849 L 468.0209 336.04155 L 467.99601 336.01512 L 415.20961 263.36086 L 414.48744 261.54044 L 413.75317 259.72519 L 413.7564 259.69766 L 413.74619 259.67191 L 413.98766 257.72897 L 414.21617 255.78367 L 414.23223 255.76109 L 414.23565 255.73358 L 415.20961 253.9563 L 453.52388 201.22123 L 391.5301 221.36423 L 390.53742 221.42735 L 389.59246 221.7379 L 388.58853 221.55128 L 387.56947 221.61608 L 386.66862 221.19439 L 385.69067 221.0126 L 384.89996 220.36647 L 383.97515 219.93357 L 382.65701 218.53367 L 382.61756 218.50143 L 382.61071 218.48449 L 382.58582 218.45806 L 344.27155 165.723 Z M 120.66475 599.99073 L 120.66475 678.17165 L 195.01922 702.33088 L 240.97281 639.08119 L 195.01922 575.8315 Z M 431.5703 639.08119 L 477.52388 702.33088 L 551.87835 678.17165 L 551.87835 599.99073 L 477.52388 575.8315 Z M 572.82262 679.77814 L 642.23282 702.33088 L 685.13068 643.28704 L 615.72048 620.73429 Z M 207.9635 566.42694 L 253.91709 629.67663 L 328.27155 605.51739 L 328.27155 527.33648 L 253.91709 503.17724 Z M 655.1771 566.42694 L 698.07495 625.47078 L 740.97281 566.42694 L 698.07495 507.3831 Z M 757.3335 561.72466 L 758.79692 565.41361 L 758.30746 569.35194 L 757.3335 571.12922 L 719.01923 623.86428 L 775.48515 605.51739 L 775.48515 527.33648 L 719.01923 508.98959 Z M 69.7669 521.52414 L 115.72048 584.77383 L 172.18641 566.42694 L 110.19261 546.28393 L 109.77895 546.0218 L 109.29746 545.9323 L 108.12229 544.97202 L 106.84036 544.15969 L 106.60356 543.731 L 106.22435 543.42113 L 105.65527 542.01426 L 104.92146 540.68581 L 104.83084 539.97612 L 104.73617 539.74209 L 104.76721 539.47785 L 104.66475 538.67548 L 104.66475 473.49136 Z M 120.66475 532.86314 L 190.07495 555.41588 L 190.07495 482.43368 L 120.66475 459.88094 Z M 569.7669 448.86989 L 615.72048 512.11958 L 690.07495 487.96034 L 690.07495 409.77943 L 615.72048 385.62019 Z M 706.07495 409.77943 L 706.07495 487.96034 L 780.42942 512.11958 L 826.383 448.86989 L 780.42942 385.62019 Z M 120.66475 364.87663 L 120.66475 437.85883 L 190.07495 415.30609 L 190.07495 342.32389 Z M 69.7669 376.21563 L 104.66475 424.24841 L 104.66475 359.06429 L 105.02821 357.64475 L 105.19917 356.18938 L 105.51428 355.74635 L 105.64913 355.21968 L 106.65007 354.14947 L 107.4994 352.95535 L 107.98864 352.71827 L 108.36 352.32121 L 110.19261 351.45584 L 172.18641 331.31284 L 115.72048 312.96594 Z M 207.9635 331.31284 L 253.91709 394.56253 L 328.27155 370.40329 L 328.27155 292.22238 L 253.91709 268.06314 Z M 655.1771 331.31284 L 698.07495 390.35667 L 740.97281 331.31284 L 698.07495 272.269 Z M 757.3335 326.61056 L 758.79692 330.29951 L 758.71573 330.95281 L 758.86136 331.31284 L 758.49141 332.75775 L 758.30746 334.23784 L 757.94143 334.90577 L 757.87699 335.15745 L 757.69953 335.34719 L 757.3335 336.01512 L 719.01923 388.75018 L 775.48515 370.40329 L 775.48515 292.22238 L 719.01923 273.87549 Z M 120.66475 219.56812 L 120.66475 297.74904 L 195.01922 321.90828 L 240.97281 258.65858 L 195.01922 195.40889 Z M 431.5703 258.65858 L 477.52388 321.90828 L 551.87835 297.74904 L 551.87835 219.56812 L 477.52388 195.40889 Z M 572.82262 217.96163 L 615.72048 277.00548 L 685.13068 254.45273 L 642.23282 195.40889 Z M 258.86136 174.66533 L 258.86136 247.64753 L 328.27155 225.09479 L 328.27155 152.11259 Z M 207.9635 186.00433 L 242.86136 234.03711 L 242.86136 168.85299 L 243.22482 167.43345 L 243.39578 165.97808 L 243.71089 165.53505 L 243.84574 165.00838 L 244.84668 163.93817 L 245.69601 162.74405 L 246.18525 162.50697 L 246.55661 162.10991 L 248.38922 161.24454 L 310.38302 141.10153 L 253.91709 122.75464 Z M 580.82262 198.53888 L 642.81641 178.39588 L 643.27818 178.36652 L 643.69459 178.16473 L 645.23646 178.24199 L 646.77704 178.14403 L 647.1961 178.34019 L 647.65825 178.36335 L 648.97323 179.17207 L 650.37136 179.82654 L 650.83083 180.31451 L 651.03873 180.44237 L 651.10464 180.6053 L 651.76069 181.30205 L 690.07495 234.03711 L 690.07495 174.66533 L 615.72048 150.50609 Z M 349.21583 145.30738 L 392.11369 204.35122 L 461.52388 181.79848 L 418.62602 122.75464 Z M 482.46815 102.01107 L 482.46815 180.19199 L 556.82262 204.35122 L 602.7762 141.10153 L 556.82262 77.85184 Z M 357.21582 125.88463 L 419.20961 105.74163 L 423.17024 105.48978 L 426.76456 107.17229 L 428.15389 108.6478 L 466.46815 161.38286 L 466.46815 102.01107 L 392.11369 77.85184 Z" stroke-miterlimit="10"/></g></svg>