<svg version="1.1" xmlns="http://www.w3.org/2000/svg" xmlns:xlink="http://www.w3.org/1999/xlink" width="900" height="900"><defs/><g><path fill="#222222" stroke="#cccccc" paint-order="fill stroke markers" d=" M 393.56634 211.29054 L 395.10446 211.59649 L 396.6052 212.05173 L 398.0541 212.65188 L 399.4372 213.39116 L 400.74121 214.26248 L 401.9535 215.25739 L 403.06242 216.36631 L 404.05732 217.5786 L 404.92859 218.88255 L 405.66787 220.26564 L 406.26803 221.71454 L 406.72328 223.21529 L 407.02924 224.75348 L 407.18295 226.3142 L 407.18295 227.8824 L 407.02924 229.44312 L 406.72328 230.98131 L 406.26803 232.48206 L 405.66787 233.93096 L 404.92859 235.31405 L 404.05732 236.618 L 403.06242 237.83029 L 401.9535 238.93921 L 400.74121 239.93412 L 399.4372 240.80544 L 399.22147 240.92075 L 399.22147 277.49894 L 408.85503 290.75839 L 420.01645 275.39602 L 421.38202 273.94014 L 423.06551 272.86764 L 424.9621 272.24529 L 426.95372 272.11183 L 428.91639 272.47558 L 430.72791 273.31389 L 432.27551 274.57457 L 433.46284 276.17914 L 434.21598 278.02769 L 434.48805 280.00515 L 434.2621 281.98841 L 433.55221 283.854 L 432.96073 284.80058 L 416.85503 306.96817 L 416.85503 346.76945 L 426.48859 360.0289 L 437.65001 344.66653 L 439.01558 343.21065 L 440.69907 342.13815 L 442.59566 341.5158 L 444.58728 341.38234 L 446.54995 341.74609 L 448.36147 342.5844 L 449.90907 343.84508 L 451.0964 345.44965 L 451.84954 347.2982 L 452.12161 349.27566 L 451.89566 351.25892 L 451.18577 353.12451 L 450.59429 354.07109 L 434.48859 376.23868 L 434.48859 416.03996 L 450 437.38958 L 465.51141 416.03996 L 465.51141 373.63932 L 465.76043 371.65882 L 466.492 369.80163 L 467.66057 368.18335 L 469.19338 366.90473 L 470.99502 366.04539 L 472.95332 365.65881 L 474.94636 365.76907 L 476.85007 366.36929 L 478.54593 367.42212 L 479.92836 368.862 L 480.91129 370.5993 L 481.43354 372.52586 L 481.51141 373.63932 L 481.51141 407.62827 L 511.36467 397.92836 L 525.94251 377.86369 L 525.94251 338.06241 L 511.36467 317.99774 L 471.03927 304.89522 L 469.23266 304.04638 L 467.69243 302.77671 L 466.51446 301.16526 L 465.77209 299.31236 L 465.51155 297.33334 L 465.74904 295.35143 L 466.46978 293.49001 L 467.6289 291.86495 L 469.15425 290.57744 L 470.95085 289.70762 L 472.90687 289.30964 L 474.90052 289.40829 L 475.98355 289.67832 L 508.30895 300.18148 L 508.30895 272.01497 L 508.09323 271.89967 L 506.78925 271.02838 L 505.57696 270.03348 L 504.46801 268.92453 L 503.47311 267.71224 L 502.60182 266.40826 L 501.86254 265.02516 L 501.26241 263.5763 L 500.80716 262.07556 L 500.50119 260.53741 L 500.34747 258.97669 L 500.34747 257.4084 L 500.50119 255.84767 L 500.80716 254.30951 L 501.26241 252.80877 L 501.86254 251.35991 L 502.60182 249.97681 L 503.47311 248.67283 L 504.46801 247.46054 L 505.57696 246.35159 L 506.78925 245.35669 L 508.09323 244.4854 L 509.47633 243.74612 L 510.92519 243.14599 L 512.42593 242.69074 L 513.96413 242.38477 L 515.52485 242.23106 L 517.09304 242.23106 L 518.65377 242.38477 L 520.19198 242.69074 L 521.69272 243.14599 L 523.14158 243.74612 L 524.52468 244.4854 L 525.82866 245.35669 L 527.04095 246.35159 L 528.1499 247.46054 L 529.1448 248.67283 L 530.01609 249.97681 L 530.75537 251.35991 L 531.3555 252.80877 L 531.81075 254.30951 L 532.11672 255.84772 L 532.27043 257.40845 L 532.27043 258.97664 L 532.11672 260.53736 L 531.81075 262.07556 L 531.3555 263.5763 L 530.75537 265.02516 L 530.01609 266.40826 L 529.1448 267.71224 L 528.1499 268.92453 L 527.04095 270.03348 L 525.82866 271.02838 L 524.52468 271.89967 L 524.30895 272.01498 L 524.30895 308.59318 L 533.94251 321.85263 L 545.10393 306.49026 L 546.4695 305.03438 L 548.15299 303.96188 L 550.04958 303.33953 L 552.0412 303.20607 L 554.00387 303.56982 L 555.81539 304.40813 L 557.36299 305.66881 L 558.55032 307.27338 L 559.30346 309.12193 L 559.57553 311.09939 L 559.34958 313.08265 L 558.63969 314.94824 L 558.04821 315.89482 L 541.94251 338.06241 L 541.94251 369.45199 L 571.79577 359.75208 L 586.37361 339.68741 L 586.37361 297.28677 L 586.62263 295.30627 L 587.3542 293.44908 L 588.52277 291.8308 L 590.05558 290.55218 L 591.85722 289.69284 L 593.81552 289.30626 L 595.80856 289.41652 L 597.71227 290.01674 L 599.40813 291.06957 L 600.79056 292.50945 L 601.77349 294.24675 L 602.29574 296.17331 L 602.37361 297.28677 L 602.37361 331.27572 L 629.16155 322.57179 L 629.20456 322.33096 L 629.63023 320.82163 L 630.20181 319.36123 L 630.91382 317.96384 L 631.75934 316.64301 L 632.73023 315.41143 L 633.81718 314.28093 L 635.00973 313.2624 L 636.29635 312.36568 L 637.66466 311.59939 L 639.10149 310.97091 L 640.59298 310.4863 L 642.12482 310.1502 L 643.68225 309.96586 L 645.25022 309.93507 L 646.81367 310.05812 L 648.35752 310.33382 L 649.8669 310.75951 L 651.3273 311.3311 L 652.72461 312.04306 L 654.04544 312.88857 L 655.2771 313.85954 L 656.40759 314.9465 L 657.42603 316.13894 L 658.32276 317.42555 L 659.08909 318.79392 L 659.71757 320.23075 L 660.20219 321.72229 L 660.53828 323.25413 L 660.72261 324.81145 L 660.75341 326.37942 L 660.63036 327.94293 L 660.35466 329.48678 L 659.92897 330.99616 L 659.35738 332.45656 L 658.64539 333.8539 L 657.79987 335.17473 L 656.82898 336.40631 L 655.74203 337.53681 L 654.5495 338.55532 L 653.26289 339.45204 L 651.89454 340.21836 L 650.4577 340.84684 L 648.96624 341.33144 L 647.43441 341.66754 L 645.87697 341.85188 L 644.30899 341.88267 L 642.74554 341.75962 L 641.20169 341.48392 L 639.69231 341.05823 L 638.23191 340.48664 L 636.83458 339.77466 L 635.51376 338.92915 L 634.28215 337.95823 L 634.10582 337.78869 L 599.31789 349.09197 L 589.68432 362.35143 L 607.74389 368.21934 L 609.5505 369.06818 L 611.09073 370.33785 L 612.2687 371.9493 L 613.01107 373.8022 L 613.27161 375.78122 L 613.03413 377.76313 L 612.31338 379.62455 L 611.15426 381.24961 L 609.62891 382.53712 L 607.83231 383.40694 L 605.87629 383.80492 L 603.88264 383.70627 L 602.79961 383.43624 L 576.74005 374.96898 L 538.88679 387.26825 L 529.25322 400.52771 L 547.31279 406.39562 L 549.1194 407.24446 L 550.65963 408.51413 L 551.8376 410.12558 L 552.57997 411.97848 L 552.84051 413.9575 L 552.60303 415.93941 L 551.88228 417.80083 L 550.72316 419.42589 L 549.19781 420.7134 L 547.40121 421.58322 L 545.44519 421.9812 L 543.45154 421.88255 L 542.36851 421.61252 L 516.30895 413.14526 L 478.45569 425.44452 L 462.94427 446.79415 L 488.04226 454.94898 L 528.36766 441.84647 L 530.32818 441.4713 L 532.32055 441.59315 L 534.22073 442.20445 L 535.91043 443.26713 L 537.28445 444.71504 L 538.25726 446.45803 L 538.76828 448.3876 L 538.78571 450.38361 L 538.30846 452.32181 L 537.36625 454.08153 L 536.01772 455.55321 L 534.34684 456.64524 L 533.31194 457.06337 L 500.98654 467.56653 L 519.43688 492.96124 L 543.0243 500.62525 L 580.87756 488.32599 L 595.45539 468.26132 L 595.45539 425.86068 L 595.70441 423.88018 L 596.43598 422.02299 L 597.60455 420.40471 L 599.13736 419.12609 L 600.939 418.26675 L 602.8973 417.88017 L 604.89034 417.99043 L 606.79405 418.59065 L 608.48991 419.64348 L 609.87234 421.08336 L 610.85527 422.82066 L 611.37752 424.74722 L 611.45539 425.86068 L 611.45539 459.84963 L 638.24333 451.1457 L 638.28634 450.90487 L 638.71203 449.39549 L 639.28362 447.93509 L 639.99558 446.53778 L 640.84109 445.21695 L 641.81201 443.98534 L 642.89896 442.85484 L 644.09151 441.83631 L 645.37813 440.93959 L 646.74644 440.1733 L 648.18327 439.54482 L 649.67476 439.06021 L 651.2066 438.72411 L 652.76403 438.53977 L 654.332 438.50898 L 655.89545 438.63203 L 657.4393 438.90773 L 658.94868 439.33342 L 660.40908 439.90501 L 661.80639 440.61697 L 663.12722 441.46248 L 664.35883 442.4334 L 665.48933 443.52035 L 666.50786 444.7129 L 667.40458 445.99952 L 668.17087 447.36783 L 668.79935 448.80466 L 669.28396 450.29615 L 669.62006 451.82799 L 669.8044 453.38542 L 669.83519 454.95339 L 669.71214 456.51684 L 669.43644 458.06069 L 669.01075 459.57007 L 668.43916 461.03047 L 667.72717 462.42781 L 666.88165 463.74864 L 665.91076 464.98022 L 664.82381 466.11072 L 663.63128 467.12923 L 662.34467 468.02595 L 660.97632 468.79227 L 659.53948 469.42075 L 658.04802 469.90535 L 656.51619 470.24145 L 654.95875 470.42579 L 653.39078 470.45658 L 651.82733 470.33353 L 650.28348 470.05783 L 648.77412 469.63215 L 647.31371 469.06056 L 645.91632 468.34855 L 644.5955 467.50303 L 643.36395 466.53215 L 643.18761 466.3626 L 608.39967 477.66588 L 598.76611 490.92534 L 616.82567 496.79325 L 618.63228 497.64209 L 620.17251 498.91176 L 621.35048 500.52321 L 622.09285 502.37611 L 622.35339 504.35513 L 622.11591 506.33704 L 621.39516 508.19846 L 620.23604 509.82352 L 618.71069 511.11103 L 616.91409 511.98085 L 614.95807 512.37883 L 612.96442 512.28018 L 611.88139 512.01015 L 585.82183 503.54289 L 555.96856 513.2428 L 574.41891 538.63752 L 598.00632 546.30153 L 638.33173 533.19901 L 640.29225 532.82384 L 642.28462 532.94569 L 644.1848 533.55699 L 645.8745 534.61967 L 647.24852 536.06758 L 648.22133 537.81057 L 648.73235 539.74014 L 648.74978 541.73615 L 648.27253 543.67435 L 647.33032 545.43407 L 645.98179 546.90575 L 644.31091 547.99778 L 643.27601 548.41591 L 610.95059 558.91908 L 627.50645 581.70626 L 627.74877 581.67274 L 629.3158 581.61117 L 630.88136 581.70349 L 632.43037 581.94883 L 633.94783 582.34481 L 635.41916 582.88762 L 636.83021 583.57203 L 638.16737 584.39144 L 639.41779 585.33798 L 640.56942 586.40254 L 641.61115 587.57484 L 642.53295 588.84358 L 643.32596 590.19658 L 643.98255 591.62083 L 644.49636 593.10255 L 644.86246 594.62748 L 645.07733 596.18096 L 645.1389 597.74799 L 645.04658 599.31355 L 644.80124 600.86256 L 644.40526 602.38002 L 643.86245 603.85135 L 643.17804 605.2624 L 642.35863 606.59956 L 641.41209 607.84998 L 640.34753 609.00161 L 639.17523 610.04334 L 637.90649 610.96514 L 636.55349 611.75815 L 635.12925 612.41473 L 633.64754 612.92854 L 632.12259 613.29465 L 630.5691 613.50952 L 629.00208 613.57109 L 627.43653 613.47877 L 625.88752 613.23343 L 624.37006 612.83745 L 622.89875 612.29465 L 621.48769 611.61024 L 620.15049 610.7908 L 618.90008 609.84426 L 617.74847 608.77972 L 616.70674 607.60742 L 615.78494 606.33868 L 614.99193 604.98568 L 614.33536 603.56147 L 613.82154 602.07975 L 613.45542 600.55478 L 613.24055 599.0013 L 613.17899 597.43422 L 613.27132 595.86866 L 613.51664 594.31975 L 613.91261 592.80229 L 614.45543 591.33091 L 614.56218 591.11082 L 593.06204 561.51843 L 577.47463 556.45378 L 577.47463 575.44272 L 577.22561 577.42322 L 576.49404 579.28041 L 575.32547 580.89869 L 573.79266 582.17731 L 571.99102 583.03665 L 570.03272 583.42323 L 568.03968 583.31297 L 566.13597 582.71275 L 564.44011 581.65992 L 563.05768 580.22004 L 562.07475 578.48274 L 561.5525 576.55618 L 561.47463 575.44272 L 561.47463 548.04208 L 538.08001 515.84215 L 522.4926 510.7775 L 522.4926 529.76644 L 522.24358 531.74694 L 521.51201 533.60413 L 520.34344 535.22241 L 518.81063 536.50103 L 517.00899 537.36037 L 515.05069 537.74695 L 513.05765 537.63669 L 511.15394 537.03647 L 509.45808 535.98364 L 508.07565 534.54376 L 507.09272 532.80646 L 506.57047 530.8799 L 506.4926 529.76644 L 506.4926 502.3658 L 483.09798 470.16588 L 458 462.01105 L 458 488.40064 L 482.92248 522.70348 L 483.88512 524.4521 L 484.3849 526.38461 L 484.39071 528.38069 L 483.90219 530.31608 L 482.94974 532.07028 L 481.59267 533.53409 L 479.91546 534.61637 L 478.02252 535.24975 L 476.03171 535.3948 L 474.06696 535.04248 L 472.25059 534.21473 L 470.69568 532.96308 L 469.9782 532.10804 L 450 504.61041 L 431.54966 530.00512 L 431.54966 554.8064 L 454.94428 587.00633 L 478.5317 594.67034 L 518.8571 581.56782 L 520.81762 581.19265 L 522.80999 581.3145 L 524.71017 581.9258 L 526.39987 582.98848 L 527.77389 584.43639 L 528.7467 586.17938 L 529.25772 588.10895 L 529.27515 590.10496 L 528.7979 592.04316 L 527.85569 593.80287 L 526.50716 595.27456 L 524.83628 596.36659 L 523.80138 596.78472 L 491.47597 607.28789 L 508.03183 630.07507 L 508.27416 630.04155 L 509.84118 629.97998 L 511.40673 630.0723 L 512.95574 630.31764 L 514.4732 630.71362 L 515.94453 631.25643 L 517.35558 631.94084 L 518.69274 632.76025 L 519.94316 633.70679 L 521.09479 634.77135 L 522.13652 635.94365 L 523.05832 637.21239 L 523.85133 638.56539 L 524.50792 639.98964 L 525.02173 641.47136 L 525.38782 642.99624 L 525.6027 644.54972 L 525.66427 646.11685 L 525.57194 647.68241 L 525.32661 649.23137 L 524.93063 650.74883 L 524.38784 652.22012 L 523.70344 653.63117 L 522.88399 654.9684 L 521.93744 656.21882 L 520.87293 657.3704 L 519.70064 658.41213 L 518.43185 659.33396 L 517.07884 660.12697 L 515.65462 660.78354 L 514.17291 661.29735 L 512.64796 661.66346 L 511.09447 661.87833 L 509.52745 661.9399 L 507.9619 661.84758 L 506.41289 661.60224 L 504.89543 661.20626 L 503.4241 660.66345 L 502.01305 659.97904 L 500.67589 659.15963 L 499.42547 658.21309 L 498.27384 657.14853 L 497.23211 655.97623 L 496.31031 654.70749 L 495.5173 653.35449 L 494.86073 651.93028 L 494.34691 650.44856 L 493.98079 648.92359 L 493.76592 647.37011 L 493.70436 645.80303 L 493.79669 644.23747 L 494.04201 642.68856 L 494.43798 641.1711 L 494.9808 639.69972 L 495.08755 639.47963 L 473.58742 609.88724 L 458 604.82258 L 458 623.81153 L 457.75098 625.79203 L 457.01941 627.64922 L 455.85084 629.2675 L 454.31803 630.54612 L 452.51639 631.40546 L 450.55809 631.79204 L 448.56505 631.68178 L 446.66134 631.08156 L 444.96548 630.02873 L 443.58305 628.58885 L 442.60012 626.85155 L 442.07787 624.92499 L 442 623.81153 L 442 596.41089 L 423.54966 571.01618 L 405.09933 596.41089 L 405.09933 621.21217 L 430.0218 655.51501 L 430.98444 657.26364 L 431.48422 659.19614 L 431.49003 661.19223 L 431.00151 663.12761 L 430.04906 664.88181 L 428.69199 666.34562 L 427.01478 667.4279 L 425.12184 668.06128 L 423.13103 668.20633 L 421.16628 667.85401 L 419.34991 667.02626 L 417.795 665.77461 L 417.07752 664.91957 L 397.09933 637.42195 L 380.54347 660.20912 L 380.65022 660.42921 L 381.19303 661.90054 L 381.58901 663.418 L 381.83435 664.96701 L 381.92667 666.53257 L 381.8651 668.0996 L 381.65023 669.65308 L 381.28411 671.17805 L 380.77029 672.65977 L 380.11372 674.08398 L 379.32071 675.43698 L 378.39891 676.70572 L 377.35718 677.87802 L 376.20557 678.94256 L 374.95516 679.8891 L 373.61798 680.70853 L 372.20693 681.39294 L 370.73559 681.93575 L 369.21812 682.33173 L 367.66912 682.57707 L 366.10357 682.66939 L 364.53654 682.60782 L 362.98306 682.39295 L 361.45813 682.02685 L 359.97641 681.51304 L 358.55216 680.85645 L 357.19916 680.06344 L 355.93042 679.14164 L 354.75812 678.09991 L 353.69356 676.94828 L 352.74702 675.69786 L 351.92761 674.3607 L 351.2432 672.94965 L 350.70039 671.47832 L 350.30441 669.96086 L 350.05907 668.41185 L 349.96675 666.84629 L 350.02832 665.27926 L 350.24319 663.72578 L 350.60929 662.20085 L 351.1231 660.71913 L 351.77969 659.29488 L 352.5727 657.94188 L 353.4945 656.67314 L 354.53623 655.50084 L 355.68786 654.43628 L 356.93828 653.48974 L 358.27544 652.67033 L 359.68649 651.98592 L 361.15782 651.44311 L 362.67528 651.04713 L 364.22429 650.80179 L 365.78985 650.70947 L 367.35688 650.77104 L 367.5992 650.80456 L 389.09933 621.21217 L 389.09933 604.82258 L 371.03977 610.69049 L 369.07925 611.06566 L 367.08688 610.94381 L 365.1867 610.33251 L 363.497 609.26983 L 362.12298 607.82192 L 361.15017 606.07893 L 360.63915 604.14936 L 360.62172 602.15335 L 361.09897 600.21515 L 362.04118 598.45543 L 363.38971 596.98375 L 365.06059 595.89172 L 366.09549 595.47359 L 392.15505 587.00633 L 415.54966 554.8064 L 415.54966 538.41682 L 397.49011 544.28472 L 395.52959 544.65989 L 393.53722 544.53804 L 391.63704 543.92674 L 389.94734 542.86406 L 388.57332 541.41615 L 387.60051 539.67316 L 387.08949 537.74359 L 387.07206 535.74758 L 387.54931 533.80938 L 388.49152 532.04966 L 389.84005 530.57798 L 391.51093 529.48595 L 392.54583 529.06782 L 418.60538 520.60056 L 442 488.40064 L 442 462.01105 L 416.90202 470.16588 L 391.97954 504.46872 L 390.61396 505.9246 L 388.93048 506.99711 L 387.03389 507.61945 L 385.04227 507.75291 L 383.0796 507.38916 L 381.26808 506.55084 L 379.72048 505.29017 L 378.53315 503.6856 L 377.78001 501.83705 L 377.50794 499.85959 L 377.73389 497.87633 L 378.44378 496.01074 L 379.03526 495.06416 L 399.01346 467.56653 L 369.16019 457.86661 L 345.57278 465.53062 L 322.17816 497.73055 L 322.17816 522.53183 L 347.10064 556.83467 L 348.06328 558.58329 L 348.56306 560.5158 L 348.56887 562.51188 L 348.08035 564.44727 L 347.1279 566.20147 L 345.77083 567.66528 L 344.09362 568.74756 L 342.20068 569.38094 L 340.20987 569.52599 L 338.24512 569.17367 L 336.42875 568.34592 L 334.87384 567.09427 L 334.15636 566.23923 L 314.17816 538.74161 L 297.62231 561.52878 L 297.72906 561.74887 L 298.27188 563.22025 L 298.66785 564.73771 L 298.91317 566.28662 L 299.0055 567.85218 L 298.94394 569.41926 L 298.72907 570.97274 L 298.36295 572.49771 L 297.84913 573.97943 L 297.19256 575.40364 L 296.39955 576.75664 L 295.47775 578.02538 L 294.43602 579.19768 L 293.28439 580.26224 L 292.03397 581.20878 L 290.69681 582.02819 L 289.28576 582.7126 L 287.81443 583.25541 L 286.29697 583.65139 L 284.74796 583.89673 L 283.18241 583.98905 L 281.61539 583.92748 L 280.0619 583.71261 L 278.53695 583.3465 L 277.05524 582.83269 L 275.63102 582.17612 L 274.27801 581.38311 L 273.00922 580.46128 L 271.83693 579.41955 L 270.77242 578.26797 L 269.82587 577.01755 L 269.00642 575.68032 L 268.32202 574.26927 L 267.77923 572.79798 L 267.38325 571.28052 L 267.13792 569.73156 L 267.04559 568.166 L 267.10716 566.59887 L 267.32204 565.04539 L 267.68813 563.52051 L 268.20194 562.03879 L 268.85853 560.61454 L 269.65154 559.26154 L 270.57334 557.9928 L 271.61507 556.8205 L 272.7667 555.75594 L 274.01712 554.8094 L 275.35428 553.98999 L 276.76533 553.30558 L 278.23666 552.76277 L 279.75412 552.36679 L 281.30313 552.12145 L 282.86868 552.02913 L 284.4357 552.0907 L 284.67803 552.12422 L 306.17816 522.53183 L 306.17816 506.14225 L 288.11861 512.01015 L 286.15809 512.38532 L 284.16572 512.26347 L 282.26554 511.65217 L 280.57584 510.58949 L 279.20182 509.14158 L 278.22901 507.39859 L 277.71799 505.46902 L 277.70056 503.47301 L 278.17781 501.53481 L 279.12002 499.77509 L 280.46855 498.30341 L 282.13943 497.21138 L 283.17433 496.79325 L 309.23388 488.32599 L 327.68423 462.93127 L 297.83096 453.23136 L 274.24354 460.89537 L 249.32107 495.19821 L 247.9555 496.65409 L 246.27201 497.72659 L 244.37542 498.34894 L 242.3838 498.4824 L 240.42113 498.11865 L 238.60961 497.28034 L 237.06201 496.01966 L 235.87468 494.41509 L 235.12154 492.56654 L 234.84947 490.58908 L 235.07542 488.60582 L 235.78531 486.74023 L 236.37679 485.79365 L 256.35499 458.29602 L 229.56705 449.59209 L 229.39073 449.76162 L 228.15913 450.73253 L 226.8383 451.57805 L 225.44096 452.29004 L 223.98056 452.86163 L 222.47118 453.28732 L 220.92733 453.56302 L 219.36388 453.68607 L 217.79591 453.65528 L 216.23848 453.47094 L 214.70664 453.13484 L 213.21515 452.65023 L 211.77832 452.02175 L 210.41001 451.25546 L 209.12339 450.35874 L 207.93084 449.34021 L 206.84389 448.20971 L 205.873 446.97813 L 205.02748 445.6573 L 204.31549 444.25996 L 203.7439 442.79956 L 203.3182 441.29013 L 203.04251 439.74628 L 202.91947 438.18288 L 202.95026 436.61491 L 203.13459 435.05753 L 203.47068 433.52569 L 203.95532 432.03411 L 204.58381 430.59728 L 205.35008 429.22901 L 206.2468 427.94239 L 207.26531 426.74986 L 208.3958 425.66291 L 209.62743 424.69197 L 210.94826 423.84646 L 212.34557 423.1345 L 213.80597 422.56291 L 215.31535 422.13722 L 216.8592 421.86152 L 218.42265 421.73847 L 219.99063 421.76926 L 221.54807 421.9536 L 223.0799 422.2897 L 224.57136 422.7743 L 226.0082 423.40278 L 227.37655 424.1691 L 228.66316 425.06582 L 229.85569 426.08433 L 230.94264 427.21483 L 231.91353 428.44641 L 232.75905 429.76724 L 233.47104 431.16458 L 234.04263 432.62498 L 234.46832 434.13436 L 234.51133 434.37519 L 269.29926 445.67847 L 284.88669 440.61381 L 273.72526 425.25143 L 272.76262 423.50281 L 272.26284 421.5703 L 272.25703 419.57422 L 272.74555 417.63883 L 273.698 415.88463 L 275.05507 414.42082 L 276.73228 413.33854 L 278.62522 412.70516 L 280.61603 412.56011 L 282.58078 412.91243 L 284.39715 413.74018 L 285.95206 414.99183 L 286.66954 415.84687 L 302.77524 438.01446 L 340.62851 450.31373 L 356.21593 445.24907 L 345.0545 429.88669 L 344.09186 428.13807 L 343.59208 426.20556 L 343.58627 424.20948 L 344.07479 422.27409 L 345.02724 420.51989 L 346.38431 419.05608 L 348.06152 417.9738 L 349.95446 417.34042 L 351.94527 417.19537 L 353.91002 417.54769 L 355.72639 418.37544 L 357.2813 419.62709 L 357.99878 420.48213 L 374.10448 442.64972 L 411.95774 454.94898 L 437.05573 446.79415 L 421.54431 425.44452 L 381.21891 412.34201 L 379.4123 411.49317 L 377.87207 410.2235 L 376.6941 408.61205 L 375.95173 406.75915 L 375.69119 404.78013 L 375.92867 402.79822 L 376.64942 400.9368 L 377.80854 399.31174 L 379.33389 398.02423 L 381.13049 397.15441 L 383.08651 396.75643 L 385.08016 396.85508 L 386.16319 397.12511 L 418.48859 407.62827 L 418.48859 376.23868 L 403.91075 356.17401 L 366.05749 343.87475 L 342.47007 351.53876 L 317.5476 385.8416 L 316.18203 387.29748 L 314.49854 388.36998 L 312.60195 388.99233 L 310.61033 389.12579 L 308.64766 388.76204 L 306.83614 387.92373 L 305.28854 386.66305 L 304.10121 385.05848 L 303.34807 383.20993 L 303.076 381.23247 L 303.30195 379.24921 L 304.01184 377.38362 L 304.60332 376.43704 L 324.58152 348.93941 L 297.79359 340.23548 L 297.61724 340.40503 L 296.38566 341.37592 L 295.06483 342.22144 L 293.66749 342.93343 L 292.20709 343.50502 L 290.69766 343.93072 L 289.15381 344.20641 L 287.59041 344.32945 L 286.02244 344.29866 L 284.46506 344.11433 L 282.93322 343.77824 L 281.44164 343.2936 L 280.00481 342.66511 L 278.63654 341.89884 L 277.34992 341.00212 L 276.15739 339.98361 L 275.07044 338.85312 L 274.0995 337.62149 L 273.25399 336.30066 L 272.54203 334.90335 L 271.97044 333.44295 L 271.54475 331.93357 L 271.26905 330.38972 L 271.146 328.82627 L 271.17679 327.2583 L 271.36113 325.70087 L 271.69723 324.16903 L 272.18183 322.67756 L 272.81031 321.24072 L 273.57663 319.87237 L 274.47335 318.58576 L 275.49186 317.39323 L 276.62236 316.30628 L 277.85391 315.3354 L 279.17473 314.48988 L 280.5721 313.77788 L 282.0325 313.20629 L 283.54194 312.78059 L 285.0858 312.5049 L 286.64919 312.38186 L 288.21716 312.41265 L 289.77455 312.59698 L 291.30638 312.93307 L 292.79793 313.4177 L 294.23477 314.04619 L 295.60308 314.81249 L 296.88969 315.70921 L 298.0822 316.7277 L 299.16915 317.85819 L 300.14006 319.08979 L 300.98558 320.41062 L 301.69757 321.80796 L 302.26916 323.26836 L 302.69485 324.77774 L 302.73786 325.01857 L 337.52579 336.32186 L 353.11322 331.2572 L 341.95179 315.89482 L 340.98915 314.1462 L 340.48937 312.21369 L 340.48356 310.21761 L 340.97208 308.28222 L 341.92453 306.52802 L 343.2816 305.06421 L 344.95881 303.98193 L 346.85175 303.34855 L 348.84256 303.2035 L 350.80731 303.55582 L 352.62368 304.38357 L 354.17859 305.63522 L 354.89607 306.49026 L 371.00177 328.65785 L 400.85503 338.35776 L 400.85503 306.96817 L 386.27719 286.9035 L 345.95179 273.80099 L 344.14518 272.95215 L 342.60495 271.68248 L 341.42698 270.07103 L 340.68461 268.21813 L 340.42407 266.23911 L 340.66155 264.2572 L 341.3823 262.39578 L 342.54142 260.77072 L 344.06677 259.48321 L 345.86337 258.61339 L 347.81939 258.21541 L 349.81304 258.31406 L 350.89607 258.58409 L 383.22147 269.08725 L 383.22147 240.92074 L 383.00575 240.80544 L 381.70174 239.93412 L 380.48945 238.93921 L 379.38053 237.83029 L 378.38563 236.618 L 377.51436 235.31405 L 376.77508 233.93096 L 376.17492 232.48206 L 375.71967 230.98131 L 375.41371 229.44317 L 375.25999 227.88245 L 375.25999 226.31415 L 375.41371 224.75343 L 375.71967 223.21529 L 376.17492 221.71454 L 376.77508 220.26564 L 377.51436 218.88255 L 378.38563 217.5786 L 379.38053 216.36631 L 380.48945 215.25739 L 381.70174 214.26248 L 383.00575 213.39116 L 384.38885 212.65188 L 385.83775 212.05173 L 387.33849 211.59649 L 388.8766 211.29054 L 390.43732 211.13682 L 392.00561 211.13682 Z" stroke-miterlimit="10"/></g></svg>