<svg version="1.1" xmlns="http://www.w3.org/2000/svg" xmlns:xlink="http://www.w3.org/1999/xlink" width="768" height="768"><defs/><g><rect fill="#000000" stroke="none" x="0" y="0" width="768" height="768"/><path fill="#fb6b41" stroke="rgb(0,0,0)" paint-order="fill stroke markers" d=" M 471.60255 72.2679 L 472.60255 74 L 472.60255 92.84530000000001 L 487.92305000000005 101.69059999999999 L 504.24354999999997 92.2679 L 506.24354999999997 92.2679 L 522.56405 101.69049999999999 L 538.88455 92.2679 L 540.88455 92.2679 L 558.20505 102.2679 L 559.20505 104 L 559.20505 124 L 558.20505 125.7321 L 541.88455 135.1547 L 541.88455 152.8453 L 558.20505 162.2679 L 559.20505 164 L 559.20505 184 L 558.20505 185.7321 L 540.88455 195.7321 L 538.88455 195.7321 L 522.56405 186.3095 L 507.24354999999997 195.1548 L 507.24354999999997 212.8453 L 523.56405 222.2679 L 524.56405 224 L 524.56405 244 L 523.56405 245.7321 L 507.24354999999997 255.1547 L 507.24354999999997 272.8453 L 522.56405 281.6906 L 537.88455 272.8453 L 537.88455 254 L 538.88455 252.2679 L 556.20505 242.2679 L 558.20505 242.2679 L 575.5255500000001 252.2679 L 576.5255500000001 254 L 576.5255500000001 272.8453 L 592.8460500000001 282.2679 L 593.8460500000001 284 L 593.8460500000001 304 L 592.8460500000001 305.7321 L 576.5255500000001 315.1547 L 576.5255500000001 332.8453 L 592.8460500000001 342.2679 L 593.8460500000001 344 L 593.8460500000001 362.8453 L 610.1665499999999 372.2679 L 611.1665499999999 374 L 611.1665499999999 392.8452 L 626.4871499999999 401.6905 L 641.80765 392.8453 L 641.80765 375.1547 L 625.4871499999999 365.7321 L 624.4871499999999 364 L 624.4871499999999 345.1548 L 608.1665499999999 335.7321 L 607.1665499999999 334 L 607.1665499999999 314 L 608.1665499999999 312.2679 L 624.4871499999999 302.8452 L 624.4871499999999 284 L 625.4871499999999 282.2679 L 642.80765 272.2679 L 644.80765 272.2679 L 661.12815 281.6905 L 677.44865 272.2679 L 679.44865 272.2679 L 696.7691500000001 282.2679 L 697.7691500000001 284 L 697.7691500000001 304 L 696.7691500000001 305.7321 L 680.44865 315.1547 L 680.44865 332.8453 L 696.7691500000001 342.2679 L 697.7691500000001 344 L 697.7691500000001 362.8453 L 714.0896499999999 372.2679 L 715.0896499999999 374 L 715.0896499999999 394 L 714.0896499999999 395.7321 L 696.7691500000001 405.7321 L 694.7691500000001 405.7321 L 678.44865 396.3095 L 663.12815 405.1547 L 663.12815 424 L 662.12815 425.7321 L 644.80765 435.7321 L 642.80765 435.7321 L 625.4871499999999 425.7321 L 624.4871499999999 424 L 624.4871499999999 405.1548 L 609.1665499999999 396.3095 L 593.8460500000001 405.1548 L 593.8460500000001 424 L 592.8460500000001 425.7321 L 575.5255500000001 435.7321 L 573.5255500000001 435.7321 L 557.20505 426.3095 L 541.88455 435.1548 L 541.88455 452.8453 L 557.20505 461.6906 L 573.5255500000001 452.2679 L 575.5255500000001 452.2679 L 592.8460500000001 462.2679 L 593.8460500000001 464 L 593.8460500000001 484 L 592.8460500000001 485.7321 L 576.5255500000001 495.1547 L 576.5255500000001 514 L 575.5255500000001 515.7321 L 558.20505 525.7321 L 556.20505 525.7321 L 539.88455 516.3095000000001 L 524.56405 525.1548 L 524.56405 544 L 523.56405 545.7321 L 507.24354999999997 555.1547 L 507.24354999999997 574 L 506.24354999999997 575.7321 L 489.92305000000005 585.1547 L 489.92305000000005 602.8453 L 505.24354999999997 611.6906 L 520.56405 602.8453 L 520.56405 584 L 521.56405 582.2679 L 537.88455 572.8453 L 537.88455 554 L 538.88455 552.2679 L 556.20505 542.2679 L 558.20505 542.2679 L 574.5255500000001 551.6904999999999 L 590.8460500000001 542.2679 L 592.8460500000001 542.2679 L 610.1665499999999 552.2679 L 611.1665499999999 554 L 611.1665499999999 572.8452 L 627.4871499999999 582.2679 L 628.4871499999999 584 L 628.4871499999999 604 L 627.4871499999999 605.7321 L 610.1665499999999 615.7321 L 608.1665499999999 615.7321 L 591.8460500000001 606.3095000000001 L 576.5255500000001 615.1548 L 576.5255500000001 634 L 575.5255500000001 635.7321 L 559.20505 645.1547 L 559.20505 664 L 558.20505 665.7321 L 540.88455 675.7321 L 538.88455 675.7321 L 521.56405 665.7321 L 520.56405 664 L 520.56405 645.1547 L 505.24354999999997 636.3095000000001 L 488.92305000000005 645.7321 L 486.92305000000005 645.7321 L 469.60255 635.7321 L 468.60255 634 L 468.60255 614 L 469.60255 612.2679 L 485.92305000000005 602.8453 L 485.92305000000005 585.1547 L 470.60255 576.3094 L 454.28204999999997 585.7321 L 452.28204999999997 585.7321 L 434.96155000000005 575.7321 L 433.96155000000005 574 L 433.96155000000005 555.1547 L 418.64105 546.3094 L 403.32045 555.1547 L 403.32045 572.8452 L 419.64105 582.2679 L 420.64105 584 L 420.64105 604 L 419.64105 605.7321 L 402.32045 615.7321 L 400.32045 615.7321 L 383.99995 606.3095000000001 L 367.67945 615.7321 L 365.67945 615.7321 L 348.35895 605.7321 L 347.35895 604 L 347.35895 585.1547 L 332.03845 576.3094 L 315.71795 585.7321 L 313.71795 585.7321 L 297.39745 576.3095000000001 L 281.07695 585.7321 L 279.07695 585.7321 L 262.75645 576.3094 L 247.43595 585.1547 L 247.43595 602.8453 L 262.75645 611.6906 L 279.07695 602.2679 L 281.07695 602.2679 L 297.39745 611.6904999999999 L 313.71795 602.2679 L 315.71795 602.2679 L 333.03845 612.2679 L 334.03845 614 L 334.03845 632.8453 L 350.35895 642.2679 L 351.35895 644 L 351.35895 664 L 350.35895 665.7321 L 334.03845 675.1547 L 334.03845 694 L 333.03845 695.7321 L 315.71795 705.7321 L 313.71795 705.7321 L 296.39745 695.7321 L 295.39745 694 L 295.39745 675.1547 L 280.07695 666.3094 L 263.75645 675.7321 L 261.75645 675.7321 L 245.43595 666.3095000000001 L 229.11545 675.7321 L 227.11545 675.7321 L 209.79494999999997 665.7321 L 208.79494999999997 664 L 208.79494999999997 644 L 209.79494999999997 642.2679 L 210.79505 641.6904999999999 L 226.11545 632.8453 L 226.11545 615.1547 L 209.79494999999997 605.7321 L 208.79494999999997 604 L 208.79494999999997 584 L 209.79494999999997 582.2679 L 227.11545 572.2679 L 229.11545 572.2679 L 245.43595 581.6906 L 260.75645 572.8453 L 260.75645 555.1547 L 244.43595 545.7321 L 243.43595 544 L 243.43595 524 L 244.43595 522.2679 L 245.43585000000002 521.6906 L 260.75645 512.8453 L 260.75645 495.1547 L 245.43595 486.3094 L 230.11545 495.1547 L 230.11545 514 L 229.11545 515.7321 L 211.79494999999997 525.7321 L 209.79494999999997 525.7321 L 192.47445 515.7321 L 191.47445 514 L 191.47445 495.1548 L 175.15384999999998 485.7321 L 174.15384999999998 484 L 174.15384999999998 464 L 175.15384999999998 462.2679 L 191.47445 452.8452 L 191.47445 435.1548 L 175.15384999999998 425.7321 L 174.15384999999998 424 L 174.15384999999998 405.1547 L 157.83335 395.7321 L 156.83335 394 L 156.83335 375.1547 L 141.51285 366.3094 L 126.19235 375.1547 L 126.19235 392.8453 L 141.51274999999998 401.6905 L 142.51285 402.2679 L 143.51285 404 L 143.51285 422.8453 L 156.88745 430.5671 L 158.83345 431.6906 L 159.83335 432.2679 L 160.83335 434 L 160.83335 454 L 159.83335 455.7321 L 143.51285 465.1547 L 143.51285 484 L 142.51285 485.7321 L 125.19235 495.7321 L 123.19235 495.7321 L 106.87185 486.3095 L 90.55134999999999 495.7321 L 88.55134999999999 495.7321 L 71.23085 485.7321 L 70.23085 484 L 70.23085 464 L 71.23085 462.2679 L 72.23075 461.6906 L 87.55134999999999 452.8453 L 87.55134999999999 435.1547 L 71.23085 425.7321 L 70.23085 424 L 70.23085 405.1547 L 53.910349999999994 395.7321 L 52.910349999999994 394 L 52.910349999999994 374 L 53.910349999999994 372.2679 L 71.23085 362.2679 L 73.23085 362.2679 L 89.55134999999999 371.6905 L 98.87174999999999 366.3094 L 104.87185 362.8453 L 104.87185 344 L 105.87185 342.2679 L 123.19235 332.2679 L 125.19235 332.2679 L 142.51285 342.2679 L 143.51285 344 L 143.51285 362.8453 L 158.83335 371.6906 L 174.15384999999998 362.8453 L 174.15384999999998 344 L 175.15384999999998 342.2679 L 192.47445 332.2679 L 194.47445 332.2679 L 210.79494999999997 341.6905 L 226.11545 332.8452 L 226.11545 315.1547 L 210.79494999999997 306.3094 L 194.47445 315.7321 L 192.47445 315.7321 L 175.15384999999998 305.7321 L 174.15384999999998 304 L 174.15384999999998 284 L 175.15384999999998 282.2679 L 191.47445 272.8452 L 191.47445 254 L 192.47445 252.2679 L 209.79494999999997 242.2679 L 211.79494999999997 242.2679 L 228.11545 251.6905 L 243.43595 242.8452 L 243.43595 224 L 244.43595 222.2679 L 260.75645 212.8453 L 260.75645 194 L 261.75645 192.2679 L 278.07695 182.8453 L 278.07695 165.1547 L 262.75645 156.3094 L 247.43595 165.1547 L 247.43595 184 L 246.43595 185.7321 L 230.11545 195.1547 L 230.11545 214 L 229.11545 215.7321 L 211.79494999999997 225.7321 L 209.79494999999997 225.7321 L 193.47445 216.30939999999998 L 177.15384999999998 225.7321 L 175.15384999999998 225.7321 L 157.83335 215.7321 L 156.83335 214 L 156.83335 195.1547 L 140.51285 185.7321 L 139.51285 184 L 139.51285 164 L 140.51285 162.2679 L 157.83335 152.2679 L 159.83335 152.2679 L 176.15384999999998 161.6906 L 191.47445 152.8453 L 191.47445 134 L 192.47445 132.2679 L 208.79494999999997 122.84530000000001 L 208.79494999999997 104 L 209.79494999999997 102.2679 L 227.11545 92.2679 L 229.11545 92.2679 L 246.43595 102.2679 L 247.43595 104 L 247.43595 122.84530000000001 L 262.75645 131.6905 L 279.07695 122.2679 L 281.07695 122.2679 L 298.39745 132.2679 L 299.39745 134 L 299.39745 154 L 298.39745 155.7321 L 282.07695 165.1547 L 282.07695 182.8453 L 297.39745 191.69060000000002 L 313.71795 182.2679 L 315.71795 182.2679 L 333.03845 192.2679 L 334.03845 194 L 334.03845 212.8453 L 349.35895 221.69060000000002 L 364.67945 212.8453 L 364.67945 195.1547 L 348.35895 185.7321 L 347.35895 184 L 347.35895 164 L 348.35895 162.2679 L 365.67945 152.2679 L 367.67945 152.2679 L 383.99995 161.6905 L 400.32045 152.2679 L 402.32045 152.2679 L 419.64105 162.2679 L 420.64105 164 L 420.64105 182.8453 L 435.96155000000005 191.69060000000002 L 452.28204999999997 182.2679 L 454.28204999999997 182.2679 L 470.60255 191.6905 L 486.92305000000005 182.2679 L 488.92305000000005 182.2679 L 505.24354999999997 191.6905 L 520.56405 182.8452 L 520.56405 165.1548 L 505.24354999999997 156.3095 L 488.92305000000005 165.7321 L 486.92305000000005 165.7321 L 470.60255 156.3095 L 454.28204999999997 165.7321 L 452.28204999999997 165.7321 L 434.96155000000005 155.7321 L 433.96155000000005 154 L 433.96155000000005 135.1547 L 417.64105 125.7321 L 416.64105 124 L 416.64105 104 L 417.64105 102.2679 L 433.96155000000005 92.84530000000001 L 433.96155000000005 74 L 434.96155000000005 72.2679 L 452.28204999999997 62.2679 L 454.28204999999997 62.2679 Z M 230.11545 615.1547 L 230.11545 634 L 229.11545 635.7321 L 212.79494999999997 645.1547 L 212.79494999999997 662.8452 L 228.11545 671.6904999999999 L 244.43595 662.2679 L 246.43595 662.2679 L 262.75645 671.6904999999999 L 279.07695 662.2679 L 281.07695 662.2679 L 298.39745 672.2679 L 299.39745 674 L 299.39745 692.8453 L 314.71795 701.6906 L 330.03845 692.8453 L 330.03845 674 L 331.03845 672.2679 L 347.35895 662.8453 L 347.35895 645.1548 L 332.03845 636.3095000000001 L 315.71795 645.7321 L 313.71795 645.7321 L 297.39745 636.3095000000001 L 281.07695 645.7321 L 279.07695 645.7321 L 261.75645 635.7321 L 260.75645 634 L 260.75645 615.1547 L 245.43595 606.3094 Z M 576.5255500000001 555.1547 L 576.5255500000001 574 L 575.5255500000001 575.7321 L 559.20505 585.1547 L 559.20505 604 L 558.20505 605.7321 L 540.88455 615.7321 L 538.88455 615.7321 L 522.56405 606.3094 L 507.24354999999997 615.1547 L 507.24354999999997 632.8453 L 523.56405 642.2679 L 524.56405 644 L 524.56405 662.8453 L 539.88455 671.6906 L 555.20505 662.8453 L 555.20505 644 L 556.20505 642.2679 L 572.5255500000001 632.8453 L 572.5255500000001 614 L 573.5255500000001 612.2679 L 590.8460500000001 602.2679 L 592.8460500000001 602.2679 L 609.1665499999999 611.6904999999999 L 624.4871499999999 602.8452 L 624.4871499999999 585.1548 L 608.1665499999999 575.7321 L 607.1665499999999 574 L 607.1665499999999 555.1547 L 591.8460500000001 546.3094 Z M 264.75645 615.1547 L 264.75645 632.8453 L 280.07695 641.6906 L 295.39745 632.8453 L 295.39745 615.1548 L 280.07695 606.3095000000001 Z M 472.60255 615.1547 L 472.60255 632.8453 L 487.92305000000005 641.6906 L 503.24354999999997 632.8453 L 503.24354999999997 615.1547 L 487.92305000000005 606.3094 Z M 299.39745 615.1547 L 299.39745 632.8452 L 314.71795 641.6904999999999 L 330.03845 632.8452 L 330.03845 615.1547 L 314.71795 606.3094 Z M 212.79494999999997 585.1547 L 212.79494999999997 602.8453 L 228.11545 611.6906 L 243.43595 602.8453 L 243.43595 585.1547 L 228.11545 576.3094 Z M 524.56405 585.1547 L 524.56405 602.8452 L 539.88455 611.6904999999999 L 555.20505 602.8452 L 555.20505 585.1547 L 539.88455 576.3094 Z M 384.99995 165.7321 L 382.99995 165.7321 L 366.67945 156.3094 L 351.35895 165.1547 L 351.35895 182.8453 L 367.67945 192.2679 L 368.67945 194 L 368.67945 214 L 367.67945 215.7321 L 350.35895 225.7321 L 348.35895 225.7321 L 331.03845 215.7321 L 330.03845 214 L 330.03845 195.1548 L 314.71795 186.3095 L 298.39745 195.7321 L 296.39745 195.7321 L 280.07695 186.30939999999998 L 264.75645 195.1547 L 264.75645 214 L 263.75645 215.7321 L 247.43595 225.1547 L 247.43595 244 L 246.43595 245.7321 L 229.11545 255.7321 L 227.11545 255.7321 L 210.79494999999997 246.30939999999998 L 195.47445 255.1547 L 195.47445 274 L 194.47445 275.7321 L 178.15384999999998 285.1548 L 178.15384999999998 302.8453 L 193.47445 311.6906 L 209.79494999999997 302.2679 L 211.79494999999997 302.2679 L 229.11545 312.2679 L 230.11545 314 L 230.11545 334 L 229.11545 335.7321 L 211.79494999999997 345.7321 L 209.79494999999997 345.7321 L 193.47445 336.3095 L 178.15384999999998 345.1548 L 178.15384999999998 364 L 177.15384999999998 365.7321 L 160.83335 375.1547 L 160.83335 392.8453 L 176.15375 401.6905 L 177.15384999999998 402.2679 L 178.15384999999998 404 L 178.15384999999998 422.8452 L 194.47445 432.2679 L 195.47445 434 L 195.47445 454 L 194.47445 455.7321 L 178.15384999999998 465.1548 L 178.15384999999998 482.8452 L 194.47445 492.2679 L 195.47445 494 L 195.47445 512.8453 L 210.79494999999997 521.6906 L 226.11545 512.8453 L 226.11545 494 L 227.11545 492.2679 L 244.43595 482.2679 L 246.43595 482.2679 L 263.75645 492.2679 L 264.75645 494 L 264.75645 514 L 263.75645 515.7321 L 247.43595 525.1547 L 247.43595 542.8453 L 262.75635 551.6904999999999 L 263.75645 552.2679 L 264.75645 554 L 264.75645 572.8453 L 280.07695 581.6904999999999 L 296.39745 572.2679 L 298.39745 572.2679 L 314.71795 581.6904999999999 L 331.03845 572.2679 L 333.03845 572.2679 L 350.35895 582.2679 L 351.35895 584 L 351.35895 602.8452 L 366.67945 611.6904999999999 L 382.99995 602.2679 L 384.99995 602.2679 L 401.32045 611.6904999999999 L 416.64105 602.8452 L 416.64105 585.1548 L 400.32045 575.7321 L 399.32045 574 L 399.32045 554 L 400.32045 552.2679 L 417.64105 542.2679 L 419.64105 542.2679 L 436.96155000000005 552.2679 L 437.96155000000005 554 L 437.96155000000005 572.8452 L 453.28204999999997 581.6904999999999 L 469.60255 572.2679 L 471.60255 572.2679 L 487.92305000000005 581.6906 L 503.24354999999997 572.8453 L 503.24354999999997 554 L 504.24354999999997 552.2679 L 520.56405 542.8453 L 520.56405 524 L 521.56405 522.2679 L 538.88455 512.2679 L 540.88455 512.2679 L 557.20505 521.6906 L 572.5255500000001 512.8453 L 572.5255500000001 494 L 573.5255500000001 492.2679 L 589.8460500000001 482.8453 L 589.8460500000001 465.1548 L 574.5255500000001 456.3095 L 558.20505 465.7321 L 556.20505 465.7321 L 538.88455 455.7321 L 537.88455 454 L 537.88455 434 L 538.88455 432.2679 L 556.20505 422.2679 L 558.20505 422.2679 L 574.5255500000001 431.6906 L 589.8460500000001 422.8453 L 589.8460500000001 404 L 590.8460500000001 402.2679 L 607.1665499999999 392.8453 L 607.1665499999999 375.1547 L 590.8460500000001 365.7321 L 589.8460500000001 364 L 589.8460500000001 345.1547 L 573.5255500000001 335.7321 L 572.5255500000001 334 L 572.5255500000001 314 L 573.5255500000001 312.2679 L 589.8460500000001 302.8453 L 589.8460500000001 285.1547 L 573.5255500000001 275.7321 L 572.5255500000001 274 L 572.5255500000001 255.1547 L 557.20505 246.30939999999998 L 541.88455 255.1547 L 541.88455 274 L 540.88455 275.7321 L 523.56405 285.7321 L 521.56405 285.7321 L 504.24354999999997 275.7321 L 503.24354999999997 274 L 503.24354999999997 254 L 504.24354999999997 252.2679 L 520.56405 242.8453 L 520.56405 225.1547 L 504.24354999999997 215.7321 L 503.24354999999997 214 L 503.24354999999997 195.1548 L 487.92305000000005 186.3095 L 471.60255 195.7321 L 469.60255 195.7321 L 453.28204999999997 186.3095 L 436.96155000000005 195.7321 L 434.96155000000005 195.7321 L 417.64105 185.7321 L 416.64105 184 L 416.64105 165.1547 L 401.32045 156.3094 Z M 541.88455 555.1547 L 541.88455 572.8453 L 557.20505 581.6906 L 572.5255500000001 572.8453 L 572.5255500000001 555.1547 L 557.20505 546.3094 Z M 90.55134999999999 375.7321 L 88.55134999999999 375.7321 L 72.23085 366.3094 L 56.910349999999994 375.1547 L 56.910349999999994 392.8453 L 72.23075 401.6905 L 73.23085 402.2679 L 74.23085 404 L 74.23085 422.8453 L 87.60544999999999 430.5671 L 90.55134999999999 432.2679 L 91.55134999999999 434 L 91.55134999999999 454 L 90.55134999999999 455.7321 L 74.23085 465.1547 L 74.23085 482.8452 L 89.55134999999999 491.6905 L 105.87185 482.2679 L 107.87185 482.2679 L 124.19235 491.6906 L 139.51285 482.8453 L 139.51285 465.1547 L 123.19235 455.7321 L 122.19235 454 L 122.19235 435.1547 L 105.87185 425.7321 L 104.87185 424 L 104.87185 404 L 105.87185 402.2679 L 106.87195 401.6905 L 122.19235 392.8453 L 122.19235 375.1547 L 106.87185 366.3094 Z M 126.19235 435.1547 L 126.19235 452.8453 L 141.51285 461.6906 L 156.83335 452.8453 L 156.83335 435.1547 L 141.51285 426.3094 Z M 108.87185 405.1547 L 108.87185 422.8453 L 124.19235 431.6906 L 139.51285 422.8453 L 139.51285 405.1547 L 124.19235 396.3094 Z M 628.4871499999999 405.1547 L 628.4871499999999 422.8453 L 643.80765 431.6906 L 659.12815 422.8453 L 659.12815 405.1547 L 643.80765 396.3094 Z M 628.4871499999999 285.1547 L 628.4871499999999 302.8453 L 644.80765 312.2679 L 645.80765 314 L 645.80765 332.8453 L 661.12805 341.6905 L 662.12815 342.2679 L 663.12815 344 L 663.12815 364 L 662.12815 365.7321 L 645.80765 375.1547 L 645.80765 392.8453 L 661.12815 401.6906 L 677.44865 392.2679 L 679.44865 392.2679 L 695.7691500000001 401.6906 L 711.0896499999999 392.8453 L 711.0896499999999 375.1547 L 694.7691500000001 365.7321 L 693.7691500000001 364 L 693.7691500000001 345.1547 L 677.44865 335.7321 L 676.44865 334 L 676.44865 314 L 677.44865 312.2679 L 693.7691500000001 302.8453 L 693.7691500000001 285.1548 L 678.44865 276.3095 L 662.12815 285.7321 L 660.12815 285.7321 L 643.80765 276.3094 Z M 628.4871499999999 345.1547 L 628.4871499999999 362.8453 L 643.80765 371.6906 L 659.12815 362.8453 L 659.12815 345.1547 L 643.80765 336.3094 Z M 108.87185 345.1547 L 108.87185 362.8453 L 124.19235 371.6906 L 139.51285 362.8453 L 139.51285 345.1547 L 124.19235 336.3094 Z M 611.1665499999999 315.1548 L 611.1665499999999 332.8452 L 626.4871499999999 341.6905 L 634.14735 337.2679 L 641.80765 332.8453 L 641.80765 315.1547 L 626.4871499999999 306.3094 Z M 195.47445 195.1547 L 195.47445 212.8453 L 210.79494999999997 221.69060000000002 L 226.11545 212.8453 L 226.11545 195.1547 L 210.79494999999997 186.30939999999998 Z M 212.79494999999997 105.15469999999999 L 212.79494999999997 124 L 211.79494999999997 125.7321 L 195.47445 135.1547 L 195.47445 154 L 194.47445 155.7321 L 177.15384999999998 165.7321 L 175.15384999999998 165.7321 L 158.83335 156.3094 L 143.51285 165.1547 L 143.51285 182.8453 L 159.83335 192.2679 L 160.83335 194 L 160.83335 212.8452 L 176.15384999999998 221.6905 L 191.47445 212.8452 L 191.47445 194 L 192.47445 192.2679 L 193.47435000000002 191.69060000000002 L 208.79494999999997 182.8453 L 208.79494999999997 164 L 209.79494999999997 162.2679 L 227.11545 152.2679 L 229.11545 152.2679 L 245.43595 161.6906 L 260.75645 152.8453 L 260.75645 135.1547 L 244.43595 125.7321 L 243.43595 124 L 243.43595 105.15469999999999 L 228.11545 96.30940000000001 Z M 212.79494999999997 165.1548 L 212.79494999999997 182.8453 L 228.11545 191.69060000000002 L 243.43595 182.8453 L 243.43595 165.1548 L 228.11545 156.3095 Z M 524.56405 165.1547 L 524.56405 182.8452 L 539.88455 191.6905 L 555.20505 182.8452 L 555.20505 165.1547 L 539.88455 156.3094 Z M 264.75645 135.1547 L 264.75645 152.8453 L 280.07695 161.6906 L 295.39745 152.8453 L 295.39745 135.1547 L 280.07695 126.30940000000001 Z M 437.96155000000005 135.1548 L 437.96155000000005 152.8453 L 453.28204999999997 161.6906 L 468.60255 152.8453 L 468.60255 135.1548 L 453.28204999999997 126.30950000000001 Z M 437.96155000000005 75.15469999999999 L 437.96155000000005 94 L 436.96155000000005 95.7321 L 420.64105 105.15469999999999 L 420.64105 122.8452 L 435.96155000000005 131.6905 L 452.28204999999997 122.2679 L 454.28204999999997 122.2679 L 470.60255 131.6905 L 486.92305000000005 122.2679 L 488.92305000000005 122.2679 L 506.24354999999997 132.2679 L 507.24354999999997 134 L 507.24354999999997 152.8452 L 522.56405 161.6905 L 537.88455 152.8452 L 537.88455 134 L 538.88455 132.2679 L 555.20505 122.84530000000001 L 555.20505 105.1548 L 539.88455 96.30950000000001 L 523.56405 105.7321 L 521.56405 105.7321 L 505.24354999999997 96.30950000000001 L 488.92305000000005 105.7321 L 486.92305000000005 105.7321 L 469.60255 95.7321 L 468.60255 94 L 468.60255 75.15469999999999 L 453.28204999999997 66.30940000000001 Z M 472.60255 135.1547 L 472.60255 152.8452 L 487.92305000000005 161.6905 L 503.24354999999997 152.8453 L 503.24354999999997 135.1547 L 487.92305000000005 126.30940000000001 Z" stroke-opacity="0" stroke-miterlimit="10" stroke-width="0"/></g></svg>