<svg version="1.1" xmlns="http://www.w3.org/2000/svg" xmlns:xlink="http://www.w3.org/1999/xlink" width="900" height="900"><defs/><g><path fill="#222222" stroke="#cccccc" paint-order="fill stroke markers" d=" M 352.98699 282.24957 L 355.89115 282.99134 L 358.63195 284.20476 L 361.13339 285.85618 L 363.3261 287.8998 L 365.14929 290.27894 L 366.5524 292.92766 L 367.49652 295.77248 L 368 300 L 368 332 L 382 332 L 382 300 L 382.24957 297.01301 L 382.99134 294.10885 L 384.20476 291.36805 L 385.85618 288.86661 L 387.8998 286.6739 L 390.27894 284.85071 L 392.92766 283.4476 L 395.77248 282.50348 L 398.73453 282.04454 L 401.73167 282.08349 L 404.68079 282.61926 L 407.50012 283.63699 L 410.11147 285.10845 L 412.44244 286.99286 L 414.42838 289.23794 L 416.01423 291.78146 L 417.15601 294.55287 L 417.82206 297.47532 L 418 300 L 418 382 L 432 382 L 432 300 L 432.24957 297.01301 L 432.99134 294.10885 L 434.20476 291.36805 L 435.85618 288.86661 L 437.8998 286.6739 L 440.27894 284.85071 L 442.92766 283.4476 L 445.77248 282.50348 L 450 282 L 500 282 L 502.98699 282.24957 L 505.89115 282.99134 L 508.63195 284.20476 L 511.13339 285.85618 L 513.3261 287.8998 L 515.14929 290.27894 L 516.5524 292.92766 L 517.49652 295.77248 L 517.95546 298.73453 L 517.91651 301.73167 L 517.38074 304.68079 L 516.36301 307.50012 L 514.89155 310.11147 L 513.00714 312.44244 L 510.76206 314.42838 L 508.21854 316.01423 L 505.44713 317.15601 L 502.52468 317.82206 L 500 318 L 468 318 L 468 332 L 532 332 L 532 300 L 532.24957 297.01301 L 532.99134 294.10885 L 534.20476 291.36805 L 535.85618 288.86661 L 537.8998 286.6739 L 540.27894 284.85071 L 542.92766 283.4476 L 545.77248 282.50348 L 550 282 L 600 282 L 602.98699 282.24957 L 605.89115 282.99134 L 608.63195 284.20476 L 611.13339 285.85618 L 613.3261 287.8998 L 615.14929 290.27894 L 616.5524 292.92766 L 617.49652 295.77248 L 618 300 L 618 350 L 617.75043 352.98699 L 617.00866 355.89115 L 615.79524 358.63195 L 614.14382 361.13339 L 612.1002 363.3261 L 609.72106 365.14929 L 607.07234 366.5524 L 604.22752 367.49652 L 601.26547 367.95546 L 598.26833 367.91651 L 595.31921 367.38074 L 592.49988 366.36301 L 589.88853 364.89155 L 587.55756 363.00714 L 585.57162 360.76206 L 583.98577 358.21854 L 582.84399 355.44713 L 582.17794 352.52468 L 582 350 L 582 318 L 568 318 L 568 382 L 600 382 L 602.98699 382.24957 L 605.89115 382.99134 L 608.63195 384.20476 L 611.13339 385.85618 L 613.3261 387.8998 L 615.14929 390.27894 L 616.5524 392.92766 L 617.49652 395.77248 L 617.95546 398.73453 L 617.91651 401.73167 L 617.38074 404.68079 L 616.36301 407.50012 L 614.89155 410.11147 L 613.00714 412.44244 L 610.76206 414.42838 L 608.21854 416.01423 L 605.44713 417.15601 L 602.52468 417.82206 L 600 418 L 550 418 L 549.13565 417.92778 L 548.26833 417.91651 L 547.64465 417.8032 L 547.01301 417.75043 L 546.17261 417.53578 L 545.31921 417.38074 L 544.72305 417.16554 L 544.10885 417.00866 L 543.31563 416.65748 L 542.49988 416.36301 L 541.94771 416.05187 L 541.36805 415.79524 L 540.64416 415.31734 L 539.88853 414.89155 L 539.39559 414.49305 L 538.86661 414.14382 L 538.23211 413.55246 L 537.55756 413.00714 L 537.13755 412.53233 L 536.6739 412.1002 L 536.14636 411.4118 L 535.57162 410.76206 L 535.23624 410.22416 L 534.85071 409.72106 L 534.44469 408.95459 L 533.98577 408.21854 L 533.74432 407.63246 L 533.4476 407.07234 L 533.17438 406.24908 L 532.84399 405.44713 L 532.70315 404.82917 L 532.50348 404.22752 L 532.37066 403.37028 L 532.17794 402.52468 L 532.12645 401.79413 L 532.04454 401.26547 L 532.05149 400.73058 L 532 400 L 532 368 L 518 368 L 518 400 L 517.75043 402.98699 L 517.00866 405.89115 L 515.79524 408.63195 L 514.14382 411.13339 L 512.1002 413.3261 L 509.72106 415.14929 L 507.07234 416.5524 L 504.22752 417.49652 L 501.26547 417.95546 L 498.26833 417.91651 L 495.31921 417.38074 L 492.49988 416.36301 L 489.88853 414.89155 L 487.55756 413.00714 L 485.57162 410.76206 L 483.98577 408.21854 L 482.84399 405.44713 L 482.17794 402.52468 L 482 400 L 482 368 L 468 368 L 468 482 L 482 482 L 482 450 L 482.24957 447.01301 L 482.99134 444.10885 L 484.20476 441.36805 L 485.85618 438.86661 L 487.8998 436.6739 L 490.27894 434.85071 L 492.92766 433.4476 L 495.77248 432.50348 L 500 432 L 550 432 L 552.98699 432.24957 L 555.89115 432.99134 L 558.63195 434.20476 L 561.13339 435.85618 L 563.3261 437.8998 L 565.14929 440.27894 L 566.5524 442.92766 L 567.49652 445.77248 L 567.95546 448.73453 L 567.91651 451.73167 L 567.38074 454.68079 L 566.36301 457.50012 L 564.89155 460.11147 L 563.00714 462.44244 L 560.76206 464.42838 L 558.21854 466.01423 L 555.44713 467.15601 L 552.52468 467.82206 L 550 468 L 518 468 L 518 532 L 532 532 L 532 500 L 532.24957 497.01301 L 532.99134 494.10885 L 534.20476 491.36805 L 535.85618 488.86661 L 537.8998 486.6739 L 540.27894 484.85071 L 542.92766 483.4476 L 545.77248 482.50348 L 550 482 L 582 482 L 582 450 L 582.24957 447.01301 L 582.99134 444.10885 L 584.20476 441.36805 L 585.85618 438.86661 L 587.8998 436.6739 L 590.27894 434.85071 L 592.92766 433.4476 L 595.77248 432.50348 L 598.73453 432.04454 L 601.73167 432.08349 L 604.68079 432.61926 L 607.50012 433.63699 L 610.11147 435.10845 L 612.44244 436.99286 L 614.42838 439.23794 L 616.01423 441.78146 L 617.15601 444.55287 L 617.82206 447.47532 L 618 450 L 618 500 L 617.75043 502.98699 L 617.00866 505.89115 L 615.79524 508.63195 L 614.14382 511.13339 L 612.1002 513.3261 L 609.72106 515.14929 L 607.07234 516.5524 L 604.22752 517.49652 L 600 518 L 568 518 L 568 582 L 582 582 L 582 550 L 582.24957 547.01301 L 582.99134 544.10885 L 584.20476 541.36805 L 585.85618 538.86661 L 587.8998 536.6739 L 590.27894 534.85071 L 592.92766 533.4476 L 595.77248 532.50348 L 598.73453 532.04454 L 601.73167 532.08349 L 604.68079 532.61926 L 607.50012 533.63699 L 610.11147 535.10845 L 612.44244 536.99286 L 614.42838 539.23794 L 616.01423 541.78146 L 617.15601 544.55287 L 617.82206 547.47532 L 618 550 L 618 600 L 617.75043 602.98699 L 617.00866 605.89115 L 615.79524 608.63195 L 614.14382 611.13339 L 612.1002 613.3261 L 609.72106 615.14929 L 607.07234 616.5524 L 604.22752 617.49652 L 600 618 L 550 618 L 549.13565 617.92778 L 548.26833 617.91651 L 547.64465 617.8032 L 547.01301 617.75043 L 546.17261 617.53578 L 545.31921 617.38074 L 544.72305 617.16554 L 544.10885 617.00866 L 543.31563 616.65748 L 542.49988 616.36301 L 541.94771 616.05187 L 541.36805 615.79524 L 540.64416 615.31734 L 539.88853 614.89155 L 539.39559 614.49305 L 538.86661 614.14382 L 538.23211 613.55246 L 537.55756 613.00714 L 537.13755 612.53233 L 536.6739 612.1002 L 536.14636 611.4118 L 535.57162 610.76206 L 535.23624 610.22416 L 534.85071 609.72106 L 534.44469 608.95459 L 533.98577 608.21854 L 533.74432 607.63246 L 533.4476 607.07234 L 533.17438 606.24908 L 532.84399 605.44713 L 532.70315 604.82917 L 532.50348 604.22752 L 532.37066 603.37028 L 532.17794 602.52468 L 532.12645 601.79413 L 532.04454 601.26547 L 532.05149 600.73058 L 532 600 L 532 568 L 468 568 L 468 582 L 500 582 L 502.98699 582.24957 L 505.89115 582.99134 L 508.63195 584.20476 L 511.13339 585.85618 L 513.3261 587.8998 L 515.14929 590.27894 L 516.5524 592.92766 L 517.49652 595.77248 L 517.95546 598.73453 L 517.91651 601.73167 L 517.38074 604.68079 L 516.36301 607.50012 L 514.89155 610.11147 L 513.00714 612.44244 L 510.76206 614.42838 L 508.21854 616.01423 L 505.44713 617.15601 L 502.52468 617.82206 L 500 618 L 400 618 L 397.01301 617.75043 L 394.10885 617.00866 L 391.36805 615.79524 L 388.86661 614.14382 L 386.6739 612.1002 L 384.85071 609.72106 L 383.4476 607.07234 L 382.50348 604.22752 L 382.04454 601.26547 L 382.08349 598.26833 L 382.61926 595.31921 L 383.63699 592.49988 L 385.10845 589.88853 L 386.99286 587.55756 L 389.23794 585.57162 L 391.78146 583.98577 L 394.55287 582.84399 L 397.47532 582.17794 L 400 582 L 432 582 L 432 550 L 432.24957 547.01301 L 432.99134 544.10885 L 434.20476 541.36805 L 435.85618 538.86661 L 437.8998 536.6739 L 440.27894 534.85071 L 442.92766 533.4476 L 445.77248 532.50348 L 450 532 L 482 532 L 482 518 L 418 518 L 418 550 L 417.75043 552.98699 L 417.00866 555.89115 L 415.79524 558.63195 L 414.14382 561.13339 L 412.1002 563.3261 L 409.72106 565.14929 L 407.07234 566.5524 L 404.22752 567.49652 L 401.26547 567.95546 L 398.26833 567.91651 L 395.31921 567.38074 L 392.49988 566.36301 L 389.88853 564.89155 L 387.55756 563.00714 L 385.57162 560.76206 L 383.98577 558.21854 L 382.84399 555.44713 L 382.17794 552.52468 L 382 550 L 382 500 L 382.24957 497.01301 L 382.99134 494.10885 L 384.20476 491.36805 L 385.85618 488.86661 L 387.8998 486.6739 L 390.27894 484.85071 L 392.92766 483.4476 L 395.77248 482.50348 L 400 482 L 432 482 L 432 418 L 418 418 L 418 450 L 417.92778 450.86435 L 417.91651 451.73167 L 417.8032 452.35535 L 417.75043 452.98699 L 417.53578 453.82739 L 417.38074 454.68079 L 417.16554 455.27695 L 417.00866 455.89115 L 416.65748 456.68437 L 416.36301 457.50012 L 416.05187 458.05229 L 415.79524 458.63195 L 415.31734 459.35584 L 414.89155 460.11147 L 414.49305 460.60441 L 414.14382 461.13339 L 413.55246 461.76789 L 413.00714 462.44244 L 412.53233 462.86245 L 412.1002 463.3261 L 411.4118 463.85364 L 410.76206 464.42838 L 410.22416 464.76376 L 409.72106 465.14929 L 408.95459 465.55531 L 408.21854 466.01423 L 407.63246 466.25568 L 407.07234 466.5524 L 406.24908 466.82562 L 405.44713 467.15601 L 404.82917 467.29685 L 404.22752 467.49652 L 403.37028 467.62934 L 402.52468 467.82206 L 401.79413 467.87355 L 401.26547 467.95546 L 400.73058 467.94851 L 400 468 L 368 468 L 368 600 L 367.75043 602.98699 L 367.00866 605.89115 L 365.79524 608.63195 L 364.14382 611.13339 L 362.1002 613.3261 L 359.72106 615.14929 L 357.07234 616.5524 L 354.22752 617.49652 L 350 618 L 300 618 L 297.01301 617.75043 L 294.10885 617.00866 L 291.36805 615.79524 L 288.86661 614.14382 L 286.6739 612.1002 L 284.85071 609.72106 L 283.4476 607.07234 L 282.50348 604.22752 L 282.04454 601.26547 L 282.08349 598.26833 L 282.61926 595.31921 L 283.63699 592.49988 L 285.10845 589.88853 L 286.99286 587.55756 L 289.23794 585.57162 L 291.78146 583.98577 L 294.55287 582.84399 L 297.47532 582.17794 L 300 582 L 332 582 L 332 568 L 300 568 L 297.01301 567.75043 L 294.10885 567.00866 L 291.36805 565.79524 L 288.86661 564.14382 L 286.6739 562.1002 L 284.85071 559.72106 L 283.4476 557.07234 L 282.50348 554.22752 L 282.04454 551.26547 L 282.08349 548.26833 L 282.61926 545.31921 L 283.63699 542.49988 L 285.10845 539.88853 L 286.99286 537.55756 L 289.23794 535.57162 L 291.78146 533.98577 L 294.55287 532.84399 L 297.47532 532.17794 L 300 532 L 332 532 L 332 518 L 300 518 L 297.01301 517.75043 L 294.10885 517.00866 L 291.36805 515.79524 L 288.86661 514.14382 L 286.6739 512.1002 L 284.85071 509.72106 L 283.4476 507.07234 L 282.50348 504.22752 L 282.04454 501.26547 L 282.08349 498.26833 L 282.61926 495.31921 L 283.63699 492.49988 L 285.10845 489.88853 L 286.99286 487.55756 L 289.23794 485.57162 L 291.78146 483.98577 L 294.55287 482.84399 L 297.47532 482.17794 L 300 482 L 332 482 L 332 468 L 300 468 L 297.01301 467.75043 L 294.10885 467.00866 L 291.36805 465.79524 L 288.86661 464.14382 L 286.6739 462.1002 L 284.85071 459.72106 L 283.4476 457.07234 L 282.50348 454.22752 L 282.04454 451.26547 L 282.08349 448.26833 L 282.61926 445.31921 L 283.63699 442.49988 L 285.10845 439.88853 L 286.99286 437.55756 L 289.23794 435.57162 L 291.78146 433.98577 L 294.55287 432.84399 L 297.47532 432.17794 L 300 432 L 382 432 L 382 368 L 368 368 L 368 400 L 367.75043 402.98699 L 367.00866 405.89115 L 365.79524 408.63195 L 364.14382 411.13339 L 362.1002 413.3261 L 359.72106 415.14929 L 357.07234 416.5524 L 354.22752 417.49652 L 351.26547 417.95546 L 348.26833 417.91651 L 345.31921 417.38074 L 342.49988 416.36301 L 339.88853 414.89155 L 337.55756 413.00714 L 335.57162 410.76206 L 333.98577 408.21854 L 332.84399 405.44713 L 332.17794 402.52468 L 332 400 L 332 318 L 318 318 L 318 400 L 317.75043 402.98699 L 317.00866 405.89115 L 315.79524 408.63195 L 314.14382 411.13339 L 312.1002 413.3261 L 309.72106 415.14929 L 307.07234 416.5524 L 304.22752 417.49652 L 301.26547 417.95546 L 298.26833 417.91651 L 295.31921 417.38074 L 292.49988 416.36301 L 289.88853 414.89155 L 287.55756 413.00714 L 285.57162 410.76206 L 283.98577 408.21854 L 282.84399 405.44713 L 282.17794 402.52468 L 282 400 L 282 300 L 282.24957 297.01301 L 282.99134 294.10885 L 284.20476 291.36805 L 285.85618 288.86661 L 287.8998 286.6739 L 290.27894 284.85071 L 292.92766 283.4476 L 295.77248 282.50348 L 300 282 L 350 282 Z" stroke-miterlimit="10"/></g></svg>