<svg version="1.1" xmlns="http://www.w3.org/2000/svg" xmlns:xlink="http://www.w3.org/1999/xlink" width="900" height="900"><defs/><g><rect fill="#000000" stroke="none" x="0" y="0" width="900" height="900"/><path fill="#f6d86b" stroke="rgb(0,0,0)" paint-order="fill stroke markers" d=" M 519.2365550000001 707.34924 L 474.157535 769.39517 L 429.078525 707.34924 L 435.550655 705.24632 L 474.157545 692.70218 Z" stroke-opacity="0" stroke-miterlimit="10" stroke-width="0"/><path fill="#339194" stroke="rgb(0,0,0)" paint-order="fill stroke markers" d=" M 594.175935 731.69852 L 479.39360500000004 768.99356 L 523.2365550000001 708.64892 Z" stroke-opacity="0" stroke-miterlimit="10" stroke-width="0"/><path fill="#f10c49" stroke="rgb(0,0,0)" paint-order="fill stroke markers" d=" M 468.921475 768.99356 L 354.139145 731.69852 L 359.993245 729.79641 L 425.078525 708.64892 Z" stroke-opacity="0" stroke-miterlimit="10" stroke-width="0"/><path fill="#fb6b41" stroke="rgb(0,0,0)" paint-order="fill stroke markers" d=" M 598.648055 728.94576 L 525.7086850000001 705.24632 L 553.569055 666.89982 L 598.648055 652.25276 Z" stroke-opacity="0" stroke-miterlimit="10" stroke-width="0"/><path fill="#a70267" stroke="rgb(0,0,0)" paint-order="fill stroke markers" d=" M 316.71648500000003 692.50137 L 342.43095500000004 727.8943 L 227.648625 690.59926 L 298.588005 667.54966 Z" stroke-opacity="0" stroke-miterlimit="10" stroke-width="0"/><path fill="#fb6b41" stroke="rgb(0,0,0)" paint-order="fill stroke markers" d=" M 422.606395 705.24632 L 352.90308500000003 727.8943 L 395.982105 668.60113 Z" stroke-opacity="0" stroke-miterlimit="10" stroke-width="0"/><path fill="#f6d86b" stroke="rgb(0,0,0)" paint-order="fill stroke markers" d=" M 345.667025 725.54315 L 304.296215 668.60113 L 302.588005 666.24998 L 345.667025 652.25276 Z" stroke-opacity="0" stroke-miterlimit="10" stroke-width="0"/><path fill="#339194" stroke="rgb(0,0,0)" paint-order="fill stroke markers" d=" M 404.075375 597.54204 L 422.85017500000004 623.38333 L 423.37032500000004 624.09926 L 402.915615 652.25276 L 349.667025 725.54315 L 349.667025 600.1516 L 359.993245 596.79641 L 395.218165 585.35114 Z" stroke-opacity="0" stroke-miterlimit="10" stroke-width="0"/><path fill="#a70267" stroke="rgb(0,0,0)" paint-order="fill stroke markers" d=" M 602.648055 725.54315 L 602.648055 650.95308 L 627.904455 642.74678 L 673.587425 627.90348 Z" stroke-opacity="0" stroke-miterlimit="10" stroke-width="0"/><path fill="#f10c49" stroke="rgb(0,0,0)" paint-order="fill stroke markers" d=" M 549.860845 665.19852 L 521.7086850000001 703.94664 L 476.157535 689.14618 L 476.157535 609.85382 L 503.253965 601.04966 Z" stroke-opacity="0" stroke-miterlimit="10" stroke-width="0"/><path fill="#a70267" stroke="rgb(0,0,0)" paint-order="fill stroke markers" d=" M 472.157535 689.14618 L 426.606395 703.94664 L 398.45423500000004 665.19852 L 427.078535 625.80056 L 472.157535 611.1535 Z" stroke-opacity="0" stroke-miterlimit="10" stroke-width="0"/><path fill="#339194" stroke="rgb(0,0,0)" paint-order="fill stroke markers" d=" M 268.255505 625.80056 L 296.115875 664.14706 L 283.803725 668.14752 L 223.17650500000002 687.8465 L 223.17650500000002 611.1535 Z" stroke-opacity="0" stroke-miterlimit="10" stroke-width="0"/><path fill="#fb6b41" stroke="rgb(0,0,0)" paint-order="fill stroke markers" d=" M 205.628295 605.45174 L 219.17650500000002 609.85382 L 219.17650500000002 684.4439 L 183.706815 635.62406 L 148.23713500000002 586.80422 Z" stroke-opacity="0" stroke-miterlimit="10" stroke-width="0"/><path fill="#f10c49" stroke="rgb(0,0,0)" paint-order="fill stroke markers" d=" M 598.648055 600.1516 L 598.648055 648.04692 L 553.096915 662.84738 L 520.472635 617.94391 L 511.39653500000003 605.45174 L 507.253965 599.74998 L 552.332985 585.10292 Z" stroke-opacity="0" stroke-miterlimit="10" stroke-width="0"/><path fill="#f6d86b" stroke="rgb(0,0,0)" paint-order="fill stroke markers" d=" M 345.667025 599.34837 L 345.667025 648.04692 L 300.115875 662.84738 L 271.96371500000004 624.09926 L 272.483875 623.38333 L 317.80665500000003 561.00187 Z" stroke-opacity="0" stroke-miterlimit="10" stroke-width="0"/><path fill="#fb6b41" stroke="rgb(0,0,0)" paint-order="fill stroke markers" d=" M 614.960205 605.45174 L 672.351365 624.09926 L 614.960205 642.74678 L 602.648055 646.74724 L 602.648055 601.45128 Z" stroke-opacity="0" stroke-miterlimit="10" stroke-width="0"/><path fill="#339194" stroke="rgb(0,0,0)" paint-order="fill stroke markers" d=" M 298.87980500000003 534.95128 L 315.334525 557.59926 L 280.425085 605.64798 L 269.78337500000004 620.29504 L 268.727645 621.74812 L 223.17650500000002 606.94766 L 223.17650500000002 559.05234 L 230.443105 556.69128 L 298.588005 534.54966 Z" stroke-opacity="0" stroke-miterlimit="10" stroke-width="0"/><path fill="#f10c49" stroke="rgb(0,0,0)" paint-order="fill stroke markers" d=" M 425.842465 620.69666 L 399.218165 584.05146 L 421.398475 576.84464 L 461.68541500000003 563.75462 L 468.921475 561.40348 Z" stroke-opacity="0" stroke-miterlimit="10" stroke-width="0"/><path fill="#a70267" stroke="rgb(0,0,0)" paint-order="fill stroke markers" d=" M 472.157535 606.94766 L 431.078525 620.29504 L 472.157535 563.75463 Z" stroke-opacity="0" stroke-miterlimit="10" stroke-width="0"/><path fill="#f6d86b" stroke="rgb(0,0,0)" paint-order="fill stroke markers" d=" M 673.587425 620.29504 L 601.266085 596.79641 L 554.332975 581.54692 L 554.332975 533.6516 L 572.207895 527.84369 L 599.884125 518.85114 Z" stroke-opacity="0" stroke-miterlimit="10" stroke-width="0"/><path fill="#a70267" stroke="rgb(0,0,0)" paint-order="fill stroke markers" d=" M 676.823495 617.94391 L 633.744475 558.65072 L 676.823495 544.6535 Z" stroke-opacity="0" stroke-miterlimit="10" stroke-width="0"/><path fill="#339194" stroke="rgb(0,0,0)" paint-order="fill stroke markers" d=" M 680.823495 617.94388 L 680.823495 543.35382 L 751.762865 520.30422 Z" stroke-opacity="0" stroke-miterlimit="10" stroke-width="0"/><path fill="#f6d86b" stroke="rgb(0,0,0)" paint-order="fill stroke markers" d=" M 497.073635 592.54316 L 500.781835 597.64706 L 476.157535 605.64798 L 476.157535 563.75462 Z" stroke-opacity="0" stroke-miterlimit="10" stroke-width="0"/><path fill="#fb6b41" stroke="rgb(0,0,0)" paint-order="fill stroke markers" d=" M 219.17650500000002 558.24909 L 219.17650500000002 605.64798 L 146.23713500000002 581.94854 L 183.706815 530.37594 L 191.316145 519.9026 Z" stroke-opacity="0" stroke-miterlimit="10" stroke-width="0"/><path fill="#f10c49" stroke="rgb(0,0,0)" paint-order="fill stroke markers" d=" M 545.860855 583 L 504.781835 596.34738 L 479.39360500000004 561.40348 Z" stroke-opacity="0" stroke-miterlimit="10" stroke-width="0"/><path fill="#339194" stroke="rgb(0,0,0)" paint-order="fill stroke markers" d=" M 361.507025 538.95174 L 392.746035 581.94854 L 349.667025 595.94576 L 349.667025 522.65537 Z" stroke-opacity="0" stroke-miterlimit="10" stroke-width="0"/><path fill="#f6d86b" stroke="rgb(0,0,0)" paint-order="fill stroke markers" d=" M 345.667025 592.54316 L 339.47105500000004 584.01514 L 339.393205 583.90798 L 320.278795 557.59926 L 336.59094500000003 535.14752 L 345.667025 522.65536 Z" stroke-opacity="0" stroke-miterlimit="10" stroke-width="0"/><path fill="#f10c49" stroke="rgb(0,0,0)" paint-order="fill stroke markers" d=" M 464.890935 556.69128 L 467.68541500000003 557.59926 L 396.746035 580.64886 L 352.90308500000003 520.30422 Z" stroke-opacity="0" stroke-miterlimit="10" stroke-width="0"/><path fill="#a70267" stroke="rgb(0,0,0)" paint-order="fill stroke markers" d=" M 550.332975 580.24724 L 480.629665 557.59926 L 538.020835 538.95174 L 550.332975 534.95128 Z" stroke-opacity="0" stroke-miterlimit="10" stroke-width="0"/><path fill="#fb6b41" stroke="rgb(0,0,0)" paint-order="fill stroke markers" d=" M 186.37188500000002 513.0974 L 188.844015 516.5 L 145.001065 576.84464 L 145.001065 456.15536 Z" stroke-opacity="0" stroke-miterlimit="10" stroke-width="0"/><path fill="#f6d86b" stroke="rgb(0,0,0)" paint-order="fill stroke markers" d=" M 268.255505 492.80056 L 282.710235 512.69578 L 296.115875 531.14706 L 283.803725 535.14752 L 221.940435 555.24812 L 193.788275 516.5 L 221.940435 477.75188 Z" stroke-opacity="0" stroke-miterlimit="10" stroke-width="0"/><path fill="#339194" stroke="rgb(0,0,0)" paint-order="fill stroke markers" d=" M 614.960205 472.45174 L 676.823495 492.55234 L 676.823495 540.44766 L 631.272345 555.24812 L 630.216625 553.79504 L 613.470105 530.74544 L 602.648055 515.85016 L 602.648055 468.45128 Z" stroke-opacity="0" stroke-miterlimit="10" stroke-width="0"/><path fill="#fb6b41" stroke="rgb(0,0,0)" paint-order="fill stroke markers" d=" M 317.806665 554.19665 L 313.219265 547.88266 L 302.588005 533.24998 L 342.43095500000004 520.30422 Z" stroke-opacity="0" stroke-miterlimit="10" stroke-width="0"/><path fill="#a70267" stroke="rgb(0,0,0)" paint-order="fill stroke markers" d=" M 467.213275 551.4439 L 468.921475 553.79504 L 389.051435 527.84369 L 354.139155 516.5 L 425.078525 493.4504 Z" stroke-opacity="0" stroke-miterlimit="10" stroke-width="0"/><path fill="#f10c49" stroke="rgb(0,0,0)" paint-order="fill stroke markers" d=" M 550.332975 530.74544 L 479.39360500000004 553.79504 L 523.7086850000001 492.80056 L 550.332975 456.15537 Z" stroke-opacity="0" stroke-miterlimit="10" stroke-width="0"/><path fill="#a70267" stroke="rgb(0,0,0)" paint-order="fill stroke markers" d=" M 476.157535 551.4439 L 476.157535 476.85382 L 506.017905 467.1516 L 547.096915 453.80422 Z" stroke-opacity="0" stroke-miterlimit="10" stroke-width="0"/><path fill="#fb6b41" stroke="rgb(0,0,0)" paint-order="fill stroke markers" d=" M 472.157535 551.44387 L 431.078525 494.90348 L 429.078525 492.15072 L 435.550655 490.0478 L 472.157535 478.1535 Z" stroke-opacity="0" stroke-miterlimit="10" stroke-width="0"/><path fill="#f6d86b" stroke="rgb(0,0,0)" paint-order="fill stroke markers" d=" M 753.762865 515.44854 L 693.135635 535.14752 L 680.823495 539.14798 L 680.823495 491.74909 L 708.683855 453.4026 Z" stroke-opacity="0" stroke-miterlimit="10" stroke-width="0"/><path fill="#f10c49" stroke="rgb(0,0,0)" paint-order="fill stroke markers" d=" M 283.803725 497.85248 L 341.19489500000003 516.5 L 337.020395 517.85638 L 333.958825 518.85114 L 300.115875 529.84738 L 274.727645 494.90348 Z" stroke-opacity="0" stroke-miterlimit="10" stroke-width="0"/><path fill="#339194" stroke="rgb(0,0,0)" paint-order="fill stroke markers" d=" M 597.411995 515.44854 L 590.001425 517.85638 L 575.231655 522.65537 L 554.332975 529.44576 L 554.332975 456.15536 Z" stroke-opacity="0" stroke-miterlimit="10" stroke-width="0"/><path fill="#f10c49" stroke="rgb(0,0,0)" paint-order="fill stroke markers" d=" M 205.628295 472.45174 L 217.940445 476.4522 L 191.316145 513.0974 L 183.706815 502.62406 L 148.23713500000002 453.80422 Z" stroke-opacity="0" stroke-miterlimit="10" stroke-width="0"/><path fill="#f6d86b" stroke="rgb(0,0,0)" paint-order="fill stroke markers" d=" M 314.278795 473.94766 L 315.994205 476.30872 L 342.430965 512.69578 L 272.727645 490.0478 L 284.22346500000003 474.22517 L 299.351935 453.40261 Z" stroke-opacity="0" stroke-miterlimit="10" stroke-width="0"/><path fill="#a70267" stroke="rgb(0,0,0)" paint-order="fill stroke markers" d=" M 422.606395 490.0478 L 352.90308500000003 512.69578 L 395.982095 453.4026 Z" stroke-opacity="0" stroke-miterlimit="10" stroke-width="0"/><path fill="#339194" stroke="rgb(0,0,0)" paint-order="fill stroke markers" d=" M 754.998935 510.34464 L 711.155985 450 L 754.998935 389.65536 Z" stroke-opacity="0" stroke-miterlimit="10" stroke-width="0"/><path fill="#fb6b41" stroke="rgb(0,0,0)" paint-order="fill stroke markers" d=" M 393.399215 449.84757 L 393.509965 450 L 349.667025 510.34463 L 349.667025 389.65537 Z" stroke-opacity="0" stroke-miterlimit="10" stroke-width="0"/><path fill="#339194" stroke="rgb(0,0,0)" paint-order="fill stroke markers" d=" M 598.648055 467.1516 L 598.648055 510.34463 L 593.038735 502.62406 L 557.569045 453.80422 Z" stroke-opacity="0" stroke-miterlimit="10" stroke-width="0"/><path fill="#a70267" stroke="rgb(0,0,0)" paint-order="fill stroke markers" d=" M 345.667025 510.34463 L 321.660755 477.30285 L 301.824075 450 L 302.051395 449.68713 L 345.667025 389.65536 Z" stroke-opacity="0" stroke-miterlimit="10" stroke-width="0"/><path fill="#f10c49" stroke="rgb(0,0,0)" paint-order="fill stroke markers" d=" M 706.211715 450 L 678.059555 488.74812 L 639.775015 476.30872 L 602.648055 464.24544 L 602.648055 435.75456 L 678.059555 411.25188 Z" stroke-opacity="0" stroke-miterlimit="10" stroke-width="0"/><path fill="#fb6b41" stroke="rgb(0,0,0)" paint-order="fill stroke markers" d=" M 295.720885 448.40489 L 296.87980500000003 450 L 279.480815 473.94766 L 268.727645 488.74812 L 149.473195 450 L 268.727645 411.25188 Z" stroke-opacity="0" stroke-miterlimit="10" stroke-width="0"/><path fill="#f6d86b" stroke="rgb(0,0,0)" paint-order="fill stroke markers" d=" M 461.831325 422.69715 L 469.587515 425.21729 L 472.157535 426.05234 L 472.157535 473.94766 L 426.606395 488.74812 L 400.926375 453.40261 L 398.45423500000004 450 L 400.926375 446.5974 L 426.606395 411.25188 Z" stroke-opacity="0" stroke-miterlimit="10" stroke-width="0"/><path fill="#339194" stroke="rgb(0,0,0)" paint-order="fill stroke markers" d=" M 542.242825 448.82443 L 545.860855 450 L 476.157535 472.64798 L 476.157535 427.35202 Z" stroke-opacity="0" stroke-miterlimit="10" stroke-width="0"/><path fill="#f6d86b" stroke="rgb(0,0,0)" paint-order="fill stroke markers" d=" M 598.648055 462.94576 L 570.513295 453.80422 L 558.805105 450 L 598.648055 437.05424 Z" stroke-opacity="0" stroke-miterlimit="10" stroke-width="0"/><path fill="#a70267" stroke="rgb(0,0,0)" paint-order="fill stroke markers" d=" M 299.643735 446.19578 L 299.351935 446.5974 L 272.727645 409.9522 L 342.43095500000004 387.30422 Z" stroke-opacity="0" stroke-miterlimit="10" stroke-width="0"/><path fill="#fb6b41" stroke="rgb(0,0,0)" paint-order="fill stroke markers" d=" M 693.135635 364.85248 L 753.762865 384.55146 L 708.683845 446.5974 L 680.823495 408.25091 L 680.823495 360.85202 Z" stroke-opacity="0" stroke-miterlimit="10" stroke-width="0"/><path fill="#f10c49" stroke="rgb(0,0,0)" paint-order="fill stroke markers" d=" M 407.662145 405.09652 L 422.606395 409.9522 L 396.27389500000004 446.19578 L 395.982095 446.5974 L 352.90308500000003 387.30422 Z" stroke-opacity="0" stroke-miterlimit="10" stroke-width="0"/><path fill="#339194" stroke="rgb(0,0,0)" paint-order="fill stroke markers" d=" M 547.096915 446.19578 L 476.157535 423.14618 L 476.157535 348.5561 Z" stroke-opacity="0" stroke-miterlimit="10" stroke-width="0"/><path fill="#a70267" stroke="rgb(0,0,0)" paint-order="fill stroke markers" d=" M 217.940445 423.5478 L 205.628295 427.54826 L 148.23713500000002 446.19578 L 183.706815 397.37594 L 191.316145 386.9026 Z" stroke-opacity="0" stroke-miterlimit="10" stroke-width="0"/><path fill="#f10c49" stroke="rgb(0,0,0)" paint-order="fill stroke markers" d=" M 598.648055 432.8484 L 557.569045 446.19578 L 593.038735 397.37594 L 598.648055 389.65537 Z" stroke-opacity="0" stroke-miterlimit="10" stroke-width="0"/><path fill="#fb6b41" stroke="rgb(0,0,0)" paint-order="fill stroke markers" d=" M 188.844015 383.5 L 145.001065 443.84464 L 145.001065 323.15536 Z" stroke-opacity="0" stroke-miterlimit="10" stroke-width="0"/><path fill="#f6d86b" stroke="rgb(0,0,0)" paint-order="fill stroke markers" d=" M 593.213025 383.18713 L 593.706775 383.34756 L 597.411995 384.55146 L 554.332975 443.84464 L 554.332975 370.55424 Z" stroke-opacity="0" stroke-miterlimit="10" stroke-width="0"/><path fill="#fb6b41" stroke="rgb(0,0,0)" paint-order="fill stroke markers" d=" M 541.388735 366.3484 L 550.332975 369.25456 L 550.332975 443.84461 L 479.39360500000004 346.20496 Z" stroke-opacity="0" stroke-miterlimit="10" stroke-width="0"/><path fill="#a70267" stroke="rgb(0,0,0)" paint-order="fill stroke markers" d=" M 676.823495 359.55234 L 676.823495 407.44766 L 614.960205 427.54826 L 602.648055 431.54872 L 602.648055 384.14984 L 631.272345 344.75188 Z" stroke-opacity="0" stroke-miterlimit="10" stroke-width="0"/><path fill="#f6d86b" stroke="rgb(0,0,0)" paint-order="fill stroke markers" d=" M 283.803725 364.85248 L 296.115875 368.85294 L 268.255505 407.19944 L 221.940435 422.24812 L 193.788275 383.5 L 221.940435 344.75188 Z" stroke-opacity="0" stroke-miterlimit="10" stroke-width="0"/><path fill="#339194" stroke="rgb(0,0,0)" paint-order="fill stroke markers" d=" M 472.157535 421.8465 L 429.078525 407.84928 L 429.37032500000004 407.44766 L 457.411025 368.85294 L 472.157535 348.55612 Z" stroke-opacity="0" stroke-miterlimit="10" stroke-width="0"/><path fill="#f10c49" stroke="rgb(0,0,0)" paint-order="fill stroke markers" d=" M 426.134255 405.09652 L 425.078525 406.5496 L 364.61127500000003 386.9026 L 354.139145 383.5 L 354.60830500000003 383.34756 L 468.921475 346.20496 Z" stroke-opacity="0" stroke-miterlimit="10" stroke-width="0"/><path fill="#fb6b41" stroke="rgb(0,0,0)" paint-order="fill stroke markers" d=" M 341.19489500000003 383.5 L 283.803725 402.14752 L 274.727645 405.09652 L 300.115875 370.15262 Z" stroke-opacity="0" stroke-miterlimit="10" stroke-width="0"/><path fill="#f10c49" stroke="rgb(0,0,0)" paint-order="fill stroke markers" d=" M 625.564145 345.80334 L 600.939855 379.69578 L 599.884125 381.14886 L 567.277225 370.55424 L 564.414425 369.62406 L 554.332975 366.3484 L 554.332975 318.45308 L 673.587425 279.70496 Z" stroke-opacity="0" stroke-miterlimit="10" stroke-width="0"/><path fill="#339194" stroke="rgb(0,0,0)" paint-order="fill stroke markers" d=" M 219.17650500000002 341.75091 L 191.316145 380.0974 L 183.706815 369.62406 L 146.23713500000002 318.05146 L 219.17650500000002 294.35202 Z" stroke-opacity="0" stroke-miterlimit="10" stroke-width="0"/><path fill="#f6d86b" stroke="rgb(0,0,0)" paint-order="fill stroke markers" d=" M 751.762865 379.69578 L 680.823495 356.64618 L 680.823495 282.05611 Z" stroke-opacity="0" stroke-miterlimit="10" stroke-width="0"/><path fill="#a70267" stroke="rgb(0,0,0)" paint-order="fill stroke markers" d=" M 461.831325 340.49863 L 467.68541500000003 342.40074 L 352.90308500000003 379.69578 L 396.746035 319.35114 Z" stroke-opacity="0" stroke-miterlimit="10" stroke-width="0"/><path fill="#f6d86b" stroke="rgb(0,0,0)" paint-order="fill stroke markers" d=" M 318.649455 346.96336 L 342.43095500000004 379.69578 L 302.588005 366.75002 L 317.80665500000003 345.80334 Z" stroke-opacity="0" stroke-miterlimit="10" stroke-width="0"/><path fill="#339194" stroke="rgb(0,0,0)" paint-order="fill stroke markers" d=" M 345.667025 377.34463 L 320.278795 342.40074 L 345.667025 307.45684 Z" stroke-opacity="0" stroke-miterlimit="10" stroke-width="0"/><path fill="#fb6b41" stroke="rgb(0,0,0)" paint-order="fill stroke markers" d=" M 392.746035 318.05146 L 349.667025 377.34463 L 349.667025 304.05424 Z" stroke-opacity="0" stroke-miterlimit="10" stroke-width="0"/><path fill="#a70267" stroke="rgb(0,0,0)" paint-order="fill stroke markers" d=" M 269.78337500000004 279.70497 L 314.27880500000003 340.94766 L 314.480425 341.22517 L 315.334525 342.40074 L 312.862385 345.80334 L 312.570595 346.20496 L 298.588005 365.45034 L 267.491585 355.3465 L 234.88469500000002 344.75188 L 223.17650500000002 340.94766 L 223.17650500000002 293.05234 L 268.727645 278.25188 Z" stroke-opacity="0" stroke-miterlimit="10" stroke-width="0"/><path fill="#f10c49" stroke="rgb(0,0,0)" paint-order="fill stroke markers" d=" M 550.332975 365.04872 L 538.020835 361.04826 L 480.629665 342.40074 L 550.332975 319.75276 Z" stroke-opacity="0" stroke-miterlimit="10" stroke-width="0"/><path fill="#f6d86b" stroke="rgb(0,0,0)" paint-order="fill stroke markers" d=" M 676.823495 355.3465 L 633.744475 341.34928 L 676.823495 282.0561 Z" stroke-opacity="0" stroke-miterlimit="10" stroke-width="0"/><path fill="#fb6b41" stroke="rgb(0,0,0)" paint-order="fill stroke markers" d=" M 345.667025 251.95308 L 345.667025 300.65163 L 317.80665500000003 338.99814 L 271.96371500000004 275.90074 L 272.99120500000004 274.48653 L 300.115875 237.15262 Z" stroke-opacity="0" stroke-miterlimit="10" stroke-width="0"/><path fill="#f10c49" stroke="rgb(0,0,0)" paint-order="fill stroke markers" d=" M 468.921475 338.59652 L 399.218165 315.94854 L 425.842465 279.30334 Z" stroke-opacity="0" stroke-miterlimit="10" stroke-width="0"/><path fill="#a70267" stroke="rgb(0,0,0)" paint-order="fill stroke markers" d=" M 545.860855 317 L 479.39360500000004 338.59652 L 504.781835 303.65262 Z" stroke-opacity="0" stroke-miterlimit="10" stroke-width="0"/><path fill="#339194" stroke="rgb(0,0,0)" paint-order="fill stroke markers" d=" M 500.781835 302.35294 L 476.157535 336.24538 L 476.157535 294.35202 Z" stroke-opacity="0" stroke-miterlimit="10" stroke-width="0"/><path fill="#a70267" stroke="rgb(0,0,0)" paint-order="fill stroke markers" d=" M 463.213295 290.14618 L 472.157535 293.05234 L 472.157535 336.24537 L 431.078545 279.70497 Z" stroke-opacity="0" stroke-miterlimit="10" stroke-width="0"/><path fill="#f10c49" stroke="rgb(0,0,0)" paint-order="fill stroke markers" d=" M 589.703815 249.04692 L 598.648055 251.95308 L 598.648055 299.8484 L 552.332975 314.89708 L 517.726095 303.65262 L 515.399275 302.89659 L 507.253965 300.25002 L 553.096915 237.15262 Z" stroke-opacity="0" stroke-miterlimit="10" stroke-width="0"/><path fill="#f6d86b" stroke="rgb(0,0,0)" paint-order="fill stroke markers" d=" M 422.342845 274.48653 L 423.37032500000004 275.90074 L 395.218165 314.64886 L 349.667025 299.8484 L 349.667025 174.45685 Z" stroke-opacity="0" stroke-miterlimit="10" stroke-width="0"/><path fill="#339194" stroke="rgb(0,0,0)" paint-order="fill stroke markers" d=" M 219.17650500000002 290.14618 L 205.628295 294.54826 L 148.23713500000002 313.19578 L 183.706815 264.37594 L 219.17650500000002 215.5561 Z" stroke-opacity="0" stroke-miterlimit="10" stroke-width="0"/><path fill="#fb6b41" stroke="rgb(0,0,0)" paint-order="fill stroke markers" d=" M 549.860845 234.80148 L 503.253965 298.95034 L 476.157535 290.14618 L 476.157535 210.85382 L 521.7086850000001 196.05336 Z" stroke-opacity="0" stroke-miterlimit="10" stroke-width="0"/><path fill="#f10c49" stroke="rgb(0,0,0)" paint-order="fill stroke markers" d=" M 614.960205 257.25322 L 672.351365 275.90074 L 614.960205 294.54826 L 602.648055 298.54872 L 602.648055 253.25276 Z" stroke-opacity="0" stroke-miterlimit="10" stroke-width="0"/><path fill="#f6d86b" stroke="rgb(0,0,0)" paint-order="fill stroke markers" d=" M 283.803725 231.85248 L 296.115875 235.85294 L 280.56766500000003 257.25322 L 275.39270500000003 264.37594 L 268.255505 274.19944 L 223.17650500000002 288.8465 L 223.17650500000002 212.1535 Z" stroke-opacity="0" stroke-miterlimit="10" stroke-width="0"/><path fill="#fb6b41" stroke="rgb(0,0,0)" paint-order="fill stroke markers" d=" M 467.68541500000003 209.40074 L 472.157535 210.85382 L 472.157535 288.8465 L 438.16868500000004 277.80285 L 427.078535 274.19944 L 398.45423500000004 234.80148 L 426.606395 196.05336 Z" stroke-opacity="0" stroke-miterlimit="10" stroke-width="0"/><path fill="#a70267" stroke="rgb(0,0,0)" paint-order="fill stroke markers" d=" M 673.587425 272.09652 L 615.592305 253.25276 L 602.648055 249.04692 L 602.648055 174.45684 Z" stroke-opacity="0" stroke-miterlimit="10" stroke-width="0"/><path fill="#339194" stroke="rgb(0,0,0)" paint-order="fill stroke markers" d=" M 598.648055 247.74724 L 553.569055 233.10018 L 525.7086850000001 194.75368 L 598.648055 171.05424 Z" stroke-opacity="0" stroke-miterlimit="10" stroke-width="0"/><path fill="#fb6b41" stroke="rgb(0,0,0)" paint-order="fill stroke markers" d=" M 345.667025 247.74724 L 302.588005 233.75002 L 303.532285 232.45034 L 345.667025 174.45684 Z" stroke-opacity="0" stroke-miterlimit="10" stroke-width="0"/><path fill="#339194" stroke="rgb(0,0,0)" paint-order="fill stroke markers" d=" M 298.588005 232.45034 L 227.648625 209.40074 L 342.43095500000004 172.1057 Z" stroke-opacity="0" stroke-miterlimit="10" stroke-width="0"/><path fill="#f6d86b" stroke="rgb(0,0,0)" paint-order="fill stroke markers" d=" M 360.139145 174.45684 L 412.134265 191.35108 L 422.606395 194.75368 L 395.982095 231.39888 L 352.90308500000003 172.1057 Z" stroke-opacity="0" stroke-miterlimit="10" stroke-width="0"/><path fill="#f10c49" stroke="rgb(0,0,0)" paint-order="fill stroke markers" d=" M 519.2365550000001 192.65076 L 474.157545 207.29782 L 439.550655 196.05336 L 438.97355500000003 195.86585 L 429.078525 192.65076 L 474.157545 130.60483 Z" stroke-opacity="0" stroke-miterlimit="10" stroke-width="0"/><path fill="#a70267" stroke="rgb(0,0,0)" paint-order="fill stroke markers" d=" M 425.078525 191.35108 L 365.847335 172.1057 L 361.73046500000004 170.76805 L 354.139145 168.30148 L 468.921475 131.00644 Z" stroke-opacity="0" stroke-miterlimit="10" stroke-width="0"/><path fill="#fb6b41" stroke="rgb(0,0,0)" paint-order="fill stroke markers" d=" M 594.175935 168.30148 L 523.2365550000001 191.35108 L 479.39360500000004 131.00644 Z" stroke-opacity="0" stroke-miterlimit="10" stroke-width="0"/></g></svg>