<svg version="1.1" xmlns="http://www.w3.org/2000/svg" xmlns:xlink="http://www.w3.org/1999/xlink" width="900" height="900"><defs/><g><path fill="#222222" stroke="#cccccc" paint-order="fill stroke markers" d=" M 377.98699 257.24957 L 380.89115 257.99134 L 383.63195 259.20476 L 386.13339 260.85618 L 388.3261 262.8998 L 390.14929 265.27894 L 391.5524 267.92766 L 392.49652 270.77248 L 392.95546 273.73453 L 392.91651 276.73167 L 392.38074 279.68079 L 391.36301 282.50012 L 389.89155 285.11147 L 388.00714 287.44244 L 385.76206 289.42838 L 383.21854 291.01423 L 380.44713 292.15601 L 377.52468 292.82206 L 375 293 L 343 293 L 343 307 L 425 307 L 427.98699 307.24957 L 430.89115 307.99134 L 433.63195 309.20476 L 436.13339 310.85618 L 438.3261 312.8998 L 440.14929 315.27894 L 441.5524 317.92766 L 442.49652 320.77248 L 442.95546 323.73453 L 442.91651 326.73167 L 442.38074 329.68079 L 441.36301 332.50012 L 439.89155 335.11147 L 438.00714 337.44244 L 435.76206 339.42838 L 433.21854 341.01423 L 430.44713 342.15601 L 427.52468 342.82206 L 425 343 L 343 343 L 343 357 L 425 357 L 427.98699 357.24957 L 430.89115 357.99134 L 433.63195 359.20476 L 436.13339 360.85618 L 438.3261 362.8998 L 440.14929 365.27894 L 441.5524 367.92766 L 442.49652 370.77248 L 442.95546 373.73453 L 442.91651 376.73167 L 442.38074 379.68079 L 441.36301 382.50012 L 439.89155 385.11147 L 438.00714 387.44244 L 435.76206 389.42838 L 433.21854 391.01423 L 430.44713 392.15601 L 427.52468 392.82206 L 425 393 L 343 393 L 343 407 L 457 407 L 457 293 L 425 293 L 422.01301 292.75043 L 419.10885 292.00866 L 416.36805 290.79524 L 413.86661 289.14382 L 411.6739 287.1002 L 409.85071 284.72106 L 408.4476 282.07234 L 407.50348 279.22752 L 407.04454 276.26547 L 407.08349 273.26833 L 407.61926 270.31921 L 408.63699 267.49988 L 410.10845 264.88853 L 411.99286 262.55756 L 414.23794 260.57162 L 416.78146 258.98577 L 419.55287 257.84399 L 422.47532 257.17794 L 425 257 L 475 257 L 477.98699 257.24957 L 480.89115 257.99134 L 483.63195 259.20476 L 486.13339 260.85618 L 488.3261 262.8998 L 490.14929 265.27894 L 491.5524 267.92766 L 492.49652 270.77248 L 493 275 L 493 307 L 507 307 L 507 275 L 507.24957 272.01301 L 507.99134 269.10885 L 509.20476 266.36805 L 510.85618 263.86661 L 512.8998 261.6739 L 515.27894 259.85071 L 517.92766 258.4476 L 520.77248 257.50348 L 523.73453 257.04454 L 526.73167 257.08349 L 529.68079 257.61926 L 532.50012 258.63699 L 535.11147 260.10845 L 537.44244 261.99286 L 539.42838 264.23794 L 541.01423 266.78146 L 542.15601 269.55287 L 542.82206 272.47532 L 543 275 L 543 325 L 542.75043 327.98699 L 542.00866 330.89115 L 540.79524 333.63195 L 539.14382 336.13339 L 537.1002 338.3261 L 534.72106 340.14929 L 532.07234 341.5524 L 529.22752 342.49652 L 525 343 L 493 343 L 493 357 L 607 357 L 607 343 L 575 343 L 572.01301 342.75043 L 569.10885 342.00866 L 566.36805 340.79524 L 563.86661 339.14382 L 561.6739 337.1002 L 559.85071 334.72106 L 558.4476 332.07234 L 557.50348 329.22752 L 557 325 L 557 275 L 557.24957 272.01301 L 557.99134 269.10885 L 559.20476 266.36805 L 560.85618 263.86661 L 562.8998 261.6739 L 565.27894 259.85071 L 567.92766 258.4476 L 570.77248 257.50348 L 573.73453 257.04454 L 576.73167 257.08349 L 579.68079 257.61926 L 582.50012 258.63699 L 585.11147 260.10845 L 587.44244 261.99286 L 589.42838 264.23794 L 591.01423 266.78146 L 592.15601 269.55287 L 592.82206 272.47532 L 593 275 L 593 307 L 607 307 L 607 275 L 607.24957 272.01301 L 607.99134 269.10885 L 609.20476 266.36805 L 610.85618 263.86661 L 612.8998 261.6739 L 615.27894 259.85071 L 617.92766 258.4476 L 620.77248 257.50348 L 623.73453 257.04454 L 626.73167 257.08349 L 629.68079 257.61926 L 632.50012 258.63699 L 635.11147 260.10845 L 637.44244 261.99286 L 639.42838 264.23794 L 641.01423 266.78146 L 642.15601 269.55287 L 642.82206 272.47532 L 643 275 L 643 475 L 642.75043 477.98699 L 642.00866 480.89115 L 640.79524 483.63195 L 639.14382 486.13339 L 637.1002 488.3261 L 634.72106 490.14929 L 632.07234 491.5524 L 629.22752 492.49652 L 626.26547 492.95546 L 623.26833 492.91651 L 620.31921 492.38074 L 617.49988 491.36301 L 614.88853 489.89155 L 612.55756 488.00714 L 610.57162 485.76206 L 608.98577 483.21854 L 607.84399 480.44713 L 607.17794 477.52468 L 607 475 L 607 393 L 593 393 L 593 425 L 592.75043 427.98699 L 592.00866 430.89115 L 590.79524 433.63195 L 589.14382 436.13339 L 587.1002 438.3261 L 584.72106 440.14929 L 582.07234 441.5524 L 579.22752 442.49652 L 576.26547 442.95546 L 573.26833 442.91651 L 570.31921 442.38074 L 567.49988 441.36301 L 564.88853 439.89155 L 562.55756 438.00714 L 560.57162 435.76206 L 558.98577 433.21854 L 557.84399 430.44713 L 557.17794 427.52468 L 557 425 L 557 393 L 543 393 L 543 425 L 542.75043 427.98699 L 542.00866 430.89115 L 540.79524 433.63195 L 539.14382 436.13339 L 537.1002 438.3261 L 534.72106 440.14929 L 532.07234 441.5524 L 529.22752 442.49652 L 526.26547 442.95546 L 523.26833 442.91651 L 520.31921 442.38074 L 517.49988 441.36301 L 514.88853 439.89155 L 512.55756 438.00714 L 510.57162 435.76206 L 508.98577 433.21854 L 507.84399 430.44713 L 507.17794 427.52468 L 507 425 L 507 393 L 493 393 L 493 507 L 507 507 L 507 475 L 507.24957 472.01301 L 507.99134 469.10885 L 509.20476 466.36805 L 510.85618 463.86661 L 512.8998 461.6739 L 515.27894 459.85071 L 517.92766 458.4476 L 520.77248 457.50348 L 525 457 L 575 457 L 577.98699 457.24957 L 580.89115 457.99134 L 583.63195 459.20476 L 586.13339 460.85618 L 588.3261 462.8998 L 590.14929 465.27894 L 591.5524 467.92766 L 592.49652 470.77248 L 592.95546 473.73453 L 592.91651 476.73167 L 592.38074 479.68079 L 591.36301 482.50012 L 589.89155 485.11147 L 588.00714 487.44244 L 585.76206 489.42838 L 583.21854 491.01423 L 580.44713 492.15601 L 577.52468 492.82206 L 575 493 L 543 493 L 543 507 L 625 507 L 627.98699 507.24957 L 630.89115 507.99134 L 633.63195 509.20476 L 636.13339 510.85618 L 638.3261 512.8998 L 640.14929 515.27894 L 641.5524 517.92766 L 642.49652 520.77248 L 642.95546 523.73453 L 642.91651 526.73167 L 642.38074 529.68079 L 641.36301 532.50012 L 639.89155 535.11147 L 638.00714 537.44244 L 635.76206 539.42838 L 633.21854 541.01423 L 630.44713 542.15601 L 627.52468 542.82206 L 625 543 L 593 543 L 593 557 L 625 557 L 625.86435 557.07222 L 626.73167 557.08349 L 627.35535 557.1968 L 627.98699 557.24957 L 628.82739 557.46422 L 629.68079 557.61926 L 630.27695 557.83446 L 630.89115 557.99134 L 631.68437 558.34252 L 632.50012 558.63699 L 633.05229 558.94813 L 633.63195 559.20476 L 634.35584 559.68266 L 635.11147 560.10845 L 635.60441 560.50695 L 636.13339 560.85618 L 636.76789 561.44754 L 637.44244 561.99286 L 637.86245 562.46767 L 638.3261 562.8998 L 638.85364 563.5882 L 639.42838 564.23794 L 639.76376 564.77584 L 640.14929 565.27894 L 640.55531 566.04541 L 641.01423 566.78146 L 641.25568 567.36754 L 641.5524 567.92766 L 641.82562 568.75092 L 642.15601 569.55287 L 642.29685 570.17083 L 642.49652 570.77248 L 642.62934 571.62972 L 642.82206 572.47532 L 642.87355 573.20587 L 642.95546 573.73453 L 642.94851 574.26942 L 643 575 L 643 625 L 642.92778 625.86435 L 642.91651 626.73167 L 642.8032 627.35535 L 642.75043 627.98699 L 642.53578 628.82739 L 642.38074 629.68079 L 642.16554 630.27695 L 642.00866 630.89115 L 641.65748 631.68437 L 641.36301 632.50012 L 641.05187 633.05229 L 640.79524 633.63195 L 640.31734 634.35584 L 639.89155 635.11147 L 639.49305 635.60441 L 639.14382 636.13339 L 638.55246 636.76789 L 638.00714 637.44244 L 637.53233 637.86245 L 637.1002 638.3261 L 636.4118 638.85364 L 635.76206 639.42838 L 635.22416 639.76376 L 634.72106 640.14929 L 633.95459 640.55531 L 633.21854 641.01423 L 632.63246 641.25568 L 632.07234 641.5524 L 631.24908 641.82562 L 630.44713 642.15601 L 629.82917 642.29685 L 629.22752 642.49652 L 628.37028 642.62934 L 627.52468 642.82206 L 626.79413 642.87355 L 626.26547 642.95546 L 625.73058 642.94851 L 625 643 L 575 643 L 572.01301 642.75043 L 569.10885 642.00866 L 566.36805 640.79524 L 563.86661 639.14382 L 561.6739 637.1002 L 559.85071 634.72106 L 558.4476 632.07234 L 557.50348 629.22752 L 557.04454 626.26547 L 557.08349 623.26833 L 557.61926 620.31921 L 558.63699 617.49988 L 560.10845 614.88853 L 561.99286 612.55756 L 564.23794 610.57162 L 566.78146 608.98577 L 569.55287 607.84399 L 572.47532 607.17794 L 575 607 L 607 607 L 607 593 L 543 593 L 543 625 L 542.75043 627.98699 L 542.00866 630.89115 L 540.79524 633.63195 L 539.14382 636.13339 L 537.1002 638.3261 L 534.72106 640.14929 L 532.07234 641.5524 L 529.22752 642.49652 L 526.26547 642.95546 L 523.26833 642.91651 L 520.31921 642.38074 L 517.49988 641.36301 L 514.88853 639.89155 L 512.55756 638.00714 L 510.57162 635.76206 L 508.98577 633.21854 L 507.84399 630.44713 L 507.17794 627.52468 L 507 625 L 507 593 L 475 593 L 472.01301 592.75043 L 469.10885 592.00866 L 466.36805 590.79524 L 463.86661 589.14382 L 461.6739 587.1002 L 459.85071 584.72106 L 458.4476 582.07234 L 457.50348 579.22752 L 457.04454 576.26547 L 457.08349 573.26833 L 457.61926 570.31921 L 458.63699 567.49988 L 460.10845 564.88853 L 461.99286 562.55756 L 464.23794 560.57162 L 466.78146 558.98577 L 469.55287 557.84399 L 472.47532 557.17794 L 475 557 L 557 557 L 557 543 L 443 543 L 443 607 L 475 607 L 477.98699 607.24957 L 480.89115 607.99134 L 483.63195 609.20476 L 486.13339 610.85618 L 488.3261 612.8998 L 490.14929 615.27894 L 491.5524 617.92766 L 492.49652 620.77248 L 492.95546 623.73453 L 492.91651 626.73167 L 492.38074 629.68079 L 491.36301 632.50012 L 489.89155 635.11147 L 488.00714 637.44244 L 485.76206 639.42838 L 483.21854 641.01423 L 480.44713 642.15601 L 477.52468 642.82206 L 475 643 L 425 643 L 422.01301 642.75043 L 419.10885 642.00866 L 416.36805 640.79524 L 413.86661 639.14382 L 411.6739 637.1002 L 409.85071 634.72106 L 408.4476 632.07234 L 407.50348 629.22752 L 407 625 L 407 593 L 393 593 L 393 625 L 392.75043 627.98699 L 392.00866 630.89115 L 390.79524 633.63195 L 389.14382 636.13339 L 387.1002 638.3261 L 384.72106 640.14929 L 382.07234 641.5524 L 379.22752 642.49652 L 376.26547 642.95546 L 373.26833 642.91651 L 370.31921 642.38074 L 367.49988 641.36301 L 364.88853 639.89155 L 362.55756 638.00714 L 360.57162 635.76206 L 358.98577 633.21854 L 357.84399 630.44713 L 357.17794 627.52468 L 357 625 L 357 593 L 343 593 L 343 625 L 342.75043 627.98699 L 342.00866 630.89115 L 340.79524 633.63195 L 339.14382 636.13339 L 337.1002 638.3261 L 334.72106 640.14929 L 332.07234 641.5524 L 329.22752 642.49652 L 326.26547 642.95546 L 323.26833 642.91651 L 320.31921 642.38074 L 317.49988 641.36301 L 314.88853 639.89155 L 312.55756 638.00714 L 310.57162 635.76206 L 308.98577 633.21854 L 307.84399 630.44713 L 307.17794 627.52468 L 307 625 L 307 593 L 293 593 L 293 625 L 292.75043 627.98699 L 292.00866 630.89115 L 290.79524 633.63195 L 289.14382 636.13339 L 287.1002 638.3261 L 284.72106 640.14929 L 282.07234 641.5524 L 279.22752 642.49652 L 276.26547 642.95546 L 273.26833 642.91651 L 270.31921 642.38074 L 267.49988 641.36301 L 264.88853 639.89155 L 262.55756 638.00714 L 260.57162 635.76206 L 258.98577 633.21854 L 257.84399 630.44713 L 257.17794 627.52468 L 257 625 L 257 525 L 257.24957 522.01301 L 257.99134 519.10885 L 259.20476 516.36805 L 260.85618 513.86661 L 262.8998 511.6739 L 265.27894 509.85071 L 267.92766 508.4476 L 270.77248 507.50348 L 273.73453 507.04454 L 276.73167 507.08349 L 279.68079 507.61926 L 282.50012 508.63699 L 285.11147 510.10845 L 287.44244 511.99286 L 289.42838 514.23794 L 291.01423 516.78146 L 292.15601 519.55287 L 292.82206 522.47532 L 293 525 L 293 557 L 407 557 L 407 525 L 407.24957 522.01301 L 407.99134 519.10885 L 409.20476 516.36805 L 410.85618 513.86661 L 412.8998 511.6739 L 415.27894 509.85071 L 417.92766 508.4476 L 420.77248 507.50348 L 425 507 L 457 507 L 457 443 L 443 443 L 443 475 L 442.75043 477.98699 L 442.00866 480.89115 L 440.79524 483.63195 L 439.14382 486.13339 L 437.1002 488.3261 L 434.72106 490.14929 L 432.07234 491.5524 L 429.22752 492.49652 L 426.26547 492.95546 L 423.26833 492.91651 L 420.31921 492.38074 L 417.49988 491.36301 L 414.88853 489.89155 L 412.55756 488.00714 L 410.57162 485.76206 L 408.98577 483.21854 L 407.84399 480.44713 L 407.17794 477.52468 L 407 475 L 407 443 L 393 443 L 393 525 L 392.75043 527.98699 L 392.00866 530.89115 L 390.79524 533.63195 L 389.14382 536.13339 L 387.1002 538.3261 L 384.72106 540.14929 L 382.07234 541.5524 L 379.22752 542.49652 L 375 543 L 325 543 L 322.01301 542.75043 L 319.10885 542.00866 L 316.36805 540.79524 L 313.86661 539.14382 L 311.6739 537.1002 L 309.85071 534.72106 L 308.4476 532.07234 L 307.50348 529.22752 L 307.04454 526.26547 L 307.08349 523.26833 L 307.61926 520.31921 L 308.63699 517.49988 L 310.10845 514.88853 L 311.99286 512.55756 L 314.23794 510.57162 L 316.78146 508.98577 L 319.55287 507.84399 L 322.47532 507.17794 L 325 507 L 357 507 L 357 493 L 275 493 L 272.01301 492.75043 L 269.10885 492.00866 L 266.36805 490.79524 L 263.86661 489.14382 L 261.6739 487.1002 L 259.85071 484.72106 L 258.4476 482.07234 L 257.50348 479.22752 L 257.04454 476.26547 L 257.08349 473.26833 L 257.61926 470.31921 L 258.63699 467.49988 L 260.10845 464.88853 L 261.99286 462.55756 L 264.23794 460.57162 L 266.78146 458.98577 L 269.55287 457.84399 L 272.47532 457.17794 L 275 457 L 357 457 L 357 443 L 275 443 L 272.01301 442.75043 L 269.10885 442.00866 L 266.36805 440.79524 L 263.86661 439.14382 L 261.6739 437.1002 L 259.85071 434.72106 L 258.4476 432.07234 L 257.50348 429.22752 L 257 425 L 257 325 L 257.24957 322.01301 L 257.99134 319.10885 L 259.20476 316.36805 L 260.85618 313.86661 L 262.8998 311.6739 L 265.27894 309.85071 L 267.92766 308.4476 L 270.77248 307.50348 L 273.73453 307.04454 L 276.73167 307.08349 L 279.68079 307.61926 L 282.50012 308.63699 L 285.11147 310.10845 L 287.44244 311.99286 L 289.42838 314.23794 L 291.01423 316.78146 L 292.15601 319.55287 L 292.82206 322.47532 L 293 325 L 293 407 L 307 407 L 307 293 L 275 293 L 272.01301 292.75043 L 269.10885 292.00866 L 266.36805 290.79524 L 263.86661 289.14382 L 261.6739 287.1002 L 259.85071 284.72106 L 258.4476 282.07234 L 257.50348 279.22752 L 257.04454 276.26547 L 257.08349 273.26833 L 257.61926 270.31921 L 258.63699 267.49988 L 260.10845 264.88853 L 261.99286 262.55756 L 264.23794 260.57162 L 266.78146 258.98577 L 269.55287 257.84399 L 272.47532 257.17794 L 275 257 L 375 257 Z M 282 275 L 281.8654969628226 273.6343677458871 L 281.467156727579 272.3212159734444 L 280.82028728611783 271.11100836886277 L 279.9497474683058 270.0502525316942 L 278.88899163113723 269.17971271388217 L 277.6787840265556 268.532843272421 L 276.3656322541129 268.1345030371774 L 275 268 L 273.6343677458871 268.1345030371774 L 272.3212159734444 268.532843272421 L 271.11100836886277 269.17971271388217 L 270.0502525316942 270.0502525316942 L 269.17971271388217 271.11100836886277 L 268.532843272421 272.3212159734444 L 268.1345030371774 273.6343677458871 L 268 275 L 268.1345030371774 276.3656322541129 L 268.532843272421 277.6787840265556 L 269.17971271388217 278.88899163113723 L 270.0502525316942 279.9497474683058 L 271.11100836886277 280.82028728611783 L 272.3212159734444 281.467156727579 L 273.6343677458871 281.8654969628226 L 275 282 L 276.3656322541129 281.8654969628226 L 277.6787840265556 281.467156727579 L 278.88899163113723 280.82028728611783 L 279.9497474683058 279.9497474683058 L 280.82028728611783 278.88899163113723 L 281.467156727579 277.6787840265556 L 281.8654969628226 276.3656322541129 Z" stroke-miterlimit="10"/></g></svg>