<?xml version="1.0" encoding="UTF-8" standalone="no"?>
<svg
   version="1.1"
   width="900"
   height="900"
   id="svg4"
   sodipodi:docname="stamp-2024-02-04T03_30_00.306Z.svg"
   inkscape:version="1.3 (0e150ed, 2023-07-21)"
   xmlns:inkscape="http://www.inkscape.org/namespaces/inkscape"
   xmlns:sodipodi="http://sodipodi.sourceforge.net/DTD/sodipodi-0.dtd"
   xmlns="http://www.w3.org/2000/svg"
   xmlns:svg="http://www.w3.org/2000/svg">
  <sodipodi:namedview
     id="namedview4"
     pagecolor="#505050"
     bordercolor="#eeeeee"
     borderopacity="1"
     inkscape:showpageshadow="0"
     inkscape:pageopacity="0"
     inkscape:pagecheckerboard="0"
     inkscape:deskcolor="#d1d1d1"
     inkscape:zoom="0.89333333"
     inkscape:cx="449.4403"
     inkscape:cy="450"
     inkscape:window-width="1920"
     inkscape:window-height="1044"
     inkscape:window-x="1920"
     inkscape:window-y="0"
     inkscape:window-maximized="1"
     inkscape:current-layer="svg4" />
  <defs
     id="defs1" />
  <path
     fill="#222222"
     stroke="#cccccc"
     paint-order="fill stroke markers"
     d="m 268.34604,43.00334 1.69062,1.33825 17.40162,23.95128 0.75032,2.68086 -0.75032,2.02142 -17.40162,23.95128 -0.42248,0.28108 -0.25234,0.44024 -0.57631,0.11106 -1.06666,0.70965 -1.58956,-0.19778 -0.56479,0.10884 -25.39249,-8.25052 -13.98522,19.24899 15.69343,21.60015 0.59707,2.13329 0.16686,0.21785 -0.0604,0.16264 0.0468,0.16708 -0.75032,2.02142 -15.69343,21.60014 14.92949,20.54867 25.68429,8.34533 24.15642,-7.8489 v -26.69923 l 0.28834,-0.77681 0.0474,-0.82723 0.42177,-0.43667 0.21127,-0.56918 0.94706,-0.63008 0.35393,-0.36644 0.22851,-0.0211 0.26568,-0.17676 25.39249,-8.25052 v -23.79307 l -25.39249,-8.25052 -2.18279,-1.72784 -0.58114,-2.07639 V 74.13845 l 0.96875,-2.60989 1.79518,-1.19434 28.15642,-9.14857 2.78152,0.11484 1.69062,1.33825 17.40162,23.95128 0.13676,0.48865 0.34072,0.37603 -0.0725,0.58242 0.34531,1.23376 -0.6793,1.45065 -0.071,0.57077 -15.69342,21.60014 13.98521,19.24899 25.39249,-8.25051 2.78152,0.11484 1.69062,1.33825 17.40162,23.95128 0.75032,2.68086 -0.75032,2.02142 -15.69342,21.60014 13.98521,19.24899 25.39249,-8.25052 2.78151,0.11484 1.69063,1.33825 17.40163,23.95128 0.75032,2.68086 -0.75032,2.02142 -17.40163,23.95129 -2.31779,1.54203 -2.15435,-0.0889 -28.15642,-9.14858 -0.39787,-0.31494 -0.49667,-0.10395 -0.28371,-0.51378 -1.00454,-0.79517 -0.30311,-1.57289 -0.27803,-0.5035 V 202.4552 l -22.62855,-7.35246 -15.69342,21.60013 -0.14445,0.0961 -0.0604,0.16265 -1.08296,0.59801 -1.03001,0.68527 -0.19629,-0.008 -0.12775,0.0705 -0.45129,-0.0944 -1.37902,-0.0569 -25.39249,-8.25051 -14.92948,20.54867 v 27.00605 l 14.92948,20.54867 25.39249,-8.25051 2.78152,0.11484 1.69062,1.33825 15.69342,21.60013 22.62855,-7.35246 v -26.69924 l 0.96875,-2.60989 1.79518,-1.19434 28.15642,-9.14857 2.78152,0.11484 1.69062,1.33825 17.40163,23.95128 0.75032,2.68086 -0.75032,2.02142 -17.40163,23.95128 -2.31779,1.54203 -2.15435,-0.0889 -25.39249,-8.25052 -13.98521,19.249 15.69342,21.60014 0.75032,2.68086 -0.75032,2.02142 -17.40162,23.95128 -2.31779,1.54203 -2.15435,-0.0889 -25.39249,-8.25052 -13.98521,19.24899 15.69342,21.60014 0.75032,2.68086 -0.75032,2.02142 -17.40162,23.95129 -2.31779,1.54203 -2.15435,-0.0889 -28.15642,-9.14858 -2.18279,-1.72784 -0.58114,-2.07639 v -29.60541 l 0.17658,-0.47572 -0.0546,-0.50448 0.40096,-0.42859 0.44583,-1.2011 1.40223,-0.77431 0.39295,-0.42003 25.39249,-8.25052 v -23.79306 l -25.39249,-8.25052 -0.39787,-0.31494 -0.49667,-0.10395 -0.5627,-0.73462 -0.72555,-0.57433 -0.16446,-0.58762 -0.24012,-0.31348 0.0259,-0.45198 -0.20244,-0.72331 v -26.69924 l -24.15642,-7.8489 -25.68429,8.34533 -14.92949,20.54868 15.69343,21.60014 0.75032,2.68086 -0.75032,2.02142 -15.69343,21.60014 13.98522,19.24899 25.39249,-8.25052 2.78151,0.11484 1.69063,1.33825 17.40162,23.95129 0.75032,2.68086 -0.75032,2.02142 -17.40162,23.95128 -2.31779,1.54203 -2.15435,-0.0889 -28.15642,-9.14858 -2.18279,-1.72784 -0.58114,-2.07639 v -26.69924 l -22.62856,-7.35246 -15.69342,21.60014 -2.31779,1.54203 -2.15435,-0.0889 -28.15642,-9.14858 -2.18279,-1.72784 -0.58114,-2.07639 v -26.69924 l -22.62856,-7.35246 -15.69341,21.60013 -2.31779,1.54203 -2.15435,-0.0889 -28.15642,-9.14857 -2.18279,-1.72784 -0.58114,-2.07639 v -29.60541 l 0.96875,-2.60989 1.79518,-1.19434 28.15642,-9.14858 0.50701,0.0209 0.46291,-0.20784 0.53153,0.2489 1.28006,0.0528 1.16974,1.09433 0.52089,0.24392 15.69341,21.60013 22.62856,-7.35246 V 330.614 l 0.28834,-0.77681 0.0474,-0.82723 0.42177,-0.43667 0.21127,-0.56918 0.94706,-0.63008 0.35393,-0.36644 0.22851,-0.0211 0.26568,-0.17676 25.39249,-8.25052 v -25.39956 l -15.87375,-21.84835 -24.15643,-7.8489 -15.69342,21.60013 -0.14445,0.0961 -0.0604,0.16265 -1.08296,0.59801 -1.03001,0.68527 -0.19629,-0.008 -0.12775,0.0705 -0.45129,-0.0944 -1.37902,-0.0569 -25.39248,-8.25051 -13.98522,19.24899 15.69343,21.60014 0.75032,2.68086 -0.75032,2.02142 -17.40163,23.95128 -2.31779,1.54203 -2.15435,-0.0889 -28.15642,-9.14857 -2.18279,-1.72784 -0.58114,-2.07639 v -29.60542 l 0.17658,-0.47572 -0.05462,-0.50448 0.40096,-0.42859 0.44583,-1.2011 1.40223,-0.77431 0.39295,-0.42003 25.39249,-8.25052 v -23.79306 l -25.39249,-8.25052 -2.18279,-1.72784 -0.58114,-2.07639 V 229.1544 l 0.28834,-0.77681 0.04737,-0.82723 0.42177,-0.43667 0.21127,-0.56918 0.94706,-0.63008 0.35393,-0.36644 0.22851,-0.0211 0.26568,-0.17676 25.39249,-8.25052 v -23.79306 l -25.39249,-8.25052 -2.18279,-1.72784 -0.58114,-2.07639 v -29.60541 l 0.96875,-2.60989 1.79518,-1.19434 28.15642,-9.14858 2.78151,0.11484 1.69063,1.33825 17.40163,23.95128 0.75032,2.68086 -0.75032,2.02142 -15.69343,21.60014 13.98522,19.24899 25.39248,-8.25051 2.78151,0.11484 1.69063,1.33825 15.69342,21.60013 24.15643,-7.84889 15.87375,-21.84836 v -25.39955 l -25.39249,-8.25052 -0.39787,-0.31494 -0.49667,-0.10395 -0.5627,-0.73462 -0.72555,-0.57433 -0.16446,-0.58762 -0.24012,-0.31348 0.0259,-0.45198 -0.20244,-0.72331 v -26.69924 l -22.62856,-7.35246 -15.69341,21.60013 -2.31779,1.54203 -2.15435,-0.0889 -28.15642,-9.14857 -2.18279,-1.72784 -0.58114,-2.07639 v -29.60542 l 0.96875,-2.60989 1.79518,-1.19434 28.15642,-9.14857 0.50701,0.02093 0.46291,-0.20784 0.53153,0.2489 1.28007,0.05285 1.16974,1.09434 0.52088,0.24391 15.69341,21.60013 22.62856,-7.35246 V 79.79258 l 0.96875,-2.60989 1.79518,-1.19434 28.15642,-9.14857 2.78152,0.11484 1.69062,1.33825 15.69342,21.60013 22.62856,-7.35246 V 55.8413 l 0.96875,-2.60989 1.79518,-1.19434 28.15642,-9.14857 z m -25.70187,362.37033 v 23.79307 l 22.62856,7.35246 13.98521,-19.24899 -13.98521,-19.249 z m 56.31284,-18.29715 v 23.79307 l 22.62856,7.35246 13.98521,-19.249 -13.98521,-19.24899 z M 168.9297,381.42239 v 23.79307 l 22.62856,7.35246 13.98522,-19.249 -13.98522,-19.24899 z m 28.15642,-86.65655 v 26.69924 l -0.96875,2.60989 -1.79518,1.19434 -25.39249,8.25052 v 26.69924 l -0.96875,2.60989 -1.79518,1.19434 -16.4482,5.34434 15.21213,4.94273 26.92035,-8.74696 2.78151,0.11484 1.69063,1.33825 16.63769,22.89981 15.21214,4.94273 -10.16555,-13.99168 -0.75032,-2.68086 0.75032,-2.02142 15.69343,-21.60014 -15.69343,-21.60014 -0.75032,-2.68086 0.75032,-2.02142 15.69343,-21.60015 -13.98522,-19.24899 z M 95.21524,357.47111 v 23.79306 l 22.62856,7.35246 13.98521,-19.24899 -13.98521,-19.24899 z m 175.58535,-86.65655 v 23.79306 l 25.39249,8.25052 2.18279,1.72784 0.58114,2.07639 v 26.69924 l 25.39249,8.25052 2.18279,1.72784 0.58114,2.07639 v 17.29467 l 9.40162,-12.94022 v -28.30573 l 0.96875,-2.60989 1.79518,-1.19434 26.92036,-8.74695 9.40161,-12.94022 -16.4482,5.34435 -2.78151,-0.11484 -1.69063,-1.33825 -15.69342,-21.60013 -25.39249,8.25051 -2.78152,-0.11484 -1.69062,-1.33825 -15.69341,-21.60013 z m 73.71446,53.5567 v 23.79306 l 22.62856,7.35246 13.98521,-19.24899 -13.98521,-19.24899 z M 60.41199,309.56855 v 23.79306 l 22.62856,7.35246 13.98522,-19.24899 -13.98522,-19.24899 z m 164.06662,-102.01429 -0.14445,0.0961 -0.0604,0.16265 -1.08296,0.59801 -1.03001,0.68527 -0.19629,-0.008 -0.12775,0.0705 -0.45129,-0.0944 -1.37902,-0.0569 -25.39249,-8.25052 -13.98521,19.249 15.69342,21.60014 0.75032,2.68086 -0.75032,2.02142 -15.69342,21.60014 13.98521,19.24899 25.39249,-8.25052 2.78151,0.11484 1.69063,1.33825 15.69342,21.60013 22.62856,-7.35246 v -26.69923 l 0.28834,-0.77681 0.0474,-0.82723 0.42177,-0.43667 0.21127,-0.56918 0.94706,-0.63008 0.35393,-0.36644 0.22851,-0.0211 0.26568,-0.17676 25.39249,-8.25052 v -23.79306 l -25.39249,-8.25052 -0.39787,-0.31494 -0.49667,-0.10395 -0.5627,-0.73462 -0.72555,-0.57433 -0.16446,-0.58762 -0.24012,-0.31348 0.0259,-0.45198 -0.20244,-0.72331 v -26.69924 l -22.62856,-7.35246 z m 165.59448,54.11173 v 23.79306 l 22.62856,7.35246 13.98522,-19.24899 -13.98522,-19.24899 z m -301.50468,-42.95984 16.6377,22.89982 0.75032,2.68086 -0.75032,2.02142 -16.6377,22.89982 v 15.995 l 10.16556,-13.99169 0.82087,-0.54612 0.68494,-0.70915 0.44223,-0.0408 0.36975,-0.246 1.58789,0.0655 0.37227,-0.0343 0.0393,0.0513 0.15489,0.006 25.39248,8.25051 15.69342,-21.60013 0.82087,-0.54612 0.68494,-0.70915 0.44223,-0.0408 0.36975,-0.246 1.58789,0.0656 0.37227,-0.0343 0.0393,0.0513 0.15489,0.006 25.39249,8.25052 13.98521,-19.24899 -13.98521,-19.24899 -25.39249,8.25051 -2.78152,-0.11484 -1.69062,-1.33825 -15.69342,-21.60013 -25.39248,8.25051 -2.78151,-0.11484 -1.69063,-1.33825 -10.16556,-13.99169 z m -28.15642,13.35443 v 23.79306 l 22.62856,7.35246 13.98522,-19.24899 -13.98522,-19.24899 z m 329.6611,-29.60542 v 23.79307 l 22.62856,7.35246 13.98522,-19.249 -13.98522,-19.24899 z m -62.95966,-59.95731 -0.96875,2.60989 -1.79518,1.19434 -25.39249,8.25052 v 26.69924 l -0.96875,2.60989 -1.79518,1.19434 -25.39249,8.25052 v 23.79306 l 22.62856,7.35246 15.69341,-21.60013 0.82087,-0.54612 0.68494,-0.70915 0.44223,-0.0408 0.36975,-0.246 1.58789,0.0656 0.37227,-0.0343 0.0393,0.0513 0.15489,0.006 25.39249,8.25051 15.69342,-21.60013 0.82087,-0.54612 0.68494,-0.70915 0.44223,-0.0408 0.36975,-0.246 1.58789,0.0656 0.37227,-0.0343 0.0393,0.0513 0.15489,0.006 16.4482,5.34435 -9.40161,-12.94021 -26.92036,-8.74696 -0.39787,-0.31494 -0.49667,-0.10395 -0.5627,-0.73462 -0.72555,-0.57433 -0.16446,-0.58762 -0.24012,-0.31348 0.0259,-0.45198 -0.20244,-0.72331 V 138.1434 l -9.40162,-12.94022 z M 212.95988,97.9979 l -16.63769,22.89981 -0.14445,0.0961 -0.0604,0.16265 -1.08296,0.59801 -1.03001,0.68527 -0.19629,-0.008 -0.12775,0.0705 -0.45129,-0.0944 -1.37902,-0.0569 -26.92035,-8.74696 -15.21214,4.94273 16.44821,5.34435 2.18279,1.72784 0.58114,2.07639 v 26.69923 l 25.39249,8.25052 2.18279,1.72784 0.58114,2.07639 v 26.69924 l 22.62856,7.35246 13.98522,-19.24899 -15.69343,-21.60014 -0.18039,-0.64452 -0.40698,-0.53133 0.0439,-0.76606 -0.20682,-0.73895 0.29457,-0.7936 0.0275,-0.48072 0.2451,-0.25376 0.18312,-0.49334 15.69343,-21.60014 -15.69343,-21.60015 -0.18039,-0.64452 -0.40698,-0.53133 0.0439,-0.76606 -0.20682,-0.73895 0.29457,-0.7936 0.0275,-0.48072 0.2451,-0.25376 0.18312,-0.49334 10.16555,-13.99168 z M 60.41199,154.5526 v 23.79306 l 22.62856,7.35246 13.98522,-19.24899 -13.98522,-19.24899 z m 284.10306,-14.8027 v 23.79306 l 22.62856,7.35246 13.98521,-19.24899 -13.98521,-19.24899 z M 95.21524,106.65004 v 23.79306 l 22.62856,7.35246 13.98521,-19.24899 L 117.8438,99.29758 Z M 168.9297,82.69876 v 23.79306 l 22.62856,7.35246 13.98522,-19.24899 -13.98522,-19.24899 z m 130.02731,-5.65413 v 23.79306 l 22.62856,7.35246 13.98521,-19.24899 -13.98521,-19.24899 z M 242.64417,58.74748 V 82.54054 L 265.27273,89.893 279.25794,70.64401 265.27273,51.39502 Z"
     stroke-miterlimit="10"
     id="path1" />
  <path
     fill="#222222"
     stroke="#cccccc"
     paint-order="fill stroke markers"
     d="m 620.81636,46.64769 1.69063,1.33825 12.22764,16.82991 19.78476,-6.42845 2.78152,0.11484 1.69062,1.33825 13.93585,19.18106 0.75032,2.68086 -0.75032,2.02142 -13.17192,18.1296 v 22.40941 l -0.96875,2.60989 -1.79518,1.19434 -17.31262,5.62521 8.99158,12.37584 17.02082,-5.53039 V 119.7348 l 0.96875,-2.60989 1.79518,-1.19434 22.54869,-7.32651 2.78152,0.11484 1.69062,1.33825 12.22764,16.82991 19.78476,-6.42845 2.78152,0.11484 1.69062,1.33825 13.93585,19.18106 0.75032,2.68086 -0.75032,2.02142 -12.22765,16.82991 10.51944,14.47877 14.54869,-4.72715 -10.69979,-14.72699 -0.18039,-0.64452 -0.40698,-0.53133 0.0439,-0.76606 -0.20682,-0.73895 0.29457,-0.7936 0.0275,-0.48072 0.2451,-0.25376 0.18312,-0.49334 13.17193,-18.1296 v -22.40941 l 0.96875,-2.60989 1.79518,-1.19434 22.54868,-7.32651 2.78151,0.11484 1.69063,1.33825 12.22765,16.82991 19.78475,-6.42845 2.78151,0.11484 1.69063,1.33825 13.93586,19.18105 0.75032,2.68086 -0.75032,2.02142 -12.22766,16.82992 12.22766,16.82992 0.75032,2.68086 -0.75032,2.02142 -13.93586,19.18106 -2.31779,1.54203 -2.15435,-0.0889 -21.31261,-6.9249 -21.31262,6.9249 -2.78151,-0.11484 -1.69063,-1.33825 -10.69978,-14.72699 -8.99159,12.37585 10.51945,14.47877 19.78475,-6.42846 2.78151,0.11484 1.69063,1.33825 13.93586,19.18106 0.75032,2.68086 -0.75032,2.02142 -12.22766,16.82992 12.22766,16.82992 0.75032,2.68086 -0.75032,2.02142 -13.93586,19.18105 -2.31779,1.54203 -2.15435,-0.0889 -19.78475,-6.42845 -10.51945,14.47877 8.99159,12.37585 10.69978,-14.72699 0.82087,-0.54612 0.68494,-0.70915 0.44223,-0.0408 0.36975,-0.246 1.58789,0.0655 0.37227,-0.0343 0.0393,0.0513 0.15489,0.006 21.31262,6.92489 21.31261,-6.92489 2.78151,0.11484 1.69063,1.33825 13.93586,19.18106 0.75032,2.68086 -0.75032,2.02142 -12.22766,16.82992 12.22766,16.82991 0.75032,2.68086 -0.75032,2.02142 -13.93586,19.18106 -2.31779,1.54203 -2.15435,-0.0889 -19.78475,-6.42845 -12.22765,16.82991 -2.31779,1.54203 -2.15435,-0.0889 -22.54868,-7.32651 -2.18279,-1.72784 -0.58114,-2.07639 v -22.40942 l -13.17193,-18.12959 -0.75032,-2.68086 0.75032,-2.02142 10.69979,-14.72699 -14.54869,-4.72715 -10.51944,14.47876 12.22765,16.82992 0.75032,2.68086 -0.75032,2.02142 -13.93585,19.18106 -2.31779,1.54203 -2.15435,-0.0889 -19.78476,-6.42845 -12.22764,16.82991 -2.31779,1.54203 -2.15435,-0.0889 -22.54869,-7.32652 -2.18279,-1.72784 -0.58114,-2.07639 v -20.80292 l -17.02082,-5.53039 -8.99158,12.37584 17.31262,5.62521 2.18279,1.72784 0.58114,2.07639 v 22.40941 l 13.17192,18.1296 0.75032,2.68086 -0.75032,2.02142 -13.93585,19.18106 -2.31779,1.54203 -2.15435,-0.0889 -19.78476,-6.42845 -12.22764,16.8299 -2.31779,1.54203 -2.15435,-0.0889 -22.54869,-7.32651 -2.18279,-1.72784 -0.58114,-2.07639 v -20.80291 l -19.78476,-6.42846 -2.18279,-1.72784 -0.58114,-2.07639 v -23.70909 l 0.96875,-2.60989 1.79518,-1.19434 21.31263,-6.9249 13.17192,-18.12958 2.31779,-1.54203 2.15435,0.0889 17.31261,5.62521 v -15.29739 l -17.02082,-5.5304 -12.22765,16.82991 -2.31779,1.54203 -2.15435,-0.0889 -22.54869,-7.32651 -2.18279,-1.72784 -0.58114,-2.07639 v -20.80292 l -19.78475,-6.42845 -2.18279,-1.72784 -0.58114,-2.07639 v -23.7091 l 0.96875,-2.60989 1.79518,-1.19434 19.78475,-6.42845 V 254.1099 l -14.54868,-4.72715 v 18.20356 l -0.96875,2.60989 -1.79518,1.19434 -21.31263,6.92489 -13.17191,18.12959 -2.31779,1.54203 -2.15435,-0.0889 -22.54869,-7.32651 -2.18279,-1.72784 -0.58114,-2.07639 v -20.80292 l -19.78475,-6.42846 -2.18279,-1.72784 -0.58114,-2.07639 v -23.70909 l 0.28834,-0.77681 0.0474,-0.82723 0.42177,-0.43667 0.21127,-0.56918 0.94706,-0.63008 0.35393,-0.36644 0.22851,-0.0211 0.26568,-0.17676 19.78475,-6.42845 v -20.80292 l 0.96875,-2.60989 1.79518,-1.19434 22.54869,-7.32651 2.78152,0.11484 1.69062,1.33825 13.17191,18.12959 21.31263,6.92489 2.18279,1.72784 0.58114,2.07639 v 18.20356 l 14.54868,-4.72715 v -17.89675 l -19.78475,-6.42846 -2.18279,-1.72784 -0.58114,-2.07639 v -23.70909 l 0.96875,-2.60989 1.79518,-1.19434 19.78475,-6.42845 v -20.80292 l 0.96875,-2.60989 1.79518,-1.19434 22.54869,-7.32651 2.78152,0.11484 1.69062,1.33825 12.22765,16.8299 17.02082,-5.53039 v -15.29739 l -17.31261,5.62521 -0.34211,-0.0141 -0.29972,0.1655 -1.05882,-0.22159 -1.08086,-0.0446 -0.31185,-0.24685 -0.27332,-0.0572 -0.30965,-0.40427 -0.79581,-0.62993 -13.17192,-18.12959 -21.31263,-6.92489 -2.18279,-1.72784 -0.58114,-2.07639 V 88.6992 l 0.96875,-2.60989 1.79518,-1.19434 19.78476,-6.42846 V 57.6636 l 0.96875,-2.60989 1.79518,-1.19434 22.54869,-7.32652 z m -20.85806,323.72308 -2,1.45309 -19.78476,6.42846 v 17.89674 l 19.78476,6.42846 2.18279,1.72784 0.58114,2.07639 v 20.80291 l 17.02083,5.5304 12.22764,-16.8299 2.31779,-1.54203 2.15435,0.0889 19.78476,6.42845 10.51944,-14.47877 -12.22765,-16.82992 -0.54921,-1.96229 -0.21472,-0.38885 v -20.80292 l -39.56951,-12.8569 z m 202.97139,-65.14615 -2.03595,-0.0841 -0.43619,0.0841 -19.78476,-6.42845 -24.4553,33.65983 12.22766,16.82991 0.76393,2.35114 v 20.80293 l 17.02082,5.53039 12.22765,-16.82991 2.31779,-1.54203 2.15435,0.0889 19.78475,6.42845 10.51945,-14.47877 -12.22766,-16.82991 -0.75032,-2.68086 0.75032,-2.02142 12.22766,-16.82992 -10.51945,-14.47877 z M 696.24,336.98403 l -0.96875,2.60989 -1.79518,1.19434 -19.78476,6.42846 v 17.89674 l 17.02083,5.5304 12.22764,-16.82991 2.31779,-1.54203 2.15435,0.0889 19.78476,6.42845 10.51944,-14.47877 -10.51944,-14.47877 -19.78476,6.42846 -2.78151,-0.11484 -1.69063,-1.33825 -6.69978,-9.22146 z m -94.5735,-31.0356 11.46372,15.77844 21.31262,6.9249 2.18279,1.72784 0.58114,2.07639 v 11.39836 l 6.69979,-9.22147 2.31779,-1.54203 2.15435,0.0889 21.31261,6.92489 18.54869,-6.02684 v -17.89673 l -17.02083,-5.5304 -12.22764,16.8299 -0.14445,0.0961 -0.0604,0.16265 -1.08296,0.59801 -1.03001,0.68527 -0.19629,-0.008 -0.12775,0.0705 -0.45129,-0.0944 -1.37902,-0.0569 -22.54869,-7.32651 -0.39787,-0.31494 -0.49667,-0.10395 -0.5627,-0.73462 -0.72555,-0.57433 -0.16446,-0.58762 -0.24012,-0.31348 0.0259,-0.45198 -0.20244,-0.72331 v -20.80292 l -17.02082,-5.53039 z M 555.62486,285.1455 v 17.89676 l 19.78475,6.42845 2.18279,1.72784 0.58114,2.07639 v 20.80291 l 17.02083,5.5304 10.51945,-14.47877 -12.22766,-16.82991 -0.18039,-0.64452 -0.40698,-0.53133 0.0439,-0.76606 -0.20682,-0.73895 0.29457,-0.7936 0.0275,-0.48072 0.2451,-0.25376 0.18312,-0.49334 6.69979,-9.22146 -10.84048,3.52228 -2.78152,-0.11484 -1.69062,-1.33825 -12.22765,-16.82991 z m 178.04395,-22.08722 12.22765,16.82991 0.75032,2.68086 -0.75032,2.02142 -13.93585,19.18106 -2.31779,1.54203 -2.15435,-0.0889 -19.78476,-6.42845 -10.51944,14.47877 10.51944,14.47877 18.5487,-6.02684 13.17191,-18.12958 0.82087,-0.54612 0.68494,-0.70915 0.44223,-0.0408 0.36975,-0.246 1.58789,0.0656 0.37227,-0.0343 0.0393,0.0513 0.15489,0.006 10.84048,3.52228 -6.69979,-9.22146 -0.18039,-0.64452 -0.40698,-0.53133 0.0439,-0.76606 -0.20682,-0.73895 0.29457,-0.7936 0.0275,-0.48072 0.2451,-0.25376 0.18312,-0.49334 13.17193,-18.1296 v -19.50323 l -17.02083,-5.5304 z m -96.46204,-90.20064 v 20.80292 l -0.96875,2.60989 -1.79518,1.19434 -19.78475,6.42845 v 20.80292 l -0.96875,2.60989 -1.79518,1.19434 -19.78476,6.42846 v 17.89674 l 19.78476,6.42846 2.18279,1.72784 0.58114,2.07639 v 20.80292 l 19.78475,6.42845 2.18279,1.72784 0.58114,2.07639 v 20.80291 l 17.02083,5.5304 12.22764,-16.8299 0.82087,-0.54612 0.68494,-0.70915 0.44223,-0.0408 0.36975,-0.246 1.58789,0.0656 0.37227,-0.0343 0.0393,0.0513 0.15489,0.006 19.78476,6.42845 12.22764,-16.82991 2.31779,-1.54203 2.15435,0.0889 19.78476,6.42845 10.51944,-14.47877 -12.22765,-16.82991 -0.75032,-2.68086 0.75032,-2.02142 12.22765,-16.82992 -12.22765,-16.82992 -0.18039,-0.64452 -0.40698,-0.53133 0.0439,-0.76606 -0.20682,-0.73895 0.29457,-0.7936 0.0275,-0.48072 0.2451,-0.25376 0.18312,-0.49334 12.22765,-16.82992 -10.51944,-14.47877 -19.78476,6.42846 -0.34211,-0.0141 -0.29972,0.1655 -1.05882,-0.22159 -1.08086,-0.0446 -0.31185,-0.24685 -0.27332,-0.0572 -0.30965,-0.40427 -0.79581,-0.62993 -12.22764,-16.82991 -19.78476,6.42845 -2.78152,-0.11484 -1.69062,-1.33825 -12.22764,-16.82991 z m -140.61514,31.03561 v 20.80291 l -0.17658,0.47572 0.0546,0.50448 -0.40096,0.42859 -0.44583,1.2011 -1.40223,0.77431 -0.39295,0.42003 -19.78475,6.42845 v 17.89675 l 19.78475,6.42846 2.18279,1.72784 0.58114,2.07639 v 20.80291 l 17.02083,5.5304 12.22764,-16.82991 2,-1.45309 19.78476,-6.42846 v -41.60582 l -19.78476,-6.42846 -2,-1.45309 -12.22764,-16.82991 z m 81.58191,10.24805 v 22.40941 l -0.96875,2.60989 -1.79518,1.19434 -10.84046,3.52228 10.84046,3.52228 2.18279,1.72784 0.58114,2.07639 v 22.40941 l 11.46372,15.77845 17.02083,-5.5304 v -17.89674 l -19.78476,-6.42846 -2.18279,-1.72784 -0.58114,-2.07639 v -23.70909 l 0.96875,-2.60989 1.79518,-1.19434 19.78476,-6.42846 v -17.89673 l -17.02083,-5.5304 z m 191.03554,1.60649 v 20.80292 l -0.96875,2.60989 -1.79518,1.19434 -10.84047,3.52228 10.84047,3.52228 2.18279,1.72784 0.58114,2.07639 v 20.80292 l 17.02082,5.53039 10.51945,-14.47876 -12.22766,-16.82992 -0.75032,-2.68086 0.75032,-2.02142 12.22766,-16.82992 -10.51945,-14.47877 z m -72.02481,-41.26829 10.51944,14.47877 19.78476,-6.42846 1.14092,0.0471 1.13703,-0.10481 0.12003,0.15671 0.38353,0.0158 1.69063,1.33825 13.93585,19.18106 0.59707,2.13329 0.16686,0.21785 -0.0604,0.16264 0.0468,0.16708 -0.75032,2.02142 -12.22765,16.82992 10.51944,14.47877 17.02083,-5.5304 V 214.1413 l -13.17193,-18.1296 -0.75032,-2.68086 0.75032,-2.02142 6.69979,-9.22146 -10.84048,3.52228 -2.78152,-0.11484 -1.69062,-1.33825 -13.17191,-18.12959 -18.5487,-6.02683 z M 578.17354,153.67659 v 20.80291 l -0.96875,2.60989 -1.79518,1.19434 -19.78475,6.42845 v 17.89675 l 17.02082,5.5304 12.22765,-16.82991 2.31779,-1.54203 2.15435,0.0889 10.84048,3.52228 -6.69979,-9.22146 -0.75032,-2.68086 0.75032,-2.02142 12.22766,-16.82992 -10.51945,-14.47876 z m 59.03323,1.62185 -0.96875,2.60989 -1.79518,1.19434 -21.31262,6.92489 -11.46372,15.77845 10.51945,14.47877 17.02082,-5.53039 v -20.80292 l 0.96875,-2.60989 1.79518,-1.19434 22.54869,-7.32652 2.78151,0.11484 1.69063,1.33825 12.22764,16.82991 17.02083,-5.5304 v -17.89673 l -18.54869,-6.02684 -21.31261,6.92489 -0.34211,-0.0141 -0.29972,0.1655 -1.05882,-0.22159 -1.08086,-0.0446 -0.31185,-0.24685 -0.27332,-0.0572 -0.30965,-0.40427 -0.79581,-0.62993 -6.69979,-9.22147 z m 132.00231,-39.98398 v 20.80292 l -0.70908,1.91033 -0.0548,0.44081 -12.22766,16.82992 24.4553,33.65983 19.78476,-6.42846 h 2.47214 l 19.78475,6.42846 10.51945,-14.47877 -12.22766,-16.82992 -0.75032,-2.68086 0.75032,-2.02142 12.22766,-16.82992 -10.51945,-14.47876 -19.78475,6.42845 -2.78151,-0.11484 -1.69063,-1.33825 -12.22765,-16.82991 z m -95.51777,7.32652 v 17.89674 l 19.78476,6.42846 2.18279,1.72784 0.58114,2.07639 v 11.39835 l 6.69978,-9.22146 0.82087,-0.54612 0.68494,-0.70915 0.44223,-0.0408 0.36975,-0.246 1.58789,0.0656 0.37227,-0.0343 0.0393,0.0513 0.15489,0.006 19.78476,6.42845 10.51944,-14.47876 -10.51944,-14.47877 -19.78476,6.42845 -2.78152,-0.11484 -1.69062,-1.33825 -12.22764,-16.82991 z M 600.72223,60.56977 v 20.80292 l -0.96875,2.60989 -1.79518,1.19434 -19.78476,6.42846 v 17.89673 l 19.78476,6.42846 1.59772,1.26471 0.40228,0.18838 12.22765,16.82991 39.56951,-12.8569 v -20.80292 l 0.76393,-2.35114 12.22765,-16.82992 -10.51944,-14.47877 -19.78476,6.42845 -2.78152,-0.11484 -1.69062,-1.33825 -12.22764,-16.82991 z"
     stroke-miterlimit="10"
     id="path2" />
  <path
     fill="#222222"
     stroke="#cccccc"
     paint-order="fill stroke markers"
     d="m 205.88139,456.74773 0.38353,0.0158 1.69063,1.33825 12.65589,17.41934 17.71375,5.75554 11.71161,-16.11966 0.82087,-0.54612 0.68494,-0.70915 0.44223,-0.0408 0.36975,-0.246 1.58789,0.0655 0.37227,-0.0343 0.0393,0.0513 0.15489,0.006 21.71374,7.05522 2.18279,1.72784 0.58114,2.07639 v 22.83117 l -0.96875,2.60989 -1.79518,1.19434 -18.94981,6.15717 v 17.01883 l 16.18588,5.2591 11.71162,-16.11966 2.31779,-1.54203 2.15435,0.0889 21.71374,7.05522 2.18279,1.72784 0.58114,2.07639 v 19.92501 l 16.18587,5.2591 10.00342,-13.76852 -11.71163,-16.11967 -0.75032,-2.68086 0.75032,-2.02142 13.41983,-18.47081 2.31779,-1.54203 2.15435,0.0889 21.71374,7.05523 2.18279,1.72784 0.58114,2.07639 v 19.925 l 17.71374,5.75554 20.47766,-6.6536 2.78151,0.11484 1.69063,1.33825 13.41983,18.47081 0.75032,2.68086 -0.75032,2.02142 -12.6559,17.41935 v 18.62532 l 18.94981,6.15716 2.18279,1.72784 0.58114,2.07639 v 22.83118 l -0.96875,2.60989 -1.79518,1.19434 -21.71374,7.05522 -2.78151,-0.11484 -1.69063,-1.33825 -11.71161,-16.11966 -16.18588,5.2591 v 17.01884 l 18.94981,6.15716 2.18279,1.72784 0.58114,2.07639 v 22.83117 l -0.96875,2.60989 -1.79518,1.19434 -18.94981,6.15716 v 17.01884 l 16.18588,5.2591 11.71161,-16.11966 0.82087,-0.54612 0.68494,-0.70915 0.44223,-0.0408 0.36975,-0.246 1.58789,0.0656 0.37227,-0.0343 0.0393,0.0513 0.15489,0.006 21.71374,7.05522 2.18279,1.72784 0.58114,2.07639 v 22.83118 l -0.96875,2.60989 -1.79518,1.19434 -18.94981,6.15716 v 18.62532 l 12.6559,17.41935 0.59707,2.13329 0.16686,0.21785 -0.0604,0.16264 0.0468,0.16708 -0.75032,2.02142 -13.41983,18.47081 -0.14445,0.0961 -0.0604,0.16265 -1.08296,0.59801 -1.03001,0.68527 -0.19629,-0.008 -0.12775,0.0705 -0.45129,-0.0944 -1.37902,-0.0569 -20.47766,-6.6536 -17.71374,5.75554 v 19.925 l -0.96875,2.60989 -1.79518,1.19434 -21.71374,7.05523 -0.34211,-0.0141 -0.29972,0.1655 -1.05882,-0.22159 -1.08086,-0.0446 -0.31185,-0.24685 -0.27332,-0.0572 -0.30965,-0.40427 -0.79581,-0.62993 -13.41983,-18.47081 -0.18039,-0.64452 -0.40698,-0.53133 0.0439,-0.76606 -0.20682,-0.73895 0.29457,-0.7936 0.0275,-0.48072 0.2451,-0.25376 0.18312,-0.49334 11.71163,-16.11967 -10.00342,-13.76852 -16.18587,5.2591 v 19.92501 l -0.96875,2.60989 -1.79518,1.19434 -21.71374,7.05522 -0.34211,-0.0141 -0.29972,0.1655 -1.05882,-0.22159 -1.08086,-0.0446 -0.31185,-0.24685 -0.27332,-0.0572 -0.30965,-0.40427 -0.79581,-0.62993 -11.71162,-16.11966 -16.18588,5.2591 v 17.01883 l 18.94981,6.15717 2.18279,1.72784 0.58114,2.07639 v 22.83117 l -0.96875,2.60989 -1.79518,1.19434 -21.71374,7.05522 -0.34211,-0.0141 -0.29972,0.1655 -1.05882,-0.22159 -1.08086,-0.0446 -0.31185,-0.24685 -0.27332,-0.0572 -0.30965,-0.40427 -0.79581,-0.62993 -11.71161,-16.11966 -17.71375,5.75554 -12.65589,17.41934 -0.14445,0.0961 -0.0604,0.16265 -1.08296,0.59801 -1.03001,0.68527 -0.19629,-0.008 -0.12775,0.0705 -0.45129,-0.0945 -1.37902,-0.0569 -21.71374,-7.05522 -0.39787,-0.31494 -0.49667,-0.10395 -0.5627,-0.73462 -0.72555,-0.57433 -0.16446,-0.58762 -0.24012,-0.31348 0.0259,-0.45198 -0.20244,-0.72331 v -21.53149 l -10.94769,-15.0682 -18.9498,6.15716 -0.34211,-0.0141 -0.29972,0.1655 -1.05882,-0.22159 -1.08086,-0.0446 -0.31185,-0.24685 -0.27332,-0.0572 -0.30965,-0.40427 -0.79581,-0.62993 -13.41983,-18.47081 -0.18039,-0.64452 -0.40698,-0.53133 0.0439,-0.76606 -0.20682,-0.73895 0.29457,-0.7936 0.0275,-0.48072 0.2451,-0.25376 0.18312,-0.49334 13.41983,-18.47081 0.82087,-0.54612 0.68494,-0.70915 0.44223,-0.0408 0.36975,-0.246 1.58789,0.0656 0.37227,-0.0343 0.0393,0.0513 0.15489,0.006 18.9498,6.15716 10.00342,-13.76852 -10.00342,-13.76851 -18.9498,6.15716 -2.78151,-0.11484 -1.69063,-1.33825 -13.41983,-18.47081 -0.75032,-2.68086 0.75032,-2.02142 11.71163,-16.11967 -10.00342,-13.76852 -16.18588,5.2591 v 19.92501 l -0.96875,2.60989 -1.79518,1.19434 -21.71374,7.05522 -2.78151,-0.11484 -1.69063,-1.33825 -13.41982,-18.47081 -0.75032,-2.68086 0.75032,-2.02142 11.71162,-16.11967 -10.94768,-15.0682 -20.47768,-6.6536 -2.18279,-1.72784 -0.58114,-2.07639 v -22.83117 l 0.28834,-0.77681 0.04737,-0.82723 0.42177,-0.43667 0.21127,-0.56918 0.94706,-0.63008 0.35393,-0.36644 0.22851,-0.0211 0.26568,-0.17676 20.47768,-6.6536 10.94768,-15.0682 -11.71162,-16.11967 -0.18039,-0.64452 -0.40698,-0.53133 0.04387,-0.76606 -0.20682,-0.73895 0.29457,-0.7936 0.02753,-0.48072 0.2451,-0.25376 0.18312,-0.49334 13.41982,-18.47081 0.82087,-0.54612 0.68494,-0.70915 0.44223,-0.0408 0.36975,-0.246 1.58789,0.0656 0.37227,-0.0343 0.0393,0.0513 0.15489,0.006 21.71374,7.05522 2.18279,1.72784 0.58114,2.07639 v 19.92501 l 16.18588,5.2591 10.00342,-13.76852 -11.71163,-16.11967 -0.18039,-0.64452 -0.40698,-0.53133 0.0439,-0.76606 -0.20682,-0.73895 0.29457,-0.7936 0.0275,-0.48072 0.2451,-0.25376 0.18312,-0.49334 13.41983,-18.47081 0.82087,-0.54612 0.68494,-0.70915 0.44223,-0.0408 0.36975,-0.246 1.58789,0.0656 0.37227,-0.0343 0.0393,0.0513 0.15489,0.006 18.9498,6.15716 10.00342,-13.76851 -10.00342,-13.76852 -18.9498,6.15716 -0.34211,-0.0141 -0.29972,0.1655 -1.05882,-0.22159 -1.08086,-0.0446 -0.31185,-0.24685 -0.27332,-0.0572 -0.30965,-0.40427 -0.79581,-0.62993 -13.41983,-18.47081 -0.18039,-0.64452 -0.40698,-0.53133 0.0439,-0.76606 -0.20682,-0.73895 0.29457,-0.7936 0.0275,-0.48072 0.2451,-0.25376 0.18312,-0.49334 13.41983,-18.47081 0.82087,-0.54612 0.68494,-0.70915 0.44223,-0.0408 0.36975,-0.246 1.58789,0.0655 0.37227,-0.0343 0.0393,0.0513 0.15489,0.006 18.9498,6.15716 10.94769,-15.0682 v -21.53149 l 0.28834,-0.77681 0.0474,-0.82723 0.42177,-0.43667 0.21127,-0.56918 0.94706,-0.63008 0.35393,-0.36644 0.22851,-0.0211 0.26568,-0.17676 21.71374,-7.05522 1.14092,0.0471 1.13703,-0.10481 z m -20.40352,304.30627 -12.65589,17.41934 -0.14445,0.0961 -0.0604,0.16265 -1.08296,0.59801 -1.03001,0.68527 -0.19629,-0.008 -0.12775,0.0705 -0.45129,-0.0945 -1.37902,-0.0569 -18.9498,-6.15716 -10.00342,13.76852 10.00342,13.76852 18.9498,-6.15716 1.14092,0.0471 1.13703,-0.10481 0.12003,0.15671 0.38353,0.0158 1.69063,1.33825 13.41983,18.47081 0.76393,2.35114 v 19.925 l 16.18588,5.2591 11.71162,-16.11966 0.98367,-0.71468 0.52214,-0.54059 0.25416,-0.0234 0.24003,-0.17439 21.71374,-7.05522 1.14092,0.0471 1.13703,-0.10481 0.12003,0.15671 0.38353,0.0158 1.69063,1.33825 11.71161,16.11966 16.18588,-5.2591 v -17.01883 l -18.94981,-6.15717 -0.39787,-0.31494 -0.49667,-0.10395 -0.5627,-0.73462 -0.72555,-0.57433 -0.16446,-0.58762 -0.24012,-0.31348 0.0259,-0.45198 -0.20244,-0.72331 v -21.53149 l -10.94768,-15.0682 -18.94981,6.15716 -2.78151,-0.11484 -1.69063,-1.33825 -11.71162,-16.11966 z m 214.73333,-56.46389 -0.14445,0.0961 -0.0604,0.16265 -1.08296,0.59801 -1.03001,0.68527 -0.19629,-0.008 -0.12775,0.0705 -0.45129,-0.0944 -1.37902,-0.0569 -20.47767,-6.6536 -17.71374,5.75554 v 19.925 l -0.96875,2.60989 -1.79518,1.19434 -18.94981,6.15717 V 753.657 l 12.6559,17.41935 0.59707,2.13329 0.16686,0.21785 -0.0604,0.16264 0.0468,0.16708 -0.75032,2.02142 -11.71163,16.11967 10.00342,13.76852 16.18588,-5.25911 v -19.925 l 0.28834,-0.77681 0.0474,-0.82723 0.42177,-0.43667 0.21127,-0.56918 0.94706,-0.63008 0.35393,-0.36644 0.22851,-0.0211 0.26568,-0.17676 21.71374,-7.05522 h 1.65196 l 0.62599,-0.0577 0.0442,0.0577 h 0.14999 l 18.9498,6.15716 10.00342,-13.76852 -11.71163,-16.11967 -0.2308,-0.71034 -0.35657,-0.46551 0.0308,-0.53722 -0.20732,-0.63807 v -22.83117 l 0.28834,-0.77681 0.0474,-0.82723 0.42177,-0.43667 0.21127,-0.56918 0.94706,-0.63008 0.35393,-0.36644 0.22851,-0.0211 0.26568,-0.17676 18.94981,-6.15716 v -17.01884 l -16.18588,-5.2591 z m -134.64442,7.61025 v 19.92501 l -0.96875,2.60989 -1.79518,1.19434 -18.9498,6.15716 v 18.62532 l 10.94768,15.0682 18.94981,-6.15716 1.14092,0.0471 1.13703,-0.10481 0.12003,0.15671 0.38353,0.0158 1.69063,1.33825 11.71162,16.11966 16.18588,-5.2591 v -19.92501 l 0.28834,-0.77681 0.0474,-0.82723 0.42177,-0.43667 0.21127,-0.56918 0.94706,-0.63008 0.35393,-0.36644 0.22851,-0.0211 0.26568,-0.17676 18.9498,-6.15716 v -18.62532 l -10.94768,-15.0682 -18.94981,6.15716 -2.78151,-0.11484 -1.69063,-1.33825 -11.71162,-16.11966 z m -55.90303,-155.033 11.71163,16.11967 0.75032,2.68086 -0.75032,2.02142 -11.71163,16.11966 11.71163,16.11967 0.75032,2.68086 -0.75032,2.02142 -13.41983,18.47081 -2.31779,1.54203 -2.15435,-0.0889 -18.94981,-6.15716 -11.71162,16.11966 -2.31779,1.54203 -2.15435,-0.0889 -18.9498,-6.15716 -10.00342,13.76852 10.00342,13.76851 18.9498,-6.15716 1.14092,0.0471 1.13703,-0.10481 0.12003,0.15671 0.38353,0.0158 1.69063,1.33825 11.71162,16.11966 18.94981,-6.15716 1.14092,0.0471 1.13703,-0.10481 0.12003,0.15671 0.38353,0.0158 1.69063,1.33825 13.41983,18.47081 0.59707,2.13329 0.16686,0.21785 -0.0604,0.16264 0.0468,0.16708 -0.75032,2.02142 -11.71163,16.11967 11.71163,16.11967 0.59707,2.13329 0.16686,0.21785 -0.0604,0.16264 0.0468,0.16708 -0.75032,2.02142 -11.71163,16.11966 10.00342,13.76852 16.18588,-5.2591 v -19.925 l 0.96875,-2.60989 1.79518,-1.19434 18.9498,-6.15716 v -19.92501 l 0.96875,-2.60989 1.79518,-1.19434 21.71374,-7.05522 2.78151,0.11484 1.69063,1.33825 11.71162,16.11966 18.94981,-6.15716 2.78151,0.11484 1.69063,1.33825 11.71161,16.11966 16.18588,-5.25911 v -17.01883 l -18.94981,-6.15716 -0.39787,-0.31494 -0.49667,-0.10395 -0.5627,-0.73462 -0.72555,-0.57433 -0.16446,-0.58762 -0.24012,-0.31348 0.0259,-0.45198 -0.20244,-0.72331 v -19.92501 l -18.9498,-6.15716 -0.39787,-0.31494 -0.49667,-0.10395 -0.5627,-0.73462 -0.72555,-0.57433 -0.16446,-0.58762 -0.24012,-0.31348 0.0259,-0.45198 -0.20244,-0.72331 v -22.83117 l 0.28834,-0.77681 0.0474,-0.82723 0.42177,-0.43667 0.21127,-0.56918 0.94706,-0.63008 0.35393,-0.36644 0.22851,-0.0211 0.26568,-0.17676 18.9498,-6.15716 v -19.92501 l 0.28834,-0.77681 0.0474,-0.82723 0.42177,-0.43667 0.21127,-0.56918 0.94706,-0.63008 0.35393,-0.36644 0.22851,-0.0211 0.26568,-0.17676 18.94981,-6.15716 v -17.01883 l -16.18588,-5.2591 -11.71161,16.11965 -0.14445,0.0961 -0.0604,0.16265 -1.08296,0.59801 -1.03001,0.68527 -0.19629,-0.008 -0.12775,0.0705 -0.45129,-0.0944 -1.37902,-0.0569 -18.94981,-6.15716 -11.71162,16.11966 -0.14445,0.0961 -0.0604,0.16265 -1.08296,0.59801 -1.03001,0.68527 -0.19629,-0.008 -0.12775,0.0705 -0.45129,-0.0945 -1.37902,-0.0569 -21.71374,-7.05522 -0.39787,-0.31494 -0.49667,-0.10395 -0.5627,-0.73462 -0.72555,-0.57433 -0.16446,-0.58762 -0.24012,-0.31348 0.0259,-0.45198 -0.20244,-0.72331 v -19.925 l -18.9498,-6.15717 -0.39787,-0.31494 -0.49667,-0.10395 -0.5627,-0.73462 -0.72555,-0.57433 -0.16446,-0.58762 -0.24012,-0.31348 0.0259,-0.45198 -0.20244,-0.72331 v -19.925 l -16.18588,-5.2591 z m -59.31944,118.58782 -10.94769,15.0682 11.71163,16.11967 0.75032,2.68086 -0.75032,2.02142 -11.71163,16.11967 10.00342,13.76852 18.9498,-6.15716 2.78151,0.11484 1.69063,1.33825 11.71162,16.11965 17.71375,-5.75554 10.94769,-15.06819 -11.71163,-16.11967 -0.18039,-0.64452 -0.40698,-0.53133 0.0439,-0.76606 -0.20682,-0.73895 0.29457,-0.7936 0.0275,-0.48072 0.2451,-0.25376 0.18312,-0.49334 11.71163,-16.11967 -10.00342,-13.76852 -18.94981,6.15716 -0.34211,-0.0141 -0.29972,0.1655 -1.05882,-0.22159 -1.08086,-0.0446 -0.31185,-0.24685 -0.27332,-0.0572 -0.30965,-0.40427 -0.79581,-0.62993 -11.71162,-16.11966 z m -67.79499,-77.28584 11.71162,16.11967 0.59707,2.13329 0.16686,0.21785 -0.06037,0.16264 0.04676,0.16708 -0.75032,2.02142 -13.41982,18.47081 -0.14894,0.10821 -0.05588,0.15054 -0.63059,0.34821 -1.16459,0.84613 -18.94981,6.15716 v 17.01883 l 18.94981,6.15716 2,1.45309 13.41982,18.47081 0.75032,2.68086 -0.75032,2.02142 -11.71162,16.11967 10.00341,13.76852 16.18588,-5.2591 V 697.8786 l 0.96875,-2.60989 1.79518,-1.19434 20.47768,-6.6536 10.94769,-15.0682 -11.71163,-16.11966 -0.75032,-2.68086 0.75032,-2.02142 11.71163,-16.11967 -10.94769,-15.0682 -20.47768,-6.6536 -0.39787,-0.31494 -0.49667,-0.10395 -0.5627,-0.73462 -0.72555,-0.57433 -0.16446,-0.58762 -0.24012,-0.31348 0.0259,-0.45198 -0.20244,-0.72331 v -19.92501 l -16.18588,-5.2591 z m 253.28459,17.01661 v 19.92501 l -0.96875,2.60989 -1.79518,1.19434 -18.9498,6.15716 v 17.01883 l 18.9498,6.15716 2.18279,1.72784 0.58114,2.07639 v 19.92501 l 17.71374,5.75554 17.71374,-5.75554 v -19.92501 l 0.96875,-2.60989 1.79518,-1.19434 18.94981,-6.15716 v -17.01883 l -18.94981,-6.15716 -2.18279,-1.72784 -0.58114,-2.07639 v -19.92501 l -17.71374,-5.75554 z m -163.01193,-44.55187 -0.14445,0.0961 -0.0604,0.16265 -1.08296,0.59801 -1.03001,0.68527 -0.19629,-0.008 -0.12775,0.0705 -0.45129,-0.0944 -1.37902,-0.0569 -18.9498,-6.15716 -10.00342,13.76852 11.71163,16.11967 0.59707,2.13329 0.16686,0.21785 -0.0604,0.16264 0.0468,0.16708 -0.75032,2.02142 -11.71163,16.11967 10.94769,15.0682 17.71374,5.75554 11.71162,-16.11966 2.31779,-1.54203 2.15435,0.0889 18.94981,6.15716 10.00342,-13.76852 -11.71163,-16.11967 -0.75032,-2.68086 0.75032,-2.02142 11.71163,-16.11966 -10.94769,-15.0682 -17.71375,-5.75554 z m 163.9562,-55.06871 11.71163,16.11967 0.75032,2.68086 -0.75032,2.02142 -12.6559,17.41935 V 572.732 l 18.94981,6.15716 2.18279,1.72784 0.58114,2.07639 v 19.925 l 17.71374,5.75554 20.47767,-6.6536 2.78151,0.11484 1.69063,1.33825 11.71161,16.11966 16.18588,-5.2591 v -17.01884 l -18.94981,-6.15716 -2.18279,-1.72784 -0.58114,-2.07639 v -22.83117 l 0.76393,-2.35114 11.71163,-16.11967 -10.00342,-13.76852 -18.9498,6.15716 h -2.47214 l -21.71374,-7.05522 -2.18279,-1.72784 -0.58114,-2.07639 v -19.925 l -16.18588,-5.25911 z m -58.5555,20.82195 -2.31779,1.54203 -2.15435,-0.0889 -18.94981,-6.15716 -10.94768,15.0682 v 18.62532 l 18.9498,6.15717 2.18279,1.72784 0.58114,2.07639 v 19.925 l 16.18588,5.2591 11.71162,-16.11966 0.82087,-0.54612 0.68494,-0.70915 0.44223,-0.0408 0.36975,-0.246 1.58789,0.0656 0.37227,-0.0343 0.0393,0.0513 0.15489,0.006 18.94981,6.15716 10.94768,-15.06819 v -18.62533 l -18.9498,-6.15716 -2.18279,-1.72784 -0.58114,-2.07639 v -19.92501 l -16.18588,-5.2591 z m -91.21694,-66.27298 v 19.925 l -0.76393,2.35114 -13.41983,18.47081 -0.14445,0.0961 -0.0604,0.16265 -1.08296,0.59801 -1.03001,0.68527 -0.19629,-0.008 -0.12775,0.0705 -0.45129,-0.0945 -1.37902,-0.0569 -18.9498,-6.15716 -10.00342,13.76852 10.00342,13.76852 18.9498,-6.15716 1.14092,0.0471 1.13703,-0.10481 0.12003,0.15671 0.38353,0.0158 1.69063,1.33825 12.65589,17.41934 17.71375,5.75554 11.71162,-16.11966 2.31779,-1.54203 2.15435,0.0889 18.94981,6.15716 10.94768,-15.0682 v -21.53149 l 0.28834,-0.77681 0.0474,-0.82723 0.42177,-0.43667 0.21127,-0.56918 0.94706,-0.63008 0.35393,-0.36644 0.22851,-0.0211 0.26568,-0.17676 18.94981,-6.15717 v -17.01883 l -16.18588,-5.2591 -11.71161,16.11966 -0.14445,0.0961 -0.0604,0.16265 -1.08296,0.59801 -1.03001,0.68527 -0.19629,-0.008 -0.12775,0.0705 -0.45129,-0.0944 -1.37902,-0.0569 -21.71374,-7.05522 -0.44789,-0.32541 -0.44665,-0.0935 -0.39903,-0.52095 -0.70643,-0.51325 -11.71162,-16.11966 z"
     stroke-miterlimit="10"
     id="path3" />
  <path
     fill="#222222"
     stroke="#cccccc"
     paint-order="fill stroke markers"
     d="m 681.12263,453.34703 1.69063,1.33825 17.41676,23.97211 28.18091,-9.15653 1.14092,0.0471 1.13703,-0.10481 0.12003,0.15671 0.38353,0.0158 1.69063,1.33825 30.94484,42.59192 0.13676,0.48865 0.34072,0.37603 0.28645,1.48646 v 49.74034 l 47.30588,15.37061 0.13604,0.10768 0.17334,0.007 1.69062,1.33825 30.94484,42.59192 0.75032,2.68086 -0.75032,2.02142 -17.41676,23.97211 17.41676,23.97212 0.59707,2.13329 0.16686,0.21785 -0.0604,0.16264 0.0468,0.16708 -0.75032,2.02142 -30.94484,42.59192 -0.14445,0.0961 -0.0604,0.16265 -1.79518,1.19434 -47.30588,15.37061 v 49.74033 l -0.0604,0.16264 0.0468,0.16708 -0.75032,2.02142 -30.94484,42.59192 -2.31779,1.54203 -2.15435,-0.0889 -28.18091,-9.15653 -17.41676,23.97211 -0.14445,0.0961 -0.0604,0.16265 -1.08296,0.59801 -1.03001,0.68527 -0.19629,-0.008 -0.12775,0.0705 -0.45129,-0.0945 -1.37902,-0.0569 -50.0698,-16.26867 -0.39787,-0.31494 -0.49667,-0.10395 -1.10546,-1.0342 -29.23664,-40.24077 -47.30587,15.37061 -0.50701,-0.0209 -0.46291,0.20784 -1.50222,-0.18691 -50.06981,-16.26867 -2.18279,-1.72784 -0.58114,-2.07639 v -29.63116 l -28.18091,-9.15653 -2.18279,-1.72784 -0.58114,-2.07639 v -52.64651 l 0.0604,-0.16264 -0.0468,-0.16708 0.29457,-0.7936 0.0275,-0.48072 0.2451,-0.25376 0.18312,-0.49334 29.23664,-40.24078 -29.23664,-40.24078 -0.0468,-0.16707 -0.13603,-0.10768 -0.16446,-0.58762 -0.24012,-0.31348 0.0259,-0.45198 -0.20244,-0.72331 v -52.64651 l 0.96875,-2.60989 1.79518,-1.19434 28.18091,-9.15653 v -29.63116 l 0.28834,-0.77681 0.0474,-0.82723 0.42177,-0.43667 0.21127,-0.56918 0.94706,-0.63008 0.35393,-0.36644 0.22851,-0.0211 0.26568,-0.17676 50.06981,-16.26867 0.50701,0.0209 0.46291,-0.20784 1.15319,0.14348 0.15484,-0.0143 0.0284,0.0371 0.16579,0.0206 47.30587,15.37061 29.23664,-40.24077 0.42248,-0.28108 0.25234,-0.44024 1.32518,-0.73177 50.0698,-16.26867 z m -38.67095,380.8026 35.59765,11.56638 14.18068,-19.51804 -12.65282,-4.11115 z m 70.54248,-22.92064 -7.81987,10.76313 22.94485,7.45522 22.00056,-30.28117 z m -79.48677,-26.8197 v 44.23481 l 42.0698,-13.6693 v -44.23481 z m -51.59768,-15.77222 -22.94483,31.58085 38.36159,-12.46444 2.78151,0.11484 1.69063,1.33825 23.70878,32.63233 v -39.0361 l -16.65283,-22.92064 z m 101.66748,46.33772 13.5971,4.41797 8.40347,-11.56638 -22.00057,-30.28118 z m 2.47214,-47.6374 26.00056,35.7867 42.06981,-13.66931 -26.00056,-35.7867 z m -163.55716,-2.10293 26.00057,35.78671 26.00057,-35.78671 -26.00057,-35.78671 z m -20.06924,23.41708 35.59767,11.56638 -22.94483,-31.58085 -12.65284,-4.11116 z M 733.647,719.33463 v 28.33148 l 22.94484,31.58086 V 738.9112 l 0.28834,-0.77681 0.0474,-0.82723 0.42177,-0.43667 0.21127,-0.56918 0.94706,-0.63008 0.35393,-0.36644 0.22851,-0.0211 0.26568,-0.17676 38.36159,-12.46443 -37.12552,-12.06282 z m -116.79244,37.94817 14.18069,19.51803 35.59765,-11.56637 -37.12551,-12.06282 z M 502.42293,741.81738 v 14.29683 l 13.59711,4.41796 22.00056,-30.28117 z m 78.54251,18.71479 22.94484,-7.45523 -7.81987,-10.76313 -37.12553,-12.06281 z m 52.54195,-61.30672 v 46.83417 l 44.54194,14.47255 27.52843,-37.88963 -27.52843,-37.88963 z m 79.48677,26.8197 -22.94483,31.58085 35.59767,-11.56638 v -24.12563 z m -241.51607,20.01447 22.94484,7.45523 v -13.30397 l -22.94484,-31.58086 z m 132.02872,-7.14842 8.40348,11.56638 13.5971,-4.41796 v -37.42961 z m -129.55658,-40.48899 26.00056,35.7867 42.06981,-13.6693 -26.00056,-35.7867 z m 78.54251,-25.52001 v 46.83417 l 44.54194,14.47254 27.52844,-37.88963 -27.52844,-37.88963 z m 159.55715,45.03805 13.59711,-4.41796 v -14.29683 l -35.59767,-11.56638 z m 52.54195,-14.47255 42.06981,13.66931 V 672.9022 L 764.59184,659.23289 Z M 733.647,697.61896 v 13.30397 l 22.94484,-7.45523 v -37.4296 z m -211.15483,-17.56834 22.00057,30.28118 v -39.03609 l -7.81988,-10.76314 z m 292.16948,-8.75491 v 39.03609 l 22.00057,-30.28118 -14.18069,-19.51805 z m -211.15484,-17.56835 27.52844,37.88963 44.54194,-14.47254 v -46.83417 l -44.54194,-14.47255 z m 80.07038,-23.41708 v 46.83416 l 44.54195,14.47255 27.52843,-37.88963 -27.52843,-37.88963 z m -181.91819,21.06594 0.59707,2.13329 0.16686,0.21785 -0.0604,0.16264 0.0468,0.16708 -0.75032,2.02142 -23.70877,32.63232 37.12554,-12.06281 16.65282,-22.92065 -16.65282,-22.92064 -37.12554,-12.06282 z m 39.95814,2.35115 8.40346,11.56637 35.59765,-11.56638 -35.59765,-11.56637 z m 231.91899,-10e-6 35.59766,11.56638 8.40346,-11.56637 -8.40346,-11.56638 z m -221.04339,-66.009 v 46.83417 l 44.54194,14.47254 27.52844,-37.88963 -27.52844,-37.88963 z m 212.0991,16.26867 v 44.2348 l 42.06981,-13.66931 v -44.2348 z m -242.09967,23.41708 14.18069,19.51805 7.81988,-10.76314 v -39.03609 z m 292.16948,8.75491 7.81988,10.76314 14.18069,-19.51805 -22.00057,-30.28118 z M 733.647,609.83576 756.59184,641.41662 V 603.98703 L 733.647,596.5318 Z m -259.69677,-0.80325 42.06981,13.66931 26.00056,-35.7867 -42.06981,-13.66931 z M 633.50739,561.3951 v 46.83417 l 44.54194,14.47255 27.52843,-37.88963 -27.52843,-37.88963 z m 56.54194,58.40055 35.59767,-11.56638 v -14.29683 l -13.59711,-4.41796 z m -86.54252,-51.25213 22.00058,30.28119 v -37.4296 l -13.59711,-4.41797 z m -132.02872,-7.14841 v 37.42959 l 22.94484,-31.58086 v -13.30396 z m 262.16891,-1.6065 v 28.33148 l 26.94484,8.75491 37.12552,-12.06281 -38.36159,-12.46444 -2.18279,-1.72784 -0.58114,-2.07639 v -40.33577 z m -20.65284,21.62097 12.65284,4.11116 V 561.3951 l -35.59767,-11.56638 z m -190.50199,-39.18931 26.00057,35.78671 26.00057,-35.78671 -26.00057,-35.78672 z m 36.47271,34.98346 37.12553,-12.06282 7.81987,-10.76313 -22.94484,-7.45522 z m -56.54195,-25.86321 v 14.29683 l 35.59767,11.56638 -22.00056,-30.28117 z m 114.43163,-1.16859 12.65283,4.11115 37.12552,-12.06281 -35.59766,-11.56638 z m 69.19477,-10.05459 42.06981,13.6693 26.00056,-35.7867 -42.06981,-13.66931 z m -84.25072,-21.86919 -2.31779,1.54203 -2.15435,-0.0889 -38.36159,-12.46444 22.94483,31.58086 26.94485,8.75491 16.65283,-22.92065 v -39.0361 z m -99.37568,0.55503 v 24.12564 l 12.65284,-4.11116 22.94483,-31.58086 z m 131.08446,4.24225 42.0698,13.6693 v -44.2348 l -42.0698,-13.66931 z m 50.0698,-30.5655 v 37.4296 l 22.00057,-30.28119 -8.40346,-11.56637 z m 21.59711,-7.01732 7.81986,10.76312 37.12554,12.06282 -22.00056,-30.28117 z m -62.72263,-12.15752 37.12552,12.06282 12.65283,-4.11116 -14.18069,-19.51804 z"
     stroke-miterlimit="10"
     id="path4" />
</svg>
