<svg version="1.1" xmlns="http://www.w3.org/2000/svg" xmlns:xlink="http://www.w3.org/1999/xlink" width="1350" height="1800"><defs/><g><path fill="rgb(0,0,0)" stroke="#cccccc" paint-order="fill stroke markers" d=" M 0 0 L 1350 0 L 1350 1800 L 0 1800 Z" fill-opacity="0" stroke-miterlimit="10"/><path fill="none" stroke="#0099ff" paint-order="fill stroke markers" d=" M 121.49565255447598 323.45696648103353 L 194.0943196856992 423.38045937075356 L 266.69298681692237 399.79172249956264 L 194.0943196856992 376.2029856283717 L 238.96276351073496 437.9591005088274 L 238.96276351073496 361.624344490298 L 194.09431968569922 423.38045937075395 L 121.49565255447598 399.79172249956304 L 121.49565255447598 323.4569664810335 L 194.09431968569922 299.86822960984256 L 121.49565255447598 276.2794927386515 L 166.36409637951175 338.0356076191068 L 166.36409637951178 261.70085160057783 L 121.49565255447598 323.45696648103353" stroke-miterlimit="10"/><path fill="none" stroke="#0099ff" paint-order="fill stroke markers" d=" M 166.36409637951178 385.21308136148923 L 384.1600977731814 314.44687074791625" stroke-miterlimit="10"/><path fill="none" stroke="#0099ff" paint-order="fill stroke markers" d=" M 149.22587586066342 238.11211472938678 L 283.8312073357708 423.38045937075367" stroke-miterlimit="10"/><path fill="none" stroke="#0099ff" paint-order="fill stroke markers" d=" M 311.56143064195817 414.3703636376365 L 311.56143064195817 185.36609558204816" stroke-miterlimit="10"/><path fill="none" stroke="#0099ff" paint-order="fill stroke markers" d=" M 384.1600977731814 285.28958847176847 L 166.36409637951175 214.52337785819543" stroke-miterlimit="10"/><path fill="none" stroke="#0099ff" paint-order="fill stroke markers" d=" M 283.8312073357708 176.35599984893096 L 149.22587586066342 361.6243444902979" stroke-miterlimit="10"/><path fill="none" stroke="#0099ff" paint-order="fill stroke markers" d=" M 194.0943196856992 223.53347359131294 L 266.69298681692237 199.94473672012202 L 194.0943196856992 176.35599984893108 L 121.49565255447598 276.27949273865113 L 121.49565255447598 199.94473672012197 L 194.0943196856992 176.35599984893105 L 238.96276351073496 238.11211472938675 L 238.96276351073502 161.77735871085727 L 194.0943196856992 223.53347359131294" stroke-miterlimit="10"/><path fill="none" stroke="#0099ff" paint-order="fill stroke markers" d=" M 356.42987446699397 199.94473672012202 L 311.56143064195817 261.7008516005777 L 384.1600977731814 238.1121147293867 L 429.0285415982172 299.8682296098424 L 384.1600977731814 361.6243444902981 L 311.56143064195817 338.03560761910717 L 356.42987446699397 399.79172249956275 L 311.56143064195817 461.5478373800185 L 238.96276351073496 437.95910050882753 L 356.42987446699397 399.79172249956275 L 356.42987446699397 323.45696648103325 L 311.56143064195817 385.2130813614889 L 384.1600977731814 361.624344490298 L 384.1600977731814 238.1121147293867 L 311.56143064195817 214.52337785819577 L 356.42987446699397 276.27949273865147 L 356.42987446699397 199.94473672012188 L 238.96276351073496 161.77735871085724 L 311.5614306419582 138.18862183966633" stroke-miterlimit="10"/><path fill="none" stroke="#0099ff" paint-order="fill stroke markers" d=" M 311.5614306419582 138.18862183966633 L 356.42987446699397 199.94473672012202" stroke-miterlimit="10"/><path fill="none" stroke="#0099ff" paint-order="fill stroke markers" d=" M 665.958848497304 340.0815499069037 L 665.958848497304 260.05350963569504 L 712.9981503385886 324.79755424162545 L 636.8869611523245 300.06752977129946 L 665.958848497304 340.0815499069037 L 712.9981503385886 324.7975542416256 L 712.9981503385886 275.33750530097325 L 665.958848497304 260.05350963569475 L 636.8869611523245 300.06752977129923 L 712.9981503385886 275.3375053009731 L 665.958848497304 340.08154990690383" stroke-miterlimit="10"/><path fill="none" stroke="#0099ff" paint-order="fill stroke markers" d=" M 589.8476593110398 204.75549383481246 L 560.7757719660603 244.76951397041685 L 589.8476593110398 284.78353410602125 L 742.0700376835681 235.32348516536877 L 742.0700376835681 185.8634362247164 L 695.0307358422834 170.57944055943818 L 665.958848497304 210.5934606950426 L 760.0374521798733 340.08154990690366 L 807.076754021158 324.79755424162545 L 807.076754021158 275.3375053009731 L 760.0374521798733 260.05350963569487 L 665.958848497304 389.541598847556 L 695.0307358422834 429.5556189831604 L 742.0700376835681 414.2716233178822 L 742.0700376835681 364.8115743772298 L 589.8476593110398 315.35152543657733 L 560.7757719660603 355.36554557218176 L 589.8476593110398 395.3795657077861 L 636.8869611523245 380.0955700425079 L 636.8869611523245 220.03948950009067 L 589.8476593110398 204.75549383481246 L 589.8476593110398 155.29544489416008 L 618.9195466560193 195.30946502976445 L 560.7757719660603 275.33750530097325 L 513.7364701247757 260.05350963569504 L 560.7757719660603 244.76951397041685" stroke-miterlimit="10"/><path fill="none" stroke="#0099ff" paint-order="fill stroke markers" d=" M 636.8869611523245 250.60748083064706 L 589.8476593110398 235.32348516536888 L 618.9195466560193 275.33750530097325" stroke-miterlimit="10"/><path fill="none" stroke="#0099ff" paint-order="fill stroke markers" d=" M 712.9981503385886 244.76951397041682 L 712.9981503385886 195.30946502976445 L 683.9262629936092 235.3234851653687" stroke-miterlimit="10"/><path fill="none" stroke="#0099ff" paint-order="fill stroke markers" d=" M 742.0700376835681 185.86343622471634 L 789.1093395248528 170.57944055943815 L 760.0374521798733 210.59346069504252 L 665.958848497304 180.0254693644862 L 665.958848497304 130.56542042383384 L 695.0307358422834 170.5794405594382" stroke-miterlimit="10"/><path fill="none" stroke="#0099ff" paint-order="fill stroke markers" d=" M 742.0700376835681 315.3515254365775 L 789.1093395248528 300.0675297712993 L 742.0700376835681 284.783534106021" stroke-miterlimit="10"/><path fill="none" stroke="#0099ff" paint-order="fill stroke markers" d=" M 807.076754021158 324.79755424162545 L 836.1486413661373 364.8115743772298 L 789.1093395248528 349.5275787119516 L 789.1093395248528 250.6074808306469 L 836.1486413661373 235.3234851653687 L 807.076754021158 275.3375053009731" stroke-miterlimit="10"/><path fill="none" stroke="#0099ff" paint-order="fill stroke markers" d=" M 683.9262629936092 364.8115743772298 L 712.9981503385886 404.8255945128342 L 712.9981503385886 355.36554557218176" stroke-miterlimit="10"/><path fill="none" stroke="#0099ff" paint-order="fill stroke markers" d=" M 695.0307358422834 429.5556189831604 L 665.958848497304 469.5696391187647 L 665.958848497304 420.10959017811234 L 760.0374521798733 389.541598847556 L 789.1093395248528 429.5556189831604 L 742.0700376835681 414.2716233178822" stroke-miterlimit="10"/><path fill="none" stroke="#0099ff" paint-order="fill stroke markers" d=" M 618.9195466560193 324.79755424162533 L 589.8476593110398 364.81157437722976 L 636.8869611523245 349.5275787119515" stroke-miterlimit="10"/><path fill="none" stroke="#0099ff" paint-order="fill stroke markers" d=" M 560.7757719660603 355.3655455721817 L 513.7364701247757 340.08154990690355 L 560.7757719660603 324.7975542416253 L 618.9195466560193 404.82559451283413 L 589.8476593110398 444.83961464843856" stroke-miterlimit="10"/><path fill="none" stroke="#0099ff" paint-order="fill stroke markers" d=" M 589.8476593110398 444.83961464843856 L 589.8476593110398 395.3795657077861" stroke-miterlimit="10"/><path fill="none" stroke="#0099ff" paint-order="fill stroke markers" d=" M 1174.1470699729653 247.89819603797685 L 1174.1470699729653 183.4583567536361 L 1051.5752118521957 143.63234584633275 L 1013.6984246607632 195.76527094215473 L 952.4124956003785 175.85226548850326 L 914.5357084089459 227.98519058432527 L 952.4124956003785 280.11811568014724 L 1150.737928104013 215.67827639580645 L 1150.737928104013 151.23843711146571 L 1089.4519990436286 131.32543165781408 L 1051.5752118521957 183.45835675363605 L 1112.8611409125806 163.5453512999844 L 1150.737928104013 215.67827639580648 L 1112.8611409125806 267.8112014916288 L 1174.1470699729653 247.8981960379772 L 1212.023857164398 300.03112113379916 L 1174.1470699729653 352.16404622962074 L 1235.43299903335 332.2510407759691 L 1235.43299903335 267.8112014916288 L 1174.1470699729653 247.8981960379772 L 1051.5752118521957 416.6038855139618 L 1089.4519990436286 468.7368106097839 L 1150.737928104013 448.8238051561322 L 1150.737928104013 384.3839658717915 L 1212.023857164398 364.4709604181395 L 1212.023857164398 235.59128184945843 L 1150.737928104013 215.6782763958068" stroke-miterlimit="10"/><path fill="none" stroke="#0099ff" paint-order="fill stroke markers" d=" M 1051.5752118521957 183.45835675363622 L 990.289282791811 163.54535129998456 L 914.5357084089459 267.8112014916285 L 952.4124956003785 319.94412658745057 L 1013.6984246607632 300.031121133799 L 952.4124956003785 280.1181156801474 L 952.4124956003785 215.6782763958065 L 1013.6984246607632 195.76527094215493 L 1051.5752118521957 247.89819603797693 L 1013.6984246607632 300.03112113379893 L 1051.5752118521957 352.164046229621 L 1112.8611409125806 332.2510407759695 L 1112.8611409125806 267.8112014916288 L 1051.5752118521957 247.89819603797685 L 1051.5752118521957 183.45835675363622 L 1174.1470699729653 352.1640462296212 L 1112.8611409125806 332.2510407759696 L 1150.737928104013 384.3839658717915 L 1112.8611409125806 436.51689096761345 L 1051.5752118521957 416.60388551396187 L 1051.5752118521957 352.16404622962114 L 1013.6984246607632 404.29697132544317 L 952.4124956003785 384.38396587179136 L 952.4124956003785 319.9441265874507 L 914.5357084089459 372.07705168327266 L 952.4124956003785 424.20997677909463 L 1013.6984246607632 404.29697132544305 L 1013.6984246607632 195.7652709421549" stroke-miterlimit="10"/><path fill="none" stroke="#0099ff" paint-order="fill stroke markers" d=" M 1150.737928104013 319.9441265874508 L 1112.8611409125806 372.07705168327277" stroke-miterlimit="10"/><path fill="none" stroke="#0099ff" paint-order="fill stroke markers" d=" M 1150.737928104013 384.3839658717915 L 952.4124956003785 319.9441265874506" stroke-miterlimit="10"/><path fill="none" stroke="#0099ff" paint-order="fill stroke markers" d=" M 1013.6984246607632 404.29697132544317 L 1051.5752118521957 456.42989642126514 L 1174.1470699729653 416.6038855139618 L 1174.1470699729653 352.1640462296211" stroke-miterlimit="10"/><path fill="none" stroke="#0099ff" paint-order="fill stroke markers" d=" M 1074.984353721148 384.3839658717914 L 1013.6984246607632 364.4709604181398" stroke-miterlimit="10"/><path fill="none" stroke="#0099ff" paint-order="fill stroke markers" d=" M 952.4124956003785 280.1181156801474 L 914.5357084089459 332.25104077596944 L 990.289282791811 436.51689096761334 L 1051.5752118521957 416.60388551396176" stroke-miterlimit="10"/><path fill="none" stroke="#0099ff" paint-order="fill stroke markers" d=" M 990.289282791811 332.25104077596933 L 990.289282791811 267.8112014916286" stroke-miterlimit="10"/><path fill="none" stroke="#0099ff" paint-order="fill stroke markers" d=" M 1013.6984246607632 235.59128184945814 L 1074.984353721148 215.6782763958065" stroke-miterlimit="10"/><path fill="none" stroke="#0099ff" paint-order="fill stroke markers" d=" M 1112.8611409125806 227.9851905843251 L 1150.737928104013 280.1181156801471" stroke-miterlimit="10"/><path fill="none" stroke="#0099ff" paint-order="fill stroke markers" d=" M 253.70946705322453 780.9742777231338 L 253.70946705322453 736.2247445523928 L 296.2688021764239 722.3963783122884 L 322.57191782115825 758.5995111377631 L 280.0125826979589 744.7711448976589 L 253.70946705322453 780.9742777231338 L 280.0125826979589 817.1774105486085 L 322.57191782115825 803.3490443085043 L 348.87503346589267 839.552177133979 L 348.87503346589267 794.802643963238 L 391.434368589092 780.9742777231336 L 391.434368589092 736.2247445523926 L 433.99370371229134 722.3963783122882 L 433.99370371229134 677.6468451415476 L 391.43436858909195 663.8184789014432 L 391.43436858909195 619.0689457307022 L 348.87503346589267 605.2405794905978 L 348.87503346589267 560.4910463198569 L 322.57191782115825 596.6941791453318 L 280.0125826979589 582.8658129052274 L 280.0125826979589 538.1162797344862 L 253.70946705322453 574.319412559961 L 211.15013193002517 560.4910463198567 L 184.84701628529078 596.6941791453315 L 142.28768116209145 582.8658129052271 L 115.98456551735705 619.068945730702 L 142.28768116209145 655.2720785561769 L 115.98456551735705 691.4752113816518 L 142.28768116209145 727.6783442071267 L 115.98456551735705 763.8814770326015 L 158.5439006405564 750.0531107924971 L 184.84701628529078 786.2562436179721 L 227.40635140849014 772.4278773778676 L 227.40635140849008 727.6783442071268 L 184.84701628529075 713.8499779670224 L 227.40635140849014 700.0216117269179 L 184.84701628529078 686.1932454868136 L 227.40635140849014 672.3648792467092 L 227.40635140849014 627.6153460759682 L 253.70946705322453 663.8184789014429 L 253.70946705322453 619.068945730702 L 280.0125826979589 655.272078556177 L 322.57191782115825 641.4437123160726 L 322.57191782115825 596.6941791453315" stroke-miterlimit="10"/><path fill="none" stroke="#0099ff" paint-order="fill stroke markers" d=" M 280.0125826979589 582.8658129052274 L 253.7094670532245 619.0689457307021" stroke-miterlimit="10"/><path fill="none" stroke="#0099ff" paint-order="fill stroke markers" d=" M 322.57191782115825 641.4437123160726 L 296.26880217642383 677.6468451415475 L 338.8281372996232 663.818478901443 L 312.5250216548888 700.021611726918 L 338.8281372996232 736.2247445523928 L 381.38747242282255 722.3963783122883 L 381.38747242282255 677.6468451415475 L 423.9468075460219 663.8184789014429 L 381.38747242282255 649.9901126613386 L 381.38747242282255 605.2405794905976 L 338.8281372996232 591.4122132504932 L 338.8281372996232 546.6626800797521 L 296.2688021764239 532.8343138396478 L 269.96568653168947 569.0374466651226 L 227.40635140849014 555.2090804250183 L 201.10323576375572 591.4122132504931 L 158.5439006405564 577.5838470103888 L 184.84701628529078 613.7869798358636 L 158.5439006405564 649.9901126613387 L 184.84701628529078 686.1932454868135" stroke-miterlimit="10"/><path fill="none" stroke="#0099ff" paint-order="fill stroke markers" d=" M 338.8281372996232 736.2247445523928 L 296.2688021764239 722.3963783122884 L 296.2688021764239 677.6468451415475 L 253.7094670532245 663.8184789014431 L 227.40635140849008 700.0216117269181 L 253.7094670532245 736.2247445523928 L 227.40635140849008 772.4278773778677" stroke-miterlimit="10"/><path fill="none" stroke="#0099ff" paint-order="fill stroke markers" d=" M 184.84701628529075 713.8499779670224 L 158.5439006405564 750.0531107924973" stroke-miterlimit="10"/><path fill="none" stroke="#0099ff" paint-order="fill stroke markers" d=" M 184.84701628529078 786.2562436179721 L 158.5439006405564 822.459376443447 L 201.10323576375572 808.6310102033426 L 227.40635140849014 844.8341430288175 L 269.96568653168947 831.0057767887131 L 296.2688021764239 867.208909614188 L 338.8281372996232 853.3805433740836 L 338.8281372996232 808.6310102033426 L 381.38747242282255 794.8026439632382 L 381.38747242282255 750.0531107924973 L 423.9468075460219 736.2247445523928 L 381.38747242282255 722.3963783122884" stroke-miterlimit="10"/><path fill="none" stroke="#0099ff" paint-order="fill stroke markers" d=" M 381.38747242282255 677.6468451415475 L 338.8281372996232 663.8184789014431" stroke-miterlimit="10"/><path fill="none" stroke="#0099ff" paint-order="fill stroke markers" d=" M 227.40635140849014 627.6153460759682 L 184.84701628529078 613.7869798358638" stroke-miterlimit="10"/><path fill="none" stroke="#0099ff" paint-order="fill stroke markers" d=" M 158.5439006405564 649.9901126613387 L 115.98456551735705 636.1617464212343 L 142.28768116209145 672.3648792467092 L 115.98456551735705 708.568012072184 L 142.28768116209145 744.7711448976589 L 115.98456551735705 780.9742777231338 L 142.28768116209145 817.1774105486087 L 184.84701628529078 803.3490443085043 L 211.15013193002517 839.5521771339792 L 253.70946705322453 825.7238108938748 L 280.0125826979589 861.9269437193497 L 280.0125826979589 817.1774105486087" stroke-miterlimit="10"/><path fill="none" stroke="#0099ff" paint-order="fill stroke markers" d=" M 322.57191782115825 803.3490443085043 L 322.57191782115825 758.5995111377633" stroke-miterlimit="10"/><path fill="none" stroke="#0099ff" paint-order="fill stroke markers" d=" M 579.9521162975979 719.1135140373367 L 792.4521162975977 650.068078587844 L 792.4521162975977 588.3119637073884 L 828.7514498632094 638.2737101522484 L 770.0178943850799 619.1900211476161 L 638.6856717757273 799.9533179224242 L 674.9850053413389 849.9150643672845 L 616.2514498632095 830.831375362652 L 674.9850053413389 811.7476863580197 L 674.9850053413389 588.3119637073885 L 616.2514498632095 569.228274702756 L 674.9850053413389 550.1445856981237 L 638.6856717757273 600.1063321429839 L 770.0178943850799 780.869628917792 L 828.7514498632094 761.7859399131597 L 792.4521162975977 811.7476863580199 L 792.4521162975977 749.9915714775642 L 579.9521162975979 680.9461360280715 L 543.6527827319863 730.9078824729316 L 543.6527827319863 669.1517675924765 L 579.9521162975979 719.1135140373367" stroke-miterlimit="10"/><path fill="none" stroke="#0099ff" paint-order="fill stroke markers" d=" M 674.9850053413389 650.0680785878441 L 638.6856717757273 700.0298250327043 L 674.9850053413389 749.9915714775645 L 733.7185608194683 730.9078824729319 L 733.7185608194683 669.1517675924763 L 674.9850053413389 650.0680785878441" stroke-miterlimit="10"/><path fill="none" stroke="#0099ff" paint-order="fill stroke markers" d=" M 697.4192272538568 619.190021147616 L 697.4192272538568 557.4339062671604 L 638.6856717757273 538.3502172625281 L 602.3863382101158 588.3119637073883 L 638.6856717757273 638.2737101522483 L 697.4192272538568 619.190021147616 L 770.0178943850799 719.1135140373367 L 733.7185608194683 769.0752604821969 L 616.2514498632095 730.907882472932 L 616.2514498632095 669.1517675924763 L 733.7185608194683 630.9843895832113 L 770.0178943850799 680.9461360280715 L 828.7514498632094 661.8624470234391 L 828.7514498632094 600.1063321429835 L 770.0178943850799 581.0226431383511 L 733.7185608194683 630.9843895832113" stroke-miterlimit="10"/><path fill="none" stroke="#0099ff" paint-order="fill stroke markers" d=" M 733.7185608194683 769.0752604821969 L 770.0178943850799 819.037006927057 L 828.7514498632094 799.9533179224247 L 828.7514498632094 738.197203041969 L 770.0178943850799 719.1135140373367" stroke-miterlimit="10"/><path fill="none" stroke="#0099ff" paint-order="fill stroke markers" d=" M 770.0178943850799 680.9461360280715 L 697.4192272538568 780.8696289177922 L 638.6856717757273 761.7859399131598 L 638.6856717757273 638.2737101522483" stroke-miterlimit="10"/><path fill="none" stroke="#0099ff" paint-order="fill stroke markers" d=" M 638.6856717757273 761.7859399131598 L 602.3863382101158 811.74768635802 L 638.6856717757273 861.7094328028802 L 697.4192272538568 842.6257437982479 L 697.4192272538568 780.8696289177922" stroke-miterlimit="10"/><path fill="none" stroke="#0099ff" paint-order="fill stroke markers" d=" M 616.2514498632095 669.1517675924763 L 557.51789438508 650.068078587844 L 521.2185608194685 700.0298250327041 L 557.51789438508 749.9915714775642" stroke-miterlimit="10"/><path fill="none" stroke="#0099ff" paint-order="fill stroke markers" d=" M 557.51789438508 749.9915714775642 L 616.2514498632095 730.9078824729319" stroke-miterlimit="10"/><path fill="none" stroke="#0099ff" paint-order="fill stroke markers" d=" M 952.4124956003785 680.1181156801473 L 1150.737928104013 615.6782763958065 L 1150.737928104013 551.2384371114658 L 1089.4519990436283 531.3254316578141 L 1051.5752118521957 583.458356753636 L 990.2892827918112 563.5453512999844 L 914.5357084089459 667.8112014916287 L 952.4124956003785 719.9441265874506 L 1013.6984246607632 700.031121133799 L 952.4124956003785 680.1181156801474 L 952.4124956003785 615.6782763958066 L 1013.6984246607632 595.7652709421548 L 952.4124956003785 575.8522654885032 L 914.5357084089459 627.9851905843253 L 952.4124956003785 680.1181156801473 L 914.5357084089459 732.2510407759693 L 990.2892827918112 836.5168909676134 L 1051.5752118521957 816.6038855139618 L 1089.4519990436283 868.7368106097838 L 1150.737928104013 848.8238051561322 L 1150.737928104013 784.3839658717915 L 1212.023857164398 764.4709604181397 L 1212.023857164398 635.5912818494581 L 1150.737928104013 615.6782763958065 L 1112.8611409125806 667.8112014916288 L 1174.1470699729653 647.8981960379772 L 1212.023857164398 700.0311211337989 L 1174.1470699729653 752.164046229621 L 1112.8611409125806 732.2510407759694 L 1150.737928104013 784.3839658717915 L 1112.8611409125806 836.5168909676131 L 1051.5752118521957 816.6038855139617 L 1051.5752118521957 752.1640462296211 L 1013.6984246607632 804.2969713254431 L 952.4124956003785 784.3839658717915 L 952.4124956003785 719.9441265874506 L 914.5357084089459 772.0770516832727 L 952.4124956003785 824.2099767790946 L 1013.6984246607632 804.296971325443 L 1051.5752118521957 856.429896421265 L 1174.1470699729653 816.6038855139615 L 1174.1470699729653 752.1640462296208 L 1235.43299903335 732.251040775969 L 1235.43299903335 667.8112014916288 L 1174.1470699729653 647.8981960379772 L 1174.1470699729653 583.4583567536365 L 1051.5752118521957 543.632345846333 L 1013.6984246607632 595.765270942155 L 1051.5752118521957 647.898196037977 L 1051.5752118521957 583.4583567536363 L 1112.8611409125806 563.5453512999845 L 1150.737928104013 615.6782763958068" stroke-miterlimit="10"/><path fill="none" stroke="#0099ff" paint-order="fill stroke markers" d=" M 1174.1470699729653 647.8981960379772 L 1051.5752118521957 816.6038855139618" stroke-miterlimit="10"/><path fill="none" stroke="#0099ff" paint-order="fill stroke markers" d=" M 1089.4519990436283 764.4709604181397 L 1089.4519990436283 635.5912818494581 L 1013.6984246607632 739.8571320411023 L 1136.2702827815326 700.0311211337987 L 1013.6984246607632 660.2051102264957 L 1089.4519990436283 764.4709604181398" stroke-miterlimit="10"/><path fill="none" stroke="#0099ff" paint-order="fill stroke markers" d=" M 1112.8611409125806 627.9851905843253 L 1074.984353721148 680.1181156801473 L 1074.984353721148 615.6782763958068" stroke-miterlimit="10"/><path fill="none" stroke="#0099ff" paint-order="fill stroke markers" d=" M 1051.5752118521957 583.458356753636 L 1174.1470699729653 752.1640462296207" stroke-miterlimit="10"/><path fill="none" stroke="#0099ff" paint-order="fill stroke markers" d=" M 1150.737928104013 719.9441265874508 L 1112.8611409125806 772.0770516832728" stroke-miterlimit="10"/><path fill="none" stroke="#0099ff" paint-order="fill stroke markers" d=" M 1150.737928104013 784.3839658717915 L 952.4124956003785 719.9441265874506" stroke-miterlimit="10"/><path fill="none" stroke="#0099ff" paint-order="fill stroke markers" d=" M 990.2892827918112 732.2510407759695 L 1051.5752118521957 712.3380353223179 L 1013.6984246607632 764.4709604181396" stroke-miterlimit="10"/><path fill="none" stroke="#0099ff" paint-order="fill stroke markers" d=" M 1150.737928104013 719.9441265874505 L 1089.4519990436283 700.0311211337989 L 1150.737928104013 680.1181156801475" stroke-miterlimit="10"/><path fill="none" stroke="#0099ff" paint-order="fill stroke markers" d=" M 1074.984353721148 784.3839658717915 L 1013.6984246607632 764.4709604181397" stroke-miterlimit="10"/><path fill="none" stroke="#0099ff" paint-order="fill stroke markers" d=" M 1013.6984246607632 804.296971325443 L 1013.6984246607632 595.765270942155" stroke-miterlimit="10"/><path fill="none" stroke="#0099ff" paint-order="fill stroke markers" d=" M 1013.6984246607632 635.5912818494584 L 1051.5752118521957 687.7242069452802 L 990.2892827918112 667.8112014916285" stroke-miterlimit="10"/><path fill="none" stroke="#0099ff" paint-order="fill stroke markers" d=" M 1074.984353721148 784.3839658717911 L 1074.984353721148 719.9441265874503 L 1112.8611409125806 772.0770516832727" stroke-miterlimit="10"/><path fill="none" stroke="#0099ff" paint-order="fill stroke markers" d=" M 990.2892827918112 732.2510407759694 L 990.2892827918112 667.8112014916286" stroke-miterlimit="10"/><path fill="none" stroke="#0099ff" paint-order="fill stroke markers" d=" M 1013.6984246607632 635.5912818494581 L 1074.984353721148 615.6782763958065" stroke-miterlimit="10"/><path fill="none" stroke="#0099ff" paint-order="fill stroke markers" d=" M 1112.8611409125806 627.9851905843251 L 1150.737928104013 680.1181156801472" stroke-miterlimit="10"/><path fill="none" stroke="#0099ff" paint-order="fill stroke markers" d=" M 409.9209124167078 1017.6361552539496 L 366.68642971720107 1077.1433155824743 L 409.9209124167078 1136.6504759109991 L 409.9209124167078 1063.0955805969643 L 183.54222203005196 989.540685282929 L 140.30773933054522 1049.0478456114536 L 210.2626018243664 1026.3181329399463 L 210.2626018243664 952.7632376259108" stroke-miterlimit="10"/><path fill="none" stroke="#0099ff" paint-order="fill stroke markers" d=" M 409.9209124167078 1063.0955805969643 L 366.686429717201 1122.602740925489 L 409.9209124167078 1182.109901254014" stroke-miterlimit="10"/><path fill="none" stroke="#0099ff" paint-order="fill stroke markers" d=" M 296.73156722337984 1218.8873489110315 L 296.7315672233799 980.8587075969318 L 366.68642971720107 958.1289949254248 L 436.64129221102223 1054.4136029109673 L 393.4068095115155 1113.920763239492 L 167.02811912485964 1040.3658679254568 L 167.02811912485964 966.8109726114214 L 280.2174643181876 930.0335249544039 L 323.45194701769435 989.5406852829285 L 183.54222203005196 1182.1099012540135 L 113.58735953623079 1159.3801885825064 L 113.58735953623079 1040.3658679254568 L 183.54222203005196 1017.6361552539498 L 323.45194701769435 1210.2053712250347 L 280.2174643181876 1269.7125315535595 L 167.02811912485964 1232.935083896542 L 167.02811912485964 1159.3801885825067 L 393.4068095115155 1085.8252932684713 L 436.64129221102223 1145.332453596996 L 366.686429717201 1241.6170615825386 L 296.73156722337984 1218.8873489110315" stroke-miterlimit="10"/><path fill="none" stroke="#0099ff" paint-order="fill stroke markers" d=" M 296.73156722337984 1145.3324535969962 L 366.686429717201 1122.602740925489" stroke-miterlimit="10"/><path fill="none" stroke="#0099ff" paint-order="fill stroke markers" d=" M 366.68642971720107 1150.6982108965096 L 366.686429717201 1049.0478456114536" stroke-miterlimit="10"/><path fill="none" stroke="#0099ff" paint-order="fill stroke markers" d=" M 183.54222203005196 1108.5550059399786 L 253.49708452387316 1085.8252932684713 L 253.49708452387316 1012.270397954436" stroke-miterlimit="10"/><path fill="none" stroke="#0099ff" paint-order="fill stroke markers" d=" M 140.30773933054522 1049.0478456114536 L 280.2174643181876 1241.6170615825383 L 350.1723268120088 1218.8873489110315 L 350.1723268120088 980.8587075969323 L 280.2174643181876 958.1289949254251 L 323.45194701769435 1017.6361552539496 L 393.4068095115155 994.9064425824425" stroke-miterlimit="10"/><path fill="none" stroke="#0099ff" paint-order="fill stroke markers" d=" M 253.49708452387316 1204.839613925521 L 350.1723268120088 1173.4279235680171" stroke-miterlimit="10"/><path fill="none" stroke="#0099ff" paint-order="fill stroke markers" d=" M 393.4068095115155 1204.839613925521 L 323.45194701769435 1182.1099012540137 L 323.45194701769435 1108.5550059399784" stroke-miterlimit="10"/><path fill="none" stroke="#0099ff" paint-order="fill stroke markers" d=" M 323.45194701769435 1182.1099012540137 L 280.2174643181876 1241.6170615825386" stroke-miterlimit="10"/><path fill="none" stroke="#0099ff" paint-order="fill stroke markers" d=" M 350.1723268120088 1218.8873489110315 L 280.2174643181876 1196.1576362395244 L 236.98298161868084 1255.664796568049" stroke-miterlimit="10"/><path fill="none" stroke="#0099ff" paint-order="fill stroke markers" d=" M 236.98298161868084 1136.6504759109994 L 280.2174643181876 1196.1576362395244" stroke-miterlimit="10"/><path fill="none" stroke="#0099ff" paint-order="fill stroke markers" d=" M 236.98298161868084 1017.6361552539499 L 280.2174643181876 1077.1433155824748 L 350.1723268120088 1054.4136029109675" stroke-miterlimit="10"/><path fill="none" stroke="#0099ff" paint-order="fill stroke markers" d=" M 280.2174643181876 958.1289949254251 L 140.30773933054522 1150.6982108965096 L 183.54222203005196 1210.2053712250347 L 409.9209124167078 1136.6504759109994" stroke-miterlimit="10"/><path fill="none" stroke="#0099ff" paint-order="fill stroke markers" d=" M 167.02811912485964 1113.9207632394923 L 226.7767047295587 1196.1576362395242" stroke-miterlimit="10"/><path fill="none" stroke="#0099ff" paint-order="fill stroke markers" d=" M 210.2626018243664 1246.9828188820525 L 210.2626018243664 1173.4279235680171 L 280.2174643181876 1150.69821089651" stroke-miterlimit="10"/><path fill="none" stroke="#0099ff" paint-order="fill stroke markers" d=" M 210.2626018243664 1173.4279235680171 L 140.30773933054522 1150.69821089651" stroke-miterlimit="10"/><path fill="none" stroke="#0099ff" paint-order="fill stroke markers" d=" M 183.54222203005196 1210.2053712250347 L 183.54222203005196 1136.6504759109994 L 113.58735953623079 1113.9207632394923" stroke-miterlimit="10"/><path fill="none" stroke="#0099ff" paint-order="fill stroke markers" d=" M 226.7767047295587 1077.1433155824745 L 183.54222203005196 1136.6504759109994" stroke-miterlimit="10"/><path fill="none" stroke="#0099ff" paint-order="fill stroke markers" d=" M 339.9660499228866 1040.3658679254568 L 296.7315672233799 1099.8730282539816 L 339.9660499228866 1159.3801885825064" stroke-miterlimit="10"/><path fill="none" stroke="#0099ff" paint-order="fill stroke markers" d=" M 226.7767047295587 1003.5884202684392 L 167.02811912485964 1085.8252932684711" stroke-miterlimit="10"/><path fill="none" stroke="#0099ff" paint-order="fill stroke markers" d=" M 113.58735953623079 1085.8252932684711 L 183.54222203005196 1063.0955805969638 L 226.7767047295587 1122.602740925489" stroke-miterlimit="10"/><path fill="none" stroke="#0099ff" paint-order="fill stroke markers" d=" M 183.54222203005196 1063.0955805969638 L 183.54222203005196 989.5406852829285" stroke-miterlimit="10"/><path fill="none" stroke="#0099ff" paint-order="fill stroke markers" d=" M 280.2174643181876 1049.0478456114533 L 210.2626018243664 1026.3181329399463" stroke-miterlimit="10"/><path fill="none" stroke="#0099ff" paint-order="fill stroke markers" d=" M 350.1723268120088 1145.332453596996 L 280.2174643181876 1122.6027409254887 L 236.98298161868084 1182.1099012540135" stroke-miterlimit="10"/><path fill="none" stroke="#0099ff" paint-order="fill stroke markers" d=" M 350.1723268120088 1026.3181329399463 L 253.49708452387316 994.9064425824425" stroke-miterlimit="10"/><path fill="none" stroke="#0099ff" paint-order="fill stroke markers" d=" M 236.98298161868084 944.0812599399143 L 280.2174643181876 1003.5884202684391 L 236.98298161868084 1063.0955805969638" stroke-miterlimit="10"/><path fill="none" stroke="#0099ff" paint-order="fill stroke markers" d=" M 280.2174643181876 1003.5884202684391 L 350.1723268120088 980.8587075969319" stroke-miterlimit="10"/><path fill="none" stroke="#0099ff" paint-order="fill stroke markers" d=" M 323.45194701769435 1091.191050567985 L 323.45194701769435 1017.6361552539496" stroke-miterlimit="10"/><path fill="none" stroke="#0099ff" paint-order="fill stroke markers" d=" M 253.49708452387316 1187.4756585535274 L 253.49708452387316 1113.920763239492 L 183.54222203005196 1091.191050567985" stroke-miterlimit="10"/><path fill="none" stroke="#0099ff" paint-order="fill stroke markers" d=" M 366.68642971720107 1077.1433155824743 L 296.7315672233799 1054.4136029109673" stroke-miterlimit="10"/><path fill="none" stroke="#0099ff" paint-order="fill stroke markers" d=" M 602.3863382101157 1149.9915714775639 L 543.6527827319862 1130.9078824729315 L 543.6527827319862 1069.1517675924765 L 579.9521162975979 1119.1135140373365 L 521.2185608194684 1100.0298250327041 L 579.9521162975979 1080.9461360280716 L 543.6527827319862 1130.907882472932" stroke-miterlimit="10"/><path fill="none" stroke="#0099ff" paint-order="fill stroke markers" d=" M 543.6527827319862 1069.1517675924765 L 602.3863382101157 1050.0680785878442" stroke-miterlimit="10"/><path fill="none" stroke="#0099ff" paint-order="fill stroke markers" d=" M 733.7185608194684 1069.1517675924763 L 674.9850053413389 1149.9915714775643 L 733.7185608194684 1230.8313753626524 L 733.7185608194684 1130.9078824729318 L 828.7514498632094 1100.029825032704 L 733.7185608194684 1069.1517675924763 L 733.7185608194684 969.2282747027558 L 674.9850053413389 1050.068078587844 L 579.9521162975979 1019.1900211476161 L 638.6856717757273 1100.0298250327044 L 579.9521162975979 1180.8696289177922 L 674.9850053413389 1149.991571477564 L 674.9850053413389 1050.068078587844 L 733.7185608194684 1130.9078824729322 L 638.6856717757273 1100.0298250327041 L 733.7185608194684 1069.1517675924763" stroke-miterlimit="10"/><path fill="none" stroke="#0099ff" paint-order="fill stroke markers" d=" M 770.01789438508 981.0226431383511 L 733.7185608194684 1030.9843895832114 L 770.01789438508 1080.9461360280716 L 697.4192272538568 1180.8696289177922 L 638.6856717757273 1161.7859399131598 L 638.6856717757273 1038.2737101522484 L 697.4192272538568 1019.1900211476159 L 770.01789438508 1119.1135140373362 L 733.7185608194684 1169.0752604821967 L 616.2514498632095 1130.907882472932 L 616.2514498632095 1069.1517675924763 L 733.7185608194684 1030.9843895832114" stroke-miterlimit="10"/><path fill="none" stroke="#0099ff" paint-order="fill stroke markers" d=" M 711.2843389069506 1199.9533179224243 L 674.9850053413389 1249.9150643672845 L 616.2514498632095 1230.8313753626521 L 674.9850053413389 1211.74768635802 L 638.6856717757273 1261.7094328028802 L 828.7514498632094 1199.9533179224245 L 770.01789438508 1180.8696289177922 L 828.7514498632094 1161.7859399131598 L 792.4521162975979 1211.74768635802 L 733.7185608194684 1192.6639973533875" stroke-miterlimit="10"/><path fill="none" stroke="#0099ff" paint-order="fill stroke markers" d=" M 792.4521162975979 1211.74768635802 L 792.4521162975979 1149.9915714775643 L 828.7514498632094 1199.9533179224245 L 828.7514498632094 1000.1063321429834 L 792.4521162975979 1050.0680785878437 L 792.4521162975979 988.311963707388 L 828.7514498632094 1038.2737101522484 L 770.01789438508 1019.1900211476159 L 828.7514498632094 1000.1063321429834 L 638.6856717757273 938.3502172625278 L 674.9850053413389 988.311963707388 L 616.2514498632095 969.2282747027557 L 674.9850053413389 950.1445856981236 L 638.6856717757273 1000.1063321429835 L 638.6856717757273 938.3502172625278 L 521.2185608194684 1100.0298250327041 L 638.6856717757273 1261.7094328028802 L 638.6856717757273 1199.9533179224245 L 674.9850053413389 1249.9150643672847" stroke-miterlimit="10"/><path fill="none" stroke="#0099ff" paint-order="fill stroke markers" d=" M 828.7514498632094 1138.1972030419688 L 770.01789438508 1119.1135140373367" stroke-miterlimit="10"/><path fill="none" stroke="#0099ff" paint-order="fill stroke markers" d=" M 733.7185608194684 1169.0752604821967 L 770.01789438508 1219.037006927057" stroke-miterlimit="10"/><path fill="none" stroke="#0099ff" paint-order="fill stroke markers" d=" M 616.2514498632095 1030.9843895832116 L 616.2514498632095 969.228274702756" stroke-miterlimit="10"/><path fill="none" stroke="#0099ff" paint-order="fill stroke markers" d=" M 674.9850053413389 950.1445856981236 L 711.2843389069506 1000.1063321429838" stroke-miterlimit="10"/><path fill="none" stroke="#0099ff" paint-order="fill stroke markers" d=" M 697.4192272538568 1242.6257437982479 L 697.4192272538568 1180.8696289177922" stroke-miterlimit="10"/><path fill="none" stroke="#0099ff" paint-order="fill stroke markers" d=" M 638.6856717757273 1161.7859399131598 L 602.3863382101157 1211.74768635802" stroke-miterlimit="10"/><path fill="none" stroke="#0099ff" paint-order="fill stroke markers" d=" M 733.7185608194684 1007.3956527120206 L 792.4521162975979 988.3119637073884" stroke-miterlimit="10"/><path fill="none" stroke="#0099ff" paint-order="fill stroke markers" d=" M 828.7514498632094 1038.2737101522484 L 792.4521162975979 1088.2354565971086" stroke-miterlimit="10"/><path fill="none" stroke="#0099ff" paint-order="fill stroke markers" d=" M 557.51789438508 1149.9915714775643 L 616.2514498632095 1130.907882472932" stroke-miterlimit="10"/><path fill="none" stroke="#0099ff" paint-order="fill stroke markers" d=" M 616.2514498632095 1069.1517675924763 L 557.51789438508 1050.0680785878437" stroke-miterlimit="10"/><path fill="none" stroke="#0099ff" paint-order="fill stroke markers" d=" M 792.4521162975979 1111.8241934682994 L 828.7514498632094 1161.7859399131596" stroke-miterlimit="10"/><path fill="none" stroke="#0099ff" paint-order="fill stroke markers" d=" M 602.3863382101157 988.311963707388 L 638.6856717757273 1038.2737101522482" stroke-miterlimit="10"/><path fill="none" stroke="#0099ff" paint-order="fill stroke markers" d=" M 697.4192272538568 1019.1900211476159 L 697.4192272538568 957.4339062671603" stroke-miterlimit="10"/><path fill="none" stroke="#0099ff" paint-order="fill stroke markers" d=" M 616.2514498632095 1230.8313753626521 L 616.2514498632095 1169.0752604821964" stroke-miterlimit="10"/><path fill="none" stroke="#0099ff" paint-order="fill stroke markers" d=" M 770.01789438508 1080.9461360280716 L 828.7514498632094 1061.862447023439" stroke-miterlimit="10"/><path fill="none" stroke="#0099ff" paint-order="fill stroke markers" d=" M 1203.3193311014695 1191.679538369518 L 1162.1620380736342 1178.3067232211451 L 1162.1620380736342 1135.0313843504716 L 1121.0047450457992 1121.6585692020983 L 1121.0047450457992 1078.383230331425 L 1162.1620380736342 1065.010415183052 L 1162.1620380736342 1021.7350763123782 L 1187.5986440497757 1056.745560896088 L 1228.7559370776107 1043.372745747715 L 1228.7559370776107 1000.0974068770413 L 1187.5986440497757 986.7245917286684 L 1162.1620380736342 1021.7350763123782 L 1203.3193311014695 1008.3622611640053" stroke-miterlimit="10"/><path fill="none" stroke="#0099ff" paint-order="fill stroke markers" d=" M 1213.0352500259169 1021.7350763123782 L 1187.5986440497757 1056.745560896088 L 1146.4413510219404 1043.372745747715 L 1121.0047450457992 1078.3832303314248 L 1079.8474520179639 1065.0104151830521 L 1054.4108460418227 1100.0208997667617 L 1013.2535530139874 1086.6480846183886 L 987.8169470378461 1121.6585692020985 L 946.6596540100109 1108.2857540537254" stroke-miterlimit="10"/><path fill="none" stroke="#0099ff" paint-order="fill stroke markers" d=" M 1054.4108460418227 959.9789614319225 L 1079.8474520179639 994.9894460156323 L 1054.4108460418227 1029.9999305993422 L 1079.8474520179639 1065.010415183052 L 1079.8474520179639 1021.7350763123783 L 1038.6901589901286 1008.3622611640053 L 1079.8474520179639 994.9894460156324 L 1079.8474520179639 951.7141071449586 L 1038.6901589901286 938.3412919965857 L 1013.2535530139874 973.3517765802956 L 1038.6901589901286 1008.3622611640053 L 1038.6901589901286 965.0869222933316" stroke-miterlimit="10"/><path fill="none" stroke="#0099ff" paint-order="fill stroke markers" d=" M 1013.2535530139874 973.3517765802955 L 1079.8474520179639 951.7141071449587" stroke-miterlimit="10"/><path fill="none" stroke="#0099ff" paint-order="fill stroke markers" d=" M 1054.4108460418227 1029.9999305993422 L 1013.2535530139874 1016.6271154509693 L 987.8169470378461 1051.637600034679 L 1013.2535530139874 1086.6480846183888" stroke-miterlimit="10"/><path fill="none" stroke="#0099ff" paint-order="fill stroke markers" d=" M 946.6596540100109 1135.0313843504716 L 946.6596540100109 1065.0104151830517 L 921.2230480338696 1100.0208997667617 L 946.6596540100109 1135.0313843504716 L 987.8169470378461 1121.6585692020983 L 987.8169470378461 1078.3832303314248 L 1013.2535530139874 1113.3937149151348 L 987.8169470378461 1148.4041994988443 L 1013.2535530139874 1183.414684082554 L 1054.4108460418227 1170.0418689341811 L 1079.8474520179639 1205.052353517891 L 1038.6901589901286 1191.679538369518 L 1013.2535530139874 1226.6900229532278 L 1038.6901589901286 1261.7005075369377 L 1079.8474520179639 1248.3276923885646 L 1079.8474520179639 1205.0523535178909 L 1054.4108460418227 1240.0628381016008" stroke-miterlimit="10"/><path fill="none" stroke="#0099ff" paint-order="fill stroke markers" d=" M 946.6596540100109 1091.7560454797979 L 987.8169470378461 1078.3832303314248 L 946.6596540100109 1065.010415183052" stroke-miterlimit="10"/><path fill="none" stroke="#0099ff" paint-order="fill stroke markers" d=" M 1013.2535530139874 1113.3937149151348 L 1054.4108460418227 1100.0208997667617 L 1079.8474520179639 1135.0313843504716 L 1054.4108460418227 1170.0418689341811" stroke-miterlimit="10"/><path fill="none" stroke="#0099ff" paint-order="fill stroke markers" d=" M 1038.6901589901286 1234.9548772401918 L 1038.6901589901286 1191.679538369518 L 1079.8474520179639 1178.3067232211451 L 1079.8474520179639 1135.0313843504714 L 1121.0047450457992 1121.6585692020985 L 1146.4413510219404 1156.6690537858085 L 1187.5986440497757 1143.2962386374354 L 1162.1620380736342 1178.3067232211454 L 1187.5986440497757 1213.317207804855 L 1228.7559370776107 1199.9443926564823 L 1228.7559370776107 1156.6690537858085 L 1187.5986440497757 1143.2962386374354 L 1213.0352500259169 1178.3067232211454" stroke-miterlimit="10"/><path fill="none" stroke="#0099ff" paint-order="fill stroke markers" d=" M 1187.5986440497757 986.7245917286683 L 1228.7559370776107 1043.372745747715" stroke-miterlimit="10"/><path fill="none" stroke="#0099ff" paint-order="fill stroke markers" d=" M 1146.4413510219404 1043.372745747715 L 1146.4413510219404 1000.0974068770413 L 1105.284057994105 986.7245917286683 L 1079.8474520179639 1021.7350763123782" stroke-miterlimit="10"/><path fill="none" stroke="#0099ff" paint-order="fill stroke markers" d=" M 1228.7559370776107 1156.6690537858083 L 1187.5986440497757 1213.3172078048551" stroke-miterlimit="10"/><path fill="none" stroke="#0099ff" paint-order="fill stroke markers" d=" M 1162.1620380736342 1135.0313843504716 L 1203.3193311014695 1121.6585692020985 L 1203.3193311014695 1078.3832303314248 L 1162.1620380736342 1065.010415183052" stroke-miterlimit="10"/><path fill="none" stroke="#0099ff" paint-order="fill stroke markers" d=" M 1079.8474520179639 1248.3276923885646 L 1013.2535530139874 1226.6900229532278" stroke-miterlimit="10"/><path fill="none" stroke="#0099ff" paint-order="fill stroke markers" d=" M 1079.8474520179639 1178.3067232211451 L 1105.284057994105 1213.317207804855 L 1146.4413510219404 1199.944392656482" stroke-miterlimit="10"/><path fill="none" stroke="#0099ff" paint-order="fill stroke markers" d=" M 1146.4413510219404 1199.944392656482 L 1146.4413510219404 1156.6690537858083" stroke-miterlimit="10"/><path fill="none" stroke="#0099ff" paint-order="fill stroke markers" d=" M 385.7033149324401 1521.69675497608 L 385.7033149324401 1478.4214161054063" stroke-miterlimit="10"/><path fill="none" stroke="#0099ff" paint-order="fill stroke markers" d=" M 369.9826278807461 1500.0590855407431 L 344.5460219046049 1535.0695701244529 L 369.9826278807461 1570.0800547081626 L 369.9826278807461 1526.8047158374889 L 328.82533485291094 1513.431900689116 L 303.3887288767697 1548.4423852728257 L 328.82533485291094 1583.4528698565355 L 369.9826278807461 1570.0800547081626 L 328.82533485291094 1556.7072395597897 L 303.3887288767697 1591.7177241434993 L 262.23143584893455 1578.3449089951264 L 236.79482987279331 1613.3553935788361 L 277.9521229006285 1599.9825784304633 L 277.9521229006285 1556.7072395597897 L 236.79482987279331 1543.3344244114166 L 211.35822389665208 1578.3449089951264 L 236.79482987279331 1613.3553935788361 L 236.79482987279331 1570.0800547081626 L 195.63753684495813 1556.7072395597895 L 195.63753684495813 1513.4319006891158 L 154.48024381712293 1500.059085540743 L 179.9168497932642 1535.0695701244526 L 221.07414282109937 1521.6967549760798 L 221.07414282109937 1478.421416105406 L 179.9168497932642 1465.0486009570332 L 154.48024381712293 1500.059085540743 L 195.63753684495813 1486.68627039237 L 195.63753684495813 1443.4109315216963 L 236.79482987279331 1430.0381163733234 L 236.79482987279331 1386.7627775026494 L 211.35822389665208 1421.7732620863592 L 236.79482987279331 1456.783746670069 L 277.9521229006285 1443.410931521696 L 277.9521229006285 1400.1355926510223 L 236.79482987279331 1386.7627775026494 L 262.23143584893455 1421.7732620863592 L 303.38872887676973 1408.4004469379863 L 328.82533485291094 1443.410931521696 L 328.82533485291094 1373.3899623542766 L 369.9826278807461 1360.0171472059035 L 344.5460219046049 1395.0276317896135 L 395.41923385688733 1465.048600957033 L 436.5765268847225 1451.67578580866 L 411.1399209085813 1486.6862703923698 L 344.5460219046049 1465.0486009570334 L 369.9826278807461 1500.0590855407431" stroke-miterlimit="10"/><path fill="none" stroke="#0099ff" paint-order="fill stroke markers" d=" M 344.5460219046049 1535.0695701244524 L 411.1399209085813 1513.431900689116 L 436.5765268847225 1548.4423852728257 L 395.41923385688733 1535.0695701244529 L 344.5460219046049 1605.0905392918723 L 369.9826278807461 1640.101023875582 L 328.82533485291094 1626.7282087272092 L 328.82533485291094 1556.7072395597897" stroke-miterlimit="10"/><path fill="none" stroke="#0099ff" paint-order="fill stroke markers" d=" M 262.23143584893455 1578.3449089951264 L 303.38872887676973 1634.993063014173 L 277.9521229006285 1670.0035475978827 L 277.9521229006285 1626.728208727209 L 195.63753684495813 1599.9825784304633 L 170.2009308688169 1634.993063014173 L 170.2009308688169 1591.7177241434993 L 236.79482987279331 1570.0800547081626" stroke-miterlimit="10"/><path fill="none" stroke="#0099ff" paint-order="fill stroke markers" d=" M 287.66804182507576 1613.3553935788361 L 328.82533485291094 1599.9825784304633" stroke-miterlimit="10"/><path fill="none" stroke="#0099ff" paint-order="fill stroke markers" d=" M 195.63753684495813 1513.4319006891158 L 154.48024381712293 1570.0800547081624 L 113.32295078928777 1556.7072395597895 L 154.48024381712293 1543.3344244114166 L 154.48024381712293 1456.7837466700691 L 113.32295078928777 1443.4109315216963 L 154.48024381712293 1430.0381163733234 L 195.63753684495813 1486.68627039237" stroke-miterlimit="10"/><path fill="none" stroke="#0099ff" paint-order="fill stroke markers" d=" M 170.2009308688169 1548.4423852728257 L 195.63753684495813 1583.4528698565355" stroke-miterlimit="10"/><path fill="none" stroke="#0099ff" paint-order="fill stroke markers" d=" M 236.79482987279331 1430.0381163733234 L 170.2009308688169 1408.4004469379863 L 170.2009308688169 1365.1251080673128 L 195.63753684495813 1400.1355926510223 L 277.9521229006285 1373.3899623542766 L 277.9521229006285 1330.114623483603 L 303.38872887676973 1365.1251080673128 L 262.23143584893455 1421.7732620863592" stroke-miterlimit="10"/><path fill="none" stroke="#0099ff" paint-order="fill stroke markers" d=" M 195.63753684495813 1416.6653012249503 L 170.2009308688169 1451.6757858086603" stroke-miterlimit="10"/><path fill="none" stroke="#0099ff" paint-order="fill stroke markers" d=" M 328.82533485291094 1400.1355926510223 L 287.66804182507576 1386.7627775026494" stroke-miterlimit="10"/><path fill="none" stroke="#0099ff" paint-order="fill stroke markers" d=" M 328.82533485291094 1443.410931521696 L 369.9826278807461 1430.0381163733232 L 344.5460219046049 1465.048600957033" stroke-miterlimit="10"/><path fill="none" stroke="#0099ff" paint-order="fill stroke markers" d=" M 328.82533485291094 1416.6653012249503 L 303.38872887676973 1451.67578580866 L 328.82533485291094 1486.6862703923698 L 369.9826278807461 1473.313455243997 L 369.9826278807461 1430.0381163733232" stroke-miterlimit="10"/><path fill="none" stroke="#0099ff" paint-order="fill stroke markers" d=" M 369.9826278807461 1430.0381163733232 L 328.82533485291094 1416.6653012249503" stroke-miterlimit="10"/><path fill="none" stroke="#0099ff" paint-order="fill stroke markers" d=" M 807.690588067557 1513.8499779670224 L 722.5719178211583 1486.1932454868133 L 669.9656865316894 1558.5995111377633 L 722.5719178211582 1631.005776788713 L 696.2688021764238 1667.208909614188 L 653.7094670532244 1653.3805433740836 L 653.7094670532244 1608.6310102033426 L 738.8281372996232 1580.974277723134 L 765.1312529443576 1617.1774105486088 L 738.8281372996232 1653.3805433740838 L 738.8281372996232 1608.6310102033428 L 696.2688021764238 1594.8026439632383 L 669.9656865316894 1631.005776788713 L 696.2688021764238 1667.208909614188 L 738.8281372996232 1653.3805433740836 L 696.2688021764238 1639.5521771339793 L 696.2688021764238 1550.0531107924974 L 611.1501319300252 1522.3963783122886 L 558.5439006405563 1594.8026439632383 L 515.984565517357 1580.9742777231338 L 515.984565517357 1536.2247445523928 L 558.5439006405563 1522.3963783122886 L 611.1501319300252 1594.8026439632383 L 584.8470162852907 1631.005776788713 L 542.2876811620914 1617.1774105486088 L 584.8470162852907 1603.3490443085043 L 584.8470162852907 1558.5995111377633 L 542.2876811620914 1544.771144897659 L 515.984565517357 1580.9742777231338 L 542.2876811620914 1617.1774105486088 L 542.2876811620914 1572.4278773778678 L 627.4063514084901 1544.771144897659 L 627.4063514084901 1455.272078556177 L 542.2876811620914 1427.615346075968 L 542.2876811620914 1382.8658129052271 L 584.8470162852907 1369.0374466651228 L 611.1501319300252 1405.2405794905976 L 558.5439006405563 1477.6468451415474 L 515.984565517357 1463.818478901443 L 515.984565517357 1419.0689457307021 L 542.2876811620914 1455.272078556177 L 584.8470162852907 1441.4437123160726 L 584.8470162852907 1396.6941791453314 L 542.2876811620914 1382.8658129052271 L 515.984565517357 1419.0689457307021 L 558.5439006405563 1405.2405794905976 L 611.1501319300252 1477.6468451415474 L 696.2688021764238 1449.9901126613383 L 696.2688021764238 1360.4910463198567 L 738.8281372996232 1346.6626800797521 L 765.1312529443576 1382.865812905227 L 738.8281372996232 1419.068945730702 L 653.7094670532246 1391.412213250493 L 653.7094670532246 1346.6626800797521 L 696.2688021764238 1332.8343138396478 L 669.9656865316894 1369.0374466651228 L 696.2688021764238 1405.2405794905976 L 738.8281372996232 1391.412213250493 L 738.8281372996232 1346.6626800797521 L 696.2688021764238 1332.8343138396478 L 722.5719178211583 1369.0374466651226 L 669.9656865316894 1441.4437123160724 L 722.5719178211582 1513.8499779670224 L 807.690588067557 1486.1932454868133 L 833.9937037122913 1522.396378312288 L 833.9937037122913 1477.6468451415476 L 791.4343685890921 1463.8184789014429 L 765.1312529443576 1500.0216117269179 L 791.434368589092 1536.2247445523928 L 833.9937037122913 1522.3963783122886 L 807.690588067557 1558.5995111377633 L 765.1312529443576 1544.771144897659 L 738.8281372996232 1580.974277723134 L 738.8281372996232 1536.2247445523928 L 696.2688021764238 1522.3963783122886 L 722.5719178211583 1558.599511137763 L 765.1312529443576 1544.7711448976586 L 765.1312529443576 1455.2720785561771 L 807.690588067557 1441.4437123160724 L 833.9937037122913 1477.6468451415471 L 807.690588067557 1513.8499779670224" stroke-miterlimit="10"/><path fill="none" stroke="#0099ff" paint-order="fill stroke markers" d=" M 696.2688021764238 1477.6468451415474 L 738.8281372996232 1463.8184789014429 L 738.8281372996232 1419.068945730702 L 765.1312529443576 1455.2720785561767 L 722.5719178211582 1441.4437123160728 L 696.2688021764238 1477.6468451415476" stroke-miterlimit="10"/><path fill="none" stroke="#0099ff" paint-order="fill stroke markers" d=" M 653.7094670532244 1608.6310102033426 L 611.150131930025 1594.8026439632383 L 653.7094670532246 1580.9742777231338 L 653.7094670532246 1536.2247445523928 L 627.4063514084901 1572.4278773778678 L 653.7094670532244 1608.6310102033428" stroke-miterlimit="10"/><path fill="none" stroke="#0099ff" paint-order="fill stroke markers" d=" M 558.5439006405563 1522.3963783122886 L 558.5439006405563 1477.6468451415474 L 584.8470162852907 1513.8499779670221 L 627.4063514084901 1500.0216117269179 L 584.8470162852907 1486.1932454868136 L 558.5439006405563 1522.3963783122886" stroke-miterlimit="10"/><path fill="none" stroke="#0099ff" paint-order="fill stroke markers" d=" M 611.1501319300252 1405.2405794905976 L 653.7094670532246 1391.412213250493 L 627.4063514084901 1427.6153460759679 L 653.7094670532246 1463.8184789014429 L 653.7094670532246 1419.0689457307021" stroke-miterlimit="10"/><path fill="none" stroke="#0099ff" paint-order="fill stroke markers" d=" M 653.7094670532246 1419.0689457307021 L 611.1501319300252 1405.2405794905976" stroke-miterlimit="10"/><path fill="none" stroke="#0099ff" paint-order="fill stroke markers" d=" M 955.1748726016541 1408.878120757 L 1128.5629564538008 1647.5263445962346 L 1128.5629564538008 1352.5409172213547 L 955.1748726016541 1591.1891410605892 L 1235.722685518644 1500.0336309087947 L 955.1748726016541 1408.878120757" stroke-miterlimit="10"/><path fill="none" stroke="#0099ff" paint-order="fill stroke markers" d=" M 1194.7913112411038 1513.333040605448 L 1235.722685518644 1569.6702441410932 L 1235.722685518644 1430.397017676496 L 1169.494330731341 1408.8781207570003 L 1128.5629564538008 1465.2153242926454 L 1194.7913112411038 1443.6964273731498 L 1194.7913112411038 1374.059814140851 L 1062.3346016664975 1331.022020301859 L 1103.2659759440378 1387.359223837504" stroke-miterlimit="10"/><path fill="none" stroke="#0099ff" paint-order="fill stroke markers" d=" M 1128.5629564538008 1395.5787110603462 L 1194.7913112411038 1374.0598141408504 L 1235.722685518644 1430.397017676496 L 1194.7913112411038 1486.734221212141" stroke-miterlimit="10"/><path fill="none" stroke="#0099ff" paint-order="fill stroke markers" d=" M 1087.6315821762605 1408.878120757 L 1169.494330731341 1521.5525278282905" stroke-miterlimit="10"/><path fill="none" stroke="#0099ff" paint-order="fill stroke markers" d=" M 980.4718531114171 1556.3708344444397 L 914.243498324114 1534.851937524944 L 996.1062468791944 1647.5263445962344 L 1062.3346016664975 1626.0074476767388 L 1062.3346016664975 1556.3708344444399 L 1021.4032273889572 1612.708037980085 L 1062.3346016664975 1669.0452415157304 L 996.1062468791943 1647.5263445962346 L 996.1062468791944 1577.8897313639357" stroke-miterlimit="10"/><path fill="none" stroke="#0099ff" paint-order="fill stroke markers" d=" M 1103.2659759440378 1612.708037980085 L 1062.3346016664975 1669.0452415157304 L 1194.7913112411038 1626.0074476767388 L 1194.7913112411038 1556.3708344444399 L 1128.5629564538008 1534.851937524944 L 1169.494330731341 1591.1891410605895 L 1235.722685518644 1569.6702441410935 L 1194.7913112411038 1626.0074476767388 L 1128.5629564538008 1604.488550757243" stroke-miterlimit="10"/><path fill="none" stroke="#0099ff" paint-order="fill stroke markers" d=" M 1128.5629564538008 1577.8897313639357 L 996.1062468791944 1534.851937524944" stroke-miterlimit="10"/><path fill="none" stroke="#0099ff" paint-order="fill stroke markers" d=" M 1169.494330731341 1478.5147339892987 L 1087.6315821762605 1591.1891410605895" stroke-miterlimit="10"/><path fill="none" stroke="#0099ff" paint-order="fill stroke markers" d=" M 996.1062468791944 1422.1775304536538 L 996.1062468791944 1352.540917221355 L 914.243498324114 1465.215324292645 L 955.1748726016541 1521.5525278282903 L 1021.4032273889572 1500.0336309087947 L 955.1748726016541 1478.514733989299 L 914.243498324114 1534.851937524944 L 914.243498324114 1465.2153242926452 L 980.4718531114171 1443.6964273731494" stroke-miterlimit="10"/><path fill="none" stroke="#0099ff" paint-order="fill stroke markers" d=" M 1021.4032273889572 1569.6702441410935 L 1021.4032273889572 1430.3970176764956" stroke-miterlimit="10"/><path fill="none" stroke="#0099ff" paint-order="fill stroke markers" d=" M 996.1062468791944 1352.540917221355 L 1062.3346016664975 1331.0220203018594 L 1021.4032273889572 1387.3592238375043 L 1062.3346016664975 1443.6964273731494 L 1062.3346016664975 1374.0598141408504 L 996.1062468791944 1352.540917221355" stroke-miterlimit="10"/><path fill="none" stroke="#0099ff" paint-order="fill stroke markers" d=" M 996.1062468791944 1465.2153242926452 L 1128.5629564538008 1422.1775304536536" stroke-miterlimit="10"/></g></svg>