<svg version="1.1" xmlns="http://www.w3.org/2000/svg" xmlns:xlink="http://www.w3.org/1999/xlink" width="900" height="1600"><defs/><g><path fill="#222222" stroke="#cccccc" paint-order="fill stroke markers" d=" M 520.2171 195.7759 L 520.2171 231.69696 L 543.32565 245.03869 L 574.4342 227.07816 L 613.54275 249.65749 L 613.54275 285.57855 L 644.65131 303.53908 L 644.65131 348.69774 L 605.54275 371.27707 L 574.4342 353.31654 L 551.32565 366.65827 L 551.32565 393.34173 L 574.4342 406.68346 L 605.54275 388.72293 L 644.65131 411.30226 L 644.65131 456.46092 L 613.54275 474.42145 L 613.54275 510.34251 L 574.4342 532.92184 L 543.32565 514.96131 L 520.2171 528.30304 L 520.2171 564.2241 L 481.10855 586.80343 L 450 568.8429 L 418.89145 586.80343 L 379.7829 564.2241 L 379.7829 519.06544 L 410.89145 501.10491 L 410.89145 474.42145 L 387.7829 461.07972 L 364.67435 474.42145 L 364.67435 510.34251 L 325.5658 532.92184 L 286.45725 510.34251 L 286.45725 474.42145 L 255.34869 456.46092 L 255.34869 411.30226 L 286.45725 393.34173 L 286.45725 366.65827 L 255.34869 348.69774 L 255.34869 303.53908 L 286.45725 285.57855 L 286.45725 249.65749 L 325.5658 227.07816 L 364.67435 249.65749 L 364.67435 285.57855 L 387.7829 298.92028 L 410.89145 285.57855 L 410.89145 258.89509 L 379.7829 240.93456 L 379.7829 195.7759 L 418.89145 173.19657 L 450 191.1571 L 481.10855 173.19657 Z M 395.7829 528.30304 L 395.7829 554.9865 L 418.89145 568.32823 L 442 554.9865 L 442 528.30304 L 418.89145 514.96131 Z M 512.2171 425.15866 L 481.10855 407.19813 L 458 420.53986 L 458 456.46092 L 426.89145 474.42145 L 426.89145 501.10491 L 458 519.06544 L 458 554.9865 L 481.10855 568.32823 L 504.2171 554.9865 L 504.2171 519.06544 L 543.32565 496.48611 L 574.4342 514.44664 L 597.54275 501.10491 L 597.54275 474.42145 L 566.4342 456.46092 L 566.4342 420.53986 L 543.32565 407.19813 Z M 302.45725 474.42145 L 302.45725 501.10491 L 325.5658 514.44664 L 348.67435 501.10491 L 348.67435 474.42145 L 325.5658 461.07972 Z M 325.5658 317.39548 L 294.45725 299.43495 L 271.34869 312.77668 L 271.34869 339.46014 L 302.45725 357.42067 L 302.45725 402.57933 L 271.34869 420.53986 L 271.34869 447.22332 L 294.45725 460.56505 L 321.5658 444.91392 L 322.14488 444.6701 L 322.6988 444.3735 L 323.06135 444.28422 L 323.40547 444.13933 L 324.02688 444.04646 L 324.63699 443.89622 L 325.01039 443.89948 L 325.37964 443.84429 L 326.00464 443.90814 L 326.63301 443.91362 L 326.99399 444.00922 L 327.36539 444.04716 L 327.95514 444.26375 L 328.56258 444.42462 L 329.07912 444.67655 L 329.23911 444.73531 L 329.3357 444.80169 L 329.5658 444.91392 L 356.67435 460.56505 L 379.7829 447.22332 L 379.7829 411.30226 L 410.89145 393.34173 L 410.89145 366.65827 L 383.7829 351.00714 L 383.28221 350.62755 L 382.74838 350.29614 L 382.48978 350.0268 L 382.19225 349.80123 L 381.80113 349.30953 L 381.36595 348.85626 L 381.18207 348.53126 L 380.94966 348.23908 L 380.69244 347.66585 L 380.38302 347.11896 L 380.28533 346.75859 L 380.13247 346.41793 L 380.02515 345.7988 L 379.86077 345.1924 L 379.82068 344.61918 L 379.79156 344.45117 L 379.80076 344.33429 L 379.7829 344.07894 L 379.7829 312.77668 L 356.67435 299.43495 Z M 395.7829 312.77668 L 395.7829 339.46014 L 426.89145 357.42067 L 426.89145 402.57933 L 395.7829 420.53986 L 395.7829 447.22332 L 418.89145 460.56505 L 442 447.22332 L 442 411.30226 L 481.10855 388.72293 L 512.2171 406.68346 L 535.32565 393.34173 L 535.32565 366.65827 L 512.2171 353.31654 L 481.10855 371.27707 L 442 348.69774 L 442 312.77668 L 418.89145 299.43495 Z M 582.4342 420.53986 L 582.4342 447.22332 L 605.54275 460.56505 L 628.65131 447.22332 L 628.65131 420.53986 L 605.54275 407.19813 Z M 458 205.0135 L 458 240.93456 L 426.89145 258.89509 L 426.89145 285.57855 L 458 303.53908 L 458 339.46014 L 481.10855 352.80187 L 512.2171 334.84134 L 543.32565 352.80187 L 566.4342 339.46014 L 566.4342 303.53908 L 597.54275 285.57855 L 597.54275 258.89509 L 574.4342 245.55336 L 543.32565 263.51389 L 504.2171 240.93456 L 504.2171 205.0135 L 481.10855 191.67177 Z M 582.4342 312.77668 L 582.4342 339.46014 L 605.54275 352.80187 L 628.65131 339.46014 L 628.65131 312.77668 L 605.54275 299.43495 Z M 302.45725 258.89509 L 302.45725 285.57855 L 325.5658 298.92028 L 348.67435 285.57855 L 348.67435 258.89509 L 325.5658 245.55336 Z M 395.7829 205.0135 L 395.7829 231.69696 L 418.89145 245.03869 L 442 231.69696 L 442 205.0135 L 418.89145 191.67177 Z" stroke-miterlimit="10"/><path fill="#222222" stroke="#cccccc" paint-order="fill stroke markers" d=" M 516.2171 198.0853 L 516.2171 234.00636 L 543.32565 249.65749 L 574.4342 231.69696 L 609.54275 251.96689 L 609.54275 287.88795 L 640.65131 305.84848 L 640.65131 346.38834 L 605.54275 366.65827 L 574.4342 348.69774 L 547.32565 364.34887 L 547.32565 395.65113 L 574.4342 411.30226 L 605.54275 393.34173 L 640.65131 413.61166 L 640.65131 454.15152 L 609.54275 472.11205 L 609.54275 508.03311 L 574.4342 528.30304 L 543.32565 510.34251 L 516.2171 525.99364 L 516.2171 561.9147 L 481.10855 582.18463 L 450 564.2241 L 418.89145 582.18463 L 383.7829 561.9147 L 383.7829 521.37484 L 414.89145 503.41431 L 414.89145 472.11205 L 387.7829 456.46092 L 360.67435 472.11205 L 360.67435 508.03311 L 325.5658 528.30304 L 290.45725 508.03311 L 290.45725 472.11205 L 259.34869 454.15152 L 259.34869 413.61166 L 290.45725 395.65113 L 290.45725 364.34887 L 259.34869 346.38834 L 259.34869 305.84848 L 290.45725 287.88795 L 290.45725 251.96689 L 325.5658 231.69696 L 360.67435 251.96689 L 360.67435 287.88795 L 387.7829 303.53908 L 414.89145 287.88795 L 414.89145 256.58569 L 383.7829 238.62516 L 383.7829 198.0853 L 418.89145 177.81537 L 450 195.7759 L 481.10855 177.81537 Z M 391.7829 525.99364 L 391.7829 557.2959 L 418.89145 572.94703 L 446 557.2959 L 446 525.99364 L 418.89145 510.34251 Z M 512.2171 420.53986 L 481.10855 402.57933 L 454 418.23046 L 454 454.15152 L 422.89145 472.11205 L 422.89145 503.41431 L 454 521.37484 L 454 557.2959 L 481.10855 572.94703 L 508.2171 557.2959 L 508.2171 521.37484 L 543.32565 501.10491 L 574.4342 519.06544 L 601.54275 503.41431 L 601.54275 472.11205 L 570.4342 454.15152 L 570.4342 418.23046 L 543.32565 402.57933 Z M 298.45725 472.11205 L 298.45725 503.41431 L 325.5658 519.06544 L 352.67435 503.41431 L 352.67435 472.11205 L 325.5658 456.46092 Z M 325.5658 312.77668 L 294.45725 294.81615 L 267.34869 310.46728 L 267.34869 341.76954 L 298.45725 359.73007 L 298.45725 400.26993 L 267.34869 418.23046 L 267.34869 449.53272 L 294.45725 465.18385 L 323.5658 448.37802 L 323.6224 448.35758 L 323.66954 448.32016 L 324.2833 448.11888 L 324.89071 447.8995 L 324.95089 447.89995 L 325.00808 447.88119 L 325.65365 447.90517 L 326.29935 447.90996 L 326.35563 447.93124 L 326.41579 447.93347 L 327.5658 448.37802 L 356.67435 465.18385 L 383.7829 449.53272 L 383.7829 413.61166 L 414.89145 395.65113 L 414.89145 364.34887 L 385.7829 347.54304 L 385.7369 347.50425 L 385.68092 347.48213 L 385.1997 347.05121 L 384.70603 346.63489 L 384.67633 346.58255 L 384.6315 346.54241 L 384.32961 345.97158 L 384.01077 345.40975 L 384.00105 345.35034 L 383.97292 345.29715 L 383.7829 344.07894 L 383.7829 310.46728 L 356.67435 294.81615 Z M 391.7829 310.46728 L 391.7829 341.76954 L 422.89145 359.73007 L 422.89145 400.26993 L 391.7829 418.23046 L 391.7829 449.53272 L 418.89145 465.18385 L 446 449.53272 L 446 413.61166 L 481.10855 393.34173 L 512.2171 411.30226 L 539.32565 395.65113 L 539.32565 364.34887 L 512.2171 348.69774 L 481.10855 366.65827 L 446 346.38834 L 446 310.46728 L 418.89145 294.81615 Z M 578.4342 418.23046 L 578.4342 449.53272 L 605.54275 465.18385 L 632.65131 449.53272 L 632.65131 418.23046 L 605.54275 402.57933 Z M 454 202.7041 L 454 238.62516 L 422.89145 256.58569 L 422.89145 287.88795 L 454 305.84848 L 454 341.76954 L 481.10855 357.42067 L 512.2171 339.46014 L 543.32565 357.42067 L 570.4342 341.76954 L 570.4342 305.84848 L 601.54275 287.88795 L 601.54275 256.58569 L 574.4342 240.93456 L 543.32565 258.89509 L 508.2171 238.62516 L 508.2171 202.7041 L 481.10855 187.05297 Z M 578.4342 310.46728 L 578.4342 341.76954 L 605.54275 357.42067 L 632.65131 341.76954 L 632.65131 310.46728 L 605.54275 294.81615 Z M 298.45725 256.58569 L 298.45725 287.88795 L 325.5658 303.53908 L 352.67435 287.88795 L 352.67435 256.58569 L 325.5658 240.93456 Z M 391.7829 202.7041 L 391.7829 234.00636 L 418.89145 249.65749 L 446 234.00636 L 446 202.7041 L 418.89145 187.05297 Z" stroke-miterlimit="10"/><path fill="none" stroke="0xFFFFFF" paint-order="fill stroke markers" d=" M 387.7828983161744 344.0789395946449 L 387.7828983161744 308.15787918928993 L 418.89144915808714 290.1973489866125 L 449.9999999999999 308.15787918929004 L 449.99999999999994 344.07893959464496 L 481.1085508419127 362.0394697973224 L 512.2171016838254 344.0789395946449 L 543.3256525257381 362.0394697973224 L 543.3256525257381 397.96053020267743 L 512.2171016838254 415.921060405355 L 481.1085508419126 397.9605302026775 L 449.99999999999994 415.921060405355 L 449.99999999999994 451.8421208107099 L 418.8914491580872 469.8026510133874 L 387.7828983161744 451.8421208107099 L 387.78289831617445 415.9210604053551 L 418.8914491580872 397.96053020267755 L 418.89144915808714 362.0394697973224 L 387.7828983161744 344.0789395946449" stroke-miterlimit="10"/><path fill="none" stroke="0xFFFFFF" paint-order="fill stroke markers" d=" M 387.7828983161744 308.15787918928993 L 356.67434747426165 290.1973489866125 L 325.5657966323489 308.15787918928993 L 294.45724579043616 290.1973489866125 L 294.45724579043616 254.27628858125752 L 325.5657966323489 236.31575837858003 L 356.67434747426165 254.27628858125752 L 356.67434747426165 290.1973489866125" stroke-miterlimit="10"/><path fill="none" stroke="0xFFFFFF" paint-order="fill stroke markers" d=" M 418.89144915808714 290.1973489866125 L 418.89144915808714 254.27628858125752 L 387.78289831617434 236.31575837858009 L 387.78289831617434 200.39469797322514 L 418.8914491580871 182.43416777054765 L 449.9999999999998 200.3946979732251 L 481.1085508419127 182.43416777054762 L 512.2171016838254 200.3946979732251 L 512.2171016838254 236.31575837858003 L 543.3256525257381 254.27628858125752 L 574.4342033676509 236.31575837858003 L 605.5427542095636 254.27628858125752 L 605.5427542095636 290.1973489866125 L 636.6513050514765 308.1578791892899 L 636.6513050514765 344.07893959464485 L 605.5427542095637 362.0394697973224 L 574.434203367651 344.0789395946449 L 543.3256525257381 362.03946979732245" stroke-miterlimit="10"/><path fill="none" stroke="0xFFFFFF" paint-order="fill stroke markers" d=" M 418.89144915808714 254.27628858125752 L 449.9999999999999 236.31575837858003 L 449.99999999999994 200.3946979732251" stroke-miterlimit="10"/><path fill="none" stroke="0xFFFFFF" paint-order="fill stroke markers" d=" M 605.5427542095636 290.1973489866125 L 574.4342033676509 308.15787918928993 L 574.4342033676509 344.0789395946449" stroke-miterlimit="10"/><path fill="none" stroke="0xFFFFFF" paint-order="fill stroke markers" d=" M 543.3256525257381 397.96053020267743 L 574.4342033676509 415.92106040535486 L 605.5427542095636 397.96053020267743 L 636.6513050514764 415.92106040535486 L 636.6513050514764 451.84212081070984 L 605.5427542095636 469.80265101338733 L 605.5427542095638 505.7237114187422 L 574.4342033676511 523.6842416214198 L 543.3256525257384 505.72371141874225 L 512.2171016838256 523.6842416214198 L 512.2171016838256 559.6053020267748 L 481.1085508419129 577.5658322294523 L 450.0000000000001 559.6053020267748 L 418.8914491580872 577.5658322294523 L 387.78289831617445 559.6053020267748 L 387.7828983161744 523.6842416214198 L 418.89144915808714 505.72371141874237 L 449.9999999999999 523.6842416214198 L 449.99999999999994 559.6053020267748" stroke-miterlimit="10"/><path fill="none" stroke="0xFFFFFF" paint-order="fill stroke markers" d=" M 605.5427542095636 469.80265101338733 L 574.4342033676509 451.84212081070984 L 574.4342033676509 415.92106040535486" stroke-miterlimit="10"/><path fill="none" stroke="0xFFFFFF" paint-order="fill stroke markers" d=" M 418.8914491580872 469.8026510133874 L 418.8914491580872 505.72371141874237" stroke-miterlimit="10"/><path fill="none" stroke="0xFFFFFF" paint-order="fill stroke markers" d=" M 387.7828983161744 451.8421208107099 L 356.67434747426165 469.8026510133874 L 356.6743474742618 505.7237114187425 L 325.5657966323492 523.68424162142 L 294.45724579043633 505.7237114187426 L 294.45724579043633 469.8026510133877 L 263.3486949485234 451.8421208107099 L 263.3486949485234 415.921060405355 L 294.45724579043616 397.9605302026775 L 294.45724579043616 362.0394697973225 L 263.3486949485234 344.078939594645 L 263.3486949485234 308.1578791892901 L 294.45724579043616 290.1973489866126" stroke-miterlimit="10"/><path fill="none" stroke="0xFFFFFF" paint-order="fill stroke markers" d=" M 356.67434747426165 469.8026510133874 L 325.5657966323489 451.8421208107099" stroke-miterlimit="10"/><path fill="none" stroke="0xFFFFFF" paint-order="fill stroke markers" d=" M 325.5657966323489 451.8421208107099 L 294.45724579043616 469.8026510133874" stroke-miterlimit="10"/><path fill="#222222" stroke="#cccccc" paint-order="fill stroke markers" d=" M 600.3737 630.98221 L 600.3737 663.86201 L 628.84844 680.30191 L 628.84844 722.41931 L 600.3737 738.85921 L 600.3737 771.739 L 571.89896 788.1789 L 571.89896 811.8211 L 600.3737 828.261 L 600.3737 861.14079 L 628.84844 877.58069 L 628.84844 919.69809 L 600.3737 936.13799 L 600.3737 969.01779 L 563.89896 990.07649 L 535.42422 973.63659 L 506.94948 990.07649 L 470.47474 969.01779 L 470.47474 936.13799 L 442 919.69809 L 442 886.81829 L 421.52526 874.99719 L 393.05052 891.43709 L 364.57578 874.99719 L 336.10104 891.43709 L 299.6263 870.37839 L 299.6263 837.4986 L 271.15156 821.0587 L 271.15156 778.9413 L 299.6263 762.5014 L 299.6263 729.62161 L 336.10104 708.56291 L 364.57578 725.00281 L 393.05052 708.56291 L 421.52526 725.00281 L 442 713.18171 L 442 680.30191 L 470.47474 663.86201 L 470.47474 630.98221 L 506.94948 609.92351 L 535.42422 626.36341 L 563.89896 609.92351 Z M 543.42422 837.4986 L 543.42422 870.37839 L 506.94948 891.43709 L 478.47474 874.99719 L 458 886.81829 L 458 910.46049 L 486.47474 926.90039 L 486.47474 959.78019 L 506.94948 971.60129 L 527.42422 959.78019 L 527.42422 926.90039 L 563.89896 905.84169 L 592.3737 922.28159 L 612.84844 910.46049 L 612.84844 886.81829 L 584.3737 870.37839 L 584.3737 837.4986 L 563.89896 825.6775 Z M 543.42422 936.13799 L 543.42422 959.78019 L 563.89896 971.60129 L 584.3737 959.78019 L 584.3737 936.13799 L 563.89896 924.31689 Z M 364.57578 743.47801 L 336.10104 727.03811 L 315.6263 738.85921 L 315.6263 762.5014 L 344.10104 778.9413 L 344.10104 821.0587 L 315.6263 837.4986 L 315.6263 861.14079 L 336.10104 872.96189 L 364.57578 856.52199 L 393.05052 872.96189 L 413.52526 861.14079 L 413.52526 837.4986 L 385.05052 821.0587 L 385.05052 778.9413 L 413.52526 762.5014 L 413.52526 738.85921 L 393.05052 727.03811 Z M 429.52526 837.4986 L 429.52526 861.14079 L 450 872.96189 L 470.47474 861.14079 L 470.47474 837.4986 L 450 825.6775 Z M 486.47474 837.4986 L 486.47474 861.14079 L 506.94948 872.96189 L 527.42422 861.14079 L 527.42422 837.4986 L 506.94948 825.6775 Z M 287.15156 788.1789 L 287.15156 811.8211 L 307.6263 823.6422 L 328.10104 811.8211 L 328.10104 788.1789 L 307.6263 776.3578 Z M 401.05052 788.1789 L 401.05052 811.8211 L 421.52526 823.6422 L 442 811.8211 L 442 788.1789 L 421.52526 776.3578 Z M 458 788.1789 L 458 811.8211 L 478.47474 823.6422 L 498.94948 811.8211 L 498.94948 788.1789 L 478.47474 776.3578 Z M 514.94948 788.1789 L 514.94948 811.8211 L 535.42422 823.6422 L 555.89896 811.8211 L 555.89896 788.1789 L 535.42422 776.3578 Z M 429.52526 738.85921 L 429.52526 762.5014 L 450 774.3225 L 470.47474 762.5014 L 470.47474 738.85921 L 450 727.03811 Z M 486.47474 738.85921 L 486.47474 762.5014 L 506.94948 774.3225 L 527.42422 762.5014 L 527.42422 738.85921 L 506.94948 727.03811 Z M 486.47474 640.21981 L 486.47474 673.09961 L 458 689.53951 L 458 713.18171 L 478.47474 725.00281 L 506.94948 708.56291 L 543.42422 729.62161 L 543.42422 762.5014 L 563.89896 774.3225 L 584.3737 762.5014 L 584.3737 729.62161 L 612.84844 713.18171 L 612.84844 689.53951 L 592.3737 677.71841 L 563.89896 694.15831 L 527.42422 673.09961 L 527.42422 640.21981 L 506.94948 628.39871 Z M 543.42422 640.21981 L 543.42422 663.86201 L 563.89896 675.68311 L 584.3737 663.86201 L 584.3737 640.21981 L 563.89896 628.39871 Z" stroke-miterlimit="10"/><path fill="#222222" stroke="#cccccc" paint-order="fill stroke markers" d=" M 596.3737 633.29161 L 596.3737 666.17141 L 624.84844 682.61131 L 624.84844 720.10991 L 596.3737 736.54981 L 596.3737 769.4296 L 567.89896 785.8695 L 567.89896 814.1305 L 596.3737 830.5704 L 596.3737 863.45019 L 624.84844 879.89009 L 624.84844 917.38869 L 596.3737 933.82859 L 596.3737 966.70839 L 563.89896 985.45769 L 535.42422 969.01779 L 506.94948 985.45769 L 474.47474 966.70839 L 474.47474 933.82859 L 446 917.38869 L 446 884.50889 L 421.52526 870.37839 L 393.05052 886.81829 L 364.57578 870.37839 L 336.10104 886.81829 L 303.6263 868.06899 L 303.6263 835.1892 L 275.15156 818.7493 L 275.15156 781.2507 L 303.6263 764.8108 L 303.6263 731.93101 L 336.10104 713.18171 L 364.57578 729.62161 L 393.05052 713.18171 L 421.52526 729.62161 L 446 715.49111 L 446 682.61131 L 474.47474 666.17141 L 474.47474 633.29161 L 506.94948 614.54231 L 535.42422 630.98221 L 563.89896 614.54231 Z M 539.42422 835.1892 L 539.42422 868.06899 L 506.94948 886.81829 L 478.47474 870.37839 L 454 884.50889 L 454 912.76989 L 482.47474 929.20979 L 482.47474 962.08959 L 506.94948 976.22009 L 531.42422 962.08959 L 531.42422 929.20979 L 563.89896 910.46049 L 592.3737 926.90039 L 616.84844 912.76989 L 616.84844 884.50889 L 588.3737 868.06899 L 588.3737 835.1892 L 563.89896 821.0587 Z M 539.42422 933.82859 L 539.42422 962.08959 L 563.89896 976.22009 L 588.3737 962.08959 L 588.3737 933.82859 L 563.89896 919.69809 Z M 364.57578 738.85921 L 336.10104 722.41931 L 311.6263 736.54981 L 311.6263 764.8108 L 340.10104 781.2507 L 340.10104 818.7493 L 311.6263 835.1892 L 311.6263 863.45019 L 336.10104 877.58069 L 364.57578 861.14079 L 393.05052 877.58069 L 417.52526 863.45019 L 417.52526 835.1892 L 389.05052 818.7493 L 389.05052 781.2507 L 417.52526 764.8108 L 417.52526 736.54981 L 393.05052 722.41931 Z M 425.52526 835.1892 L 425.52526 863.45019 L 450 877.58069 L 474.47474 863.45019 L 474.47474 835.1892 L 450 821.0587 Z M 482.47474 835.1892 L 482.47474 863.45019 L 506.94948 877.58069 L 531.42422 863.45019 L 531.42422 835.1892 L 506.94948 821.0587 Z M 283.15156 785.8695 L 283.15156 814.1305 L 307.6263 828.261 L 332.10104 814.1305 L 332.10104 785.8695 L 307.6263 771.739 Z M 397.05052 785.8695 L 397.05052 814.1305 L 421.52526 828.261 L 446 814.1305 L 446 785.8695 L 421.52526 771.739 Z M 454 785.8695 L 454 814.1305 L 478.47474 828.261 L 502.94948 814.1305 L 502.94948 785.8695 L 478.47474 771.739 Z M 510.94948 785.8695 L 510.94948 814.1305 L 535.42422 828.261 L 559.89896 814.1305 L 559.89896 785.8695 L 535.42422 771.739 Z M 425.52526 736.54981 L 425.52526 764.8108 L 450 778.9413 L 474.47474 764.8108 L 474.47474 736.54981 L 450 722.41931 Z M 482.47474 736.54981 L 482.47474 764.8108 L 506.94948 778.9413 L 531.42422 764.8108 L 531.42422 736.54981 L 506.94948 722.41931 Z M 482.47474 637.91041 L 482.47474 670.79021 L 454 687.23011 L 454 715.49111 L 478.47474 729.62161 L 506.94948 713.18171 L 539.42422 731.93101 L 539.42422 764.8108 L 563.89896 778.9413 L 588.3737 764.8108 L 588.3737 731.93101 L 616.84844 715.49111 L 616.84844 687.23011 L 592.3737 673.09961 L 563.89896 689.53951 L 531.42422 670.79021 L 531.42422 637.91041 L 506.94948 623.77991 Z M 539.42422 637.91041 L 539.42422 666.17141 L 563.89896 680.30191 L 588.3737 666.17141 L 588.3737 637.91041 L 563.89896 623.77991 Z" stroke-miterlimit="10"/><path fill="none" stroke="0xFFFFFF" paint-order="fill stroke markers" d=" M 592.3736993628746 931.5191898442857 L 592.3736993628747 964.3989873053572 L 563.8989594902998 980.838886035893 L 535.4242196177249 964.3989873053572 L 535.4242196177247 931.5191898442857 L 563.8989594902998 915.0792911137501 L 592.3736993628746 931.5191898442857 L 620.8484392354496 915.07929111375 L 620.8484392354496 882.1994936526785 L 592.3736993628746 865.7595949221427 L 592.3736993628746 832.8797974610713 L 563.8989594902996 816.4398987305357 L 563.8989594902996 783.5601012694643 L 535.4242196177246 767.1202025389285 L 506.9494797451497 783.5601012694643 L 506.9494797451497 816.4398987305357 L 478.4747398725748 832.8797974610715 L 449.9999999999998 816.4398987305357 L 421.5252601274249 832.8797974610716 L 393.05052025484986 816.4398987305358 L 393.05052025484986 783.5601012694643 L 421.5252601274248 767.1202025389285 L 449.9999999999998 783.5601012694643 L 478.47473987257473 767.1202025389285 L 478.4747398725747 734.2404050778571 L 506.9494797451497 717.8005063473214 L 535.4242196177246 734.2404050778571 L 535.4242196177246 767.1202025389285" stroke-miterlimit="10"/><path fill="none" stroke="0xFFFFFF" paint-order="fill stroke markers" d=" M 478.47473987257473 767.1202025389285 L 506.9494797451497 783.5601012694643" stroke-miterlimit="10"/><path fill="none" stroke="0xFFFFFF" paint-order="fill stroke markers" d=" M 506.9494797451497 816.4398987305357 L 535.4242196177246 832.8797974610715 L 535.4242196177246 865.7595949221429 L 506.9494797451497 882.1994936526786 L 478.47473987257473 865.7595949221429 L 478.47473987257473 832.8797974610715" stroke-miterlimit="10"/><path fill="none" stroke="0xFFFFFF" paint-order="fill stroke markers" d=" M 535.4242196177246 832.8797974610715 L 563.8989594902996 816.4398987305357" stroke-miterlimit="10"/><path fill="none" stroke="0xFFFFFF" paint-order="fill stroke markers" d=" M 563.8989594902996 783.5601012694643 L 592.3736993628745 767.1202025389285 L 592.3736993628745 734.2404050778571 L 620.8484392354495 717.8005063473214 L 620.8484392354495 684.9207088862499 L 592.3736993628745 668.4808101557143 L 563.8989594902996 684.9207088862499 L 535.4242196177246 668.4808101557143 L 535.4242196177246 635.6010126946428 L 506.9494797451497 619.161113964107 L 478.47473987257473 635.6010126946428 L 478.47473987257473 668.4808101557143 L 449.9999999999998 684.9207088862499 L 449.9999999999998 717.8005063473214 L 421.5252601274248 734.2404050778571 L 393.0505202548498 717.8005063473214 L 364.5757803822749 734.2404050778571 L 336.10104050969994 717.8005063473215 L 307.626300637125 734.2404050778573 L 307.626300637125 767.1202025389287 L 336.10104050969994 783.5601012694644 L 336.10104050969994 816.4398987305358 L 307.626300637125 832.8797974610716 L 307.626300637125 865.759594922143 L 336.10104050969994 882.1994936526787 L 364.5757803822749 865.759594922143 L 393.0505202548499 882.1994936526786 L 421.5252601274248 865.7595949221429 L 449.99999999999983 882.1994936526786 L 449.9999999999999 915.0792911137502 L 478.47473987257484 931.5191898442857 L 478.4747398725749 964.3989873053572 L 506.94947974514986 980.838886035893 L 535.4242196177247 964.3989873053572" stroke-miterlimit="10"/><path fill="none" stroke="0xFFFFFF" paint-order="fill stroke markers" d=" M 535.4242196177246 635.6010126946428 L 563.8989594902996 619.161113964107 L 592.3736993628745 635.6010126946428 L 592.3736993628745 668.4808101557143" stroke-miterlimit="10"/><path fill="none" stroke="0xFFFFFF" paint-order="fill stroke markers" d=" M 421.5252601274248 734.2404050778571 L 421.5252601274248 767.1202025389285" stroke-miterlimit="10"/><path fill="none" stroke="0xFFFFFF" paint-order="fill stroke markers" d=" M 449.9999999999998 816.4398987305357 L 449.9999999999998 783.5601012694643" stroke-miterlimit="10"/><path fill="none" stroke="0xFFFFFF" paint-order="fill stroke markers" d=" M 478.4747398725747 734.2404050778571 L 449.9999999999997 717.8005063473214" stroke-miterlimit="10"/><path fill="none" stroke="0xFFFFFF" paint-order="fill stroke markers" d=" M 307.626300637125 832.8797974610716 L 279.15156076455 816.4398987305358 L 279.1515607645499 783.5601012694644 L 307.6263006371249 767.1202025389287" stroke-miterlimit="10"/><path fill="none" stroke="0xFFFFFF" paint-order="fill stroke markers" d=" M 449.99999999999983 882.1994936526786 L 478.47473987257473 865.7595949221429" stroke-miterlimit="10"/><path fill="none" stroke="0xFFFFFF" paint-order="fill stroke markers" d=" M 421.5252601274249 832.8797974610716 L 421.52526012742493 865.759594922143" stroke-miterlimit="10"/><path fill="#222222" stroke="#cccccc" paint-order="fill stroke markers" d=" M 390.39604 1050.17139 L 430.13201 1027.22981 L 477.86799 1054.79019 L 477.86799 1100.67333 L 509.60396 1118.99611 L 549.33993 1096.05452 L 597.0759 1123.61491 L 597.0759 1169.49805 L 636.81187 1192.43963 L 636.81187 1247.56037 L 597.0759 1270.50195 L 597.0759 1316.38509 L 549.33993 1343.94548 L 509.60396 1321.00389 L 477.86799 1339.32667 L 477.86799 1385.20981 L 434.13201 1410.46079 L 433.55293 1410.70461 L 432.99901 1411.00121 L 432.63646 1411.09049 L 432.29234 1411.23538 L 431.67093 1411.32825 L 431.06082 1411.47849 L 430.68742 1411.47523 L 430.31817 1411.53042 L 429.69317 1411.46657 L 429.0648 1411.46109 L 428.70382 1411.36549 L 428.33242 1411.32755 L 427.74267 1411.11096 L 427.13523 1410.95009 L 426.61869 1410.69816 L 426.4587 1410.6394 L 426.36211 1410.57302 L 426.13201 1410.46079 L 390.39604 1389.82861 L 350.66007 1412.7702 L 302.9241 1385.20981 L 302.9241 1339.32668 L 263.18813 1316.38509 L 263.18813 1261.26435 L 302.9241 1238.32277 L 302.9241 1201.67723 L 263.18813 1178.73565 L 263.18813 1123.61491 L 302.9241 1100.67333 L 302.9241 1054.79019 L 350.66007 1027.2298 Z M 358.66007 1270.50195 L 358.66007 1316.38509 L 318.9241 1339.32668 L 318.9241 1375.97221 L 350.66007 1394.29499 L 382.39604 1375.97221 L 382.39604 1330.08907 L 422.13201 1307.14749 L 422.13201 1270.50195 L 390.39604 1252.17917 Z M 398.39604 1339.32667 L 398.39604 1375.97221 L 430.13201 1394.29499 L 461.86799 1375.97221 L 461.86799 1339.32667 L 430.13201 1321.00389 Z M 279.18813 1270.50195 L 279.18813 1307.14749 L 310.9241 1325.47027 L 342.66007 1307.14749 L 342.66007 1270.50195 L 310.9241 1252.17917 Z M 438.13201 1270.50195 L 438.13201 1307.14749 L 469.86799 1325.47027 L 501.60396 1307.14749 L 501.60396 1270.50195 L 469.86799 1252.17917 Z M 517.60396 1270.50195 L 517.60396 1307.14749 L 549.33993 1325.47027 L 581.0759 1307.14749 L 581.0759 1270.50195 L 549.33993 1252.17917 Z M 318.9241 1201.67723 L 318.9241 1238.32277 L 350.66007 1256.64555 L 382.39604 1238.32277 L 382.39604 1201.67723 L 350.66007 1183.35445 Z M 398.39604 1201.67723 L 398.39604 1238.32277 L 430.13201 1256.64555 L 461.86799 1238.32277 L 461.86799 1201.67723 L 430.13201 1183.35445 Z M 549.33993 1206.29604 L 509.60396 1183.35445 L 477.86799 1201.67723 L 477.86799 1238.32277 L 509.60396 1256.64555 L 549.33993 1233.70396 L 589.0759 1256.64555 L 620.81187 1238.32277 L 620.81187 1201.67723 L 589.0759 1183.35445 Z M 279.18813 1132.85251 L 279.18813 1169.49805 L 310.9241 1187.82083 L 342.66007 1169.49804 L 342.66007 1132.85251 L 310.9241 1114.52973 Z M 318.9241 1064.02779 L 318.9241 1100.67333 L 358.66007 1123.61491 L 358.66007 1169.49804 L 390.39604 1187.82083 L 422.13201 1169.49805 L 422.13201 1132.85251 L 382.39604 1109.91093 L 382.39604 1064.02779 L 350.66007 1045.70501 Z M 438.13201 1132.85251 L 438.13201 1169.49805 L 469.86799 1187.82083 L 501.60396 1169.49805 L 501.60396 1132.85251 L 469.86799 1114.52973 Z M 517.60396 1132.85251 L 517.60396 1169.49805 L 549.33993 1187.82083 L 581.0759 1169.49805 L 581.0759 1132.85251 L 549.33993 1114.52973 Z M 398.39604 1064.02779 L 398.39604 1100.67333 L 430.13201 1118.99611 L 461.86799 1100.67333 L 461.86799 1064.02779 L 430.13201 1045.70501 Z" stroke-miterlimit="10"/><path fill="#222222" stroke="#cccccc" paint-order="fill stroke markers" d=" M 473.86799 1057.09959 L 473.86799 1102.98273 L 509.60396 1123.61491 L 549.33993 1100.67333 L 593.0759 1125.92431 L 593.0759 1171.80745 L 632.81187 1194.74903 L 632.81187 1245.25097 L 593.0759 1268.19255 L 593.0759 1314.07569 L 549.33993 1339.32667 L 509.60396 1316.38509 L 473.86799 1337.01727 L 473.86799 1382.90041 L 432.13201 1406.99669 L 432.07541 1407.01713 L 432.02827 1407.05455 L 431.41451 1407.25583 L 430.8071 1407.47521 L 430.74692 1407.47476 L 430.68973 1407.49352 L 430.04416 1407.46954 L 429.39846 1407.46475 L 429.34218 1407.44347 L 429.28202 1407.44124 L 428.13201 1406.99669 L 390.39604 1385.20981 L 350.66007 1408.15139 L 306.9241 1382.90041 L 306.9241 1337.01727 L 267.18813 1314.07569 L 267.18813 1263.57375 L 306.9241 1240.63217 L 306.9241 1199.36783 L 267.18813 1176.42625 L 267.18813 1125.92431 L 306.9241 1102.98273 L 306.9241 1057.09959 L 350.66007 1031.84861 L 390.39604 1054.79019 L 430.13201 1031.84861 Z M 354.66007 1268.19255 L 354.66007 1314.07569 L 314.9241 1337.01727 L 314.9241 1378.28161 L 350.66007 1398.91379 L 386.39604 1378.28161 L 386.39604 1332.39847 L 426.13201 1309.45689 L 426.13201 1268.19255 L 390.39604 1247.56037 Z M 394.39604 1337.01727 L 394.39604 1378.28161 L 430.13201 1398.91379 L 465.86799 1378.28161 L 465.86799 1337.01727 L 430.13201 1316.38509 Z M 275.18813 1268.19255 L 275.18813 1309.45689 L 310.9241 1330.08907 L 346.66007 1309.45689 L 346.66007 1268.19255 L 310.9241 1247.56037 Z M 434.13201 1268.19255 L 434.13201 1309.45689 L 469.86799 1330.08907 L 505.60396 1309.45689 L 505.60396 1268.19255 L 469.86799 1247.56037 Z M 513.60396 1268.19255 L 513.60396 1309.45689 L 549.33993 1330.08907 L 585.0759 1309.45689 L 585.0759 1268.19255 L 549.33993 1247.56037 Z M 314.9241 1199.36783 L 314.9241 1240.63217 L 350.66007 1261.26435 L 386.39604 1240.63217 L 386.39604 1199.36783 L 350.66007 1178.73565 Z M 394.39604 1199.36783 L 394.39604 1240.63217 L 430.13201 1261.26435 L 465.86799 1240.63217 L 465.86799 1199.36783 L 430.13201 1178.73565 Z M 549.33993 1201.67723 L 509.60396 1178.73565 L 473.86799 1199.36783 L 473.86799 1240.63217 L 509.60396 1261.26435 L 549.33993 1238.32277 L 589.0759 1261.26435 L 624.81187 1240.63217 L 624.81187 1199.36783 L 589.0759 1178.73565 Z M 275.18813 1130.54311 L 275.18813 1171.80745 L 310.9241 1192.43963 L 346.66007 1171.80745 L 346.66007 1130.54311 L 310.9241 1109.91093 Z M 314.9241 1061.71839 L 314.9241 1102.98273 L 354.66007 1125.92431 L 354.66007 1171.80745 L 390.39604 1192.43963 L 426.13201 1171.80745 L 426.13201 1130.54311 L 386.39604 1107.60153 L 386.39604 1061.71839 L 350.66007 1041.08621 Z M 434.13201 1130.54311 L 434.13201 1171.80745 L 469.86799 1192.43963 L 505.60396 1171.80745 L 505.60396 1130.54311 L 469.86799 1109.91093 Z M 513.60396 1130.54311 L 513.60396 1171.80745 L 549.33993 1192.43963 L 585.0759 1171.80745 L 585.0759 1130.54311 L 549.33993 1109.91093 Z M 394.39604 1061.71839 L 394.39604 1102.98273 L 430.13201 1123.61491 L 465.86799 1102.98273 L 465.86799 1061.71839 L 430.13201 1041.08621 Z" stroke-miterlimit="10"/><path fill="none" stroke="0xFFFFFF" paint-order="fill stroke markers" d=" M 390.3960439320728 1242.9415733870558 L 350.6600732201215 1265.883146774112 L 350.6600732201215 1311.7662935482244 L 310.9241025081702 1334.7078669352804 L 271.1881317962192 1311.7662935482244 L 271.1881317962192 1265.883146774112 L 310.92410250817045 1242.9415733870558 L 310.92410250817034 1197.0584266129435 L 350.66007322012166 1174.1168532258873 L 390.39604393207304 1197.0584266129435 L 390.3960439320728 1242.9415733870558 L 430.13201464402437 1265.883146774112 L 469.86798535597546 1242.9415733870558 L 469.8679853559754 1197.0584266129435 L 430.1320146440241 1174.1168532258873 L 390.3960439320728 1197.0584266129435" stroke-miterlimit="10"/><path fill="none" stroke="0xFFFFFF" paint-order="fill stroke markers" d=" M 430.1320146440241 1174.1168532258873 L 430.1320146440241 1128.233706451775 L 390.396043932073 1105.2921330647189 L 390.396043932073 1059.4089862906064 L 350.6600732201215 1036.4674129035502 L 310.9241025081702 1059.4089862906064 L 310.9241025081702 1105.2921330647189 L 350.66007322012166 1128.233706451775 L 350.66007322012166 1174.1168532258873" stroke-miterlimit="10"/><path fill="none" stroke="0xFFFFFF" paint-order="fill stroke markers" d=" M 430.1320146440241 1128.233706451775 L 469.8679853559754 1105.2921330647189 L 509.6039560679267 1128.233706451775 L 509.60395606792684 1174.1168532258873 L 469.8679853559754 1197.0584266129435" stroke-miterlimit="10"/><path fill="none" stroke="0xFFFFFF" paint-order="fill stroke markers" d=" M 509.6039560679267 1128.233706451775 L 549.3399267798779 1105.2921330647189 L 589.0758974918293 1128.233706451775 L 589.0758974918293 1174.1168532258873 L 549.3399267798779 1197.0584266129435 L 509.6039560679267 1174.1168532258873" stroke-miterlimit="10"/><path fill="none" stroke="0xFFFFFF" paint-order="fill stroke markers" d=" M 310.9241025081702 1334.7078669352804 L 310.9241025081702 1380.5910137093929 L 350.6600732201215 1403.5325870964489 L 390.3960439320728 1380.5910137093929 L 390.39604393207287 1334.7078669352804 L 430.1320146440242 1311.7662935482244 L 430.1320146440242 1265.883146774112" stroke-miterlimit="10"/><path fill="none" stroke="0xFFFFFF" paint-order="fill stroke markers" d=" M 390.396043932073 1059.4089862906064 L 430.13201464402425 1036.4674129035502 L 469.8679853559756 1059.4089862906064 L 469.8679853559756 1105.2921330647189" stroke-miterlimit="10"/><path fill="none" stroke="0xFFFFFF" paint-order="fill stroke markers" d=" M 350.66007322012166 1265.883146774112 L 310.92410250817034 1242.9415733870558" stroke-miterlimit="10"/><path fill="none" stroke="0xFFFFFF" paint-order="fill stroke markers" d=" M 310.92410250817034 1197.0584266129435 L 271.18813179621907 1174.1168532258873 L 271.18813179621907 1128.233706451775 L 310.92410250817034 1105.2921330647189" stroke-miterlimit="10"/><path fill="none" stroke="0xFFFFFF" paint-order="fill stroke markers" d=" M 469.86798535597563 1242.9415733870558 L 509.60395606792696 1265.883146774112 L 509.603956067927 1311.7662935482244 L 469.86798535597575 1334.7078669352804 L 430.13201464402425 1311.7662935482244" stroke-miterlimit="10"/><path fill="none" stroke="0xFFFFFF" paint-order="fill stroke markers" d=" M 509.60395606792696 1265.883146774112 L 549.3399267798783 1242.9415733870558 L 589.0758974918297 1265.883146774112 L 589.0758974918294 1311.7662935482244 L 549.3399267798782 1334.7078669352804 L 509.60395606792684 1311.7662935482244" stroke-miterlimit="10"/><path fill="none" stroke="0xFFFFFF" paint-order="fill stroke markers" d=" M 589.0758974918297 1265.883146774112 L 628.8118682037809 1242.9415733870558 L 628.8118682037807 1197.0584266129435 L 589.0758974918294 1174.1168532258873" stroke-miterlimit="10"/><path fill="none" stroke="0xFFFFFF" paint-order="fill stroke markers" d=" M 469.86798535597575 1334.7078669352804 L 469.8679853559758 1380.5910137093929 L 430.13201464402454 1403.5325870964489" stroke-miterlimit="10"/><path fill="none" stroke="0xFFFFFF" paint-order="fill stroke markers" d=" M 430.13201464402454 1403.5325870964489 L 390.3960439320732 1380.5910137093929" stroke-miterlimit="10"/></g></svg>