<svg version="1.1" xmlns="http://www.w3.org/2000/svg" xmlns:xlink="http://www.w3.org/1999/xlink" width="900" height="900"><defs/><g><path fill="#222222" stroke="#cccccc" paint-order="fill stroke markers" d=" M 352.98699 282.24957 L 355.89115 282.99134 L 358.63195 284.20476 L 361.13339 285.85618 L 363.3261 287.8998 L 365.14929 290.27894 L 366.5524 292.92766 L 367.49652 295.77248 L 368 300 L 368 382 L 382 382 L 382 300 L 382.24957 297.01301 L 382.99134 294.10885 L 384.20476 291.36805 L 385.85618 288.86661 L 387.8998 286.6739 L 390.27894 284.85071 L 392.92766 283.4476 L 395.77248 282.50348 L 398.73453 282.04454 L 401.73167 282.08349 L 404.68079 282.61926 L 407.50012 283.63699 L 410.11147 285.10845 L 412.44244 286.99286 L 414.42838 289.23794 L 416.01423 291.78146 L 417.15601 294.55287 L 417.82206 297.47532 L 418 300 L 418 432 L 482 432 L 482 418 L 450 418 L 447.01301 417.75043 L 444.10885 417.00866 L 441.36805 415.79524 L 438.86661 414.14382 L 436.6739 412.1002 L 434.85071 409.72106 L 433.4476 407.07234 L 432.50348 404.22752 L 432 400 L 432 350 L 432.24957 347.01301 L 432.99134 344.10885 L 434.20476 341.36805 L 435.85618 338.86661 L 437.8998 336.6739 L 440.27894 334.85071 L 442.92766 333.4476 L 445.77248 332.50348 L 448.73453 332.04454 L 451.73167 332.08349 L 454.68079 332.61926 L 457.50012 333.63699 L 460.11147 335.10845 L 462.44244 336.99286 L 464.42838 339.23794 L 466.01423 341.78146 L 467.15601 344.55287 L 467.82206 347.47532 L 468 350 L 468 382 L 500 382 L 502.98699 382.24957 L 505.89115 382.99134 L 508.63195 384.20476 L 511.13339 385.85618 L 513.3261 387.8998 L 515.14929 390.27894 L 516.5524 392.92766 L 517.49652 395.77248 L 518 400 L 518 432 L 532 432 L 532 368 L 500 368 L 497.01301 367.75043 L 494.10885 367.00866 L 491.36805 365.79524 L 488.86661 364.14382 L 486.6739 362.1002 L 484.85071 359.72106 L 483.4476 357.07234 L 482.50348 354.22752 L 482.04454 351.26547 L 482.08349 348.26833 L 482.61926 345.31921 L 483.63699 342.49988 L 485.10845 339.88853 L 486.99286 337.55756 L 489.23794 335.57162 L 491.78146 333.98577 L 494.55287 332.84399 L 497.47532 332.17794 L 500 332 L 532 332 L 532 318 L 450 318 L 447.01301 317.75043 L 444.10885 317.00866 L 441.36805 315.79524 L 438.86661 314.14382 L 436.6739 312.1002 L 434.85071 309.72106 L 433.4476 307.07234 L 432.50348 304.22752 L 432.04454 301.26547 L 432.08349 298.26833 L 432.61926 295.31921 L 433.63699 292.49988 L 435.10845 289.88853 L 436.99286 287.55756 L 439.23794 285.57162 L 441.78146 283.98577 L 444.55287 282.84399 L 447.47532 282.17794 L 450 282 L 600 282 L 602.98699 282.24957 L 605.89115 282.99134 L 608.63195 284.20476 L 611.13339 285.85618 L 613.3261 287.8998 L 615.14929 290.27894 L 616.5524 292.92766 L 617.49652 295.77248 L 617.95546 298.73453 L 617.91651 301.73167 L 617.38074 304.68079 L 616.36301 307.50012 L 614.89155 310.11147 L 613.00714 312.44244 L 610.76206 314.42838 L 608.21854 316.01423 L 605.44713 317.15601 L 602.52468 317.82206 L 600 318 L 568 318 L 568 382 L 582 382 L 582 350 L 582.24957 347.01301 L 582.99134 344.10885 L 584.20476 341.36805 L 585.85618 338.86661 L 587.8998 336.6739 L 590.27894 334.85071 L 592.92766 333.4476 L 595.77248 332.50348 L 598.73453 332.04454 L 601.73167 332.08349 L 604.68079 332.61926 L 607.50012 333.63699 L 610.11147 335.10845 L 612.44244 336.99286 L 614.42838 339.23794 L 616.01423 341.78146 L 617.15601 344.55287 L 617.82206 347.47532 L 618 350 L 618 450 L 617.75043 452.98699 L 617.00866 455.89115 L 615.79524 458.63195 L 614.14382 461.13339 L 612.1002 463.3261 L 609.72106 465.14929 L 607.07234 466.5524 L 604.22752 467.49652 L 601.26547 467.95546 L 598.26833 467.91651 L 595.31921 467.38074 L 592.49988 466.36301 L 589.88853 464.89155 L 587.55756 463.00714 L 585.57162 460.76206 L 583.98577 458.21854 L 582.84399 455.44713 L 582.17794 452.52468 L 582 450 L 582 418 L 568 418 L 568 482 L 600 482 L 602.98699 482.24957 L 605.89115 482.99134 L 608.63195 484.20476 L 611.13339 485.85618 L 613.3261 487.8998 L 615.14929 490.27894 L 616.5524 492.92766 L 617.49652 495.77248 L 618 500 L 618 600 L 617.75043 602.98699 L 617.00866 605.89115 L 615.79524 608.63195 L 614.14382 611.13339 L 612.1002 613.3261 L 609.72106 615.14929 L 607.07234 616.5524 L 604.22752 617.49652 L 601.26547 617.95546 L 598.26833 617.91651 L 595.31921 617.38074 L 592.49988 616.36301 L 589.88853 614.89155 L 587.55756 613.00714 L 585.57162 610.76206 L 583.98577 608.21854 L 582.84399 605.44713 L 582.17794 602.52468 L 582 600 L 582 518 L 568 518 L 568 600 L 567.92778 600.86435 L 567.91651 601.73167 L 567.8032 602.35535 L 567.75043 602.98699 L 567.53578 603.82739 L 567.38074 604.68079 L 567.16554 605.27695 L 567.00866 605.89115 L 566.65748 606.68437 L 566.36301 607.50012 L 566.05187 608.05229 L 565.79524 608.63195 L 565.31734 609.35584 L 564.89155 610.11147 L 564.49305 610.60441 L 564.14382 611.13339 L 563.55246 611.76789 L 563.00714 612.44244 L 562.53233 612.86245 L 562.1002 613.3261 L 561.4118 613.85364 L 560.76206 614.42838 L 560.22416 614.76376 L 559.72106 615.14929 L 558.95459 615.55531 L 558.21854 616.01423 L 557.63246 616.25568 L 557.07234 616.5524 L 556.24908 616.82562 L 555.44713 617.15601 L 554.82917 617.29685 L 554.22752 617.49652 L 553.37028 617.62934 L 552.52468 617.82206 L 551.79413 617.87355 L 551.26547 617.95546 L 550.73058 617.94851 L 550 618 L 500 618 L 497.01301 617.75043 L 494.10885 617.00866 L 491.36805 615.79524 L 488.86661 614.14382 L 486.6739 612.1002 L 484.85071 609.72106 L 483.4476 607.07234 L 482.50348 604.22752 L 482.04454 601.26547 L 482.08349 598.26833 L 482.61926 595.31921 L 483.63699 592.49988 L 485.10845 589.88853 L 486.99286 587.55756 L 489.23794 585.57162 L 491.78146 583.98577 L 494.55287 582.84399 L 497.47532 582.17794 L 500 582 L 532 582 L 532 468 L 418 468 L 418 482 L 500 482 L 502.98699 482.24957 L 505.89115 482.99134 L 508.63195 484.20476 L 511.13339 485.85618 L 513.3261 487.8998 L 515.14929 490.27894 L 516.5524 492.92766 L 517.49652 495.77248 L 517.95546 498.73453 L 517.91651 501.73167 L 517.38074 504.68079 L 516.36301 507.50012 L 514.89155 510.11147 L 513.00714 512.44244 L 510.76206 514.42838 L 508.21854 516.01423 L 505.44713 517.15601 L 502.52468 517.82206 L 500 518 L 418 518 L 418 532 L 500 532 L 502.98699 532.24957 L 505.89115 532.99134 L 508.63195 534.20476 L 511.13339 535.85618 L 513.3261 537.8998 L 515.14929 540.27894 L 516.5524 542.92766 L 517.49652 545.77248 L 517.95546 548.73453 L 517.91651 551.73167 L 517.38074 554.68079 L 516.36301 557.50012 L 514.89155 560.11147 L 513.00714 562.44244 L 510.76206 564.42838 L 508.21854 566.01423 L 505.44713 567.15601 L 502.52468 567.82206 L 500 568 L 468 568 L 468 600 L 467.75043 602.98699 L 467.00866 605.89115 L 465.79524 608.63195 L 464.14382 611.13339 L 462.1002 613.3261 L 459.72106 615.14929 L 457.07234 616.5524 L 454.22752 617.49652 L 451.26547 617.95546 L 448.26833 617.91651 L 445.31921 617.38074 L 442.49988 616.36301 L 439.88853 614.89155 L 437.55756 613.00714 L 435.57162 610.76206 L 433.98577 608.21854 L 432.84399 605.44713 L 432.17794 602.52468 L 432 600 L 432 568 L 368 568 L 368 582 L 400 582 L 402.98699 582.24957 L 405.89115 582.99134 L 408.63195 584.20476 L 411.13339 585.85618 L 413.3261 587.8998 L 415.14929 590.27894 L 416.5524 592.92766 L 417.49652 595.77248 L 417.95546 598.73453 L 417.91651 601.73167 L 417.38074 604.68079 L 416.36301 607.50012 L 414.89155 610.11147 L 413.00714 612.44244 L 410.76206 614.42838 L 408.21854 616.01423 L 405.44713 617.15601 L 402.52468 617.82206 L 400 618 L 350 618 L 347.01301 617.75043 L 344.10885 617.00866 L 341.36805 615.79524 L 338.86661 614.14382 L 336.6739 612.1002 L 334.85071 609.72106 L 333.4476 607.07234 L 332.50348 604.22752 L 332 600 L 332 568 L 318 568 L 318 600 L 317.75043 602.98699 L 317.00866 605.89115 L 315.79524 608.63195 L 314.14382 611.13339 L 312.1002 613.3261 L 309.72106 615.14929 L 307.07234 616.5524 L 304.22752 617.49652 L 301.26547 617.95546 L 298.26833 617.91651 L 295.31921 617.38074 L 292.49988 616.36301 L 289.88853 614.89155 L 287.55756 613.00714 L 285.57162 610.76206 L 283.98577 608.21854 L 282.84399 605.44713 L 282.17794 602.52468 L 282 600 L 282 500 L 282.24957 497.01301 L 282.99134 494.10885 L 284.20476 491.36805 L 285.85618 488.86661 L 287.8998 486.6739 L 290.27894 484.85071 L 292.92766 483.4476 L 295.77248 482.50348 L 300 482 L 350 482 L 352.98699 482.24957 L 355.89115 482.99134 L 358.63195 484.20476 L 361.13339 485.85618 L 363.3261 487.8998 L 365.14929 490.27894 L 366.5524 492.92766 L 367.49652 495.77248 L 367.95546 498.73453 L 367.91651 501.73167 L 367.38074 504.68079 L 366.36301 507.50012 L 364.89155 510.11147 L 363.00714 512.44244 L 360.76206 514.42838 L 358.21854 516.01423 L 355.44713 517.15601 L 352.52468 517.82206 L 350 518 L 318 518 L 318 532 L 382 532 L 382 418 L 368 418 L 368 450 L 367.92778 450.86435 L 367.91651 451.73167 L 367.8032 452.35535 L 367.75043 452.98699 L 367.53578 453.82739 L 367.38074 454.68079 L 367.16554 455.27695 L 367.00866 455.89115 L 366.65748 456.68437 L 366.36301 457.50012 L 366.05187 458.05229 L 365.79524 458.63195 L 365.31734 459.35584 L 364.89155 460.11147 L 364.49305 460.60441 L 364.14382 461.13339 L 363.55246 461.76789 L 363.00714 462.44244 L 362.53233 462.86245 L 362.1002 463.3261 L 361.4118 463.85364 L 360.76206 464.42838 L 360.22416 464.76376 L 359.72106 465.14929 L 358.95459 465.55531 L 358.21854 466.01423 L 357.63246 466.25568 L 357.07234 466.5524 L 356.24908 466.82562 L 355.44713 467.15601 L 354.82917 467.29685 L 354.22752 467.49652 L 353.37028 467.62934 L 352.52468 467.82206 L 351.79413 467.87355 L 351.26547 467.95546 L 350.73058 467.94851 L 350 468 L 300 468 L 297.01301 467.75043 L 294.10885 467.00866 L 291.36805 465.79524 L 288.86661 464.14382 L 286.6739 462.1002 L 284.85071 459.72106 L 283.4476 457.07234 L 282.50348 454.22752 L 282.04454 451.26547 L 282.08349 448.26833 L 282.61926 445.31921 L 283.63699 442.49988 L 285.10845 439.88853 L 286.99286 437.55756 L 289.23794 435.57162 L 291.78146 433.98577 L 294.55287 432.84399 L 297.47532 432.17794 L 300 432 L 332 432 L 332 318 L 318 318 L 318 400 L 317.75043 402.98699 L 317.00866 405.89115 L 315.79524 408.63195 L 314.14382 411.13339 L 312.1002 413.3261 L 309.72106 415.14929 L 307.07234 416.5524 L 304.22752 417.49652 L 301.26547 417.95546 L 298.26833 417.91651 L 295.31921 417.38074 L 292.49988 416.36301 L 289.88853 414.89155 L 287.55756 413.00714 L 285.57162 410.76206 L 283.98577 408.21854 L 282.84399 405.44713 L 282.17794 402.52468 L 282 400 L 282 300 L 282.24957 297.01301 L 282.99134 294.10885 L 284.20476 291.36805 L 285.85618 288.86661 L 287.8998 286.6739 L 290.27894 284.85071 L 292.92766 283.4476 L 295.77248 282.50348 L 300 282 L 350 282 Z" stroke-miterlimit="10"/></g></svg>