<?xml version="1.0" encoding="UTF-8" standalone="no"?>
<svg
   version="1.1"
   width="900"
   height="900"
   id="svg4"
   sodipodi:docname="stamp-2024-02-04T06_26_45.456Z.svg"
   inkscape:version="1.3 (0e150ed, 2023-07-21)"
   xmlns:inkscape="http://www.inkscape.org/namespaces/inkscape"
   xmlns:sodipodi="http://sodipodi.sourceforge.net/DTD/sodipodi-0.dtd"
   xmlns="http://www.w3.org/2000/svg"
   xmlns:svg="http://www.w3.org/2000/svg">
  <sodipodi:namedview
     id="namedview4"
     pagecolor="#505050"
     bordercolor="#eeeeee"
     borderopacity="1"
     inkscape:showpageshadow="0"
     inkscape:pageopacity="0"
     inkscape:pagecheckerboard="0"
     inkscape:deskcolor="#d1d1d1"
     inkscape:zoom="0.89333333"
     inkscape:cx="449.4403"
     inkscape:cy="450"
     inkscape:window-width="1920"
     inkscape:window-height="1044"
     inkscape:window-x="1920"
     inkscape:window-y="0"
     inkscape:window-maximized="1"
     inkscape:current-layer="svg4" />
  <defs
     id="defs1" />
  <path
     fill="#222222"
     stroke="#cccccc"
     paint-order="fill stroke markers"
     d="m 206.96171,41.21171 1.69063,1.33825 15.15176,20.85461 24.51608,7.96576 2.18279,1.72784 0.58114,2.07639 v 24.17123 l 22.98821,7.46932 2.18279,1.72784 0.58114,2.07639 v 24.17124 l 20.22429,6.57126 14.20748,-19.55494 0.82087,-0.54612 0.68494,-0.70915 0.44223,-0.0408 0.36975,-0.246 1.58789,0.0656 0.37227,-0.0343 0.0393,0.0513 0.15489,0.006 22.98822,7.46932 14.20749,-19.55493 0.82087,-0.54612 0.68494,-0.70915 0.44223,-0.0408 0.36975,-0.246 1.58789,0.0656 0.37227,-0.0343 0.0393,0.0513 0.15489,0.006 24.51607,7.96576 24.51607,-7.96576 2.78151,0.11484 1.69063,1.33825 15.9157,21.90608 0.75032,2.68086 -0.75032,2.02142 -15.15177,20.85462 v 25.77773 l -0.96875,2.60989 -1.79518,1.19434 -22.98821,7.46932 v 24.17123 l -0.96875,2.60989 -1.79518,1.19434 -22.98821,7.46932 v 21.26507 l 22.98821,7.46932 2.18279,1.72784 0.58114,2.07639 v 24.17123 l 22.98821,7.46932 2.18279,1.72784 0.58114,2.07639 v 25.77773 l 15.15177,20.85462 0.75032,2.68086 -0.75032,2.02142 -15.9157,21.90608 -2.31779,1.54203 -2.15435,-0.0889 -24.51607,-7.96576 -24.51607,7.96576 -0.34211,-0.0141 -0.29972,0.1655 -1.05882,-0.22159 -1.08086,-0.0446 -0.31185,-0.24685 -0.27332,-0.0572 -0.30965,-0.40427 -0.79581,-0.62993 -14.20749,-19.55493 -22.98822,7.46932 -0.34211,-0.0141 -0.29972,0.1655 -1.05882,-0.22159 -1.08086,-0.0446 -0.31185,-0.24685 -0.27332,-0.0572 -0.30965,-0.40427 -0.79581,-0.62993 -14.20748,-19.55493 -20.22429,6.57126 v 24.17123 l -0.96875,2.60989 -1.79518,1.19434 -22.98821,7.46932 v 24.17123 l -0.96875,2.60989 -1.79518,1.19434 -24.51608,7.96576 -15.15176,20.85461 -2.31779,1.54203 -2.15435,-0.0889 -25.75215,-8.36737 -2.18279,-1.72784 -0.58114,-2.07639 v -25.77773 l -15.15177,-20.85462 -0.18039,-0.64452 -0.40698,-0.53133 0.0439,-0.76606 -0.20682,-0.73895 0.29457,-0.7936 0.0275,-0.48072 0.2451,-0.25376 0.18312,-0.49334 14.2075,-19.55494 -14.2075,-19.55494 -0.18039,-0.64452 -0.40698,-0.53133 0.0439,-0.76606 -0.20682,-0.73895 0.29457,-0.7936 0.0275,-0.48072 0.2451,-0.25376 0.18312,-0.49334 14.2075,-19.55495 -12.49929,-17.20379 -22.98821,7.46932 -0.34211,-0.0141 -0.29972,0.1655 -1.05882,-0.22159 -1.08086,-0.0446 -0.31185,-0.24685 -0.27332,-0.0572 -0.30965,-0.40427 -0.79581,-0.62993 -14.20749,-19.55493 -22.98821,7.46932 -0.34211,-0.0141 -0.29972,0.1655 -1.05882,-0.22159 -1.08086,-0.0446 -0.31185,-0.24685 -0.27332,-0.0572 -0.30965,-0.40427 -0.79581,-0.62993 -15.15176,-20.85461 -24.51609,-7.96576 -2.18279,-1.72784 -0.58114,-2.07639 v -27.07741 l 0.28834,-0.77681 0.04737,-0.82723 0.42177,-0.43667 0.21127,-0.56918 0.94706,-0.63008 0.35393,-0.36644 0.22851,-0.0211 0.26568,-0.17676 24.51609,-7.96576 15.15176,-20.85461 2.31779,-1.54203 2.15435,0.0889 22.98821,7.46932 14.20749,-19.55493 2.31779,-1.54203 2.15435,0.0889 22.98821,7.46932 12.49929,-17.20379 -14.2075,-19.55494 -0.75032,-2.68086 0.75032,-2.02142 14.2075,-19.55495 -14.2075,-19.55494 -0.75032,-2.68086 0.75032,-2.02142 15.15177,-20.85462 V 53.26848 l 0.96875,-2.60989 1.79518,-1.19434 25.75215,-8.36738 z m -23.29759,359.06813 v 21.26506 l 20.22429,6.57126 12.49929,-17.20379 -12.49929,-17.20379 z m 25.75215,-79.25695 v 24.17124 l -0.96875,2.60989 -1.79518,1.19434 -24.51609,7.96576 -13.44356,18.50347 12.49929,17.20379 22.98822,-7.46932 1.14092,0.0471 1.13703,-0.10481 0.12003,0.15671 0.38353,0.0158 1.69063,1.33825 14.20749,19.55493 20.22428,-6.57126 v -22.87155 l -15.15177,-20.85462 -0.18039,-0.64452 -0.40698,-0.53133 0.0439,-0.76606 -0.20682,-0.73895 0.29457,-0.7936 0.0275,-0.48072 0.2451,-0.25376 0.18312,-0.49334 14.2075,-19.55494 -12.49929,-17.2038 z m 26.69641,-196.86485 14.2075,19.55495 0.59707,2.13329 0.16686,0.21785 -0.0604,0.16264 0.0468,0.16708 -0.75032,2.02142 -15.9157,21.90608 -0.14445,0.0961 -0.0604,0.16265 -1.08296,0.59801 -1.03001,0.68527 -0.19629,-0.008 -0.12775,0.0705 -0.45129,-0.0944 -1.37902,-0.0569 -25.75214,-8.36738 -0.39787,-0.31494 -0.49667,-0.10395 -0.5627,-0.73462 -0.72555,-0.57433 -0.16446,-0.58762 -0.24012,-0.31348 0.0259,-0.45198 -0.20244,-0.72331 v -24.17124 l -20.22429,-6.57126 -12.49929,17.2038 14.2075,19.55494 0.75032,2.68086 -0.75032,2.02142 -15.9157,21.90608 -2.31779,1.54203 -2.15435,-0.0889 -22.98821,-7.46932 -12.49929,17.20379 12.49929,17.20379 22.98821,-7.46932 2.78151,0.11484 1.69063,1.33825 15.9157,21.90609 0.75032,2.68086 -0.75032,2.02142 -15.9157,21.90608 -2.31779,1.54203 -2.15435,-0.0889 -22.98821,-7.46932 -12.49929,17.20379 12.49929,17.20379 22.98821,-7.46932 1.14092,0.0471 1.13703,-0.10481 0.12003,0.15671 0.38353,0.0158 1.69063,1.33825 15.9157,21.90608 0.59707,2.13329 0.16686,0.21785 -0.0604,0.16264 0.0468,0.16708 -0.75032,2.02142 -14.2075,19.55495 12.49929,17.20379 20.22429,-6.57126 V 318.1169 l 0.28834,-0.77681 0.0474,-0.82723 0.42177,-0.43667 0.21127,-0.56918 0.94706,-0.63008 0.35393,-0.36644 0.22851,-0.0211 0.26568,-0.17676 25.75214,-8.36738 1.14092,0.0471 1.13703,-0.10481 0.12003,0.15671 0.38353,0.0158 1.69063,1.33825 15.9157,21.90609 0.59707,2.13329 0.16686,0.21785 -0.0604,0.16264 0.0468,0.16708 -0.75032,2.02142 -14.2075,19.55494 12.49929,17.20379 20.22428,-6.57126 V 340.0228 l 0.28834,-0.77681 0.0474,-0.82723 0.42177,-0.43667 0.21127,-0.56918 0.94706,-0.63008 0.35393,-0.36644 0.22851,-0.0211 0.26568,-0.17676 25.75215,-8.36737 1.14092,0.0471 1.13703,-0.1048 0.12003,0.1567 0.38354,0.0158 1.69062,1.33825 14.20748,19.55493 20.22429,-6.57126 v -21.26507 l -22.98822,-7.46932 -0.39787,-0.31494 -0.49667,-0.10395 -0.5627,-0.73462 -0.72555,-0.57433 -0.16446,-0.58762 -0.24012,-0.31348 0.0259,-0.45198 -0.20244,-0.72331 v -27.0774 l 0.28834,-0.77681 0.0474,-0.82723 0.42177,-0.43667 0.21127,-0.56918 0.94706,-0.63008 0.35393,-0.36644 0.22851,-0.0211 0.26568,-0.17676 25.75215,-8.36738 1.14092,0.0471 1.13703,-0.10481 0.12003,0.15671 0.38353,0.0158 1.69063,1.33825 14.20749,19.55493 20.22428,-6.57126 v -21.26506 l -22.98821,-7.46932 -0.39787,-0.31494 -0.49667,-0.10395 -0.5627,-0.73462 -0.72555,-0.57433 -0.16446,-0.58762 -0.24012,-0.31348 0.0259,-0.45198 -0.20244,-0.72331 v -27.07741 l 0.28834,-0.77681 0.0474,-0.82723 0.42177,-0.43667 0.21127,-0.56918 0.94706,-0.63008 0.35393,-0.36644 0.22851,-0.0211 0.26568,-0.17676 22.98821,-7.46932 v -21.26506 l -20.22428,-6.57126 -14.20749,19.55493 -0.14445,0.0961 -0.0604,0.16265 -1.08296,0.59801 -1.03001,0.68527 -0.19629,-0.008 -0.12775,0.0705 -0.45129,-0.0944 -1.37902,-0.0569 -25.75215,-8.36738 -0.39787,-0.31494 -0.49667,-0.10395 -0.5627,-0.73462 -0.72555,-0.57433 -0.16446,-0.58762 -0.24012,-0.31348 0.0259,-0.45198 -0.20244,-0.72331 v -27.0774 l 0.28834,-0.77681 0.0474,-0.82723 0.42177,-0.43667 0.21127,-0.56918 0.94706,-0.63008 0.35393,-0.36644 0.22851,-0.0211 0.26568,-0.17676 22.98822,-7.46932 v -21.26507 l -20.22429,-6.57126 -14.20748,19.55494 -0.14445,0.0961 -0.0604,0.16265 -1.08296,0.59801 -1.03001,0.68527 -0.19629,-0.008 -0.12775,0.0705 -0.45129,-0.0945 -1.37902,-0.0569 -25.75215,-8.36738 -0.39787,-0.31494 -0.49667,-0.10395 -0.5627,-0.73462 -0.72555,-0.57433 -0.16446,-0.58762 -0.24012,-0.31348 0.0259,-0.45198 -0.20244,-0.72331 v -24.17124 l -20.22428,-6.57126 z m 82.39141,161.42007 v 21.26506 l 22.98822,7.46932 2.18279,1.72784 0.58114,2.07639 v 25.77773 l 13.44356,18.50347 20.22428,-6.57126 v -24.17123 l 0.28834,-0.77681 0.0474,-0.82723 0.42177,-0.43667 0.21127,-0.56918 0.94706,-0.63008 0.35393,-0.36644 0.22851,-0.0211 0.26568,-0.17676 22.98821,-7.46932 v -21.26507 l -21.75214,-7.0677 -24.51607,7.96576 -0.34211,-0.0141 -0.29972,0.1655 -1.05882,-0.22159 -1.08086,-0.0446 -0.31185,-0.24685 -0.27332,-0.0572 -0.30965,-0.40427 -0.79581,-0.62993 -14.20749,-19.55493 z m 67.41999,48.98349 v 21.26506 l 20.22428,6.57126 12.49929,-17.20379 -12.49929,-17.20379 z M 85.35701,216.95369 l 14.2075,19.55495 0.75032,2.68086 -0.75032,2.02142 -14.2075,19.55494 12.49929,17.20379 21.75215,-7.0677 15.15176,-20.85461 2.31779,-1.54203 2.15435,0.0889 22.98821,7.46932 12.49929,-17.20379 -12.49929,-17.2038 -22.98821,7.46932 -2.78151,-0.11484 -1.69063,-1.33825 -15.15176,-20.85461 -21.75215,-7.0677 z m -26.69642,11.27355 v 21.26507 l 20.22429,6.57126 12.49929,-17.20379 -12.49929,-17.2038 z M 344.25624,133.8251 v 25.77773 l -0.96875,2.60989 -1.79518,1.19434 -22.98822,7.46932 v 21.26506 l 20.22429,6.57126 14.20749,-19.55493 0.82087,-0.54612 0.68494,-0.70915 0.44223,-0.0408 0.36975,-0.246 1.58789,0.0656 0.37227,-0.0343 0.0393,0.0513 0.15489,0.006 24.51607,7.96576 21.75214,-7.0677 V 157.3373 l -22.98821,-7.46932 -0.39787,-0.31494 -0.49667,-0.10395 -0.5627,-0.73462 -0.72555,-0.57433 -0.16446,-0.58762 -0.24012,-0.31348 0.0259,-0.45198 -0.20244,-0.72331 v -24.17124 l -20.22428,-6.57126 z m -135.6039,-42.7607 -2.31779,1.54203 -2.15435,-0.08894 -22.98822,-7.46932 -12.49929,17.20379 13.44356,18.50347 24.51609,7.96576 2.18279,1.72784 0.58114,2.07639 v 24.17124 l 20.22428,6.57126 12.49929,-17.20379 -14.2075,-19.55495 -0.18039,-0.64452 -0.40698,-0.53133 0.0439,-0.76606 -0.20682,-0.73895 0.29457,-0.7936 0.0275,-0.48072 0.2451,-0.25376 0.18312,-0.49334 15.15177,-20.85462 V 78.08073 l -20.22428,-6.57126 z m 177.27174,30.82849 v 21.26506 l 20.22428,6.57126 12.49929,-17.20379 -12.49929,-17.20379 z M 183.66412,56.17465 v 21.26506 l 20.22429,6.57126 12.49929,-17.20379 -12.49929,-17.20379 z"
     stroke-miterlimit="10"
     id="path1" />
  <path
     fill="#222222"
     stroke="#cccccc"
     paint-order="fill stroke markers"
     d="m 645.29582,36.47728 155.83142,50.6327 2.18279,1.72784 0.58114,2.07639 v 47.72652 l 45.39063,14.74831 2.18279,1.72784 0.58114,2.07639 v 163.85085 l -0.96875,2.60989 -1.79518,1.19434 -45.39063,14.74831 v 47.72653 l -0.96875,2.60989 -1.79518,1.19434 -155.83142,50.6327 -0.34211,-0.0141 -0.29972,0.1655 -1.05882,-0.22159 -1.08086,-0.0446 -0.31185,-0.24685 -0.27332,-0.0572 -0.30965,-0.40427 -0.79581,-0.62993 -28.05294,-38.61157 -45.39063,14.74831 -2.78151,-0.11484 -1.69063,-1.33825 -96.30912,-132.55813 -0.75032,-2.68086 0.75032,-2.02142 28.05295,-38.61157 -28.05295,-38.61158 -0.75032,-2.68086 0.75032,-2.02142 96.30912,-132.55812 2.31779,-1.54203 2.15435,0.08894 45.39062,14.74831 28.05295,-38.61157 2.31779,-1.54203 z m -24.52508,362.61882 24.81687,34.1575 63.44356,-20.61406 -64.97142,-21.1105 z m -53.09884,8.84115 40.15456,-13.047 -14.3934,-19.81082 -64.97144,-21.1105 z m 204.93025,-58.17417 -40.15455,55.268 63.44357,-20.61406 v -42.221 z m -124.5424,34.65394 63.44357,20.61406 -40.15455,-55.268 -23.28902,-7.56706 z m 77.91571,-52.40323 v 68.31501 l 39.21029,-53.96833 -24.81688,-34.1575 z m -47.21029,14.34668 39.21029,53.96833 v -66.70852 l -24.23329,-7.87387 z m -77.91571,25.31635 14.977,20.61407 24.23329,-7.87387 v -44.82036 l -12.86554,-4.18027 z m -69.91569,-25.31635 63.44356,20.61406 24.81688,-34.1575 -23.28902,-7.56706 z m 117.12598,-12.57616 24.23329,7.87387 13.44912,-18.51113 -37.68241,-12.24376 z m 97.25339,-28.38655 26.34474,36.26042 24.23329,-7.87387 v -25.48038 l -42.62669,-13.85025 z m -216.85152,33.35425 63.44357,-20.61406 V 292.65757 L 567.6719,284.7837 Z m -53.68243,-58.6706 39.21029,53.96833 v -68.31501 l -14.39341,-19.81082 z m 47.21029,-12.74019 v 66.70851 l 40.15456,-55.268 v -24.48751 z m 110.14901,61.26996 7.92126,2.57377 V 317.7085 Z m 171.75268,-21.91374 v 24.48751 l 40.15456,-13.047 v -66.70851 z m -203.98598,11.44051 24.23329,7.87387 13.44913,-18.51113 -37.68242,-12.24376 z m 98.78125,0.80325 21.76116,7.07062 14.97699,-20.61406 -13.44913,-18.51114 z m -41.6824,-13.54344 33.6824,10.94408 20.81688,-28.65197 z m -56.15458,-66.27906 44.73815,61.57677 72.38785,-23.52023 v -76.11309 l -72.38785,-23.52023 z m 171.75269,28.71896 -14.39339,19.81081 40.15455,13.047 39.21028,-53.96831 z m -32.23328,30.75489 4.89561,-6.73823 -12.81688,-4.16445 z m -140.46368,-11.74733 33.68242,10.94408 -33.68242,-46.35986 z m 128.54241,-8.86674 21.76115,7.07063 14.977,-20.61406 -13.44914,-18.51114 z M 570.14404,251.69486 v 25.48038 l 21.76115,7.07062 v -39.62163 z m 155.83142,16.07581 20.81688,-28.65197 -20.81688,-28.65198 z m -221.43511,-28.65197 14.97699,20.61406 42.6267,-13.85025 v -13.52762 l -42.6267,-13.85025 z m 252.14054,0 14.97699,20.61406 63.44356,-20.61406 -63.44356,-20.61406 z m -186.53685,4.16445 12.81686,-4.16445 -12.81686,-4.16445 z m 0,-42.221 v 25.48039 l 21.76115,7.07063 v -39.62164 z m -95.36485,-2.90617 24.81689,34.15751 14.3934,-19.81082 v -68.31501 z m 253.66841,2.10293 23.28901,32.05458 13.44914,-18.51114 -14.977,-20.61407 z m 29.76115,-9.66999 14.3934,19.81082 64.97144,21.1105 -39.21028,-53.96832 z m -158.30356,0.80325 v 35.41579 l 33.68241,-46.35987 z m 203.98598,-19.85222 40.15456,55.26801 v -66.70852 l -40.15456,-13.047 z m -281.90169,39.35623 40.15456,13.047 v -24.48752 l -40.15456,-55.268 z m 45.68242,-17.44249 24.23329,-7.87387 v -25.48038 l -63.44357,-20.61406 z m 131.01455,-34.15749 23.28901,32.05457 13.44913,-18.51114 -14.97699,-20.61405 z m 33.76115,31.25132 12.81687,-4.16445 -4.89561,-6.73823 z m -75.44356,-17.70789 54.49927,17.70789 -20.81686,-28.65196 z m 88.3091,0 7.95133,10.94408 42.6267,-13.85025 v -25.48038 l -24.23329,-7.87387 z M 599.90519,160.09944 v 22.88103 l 37.68242,-12.24376 -13.44913,-18.51114 z m 48.15456,-15.64636 v 22.88102 l 37.68242,-12.24375 -13.44913,-18.51114 z m 77.91571,1.77053 14.3934,19.81082 24.81689,-34.15751 -39.21029,-53.96832 z m -93.83697,3.4026 7.92126,10.90268 v -13.47645 z m -101.20472,-17.74929 64.97142,21.1105 23.28902,-7.56706 -24.81688,-34.1575 z m 147.8314,0 14.977,20.61407 24.23329,-7.87387 V 77.9086 Z m -77.91571,-25.31635 26.34475,36.26043 12.86554,-4.18027 V 93.82038 l -24.23329,-7.87387 z m 47.21029,-12.74019 v 42.22099 l 23.28902,-7.56706 40.15455,-55.26799 z m 124.5424,34.65393 23.28902,7.56706 V 93.82038 L 732.4476,73.20632 Z m -244.14053,-4.20585 64.97144,-21.1105 14.39339,-19.81081 -40.15455,-13.047 z m 92.30911,-45.12716 23.28902,7.56706 64.97142,-21.1105 -63.44356,-20.61406 z"
     stroke-miterlimit="10"
     id="path2" />
  <path
     fill="#222222"
     stroke="#cccccc"
     paint-order="fill stroke markers"
     d="m 233.01649,455.52405 37.65123,12.23363 2.18279,1.72784 0.58114,2.07639 v 38.28916 l 11.90935,16.39182 19.26974,-6.26112 22.5058,-30.97658 2.31779,-1.54203 2.15435,0.0889 37.65123,12.23362 2.18279,1.72784 0.58114,2.07639 v 38.28917 l 21.74187,29.92511 36.41516,11.83201 2.18279,1.72784 0.58114,2.07639 v 39.58884 l -0.96875,2.60989 -1.79518,1.19434 -36.41516,11.83201 -11.90935,16.39181 11.90935,16.39181 36.41516,11.832 2.18279,1.72784 0.58114,2.07639 v 39.58885 l -0.96875,2.60989 -1.79518,1.19434 -36.41516,11.832 -21.74187,29.92512 v 38.28916 l -0.96875,2.60989 -1.79518,1.19434 -37.65123,12.23363 -2.78151,-0.11484 -1.69063,-1.33825 -22.5058,-30.97658 -19.26974,-6.26112 -11.90935,16.39182 v 38.28916 l -0.96875,2.60989 -1.79518,1.19434 -37.65123,12.23362 -2.78152,-0.11484 -1.69062,-1.33825 -22.5058,-30.97657 -35.1791,-11.43039 -36.41515,11.83201 -2.78151,-0.11484 -1.69063,-1.33825 -23.26974,-32.02805 -0.75032,-2.68086 0.75032,-2.02142 22.50581,-30.97659 v -20.26139 l -19.26974,-6.26112 -36.41516,11.832 -2.78152,-0.11484 -1.69062,-1.33825 -23.26974,-32.02804 -0.75032,-2.68086 0.75032,-2.02142 22.50581,-30.97659 v -36.98948 l -22.50581,-30.97659 -0.75032,-2.68086 0.75032,-2.02142 23.26974,-32.02805 2.31779,-1.54203 2.15435,0.0889 36.41516,11.83201 19.26974,-6.26112 v -20.2614 l -22.50581,-30.97658 -0.75032,-2.68086 0.75032,-2.02142 23.26974,-32.02805 2.31779,-1.54203 2.15435,0.0889 36.41515,11.832 35.1791,-11.43038 22.5058,-30.97658 2.31779,-1.54203 z m -19.56154,371.23434 19.85333,27.32575 32.12337,-10.43751 v -33.77649 l -32.12337,-10.43751 z m -98.57219,-32.02805 19.85333,27.32576 32.12336,-10.43751 v -33.7765 l -32.12336,-10.43751 z m 59.97669,-16.88825 v 33.7765 l 32.12337,10.43751 19.85333,-27.32576 -19.85333,-27.32576 z m 137.16769,16.88825 19.85333,27.32576 32.12337,-10.43751 v -33.7765 l -32.12337,-10.43751 z m -161.20135,-49.47133 -0.14445,0.0961 -0.0604,0.16265 -1.08296,0.59801 -1.03001,0.68527 -0.19629,-0.008 -0.12775,0.0705 -0.45129,-0.0944 -1.37902,-0.0569 -9.14542,-2.97153 v 16.05555 l 33.65122,10.93395 36.41516,-11.83201 2.78151,0.11484 1.69063,1.33825 22.5058,30.97658 33.65124,10.93395 9.43721,-12.98921 -9.14542,-2.97152 -0.39787,-0.31494 -0.49667,-0.10395 -0.5627,-0.73462 -0.72555,-0.57433 -0.16446,-0.58762 -0.24012,-0.31348 0.0259,-0.45198 -0.20244,-0.72331 v -34.08331 l -32.41516,10.53232 -2.78151,-0.11484 -1.69063,-1.33825 -12.67328,-17.44328 -20.50581,6.66274 -2.78152,-0.11484 -1.69062,-1.33825 -20.03367,-27.57398 z m 183.52682,-46.61281 -0.96875,2.60989 -1.79518,1.19434 -20.50581,6.66274 v 21.56108 l -0.96875,2.60989 -1.79518,1.19434 -32.41515,10.53232 20.03366,27.57398 0.59707,2.13329 0.16686,0.21785 -0.0604,0.16264 0.0468,0.16708 -0.75032,2.02142 -5.65218,7.77956 15.26974,4.96143 20.7976,-28.62544 v -38.28916 l 0.96875,-2.60989 1.79518,-1.19434 36.41517,-11.832 20.7976,-28.62544 -9.43722,-12.98922 -5.65218,7.77956 -0.14445,0.0961 -0.0604,0.16265 -1.08296,0.59801 -1.03001,0.68527 -0.19629,-0.008 -0.12775,0.0705 -0.45129,-0.0944 -1.37902,-0.0569 -32.41516,-10.53232 z m -60.92096,80.94435 8.85362,2.87671 5.47184,-7.53134 -14.32546,-19.71731 z m 60.92096,-53.57092 v 33.77649 l 32.12337,10.43751 19.85333,-27.32576 -19.85333,-27.32575 z m -98.57219,-32.02805 v 36.68267 l -0.96875,2.60989 -1.79518,1.19434 -9.14542,2.97153 9.43721,12.9892 69.77459,-22.67113 v -16.05555 l -9.14542,2.97153 -0.34211,-0.0141 -0.29972,0.1655 -1.05882,-0.22159 -1.08086,-0.0446 -0.31185,-0.24685 -0.27332,-0.0572 -0.30965,-0.40427 -0.79581,-0.62993 -21.56152,-29.6769 z m -181.81863,16.88825 19.85333,27.32575 32.12337,-10.43751 V 693.99158 L 73.81512,683.55407 Z m 83.24644,15.13979 v 9.30925 l 8.85363,2.87671 14.32545,-19.71729 z m 34.88729,-50.92441 -2.78152,-0.11484 -1.69062,-1.33825 -5.65218,-7.77955 -9.43721,12.98921 43.12306,59.3538 15.26974,-4.96143 -5.65218,-7.77956 -0.75032,-2.68086 0.75032,-2.02142 21.56154,-29.67691 -19.85333,-27.32575 z m 200.85259,35.78462 19.85333,27.32575 32.12336,-10.4375 v -33.77651 l -32.12336,-10.4375 z M 113.93849,590.34664 v 35.38299 l 22.50581,30.97659 0.75032,2.68086 -0.75032,2.02142 -22.50581,30.97658 v 35.38299 l 15.26974,4.96144 v -9.61606 l 0.28834,-0.77681 0.0474,-0.82723 0.42177,-0.43667 0.21127,-0.56918 0.94706,-0.63008 0.35393,-0.36644 0.22851,-0.0211 0.26568,-0.17676 32.41516,-10.53232 -20.03367,-27.57398 -0.75032,-2.68086 0.75032,-2.02142 12.67328,-17.44328 -12.67328,-17.44328 -0.75032,-2.68086 0.75032,-2.02142 20.03367,-27.57398 -32.41516,-10.53233 -0.39787,-0.31494 -0.49667,-0.10395 -0.5627,-0.73462 -0.72555,-0.57433 -0.16446,-0.58762 -0.24012,-0.31348 0.0259,-0.45198 -0.20244,-0.72331 v -9.61606 z m 99.51646,132.76681 5.47184,7.53134 8.85363,-2.87672 v -24.37193 z m 80.77429,-16.93591 8.85363,-2.87672 v -9.30925 l -23.17908,-7.53133 z m 16.85363,-79.14823 -0.96875,2.60989 -1.79518,1.19434 -34.88729,11.33557 v 33.7765 l 34.88729,11.33556 2.18279,1.72784 0.58114,2.07639 v 9.61607 l 15.26974,-4.96144 v -73.36534 l -15.26974,-4.96144 z m -234.79561,15.1398 v 33.77649 l 32.12337,10.43751 19.85333,-27.32575 -19.85333,-27.32576 z m 137.16769,16.88825 19.85333,27.32575 32.12337,-10.43751 V 642.16911 L 233.30828,631.7316 Z m -46.53947,0 5.47183,7.53133 23.17908,-7.53133 -23.17908,-7.53134 z m 176.38142,0 23.17908,7.53133 5.47184,-7.53133 -5.47184,-7.53134 z m -190.76291,-19.79442 9.43721,12.98921 5.65218,-7.77956 2.31779,-1.54203 2.15435,0.0889 34.8873,11.33557 19.85333,-27.32576 -21.56154,-29.67691 -0.18039,-0.64452 -0.40698,-0.53133 0.0439,-0.76606 -0.20682,-0.73895 0.29457,-0.7936 0.0275,-0.48072 0.2451,-0.25376 0.18312,-0.49334 5.65218,-7.77955 -15.26974,-4.96144 z m 137.75128,-106.21484 5.65218,7.77956 0.59707,2.13329 0.16686,0.21785 -0.0604,0.16264 0.0468,0.16708 -0.75032,2.02142 -20.03366,27.57398 32.41515,10.53232 2.18279,1.72784 0.58114,2.07639 v 21.56108 l 20.50581,6.66274 2.18279,1.72784 0.58114,2.07639 v 34.08331 l 32.41516,-10.53233 1.14092,0.0471 1.13703,-0.10481 0.12003,0.15671 0.38353,0.0158 1.69063,1.33825 5.65218,7.77956 9.43722,-12.98921 -20.7976,-28.62544 -36.41517,-11.83201 -2.18279,-1.72784 -0.58114,-2.07639 V 556.7121 l -20.7976,-28.62543 z m -236.32348,74.18679 19.85333,27.32576 32.12337,-10.43751 v -33.7765 L 73.81512,579.90913 Z m 318.98632,0 19.85333,27.32576 32.12336,-10.43751 v -33.7765 l -32.12336,-10.43751 z m -149.07704,-26.57018 9.14542,2.97153 2.18279,1.72784 0.58114,2.07639 v 36.68267 l 32.12337,10.43751 21.56152,-29.6769 0.82087,-0.54612 0.68494,-0.70915 0.44223,-0.0408 0.36975,-0.246 1.58789,0.0656 0.37227,-0.0343 0.0393,0.0513 0.15489,0.006 9.14542,2.97153 v -16.05555 l -69.77459,-22.67113 z m 56.03272,50.98977 23.17908,-7.53134 v -9.30924 l -8.85363,-2.87672 z m -66.44884,-36.65322 14.32547,19.71731 v -24.37193 l -8.85363,-2.87672 z M 334.35261,558.3186 v 33.77649 l 32.12337,10.43751 19.85333,-27.32576 -19.85333,-27.32575 z m -100.10006,-31.53161 -22.5058,30.97657 -2.31779,1.54203 -2.15435,-0.0889 -36.41516,-11.832 -33.65122,10.93394 v 16.05555 l 9.14542,-2.97153 2.78151,0.11484 1.69063,1.33825 20.03366,27.57398 20.03367,-27.57398 2.31779,-1.54203 2.15435,0.0889 20.50581,6.66274 12.67328,-17.44327 0.82087,-0.54612 0.68494,-0.70915 0.44223,-0.0408 0.36975,-0.246 1.58789,0.0655 0.37227,-0.0343 0.0393,0.0513 0.15489,0.006 32.41516,10.53232 V 535.618 l 0.28834,-0.77681 0.0474,-0.82723 0.42177,-0.43667 0.21127,-0.56918 0.94706,-0.63008 0.35393,-0.36644 0.22851,-0.0211 0.26568,-0.17676 9.14542,-2.97152 -9.43721,-12.98921 z m -97.04432,55.99886 v 9.30924 l 23.17908,7.53134 -14.32545,-19.7173 z m 136.22342,-44.26168 v 24.37193 l 14.32546,-19.7173 -5.47184,-7.53134 z m -158.54889,-15.13979 19.85333,27.32575 32.12336,-10.4375 v -33.77651 l -32.12336,-10.4375 z m 59.97669,-16.88825 v 33.77649 l 32.12337,10.43751 19.85333,-27.32575 -19.85333,-27.32576 z m 137.16769,16.88825 19.85333,27.32575 32.12337,-10.43751 v -33.77649 l -32.12337,-10.43751 z m -98.57219,-32.02805 19.85333,27.32576 32.12337,-10.43751 v -33.7765 l -32.12337,-10.43751 z"
     stroke-miterlimit="10"
     id="path3" />
  <path
     fill="#222222"
     stroke="#cccccc"
     paint-order="fill stroke markers"
     d="m 662.05932,455.21526 1.69063,1.33825 10.30989,14.19034 16.68176,-5.42022 2.78152,0.11484 1.69062,1.33825 12.0181,16.54149 0.75032,2.68086 -0.75032,2.02142 -10.3099,14.19035 8.60169,11.83921 13.91783,-4.52217 v -17.54024 l 0.28834,-0.77681 0.0474,-0.82723 0.42177,-0.43667 0.21127,-0.56918 0.94706,-0.63008 0.35393,-0.36644 0.22851,-0.0211 0.26568,-0.17676 19.44569,-6.31829 1.14092,0.0471 1.13703,-0.10481 0.12003,0.15671 0.38353,0.0158 1.69063,1.33825 10.30989,14.19034 16.68176,-5.42023 1.14092,0.0471 1.13703,-0.10481 0.12003,0.15671 0.38353,0.0158 1.69063,1.33825 12.0181,16.5415 0.59707,2.13329 0.16686,0.21785 -0.0604,0.16264 0.0468,0.16708 -0.75032,2.02142 -10.3099,14.19035 8.60169,11.8392 16.68176,-5.42022 1.14092,0.0471 1.13703,-0.1048 0.12003,0.1567 0.38354,0.0158 1.69062,1.33825 12.0181,16.54149 0.59707,2.13329 0.16686,0.21785 -0.0604,0.16264 0.0468,0.16708 -0.75032,2.02142 -10.3099,14.19035 8.60169,11.83921 16.68176,-5.42023 1.14092,0.0471 1.13703,-0.10481 0.12003,0.15671 0.38353,0.0158 1.69063,1.33825 12.0181,16.54149 0.59707,2.13329 0.16686,0.21785 -0.0604,0.16264 0.0468,0.16708 -0.75032,2.02142 -10.3099,14.19035 10.3099,14.19036 0.59707,2.13329 0.16686,0.21785 -0.0604,0.16264 0.0468,0.16708 -0.75032,2.02142 -12.0181,16.54149 -0.14445,0.0961 -0.0604,0.16265 -1.08296,0.59801 -1.03001,0.68527 -0.19629,-0.008 -0.12775,0.0705 -0.45129,-0.0945 -1.37902,-0.0569 -16.68176,-5.42023 -8.60169,11.83921 8.60169,11.8392 16.68176,-5.42023 2.78151,0.11484 1.69063,1.33825 12.0181,16.54149 0.75032,2.68086 -0.75032,2.02142 -10.3099,14.19036 10.3099,14.19035 0.75032,2.68086 -0.75032,2.02142 -12.0181,16.54149 -2.31779,1.54203 -2.15435,-0.0889 -16.68176,-5.42023 -8.60169,11.83921 10.3099,14.19035 0.75032,2.68086 -0.75032,2.02142 -12.0181,16.54149 -2.31779,1.54203 -2.15435,-0.0889 -16.68176,-5.42022 -8.60169,11.8392 10.3099,14.19035 0.75032,2.68086 -0.75032,2.02142 -12.0181,16.5415 -2.31779,1.54203 -2.15435,-0.0889 -16.68176,-5.42023 -10.30989,14.19034 -2.31779,1.54203 -2.15435,-0.0889 -19.44569,-6.31829 -2.18279,-1.72784 -0.58114,-2.07639 v -17.54024 l -13.91783,-4.52217 -8.60169,11.83921 10.3099,14.19035 0.59707,2.13329 0.16686,0.21785 -0.0604,0.16264 0.0468,0.16708 -0.75032,2.02142 -12.0181,16.54149 -0.14445,0.0961 -0.0604,0.16265 -1.08296,0.59801 -1.03001,0.68527 -0.19629,-0.008 -0.12775,0.0705 -0.45129,-0.0945 -1.37902,-0.0569 -16.68176,-5.42022 -10.30989,14.19034 -0.14445,0.0961 -0.0604,0.16265 -1.08296,0.59801 -1.03001,0.68527 -0.19629,-0.008 -0.12775,0.0705 -0.45129,-0.0945 -1.37902,-0.0569 -19.44569,-6.31829 -0.39787,-0.31494 -0.49667,-0.10395 -0.5627,-0.73462 -0.72555,-0.57433 -0.16446,-0.58762 -0.24012,-0.31348 0.0259,-0.45198 -0.20244,-0.72331 v -17.54024 l -13.91783,-4.52217 -10.30989,14.19035 -0.14445,0.0961 -0.0604,0.16265 -1.08296,0.59801 -1.03001,0.68527 -0.19629,-0.008 -0.12775,0.0705 -0.45129,-0.0944 -1.37902,-0.0569 -19.44569,-6.31829 -0.39787,-0.31494 -0.49667,-0.10395 -0.5627,-0.73462 -0.72555,-0.57433 -0.16446,-0.58762 -0.24012,-0.31348 0.0259,-0.45198 -0.20244,-0.72331 v -17.54024 l -13.91783,-4.52217 -10.30989,14.19034 -0.14445,0.0961 -0.0604,0.16265 -1.08296,0.59801 -1.03001,0.68527 -0.19629,-0.008 -0.12775,0.0705 -0.45129,-0.0945 -1.37902,-0.0569 -19.44569,-6.31829 -0.39787,-0.31494 -0.49667,-0.10395 -0.5627,-0.73462 -0.72555,-0.57433 -0.16446,-0.58762 -0.24012,-0.31348 0.0259,-0.45198 -0.20244,-0.72331 v -17.54023 l -16.68176,-5.42023 -0.39787,-0.31494 -0.49667,-0.10395 -0.5627,-0.73462 -0.72555,-0.57433 -0.16446,-0.58762 -0.24012,-0.31348 0.0259,-0.45198 -0.20244,-0.72331 V 772.2712 l 0.28834,-0.77681 0.0474,-0.82723 0.42177,-0.43667 0.21127,-0.56918 0.94706,-0.63008 0.35393,-0.36644 0.22851,-0.0211 0.26568,-0.17676 16.68176,-5.42023 v -14.63407 l -13.91783,-4.52217 -10.30989,14.19034 -2.31779,1.54203 -2.15435,-0.0889 -19.44569,-6.31829 -2.18279,-1.72784 -0.58114,-2.07639 v -17.54023 l -16.68176,-5.42023 -2.18279,-1.72784 -0.58114,-2.07639 v -20.44641 l 0.96875,-2.60989 1.79518,-1.19434 16.68176,-5.42023 v -14.63407 l -16.68176,-5.42023 -2.18279,-1.72784 -0.58114,-2.07639 v -20.44641 l 0.28834,-0.77681 0.0474,-0.82723 0.42177,-0.43667 0.21127,-0.56918 0.94706,-0.63008 0.35393,-0.36644 0.22851,-0.0211 0.26568,-0.17676 16.68176,-5.42023 v -14.63407 l -16.68176,-5.42023 -0.39787,-0.31494 -0.49667,-0.10395 -0.5627,-0.73462 -0.72555,-0.57433 -0.16446,-0.58762 -0.24012,-0.31348 0.0259,-0.45198 -0.20244,-0.72331 v -20.44641 l 0.28834,-0.77681 0.0474,-0.82723 0.42177,-0.43667 0.21127,-0.56918 0.94706,-0.63008 0.35393,-0.36644 0.22851,-0.0211 0.26568,-0.17676 16.68176,-5.42023 v -17.54023 l 0.28834,-0.77681 0.0474,-0.82723 0.42177,-0.43667 0.21127,-0.56918 0.94706,-0.63008 0.35393,-0.36644 0.22851,-0.0211 0.26568,-0.17676 19.44569,-6.31829 1.14092,0.0471 1.13703,-0.10481 0.12003,0.15671 0.38353,0.0158 1.69063,1.33825 10.30989,14.19034 13.91783,-4.52217 v -14.63407 l -16.68176,-5.42023 -2.18279,-1.72784 -0.58114,-2.07639 v -20.44641 l 0.96875,-2.60989 1.79518,-1.19434 16.68176,-5.42023 v -17.54023 l 0.96875,-2.60989 1.79518,-1.19434 19.44569,-6.31829 2.78151,0.11484 1.69063,1.33825 10.30989,14.19034 13.91783,-4.52217 v -17.54024 l 0.96875,-2.60989 1.79518,-1.19434 19.44569,-6.31829 2.78151,0.11484 1.69063,1.33825 10.30989,14.19035 13.91783,-4.52217 v -17.54024 l 0.96875,-2.60989 1.79518,-1.19434 19.44569,-6.31829 z m -37.20075,265.87768 -2.31779,1.54203 -2.15435,-0.0889 -16.68176,-5.42023 -8.60169,11.8392 10.3099,14.19036 0.75032,2.68086 -0.75032,2.02142 -12.0181,16.54149 -2.31779,1.54203 -2.15435,-0.0889 -16.68176,-5.42023 -10.30989,14.19035 -2.31779,1.54203 -2.15435,-0.0889 -18.20962,-5.91667 -15.44569,5.01861 v 14.63406 l 16.68176,5.42023 2.18279,1.72784 0.58114,2.07639 v 17.54024 l 13.91783,4.52217 10.30989,-14.19034 0.82087,-0.54612 0.68494,-0.70915 0.44223,-0.0408 0.36975,-0.246 1.58789,0.0655 0.37227,-0.0343 0.0393,0.0513 0.15489,0.006 19.44569,6.31829 2.18279,1.72784 0.58114,2.07639 v 17.54024 l 13.91783,4.52217 10.30989,-14.19035 0.82087,-0.54612 0.68494,-0.70915 0.44223,-0.0408 0.36975,-0.246 1.58789,0.0656 0.37227,-0.0343 0.0393,0.0513 0.15489,0.006 19.44569,6.31829 2.18279,1.72784 0.58114,2.07639 v 17.54024 l 13.91783,4.52217 10.30989,-14.19034 0.82087,-0.54612 0.68494,-0.70915 0.44223,-0.0408 0.36975,-0.246 1.58789,0.0655 0.37227,-0.0343 0.0393,0.0513 0.15489,0.006 16.68176,5.42022 8.60169,-11.8392 -9.54596,-13.13888 -18.20963,-5.91667 -2.18279,-1.72784 -0.58114,-2.07639 v -17.54024 l -16.68176,-5.42023 -2.18279,-1.72784 -0.58114,-2.07639 v -20.44641 l 0.96875,-2.60989 1.79518,-1.19434 16.68176,-5.42023 v -14.63407 l -16.68176,-5.42023 -2.18279,-1.72784 -0.58114,-2.07639 v -17.54023 l -13.91783,-4.52217 z m 195.44639,-42.25472 -11.25416,15.49002 -0.14445,0.0961 -0.0604,0.16265 -1.08296,0.59801 -1.03001,0.68527 -0.19629,-0.008 -0.12775,0.0705 -0.45129,-0.0945 -1.37902,-0.0569 -16.68176,-5.42023 -10.30989,14.19035 -0.14445,0.0961 -0.0604,0.16265 -1.08296,0.59801 -1.03001,0.68527 -0.19629,-0.008 -0.12775,0.0705 -0.45129,-0.0945 -1.37902,-0.0569 -19.44569,-6.31829 -0.39787,-0.31494 -0.49667,-0.10395 -0.5627,-0.73462 -0.72555,-0.57433 -0.16446,-0.58762 -0.24012,-0.31348 0.0259,-0.45198 -0.20244,-0.72331 v -17.54024 l -13.91783,-4.52217 -10.30989,14.19034 -0.14445,0.0961 -0.0604,0.16265 -1.08296,0.59801 -1.03001,0.68527 -0.19629,-0.008 -0.12775,0.0705 -0.45129,-0.0945 -1.37902,-0.0569 -16.68176,-5.42022 -8.60169,11.8392 10.3099,14.19035 0.59707,2.13329 0.16686,0.21785 -0.0604,0.16264 0.0468,0.16708 -0.75032,2.02142 -10.3099,14.19035 8.60169,11.83921 16.68176,-5.42023 1.14092,0.0471 1.13703,-0.10481 0.12003,0.15671 0.38353,0.0158 1.69063,1.33825 12.0181,16.54149 0.59707,2.13329 0.16686,0.21785 -0.0604,0.16264 0.0468,0.16708 -0.75032,2.02142 -10.3099,14.19036 10.3099,14.19035 0.59707,2.13329 0.16686,0.21785 -0.0604,0.16264 0.0468,0.16708 -0.75032,2.02142 -11.25417,15.49003 v 16.24056 l 13.91783,4.52217 10.30989,-14.19034 2.31779,-1.54203 2.15435,0.0889 16.68176,5.42023 8.60169,-11.83921 -10.3099,-14.19035 -0.75032,-2.68086 0.75032,-2.02142 12.0181,-16.54149 2.31779,-1.54203 2.15435,0.0889 16.68176,5.42022 8.60169,-11.8392 -10.3099,-14.19035 -0.75032,-2.68086 0.75032,-2.02142 12.0181,-16.5415 2.31779,-1.54203 2.15435,0.0889 16.68176,5.42023 8.60169,-11.8392 -10.3099,-14.19035 -0.75032,-2.68086 0.75032,-2.02142 10.3099,-14.19036 -8.60169,-11.8392 z M 676.53198,511.4353 v 17.54024 l -0.96875,2.60989 -1.79518,1.19434 -16.68176,5.42023 v 14.63407 l 16.68176,5.42023 2.18279,1.72784 0.58114,2.07639 v 20.44641 l -0.96875,2.60989 -1.79518,1.19434 -16.68176,5.42023 v 17.54024 l -0.96875,2.60989 -1.79518,1.19434 -19.44569,6.31828 -0.34211,-0.0141 -0.29972,0.1655 -1.05882,-0.22159 -1.08087,-0.0446 -0.31185,-0.24685 -0.27331,-0.0572 -0.30965,-0.40426 -0.79581,-0.62994 -10.30989,-14.19034 -16.68176,5.42023 -0.34211,-0.0141 -0.29972,0.1655 -1.05882,-0.22159 -1.08086,-0.0446 -0.31185,-0.24685 -0.27332,-0.0572 -0.30965,-0.40427 -0.79581,-0.62993 -12.0181,-16.54149 -0.18039,-0.64452 -0.40698,-0.53133 0.0439,-0.76606 -0.20682,-0.73895 0.29457,-0.7936 0.0275,-0.48072 0.2451,-0.25376 0.18312,-0.49334 10.3099,-14.19036 -8.60169,-11.8392 -16.68176,5.42023 -0.34211,-0.0141 -0.29972,0.1655 -1.05882,-0.22159 -1.08086,-0.0446 -0.31185,-0.24685 -0.27332,-0.0572 -0.30965,-0.40427 -0.79581,-0.62993 -10.30989,-14.19035 -13.91783,4.52217 v 17.54024 l -0.96875,2.60989 -1.79518,1.19434 -16.68176,5.42023 v 14.63407 l 16.68176,5.42023 2.18279,1.72784 0.58114,2.07639 v 17.54024 l 13.91783,4.52217 10.30989,-14.19035 2.31779,-1.54203 2.15435,0.0889 19.44569,6.31829 2.18279,1.72784 0.58114,2.07639 v 17.54024 l 16.68176,5.42023 2.18279,1.72784 0.58114,2.07639 v 20.44641 l -0.96875,2.60989 -1.79518,1.19434 -16.68176,5.42023 v 17.54024 l -0.96875,2.60989 -1.79518,1.19434 -19.44569,6.31829 -2.78151,-0.11484 -1.69063,-1.33825 -10.30989,-14.19035 -13.91783,4.52217 v 17.54024 l -0.96875,2.60989 -1.79518,1.19434 -16.68176,5.42023 v 14.63407 l 16.68176,5.42023 2.18279,1.72784 0.58114,2.07639 v 17.54024 l 13.91783,4.52217 10.30989,-14.19035 2.31779,-1.54203 2.15435,0.0889 16.68176,5.42023 8.60169,-11.8392 -10.3099,-14.19036 -0.75032,-2.68086 0.75032,-2.02142 12.0181,-16.54149 2.31779,-1.54203 2.15435,0.0889 16.68176,5.42023 10.30989,-14.19034 2.31779,-1.54203 2.15435,0.0889 19.44569,6.31828 2.18279,1.72784 0.58114,2.07639 v 17.54024 l 16.68176,5.42023 2.18279,1.72784 0.58114,2.07639 v 20.44641 l -0.96875,2.60989 -1.79518,1.19434 -16.68176,5.42023 v 14.63407 l 16.68176,5.42023 2.18279,1.72784 0.58114,2.07639 v 17.54024 l 13.91783,4.52217 10.30989,-14.19035 2.31779,-1.54203 2.15435,0.0889 16.68176,5.42023 8.60169,-11.8392 -10.3099,-14.19035 -0.18039,-0.64452 -0.40698,-0.53133 0.0439,-0.76606 -0.20682,-0.73895 0.29457,-0.7936 0.0275,-0.48072 0.2451,-0.25376 0.18312,-0.49334 10.3099,-14.19036 -8.60169,-11.8392 -16.68176,5.42023 -0.34211,-0.0141 -0.29972,0.1655 -1.05882,-0.22159 -1.08086,-0.0446 -0.31185,-0.24685 -0.27332,-0.0572 -0.30965,-0.40427 -0.79581,-0.62993 -12.0181,-16.5415 -0.18039,-0.64452 -0.40698,-0.53133 0.0439,-0.76606 -0.20682,-0.73895 0.29457,-0.7936 0.0275,-0.48072 0.2451,-0.25376 0.18312,-0.49334 10.3099,-14.19035 -10.3099,-14.19035 -0.18039,-0.64452 -0.40698,-0.53133 0.0439,-0.76606 -0.20682,-0.73895 0.29457,-0.7936 0.0275,-0.48072 0.2451,-0.25376 0.18312,-0.49334 12.0181,-16.54149 0.82087,-0.54612 0.68494,-0.70915 0.44223,-0.0408 0.36975,-0.246 1.58789,0.0656 0.37227,-0.0343 0.0393,0.0513 0.15489,0.006 16.68176,5.42022 10.30989,-14.19034 0.82087,-0.54612 0.68494,-0.70915 0.44223,-0.0408 0.36975,-0.246 1.58789,0.0656 0.37227,-0.0343 0.0393,0.0513 0.15489,0.006 19.44569,6.31829 2.18279,1.72784 0.58114,2.07639 v 17.54024 l 13.91783,4.52217 10.30989,-14.19035 0.82087,-0.54612 0.68494,-0.70915 0.44223,-0.0408 0.36975,-0.246 1.58789,0.0656 0.37227,-0.0343 0.0393,0.0513 0.15489,0.006 16.68176,5.42023 8.60169,-11.8392 -10.3099,-14.19035 -0.75032,-2.68086 0.75032,-2.02142 10.3099,-14.19036 -8.60169,-11.8392 -16.68176,5.42023 -2.78151,-0.11484 -1.69063,-1.33825 -10.30989,-14.19035 -13.91783,4.52217 v 17.54024 l -0.96875,2.60989 -1.79518,1.19434 -19.44569,6.31829 -2.78151,-0.11484 -1.69063,-1.33825 -10.30989,-14.19034 -16.68176,5.42023 -2.78151,-0.11484 -1.69063,-1.33825 -12.0181,-16.5415 -0.75032,-2.68086 0.75032,-2.02142 10.3099,-14.19035 -10.3099,-14.19035 -0.75032,-2.68086 0.75032,-2.02142 12.0181,-16.5415 2.31779,-1.54203 2.15435,0.0889 16.68176,5.42023 8.60169,-11.8392 -10.3099,-14.19036 -0.75032,-2.68086 0.75032,-2.02142 10.3099,-14.19035 -8.60169,-11.8392 -16.68176,5.42023 -2.78151,-0.11484 -1.69063,-1.33825 -10.30989,-14.19035 z m -184.19223,59.84769 v 17.54024 l -0.96875,2.60989 -1.79518,1.19434 -16.68176,5.42023 v 14.63406 l 16.68176,5.42023 2.18279,1.72784 0.58114,2.07639 v 20.44641 l -0.96875,2.60989 -1.79518,1.19434 -16.68176,5.42023 v 14.63407 l 16.68176,5.42023 2.18279,1.72784 0.58114,2.07639 v 20.44641 l -0.96875,2.60989 -1.79518,1.19434 -16.68176,5.42023 v 14.63406 l 16.68176,5.42023 2.18279,1.72784 0.58114,2.07639 v 17.54024 l 13.91783,4.52217 9.54596,-13.13888 V 718.7418 l 0.96875,-2.60989 1.79518,-1.19434 16.68176,-5.42023 V 691.9771 l 0.96875,-2.60989 1.79518,-1.19434 19.44569,-6.31829 2.78151,0.11484 1.69063,1.33825 10.30989,14.19035 13.91783,-4.52217 v -17.54024 l 0.96875,-2.60989 1.79518,-1.19434 16.68176,-5.42023 v -14.63407 l -16.68176,-5.42023 -2.18279,-1.72784 -0.58114,-2.07639 v -17.54024 l -13.91783,-4.52217 -10.30989,14.19035 -2.31779,1.54203 -2.15435,-0.0889 -19.44569,-6.31829 -2.18279,-1.72784 -0.58114,-2.07639 v -17.54024 l -16.68176,-5.42023 -2.18279,-1.72784 -0.58114,-2.07639 V 579.8997 l -9.54596,-13.13888 z m 235.10171,-76.38918 v 16.24056 l 11.25417,15.49003 0.75032,2.68086 -0.75032,2.02142 -10.3099,14.19035 10.3099,14.19036 0.75032,2.68086 -0.75032,2.02142 -12.0181,16.54149 -2.31779,1.54203 -2.15435,-0.0889 -16.68176,-5.42023 -8.60169,11.83921 10.3099,14.19035 0.75032,2.68086 -0.75032,2.02142 -10.3099,14.19035 8.60169,11.83921 16.68176,-5.42023 2.78151,0.11484 1.69063,1.33825 10.30989,14.19034 13.91783,-4.52217 v -17.54024 l 0.96875,-2.60989 1.79518,-1.19434 19.44569,-6.31829 2.78151,0.11484 1.69063,1.33825 10.30989,14.19035 16.68176,-5.42023 2.78151,0.11484 1.69063,1.33825 11.25416,15.49002 15.4457,5.01861 8.60169,-11.8392 -10.3099,-14.19036 -0.18039,-0.64452 -0.40698,-0.53133 0.0439,-0.76606 -0.20682,-0.73895 0.29457,-0.7936 0.0275,-0.48072 0.2451,-0.25376 0.18312,-0.49334 10.3099,-14.19035 -8.60169,-11.8392 -16.68176,5.42023 -0.34211,-0.0141 -0.29972,0.1655 -1.05882,-0.22159 -1.08086,-0.0446 -0.31185,-0.24685 -0.27332,-0.0572 -0.30965,-0.40427 -0.79581,-0.62993 -12.0181,-16.5415 -0.18039,-0.64452 -0.40698,-0.53133 0.0439,-0.76606 -0.20682,-0.73895 0.29457,-0.7936 0.0275,-0.48072 0.2451,-0.25376 0.18312,-0.49334 10.3099,-14.19035 -8.60169,-11.8392 -16.68176,5.42022 -0.34211,-0.0141 -0.29972,0.1655 -1.05882,-0.22159 -1.08087,-0.0446 -0.31185,-0.24685 -0.27331,-0.0572 -0.30965,-0.40426 -0.79581,-0.62994 -12.0181,-16.54149 -0.18039,-0.64452 -0.40698,-0.53133 0.0439,-0.76606 -0.20682,-0.73895 0.29457,-0.7936 0.0275,-0.48072 0.2451,-0.25376 0.18312,-0.49334 10.3099,-14.19035 -8.60169,-11.83921 -16.68176,5.42023 -0.34211,-0.0141 -0.29972,0.1655 -1.05882,-0.22159 -1.08086,-0.0446 -0.31185,-0.24685 -0.27332,-0.0572 -0.30965,-0.40427 -0.79581,-0.62993 -10.30989,-14.19034 z m -82.37327,-26.7647 v 17.54024 l -0.96875,2.60989 -1.79518,1.19434 -19.44569,6.31829 -2.78151,-0.11484 -1.69063,-1.33825 -10.30989,-14.19035 -13.91783,4.52217 v 17.54024 l -0.96875,2.60989 -1.79518,1.19434 -19.44569,6.31829 -2.78151,-0.11484 -1.69063,-1.33825 -10.30989,-14.19034 -13.91783,4.52217 v 17.54024 l -0.96875,2.60989 -1.79518,1.19434 -16.68176,5.42023 v 14.63406 l 15.44569,5.01861 18.20962,-5.91667 1.14092,0.0471 1.13703,-0.10481 0.12003,0.15671 0.38353,0.0158 1.69063,1.33825 10.30989,14.19035 16.68176,-5.42023 1.14092,0.0471 1.13703,-0.10481 0.12003,0.15671 0.38353,0.0158 1.69063,1.33825 12.0181,16.54149 0.59707,2.13329 0.16686,0.21785 -0.0604,0.16264 0.0468,0.16708 -0.75032,2.02142 -10.3099,14.19036 8.60169,11.8392 16.68176,-5.42023 1.14092,0.0471 1.13703,-0.10481 0.12003,0.15671 0.38353,0.0158 1.69063,1.33825 10.30989,14.19034 13.91783,-4.52217 v -17.54023 l 0.28834,-0.77681 0.0474,-0.82723 0.42177,-0.43667 0.21127,-0.56918 0.94706,-0.63008 0.35393,-0.36644 0.22851,-0.0211 0.26568,-0.17676 16.68176,-5.42023 V 564.9647 l -16.68176,-5.42023 -0.39787,-0.31494 -0.49667,-0.10395 -0.5627,-0.73462 -0.72555,-0.57433 -0.16446,-0.58762 -0.24012,-0.31348 0.0259,-0.45198 -0.20244,-0.72331 v -20.44641 l 0.28834,-0.77681 0.0474,-0.82723 0.42177,-0.43667 0.21127,-0.56918 0.94706,-0.63008 0.35393,-0.36644 0.22851,-0.0211 0.26568,-0.17676 16.68176,-5.42023 v -17.54024 l 0.28834,-0.77681 0.0474,-0.82723 0.42177,-0.43667 0.21127,-0.56918 0.94706,-0.63008 0.35393,-0.36644 0.22851,-0.0211 0.26568,-0.17676 18.20963,-5.91667 9.54596,-13.13888 -8.60169,-11.8392 -16.68176,5.42022 -2.78152,-0.11484 -1.69062,-1.33825 -10.30989,-14.19034 z"
     stroke-miterlimit="10"
     id="path4" />
</svg>
