<svg version="1.1" xmlns="http://www.w3.org/2000/svg" xmlns:xlink="http://www.w3.org/1999/xlink" width="1350" height="900"><defs/><g><path fill="rgb(0,0,0)" stroke="#cccccc" paint-order="fill stroke markers" d=" M 0 0 L 1350 0 L 1350 900 L 0 900 Z" fill-opacity="0" stroke-miterlimit="10"/><path fill="rgb(0,0,0)" stroke="#cccccc" paint-order="fill stroke markers" d=" M 342.58304 87.64189 L 342.58346 87.6426 L 342.58373 87.64284 L 342.58373 135.0247 L 342.58318 135.02533 L 342.58304 135.02565 L 325.37127 140.61809 L 325.37127 158.71491 L 370.4334 173.35648 L 370.43409 173.35743 L 370.43409 220.73855 L 387.64517 226.33077 L 398.28264 211.68956 L 398.28346 211.68937 L 398.28376 211.6892 L 443.34658 226.331 L 443.34727 226.33195 L 443.34727 273.71381 L 443.34658 273.71476 L 398.28376 288.35656 L 398.28264 288.3562 L 387.64517 273.71499 L 370.43409 279.30721 L 370.43409 326.68834 L 370.4334 326.68929 L 325.37127 341.33086 L 325.37127 359.42768 L 342.58304 365.02012 L 342.58373 365.02107 L 342.58373 412.40293 L 342.58304 412.40388 L 297.52022 427.04568 L 297.51946 427.04535 L 297.5191 427.04532 L 269.66874 388.71259 L 269.66874 388.71141 L 280.3062 374.0702 L 269.66917 359.42958 L 224.60704 374.07115 L 224.60592 374.07079 L 196.75599 335.73865 L 179.5449 341.33087 L 179.5449 359.4284 L 179.54421 359.42935 L 134.48138 374.07115 L 134.48026 374.07079 L 106.62991 335.73806 L 106.62999 335.73724 L 106.62991 335.73688 L 134.48026 297.40415 L 134.48138 297.40379 L 151.69315 302.99623 L 162.33019 288.35561 L 134.48026 250.02347 L 134.48026 250.02229 L 162.33019 211.69015 L 151.69315 197.04953 L 134.48138 202.64197 L 134.48026 202.64161 L 106.62991 164.30889 L 106.62991 164.30771 L 134.48026 125.97498 L 134.48108 125.97479 L 134.48138 125.97462 L 179.54421 140.61642 L 179.5449 140.61737 L 179.5449 158.7149 L 196.75598 164.30712 L 224.60592 125.97498 L 224.60674 125.97479 L 224.60704 125.97462 L 269.66917 140.61619 L 280.3062 125.97557 L 269.66874 111.33436 L 269.66874 111.33318 L 297.5191 73.00045 L 297.52022 73.00009 Z M 297.52091 397.76113 L 297.52004 397.76212 L 297.5191 397.76172 L 280.30744 374.0719 L 269.67079 388.712 L 297.52029 427.04355 L 342.58173 412.4022 L 342.58173 365.0218 L 325.37127 359.42978 L 325.37127 388.712 L 325.3704 388.71299 L 325.36946 388.71259 L 297.52091 350.38235 Z M 280.30868 374.0702 L 297.51891 397.75805 L 297.51891 350.38235 Z M 325.36927 388.70892 L 325.36927 359.42913 L 297.52253 350.38117 Z M 106.63196 335.73747 L 134.48145 374.06902 L 179.5429 359.42767 L 179.5429 341.33152 L 151.69385 350.38022 L 151.69264 350.3797 L 151.69273 350.37868 L 179.54128 312.04844 L 134.48138 326.68929 L 134.48017 326.68877 L 134.48026 326.68775 L 151.69192 302.99793 L 134.48145 297.40592 Z M 207.39588 350.37979 L 224.60711 374.06902 L 252.45546 365.02055 L 235.24423 341.33131 Z M 269.67117 359.42893 L 280.30744 374.0685 L 297.51729 350.38117 Z M 252.45808 288.35634 L 252.45808 335.73747 L 252.45739 335.73842 L 235.24624 341.33066 L 252.45747 365.0199 L 269.66855 359.42768 L 269.66855 312.04654 L 269.66943 312.04555 L 269.67036 312.04595 L 297.51891 350.37619 L 297.51891 302.99741 L 297.51979 302.99642 L 297.52072 302.99682 L 325.37065 341.32896 L 342.58173 335.73675 L 342.58173 306.45525 L 325.37058 312.04749 L 325.36946 312.04713 L 297.51953 273.71499 Z M 269.67055 359.42703 L 297.51829 350.37875 L 269.67055 312.04962 Z M 297.52314 350.37927 L 325.36927 359.42703 L 325.36927 341.33151 Z M 179.54421 264.66563 L 179.54309 264.66527 L 168.90601 250.02458 L 151.69478 273.71381 L 162.33181 288.35443 L 207.39395 273.71286 L 207.39516 273.71338 L 207.39507 273.7144 L 179.54652 312.04464 L 224.60642 297.40379 L 224.60763 297.40431 L 224.60754 297.40533 L 196.75761 335.73747 L 207.39464 350.37809 L 235.243 341.32961 L 224.60592 326.68893 L 224.60592 326.68775 L 252.45584 288.35561 L 224.60635 250.02406 Z M 297.52091 350.37789 L 325.36865 341.32961 L 297.52091 303.00049 Z M 151.69616 350.37737 L 179.5429 341.32941 L 179.5429 312.04962 Z M 224.60797 326.68834 L 235.245 341.32896 L 252.45608 335.73674 L 252.45608 288.35869 Z M 179.5449 341.32876 L 196.75475 335.73695 L 179.5449 312.04962 Z M 342.58373 306.4546 L 342.58373 335.7361 L 370.43209 326.68761 L 370.43209 297.40612 Z M 179.54552 312.04706 L 196.75637 335.73577 L 224.60411 297.40664 Z M 134.48369 326.68644 L 179.54067 312.04654 L 151.69392 302.99859 Z M 325.37065 312.04536 L 342.58173 306.45315 L 342.58173 288.35634 L 297.52253 273.71571 Z M 162.33305 288.35613 L 179.5439 312.04484 L 207.39164 273.71571 Z M 151.69516 302.99689 L 179.54128 312.04464 L 162.33143 288.35731 Z M 342.58373 211.69015 L 342.58304 211.6911 L 297.52091 226.33268 L 297.52091 273.71308 L 342.58304 288.35466 L 342.58373 288.35561 L 342.58373 306.4525 L 370.43209 297.40401 L 370.43209 279.30721 L 325.36996 264.66563 L 325.36929 264.66449 L 325.36996 264.66373 L 370.42986 250.02288 L 325.36996 235.38203 L 325.36929 235.38089 L 325.36996 235.38013 L 370.43209 220.73855 L 370.43209 202.64175 L 342.58373 193.59326 Z M 224.60797 250.02288 L 252.45746 288.35443 L 297.51891 273.71308 L 297.51891 226.33268 L 252.45746 211.69133 Z M 387.64718 226.33143 L 415.49623 235.38013 L 415.4969 235.38127 L 415.49623 235.38203 L 370.43633 250.02288 L 415.49623 264.66373 L 415.4969 264.66487 L 415.49623 264.66563 L 387.64718 273.71433 L 398.28383 288.35443 L 443.34527 273.71308 L 443.34527 226.33268 L 398.28383 211.69133 Z M 370.43409 279.3051 L 387.64394 273.71329 L 370.43409 250.02596 Z M 325.3735 264.66468 L 370.43209 279.3051 L 370.43209 250.02426 Z M 387.64594 273.71263 L 415.49269 264.66468 L 370.43571 250.02478 Z M 134.48231 250.02288 L 151.69354 273.71211 L 168.90477 250.02288 L 151.69354 226.33366 Z M 168.90725 250.02288 L 179.54428 264.6635 L 224.6035 250.02288 L 179.54428 235.38226 Z M 196.75761 164.3083 L 224.60754 202.64043 L 224.60741 202.64175 L 224.60642 202.64197 L 179.54652 188.00113 L 207.39507 226.33136 L 207.39494 226.33268 L 207.39395 226.3329 L 162.33182 211.69133 L 151.69478 226.33195 L 168.90601 250.02118 L 179.54309 235.38049 L 179.54421 235.38013 L 224.60635 250.0217 L 252.45584 211.69015 L 224.60592 173.35802 L 224.60592 173.35684 L 235.243 158.71616 L 207.39464 149.66768 Z M 325.3735 235.38108 L 370.43209 250.0215 L 370.43209 220.74066 Z M 370.43571 250.02098 L 415.49269 235.38108 L 387.64594 226.33313 Z M 370.43409 250.0198 L 387.64394 226.33247 L 370.43409 220.74066 Z M 235.24624 158.71511 L 252.45739 164.30735 L 252.45808 164.3083 L 252.45808 211.68942 L 297.51953 226.33077 L 325.36946 187.99863 L 325.37058 187.99827 L 342.58173 193.59051 L 342.58173 164.30902 L 325.37065 158.71681 L 297.52072 197.04894 L 297.51943 197.04923 L 297.51891 197.04835 L 297.51891 149.66958 L 269.67036 187.99981 L 269.66907 188.0001 L 269.66855 187.99922 L 269.66855 140.61809 L 252.45747 135.02587 Z M 162.33305 211.68963 L 207.39164 226.33005 L 179.5439 188.00093 Z M 297.52253 226.33005 L 342.58173 211.68942 L 342.58173 193.59261 L 325.37065 188.0004 Z M 151.69516 197.04888 L 162.33143 211.68845 L 179.54128 188.00112 Z M 224.60797 173.35743 L 252.45608 211.68707 L 252.45608 164.30903 L 235.245 158.71681 Z M 106.63196 164.3083 L 134.48145 202.63984 L 151.69192 197.04783 L 134.48026 173.35802 L 134.48039 173.3567 L 134.48138 173.35648 L 179.54128 187.99732 L 151.69273 149.66709 L 151.69286 149.66577 L 151.69385 149.66555 L 179.5429 158.71425 L 179.5429 140.6181 L 134.48145 125.97675 Z M 342.58373 193.59116 L 370.43209 202.63964 L 370.43209 173.35816 L 342.58373 164.30967 Z M 179.54552 187.9987 L 224.60411 202.63912 L 196.75637 164.31 Z M 151.69392 197.04718 L 179.54066 187.99922 L 134.48369 173.35933 Z M 297.52091 197.04527 L 325.36865 158.71616 L 297.52091 149.66788 Z M 179.5449 187.99614 L 196.75475 164.30882 L 179.5449 158.71701 Z M 269.67055 187.99614 L 297.51829 149.66702 L 269.67055 140.61874 Z M 179.5429 187.99614 L 179.5429 158.71636 L 151.69616 149.6684 Z M 207.39588 149.66598 L 235.24423 158.71446 L 252.45546 135.02522 L 224.60711 125.97675 Z M 297.52314 149.6665 L 325.36927 158.71426 L 325.36927 140.61874 Z M 297.52253 149.6646 L 325.36927 140.61664 L 325.36927 111.33685 Z M 269.67117 140.61684 L 297.51729 149.6646 L 280.30744 125.97727 Z M 280.30868 125.97557 L 297.51891 149.66342 L 297.51891 102.28772 Z M 269.67079 111.33377 L 280.30744 125.97387 L 297.5191 102.28405 L 297.52039 102.28376 L 297.52091 102.28464 L 297.52091 149.66341 L 325.36946 111.33318 L 325.37075 111.33289 L 325.37127 111.33377 L 325.37127 140.61599 L 342.58173 135.02397 L 342.58173 87.64357 L 297.52029 73.00222 Z" fill-opacity="0" stroke-miterlimit="10"/><path fill="rgb(0,0,0)" stroke="#cccccc" paint-order="fill stroke markers" d=" M 755.19341 92.48681 L 755.1941 92.48776 L 755.1941 134.6551 L 779.97894 126.60202 L 779.9797 126.60235 L 779.98006 126.60238 L 820.08489 181.80194 L 820.08489 181.80312 L 804.76702 202.88637 L 844.87054 215.91679 L 844.87123 215.91774 L 844.87123 284.14816 L 844.87054 284.14911 L 804.76702 297.17954 L 820.08489 318.26278 L 820.08481 318.2636 L 820.08489 318.26396 L 779.98006 373.46353 L 779.97894 373.46389 L 755.1941 365.41081 L 755.1941 407.57815 L 755.19341 407.5791 L 690.30243 428.66346 L 690.30131 428.6631 L 665.51597 394.549 L 650.19809 415.63225 L 650.19727 415.63244 L 650.19697 415.63261 L 585.30599 394.54825 L 585.3053 394.5473 L 585.3053 368.48697 L 545.20178 381.5174 L 545.20066 381.51704 L 505.09582 326.31747 L 505.09582 326.31629 L 529.88116 292.20219 L 505.09632 284.14911 L 505.09563 284.14816 L 505.09563 215.91774 L 505.09632 215.91679 L 529.88116 207.86371 L 505.09582 173.74962 L 505.09582 173.74844 L 545.20066 118.54887 L 545.20148 118.54868 L 545.20178 118.54851 L 585.3053 131.57894 L 585.3053 105.51861 L 585.30585 105.51799 L 585.30599 105.51766 L 650.19697 84.4333 L 650.19809 84.43366 L 665.51597 105.51691 L 690.30131 71.40281 L 690.30243 71.40245 Z M 674.98467 339.34773 L 690.30293 360.4315 L 690.30285 360.43232 L 690.30293 360.43268 L 665.51721 394.5473 L 690.3025 428.66133 L 755.1921 407.57742 L 755.1921 365.41016 L 715.08796 352.37953 L 715.08727 352.37858 L 715.08727 326.31761 L 690.3025 318.26455 Z M 585.3073 368.48633 L 585.3073 394.54657 L 650.1969 415.63048 L 665.51473 394.5473 L 634.87822 352.37976 Z M 650.19852 373.46294 L 665.51597 394.54559 L 690.30088 360.43209 L 674.98343 339.34943 Z M 569.98843 305.23311 L 569.98731 305.23347 L 529.88317 292.20284 L 505.09787 326.31688 L 545.20185 381.51527 L 585.3053 368.48487 L 585.3053 326.31688 L 585.30599 326.31593 L 610.09145 318.26264 L 610.09145 292.20239 L 585.30669 284.14934 Z M 755.1941 313.28676 L 755.1941 365.4087 L 779.97887 373.46176 L 820.08284 318.26337 L 804.76501 297.18019 Z M 650.19828 347.40197 L 650.19828 373.45986 L 674.98081 339.34963 Z M 634.88022 352.3791 L 650.19628 373.45985 L 650.19628 347.40261 Z M 585.3073 326.31761 L 585.3073 368.48422 L 610.09145 360.43136 L 610.09145 318.26475 Z M 715.08927 352.37785 L 755.1921 365.40806 L 755.1921 339.34846 L 715.08927 326.31826 Z M 610.09507 360.43019 L 634.87698 352.37806 L 625.41113 339.34943 Z M 610.09345 360.42901 L 625.4099 339.34773 L 610.09345 318.26645 Z M 625.41237 339.34773 L 634.87899 352.3774 L 650.19628 347.40051 L 650.19628 305.23561 Z M 650.19828 347.39986 L 674.98181 339.3472 L 650.19828 305.2356 Z M 610.09407 318.2639 L 625.41113 339.34603 L 650.19467 305.23442 Z M 715.0915 326.31688 L 755.19048 339.34583 L 739.87403 318.26455 Z M 674.98443 339.34465 L 690.30049 318.26389 L 674.98443 313.2874 Z M 739.87604 318.2639 L 755.1921 339.34465 L 755.1921 313.2874 Z M 674.98243 339.34464 L 674.98243 313.28675 L 650.1999 305.23442 Z M 715.08927 326.3155 L 739.8728 318.26285 L 715.08927 284.15125 Z M 690.30373 318.26285 L 715.08565 326.31498 L 699.76958 305.23422 Z M 699.77082 305.23252 L 715.08727 326.3138 L 715.08727 284.15123 Z M 739.8748 318.2622 L 755.1921 313.2853 L 755.1921 297.17974 L 715.09088 284.15006 Z M 610.09507 318.26147 L 650.19405 305.23252 L 625.41152 297.18019 Z M 674.98443 313.2853 L 690.2995 318.26147 L 674.98443 297.18208 Z M 610.09345 318.26029 L 625.40951 297.17953 L 610.09345 292.20304 Z M 674.98443 297.17867 L 690.30112 318.26029 L 690.30112 292.202 L 674.98443 271.12039 Z M 690.30312 318.26028 L 699.76834 305.23252 L 690.30312 292.20476 Z M 755.1941 313.28465 L 779.97602 305.23252 L 755.1941 297.18039 Z M 650.19891 305.232 L 674.98243 313.28465 L 674.98243 297.17933 L 665.51597 284.14987 Z M 529.8844 292.20114 L 569.98724 305.23134 L 585.30468 284.14868 L 545.20185 271.11848 Z M 755.19472 271.11783 L 779.97963 305.23134 L 804.76378 297.17849 L 779.97887 263.06498 Z M 634.87922 284.14901 L 625.41275 297.17849 L 650.19628 305.23114 L 650.19628 279.1722 Z M 690.30312 292.20135 L 699.76958 305.23081 L 715.08665 284.14868 L 690.30312 276.09603 Z M 755.1941 297.17829 L 779.97663 305.23062 L 755.1941 271.12039 Z M 650.19828 279.17155 L 650.19828 305.22945 L 665.51473 284.14816 L 659.66437 276.09583 Z M 779.98006 237.00269 L 779.97894 237.00305 L 755.19348 228.94977 L 739.87565 250.03295 L 755.19348 271.11613 L 779.97894 263.06285 L 779.98006 263.06321 L 804.76578 297.17784 L 844.86923 284.14743 L 844.86923 215.91847 L 804.76578 202.88807 Z M 610.09569 292.20167 L 625.41075 297.17783 L 634.87598 284.15006 Z M 715.0915 284.14816 L 755.1921 297.17764 L 755.1921 271.11868 Z M 665.51721 284.14816 L 674.98243 297.17592 L 674.98243 271.1204 Z M 505.09763 215.91847 L 505.09763 284.14743 L 529.8824 292.20049 L 560.51891 250.03295 L 529.88239 207.86541 Z M 585.30953 284.14816 L 610.09145 292.20029 L 610.09145 276.09603 Z M 625.41176 271.11816 L 610.09507 292.19977 L 634.87797 284.14731 L 650.19466 263.0657 Z M 690.30112 292.19859 L 690.30112 276.09538 L 674.98605 271.11921 Z M 610.09345 276.09538 L 610.09345 292.19859 L 625.40852 271.11921 Z M 569.98924 263.06433 L 585.3063 284.14646 L 610.08983 250.03485 Z M 699.7712 263.06433 L 715.08826 284.14646 L 730.40533 263.06432 L 715.08827 258.08751 Z M 659.66637 276.09518 L 665.51597 284.14646 L 674.98082 271.11921 Z M 634.88122 284.14626 L 650.19628 279.17009 L 650.19628 263.06688 Z M 690.30312 266.14069 L 690.30312 276.09393 L 715.08564 284.14626 L 699.7692 263.06498 Z M 545.2047 271.11731 L 585.30368 284.14626 L 569.98723 263.06498 Z M 585.30892 284.14626 L 610.09145 276.09392 L 610.09145 250.03603 Z M 715.09088 284.14626 L 755.18987 271.11731 L 730.40733 263.06498 Z M 650.19828 279.16944 L 659.66313 276.09413 L 650.19828 263.06687 Z M 659.66514 276.09348 L 674.9802 271.11731 L 650.19991 263.0657 Z M 674.98667 271.11731 L 690.30112 276.09328 L 690.30112 266.14134 Z M 610.09345 276.09328 L 625.41051 271.11646 L 634.87698 258.08698 L 610.09345 250.03432 Z M 650.19828 237.00283 L 650.19828 263.06307 L 674.98305 271.11613 L 690.30088 250.03296 L 674.98305 228.94977 Z M 545.20408 271.11541 L 569.986 263.06328 L 560.52015 250.03466 Z M 625.41376 271.11541 L 650.19405 263.0638 L 634.87899 258.08763 Z M 674.98606 271.11541 L 690.30112 266.13924 L 690.30112 250.03603 Z M 730.40857 263.06328 L 755.19048 271.11541 L 739.87441 250.03466 Z M 690.30312 266.13859 L 699.76796 263.06328 L 690.30312 250.03604 Z M 560.52139 250.03295 L 569.988 263.06263 L 610.08922 250.03295 L 569.988 237.00327 Z M 699.76997 263.06263 L 715.08504 258.08646 L 690.30473 250.03485 Z M 715.0915 258.08646 L 730.40656 263.06262 L 739.87179 250.03485 Z M 634.88022 258.08593 L 650.19466 263.0619 L 640.72982 250.03465 Z M 640.73106 250.03295 L 650.19628 263.06071 L 650.19628 237.00519 Z M 690.30535 250.03295 L 715.08827 258.08541 L 739.87119 250.03295 L 715.08827 241.98049 Z M 610.09569 250.03295 L 634.87822 258.08528 L 640.72858 250.03295 L 634.87822 241.98062 Z M 610.09345 250.03158 L 634.87698 241.97892 L 625.41051 228.94944 L 610.09345 223.97262 Z M 730.40857 237.00262 L 739.87441 250.03125 L 755.19048 228.95049 Z M 560.52015 250.03125 L 569.986 237.00262 L 545.20408 228.95049 Z M 634.88022 241.97997 L 640.72982 250.03125 L 650.19466 237.004 Z M 690.30474 250.03105 L 715.08504 241.97944 L 699.76997 237.00328 Z M 569.98924 237.00157 L 610.08983 250.03105 L 585.3063 215.91944 Z M 715.0915 241.97944 L 739.87179 250.03104 L 730.40656 237.00328 Z M 690.30112 250.02988 L 690.30112 233.92666 L 674.98605 228.95049 Z M 610.09145 250.02987 L 610.09145 223.97198 L 585.30892 215.91964 Z M 690.30312 250.02987 L 699.76797 237.00262 L 690.30312 233.92731 Z M 699.77121 237.00158 L 715.08827 241.97839 L 730.40533 237.00158 L 715.08827 215.91945 Z M 634.87899 241.97827 L 650.19405 237.0021 L 625.41376 228.95049 Z M 545.2047 228.94859 L 569.98723 237.00092 L 585.30368 215.91964 Z M 690.30312 223.97197 L 690.30312 233.92521 L 699.7692 237.00092 L 715.08565 215.91964 Z M 730.40733 237.00092 L 755.18987 228.94859 L 715.09088 215.91964 Z M 755.19472 228.94807 L 779.97887 237.00092 L 804.76378 202.88742 L 779.97963 194.83456 Z M 650.19991 237.0002 L 674.9802 228.94859 L 659.66514 223.97242 Z M 625.41176 228.94774 L 650.19466 237.0002 L 634.87797 215.91859 L 610.09507 207.86613 Z M 650.19828 236.99903 L 659.66313 223.97177 L 650.19828 220.89646 Z M 650.19628 236.99902 L 650.19628 220.89581 L 634.88122 215.91964 Z M 674.98667 228.94859 L 690.30112 233.92456 L 690.30112 223.97262 Z M 529.8844 207.86476 L 545.20185 228.94742 L 585.30468 215.91722 L 569.98724 194.83456 Z M 715.0915 215.91774 L 755.1921 228.94722 L 755.1921 202.88826 Z M 610.09345 223.97052 L 625.40852 228.94669 L 610.09345 207.86731 Z M 659.66637 223.97072 L 674.98081 228.94669 L 665.51597 215.91945 Z M 674.98605 228.94669 L 690.30112 223.97052 L 690.30112 207.86731 Z M 674.98443 202.88723 L 674.98443 228.94551 L 690.30112 207.8639 L 690.30112 181.80561 Z M 755.1941 202.88761 L 755.1941 228.94551 L 779.97663 194.83528 Z M 665.5172 215.91774 L 674.98243 228.94551 L 674.98243 202.88998 Z M 650.19828 220.89435 L 659.66437 223.97007 L 665.51473 215.91774 L 650.19828 194.83646 Z M 690.30312 207.86456 L 690.30312 223.96987 L 715.08664 215.91722 L 699.76958 194.83509 Z M 585.30954 215.91774 L 610.09145 223.96987 L 610.09145 207.86561 Z M 625.41275 202.88742 L 634.87922 215.91689 L 650.19628 220.8937 L 650.19628 194.83476 Z M 505.09787 173.74903 L 529.88316 207.86306 L 569.98731 194.83243 L 569.98807 194.83276 L 569.98843 194.83279 L 585.30669 215.91657 L 610.09145 207.86351 L 610.09145 181.80326 L 585.30599 173.74998 L 585.3053 173.74903 L 585.3053 131.58104 L 545.20185 118.55064 Z M 650.1989 194.83391 L 665.51597 215.91604 L 674.98243 202.88657 L 674.98243 186.78125 Z M 610.09569 207.86423 L 634.87598 215.91584 L 625.41075 202.88807 Z M 715.09089 215.91584 L 755.1921 202.88616 L 755.1921 186.7806 L 739.8748 181.80371 Z M 699.77082 194.83339 L 715.08727 215.91467 L 715.08727 173.75211 Z M 715.08927 215.91466 L 739.8728 181.80306 L 715.08927 173.75041 Z M 610.09345 207.86286 L 625.40951 202.88637 L 610.09345 181.80561 Z M 690.30312 207.86115 L 699.76834 194.83339 L 690.30312 181.80563 Z M 625.41152 202.88572 L 650.19406 194.83338 L 610.09508 181.80444 Z M 755.1941 134.6572 L 755.1941 186.77915 L 804.76501 202.88572 L 820.08284 181.80253 L 779.97887 126.60415 Z M 755.1941 202.88551 L 779.97601 194.83338 L 755.1941 186.78125 Z M 674.98443 186.7806 L 674.98443 202.88382 L 690.29949 181.80444 Z M 690.30373 181.80306 L 699.76958 194.83168 L 715.08565 173.75093 Z M 650.19989 194.83149 L 674.98243 186.77915 L 674.98243 160.72126 Z M 610.09407 181.80201 L 650.19466 194.83148 L 625.41113 160.71988 Z M 625.41237 160.71818 L 650.19628 194.8303 L 650.19628 152.6654 L 634.87898 147.6885 Z M 650.19828 194.8303 L 674.98181 160.7187 L 650.19828 152.66605 Z M 739.87604 181.80201 L 755.1921 186.7785 L 755.1921 160.72126 Z M 674.98443 186.7785 L 690.30049 181.80201 L 674.98443 160.72126 Z M 665.51721 105.51861 L 690.30293 139.63323 L 690.30293 139.63441 L 674.98467 160.71818 L 690.3025 181.80136 L 715.08727 173.7483 L 715.08727 147.68732 L 715.08796 147.68637 L 755.1921 134.65575 L 755.1921 92.48849 L 690.3025 71.40458 Z M 715.0915 173.74903 L 739.87403 181.80136 L 755.19048 160.72008 Z M 585.3073 173.7483 L 610.09145 181.80116 L 610.09145 139.63455 L 585.3073 131.58169 Z M 610.09345 181.79945 L 625.40989 160.71818 L 610.09345 139.6369 Z M 715.08927 147.68805 L 715.08927 173.74765 L 755.1921 160.71745 L 755.1921 134.65785 Z M 625.41113 160.71647 L 634.87698 147.68785 L 610.09507 139.63572 Z M 650.19852 126.60297 L 674.98343 160.71647 L 690.30088 139.63382 L 665.51597 105.52032 Z M 650.19828 152.66394 L 674.98081 160.71628 L 650.19828 126.60605 Z M 634.88022 147.6868 L 650.19628 152.6633 L 650.19628 126.60605 Z M 585.3073 105.51934 L 585.3073 131.57958 L 634.87821 147.68615 L 665.51473 105.51861 L 650.1969 84.43543 Z" fill-opacity="0" stroke-miterlimit="10"/><path fill="rgb(0,0,0)" stroke="#cccccc" paint-order="fill stroke markers" d=" M 1170.1643 99.11317 L 1170.16499 99.11412 L 1170.16499 178.78441 L 1245.93594 203.40388 L 1245.93663 203.40483 L 1245.93663 296.68527 L 1245.93594 296.68622 L 1170.16499 321.30569 L 1170.16499 400.97598 L 1170.1643 400.97693 L 1081.44933 429.80217 L 1081.44821 429.80181 L 1034.61919 365.34719 L 958.84825 389.96666 L 958.84713 389.9663 L 904.01827 314.50084 L 904.01827 314.49966 L 950.84728 250.04505 L 904.01827 185.59044 L 904.01827 185.58926 L 958.84713 110.1238 L 958.84825 110.12344 L 1034.61919 134.74291 L 1081.44821 70.28829 L 1081.44933 70.28793 Z M 1157.22128 325.51135 L 1136.27889 354.33609 L 1136.27889 389.96571 L 1136.27861 389.96603 L 1136.27857 389.96644 L 1136.27817 389.96653 L 1136.27802 389.9667 L 1136.27789 389.96659 L 1136.27758 389.96666 L 1115.33552 383.16217 L 1102.3926 400.97657 L 1102.39248 400.9766 L 1102.39247 400.97671 L 1102.39212 400.97668 L 1102.39131 400.97686 L 1102.39115 400.97659 L 1102.39098 400.97657 L 1081.4484 372.15158 L 1047.56292 361.14152 L 1034.6212 365.34654 L 1081.4494 429.80004 L 1170.16299 400.97525 L 1170.16299 321.30634 Z M 1102.39279 400.9729 L 1115.33351 383.16152 L 1102.39279 378.95682 Z M 1102.39079 400.9729 L 1102.39079 378.95617 L 1081.45164 372.15263 Z M 904.02032 314.50025 L 958.84832 389.96453 L 1034.61796 365.34549 L 1026.61953 354.3366 L 992.73405 343.32654 L 958.84825 354.3367 L 958.84787 354.33654 L 958.84746 354.33663 L 958.84725 354.33627 L 958.84704 354.33618 L 958.8471 354.33603 L 958.84694 354.33575 L 958.84694 332.31595 L 937.90487 325.51146 L 937.90481 325.51136 L 937.9047 325.51139 L 937.90462 325.51104 L 937.9042 325.51032 L 937.90441 325.51009 L 937.90437 325.50992 L 958.84694 296.68495 L 958.84694 261.05564 L 950.84852 250.04675 Z M 1115.33675 383.16047 L 1136.27527 389.96381 L 1123.33455 372.15244 Z M 1123.33579 372.15074 L 1136.27689 389.96263 L 1136.27689 354.33884 Z M 1102.39279 378.95472 L 1115.33475 383.15982 L 1123.33331 372.15074 L 1102.39279 343.32858 Z M 1081.45064 372.15021 L 1102.39079 378.95407 L 1102.39079 343.32856 Z M 1123.33455 372.14903 L 1136.27628 354.33628 L 1102.3944 343.32739 Z M 1081.44902 372.14902 L 1102.39017 343.32601 L 1047.56554 325.51241 Z M 1047.56392 361.13974 L 1081.4464 372.14883 L 1047.56392 325.51359 Z M 1034.61996 365.34484 L 1047.55969 361.14047 L 1026.62277 354.33765 Z M 1026.62177 354.33523 L 1047.56192 361.13909 L 1047.56192 325.51358 Z M 992.73728 343.32549 L 1026.61977 354.33457 L 1047.56029 325.51241 Z M 1102.39341 343.32496 L 1136.27689 354.33437 L 1136.27689 296.68835 Z M 958.85056 354.33385 L 992.73081 343.32549 L 971.79167 336.52195 Z M 1136.27889 354.33268 L 1157.21942 325.51052 L 1136.27889 296.68835 Z M 958.84894 354.33267 L 971.78966 336.5213 L 958.84894 332.3166 Z M 971.7929 336.52025 L 992.73305 343.32411 L 992.73305 307.69861 Z M 992.73505 343.32411 L 1047.55968 325.51051 L 992.73505 307.69691 Z M 1047.56453 325.50999 L 1102.38916 343.32358 L 1081.44821 314.50084 L 1081.44821 314.49966 L 1089.44683 303.49051 L 1068.50606 296.68644 Z M 1081.45026 314.50025 L 1102.39079 343.32242 L 1102.39079 307.69626 L 1089.44883 303.49116 Z M 1089.45007 303.48946 L 1102.3921 307.69458 L 1102.39279 307.69553 L 1102.39279 343.3224 L 1136.27627 296.68579 L 1102.39217 285.67618 Z M 958.84894 318.70652 L 958.84894 332.3145 L 971.7909 336.5196 L 992.73142 307.69744 Z M 937.90841 325.51051 L 958.84694 332.31385 L 958.84694 318.70717 Z M 1026.62115 296.68527 L 1026.62046 296.68622 L 992.73728 307.69553 L 1047.56192 325.50914 L 1047.56192 289.88128 L 1026.62115 283.07721 Z M 1157.22065 325.50881 L 1170.16238 307.69606 L 1136.28051 296.68717 Z M 937.9078 325.50861 L 958.84694 318.70507 L 958.84694 296.68836 Z M 1157.22328 325.5086 L 1170.16299 321.30424 L 1170.16299 307.69862 Z M 1047.56392 325.50742 L 1068.50406 296.68579 L 1047.56392 289.88193 Z M 1170.16499 192.39423 L 1191.10738 221.21896 L 1224.99317 232.22912 L 1224.99338 232.22948 L 1224.99376 232.22964 L 1224.99372 232.23006 L 1224.99384 232.23026 L 1224.9937 232.23034 L 1224.99367 232.23066 L 1212.05076 250.04505 L 1224.99367 267.85944 L 1224.99363 267.85986 L 1224.99384 267.86022 L 1224.99356 267.86054 L 1224.99354 267.86076 L 1224.99338 267.86074 L 1224.99317 267.86098 L 1191.10738 278.87114 L 1170.16499 307.69587 L 1170.16499 321.30359 L 1245.93463 296.68454 L 1245.93463 203.40556 L 1170.16499 178.78651 Z M 958.84894 318.70442 L 992.73081 307.69553 L 958.84894 296.68665 Z M 1136.28112 296.68527 L 1170.16361 307.69436 L 1191.10414 278.87219 Z M 958.84956 296.68475 L 992.73305 307.69416 L 992.73305 250.04813 Z M 992.73666 307.69363 L 1026.61915 296.68454 L 1026.61915 283.07656 L 1013.67719 278.87147 Z M 992.73505 307.69244 L 1013.676 278.8697 L 1013.67712 278.86934 L 1026.61915 283.07446 L 1026.61915 261.05604 L 992.73505 250.04643 Z M 1068.5073 296.68474 L 1089.44806 303.48881 L 1102.39017 285.67553 L 1081.4494 278.87147 Z M 1047.56392 289.87983 L 1068.50529 296.68409 L 1081.4474 278.87082 L 1047.56392 267.86141 Z M 1115.33636 267.86003 L 1136.27789 296.68357 L 1170.16138 250.04695 L 1136.2782 261.05626 L 1136.27708 261.0559 L 1128.27847 250.04675 Z M 1136.28051 296.68337 L 1191.10514 278.86977 L 1170.164 250.04675 Z M 1102.39341 285.67448 L 1136.27527 296.68337 L 1115.33513 267.86174 Z M 958.84894 261.05604 L 958.84894 296.68219 L 992.73143 250.04695 Z M 1026.62115 283.07511 L 1047.56192 289.87918 L 1047.56192 267.86076 L 1026.62115 261.05669 Z M 1081.45064 278.86977 L 1102.3914 285.67383 L 1115.33389 267.86003 L 1102.39178 250.04675 Z M 1047.56392 232.23079 L 1047.56392 267.85931 L 1081.44863 278.86912 L 1102.39054 250.04505 L 1081.44864 221.22098 Z M 1191.10676 278.86858 L 1204.04848 261.05584 L 1170.16662 250.04696 Z M 1191.10938 278.86839 L 1224.98963 267.86003 L 1204.05048 261.05649 Z M 1026.62115 239.03551 L 1026.62115 261.05459 L 1047.56192 267.85866 L 1047.56192 232.23144 Z M 1102.39302 250.04505 L 1115.33513 267.85833 L 1128.27723 250.04505 L 1115.33512 232.23177 Z M 1204.05172 261.05479 L 1224.99024 267.85813 L 1212.04952 250.04675 Z M 1170.16722 250.04505 L 1204.04971 261.05414 L 1212.04828 250.04505 L 1204.04971 239.03596 Z M 1128.27971 250.04505 L 1136.27827 261.05413 L 1170.16075 250.04505 L 1136.27827 239.03597 Z M 992.73727 250.04505 L 1026.61915 261.05394 L 1026.61915 239.03616 Z M 958.84894 261.05393 L 992.73081 250.04505 L 958.84894 239.03617 Z M 950.84976 250.04505 L 958.84694 261.05223 L 958.84694 239.03787 Z M 992.73505 250.04367 L 1026.61915 239.03406 L 1026.61915 217.01564 L 1013.67712 221.22076 L 1013.676 221.2204 L 992.73505 192.39765 Z M 904.02032 185.58985 L 950.84852 250.04335 L 958.84694 239.03446 L 958.84694 203.40515 L 937.90437 174.58018 L 937.90441 174.57976 L 937.9042 174.5794 L 937.90448 174.57908 L 937.9045 174.57886 L 937.90466 174.57888 L 937.90487 174.57864 L 958.84694 167.77415 L 958.84694 145.75434 L 958.84702 145.75425 L 958.84696 145.75415 L 958.84727 145.75397 L 958.84782 145.75335 L 958.84811 145.75347 L 958.84825 145.75339 L 992.73406 156.76356 L 1026.61952 145.7535 L 1034.61795 134.74461 L 958.84832 110.12557 Z M 1115.33636 232.23007 L 1128.27847 250.04335 L 1136.27708 239.0342 L 1136.2782 239.03384 L 1170.16138 250.04315 L 1136.27789 203.40653 Z M 1204.05172 239.03531 L 1212.04952 250.04335 L 1224.99024 232.23197 Z M 1170.164 250.04335 L 1191.10514 221.22033 L 1136.28051 203.40673 Z M 1081.45064 221.22033 L 1102.39178 250.04334 L 1115.33389 232.23007 L 1102.3914 214.41627 Z M 958.84894 239.03406 L 992.73143 250.04315 L 958.84894 203.40791 Z M 1170.16662 250.04314 L 1204.04848 239.03426 L 1191.10676 221.22152 Z M 958.84956 203.40535 L 992.73305 250.04197 L 992.73305 192.39594 Z M 1204.05048 239.03361 L 1224.98963 232.23007 L 1191.10938 221.22171 Z M 1026.62115 217.01499 L 1026.62115 239.03341 L 1047.56192 232.22934 L 1047.56192 210.21092 Z M 1047.56392 210.21027 L 1047.56392 232.22869 L 1081.4474 221.21928 L 1068.5053 203.40601 Z M 1102.39341 214.41562 L 1115.33512 232.22836 L 1136.27526 203.40673 Z M 1013.67719 221.21863 L 1026.61915 217.01354 L 1026.61915 203.40556 L 992.73667 192.39647 Z M 1068.5073 203.40536 L 1081.44941 221.21863 L 1102.39017 214.41457 L 1089.44806 196.60129 Z M 1136.28112 203.40483 L 1191.10414 221.21791 L 1170.16361 192.39574 Z M 992.73728 192.39457 L 1026.62046 203.40388 L 1026.62115 203.40483 L 1026.62115 217.01289 L 1047.56192 210.20882 L 1047.56192 174.58096 Z M 1102.39279 192.39457 L 1102.3921 192.39552 L 1089.45007 196.60064 L 1102.39217 214.41392 L 1136.27627 203.40431 L 1102.39279 156.7677 Z M 1047.56392 210.20817 L 1068.50406 203.40431 L 1047.56392 174.58267 Z M 1047.56454 174.58011 L 1068.50607 203.40366 L 1089.44683 196.59959 L 1081.44821 185.59044 L 1081.44821 185.58926 L 1102.38917 156.7665 Z M 958.84894 203.40345 L 992.73081 192.39457 L 958.84894 181.38568 Z M 1136.28051 203.40293 L 1170.16238 192.39404 L 1157.22065 174.58129 Z M 1102.3934 156.76513 L 1136.27689 203.40175 L 1136.27689 145.75572 Z M 958.84694 203.40174 L 958.84694 181.38503 L 937.9078 174.58149 Z M 1136.27889 203.40174 L 1157.21942 174.57958 L 1136.27889 145.75742 Z M 1081.45026 185.58985 L 1089.44883 196.59894 L 1102.39079 192.39384 L 1102.39079 156.76768 Z M 992.73505 192.39319 L 1047.55968 174.57959 L 992.73505 156.76598 Z M 958.84894 167.7756 L 958.84894 181.38358 L 992.73143 192.39267 L 971.7909 163.5705 Z M 971.7929 163.56985 L 992.73305 192.39149 L 992.73305 156.76599 Z M 1170.16299 192.39148 L 1170.16299 178.78586 L 1157.22328 174.5815 Z M 937.90841 174.57959 L 958.84694 181.38293 L 958.84694 167.77625 Z M 1034.62119 134.74356 L 1047.56292 138.94858 L 1081.4484 127.93852 L 1102.39098 99.11353 L 1102.3911 99.1135 L 1102.39111 99.11339 L 1102.39146 99.11342 L 1102.39227 99.11324 L 1102.39243 99.11351 L 1102.3926 99.11353 L 1115.33552 116.92793 L 1136.27758 110.12344 L 1136.27796 110.1236 L 1136.27837 110.12351 L 1136.27858 110.12387 L 1136.27879 110.12396 L 1136.27873 110.12411 L 1136.27889 110.12439 L 1136.27889 145.75401 L 1157.22128 174.57875 L 1170.16299 178.78376 L 1170.16299 99.11485 L 1081.4494 70.29006 Z M 992.73729 156.76461 L 1047.5603 174.57769 L 1026.61977 145.75552 Z M 1047.56555 174.57768 L 1102.39016 156.76408 L 1081.44902 127.94108 Z M 1026.62178 145.75487 L 1047.56192 174.57651 L 1047.56192 138.95101 Z M 1047.56392 138.95036 L 1047.56392 174.57651 L 1081.4464 127.94127 Z M 958.84894 167.7735 L 971.78967 163.5688 L 958.84894 145.75742 Z M 971.79167 163.56815 L 992.73082 156.76461 L 958.85056 145.75624 Z M 1102.39441 156.7627 L 1136.27627 145.75382 L 1123.33455 127.94107 Z M 1081.45064 127.93989 L 1102.39079 156.76154 L 1102.39079 121.13603 Z M 1102.39279 121.13538 L 1102.39279 156.76152 L 1123.33331 127.93936 L 1115.33475 116.93028 Z M 1026.62276 145.75245 L 1047.55969 138.94963 L 1034.61996 134.74526 Z M 1123.33579 127.93936 L 1136.27689 145.75126 L 1136.27689 110.12747 Z M 1115.33675 116.92963 L 1123.33455 127.93766 L 1136.27527 110.12629 Z M 1081.45164 127.93747 L 1102.39079 121.13393 L 1102.39079 99.1172 Z M 1102.39279 121.13328 L 1115.33351 116.92858 L 1102.39279 99.1172 Z" fill-opacity="0" stroke-miterlimit="10"/><path fill="rgb(0,0,0)" stroke="#cccccc" paint-order="fill stroke markers" d=" M 401.83817 516.65062 L 401.83841 516.65096 L 401.83867 516.65098 L 445.17777 576.30213 L 445.17774 576.30242 L 445.17796 576.30272 L 445.17796 723.76849 L 445.17781 723.76866 L 445.17777 723.76908 L 401.83867 783.42024 L 401.83829 783.42033 L 401.83817 783.4206 L 261.58989 828.99003 L 261.58968 828.98994 L 261.58927 828.99003 L 191.46513 806.20531 L 191.46494 806.20498 L 191.46463 806.20495 L 104.78642 686.90264 L 104.78644 686.90241 L 104.78623 686.90205 L 104.78623 613.16917 L 104.78649 613.16888 L 104.78642 613.16858 L 191.46463 493.86626 L 191.46503 493.86613 L 191.46513 493.8659 L 261.58927 471.08119 L 261.58954 471.0813 L 261.58989 471.08119 Z M 288.37543 792.12323 L 288.37431 792.12359 L 261.58957 783.4207 L 234.80616 792.12316 L 261.58996 828.9879 L 331.7121 806.20384 L 304.92868 769.33963 Z M 191.46867 806.20436 L 261.58696 828.98718 L 234.80416 792.12381 Z M 148.12796 746.55373 L 191.46582 806.20318 L 234.80292 792.12211 L 218.24986 769.33878 L 191.46513 760.63589 L 191.46444 760.63494 L 191.46444 732.47285 Z M 375.05344 746.55406 L 358.49957 769.33851 L 358.49845 769.33887 L 331.71472 760.63631 L 331.71472 806.20299 L 401.83686 783.41892 L 401.83686 737.8516 Z M 304.92992 769.33792 L 331.71272 806.20128 L 331.71272 760.63566 L 315.16004 755.25737 Z M 234.80493 792.12146 L 261.58634 783.41965 L 218.25311 769.33983 Z M 261.59058 783.41893 L 288.37424 792.12146 L 304.92745 769.33792 L 288.37399 746.55405 L 261.59058 737.8516 Z M 218.2521 769.3374 L 261.58858 783.41828 L 261.58858 737.85095 L 245.0359 732.47265 Z M 401.83886 737.85095 L 401.83886 783.41657 L 445.17434 723.77039 Z M 191.46644 732.47221 L 191.46644 760.63421 L 218.25009 769.33675 L 245.0339 732.472 L 218.25047 723.76954 Z M 331.71472 732.47181 L 331.71472 760.63421 L 358.49838 769.33674 L 375.05158 746.55321 L 348.26778 709.68847 Z M 304.92868 769.33622 L 315.15804 755.25672 L 288.37724 746.55511 Z M 315.16128 755.25567 L 331.71272 760.63356 L 331.71272 732.47456 Z M 288.37624 746.55268 L 315.15928 755.25502 L 331.7121 732.47201 L 304.92907 723.76967 Z M 261.59058 737.84949 L 288.37362 746.55183 L 288.37362 718.39048 L 261.59058 709.68814 Z M 104.78847 686.90205 L 148.12634 746.55151 L 174.90976 709.68729 L 148.12603 700.98473 L 148.12534 700.98378 L 148.12534 672.82065 L 131.57227 650.03731 Z M 348.26902 709.68677 L 375.05282 746.5515 L 401.83623 709.68729 L 358.49914 695.60622 Z M 148.12896 746.55131 L 191.46444 732.47075 L 191.46444 715.06623 L 174.91176 709.68794 Z M 375.05544 746.55131 L 401.83686 737.84949 L 401.83686 709.68984 Z M 288.37562 746.55013 L 304.92706 723.76902 L 288.37562 718.39113 Z M 401.83948 664.11786 L 418.39273 686.90146 L 418.39273 686.90264 L 401.83886 709.68709 L 401.83886 737.84885 L 445.17596 723.76776 L 445.17596 650.03699 Z M 245.03714 732.47095 L 261.58858 737.84884 L 261.58858 709.68985 Z M 218.2521 723.76797 L 245.03513 732.4703 L 261.58796 709.68729 L 234.80493 700.98495 Z M 191.46644 732.4701 L 218.24724 723.76849 L 191.46644 715.06688 Z M 315.1609 709.68677 L 331.71372 732.46978 L 348.26654 709.68677 L 331.71372 686.90376 Z M 304.9303 723.76797 L 331.7111 732.46958 L 315.15966 709.68847 Z M 288.37562 718.38903 L 304.9283 723.76732 L 315.15842 709.68677 L 288.37562 672.8234 Z M 191.46644 715.06478 L 218.24948 723.76712 L 218.24948 695.60576 L 191.46644 686.90343 Z M 218.25148 723.76541 L 234.80292 700.9843 L 218.25148 695.60641 Z M 261.5912 709.68624 L 288.37362 718.38838 L 288.37362 672.8234 Z M 174.913 709.68624 L 191.46444 715.06413 L 191.46444 686.90513 Z M 148.12734 672.82105 L 148.12734 700.98305 L 174.91099 709.68559 L 191.46444 686.90172 L 191.46444 658.73997 Z M 375.05345 672.82117 L 358.50038 695.60452 L 401.83747 709.68559 L 418.39068 686.90205 L 401.83747 664.11851 Z M 234.80616 700.98325 L 261.58858 709.68539 L 261.58858 664.12042 Z M 315.15966 709.68506 L 331.7121 686.90258 L 288.37724 672.82223 Z M 348.26778 709.68506 L 358.49714 695.60556 L 331.71634 686.90395 Z M 261.59058 709.68368 L 288.373 672.82085 L 261.59058 664.11871 Z M 218.25148 678.19979 L 218.25148 695.60431 L 234.80416 700.9826 L 261.58696 664.11924 Z M 331.71534 686.90153 L 358.49837 695.60386 L 375.0512 672.82085 L 348.26817 664.11851 Z M 191.46867 686.90205 L 218.24948 695.60366 L 218.24948 678.20044 Z M 191.46644 658.73932 L 191.46644 686.90067 L 218.24948 678.19834 L 218.24948 650.03698 Z M 331.71372 686.90035 L 348.26616 664.11786 L 304.9313 650.03751 Z M 288.37624 672.8198 L 331.7111 686.90015 L 304.92868 650.03731 Z M 104.78823 686.89897 L 131.57103 650.03561 L 104.78823 613.17225 Z M 218.25148 678.19769 L 261.58635 664.11734 L 218.25148 650.03698 Z M 261.59058 635.9546 L 261.59058 664.11661 L 288.37423 672.81915 L 304.92744 650.03561 L 288.37423 627.25207 Z M 148.12734 672.81894 L 191.46444 658.73787 L 191.46444 641.33334 L 148.12734 627.25227 Z M 358.5 650.03561 L 375.05282 672.81862 L 391.60565 650.03561 L 375.05282 627.2526 Z M 375.05545 672.81842 L 401.83624 664.11681 L 391.60688 650.03731 Z M 348.2694 664.11681 L 375.0502 672.81842 L 358.49876 650.03731 Z M 131.57351 650.03561 L 148.12534 672.81724 L 148.12534 627.25397 Z M 304.93191 650.03561 L 348.2674 664.11616 L 358.49752 650.03561 L 348.2674 635.95505 Z M 391.60812 650.03561 L 401.83824 664.11616 L 445.17373 650.03561 L 401.83824 635.95506 Z M 218.25371 650.03561 L 261.58858 664.11596 L 261.58858 635.95525 Z M 191.46644 658.73722 L 218.24724 650.03561 L 191.46644 641.33399 Z M 218.25148 650.03423 L 261.58634 635.95388 L 218.25148 621.87353 Z M 401.83886 590.38413 L 418.39273 613.16858 L 418.39273 613.16976 L 401.83948 635.95335 L 445.17596 650.03423 L 445.17596 576.30345 L 401.83886 562.22237 Z M 191.46644 641.33189 L 218.24948 650.03423 L 218.24948 621.87288 L 191.46644 613.17055 Z M 391.60688 650.03391 L 401.83624 635.9544 L 375.05544 627.25279 Z M 288.37623 627.25142 L 304.92868 650.03391 L 331.7111 613.17107 Z M 104.78847 613.16917 L 131.57227 650.0339 L 148.12534 627.25056 L 148.12534 599.08744 L 148.12603 599.08649 L 174.90976 590.38393 L 148.12634 553.51971 Z M 348.2694 635.9544 L 358.49876 650.0339 L 375.0502 627.25279 Z M 304.9313 650.03371 L 348.26616 635.95335 L 331.71372 613.17087 Z M 148.12734 599.08817 L 148.12734 627.25016 L 191.46444 641.33124 L 191.46444 613.1695 L 174.91099 590.38563 Z M 331.71534 613.16969 L 348.26817 635.9527 L 375.0512 627.25037 L 358.49837 604.46735 Z M 358.50038 604.4667 L 375.05344 627.25004 L 401.83748 635.9527 L 418.39068 613.16917 L 401.83747 590.38563 Z M 261.59058 635.9525 L 288.373 627.25037 L 261.59058 590.38754 Z M 218.25148 604.46691 L 218.25148 621.87143 L 261.58696 635.95198 L 234.80416 599.08862 Z M 234.80617 599.08796 L 261.58858 635.9508 L 261.58858 590.38583 Z M 288.37724 627.24899 L 331.7121 613.16864 L 315.15966 590.38616 Z M 261.5912 590.38498 L 288.37362 627.24782 L 288.37362 581.68284 Z M 288.37562 581.68219 L 288.37562 627.24781 L 315.15842 590.38445 L 304.9283 576.3039 Z M 191.46867 613.16917 L 218.24948 621.87078 L 218.24948 604.46756 Z M 191.46644 585.00644 L 191.46644 613.16779 L 218.24948 604.46546 L 218.24948 576.3041 Z M 315.1609 590.38445 L 331.71372 613.16746 L 348.26654 590.38445 L 331.71372 567.60144 Z M 331.71634 613.16726 L 358.49714 604.46565 L 348.26778 590.38616 Z M 174.913 590.38498 L 191.46444 613.16609 L 191.46444 585.00709 Z M 348.26902 590.38445 L 358.49914 604.465 L 401.83623 590.38393 L 375.05282 553.51972 Z M 218.25148 604.46481 L 234.80293 599.08692 L 218.25148 576.3058 Z M 218.2521 576.30325 L 234.80493 599.08626 L 261.58796 590.38393 L 245.03513 567.60092 Z M 174.91176 590.38328 L 191.46444 585.00499 L 191.46444 567.60046 L 148.12896 553.51991 Z M 261.59058 562.22173 L 261.59058 590.38308 L 288.37362 581.68074 L 288.37362 553.51939 Z M 304.9303 576.30325 L 315.15966 590.38275 L 331.7111 567.60164 Z M 331.71472 539.43701 L 331.71472 567.59941 L 348.26778 590.38275 L 375.05158 553.51801 L 358.49838 530.73448 Z M 401.83686 590.38138 L 401.83686 562.22172 L 375.05544 553.51991 Z M 245.03714 567.60027 L 261.58858 590.38137 L 261.58858 562.22238 Z M 191.46644 585.00434 L 218.24726 576.30272 L 191.46644 567.60111 Z M 288.37562 581.68009 L 304.92706 576.3022 L 288.37562 553.52109 Z M 191.46644 539.43701 L 191.46644 567.59901 L 218.25049 576.30167 L 245.0339 567.59922 L 218.25009 530.73447 Z M 288.37624 553.51854 L 304.92907 576.30155 L 331.7121 567.59921 L 315.15928 544.8162 Z M 401.83886 562.22027 L 445.17434 576.30082 L 401.83886 516.65465 Z M 218.2521 530.73382 L 245.0359 567.59857 L 261.58858 562.22027 L 261.58858 516.65294 Z M 148.12796 553.51748 L 191.46444 567.59836 L 191.46444 539.43628 L 191.46513 539.43533 L 218.24986 530.73244 L 234.80292 507.94911 L 191.46582 493.86803 Z M 315.16128 544.81555 L 331.71272 567.59666 L 331.71272 539.43766 Z M 261.59058 516.65229 L 261.59058 562.21962 L 288.37399 553.51717 L 304.92744 530.73329 L 288.37424 507.94976 Z M 331.71472 539.43491 L 358.49845 530.73235 L 358.49921 530.73268 L 358.49957 530.73271 L 375.05344 553.51716 L 401.83686 562.21962 L 401.83686 516.6523 L 331.71472 493.86823 Z M 288.37724 553.51611 L 315.15804 544.8145 L 304.92868 530.735 Z M 304.92992 530.73329 L 315.16004 544.81385 L 331.71272 539.43556 L 331.71272 493.86993 Z M 234.80616 507.94806 L 261.58957 516.65052 L 288.37431 507.94763 L 288.37543 507.94799 L 304.92868 530.73159 L 331.7121 493.86738 L 261.58996 471.08332 Z M 218.25311 530.73139 L 261.58634 516.65157 L 234.80493 507.94976 Z M 191.46867 493.86685 L 234.80416 507.94741 L 261.58696 471.08404 Z" fill-opacity="0" stroke-miterlimit="10"/><path fill="rgb(0,0,0)" stroke="#cccccc" paint-order="fill stroke markers" d=" M 801.83817 516.65062 L 801.83886 516.65157 L 801.83886 562.22027 L 845.17727 576.30177 L 845.17796 576.30272 L 845.17796 723.76849 L 845.17727 723.76944 L 801.83886 737.85095 L 801.83886 783.41965 L 801.83817 783.4206 L 661.58989 828.99003 L 661.58877 828.98967 L 634.80416 792.12381 L 591.46575 806.20531 L 591.46463 806.20495 L 504.78642 686.90264 L 504.78642 686.90146 L 531.57103 650.03561 L 504.78642 613.16976 L 504.78642 613.16858 L 591.46463 493.86626 L 591.46575 493.8659 L 634.80416 507.94741 L 661.58877 471.08155 L 661.58989 471.08119 Z M 634.80616 792.12316 L 661.58996 828.9879 L 731.71049 806.20436 L 661.58958 783.4207 Z M 591.46582 806.20318 L 634.80292 792.12211 L 618.24986 769.33877 L 548.12896 746.55511 Z M 775.05344 746.55406 L 731.71634 806.20246 L 801.83686 783.41892 L 801.83686 737.8516 Z M 661.59058 755.25692 L 661.59058 783.41892 L 731.7111 806.20246 L 688.37424 746.55439 Z M 731.71472 732.47221 L 731.71472 806.20128 L 775.05158 746.55321 L 758.49837 723.76967 Z M 688.37586 746.55321 L 731.71272 806.20128 L 731.71272 732.47221 L 704.92907 723.76967 Z M 618.2521 769.33844 L 634.80493 792.12146 L 661.58796 783.41913 L 645.03513 760.63611 Z M 645.03714 760.63546 L 661.58858 783.41657 L 661.58858 755.25757 Z M 548.12957 746.55321 L 618.2501 769.33674 L 634.80331 746.55321 L 618.2501 723.76967 Z M 618.2531 769.33602 L 645.0339 760.63441 L 634.80454 746.55491 Z M 634.80578 746.55321 L 645.0359 760.63376 L 661.58858 755.25547 L 661.58858 737.85095 L 645.0359 732.47265 Z M 661.59058 755.25482 L 688.37139 746.55321 L 661.59058 737.8516 Z M 661.59058 737.84949 L 688.37424 746.55203 L 704.92706 723.76902 L 661.59058 709.68814 Z M 775.05382 718.39048 L 775.05382 746.55183 L 801.83686 737.84949 L 801.83686 709.68815 Z M 634.80454 746.5515 L 645.0339 732.472 L 618.2531 723.77039 Z M 548.12896 746.55131 L 618.24948 723.76776 L 618.24948 695.60576 L 591.46582 686.90323 Z M 548.12734 672.82105 L 548.12734 746.55013 L 591.4642 686.90205 L 574.91099 664.11851 Z M 758.50038 723.76902 L 775.05182 746.55013 L 775.05182 718.39113 Z M 504.78847 686.90205 L 548.12534 746.55013 L 548.12534 672.82065 L 531.57227 650.03731 Z M 801.83886 709.6871 L 801.83886 737.84885 L 845.17596 723.76776 L 845.17596 650.03869 Z M 645.03714 732.47095 L 661.58858 737.84885 L 661.58858 709.68985 Z M 618.25148 723.76776 L 645.03513 732.4703 L 661.58796 709.68729 L 618.25148 695.60641 Z M 704.9303 723.76797 L 731.71334 732.4703 L 748.26654 709.68677 L 731.71372 686.90375 Z M 731.71634 732.46958 L 758.49714 723.76797 L 748.26778 709.68847 Z M 661.59282 709.68677 L 704.9283 723.76732 L 731.7111 686.90395 Z M 748.26902 709.68677 L 758.49914 723.76732 L 775.05182 718.38903 L 775.05182 700.98451 L 758.49914 695.60621 Z M 775.05382 718.38838 L 801.83463 709.68677 L 775.05382 700.98516 Z M 618.25172 650.03561 L 661.58996 709.68559 L 731.71272 686.90132 L 731.71272 613.1699 L 661.58996 590.38563 Z M 775.05382 672.82105 L 775.05382 700.98305 L 801.83748 709.68559 L 845.17434 650.03751 Z M 748.26778 709.68506 L 758.49714 695.60556 L 731.71634 686.90395 Z M 618.25148 695.60431 L 661.58695 709.68486 L 618.25148 650.03869 Z M 758.50038 695.60451 L 775.05182 700.98241 L 775.05182 672.8234 Z M 731.71534 686.90153 L 758.49837 695.60386 L 775.05158 672.82032 L 758.49876 650.03731 Z M 591.46644 658.73932 L 591.46644 686.90132 L 618.24948 695.60366 L 618.24948 650.03699 Z M 574.913 664.11786 L 591.46444 686.89897 L 591.46444 658.73997 Z M 731.71472 686.89897 L 758.49752 650.03561 L 731.71472 613.17225 Z M 758.5 650.03561 L 775.0532 672.81914 L 845.17373 650.03561 L 775.0532 627.25207 Z M 531.57351 650.03561 L 548.12634 672.81862 L 564.67917 650.03561 L 548.12634 627.25259 Z M 548.12896 672.81842 L 574.90976 664.11681 L 564.6804 650.03731 Z M 564.68164 650.03561 L 574.91176 664.11616 L 591.46444 658.73787 L 591.46444 641.33335 L 574.91176 635.95505 Z M 591.46644 658.73722 L 618.24725 650.03561 L 591.46644 641.334 Z M 591.46644 613.1699 L 591.46644 641.33189 L 618.24948 650.03423 L 618.24948 604.46756 Z M 504.78847 613.16917 L 531.57227 650.0339 L 548.12534 627.25056 L 548.12534 553.52108 Z M 564.6804 650.0339 L 574.90976 635.9544 L 548.12896 627.25279 Z M 731.71534 613.16969 L 758.49876 650.0339 L 775.05158 627.25089 L 758.49837 604.46736 Z M 775.05382 599.08817 L 775.05382 627.25016 L 845.17434 650.03371 L 801.83748 590.38563 Z M 618.25148 604.46691 L 618.25148 650.03253 L 661.58695 590.38636 Z M 801.83886 590.38412 L 845.17596 650.03253 L 845.17596 576.30345 L 801.83886 562.22237 Z M 574.913 635.95335 L 591.46444 641.33125 L 591.46444 613.17225 Z M 548.12734 627.25016 L 574.91099 635.9527 L 591.4642 613.16917 L 548.12734 553.52109 Z M 758.50038 604.46671 L 775.05182 627.24781 L 775.05182 599.08881 Z M 591.46582 613.16799 L 618.24948 604.46546 L 618.24948 576.30345 L 548.12896 553.51991 Z M 704.9303 576.30325 L 731.71372 613.16746 L 748.26655 590.38445 L 731.71334 567.60092 Z M 731.71634 613.16727 L 758.49714 604.46566 L 748.26778 590.38616 Z M 661.59282 590.38445 L 731.7111 613.16727 L 704.9283 576.3039 Z M 748.26902 590.38445 L 758.49914 604.46501 L 775.05182 599.08671 L 775.05182 581.68219 L 758.49914 576.3039 Z M 618.25148 576.30345 L 618.25148 604.46481 L 661.58796 590.38393 L 645.03513 567.60091 Z M 775.05382 599.08606 L 801.83463 590.38445 L 775.05382 581.68284 Z M 661.59058 562.22172 L 661.59058 590.38308 L 704.92706 576.3022 L 688.37424 553.51919 Z M 775.05382 581.68074 L 801.83686 590.38307 L 801.83686 562.22172 L 775.05382 553.51939 Z M 748.26778 590.38275 L 758.49714 576.30325 L 731.71634 567.60164 Z M 645.03714 567.60026 L 661.58858 590.38137 L 661.58858 562.22237 Z M 758.50038 576.3022 L 775.05182 581.68009 L 775.05182 553.52109 Z M 688.37586 553.51801 L 704.92907 576.30155 L 731.71272 567.59901 L 731.71272 493.86993 Z M 731.71472 567.59901 L 758.49837 576.30155 L 775.05158 553.51801 L 731.71472 493.86993 Z M 548.12957 553.51801 L 618.2501 576.30154 L 634.8033 553.51801 L 618.2501 530.73448 Z M 618.2531 576.30082 L 645.0339 567.59921 L 634.80454 553.51971 Z M 634.80578 553.51801 L 645.0359 567.59856 L 661.58858 562.22027 L 661.58858 544.81575 L 645.0359 539.43746 Z M 661.59058 562.21962 L 688.37139 553.51801 L 661.59058 544.8164 Z M 775.05344 553.51716 L 801.83686 562.21962 L 801.83686 516.6523 L 731.71635 493.86876 Z M 661.59058 516.6523 L 661.59058 544.8143 L 688.37424 553.51683 L 731.7111 493.86875 Z M 634.80454 553.51631 L 645.0339 539.43681 L 618.2531 530.7352 Z M 548.12895 553.51611 L 618.24986 530.73245 L 634.80292 507.94911 L 591.46582 493.86803 Z M 645.03714 539.43576 L 661.58858 544.81365 L 661.58858 516.65465 Z M 618.2521 530.73278 L 645.03513 539.43511 L 661.58796 516.65209 L 634.80493 507.94976 Z M 634.80616 507.94806 L 661.58958 516.65052 L 731.71048 493.86685 L 661.58996 471.08332 Z" fill-opacity="0" stroke-miterlimit="10"/><path fill="rgb(0,0,0)" stroke="#cccccc" paint-order="fill stroke markers" d=" M 1080.52518 470.03491 L 1108.81716 508.97547 L 1126.30206 514.65666 L 1172.07944 499.78269 L 1172.08056 499.78305 L 1246.15041 601.73146 L 1246.15041 601.73264 L 1217.85844 640.6732 L 1217.85844 659.05792 L 1246.15041 697.99848 L 1246.15041 697.99966 L 1172.08056 799.94807 L 1172.07944 799.94843 L 1126.30206 785.07446 L 1108.81716 790.75565 L 1080.52518 829.69621 L 1080.52406 829.69657 L 960.67652 790.75574 L 960.67583 790.75479 L 960.67583 742.62161 L 949.86957 727.74807 L 904.09219 712.87409 L 904.0915 712.87314 L 904.0915 586.85798 L 904.09219 586.85703 L 949.86957 571.98305 L 960.67583 557.10951 L 960.67583 508.97632 L 960.67652 508.97537 L 1080.52406 470.03455 Z M 1034.74831 814.82102 L 1080.52399 829.69444 L 1108.81392 790.7567 L 1080.52468 799.94843 L 1080.52423 799.94828 L 1080.52389 799.94836 L 1080.52385 799.94816 L 1080.52356 799.94807 L 1063.03885 775.88243 Z M 1006.45552 757.49608 L 1006.45552 805.62814 L 1034.74631 814.82037 L 1063.03761 775.88073 L 1041.42517 746.13375 Z M 960.67783 790.75406 L 1006.45352 805.62749 L 1006.45352 757.49673 L 978.16266 766.68899 L 978.16255 766.68895 L 978.16248 766.68903 L 978.1623 766.68888 L 978.16154 766.68863 L 960.67783 742.62436 Z M 1154.59523 775.88072 L 1154.59516 775.88082 L 1154.59521 775.88091 L 1154.595 775.88103 L 1154.59454 775.88167 L 1126.30529 785.0734 L 1172.07937 799.9463 L 1200.3703 761.00717 L 1154.59523 746.13396 Z M 1063.04009 775.88072 L 1080.52437 799.94578 L 1098.00889 775.8804 L 1098.00889 757.49608 L 1080.52475 751.81515 Z M 1080.52699 799.94558 L 1108.81591 790.75395 L 1115.49379 781.56264 L 1098.01028 775.8819 Z M 1108.81916 790.75289 L 1126.29883 785.0734 L 1115.4958 781.56329 Z M 1115.49703 781.56159 L 1126.30206 785.07235 L 1154.591 775.88072 L 1126.30244 766.68921 Z M 1098.01151 775.8802 L 1115.49503 781.56094 L 1126.30044 766.68856 L 1108.81693 761.00783 Z M 1115.49665 751.81397 L 1126.30268 766.68719 L 1154.59323 775.87934 L 1154.59323 746.13331 L 1126.30244 736.94108 Z M 1052.23382 761.00718 L 1063.03885 775.87902 L 1080.52175 751.81587 Z M 1098.01089 775.87765 L 1108.81492 761.00718 L 1098.01089 757.49673 Z M 978.16335 736.94023 L 978.16335 766.68666 L 1006.45352 757.49463 L 1006.45352 727.74794 L 988.96939 722.067 Z M 1108.81816 761.00613 L 1126.29944 766.68614 L 1115.49542 751.81567 Z M 960.67783 742.62095 L 978.16135 766.68496 L 978.16135 736.94063 L 960.67783 731.25988 Z M 1041.42718 746.1331 L 1052.23259 761.00548 L 1080.52275 751.81344 L 1069.71734 736.94107 Z M 1098.01089 746.1333 L 1098.01089 757.49463 L 1108.81616 761.00548 L 1115.49418 751.81397 L 1108.81615 742.62246 Z M 1154.59523 709.36258 L 1154.59523 746.13186 L 1200.37153 761.00547 L 1217.8562 736.9399 L 1189.56489 698.00025 Z M 1006.45552 757.49398 L 1023.93842 751.81344 L 1006.45552 727.7503 Z M 1080.5276 751.81397 L 1098.00889 757.49398 L 1098.00889 746.13395 Z M 1006.45614 727.74774 L 1023.94042 751.81279 L 1041.42394 746.13205 L 1023.93965 722.067 Z M 1069.71934 736.94042 L 1080.52475 751.81279 L 1098.00889 746.13185 L 1098.00889 727.74859 Z M 1108.81816 742.62181 L 1115.49542 751.81226 L 1126.29944 736.94179 Z M 1034.74793 736.9399 L 1041.42594 746.1314 L 1052.23121 742.62056 L 1052.23121 712.87622 Z M 1126.30528 736.9399 L 1154.59323 746.13121 L 1154.59323 727.74859 Z M 1098.01089 746.1312 L 1108.81492 742.62076 L 1098.01089 727.75029 Z M 1098.01151 727.74774 L 1108.81692 742.62011 L 1126.30106 736.93917 L 1126.30106 718.55591 Z M 1052.23321 742.61991 L 1069.71611 736.93937 L 1052.23321 712.87623 Z M 960.67583 742.6182 L 960.67583 731.25923 L 949.87281 727.74912 Z M 1052.23382 712.87366 L 1069.71811 736.93872 L 1098.00828 727.74669 L 1080.52399 703.68163 Z M 1126.30306 718.55526 L 1126.30306 736.93852 L 1154.59323 727.74648 L 1154.59323 709.36323 Z M 960.67783 731.25778 L 978.16135 736.93852 L 978.16135 718.55525 L 960.67783 712.87451 Z M 1023.94166 722.06635 L 1034.74669 736.9382 L 1052.22959 712.87504 Z M 1217.85844 688.80639 L 1217.85789 688.80702 L 1217.85775 688.80734 L 1189.56689 697.9996 L 1217.85744 736.93819 L 1246.14836 697.99907 L 1217.85844 659.06133 Z M 978.16335 736.93682 L 988.96738 722.06635 L 978.16335 718.5559 Z M 949.87081 727.74637 L 960.67583 731.25713 L 960.67583 712.87386 L 932.38729 703.68236 Z M 995.64911 712.87314 L 1006.4549 727.74604 L 1023.93842 722.0653 L 1006.45452 698.00077 Z M 1098.01089 697.9998 L 1098.01089 727.74584 L 1126.30106 718.55381 L 1126.30106 688.80776 Z M 904.0935 712.87241 L 949.86757 727.74532 L 932.38386 703.68105 L 932.38386 703.68056 L 932.38369 703.68027 L 932.38386 703.68017 L 932.38386 703.67987 L 949.86857 679.61423 L 904.0935 664.74101 Z M 988.97062 722.0653 L 1006.45189 727.74531 L 995.64787 712.87485 Z M 1069.71896 688.80638 L 1098.00889 727.74413 L 1098.00889 679.61443 L 1080.52475 673.93349 Z M 1006.45614 697.99959 L 1023.94042 722.06465 L 1052.23059 712.87262 L 1034.7463 688.80756 Z M 978.16335 707.19248 L 978.16335 718.5538 L 988.96862 722.06465 L 995.64663 712.87314 L 988.96861 703.68163 Z M 1126.30306 718.55316 L 1143.78596 712.87262 L 1126.30306 688.80947 Z M 960.68007 712.87314 L 978.16135 718.55315 L 978.16135 707.19313 Z M 932.38629 703.67994 L 960.67683 712.87209 L 978.16135 707.19102 L 978.16135 688.80712 L 949.87057 679.61488 Z M 1143.78797 712.87197 L 1154.59323 709.36113 L 1154.59323 697.9998 L 1126.30468 688.80829 Z M 988.97062 703.68098 L 995.64787 712.87144 L 1006.4519 698.00097 Z M 1052.23483 712.87124 L 1080.52275 703.67993 L 1069.71773 688.80809 Z M 1034.74831 688.80691 L 1052.23121 712.87007 L 1052.23121 683.12637 Z M 1052.23321 683.12572 L 1052.23321 712.87006 L 1069.71649 688.80638 L 1063.03847 679.61488 Z M 1154.59523 679.61443 L 1154.59523 709.36048 L 1172.07875 703.67974 L 1172.07875 673.93369 Z M 978.16335 707.19037 L 988.96738 703.67993 L 978.16335 688.80947 Z M 978.16359 688.80639 L 988.96938 703.67928 L 1006.4529 697.99854 L 988.969 673.93402 Z M 1172.08075 703.67909 L 1189.56365 697.99855 L 1172.08075 673.93539 Z M 1172.08099 673.93231 L 1189.56566 697.9979 L 1217.85582 688.80587 L 1200.37129 664.74048 L 1182.88678 659.05941 Z M 1098.01089 697.99769 L 1126.29883 688.80639 L 1098.01089 679.61508 Z M 1126.30529 688.80639 L 1154.59323 697.99769 L 1154.59323 679.61508 Z M 988.97024 673.93231 L 1006.45452 697.99736 L 1023.9388 673.93231 L 1006.45452 649.86726 Z M 1006.45714 697.99717 L 1052.23121 683.12427 L 1052.23121 664.74036 L 1034.74707 659.05942 Z M 1126.30306 659.05897 L 1126.30306 688.80501 L 1154.59323 679.61297 L 1154.59323 649.86694 Z M 960.67807 664.73963 L 978.16235 688.80468 L 988.96776 673.93231 L 971.48348 649.86726 Z M 1063.04047 679.61423 L 1069.71773 688.80468 L 1080.52174 673.93422 Z M 949.87181 679.61318 L 978.15973 688.80449 L 960.67683 664.74134 Z M 1098.01089 668.25165 L 1098.01089 679.61297 L 1126.29944 688.80448 L 1108.81615 664.74081 Z M 1108.81816 664.74016 L 1126.30106 688.80331 L 1126.30106 659.05962 Z M 1200.37316 664.73963 L 1217.85644 688.80331 L 1217.85644 659.05858 L 1211.17856 649.86726 Z M 1052.23321 683.12362 L 1063.03723 679.61318 L 1052.23321 664.74272 Z M 1041.4268 649.86556 L 1063.03924 679.61253 L 1098.00889 668.2502 L 1098.00889 631.48092 L 1063.03924 620.11859 Z M 904.0935 634.99222 L 904.0935 664.7389 L 949.8698 679.61253 L 971.48224 649.86556 L 949.8698 620.11859 Z M 1154.59523 679.61233 L 1172.07875 673.93158 L 1172.07875 655.54767 L 1154.59523 649.86693 Z M 1080.52761 673.93231 L 1098.00889 679.61233 L 1098.00889 668.2523 Z M 978.16397 659.05876 L 988.969 673.93061 L 1006.4519 649.86746 Z M 1023.94004 673.93061 L 1034.74507 659.05877 L 1006.45714 649.86746 Z M 1172.08075 673.92923 L 1182.88478 659.05876 L 1172.08075 655.54832 Z M 1098.01089 668.24955 L 1108.81492 664.73911 L 1098.01089 649.86864 Z M 1098.01113 649.86556 L 1108.81692 664.73846 L 1154.591 649.86556 L 1108.81692 634.99266 Z M 1189.56651 649.86556 L 1200.37192 664.73793 L 1211.17732 649.86556 L 1200.37192 634.99319 Z M 1034.74831 659.05772 L 1052.22958 664.73773 L 1041.42556 649.86726 Z M 1182.88802 659.05771 L 1200.3693 664.73773 L 1189.56527 649.86726 Z M 1006.45775 649.86556 L 1034.7463 659.05707 L 1041.42432 649.86556 L 1034.7463 640.67405 Z M 971.48472 649.86556 L 978.16274 659.05706 L 1006.45128 649.86556 L 978.16274 640.67406 Z M 1172.08075 644.1849 L 1172.08075 655.54622 L 1182.88601 659.05706 L 1189.56403 649.86556 L 1182.88602 640.67405 Z M 1211.1798 649.86556 L 1217.85644 659.05517 L 1217.85644 640.67595 Z M 1154.59747 649.86556 L 1172.07875 655.54557 L 1172.07875 644.18555 Z M 1154.59523 649.86419 L 1172.07875 644.18345 L 1172.07875 625.79953 L 1154.59523 620.11879 Z M 1126.30306 640.67215 L 1154.59323 649.86418 L 1154.59323 620.11814 L 1126.30306 610.92611 Z M 960.67807 634.99149 L 971.48348 649.86386 L 988.96776 625.79881 L 978.16235 610.92644 Z M 1034.74831 640.6734 L 1041.42556 649.86386 L 1052.22958 634.99339 Z M 1200.37316 634.99149 L 1211.17856 649.86386 L 1217.85644 640.67254 L 1217.85644 610.92781 Z M 1182.88802 640.6734 L 1189.56527 649.86385 L 1200.36929 634.99339 Z M 988.97024 625.79881 L 1006.45452 649.86385 L 1023.9388 625.7988 L 1006.45452 601.73376 Z M 1006.45714 649.86366 L 1034.74507 640.67235 L 1023.94004 625.80051 Z M 978.16397 640.67236 L 1006.4519 649.86366 L 988.969 625.80051 Z M 1098.01089 649.86248 L 1108.81492 634.99201 L 1098.01089 631.48157 Z M 1172.08075 644.1828 L 1182.88478 640.67235 L 1172.08075 625.80188 Z M 1034.74707 640.6717 L 1052.23121 634.99076 L 1052.23121 616.60685 L 1006.45714 601.73395 Z M 1172.08099 625.7988 L 1182.88678 640.6717 L 1200.37129 634.99064 L 1217.85582 610.92525 L 1189.56566 601.73322 Z M 1108.81816 634.99096 L 1126.30106 640.6715 L 1126.30106 610.92781 Z M 1189.56689 601.73152 L 1217.85775 610.92378 L 1217.85782 610.92387 L 1217.85792 610.92385 L 1217.85797 610.92409 L 1217.85844 610.92473 L 1217.85844 640.66979 L 1246.14836 601.73205 L 1217.85744 562.79293 Z M 1098.01089 620.11814 L 1098.01089 631.47947 L 1108.81615 634.99031 L 1126.29944 610.92663 Z M 904.0935 586.85871 L 904.0935 634.99011 L 949.86857 620.11689 L 932.38386 596.05125 L 932.38387 596.05113 L 932.38377 596.05109 L 932.38386 596.05007 L 949.86757 571.9858 Z M 949.87181 620.11794 L 960.67683 634.98978 L 978.15973 610.92663 Z M 1052.23321 634.9884 L 1063.03723 620.11794 L 1052.23321 616.6075 Z M 1080.5276 625.7988 L 1098.00889 631.47882 L 1098.00889 620.11879 Z M 1069.71897 610.92473 L 1080.52475 625.79762 L 1098.00889 620.11669 L 1098.00889 571.98699 Z M 1154.59523 620.11669 L 1172.07875 625.79742 L 1172.07875 596.05138 L 1154.59523 590.37064 Z M 978.16359 610.92473 L 988.969 625.7971 L 1006.4529 601.73258 L 988.96938 596.05184 Z M 1063.04047 620.11689 L 1080.52175 625.7969 L 1069.71773 610.92644 Z M 1172.08075 625.79572 L 1189.56365 601.73257 L 1172.08075 596.05203 Z M 1052.23321 616.6054 L 1063.03847 620.11624 L 1069.71649 610.92473 L 1052.23321 586.86106 Z M 932.38629 596.05118 L 949.87057 620.11624 L 978.16135 610.924 L 978.16135 592.5401 L 960.67683 586.85903 Z M 1126.30529 610.92473 L 1154.59323 620.11604 L 1154.59323 601.73343 Z M 1098.01089 620.11604 L 1126.29883 610.92473 L 1098.01089 601.73343 Z M 1034.74831 610.92421 L 1052.23121 616.60475 L 1052.23121 586.86105 Z M 1006.45614 601.73153 L 1034.7463 610.92356 L 1052.23059 586.8585 L 1023.94042 577.66647 Z M 1098.01089 601.73132 L 1126.30106 610.92336 L 1126.30106 581.17731 L 1098.01089 571.98528 Z M 1069.71773 610.92303 L 1080.52275 596.05119 L 1052.23483 586.85988 Z M 1126.30468 610.92283 L 1154.59323 601.73132 L 1154.59323 590.36999 L 1143.78797 586.85915 Z M 978.16335 610.92165 L 988.96738 596.05119 L 978.16335 592.54075 Z M 1126.30306 610.92165 L 1143.78596 586.8585 L 1126.30306 581.17796 Z M 1154.59523 553.59926 L 1154.59523 590.36854 L 1189.56489 601.73087 L 1217.8562 562.79122 L 1200.37153 538.72565 Z M 995.64911 586.85798 L 1006.45452 601.73035 L 1023.93842 577.66582 L 1006.4549 571.98508 Z M 988.97062 596.05014 L 1006.4519 601.73015 L 995.64787 586.85968 Z M 978.16335 581.17732 L 978.16335 592.53864 L 988.96861 596.04949 L 995.64663 586.85798 L 988.96862 577.66647 Z M 1052.23382 586.85746 L 1080.52399 596.04949 L 1098.00828 571.98443 L 1069.71811 562.7924 Z M 949.87081 571.98475 L 932.38729 596.04876 L 960.67583 586.85726 L 960.67583 568.47399 Z M 960.68007 586.85798 L 978.16135 592.53799 L 978.16135 581.17797 Z M 1126.30306 581.17586 L 1154.59323 590.36789 L 1154.59323 571.98464 L 1126.30306 562.7926 Z M 960.67783 568.47334 L 960.67783 586.85661 L 978.16135 581.17587 L 978.16135 562.7926 Z M 988.97062 577.66582 L 995.64787 586.85627 L 1006.45189 571.98581 Z M 1023.94166 577.66477 L 1052.22959 586.85608 L 1034.74669 562.79292 Z M 1034.74793 562.79122 L 1052.23121 586.8549 L 1052.23121 557.11056 L 1041.42594 553.59972 Z M 1052.23321 586.85489 L 1069.71611 562.79175 L 1052.23321 557.11121 Z M 978.16335 581.17522 L 988.96738 577.66477 L 978.16335 562.7943 Z M 1098.01151 571.98338 L 1126.30106 581.17521 L 1126.30106 562.79195 L 1108.81692 557.11101 Z M 1006.45614 571.98338 L 1023.93965 577.66412 L 1041.42394 553.59907 L 1023.94042 547.91833 Z M 978.16335 562.79089 L 988.96939 577.66412 L 1006.45352 571.98318 L 1006.45352 542.23649 L 978.16335 533.04446 Z M 1126.30528 562.79122 L 1154.59323 571.98253 L 1154.59323 553.59991 Z M 1069.71934 562.7907 L 1098.00889 571.98253 L 1098.00889 553.59927 L 1080.52475 547.91833 Z M 949.87281 571.982 L 960.67583 568.47189 L 960.67583 557.11292 Z M 1098.01089 571.98083 L 1108.81492 557.11036 L 1098.01089 553.59992 Z M 1006.45552 571.98082 L 1023.93842 547.91768 L 1006.45552 542.23714 Z M 960.67783 557.11017 L 960.67783 568.47124 L 978.16135 562.79049 L 978.16135 533.04616 Z M 1041.42718 553.59802 L 1069.71734 562.79005 L 1080.52275 547.91768 L 1052.23259 538.72564 Z M 1126.30268 533.04393 L 1115.49665 547.91715 L 1126.30244 562.79004 L 1154.59323 553.59781 L 1154.59323 523.85178 Z M 1108.81816 557.10931 L 1126.29944 562.78933 L 1115.49542 547.91886 Z M 1098.01089 542.23649 L 1098.01089 553.59782 L 1108.81615 557.10866 L 1115.49418 547.91715 L 1108.81616 538.72564 Z M 960.67783 508.97705 L 960.67783 557.10676 L 978.16154 533.04249 L 978.16201 533.04234 L 978.16223 533.04209 L 978.16238 533.04222 L 978.16266 533.04213 L 1006.45352 542.23439 L 1006.45352 494.10362 Z M 1006.45552 494.10298 L 1006.45552 542.23504 L 1041.42517 553.59737 L 1063.03761 523.85039 L 1034.7463 484.91074 Z M 1080.5276 547.91715 L 1098.00889 553.59717 L 1098.00889 542.23714 Z M 1126.30529 514.65772 L 1154.59454 523.84945 L 1154.59482 523.84984 L 1154.59513 523.84997 L 1154.59505 523.85015 L 1154.59523 523.8504 L 1154.59523 553.59716 L 1200.3703 538.72395 L 1172.07937 499.78482 Z M 1063.04009 523.85039 L 1080.52475 547.91597 L 1098.00889 542.23504 L 1098.00889 523.85072 L 1080.52437 499.78534 Z M 1108.81816 538.72499 L 1115.49542 547.91545 L 1126.29944 533.04498 Z M 1052.23382 538.72394 L 1080.52175 547.91525 L 1063.03885 523.8521 Z M 1098.01089 542.23439 L 1108.81492 538.72394 L 1098.01089 523.85347 Z M 1098.01151 523.85092 L 1108.81693 538.72329 L 1126.30044 533.04256 L 1115.49503 518.17018 Z M 1115.49703 518.16953 L 1126.30244 533.04191 L 1154.591 523.8504 L 1126.30206 514.65877 Z M 1098.01028 523.84922 L 1115.49379 518.16848 L 1108.81591 508.97717 L 1080.52699 499.78554 Z M 1034.74831 484.91009 L 1063.03885 523.84869 L 1080.52356 499.78305 L 1080.52368 499.78302 L 1080.52369 499.78291 L 1080.52468 499.78269 L 1108.81392 508.97442 L 1080.52399 470.03668 Z M 1115.4958 518.16783 L 1126.29883 514.65772 L 1108.81916 508.97823 Z" fill-opacity="0" stroke-miterlimit="10"/></g></svg>