<?xml version="1.0" encoding="UTF-8" standalone="no"?>
<svg
   version="1.1"
   width="8.5in"
   height="11in"
   id="svg25"
   sodipodi:docname="stamp-2024-03-02T20_19_12.329Z.svg"
   inkscape:version="1.3.2 (091e20e, 2023-11-25)"
   xmlns:inkscape="http://www.inkscape.org/namespaces/inkscape"
   xmlns:sodipodi="http://sodipodi.sourceforge.net/DTD/sodipodi-0.dtd"
   xmlns="http://www.w3.org/2000/svg"
   xmlns:svg="http://www.w3.org/2000/svg">
  <sodipodi:namedview
     id="namedview25"
     pagecolor="#ffffff"
     bordercolor="#666666"
     borderopacity="1.0"
     inkscape:showpageshadow="2"
     inkscape:pageopacity="0.0"
     inkscape:pagecheckerboard="0"
     inkscape:deskcolor="#d1d1d1"
     inkscape:zoom="1.1365134"
     inkscape:cx="564.00567"
     inkscape:cy="460.17935"
     inkscape:window-width="1920"
     inkscape:window-height="1027"
     inkscape:window-x="1920"
     inkscape:window-y="25"
     inkscape:window-maximized="0"
     inkscape:current-layer="svg25"
     inkscape:document-units="in" />
  <defs
     id="defs1" />
  <path
     fill="#000000"
     stroke="#cccccc"
     paint-order="fill stroke markers"
     d="m 540.9567,174.4941 2.4e-4,4.2e-4 v 11.43876 l -6e-5,1.1e-4 3e-5,8e-5 -9e-5,3e-5 -1.2e-4,2e-4 -9.90553,5.71896 9.90553,5.71896 7e-5,1.2e-4 8e-5,1e-5 -2e-5,9e-5 1.1e-4,2e-4 v 11.43876 l -2.4e-4,4.1e-4 -19.81251,11.43877 h -4.8e-4 l -9.90626,-5.71939 -6e-5,-1.1e-4 -8e-5,-2e-5 2e-5,-9e-5 -1.2e-4,-1.9e-4 v -11.43793 l -9.90553,5.71896 -1.8e-4,-10e-5 -3e-4,10e-5 -9.90626,-5.71937 -2.4e-4,-4.2e-4 V 180.2139 l 2e-4,-2.3e-4 4e-5,-1.9e-4 9.90626,-5.71938 3.5e-4,7e-5 1.3e-4,-7e-5 9.90553,5.71897 v -11.43793 l 1.8e-4,-1e-4 6e-5,-3.2e-4 9.90626,-5.71938 h 4.8e-4 z m -29.71804,40.03608 9.90529,5.71882 9.9053,-5.71882 -9.9053,-5.71883 z m 19.81203,-11.43848 v 11.43765 l 9.90529,-5.71883 v -11.43765 z m -19.81252,11.43764 9.90482,-5.71854 -9.90482,-5.71855 z m 9.90674,-5.71854 9.90482,5.71854 v -11.43709 z m -19.81299,-22.87724 v 11.4382 l 19.81203,11.43848 9.90578,-5.7191 v -22.87696 l -9.90578,-5.7191 z m 0,22.8764 9.90481,-5.71854 -9.90481,-5.71855 z m -9.90626,-5.71882 9.9053,5.71882 v -11.43764 l -9.9053,-5.71883 z m 39.62503,-4.8e-4 9.90481,-5.71855 -9.90481,-5.71854 z m -39.62455,-11.438 9.90482,5.71855 v -11.4371 z m -4.8e-4,-11.43848 v 11.43764 l 9.9053,-5.71882 v -11.43764 z m 39.62503,11.43764 9.90481,-5.71854 -9.90481,-5.71855 z m -29.71877,-5.71938 9.90481,-5.71854 -9.90481,-5.71854 z m 29.71877,-5.71882 9.9053,5.71882 V 174.4948 l -9.9053,-5.71883 z m -19.81251,-4.8e-4 9.90481,-5.71854 -9.90481,-5.71855 z m 9.90674,-5.71854 9.90481,5.71854 v -11.43709 z m -9.90626,-5.71938 9.9053,5.71882 9.90529,-5.71882 -9.90529,-5.71883 z"
     fill-opacity="0"
     stroke-miterlimit="10"
     id="path2"
     style="stroke-width:0.479782;stroke:#000000" />
  <path
     fill="#000000"
     stroke="#cccccc"
     paint-order="fill stroke markers"
     d="m 612.14745,173.74186 2.4e-4,4.2e-4 v 8.95435 l 7.7547,-4.47718 3e-4,6e-5 1.8e-4,-6e-5 15.51085,8.95519 2.4e-4,4.2e-4 v 8.9552 l -2e-4,2.3e-4 -4e-5,1.8e-4 -15.51085,8.9552 h -4.8e-4 l -7.7547,-4.47718 v 8.95435 l -2.1e-4,2.3e-4 -3e-5,1.9e-4 -15.51085,8.95519 -3e-4,-6e-5 -1.8e-4,6e-5 -7.75542,-4.47759 -1e-4,-2.9e-4 -1.4e-4,-1.3e-4 v -17.91038 l 2.4e-4,-4.2e-4 7.7547,-4.47718 -7.7547,-4.47718 -1e-4,-2.9e-4 -1.4e-4,-1.3e-4 v -17.91038 l 2.4e-4,-4.2e-4 7.75542,-4.47759 3e-4,6e-5 1.8e-4,-6e-5 z m -23.26604,40.2985 7.75495,4.47732 7.75446,-4.47704 -15.50941,-8.95436 z m 15.51085,-8.95463 v 8.95408 l 7.75447,-4.47705 v -8.95407 z m -7.75494,4.47731 7.75398,4.47677 v -8.95353 z m -7.75542,-4.47759 7.75398,4.47676 v -8.95352 z m 7.75494,-4.47732 v 8.95408 l 7.75446,-4.47704 v -8.95408 z m 15.51133,-2.8e-4 7.75446,4.47704 7.75446,-4.47704 -7.75446,-4.47704 z m -23.26676,-4.47731 v 8.95407 l 7.75447,-4.47704 v -8.95408 z m 15.51085,0 v 8.95407 l 15.50941,-8.95436 -7.75446,-4.47703 z m -7.75542,4.47648 7.75446,-4.47704 v -8.95464 l -7.75446,-4.47704 z m 31.02169,0 7.75447,-4.47704 v -8.95464 l -7.75447,-4.47704 z m -7.75494,-4.47677 7.75398,4.47677 v -8.95353 z m -7.75542,-4.47759 7.75446,4.47704 7.75446,-4.47704 -7.75446,-4.47704 z m -7.75591,4.47676 7.75398,-4.47676 -7.75398,-4.47676 z m 0,-8.95464 7.75495,4.47732 7.75446,-4.47703 -15.50941,-8.95437 z m -15.51085,0 7.75447,4.47704 v -8.95407 l -7.75447,-4.47705 z m 31.02218,2.9e-4 7.75398,4.47675 v -8.95352 z m -7.75542,-4.4776 7.75446,4.47704 7.75446,-4.47704 -7.75446,-4.47704 z m -15.51133,-2.8e-4 7.75446,4.47704 v -8.95408 l -7.75446,-4.47704 z m -7.75494,-4.47732 7.75398,4.47676 v -8.95352 z m 15.51036,-2.8e-4 7.75447,4.47704 v -8.95408 l -7.75447,-4.47704 z m -7.75494,-4.47731 7.75398,4.47676 v -8.95353 z m -7.75591,-4.47732 v 8.95407 l 15.50941,-8.95435 -7.75446,-4.47704 z"
     fill-opacity="0"
     stroke-miterlimit="10"
     id="path3"
     style="stroke-width:0.479782;stroke:#000000" />
  <path
     fill="#000000"
     stroke="#cccccc"
     paint-order="fill stroke markers"
     d="m 732.86947,174.4941 10e-5,3e-4 1.4e-4,1.2e-4 v 34.31628 l -2.4e-4,4.1e-4 -19.81251,11.43877 h -4.8e-4 l -29.71877,-17.15814 -2.4e-4,-4.2e-4 V 180.2139 l 2.4e-4,-4.2e-4 29.71877,-17.15814 h 4.8e-4 z m -29.71805,40.03608 9.9053,5.71882 9.90529,-5.71882 -9.90529,-5.71883 z m 19.81203,-11.43848 v 11.43765 l 9.9053,-5.71883 v -11.43765 z m -29.71828,5.7191 9.90481,5.71855 v -11.4371 z m 9.90577,5.71854 9.90482,-5.71854 -9.90482,-5.71855 z m 9.90674,-5.71854 9.90481,5.71854 v -11.43709 z m -29.71925,-5.71966 9.9053,5.71883 v -11.43765 l -9.9053,-5.71883 z m 9.90674,-17.15786 9.90553,5.71896 v 9.6e-4 l -9.90553,5.71896 19.81107,11.43793 v -11.43793 l 4.8e-4,-4.1e-4 9.90553,5.71896 v -22.87585 l -9.90553,5.71896 -4.8e-4,-4.2e-4 v -11.43792 z m -4.8e-4,22.87668 9.90481,-5.71854 -9.90481,-5.71855 z m 19.81251,0 9.90481,-5.71854 -9.90481,-5.71855 z m 9.90625,-5.71937 9.90482,-5.71855 -9.90482,-5.71855 z m -39.62454,-11.43793 9.90482,5.71855 v -11.4371 z m 9.90578,5.71854 9.90481,-5.71854 -9.90481,-5.71855 z m 29.71925,-5.71854 9.90481,5.71854 v -11.43709 z m -39.62551,-11.43848 v 11.43764 l 9.9053,-5.71882 v -11.43765 z m 39.62502,11.43764 9.90482,-5.71854 -9.90482,-5.71855 z m -29.71876,-5.71938 9.90481,-5.71854 -9.90481,-5.71854 z m 19.81251,0 9.90481,-5.71854 -9.90481,-5.71854 z m 9.90625,-5.71882 9.9053,5.71882 V 174.4948 l -9.9053,-5.71883 z m -19.81251,-4.8e-4 9.90482,-5.71854 -9.90482,-5.71855 z m 9.90674,-5.71854 9.90481,5.71854 v -11.43709 z m -19.81251,0 9.90481,5.71854 v -11.43709 z m 9.90625,-5.71938 9.9053,5.71882 9.90529,-5.71882 -9.90529,-5.71883 z"
     fill-opacity="0"
     stroke-miterlimit="10"
     id="path4"
     style="stroke-width:0.479782;stroke:#000000" />
  <path
     fill="#000000"
     stroke="#cccccc"
     paint-order="fill stroke markers"
     d="m 506.31364,264.79771 10e-5,2.9e-4 1.4e-4,1.2e-4 v 7.60337 l 6.58471,3.80168 2.4e-4,4.2e-4 v 7.6028 l 6.58423,-3.80141 2.9e-4,7e-5 1.9e-4,-7e-5 6.5847,3.80169 6.58471,-3.80169 h 4.8e-4 l 6.58494,3.80182 3e-5,1.1e-4 1.1e-4,2e-5 -3e-5,1.9e-4 9e-5,2.9e-4 -1.7e-4,6e-5 -3e-5,1.7e-4 -6.58422,3.8014 6.58422,3.80141 v 9.6e-4 l -6.58494,3.80182 h -4.8e-4 l -6.58471,-3.80169 -6.5847,3.80169 -3e-4,-7e-5 -1.8e-4,7e-5 -6.58423,-3.80141 v 7.60281 l -2e-4,2.3e-4 -4e-5,1.8e-4 -6.58471,3.80168 v 7.60337 l -2e-4,2.3e-4 -4e-5,1.8e-4 -6.58494,3.80183 -1.1e-4,-3e-5 -7e-5,8e-5 -1.4e-4,-1.2e-4 -3.1e-4,-6e-5 4e-5,-1.8e-4 -1.3e-4,-1.1e-4 v -7.60281 l -6.58423,3.8014 -4.8e-4,-4.1e-4 v -7.60364 l 2.4e-4,-4.2e-4 6.58471,-3.80168 v -7.60336 l 2.4e-4,-4.2e-4 6.58422,-3.8014 -6.58422,-3.80141 -2.4e-4,-4.1e-4 v -7.60336 l -6.58471,-3.80168 -2.4e-4,-4.2e-4 v -7.60364 l 8e-5,-8e-5 -4e-5,-1.1e-4 1.8e-4,-6e-5 2.1e-4,-2.3e-4 1.3e-4,1.2e-4 1.6e-4,-6e-5 6.58423,3.8014 v -7.6028 l 4.8e-4,-4.2e-4 z m -6.5847,41.82071 v 7.60253 l 6.58398,-3.80127 v -7.60252 z m -6.58495,-3.80182 v 7.60253 l 6.58399,-3.80127 v -7.60252 z m 6.58495,-3.80182 v 7.60253 l 6.58398,-3.80127 v -7.60253 z m 6.58494,-3.80182 v 7.60253 l 6.58399,-3.80127 v -7.60253 z m -6.58494,-3.80182 v 7.60253 l 6.58398,-3.80127 v -7.60252 z m 13.17037,-2.8e-4 6.58399,3.80127 6.58398,-3.80127 -6.58399,-3.80126 z m 13.16989,0 6.58399,3.80127 6.58398,-3.80127 -6.58398,-3.80126 z m -19.75532,3.80099 6.5835,-3.80099 -6.5835,-3.80099 z m 13.17038,-7.60281 6.58398,3.80127 6.58398,-3.80127 -6.58398,-3.80126 z m -6.58543,3.80099 6.5835,-3.80099 -6.5835,-3.80098 z m -6.58446,-3.80099 6.5835,3.80099 v -7.60197 z m 19.75483,-3.80182 6.58399,3.80127 6.58398,-3.80127 -6.58398,-3.80126 z m -13.16989,0 6.58398,3.80127 6.58399,-3.80127 -6.58398,-3.80126 z m -6.58543,3.80099 6.5835,-3.80099 -6.5835,-3.80098 z m -6.58494,-3.80127 6.58398,3.80127 v -7.60253 l -6.58398,-3.80126 z m 6.58494,-3.80182 6.58399,3.80127 v -7.60253 l -6.58399,-3.80126 z m -6.58494,-3.80181 6.58398,3.80126 v -7.60253 l -6.58398,-3.80126 z m -6.58495,-3.80182 6.58399,3.80126 v -7.60253 l -6.58399,-3.80126 z m 6.58495,-3.80182 6.58398,3.80126 v -7.60253 l -6.58398,-3.80126 z"
     fill-opacity="0"
     stroke-miterlimit="10"
     id="path5"
     style="stroke-width:0.479782;stroke:#000000" />
  <path
     fill="#000000"
     stroke="#cccccc"
     paint-order="fill stroke markers"
     d="m 618.73215,264.79757 6.58471,-3.80168 h 4.7e-4 l 6.58495,3.80182 2.4e-4,4.1e-4 v 7.60337 l 6.58471,3.80168 2.4e-4,4.2e-4 v 7.60363 l -2.4e-4,4.2e-4 -6.58423,3.8014 6.58423,3.80141 9e-5,2.9e-4 1.5e-4,1.2e-4 v 7.60364 l -2e-4,2.3e-4 -4e-5,1.9e-4 -6.58471,3.80168 v 7.60336 l -2.4e-4,4.2e-4 -6.58495,3.80182 h -4.7e-4 l -6.58471,-3.80168 -6.5847,3.80168 h -4.8e-4 l -6.58495,-3.80182 -2.4e-4,-4.2e-4 v -7.6028 l -6.58422,3.8014 h -4.8e-4 l -6.58495,-3.80182 -2.4e-4,-4.2e-4 v -7.60336 l -6.58471,-3.80168 -2.4e-4,-4.2e-4 v -7.60364 l 2.4e-4,-4.2e-4 6.58471,-3.80168 v -7.60336 l 2.4e-4,-4.1e-4 6.58495,-3.80182 h 4.8e-4 l 6.58422,3.8014 v -7.60281 l 2.4e-4,-4.1e-4 6.58495,-3.80182 h 4.8e-4 z m 13.17037,30.41511 -9.6e-4,4.2e-4 -6.5847,-3.80168 -13.16941,7.60336 v 7.60336 l -4.8e-4,4.2e-4 -6.58423,-3.8014 v 7.60252 l 6.58447,3.80155 6.5847,-3.80168 h 4.8e-4 l 6.5847,3.80168 6.58447,-3.80155 v -7.60336 l 2.4e-4,-4.2e-4 6.58471,-3.80168 v -7.60308 l -6.58399,-3.80126 z m -39.50967,-22.81064 v 7.60336 l -2.4e-4,4.2e-4 -6.58471,3.80168 v 7.60309 l 6.58471,3.80168 2.4e-4,4.1e-4 v 7.60336 l 6.58447,3.80155 6.58398,-3.80127 -6.58422,-3.8014 v -9.6e-4 l 6.5847,-3.80168 v -15.20672 l -6.5847,-3.80168 v -9.6e-4 l 6.58422,-3.8014 -6.58398,-3.80127 z m 13.16989,22.81064 -2.4e-4,4.2e-4 -6.58422,3.8014 13.16845,7.60281 v -7.60281 l 2.4e-4,-4.2e-4 6.58422,-3.8014 -13.16845,-7.6028 z m 19.75459,-11.40504 h -4.7e-4 l -6.58423,-3.8014 v 15.20561 l 6.58423,-3.8014 h 4.7e-4 l 6.58423,3.8014 v -15.20561 z m -13.16916,7.60322 6.5835,3.80099 v -7.60197 z m -4.8e-4,-9.6e-4 6.5835,-3.80086 -6.5835,-3.80098 z m -6.58446,-3.80086 6.5835,3.80099 v -7.60197 z m -6.58495,-11.40545 6.58422,3.80139 2.4e-4,4.2e-4 v 7.60281 l 13.16845,-7.60281 -6.58422,-3.8014 -2.4e-4,-4.1e-4 v -7.60281 z m 13.16989,7.60363 6.5835,3.80099 v -7.60197 z m 6.58422,-19.00868 h -4.8e-4 l -6.5847,-3.80168 -6.58447,3.80154 v 7.60253 l 6.58423,-3.8014 4.8e-4,4.1e-4 v 7.60337 l 13.16941,7.60336 6.5847,-3.80169 1.1e-4,3e-5 7e-5,-8e-5 1.4e-4,1.2e-4 3e-4,6e-5 -3e-5,1.8e-4 1.3e-4,1.1e-4 v 7.60281 l 6.58399,-3.80127 v -7.60308 l -6.58471,-3.80168 -2.4e-4,-4.2e-4 v -7.60336 l -6.58446,-3.80154 z"
     fill-opacity="0"
     stroke-miterlimit="10"
     id="path6"
     style="stroke-width:0.479782;stroke:#000000" />
  <path
     fill="#000000"
     stroke="#cccccc"
     paint-order="fill stroke markers"
     d="m 703.15054,259.01179 3e-4,6e-5 -3e-5,1.8e-4 1.3e-4,1.1e-4 v 11.43793 l 9.90554,-5.71896 h 4.8e-4 l 9.90625,5.71938 2.4e-4,4.1e-4 v 11.43793 l 9.90554,-5.71896 9.6e-4,4.1e-4 v 22.87752 l -7e-5,8e-5 3e-5,1.1e-4 -1.7e-4,6e-5 -2.1e-4,2.3e-4 -1.3e-4,-1.2e-4 -1.7e-4,6e-5 -9.90554,-5.71897 v 11.43793 l -2.4e-4,4.2e-4 -9.90625,5.71938 h -4.8e-4 l -9.90554,-5.71896 v 11.43793 l -4.8e-4,4.1e-4 -19.81251,-11.43876 v -9.6e-4 l 9.90553,-5.71896 -9.90553,-5.71896 -2.4e-4,-4.2e-4 v -11.43876 l 2.4e-4,-4.2e-4 9.90553,-5.71896 -9.90553,-5.71896 -4e-5,-1.1e-4 -1.1e-4,-2e-5 4e-5,-1.9e-4 -9e-5,-2.9e-4 1.6e-4,-6e-5 4e-5,-1.7e-4 19.81251,-11.43876 1.1e-4,2e-5 7e-5,-8e-5 z m -9.90537,51.47477 9.90481,5.71855 v -11.43709 z m 9.90625,-5.71938 9.9053,5.71882 9.90577,-5.7191 v -11.43764 z m -19.81251,0 9.90482,5.71855 v -11.4371 z m 9.90578,-5.7191 v 11.43765 l 9.90529,-5.71883 v -11.43764 z m 9.90625,5.71827 9.90482,-5.71855 -9.90482,-5.71855 z m -9.90625,-5.71938 9.90481,-5.71855 -9.90481,-5.71854 z m 19.81251,0 9.90481,-5.71855 -9.90481,-5.71854 z m 9.90674,-5.71855 9.90481,5.71855 v -11.43709 z m -39.62551,-11.43848 v 11.4382 l 9.9053,5.71883 v -22.87585 z m 9.90674,5.7191 19.81107,11.43793 v -22.87585 z m 19.81251,0 9.9053,5.71883 9.90529,-5.71883 -9.90529,-5.71882 z m -19.81299,-9.6e-4 9.90481,-5.71854 -9.90481,-5.71855 z m 19.81251,0 9.90481,-5.71854 -9.90481,-5.71855 z m 9.90674,-5.71854 9.90481,5.71854 v -11.43709 z m -19.813,-9.6e-4 9.90482,-5.71855 -9.90482,-5.71855 z m -9.90625,-5.71883 9.90529,5.71882 v -11.43764 l -9.90529,-5.71882 z m 9.90673,-5.7191 19.81107,11.43792 v -11.43739 l -9.90577,-5.7191 z m -19.81251,0 9.90482,5.71855 v -11.4371 z m 9.90626,-5.71938 9.90481,5.71855 v -11.4371 z"
     fill-opacity="0"
     stroke-miterlimit="10"
     id="path7"
     style="stroke-width:0.479782;stroke:#000000" />
  <path
     fill="#000000"
     stroke="#cccccc"
     paint-order="fill stroke markers"
     d="m 526.83927,358.97401 2.4e-4,4.2e-4 v 8.19617 l 7.09809,-4.09809 h 4.8e-4 l 7.09881,4.0985 v 9.6e-4 l -7.09857,4.09836 v 8.19672 l -2.4e-4,4.2e-4 -7.09808,4.09808 7.09808,4.09808 2.4e-4,4.2e-4 v 8.19672 l 7.09857,4.09836 v 9.6e-4 l -7.09881,4.0985 h -4.8e-4 l -7.09809,-4.09808 v 8.19616 l -2.4e-4,4.2e-4 -7.09881,4.0985 -4.8e-4,-4.2e-4 v -8.19672 l -7.09856,-4.09836 -2.4e-4,-4.1e-4 v -8.19617 l -7.09809,4.09808 h -4.8e-4 l -7.09857,-4.09836 -7.09857,4.09836 -4.8e-4,-4.1e-4 v -8.197 l 2.4e-4,-4.2e-4 7.09808,-4.09808 -7.09808,-4.09808 -2.4e-4,-4.2e-4 v -8.197 l 4.8e-4,-4.2e-4 7.09857,4.09836 7.09857,-4.09836 h 4.8e-4 l 7.09809,4.09808 v -8.19616 l 2e-4,-2.3e-4 4e-5,-1.9e-4 7.09856,-4.09836 v -8.19672 l 4.8e-4,-4.2e-4 z m -14.19737,40.98514 7.09856,4.09836 2.4e-4,4.2e-4 v 8.19616 l 7.09785,-4.09794 v -8.19645 l -14.19665,-8.19644 z m 14.19761,0 7.09833,4.09822 7.09785,-4.09794 -7.09809,-4.09808 -2.3e-4,-4.2e-4 v -8.19673 l -7.09786,-4.09794 z m -7.09832,-4.09822 7.09736,4.09766 v -8.19533 z m -28.39572,-8.19673 v 8.19589 l 7.09809,-4.09808 h 4.8e-4 l 7.09857,4.09836 7.09784,-4.09795 -14.19665,-8.19644 z m 28.39523,8.19589 7.09737,-4.09767 -7.09737,-4.09766 z m -14.19713,-8.19616 14.19617,8.19616 v -8.19589 l -7.09832,-4.09822 z m 14.19713,-8.19672 v 8.19644 l 7.09785,4.09794 v -16.39233 z m -21.29594,4.09822 7.09737,4.09767 v -8.19534 z m 7.09833,4.09766 7.09736,-4.09766 -7.09736,-4.09767 z m 7.09929,-4.09766 7.09736,4.09766 v -8.19533 z m -14.19834,-8.19658 h -4.8e-4 l -7.09809,-4.09809 v 8.19589 l 7.09833,4.09822 14.19665,-8.19644 -7.09784,-4.09795 z m 7.09953,4.09808 7.09785,4.09794 7.09832,-4.09822 v -8.19589 z m 21.29594,-12.29522 v 16.39288 l 7.09786,-4.09794 v -8.19672 l 2.3e-4,-4.2e-4 7.09809,-4.09808 -7.09785,-4.09794 z m -7.09881,12.29439 7.09737,-4.09767 -7.09737,-4.09767 z m 0,-16.39317 -2.4e-4,4.2e-4 -7.09856,4.09836 v 8.19588 l 14.19665,-8.19644 v -8.19644 l -7.09785,-4.09794 z m 4.8e-4,8.197 7.09737,4.09766 v -8.19533 z"
     fill-opacity="0"
     stroke-miterlimit="10"
     id="path8"
     style="stroke-width:0.479782;stroke:#000000" />
  <path
     fill="#000000"
     stroke="#cccccc"
     paint-order="fill stroke markers"
     d="m 636.91309,366.40687 2.4e-4,4.2e-4 v 11.43876 l -2.4e-4,2.7e-4 v 1.4e-4 l -9.90554,5.71897 9.90554,5.71896 3e-5,1e-4 1.1e-4,3e-5 -3e-5,1.7e-4 1.3e-4,1.2e-4 v 11.43876 l -2.4e-4,4.1e-4 -19.81251,11.43877 h -4.8e-4 l -9.90626,-5.71939 -7e-5,-1.1e-4 -8e-5,-2e-5 2e-5,-9e-5 -1.1e-4,-1.9e-4 v -11.43793 l -9.90554,5.71896 h -1.2e-4 l -6e-5,6e-5 -6e-5,-6e-5 h -2.4e-4 l -9.90626,-5.71938 -2.4e-4,-4.1e-4 v -22.87752 l 2.4e-4,-4.2e-4 9.90626,-5.71938 1.1e-4,2e-5 8e-5,-8e-5 1.2e-4,1.2e-4 1.7e-4,-6e-5 9.90554,5.71896 v -11.43792 l 1.7e-4,-10e-5 7e-5,-3.2e-4 9.90626,-5.71938 h 4.8e-4 z m -29.71805,40.03608 9.9053,5.71882 9.90529,-5.71882 -9.90529,-5.71883 z m 19.81203,-11.43849 v 11.43765 l 9.9053,-5.71882 v -11.43765 z m -19.81251,0 v 11.43765 l 9.90554,-5.71896 2.9e-4,6e-5 1.9e-4,-6e-5 9.90553,5.71896 v -11.43792 l 2.4e-4,-4.2e-4 9.90553,-5.71896 -9.90529,-5.71883 z m -9.90626,-17.15841 -2.4e-4,4.1e-4 -9.90553,5.71897 9.90553,5.71896 2.4e-4,4.2e-4 v 11.43792 l 9.9053,-5.71882 v -22.87696 l -9.9053,-5.71883 z m -9.90626,17.15786 9.9053,5.71882 v -11.43765 l -9.9053,-5.71882 z m 19.81252,-4.8e-4 9.90481,-5.71855 -9.90481,-5.71855 z m 9.90626,-5.71946 9.90481,-5.71854 -9.90481,-5.71855 z m -9.90578,-5.71854 9.90482,5.71854 v -11.43709 z m 9.90554,-17.15772 h -4.8e-4 l -9.90554,-5.71897 v 11.43765 l 19.81203,11.43848 9.90529,-5.71882 -9.90553,-5.71896 -2.4e-4,-4.2e-4 v -11.43793 z m -29.71854,5.71924 v 11.43764 l 9.9053,-5.71882 v -11.43765 z m 19.81252,11.43764 9.90481,-5.71854 -9.90481,-5.71855 z m 19.81251,-11.4382 9.9053,5.71882 v -11.43764 l -9.9053,-5.71883 z m -19.81203,-11.43848 9.9053,5.71882 9.90529,-5.71882 -9.90529,-5.71883 z"
     fill-opacity="0"
     stroke-miterlimit="10"
     id="path9"
     style="stroke-width:0.479782;stroke:#000000" />
  <path
     fill="#000000"
     stroke="#cccccc"
     paint-order="fill stroke markers"
     d="m 732.86947,366.40687 2.4e-4,4.2e-4 v 11.43876 l -2.4e-4,4.1e-4 -9.90553,5.71897 9.90553,5.71896 2.4e-4,4.2e-4 v 11.43876 l -2.4e-4,4.1e-4 -19.81251,11.43877 h -4.8e-4 l -9.90626,-5.71939 -10e-5,-2.9e-4 -1.4e-4,-1.2e-4 v -11.43793 l -9.90553,5.71896 h -4.8e-4 l -9.90626,-5.71938 -2.4e-4,-4.1e-4 v -22.87752 l 2.4e-4,-4.2e-4 9.90626,-5.71938 h 4.8e-4 l 9.90553,5.71896 v -11.43792 l 2e-4,-2.3e-4 4e-5,-1.9e-4 9.90626,-5.71938 h 4.8e-4 z m -29.71853,40.0358 9.90578,5.7191 9.90529,-5.71882 -19.81107,-11.43793 z m 19.81251,-4.8e-4 9.9053,-5.71883 v -11.4382 l -9.9053,-5.71883 z m -9.90577,-5.71855 9.90481,5.71854 v -11.43709 z m -29.71925,-5.71966 9.90578,5.7191 9.90529,-5.71882 -19.81107,-11.43793 z m 19.81299,2.8e-4 9.90482,5.71855 v -11.4371 z m 9.90578,5.71854 9.90481,-5.71854 -9.90481,-5.71855 z m -9.90626,-5.71937 9.90482,-5.71855 -9.90482,-5.71855 z m 9.90674,-5.71855 9.90481,5.71854 v -11.43709 z m -19.81251,0 9.90481,5.71854 v -11.43709 z m -9.90626,-5.71945 9.90482,5.71855 v -11.4371 z m 19.81251,0 9.90482,5.71855 v -11.4371 z m -9.90673,5.71854 9.90481,-5.71854 -9.90481,-5.71855 z m 19.81251,0 9.90481,-5.71854 -9.90481,-5.71855 z m -9.90626,-5.71937 9.90482,-5.71855 -9.90482,-5.71855 z m 19.81251,0 9.9053,-5.71883 v -11.4382 l -9.9053,-5.71883 z m -39.62502,-11.43765 v 11.43764 l 19.81107,-11.43792 -9.90529,-5.71883 z m 9.90674,5.7191 9.90481,5.71854 V 372.1275 Z m 19.81251,0 9.90481,5.71854 V 372.1275 Z m -4.8e-4,-9.6e-4 9.90481,-5.71855 -9.90481,-5.71854 z m -9.90577,-5.71855 9.90481,5.71855 v -11.4371 z m -4.8e-4,-11.43848 v 11.43765 l 19.81107,-11.43793 -9.90529,-5.71882 z m 9.90674,5.7191 9.90481,5.71855 v -11.43709 z"
     fill-opacity="0"
     stroke-miterlimit="10"
     id="path10"
     style="stroke-width:0.479782;stroke:#000000" />
  <path
     fill="#000000"
     stroke="#cccccc"
     paint-order="fill stroke markers"
     d="m 512.31335,457.13341 2.4e-4,4.2e-4 v 8.95491 l 7.75446,4.47704 v -8.95435 l 2.4e-4,-4.2e-4 7.75543,-4.4776 1.1e-4,3e-5 7e-5,-9e-5 1.4e-4,1.3e-4 3e-4,6e-5 -3e-5,1.7e-4 1.3e-4,1.2e-4 v 8.95519 l -2.4e-4,4.2e-4 -7.7547,4.47718 7.75446,4.47704 7.75518,-4.47746 3e-4,6e-5 1.8e-4,-6e-5 7.75543,4.4776 2.4e-4,4.1e-4 v 8.95521 l -2.4e-4,3.9e-4 -7.75543,4.47761 h -4.8e-4 l -7.75518,-4.47747 -7.75446,4.47704 7.7547,4.47718 2.4e-4,4.3e-4 v 8.95518 l -7e-5,9e-5 3e-5,10e-5 -1.8e-4,1e-4 -2e-4,1.9e-4 -1.3e-4,-10e-5 -1.7e-4,5e-5 -7.75543,-4.47761 -2.4e-4,-3.9e-4 v -8.95436 l -7.75446,4.47704 v 8.95489 l -2.4e-4,4.3e-4 -7.75543,4.47761 h -4.8e-4 l -7.75542,-4.47761 -2.4e-4,-4.3e-4 v -8.95518 l 2.4e-4,-4.3e-4 7.75518,-4.47747 v -8.95407 l -7.7547,4.47718 h -4.8e-4 l -7.75542,-4.47757 -4e-5,-1.4e-4 h -1.1e-4 l 4e-5,-1.9e-4 -9e-5,-2.9e-4 1.6e-4,-5e-5 4e-5,-1.8e-4 7.75542,-4.47759 h 4.8e-4 l 7.7547,4.47718 v -8.95408 l -7.75518,-4.47746 -2.4e-4,-4.2e-4 v -8.95519 l 2.4e-4,-4.2e-4 7.75542,-4.47759 h 4.8e-4 z m -15.51061,35.82148 v 8.95465 l 7.75494,4.47728 7.75495,-4.47728 v -8.95465 l -7.75495,-4.47733 z m 23.26627,4.47704 7.75447,4.47703 v -8.95407 l -7.75447,-4.47704 z M 504.55816,470.5669 v 17.9098 l 7.75495,4.47733 15.51037,-8.95489 v -8.95465 l -15.51037,-8.95491 z m 23.26628,4.47759 v 8.95465 l 7.75494,4.47732 7.75495,-4.47732 v -8.95465 l -7.75495,-4.47731 z m -38.77664,4.47732 7.75446,4.47704 7.75446,-4.47704 -7.75446,-4.47704 z m 7.75494,-22.3877 v 8.95463 l 7.75494,4.47732 7.75495,-4.47732 v -8.95463 l -7.75495,-4.47732 z m 23.26627,4.4776 v 8.95407 l 7.75447,-4.47704 v -8.95408 z"
     fill-opacity="0"
     stroke-miterlimit="10"
     id="path11"
     style="stroke-width:0.479782;stroke:#000000" />
  <path
     fill="#000000"
     stroke="#cccccc"
     paint-order="fill stroke markers"
     d="m 620.78328,459.57709 8.63584,-4.98589 4.8e-4,4.1e-4 v 9.9718 l 8.63583,4.9859 2.4e-4,4.2e-4 v 19.94416 l -2.4e-4,4.3e-4 -8.63583,4.98589 v 9.97179 l -4.8e-4,4.3e-4 -8.63584,-4.98589 -8.63583,4.98589 h -4.8e-4 l -17.27215,-9.97207 -2.4e-4,-4.4e-4 v -9.97178 l -8.63584,-4.9859 v -9.6e-4 l 8.63584,-4.9859 v -9.9718 l 2.4e-4,-4.1e-4 17.27215,-9.97208 h 4.8e-4 z m -8.63559,34.90283 -2.1e-4,2.4e-4 -3e-5,2e-4 -8.63535,4.9856 8.63511,4.98551 8.63559,-4.9858 v -9.9715 l -8.63511,-4.98551 z m 8.63607,4.98575 8.63512,4.98551 v -9.97097 l -8.63512,-4.98551 z m -17.27215,-9.9715 v 9.97098 l 8.63512,-4.98551 v -9.97098 z m -8.63607,-4.98603 v 9.9715 l 8.63511,4.98551 v -9.97126 l 2e-4,-2.4e-4 4e-5,-2e-4 8.63535,-4.9856 -8.63511,-4.98546 z m 25.90822,4.98546 8.6356,4.9858 8.63559,-4.9858 v -9.97097 l -8.63535,4.98565 h -4.8e-4 l -8.63536,-4.98565 z m -8.63559,-4.98575 8.63463,4.98522 v -9.97044 z m -25.90822,-4.98604 8.63511,4.98546 8.63511,-4.98546 -8.63511,-4.98548 z m 34.54429,0 8.63512,4.98546 8.63511,-4.98546 -8.63511,-4.98548 z m -8.63655,4.98522 8.63463,-4.98522 -8.63463,-4.98521 z m -8.6356,-4.98522 8.63464,4.98522 v -9.97043 z m -8.63655,-14.95784 v 9.97153 l 8.63559,4.98575 8.63511,-4.98548 -8.63535,-4.98562 -2.4e-4,-4.2e-4 v -9.97124 z m 25.90822,4.98604 v 9.97097 l 8.63536,-4.98562 2.9e-4,6e-5 1.9e-4,-6e-5 8.63535,4.98562 v -9.97097 l -8.63559,-4.98576 z m -8.63559,4.98576 8.63463,4.98521 v -9.97041 z m -8.63607,-14.95812 8.63535,4.98563 9e-5,2.9e-4 1.5e-4,1.2e-4 v 9.97125 l 8.63511,-4.98549 v -9.97152 l -8.63559,-4.98576 z m -4.8e-4,9.9718 8.63511,4.98549 v -9.97097 l -8.63511,-4.98548 z m 17.27215,-9.97152 v 9.97097 l 8.63511,-4.98549 v -9.97096 z"
     fill-opacity="0"
     stroke-miterlimit="10"
     id="path12"
     style="stroke-width:0.479782;stroke:#000000" />
  <path
     fill="#000000"
     stroke="#cccccc"
     paint-order="fill stroke markers"
     d="m 731.15114,456.71047 2.4e-4,4.2e-4 v 7.60364 l -2.4e-4,4.2e-4 -6.58471,3.80168 v 7.60253 l 6.58423,-3.80141 4.8e-4,4.2e-4 v 15.20727 l -4.8e-4,4.3e-4 -6.58423,-3.8014 v 7.60252 l 6.58471,3.8017 2.4e-4,3.8e-4 v 7.60364 l -2.4e-4,4.3e-4 -6.58495,3.80184 h -4.8e-4 l -6.58494,-3.80184 -2.4e-4,-4.3e-4 v -7.60335 l -6.58399,-3.80126 v 7.60281 l -4.8e-4,4.4e-4 -13.16989,-7.60368 v 0 l 6.58422,-3.80141 -6.58398,-3.80127 -6.5847,3.8017 h -4.8e-4 l -6.58495,-3.80184 -2.4e-4,-3.8e-4 v -7.60366 l 2.4e-4,-4.2e-4 6.58495,-3.80182 2.9e-4,6e-5 1.9e-4,-6e-5 6.5847,3.80168 6.58398,-3.80126 -6.58422,-3.8014 v -9.6e-4 l 13.16989,-7.60364 4.8e-4,4.1e-4 v 7.60281 l 6.58399,-3.80126 v -7.60337 l 2.4e-4,-4.2e-4 6.58494,-3.80182 h 4.8e-4 z m -19.75411,34.21681 6.58422,3.80141 2.4e-4,3.8e-4 v 7.6034 l 6.58446,3.80155 6.58447,-3.80155 v -7.60311 l -6.58471,-3.80169 -2.4e-4,-3.9e-4 v -7.60281 z m -6.58495,3.80179 6.5835,3.80103 v -7.602 z m -4.8e-4,0 13.16845,-7.60281 -13.16845,-7.60282 z m -6.58446,-3.80097 6.5835,3.80097 v -7.60195 z m -13.17037,-15.20702 v 7.6031 l 6.58446,3.80155 6.58471,-3.8017 h 4.8e-4 l 6.58422,3.80141 v -15.20562 l -6.58422,3.8014 h -4.8e-4 l -6.58471,-3.80168 z m 32.92472,11.40355 13.16844,-7.60282 -13.16844,-7.60281 z m 6.58542,-3.80098 6.58351,3.80098 v -7.602 z m -13.16989,0 6.58351,3.80098 v -7.602 z m -6.58494,-3.80184 6.5835,3.80098 v -7.60197 z m 6.58446,3.80098 6.5835,-3.80098 -6.5835,-3.80098 z m -6.58494,-3.80181 13.16844,-7.60281 -13.16844,-7.6028 z m 6.58542,-3.80099 6.58351,3.80099 V 471.919 Z m 13.16989,0 6.58351,3.80099 V 471.919 Z m -6.58542,-19.00882 v 7.60336 l -2.4e-4,4.2e-4 -6.58422,3.8014 13.16844,7.60281 v -7.60281 l 2.4e-4,-4.1e-4 6.58471,-3.80169 v -7.60308 l -6.58447,-3.80154 z m -19.75435,11.40518 6.5835,3.80098 v -7.60196 z m 6.58494,-3.80182 6.5835,3.80099 v -7.60197 z"
     fill-opacity="0"
     stroke-miterlimit="10"
     id="path13"
     style="stroke-width:0.479782;stroke:#000000" />
  <path
     fill="#000000"
     stroke="#cccccc"
     paint-order="fill stroke markers"
     d="m 519.74046,550.88678 2.4e-4,4.3e-4 v 8.19669 l 7.09833,4.09825 7.09857,-4.09839 h 4.8e-4 l 7.09881,4.09854 2.4e-4,3.8e-4 v 8.19703 l -2.4e-4,4.3e-4 -7.09808,4.09805 7.09808,4.09811 10e-5,2.9e-4 1.4e-4,9e-5 v 8.19703 l -2.4e-4,3.8e-4 -7.09881,4.09854 h -4.8e-4 l -7.09857,-4.09839 -7.09833,4.09825 v 8.19669 l -2.4e-4,4.3e-4 -7.0988,4.09849 h -4.8e-4 l -7.09881,-4.09849 -2.4e-4,-4.3e-4 v -8.19617 l -7.09809,4.09811 h -4.8e-4 l -7.09881,-4.09849 -2.4e-4,-4.3e-4 v -8.19703 l 2.4e-4,-3.8e-4 7.09857,-4.09839 v -8.19641 l -7.09857,-4.09839 -2.4e-4,-3.8e-4 v -8.19703 l 2.4e-4,-4.3e-4 7.09881,-4.09849 h 4.8e-4 l 7.09809,4.09811 v -8.19617 l 2.4e-4,-4.3e-4 7.09881,-4.09849 h 4.8e-4 z m -7.0988,45.08434 h -4.8e-4 l -7.09809,-4.09811 v 8.19593 l 7.09833,4.0982 7.09832,-4.0982 v -8.19593 z m -21.29619,-12.29566 v 8.19645 l 7.09833,4.09825 7.09784,-4.09796 -7.09808,-4.09811 -2.4e-4,-3.8e-4 v -8.19616 z m 7.09881,-4.09849 v 8.19645 l 14.19714,8.19674 7.09832,-4.09825 v -8.19587 l -7.09808,4.09805 h -4.8e-4 l -7.09881,-4.09849 -2.4e-4,-4.3e-4 v -8.19616 z m 35.49404,4.0982 -2e-4,2.4e-4 -4e-5,1.9e-4 -7.09808,4.09811 7.09784,4.09791 7.09834,-4.0982 v -8.19645 l -7.09786,-4.09796 z m -14.19762,8.19621 7.09737,-4.09767 -7.09737,-4.09767 z m -14.19761,-24.58992 v 16.39347 l 7.09833,4.0982 14.19713,-8.19673 v -8.19641 l -14.19713,-8.19673 z m 14.1981,-2.4e-4 7.09808,4.09805 2.4e-4,4.4e-4 v 8.19697 l -2.4e-4,4.4e-4 -7.09808,4.09805 7.09784,4.09796 7.09834,-4.0982 v -16.39347 l -7.09834,-4.0982 z m -21.29691,12.29465 7.09736,-4.09768 -7.09736,-4.09767 z m 0,-16.3929 v 8.19645 l 7.09785,4.09796 v -8.19616 l 2.4e-4,-4.3e-4 7.09881,-4.09849 3e-4,4e-5 1.8e-4,-4e-5 7.09808,4.09805 v -8.19587 l -7.09832,-4.0982 z m 28.39572,-2.9e-4 7.09808,4.09811 10e-5,2.8e-4 1.4e-4,1.5e-4 v 8.19616 l 7.09786,-4.09796 v -8.19645 l -7.09834,-4.0982 z m -35.49453,-4.0982 v 8.19645 l 7.09785,4.09791 v -8.19616 l 2.4e-4,-3.8e-4 7.09808,-4.09811 -7.09784,-4.09791 z m 28.39523,8.19587 7.09737,-4.09767 -7.09737,-4.09763 z M 505.54309,550.8875 v 8.19588 l 7.09809,-4.09811 h 4.8e-4 l 7.09808,4.09811 v -8.19588 l -7.09832,-4.09825 z"
     fill-opacity="0"
     stroke-miterlimit="10"
     id="path14"
     style="stroke-width:0.479782;stroke:#000000" />
  <path
     fill="#000000"
     stroke="#cccccc"
     paint-order="fill stroke markers"
     d="m 631.536,553.0898 2.4e-4,4.3e-4 v 8.95489 l 7.75519,4.47747 2.4e-4,4.3e-4 v 17.91035 l -2.4e-4,4.3e-4 -7.75519,4.47747 v 8.95489 l -2.4e-4,4.3e-4 -7.75542,4.47762 h -4.8e-4 l -7.75518,-4.47747 -7.75519,4.47747 h -4.8e-4 l -15.51084,-8.95523 -2.4e-4,-3.8e-4 v -8.95494 l -7.75519,-4.47747 -2.4e-4,-3.8e-4 v -8.95523 l 2.4e-4,-3.8e-4 7.75519,-4.47747 v -8.95494 l 2.4e-4,-3.8e-4 15.51084,-8.95523 3e-4,1e-4 1.8e-4,-1e-4 7.75519,4.47747 7.75518,-4.47747 3e-4,1e-4 1.8e-4,-1e-4 z m -31.02097,44.77636 7.75446,4.47704 7.75446,-4.47704 -7.75446,-4.47703 z m 15.51085,0 7.75446,4.47704 7.75494,-4.47728 v -8.95412 z m -7.75542,-4.47756 7.75446,4.47703 7.75446,-4.47703 -7.75446,-4.47704 z m -7.75591,4.47675 7.75398,-4.47675 -7.75398,-4.4768 z m -7.75542,-4.47704 7.75446,4.47704 v -8.95408 l -7.75446,-4.47703 z m 7.75542,-31.34262 v 8.95489 l -2.4e-4,4.3e-4 -7.7547,4.47718 7.7547,4.47719 9e-5,2.8e-4 1.5e-4,1.5e-4 v 8.95489 l 7.75494,4.47732 7.75519,-4.47747 h 4.8e-4 l 7.7547,4.47718 v -8.95436 l 2.1e-4,-1.9e-4 3e-5,-1.9e-4 7.75518,-4.47747 v -8.95465 l -7.75518,-4.47747 -2.4e-4,-3.8e-4 v -8.95436 l -7.7547,4.47718 -3e-4,-10e-5 -1.8e-4,10e-5 -7.75519,-4.47747 z m 23.26627,22.38797 v 8.95407 l 7.75446,-4.47703 v -8.95408 z m -31.02169,0 7.75446,4.47704 v -8.95408 l -7.75446,-4.47708 z m 38.77711,-4.47704 v 8.95408 l 7.75447,-4.47704 v -8.95412 z M 585.0037,571.0014 v 8.95465 l 7.75447,4.47703 v -17.90872 z m 46.53254,8.95407 7.75399,-4.47675 -7.75399,-4.47675 z m -38.77711,-13.43164 v 8.95408 l 7.75446,-4.47704 v -8.95412 z m 38.77711,4.47704 7.75447,4.47704 v -8.95408 l -7.75447,-4.47708 z m -7.75542,-4.47761 7.75446,4.47703 v -8.95407 l -7.75446,-4.47704 z m -31.02169,-8.95465 v 8.95407 l 7.75446,-4.47704 v -8.95407 z m 15.51133,-2.9e-4 7.75446,4.47704 7.75446,-4.47704 -7.75446,-4.47704 z m -7.75591,4.4768 7.75398,-4.4768 -7.75398,-4.47675 z m 15.51133,-8.95437 15.5094,8.95437 v -8.95408 l -7.75494,-4.47732 z m -15.51085,0 7.75446,4.47704 7.75446,-4.47704 -7.75446,-4.47703 z"
     fill-opacity="0"
     stroke-miterlimit="10"
     id="path15"
     style="stroke-width:0.479782;stroke:#000000" />
  <path
     fill="#000000"
     stroke="#cccccc"
     paint-order="fill stroke markers"
     d="m 698.22641,552.66687 2.4e-4,4.3e-4 v 7.60334 l 6.58471,3.8017 2.4e-4,3.8e-4 v 7.60282 l 6.58422,-3.80141 h 4.8e-4 l 6.58471,3.8017 6.5847,-3.8017 h 4.8e-4 l 6.58495,3.80184 2.4e-4,3.9e-4 v 7.60367 l -2.4e-4,3.9e-4 -6.58495,3.80184 -2.9e-4,-5e-5 -1.9e-4,5e-5 -6.5847,-3.8017 -6.58471,3.8017 h -4.8e-4 l -6.58422,-3.80141 v 7.60282 l -2.1e-4,2.4e-4 -3e-5,1.4e-4 -6.58471,3.8017 v 7.60334 l -2.4e-4,4.3e-4 -6.58494,3.80184 h -4.8e-4 l -6.58495,-3.80184 -2.4e-4,-4.3e-4 v -7.60363 l 2.4e-4,-3.9e-4 6.58471,-3.80169 v -7.60335 l 2.4e-4,-4.3e-4 6.58422,-3.80141 -6.58422,-3.8014 -2.4e-4,-4.3e-4 v -7.60335 l -6.58471,-3.80169 -9e-5,-2.9e-4 -1.5e-4,-10e-5 v -7.60363 l 2.4e-4,-4.3e-4 6.58495,-3.80184 h 4.8e-4 z m -13.16965,38.01888 v 7.6031 l 6.58447,3.80155 6.58446,-3.80155 v -15.20616 z m 13.16989,-7.60364 v 7.60253 l 6.58399,-3.80126 v -7.60253 z m -6.58494,-3.80184 v 7.60253 l 6.58398,-3.80126 v -7.60253 z m 13.17037,-2.4e-4 6.58398,3.80127 6.58398,-3.80127 -6.58398,-3.80126 z m 6.58494,-3.80184 13.16893,7.60311 6.58447,-3.80155 v -7.60311 l -6.58447,-3.80155 z m -13.17037,7.60282 6.5835,-3.80098 -6.5835,-3.80102 z m 6.58495,-3.80184 6.5835,-3.80098 -6.5835,-3.80097 z m -6.58446,-3.80098 6.5835,3.80098 v -7.60195 z m 6.58494,-3.80183 6.58398,3.80126 6.58398,-3.80126 -6.58398,-3.80127 z m -6.58543,3.80102 6.5835,-3.80102 -6.5835,-3.80098 z m -6.58494,-3.80126 6.58398,3.80126 v -7.60253 l -6.58398,-3.80126 z m 6.58494,-3.80184 6.58399,3.80126 v -7.60253 l -6.58399,-3.80126 z m -13.16989,-15.20674 v 7.6031 l 13.16893,7.60311 v -15.20621 l -6.58446,-3.8015 z"
     fill-opacity="0"
     stroke-miterlimit="10"
     id="path16"
     style="stroke-width:0.479782;stroke:#000000" />
  <path
     fill="#000000"
     stroke="#cccccc"
     paint-order="fill stroke markers"
     d="m 540.67203,652.5887 2.4e-4,4.3e-4 v 9.42272 l -2.4e-4,4.4e-4 -8.16008,4.71121 v 9.42215 l 8.16008,4.71122 1e-4,3.4e-4 1.4e-4,9e-5 v 9.42273 l -2.4e-4,4.3e-4 -16.32065,9.42273 h -4.8e-4 l -8.16032,-4.71137 -2.4e-4,-4.3e-4 v -9.42244 l -8.15984,-4.71107 -8.16008,4.71122 h -4.8e-4 l -8.16033,-4.71136 -2.4e-4,-4.4e-4 v -18.84545 l 2.4e-4,-4.3e-4 8.16033,-4.71136 2.9e-4,5e-5 1.9e-4,-5e-5 8.16008,4.71122 8.15984,-4.71108 v -9.42243 l 2.4e-4,-4.4e-4 8.16032,-4.71136 h 4.8e-4 z m -24.48073,42.40245 8.15984,4.71108 8.15936,-4.71084 -8.1596,-4.71093 -2.3e-4,-4.3e-4 v -9.42244 l -8.15937,-4.71083 z m 8.16032,-14.13413 8.16009,4.71126 2.4e-4,3.9e-4 v 9.42191 l 8.15936,-4.71084 v -9.42215 l -16.31969,-9.4222 z m 0,9.42272 8.15937,4.71084 v -9.42163 l -8.15937,-4.71078 z m -24.4812,-14.13337 -3e-4,-4e-5 -1.8e-4,4e-5 -8.15961,-4.71098 v 9.42163 l 8.15985,4.71112 16.31968,-9.4222 -8.15936,-4.71079 z m 8.16104,4.71093 8.15888,4.71055 v -9.42109 z m 8.16033,-4.71136 8.15888,4.71055 v -9.4211 z m -24.48097,-4.71136 8.15936,4.71083 8.15936,-4.71083 -8.15936,-4.71079 z m 24.48048,4.71055 8.15889,-4.71055 -8.15889,-4.71055 z m 8.16081,-4.71055 8.15888,4.71055 v -9.4211 z m -16.32065,0 8.15888,4.71055 v -9.4211 z m -16.32113,-9.42244 v 9.42162 l 8.15961,-4.71098 h 4.8e-4 l 8.16008,4.71122 8.15936,-4.71078 -16.31968,-9.4222 z m 40.80162,-4.71165 -2e-4,2.4e-4 -4e-5,1.9e-4 -8.16009,4.71122 v 9.42162 l 16.31969,-9.42219 v -9.42215 l -8.15936,-4.71084 z m -16.32016,9.42273 8.15888,4.71054 v -9.42109 z m -4.8e-4,-18.84517 v 18.84435 l 8.15936,-4.71083 v -9.42244 l 2.4e-4,-4.3e-4 8.1596,-4.71093 -8.15936,-4.71084 z m -8.15984,14.1338 8.15888,4.71055 v -9.42109 z m 16.32016,-9.42243 v 9.42157 l 8.15936,-4.71079 v -9.42162 z"
     fill-opacity="0"
     stroke-miterlimit="10"
     id="path17"
     style="stroke-width:0.479782;stroke:#000000" />
  <path
     fill="#000000"
     stroke="#cccccc"
     paint-order="fill stroke markers"
     d="m 604.39202,649.04618 10e-5,2.9e-4 1.4e-4,1.4e-4 v 8.95436 l 7.75471,-4.47718 2.9e-4,5e-5 1.9e-4,-5e-5 7.75542,4.47757 2.4e-4,4.3e-4 v 8.95436 l 7.7547,-4.47718 h 4.8e-4 l 7.75543,4.47761 2.4e-4,3.9e-4 v 8.95522 l -2.4e-4,3.9e-4 -7.75543,4.47761 h -4.8e-4 l -7.7547,-4.47718 v 8.95436 l -2.4e-4,4.3e-4 -7.75542,4.47757 h -4.8e-4 l -7.75471,-4.47719 v 8.95437 l -2e-4,2.4e-4 -4e-5,1.9e-4 -7.75542,4.47761 h -4.8e-4 l -7.75542,-4.47761 -2.4e-4,-4.3e-4 v -8.95518 l 2.4e-4,-4.3e-4 7.7547,-4.47718 -7.7547,-4.47718 -2.4e-4,-3.9e-4 v -8.95522 l 2.4e-4,-3.9e-4 7.7547,-4.47718 -7.7547,-4.47718 -2.4e-4,-4.3e-4 v -8.95518 l 2.4e-4,-4.3e-4 7.75542,-4.47761 h 4.8e-4 z m -15.51061,35.82148 v 8.95465 l 7.75495,4.47727 7.75494,-4.47727 v -8.95465 l -7.75494,-4.47733 z m 15.51134,-2.9e-4 7.75446,4.47704 7.75494,-4.47733 v -8.95407 z m -4.8e-4,0 7.75398,-4.4768 -7.75398,-4.47675 z m -7.75495,-4.4768 7.75399,4.4768 v -8.95355 z m 23.2658,-13.4325 v 8.95465 l 7.75494,4.47732 7.75494,-4.47732 v -8.95465 l -7.75494,-4.47733 z m -23.26628,13.43169 7.75399,-4.47675 -7.75399,-4.4768 z m 15.51085,0 7.75399,-4.47675 -7.75399,-4.4768 z m -23.26627,-13.43169 v 8.95465 l 7.75447,4.47704 v -17.90873 z m 15.51133,8.95494 7.75398,4.47675 v -8.95355 z m -4.8e-4,0 7.75398,-4.47675 -7.75398,-4.47675 z m 7.75591,-4.47675 7.75398,4.47675 v -8.9535 z m -15.51085,0 7.75398,4.47675 v -8.9535 z m -4.8e-4,0 7.75399,-4.4768 -7.75399,-4.47675 z m 15.51085,0 7.75399,-4.4768 -7.75399,-4.47675 z m -7.75494,-4.4768 7.75398,4.4768 v -8.95355 z m -4.8e-4,0 7.75399,-4.47675 -7.75399,-4.4768 z m -7.75494,-4.47675 7.75398,4.47675 v -8.95355 z m 7.75542,-4.47761 15.50941,8.95436 v -8.95407 l -7.75496,-4.48064 z m -15.51133,-8.95489 v 8.9546 l 7.75495,4.47733 7.75494,-4.47733 v -8.9546 l -7.75494,-4.47733 z"
     fill-opacity="0"
     stroke-miterlimit="10"
     id="path18"
     style="stroke-width:0.479782;stroke:#000000" />
  <path
     fill="#000000"
     stroke="#cccccc"
     paint-order="fill stroke markers"
     d="m 698.22641,648.62325 2.4e-4,4.3e-4 v 7.60335 l 19.75436,11.40518 6.5847,-3.80169 3e-4,4e-5 1.8e-4,-4e-5 6.58495,3.80184 2.4e-4,3.8e-4 v 7.60368 l -2.4e-4,3.8e-4 -6.58495,3.80184 h -4.8e-4 l -6.5847,-3.80169 -19.75436,11.40518 v 7.60334 l -2.4e-4,4.4e-4 -6.58494,3.80184 h -4.8e-4 l -6.58495,-3.80184 -2.4e-4,-4.4e-4 v -7.60363 l 2.4e-4,-3.8e-4 6.58471,-3.8017 V 660.0294 l -6.58471,-3.8017 -2.4e-4,-3.8e-4 v -7.60364 l 2.4e-4,-4.3e-4 6.58495,-3.80184 h 4.8e-4 z m -13.16965,38.01888 v 7.6031 l 6.58447,3.80156 6.58446,-3.80156 v -7.6031 l -6.58446,-3.80155 z m 6.58495,-3.80237 6.58446,3.80155 6.58399,-3.80126 -13.16845,-7.60282 z m 13.16989,0 6.5835,-3.80097 -6.5835,-3.80098 z m -6.58446,-3.80097 6.5835,3.80097 v -7.60195 z m 19.75435,-11.40519 v 7.60311 l 6.58446,3.80155 6.58447,-3.80155 v -7.60311 l -6.58447,-3.80155 z m -19.75484,11.40437 6.58351,-3.80098 -6.58351,-3.80102 z m 13.16989,0 6.58399,-3.80126 v -7.60311 l -6.58399,-3.80126 z m -19.75435,-3.80098 6.5835,3.80098 v -7.602 z m 13.16989,0 6.5835,3.80098 v -7.602 z m -4.8e-4,0 6.58351,-3.80097 -6.58351,-3.80098 z m -13.16989,0 6.58351,-3.80097 -6.58351,-3.80098 z m 6.58543,-3.80241 6.5835,3.80098 v -7.60196 z m -4.8e-4,0 6.5835,-3.80103 -6.5835,-3.80097 z m 6.58542,-3.80103 6.58351,3.80103 v -7.602 z m -13.16988,0 6.5835,3.80103 v -7.602 z m 13.1694,0 6.58351,-3.80097 -6.58351,-3.80098 z m -13.16989,-7.60252 v 7.60252 l 13.16845,-7.60281 -6.58398,-3.80127 z m 6.58543,3.80155 6.5835,3.80097 v -7.60195 z m -13.17037,-15.20703 v 7.60311 l 6.58446,3.80155 6.58447,-3.80155 v -7.60311 l -6.58447,-3.8015 z"
     fill-opacity="0"
     stroke-miterlimit="10"
     id="path19"
     style="stroke-width:0.479782;stroke:#000000" />
  <path
     fill="#000000"
     stroke="#cccccc"
     paint-order="fill stroke markers"
     d="m 519.74046,742.79955 2.4e-4,4.3e-4 v 8.19669 l 7.09833,4.09825 7.09857,-4.09839 h 4.8e-4 l 7.09881,4.09853 2.4e-4,3.9e-4 v 8.19702 l -4.8e-4,4.4e-4 -7.09857,-4.0984 -7.09833,4.09825 v 8.1964 l 7.09833,4.09825 7.09857,-4.09834 4.8e-4,3.8e-4 v 8.19703 l -2.4e-4,3.8e-4 -7.09881,4.09854 h -4.8e-4 l -7.09857,-4.09839 -7.09833,4.09825 v 8.19669 l -2.4e-4,4.3e-4 -7.0988,4.09849 h -4.8e-4 l -7.09881,-4.09849 v 0 l 7.09857,-4.0984 v -8.1964 l -7.09833,-4.09825 -7.09833,4.09825 v 8.19669 l -9.6e-4,4.3e-4 -7.09881,-4.09849 -2.4e-4,-4.3e-4 v -8.19702 l 2.4e-4,-3.9e-4 7.09857,-4.09839 v -8.1964 l -7.09857,-4.0984 -2.4e-4,-3.8e-4 v -8.19703 l 2.4e-4,-4.3e-4 7.09881,-4.09849 9.6e-4,4.4e-4 v 8.19673 l 7.09833,4.0982 7.09833,-4.0982 v -8.19645 l -7.09857,-4.09839 v 0 l 7.09881,-4.09849 h 4.8e-4 z m -7.09856,36.88722 v 8.19669 l -2.4e-4,4.3e-4 -7.09809,4.09806 7.09785,4.09796 7.09832,-4.0982 v -8.19674 l 2.4e-4,-4.3e-4 7.09881,-4.09849 h 4.8e-4 l 7.09857,4.09834 7.09834,-4.0982 v -8.19587 l -7.0981,4.09805 h -4.8e-4 l -7.09857,-4.09834 z m -21.29643,-28.68952 v 8.19645 l 7.09857,4.09834 2.4e-4,4.3e-4 v 8.19698 l -2.4e-4,4.3e-4 -7.09857,4.09835 v 8.19645 l 7.09785,4.09796 v -8.19616 l 2.4e-4,-4.3e-4 7.09857,-4.09835 v -16.39348 l -7.09857,-4.09834 -2.4e-4,-4.3e-4 v -8.19616 z m 14.19762,24.59045 7.09833,4.0982 7.09785,-4.09796 -14.19618,-8.19616 z m 14.19761,0 7.09785,-4.09796 v -8.1964 l -7.09785,-4.09796 z m -7.09832,-4.09767 7.09736,4.09767 v -8.19535 z m -7.09881,-4.09849 7.09737,4.09767 v -8.19534 z m 7.09833,4.09767 7.09736,-4.09767 -7.09736,-4.09767 z m -7.09881,-12.29441 v 8.19592 l 14.19618,-8.19616 -7.09785,-4.09796 z m 7.09929,4.09825 7.09736,4.09767 v -8.19534 z m -7.09881,-20.49249 7.09809,4.09805 2.4e-4,4.4e-4 v 8.19673 l 14.19713,8.19669 7.09857,-4.09834 3e-4,5e-5 1.8e-4,-5e-5 7.0981,4.09806 v -8.19588 l -7.09834,-4.0982 -7.09857,4.09835 h -4.8e-4 l -7.09881,-4.09849 -2.4e-4,-4.4e-4 v -8.19669 l -7.09832,-4.09825 z"
     fill-opacity="0"
     stroke-miterlimit="10"
     id="path20"
     style="stroke-width:0.479782;stroke:#000000" />
  <path
     fill="#000000"
     stroke="#cccccc"
     paint-order="fill stroke markers"
     d="m 622.79566,742.79955 2.4e-4,4.3e-4 v 8.19616 l 7.09809,-4.0981 3e-4,9e-5 1.8e-4,-9e-5 7.09881,4.09849 v 0 l -7.09857,4.09834 v 8.19674 l -2e-4,2.4e-4 -4e-5,1.9e-4 -7.09809,4.09806 7.09809,4.0981 9e-5,2.9e-4 1.5e-4,1e-4 v 8.19674 l 7.09857,4.09834 v 0 l -7.09881,4.09849 h -4.8e-4 l -7.09809,-4.0981 v 8.19616 l -2e-4,2.4e-4 -4e-5,1.9e-4 -7.09881,4.09849 -9.6e-4,-3.8e-4 v -8.19674 l -7.09857,-4.09835 -2.4e-4,-4.3e-4 v -8.19616 l -7.09809,4.09805 -2.9e-4,-4e-5 -1.9e-4,4e-5 -7.09857,-4.09834 -7.09857,4.09834 h -10e-5 l -7e-5,1e-4 -1.4e-4,-1.4e-4 -3.1e-4,-5e-5 3e-5,-1.9e-4 -1.3e-4,-10e-5 v -8.19703 l 2e-4,-1.9e-4 4e-5,-1.9e-4 7.09809,-4.0981 -7.09809,-4.09806 -2.4e-4,-4.3e-4 v -8.19703 l 4.8e-4,-3.8e-4 7.09857,4.09834 7.09857,-4.09834 3e-4,4e-5 1.8e-4,-4e-5 7.09809,4.09805 v -8.19616 l 2.4e-4,-4.3e-4 7.09857,-4.09835 v -8.19669 l 9.6e-4,-4.3e-4 z m -14.19738,32.78868 v 8.19645 l 7.09857,4.09834 2.4e-4,4.4e-4 v 8.19616 l 7.09785,-4.09791 v -8.19645 l -7.09857,-4.0984 -2.4e-4,-3.8e-4 v -8.19616 z m 7.0993,-4.09878 7.09808,4.09811 2.4e-4,3.8e-4 v 8.19674 l 7.09833,4.09825 7.09784,-4.09796 -7.09808,-4.09811 -2.4e-4,-3.8e-4 v -8.19674 l -7.09833,-4.0982 z m -4.8e-4,8.19674 7.09785,4.09796 v -8.19592 l -7.09785,-4.09791 z m -28.39524,-8.19645 v 8.19587 l 7.09809,-4.09805 h 4.8e-4 l 7.09857,4.09834 7.09833,-4.0982 v -8.19592 l -7.09809,4.0981 h -4.8e-4 l -7.09857,-4.09834 z m 21.29643,4.09739 7.09737,-4.09768 -7.09737,-4.09767 z m -14.19714,-8.19617 7.09784,4.09796 7.09785,-4.09796 -7.09785,-4.09796 z m 21.29594,4.09768 7.09737,-4.09768 -7.09737,-4.09767 z m -7.09833,-4.09768 7.09737,4.09768 v -8.19535 z m 14.19714,-16.39371 v 8.19673 l -2.4e-4,3.9e-4 -7.09808,4.0981 7.09784,4.09792 7.09833,-4.0982 v -8.19674 l 2.4e-4,-3.9e-4 7.09808,-4.0981 -7.09784,-4.09791 z m -28.39548,8.19712 h -4.8e-4 l -7.09809,-4.09806 v 8.19588 l 7.09833,4.0982 7.09857,-4.09835 h 4.8e-4 l 7.09809,4.09811 v -8.19593 l -7.09833,-4.0982 z m 14.19786,8.19578 7.09737,-4.09768 -7.09737,-4.09767 z m 7.09881,-12.29441 v 8.19592 l 7.09785,-4.09796 v -8.19588 z m 0,-8.19727 -2.4e-4,4.3e-4 -7.09857,4.09835 v 8.19645 l 7.09785,4.09791 v -8.19616 l 2e-4,-1.9e-4 4e-5,-2e-4 7.09857,-4.09839 v -8.1964 l -7.09785,-4.09796 z"
     fill-opacity="0"
     stroke-miterlimit="10"
     id="path21"
     style="stroke-width:0.479782;stroke:#000000" />
  <path
     fill="#000000"
     stroke="#cccccc"
     paint-order="fill stroke markers"
     d="m 701.51865,744.57949 6.5847,-3.80169 h 4.8e-4 l 6.58494,3.80184 v 0 l -6.5847,3.80169 v 7.60311 l 6.58446,3.8015 6.58447,-3.8015 v -7.6034 l 4.8e-4,-4.3e-4 6.58494,3.80184 2.4e-4,4.3e-4 v 7.60335 l 6.58471,3.80169 2.4e-4,3.9e-4 v 7.60368 l -2.4e-4,3.8e-4 -6.58471,3.8017 v 7.60334 l -2.4e-4,4.3e-4 -6.58494,3.80184 -4.8e-4,-4.3e-4 v -7.60334 l -6.58447,-3.80156 -6.58446,3.80156 v 7.60305 l 6.5847,3.8017 v 0 l -6.58494,3.80184 h -4.8e-4 l -6.5847,-3.8017 -6.58471,3.8017 h -4.8e-4 l -6.58494,-3.80184 -2.4e-4,-4.3e-4 v -7.60335 l -6.58471,-3.80169 -2.4e-4,-3.9e-4 v -7.60363 l 4.8e-4,-4.3e-4 6.58471,3.8017 6.58446,-3.80156 v -7.6031 l -6.58446,-3.80155 -6.58471,3.80169 -4.8e-4,-4.3e-4 v -7.60363 l 2.4e-4,-3.8e-4 6.58471,-3.8017 v -7.60334 l 2.4e-4,-4.4e-4 6.58494,-3.80184 h 4.8e-4 z m -13.16941,38.01902 v 7.60311 l 6.58446,3.80155 6.58447,-3.80155 v -7.60311 l -6.58447,-3.80155 z m 13.16989,-38.0182 v 7.60339 l -2.4e-4,3.8e-4 -6.58495,3.80184 h -4.8e-4 l -6.5847,-3.80169 -6.58447,3.80155 v 7.60253 l 6.58423,-3.80141 h 4.8e-4 l 6.58494,3.80184 2.4e-4,3.8e-4 v 7.60368 l -2.4e-4,3.9e-4 -6.58494,3.80184 h -4.8e-4 l -6.58423,-3.80141 v 7.60253 l 6.58447,3.80155 6.5847,-3.8017 h 4.8e-4 l 6.58495,3.80184 9e-5,2.9e-4 1.5e-4,10e-5 v 7.60339 l 6.58446,3.80155 6.58398,-3.80131 -6.58422,-3.80136 -2.4e-4,-4.3e-4 v -7.60364 l 2.4e-4,-4.3e-4 6.58494,-3.80179 h 4.8e-4 l 6.58495,3.80179 2.4e-4,4.3e-4 v 7.60282 l 6.58398,-3.80131 v -7.60306 l -6.5847,-3.80169 -2.4e-4,-3.9e-4 v -7.60368 l 2.4e-4,-3.8e-4 6.5847,-3.8017 v -7.60305 l -6.58398,-3.80127 v 7.60277 l -2.4e-4,4.3e-4 -6.58495,3.80184 h -4.8e-4 l -6.58494,-3.80184 -2.4e-4,-4.3e-4 v -7.60363 l 2.4e-4,-4.3e-4 6.58422,-3.80136 -6.58398,-3.80127 z m 19.75483,19.0091 v 7.60311 l 6.58446,3.80155 6.58447,-3.80155 v -7.60311 l -6.58447,-3.80155 z m -32.92472,-19.0091 v 7.6031 l 6.58446,3.80155 6.58447,-3.80155 v -7.6031 l -6.58447,-3.80151 z"
     fill-opacity="0"
     stroke-miterlimit="10"
     id="path22"
     style="stroke-width:0.479782;stroke:#000000" />
  <path
     fill="#000000"
     stroke="#cccccc"
     paint-order="fill stroke markers"
     d="m 524.35123,835.07879 3e-4,9e-5 -3e-5,1.5e-4 1.2e-4,1.4e-4 v 9.42244 l 8.15985,4.71107 8.16008,-4.71121 9.6e-4,4.3e-4 v 9.42272 l -2.4e-4,4.3e-4 -16.31992,9.4223 16.31992,9.42229 2.4e-4,4.3e-4 v 9.42273 l -9.6e-4,4.3e-4 -8.16008,-4.71122 -8.15985,4.71107 v 9.42244 l -4.8e-4,4.3e-4 -8.16032,-4.71136 -9e-5,-2.9e-4 -1.5e-4,-1.4e-4 v -18.84463 l -16.31992,9.42234 h -4.8e-4 l -8.16033,-4.71137 v 0 l 8.16009,-4.71121 v -9.42215 l -8.16009,-4.71122 v 0 l 8.16033,-4.71137 h 4.8e-4 l 16.31992,9.42235 v -18.84464 l 2e-4,-2.4e-4 4e-5,-1.9e-4 8.16032,-4.71136 1.2e-4,5e-5 7e-5,-10e-5 z m -8.15993,51.82513 8.15937,4.71079 v -9.42163 l -8.15937,-4.71078 z m 4.8e-4,-9.42249 8.15936,4.71084 8.15984,-4.71112 v -9.42162 z m 16.32016,-2.8e-4 8.15937,4.71083 v -9.42162 l -8.15937,-4.71083 z m -40.80113,-4.71108 8.15936,4.71084 8.15936,-4.71084 -8.15936,-4.71078 z m 24.48049,4.71055 8.15888,-4.71055 -8.15888,-4.71054 z m -8.16033,-4.71136 8.15889,-4.71055 -8.15889,-4.71055 z m 16.32065,0 8.15888,-4.71055 -8.15888,-4.71055 z m -24.48097,-14.13299 v 9.42215 l 8.15936,4.71084 v -18.84382 z m 16.32113,9.42244 8.15888,4.71055 v -9.4211 z m -4.8e-4,0 8.15889,-4.71055 -8.15889,-4.71054 z m -8.15984,-4.71136 8.15888,4.71054 v -9.42109 z m 16.32016,0 8.15889,-4.71055 -8.15889,-4.71055 z m -16.32064,0 8.15888,-4.71055 -8.15888,-4.71055 z m 8.16081,-4.71055 8.15888,4.71055 v -9.4211 z m -24.48097,-4.71136 8.15936,4.71078 8.15936,-4.71078 -8.15936,-4.71084 z m 24.48048,4.71054 8.15889,-4.71054 -8.15889,-4.71055 z m 16.32065,-9.42162 v 9.42162 l 8.15936,-4.71083 v -9.42162 z m -16.32016,-2.8e-4 16.3192,9.4219 v -9.42162 l -8.15985,-4.71112 z m -4.8e-4,-9.42244 v 9.42157 l 8.15936,-4.71079 v -9.42162 z"
     fill-opacity="0"
     stroke-miterlimit="10"
     id="path23"
     style="stroke-width:0.479782;stroke:#000000" />
  <path
     fill="#000000"
     stroke="#cccccc"
     paint-order="fill stroke markers"
     d="m 636.09961,842.60374 2.4e-4,4.3e-4 v 41.48636 l -2.4e-4,4.3e-4 -11.97608,6.91438 h -4.8e-4 l -35.92825,-20.74318 -2.4e-4,-4.4e-4 v -13.82875 l 2.4e-4,-4.3e-4 35.92825,-20.74318 2.9e-4,5e-5 1.9e-4,-5e-5 z m -23.95144,41.48679 11.97512,6.91385 11.9756,-6.91414 v -13.82765 z m -11.97608,-6.91438 11.97464,6.91356 v -13.82712 z m 11.9756,6.91356 11.97463,-6.91356 -11.97463,-6.91356 z m -11.97609,-6.91442 11.97464,-6.91357 -11.97464,-6.91356 z m 23.95217,0 11.97463,-6.91357 -11.97463,-6.91356 z m -35.92825,-20.74203 v 13.82822 l 11.97513,6.91381 v -27.65588 z m 11.97657,6.91409 23.95072,13.82794 v -27.65588 z m 23.95216,0 11.97464,6.91356 v -13.82712 z m -23.95265,0 11.97464,-6.91356 -11.97464,-6.91357 z m 23.95217,0 11.97463,-6.91356 -11.97463,-6.91357 z m -11.97608,-6.91443 11.97463,-6.91356 -11.97463,-6.91356 z m 4.8e-4,-13.82794 23.95072,13.82794 v -13.82765 l -11.9756,-6.91414 z m -11.97608,6.91438 11.97464,6.91356 V 842.6058 Z"
     fill-opacity="0"
     stroke-miterlimit="10"
     id="path24"
     style="stroke-width:0.479782;stroke:#000000" />
  <path
     fill="#000000"
     stroke="#cccccc"
     paint-order="fill stroke markers"
     d="m 708.10383,839.7901 2.4e-4,4.3e-4 v 9.42244 l 8.15984,4.71108 8.16009,-4.71122 2.9e-4,5e-5 1.9e-4,-5e-5 8.16032,4.71136 3e-5,1e-4 1.1e-4,4e-5 -4e-5,2e-4 1e-4,2.8e-4 -1.7e-4,5e-5 -3e-5,1.9e-4 -8.16032,4.71137 -3e-4,-1e-4 -1.8e-4,1e-4 -8.15961,-4.71098 v 18.84382 l 8.15961,-4.71098 h 4.8e-4 l 8.16032,4.71136 v 0 l -8.16032,4.71136 -3e-4,-5e-5 -1.8e-4,5e-5 -8.16009,-4.71122 -8.15984,4.71108 v 9.42244 l -2.4e-4,4.3e-4 -8.16032,4.71136 -9.6e-4,-4.3e-4 v -9.42273 l 2.4e-4,-3.8e-4 8.1596,-4.71098 -16.31921,-9.42191 v 9.42191 l -2e-4,2.4e-4 -4e-5,1.9e-4 -8.16032,4.71137 -4.8e-4,-4.4e-4 v -9.42272 l 2e-4,-2.4e-4 4e-5,-1.9e-4 8.16008,-4.71122 v -9.42215 l -8.16008,-4.71122 -9e-5,-2.9e-4 -1.5e-4,-1.4e-4 v -9.42273 l 4.8e-4,-4.3e-4 8.16032,4.71136 10e-5,2.9e-4 1.4e-4,1.5e-4 v 9.42191 l 16.31921,-9.42191 -8.1596,-4.71093 -10e-5,-3.4e-4 -1.4e-4,-10e-5 v -9.42272 l 9.6e-4,-4.3e-4 z m -8.16008,42.40298 v 9.42163 l 8.15936,-4.71079 v -9.42162 z m -16.32065,-9.42272 v 9.42162 l 8.15936,-4.71083 v -9.42162 z m 32.64178,-2.9e-4 8.15936,4.71084 8.15935,-4.71084 -8.15935,-4.71078 z m -8.16081,4.71055 8.15888,-4.71055 -8.15888,-4.71054 z m -8.15984,-4.71055 8.15888,4.71055 v -9.42109 z m -8.16033,-4.71136 8.15889,4.71055 v -9.4211 z m 16.32065,0 8.15888,4.71055 v -9.4211 z m -8.1608,4.71055 8.15888,-4.71055 -8.15888,-4.71055 z m -8.16033,-4.71137 8.15888,-4.71054 -8.15888,-4.71055 z m 16.32065,0 8.15888,-4.71054 -8.15888,-4.71055 z m -8.15984,-4.71054 8.15888,4.71054 v -9.42109 z m -8.16033,-4.71137 8.15889,4.71055 v -9.42109 z m 8.15985,4.71055 8.15888,-4.71055 -8.15888,-4.71054 z m 8.1608,-4.71055 8.15888,4.71055 v -9.42109 z m 8.16033,-4.71136 8.15936,4.71079 8.15935,-4.71079 -8.15935,-4.71083 z m -8.16081,4.71055 8.15888,-4.71055 -8.15888,-4.71054 z m -24.48097,-4.71084 8.15936,4.71084 v -9.42162 l -8.15936,-4.71084 z m 16.32113,2.9e-4 8.15888,4.71055 v -9.42109 z m -4.8e-4,-9.42301 8.15936,4.71083 v -9.42162 l -8.15936,-4.71083 z"
     fill-opacity="0"
     stroke-miterlimit="10"
     id="path25"
     style="stroke-width:0.479782;stroke:#000000" />
  <plotdata
     application="axidraw"
     model="1"
     plob_version="n/a"
     layer="-2"
     pause_dist="-25400"
     pause_ref="-25400"
     last_x="2.5044827323128517e-13"
     last_y="1.3064375969928932e-13"
     rand_seed="1"
     row="0" />
</svg>
