<svg version="1.1" xmlns="http://www.w3.org/2000/svg" xmlns:xlink="http://www.w3.org/1999/xlink" width="900" height="1600"><defs/><g><path fill="#222222" stroke="#cccccc" paint-order="fill stroke markers" d=" M 227.97117 92.48243 L 227.97117 113.28368 L 241.98558 121.37491 L 260 110.97428 L 282.01442 123.68431 L 282.01442 149.10437 L 264 159.505 L 264 180.30626 L 245.98558 190.70689 L 245.98558 206.88934 L 260 214.98057 L 274.01442 206.88934 L 274.01442 186.08809 L 292.02883 175.68746 L 292.02883 154.8862 L 314.04325 142.17617 L 336.05767 154.8862 L 336.05767 175.68746 L 350.07209 183.77869 L 368.0865 173.37806 L 390.10092 186.08809 L 390.10092 211.50814 L 372.0865 221.90877 L 372.0865 238.09123 L 390.10092 248.49186 L 390.10092 273.91191 L 368.0865 286.62194 L 350.07209 276.22131 L 336.05767 284.31254 L 336.05767 305.1138 L 314.04325 317.82383 L 292.02883 305.1138 L 292.02883 284.31254 L 274.01442 273.91191 L 274.01442 253.11066 L 260 245.01943 L 245.98558 253.11066 L 245.98558 269.29311 L 264 279.69374 L 264 300.495 L 282.01442 310.89563 L 282.01442 336.31569 L 260 349.02572 L 241.98558 338.62509 L 227.97117 346.71632 L 227.97117 367.51757 L 205.95675 380.2276 L 183.94233 367.51757 L 183.94233 346.71632 L 169.92791 338.62509 L 151.9135 349.02572 L 129.89908 336.31569 L 129.89908 310.89563 L 147.9135 300.495 L 147.9135 284.31254 L 129.89908 273.91191 L 129.89908 248.49186 L 149.9135 236.93653 L 149.9701 236.91609 L 150.01724 236.87867 L 150.631 236.67739 L 151.23841 236.45801 L 151.29859 236.45846 L 151.35578 236.4397 L 152.00135 236.46368 L 152.64705 236.46847 L 152.70333 236.48975 L 152.76349 236.49198 L 153.9135 236.93653 L 169.92791 246.18246 L 187.94233 235.78183 L 205.95675 246.18246 L 219.97117 238.09123 L 219.97117 221.90877 L 205.95675 213.81754 L 187.94233 224.21817 L 169.92791 213.81754 L 151.9135 224.21817 L 129.89908 211.50814 L 129.89908 186.08809 L 147.9135 175.68746 L 147.9135 159.505 L 129.89908 149.10437 L 129.89908 123.68431 L 151.9135 110.97428 L 169.92791 121.37491 L 183.94233 113.28368 L 183.94233 92.48243 L 205.95675 79.7724 Z M 241.98558 317.82383 L 223.97117 307.4232 L 209.95675 315.51443 L 209.95675 336.31569 L 191.94233 346.71632 L 191.94233 362.89877 L 205.95675 370.99 L 219.97117 362.89877 L 219.97117 342.09752 L 241.98558 329.38749 L 260 339.78812 L 274.01442 331.69689 L 274.01442 315.51443 L 260 307.4232 Z M 137.89908 253.11066 L 137.89908 269.29311 L 155.9135 279.69374 L 155.9135 305.1138 L 137.89908 315.51443 L 137.89908 331.69689 L 151.9135 339.78812 L 165.92791 331.69689 L 165.92791 310.89563 L 183.94233 300.495 L 183.94233 284.31254 L 165.92791 273.91191 L 165.92791 253.11066 L 151.9135 245.01943 Z M 173.92791 315.51443 L 173.92791 331.69689 L 187.94233 339.78812 L 201.95675 331.69689 L 201.95675 315.51443 L 187.94233 307.4232 Z M 191.94233 284.31254 L 191.94233 300.495 L 205.95675 308.58623 L 219.97117 300.495 L 219.97117 284.31254 L 205.95675 276.22131 Z M 205.95675 255.42006 L 187.94233 245.01943 L 173.92791 253.11066 L 173.92791 269.29311 L 187.94233 277.38434 L 205.95675 266.98371 L 227.97117 279.69374 L 227.97117 300.495 L 241.98558 308.58623 L 256 300.495 L 256 284.31254 L 237.98558 273.91191 L 237.98558 253.11066 L 223.97117 245.01943 Z M 350.07209 255.42006 L 332.05767 245.01943 L 318.04325 253.11066 L 318.04325 273.91191 L 300.02883 284.31254 L 300.02883 300.495 L 314.04325 308.58623 L 328.05767 300.495 L 328.05767 279.69374 L 350.07209 266.98371 L 368.0865 277.38434 L 382.10092 269.29311 L 382.10092 253.11066 L 368.0865 245.01943 Z M 282.01442 190.70689 L 282.01442 211.50814 L 264 221.90877 L 264 238.09123 L 282.01442 248.49186 L 282.01442 269.29311 L 296.02883 277.38434 L 310.04325 269.29311 L 310.04325 253.11066 L 292.02883 242.71003 L 292.02883 217.28997 L 310.04325 206.88934 L 310.04325 190.70689 L 296.02883 182.61566 Z M 227.97117 221.90877 L 227.97117 238.09123 L 241.98558 246.18246 L 256 238.09123 L 256 221.90877 L 241.98558 213.81754 Z M 300.02883 221.90877 L 300.02883 238.09123 L 314.04325 246.18246 L 328.05767 238.09123 L 328.05767 221.90877 L 314.04325 213.81754 Z M 336.05767 221.90877 L 336.05767 238.09123 L 350.07209 246.18246 L 364.0865 238.09123 L 364.0865 221.90877 L 350.07209 213.81754 Z M 137.89908 128.30311 L 137.89908 144.48557 L 155.9135 154.8862 L 155.9135 180.30626 L 137.89908 190.70689 L 137.89908 206.88934 L 151.9135 214.98057 L 165.92791 206.88934 L 165.92791 186.08809 L 183.94233 175.68746 L 183.94233 159.505 L 165.92791 149.10437 L 165.92791 128.30311 L 151.9135 120.21188 Z M 227.97117 159.505 L 227.97117 180.30626 L 205.95675 193.01629 L 187.94233 182.61566 L 173.92791 190.70689 L 173.92791 206.88934 L 187.94233 214.98057 L 205.95675 204.57994 L 223.97117 214.98057 L 237.98558 206.88934 L 237.98558 186.08809 L 256 175.68746 L 256 159.505 L 241.98558 151.41377 Z M 300.02883 159.505 L 300.02883 175.68746 L 318.04325 186.08809 L 318.04325 206.88934 L 332.05767 214.98057 L 350.07209 204.57994 L 368.0865 214.98057 L 382.10092 206.88934 L 382.10092 190.70689 L 368.0865 182.61566 L 350.07209 193.01629 L 328.05767 180.30626 L 328.05767 159.505 L 314.04325 151.41377 Z M 191.94233 159.505 L 191.94233 175.68746 L 205.95675 183.77869 L 219.97117 175.68746 L 219.97117 159.505 L 205.95675 151.41377 Z M 173.92791 128.30311 L 173.92791 144.48557 L 187.94233 152.5768 L 201.95675 144.48557 L 201.95675 128.30311 L 187.94233 120.21188 Z M 191.94233 97.10123 L 191.94233 113.28368 L 209.95675 123.68431 L 209.95675 144.48557 L 223.97117 152.5768 L 241.98558 142.17617 L 260 152.5768 L 274.01442 144.48557 L 274.01442 128.30311 L 260 120.21188 L 241.98558 130.61251 L 219.97117 117.90248 L 219.97117 97.10123 L 205.95675 89.01 Z" stroke-miterlimit="10"/><path fill="#222222" stroke="#cccccc" paint-order="fill stroke markers" d=" M 729.92329 93.04076 L 729.92329 107.21442 L 738.19805 111.99186 L 750.47281 104.90502 L 766.74756 114.30126 L 766.74756 133.09373 L 750.47281 142.48996 L 738.19805 135.40313 L 729.92329 140.18056 L 729.92329 154.35423 L 717.64854 161.44106 L 717.64854 170.99593 L 725.92329 175.77336 L 738.19805 168.68653 L 754.47281 178.08276 L 754.47281 196.87523 L 742.19805 203.96206 L 742.19805 218.13573 L 729.92329 225.22257 L 729.92329 234.77743 L 742.19805 241.86427 L 742.19805 256.03794 L 754.47281 263.12477 L 754.47281 281.91724 L 738.19805 291.31347 L 725.92329 284.22664 L 717.64854 289.00407 L 717.64854 298.55894 L 729.92329 305.64577 L 729.92329 319.81944 L 738.19805 324.59687 L 750.47281 317.51004 L 766.74756 326.90627 L 766.74756 345.69874 L 750.47281 355.09498 L 738.19805 348.00814 L 729.92329 352.78558 L 729.92329 366.95924 L 713.64854 376.35548 L 697.37378 366.95924 L 697.37378 348.16678 L 709.64854 341.07994 L 709.64854 331.52507 L 697.37378 324.43824 L 697.37378 310.26457 L 689.09903 305.48714 L 680.82427 310.26457 L 680.82427 324.43824 L 664.54951 333.83447 L 648.27476 324.43824 L 648.27476 310.26457 L 636 303.17774 L 636 289.00407 L 627.72524 284.22664 L 615.45049 291.31347 L 603.17573 284.22664 L 590.90097 291.31347 L 574.62622 281.91724 L 574.62622 263.12477 L 586.90097 256.03794 L 586.90097 246.48307 L 578.62622 241.70563 L 566.35146 248.79247 L 554.07671 241.70563 L 545.80195 246.48307 L 545.80195 260.65674 L 529.52719 270.05297 L 513.25244 260.65674 L 513.25244 241.86427 L 525.52719 234.77743 L 525.52719 225.22257 L 513.25244 218.13573 L 513.25244 199.34326 L 529.52719 189.94703 L 545.80195 199.34326 L 545.80195 213.51693 L 554.07671 218.29437 L 566.35146 211.20753 L 578.62622 218.29437 L 586.90097 213.51693 L 586.90097 203.96206 L 574.62622 196.87523 L 574.62622 178.08276 L 590.90097 168.68653 L 603.17573 175.77336 L 615.45049 168.68653 L 627.72524 175.77336 L 636 170.99593 L 636 156.82226 L 648.27476 149.73543 L 648.27476 135.56176 L 664.54951 126.16553 L 680.82427 135.56176 L 680.82427 149.73543 L 689.09903 154.51286 L 697.37378 149.73543 L 697.37378 135.56176 L 709.64854 128.47493 L 709.64854 118.92006 L 697.37378 111.83322 L 697.37378 93.04076 L 713.64854 83.64452 Z M 705.37378 97.65956 L 705.37378 107.21442 L 717.64854 114.30126 L 717.64854 133.09373 L 705.37378 140.18056 L 705.37378 154.35423 L 689.09903 163.75046 L 672.82427 154.35423 L 672.82427 140.18056 L 664.54951 135.40313 L 656.27476 140.18056 L 656.27476 149.73543 L 668.54951 156.82226 L 668.54951 170.99593 L 680.82427 178.08276 L 680.82427 196.87523 L 664.54951 206.27146 L 652.27476 199.18463 L 644 203.96206 L 644 218.13573 L 627.72524 227.53197 L 611.45049 218.13573 L 611.45049 203.96206 L 599.17573 196.87523 L 599.17573 182.70156 L 590.90097 177.92413 L 582.62622 182.70156 L 582.62622 192.25643 L 594.90097 199.34326 L 594.90097 218.13573 L 578.62622 227.53197 L 566.35146 220.44513 L 554.07671 227.53197 L 537.80195 218.13573 L 537.80195 203.96206 L 529.52719 199.18463 L 521.25244 203.96206 L 521.25244 213.51693 L 533.52719 220.60377 L 533.52719 239.39623 L 521.25244 246.48307 L 521.25244 256.03794 L 529.52719 260.81537 L 537.80195 256.03794 L 537.80195 241.86427 L 554.07671 232.46803 L 566.35146 239.55487 L 578.62622 232.46803 L 594.90097 241.86427 L 594.90097 260.65674 L 582.62622 267.74357 L 582.62622 277.29844 L 590.90097 282.07587 L 599.17573 277.29844 L 599.17573 263.12477 L 611.45049 256.03794 L 611.45049 241.86427 L 627.72524 232.46803 L 644 241.86427 L 644 256.03794 L 652.27476 260.81537 L 664.54951 253.72854 L 680.82427 263.12477 L 680.82427 281.91724 L 668.54951 289.00407 L 668.54951 300.86834 L 668.53891 300.92757 L 668.54775 300.98711 L 668.41518 301.61926 L 668.30146 302.25501 L 668.27098 302.30691 L 668.25863 302.3658 L 667.91529 302.91255 L 667.58809 303.4697 L 667.54149 303.50783 L 667.5095 303.55877 L 666.54951 304.33244 L 656.27476 310.26457 L 656.27476 319.81944 L 664.54951 324.59687 L 672.82427 319.81944 L 672.82427 305.64577 L 689.09903 296.24954 L 705.37378 305.64577 L 705.37378 319.81944 L 717.64854 326.90627 L 717.64854 345.69874 L 705.37378 352.78558 L 705.37378 362.34044 L 713.64854 367.11788 L 721.92329 362.34044 L 721.92329 348.16678 L 738.19805 338.77054 L 750.47281 345.85738 L 758.74756 341.07994 L 758.74756 331.52507 L 750.47281 326.74764 L 738.19805 333.83447 L 721.92329 324.43824 L 721.92329 310.26457 L 709.64854 303.17774 L 709.64854 284.38527 L 725.92329 274.98904 L 738.19805 282.07587 L 746.47281 277.29844 L 746.47281 267.74357 L 738.19805 262.96614 L 725.92329 270.05297 L 713.64854 262.96614 L 701.37378 270.05297 L 685.09903 260.65674 L 685.09903 241.86427 L 697.37378 234.77743 L 697.37378 225.22257 L 685.09903 218.13573 L 685.09903 199.34326 L 701.37378 189.94703 L 713.64854 197.03386 L 725.92329 189.94703 L 738.19805 197.03386 L 746.47281 192.25643 L 746.47281 182.70156 L 738.19805 177.92413 L 725.92329 185.01096 L 709.64854 175.61473 L 709.64854 156.82226 L 721.92329 149.73543 L 721.92329 135.56176 L 738.19805 126.16553 L 750.47281 133.25236 L 758.74756 128.47493 L 758.74756 118.92006 L 750.47281 114.14262 L 738.19805 121.22946 L 721.92329 111.83322 L 721.92329 97.65956 L 713.64854 92.88212 Z M 619.45049 246.48307 L 619.45049 260.65674 L 607.17573 267.74357 L 607.17573 277.29844 L 615.45049 282.07587 L 627.72524 274.98904 L 644 284.38527 L 644 298.55894 L 652.27476 303.33637 L 660.54951 298.55894 L 660.54951 284.38527 L 672.82427 277.29844 L 672.82427 267.74357 L 664.54951 262.96614 L 652.27476 270.05297 L 636 260.65674 L 636 246.48307 L 627.72524 241.70563 Z M 713.64854 206.27146 L 701.37378 199.18463 L 693.09903 203.96206 L 693.09903 213.51693 L 705.37378 220.60377 L 705.37378 239.39623 L 693.09903 246.48307 L 693.09903 256.03794 L 701.37378 260.81537 L 713.64854 253.72854 L 725.92329 260.81537 L 734.19805 256.03794 L 734.19805 246.48307 L 721.92329 239.39623 L 721.92329 220.60377 L 734.19805 213.51693 L 734.19805 203.96206 L 725.92329 199.18463 Z M 644 161.44106 L 644 175.61473 L 627.72524 185.01096 L 615.45049 177.92413 L 607.17573 182.70156 L 607.17573 192.25643 L 619.45049 199.34326 L 619.45049 213.51693 L 627.72524 218.29437 L 636 213.51693 L 636 199.34326 L 652.27476 189.94703 L 664.54951 197.03386 L 672.82427 192.25643 L 672.82427 182.70156 L 660.54951 175.61473 L 660.54951 161.44106 L 652.27476 156.66363 Z" stroke-miterlimit="10"/><path fill="#222222" stroke="#cccccc" paint-order="fill stroke markers" d=" M 252.33429 472.98662 L 252.33429 504.54622 L 229.00288 518.01662 L 229.00288 540.33861 L 248.33429 551.49961 L 271.66571 538.02921 L 298.99712 553.80901 L 298.99712 580.7498 L 318.32853 591.9108 L 337.65995 580.7498 L 337.65995 553.80901 L 364.99136 538.02921 L 392.32277 553.80901 L 392.32277 585.3686 L 364.99136 601.1484 L 341.65995 587.678 L 322.32853 598.839 L 322.32853 621.161 L 341.65995 632.322 L 364.99136 618.8516 L 392.32277 634.6314 L 392.32277 666.19099 L 364.99136 681.97079 L 337.65995 666.19099 L 337.65995 639.2502 L 318.32853 628.0892 L 298.99712 639.2502 L 298.99712 666.19099 L 271.66571 681.97079 L 248.33429 668.50039 L 229.00288 679.66139 L 229.00288 701.98338 L 252.33429 715.45378 L 252.33429 747.01338 L 225.00288 762.79317 L 197.67147 747.01338 L 197.67147 715.45378 L 221.00288 701.98338 L 221.00288 679.66139 L 201.67147 668.50039 L 182.34005 679.66139 L 182.34005 706.60218 L 155.00864 722.38198 L 127.67723 706.60218 L 127.67723 675.04259 L 155.00864 659.26279 L 178.34005 672.73319 L 197.67147 661.57219 L 197.67147 639.2502 L 174.34005 625.7798 L 174.34005 594.2202 L 197.67147 580.7498 L 197.67147 558.42781 L 178.34005 547.26681 L 155.00864 560.73721 L 127.67723 544.95741 L 127.67723 513.39782 L 155.00864 497.61802 L 182.34005 513.39782 L 182.34005 540.33861 L 201.67147 551.49961 L 221.00288 540.33861 L 221.00288 518.01662 L 197.67147 504.54622 L 197.67147 472.98662 L 225.00288 457.20683 Z M 205.67147 720.07258 L 205.67147 742.39458 L 225.00288 753.55557 L 244.33429 742.39458 L 244.33429 720.07258 L 225.00288 708.91158 Z M 135.67723 679.66139 L 135.67723 701.98338 L 155.00864 713.14438 L 174.34005 701.98338 L 174.34005 679.66139 L 155.00864 668.50039 Z M 205.67147 639.2502 L 205.67147 661.57219 L 225.00288 672.73319 L 244.33429 661.57219 L 244.33429 639.2502 L 225.00288 628.0892 Z M 252.33429 558.42781 L 252.33429 585.3686 L 225.00288 601.1484 L 201.67147 587.678 L 182.34005 598.839 L 182.34005 621.161 L 201.67147 632.322 L 225.00288 618.8516 L 252.33429 634.6314 L 252.33429 661.57219 L 271.66571 672.73319 L 290.99712 661.57219 L 290.99712 639.2502 L 269.66571 626.9345 L 269.61971 626.89571 L 269.56373 626.87359 L 269.08251 626.44267 L 268.58884 626.02635 L 268.55914 625.97401 L 268.51431 625.93387 L 268.21242 625.36304 L 267.89358 624.80121 L 267.88386 624.7418 L 267.85573 624.68861 L 267.66571 623.4704 L 267.66571 594.2202 L 290.99712 580.7498 L 290.99712 558.42781 L 271.66571 547.26681 Z M 345.65995 639.2502 L 345.65995 661.57219 L 364.99136 672.73319 L 384.32277 661.57219 L 384.32277 639.2502 L 364.99136 628.0892 Z M 275.66571 598.839 L 275.66571 621.161 L 294.99712 632.322 L 314.32853 621.161 L 314.32853 598.839 L 294.99712 587.678 Z M 205.67147 558.42781 L 205.67147 580.7498 L 225.00288 591.9108 L 244.33429 580.7498 L 244.33429 558.42781 L 225.00288 547.26681 Z M 345.65995 558.42781 L 345.65995 580.7498 L 364.99136 591.9108 L 384.32277 580.7498 L 384.32277 558.42781 L 364.99136 547.26681 Z M 135.67723 518.01662 L 135.67723 540.33861 L 155.00864 551.49961 L 174.34005 540.33861 L 174.34005 518.01662 L 155.00864 506.85562 Z M 205.67147 477.60542 L 205.67147 499.92742 L 225.00288 511.08842 L 244.33429 499.92742 L 244.33429 477.60542 L 225.00288 466.44443 Z" stroke-miterlimit="10"/><path fill="#222222" stroke="#cccccc" paint-order="fill stroke markers" d=" M 707.05046 472.48243 L 707.05046 493.28368 L 721.06488 501.37491 L 739.0793 490.97428 L 761.09371 503.68431 L 761.09371 524.48557 L 779.10813 534.8862 L 779.10813 560.30626 L 761.09371 570.70689 L 761.09371 591.50814 L 739.0793 604.21817 L 721.06488 593.81754 L 703.05046 604.21817 L 685.03604 593.81754 L 671.02163 601.90877 L 671.02163 618.09123 L 685.03604 626.18246 L 703.05046 615.78183 L 721.06488 626.18246 L 739.0793 615.78183 L 761.09371 628.49186 L 761.09371 649.29311 L 779.10813 659.69374 L 779.10813 685.1138 L 761.09371 695.51443 L 761.09371 716.31569 L 739.0793 729.02572 L 721.06488 718.62509 L 707.05046 726.71632 L 707.05046 747.51757 L 685.03604 760.2276 L 667.02163 749.82697 L 649.00721 760.2276 L 626.99279 747.51757 L 626.99279 726.71632 L 608.97837 716.31569 L 608.97837 690.89563 L 626.99279 680.495 L 626.99279 659.69374 L 645.00721 649.29311 L 645.00721 633.11066 L 630.99279 625.01943 L 616.97837 633.11066 L 616.97837 653.91191 L 598.96396 664.31254 L 598.96396 685.1138 L 576.94954 697.82383 L 558.93512 687.4232 L 540.9207 697.82383 L 518.90629 685.1138 L 518.90629 664.31254 L 500.89187 653.91191 L 500.89187 628.49186 L 518.90629 618.09123 L 518.90629 601.90877 L 502.89187 592.66284 L 502.84587 592.62405 L 502.78989 592.60193 L 502.30867 592.17101 L 501.815 591.75469 L 501.7853 591.70235 L 501.74047 591.66221 L 501.43858 591.09138 L 501.11974 590.52955 L 501.11002 590.47014 L 501.08189 590.41695 L 500.89187 589.19874 L 500.89187 566.08809 L 518.90629 555.68746 L 518.90629 534.8862 L 540.9207 522.17617 L 558.93512 532.5768 L 576.94954 522.17617 L 598.96396 534.8862 L 598.96396 555.68746 L 616.97837 566.08809 L 616.97837 586.88934 L 630.99279 594.98057 L 645.00721 586.88934 L 645.00721 570.70689 L 626.99279 560.30626 L 626.99279 539.505 L 608.97837 529.10437 L 608.97837 503.68431 L 626.99279 493.28368 L 626.99279 472.48243 L 649.00721 459.7724 L 667.02163 470.17303 L 685.03604 459.7724 Z M 721.06488 635.42006 L 703.05046 625.01943 L 689.03604 633.11066 L 689.03604 649.29311 L 703.05046 657.38434 L 721.06488 646.98371 L 743.0793 659.69374 L 743.0793 685.1138 L 721.06488 697.82383 L 699.05046 685.1138 L 699.05046 664.31254 L 685.03604 656.22131 L 671.02163 664.31254 L 671.02163 680.495 L 689.03604 690.89563 L 689.03604 716.31569 L 667.02163 729.02572 L 645.00721 716.31569 L 645.00721 690.89563 L 663.02163 680.495 L 663.02163 664.31254 L 649.00721 656.22131 L 634.99279 664.31254 L 634.99279 685.1138 L 616.97837 695.51443 L 616.97837 711.69689 L 634.99279 722.09752 L 634.99279 742.89877 L 649.00721 750.99 L 667.02163 740.58937 L 685.03604 750.99 L 699.05046 742.89877 L 699.05046 722.09752 L 721.06488 709.38749 L 739.0793 719.78812 L 753.09371 711.69689 L 753.09371 690.89563 L 771.10813 680.495 L 771.10813 664.31254 L 753.09371 653.91191 L 753.09371 633.11066 L 739.0793 625.01943 Z M 653.00721 695.51443 L 653.00721 711.69689 L 667.02163 719.78812 L 681.03604 711.69689 L 681.03604 695.51443 L 667.02163 687.4232 Z M 558.93512 541.8144 L 540.9207 531.41377 L 526.90629 539.505 L 526.90629 560.30626 L 508.89187 570.70689 L 508.89187 586.88934 L 526.90629 597.28997 L 526.90629 622.71003 L 508.89187 633.11066 L 508.89187 649.29311 L 526.90629 659.69374 L 526.90629 680.495 L 540.9207 688.58623 L 558.93512 678.1856 L 576.94954 688.58623 L 590.96396 680.495 L 590.96396 659.69374 L 608.97837 649.29311 L 608.97837 633.11066 L 594.96396 625.01943 L 580.94954 633.11066 L 580.94954 653.91191 L 558.93512 666.62194 L 536.9207 653.91191 L 536.9207 628.49186 L 558.93512 615.78183 L 576.94954 626.18246 L 590.96396 618.09123 L 590.96396 601.90877 L 576.94954 593.81754 L 558.93512 604.21817 L 536.9207 591.50814 L 536.9207 566.08809 L 558.93512 553.37806 L 580.94954 566.08809 L 580.94954 586.88934 L 594.96396 594.98057 L 608.97837 586.88934 L 608.97837 570.70689 L 590.96396 560.30626 L 590.96396 539.505 L 576.94954 531.41377 Z M 707.05046 664.31254 L 707.05046 680.495 L 721.06488 688.58623 L 735.0793 680.495 L 735.0793 664.31254 L 721.06488 656.22131 Z M 544.9207 633.11066 L 544.9207 649.29311 L 558.93512 657.38434 L 572.94954 649.29311 L 572.94954 633.11066 L 558.93512 625.01943 Z M 653.00721 633.11066 L 653.00721 649.29311 L 667.02163 657.38434 L 681.03604 649.29311 L 681.03604 633.11066 L 667.02163 625.01943 Z M 598.96396 601.90877 L 598.96396 618.09123 L 612.97837 626.18246 L 626.99279 618.09123 L 626.99279 601.90877 L 612.97837 593.81754 Z M 634.99279 601.90877 L 634.99279 618.09123 L 649.00721 626.18246 L 663.02163 618.09123 L 663.02163 601.90877 L 649.00721 593.81754 Z M 544.9207 570.70689 L 544.9207 586.88934 L 558.93512 594.98057 L 572.94954 586.88934 L 572.94954 570.70689 L 558.93512 562.61566 Z M 653.00721 570.70689 L 653.00721 586.88934 L 667.02163 594.98057 L 681.03604 586.88934 L 681.03604 570.70689 L 667.02163 562.61566 Z M 667.02163 479.41063 L 649.00721 469.01 L 634.99279 477.10123 L 634.99279 497.90248 L 616.97837 508.30311 L 616.97837 524.48557 L 634.99279 534.8862 L 634.99279 555.68746 L 649.00721 563.77869 L 663.02163 555.68746 L 663.02163 539.505 L 645.00721 529.10437 L 645.00721 503.68431 L 667.02163 490.97428 L 689.03604 503.68431 L 689.03604 526.79497 L 689.02544 526.8542 L 689.03428 526.91374 L 688.90169 527.54604 L 688.78799 528.18164 L 688.75752 528.23352 L 688.74517 528.29243 L 688.40168 528.83943 L 688.07462 529.39633 L 688.02804 529.43444 L 687.99604 529.4854 L 687.03604 530.25907 L 671.02163 539.505 L 671.02163 555.68746 L 685.03604 563.77869 L 699.05046 555.68746 L 699.05046 534.8862 L 721.06488 522.17617 L 743.0793 534.8862 L 743.0793 560.30626 L 721.06488 573.01629 L 703.05046 562.61566 L 689.03604 570.70689 L 689.03604 586.88934 L 703.05046 594.98057 L 721.06488 584.57994 L 739.0793 594.98057 L 753.09371 586.88934 L 753.09371 566.08809 L 771.10813 555.68746 L 771.10813 539.505 L 753.09371 529.10437 L 753.09371 508.30311 L 739.0793 500.21188 L 721.06488 510.61251 L 699.05046 497.90248 L 699.05046 477.10123 L 685.03604 469.01 Z M 707.05046 539.505 L 707.05046 555.68746 L 721.06488 563.77869 L 735.0793 555.68746 L 735.0793 539.505 L 721.06488 531.41377 Z M 653.00721 508.30311 L 653.00721 524.48557 L 667.02163 532.5768 L 681.03604 524.48557 L 681.03604 508.30311 L 667.02163 500.21188 Z" stroke-miterlimit="10"/><path fill="#222222" stroke="#cccccc" paint-order="fill stroke markers" d=" M 227.97117 852.48243 L 227.97117 877.90248 L 209.95675 888.30311 L 209.95675 904.48557 L 227.97117 914.8862 L 227.97117 935.68746 L 241.98558 943.77869 L 256 935.68746 L 256 914.8862 L 278.01442 902.17617 L 300.02883 914.8862 L 300.02883 940.30626 L 282.01442 950.70689 L 282.01442 966.88934 L 296.02883 974.98057 L 314.04325 964.57994 L 332.05767 974.98057 L 346.07209 966.88934 L 346.07209 946.08809 L 368.0865 933.37806 L 390.10092 946.08809 L 390.10092 971.50814 L 372.0865 981.90877 L 372.0865 998.09123 L 390.10092 1008.49186 L 390.10092 1033.91191 L 368.0865 1046.62194 L 346.07209 1033.91191 L 346.07209 1013.11066 L 332.05767 1005.01943 L 314.04325 1015.42006 L 296.02883 1005.01943 L 282.01442 1013.11066 L 282.01442 1029.29311 L 300.02883 1039.69374 L 300.02883 1065.1138 L 278.01442 1077.82383 L 256 1065.1138 L 256 1044.31254 L 241.98558 1036.22131 L 227.97117 1044.31254 L 227.97117 1065.1138 L 209.95675 1075.51443 L 209.95675 1091.69689 L 227.97117 1102.09752 L 227.97117 1127.51757 L 205.95675 1140.2276 L 183.94233 1127.51757 L 183.94233 1106.71632 L 169.92791 1098.62509 L 151.9135 1109.02572 L 129.89908 1096.31569 L 129.89908 1070.89563 L 151.9135 1058.1856 L 169.92791 1068.58623 L 183.94233 1060.495 L 183.94233 1039.69374 L 201.95675 1029.29311 L 201.95675 1013.11066 L 187.94233 1005.01943 L 169.92791 1015.42006 L 147.9135 1002.71003 L 147.9135 977.28997 L 169.92791 964.57994 L 187.94233 974.98057 L 201.95675 966.88934 L 201.95675 950.70689 L 183.94233 940.30626 L 183.94233 919.505 L 169.92791 911.41377 L 151.9135 921.8144 L 129.89908 909.10437 L 129.89908 883.68431 L 151.9135 870.97428 L 169.92791 881.37491 L 183.94233 873.28368 L 183.94233 852.48243 L 205.95675 839.7724 Z M 191.94233 1106.71632 L 191.94233 1122.89877 L 205.95675 1130.99 L 219.97117 1122.89877 L 219.97117 1106.71632 L 205.95675 1098.62509 Z M 137.89908 1075.51443 L 137.89908 1091.69689 L 151.9135 1099.78812 L 165.92791 1091.69689 L 165.92791 1075.51443 L 151.9135 1067.4232 Z M 173.92791 1075.51443 L 173.92791 1091.69689 L 187.94233 1099.78812 L 201.95675 1091.69689 L 201.95675 1075.51443 L 187.94233 1067.4232 Z M 191.94233 919.505 L 191.94233 935.68746 L 209.95675 946.08809 L 209.95675 966.88934 L 227.97117 977.28997 L 227.97117 1002.71003 L 209.95675 1013.11066 L 209.95675 1033.91191 L 191.94233 1044.31254 L 191.94233 1060.495 L 205.95675 1068.58623 L 219.97117 1060.495 L 219.97117 1039.69374 L 237.98558 1029.29311 L 237.98558 1008.49186 L 260 995.78183 L 278.01442 1006.18246 L 296.02883 995.78183 L 314.04325 1006.18246 L 328.05767 998.09123 L 328.05767 981.90877 L 314.04325 973.81754 L 296.02883 984.21817 L 278.01442 973.81754 L 260 984.21817 L 237.98558 971.50814 L 237.98558 950.70689 L 219.97117 940.30626 L 219.97117 919.505 L 205.95675 911.41377 Z M 264 1044.31254 L 264 1060.495 L 278.01442 1068.58623 L 292.02883 1060.495 L 292.02883 1044.31254 L 278.01442 1036.22131 Z M 245.98558 1013.11066 L 245.98558 1029.29311 L 260 1037.38434 L 274.01442 1029.29311 L 274.01442 1013.11066 L 260 1005.01943 Z M 354.07209 1013.11066 L 354.07209 1029.29311 L 368.0865 1037.38434 L 382.10092 1029.29311 L 382.10092 1013.11066 L 368.0865 1005.01943 Z M 155.9135 981.90877 L 155.9135 998.09123 L 169.92791 1006.18246 L 183.94233 998.09123 L 183.94233 981.90877 L 169.92791 973.81754 Z M 191.94233 981.90877 L 191.94233 998.09123 L 205.95675 1006.18246 L 219.97117 998.09123 L 219.97117 981.90877 L 205.95675 973.81754 Z M 336.05767 981.90877 L 336.05767 998.09123 L 350.07209 1006.18246 L 364.0865 998.09123 L 364.0865 981.90877 L 350.07209 973.81754 Z M 245.98558 950.70689 L 245.98558 966.88934 L 260 974.98057 L 274.01442 966.88934 L 274.01442 950.70689 L 260 942.61566 Z M 354.07209 950.70689 L 354.07209 966.88934 L 368.0865 974.98057 L 382.10092 966.88934 L 382.10092 950.70689 L 368.0865 942.61566 Z M 264 919.505 L 264 935.68746 L 278.01442 943.77869 L 292.02883 935.68746 L 292.02883 919.505 L 278.01442 911.41377 Z M 137.89908 888.30311 L 137.89908 904.48557 L 151.9135 912.5768 L 165.92791 904.48557 L 165.92791 888.30311 L 151.9135 880.21188 Z M 173.92791 888.30311 L 173.92791 904.48557 L 187.94233 912.5768 L 201.95675 904.48557 L 201.95675 888.30311 L 187.94233 880.21188 Z M 191.94233 857.10123 L 191.94233 873.28368 L 205.95675 881.37491 L 219.97117 873.28368 L 219.97117 857.10123 L 205.95675 849.01 Z" stroke-miterlimit="10"/><path fill="#222222" stroke="#cccccc" paint-order="fill stroke markers" d=" M 674.03408 863.23666 L 674.08008 863.27545 L 674.13606 863.29757 L 674.61728 863.72849 L 675.11095 864.14481 L 675.14065 864.19715 L 675.18548 864.23729 L 675.48737 864.80812 L 675.80621 865.36995 L 675.81593 865.42936 L 675.84406 865.48255 L 676.03408 866.70076 L 676.03408 889.05121 L 693.39014 899.07173 L 714.74619 886.74181 L 740.10225 901.38113 L 740.10225 930.65978 L 714.74619 945.2991 L 693.39014 932.96918 L 676.03408 942.9897 L 676.03408 963.03075 L 693.39014 973.05128 L 714.74619 960.72135 L 736.10225 973.05128 L 755.4583 961.87605 L 755.5149 961.85561 L 755.56204 961.81819 L 756.1758 961.61691 L 756.78321 961.39753 L 756.84339 961.39798 L 756.90058 961.37922 L 757.54615 961.4032 L 758.19185 961.40799 L 758.24813 961.42927 L 758.30829 961.4315 L 759.4583 961.87605 L 782.81436 975.36068 L 782.81436 1004.63932 L 757.4583 1019.27865 L 736.10225 1006.94872 L 714.74619 1019.27865 L 693.39014 1006.94872 L 676.03408 1016.96925 L 676.03408 1037.0103 L 693.39014 1047.03082 L 714.74619 1034.7009 L 740.10225 1049.34022 L 740.10225 1078.61887 L 714.74619 1093.25819 L 693.39014 1080.92827 L 676.03408 1090.94879 L 676.03408 1115.60864 L 650.67803 1130.24796 L 625.32197 1115.60864 L 625.32197 1086.32999 L 646.67803 1074.00007 L 646.67803 1053.95902 L 629.32197 1043.9385 L 611.96592 1053.95902 L 611.96592 1078.61887 L 590.60986 1090.94879 L 590.60986 1115.60864 L 565.25381 1130.24796 L 539.89775 1115.60864 L 539.89775 1086.32999 L 561.25381 1074.00007 L 561.25381 1049.34022 L 582.60986 1037.0103 L 582.60986 1016.96925 L 565.25381 1006.94872 L 547.89775 1016.96925 L 547.89775 1041.6291 L 522.5417 1056.26842 L 497.18564 1041.6291 L 497.18564 1012.35045 L 518.5417 1000.02052 L 518.5417 979.97948 L 497.18564 967.64955 L 497.18564 938.3709 L 522.5417 923.73158 L 547.89775 938.3709 L 547.89775 963.03075 L 565.25381 973.05128 L 582.60986 963.03075 L 582.60986 942.9897 L 561.25381 930.65978 L 561.25381 905.99993 L 539.89775 893.67001 L 539.89775 864.39136 L 565.25381 849.75204 L 590.60986 864.39136 L 590.60986 889.05121 L 611.96592 901.38113 L 611.96592 926.04098 L 629.32197 936.0615 L 646.67803 926.04098 L 646.67803 905.99993 L 625.32197 893.67001 L 625.32197 864.39136 L 650.67803 849.75204 Z M 547.89775 1090.94879 L 547.89775 1110.98984 L 565.25381 1121.01036 L 582.60986 1110.98984 L 582.60986 1090.94879 L 565.25381 1080.92827 Z M 633.32197 1090.94879 L 633.32197 1110.98984 L 650.67803 1121.01036 L 668.03408 1110.98984 L 668.03408 1090.94879 L 650.67803 1080.92827 Z M 590.60986 1016.96925 L 590.60986 1041.6291 L 569.25381 1053.95902 L 569.25381 1074.00007 L 586.60986 1084.02059 L 603.96592 1074.00007 L 603.96592 1049.34022 L 625.32197 1037.0103 L 625.32197 1016.96925 L 607.96592 1006.94872 Z M 633.32197 1016.96925 L 633.32197 1037.0103 L 654.67803 1049.34022 L 654.67803 1074.00007 L 672.03408 1084.02059 L 689.39014 1074.00007 L 689.39014 1053.95902 L 668.03408 1041.6291 L 668.03408 1016.96925 L 650.67803 1006.94872 Z M 697.39014 1053.95902 L 697.39014 1074.00007 L 714.74619 1084.02059 L 732.10225 1074.00007 L 732.10225 1053.95902 L 714.74619 1043.9385 Z M 505.18564 1016.96925 L 505.18564 1037.0103 L 522.5417 1047.03082 L 539.89775 1037.0103 L 539.89775 1016.96925 L 522.5417 1006.94872 Z M 565.25381 982.28888 L 543.89775 969.95895 L 526.5417 979.97948 L 526.5417 1000.02052 L 543.89775 1010.04105 L 565.25381 997.71112 L 586.60986 1010.04105 L 603.96592 1000.02052 L 603.96592 979.97948 L 586.60986 969.95895 Z M 611.96592 979.97948 L 611.96592 1000.02052 L 629.32197 1010.04105 L 646.67803 1000.02052 L 646.67803 979.97948 L 629.32197 969.95895 Z M 693.39014 982.28888 L 672.03408 969.95895 L 654.67803 979.97948 L 654.67803 1000.02052 L 672.03408 1010.04105 L 693.39014 997.71112 L 714.74619 1010.04105 L 732.10225 1000.02052 L 732.10225 979.97948 L 714.74619 969.95895 Z M 740.10225 979.97948 L 740.10225 1000.02052 L 757.4583 1010.04105 L 774.81436 1000.02052 L 774.81436 979.97948 L 757.4583 969.95895 Z M 505.18564 942.9897 L 505.18564 963.03075 L 522.5417 973.05128 L 539.89775 963.03075 L 539.89775 942.9897 L 522.5417 932.96918 Z M 569.25381 905.99993 L 569.25381 926.04098 L 590.60986 938.3709 L 590.60986 963.03075 L 607.96592 973.05128 L 625.32197 963.03075 L 625.32197 942.9897 L 603.96592 930.65978 L 603.96592 905.99993 L 586.60986 895.97941 Z M 654.67803 905.99993 L 654.67803 930.65978 L 633.32197 942.9897 L 633.32197 963.03075 L 650.67803 973.05128 L 668.03408 963.03075 L 668.03408 938.3709 L 689.39014 926.04098 L 689.39014 905.99993 L 672.03408 895.97941 Z M 697.39014 905.99993 L 697.39014 926.04098 L 714.74619 936.0615 L 732.10225 926.04098 L 732.10225 905.99993 L 714.74619 895.97941 Z M 547.89775 869.01016 L 547.89775 889.05121 L 565.25381 899.07173 L 582.60986 889.05121 L 582.60986 869.01016 L 565.25381 858.98964 Z M 633.32197 869.01016 L 633.32197 889.05121 L 650.67803 899.07173 L 668.03408 889.05121 L 668.03408 869.01016 L 650.67803 858.98964 Z" stroke-miterlimit="10"/><path fill="#222222" stroke="#cccccc" paint-order="fill stroke markers" d=" M 212.84638 1232.68005 L 212.84638 1249.55637 L 227.4617 1257.99453 L 227.4617 1279.48965 L 212.84638 1287.92781 L 212.84638 1300.18533 L 223.4617 1306.31409 L 234.07702 1300.18533 L 234.07702 1283.30901 L 252.69234 1272.56145 L 271.30766 1283.30901 L 271.30766 1300.18533 L 281.92298 1306.31409 L 296.5383 1297.87593 L 315.15362 1308.62349 L 315.15362 1330.1186 L 300.5383 1338.55676 L 300.5383 1350.81428 L 311.15362 1356.94304 L 321.76894 1350.81428 L 321.76894 1333.93796 L 340.38426 1323.1904 L 354.99958 1331.62856 L 369.6149 1323.1904 L 388.23022 1333.93796 L 388.23022 1355.43308 L 369.6149 1366.18064 L 354.99958 1357.74248 L 340.38426 1366.18064 L 325.76894 1357.74248 L 315.15362 1363.87124 L 315.15362 1376.12876 L 325.76894 1382.25752 L 340.38426 1373.81936 L 354.99958 1382.25752 L 369.6149 1373.81936 L 388.23022 1384.56692 L 388.23022 1406.06204 L 371.6149 1415.6549 L 371.5583 1415.67534 L 371.51116 1415.71276 L 370.8974 1415.91404 L 370.28999 1416.13342 L 370.22981 1416.13297 L 370.17262 1416.15173 L 369.52705 1416.12775 L 368.88135 1416.12296 L 368.82507 1416.10168 L 368.76491 1416.09945 L 367.6149 1415.6549 L 354.99958 1408.37144 L 340.38426 1416.8096 L 321.76894 1406.06204 L 321.76894 1389.18572 L 311.15362 1383.05696 L 300.5383 1389.18572 L 300.5383 1401.44324 L 315.15362 1409.8814 L 315.15362 1431.37651 L 296.5383 1442.12407 L 281.92298 1433.68591 L 271.30766 1439.81467 L 271.30766 1456.69099 L 252.69234 1467.43855 L 234.07702 1456.69099 L 234.07702 1439.81467 L 223.4617 1433.68591 L 212.84638 1439.81467 L 212.84638 1452.07219 L 227.4617 1460.51035 L 227.4617 1482.00547 L 212.84638 1490.44363 L 212.84638 1507.31995 L 194.23106 1518.06751 L 175.61574 1507.31995 L 175.61574 1485.82483 L 190.23106 1477.38667 L 190.23106 1460.51035 L 204.84638 1452.07219 L 204.84638 1439.81467 L 194.23106 1433.68591 L 183.61574 1439.81467 L 183.61574 1456.69099 L 169.00042 1465.12915 L 169.00042 1482.00547 L 150.3851 1492.75303 L 131.76978 1482.00547 L 131.76978 1460.51035 L 146.3851 1452.07219 L 146.3851 1435.19587 L 165.00042 1424.44831 L 179.61574 1432.88647 L 190.23106 1426.75771 L 190.23106 1414.5002 L 179.61574 1408.37144 L 165.00042 1416.8096 L 146.3851 1406.06204 L 146.3851 1384.56692 L 161.00042 1376.12876 L 161.00042 1363.87124 L 146.3851 1355.43308 L 146.3851 1333.93796 L 165.00042 1323.1904 L 179.61574 1331.62856 L 190.23106 1325.4998 L 190.23106 1313.24229 L 179.61574 1307.11353 L 165.00042 1315.55169 L 146.3851 1304.80413 L 146.3851 1287.92781 L 131.76978 1279.48965 L 131.76978 1257.99453 L 150.3851 1247.24697 L 169.00042 1257.99453 L 169.00042 1274.87085 L 183.61574 1283.30901 L 183.61574 1300.18533 L 194.23106 1306.31409 L 204.84638 1300.18533 L 204.84638 1287.92781 L 190.23106 1279.48965 L 190.23106 1262.61333 L 175.61574 1254.17517 L 175.61574 1232.68005 L 194.23106 1221.93249 Z M 183.61574 1490.44363 L 183.61574 1502.70115 L 194.23106 1508.82991 L 204.84638 1502.70115 L 204.84638 1490.44363 L 194.23106 1484.31487 Z M 139.76978 1465.12915 L 139.76978 1477.38667 L 150.3851 1483.51543 L 161.00042 1477.38667 L 161.00042 1465.12915 L 150.3851 1459.00039 Z M 198.23106 1465.12915 L 198.23106 1477.38667 L 208.84638 1483.51543 L 219.4617 1477.38667 L 219.4617 1465.12915 L 208.84638 1459.00039 Z M 154.3851 1439.81467 L 154.3851 1452.07219 L 165.00042 1458.20095 L 175.61574 1452.07219 L 175.61574 1439.81467 L 165.00042 1433.68591 Z M 242.07702 1439.81467 L 242.07702 1452.07219 L 252.69234 1458.20095 L 263.30766 1452.07219 L 263.30766 1439.81467 L 252.69234 1433.68591 Z M 198.23106 1414.5002 L 198.23106 1426.75771 L 208.84638 1432.88647 L 219.4617 1426.75771 L 219.4617 1414.5002 L 208.84638 1408.37144 Z M 252.69234 1315.55169 L 238.07702 1307.11353 L 227.4617 1313.24229 L 227.4617 1330.1186 L 208.84638 1340.86616 L 194.23106 1332.428 L 183.61574 1338.55676 L 183.61574 1355.43308 L 169.00042 1363.87124 L 169.00042 1376.12876 L 183.61574 1384.56692 L 183.61574 1401.44324 L 194.23106 1407.572 L 208.84638 1399.13384 L 227.4617 1409.8814 L 227.4617 1426.75771 L 238.07702 1432.88647 L 252.69234 1424.44831 L 267.30766 1432.88647 L 277.92298 1426.75771 L 277.92298 1409.8814 L 292.5383 1401.44324 L 292.5383 1389.18572 L 277.92298 1380.74756 L 277.92298 1359.25244 L 292.5383 1350.81428 L 292.5383 1338.55676 L 277.92298 1330.1186 L 277.92298 1313.24229 L 267.30766 1307.11353 Z M 285.92298 1414.5002 L 285.92298 1426.75771 L 296.5383 1432.88647 L 307.15362 1426.75771 L 307.15362 1414.5002 L 296.5383 1408.37144 Z M 154.3851 1389.18572 L 154.3851 1401.44324 L 165.00042 1407.572 L 175.61574 1401.44324 L 175.61574 1389.18572 L 165.00042 1383.05696 Z M 329.76894 1389.18572 L 329.76894 1401.44324 L 340.38426 1407.572 L 350.99958 1401.44324 L 350.99958 1389.18572 L 340.38426 1383.05696 Z M 358.99958 1389.18572 L 358.99958 1401.44324 L 369.6149 1407.572 L 380.23022 1401.44324 L 380.23022 1389.18572 L 369.6149 1383.05696 Z M 285.92298 1363.87124 L 285.92298 1376.12876 L 296.5383 1382.25752 L 307.15362 1376.12876 L 307.15362 1363.87124 L 296.5383 1357.74248 Z M 154.3851 1338.55676 L 154.3851 1350.81428 L 165.00042 1356.94304 L 175.61574 1350.81428 L 175.61574 1338.55676 L 165.00042 1332.428 Z M 329.76894 1338.55676 L 329.76894 1350.81428 L 340.38426 1356.94304 L 350.99958 1350.81428 L 350.99958 1338.55676 L 340.38426 1332.428 Z M 358.99958 1338.55676 L 358.99958 1350.81428 L 369.6149 1356.94304 L 380.23022 1350.81428 L 380.23022 1338.55676 L 369.6149 1332.428 Z M 198.23106 1313.24229 L 198.23106 1325.4998 L 208.84638 1331.62856 L 219.4617 1325.4998 L 219.4617 1313.24229 L 208.84638 1307.11353 Z M 285.92298 1313.24229 L 285.92298 1325.4998 L 296.5383 1331.62856 L 307.15362 1325.4998 L 307.15362 1313.24229 L 296.5383 1307.11353 Z M 154.3851 1287.92781 L 154.3851 1300.18533 L 165.00042 1306.31409 L 175.61574 1300.18533 L 175.61574 1287.92781 L 165.00042 1281.79905 Z M 242.07702 1287.92781 L 242.07702 1300.18533 L 252.69234 1306.31409 L 263.30766 1300.18533 L 263.30766 1287.92781 L 252.69234 1281.79905 Z M 139.76978 1262.61333 L 139.76978 1274.87085 L 150.3851 1280.99961 L 161.00042 1274.87085 L 161.00042 1262.61333 L 150.3851 1256.48457 Z M 198.23106 1262.61333 L 198.23106 1274.87085 L 208.84638 1280.99961 L 219.4617 1274.87085 L 219.4617 1262.61333 L 208.84638 1256.48457 Z M 183.61574 1237.29885 L 183.61574 1249.55637 L 194.23106 1255.68513 L 204.84638 1249.55637 L 204.84638 1237.29885 L 194.23106 1231.17009 Z" stroke-miterlimit="10"/><path fill="#222222" stroke="#cccccc" paint-order="fill stroke markers" d=" M 676.03408 1244.39136 L 676.03408 1269.05121 L 693.39014 1279.07173 L 714.74619 1266.74181 L 740.10225 1281.38113 L 740.10225 1306.04098 L 761.4583 1318.3709 L 761.4583 1343.03075 L 782.81436 1355.36068 L 782.81436 1384.63932 L 761.4583 1396.96925 L 761.4583 1421.6291 L 740.10225 1433.95902 L 740.10225 1458.61887 L 714.74619 1473.25819 L 693.39014 1460.92827 L 676.03408 1470.94879 L 676.03408 1495.60864 L 650.67803 1510.24796 L 629.32197 1497.91804 L 607.96592 1510.24796 L 586.60986 1497.91804 L 565.25381 1510.24796 L 539.89775 1495.60864 L 539.89775 1470.94879 L 518.5417 1458.61887 L 518.5417 1433.95902 L 497.18564 1421.6291 L 497.18564 1392.35045 L 518.5417 1380.02052 L 518.5417 1359.97948 L 497.18564 1347.64955 L 497.18564 1318.3709 L 518.5417 1306.04098 L 518.5417 1281.38113 L 539.89775 1269.05121 L 539.89775 1244.39136 L 565.25381 1229.75204 L 586.60986 1242.08196 L 607.96592 1229.75204 L 629.32197 1242.08196 L 650.67803 1229.75204 Z M 547.89775 1470.94879 L 547.89775 1490.98984 L 565.25381 1501.01036 L 582.60986 1490.98984 L 582.60986 1470.94879 L 565.25381 1460.92827 Z M 631.32197 1472.10349 L 631.26537 1472.12393 L 631.21823 1472.16135 L 630.60447 1472.36263 L 629.99706 1472.58201 L 629.93688 1472.58156 L 629.87969 1472.60032 L 629.23412 1472.57634 L 628.58842 1472.57155 L 628.53214 1472.55027 L 628.47198 1472.54804 L 627.32197 1472.10349 L 607.96592 1460.92827 L 590.60986 1470.94879 L 590.60986 1490.98984 L 607.96592 1501.01036 L 629.32197 1488.68044 L 650.67803 1501.01036 L 668.03408 1490.98984 L 668.03408 1470.94879 L 650.67803 1460.92827 Z M 505.18564 1396.96925 L 505.18564 1417.0103 L 526.5417 1429.34022 L 526.5417 1454.00007 L 543.89775 1464.02059 L 561.25381 1454.00007 L 561.25381 1433.95902 L 539.89775 1421.6291 L 539.89775 1396.96925 L 522.5417 1386.94872 Z M 547.89775 1396.96925 L 547.89775 1417.0103 L 569.25381 1429.34022 L 569.25381 1454.00007 L 586.60986 1464.02059 L 607.96592 1451.69067 L 629.32197 1464.02059 L 646.67803 1454.00007 L 646.67803 1433.95902 L 629.32197 1423.9385 L 607.96592 1436.26842 L 582.60986 1421.6291 L 582.60986 1396.96925 L 565.25381 1386.94872 Z M 654.67803 1433.95902 L 654.67803 1454.00007 L 672.03408 1464.02059 L 689.39014 1454.00007 L 689.39014 1433.95902 L 672.03408 1423.9385 Z M 718.74619 1396.96925 L 718.74619 1421.6291 L 697.39014 1433.95902 L 697.39014 1454.00007 L 714.74619 1464.02059 L 732.10225 1454.00007 L 732.10225 1429.34022 L 753.4583 1417.0103 L 753.4583 1396.96925 L 736.10225 1386.94872 Z M 590.60986 1322.9897 L 590.60986 1343.03075 L 611.96592 1355.36068 L 611.96592 1384.63932 L 590.60986 1396.96925 L 590.60986 1417.0103 L 607.96592 1427.03082 L 625.32197 1417.0103 L 625.32197 1392.35045 L 650.67803 1377.71112 L 672.03408 1390.04105 L 689.39014 1380.02052 L 689.39014 1359.97948 L 672.03408 1349.95895 L 650.67803 1362.28888 L 625.32197 1347.64955 L 625.32197 1322.9897 L 607.96592 1312.96918 Z M 633.32197 1396.96925 L 633.32197 1417.0103 L 650.67803 1427.03082 L 668.03408 1417.0103 L 668.03408 1396.96925 L 650.67803 1386.94872 Z M 676.03408 1322.9897 L 676.03408 1343.03075 L 697.39014 1355.36068 L 697.39014 1384.63932 L 676.03408 1396.96925 L 676.03408 1417.0103 L 693.39014 1427.03082 L 710.74619 1417.0103 L 710.74619 1392.35045 L 732.10225 1380.02052 L 732.10225 1359.97948 L 710.74619 1347.64955 L 710.74619 1322.9897 L 693.39014 1312.96918 Z M 526.5417 1359.97948 L 526.5417 1380.02052 L 543.89775 1390.04105 L 561.25381 1380.02052 L 561.25381 1359.97948 L 543.89775 1349.95895 Z M 569.25381 1359.97948 L 569.25381 1380.02052 L 586.60986 1390.04105 L 603.96592 1380.02052 L 603.96592 1359.97948 L 586.60986 1349.95895 Z M 740.10225 1359.97948 L 740.10225 1380.02052 L 757.4583 1390.04105 L 774.81436 1380.02052 L 774.81436 1359.97948 L 757.4583 1349.95895 Z M 526.5417 1285.99993 L 526.5417 1310.65978 L 505.18564 1322.9897 L 505.18564 1343.03075 L 522.5417 1353.05128 L 539.89775 1343.03075 L 539.89775 1318.3709 L 561.25381 1306.04098 L 561.25381 1285.99993 L 543.89775 1275.97941 Z M 607.96592 1288.30933 L 586.60986 1275.97941 L 569.25381 1285.99993 L 569.25381 1310.65978 L 547.89775 1322.9897 L 547.89775 1343.03075 L 565.25381 1353.05128 L 582.60986 1343.03075 L 582.60986 1318.3709 L 607.96592 1303.73158 L 629.32197 1316.0615 L 646.67803 1306.04098 L 646.67803 1285.99993 L 629.32197 1275.97941 Z M 633.32197 1322.9897 L 633.32197 1343.03075 L 650.67803 1353.05128 L 668.03408 1343.03075 L 668.03408 1322.9897 L 650.67803 1312.96918 Z M 697.39014 1285.99993 L 697.39014 1306.04098 L 718.74619 1318.3709 L 718.74619 1343.03075 L 736.10225 1353.05128 L 753.4583 1343.03075 L 753.4583 1322.9897 L 732.10225 1310.65978 L 732.10225 1285.99993 L 714.74619 1275.97941 Z M 654.67803 1285.99993 L 654.67803 1306.04098 L 672.03408 1316.0615 L 689.39014 1306.04098 L 689.39014 1285.99993 L 672.03408 1275.97941 Z M 547.89775 1249.01016 L 547.89775 1269.05121 L 565.25381 1279.07173 L 582.60986 1269.05121 L 582.60986 1249.01016 L 565.25381 1238.98964 Z M 629.32197 1251.31956 L 607.96592 1238.98964 L 590.60986 1249.01016 L 590.60986 1269.05121 L 607.96592 1279.07173 L 629.32197 1266.74181 L 650.67803 1279.07173 L 668.03408 1269.05121 L 668.03408 1249.01016 L 650.67803 1238.98964 Z" stroke-miterlimit="10"/></g></svg>