<svg version="1.1" xmlns="http://www.w3.org/2000/svg" xmlns:xlink="http://www.w3.org/1999/xlink" width="900" height="900"><defs/><g><path fill="#222222" stroke="#cccccc" paint-order="fill stroke markers" d=" M 310.2171 55.7759 L 310.2171 91.69696 L 333.32565 105.03869 L 364.4342 87.07816 L 403.54275 109.65749 L 403.54275 145.57855 L 434.65131 163.53908 L 434.65131 208.69774 L 395.54275 231.27707 L 364.4342 213.31654 L 341.32565 226.65827 L 341.32565 253.34173 L 364.4342 266.68346 L 395.54275 248.72293 L 434.65131 271.30226 L 434.65131 316.46092 L 403.54275 334.42145 L 403.54275 370.34251 L 364.4342 392.92184 L 333.32565 374.96131 L 310.2171 388.30304 L 310.2171 424.2241 L 271.10855 446.80343 L 240 428.8429 L 208.89145 446.80343 L 169.7829 424.2241 L 169.7829 379.06544 L 200.89145 361.10491 L 200.89145 334.42145 L 177.7829 321.07972 L 154.67435 334.42145 L 154.67435 370.34251 L 115.5658 392.92184 L 76.45725 370.34251 L 76.45725 334.42145 L 45.34869 316.46092 L 45.34869 271.30226 L 76.45725 253.34173 L 76.45725 226.65827 L 45.34869 208.69774 L 45.34869 163.53908 L 76.45725 145.57855 L 76.45725 109.65749 L 115.5658 87.07816 L 154.67435 109.65749 L 154.67435 145.57855 L 177.7829 158.92028 L 200.89145 145.57855 L 200.89145 118.89509 L 169.7829 100.93456 L 169.7829 55.7759 L 208.89145 33.19657 L 240 51.1571 L 271.10855 33.19657 Z M 185.7829 388.30304 L 185.7829 414.9865 L 208.89145 428.32823 L 232 414.9865 L 232 388.30304 L 208.89145 374.96131 Z M 302.2171 285.15866 L 271.10855 267.19813 L 248 280.53986 L 248 316.46092 L 216.89145 334.42145 L 216.89145 361.10491 L 248 379.06544 L 248 414.9865 L 271.10855 428.32823 L 294.2171 414.9865 L 294.2171 379.06544 L 333.32565 356.48611 L 364.4342 374.44664 L 387.54275 361.10491 L 387.54275 334.42145 L 356.4342 316.46092 L 356.4342 280.53986 L 333.32565 267.19813 Z M 92.45725 334.42145 L 92.45725 361.10491 L 115.5658 374.44664 L 138.67435 361.10491 L 138.67435 334.42145 L 115.5658 321.07972 Z M 115.5658 177.39548 L 84.45725 159.43495 L 61.34869 172.77668 L 61.34869 199.46014 L 92.45725 217.42067 L 92.45725 262.57933 L 61.34869 280.53986 L 61.34869 307.22332 L 84.45725 320.56505 L 111.5658 304.91392 L 112.14488 304.6701 L 112.6988 304.3735 L 113.06135 304.28422 L 113.40547 304.13933 L 114.02688 304.04646 L 114.63699 303.89622 L 115.01039 303.89948 L 115.37964 303.84429 L 116.00464 303.90814 L 116.63301 303.91362 L 116.99399 304.00922 L 117.36539 304.04716 L 117.95514 304.26375 L 118.56258 304.42462 L 119.07912 304.67655 L 119.23911 304.73531 L 119.3357 304.80169 L 119.5658 304.91392 L 146.67435 320.56505 L 169.7829 307.22332 L 169.7829 271.30226 L 200.89145 253.34173 L 200.89145 226.65827 L 173.7829 211.00714 L 173.28221 210.62755 L 172.74838 210.29614 L 172.48978 210.0268 L 172.19225 209.80123 L 171.80113 209.30953 L 171.36595 208.85626 L 171.18207 208.53126 L 170.94966 208.23908 L 170.69244 207.66585 L 170.38302 207.11896 L 170.28533 206.75859 L 170.13247 206.41793 L 170.02515 205.7988 L 169.86077 205.1924 L 169.82068 204.61918 L 169.79156 204.45117 L 169.80076 204.33429 L 169.7829 204.07894 L 169.7829 172.77668 L 146.67435 159.43495 Z M 185.7829 172.77668 L 185.7829 199.46014 L 216.89145 217.42067 L 216.89145 262.57933 L 185.7829 280.53986 L 185.7829 307.22332 L 208.89145 320.56505 L 232 307.22332 L 232 271.30226 L 271.10855 248.72293 L 302.2171 266.68346 L 325.32565 253.34173 L 325.32565 226.65827 L 302.2171 213.31654 L 271.10855 231.27707 L 232 208.69774 L 232 172.77668 L 208.89145 159.43495 Z M 372.4342 280.53986 L 372.4342 307.22332 L 395.54275 320.56505 L 418.65131 307.22332 L 418.65131 280.53986 L 395.54275 267.19813 Z M 248 65.0135 L 248 100.93456 L 216.89145 118.89509 L 216.89145 145.57855 L 248 163.53908 L 248 199.46014 L 271.10855 212.80187 L 302.2171 194.84134 L 333.32565 212.80187 L 356.4342 199.46014 L 356.4342 163.53908 L 387.54275 145.57855 L 387.54275 118.89509 L 364.4342 105.55336 L 333.32565 123.51389 L 294.2171 100.93456 L 294.2171 65.0135 L 271.10855 51.67177 Z M 372.4342 172.77668 L 372.4342 199.46014 L 395.54275 212.80187 L 418.65131 199.46014 L 418.65131 172.77668 L 395.54275 159.43495 Z M 92.45725 118.89509 L 92.45725 145.57855 L 115.5658 158.92028 L 138.67435 145.57855 L 138.67435 118.89509 L 115.5658 105.55336 Z M 185.7829 65.0135 L 185.7829 91.69696 L 208.89145 105.03869 L 232 91.69696 L 232 65.0135 L 208.89145 51.67177 Z" stroke-miterlimit="10"/><path fill="none" stroke="#0099ff" paint-order="fill stroke markers" d=" M 177.78289831617437 204.07893959464482 L 177.78289831617437 168.15787918928987 L 208.8914491580871 150.19734898661238 L 239.9999999999999 168.15787918928993 L 239.99999999999994 204.0789395946449 L 271.1085508419127 222.03946979732234 L 302.21710168382543 204.07893959464482 L 333.3256525257382 222.0394697973223 L 333.3256525257381 257.9605302026773 L 302.2171016838254 275.9210604053548 L 271.10855084191263 257.9605302026774 L 239.9999999999999 275.9210604053549 L 239.9999999999999 311.84212081070984 L 208.89144915808714 329.80265101338733 L 177.78289831617437 311.84212081070984 L 177.78289831617445 275.92106040535504 L 208.8914491580872 257.9605302026775 L 208.8914491580871 222.0394697973223 L 177.78289831617437 204.07893959464482" stroke-miterlimit="10"/><path fill="none" stroke="#0099ff" paint-order="fill stroke markers" d=" M 177.78289831617437 168.15787918928987 L 146.67434747426162 150.19734898661238 L 115.56579663234888 168.15787918928987 L 84.45724579043613 150.19734898661238 L 84.45724579043613 114.27628858125742 L 115.56579663234888 96.31575837857994 L 146.67434747426162 114.27628858125742 L 146.67434747426162 150.19734898661238" stroke-miterlimit="10"/><path fill="none" stroke="#0099ff" paint-order="fill stroke markers" d=" M 208.8914491580871 150.19734898661238 L 208.89144915808714 114.27628858125742 L 177.7828983161743 96.31575837858 L 177.7828983161743 60.39469797322505 L 208.89144915808703 42.43416777054756 L 239.9999999999998 60.39469797322499 L 271.1085508419127 42.43416777054753 L 302.2171016838254 60.39469797322499 L 302.2171016838254 96.31575837857997 L 333.3256525257381 114.27628858125745 L 364.43420336765087 96.31575837857997 L 395.54275420956355 114.27628858125745 L 395.54275420956355 150.1973489866124 L 426.6513050514764 168.15787918928982 L 426.65130505147647 204.07893959464477 L 395.5427542095637 222.0394697973223 L 364.434203367651 204.07893959464482 L 333.3256525257381 222.03946979732234" stroke-miterlimit="10"/><path fill="none" stroke="#0099ff" paint-order="fill stroke markers" d=" M 208.89144915808714 114.27628858125742 L 239.9999999999999 96.31575837857997 L 239.9999999999999 60.39469797322499" stroke-miterlimit="10"/><path fill="none" stroke="#0099ff" paint-order="fill stroke markers" d=" M 395.54275420956355 150.1973489866124 L 364.43420336765087 168.1578791892899 L 364.43420336765087 204.07893959464485" stroke-miterlimit="10"/><path fill="none" stroke="#0099ff" paint-order="fill stroke markers" d=" M 333.3256525257381 257.9605302026773 L 364.43420336765087 275.9210604053548 L 395.54275420956355 257.9605302026773 L 426.65130505147636 275.9210604053548 L 426.65130505147636 311.8421208107098 L 395.54275420956355 329.8026510133873 L 395.5427542095639 365.72371141874214 L 364.4342033676511 383.6842416214197 L 333.3256525257384 365.72371141874225 L 302.2171016838256 383.6842416214198 L 302.2171016838256 419.6053020267748 L 271.108550841913 437.5658322294523 L 240.00000000000017 419.60530202677484 L 208.89144915808714 437.5658322294522 L 177.7828983161744 419.6053020267748 L 177.7828983161744 383.6842416214198 L 208.8914491580871 365.7237114187423 L 239.9999999999999 383.6842416214198 L 239.9999999999999 419.6053020267748" stroke-miterlimit="10"/><path fill="none" stroke="#0099ff" paint-order="fill stroke markers" d=" M 395.54275420956355 329.8026510133873 L 364.43420336765087 311.8421208107098 L 364.43420336765087 275.9210604053548" stroke-miterlimit="10"/><path fill="none" stroke="#0099ff" paint-order="fill stroke markers" d=" M 208.89144915808714 329.80265101338733 L 208.89144915808714 365.7237114187423" stroke-miterlimit="10"/><path fill="none" stroke="#0099ff" paint-order="fill stroke markers" d=" M 177.78289831617437 311.84212081070984 L 146.67434747426162 329.80265101338733 L 146.67434747426182 365.7237114187425 L 115.56579663234912 383.68424162142003 L 84.45724579043633 365.7237114187425 L 84.4572457904363 329.80265101338756 L 53.34869494852339 311.84212081070984 L 53.34869494852339 275.9210604053549 L 84.45724579043613 257.96053020267743 L 84.45724579043613 222.03946979732245 L 53.34869494852336 204.07893959464496 L 53.34869494852336 168.15787918928999 L 84.4572457904361 150.19734898661252" stroke-miterlimit="10"/><path fill="none" stroke="#0099ff" paint-order="fill stroke markers" d=" M 146.67434747426162 329.80265101338733 L 115.56579663234888 311.84212081070984" stroke-miterlimit="10"/><path fill="none" stroke="#0099ff" paint-order="fill stroke markers" d=" M 115.56579663234888 311.84212081070984 L 84.45724579043613 329.80265101338733" stroke-miterlimit="10"/><path fill="#222222" stroke="#cccccc" paint-order="fill stroke markers" d=" M 810.3737 70.98221 L 810.3737 103.86201 L 838.84844 120.30191 L 838.84844 162.41931 L 810.3737 178.85921 L 810.3737 211.739 L 781.89896 228.1789 L 781.89896 251.8211 L 810.3737 268.261 L 810.3737 301.14079 L 838.84844 317.58069 L 838.84844 359.69809 L 810.3737 376.13799 L 810.3737 409.01779 L 773.89896 430.07649 L 745.42422 413.63659 L 716.94948 430.07649 L 680.47474 409.01779 L 680.47474 376.13799 L 652 359.69809 L 652 326.81829 L 631.52526 314.99719 L 603.05052 331.43709 L 574.57578 314.99719 L 546.10104 331.43709 L 509.6263 310.37839 L 509.6263 277.4986 L 481.15156 261.0587 L 481.15156 218.9413 L 509.6263 202.5014 L 509.6263 169.62161 L 546.10104 148.56291 L 574.57578 165.00281 L 603.05052 148.56291 L 631.52526 165.00281 L 652 153.18171 L 652 120.30191 L 680.47474 103.86201 L 680.47474 70.98221 L 716.94948 49.92351 L 745.42422 66.36341 L 773.89896 49.92351 Z M 753.42422 277.4986 L 753.42422 310.37839 L 716.94948 331.43709 L 688.47474 314.99719 L 668 326.81829 L 668 350.46049 L 696.47474 366.90039 L 696.47474 399.78019 L 716.94948 411.60129 L 737.42422 399.78019 L 737.42422 366.90039 L 773.89896 345.84169 L 802.3737 362.28159 L 822.84844 350.46049 L 822.84844 326.81829 L 794.3737 310.37839 L 794.3737 277.4986 L 773.89896 265.6775 Z M 753.42422 376.13799 L 753.42422 399.78019 L 773.89896 411.60129 L 794.3737 399.78019 L 794.3737 376.13799 L 773.89896 364.31689 Z M 574.57578 183.47801 L 546.10104 167.03811 L 525.6263 178.85921 L 525.6263 202.5014 L 554.10104 218.9413 L 554.10104 261.0587 L 525.6263 277.4986 L 525.6263 301.14079 L 546.10104 312.96189 L 574.57578 296.52199 L 603.05052 312.96189 L 623.52526 301.14079 L 623.52526 277.4986 L 595.05052 261.0587 L 595.05052 218.9413 L 623.52526 202.5014 L 623.52526 178.85921 L 603.05052 167.03811 Z M 639.52526 277.4986 L 639.52526 301.14079 L 660 312.96189 L 680.47474 301.14079 L 680.47474 277.4986 L 660 265.6775 Z M 696.47474 277.4986 L 696.47474 301.14079 L 716.94948 312.96189 L 737.42422 301.14079 L 737.42422 277.4986 L 716.94948 265.6775 Z M 497.15156 228.1789 L 497.15156 251.8211 L 517.6263 263.6422 L 538.10104 251.8211 L 538.10104 228.1789 L 517.6263 216.3578 Z M 611.05052 228.1789 L 611.05052 251.8211 L 631.52526 263.6422 L 652 251.8211 L 652 228.1789 L 631.52526 216.3578 Z M 668 228.1789 L 668 251.8211 L 688.47474 263.6422 L 708.94948 251.8211 L 708.94948 228.1789 L 688.47474 216.3578 Z M 724.94948 228.1789 L 724.94948 251.8211 L 745.42422 263.6422 L 765.89896 251.8211 L 765.89896 228.1789 L 745.42422 216.3578 Z M 639.52526 178.85921 L 639.52526 202.5014 L 660 214.3225 L 680.47474 202.5014 L 680.47474 178.85921 L 660 167.03811 Z M 696.47474 178.85921 L 696.47474 202.5014 L 716.94948 214.3225 L 737.42422 202.5014 L 737.42422 178.85921 L 716.94948 167.03811 Z M 696.47474 80.21981 L 696.47474 113.09961 L 668 129.53951 L 668 153.18171 L 688.47474 165.00281 L 716.94948 148.56291 L 753.42422 169.62161 L 753.42422 202.5014 L 773.89896 214.3225 L 794.3737 202.5014 L 794.3737 169.62161 L 822.84844 153.18171 L 822.84844 129.53951 L 802.3737 117.71841 L 773.89896 134.15831 L 737.42422 113.09961 L 737.42422 80.21981 L 716.94948 68.39871 Z M 753.42422 80.21981 L 753.42422 103.86201 L 773.89896 115.68311 L 794.3737 103.86201 L 794.3737 80.21981 L 773.89896 68.39871 Z" stroke-miterlimit="10"/><path fill="none" stroke="#0099ff" paint-order="fill stroke markers" d=" M 802.3736993628747 371.5191898442857 L 802.3736993628748 404.3989873053571 L 773.8989594902998 420.83888603589287 L 745.4242196177249 404.3989873053572 L 745.4242196177247 371.51918984428573 L 773.8989594902998 355.07929111375 L 802.3736993628747 371.5191898442857 L 830.8484392354496 355.0792911137499 L 830.8484392354496 322.1994936526784 L 802.3736993628747 305.75959492214275 L 802.3736993628747 272.87979746107135 L 773.8989594902996 256.4398987305356 L 773.8989594902996 223.5601012694642 L 745.4242196177246 207.12020253892848 L 716.9494797451497 223.5601012694642 L 716.9494797451497 256.4398987305356 L 688.4747398725748 272.87979746107146 L 659.9999999999998 256.4398987305357 L 631.5252601274249 272.8797974610715 L 603.0505202548499 256.4398987305358 L 603.0505202548499 223.5601012694642 L 631.5252601274248 207.12020253892848 L 659.9999999999998 223.5601012694642 L 688.4747398725747 207.12020253892848 L 688.4747398725747 174.24040507785705 L 716.9494797451497 157.80050634732132 L 745.4242196177246 174.24040507785702 L 745.4242196177246 207.12020253892845" stroke-miterlimit="10"/><path fill="none" stroke="#0099ff" paint-order="fill stroke markers" d=" M 688.4747398725747 207.12020253892848 L 716.9494797451497 223.56010126946418" stroke-miterlimit="10"/><path fill="none" stroke="#0099ff" paint-order="fill stroke markers" d=" M 716.9494797451497 256.4398987305356 L 745.4242196177246 272.8797974610714 L 745.4242196177246 305.7595949221428 L 716.9494797451497 322.19949365267854 L 688.4747398725747 305.7595949221428 L 688.4747398725747 272.8797974610714" stroke-miterlimit="10"/><path fill="none" stroke="#0099ff" paint-order="fill stroke markers" d=" M 745.4242196177246 272.8797974610714 L 773.8989594902996 256.4398987305357" stroke-miterlimit="10"/><path fill="none" stroke="#0099ff" paint-order="fill stroke markers" d=" M 773.8989594902996 223.5601012694642 L 802.3736993628745 207.12020253892848 L 802.3736993628745 174.24040507785705 L 830.8484392354495 157.80050634732132 L 830.8484392354495 124.92070888624987 L 802.3736993628745 108.48081015571415 L 773.8989594902996 124.92070888624987 L 745.4242196177246 108.48081015571412 L 745.4242196177246 75.60101269464266 L 716.9494797451497 59.16111396410696 L 688.4747398725747 75.60101269464266 L 688.4747398725747 108.48081015571412 L 659.9999999999998 124.92070888624984 L 659.9999999999998 157.8005063473213 L 631.5252601274248 174.24040507785702 L 603.0505202548499 157.8005063473214 L 574.5757803822748 174.2404050778571 L 546.1010405096999 157.8005063473214 L 517.6263006371249 174.24040507785713 L 517.6263006371249 207.1202025389286 L 546.1010405096999 223.5601012694643 L 546.1010405096999 256.43989873053573 L 517.6263006371249 272.8797974610715 L 517.6263006371249 305.7595949221429 L 546.1010405096999 322.1994936526786 L 574.5757803822748 305.7595949221429 L 603.0505202548499 322.1994936526786 L 631.5252601274248 305.7595949221429 L 659.9999999999998 322.1994936526786 L 659.9999999999999 355.07929111375006 L 688.4747398725748 371.5191898442858 L 688.4747398725748 404.3989873053572 L 716.9494797451499 420.838886035893 L 745.4242196177247 404.3989873053572" stroke-miterlimit="10"/><path fill="none" stroke="#0099ff" paint-order="fill stroke markers" d=" M 745.4242196177246 75.60101269464266 L 773.8989594902996 59.16111396410696 L 802.3736993628745 75.60101269464266 L 802.3736993628745 108.48081015571412" stroke-miterlimit="10"/><path fill="none" stroke="#0099ff" paint-order="fill stroke markers" d=" M 631.5252601274248 174.24040507785702 L 631.5252601274248 207.12020253892845" stroke-miterlimit="10"/><path fill="none" stroke="#0099ff" paint-order="fill stroke markers" d=" M 659.9999999999998 256.4398987305357 L 659.9999999999998 223.56010126946424" stroke-miterlimit="10"/><path fill="none" stroke="#0099ff" paint-order="fill stroke markers" d=" M 688.4747398725747 174.24040507785705 L 659.9999999999998 157.80050634732132" stroke-miterlimit="10"/><path fill="none" stroke="#0099ff" paint-order="fill stroke markers" d=" M 517.6263006371249 272.8797974610715 L 489.15156076454997 256.4398987305358 L 489.1515607645499 223.56010126946433 L 517.6263006371248 207.1202025389286" stroke-miterlimit="10"/><path fill="none" stroke="#0099ff" paint-order="fill stroke markers" d=" M 659.9999999999998 322.1994936526786 L 688.4747398725747 305.7595949221428" stroke-miterlimit="10"/><path fill="none" stroke="#0099ff" paint-order="fill stroke markers" d=" M 631.5252601274249 272.8797974610715 L 631.5252601274249 305.7595949221429" stroke-miterlimit="10"/><path fill="#222222" stroke="#cccccc" paint-order="fill stroke markers" d=" M 180.39604 490.17139 L 220.13201 467.22981 L 267.86799 494.79019 L 267.86799 540.67333 L 299.60396 558.99611 L 339.33993 536.05452 L 387.0759 563.61491 L 387.0759 609.49805 L 426.81187 632.43963 L 426.81187 687.56037 L 387.0759 710.50195 L 387.0759 756.38509 L 339.33993 783.94548 L 299.60396 761.00389 L 267.86799 779.32667 L 267.86799 825.20981 L 224.13201 850.46079 L 223.55293 850.70461 L 222.99901 851.00121 L 222.63646 851.09049 L 222.29234 851.23538 L 221.67093 851.32825 L 221.06082 851.47849 L 220.68742 851.47523 L 220.31817 851.53042 L 219.69317 851.46657 L 219.0648 851.46109 L 218.70382 851.36549 L 218.33242 851.32755 L 217.74267 851.11096 L 217.13523 850.95009 L 216.61869 850.69816 L 216.4587 850.6394 L 216.36211 850.57302 L 216.13201 850.46079 L 180.39604 829.82861 L 140.66007 852.7702 L 92.9241 825.20981 L 92.9241 779.32668 L 53.18813 756.38509 L 53.18813 701.26435 L 92.9241 678.32277 L 92.9241 641.67723 L 53.18813 618.73565 L 53.18813 563.61491 L 92.9241 540.67333 L 92.9241 494.79019 L 140.66007 467.2298 Z M 148.66007 710.50195 L 148.66007 756.38509 L 108.9241 779.32668 L 108.9241 815.97221 L 140.66007 834.29499 L 172.39604 815.97221 L 172.39604 770.08907 L 212.13201 747.14749 L 212.13201 710.50195 L 180.39604 692.17917 Z M 188.39604 779.32667 L 188.39604 815.97221 L 220.13201 834.29499 L 251.86799 815.97221 L 251.86799 779.32667 L 220.13201 761.00389 Z M 69.18813 710.50195 L 69.18813 747.14749 L 100.9241 765.47027 L 132.66007 747.14749 L 132.66007 710.50195 L 100.9241 692.17917 Z M 228.13201 710.50195 L 228.13201 747.14749 L 259.86799 765.47027 L 291.60396 747.14749 L 291.60396 710.50195 L 259.86799 692.17917 Z M 307.60396 710.50195 L 307.60396 747.14749 L 339.33993 765.47027 L 371.0759 747.14749 L 371.0759 710.50195 L 339.33993 692.17917 Z M 108.9241 641.67723 L 108.9241 678.32277 L 140.66007 696.64555 L 172.39604 678.32277 L 172.39604 641.67723 L 140.66007 623.35445 Z M 188.39604 641.67723 L 188.39604 678.32277 L 220.13201 696.64555 L 251.86799 678.32277 L 251.86799 641.67723 L 220.13201 623.35445 Z M 339.33993 646.29604 L 299.60396 623.35445 L 267.86799 641.67723 L 267.86799 678.32277 L 299.60396 696.64555 L 339.33993 673.70396 L 379.0759 696.64555 L 410.81187 678.32277 L 410.81187 641.67723 L 379.0759 623.35445 Z M 69.18813 572.85251 L 69.18813 609.49805 L 100.9241 627.82083 L 132.66007 609.49804 L 132.66007 572.85251 L 100.9241 554.52973 Z M 108.9241 504.02779 L 108.9241 540.67333 L 148.66007 563.61491 L 148.66007 609.49804 L 180.39604 627.82083 L 212.13201 609.49805 L 212.13201 572.85251 L 172.39604 549.91093 L 172.39604 504.02779 L 140.66007 485.70501 Z M 228.13201 572.85251 L 228.13201 609.49805 L 259.86799 627.82083 L 291.60396 609.49805 L 291.60396 572.85251 L 259.86799 554.52973 Z M 307.60396 572.85251 L 307.60396 609.49805 L 339.33993 627.82083 L 371.0759 609.49805 L 371.0759 572.85251 L 339.33993 554.52973 Z M 188.39604 504.02779 L 188.39604 540.67333 L 220.13201 558.99611 L 251.86799 540.67333 L 251.86799 504.02779 L 220.13201 485.70501 Z" stroke-miterlimit="10"/><path fill="none" stroke="#0099ff" paint-order="fill stroke markers" d=" M 180.39604393207279 682.9415733870558 L 140.6600732201215 705.883146774112 L 140.6600732201215 751.7662935482243 L 100.92410250817025 774.7078669352804 L 61.18813179621915 751.7662935482243 L 61.18813179621915 705.883146774112 L 100.92410250817045 682.9415733870558 L 100.92410250817036 637.0584266129437 L 140.66007322012172 614.1168532258873 L 180.396043932073 637.0584266129434 L 180.39604393207279 682.9415733870558 L 220.13201464402437 705.883146774112 L 259.86798535597546 682.941573387056 L 259.8679853559754 637.0584266129434 L 220.13201464402408 614.1168532258873 L 180.39604393207279 637.0584266129434" stroke-miterlimit="10"/><path fill="none" stroke="#0099ff" paint-order="fill stroke markers" d=" M 220.13201464402408 614.1168532258873 L 220.13201464402408 568.233706451775 L 180.39604393207296 545.2921330647189 L 180.39604393207296 499.4089862906065 L 140.66007322012143 476.4674129035503 L 100.9241025081702 499.4089862906065 L 100.9241025081702 545.2921330647189 L 140.66007322012166 568.2337064517751 L 140.66007322012172 614.1168532258876" stroke-miterlimit="10"/><path fill="none" stroke="#0099ff" paint-order="fill stroke markers" d=" M 220.13201464402408 568.233706451775 L 259.8679853559754 545.2921330647189 L 299.6039560679267 568.233706451775 L 299.60395606792684 614.1168532258873 L 259.8679853559754 637.0584266129434" stroke-miterlimit="10"/><path fill="none" stroke="#0099ff" paint-order="fill stroke markers" d=" M 299.6039560679267 568.233706451775 L 339.339926779878 545.2921330647189 L 379.0758974918293 568.233706451775 L 379.0758974918293 614.1168532258873 L 339.339926779878 637.0584266129434 L 299.6039560679267 614.1168532258873" stroke-miterlimit="10"/><path fill="none" stroke="#0099ff" paint-order="fill stroke markers" d=" M 100.92410250817025 774.7078669352804 L 100.92410250817025 820.5910137093929 L 140.66007322012155 843.532587096449 L 180.39604393207284 820.591013709393 L 180.39604393207287 774.7078669352807 L 220.13201464402417 751.7662935482244 L 220.13201464402417 705.8831467741122" stroke-miterlimit="10"/><path fill="none" stroke="#0099ff" paint-order="fill stroke markers" d=" M 180.39604393207296 499.4089862906065 L 220.13201464402425 476.4674129035503 L 259.8679853559756 499.4089862906065 L 259.8679853559756 545.2921330647189" stroke-miterlimit="10"/><path fill="none" stroke="#0099ff" paint-order="fill stroke markers" d=" M 140.66007322012166 705.8831467741122 L 100.92410250817036 682.941573387056" stroke-miterlimit="10"/><path fill="none" stroke="#0099ff" paint-order="fill stroke markers" d=" M 100.92410250817036 637.0584266129437 L 61.18813179621907 614.1168532258876 L 61.18813179621907 568.2337064517751 L 100.92410250817036 545.292133064719" stroke-miterlimit="10"/><path fill="none" stroke="#0099ff" paint-order="fill stroke markers" d=" M 259.86798535597563 682.9415733870558 L 299.60395606792696 705.883146774112 L 299.603956067927 751.7662935482241 L 259.86798535597575 774.7078669352804 L 220.13201464402425 751.7662935482243" stroke-miterlimit="10"/><path fill="none" stroke="#0099ff" paint-order="fill stroke markers" d=" M 299.60395606792696 705.883146774112 L 339.3399267798782 682.9415733870558 L 379.07589749182955 705.883146774112 L 379.07589749182944 751.7662935482243 L 339.33992677987817 774.7078669352804 L 299.60395606792684 751.7662935482243" stroke-miterlimit="10"/><path fill="none" stroke="#0099ff" paint-order="fill stroke markers" d=" M 379.07589749182955 705.883146774112 L 418.8118682037808 682.9415733870558 L 418.8118682037808 637.0584266129434 L 379.07589749182955 614.1168532258873" stroke-miterlimit="10"/><path fill="none" stroke="#0099ff" paint-order="fill stroke markers" d=" M 259.86798535597575 774.7078669352804 L 259.8679853559758 820.5910137093929 L 220.13201464402454 843.532587096449" stroke-miterlimit="10"/><path fill="none" stroke="#0099ff" paint-order="fill stroke markers" d=" M 220.13201464402454 843.532587096449 L 180.3960439320732 820.5910137093929" stroke-miterlimit="10"/><path fill="#222222" stroke="#cccccc" paint-order="fill stroke markers" d=" M 745.77138 475.7759 L 745.77138 511.69696 L 768.87993 525.03869 L 799.98848 507.07816 L 839.09703 529.65749 L 839.09703 574.81615 L 807.98848 592.77668 L 807.98848 628.69774 L 768.87993 651.27707 L 737.77138 633.31654 L 714.66283 646.65827 L 714.66283 673.34173 L 737.77138 686.68346 L 768.87993 668.72293 L 807.98848 691.30226 L 807.98848 727.22332 L 839.09703 745.18385 L 839.09703 790.34251 L 799.98848 812.92184 L 768.87993 794.96131 L 745.77138 808.30304 L 745.77138 844.2241 L 706.66283 866.80343 L 667.55428 844.2241 L 667.55428 808.30304 L 636.44572 790.34251 L 636.44572 745.18385 L 667.55428 727.22332 L 667.55428 700.53986 L 644.44572 687.19813 L 621.33717 700.53986 L 621.33717 736.46092 L 582.22862 759.04025 L 551.12007 741.07972 L 520.01152 759.04025 L 480.90297 736.46092 L 480.90297 691.30226 L 512.01152 673.34173 L 512.01152 646.65827 L 480.90297 628.69774 L 480.90297 583.53908 L 520.01152 560.95975 L 551.12007 578.92028 L 582.22862 560.95975 L 621.33717 583.53908 L 621.33717 619.46014 L 644.44572 632.80187 L 667.55428 619.46014 L 667.55428 592.77668 L 636.44572 574.81615 L 636.44572 529.65749 L 667.55428 511.69696 L 667.55428 475.7759 L 706.66283 453.19657 Z M 683.55428 808.30304 L 683.55428 834.9865 L 706.66283 848.32823 L 729.77138 834.9865 L 729.77138 808.30304 L 706.66283 794.96131 Z M 652.44572 754.42145 L 652.44572 781.10491 L 675.55428 794.44664 L 698.66283 781.10491 L 698.66283 754.42145 L 675.55428 741.07972 Z M 683.55428 700.53986 L 683.55428 727.22332 L 714.66283 745.18385 L 714.66283 781.10491 L 737.77138 794.44664 L 760.87993 781.10491 L 760.87993 754.42145 L 729.77138 736.46092 L 729.77138 700.53986 L 706.66283 687.19813 Z M 776.87993 754.42145 L 776.87993 781.10491 L 799.98848 794.44664 L 823.09703 781.10491 L 823.09703 754.42145 L 799.98848 741.07972 Z M 496.90297 700.53986 L 496.90297 727.22332 L 520.01152 740.56505 L 543.12007 727.22332 L 543.12007 700.53986 L 520.01152 687.19813 Z M 559.12007 700.53986 L 559.12007 727.22332 L 582.22862 740.56505 L 605.33717 727.22332 L 605.33717 700.53986 L 582.22862 687.19813 Z M 745.77138 700.53986 L 745.77138 727.22332 L 768.87993 740.56505 L 791.98848 727.22332 L 791.98848 700.53986 L 768.87993 687.19813 Z M 582.22862 651.27707 L 551.12007 633.31654 L 528.01152 646.65827 L 528.01152 673.34173 L 551.12007 686.68346 L 582.22862 668.72293 L 613.33717 686.68346 L 636.44572 673.34173 L 636.44572 646.65827 L 613.33717 633.31654 Z M 652.44572 646.65827 L 652.44572 673.34173 L 675.55428 686.68346 L 698.66283 673.34173 L 698.66283 646.65827 L 675.55428 633.31654 Z M 496.90297 592.77668 L 496.90297 619.46014 L 520.01152 632.80187 L 543.12007 619.46014 L 543.12007 592.77668 L 520.01152 579.43495 Z M 559.12007 592.77668 L 559.12007 619.46014 L 582.22862 632.80187 L 605.33717 619.46014 L 605.33717 592.77668 L 582.22862 579.43495 Z M 714.66283 538.89509 L 714.66283 574.81615 L 683.55428 592.77668 L 683.55428 619.46014 L 706.66283 632.80187 L 729.77138 619.46014 L 729.77138 583.53908 L 760.87993 565.57855 L 760.87993 538.89509 L 737.77138 525.55336 Z M 745.77138 592.77668 L 745.77138 619.46014 L 768.87993 632.80187 L 791.98848 619.46014 L 791.98848 592.77668 L 768.87993 579.43495 Z M 652.44572 538.89509 L 652.44572 565.57855 L 675.55428 578.92028 L 698.66283 565.57855 L 698.66283 538.89509 L 675.55428 525.55336 Z M 776.87993 538.89509 L 776.87993 565.57855 L 799.98848 578.92028 L 823.09703 565.57855 L 823.09703 538.89509 L 799.98848 525.55336 Z M 683.55428 485.0135 L 683.55428 511.69696 L 706.66283 525.03869 L 729.77138 511.69696 L 729.77138 485.0135 L 706.66283 471.67177 Z" stroke-miterlimit="10"/><path fill="none" stroke="#0099ff" paint-order="fill stroke markers" d=" M 551.1200720533054 731.8421208107104 L 520.0115212113926 749.802651013388 L 488.90297036947993 731.8421208107105 L 488.90297036947993 695.9210604053555 L 520.0115212113925 677.960530202678 L 551.1200720533053 695.921060405355 L 551.1200720533054 731.8421208107104 L 582.2286228952183 749.8026510133877 L 613.3371737371309 731.8421208107102 L 613.3371737371309 695.9210604053552 L 644.4457245790436 677.9605302026775 L 644.4457245790434 642.0394697973225 L 613.3371737371307 624.078939594645 L 582.228622895218 642.0394697973229 L 551.1200720533053 624.0789395946455 L 520.0115212113924 642.0394697973225 L 520.0115212113925 677.9605302026775" stroke-miterlimit="10"/><path fill="none" stroke="#0099ff" paint-order="fill stroke markers" d=" M 613.3371737371307 624.078939594645 L 613.3371737371307 588.15787918929 L 582.2286228952179 570.1973489866125 L 551.1200720533052 588.15787918929 L 551.1200720533052 624.078939594645" stroke-miterlimit="10"/><path fill="none" stroke="#0099ff" paint-order="fill stroke markers" d=" M 520.0115212113924 642.0394697973225 L 488.9029703694796 624.078939594645 L 488.9029703694796 588.15787918929 L 520.0115212113924 570.1973489866125 L 551.1200720533052 588.15787918929" stroke-miterlimit="10"/><path fill="none" stroke="#0099ff" paint-order="fill stroke markers" d=" M 551.1200720533053 695.921060405355 L 582.228622895218 677.9605302026775 L 613.3371737371308 695.921060405355" stroke-miterlimit="10"/><path fill="none" stroke="#0099ff" paint-order="fill stroke markers" d=" M 644.4457245790436 677.9605302026775 L 675.5542754209563 695.9210604053549 L 675.5542754209563 731.8421208107098 L 644.4457245790436 749.8026510133875 L 644.4457245790436 785.7237114187424 L 675.5542754209564 803.6842416214199 L 706.6628262628691 785.7237114187424 L 737.771377104782 803.6842416214198 L 737.771377104782 839.6053020267749 L 706.6628262628692 857.5658322294523 L 675.5542754209564 839.6053020267749 L 675.5542754209563 803.6842416214199" stroke-miterlimit="10"/><path fill="none" stroke="#0099ff" paint-order="fill stroke markers" d=" M 675.5542754209563 731.8421208107098 L 706.6628262628691 749.8026510133873 L 706.6628262628691 785.7237114187423" stroke-miterlimit="10"/><path fill="none" stroke="#0099ff" paint-order="fill stroke markers" d=" M 737.771377104782 803.6842416214198 L 768.8799279466946 785.7237114187423 L 768.8799279466946 749.8026510133873 L 737.7713771047818 731.84212081071 L 737.7713771047817 695.921060405355 L 706.6628262628691 677.9605302026775 L 706.662826262869 642.0394697973225 L 737.7713771047817 624.078939594645 L 768.8799279466946 642.0394697973225 L 799.9884787886072 624.0789395946449 L 799.9884787886072 588.1578791892899 L 768.8799279466945 570.1973489866125 L 768.8799279466944 534.2762885812574 L 799.988478788607 516.31575837858 L 831.0970296305198 534.2762885812574 L 831.09702963052 570.1973489866124 L 799.9884787886072 588.1578791892899" stroke-miterlimit="10"/><path fill="none" stroke="#0099ff" paint-order="fill stroke markers" d=" M 768.8799279466946 749.8026510133873 L 799.9884787886074 731.8421208107098 L 799.9884787886074 695.9210604053549 L 768.8799279466946 677.9605302026773 L 737.7713771047818 695.921060405355" stroke-miterlimit="10"/><path fill="none" stroke="#0099ff" paint-order="fill stroke markers" d=" M 799.9884787886074 731.8421208107098 L 831.0970296305201 749.8026510133873 L 831.0970296305201 785.7237114187423 L 799.9884787886075 803.6842416214198 L 768.8799279466947 785.7237114187423" stroke-miterlimit="10"/><path fill="none" stroke="#0099ff" paint-order="fill stroke markers" d=" M 706.6628262628691 677.9605302026775 L 675.5542754209563 695.921060405355" stroke-miterlimit="10"/><path fill="none" stroke="#0099ff" paint-order="fill stroke markers" d=" M 737.7713771047817 624.078939594645 L 737.7713771047815 588.15787918929 L 768.8799279466944 570.1973489866124" stroke-miterlimit="10"/><path fill="none" stroke="#0099ff" paint-order="fill stroke markers" d=" M 768.8799279466944 534.2762885812574 L 737.7713771047815 516.3157583785801 L 706.6628262628687 534.2762885812576 L 706.662826262869 570.1973489866127 L 675.5542754209562 588.1578791892902 L 675.5542754209562 624.0789395946451 L 644.4457245790436 642.0394697973228" stroke-miterlimit="10"/><path fill="none" stroke="#0099ff" paint-order="fill stroke markers" d=" M 706.6628262628687 534.2762885812576 L 675.5542754209561 516.3157583785801 L 644.4457245790433 534.2762885812577 L 644.4457245790434 570.1973489866127 L 675.5542754209562 588.1578791892902" stroke-miterlimit="10"/><path fill="none" stroke="#0099ff" paint-order="fill stroke markers" d=" M 675.5542754209561 516.3157583785801 L 675.554275420956 480.3946979732251 L 706.6628262628686 462.4341677705476 L 737.7713771047814 480.39469797322505 L 737.7713771047815 516.3157583785801" stroke-miterlimit="10"/><path fill="none" stroke="#0099ff" paint-order="fill stroke markers" d=" M 675.5542754209562 624.0789395946451 L 706.6628262628691 642.0394697973225" stroke-miterlimit="10"/></g></svg>