<svg version="1.1" xmlns="http://www.w3.org/2000/svg" xmlns:xlink="http://www.w3.org/1999/xlink" width="900" height="900"><defs/><g><path fill="#222222" stroke="#cccccc" paint-order="fill stroke markers" d=" M 302.90209 83.24954 L 305.71897 83.99084 L 308.36797 85.20212 L 310.77129 86.84784 L 312.8584 88.87968 L 314.56801 91.23798 L 315.84995 93.85352 L 316.66656 96.6495 L 316.99388 99.54385 L 316.8223 102.45158 L 316.15685 105.28735 L 315.01708 107.96789 L 313.43644 110.41451 L 311.46134 112.55538 L 309.14976 114.32766 L 306.56956 115.67931 L 303.7965 116.57065 L 300 117 L 217 117 L 217 233 L 233 233 L 233 150 L 233.24954 147.09791 L 233.99084 144.28103 L 235.20212 141.63203 L 236.84784 139.22871 L 238.87968 137.1416 L 241.23798 135.43199 L 243.85352 134.15005 L 246.6495 133.33344 L 250 133 L 300 133 L 302.90209 133.24954 L 305.71897 133.99084 L 308.36797 135.20212 L 310.77129 136.84784 L 312.8584 138.87968 L 314.56801 141.23798 L 315.84995 143.85352 L 316.66656 146.6495 L 316.99388 149.54385 L 316.8223 152.45158 L 316.15685 155.28735 L 315.01708 157.96789 L 313.43644 160.41451 L 311.46134 162.55538 L 309.14976 164.32766 L 306.56956 165.67931 L 303.7965 166.57065 L 300 167 L 267 167 L 267 183 L 300 183 L 302.90209 183.24954 L 305.71897 183.99084 L 308.36797 185.20212 L 310.77129 186.84784 L 312.8584 188.87968 L 314.56801 191.23798 L 315.84995 193.85352 L 316.66656 196.6495 L 316.99388 199.54385 L 316.8223 202.45158 L 316.15685 205.28735 L 315.01708 207.96789 L 313.43644 210.41451 L 311.46134 212.55538 L 309.14976 214.32766 L 306.56956 215.67931 L 303.7965 216.57065 L 300 217 L 267 217 L 267 233 L 300 233 L 302.90209 233.24954 L 305.71897 233.99084 L 308.36797 235.20212 L 310.77129 236.84784 L 312.8584 238.87968 L 314.56801 241.23798 L 315.84995 243.85352 L 316.66656 246.6495 L 317 250 L 317 283 L 350 283 L 352.90209 283.24954 L 355.71897 283.99084 L 358.36797 285.20212 L 360.77129 286.84784 L 362.8584 288.87968 L 364.56801 291.23798 L 365.84995 293.85352 L 366.66656 296.6495 L 367 300 L 367 333 L 383 333 L 383 267 L 350 267 L 347.09791 266.75046 L 344.28103 266.00916 L 341.63203 264.79788 L 339.22871 263.15216 L 337.1416 261.12032 L 335.43199 258.76202 L 334.15005 256.14648 L 333.33344 253.3505 L 333 250 L 333 100 L 333.24954 97.09791 L 333.99084 94.28103 L 335.20212 91.63203 L 336.84784 89.22871 L 338.87968 87.1416 L 341.23798 85.43199 L 343.85352 84.15005 L 346.6495 83.33344 L 349.54385 83.00612 L 352.45158 83.1777 L 355.28735 83.84315 L 357.96789 84.98292 L 360.41451 86.56356 L 362.55538 88.53866 L 364.32766 90.85024 L 365.67931 93.43044 L 366.57065 96.2035 L 367 100 L 367 233 L 383 233 L 383 100 L 383.24954 97.09791 L 383.99084 94.28103 L 385.20212 91.63203 L 386.84784 89.22871 L 388.87968 87.1416 L 391.23798 85.43199 L 393.85352 84.15005 L 396.6495 83.33344 L 399.54385 83.00612 L 402.45158 83.1777 L 405.28735 83.84315 L 407.96789 84.98292 L 410.41451 86.56356 L 412.55538 88.53866 L 414.32766 90.85024 L 415.67931 93.43044 L 416.57065 96.2035 L 417 100 L 417 183 L 433 183 L 433 100 L 433.24954 97.09791 L 433.99084 94.28103 L 435.20212 91.63203 L 436.84784 89.22871 L 438.87968 87.1416 L 441.23798 85.43199 L 443.85352 84.15005 L 446.6495 83.33344 L 449.54385 83.00612 L 452.45158 83.1777 L 455.28735 83.84315 L 457.96789 84.98292 L 460.41451 86.56356 L 462.55538 88.53866 L 464.32766 90.85024 L 465.67931 93.43044 L 466.57065 96.2035 L 467 100 L 467 133 L 483 133 L 483 100 L 483.24954 97.09791 L 483.99084 94.28103 L 485.20212 91.63203 L 486.84784 89.22871 L 488.87968 87.1416 L 491.23798 85.43199 L 493.85352 84.15005 L 496.6495 83.33344 L 500 83 L 550 83 L 552.90209 83.24954 L 555.71897 83.99084 L 558.36797 85.20212 L 560.77129 86.84784 L 562.8584 88.87968 L 564.56801 91.23798 L 565.84995 93.85352 L 566.66656 96.6495 L 566.99388 99.54385 L 566.8223 102.45158 L 566.15685 105.28735 L 565.01708 107.96789 L 563.43644 110.41451 L 561.46134 112.55538 L 559.14976 114.32766 L 556.56956 115.67931 L 553.7965 116.57065 L 550 117 L 517 117 L 517 133 L 583 133 L 583 100 L 583.24954 97.09791 L 583.99084 94.28103 L 585.20212 91.63203 L 586.84784 89.22871 L 588.87968 87.1416 L 591.23798 85.43199 L 593.85352 84.15005 L 596.6495 83.33344 L 600 83 L 750 83 L 752.90209 83.24954 L 755.71897 83.99084 L 758.36797 85.20212 L 760.77129 86.84784 L 762.8584 88.87968 L 764.56801 91.23798 L 765.84995 93.85352 L 766.66656 96.6495 L 766.99388 99.54385 L 766.8223 102.45158 L 766.15685 105.28735 L 765.01708 107.96789 L 763.43644 110.41451 L 761.46134 112.55538 L 759.14976 114.32766 L 756.56956 115.67931 L 753.7965 116.57065 L 750 117 L 617 117 L 617 150 L 616.75046 152.90209 L 616.00916 155.71897 L 614.79788 158.36797 L 613.15216 160.77129 L 611.12032 162.8584 L 608.76202 164.56801 L 606.14648 165.84995 L 603.3505 166.66656 L 600 167 L 467 167 L 467 183 L 600 183 L 602.90209 183.24954 L 605.71897 183.99084 L 608.36797 185.20212 L 610.77129 186.84784 L 612.8584 188.87968 L 614.56801 191.23798 L 615.84995 193.85352 L 616.66656 196.6495 L 616.99388 199.54385 L 616.8223 202.45158 L 616.15685 205.28735 L 615.01708 207.96789 L 613.43644 210.41451 L 611.46134 212.55538 L 609.14976 214.32766 L 606.56956 215.67931 L 603.7965 216.57065 L 600 217 L 417 217 L 417 283 L 433 283 L 433 250 L 433.24954 247.09791 L 433.99084 244.28103 L 435.20212 241.63203 L 436.84784 239.22871 L 438.87968 237.1416 L 441.23798 235.43199 L 443.85352 234.15005 L 446.6495 233.33344 L 449.54385 233.00612 L 452.45158 233.1777 L 455.28735 233.84315 L 457.96789 234.98292 L 460.41451 236.56356 L 462.55538 238.53866 L 464.32766 240.85024 L 465.67931 243.43044 L 466.57065 246.2035 L 467 250 L 467 300 L 466.75046 302.90209 L 466.00916 305.71897 L 464.79788 308.36797 L 463.15216 310.77129 L 461.12032 312.8584 L 458.76202 314.56801 L 456.14648 315.84995 L 453.3505 316.66656 L 450 317 L 417 317 L 417 433 L 483 433 L 483 417 L 450 417 L 447.09791 416.75046 L 444.28103 416.00916 L 441.63203 414.79788 L 439.22871 413.15216 L 437.1416 411.12032 L 435.43199 408.76202 L 434.15005 406.14648 L 433.33344 403.3505 L 433 400 L 433 350 L 433.24954 347.09791 L 433.99084 344.28103 L 435.20212 341.63203 L 436.84784 339.22871 L 438.87968 337.1416 L 441.23798 335.43199 L 443.85352 334.15005 L 446.6495 333.33344 L 449.54385 333.00612 L 452.45158 333.1777 L 455.28735 333.84315 L 457.96789 334.98292 L 460.41451 336.56356 L 462.55538 338.53866 L 464.32766 340.85024 L 465.67931 343.43044 L 466.57065 346.2035 L 467 350 L 467 383 L 483 383 L 483 250 L 483.24954 247.09791 L 483.99084 244.28103 L 485.20212 241.63203 L 486.84784 239.22871 L 488.87968 237.1416 L 491.23798 235.43199 L 493.85352 234.15005 L 496.6495 233.33344 L 500 233 L 550 233 L 552.90209 233.24954 L 555.71897 233.99084 L 558.36797 235.20212 L 560.77129 236.84784 L 562.8584 238.87968 L 564.56801 241.23798 L 565.84995 243.85352 L 566.66656 246.6495 L 566.99388 249.54385 L 566.8223 252.45158 L 566.15685 255.28735 L 565.01708 257.96789 L 563.43644 260.41451 L 561.46134 262.55538 L 559.14976 264.32766 L 556.56956 265.67931 L 553.7965 266.57065 L 550 267 L 517 267 L 517 333 L 533 333 L 533 300 L 533.24954 297.09791 L 533.99084 294.28103 L 535.20212 291.63203 L 536.84784 289.22871 L 538.87968 287.1416 L 541.23798 285.43199 L 543.85352 284.15005 L 546.6495 283.33344 L 550 283 L 583 283 L 583 250 L 583.24954 247.09791 L 583.99084 244.28103 L 585.20212 241.63203 L 586.84784 239.22871 L 588.87968 237.1416 L 591.23798 235.43199 L 593.85352 234.15005 L 596.6495 233.33344 L 600 233 L 650 233 L 652.90209 233.24954 L 655.71897 233.99084 L 658.36797 235.20212 L 660.77129 236.84784 L 662.8584 238.87968 L 664.56801 241.23798 L 665.84995 243.85352 L 666.66656 246.6495 L 667 250 L 667 300 L 666.75046 302.90209 L 666.00916 305.71897 L 664.79788 308.36797 L 663.15216 310.77129 L 661.12032 312.8584 L 658.76202 314.56801 L 656.14648 315.84995 L 653.3505 316.66656 L 650.45615 316.99388 L 647.54842 316.8223 L 644.71265 316.15685 L 642.03211 315.01708 L 639.58549 313.43644 L 637.44462 311.46134 L 635.67234 309.14976 L 634.32069 306.56956 L 633.42935 303.7965 L 633 300 L 633 267 L 617 267 L 617 300 L 616.75046 302.90209 L 616.00916 305.71897 L 614.79788 308.36797 L 613.15216 310.77129 L 611.12032 312.8584 L 608.76202 314.56801 L 606.14648 315.84995 L 603.3505 316.66656 L 600 317 L 567 317 L 567 383 L 633 383 L 633 367 L 600 367 L 597.09791 366.75046 L 594.28103 366.00916 L 591.63203 364.79788 L 589.22871 363.15216 L 587.1416 361.12032 L 585.43199 358.76202 L 584.15005 356.14648 L 583.33344 353.3505 L 583.00612 350.45615 L 583.1777 347.54842 L 583.84315 344.71265 L 584.98292 342.03211 L 586.56356 339.58549 L 588.53866 337.44462 L 590.85024 335.67234 L 593.43044 334.32069 L 596.2035 333.42935 L 600 333 L 650 333 L 652.90209 333.24954 L 655.71897 333.99084 L 658.36797 335.20212 L 660.77129 336.84784 L 662.8584 338.87968 L 664.56801 341.23798 L 665.84995 343.85352 L 666.66656 346.6495 L 667 350 L 667 383 L 683 383 L 683 217 L 650 217 L 647.09791 216.75046 L 644.28103 216.00916 L 641.63203 214.79788 L 639.22871 213.15216 L 637.1416 211.12032 L 635.43199 208.76202 L 634.15005 206.14648 L 633.33344 203.3505 L 633 200 L 633 150 L 633.24954 147.09791 L 633.99084 144.28103 L 635.20212 141.63203 L 636.84784 139.22871 L 638.87968 137.1416 L 641.23798 135.43199 L 643.85352 134.15005 L 646.6495 133.33344 L 649.54385 133.00612 L 652.45158 133.1777 L 655.28735 133.84315 L 657.96789 134.98292 L 660.41451 136.56356 L 662.55538 138.53866 L 664.32766 140.85024 L 665.67931 143.43044 L 666.57065 146.2035 L 667 150 L 667 183 L 683 183 L 683 150 L 683.24954 147.09791 L 683.99084 144.28103 L 685.20212 141.63203 L 686.84784 139.22871 L 688.87968 137.1416 L 691.23798 135.43199 L 693.85352 134.15005 L 696.6495 133.33344 L 700 133 L 750 133 L 752.90209 133.24954 L 755.71897 133.99084 L 758.36797 135.20212 L 760.77129 136.84784 L 762.8584 138.87968 L 764.56801 141.23798 L 765.84995 143.85352 L 766.66656 146.6495 L 766.99388 149.54385 L 766.8223 152.45158 L 766.15685 155.28735 L 765.01708 157.96789 L 763.43644 160.41451 L 761.46134 162.55538 L 759.14976 164.32766 L 756.56956 165.67931 L 753.7965 166.57065 L 750 167 L 717 167 L 717 233 L 783 233 L 783 217 L 750 217 L 747.09791 216.75046 L 744.28103 216.00916 L 741.63203 214.79788 L 739.22871 213.15216 L 737.1416 211.12032 L 735.43199 208.76202 L 734.15005 206.14648 L 733.33344 203.3505 L 733.00612 200.45615 L 733.1777 197.54842 L 733.84315 194.71265 L 734.98292 192.03211 L 736.56356 189.58549 L 738.53866 187.44462 L 740.85024 185.67234 L 743.43044 184.32069 L 746.2035 183.42935 L 750 183 L 783 183 L 783 100 L 783.24954 97.09791 L 783.99084 94.28103 L 785.20212 91.63203 L 786.84784 89.22871 L 788.87968 87.1416 L 791.23798 85.43199 L 793.85352 84.15005 L 796.6495 83.33344 L 799.54385 83.00612 L 802.45158 83.1777 L 805.28735 83.84315 L 807.96789 84.98292 L 810.41451 86.56356 L 812.55538 88.53866 L 814.32766 90.85024 L 815.67931 93.43044 L 816.57065 96.2035 L 817 100 L 817 250 L 816.75046 252.90209 L 816.00916 255.71897 L 814.79788 258.36797 L 813.15216 260.77129 L 811.12032 262.8584 L 808.76202 264.56801 L 806.14648 265.84995 L 803.3505 266.66656 L 800 267 L 717 267 L 717 283 L 800 283 L 802.90209 283.24954 L 805.71897 283.99084 L 808.36797 285.20212 L 810.77129 286.84784 L 812.8584 288.87968 L 814.56801 291.23798 L 815.84995 293.85352 L 816.66656 296.6495 L 816.99388 299.54385 L 816.8223 302.45158 L 816.15685 305.28735 L 815.01708 307.96789 L 813.43644 310.41451 L 811.46134 312.55538 L 809.14976 314.32766 L 806.56956 315.67931 L 803.7965 316.57065 L 800 317 L 717 317 L 717 383 L 733 383 L 733 350 L 733.24954 347.09791 L 733.99084 344.28103 L 735.20212 341.63203 L 736.84784 339.22871 L 738.87968 337.1416 L 741.23798 335.43199 L 743.85352 334.15005 L 746.6495 333.33344 L 750 333 L 800 333 L 802.90209 333.24954 L 805.71897 333.99084 L 808.36797 335.20212 L 810.77129 336.84784 L 812.8584 338.87968 L 814.56801 341.23798 L 815.84995 343.85352 L 816.66656 346.6495 L 816.99388 349.54385 L 816.8223 352.45158 L 816.15685 355.28735 L 815.01708 357.96789 L 813.43644 360.41451 L 811.46134 362.55538 L 809.14976 364.32766 L 806.56956 365.67931 L 803.7965 366.57065 L 800 367 L 767 367 L 767 383 L 800 383 L 802.90209 383.24954 L 805.71897 383.99084 L 808.36797 385.20212 L 810.77129 386.84784 L 812.8584 388.87968 L 814.56801 391.23798 L 815.84995 393.85352 L 816.66656 396.6495 L 816.99388 399.54385 L 816.8223 402.45158 L 816.15685 405.28735 L 815.01708 407.96789 L 813.43644 410.41451 L 811.46134 412.55538 L 809.14976 414.32766 L 806.56956 415.67931 L 803.7965 416.57065 L 800 417 L 567 417 L 567 433 L 600 433 L 602.90209 433.24954 L 605.71897 433.99084 L 608.36797 435.20212 L 610.77129 436.84784 L 612.8584 438.87968 L 614.56801 441.23798 L 615.84995 443.85352 L 616.66656 446.6495 L 616.99388 449.54385 L 616.8223 452.45158 L 616.15685 455.28735 L 615.01708 457.96789 L 613.43644 460.41451 L 611.46134 462.55538 L 609.14976 464.32766 L 606.56956 465.67931 L 603.7965 466.57065 L 600 467 L 550 467 L 548.77543 466.8947 L 547.54842 466.8223 L 547.32577 466.77005 L 547.09791 466.75046 L 545.90923 466.43764 L 544.71265 466.15685 L 544.50218 466.06736 L 544.28103 466.00916 L 543.16319 465.49802 L 542.03211 465.01708 L 541.84005 464.893 L 541.63203 464.79788 L 540.61775 464.10333 L 539.58549 463.43644 L 539.41742 463.28138 L 539.22871 463.15216 L 538.34795 462.29473 L 537.44462 461.46134 L 537.30548 461.27986 L 537.1416 461.12032 L 536.42017 460.12516 L 535.67234 459.14976 L 535.56621 458.94717 L 535.43199 458.76202 L 534.891 457.65825 L 534.32069 456.56956 L 534.25072 456.35188 L 534.15005 456.14648 L 533.80539 454.9664 L 533.42935 453.7965 L 533.40764 453.60457 L 533.33344 453.3505 L 533.00612 450.45615 L 533.02171 450.19196 L 533 450 L 533 367 L 517 367 L 517 500 L 516.75046 502.90209 L 516.00916 505.71897 L 514.79788 508.36797 L 513.15216 510.77129 L 511.12032 512.8584 L 508.76202 514.56801 L 506.14648 515.84995 L 503.3505 516.66656 L 500.45615 516.99388 L 497.54842 516.8223 L 494.71265 516.15685 L 492.03211 515.01708 L 489.58549 513.43644 L 487.44462 511.46134 L 485.67234 509.14976 L 484.32069 506.56956 L 483.42935 503.7965 L 483 500 L 483 467 L 417 467 L 417 483 L 450 483 L 452.90209 483.24954 L 455.71897 483.99084 L 458.36797 485.20212 L 460.77129 486.84784 L 462.8584 488.87968 L 464.56801 491.23798 L 465.84995 493.85352 L 466.66656 496.6495 L 467 500 L 467 533 L 533 533 L 533 500 L 533.24954 497.09791 L 533.99084 494.28103 L 535.20212 491.63203 L 536.84784 489.22871 L 538.87968 487.1416 L 541.23798 485.43199 L 543.85352 484.15005 L 546.6495 483.33344 L 549.54385 483.00612 L 552.45158 483.1777 L 555.28735 483.84315 L 557.96789 484.98292 L 560.41451 486.56356 L 562.55538 488.53866 L 564.32766 490.85024 L 565.67931 493.43044 L 566.57065 496.2035 L 567 500 L 567 533 L 583 533 L 583 500 L 583.24954 497.09791 L 583.99084 494.28103 L 585.20212 491.63203 L 586.84784 489.22871 L 588.87968 487.1416 L 591.23798 485.43199 L 593.85352 484.15005 L 596.6495 483.33344 L 600 483 L 633 483 L 633 450 L 633.24954 447.09791 L 633.99084 444.28103 L 635.20212 441.63203 L 636.84784 439.22871 L 638.87968 437.1416 L 641.23798 435.43199 L 643.85352 434.15005 L 646.6495 433.33344 L 650 433 L 700 433 L 702.90209 433.24954 L 705.71897 433.99084 L 708.36797 435.20212 L 710.77129 436.84784 L 712.8584 438.87968 L 714.56801 441.23798 L 715.84995 443.85352 L 716.66656 446.6495 L 716.99388 449.54385 L 716.8223 452.45158 L 716.15685 455.28735 L 715.01708 457.96789 L 713.43644 460.41451 L 711.46134 462.55538 L 709.14976 464.32766 L 706.56956 465.67931 L 703.7965 466.57065 L 700 467 L 667 467 L 667 483 L 733 483 L 733 450 L 733.24954 447.09791 L 733.99084 444.28103 L 735.20212 441.63203 L 736.84784 439.22871 L 738.87968 437.1416 L 741.23798 435.43199 L 743.85352 434.15005 L 746.6495 433.33344 L 750 433 L 800 433 L 802.90209 433.24954 L 805.71897 433.99084 L 808.36797 435.20212 L 810.77129 436.84784 L 812.8584 438.87968 L 814.56801 441.23798 L 815.84995 443.85352 L 816.66656 446.6495 L 817 450 L 817 550 L 816.75046 552.90209 L 816.00916 555.71897 L 814.79788 558.36797 L 813.15216 560.77129 L 811.12032 562.8584 L 808.76202 564.56801 L 806.14648 565.84995 L 803.3505 566.66656 L 800.45615 566.99388 L 797.54842 566.8223 L 794.71265 566.15685 L 792.03211 565.01708 L 789.58549 563.43644 L 787.44462 561.46134 L 785.67234 559.14976 L 784.32069 556.56956 L 783.42935 553.7965 L 783 550 L 783 467 L 767 467 L 767 500 L 766.75046 502.90209 L 766.00916 505.71897 L 764.79788 508.36797 L 763.15216 510.77129 L 761.12032 512.8584 L 758.76202 514.56801 L 756.14648 515.84995 L 753.3505 516.66656 L 750 517 L 717 517 L 717 533 L 750 533 L 752.90209 533.24954 L 755.71897 533.99084 L 758.36797 535.20212 L 760.77129 536.84784 L 762.8584 538.87968 L 764.56801 541.23798 L 765.84995 543.85352 L 766.66656 546.6495 L 767 550 L 767 633 L 783 633 L 783 600 L 783.24954 597.09791 L 783.99084 594.28103 L 785.20212 591.63203 L 786.84784 589.22871 L 788.87968 587.1416 L 791.23798 585.43199 L 793.85352 584.15005 L 796.6495 583.33344 L 799.54385 583.00612 L 802.45158 583.1777 L 805.28735 583.84315 L 807.96789 584.98292 L 810.41451 586.56356 L 812.55538 588.53866 L 814.32766 590.85024 L 815.67931 593.43044 L 816.57065 596.2035 L 817 600 L 817 700 L 816.75046 702.90209 L 816.00916 705.71897 L 814.79788 708.36797 L 813.15216 710.77129 L 811.12032 712.8584 L 808.76202 714.56801 L 806.14648 715.84995 L 803.3505 716.66656 L 800.45615 716.99388 L 797.54842 716.8223 L 794.71265 716.15685 L 792.03211 715.01708 L 789.58549 713.43644 L 787.44462 711.46134 L 785.67234 709.14976 L 784.32069 706.56956 L 783.42935 703.7965 L 783 700 L 783 667 L 767 667 L 767 700 L 766.75046 702.90209 L 766.00916 705.71897 L 764.79788 708.36797 L 763.15216 710.77129 L 761.12032 712.8584 L 758.76202 714.56801 L 756.14648 715.84995 L 753.3505 716.66656 L 750.45615 716.99388 L 747.54842 716.8223 L 744.71265 716.15685 L 742.03211 715.01708 L 739.58549 713.43644 L 737.44462 711.46134 L 735.67234 709.14976 L 734.32069 706.56956 L 733.42935 703.7965 L 733 700 L 733 567 L 717 567 L 717 733 L 800 733 L 802.90209 733.24954 L 805.71897 733.99084 L 808.36797 735.20212 L 810.77129 736.84784 L 812.8584 738.87968 L 814.56801 741.23798 L 815.84995 743.85352 L 816.66656 746.6495 L 817 750 L 817 800 L 816.75046 802.90209 L 816.00916 805.71897 L 814.79788 808.36797 L 813.15216 810.77129 L 811.12032 812.8584 L 808.76202 814.56801 L 806.14648 815.84995 L 803.3505 816.66656 L 800.45615 816.99388 L 797.54842 816.8223 L 794.71265 816.15685 L 792.03211 815.01708 L 789.58549 813.43644 L 787.44462 811.46134 L 785.67234 809.14976 L 784.32069 806.56956 L 783.42935 803.7965 L 783 800 L 783 767 L 717 767 L 717 783 L 750 783 L 752.90209 783.24954 L 755.71897 783.99084 L 758.36797 785.20212 L 760.77129 786.84784 L 762.8584 788.87968 L 764.56801 791.23798 L 765.84995 793.85352 L 766.66656 796.6495 L 766.99388 799.54385 L 766.8223 802.45158 L 766.15685 805.28735 L 765.01708 807.96789 L 763.43644 810.41451 L 761.46134 812.55538 L 759.14976 814.32766 L 756.56956 815.67931 L 753.7965 816.57065 L 750 817 L 650 817 L 647.09791 816.75046 L 644.28103 816.00916 L 641.63203 814.79788 L 639.22871 813.15216 L 637.1416 811.12032 L 635.43199 808.76202 L 634.15005 806.14648 L 633.33344 803.3505 L 633.00612 800.45615 L 633.1777 797.54842 L 633.84315 794.71265 L 634.98292 792.03211 L 636.56356 789.58549 L 638.53866 787.44462 L 640.85024 785.67234 L 643.43044 784.32069 L 646.2035 783.42935 L 650 783 L 683 783 L 683 617 L 667 617 L 667 750 L 666.75046 752.90209 L 666.00916 755.71897 L 664.79788 758.36797 L 663.15216 760.77129 L 661.12032 762.8584 L 658.76202 764.56801 L 656.14648 765.84995 L 653.3505 766.66656 L 650.45615 766.99388 L 647.54842 766.8223 L 644.71265 766.15685 L 642.03211 765.01708 L 639.58549 763.43644 L 637.44462 761.46134 L 635.67234 759.14976 L 634.32069 756.56956 L 633.42935 753.7965 L 633 750 L 633 667 L 617 667 L 617 800 L 616.75046 802.90209 L 616.00916 805.71897 L 614.79788 808.36797 L 613.15216 810.77129 L 611.12032 812.8584 L 608.76202 814.56801 L 606.14648 815.84995 L 603.3505 816.66656 L 600.45615 816.99388 L 597.54842 816.8223 L 594.71265 816.15685 L 592.03211 815.01708 L 589.58549 813.43644 L 587.44462 811.46134 L 585.67234 809.14976 L 584.32069 806.56956 L 583.42935 803.7965 L 583 800 L 583 717 L 550 717 L 547.09791 716.75046 L 544.28103 716.00916 L 541.63203 714.79788 L 539.22871 713.15216 L 537.1416 711.12032 L 535.43199 708.76202 L 534.15005 706.14648 L 533.33344 703.3505 L 533.00612 700.45615 L 533.1777 697.54842 L 533.84315 694.71265 L 534.98292 692.03211 L 536.56356 689.58549 L 538.53866 687.44462 L 540.85024 685.67234 L 543.43044 684.32069 L 546.2035 683.42935 L 550 683 L 583 683 L 583 667 L 517 667 L 517 700 L 516.75046 702.90209 L 516.00916 705.71897 L 514.79788 708.36797 L 513.15216 710.77129 L 511.12032 712.8584 L 508.76202 714.56801 L 506.14648 715.84995 L 503.3505 716.66656 L 500.45615 716.99388 L 497.54842 716.8223 L 494.71265 716.15685 L 492.03211 715.01708 L 489.58549 713.43644 L 487.44462 711.46134 L 485.67234 709.14976 L 484.32069 706.56956 L 483.42935 703.7965 L 483 700 L 483 600 L 483.24954 597.09791 L 483.99084 594.28103 L 485.20212 591.63203 L 486.84784 589.22871 L 488.87968 587.1416 L 491.23798 585.43199 L 493.85352 584.15005 L 496.6495 583.33344 L 499.54385 583.00612 L 502.45158 583.1777 L 505.28735 583.84315 L 507.96789 584.98292 L 510.41451 586.56356 L 512.55538 588.53866 L 514.32766 590.85024 L 515.67931 593.43044 L 516.57065 596.2035 L 517 600 L 517 633 L 633 633 L 633 617 L 550 617 L 547.09791 616.75046 L 544.28103 616.00916 L 541.63203 614.79788 L 539.22871 613.15216 L 537.1416 611.12032 L 535.43199 608.76202 L 534.15005 606.14648 L 533.33344 603.3505 L 533.00612 600.45615 L 533.1777 597.54842 L 533.84315 594.71265 L 534.98292 592.03211 L 536.56356 589.58549 L 538.53866 587.44462 L 540.85024 585.67234 L 543.43044 584.32069 L 546.2035 583.42935 L 550 583 L 683 583 L 683 517 L 617 517 L 617 533 L 650 533 L 652.90209 533.24954 L 655.71897 533.99084 L 658.36797 535.20212 L 660.77129 536.84784 L 662.8584 538.87968 L 664.56801 541.23798 L 665.84995 543.85352 L 666.66656 546.6495 L 666.99388 549.54385 L 666.8223 552.45158 L 666.15685 555.28735 L 665.01708 557.96789 L 663.43644 560.41451 L 661.46134 562.55538 L 659.14976 564.32766 L 656.56956 565.67931 L 653.7965 566.57065 L 650 567 L 467 567 L 467 700 L 466.75046 702.90209 L 466.00916 705.71897 L 464.79788 708.36797 L 463.15216 710.77129 L 461.12032 712.8584 L 458.76202 714.56801 L 456.14648 715.84995 L 453.3505 716.66656 L 450 717 L 367 717 L 367 733 L 550 733 L 552.90209 733.24954 L 555.71897 733.99084 L 558.36797 735.20212 L 560.77129 736.84784 L 562.8584 738.87968 L 564.56801 741.23798 L 565.84995 743.85352 L 566.66656 746.6495 L 566.99388 749.54385 L 566.8223 752.45158 L 566.15685 755.28735 L 565.01708 757.96789 L 563.43644 760.41451 L 561.46134 762.55538 L 559.14976 764.32766 L 556.56956 765.67931 L 553.7965 766.57065 L 550 767 L 517 767 L 517 783 L 550 783 L 552.90209 783.24954 L 555.71897 783.99084 L 558.36797 785.20212 L 560.77129 786.84784 L 562.8584 788.87968 L 564.56801 791.23798 L 565.84995 793.85352 L 566.66656 796.6495 L 566.99388 799.54385 L 566.8223 802.45158 L 566.15685 805.28735 L 565.01708 807.96789 L 563.43644 810.41451 L 561.46134 812.55538 L 559.14976 814.32766 L 556.56956 815.67931 L 553.7965 816.57065 L 550 817 L 500 817 L 497.09791 816.75046 L 494.28103 816.00916 L 491.63203 814.79788 L 489.22871 813.15216 L 487.1416 811.12032 L 485.43199 808.76202 L 484.15005 806.14648 L 483.33344 803.3505 L 483 800 L 483 767 L 367 767 L 367 783 L 450 783 L 452.90209 783.24954 L 455.71897 783.99084 L 458.36797 785.20212 L 460.77129 786.84784 L 462.8584 788.87968 L 464.56801 791.23798 L 465.84995 793.85352 L 466.66656 796.6495 L 466.99388 799.54385 L 466.8223 802.45158 L 466.15685 805.28735 L 465.01708 807.96789 L 463.43644 810.41451 L 461.46134 812.55538 L 459.14976 814.32766 L 456.56956 815.67931 L 453.7965 816.57065 L 450 817 L 350 817 L 347.09791 816.75046 L 344.28103 816.00916 L 341.63203 814.79788 L 339.22871 813.15216 L 337.1416 811.12032 L 335.43199 808.76202 L 334.15005 806.14648 L 333.33344 803.3505 L 333 800 L 333 700 L 333.24954 697.09791 L 333.99084 694.28103 L 335.20212 691.63203 L 336.84784 689.22871 L 338.87968 687.1416 L 341.23798 685.43199 L 343.85352 684.15005 L 346.6495 683.33344 L 350 683 L 383 683 L 383 650 L 383.24954 647.09791 L 383.99084 644.28103 L 385.20212 641.63203 L 386.84784 639.22871 L 388.87968 637.1416 L 391.23798 635.43199 L 393.85352 634.15005 L 396.6495 633.33344 L 399.54385 633.00612 L 402.45158 633.1777 L 405.28735 633.84315 L 407.96789 634.98292 L 410.41451 636.56356 L 412.55538 638.53866 L 414.32766 640.85024 L 415.67931 643.43044 L 416.57065 646.2035 L 417 650 L 417 683 L 433 683 L 433 617 L 400 617 L 397.09791 616.75046 L 394.28103 616.00916 L 391.63203 614.79788 L 389.22871 613.15216 L 387.1416 611.12032 L 385.43199 608.76202 L 384.15005 606.14648 L 383.33344 603.3505 L 383.00612 600.45615 L 383.1777 597.54842 L 383.84315 594.71265 L 384.98292 592.03211 L 386.56356 589.58549 L 388.53866 587.44462 L 390.85024 585.67234 L 393.43044 584.32069 L 396.2035 583.42935 L 400 583 L 433 583 L 433 517 L 417 517 L 417 550 L 416.8947 551.22457 L 416.8223 552.45158 L 416.77005 552.67423 L 416.75046 552.90209 L 416.43764 554.09077 L 416.15685 555.28735 L 416.06736 555.49782 L 416.00916 555.71897 L 415.49802 556.83681 L 415.01708 557.96789 L 414.893 558.15995 L 414.79788 558.36797 L 414.10333 559.38225 L 413.43644 560.41451 L 413.28138 560.58258 L 413.15216 560.77129 L 412.29473 561.65205 L 411.46134 562.55538 L 411.27986 562.69452 L 411.12032 562.8584 L 410.12516 563.57983 L 409.14976 564.32766 L 408.94717 564.43379 L 408.76202 564.56801 L 407.65825 565.109 L 406.56956 565.67931 L 406.35188 565.74928 L 406.14648 565.84995 L 404.9664 566.19461 L 403.7965 566.57065 L 403.60457 566.59236 L 403.3505 566.66656 L 400.45615 566.99388 L 400.19196 566.97829 L 400 567 L 367 567 L 367 650 L 366.75046 652.90209 L 366.00916 655.71897 L 364.79788 658.36797 L 363.15216 660.77129 L 361.12032 662.8584 L 358.76202 664.56801 L 356.14648 665.84995 L 353.3505 666.66656 L 350.45615 666.99388 L 347.54842 666.8223 L 344.71265 666.15685 L 342.03211 665.01708 L 339.58549 663.43644 L 337.44462 661.46134 L 335.67234 659.14976 L 334.32069 656.56956 L 333.42935 653.7965 L 333 650 L 333 550 L 333.24954 547.09791 L 333.99084 544.28103 L 335.20212 541.63203 L 336.84784 539.22871 L 338.87968 537.1416 L 341.23798 535.43199 L 343.85352 534.15005 L 346.6495 533.33344 L 350 533 L 383 533 L 383 417 L 367 417 L 367 500 L 366.75046 502.90209 L 366.00916 505.71897 L 364.79788 508.36797 L 363.15216 510.77129 L 361.12032 512.8584 L 358.76202 514.56801 L 356.14648 515.84995 L 353.3505 516.66656 L 350.45615 516.99388 L 347.54842 516.8223 L 344.71265 516.15685 L 342.03211 515.01708 L 339.58549 513.43644 L 337.44462 511.46134 L 335.67234 509.14976 L 334.32069 506.56956 L 333.42935 503.7965 L 333 500 L 333 467 L 317 467 L 317 750 L 316.75046 752.90209 L 316.00916 755.71897 L 314.79788 758.36797 L 313.15216 760.77129 L 311.12032 762.8584 L 308.76202 764.56801 L 306.14648 765.84995 L 303.3505 766.66656 L 300 767 L 267 767 L 267 783 L 300 783 L 302.90209 783.24954 L 305.71897 783.99084 L 308.36797 785.20212 L 310.77129 786.84784 L 312.8584 788.87968 L 314.56801 791.23798 L 315.84995 793.85352 L 316.66656 796.6495 L 316.99388 799.54385 L 316.8223 802.45158 L 316.15685 805.28735 L 315.01708 807.96789 L 313.43644 810.41451 L 311.46134 812.55538 L 309.14976 814.32766 L 306.56956 815.67931 L 303.7965 816.57065 L 300 817 L 200 817 L 197.09791 816.75046 L 194.28103 816.00916 L 191.63203 814.79788 L 189.22871 813.15216 L 187.1416 811.12032 L 185.43199 808.76202 L 184.15005 806.14648 L 183.33344 803.3505 L 183.00612 800.45615 L 183.1777 797.54842 L 183.84315 794.71265 L 184.98292 792.03211 L 186.56356 789.58549 L 188.53866 787.44462 L 190.85024 785.67234 L 193.43044 784.32069 L 196.2035 783.42935 L 200 783 L 233 783 L 233 767 L 200 767 L 197.09791 766.75046 L 194.28103 766.00916 L 191.63203 764.79788 L 189.22871 763.15216 L 187.1416 761.12032 L 185.43199 758.76202 L 184.15005 756.14648 L 183.33344 753.3505 L 183.00612 750.45615 L 183.1777 747.54842 L 183.84315 744.71265 L 184.98292 742.03211 L 186.56356 739.58549 L 188.53866 737.44462 L 190.85024 735.67234 L 193.43044 734.32069 L 196.2035 733.42935 L 200 733 L 283 733 L 283 567 L 267 567 L 267 700 L 266.75046 702.90209 L 266.00916 705.71897 L 264.79788 708.36797 L 263.15216 710.77129 L 261.12032 712.8584 L 258.76202 714.56801 L 256.14648 715.84995 L 253.3505 716.66656 L 250 717 L 167 717 L 167 750 L 166.75046 752.90209 L 166.00916 755.71897 L 164.79788 758.36797 L 163.15216 760.77129 L 161.12032 762.8584 L 158.76202 764.56801 L 156.14648 765.84995 L 153.3505 766.66656 L 150 767 L 117 767 L 117 783 L 150 783 L 152.90209 783.24954 L 155.71897 783.99084 L 158.36797 785.20212 L 160.77129 786.84784 L 162.8584 788.87968 L 164.56801 791.23798 L 165.84995 793.85352 L 166.66656 796.6495 L 166.99388 799.54385 L 166.8223 802.45158 L 166.15685 805.28735 L 165.01708 807.96789 L 163.43644 810.41451 L 161.46134 812.55538 L 159.14976 814.32766 L 156.56956 815.67931 L 153.7965 816.57065 L 150 817 L 100 817 L 97.09791 816.75046 L 94.28103 816.00916 L 91.63203 814.79788 L 89.22871 813.15216 L 87.1416 811.12032 L 85.43199 808.76202 L 84.15005 806.14648 L 83.33344 803.3505 L 83 800 L 83 750 L 83.24954 747.09791 L 83.99084 744.28103 L 85.20212 741.63203 L 86.84784 739.22871 L 88.87968 737.1416 L 91.23798 735.43199 L 93.85352 734.15005 L 96.6495 733.33344 L 100 733 L 133 733 L 133 717 L 100 717 L 97.09791 716.75046 L 94.28103 716.00916 L 91.63203 714.79788 L 89.22871 713.15216 L 87.1416 711.12032 L 85.43199 708.76202 L 84.15005 706.14648 L 83.33344 703.3505 L 83.00612 700.45615 L 83.1777 697.54842 L 83.84315 694.71265 L 84.98292 692.03211 L 86.56356 689.58549 L 88.53866 687.44462 L 90.85024 685.67234 L 93.43044 684.32069 L 96.2035 683.42935 L 100 683 L 233 683 L 233 667 L 100 667 L 97.09791 666.75046 L 94.28103 666.00916 L 91.63203 664.79788 L 89.22871 663.15216 L 87.1416 661.12032 L 85.43199 658.76202 L 84.15005 656.14648 L 83.33344 653.3505 L 83.00612 650.45615 L 83.1777 647.54842 L 83.84315 644.71265 L 84.98292 642.03211 L 86.56356 639.58549 L 88.53866 637.44462 L 90.85024 635.67234 L 93.43044 634.32069 L 96.2035 633.42935 L 100 633 L 233 633 L 233 567 L 217 567 L 217 600 L 216.75046 602.90209 L 216.00916 605.71897 L 214.79788 608.36797 L 213.15216 610.77129 L 211.12032 612.8584 L 208.76202 614.56801 L 206.14648 615.84995 L 203.3505 616.66656 L 200.45615 616.99388 L 197.54842 616.8223 L 194.71265 616.15685 L 192.03211 615.01708 L 189.58549 613.43644 L 187.44462 611.46134 L 185.67234 609.14976 L 184.32069 606.56956 L 183.42935 603.7965 L 183 600 L 183 567 L 167 567 L 167 600 L 166.75046 602.90209 L 166.00916 605.71897 L 164.79788 608.36797 L 163.15216 610.77129 L 161.12032 612.8584 L 158.76202 614.56801 L 156.14648 615.84995 L 153.3505 616.66656 L 150 617 L 100 617 L 97.09791 616.75046 L 94.28103 616.00916 L 91.63203 614.79788 L 89.22871 613.15216 L 87.1416 611.12032 L 85.43199 608.76202 L 84.15005 606.14648 L 83.33344 603.3505 L 83.00612 600.45615 L 83.1777 597.54842 L 83.84315 594.71265 L 84.98292 592.03211 L 86.56356 589.58549 L 88.53866 587.44462 L 90.85024 585.67234 L 93.43044 584.32069 L 96.2035 583.42935 L 100 583 L 133 583 L 133 550 L 133.24954 547.09791 L 133.99084 544.28103 L 135.20212 541.63203 L 136.84784 539.22871 L 138.87968 537.1416 L 141.23798 535.43199 L 143.85352 534.15005 L 146.6495 533.33344 L 150 533 L 283 533 L 283 467 L 267 467 L 267 500 L 266.75046 502.90209 L 266.00916 505.71897 L 264.79788 508.36797 L 263.15216 510.77129 L 261.12032 512.8584 L 258.76202 514.56801 L 256.14648 515.84995 L 253.3505 516.66656 L 250 517 L 150 517 L 147.09791 516.75046 L 144.28103 516.00916 L 141.63203 514.79788 L 139.22871 513.15216 L 137.1416 511.12032 L 135.43199 508.76202 L 134.15005 506.14648 L 133.33344 503.3505 L 133.00612 500.45615 L 133.1777 497.54842 L 133.84315 494.71265 L 134.98292 492.03211 L 136.56356 489.58549 L 138.53866 487.44462 L 140.85024 485.67234 L 143.43044 484.32069 L 146.2035 483.42935 L 150 483 L 233 483 L 233 467 L 117 467 L 117 550 L 116.75046 552.90209 L 116.00916 555.71897 L 114.79788 558.36797 L 113.15216 560.77129 L 111.12032 562.8584 L 108.76202 564.56801 L 106.14648 565.84995 L 103.3505 566.66656 L 100.45615 566.99388 L 97.54842 566.8223 L 94.71265 566.15685 L 92.03211 565.01708 L 89.58549 563.43644 L 87.44462 561.46134 L 85.67234 559.14976 L 84.32069 556.56956 L 83.42935 553.7965 L 83 550 L 83 450 L 83.24954 447.09791 L 83.99084 444.28103 L 85.20212 441.63203 L 86.84784 439.22871 L 88.87968 437.1416 L 91.23798 435.43199 L 93.85352 434.15005 L 96.6495 433.33344 L 100 433 L 133 433 L 133 417 L 100 417 L 97.09791 416.75046 L 94.28103 416.00916 L 91.63203 414.79788 L 89.22871 413.15216 L 87.1416 411.12032 L 85.43199 408.76202 L 84.15005 406.14648 L 83.33344 403.3505 L 83.00612 400.45615 L 83.1777 397.54842 L 83.84315 394.71265 L 84.98292 392.03211 L 86.56356 389.58549 L 88.53866 387.44462 L 90.85024 385.67234 L 93.43044 384.32069 L 96.2035 383.42935 L 100 383 L 133 383 L 133 367 L 100 367 L 97.09791 366.75046 L 94.28103 366.00916 L 91.63203 364.79788 L 89.22871 363.15216 L 87.1416 361.12032 L 85.43199 358.76202 L 84.15005 356.14648 L 83.33344 353.3505 L 83 350 L 83 200 L 83.24954 197.09791 L 83.99084 194.28103 L 85.20212 191.63203 L 86.84784 189.22871 L 88.87968 187.1416 L 91.23798 185.43199 L 93.85352 184.15005 L 96.6495 183.33344 L 99.54385 183.00612 L 102.45158 183.1777 L 105.28735 183.84315 L 107.96789 184.98292 L 110.41451 186.56356 L 112.55538 188.53866 L 114.32766 190.85024 L 115.67931 193.43044 L 116.57065 196.2035 L 117 200 L 117 333 L 150 333 L 152.90209 333.24954 L 155.71897 333.99084 L 158.36797 335.20212 L 160.77129 336.84784 L 162.8584 338.87968 L 164.56801 341.23798 L 165.84995 343.85352 L 166.66656 346.6495 L 167 350 L 167 433 L 183 433 L 183 400 L 183.24954 397.09791 L 183.99084 394.28103 L 185.20212 391.63203 L 186.84784 389.22871 L 188.87968 387.1416 L 191.23798 385.43199 L 193.85352 384.15005 L 196.6495 383.33344 L 199.54385 383.00612 L 202.45158 383.1777 L 205.28735 383.84315 L 207.96789 384.98292 L 210.41451 386.56356 L 212.55538 388.53866 L 214.32766 390.85024 L 215.67931 393.43044 L 216.57065 396.2035 L 217 400 L 217 433 L 333 433 L 333 400 L 333.24954 397.09791 L 333.99084 394.28103 L 335.20212 391.63203 L 336.84784 389.22871 L 338.87968 387.1416 L 341.23798 385.43199 L 343.85352 384.15005 L 346.6495 383.33344 L 350 383 L 383 383 L 383 367 L 317 367 L 317 400 L 316.75046 402.90209 L 316.00916 405.71897 L 314.79788 408.36797 L 313.15216 410.77129 L 311.12032 412.8584 L 308.76202 414.56801 L 306.14648 415.84995 L 303.3505 416.66656 L 300 417 L 250 417 L 247.09791 416.75046 L 244.28103 416.00916 L 241.63203 414.79788 L 239.22871 413.15216 L 237.1416 411.12032 L 235.43199 408.76202 L 234.15005 406.14648 L 233.33344 403.3505 L 233.00612 400.45615 L 233.1777 397.54842 L 233.84315 394.71265 L 234.98292 392.03211 L 236.56356 389.58549 L 238.53866 387.44462 L 240.85024 385.67234 L 243.43044 384.32069 L 246.2035 383.42935 L 250 383 L 283 383 L 283 367 L 200 367 L 197.09791 366.75046 L 194.28103 366.00916 L 191.63203 364.79788 L 189.22871 363.15216 L 187.1416 361.12032 L 185.43199 358.76202 L 184.15005 356.14648 L 183.33344 353.3505 L 183.00612 350.45615 L 183.1777 347.54842 L 183.84315 344.71265 L 184.98292 342.03211 L 186.56356 339.58549 L 188.53866 337.44462 L 190.85024 335.67234 L 193.43044 334.32069 L 196.2035 333.42935 L 200 333 L 333 333 L 333 317 L 150 317 L 147.09791 316.75046 L 144.28103 316.00916 L 141.63203 314.79788 L 139.22871 313.15216 L 137.1416 311.12032 L 135.43199 308.76202 L 134.15005 306.14648 L 133.33344 303.3505 L 133.00612 300.45615 L 133.1777 297.54842 L 133.84315 294.71265 L 134.98292 292.03211 L 136.56356 289.58549 L 138.53866 287.44462 L 140.85024 285.67234 L 143.43044 284.32069 L 146.2035 283.42935 L 150 283 L 283 283 L 283 267 L 150 267 L 147.09791 266.75046 L 144.28103 266.00916 L 141.63203 264.79788 L 139.22871 263.15216 L 137.1416 261.12032 L 135.43199 258.76202 L 134.15005 256.14648 L 133.33344 253.3505 L 133.00612 250.45615 L 133.1777 247.54842 L 133.84315 244.71265 L 134.98292 242.03211 L 136.56356 239.58549 L 138.53866 237.44462 L 140.85024 235.67234 L 143.43044 234.32069 L 146.2035 233.42935 L 150 233 L 183 233 L 183 217 L 150 217 L 147.09791 216.75046 L 144.28103 216.00916 L 141.63203 214.79788 L 139.22871 213.15216 L 137.1416 211.12032 L 135.43199 208.76202 L 134.15005 206.14648 L 133.33344 203.3505 L 133.00612 200.45615 L 133.1777 197.54842 L 133.84315 194.71265 L 134.98292 192.03211 L 136.56356 189.58549 L 138.53866 187.44462 L 140.85024 185.67234 L 143.43044 184.32069 L 146.2035 183.42935 L 150 183 L 183 183 L 183 167 L 100 167 L 97.09791 166.75046 L 94.28103 166.00916 L 91.63203 164.79788 L 89.22871 163.15216 L 87.1416 161.12032 L 85.43199 158.76202 L 84.15005 156.14648 L 83.33344 153.3505 L 83 150 L 83 100 L 83.24954 97.09791 L 83.99084 94.28103 L 85.20212 91.63203 L 86.84784 89.22871 L 88.87968 87.1416 L 91.23798 85.43199 L 93.85352 84.15005 L 96.6495 83.33344 L 99.54385 83.00612 L 102.45158 83.1777 L 105.28735 83.84315 L 107.96789 84.98292 L 110.41451 86.56356 L 112.55538 88.53866 L 114.32766 90.85024 L 115.67931 93.43044 L 116.57065 96.2035 L 117 100 L 117 133 L 183 133 L 183 117 L 150 117 L 147.09791 116.75046 L 144.28103 116.00916 L 141.63203 114.79788 L 139.22871 113.15216 L 137.1416 111.12032 L 135.43199 108.76202 L 134.15005 106.14648 L 133.33344 103.3505 L 133.00612 100.45615 L 133.1777 97.54842 L 133.84315 94.71265 L 134.98292 92.03211 L 136.56356 89.58549 L 138.53866 87.44462 L 140.85024 85.67234 L 143.43044 84.32069 L 146.2035 83.42935 L 150 83 L 300 83 Z" stroke-miterlimit="10"/></g></svg>