<svg version="1.1" xmlns="http://www.w3.org/2000/svg" xmlns:xlink="http://www.w3.org/1999/xlink" width="1200" height="1600"><defs/><g><path fill="#222222" stroke="#cccccc" paint-order="fill stroke markers" d=" M 411.21028 76.24707 L 444.88737 87.18943 L 446.12952 87.85385 L 447.06431 88.90767 L 447.57581 90.2202 L 447.6513 90.99366 L 447.6513 114.09312 L 461.22883 95.40526 L 462.24457 94.42922 L 463.53568 93.86583 L 464.94204 93.78496 L 465.70097 93.95217 L 499.37806 104.89452 L 500.62021 105.55893 L 501.555 106.61276 L 502.0665 107.92529 L 502.14199 108.69875 L 502.14199 142.80927 L 521.42772 169.35379 L 553.86875 179.89452 L 555.1109 180.55893 L 556.04569 181.61276 L 556.55719 182.92529 L 556.63268 183.69875 L 556.63268 219.10895 L 556.54852 219.57942 L 556.51885 220.05641 L 556.42535 220.26796 L 556.38463 220.49562 L 556.1426 220.90774 L 555.94941 221.34486 L 555.78839 221.51086 L 555.67126 221.71031 L 555.30136 222.01297 L 554.96862 222.35601 L 554.74149 222.47107 L 554.58102 222.60237 L 554.27252 222.70864 L 553.86875 222.91318 L 531.89987 230.0513 L 553.86875 237.18943 L 555.1109 237.85385 L 556.04569 238.90767 L 556.55719 240.2202 L 556.63268 240.99366 L 556.63268 276.40385 L 556.38463 277.79052 L 555.67126 279.00521 L 554.58102 279.89727 L 553.86875 280.20808 L 521.42772 290.74882 L 502.14199 317.29334 L 502.14199 351.40385 L 501.89394 352.79052 L 501.18057 354.00521 L 500.09033 354.89727 L 499.37806 355.20808 L 465.70097 366.15044 L 464.30552 366.34303 L 462.92984 366.03993 L 461.74454 365.27872 L 461.22883 364.69735 L 447.6513 346.00948 L 447.6513 369.10895 L 447.40325 370.49562 L 446.68988 371.71031 L 445.59964 372.60237 L 444.88737 372.91318 L 411.21028 383.85553 L 409.81483 384.04812 L 408.43914 383.74502 L 407.25385 382.98381 L 406.73814 382.40244 L 386.68849 354.80646 L 355.48352 344.66735 L 323.04249 355.20808 L 321.64704 355.40067 L 320.27135 355.09757 L 319.08606 354.33636 L 318.57035 353.75499 L 297.75676 325.10754 L 297.14237 323.8399 L 297.00553 322.43789 L 297.36321 321.07538 L 297.75676 320.40526 L 311.33428 301.71741 L 289.36539 308.85553 L 287.96994 309.04812 L 286.59425 308.74502 L 285.40896 307.98381 L 284.89325 307.40244 L 264.07966 278.75499 L 263.46527 277.48735 L 263.32843 276.08534 L 263.68611 274.72283 L 264.07966 274.05271 L 284.12932 246.45672 L 284.12932 213.64589 L 264.07966 186.04989 L 263.46527 184.78225 L 263.32843 183.38024 L 263.68611 182.01772 L 264.07966 181.34761 L 284.89325 152.70016 L 285.90899 151.72412 L 287.2001 151.16073 L 288.60645 151.07986 L 289.36539 151.24707 L 311.33428 158.3852 L 297.75676 139.69735 L 297.14237 138.42971 L 297.00553 137.0277 L 297.36321 135.66519 L 297.75676 134.99507 L 318.57035 106.34761 L 319.58609 105.37157 L 320.8772 104.80818 L 322.28355 104.72731 L 323.04249 104.89452 L 355.48352 115.43526 L 386.68849 105.29614 L 406.73814 77.70016 L 407.75388 76.72412 L 409.04499 76.16073 L 410.45134 76.07986 Z M 394.10489 351.40385 L 411.50207 375.34901 L 439.6513 366.20278 L 439.6513 336.60492 L 411.50207 327.45869 Z M 448.59557 333.69875 L 465.99276 357.64392 L 494.14199 348.49768 L 494.14199 318.89983 L 465.99276 309.75359 Z M 305.9371 322.7564 L 323.33428 346.70156 L 351.48352 337.55533 L 351.48352 307.95747 L 323.33428 298.81124 Z M 359.48352 307.95747 L 359.48352 337.55533 L 387.63276 346.70156 L 405.02994 322.7564 L 387.63276 298.81124 Z M 413.97421 290.25238 L 413.97421 319.85023 L 442.12344 328.99646 L 459.52063 305.0513 L 442.12344 281.10614 Z M 468.4649 272.54728 L 468.4649 302.14513 L 496.61413 311.29137 L 514.01132 287.34621 L 496.61413 263.40104 Z M 392.39669 168.3448 L 392.05208 168.67594 L 391.7477 169.0444 L 391.54771 169.16059 L 391.38095 169.32084 L 390.94295 169.51196 L 390.52968 169.75208 L 390.30179 169.79174 L 390.08984 169.88423 L 389.61276 169.91166 L 389.14186 169.99362 L 388.89046 169.9532 L 388.68349 169.9651 L 388.37146 169.86975 L 387.92455 169.79789 L 365.95566 162.65976 L 379.53318 181.34761 L 380.14757 182.61525 L 380.28441 184.01726 L 379.92673 185.37977 L 379.53318 186.04989 L 358.71959 214.69735 L 357.70385 215.67339 L 356.41274 216.23678 L 355.00639 216.31765 L 354.24745 216.15044 L 332.27856 209.01231 L 345.85608 227.70016 L 346.06452 228.13022 L 346.32089 228.53357 L 346.3696 228.75967 L 346.47047 228.9678 L 346.51689 229.44345 L 346.61754 229.91066 L 346.58484 230.13963 L 346.60731 230.36981 L 346.48596 230.83205 L 346.4184 231.30519 L 346.30227 231.53179 L 346.24963 231.73232 L 346.06252 231.99962 L 345.85608 232.40244 L 332.27856 251.09029 L 354.24745 243.95217 L 355.6429 243.75958 L 357.01859 244.06268 L 358.20388 244.82389 L 358.71959 245.40526 L 379.53318 274.05271 L 380.14757 275.32035 L 380.28441 276.72236 L 379.92673 278.08487 L 379.53318 278.75499 L 365.95566 297.44284 L 387.92455 290.30472 L 388.39798 290.23938 L 388.86081 290.1202 L 389.0909 290.14375 L 389.32 290.11213 L 389.78672 290.21496 L 390.26217 290.26362 L 390.46981 290.36546 L 390.69569 290.41523 L 391.09782 290.67348 L 391.52691 290.88394 L 391.70653 291.06441 L 391.88098 291.17644 L 392.07737 291.43699 L 392.39669 291.75781 L 405.97421 310.44566 L 405.97421 287.34621 L 406.22226 285.95954 L 406.93563 284.74485 L 408.02587 283.85279 L 408.73814 283.54198 L 442.41523 272.59962 L 443.81068 272.40703 L 445.18636 272.71013 L 446.37166 273.47134 L 446.88737 274.05271 L 460.4649 292.74057 L 460.4649 269.64111 L 460.54906 269.17064 L 460.57873 268.69366 L 460.67222 268.48212 L 460.71295 268.25444 L 460.95499 267.84231 L 461.14817 267.4052 L 461.30919 267.2392 L 461.42632 267.03975 L 461.79622 266.73709 L 462.12896 266.39405 L 462.35609 266.27899 L 462.51656 266.14769 L 462.82506 266.04142 L 463.22883 265.83688 L 485.19771 258.69875 L 463.22883 251.56063 L 461.98668 250.89622 L 461.05189 249.84239 L 460.54039 248.52986 L 460.4649 247.7564 L 460.4649 212.34621 L 460.71295 210.95954 L 461.42632 209.74485 L 462.51656 208.85279 L 463.22883 208.54198 L 485.19771 201.40385 L 463.22883 194.26573 L 462.80739 194.04031 L 462.36292 193.86469 L 462.19063 193.71041 L 461.98668 193.60132 L 461.66953 193.24378 L 461.3135 192.92497 L 461.20537 192.72051 L 461.05189 192.54749 L 460.87835 192.10217 L 460.65492 191.67971 L 460.61568 191.42817 L 460.54039 191.23496 L 460.53465 190.90868 L 460.4649 190.4615 L 460.4649 167.36203 L 446.88737 186.04989 L 445.87163 187.02593 L 444.58052 187.58932 L 443.17416 187.67019 L 442.41523 187.50298 L 408.73814 176.56063 L 407.49599 175.89622 L 406.5612 174.84239 L 406.0497 173.52986 L 405.97421 172.7564 L 405.97421 149.65695 Z M 272.26 276.40385 L 289.65718 300.34901 L 317.80642 291.20278 L 317.80642 261.60492 L 289.65718 252.45869 Z M 325.80642 261.60492 L 325.80642 291.20278 L 353.95566 300.34901 L 371.35284 276.40385 L 353.95566 252.45869 Z M 503.08626 258.69875 L 520.48345 282.64392 L 548.63268 273.49768 L 548.63268 243.89983 L 520.48345 234.75359 Z M 468.4649 215.25238 L 468.4649 244.85023 L 496.61413 253.99646 L 514.01132 230.0513 L 496.61413 206.10614 Z M 292.12932 215.25238 L 292.12932 244.85023 L 320.27856 253.99646 L 337.67574 230.0513 L 320.27856 206.10614 Z M 503.08626 201.40385 L 520.48345 225.34901 L 548.63268 216.20278 L 548.63268 186.60492 L 520.48345 177.45869 Z M 272.26 183.69875 L 289.65718 207.64392 L 317.80642 198.49768 L 317.80642 168.89983 L 289.65718 159.75359 Z M 325.80642 168.89983 L 325.80642 198.49768 L 353.95566 207.64392 L 371.35284 183.69875 L 353.95566 159.75359 Z M 468.4649 157.95747 L 468.4649 187.55533 L 496.61413 196.70156 L 514.01132 172.7564 L 496.61413 148.81124 Z M 413.97421 140.25238 L 413.97421 169.85023 L 442.12344 178.99646 L 459.52063 155.0513 L 442.12344 131.10614 Z M 305.9371 137.34621 L 323.33428 161.29137 L 351.48352 152.14513 L 351.48352 122.54728 L 323.33428 113.40104 Z M 359.48352 122.54728 L 359.48352 152.14513 L 387.63276 161.29137 L 405.02994 137.34621 L 387.63276 113.40104 Z M 448.59557 126.40385 L 465.99276 150.34901 L 494.14199 141.20278 L 494.14199 111.60492 L 465.99276 102.45869 Z M 394.10489 108.69875 L 411.50207 132.64392 L 439.6513 123.49768 L 439.6513 93.89983 L 411.50207 84.75359 Z" stroke-miterlimit="10"/><path fill="#222222" stroke="#cccccc" paint-order="fill stroke markers" d=" M 808.72574 78.41702 L 849.75383 91.74786 L 850.99598 92.41227 L 851.93077 93.4661 L 852.44227 94.77863 L 852.51776 95.55209 L 852.51776 135.78541 L 890.78193 148.21819 L 892.02408 148.8826 L 892.95887 149.93643 L 893.47037 151.24896 L 893.54586 152.02242 L 893.54586 192.25575 L 931.81003 204.68853 L 933.05218 205.35294 L 933.98697 206.40677 L 934.49847 207.7193 L 934.57396 208.49276 L 934.57396 251.63225 L 934.32591 253.01892 L 933.61254 254.23361 L 932.5223 255.12567 L 931.81003 255.43648 L 893.54586 267.86926 L 893.54586 308.10258 L 893.29781 309.48925 L 892.58444 310.70394 L 891.4942 311.596 L 890.78193 311.90681 L 852.51776 324.33959 L 852.51776 364.57291 L 852.26971 365.95958 L 851.55634 367.17427 L 850.4661 368.06633 L 849.75383 368.37714 L 808.72574 381.70798 L 807.33029 381.90057 L 805.95461 381.59747 L 804.76931 380.83626 L 804.2536 380.25489 L 780.60505 347.70546 L 742.34088 360.13823 L 740.94543 360.33082 L 739.56974 360.02772 L 738.38445 359.26651 L 737.86874 358.68514 L 714.22019 326.13571 L 675.95602 338.56849 L 674.56057 338.76108 L 673.18488 338.45798 L 671.99959 337.69677 L 671.48388 337.1154 L 646.12712 302.21481 L 645.51273 300.94717 L 645.37589 299.54516 L 645.73357 298.18265 L 646.12712 297.51253 L 669.77568 264.96309 L 646.12712 232.41364 L 645.51273 231.146 L 645.37589 229.74399 L 645.73357 228.38148 L 646.12712 227.71136 L 669.77568 195.16192 L 646.12712 162.61247 L 645.51273 161.34483 L 645.37589 159.94282 L 645.73357 158.58031 L 646.12712 157.91019 L 671.48388 123.00961 L 672.49962 122.03357 L 673.79073 121.47018 L 675.19708 121.38931 L 675.95602 121.55652 L 714.22019 133.9893 L 737.86874 101.43986 L 738.88448 100.46382 L 740.17559 99.90043 L 741.58194 99.81956 L 742.34088 99.98677 L 780.60505 112.41955 L 804.2536 79.87011 L 805.26934 78.89407 L 806.56045 78.33068 L 807.9668 78.24981 Z M 786.13291 302.76984 L 786.13291 341.70349 L 809.01753 373.20146 L 844.51776 361.66674 L 844.51776 322.7331 L 821.63314 291.23512 Z M 720.69232 321.43342 L 742.63267 351.63171 L 778.13291 340.09699 L 778.13291 302.76984 L 742.63267 291.23512 Z M 677.19208 268.3657 L 654.30746 299.86367 L 676.24781 330.06197 L 713.27592 318.03081 L 736.16054 286.53283 L 714.22019 256.33454 Z M 828.10527 286.53283 L 850.04562 316.73113 L 885.54586 305.19641 L 885.54586 267.86926 L 850.04562 256.33454 Z M 743.57694 176.99478 L 719.74805 209.79244 L 719.74805 250.33257 L 743.57694 283.13022 L 782.13291 295.65782 L 820.68887 283.13022 L 844.51776 250.33257 L 844.51776 209.79244 L 820.68887 176.99478 L 782.13291 164.46718 Z M 852.51776 211.39893 L 852.51776 248.72608 L 889.54586 260.75724 L 926.57396 248.72608 L 926.57396 211.39893 L 889.54586 199.36777 Z M 654.30746 230.0625 L 676.24781 260.2608 L 711.74805 248.72608 L 711.74805 211.39893 L 676.24781 199.86421 Z M 654.30746 160.26133 L 677.19208 191.75931 L 714.22019 203.79047 L 736.16054 173.59217 L 713.27592 142.0942 L 676.24781 130.06304 Z M 828.10527 173.59217 L 850.04562 203.79047 L 885.54586 192.25575 L 885.54586 154.9286 L 850.04562 143.39388 Z M 720.69232 138.69159 L 742.63267 168.88988 L 778.13291 157.35516 L 778.13291 120.02801 L 742.63267 108.49329 Z M 786.13291 118.42152 L 786.13291 157.35516 L 821.63314 168.88988 L 844.51776 137.39191 L 844.51776 98.45826 L 809.01753 86.92354 Z" stroke-miterlimit="10"/><path fill="#222222" stroke="#cccccc" paint-order="fill stroke markers" d=" M 391.29073 459.06238 L 392.47603 459.82359 L 392.99174 460.40496 L 412.63401 487.44024 L 444.4159 497.7668 L 445.65805 498.43121 L 446.59284 499.48504 L 447.10434 500.79757 L 447.17983 501.57103 L 447.17983 523.97742 L 460.34998 505.85027 L 461.36572 504.87423 L 462.65683 504.31084 L 464.06318 504.22997 L 464.82212 504.39718 L 496.604 514.72374 L 528.38588 504.39718 L 529.78133 504.20459 L 531.15702 504.50769 L 532.34231 505.2689 L 532.85802 505.85027 L 553.26423 533.93702 L 553.87862 535.20466 L 554.01546 536.60667 L 553.65778 537.96919 L 553.26423 538.6393 L 533.62195 565.67458 L 533.62195 599.09203 L 533.3739 600.4787 L 532.66053 601.69339 L 531.57029 602.58545 L 530.85802 602.89626 L 509.54829 609.82021 L 530.85802 616.74416 L 532.10017 617.40857 L 533.03496 618.4624 L 533.54646 619.77493 L 533.62195 620.54839 L 533.62195 653.96584 L 553.26423 681.00113 L 553.87862 682.26877 L 554.01546 683.67078 L 553.65778 685.0333 L 553.26423 685.70341 L 532.85802 713.79015 L 531.84228 714.76619 L 530.55117 715.32958 L 529.14482 715.41045 L 528.38588 715.24324 L 496.604 704.91668 L 464.82212 715.24324 L 463.42667 715.43583 L 462.05098 715.13273 L 460.86569 714.37152 L 460.34998 713.79015 L 447.17983 695.663 L 447.17983 718.06939 L 446.93178 719.45606 L 446.21841 720.67075 L 445.12817 721.56281 L 444.4159 721.87362 L 412.63401 732.20019 L 392.99174 759.23546 L 391.976 760.2115 L 390.68489 760.77489 L 389.27854 760.85576 L 388.5196 760.68855 L 355.50165 749.96037 L 354.2595 749.29596 L 353.32471 748.24213 L 352.81321 746.9296 L 352.73772 746.15614 L 352.73772 712.73869 L 333.09543 685.70341 L 332.48104 684.43578 L 332.3442 683.03376 L 332.70188 681.67125 L 333.09543 681.00113 L 346.26558 662.87398 L 324.95584 669.79793 L 323.56039 669.99052 L 322.1847 669.68742 L 320.99941 668.92621 L 320.4837 668.34484 L 300.84142 641.30957 L 269.05953 630.98301 L 267.81738 630.3186 L 266.88259 629.26477 L 266.37109 627.95224 L 266.2956 627.17878 L 266.2956 592.46165 L 266.54365 591.07498 L 267.25702 589.86029 L 268.34726 588.96823 L 269.05953 588.65742 L 300.84142 578.33086 L 320.4837 551.29558 L 321.49944 550.31954 L 322.79055 549.75615 L 324.1969 549.67528 L 324.95584 549.84249 L 346.26557 556.76644 L 333.09543 538.6393 L 332.48104 537.37167 L 332.3442 535.96965 L 332.70188 534.60714 L 333.09543 533.93702 L 352.73772 506.90173 L 352.73772 473.48429 L 352.98577 472.09762 L 353.69914 470.88293 L 354.78938 469.99087 L 355.50165 469.68006 L 388.5196 458.95187 L 389.91505 458.75928 Z M 360.73772 714.34518 L 360.73772 743.24997 L 388.22781 752.18203 L 405.21761 728.79758 L 388.22781 705.41312 Z M 392.99174 668.34484 L 391.976 669.32088 L 390.68489 669.88427 L 389.27854 669.96514 L 388.5196 669.79793 L 358.26558 659.96781 L 341.27577 683.35227 L 358.26558 706.73672 L 388.5196 696.9066 L 389.91505 696.71401 L 391.29074 697.01711 L 392.47603 697.77832 L 392.99174 698.35969 L 411.68974 724.09529 L 439.17983 715.16322 L 439.17983 686.25844 L 408.92581 676.42831 L 408.50437 676.20289 L 408.0599 676.02727 L 407.88761 675.87299 L 407.68366 675.7639 L 407.36651 675.40636 L 407.01048 675.08755 L 406.90235 674.88309 L 406.74887 674.71007 L 406.57533 674.26475 L 406.3519 673.84229 L 406.31266 673.59075 L 406.23737 673.39754 L 406.23163 673.07126 L 406.16188 672.62408 L 406.16188 650.2177 Z M 479.43385 640.2581 L 479.08924 640.58924 L 478.78486 640.9577 L 478.58488 641.07389 L 478.41811 641.23414 L 477.98007 641.42528 L 477.56684 641.66537 L 477.33898 641.70503 L 477.127 641.79753 L 476.64989 641.82497 L 476.17902 641.90692 L 475.92762 641.8665 L 475.72065 641.8784 L 475.40862 641.78305 L 474.96171 641.71119 L 453.65198 634.78724 L 466.82212 652.91438 L 467.43651 654.18201 L 467.57335 655.58403 L 467.21567 656.94654 L 466.82212 657.61666 L 448.1241 683.35227 L 465.11391 706.73672 L 492.604 697.80466 L 492.604 665.9937 L 492.85205 664.60703 L 493.56542 663.39234 L 494.65566 662.50028 L 495.36793 662.18947 L 525.62195 652.35935 L 525.62195 623.45456 L 498.13186 614.5225 Z M 500.604 668.89987 L 500.604 697.80466 L 528.09409 706.73672 L 545.08389 683.35227 L 528.09409 659.96781 Z M 414.16188 640.81313 L 414.16188 669.71791 L 441.65197 678.64998 L 458.64178 655.26552 L 441.65197 631.88107 Z M 308.25782 581.73347 L 326.95584 607.46907 L 327.57023 608.7367 L 327.70707 610.13872 L 327.34939 611.50123 L 326.95584 612.17135 L 308.25782 637.90696 L 325.24763 661.29141 L 352.73772 652.35935 L 352.73772 620.54839 L 352.82188 620.07792 L 352.85155 619.60093 L 352.94505 619.38938 L 352.98577 619.16172 L 353.2278 618.7496 L 353.42099 618.31248 L 353.58201 618.14648 L 353.69914 617.94703 L 354.06904 617.64437 L 354.40178 617.30133 L 354.62891 617.18627 L 354.78938 617.05497 L 355.09788 616.9487 L 355.50165 616.74416 L 376.81138 609.82021 L 355.50165 602.89626 L 354.2595 602.23185 L 353.32471 601.17802 L 352.81321 599.86549 L 352.73772 599.09203 L 352.73772 567.28107 L 325.24763 558.34901 Z M 360.73772 623.45456 L 360.73772 652.35935 L 388.22781 661.29141 L 405.21761 637.90696 L 388.22781 614.5225 Z M 274.2956 595.36782 L 274.2956 624.27261 L 301.78569 633.20467 L 318.7755 609.82021 L 301.78569 586.43576 Z M 394.69994 609.82021 L 411.68974 633.20467 L 439.17983 624.27261 L 439.17983 595.36782 L 411.68974 586.43576 Z M 447.17983 595.36782 L 447.17983 624.27261 L 474.66992 633.20467 L 491.65973 609.82021 L 474.66992 586.43576 Z M 360.73772 567.28107 L 360.73772 596.18586 L 388.22781 605.11792 L 405.21761 581.73347 L 388.22781 558.34901 Z M 448.1241 536.28816 L 466.82212 562.02376 L 467.03056 562.45383 L 467.28693 562.85717 L 467.33563 563.08326 L 467.43651 563.29139 L 467.48294 563.76706 L 467.58358 564.23426 L 467.55088 564.46323 L 467.57335 564.69341 L 467.452 565.15565 L 467.38444 565.62879 L 467.26831 565.85539 L 467.21567 566.05592 L 467.02856 566.32322 L 466.82212 566.72604 L 453.65197 584.85319 L 474.96171 577.92924 L 476.35716 577.73665 L 477.73285 578.03975 L 478.91814 578.80096 L 479.43385 579.38233 L 498.13186 605.11792 L 525.62195 596.18586 L 525.62195 567.28107 L 495.36793 557.45095 L 494.12578 556.78654 L 493.19099 555.73271 L 492.67949 554.42018 L 492.604 553.64672 L 492.604 521.83576 L 465.11391 512.9037 Z M 414.16188 549.92251 L 414.16188 578.8273 L 441.65197 587.75936 L 458.64178 564.3749 L 441.65197 540.99045 Z M 392.99174 521.28073 L 391.976 522.25677 L 390.68489 522.82016 L 389.27854 522.90103 L 388.5196 522.73382 L 358.26558 512.9037 L 341.27577 536.28816 L 358.26558 559.67261 L 388.5196 549.84249 L 388.99303 549.77715 L 389.45586 549.65797 L 389.68595 549.68152 L 389.91505 549.6499 L 390.38177 549.75273 L 390.85722 549.80139 L 391.06486 549.90323 L 391.29074 549.953 L 391.69287 550.21125 L 392.12196 550.42171 L 392.30158 550.60218 L 392.47603 550.71421 L 392.67242 550.97476 L 392.99174 551.29558 L 406.16188 569.42273 L 406.16188 547.01634 L 406.40993 545.62967 L 407.1233 544.41498 L 408.21354 543.52292 L 408.92581 543.21211 L 439.17983 533.38199 L 439.17983 504.4772 L 411.68974 495.54514 Z M 500.604 521.83576 L 500.604 550.74055 L 528.09409 559.67261 L 545.08389 536.28816 L 528.09409 512.9037 Z M 360.73772 476.39046 L 360.73772 505.29524 L 388.22781 514.2273 L 405.21761 490.84285 L 388.22781 467.45839 Z" stroke-miterlimit="10"/><path fill="#222222" stroke="#cccccc" paint-order="fill stroke markers" d=" M 806.10346 457.82819 L 854.33488 473.49953 L 855.57703 474.16394 L 856.51182 475.21777 L 857.02332 476.5303 L 857.09881 477.30376 L 857.09881 526.7176 L 885.3796 565.64277 L 932.37496 580.91249 L 933.61711 581.5769 L 934.5519 582.63073 L 935.0634 583.94326 L 935.13889 584.71672 L 935.13889 635.43023 L 934.89084 636.8169 L 934.17747 638.03159 L 933.08723 638.92365 L 932.37496 639.23446 L 885.3796 654.50418 L 857.09881 693.42935 L 857.09881 742.84319 L 856.85076 744.22986 L 856.13739 745.44455 L 855.04715 746.33661 L 854.33488 746.64742 L 806.10346 762.31876 L 804.70801 762.51135 L 803.33232 762.20825 L 802.14703 761.44704 L 801.63132 760.86567 L 772.5866 720.88904 L 726.82731 706.02094 L 679.83196 721.29066 L 678.43651 721.48325 L 677.06082 721.18015 L 675.87553 720.41894 L 675.35982 719.83757 L 645.55116 678.80947 L 644.93677 677.54183 L 644.79993 676.13982 L 645.15761 674.77731 L 645.55116 674.10719 L 674.59589 634.13055 L 674.59589 586.0164 L 645.55116 546.03976 L 644.93677 544.77212 L 644.79993 543.37011 L 645.15761 542.0076 L 645.55116 541.33748 L 675.35982 500.30938 L 676.37556 499.33334 L 677.66667 498.76995 L 679.07302 498.68908 L 679.83196 498.85629 L 726.82731 514.12601 L 772.5866 499.25791 L 801.63132 459.28128 L 802.64706 458.30524 L 803.93817 457.74185 L 805.34452 457.66098 Z M 780.003 717.48643 L 806.39525 753.81224 L 849.09881 739.93702 L 849.09881 695.03584 L 806.39525 681.16062 Z M 653.7315 676.45833 L 680.12375 712.78414 L 722.82731 698.90892 L 722.82731 654.00774 L 680.12375 640.13252 Z M 730.82731 654.00774 L 730.82731 698.90892 L 773.53087 712.78414 L 799.92312 676.45833 L 773.53087 640.13252 Z M 808.86739 628.65099 L 808.86739 673.55216 L 851.57095 687.42738 L 877.9632 651.10157 L 851.57095 614.77577 Z M 778.2948 587.06786 L 777.27906 588.0439 L 775.98795 588.60729 L 774.5816 588.68816 L 773.82266 588.52095 L 737.29945 576.65384 L 759.87204 607.72234 L 760.48643 608.98998 L 760.62327 610.39199 L 760.26559 611.7545 L 759.87204 612.42462 L 737.29945 643.49311 L 773.82266 631.626 L 775.21811 631.43341 L 776.5938 631.73651 L 777.77909 632.49772 L 778.2948 633.07909 L 800.86739 664.14759 L 800.86739 625.74481 L 801.11544 624.35814 L 801.82881 623.14345 L 802.91905 622.25139 L 803.63132 621.94058 L 840.15452 610.07348 L 803.63132 598.20637 L 802.38917 597.54196 L 801.45438 596.48813 L 800.94288 595.1756 L 800.86739 594.40214 L 800.86739 555.99936 Z M 858.04308 610.07348 L 884.43533 646.39928 L 927.13889 632.52406 L 927.13889 587.62289 L 884.43533 573.74767 Z M 682.59589 587.62289 L 682.59589 632.52406 L 725.29945 646.39928 L 751.6917 610.07348 L 725.29945 573.74767 Z M 808.86739 546.59479 L 808.86739 591.49597 L 851.57095 605.37119 L 877.9632 569.04538 L 851.57095 532.71957 Z M 653.7315 543.68862 L 680.12375 580.01443 L 722.82731 566.13921 L 722.82731 521.23803 L 680.12375 507.36281 Z M 730.82731 521.23803 L 730.82731 566.13921 L 773.53087 580.01443 L 799.92312 543.68862 L 773.53087 507.36281 Z M 780.003 502.66052 L 806.39525 538.98633 L 849.09881 525.11111 L 849.09881 480.20993 L 806.39525 466.33471 Z" stroke-miterlimit="10"/><path fill="#222222" stroke="#cccccc" paint-order="fill stroke markers" d=" M 411.56086 836.25498 L 412.74615 837.01619 L 413.26186 837.59756 L 433.31151 865.19354 L 464.51648 875.33265 L 496.95751 864.79192 L 498.35296 864.59933 L 499.72865 864.90243 L 500.91394 865.66364 L 501.42965 866.24501 L 522.24324 894.89246 L 522.85763 896.1601 L 522.99447 897.56211 L 522.63679 898.92462 L 522.24324 899.59474 L 508.66572 918.28259 L 530.63461 911.14447 L 532.03006 910.95188 L 533.40575 911.25498 L 534.59104 912.01619 L 535.10675 912.59756 L 555.92034 941.24501 L 556.53473 942.51265 L 556.67157 943.91466 L 556.31389 945.27717 L 555.92034 945.94729 L 535.87068 973.54328 L 535.87068 1006.35411 L 555.92034 1033.95011 L 556.53473 1035.21775 L 556.67157 1036.61976 L 556.31389 1037.98228 L 555.92034 1038.65239 L 535.10675 1067.29984 L 534.09101 1068.27588 L 532.7999 1068.83927 L 531.39355 1068.92014 L 530.63461 1068.75293 L 508.66572 1061.6148 L 522.24324 1080.30265 L 522.85763 1081.57029 L 522.99447 1082.9723 L 522.63679 1084.33481 L 522.24324 1085.00493 L 501.42965 1113.65239 L 500.41391 1114.62843 L 499.1228 1115.19182 L 497.71645 1115.27269 L 496.95751 1115.10548 L 464.51648 1104.56474 L 433.31151 1114.70386 L 413.26186 1142.29984 L 412.24612 1143.27588 L 410.95501 1143.83927 L 409.54866 1143.92014 L 408.78972 1143.75293 L 375.11263 1132.81057 L 373.87048 1132.14615 L 372.93569 1131.09233 L 372.42419 1129.7798 L 372.3487 1129.00634 L 372.3487 1105.90688 L 358.77117 1124.59474 L 357.75543 1125.57078 L 356.46432 1126.13417 L 355.05796 1126.21504 L 354.29903 1126.04783 L 320.62194 1115.10548 L 319.37979 1114.44107 L 318.445 1113.38724 L 317.9335 1112.07471 L 317.85801 1111.30125 L 317.85801 1077.19073 L 298.57228 1050.64621 L 266.13125 1040.10548 L 264.8891 1039.44107 L 263.95431 1038.38724 L 263.44281 1037.07471 L 263.36732 1036.30125 L 263.36732 1000.89105 L 263.61537 999.50438 L 264.32874 998.28969 L 265.41898 997.39763 L 266.13125 997.08682 L 288.10013 989.9487 L 266.13125 982.81057 L 264.8891 982.14615 L 263.95431 981.09233 L 263.44281 979.7798 L 263.36732 979.00634 L 263.36732 943.59615 L 263.61537 942.20948 L 264.32874 940.99479 L 265.41898 940.10273 L 266.13125 939.79192 L 298.57228 929.25118 L 317.85801 902.70666 L 317.85801 868.59615 L 318.10606 867.20948 L 318.81943 865.99479 L 319.90967 865.10273 L 320.62194 864.79192 L 354.29903 853.84956 L 355.69448 853.65697 L 357.07016 853.96007 L 358.25546 854.72128 L 358.77117 855.30265 L 372.3487 873.99052 L 372.3487 850.89105 L 372.59675 849.50438 L 373.31012 848.28969 L 374.40036 847.39763 L 375.11263 847.08682 L 408.78972 836.14447 L 410.18517 835.95188 Z M 380.3487 1096.50232 L 380.3487 1126.10017 L 408.49793 1135.24641 L 425.89511 1111.30125 L 408.49793 1087.35608 Z M 325.85801 1078.79722 L 325.85801 1108.39508 L 354.00724 1117.54131 L 371.40443 1093.59615 L 354.00724 1069.65099 Z M 414.02579 898.54328 L 414.02579 932.65379 L 413.77774 934.04046 L 413.06437 935.25515 L 411.97413 936.14721 L 411.26186 936.45802 L 377.58477 947.40038 L 376.18932 947.59297 L 374.81364 947.28987 L 373.62834 946.52866 L 373.11263 945.94729 L 353.06297 918.35131 L 323.38587 908.70863 L 305.98868 932.65379 L 324.33014 957.89864 L 356.77117 968.43937 L 358.01332 969.10378 L 358.94811 970.15761 L 359.45961 971.47014 L 359.5351 972.2436 L 359.5351 1007.65379 L 359.28705 1009.04046 L 358.57368 1010.25515 L 357.48344 1011.14721 L 356.77117 1011.45802 L 324.33014 1021.99876 L 305.98868 1047.2436 L 323.38587 1071.18876 L 353.06297 1061.54609 L 373.11263 1033.95011 L 374.12837 1032.97407 L 375.41948 1032.41068 L 376.82584 1032.32981 L 377.58477 1032.49702 L 411.26186 1043.43937 L 412.50401 1044.10378 L 413.4388 1045.15761 L 413.9503 1046.47014 L 414.02579 1047.2436 L 414.02579 1081.35411 L 432.36724 1106.59896 L 460.51648 1097.45272 L 460.51648 1066.24838 L 440.46682 1038.65239 L 439.85243 1037.38475 L 439.71559 1035.98274 L 440.07327 1034.62023 L 440.46682 1033.95011 L 461.28041 1005.30265 L 462.29615 1004.32661 L 463.58726 1003.76322 L 464.99361 1003.68235 L 465.75255 1003.84956 L 498.19358 1014.3903 L 527.87068 1004.74762 L 527.87068 975.14977 L 498.19358 965.5071 L 465.75255 976.04783 L 464.3571 976.24042 L 462.98141 975.93732 L 461.79612 975.17611 L 461.28041 974.59474 L 440.46682 945.94729 L 439.85243 944.67965 L 439.71559 943.27764 L 440.07327 941.91513 L 440.46682 941.24501 L 460.51648 913.64902 L 460.51648 882.44467 L 432.36724 873.29844 Z M 468.51648 1067.85487 L 468.51648 1097.45272 L 496.66572 1106.59896 L 514.0629 1082.65379 L 496.66572 1058.70863 Z M 360.47937 1064.9487 L 377.87656 1088.89386 L 406.02579 1079.74762 L 406.02579 1050.14977 L 377.87656 1041.00354 Z M 448.64716 1036.30125 L 466.04434 1060.24641 L 494.19358 1051.10017 L 494.19358 1021.50232 L 466.04434 1012.35608 Z M 502.19358 1021.50232 L 502.19358 1051.10017 L 530.34282 1060.24641 L 547.74 1036.30125 L 530.34282 1012.35608 Z M 271.36732 1003.79722 L 271.36732 1033.39508 L 299.51655 1042.54131 L 316.91374 1018.59615 L 299.51655 994.65099 Z M 305.98868 989.9487 L 323.38587 1013.89386 L 351.5351 1004.74762 L 351.5351 975.14977 L 323.38587 966.00354 Z M 271.36732 946.50232 L 271.36732 976.10017 L 299.51655 985.24641 L 316.91374 961.30125 L 299.51655 937.35608 Z M 448.64716 943.59615 L 466.04434 967.54131 L 494.19358 958.39508 L 494.19358 928.79722 L 466.04434 919.65099 Z M 502.19358 928.79722 L 502.19358 958.39508 L 530.34282 967.54131 L 547.74 943.59615 L 530.34282 919.65099 Z M 360.47937 914.9487 L 377.87656 938.89386 L 406.02579 929.74762 L 406.02579 900.14977 L 377.87656 891.00354 Z M 468.51648 882.44467 L 468.51648 912.04253 L 496.66572 921.18876 L 514.0629 897.2436 L 496.66572 873.29844 Z M 325.85801 871.50232 L 325.85801 901.10017 L 354.00724 910.24641 L 371.40443 886.30125 L 354.00724 862.35608 Z M 380.3487 853.79722 L 380.3487 883.39508 L 408.49793 892.54131 L 425.89511 868.59615 L 408.49793 844.65099 Z" stroke-miterlimit="10"/><path fill="#222222" stroke="#cccccc" paint-order="fill stroke markers" d=" M 771.29073 839.06238 L 772.47603 839.82359 L 772.99174 840.40496 L 792.63401 867.44024 L 824.4159 877.7668 L 825.65805 878.43121 L 826.59284 879.48504 L 827.10434 880.79757 L 827.17983 881.57103 L 827.17983 903.97742 L 840.34998 885.85027 L 841.36572 884.87423 L 842.65683 884.31084 L 844.06318 884.22997 L 844.82212 884.39718 L 876.604 894.72374 L 908.38588 884.39718 L 909.78133 884.20459 L 911.15702 884.50769 L 912.34231 885.2689 L 912.85802 885.85027 L 933.26423 913.93702 L 933.87862 915.20466 L 934.01546 916.60667 L 933.65778 917.96919 L 933.26423 918.6393 L 913.62195 945.67458 L 913.62195 979.09203 L 913.3739 980.4787 L 912.66053 981.69339 L 911.57029 982.58545 L 910.85802 982.89626 L 889.54829 989.82021 L 910.85802 996.74416 L 912.10017 997.40857 L 913.03496 998.4624 L 913.54646 999.77493 L 913.62195 1000.54839 L 913.62195 1033.96584 L 933.26423 1061.00113 L 933.87862 1062.26877 L 934.01546 1063.67078 L 933.65778 1065.0333 L 933.26423 1065.70341 L 912.85802 1093.79015 L 911.84228 1094.76619 L 910.55117 1095.32958 L 909.14482 1095.41045 L 908.38588 1095.24324 L 876.604 1084.91668 L 844.82212 1095.24324 L 843.42667 1095.43583 L 842.05098 1095.13273 L 840.86569 1094.37152 L 840.34998 1093.79015 L 827.17983 1075.663 L 827.17983 1098.06939 L 826.93178 1099.45606 L 826.21841 1100.67075 L 825.12817 1101.56281 L 824.4159 1101.87362 L 792.63401 1112.20019 L 772.99174 1139.23546 L 771.976 1140.2115 L 770.68489 1140.77489 L 769.27854 1140.85576 L 768.5196 1140.68855 L 735.50165 1129.96037 L 734.2595 1129.29596 L 733.32471 1128.24213 L 732.81321 1126.9296 L 732.73772 1126.15614 L 732.73772 1092.73869 L 713.09543 1065.70341 L 712.48104 1064.43578 L 712.3442 1063.03376 L 712.70188 1061.67125 L 713.09543 1061.00113 L 726.26558 1042.87398 L 704.95584 1049.79793 L 703.56039 1049.99052 L 702.1847 1049.68742 L 700.99941 1048.92621 L 700.4837 1048.34484 L 680.84142 1021.30957 L 649.05953 1010.98301 L 647.81738 1010.3186 L 646.88259 1009.26477 L 646.37109 1007.95224 L 646.2956 1007.17878 L 646.2956 972.46165 L 646.54365 971.07498 L 647.25702 969.86029 L 648.34726 968.96823 L 649.05953 968.65742 L 680.84142 958.33086 L 700.4837 931.29558 L 701.49944 930.31954 L 702.79055 929.75615 L 704.1969 929.67528 L 704.95584 929.84249 L 726.26557 936.76644 L 713.09543 918.6393 L 712.48104 917.37167 L 712.3442 915.96965 L 712.70188 914.60714 L 713.09543 913.93702 L 732.73772 886.90173 L 732.73772 853.48429 L 732.98577 852.09762 L 733.69914 850.88293 L 734.78938 849.99087 L 735.50165 849.68006 L 768.5196 838.95187 L 769.91505 838.75928 Z M 740.73772 1094.34518 L 740.73772 1123.24997 L 768.22781 1132.18203 L 785.21761 1108.79758 L 768.22781 1085.41312 Z M 772.99174 1048.34484 L 771.976 1049.32088 L 770.68489 1049.88427 L 769.27854 1049.96514 L 768.5196 1049.79793 L 738.26558 1039.96781 L 721.27577 1063.35227 L 738.26558 1086.73672 L 768.5196 1076.9066 L 769.91505 1076.71401 L 771.29074 1077.01711 L 772.47603 1077.77832 L 772.99174 1078.35969 L 791.68974 1104.09529 L 819.17983 1095.16322 L 819.17983 1066.25844 L 788.92581 1056.42831 L 788.50437 1056.20289 L 788.0599 1056.02727 L 787.88761 1055.87299 L 787.68366 1055.7639 L 787.36651 1055.40636 L 787.01048 1055.08755 L 786.90235 1054.88309 L 786.74887 1054.71007 L 786.57533 1054.26475 L 786.3519 1053.84229 L 786.31266 1053.59075 L 786.23737 1053.39754 L 786.23163 1053.07126 L 786.16188 1052.62408 L 786.16188 1030.2177 Z M 859.43385 1020.2581 L 859.08924 1020.58924 L 858.78486 1020.9577 L 858.58488 1021.07389 L 858.41811 1021.23414 L 857.98007 1021.42528 L 857.56684 1021.66537 L 857.33898 1021.70503 L 857.127 1021.79753 L 856.64989 1021.82497 L 856.17902 1021.90692 L 855.92762 1021.8665 L 855.72065 1021.8784 L 855.40862 1021.78305 L 854.96171 1021.71119 L 833.65198 1014.78724 L 846.82212 1032.91438 L 847.43651 1034.18201 L 847.57335 1035.58403 L 847.21567 1036.94654 L 846.82212 1037.61666 L 828.1241 1063.35227 L 845.11391 1086.73672 L 872.604 1077.80466 L 872.604 1045.9937 L 872.85205 1044.60703 L 873.56542 1043.39234 L 874.65566 1042.50028 L 875.36793 1042.18947 L 905.62195 1032.35935 L 905.62195 1003.45456 L 878.13186 994.5225 Z M 880.604 1048.89987 L 880.604 1077.80466 L 908.09409 1086.73672 L 925.08389 1063.35227 L 908.09409 1039.96781 Z M 794.16188 1020.81313 L 794.16188 1049.71791 L 821.65197 1058.64998 L 838.64178 1035.26552 L 821.65197 1011.88107 Z M 688.25782 961.73347 L 706.95584 987.46907 L 707.57023 988.7367 L 707.70707 990.13872 L 707.34939 991.50123 L 706.95584 992.17135 L 688.25782 1017.90696 L 705.24763 1041.29141 L 732.73772 1032.35935 L 732.73772 1000.54839 L 732.82188 1000.07792 L 732.85155 999.60093 L 732.94505 999.38938 L 732.98577 999.16172 L 733.2278 998.7496 L 733.42099 998.31248 L 733.58201 998.14648 L 733.69914 997.94703 L 734.06904 997.64437 L 734.40178 997.30133 L 734.62891 997.18627 L 734.78938 997.05497 L 735.09788 996.9487 L 735.50165 996.74416 L 756.81138 989.82021 L 735.50165 982.89626 L 734.2595 982.23185 L 733.32471 981.17802 L 732.81321 979.86549 L 732.73772 979.09203 L 732.73772 947.28107 L 705.24763 938.34901 Z M 740.73772 1003.45456 L 740.73772 1032.35935 L 768.22781 1041.29141 L 785.21761 1017.90696 L 768.22781 994.5225 Z M 654.2956 975.36782 L 654.2956 1004.27261 L 681.78569 1013.20467 L 698.7755 989.82021 L 681.78569 966.43576 Z M 774.69994 989.82021 L 791.68974 1013.20467 L 819.17983 1004.27261 L 819.17983 975.36782 L 791.68974 966.43576 Z M 827.17983 975.36782 L 827.17983 1004.27261 L 854.66992 1013.20467 L 871.65973 989.82021 L 854.66992 966.43576 Z M 740.73772 947.28107 L 740.73772 976.18586 L 768.22781 985.11792 L 785.21761 961.73347 L 768.22781 938.34901 Z M 828.1241 916.28816 L 846.82212 942.02376 L 847.03056 942.45383 L 847.28693 942.85717 L 847.33563 943.08326 L 847.43651 943.29139 L 847.48294 943.76706 L 847.58358 944.23426 L 847.55088 944.46323 L 847.57335 944.69341 L 847.452 945.15565 L 847.38444 945.62879 L 847.26831 945.85539 L 847.21567 946.05592 L 847.02856 946.32322 L 846.82212 946.72604 L 833.65197 964.85319 L 854.96171 957.92924 L 856.35716 957.73665 L 857.73285 958.03975 L 858.91814 958.80096 L 859.43385 959.38233 L 878.13186 985.11792 L 905.62195 976.18586 L 905.62195 947.28107 L 875.36793 937.45095 L 874.12578 936.78654 L 873.19099 935.73271 L 872.67949 934.42018 L 872.604 933.64672 L 872.604 901.83576 L 845.11391 892.9037 Z M 794.16188 929.92251 L 794.16188 958.8273 L 821.65197 967.75936 L 838.64178 944.3749 L 821.65197 920.99045 Z M 772.99174 901.28073 L 771.976 902.25677 L 770.68489 902.82016 L 769.27854 902.90103 L 768.5196 902.73382 L 738.26558 892.9037 L 721.27577 916.28816 L 738.26558 939.67261 L 768.5196 929.84249 L 768.99303 929.77715 L 769.45586 929.65797 L 769.68595 929.68152 L 769.91505 929.6499 L 770.38177 929.75273 L 770.85722 929.80139 L 771.06486 929.90323 L 771.29074 929.953 L 771.69287 930.21125 L 772.12196 930.42171 L 772.30158 930.60218 L 772.47603 930.71421 L 772.67242 930.97476 L 772.99174 931.29558 L 786.16188 949.42273 L 786.16188 927.01634 L 786.40993 925.62967 L 787.1233 924.41498 L 788.21354 923.52292 L 788.92581 923.21211 L 819.17983 913.38199 L 819.17983 884.4772 L 791.68974 875.54514 Z M 880.604 901.83576 L 880.604 930.74055 L 908.09409 939.67261 L 925.08389 916.28816 L 908.09409 892.9037 Z M 740.73772 856.39046 L 740.73772 885.29524 L 768.22781 894.2273 L 785.21761 870.84285 L 768.22781 847.45839 Z" stroke-miterlimit="10"/><path fill="#222222" stroke="#cccccc" paint-order="fill stroke markers" d=" M 411.21741 1216.23289 L 435.58638 1224.15085 L 436.82853 1224.81526 L 437.76332 1225.86909 L 438.27482 1227.18162 L 438.35031 1227.95508 L 438.35031 1250.67197 L 457.19143 1256.79381 L 470.54408 1238.41547 L 471.55982 1237.43943 L 472.85093 1236.87604 L 474.25728 1236.79517 L 475.01622 1236.96238 L 499.38519 1244.88034 L 500.62734 1245.54475 L 501.56213 1246.59858 L 502.07363 1247.91111 L 502.14912 1248.68457 L 502.14912 1274.30763 L 501.90107 1275.6943 L 501.1877 1276.90899 L 500.09746 1277.80105 L 499.38519 1278.11186 L 477.78015 1285.13176 L 477.78015 1307.84865 L 477.5321 1309.23532 L 476.81873 1310.45001 L 475.72849 1311.34207 L 475.01622 1311.65288 L 451.8833 1319.16922 L 439.29458 1336.4961 L 450.93903 1352.5233 L 471.30802 1345.90502 L 485.60493 1326.227 L 486.62067 1325.25096 L 487.91178 1324.68757 L 489.31813 1324.6067 L 490.07707 1324.77391 L 511.68212 1331.79381 L 525.03477 1313.41547 L 526.05051 1312.43943 L 527.34162 1311.87604 L 528.74797 1311.79517 L 529.50691 1311.96238 L 553.87588 1319.88034 L 555.11803 1320.54475 L 556.05282 1321.59858 L 556.56432 1322.91111 L 556.63981 1323.68457 L 556.63981 1349.30763 L 556.55565 1349.7781 L 556.52598 1350.25509 L 556.43248 1350.46664 L 556.39176 1350.6943 L 556.14973 1351.10642 L 555.95654 1351.54354 L 555.79552 1351.70954 L 555.67839 1351.90899 L 555.30849 1352.21165 L 554.97575 1352.55469 L 554.74862 1352.66975 L 554.58815 1352.80105 L 554.27965 1352.90732 L 553.87588 1353.11186 L 532.27084 1360.13176 L 532.27084 1379.94248 L 553.87588 1386.96238 L 555.11803 1387.62679 L 556.05282 1388.68062 L 556.56432 1389.99315 L 556.63981 1390.76661 L 556.63981 1416.38967 L 556.39176 1417.77634 L 555.67839 1418.99103 L 554.58815 1419.88309 L 553.87588 1420.1939 L 529.50691 1428.11186 L 528.11146 1428.30445 L 526.73577 1428.00135 L 525.55048 1427.24014 L 525.03477 1426.65877 L 511.68212 1408.28043 L 490.07707 1415.30033 L 488.68162 1415.49292 L 487.30593 1415.18982 L 486.12064 1414.42861 L 485.60493 1413.84724 L 471.30802 1394.16922 L 450.93903 1387.55094 L 439.29458 1403.57814 L 451.8833 1420.90502 L 475.01622 1428.42136 L 476.25837 1429.08577 L 477.19316 1430.1396 L 477.70466 1431.45213 L 477.78015 1432.22559 L 477.78015 1454.94248 L 499.38519 1461.96238 L 500.62734 1462.62679 L 501.56213 1463.68062 L 502.07363 1464.99315 L 502.14912 1465.76661 L 502.14912 1491.38967 L 501.90107 1492.77634 L 501.1877 1493.99103 L 500.09746 1494.88309 L 499.38519 1495.1939 L 475.01622 1503.11186 L 473.62077 1503.30445 L 472.24508 1503.00135 L 471.05979 1502.24014 L 470.54408 1501.65877 L 457.19143 1483.28043 L 438.35031 1489.40227 L 438.35031 1512.11916 L 438.10226 1513.50583 L 437.38889 1514.72052 L 436.29865 1515.61258 L 435.58638 1515.92339 L 411.21741 1523.84135 L 409.82196 1524.03394 L 408.44627 1523.73084 L 407.26098 1522.96963 L 406.74527 1522.38826 L 391.68441 1501.65877 L 391.07002 1500.39114 L 390.93318 1498.98912 L 391.29086 1497.62661 L 391.68441 1496.95649 L 405.03707 1478.57814 L 391.68441 1460.19979 L 391.07002 1458.93216 L 390.93318 1457.53014 L 391.29086 1456.16763 L 391.68441 1455.49751 L 405.98134 1435.81948 L 405.98134 1414.40227 L 387.14022 1408.28043 L 374.5515 1425.60731 L 374.5515 1449.93069 L 374.30345 1451.31736 L 373.59008 1452.53205 L 372.49984 1453.42411 L 371.78757 1453.73492 L 350.18253 1460.75482 L 350.18253 1483.47171 L 349.93448 1484.85838 L 349.22111 1486.07307 L 348.13087 1486.96513 L 347.4186 1487.27594 L 323.04962 1495.1939 L 321.65417 1495.38649 L 320.27848 1495.08339 L 319.09319 1494.32218 L 318.57748 1493.74081 L 303.51662 1473.01132 L 302.90223 1471.74369 L 302.76539 1470.34167 L 303.12307 1468.97916 L 303.51662 1468.30904 L 316.86928 1449.93069 L 305.22483 1433.90349 L 283.61978 1440.92339 L 282.22433 1441.11598 L 280.84864 1440.81288 L 279.66335 1440.05167 L 279.14764 1439.4703 L 264.08679 1418.74081 L 263.4724 1417.47317 L 263.33556 1416.07116 L 263.69324 1414.70864 L 264.08679 1414.03853 L 279.14764 1393.30904 L 280.16338 1392.333 L 281.45449 1391.76961 L 282.86084 1391.68874 L 283.61978 1391.85595 L 305.22483 1398.87585 L 318.57748 1380.49751 L 319.59322 1379.52147 L 320.88433 1378.95808 L 322.29068 1378.87721 L 323.04962 1379.04442 L 346.18253 1386.56076 L 366.5515 1379.94248 L 366.5515 1360.13176 L 346.18253 1353.51348 L 323.04962 1361.02982 L 321.65417 1361.22241 L 320.27848 1360.91931 L 319.09319 1360.1581 L 318.57748 1359.57673 L 305.22483 1341.19839 L 283.61978 1348.21829 L 282.22433 1348.41088 L 280.84864 1348.10778 L 279.66335 1347.34657 L 279.14764 1346.7652 L 264.08679 1326.03571 L 263.4724 1324.76807 L 263.33556 1323.36606 L 263.69324 1322.00354 L 264.08679 1321.33343 L 279.14764 1300.60394 L 280.16338 1299.6279 L 281.45449 1299.06451 L 282.86084 1298.98364 L 283.61978 1299.15085 L 305.22483 1306.17076 L 316.86928 1290.14356 L 303.51662 1271.7652 L 302.90223 1270.49756 L 302.76539 1269.09555 L 303.12307 1267.73304 L 303.51662 1267.06292 L 318.57748 1246.33343 L 319.59322 1245.35739 L 320.88433 1244.794 L 322.29068 1244.71313 L 323.04962 1244.88034 L 347.4186 1252.79831 L 348.66075 1253.46273 L 349.59554 1254.51655 L 350.10704 1255.82908 L 350.18253 1256.60254 L 350.18253 1279.31942 L 371.78757 1286.33933 L 373.02972 1287.00375 L 373.96451 1288.05757 L 374.47601 1289.3701 L 374.5515 1290.14356 L 374.5515 1314.46693 L 387.14022 1331.79381 L 405.98134 1325.67197 L 405.98134 1304.25476 L 391.68441 1284.57673 L 391.07002 1283.3091 L 390.93318 1281.90708 L 391.29086 1280.54457 L 391.68441 1279.87445 L 405.03707 1261.4961 L 391.68441 1243.11775 L 391.07002 1241.85012 L 390.93318 1240.4481 L 391.29086 1239.08559 L 391.68441 1238.41547 L 406.74527 1217.68598 L 407.76101 1216.70994 L 409.05212 1216.14655 L 410.45847 1216.06568 Z M 437.58638 1447.38826 L 437.24177 1447.7194 L 436.93739 1448.08786 L 436.73741 1448.20405 L 436.57064 1448.3643 L 436.1326 1448.55544 L 435.71937 1448.79553 L 435.49151 1448.83519 L 435.27953 1448.92769 L 434.80242 1448.95513 L 434.33155 1449.03708 L 434.08015 1448.99666 L 433.87318 1449.00856 L 433.56115 1448.91321 L 433.11424 1448.84135 L 411.5092 1441.82145 L 399.86475 1457.84865 L 413.21741 1476.227 L 413.8318 1477.49463 L 413.96864 1478.89665 L 413.61096 1480.25916 L 413.21741 1480.92928 L 399.86475 1499.30763 L 411.5092 1515.33483 L 430.35031 1509.21299 L 430.35031 1486.4961 L 430.59836 1485.10943 L 431.31173 1483.89474 L 432.40197 1483.00268 L 433.11424 1482.69187 L 457.48322 1474.77391 L 458.87867 1474.58132 L 460.25436 1474.88442 L 461.43965 1475.64563 L 461.95536 1476.227 L 475.30801 1494.60534 L 494.14912 1488.4835 L 494.14912 1468.67278 L 472.54408 1461.65288 L 471.30193 1460.98847 L 470.36714 1459.93464 L 469.85564 1458.62211 L 469.78015 1457.84865 L 469.78015 1435.13176 L 450.93903 1429.00992 Z M 309.98876 1405.92928 L 308.97302 1406.90532 L 307.68191 1407.46871 L 306.27556 1407.54958 L 305.51662 1407.38237 L 283.91157 1400.36247 L 272.26713 1416.38967 L 283.91157 1432.41687 L 305.51662 1425.39697 L 306.91207 1425.20438 L 308.28776 1425.50748 L 309.47305 1426.26869 L 309.98876 1426.85006 L 325.04962 1447.57955 L 325.66401 1448.84718 L 325.80085 1450.2492 L 325.44317 1451.61171 L 325.04962 1452.28183 L 311.69696 1470.66018 L 323.34141 1486.68738 L 342.18253 1480.56554 L 342.18253 1457.84865 L 342.43058 1456.46198 L 343.14395 1455.24729 L 344.23419 1454.35523 L 344.94646 1454.04442 L 366.5515 1447.02452 L 366.5515 1427.2138 L 344.94646 1420.1939 L 344.52502 1419.96848 L 344.08055 1419.79286 L 343.90826 1419.63858 L 343.70431 1419.52949 L 343.38716 1419.17195 L 343.03113 1418.85314 L 342.923 1418.64868 L 342.76952 1418.47566 L 342.59598 1418.03034 L 342.37255 1417.60788 L 342.33331 1417.35634 L 342.25802 1417.16313 L 342.25228 1416.83685 L 342.18253 1416.38967 L 342.18253 1393.67278 L 323.34141 1387.55094 Z M 413.98134 1305.86125 L 413.98134 1328.57814 L 413.73329 1329.96481 L 413.01992 1331.1795 L 411.92968 1332.07156 L 411.21741 1332.38237 L 386.84843 1340.30033 L 385.45298 1340.49292 L 384.07729 1340.18982 L 382.892 1339.42861 L 382.37629 1338.84724 L 369.02364 1320.4689 L 350.18253 1326.59074 L 350.18253 1346.40146 L 371.78757 1353.42136 L 373.02972 1354.08577 L 373.96451 1355.1396 L 374.47601 1356.45213 L 374.5515 1357.22559 L 374.5515 1382.84865 L 374.30345 1384.23532 L 373.59008 1385.45001 L 372.49984 1386.34207 L 371.78757 1386.65288 L 350.18253 1393.67278 L 350.18253 1413.4835 L 369.02364 1419.60534 L 382.37629 1401.227 L 383.39203 1400.25096 L 384.68314 1399.68757 L 386.08949 1399.6067 L 386.84843 1399.77391 L 411.21741 1407.69187 L 412.45956 1408.35628 L 413.39435 1409.41011 L 413.90585 1410.72264 L 413.98134 1411.4961 L 413.98134 1434.21299 L 432.82245 1440.33483 L 444.4669 1424.30763 L 431.11424 1405.92928 L 430.49985 1404.66165 L 430.36301 1403.25963 L 430.72069 1401.89712 L 431.11424 1401.227 L 446.1751 1380.49751 L 447.19084 1379.52147 L 448.48195 1378.95808 L 449.8883 1378.87721 L 450.64724 1379.04442 L 472.25229 1386.06432 L 483.89673 1370.03712 L 472.25229 1354.00992 L 450.64724 1361.02982 L 449.25179 1361.22241 L 447.8761 1360.91931 L 446.69081 1360.1581 L 446.1751 1359.57673 L 431.11424 1338.84724 L 430.49985 1337.57961 L 430.36301 1336.17759 L 430.72069 1334.81508 L 431.11424 1334.14496 L 444.4669 1315.76661 L 432.82245 1299.73941 Z M 516.44605 1338.84724 L 515.43031 1339.82328 L 514.1392 1340.38667 L 512.73285 1340.46754 L 511.97391 1340.30033 L 490.36886 1333.28043 L 478.72442 1349.30763 L 492.07707 1367.68598 L 492.28551 1368.11604 L 492.54188 1368.51939 L 492.59059 1368.74549 L 492.69146 1368.95362 L 492.73788 1369.42927 L 492.83853 1369.89648 L 492.80583 1370.12545 L 492.8283 1370.35563 L 492.70695 1370.81788 L 492.63939 1371.29101 L 492.52327 1371.5176 L 492.47062 1371.71815 L 492.28349 1371.98547 L 492.07707 1372.38826 L 478.72442 1390.76661 L 490.36886 1406.79381 L 511.97391 1399.77391 L 513.36936 1399.58132 L 514.74505 1399.88442 L 515.93034 1400.64563 L 516.44605 1401.227 L 529.7987 1419.60534 L 548.63981 1413.4835 L 548.63981 1393.67278 L 527.03477 1386.65288 L 525.79262 1385.98847 L 524.85783 1384.93464 L 524.34633 1383.62211 L 524.27084 1382.84865 L 524.27084 1357.22559 L 524.51889 1355.83892 L 525.23226 1354.62423 L 526.3225 1353.73217 L 527.03477 1353.42136 L 548.63981 1346.40146 L 548.63981 1326.59074 L 529.7987 1320.4689 Z M 311.69696 1269.41406 L 325.04962 1287.79242 L 325.66401 1289.06006 L 325.80085 1290.46207 L 325.44317 1291.82458 L 325.04962 1292.4947 L 309.98876 1313.22419 L 308.97302 1314.20023 L 307.68191 1314.76362 L 306.27556 1314.84449 L 305.51662 1314.67728 L 283.91157 1307.65737 L 272.26713 1323.68457 L 283.91157 1339.71177 L 305.51662 1332.69187 L 306.91207 1332.49928 L 308.28776 1332.80238 L 309.47305 1333.56359 L 309.98876 1334.14496 L 323.34141 1352.5233 L 342.18253 1346.40146 L 342.18253 1323.68457 L 342.26669 1323.2141 L 342.29636 1322.73711 L 342.38986 1322.52556 L 342.43058 1322.2979 L 342.67261 1321.88578 L 342.8658 1321.44866 L 343.02682 1321.28266 L 343.14395 1321.08321 L 343.51385 1320.78055 L 343.84659 1320.43751 L 344.07372 1320.32245 L 344.23419 1320.19115 L 344.54269 1320.08488 L 344.94646 1319.88034 L 366.5515 1312.86044 L 366.5515 1293.04973 L 344.94646 1286.02982 L 343.70431 1285.3654 L 342.76952 1284.31158 L 342.25802 1282.99905 L 342.18253 1282.22559 L 342.18253 1259.50871 L 323.34141 1253.38686 Z M 399.86475 1240.76661 L 413.21741 1259.14496 L 413.8318 1260.41259 L 413.96864 1261.81461 L 413.61096 1263.17712 L 413.21741 1263.84724 L 399.86475 1282.22559 L 411.5092 1298.25279 L 433.11424 1291.23289 L 433.58766 1291.16755 L 434.0505 1291.04837 L 434.28059 1291.07192 L 434.50969 1291.0403 L 434.97641 1291.14313 L 435.45186 1291.19179 L 435.6595 1291.29363 L 435.88538 1291.3434 L 436.28751 1291.60165 L 436.7166 1291.81211 L 436.89622 1291.99258 L 437.07067 1292.10461 L 437.26706 1292.36516 L 437.58638 1292.68598 L 450.93903 1311.06432 L 469.78015 1304.94248 L 469.78015 1282.22559 L 470.0282 1280.83892 L 470.74157 1279.62423 L 471.83181 1278.73217 L 472.54408 1278.42136 L 494.14912 1271.40146 L 494.14912 1251.59074 L 475.30801 1245.4689 L 461.95536 1263.84724 L 460.93962 1264.82328 L 459.64851 1265.38667 L 458.24216 1265.46754 L 457.48322 1265.30033 L 433.11424 1257.38237 L 431.87209 1256.71796 L 430.9373 1255.66413 L 430.4258 1254.3516 L 430.35031 1253.57814 L 430.35031 1230.86125 L 411.5092 1224.73941 Z" stroke-miterlimit="10"/><path fill="#222222" stroke="#cccccc" paint-order="fill stroke markers" d=" M 811.617 1219.18196 L 844.63495 1229.91014 L 845.8771 1230.57455 L 846.81189 1231.62838 L 847.32339 1232.94091 L 847.39888 1233.71437 L 847.39888 1267.13182 L 867.04116 1294.16711 L 867.65555 1295.43475 L 867.79239 1296.83676 L 867.43471 1298.19928 L 867.04116 1298.86939 L 853.87102 1316.99653 L 875.18076 1310.07258 L 876.57621 1309.87999 L 877.9519 1310.18309 L 879.13719 1310.9443 L 879.6529 1311.52567 L 899.29517 1338.56094 L 931.07706 1348.88751 L 932.31921 1349.55192 L 933.254 1350.60575 L 933.7655 1351.91828 L 933.84099 1352.69174 L 933.84099 1387.40886 L 933.59294 1388.79553 L 932.87957 1390.01022 L 931.78933 1390.90228 L 931.07706 1391.21309 L 899.29517 1401.53966 L 879.6529 1428.57493 L 878.63716 1429.55097 L 877.34605 1430.11436 L 875.9397 1430.19523 L 875.18076 1430.02802 L 853.87102 1423.10407 L 867.04116 1441.23121 L 867.65555 1442.49885 L 867.79239 1443.90086 L 867.43471 1445.26337 L 867.04116 1445.93349 L 847.39888 1472.96878 L 847.39888 1506.38623 L 847.15083 1507.7729 L 846.43746 1508.98759 L 845.34722 1509.87965 L 844.63495 1510.19046 L 811.617 1520.91864 L 810.22155 1521.11123 L 808.84586 1520.80813 L 807.66057 1520.04692 L 807.14486 1519.46555 L 787.50258 1492.43027 L 755.72069 1482.10371 L 754.47854 1481.4393 L 753.54375 1480.38547 L 753.03225 1479.07294 L 752.95676 1478.29948 L 752.95676 1455.89309 L 739.78662 1474.02024 L 738.77088 1474.99628 L 737.47977 1475.55967 L 736.07342 1475.64054 L 735.31448 1475.47333 L 703.5326 1465.14677 L 671.75072 1475.47333 L 670.35527 1475.66592 L 668.97958 1475.36282 L 667.79429 1474.60161 L 667.27858 1474.02024 L 646.87236 1445.93349 L 646.25797 1444.66585 L 646.12113 1443.26384 L 646.47881 1441.90133 L 646.87236 1441.23121 L 666.51465 1414.19593 L 666.51465 1380.77848 L 666.7627 1379.39181 L 667.47607 1378.17712 L 668.56631 1377.28506 L 669.27858 1376.97425 L 690.58831 1370.0503 L 669.27858 1363.12635 L 668.03643 1362.46194 L 667.10164 1361.40811 L 666.59014 1360.09558 L 666.51465 1359.32212 L 666.51465 1325.90467 L 646.87236 1298.86939 L 646.25797 1297.60176 L 646.12113 1296.19974 L 646.47881 1294.83723 L 646.87236 1294.16711 L 667.27858 1266.08036 L 668.29432 1265.10432 L 669.58543 1264.54093 L 670.99178 1264.46006 L 671.75072 1264.62727 L 703.5326 1274.95383 L 735.31448 1264.62727 L 736.70993 1264.43468 L 738.08562 1264.73778 L 739.27091 1265.49899 L 739.78662 1266.08036 L 752.95676 1284.20751 L 752.95676 1261.80112 L 753.20481 1260.41445 L 753.91818 1259.19976 L 755.00842 1258.3077 L 755.72069 1257.99689 L 787.50258 1247.67033 L 807.14486 1220.63505 L 808.1606 1219.65901 L 809.45171 1219.09562 L 810.85806 1219.01475 Z M 794.91898 1489.02766 L 811.90879 1512.41212 L 839.39888 1503.48006 L 839.39888 1474.57527 L 811.90879 1465.64321 Z M 760.95676 1446.48852 L 760.95676 1475.39331 L 788.44685 1484.32537 L 805.43666 1460.94092 L 788.44685 1437.55646 Z M 655.0527 1443.58235 L 672.04251 1466.96681 L 699.5326 1458.03475 L 699.5326 1429.12996 L 672.04251 1420.1979 Z M 707.5326 1429.12996 L 707.5326 1458.03475 L 735.02269 1466.96681 L 752.01249 1443.58235 L 735.02269 1420.1979 Z M 814.38093 1429.12996 L 814.38093 1458.03475 L 841.87102 1466.96681 L 858.86082 1443.58235 L 841.87102 1420.1979 Z M 793.97471 1431.55449 L 806.38093 1448.63018 L 806.38093 1427.52347 L 793.97471 1410.44778 Z M 741.49482 1415.49561 L 758.48462 1438.88006 L 785.97471 1429.948 L 785.97471 1401.04322 L 758.48462 1392.11115 Z M 794.91898 1398.13705 L 811.90879 1421.5215 L 839.39888 1412.58944 L 839.39888 1383.68465 L 811.90879 1374.75259 Z M 847.39888 1383.68465 L 847.39888 1412.58944 L 874.88897 1421.5215 L 891.87877 1398.13705 L 874.88897 1374.75259 Z M 674.51465 1383.68465 L 674.51465 1412.58944 L 702.00474 1421.5215 L 718.99454 1398.13705 L 702.00474 1374.75259 Z M 726.41094 1401.53966 L 714.00474 1418.61533 L 734.07842 1412.093 L 746.48462 1395.01732 Z M 708.47687 1370.0503 L 725.46667 1393.43476 L 752.95676 1384.50269 L 752.95676 1355.59791 L 725.46667 1346.66584 Z M 760.95676 1355.59791 L 760.95676 1384.50269 L 788.44685 1393.43476 L 805.43666 1370.0503 L 788.44685 1346.66584 Z M 881.3611 1370.0503 L 898.3509 1393.43476 L 925.84099 1384.50269 L 925.84099 1355.59791 L 898.3509 1346.66584 Z M 823.32522 1370.0503 L 843.39888 1376.57263 L 863.47254 1370.0503 L 843.39888 1363.52797 Z M 674.51465 1327.51116 L 674.51465 1356.41595 L 702.00474 1365.34801 L 718.99454 1341.96355 L 702.00474 1318.5791 Z M 794.91898 1341.96355 L 811.90879 1365.34801 L 839.39888 1356.41595 L 839.39888 1327.51116 L 811.90879 1318.5791 Z M 847.39888 1327.51116 L 847.39888 1356.41595 L 874.88897 1365.34801 L 891.87877 1341.96355 L 874.88897 1318.5791 Z M 741.49482 1324.60499 L 758.48462 1347.98945 L 785.97471 1339.05738 L 785.97471 1310.1526 L 758.48462 1301.22054 Z M 726.41094 1338.56094 L 746.48462 1345.08328 L 734.07842 1328.0076 L 714.00474 1321.48527 Z M 793.97471 1308.54611 L 793.97471 1329.65282 L 806.38093 1312.57713 L 806.38093 1291.47042 Z M 655.0527 1296.51825 L 672.04251 1319.9027 L 699.5326 1310.97064 L 699.5326 1282.06585 L 672.04251 1273.13379 Z M 707.5326 1282.06585 L 707.5326 1310.97064 L 735.02269 1319.9027 L 752.01249 1296.51825 L 735.02269 1273.13379 Z M 814.38093 1282.06585 L 814.38093 1310.97064 L 841.87102 1319.9027 L 858.86082 1296.51825 L 841.87102 1273.13379 Z M 760.95676 1264.70729 L 760.95676 1293.61208 L 788.44685 1302.54414 L 805.43666 1279.15968 L 788.44685 1255.77523 Z M 794.91898 1251.07294 L 811.90879 1274.45739 L 839.39888 1265.52533 L 839.39888 1236.62054 L 811.90879 1227.68848 Z" stroke-miterlimit="10"/></g></svg>