<svg version="1.1" xmlns="http://www.w3.org/2000/svg" xmlns:xlink="http://www.w3.org/1999/xlink" width="900" height="900"><defs/><g><rect fill="#000000" stroke="none" x="0" y="0" width="900" height="900"/><path fill="#333333" stroke="#999999" paint-order="fill stroke markers" d=" M 479.1497350000001 203.20432 L 507.681425 212.47483 L 508.040875 212.78183 L 508.47760500000004 212.96273 L 508.6007350000001 213.25999 L 508.845405 213.46896 L 508.88249500000006 213.94021 L 509.063395 214.37694 L 509.063395 250.0059 L 519.770295 253.48478 L 523.078915 248.93086 L 540.712475 224.66035 L 541.115525 224.41336 L 541.4225250000001 224.05391 L 541.743285 224.02867 L 542.017645 223.86054 L 542.477305 223.9709 L 542.9485450000001 223.93381 L 571.480235 233.20432 L 600.011935 242.47483 L 600.483335 242.87744 L 601.011935 243.20137 L 618.6454950000001 267.47188 L 636.279045 291.74239 L 636.389395 292.20203 L 636.636395 292.60509 L 636.561285 292.91796 L 636.636395 293.23083 L 636.389405 293.63387 L 636.279045 294.09353 L 618.6454950000001 318.36404 L 615.3368750000001 322.91796 L 621.954105 332.0258 L 627.3075650000001 330.28636 L 655.8392550000001 321.01585 L 656.310505 321.05294 L 656.770165 320.94258 L 657.044515 321.11071 L 657.365275 321.13595 L 657.672265 321.49539 L 658.075325 321.74239 L 693.342445 370.28341 L 693.4871750000001 370.88626 L 693.724405 371.45898 L 693.724405 431.45898 L 693.5435050000001 431.89571 L 693.5064150000001 432.36696 L 693.261745 432.57593 L 693.1386150000001 432.87319 L 692.701895 433.05408 L 692.342445 433.36109 L 658.457295 444.37104 L 658.457295 455.62896 L 692.342445 466.63891 L 692.701895 466.94592 L 693.1386150000001 467.12681 L 693.261745 467.42407 L 693.5064150000001 467.63304 L 693.5435050000001 468.10429 L 693.724405 468.54102 L 693.724405 528.54102 L 693.4871750000001 529.11374 L 693.342445 529.71659 L 658.075325 578.25761 L 657.672275 578.5046 L 657.365275 578.86405 L 657.044515 578.88929 L 656.770165 579.05742 L 656.310505 578.94706 L 655.8392550000001 578.98415 L 627.3075650000001 569.71364 L 621.954105 567.9742 L 615.3368750000001 577.08204 L 618.6454950000001 581.63596 L 636.279045 605.90647 L 636.389395 606.36611 L 636.636395 606.76917 L 636.561285 607.08204 L 636.636395 607.39491 L 636.389395 607.79797 L 636.279045 608.25761 L 618.6454950000001 632.52812 L 601.011935 656.79863 L 600.483335 657.12256 L 600.011935 657.52517 L 571.480235 666.79568 L 542.9485450000001 676.06619 L 542.477305 676.0291 L 542.017645 676.13946 L 541.743285 675.97133 L 541.4225250000001 675.94609 L 541.115525 675.58664 L 540.712475 675.33965 L 523.078915 651.06914 L 519.770295 646.51522 L 509.063395 649.9941 L 509.063395 685.62306 L 508.88249500000006 686.05979 L 508.845405 686.53104 L 508.6007350000001 686.74001 L 508.47760500000004 687.03727 L 508.040875 687.21817 L 507.681425 687.52517 L 479.1497350000001 696.79568 L 450.6180350000001 706.06619 L 450.000005 706.01755 L 449.38196500000004 706.06619 L 420.850275 696.79568 L 392.318575 687.52517 L 391.9591250000001 687.21817 L 391.5223950000001 687.03727 L 391.399265 686.74001 L 391.1545950000001 686.53104 L 391.11750500000005 686.05977 L 390.9366150000001 685.62306 L 390.9366150000001 649.9941 L 380.2297050000001 646.51522 L 376.92108500000006 651.06914 L 359.28753500000005 675.33965 L 358.8844650000001 675.58665 L 358.57747500000005 675.94609 L 358.2567250000001 675.97133 L 357.9823650000001 676.13946 L 357.5227050000001 676.0291 L 357.051465 676.06619 L 328.519765 666.79568 L 299.98807500000004 657.52517 L 299.51668500000005 657.12256 L 298.98807500000004 656.79863 L 263.72095500000006 608.25761 L 263.610605 607.79795 L 263.36361500000004 607.39491 L 263.43872500000003 607.08204 L 263.36361500000004 606.76917 L 263.610605 606.36613 L 263.72095500000006 605.90647 L 284.66313500000007 577.08204 L 278.04589500000003 567.9742 L 272.692445 569.71364 L 244.16074500000002 578.98415 L 243.68950500000005 578.94706 L 243.22984500000007 579.05742 L 242.95549500000004 578.88929 L 242.63473500000003 578.86405 L 242.32773500000002 578.5046 L 241.92468500000007 578.25761 L 206.65756500000003 529.71659 L 206.51284500000003 529.11379 L 206.27559500000007 528.54102 L 206.27559500000007 468.54102 L 206.45649500000002 468.10429 L 206.49358500000005 467.63304 L 206.73825500000004 467.42407 L 206.86138500000004 467.12681 L 207.29811500000005 466.94591 L 207.65756500000003 466.63891 L 236.18926500000003 457.3684 L 241.54271500000004 455.62896 L 241.54271500000004 444.37104 L 236.18926500000003 442.6316 L 207.65756500000003 433.36109 L 207.29811500000005 433.05409 L 207.29809500000005 433.05408 L 206.86138500000004 432.87319 L 206.73825500000004 432.57593 L 206.49358500000005 432.36696 L 206.45649500000002 431.89571 L 206.27559500000007 431.45898 L 206.27559500000007 371.45898 L 206.51284500000003 370.88621 L 206.65756500000003 370.28341 L 241.92468500000007 321.74239 L 242.32774500000005 321.49539 L 242.63473500000003 321.13595 L 242.95550500000002 321.1107 L 243.22984500000007 320.94258 L 243.68951500000003 321.05294 L 244.16074500000002 321.01585 L 272.692445 330.28636 L 278.04589500000003 332.0258 L 284.66313500000007 322.91796 L 263.72095500000006 294.09353 L 263.610605 293.63387 L 263.36361500000004 293.23083 L 263.43872500000003 292.91796 L 263.36361500000004 292.60509 L 263.610605 292.20205 L 263.72095500000006 291.74239 L 298.98807500000004 243.20137 L 299.51668500000005 242.87744 L 299.98807500000004 242.47483 L 328.519765 233.20432 L 357.051465 223.93381 L 357.5227050000001 223.9709 L 357.9823650000001 223.86054 L 358.2567250000001 224.02867 L 358.57747500000005 224.05391 L 358.8844650000001 224.41335 L 359.28753500000005 224.66035 L 376.92108500000006 248.93086 L 380.2297050000001 253.48478 L 390.9366150000001 250.00589 L 390.9366150000001 214.37694 L 391.11750500000005 213.94023 L 391.1545950000001 213.46896 L 391.399265 213.25999 L 391.5223950000001 212.96273 L 391.9591250000001 212.78183 L 392.318575 212.47483 L 420.850275 203.20432 L 449.38196500000004 193.93381 L 450.000005 193.98245 L 450.6180350000001 193.93381 Z M 416.3509250000001 656.79863 L 415.947855 657.04563 L 415.6408650000001 657.40507 L 415.320115 657.43031 L 415.0457550000001 657.59844 L 414.586095 657.48808 L 414.11485500000003 657.52517 L 394.9366150000001 651.29378 L 394.9366150000001 684.16998 L 450.000005 702.06116 L 505.063395 684.16998 L 505.063395 651.29378 L 485.88515500000005 657.52517 L 485.413905 657.48808 L 484.954245 657.59844 L 484.679895 657.43031 L 484.35913500000004 657.40507 L 484.052145 657.04563 L 483.649085 656.79863 L 450.000005 610.48465 Z M 301.22413500000005 597.52517 L 300.752895 597.48808 L 300.29323500000004 597.59844 L 300.01888500000007 597.43031 L 299.69812500000006 597.40507 L 299.39112500000005 597.04562 L 298.98807500000004 596.79863 L 287.13526500000006 580.48464 L 267.81112500000006 607.08204 L 301.84217500000005 653.92176 L 356.905565 671.81294 L 376.2297050000001 645.21554 L 357.051465 638.98415 L 356.6920150000001 638.67715 L 356.2552850000001 638.49625 L 356.132155 638.19899 L 355.8874850000001 637.99002 L 355.85039500000005 637.51877 L 355.6694950000001 637.08204 L 355.6694950000001 579.8348 Z M 544.330505 637.08204 L 544.149615 637.51875 L 544.112525 637.99002 L 543.8678550000001 638.19899 L 543.744725 638.49625 L 543.307995 638.67715 L 542.9485450000001 638.98415 L 523.770295 645.21554 L 543.0944450000001 671.81294 L 598.157825 653.92176 L 632.188885 607.08204 L 612.864735 580.48464 L 601.011935 596.79863 L 600.6088850000001 597.04562 L 600.3018850000001 597.40507 L 599.981125 597.43031 L 599.706765 597.59844 L 599.247105 597.48808 L 598.7758650000001 597.52517 L 544.330505 579.8348 Z M 399.4087350000001 625.62306 L 394.9366150000001 627.07614 L 394.9366150000001 647.08794 L 413.96895500000005 653.27192 L 430.748415 630.17698 L 444.76393500000006 610.88626 Z M 486.03105500000004 653.27192 L 505.063395 647.08794 L 505.063395 627.07614 L 455.23606500000005 610.88626 Z M 509.063395 645.78826 L 513.180775 644.45044 L 517.298165 643.11262 L 509.063395 631.77842 Z M 382.7018350000001 643.11262 L 390.9366150000001 645.78826 L 390.9366150000001 631.77842 Z M 359.6694950000001 635.62896 L 378.7018350000001 641.81294 L 390.464475 625.62306 L 379.757565 610.88626 L 359.6694950000001 583.2374 Z M 509.535525 625.62306 L 521.298165 641.81294 L 540.330505 635.62896 L 540.330505 583.23742 Z M 453.23606500000005 606.03058 L 506.29946500000005 623.27192 L 523.078915 600.17698 L 539.0944450000001 578.1335 L 513.180775 569.71364 L 486.03105500000004 560.89216 Z M 376.92108500000006 553.9871 L 360.14163500000006 577.08204 L 376.92108500000006 600.17698 L 393.70054500000003 623.27192 L 448.000005 605.62896 L 448.000005 548.53512 L 393.70054500000003 530.89216 Z M 452.000005 548.53512 L 452.000005 600.92667 L 482.794985 558.54102 L 471.0323450000001 542.35114 Z M 571.4802450000001 569.71364 L 548.802635 577.08204 L 571.480235 584.45044 L 598.6299650000001 593.27192 L 610.392605 577.08204 L 598.6299650000001 560.89216 Z M 289.607405 577.08204 L 301.37003500000003 593.27192 L 351.1973750000001 577.08204 L 301.37003500000003 560.89216 Z M 210.27559500000007 469.9941 L 210.27559500000007 527.89117 L 244.30664500000006 574.7309 L 275.57376500000004 564.5716 L 263.72095500000006 548.25761 L 263.610605 547.79795 L 263.36361500000004 547.39491 L 263.43872500000003 547.08204 L 263.36361500000004 546.76917 L 263.610605 546.36613 L 263.72095500000006 545.90647 L 297.37004500000006 499.59248 L 242.92468500000007 481.90211 L 242.56523500000003 481.59511 L 242.12850500000002 481.41421 L 242.00537500000007 481.11695 L 241.76070500000003 480.90798 L 241.72361500000005 480.43672 L 241.54271500000004 480 L 241.54271500000004 459.8348 Z M 658.457295 480 L 658.2763950000001 480.43672 L 658.2393050000001 480.90798 L 657.994635 481.11695 L 657.8715050000001 481.41421 L 657.4347750000001 481.59511 L 657.075325 481.90211 L 602.6299650000001 499.59248 L 636.279045 545.90647 L 636.389395 546.36611 L 636.636395 546.76917 L 636.561285 547.08204 L 636.636395 547.39491 L 636.389395 547.79797 L 636.279045 548.25761 L 624.426245 564.5716 L 655.693355 574.7309 L 689.724405 527.89119 L 689.724405 469.9941 L 658.457295 459.8348 Z M 509.7628450000001 528.22815 L 509.535525 528.54102 L 509.951635 529.11374 L 510.389625 529.71659 L 543.0944450000001 574.7309 L 597.393905 557.08794 L 597.393905 499.9941 L 543.0944450000001 482.35114 Z M 302.60610500000007 557.08794 L 355.6694950000001 574.32928 L 355.6694950000001 518.53512 L 328.519765 509.71364 L 302.60610500000007 501.29378 Z M 612.8647450000001 573.67944 L 617.954115 566.67452 L 604.6299650000001 562.34524 Z M 282.04589500000003 566.67452 L 284.59058500000003 570.17698 L 287.13526500000006 573.67944 L 295.37004500000006 562.34524 Z M 487.267115 537.07614 L 487.267115 557.08794 L 537.094455 573.27782 L 506.29946500000005 530.89216 Z M 359.6694950000001 518.53512 L 359.6694950000001 570.92668 L 390.464475 528.54102 L 389.40875500000004 527.08794 L 385.44765500000005 521.6359600000001 L 378.7018350000001 512.35114 Z M 601.393905 557.08794 L 620.426245 563.27192 L 632.188885 547.08204 L 601.393905 504.69639 Z M 267.81112500000006 547.08204 L 279.57376500000004 563.27192 L 298.60610500000007 557.08794 L 298.60610500000007 504.69639 Z M 475.0323450000001 541.05146 L 483.267115 552.38565 L 483.267115 538.37582 Z M 431.43978500000003 518.1335 L 433.9844750000001 521.6359600000001 L 450.76393500000006 544.7309 L 468.5602150000001 538.94854 L 449.23606500000005 512.35114 Z M 399.40874500000007 528.54102 L 444.76393500000006 543.27782 L 427.439795 519.43318 Z M 451.6180350000001 391.17557 L 451.2149750000001 391.42257 L 450.90798500000005 391.78201 L 450.587225 391.80725 L 450.3128750000001 391.97538 L 449.8532150000001 391.86502 L 449.38196500000004 391.90211 L 428.96765500000004 385.2691 L 416.3509250000001 402.63455 L 415.947855 402.88155 L 415.6408650000001 403.24099 L 415.320115 403.26623 L 415.0457550000001 403.43436 L 414.586095 403.324 L 414.11485500000003 403.36109 L 385.58315500000003 394.09058 L 380.2297050000001 392.35114 L 376.92108500000006 396.90506 L 373.612475 401.45898 L 376.92108500000006 406.0129 L 394.55464500000005 430.28341 L 394.6649950000001 430.74306 L 394.9119850000001 431.14611 L 394.8368750000001 431.45898 L 394.9119850000001 431.77185 L 394.6649950000001 432.1749 L 394.55464500000005 432.63455 L 381.937905 450 L 394.55464500000005 467.36545 L 394.6649950000001 467.8251 L 394.9119850000001 468.22815 L 394.8368750000001 468.54102 L 394.9119850000001 468.85389 L 394.6649950000001 469.25694 L 394.55464500000005 469.71659 L 376.92108500000006 493.9871 L 373.612475 498.54102 L 376.92108500000006 503.09494 L 380.2297050000001 507.64886 L 385.58315500000003 505.90942 L 414.11485500000003 496.63891 L 414.586095 496.676 L 415.0457550000001 496.56564 L 415.320115 496.73377 L 415.6408650000001 496.75901 L 415.947855 497.11845 L 416.3509250000001 497.36545 L 428.96765500000004 514.7309 L 449.38196500000004 508.09789 L 449.8532150000001 508.13498 L 450.3128750000001 508.02462 L 450.587225 508.19275 L 450.90798500000005 508.21799 L 451.2149750000001 508.57743 L 451.6180350000001 508.82443 L 472.5602150000001 537.64886 L 483.267115 534.16998 L 483.267115 498.54102 L 483.44801500000005 498.10429 L 483.4851050000001 497.63304 L 483.729775 497.42407 L 483.8529050000001 497.12681 L 484.2896350000001 496.94591 L 484.649085 496.63891 L 505.063395 490.0059 L 505.063395 468.54102 L 505.2442950000001 468.10429 L 505.281385 467.63304 L 505.52605500000004 467.42407 L 505.649185 467.12681 L 506.085915 466.94591 L 506.44536500000004 466.63891 L 534.9770550000001 457.3684 L 540.330505 455.62896 L 540.330505 444.37104 L 534.9770550000001 442.6316 L 506.44536500000004 433.36109 L 506.085915 433.05409 L 505.649185 432.87319 L 505.52605500000004 432.57593 L 505.281385 432.36696 L 505.2442950000001 431.89571 L 505.063395 431.45898 L 505.063395 409.9941 L 484.649085 403.36109 L 484.2896350000001 403.05409 L 483.8529050000001 402.87319 L 483.729775 402.57593 L 483.4851050000001 402.36696 L 483.44801500000005 401.89571 L 483.267115 401.45898 L 483.267115 365.83002 L 472.5602150000001 362.35114 Z M 487.267115 499.9941 L 487.267115 532.8703 L 505.063395 527.08794 L 505.063395 494.21174 Z M 382.7018350000001 511.05146 L 393.70054500000003 526.18988 L 420.850275 517.3684000000001 L 424.96765500000004 516.03058 L 413.96895500000005 500.89216 Z M 509.063395 492.91206 L 509.063395 522.3856499999999 L 521.915395 504.69639 L 537.0944450000001 483.80422 Z M 307.07823500000006 498.54102 L 356.905565 514.7309 L 368.66820500000006 498.54102 L 368.350905 498.10429 L 360.07553500000006 486.71423 L 356.905565 482.35114 Z M 362.905565 513.27782 L 376.2297050000001 508.94854 L 371.14033500000005 501.94362 Z M 294.96085500000004 412.6316 L 284.59058500000003 426.90506 L 269.51933500000007 447.64886 L 267.81112500000006 450 L 270.95653500000003 454.32928 L 284.59058500000003 473.09494 L 301.37003500000003 496.18988 L 355.6694950000001 478.54692 L 355.6694950000001 421.45308 L 301.37003500000003 403.81012 Z M 566.598915 450 L 599.393895 495.13842 L 632.188885 450 L 599.393905 404.86158 Z M 376.92108500000006 456.90506 L 360.14163500000006 480 L 361.59472500000004 482 L 371.14033500000005 495.13842 L 390.464475 468.54102 L 379.465775 453.4026 Z M 604.6299650000001 494.7368 L 627.3075650000001 487.3684 L 654.457295 478.54692 L 654.457295 458.53512 L 635.4249450000001 452.35114 Z M 245.54271500000004 458.53512 L 245.54271500000004 478.54692 L 272.692445 487.3684 L 295.37005500000004 494.7368 L 283.607405 478.54692 L 264.575055 452.35114 Z M 544.330505 458.53512 L 544.330505 478.54692 L 582.7224950000001 491.02123 L 583.188425 491.17262 L 594.1578350000001 494.7368 L 563.362845 452.35114 Z M 509.063395 469.9941 L 509.063395 488.70622 L 513.180775 487.3684 L 540.330505 478.54692 L 540.330505 459.8348 Z M 359.6694950000001 473.84464 L 376.99363500000004 450 L 359.6694950000001 426.15536 Z M 641.133145 450 L 654.457295 454.32928 L 654.457295 445.67072 Z M 245.54271500000004 454.32928 L 258.866865 450 L 245.54271500000004 445.67072 Z M 544.330505 454.32928 L 557.654655 450 L 544.330505 445.67072 Z M 635.4249550000001 447.64886 L 654.457295 441.46488 L 654.457295 421.45308 L 604.6299650000001 405.2632 Z M 272.692445 412.6316 L 245.54271500000004 421.45308 L 245.54271500000004 441.46488 L 264.575055 447.64886 L 274.95573500000006 433.36109 L 295.37004500000006 405.2632 Z M 544.330505 421.45308 L 544.330505 441.46488 L 563.3628550000001 447.64886 L 594.1578350000001 405.2632 Z M 361.30055500000003 418.40489 L 360.14163500000006 420 L 376.92108500000006 443.09494 L 379.465775 446.5974 L 390.464475 431.45898 L 371.14033500000005 404.86158 Z M 624.426245 335.4284 L 636.279045 351.74239 L 636.389395 352.20203 L 636.636395 352.60509 L 636.561285 352.91796 L 636.636395 353.23083 L 636.389405 353.63387 L 636.279045 354.09353 L 602.6299650000001 400.40752 L 657.075325 418.09789 L 657.4347750000001 418.40489 L 657.8715050000001 418.58579 L 657.994635 418.88305 L 658.2393050000001 419.09202 L 658.2763950000001 419.56327 L 658.457295 420 L 658.457295 440.1652 L 689.724405 430.0059 L 689.724405 372.10881 L 655.693355 325.2691 Z M 210.27559500000007 372.10883 L 210.27559500000007 430.0059 L 241.54271500000004 440.1652 L 241.54271500000004 420 L 241.72361500000005 419.56327 L 241.76070500000003 419.09202 L 242.00537500000007 418.88305 L 242.12850500000002 418.58579 L 242.56523500000003 418.40489 L 242.92468500000007 418.09789 L 280.11845500000004 406.0129 L 297.37004500000006 400.40752 L 263.72095500000006 354.09353 L 263.610605 353.63387 L 263.36361500000004 353.23083 L 263.43872500000003 352.91796 L 263.36361500000004 352.60509 L 263.610605 352.20205 L 263.72095500000006 351.74239 L 275.57376500000004 335.4284 L 244.30664500000006 325.2691 Z M 509.063395 430.0059 L 540.330505 440.1652 L 540.330505 421.45308 L 513.180775 412.6316 L 509.063395 411.29378 Z M 532.490725 339.86387 L 511.243735 369.10784 L 509.535525 371.45898 L 516.805235 381.46488 L 543.0944450000001 417.64886 L 597.393905 400.0059 L 597.393905 342.91206 L 543.0944450000001 325.2691 Z M 307.0782250000001 401.45898 L 313.157825 403.43436 L 314.314295 403.81012 L 356.905565 417.64886 L 368.66820500000006 401.45898 L 356.905565 385.2691 Z M 509.063395 407.08794 L 537.0944450000001 416.19578 L 523.078915 396.90506 L 509.063395 377.61434 Z M 487.267115 400.0059 L 505.063395 405.78826 L 505.063395 372.91206 L 487.267115 367.1297 Z M 382.7018350000001 388.94854 L 413.96895500000005 399.10784 L 424.967665 383.96942 L 420.850275 382.6316 L 393.70054500000003 373.81012 Z M 302.60610500000007 342.91206 L 302.60610500000007 398.70622 L 328.519765 390.28636 L 355.6694950000001 381.46488 L 355.6694950000001 325.67072 Z M 371.14033500000005 398.05638 L 375.698935 391.78201 L 376.2297050000001 391.05146 L 362.905565 386.72218 Z M 267.81112500000006 352.91796 L 284.59058500000003 376.0129 L 298.60610500000007 395.30362 L 298.60610500000007 342.91206 L 279.57376500000004 336.72808 Z M 601.393905 342.91206 L 601.393905 395.30361 L 632.188885 352.91796 L 620.426245 336.72808 Z M 359.6694950000001 381.46488 L 378.70184500000005 387.64886 L 390.464475 371.45898 L 388.7562750000001 369.10784 L 359.6694950000001 329.07332 Z M 433.9844750000001 378.36404 L 431.439795 381.8665 L 449.23606500000005 387.64886 L 468.5602150000001 361.05146 L 450.76393500000006 355.2691 Z M 399.40874500000007 371.45898 L 427.439795 380.56682 L 444.76393500000006 356.72218 Z M 487.267115 342.91207 L 487.267115 362.92386 L 500.211365 367.1297 L 506.29946500000005 369.10784 L 537.0944450000001 326.72218 Z M 376.92108500000006 299.82302 L 361.197365 321.46488 L 360.14163500000006 322.91796 L 361.30055500000003 324.51307 L 361.523595 324.82007 L 376.92108500000006 346.0129 L 393.70054500000003 369.10784 L 448.000005 351.46488 L 448.000005 294.37105 L 420.850275 285.54956000000004 L 393.70054500000003 276.72808 Z M 475.0323450000001 358.94854 L 483.267115 361.62418 L 483.267115 347.61436 Z M 452.000005 351.46488 L 471.0323450000001 357.64886 L 482.794985 341.45898 L 452.000005 299.07334 Z M 289.607405 322.91796 L 301.37003500000003 339.10784 L 351.1973750000001 322.91796 L 328.519765 315.54956 L 301.37003500000003 306.72808 Z M 571.480235 315.54956 L 548.802635 322.91796 L 559.274765 326.32056 L 591.305815 336.72808 L 598.6299650000001 339.10784 L 610.392605 322.91796 L 598.6299650000001 306.72808 Z M 479.1497350000001 285.54956000000004 L 453.23606500000005 293.96942 L 486.03105500000004 339.10784 L 513.180775 330.28636 L 539.0944450000001 321.8665 L 523.078915 299.82302 L 506.29946500000005 276.72808 Z M 604.6299650000001 337.65476 L 617.954115 333.32548 L 612.8647450000001 326.32056 Z M 284.59058500000003 329.82302 L 282.04589500000003 333.32548 L 295.37004500000006 337.65476 L 287.13526500000006 326.32056 Z M 301.84217500000005 246.07824 L 267.81112500000006 292.91796 L 287.13526500000006 319.51536 L 298.98807500000004 303.20137 L 299.391135 302.95437 L 299.69812500000006 302.59493 L 300.01888500000007 302.56969 L 300.29323500000004 302.40156 L 300.752895 302.51192 L 301.22413500000005 302.47483 L 355.6694950000001 320.1652 L 355.6694950000001 262.91796 L 355.85039500000005 262.48123 L 355.8874850000001 262.00998000000004 L 356.132155 261.80101 L 356.2552850000001 261.50374999999997 L 356.6920150000001 261.32285 L 357.051465 261.01585 L 376.2297050000001 254.78446 L 356.905565 228.18706 Z M 523.770295 254.78446 L 542.9485450000001 261.01585 L 543.307995 261.32285 L 543.744725 261.50374999999997 L 543.8678550000001 261.80101 L 544.112525 262.00998000000004 L 544.149615 262.48125 L 544.330505 262.91796 L 544.330505 320.1652 L 598.7758650000001 302.47483 L 599.247105 302.51192 L 599.706765 302.40156 L 599.981125 302.56969 L 600.3018850000001 302.59493 L 600.6088850000001 302.95438 L 601.011935 303.20137 L 612.864735 319.51536 L 632.188885 292.91796 L 598.157825 246.07824 L 543.0944450000001 228.18706 Z M 509.535525 274.37694 L 540.330505 316.76259 L 540.330505 264.37104 L 521.298165 258.18706 Z M 359.6694950000001 264.37104 L 359.6694950000001 316.76259 L 388.7562750000001 276.72808 L 390.464475 274.37694 L 378.7018350000001 258.18706 Z M 394.9366150000001 215.83002 L 394.9366150000001 248.70622 L 414.11485500000003 242.47483 L 414.586095 242.51192 L 415.0457550000001 242.40156 L 415.320115 242.56969 L 415.6408650000001 242.59493 L 415.947855 242.95437 L 416.3509250000001 243.20137 L 449.999995 289.51535 L 483.649085 243.20137 L 484.052145 242.95437 L 484.35913500000004 242.59493 L 484.679895 242.56969 L 484.954245 242.40156 L 485.413905 242.51192 L 485.88515500000005 242.47483 L 505.063395 248.70622 L 505.063395 215.83002 L 450.000005 197.93884 Z M 455.23606500000005 289.11374 L 505.063395 272.92386 L 505.063395 252.91206 L 486.03105500000004 246.72808 Z M 394.9366150000001 252.91206 L 394.9366150000001 272.92386 L 444.76393500000006 289.11374 L 430.748415 269.82302000000004 L 413.96895500000005 246.72808 Z M 509.063395 268.22157000000004 L 517.298165 256.88738 L 513.180775 255.54956 L 509.063395 254.21174 Z M 382.7018350000001 256.88738 L 390.9366150000001 268.22157000000004 L 390.9366150000001 254.21174 Z" stroke-miterlimit="10"/><path fill="none" stroke="#999999" paint-order="fill stroke markers" d=" M 392.23662 629.36187 L 391.30531 629.05927 L 392.23662 627.77743 L 392.23662 629.36187 Z M 508.6947 629.05927 L 507.7634 629.36186 L 507.7634 627.77744 L 508.6947 629.05927 Z M 447.23608 609.69536 L 446.6605 608.90314 L 448.1674 608.41352 L 447.23608 609.69536 Z M 453.33951 608.90313 L 452.76393 609.69535 L 451.83262 608.41352 L 453.33951 608.90313 Z M 451.63132 603.64582 L 450.70001 604.92765 L 450.70001 603.34322 L 451.63132 603.64582 Z M 541.63051 580.82087 L 540.6992 580.51827 L 541.63051 579.23643 L 541.63051 580.82087 Z M 359.30081 580.51825 L 358.3695 580.82085 L 358.3695 579.23641 L 359.30081 580.51825 Z M 546.10264 577.57165 L 544.59577 577.08204 L 546.10264 576.59243 L 546.10264 577.57165 Z M 355.40424 577.08204 L 353.89738 577.57165 L 353.89738 576.59243 L 355.40424 577.08204 Z M 540.49789 575.75056 L 538.99102 575.26095 L 539.56659 574.46874 L 540.49789 575.75056 Z M 359.30081 573.64583 L 358.3695 574.92767 L 358.3695 573.34323 L 359.30081 573.64583 Z M 602.73341 560.36212 L 602.15783 561.15433 L 601.22653 559.87251 L 602.73341 560.36212 Z M 297.84218 561.15433 L 297.26661 560.36212 L 298.77347 559.87251 L 297.84218 561.15433 Z M 484.56712 556.38664 L 483.63581 555.1048 L 484.56712 554.8022 L 484.56712 556.38664 Z M 448.16738 545.75056 L 446.6605 545.26094 L 447.23608 544.46873 L 448.16738 545.75056 Z M 396.70875 529.03064 L 395.20187 528.54102 L 396.70875 528.0514 L 396.70875 529.03064 Z M 508.69471 525.1048 L 507.7634 526.38664 L 507.7634 524.8022 L 508.69471 525.1048 Z M 361.00901 515.26094 L 359.50214 515.75055 L 360.43343 514.46873 L 361.00901 515.26094 Z M 299.90611 502.27984 L 298.9748 501.97724 L 299.90611 500.69541 L 299.90611 502.27984 Z M 601.02521 501.97724 L 600.09391 502.27984 L 600.09391 500.69541 L 601.02521 501.97724 Z M 304.37824 499.03063 L 302.87136 498.54102 L 304.37824 498.0514 L 304.37824 499.03063 Z M 298.77348 497.20954 L 297.26662 496.71993 L 297.84219 495.92772 L 298.77348 497.20954 Z M 597.56127 497.20954 L 596.0544 496.71992 L 596.62997 495.92771 L 597.56127 497.20954 Z M 602.73341 496.71993 L 601.22652 497.20954 L 602.15783 495.92771 L 602.73341 496.71993 Z M 539.56659 482.61331 L 538.99101 481.82109 L 540.49789 481.33148 L 539.56659 482.61331 Z M 359.3008 476.56379 L 358.3695 477.84562 L 358.3695 476.26119 L 359.3008 476.56379 Z M 263.07374 450 L 261.56687 450.48961 L 261.56687 449.51039 L 263.07374 450 Z M 561.86154 450 L 560.35466 450.48961 L 560.35466 449.51039 L 561.86154 450 Z M 638.43315 450.48961 L 636.92627 450 L 638.43315 449.51039 L 638.43315 450.48961 Z M 359.30081 423.43621 L 358.3695 423.73881 L 358.3695 422.15437 L 359.30081 423.43621 Z M 540.49789 418.66852 L 538.99101 418.17891 L 539.56659 417.38669 L 540.49789 418.66852 Z M 596.62998 404.07229 L 596.0544 403.28008 L 597.56129 402.79046 L 596.62998 404.07229 Z M 602.73341 403.28007 L 602.15784 404.07229 L 601.22653 402.79046 L 602.73341 403.28007 Z M 297.84218 404.07228 L 297.26661 403.28007 L 298.77348 402.79046 L 297.84218 404.07228 Z M 304.37823 401.94859 L 302.87136 401.45898 L 304.37823 400.96937 L 304.37823 401.94859 Z M 299.90611 399.30459 L 298.97481 398.02277 L 299.90611 397.72017 L 299.90611 399.30459 Z M 601.02521 398.02276 L 600.09391 399.30459 L 600.09391 397.72016 L 601.02521 398.02276 Z M 361.00901 384.73906 L 360.43343 385.53127 L 359.50214 384.24945 L 361.00901 384.73906 Z M 508.6947 374.89519 L 507.7634 375.19779 L 507.7634 373.61336 L 508.6947 374.89519 Z M 396.70875 371.9486 L 395.20187 371.45898 L 396.70875 370.96936 L 396.70875 371.9486 Z M 447.23608 355.53127 L 446.6605 354.73906 L 448.16738 354.24944 L 447.23608 355.53127 Z M 484.56712 345.19781 L 483.6358 344.89521 L 484.56712 343.61336 L 484.56712 345.19781 Z M 602.73341 339.63788 L 601.22653 340.12749 L 602.15783 338.84567 L 602.73341 339.63788 Z M 298.77347 340.12749 L 297.26661 339.63788 L 297.84218 338.84567 L 298.77347 340.12749 Z M 359.11619 326.10005 L 359.30081 326.35417 L 358.3695 326.65676 L 358.3695 325.07233 L 359.11619 326.10005 Z M 539.56659 325.53127 L 538.99101 324.73905 L 540.49789 324.24944 L 539.56659 325.53127 Z M 355.40424 322.91796 L 353.89738 323.40757 L 353.89738 322.42835 L 355.40424 322.91796 Z M 546.10264 323.40757 L 544.59577 322.91796 L 546.10264 322.42835 L 546.10264 323.40757 Z M 359.30082 319.48174 L 359.01302 319.87786 L 358.3695 320.76359 L 358.3695 319.17914 L 359.30082 319.48174 Z M 541.63051 320.76357 L 540.6992 319.48174 L 541.63051 319.17914 L 541.63051 320.76357 Z M 451.63132 296.35419 L 450.70001 296.65679 L 450.70001 295.07235 L 451.63132 296.35419 Z M 453.33951 291.09687 L 451.83261 291.58649 L 452.76393 290.30464 L 453.33951 291.09687 Z M 448.16739 291.58649 L 446.66049 291.09687 L 447.23608 290.30465 L 448.16739 291.58649 Z M 392.23662 272.22257 L 391.3053 270.94072 L 392.23662 270.63812 L 392.23662 272.22257 Z M 508.69471 270.94072 L 507.7634 272.22256 L 507.7634 270.63812 L 508.69471 270.94072 Z" stroke-miterlimit="10"/></g></svg>