<svg version="1.1" xmlns="http://www.w3.org/2000/svg" xmlns:xlink="http://www.w3.org/1999/xlink" width="900" height="900"><defs/><g><path fill="#222222" stroke="#cccccc" paint-order="fill stroke markers" d=" M 402.72436 235.24948 L 405.3581 235.98962 L 407.8136 237.1958 L 410.0092 238.82789 L 411.87185 240.83162 L 413.33959 243.14032 L 414.36361 245.6772 L 414.90984 248.35787 L 414.96011 251.09317 L 414.51275 253.7921 L 413.58264 256.36489 L 412.20072 258.72597 L 410.41295 260.79678 L 408.27881 262.50845 L 405.86928 263.80404 L 403.26452 264.64045 L 400 265 L 315 265 L 315 285 L 435 285 L 435 250 L 435.24948 247.27564 L 435.98962 244.6419 L 437.1958 242.1864 L 438.82789 239.9908 L 440.83162 238.12815 L 443.14032 236.66041 L 445.6772 235.63639 L 448.35787 235.09016 L 451.09317 235.03989 L 453.7921 235.48725 L 456.36489 236.41736 L 458.72597 237.79928 L 460.79678 239.58705 L 462.50845 241.72119 L 463.80404 244.13072 L 464.64045 246.73548 L 465 250 L 465 300 L 464.95005 300.54552 L 464.96011 301.09317 L 464.82556 301.90491 L 464.75052 302.72436 L 464.60232 303.25172 L 464.51275 303.7921 L 464.233 304.56592 L 464.01038 305.3581 L 463.76887 305.84976 L 463.58264 306.36489 L 463.16698 307.07507 L 462.8042 307.8136 L 462.47744 308.25318 L 462.20072 308.72597 L 461.66299 309.34883 L 461.17211 310.0092 L 460.77089 310.38217 L 460.41295 310.79678 L 459.77107 311.3116 L 459.16838 311.87185 L 458.70612 312.16573 L 458.27881 312.50845 L 457.55405 312.89815 L 456.85968 313.33959 L 456.35176 313.54461 L 455.86928 313.80404 L 455.08581 314.05562 L 454.3228 314.36361 L 453.78606 314.47298 L 453.26452 314.64045 L 452.61088 314.71244 L 451.64213 314.90984 L 450.65366 314.92801 L 450 315 L 415 315 L 415 350 L 414.75052 352.72436 L 414.01038 355.3581 L 412.8042 357.8136 L 411.17211 360.0092 L 409.16838 361.87185 L 406.85968 363.33959 L 404.3228 364.36361 L 401.64213 364.90984 L 398.90683 364.96011 L 396.2079 364.51275 L 393.63511 363.58264 L 391.27403 362.20072 L 389.20322 360.41295 L 387.49155 358.27881 L 386.19596 355.86928 L 385.35955 353.26452 L 385 350 L 385 315 L 365 315 L 365 385 L 485 385 L 485 365 L 450 365 L 447.27564 364.75052 L 444.6419 364.01038 L 442.1864 362.8042 L 439.9908 361.17211 L 438.12815 359.16838 L 436.66041 356.85968 L 435.63639 354.3228 L 435.09016 351.64213 L 435.03989 348.90683 L 435.48725 346.2079 L 436.41736 343.63511 L 437.79928 341.27403 L 439.58705 339.20322 L 441.72119 337.49155 L 444.13072 336.19596 L 446.73548 335.35955 L 450 335 L 485 335 L 485 250 L 485.24948 247.27564 L 485.98962 244.6419 L 487.1958 242.1864 L 488.82789 239.9908 L 490.83162 238.12815 L 493.14032 236.66041 L 495.6772 235.63639 L 498.35787 235.09016 L 501.09317 235.03989 L 503.7921 235.48725 L 506.36489 236.41736 L 508.72597 237.79928 L 510.79678 239.58705 L 512.50845 241.72119 L 513.80404 244.13072 L 514.64045 246.73548 L 515 250 L 515 385 L 550 385 L 552.72436 385.24948 L 555.3581 385.98962 L 557.8136 387.1958 L 560.0092 388.82789 L 561.87185 390.83162 L 563.33959 393.14032 L 564.36361 395.6772 L 564.90984 398.35787 L 564.96011 401.09317 L 564.51275 403.7921 L 563.58264 406.36489 L 562.20072 408.72597 L 560.41295 410.79678 L 558.27881 412.50845 L 555.86928 413.80404 L 553.26452 414.64045 L 550 415 L 465 415 L 465 485 L 485 485 L 485 450 L 485.24948 447.27564 L 485.98962 444.6419 L 487.1958 442.1864 L 488.82789 439.9908 L 490.83162 438.12815 L 493.14032 436.66041 L 495.6772 435.63639 L 498.35787 435.09016 L 500 435 L 585 435 L 585 365 L 550 365 L 547.27564 364.75052 L 544.6419 364.01038 L 542.1864 362.8042 L 539.9908 361.17211 L 538.12815 359.16838 L 536.66041 356.85968 L 535.63639 354.3228 L 535.09016 351.64213 L 535.03989 348.90683 L 535.48725 346.2079 L 536.41736 343.63511 L 537.79928 341.27403 L 539.58705 339.20322 L 541.72119 337.49155 L 544.13072 336.19596 L 546.73548 335.35955 L 550 335 L 585 335 L 585 315 L 550 315 L 547.27564 314.75052 L 544.6419 314.01038 L 542.1864 312.8042 L 539.9908 311.17211 L 538.12815 309.16838 L 536.66041 306.85968 L 535.63639 304.3228 L 535.09016 301.64213 L 535 300 L 535 250 L 535.24948 247.27564 L 535.98962 244.6419 L 537.1958 242.1864 L 538.82789 239.9908 L 540.83162 238.12815 L 543.14032 236.66041 L 545.6772 235.63639 L 548.35787 235.09016 L 551.09317 235.03989 L 553.7921 235.48725 L 556.36489 236.41736 L 558.72597 237.79928 L 560.79678 239.58705 L 562.50845 241.72119 L 563.80404 244.13072 L 564.64045 246.73548 L 565 250 L 565 285 L 635 285 L 635 265 L 600 265 L 597.27564 264.75052 L 594.6419 264.01038 L 592.1864 262.8042 L 589.9908 261.17211 L 588.12815 259.16838 L 586.66041 256.85968 L 585.63639 254.3228 L 585.09016 251.64213 L 585.03989 248.90683 L 585.48725 246.2079 L 586.41736 243.63511 L 587.79928 241.27403 L 589.58705 239.20322 L 591.72119 237.49155 L 594.13072 236.19596 L 596.73548 235.35955 L 600 235 L 650 235 L 652.72436 235.24948 L 655.3581 235.98962 L 657.8136 237.1958 L 660.0092 238.82789 L 661.87185 240.83162 L 663.33959 243.14032 L 664.36361 245.6772 L 664.90984 248.35787 L 665 250 L 665 350 L 664.75052 352.72436 L 664.01038 355.3581 L 662.8042 357.8136 L 661.17211 360.0092 L 659.16838 361.87185 L 656.85968 363.33959 L 654.3228 364.36361 L 651.64213 364.90984 L 648.90683 364.96011 L 646.2079 364.51275 L 643.63511 363.58264 L 641.27403 362.20072 L 639.20322 360.41295 L 637.49155 358.27881 L 636.19596 355.86928 L 635.35955 353.26452 L 635 350 L 635 315 L 615 315 L 615 385 L 650 385 L 652.72436 385.24948 L 655.3581 385.98962 L 657.8136 387.1958 L 660.0092 388.82789 L 661.87185 390.83162 L 663.33959 393.14032 L 664.36361 395.6772 L 664.90984 398.35787 L 665 400 L 665 450 L 664.75052 452.72436 L 664.01038 455.3581 L 662.8042 457.8136 L 661.17211 460.0092 L 659.16838 461.87185 L 656.85968 463.33959 L 654.3228 464.36361 L 651.64213 464.90984 L 648.90683 464.96011 L 646.2079 464.51275 L 643.63511 463.58264 L 641.27403 462.20072 L 639.20322 460.41295 L 637.49155 458.27881 L 636.19596 455.86928 L 635.35955 453.26452 L 635 450 L 635 415 L 615 415 L 615 485 L 650 485 L 652.72436 485.24948 L 655.3581 485.98962 L 657.8136 487.1958 L 660.0092 488.82789 L 661.87185 490.83162 L 663.33959 493.14032 L 664.36361 495.6772 L 664.90984 498.35787 L 664.96011 501.09317 L 664.51275 503.7921 L 663.58264 506.36489 L 662.20072 508.72597 L 660.41295 510.79678 L 658.27881 512.50845 L 655.86928 513.80404 L 653.26452 514.64045 L 650 515 L 615 515 L 615 535 L 650 535 L 652.72436 535.24948 L 655.3581 535.98962 L 657.8136 537.1958 L 660.0092 538.82789 L 661.87185 540.83162 L 663.33959 543.14032 L 664.36361 545.6772 L 664.90984 548.35787 L 664.96011 551.09317 L 664.51275 553.7921 L 663.58264 556.36489 L 662.20072 558.72597 L 660.41295 560.79678 L 658.27881 562.50845 L 655.86928 563.80404 L 653.26452 564.64045 L 650 565 L 615 565 L 615 585 L 650 585 L 652.72436 585.24948 L 655.3581 585.98962 L 657.8136 587.1958 L 660.0092 588.82789 L 661.87185 590.83162 L 663.33959 593.14032 L 664.36361 595.6772 L 664.90984 598.35787 L 665 600 L 665 650 L 664.75052 652.72436 L 664.01038 655.3581 L 662.8042 657.8136 L 661.17211 660.0092 L 659.16838 661.87185 L 656.85968 663.33959 L 654.3228 664.36361 L 651.64213 664.90984 L 648.90683 664.96011 L 646.2079 664.51275 L 643.63511 663.58264 L 641.27403 662.20072 L 639.20322 660.41295 L 637.49155 658.27881 L 636.19596 655.86928 L 635.35955 653.26452 L 635 650 L 635 615 L 615 615 L 615 650 L 614.75052 652.72436 L 614.01038 655.3581 L 612.8042 657.8136 L 611.17211 660.0092 L 609.16838 661.87185 L 606.85968 663.33959 L 604.3228 664.36361 L 601.64213 664.90984 L 598.90683 664.96011 L 596.2079 664.51275 L 593.63511 663.58264 L 591.27403 662.20072 L 589.20322 660.41295 L 587.49155 658.27881 L 586.19596 655.86928 L 585.35955 653.26452 L 585 650 L 585 465 L 515 465 L 515 485 L 550 485 L 550.54552 485.04995 L 551.09317 485.03989 L 551.90491 485.17444 L 552.72436 485.24948 L 553.25172 485.39768 L 553.7921 485.48725 L 554.56592 485.767 L 555.3581 485.98962 L 555.84976 486.23113 L 556.36489 486.41736 L 557.07507 486.83302 L 557.8136 487.1958 L 558.25318 487.52256 L 558.72597 487.79928 L 559.34883 488.33701 L 560.0092 488.82789 L 560.38217 489.22911 L 560.79678 489.58705 L 561.3116 490.22893 L 561.87185 490.83162 L 562.16573 491.29388 L 562.50845 491.72119 L 562.89815 492.44595 L 563.33959 493.14032 L 563.54461 493.64824 L 563.80404 494.13072 L 564.05562 494.91419 L 564.36361 495.6772 L 564.47298 496.21394 L 564.64045 496.73548 L 564.71244 497.38912 L 564.90984 498.35787 L 564.92801 499.34634 L 565 500 L 565 650 L 564.75052 652.72436 L 564.01038 655.3581 L 562.8042 657.8136 L 561.17211 660.0092 L 559.16838 661.87185 L 556.85968 663.33959 L 554.3228 664.36361 L 551.64213 664.90984 L 548.90683 664.96011 L 546.2079 664.51275 L 543.63511 663.58264 L 541.27403 662.20072 L 539.20322 660.41295 L 537.49155 658.27881 L 536.19596 655.86928 L 535.35955 653.26452 L 535 650 L 535 615 L 500 615 L 497.27564 614.75052 L 494.6419 614.01038 L 492.1864 612.8042 L 489.9908 611.17211 L 488.12815 609.16838 L 486.66041 606.85968 L 485.63639 604.3228 L 485.09016 601.64213 L 485 600 L 485 550 L 485.24948 547.27564 L 485.98962 544.6419 L 487.1958 542.1864 L 488.82789 539.9908 L 490.83162 538.12815 L 493.14032 536.66041 L 495.6772 535.63639 L 498.35787 535.09016 L 501.09317 535.03989 L 503.7921 535.48725 L 506.36489 536.41736 L 508.72597 537.79928 L 510.79678 539.58705 L 512.50845 541.72119 L 513.80404 544.13072 L 514.64045 546.73548 L 515 550 L 515 585 L 535 585 L 535 515 L 415 515 L 415 535 L 450 535 L 450.54552 535.04995 L 451.09317 535.03989 L 451.90491 535.17444 L 452.72436 535.24948 L 453.25172 535.39768 L 453.7921 535.48725 L 454.56592 535.767 L 455.3581 535.98962 L 455.84976 536.23113 L 456.36489 536.41736 L 457.07507 536.83302 L 457.8136 537.1958 L 458.25318 537.52256 L 458.72597 537.79928 L 459.34883 538.33701 L 460.0092 538.82789 L 460.38217 539.22911 L 460.79678 539.58705 L 461.3116 540.22893 L 461.87185 540.83162 L 462.16573 541.29388 L 462.50845 541.72119 L 462.89815 542.44595 L 463.33959 543.14032 L 463.54461 543.64824 L 463.80404 544.13072 L 464.05562 544.91419 L 464.36361 545.6772 L 464.47298 546.21394 L 464.64045 546.73548 L 464.71244 547.38912 L 464.90984 548.35787 L 464.92801 549.34634 L 465 550 L 465 635 L 500 635 L 502.72436 635.24948 L 505.3581 635.98962 L 507.8136 637.1958 L 510.0092 638.82789 L 511.87185 640.83162 L 513.33959 643.14032 L 514.36361 645.6772 L 514.90984 648.35787 L 514.96011 651.09317 L 514.51275 653.7921 L 513.58264 656.36489 L 512.20072 658.72597 L 510.41295 660.79678 L 508.27881 662.50845 L 505.86928 663.80404 L 503.26452 664.64045 L 500 665 L 450 665 L 447.27564 664.75052 L 444.6419 664.01038 L 442.1864 662.8042 L 439.9908 661.17211 L 438.12815 659.16838 L 436.66041 656.85968 L 435.63639 654.3228 L 435.09016 651.64213 L 435 650 L 435 615 L 415 615 L 415 650 L 414.75052 652.72436 L 414.01038 655.3581 L 412.8042 657.8136 L 411.17211 660.0092 L 409.16838 661.87185 L 406.85968 663.33959 L 404.3228 664.36361 L 401.64213 664.90984 L 398.90683 664.96011 L 396.2079 664.51275 L 393.63511 663.58264 L 391.27403 662.20072 L 389.20322 660.41295 L 387.49155 658.27881 L 386.19596 655.86928 L 385.35955 653.26452 L 385 650 L 385 600 L 385.24948 597.27564 L 385.98962 594.6419 L 387.1958 592.1864 L 388.82789 589.9908 L 390.83162 588.12815 L 393.14032 586.66041 L 395.6772 585.63639 L 398.35787 585.09016 L 400 585 L 435 585 L 435 565 L 365 565 L 365 600 L 364.75052 602.72436 L 364.01038 605.3581 L 362.8042 607.8136 L 361.17211 610.0092 L 359.16838 611.87185 L 356.85968 613.33959 L 354.3228 614.36361 L 351.64213 614.90984 L 348.90683 614.96011 L 346.2079 614.51275 L 343.63511 613.58264 L 341.27403 612.20072 L 339.20322 610.41295 L 337.49155 608.27881 L 336.19596 605.86928 L 335.35955 603.26452 L 335 600 L 335 550 L 335.24948 547.27564 L 335.98962 544.6419 L 337.1958 542.1864 L 338.82789 539.9908 L 340.83162 538.12815 L 343.14032 536.66041 L 345.6772 535.63639 L 348.35787 535.09016 L 350 535 L 385 535 L 385 515 L 315 515 L 315 635 L 350 635 L 352.72436 635.24948 L 355.3581 635.98962 L 357.8136 637.1958 L 360.0092 638.82789 L 361.87185 640.83162 L 363.33959 643.14032 L 364.36361 645.6772 L 364.90984 648.35787 L 364.96011 651.09317 L 364.51275 653.7921 L 363.58264 656.36489 L 362.20072 658.72597 L 360.41295 660.79678 L 358.27881 662.50845 L 355.86928 663.80404 L 353.26452 664.64045 L 350 665 L 250 665 L 247.27564 664.75052 L 244.6419 664.01038 L 242.1864 662.8042 L 239.9908 661.17211 L 238.12815 659.16838 L 236.66041 656.85968 L 235.63639 654.3228 L 235.09016 651.64213 L 235.03989 648.90683 L 235.48725 646.2079 L 236.41736 643.63511 L 237.79928 641.27403 L 239.58705 639.20322 L 241.72119 637.49155 L 244.13072 636.19596 L 246.73548 635.35955 L 250 635 L 285 635 L 285 615 L 250 615 L 247.27564 614.75052 L 244.6419 614.01038 L 242.1864 612.8042 L 239.9908 611.17211 L 238.12815 609.16838 L 236.66041 606.85968 L 235.63639 604.3228 L 235.09016 601.64213 L 235.03989 598.90683 L 235.48725 596.2079 L 236.41736 593.63511 L 237.79928 591.27403 L 239.58705 589.20322 L 241.72119 587.49155 L 244.13072 586.19596 L 246.73548 585.35955 L 250 585 L 285 585 L 285 565 L 250 565 L 247.27564 564.75052 L 244.6419 564.01038 L 242.1864 562.8042 L 239.9908 561.17211 L 238.12815 559.16838 L 236.66041 556.85968 L 235.63639 554.3228 L 235.09016 551.64213 L 235.03989 548.90683 L 235.48725 546.2079 L 236.41736 543.63511 L 237.79928 541.27403 L 239.58705 539.20322 L 241.72119 537.49155 L 244.13072 536.19596 L 246.73548 535.35955 L 250 535 L 285 535 L 285 500 L 285.24948 497.27564 L 285.98962 494.6419 L 287.1958 492.1864 L 288.82789 489.9908 L 290.83162 488.12815 L 293.14032 486.66041 L 295.6772 485.63639 L 298.35787 485.09016 L 300 485 L 335 485 L 335 465 L 265 465 L 265 500 L 264.75052 502.72436 L 264.01038 505.3581 L 262.8042 507.8136 L 261.17211 510.0092 L 259.16838 511.87185 L 256.85968 513.33959 L 254.3228 514.36361 L 251.64213 514.90984 L 248.90683 514.96011 L 246.2079 514.51275 L 243.63511 513.58264 L 241.27403 512.20072 L 239.20322 510.41295 L 237.49155 508.27881 L 236.19596 505.86928 L 235.35955 503.26452 L 235 500 L 235 450 L 235.24948 447.27564 L 235.98962 444.6419 L 237.1958 442.1864 L 238.82789 439.9908 L 240.83162 438.12815 L 243.14032 436.66041 L 245.6772 435.63639 L 248.35787 435.09016 L 250 435 L 350 435 L 352.72436 435.24948 L 355.3581 435.98962 L 357.8136 437.1958 L 360.0092 438.82789 L 361.87185 440.83162 L 363.33959 443.14032 L 364.36361 445.6772 L 364.90984 448.35787 L 365 450 L 365 485 L 435 485 L 435 415 L 415 415 L 415 450 L 414.75052 452.72436 L 414.01038 455.3581 L 412.8042 457.8136 L 411.17211 460.0092 L 409.16838 461.87185 L 406.85968 463.33959 L 404.3228 464.36361 L 401.64213 464.90984 L 398.90683 464.96011 L 396.2079 464.51275 L 393.63511 463.58264 L 391.27403 462.20072 L 389.20322 460.41295 L 387.49155 458.27881 L 386.19596 455.86928 L 385.35955 453.26452 L 385 450 L 385 415 L 250 415 L 247.27564 414.75052 L 244.6419 414.01038 L 242.1864 412.8042 L 239.9908 411.17211 L 238.12815 409.16838 L 236.66041 406.85968 L 235.63639 404.3228 L 235.09016 401.64213 L 235 400 L 235 250 L 235.24948 247.27564 L 235.98962 244.6419 L 237.1958 242.1864 L 238.82789 239.9908 L 240.83162 238.12815 L 243.14032 236.66041 L 245.6772 235.63639 L 248.35787 235.09016 L 251.09317 235.03989 L 253.7921 235.48725 L 256.36489 236.41736 L 258.72597 237.79928 L 260.79678 239.58705 L 262.50845 241.72119 L 263.80404 244.13072 L 264.64045 246.73548 L 265 250 L 265 385 L 335 385 L 335 365 L 300 365 L 297.27564 364.75052 L 294.6419 364.01038 L 292.1864 362.8042 L 289.9908 361.17211 L 288.12815 359.16838 L 286.66041 356.85968 L 285.63639 354.3228 L 285.09016 351.64213 L 285.03989 348.90683 L 285.48725 346.2079 L 286.41736 343.63511 L 287.79928 341.27403 L 289.58705 339.20322 L 291.72119 337.49155 L 294.13072 336.19596 L 296.73548 335.35955 L 300 335 L 335 335 L 335 315 L 300 315 L 297.27564 314.75052 L 294.6419 314.01038 L 292.1864 312.8042 L 289.9908 311.17211 L 288.12815 309.16838 L 286.66041 306.85968 L 285.63639 304.3228 L 285.09016 301.64213 L 285 300 L 285 250 L 285.24948 247.27564 L 285.98962 244.6419 L 287.1958 242.1864 L 288.82789 239.9908 L 290.83162 238.12815 L 293.14032 236.66041 L 295.6772 235.63639 L 298.35787 235.09016 L 300 235 L 400 235 Z" stroke-miterlimit="10"/></g></svg>