<svg version="1.1" xmlns="http://www.w3.org/2000/svg" xmlns:xlink="http://www.w3.org/1999/xlink" width="900" height="1600"><defs/><g><path fill="#222222" stroke="#cccccc" paint-order="fill stroke markers" d=" M 500.71211 150.98221 L 500.71211 183.86201 L 521.18685 195.68311 L 549.66159 179.24321 L 586.13633 200.30191 L 586.13633 233.18171 L 614.61107 249.62161 L 614.61107 282.5014 L 643.08581 298.9413 L 643.08581 341.0587 L 614.61107 357.4986 L 614.61107 390.37839 L 586.13633 406.81829 L 586.13633 439.69809 L 549.66159 460.75679 L 521.18685 444.31689 L 500.71211 456.13799 L 500.71211 489.01779 L 464.23737 510.07649 L 435.76263 493.63659 L 407.28789 510.07649 L 378.81315 493.63659 L 350.33841 510.07649 L 313.86367 489.01779 L 313.86367 456.13799 L 285.38893 439.69809 L 285.38893 406.81829 L 256.91419 390.37839 L 256.91419 348.261 L 285.38893 331.8211 L 285.38893 308.1789 L 256.91419 291.739 L 256.91419 249.62161 L 285.38893 233.18171 L 285.38893 200.30191 L 313.86367 183.86201 L 313.86367 150.98221 L 350.33841 129.92351 L 378.81315 146.36341 L 407.28789 129.92351 L 435.76263 146.36341 L 464.23737 129.92351 Z M 378.81315 164.83861 L 350.33841 148.39871 L 329.86367 160.21981 L 329.86367 193.09961 L 301.38893 209.53951 L 301.38893 233.18171 L 329.86367 249.62161 L 329.86367 282.5014 L 350.33841 294.3225 L 378.81315 277.8826 L 415.28789 298.9413 L 415.28789 341.0587 L 378.81315 362.1174 L 350.33841 345.6775 L 329.86367 357.4986 L 329.86367 390.37839 L 301.38893 406.81829 L 301.38893 430.46049 L 329.86367 446.90039 L 329.86367 479.78019 L 350.33841 491.60129 L 378.81315 475.16139 L 407.28789 491.60129 L 427.76263 479.78019 L 427.76263 446.90039 L 456.23737 430.46049 L 456.23737 406.81829 L 427.76263 390.37839 L 427.76263 348.261 L 464.23737 327.2023 L 500.71211 348.261 L 500.71211 381.14079 L 521.18685 392.96189 L 549.66159 376.52199 L 578.13633 392.96189 L 598.61107 381.14079 L 598.61107 348.261 L 627.08581 331.8211 L 627.08581 308.1789 L 598.61107 291.739 L 598.61107 258.85921 L 578.13633 247.03811 L 549.66159 263.47801 L 521.18685 247.03811 L 500.71211 258.85921 L 500.71211 291.739 L 464.23737 312.7977 L 427.76263 291.739 L 427.76263 249.62161 L 456.23737 233.18171 L 456.23737 209.53951 L 427.76263 193.09961 L 427.76263 160.21981 L 407.28789 148.39871 Z M 443.76263 456.13799 L 443.76263 479.78019 L 464.23737 491.60129 L 484.71211 479.78019 L 484.71211 456.13799 L 464.23737 444.31689 Z M 443.76263 357.4986 L 443.76263 381.14079 L 468.23737 395.27129 L 468.73806 395.65088 L 469.27189 395.98229 L 469.53049 396.25163 L 469.82802 396.4772 L 470.21914 396.9689 L 470.65432 397.42217 L 470.8382 397.74717 L 471.07061 398.03935 L 471.32783 398.61258 L 471.63725 399.15947 L 471.73494 399.51984 L 471.8878 399.8605 L 471.99512 400.47963 L 472.1595 401.08603 L 472.19959 401.65925 L 472.22871 401.82726 L 472.21951 401.94414 L 472.23737 402.19949 L 472.23737 430.46049 L 492.71211 442.28159 L 513.18685 430.46049 L 513.18685 406.81829 L 484.71211 390.37839 L 484.71211 357.4986 L 464.23737 345.6775 Z M 529.18685 406.81829 L 529.18685 430.46049 L 549.66159 442.28159 L 570.13633 430.46049 L 570.13633 406.81829 L 549.66159 394.99719 Z M 272.91419 357.4986 L 272.91419 381.14079 L 293.38893 392.96189 L 313.86367 381.14079 L 313.86367 357.4986 L 293.38893 345.6775 Z M 350.33841 312.7977 L 321.86367 296.3578 L 301.38893 308.1789 L 301.38893 331.8211 L 321.86367 343.6422 L 350.33841 327.2023 L 378.81315 343.6422 L 399.28789 331.8211 L 399.28789 308.1789 L 378.81315 296.3578 Z M 272.91419 258.85921 L 272.91419 282.5014 L 293.38893 294.3225 L 313.86367 282.5014 L 313.86367 258.85921 L 293.38893 247.03811 Z M 472.23737 209.53951 L 472.23737 242.41931 L 443.76263 258.85921 L 443.76263 282.5014 L 464.23737 294.3225 L 484.71211 282.5014 L 484.71211 249.62161 L 513.18685 233.18171 L 513.18685 209.53951 L 492.71211 197.71841 Z M 529.18685 209.53951 L 529.18685 233.18171 L 549.66159 245.00281 L 570.13633 233.18171 L 570.13633 209.53951 L 549.66159 197.71841 Z M 443.76263 160.21981 L 443.76263 183.86201 L 464.23737 195.68311 L 484.71211 183.86201 L 484.71211 160.21981 L 464.23737 148.39871 Z" stroke-miterlimit="10"/><path fill="none" stroke="0xFFFFFF" paint-order="fill stroke markers" d=" M 578.1363294265875 402.1994936526783 L 578.1363294265876 435.0792911137498 L 549.6615895540127 451.51918984428556 L 521.1868496814377 435.07929111374983 L 521.1868496814376 402.19949365267837 L 549.6615895540126 385.75959492214264 L 578.1363294265875 402.1994936526783 L 606.6110692991625 385.7595949221425 L 606.6110692991624 352.87979746107106 L 635.0858091717373 336.4398987305353 L 635.0858091717372 303.56010126946416 L 606.6110692991623 287.1202025389284 L 606.6110692991623 254.24040507785696 L 578.1363294265873 237.80050634732123 L 549.6615895540124 254.24040507785696 L 521.1868496814375 237.8005063473213 L 521.1868496814374 204.92070888624983 L 492.7121098088624 188.48081015571407 L 464.23736993628745 204.92070888624977 L 464.23736993628745 237.80050634732123 L 435.76263006371244 254.24040507785696 L 435.76263006371244 287.1202025389284 L 464.23736993628745 303.56010126946416 L 492.7121098088624 287.1202025389284 L 492.7121098088624 254.24040507785696 L 521.1868496814374 237.8005063473213" stroke-miterlimit="10"/><path fill="none" stroke="0xFFFFFF" paint-order="fill stroke markers" d=" M 578.1363294265873 237.80050634732123 L 578.1363294265873 204.92070888624977 L 549.6615895540124 188.48081015571407 L 521.1868496814374 204.92070888624977" stroke-miterlimit="10"/><path fill="none" stroke="0xFFFFFF" paint-order="fill stroke markers" d=" M 464.23736993628745 204.92070888624977 L 435.76263006371244 188.48081015571407 L 435.76263006371244 155.6010126946426 L 407.2878901911375 139.16111396410693 L 378.8131503185625 155.60101269464266 L 350.33841044598756 139.16111396410693 L 321.8636705734126 155.60101269464266 L 321.8636705734126 188.48081015571412 L 293.3889307008376 204.92070888624986 L 293.3889307008376 237.8005063473213 L 321.8636705734126 254.24040507785696 L 321.8636705734126 287.1202025389284 L 293.3889307008376 303.5601012694642 L 293.3889307008376 336.4398987305357 L 321.8636705734126 352.8797974610714 L 350.33841044598756 336.4398987305357 L 378.8131503185625 352.87979746107135 L 407.2878901911375 336.4398987305356 L 407.2878901911375 303.56010126946416 L 378.8131503185625 287.1202025389284 L 350.33841044598756 303.56010126946416 L 321.8636705734126 287.1202025389284" stroke-miterlimit="10"/><path fill="none" stroke="0xFFFFFF" paint-order="fill stroke markers" d=" M 435.76263006371244 155.6010126946426 L 464.23736993628745 139.16111396410687 L 492.7121098088624 155.6010126946426 L 492.7121098088624 188.48081015571407" stroke-miterlimit="10"/><path fill="none" stroke="0xFFFFFF" paint-order="fill stroke markers" d=" M 293.3889307008376 237.8005063473213 L 264.9141908282627 254.24040507785702 L 264.9141908282627 287.1202025389285 L 293.3889307008376 303.5601012694642" stroke-miterlimit="10"/><path fill="none" stroke="0xFFFFFF" paint-order="fill stroke markers" d=" M 321.8636705734126 352.8797974610714 L 321.8636705734126 385.7595949221428 L 293.3889307008376 402.19949365267865 L 293.3889307008379 435.07929111375006 L 321.86367057341283 451.51918984428573 L 321.8636705734129 484.3989873053572 L 350.33841044598785 500.83888603589287 L 378.81315031856286 484.39898730535714 L 407.2878901911378 500.83888603589287 L 435.7626300637128 484.3989873053571 L 435.7626300637127 451.5191898442857 L 464.2373699362877 435.0792911137499 L 492.71210980886264 451.5191898442856 L 521.1868496814377 435.07929111374983" stroke-miterlimit="10"/><path fill="none" stroke="0xFFFFFF" paint-order="fill stroke markers" d=" M 293.3889307008376 402.19949365267865 L 264.9141908282627 385.7595949221429 L 264.9141908282627 352.87979746107146 L 293.3889307008376 336.4398987305357" stroke-miterlimit="10"/><path fill="none" stroke="0xFFFFFF" paint-order="fill stroke markers" d=" M 435.7626300637128 484.3989873053571 L 464.23736993628773 500.83888603589276 L 492.7121098088627 484.398987305357 L 492.7121098088627 451.51918984428556" stroke-miterlimit="10"/><path fill="none" stroke="0xFFFFFF" paint-order="fill stroke markers" d=" M 521.1868496814376 402.19949365267837 L 492.71210980886264 385.7595949221427 L 492.71210980886264 352.8797974610713 L 464.2373699362876 336.43989873053556 L 435.7626300637127 352.87979746107135 L 435.7626300637127 385.7595949221428 L 464.2373699362877 402.1994936526785" stroke-miterlimit="10"/><path fill="none" stroke="0xFFFFFF" paint-order="fill stroke markers" d=" M 464.2373699362877 402.1994936526785 L 464.2373699362877 435.07929111374995" stroke-miterlimit="10"/><path fill="#222222" stroke="#cccccc" paint-order="fill stroke markers" d=" M 600.3737 630.98221 L 600.3737 663.86201 L 628.84844 680.30191 L 628.84844 722.41931 L 600.3737 738.85921 L 600.3737 771.739 L 571.89896 788.1789 L 571.89896 811.8211 L 600.3737 828.261 L 600.3737 861.14079 L 628.84844 877.58069 L 628.84844 919.69809 L 600.3737 936.13799 L 600.3737 969.01779 L 563.89896 990.07649 L 535.42422 973.63659 L 506.94948 990.07649 L 470.47474 969.01779 L 470.47474 936.13799 L 442 919.69809 L 442 886.81829 L 421.52526 874.99719 L 393.05052 891.43709 L 364.57578 874.99719 L 336.10104 891.43709 L 299.6263 870.37839 L 299.6263 837.4986 L 271.15156 821.0587 L 271.15156 778.9413 L 299.6263 762.5014 L 299.6263 729.62161 L 336.10104 708.56291 L 364.57578 725.00281 L 393.05052 708.56291 L 421.52526 725.00281 L 442 713.18171 L 442 680.30191 L 470.47474 663.86201 L 470.47474 630.98221 L 506.94948 609.92351 L 535.42422 626.36341 L 563.89896 609.92351 Z M 543.42422 837.4986 L 543.42422 870.37839 L 506.94948 891.43709 L 478.47474 874.99719 L 458 886.81829 L 458 910.46049 L 486.47474 926.90039 L 486.47474 959.78019 L 506.94948 971.60129 L 527.42422 959.78019 L 527.42422 926.90039 L 563.89896 905.84169 L 592.3737 922.28159 L 612.84844 910.46049 L 612.84844 886.81829 L 584.3737 870.37839 L 584.3737 837.4986 L 563.89896 825.6775 Z M 543.42422 936.13799 L 543.42422 959.78019 L 563.89896 971.60129 L 584.3737 959.78019 L 584.3737 936.13799 L 563.89896 924.31689 Z M 364.57578 743.47801 L 336.10104 727.03811 L 315.6263 738.85921 L 315.6263 762.5014 L 344.10104 778.9413 L 344.10104 821.0587 L 315.6263 837.4986 L 315.6263 861.14079 L 336.10104 872.96189 L 364.57578 856.52199 L 393.05052 872.96189 L 413.52526 861.14079 L 413.52526 837.4986 L 385.05052 821.0587 L 385.05052 778.9413 L 413.52526 762.5014 L 413.52526 738.85921 L 393.05052 727.03811 Z M 429.52526 837.4986 L 429.52526 861.14079 L 450 872.96189 L 470.47474 861.14079 L 470.47474 837.4986 L 450 825.6775 Z M 486.47474 837.4986 L 486.47474 861.14079 L 506.94948 872.96189 L 527.42422 861.14079 L 527.42422 837.4986 L 506.94948 825.6775 Z M 287.15156 788.1789 L 287.15156 811.8211 L 307.6263 823.6422 L 328.10104 811.8211 L 328.10104 788.1789 L 307.6263 776.3578 Z M 401.05052 788.1789 L 401.05052 811.8211 L 421.52526 823.6422 L 442 811.8211 L 442 788.1789 L 421.52526 776.3578 Z M 458 788.1789 L 458 811.8211 L 478.47474 823.6422 L 498.94948 811.8211 L 498.94948 788.1789 L 478.47474 776.3578 Z M 514.94948 788.1789 L 514.94948 811.8211 L 535.42422 823.6422 L 555.89896 811.8211 L 555.89896 788.1789 L 535.42422 776.3578 Z M 429.52526 738.85921 L 429.52526 762.5014 L 450 774.3225 L 470.47474 762.5014 L 470.47474 738.85921 L 450 727.03811 Z M 486.47474 738.85921 L 486.47474 762.5014 L 506.94948 774.3225 L 527.42422 762.5014 L 527.42422 738.85921 L 506.94948 727.03811 Z M 486.47474 640.21981 L 486.47474 673.09961 L 458 689.53951 L 458 713.18171 L 478.47474 725.00281 L 506.94948 708.56291 L 543.42422 729.62161 L 543.42422 762.5014 L 563.89896 774.3225 L 584.3737 762.5014 L 584.3737 729.62161 L 612.84844 713.18171 L 612.84844 689.53951 L 592.3737 677.71841 L 563.89896 694.15831 L 527.42422 673.09961 L 527.42422 640.21981 L 506.94948 628.39871 Z M 543.42422 640.21981 L 543.42422 663.86201 L 563.89896 675.68311 L 584.3737 663.86201 L 584.3737 640.21981 L 563.89896 628.39871 Z" stroke-miterlimit="10"/><path fill="none" stroke="0xFFFFFF" paint-order="fill stroke markers" d=" M 592.3736993628746 931.5191898442857 L 592.3736993628747 964.3989873053572 L 563.8989594902998 980.838886035893 L 535.4242196177249 964.3989873053572 L 535.4242196177247 931.5191898442857 L 563.8989594902998 915.0792911137501 L 592.3736993628746 931.5191898442857 L 620.8484392354496 915.07929111375 L 620.8484392354496 882.1994936526785 L 592.3736993628746 865.7595949221427 L 592.3736993628746 832.8797974610713 L 563.8989594902996 816.4398987305357 L 563.8989594902996 783.5601012694643 L 535.4242196177246 767.1202025389285 L 506.9494797451497 783.5601012694643 L 506.9494797451497 816.4398987305357 L 478.4747398725748 832.8797974610715 L 449.9999999999998 816.4398987305357 L 421.5252601274249 832.8797974610716 L 393.05052025484986 816.4398987305358 L 393.05052025484986 783.5601012694643 L 421.5252601274248 767.1202025389285 L 449.9999999999998 783.5601012694643 L 478.47473987257473 767.1202025389285 L 478.4747398725747 734.2404050778571 L 506.9494797451497 717.8005063473214 L 535.4242196177246 734.2404050778571 L 535.4242196177246 767.1202025389285" stroke-miterlimit="10"/><path fill="none" stroke="0xFFFFFF" paint-order="fill stroke markers" d=" M 478.47473987257473 767.1202025389285 L 506.9494797451497 783.5601012694643" stroke-miterlimit="10"/><path fill="none" stroke="0xFFFFFF" paint-order="fill stroke markers" d=" M 506.9494797451497 816.4398987305357 L 535.4242196177246 832.8797974610715 L 535.4242196177246 865.7595949221429 L 506.9494797451497 882.1994936526786 L 478.47473987257473 865.7595949221429 L 478.47473987257473 832.8797974610715" stroke-miterlimit="10"/><path fill="none" stroke="0xFFFFFF" paint-order="fill stroke markers" d=" M 535.4242196177246 832.8797974610715 L 563.8989594902996 816.4398987305357" stroke-miterlimit="10"/><path fill="none" stroke="0xFFFFFF" paint-order="fill stroke markers" d=" M 563.8989594902996 783.5601012694643 L 592.3736993628745 767.1202025389285 L 592.3736993628745 734.2404050778571 L 620.8484392354495 717.8005063473214 L 620.8484392354495 684.9207088862499 L 592.3736993628745 668.4808101557143 L 563.8989594902996 684.9207088862499 L 535.4242196177246 668.4808101557143 L 535.4242196177246 635.6010126946428 L 506.9494797451497 619.161113964107 L 478.47473987257473 635.6010126946428 L 478.47473987257473 668.4808101557143 L 449.9999999999998 684.9207088862499 L 449.9999999999998 717.8005063473214 L 421.5252601274248 734.2404050778571 L 393.0505202548498 717.8005063473214 L 364.5757803822749 734.2404050778571 L 336.10104050969994 717.8005063473215 L 307.626300637125 734.2404050778573 L 307.626300637125 767.1202025389287 L 336.10104050969994 783.5601012694644 L 336.10104050969994 816.4398987305358 L 307.626300637125 832.8797974610716 L 307.626300637125 865.759594922143 L 336.10104050969994 882.1994936526787 L 364.5757803822749 865.759594922143 L 393.0505202548499 882.1994936526786 L 421.5252601274248 865.7595949221429 L 449.99999999999983 882.1994936526786 L 449.9999999999999 915.0792911137502 L 478.47473987257484 931.5191898442857 L 478.4747398725749 964.3989873053572 L 506.94947974514986 980.838886035893 L 535.4242196177247 964.3989873053572" stroke-miterlimit="10"/><path fill="none" stroke="0xFFFFFF" paint-order="fill stroke markers" d=" M 535.4242196177246 635.6010126946428 L 563.8989594902996 619.161113964107 L 592.3736993628745 635.6010126946428 L 592.3736993628745 668.4808101557143" stroke-miterlimit="10"/><path fill="none" stroke="0xFFFFFF" paint-order="fill stroke markers" d=" M 421.5252601274248 734.2404050778571 L 421.5252601274248 767.1202025389285" stroke-miterlimit="10"/><path fill="none" stroke="0xFFFFFF" paint-order="fill stroke markers" d=" M 449.9999999999998 816.4398987305357 L 449.9999999999998 783.5601012694643" stroke-miterlimit="10"/><path fill="none" stroke="0xFFFFFF" paint-order="fill stroke markers" d=" M 478.4747398725747 734.2404050778571 L 449.9999999999997 717.8005063473214" stroke-miterlimit="10"/><path fill="none" stroke="0xFFFFFF" paint-order="fill stroke markers" d=" M 307.626300637125 832.8797974610716 L 279.15156076455 816.4398987305358 L 279.1515607645499 783.5601012694644 L 307.6263006371249 767.1202025389287" stroke-miterlimit="10"/><path fill="none" stroke="0xFFFFFF" paint-order="fill stroke markers" d=" M 449.99999999999983 882.1994936526786 L 478.47473987257473 865.7595949221429" stroke-miterlimit="10"/><path fill="none" stroke="0xFFFFFF" paint-order="fill stroke markers" d=" M 421.5252601274249 832.8797974610716 L 421.52526012742493 865.759594922143" stroke-miterlimit="10"/><path fill="#222222" stroke="#cccccc" paint-order="fill stroke markers" d=" M 429.52526 1110.98221 L 429.52526 1143.86201 L 458 1160.30191 L 458 1193.18171 L 478.47474 1205.00281 L 506.94948 1188.56291 L 535.42422 1205.00281 L 563.89896 1188.56291 L 600.3737 1209.62161 L 600.3737 1242.5014 L 628.84844 1258.9413 L 628.84844 1301.0587 L 600.3737 1317.4986 L 600.3737 1350.37839 L 563.89896 1371.43709 L 535.42422 1354.99719 L 506.94948 1371.43709 L 478.47474 1354.99719 L 458 1366.81829 L 458 1399.69809 L 429.52526 1416.13799 L 429.52526 1449.01779 L 393.05052 1470.07649 L 364.57578 1453.63659 L 336.10104 1470.07649 L 299.6263 1449.01779 L 299.6263 1416.13799 L 271.15156 1399.69809 L 271.15156 1357.58069 L 299.6263 1341.14079 L 299.6263 1308.261 L 328.10104 1291.8211 L 328.10104 1268.1789 L 299.6263 1251.739 L 299.6263 1218.85921 L 271.15156 1202.41931 L 271.15156 1160.30191 L 299.6263 1143.86201 L 299.6263 1110.98221 L 336.10104 1089.92351 L 364.57578 1106.36341 L 393.05052 1089.92351 Z M 287.15156 1366.81829 L 287.15156 1390.46049 L 315.6263 1406.90039 L 315.6263 1439.78019 L 336.10104 1451.60129 L 364.57578 1435.16139 L 393.05052 1451.60129 L 413.52526 1439.78019 L 413.52526 1416.13799 L 393.05052 1404.31689 L 364.57578 1420.75679 L 328.10104 1399.69809 L 328.10104 1366.81829 L 307.6263 1354.99719 Z M 344.10104 1366.81829 L 344.10104 1390.46049 L 364.57578 1402.28159 L 385.05052 1390.46049 L 385.05052 1366.81829 L 364.57578 1354.99719 Z M 401.05052 1366.81829 L 401.05052 1390.46049 L 421.52526 1402.28159 L 442 1390.46049 L 442 1366.81829 L 421.52526 1354.99719 Z M 315.6263 1317.4986 L 315.6263 1341.14079 L 336.10104 1352.96189 L 356.57578 1341.14079 L 356.57578 1317.4986 L 336.10104 1305.6775 Z M 421.52526 1223.47801 L 393.05052 1207.03811 L 372.57578 1218.85921 L 372.57578 1251.739 L 344.10104 1268.1789 L 344.10104 1291.8211 L 368.57578 1305.9516 L 369.07647 1306.33119 L 369.6103 1306.6626 L 369.8689 1306.93194 L 370.16643 1307.15751 L 370.55755 1307.64921 L 370.99273 1308.10248 L 371.17661 1308.42748 L 371.40902 1308.71966 L 371.66624 1309.29289 L 371.97566 1309.83978 L 372.07335 1310.20015 L 372.22621 1310.54081 L 372.33353 1311.15994 L 372.49791 1311.76634 L 372.538 1312.33956 L 372.56712 1312.50757 L 372.55792 1312.62445 L 372.57578 1312.8798 L 372.57578 1341.14079 L 393.05052 1352.96189 L 421.52526 1336.52199 L 450 1352.96189 L 470.47474 1341.14079 L 470.47474 1308.261 L 498.94948 1291.8211 L 498.94948 1268.1789 L 470.47474 1251.739 L 470.47474 1218.85921 L 450 1207.03811 Z M 486.47474 1317.4986 L 486.47474 1341.14079 L 506.94948 1352.96189 L 527.42422 1341.14079 L 527.42422 1317.4986 L 506.94948 1305.6775 Z M 543.42422 1218.85921 L 543.42422 1242.5014 L 571.89896 1258.9413 L 571.89896 1301.0587 L 543.42422 1317.4986 L 543.42422 1341.14079 L 563.89896 1352.96189 L 584.3737 1341.14079 L 584.3737 1308.261 L 612.84844 1291.8211 L 612.84844 1268.1789 L 584.3737 1251.739 L 584.3737 1218.85921 L 563.89896 1207.03811 Z M 514.94948 1268.1789 L 514.94948 1291.8211 L 535.42422 1303.6422 L 555.89896 1291.8211 L 555.89896 1268.1789 L 535.42422 1256.3578 Z M 315.6263 1218.85921 L 315.6263 1242.5014 L 336.10104 1254.3225 L 356.57578 1242.5014 L 356.57578 1218.85921 L 336.10104 1207.03811 Z M 486.47474 1218.85921 L 486.47474 1242.5014 L 506.94948 1254.3225 L 527.42422 1242.5014 L 527.42422 1218.85921 L 506.94948 1207.03811 Z M 364.57578 1124.83861 L 336.10104 1108.39871 L 315.6263 1120.21981 L 315.6263 1153.09961 L 287.15156 1169.53951 L 287.15156 1193.18171 L 307.6263 1205.00281 L 328.10104 1193.18171 L 328.10104 1160.30191 L 364.57578 1139.24321 L 393.05052 1155.68311 L 413.52526 1143.86201 L 413.52526 1120.21981 L 393.05052 1108.39871 Z M 344.10104 1169.53951 L 344.10104 1193.18171 L 364.57578 1205.00281 L 385.05052 1193.18171 L 385.05052 1169.53951 L 364.57578 1157.71841 Z M 401.05052 1169.53951 L 401.05052 1193.18171 L 421.52526 1205.00281 L 442 1193.18171 L 442 1169.53951 L 421.52526 1157.71841 Z" stroke-miterlimit="10"/><path fill="none" stroke="0xFFFFFF" paint-order="fill stroke markers" d=" M 336.10104050970017 1296.4398987305353 L 336.10104050970017 1263.5601012694638 L 307.62630063712515 1247.120202538928 L 307.62630063712515 1214.2404050778566 L 336.10104050970017 1197.8005063473208 L 336.10104050970017 1164.9207088862495 L 364.5757803822751 1148.4808101557137 L 393.0505202548501 1164.9207088862495 L 421.52526012742504 1148.4808101557137 L 421.52526012742493 1115.6010126946426 L 393.0505202548499 1099.1611139641068 L 364.57578038227496 1115.6010126946426 L 336.10104050969994 1099.1611139641068 L 307.62630063712504 1115.6010126946426 L 307.62630063712504 1148.480810155714 L 279.15156076455014 1164.92070888625 L 279.15156076455014 1197.8005063473213 L 307.62630063712515 1214.2404050778568" stroke-miterlimit="10"/><path fill="none" stroke="0xFFFFFF" paint-order="fill stroke markers" d=" M 393.0505202548501 1164.9207088862495 L 393.0505202548501 1197.8005063473208 L 364.5757803822751 1214.2404050778566 L 336.10104050970017 1197.800506347321" stroke-miterlimit="10"/><path fill="none" stroke="0xFFFFFF" paint-order="fill stroke markers" d=" M 364.5757803822751 1214.2404050778566 L 364.5757803822751 1247.120202538928 L 336.10104050970017 1263.5601012694638" stroke-miterlimit="10"/><path fill="none" stroke="0xFFFFFF" paint-order="fill stroke markers" d=" M 336.10104050970017 1296.4398987305353 L 307.62630063712515 1312.879797461071 L 307.62630063712515 1345.7595949221425 L 279.15156076455025 1362.199493652678 L 279.15156076455025 1395.0792911137496 L 307.62630063712515 1411.5191898442854 L 307.62630063712515 1444.3989873053567 L 336.10104050970017 1460.8388860358925 L 364.5757803822751 1444.3989873053567 L 393.0505202548501 1460.8388860358925 L 421.52526012742504 1444.3989873053567 L 421.52526012742504 1411.5191898442854 L 393.05052025485014 1395.0792911137498 L 364.5757803822752 1411.5191898442856 L 336.1010405097002 1395.0792911137498 L 336.1010405097002 1362.1994936526785 L 307.62630063712527 1345.759594922143" stroke-miterlimit="10"/><path fill="none" stroke="0xFFFFFF" paint-order="fill stroke markers" d=" M 421.52526012742504 1411.5191898442854 L 450 1395.0792911137496 L 450.00000000000006 1362.199493652678 L 478.474739872575 1345.7595949221425 L 478.474739872575 1312.879797461071 L 506.94947974515 1296.4398987305353 L 506.94947974515 1263.5601012694638 L 478.47473987257496 1247.1202025389282 L 478.47473987257496 1214.2404050778568 L 450 1197.8005063473208 L 421.52526012742504 1214.2404050778566 L 393.0505202548501 1197.800506347321" stroke-miterlimit="10"/><path fill="none" stroke="0xFFFFFF" paint-order="fill stroke markers" d=" M 506.94947974515 1263.5601012694638 L 535.424219617725 1247.120202538928 L 563.8989594902998 1263.5601012694638 L 563.8989594902998 1296.4398987305353 L 535.424219617725 1312.879797461071 L 506.94947974515 1296.4398987305353" stroke-miterlimit="10"/><path fill="none" stroke="0xFFFFFF" paint-order="fill stroke markers" d=" M 535.424219617725 1312.879797461071 L 535.424219617725 1345.7595949221425 L 563.8989594902998 1362.199493652678 L 592.3736993628748 1345.7595949221425 L 592.3736993628748 1312.879797461071 L 620.8484392354497 1296.4398987305353 L 620.8484392354497 1263.5601012694638 L 592.3736993628748 1247.120202538928 L 592.3736993628748 1214.2404050778566 L 563.8989594902998 1197.8005063473208 L 535.4242196177249 1214.2404050778566 L 535.4242196177249 1247.120202538928" stroke-miterlimit="10"/><path fill="none" stroke="0xFFFFFF" paint-order="fill stroke markers" d=" M 535.424219617725 1345.7595949221425 L 506.94947974515 1362.199493652678 L 478.474739872575 1345.7595949221425" stroke-miterlimit="10"/><path fill="none" stroke="0xFFFFFF" paint-order="fill stroke markers" d=" M 336.1010405097002 1362.1994936526785 L 364.5757803822752 1345.7595949221427 L 393.05052025485014 1362.1994936526785 L 393.0505202548502 1395.0792911137498" stroke-miterlimit="10"/><path fill="none" stroke="0xFFFFFF" paint-order="fill stroke markers" d=" M 393.05052025485014 1362.1994936526785 L 421.52526012742504 1345.7595949221425 L 450 1362.199493652678" stroke-miterlimit="10"/><path fill="none" stroke="0xFFFFFF" paint-order="fill stroke markers" d=" M 535.4242196177249 1214.2404050778566 L 506.9494797451499 1197.8005063473208 L 478.47473987257496 1214.2404050778566" stroke-miterlimit="10"/><path fill="none" stroke="0xFFFFFF" paint-order="fill stroke markers" d=" M 421.52526012742504 1148.4808101557137 L 450 1164.9207088862495 L 450 1197.8005063473208" stroke-miterlimit="10"/><path fill="none" stroke="0xFFFFFF" paint-order="fill stroke markers" d=" M 336.10104050970017 1296.4398987305356 L 364.5757803822751 1312.8797974610711" stroke-miterlimit="10"/><path fill="none" stroke="0xFFFFFF" paint-order="fill stroke markers" d=" M 364.5757803822751 1312.8797974610711 L 364.5757803822752 1345.7595949221427" stroke-miterlimit="10"/></g></svg>