<svg version="1.1" xmlns="http://www.w3.org/2000/svg" xmlns:xlink="http://www.w3.org/1999/xlink" width="768" height="768"><defs/><g><rect fill="#000000" stroke="none" x="0" y="0" width="768" height="768"/><path fill="#615375" stroke="rgb(0,0,0)" paint-order="fill stroke markers" d=" M 387.9018 500.4612 L 391.6537 501.8269 L 395.1114 504.0447 L 398.1421 507.0294 L 400.6294 510.6663 L 402.4776 514.8156 L 403.6157 519.3178 L 404 524 L 403.6157 528.6822 L 402.4776 533.1844 L 400.6294 537.3337 L 398.1421 540.9706 L 395.1114 543.9553 L 391.6537 546.1731 L 387.9018 547.5388 L 384 548 L 380.0982 547.5388 L 376.3463 546.1731 L 372.8886 543.9553 L 369.8579 540.9706 L 367.3706 537.3337 L 365.5224 533.1844 L 364.3843 528.6822 L 364 524 L 364.3843 519.3178 L 365.5224 514.8156 L 367.3706 510.6663 L 369.8579 507.0294 L 372.8886 504.0447 L 376.3463 501.8269 L 380.0982 500.4612 L 384 500 Z" stroke-opacity="0" stroke-miterlimit="10" stroke-width="0"/><path fill="#e5625c" stroke="rgb(0,0,0)" paint-order="fill stroke markers" d=" M 269.0332 503.5577 L 273 504.9474 L 276.4672 507.0693 L 279.3015 509.8419 L 281.3941 513.1585 L 282.6646 516.8918 L 283.064 520.8982 L 282.5772 525.0238 L 281.2226 529.1101 L 279.0526 533 L 276.1503 536.544 L 272.6274 539.606 L 268.6192 542.0683 L 264.2798 543.8362 L 259.7759 544.8418 L 255.2807 545.0464 L 250.9668 544.4423 L 247 543.0526 L 243.5328 540.9307 L 240.6985 538.1581 L 238.6059 534.8415 L 237.3354 531.1082 L 236.936 527.1018 L 237.4228 522.9762 L 238.7774 518.8899 L 240.9474 515 L 243.8497 511.456 L 247.3726 508.394 L 251.3808 505.9317 L 255.7202 504.1638 L 260.2241 503.1582 L 264.7193 502.9536 Z" stroke-opacity="0" stroke-miterlimit="10" stroke-width="0"/><path fill="#f9bf76" stroke="rgb(0,0,0)" paint-order="fill stroke markers" d=" M 321.7759 503.1582 L 326.2798 504.1638 L 330.6192 505.9317 L 334.6274 508.394 L 338.1503 511.456 L 341.0526 515 L 343.2226 518.8899 L 344.5772 522.9762 L 345.064 527.1018 L 344.6646 531.1082 L 343.3941 534.8415 L 341.3015 538.1581 L 338.4672 540.9307 L 335 543.0526 L 331.0332 544.4423 L 326.7193 545.0464 L 322.2241 544.8418 L 317.7202 543.8362 L 313.3808 542.0683 L 309.3726 539.606 L 305.8497 536.544 L 302.9474 533 L 300.7774 529.1101 L 299.4228 525.0238 L 298.936 520.8982 L 299.3354 516.8918 L 300.6059 513.1585 L 302.6985 509.8419 L 305.5328 507.0693 L 309 504.9474 L 312.9668 503.5577 L 317.2807 502.9536 Z" stroke-opacity="0" stroke-miterlimit="10" stroke-width="0"/><path fill="#8eb2c5" stroke="rgb(0,0,0)" paint-order="fill stroke markers" d=" M 455.0332 503.5577 L 459 504.9474 L 462.4672 507.0693 L 465.3015 509.8419 L 467.3941 513.1585 L 468.6646 516.8918 L 469.064 520.8982 L 468.5772 525.0238 L 467.2226 529.1101 L 465.0526 533 L 462.1503 536.544 L 458.6274 539.606 L 454.6192 542.0683 L 450.2798 543.8362 L 445.7759 544.8418 L 441.2807 545.0464 L 436.9668 544.4423 L 433 543.0526 L 429.5328 540.9307 L 426.6985 538.1581 L 424.6059 534.8415 L 423.3354 531.1082 L 422.936 527.1018 L 423.4228 522.9762 L 424.7774 518.8899 L 426.9474 515 L 429.8497 511.456 L 433.3726 508.394 L 437.3808 505.9317 L 441.7202 504.1638 L 446.2241 503.1582 L 450.7193 502.9536 Z" stroke-opacity="0" stroke-miterlimit="10" stroke-width="0"/><path fill="#615375" stroke="rgb(0,0,0)" paint-order="fill stroke markers" d=" M 507.7759 503.1582 L 512.2798 504.1638 L 516.6192 505.9317 L 520.6274 508.394 L 524.1503 511.456 L 527.0526 515 L 529.2226 518.8899 L 530.5772 522.9762 L 531.064 527.1018 L 530.6646 531.1082 L 529.3941 534.8415 L 527.3015 538.1581 L 524.4672 540.9307 L 521 543.0526 L 517.0332 544.4423 L 512.7193 545.0464 L 508.2241 544.8418 L 503.7202 543.8362 L 499.3808 542.0683 L 495.3726 539.606 L 491.8497 536.544 L 488.9474 533 L 486.7774 529.1101 L 485.4228 525.0238 L 484.936 520.8982 L 485.3354 516.8918 L 486.6059 513.1585 L 488.6985 509.8419 L 491.5328 507.0693 L 495 504.9474 L 498.9668 503.5577 L 503.2807 502.9536 Z" stroke-opacity="0" stroke-miterlimit="10" stroke-width="0"/><path fill="#f9bf76" stroke="rgb(0,0,0)" paint-order="fill stroke markers" d=" M 356.9018 430.4612 L 360.6537 431.8269 L 364.1114 434.0447 L 367.1421 437.0294 L 369.6294 440.6663 L 371.4776 444.8156 L 372.6157 449.3178 L 373 454 L 372.6157 458.6822 L 371.4776 463.1844 L 369.6294 467.3337 L 367.1421 470.9706 L 364.1114 473.9553 L 360.6537 476.1731 L 356.9018 477.5388 L 353 478 L 349.0982 477.5388 L 345.3463 476.1731 L 341.8886 473.9553 L 338.8579 470.9706 L 336.3706 467.3337 L 334.5224 463.1844 L 333.3843 458.6822 L 333 454 L 333.3843 449.3178 L 334.5224 444.8156 L 336.3706 440.6663 L 338.8579 437.0294 L 341.8886 434.0447 L 345.3463 431.8269 L 349.0982 430.4612 L 353 430 Z" stroke-opacity="0" stroke-miterlimit="10" stroke-width="0"/><path fill="#d1313d" stroke="rgb(0,0,0)" paint-order="fill stroke markers" d=" M 290.7759 433.1582 L 295.2798 434.1638 L 299.6192 435.9317 L 303.6274 438.394 L 307.1503 441.456 L 310.0526 445 L 312.2226 448.8899 L 313.5772 452.9762 L 314.064 457.1018 L 313.6646 461.1082 L 312.3941 464.8415 L 310.3015 468.1581 L 307.4672 470.9307 L 304 473.0526 L 300.0332 474.4423 L 295.7193 475.0464 L 291.2241 474.8418 L 286.7202 473.8362 L 282.3808 472.0683 L 278.3726 469.606 L 274.8497 466.544 L 271.9474 463 L 269.7774 459.1101 L 268.4228 455.0238 L 267.936 450.8982 L 268.3354 446.8918 L 269.6059 443.1585 L 271.6985 439.8419 L 274.5328 437.0693 L 278 434.9474 L 281.9668 433.5577 L 286.2807 432.9536 Z" stroke-opacity="0" stroke-miterlimit="10" stroke-width="0"/><path fill="#e5625c" stroke="rgb(0,0,0)" paint-order="fill stroke markers" d=" M 424.0332 433.5577 L 428 434.9474 L 431.4672 437.0693 L 434.3015 439.8419 L 436.3941 443.1585 L 437.6646 446.8918 L 438.064 450.8982 L 437.5772 455.0238 L 436.2226 459.1101 L 434.0526 463 L 431.1503 466.544 L 427.6274 469.606 L 423.6192 472.0683 L 419.2798 473.8362 L 414.7759 474.8418 L 410.2807 475.0464 L 405.9668 474.4423 L 402 473.0526 L 398.5328 470.9307 L 395.6985 468.1581 L 393.6059 464.8415 L 392.3354 461.1082 L 391.936 457.1018 L 392.4228 452.9762 L 393.7774 448.8899 L 395.9474 445 L 398.8497 441.456 L 402.3726 438.394 L 406.3808 435.9317 L 410.7202 434.1638 L 415.2241 433.1582 L 419.7193 432.9536 Z" stroke-opacity="0" stroke-miterlimit="10" stroke-width="0"/><path fill="#f9bf76" stroke="rgb(0,0,0)" paint-order="fill stroke markers" d=" M 476.7759 433.1582 L 481.2798 434.1638 L 485.6192 435.9317 L 489.6274 438.394 L 493.1503 441.456 L 496.0526 445 L 498.2226 448.8899 L 499.5772 452.9762 L 500.064 457.1018 L 499.6646 461.1082 L 498.3941 464.8415 L 496.3015 468.1581 L 493.4672 470.9307 L 490 473.0526 L 486.0332 474.4423 L 481.7193 475.0464 L 477.2241 474.8418 L 472.7202 473.8362 L 468.3808 472.0683 L 464.3726 469.606 L 460.8497 466.544 L 457.9474 463 L 455.7774 459.1101 L 454.4228 455.0238 L 453.936 450.8982 L 454.3354 446.8918 L 455.6059 443.1585 L 457.6985 439.8419 L 460.5328 437.0693 L 464 434.9474 L 467.9668 433.5577 L 472.2807 432.9536 Z" stroke-opacity="0" stroke-miterlimit="10" stroke-width="0"/><path fill="#8eb2c5" stroke="rgb(0,0,0)" paint-order="fill stroke markers" d=" M 263.9018 360.4612 L 267.6537 361.8269 L 271.1114 364.0447 L 274.1421 367.0294 L 276.6294 370.6663 L 278.4776 374.8156 L 279.6157 379.3178 L 280 384 L 279.6157 388.6822 L 278.4776 393.1844 L 276.6294 397.3337 L 274.1421 400.9706 L 271.1114 403.9553 L 267.6537 406.1731 L 263.9018 407.5388 L 260 408 L 256.0982 407.5388 L 252.3463 406.1731 L 248.8886 403.9553 L 245.8579 400.9706 L 243.3706 397.3337 L 241.5224 393.1844 L 240.3843 388.6822 L 240 384 L 240.3843 379.3178 L 241.5224 374.8156 L 243.3706 370.6663 L 245.8579 367.0294 L 248.8886 364.0447 L 252.3463 361.8269 L 256.0982 360.4612 L 260 360 Z" stroke-opacity="0" stroke-miterlimit="10" stroke-width="0"/><path fill="#d1313d" stroke="rgb(0,0,0)" paint-order="fill stroke markers" d=" M 449.9018 360.4612 L 453.6537 361.8269 L 457.1114 364.0447 L 460.1421 367.0294 L 462.6294 370.6663 L 464.4776 374.8156 L 465.6157 379.3178 L 466 384 L 465.6157 388.6822 L 464.4776 393.1844 L 462.6294 397.3337 L 460.1421 400.9706 L 457.1114 403.9553 L 453.6537 406.1731 L 449.9018 407.5388 L 446 408 L 442.0982 407.5388 L 438.3463 406.1731 L 434.8886 403.9553 L 431.8579 400.9706 L 429.3706 397.3337 L 427.5224 393.1844 L 426.3843 388.6822 L 426 384 L 426.3843 379.3178 L 427.5224 374.8156 L 429.3706 370.6663 L 431.8579 367.0294 L 434.8886 364.0447 L 438.3463 361.8269 L 442.0982 360.4612 L 446 360 Z" stroke-opacity="0" stroke-miterlimit="10" stroke-width="0"/><path fill="#e5625c" stroke="rgb(0,0,0)" paint-order="fill stroke markers" d=" M 331.0332 363.5577 L 335 364.9474 L 338.4672 367.0693 L 341.3015 369.8419 L 343.3941 373.1585 L 344.6646 376.8918 L 345.064 380.8982 L 344.5772 385.0238 L 343.2226 389.1101 L 341.0526 393 L 338.1503 396.544 L 334.6274 399.606 L 330.6192 402.0683 L 326.2798 403.8362 L 321.7759 404.8418 L 317.2807 405.0464 L 312.9668 404.4423 L 309 403.0526 L 305.5328 400.9307 L 302.6985 398.1581 L 300.6059 394.8415 L 299.3354 391.1082 L 298.936 387.1018 L 299.4228 382.9762 L 300.7774 378.8899 L 302.9474 375 L 305.8497 371.456 L 309.3726 368.394 L 313.3808 365.9317 L 317.7202 364.1638 L 322.2241 363.1582 L 326.7193 362.9536 Z" stroke-opacity="0" stroke-miterlimit="10" stroke-width="0"/><path fill="#615375" stroke="rgb(0,0,0)" paint-order="fill stroke markers" d=" M 383.7759 363.1582 L 388.2798 364.1638 L 392.6192 365.9317 L 396.6274 368.394 L 400.1503 371.456 L 403.0526 375 L 405.2226 378.8899 L 406.5772 382.9762 L 407.064 387.1018 L 406.6646 391.1082 L 405.3941 394.8415 L 403.3015 398.1581 L 400.4672 400.9307 L 397 403.0526 L 393.0332 404.4423 L 388.7193 405.0464 L 384.2241 404.8418 L 379.7202 403.8362 L 375.3808 402.0683 L 371.3726 399.606 L 367.8497 396.544 L 364.9474 393 L 362.7774 389.1101 L 361.4228 385.0238 L 360.936 380.8982 L 361.3354 376.8918 L 362.6059 373.1585 L 364.6985 369.8419 L 367.5328 367.0693 L 371 364.9474 L 374.9668 363.5577 L 379.2807 362.9536 Z" stroke-opacity="0" stroke-miterlimit="10" stroke-width="0"/><path fill="#d1313d" stroke="rgb(0,0,0)" paint-order="fill stroke markers" d=" M 517.0332 363.5577 L 521 364.9474 L 524.4672 367.0693 L 527.3015 369.8419 L 529.3941 373.1585 L 530.6646 376.8918 L 531.064 380.8982 L 530.5772 385.0238 L 529.2226 389.1101 L 527.0526 393 L 524.1503 396.544 L 520.6274 399.606 L 516.6192 402.0683 L 512.2798 403.8362 L 507.7759 404.8418 L 503.2807 405.0464 L 498.9668 404.4423 L 495 403.0526 L 491.5328 400.9307 L 488.6985 398.1581 L 486.6059 394.8415 L 485.3354 391.1082 L 484.936 387.1018 L 485.4228 382.9762 L 486.7774 378.8899 L 488.9474 375 L 491.8497 371.456 L 495.3726 368.394 L 499.3808 365.9317 L 503.7202 364.1638 L 508.2241 363.1582 L 512.7193 362.9536 Z" stroke-opacity="0" stroke-miterlimit="10" stroke-width="0"/><path fill="#615375" stroke="rgb(0,0,0)" paint-order="fill stroke markers" d=" M 418.9018 290.4612 L 422.6537 291.8269 L 426.1114 294.0447 L 429.1421 297.0294 L 431.6294 300.6663 L 433.4776 304.8156 L 434.6157 309.3178 L 435 314 L 434.6157 318.6822 L 433.4776 323.1844 L 431.6294 327.3337 L 429.1421 330.9706 L 426.1114 333.9553 L 422.6537 336.1731 L 418.9018 337.5388 L 415 338 L 411.0982 337.5388 L 407.3463 336.1731 L 403.8886 333.9553 L 400.8579 330.9706 L 398.3706 327.3337 L 396.5224 323.1844 L 395.3843 318.6822 L 395 314 L 395.3843 309.3178 L 396.5224 304.8156 L 398.3706 300.6663 L 400.8579 297.0294 L 403.8886 294.0447 L 407.3463 291.8269 L 411.0982 290.4612 L 415 290 Z" stroke-opacity="0" stroke-miterlimit="10" stroke-width="0"/><path fill="#f9bf76" stroke="rgb(0,0,0)" paint-order="fill stroke markers" d=" M 300.0332 293.5577 L 304 294.9474 L 307.4672 297.0693 L 310.3015 299.8419 L 312.3941 303.1585 L 313.6646 306.8918 L 314.064 310.8982 L 313.5772 315.0238 L 312.2226 319.1101 L 310.0526 323 L 307.1503 326.544 L 303.6274 329.606 L 299.6192 332.0683 L 295.2798 333.8362 L 290.7759 334.8418 L 286.2807 335.0464 L 281.9668 334.4423 L 278 333.0526 L 274.5328 330.9307 L 271.6985 328.1581 L 269.6059 324.8415 L 268.3354 321.1082 L 267.936 317.1018 L 268.4228 312.9762 L 269.7774 308.8899 L 271.9474 305 L 274.8497 301.456 L 278.3726 298.394 L 282.3808 295.9317 L 286.7202 294.1638 L 291.2241 293.1582 L 295.7193 292.9536 Z" stroke-opacity="0" stroke-miterlimit="10" stroke-width="0"/><path fill="#e5625c" stroke="rgb(0,0,0)" paint-order="fill stroke markers" d=" M 352.7759 293.1582 L 357.2798 294.1638 L 361.6192 295.9317 L 365.6274 298.394 L 369.1503 301.456 L 372.0526 305 L 374.2226 308.8899 L 375.5772 312.9762 L 376.064 317.1018 L 375.6646 321.1082 L 374.3941 324.8415 L 372.3015 328.1581 L 369.4672 330.9307 L 366 333.0526 L 362.0332 334.4423 L 357.7193 335.0464 L 353.2241 334.8418 L 348.7202 333.8362 L 344.3808 332.0683 L 340.3726 329.606 L 336.8497 326.544 L 333.9474 323 L 331.7774 319.1101 L 330.4228 315.0238 L 329.936 310.8982 L 330.3354 306.8918 L 331.6059 303.1585 L 333.6985 299.8419 L 336.5328 297.0693 L 340 294.9474 L 343.9668 293.5577 L 348.2807 292.9536 Z" stroke-opacity="0" stroke-miterlimit="10" stroke-width="0"/><path fill="#8eb2c5" stroke="rgb(0,0,0)" paint-order="fill stroke markers" d=" M 486.0332 293.5577 L 490 294.9474 L 493.4672 297.0693 L 496.3015 299.8419 L 498.3941 303.1585 L 499.6646 306.8918 L 500.064 310.8982 L 499.5772 315.0238 L 498.2226 319.1101 L 496.0526 323 L 493.1503 326.544 L 489.6274 329.606 L 485.6192 332.0683 L 481.2798 333.8362 L 476.7759 334.8418 L 472.2807 335.0464 L 467.9668 334.4423 L 464 333.0526 L 460.5328 330.9307 L 457.6985 328.1581 L 455.6059 324.8415 L 454.3354 321.1082 L 453.936 317.1018 L 454.4228 312.9762 L 455.7774 308.8899 L 457.9474 305 L 460.8497 301.456 L 464.3726 298.394 L 468.3808 295.9317 L 472.7202 294.1638 L 477.2241 293.1582 L 481.7193 292.9536 Z" stroke-opacity="0" stroke-miterlimit="10" stroke-width="0"/><path fill="#e5625c" stroke="rgb(0,0,0)" paint-order="fill stroke markers" d=" M 325.9018 220.4612 L 329.6537 221.8269 L 333.1114 224.0447 L 336.1421 227.0294 L 338.6294 230.6663 L 340.4776 234.8156 L 341.6157 239.3178 L 342 244 L 341.6157 248.6822 L 340.4776 253.1844 L 338.6294 257.3337 L 336.1421 260.9706 L 333.1114 263.9553 L 329.6537 266.1731 L 325.9018 267.5388 L 322 268 L 318.0982 267.5388 L 314.3463 266.1731 L 310.8886 263.9553 L 307.8579 260.9706 L 305.3706 257.3337 L 303.5224 253.1844 L 302.3843 248.6822 L 302 244 L 302.3843 239.3178 L 303.5224 234.8156 L 305.3706 230.6663 L 307.8579 227.0294 L 310.8886 224.0447 L 314.3463 221.8269 L 318.0982 220.4612 L 322 220 Z" stroke-opacity="0" stroke-miterlimit="10" stroke-width="0"/><path fill="#f9bf76" stroke="rgb(0,0,0)" paint-order="fill stroke markers" d=" M 511.9018 220.4612 L 515.6537 221.8269 L 519.1114 224.0447 L 522.1421 227.0294 L 524.6294 230.6663 L 526.4776 234.8156 L 527.6157 239.3178 L 528 244 L 527.6157 248.6822 L 526.4776 253.1844 L 524.6294 257.3337 L 522.1421 260.9706 L 519.1114 263.9553 L 515.6537 266.1731 L 511.9018 267.5388 L 508 268 L 504.0982 267.5388 L 500.3463 266.1731 L 496.8886 263.9553 L 493.8579 260.9706 L 491.3706 257.3337 L 489.5224 253.1844 L 488.3843 248.6822 L 488 244 L 488.3843 239.3178 L 489.5224 234.8156 L 491.3706 230.6663 L 493.8579 227.0294 L 496.8886 224.0447 L 500.3463 221.8269 L 504.0982 220.4612 L 508 220 Z" stroke-opacity="0" stroke-miterlimit="10" stroke-width="0"/><path fill="#615375" stroke="rgb(0,0,0)" paint-order="fill stroke markers" d=" M 259.7759 223.1582 L 264.2798 224.1638 L 268.6192 225.9317 L 272.6274 228.394 L 276.1503 231.456 L 279.0526 235 L 281.2226 238.8899 L 282.5772 242.9762 L 283.064 247.1018 L 282.6646 251.1082 L 281.3941 254.8415 L 279.3015 258.1581 L 276.4672 260.9307 L 273 263.0526 L 269.0332 264.4423 L 264.7193 265.0464 L 260.2241 264.8418 L 255.7202 263.8362 L 251.3808 262.0683 L 247.3726 259.606 L 243.8497 256.544 L 240.9474 253 L 238.7774 249.1101 L 237.4228 245.0238 L 236.936 240.8982 L 237.3354 236.8918 L 238.6059 233.1585 L 240.6985 229.8419 L 243.5328 227.0693 L 247 224.9474 L 250.9668 223.5577 L 255.2807 222.9536 Z" stroke-opacity="0" stroke-miterlimit="10" stroke-width="0"/><path fill="#d1313d" stroke="rgb(0,0,0)" paint-order="fill stroke markers" d=" M 393.0332 223.5577 L 397 224.9474 L 400.4672 227.0693 L 403.3015 229.8419 L 405.3941 233.1585 L 406.6646 236.8918 L 407.064 240.8982 L 406.5772 245.0238 L 405.2226 249.1101 L 403.0526 253 L 400.1503 256.544 L 396.6274 259.606 L 392.6192 262.0683 L 388.2798 263.8362 L 383.7759 264.8418 L 379.2807 265.0464 L 374.9668 264.4423 L 371 263.0526 L 367.5328 260.9307 L 364.6985 258.1581 L 362.6059 254.8415 L 361.3354 251.1082 L 360.936 247.1018 L 361.4228 242.9762 L 362.7774 238.8899 L 364.9474 235 L 367.8497 231.456 L 371.3726 228.394 L 375.3808 225.9317 L 379.7202 224.1638 L 384.2241 223.1582 L 388.7193 222.9536 Z" stroke-opacity="0" stroke-miterlimit="10" stroke-width="0"/><path fill="#8eb2c5" stroke="rgb(0,0,0)" paint-order="fill stroke markers" d=" M 445.7759 223.1582 L 450.2798 224.1638 L 454.6192 225.9317 L 458.6274 228.394 L 462.1503 231.456 L 465.0526 235 L 467.2226 238.8899 L 468.5772 242.9762 L 469.064 247.1018 L 468.6646 251.1082 L 467.3941 254.8415 L 465.3015 258.1581 L 462.4672 260.9307 L 459 263.0526 L 455.0332 264.4423 L 450.7193 265.0464 L 446.2241 264.8418 L 441.7202 263.8362 L 437.3808 262.0683 L 433.3726 259.606 L 429.8497 256.544 L 426.9474 253 L 424.7774 249.1101 L 423.4228 245.0238 L 422.936 240.8982 L 423.3354 236.8918 L 424.6059 233.1585 L 426.6985 229.8419 L 429.5328 227.0693 L 433 224.9474 L 436.9668 223.5577 L 441.2807 222.9536 Z" stroke-opacity="0" stroke-miterlimit="10" stroke-width="0"/></g></svg>