<svg version="1.1" xmlns="http://www.w3.org/2000/svg" xmlns:xlink="http://www.w3.org/1999/xlink" width="900" height="1600"><defs/><g><path fill="#222222" stroke="#cccccc" paint-order="fill stroke markers" d=" M 282.55769 88.40489 L 282.55769 114.45226 L 264 125.16654 L 264 141.97631 L 278.55769 150.3812 L 297.11537 139.66691 L 319.67306 152.6906 L 319.67306 174.11917 L 334.23075 182.52406 L 348.78844 174.11917 L 348.78844 152.6906 L 371.34612 139.66691 L 393.90381 152.6906 L 393.90381 178.73797 L 371.34612 191.76166 L 352.78844 181.04737 L 334.23075 191.76166 L 315.67306 181.04737 L 301.11537 189.45226 L 301.11537 210.88083 L 282.55769 221.59511 L 282.55769 238.40489 L 301.11537 249.11917 L 301.11537 270.54774 L 315.67306 278.95263 L 334.23075 268.23834 L 352.78844 278.95263 L 371.34612 268.23834 L 393.90381 281.26203 L 393.90381 307.3094 L 371.34612 320.33309 L 350.78844 308.4641 L 350.74244 308.42531 L 350.68646 308.40319 L 350.20524 307.97227 L 349.71157 307.55595 L 349.68187 307.50361 L 349.63704 307.46347 L 349.3351 306.89256 L 349.01631 306.3308 L 349.00659 306.2714 L 348.97846 306.21821 L 348.78844 305 L 348.78844 285.88083 L 334.23075 277.47594 L 319.67306 285.88083 L 319.67306 307.3094 L 297.11537 320.33309 L 278.55769 309.6188 L 264 318.02369 L 264 334.83346 L 282.55769 345.54774 L 282.55769 371.59511 L 260 384.6188 L 237.44231 371.59511 L 237.44231 345.54774 L 256 334.83346 L 256 313.40489 L 274.55769 302.6906 L 274.55769 285.88083 L 256 275.16654 L 256 253.73797 L 241.44231 245.33309 L 222.88463 256.04737 L 204.32694 245.33309 L 189.76925 253.73797 L 189.76925 275.16654 L 171.21156 285.88083 L 171.21156 307.3094 L 148.65388 320.33309 L 126.09619 307.3094 L 126.09619 281.26203 L 148.65388 268.23834 L 167.21156 278.95263 L 181.76925 270.54774 L 181.76925 253.73797 L 163.21156 243.02369 L 163.21156 216.97631 L 181.76925 206.26203 L 181.76925 189.45226 L 167.21156 181.04737 L 148.65388 191.76166 L 126.09619 178.73797 L 126.09619 152.6906 L 148.65388 139.66691 L 171.21156 152.6906 L 171.21156 174.11917 L 189.76925 184.83346 L 189.76925 206.26203 L 204.32694 214.66691 L 222.88463 203.95263 L 241.44231 214.66691 L 256 206.26203 L 256 184.83346 L 274.55769 174.11917 L 274.55769 157.3094 L 256 146.59511 L 256 125.16654 L 237.44231 114.45226 L 237.44231 88.40489 L 260 75.3812 Z M 245.44231 350.16654 L 245.44231 366.97631 L 260 375.3812 L 274.55769 366.97631 L 274.55769 350.16654 L 260 341.76166 Z M 134.09619 285.88083 L 134.09619 302.6906 L 148.65388 311.09549 L 163.21156 302.6906 L 163.21156 285.88083 L 148.65388 277.47594 Z M 282.55769 285.88083 L 282.55769 302.6906 L 297.11537 311.09549 L 311.67306 302.6906 L 311.67306 285.88083 L 297.11537 277.47594 Z M 356.78844 285.88083 L 356.78844 302.6906 L 371.34612 311.09549 L 385.90381 302.6906 L 385.90381 285.88083 L 371.34612 277.47594 Z M 264 189.45226 L 264 210.88083 L 241.44231 223.90451 L 222.88463 213.19023 L 208.32694 221.59511 L 208.32694 238.40489 L 222.88463 246.80977 L 241.44231 236.09549 L 264 249.11917 L 264 270.54774 L 278.55769 278.95263 L 293.11537 270.54774 L 293.11537 253.73797 L 274.55769 243.02369 L 274.55769 216.97631 L 293.11537 206.26203 L 293.11537 189.45226 L 278.55769 181.04737 Z M 171.21156 221.59511 L 171.21156 238.40489 L 185.76925 246.80977 L 200.32694 238.40489 L 200.32694 221.59511 L 185.76925 213.19023 Z M 134.09619 157.3094 L 134.09619 174.11917 L 148.65388 182.52406 L 163.21156 174.11917 L 163.21156 157.3094 L 148.65388 148.90451 Z M 282.55769 157.3094 L 282.55769 174.11917 L 297.11537 182.52406 L 311.67306 174.11917 L 311.67306 157.3094 L 297.11537 148.90451 Z M 356.78844 157.3094 L 356.78844 174.11917 L 371.34612 182.52406 L 385.90381 174.11917 L 385.90381 157.3094 L 371.34612 148.90451 Z M 245.44231 93.02369 L 245.44231 109.83346 L 260 118.23834 L 274.55769 109.83346 L 274.55769 93.02369 L 260 84.6188 Z" stroke-miterlimit="10"/><path fill="#222222" stroke="#cccccc" paint-order="fill stroke markers" d=" M 607.97117 92.48243 L 607.97117 113.28368 L 621.98558 121.37491 L 640 110.97428 L 662.01442 123.68431 L 662.01442 144.48557 L 676.02883 152.5768 L 694.04325 142.17617 L 716.05767 154.8862 L 716.05767 175.68746 L 730.07209 183.77869 L 748.0865 173.37806 L 770.10092 186.08809 L 770.10092 211.50814 L 748.0865 224.21817 L 730.07209 213.81754 L 716.05767 221.90877 L 716.05767 238.09123 L 730.07209 246.18246 L 748.0865 235.78183 L 770.10092 248.49186 L 770.10092 273.91191 L 748.0865 286.62194 L 730.07209 276.22131 L 716.05767 284.31254 L 716.05767 305.1138 L 694.04325 317.82383 L 676.02883 307.4232 L 662.01442 315.51443 L 662.01442 336.31569 L 640 349.02572 L 621.98558 338.62509 L 607.97117 346.71632 L 607.97117 367.51757 L 585.95675 380.2276 L 563.94233 367.51757 L 563.94233 342.09752 L 581.95675 331.69689 L 581.95675 315.51443 L 567.94233 307.4232 L 553.92791 315.51443 L 553.92791 336.31569 L 531.9135 349.02572 L 509.89908 336.31569 L 509.89908 310.89563 L 527.9135 300.495 L 527.9135 284.31254 L 509.89908 273.91191 L 509.89908 248.49186 L 527.9135 238.09123 L 527.9135 221.90877 L 509.89908 211.50814 L 509.89908 186.08809 L 527.9135 175.68746 L 527.9135 159.505 L 509.89908 149.10437 L 509.89908 123.68431 L 531.9135 110.97428 L 553.92791 123.68431 L 553.92791 144.48557 L 567.94233 152.5768 L 581.95675 144.48557 L 581.95675 128.30311 L 563.94233 117.90248 L 563.94233 92.48243 L 585.95675 79.7724 Z M 730.07209 255.42006 L 712.05767 245.01943 L 698.04325 253.11066 L 698.04325 273.91191 L 676.02883 286.62194 L 654.01442 273.91191 L 654.01442 253.11066 L 640 245.01943 L 625.98558 253.11066 L 625.98558 269.29311 L 644 279.69374 L 644 305.1138 L 621.98558 317.82383 L 603.97117 307.4232 L 589.95675 315.51443 L 589.95675 334.00629 L 589.94615 334.06552 L 589.95499 334.12506 L 589.82242 334.75721 L 589.7087 335.39296 L 589.67822 335.44486 L 589.66587 335.50375 L 589.32253 336.0505 L 588.99533 336.60765 L 588.94873 336.64578 L 588.91674 336.69672 L 587.95675 337.47039 L 571.94233 346.71632 L 571.94233 362.89877 L 585.95675 370.99 L 599.97117 362.89877 L 599.97117 342.09752 L 621.98558 329.38749 L 640 339.78812 L 654.01442 331.69689 L 654.01442 310.89563 L 676.02883 298.1856 L 694.04325 308.58623 L 708.05767 300.495 L 708.05767 279.69374 L 730.07209 266.98371 L 748.0865 277.38434 L 762.10092 269.29311 L 762.10092 253.11066 L 748.0865 245.01943 Z M 517.89908 128.30311 L 517.89908 144.48557 L 535.9135 154.8862 L 535.9135 180.30626 L 517.89908 190.70689 L 517.89908 206.88934 L 535.9135 217.28997 L 535.9135 242.71003 L 517.89908 253.11066 L 517.89908 269.29311 L 535.9135 279.69374 L 535.9135 305.1138 L 517.89908 315.51443 L 517.89908 331.69689 L 531.9135 339.78812 L 545.92791 331.69689 L 545.92791 310.89563 L 563.94233 300.495 L 563.94233 284.31254 L 545.92791 273.91191 L 545.92791 248.49186 L 567.94233 235.78183 L 585.95675 246.18246 L 599.97117 238.09123 L 599.97117 221.90877 L 585.95675 213.81754 L 567.94233 224.21817 L 545.92791 211.50814 L 545.92791 186.08809 L 563.94233 175.68746 L 563.94233 159.505 L 545.92791 149.10437 L 545.92791 128.30311 L 531.9135 120.21188 Z M 603.97117 161.8144 L 585.95675 151.41377 L 571.94233 159.505 L 571.94233 180.30626 L 553.92791 190.70689 L 553.92791 206.88934 L 567.94233 214.98057 L 585.95675 204.57994 L 607.97117 217.28997 L 607.97117 242.71003 L 585.95675 255.42006 L 567.94233 245.01943 L 553.92791 253.11066 L 553.92791 269.29311 L 571.94233 279.69374 L 571.94233 300.495 L 585.95675 308.58623 L 603.97117 298.1856 L 621.98558 308.58623 L 636 300.495 L 636 284.31254 L 617.98558 273.91191 L 617.98558 248.49186 L 640 235.78183 L 662.01442 248.49186 L 662.01442 269.29311 L 676.02883 277.38434 L 690.04325 269.29311 L 690.04325 248.49186 L 708.05767 238.09123 L 708.05767 221.90877 L 690.04325 211.50814 L 690.04325 190.70689 L 676.02883 182.61566 L 662.01442 190.70689 L 662.01442 211.50814 L 640 224.21817 L 617.98558 211.50814 L 617.98558 186.08809 L 636 175.68746 L 636 159.505 L 621.98558 151.41377 Z M 571.94233 97.10123 L 571.94233 113.28368 L 589.95675 123.68431 L 589.95675 144.48557 L 603.97117 152.5768 L 621.98558 142.17617 L 644 154.8862 L 644 180.30626 L 625.98558 190.70689 L 625.98558 206.88934 L 640 214.98057 L 654.01442 206.88934 L 654.01442 186.08809 L 676.02883 173.37806 L 698.04325 186.08809 L 698.04325 206.88934 L 712.05767 214.98057 L 730.07209 204.57994 L 748.0865 214.98057 L 762.10092 206.88934 L 762.10092 190.70689 L 748.0865 182.61566 L 730.07209 193.01629 L 708.05767 180.30626 L 708.05767 159.505 L 694.04325 151.41377 L 676.02883 161.8144 L 654.01442 149.10437 L 654.01442 128.30311 L 640 120.21188 L 621.98558 130.61251 L 599.97117 117.90248 L 599.97117 97.10123 L 585.95675 89.01 Z" stroke-miterlimit="10"/><path fill="#222222" stroke="#cccccc" paint-order="fill stroke markers" d=" M 282.55769 468.40489 L 282.55769 489.83346 L 301.11537 500.54774 L 301.11537 526.59511 L 282.55769 537.3094 L 282.55769 554.11917 L 297.11537 562.52406 L 311.67306 554.11917 L 311.67306 532.6906 L 334.23075 519.66691 L 352.78844 530.3812 L 371.34612 519.66691 L 393.90381 532.6906 L 393.90381 558.73797 L 371.34612 571.76166 L 352.78844 561.04737 L 338.23075 569.45226 L 338.23075 590.88083 L 319.67306 601.59511 L 319.67306 618.40489 L 338.23075 629.11917 L 338.23075 650.54774 L 352.78844 658.95263 L 371.34612 648.23834 L 393.90381 661.26203 L 393.90381 687.3094 L 371.34612 700.33309 L 352.78844 689.6188 L 334.23075 700.33309 L 311.67306 687.3094 L 311.67306 665.88083 L 297.11537 657.47594 L 282.55769 665.88083 L 282.55769 682.6906 L 301.11537 693.40489 L 301.11537 719.45226 L 282.55769 730.16654 L 282.55769 751.59511 L 260 764.6188 L 237.44231 751.59511 L 237.44231 725.54774 L 256 714.83346 L 256 698.02369 L 237.44231 687.3094 L 237.44231 665.88083 L 222.88463 657.47594 L 204.32694 668.19023 L 185.76925 657.47594 L 171.21156 665.88083 L 171.21156 687.3094 L 148.65388 700.33309 L 126.09619 687.3094 L 126.09619 661.26203 L 144.65388 650.54774 L 144.65388 629.11917 L 167.21156 616.09549 L 185.76925 626.80977 L 200.32694 618.40489 L 200.32694 601.59511 L 185.76925 593.19023 L 167.21156 603.90451 L 144.65388 590.88083 L 144.65388 569.45226 L 126.09619 558.73797 L 126.09619 532.6906 L 148.65388 519.66691 L 171.21156 532.6906 L 171.21156 554.11917 L 185.76925 562.52406 L 204.32694 551.80977 L 222.88463 562.52406 L 237.44231 554.11917 L 237.44231 532.6906 L 256 521.97631 L 256 505.16654 L 237.44231 494.45226 L 237.44231 468.40489 L 260 455.3812 Z M 245.44231 665.88083 L 245.44231 682.6906 L 264 693.40489 L 264 719.45226 L 245.44231 730.16654 L 245.44231 746.97631 L 260 755.3812 L 274.55769 746.97631 L 274.55769 725.54774 L 293.11537 714.83346 L 293.11537 698.02369 L 274.55769 687.3094 L 274.55769 665.88083 L 260 657.47594 Z M 185.76925 636.04737 L 167.21156 625.33309 L 152.65388 633.73797 L 152.65388 655.16654 L 134.09619 665.88083 L 134.09619 682.6906 L 148.65388 691.09549 L 163.21156 682.6906 L 163.21156 661.26203 L 185.76925 648.23834 L 204.32694 658.95263 L 218.88463 650.54774 L 218.88463 633.73797 L 204.32694 625.33309 Z M 301.11537 633.73797 L 301.11537 650.54774 L 319.67306 661.26203 L 319.67306 682.6906 L 334.23075 691.09549 L 352.78844 680.3812 L 371.34612 691.09549 L 385.90381 682.6906 L 385.90381 665.88083 L 371.34612 657.47594 L 352.78844 668.19023 L 330.23075 655.16654 L 330.23075 633.73797 L 315.67306 625.33309 Z M 260 571.76166 L 241.44231 561.04737 L 226.88463 569.45226 L 226.88463 590.88083 L 208.32694 601.59511 L 208.32694 618.40489 L 226.88463 629.11917 L 226.88463 650.54774 L 241.44231 658.95263 L 260 648.23834 L 278.55769 658.95263 L 293.11537 650.54774 L 293.11537 629.11917 L 311.67306 618.40489 L 311.67306 601.59511 L 293.11537 590.88083 L 293.11537 569.45226 L 278.55769 561.04737 Z M 134.09619 537.3094 L 134.09619 554.11917 L 152.65388 564.83346 L 152.65388 586.26203 L 167.21156 594.66691 L 185.76925 583.95263 L 204.32694 594.66691 L 218.88463 586.26203 L 218.88463 569.45226 L 204.32694 561.04737 L 185.76925 571.76166 L 163.21156 558.73797 L 163.21156 537.3094 L 148.65388 528.90451 Z M 352.78844 539.6188 L 334.23075 528.90451 L 319.67306 537.3094 L 319.67306 558.73797 L 301.11537 569.45226 L 301.11537 586.26203 L 315.67306 594.66691 L 330.23075 586.26203 L 330.23075 564.83346 L 352.78844 551.80977 L 371.34612 562.52406 L 385.90381 554.11917 L 385.90381 537.3094 L 371.34612 528.90451 Z M 245.44231 473.02369 L 245.44231 489.83346 L 264 500.54774 L 264 526.59511 L 245.44231 537.3094 L 245.44231 554.11917 L 260 562.52406 L 274.55769 554.11917 L 274.55769 532.6906 L 293.11537 521.97631 L 293.11537 505.16654 L 274.55769 494.45226 L 274.55769 473.02369 L 260 464.6188 Z" stroke-miterlimit="10"/><path fill="#222222" stroke="#cccccc" paint-order="fill stroke markers" d=" M 716.05767 472.48243 L 716.05767 493.28368 L 730.07209 501.37491 L 748.0865 490.97428 L 770.10092 503.68431 L 770.10092 529.10437 L 748.0865 541.8144 L 730.07209 531.41377 L 716.05767 539.505 L 716.05767 555.68746 L 730.07209 563.77869 L 748.0865 553.37806 L 770.10092 566.08809 L 770.10092 591.50814 L 748.0865 604.21817 L 730.07209 593.81754 L 712.05767 604.21817 L 694.04325 593.81754 L 680.02883 601.90877 L 680.02883 618.09123 L 694.04325 626.18246 L 712.05767 615.78183 L 730.07209 626.18246 L 748.0865 615.78183 L 770.10092 628.49186 L 770.10092 653.91191 L 748.0865 666.62194 L 730.07209 656.22131 L 716.05767 664.31254 L 716.05767 680.495 L 730.07209 688.58623 L 748.0865 678.1856 L 770.10092 690.89563 L 770.10092 716.31569 L 748.0865 729.02572 L 730.07209 718.62509 L 716.05767 726.71632 L 716.05767 747.51757 L 694.04325 760.2276 L 672.02883 747.51757 L 672.02883 722.09752 L 690.04325 711.69689 L 690.04325 695.51443 L 676.02883 687.4232 L 662.01442 695.51443 L 662.01442 716.31569 L 640 729.02572 L 617.98558 716.31569 L 617.98558 690.89563 L 636 680.495 L 636 659.69374 L 654.01442 649.29311 L 654.01442 633.11066 L 640 625.01943 L 625.98558 633.11066 L 625.98558 653.91191 L 607.97117 664.31254 L 607.97117 685.1138 L 585.95675 697.82383 L 563.94233 685.1138 L 563.94233 659.69374 L 581.95675 649.29311 L 581.95675 633.11066 L 567.94233 625.01943 L 553.92791 633.11066 L 553.92791 653.91191 L 531.9135 666.62194 L 509.89908 653.91191 L 509.89908 628.49186 L 527.9135 618.09123 L 527.9135 601.90877 L 509.89908 591.50814 L 509.89908 566.08809 L 531.9135 553.37806 L 553.92791 566.08809 L 553.92791 586.88934 L 567.94233 594.98057 L 581.95675 586.88934 L 581.95675 570.70689 L 563.94233 560.30626 L 563.94233 534.8862 L 585.95675 522.17617 L 607.97117 534.8862 L 607.97117 555.68746 L 625.98558 566.08809 L 625.98558 586.88934 L 640 594.98057 L 654.01442 586.88934 L 654.01442 570.70689 L 636 560.30626 L 636 539.505 L 617.98558 529.10437 L 617.98558 503.68431 L 640 490.97428 L 662.01442 503.68431 L 662.01442 524.48557 L 676.02883 532.5768 L 690.04325 524.48557 L 690.04325 508.30311 L 672.02883 497.90248 L 672.02883 472.48243 L 694.04325 459.7724 Z M 730.07209 635.42006 L 712.05767 625.01943 L 694.04325 635.42006 L 676.02883 625.01943 L 662.01442 633.11066 L 662.01442 651.60251 L 662.00382 651.66174 L 662.01266 651.72128 L 661.88009 652.35343 L 661.76637 652.98918 L 661.73589 653.04108 L 661.72354 653.09997 L 661.3802 653.64672 L 661.053 654.20387 L 661.0064 654.242 L 660.97441 654.29294 L 660.01442 655.06661 L 644 664.31254 L 644 685.1138 L 625.98558 695.51443 L 625.98558 711.69689 L 640 719.78812 L 654.01442 711.69689 L 654.01442 690.89563 L 676.02883 678.1856 L 698.04325 690.89563 L 698.04325 716.31569 L 680.02883 726.71632 L 680.02883 742.89877 L 694.04325 750.99 L 708.05767 742.89877 L 708.05767 722.09752 L 730.07209 709.38749 L 748.0865 719.78812 L 762.10092 711.69689 L 762.10092 695.51443 L 748.0865 687.4232 L 730.07209 697.82383 L 708.05767 685.1138 L 708.05767 659.69374 L 730.07209 646.98371 L 748.0865 657.38434 L 762.10092 649.29311 L 762.10092 633.11066 L 748.0865 625.01943 Z M 571.94233 539.505 L 571.94233 555.68746 L 589.95675 566.08809 L 589.95675 591.50814 L 567.94233 604.21817 L 545.92791 591.50814 L 545.92791 570.70689 L 531.9135 562.61566 L 517.89908 570.70689 L 517.89908 586.88934 L 535.9135 597.28997 L 535.9135 622.71003 L 517.89908 633.11066 L 517.89908 649.29311 L 531.9135 657.38434 L 545.92791 649.29311 L 545.92791 628.49186 L 567.94233 615.78183 L 589.95675 628.49186 L 589.95675 653.91191 L 571.94233 664.31254 L 571.94233 680.495 L 585.95675 688.58623 L 599.97117 680.495 L 599.97117 659.69374 L 617.98558 649.29311 L 617.98558 628.49186 L 636 618.09123 L 636 601.90877 L 617.98558 591.50814 L 617.98558 570.70689 L 599.97117 560.30626 L 599.97117 539.505 L 585.95675 531.41377 Z M 644 601.90877 L 644 618.09123 L 658.01442 626.18246 L 672.02883 618.09123 L 672.02883 601.90877 L 658.01442 593.81754 Z M 680.02883 477.10123 L 680.02883 493.28368 L 698.04325 503.68431 L 698.04325 529.10437 L 676.02883 541.8144 L 654.01442 529.10437 L 654.01442 508.30311 L 640 500.21188 L 625.98558 508.30311 L 625.98558 524.48557 L 644 534.8862 L 644 555.68746 L 662.01442 566.08809 L 662.01442 586.88934 L 676.02883 594.98057 L 694.04325 584.57994 L 712.05767 594.98057 L 730.07209 584.57994 L 748.0865 594.98057 L 762.10092 586.88934 L 762.10092 570.70689 L 748.0865 562.61566 L 730.07209 573.01629 L 708.05767 560.30626 L 708.05767 534.8862 L 730.07209 522.17617 L 748.0865 532.5768 L 762.10092 524.48557 L 762.10092 508.30311 L 748.0865 500.21188 L 730.07209 510.61251 L 708.05767 497.90248 L 708.05767 477.10123 L 694.04325 469.01 Z" stroke-miterlimit="10"/><path fill="#222222" stroke="#cccccc" paint-order="fill stroke markers" d=" M 252.33429 852.98662 L 252.33429 879.92742 L 275.66571 893.39782 L 275.66571 920.33861 L 294.99712 931.49961 L 318.32853 918.02921 L 341.65995 931.49961 L 364.99136 918.02921 L 392.32277 933.80901 L 392.32277 965.3686 L 364.99136 981.1484 L 341.65995 967.678 L 322.32853 978.839 L 322.32853 1001.161 L 341.65995 1012.322 L 364.99136 998.8516 L 392.32277 1014.6314 L 392.32277 1046.19099 L 364.99136 1061.97079 L 341.65995 1048.50039 L 318.32853 1061.97079 L 294.99712 1048.50039 L 275.66571 1059.66139 L 275.66571 1086.60218 L 252.33429 1100.07258 L 252.33429 1127.01338 L 225.00288 1142.79317 L 197.67147 1127.01338 L 197.67147 1095.45378 L 221.00288 1081.98338 L 221.00288 1059.66139 L 201.67147 1048.50039 L 182.34005 1059.66139 L 182.34005 1086.60218 L 155.00864 1102.38198 L 127.67723 1086.60218 L 127.67723 1055.04259 L 151.00864 1041.57219 L 151.00864 1014.6314 L 174.34005 1001.161 L 174.34005 978.839 L 151.00864 965.3686 L 151.00864 938.42781 L 127.67723 924.95741 L 127.67723 893.39782 L 155.00864 877.61802 L 182.34005 893.39782 L 182.34005 920.33861 L 201.67147 931.49961 L 221.00288 920.33861 L 221.00288 898.01662 L 197.67147 884.54622 L 197.67147 852.98662 L 225.00288 837.20683 Z M 205.67147 1100.07258 L 205.67147 1122.39458 L 225.00288 1133.55557 L 244.33429 1122.39458 L 244.33429 1100.07258 L 225.00288 1088.91158 Z M 135.67723 1059.66139 L 135.67723 1081.98338 L 155.00864 1093.14438 L 174.34005 1081.98338 L 174.34005 1059.66139 L 155.00864 1048.50039 Z M 229.00288 1059.66139 L 229.00288 1081.98338 L 248.33429 1093.14438 L 267.66571 1081.98338 L 267.66571 1059.66139 L 248.33429 1048.50039 Z M 159.00864 1019.2502 L 159.00864 1041.57219 L 178.34005 1052.73319 L 197.67147 1041.57219 L 197.67147 1019.2502 L 178.34005 1008.0892 Z M 205.67147 938.42781 L 205.67147 960.7498 L 229.00288 974.2202 L 229.00288 1005.7798 L 205.67147 1019.2502 L 205.67147 1041.57219 L 225.00288 1052.73319 L 244.33429 1041.57219 L 244.33429 1014.6314 L 271.66571 998.8516 L 294.99712 1012.322 L 314.32853 1001.161 L 314.32853 978.839 L 294.99712 967.678 L 271.66571 981.1484 L 244.33429 965.3686 L 244.33429 938.42781 L 225.00288 927.26681 Z M 252.33429 1019.2502 L 252.33429 1041.57219 L 271.66571 1052.73319 L 290.99712 1041.57219 L 290.99712 1019.2502 L 271.66571 1008.0892 Z M 298.99712 1019.2502 L 298.99712 1041.57219 L 318.32853 1052.73319 L 337.65995 1041.57219 L 337.65995 1019.2502 L 318.32853 1008.0892 Z M 345.65995 1019.2502 L 345.65995 1041.57219 L 364.99136 1052.73319 L 384.32277 1041.57219 L 384.32277 1019.2502 L 364.99136 1008.0892 Z M 182.34005 978.839 L 182.34005 1001.161 L 201.67147 1012.322 L 221.00288 1001.161 L 221.00288 978.839 L 201.67147 967.678 Z M 159.00864 938.42781 L 159.00864 960.7498 L 178.34005 971.9108 L 197.67147 960.7498 L 197.67147 938.42781 L 178.34005 927.26681 Z M 252.33429 938.42781 L 252.33429 960.7498 L 271.66571 971.9108 L 290.99712 960.7498 L 290.99712 938.42781 L 271.66571 927.26681 Z M 298.99712 938.42781 L 298.99712 960.7498 L 318.32853 971.9108 L 337.65995 960.7498 L 337.65995 938.42781 L 318.32853 927.26681 Z M 345.65995 938.42781 L 345.65995 960.7498 L 364.99136 971.9108 L 384.32277 960.7498 L 384.32277 938.42781 L 364.99136 927.26681 Z M 135.67723 898.01662 L 135.67723 920.33861 L 155.00864 931.49961 L 174.34005 920.33861 L 174.34005 898.01662 L 155.00864 886.85562 Z M 229.00288 898.01662 L 229.00288 920.33861 L 248.33429 931.49961 L 267.66571 920.33861 L 267.66571 898.01662 L 248.33429 886.85562 Z M 205.67147 857.60542 L 205.67147 879.92742 L 225.00288 891.08842 L 244.33429 879.92742 L 244.33429 857.60542 L 225.00288 846.44443 Z" stroke-miterlimit="10"/><path fill="#222222" stroke="#cccccc" paint-order="fill stroke markers" d=" M 690.66283 852.98662 L 690.66283 879.92742 L 709.99424 891.08842 L 733.32565 877.61802 L 760.65707 893.39782 L 760.65707 920.33861 L 783.98848 933.80901 L 783.98848 965.3686 L 756.65707 981.1484 L 733.32565 967.678 L 713.99424 978.839 L 713.99424 1001.161 L 733.32565 1012.322 L 756.65707 998.8516 L 783.98848 1014.6314 L 783.98848 1046.19099 L 760.65707 1059.66139 L 760.65707 1086.60218 L 733.32565 1102.38198 L 709.99424 1088.91158 L 690.66283 1100.07258 L 690.66283 1127.01338 L 663.33141 1142.79317 L 640 1129.32278 L 616.66859 1142.79317 L 589.33717 1127.01338 L 589.33717 1095.45378 L 612.66859 1081.98338 L 612.66859 1059.66139 L 593.33717 1048.50039 L 574.00576 1059.66139 L 574.00576 1086.60218 L 546.67435 1102.38198 L 519.34293 1086.60218 L 519.34293 1059.66139 L 496.01152 1046.19099 L 496.01152 1014.6314 L 519.34293 1001.161 L 519.34293 978.839 L 496.01152 965.3686 L 496.01152 933.80901 L 519.34293 920.33861 L 519.34293 893.39782 L 546.67435 877.61802 L 574.00576 893.39782 L 574.00576 920.33861 L 593.33717 931.49961 L 612.66859 920.33861 L 612.66859 898.01662 L 589.33717 884.54622 L 589.33717 852.98662 L 616.66859 837.20683 L 640 850.67722 L 663.33141 837.20683 Z M 597.33717 1100.07258 L 597.33717 1122.39458 L 616.66859 1133.55557 L 636 1122.39458 L 636 1100.07258 L 616.66859 1088.91158 Z M 686.66283 1021.5596 L 663.33141 1008.0892 L 644 1019.2502 L 644 1046.19099 L 620.66859 1059.66139 L 620.66859 1081.98338 L 644 1095.45378 L 644 1122.39458 L 663.33141 1133.55557 L 682.66283 1122.39458 L 682.66283 1095.45378 L 709.99424 1079.67398 L 733.32565 1093.14438 L 752.65707 1081.98338 L 752.65707 1059.66139 L 729.32565 1046.19099 L 729.32565 1019.2502 L 709.99424 1008.0892 Z M 527.34293 1059.66139 L 527.34293 1081.98338 L 546.67435 1093.14438 L 566.00576 1081.98338 L 566.00576 1059.66139 L 546.67435 1048.50039 Z M 546.67435 940.73721 L 523.34293 927.26681 L 504.01152 938.42781 L 504.01152 960.7498 L 527.34293 974.2202 L 527.34293 1005.7798 L 504.01152 1019.2502 L 504.01152 1041.57219 L 523.34293 1052.73319 L 544.67435 1040.41749 L 544.73095 1040.39705 L 544.77809 1040.35963 L 545.39185 1040.15835 L 545.99926 1039.93897 L 546.05944 1039.93942 L 546.11663 1039.92066 L 546.7622 1039.94464 L 547.4079 1039.94943 L 547.46418 1039.97071 L 547.52434 1039.97294 L 548.67435 1040.41749 L 570.00576 1052.73319 L 589.33717 1041.57219 L 589.33717 1014.6314 L 612.66859 1001.161 L 612.66859 978.839 L 591.33717 966.5233 L 591.29117 966.48451 L 591.23519 966.46239 L 590.75397 966.03147 L 590.2603 965.61515 L 590.2306 965.56281 L 590.18577 965.52267 L 589.88388 964.95184 L 589.56504 964.39001 L 589.55532 964.3306 L 589.52719 964.27741 L 589.33717 963.0592 L 589.33717 938.42781 L 570.00576 927.26681 Z M 597.33717 938.42781 L 597.33717 960.7498 L 620.66859 974.2202 L 620.66859 1005.7798 L 597.33717 1019.2502 L 597.33717 1041.57219 L 616.66859 1052.73319 L 636 1041.57219 L 636 1014.6314 L 663.33141 998.8516 L 686.66283 1012.322 L 705.99424 1001.161 L 705.99424 978.839 L 686.66283 967.678 L 663.33141 981.1484 L 636 965.3686 L 636 938.42781 L 616.66859 927.26681 Z M 737.32565 1019.2502 L 737.32565 1041.57219 L 756.65707 1052.73319 L 775.98848 1041.57219 L 775.98848 1019.2502 L 756.65707 1008.0892 Z M 644 857.60542 L 644 884.54622 L 620.66859 898.01662 L 620.66859 920.33861 L 644 933.80901 L 644 960.7498 L 663.33141 971.9108 L 686.66283 958.4404 L 709.99424 971.9108 L 729.32565 960.7498 L 729.32565 933.80901 L 752.65707 920.33861 L 752.65707 898.01662 L 733.32565 886.85562 L 709.99424 900.32602 L 682.66283 884.54622 L 682.66283 857.60542 L 663.33141 846.44443 Z M 737.32565 938.42781 L 737.32565 960.7498 L 756.65707 971.9108 L 775.98848 960.7498 L 775.98848 938.42781 L 756.65707 927.26681 Z M 527.34293 898.01662 L 527.34293 920.33861 L 546.67435 931.49961 L 566.00576 920.33861 L 566.00576 898.01662 L 546.67435 886.85562 Z M 597.33717 857.60542 L 597.33717 879.92742 L 616.66859 891.08842 L 636 879.92742 L 636 857.60542 L 616.66859 846.44443 Z" stroke-miterlimit="10"/><path fill="#222222" stroke="#cccccc" paint-order="fill stroke markers" d=" M 370.78027 1244.39136 L 370.78027 1269.05121 L 392.13633 1281.38113 L 392.13633 1310.65978 L 370.78027 1322.9897 L 370.78027 1347.64955 L 349.42422 1359.97948 L 349.42422 1380.02052 L 370.78027 1392.35045 L 370.78027 1417.0103 L 392.13633 1429.34022 L 392.13633 1458.61887 L 370.78027 1470.94879 L 370.78027 1495.60864 L 345.42422 1510.24796 L 324.06816 1497.91804 L 302.71211 1510.24796 L 277.35605 1495.60864 L 277.35605 1470.94879 L 256 1458.61887 L 256 1433.95902 L 238.64395 1423.9385 L 217.28789 1436.26842 L 195.93184 1423.9385 L 174.57578 1436.26842 L 149.21973 1421.6291 L 149.21973 1396.96925 L 127.86367 1384.63932 L 127.86367 1355.36068 L 149.21973 1343.03075 L 149.21973 1318.3709 L 174.57578 1303.73158 L 195.93184 1316.0615 L 217.28789 1303.73158 L 238.64395 1316.0615 L 256 1306.04098 L 256 1281.38113 L 277.35605 1269.05121 L 277.35605 1244.39136 L 302.71211 1229.75204 L 324.06816 1242.08196 L 345.42422 1229.75204 Z M 328.06816 1396.96925 L 328.06816 1421.6291 L 302.71211 1436.26842 L 281.35605 1423.9385 L 264 1433.95902 L 264 1454.00007 L 285.35605 1466.32999 L 285.35605 1490.98984 L 302.71211 1501.01036 L 320.06816 1490.98984 L 320.06816 1466.32999 L 345.42422 1451.69067 L 366.78027 1464.02059 L 384.13633 1454.00007 L 384.13633 1433.95902 L 362.78027 1421.6291 L 362.78027 1396.96925 L 345.42422 1386.94872 Z M 328.06816 1470.94879 L 328.06816 1490.98984 L 345.42422 1501.01036 L 362.78027 1490.98984 L 362.78027 1470.94879 L 345.42422 1460.92827 Z M 195.93184 1325.2991 L 174.57578 1312.96918 L 157.21973 1322.9897 L 157.21973 1343.03075 L 178.57578 1355.36068 L 178.57578 1384.63932 L 157.21973 1396.96925 L 157.21973 1417.0103 L 174.57578 1427.03082 L 195.93184 1414.7009 L 217.28789 1427.03082 L 234.64395 1417.0103 L 234.64395 1396.96925 L 213.28789 1384.63932 L 213.28789 1355.36068 L 234.64395 1343.03075 L 234.64395 1322.9897 L 217.28789 1312.96918 Z M 242.64395 1396.96925 L 242.64395 1417.0103 L 260 1427.03082 L 277.35605 1417.0103 L 277.35605 1396.96925 L 260 1386.94872 Z M 285.35605 1396.96925 L 285.35605 1417.0103 L 302.71211 1427.03082 L 320.06816 1417.0103 L 320.06816 1396.96925 L 302.71211 1386.94872 Z M 135.86367 1359.97948 L 135.86367 1380.02052 L 153.21973 1390.04105 L 170.57578 1380.02052 L 170.57578 1359.97948 L 153.21973 1349.95895 Z M 221.28789 1359.97948 L 221.28789 1380.02052 L 238.64395 1390.04105 L 256 1380.02052 L 256 1359.97948 L 238.64395 1349.95895 Z M 264 1359.97948 L 264 1380.02052 L 281.35605 1390.04105 L 298.71211 1380.02052 L 298.71211 1359.97948 L 281.35605 1349.95895 Z M 306.71211 1359.97948 L 306.71211 1380.02052 L 324.06816 1390.04105 L 341.42422 1380.02052 L 341.42422 1359.97948 L 324.06816 1349.95895 Z M 242.64395 1322.9897 L 242.64395 1343.03075 L 260 1353.05128 L 277.35605 1343.03075 L 277.35605 1322.9897 L 260 1312.96918 Z M 285.35605 1322.9897 L 285.35605 1343.03075 L 302.71211 1353.05128 L 320.06816 1343.03075 L 320.06816 1322.9897 L 302.71211 1312.96918 Z M 285.35605 1249.01016 L 285.35605 1273.67001 L 264 1285.99993 L 264 1306.04098 L 281.35605 1316.0615 L 302.71211 1303.73158 L 328.06816 1318.3709 L 328.06816 1343.03075 L 345.42422 1353.05128 L 362.78027 1343.03075 L 362.78027 1318.3709 L 384.13633 1306.04098 L 384.13633 1285.99993 L 366.78027 1275.97941 L 345.42422 1288.30933 L 320.06816 1273.67001 L 320.06816 1249.01016 L 302.71211 1238.98964 Z M 328.06816 1249.01016 L 328.06816 1269.05121 L 345.42422 1279.07173 L 362.78027 1269.05121 L 362.78027 1249.01016 L 345.42422 1238.98964 Z" stroke-miterlimit="10"/><path fill="#222222" stroke="#cccccc" paint-order="fill stroke markers" d=" M 658.90099 1247.24734 L 658.90099 1281.6597 L 684.70297 1296.55648 L 714.50495 1279.3503 L 748.30692 1298.86588 L 748.30692 1333.27824 L 778.1089 1350.48442 L 778.1089 1389.51558 L 748.30692 1406.72176 L 748.30692 1441.13412 L 714.50495 1460.6497 L 684.70297 1443.44352 L 658.90099 1458.3403 L 658.90099 1492.75266 L 627.09901 1511.11354 L 627.04241 1511.13398 L 626.99527 1511.1714 L 626.38151 1511.37268 L 625.7741 1511.59206 L 625.71392 1511.59161 L 625.65673 1511.61037 L 625.01116 1511.58639 L 624.36546 1511.5816 L 624.30918 1511.56032 L 624.24902 1511.55809 L 623.09901 1511.11354 L 595.29703 1495.06206 L 565.49505 1512.26824 L 531.69308 1492.75266 L 531.69308 1458.3403 L 501.8911 1441.13412 L 501.8911 1402.10296 L 531.69308 1384.89678 L 531.69308 1355.10322 L 501.8911 1337.89704 L 501.8911 1298.86588 L 531.69308 1281.6597 L 531.69308 1247.24734 L 565.49505 1227.73176 L 595.29703 1244.93794 L 625.09901 1227.73176 Z M 569.49505 1406.72176 L 569.49505 1441.13412 L 539.69308 1458.3403 L 539.69308 1488.13386 L 565.49505 1503.03064 L 591.29703 1488.13386 L 591.29703 1453.7215 L 621.09901 1436.51532 L 621.09901 1406.72176 L 595.29703 1391.82498 Z M 599.29703 1458.3403 L 599.29703 1488.13386 L 625.09901 1503.03064 L 650.90099 1488.13386 L 650.90099 1458.3403 L 625.09901 1443.44352 Z M 509.8911 1406.72176 L 509.8911 1436.51532 L 535.69308 1451.4121 L 561.49505 1436.51532 L 561.49505 1406.72176 L 535.69308 1391.82498 Z M 629.09901 1406.72176 L 629.09901 1436.51532 L 654.90099 1451.4121 L 680.70297 1436.51532 L 680.70297 1406.72176 L 654.90099 1391.82498 Z M 688.70297 1406.72176 L 688.70297 1436.51532 L 714.50495 1451.4121 L 740.30692 1436.51532 L 740.30692 1406.72176 L 714.50495 1391.82498 Z M 539.69308 1355.10322 L 539.69308 1384.89678 L 565.49505 1399.79356 L 591.29703 1384.89678 L 591.29703 1355.10322 L 565.49505 1340.20644 Z M 599.29703 1355.10322 L 599.29703 1384.89678 L 625.09901 1399.79356 L 650.90099 1384.89678 L 650.90099 1355.10322 L 625.09901 1340.20644 Z M 714.50495 1357.41262 L 684.70297 1340.20644 L 658.90099 1355.10322 L 658.90099 1384.89678 L 684.70297 1399.79356 L 714.50495 1382.58738 L 744.30692 1399.79356 L 770.1089 1384.89678 L 770.1089 1355.10322 L 744.30692 1340.20644 Z M 509.8911 1303.48468 L 509.8911 1333.27824 L 535.69308 1348.17502 L 561.49505 1333.27824 L 561.49505 1303.48468 L 535.69308 1288.5879 Z M 539.69308 1251.86614 L 539.69308 1281.6597 L 569.49505 1298.86588 L 569.49505 1333.27824 L 595.29703 1348.17502 L 621.09901 1333.27824 L 621.09901 1303.48468 L 591.29703 1286.2785 L 591.29703 1251.86614 L 565.49505 1236.96936 Z M 629.09901 1303.48468 L 629.09901 1333.27824 L 654.90099 1348.17502 L 680.70297 1333.27824 L 680.70297 1303.48468 L 654.90099 1288.5879 Z M 688.70297 1303.48468 L 688.70297 1333.27824 L 714.50495 1348.17502 L 740.30692 1333.27824 L 740.30692 1303.48468 L 714.50495 1288.5879 Z M 599.29703 1251.86614 L 599.29703 1281.6597 L 625.09901 1296.55648 L 650.90099 1281.6597 L 650.90099 1251.86614 L 625.09901 1236.96936 Z" stroke-miterlimit="10"/></g></svg>