<svg version="1.1" xmlns="http://www.w3.org/2000/svg" xmlns:xlink="http://www.w3.org/1999/xlink" width="900" height="1600"><defs/><g><path fill="#222222" stroke="#cccccc" paint-order="fill stroke markers" d=" M 480.74358 130.82161 L 480.74358 166.32124 L 456 180.60696 L 456 202.25019 L 474.74358 213.0718 L 499.48717 198.78609 L 530.23075 216.5359 L 530.23075 245.10733 L 548.97433 255.92894 L 567.71791 245.10733 L 567.71791 216.5359 L 598.4615 198.78609 L 629.20508 216.5359 L 629.20508 252.03553 L 598.4615 269.78534 L 573.71791 255.49963 L 548.97433 269.78534 L 524.23075 255.49963 L 505.48717 266.32124 L 505.48717 294.89267 L 480.74358 309.17839 L 480.74358 330.82161 L 505.48717 345.10733 L 505.48717 373.67876 L 524.23075 384.50037 L 548.97433 370.21466 L 573.71791 384.50037 L 598.4615 370.21466 L 629.20508 387.96447 L 629.20508 423.4641 L 598.4615 441.21391 L 570.71791 425.19615 L 570.20754 424.79342 L 569.66946 424.42833 L 569.53206 424.2604 L 569.36176 424.12601 L 568.98727 423.59452 L 568.57554 423.09128 L 568.49169 422.89118 L 568.36672 422.71381 L 568.15918 422.09761 L 567.90791 421.49796 L 567.87813 421.2632 L 567.8153 421.07665 L 567.79979 420.64557 L 567.71791 420 L 567.71791 394.89267 L 548.97433 384.07106 L 530.23075 394.89267 L 530.23075 423.4641 L 499.48717 441.21391 L 474.74358 426.9282 L 456 437.74981 L 456 459.39304 L 480.74358 473.67876 L 480.74358 509.17839 L 450 526.9282 L 419.25642 509.17839 L 419.25642 473.67876 L 444 459.39304 L 444 430.82161 L 468.74358 416.5359 L 468.74358 394.89267 L 444 380.60696 L 444 352.03553 L 425.25642 341.21391 L 400.51283 355.49963 L 375.76925 341.21391 L 357.02567 352.03553 L 357.02567 380.60696 L 332.28209 394.89267 L 332.28209 423.4641 L 301.5385 441.21391 L 270.79492 423.4641 L 270.79492 387.96447 L 301.5385 370.21466 L 326.28209 384.50037 L 345.02567 373.67876 L 345.02567 352.03553 L 320.28209 337.74981 L 320.28209 302.25019 L 345.02567 287.96447 L 345.02567 266.32124 L 326.28209 255.49963 L 301.5385 269.78534 L 270.79492 252.03553 L 270.79492 216.5359 L 301.5385 198.78609 L 332.28209 216.5359 L 332.28209 245.10733 L 357.02567 259.39304 L 357.02567 287.96447 L 375.76925 298.78609 L 400.51283 284.50037 L 425.25642 298.78609 L 444 287.96447 L 444 259.39304 L 468.74358 245.10733 L 468.74358 223.4641 L 444 209.17839 L 444 180.60696 L 419.25642 166.32124 L 419.25642 130.82161 L 450 113.0718 Z M 431.25642 480.60696 L 431.25642 502.25019 L 450 513.0718 L 468.74358 502.25019 L 468.74358 480.60696 L 450 469.78534 Z M 282.79492 394.89267 L 282.79492 416.5359 L 301.5385 427.35751 L 320.28209 416.5359 L 320.28209 394.89267 L 301.5385 384.07106 Z M 480.74358 394.89267 L 480.74358 416.5359 L 499.48717 427.35751 L 518.23075 416.5359 L 518.23075 394.89267 L 499.48717 384.07106 Z M 579.71791 394.89267 L 579.71791 416.5359 L 598.4615 427.35751 L 617.20508 416.5359 L 617.20508 394.89267 L 598.4615 384.07106 Z M 456 266.32124 L 456 294.89267 L 425.25642 312.64249 L 400.51283 298.35677 L 381.76925 309.17839 L 381.76925 330.82161 L 400.51283 341.64323 L 425.25642 327.35751 L 456 345.10733 L 456 373.67876 L 474.74358 384.50037 L 493.48717 373.67876 L 493.48717 352.03553 L 468.74358 337.74981 L 468.74358 302.25019 L 493.48717 287.96447 L 493.48717 266.32124 L 474.74358 255.49963 Z M 332.28209 309.17839 L 332.28209 330.82161 L 351.02567 341.64323 L 369.76925 330.82161 L 369.76925 309.17839 L 351.02567 298.35677 Z M 282.79492 223.4641 L 282.79492 245.10733 L 301.5385 255.92894 L 320.28209 245.10733 L 320.28209 223.4641 L 301.5385 212.64249 Z M 480.74358 223.4641 L 480.74358 245.10733 L 499.48717 255.92894 L 518.23075 245.10733 L 518.23075 223.4641 L 499.48717 212.64249 Z M 579.71791 223.4641 L 579.71791 245.10733 L 598.4615 255.92894 L 617.20508 245.10733 L 617.20508 223.4641 L 598.4615 212.64249 Z M 431.25642 137.74981 L 431.25642 159.39304 L 450 170.21466 L 468.74358 159.39304 L 468.74358 137.74981 L 450 126.9282 Z" stroke-miterlimit="10"/><path fill="#222222" stroke="#cccccc" paint-order="fill stroke markers" d=" M 407.96155 616.25834 L 407.96155 643.99335 L 425.98078 654.39675 L 450 640.52925 L 480.01922 657.86085 L 480.01922 685.59586 L 498.03845 695.99927 L 522.05767 682.13176 L 552.07689 699.46337 L 552.07689 727.19838 L 570.09612 737.60178 L 594.11534 723.73428 L 624.13456 741.06588 L 624.13456 775.72909 L 594.11534 793.0607 L 570.09612 779.19319 L 552.07689 789.5966 L 552.07689 810.4034 L 570.09612 820.80681 L 594.11534 806.9393 L 624.13456 824.27091 L 624.13456 858.93412 L 594.11534 876.26572 L 570.09612 862.39822 L 552.07689 872.80162 L 552.07689 900.53663 L 522.05767 917.86824 L 498.03845 904.00073 L 480.01922 914.40414 L 480.01922 942.13915 L 450 959.47075 L 425.98078 945.60325 L 407.96155 956.00665 L 407.96155 983.74166 L 377.94233 1001.07327 L 347.92311 983.74166 L 347.92311 949.07845 L 371.94233 935.21095 L 371.94233 914.40414 L 353.92311 904.00073 L 335.90388 914.40414 L 335.90388 942.13915 L 305.88466 959.47075 L 275.86544 942.13915 L 275.86544 907.47594 L 299.88466 893.60843 L 299.88466 872.80162 L 275.86544 858.93412 L 275.86544 824.27091 L 299.88466 810.4034 L 299.88466 789.5966 L 275.86544 775.72909 L 275.86544 741.06588 L 299.88466 727.19838 L 299.88466 706.39157 L 275.86544 692.52406 L 275.86544 657.86085 L 305.88466 640.52925 L 335.90388 657.86085 L 335.90388 685.59586 L 353.92311 695.99927 L 371.94233 685.59586 L 371.94233 664.78905 L 347.92311 650.92155 L 347.92311 616.25834 L 377.94233 598.92673 Z M 570.09612 834.66321 L 546.07689 820.7957 L 528.05767 831.19911 L 528.05767 858.93412 L 498.03845 876.26572 L 468.01922 858.93412 L 468.01922 831.19911 L 450 820.7957 L 431.98078 831.19911 L 431.98078 852.00592 L 456 865.87342 L 456 900.53663 L 425.98078 917.86824 L 401.96155 904.00073 L 383.94233 914.40414 L 383.94233 938.67505 L 383.84873 939.31844 L 383.8016 939.96695 L 383.72486 940.16991 L 383.69363 940.38459 L 383.42059 940.97466 L 383.19064 941.58284 L 383.05928 941.75549 L 382.96816 941.95241 L 382.53827 942.44027 L 382.1446 942.95768 L 381.95619 943.10084 L 381.82604 943.24854 L 381.46043 943.47753 L 380.94233 943.8712 L 359.92311 956.00665 L 359.92311 976.81346 L 377.94233 987.21687 L 395.96155 976.81346 L 395.96155 949.07845 L 425.98078 931.74685 L 450 945.61435 L 468.01922 935.21095 L 468.01922 907.47594 L 498.03845 890.14433 L 522.05767 904.01184 L 540.07689 893.60843 L 540.07689 865.87342 L 570.09612 848.54182 L 594.11534 862.40932 L 612.13456 852.00592 L 612.13456 831.19911 L 594.11534 820.7957 Z M 287.86544 664.78905 L 287.86544 685.59586 L 311.88466 699.46337 L 311.88466 734.12658 L 287.86544 747.99408 L 287.86544 768.80089 L 311.88466 782.6684 L 311.88466 817.3316 L 287.86544 831.19911 L 287.86544 852.00592 L 311.88466 865.87342 L 311.88466 900.53663 L 287.86544 914.40414 L 287.86544 935.21095 L 305.88466 945.61435 L 323.90388 935.21095 L 323.90388 907.47594 L 347.92311 893.60843 L 347.92311 872.80162 L 323.90388 858.93412 L 323.90388 824.27091 L 353.92311 806.9393 L 377.94233 820.80681 L 395.96155 810.4034 L 395.96155 789.5966 L 377.94233 779.19319 L 353.92311 793.0607 L 323.90388 775.72909 L 323.90388 741.06588 L 347.92311 727.19838 L 347.92311 706.39157 L 323.90388 692.52406 L 323.90388 664.78905 L 305.88466 654.38565 Z M 401.96155 709.85567 L 377.94233 695.98816 L 359.92311 706.39157 L 359.92311 734.12658 L 335.90388 747.99408 L 335.90388 768.80089 L 353.92311 779.2043 L 377.94233 765.33679 L 407.96155 782.6684 L 407.96155 817.3316 L 377.94233 834.66321 L 353.92311 820.7957 L 335.90388 831.19911 L 335.90388 852.00592 L 359.92311 865.87342 L 359.92311 893.60843 L 377.94233 904.01184 L 401.96155 890.14433 L 425.98078 904.01184 L 444 893.60843 L 444 872.80162 L 419.98078 858.93412 L 419.98078 824.27091 L 450 806.9393 L 480.01922 824.27091 L 480.01922 852.00592 L 498.03845 862.40932 L 516.05767 852.00592 L 516.05767 824.27091 L 540.07689 810.4034 L 540.07689 789.5966 L 516.05767 775.72909 L 516.05767 747.99408 L 498.03845 737.59068 L 480.01922 747.99408 L 480.01922 775.72909 L 450 793.0607 L 419.98078 775.72909 L 419.98078 741.06588 L 444 727.19838 L 444 706.39157 L 425.98078 695.98816 Z M 359.92311 623.18654 L 359.92311 643.99335 L 383.94233 657.86085 L 383.94233 685.59586 L 401.96155 695.99927 L 425.98078 682.13176 L 456 699.46337 L 456 734.12658 L 431.98078 747.99408 L 431.98078 768.80089 L 450 779.2043 L 468.01922 768.80089 L 468.01922 741.06588 L 498.03845 723.73428 L 528.05767 741.06588 L 528.05767 768.80089 L 546.07689 779.2043 L 570.09612 765.33679 L 594.11534 779.2043 L 612.13456 768.80089 L 612.13456 747.99408 L 594.11534 737.59068 L 570.09612 751.45818 L 540.07689 734.12658 L 540.07689 706.39157 L 522.05767 695.98816 L 498.03845 709.85567 L 468.01922 692.52406 L 468.01922 664.78905 L 450 654.38565 L 425.98078 668.25315 L 395.96155 650.92155 L 395.96155 623.18654 L 377.94233 612.78313 Z" stroke-miterlimit="10"/><path fill="#222222" stroke="#cccccc" paint-order="fill stroke markers" d=" M 480.74358 1090.82161 L 480.74358 1119.39304 L 505.48717 1133.67876 L 505.48717 1169.17839 L 480.74358 1183.4641 L 480.74358 1205.10733 L 499.48717 1215.92894 L 518.23075 1205.10733 L 518.23075 1176.5359 L 548.97433 1158.78609 L 573.71791 1173.0718 L 598.4615 1158.78609 L 629.20508 1176.5359 L 629.20508 1212.03553 L 598.4615 1229.78534 L 573.71791 1215.49963 L 554.97433 1226.32124 L 554.97433 1254.89267 L 530.23075 1269.17839 L 530.23075 1290.82161 L 554.97433 1305.10733 L 554.97433 1333.67876 L 573.71791 1344.50037 L 598.4615 1330.21466 L 629.20508 1347.96447 L 629.20508 1383.4641 L 598.4615 1401.21391 L 573.71791 1386.9282 L 548.97433 1401.21391 L 518.23075 1383.4641 L 518.23075 1354.89267 L 499.48717 1344.07106 L 480.74358 1354.89267 L 480.74358 1376.5359 L 505.48717 1390.82161 L 505.48717 1426.32124 L 480.74358 1440.60696 L 480.74358 1469.17839 L 450 1486.9282 L 419.25642 1469.17839 L 419.25642 1433.67876 L 444 1419.39304 L 444 1397.74981 L 419.25642 1383.4641 L 419.25642 1354.89267 L 400.51283 1344.07106 L 375.76925 1358.35677 L 351.02567 1344.07106 L 332.28209 1354.89267 L 332.28209 1383.4641 L 301.5385 1401.21391 L 270.79492 1383.4641 L 270.79492 1347.96447 L 295.5385 1333.67876 L 295.5385 1305.10733 L 326.28209 1287.35751 L 351.02567 1301.64323 L 369.76925 1290.82161 L 369.76925 1269.17839 L 351.02567 1258.35677 L 326.28209 1272.64249 L 295.5385 1254.89267 L 295.5385 1226.32124 L 270.79492 1212.03553 L 270.79492 1176.5359 L 301.5385 1158.78609 L 332.28209 1176.5359 L 332.28209 1205.10733 L 351.02567 1215.92894 L 375.76925 1201.64323 L 400.51283 1215.92894 L 419.25642 1205.10733 L 419.25642 1176.5359 L 444 1162.25019 L 444 1140.60696 L 419.25642 1126.32124 L 419.25642 1090.82161 L 450 1073.0718 Z M 431.25642 1354.89267 L 431.25642 1376.5359 L 456 1390.82161 L 456 1426.32124 L 431.25642 1440.60696 L 431.25642 1462.25019 L 450 1473.0718 L 468.74358 1462.25019 L 468.74358 1433.67876 L 493.48717 1419.39304 L 493.48717 1397.74981 L 468.74358 1383.4641 L 468.74358 1354.89267 L 450 1344.07106 Z M 351.02567 1315.49963 L 326.28209 1301.21391 L 307.5385 1312.03553 L 307.5385 1340.60696 L 282.79492 1354.89267 L 282.79492 1376.5359 L 301.5385 1387.35751 L 320.28209 1376.5359 L 320.28209 1347.96447 L 351.02567 1330.21466 L 375.76925 1344.50037 L 394.51283 1333.67876 L 394.51283 1312.03553 L 375.76925 1301.21391 Z M 505.48717 1312.03553 L 505.48717 1333.67876 L 530.23075 1347.96447 L 530.23075 1376.5359 L 548.97433 1387.35751 L 573.71791 1373.0718 L 598.4615 1387.35751 L 617.20508 1376.5359 L 617.20508 1354.89267 L 598.4615 1344.07106 L 573.71791 1358.35677 L 542.97433 1340.60696 L 542.97433 1312.03553 L 524.23075 1301.21391 Z M 450 1229.78534 L 425.25642 1215.49963 L 406.51283 1226.32124 L 406.51283 1254.89267 L 381.76925 1269.17839 L 381.76925 1290.82161 L 406.51283 1305.10733 L 406.51283 1333.67876 L 425.25642 1344.50037 L 450 1330.21466 L 474.74358 1344.50037 L 493.48717 1333.67876 L 493.48717 1305.10733 L 518.23075 1290.82161 L 518.23075 1269.17839 L 493.48717 1254.89267 L 493.48717 1226.32124 L 474.74358 1215.49963 Z M 282.79492 1183.4641 L 282.79492 1205.10733 L 307.5385 1219.39304 L 307.5385 1247.96447 L 326.28209 1258.78609 L 351.02567 1244.50037 L 375.76925 1258.78609 L 394.51283 1247.96447 L 394.51283 1226.32124 L 375.76925 1215.49963 L 351.02567 1229.78534 L 320.28209 1212.03553 L 320.28209 1183.4641 L 301.5385 1172.64249 Z M 573.71791 1186.9282 L 548.97433 1172.64249 L 530.23075 1183.4641 L 530.23075 1212.03553 L 505.48717 1226.32124 L 505.48717 1247.96447 L 524.23075 1258.78609 L 542.97433 1247.96447 L 542.97433 1219.39304 L 573.71791 1201.64323 L 598.4615 1215.92894 L 617.20508 1205.10733 L 617.20508 1183.4641 L 598.4615 1172.64249 Z M 431.25642 1097.74981 L 431.25642 1119.39304 L 456 1133.67876 L 456 1169.17839 L 431.25642 1183.4641 L 431.25642 1205.10733 L 450 1215.92894 L 468.74358 1205.10733 L 468.74358 1176.5359 L 493.48717 1162.25019 L 493.48717 1140.60696 L 468.74358 1126.32124 L 468.74358 1097.74981 L 450 1086.9282 Z" stroke-miterlimit="10"/></g></svg>