<svg version="1.1" xmlns="http://www.w3.org/2000/svg" xmlns:xlink="http://www.w3.org/1999/xlink" width="900" height="900"><defs/><g><path fill="#222222" stroke="#cccccc" paint-order="fill stroke markers" d=" M 352.98699 282.24957 L 355.89115 282.99134 L 358.63195 284.20476 L 361.13339 285.85618 L 363.3261 287.8998 L 365.14929 290.27894 L 366.5524 292.92766 L 367.49652 295.77248 L 368 300 L 368 332 L 382 332 L 382 300 L 382.24957 297.01301 L 382.99134 294.10885 L 384.20476 291.36805 L 385.85618 288.86661 L 387.8998 286.6739 L 390.27894 284.85071 L 392.92766 283.4476 L 395.77248 282.50348 L 398.73453 282.04454 L 401.73167 282.08349 L 404.68079 282.61926 L 407.50012 283.63699 L 410.11147 285.10845 L 412.44244 286.99286 L 414.42838 289.23794 L 416.01423 291.78146 L 417.15601 294.55287 L 417.82206 297.47532 L 418 300 L 418 382 L 432 382 L 432 300 L 432.24957 297.01301 L 432.99134 294.10885 L 434.20476 291.36805 L 435.85618 288.86661 L 437.8998 286.6739 L 440.27894 284.85071 L 442.92766 283.4476 L 445.77248 282.50348 L 448.73453 282.04454 L 451.73167 282.08349 L 454.68079 282.61926 L 457.50012 283.63699 L 460.11147 285.10845 L 462.44244 286.99286 L 464.42838 289.23794 L 466.01423 291.78146 L 467.15601 294.55287 L 467.82206 297.47532 L 468 300 L 468 332 L 482 332 L 482 300 L 482.24957 297.01301 L 482.99134 294.10885 L 484.20476 291.36805 L 485.85618 288.86661 L 487.8998 286.6739 L 490.27894 284.85071 L 492.92766 283.4476 L 495.77248 282.50348 L 500 282 L 600 282 L 602.98699 282.24957 L 605.89115 282.99134 L 608.63195 284.20476 L 611.13339 285.85618 L 613.3261 287.8998 L 615.14929 290.27894 L 616.5524 292.92766 L 617.49652 295.77248 L 617.95546 298.73453 L 617.91651 301.73167 L 617.38074 304.68079 L 616.36301 307.50012 L 614.89155 310.11147 L 613.00714 312.44244 L 610.76206 314.42838 L 608.21854 316.01423 L 605.44713 317.15601 L 602.52468 317.82206 L 600 318 L 568 318 L 568 332 L 600 332 L 602.98699 332.24957 L 605.89115 332.99134 L 608.63195 334.20476 L 611.13339 335.85618 L 613.3261 337.8998 L 615.14929 340.27894 L 616.5524 342.92766 L 617.49652 345.77248 L 617.95546 348.73453 L 617.91651 351.73167 L 617.38074 354.68079 L 616.36301 357.50012 L 614.89155 360.11147 L 613.00714 362.44244 L 610.76206 364.42838 L 608.21854 366.01423 L 605.44713 367.15601 L 602.52468 367.82206 L 600 368 L 568 368 L 568 382 L 600 382 L 602.98699 382.24957 L 605.89115 382.99134 L 608.63195 384.20476 L 611.13339 385.85618 L 613.3261 387.8998 L 615.14929 390.27894 L 616.5524 392.92766 L 617.49652 395.77248 L 617.95546 398.73453 L 617.91651 401.73167 L 617.38074 404.68079 L 616.36301 407.50012 L 614.89155 410.11147 L 613.00714 412.44244 L 610.76206 414.42838 L 608.21854 416.01423 L 605.44713 417.15601 L 602.52468 417.82206 L 600 418 L 550 418 L 547.01301 417.75043 L 544.10885 417.00866 L 541.36805 415.79524 L 538.86661 414.14382 L 536.6739 412.1002 L 534.85071 409.72106 L 533.4476 407.07234 L 532.50348 404.22752 L 532 400 L 532 318 L 518 318 L 518 400 L 517.75043 402.98699 L 517.00866 405.89115 L 515.79524 408.63195 L 514.14382 411.13339 L 512.1002 413.3261 L 509.72106 415.14929 L 507.07234 416.5524 L 504.22752 417.49652 L 501.26547 417.95546 L 498.26833 417.91651 L 495.31921 417.38074 L 492.49988 416.36301 L 489.88853 414.89155 L 487.55756 413.00714 L 485.57162 410.76206 L 483.98577 408.21854 L 482.84399 405.44713 L 482.17794 402.52468 L 482 400 L 482 368 L 468 368 L 468 450 L 467.92778 450.86435 L 467.91651 451.73167 L 467.8032 452.35535 L 467.75043 452.98699 L 467.53578 453.82739 L 467.38074 454.68079 L 467.16554 455.27695 L 467.00866 455.89115 L 466.65748 456.68437 L 466.36301 457.50012 L 466.05187 458.05229 L 465.79524 458.63195 L 465.31734 459.35584 L 464.89155 460.11147 L 464.49305 460.60441 L 464.14382 461.13339 L 463.55246 461.76789 L 463.00714 462.44244 L 462.53233 462.86245 L 462.1002 463.3261 L 461.4118 463.85364 L 460.76206 464.42838 L 460.22416 464.76376 L 459.72106 465.14929 L 458.95459 465.55531 L 458.21854 466.01423 L 457.63246 466.25568 L 457.07234 466.5524 L 456.24908 466.82562 L 455.44713 467.15601 L 454.82917 467.29685 L 454.22752 467.49652 L 453.37028 467.62934 L 452.52468 467.82206 L 451.79413 467.87355 L 451.26547 467.95546 L 450.73058 467.94851 L 450 468 L 418 468 L 418 482 L 482 482 L 482 450 L 482.24957 447.01301 L 482.99134 444.10885 L 484.20476 441.36805 L 485.85618 438.86661 L 487.8998 436.6739 L 490.27894 434.85071 L 492.92766 433.4476 L 495.77248 432.50348 L 500 432 L 550 432 L 552.98699 432.24957 L 555.89115 432.99134 L 558.63195 434.20476 L 561.13339 435.85618 L 563.3261 437.8998 L 565.14929 440.27894 L 566.5524 442.92766 L 567.49652 445.77248 L 567.95546 448.73453 L 567.91651 451.73167 L 567.38074 454.68079 L 566.36301 457.50012 L 564.89155 460.11147 L 563.00714 462.44244 L 560.76206 464.42838 L 558.21854 466.01423 L 555.44713 467.15601 L 552.52468 467.82206 L 550 468 L 518 468 L 518 482 L 582 482 L 582 450 L 582.24957 447.01301 L 582.99134 444.10885 L 584.20476 441.36805 L 585.85618 438.86661 L 587.8998 436.6739 L 590.27894 434.85071 L 592.92766 433.4476 L 595.77248 432.50348 L 598.73453 432.04454 L 601.73167 432.08349 L 604.68079 432.61926 L 607.50012 433.63699 L 610.11147 435.10845 L 612.44244 436.99286 L 614.42838 439.23794 L 616.01423 441.78146 L 617.15601 444.55287 L 617.82206 447.47532 L 618 450 L 618 500 L 617.75043 502.98699 L 617.00866 505.89115 L 615.79524 508.63195 L 614.14382 511.13339 L 612.1002 513.3261 L 609.72106 515.14929 L 607.07234 516.5524 L 604.22752 517.49652 L 600 518 L 568 518 L 568 532 L 600 532 L 602.98699 532.24957 L 605.89115 532.99134 L 608.63195 534.20476 L 611.13339 535.85618 L 613.3261 537.8998 L 615.14929 540.27894 L 616.5524 542.92766 L 617.49652 545.77248 L 617.95546 548.73453 L 617.91651 551.73167 L 617.38074 554.68079 L 616.36301 557.50012 L 614.89155 560.11147 L 613.00714 562.44244 L 610.76206 564.42838 L 608.21854 566.01423 L 605.44713 567.15601 L 602.52468 567.82206 L 600 568 L 568 568 L 568 582 L 600 582 L 602.98699 582.24957 L 605.89115 582.99134 L 608.63195 584.20476 L 611.13339 585.85618 L 613.3261 587.8998 L 615.14929 590.27894 L 616.5524 592.92766 L 617.49652 595.77248 L 617.95546 598.73453 L 617.91651 601.73167 L 617.38074 604.68079 L 616.36301 607.50012 L 614.89155 610.11147 L 613.00714 612.44244 L 610.76206 614.42838 L 608.21854 616.01423 L 605.44713 617.15601 L 602.52468 617.82206 L 600 618 L 550 618 L 547.01301 617.75043 L 544.10885 617.00866 L 541.36805 615.79524 L 538.86661 614.14382 L 536.6739 612.1002 L 534.85071 609.72106 L 533.4476 607.07234 L 532.50348 604.22752 L 532 600 L 532 518 L 468 518 L 468 532 L 500 532 L 502.98699 532.24957 L 505.89115 532.99134 L 508.63195 534.20476 L 511.13339 535.85618 L 513.3261 537.8998 L 515.14929 540.27894 L 516.5524 542.92766 L 517.49652 545.77248 L 518 550 L 518 600 L 517.75043 602.98699 L 517.00866 605.89115 L 515.79524 608.63195 L 514.14382 611.13339 L 512.1002 613.3261 L 509.72106 615.14929 L 507.07234 616.5524 L 504.22752 617.49652 L 501.26547 617.95546 L 498.26833 617.91651 L 495.31921 617.38074 L 492.49988 616.36301 L 489.88853 614.89155 L 487.55756 613.00714 L 485.57162 610.76206 L 483.98577 608.21854 L 482.84399 605.44713 L 482.17794 602.52468 L 482 600 L 482 568 L 468 568 L 468 600 L 467.75043 602.98699 L 467.00866 605.89115 L 465.79524 608.63195 L 464.14382 611.13339 L 462.1002 613.3261 L 459.72106 615.14929 L 457.07234 616.5524 L 454.22752 617.49652 L 451.26547 617.95546 L 448.26833 617.91651 L 445.31921 617.38074 L 442.49988 616.36301 L 439.88853 614.89155 L 437.55756 613.00714 L 435.57162 610.76206 L 433.98577 608.21854 L 432.84399 605.44713 L 432.17794 602.52468 L 432 600 L 432 518 L 400 518 L 397.01301 517.75043 L 394.10885 517.00866 L 391.36805 515.79524 L 388.86661 514.14382 L 386.6739 512.1002 L 384.85071 509.72106 L 383.4476 507.07234 L 382.50348 504.22752 L 382 500 L 382 468 L 368 468 L 368 532 L 400 532 L 400.86435 532.07222 L 401.73167 532.08349 L 402.35535 532.1968 L 402.98699 532.24957 L 403.82739 532.46422 L 404.68079 532.61926 L 405.27695 532.83446 L 405.89115 532.99134 L 406.68437 533.34252 L 407.50012 533.63699 L 408.05229 533.94813 L 408.63195 534.20476 L 409.35584 534.68266 L 410.11147 535.10845 L 410.60441 535.50695 L 411.13339 535.85618 L 411.76789 536.44754 L 412.44244 536.99286 L 412.86245 537.46767 L 413.3261 537.8998 L 413.85364 538.5882 L 414.42838 539.23794 L 414.76376 539.77584 L 415.14929 540.27894 L 415.55531 541.04541 L 416.01423 541.78146 L 416.25568 542.36754 L 416.5524 542.92766 L 416.82562 543.75092 L 417.15601 544.55287 L 417.29685 545.17083 L 417.49652 545.77248 L 417.62934 546.62972 L 417.82206 547.47532 L 417.87355 548.20587 L 417.95546 548.73453 L 417.94851 549.26942 L 418 550 L 418 600 L 417.92778 600.86435 L 417.91651 601.73167 L 417.8032 602.35535 L 417.75043 602.98699 L 417.53578 603.82739 L 417.38074 604.68079 L 417.16554 605.27695 L 417.00866 605.89115 L 416.65748 606.68437 L 416.36301 607.50012 L 416.05187 608.05229 L 415.79524 608.63195 L 415.31734 609.35584 L 414.89155 610.11147 L 414.49305 610.60441 L 414.14382 611.13339 L 413.55246 611.76789 L 413.00714 612.44244 L 412.53233 612.86245 L 412.1002 613.3261 L 411.4118 613.85364 L 410.76206 614.42838 L 410.22416 614.76376 L 409.72106 615.14929 L 408.95459 615.55531 L 408.21854 616.01423 L 407.63246 616.25568 L 407.07234 616.5524 L 406.24908 616.82562 L 405.44713 617.15601 L 404.82917 617.29685 L 404.22752 617.49652 L 403.37028 617.62934 L 402.52468 617.82206 L 401.79413 617.87355 L 401.26547 617.95546 L 400.73058 617.94851 L 400 618 L 350 618 L 347.01301 617.75043 L 344.10885 617.00866 L 341.36805 615.79524 L 338.86661 614.14382 L 336.6739 612.1002 L 334.85071 609.72106 L 333.4476 607.07234 L 332.50348 604.22752 L 332.04454 601.26547 L 332.08349 598.26833 L 332.61926 595.31921 L 333.63699 592.49988 L 335.10845 589.88853 L 336.99286 587.55756 L 339.23794 585.57162 L 341.78146 583.98577 L 344.55287 582.84399 L 347.47532 582.17794 L 350 582 L 382 582 L 382 568 L 318 568 L 318 600 L 317.75043 602.98699 L 317.00866 605.89115 L 315.79524 608.63195 L 314.14382 611.13339 L 312.1002 613.3261 L 309.72106 615.14929 L 307.07234 616.5524 L 304.22752 617.49652 L 301.26547 617.95546 L 298.26833 617.91651 L 295.31921 617.38074 L 292.49988 616.36301 L 289.88853 614.89155 L 287.55756 613.00714 L 285.57162 610.76206 L 283.98577 608.21854 L 282.84399 605.44713 L 282.17794 602.52468 L 282 600 L 282 500 L 282.24957 497.01301 L 282.99134 494.10885 L 284.20476 491.36805 L 285.85618 488.86661 L 287.8998 486.6739 L 290.27894 484.85071 L 292.92766 483.4476 L 295.77248 482.50348 L 298.73453 482.04454 L 301.73167 482.08349 L 304.68079 482.61926 L 307.50012 483.63699 L 310.11147 485.10845 L 312.44244 486.99286 L 314.42838 489.23794 L 316.01423 491.78146 L 317.15601 494.55287 L 317.82206 497.47532 L 318 500 L 318 532 L 332 532 L 332 468 L 300 468 L 297.01301 467.75043 L 294.10885 467.00866 L 291.36805 465.79524 L 288.86661 464.14382 L 286.6739 462.1002 L 284.85071 459.72106 L 283.4476 457.07234 L 282.50348 454.22752 L 282.04454 451.26547 L 282.08349 448.26833 L 282.61926 445.31921 L 283.63699 442.49988 L 285.10845 439.88853 L 286.99286 437.55756 L 289.23794 435.57162 L 291.78146 433.98577 L 294.55287 432.84399 L 297.47532 432.17794 L 300 432 L 432 432 L 432 418 L 300 418 L 297.01301 417.75043 L 294.10885 417.00866 L 291.36805 415.79524 L 288.86661 414.14382 L 286.6739 412.1002 L 284.85071 409.72106 L 283.4476 407.07234 L 282.50348 404.22752 L 282 400 L 282 350 L 282.24957 347.01301 L 282.99134 344.10885 L 284.20476 341.36805 L 285.85618 338.86661 L 287.8998 336.6739 L 290.27894 334.85071 L 292.92766 333.4476 L 295.77248 332.50348 L 298.73453 332.04454 L 301.73167 332.08349 L 304.68079 332.61926 L 307.50012 333.63699 L 310.11147 335.10845 L 312.44244 336.99286 L 314.42838 339.23794 L 316.01423 341.78146 L 317.15601 344.55287 L 317.82206 347.47532 L 318 350 L 318 382 L 382 382 L 382 368 L 350 368 L 347.01301 367.75043 L 344.10885 367.00866 L 341.36805 365.79524 L 338.86661 364.14382 L 336.6739 362.1002 L 334.85071 359.72106 L 333.4476 357.07234 L 332.50348 354.22752 L 332 350 L 332 318 L 300 318 L 297.01301 317.75043 L 294.10885 317.00866 L 291.36805 315.79524 L 288.86661 314.14382 L 286.6739 312.1002 L 284.85071 309.72106 L 283.4476 307.07234 L 282.50348 304.22752 L 282.04454 301.26547 L 282.08349 298.26833 L 282.61926 295.31921 L 283.63699 292.49988 L 285.10845 289.88853 L 286.99286 287.55756 L 289.23794 285.57162 L 291.78146 283.98577 L 294.55287 282.84399 L 297.47532 282.17794 L 300 282 L 350 282 Z" stroke-miterlimit="10"/></g></svg>