<svg version="1.1" xmlns="http://www.w3.org/2000/svg" xmlns:xlink="http://www.w3.org/1999/xlink" width="1350" height="1800"><defs/><g><path fill="rgb(0,0,0)" stroke="#cccccc" paint-order="fill stroke markers" d=" M 0 0 L 1350 0 L 1350 1800 L 0 1800 Z" fill-opacity="0" stroke-miterlimit="10"/><path fill="rgb(0,0,0)" stroke="#cccccc" paint-order="fill stroke markers" d=" M 311.56188 138.188 L 311.56224 138.18803 L 356.43068 199.94415 L 356.43065 199.94444 L 356.43087 199.94474 L 356.43087 229.10129 L 384.16041 238.11116 L 384.1606 238.11142 L 384.16091 238.11152 L 429.02935 299.86764 L 429.02935 299.86882 L 384.16091 361.62493 L 384.1606 361.62503 L 384.16041 361.62529 L 356.43087 370.63516 L 356.43087 399.79172 L 356.43068 399.79198 L 356.43068 399.79231 L 311.56224 461.54843 L 311.56112 461.54879 L 238.96245 437.96005 L 238.96233 437.95985 L 238.96195 437.95969 L 221.82416 414.37154 L 194.09463 423.38141 L 194.09432 423.38131 L 194.09401 423.38141 L 121.49534 399.79267 L 121.49465 399.79172 L 121.49465 323.45697 L 121.4949 323.45663 L 121.49484 323.45638 L 138.63264 299.86823 L 121.49484 276.28008 L 121.49486 276.27985 L 121.49465 276.27949 L 121.49465 199.94474 L 121.49534 199.94379 L 194.09401 176.35505 L 194.09432 176.35515 L 194.09463 176.35505 L 221.82416 185.36492 L 238.96195 161.77677 L 238.96218 161.77672 L 238.96245 161.77641 L 311.56112 138.18767 Z M 238.96599 437.9591 L 311.56105 461.54666 L 356.42725 399.79362 Z M 238.96376 408.80254 L 238.96376 437.95772 L 283.82959 423.37993 L 266.6926 399.7929 Z M 221.82616 414.37089 L 238.96176 437.95602 L 238.96176 408.80319 Z M 238.96439 361.62487 L 283.83159 423.37928 L 311.56043 414.36963 L 311.56043 338.03698 Z M 166.36571 385.21361 L 194.09432 423.37876 L 211.2313 399.79172 L 194.09393 376.20416 Z M 194.09694 423.37856 L 221.82292 414.36984 L 211.23254 399.79343 Z M 121.49665 399.79099 L 194.0917 423.37856 L 121.49665 323.46005 Z M 211.23378 399.79172 L 221.82492 414.36919 L 238.96176 408.80109 L 238.96176 390.78235 L 221.82492 385.21426 Z M 311.56243 385.21381 L 311.56243 414.36899 L 356.42825 399.7912 L 339.29127 376.20416 Z M 238.96376 408.80044 L 266.68976 399.79172 L 238.96376 390.783 Z M 211.23254 399.79002 L 221.82292 385.21361 L 194.09694 376.20489 Z M 238.96376 390.7809 L 266.69037 399.78982 L 238.96376 361.62742 Z M 339.29327 376.20351 L 356.42887 399.78864 L 356.42887 370.63581 Z M 221.82616 385.21256 L 238.96176 390.78025 L 238.96176 361.62742 Z M 149.22711 361.62435 L 166.36448 385.21191 L 238.96115 361.62382 L 194.09432 299.86993 Z M 194.09755 376.20299 L 221.82415 385.21191 L 238.96013 361.62625 Z M 311.56405 385.21118 L 339.29003 376.20246 L 328.69965 361.62605 Z M 311.56243 385.21 L 328.69841 361.62434 L 311.56243 338.03869 Z M 328.70089 361.62435 L 339.29203 376.20181 L 356.42887 370.63371 L 356.42887 352.61497 L 339.29204 347.04688 Z M 356.43087 370.63306 L 384.15687 361.62434 L 356.43087 352.61562 Z M 194.09556 299.86823 L 238.96315 361.62317 L 311.56043 338.03488 L 311.56043 261.70158 L 238.96315 238.11329 Z M 356.43087 323.45769 L 356.43087 352.61352 L 384.1591 361.62296 L 384.1591 314.44825 Z M 121.49727 323.45749 L 149.22587 361.62264 L 166.36286 338.03561 L 149.22549 314.44805 Z M 328.69965 361.62264 L 339.29003 347.04623 L 311.56405 338.03751 Z M 384.1611 361.62126 L 429.0273 299.86823 L 384.1611 238.11519 Z M 339.29327 347.04518 L 356.42887 352.61287 L 356.42887 323.46005 Z M 311.56466 338.03561 L 339.29127 347.04453 L 356.42725 323.45887 Z M 311.56243 338.03423 L 384.1591 314.44614 L 384.1591 285.29032 L 311.56243 261.70223 Z M 149.2275 314.4474 L 166.3631 338.03253 L 166.3631 308.8797 Z M 166.3651 308.87905 L 166.3651 338.03252 L 194.0917 299.87013 Z M 121.49827 323.45507 L 149.22426 314.44635 L 138.63387 299.86993 Z M 138.63511 299.86823 L 149.22626 314.4457 L 166.3631 308.8776 L 166.3631 290.85886 L 149.22626 285.29076 Z M 166.3651 308.87695 L 194.09109 299.86823 L 166.3651 290.85951 Z M 138.63387 299.86653 L 149.22426 285.29011 L 121.49827 276.28139 Z M 149.22712 238.11211 L 194.09432 299.86652 L 238.96115 238.11264 L 166.36448 214.52455 Z M 166.3651 290.85741 L 194.09171 299.86633 L 166.3651 261.70393 Z M 149.2275 285.28906 L 166.3631 290.85676 L 166.3631 261.70393 Z M 121.49727 276.27897 L 149.22549 285.28841 L 166.36286 261.70085 L 149.22588 238.11381 Z M 356.43087 247.12293 L 356.43087 276.27877 L 384.1591 285.28821 L 384.1591 238.11349 Z M 311.56466 261.70085 L 356.42725 276.27759 L 339.29127 252.69193 Z M 121.49665 199.94547 L 121.49665 276.27641 L 194.0917 176.3579 Z M 339.29327 252.69128 L 356.42887 276.27641 L 356.42887 247.12358 Z M 238.96438 238.11159 L 311.56043 261.69948 L 311.56043 185.36683 L 283.83159 176.35718 Z M 311.56405 261.69895 L 339.29003 252.69023 L 328.69965 238.11382 Z M 311.56243 261.69777 L 328.69841 238.11211 L 311.56243 214.52646 Z M 328.70089 238.11212 L 339.29203 252.68958 L 356.42887 247.12148 L 356.42887 229.10274 L 339.29204 223.53465 Z M 356.43087 247.12083 L 384.15687 238.11211 L 356.43087 229.10339 Z M 328.69965 238.11041 L 339.29003 223.534 L 311.56405 214.52528 Z M 194.09755 223.53347 L 238.96014 238.11021 L 221.82416 214.52455 Z M 238.96376 208.95556 L 238.96376 238.10904 L 266.69037 199.94664 Z M 221.82616 214.5239 L 238.96176 238.10903 L 238.96176 208.95621 Z M 339.29327 223.53295 L 356.42887 229.10064 L 356.42887 199.94782 Z M 311.56243 214.52265 L 339.29127 223.5323 L 356.42825 199.94526 L 311.56243 185.36747 Z M 166.36571 214.52285 L 194.09393 223.5323 L 211.2313 199.94473 L 194.09432 176.3577 Z M 194.09694 223.53157 L 221.82292 214.52285 L 211.23254 199.94644 Z M 211.23378 199.94473 L 221.82493 214.5222 L 238.96176 208.95411 L 238.96176 190.93537 L 221.82492 185.36727 Z M 238.96376 208.95346 L 266.68976 199.94474 L 238.96376 190.93602 Z M 238.96376 190.93392 L 266.6926 199.94356 L 283.82959 176.35653 L 238.96376 161.77874 Z M 211.23254 199.94303 L 221.82292 185.36662 L 194.09694 176.3579 Z M 238.96599 161.77736 L 356.42725 199.94284 L 311.56105 138.1898 Z M 221.82616 185.36557 L 238.96176 190.93327 L 238.96176 161.78044 Z" fill-opacity="0" stroke-miterlimit="10"/><path fill="rgb(0,0,0)" stroke="#cccccc" paint-order="fill stroke markers" d=" M 665.95966 130.56483 L 695.03136 170.57859 L 742.07004 185.86239 L 789.10903 170.57849 L 789.11024 170.57901 L 789.11015 170.58003 L 760.03826 210.59405 L 760.03714 210.59441 L 742.07104 204.75687 L 742.07104 235.32349 L 742.07035 235.32444 L 695.03236 250.60801 L 730.96556 300.06583 L 760.03664 260.05292 L 760.03776 260.05256 L 789.10834 269.49817 L 789.10834 250.60748 L 789.10903 250.60653 L 836.14833 235.32254 L 836.14954 235.32306 L 836.14945 235.32408 L 807.07775 275.33784 L 807.07775 324.79722 L 836.14945 364.81098 L 836.14932 364.8123 L 836.14833 364.81252 L 789.10903 349.52853 L 789.10834 349.52758 L 789.10834 330.63689 L 760.03776 340.0825 L 760.03664 340.08214 L 730.96556 300.06923 L 695.03236 349.52705 L 742.07035 364.81062 L 742.07104 364.81157 L 742.07104 395.37819 L 760.03714 389.54065 L 760.03826 389.54101 L 789.11015 429.55503 L 789.11002 429.55635 L 789.10903 429.55657 L 742.07004 414.27267 L 695.03136 429.55647 L 665.95966 469.57023 L 665.95837 469.57052 L 665.95785 469.56964 L 665.95785 420.10959 L 665.95854 420.10864 L 683.92465 414.2711 L 665.95804 389.54219 L 665.95804 389.54101 L 695.02912 349.5281 L 636.88796 330.6369 L 636.88796 380.09557 L 636.88727 380.09652 L 607.8167 389.54212 L 618.92036 404.825 L 618.92036 404.82618 L 589.84847 444.8402 L 589.84806 444.84029 L 589.84779 444.8406 L 589.84757 444.8404 L 589.84718 444.84049 L 589.84706 444.83996 L 589.84666 444.83961 L 589.84666 395.3799 L 560.77515 355.3664 L 513.73616 340.0825 L 513.73549 340.08136 L 513.73616 340.0806 L 560.77546 324.7966 L 560.77658 324.79696 L 571.88025 340.07985 L 589.84685 315.35094 L 589.84797 315.35058 L 636.88596 330.63415 L 636.88596 269.50091 L 589.84797 284.78448 L 589.84685 284.78412 L 571.88025 260.05521 L 560.77658 275.3381 L 560.77546 275.33846 L 513.73616 260.05446 L 513.73549 260.05332 L 513.73616 260.05256 L 560.77515 244.76866 L 589.84666 204.75516 L 589.84666 155.29544 L 589.84754 155.29445 L 589.84847 155.29485 L 618.92036 195.30888 L 618.92036 195.31006 L 607.8167 210.59294 L 636.88727 220.03854 L 636.88796 220.03949 L 636.88796 269.49816 L 695.02912 250.60696 L 665.95804 210.59405 L 665.95804 210.59287 L 683.92465 185.86396 L 665.95854 180.02642 L 665.95785 180.02547 L 665.95785 130.56542 L 665.95873 130.56443 Z M 665.95985 420.11032 L 665.95985 469.56656 L 695.0295 429.55562 L 683.92588 414.2728 Z M 589.84866 395.3803 L 589.84866 444.83653 L 618.91831 404.82559 L 607.8147 389.54278 Z M 683.92788 414.27215 L 695.03112 429.55444 L 742.06904 414.27089 L 742.06904 395.38094 Z M 742.07104 395.38029 L 742.07104 414.27089 L 789.10672 429.55372 L 760.03707 389.54278 Z M 665.96009 389.5416 L 683.92665 414.27045 L 712.99653 404.82507 L 683.92626 364.81328 Z M 712.99915 404.82422 L 742.06904 395.37884 L 742.06904 364.8123 L 712.99915 355.36692 Z M 683.9275 364.81158 L 712.99715 404.82251 L 712.99715 355.36627 L 695.03112 349.52875 Z M 560.77701 355.36555 L 589.84804 395.37839 L 607.81346 389.54108 L 571.88025 340.08325 Z M 589.84928 364.81209 L 607.81546 389.54042 L 636.88596 380.09484 L 636.88596 349.52896 Z M 571.88149 340.08155 L 589.84766 364.80987 L 618.91793 324.79808 L 589.84804 315.35271 Z M 589.85028 364.80967 L 636.88596 349.52685 L 636.88596 330.63625 L 618.91993 324.79873 Z M 789.11034 330.63624 L 789.11034 349.52685 L 836.14602 364.80967 L 807.07637 324.79873 Z M 513.7397 340.08155 L 560.77539 355.36437 L 571.87901 340.08155 L 560.77539 324.79873 Z M 665.96208 340.08155 L 695.03035 349.5264 L 712.99553 324.79945 Z M 742.07166 315.35205 L 760.03783 340.08037 L 789.10834 330.63479 L 789.10834 300.06891 Z M 665.96147 340.07965 L 712.99492 324.79755 L 683.92665 315.3527 Z M 636.88796 330.6348 L 665.95623 340.07965 L 636.88796 300.07061 Z M 665.95985 340.07847 L 683.92465 315.35205 L 665.95985 309.51493 Z M 665.95785 340.07847 L 665.95785 309.51428 L 636.88958 300.06943 Z M 789.11034 330.63414 L 807.07575 324.79682 L 807.07575 275.33824 L 789.11034 269.50092 Z M 683.92789 315.351 L 712.99553 324.79565 L 695.03074 300.06923 Z M 712.99915 324.79447 L 730.96433 300.06753 L 712.99915 275.34059 Z M 695.03198 300.06753 L 712.99715 324.79447 L 712.99715 275.34059 Z M 665.95985 290.62223 L 665.95985 309.51283 L 683.92588 315.35035 L 695.0295 300.06753 L 683.92588 284.78471 Z M 730.9668 300.06753 L 742.07042 315.35035 L 789.10611 300.06753 L 742.07042 284.78471 Z M 636.89019 300.06753 L 665.95785 309.51218 L 665.95785 290.62288 Z M 742.07166 284.78301 L 789.10834 300.06615 L 789.10834 269.50027 L 760.03783 260.05469 Z M 683.92789 284.78406 L 695.03074 300.06583 L 712.99553 275.33941 Z M 636.88958 300.06563 L 665.95785 290.62078 L 665.95785 260.05659 Z M 636.88796 269.50026 L 636.88796 300.06445 L 665.95623 260.05541 Z M 665.95985 290.62013 L 683.92465 284.78301 L 665.95985 260.05659 Z M 683.92665 284.78236 L 712.99492 275.33751 L 665.96147 260.05541 Z M 571.88149 260.05351 L 589.84804 284.78235 L 618.91793 275.33698 L 589.84766 235.32519 Z M 513.7397 260.05351 L 560.77539 275.33633 L 571.87901 260.05351 L 560.77539 244.77069 Z M 618.91993 275.33633 L 636.88596 269.49881 L 636.88596 250.60821 L 589.85028 235.32539 Z M 789.11034 250.60821 L 789.11034 269.49882 L 807.07637 275.33633 L 836.14602 235.32539 Z M 665.96208 260.05351 L 712.99553 275.33561 L 695.03035 250.60866 Z M 560.77701 244.76951 L 571.88025 260.05181 L 607.81346 210.59398 L 589.84804 204.75667 Z M 683.9275 235.32348 L 695.03112 250.60631 L 712.99715 244.76879 L 712.99715 195.31255 Z M 589.84928 235.32297 L 636.88596 250.6061 L 636.88596 220.04022 L 607.81546 210.59464 Z M 712.99915 244.76814 L 742.06904 235.32276 L 742.06904 204.75622 L 712.99915 195.31084 Z M 665.96009 210.59346 L 683.92626 235.32178 L 712.99653 195.30999 L 683.92665 185.86461 Z M 589.84866 204.75476 L 607.8147 210.59228 L 618.91831 195.30947 L 589.84866 155.29852 Z M 742.07104 185.86417 L 742.07104 204.75477 L 760.03707 210.59228 L 789.10672 170.58134 Z M 683.92788 185.86291 L 742.06904 204.75412 L 742.06904 185.86417 L 695.03112 170.58062 Z M 665.95985 180.02474 L 683.92588 185.86226 L 695.0295 170.57944 L 665.95985 130.5685 Z" fill-opacity="0" stroke-miterlimit="10"/><path fill="rgb(0,0,0)" stroke="#cccccc" paint-order="fill stroke markers" d=" M 1150.73824 151.23749 L 1150.73893 151.23844 L 1150.73893 175.85154 L 1174.14738 183.45741 L 1174.14807 183.45836 L 1174.14807 223.28364 L 1212.02417 235.59033 L 1212.02486 235.59128 L 1212.02486 260.20439 L 1235.43331 267.81025 L 1235.434 267.8112 L 1235.434 332.25104 L 1235.43331 332.25199 L 1212.02486 339.85786 L 1212.02486 364.47096 L 1212.02417 364.47191 L 1174.14807 376.7786 L 1174.14807 416.60389 L 1174.14738 416.60484 L 1150.73893 424.21071 L 1150.73893 448.82381 L 1150.73824 448.82476 L 1089.45231 468.73776 L 1089.45119 468.7374 L 1074.98397 448.82498 L 1051.57552 456.43085 L 1051.5744 456.43049 L 1028.16568 424.21115 L 990.28959 436.51784 L 990.28847 436.51748 L 975.82125 416.60506 L 952.41281 424.21093 L 952.41169 424.21057 L 914.5349 372.07764 L 914.5349 372.07646 L 929.00212 352.16405 L 914.5349 332.25163 L 914.5349 332.25045 L 937.94362 300.03112 L 914.5349 267.81179 L 914.5349 267.81061 L 929.00212 247.89819 L 914.5349 227.98578 L 914.5349 227.9846 L 952.41169 175.85168 L 952.41281 175.85132 L 975.82125 183.45718 L 990.28847 163.54476 L 990.28959 163.5444 L 1028.16568 175.85109 L 1051.5744 143.63176 L 1051.57552 143.6314 L 1074.98397 151.23727 L 1089.45119 131.32484 L 1089.45231 131.32448 Z M 1074.98597 448.82433 L 1089.45238 468.73563 L 1150.73693 448.82308 L 1150.73693 424.21136 Z M 1028.16769 424.2105 L 1051.57559 456.42872 L 1074.98274 448.82328 L 1051.57483 416.60507 Z M 1074.98474 448.82263 L 1112.85791 436.51689 L 1051.57783 416.60579 Z M 975.82326 416.60441 L 990.28966 436.51571 L 1028.16445 424.20945 L 1013.69804 404.29815 Z M 1051.57683 416.60337 L 1112.86076 436.51571 L 1150.73631 384.38449 L 1089.45238 364.47214 Z M 1112.86376 436.51499 L 1150.73693 424.20925 L 1150.73693 384.38705 Z M 914.53695 372.07705 L 952.41288 424.2088 L 975.82002 416.60336 L 929.00336 352.16575 Z M 1013.69966 404.29697 L 1028.16645 424.2088 L 1051.57421 416.60316 L 1051.57421 376.7786 L 1037.10795 372.07823 Z M 1150.73893 384.3847 L 1150.73893 424.2086 L 1174.14607 416.60316 L 1174.14607 376.77925 Z M 975.82202 416.60271 L 1013.69519 404.29697 L 952.41512 384.38587 Z M 1051.57621 416.60081 L 1074.98273 384.3845 L 1051.57621 376.77925 Z M 952.4135 384.38324 L 1013.69742 404.29559 L 1013.69742 339.85786 L 952.4135 319.94551 Z M 1013.69942 404.29389 L 1037.10594 372.07758 L 1013.69942 364.47234 Z M 1051.57621 376.77715 L 1074.98397 384.38279 L 1089.45038 364.47149 L 1051.57621 352.16542 Z M 1127.33002 352.16405 L 1150.73831 384.38279 L 1174.14607 376.77715 L 1174.14607 352.16478 L 1136.27067 339.85831 Z M 1112.86276 372.07653 L 1150.73531 384.38207 L 1127.32879 352.16575 Z M 929.00459 352.16405 L 952.4115 384.38089 L 952.4115 319.94721 Z M 1174.14807 352.16478 L 1174.14807 376.7765 L 1212.02286 364.47023 L 1212.02286 339.85851 Z M 1037.10918 372.07653 L 1051.57421 376.7765 L 1051.57421 352.16713 Z M 1013.69942 364.47023 L 1037.10718 372.07588 L 1051.57359 352.16457 L 1013.69942 339.85851 Z M 1089.45362 364.47044 L 1112.86075 372.07588 L 1127.32755 352.16405 L 1112.86114 332.25275 Z M 1051.57845 352.16405 L 1089.45161 364.46979 L 1112.85852 332.25294 Z M 1013.69966 300.03112 L 1051.57559 352.16287 L 1112.86014 332.25031 L 1112.86014 267.81193 L 1051.57559 247.89938 Z M 1136.27152 300.03112 L 1174.14707 352.16235 L 1212.02262 300.03112 L 1174.14707 247.8999 Z M 914.53695 332.25104 L 929.00336 352.16234 L 952.41126 319.94413 L 937.94485 300.03283 Z M 1127.32879 352.16234 L 1136.26866 339.85766 L 1112.86376 332.25294 Z M 1174.14969 352.16215 L 1212.02286 339.85641 L 1212.02286 300.0342 Z M 1013.69942 339.85641 L 1051.57259 352.16215 L 1013.69942 300.0342 Z M 1136.2719 339.85661 L 1174.14445 352.16215 L 1150.73793 319.94584 Z M 1112.86276 332.25052 L 1136.2699 339.85596 L 1150.73669 319.94413 L 1136.27028 300.03283 Z M 1212.02486 339.85576 L 1235.432 332.25031 L 1235.432 267.81193 L 1212.02486 260.20649 Z M 990.29028 307.63794 L 990.29028 332.25032 L 1013.69742 339.85576 L 1013.69742 300.0325 Z M 952.41573 319.94413 L 990.28828 332.24967 L 990.28828 307.63859 Z M 1112.86214 332.24796 L 1136.26904 300.03113 L 1112.86214 267.81429 Z M 937.94609 300.03112 L 952.41288 319.94295 L 990.28828 307.63649 L 990.28828 292.42576 L 952.41288 280.1193 Z M 990.29028 307.63584 L 1013.69519 300.03112 L 990.29028 292.42641 Z M 990.29028 267.81193 L 990.29028 292.4243 L 1013.69742 300.02974 L 1013.69742 260.20649 Z M 914.53695 267.8112 L 937.94485 300.02942 L 952.41126 280.11812 L 929.00335 247.8999 Z M 1112.86276 267.81173 L 1136.27028 300.02942 L 1150.73669 280.11812 L 1136.2699 260.20629 Z M 1013.69942 260.20584 L 1013.69942 300.02804 L 1051.57259 247.9001 Z M 1212.02286 300.02804 L 1212.02286 260.20584 L 1174.14969 247.9001 Z M 952.41573 280.11812 L 990.28828 292.42365 L 990.28828 267.81258 Z M 952.4135 215.67901 L 952.4135 280.11674 L 1013.69742 260.20439 L 1013.69742 195.76665 Z M 1136.2719 260.20564 L 1150.73793 280.11641 L 1174.14445 247.9001 Z M 929.00459 247.89819 L 952.4115 280.11504 L 952.4115 215.68135 Z M 1089.45362 235.59181 L 1112.86114 267.8095 L 1127.32755 247.8982 L 1112.86076 227.98637 Z M 1112.86376 267.8093 L 1136.26866 260.20459 L 1127.32879 247.8999 Z M 1051.57845 247.8982 L 1112.85851 267.8093 L 1089.45161 235.59246 Z M 1127.33002 247.8982 L 1136.27067 260.20394 L 1174.14607 247.89747 L 1174.14607 223.28509 L 1150.73831 215.67946 Z M 1013.69942 235.59201 L 1013.69942 260.20374 L 1051.57359 247.89768 L 1037.10718 227.98637 Z M 1174.14807 247.89747 L 1212.02286 260.20374 L 1212.02286 235.59201 L 1174.14807 223.28574 Z M 1051.57621 223.28509 L 1051.57621 247.89683 L 1089.45038 235.59076 L 1074.98397 215.67946 Z M 914.53695 227.98519 L 929.00335 247.89649 L 975.82001 183.45888 L 952.41288 175.85345 Z M 1112.86276 227.98572 L 1127.32879 247.89649 L 1150.73531 215.68018 Z M 1037.10918 227.98572 L 1051.57421 247.89512 L 1051.57421 223.28574 Z M 1051.57683 183.45888 L 1089.45238 235.59011 L 1150.73631 215.67776 L 1112.86076 163.54653 Z M 1013.69942 235.5899 L 1037.10594 227.98467 L 1013.69942 195.76835 Z M 1013.69966 195.76527 L 1037.10795 227.98402 L 1051.57421 223.28364 L 1051.57421 183.45909 L 1028.16645 175.85344 Z M 1051.57621 223.28299 L 1074.98273 215.67775 L 1051.57621 183.46144 Z M 1150.73893 215.67755 L 1174.14607 223.28299 L 1174.14607 183.45909 L 1150.73893 175.85365 Z M 952.41511 215.67638 L 1013.69519 195.76527 L 975.82202 183.45953 Z M 1150.73693 215.6752 L 1150.73693 175.853 L 1112.86377 163.54726 Z M 975.82325 183.45783 L 1013.69804 195.76409 L 1028.16445 175.85279 L 990.28966 163.54653 Z M 1028.16769 175.85174 L 1051.57483 183.45718 L 1074.98273 151.23897 L 1051.57559 143.63353 Z M 1051.57783 183.45646 L 1112.8579 163.54535 L 1074.98474 151.23962 Z M 1074.98597 151.23792 L 1150.73693 175.85089 L 1150.73693 151.23917 L 1089.45238 131.32661 Z" fill-opacity="0" stroke-miterlimit="10"/><path fill="rgb(0,0,0)" stroke="#cccccc" paint-order="fill stroke markers" d=" M 338.82845 546.66173 L 338.82914 546.66268 L 338.82914 574.31633 L 348.87422 560.49046 L 348.87551 560.49017 L 348.87603 560.49105 L 348.87603 594.67592 L 381.38778 605.23963 L 381.38847 605.24058 L 381.38847 615.80379 L 391.43468 619.068 L 391.43537 619.06895 L 391.43537 653.25382 L 423.94712 663.81753 L 423.94779 663.81867 L 423.94712 663.81943 L 407.69382 669.10045 L 433.99401 677.6459 L 433.9947 677.64685 L 433.9947 722.39638 L 433.99401 722.39733 L 407.69382 730.94278 L 423.94712 736.22379 L 423.94779 736.22493 L 423.94712 736.22569 L 391.43537 746.7894 L 391.43537 780.97428 L 391.43468 780.97523 L 381.38847 784.23944 L 381.38847 794.80264 L 381.38778 794.80359 L 348.87603 805.3673 L 348.87603 839.55218 L 348.87516 839.55317 L 348.87422 839.55277 L 338.82914 825.7269 L 338.82914 853.38054 L 338.82845 853.38149 L 296.26911 867.20986 L 296.26799 867.2095 L 280.01358 844.83722 L 280.01358 861.92694 L 280.01271 861.92793 L 280.01177 861.92753 L 259.91841 834.27139 L 227.40666 844.83509 L 227.40554 844.83473 L 221.19665 836.28892 L 211.15044 839.55313 L 211.14932 839.55277 L 191.05596 811.89662 L 158.54421 822.46033 L 158.543 822.45981 L 158.54309 822.45879 L 168.58818 808.63291 L 142.28799 817.17836 L 142.28687 817.178 L 115.98376 780.97487 L 115.98376 780.97369 L 132.23816 758.60142 L 115.98488 763.88243 L 115.98367 763.88191 L 115.98376 763.88089 L 136.07712 736.22474 L 115.98376 708.5686 L 115.98376 708.56742 L 122.19265 700.02161 L 115.98376 691.4758 L 115.98376 691.47462 L 136.07712 663.81848 L 115.98376 636.16234 L 115.98389 636.16102 L 115.98488 636.1608 L 132.23816 641.44181 L 115.98376 619.06954 L 115.98376 619.06836 L 142.28687 582.86522 L 142.28799 582.86486 L 168.58817 591.41031 L 158.54309 577.58444 L 158.54322 577.58312 L 158.54421 577.5829 L 191.05596 588.1466 L 211.14932 560.49046 L 211.15044 560.4901 L 221.19664 563.75431 L 227.40554 555.20849 L 227.40666 555.20813 L 259.91841 565.77184 L 280.01177 538.11569 L 280.01306 538.1154 L 280.01358 538.11628 L 280.01358 555.20601 L 296.26799 532.83372 L 296.26911 532.83336 Z M 280.01358 817.17814 L 280.01358 844.83381 L 296.26918 867.20773 L 338.82714 853.37981 L 338.82714 825.72415 L 322.57154 803.35022 Z M 259.92041 834.27074 L 280.01158 861.92386 L 280.01158 844.83447 L 269.96531 831.00696 Z M 221.19865 836.28827 L 227.40673 844.83296 L 259.91717 834.26969 L 253.70909 825.72499 Z M 227.40716 772.42847 L 227.40687 772.42853 L 227.40666 772.42883 L 184.84764 786.25709 L 168.59342 808.6291 L 184.84671 803.34809 L 184.84783 803.34845 L 191.05673 811.89427 L 201.10293 808.63006 L 201.10405 808.63042 L 221.19741 836.28657 L 253.70916 825.72286 L 253.71028 825.72322 L 259.91918 834.26904 L 269.96538 831.00483 L 269.9665 831.00519 L 280.01158 844.83106 L 280.01158 817.17774 L 253.70866 780.97487 L 253.70866 780.97445 L 253.70847 780.97428 L 253.70847 736.22782 Z M 191.05796 811.89597 L 211.15051 839.551 L 221.19541 836.28722 L 201.10286 808.63219 Z M 338.82914 808.63174 L 338.82914 825.72349 L 348.87403 839.5491 L 348.87403 805.36795 Z M 338.82845 736.22569 L 338.82805 736.22556 L 338.82783 736.22569 L 296.27142 722.39828 L 322.57273 758.59892 L 322.57269 758.59931 L 322.57292 758.59951 L 322.57292 803.34871 L 338.82714 825.72074 L 338.82714 808.63101 L 338.82783 808.63006 L 348.87403 805.36585 L 348.87403 794.80264 L 348.87472 794.80169 L 381.38647 784.23799 L 381.38647 750.05311 L 381.38716 750.05216 L 391.43337 746.78795 L 391.43337 736.22474 L 391.43406 736.22379 L 407.68735 730.94278 L 381.38747 722.39743 Z M 168.59142 808.63186 L 158.54652 822.45748 L 191.05472 811.89492 L 184.84664 803.35022 Z M 132.2414 758.60036 L 115.98581 780.97428 L 142.28806 817.17623 L 168.59018 808.63016 L 184.84578 786.25624 L 158.54352 750.05429 Z M 253.71071 780.97428 L 280.01296 817.17623 L 322.57092 803.34831 L 322.57092 758.60024 L 280.01296 744.77232 Z M 348.87603 794.80337 L 348.87603 805.3652 L 381.38647 794.80191 L 381.38647 784.24009 Z M 158.54514 750.05311 L 184.8474 786.25506 L 227.40535 772.42715 L 227.40535 727.67907 L 184.8474 713.85116 Z M 381.38847 750.05384 L 381.38847 784.23734 L 391.43337 780.97355 L 391.43337 746.79005 Z M 253.71047 736.22547 L 253.71047 780.9712 L 280.01177 744.77055 L 280.01289 744.77019 L 322.5693 758.59761 L 296.26842 722.39756 Z M 184.85025 713.84998 L 227.40666 727.67739 L 227.40735 727.67834 L 227.40735 772.4248 L 253.70823 736.22474 L 227.40597 700.02279 Z M 115.98719 763.87958 L 132.24016 758.59867 L 142.28644 744.77114 L 136.07836 736.22645 Z M 142.28849 655.27149 L 142.28849 655.27267 L 136.0796 663.81848 L 142.28849 672.36429 L 142.28849 672.36547 L 122.19513 700.02161 L 142.28849 727.67775 L 142.28849 727.67893 L 136.0796 736.22474 L 142.28849 744.77055 L 142.28849 744.77173 L 132.2434 758.59761 L 158.54328 750.05226 L 184.84621 713.84939 L 184.84644 713.84934 L 184.84671 713.84903 L 227.40312 700.02161 L 184.84671 686.1942 L 184.84652 686.19387 L 184.84621 686.19384 L 158.54328 649.99096 L 132.2434 641.44561 Z M 391.43537 736.22547 L 391.43537 746.7873 L 423.94358 736.22474 L 407.69059 730.94383 Z M 227.40759 700.02161 L 253.70985 736.22356 L 296.2678 722.39565 L 296.2678 677.64758 L 253.70985 663.81966 Z M 312.52626 700.02161 L 338.82852 736.22356 L 381.38647 722.39565 L 381.38647 677.64758 L 338.82852 663.81966 Z M 115.98581 708.56801 L 136.07836 736.22304 L 142.28644 727.67834 L 122.19389 700.02331 Z M 296.2698 677.64758 L 296.2698 722.39565 L 338.82552 736.22284 L 312.52421 700.0222 L 312.52421 700.02102 L 338.82552 663.82038 Z M 381.38847 677.64758 L 381.38847 722.39565 L 407.69059 730.94173 L 433.9927 722.39565 L 433.9927 677.64758 L 407.69059 669.1015 Z M 227.40735 672.36488 L 227.40666 672.36583 L 184.85025 686.19325 L 227.40597 700.02043 L 253.70823 663.81848 L 227.40735 627.61843 Z M 115.98581 691.47521 L 122.19389 700.01991 L 142.28644 672.36488 L 136.07836 663.82018 Z M 158.54514 649.99011 L 184.8474 686.19207 L 227.40535 672.36415 L 227.40535 627.61608 L 184.8474 613.78816 Z M 322.57292 596.69451 L 322.57292 641.44371 L 322.57267 641.44405 L 322.57273 641.4443 L 296.27142 677.64495 L 338.82783 663.81753 L 338.82819 663.81768 L 338.82845 663.81753 L 381.38747 677.6458 L 407.68735 669.10045 L 391.43406 663.81943 L 391.43337 663.81848 L 391.43337 653.25527 L 381.38716 649.99106 L 381.38647 649.99011 L 381.38647 615.80524 L 348.87472 605.24153 L 348.87403 605.24058 L 348.87403 594.67737 L 338.82783 591.41316 L 338.82714 591.41221 L 338.82714 574.32249 Z M 253.71047 663.81775 L 296.26842 677.64567 L 322.5693 641.44561 L 280.01289 655.27303 L 280.01177 655.27267 L 253.71047 619.07203 Z M 391.43537 663.81775 L 407.69059 669.0994 L 423.94358 663.81848 L 391.43537 653.25592 Z M 136.07836 663.81678 L 142.28644 655.27208 L 132.24016 641.44456 L 115.98719 636.16365 Z M 269.9665 569.03804 L 269.96538 569.0384 L 259.91917 565.77419 L 253.71028 574.32 L 253.70916 574.32036 L 221.19741 563.75666 L 201.10405 591.4128 L 201.10293 591.41316 L 191.05673 588.14895 L 184.84783 596.69477 L 184.84671 596.69513 L 168.59342 591.41411 L 184.84764 613.78613 L 227.40666 627.6144 L 227.40677 627.61459 L 227.40716 627.61476 L 253.70847 663.8154 L 253.70847 619.06895 L 253.70873 619.06866 L 253.70866 619.06836 L 280.01158 582.86548 L 280.01158 555.21217 Z M 253.71071 619.06895 L 280.01296 655.2709 L 322.57092 641.44298 L 322.57092 596.69491 L 280.01296 582.86699 Z M 381.38847 649.98938 L 391.43337 653.25317 L 391.43337 619.06968 L 381.38847 615.80589 Z M 115.98581 619.06895 L 132.24141 641.44286 L 158.54352 649.98893 L 184.84578 613.78698 L 168.59017 591.41306 L 142.28806 582.86699 Z M 348.87603 605.23985 L 381.38647 615.80314 L 381.38647 605.24131 L 348.87603 594.67802 Z M 168.59142 591.41136 L 184.84664 596.693 L 191.05472 588.1483 L 158.54652 577.58575 Z M 280.01358 555.20942 L 280.01358 582.86508 L 322.57154 596.693 L 338.82714 574.31908 L 338.82714 546.66341 L 296.26918 532.83549 Z M 338.82914 574.31974 L 338.82914 591.41148 L 348.87403 594.67527 L 348.87403 560.49413 Z M 191.05796 588.14725 L 201.10286 591.41103 L 221.19541 563.75601 L 211.15051 560.49223 Z M 221.19865 563.75496 L 253.70909 574.31823 L 259.91717 565.77354 L 227.40673 555.21026 Z M 259.92041 565.77249 L 269.96531 569.03627 L 280.01158 555.20876 L 280.01158 538.11936 Z" fill-opacity="0" stroke-miterlimit="10"/><path fill="rgb(0,0,0)" stroke="#cccccc" paint-order="fill stroke markers" d=" M 697.41954 557.43296 L 697.42023 557.43391 L 697.42023 619.18969 L 711.28473 638.27253 L 733.71794 630.98354 L 770.01708 581.02205 L 770.0182 581.02169 L 828.75176 600.10538 L 828.75245 600.10633 L 828.75245 661.86245 L 828.75176 661.8634 L 770.01851 680.94699 L 756.15402 700.02983 L 770.01851 719.11266 L 828.75176 738.19625 L 828.75245 738.1972 L 828.75245 799.95332 L 828.75176 799.95427 L 770.0182 819.03796 L 770.01708 819.0376 L 733.71794 769.07611 L 711.28473 761.78712 L 697.42023 780.86996 L 697.42023 842.62574 L 697.41954 842.62669 L 638.68598 861.71038 L 638.68486 861.71002 L 602.38553 811.74828 L 602.38553 811.7471 L 638.68467 761.78561 L 638.68467 738.19793 L 616.25145 730.90893 L 557.5182 749.99252 L 557.51744 749.99219 L 557.51708 749.99216 L 521.21775 700.03042 L 521.21775 700.02924 L 557.51708 650.06749 L 557.5182 650.06713 L 616.25145 669.15072 L 638.68467 661.86172 L 638.68467 638.27404 L 602.38553 588.31255 L 602.38553 588.31137 L 638.68486 538.34963 L 638.68598 538.34927 Z M 638.68605 861.70825 L 674.98178 849.91506 L 616.25407 830.83328 Z M 674.98601 811.74769 L 674.98532 811.74864 L 652.55241 819.03754 L 674.98539 849.91388 L 697.41823 842.62501 L 697.41823 780.87036 L 674.98601 773.58169 Z M 616.25468 830.83138 L 674.98239 849.91316 L 652.5504 819.03819 Z M 602.38758 811.74769 L 616.25184 830.8302 L 652.54917 819.03649 L 638.68486 799.95391 L 638.68486 799.95273 L 661.11827 769.07579 L 638.68605 761.78712 Z M 638.68691 799.95332 L 652.55117 819.03584 L 674.98401 811.74696 L 674.98401 773.58104 L 661.12028 769.07644 Z M 733.7198 769.07526 L 770.01827 819.03583 L 792.45112 811.74696 L 792.45112 773.58168 L 770.0182 780.87058 L 770.01708 780.87022 L 747.58367 749.99328 Z M 792.45474 811.74578 L 828.75045 799.95259 L 828.75045 761.78902 Z M 792.45312 773.58103 L 792.45312 811.74461 L 828.74883 761.78784 Z M 674.98601 773.57958 L 697.41885 780.86845 L 711.28272 761.78646 L 674.98601 749.99295 Z M 747.58491 749.99157 L 770.01827 780.86845 L 792.45112 773.57958 L 792.45112 749.9923 L 756.15316 738.19838 Z M 756.1544 738.19668 L 792.45243 749.99062 L 792.45312 749.99157 L 792.45312 773.57893 L 828.75045 761.78521 L 828.75045 738.19793 L 770.01827 719.11469 Z M 661.12151 769.07474 L 674.98401 773.57893 L 674.98401 749.99464 Z M 638.68667 761.78521 L 661.11951 769.07408 L 674.98339 749.99209 L 638.68667 738.19858 Z M 711.28596 761.78542 L 733.71818 769.07408 L 747.58243 749.99157 L 733.71856 730.90959 Z M 674.98824 749.99157 L 711.28396 761.78476 L 733.71594 730.90978 Z M 543.65402 730.90788 L 557.51827 749.99039 L 616.25045 730.90715 L 616.25045 707.32052 L 579.95243 719.11446 L 579.95167 719.11413 L 579.95131 719.1141 L 566.08701 700.03153 Z M 747.58367 749.98987 L 756.15116 738.19772 L 733.72118 730.90978 Z M 674.98762 749.98967 L 733.71532 730.90788 L 697.41961 719.11469 Z M 638.68667 738.19647 L 674.98239 749.98967 L 638.68667 700.03291 Z M 674.98401 749.98849 L 674.98401 711.82492 L 638.68829 700.03173 Z M 674.98601 749.98848 L 697.41761 719.11404 L 674.98601 711.82557 Z M 733.72018 730.90736 L 756.1524 738.19602 L 770.01665 719.11351 L 756.15278 700.03153 Z M 616.25245 707.31987 L 616.25245 730.90715 L 638.68467 738.19582 L 638.68467 700.0312 Z M 697.42085 719.11299 L 733.71593 730.90598 L 711.28434 700.03153 Z M 711.28557 700.02983 L 733.71756 730.90481 L 733.71756 669.15484 Z M 543.65378 730.9048 L 566.08577 700.02983 L 543.65378 669.15485 Z M 733.71956 730.9048 L 756.15154 700.02983 L 733.71956 669.15485 Z M 521.2198 700.02983 L 543.65178 730.9048 L 543.65178 669.15485 Z M 674.98601 688.23618 L 674.98601 711.82347 L 697.41884 719.11234 L 711.2831 700.02983 L 697.41884 680.94731 Z M 566.08825 700.02983 L 579.9525 719.11233 L 616.25045 707.31842 L 616.25045 692.74123 L 579.9525 680.94732 Z M 638.6889 700.02983 L 674.98401 711.82282 L 674.98401 688.23683 Z M 616.25245 707.31777 L 638.68243 700.02983 L 616.25245 692.74188 Z M 616.25245 669.1525 L 616.25245 692.73978 L 638.68467 700.02845 L 638.68467 661.86383 Z M 543.65402 669.15177 L 566.08701 700.02812 L 579.95131 680.94555 L 579.95243 680.94519 L 616.25045 692.73913 L 616.25045 669.1525 L 557.51827 650.06926 Z M 697.42085 680.94666 L 711.28434 700.02812 L 733.71593 669.15367 Z M 733.72018 669.15229 L 756.15278 700.02812 L 770.01665 680.94614 L 756.1524 661.86363 Z M 638.6883 700.02792 L 674.98401 688.23473 L 674.98401 650.07116 Z M 638.68667 661.86318 L 638.68667 700.02675 L 674.98239 650.06998 Z M 674.98601 688.23408 L 697.41761 680.94561 L 674.98601 650.07117 Z M 697.41961 680.94496 L 733.71532 669.15177 L 674.98762 650.06998 Z M 792.45312 650.06808 L 792.45243 650.06903 L 756.1544 661.86297 L 770.01827 680.94496 L 828.75045 661.86172 L 828.75045 638.27444 L 792.45312 626.48072 Z M 711.28596 638.27423 L 733.71856 669.15006 L 747.58243 650.06808 L 733.71818 630.98557 Z M 733.72118 669.14987 L 756.15116 661.86193 L 747.58367 650.06978 Z M 674.98824 650.06808 L 733.71594 669.14987 L 711.28396 638.27489 Z M 747.58491 650.06808 L 756.15316 661.86127 L 792.45112 650.06735 L 792.45112 626.48007 L 770.01827 619.1912 Z M 638.68667 638.27444 L 638.68667 661.86107 L 674.98339 650.06756 L 661.11951 630.98557 Z M 674.98601 626.48007 L 674.98601 650.0667 L 711.28272 638.27319 L 697.41885 619.1912 Z M 733.7198 630.98439 L 747.58367 650.06637 L 770.01708 619.18943 L 770.0182 619.18907 L 792.45112 626.47797 L 792.45112 588.31269 L 770.01827 581.02382 Z M 661.12151 630.98491 L 674.98401 650.06501 L 674.98401 626.48072 Z M 602.38758 588.31196 L 638.68605 638.27253 L 661.11827 630.98386 L 638.68486 600.10692 L 638.68486 600.10574 L 652.54917 581.02316 L 616.25184 569.22945 Z M 792.45312 626.47862 L 828.74883 638.27181 L 792.45312 588.31504 Z M 828.75045 638.27063 L 828.75045 600.10706 L 792.45474 588.31387 Z M 638.68691 600.10633 L 661.12028 630.98321 L 674.98401 626.47861 L 674.98401 588.31269 L 652.55117 581.02381 Z M 652.55241 581.02211 L 674.98532 588.31101 L 674.98601 588.31196 L 674.98601 626.47796 L 697.41823 619.18929 L 697.41823 557.43464 L 674.98539 550.14577 Z M 616.25468 569.22827 L 652.5504 581.02146 L 674.98239 550.14649 Z M 616.25407 569.22637 L 674.98178 550.14459 L 638.68605 538.3514 Z" fill-opacity="0" stroke-miterlimit="10"/><path fill="rgb(0,0,0)" stroke="#cccccc" paint-order="fill stroke markers" d=" M 1150.73824 551.23749 L 1150.73893 551.23844 L 1150.73893 575.85154 L 1174.14738 583.45741 L 1174.14807 583.45836 L 1174.14807 623.28364 L 1212.02417 635.59033 L 1212.02486 635.59128 L 1212.02486 660.20439 L 1235.43331 667.81025 L 1235.434 667.8112 L 1235.434 732.25104 L 1235.43331 732.25199 L 1212.02486 739.85786 L 1212.02486 764.47096 L 1212.02417 764.47191 L 1174.14807 776.7786 L 1174.14807 816.60389 L 1174.14738 816.60484 L 1150.73893 824.21071 L 1150.73893 848.82381 L 1150.73824 848.82476 L 1089.45231 868.73776 L 1089.45119 868.7374 L 1074.98397 848.82498 L 1051.57552 856.43085 L 1051.5744 856.43049 L 1028.16568 824.21115 L 990.28959 836.51784 L 990.28847 836.51748 L 975.82125 816.60506 L 952.41281 824.21093 L 952.41169 824.21057 L 914.5349 772.07764 L 914.5349 772.07646 L 929.00212 752.16405 L 914.5349 732.25163 L 914.5349 732.25045 L 937.94362 700.03112 L 914.5349 667.81179 L 914.5349 667.81061 L 929.00212 647.89819 L 914.5349 627.98578 L 914.5349 627.9846 L 952.41169 575.85168 L 952.41281 575.85132 L 975.82125 583.45718 L 990.28847 563.54476 L 990.28959 563.5444 L 1028.16568 575.85109 L 1051.5744 543.63176 L 1051.57552 543.6314 L 1074.98397 551.23727 L 1089.45119 531.32484 L 1089.45231 531.32448 Z M 1074.98597 848.82433 L 1089.45238 868.73563 L 1150.73693 848.82308 L 1150.73693 824.21136 Z M 1028.16769 824.2105 L 1051.57559 856.42872 L 1074.98274 848.82328 L 1051.57483 816.60507 Z M 1074.98474 848.82263 L 1112.85791 836.51689 L 1051.57783 816.60579 Z M 975.82326 816.60441 L 990.28966 836.51571 L 1028.16445 824.20945 L 1013.69804 804.29815 Z M 1051.57683 816.60337 L 1112.86076 836.51571 L 1150.73631 784.38449 L 1089.45238 764.47214 Z M 1112.86376 836.51499 L 1150.73693 824.20925 L 1150.73693 784.38705 Z M 914.53695 772.07705 L 952.41288 824.2088 L 975.82002 816.60336 L 929.00336 752.16575 Z M 1013.69966 804.29697 L 1028.16645 824.2088 L 1051.57421 816.60316 L 1051.57421 776.7786 L 1037.10795 772.07823 Z M 1150.73893 784.3847 L 1150.73893 824.2086 L 1174.14607 816.60316 L 1174.14607 776.77925 Z M 975.82202 816.60271 L 1013.69519 804.29697 L 952.41512 784.38587 Z M 1051.57621 816.60081 L 1074.98273 784.3845 L 1051.57621 776.77925 Z M 952.4135 784.38324 L 1013.69742 804.29559 L 1013.69742 739.85786 L 952.4135 719.94551 Z M 1013.69942 804.29389 L 1037.10594 772.07758 L 1013.69942 764.47234 Z M 1127.33002 752.16405 L 1150.73831 784.38279 L 1174.14607 776.77715 L 1174.14607 752.16478 L 1136.27067 739.85831 Z M 1051.57621 776.77715 L 1074.98335 784.38259 L 1074.98335 759.77087 L 1051.57621 752.16542 Z M 1112.86276 772.07653 L 1150.73531 784.38207 L 1127.32879 752.16575 Z M 929.00459 752.16405 L 952.4115 784.38089 L 952.4115 719.94721 Z M 1074.98535 784.38089 L 1089.45038 764.47149 L 1074.98535 759.77151 Z M 1174.14807 752.16478 L 1174.14807 776.7765 L 1212.02286 764.47023 L 1212.02286 739.85851 Z M 1037.10918 772.07653 L 1051.57421 776.7765 L 1051.57421 752.16713 Z M 1013.70004 764.47044 L 1037.10718 772.07588 L 1051.57359 752.16457 L 1028.16645 744.55913 Z M 1098.39473 752.16405 L 1112.86114 772.07535 L 1127.32755 752.16405 L 1112.86114 732.25275 Z M 1089.45362 764.47044 L 1112.85852 772.07515 L 1098.3935 752.16575 Z M 1074.98535 759.76941 L 1089.44938 764.46906 L 1074.98535 744.56103 Z M 1013.69942 764.46788 L 1028.16445 744.55848 L 1013.69942 739.85851 Z M 1089.453 764.46788 L 1098.39226 752.16405 L 1089.453 739.86022 Z M 1074.98535 744.55762 L 1089.451 764.46788 L 1089.451 739.85747 L 1074.98535 719.94721 Z M 1037.10819 732.25189 L 1028.16769 744.55743 L 1074.98335 759.76876 L 1074.98335 744.55828 L 1060.51632 724.64612 Z M 1136.27152 700.03112 L 1174.14707 752.16235 L 1212.02262 700.03112 L 1174.14707 647.8999 Z M 914.53695 732.25104 L 929.00336 752.16234 L 952.41126 719.94413 L 937.94485 700.03283 Z M 1089.453 715.24403 L 1089.453 739.85681 L 1098.3935 752.16234 L 1127.32717 712.33856 L 1112.86114 707.63826 Z M 1127.32879 752.16234 L 1136.26866 739.85766 L 1112.86376 732.25294 Z M 1174.14969 752.16215 L 1212.02286 739.85641 L 1212.02286 700.0342 Z M 1136.2719 739.85661 L 1174.14445 752.16215 L 1150.73793 719.94584 Z M 1013.70165 739.85713 L 1028.16568 744.55678 L 1037.10495 732.25294 Z M 1060.51833 724.64547 L 1074.98335 744.55487 L 1074.98335 719.9455 Z M 1112.86276 732.25052 L 1136.2699 739.85596 L 1150.73631 719.94465 L 1127.32917 712.33921 Z M 1212.02486 739.85576 L 1235.432 732.25031 L 1235.432 667.81193 L 1212.02486 660.20649 Z M 990.29251 732.25104 L 1013.69742 739.85576 L 1013.69742 724.64633 Z M 1028.16668 719.94498 L 1013.70104 739.85523 L 1037.10695 732.25019 L 1051.57259 712.33994 Z M 1074.98597 719.94465 L 1089.451 739.85406 L 1089.451 715.24468 Z M 1013.69942 724.64568 L 1013.69942 739.85405 L 1028.16344 719.94603 Z M 952.41573 719.94413 L 990.28828 732.24967 L 990.28828 707.63859 Z M 990.29028 707.63794 L 990.29028 732.24966 L 1013.69742 724.64423 L 1013.69742 700.0325 Z M 1037.11019 732.24913 L 1060.51509 724.64442 L 1051.57521 712.33974 Z M 1042.63495 700.03112 L 1060.51709 724.64377 L 1089.451 715.24257 L 1089.451 684.81967 L 1060.51709 675.41847 Z M 1013.69942 724.64358 L 1028.16544 719.94328 L 1042.63247 700.03112 L 1028.16545 680.11897 L 1013.69942 675.41867 Z M 937.94609 700.03112 L 952.41288 719.94295 L 990.28828 707.63649 L 990.28828 692.42576 L 952.41288 680.1193 Z M 1028.16868 719.94223 L 1051.57359 712.33751 L 1042.63371 700.03282 Z M 1127.33041 712.33751 L 1150.73531 719.94223 L 1136.27028 700.03283 Z M 1089.453 715.24193 L 1112.8579 707.63721 L 1089.453 700.0325 Z M 1112.86437 707.63721 L 1127.3284 712.33686 L 1136.26767 700.03302 Z M 1089.45523 700.03112 L 1112.86114 707.63616 L 1136.26705 700.03112 L 1112.86114 692.42608 Z M 990.29028 707.63584 L 1013.69519 700.03112 L 990.29028 692.42641 Z M 990.29028 692.4243 L 1013.69742 700.02974 L 1013.69742 675.41802 L 990.29028 667.81258 Z M 1089.453 700.02974 L 1112.85791 692.42503 L 1089.453 684.82031 Z M 914.53695 667.8112 L 937.94485 700.02942 L 952.41126 680.11812 L 929.00335 647.8999 Z M 1042.63371 700.02942 L 1051.57359 687.72473 L 1028.16869 680.12002 Z M 1127.3304 687.72473 L 1136.27028 700.02942 L 1150.73531 680.12002 Z M 1112.86438 692.42503 L 1136.26766 700.02922 L 1127.3284 687.72539 Z M 1212.02286 700.02804 L 1212.02286 660.20584 L 1174.14969 647.9001 Z M 1089.453 660.20544 L 1089.453 684.81821 L 1112.86114 692.42398 L 1127.32717 687.72369 L 1098.39349 647.8999 Z M 952.41573 680.11812 L 990.28828 692.42365 L 990.28828 667.81258 Z M 1112.86276 667.81173 L 1127.32917 687.72303 L 1150.73631 680.1176 L 1136.2699 660.20629 Z M 1051.57521 687.7225 L 1060.51509 675.41782 L 1037.11018 667.8131 Z M 1028.16669 680.11727 L 1051.57259 687.72231 L 1037.10694 667.81205 L 1013.70104 660.20701 Z M 1074.98597 680.11759 L 1089.451 684.81756 L 1089.451 660.20819 Z M 952.4135 615.67901 L 952.4135 680.11674 L 1013.69742 660.20439 L 1013.69742 595.76665 Z M 1060.51833 675.41677 L 1074.98335 680.11674 L 1074.98335 655.50737 Z M 1136.2719 660.20564 L 1150.73793 680.11641 L 1174.14445 647.9001 Z M 1013.69942 675.41657 L 1028.16345 680.11621 L 1013.69942 660.20819 Z M 1074.98535 655.50462 L 1074.98535 680.11504 L 1089.451 660.20478 L 1089.451 635.59436 Z M 929.00459 647.89819 L 952.4115 680.11504 L 952.4115 615.68135 Z M 1028.16769 655.50482 L 1037.10818 667.81035 L 1060.51632 675.41612 L 1074.98335 655.50396 L 1074.98335 640.29349 Z M 990.29253 667.8112 L 1013.69742 675.41592 L 1013.69742 660.20649 Z M 1098.39473 647.8982 L 1112.86114 667.8095 L 1127.32755 647.8982 L 1112.86114 627.98689 Z M 1013.70166 660.20511 L 1037.10494 667.8093 L 1028.16569 655.50547 Z M 1112.86376 667.8093 L 1136.26866 660.20459 L 1127.32879 647.8999 Z M 1127.33002 647.8982 L 1136.27067 660.20394 L 1174.14607 647.89747 L 1174.14607 623.28509 L 1150.73831 615.67946 Z M 1013.69942 660.20374 L 1028.16445 655.50377 L 1013.69942 635.59436 Z M 1174.14807 647.89747 L 1212.02286 660.20374 L 1212.02286 635.59201 L 1174.14807 623.28574 Z M 1089.453 660.20203 L 1098.39225 647.8982 L 1089.453 635.59437 Z M 1013.70004 635.5918 L 1028.16645 655.50312 L 1051.57359 647.89768 L 1037.10718 627.98637 Z M 1074.98535 640.29284 L 1074.98535 655.50121 L 1089.44937 635.59319 Z M 1051.57621 623.28509 L 1051.57621 647.89683 L 1074.98335 640.29138 L 1074.98335 615.67966 Z M 914.53695 627.98519 L 929.00335 647.89649 L 975.82001 583.45888 L 952.41288 575.85345 Z M 1089.45362 635.59181 L 1098.39349 647.89649 L 1112.85851 627.9871 Z M 1112.86276 627.98572 L 1127.32879 647.89649 L 1150.73531 615.68018 Z M 1037.10918 627.98572 L 1051.57421 647.89512 L 1051.57421 623.28574 Z M 1074.98535 640.29074 L 1089.45038 635.59076 L 1074.98535 615.68136 Z M 1051.57683 583.45888 L 1089.45238 635.59011 L 1150.73631 615.67776 L 1112.86076 563.54653 Z M 1013.69942 635.5899 L 1037.10594 627.98467 L 1013.69942 595.76835 Z M 1013.69966 595.76527 L 1037.10795 627.98402 L 1051.57421 623.28364 L 1051.57421 583.45909 L 1028.16645 575.85344 Z M 1051.57621 623.28299 L 1074.98273 615.67775 L 1051.57621 583.46144 Z M 1150.73893 615.67755 L 1174.14607 623.28299 L 1174.14607 583.45909 L 1150.73893 575.85365 Z M 952.41511 615.67638 L 1013.69519 595.76527 L 975.82202 583.45953 Z M 1150.73693 615.6752 L 1150.73693 575.853 L 1112.86377 563.54726 Z M 975.82325 583.45783 L 1013.69804 595.76409 L 1028.16445 575.85279 L 990.28966 563.54653 Z M 1028.16769 575.85174 L 1051.57483 583.45718 L 1074.98273 551.23897 L 1051.57559 543.63353 Z M 1051.57783 583.45646 L 1112.8579 563.54535 L 1074.98474 551.23962 Z M 1074.98597 551.23792 L 1150.73693 575.85089 L 1150.73693 551.23917 L 1089.45238 531.32661 Z" fill-opacity="0" stroke-miterlimit="10"/><path fill="rgb(0,0,0)" stroke="#cccccc" paint-order="fill stroke markers" d=" M 280.21827 930.03293 L 306.93846 966.81012 L 323.45195 972.17568 L 366.68612 958.12804 L 366.68724 958.1284 L 436.6421 1054.41301 L 436.6421 1054.41419 L 409.92191 1091.19138 L 409.92191 1108.55467 L 436.6421 1145.33186 L 436.6421 1145.33304 L 366.68724 1241.61765 L 366.68612 1241.61801 L 323.45195 1227.57038 L 306.93847 1232.93593 L 280.21827 1269.71312 L 280.21715 1269.71348 L 167.02781 1232.93603 L 167.02712 1232.93508 L 167.02712 1187.47599 L 156.82122 1173.42877 L 113.58705 1159.38114 L 113.58636 1159.38019 L 113.58636 1040.36587 L 113.58705 1040.36492 L 156.82122 1026.31729 L 167.02712 1012.27007 L 167.02712 966.81097 L 167.02781 966.81002 L 280.21715 930.03257 Z M 236.9846 1255.66427 L 280.21708 1269.71135 L 306.93522 1232.93699 L 280.21777 1241.61801 L 280.21732 1241.61786 L 280.21698 1241.61794 L 280.21694 1241.61774 L 280.21665 1241.61765 L 263.70336 1218.88906 Z M 210.2636 1201.52412 L 210.2636 1246.98209 L 236.9826 1255.66362 L 263.70212 1218.88735 L 243.29042 1190.79305 Z M 167.02912 1232.93435 L 210.2616 1246.98144 L 210.2616 1201.52477 L 183.54253 1210.20632 L 183.54242 1210.20628 L 183.54235 1210.20636 L 183.54217 1210.20621 L 183.54141 1210.20596 L 167.02912 1187.47874 Z M 350.17333 1218.88735 L 350.17326 1218.88745 L 350.17331 1218.88754 L 350.1731 1218.88766 L 350.17264 1218.8883 L 323.45518 1227.56933 L 366.68605 1241.61588 L 393.40519 1204.84013 L 350.17333 1190.79325 Z M 263.7046 1218.88735 L 280.21746 1241.61536 L 296.73057 1218.88701 L 296.73057 1201.52412 L 280.21784 1196.15882 Z M 280.22008 1241.61516 L 306.93722 1232.93423 L 313.24405 1224.25363 L 296.73195 1218.88852 Z M 306.94046 1232.93318 L 323.44871 1227.56933 L 313.24606 1224.25428 Z M 313.24729 1224.25258 L 323.45195 1227.56828 L 350.1691 1218.88735 L 323.45233 1210.20655 Z M 296.73318 1218.88682 L 313.24529 1224.25193 L 323.45033 1210.2059 L 306.93823 1204.84079 Z M 313.24691 1196.15763 L 323.45258 1210.20453 L 350.17133 1218.88597 L 350.17133 1190.7926 L 323.45233 1182.11108 Z M 253.4987 1204.84013 L 263.70336 1218.88565 L 280.21485 1196.15953 Z M 296.73257 1218.88426 L 306.93622 1204.84014 L 296.73257 1201.52477 Z M 183.54322 1182.11023 L 183.54322 1210.20399 L 210.2616 1201.52267 L 210.2616 1173.42865 L 193.74888 1168.06334 Z M 306.93946 1204.83909 L 323.44933 1210.20347 L 313.24567 1196.15934 Z M 167.02912 1187.47533 L 183.54122 1210.20229 L 183.54122 1182.11063 L 167.02912 1176.74552 Z M 296.73257 1190.7926 L 296.73257 1201.52267 L 306.93746 1204.83844 L 313.24443 1196.15763 L 306.93746 1187.47683 Z M 243.29242 1190.7924 L 253.49746 1204.83843 L 280.21584 1196.15711 L 270.0108 1182.11108 Z M 350.17333 1156.06469 L 350.17333 1190.79115 L 393.40643 1204.83843 L 409.91967 1182.1099 L 383.20015 1145.33363 Z M 210.2636 1201.52202 L 226.77508 1196.15711 L 210.2636 1173.43101 Z M 280.22068 1196.15764 L 296.73057 1201.52202 L 296.73057 1190.79325 Z M 210.26422 1173.42845 L 226.77708 1196.15646 L 243.28919 1190.79135 L 226.77632 1168.06334 Z M 270.0128 1182.11043 L 280.21784 1196.15646 L 296.73057 1190.79115 L 296.73057 1173.4293 Z M 306.93946 1187.47618 L 313.24567 1196.15593 L 323.44933 1182.1118 Z M 236.98422 1182.1099 L 243.29119 1190.7907 L 253.49608 1187.47493 L 253.49608 1159.38327 Z M 296.73257 1190.7905 L 306.93622 1187.47513 L 296.73257 1173.43101 Z M 323.45518 1182.1099 L 350.17133 1190.7905 L 350.17133 1173.4293 Z M 296.73319 1173.42845 L 306.93823 1187.47448 L 323.45095 1182.10917 L 323.45095 1164.74732 Z M 253.49808 1187.47428 L 270.00956 1182.10938 L 253.49808 1159.38327 Z M 167.02712 1187.47258 L 167.02712 1176.74487 L 156.82446 1173.42983 Z M 253.4987 1159.38071 L 270.01157 1182.10873 L 296.72995 1173.4274 L 280.21708 1150.69938 Z M 323.45295 1164.74667 L 323.45295 1182.10852 L 350.17133 1173.42719 L 350.17133 1156.06534 Z M 167.02912 1176.74342 L 183.54122 1182.10852 L 183.54122 1164.74667 L 167.02912 1159.38156 Z M 226.77832 1168.06269 L 236.98298 1182.1082 L 253.49446 1159.38209 Z M 409.92191 1136.65048 L 409.92136 1136.65111 L 409.92122 1136.65143 L 383.20215 1145.33298 L 409.92091 1182.1082 L 436.64005 1145.33245 L 409.92191 1108.55808 Z M 183.54322 1182.10682 L 193.74688 1168.06269 L 183.54322 1164.74732 Z M 156.82246 1173.42708 L 167.02712 1176.74277 L 167.02712 1159.38091 L 140.31036 1150.70011 Z M 200.05756 1159.38019 L 210.26298 1173.42675 L 226.77508 1168.06164 L 210.2626 1145.33416 Z M 296.73257 1145.33318 L 296.73257 1173.42655 L 323.45095 1164.74522 L 323.45095 1136.65185 Z M 113.58836 1159.37946 L 156.81922 1173.42602 L 140.30693 1150.6988 L 140.30693 1150.69831 L 140.30676 1150.69802 L 140.30693 1150.69792 L 140.30693 1150.69762 L 156.82022 1127.96902 L 113.58836 1113.92214 Z M 193.75012 1168.06164 L 210.25997 1173.42602 L 200.05632 1159.38189 Z M 270.01242 1136.65047 L 296.73057 1173.42484 L 296.73057 1127.96922 L 280.21784 1122.60392 Z M 210.26422 1145.33298 L 226.77708 1168.06099 L 253.49546 1159.37966 L 236.98259 1136.65165 Z M 183.54322 1154.01516 L 183.54322 1164.74522 L 193.74811 1168.06099 L 200.05508 1159.38019 L 193.74811 1150.69939 Z M 323.45295 1164.74457 L 339.96443 1159.37967 L 323.45295 1136.65356 Z M 167.03136 1159.38019 L 183.54122 1164.74457 L 183.54122 1154.01581 Z M 140.30936 1150.69769 L 167.02812 1159.37914 L 183.54122 1154.01371 L 183.54122 1136.65121 L 156.82223 1127.96967 Z M 339.96643 1159.37901 L 350.17133 1156.06324 L 350.17133 1145.33318 L 323.45457 1136.65237 Z M 193.75012 1150.69874 L 200.05632 1159.37848 L 210.25998 1145.33436 Z M 253.4997 1159.37828 L 280.21584 1150.69768 L 270.01119 1136.65218 Z M 253.49808 1131.28545 L 253.49808 1159.37711 L 270.00995 1136.65047 L 263.70298 1127.96967 Z M 236.9846 1136.651 L 253.49608 1159.37711 L 253.49608 1131.2861 Z M 350.17333 1127.96922 L 350.17333 1156.06259 L 366.68543 1150.69749 L 366.68543 1122.60412 Z M 183.54322 1154.01306 L 193.74688 1150.69769 L 183.54322 1136.65355 Z M 183.54346 1136.65048 L 193.74888 1150.69704 L 210.26098 1145.33193 L 193.7485 1122.60445 Z M 366.68743 1150.69684 L 383.19891 1145.33193 L 366.68743 1122.60582 Z M 366.68767 1122.60274 L 383.20092 1145.33128 L 409.91929 1136.64996 L 393.40618 1113.92161 L 376.89309 1108.55618 Z M 296.73257 1145.33107 L 323.44871 1136.65047 L 296.73257 1127.96987 Z M 323.45518 1136.65047 L 350.17133 1145.33107 L 350.17133 1127.96987 Z M 193.74974 1122.60274 L 210.2626 1145.33075 L 226.77546 1122.60274 L 210.2626 1099.87473 Z M 210.26522 1145.33055 L 253.49608 1131.28399 L 253.49608 1113.92149 L 236.98337 1108.55618 Z M 323.45295 1108.55573 L 323.45295 1136.6491 L 350.17133 1127.96777 L 350.17133 1099.8744 Z M 167.02936 1113.92076 L 183.54222 1136.64877 L 193.74726 1122.60274 L 177.23439 1099.87473 Z M 263.70498 1127.96902 L 270.01119 1136.64877 L 280.21484 1122.60464 Z M 156.82346 1127.96797 L 183.53961 1136.64858 L 167.02812 1113.92246 Z M 296.73257 1117.23771 L 296.73257 1127.96777 L 323.44932 1136.64857 L 306.93746 1113.92194 Z M 306.93946 1113.92129 L 323.45095 1136.6474 L 323.45095 1108.55638 Z M 393.40805 1113.92077 L 409.91991 1136.6474 L 409.91991 1108.55533 L 403.61309 1099.87473 Z M 253.49808 1131.28334 L 263.70174 1127.96797 L 253.49808 1113.92384 Z M 243.29205 1099.87303 L 263.70375 1127.96732 L 296.73057 1117.23626 L 296.73057 1082.5098 L 263.70375 1071.77873 Z M 113.58836 1085.82602 L 113.58836 1113.92003 L 156.82146 1127.96732 L 177.23315 1099.87303 L 156.82145 1071.77873 Z M 350.17333 1127.96712 L 366.68543 1122.60201 L 366.68543 1105.23951 L 350.17333 1099.8744 Z M 280.2207 1122.60274 L 296.73057 1127.96712 L 296.73057 1117.23836 Z M 183.54384 1108.55553 L 193.7485 1122.60104 L 210.25998 1099.87493 Z M 226.7767 1122.60104 L 236.98136 1108.55553 L 210.26522 1099.87493 Z M 366.68743 1122.59966 L 376.89109 1108.55553 L 366.68743 1105.24016 Z M 296.73257 1117.23561 L 306.93622 1113.92024 L 296.73257 1099.87611 Z M 296.73281 1099.87303 L 306.93823 1113.91959 L 350.16909 1099.87303 L 306.93823 1085.82647 Z M 383.20177 1099.87303 L 393.40681 1113.91906 L 403.61185 1099.87303 L 393.40681 1085.82699 Z M 236.9846 1108.55448 L 253.49446 1113.91886 L 243.29081 1099.87473 Z M 376.89433 1108.55448 L 393.40418 1113.91885 L 383.20053 1099.87473 Z M 177.23563 1099.87303 L 183.54261 1108.55383 L 210.25937 1099.87303 L 183.5426 1091.19223 Z M 210.26584 1099.87303 L 236.9826 1108.55383 L 243.28957 1099.87303 L 236.98259 1091.19222 Z M 366.68743 1094.50799 L 366.68743 1105.23806 L 376.89232 1108.55383 L 383.19929 1099.87303 L 376.89232 1091.19222 Z M 403.61432 1099.87303 L 409.91991 1108.55192 L 409.91991 1091.19413 Z M 350.17556 1099.87303 L 366.68543 1105.23741 L 366.68543 1094.50864 Z M 350.17333 1099.87165 L 366.68543 1094.50654 L 366.68543 1077.14405 L 350.17333 1071.77894 Z M 323.45295 1091.19032 L 350.17133 1099.87165 L 350.17133 1071.77829 L 323.45295 1063.09696 Z M 236.9846 1091.19157 L 243.29081 1099.87133 L 253.49447 1085.82719 Z M 376.89432 1091.19157 L 383.20053 1099.87133 L 393.40419 1085.82719 Z M 193.74973 1077.14332 L 210.2626 1099.87133 L 226.77546 1077.14332 L 210.2626 1054.41531 Z M 167.02936 1085.82529 L 177.23439 1099.87132 L 193.74726 1077.14332 L 183.54222 1063.09728 Z M 393.40805 1085.82529 L 403.61309 1099.87132 L 409.91991 1091.19072 L 409.91991 1063.09866 Z M 210.26522 1099.87113 L 236.98136 1091.19052 L 226.7767 1077.14502 Z M 183.54384 1091.19053 L 210.25998 1099.87112 L 193.7485 1077.14502 Z M 296.73257 1099.86995 L 306.93623 1085.82582 L 296.73257 1082.51045 Z M 366.68743 1094.50589 L 376.89108 1091.19052 L 366.68743 1077.1464 Z M 236.98336 1091.18987 L 253.49608 1085.82456 L 253.49608 1068.46206 L 210.26522 1054.4155 Z M 366.68767 1077.14332 L 376.89309 1091.18987 L 393.40619 1085.82444 L 409.91929 1063.0961 L 383.20092 1054.41478 Z M 306.93947 1085.82477 L 323.45095 1091.18967 L 323.45095 1063.09866 Z M 383.20215 1054.41308 L 409.92122 1063.09463 L 409.92129 1063.09472 L 409.92139 1063.0947 L 409.92144 1063.09494 L 409.92191 1063.09558 L 409.92191 1091.18797 L 436.64005 1054.4136 L 409.92091 1017.63786 Z M 296.73257 1071.77829 L 296.73257 1082.50835 L 306.93746 1085.82412 L 323.44933 1063.09748 Z M 113.58836 1040.3666 L 113.58836 1085.82391 L 156.82022 1071.77703 L 140.30693 1049.04844 L 140.30694 1049.04832 L 140.30684 1049.04828 L 140.30693 1049.04726 L 156.81922 1026.32004 Z M 156.82346 1071.77808 L 167.02812 1085.82359 L 183.5396 1063.09748 Z M 253.49808 1085.82222 L 263.70174 1071.77808 L 253.49808 1068.46271 Z M 280.2207 1077.14332 L 296.73057 1082.5077 L 296.73057 1071.77893 Z M 270.01242 1063.09559 L 280.21784 1077.14214 L 296.73057 1071.77683 L 296.73057 1026.32122 Z M 350.17333 1071.77684 L 366.68543 1077.14194 L 366.68543 1049.04857 L 350.17333 1043.68347 Z M 183.54346 1063.09558 L 193.7485 1077.14161 L 210.26098 1054.41413 L 193.74888 1049.04902 Z M 263.70498 1071.77703 L 280.21483 1077.14141 L 270.01119 1063.09729 Z M 366.68743 1077.14024 L 383.19891 1054.41413 L 366.68743 1049.04922 Z M 253.49808 1068.46061 L 263.70298 1071.77638 L 270.00995 1063.09559 L 253.49808 1040.36895 Z M 140.30936 1049.04837 L 156.82222 1071.77638 L 183.54122 1063.09485 L 183.54122 1045.73235 L 167.02812 1040.36692 Z M 323.45518 1063.09558 L 350.17133 1071.77619 L 350.17133 1054.41498 Z M 296.73257 1071.77618 L 323.44871 1063.09558 L 296.73257 1054.41498 Z M 236.9846 1063.09506 L 253.49608 1068.45996 L 253.49608 1040.36895 Z M 210.26422 1054.41308 L 236.9826 1063.0944 L 253.49546 1040.36639 L 226.77709 1031.68506 Z M 296.73257 1054.41287 L 323.45095 1063.09421 L 323.45095 1035.00084 L 296.73257 1026.31951 Z M 270.01119 1063.09388 L 280.21584 1049.04838 L 253.4997 1040.36777 Z M 323.45457 1063.09368 L 350.17133 1054.41287 L 350.17133 1043.68282 L 339.96643 1040.36705 Z M 183.54322 1063.0925 L 193.74688 1049.04837 L 183.54322 1045.733 Z M 323.45295 1063.0925 L 339.96443 1040.36639 L 323.45295 1035.00149 Z M 350.17333 1008.9549 L 350.17333 1043.68137 L 383.20015 1054.41243 L 409.91967 1017.63615 L 393.40643 994.90762 Z M 200.05756 1040.36587 L 210.2626 1054.4119 L 226.77508 1031.68441 L 210.26298 1026.31931 Z M 193.75012 1049.04732 L 210.25998 1054.4117 L 200.05632 1040.36757 Z M 253.4987 1040.36534 L 280.21708 1049.04668 L 296.72995 1026.31866 L 270.01157 1017.63733 Z M 183.54322 1035.00084 L 183.54322 1045.7309 L 193.74811 1049.04667 L 200.05508 1040.36587 L 193.74811 1031.68507 Z M 156.82246 1026.31898 L 140.31036 1049.04595 L 167.02712 1040.36514 L 167.02712 1023.00329 Z M 167.03135 1040.36587 L 183.54122 1045.73025 L 183.54122 1035.00149 Z M 323.45295 1034.99939 L 350.17133 1043.68072 L 350.17133 1026.31886 L 323.45295 1017.63753 Z M 167.02912 1023.00264 L 167.02912 1040.36449 L 183.54122 1034.99939 L 183.54122 1017.63754 Z M 193.75011 1031.68441 L 200.05632 1040.36416 L 210.25998 1026.32003 Z M 226.77832 1031.68336 L 253.49446 1040.36397 L 236.98298 1017.63786 Z M 253.49808 1040.36279 L 270.00956 1017.63668 L 253.49808 1012.27178 Z M 236.98422 1017.63615 L 253.49608 1040.36279 L 253.49608 1012.27113 L 243.29119 1008.95535 Z M 183.54322 1034.99874 L 193.74687 1031.68337 L 183.54322 1017.63924 Z M 296.73319 1026.31761 L 323.45095 1034.99874 L 323.45095 1017.63688 L 306.93823 1012.27157 Z M 210.26422 1026.31761 L 226.77632 1031.68271 L 243.28918 1008.9547 L 226.77708 1003.5896 Z M 183.54322 1017.63583 L 193.74888 1031.68271 L 210.2616 1026.3174 L 210.2616 998.22339 L 183.54322 989.54207 Z M 270.0128 1017.63563 L 296.73057 1026.31676 L 296.73057 1008.9549 L 280.21785 1003.58959 Z M 323.45519 1017.63616 L 350.17133 1026.31675 L 350.17133 1008.95555 Z M 156.82446 1026.31623 L 167.02712 1023.00119 L 167.02712 1012.27348 Z M 210.2636 1026.31505 L 226.77508 1003.58895 L 210.2636 998.22404 Z M 296.73257 1026.31505 L 306.93623 1012.27092 L 296.73257 1008.95555 Z M 167.02912 1012.27073 L 167.02912 1023.00054 L 183.54122 1017.63543 L 183.54122 989.54377 Z M 243.29242 1008.95365 L 270.0108 1017.63498 L 280.21584 1003.58894 L 253.49746 994.90762 Z M 323.45258 989.54153 L 313.24691 1003.58842 L 323.45233 1017.63498 L 350.17133 1008.95345 L 350.17133 980.86009 Z M 306.93947 1012.26987 L 323.44932 1017.63425 L 313.24567 1003.59013 Z M 296.73257 998.22339 L 296.73257 1008.95345 L 306.93747 1012.26922 L 313.24443 1003.58842 L 306.93746 994.90762 Z M 167.02912 966.8117 L 167.02912 1012.26732 L 183.54141 989.5401 L 183.54188 989.53995 L 183.5421 989.5397 L 183.54225 989.53983 L 183.54253 989.53974 L 210.2616 998.22129 L 210.2616 952.76461 Z M 210.2636 952.76396 L 210.2636 998.22194 L 243.29042 1008.953 L 263.70212 980.8587 L 236.98259 944.08243 Z M 323.45518 972.17673 L 350.17264 980.85776 L 350.17292 980.85815 L 350.17323 980.85828 L 350.17315 980.85846 L 350.17333 980.85871 L 350.17333 1008.9528 L 393.40519 994.90592 L 366.68605 958.13017 Z M 280.2207 1003.58842 L 296.73057 1008.9528 L 296.73057 998.22404 Z M 263.7046 980.8587 L 280.21784 1003.58724 L 296.73057 998.22194 L 296.73057 980.85904 L 280.21746 958.13069 Z M 306.93946 994.90697 L 313.24567 1003.58672 L 323.44933 989.54259 Z M 253.4987 994.90592 L 280.21484 1003.58651 L 263.70336 980.86041 Z M 296.73257 998.22129 L 306.93622 994.90592 L 296.73257 980.86179 Z M 296.73319 980.85923 L 306.93823 994.90527 L 323.45033 989.54016 L 313.24529 975.49413 Z M 313.24729 975.49348 L 323.45233 989.53951 L 350.1691 980.85871 L 323.45195 972.17778 Z M 296.73195 980.85753 L 313.24405 975.49243 L 306.93722 966.81182 L 280.22008 958.13089 Z M 236.9846 944.08178 L 263.70336 980.857 L 280.21665 958.1284 L 280.21677 958.12837 L 280.21678 958.12826 L 280.21777 958.12804 L 306.93522 966.80907 L 280.21708 930.0347 Z M 313.24606 975.49178 L 323.44871 972.17673 L 306.94046 966.81287 Z" fill-opacity="0" stroke-miterlimit="10"/><path fill="rgb(0,0,0)" stroke="#cccccc" paint-order="fill stroke markers" d=" M 828.75176 1000.10538 L 828.75182 1000.10548 L 828.75193 1000.10545 L 828.75245 1000.10633 L 828.75245 1199.95332 L 828.75237 1199.95341 L 828.75243 1199.95351 L 828.75176 1199.95427 L 638.68598 1261.71038 L 638.68587 1261.71033 L 638.6858 1261.71042 L 638.68486 1261.71002 L 521.21775 1100.03042 L 521.21775 1100.02993 L 521.21758 1100.02964 L 521.21775 1100.02945 L 521.21775 1100.02924 L 638.68486 938.34963 L 638.68498 938.3496 L 638.68499 938.34949 L 638.68598 938.34927 Z M 638.68829 1261.70753 L 674.98178 1249.91506 L 652.55117 1242.62692 Z M 638.68667 1261.70635 L 652.54917 1242.62627 L 638.68667 1238.12207 Z M 638.68467 1261.70635 L 638.68467 1238.12142 L 616.25407 1230.83328 Z M 616.25245 1192.66433 L 616.25245 1230.83 L 638.68467 1223.54133 L 638.68467 1199.95332 L 638.68555 1199.95233 L 638.68648 1199.95273 L 652.55117 1219.03584 L 674.9847 1211.74674 L 674.98591 1211.74726 L 674.98582 1211.74828 L 661.12114 1230.83138 L 674.98501 1249.91336 L 697.41823 1219.03668 L 697.41823 1180.87036 L 638.68605 1161.78712 Z M 674.98763 1249.91316 L 697.41823 1242.62502 L 697.41823 1219.04009 Z M 652.5524 1242.62522 L 674.98239 1249.91316 L 661.1199 1230.83308 Z M 638.68667 1223.54279 L 638.68667 1238.11997 L 652.5504 1242.62457 L 661.11866 1230.83138 L 652.5504 1219.03819 Z M 697.42023 1219.03733 L 697.42023 1242.62437 L 733.71694 1230.83085 L 711.28434 1199.95502 Z M 616.25468 1230.83138 L 638.68467 1238.11932 L 638.68467 1223.54344 Z M 733.71956 1230.83 L 770.01627 1219.03648 L 756.15216 1199.95417 L 733.71956 1192.66538 Z M 652.55241 1219.03754 L 661.1199 1230.82967 L 674.98239 1211.74959 Z M 602.38758 1211.74769 L 616.25045 1230.8283 L 616.25045 1192.66708 Z M 697.42047 1180.86963 L 733.71756 1230.8283 L 733.71756 1169.07599 L 711.28473 1161.78712 Z M 638.68667 1223.54068 L 652.54917 1219.03649 L 638.68667 1199.9564 Z M 770.01827 1219.03583 L 792.44888 1211.74769 L 756.1554 1199.95522 Z M 697.42023 1219.03392 L 711.2831 1199.95332 L 697.42023 1180.87271 Z M 733.7198 1169.07526 L 756.1534 1199.95247 L 792.45112 1211.74631 L 792.45112 1188.15968 L 770.01758 1180.87058 L 770.01691 1180.86944 L 770.01758 1180.86868 L 792.45112 1173.57958 L 792.45112 1149.99157 L 792.452 1149.99058 L 792.45293 1149.99098 L 806.31761 1169.07408 L 828.74983 1161.78542 L 806.31661 1130.90873 L 770.01827 1119.11469 Z M 579.95374 1180.87016 L 602.38634 1211.74599 L 616.25045 1192.66367 L 616.25045 1169.07664 Z M 792.45474 1211.74578 L 828.74822 1199.95332 L 806.31761 1192.66518 Z M 792.45312 1211.74461 L 806.31561 1192.66452 L 792.45312 1188.16033 Z M 733.71956 1192.66327 L 756.15016 1199.95142 L 733.71956 1169.07834 Z M 806.31885 1192.66348 L 828.74883 1199.95142 L 814.88634 1180.87133 Z M 814.88758 1180.86963 L 828.75045 1199.95024 L 828.75045 1161.78902 Z M 792.45312 1173.58103 L 792.45312 1188.15823 L 806.31685 1192.66282 L 814.8851 1180.86963 L 806.31685 1169.07644 Z M 616.25245 1169.07599 L 616.25245 1192.66092 L 638.68305 1161.78784 Z M 770.02112 1180.86963 L 792.45112 1188.15758 L 792.45112 1173.58168 Z M 697.41923 1180.86793 L 711.28272 1161.78646 L 674.98763 1149.99347 Z M 806.31885 1169.07578 L 814.88634 1180.86793 L 828.74883 1161.78784 Z M 557.51951 1149.99209 L 579.95212 1180.86793 L 602.38472 1149.9921 L 579.95212 1142.7033 Z M 579.95474 1180.86773 L 638.68467 1161.78522 L 638.68467 1138.19793 L 616.25184 1130.90906 Z M 638.68891 1161.78594 L 697.41661 1180.86773 L 674.98463 1149.99275 Z M 792.45312 1173.57893 L 806.31561 1169.07474 L 792.45312 1149.99465 Z M 711.28596 1161.78542 L 733.71756 1169.07388 L 733.71756 1130.91097 Z M 733.71956 1130.90861 L 733.71956 1169.07218 L 770.01526 1119.11542 Z M 674.98663 1149.99105 L 711.28396 1161.78476 L 733.71694 1130.90841 L 697.41961 1119.11469 Z M 638.68667 1161.78457 L 674.98177 1149.99157 L 638.68667 1138.19858 Z M 828.75045 1161.78286 L 828.75045 1138.19793 L 806.31985 1130.90978 Z M 579.95535 1142.70225 L 602.38596 1149.9904 L 616.24884 1130.90978 Z M 557.51827 1149.99039 L 579.94888 1142.70225 L 543.6554 1130.90978 Z M 638.68667 1138.19647 L 674.98401 1149.9902 L 674.98401 1111.82492 L 638.68667 1100.03121 Z M 674.98601 1149.98849 L 697.41761 1119.11404 L 674.98601 1111.82557 Z M 543.6544 1069.15229 L 557.51828 1088.23429 L 579.95181 1080.94519 L 579.95302 1080.94571 L 579.95293 1080.94673 L 566.08825 1100.02983 L 579.95293 1119.11292 L 579.9528 1119.11424 L 579.95181 1119.11446 L 557.51828 1111.82537 L 543.6544 1130.90736 L 579.95212 1142.7012 L 616.25045 1130.90715 L 616.25045 1069.1525 L 579.95212 1057.35845 Z M 616.25307 1130.90736 L 638.68467 1138.19582 L 638.68467 1100.03291 Z M 792.45374 1111.82472 L 806.31785 1130.90703 L 828.75045 1138.19582 L 828.75045 1100.03121 Z M 711.28558 1100.02982 L 733.71856 1130.90618 L 756.15154 1100.02982 L 733.71856 1069.15347 Z M 733.72119 1130.90598 L 770.01627 1119.11299 L 756.15278 1100.03153 Z M 770.02113 1119.11351 L 806.31461 1130.90598 L 792.45174 1111.82537 Z M 697.42085 1119.11299 L 733.71594 1130.90598 L 711.28434 1100.03153 Z M 543.65378 1130.9048 L 557.51628 1111.82472 L 543.65378 1107.32052 Z M 616.25245 1130.9048 L 638.68443 1100.02983 L 616.25245 1069.15485 Z M 543.65178 1130.9048 L 543.65178 1107.31987 L 521.22118 1100.03173 Z M 674.98601 1088.23618 L 674.98601 1111.82347 L 697.41884 1119.11234 L 711.2831 1100.02983 L 697.41885 1080.94731 Z M 756.15402 1100.02983 L 770.01828 1119.11234 L 828.74822 1100.02983 L 770.01828 1080.94731 Z M 557.51951 1111.82367 L 579.9495 1119.11161 L 566.08701 1100.03153 Z M 543.65378 1092.74124 L 543.65378 1107.31842 L 557.51751 1111.82302 L 566.08577 1100.02983 L 557.51751 1088.23664 Z M 638.6889 1100.02983 L 674.98401 1111.82282 L 674.98401 1088.23683 Z M 521.22179 1100.02983 L 543.65178 1107.31777 L 543.65178 1092.74189 Z M 638.68667 1061.86318 L 638.68667 1100.02845 L 674.98401 1088.23473 L 674.98401 1050.06945 Z M 806.31785 1069.15262 L 792.45374 1088.23494 L 828.75045 1100.02845 L 828.75045 1061.86383 Z M 557.51952 1088.23599 L 566.08701 1100.02812 L 579.9495 1080.94804 Z M 697.42085 1080.94666 L 711.28434 1100.02812 L 733.71594 1069.15367 Z M 756.15278 1100.02812 L 770.01627 1080.94666 L 733.72119 1069.15367 Z M 521.22118 1100.02793 L 543.65178 1092.73978 L 543.65178 1069.15486 Z M 616.25307 1069.15229 L 638.68467 1100.02675 L 638.68467 1061.86383 Z M 543.65378 1092.73913 L 557.51628 1088.23494 L 543.65378 1069.15485 Z M 770.02113 1080.94614 L 792.45173 1088.23429 L 806.31461 1069.15367 Z M 674.98601 1088.23408 L 697.41761 1080.94561 L 674.98601 1050.07116 Z M 674.98663 1050.0686 L 697.41962 1080.94496 L 733.71694 1069.15124 L 711.28396 1038.27489 Z M 756.1534 1000.10718 L 733.7198 1030.98439 L 770.01827 1080.94496 L 806.31661 1069.15092 L 828.74983 1038.27423 L 806.31761 1030.98557 L 792.45293 1050.06867 L 792.45164 1050.06896 L 792.45112 1050.06808 L 792.45112 1026.48007 L 770.01758 1019.19097 L 770.01691 1019.18983 L 770.01758 1019.18907 L 792.45112 1011.89997 L 792.45112 988.31334 Z M 733.71956 1069.15104 L 770.01527 1080.94424 L 733.71956 1030.98747 Z M 616.25183 1069.15059 L 638.68467 1061.86172 L 638.68467 1038.27443 L 579.95474 1019.19192 Z M 543.65541 1069.14987 L 579.94888 1057.3574 L 557.51828 1050.06926 Z M 806.31985 1069.14987 L 828.75045 1061.86172 L 828.75045 1038.27679 Z M 579.95535 1057.3574 L 616.24883 1069.14987 L 602.38596 1050.06926 Z M 711.28596 1038.27423 L 733.71756 1069.14868 L 733.71756 1030.98577 Z M 638.68667 1061.86107 L 674.98177 1050.06808 L 638.68667 1038.27508 Z M 557.51951 1050.06756 L 579.95212 1057.35635 L 602.38472 1050.06756 L 579.95212 1019.19172 Z M 638.68891 1038.27371 L 674.98463 1050.0669 L 697.41661 1019.19192 Z M 674.98763 1050.06618 L 711.28272 1038.27319 L 697.41923 1019.19172 Z M 792.45312 1050.065 L 806.31561 1030.98491 L 792.45312 1026.48072 Z M 661.12114 969.22827 L 674.98582 988.31137 L 674.98569 988.31269 L 674.9847 988.31291 L 652.55117 981.02381 L 638.68648 1000.10692 L 638.68519 1000.10721 L 638.68467 1000.10633 L 638.68467 976.51832 L 616.25245 969.22965 L 616.25245 1007.39532 L 638.68605 1038.27253 L 697.41823 1019.18929 L 697.41823 981.02297 L 674.98501 950.14629 Z M 697.42047 1019.19002 L 711.28473 1038.27253 L 733.71756 1030.98366 L 733.71756 969.23135 Z M 616.25245 1030.98366 L 638.68305 1038.27181 L 616.25245 1007.39873 Z M 806.31885 1030.98387 L 828.74883 1038.27181 L 814.88634 1019.19172 Z M 814.88758 1019.19002 L 828.75045 1038.27063 L 828.75045 1000.10941 Z M 792.45312 1011.90142 L 792.45312 1026.47862 L 806.31685 1030.98321 L 814.8851 1019.19002 L 806.31685 1007.39683 Z M 579.95374 1019.1895 L 616.25045 1030.98301 L 616.25045 1007.39598 L 602.38634 988.31367 Z M 733.71956 1007.39638 L 733.71956 1030.98131 L 756.15016 1000.10823 Z M 770.02112 1019.19002 L 792.45112 1026.47797 L 792.45112 1011.90207 Z M 806.31885 1007.39617 L 814.88634 1019.18832 L 828.74883 1000.10823 Z M 697.42023 1019.18694 L 711.2831 1000.10633 L 697.42023 981.02573 Z M 792.45312 1011.89932 L 806.31561 1007.39513 L 792.45312 988.31504 Z M 806.31761 1007.39447 L 828.74822 1000.10633 L 792.45474 988.31387 Z M 733.71956 1007.39427 L 756.15216 1000.10548 L 770.01627 981.02317 L 733.71956 969.22965 Z M 602.38758 988.31196 L 616.25045 1007.39257 L 616.25045 969.23136 Z M 697.42023 981.02232 L 711.28434 1000.10463 L 733.71694 969.2288 L 697.42023 957.43528 Z M 756.1554 1000.10443 L 792.44888 988.31196 L 770.01827 981.02382 Z M 638.68667 1000.10325 L 652.54917 981.02316 L 638.68667 976.51897 Z M 652.55241 981.02211 L 674.98239 988.31006 L 661.1199 969.22998 Z M 638.68667 961.93968 L 638.68667 976.51686 L 652.5504 981.02146 L 661.11866 969.22828 L 652.5504 957.43508 Z M 697.41823 981.01956 L 697.41823 957.43463 L 674.98763 950.14649 Z M 616.25468 969.22827 L 638.68467 976.51621 L 638.68467 961.94033 Z M 652.5524 957.43443 L 661.1199 969.22657 L 674.98239 950.14649 Z M 616.25408 969.22637 L 638.68467 961.93823 L 638.68467 938.3533 Z M 638.68667 961.93758 L 652.54917 957.43338 L 638.68667 938.3533 Z M 652.55117 957.43273 L 674.98178 950.14459 L 638.68829 938.35212 Z" fill-opacity="0" stroke-miterlimit="10"/><path fill="rgb(0,0,0)" stroke="#cccccc" paint-order="fill stroke markers" d=" M 1079.84776 951.71316 L 1079.84804 951.71355 L 1079.84835 951.71368 L 1079.84827 951.71386 L 1079.84845 951.71411 L 1079.84845 994.98945 L 1079.84826 994.98971 L 1079.84826 994.99004 L 1064.12839 1016.62659 L 1079.84707 1021.7339 L 1105.28325 986.724 L 1105.28437 986.72364 L 1146.44166 1000.09646 L 1146.44235 1000.09741 L 1146.44235 1043.37202 L 1162.16104 1048.47933 L 1162.16104 1021.73508 L 1162.16119 1021.73491 L 1162.16123 1021.73449 L 1187.59783 986.724 L 1187.59795 986.72396 L 1187.59796 986.72386 L 1187.5982 986.72388 L 1187.59895 986.72364 L 1228.75625 1000.09646 L 1228.75694 1000.09741 L 1228.75694 1043.37275 L 1228.75665 1043.37315 L 1228.75662 1043.37348 L 1228.75642 1043.37346 L 1228.75625 1043.3737 L 1187.59895 1056.74651 L 1187.59864 1056.74641 L 1187.59833 1056.74651 L 1162.16304 1048.48209 L 1162.16304 1065.00969 L 1203.31964 1078.38228 L 1203.32033 1078.38323 L 1203.32033 1121.65857 L 1203.31964 1121.65952 L 1162.16304 1135.03211 L 1162.16304 1151.55971 L 1187.59833 1143.29529 L 1187.59854 1143.29538 L 1187.59895 1143.29529 L 1228.75625 1156.6681 L 1228.75632 1156.66819 L 1228.75642 1156.66817 L 1228.75647 1156.66841 L 1228.75694 1156.66905 L 1228.75694 1199.94439 L 1228.75625 1199.94534 L 1187.59895 1213.31816 L 1187.5985 1213.31801 L 1187.59816 1213.31809 L 1187.59812 1213.31789 L 1187.59783 1213.3178 L 1162.16123 1178.30731 L 1162.16123 1178.30698 L 1162.16104 1178.30672 L 1162.16104 1151.56247 L 1146.44235 1156.66978 L 1146.44235 1199.94439 L 1146.4418 1199.94502 L 1146.44166 1199.94534 L 1105.28437 1213.31816 L 1105.28325 1213.3178 L 1079.84707 1178.3079 L 1064.12839 1183.41521 L 1079.84826 1205.05176 L 1079.84824 1205.05199 L 1079.84845 1205.05235 L 1079.84845 1248.32769 L 1079.84838 1248.32779 L 1079.84843 1248.32788 L 1079.84822 1248.328 L 1079.84776 1248.32864 L 1038.69047 1261.70146 L 1038.68935 1261.7011 L 1013.25274 1226.69061 L 1013.25274 1226.69012 L 1013.25257 1226.68983 L 1013.25274 1226.68973 L 1013.25274 1226.68943 L 1038.68935 1191.67895 L 1038.68966 1191.67885 L 1038.68985 1191.67859 L 1064.12515 1183.41416 L 1054.41047 1170.04305 L 1013.25386 1183.41563 L 1013.25274 1183.41527 L 987.81614 1148.40479 L 987.81614 1148.40361 L 1013.25231 1113.39371 L 1003.53763 1100.0226 L 987.81776 1121.65916 L 987.81745 1121.65926 L 987.81726 1121.65952 L 946.65996 1135.03233 L 946.65985 1135.03229 L 946.65978 1135.03237 L 946.6596 1135.03222 L 946.65884 1135.03197 L 921.22224 1100.02149 L 921.22224 1100.02031 L 946.65884 1065.00983 L 946.65966 1065.00964 L 946.65996 1065.00947 L 987.81726 1078.38228 L 987.81737 1078.38247 L 987.81776 1078.38264 L 1003.53763 1100.01919 L 1013.25231 1086.64808 L 987.81614 1051.63819 L 987.81614 1051.63701 L 1013.25274 1016.62653 L 1013.25386 1016.62617 L 1054.41047 1029.99875 L 1064.12515 1016.62764 L 1038.68985 1008.36321 L 1038.68973 1008.36301 L 1038.68935 1008.36285 L 1013.25274 973.35237 L 1013.25274 973.35225 L 1013.25265 973.35221 L 1013.25274 973.352 L 1013.25274 973.35119 L 1038.68935 938.3407 L 1038.69047 938.34034 Z M 1038.69054 1261.69933 L 1079.84422 1248.32769 L 1013.25617 1226.69192 Z M 1054.41247 1240.06231 L 1079.84645 1248.32631 L 1079.84645 1205.05543 Z M 1038.69116 1234.95415 L 1054.41047 1240.06166 L 1079.84583 1205.05287 L 1038.69116 1191.68092 Z M 1013.25517 1226.6895 L 1038.68916 1234.9535 L 1038.68916 1191.68262 Z M 1079.84845 1135.03211 L 1079.84845 1178.30639 L 1105.28444 1213.31603 L 1146.44035 1199.94366 L 1146.44035 1156.66938 L 1121.00437 1121.65975 Z M 1187.59864 1213.31551 L 1203.31771 1191.68006 L 1162.16466 1178.30862 Z M 1187.60126 1213.31531 L 1228.75494 1199.94366 L 1228.75494 1156.67213 Z M 1038.69339 1191.67954 L 1079.84483 1205.05045 L 1064.12638 1183.41586 Z M 1162.16366 1178.3062 L 1203.31894 1191.67836 L 1213.03401 1178.30672 L 1187.59864 1143.29794 Z M 1054.41209 1170.04187 L 1064.12715 1183.41351 L 1079.84645 1178.30599 L 1079.84645 1135.03446 Z M 1013.25417 1113.39456 L 987.81819 1148.4042 L 1013.25393 1183.4135 L 1054.41023 1170.04102 L 1079.84621 1135.03138 L 1054.41047 1100.02208 Z M 1213.03525 1178.30502 L 1228.75432 1156.66957 L 1187.60126 1143.29814 Z M 1162.16304 1151.56182 L 1162.16304 1178.30364 L 1187.59602 1143.29814 Z M 1146.44173 1156.66787 L 1162.16104 1151.56036 L 1162.16104 1135.03211 L 1121.00737 1121.66047 Z M 1121.00575 1078.38396 L 1121.00575 1121.65784 L 1162.16204 1135.03033 L 1203.31833 1121.65784 L 1203.31833 1078.38396 L 1162.16204 1065.01147 Z M 1054.41209 1100.0209 L 1079.84783 1135.0302 L 1121.00375 1121.65784 L 1121.00375 1078.38396 L 1079.84783 1065.0116 Z M 946.66065 1135.03 L 987.81372 1121.65857 L 946.66065 1108.28713 Z M 921.22429 1100.0209 L 946.65865 1135.0283 L 946.65865 1065.0135 Z M 946.66065 1091.75678 L 946.66065 1108.28502 L 987.81595 1121.65719 L 987.81595 1078.38461 Z M 987.81795 1121.65549 L 1003.53639 1100.0209 L 987.81795 1078.38631 Z M 1003.53887 1100.0209 L 1013.25393 1113.39253 L 1054.40762 1100.0209 L 1013.25393 1086.64926 Z M 987.81819 1051.6376 L 1013.25417 1086.64723 L 1054.41047 1100.01972 L 1079.84621 1065.01042 L 1054.41023 1030.00078 L 1013.25393 1016.6283 Z M 946.66065 1091.75467 L 987.81372 1078.38323 L 946.66065 1065.0118 Z M 1079.84845 1021.73541 L 1079.84845 1065.00969 L 1121.00437 1078.38205 L 1146.44035 1043.37242 L 1146.44035 1000.09814 L 1105.28444 986.72577 Z M 1121.00737 1078.38133 L 1162.16104 1065.00969 L 1162.16104 1048.48144 L 1146.44173 1043.37393 Z M 1054.41209 1029.99993 L 1079.84645 1065.00734 L 1079.84645 1021.73581 L 1064.12715 1016.62829 Z M 1162.16366 1021.7356 L 1187.59864 1056.74386 L 1213.03401 1021.73508 L 1203.31894 1008.36344 Z M 1187.60126 1056.74366 L 1228.75432 1043.37223 L 1213.03525 1021.73678 Z M 1162.16304 1048.47998 L 1187.59602 1056.74366 L 1162.16304 1021.73816 Z M 1228.75494 1043.36967 L 1228.75494 1000.09814 L 1187.60126 986.72649 Z M 1162.16466 1021.73318 L 1203.31771 1008.36174 L 1187.59864 986.72629 Z M 1038.69339 1008.36226 L 1064.12638 1016.62594 L 1079.84483 994.99135 Z M 1038.69116 965.08765 L 1038.69116 1008.36088 L 1079.84583 994.98893 L 1054.41047 959.98014 Z M 1013.25517 973.3523 L 1038.68916 1008.35918 L 1038.68916 965.0883 Z M 1054.41247 959.97949 L 1079.84645 994.98637 L 1079.84645 951.71549 Z M 1013.25617 973.34988 L 1079.84422 951.71411 L 1038.69054 938.34247 Z" fill-opacity="0" stroke-miterlimit="10"/><path fill="rgb(0,0,0)" stroke="#cccccc" paint-order="fill stroke markers" d=" M 277.95293 1330.11403 L 303.38954 1365.12452 L 303.38954 1365.1257 L 287.66966 1386.76226 L 328.82433 1400.13421 L 328.82433 1373.38996 L 328.82502 1373.38901 L 369.98232 1360.0162 L 369.98353 1360.01672 L 369.98344 1360.01774 L 344.54726 1395.02763 L 395.41961 1465.04742 L 436.57622 1451.67484 L 436.57743 1451.67536 L 436.57734 1451.67638 L 411.14073 1486.68686 L 411.13961 1486.68722 L 385.70431 1478.42279 L 385.70431 1521.69538 L 411.13961 1513.43095 L 411.14073 1513.43131 L 436.57734 1548.4418 L 436.57721 1548.44312 L 436.57622 1548.44334 L 395.41961 1535.07075 L 344.54726 1605.09054 L 369.98344 1640.10043 L 369.98331 1640.10175 L 369.98232 1640.10197 L 328.82502 1626.72916 L 328.82433 1626.72821 L 328.82433 1599.98396 L 287.66966 1613.35591 L 303.38954 1634.99247 L 303.38954 1634.99365 L 277.95293 1670.00414 L 277.95164 1670.00443 L 277.95112 1670.00355 L 277.95112 1626.72894 L 195.63792 1599.98376 L 170.20174 1634.99365 L 170.20045 1634.99394 L 170.19993 1634.99306 L 170.19993 1591.71772 L 170.20062 1591.71677 L 195.63592 1583.45234 L 170.20093 1548.44409 L 154.48105 1570.08064 L 154.47993 1570.081 L 113.32264 1556.70819 L 113.32197 1556.70705 L 113.32264 1556.70629 L 154.47924 1543.33369 L 154.47924 1456.78448 L 113.32264 1443.41188 L 113.32197 1443.41074 L 113.32264 1443.40998 L 154.47993 1430.03717 L 154.48105 1430.03753 L 170.20093 1451.67408 L 195.63592 1416.66583 L 170.20062 1408.4014 L 170.19993 1408.40045 L 170.19993 1365.12511 L 170.20081 1365.12412 L 170.20174 1365.12452 L 195.63792 1400.13441 L 277.95112 1373.38923 L 277.95112 1330.11462 L 277.952 1330.11363 Z M 236.79806 1613.35539 L 277.95243 1626.72726 L 277.95312 1626.72821 L 277.95312 1670.00047 L 303.38749 1634.99306 L 277.95174 1599.98375 Z M 328.82633 1583.4536 L 328.82633 1626.72748 L 369.98001 1640.09912 L 344.54521 1605.09113 L 344.54521 1605.08995 L 369.98001 1570.08195 Z M 170.20193 1591.71845 L 170.20193 1634.98998 L 195.63673 1599.98199 L 195.63785 1599.98163 L 236.79221 1613.35349 L 211.35783 1578.34608 Z M 303.38954 1591.71831 L 303.38842 1591.71867 L 277.95312 1583.45424 L 277.95312 1599.98224 L 287.66843 1613.35421 L 328.82433 1599.98185 L 328.82433 1583.4532 L 319.10941 1570.08176 Z M 236.79745 1613.35349 L 277.95051 1599.98205 L 262.23144 1578.34661 Z M 221.07576 1564.97157 L 236.79514 1570.0791 L 236.79542 1570.07949 L 236.79573 1570.07962 L 236.79565 1570.0798 L 236.79583 1570.08005 L 236.79583 1613.35231 L 262.23063 1578.34432 L 262.23075 1578.34428 L 262.23076 1578.34418 L 262.231 1578.3442 L 262.23175 1578.34396 L 277.95112 1583.45149 L 277.95112 1556.70797 L 236.79521 1543.3356 Z M 211.35984 1578.34543 L 236.79383 1613.35231 L 236.79383 1570.08143 Z M 277.95112 1599.97949 L 277.95112 1583.45359 L 262.23406 1578.34681 Z M 277.95312 1416.66603 L 277.95312 1443.41093 L 277.95243 1443.41188 L 236.79514 1456.7847 L 236.79402 1456.78434 L 221.07376 1435.14726 L 195.63854 1443.41166 L 195.63854 1470.15584 L 221.07445 1478.42047 L 221.07514 1478.42142 L 221.07514 1521.69675 L 221.07445 1521.6977 L 195.63854 1529.96233 L 195.63854 1556.70651 L 221.07376 1564.97091 L 236.79402 1543.33383 L 236.79514 1543.33347 L 277.95243 1556.70629 L 277.95312 1556.70724 L 277.95312 1583.45214 L 303.38835 1591.71654 L 319.10817 1570.08006 L 303.38792 1548.44298 L 303.38792 1548.4418 L 328.82452 1513.43131 L 328.82564 1513.43095 L 354.26156 1521.69558 L 369.98139 1500.05909 L 354.26156 1478.42259 L 328.82564 1486.68722 L 328.82452 1486.68686 L 303.38792 1451.67638 L 303.38792 1451.6752 L 319.10817 1430.03812 L 303.38835 1408.40163 Z M 179.91747 1535.07042 L 170.20217 1548.44239 L 195.63792 1583.45169 L 211.3576 1578.34406 L 221.07252 1564.97261 L 195.63723 1556.70819 L 195.63654 1556.70724 L 195.63654 1529.96298 Z M 328.82633 1583.45149 L 369.9794 1570.08005 L 328.82633 1556.70862 Z M 319.11065 1570.08005 L 328.82433 1583.44979 L 328.82433 1556.71032 Z M 211.36084 1578.343 L 236.7916 1570.08005 L 221.07453 1564.97327 Z M 154.48124 1543.33442 L 154.48055 1543.33537 L 113.32618 1556.70724 L 154.47986 1570.07887 L 179.91561 1535.06957 L 154.48124 1500.06217 Z M 303.38997 1548.44239 L 319.10941 1570.07835 L 328.82452 1556.70665 L 328.82499 1556.7065 L 328.82521 1556.70625 L 328.82536 1556.70638 L 328.82564 1556.70629 L 369.98001 1570.07815 L 344.54521 1535.07016 L 344.54521 1535.07004 L 344.54512 1535.07 L 344.54521 1535.06979 L 344.54521 1535.06898 L 354.26032 1521.69728 L 328.82571 1513.43308 Z M 369.98363 1526.80544 L 369.98363 1570.07697 L 395.41842 1535.06898 L 395.41954 1535.06862 L 436.57391 1548.44049 L 411.13954 1513.43308 Z M 344.54764 1535.07009 L 369.98163 1570.07697 L 369.98163 1526.80609 Z M 179.91685 1535.06786 L 195.63592 1513.43242 L 154.48286 1500.06099 Z M 179.91947 1535.06767 L 195.63654 1529.96088 L 195.63654 1513.43498 Z M 344.54864 1535.06767 L 369.97939 1526.80472 L 354.26232 1521.69793 Z M 195.63854 1486.68627 L 195.63825 1486.68667 L 195.63822 1486.687 L 195.63802 1486.68698 L 195.63785 1486.68722 L 154.48347 1500.05909 L 195.63785 1513.43095 L 195.63792 1513.43104 L 195.63802 1513.43102 L 195.63807 1513.43126 L 195.63854 1513.4319 L 195.63854 1529.96023 L 221.07314 1521.69602 L 221.07314 1478.42215 L 195.63854 1470.15794 Z M 354.26356 1478.42194 L 369.98344 1500.0585 L 369.98336 1500.05932 L 369.98344 1500.05968 L 354.26356 1521.69623 L 369.98262 1526.80367 L 385.70231 1521.69603 L 385.70231 1478.42214 L 369.98264 1473.31451 Z M 154.48286 1500.05719 L 195.63592 1486.68575 L 179.91685 1465.05031 Z M 113.32618 1443.41093 L 154.48055 1456.7828 L 154.48124 1456.78375 L 154.48124 1500.05601 L 179.91561 1465.0486 L 154.47986 1430.0393 Z M 303.38997 1451.67579 L 328.82571 1486.68509 L 354.26032 1478.42089 L 344.54521 1465.04919 L 344.54529 1465.04837 L 344.54521 1465.04801 L 369.98001 1430.04002 L 328.82564 1443.41188 L 328.82553 1443.41183 L 328.82546 1443.41192 L 328.82452 1443.41152 L 319.10941 1430.03982 Z M 369.98363 1473.31273 L 411.13954 1486.68509 L 436.57391 1451.67769 L 395.41954 1465.04955 L 395.41842 1465.04919 L 369.98363 1430.0412 Z M 195.63654 1486.68319 L 195.63654 1470.15729 L 179.91947 1465.0505 Z M 354.26233 1478.42024 L 369.9794 1473.31346 L 344.54864 1465.0505 Z M 344.54764 1465.04808 L 369.98163 1473.31208 L 369.98163 1430.0412 Z M 170.20217 1451.67579 L 179.91747 1465.04775 L 195.63654 1470.15519 L 195.63654 1443.41093 L 195.63723 1443.40998 L 221.07252 1435.14556 L 211.3576 1421.77411 L 195.63792 1416.66648 Z M 236.79583 1430.03812 L 236.79576 1430.03822 L 236.79581 1430.03831 L 236.7956 1430.03843 L 236.79514 1430.03907 L 221.07576 1435.1466 L 236.79521 1456.78257 L 277.95112 1443.4102 L 277.95112 1416.66668 L 262.23175 1421.77421 L 262.2313 1421.77406 L 262.23096 1421.77414 L 262.23092 1421.77394 L 262.23063 1421.77385 L 236.79583 1386.76586 Z M 328.82633 1443.40955 L 369.9794 1430.03812 L 328.82633 1416.66668 Z M 319.11065 1430.03812 L 328.82433 1443.40785 L 328.82433 1416.66838 Z M 221.07453 1435.1449 L 236.7916 1430.03812 L 211.36084 1421.77517 Z M 211.35984 1421.77274 L 236.79383 1430.03674 L 236.79383 1386.76586 Z M 277.95312 1400.13593 L 277.95312 1416.66393 L 303.38842 1408.3995 L 303.38954 1408.39986 L 319.10941 1430.03641 L 328.82433 1416.66497 L 328.82433 1400.13632 L 287.66843 1386.76396 Z M 328.82633 1373.39069 L 328.82633 1416.66457 L 369.98001 1430.03622 L 344.54521 1395.02822 L 344.54521 1395.02704 L 369.98001 1360.01905 Z M 170.20193 1408.39972 L 211.35783 1421.77209 L 236.79221 1386.76468 L 195.63785 1400.13654 L 195.63673 1400.13618 L 170.20193 1365.12819 Z M 262.23144 1421.77156 L 277.95051 1400.13612 L 236.79745 1386.76468 Z M 262.23406 1421.77136 L 277.95112 1416.66458 L 277.95112 1400.13868 Z M 277.95312 1373.38996 L 277.95243 1373.39091 L 236.79806 1386.76278 L 277.95174 1400.13442 L 303.38749 1365.12511 L 277.95312 1330.1177 Z" fill-opacity="0" stroke-miterlimit="10"/><path fill="rgb(0,0,0)" stroke="#cccccc" paint-order="fill stroke markers" d=" M 738.82845 1346.66173 L 738.82864 1346.66199 L 738.82895 1346.66209 L 765.13206 1382.86522 L 765.13206 1382.8664 L 738.82938 1419.06895 L 765.13163 1455.2709 L 807.69028 1441.44276 L 807.6914 1441.44312 L 833.99451 1477.64626 L 833.99451 1477.64659 L 833.9947 1477.64685 L 833.9947 1522.39638 L 833.99455 1522.39655 L 833.99451 1522.39697 L 807.6914 1558.6001 L 807.69028 1558.60046 L 765.13163 1544.77232 L 738.82938 1580.97428 L 765.13206 1617.17682 L 765.13206 1617.178 L 738.82895 1653.38113 L 738.82872 1653.38118 L 738.82845 1653.38149 L 696.26911 1667.20986 L 696.2688 1667.20976 L 696.26849 1667.20986 L 653.70916 1653.38149 L 653.70847 1653.38054 L 653.70847 1608.63174 L 611.15051 1594.80382 L 584.84783 1631.00637 L 584.84671 1631.00673 L 542.28737 1617.17836 L 542.28725 1617.17816 L 542.28687 1617.178 L 515.98376 1580.97487 L 515.98376 1580.97454 L 515.98357 1580.97428 L 515.98357 1536.22474 L 515.98426 1536.22379 L 558.5429 1522.39565 L 558.5429 1477.64758 L 515.98426 1463.81943 L 515.98357 1463.81848 L 515.98357 1419.06895 L 515.98372 1419.06878 L 515.98376 1419.06836 L 542.28687 1382.86522 L 542.28718 1382.86512 L 542.28737 1382.86486 L 584.84671 1369.0365 L 584.84783 1369.03686 L 611.15051 1405.2394 L 653.70847 1391.41148 L 653.70847 1346.66268 L 653.70916 1346.66173 L 696.26849 1332.83336 L 696.2687 1332.83345 L 696.26911 1332.83336 Z M 669.96693 1631.00578 L 696.2688 1667.20721 L 712.5234 1644.83467 L 696.26849 1639.55313 L 696.2678 1639.55218 L 696.2678 1594.80572 Z M 696.27142 1667.20701 L 738.82491 1653.38054 L 712.52541 1644.83532 Z M 653.71047 1608.63174 L 653.71047 1653.37981 L 696.26618 1667.20701 L 669.96488 1631.00637 L 669.96488 1631.00519 L 696.26617 1594.80455 Z M 722.57273 1631.00519 L 722.57273 1631.00637 L 712.52664 1644.83362 L 738.82714 1653.37916 L 738.82714 1608.63174 L 696.27142 1594.80454 Z M 696.27204 1594.80264 L 738.82845 1608.63006 L 738.82914 1608.63101 L 738.82914 1653.37746 L 765.13001 1617.17741 L 738.82776 1580.97546 Z M 696.2698 1639.55145 L 712.52464 1644.83297 L 722.57068 1631.00578 L 696.2698 1594.80572 Z M 584.84802 1603.34904 L 584.84733 1603.34999 L 542.29091 1617.17741 L 584.84664 1631.0046 L 611.14889 1594.80264 L 584.84802 1558.6026 Z M 558.54471 1594.80323 L 558.54359 1594.80359 L 542.28868 1589.52205 L 542.28868 1617.17603 L 584.84602 1603.34831 L 584.84602 1558.60258 Z M 542.28668 1617.17433 L 542.28668 1589.5214 L 515.98719 1580.97618 Z M 653.71047 1580.97428 L 653.70978 1580.97523 L 637.45487 1586.25677 L 653.70985 1608.62983 L 696.26719 1594.80212 L 669.96488 1558.6001 L 669.96488 1558.59892 L 680.01097 1544.77167 L 653.71047 1536.22612 Z M 611.15336 1594.80264 L 653.70685 1608.62911 L 637.45286 1586.25742 Z M 542.28868 1572.42861 L 542.28868 1589.51995 L 558.54352 1594.80146 L 584.84439 1558.60141 Z M 627.40735 1544.77114 L 627.40666 1544.77209 L 584.84863 1558.60003 L 611.15051 1594.80146 L 637.45163 1586.25572 L 627.40554 1572.42847 L 627.40554 1572.42729 L 653.70785 1536.22527 L 627.40735 1527.67972 Z M 680.0142 1544.77062 L 696.26911 1550.05216 L 696.2698 1550.05311 L 696.2698 1594.80127 L 738.82714 1580.97355 L 738.82714 1553.31892 L 722.57223 1558.60046 L 722.57111 1558.6001 L 696.2688 1522.39809 Z M 669.96693 1558.59951 L 696.2678 1594.79956 L 696.2678 1550.05384 L 680.01297 1544.77232 Z M 515.98619 1580.97376 L 542.28668 1589.5193 L 542.28668 1572.42788 L 542.28737 1572.42693 L 584.84378 1558.59951 L 542.28806 1544.77232 Z M 627.40759 1572.42788 L 637.45363 1586.25507 L 653.70847 1580.97355 L 653.70847 1536.22782 Z M 515.98557 1536.22547 L 515.98557 1580.9712 L 542.28687 1544.77055 L 542.28799 1544.77019 L 584.84439 1558.59761 L 558.54352 1522.39756 Z M 738.82914 1553.31827 L 738.82914 1580.9712 L 765.12863 1544.77304 Z M 722.5723 1558.59833 L 738.82714 1553.31682 L 738.82714 1536.22547 L 696.27142 1522.39828 Z M 765.13225 1544.77041 L 807.69021 1558.59833 L 833.99108 1522.39828 L 791.43468 1536.22569 L 791.43356 1536.22533 L 765.13225 1500.02469 Z M 584.84733 1513.85093 L 584.84621 1513.85057 L 574.80012 1500.02332 L 558.54514 1522.39638 L 584.84702 1558.59781 L 611.14932 1522.39579 L 611.15044 1522.39543 L 627.40535 1527.67697 L 627.40535 1500.02299 Z M 584.84964 1558.59761 L 627.40535 1544.77041 L 627.40535 1527.67907 L 611.15051 1522.39756 Z M 722.57223 1513.85093 L 722.57111 1513.85057 L 712.52502 1500.02332 L 696.27042 1522.39586 L 738.82845 1536.22379 L 738.82914 1536.22474 L 738.82914 1553.31617 L 765.13025 1544.77041 L 765.13025 1500.02299 Z M 627.40735 1472.36561 L 627.40735 1527.67762 L 680.0122 1544.76997 L 712.52379 1500.02161 L 680.0122 1455.27325 Z M 807.6914 1513.85057 L 807.69058 1513.85076 L 807.69028 1513.85093 L 765.13387 1500.02352 L 791.43475 1536.22356 L 833.99208 1522.39586 L 817.73748 1500.02332 Z M 558.5449 1522.3933 L 574.79888 1500.02162 L 558.5449 1477.64993 Z M 817.73872 1500.02162 L 833.9927 1522.3933 L 833.9927 1477.64993 Z M 574.80136 1500.02161 L 584.8474 1513.8488 L 627.40312 1500.02161 L 584.8474 1486.19443 Z M 712.52626 1500.02161 L 722.5723 1513.8488 L 765.12802 1500.02162 L 722.5723 1486.19443 Z M 765.13449 1500.02162 L 807.69021 1513.8488 L 817.73625 1500.02162 L 807.69021 1486.19443 Z M 738.82914 1463.81848 L 738.82845 1463.81943 L 696.27043 1477.64737 L 712.52502 1500.01991 L 722.57111 1486.19266 L 722.57223 1486.1923 L 765.13025 1500.02024 L 765.13025 1455.27281 L 738.82914 1446.72705 Z M 558.54514 1477.64685 L 574.80012 1500.01991 L 584.84621 1486.19266 L 584.84733 1486.1923 L 627.40535 1500.02023 L 627.40535 1472.36626 L 611.15044 1477.6478 L 611.14932 1477.64744 L 584.84702 1441.44542 Z M 765.13386 1500.01972 L 807.69028 1486.1923 L 807.6914 1486.19266 L 817.73748 1500.01991 L 833.99208 1477.64737 L 791.43475 1463.81966 Z M 765.13225 1455.27281 L 765.13225 1500.01853 L 791.43356 1463.81789 L 791.43468 1463.81753 L 833.99108 1477.64495 L 807.69021 1441.44489 Z M 515.98557 1463.81775 L 558.54352 1477.64567 L 584.8444 1441.44561 L 542.28799 1455.27303 L 542.28687 1455.27267 L 515.98557 1419.07203 Z M 611.15051 1477.64567 L 627.40535 1472.36416 L 627.40535 1455.27281 L 584.84964 1441.44562 Z M 696.2698 1449.99011 L 696.26911 1449.99106 L 680.0142 1455.2726 L 696.2688 1477.64514 L 722.57111 1441.44312 L 722.57223 1441.44276 L 738.82714 1446.7243 L 738.82714 1419.06968 L 696.2698 1405.24195 Z M 696.27142 1477.64495 L 738.82714 1463.81775 L 738.82714 1446.7264 L 722.5723 1441.44489 Z M 584.84863 1441.44319 L 627.40666 1455.27113 L 627.40735 1455.27208 L 627.40735 1472.36351 L 653.70785 1463.81795 L 627.40554 1427.61594 L 627.40554 1427.61476 L 637.45163 1413.78751 L 611.15051 1405.24176 Z M 637.45487 1413.78646 L 653.70978 1419.068 L 653.7102 1419.06871 L 653.71047 1419.06895 L 653.71047 1463.8171 L 680.01097 1455.27155 L 669.96488 1441.4443 L 669.96488 1441.44312 L 696.26719 1405.2411 L 653.70985 1391.41339 Z M 627.40759 1427.61535 L 653.70847 1463.8154 L 653.70847 1419.06968 L 637.45363 1413.78816 Z M 515.98619 1419.06947 L 542.28806 1455.2709 L 584.84378 1441.44371 L 542.28737 1427.6163 L 542.28668 1427.61535 L 542.28668 1410.52392 Z M 669.96693 1441.44371 L 680.01297 1455.2709 L 696.2678 1449.98938 L 696.2678 1405.24367 Z M 738.82914 1446.72495 L 765.12863 1455.27018 L 738.82914 1419.07203 Z M 542.28868 1410.52327 L 542.28868 1427.61462 L 584.84439 1441.44181 L 558.54352 1405.24176 Z M 542.28868 1410.52117 L 558.54359 1405.23963 L 558.54471 1405.23999 L 584.84602 1441.44064 L 584.84602 1396.69491 L 542.28868 1382.86719 Z M 542.29091 1382.86581 L 584.84733 1396.69323 L 584.84802 1396.69418 L 584.84802 1441.44063 L 611.14889 1405.24058 L 584.84664 1369.03863 Z M 738.82914 1391.41221 L 738.82845 1391.41316 L 696.27204 1405.24058 L 738.82776 1419.06777 L 765.13001 1382.86581 L 738.82914 1346.66576 Z M 515.98719 1419.06705 L 542.28668 1410.52182 L 542.28668 1382.86889 Z M 611.15336 1405.24058 L 637.45286 1413.78581 L 653.70685 1391.41411 Z M 712.52664 1355.20961 L 722.57273 1369.03686 L 722.57273 1369.03804 L 696.27143 1405.23868 L 738.82714 1391.41148 L 738.82714 1346.66406 Z M 653.71047 1346.66341 L 653.71047 1391.41148 L 696.26618 1405.23868 L 669.96488 1369.03804 L 669.96488 1369.03686 L 696.26618 1332.83621 Z M 696.2698 1360.49178 L 696.2698 1405.23751 L 722.57068 1369.03745 L 712.52464 1355.21026 Z M 669.96693 1369.03745 L 696.2678 1405.2375 L 696.2678 1360.49105 L 696.26849 1360.4901 L 712.5234 1355.20856 L 696.2688 1332.83601 Z M 712.52541 1355.20791 L 738.82491 1346.66268 L 696.27142 1332.83621 Z" fill-opacity="0" stroke-miterlimit="10"/><path fill="rgb(0,0,0)" stroke="#cccccc" paint-order="fill stroke markers" d=" M 1194.79162 1374.05886 L 1194.79181 1374.05912 L 1194.79212 1374.05922 L 1235.7235 1430.39643 L 1235.7235 1430.39676 L 1235.72369 1430.39702 L 1235.72369 1569.67024 L 1235.72354 1569.67041 L 1235.7235 1569.67083 L 1194.79212 1626.00804 L 1194.79181 1626.00814 L 1194.79162 1626.0084 L 1062.33491 1669.04619 L 1062.3347 1669.0461 L 1062.33429 1669.04619 L 996.10594 1647.52729 L 996.10575 1647.52703 L 996.10544 1647.52693 L 914.24269 1534.85253 L 914.24271 1534.8523 L 914.2425 1534.85194 L 914.2425 1465.21532 L 914.24269 1465.21506 L 914.24269 1465.21473 L 996.10544 1352.54033 L 996.10582 1352.54024 L 996.10594 1352.53997 L 1062.33429 1331.02107 L 1062.3345 1331.02116 L 1062.33491 1331.02107 Z M 1062.3356 1626.00745 L 1062.33491 1626.0084 L 1037.03924 1634.22746 L 1062.3346 1669.04354 L 1103.26474 1612.70804 L 1062.3356 1556.37391 Z M 1062.33722 1669.04334 L 1128.56134 1647.52582 L 1103.26598 1612.70974 Z M 996.10948 1647.52634 L 1062.33198 1669.04334 L 1037.03724 1634.22811 Z M 1128.56396 1647.52497 L 1194.78808 1626.00745 L 1128.56396 1604.48993 Z M 996.10725 1577.89045 L 996.10725 1647.52496 L 1037.036 1634.22641 L 1021.40242 1612.70863 L 1021.40242 1612.70745 L 1062.33198 1556.37274 Z M 955.17649 1591.18966 L 996.10525 1647.52326 L 996.10525 1577.8911 Z M 1087.63282 1591.18914 L 1128.56196 1647.52326 L 1128.56196 1577.89046 L 1103.26636 1569.67142 Z M 1021.40447 1612.70804 L 1037.03801 1634.22576 L 1062.3336 1626.00672 L 1062.3336 1556.37391 Z M 1128.56396 1604.48782 L 1194.79031 1626.00607 L 1194.79031 1582.97103 L 1169.49464 1591.19009 L 1169.49352 1591.18973 L 1128.56396 1534.85502 Z M 1194.79231 1582.97038 L 1194.79231 1626.00437 L 1235.72007 1569.67214 Z M 1169.49471 1591.18796 L 1194.79031 1582.96893 L 1194.79031 1556.37156 L 1128.56558 1534.85384 Z M 1087.63158 1591.18743 L 1103.26435 1569.67077 L 1062.33723 1556.37274 Z M 955.17487 1591.18743 L 980.47023 1556.37136 L 914.24612 1534.85384 Z M 955.17749 1591.18724 L 1021.40223 1569.66952 L 1021.40223 1543.07215 L 996.10663 1534.85311 Z M 1128.56619 1534.85194 L 1194.79162 1556.36988 L 1194.79231 1556.37083 L 1194.79231 1582.96828 L 1235.72107 1569.66972 L 1194.79093 1513.33422 Z M 1103.26759 1569.66972 L 1128.56196 1577.88835 L 1128.56196 1534.85501 Z M 1062.33783 1556.37083 L 1103.26559 1569.66907 L 1128.56033 1534.85384 Z M 1021.40423 1569.66887 L 1062.33137 1556.37083 L 1021.40423 1543.0728 Z M 1194.79293 1513.33357 L 1235.72169 1569.66716 L 1235.72169 1500.03501 Z M 914.24512 1534.85142 L 980.47147 1556.36966 L 1021.40061 1500.03553 L 955.17518 1521.55348 L 955.17406 1521.55312 L 939.54048 1500.03533 Z M 1021.40447 1500.03363 L 1062.33499 1556.36966 L 1128.56196 1534.85121 L 1128.56196 1465.21605 L 1062.33499 1443.6976 Z M 1021.40423 1543.0707 L 1062.33198 1556.36893 L 1021.40423 1500.03671 Z M 996.10786 1534.85141 L 1021.40223 1543.07005 L 1021.40223 1500.03671 Z M 1128.56557 1534.85004 L 1169.49271 1521.552 L 1153.85993 1500.03533 Z M 914.2445 1534.84886 L 939.53924 1500.03363 L 914.2445 1465.2184 Z M 1128.56396 1534.84885 L 1153.8587 1500.03363 L 1128.56396 1465.21841 Z M 939.54172 1500.03363 L 955.17525 1521.55135 L 1021.4 1500.03363 L 955.17525 1478.51591 Z M 1153.86117 1500.03363 L 1169.49471 1521.55135 L 1235.71946 1500.03363 L 1169.49471 1478.51591 Z M 1194.79293 1486.73369 L 1235.72169 1500.03225 L 1235.72169 1430.4001 Z M 914.24512 1465.21584 L 939.54048 1500.03193 L 955.17406 1478.51414 L 955.17518 1478.51378 L 1021.40061 1500.03173 L 980.47147 1443.6976 Z M 1153.85993 1500.03193 L 1169.49271 1478.51526 L 1128.56557 1465.21722 Z M 1021.40423 1456.99656 L 1021.40423 1500.03055 L 1062.33198 1443.69833 Z M 996.10786 1465.21585 L 1021.40223 1500.03055 L 1021.40223 1456.99721 Z M 1194.79231 1443.69643 L 1194.79162 1443.69738 L 1128.56619 1465.21532 L 1194.79093 1486.73304 L 1235.72107 1430.39754 L 1194.79231 1417.09898 Z M 996.10663 1465.21415 L 1021.40223 1456.99511 L 1021.40223 1430.39774 L 955.17749 1408.88002 Z M 914.24612 1465.21342 L 980.47023 1443.6959 L 955.17487 1408.87983 Z M 1128.56558 1465.21342 L 1194.79031 1443.6957 L 1194.79031 1417.09833 L 1169.49471 1408.8793 Z M 1062.33783 1443.69643 L 1128.56033 1465.21342 L 1103.26559 1430.39819 Z M 1103.26759 1430.39754 L 1128.56196 1465.21225 L 1128.56196 1422.17891 Z M 1128.56396 1395.57944 L 1128.56396 1465.21224 L 1169.49352 1408.87753 L 1169.49464 1408.87717 L 1194.79031 1417.09623 L 1194.79031 1374.06119 Z M 1021.40423 1456.99446 L 1062.33137 1443.69643 L 1021.40423 1430.39839 Z M 1062.33723 1443.69452 L 1103.26435 1430.39649 L 1087.63158 1408.87983 Z M 996.10725 1422.17681 L 1062.33198 1443.69452 L 1021.40242 1387.35981 L 1021.40242 1387.35863 L 1037.036 1365.84085 L 996.10725 1352.5423 Z M 1037.03924 1365.8398 L 1062.33491 1374.05886 L 1062.3356 1374.05981 L 1062.3356 1443.69335 L 1103.26474 1387.35922 L 1062.3346 1331.02372 Z M 1021.40447 1387.35922 L 1062.3336 1443.69335 L 1062.3336 1374.06054 L 1037.03801 1365.8415 Z M 1087.63282 1408.87812 L 1103.26636 1430.39584 L 1128.56196 1422.1768 L 1128.56196 1352.544 Z M 1194.79231 1417.09688 L 1235.72007 1430.39512 L 1194.79231 1374.06289 Z M 955.17649 1408.8776 L 996.10525 1422.17616 L 996.10525 1352.544 Z M 1128.56396 1395.57733 L 1194.78808 1374.05981 L 1128.56396 1352.54229 Z M 1103.26598 1387.35752 L 1128.56134 1352.54144 L 1062.33722 1331.02392 Z M 996.10948 1352.54092 L 1037.03724 1365.83915 L 1062.33198 1331.02392 Z" fill-opacity="0" stroke-miterlimit="10"/></g></svg>