<svg version="1.1" xmlns="http://www.w3.org/2000/svg" xmlns:xlink="http://www.w3.org/1999/xlink" width="900" height="1600"><defs/><g><path fill="#222222" stroke="#cccccc" paint-order="fill stroke markers" d=" M 186.26166 295.91004 L 186.76166 296.77607 L 186.76166 310.08205 L 186.26166 310.94808 L 175.23834 317.31239 L 175.23834 329.46368 L 197.28498 342.1923 L 207.8083 336.11667 L 207.8083 323.38803 L 207.81533 323.36909 L 207.80903 323.34991 L 207.84393 323.29203 L 208.05049 322.73556 L 208.24393 322.62874 L 208.3083 322.522 L 219.83162 315.86901 L 220.83162 315.86901 L 232.35494 322.522 L 232.85494 323.38803 L 232.85494 336.69402 L 232.35494 337.56005 L 220.83162 344.21304 L 219.83162 344.21304 L 208.8083 337.84873 L 198.28498 343.92436 L 198.28498 356.07564 L 208.8083 362.15127 L 219.83162 355.78696 L 220.83162 355.78696 L 232.35494 362.43995 L 232.85494 363.30598 L 232.85494 376.61197 L 232.35494 377.478 L 220.83162 384.13099 L 219.83162 384.13099 L 208.3083 377.478 L 207.8083 376.61197 L 207.8083 363.88333 L 197.28498 357.8077 L 175.23834 370.53632 L 175.23834 382.68761 L 186.26166 389.05192 L 186.76166 389.91795 L 186.76166 403.22393 L 186.26166 404.08996 L 174.73834 410.74295 L 173.73834 410.74295 L 162.21502 404.08996 L 161.71502 403.22393 L 161.71502 389.91795 L 162.21502 389.05192 L 173.23834 382.68761 L 173.23834 370.53632 L 162.71502 364.46069 L 152.1917 370.53632 L 152.1917 383.26496 L 151.6917 384.13099 L 140.16838 390.78398 L 139.16838 390.78398 L 127.64506 384.13099 L 127.14506 383.26496 L 127.14506 369.95897 L 127.64506 369.09294 L 139.16838 362.43995 L 140.16838 362.43995 L 151.1917 368.80426 L 161.71502 362.72863 L 161.71502 337.27137 L 151.1917 331.19574 L 140.16838 337.56005 L 139.16838 337.56005 L 127.64506 330.90706 L 127.14506 330.04103 L 127.14506 316.73504 L 127.64506 315.86901 L 139.16838 309.21602 L 140.16838 309.21602 L 151.6917 315.86901 L 152.1917 316.73504 L 152.1917 329.46368 L 162.71502 335.53931 L 173.23834 329.46368 L 173.23834 317.31239 L 162.21502 310.94808 L 161.71502 310.08205 L 161.71502 296.77607 L 162.21502 295.91004 L 173.73834 289.25705 L 174.73834 289.25705 Z M 163.71502 390.4953 L 163.71502 402.64658 L 174.23834 408.72221 L 184.76166 402.64658 L 184.76166 390.4953 L 174.23834 384.41967 Z M 129.14506 370.53632 L 129.14506 382.68761 L 139.66838 388.76324 L 150.1917 382.68761 L 150.1917 370.53632 L 139.66838 364.46069 Z M 209.8083 363.88333 L 209.8083 376.03462 L 220.33162 382.11025 L 230.85494 376.03462 L 230.85494 363.88333 L 220.33162 357.8077 Z M 175.23834 368.22691 L 183.76165 363.30598 L 175.23834 358.38505 Z M 164.71503 363.30598 L 173.23834 368.22691 L 173.23834 358.38505 Z M 163.71502 361.57392 L 172.23833 356.65299 L 163.71502 351.73206 Z M 186.76166 361.57392 L 195.28497 356.65299 L 186.76166 351.73206 Z M 176.23835 356.65299 L 184.76166 361.57392 L 184.76166 351.73206 Z M 175.23834 354.92093 L 183.76165 350 L 175.23834 345.07907 Z M 187.76167 350 L 196.28498 354.92093 L 196.28498 345.07907 Z M 164.71503 350 L 173.23834 354.92093 L 173.23834 345.07907 Z M 163.71502 348.26794 L 172.23833 343.34701 L 163.71502 338.42608 Z M 186.76166 348.26794 L 195.28497 343.34701 L 186.76166 338.42608 Z M 176.23835 343.34701 L 184.76166 348.26794 L 184.76166 338.42608 Z M 209.8083 323.96538 L 209.8083 336.11667 L 220.33162 342.1923 L 230.85494 336.11667 L 230.85494 323.96538 L 220.33162 317.88975 Z M 175.23834 341.61495 L 183.76165 336.69402 L 175.23834 331.77309 Z M 164.71503 336.69402 L 173.23834 341.61495 L 173.23834 331.77309 Z M 129.14506 317.31239 L 129.14506 329.46368 L 139.66838 335.53931 L 150.1917 329.46368 L 150.1917 317.31239 L 139.66838 311.23676 Z M 163.71502 297.35342 L 163.71502 309.5047 L 174.23834 315.58033 L 184.76166 309.5047 L 184.76166 297.35342 L 174.23834 291.27779 Z" stroke-miterlimit="10"/><path fill="#222222" stroke="#cccccc" paint-order="fill stroke markers" d=" M 352.97743 289.33464 L 353.10205 289.33702 L 412.28568 323.5067 L 412.78568 324.37273 L 412.78568 375.62727 L 412.28568 376.4933 L 353.10205 410.66298 L 352.10205 410.66298 L 307.71432 385.03572 L 307.21432 384.16969 L 307.21432 315.83031 L 307.71432 314.96428 L 352.10205 289.33702 L 352.12196 289.33364 L 352.13543 289.31859 L 352.20302 289.31988 L 352.7882 289.22053 Z M 339.80615 401.25453 L 352.60205 408.64224 L 365.39795 401.25453 L 352.60205 393.86682 Z M 324.01023 376.20462 L 324.01023 392.13476 L 337.80614 400.09982 L 351.60205 392.13476 L 351.60205 376.20462 L 337.80614 368.23955 Z M 368.39795 399.52248 L 380.19385 392.71211 L 368.39795 385.90175 Z M 353.60205 376.20462 L 353.60205 392.13476 L 366.39795 399.52247 L 366.39795 368.8169 Z M 383.19386 390.98006 L 394.98976 384.16969 L 383.19386 377.35932 Z M 309.21432 383.59234 L 322.01023 390.98005 L 322.01023 376.20462 L 309.21432 368.8169 Z M 369.39796 384.16969 L 381.19386 390.98005 L 381.19386 377.35933 Z M 397.98977 367.66219 L 397.98977 382.43764 L 410.78568 375.04992 L 410.78568 360.27448 Z M 368.39795 382.43763 L 380.19385 375.62727 L 368.39795 368.8169 Z M 369.39796 367.08485 L 395.98977 382.43763 L 395.98977 367.66219 L 382.19386 359.69713 Z M 310.21433 367.08484 L 323.01023 374.47256 L 336.80614 366.50749 L 336.80614 351.73205 Z M 338.80614 366.50749 L 352.60205 374.47256 L 365.39795 367.08485 L 338.80614 351.73206 Z M 383.19386 342.03493 L 383.19386 357.96507 L 396.98977 365.93013 L 410.78568 357.96507 L 410.78568 342.03493 L 396.98977 334.06987 Z M 368.39795 365.35279 L 381.19386 357.96507 L 381.19386 342.03493 L 368.39795 334.64721 Z M 354.60205 358.54242 L 366.39795 365.35279 L 366.39795 351.73206 Z M 309.21432 365.35278 L 321.01022 358.54242 L 309.21432 351.73206 Z M 339.80614 350 L 351.60205 356.81037 L 351.60205 343.18963 Z M 324.01023 356.81036 L 335.80612 350 L 324.01023 343.18964 Z M 353.60205 356.81036 L 365.39794 350 L 353.60205 343.18964 Z M 310.21433 350 L 322.01023 356.81036 L 322.01023 343.18964 Z M 310.21433 332.91516 L 336.80614 348.26795 L 336.80614 333.49251 L 323.01023 325.52744 Z M 309.21432 348.26794 L 321.01022 341.45758 L 309.21432 334.64722 Z M 338.80614 333.49251 L 338.80614 348.26794 L 365.39795 332.91515 L 352.60205 325.52744 Z M 354.60205 341.45758 L 366.39795 348.26794 L 366.39795 334.64721 Z M 369.39796 332.91515 L 382.19386 340.30287 L 395.98977 332.33781 L 395.98977 317.56237 Z M 397.98977 332.33781 L 410.78568 339.72552 L 410.78568 324.95008 L 397.98977 317.56236 Z M 324.01023 307.86524 L 324.01023 323.79538 L 337.80614 331.76045 L 351.60205 323.79538 L 351.60205 307.86524 L 337.80614 299.90018 Z M 309.21432 316.40766 L 309.21432 331.1831 L 322.01023 323.79538 L 322.01023 309.01995 Z M 368.39795 331.1831 L 380.19385 324.37273 L 368.39795 317.56237 Z M 353.60205 307.86524 L 353.60205 323.79538 L 366.39795 331.1831 L 366.39795 300.47753 Z M 383.19386 322.64068 L 394.98976 315.83031 L 383.19386 309.01994 Z M 369.39796 315.83031 L 381.19386 322.64067 L 381.19386 309.01995 Z M 368.39795 314.09825 L 380.19385 307.28789 L 368.39795 300.47752 Z M 339.80615 298.74547 L 352.60205 306.13318 L 365.39795 298.74547 L 352.60205 291.35776 Z" stroke-miterlimit="10"/><path fill="#222222" stroke="#cccccc" paint-order="fill stroke markers" d=" M 591.5252 309.85475 L 592.0252 310.72078 L 592.0252 330.36039 L 591.5252 331.22642 L 575.0168 340.75755 L 575.0168 359.24245 L 591.5252 368.77358 L 591.53809 368.78915 L 591.55785 368.79328 L 591.59051 368.85243 L 591.96916 369.30956 L 591.96495 369.5305 L 592.0252 369.63961 L 592.0252 389.27922 L 591.5252 390.14525 L 557.5084 409.78486 L 557.48849 409.78824 L 557.47502 409.80329 L 557.40743 409.802 L 556.82225 409.90135 L 556.63302 409.78724 L 556.5084 409.78486 L 539.5 399.96506 L 539.48711 399.94949 L 539.46735 399.94536 L 539.43469 399.88621 L 539.05604 399.42908 L 539.06025 399.20814 L 539 399.09903 L 539 380.03677 L 522.9916 370.79432 L 506.4832 380.32545 L 506.46329 380.32883 L 506.44982 380.34388 L 506.38223 380.34259 L 505.79705 380.44194 L 505.60782 380.32783 L 505.4832 380.32545 L 488.4748 370.50564 L 487.9748 369.63961 L 487.9748 330.36039 L 488.4748 329.49436 L 505.4832 319.67455 L 506.4832 319.67455 L 522.9916 329.20568 L 539 319.96323 L 539 300.90097 L 539.5 300.03494 L 556.5084 290.21514 L 557.5084 290.21514 Z M 541 398.52168 L 557.0084 407.76412 L 572.01679 399.09903 L 541 381.19147 Z M 575.0168 397.36697 L 590.0252 388.70187 L 590.0252 370.21696 L 575.0168 361.55186 Z M 559.0084 389.27922 L 573.0168 397.36697 L 573.0168 381.19148 Z M 542.00001 379.45942 L 556.0084 387.54717 L 556.0084 371.37167 Z M 558.0084 387.54716 L 572.01679 379.45942 L 558.0084 371.37167 Z M 489.9748 369.06226 L 505.9832 378.30471 L 520.99159 369.63961 L 489.9748 351.73206 Z M 541 377.72736 L 555.00839 369.63961 L 541 361.55186 Z M 559.00841 369.63961 L 573.0168 377.72736 L 573.0168 361.55187 Z M 524.99161 369.63961 L 539 377.72736 L 539 361.55187 Z M 523.9916 367.90756 L 538 359.81981 L 523.9916 351.73205 Z M 558.0084 367.90756 L 572.0168 359.81981 L 558.0084 351.73206 Z M 507.98321 359.81981 L 521.9916 367.90756 L 521.9916 351.73206 Z M 524.99161 350 L 556.0084 367.90756 L 556.0084 332.09244 Z M 506.9832 358.08775 L 520.9916 350 L 506.9832 341.91225 Z M 559.00841 350 L 573.0168 358.08775 L 573.0168 341.91225 Z M 490.97481 350 L 504.9832 358.08775 L 504.9832 341.91225 Z M 523.9916 348.26795 L 538 340.18019 L 523.9916 332.09244 Z M 489.9748 330.93774 L 489.9748 348.26794 L 520.99159 330.36039 L 505.9832 321.69529 Z M 558.0084 348.26794 L 572.0168 340.18019 L 558.0084 332.09244 Z M 507.98321 340.18019 L 521.9916 348.26794 L 521.9916 332.09244 Z M 541 338.44814 L 555.00839 330.36039 L 541 322.27264 Z M 575.0168 338.44814 L 590.0252 329.78304 L 590.0252 311.29813 L 575.0168 302.63303 Z M 524.99161 330.36039 L 539 338.44813 L 539 322.27264 Z M 559.00841 330.36039 L 573.0168 338.44813 L 573.0168 322.27264 Z M 558.0084 328.62833 L 572.01679 320.54058 L 558.0084 312.45284 Z M 542.00001 320.54058 L 556.0084 328.62833 L 556.0084 312.45283 Z M 541 301.47832 L 541 318.80853 L 572.01679 300.90097 L 557.0084 292.23588 Z M 559.0084 310.72078 L 573.0168 318.80852 L 573.0168 302.63303 Z" stroke-miterlimit="10"/><path fill="#222222" stroke="#cccccc" paint-order="fill stroke markers" d=" M 720.37538 293.66318 L 720.5 293.66556 L 733.72487 301.30094 L 746.94974 293.66556 L 747.94974 293.66556 L 761.67461 301.58962 L 762.17461 302.45565 L 762.17461 317.72641 L 775.39949 325.3618 L 775.41238 325.37737 L 775.43214 325.3815 L 775.4648 325.44065 L 775.84345 325.89778 L 775.83924 326.11872 L 775.89949 326.22783 L 775.89949 342.07594 L 775.89246 342.09488 L 775.89876 342.11406 L 775.86386 342.17194 L 775.6573 342.72841 L 775.46386 342.83523 L 775.39949 342.94197 L 763.17462 350 L 775.39949 357.05803 L 775.89949 357.92406 L 775.89949 373.77217 L 775.89246 373.79111 L 775.89876 373.81029 L 775.86386 373.86817 L 775.6573 374.42464 L 775.46386 374.53146 L 775.39949 374.6382 L 762.17461 382.27359 L 762.17461 397.54435 L 761.67461 398.41038 L 747.94974 406.33444 L 746.94974 406.33444 L 733.72487 398.69906 L 720.5 406.33444 L 720.48009 406.33782 L 720.46662 406.35287 L 720.39903 406.35158 L 719.81385 406.45093 L 719.62462 406.33682 L 719.5 406.33444 L 705.77513 398.41038 L 705.27513 397.54435 L 705.27513 383.42829 L 693.05026 390.48632 L 693.03035 390.4897 L 693.01688 390.50475 L 692.94929 390.50346 L 692.36411 390.60281 L 692.17488 390.4887 L 692.05026 390.48632 L 678.32539 382.56226 L 678.3125 382.54669 L 678.29274 382.54256 L 678.26008 382.48341 L 677.88143 382.02628 L 677.88564 381.80534 L 677.82539 381.69623 L 677.82539 366.42547 L 664.60051 358.79009 L 664.10051 357.92406 L 664.10051 342.07594 L 664.60051 341.20991 L 677.82539 333.57453 L 677.82539 318.30377 L 677.83242 318.28483 L 677.82612 318.26565 L 677.86102 318.20777 L 678.06758 317.6513 L 678.26102 317.54448 L 678.32539 317.43774 L 692.05026 309.51368 L 693.05026 309.51368 L 705.27513 316.57171 L 705.27513 302.45565 L 705.28216 302.43671 L 705.27586 302.41753 L 705.31076 302.35965 L 705.51732 301.80318 L 705.71076 301.69636 L 705.77513 301.58962 L 719.5 293.66556 L 719.51991 293.66218 L 719.53338 293.64713 L 719.60097 293.64842 L 720.18615 293.54907 Z M 707.27513 382.27358 L 707.27513 396.967 L 720 404.3137 L 745.44973 389.62029 L 720 374.92688 Z M 735.72488 397.54435 L 747.44974 404.3137 L 760.17461 396.967 L 760.17461 383.42829 Z M 679.82539 381.11888 L 692.55026 388.46558 L 705.27513 381.11888 L 705.27513 366.42547 L 679.82539 351.73206 Z M 748.44974 358.50141 L 748.44974 387.88824 L 773.89949 373.19482 L 773.89949 358.50141 L 761.17461 351.15471 Z M 735.72488 381.69623 L 746.44974 387.88823 L 746.44974 375.50423 Z M 707.27513 366.42547 L 707.27513 379.96417 L 719 373.19482 L 719 359.65612 Z M 734.72487 379.96417 L 745.44973 373.77217 L 734.72487 367.58017 Z M 721 373.19482 L 732.72487 379.96417 L 732.72487 366.42547 L 721 359.65611 Z M 734.72487 365.27076 L 746.44974 372.04011 L 746.44974 358.50141 L 734.72487 351.73206 Z M 694.55027 357.92406 L 706.27513 364.69341 L 718 357.92406 L 706.27513 351.15471 Z M 666.10051 342.65329 L 666.10051 357.34671 L 677.82539 364.11606 L 677.82539 335.88394 Z M 722.00001 357.92406 L 732.72487 364.11606 L 732.72487 351.73206 Z M 735.72488 350 L 747.44974 356.76935 L 759.17461 350 L 747.44974 343.23065 Z M 693.55026 356.192 L 704.27513 350 L 693.55026 343.808 Z M 721 356.192 L 731.72486 350 L 721 343.808 Z M 680.8254 350 L 691.55026 356.192 L 691.55026 343.808 Z M 708.27514 350 L 719 356.192 L 719 343.808 Z M 694.55027 342.07594 L 706.27513 348.84529 L 718 342.07594 L 706.27513 335.30659 Z M 748.44974 341.49859 L 761.17462 348.84529 L 773.89949 341.49859 L 773.89949 326.80518 L 748.44974 312.11176 Z M 679.82539 318.88112 L 679.82539 348.26794 L 705.27513 333.57453 L 705.27513 318.88112 L 692.55026 311.53442 Z M 734.72487 334.72924 L 734.72487 348.26794 L 746.44974 341.49859 L 746.44974 327.95989 Z M 722.00001 342.07594 L 732.72487 348.26794 L 732.72487 335.88394 Z M 721 326.80518 L 721 340.34389 L 732.72487 333.57453 L 732.72487 320.03583 Z M 707.27513 333.57453 L 719 340.34388 L 719 326.80518 L 707.27513 320.03583 Z M 734.72487 332.41983 L 745.44973 326.22783 L 734.72487 320.03583 Z M 707.27513 303.033 L 707.27513 317.72642 L 720 325.07312 L 745.44973 310.37971 L 720 295.6863 Z M 735.72488 318.30377 L 746.44974 324.49577 L 746.44974 312.11177 Z M 735.72488 302.45565 L 760.17461 316.57171 L 760.17461 303.033 L 747.44974 295.6863 Z" stroke-miterlimit="10"/><path fill="#222222" stroke="#cccccc" paint-order="fill stroke markers" d=" M 145.71521 473.57602 L 145.87397 473.54907 L 146.01186 473.63222 L 146.18782 473.66556 L 173.63756 489.51368 L 174.13756 490.37971 L 174.13756 520.34389 L 200.08731 505.3618 L 201.08731 505.3618 L 228.53705 521.20991 L 228.6575 521.35532 L 228.81919 521.45283 L 228.8783 521.62189 L 228.98101 521.74589 L 228.97794 521.90688 L 229.03705 522.07594 L 229.03705 537.92406 L 228.97135 538.10106 L 228.96775 538.28986 L 228.85089 538.42559 L 228.79486 538.57653 L 228.65391 538.65436 L 228.53705 538.79009 L 201.08731 554.6382 L 200.08731 554.6382 L 174.13756 539.65611 L 174.13756 569.62029 L 173.63756 570.48632 L 146.18782 586.33444 L 146.00165 586.36605 L 145.83638 586.45731 L 145.66043 586.42398 L 145.50167 586.45093 L 145.36378 586.36778 L 145.18782 586.33444 L 131.46295 578.41038 L 131.39849 578.29873 L 131.18081 578.16746 L 130.99367 577.59756 L 130.96295 577.54435 L 130.96295 545.84812 L 131.46295 544.98209 L 157.41268 530 L 131.46295 515.01791 L 130.96295 514.15188 L 130.96295 482.45565 L 130.96998 482.43671 L 130.96368 482.41753 L 130.99858 482.35965 L 131.20514 481.80318 L 131.39858 481.69636 L 131.46295 481.58962 L 145.18782 473.66556 L 145.37399 473.63395 L 145.53926 473.54269 Z M 146.68782 583.73635 L 157.41268 577.54435 L 146.68782 571.35235 Z M 133.96296 577.54435 L 144.68782 583.73635 L 144.68782 571.35235 Z M 132.96295 575.81229 L 143.68781 569.62029 L 132.96295 563.42829 Z M 160.41269 562.27358 L 160.41269 575.81229 L 172.13756 569.04294 L 172.13756 555.50423 Z M 133.96296 561.69623 L 158.41269 575.81229 L 158.41269 562.27358 L 145.68782 554.92688 Z M 146.68782 553.19482 L 159.41269 560.54152 L 171.13755 553.77217 L 146.68782 539.65612 Z M 132.96295 546.42547 L 132.96295 559.96417 L 144.68782 553.19482 L 144.68782 539.65612 Z M 188.86245 545.84812 L 200.58731 552.61747 L 212.31217 545.84812 L 200.58731 539.07877 Z M 161.4127 545.84812 L 172.13756 552.04011 L 172.13756 539.65612 Z M 160.41269 544.11606 L 184.86243 530 L 160.41269 515.88394 Z M 187.86244 544.11606 L 199.58731 537.34671 L 199.58731 522.65329 L 187.86244 515.88394 Z M 215.31218 544.11606 L 226.03704 537.92406 L 215.31218 531.73206 Z M 147.68783 537.92406 L 158.41269 544.11606 L 158.41269 531.73206 Z M 175.13757 537.92406 L 185.86244 544.11606 L 185.86244 531.73206 Z M 201.58731 522.65329 L 201.58731 537.34671 L 213.31218 544.11606 L 213.31218 515.88394 Z M 216.31219 530 L 227.03705 536.192 L 227.03705 523.808 Z M 147.68783 522.07594 L 158.41269 528.26794 L 158.41269 515.88394 Z M 175.13757 522.07594 L 185.86244 528.26794 L 185.86244 515.88394 Z M 215.31218 528.26794 L 226.03704 522.07594 L 215.31218 515.88394 Z M 188.86245 514.15188 L 200.58731 520.92123 L 212.31217 514.15188 L 200.58731 507.38253 Z M 146.68782 506.80518 L 146.68782 520.34388 L 171.13755 506.22783 L 159.41269 499.45848 Z M 132.96295 513.57453 L 144.68782 520.34388 L 144.68782 506.80518 L 132.96295 500.03583 Z M 161.4127 514.15188 L 172.13756 520.34388 L 172.13756 507.95989 Z M 133.96296 498.30377 L 145.68782 505.07312 L 158.41269 497.72642 L 158.41269 484.18771 Z M 160.41269 497.72642 L 172.13756 504.49577 L 172.13756 490.95706 L 160.41269 484.18771 Z M 132.96295 496.57171 L 143.68781 490.37971 L 132.96295 484.18771 Z M 146.68782 488.64765 L 157.41268 482.45565 L 146.68782 476.26365 Z M 133.96296 482.45565 L 144.68782 488.64765 L 144.68782 476.26365 Z" stroke-miterlimit="10"/><path fill="#222222" stroke="#cccccc" paint-order="fill stroke markers" d=" M 332.98878 473.66556 L 333.05026 473.66556 L 346.77513 481.58962 L 346.78802 481.60519 L 346.80778 481.60932 L 346.84044 481.66847 L 347.21909 482.1256 L 347.21488 482.34654 L 347.27513 482.45565 L 347.27513 496.57171 L 373.22487 481.58962 L 373.24478 481.58624 L 373.25825 481.57119 L 373.32584 481.57248 L 373.91102 481.47313 L 374.10025 481.58724 L 374.22487 481.58962 L 387.94974 489.51368 L 388.44974 490.37971 L 388.44974 520.34388 L 400.67461 513.28585 L 401.67461 513.28585 L 415.39949 521.20991 L 415.51994 521.35532 L 415.68163 521.45283 L 415.74074 521.62189 L 415.84345 521.74589 L 415.84038 521.90688 L 415.89949 522.07594 L 415.89949 537.92406 L 415.83503 538.0357 L 415.83019 538.28986 L 415.43021 538.73688 L 415.39949 538.79009 L 401.67461 546.71415 L 401.6547 546.71753 L 401.64123 546.73258 L 401.57364 546.73129 L 400.98846 546.83064 L 400.79923 546.71653 L 400.67461 546.71415 L 388.44974 539.65612 L 388.44974 569.62029 L 387.94974 570.48632 L 374.22487 578.41038 L 373.22487 578.41038 L 347.27513 563.42829 L 347.27513 577.54435 L 347.2681 577.56329 L 347.2744 577.58247 L 347.2395 577.64035 L 347.03294 578.19682 L 346.8395 578.30364 L 346.77513 578.41038 L 333.05026 586.33444 L 332.86409 586.36605 L 332.69882 586.45731 L 332.52287 586.42398 L 332.36411 586.45093 L 332.22622 586.36778 L 332.05026 586.33444 L 318.32539 578.41038 L 318.26093 578.29873 L 318.04325 578.16746 L 317.85611 577.59756 L 317.82539 577.54435 L 317.82539 561.69623 L 317.83242 561.67729 L 317.82612 561.65811 L 317.86102 561.60023 L 318.06758 561.04376 L 318.26102 560.93694 L 318.32539 560.8302 L 330.55024 553.77217 L 304.60051 538.79009 L 304.10051 537.92406 L 304.10051 522.07594 L 304.60051 521.20991 L 330.55024 506.22783 L 318.32539 499.1698 L 317.82539 498.30377 L 317.82539 482.45565 L 317.89109 482.27865 L 317.89469 482.08985 L 318.01155 481.95412 L 318.06758 481.80318 L 318.20853 481.72535 L 318.32539 481.58962 L 332.05026 473.66556 L 332.17919 473.66556 L 332.4017 473.54269 Z M 333.55026 570.19764 L 333.55026 583.73635 L 345.27513 576.967 L 345.27513 563.42829 Z M 320.8254 577.54435 L 331.55026 583.73635 L 331.55026 571.35235 Z M 362.00001 569.62029 L 373.72487 576.38964 L 386.44974 569.04294 L 386.44974 555.50423 Z M 319.82539 562.27358 L 319.82539 575.81229 L 331.55026 569.04294 L 331.55026 555.50423 Z M 320.8254 545.84812 L 359 567.88824 L 359 554.34953 L 332.55026 539.07876 Z M 333.55026 567.88823 L 344.27512 561.69623 L 333.55026 555.50423 Z M 361 567.88823 L 371.72486 561.69623 L 361 555.50423 Z M 374.72487 559.96417 L 385.44973 553.77217 L 374.72487 547.58017 Z M 361 553.19482 L 372.72487 559.96417 L 372.72487 546.42547 L 361 539.65612 Z M 348.27514 545.84812 L 359 552.04012 L 359 539.65612 Z M 374.72487 514.72924 L 374.72487 545.27076 L 386.44974 552.04011 L 386.44974 507.95989 Z M 389.44975 537.92406 L 401.17461 544.69341 L 412.89948 537.92406 L 401.17462 531.15471 Z M 306.10051 522.65329 L 306.10051 537.34671 L 317.82539 544.11607 L 317.82539 515.88393 Z M 319.82539 544.11606 L 330.55025 537.92406 L 319.82539 531.73206 Z M 347.27513 544.11606 L 371.72486 530 L 347.27513 515.88394 Z M 362.00001 537.92406 L 372.72487 544.11606 L 372.72487 531.73206 Z M 334.55027 537.92406 L 345.27513 544.11606 L 345.27513 531.73206 Z M 320.8254 530 L 332.55026 536.76935 L 344.27512 530 L 332.55026 523.23065 Z M 388.44974 536.192 L 399.17461 530 L 388.44974 523.808 Z M 403.17462 530 L 413.89949 536.192 L 413.89949 523.808 Z M 389.44975 522.07594 L 401.17462 528.84529 L 412.89948 522.07594 L 401.17461 515.30659 Z M 319.82539 528.26794 L 330.55025 522.07594 L 319.82539 515.88394 Z M 334.55027 522.07594 L 345.27513 528.26794 L 345.27513 515.88394 Z M 362.00001 522.07594 L 372.72487 528.26794 L 372.72487 515.88394 Z M 320.8254 514.15188 L 332.55026 520.92124 L 359 505.65047 L 359 492.11176 Z M 361 506.80518 L 361 520.34388 L 372.72487 513.57453 L 372.72487 500.03583 Z M 348.27514 514.15188 L 359 520.34388 L 359 507.95988 Z M 374.72487 512.41983 L 385.44973 506.22783 L 374.72487 500.03583 Z M 333.55026 504.49577 L 344.27512 498.30377 L 333.55026 492.11177 Z M 361 504.49577 L 371.72486 498.30377 L 361 492.11177 Z M 362.00001 490.37971 L 386.44974 504.49577 L 386.44974 490.95706 L 373.72487 483.61036 Z M 319.82539 497.72642 L 331.55026 504.49577 L 331.55026 490.95706 L 319.82539 484.18771 Z M 333.55026 489.80236 L 345.27513 496.57171 L 345.27513 483.033 L 333.55026 476.26365 Z M 320.8254 482.45565 L 331.55026 488.64765 L 331.55026 476.26365 Z" stroke-miterlimit="10"/><path fill="#222222" stroke="#cccccc" paint-order="fill stroke markers" d=" M 550.82371 481.45081 L 551.32371 482.31684 L 551.32371 504.42636 L 570.47112 493.3716 L 570.49103 493.36822 L 570.5045 493.35317 L 570.57209 493.35446 L 571.15727 493.25511 L 571.3465 493.36922 L 571.47112 493.3716 L 592.11854 505.29239 L 592.61854 506.15842 L 592.61854 553.84158 L 592.11854 554.70761 L 571.47112 566.6284 L 571.45121 566.63178 L 571.43774 566.64683 L 571.37015 566.64554 L 570.78497 566.74489 L 570.59574 566.63078 L 570.47112 566.6284 L 551.32371 555.57364 L 551.32371 577.68316 L 550.82371 578.54919 L 530.17629 590.46999 L 529.17629 590.46999 L 487.88146 566.6284 L 487.38146 565.76237 L 487.38146 541.92079 L 487.38849 541.90185 L 487.38219 541.88267 L 487.41709 541.82479 L 487.62365 541.26832 L 487.81709 541.1615 L 487.88146 541.05476 L 507.02887 530 L 487.88146 518.94524 L 487.86857 518.92967 L 487.84881 518.92554 L 487.81615 518.86639 L 487.4375 518.40926 L 487.44171 518.18832 L 487.38146 518.07921 L 487.38146 494.23763 L 487.88146 493.3716 L 529.17629 469.53001 L 530.17629 469.53001 Z M 511.02888 577.68316 L 529.67629 588.44925 L 549.32371 577.10581 L 549.32371 555.57364 Z M 489.38146 542.49814 L 489.38146 565.18502 L 508.02888 575.95111 L 508.02888 531.73205 Z M 510.02888 575.9511 L 527.67628 565.76237 L 510.02888 555.57364 Z M 552.32372 553.84158 L 570.97112 564.60766 L 590.61854 553.26423 L 590.61854 531.73206 Z M 530.67629 564.03032 L 548.3237 553.84158 L 530.67629 543.65285 Z M 511.02889 553.84158 L 528.67629 564.03031 L 528.67629 543.65285 Z M 531.6763 541.92079 L 549.32371 552.10953 L 549.32371 531.73205 Z M 510.02888 552.10952 L 527.67628 541.92079 L 510.02888 531.73206 Z M 551.32371 552.10952 L 568.97111 541.92079 L 551.32371 531.73206 Z M 530.67629 540.18874 L 548.3237 530 L 530.67629 519.81126 Z M 571.97112 540.18874 L 589.61853 530 L 571.97112 519.81126 Z M 511.02888 530 L 528.67629 540.18873 L 528.67629 519.81127 Z M 552.32371 530 L 569.97112 540.18873 L 569.97112 519.81127 Z M 489.38146 494.81498 L 489.38146 517.50186 L 508.02888 528.26795 L 508.02888 484.04889 Z M 531.6763 518.07921 L 549.32371 528.26795 L 549.32371 507.89047 Z M 510.02888 528.26794 L 527.67628 518.07921 L 510.02888 507.89048 Z M 551.32371 528.26794 L 568.97111 518.07921 L 551.32371 507.89048 Z M 552.32372 506.15842 L 590.61854 528.26794 L 590.61854 506.73577 L 570.97112 495.39234 Z M 530.67629 516.34715 L 548.3237 506.15842 L 530.67629 495.96968 Z M 511.02889 506.15842 L 528.67629 516.34715 L 528.67629 495.96969 Z M 510.02888 504.42636 L 527.67628 494.23763 L 510.02888 484.0489 Z M 511.02888 482.31684 L 549.32371 504.42636 L 549.32371 482.89419 L 529.67629 471.55075 Z" stroke-miterlimit="10"/><path fill="#222222" stroke="#cccccc" paint-order="fill stroke markers" d=" M 712.41776 473.13858 L 728.08224 482.18247 L 743.74672 473.13858 L 744.74672 473.13858 L 760.91119 482.47114 L 761.41119 483.33717 L 761.41119 501.42495 L 777.07567 510.46884 L 777.51963 511.00482 L 777.50637 511.70067 L 777.07567 512.2009 L 761.41119 521.24479 L 761.41119 538.75521 L 777.07567 547.7991 L 777.51963 548.33508 L 777.50637 549.03093 L 777.07567 549.53116 L 761.41119 558.57505 L 761.41119 576.66283 L 760.91119 577.52886 L 744.74672 586.86142 L 743.74672 586.86142 L 728.08224 577.81753 L 712.41776 586.86142 L 711.73161 586.97791 L 711.13562 586.6185 L 710.91776 585.99539 L 710.91776 567.90762 L 695.75328 559.15241 L 680.08881 568.19629 L 679.40266 568.31278 L 678.80667 567.95337 L 678.58881 567.33026 L 678.58881 549.24249 L 662.92433 540.1986 L 662.42433 539.33257 L 662.42433 520.66743 L 662.92433 519.8014 L 678.58881 510.75751 L 678.58881 492.66974 L 678.831 492.01727 L 679.44025 491.68084 L 680.08881 491.80371 L 695.75328 500.84759 L 710.91776 492.09238 L 710.91776 474.00461 L 711.15995 473.35214 L 711.7692 473.01571 Z M 729.08224 576.08547 L 744.24672 584.84068 L 759.41119 576.08548 L 759.41119 558.57505 L 729.08224 541.06462 Z M 712.91776 567.90762 L 712.91776 584.26334 L 727.08224 576.08547 L 727.08224 559.72975 Z M 696.75328 557.42034 L 711.91776 566.17556 L 726.08223 557.9977 L 696.75328 541.06463 Z M 680.58881 549.24248 L 680.58881 565.5982 L 694.75328 557.42035 L 694.75328 541.06462 Z M 746.24672 548.66513 L 760.41119 556.84299 L 774.57566 548.66513 L 760.41119 540.48728 Z M 713.91776 548.66513 L 727.08224 556.26564 L 727.08224 541.06462 Z M 664.42433 521.24479 L 664.42433 538.75521 L 679.58881 547.51042 L 709.91775 530 L 679.58881 512.48958 Z M 697.75329 539.33257 L 710.91776 546.93308 L 710.91776 531.73205 Z M 730.08224 539.33257 L 743.24672 546.93308 L 743.24672 531.73206 Z M 712.91776 546.93307 L 726.08223 539.33257 L 712.91776 531.73206 Z M 745.24672 546.93307 L 759.41119 538.75522 L 759.41119 521.24478 L 745.24672 513.06693 Z M 729.08224 537.60051 L 742.24671 530 L 729.08224 522.39949 Z M 713.91777 530 L 727.08224 537.60051 L 727.08224 522.39949 Z M 697.75329 520.66743 L 710.91776 528.26795 L 710.91776 513.06692 Z M 712.91776 528.26794 L 726.08223 520.66743 L 712.91776 513.06693 Z M 730.08224 520.66743 L 743.24672 528.26794 L 743.24672 513.06692 Z M 746.24672 511.33487 L 760.41119 519.51272 L 774.57566 511.33487 L 760.41119 503.15701 Z M 729.08224 483.91453 L 729.08224 518.93538 L 759.41119 501.42495 L 759.41119 483.91452 L 744.24672 475.15932 Z M 680.58881 510.75752 L 694.75328 518.93538 L 694.75328 502.57965 L 680.58881 494.4018 Z M 713.91776 511.33487 L 727.08224 518.93538 L 727.08224 503.73436 Z M 696.75328 502.57966 L 696.75328 518.93537 L 726.08223 502.0023 L 711.91776 493.82444 Z M 712.91776 492.09238 L 727.08224 500.27025 L 727.08224 483.91453 L 712.91776 475.73666 Z" stroke-miterlimit="10"/><path fill="#222222" stroke="#cccccc" paint-order="fill stroke markers" d=" M 186.26166 655.91004 L 186.76166 656.77607 L 186.76166 670.08205 L 186.26166 670.94808 L 175.23834 677.31239 L 175.23834 689.46368 L 197.28498 702.1923 L 207.8083 696.11667 L 207.8083 683.38803 L 207.81533 683.36909 L 207.80903 683.34991 L 207.84393 683.29203 L 208.05049 682.73556 L 208.24393 682.62874 L 208.3083 682.522 L 219.83162 675.86901 L 220.83162 675.86901 L 232.35494 682.522 L 232.85494 683.38803 L 232.85494 696.69402 L 232.35494 697.56005 L 221.33162 703.92436 L 221.33162 716.07564 L 232.35494 722.43995 L 232.85494 723.30598 L 232.85494 736.61197 L 232.35494 737.478 L 220.83162 744.13099 L 219.83162 744.13099 L 208.3083 737.478 L 207.8083 736.61197 L 207.8083 723.88333 L 197.28498 717.8077 L 175.23834 730.53632 L 175.23834 742.68761 L 186.26166 749.05192 L 186.76166 749.91795 L 186.76166 763.22393 L 186.26166 764.08996 L 174.73834 770.74295 L 173.73834 770.74295 L 162.21502 764.08996 L 161.71502 763.22393 L 161.71502 750.4953 L 151.1917 744.41967 L 140.16838 750.78398 L 139.16838 750.78398 L 127.64506 744.13099 L 127.14506 743.26496 L 127.14506 729.95897 L 127.64506 729.09294 L 139.16838 722.43995 L 140.16838 722.43995 L 151.1917 728.80426 L 161.71502 722.72863 L 161.71502 697.27137 L 151.1917 691.19574 L 140.16838 697.56005 L 139.16838 697.56005 L 127.64506 690.90706 L 127.14506 690.04103 L 127.14506 676.73504 L 127.64506 675.86901 L 139.16838 669.21602 L 140.16838 669.21602 L 151.1917 675.58033 L 161.71502 669.5047 L 161.71502 656.77607 L 162.21502 655.91004 L 173.73834 649.25705 L 174.73834 649.25705 Z M 163.71502 750.4953 L 163.71502 762.64658 L 174.23834 768.72221 L 184.76166 762.64658 L 184.76166 750.4953 L 174.23834 744.41967 Z M 129.14506 730.53632 L 129.14506 742.68761 L 139.66838 748.76324 L 150.1917 742.68761 L 150.1917 730.53632 L 139.66838 724.46069 Z M 152.1917 730.53632 L 152.1917 742.68761 L 162.71502 748.76324 L 173.23834 742.68761 L 173.23834 730.53632 L 162.71502 724.46069 Z M 209.8083 723.88333 L 209.8083 736.03462 L 220.33162 742.11025 L 230.85494 736.03462 L 230.85494 723.88333 L 220.33162 717.8077 Z M 175.23834 728.22691 L 183.76165 723.30598 L 175.23834 718.38505 Z M 164.71503 723.30598 L 173.23834 728.22691 L 173.23834 718.38505 Z M 198.28498 703.92436 L 198.28498 716.07564 L 208.8083 722.15127 L 219.33162 716.07564 L 219.33162 703.92436 L 208.8083 697.84873 Z M 163.71502 721.57392 L 172.23833 716.65299 L 163.71502 711.73206 Z M 186.76166 721.57392 L 195.28497 716.65299 L 186.76166 711.73206 Z M 164.71503 710 L 184.76166 721.57392 L 184.76166 698.42608 Z M 187.76167 710 L 196.28498 714.92093 L 196.28498 705.07907 Z M 163.71502 708.26794 L 172.23833 703.34701 L 163.71502 698.42608 Z M 186.76166 708.26794 L 195.28497 703.34701 L 186.76166 698.42608 Z M 209.8083 683.96538 L 209.8083 696.11667 L 220.33162 702.1923 L 230.85494 696.11667 L 230.85494 683.96538 L 220.33162 677.88975 Z M 175.23834 701.61495 L 183.76165 696.69402 L 175.23834 691.77309 Z M 164.71503 696.69402 L 173.23834 701.61495 L 173.23834 691.77309 Z M 129.14506 677.31239 L 129.14506 689.46368 L 139.66838 695.53931 L 150.1917 689.46368 L 150.1917 677.31239 L 139.66838 671.23676 Z M 152.1917 677.31239 L 152.1917 689.46368 L 162.71502 695.53931 L 173.23834 689.46368 L 173.23834 677.31239 L 162.71502 671.23676 Z M 163.71502 657.35342 L 163.71502 669.5047 L 174.23834 675.58033 L 184.76166 669.5047 L 184.76166 657.35342 L 174.23834 651.27779 Z" stroke-miterlimit="10"/><path fill="#222222" stroke="#cccccc" paint-order="fill stroke markers" d=" M 360.5 657.17245 L 361 658.03848 L 361 672.30728 L 385.71429 686.57607 L 398.07143 679.44167 L 399.07143 679.44167 L 411.92857 686.86475 L 412.42857 687.73078 L 412.42857 702.57693 L 412.42154 702.59587 L 412.42784 702.61505 L 412.39294 702.67293 L 412.18638 703.2294 L 411.99294 703.33622 L 411.92857 703.44296 L 400.57144 710 L 411.92857 716.55704 L 411.94146 716.57261 L 411.96122 716.57674 L 411.99388 716.63589 L 412.37253 717.09302 L 412.36832 717.31396 L 412.42857 717.42307 L 412.42857 732.26922 L 411.92857 733.13525 L 399.07143 740.55833 L 398.07143 740.55833 L 385.71429 733.42393 L 361 747.69272 L 361 761.96152 L 360.5 762.82755 L 347.64286 770.25063 L 346.64286 770.25063 L 333.78571 762.82755 L 333.77282 762.81198 L 333.75306 762.80785 L 333.7204 762.7487 L 333.34175 762.29157 L 333.34596 762.07063 L 333.28571 761.96152 L 333.28571 748.84743 L 321.92857 755.40448 L 321.90866 755.40786 L 321.89519 755.42291 L 321.8276 755.42162 L 321.24242 755.52097 L 321.05319 755.40686 L 320.92857 755.40448 L 308.07143 747.9814 L 307.57143 747.11537 L 307.57143 732.26922 L 307.57846 732.25028 L 307.57216 732.2311 L 307.60706 732.17322 L 307.81362 731.61675 L 308.00706 731.50993 L 308.07143 731.40319 L 320.42857 724.2688 L 320.42857 695.7312 L 308.07143 688.59681 L 307.57143 687.73078 L 307.57143 672.88463 L 308.07143 672.0186 L 320.92857 664.59552 L 320.94848 664.59214 L 320.96195 664.57709 L 321.02954 664.57838 L 321.61472 664.47903 L 321.80395 664.59314 L 321.92857 664.59552 L 333.28571 671.15257 L 333.28571 658.03848 L 333.78571 657.17245 L 346.64286 649.74937 L 347.64286 649.74937 Z M 335.28571 747.69273 L 335.28571 761.38417 L 347.14286 768.22989 L 359 761.38417 L 359 747.69272 L 347.14286 740.847 Z M 309.57143 732.84657 L 309.57143 746.53802 L 321.42857 753.38374 L 333.28571 746.53802 L 333.28571 732.84658 L 321.42857 726.00086 Z M 349.14286 739.6923 L 360 745.96066 L 370.85713 739.6923 L 360 733.42393 Z M 335.28571 745.38332 L 345.14285 739.6923 L 335.28571 734.00128 Z M 386.71429 718.00043 L 386.71429 731.69187 L 398.57143 738.53759 L 410.42857 731.69187 L 410.42857 718.00042 L 398.57143 711.15471 Z M 348.14286 725.4235 L 348.14286 737.96024 L 359 731.69187 L 359 719.15513 Z M 373.85714 725.4235 L 373.85714 737.96024 L 384.71429 731.69187 L 384.71429 719.15513 Z M 336.28572 732.26922 L 346.14286 737.96024 L 346.14286 726.5782 Z M 361 731.69187 L 371.85714 737.96024 L 371.85714 725.4235 L 361 719.15513 Z M 335.28571 718.00042 L 335.28571 730.53717 L 346.14286 724.26879 L 346.14286 711.73205 Z M 322.42857 724.2688 L 333.28571 730.53717 L 333.28571 718.00042 L 322.42857 711.73206 Z M 362.00001 717.42308 L 372.85714 723.69144 L 383.71428 717.42307 L 372.85715 711.1547 Z M 348.14286 723.11409 L 357.99999 717.42308 L 348.14286 711.73206 Z M 323.42858 710 L 334.28571 716.26836 L 345.14284 710 L 334.28571 703.73164 Z M 361 715.69102 L 370.85714 710 L 361 704.30898 Z M 386.71429 715.69102 L 396.57142 710 L 386.71429 704.30898 Z M 349.14286 710 L 359 715.69102 L 359 704.30898 Z M 374.85716 710 L 384.71429 715.69102 L 384.71429 704.30898 Z M 362.00001 702.57692 L 372.85715 708.8453 L 383.71428 702.57693 L 372.85714 696.30856 Z M 386.71429 688.30813 L 386.71429 701.99957 L 398.57143 708.84529 L 410.42857 701.99958 L 410.42857 688.30813 L 398.57143 681.46241 Z M 335.28571 701.99958 L 346.14286 708.26795 L 346.14286 695.73121 L 335.28571 689.46283 Z M 322.42857 695.7312 L 322.42857 708.26794 L 333.28571 701.99958 L 333.28571 689.46283 Z M 348.14286 708.26794 L 357.99999 702.57692 L 348.14286 696.88591 Z M 361 688.30813 L 361 700.84487 L 371.85714 694.5765 L 371.85714 682.03976 Z M 373.85714 694.5765 L 384.71429 700.84487 L 384.71429 688.30813 L 373.85714 682.03976 Z M 348.14286 694.5765 L 359 700.84487 L 359 688.30813 L 348.14286 682.03976 Z M 309.57143 673.46198 L 309.57143 687.15343 L 321.42857 693.99914 L 333.28571 687.15342 L 333.28571 673.46198 L 321.42857 666.61626 Z M 336.28572 687.73078 L 346.14286 693.4218 L 346.14286 682.03976 Z M 349.14286 680.3077 L 360 686.57607 L 370.85713 680.3077 L 360 674.03934 Z M 335.28571 685.99872 L 345.14285 680.3077 L 335.28571 674.61668 Z M 335.28571 658.61583 L 335.28571 672.30727 L 347.14286 679.153 L 359 672.30728 L 359 658.61583 L 347.14286 651.77011 Z" stroke-miterlimit="10"/><path fill="#222222" stroke="#cccccc" paint-order="fill stroke markers" d=" M 532.97743 649.33464 L 533.10205 649.33702 L 592.28568 683.5067 L 592.78568 684.37273 L 592.78568 735.62727 L 592.28568 736.4933 L 533.10205 770.66298 L 532.10205 770.66298 L 487.71432 745.03572 L 487.21432 744.16969 L 487.21432 675.83031 L 487.71432 674.96428 L 532.10205 649.33702 L 532.12196 649.33364 L 532.13543 649.31859 L 532.20302 649.31988 L 532.7882 649.22053 Z M 519.80615 761.25453 L 532.60205 768.64224 L 545.39795 761.25453 L 532.60205 753.86681 Z M 548.39795 759.52248 L 560.19385 752.71211 L 548.39795 745.90175 Z M 518.80614 759.52247 L 530.60204 752.71211 L 518.80614 745.90174 Z M 505.01024 752.71211 L 516.80614 759.52247 L 516.80614 745.90175 Z M 534.60205 752.71211 L 546.39795 759.52247 L 546.39795 745.90174 Z M 504.01023 719.11977 L 504.01023 735.04991 L 532.60205 751.5574 L 546.39795 743.59233 L 546.39795 727.6622 L 517.80613 711.15471 Z M 563.19386 750.98006 L 574.98976 744.16969 L 563.19386 737.35932 Z M 504.01023 750.98005 L 515.80613 744.16969 L 504.01023 737.35932 Z M 489.21432 743.59234 L 502.01023 750.98005 L 502.01023 736.20462 L 489.21432 728.8169 Z M 549.39796 744.16969 L 561.19386 750.98005 L 561.19386 737.35932 Z M 577.98977 727.6622 L 577.98977 742.43764 L 590.78568 735.04992 L 590.78568 720.27448 Z M 548.39795 742.43763 L 560.19385 735.62727 L 548.39795 728.8169 Z M 564.19387 735.62727 L 575.98977 742.43763 L 575.98977 728.8169 Z M 548.39795 693.49251 L 548.39795 726.50749 L 562.19386 734.47256 L 575.98977 726.50749 L 575.98977 693.49251 L 562.19386 685.52744 Z M 490.21433 727.08484 L 502.01023 733.89521 L 502.01023 720.27447 Z M 534.60205 718.54242 L 546.39795 725.35279 L 546.39795 711.73206 Z M 577.98977 725.35279 L 589.78567 718.54242 L 577.98977 711.73206 Z M 489.21432 725.35278 L 501.01022 718.54242 L 489.21432 711.73206 Z M 519.80614 710 L 531.60205 716.81037 L 531.60205 703.18963 Z M 504.01023 716.81036 L 515.80612 710 L 504.01023 703.18964 Z M 533.60205 716.81036 L 545.39794 710 L 533.60205 703.18964 Z M 578.98978 710 L 590.78568 716.81036 L 590.78568 703.18964 Z M 490.21433 710 L 502.01023 716.81036 L 502.01023 703.18964 Z M 504.01023 684.95009 L 504.01023 700.88023 L 517.80613 708.84529 L 546.39795 692.3378 L 546.39795 676.40767 L 532.60205 668.4426 Z M 489.21432 708.26794 L 501.01022 701.45758 L 489.21432 694.64722 Z M 534.60205 701.45758 L 546.39795 708.26794 L 546.39795 694.64721 Z M 577.98977 708.26794 L 589.78567 701.45758 L 577.98977 694.64721 Z M 490.21433 692.91516 L 502.01023 699.72553 L 502.01023 686.10479 Z M 577.98977 692.3378 L 590.78568 699.72552 L 590.78568 684.95008 L 577.98977 677.56236 Z M 489.21432 676.40766 L 489.21432 691.1831 L 502.01023 683.79538 L 502.01023 669.01995 Z M 548.39795 691.1831 L 560.19385 684.37273 L 548.39795 677.56237 Z M 564.19387 684.37273 L 575.98977 691.1831 L 575.98977 677.56237 Z M 504.01023 682.64068 L 515.80613 675.83031 L 504.01023 669.01995 Z M 563.19386 682.64068 L 574.98976 675.83031 L 563.19386 669.01994 Z M 549.39796 675.83031 L 561.19386 682.64068 L 561.19386 669.01995 Z M 518.80614 674.09826 L 530.60204 667.28789 L 518.80614 660.47753 Z M 534.60205 667.28789 L 546.39795 674.09826 L 546.39795 660.47753 Z M 548.39795 674.09825 L 560.19385 667.28789 L 548.39795 660.47752 Z M 505.01024 667.28789 L 516.80614 674.09825 L 516.80614 660.47753 Z M 519.80615 658.74547 L 532.60205 666.13319 L 545.39795 658.74547 L 532.60205 651.35776 Z" stroke-miterlimit="10"/><path fill="#222222" stroke="#cccccc" paint-order="fill stroke markers" d=" M 752.70433 653.1362 L 752.82895 653.13858 L 768.99343 662.47114 L 769.00632 662.48671 L 769.02608 662.49084 L 769.05874 662.54999 L 769.43739 663.00712 L 769.43318 663.22806 L 769.49343 663.33717 L 769.49343 700.66743 L 769.4864 700.68637 L 769.4927 700.70555 L 769.4578 700.76343 L 769.42773 700.84443 L 769.42413 701.03323 L 769.31052 701.1602 L 769.25124 701.3199 L 769.08597 701.41116 L 769.02834 701.47556 L 768.99343 701.53346 L 754.32896 710 L 768.99343 718.46654 L 769.05789 718.57819 L 769.27557 718.70946 L 769.46271 719.27936 L 769.49343 719.33257 L 769.49343 756.66283 L 768.99343 757.52886 L 752.82895 766.86142 L 751.82895 766.86142 L 719.5 748.19629 L 719.48711 748.18072 L 719.46735 748.17659 L 719.43469 748.11744 L 719.05604 747.66031 L 719.06025 747.43937 L 719 747.33026 L 719 730.39719 L 704.33552 738.86373 L 704.14935 738.89534 L 703.98408 738.9866 L 703.80813 738.95327 L 703.64937 738.98022 L 703.51148 738.89707 L 703.33552 738.86373 L 671.00657 720.1986 L 670.50657 719.33257 L 670.50657 700.66743 L 670.5136 700.64849 L 670.5073 700.62931 L 670.5422 700.57143 L 670.74876 700.01496 L 670.9422 699.90814 L 671.00657 699.8014 L 703.33552 681.13627 L 703.35543 681.13289 L 703.3689 681.11784 L 703.43649 681.11913 L 703.52169 681.10466 L 703.68696 681.0134 L 703.8537 681.0483 L 704.02167 681.01978 L 704.18337 681.11729 L 704.26788 681.13498 L 704.33552 681.13627 L 719 689.60281 L 719 672.66974 L 719.00703 672.6508 L 719.00073 672.63162 L 719.03563 672.57374 L 719.24219 672.01727 L 719.43563 671.91045 L 719.5 671.80371 L 751.82895 653.13858 L 751.84886 653.1352 L 751.86233 653.12015 L 751.92992 653.12144 L 752.5151 653.02209 Z M 738.16449 756.66283 L 752.32895 764.84068 L 767.49343 756.08547 L 767.49343 739.72976 Z M 737.16448 754.93077 L 750.32895 747.33026 L 737.16448 739.72975 Z M 722.00001 747.33026 L 735.16448 754.93077 L 735.16448 739.72975 Z M 753.32895 745.59821 L 766.49342 737.9977 L 753.32895 730.39719 Z M 721 745.5982 L 734.16447 737.9977 L 721 730.39719 Z M 738.16449 737.9977 L 751.32895 745.5982 L 751.32895 730.39719 Z M 704.83552 736.26564 L 717.99999 728.66513 L 704.83552 721.06462 Z M 737.16448 736.26564 L 750.32895 728.66513 L 737.16448 721.06462 Z M 754.32896 728.66513 L 767.49343 736.26564 L 767.49343 721.06463 Z M 689.67105 728.66513 L 702.83552 736.26564 L 702.83552 721.06462 Z M 722.00001 728.66513 L 735.16448 736.26564 L 735.16448 721.06462 Z M 721 726.93308 L 734.16447 719.33257 L 721 711.73206 Z M 753.32895 726.93308 L 766.49342 719.33257 L 753.32895 711.73206 Z M 672.50657 701.24478 L 672.50657 718.75522 L 686.67105 726.93308 L 686.67105 693.06692 Z M 738.16448 719.33257 L 751.32895 726.93308 L 751.32895 711.73205 Z M 688.67105 726.93307 L 701.83552 719.33256 L 688.67105 711.73206 Z M 705.83553 719.33256 L 719 726.93307 L 719 711.73205 Z M 704.83552 717.60051 L 717.99999 710 L 704.83552 702.39949 Z M 737.16448 717.60051 L 750.32894 710 L 737.16448 702.39949 Z M 689.67106 710 L 702.83552 717.60051 L 702.83552 702.39949 Z M 722.00001 710 L 735.16448 717.60051 L 735.16448 702.39949 Z M 705.83553 700.66744 L 719 708.26795 L 719 693.06693 Z M 738.16448 700.66743 L 751.32895 708.26795 L 751.32895 693.06692 Z M 688.67105 708.26794 L 701.83552 700.66744 L 688.67105 693.06693 Z M 721 708.26794 L 734.16447 700.66743 L 721 693.06692 Z M 753.32895 708.26794 L 766.49342 700.66743 L 753.32895 693.06692 Z M 704.83552 698.93538 L 717.99999 691.33487 L 704.83552 683.73436 Z M 737.16448 698.93538 L 750.32895 691.33487 L 737.16448 683.73436 Z M 689.67105 691.33487 L 702.83552 698.93538 L 702.83552 683.73436 Z M 722.00001 691.33487 L 735.16448 698.93538 L 735.16448 683.73436 Z M 754.32896 691.33487 L 767.49343 698.93537 L 767.49343 683.73436 Z M 721 689.60281 L 734.16447 682.0023 L 721 674.4018 Z M 753.32895 689.60281 L 766.49342 682.0023 L 753.32895 674.40179 Z M 738.16449 682.0023 L 751.32895 689.60281 L 751.32895 674.4018 Z M 737.16448 680.27025 L 750.32895 672.66974 L 737.16448 665.06923 Z M 722.00001 672.66974 L 735.16448 680.27025 L 735.16448 665.06923 Z M 738.16449 663.33717 L 767.49343 680.27024 L 767.49343 663.91453 L 752.32895 655.15932 Z" stroke-miterlimit="10"/><path fill="#222222" stroke="#cccccc" paint-order="fill stroke markers" d=" M 188.08224 842.18247 L 203.74672 833.13858 L 204.74672 833.13858 L 220.91119 842.47114 L 220.92408 842.48671 L 220.94384 842.49084 L 220.9765 842.54999 L 221.35515 843.00712 L 221.35094 843.22806 L 221.41119 843.33717 L 221.41119 861.42495 L 237.07567 870.46884 L 237.57567 871.33487 L 237.57567 908.66513 L 237.56864 908.68407 L 237.57494 908.70325 L 237.54004 908.76113 L 237.33348 909.3176 L 237.14004 909.42442 L 237.07567 909.53116 L 221.41119 918.57505 L 221.41119 936.66283 L 221.40416 936.68177 L 221.41046 936.70095 L 221.37556 936.75883 L 221.169 937.3153 L 220.97556 937.42212 L 220.91119 937.52886 L 204.74672 946.86142 L 203.74672 946.86142 L 188.08224 937.81753 L 172.41776 946.86142 L 171.41776 946.86142 L 139.08881 928.19629 L 138.58881 927.33026 L 138.58881 909.24249 L 122.92433 900.1986 L 122.42433 899.33257 L 122.42433 880.66743 L 122.92433 879.8014 L 138.58881 870.75751 L 138.58881 852.66974 L 139.08881 851.80371 L 171.41776 833.13858 L 172.41776 833.13858 Z M 157.75329 936.66283 L 171.91776 944.84068 L 186.08223 936.66282 L 171.91776 928.48497 Z M 190.08225 936.66282 L 204.24672 944.84068 L 219.41119 936.08548 L 219.41119 919.72975 Z M 156.75328 934.93077 L 169.91775 927.33026 L 156.75328 919.72975 Z M 189.08224 934.93077 L 202.24671 927.33026 L 189.08224 919.72975 Z M 140.58881 926.75291 L 154.75328 934.93077 L 154.75328 918.57505 L 140.58881 910.39719 Z M 173.91777 927.33026 L 187.08224 934.93077 L 187.08224 919.72975 Z M 172.91776 909.24249 L 172.91776 925.59821 L 187.08224 917.42034 L 187.08224 901.06462 Z M 190.08224 917.9977 L 203.24672 925.59821 L 203.24672 910.39718 Z M 205.24672 925.5982 L 218.41118 917.9977 L 205.24672 910.39719 Z M 157.75329 917.9977 L 170.91776 925.5982 L 170.91776 910.39719 Z M 156.75328 899.90992 L 156.75328 916.26564 L 170.91776 908.08778 L 170.91776 891.73206 Z M 189.08224 916.26564 L 202.2467 908.66513 L 189.08224 901.06463 Z M 221.41119 899.90992 L 221.41119 916.26564 L 235.57567 908.08778 L 235.57567 891.73206 Z M 141.58881 908.66513 L 154.75328 916.26564 L 154.75328 901.06462 Z M 206.24672 908.66513 L 219.41119 916.26564 L 219.41119 901.06462 Z M 190.08224 899.33257 L 204.24671 907.51043 L 218.41118 899.33257 L 204.24671 891.15471 Z M 172.91776 906.93308 L 202.2467 890 L 172.91776 873.06692 Z M 124.42433 881.24478 L 124.42433 898.75522 L 138.58881 906.93308 L 138.58881 873.06692 Z M 140.58881 906.93307 L 153.75327 899.33257 L 140.58881 891.73206 Z M 156.75328 897.60051 L 169.91775 890 L 156.75328 882.39949 Z M 221.41119 897.60051 L 234.57566 890 L 221.41119 882.39949 Z M 141.58882 890 L 154.75328 897.60051 L 154.75328 882.39949 Z M 206.24672 890 L 219.41119 897.60051 L 219.41119 882.39949 Z M 190.08224 880.66743 L 204.24671 888.84529 L 218.41118 880.66743 L 204.24671 872.48957 Z M 140.58881 888.26794 L 153.75327 880.66743 L 140.58881 873.06693 Z M 156.75328 880.09008 L 170.91776 888.26794 L 170.91776 871.91222 L 156.75328 863.73436 Z M 221.41119 880.09008 L 235.57567 888.26794 L 235.57567 871.91222 L 221.41119 863.73436 Z M 141.58881 871.33487 L 154.75328 878.93538 L 154.75328 863.73436 Z M 206.24672 871.33487 L 219.41119 878.93538 L 219.41119 863.73436 Z M 172.91776 870.75751 L 187.08224 878.93538 L 187.08224 862.57966 L 172.91776 854.40179 Z M 189.08224 878.93537 L 202.2467 871.33487 L 189.08224 863.73436 Z M 190.08224 862.0023 L 203.24672 869.60282 L 203.24672 854.40179 Z M 140.58881 853.24709 L 140.58881 869.60281 L 154.75328 861.42495 L 154.75328 845.06923 Z M 157.75329 862.0023 L 170.91776 869.60281 L 170.91776 854.4018 Z M 205.24672 869.60281 L 218.41118 862.0023 L 205.24672 854.4018 Z M 156.75328 860.27025 L 169.91775 852.66974 L 156.75328 845.06923 Z M 189.08224 860.27025 L 202.24671 852.66974 L 189.08224 845.06923 Z M 190.08225 843.33718 L 219.41119 860.27025 L 219.41119 843.91452 L 204.24672 835.15932 Z M 173.91777 852.66974 L 187.08224 860.27025 L 187.08224 845.06923 Z M 157.75329 843.33717 L 171.91776 851.51503 L 186.08223 843.33718 L 171.91776 835.15932 Z" stroke-miterlimit="10"/><path fill="#222222" stroke="#cccccc" paint-order="fill stroke markers" d=" M 373.72487 841.30094 L 386.94974 833.66556 L 387.94974 833.66556 L 401.67461 841.58962 L 402.17461 842.45565 L 402.17461 857.72642 L 415.39949 865.3618 L 415.89949 866.22783 L 415.89949 882.07594 L 415.39949 882.94197 L 403.17462 890 L 415.39949 897.05803 L 415.89949 897.92406 L 415.89949 913.77217 L 415.39949 914.6382 L 402.17461 922.27358 L 402.17461 937.54435 L 401.67461 938.41038 L 387.94974 946.33444 L 386.94974 946.33444 L 373.72487 938.69906 L 360.5 946.33444 L 359.5 946.33444 L 345.77513 938.41038 L 345.27513 937.54435 L 345.27513 923.42829 L 333.05026 930.48632 L 332.05026 930.48632 L 318.32539 922.56226 L 317.82539 921.69623 L 317.82539 906.42547 L 304.60051 898.79009 L 304.10051 897.92406 L 304.10051 882.07594 L 304.60051 881.20991 L 317.82539 873.57453 L 317.82539 858.30377 L 318.32539 857.43774 L 332.05026 849.51368 L 333.05026 849.51368 L 345.27513 856.57171 L 345.27513 842.45565 L 345.77513 841.58962 L 359.5 833.66556 L 360.5 833.66556 Z M 360.5 930.48632 L 359.5 930.48632 L 347.27513 923.42829 L 347.27513 936.967 L 360 944.3137 L 372.72487 936.967 L 372.72487 923.42829 Z M 388.44974 929.62029 L 388.38404 929.79729 L 388.38044 929.98609 L 388.26683 930.11306 L 388.20755 930.27276 L 388.04228 930.36402 L 387.91636 930.50475 L 387.79174 930.50237 L 387.5983 930.60919 L 387.01738 930.48761 L 386.94974 930.48632 L 374.72487 923.42829 L 374.72487 936.967 L 387.44974 944.3137 L 400.17461 936.967 L 400.17461 922.27358 L 388.44974 915.50423 Z M 319.82539 906.42547 L 319.82539 921.11888 L 332.55026 928.46558 L 344.27512 921.69623 L 332.05026 914.6382 L 331.55026 913.77217 L 331.55026 899.65612 Z M 333.55026 913.19482 L 360 928.46558 L 371.72486 921.69623 L 333.55026 899.65611 Z M 374.72487 921.11888 L 386.44974 927.88823 L 386.44974 914.34953 L 374.72487 907.58018 Z M 402.17461 905.84812 L 401.67461 906.71415 L 389.44974 913.77217 L 401.17461 920.54152 L 413.89949 913.19482 L 413.89949 898.50141 L 402.17461 891.73206 Z M 362 913.77217 L 372.72487 919.96418 L 372.72487 907.58017 Z M 388.44974 912.04012 L 400.17461 905.27076 L 400.17461 874.72924 L 388.44974 867.95988 Z M 348.27514 905.84812 L 359 912.04012 L 359 899.65612 Z M 375.72487 905.84812 L 386.44974 912.04012 L 386.44974 899.65612 Z M 361 898.50141 L 361 912.04011 L 385.44973 897.92406 L 373.72487 891.15471 Z M 306.10051 882.65329 L 306.10051 897.34671 L 318.82539 904.69341 L 330.55025 897.92406 L 318.32539 890.86603 L 317.88143 890.33005 L 317.89469 889.6342 L 318.32539 889.13397 L 330.55025 882.07594 L 318.82539 875.30659 Z M 347.27513 904.11606 L 359 897.34671 L 359 882.65329 L 347.27513 875.88394 Z M 334.55027 897.92406 L 345.27513 904.11606 L 345.27513 891.73206 Z M 320.8254 890 L 332.55026 896.76935 L 344.27512 890 L 332.55026 883.23065 Z M 361 896.192 L 371.72486 890 L 361 883.808 Z M 375.72488 890 L 386.44974 896.192 L 386.44974 883.808 Z M 361 881.49859 L 373.72487 888.84529 L 385.44973 882.07594 L 361 867.95989 Z M 334.55027 882.07594 L 345.27513 888.26794 L 345.27513 875.88394 Z M 389.44974 866.22783 L 401.67461 873.28585 L 402.17461 874.15188 L 402.17461 888.26794 L 413.89949 881.49859 L 413.89949 866.80518 L 401.17461 859.45848 Z M 333.55026 866.80518 L 333.55026 880.34389 L 371.72486 858.30377 L 360 851.53442 Z M 348.27514 874.15188 L 359 880.34388 L 359 867.95988 Z M 375.72487 874.15188 L 386.44974 880.34388 L 386.44974 867.95988 Z M 319.82539 858.88112 L 319.82539 873.57453 L 331.55026 880.34388 L 331.55026 866.22783 L 332.05026 865.3618 L 344.27512 858.30377 L 332.55026 851.53442 Z M 362 866.22783 L 372.72487 872.41983 L 372.72487 860.03582 Z M 374.72487 858.88112 L 374.72487 872.41982 L 386.44974 865.65047 L 386.44974 852.11177 Z M 374.72487 843.033 L 374.72487 856.57171 L 386.94974 849.51368 L 387.13591 849.48207 L 387.30118 849.39081 L 387.46792 849.42571 L 387.63589 849.39719 L 387.79759 849.4947 L 387.98239 849.53338 L 388.04263 849.64248 L 388.23188 849.7566 L 388.41706 850.32053 L 388.44974 850.37971 L 388.44974 864.49577 L 400.17461 857.72642 L 400.17461 843.033 L 387.44974 835.6863 Z M 347.27513 843.033 L 347.27513 856.57171 L 359.5 849.51368 L 359.51991 849.5103 L 359.53338 849.49525 L 359.60097 849.49654 L 360.18615 849.39719 L 360.37538 849.5113 L 360.5 849.51368 L 372.72487 856.57171 L 372.72487 843.033 L 360 835.6863 Z" stroke-miterlimit="10"/><path fill="#222222" stroke="#cccccc" paint-order="fill stroke markers" d=" M 527.64286 829.74937 L 540.5 837.17245 L 541 838.03848 L 541 867.15343 L 552.85714 873.99914 L 578.07143 859.44167 L 579.07143 859.44167 L 591.92857 866.86475 L 592.37253 867.40073 L 592.35927 868.09658 L 591.92857 868.59681 L 579.57143 875.7312 L 579.57143 904.2688 L 591.92857 911.40319 L 592.04902 911.5486 L 592.21071 911.64611 L 592.26386 911.80798 L 592.37253 911.93917 L 592.36893 912.12795 L 592.42784 912.30734 L 592.36348 912.41406 L 592.35927 912.63502 L 591.96348 913.07735 L 591.92857 913.13525 L 579.07143 920.55833 L 578.07143 920.55833 L 552.85714 906.00086 L 541 912.84657 L 541 941.96152 L 540.5 942.82755 L 527.64286 950.25063 L 526.95671 950.36712 L 526.36072 950.00771 L 526.14286 949.3846 L 526.14286 935.1158 L 501.42857 920.84701 L 489.07143 927.9814 L 488.38528 928.09789 L 487.78929 927.73848 L 487.57143 927.11537 L 487.57143 912.26922 L 487.57846 912.25028 L 487.57216 912.2311 L 487.60706 912.17322 L 487.81362 911.61675 L 488.00706 911.50993 L 488.07143 911.40319 L 513.28571 896.84572 L 513.28571 883.15428 L 488.07143 868.59681 L 487.57143 867.73078 L 487.57143 852.88463 L 487.81362 852.23216 L 488.42287 851.89573 L 489.07143 852.0186 L 501.42857 859.15299 L 526.14286 844.8842 L 526.14286 830.6154 L 526.38505 829.96293 L 526.9943 829.6265 Z M 528.14286 935.1158 L 528.14286 947.65254 L 539 941.38417 L 539 928.84743 Z M 516.28572 927.11537 L 527.14286 933.38374 L 537.99999 927.11537 L 527.14286 920.847 Z M 515.28571 912.84658 L 515.28571 925.38332 L 526.14286 919.11494 L 526.14286 906.5782 Z M 502.42857 919.11495 L 513.28571 925.38332 L 513.28571 912.84657 L 502.42857 906.57821 Z M 489.57143 912.84657 L 489.57143 925.38331 L 500.42857 919.11495 L 500.42857 906.5782 Z M 528.14286 919.11495 L 539 925.38331 L 539 912.84657 L 528.14286 906.5782 Z M 567.71429 912.26922 L 578.57143 918.53759 L 589.42856 912.26922 L 578.57143 906.00086 Z M 503.42857 904.84615 L 514.28571 911.11452 L 525.14285 904.84615 L 514.28571 898.57778 Z M 515.28571 883.15428 L 515.28571 896.84572 L 540 911.11451 L 551.85714 904.2688 L 551.85714 875.7312 L 540 868.88549 Z M 553.85714 904.2688 L 564.71429 910.53717 L 564.71429 898.00043 L 553.85714 891.73205 Z M 566.71429 898.00042 L 566.71429 910.53716 L 577.57143 904.2688 L 577.57143 891.73206 Z M 554.85715 890 L 565.71429 896.26837 L 576.57142 890 L 565.71429 883.73163 Z M 553.85714 875.7312 L 553.85714 888.26795 L 564.71429 881.99957 L 564.71429 869.46283 Z M 566.71429 881.99958 L 577.57143 888.26794 L 577.57143 875.7312 L 566.71429 869.46284 Z M 503.42857 875.15385 L 514.28571 881.42222 L 525.14285 875.15385 L 514.28571 868.88548 Z M 567.71429 867.73078 L 578.57143 873.99914 L 589.42856 867.73078 L 578.57143 861.46241 Z M 528.14286 860.88505 L 528.14286 873.4218 L 539 867.15343 L 539 854.61669 Z M 489.57143 867.15343 L 500.42857 873.4218 L 500.42857 860.88505 L 489.57143 854.61669 Z M 515.28571 867.15342 L 526.14286 873.4218 L 526.14286 860.88506 L 515.28571 854.61668 Z M 502.42857 860.88505 L 502.42857 873.42179 L 513.28571 867.15343 L 513.28571 854.61668 Z M 516.28572 852.88463 L 527.14286 859.153 L 537.99999 852.88463 L 527.14286 846.61626 Z M 528.14286 844.8842 L 539 851.15257 L 539 838.61583 L 528.14286 832.34746 Z" stroke-miterlimit="10"/><path fill="#222222" stroke="#cccccc" paint-order="fill stroke markers" d=" M 733.63928 829.99229 L 733.85714 830.6154 L 733.85714 844.8842 L 758.57143 859.15299 L 770.92857 852.0186 L 771.61472 851.90211 L 772.21071 852.26152 L 772.42857 852.88463 L 772.42857 867.73078 L 772.42154 867.74972 L 772.42784 867.7689 L 772.39294 867.82678 L 772.18638 868.38325 L 771.99294 868.49007 L 771.92857 868.59681 L 760.57144 875.15386 L 771.92857 881.7109 L 771.94146 881.72647 L 771.96122 881.7306 L 771.99388 881.78975 L 772.37253 882.24688 L 772.36832 882.46782 L 772.42857 882.57693 L 772.42857 897.42307 L 771.92857 898.2891 L 760.57144 904.84615 L 771.92857 911.40319 L 772.42857 912.26922 L 772.42857 927.11537 L 772.36287 927.29237 L 772.35927 927.48117 L 772.24566 927.60814 L 772.18638 927.76784 L 772.02111 927.8591 L 771.89519 927.99983 L 771.77057 927.99745 L 771.57713 928.10427 L 770.99621 927.98269 L 770.92857 927.9814 L 758.57143 920.84701 L 733.85714 935.1158 L 733.85714 949.3846 L 733.61495 950.03707 L 733.0057 950.3735 L 732.35714 950.25063 L 719.5 942.82755 L 719.48711 942.81198 L 719.46735 942.80785 L 719.43469 942.7487 L 719.05604 942.29157 L 719.06025 942.07063 L 719 941.96152 L 719 928.84743 L 707.64286 935.40448 L 707.62295 935.40786 L 707.60948 935.42291 L 707.54189 935.42162 L 706.95671 935.52097 L 706.76748 935.40686 L 706.64286 935.40448 L 693.78571 927.9814 L 693.77282 927.96583 L 693.75306 927.9617 L 693.7204 927.90255 L 693.34175 927.44542 L 693.34596 927.22448 L 693.28571 927.11537 L 693.28571 914.00128 L 681.92857 920.55833 L 680.92857 920.55833 L 668.07143 913.13525 L 667.62747 912.59927 L 667.64073 911.90342 L 668.07143 911.40319 L 680.42857 904.2688 L 680.42857 875.7312 L 668.07143 868.59681 L 667.62747 868.06083 L 667.64073 867.36498 L 668.07143 866.86475 L 680.92857 859.44167 L 680.94848 859.43829 L 680.96195 859.42324 L 681.02954 859.42453 L 681.61472 859.32518 L 681.80395 859.43929 L 681.92857 859.44167 L 693.28571 865.99872 L 693.28571 852.88463 L 693.78571 852.0186 L 706.64286 844.59552 L 707.64286 844.59552 L 719 851.15257 L 719 838.03848 L 719.5 837.17245 L 732.35714 829.74937 L 733.04329 829.63288 Z M 721 941.38417 L 731.85714 947.65254 L 731.85714 935.1158 L 721 928.84743 Z M 695.28571 912.84658 L 695.28571 926.53802 L 707.14286 933.38374 L 719 926.53802 L 719 912.84657 L 707.14286 906.00086 Z M 722.00001 927.11537 L 732.85714 933.38374 L 743.71428 927.11537 L 732.85714 920.847 Z M 721 912.84657 L 721 925.38332 L 731.85714 919.11495 L 731.85714 906.5782 Z M 746.71429 912.84657 L 746.71429 925.38332 L 757.57143 919.11495 L 757.57143 906.5782 Z M 733.85714 919.11494 L 744.71429 925.38332 L 744.71429 912.84658 L 733.85714 906.5782 Z M 759.57143 919.11495 L 770.42857 925.38331 L 770.42857 912.84657 L 759.57143 906.5782 Z M 670.57144 912.26922 L 681.42857 918.53759 L 692.28571 912.26922 L 681.42857 906.00086 Z M 734.85715 904.84615 L 745.71429 911.11452 L 756.57142 904.84615 L 745.71429 898.57778 Z M 708.14286 875.7312 L 708.14286 904.2688 L 720 911.11451 L 744.71429 896.84572 L 744.71429 883.15428 L 720 868.88549 Z M 695.28571 898.00043 L 695.28571 910.53717 L 706.14286 904.2688 L 706.14286 891.73205 Z M 682.42857 904.2688 L 693.28571 910.53716 L 693.28571 898.00042 L 682.42857 891.73206 Z M 746.71429 883.15428 L 746.71429 896.84572 L 758.57143 903.69144 L 770.42857 896.84572 L 770.42857 883.15428 L 758.57143 876.30856 Z M 683.42858 890 L 694.28571 896.26837 L 705.14285 890 L 694.28571 883.73163 Z M 695.28571 881.99957 L 706.14286 888.26795 L 706.14286 875.7312 L 695.28571 869.46283 Z M 682.42857 875.7312 L 682.42857 888.26794 L 693.28571 881.99958 L 693.28571 869.46284 Z M 734.85715 875.15385 L 745.71429 881.42222 L 756.57142 875.15386 L 745.71429 868.88548 Z M 670.57144 867.73078 L 681.42857 873.99914 L 692.28571 867.73078 L 681.42857 861.46241 Z M 695.28571 853.46198 L 695.28571 867.15342 L 707.14286 873.99914 L 719 867.15343 L 719 853.46198 L 707.14286 846.61626 Z M 733.85714 860.88506 L 733.85714 873.4218 L 744.71429 867.15342 L 744.71429 854.61668 Z M 759.57143 860.88505 L 759.57143 873.4218 L 770.42857 867.15343 L 770.42857 854.61669 Z M 721 867.15343 L 731.85714 873.4218 L 731.85714 860.88505 L 721 854.61668 Z M 746.71429 867.15343 L 757.57143 873.4218 L 757.57143 860.88505 L 746.71429 854.61668 Z M 722.00001 852.88463 L 732.85714 859.153 L 743.71428 852.88463 L 732.85714 846.61626 Z M 721 838.61583 L 721 851.15257 L 731.85714 844.8842 L 731.85714 832.34746 Z" stroke-miterlimit="10"/><path fill="#222222" stroke="#cccccc" paint-order="fill stroke markers" d=" M 171.91776 1022.18247 L 187.58224 1013.13858 L 188.58224 1013.13858 L 220.91119 1031.80371 L 221.41119 1032.66974 L 221.41119 1050.75751 L 237.07567 1059.8014 L 237.57567 1060.66743 L 237.57567 1079.33257 L 237.56864 1079.35151 L 237.57494 1079.37069 L 237.54004 1079.42857 L 237.33348 1079.98504 L 237.14004 1080.09186 L 237.07567 1080.1986 L 221.41119 1089.24249 L 221.41119 1107.33026 L 220.91119 1108.19629 L 188.58224 1126.86142 L 188.56233 1126.8648 L 188.54886 1126.87985 L 188.48127 1126.87856 L 187.89609 1126.97791 L 187.70686 1126.8638 L 187.58224 1126.86142 L 171.91776 1117.81753 L 156.25328 1126.86142 L 155.25328 1126.86142 L 139.08881 1117.52886 L 138.58881 1116.66283 L 138.58881 1098.57505 L 122.92433 1089.53116 L 122.42433 1088.66513 L 122.42433 1051.33487 L 122.92433 1050.46884 L 138.58881 1041.42495 L 138.58881 1023.33717 L 139.08881 1022.47114 L 155.25328 1013.13858 L 156.25328 1013.13858 Z M 140.58881 1116.08548 L 155.75328 1124.84068 L 169.91775 1116.66282 L 140.58881 1099.72975 Z M 173.91777 1116.66282 L 188.08224 1124.84068 L 202.24671 1116.66283 L 188.08224 1108.48497 Z M 172.91776 1114.93077 L 186.08223 1107.33026 L 172.91776 1099.72975 Z M 205.24672 1098.57505 L 205.24672 1114.93077 L 219.41119 1106.75291 L 219.41119 1090.39719 Z M 157.75329 1107.33026 L 170.91776 1114.93077 L 170.91776 1099.72975 Z M 190.08225 1107.33026 L 203.24672 1114.93077 L 203.24672 1099.72975 Z M 173.91777 1097.99769 L 188.08224 1106.17556 L 203.24672 1097.42034 L 203.24672 1081.06462 Z M 156.75328 1105.5982 L 169.91775 1097.99769 L 156.75328 1090.39718 Z M 141.58882 1097.9977 L 154.75328 1105.5982 L 154.75328 1090.39719 Z M 156.75328 1088.08777 L 171.91776 1096.84299 L 186.08223 1088.66513 L 156.75328 1071.73206 Z M 140.58881 1096.26564 L 153.75327 1088.66513 L 140.58881 1081.06462 Z M 205.24672 1096.26564 L 218.41119 1088.66513 L 205.24672 1081.06463 Z M 124.42433 1088.08778 L 138.58881 1096.26564 L 138.58881 1079.90992 L 124.42433 1071.73206 Z M 221.41119 1086.93308 L 235.57567 1078.75522 L 235.57567 1061.24478 L 221.41119 1053.06692 Z M 140.58881 1061.24479 L 140.58881 1078.75521 L 154.75328 1086.93307 L 154.75328 1053.06693 Z M 189.08224 1086.93307 L 203.24672 1078.75521 L 203.24672 1061.24479 L 189.08224 1053.06693 Z M 173.91777 1079.33257 L 187.08224 1086.93307 L 187.08224 1071.73206 Z M 206.24672 1079.33257 L 219.41119 1086.93307 L 219.41119 1071.73206 Z M 125.42434 1070 L 138.58881 1077.60051 L 138.58881 1062.39949 Z M 172.91776 1077.60051 L 186.08223 1070 L 172.91776 1062.39949 Z M 205.24672 1077.60051 L 218.41118 1070 L 205.24672 1062.39949 Z M 157.75329 1070 L 170.91776 1077.60051 L 170.91776 1062.39949 Z M 124.42433 1051.91222 L 124.42433 1068.26794 L 138.58881 1060.09008 L 138.58881 1043.73436 Z M 156.75328 1051.91223 L 156.75328 1068.26794 L 186.08223 1051.33487 L 171.91776 1043.15701 Z M 173.91777 1060.66743 L 187.08224 1068.26794 L 187.08224 1053.06693 Z M 206.24672 1060.66743 L 219.41119 1068.26794 L 219.41119 1053.06693 Z M 140.58881 1058.93538 L 153.75327 1051.33487 L 140.58881 1043.73436 Z M 173.91777 1042.00231 L 203.24672 1058.93538 L 203.24672 1042.57966 L 188.08224 1033.82444 Z M 205.24672 1058.93537 L 218.41119 1051.33487 L 205.24672 1043.73436 Z M 156.75328 1049.60282 L 169.91775 1042.00231 L 156.75328 1034.4018 Z M 205.24672 1041.42495 L 219.41119 1049.60281 L 219.41119 1033.24709 L 205.24672 1025.06923 Z M 141.58882 1042.0023 L 154.75328 1049.60281 L 154.75328 1034.4018 Z M 140.58881 1023.91452 L 140.58881 1040.27025 L 169.91775 1023.33718 L 155.75328 1015.15932 Z M 172.91776 1040.27025 L 186.08223 1032.66974 L 172.91776 1025.06923 Z M 190.08225 1032.66974 L 203.24672 1040.27025 L 203.24672 1025.06923 Z M 157.75329 1032.66974 L 170.91776 1040.27025 L 170.91776 1025.06923 Z M 173.91777 1023.33718 L 188.08224 1031.51503 L 202.24671 1023.33717 L 188.08224 1015.15932 Z" stroke-miterlimit="10"/><path fill="#222222" stroke="#cccccc" paint-order="fill stroke markers" d=" M 346.27513 1021.30094 L 359.5 1013.66556 L 360.5 1013.66556 L 374.22487 1021.58962 L 374.23776 1021.60519 L 374.25752 1021.60932 L 374.29018 1021.66847 L 374.66883 1022.1256 L 374.66462 1022.34654 L 374.72487 1022.45565 L 374.72487 1036.57171 L 386.94974 1029.51368 L 386.96965 1029.5103 L 386.98312 1029.49525 L 387.05071 1029.49654 L 387.63589 1029.39719 L 387.82512 1029.5113 L 387.94974 1029.51368 L 401.67461 1037.43774 L 402.17461 1038.30377 L 402.17461 1053.57453 L 415.39949 1061.20991 L 415.89949 1062.07594 L 415.89949 1077.92406 L 415.39949 1078.79009 L 402.17461 1086.42547 L 402.17461 1101.69623 L 401.67461 1102.56226 L 387.94974 1110.48632 L 386.94974 1110.48632 L 374.72487 1103.42829 L 374.72487 1117.54435 L 374.71784 1117.56329 L 374.72414 1117.58247 L 374.68924 1117.64035 L 374.48268 1118.19682 L 374.28924 1118.30364 L 374.22487 1118.41038 L 360.5 1126.33444 L 359.5 1126.33444 L 346.27513 1118.69906 L 333.05026 1126.33444 L 332.05026 1126.33444 L 318.32539 1118.41038 L 317.82539 1117.54435 L 317.82539 1102.27358 L 304.60051 1094.6382 L 304.10051 1093.77217 L 304.10051 1077.92406 L 304.10754 1077.90512 L 304.10124 1077.88594 L 304.13614 1077.82806 L 304.3427 1077.27159 L 304.53614 1077.16477 L 304.60051 1077.05803 L 316.82538 1070 L 304.60051 1062.94197 L 304.10051 1062.07594 L 304.10051 1046.22783 L 304.60051 1045.3618 L 317.82539 1037.72642 L 317.82539 1022.45565 L 318.32539 1021.58962 L 332.05026 1013.66556 L 333.05026 1013.66556 Z M 319.82539 1102.27358 L 319.82539 1116.967 L 332.55026 1124.3137 L 345.27513 1116.967 L 345.27513 1102.27358 L 332.55026 1094.92688 Z M 347.27513 1102.27358 L 347.27513 1116.967 L 360 1124.3137 L 372.72487 1116.967 L 372.72487 1102.27359 L 360 1094.92688 Z M 374.72487 1086.42547 L 374.72487 1101.11888 L 387.44974 1108.46558 L 400.17461 1101.11888 L 400.17461 1086.42547 L 387.44974 1079.07877 Z M 306.10051 1078.50141 L 306.10051 1093.19482 L 318.82539 1100.54152 L 331.55026 1093.19482 L 331.55026 1078.50142 L 318.82538 1071.15471 Z M 333.55026 1093.19482 L 346.27513 1100.54152 L 357.99999 1093.77217 L 333.55026 1079.65612 Z M 361 1093.19482 L 372.72487 1099.96418 L 372.72487 1086.42547 L 361 1079.65612 Z M 348.27514 1085.84812 L 359 1092.04012 L 359 1079.65612 Z M 388.44974 1062.65329 L 388.44974 1077.34671 L 401.17461 1084.69341 L 413.89949 1077.34671 L 413.89949 1062.65329 L 401.17461 1055.30659 Z M 347.27513 1084.11606 L 357.99999 1077.92406 L 347.27513 1071.73206 Z M 374.72487 1084.11606 L 386.44974 1077.34671 L 386.44974 1062.65329 L 374.72487 1055.88394 Z M 334.55027 1077.92406 L 345.27513 1084.11606 L 345.27513 1071.73206 Z M 362.00001 1077.92406 L 372.72487 1084.11606 L 372.72487 1071.73206 Z M 320.82539 1070 L 332.55026 1076.76936 L 344.27512 1070 L 332.55026 1063.23064 Z M 361 1076.192 L 371.72486 1070 L 361 1063.808 Z M 348.27514 1070 L 359 1076.192 L 359 1063.808 Z M 306.10051 1046.80518 L 306.10051 1061.49859 L 318.82538 1068.84529 L 331.55026 1061.49858 L 331.55026 1046.80518 L 318.82539 1039.45848 Z M 347.27513 1068.26794 L 357.99999 1062.07594 L 347.27513 1055.88394 Z M 362.00001 1062.07594 L 372.72487 1068.26794 L 372.72487 1055.88394 Z M 334.55027 1062.07594 L 345.27513 1068.26794 L 345.27513 1055.88394 Z M 374.72487 1038.88112 L 374.72487 1053.57453 L 387.44974 1060.92123 L 400.17461 1053.57453 L 400.17461 1038.88112 L 387.44974 1031.53442 Z M 333.55026 1046.80518 L 333.55026 1060.34388 L 357.99999 1046.22783 L 346.27513 1039.45848 Z M 361 1046.80518 L 361 1060.34388 L 372.72487 1053.57453 L 372.72487 1040.03582 Z M 348.27514 1054.15188 L 359 1060.34388 L 359 1047.95988 Z M 319.82539 1023.033 L 319.82539 1037.72642 L 332.55026 1045.07312 L 345.27513 1037.72642 L 345.27513 1023.033 L 332.55026 1015.6863 Z M 347.27513 1023.033 L 347.27513 1037.72642 L 360 1045.07312 L 372.72487 1037.72641 L 372.72487 1023.033 L 360 1015.6863 Z" stroke-miterlimit="10"/><path fill="#222222" stroke="#cccccc" paint-order="fill stroke markers" d=" M 572.70433 1013.1362 L 572.82895 1013.13858 L 588.99343 1022.47114 L 589.00632 1022.48671 L 589.02608 1022.49084 L 589.05874 1022.54999 L 589.43739 1023.00712 L 589.43318 1023.22806 L 589.49343 1023.33717 L 589.49343 1116.66283 L 589.4864 1116.68177 L 589.4927 1116.70095 L 589.4578 1116.75883 L 589.25124 1117.3153 L 589.0578 1117.42212 L 588.99343 1117.52886 L 572.82895 1126.86142 L 572.80904 1126.8648 L 572.79557 1126.87985 L 572.72798 1126.87856 L 572.1428 1126.97791 L 571.95357 1126.8638 L 571.82895 1126.86142 L 491.00657 1080.1986 L 490.99368 1080.18303 L 490.97392 1080.1789 L 490.94126 1080.11975 L 490.56261 1079.66262 L 490.56682 1079.44168 L 490.50657 1079.33257 L 490.50657 1060.66743 L 490.5136 1060.64849 L 490.5073 1060.62931 L 490.5422 1060.57143 L 490.74876 1060.01496 L 490.9422 1059.90814 L 491.00657 1059.8014 L 571.82895 1013.13858 L 571.84886 1013.1352 L 571.86233 1013.12015 L 571.92992 1013.12144 L 572.5151 1013.02209 Z M 558.16449 1116.66283 L 572.32895 1124.84068 L 587.49343 1116.08547 L 587.49343 1099.72976 Z M 557.16448 1114.93077 L 570.32895 1107.33026 L 557.16448 1099.72975 Z M 542.00001 1107.33026 L 555.16448 1114.93077 L 555.16448 1099.72975 Z M 573.32895 1105.59821 L 586.49342 1097.9977 L 573.32895 1090.39719 Z M 525.83553 1097.9977 L 539 1105.59821 L 539 1090.39719 Z M 541 1105.5982 L 554.16447 1097.9977 L 541 1090.39719 Z M 558.16449 1097.9977 L 571.32895 1105.5982 L 571.32895 1090.39719 Z M 524.83552 1096.26564 L 537.99999 1088.66513 L 524.83552 1081.06462 Z M 557.16448 1096.26564 L 570.32895 1088.66513 L 557.16448 1081.06462 Z M 574.32896 1088.66513 L 587.49343 1096.26564 L 587.49343 1081.06463 Z M 509.67105 1088.66513 L 522.83552 1096.26564 L 522.83552 1081.06462 Z M 542.00001 1088.66513 L 555.16448 1096.26564 L 555.16448 1081.06462 Z M 541 1086.93308 L 554.16447 1079.33257 L 541 1071.73206 Z M 573.32895 1086.93308 L 586.49342 1079.33257 L 573.32895 1071.73206 Z M 492.50657 1061.24478 L 492.50657 1078.75522 L 506.67105 1086.93308 L 506.67105 1053.06692 Z M 558.16448 1079.33257 L 571.32895 1086.93308 L 571.32895 1071.73205 Z M 508.67105 1086.93307 L 521.83552 1079.33256 L 508.67105 1071.73206 Z M 525.83553 1079.33256 L 539 1086.93307 L 539 1071.73205 Z M 524.83552 1077.60051 L 537.99999 1070 L 524.83552 1062.39949 Z M 557.16448 1077.60051 L 570.32894 1070 L 557.16448 1062.39949 Z M 574.32896 1070 L 587.49343 1077.60051 L 587.49343 1062.39949 Z M 509.67106 1070 L 522.83552 1077.60051 L 522.83552 1062.39949 Z M 542.00001 1070 L 555.16448 1077.60051 L 555.16448 1062.39949 Z M 525.83553 1060.66744 L 539 1068.26795 L 539 1053.06693 Z M 558.16448 1060.66743 L 571.32895 1068.26795 L 571.32895 1053.06692 Z M 508.67105 1068.26794 L 521.83552 1060.66744 L 508.67105 1053.06693 Z M 541 1068.26794 L 554.16447 1060.66743 L 541 1053.06692 Z M 573.32895 1068.26794 L 586.49342 1060.66743 L 573.32895 1053.06692 Z M 524.83552 1058.93538 L 537.99999 1051.33487 L 524.83552 1043.73436 Z M 557.16448 1058.93538 L 570.32895 1051.33487 L 557.16448 1043.73436 Z M 509.67105 1051.33487 L 522.83552 1058.93538 L 522.83552 1043.73436 Z M 542.00001 1051.33487 L 555.16448 1058.93538 L 555.16448 1043.73436 Z M 574.32896 1051.33487 L 587.49343 1058.93537 L 587.49343 1043.73436 Z M 541 1049.60281 L 554.16447 1042.0023 L 541 1034.4018 Z M 573.32895 1049.60281 L 586.49342 1042.0023 L 573.32895 1034.40179 Z M 525.83553 1042.0023 L 539 1049.60281 L 539 1034.40179 Z M 558.16449 1042.0023 L 571.32895 1049.60281 L 571.32895 1034.4018 Z M 557.16448 1040.27025 L 570.32895 1032.66974 L 557.16448 1025.06923 Z M 542.00001 1032.66974 L 555.16448 1040.27025 L 555.16448 1025.06923 Z M 558.16449 1023.33717 L 587.49343 1040.27024 L 587.49343 1023.91453 L 572.32895 1015.15932 Z" stroke-miterlimit="10"/><path fill="#222222" stroke="#cccccc" paint-order="fill stroke markers" d=" M 746.21429 1017.17245 L 746.71429 1018.03848 L 746.71429 1031.15257 L 758.07143 1024.59552 L 759.07143 1024.59552 L 771.92857 1032.0186 L 772.42857 1032.88463 L 772.42857 1047.73078 L 772.18638 1048.38325 L 771.57713 1048.71968 L 770.92857 1048.59681 L 758.57143 1041.46241 L 746.71429 1048.30813 L 746.71429 1091.69187 L 758.57143 1098.53759 L 770.92857 1091.40319 L 771.61472 1091.2867 L 772.21071 1091.64611 L 772.42857 1092.26922 L 772.42857 1107.11537 L 771.92857 1107.9814 L 759.07143 1115.40448 L 758.07143 1115.40448 L 746.71429 1108.84743 L 746.71429 1121.96152 L 746.21429 1122.82755 L 733.35714 1130.25063 L 732.35714 1130.25063 L 719.5 1122.82755 L 719.05604 1122.29157 L 719.0693 1121.59572 L 719.5 1121.09549 L 731.85714 1113.9611 L 731.85714 1100.26965 L 694.28571 1078.57778 L 682.42857 1085.4235 L 682.42857 1099.6923 L 682.18638 1100.34477 L 681.57713 1100.6812 L 680.92857 1100.55833 L 668.07143 1093.13525 L 667.57143 1092.26922 L 667.57143 1077.42307 L 668.07143 1076.55704 L 679.42856 1070 L 668.07143 1063.44296 L 667.57143 1062.57693 L 667.57143 1047.73078 L 668.07143 1046.86475 L 680.92857 1039.44167 L 681.61472 1039.32518 L 682.21071 1039.68459 L 682.42857 1040.3077 L 682.42857 1054.5765 L 694.28571 1061.42222 L 731.85714 1039.73035 L 731.85714 1026.0389 L 719.5 1018.90451 L 719.05604 1018.36853 L 719.0693 1017.67268 L 719.5 1017.17245 L 732.35714 1009.74937 L 733.35714 1009.74937 Z M 733.85714 1114.53845 L 733.85011 1114.55739 L 733.85641 1114.57657 L 733.82151 1114.63445 L 733.61495 1115.19092 L 733.42151 1115.29774 L 733.35714 1115.40448 L 722.00001 1121.96152 L 732.85714 1128.22989 L 744.71429 1121.38417 L 744.71429 1107.69273 L 733.85714 1101.42435 Z M 759.07143 1100.55833 L 759.05152 1100.56171 L 759.03805 1100.57676 L 758.97046 1100.57547 L 758.38528 1100.67482 L 758.19605 1100.56071 L 758.07143 1100.55833 L 746.71429 1094.00128 L 746.71429 1106.53802 L 758.57143 1113.38374 L 770.42857 1106.53802 L 770.42857 1094.00128 Z M 733.85714 1099.11494 L 744.71429 1105.38332 L 744.71429 1092.84658 L 733.85714 1086.5782 Z M 669.57143 1078.00042 L 669.57143 1091.69187 L 680.42857 1097.96024 L 680.42857 1084.84615 L 680.4356 1084.82721 L 680.4293 1084.80803 L 680.4642 1084.75015 L 680.67076 1084.19368 L 680.8642 1084.08686 L 680.92857 1083.98012 L 692.2857 1077.42308 L 681.42857 1071.15471 Z M 722 1092.26922 L 731.85714 1097.96024 L 731.85714 1086.5782 Z M 734.85715 1084.84615 L 744.71429 1090.53717 L 744.71429 1079.15513 Z M 709.14287 1084.84615 L 719 1090.53717 L 719 1079.15513 Z M 721 1090.53716 L 730.85713 1084.84615 L 721 1079.15513 Z M 696.28572 1077.42308 L 706.14286 1083.1141 L 706.14286 1071.73205 Z M 708.14286 1083.11409 L 717.99999 1077.42308 L 708.14286 1071.73206 Z M 733.85714 1083.11409 L 743.71428 1077.42307 L 733.85714 1071.73205 Z M 722.00001 1077.42308 L 731.85714 1083.11409 L 731.85714 1071.73206 Z M 683.42857 1070 L 694.28571 1076.26837 L 705.14285 1070 L 694.28571 1063.73163 Z M 721 1075.69102 L 730.85714 1070 L 721 1064.30898 Z M 709.14286 1070 L 719 1075.69102 L 719 1064.30898 Z M 734.85716 1070 L 744.71429 1075.69101 L 744.71429 1064.30899 Z M 669.57143 1048.30813 L 669.57143 1061.99958 L 681.42857 1068.84529 L 692.2857 1062.57692 L 680.92857 1056.01988 L 680.91568 1056.00431 L 680.89592 1056.00018 L 680.86326 1055.94103 L 680.48461 1055.4839 L 680.48882 1055.26296 L 680.42857 1055.15385 L 680.42857 1042.03976 Z M 733.85714 1068.26795 L 743.71428 1062.57693 L 733.85714 1056.88591 Z M 696.28572 1062.57692 L 706.14286 1068.26795 L 706.14286 1056.8859 Z M 708.14286 1068.26794 L 717.99999 1062.57692 L 708.14286 1056.88591 Z M 722.00001 1062.57692 L 731.85714 1068.26794 L 731.85714 1056.88591 Z M 721 1060.84487 L 730.85713 1055.15385 L 721 1049.46284 Z M 734.85715 1055.15385 L 744.71429 1060.84487 L 744.71429 1049.46283 Z M 709.14287 1055.15385 L 719 1060.84487 L 719 1049.46283 Z M 733.85714 1040.88506 L 733.85714 1053.4218 L 744.71429 1047.15342 L 744.71429 1034.61668 Z M 722 1047.73078 L 731.85714 1053.4218 L 731.85714 1042.03976 Z M 746.71429 1033.46198 L 746.71429 1045.99872 L 758.07143 1039.44167 L 758.09134 1039.43829 L 758.10481 1039.42324 L 758.1724 1039.42453 L 758.75758 1039.32518 L 758.94681 1039.43929 L 759.07143 1039.44167 L 770.42857 1045.99872 L 770.42857 1033.46198 L 758.57143 1026.61626 Z M 722.00001 1018.03848 L 733.35714 1024.59552 L 733.37003 1024.61109 L 733.38979 1024.61522 L 733.42245 1024.67437 L 733.8011 1025.1315 L 733.79689 1025.35244 L 733.85714 1025.46155 L 733.85714 1038.57565 L 744.71429 1032.30727 L 744.71429 1018.61583 L 732.85714 1011.77011 Z" stroke-miterlimit="10"/><path fill="#222222" stroke="#cccccc" paint-order="fill stroke markers" d=" M 173.63756 1209.51368 L 173.65045 1209.52925 L 173.67021 1209.53338 L 173.70287 1209.59253 L 174.08152 1210.04966 L 174.07731 1210.2706 L 174.13756 1210.37971 L 174.13756 1240.34389 L 200.08731 1225.3618 L 201.08731 1225.3618 L 228.53705 1241.20991 L 229.03705 1242.07594 L 229.03705 1257.92406 L 228.53705 1258.79009 L 201.08731 1274.6382 L 200.08731 1274.6382 L 174.13756 1259.65611 L 174.13756 1289.62029 L 174.13053 1289.63923 L 174.13683 1289.65841 L 174.10193 1289.71629 L 173.89537 1290.27276 L 173.70193 1290.37958 L 173.63756 1290.48632 L 146.18782 1306.33444 L 145.18782 1306.33444 L 131.46295 1298.41038 L 130.96295 1297.54435 L 130.96295 1265.84812 L 131.46295 1264.98209 L 157.41269 1250 L 131.46295 1235.01791 L 130.96295 1234.15188 L 130.96295 1202.45565 L 131.46295 1201.58962 L 145.18782 1193.66556 L 146.18782 1193.66556 Z M 132.96295 1296.967 L 145.68782 1304.3137 L 157.41268 1297.54435 L 132.96295 1283.42829 Z M 160.41269 1282.27358 L 160.41269 1295.81229 L 172.13756 1289.04294 L 172.13756 1275.50423 Z M 147.68783 1289.62029 L 158.41269 1295.81229 L 158.41269 1283.42829 Z M 146.68782 1287.88823 L 157.41268 1281.69623 L 146.68782 1275.50423 Z M 133.96296 1281.69623 L 144.68782 1287.88823 L 144.68782 1275.50423 Z M 146.68782 1273.19482 L 159.41269 1280.54152 L 171.13755 1273.77217 L 146.68782 1259.65612 Z M 132.96295 1266.42547 L 132.96295 1279.96417 L 144.68782 1273.19482 L 144.68782 1259.65612 Z M 188.86245 1265.84812 L 200.58731 1272.61746 L 212.31217 1265.84812 L 200.58731 1259.07877 Z M 161.4127 1265.84812 L 172.13756 1272.04011 L 172.13756 1259.65612 Z M 160.41269 1264.11606 L 171.13756 1257.92406 L 160.41269 1251.73205 Z M 187.86244 1264.11606 L 199.58731 1257.34671 L 199.58731 1242.65329 L 187.86244 1235.88394 Z M 215.31218 1264.11606 L 227.03705 1257.34671 L 227.03705 1242.65329 L 215.31218 1235.88394 Z M 147.68783 1257.92406 L 158.41269 1264.11606 L 158.41269 1251.73206 Z M 175.13758 1257.92406 L 185.86244 1264.11606 L 185.86244 1251.73206 Z M 202.58732 1257.92406 L 213.31218 1264.11606 L 213.31218 1251.73206 Z M 174.13756 1256.19201 L 184.86243 1250 L 174.13756 1243.80799 Z M 201.58731 1256.192 L 212.31217 1250 L 201.58731 1243.808 Z M 161.41271 1250 L 172.13756 1256.192 L 172.13756 1243.808 Z M 160.41269 1248.26795 L 171.13756 1242.07594 L 160.41269 1235.88394 Z M 175.13758 1242.07594 L 185.86244 1248.26794 L 185.86244 1235.88394 Z M 202.58732 1242.07594 L 213.31218 1248.26794 L 213.31218 1235.88394 Z M 147.68783 1242.07594 L 158.41269 1248.26794 L 158.41269 1235.88394 Z M 188.86245 1234.15188 L 200.58731 1240.92123 L 212.31217 1234.15188 L 200.58731 1227.38254 Z M 146.68782 1226.80518 L 146.68782 1240.34388 L 171.13755 1226.22783 L 159.41269 1219.45848 Z M 132.96295 1233.57453 L 144.68782 1240.34388 L 144.68782 1226.80518 L 132.96295 1220.03583 Z M 161.4127 1234.15188 L 172.13756 1240.34388 L 172.13756 1227.95989 Z M 146.68782 1224.49577 L 157.41268 1218.30377 L 146.68782 1212.11177 Z M 160.41269 1217.72642 L 172.13756 1224.49577 L 172.13756 1210.95706 L 160.41269 1204.18771 Z M 133.96296 1218.30377 L 144.68782 1224.49577 L 144.68782 1212.11177 Z M 132.96295 1203.033 L 132.96295 1216.57171 L 157.41268 1202.45565 L 145.68782 1195.6863 Z M 147.68783 1210.37971 L 158.41269 1216.57171 L 158.41269 1204.18771 Z" stroke-miterlimit="10"/><path fill="#222222" stroke="#cccccc" paint-order="fill stroke markers" d=" M 412.11854 1225.29239 L 412.61854 1226.15842 L 412.61854 1273.84158 L 412.61151 1273.86052 L 412.61781 1273.8797 L 412.58291 1273.93758 L 412.37635 1274.49405 L 412.18291 1274.60087 L 412.11854 1274.70761 L 350.17629 1310.46999 L 350.15638 1310.47337 L 350.14291 1310.48842 L 350.07532 1310.48713 L 349.49014 1310.58648 L 349.30091 1310.47237 L 349.17629 1310.46999 L 307.88146 1286.6284 L 307.38146 1285.76237 L 307.38146 1214.23763 L 307.88146 1213.3716 L 349.17629 1189.53001 L 350.17629 1189.53001 Z M 331.02888 1297.68316 L 349.67629 1308.44925 L 368.32371 1297.68316 L 349.67629 1286.91708 Z M 371.32371 1295.95111 L 388.97112 1285.76237 L 371.32371 1275.57364 Z M 309.38146 1285.18502 L 328.02888 1295.95111 L 328.02888 1274.41893 L 309.38146 1263.65285 Z M 330.02888 1274.41893 L 330.02888 1295.9511 L 348.67629 1285.18502 L 348.67629 1263.65285 Z M 350.67629 1285.18502 L 369.32371 1295.9511 L 369.32371 1274.41894 L 350.67629 1263.65285 Z M 391.97112 1262.49814 L 391.97112 1284.03032 L 410.61854 1273.26423 L 410.61854 1251.73206 Z M 371.32371 1273.26423 L 389.97112 1284.03031 L 389.97112 1262.49814 L 371.32371 1251.73206 Z M 310.38147 1261.92079 L 329.02888 1272.68687 L 347.67628 1261.92079 L 329.02888 1251.15471 Z M 351.6763 1261.92079 L 369.32371 1272.10953 L 369.32371 1251.73205 Z M 372.32371 1250 L 390.97112 1260.76608 L 409.61853 1250 L 390.97112 1239.23392 Z M 350.67629 1260.18874 L 368.3237 1250 L 350.67629 1239.81126 Z M 309.38146 1260.18873 L 327.02887 1250 L 309.38146 1239.81127 Z M 331.02888 1250 L 348.67629 1260.18873 L 348.67629 1239.81127 Z M 310.38147 1238.07921 L 329.02888 1248.84529 L 347.67628 1238.07921 L 329.02888 1227.31313 Z M 351.6763 1238.07921 L 369.32371 1248.26795 L 369.32371 1227.89047 Z M 371.32371 1226.73577 L 371.32371 1248.26794 L 389.97112 1237.50186 L 389.97112 1215.96969 Z M 391.97112 1237.50186 L 410.61854 1248.26794 L 410.61854 1226.73577 L 391.97112 1215.96968 Z M 309.38146 1214.81498 L 309.38146 1236.34715 L 328.02888 1225.58107 L 328.02888 1204.04889 Z M 350.67629 1214.81498 L 350.67629 1236.34715 L 369.32371 1225.58106 L 369.32371 1204.0489 Z M 330.02888 1225.58107 L 348.67629 1236.34715 L 348.67629 1214.81498 L 330.02888 1204.0489 Z M 371.32371 1224.42636 L 388.97112 1214.23763 L 371.32371 1204.04889 Z M 331.02888 1202.31684 L 349.67629 1213.08292 L 368.32371 1202.31684 L 349.67629 1191.55075 Z" stroke-miterlimit="10"/><path fill="#222222" stroke="#cccccc" paint-order="fill stroke markers" d=" M 495.5 1197.17245 L 585.5 1249.13397 L 585.62045 1249.27938 L 585.78214 1249.37689 L 585.83529 1249.53876 L 585.94396 1249.66995 L 585.94036 1249.85873 L 585.99927 1250.03812 L 585.93491 1250.14484 L 585.9307 1250.3658 L 585.53491 1250.80813 L 585.5 1250.86603 L 495.5 1302.82755 L 494.81385 1302.94404 L 494.21786 1302.58463 L 494 1301.96152 L 494 1198.03848 L 494.24219 1197.38601 L 494.85144 1197.04958 Z M 496 1300.22946 L 510.99999 1291.56922 L 496 1282.90897 Z M 514 1289.83716 L 528.99999 1281.17691 L 514 1272.51666 Z M 497.00001 1281.17691 L 512 1289.83716 L 512 1272.51666 Z M 532 1279.44486 L 546.99999 1270.78461 L 532 1262.12436 Z M 496 1279.44485 L 510.99999 1270.78461 L 496 1262.12436 Z M 515.00001 1270.78461 L 530 1279.44485 L 530 1262.12436 Z M 514 1269.05255 L 547 1250 L 514 1230.94745 Z M 550 1269.05255 L 565 1260.3923 L 550 1251.73205 Z M 497.00001 1260.3923 L 512 1269.05255 L 512 1251.73206 Z M 533.00001 1260.3923 L 548 1269.05255 L 548 1251.73206 Z M 496 1258.66025 L 510.99999 1250 L 496 1241.33976 Z M 568 1258.66025 L 582.99999 1250 L 568 1241.33975 Z M 551.00001 1250 L 566 1258.66024 L 566 1241.33976 Z M 497.00001 1239.6077 L 512 1248.26795 L 512 1230.94745 Z M 550 1248.26795 L 565 1239.6077 L 550 1230.94745 Z M 533.00001 1239.6077 L 548 1248.26794 L 548 1230.94745 Z M 496 1237.87564 L 510.99999 1229.21539 L 496 1220.55515 Z M 532 1237.87564 L 546.99999 1229.21539 L 532 1220.55514 Z M 515.00001 1229.21539 L 530 1237.87564 L 530 1220.55515 Z M 514 1227.48334 L 528.99999 1218.82309 L 514 1210.16284 Z M 497.00001 1218.82309 L 512 1227.48334 L 512 1210.16284 Z M 496 1217.09103 L 510.99999 1208.43078 L 496 1199.77054 Z" stroke-miterlimit="10"/><path fill="#222222" stroke="#cccccc" paint-order="fill stroke markers" d=" M 726.26166 1195.91004 L 726.76166 1196.77607 L 726.76166 1209.5047 L 748.8083 1222.23332 L 759.83162 1215.86901 L 760.83162 1215.86901 L 772.35494 1222.522 L 772.85494 1223.38803 L 772.85494 1236.69402 L 772.35494 1237.56005 L 761.33162 1243.92436 L 761.33162 1256.07564 L 772.35494 1262.43995 L 772.85494 1263.30598 L 772.85494 1276.61197 L 772.35494 1277.478 L 760.83162 1284.13099 L 759.83162 1284.13099 L 748.8083 1277.76668 L 726.76166 1290.4953 L 726.76166 1303.22393 L 726.26166 1304.08996 L 714.73834 1310.74295 L 713.73834 1310.74295 L 702.21502 1304.08996 L 701.71502 1303.22393 L 701.71502 1290.4953 L 691.1917 1284.41967 L 680.16838 1290.78398 L 679.16838 1290.78398 L 667.64506 1284.13099 L 667.14506 1283.26496 L 667.14506 1269.95897 L 667.64506 1269.09294 L 678.66838 1262.72863 L 678.66838 1237.27137 L 667.64506 1230.90706 L 667.14506 1230.04103 L 667.14506 1216.73504 L 667.64506 1215.86901 L 679.16838 1209.21602 L 680.16838 1209.21602 L 691.1917 1215.58033 L 701.71502 1209.5047 L 701.71502 1196.77607 L 702.21502 1195.91004 L 713.73834 1189.25705 L 714.73834 1189.25705 Z M 691.6917 1270.825 L 691.67179 1270.82838 L 691.65832 1270.84343 L 691.59073 1270.84214 L 691.00555 1270.94149 L 690.81632 1270.82738 L 690.6917 1270.825 L 679.66838 1264.46069 L 669.14506 1270.53632 L 669.14506 1282.68761 L 679.66838 1288.76324 L 690.6917 1282.39893 L 691.6917 1282.39893 L 703.21502 1289.05192 L 703.71502 1289.91795 L 703.71502 1302.64658 L 714.23834 1308.72221 L 724.76166 1302.64658 L 724.76166 1290.4953 L 713.73834 1284.13099 L 713.61789 1283.98558 L 713.4562 1283.88807 L 713.39709 1283.71901 L 713.29438 1283.59501 L 713.29745 1283.43402 L 713.23834 1283.26496 L 713.23834 1270.53632 L 702.71502 1264.46069 Z M 716.23835 1283.26496 L 725.76166 1288.76324 L 735.28497 1283.26496 L 725.76166 1277.76668 Z M 749.8083 1223.96538 L 749.8083 1236.69402 L 749.7426 1236.87102 L 749.739 1237.05982 L 749.62214 1237.19555 L 749.56611 1237.34649 L 749.42516 1237.42432 L 749.3083 1237.56005 L 738.28498 1243.92436 L 738.28498 1256.07564 L 749.3083 1262.43995 L 749.37276 1262.5516 L 749.59044 1262.68287 L 749.77758 1263.25277 L 749.8083 1263.30598 L 749.8083 1276.03462 L 760.33162 1282.11025 L 770.85494 1276.03462 L 770.85494 1263.88333 L 759.83162 1257.51902 L 759.33162 1256.65299 L 759.33162 1243.34701 L 759.83162 1242.48098 L 770.85494 1236.11667 L 770.85494 1223.96538 L 760.33162 1217.88975 Z M 715.23834 1270.53632 L 715.23834 1281.5329 L 724.76166 1276.03462 L 724.76166 1265.03804 Z M 738.28498 1270.53632 L 738.28498 1281.5329 L 747.8083 1276.03462 L 747.8083 1265.03804 Z M 726.76166 1276.03462 L 736.28498 1281.5329 L 736.28498 1270.53632 L 726.76166 1265.03804 Z M 703.71502 1262.72863 L 714.23834 1268.80426 L 723.76165 1263.30598 L 703.71502 1251.73206 Z M 727.76167 1263.30598 L 737.28498 1268.80426 L 746.80829 1263.30598 L 737.28498 1257.8077 Z M 692.1917 1257.23034 L 692.1917 1268.22691 L 701.71502 1262.72863 L 701.71502 1251.73206 Z M 680.66838 1262.72863 L 690.1917 1268.22691 L 690.1917 1257.23034 L 680.66838 1251.73206 Z M 726.76166 1261.57392 L 736.28498 1256.07564 L 736.28498 1243.92436 L 726.76166 1238.42608 Z M 716.23835 1256.65299 L 724.76166 1261.57392 L 724.76166 1251.73206 Z M 681.66839 1250 L 691.1917 1255.49828 L 700.71501 1250 L 691.1917 1244.50172 Z M 715.23834 1254.92093 L 723.76165 1250 L 715.23834 1245.07907 Z M 704.71503 1250 L 713.23834 1254.92093 L 713.23834 1245.07907 Z M 680.66838 1237.27137 L 680.66838 1248.26794 L 690.1917 1242.76966 L 690.1917 1231.77309 Z M 703.71502 1237.27137 L 703.71502 1248.26794 L 723.76165 1236.69402 L 714.23834 1231.19574 Z M 716.23835 1243.34701 L 724.76166 1248.26794 L 724.76166 1238.42608 Z M 692.1917 1242.76966 L 701.71502 1248.26794 L 701.71502 1237.27137 L 692.1917 1231.77309 Z M 727.76167 1236.69402 L 737.28498 1242.1923 L 746.80829 1236.69402 L 737.28498 1231.19574 Z M 703.71502 1197.35342 L 703.71502 1210.08205 L 703.21502 1210.94808 L 691.6917 1217.60107 L 690.6917 1217.60107 L 679.66838 1211.23676 L 669.14506 1217.31239 L 669.14506 1229.46368 L 679.66838 1235.53931 L 690.6917 1229.175 L 690.87787 1229.14339 L 691.04314 1229.05213 L 691.21909 1229.08546 L 691.37785 1229.05851 L 691.51574 1229.14166 L 691.6917 1229.175 L 702.71502 1235.53931 L 713.23834 1229.46368 L 713.23834 1216.73504 L 713.24537 1216.7161 L 713.23907 1216.69692 L 713.27397 1216.63904 L 713.48053 1216.08257 L 713.67397 1215.97575 L 713.73834 1215.86901 L 724.76166 1209.5047 L 724.76166 1197.35342 L 714.23834 1191.27779 Z M 726.76166 1223.96538 L 726.76166 1234.96196 L 736.28498 1229.46368 L 736.28498 1218.4671 Z M 738.28498 1229.46368 L 747.8083 1234.96196 L 747.8083 1223.96538 L 738.28498 1218.4671 Z M 715.23834 1229.46368 L 724.76166 1234.96196 L 724.76166 1223.96538 L 715.23834 1218.4671 Z M 716.23835 1216.73504 L 725.76166 1222.23332 L 735.28497 1216.73504 L 725.76166 1211.23676 Z" stroke-miterlimit="10"/></g></svg>