<?xml version="1.0" encoding="UTF-8" standalone="no"?>
<svg
   version="1.1"
   width="900"
   height="900"
   id="svg4"
   sodipodi:docname="stamp-2024-02-04T05_52_28.626Z.svg"
   inkscape:version="1.3 (0e150ed, 2023-07-21)"
   xmlns:inkscape="http://www.inkscape.org/namespaces/inkscape"
   xmlns:sodipodi="http://sodipodi.sourceforge.net/DTD/sodipodi-0.dtd"
   xmlns="http://www.w3.org/2000/svg"
   xmlns:svg="http://www.w3.org/2000/svg">
  <sodipodi:namedview
     id="namedview4"
     pagecolor="#505050"
     bordercolor="#eeeeee"
     borderopacity="1"
     inkscape:showpageshadow="0"
     inkscape:pageopacity="0"
     inkscape:pagecheckerboard="0"
     inkscape:deskcolor="#d1d1d1"
     inkscape:zoom="0.89333333"
     inkscape:cx="449.4403"
     inkscape:cy="450"
     inkscape:window-width="1920"
     inkscape:window-height="1044"
     inkscape:window-x="1920"
     inkscape:window-y="0"
     inkscape:window-maximized="1"
     inkscape:current-layer="svg4" />
  <defs
     id="defs1" />
  <path
     fill="#222222"
     stroke="#cccccc"
     paint-order="fill stroke markers"
     d="m 226.98553,36.07887 1.69062,1.33825 17.64722,24.28932 28.55382,-9.2777 1.14092,0.04711 1.13703,-0.10481 0.12003,0.15671 0.38353,0.01583 1.69063,1.33825 17.64723,24.28932 28.55382,-9.27769 2.78152,0.11484 1.69062,1.33825 17.64722,24.28932 28.55382,-9.2777 2.78151,0.11484 1.69063,1.33825 19.35544,26.64047 0.75032,2.68086 -0.75032,2.02142 -12.11937,16.68087 19.60954,-6.37152 1.14092,0.0471 1.13703,-0.1048 0.12003,0.1567 0.38354,0.0158 1.69062,1.33825 19.35544,26.64047 0.59707,2.13329 0.16686,0.21785 -0.0604,0.16264 0.0468,0.16708 -0.75032,2.02142 -17.64724,24.28933 17.64724,24.28933 0.59707,2.13329 0.16686,0.21785 -0.0604,0.16264 0.0468,0.16708 -0.75032,2.02142 -17.64724,24.28933 17.64724,24.28933 0.59707,2.13329 0.16686,0.21785 -0.0604,0.16264 0.0468,0.16708 -0.75032,2.02142 -17.64724,24.28933 17.64724,24.28933 0.75032,2.68086 -0.75032,2.02142 -19.35544,26.64047 -2.31779,1.54203 -2.15435,-0.0889 -19.60954,-6.37152 12.11937,16.68087 0.75032,2.68086 -0.75032,2.02142 -19.35544,26.64047 -2.31779,1.54203 -2.15435,-0.0889 -28.55382,-9.2777 -17.64722,24.28932 -0.14445,0.0961 -0.0604,0.16265 -1.08296,0.59801 -1.03001,0.68527 -0.19629,-0.008 -0.12775,0.0705 -0.45129,-0.0944 -1.37902,-0.0569 -28.55382,-9.27769 -17.64723,24.28932 -0.14445,0.0961 -0.0604,0.16265 -1.08296,0.59801 -1.03001,0.68527 -0.19629,-0.008 -0.12775,0.0705 -0.45129,-0.0944 -1.37902,-0.0569 -28.55382,-9.2777 -17.64722,24.28932 -2.31779,1.54203 -2.15435,-0.0889 -31.31775,-10.17575 -2.18279,-1.72784 -0.58114,-2.07639 v -20.6187 l -12.11937,16.68088 -2.31779,1.54203 -2.15435,-0.0889 -31.31775,-10.17576 -2.18279,-1.72784 -0.58114,-2.07639 v -30.02325 l -28.55382,-9.2777 -0.39787,-0.31494 -0.49667,-0.10395 -0.5627,-0.73462 -0.72555,-0.57433 -0.16446,-0.58762 -0.24012,-0.31348 0.0259,-0.45198 -0.20244,-0.72331 v -30.02326 l -28.55382,-9.2777 -0.39787,-0.31494 -0.49667,-0.10395 -0.5627,-0.73462 -0.72555,-0.57433 -0.16446,-0.58762 -0.24012,-0.31348 0.02588,-0.45198 -0.20244,-0.72331 v -30.02325 l -28.55382,-9.2777 -2.18279,-1.72784 -0.58114,-2.07639 v -32.92944 l 0.96875,-2.60989 1.79518,-1.19434 19.60953,-6.37152 -19.60953,-6.37152 -0.39787,-0.31494 -0.49667,-0.10395 -0.5627,-0.73462 -0.72555,-0.57433 -0.16446,-0.58762 -0.24012,-0.31348 0.02588,-0.45198 -0.20244,-0.72331 v -32.92944 l 0.28834,-0.77681 0.04737,-0.82723 0.42177,-0.43667 0.21127,-0.56918 0.94706,-0.63008 0.35393,-0.36644 0.22851,-0.0211 0.26568,-0.17676 28.55382,-9.2777 V 152.6191 l 0.28834,-0.77681 0.04737,-0.82723 0.42177,-0.43667 0.21127,-0.56918 0.94706,-0.63008 0.35393,-0.36644 0.22851,-0.0211 0.26568,-0.17676 28.55382,-9.2777 v -30.02326 l 0.28834,-0.77681 0.0474,-0.82723 0.42177,-0.43667 0.21127,-0.56918 0.94706,-0.63008 0.35393,-0.36644 0.22851,-0.0211 0.26568,-0.17676 28.55382,-9.2777 V 66.40873 l 0.96875,-2.60989 1.79518,-1.19434 31.31775,-10.17576 2.78151,0.11484 1.69063,1.33825 12.11937,16.68088 v -20.6187 l 0.96875,-2.60989 1.79518,-1.19434 31.31775,-10.17575 z m -28.8632,361.6128 v 27.11708 l 25.78989,8.37964 15.93902,-21.93818 -15.93902,-21.93818 z m -50.67319,-16.46471 v 27.11708 l 25.78989,8.37964 15.93903,-21.93818 -15.93903,-21.93818 z m 81.99094,2.0831 17.82756,24.53754 27.31776,8.87608 15.93903,-21.93818 -15.93903,-21.93818 -28.55382,9.27769 -0.34211,-0.0141 -0.29972,0.1655 -1.05882,-0.22159 -1.08087,-0.0446 -0.31185,-0.24685 -0.27331,-0.0572 -0.30965,-0.40426 -0.79581,-0.62994 -12.11936,-16.68087 z m 101.34637,-31.62975 -0.96875,2.60989 -1.79518,1.19434 -28.55382,9.2777 v 27.11708 l 25.78989,8.37964 16.88329,-23.23786 v -30.33007 l -11.35543,-15.62941 z m -151.07529,16.46472 15.93903,21.93818 25.78989,-8.37964 v -27.11708 l -25.78989,-8.37964 z m 170.43072,-19.8475 v 27.11708 l 25.78989,8.37964 15.93903,-21.93818 -15.93903,-21.93818 z m -70.79255,-10.73079 -0.14445,0.0961 -0.0604,0.16265 -1.08296,0.59801 -1.03001,0.68527 -0.19629,-0.008 -0.12775,0.0705 -0.45129,-0.0944 -1.37902,-0.0569 -28.55382,-9.2777 -15.93902,21.93818 15.93902,21.93818 28.55382,-9.27769 1.14092,0.0471 1.13703,-0.1048 0.12003,0.1567 0.38354,0.0158 1.69062,1.33825 12.11937,16.68088 v -20.6187 l 0.28834,-0.77681 0.0474,-0.82723 0.42177,-0.43667 0.21127,-0.56918 0.94706,-0.63008 0.35393,-0.36644 0.22851,-0.0211 0.26568,-0.17676 28.55382,-9.2777 v -27.11708 l -25.78989,-8.37964 z m -163.21794,0.55503 v 27.11708 l 27.31775,8.87608 28.84562,-9.37251 11.35543,-15.6294 -19.60954,6.37152 -2.78152,-0.11484 -1.69062,-1.33825 -17.64723,-24.28932 z m 0.94427,-56.18711 17.64724,24.28933 0.59707,2.13329 0.16686,0.21785 -0.0604,0.16264 0.0468,0.16708 -0.75032,2.02142 -12.11936,16.68087 19.60953,-6.37153 2.78151,0.11484 1.69063,1.33825 17.64723,24.28932 25.78989,-8.37964 V 311.4813 l -28.55382,-9.2777 -0.39787,-0.31494 -0.49667,-0.10395 -0.5627,-0.73462 -0.72555,-0.57433 -0.16446,-0.58762 -0.24012,-0.31348 0.0259,-0.45198 -0.20244,-0.72331 v -30.02325 l -25.78989,-8.37964 z m 81.04667,27.94015 v 28.72357 l 25.78989,8.37964 16.88329,-23.23786 v -28.72357 l -25.78989,-8.37964 z m 133.60839,8.87607 15.93902,21.93818 25.78989,-8.37964 v -27.11708 l -25.78989,-8.37964 z m 49.72891,-13.55854 v 27.11708 l 25.78989,8.37964 15.93903,-21.93818 -15.93903,-21.93818 z M 248.79551,155.52527 v 30.02326 l -0.96875,2.60989 -1.79518,1.19434 -31.31775,10.17575 -2.78152,-0.11484 -1.69062,-1.33825 -17.64722,-24.28932 -25.78989,8.37964 v 27.11708 l 28.55382,9.2777 2.18279,1.72784 0.58114,2.07639 v 32.92944 l -0.96875,2.60989 -1.79518,1.19434 -28.55382,9.2777 v 27.11708 l 25.78989,8.37964 17.64722,-24.28932 0.82087,-0.54612 0.68494,-0.70915 0.44223,-0.0408 0.36975,-0.246 1.58789,0.0655 0.37227,-0.0343 0.0393,0.0513 0.15489,0.006 31.31775,10.17575 2.18279,1.72784 0.58114,2.07639 v 30.02326 l 25.78989,8.37964 15.93903,-21.93818 -17.64724,-24.28933 -0.18039,-0.64452 -0.40698,-0.53133 0.0439,-0.76606 -0.20682,-0.73895 0.29457,-0.7936 0.0275,-0.48072 0.2451,-0.25376 0.18312,-0.49334 19.35544,-26.64047 0.82087,-0.54612 0.68494,-0.70915 0.44223,-0.0408 0.36975,-0.246 1.58789,0.0656 0.37227,-0.0343 0.0393,0.0513 0.15489,0.006 28.55382,9.27769 15.93902,-21.93818 -15.93902,-21.93818 -28.55382,9.27769 -0.34211,-0.0141 -0.29972,0.1655 -1.05882,-0.22159 -1.08087,-0.0446 -0.31185,-0.24685 -0.27331,-0.0572 -0.30965,-0.40426 -0.79581,-0.62994 -19.35544,-26.64047 -0.18039,-0.64452 -0.40698,-0.53133 0.0439,-0.76606 -0.20682,-0.73895 0.29457,-0.7936 0.0275,-0.48072 0.2451,-0.25376 0.18312,-0.49334 L 290.52443,169.083 274.5854,147.14482 Z M 102.6412,268.87255 84.81364,293.41009 v 28.72358 l 25.78989,8.37964 15.93903,-21.93818 -17.64724,-24.28933 -0.18039,-0.64452 -0.40698,-0.53133 0.0439,-0.76606 -0.20682,-0.73895 0.29457,-0.7936 0.0275,-0.48072 0.2451,-0.25376 0.18312,-0.49334 12.11937,-16.68087 z m 178.41633,13.06211 16.8833,23.23786 27.31776,8.87607 15.93902,-21.93818 -16.88329,-23.23786 -27.31776,-8.87607 z m 100.4021,-30.02326 v 30.02326 l -0.96875,2.60989 -1.79518,1.19434 -19.60953,6.37152 18.37346,5.9699 28.84562,-9.37251 16.8833,-23.23786 -15.93903,-21.93818 z m -327.96374,0 v 27.11708 l 25.78989,8.37964 15.93902,-21.93818 -15.93902,-21.93818 z m 278.23483,-39.7224 17.64723,24.28933 0.59707,2.13329 0.16686,0.21785 -0.0604,0.16264 0.0468,0.16708 -0.75032,2.02142 -17.64723,24.28933 15.93902,21.93818 25.78989,-8.37964 v -30.02326 l 0.96875,-2.60989 1.79518,-1.19434 19.60953,-6.37152 -19.60953,-6.37152 -2.18279,-1.72784 -0.58114,-2.07639 v -30.02326 l -25.78989,-8.37964 z m -196.24389,13.08193 v 27.11708 l 27.31775,8.87608 27.31775,-8.87608 v -27.11708 l -27.31775,-8.87608 z m -49.72892,13.55854 15.93902,21.93818 25.7899,-8.37964 v -27.11708 l -25.7899,-8.37964 z M 53.49589,198.63046 v 27.11708 L 79.28578,234.12718 95.2248,212.189 79.28578,190.25082 Z m 305.59028,-13.08193 19.60953,6.37152 2.18279,1.72784 0.58114,2.07639 v 30.02326 l 25.78989,8.37964 15.93903,-21.93818 -16.8833,-23.23786 -28.84562,-9.37251 z m -212.40096,-30.57829 -0.14445,0.0961 -0.0604,0.16265 -1.08296,0.59801 -1.03001,0.68527 -0.19629,-0.008 -0.12775,0.0705 -0.45129,-0.0945 -1.37902,-0.0569 -19.60953,-6.37153 12.11936,16.68087 0.59707,2.13329 0.16686,0.21785 -0.0604,0.16264 0.0468,0.16708 -0.75032,2.02142 -17.64724,24.28933 15.93903,21.93818 25.78989,-8.37964 v -30.02325 l 0.96875,-2.60989 1.79518,-1.19434 28.55382,-9.2777 V 139.0606 l -25.78989,-8.37964 z m 151.25562,17.51618 -16.8833,23.23786 15.93903,21.93818 27.31776,-8.87607 16.88329,-23.23786 -15.93902,-21.93818 z M 84.81364,155.52527 v 28.72358 l 17.82756,24.53754 18.37349,5.9699 -12.11937,-16.68087 -0.18039,-0.64452 -0.40698,-0.53133 0.0439,-0.76606 -0.20682,-0.73895 0.29457,-0.7936 0.0275,-0.48072 0.2451,-0.25376 0.18312,-0.49334 17.64724,-24.28933 -15.93903,-21.93818 z m 113.30869,-16.46471 v 28.72357 l 16.88329,23.23786 25.78989,-8.37964 v -28.72357 l -16.88329,-23.23786 z m 133.60839,19.8475 15.93902,21.93818 25.78989,-8.37964 v -27.11708 l -25.78989,-8.37964 z m 49.72891,-13.55854 v 27.11708 l 25.78989,8.37964 15.93903,-21.93818 -15.93903,-21.93818 z m -102.1103,-33.48447 -0.14445,0.0961 -0.0604,0.16265 -1.08296,0.59801 -1.03001,0.68527 -0.19629,-0.008 -0.12775,0.0705 -0.45129,-0.0945 -1.37902,-0.0569 -28.55382,-9.27769 -15.93902,21.93818 15.93902,21.93818 28.55382,-9.2777 2.78151,0.11484 1.69063,1.33825 17.64723,24.28932 25.78989,-8.37964 V 128.8848 l -28.55382,-9.2777 -2.18279,-1.72784 -0.58114,-2.07639 v -20.6187 z m -163.21794,0.55504 v 27.11708 l 25.78989,8.37964 17.64723,-24.28932 0.82087,-0.54612 0.68494,-0.70915 0.44223,-0.0408 0.36975,-0.246 1.58789,0.0656 0.37227,-0.0343 0.0393,0.0513 0.15489,0.006 19.60954,6.37152 -11.35543,-15.6294 -28.84562,-9.37251 z M 299.4687,85.77962 v 27.11708 l 28.55382,9.2777 2.18279,1.72784 0.58114,2.07639 v 20.61869 l 11.35543,-15.62941 V 100.63784 L 325.25859,77.39998 Z m 50.67318,16.46471 v 27.11708 l 25.78989,8.37964 15.93903,-21.93818 -15.93903,-21.93818 z m -170.43072,7.26958 15.93903,21.93818 25.78989,-8.37964 V 95.95537 l -25.78989,-8.37964 z m 67.55648,-39.70257 -17.82756,24.53754 v 19.31901 l 12.11936,-16.68087 0.82087,-0.54612 0.68494,-0.70915 0.44223,-0.04076 0.36975,-0.246 1.58789,0.06555 0.37227,-0.03431 0.0393,0.05131 0.15489,0.0064 28.55382,9.27769 15.93903,-21.93818 -15.93903,-21.93818 z m -99.8185,-0.49644 v 27.11708 l 25.78989,8.37964 15.93903,-21.93818 -15.93903,-21.93818 z m 50.67319,-16.46471 v 27.11708 l 25.78989,8.37964 15.93902,-21.93818 -15.93902,-21.93818 z"
     stroke-miterlimit="10"
     id="path1" />
  <path
     fill="#222222"
     stroke="#cccccc"
     paint-order="fill stroke markers"
     d="m 683.34604,38.00334 1.69062,1.33825 17.40162,23.95128 0.75032,2.68086 -0.75032,2.02142 -17.40162,23.95128 -0.42248,0.28108 -0.25234,0.44024 -0.57631,0.11106 -1.06666,0.70965 -1.58956,-0.19778 -0.56479,0.10884 -25.39249,-8.25052 -13.98522,19.24899 15.69343,21.60015 0.59707,2.13329 0.16686,0.21785 -0.0604,0.16264 0.0468,0.16708 -0.75032,2.02142 -15.69343,21.60014 14.92949,20.54867 25.68429,8.34533 24.15642,-7.8489 v -26.69923 l 0.28834,-0.77681 0.0474,-0.82723 0.42177,-0.43667 0.21127,-0.56918 0.94706,-0.63008 0.35393,-0.36644 0.22851,-0.0211 0.26568,-0.17676 25.39249,-8.25052 v -23.79307 l -25.39249,-8.25052 -2.18279,-1.72784 -0.58114,-2.07639 V 69.13845 l 0.96875,-2.60989 1.79518,-1.19434 28.15642,-9.14857 2.78152,0.11484 1.69062,1.33825 17.40162,23.95128 0.13676,0.48865 0.34072,0.37603 -0.0725,0.58242 0.34531,1.23376 -0.6793,1.45065 -0.071,0.57077 -15.69342,21.60014 13.98521,19.24899 25.39249,-8.25051 2.78152,0.11484 1.69062,1.33825 17.40162,23.95128 0.75032,2.68086 -0.75032,2.02142 -15.69342,21.60014 13.98521,19.24899 25.39249,-8.25052 2.78151,0.11484 1.69063,1.33825 17.40163,23.95128 0.75032,2.68086 -0.75032,2.02142 -17.40163,23.95129 -2.31779,1.54203 -2.15435,-0.0889 -28.15642,-9.14858 -0.39787,-0.31494 -0.49667,-0.10395 -0.28371,-0.51378 -1.00454,-0.79517 -0.30311,-1.57289 -0.27803,-0.5035 V 197.4552 l -22.62855,-7.35246 -15.69342,21.60013 -0.14445,0.0961 -0.0604,0.16265 -1.08296,0.59801 -1.03001,0.68527 -0.19629,-0.008 -0.12775,0.0705 -0.45129,-0.0944 -1.37902,-0.0569 -25.39249,-8.25051 -14.92948,20.54867 v 27.00605 l 14.92948,20.54867 25.39249,-8.25051 2.78152,0.11484 1.69062,1.33825 15.69342,21.60013 22.62855,-7.35246 v -26.69924 l 0.96875,-2.60989 1.79518,-1.19434 28.15642,-9.14857 2.78152,0.11484 1.69062,1.33825 17.40163,23.95128 0.75032,2.68086 -0.75032,2.02142 -17.40163,23.95128 -2.31779,1.54203 -2.15435,-0.0889 -25.39249,-8.25052 -13.98521,19.249 15.69342,21.60014 0.75032,2.68086 -0.75032,2.02142 -17.40162,23.95128 -2.31779,1.54203 -2.15435,-0.0889 -25.39249,-8.25052 -13.98521,19.24899 15.69342,21.60014 0.75032,2.68086 -0.75032,2.02142 -17.40162,23.95129 -2.31779,1.54203 -2.15435,-0.0889 -28.15642,-9.14858 -2.18279,-1.72784 -0.58114,-2.07639 v -29.60541 l 0.17658,-0.47572 -0.0546,-0.50448 0.40096,-0.42859 0.44583,-1.2011 1.40223,-0.77431 0.39295,-0.42003 25.39249,-8.25052 v -23.79306 l -25.39249,-8.25052 -0.39787,-0.31494 -0.49667,-0.10395 -0.5627,-0.73462 -0.72555,-0.57433 -0.16446,-0.58762 -0.24012,-0.31348 0.0259,-0.45198 -0.20244,-0.72331 v -26.69924 l -24.15642,-7.8489 -25.68429,8.34533 -14.92949,20.54868 15.69343,21.60014 0.75032,2.68086 -0.75032,2.02142 -15.69343,21.60014 13.98522,19.24899 25.39249,-8.25052 2.78151,0.11484 1.69063,1.33825 17.40162,23.95129 0.75032,2.68086 -0.75032,2.02142 -17.40162,23.95128 -2.31779,1.54203 -2.15435,-0.0889 -28.15642,-9.14858 -2.18279,-1.72784 -0.58114,-2.07639 v -26.69924 l -22.62856,-7.35246 -15.69342,21.60014 -2.31779,1.54203 -2.15435,-0.0889 -28.15642,-9.14858 -2.18279,-1.72784 -0.58114,-2.07639 v -26.69924 l -22.62856,-7.35246 -15.69341,21.60013 -2.31779,1.54203 -2.15435,-0.0889 -28.15642,-9.14857 -2.18279,-1.72784 -0.58114,-2.07639 v -29.60541 l 0.96875,-2.60989 1.79518,-1.19434 28.15642,-9.14858 0.50701,0.0209 0.46291,-0.20784 0.53153,0.2489 1.28006,0.0528 1.16974,1.09433 0.52089,0.24392 15.69341,21.60013 22.62856,-7.35246 V 325.614 l 0.28834,-0.77681 0.0474,-0.82723 0.42177,-0.43667 0.21127,-0.56918 0.94706,-0.63008 0.35393,-0.36644 0.22851,-0.0211 0.26568,-0.17676 25.39249,-8.25052 v -25.39956 l -15.87375,-21.84835 -24.15643,-7.8489 -15.69342,21.60013 -0.14445,0.0961 -0.0604,0.16265 -1.08296,0.59801 -1.03001,0.68527 -0.19629,-0.008 -0.12775,0.0705 -0.45129,-0.0944 -1.37902,-0.0569 -25.39248,-8.25051 -13.98522,19.24899 15.69343,21.60014 0.75032,2.68086 -0.75032,2.02142 -17.40163,23.95128 -2.31779,1.54203 -2.15435,-0.0889 -28.15642,-9.14857 -2.18279,-1.72784 -0.58114,-2.07639 v -29.60542 l 0.17658,-0.47572 -0.0546,-0.50448 0.40096,-0.42859 0.44583,-1.2011 1.40223,-0.77431 0.39295,-0.42003 25.39249,-8.25052 v -23.79306 l -25.39249,-8.25052 -2.18279,-1.72784 -0.58114,-2.07639 V 224.1544 l 0.28834,-0.77681 0.0474,-0.82723 0.42177,-0.43667 0.21127,-0.56918 0.94706,-0.63008 0.35393,-0.36644 0.22851,-0.0211 0.26568,-0.17676 25.39249,-8.25052 v -23.79306 l -25.39249,-8.25052 -2.18279,-1.72784 -0.58114,-2.07639 v -29.60541 l 0.96875,-2.60989 1.79518,-1.19434 28.15642,-9.14858 2.78151,0.11484 1.69063,1.33825 17.40163,23.95128 0.75032,2.68086 -0.75032,2.02142 -15.69343,21.60014 13.98522,19.24899 25.39248,-8.25051 2.78151,0.11484 1.69063,1.33825 15.69342,21.60013 24.15643,-7.84889 15.87375,-21.84836 v -25.39955 l -25.39249,-8.25052 -0.39787,-0.31494 -0.49667,-0.10395 -0.5627,-0.73462 -0.72555,-0.57433 -0.16446,-0.58762 -0.24012,-0.31348 0.0259,-0.45198 -0.20244,-0.72331 v -26.69924 l -22.62856,-7.35246 -15.69341,21.60013 -2.31779,1.54203 -2.15435,-0.0889 -28.15642,-9.14857 -2.18279,-1.72784 -0.58114,-2.07639 V 98.74386 l 0.96875,-2.60989 1.79518,-1.19434 28.15642,-9.14857 0.50701,0.02093 0.46291,-0.20784 0.53153,0.2489 1.28007,0.05285 1.16974,1.09434 0.52088,0.24391 15.69341,21.60013 22.62856,-7.35246 V 74.79258 l 0.96875,-2.60989 1.79518,-1.19434 28.15642,-9.14857 2.78152,0.11484 1.69062,1.33825 15.69342,21.60013 22.62856,-7.35246 V 50.8413 l 0.96875,-2.60989 1.79518,-1.19434 28.15642,-9.14857 z m -25.70187,362.37033 v 23.79307 l 22.62856,7.35246 13.98521,-19.24899 -13.98521,-19.249 z m 56.31284,-18.29715 v 23.79307 l 22.62856,7.35246 13.98521,-19.249 -13.98521,-19.24899 z M 583.9297,376.42239 v 23.79307 l 22.62856,7.35246 13.98522,-19.249 -13.98522,-19.24899 z m 28.15642,-86.65655 v 26.69924 l -0.96875,2.60989 -1.79518,1.19434 -25.39249,8.25052 v 26.69924 l -0.96875,2.60989 -1.79518,1.19434 -16.4482,5.34434 15.21213,4.94273 26.92035,-8.74696 2.78151,0.11484 1.69063,1.33825 16.63769,22.89981 15.21214,4.94273 -10.16555,-13.99168 -0.75032,-2.68086 0.75032,-2.02142 15.69343,-21.60014 -15.69343,-21.60014 -0.75032,-2.68086 0.75032,-2.02142 15.69343,-21.60015 -13.98522,-19.24899 z m -101.87088,62.70527 v 23.79306 l 22.62856,7.35246 13.98521,-19.24899 -13.98521,-19.24899 z m 175.58535,-86.65655 v 23.79306 l 25.39249,8.25052 2.18279,1.72784 0.58114,2.07639 v 26.69924 l 25.39249,8.25052 2.18279,1.72784 0.58114,2.07639 v 17.29467 l 9.40162,-12.94022 v -28.30573 l 0.96875,-2.60989 1.79518,-1.19434 26.92036,-8.74695 9.40161,-12.94022 -16.4482,5.34435 -2.78151,-0.11484 -1.69063,-1.33825 -15.69342,-21.60013 -25.39249,8.25051 -2.78152,-0.11484 -1.69062,-1.33825 -15.69341,-21.60013 z m 73.71446,53.5567 v 23.79306 l 22.62856,7.35246 13.98521,-19.24899 -13.98521,-19.24899 z M 475.41199,304.56855 v 23.79306 l 22.62856,7.35246 13.98522,-19.24899 -13.98522,-19.24899 z m 164.06662,-102.01429 -0.14445,0.0961 -0.0604,0.16265 -1.08296,0.59801 -1.03001,0.68527 -0.19629,-0.008 -0.12775,0.0705 -0.45129,-0.0944 -1.37902,-0.0569 -25.39249,-8.25052 -13.98521,19.249 15.69342,21.60014 0.75032,2.68086 -0.75032,2.02142 -15.69342,21.60014 13.98521,19.24899 25.39249,-8.25052 2.78151,0.11484 1.69063,1.33825 15.69342,21.60013 22.62856,-7.35246 v -26.69923 l 0.28834,-0.77681 0.0474,-0.82723 0.42177,-0.43667 0.21127,-0.56918 0.94706,-0.63008 0.35393,-0.36644 0.22851,-0.0211 0.26568,-0.17676 25.39249,-8.25052 v -23.79306 l -25.39249,-8.25052 -0.39787,-0.31494 -0.49667,-0.10395 -0.5627,-0.73462 -0.72555,-0.57433 -0.16446,-0.58762 -0.24012,-0.31348 0.0259,-0.45198 -0.20244,-0.72331 v -26.69924 l -22.62856,-7.35246 z m 165.59448,54.11173 v 23.79306 l 22.62856,7.35246 13.98522,-19.24899 -13.98522,-19.24899 z m -301.50468,-42.95984 16.6377,22.89982 0.75032,2.68086 -0.75032,2.02142 -16.6377,22.89982 v 15.995 l 10.16556,-13.99169 0.82087,-0.54612 0.68494,-0.70915 0.44223,-0.0408 0.36975,-0.246 1.58789,0.0655 0.37227,-0.0343 0.0393,0.0513 0.15489,0.006 25.39248,8.25051 15.69342,-21.60013 0.82087,-0.54612 0.68494,-0.70915 0.44223,-0.0408 0.36975,-0.246 1.58789,0.0656 0.37227,-0.0343 0.0393,0.0513 0.15489,0.006 25.39249,8.25052 13.98521,-19.24899 -13.98521,-19.24899 -25.39249,8.25051 -2.78152,-0.11484 -1.69062,-1.33825 -15.69342,-21.60013 -25.39248,8.25051 -2.78151,-0.11484 -1.69063,-1.33825 -10.16556,-13.99169 z m -28.15642,13.35443 v 23.79306 l 22.62856,7.35246 13.98522,-19.24899 -13.98522,-19.24899 z m 329.6611,-29.60542 v 23.79307 l 22.62856,7.35246 13.98522,-19.249 -13.98522,-19.24899 z m -62.95966,-59.95731 -0.96875,2.60989 -1.79518,1.19434 -25.39249,8.25052 v 26.69924 l -0.96875,2.60989 -1.79518,1.19434 -25.39249,8.25052 v 23.79306 l 22.62856,7.35246 15.69341,-21.60013 0.82087,-0.54612 0.68494,-0.70915 0.44223,-0.0408 0.36975,-0.246 1.58789,0.0656 0.37227,-0.0343 0.0393,0.0513 0.15489,0.006 25.39249,8.25051 15.69342,-21.60013 0.82087,-0.54612 0.68494,-0.70915 0.44223,-0.0408 0.36975,-0.246 1.58789,0.0656 0.37227,-0.0343 0.0393,0.0513 0.15489,0.006 16.4482,5.34435 -9.40161,-12.94021 -26.92036,-8.74696 -0.39787,-0.31494 -0.49667,-0.10395 -0.5627,-0.73462 -0.72555,-0.57433 -0.16446,-0.58762 -0.24012,-0.31348 0.0259,-0.45198 -0.20244,-0.72331 V 133.1434 l -9.40162,-12.94022 z M 627.95988,92.9979 l -16.63769,22.89981 -0.14445,0.0961 -0.0604,0.16265 -1.08296,0.59801 -1.03001,0.68527 -0.19629,-0.008 -0.12775,0.0705 -0.45129,-0.0944 -1.37902,-0.0569 -26.92035,-8.74696 -15.21214,4.94273 16.44821,5.34435 2.18279,1.72784 0.58114,2.07639 v 26.69923 l 25.39249,8.25052 2.18279,1.72784 0.58114,2.07639 v 26.69924 l 22.62856,7.35246 13.98522,-19.24899 -15.69343,-21.60014 -0.18039,-0.64452 -0.40698,-0.53133 0.0439,-0.76606 -0.20682,-0.73895 0.29457,-0.7936 0.0275,-0.48072 0.2451,-0.25376 0.18312,-0.49334 15.69343,-21.60014 -15.69343,-21.60015 -0.18039,-0.64452 -0.40698,-0.53133 0.0439,-0.76606 -0.20682,-0.73895 0.29457,-0.7936 0.0275,-0.48072 0.2451,-0.25376 0.18312,-0.49334 10.16555,-13.99168 z m -152.54789,56.5547 v 23.79306 l 22.62856,7.35246 13.98522,-19.24899 -13.98522,-19.24899 z m 284.10306,-14.8027 v 23.79306 l 22.62856,7.35246 13.98521,-19.24899 -13.98521,-19.24899 z M 510.21524,101.65004 v 23.79306 l 22.62856,7.35246 13.98521,-19.24899 L 532.8438,94.29758 Z M 583.9297,77.69876 v 23.79306 l 22.62856,7.35246 13.98522,-19.24899 -13.98522,-19.24899 z m 130.02731,-5.65413 v 23.79306 l 22.62856,7.35246 13.98521,-19.24899 -13.98521,-19.24899 z M 657.64417,53.74748 V 77.54054 L 680.27273,84.893 694.25794,65.64401 680.27273,46.39502 Z"
     stroke-miterlimit="10"
     id="path2" />
  <path
     fill="#222222"
     stroke="#cccccc"
     paint-order="fill stroke markers"
     d="m 200.88139,461.74773 0.38353,0.0158 1.69063,1.33825 12.65589,17.41934 17.71375,5.75554 11.71161,-16.11966 0.82087,-0.54612 0.68494,-0.70915 0.44223,-0.0408 0.36975,-0.246 1.58789,0.0655 0.37227,-0.0343 0.0393,0.0513 0.15489,0.006 21.71374,7.05522 2.18279,1.72784 0.58114,2.07639 v 22.83117 l -0.96875,2.60989 -1.79518,1.19434 -18.94981,6.15717 v 17.01883 l 16.18588,5.2591 11.71162,-16.11966 2.31779,-1.54203 2.15435,0.0889 21.71374,7.05522 2.18279,1.72784 0.58114,2.07639 v 19.92501 l 16.18587,5.2591 10.00342,-13.76852 -11.71163,-16.11967 -0.75032,-2.68086 0.75032,-2.02142 13.41983,-18.47081 2.31779,-1.54203 2.15435,0.0889 21.71374,7.05523 2.18279,1.72784 0.58114,2.07639 v 19.925 l 17.71374,5.75554 20.47766,-6.6536 2.78151,0.11484 1.69063,1.33825 13.41983,18.47081 0.75032,2.68086 -0.75032,2.02142 -12.6559,17.41935 v 18.62532 l 18.94981,6.15716 2.18279,1.72784 0.58114,2.07639 v 22.83118 l -0.96875,2.60989 -1.79518,1.19434 -21.71374,7.05522 -2.78151,-0.11484 -1.69063,-1.33825 -11.71161,-16.11966 -16.18588,5.2591 v 17.01884 l 18.94981,6.15716 2.18279,1.72784 0.58114,2.07639 v 22.83117 l -0.96875,2.60989 -1.79518,1.19434 -18.94981,6.15716 v 17.01884 l 16.18588,5.2591 11.71161,-16.11966 0.82087,-0.54612 0.68494,-0.70915 0.44223,-0.0408 0.36975,-0.246 1.58789,0.0656 0.37227,-0.0343 0.0393,0.0513 0.15489,0.006 21.71374,7.05522 2.18279,1.72784 0.58114,2.07639 v 22.83118 l -0.96875,2.60989 -1.79518,1.19434 -18.94981,6.15716 v 18.62532 l 12.6559,17.41935 0.59707,2.13329 0.16686,0.21785 -0.0604,0.16264 0.0468,0.16708 -0.75032,2.02142 -13.41983,18.47081 -0.14445,0.0961 -0.0604,0.16265 -1.08296,0.59801 -1.03001,0.68527 -0.19629,-0.008 -0.12775,0.0705 -0.45129,-0.0944 -1.37902,-0.0569 -20.47766,-6.6536 -17.71374,5.75554 v 19.925 l -0.96875,2.60989 -1.79518,1.19434 -21.71374,7.05523 -0.34211,-0.0141 -0.29972,0.1655 -1.05882,-0.22159 -1.08086,-0.0446 -0.31185,-0.24685 -0.27332,-0.0572 -0.30965,-0.40427 -0.79581,-0.62993 -13.41983,-18.47081 -0.18039,-0.64452 -0.40698,-0.53133 0.0439,-0.76606 -0.20682,-0.73895 0.29457,-0.7936 0.0275,-0.48072 0.2451,-0.25376 0.18312,-0.49334 11.71163,-16.11967 -10.00342,-13.76852 -16.18587,5.2591 v 19.92501 l -0.96875,2.60989 -1.79518,1.19434 -21.71374,7.05522 -0.34211,-0.0141 -0.29972,0.1655 -1.05882,-0.22159 -1.08086,-0.0446 -0.31185,-0.24685 -0.27332,-0.0572 -0.30965,-0.40427 -0.79581,-0.62993 -11.71162,-16.11966 -16.18588,5.2591 v 17.01883 l 18.94981,6.15717 2.18279,1.72784 0.58114,2.07639 v 22.83117 l -0.96875,2.60989 -1.79518,1.19434 -21.71374,7.05522 -0.34211,-0.0141 -0.29972,0.1655 -1.05882,-0.22159 -1.08086,-0.0446 -0.31185,-0.24685 -0.27332,-0.0572 -0.30965,-0.40427 -0.79581,-0.62993 -11.71161,-16.11966 -17.71375,5.75554 -12.65589,17.41934 -0.14445,0.0961 -0.0604,0.16265 -1.08296,0.59801 -1.03001,0.68527 -0.19629,-0.008 -0.12775,0.0705 -0.45129,-0.0945 -1.37902,-0.0569 -21.71374,-7.05522 -0.39787,-0.31494 -0.49667,-0.10395 -0.5627,-0.73462 -0.72555,-0.57433 -0.16446,-0.58762 -0.24012,-0.31348 0.0259,-0.45198 -0.20244,-0.72331 v -21.53149 l -10.94769,-15.0682 -18.9498,6.15716 -0.34211,-0.0141 -0.29972,0.1655 -1.05882,-0.22159 -1.08086,-0.0446 -0.31185,-0.24685 -0.27332,-0.0572 -0.30965,-0.40427 -0.79581,-0.62993 -13.41983,-18.47081 -0.18039,-0.64452 -0.40698,-0.53133 0.0439,-0.76606 -0.20682,-0.73895 0.29457,-0.7936 0.0275,-0.48072 0.2451,-0.25376 0.18312,-0.49334 13.41983,-18.47081 0.82087,-0.54612 0.68494,-0.70915 0.44223,-0.0408 0.36975,-0.246 1.58789,0.0656 0.37227,-0.0343 0.0393,0.0513 0.15489,0.006 18.9498,6.15716 10.00342,-13.76852 -10.00342,-13.76851 -18.9498,6.15716 -2.78151,-0.11484 -1.69063,-1.33825 -13.41983,-18.47081 -0.75032,-2.68086 0.75032,-2.02142 11.71163,-16.11967 -10.00342,-13.76852 -16.18588,5.2591 v 19.92501 l -0.96875,2.60989 -1.79518,1.19434 -21.71374,7.05522 -2.78151,-0.11484 -1.69063,-1.33825 -13.41982,-18.47081 -0.75032,-2.68086 0.75032,-2.02142 11.71162,-16.11967 -10.94768,-15.0682 -20.47768,-6.6536 -2.18279,-1.72784 -0.58114,-2.07639 v -22.83117 l 0.28834,-0.77681 0.04737,-0.82723 0.42177,-0.43667 0.21127,-0.56918 0.94706,-0.63008 0.35393,-0.36644 0.22851,-0.0211 0.26568,-0.17676 20.47768,-6.6536 10.94768,-15.0682 -11.71162,-16.11967 -0.18039,-0.64452 -0.40698,-0.53133 0.04387,-0.76606 -0.20682,-0.73895 0.29457,-0.7936 0.02753,-0.48072 0.2451,-0.25376 0.18312,-0.49334 13.41982,-18.47081 0.82087,-0.54612 0.68494,-0.70915 0.44223,-0.0408 0.36975,-0.246 1.58789,0.0656 0.37227,-0.0343 0.0393,0.0513 0.15489,0.006 21.71374,7.05522 2.18279,1.72784 0.58114,2.07639 v 19.92501 l 16.18588,5.2591 10.00342,-13.76852 -11.71163,-16.11967 -0.18039,-0.64452 -0.40698,-0.53133 0.0439,-0.76606 -0.20682,-0.73895 0.29457,-0.7936 0.0275,-0.48072 0.2451,-0.25376 0.18312,-0.49334 13.41983,-18.47081 0.82087,-0.54612 0.68494,-0.70915 0.44223,-0.0408 0.36975,-0.246 1.58789,0.0656 0.37227,-0.0343 0.0393,0.0513 0.15489,0.006 18.9498,6.15716 10.00342,-13.76851 -10.00342,-13.76852 -18.9498,6.15716 -0.34211,-0.0141 -0.29972,0.1655 -1.05882,-0.22159 -1.08086,-0.0446 -0.31185,-0.24685 -0.27332,-0.0572 -0.30965,-0.40427 -0.79581,-0.62993 -13.41983,-18.47081 -0.18039,-0.64452 -0.40698,-0.53133 0.0439,-0.76606 -0.20682,-0.73895 0.29457,-0.7936 0.0275,-0.48072 0.2451,-0.25376 0.18312,-0.49334 13.41983,-18.47081 0.82087,-0.54612 0.68494,-0.70915 0.44223,-0.0408 0.36975,-0.246 1.58789,0.0655 0.37227,-0.0343 0.0393,0.0513 0.15489,0.006 18.9498,6.15716 10.94769,-15.0682 v -21.53149 l 0.28834,-0.77681 0.0474,-0.82723 0.42177,-0.43667 0.21127,-0.56918 0.94706,-0.63008 0.35393,-0.36644 0.22851,-0.0211 0.26568,-0.17676 21.71374,-7.05522 1.14092,0.0471 1.13703,-0.10481 z m -20.40352,304.30627 -12.65589,17.41934 -0.14445,0.0961 -0.0604,0.16265 -1.08296,0.59801 -1.03001,0.68527 -0.19629,-0.008 -0.12775,0.0705 -0.45129,-0.0945 -1.37902,-0.0569 -18.9498,-6.15716 -10.00342,13.76852 10.00342,13.76852 18.9498,-6.15716 1.14092,0.0471 1.13703,-0.10481 0.12003,0.15671 0.38353,0.0158 1.69063,1.33825 13.41983,18.47081 0.76393,2.35114 v 19.925 l 16.18588,5.2591 11.71162,-16.11966 0.98367,-0.71468 0.52214,-0.54059 0.25416,-0.0234 0.24003,-0.17439 21.71374,-7.05522 1.14092,0.0471 1.13703,-0.10481 0.12003,0.15671 0.38353,0.0158 1.69063,1.33825 11.71161,16.11966 16.18588,-5.2591 v -17.01883 l -18.94981,-6.15717 -0.39787,-0.31494 -0.49667,-0.10395 -0.5627,-0.73462 -0.72555,-0.57433 -0.16446,-0.58762 -0.24012,-0.31348 0.0259,-0.45198 -0.20244,-0.72331 v -21.53149 l -10.94768,-15.0682 -18.94981,6.15716 -2.78151,-0.11484 -1.69063,-1.33825 -11.71162,-16.11966 z m 214.73333,-56.46389 -0.14445,0.0961 -0.0604,0.16265 -1.08296,0.59801 -1.03001,0.68527 -0.19629,-0.008 -0.12775,0.0705 -0.45129,-0.0944 -1.37902,-0.0569 -20.47767,-6.6536 -17.71374,5.75554 v 19.925 l -0.96875,2.60989 -1.79518,1.19434 -18.94981,6.15717 V 758.657 l 12.6559,17.41935 0.59707,2.13329 0.16686,0.21785 -0.0604,0.16264 0.0468,0.16708 -0.75032,2.02142 -11.71163,16.11967 10.00342,13.76852 16.18588,-5.25911 v -19.925 l 0.28834,-0.77681 0.0474,-0.82723 0.42177,-0.43667 0.21127,-0.56918 0.94706,-0.63008 0.35393,-0.36644 0.22851,-0.0211 0.26568,-0.17676 21.71374,-7.05522 h 1.65196 l 0.62599,-0.0577 0.0442,0.0577 h 0.14999 l 18.9498,6.15716 10.00342,-13.76852 -11.71163,-16.11967 -0.2308,-0.71034 -0.35657,-0.46551 0.0308,-0.53722 -0.20732,-0.63807 v -22.83117 l 0.28834,-0.77681 0.0474,-0.82723 0.42177,-0.43667 0.21127,-0.56918 0.94706,-0.63008 0.35393,-0.36644 0.22851,-0.0211 0.26568,-0.17676 18.94981,-6.15716 v -17.01884 l -16.18588,-5.2591 z m -134.64442,7.61025 v 19.92501 l -0.96875,2.60989 -1.79518,1.19434 -18.9498,6.15716 v 18.62532 l 10.94768,15.0682 18.94981,-6.15716 1.14092,0.0471 1.13703,-0.10481 0.12003,0.15671 0.38353,0.0158 1.69063,1.33825 11.71162,16.11966 16.18588,-5.2591 v -19.92501 l 0.28834,-0.77681 0.0474,-0.82723 0.42177,-0.43667 0.21127,-0.56918 0.94706,-0.63008 0.35393,-0.36644 0.22851,-0.0211 0.26568,-0.17676 18.9498,-6.15716 v -18.62532 l -10.94768,-15.0682 -18.94981,6.15716 -2.78151,-0.11484 -1.69063,-1.33825 -11.71162,-16.11966 z m -55.90303,-155.033 11.71163,16.11967 0.75032,2.68086 -0.75032,2.02142 -11.71163,16.11966 11.71163,16.11967 0.75032,2.68086 -0.75032,2.02142 -13.41983,18.47081 -2.31779,1.54203 -2.15435,-0.0889 -18.94981,-6.15716 -11.71162,16.11966 -2.31779,1.54203 -2.15435,-0.0889 -18.9498,-6.15716 -10.00342,13.76852 10.00342,13.76851 18.9498,-6.15716 1.14092,0.0471 1.13703,-0.10481 0.12003,0.15671 0.38353,0.0158 1.69063,1.33825 11.71162,16.11966 18.94981,-6.15716 1.14092,0.0471 1.13703,-0.10481 0.12003,0.15671 0.38353,0.0158 1.69063,1.33825 13.41983,18.47081 0.59707,2.13329 0.16686,0.21785 -0.0604,0.16264 0.0468,0.16708 -0.75032,2.02142 -11.71163,16.11967 11.71163,16.11967 0.59707,2.13329 0.16686,0.21785 -0.0604,0.16264 0.0468,0.16708 -0.75032,2.02142 -11.71163,16.11966 10.00342,13.76852 16.18588,-5.2591 v -19.925 l 0.96875,-2.60989 1.79518,-1.19434 18.9498,-6.15716 v -19.92501 l 0.96875,-2.60989 1.79518,-1.19434 21.71374,-7.05522 2.78151,0.11484 1.69063,1.33825 11.71162,16.11966 18.94981,-6.15716 2.78151,0.11484 1.69063,1.33825 11.71161,16.11966 16.18588,-5.25911 v -17.01883 l -18.94981,-6.15716 -0.39787,-0.31494 -0.49667,-0.10395 -0.5627,-0.73462 -0.72555,-0.57433 -0.16446,-0.58762 -0.24012,-0.31348 0.0259,-0.45198 -0.20244,-0.72331 v -19.92501 l -18.9498,-6.15716 -0.39787,-0.31494 -0.49667,-0.10395 -0.5627,-0.73462 -0.72555,-0.57433 -0.16446,-0.58762 -0.24012,-0.31348 0.0259,-0.45198 -0.20244,-0.72331 v -22.83117 l 0.28834,-0.77681 0.0474,-0.82723 0.42177,-0.43667 0.21127,-0.56918 0.94706,-0.63008 0.35393,-0.36644 0.22851,-0.0211 0.26568,-0.17676 18.9498,-6.15716 v -19.92501 l 0.28834,-0.77681 0.0474,-0.82723 0.42177,-0.43667 0.21127,-0.56918 0.94706,-0.63008 0.35393,-0.36644 0.22851,-0.0211 0.26568,-0.17676 18.94981,-6.15716 v -17.01883 l -16.18588,-5.2591 -11.71161,16.11965 -0.14445,0.0961 -0.0604,0.16265 -1.08296,0.59801 -1.03001,0.68527 -0.19629,-0.008 -0.12775,0.0705 -0.45129,-0.0944 -1.37902,-0.0569 -18.94981,-6.15716 -11.71162,16.11966 -0.14445,0.0961 -0.0604,0.16265 -1.08296,0.59801 -1.03001,0.68527 -0.19629,-0.008 -0.12775,0.0705 -0.45129,-0.0945 -1.37902,-0.0569 -21.71374,-7.05522 -0.39787,-0.31494 -0.49667,-0.10395 -0.5627,-0.73462 -0.72555,-0.57433 -0.16446,-0.58762 -0.24012,-0.31348 0.0259,-0.45198 -0.20244,-0.72331 v -19.925 l -18.9498,-6.15717 -0.39787,-0.31494 -0.49667,-0.10395 -0.5627,-0.73462 -0.72555,-0.57433 -0.16446,-0.58762 -0.24012,-0.31348 0.0259,-0.45198 -0.20244,-0.72331 v -19.925 l -16.18588,-5.2591 z m -59.31944,118.58782 -10.94769,15.0682 11.71163,16.11967 0.75032,2.68086 -0.75032,2.02142 -11.71163,16.11967 10.00342,13.76852 18.9498,-6.15716 2.78151,0.11484 1.69063,1.33825 11.71162,16.11965 17.71375,-5.75554 10.94769,-15.06819 -11.71163,-16.11967 -0.18039,-0.64452 -0.40698,-0.53133 0.0439,-0.76606 -0.20682,-0.73895 0.29457,-0.7936 0.0275,-0.48072 0.2451,-0.25376 0.18312,-0.49334 11.71163,-16.11967 -10.00342,-13.76852 -18.94981,6.15716 -0.34211,-0.0141 -0.29972,0.1655 -1.05882,-0.22159 -1.08086,-0.0446 -0.31185,-0.24685 -0.27332,-0.0572 -0.30965,-0.40427 -0.79581,-0.62993 -11.71162,-16.11966 z m -67.79499,-77.28584 11.71162,16.11967 0.59707,2.13329 0.16686,0.21785 -0.06037,0.16264 0.04676,0.16708 -0.75032,2.02142 -13.41982,18.47081 -0.14894,0.10821 -0.05588,0.15054 -0.63059,0.34821 -1.16459,0.84613 -18.94981,6.15716 v 17.01883 l 18.94981,6.15716 2,1.45309 13.41982,18.47081 0.75032,2.68086 -0.75032,2.02142 -11.71162,16.11967 10.00341,13.76852 16.18588,-5.2591 V 702.8786 l 0.96875,-2.60989 1.79518,-1.19434 20.47768,-6.6536 10.94769,-15.0682 -11.71163,-16.11966 -0.75032,-2.68086 0.75032,-2.02142 11.71163,-16.11967 -10.94769,-15.0682 -20.47768,-6.6536 -0.39787,-0.31494 -0.49667,-0.10395 -0.5627,-0.73462 -0.72555,-0.57433 -0.16446,-0.58762 -0.24012,-0.31348 0.0259,-0.45198 -0.20244,-0.72331 v -19.92501 l -16.18588,-5.2591 z m 253.28459,17.01661 v 19.92501 l -0.96875,2.60989 -1.79518,1.19434 -18.9498,6.15716 v 17.01883 l 18.9498,6.15716 2.18279,1.72784 0.58114,2.07639 v 19.92501 l 17.71374,5.75554 17.71374,-5.75554 v -19.92501 l 0.96875,-2.60989 1.79518,-1.19434 18.94981,-6.15716 v -17.01883 l -18.94981,-6.15716 -2.18279,-1.72784 -0.58114,-2.07639 v -19.92501 l -17.71374,-5.75554 z m -163.01193,-44.55187 -0.14445,0.0961 -0.0604,0.16265 -1.08296,0.59801 -1.03001,0.68527 -0.19629,-0.008 -0.12775,0.0705 -0.45129,-0.0944 -1.37902,-0.0569 -18.9498,-6.15716 -10.00342,13.76852 11.71163,16.11967 0.59707,2.13329 0.16686,0.21785 -0.0604,0.16264 0.0468,0.16708 -0.75032,2.02142 -11.71163,16.11967 10.94769,15.0682 17.71374,5.75554 11.71162,-16.11966 2.31779,-1.54203 2.15435,0.0889 18.94981,6.15716 10.00342,-13.76852 -11.71163,-16.11967 -0.75032,-2.68086 0.75032,-2.02142 11.71163,-16.11966 -10.94769,-15.0682 -17.71375,-5.75554 z m 163.9562,-55.06871 11.71163,16.11967 0.75032,2.68086 -0.75032,2.02142 -12.6559,17.41935 V 577.732 l 18.94981,6.15716 2.18279,1.72784 0.58114,2.07639 v 19.925 l 17.71374,5.75554 20.47767,-6.6536 2.78151,0.11484 1.69063,1.33825 11.71161,16.11966 16.18588,-5.2591 v -17.01884 l -18.94981,-6.15716 -2.18279,-1.72784 -0.58114,-2.07639 v -22.83117 l 0.76393,-2.35114 11.71163,-16.11967 -10.00342,-13.76852 -18.9498,6.15716 h -2.47214 l -21.71374,-7.05522 -2.18279,-1.72784 -0.58114,-2.07639 v -19.925 l -16.18588,-5.25911 z m -58.5555,20.82195 -2.31779,1.54203 -2.15435,-0.0889 -18.94981,-6.15716 -10.94768,15.0682 v 18.62532 l 18.9498,6.15717 2.18279,1.72784 0.58114,2.07639 v 19.925 l 16.18588,5.2591 11.71162,-16.11966 0.82087,-0.54612 0.68494,-0.70915 0.44223,-0.0408 0.36975,-0.246 1.58789,0.0656 0.37227,-0.0343 0.0393,0.0513 0.15489,0.006 18.94981,6.15716 10.94768,-15.06819 v -18.62533 l -18.9498,-6.15716 -2.18279,-1.72784 -0.58114,-2.07639 v -19.92501 l -16.18588,-5.2591 z m -91.21694,-66.27298 v 19.925 l -0.76393,2.35114 -13.41983,18.47081 -0.14445,0.0961 -0.0604,0.16265 -1.08296,0.59801 -1.03001,0.68527 -0.19629,-0.008 -0.12775,0.0705 -0.45129,-0.0945 -1.37902,-0.0569 -18.9498,-6.15716 -10.00342,13.76852 10.00342,13.76852 18.9498,-6.15716 1.14092,0.0471 1.13703,-0.10481 0.12003,0.15671 0.38353,0.0158 1.69063,1.33825 12.65589,17.41934 17.71375,5.75554 11.71162,-16.11966 2.31779,-1.54203 2.15435,0.0889 18.94981,6.15716 10.94768,-15.0682 v -21.53149 l 0.28834,-0.77681 0.0474,-0.82723 0.42177,-0.43667 0.21127,-0.56918 0.94706,-0.63008 0.35393,-0.36644 0.22851,-0.0211 0.26568,-0.17676 18.94981,-6.15717 v -17.01883 l -16.18588,-5.2591 -11.71161,16.11966 -0.14445,0.0961 -0.0604,0.16265 -1.08296,0.59801 -1.03001,0.68527 -0.19629,-0.008 -0.12775,0.0705 -0.45129,-0.0944 -1.37902,-0.0569 -21.71374,-7.05522 -0.44789,-0.32541 -0.44665,-0.0935 -0.39903,-0.52095 -0.70643,-0.51325 -11.71162,-16.11966 z"
     stroke-miterlimit="10"
     id="path3" />
  <path
     fill="#222222"
     stroke="#cccccc"
     paint-order="fill stroke markers"
     d="m 686.12263,458.34703 1.69063,1.33825 17.41676,23.97211 28.18091,-9.15653 1.14092,0.0471 1.13703,-0.10481 0.12003,0.15671 0.38353,0.0158 1.69063,1.33825 30.94484,42.59192 0.13676,0.48865 0.34072,0.37603 0.28645,1.48646 v 49.74034 l 47.30588,15.37061 0.13604,0.10768 0.17334,0.007 1.69062,1.33825 30.94484,42.59192 0.75032,2.68086 -0.75032,2.02142 -17.41676,23.97211 17.41676,23.97212 0.59707,2.13329 0.16686,0.21785 -0.0604,0.16264 0.0468,0.16708 -0.75032,2.02142 -30.94484,42.59192 -0.14445,0.0961 -0.0604,0.16265 -1.79518,1.19434 -47.30588,15.37061 v 49.74033 l -0.0604,0.16264 0.0468,0.16708 -0.75032,2.02142 -30.94484,42.59192 -2.31779,1.54203 -2.15435,-0.0889 -28.18091,-9.15653 -17.41676,23.97211 -0.14445,0.0961 -0.0604,0.16265 -1.08296,0.59801 -1.03001,0.68527 -0.19629,-0.008 -0.12775,0.0705 -0.45129,-0.0945 -1.37902,-0.0569 -50.0698,-16.26867 -0.39787,-0.31494 -0.49667,-0.10395 -1.10546,-1.0342 -29.23664,-40.24077 -47.30587,15.37061 -0.50701,-0.0209 -0.46291,0.20784 -1.50222,-0.18691 -50.06981,-16.26867 -2.18279,-1.72784 -0.58114,-2.07639 v -29.63116 l -28.18091,-9.15653 -2.18279,-1.72784 -0.58114,-2.07639 v -52.64651 l 0.0604,-0.16264 -0.0468,-0.16708 0.29457,-0.7936 0.0275,-0.48072 0.2451,-0.25376 0.18312,-0.49334 29.23664,-40.24078 -29.23664,-40.24078 -0.0468,-0.16707 -0.13603,-0.10768 -0.16446,-0.58762 -0.24012,-0.31348 0.0259,-0.45198 -0.20244,-0.72331 v -52.64651 l 0.96875,-2.60989 1.79518,-1.19434 28.18091,-9.15653 v -29.63116 l 0.28834,-0.77681 0.0474,-0.82723 0.42177,-0.43667 0.21127,-0.56918 0.94706,-0.63008 0.35393,-0.36644 0.22851,-0.0211 0.26568,-0.17676 50.06981,-16.26867 0.50701,0.0209 0.46291,-0.20784 1.15319,0.14348 0.15484,-0.0143 0.0284,0.0371 0.16579,0.0206 47.30587,15.37061 29.23664,-40.24077 0.42248,-0.28108 0.25234,-0.44024 1.32518,-0.73177 50.0698,-16.26867 z m -38.67095,380.8026 35.59765,11.56638 14.18068,-19.51804 -12.65282,-4.11115 z m 70.54248,-22.92064 -7.81987,10.76313 22.94485,7.45522 22.00056,-30.28117 z m -79.48677,-26.8197 v 44.23481 l 42.0698,-13.6693 v -44.23481 z m -51.59768,-15.77222 -22.94483,31.58085 38.36159,-12.46444 2.78151,0.11484 1.69063,1.33825 23.70878,32.63233 v -39.0361 l -16.65283,-22.92064 z m 101.66748,46.33772 13.5971,4.41797 8.40347,-11.56638 -22.00057,-30.28118 z m 2.47214,-47.6374 26.00056,35.7867 42.06981,-13.66931 -26.00056,-35.7867 z m -163.55716,-2.10293 26.00057,35.78671 26.00057,-35.78671 -26.00057,-35.78671 z m -20.06924,23.41708 35.59767,11.56638 -22.94483,-31.58085 -12.65284,-4.11116 z M 738.647,724.33463 v 28.33148 l 22.94484,31.58086 V 743.9112 l 0.28834,-0.77681 0.0474,-0.82723 0.42177,-0.43667 0.21127,-0.56918 0.94706,-0.63008 0.35393,-0.36644 0.22851,-0.0211 0.26568,-0.17676 38.36159,-12.46443 -37.12552,-12.06282 z m -116.79244,37.94817 14.18069,19.51803 35.59765,-11.56637 -37.12551,-12.06282 z M 507.42293,746.81738 v 14.29683 l 13.59711,4.41796 22.00056,-30.28117 z m 78.54251,18.71479 22.94484,-7.45523 -7.81987,-10.76313 -37.12553,-12.06281 z m 52.54195,-61.30672 v 46.83417 l 44.54194,14.47255 27.52843,-37.88963 -27.52843,-37.88963 z m 79.48677,26.8197 -22.94483,31.58085 35.59767,-11.56638 v -24.12563 z m -241.51607,20.01447 22.94484,7.45523 v -13.30397 l -22.94484,-31.58086 z m 132.02872,-7.14842 8.40348,11.56638 13.5971,-4.41796 v -37.42961 z m -129.55658,-40.48899 26.00056,35.7867 42.06981,-13.6693 -26.00056,-35.7867 z m 78.54251,-25.52001 v 46.83417 l 44.54194,14.47254 27.52844,-37.88963 -27.52844,-37.88963 z m 159.55715,45.03805 13.59711,-4.41796 v -14.29683 l -35.59767,-11.56638 z m 52.54195,-14.47255 42.06981,13.66931 V 677.9022 L 769.59184,664.23289 Z M 738.647,702.61896 v 13.30397 l 22.94484,-7.45523 v -37.4296 z m -211.15483,-17.56834 22.00057,30.28118 v -39.03609 l -7.81988,-10.76314 z m 292.16948,-8.75491 v 39.03609 l 22.00057,-30.28118 -14.18069,-19.51805 z m -211.15484,-17.56835 27.52844,37.88963 44.54194,-14.47254 v -46.83417 l -44.54194,-14.47255 z m 80.07038,-23.41708 v 46.83416 l 44.54195,14.47255 27.52843,-37.88963 -27.52843,-37.88963 z m -181.91819,21.06594 0.59707,2.13329 0.16686,0.21785 -0.0604,0.16264 0.0468,0.16708 -0.75032,2.02142 -23.70877,32.63232 37.12554,-12.06281 16.65282,-22.92065 -16.65282,-22.92064 -37.12554,-12.06282 z m 39.95814,2.35114 8.40346,11.56638 35.59765,-11.56638 -35.59765,-11.56637 z m 231.91899,0 35.59766,11.56638 8.40346,-11.56638 -8.40346,-11.56637 z m -221.04339,-66.009 v 46.83417 l 44.54194,14.47254 27.52844,-37.88963 -27.52844,-37.88963 z m 212.0991,16.26867 v 44.2348 l 42.06981,-13.66931 v -44.2348 z m -242.09967,23.41708 14.18069,19.51805 7.81988,-10.76314 v -39.03609 z m 292.16948,8.75491 7.81988,10.76314 14.18069,-19.51805 -22.00057,-30.28118 z M 738.647,614.83576 761.59184,646.41662 V 608.98703 L 738.647,601.5318 Z m -259.69677,-0.80325 42.06981,13.66931 26.00056,-35.7867 -42.06981,-13.66931 z M 638.50739,566.3951 v 46.83417 l 44.54194,14.47255 27.52843,-37.88963 -27.52843,-37.88963 z m 56.54194,58.40055 35.59767,-11.56638 v -14.29683 l -13.59711,-4.41796 z m -86.54252,-51.25213 22.00058,30.28119 v -37.4296 l -13.59711,-4.41797 z m -132.02872,-7.14841 v 37.42959 l 22.94484,-31.58086 v -13.30396 z m 262.16891,-1.6065 v 28.33148 l 26.94484,8.75491 37.12552,-12.06281 -38.36159,-12.46444 -2.18279,-1.72784 -0.58114,-2.07639 v -40.33577 z m -20.65284,21.62097 12.65284,4.11116 V 566.3951 l -35.59767,-11.56638 z m -190.50199,-39.18931 26.00057,35.78671 26.00057,-35.78671 -26.00057,-35.78672 z m 36.47271,34.98346 37.12553,-12.06282 7.81987,-10.76313 -22.94484,-7.45522 z m -56.54195,-25.86321 v 14.29683 l 35.59767,11.56638 -22.00056,-30.28117 z m 114.43163,-1.16859 12.65283,4.11115 37.12552,-12.06281 -35.59766,-11.56638 z m 69.19477,-10.05459 42.06981,13.6693 26.00056,-35.7867 -42.06981,-13.66931 z m -84.25072,-21.86919 -2.31779,1.54203 -2.15435,-0.0889 -38.36159,-12.46444 22.94483,31.58086 26.94485,8.75491 16.65283,-22.92065 v -39.0361 z m -99.37568,0.55503 v 24.12564 l 12.65284,-4.11116 22.94483,-31.58086 z m 131.08446,4.24225 42.0698,13.6693 v -44.2348 l -42.0698,-13.66931 z m 50.0698,-30.5655 v 37.4296 l 22.00057,-30.28119 -8.40346,-11.56637 z m 21.59711,-7.01732 7.81986,10.76312 37.12554,12.06282 -22.00056,-30.28117 z m -62.72263,-12.15752 37.12552,12.06282 12.65283,-4.11116 -14.18069,-19.51804 z"
     stroke-miterlimit="10"
     id="path4" />
</svg>
