<svg version="1.1" xmlns="http://www.w3.org/2000/svg" xmlns:xlink="http://www.w3.org/1999/xlink" width="900" height="900"><defs/><g><path fill="#222222" stroke="#ffffff" paint-order="fill stroke markers" d=" M 453.8822849999999 75.51111 L 457.499995 77.00962000000001 L 483.48075499999993 92.00962000000001 L 496.471145 99.50962000000001 L 535.442285 122.00962000000001 L 538.5488849999999 124.39340000000001 L 540.9326649999999 127.5 L 542.4311749999999 131.11771 L 542.942285 135 L 542.942285 225 L 542.4311749999999 228.88229 L 540.9326649999999 232.5 L 538.5488849999999 235.60660000000001 L 535.442285 237.99038000000002 L 496.471145 260.49038 L 483.48075499999993 267.99038 L 467.00961499999994 277.5 L 464.999995 278.66025 L 464.999995 351.33975 L 470.490375 354.50962 L 483.48075499999993 362.00962 L 496.471145 369.50962 L 527.942285 387.67949 L 536.0307449999999 383.00962 L 585.394185 354.50962 L 590.8845749999999 351.33974 L 590.8845749999999 270 L 591.395685 266.11771 L 592.894185 262.5 L 595.277965 259.3934 L 598.3845749999999 257.00962 L 676.3268549999999 212.00961999999998 L 679.944575 210.51110999999997 L 683.8268549999999 210 L 687.7091449999999 210.51110999999997 L 691.3268549999999 212.00961999999998 L 730.297995 234.50961999999998 L 743.288385 242.00961999999998 L 769.269145 257.00962 L 772.3757449999999 259.3934 L 774.7595249999999 262.5 L 776.258035 266.11771 L 776.769145 270 L 776.769145 360 L 776.258035 363.88229 L 774.7595249999999 367.5 L 772.3757449999999 370.6066 L 769.269145 372.99038 L 743.288385 387.99038 L 730.297995 395.49038 L 691.3268549999999 417.99038 L 687.7091449999999 419.48889 L 683.8268549999999 420 L 679.944575 419.48889 L 676.3268549999999 417.99038 L 672.1980249999999 415.6066 L 605.8845749999999 377.32051 L 603.697945 378.58296 L 542.942285 413.66025 L 542.942285 486.33975 L 548.4326649999999 489.50962000000004 L 556.096365 493.93426 L 601.3064549999999 520.03631 L 602.222035 520.56492 L 603.697945 521.41704 L 605.8845749999999 522.67949 L 609.5471249999999 520.56492 L 676.3268549999999 482.00962000000004 L 679.944575 480.51111000000003 L 683.8268549999999 480 L 687.7091449999999 480.51111000000003 L 691.3268549999999 482.00962000000004 L 730.297995 504.50962000000004 L 743.288385 512.00962 L 769.269145 527.00962 L 772.3757449999999 529.3934 L 774.7595249999999 532.5 L 776.258035 536.11771 L 776.769145 540 L 776.769145 630 L 776.258035 633.88229 L 774.7595249999999 637.5 L 772.3757449999999 640.6066 L 769.269145 642.99038 L 743.288385 657.99038 L 730.297995 665.49038 L 691.3268549999999 687.99038 L 687.7091449999999 689.48889 L 683.8268549999999 690 L 679.944575 689.48889 L 676.3268549999999 687.99038 L 598.3845749999999 642.99038 L 595.277965 640.6066 L 592.894185 637.5 L 591.395685 633.88229 L 590.8845749999999 630 L 590.8845749999999 548.66026 L 585.394185 545.49038 L 527.942285 512.32051 L 496.471145 530.49038 L 483.48075499999993 537.99038 L 467.00961499999994 547.5 L 464.999995 548.66025 L 464.999995 621.33975 L 473.275665 626.11771 L 483.48075499999993 632.00962 L 496.471145 639.50962 L 535.442285 662.00962 L 538.5488849999999 664.3934 L 540.9326649999999 667.5 L 542.4311749999999 671.11771 L 542.942285 675 L 542.942285 765 L 542.4311749999999 768.88229 L 540.9326649999999 772.5 L 538.5488849999999 775.6066 L 535.442285 777.99038 L 496.471145 800.49038 L 483.48075499999993 807.99038 L 457.499995 822.99038 L 453.8822849999999 824.48889 L 449.999995 825 L 446.117715 824.48889 L 442.499995 822.99038 L 364.5577149999999 777.99038 L 361.451105 775.6066 L 359.06733499999996 772.5 L 357.56882499999995 768.88229 L 357.0577149999999 765 L 357.0577149999999 675 L 357.56882499999995 671.11771 L 359.06733499999996 667.5 L 361.451105 664.3934 L 364.5577149999999 662.00962 L 371.51924499999996 657.99038 L 434.999995 621.33975 L 434.999995 548.66025 L 372.0577149999999 512.32051 L 366.56733499999996 515.49038 L 353.57694499999997 522.99038 L 311.12504499999994 547.5 L 309.11542499999996 548.66025 L 309.11542499999996 630 L 308.604315 633.88229 L 307.105805 637.5 L 304.722025 640.6066 L 301.61542499999996 642.99038 L 249.65390499999995 672.99038 L 236.66351499999996 680.49038 L 223.67313499999995 687.99038 L 220.05542499999996 689.48889 L 216.17313499999995 690 L 212.29085499999997 689.48889 L 208.67313499999995 687.99038 L 130.73085499999996 642.99038 L 127.62425499999995 640.6066 L 125.24047499999995 637.5 L 123.74196499999994 633.88229 L 123.23085499999996 630 L 123.23085499999996 540 L 123.74196499999994 536.11771 L 125.24047499999995 532.5 L 127.62425499999995 529.3934 L 130.73085499999996 527.00962 L 208.67313499999995 482.00962000000004 L 212.29085499999997 480.51111000000003 L 216.17313499999995 480 L 220.05542499999996 480.51111000000003 L 223.67313499999995 482.00962000000004 L 236.66351499999996 489.50962000000004 L 249.65390499999995 497.00962000000004 L 294.11542499999996 522.67949 L 297.77797499999997 520.56492 L 338.57694499999997 497.00962000000004 L 351.56733499999996 489.50962000000004 L 357.0577149999999 486.33975 L 357.0577149999999 413.66025 L 355.04810499999996 412.5 L 351.56733499999996 410.49038 L 338.57694499999997 402.99038 L 325.58656499999995 395.49038 L 294.11542499999996 377.32051 L 249.65390499999995 402.99038 L 236.66351499999996 410.49038 L 223.67313499999995 417.99038 L 220.05542499999996 419.48889 L 216.17313499999995 420 L 212.29085499999997 419.48889 L 208.67313499999995 417.99038 L 130.73085499999996 372.99038 L 127.62425499999995 370.6066 L 125.24047499999995 367.5 L 123.74196499999994 363.88229 L 123.23085499999996 360 L 123.23085499999996 270 L 123.74196499999994 266.11771 L 125.24047499999995 262.5 L 127.62425499999995 259.3934 L 130.73085499999996 257.00962 L 208.67313499999995 212.00961999999998 L 212.29085499999997 210.51110999999997 L 216.17313499999995 210 L 220.05542499999996 210.51110999999997 L 223.67313499999995 212.00961999999998 L 236.66351499999996 219.50961999999998 L 249.65390499999995 227.00961999999998 L 301.61542499999996 257.00962 L 304.722025 259.3934 L 307.105805 262.5 L 308.604315 266.11771 L 309.11542499999996 270 L 309.11542499999996 351.33975 L 317.391105 356.11771 L 322.269505 358.93426 L 342.48659499999997 370.6066 L 353.57695499999994 377.00962 L 354.11542499999996 377.32051 L 363.969255 383.00962 L 372.0577149999999 387.67949 L 380.14617499999997 383.00962 L 416.519235 362.00962 L 434.999995 351.33975 L 434.999995 278.66025 L 432.99038499999995 277.5 L 364.5577149999999 237.99038000000002 L 361.451105 235.60660000000001 L 359.06733499999996 232.5 L 357.56882499999995 228.88229 L 357.0577149999999 225 L 357.0577149999999 135 L 357.56882499999995 131.11771 L 359.06733499999996 127.5 L 361.451105 124.39340000000001 L 364.5577149999999 122.00962000000001 L 442.499995 77.00962000000001 L 446.117715 75.51111 L 449.999995 75 Z M 418.5288549999999 665.49038 L 389.06733499999996 682.5 L 387.0577149999999 683.66025 L 387.0577149999999 756.33975 L 395.3333849999999 761.11771 L 406.52186499999993 767.57738 L 408.78203499999995 768.88229 L 449.999995 792.67949 L 471.96152499999994 780 L 479.57111499999996 775.6066 L 499.78820499999995 763.93426 L 512.942285 756.33975 L 512.942285 683.66025 L 467.94228499999997 657.67949 L 449.999995 647.32051 Z M 184.70199499999995 530.49038 L 155.24047499999995 547.5 L 153.23085499999996 548.66025 L 153.23085499999996 621.33975 L 161.50652499999995 626.11771 L 171.71161499999994 632.00962 L 216.17313499999995 657.67949 L 221.66351499999996 654.50962 L 234.11542499999996 647.32051 L 279.11542499999996 621.33975 L 279.11542499999996 548.66025 L 241.61542499999996 527.00962 L 234.65389499999998 522.99038 L 216.17313499999995 512.32051 Z M 652.3557149999999 530.49038 L 622.894195 547.5 L 620.8845749999999 548.66025 L 620.8845749999999 621.33975 L 629.1602449999999 626.11771 L 639.365335 632.00962 L 683.8268549999999 657.67949 L 689.317235 654.50962 L 715.297995 639.50962 L 728.288385 632.00962 L 731.769145 630 L 732.268705 629.71158 L 733.615065 628.93426 L 746.769145 621.33975 L 746.769145 548.66025 L 718.7787649999999 532.5 L 713.397975 529.3934 L 715.297995 530.49038 L 708.0922049999999 526.33011 L 683.8268549999999 512.32051 Z M 716.3028049999999 566.25 L 716.3028049999999 603.75 L 683.8268549999999 622.5 L 651.350905 603.75 L 651.350905 566.25 L 683.8268549999999 547.5 Z M 247.64428499999997 530.49038 L 234.65390499999995 522.99038 L 221.66351499999996 515.49038 Z M 418.5288549999999 395.49038 L 389.06733499999996 412.5 L 387.0577149999999 413.66025 L 387.0577149999999 486.33975 L 392.548095 489.50962000000004 L 405.53847499999995 497.00962000000004 L 449.999995 522.67949 L 455.490375 519.50962 L 462.451905 515.49038 L 468.48075499999993 512.00962 L 479.57111499999996 505.60659999999996 L 499.78820499999995 493.93426 L 512.942285 486.33975 L 512.942285 413.66025 L 507.451905 410.49038 L 468.48075499999993 387.99038 L 478.8696749999999 393.98842 L 467.94228499999997 387.67949 L 449.999995 377.32051 Z M 482.475955 431.25 L 482.475955 468.75 L 449.999995 487.5 L 417.524045 468.75 L 417.524045 431.25 L 449.999995 412.5 Z M 184.70199499999995 260.49038 L 155.24047499999995 277.5 L 153.23085499999996 278.66025 L 153.23085499999996 351.33975 L 158.72123499999998 354.50962 L 171.71161499999994 362.00962 L 216.17313499999995 387.67949 L 221.66351499999996 384.50962 L 234.11542499999996 377.32051 L 279.11542499999996 351.33975 L 279.11542499999996 278.66025 L 241.61542499999996 257.00962 L 234.65389499999998 252.99038000000002 L 216.17313499999995 242.32051 Z M 248.64909499999993 296.25 L 248.64909499999993 333.75 L 216.17313499999995 352.5 L 183.69718499999993 333.75 L 183.69718499999993 296.25 L 216.17313499999995 277.5 Z M 652.3557149999999 260.49038 L 622.894195 277.5 L 620.8845749999999 278.66025 L 620.8845749999999 351.33975 L 626.374955 354.50962 L 639.365335 362.00962 L 683.8268549999999 387.67949 L 689.317235 384.50962 L 715.297995 369.50962 L 728.288385 362.00962 L 731.769145 360 L 732.268705 359.71158 L 733.615065 358.93426 L 746.769145 351.33975 L 746.769145 278.66025 L 718.7787649999999 262.5 L 713.397975 259.3934 L 715.297995 260.49038 L 708.0922049999999 256.33011 L 683.8268549999999 242.32051 Z M 273.62504499999994 275.49038 L 234.65390499999995 252.99038000000002 L 221.66351499999996 245.49038000000002 Z M 418.5288549999999 125.49037999999999 L 389.06733499999996 142.5 L 387.0577149999999 143.66025 L 387.0577149999999 216.33974999999998 L 392.548095 219.50961999999998 L 405.53847499999995 227.00961999999998 L 449.999995 252.67949 L 455.490375 249.50961999999998 L 462.451905 245.49038000000002 L 468.48075499999993 242.00961999999998 L 479.57111499999996 235.60660000000001 L 499.78820499999995 223.93426 L 512.942285 216.33974999999998 L 512.942285 143.66025 L 468.48075499999993 117.99037999999999 L 449.999995 107.32051000000001 Z" stroke-miterlimit="10"/><path fill="#222222" stroke="#ffffff" paint-order="fill stroke markers" d=" M 638.3605249999999 701.25 L 638.3605249999999 738.75 L 605.8845749999999 757.5 L 573.4086149999999 738.75 L 573.4086149999999 701.25 L 605.8845749999999 682.5 Z" stroke-miterlimit="10"/><path fill="#222222" stroke="#ffffff" paint-order="fill stroke markers" d=" M 560.418235 566.25 L 560.418235 603.75 L 527.942285 622.5 L 495.46633499999996 603.75 L 495.46633499999996 566.25 L 527.942285 547.5 Z" stroke-miterlimit="10"/><path fill="#222222" stroke="#ffffff" paint-order="fill stroke markers" d=" M 404.5336649999999 566.25 L 404.5336649999999 603.75 L 372.0577149999999 622.5 L 339.581755 603.75 L 339.581755 566.25 L 372.0577149999999 547.5 Z" stroke-miterlimit="10"/><path fill="#222222" stroke="#ffffff" paint-order="fill stroke markers" d=" M 326.59137499999997 431.25 L 326.59137499999997 468.75 L 294.11542499999996 487.5 L 261.63947499999995 468.75 L 261.63947499999995 431.25 L 294.11542499999996 412.5 Z" stroke-miterlimit="10"/><path fill="#222222" stroke="#ffffff" paint-order="fill stroke markers" d=" M 638.3605249999999 431.25 L 638.3605249999999 468.75 L 605.8845749999999 487.5 L 573.4086149999999 468.75 L 573.4086149999999 431.25 L 605.8845749999999 412.5 Z" stroke-miterlimit="10"/><path fill="#222222" stroke="#ffffff" paint-order="fill stroke markers" d=" M 560.418235 296.25 L 560.418235 333.75 L 527.942285 352.5 L 495.46633499999996 333.75 L 495.46633499999996 296.25 L 527.942285 277.5 Z" stroke-miterlimit="10"/><path fill="#222222" stroke="#ffffff" paint-order="fill stroke markers" d=" M 404.5336649999999 296.25 L 404.5336649999999 333.75 L 372.0577149999999 352.5 L 339.581755 333.75 L 339.581755 296.25 L 372.0577149999999 277.5 Z" stroke-miterlimit="10"/><path fill="#222222" stroke="#ffffff" paint-order="fill stroke markers" d=" M 326.59137499999997 161.25 L 326.59137499999997 198.75 L 294.11542499999996 217.5 L 261.63947499999995 198.75 L 261.63947499999995 161.25 L 294.11542499999996 142.5 Z" stroke-miterlimit="10"/><path fill="#222222" stroke="#cccccc" paint-order="fill stroke markers" d=" M 450.91993 82.64562 L 451.54669 82.66122 L 452.36687 82.97525 L 452.96765 83.11211 L 453.29319 83.32991 L 453.75 83.50481 L 531.69228 128.50481 L 532.40161 129.1101 L 533.17659 129.6286 L 533.43126 129.98874 L 533.76681 130.27508 L 534.21281 131.09399 L 534.75116 131.8553 L 534.83486 132.23613 L 535.0712 132.67008 L 535.44228 135 L 535.44228 225 L 534.94645 227.68173 L 533.52451 230.00887 L 531.69228 231.49519 L 457.5 274.33013 L 457.5 355.66987 L 527.94228 396.33975 L 598.38457 355.66987 L 598.38457 270 L 598.48688 269.44664 L 598.46803 268.88423 L 598.73278 268.1167 L 598.8804 267.31827 L 599.17383 266.83805 L 599.35731 266.30611 L 599.87897 265.68401 L 600.30234 264.99113 L 600.79536 264.59119 L 601.10963 264.21641 L 601.57895 263.95554 L 602.13457 263.50481 L 680.07686 218.50481 L 680.78183 218.25483 L 681.4356 217.89142 L 682.0563 217.80289 L 682.64722 217.59335 L 683.39496 217.61196 L 684.13546 217.50635 L 684.74679 217.64562 L 685.37355 217.66122 L 686.19373 217.97525 L 686.79451 218.11211 L 687.12005 218.32991 L 687.57686 218.50481 L 765.51914 263.50481 L 766.22847 264.1101 L 767.00345 264.6286 L 767.25812 264.98874 L 767.59367 265.27508 L 768.03967 266.09399 L 768.57802 266.8553 L 768.66172 267.23613 L 768.89806 267.67008 L 769.26914 270 L 769.26914 360 L 768.77331 362.68173 L 767.35137 365.00887 L 765.51914 366.49519 L 687.57686 411.49519 L 687.39873 411.55836 L 687.24905 411.67372 L 686.11869 412.01226 L 685.0065 412.40665 L 684.81758 412.40195 L 684.63653 412.45617 L 683.45976 412.36814 L 682.28017 412.33878 L 682.08908 412.26562 L 681.91695 412.25274 L 681.31639 411.96977 L 680.07686 411.49519 L 605.88457 368.66025 L 535.44228 409.33013 L 535.44228 490.66987 L 605.88457 531.33975 L 680.07686 488.50481 L 680.78183 488.25483 L 681.4356 487.89142 L 682.0563 487.80289 L 682.64722 487.59335 L 683.39496 487.61196 L 684.13546 487.50635 L 684.74679 487.64562 L 685.37355 487.66122 L 686.19373 487.97525 L 686.79451 488.11211 L 687.12005 488.32991 L 687.57686 488.50481 L 765.51914 533.50481 L 766.22847 534.1101 L 767.00345 534.6286 L 767.25812 534.98874 L 767.59367 535.27508 L 768.03967 536.09399 L 768.57802 536.8553 L 768.66172 537.23613 L 768.89806 537.67008 L 769.26914 540 L 769.26914 630 L 768.77331 632.68173 L 767.35137 635.00887 L 765.51914 636.49519 L 687.57686 681.49519 L 687.39873 681.55836 L 687.24905 681.67372 L 686.11869 682.01226 L 685.0065 682.40665 L 684.81758 682.40195 L 684.63653 682.45617 L 683.45976 682.36814 L 682.28017 682.33878 L 682.08908 682.26562 L 681.91695 682.25274 L 681.31639 681.96977 L 680.07686 681.49519 L 602.13457 636.49519 L 601.84819 636.25081 L 601.50761 636.09034 L 600.81782 635.37156 L 600.06004 634.72492 L 599.87997 634.3943 L 599.61929 634.12266 L 599.23213 633.20479 L 598.75565 632.32992 L 598.69046 631.92061 L 598.55939 631.60987 L 598.53764 630.96112 L 598.38457 630 L 598.38457 544.33013 L 527.94228 503.66025 L 457.5 544.33013 L 457.5 625.66987 L 531.69228 668.50481 L 532.40161 669.1101 L 533.17659 669.6286 L 533.43126 669.98874 L 533.76681 670.27508 L 534.21281 671.09399 L 534.75116 671.8553 L 534.83486 672.23613 L 535.0712 672.67008 L 535.44228 675 L 535.44228 765 L 534.94645 767.68173 L 533.52451 770.00887 L 531.69228 771.49519 L 453.75 816.49519 L 453.57187 816.55836 L 453.42219 816.67372 L 452.29183 817.01226 L 451.17964 817.40665 L 450.99072 817.40195 L 450.80967 817.45617 L 449.6329 817.36814 L 448.45331 817.33878 L 448.26222 817.26562 L 448.09009 817.25274 L 447.48953 816.96977 L 446.25 816.49519 L 368.30771 771.49519 L 368.02133 771.25081 L 367.68075 771.09034 L 366.99096 770.37156 L 366.23318 769.72492 L 366.05311 769.3943 L 365.79243 769.12266 L 365.40527 768.20479 L 364.92879 767.32992 L 364.8636 766.92061 L 364.73253 766.60987 L 364.71078 765.96112 L 364.55771 765 L 364.55771 675 L 364.66002 674.44664 L 364.64117 673.88423 L 364.90592 673.1167 L 365.05354 672.31827 L 365.34697 671.83805 L 365.53045 671.30611 L 366.05211 670.68401 L 366.47548 669.99113 L 366.9685 669.59119 L 367.28277 669.21641 L 367.75209 668.95554 L 368.30771 668.50481 L 442.5 625.66987 L 442.5 544.33013 L 372.05771 503.66025 L 301.61542 544.33013 L 301.61542 630 L 301.11959 632.68173 L 299.69765 635.00887 L 297.86542 636.49519 L 219.92314 681.49519 L 219.74501 681.55836 L 219.59533 681.67372 L 218.46497 682.01226 L 217.35278 682.40665 L 217.16386 682.40195 L 216.98281 682.45617 L 215.80604 682.36814 L 214.62645 682.33878 L 214.43536 682.26562 L 214.26323 682.25274 L 213.66267 681.96977 L 212.42314 681.49519 L 134.48085 636.49519 L 134.19447 636.25081 L 133.85389 636.09034 L 133.1641 635.37156 L 132.40632 634.72492 L 132.22625 634.3943 L 131.96557 634.12266 L 131.57841 633.20479 L 131.10193 632.32992 L 131.03674 631.92061 L 130.90567 631.60987 L 130.88392 630.96112 L 130.73085 630 L 130.73085 540 L 130.83316 539.44664 L 130.81431 538.88423 L 131.07906 538.1167 L 131.22668 537.31827 L 131.52011 536.83805 L 131.70359 536.30611 L 132.22525 535.68401 L 132.64862 534.99113 L 133.14164 534.59119 L 133.45591 534.21641 L 133.92523 533.95554 L 134.48085 533.50481 L 212.42314 488.50481 L 213.12811 488.25483 L 213.78188 487.89142 L 214.40258 487.80289 L 214.9935 487.59335 L 215.74124 487.61196 L 216.48174 487.50635 L 217.09307 487.64562 L 217.71983 487.66122 L 218.54001 487.97525 L 219.14079 488.11211 L 219.46633 488.32991 L 219.92314 488.50481 L 294.11542 531.33975 L 364.55771 490.66987 L 364.55771 409.33013 L 294.11542 368.66025 L 219.92314 411.49519 L 217.35278 412.40665 L 214.62645 412.33878 L 212.42314 411.49519 L 134.48085 366.49519 L 132.40632 364.72492 L 131.10193 362.32992 L 130.73085 360 L 130.73085 270 L 131.22668 267.31827 L 132.64862 264.99113 L 134.48085 263.50481 L 212.42314 218.50481 L 212.77797 218.37899 L 213.08723 218.16427 L 214.05461 217.92628 L 214.9935 217.59335 L 215.36986 217.60272 L 215.73545 217.51278 L 216.72397 217.63643 L 217.71983 217.66122 L 218.06796 217.80454 L 218.44154 217.85127 L 219.92314 218.50481 L 297.86542 263.50481 L 298.57475 264.1101 L 299.34973 264.6286 L 299.6044 264.98874 L 299.93995 265.27508 L 300.38595 266.09399 L 300.9243 266.8553 L 301.008 267.23613 L 301.24434 267.67008 L 301.61542 270 L 301.61542 355.66987 L 372.05771 396.33975 L 442.5 355.66987 L 442.5 274.33013 L 368.30771 231.49519 L 368.02133 231.25081 L 367.68075 231.09034 L 366.99096 230.37156 L 366.23318 229.72492 L 366.05311 229.3943 L 365.79243 229.12266 L 365.40527 228.20479 L 364.92879 227.32992 L 364.8636 226.92061 L 364.73253 226.60987 L 364.71078 225.96112 L 364.55771 225 L 364.55771 135 L 364.66002 134.44664 L 364.64117 133.88423 L 364.90592 133.1167 L 365.05354 132.31827 L 365.34697 131.83805 L 365.53045 131.30611 L 366.05211 130.68401 L 366.47548 129.99113 L 366.9685 129.59119 L 367.28277 129.21641 L 367.75209 128.95554 L 368.30771 128.50481 L 446.25 83.50481 L 446.95497 83.25483 L 447.60874 82.89142 L 448.22944 82.80289 L 448.82036 82.59335 L 449.5681 82.61196 L 450.3086 82.50635 Z M 379.55771 679.33013 L 379.55771 760.66987 L 450 801.33975 L 520.44228 760.66987 L 520.44228 679.33013 L 450 638.66025 Z M 145.73085 544.33013 L 145.73085 625.66987 L 216.17314 666.33975 L 286.61542 625.66987 L 286.61542 544.33013 L 216.17314 503.66025 Z M 613.38457 544.33013 L 613.38457 625.66987 L 683.82686 666.33975 L 754.26914 625.66987 L 754.26914 544.33013 L 683.82686 503.66025 Z M 379.55771 409.33013 L 379.55771 490.66987 L 450 531.33975 L 520.44228 490.66987 L 520.44228 409.33013 L 450 368.66025 Z M 145.73085 274.33013 L 145.73085 355.66987 L 216.17314 396.33975 L 286.61542 355.66987 L 286.61542 274.33013 L 216.17314 233.66025 Z M 613.38457 274.33013 L 613.38457 355.66987 L 683.82686 396.33975 L 754.26914 355.66987 L 754.26914 274.33013 L 683.82686 233.66025 Z M 379.55771 139.33013 L 379.55771 220.66987 L 450 261.33975 L 520.44228 220.66987 L 520.44228 139.33013 L 450 98.66025 Z" stroke-miterlimit="10"/><path fill="none" stroke="#cccccc" paint-order="fill stroke markers" d=" M 216.17313865940048 224.99999999999997 L 216.17313865940048 224.99999999999997 L 138.230852318801 269.9999999999999 L 138.230852318801 269.9999999999999 L 138.23085231880088 359.9999999999999 L 138.23085231880088 359.9999999999999 L 216.17313865940034 405 L 216.17313865940034 405 L 294.11542499999985 360.0000000000001 L 294.11542499999985 360.0000000000001 L 294.11542499999996 270 L 216.17313865940048 224.99999999999997" stroke-miterlimit="10"/><path fill="none" stroke="#cccccc" paint-order="fill stroke markers" d=" M 294.11542499999996 270 L 294.11542499999996 270" stroke-miterlimit="10"/><path fill="none" stroke="#cccccc" paint-order="fill stroke markers" d=" M 294.11542499999985 360.0000000000001 L 372.0577113405993 405.0000000000002 L 372.0577113405992 495.0000000000002 L 449.99999768119875 540.0000000000005 L 527.9422840217985 495.00000000000074 L 527.9422840217991 405.00000000000045 L 449.9999976811996 359.99999999999983 L 372.0577113405995 404.9999999999993 L 372.0577113405993 405.0000000000002" stroke-miterlimit="10"/><path fill="none" stroke="#cccccc" paint-order="fill stroke markers" d=" M 372.0577113405992 495.0000000000002 L 372.0577113405992 495.0000000000002 L 294.11542499999973 540.0000000000001 L 216.17313865940025 495.0000000000001 L 138.23085231880077 540 L 138.23085231880066 630 L 216.17313865940008 675.0000000000002 L 294.1154249999996 630.0000000000002 L 294.1154249999998 540.0000000000002 L 294.11542499999973 540.0000000000001" stroke-miterlimit="10"/><path fill="none" stroke="#cccccc" paint-order="fill stroke markers" d=" M 216.17313865940025 495.0000000000001 L 216.17313865940025 495.0000000000001" stroke-miterlimit="10"/><path fill="none" stroke="#cccccc" paint-order="fill stroke markers" d=" M 138.23085231880077 540 L 138.23085231880077 540" stroke-miterlimit="10"/><path fill="none" stroke="#cccccc" paint-order="fill stroke markers" d=" M 138.23085231880066 630 L 138.23085231880066 630" stroke-miterlimit="10"/><path fill="none" stroke="#cccccc" paint-order="fill stroke markers" d=" M 216.17313865940008 675.0000000000002 L 216.17313865940008 675.0000000000002" stroke-miterlimit="10"/><path fill="none" stroke="#cccccc" paint-order="fill stroke markers" d=" M 294.1154249999996 630.0000000000002 L 294.1154249999996 630.0000000000002" stroke-miterlimit="10"/><path fill="none" stroke="#cccccc" paint-order="fill stroke markers" d=" M 449.99999768119875 540.0000000000005 L 449.99999768119875 540.0000000000005 L 449.9999976811986 630.0000000000005 L 372.05771134059904 675.0000000000005 L 372.05771134059887 765.0000000000005 L 449.99999768119824 810.0000000000006 L 527.9422840217978 765.0000000000007 L 527.9422840217981 675.0000000000007 L 449.9999976811987 630.0000000000005 L 449.9999976811986 630.0000000000005" stroke-miterlimit="10"/><path fill="none" stroke="#cccccc" paint-order="fill stroke markers" d=" M 372.05771134059904 675.0000000000005 L 372.05771134059904 675.0000000000005" stroke-miterlimit="10"/><path fill="none" stroke="#cccccc" paint-order="fill stroke markers" d=" M 372.05771134059887 765.0000000000005 L 372.05771134059887 765.0000000000005" stroke-miterlimit="10"/><path fill="none" stroke="#cccccc" paint-order="fill stroke markers" d=" M 449.99999768119824 810.0000000000006 L 449.99999768119824 810.0000000000006" stroke-miterlimit="10"/><path fill="none" stroke="#cccccc" paint-order="fill stroke markers" d=" M 527.9422840217978 765.0000000000007 L 527.9422840217978 765.0000000000007" stroke-miterlimit="10"/><path fill="none" stroke="#cccccc" paint-order="fill stroke markers" d=" M 527.9422840217981 675.0000000000007 L 527.9422840217981 675.0000000000007" stroke-miterlimit="10"/><path fill="none" stroke="#cccccc" paint-order="fill stroke markers" d=" M 527.9422840217985 495.00000000000074 L 527.9422840217985 495.00000000000074 L 605.8845703623979 540.0000000000009 L 605.8845703623977 630.0000000000009 L 683.826856702997 675.0000000000011 L 761.7691430435966 630.0000000000014 L 761.769143043597 540.0000000000014 L 683.8268567029977 495.00000000000114 L 605.884570362398 540.0000000000008 L 605.8845703623979 540.0000000000009" stroke-miterlimit="10"/><path fill="none" stroke="#cccccc" paint-order="fill stroke markers" d=" M 605.8845703623977 630.0000000000009 L 605.8845703623977 630.0000000000009" stroke-miterlimit="10"/><path fill="none" stroke="#cccccc" paint-order="fill stroke markers" d=" M 683.826856702997 675.0000000000011 L 683.826856702997 675.0000000000011" stroke-miterlimit="10"/><path fill="none" stroke="#cccccc" paint-order="fill stroke markers" d=" M 761.7691430435966 630.0000000000014 L 761.7691430435966 630.0000000000014" stroke-miterlimit="10"/><path fill="none" stroke="#cccccc" paint-order="fill stroke markers" d=" M 761.769143043597 540.0000000000014 L 761.769143043597 540.0000000000014" stroke-miterlimit="10"/><path fill="none" stroke="#cccccc" paint-order="fill stroke markers" d=" M 683.8268567029977 495.00000000000114 L 683.8268567029977 495.00000000000114" stroke-miterlimit="10"/><path fill="none" stroke="#cccccc" paint-order="fill stroke markers" d=" M 527.9422840217991 405.00000000000045 L 527.9422840217991 405.00000000000045 L 605.8845703623987 360.0000000000008 L 683.8268567029979 405.0000000000011 L 761.7691430435976 360.00000000000136 L 761.769143043598 270.00000000000136 L 683.8268567029988 225.00000000000102 L 605.884570362399 270.0000000000006 L 605.8845703623986 360.0000000000006 L 605.8845703623987 360.0000000000008" stroke-miterlimit="10"/><path fill="none" stroke="#cccccc" paint-order="fill stroke markers" d=" M 683.8268567029979 405.0000000000011 L 683.8268567029979 405.0000000000011" stroke-miterlimit="10"/><path fill="none" stroke="#cccccc" paint-order="fill stroke markers" d=" M 761.7691430435976 360.00000000000136 L 761.7691430435976 360.00000000000136" stroke-miterlimit="10"/><path fill="none" stroke="#cccccc" paint-order="fill stroke markers" d=" M 761.769143043598 270.00000000000136 L 761.769143043598 270.00000000000136" stroke-miterlimit="10"/><path fill="none" stroke="#cccccc" paint-order="fill stroke markers" d=" M 683.8268567029988 225.00000000000102 L 683.8268567029988 225.00000000000102" stroke-miterlimit="10"/><path fill="none" stroke="#cccccc" paint-order="fill stroke markers" d=" M 605.884570362399 270.0000000000006 L 605.884570362399 270.0000000000006" stroke-miterlimit="10"/><path fill="none" stroke="#cccccc" paint-order="fill stroke markers" d=" M 449.9999976811996 359.99999999999983 L 449.9999976811996 359.99999999999983 L 449.99999768120006 269.99999999999983 L 527.9422840217997 225.0000000000002 L 527.9422840218002 135.00000000000023 L 449.99999768120097 89.99999999999977 L 372.0577113406012 134.99999999999932 L 372.05771134060063 224.99999999999932 L 449.99999768119983 269.99999999999983 L 449.99999768120006 269.99999999999983" stroke-miterlimit="10"/><path fill="none" stroke="#cccccc" paint-order="fill stroke markers" d=" M 527.9422840217997 225.0000000000002 L 527.9422840217997 225.0000000000002" stroke-miterlimit="10"/><path fill="none" stroke="#cccccc" paint-order="fill stroke markers" d=" M 527.9422840218002 135.00000000000023 L 527.9422840218002 135.00000000000023" stroke-miterlimit="10"/><path fill="none" stroke="#cccccc" paint-order="fill stroke markers" d=" M 449.99999768120097 89.99999999999977 L 449.99999768120097 89.99999999999977" stroke-miterlimit="10"/><path fill="none" stroke="#cccccc" paint-order="fill stroke markers" d=" M 372.0577113406012 134.99999999999932 L 372.0577113406012 134.99999999999932" stroke-miterlimit="10"/><path fill="none" stroke="#cccccc" paint-order="fill stroke markers" d=" M 372.05771134060063 224.99999999999932 L 372.05771134060063 224.99999999999932" stroke-miterlimit="10"/></g></svg>