<?xml version="1.0" encoding="UTF-8" standalone="no"?>
<svg
   version="1.1"
   width="8.5in"
   height="11in"
   id="svg25"
   sodipodi:docname="stamp-2024-03-02T20_39_12.083Z.svg"
   inkscape:version="1.3.2 (091e20e, 2023-11-25)"
   xmlns:inkscape="http://www.inkscape.org/namespaces/inkscape"
   xmlns:sodipodi="http://sodipodi.sourceforge.net/DTD/sodipodi-0.dtd"
   xmlns="http://www.w3.org/2000/svg"
   xmlns:svg="http://www.w3.org/2000/svg">
  <sodipodi:namedview
     id="namedview25"
     pagecolor="#ffffff"
     bordercolor="#666666"
     borderopacity="1.0"
     inkscape:showpageshadow="2"
     inkscape:pageopacity="0.0"
     inkscape:pagecheckerboard="0"
     inkscape:deskcolor="#d1d1d1"
     inkscape:zoom="0.40181818"
     inkscape:cx="423.07692"
     inkscape:cy="502.71493"
     inkscape:window-width="1920"
     inkscape:window-height="1027"
     inkscape:window-x="1920"
     inkscape:window-y="25"
     inkscape:window-maximized="0"
     inkscape:current-layer="svg25"
     inkscape:document-units="in" />
  <defs
     id="defs1" />
  <path
     fill="#000000"
     stroke="#cccccc"
     paint-order="fill stroke markers"
     d="m 522.35993,163.661 v 7.12264 l 12.33677,7.12263 6.16838,-3.56131 9.6e-4,4.2e-4 v 7.12291 l -2e-4,2.3e-4 -4e-5,1.9e-4 -6.1679,3.56104 6.1679,3.56104 10e-5,2.9e-4 1.4e-4,1.2e-4 v 7.12291 l -2.4e-4,4.2e-4 -6.1679,3.56104 6.1679,3.56104 2.4e-4,4.2e-4 v 7.12291 l -7e-5,8e-5 3e-5,1.1e-4 -1.8e-4,6e-5 -2e-4,2.3e-4 -1.3e-4,-1.2e-4 -1.7e-4,6e-5 -6.16838,-3.56132 -12.33678,7.12264 v 7.12264 l -4.7e-4,4.1e-4 -6.16863,-3.56146 -9e-5,-2.9e-4 -1.5e-4,-1.2e-4 v -7.12208 l -6.1679,3.56104 -3e-4,-6e-5 -1.8e-4,6e-5 -6.16863,-3.56146 -1e-4,-2.9e-4 -1.4e-4,-1.3e-4 v -7.12208 l -6.1679,3.56105 h -4.8e-4 l -6.16863,-3.56146 v -9.6e-4 l 6.16839,-3.56132 V 185.0299 l -6.16839,-3.56132 v -9.6e-4 l 6.16863,-3.56146 2.9e-4,7e-5 1.9e-4,-7e-5 6.1679,3.56105 v -7.12208 l 2.4e-4,-4.2e-4 6.16863,-3.56146 h 4.8e-4 l 6.1679,3.56104 v -7.12208 l 2.4e-4,-4.2e-4 6.16863,-3.56146 z m -6.16863,53.42158 6.16767,3.5609 v -7.1218 l -6.16767,-3.5609 z m -12.33725,-14.24527 v 7.12235 l 6.16815,3.56119 6.16814,-3.56119 v -7.12235 l -6.16814,-3.56118 z m 12.33774,7.12263 6.16766,3.56091 6.16766,-3.56091 -6.16766,-3.5609 z m -4.8e-4,-7.12263 v 7.1218 l 6.16766,-3.5609 v -7.12181 z m 12.33725,0 v 7.1218 l 6.16766,-3.5609 v -7.12181 z m 6.16862,3.5609 6.16767,3.5609 v -7.1218 l -6.16767,-3.56091 z m -12.33725,0 6.16767,3.5609 v -7.1218 l -6.16767,-3.5609 z m -30.84264,-3.56118 6.16766,3.5609 6.16767,-3.5609 -6.16767,-3.5609 z m 18.50539,-17.80701 v 14.24528 l 6.16814,3.56117 12.33677,-7.12263 v -7.12236 l -12.33677,-7.12263 z m 12.33773,14.24555 6.16767,3.5609 6.16766,-3.5609 -6.16766,-3.5609 z m -18.50635,-3.56118 v 7.12181 l 6.16766,-3.5609 v -7.12181 z m -6.16863,3.56091 6.16767,3.56089 v -7.1218 l -6.16767,-3.5609 z m 30.84313,-10.68382 v 7.12236 l 6.16814,3.56118 6.16815,-3.56118 v -7.12236 l -6.16815,-3.56118 z m -30.84265,3.56118 6.16766,3.5609 6.16766,-3.5609 -6.16766,-3.5609 z m -4.8e-4,-7.12264 v 7.1218 l 6.16767,-3.56089 v -7.12181 z m 6.16863,3.56091 6.16766,3.56089 v -7.1218 l -6.16766,-3.5609 z m 18.50635,-3.56119 6.16767,3.56091 6.16766,-3.5609 -6.16766,-3.5609 z m -30.84312,-3.56145 6.16766,3.5609 6.16767,-3.5609 -6.16767,-3.5609 z m 12.33677,-7.12264 v 7.12236 l 6.16814,3.56118 6.16815,-3.56118 v -7.12236 l -6.16815,-3.56118 z m 30.84312,3.56146 v 7.1218 l 6.16767,-3.5609 v -7.1218 z m -18.50587,3.5609 6.16766,3.5609 v -7.1218 l -6.16767,-3.5609 z m 12.33725,0 6.16766,3.5609 v -7.1218 l -6.16766,-3.5609 z m -6.16863,-3.5609 v 7.1218 l 6.16767,-3.5609 v -7.1218 z m -6.16814,-3.56173 6.16766,3.56089 6.16766,-3.56089 -6.16766,-3.56091 z m -4.8e-4,-7.12264 v 7.1218 l 6.16767,-3.5609 v -7.1218 z"
     fill-opacity="0"
     stroke-miterlimit="10"
     id="path2"
     style="stroke-width:0.479782;stroke:#000000" />
  <path
     fill="#000000"
     stroke="#cccccc"
     paint-order="fill stroke markers"
     d="m 607.28927,166.90844 2.4e-4,4.2e-4 v 5.60945 l 4.8577,2.80459 4.85793,-2.80473 h 4.8e-4 l 4.85817,2.80487 2.4e-4,4.2e-4 v 5.60946 l 4.85769,2.80458 4.85793,-2.80472 h 4.8e-4 l 4.85818,2.80486 2.4e-4,4.2e-4 v 5.60973 l -4.8e-4,4.2e-4 -4.85794,-2.80473 -4.85769,2.80459 v 5.60918 l 4.85769,2.80459 4.85794,-2.80473 4.8e-4,4.2e-4 v 5.60973 l -2.4e-4,4.1e-4 -4.85818,2.80487 h -4.8e-4 l -4.85793,-2.80473 -4.85769,2.80459 v 5.60946 l -2.4e-4,4.2e-4 -4.85817,2.80486 h -4.8e-4 l -4.85793,-2.80472 -4.8577,2.80458 v 5.60946 l -2.4e-4,4.1e-4 -4.85817,2.80487 h -4.8e-4 l -4.85817,-2.80487 v -9.6e-4 l 4.85793,-2.80472 v -5.60918 l -4.85769,-2.80459 -4.85769,2.80459 v 5.60946 l -9.6e-4,4.2e-4 -4.85817,-2.80487 -2.4e-4,-4.2e-4 v -5.60973 l 2.4e-4,-4.2e-4 4.85793,-2.80473 v -5.60917 l -4.85793,-2.80473 -2.4e-4,-4.2e-4 v -5.60973 l 2.4e-4,-4.2e-4 4.85793,-2.80473 v -5.60917 l -4.85793,-2.80473 -2.4e-4,-4.2e-4 v -5.60961 l 2.4e-4,-4.2e-4 4.85817,-2.80486 9.6e-4,4.1e-4 v 5.60946 l 4.85769,2.80459 4.85769,-2.80459 V 169.714 l -4.85793,-2.80472 v -9.6e-4 l 4.85817,-2.80487 h 4.8e-4 z m 14.57452,30.85437 h -4.8e-4 l -4.85793,-2.80473 -9.71587,5.60945 v 5.60946 l -2.4e-4,4.2e-4 -4.85793,2.80473 v 5.60945 l -2.4e-4,4.2e-4 -4.85744,2.80445 4.8572,2.80431 4.8577,-2.80459 v -5.60945 l 2.4e-4,-4.2e-4 4.85793,-2.80473 v -5.60946 l 2.4e-4,-4.1e-4 4.85817,-2.80487 h 4.8e-4 l 4.85793,2.80473 4.85793,-2.80473 h 4.8e-4 l 4.85793,2.80473 4.8577,-2.80459 v -5.60862 l -4.85746,2.80445 h -4.8e-4 l -4.85793,-2.80473 z m -34.00696,-25.24394 v 5.60918 l 4.85793,2.80473 2.4e-4,4.1e-4 v 5.60946 l 4.85793,2.80472 2.4e-4,4.2e-4 v 5.60974 l -2.4e-4,4.1e-4 -4.85793,2.80473 v 5.60945 l -2.4e-4,4.2e-4 -4.85793,2.80473 v 5.60918 l 4.85721,2.80431 v -5.6089 l 2.4e-4,-4.2e-4 4.85793,-2.80473 v -5.60945 l 2.4e-4,-4.2e-4 4.85793,-2.80472 V 186.5432 l -4.85793,-2.80472 -2.4e-4,-4.2e-4 v -5.60946 l -4.85793,-2.80472 -2.4e-4,-4.2e-4 v -5.6089 z m 24.29086,30.85353 v 5.60918 l 4.85769,2.80459 4.85769,-2.80459 v -5.60918 l -4.85769,-2.80459 z m -9.71635,-5.61001 -2.4e-4,4.2e-4 -4.85793,2.80472 v 5.60918 l 4.85769,2.80459 4.8577,-2.80459 v -5.60945 l 2.4e-4,-4.2e-4 4.85744,-2.80445 -9.7149,-5.6089 z m -14.57451,-8.41432 v 5.60918 l 4.85769,2.80459 4.85769,-2.80459 v -5.60918 l -4.85769,-2.80459 z m 29.14879,1.4e-4 h -4.8e-4 l -4.85745,-2.80445 v 11.2178 l 4.85745,-2.80445 h 4.8e-4 l 4.85793,2.80473 4.85769,-2.80459 v -5.60918 l -4.85769,-2.80459 z m -9.71562,5.60932 4.85673,2.80403 v -5.60807 z m -4.8e-4,-9.6e-4 4.85672,-2.80391 -4.85673,-2.80403 z m -4.85769,-2.80391 4.85673,2.80403 v -5.60806 z m -4.85866,-14.02406 v 5.60918 l 4.85793,2.80473 2.4e-4,4.1e-4 v 5.6089 l 9.7149,-5.6089 -4.85744,-2.80444 -2.4e-4,-4.2e-4 v -5.60946 l -4.8577,-2.80458 z m 9.71683,11.21919 4.85673,2.80403 v -5.60806 z m -9.71634,-22.43893 4.85744,2.80445 2.4e-4,4.1e-4 v 5.60946 l 4.85793,2.80473 2.4e-4,4.2e-4 v 5.60945 l 9.71587,5.60945 4.85793,-2.80472 h 4.8e-4 l 4.85793,2.80472 4.85793,-2.80472 h 4.8e-4 l 4.85746,2.80445 v -5.60862 l -4.8577,-2.80459 -4.85793,2.80473 h -4.8e-4 l -4.85793,-2.80473 -4.85793,2.80473 h -4.8e-4 l -4.85817,-2.80487 -2.4e-4,-4.2e-4 v -5.60945 l -4.85793,-2.80473 -1e-4,-2.9e-4 -1.4e-4,-1.3e-4 v -5.60945 l -4.8577,-2.80459 z m 14.57403,8.41488 v 5.60918 l 4.85769,2.80458 4.85769,-2.80458 v -5.60918 l -4.85769,-2.80459 z"
     fill-opacity="0"
     stroke-miterlimit="10"
     id="path3"
     style="stroke-width:0.479782;stroke:#000000" />
  <path
     fill="#000000"
     stroke="#cccccc"
     paint-order="fill stroke markers"
     d="m 708.10383,167.22204 2.4e-4,4.2e-4 v 14.24555 l 6.16814,3.56118 12.33701,-7.12278 h 4.8e-4 l 6.16863,3.56146 v 9.6e-4 l -6.16839,3.56132 v 14.24527 l 6.16839,3.56132 3e-5,1e-4 1.1e-4,2e-5 -4e-5,1.9e-4 1e-4,2.9e-4 -1.7e-4,6e-5 -3e-5,1.7e-4 -6.16863,3.56146 h -4.8e-4 l -12.33701,-7.1229 -6.16814,3.56118 v 14.24555 l -2.4e-4,4.1e-4 -6.16862,3.56146 -9.6e-4,-4.1e-4 v -7.12264 l -12.33677,-7.12264 -6.16839,3.56132 -4.8e-4,-4.2e-4 v -7.12291 l 2e-4,-2.3e-4 4e-5,-1.9e-4 12.33701,-7.12277 v -7.12236 l -12.33701,-7.12277 -2.4e-4,-4.2e-4 v -7.12291 l 4.8e-4,-4.2e-4 6.16839,3.56131 12.33677,-7.12263 V 163.661 l 9.6e-4,-4.2e-4 z m -6.16838,46.29964 v 7.1218 l 6.16766,-3.5609 v -7.1218 z m -6.16815,-3.56174 6.16767,3.56091 6.16766,-3.56091 -6.16766,-3.5609 z m -6.1691,-3.56173 6.16766,3.5609 v -7.1218 l -6.16766,-3.5609 z m -6.16863,-3.5609 v 7.1218 l 6.16767,-3.5609 v -7.12181 z m 12.33725,0 v 7.1218 l 6.16767,-3.5609 v -7.1218 z m 6.16863,3.5609 6.16766,3.5609 v -7.1218 l -6.16766,-3.56091 z m 18.50635,-3.56118 6.16766,3.5609 6.16766,-3.5609 -6.16766,-3.5609 z m -30.84313,-3.56146 6.16767,3.5609 6.16766,-3.5609 -6.16766,-3.5609 z m 6.16815,-10.68409 v 7.12236 l 12.33677,7.12263 6.16814,-3.56117 v -14.24528 l -6.16814,-3.56117 z m 18.50587,10.68382 6.16767,3.5609 v -7.12181 l -6.16767,-3.5609 z m 6.16863,-3.56091 v 7.1218 l 6.16766,-3.56089 v -7.12181 z m -6.16814,-3.56173 6.16766,3.5609 6.16766,-3.5609 -6.16766,-3.5609 z m -4.8e-4,-7.12264 v 7.1218 l 6.16767,-3.56089 v -7.12181 z m 6.16863,3.56091 6.16766,3.56089 v -7.1218 l -6.16766,-3.5609 z m -30.84265,-3.56119 6.16766,3.56091 6.16767,-3.56091 -6.16767,-3.56089 z m 30.84313,-3.56145 6.16766,3.5609 6.16766,-3.5609 -6.16766,-3.5609 z m -18.50636,-3.56118 v 7.1218 l 6.16766,-3.5609 v -7.1218 z m -18.50587,3.5609 6.16766,3.5609 v -7.1218 l -6.16766,-3.5609 z m 6.16862,-3.5609 v 7.1218 l 6.16766,-3.5609 v -7.1218 z m 6.16862,3.5609 6.16767,3.5609 v -7.1218 l -6.16767,-3.5609 z m 4.8e-4,-7.12263 6.16767,3.56089 6.16766,-3.56089 -6.16766,-3.56091 z m 6.16815,-3.56174 6.16766,3.5609 v -7.1218 l -6.16766,-3.5609 z"
     fill-opacity="0"
     stroke-miterlimit="10"
     id="path4"
     style="stroke-width:0.479782;stroke:#000000" />
  <path
     fill="#000000"
     stroke="#cccccc"
     paint-order="fill stroke markers"
     d="m 503.02094,261.49589 h 2.3e-4 l 6.58495,3.80182 9e-5,2.9e-4 1.5e-4,1.2e-4 v 7.60281 l 13.16917,-7.60322 2.9e-4,6e-5 1.9e-4,-6e-5 6.58494,3.80182 2.4e-4,4.1e-4 v 15.20645 l 6.58423,-3.80141 h 4.8e-4 l 6.58494,3.80182 1.2e-4,3.5e-4 1.2e-4,7e-5 v 7.60364 l -6e-5,1.1e-4 3e-5,8e-5 -9e-5,3e-5 -1.2e-4,2e-4 -6.58494,3.80182 -3e-4,-6e-5 -1.8e-4,6e-5 -6.58423,-3.8014 v 15.20644 l -2.4e-4,4.2e-4 -6.58494,3.80182 h -4.8e-4 l -13.16917,-7.60322 v 7.6028 l -2e-4,2.3e-4 -4e-5,1.9e-4 -6.58495,3.80182 -3.5e-4,-7e-5 -1.3e-4,7e-5 -6.58494,-3.80182 -7e-5,-1.2e-4 -8e-5,-10e-6 2e-5,-9e-5 -1.1e-4,-2e-4 v -7.60364 l 2e-4,-2.2e-4 4e-5,-2e-4 6.58421,-3.8014 -13.16916,-7.60322 -2.4e-4,-4.2e-4 v -7.60364 l 2.4e-4,-4.2e-4 13.16916,-7.60321 -6.58421,-3.80141 -2.4e-4,-4.2e-4 v -7.60364 l 2.4e-4,-2.7e-4 v -1.4e-4 l 6.58494,-3.80182 h 1.3e-4 l 6e-5,-6e-5 z m 4.7e-4,45.62253 v 7.60253 l 6.58399,-3.80127 v -7.60252 z m -6.58446,3.80154 6.5835,3.80099 v -7.60197 z m 19.75483,-3.80182 6.58399,3.80127 6.58446,-3.80155 v -7.60252 z m -19.75531,-3.80154 v 7.60253 l 6.58398,-3.80127 v -7.60252 z m 4.8e-4,-7.60392 19.75339,11.40463 v -7.60253 l -13.16941,-7.60336 z m 6.58446,11.40463 6.5835,-3.80099 -6.5835,-3.80098 z m 13.16989,0 6.5835,-3.80099 -6.5835,-3.80098 z m 6.58495,-3.80182 6.5835,-3.80099 -6.5835,-3.80099 z m -6.58495,-3.80127 6.58399,3.80127 v -7.60253 l -6.58399,-3.80126 z m -6.58446,-3.80154 6.5835,3.80099 v -7.60197 z m 13.16941,-15.207 v 15.20672 l 6.58398,3.80127 v -22.80925 z m 6.58543,11.40518 6.58398,3.80127 6.58398,-3.80127 -6.58398,-3.80126 z m -39.51016,-7.60336 v 7.60309 l 6.58399,3.80126 v -15.20562 z m 6.58495,11.40435 6.5835,-3.80099 -6.5835,-3.80098 z m 13.16989,0 13.16844,-7.60281 -13.16844,-7.6028 z m 6.58543,-3.80099 6.5835,3.80099 v -7.60197 z m -13.16989,0 6.5835,3.80099 v -7.60197 z m -6.58495,-3.80182 6.58398,3.80127 6.58398,-3.80127 -6.58398,-3.80126 z m 32.92424,3.80099 6.58351,-3.80099 -6.58351,-3.80098 z m 6.58543,-3.80099 6.5835,3.80099 v -7.60197 z m -6.58494,-3.80182 6.58398,3.80127 6.58398,-3.80127 -6.58398,-3.80126 z m -32.92521,3.80099 6.5835,-3.80099 -6.5835,-3.80098 z m 6.58543,-3.80099 6.5835,3.80099 v -7.60197 z m 13.16989,0 6.5835,3.80099 v -7.60197 z m -19.75484,-3.80182 6.58398,3.80127 13.16941,-7.60336 v -7.60254 z m 19.75435,-3.80154 v 7.60253 l 6.58399,-3.80127 v -7.60252 z m -6.58446,3.80154 6.5835,3.80099 v -7.60197 z m 13.16941,-9.6e-4 6.5835,-3.80098 -6.5835,-3.80099 z m -6.58495,-3.80182 6.5835,-3.80098 -6.5835,-3.80099 z m 4.8e-4,-7.60281 13.16845,7.60281 v -7.60253 l -6.58446,-3.80154 z m -19.75531,3.80155 6.58398,3.80126 v -7.60253 l -6.58398,-3.80126 z m 6.58494,3.80126 6.5835,-3.80098 -6.5835,-3.80099 z m 0,-7.60308 6.58399,3.80126 v -7.60253 l -6.58399,-3.80126 z m -6.58446,-3.80155 6.5835,3.80099 v -7.60197 z"
     fill-opacity="0"
     stroke-miterlimit="10"
     id="path5"
     style="stroke-width:0.479782;stroke:#000000" />
  <path
     fill="#000000"
     stroke="#cccccc"
     paint-order="fill stroke markers"
     d="m 617.10058,265.23111 2.4e-4,4.1e-4 v 11.43793 l 9.90553,-5.71896 3e-4,6e-5 1.8e-4,-6e-5 9.90626,5.71938 2.4e-4,4.1e-4 v 22.87752 l -2.4e-4,4.2e-4 -9.90626,5.71938 -3e-4,-6e-5 -1.8e-4,6e-5 -9.90553,-5.71896 v 11.43792 l -2.4e-4,4.2e-4 -9.90626,5.71938 h -4.8e-4 l -19.81252,-11.43876 -2.4e-4,-4.2e-4 v -11.43876 l 2.1e-4,-2.2e-4 3e-5,-1.9e-4 9.90554,-5.71897 -9.90554,-5.71896 -9e-5,-2.9e-4 -1.5e-4,-1.3e-4 V 270.9509 l 2.4e-4,-4.1e-4 19.81252,-11.43877 h 4.8e-4 z m -19.8118,45.75545 9.9053,5.71883 9.90578,-5.71911 v -11.43764 z m -9.90674,-17.15786 v 11.4382 l 9.9053,5.71883 v -22.87586 z m 9.90626,17.15703 9.90482,-5.71855 -9.90482,-5.71854 z m 19.81299,-11.43793 9.9053,5.71882 9.90578,-5.7191 v -11.43764 z m -9.90673,5.71855 9.90481,-5.71855 -9.90481,-5.71854 z m -9.90577,-5.71855 9.90481,5.71855 v -11.43709 z m 9.90625,-5.71938 9.90482,5.71855 v -11.4371 z m -9.90674,5.71855 9.90481,-5.71855 -9.90481,-5.71854 z m 19.81252,0 9.90481,-5.71855 -9.90481,-5.71854 z m -9.90626,-5.71938 9.90481,-5.71855 -9.90481,-5.71855 z m 19.81251,0 9.90481,-5.71855 -9.90481,-5.71855 z m -29.71829,-5.71855 9.90482,5.71855 V 282.3905 Z m 19.81251,0 9.90482,5.71855 V 282.3905 Z m -29.71925,-17.15786 v 11.43821 l 9.9053,5.71882 v -22.87586 z m 19.813,11.43848 9.90482,5.71855 v -11.4371 z m -9.90674,5.71855 9.90481,-5.71855 -9.90481,-5.71854 z m 19.81252,0 9.90481,-5.71855 -9.90481,-5.71854 z m 4.7e-4,-11.43793 19.81108,11.43793 v -11.43765 l -9.90578,-5.7191 z m -9.90673,5.71855 9.90481,-5.71855 -9.90481,-5.71855 z m -9.90577,-5.71855 9.90481,5.71855 v -11.43709 z m -4.8e-4,-9.6e-4 9.90481,-5.71854 -9.90481,-5.71855 z m 4.8e-4,-11.43792 19.81107,11.43792 V 265.2318 l -9.90578,-5.7191 z"
     fill-opacity="0"
     stroke-miterlimit="10"
     id="path6"
     style="stroke-width:0.479782;stroke:#000000" />
  <path
     fill="#000000"
     stroke="#cccccc"
     paint-order="fill stroke markers"
     d="m 710.86817,262.57275 2.4e-4,4.1e-4 v 6.38397 l -2.4e-4,4.2e-4 -5.52844,3.19184 v 6.38342 l 11.05688,6.38369 5.5282,-3.1917 v -6.3837 l 2e-4,-2.2e-4 4e-5,-2e-4 5.52868,-3.19198 h 4.8e-4 l 5.52868,3.19198 2.4e-4,4.2e-4 v 6.38397 l -2.4e-4,4.2e-4 -5.52868,3.19199 h -4.8e-4 l -5.52844,-3.19185 -5.5282,3.19171 v 6.38341 l 5.5282,3.19171 5.52844,-3.19185 h 4.8e-4 l 5.52868,3.19198 2.4e-4,4.2e-4 v 6.38398 l -2.4e-4,4.1e-4 -5.52868,3.19199 h -4.8e-4 l -5.52868,-3.19199 -2.4e-4,-4.1e-4 v -6.3837 l -5.5282,-3.19171 -11.05688,6.38369 v 6.38342 l 5.52844,3.19185 2.4e-4,4.1e-4 v 6.38397 l -2.4e-4,4.2e-4 -5.52868,3.19198 h -4.8e-4 l -5.52868,-3.19198 -2.4e-4,-4.2e-4 v -6.38397 l 2.4e-4,-4.1e-4 5.52844,-3.19185 v -6.38342 l -5.5282,-3.1917 -5.5282,3.1917 v 6.3837 l -2.4e-4,4.2e-4 -5.52868,3.19198 h -4.8e-4 l -5.52868,-3.19198 -2.4e-4,-4.2e-4 V 297.685 l 2.4e-4,-4.2e-4 5.52868,-3.19199 h 4.8e-4 l 5.52844,3.19185 5.5282,-3.19171 v -12.76738 l -5.5282,-3.1917 -5.52844,3.19184 h -4.8e-4 l -5.52868,-3.19198 -2.4e-4,-4.2e-4 v -6.38397 l 2.4e-4,-4.2e-4 5.52868,-3.19199 h 4.8e-4 l 5.52868,3.19199 2.4e-4,4.2e-4 v 6.38369 l 5.5282,3.19171 5.5282,-3.19171 v -6.38342 l -5.52844,-3.19184 -2.4e-4,-4.2e-4 v -6.38397 l 2.4e-4,-4.1e-4 5.52868,-3.19199 h 4.8e-4 z m -11.05712,44.68848 v 6.38341 l 5.5282,3.19171 5.5282,-3.19171 v -6.38341 l -5.5282,-3.1917 z m -16.58604,-9.57596 v 6.38342 l 5.5282,3.19171 5.5282,-3.19171 v -6.38342 l -5.5282,-3.1917 z m 38.70076,-3.19198 v 6.38342 l 5.5282,3.1917 5.5282,-3.1917 v -6.38342 l -5.5282,-3.19171 z m -16.58604,3.19087 5.52724,-3.19115 -5.52724,-3.19115 z m -5.5282,-3.19115 5.52724,3.19115 v -6.3823 z m -4.8e-4,-9.6e-4 5.52724,-3.19115 -5.52724,-3.19115 z m 11.05736,0 5.52724,-3.19115 -5.52724,-3.19115 z m -5.52819,-3.19115 5.52724,3.19115 v -6.3823 z m -4.8e-4,-9.6e-4 5.52723,-3.1909 -5.52724,-3.19115 z m 5.52915,-3.1909 5.52724,3.19115 v -6.3823 z m -11.05736,0 5.52724,3.19115 v -6.3823 z m -4.8e-4,-9.6e-4 5.52724,-3.19115 -5.52724,-3.19115 z m 11.05736,0 5.52724,-3.19115 -5.52724,-3.19115 z m -5.52819,-3.19115 5.52724,3.19115 v -6.3823 z m 16.58556,-9.57568 v 6.38342 l 5.5282,3.19171 5.5282,-3.19171 v -6.38342 l -5.5282,-3.1917 z m -16.58605,9.57485 5.52724,-3.19115 -5.52724,-3.19115 z m -5.52819,-3.19115 5.52723,3.19115 v -6.3823 z m -16.58653,-9.57568 v 6.38342 l 5.5282,3.1917 5.5282,-3.1917 v -6.38342 l -5.5282,-3.19171 z m 16.58604,-9.57595 v 6.38341 l 5.5282,3.19171 5.52821,-3.19171 v -6.38341 l -5.52821,-3.19171 z"
     fill-opacity="0"
     stroke-miterlimit="10"
     id="path7"
     style="stroke-width:0.479782;stroke:#000000" />
  <path
     fill="#000000"
     stroke="#cccccc"
     paint-order="fill stroke markers"
     d="m 537.78125,384.06501 3e-5,1.1e-4 1.1e-4,2e-5 -4e-5,1.9e-4 10e-5,2.8e-4 -1.7e-4,6e-5 -3e-5,1.7e-4 -43.18037,24.9302 -4.8e-4,-4.2e-4 v -49.86039 l 4.8e-4,-4.2e-4 z m -43.18013,24.92978 8.63463,-4.9852 -8.63463,-4.98521 z m 8.63607,-4.98604 8.63463,-4.98521 -8.63463,-4.9852 z m -8.63559,-4.98521 8.63463,4.98521 v -9.97041 z m 17.27166,-9.5e-4 8.63463,-4.98521 -8.63463,-4.98521 z m -17.27214,-10e-6 8.63463,-4.9852 -8.63463,-4.98521 z m 8.63655,-4.9852 8.63463,4.9852 v -9.97041 z m -4.8e-4,-9.6e-4 17.27071,-9.97099 -17.27071,-9.97125 z m 17.27215,0 8.63464,-4.98521 -8.63464,-4.98521 z m -25.90774,-4.98496 8.63463,4.98521 v -9.97041 z m 17.27215,0 8.63463,4.98521 v -9.97041 z m 17.27166,-8.3e-4 8.63463,-4.9852 -8.63463,-4.98521 z m -34.54429,0 8.63463,-4.9852 -8.63463,-4.98521 z m 25.9087,-4.9852 8.63463,4.9852 v -9.97041 z m -4.8e-4,-9.6e-4 8.63464,-4.98521 -8.63464,-4.98521 z m -25.90774,-4.98508 8.63463,4.9852 v -9.97041 z m 17.27215,0 8.63463,4.9852 v -9.97041 z m -17.27263,-9.6e-4 8.63463,-4.98521 -8.63463,-4.9852 z m 17.27214,0 8.63463,-4.98521 -8.63463,-4.98521 z m -8.63559,-4.98521 8.63463,4.98521 v -9.97041 z m -4.8e-4,-9.6e-4 8.63464,-4.98521 -8.63464,-4.9852 z m -8.63559,-4.98521 8.63464,4.98521 v -9.97041 z m -4.8e-4,-9.5e-4 8.63464,-4.98521 -8.63464,-4.98521 z"
     fill-opacity="0"
     stroke-miterlimit="10"
     id="path8"
     style="stroke-width:0.479782;stroke:#000000" />
  <path
     fill="#000000"
     stroke="#cccccc"
     paint-order="fill stroke markers"
     d="m 624.4847,359.13481 2.4e-4,4.2e-4 v 7.12208 l 6.1679,-3.56104 h 4.8e-4 l 6.16862,3.56146 2.4e-4,4.1e-4 v 7.12292 l -9.6e-4,4.2e-4 -6.16838,-3.56133 -6.16814,3.56118 v 21.36819 l 6.16814,3.56118 6.16838,-3.56132 9.6e-4,4.2e-4 v 7.12291 l -2.4e-4,4.2e-4 -6.16862,3.56146 h -4.8e-4 l -6.1679,-3.56104 v 7.12207 l -2.4e-4,4.2e-4 -6.16863,3.56146 h -4.8e-4 l -6.16862,-3.56146 v -9.6e-4 l 6.16838,-3.56131 v -7.12236 l -18.5054,-10.6841 -6.16814,3.56118 v 7.12264 l -9.6e-4,4.2e-4 -6.16862,-3.56146 -2.4e-4,-4.2e-4 v -7.12291 l 2.4e-4,-4.2e-4 6.1679,-3.56104 -6.1679,-3.56104 -2.4e-4,-4.1e-4 v -7.12292 l 2.4e-4,-4.1e-4 6.16862,-3.56146 9.6e-4,4.1e-4 v 7.12264 l 6.16814,3.56118 18.5054,-10.68409 v -7.12236 l -6.16838,-3.56132 v -9.6e-4 l 6.16862,-3.56146 h 4.8e-4 z m -6.16839,46.29936 -2e-4,2.3e-4 -4e-5,1.9e-4 -6.1679,3.56103 6.16766,3.56091 6.16815,-3.56118 v -7.12236 l -6.16767,-3.5609 z m 12.33701,-7.1225 -3e-4,-6e-5 -1.8e-4,6e-5 -6.1679,-3.56104 v 7.12181 l 6.16814,3.56117 6.16814,-3.56118 v -7.1218 z m -12.33701,-4.8e-4 6.16767,3.56091 v -7.1218 l -6.16767,-3.56091 z m -30.84312,-10.68381 v 7.12235 l 6.16766,3.56091 v -7.12208 l 2e-4,-2.3e-4 4e-5,-1.9e-4 6.1679,-3.56104 -6.16766,-3.5609 z m 24.67498,7.12263 6.16718,3.56063 v -7.12125 z m 6.16862,-3.56145 6.16719,3.56062 v -7.12125 z m -12.33725,0 6.16719,3.56062 v -7.12125 z m 6.16815,3.56062 6.16717,-3.56062 -6.16717,-3.56063 z m -12.33677,-7.12208 6.16718,3.56063 v -7.12126 z m 6.16814,3.56062 6.16719,-3.56062 -6.16719,-3.56062 z m 12.33725,0 6.16718,-3.56062 -6.16718,-3.56063 z m -6.16814,-3.56062 6.16718,3.56062 v -7.12146 z m -18.50588,-3.56167 6.16766,3.5609 6.16767,-3.5609 -6.16767,-3.56091 z m 18.5054,3.56062 6.16718,-3.56062 -6.16718,-3.56063 z m -6.16815,-3.56062 6.16719,3.56062 v -7.12125 z m 12.33726,0 6.16718,3.56062 v -7.12124 z m -30.84361,-10.68409 v 7.12235 l 6.16814,3.56118 6.16766,-3.5609 -6.1679,-3.56104 -9e-5,-2.9e-4 -1.5e-4,-1.3e-4 v -7.12208 z m 30.84312,10.68326 6.16718,-3.56063 -6.16718,-3.56062 z m -18.50539,-3.56063 6.16718,3.56063 v -7.12126 z m 6.16814,3.56062 6.16719,-3.56062 -6.16719,-3.56062 z m 6.16911,-3.56062 6.16718,3.56062 v -7.12124 z m -4.8e-4,-9.6e-4 6.16718,-3.56063 -6.16718,-3.56062 z m 6.16911,-3.56063 6.16718,3.56063 v -7.12125 z m -12.33725,0 6.16718,3.56063 v -7.12125 z m 12.33676,-7.12263 v 7.1218 l 6.16767,-3.5609 v -7.12181 z m -6.16814,3.56118 6.16718,3.56062 v -7.12125 z m 12.33677,-7.12264 v 7.1218 l 6.16791,-3.56104 2.9e-4,6e-5 1.9e-4,-6e-5 6.1679,3.56104 v -7.1218 l -6.16814,-3.56118 z m -12.33676,-7.12319 6.16789,3.56104 1e-4,2.9e-4 1.4e-4,1.2e-4 v 7.12209 l 6.16767,-3.56091 v -7.12235 l -6.16815,-3.56118 z"
     fill-opacity="0"
     stroke-miterlimit="10"
     id="path9"
     style="stroke-width:0.479782;stroke:#000000" />
  <path
     fill="#000000"
     stroke="#cccccc"
     paint-order="fill stroke markers"
     d="m 704.81136,365.05591 2.4e-4,4.2e-4 v 15.20644 l 13.16917,-7.60322 h 4.8e-4 l 13.16989,7.60364 1.1e-4,3.4e-4 1.3e-4,8e-5 v 7.60364 l -2.4e-4,2.7e-4 v 1.5e-4 l -13.16989,7.60363 h -4.8e-4 l -13.16917,-7.60322 v 15.20645 l -2.4e-4,4.1e-4 -13.16989,7.60364 -3.6e-4,-7e-5 -1.2e-4,7e-5 -6.58495,-3.80182 -7e-5,-1.1e-4 -7e-5,-2e-5 2e-5,-9e-5 -1.2e-4,-1.9e-4 v -15.20728 l 2.4e-4,-4.2e-4 13.16917,-7.60322 -13.16917,-7.60323 -2.4e-4,-4.1e-4 v -15.20728 l 1.8e-4,-10e-5 6e-5,-3.2e-4 6.58495,-3.80182 3.5e-4,7e-5 1.3e-4,-7e-5 z m -13.16965,45.62142 6.5835,-3.80098 -6.5835,-3.80099 z m -6.58446,-3.80098 6.5835,3.80098 v -7.60197 z m -4.8e-4,-9.6e-4 6.5835,-3.80099 -6.5835,-3.80098 z m 13.16989,-7.60253 v 7.60253 l 6.58398,-3.80127 v -7.60253 z m -13.16941,-2.8e-4 13.16845,7.60281 v -7.60253 l -6.58447,-3.80154 z m 6.58446,-3.8021 6.58447,3.80154 6.58398,-3.80126 -13.16845,-7.6028 z m -6.58494,-3.80126 v 7.60253 l 6.58398,-3.80127 v -7.6024 z m 26.34026,-2.8e-4 6.58398,3.80126 6.58398,-3.80126 -6.58398,-3.80126 z m -13.16989,0 6.5835,3.80098 v -7.60184 z m -4.8e-4,-9.6e-4 13.16844,-7.60255 -13.16845,-7.60281 z m 13.16989,0 6.58399,-3.80126 v -7.60308 l -6.58399,-3.80127 z m 13.16989,0 6.5835,-3.80098 -6.5835,-3.80099 z m -32.92424,-3.80098 6.5835,3.80098 v -7.60197 z m 13.16989,0 6.5835,3.80098 v -7.60197 z m 13.16941,-7.60336 v 7.60308 l 6.58398,3.80126 v -15.20536 z m 6.58542,3.80179 6.5835,3.80098 v -7.60197 z m -32.92473,-3.80182 6.5835,3.80098 v -7.60197 z m 13.16989,0 6.5835,3.80098 v -7.60197 z m 19.75435,3.80098 6.5835,-3.80098 -6.5835,-3.80099 z m -13.1694,-7.6028 6.58398,3.80126 6.58398,-3.80126 -6.58398,-3.80126 z m -19.75532,-3.80154 v 7.60252 l 13.16844,-7.6028 -6.58398,-3.80126 z m -6.58495,3.80126 6.58399,3.80126 v -7.60252 l -6.58399,-3.80127 z m 13.17038,2.8e-4 6.5835,3.80098 v -7.60197 z m -13.16989,-7.60364 6.58398,3.80126 6.58446,-3.80154 v -7.60253 z m 13.1694,-2.8e-4 6.58399,3.80126 v -7.60252 l -6.58399,-3.80127 z m -13.16989,-4.8e-4 6.5835,-3.80099 -6.5835,-3.80098 z m 6.58495,-3.80182 6.5835,-3.80099 -6.5835,-3.80098 z m -6.58446,-3.80099 6.5835,3.80099 v -7.60197 z"
     fill-opacity="0"
     stroke-miterlimit="10"
     id="path10"
     style="stroke-width:0.479782;stroke:#000000" />
  <path
     fill="#000000"
     stroke="#cccccc"
     paint-order="fill stroke markers"
     d="m 522.77577,457.21033 6.5847,-3.80168 h 4.8e-4 l 6.58495,3.80182 2.4e-4,4.2e-4 v 7.60336 l 6.5847,3.80169 2.4e-4,4.1e-4 v 7.60364 l -2.4e-4,4.2e-4 -6.58422,3.8014 6.58422,3.80141 2.4e-4,4.3e-4 v 7.60363 l -2.4e-4,3.9e-4 -6.5847,3.80169 v 7.60335 l -2.4e-4,4.3e-4 -6.58495,3.80184 h -4.8e-4 l -6.5847,-3.8017 -6.58471,3.8017 h -4.8e-4 l -6.58494,-3.80184 -2.4e-4,-4.3e-4 v -7.60277 l -6.58423,3.80141 h -4.8e-4 l -6.58494,-3.80184 -2.4e-4,-4.4e-4 v -7.60334 l -6.58471,-3.8017 -2.4e-4,-3.8e-4 v -7.60366 l 2.4e-4,-4.2e-4 6.58471,-3.80168 v -7.60336 l 2.4e-4,-4.1e-4 6.58494,-3.80183 h 4.8e-4 l 6.58423,3.80141 v -7.60281 l 2.4e-4,-4.2e-4 6.58494,-3.80182 h 4.8e-4 z m -6.58471,41.82102 h -4.8e-4 l -6.58422,-3.80141 v 7.60253 l 6.58446,3.80155 6.58447,-3.80155 v -7.60253 z m 13.17013,-4.4e-4 -7e-5,10e-5 3e-5,1e-4 -1.8e-4,4e-5 -2e-4,2.4e-4 -1.3e-4,-1.4e-4 -1.7e-4,10e-5 -6.58422,-3.80141 v 7.60253 l 6.58446,3.80155 6.58447,-3.80155 v -7.60311 l -6.58399,-3.80126 z m -32.92472,-11.40518 v 7.60306 l 6.58446,3.80155 6.58398,-3.80127 -6.58422,-3.8014 -2.4e-4,-3.9e-4 v -7.60281 z m 6.58494,3.80126 13.16941,7.60335 6.58398,-3.80127 -19.75339,-11.4046 z m 19.75484,3.8018 6.58398,3.80131 v -7.60253 l -6.58398,-3.80126 z m 13.16989,-7.60335 -2.4e-4,4.3e-4 -6.58423,3.80141 6.58399,3.80127 6.58446,-3.80156 v -7.6031 l -6.58398,-3.80126 z m -19.75436,3.80184 6.58351,3.80098 v -7.602 z m -6.58494,-3.80184 6.5835,3.80098 v -7.60195 z m 13.16989,0 6.5835,3.80098 v -7.60195 z m -6.58543,-3.80155 v 7.60253 l 13.16845,-7.60277 -6.58398,-3.80126 z m 13.16989,7.60253 6.58399,-3.80127 v -15.2067 l -6.58399,-3.80126 z m -39.50967,-15.20615 v 7.60309 l 6.58447,3.80156 6.58398,-3.80127 -6.58422,-3.80141 v -9.6e-4 l 6.58422,-3.8014 -6.58398,-3.80126 z m 19.75484,11.40436 6.58398,-3.80127 v -7.60309 l -6.58398,-3.80127 z m -6.58446,-3.80098 6.5835,3.80098 v -7.602 z m -6.58495,-3.80184 6.58398,3.80127 6.58398,-3.80127 -6.58398,-3.80126 z m 19.75435,3.80098 6.5835,-3.80098 -6.5835,-3.80098 z m 6.58543,-3.80098 6.5835,3.80098 v -7.60196 z m -6.58543,-3.8021 6.58447,3.80154 6.58398,-3.80126 -13.16845,-7.6028 z m -13.1694,2.8e-4 6.5835,3.80099 V 472.419 Z m 26.33977,-7.60364 6.58423,3.8014 2.4e-4,4.2e-4 v 7.60281 l 6.58398,-3.80127 v -7.60308 l -6.58446,-3.80154 z m -26.34026,2.8e-4 v 7.60253 l 19.75339,-11.40463 -6.58398,-3.80126 z m 6.58543,3.80154 6.5835,3.80099 v -7.60198 z m 13.16989,0 6.5835,3.80099 v -7.60198 z m -26.34026,-7.60336 v 7.60308 l 6.58398,3.80127 v -7.60281 l 2.4e-4,-4.1e-4 6.58422,-3.80141 -6.58398,-3.80126 z m 19.75531,3.80154 6.58351,3.80099 v -7.60198 z m 6.58447,-3.80154 v 7.60252 l 6.58398,-3.80126 v -7.60252 z m 0,-7.60364 v 7.60253 l 6.58422,-3.80141 1.1e-4,3e-5 7e-5,-8e-5 1.4e-4,1.2e-4 3e-4,6e-5 -3e-5,1.8e-4 1.3e-4,1.1e-4 v 7.60281 l 6.58399,-3.80127 v -7.60308 l -6.58447,-3.80154 z m -13.16989,0 v 7.60253 l 6.58422,-3.80141 3e-4,7e-5 1.8e-4,-7e-5 6.58423,3.80141 v -7.60253 l -6.58447,-3.80154 z"
     fill-opacity="0"
     stroke-miterlimit="10"
     id="path11"
     style="stroke-width:0.479782;stroke:#000000" />
  <path
     fill="#000000"
     stroke="#cccccc"
     paint-order="fill stroke markers"
     d="m 631.536,457.63341 2.4e-4,4.2e-4 v 8.95491 l 7.75519,4.47746 v 9.6e-4 l -7.75519,4.47746 v 8.95466 l 7.75519,4.47747 v 0 l -7.75519,4.47747 v 8.95489 l -2.4e-4,4.3e-4 -7.75542,4.47761 h -4.8e-4 l -7.75518,-4.47747 -7.75519,4.47747 -4.8e-4,-4.3e-4 v -8.95494 l -7.75494,-4.47727 -7.75518,4.47742 -9.6e-4,-3.9e-4 v -8.95494 l -7.75519,-4.47746 -2.4e-4,-3.9e-4 v -8.95523 l 2.4e-4,-4.2e-4 7.75519,-4.47745 v -8.95491 l 9.6e-4,-4.2e-4 7.75518,4.47745 7.75494,-4.47731 v -8.95492 l 4.8e-4,-4.1e-4 7.75519,4.47745 7.75518,-4.47745 h 4.8e-4 z m -15.5106,44.77613 7.75494,4.47728 7.75494,-4.47728 v -8.95465 l -15.50988,-8.95465 z m -7.75543,-4.47709 v 8.95408 l 7.75447,-4.47699 v -8.95412 z m -7.75542,-4.47814 7.75494,4.47733 7.75446,-4.47704 -15.5094,-8.95436 z m -7.75542,-4.47703 v 8.95407 l 7.75446,-4.47704 v -8.95407 z m 31.02217,-2.9e-4 7.75446,4.47704 7.75447,-4.47704 -7.75447,-4.47704 z m -15.51085,0 7.75399,4.4768 v -8.95355 z m -23.26675,-13.4325 v 8.95465 l 7.75495,4.47732 15.50988,-8.95465 -15.50988,-8.95463 z m 15.51133,8.95493 7.75398,4.47675 v -8.95354 z m 15.51085,0 7.75398,4.47675 v -8.95354 z m -7.75591,4.47675 7.75398,-4.47675 -7.75398,-4.47679 z m 15.51085,0 7.75446,-4.47703 v -8.95465 l -7.75446,-4.47704 z m -7.75542,-4.47761 7.75398,-4.47675 -7.75398,-4.47676 z m -7.75494,-4.47675 7.75398,4.47675 v -8.95351 z m -4.8e-4,-9.6e-4 7.75398,-4.47676 -7.75398,-4.47676 z m 7.7559,-4.47676 7.75399,4.47676 v -8.9534 z m -15.51085,0 7.75399,4.47676 v -8.9534 z m 23.26628,-4.4776 7.75446,4.47704 7.75446,-4.47704 -7.75446,-4.47704 z m -31.02218,-2.7e-4 7.75446,4.47704 v -8.95409 l -7.75446,-4.47703 z m 15.51133,2.7e-4 7.75398,4.47677 v -8.95353 z m -7.75591,-4.47732 v 8.95408 l 15.50941,-8.95435 -7.75446,-4.47704 z m 15.51085,-8.95519 v 17.90927 l 15.50989,-8.95463 v -8.95464 l -7.75494,-4.47731 z m -7.75542,4.47704 7.75446,4.47704 v -8.95408 l -7.75446,-4.47703 z"
     fill-opacity="0"
     stroke-miterlimit="10"
     id="path12"
     style="stroke-width:0.479782;stroke:#000000" />
  <path
     fill="#000000"
     stroke="#cccccc"
     paint-order="fill stroke markers"
     d="m 727.85866,457.21047 2.4e-4,4.2e-4 v 7.60336 l 6.58471,3.80169 10e-5,2.9e-4 1.4e-4,1.2e-4 v 7.60364 l -2e-4,2.3e-4 -4e-5,1.9e-4 -6.58422,3.8014 6.58422,3.80141 2.4e-4,4.3e-4 v 7.60363 l -2e-4,1.9e-4 -4e-5,2e-4 -6.58471,3.80169 v 7.60335 l -2.4e-4,4.3e-4 -6.58494,3.80184 h -4.8e-4 l -6.58471,-3.8017 -6.5847,3.8017 -3e-4,-5e-5 -1.8e-4,5e-5 -6.58494,-3.80184 -2.4e-4,-4.3e-4 v -7.60277 l -6.58423,3.80141 -3e-4,-10e-5 -1.8e-4,10e-5 -6.58494,-3.80184 -10e-5,-2.9e-4 -1.4e-4,-1.5e-4 v -7.60334 l -6.58471,-3.8017 -2.4e-4,-3.8e-4 v -7.60366 l 2.4e-4,-4.2e-4 6.58471,-3.80168 v -7.60336 l 2e-4,-2.2e-4 4e-5,-1.9e-4 6.58494,-3.80183 h 4.8e-4 l 6.58423,3.80141 v -7.60281 l 2e-4,-2.2e-4 4e-5,-2e-4 6.58494,-3.80182 3e-4,7e-5 1.8e-4,-7e-5 6.5847,3.80168 6.58471,-3.80168 h 4.8e-4 z m -26.33953,38.01889 v 7.60311 l 6.58446,3.80155 13.16893,-7.60311 -13.16893,-7.6031 z m 13.17037,7.60335 6.58398,3.80131 6.58446,-3.80155 v -7.60253 z m -26.34026,-7.60392 6.58446,3.80155 6.58447,-3.80155 v -7.60306 l -13.16893,-7.6031 z m 32.92472,-11.4049 v 15.20621 l 13.16893,-7.60311 v -7.6031 l -6.58446,-3.8015 z m -6.58446,11.40518 6.5835,3.80103 v -7.602 z m -13.17037,-7.60334 v 7.60253 l 6.58398,-3.80127 v -7.60252 z m 13.16988,7.60253 6.5835,-3.80098 -6.5835,-3.80102 z m -6.58494,-3.80127 6.58398,3.80127 v -7.60253 l -6.58398,-3.80126 z m 6.58494,-3.80184 6.58399,3.80127 v -7.60253 l -6.58399,-3.80126 z m -19.75434,-3.8015 6.58398,3.80127 6.58398,-3.80127 -6.58398,-3.80126 z m -13.17038,-7.60338 v 7.60309 l 6.58399,3.80127 V 472.419 Z m 26.34026,7.60338 6.5835,3.80098 v -7.602 z m 6.58495,-3.80184 6.58398,3.80127 6.58398,-3.80127 -6.58398,-3.80126 z m -19.75532,3.80098 6.58351,-3.80098 -6.58351,-3.80098 z m 13.16989,0 6.5835,-3.80098 -6.5835,-3.80098 z m -19.75435,-3.80098 6.5835,3.80098 v -7.60196 z m 13.16989,0 6.5835,3.80098 v -7.60196 z m -6.58494,-3.80182 6.58398,3.80126 6.58398,-3.80126 -6.58398,-3.80126 z m 26.33929,-2.8e-4 6.58447,3.80154 6.58446,-3.80154 v -7.60308 l -13.16893,-7.60309 z m -32.92472,-11.4049 v 15.20617 l 13.16893,-7.60309 v -7.60308 l -6.58447,-3.80154 z m 26.33977,7.60364 v 7.60253 l 6.58399,-3.80127 v -7.60252 z m -6.58446,3.80154 6.5835,3.80099 V 472.419 Z m -4.8e-4,-7.60336 v 7.60253 l 6.58399,-3.80126 v -7.60253 z m -6.58494,3.80126 6.58399,3.80127 v -7.60253 l -6.58399,-3.80126 z m 13.16989,-4.8e-4 6.5835,-3.80098 -6.5835,-3.80099 z m -13.16989,-15.20617 v 7.60309 l 6.58446,3.80147 13.16893,-7.60309 -13.16893,-7.60308 z m 13.17037,7.60336 6.5835,3.80099 v -7.60197 z m 0,-7.60364 13.16845,7.60281 v -7.60253 l -6.58447,-3.80154 z"
     fill-opacity="0"
     stroke-miterlimit="10"
     id="path13"
     style="stroke-width:0.479782;stroke:#000000" />
  <path
     fill="#000000"
     stroke="#cccccc"
     paint-order="fill stroke markers"
     d="m 521.24471,549.71704 h 2.3e-4 l 5.05364,2.91775 5.05364,-2.91775 h 4.8e-4 l 5.05388,2.91785 2.4e-4,4.3e-4 v 5.83544 l 5.05365,2.91775 v 1.9e-4 l 2.4e-4,1.9e-4 v 5.83573 l -2.4e-4,4.3e-4 -10.10753,5.83554 v 5.83521 l 10.10753,5.83554 2.4e-4,4.3e-4 v 5.83573 l -7e-5,10e-5 3e-5,9e-5 h -9e-5 l -1.1e-4,2.4e-4 -5.05365,2.9177 v 5.83544 l -2.4e-4,4.3e-4 -5.05388,2.91785 h -4.8e-4 l -5.05364,-2.9177 -5.05364,2.9177 h -1.2e-4 l -6e-5,4e-5 -6e-5,-4e-5 h -2.4e-4 l -5.05388,-2.91785 -2.4e-4,-4.3e-4 V 587.6499 l -5.0534,-2.91756 -10.10752,5.83559 h -4.8e-4 l -5.05388,-2.91789 -1.1e-4,-3.3e-4 -1.3e-4,-5e-5 v -5.83545 l -5.05364,-2.91774 -2.4e-4,-4.3e-4 v -5.83569 l 2.4e-4,-4.3e-4 5.05364,-2.9177 v -5.83544 l 1.8e-4,-1.4e-4 6e-5,-2.9e-4 5.05388,-2.91784 h 4.8e-4 l 10.10752,5.83554 5.0534,-2.91756 v -11.67117 l 2.4e-4,-4.3e-4 5.05388,-2.91785 h 1.3e-4 l 5e-5,-4e-5 z m 5.05435,43.76859 v 5.83515 l 5.0534,2.91761 5.0534,-2.91761 v -5.83515 l -5.0534,-2.9176 z m -10.10727,-2.9e-4 5.05315,2.91746 2.4e-4,4.3e-4 v 5.83487 l 5.05292,-2.91732 v -5.83515 l -5.0534,-2.9176 z m -4.8e-4,5.83544 5.05292,2.91732 v -5.83463 l -5.05292,-2.91727 z m 5.05364,-37.93146 h -4.8e-4 l -5.05316,-2.91746 v 5.83492 l -2.4e-4,3.8e-4 -5.05388,2.91789 h -4.8e-4 l -5.05317,-2.91745 v 5.83486 l -2.4e-4,4.4e-4 -5.05363,2.91769 v 5.83521 l 5.05363,2.91769 2.4e-4,4.4e-4 v 5.83486 l 5.05317,-2.91745 h 4.8e-4 l 5.05388,2.91789 2.4e-4,4.3e-4 v 5.83487 l 5.05316,-2.91746 2.9e-4,5e-5 1.9e-4,-5e-5 5.05364,2.91774 5.0534,-2.9176 v -5.83544 l 2.4e-4,-4.3e-4 5.05315,-2.91741 -5.05315,-2.91746 -2.4e-4,-4.3e-4 v -5.83569 l 2.4e-4,-4.3e-4 5.05315,-2.91746 -5.05315,-2.91741 -2.4e-4,-4.3e-4 v -5.83544 l -5.0534,-2.9176 z m 10.108,23.34274 v 5.83515 l 5.0534,2.9176 5.05292,-2.91731 -5.05316,-2.91746 -2.4e-4,-3.8e-4 v -5.83492 z m -35.37668,2.9176 5.05292,2.91726 5.05291,-2.91726 -5.05291,-2.91732 z m 40.43056,-2.9e-4 5.05292,2.91727 v -5.83458 l -5.05292,-2.91732 z m -40.43104,-5.83516 v 5.83458 l 5.05316,-2.91745 h 4.8e-4 l 5.05315,2.91745 v -5.83458 l -5.05339,-2.9176 z m -5.05389,-8.75362 v 5.83521 l 5.05341,2.91755 5.0534,-2.91755 v -5.83521 l -5.0534,-2.91755 z m 10.10753,-5.83554 h -4.8e-4 l -5.05316,-2.91745 v 5.83462 l 5.0534,2.91756 5.05339,-2.91756 v -5.83462 z m 35.3774,-2.91803 v 5.83463 l 5.05292,-2.91732 v -5.83458 z m -5.05388,-2.91784 v 5.83515 l 5.05292,2.91732 v -5.83487 l 2.4e-4,-4.3e-4 5.05316,-2.91746 -5.05292,-2.91731 z m -35.37668,2.9176 5.05292,2.91727 5.05291,-2.91727 -5.05291,-2.91731 z m 25.26892,-8.75357 -2.4e-4,3.8e-4 -5.05316,2.91746 5.05292,2.91731 5.0534,-2.9176 v -5.83515 l -5.05292,-2.91732 z m 5.05388,-2.9176 v 5.83515 l 5.0534,2.9176 5.0534,-2.9176 v -5.83515 l -5.0534,-2.91761 z m -10.10776,0 v 5.83458 l 5.05292,-2.91727 v -5.83463 z"
     fill-opacity="0"
     stroke-miterlimit="10"
     id="path14"
     style="stroke-width:0.479782;stroke:#000000" />
  <path
     fill="#000000"
     stroke="#cccccc"
     paint-order="fill stroke markers"
     d="m 636.91309,564.53904 2.4e-4,3.9e-4 v 22.87753 l -2e-4,2.4e-4 -4e-5,2e-4 -29.71877,17.1581 -3e-4,-5e-5 -1.8e-4,5e-5 -19.81252,-11.43877 -2.4e-4,-3.8e-4 v -34.31631 l 2.4e-4,-3.8e-4 19.81252,-11.43877 h 4.8e-4 z m -39.62431,34.31669 9.9053,5.71881 9.9053,-5.71881 -9.9053,-5.71885 z m 19.81204,0 9.90481,-5.71852 -9.90481,-5.71857 z m -29.71878,-5.71881 9.9053,5.71881 v -11.43761 l -9.9053,-5.71886 z m 9.90626,-5.7188 v 11.43761 l 9.9053,-5.71881 v -11.43766 z m 9.90626,5.7188 9.9053,5.71881 v -11.43761 l -9.9053,-5.71886 z m 19.81251,-11.43819 v 11.43762 l 9.9053,-5.71881 v -11.43767 z m -9.90625,5.71881 9.90529,5.71881 v -11.43762 l -9.90529,-5.71886 z m -29.71829,-5.7191 9.90529,5.71881 9.90529,-5.71881 -9.90529,-5.71881 z m 19.81251,0 9.90482,5.71857 v -11.43714 z m 9.90625,-5.72025 9.9053,5.71881 9.90529,-5.71881 -9.90529,-5.7188 z m -9.90673,5.71857 9.90481,-5.71857 -9.90481,-5.71856 z m -19.81252,0 9.90482,-5.71857 -9.90482,-5.71852 z m 9.90674,-5.71857 9.90482,5.71857 v -11.43709 z m -9.90625,-5.71938 9.90529,5.71881 9.90529,-5.71881 -9.90529,-5.71881 z m 19.81251,0 9.90482,5.71857 v -11.43709 z m 9.90578,-5.7191 v 11.43767 l 9.90529,-5.71886 v -11.43761 z m 9.90625,5.71881 9.9053,5.71886 v -11.43767 l -9.9053,-5.7188 z M 587.38204,558.82033 V 570.258 l 9.9053,-5.71886 v -11.43762 z m 19.81252,0 V 570.258 l 9.9053,-5.71886 v -11.43762 z m -9.90626,5.71881 9.9053,5.71886 v -11.43767 l -9.9053,-5.71881 z m 19.81252,0 9.90481,-5.71857 -9.90481,-5.71852 z m -19.81204,-11.43795 9.9053,5.71885 9.9053,-5.71885 -9.9053,-5.71881 z"
     fill-opacity="0"
     stroke-miterlimit="10"
     id="path15"
     style="stroke-width:0.479782;stroke:#000000" />
  <path
     fill="#000000"
     stroke="#cccccc"
     paint-order="fill stroke markers"
     d="m 701.51865,553.16672 6.5847,-3.80169 h 4.8e-4 l 6.58494,3.80184 10e-5,2.9e-4 1.4e-4,1.4e-4 v 7.60277 l 6.58423,-3.80141 3e-4,10e-5 1.8e-4,-10e-5 6.58494,3.80184 2.4e-4,4.3e-4 v 7.60335 l 6.58471,3.80169 2.4e-4,3.9e-4 v 7.60367 l -2.4e-4,3.9e-4 -6.58471,3.80169 v 7.60335 l -2.4e-4,4.3e-4 -6.58494,3.80184 h -4.8e-4 l -6.58423,-3.80141 v 7.60277 l -2e-4,2.4e-4 -4e-5,1.9e-4 -6.58494,3.80184 h -4.8e-4 l -6.5847,-3.80169 -6.58471,3.80169 h -4.8e-4 l -6.58494,-3.80184 -2.4e-4,-4.3e-4 v -7.60334 l -6.58471,-3.8017 -2.4e-4,-3.8e-4 v -7.60364 l 2e-4,-2.4e-4 4e-5,-1.9e-4 6.58422,-3.80141 -6.58422,-3.8014 -2.4e-4,-4.3e-4 v -7.60364 l 2.4e-4,-3.8e-4 6.58471,-3.8017 v -7.60334 l 2.4e-4,-4.3e-4 6.58494,-3.80184 h 4.8e-4 z m -13.16941,38.01903 v 7.6031 l 6.58446,3.80155 6.58447,-3.80155 v -7.6031 l -6.58447,-3.80156 z m 13.16989,0 v 7.6031 l 6.58446,3.80155 6.58446,-3.80155 v -7.6031 l -6.58446,-3.80156 z m 13.16988,-7.60364 v 7.60306 l 6.58447,3.80155 6.58446,-3.80155 v -7.60306 l -6.58446,-3.80155 z m -32.92472,-3.80184 v 7.60311 l 6.58447,3.80155 6.58446,-3.80155 v -7.60311 l -6.58447,-3.8015 z m 13.16989,7.60311 6.58447,3.80155 6.58398,-3.80126 -13.16845,-7.60282 z m 13.16989,0 6.58398,3.80126 v -7.60253 l -6.58398,-3.80126 z m -6.58446,-3.80155 6.5835,3.80097 v -7.60195 z m 19.75435,-11.40519 v 7.60311 l 6.58446,3.80155 6.58447,-3.80155 v -7.60311 l -6.58447,-3.80155 z m -19.75483,11.40437 6.5835,-3.80098 -6.5835,-3.80102 z m 13.16988,0 6.58399,-3.80126 v -7.60311 l -6.58399,-3.80126 z m -19.75434,-3.80098 6.5835,3.80098 v -7.602 z m 13.16988,0 6.5835,3.80098 v -7.602 z m -19.75483,-3.80184 6.58398,3.80127 6.58398,-3.80127 -6.58398,-3.80126 z m 19.75435,3.80098 6.5835,-3.80098 -6.5835,-3.80097 z m -6.58446,-3.80098 6.5835,3.80098 v -7.60195 z m -19.75532,-11.40518 v 7.60311 l 6.58446,3.8015 6.58447,-3.8015 v -7.60311 l -6.58446,-3.80155 z m 19.75484,11.40437 6.5835,-3.80102 -6.5835,-3.80098 z m 6.58542,-3.80102 6.5835,3.80102 v -7.602 z m -13.16988,0 6.5835,3.80102 v -7.602 z m 19.75434,-11.40514 v 7.60306 l 6.58447,3.80155 6.58446,-3.80155 v -7.60306 l -6.58446,-3.80155 z m -19.75483,3.80179 v 7.60253 l 13.16845,-7.60282 -6.58398,-3.80126 z m 13.16989,0 v 7.60253 l 6.58398,-3.80126 v -7.60253 z m -6.58446,3.80155 6.5835,3.80098 v -7.60195 z m -13.17037,-15.20702 v 7.6031 l 6.58446,3.80156 6.58447,-3.80156 v -7.6031 l -6.58447,-3.8015 z m 13.16989,0 v 7.6031 l 6.58446,3.80156 6.58446,-3.80156 v -7.6031 l -6.58446,-3.8015 z"
     fill-opacity="0"
     stroke-miterlimit="10"
     id="path16"
     style="stroke-width:0.479782;stroke:#000000" />
  <path
     fill="#000000"
     stroke="#cccccc"
     paint-order="fill stroke markers"
     d="m 516.19106,647.00396 2.4e-4,4.3e-4 v 7.1226 l 12.33677,7.12265 6.16839,-3.56132 h 4.8e-4 l 6.16862,3.56147 2.4e-4,4.3e-4 v 7.12289 l -2e-4,2.4e-4 -4e-5,1.9e-4 -6.1679,3.56104 6.1679,3.56104 1e-4,2.8e-4 1.4e-4,1.5e-4 v 7.12289 l -2.4e-4,4.3e-4 -6.16862,3.56147 h -4.8e-4 l -6.16839,-3.56133 -12.33677,7.12265 v 7.12261 l -2.4e-4,4.3e-4 -6.16862,3.56147 h -4.8e-4 l -6.16863,-3.56147 -1e-4,-2.9e-4 -1.4e-4,-1.4e-4 v -7.12208 l -6.1679,3.56104 -3e-4,-5e-5 -1.8e-4,5e-5 -6.16863,-3.56147 -2.4e-4,-3.8e-4 v -7.12294 l 2.1e-4,-1.9e-4 3e-5,-2e-4 6.16839,-3.56132 v -14.2453 l -6.16839,-3.56128 -2.4e-4,-4.3e-4 v -7.12294 l 2.4e-4,-3.8e-4 6.16863,-3.56147 2.9e-4,5e-5 1.9e-4,-5e-5 6.1679,3.56104 v -7.12208 l 2.4e-4,-4.3e-4 6.16863,-3.56147 h 4.8e-4 z m -12.33701,42.7382 v 7.12232 l 6.16815,3.56118 6.16814,-3.56118 v -7.12232 l -6.16814,-3.56118 z m -12.33725,-7.12293 v 7.12236 l 6.16815,3.56118 6.16814,-3.56118 v -7.12236 l -6.16814,-3.56118 z m 18.50636,3.56118 6.16766,3.56089 6.16766,-3.56089 -6.16766,-3.5609 z m -6.16911,3.5606 6.16718,-3.5606 -6.16718,-3.56061 z m 24.6745,-14.24467 v 7.12231 l 6.16815,3.56118 6.16814,-3.56118 v -7.12231 l -6.16814,-3.56119 z m -18.50587,3.56142 v 7.12183 l 6.16766,-3.56094 v -7.12179 z m 12.33725,0 v 7.12183 l 6.16766,-3.56094 v -7.12179 z m -18.5054,3.56118 6.16719,3.56065 v -7.12126 z m 12.33677,-2.9e-4 6.16767,3.56094 v -7.12183 l -6.16767,-3.5609 z m -18.50587,-3.56142 6.16766,3.56089 v -7.12178 l -6.16766,-3.56095 z m 6.16862,-3.56089 v 7.12178 l 6.16767,-3.56089 v -7.12184 z m 12.33773,-2.9e-4 6.16767,3.56089 6.16766,-3.56089 -6.16766,-3.5609 z m -6.1691,3.5606 6.16718,-3.5606 -6.16718,-3.56066 z m -12.33677,-7.12207 6.16766,3.56089 6.16766,-3.56089 -6.16766,-3.56089 z m 18.50539,3.5606 6.16719,-3.5606 -6.16719,-3.56061 z m 12.33725,0 6.16719,-3.5606 -6.16719,-3.56061 z m -18.5054,-3.5606 6.16719,3.5606 v -7.12121 z m 12.33726,0 6.16718,3.5606 v -7.12121 z m -6.16863,-3.56147 6.16767,3.56089 6.16766,-3.56089 -6.16766,-3.56089 z m 12.33677,-7.1226 v 7.12236 l 6.16815,3.56113 6.16814,-3.56113 v -7.12236 l -6.16814,-3.56118 z m -24.6745,7.12236 6.16767,3.56089 v -7.12183 l -6.16767,-3.56089 z m -6.16862,-3.56094 v 7.12183 l 6.16766,-3.56089 v -7.12183 z m 12.33725,7.12183 6.16718,-3.56065 -6.16718,-3.56061 z m 6.16862,-10.68325 v 7.12178 l 6.16767,-3.56089 v -7.12183 z m 6.16863,3.56089 6.16766,3.56089 v -7.12178 l -6.16766,-3.56094 z m -12.33725,0 6.16766,3.56089 v -7.12178 l -6.16766,-3.56094 z M 491.5168,654.12757 v 7.12236 l 6.16815,3.56118 6.16814,-3.56118 v -7.12236 l -6.16814,-3.56118 z m 12.33773,7.12265 6.16719,3.5606 v -7.12125 z m 6.16863,-3.56147 6.16766,3.56089 6.16766,-3.56089 -6.16766,-3.56089 z m -6.16911,3.56061 6.16718,-3.56061 -6.16718,-3.56061 z m 0,-14.24468 v 7.12231 l 6.16815,3.56118 6.16814,-3.56118 v -7.12231 l -6.16814,-3.56118 z"
     fill-opacity="0"
     stroke-miterlimit="10"
     id="path17"
     style="stroke-width:0.479782;stroke:#000000" />
  <path
     fill="#000000"
     stroke="#cccccc"
     paint-order="fill stroke markers"
     d="m 616.02492,649.54604 7.75518,-4.47747 h 4.8e-4 l 7.75542,4.47761 1e-4,2.9e-4 1.4e-4,1.4e-4 v 8.95489 l 7.75519,4.47747 2.4e-4,4.3e-4 v 17.91036 l -2e-4,2.4e-4 -4e-5,1.9e-4 -7.75519,4.47747 v 8.95489 l -2e-4,2.4e-4 -4e-5,1.9e-4 -7.75542,4.47761 h -4.8e-4 l -7.75518,-4.47747 -7.75519,4.47747 h -4.8e-4 l -15.51084,-8.95522 -2.4e-4,-3.9e-4 v -8.95494 l -7.75519,-4.47746 -2.4e-4,-3.9e-4 v -8.95522 l 2.4e-4,-3.9e-4 7.75519,-4.47747 v -8.95493 l 2.4e-4,-3.9e-4 15.51084,-8.95522 h 4.8e-4 z m -15.50989,44.77651 7.75446,4.47703 7.75446,-4.47703 -7.75446,-4.47704 z m 15.51085,0 7.75446,4.47703 7.75494,-4.47727 v -8.95413 z m -15.51133,0 7.75398,-4.47675 -7.75398,-4.4768 z m 15.51085,0 7.75398,-4.47675 -7.75398,-4.4768 z m -23.26627,-4.47704 7.75446,4.47704 v -8.95408 l -7.75446,-4.47703 z m 15.51133,2.9e-4 7.75398,4.47675 V 685.369 Z m -4.8e-4,-8.95494 v 8.95407 l 7.75446,-4.47703 v -8.95408 z m 15.51085,8.95407 7.75397,-4.47675 -7.75397,-4.47674 z m -23.26579,-4.47675 7.75398,4.47675 v -8.95349 z m 15.51084,0 7.75399,4.47675 v -8.95349 z m -15.51133,-8.95488 v 8.95407 l 7.75447,-4.47704 v -8.95412 z m 15.51085,8.95407 7.75398,-4.4768 -7.75398,-4.47675 z m 15.51085,-8.95407 v 8.95407 l 7.75446,-4.47704 v -8.95412 z m -38.77664,4.47727 7.75398,4.4768 v -8.95355 z m 31.0217,0 7.75398,4.4768 v -8.95355 z m -7.75543,-4.47756 7.75446,4.47703 7.75446,-4.47703 -7.75446,-4.47704 z m -7.7559,4.47675 15.50939,-8.95518 -15.5094,-8.95436 z m -23.26627,-13.43169 v 8.95465 l 7.75446,4.47704 v -17.90873 z m 7.75542,13.43169 7.75398,-4.47675 -7.75398,-4.4768 z m 7.75542,-4.47762 7.75398,-4.47675 -7.75398,-4.47674 z m 31.0217,0 7.75398,-4.47675 -7.75398,-4.47674 z m -38.77664,-4.47756 7.75398,4.47675 v -8.9535 z m 31.02169,0 7.75398,4.47675 v -8.9535 z m -7.75542,-4.47761 7.75446,4.47703 7.75446,-4.47703 -7.75446,-4.47704 z m -23.26675,4.47679 7.75397,-4.47679 -7.75397,-4.47675 z m 7.75542,-4.47703 7.75446,4.47703 v -8.95407 l -7.75446,-4.47709 z m 31.02169,0 7.75447,4.47703 v -8.95407 l -7.75447,-4.47709 z m -38.77663,-4.47733 7.75398,4.47675 v -8.95355 z m 31.02169,0 7.75398,4.47675 v -8.95355 z m -15.51133,-2.9e-4 7.75447,4.47704 v -8.95407 l -7.75447,-4.47704 z m 7.75543,4.47704 7.75398,-4.47675 -7.75398,-4.4768 z m 4.8e-4,-8.95436 7.75398,4.47675 v -8.9535 z m -23.26675,-4.47733 v 8.95408 l 7.75446,-4.47704 v -8.95407 z m 7.7559,4.47733 7.75398,4.47675 v -8.9535 z m 23.26579,4.47675 7.75398,-4.47675 -7.75398,-4.47675 z m -23.26627,-4.47757 7.75398,-4.47679 -7.75398,-4.47675 z m 15.51133,-8.95436 15.5094,8.95436 v -8.95407 l -7.75494,-4.47733 z m -7.75542,4.47757 7.75398,4.47679 v -8.95354 z m 7.75494,4.47679 7.75398,-4.47679 -7.75398,-4.47675 z m -15.51037,-8.95436 7.75446,4.47704 7.75446,-4.47704 -7.75446,-4.47704 z"
     fill-opacity="0"
     stroke-miterlimit="10"
     id="path18"
     style="stroke-width:0.479782;stroke:#000000" />
  <path
     fill="#000000"
     stroke="#cccccc"
     paint-order="fill stroke markers"
     d="m 704.22588,649.54604 7.75518,-4.47747 h 4.8e-4 l 15.51085,8.95522 2.4e-4,3.9e-4 v 8.95493 l 7.75518,4.47747 2.4e-4,3.9e-4 v 8.95522 l -2e-4,2.4e-4 -4e-5,1.5e-4 -7.75518,4.47746 v 8.95494 l -2.4e-4,3.9e-4 -15.51085,8.95522 -2.9e-4,-9e-5 -1.9e-4,9e-5 -7.75518,-4.47747 -7.75519,4.47747 h -4.8e-4 l -7.75542,-4.47761 -2.4e-4,-4.3e-4 v -8.95489 l -7.75518,-4.47747 -2.4e-4,-4.3e-4 V 662.9794 l 2.4e-4,-4.3e-4 7.75518,-4.47747 v -8.95489 l 2.4e-4,-4.3e-4 7.75542,-4.47761 h 4.8e-4 z m -15.51037,44.77627 7.75494,4.47727 7.75446,-4.47703 -15.5094,-8.95437 z m 15.51133,2.4e-4 7.75446,4.47703 7.75446,-4.47703 -7.75446,-4.47704 z m -4.8e-4,0 7.75398,-4.47675 -7.75398,-4.4768 z m 15.51085,-8.95408 v 8.95408 l 7.75446,-4.47704 v -8.95407 z m -23.26579,4.47733 7.75398,4.47675 V 685.369 Z m 15.51085,0 7.75398,4.47675 V 685.369 Z m -7.75542,-4.47762 7.75446,4.47704 7.75494,-4.47732 v -8.95408 z m -7.75591,4.47675 7.75398,-4.47675 -7.75398,-4.47674 z m -7.75494,-4.47675 7.75398,4.47675 v -8.95349 z m 7.75494,-4.47785 7.75494,4.47728 7.75446,-4.47704 -15.5094,-8.95436 z m -7.75542,4.47704 7.75397,-4.4768 -7.75397,-4.47675 z m 31.02169,0 7.75398,-4.4768 -7.75398,-4.47675 z m -38.77712,-4.47704 7.75447,4.47704 v -8.95407 l -7.75447,-4.47709 z m 46.53254,0 7.75447,-4.47703 v -8.95465 l -7.75447,-4.47704 z m -38.77711,-13.43168 v 8.95465 l 7.75446,4.47703 v -17.90872 z m 23.26627,13.43168 7.75446,-4.47703 v -8.95465 l -7.75446,-4.47704 z m -7.75494,-4.47675 7.75398,4.47675 v -8.95354 z m 15.51084,0 7.75398,4.47675 v -8.95354 z m -38.77712,-4.479 7.75398,4.47675 v -8.9535 z m 23.26579,4.47675 7.75398,-4.47675 -7.75398,-4.47675 z m -7.75494,-4.47675 7.75398,4.47675 v -8.9535 z m 23.26579,4.47675 7.75397,-4.47675 -7.75397,-4.47675 z m -38.77712,-13.43164 v 8.95407 l 7.75446,-4.47703 v -8.95413 z m 15.51084,0 v 8.95407 l 15.50941,-8.95436 -7.75446,-4.47704 z m 7.75591,4.47728 7.75398,4.47679 v -8.95354 z m 15.51085,0 7.75398,4.47679 v -8.95354 z m -31.02218,0 7.75398,-4.47675 -7.75398,-4.4768 z m 15.51133,-8.95437 15.50941,8.95437 v -8.95408 l -7.75495,-4.47732 z m 15.51037,8.95437 7.75398,-4.47675 -7.75398,-4.4768 z m -23.26628,-4.47762 7.75398,-4.47675 -7.75398,-4.47674 z m 23.26628,-4.47703 7.75446,4.47703 v -8.95407 l -7.75446,-4.47704 z m -31.02121,2.8e-4 7.75397,4.47675 v -8.95349 z m -4.8e-4,-8.95489 v 8.95408 l 15.5094,-8.95436 -7.75446,-4.47704 z m 15.51084,8.95408 7.75398,-4.4768 -7.75398,-4.47675 z m 7.75591,-4.4768 7.75398,4.4768 v -8.95355 z m -15.51085,0 7.75398,4.4768 v -8.95355 z m 7.75543,-4.47756 7.75446,4.47703 7.75446,-4.47703 -7.75446,-4.47704 z"
     fill-opacity="0"
     stroke-miterlimit="10"
     id="path19"
     style="stroke-width:0.479782;stroke:#000000" />
  <path
     fill="#000000"
     stroke="#cccccc"
     paint-order="fill stroke markers"
     d="m 539.45733,745.50256 1e-4,2.9e-4 1.4e-4,1.5e-4 v 17.91035 l -7e-5,10e-5 3e-5,9e-5 -1.6e-4,5e-5 -4e-5,1.9e-4 -7.7547,4.47718 7.7547,4.47718 7e-5,10e-5 8e-5,5e-5 -2e-5,9e-5 1.1e-4,2e-4 v 17.91035 l -2.4e-4,4.3e-4 -7.75542,4.47762 h -4.8e-4 l -15.51085,-8.95523 v -1.9e-4 l -2.4e-4,-1.9e-4 V 776.847 l -7.7547,4.47719 -3.6e-4,-1e-4 -1.2e-4,1e-4 -15.51085,-8.95523 -2.4e-4,-3.8e-4 v -8.95523 l 2e-4,-1.9e-4 4e-5,-1.9e-4 15.51085,-8.95523 1.1e-4,5e-5 7e-5,-1e-4 1.3e-4,1.5e-4 1.7e-4,-1e-4 7.7547,4.47718 v -8.95436 l 1.8e-4,-10e-5 6e-5,-2.8e-4 15.51085,-8.95523 3e-4,10e-5 1.8e-4,-10e-5 z m -15.51012,44.77637 7.75446,4.47704 7.75494,-4.47728 v -8.95412 z m -4.8e-4,0 7.75398,-4.47675 -7.75398,-4.4768 z m -7.75494,-4.47675 7.75398,4.47675 v -8.95355 z m 15.51036,0 7.75398,-4.47675 -7.75398,-4.47675 z m -15.51084,0 7.75398,-4.47675 -7.75398,-4.47675 z m 7.7559,-4.47675 7.75398,4.47675 v -8.9535 z m -15.51133,0 7.75398,-4.47679 -7.75398,-4.47675 z m 15.51085,0 7.75398,-4.47679 -7.75398,-4.47675 z m 7.75591,-4.47679 7.75398,4.47679 v -8.95354 z m -31.0217,0 7.75398,4.47679 v -8.95354 z m 15.51085,0 7.75398,4.47679 v -8.95354 z m -4.8e-4,0 7.75398,-4.47675 -7.75398,-4.4768 z m 15.51085,0 7.75398,-4.47675 -7.75398,-4.4768 z m -38.77712,-13.43169 v 8.95465 l 7.75447,4.47704 v -17.90873 z m 31.02218,8.95494 7.75398,4.47675 v -8.95355 z m -23.26675,4.47675 7.75398,-4.47675 -7.75398,-4.4768 z m 7.7559,-4.47675 7.75398,4.47675 v -8.95355 z m -4.8e-4,0 7.75398,-4.47675 -7.75398,-4.47675 z m 15.51085,0 7.75398,-4.47675 -7.75398,-4.47675 z m -23.2658,-4.48093 7.75398,4.47675 v -8.9535 z m 15.51085,0 7.75398,4.47675 v -8.9535 z m 7.75542,-4.47761 7.75398,4.4768 v -8.95355 z m -23.26675,4.4768 7.75398,-4.4768 -7.75398,-4.47675 z m 15.51084,0 7.75398,-4.4768 -7.75398,-4.47675 z m 15.51085,0 7.75398,-4.4768 -7.75398,-4.47675 z m -23.26579,-4.4768 7.75398,4.4768 v -8.95355 z m -4.8e-4,0 7.75398,-4.47675 -7.75398,-4.4768 z m -7.75494,-4.47675 7.75398,4.47675 v -8.95355 z m 15.51085,0 7.75398,4.47675 v -8.95355 z m 7.75494,4.47675 7.75398,-4.47675 -7.75398,-4.4768 z m 7.75591,-4.47675 7.75398,4.47675 v -8.95355 z m -15.51133,0 7.75398,-4.47675 -7.75398,-4.47675 z m 15.51084,0 7.75398,-4.47675 -7.75398,-4.47675 z m -7.75494,-4.47675 7.75398,4.47675 v -8.9535 z m -4.8e-4,0 7.75398,-4.4768 -7.75398,-4.47674 z m -7.75494,-4.4768 7.75398,4.4768 v -8.95354 z m 7.75543,-4.47756 15.5094,8.95436 v -8.95407 l -7.75495,-4.47733 z"
     fill-opacity="0"
     stroke-miterlimit="10"
     id="path20"
     style="stroke-width:0.479782;stroke:#000000" />
  <path
     fill="#000000"
     stroke="#cccccc"
     paint-order="fill stroke markers"
     d="m 614.91179,742.35467 2.4e-4,4.3e-4 v 6.38398 l -2.4e-4,3.8e-4 -5.52844,3.19185 v 6.38345 l 11.05688,6.38369 5.5282,-3.19175 v -6.38369 l 2e-4,-2e-4 4e-5,-1.9e-4 5.52868,-3.19199 h 4.8e-4 l 5.52868,3.19199 2.4e-4,3.9e-4 v 6.38397 l -2.4e-4,4.4e-4 -5.52844,3.19184 v 6.3834 l 5.52844,3.19185 2.4e-4,4.3e-4 v 6.38398 l -2.4e-4,3.8e-4 -5.52868,3.19199 h -4.8e-4 l -5.52868,-3.19199 -2.4e-4,-3.8e-4 v -6.38369 l -5.5282,-3.1917 -11.05688,6.38369 v 6.3834 l 5.52844,3.19185 2.4e-4,4.3e-4 v 6.38393 l -2.4e-4,4.3e-4 -5.52868,3.19199 h -4.8e-4 l -5.52868,-3.19199 -2.4e-4,-4.3e-4 v -6.38369 l -5.52821,-3.1917 -5.52844,3.19184 h -4.8e-4 l -5.52868,-3.19199 -2.4e-4,-3.8e-4 v -6.38398 l 2.4e-4,-4.3e-4 5.52868,-3.19199 h 4.8e-4 l 5.52844,3.19184 5.52821,-3.1917 v -12.76738 l -5.52821,-3.1917 -5.52844,3.19185 h -4.8e-4 l -5.52868,-3.19199 -2.4e-4,-4.3e-4 v -6.38398 l 2.4e-4,-3.9e-4 5.52868,-3.19199 h 4.8e-4 l 5.52844,3.19185 5.52821,-3.1917 v -6.38369 l 2.4e-4,-4.3e-4 5.52868,-3.19199 h 4.8e-4 z m -11.05713,44.68847 v 6.38345 l 5.52821,3.1917 5.5282,-3.1917 v -6.38345 l -5.5282,-3.1917 z m -16.58604,-9.57592 v 6.3834 l 5.5282,3.1917 5.5282,-3.1917 v -6.3834 l -5.5282,-3.19175 z m 11.05736,0 v 6.3834 l 5.52821,3.1917 5.5282,-3.1917 v -6.3834 l -5.5282,-3.19175 z m 27.64341,-3.19199 v 6.3834 l 5.5282,3.1917 5.5282,-3.1917 v -6.3834 l -5.5282,-3.1917 z m -16.58604,3.19084 5.52723,-3.19113 -5.52723,-3.19117 z m -5.5282,-3.19113 5.52724,3.19113 v -6.3823 z m 16.58556,-9.57568 v 6.3834 l 5.5282,3.19171 5.5282,-3.19171 v -6.3834 l -5.5282,-3.1917 z m -16.58605,9.57482 5.52724,-3.19113 -5.52724,-3.19117 z m 11.05737,0 5.52723,-3.19113 -5.52723,-3.19117 z m -11.05688,-6.38312 11.05592,6.38312 v -12.76623 z m 11.05736,0 5.52724,3.19113 v -6.38225 z m -11.05785,0 5.52724,-3.19117 -5.52724,-3.19113 z m 11.05737,0 5.52723,-3.19117 -5.52723,-3.19113 z m 11.05736,-12.76685 v 6.3834 l 5.5282,3.19175 5.5282,-3.19175 v -6.3834 l -5.5282,-3.1917 z m -16.58604,9.57486 5.52723,-3.19117 -5.52723,-3.19113 z m -5.5282,-3.19117 5.52724,3.19117 v -6.3823 z m -16.58653,-9.57568 v 6.38345 l 5.5282,3.1917 5.5282,-3.1917 v -6.38345 l -5.5282,-3.1917 z m 11.05736,0 v 6.38345 l 5.52821,3.1917 5.5282,-3.1917 v -6.38345 l -5.5282,-3.1917 z m 5.52868,-9.57592 v 6.3834 l 5.52821,3.19171 5.5282,-3.19171 v -6.3834 l -5.5282,-3.19175 z"
     fill-opacity="0"
     stroke-miterlimit="10"
     id="path21"
     style="stroke-width:0.479782;stroke:#000000" />
  <path
     fill="#000000"
     stroke="#cccccc"
     paint-order="fill stroke markers"
     d="m 710.86817,742.35467 2.4e-4,4.3e-4 v 6.38369 l 11.05688,6.38369 5.52844,-3.19185 h 4.8e-4 l 5.52868,3.19199 2.4e-4,3.9e-4 v 6.38397 l -2.4e-4,4.4e-4 -5.52844,3.19184 v 6.3834 l 5.52844,3.19185 2.4e-4,4.3e-4 v 6.38398 l -2.4e-4,3.8e-4 -5.52868,3.19199 h -4.8e-4 l -5.52844,-3.19184 -11.05688,6.38369 v 6.38369 l -2.4e-4,4.3e-4 -5.52868,3.19199 h -4.8e-4 l -5.52868,-3.19199 -2.4e-4,-4.3e-4 v -6.38369 l -5.5282,-3.1917 -5.52844,3.19184 h -4.8e-4 l -5.52868,-3.19199 -2.4e-4,-3.8e-4 v -6.38398 l 2.4e-4,-4.3e-4 5.52844,-3.19185 v -12.76738 l -5.52844,-3.19184 -2.4e-4,-4.3e-4 v -6.38398 l 2.4e-4,-3.9e-4 5.52868,-3.19199 h 4.8e-4 l 5.52844,3.19185 5.5282,-3.1917 v -6.38369 l 2.4e-4,-4.3e-4 5.52868,-3.19199 h 4.8e-4 z m -16.58604,35.11264 -1.8e-4,-9e-5 -3e-4,9e-5 -5.52844,-3.19184 -5.5282,3.19175 v 6.3834 l 5.5282,3.1917 5.52844,-3.19184 h 4.8e-4 l 5.52868,3.19199 2.4e-4,4.3e-4 v 6.38369 l 5.5282,3.1917 5.5282,-3.1917 v -6.38345 l -5.52844,-3.19185 -1.2e-4,-3.3e-4 -1.2e-4,-5e-5 v -6.38369 l -5.5282,-3.19175 z m 11.05808,6.3836 5.52772,3.19141 5.52772,-3.19141 -5.52772,-3.19146 z m 16.58556,-28.72762 v 6.38369 l -2.4e-4,2.9e-4 v 1.5e-4 l -5.52844,3.19184 v 6.3834 l 5.52844,3.19185 7e-5,1.4e-4 h 8e-5 l -2e-5,1e-4 1.1e-4,1.9e-4 v 6.38369 l 5.5282,3.1917 5.5282,-3.1917 v -6.3834 l -5.52844,-3.19185 -2.4e-4,-4.3e-4 v -6.38398 l 2.4e-4,-4.3e-4 5.52844,-3.19184 v -6.38341 l -5.5282,-3.1917 z m -16.58604,22.34393 v 6.38282 l 5.52772,-3.19141 v -6.38287 z m 11.05736,0 v 6.38282 l 5.52772,-3.19141 v -6.38287 z m -5.52868,3.19141 5.52772,3.19141 v -6.38282 l -5.52772,-3.19146 z m -11.05736,-6.38398 5.5282,3.1917 5.52772,-3.19141 -11.05592,-6.38316 z m 11.05784,2.9e-4 5.52772,3.19141 5.52772,-3.19141 -5.52772,-3.19141 z m -16.58652,-3.1917 v 6.38283 l 5.52772,-3.19142 v -6.38287 z m -5.52868,3.19141 5.52772,3.19142 v -6.38283 l -5.52772,-3.19146 z m 22.11472,0 5.52772,-3.19141 v -6.3834 l -5.52772,-3.19142 z m -5.5282,-3.19112 5.52724,3.19112 v -6.3823 z m -16.58604,-3.19199 5.52772,3.19141 5.52771,-3.19141 -5.52771,-3.19141 z m 16.58556,3.19112 5.52724,-3.19112 -5.52724,-3.19113 z m -5.5282,-3.1917 5.52724,3.19113 v -6.38225 z m -11.05784,-6.38369 v 6.38288 l 5.52772,-3.19146 v -6.38283 z m 11.05736,0 v 6.38288 l 11.05592,-6.38317 -5.52772,-3.19141 z m 5.52916,3.1917 5.52724,3.19118 v -6.3823 z m -11.05784,-2.8e-4 5.52772,3.19146 v -6.38288 l -5.52772,-3.19141 z m 16.58652,-3.19171 5.52772,3.19147 5.52772,-3.19147 -5.52772,-3.19141 z m -11.05784,-19.15159 v 6.38369 l -2.4e-4,3.8e-4 -5.52868,3.19199 h -4.8e-4 l -5.52844,-3.19185 -5.5282,3.19171 v 6.38345 l 5.5282,3.1917 5.52844,-3.19185 3.5e-4,5e-5 1.3e-4,-5e-5 5.52844,3.19185 5.5282,-3.1917 v -6.38374 l 1.8e-4,-10e-5 6e-5,-2.9e-4 5.52844,-3.19184 v -6.3834 l -5.5282,-3.19175 z m 11.05736,12.7679 v 6.38288 l 5.52772,-3.19141 v -6.38288 z m 5.52868,3.19147 5.52772,3.19141 v -6.38288 l -5.52772,-3.19141 z m -11.05736,0 5.52772,3.19141 v -6.38288 l -5.52772,-3.19141 z m 4.8e-4,-6.38374 5.52772,3.19146 5.52771,-3.19146 -5.52771,-3.19142 z"
     fill-opacity="0"
     stroke-miterlimit="10"
     id="path22"
     style="stroke-width:0.479782;stroke:#000000" />
  <path
     fill="#000000"
     stroke="#cccccc"
     paint-order="fill stroke markers"
     d="m 540.67203,845.00147 2.4e-4,4.3e-4 v 9.42272 l -2.4e-4,4.3e-4 -8.16008,4.71122 v 9.42215 l 8.16008,4.71122 1e-4,3.4e-4 1.4e-4,9e-5 v 9.42273 l -2.4e-4,4.3e-4 -16.32065,9.42272 -2.9e-4,-4e-5 -1.9e-4,4e-5 -8.16032,-4.71136 -9e-5,-2.9e-4 -1.5e-4,-1.4e-4 v -9.42244 l -8.15984,-4.71107 -8.16008,4.71122 -3e-4,-5e-5 -1.8e-4,5e-5 -8.16033,-4.71137 -2.4e-4,-4.3e-4 v -18.84545 l 2.4e-4,-4.3e-4 8.16033,-4.71136 h 4.8e-4 l 8.16008,4.71122 8.15984,-4.71108 v -9.42244 l 2.4e-4,-4.3e-4 8.16032,-4.71136 h 4.8e-4 z m -24.48073,42.40245 8.15984,4.71107 8.15936,-4.71083 -16.3192,-9.42186 z m 16.32065,0 8.15936,-4.71084 v -9.42214 l -8.15936,-4.71084 z m -8.15985,-4.71055 8.15889,4.71055 v -9.42105 z m -8.16031,-4.71136 8.15888,4.71055 v -9.42105 z m 8.15983,4.71055 8.15888,-4.71055 -8.15888,-4.7105 z m -32.64129,-9.4222 8.15985,4.71112 8.15936,-4.71083 -16.31921,-9.42191 z m 24.48097,4.71083 8.15889,-4.71054 -8.15889,-4.71055 z m 8.16081,-4.71054 8.15888,4.71054 v -9.42109 z m -16.32065,0 8.15888,4.71054 v -9.42109 z m -4.8e-4,0 8.15889,-4.71055 -8.15889,-4.71055 z m 16.32065,0 8.15888,-4.71055 -8.15888,-4.71055 z m -24.48048,-4.71055 8.15887,4.71055 v -9.4211 z m 8.16032,-4.71136 16.3192,9.42191 v -18.84382 z m -8.16081,4.71055 8.15888,-4.71055 -8.15888,-4.71055 z m 24.48145,-4.71055 8.15888,4.71055 v -9.4211 z m -32.64129,0 8.15888,4.71055 v -9.4211 z m 16.32016,0 8.15889,-4.71055 -8.15889,-4.71055 z m -16.32064,-9.42162 v 9.42162 l 16.3192,-9.42191 -8.15936,-4.71084 z m 32.64129,9.42162 8.15888,-4.71055 -8.15888,-4.71055 z m -24.48048,-4.71055 8.15887,4.71055 v -9.4211 z m 16.32016,0 8.15888,-4.71055 -8.15888,-4.71054 z m 16.32064,0 8.15937,-4.71083 v -9.42215 l -8.15937,-4.71084 z m -24.48048,-4.71055 8.15888,4.71055 v -9.42109 z m 16.32064,0 8.15888,4.71055 v -9.42109 z m -4.8e-4,0 8.15888,-4.71049 -8.15888,-4.71055 z m -8.15983,-4.71049 8.15887,4.71049 v -9.42104 z m -4.8e-4,-9.42244 v 9.42162 l 16.3192,-9.42191 -8.15936,-4.71083 z m 8.1608,4.71107 8.15888,4.7105 v -9.42104 z"
     fill-opacity="0"
     stroke-miterlimit="10"
     id="path23"
     style="stroke-width:0.479782;stroke:#000000" />
  <path
     fill="#000000"
     stroke="#cccccc"
     paint-order="fill stroke markers"
     d="m 608.85497,844.83781 10e-5,3.4e-4 1.4e-4,9e-5 v 15.20645 l 13.16918,-7.6032 h 4.8e-4 l 13.16988,7.60363 2.4e-4,3.9e-4 v 7.60368 l -2.4e-4,3.8e-4 -13.16988,7.60363 h -4.8e-4 L 608.85521,867.65 v 15.20645 l -2e-4,2.4e-4 -4e-5,1.9e-4 -13.16989,7.60363 h -4.8e-4 l -6.58494,-3.80184 -2.4e-4,-4.3e-4 v -15.20726 l 2.4e-4,-3.9e-4 13.16917,-7.60324 -13.16917,-7.6032 -2.4e-4,-4.3e-4 v -15.20727 l 2.4e-4,-4.3e-4 6.58494,-3.80184 h 4.8e-4 z m -19.75459,41.82019 6.58446,3.80155 6.58398,-3.80131 -13.16844,-7.60277 z m 13.16989,-7.6031 v 7.60253 l 6.58398,-3.80127 v -7.60253 z m -6.58446,3.80155 6.5835,3.80098 v -7.60196 z m -4.8e-4,0 6.5835,-3.80102 -6.5835,-3.80098 z m -6.58446,-3.80102 6.5835,3.80102 v -7.602 z m 6.58446,-3.80208 6.58446,3.80155 6.58398,-3.80127 -13.16844,-7.60281 z m -6.58495,-3.80127 v 7.60253 l 6.58399,-3.80126 v -7.60253 z m 26.34027,-2.9e-4 6.58398,3.80127 6.58398,-3.80127 -6.58398,-3.80126 z m -13.16989,0 6.5835,3.80098 v -7.60195 z m -4.8e-4,0 6.5835,-3.80097 -6.5835,-3.80103 z m 13.16989,0 6.58398,-3.80126 v -7.6031 l -6.58398,-3.80127 z m 13.16989,0 6.58398,-3.80126 v -7.6031 l -6.58398,-3.80127 z m -32.92424,-3.80097 6.5835,3.80097 v -7.602 z m 13.16989,0 6.5835,3.80097 v -7.602 z m 13.16989,0 6.5835,3.80097 v -7.602 z m -13.17038,0 6.58351,-3.80098 -6.58351,-3.80097 z m 13.16989,0 6.5835,-3.80098 -6.5835,-3.80097 z m -19.75434,-3.80098 6.58349,3.80098 v -7.60195 z m -4.8e-4,0 6.5835,-3.80102 -6.5835,-3.80098 z m 6.58543,-3.80102 6.5835,3.80102 v -7.602 z m 13.16989,0 6.5835,3.80102 v -7.602 z m -26.33978,0 6.5835,3.80102 v -7.602 z m 19.75483,-3.80179 6.58398,3.80126 6.58398,-3.80126 -6.58398,-3.80127 z m -19.75532,-3.80156 v 7.60253 l 13.16845,-7.60281 -6.58398,-3.80127 z m -6.58494,3.80127 6.58398,3.80126 v -7.60253 l -6.58398,-3.80126 z m 13.17037,2.9e-4 6.5835,3.80097 v -7.60195 z m -6.58543,-3.80266 6.5835,-3.80098 -6.5835,-3.80097 z m 6.58495,-3.80126 6.58398,3.80126 v -7.60253 l -6.58398,-3.80126 z m -13.16941,2.8e-4 6.5835,3.80098 v -7.60195 z M 589.1004,841.04 v 7.60253 l 13.16845,-7.60277 -6.58398,-3.80126 z m 6.58543,3.80155 6.5835,3.80098 v -7.60195 z"
     fill-opacity="0"
     stroke-miterlimit="10"
     id="path24"
     style="stroke-width:0.479782;stroke:#000000" />
  <path
     fill="#000000"
     stroke="#cccccc"
     paint-order="fill stroke markers"
     d="m 732.94966,851.55145 2.4e-4,3.8e-4 v 24.59103 l -2.4e-4,3.9e-4 -28.39523,16.394 h -4.8e-4 l -21.29643,-12.29547 -2.4e-4,-4.3e-4 v -32.78801 l 2.4e-4,-4.3e-4 21.29643,-12.29547 2.9e-4,5e-5 1.9e-4,-5e-5 z m -35.49332,36.88688 7.09785,4.09796 7.09784,-4.09796 -7.09784,-4.09791 z m -7.09929,-12.29518 v 8.1964 l 7.09833,4.09825 7.09833,-4.09825 v -8.1964 l -7.09833,-4.09825 z m 21.29642,12.29436 7.09737,-4.09767 -7.09737,-4.09767 z m -7.0988,-12.29436 v 8.1964 l 7.09784,4.09796 v -16.39232 z m 14.19761,8.19587 7.09737,-4.09767 -7.09737,-4.09767 z m -35.49404,-4.09796 7.09785,4.09796 v -8.19587 l -7.09785,-4.09796 z m 28.39572,2.9e-4 7.09736,4.09767 v -8.19534 z m 14.19713,-8.19674 v 8.19593 l 7.09785,-4.09797 v -8.19587 z m -14.19762,8.19593 7.09737,-4.09768 -7.09737,-4.09767 z m 4.8e-4,-8.19617 14.19618,8.19617 v -8.19593 l -7.09833,-4.0982 z m -28.39523,-4e-5 7.09784,4.09796 7.09833,-4.0982 v -8.19593 z m 14.19713,-2.4e-4 7.09833,4.0982 7.09785,-4.09792 -14.19618,-8.19621 z m 21.29643,-12.29494 v 8.1964 l 7.09833,4.09825 7.09833,-4.09825 v -8.1964 l -7.09833,-4.09825 z m -7.09881,12.29436 7.09785,-4.09796 v -8.1964 l -7.09785,-4.09797 z m -7.09833,-4.09767 7.09737,4.09767 v -8.19535 z m -21.29691,4.09767 7.09737,-4.09767 -7.09737,-4.09768 z m 14.19811,-8.19616 7.09737,4.09767 v -8.19535 z m -7.09929,4.09767 7.09736,-4.09767 -7.09736,-4.09768 z m 14.19762,0 7.09736,-4.09767 -7.09736,-4.09768 z m -21.29595,-4.09767 7.09737,4.09767 v -8.19535 z m 0,-8.19698 14.19618,8.19616 v -8.19592 l -7.09833,-4.0982 z m -4.8e-4,8.19616 7.09737,-4.09767 -7.09737,-4.09768 z m 14.19762,-8.19592 v 8.19592 l 14.19618,-8.19616 -7.09785,-4.09796 z m 7.09929,4.09825 7.09737,4.09767 v -8.19535 z m 7.09881,-4.09849 7.09785,4.09791 7.09833,-4.0982 v -8.19587 z m 14.19714,-2.9e-4 7.09785,4.09791 v -8.19587 l -7.09785,-4.09796 z m -35.49405,-12.29494 v 8.19645 l 7.09833,4.0982 7.09833,-4.0982 v -8.19645 l -7.09833,-4.09825 z m -7.09881,4.09849 v 8.19588 l 7.09785,-4.09792 v -8.19592 z m 28.39524,8.19588 7.09737,-4.09768 -7.09737,-4.09762 z m -7.09881,-12.29437 v 8.19645 l 7.09785,4.09792 v -16.39233 z m 14.19762,8.19588 7.09736,-4.09768 -7.09736,-4.09767 z m -7.09833,-4.09768 7.09737,4.09768 v -8.19535 z m -4.8e-4,0 7.09737,-4.09767 -7.09737,-4.09767 z m -14.19713,-8.19616 7.09785,4.09791 7.09784,-4.09791 -7.09784,-4.09796 z"
     fill-opacity="0"
     stroke-miterlimit="10"
     id="path25"
     style="stroke-width:0.479782;stroke:#000000" />
  <plotdata
     application="axidraw"
     model="1"
     plob_version="n/a"
     layer="-2"
     pause_dist="-25400"
     pause_ref="-25400"
     last_x="4.904979200581749e-13"
     last_y="2.8809923197092856e-13"
     rand_seed="1"
     row="0" />
</svg>
