<svg version="1.1" xmlns="http://www.w3.org/2000/svg" xmlns:xlink="http://www.w3.org/1999/xlink" width="900" height="900"><defs/><g><path fill="#222222" stroke="#cccccc" paint-order="fill stroke markers" d=" M 277.72436 210.24948 L 280.3581 210.98962 L 282.8136 212.1958 L 285.0092 213.82789 L 286.87185 215.83162 L 288.33959 218.14032 L 289.36361 220.6772 L 289.90984 223.35787 L 290 225 L 290 260 L 310 260 L 310 225 L 310.24948 222.27564 L 310.98962 219.6419 L 312.1958 217.1864 L 313.82789 214.9908 L 315.83162 213.12815 L 318.14032 211.66041 L 320.6772 210.63639 L 323.35787 210.09016 L 326.09317 210.03989 L 328.7921 210.48725 L 331.36489 211.41736 L 333.72597 212.79928 L 335.79678 214.58705 L 337.50845 216.72119 L 338.80404 219.13072 L 339.64045 221.73548 L 340 225 L 340 310 L 360 310 L 360 225 L 360.24948 222.27564 L 360.98962 219.6419 L 362.1958 217.1864 L 363.82789 214.9908 L 365.83162 213.12815 L 368.14032 211.66041 L 370.6772 210.63639 L 373.35787 210.09016 L 375 210 L 425 210 L 427.72436 210.24948 L 430.3581 210.98962 L 432.8136 212.1958 L 435.0092 213.82789 L 436.87185 215.83162 L 438.33959 218.14032 L 439.36361 220.6772 L 439.90984 223.35787 L 439.96011 226.09317 L 439.51275 228.7921 L 438.58264 231.36489 L 437.20072 233.72597 L 435.41295 235.79678 L 433.27881 237.50845 L 430.86928 238.80404 L 428.26452 239.64045 L 425 240 L 390 240 L 390 260 L 460 260 L 460 225 L 460.24948 222.27564 L 460.98962 219.6419 L 462.1958 217.1864 L 463.82789 214.9908 L 465.83162 213.12815 L 468.14032 211.66041 L 470.6772 210.63639 L 473.35787 210.09016 L 475 210 L 525 210 L 527.72436 210.24948 L 530.3581 210.98962 L 532.8136 212.1958 L 535.0092 213.82789 L 536.87185 215.83162 L 538.33959 218.14032 L 539.36361 220.6772 L 539.90984 223.35787 L 539.96011 226.09317 L 539.51275 228.7921 L 538.58264 231.36489 L 537.20072 233.72597 L 535.41295 235.79678 L 533.27881 237.50845 L 530.86928 238.80404 L 528.26452 239.64045 L 525 240 L 490 240 L 490 260 L 525 260 L 527.72436 260.24948 L 530.3581 260.98962 L 532.8136 262.1958 L 535.0092 263.82789 L 536.87185 265.83162 L 538.33959 268.14032 L 539.36361 270.6772 L 539.90984 273.35787 L 539.96011 276.09317 L 539.51275 278.7921 L 538.58264 281.36489 L 537.20072 283.72597 L 535.41295 285.79678 L 533.27881 287.50845 L 530.86928 288.80404 L 528.26452 289.64045 L 525 290 L 440 290 L 440 325 L 439.75052 327.72436 L 439.01038 330.3581 L 437.8042 332.8136 L 436.17211 335.0092 L 434.16838 336.87185 L 431.85968 338.33959 L 429.3228 339.36361 L 426.64213 339.90984 L 423.90683 339.96011 L 421.2079 339.51275 L 418.63511 338.58264 L 416.27403 337.20072 L 414.20322 335.41295 L 412.49155 333.27881 L 411.19596 330.86928 L 410.35955 328.26452 L 410 325 L 410 290 L 390 290 L 390 360 L 475 360 L 477.72436 360.24948 L 480.3581 360.98962 L 482.8136 362.1958 L 485.0092 363.82789 L 486.87185 365.83162 L 488.33959 368.14032 L 489.36361 370.6772 L 489.90984 373.35787 L 489.96011 376.09317 L 489.51275 378.7921 L 488.58264 381.36489 L 487.20072 383.72597 L 485.41295 385.79678 L 483.27881 387.50845 L 480.86928 388.80404 L 478.26452 389.64045 L 475 390 L 390 390 L 390 410 L 510 410 L 510 340 L 475 340 L 472.27564 339.75052 L 469.6419 339.01038 L 467.1864 337.8042 L 464.9908 336.17211 L 463.12815 334.16838 L 461.66041 331.85968 L 460.63639 329.3228 L 460.09016 326.64213 L 460.03989 323.90683 L 460.48725 321.2079 L 461.41736 318.63511 L 462.79928 316.27403 L 464.58705 314.20322 L 466.72119 312.49155 L 469.13072 311.19596 L 471.73548 310.35955 L 475 310 L 560 310 L 560 225 L 560.24948 222.27564 L 560.98962 219.6419 L 562.1958 217.1864 L 563.82789 214.9908 L 565.83162 213.12815 L 568.14032 211.66041 L 570.6772 210.63639 L 573.35787 210.09016 L 576.09317 210.03989 L 578.7921 210.48725 L 581.36489 211.41736 L 583.72597 212.79928 L 585.79678 214.58705 L 587.50845 216.72119 L 588.80404 219.13072 L 589.64045 221.73548 L 590 225 L 590 260 L 625 260 L 627.72436 260.24948 L 630.3581 260.98962 L 632.8136 262.1958 L 635.0092 263.82789 L 636.87185 265.83162 L 638.33959 268.14032 L 639.36361 270.6772 L 639.90984 273.35787 L 639.96011 276.09317 L 639.51275 278.7921 L 638.58264 281.36489 L 637.20072 283.72597 L 635.41295 285.79678 L 633.27881 287.50845 L 630.86928 288.80404 L 628.26452 289.64045 L 625 290 L 590 290 L 590 325 L 589.95005 325.54552 L 589.96011 326.09317 L 589.82556 326.90491 L 589.75052 327.72436 L 589.60232 328.25172 L 589.51275 328.7921 L 589.233 329.56592 L 589.01038 330.3581 L 588.76887 330.84976 L 588.58264 331.36489 L 588.16698 332.07507 L 587.8042 332.8136 L 587.47744 333.25318 L 587.20072 333.72597 L 586.66299 334.34883 L 586.17211 335.0092 L 585.77089 335.38217 L 585.41295 335.79678 L 584.77107 336.3116 L 584.16838 336.87185 L 583.70612 337.16573 L 583.27881 337.50845 L 582.55405 337.89815 L 581.85968 338.33959 L 581.35176 338.54461 L 580.86928 338.80404 L 580.08581 339.05562 L 579.3228 339.36361 L 578.78606 339.47298 L 578.26452 339.64045 L 577.61088 339.71244 L 576.64213 339.90984 L 575.65366 339.92801 L 575 340 L 540 340 L 540 425 L 539.95005 425.54552 L 539.96011 426.09317 L 539.82556 426.90491 L 539.75052 427.72436 L 539.60232 428.25172 L 539.51275 428.7921 L 539.233 429.56592 L 539.01038 430.3581 L 538.76887 430.84976 L 538.58264 431.36489 L 538.16698 432.07507 L 537.8042 432.8136 L 537.47744 433.25318 L 537.20072 433.72597 L 536.66299 434.34883 L 536.17211 435.0092 L 535.77089 435.38217 L 535.41295 435.79678 L 534.77107 436.3116 L 534.16838 436.87185 L 533.70612 437.16573 L 533.27881 437.50845 L 532.55405 437.89815 L 531.85968 438.33959 L 531.35176 438.54461 L 530.86928 438.80404 L 530.08581 439.05562 L 529.3228 439.36361 L 528.78606 439.47298 L 528.26452 439.64045 L 527.61088 439.71244 L 526.64213 439.90984 L 525.65366 439.92801 L 525 440 L 440 440 L 440 460 L 560 460 L 560 375 L 560.24948 372.27564 L 560.98962 369.6419 L 562.1958 367.1864 L 563.82789 364.9908 L 565.83162 363.12815 L 568.14032 361.66041 L 570.6772 360.63639 L 573.35787 360.09016 L 576.09317 360.03989 L 578.7921 360.48725 L 581.36489 361.41736 L 583.72597 362.79928 L 585.79678 364.58705 L 587.50845 366.72119 L 588.80404 369.13072 L 589.64045 371.73548 L 590 375 L 590 410 L 610 410 L 610 375 L 610.24948 372.27564 L 610.98962 369.6419 L 612.1958 367.1864 L 613.82789 364.9908 L 615.83162 363.12815 L 618.14032 361.66041 L 620.6772 360.63639 L 623.35787 360.09016 L 626.09317 360.03989 L 628.7921 360.48725 L 631.36489 361.41736 L 633.72597 362.79928 L 635.79678 364.58705 L 637.50845 366.72119 L 638.80404 369.13072 L 639.64045 371.73548 L 640 375 L 640 410 L 660 410 L 660 340 L 625 340 L 622.27564 339.75052 L 619.6419 339.01038 L 617.1864 337.8042 L 614.9908 336.17211 L 613.12815 334.16838 L 611.66041 331.85968 L 610.63639 329.3228 L 610.09016 326.64213 L 610.03989 323.90683 L 610.48725 321.2079 L 611.41736 318.63511 L 612.79928 316.27403 L 614.58705 314.20322 L 616.72119 312.49155 L 619.13072 311.19596 L 621.73548 310.35955 L 625 310 L 660 310 L 660 240 L 625 240 L 622.27564 239.75052 L 619.6419 239.01038 L 617.1864 237.8042 L 614.9908 236.17211 L 613.12815 234.16838 L 611.66041 231.85968 L 610.63639 229.3228 L 610.09016 226.64213 L 610.03989 223.90683 L 610.48725 221.2079 L 611.41736 218.63511 L 612.79928 216.27403 L 614.58705 214.20322 L 616.72119 212.49155 L 619.13072 211.19596 L 621.73548 210.35955 L 625 210 L 675 210 L 677.72436 210.24948 L 680.3581 210.98962 L 682.8136 212.1958 L 685.0092 213.82789 L 686.87185 215.83162 L 688.33959 218.14032 L 689.36361 220.6772 L 689.90984 223.35787 L 690 225 L 690 425 L 689.75052 427.72436 L 689.01038 430.3581 L 687.8042 432.8136 L 686.17211 435.0092 L 684.16838 436.87185 L 681.85968 438.33959 L 679.3228 439.36361 L 676.64213 439.90984 L 675 440 L 590 440 L 590 560 L 660 560 L 660 540 L 625 540 L 622.27564 539.75052 L 619.6419 539.01038 L 617.1864 537.8042 L 614.9908 536.17211 L 613.12815 534.16838 L 611.66041 531.85968 L 610.63639 529.3228 L 610.09016 526.64213 L 610.03989 523.90683 L 610.48725 521.2079 L 611.41736 518.63511 L 612.79928 516.27403 L 614.58705 514.20322 L 616.72119 512.49155 L 619.13072 511.19596 L 621.73548 510.35955 L 625 510 L 660 510 L 660 490 L 625 490 L 622.27564 489.75052 L 619.6419 489.01038 L 617.1864 487.8042 L 614.9908 486.17211 L 613.12815 484.16838 L 611.66041 481.85968 L 610.63639 479.3228 L 610.09016 476.64213 L 610.03989 473.90683 L 610.48725 471.2079 L 611.41736 468.63511 L 612.79928 466.27403 L 614.58705 464.20322 L 616.72119 462.49155 L 619.13072 461.19596 L 621.73548 460.35955 L 625 460 L 675 460 L 677.72436 460.24948 L 680.3581 460.98962 L 682.8136 462.1958 L 685.0092 463.82789 L 686.87185 465.83162 L 688.33959 468.14032 L 689.36361 470.6772 L 689.90984 473.35787 L 690 475 L 690 575 L 689.95005 575.54552 L 689.96011 576.09317 L 689.82556 576.90491 L 689.75052 577.72436 L 689.60232 578.25172 L 689.51275 578.7921 L 689.233 579.56592 L 689.01038 580.3581 L 688.76887 580.84976 L 688.58264 581.36489 L 688.16698 582.07507 L 687.8042 582.8136 L 687.47744 583.25318 L 687.20072 583.72597 L 686.66299 584.34883 L 686.17211 585.0092 L 685.77089 585.38217 L 685.41295 585.79678 L 684.77107 586.3116 L 684.16838 586.87185 L 683.70612 587.16573 L 683.27881 587.50845 L 682.55405 587.89815 L 681.85968 588.33959 L 681.35176 588.54461 L 680.86928 588.80404 L 680.08581 589.05562 L 679.3228 589.36361 L 678.78606 589.47298 L 678.26452 589.64045 L 677.61088 589.71244 L 676.64213 589.90984 L 675.65366 589.92801 L 675 590 L 640 590 L 640 660 L 660 660 L 660 625 L 660.24948 622.27564 L 660.98962 619.6419 L 662.1958 617.1864 L 663.82789 614.9908 L 665.83162 613.12815 L 668.14032 611.66041 L 670.6772 610.63639 L 673.35787 610.09016 L 676.09317 610.03989 L 678.7921 610.48725 L 681.36489 611.41736 L 683.72597 612.79928 L 685.79678 614.58705 L 687.50845 616.72119 L 688.80404 619.13072 L 689.64045 621.73548 L 690 625 L 690 675 L 689.75052 677.72436 L 689.01038 680.3581 L 687.8042 682.8136 L 686.17211 685.0092 L 684.16838 686.87185 L 681.85968 688.33959 L 679.3228 689.36361 L 676.64213 689.90984 L 675 690 L 625 690 L 622.27564 689.75052 L 619.6419 689.01038 L 617.1864 687.8042 L 614.9908 686.17211 L 613.12815 684.16838 L 611.66041 681.85968 L 610.63639 679.3228 L 610.09016 676.64213 L 610 675 L 610 640 L 575 640 L 572.27564 639.75052 L 569.6419 639.01038 L 567.1864 637.8042 L 564.9908 636.17211 L 563.12815 634.16838 L 561.66041 631.85968 L 560.63639 629.3228 L 560.09016 626.64213 L 560.03989 623.90683 L 560.48725 621.2079 L 561.41736 618.63511 L 562.79928 616.27403 L 564.58705 614.20322 L 566.72119 612.49155 L 569.13072 611.19596 L 571.73548 610.35955 L 575 610 L 610 610 L 610 590 L 540 590 L 540 660 L 575 660 L 577.72436 660.24948 L 580.3581 660.98962 L 582.8136 662.1958 L 585.0092 663.82789 L 586.87185 665.83162 L 588.33959 668.14032 L 589.36361 670.6772 L 589.90984 673.35787 L 589.96011 676.09317 L 589.51275 678.7921 L 588.58264 681.36489 L 587.20072 683.72597 L 585.41295 685.79678 L 583.27881 687.50845 L 580.86928 688.80404 L 578.26452 689.64045 L 575 690 L 525 690 L 522.27564 689.75052 L 519.6419 689.01038 L 517.1864 687.8042 L 514.9908 686.17211 L 513.12815 684.16838 L 511.66041 681.85968 L 510.63639 679.3228 L 510.09016 676.64213 L 510 675 L 510 575 L 510.24948 572.27564 L 510.98962 569.6419 L 512.1958 567.1864 L 513.82789 564.9908 L 515.83162 563.12815 L 518.14032 561.66041 L 520.6772 560.63639 L 523.35787 560.09016 L 525 560 L 560 560 L 560 490 L 540 490 L 540 525 L 539.75052 527.72436 L 539.01038 530.3581 L 537.8042 532.8136 L 536.17211 535.0092 L 534.16838 536.87185 L 531.85968 538.33959 L 529.3228 539.36361 L 526.64213 539.90984 L 523.90683 539.96011 L 521.2079 539.51275 L 518.63511 538.58264 L 516.27403 537.20072 L 514.20322 535.41295 L 512.49155 533.27881 L 511.19596 530.86928 L 510.35955 528.26452 L 510 525 L 510 490 L 490 490 L 490 675 L 489.75052 677.72436 L 489.01038 680.3581 L 487.8042 682.8136 L 486.17211 685.0092 L 484.16838 686.87185 L 481.85968 688.33959 L 479.3228 689.36361 L 476.64213 689.90984 L 473.90683 689.96011 L 471.2079 689.51275 L 468.63511 688.58264 L 466.27403 687.20072 L 464.20322 685.41295 L 462.49155 683.27881 L 461.19596 680.86928 L 460.35955 678.26452 L 460 675 L 460 490 L 440 490 L 440 625 L 439.95005 625.54552 L 439.96011 626.09317 L 439.82556 626.90491 L 439.75052 627.72436 L 439.60232 628.25172 L 439.51275 628.7921 L 439.233 629.56592 L 439.01038 630.3581 L 438.76887 630.84976 L 438.58264 631.36489 L 438.16698 632.07507 L 437.8042 632.8136 L 437.47744 633.25318 L 437.20072 633.72597 L 436.66299 634.34883 L 436.17211 635.0092 L 435.77089 635.38217 L 435.41295 635.79678 L 434.77107 636.3116 L 434.16838 636.87185 L 433.70612 637.16573 L 433.27881 637.50845 L 432.55405 637.89815 L 431.85968 638.33959 L 431.35176 638.54461 L 430.86928 638.80404 L 430.08581 639.05562 L 429.3228 639.36361 L 428.78606 639.47298 L 428.26452 639.64045 L 427.61088 639.71244 L 426.64213 639.90984 L 425.65366 639.92801 L 425 640 L 375 640 L 372.27564 639.75052 L 369.6419 639.01038 L 367.1864 637.8042 L 364.9908 636.17211 L 363.12815 634.16838 L 361.66041 631.85968 L 360.63639 629.3228 L 360.09016 626.64213 L 360.03989 623.90683 L 360.48725 621.2079 L 361.41736 618.63511 L 362.79928 616.27403 L 364.58705 614.20322 L 366.72119 612.49155 L 369.13072 611.19596 L 371.73548 610.35955 L 375 610 L 410 610 L 410 590 L 375 590 L 372.27564 589.75052 L 369.6419 589.01038 L 367.1864 587.8042 L 364.9908 586.17211 L 363.12815 584.16838 L 361.66041 581.85968 L 360.63639 579.3228 L 360.09016 576.64213 L 360.03989 573.90683 L 360.48725 571.2079 L 361.41736 568.63511 L 362.79928 566.27403 L 364.58705 564.20322 L 366.72119 562.49155 L 369.13072 561.19596 L 371.73548 560.35955 L 375 560 L 410 560 L 410 540 L 340 540 L 340 660 L 425 660 L 427.72436 660.24948 L 430.3581 660.98962 L 432.8136 662.1958 L 435.0092 663.82789 L 436.87185 665.83162 L 438.33959 668.14032 L 439.36361 670.6772 L 439.90984 673.35787 L 439.96011 676.09317 L 439.51275 678.7921 L 438.58264 681.36489 L 437.20072 683.72597 L 435.41295 685.79678 L 433.27881 687.50845 L 430.86928 688.80404 L 428.26452 689.64045 L 425 690 L 275 690 L 272.27564 689.75052 L 269.6419 689.01038 L 267.1864 687.8042 L 264.9908 686.17211 L 263.12815 684.16838 L 261.66041 681.85968 L 260.63639 679.3228 L 260.09016 676.64213 L 260.03989 673.90683 L 260.48725 671.2079 L 261.41736 668.63511 L 262.79928 666.27403 L 264.58705 664.20322 L 266.72119 662.49155 L 269.13072 661.19596 L 271.73548 660.35955 L 275 660 L 310 660 L 310 590 L 290 590 L 290 625 L 289.75052 627.72436 L 289.01038 630.3581 L 287.8042 632.8136 L 286.17211 635.0092 L 284.16838 636.87185 L 281.85968 638.33959 L 279.3228 639.36361 L 276.64213 639.90984 L 273.90683 639.96011 L 271.2079 639.51275 L 268.63511 638.58264 L 266.27403 637.20072 L 264.20322 635.41295 L 262.49155 633.27881 L 261.19596 630.86928 L 260.35955 628.26452 L 260 625 L 260 590 L 240 590 L 240 675 L 239.75052 677.72436 L 239.01038 680.3581 L 237.8042 682.8136 L 236.17211 685.0092 L 234.16838 686.87185 L 231.85968 688.33959 L 229.3228 689.36361 L 226.64213 689.90984 L 223.90683 689.96011 L 221.2079 689.51275 L 218.63511 688.58264 L 216.27403 687.20072 L 214.20322 685.41295 L 212.49155 683.27881 L 211.19596 680.86928 L 210.35955 678.26452 L 210 675 L 210 475 L 210.24948 472.27564 L 210.98962 469.6419 L 212.1958 467.1864 L 213.82789 464.9908 L 215.83162 463.12815 L 218.14032 461.66041 L 220.6772 460.63639 L 223.35787 460.09016 L 226.09317 460.03989 L 228.7921 460.48725 L 231.36489 461.41736 L 233.72597 462.79928 L 235.79678 464.58705 L 237.50845 466.72119 L 238.80404 469.13072 L 239.64045 471.73548 L 240 475 L 240 510 L 275 510 L 277.72436 510.24948 L 280.3581 510.98962 L 282.8136 512.1958 L 285.0092 513.82789 L 286.87185 515.83162 L 288.33959 518.14032 L 289.36361 520.6772 L 289.90984 523.35787 L 289.96011 526.09317 L 289.51275 528.7921 L 288.58264 531.36489 L 287.20072 533.72597 L 285.41295 535.79678 L 283.27881 537.50845 L 280.86928 538.80404 L 278.26452 539.64045 L 275 540 L 240 540 L 240 560 L 310 560 L 310 525 L 310.24948 522.27564 L 310.98962 519.6419 L 312.1958 517.1864 L 313.82789 514.9908 L 315.83162 513.12815 L 318.14032 511.66041 L 320.6772 510.63639 L 323.35787 510.09016 L 325 510 L 410 510 L 410 440 L 390 440 L 390 475 L 389.95005 475.54552 L 389.96011 476.09317 L 389.82556 476.90491 L 389.75052 477.72436 L 389.60232 478.25172 L 389.51275 478.7921 L 389.233 479.56592 L 389.01038 480.3581 L 388.76887 480.84976 L 388.58264 481.36489 L 388.16698 482.07507 L 387.8042 482.8136 L 387.47744 483.25318 L 387.20072 483.72597 L 386.66299 484.34883 L 386.17211 485.0092 L 385.77089 485.38217 L 385.41295 485.79678 L 384.77107 486.3116 L 384.16838 486.87185 L 383.70612 487.16573 L 383.27881 487.50845 L 382.55405 487.89815 L 381.85968 488.33959 L 381.35176 488.54461 L 380.86928 488.80404 L 380.08581 489.05562 L 379.3228 489.36361 L 378.78606 489.47298 L 378.26452 489.64045 L 377.61088 489.71244 L 376.64213 489.90984 L 375.65366 489.92801 L 375 490 L 325 490 L 322.27564 489.75052 L 319.6419 489.01038 L 317.1864 487.8042 L 314.9908 486.17211 L 313.12815 484.16838 L 311.66041 481.85968 L 310.63639 479.3228 L 310.09016 476.64213 L 310 475 L 310 440 L 290 440 L 290 475 L 289.75052 477.72436 L 289.01038 480.3581 L 287.8042 482.8136 L 286.17211 485.0092 L 284.16838 486.87185 L 281.85968 488.33959 L 279.3228 489.36361 L 276.64213 489.90984 L 273.90683 489.96011 L 271.2079 489.51275 L 268.63511 488.58264 L 266.27403 487.20072 L 264.20322 485.41295 L 262.49155 483.27881 L 261.19596 480.86928 L 260.35955 478.26452 L 260 475 L 260 440 L 225 440 L 222.27564 439.75052 L 219.6419 439.01038 L 217.1864 437.8042 L 214.9908 436.17211 L 213.12815 434.16838 L 211.66041 431.85968 L 210.63639 429.3228 L 210.09016 426.64213 L 210 425 L 210 375 L 210.24948 372.27564 L 210.98962 369.6419 L 212.1958 367.1864 L 213.82789 364.9908 L 215.83162 363.12815 L 218.14032 361.66041 L 220.6772 360.63639 L 223.35787 360.09016 L 226.09317 360.03989 L 228.7921 360.48725 L 231.36489 361.41736 L 233.72597 362.79928 L 235.79678 364.58705 L 237.50845 366.72119 L 238.80404 369.13072 L 239.64045 371.73548 L 240 375 L 240 410 L 310 410 L 310 375 L 310.24948 372.27564 L 310.98962 369.6419 L 312.1958 367.1864 L 313.82789 364.9908 L 315.83162 363.12815 L 318.14032 361.66041 L 320.6772 360.63639 L 323.35787 360.09016 L 326.09317 360.03989 L 328.7921 360.48725 L 331.36489 361.41736 L 333.72597 362.79928 L 335.79678 364.58705 L 337.50845 366.72119 L 338.80404 369.13072 L 339.64045 371.73548 L 340 375 L 340 460 L 360 460 L 360 340 L 290 340 L 290 375 L 289.75052 377.72436 L 289.01038 380.3581 L 287.8042 382.8136 L 286.17211 385.0092 L 284.16838 386.87185 L 281.85968 388.33959 L 279.3228 389.36361 L 276.64213 389.90984 L 273.90683 389.96011 L 271.2079 389.51275 L 268.63511 388.58264 L 266.27403 387.20072 L 264.20322 385.41295 L 262.49155 383.27881 L 261.19596 380.86928 L 260.35955 378.26452 L 260 375 L 260 340 L 225 340 L 222.27564 339.75052 L 219.6419 339.01038 L 217.1864 337.8042 L 214.9908 336.17211 L 213.12815 334.16838 L 211.66041 331.85968 L 210.63639 329.3228 L 210.09016 326.64213 L 210.03989 323.90683 L 210.48725 321.2079 L 211.41736 318.63511 L 212.79928 316.27403 L 214.58705 314.20322 L 216.72119 312.49155 L 219.13072 311.19596 L 221.73548 310.35955 L 225 310 L 310 310 L 310 290 L 225 290 L 222.27564 289.75052 L 219.6419 289.01038 L 217.1864 287.8042 L 214.9908 286.17211 L 213.12815 284.16838 L 211.66041 281.85968 L 210.63639 279.3228 L 210.09016 276.64213 L 210.03989 273.90683 L 210.48725 271.2079 L 211.41736 268.63511 L 212.79928 266.27403 L 214.58705 264.20322 L 216.72119 262.49155 L 219.13072 261.19596 L 221.73548 260.35955 L 225 260 L 260 260 L 260 240 L 225 240 L 222.27564 239.75052 L 219.6419 239.01038 L 217.1864 237.8042 L 214.9908 236.17211 L 213.12815 234.16838 L 211.66041 231.85968 L 210.63639 229.3228 L 210.09016 226.64213 L 210.03989 223.90683 L 210.48725 221.2079 L 211.41736 218.63511 L 212.79928 216.27403 L 214.58705 214.20322 L 216.72119 212.49155 L 219.13072 211.19596 L 221.73548 210.35955 L 225 210 L 275 210 Z" stroke-miterlimit="10"/></g></svg>