<svg version="1.1" xmlns="http://www.w3.org/2000/svg" xmlns:xlink="http://www.w3.org/1999/xlink" width="900" height="900"><defs/><g><path fill="#222222" stroke="#ffffff" paint-order="fill stroke markers" d=" M 460.82532 623.75 L 460.82532 636.25 L 450 642.5 L 439.17467999999997 636.25 L 439.17467999999997 623.75 L 450 617.5 Z" stroke-miterlimit="10"/><path fill="#222222" stroke="#ffffff" paint-order="fill stroke markers" d=" M 477.27486 280.17037 L 478.48076 280.66987 L 487.14101999999997 285.66987 L 487.14101 285.66987 L 488.22220999999996 286.2941 L 500.1314 293.16987 L 504.46151999999995 295.66987 L 505.49706 296.46447 L 506.29164999999995 297.5 L 506.79114999999996 298.7059 L 506.96151999999995 300 L 506.96151999999995 330 L 506.79114999999996 331.2941 L 506.29164999999995 332.5 L 505.49706 333.53553 L 504.46151999999995 334.33013 L 497.81089999999995 338.16987 L 487.14101 344.33013 L 482.81089 346.83013 L 480.98076 347.88676 L 480.98076 375 L 480.81039 376.2941 L 480.31089 377.5 L 479.51628999999997 378.53553 L 478.48076 379.33013 L 455 392.88675 L 455 417.11325 L 456.83011999999997 418.16987 L 469.82050999999996 425.66987 L 474.15063 428.16987 L 475.98075 429.2265 L 491.96151999999995 420 L 496.96151999999995 417.11325 L 496.96151999999995 390 L 497.13189 388.7059 L 497.6314 387.5 L 498.42598999999996 386.46447 L 499.46151999999995 385.66987 L 503.79164999999995 383.16987 L 517.94228 375 L 522.94228 372.11325 L 522.94228 345 L 523.11266 343.7059 L 523.6121599999999 342.5 L 524.40675 341.46447 L 525.44228 340.66987 L 529.77241 338.16987 L 533.92305 335.7735 L 540.59773 331.91987 L 551.4230499999999 325.66987 L 552.62895 325.17037 L 553.9230499999999 325 L 555.21714 325.17037 L 556.4230499999999 325.66987 L 569.4134300000001 333.16987 L 573.7435499999999 335.66987 L 582.40381 340.66987 L 583.4393399999999 341.46447 L 584.2339400000001 342.5 L 584.73344 343.7059 L 584.90381 345 L 584.90381 372.11325 L 586.7339400000001 373.16987 L 591.0640599999999 375.66987 L 599.72432 380.66987 L 604.0544399999999 383.16987 L 608.3845699999999 385.66987 L 609.4201 386.46447 L 610.2147 387.5 L 610.7141999999999 388.7059 L 610.8845699999999 390 L 610.8845699999999 420 L 610.7141999999999 421.2941 L 610.2147 422.5 L 609.4201 423.53553 L 608.3845699999999 424.33013 L 597.40382 430.66987 L 591.0640599999999 434.33013 L 586.7339400000001 436.83013 L 582.40381 439.33013 L 581.1978999999999 439.82963 L 579.90381 440 L 578.60971 439.82963 L 577.40381 439.33013 L 568.7435499999999 434.33013 L 564.4134300000001 431.83013 L 555.75317 426.83013 L 551.4230499999999 424.33013 L 550.38751 423.53553 L 549.59292 422.5 L 549.0934199999999 421.2941 L 548.9230499999999 420 L 548.9230499999999 392.88675 L 536.4230399999999 385.66987 L 527.94228 380.77351 L 526.1121599999999 381.83013 L 518.08525 386.46447 L 517.4519 386.83013 L 513.12178 389.33013 L 506.96151999999995 392.88676 L 506.96151999999995 420 L 506.79114999999996 421.2941 L 506.29164999999995 422.5 L 505.49706 423.53553 L 504.46151999999995 424.33013 L 500.1314 426.83013 L 483.89342 436.20513 L 482.81089 436.83013 L 480.98076 437.88676 L 480.98076 462.11324 L 482.81089 463.16987 L 487.14101 465.66987 L 488.22220999999996 466.2941 L 500.1314 473.16987 L 504.46151999999995 475.66987 L 505.49706 476.46447 L 506.29164999999995 477.5 L 506.79114999999996 478.7059 L 506.96151999999995 480 L 506.96151999999995 507.11324 L 513.12178 510.66987 L 516.2916499999999 512.5 L 519.46153 514.33013 L 526.1121599999999 518.16987 L 527.94228 519.22649 L 529.77241 518.16987 L 548.9230499999999 507.11325 L 548.9230499999999 480 L 549.0934199999999 478.7059 L 549.59292 477.5 L 550.38751 476.46447 L 551.4230499999999 475.66987 L 577.40381 460.66987 L 578.60971 460.17037 L 579.90381 460 L 581.1978999999999 460.17037 L 582.40381 460.66987 L 586.7339400000001 463.16987 L 591.0640599999999 465.66987 L 599.72432 470.66987 L 604.0544399999999 473.16987 L 608.3845699999999 475.66987 L 609.4201 476.46447 L 610.2147 477.5 L 610.7141999999999 478.7059 L 610.8845699999999 480 L 610.8845699999999 510 L 610.7141999999999 511.2941 L 610.2147 512.5 L 609.4201 513.53553 L 608.3845699999999 514.33013 L 604.0544399999999 516.83013 L 594.2339400000001 522.5 L 591.0640599999999 524.33013 L 586.7339400000001 526.83013 L 584.90381 527.88676 L 584.90381 555 L 584.73344 556.2941 L 584.2339400000001 557.5 L 583.4393399999999 558.53553 L 582.40381 559.33013 L 569.4134300000001 566.83013 L 560.75317 571.83013 L 556.4230499999999 574.33013 L 555.21714 574.82963 L 553.9230499999999 575 L 552.62895 574.82963 L 551.4230499999999 574.33013 L 547.09292 571.83013 L 541.6802599999999 568.70513 L 536.4230399999999 565.66987 L 525.44228 559.33013 L 524.40675 558.53553 L 523.6121599999999 557.5 L 523.11266 556.2941 L 522.94228 555 L 522.94228 527.88675 L 499.46151999999995 514.33013 L 498.42598999999996 513.53553 L 497.6314 512.5 L 497.13189 511.2941 L 496.96151999999995 510 L 496.96151999999995 482.88675 L 475.98076 470.77351 L 474.15063 471.83013 L 469.82050999999996 474.33013 L 456.83011999999997 481.83013 L 455 482.88675 L 455 507.11325 L 456.83011999999997 508.16987 L 469.82050999999996 515.66987 L 474.15063 518.16987 L 478.48076 520.66987 L 479.51628999999997 521.46447 L 480.31089 522.5 L 480.81039 523.7058999999999 L 480.98076 525 L 480.98076 552.11325 L 504.46151999999995 565.66987 L 488.22220999999996 556.2941 L 500.1314 563.16987 L 504.46151999999995 565.66987 L 505.49706 566.46447 L 506.29164999999995 567.5 L 506.79114999999996 568.7059 L 506.96151999999995 570 L 506.96151999999995 600 L 506.79114999999996 601.2941 L 506.29164999999995 602.5 L 505.49706 603.53553 L 504.46151999999995 604.33013 L 497.81089999999995 608.16987 L 487.14101 614.33013 L 482.81089 616.83013 L 478.48076 619.33013 L 477.27486 619.82963 L 475.98076 620 L 474.68665999999996 619.82963 L 473.48076 619.33013 L 469.15063 616.83013 L 465.98076 615 L 454.15062 608.16987 L 451.83011999999997 606.83013 L 450 605.77351 L 426.51923999999997 619.33013 L 439.50962 611.83013 L 430.84936 616.83013 L 426.51923999999997 619.33013 L 425.31332999999995 619.82963 L 424.01923999999997 620 L 422.72513999999995 619.82963 L 421.51923999999997 619.33013 L 408.52885 611.83013 L 406.51923 610.66987 L 404.01923999999997 609.2265 L 395.53846999999996 604.33013 L 394.50293999999997 603.53553 L 393.70835 602.5 L 393.20883999999995 601.2941 L 393.03846999999996 600 L 393.03846999999996 570 L 393.20883999999995 568.7059 L 393.70835 567.5 L 394.50293999999997 566.46447 L 395.53846999999996 565.66987 L 399.86859999999996 563.16987 L 405.28126 560.04487 L 405.93077999999997 559.66987 L 408.52885 558.16987 L 421.51923999999997 550.66987 L 422.72513999999995 550.17037 L 424.01923999999997 550 L 425.31332999999995 550.17037 L 426.51923999999997 550.66987 L 439.50962 558.16987 L 443.83973999999995 560.66987 L 450 564.22649 L 451.83011999999997 563.16987 L 469.15063 553.16987 L 470.98076 552.11324 L 470.98076 527.88676 L 469.15063 526.83013 L 454.15062 518.16987 L 451.83011999999997 516.83013 L 447.5 514.33013 L 446.46446 513.53553 L 445.66987 512.5 L 445.17037 511.2941 L 445 510 L 445 482.88676 L 438.83973999999995 479.33013 L 434.50962 476.83013 L 425.84936 471.83013 L 424.01923999999997 470.77351 L 410.27993 478.7059 L 409.19872999999995 479.33013 L 400.53846999999996 484.33013 L 399.33257 484.82963 L 398.03846999999996 485 L 396.74438 484.82963 L 395.53846999999996 484.33013 L 393.03848 482.88676 L 372.05771 470.77351 L 368.98962 472.54487 L 365.89745999999997 474.33013 L 357.2372 479.33013 L 352.90707999999995 481.83013 L 351.07694999999995 482.88676 L 351.07694999999995 507.11325 L 352.90707999999995 508.16987 L 357.2372 510.66987 L 365.89745999999997 515.66987 L 370.22758 518.16987 L 374.55771 520.66987 L 375.59324999999995 521.46447 L 376.38784 522.5 L 376.88734 523.7058999999999 L 377.05771 525 L 377.05771 555 L 376.88734 556.2941 L 376.38784 557.5 L 375.59324999999995 558.53553 L 374.55771 559.33013 L 370.22758 561.83013 L 365.89745999999997 564.33013 L 363.57696 565.66987 L 357.2372 569.33013 L 352.90707999999995 571.83013 L 348.57694999999995 574.33013 L 347.37104 574.82963 L 346.07694999999995 575 L 344.78285 574.82963 L 343.57694999999995 574.33013 L 339.24681999999996 571.83013 L 336.07694999999995 570 L 324.24681 563.16987 L 321.92631 561.83013 L 317.59619 559.33013 L 316.56064999999995 558.53553 L 315.76606 557.5 L 315.26655999999997 556.2941 L 315.09619 555 L 315.09619 527.88675 L 313.26606 526.83013 L 308.93593 524.33013 L 304.60580999999996 521.83013 L 295.94554999999997 516.83013 L 291.61543 514.33013 L 290.57989 513.53553 L 289.78529999999995 512.5 L 289.2858 511.2941 L 289.11543 510 L 289.11543 480 L 289.2858 478.7059 L 289.78529999999995 477.5 L 290.57989 476.46447 L 291.61543 475.66987 L 317.59619 460.66987 L 318.80208999999996 460.17037 L 320.09619 460 L 321.39027999999996 460.17037 L 322.59619 460.66987 L 346.07694999999995 474.22649 L 347.90707999999995 473.16987 L 352.2372 470.66987 L 360.89745999999997 465.66987 L 365.22758 463.16987 L 369.55771 460.66987 L 370.76362 460.17037 L 372.05771 460 L 373.35181 460.17037 L 374.55771 460.66987 L 383.21797 465.66987 L 387.54809 468.16987 L 396.20835 473.16987 L 398.03846999999996 474.22649 L 404.01921999999996 470.77351 L 405.93077999999997 469.66987 L 408.52885 468.16987 L 419.01923999999997 462.11324 L 419.01923999999997 437.88676 L 408.52885 431.83013 L 404.19872999999995 429.33013 L 402.1891 428.16987 L 398.03846999999996 425.77351 L 388.18143999999995 431.46447 L 387.54809 431.83013 L 384.29916999999995 433.7059 L 374.55771 439.33013 L 373.35181 439.82963 L 372.05771 440 L 370.76362 439.82963 L 369.55771 439.33013 L 365.22758 436.83013 L 362.05771 435 L 354.55769999999995 430.66987 L 350.22758 428.16987 L 347.90707999999995 426.83013 L 346.07694999999995 425.77351 L 322.59619 439.33013 L 337.59619999999995 430.66987 L 326.92631 436.83013 L 322.59619 439.33013 L 321.39027999999996 439.82963 L 320.09619 440 L 318.80208999999996 439.82963 L 317.59619 439.33013 L 308.93593 434.33013 L 304.60580999999996 431.83013 L 295.94554999999997 426.83013 L 291.61543 424.33013 L 290.57989 423.53553 L 289.78529999999995 422.5 L 289.2858 421.2941 L 289.11543 420 L 289.11543 390 L 289.2858 388.7059 L 289.78529999999995 387.5 L 290.57989 386.46447 L 291.61543 385.66987 L 315.09619 372.11325 L 315.09619 345 L 315.26655999999997 343.7059 L 315.76606 342.5 L 316.56064999999995 341.46447 L 317.59619 340.66987 L 331.74681999999996 332.5 L 321.92631 338.16987 L 339.24681999999996 328.16987 L 343.57694999999995 325.66987 L 344.78285 325.17037 L 346.07694999999995 325 L 347.37104 325.17037 L 348.57694999999995 325.66987 L 352.90707999999995 328.16987 L 357.2372 330.66987 L 365.89745999999997 335.66987 L 370.22758 338.16987 L 374.55771 340.66987 L 375.59324999999995 341.46447 L 376.38784 342.5 L 376.88734 343.7059 L 377.05771 345 L 377.05771 375 L 376.88734 376.2941 L 376.38784 377.5 L 375.59324999999995 378.53553 L 374.55771 379.33013 L 370.22758 381.83013 L 360.40707999999995 387.5 L 357.2372 389.33013 L 352.90707999999995 391.83013 L 351.07694999999995 392.88676 L 351.07694999999995 417.11324 L 352.90707999999995 418.16987 L 357.2372 420.66987 L 365.89745999999997 425.66987 L 370.22758 428.16987 L 372.05769999999995 429.2265 L 373.88784 428.16987 L 378.21797 425.66987 L 382.54809 423.16987 L 391.20835 418.16987 L 395.53846999999996 415.66987 L 396.74438 415.17037 L 398.03846999999996 415 L 399.33257 415.17037 L 400.53846999999996 415.66987 L 404.86859999999996 418.16987 L 417.85898 425.66987 L 424.01923999999997 429.22649 L 425.84936 428.16987 L 434.50962 423.16987 L 438.83973999999995 420.66987 L 439.99998999999997 420 L 445 417.11324 L 445 390 L 445.17037 388.7059 L 445.66987 387.5 L 446.46446 386.46447 L 447.5 385.66987 L 451.83011999999997 383.16987 L 469.15063 373.16987 L 470.98076 372.11324 L 470.98076 347.88675 L 469.15063 346.83013 L 465.98076 345 L 454.15062 338.16987 L 451.83011999999997 336.83013 L 450 335.77351 L 426.51923999999997 349.33013 L 439.50962 341.83013 L 430.84936 346.83013 L 426.51923999999997 349.33013 L 425.31332999999995 349.82963 L 424.01923999999997 350 L 422.72513999999995 349.82963 L 421.51923999999997 349.33013 L 408.52885 341.83013 L 406.51923 340.66987 L 395.53846999999996 334.33013 L 394.50293999999997 333.53553 L 393.70835 332.5 L 393.20883999999995 331.2941 L 393.03846999999996 330 L 393.03846999999996 300 L 393.20883999999995 298.7059 L 393.70835 297.5 L 394.50293999999997 296.46447 L 395.53846999999996 295.66987 L 399.86859999999996 293.16987 L 405.28126 290.04487 L 405.93077999999997 289.66987 L 408.52885 288.16987 L 421.51923999999997 280.66987 L 422.72513999999995 280.17037 L 424.01923999999997 280 L 425.31332999999995 280.17037 L 426.51923999999997 280.66987 L 439.50962 288.16987 L 443.83973999999995 290.66987 L 450 294.22649 L 460.49037999999996 288.16987 L 469.15063 283.16987 L 473.48076 280.66987 L 474.68665999999996 280.17037 L 475.98076 280 Z M 474.15063 561.83013 L 469.82050999999996 564.33013 L 456.83011999999997 571.83013 L 452.5 574.33013 L 451.29409 574.82963 L 450 575 L 448.7059 574.82963 L 447.5 574.33013 L 438.83973999999995 569.33013 L 434.50962 566.83013 L 425.84936 561.83013 L 424.01923999999997 560.77351 L 413.52885 566.83013 L 409.19872999999995 569.33013 L 403.03846999999996 572.88676 L 403.03846999999996 597.11324 L 409.19872999999995 600.66987 L 413.52885 603.16987 L 424.01923999999997 609.22649 L 425.84936 608.16987 L 434.50962 603.16987 L 438.83973999999995 600.66987 L 447.5 595.66987 L 448.7059 595.17037 L 450 595 L 451.29409 595.17037 L 452.5 595.66987 L 456.83011999999997 598.16987 L 469.82050999999996 605.66987 L 474.15063 608.16987 L 475.98076 609.2265 L 477.81089 608.16987 L 482.14101 605.66987 L 495.1314 598.16987 L 496.96151999999995 597.11325 L 496.96151999999995 572.88675 L 495.1314 571.83013 L 482.14101 564.33013 L 477.81089 561.83013 L 475.98076 560.7735 Z M 313.93593 474.33013 L 309.60580999999996 476.83013 L 300.94554999999997 481.83013 L 299.11543 482.88675 L 299.11543 507.11325 L 300.94554999999997 508.16987 L 309.60580999999996 513.16987 L 313.93593 515.66987 L 322.59619 520.66987 L 323.63172 521.46447 L 324.42631 522.5 L 324.92582 523.7058999999999 L 325.09619 525 L 325.09619 552.11325 L 326.92631 553.16987 L 339.9167 560.66987 L 344.24681999999996 563.16987 L 346.07694999999995 564.2265 L 347.90707999999995 563.16987 L 352.2372 560.66987 L 360.89745999999997 555.66987 L 365.22758 553.16987 L 367.05771 552.11324 L 367.05771 527.88676 L 365.22758 526.83013 L 360.89745999999997 524.33013 L 352.2372 519.33013 L 347.90707999999995 516.83013 L 343.57694999999995 514.33013 L 342.54141999999996 513.53553 L 341.74681999999996 512.5 L 341.24732 511.2941 L 341.07694999999995 510 L 341.07694999999995 482.88676 L 339.24681999999996 481.83013 L 334.9167 479.33013 L 321.92631 471.83013 L 320.09619 470.77351 Z M 356.90227 533.75 L 356.90227 546.25 L 346.07694999999995 552.5 L 335.25163 546.25 L 335.25163 533.75 L 346.07694999999995 527.5 Z M 330.9215 488.75 L 330.9215 501.25 L 320.09619 507.5 L 309.27087 501.25 L 309.27087 488.75 L 320.09619 482.5 Z M 573.7435499999999 474.33013 L 569.4134300000001 476.83013 L 560.75317 481.83013 L 558.9230499999999 482.88675 L 558.9230499999999 510 L 558.75268 511.2941 L 558.25317 512.5 L 557.45858 513.53553 L 556.4230499999999 514.33013 L 547.76279 519.33013 L 543.4326699999999 521.83013 L 532.94228 527.88676 L 532.94228 552.11324 L 543.4326699999999 558.16987 L 547.76279 560.66987 L 553.9230499999999 564.22649 L 555.75317 563.16987 L 564.4134300000001 558.16987 L 568.7435499999999 555.66987 L 574.90381 552.11324 L 574.90381 525 L 575.0741800000001 523.7058999999999 L 575.57368 522.5 L 576.3682699999999 521.46447 L 577.40381 520.66987 L 581.7339400000001 518.16987 L 586.0640599999999 515.66987 L 594.72432 510.66987 L 599.0544399999999 508.16987 L 600.8845699999999 507.11324 L 600.8845699999999 482.88676 L 599.0544399999999 481.83013 L 594.72432 479.33013 L 586.0640599999999 474.33013 L 581.7339400000001 471.83013 L 579.90381 470.7735 Z M 564.74836 533.75 L 564.74836 546.25 L 553.9230499999999 552.5 L 543.09773 546.25 L 543.09773 533.75 L 553.9230499999999 527.5 Z M 590.7291299999999 488.75 L 590.7291299999999 501.25 L 579.90381 507.5 L 569.0784899999999 501.25 L 569.0784899999999 488.75 L 579.90381 482.5 Z M 469.15063 553.16987 L 465.98076 555 L 470.98076 552.11325 Z M 346.07694 474.2265 L 346.07694999999995 474.22649 L 344.24681999999996 473.16987 Z M 429.01923999999997 437.88675 L 429.01923999999997 462.11325 L 430.84936 463.16987 L 439.50962 468.16987 L 443.83973999999995 470.66987 L 450 474.22649 L 451.83011999999997 473.16987 L 464.82050999999996 465.66987 L 464.96536999999995 465.58623 L 470.98076 462.11325 L 469.15063 463.16987 L 470.98076 462.11324 L 470.98076 437.88675 L 469.15063 436.83013 L 465.98076 435 L 454.15062 428.16987 L 451.83011999999997 426.83013 L 450 425.77351 Z M 460.82532 443.75 L 460.82532 456.25 L 450 462.5 L 439.17467999999997 456.25 L 439.17467999999997 443.75 L 450 437.5 Z M 343.16429 472.54487 L 339.9167 470.66987 L 326.92631 463.16987 Z M 547.76279 339.33013 L 543.4326699999999 341.83013 L 532.94228 347.88676 L 532.94228 372.11324 L 543.4326699999999 378.16987 L 547.76279 380.66987 L 556.4230499999999 385.66987 L 557.45858 386.46447 L 558.25317 387.5 L 558.75268 388.7059 L 558.9230499999999 390 L 558.9230499999999 417.11325 L 560.75317 418.16987 L 569.4134300000001 423.16987 L 573.7435499999999 425.66987 L 579.90381 429.2265 L 581.7339400000001 428.16987 L 586.0640599999999 425.66987 L 594.72432 420.66987 L 599.0544399999999 418.16987 L 600.8845699999999 417.11324 L 600.8845699999999 392.88676 L 599.0544399999999 391.83013 L 594.72432 389.33013 L 586.0640599999999 384.33013 L 581.7339400000001 381.83013 L 577.40381 379.33013 L 576.3682699999999 378.53553 L 575.57368 377.5 L 575.0741800000001 376.2941 L 574.90381 375 L 574.90381 347.88676 L 568.7435499999999 344.33013 L 564.4134300000001 341.83013 L 555.75317 336.83013 L 553.9230499999999 335.77351 Z M 590.7291299999999 398.75 L 590.7291299999999 411.25 L 579.90381 417.5 L 569.0784899999999 411.25 L 569.0784899999999 398.75 L 579.90381 392.5 Z M 564.74836 353.75 L 564.74836 366.25 L 553.9230499999999 372.5 L 543.09773 366.25 L 543.09773 353.75 L 553.9230499999999 347.5 Z M 344.24681999999996 336.83013 L 339.9167 339.33013 L 326.92631 346.83013 L 325.09619 347.88675 L 325.09619 375 L 324.92582 376.2941 L 324.42631 377.5 L 323.63172 378.53553 L 322.59619 379.33013 L 313.93593 384.33013 L 309.60580999999996 386.83013 L 300.94554999999997 391.83013 L 299.11543 392.88675 L 299.11543 417.11325 L 300.94554999999997 418.16987 L 309.60580999999996 423.16987 L 313.93593 425.66987 L 320.09619 429.22649 L 321.92631 428.16987 L 334.9167 420.66987 L 339.24681999999996 418.16987 L 341.07694999999995 417.11324 L 341.07694999999995 390 L 341.24732 388.7059 L 341.74681999999996 387.5 L 342.54141999999996 386.46447 L 343.57694999999995 385.66987 L 347.90707999999995 383.16987 L 352.2372 380.66987 L 360.89745999999997 375.66987 L 365.22758 373.16987 L 367.05771 372.11324 L 367.05771 347.88676 L 365.22758 346.83013 L 360.89745999999997 344.33013 L 352.2372 339.33013 L 347.90707999999995 336.83013 L 346.07694999999995 335.7735 Z M 330.9215 398.75 L 330.9215 411.25 L 320.09619 417.5 L 309.27087 411.25 L 309.27087 398.75 L 320.09619 392.5 Z M 356.90227 353.75 L 356.90227 366.25 L 346.07694999999995 372.5 L 335.25163 366.25 L 335.25163 353.75 L 346.07694999999995 347.5 Z M 474.15063 291.83013 L 469.82050999999996 294.33013 L 456.83011999999997 301.83013 L 452.5 304.33013 L 451.29409 304.82963 L 450 305 L 448.7059 304.82963 L 447.5 304.33013 L 438.83973999999995 299.33013 L 434.50962 296.83013 L 425.84936 291.83013 L 424.01923999999997 290.77351 L 413.52885 296.83013 L 409.19872999999995 299.33013 L 403.03846999999996 302.88676 L 403.03846999999996 327.11324 L 409.19872999999995 330.66987 L 413.52885 333.16987 L 424.01923999999997 339.22649 L 425.84936 338.16987 L 434.50962 333.16987 L 438.83973999999995 330.66987 L 447.5 325.66987 L 448.7059 325.17037 L 450 325 L 451.29409 325.17037 L 452.5 325.66987 L 456.83011999999997 328.16987 L 469.82050999999996 335.66987 L 474.15063 338.16987 L 475.98076 339.2265 L 477.81089 338.16987 L 482.14101 335.66987 L 495.1314 328.16987 L 496.96151999999995 327.11325 L 496.96151999999995 302.88675 L 495.1314 301.83013 L 482.14101 294.33013 L 477.81089 291.83013 L 475.98076 290.7735 Z" stroke-miterlimit="10"/><path fill="#222222" stroke="#ffffff" paint-order="fill stroke markers" d=" M 512.78684 533.75 L 512.78684 546.25 L 501.96151999999995 552.5 L 491.1362 546.25 L 491.1362 533.75 L 501.96151999999995 527.5 Z" stroke-miterlimit="10"/><path fill="#222222" stroke="#ffffff" paint-order="fill stroke markers" d=" M 460.82532 533.75 L 460.82532 546.25 L 450 552.5 L 439.17467999999997 546.25 L 439.17467999999997 533.75 L 450 527.5 Z" stroke-miterlimit="10"/><path fill="#222222" stroke="#ffffff" paint-order="fill stroke markers" d=" M 538.7675999999999 488.75 L 538.7675999999999 501.25 L 527.94228 507.5 L 517.11697 501.25 L 517.11697 488.75 L 527.94228 482.5 Z" stroke-miterlimit="10"/><path fill="#222222" stroke="#ffffff" paint-order="fill stroke markers" d=" M 434.84454999999997 488.75 L 434.84454999999997 501.25 L 424.01923999999997 507.5 L 413.19392 501.25 L 413.19392 488.75 L 424.01923999999997 482.5 Z" stroke-miterlimit="10"/><path fill="#222222" stroke="#ffffff" paint-order="fill stroke markers" d=" M 382.88302999999996 488.75 L 382.88302999999996 501.25 L 372.05771 507.5 L 361.23238999999995 501.25 L 361.23238999999995 488.75 L 372.05771 482.5 Z" stroke-miterlimit="10"/><path fill="#222222" stroke="#ffffff" paint-order="fill stroke markers" d=" M 486.80607999999995 488.75 L 486.80607999999995 501.25 L 475.98076 507.5 L 465.15544 501.25 L 465.15544 488.75 L 475.98076 482.5 Z" stroke-miterlimit="10"/><path fill="#222222" stroke="#ffffff" paint-order="fill stroke markers" d=" M 512.78684 443.75 L 512.78684 456.25 L 501.96151999999995 462.5 L 491.1362 456.25 L 491.1362 443.75 L 501.96151999999995 437.5 Z" stroke-miterlimit="10"/><path fill="#222222" stroke="#ffffff" paint-order="fill stroke markers" d=" M 408.86379 443.75 L 408.86379 456.25 L 398.03846999999996 462.5 L 387.21315999999996 456.25 L 387.21315999999996 443.75 L 398.03846999999996 437.5 Z" stroke-miterlimit="10"/><path fill="#222222" stroke="#ffffff" paint-order="fill stroke markers" d=" M 356.90227 443.75 L 356.90227 456.25 L 346.07694999999995 462.5 L 335.25163 456.25 L 335.25163 443.75 L 346.07694999999995 437.5 Z" stroke-miterlimit="10"/><path fill="#222222" stroke="#ffffff" paint-order="fill stroke markers" d=" M 486.80607999999995 398.75 L 486.80607999999995 411.25 L 475.98076 417.5 L 465.15544 411.25 L 465.15544 398.75 L 475.98076 392.5 Z" stroke-miterlimit="10"/><path fill="#222222" stroke="#ffffff" paint-order="fill stroke markers" d=" M 434.84454999999997 398.75 L 434.84454999999997 411.25 L 424.01923999999997 417.5 L 413.19392 411.25 L 413.19392 398.75 L 424.01923999999997 392.5 Z" stroke-miterlimit="10"/><path fill="#222222" stroke="#ffffff" paint-order="fill stroke markers" d=" M 382.88302999999996 398.75 L 382.88302999999996 411.25 L 372.05771 417.5 L 361.23238999999995 411.25 L 361.23238999999995 398.75 L 372.05771 392.5 Z" stroke-miterlimit="10"/><path fill="#222222" stroke="#ffffff" paint-order="fill stroke markers" d=" M 538.7675999999999 398.75 L 538.7675999999999 411.25 L 527.94228 417.5 L 517.11697 411.25 L 517.11697 398.75 L 527.94228 392.5 Z" stroke-miterlimit="10"/><path fill="#222222" stroke="#ffffff" paint-order="fill stroke markers" d=" M 512.78684 353.75 L 512.78684 366.25 L 501.96151999999995 372.5 L 491.1362 366.25 L 491.1362 353.75 L 501.96151999999995 347.5 Z" stroke-miterlimit="10"/><path fill="#222222" stroke="#ffffff" paint-order="fill stroke markers" d=" M 460.82532 353.75 L 460.82532 366.25 L 450 372.5 L 439.17467999999997 366.25 L 439.17467999999997 353.75 L 450 347.5 Z" stroke-miterlimit="10"/><path fill="#222222" stroke="#ffffff" paint-order="fill stroke markers" d=" M 460.82532 263.75 L 460.82532 276.25 L 450 282.5 L 439.17467999999997 276.25 L 439.17467999999997 263.75 L 450 257.5 Z" stroke-miterlimit="10"/><path fill="#222222" stroke="#cccccc" paint-order="fill stroke markers" d=" M 476.69333 282.65829 L 476.88148 282.6679 L 476.92773 282.73534 L 477.23076 282.83494 L 503.21152 297.83494 L 504.25225 298.99872 L 504.46152 300 L 504.46152 330 L 503.97402 331.48319 L 503.21152 332.16506 L 478.48076 346.44337 L 478.48076 375 L 477.99326 376.48319 L 477.23076 377.16506 L 452.5 391.44337 L 452.5 418.55663 L 475.98076 432.11325 L 499.46152 418.55663 L 499.46152 390 L 499.47542 389.95771 L 499.46297 389.91499 L 499.71785 389.22014 L 499.94902 388.51681 L 499.98892 388.48113 L 500.00062 388.44924 L 500.0925 388.3885 L 500.71152 387.83494 L 525.44228 373.55663 L 525.44228 345 L 525.45618 344.95771 L 525.44373 344.91499 L 525.69861 344.22014 L 525.92978 343.51681 L 525.96968 343.48113 L 525.98138 343.44924 L 526.07326 343.3885 L 526.69228 342.83494 L 552.67305 327.83494 L 552.99238 327.7682 L 553.26455 327.58828 L 553.73762 327.61244 L 554.20128 327.51553 L 554.63562 327.65829 L 554.82377 327.6679 L 554.87002 327.73534 L 555.17305 327.83494 L 581.15381 342.83494 L 582.19454 343.99872 L 582.40381 345 L 582.40381 373.55663 L 607.13457 387.83494 L 608.1753 388.99872 L 608.38457 390 L 608.38457 420 L 607.89707 421.48319 L 607.13457 422.16506 L 581.15381 437.16506 L 580.87559 437.22321 L 580.64394 437.38793 L 580.12935 437.37918 L 579.62558 437.48447 L 579.26027 437.3644 L 579.08291 437.36138 L 578.9558 437.26432 L 578.65381 437.16506 L 552.67305 422.16506 L 552.30276 421.75099 L 551.86128 421.41389 L 551.7936 421.18163 L 551.63232 421.00128 L 551.42305 420 L 551.42305 391.44337 L 527.94228 377.88675 L 504.46152 391.44337 L 504.46152 420 L 503.97402 421.48319 L 503.21152 422.16506 L 478.48076 436.44337 L 478.48076 463.55663 L 503.21152 477.83494 L 504.25225 478.99872 L 504.46152 480 L 504.46152 508.55663 L 527.94228 522.11325 L 551.42305 508.55663 L 551.42305 480 L 551.43695 479.95771 L 551.4245 479.91499 L 551.67938 479.22014 L 551.91055 478.51681 L 551.95045 478.48113 L 551.96215 478.44924 L 552.05403 478.3885 L 552.67305 477.83494 L 578.65381 462.83494 L 578.97314 462.7682 L 579.24531 462.58828 L 579.71838 462.61244 L 580.18204 462.51553 L 580.61638 462.65829 L 580.80453 462.6679 L 580.85078 462.73534 L 581.15381 462.83494 L 607.13457 477.83494 L 608.1753 478.99872 L 608.38457 480 L 608.38457 510 L 607.89707 511.48319 L 607.13457 512.16506 L 582.40381 526.44337 L 582.40381 555 L 581.91631 556.48319 L 581.15381 557.16506 L 555.17305 572.16506 L 554.89483 572.22321 L 554.66318 572.38793 L 554.14859 572.37918 L 553.64482 572.48447 L 553.27951 572.3644 L 553.10215 572.36138 L 552.97504 572.26432 L 552.67305 572.16506 L 526.69228 557.16506 L 526.32199 556.75099 L 525.88051 556.41389 L 525.81283 556.18163 L 525.65155 556.00128 L 525.44228 555 L 525.44228 526.44337 L 500.71152 512.16506 L 500.34123 511.75099 L 499.89975 511.41389 L 499.83207 511.18163 L 499.67079 511.00128 L 499.46152 510 L 499.46152 481.44337 L 475.98076 467.88675 L 452.5 481.44337 L 452.5 508.55663 L 477.23076 522.83494 L 478.27149 523.99872 L 478.48076 525 L 478.48076 553.55663 L 503.21152 567.83494 L 504.25225 568.99872 L 504.46152 570 L 504.46152 600 L 503.97402 601.48319 L 503.21152 602.16506 L 477.23076 617.16506 L 476.95254 617.22321 L 476.72089 617.38793 L 476.2063 617.37918 L 475.70253 617.48447 L 475.33722 617.3644 L 475.15986 617.36138 L 475.03275 617.26432 L 474.73076 617.16506 L 450 602.88675 L 425.26924 617.16506 L 424.99102 617.22321 L 424.75937 617.38793 L 424.24478 617.37918 L 423.74101 617.48447 L 423.3757 617.3644 L 423.19834 617.36138 L 423.07123 617.26432 L 422.76924 617.16506 L 396.78847 602.16506 L 396.41818 601.75099 L 395.9767 601.41389 L 395.90902 601.18163 L 395.74774 601.00128 L 395.53847 600 L 395.53847 570 L 395.55237 569.95771 L 395.53992 569.91499 L 395.7948 569.22014 L 396.02597 568.51681 L 396.06587 568.48113 L 396.07757 568.44924 L 396.16945 568.3885 L 396.78847 567.83494 L 422.76924 552.83494 L 423.08857 552.7682 L 423.36074 552.58828 L 423.83381 552.61244 L 424.29747 552.51553 L 424.73181 552.65829 L 424.91996 552.6679 L 424.96621 552.73534 L 425.26924 552.83494 L 450 567.11325 L 473.48076 553.55663 L 473.48076 526.44337 L 448.75 512.16506 L 448.37971 511.75099 L 447.93823 511.41389 L 447.87055 511.18163 L 447.70927 511.00128 L 447.5 510 L 447.5 481.44337 L 424.01924 467.88675 L 399.28847 482.16506 L 399.01025 482.22321 L 398.7786 482.38793 L 398.26401 482.37918 L 397.76024 482.48447 L 397.39493 482.3644 L 397.21757 482.36138 L 397.09046 482.26432 L 396.78847 482.16506 L 372.05771 467.88675 L 348.57695 481.44337 L 348.57695 508.55663 L 373.30771 522.83494 L 374.34844 523.99872 L 374.55771 525 L 374.55771 555 L 374.07021 556.48319 L 373.30771 557.16506 L 347.32695 572.16506 L 347.04873 572.22321 L 346.81708 572.38793 L 346.30249 572.37918 L 345.79872 572.48447 L 345.43341 572.3644 L 345.25605 572.36138 L 345.12894 572.26432 L 344.82695 572.16506 L 318.84619 557.16506 L 318.4759 556.75099 L 318.03442 556.41389 L 317.96674 556.18163 L 317.80546 556.00128 L 317.59619 555 L 317.59619 526.44337 L 292.86543 512.16506 L 292.49514 511.75099 L 292.05366 511.41389 L 291.98598 511.18163 L 291.8247 511.00128 L 291.61543 510 L 291.61543 480 L 291.62933 479.95771 L 291.61688 479.91499 L 291.87176 479.22014 L 292.10293 478.51681 L 292.14283 478.48113 L 292.15453 478.44924 L 292.24641 478.3885 L 292.86543 477.83494 L 318.84619 462.83494 L 319.16552 462.7682 L 319.43769 462.58828 L 319.91076 462.61244 L 320.37442 462.51553 L 320.80876 462.65829 L 320.99691 462.6679 L 321.04316 462.73534 L 321.34619 462.83494 L 346.07695 477.11325 L 370.80771 462.83494 L 371.12704 462.7682 L 371.39921 462.58828 L 371.87228 462.61244 L 372.33594 462.51553 L 372.77028 462.65829 L 372.95843 462.6679 L 373.00468 462.73534 L 373.30771 462.83494 L 398.03847 477.11325 L 421.51924 463.55663 L 421.51924 436.44337 L 398.03847 422.88675 L 373.30771 437.16506 L 373.02949 437.22321 L 372.79784 437.38793 L 372.28325 437.37918 L 371.77948 437.48447 L 371.41417 437.3644 L 371.23681 437.36138 L 371.1097 437.26432 L 370.80771 437.16506 L 346.07695 422.88675 L 321.34619 437.16506 L 321.06797 437.22321 L 320.83632 437.38793 L 320.32173 437.37918 L 319.81796 437.48447 L 319.45265 437.3644 L 319.27529 437.36138 L 319.14818 437.26432 L 318.84619 437.16506 L 292.86543 422.16506 L 292.49514 421.75099 L 292.05366 421.41389 L 291.98598 421.18163 L 291.8247 421.00128 L 291.61543 420 L 291.61543 390 L 291.62933 389.95771 L 291.61688 389.91499 L 291.87176 389.22014 L 292.10293 388.51681 L 292.14283 388.48113 L 292.15453 388.44924 L 292.24641 388.3885 L 292.86543 387.83494 L 317.59619 373.55663 L 317.59619 345 L 317.61009 344.95771 L 317.59764 344.91499 L 317.85252 344.22014 L 318.08369 343.51681 L 318.12359 343.48113 L 318.13529 343.44924 L 318.22717 343.3885 L 318.84619 342.83494 L 344.82695 327.83494 L 345.14628 327.7682 L 345.41845 327.58828 L 345.89152 327.61244 L 346.35518 327.51553 L 346.78952 327.65829 L 346.97767 327.6679 L 347.02392 327.73534 L 347.32695 327.83494 L 373.30771 342.83494 L 374.34844 343.99872 L 374.55771 345 L 374.55771 375 L 374.07021 376.48319 L 373.30771 377.16506 L 348.57695 391.44337 L 348.57695 418.55663 L 372.05771 432.11325 L 396.78847 417.83494 L 397.1078 417.7682 L 397.37997 417.58828 L 397.85304 417.61244 L 398.3167 417.51553 L 398.75104 417.65829 L 398.93919 417.6679 L 398.98544 417.73534 L 399.28847 417.83494 L 424.01924 432.11325 L 447.5 418.55663 L 447.5 390 L 447.5139 389.95771 L 447.50145 389.91499 L 447.75633 389.22014 L 447.9875 388.51681 L 448.0274 388.48113 L 448.0391 388.44924 L 448.13098 388.3885 L 448.75 387.83494 L 473.48076 373.55663 L 473.48076 346.44337 L 450 332.88675 L 425.26924 347.16506 L 424.99102 347.22321 L 424.75937 347.38793 L 424.24478 347.37918 L 423.74101 347.48447 L 423.3757 347.3644 L 423.19834 347.36138 L 423.07123 347.26432 L 422.76924 347.16506 L 396.78847 332.16506 L 396.41818 331.75099 L 395.9767 331.41389 L 395.90902 331.18163 L 395.74774 331.00128 L 395.53847 330 L 395.53847 300 L 395.55237 299.95771 L 395.53992 299.91499 L 395.7948 299.22014 L 396.02597 298.51681 L 396.06587 298.48113 L 396.07757 298.44924 L 396.16945 298.3885 L 396.78847 297.83494 L 422.76924 282.83494 L 423.08857 282.7682 L 423.36074 282.58828 L 423.83381 282.61244 L 424.29747 282.51553 L 424.73181 282.65829 L 424.91996 282.6679 L 424.96621 282.73534 L 425.26924 282.83494 L 450 297.11325 L 474.73076 282.83494 L 475.05009 282.7682 L 475.32226 282.58828 L 475.79533 282.61244 L 476.25899 282.51553 Z M 451.25 572.16506 L 450.97178 572.22321 L 450.74013 572.38793 L 450.22554 572.37918 L 449.72177 572.48447 L 449.35646 572.3644 L 449.1791 572.36138 L 449.05199 572.26432 L 448.75 572.16506 L 424.01924 557.88675 L 400.53847 571.44337 L 400.53847 598.55663 L 424.01924 612.11325 L 448.75 597.83494 L 449.06933 597.7682 L 449.3415 597.58828 L 449.81457 597.61244 L 450.27823 597.51553 L 450.71257 597.65829 L 450.90072 597.6679 L 450.94697 597.73534 L 451.25 597.83494 L 475.98076 612.11325 L 499.46152 598.55663 L 499.46152 571.44337 L 475.98076 557.88675 Z M 296.61543 481.44337 L 296.61543 508.55663 L 321.34619 522.83494 L 322.38692 523.99872 L 322.59619 525 L 322.59619 553.55663 L 346.07695 567.11325 L 369.55771 553.55663 L 369.55771 526.44337 L 344.82695 512.16506 L 344.45666 511.75099 L 344.01518 511.41389 L 343.9475 511.18163 L 343.78622 511.00128 L 343.57695 510 L 343.57695 481.44337 L 320.09619 467.88675 Z M 556.42305 481.44337 L 556.42305 510 L 555.93555 511.48319 L 555.17305 512.16506 L 530.44228 526.44337 L 530.44228 553.55663 L 553.92305 567.11325 L 577.40381 553.55663 L 577.40381 525 L 577.41771 524.95771 L 577.40526 524.91499 L 577.66014 524.22014 L 577.89131 523.51681 L 577.93121 523.48113 L 577.94291 523.44924 L 578.03479 523.3885 L 578.65381 522.83494 L 603.38457 508.55663 L 603.38457 481.44337 L 579.90381 467.88675 Z M 426.51924 436.44337 L 426.51924 463.55663 L 450 477.11325 L 473.48076 463.55663 L 473.48076 436.44337 L 450 422.88675 Z M 322.59619 346.44337 L 322.59619 375 L 322.10869 376.48319 L 321.34619 377.16506 L 296.61543 391.44337 L 296.61543 418.55663 L 320.09619 432.11325 L 343.57695 418.55663 L 343.57695 390 L 343.59085 389.95771 L 343.5784 389.91499 L 343.83328 389.22014 L 344.06445 388.51681 L 344.10435 388.48113 L 344.11605 388.44924 L 344.20793 388.3885 L 344.82695 387.83494 L 369.55771 373.55663 L 369.55771 346.44337 L 346.07695 332.88675 Z M 530.44228 346.44337 L 530.44228 373.55663 L 555.17305 387.83494 L 556.21378 388.99872 L 556.42305 390 L 556.42305 418.55663 L 579.90381 432.11325 L 603.38457 418.55663 L 603.38457 391.44337 L 578.65381 377.16506 L 578.28352 376.75099 L 577.84204 376.41389 L 577.77436 376.18163 L 577.61308 376.00128 L 577.40381 375 L 577.40381 346.44337 L 553.92305 332.88675 Z M 451.25 302.16506 L 450.97178 302.22321 L 450.74013 302.38793 L 450.22554 302.37918 L 449.72177 302.48447 L 449.35646 302.3644 L 449.1791 302.36138 L 449.05199 302.26432 L 448.75 302.16506 L 424.01924 287.88675 L 400.53847 301.44337 L 400.53847 328.55663 L 424.01924 342.11325 L 448.75 327.83494 L 449.06933 327.7682 L 449.3415 327.58828 L 449.81457 327.61244 L 450.27823 327.51553 L 450.71257 327.65829 L 450.90072 327.6679 L 450.94697 327.73534 L 451.25 327.83494 L 475.98076 342.11325 L 499.46152 328.55663 L 499.46152 301.44337 L 475.98076 287.88675 Z" stroke-miterlimit="10"/><path fill="none" stroke="#cccccc" paint-order="fill stroke markers" d=" M 449.99999788646676 420.0000000000001 L 449.99999788646676 420.0000000000001 L 424.0192357729336 435.0000000000001 L 424.0192357729336 435.0000000000001 L 424.0192357729338 465.00000000000006 L 424.0192357729338 465.00000000000006 L 449.999997886467 480.00000000000006 L 449.999997886467 480.00000000000006 L 475.9807600000001 464.99999999999994 L 475.98076 435 L 449.99999788646676 420.0000000000001 L 449.9999978864668 390.0000000000001 L 475.98076 375.0000000000001 L 475.98076 345.0000000000001 L 449.9999978864668 330.0000000000001 L 424.01923577293365 345.0000000000001 L 398.0384736594005 330.0000000000001 L 398.0384736594005 300.0000000000001 L 424.01923577293365 285.00000000000006 L 449.9999978864668 300 L 475.98076 285 L 501.96152211353314 300 L 501.96152211353314 330 L 475.98076000000003 345 L 475.98076 345.0000000000001" stroke-miterlimit="10"/><path fill="none" stroke="#cccccc" paint-order="fill stroke markers" d=" M 475.98076 435 L 475.98076 435 L 501.96152211353314 420 L 501.96152211353314 390 L 527.9422842270662 375 L 527.9422842270662 345 L 553.9230463405994 330 L 579.9038084541326 345 L 579.9038084541326 375 L 605.8845705676657 390 L 605.8845705676657 420 L 579.9038084541326 435 L 553.9230463405994 420 L 553.9230463405994 390 L 527.9422842270662 375 L 527.9422842270662 375" stroke-miterlimit="10"/><path fill="none" stroke="#cccccc" paint-order="fill stroke markers" d=" M 501.96152211353314 420 L 501.96152211353314 420" stroke-miterlimit="10"/><path fill="none" stroke="#cccccc" paint-order="fill stroke markers" d=" M 501.96152211353314 390 L 501.96152211353314 390" stroke-miterlimit="10"/><path fill="none" stroke="#cccccc" paint-order="fill stroke markers" d=" M 527.9422842270662 345 L 527.9422842270662 345" stroke-miterlimit="10"/><path fill="none" stroke="#cccccc" paint-order="fill stroke markers" d=" M 553.9230463405994 330 L 553.9230463405994 330" stroke-miterlimit="10"/><path fill="none" stroke="#cccccc" paint-order="fill stroke markers" d=" M 579.9038084541326 345 L 579.9038084541326 345" stroke-miterlimit="10"/><path fill="none" stroke="#cccccc" paint-order="fill stroke markers" d=" M 579.9038084541326 375 L 579.9038084541326 375" stroke-miterlimit="10"/><path fill="none" stroke="#cccccc" paint-order="fill stroke markers" d=" M 605.8845705676657 390 L 605.8845705676657 390" stroke-miterlimit="10"/><path fill="none" stroke="#cccccc" paint-order="fill stroke markers" d=" M 605.8845705676657 420 L 605.8845705676657 420" stroke-miterlimit="10"/><path fill="none" stroke="#cccccc" paint-order="fill stroke markers" d=" M 579.9038084541326 435 L 579.9038084541326 435" stroke-miterlimit="10"/><path fill="none" stroke="#cccccc" paint-order="fill stroke markers" d=" M 553.9230463405994 420 L 553.9230463405994 420" stroke-miterlimit="10"/><path fill="none" stroke="#cccccc" paint-order="fill stroke markers" d=" M 553.9230463405994 390 L 553.9230463405994 390" stroke-miterlimit="10"/><path fill="none" stroke="#cccccc" paint-order="fill stroke markers" d=" M 475.9807599999999 465.00000000000006 L 475.9807599999999 465.00000000000006 L 501.9615221135331 480.00000000000006 L 501.9615221135331 510.00000000000006 L 527.9422842270662 525 L 553.9230463405994 510.00000000000006 L 553.9230463405994 480.00000000000006 L 579.9038084541326 465.00000000000006 L 605.8845705676657 480.00000000000006 L 605.8845705676657 510.00000000000006 L 579.9038084541326 525.0000000000001 L 579.9038084541326 555.0000000000001 L 553.9230463405994 570.0000000000001 L 527.9422842270662 555.0000000000001 L 527.9422842270662 525.0000000000001 L 527.9422842270662 525" stroke-miterlimit="10"/><path fill="none" stroke="#cccccc" paint-order="fill stroke markers" d=" M 501.9615221135331 480.00000000000006 L 501.9615221135331 480.00000000000006" stroke-miterlimit="10"/><path fill="none" stroke="#cccccc" paint-order="fill stroke markers" d=" M 501.9615221135331 510.00000000000006 L 501.9615221135331 510.00000000000006" stroke-miterlimit="10"/><path fill="none" stroke="#cccccc" paint-order="fill stroke markers" d=" M 553.9230463405994 510.00000000000006 L 553.9230463405994 510.00000000000006" stroke-miterlimit="10"/><path fill="none" stroke="#cccccc" paint-order="fill stroke markers" d=" M 553.9230463405994 480.00000000000006 L 553.9230463405994 480.00000000000006" stroke-miterlimit="10"/><path fill="none" stroke="#cccccc" paint-order="fill stroke markers" d=" M 579.9038084541326 465.00000000000006 L 579.9038084541326 465.00000000000006" stroke-miterlimit="10"/><path fill="none" stroke="#cccccc" paint-order="fill stroke markers" d=" M 605.8845705676657 480.00000000000006 L 605.8845705676657 480.00000000000006" stroke-miterlimit="10"/><path fill="none" stroke="#cccccc" paint-order="fill stroke markers" d=" M 605.8845705676657 510.00000000000006 L 605.8845705676657 510.00000000000006" stroke-miterlimit="10"/><path fill="none" stroke="#cccccc" paint-order="fill stroke markers" d=" M 579.9038084541326 525.0000000000001 L 579.9038084541326 525.0000000000001" stroke-miterlimit="10"/><path fill="none" stroke="#cccccc" paint-order="fill stroke markers" d=" M 579.9038084541326 555.0000000000001 L 579.9038084541326 555.0000000000001" stroke-miterlimit="10"/><path fill="none" stroke="#cccccc" paint-order="fill stroke markers" d=" M 553.9230463405994 570.0000000000001 L 553.9230463405994 570.0000000000001" stroke-miterlimit="10"/><path fill="none" stroke="#cccccc" paint-order="fill stroke markers" d=" M 527.9422842270662 555.0000000000001 L 527.9422842270662 555.0000000000001" stroke-miterlimit="10"/><path fill="none" stroke="#cccccc" paint-order="fill stroke markers" d=" M 424.0192357729336 435.0000000000001 L 398.03847365940044 420.0000000000001 L 372.0577115458673 435.0000000000001 L 346.0769494323341 420.00000000000017 L 320.09618731880096 435.00000000000017 L 294.1154252052678 420.00000000000017 L 294.1154252052678 390.00000000000017 L 320.09618731880096 375.00000000000017 L 320.09618731880096 345.00000000000017 L 346.0769494323341 330.0000000000001 L 372.0577115458673 345.0000000000001 L 372.0577115458673 375.0000000000001 L 346.0769494323342 390.00000000000017 L 346.07694943233423 420.00000000000017 L 346.0769494323341 420.00000000000017" stroke-miterlimit="10"/><path fill="none" stroke="#cccccc" paint-order="fill stroke markers" d=" M 398.03847365940044 420.0000000000001 L 398.03847365940044 420.0000000000001" stroke-miterlimit="10"/><path fill="none" stroke="#cccccc" paint-order="fill stroke markers" d=" M 372.0577115458673 435.0000000000001 L 372.0577115458673 435.0000000000001" stroke-miterlimit="10"/><path fill="none" stroke="#cccccc" paint-order="fill stroke markers" d=" M 320.09618731880096 435.00000000000017 L 320.09618731880096 435.00000000000017" stroke-miterlimit="10"/><path fill="none" stroke="#cccccc" paint-order="fill stroke markers" d=" M 294.1154252052678 420.00000000000017 L 294.1154252052678 420.00000000000017" stroke-miterlimit="10"/><path fill="none" stroke="#cccccc" paint-order="fill stroke markers" d=" M 294.1154252052678 390.00000000000017 L 294.1154252052678 390.00000000000017" stroke-miterlimit="10"/><path fill="none" stroke="#cccccc" paint-order="fill stroke markers" d=" M 320.09618731880096 375.00000000000017 L 320.09618731880096 375.00000000000017" stroke-miterlimit="10"/><path fill="none" stroke="#cccccc" paint-order="fill stroke markers" d=" M 320.09618731880096 345.00000000000017 L 320.09618731880096 345.00000000000017" stroke-miterlimit="10"/><path fill="none" stroke="#cccccc" paint-order="fill stroke markers" d=" M 346.0769494323341 330.0000000000001 L 346.0769494323341 330.0000000000001" stroke-miterlimit="10"/><path fill="none" stroke="#cccccc" paint-order="fill stroke markers" d=" M 372.0577115458673 345.0000000000001 L 372.0577115458673 345.0000000000001" stroke-miterlimit="10"/><path fill="none" stroke="#cccccc" paint-order="fill stroke markers" d=" M 372.0577115458673 375.0000000000001 L 372.0577115458673 375.0000000000001" stroke-miterlimit="10"/><path fill="none" stroke="#cccccc" paint-order="fill stroke markers" d=" M 346.0769494323342 390.00000000000017 L 346.0769494323342 390.00000000000017" stroke-miterlimit="10"/><path fill="none" stroke="#cccccc" paint-order="fill stroke markers" d=" M 449.9999978864668 390.0000000000001 L 449.9999978864668 390.0000000000001" stroke-miterlimit="10"/><path fill="none" stroke="#cccccc" paint-order="fill stroke markers" d=" M 475.98076 375.0000000000001 L 475.98076 375.0000000000001" stroke-miterlimit="10"/><path fill="none" stroke="#cccccc" paint-order="fill stroke markers" d=" M 449.9999978864668 330.0000000000001 L 449.9999978864668 330.0000000000001" stroke-miterlimit="10"/><path fill="none" stroke="#cccccc" paint-order="fill stroke markers" d=" M 424.01923577293365 345.0000000000001 L 424.01923577293365 345.0000000000001" stroke-miterlimit="10"/><path fill="none" stroke="#cccccc" paint-order="fill stroke markers" d=" M 398.0384736594005 330.0000000000001 L 398.0384736594005 330.0000000000001" stroke-miterlimit="10"/><path fill="none" stroke="#cccccc" paint-order="fill stroke markers" d=" M 398.0384736594005 300.0000000000001 L 398.0384736594005 300.0000000000001" stroke-miterlimit="10"/><path fill="none" stroke="#cccccc" paint-order="fill stroke markers" d=" M 424.01923577293365 285.00000000000006 L 424.01923577293365 285.00000000000006" stroke-miterlimit="10"/><path fill="none" stroke="#cccccc" paint-order="fill stroke markers" d=" M 449.9999978864668 300 L 449.9999978864668 300" stroke-miterlimit="10"/><path fill="none" stroke="#cccccc" paint-order="fill stroke markers" d=" M 475.98076 285 L 475.98076 285" stroke-miterlimit="10"/><path fill="none" stroke="#cccccc" paint-order="fill stroke markers" d=" M 501.96152211353314 300 L 501.96152211353314 300" stroke-miterlimit="10"/><path fill="none" stroke="#cccccc" paint-order="fill stroke markers" d=" M 501.96152211353314 330 L 501.96152211353314 330" stroke-miterlimit="10"/><path fill="none" stroke="#cccccc" paint-order="fill stroke markers" d=" M 449.999997886467 480.00000000000006 L 449.99999788646704 510.00000000000006 L 475.9807600000002 525 L 475.9807600000002 555 L 501.96152211353336 570 L 501.9615221135334 600 L 475.98076000000026 615 L 449.9999978864671 600 L 424.01923577293394 615.0000000000001 L 398.0384736594008 600.0000000000001 L 398.0384736594007 570.0000000000001 L 424.0192357729339 555.0000000000001 L 449.99999788646704 570 L 475.9807600000002 555 L 475.9807600000002 555" stroke-miterlimit="10"/><path fill="none" stroke="#cccccc" paint-order="fill stroke markers" d=" M 449.99999788646704 510.00000000000006 L 449.99999788646704 510.00000000000006" stroke-miterlimit="10"/><path fill="none" stroke="#cccccc" paint-order="fill stroke markers" d=" M 475.9807600000002 525 L 475.9807600000002 525" stroke-miterlimit="10"/><path fill="none" stroke="#cccccc" paint-order="fill stroke markers" d=" M 501.96152211353336 570 L 501.96152211353336 570" stroke-miterlimit="10"/><path fill="none" stroke="#cccccc" paint-order="fill stroke markers" d=" M 501.9615221135334 600 L 501.9615221135334 600" stroke-miterlimit="10"/><path fill="none" stroke="#cccccc" paint-order="fill stroke markers" d=" M 475.98076000000026 615 L 475.98076000000026 615" stroke-miterlimit="10"/><path fill="none" stroke="#cccccc" paint-order="fill stroke markers" d=" M 449.9999978864671 600 L 449.9999978864671 600" stroke-miterlimit="10"/><path fill="none" stroke="#cccccc" paint-order="fill stroke markers" d=" M 424.01923577293394 615.0000000000001 L 424.01923577293394 615.0000000000001" stroke-miterlimit="10"/><path fill="none" stroke="#cccccc" paint-order="fill stroke markers" d=" M 398.0384736594008 600.0000000000001 L 398.0384736594008 600.0000000000001" stroke-miterlimit="10"/><path fill="none" stroke="#cccccc" paint-order="fill stroke markers" d=" M 398.0384736594007 570.0000000000001 L 398.0384736594007 570.0000000000001" stroke-miterlimit="10"/><path fill="none" stroke="#cccccc" paint-order="fill stroke markers" d=" M 424.0192357729339 555.0000000000001 L 424.0192357729339 555.0000000000001" stroke-miterlimit="10"/><path fill="none" stroke="#cccccc" paint-order="fill stroke markers" d=" M 449.99999788646704 570 L 449.99999788646704 570" stroke-miterlimit="10"/><path fill="none" stroke="#cccccc" paint-order="fill stroke markers" d=" M 424.01923577293377 465.00000000000006 L 398.0384736594006 480.00000000000006 L 372.05771154586745 465.0000000000001 L 346.07694943233435 480.0000000000001 L 346.07694943233435 510.0000000000001 L 372.0577115458675 525.0000000000001 L 372.0577115458675 555.0000000000001 L 346.0769494323344 570.0000000000001 L 320.0961873188012 555.0000000000002 L 320.0961873188012 525.0000000000002 L 294.115425205268 510.0000000000002 L 294.11542520526797 480.0000000000002 L 320.09618731880107 465.00000000000017 L 346.0769494323343 480.0000000000001 L 346.07694943233435 480.0000000000001" stroke-miterlimit="10"/><path fill="none" stroke="#cccccc" paint-order="fill stroke markers" d=" M 398.0384736594006 480.00000000000006 L 398.0384736594006 480.00000000000006" stroke-miterlimit="10"/><path fill="none" stroke="#cccccc" paint-order="fill stroke markers" d=" M 372.05771154586745 465.0000000000001 L 372.05771154586745 465.0000000000001" stroke-miterlimit="10"/><path fill="none" stroke="#cccccc" paint-order="fill stroke markers" d=" M 346.07694943233435 510.0000000000001 L 346.07694943233435 510.0000000000001" stroke-miterlimit="10"/><path fill="none" stroke="#cccccc" paint-order="fill stroke markers" d=" M 372.0577115458675 525.0000000000001 L 372.0577115458675 525.0000000000001" stroke-miterlimit="10"/><path fill="none" stroke="#cccccc" paint-order="fill stroke markers" d=" M 372.0577115458675 555.0000000000001 L 372.0577115458675 555.0000000000001" stroke-miterlimit="10"/><path fill="none" stroke="#cccccc" paint-order="fill stroke markers" d=" M 346.0769494323344 570.0000000000001 L 346.0769494323344 570.0000000000001" stroke-miterlimit="10"/><path fill="none" stroke="#cccccc" paint-order="fill stroke markers" d=" M 320.0961873188012 555.0000000000002 L 320.0961873188012 555.0000000000002" stroke-miterlimit="10"/><path fill="none" stroke="#cccccc" paint-order="fill stroke markers" d=" M 320.0961873188012 525.0000000000002 L 320.0961873188012 525.0000000000002" stroke-miterlimit="10"/><path fill="none" stroke="#cccccc" paint-order="fill stroke markers" d=" M 294.115425205268 510.0000000000002 L 294.115425205268 510.0000000000002" stroke-miterlimit="10"/><path fill="none" stroke="#cccccc" paint-order="fill stroke markers" d=" M 294.11542520526797 480.0000000000002 L 294.11542520526797 480.0000000000002" stroke-miterlimit="10"/><path fill="none" stroke="#cccccc" paint-order="fill stroke markers" d=" M 320.09618731880107 465.00000000000017 L 320.09618731880107 465.00000000000017" stroke-miterlimit="10"/></g></svg>