<svg version="1.1" xmlns="http://www.w3.org/2000/svg" xmlns:xlink="http://www.w3.org/1999/xlink" width="900" height="900"><defs/><g><path fill="#222222" stroke="#cccccc" paint-order="fill stroke markers" d=" M 327.98699 257.24957 L 330.89115 257.99134 L 333.63195 259.20476 L 336.13339 260.85618 L 338.3261 262.8998 L 340.14929 265.27894 L 341.5524 267.92766 L 342.49652 270.77248 L 342.95546 273.73453 L 342.91651 276.73167 L 342.38074 279.68079 L 341.36301 282.50012 L 339.89155 285.11147 L 338.00714 287.44244 L 335.76206 289.42838 L 333.21854 291.01423 L 330.44713 292.15601 L 327.52468 292.82206 L 325 293 L 293 293 L 293 307 L 357 307 L 357 275 L 357.24957 272.01301 L 357.99134 269.10885 L 359.20476 266.36805 L 360.85618 263.86661 L 362.8998 261.6739 L 365.27894 259.85071 L 367.92766 258.4476 L 370.77248 257.50348 L 373.73453 257.04454 L 376.73167 257.08349 L 379.68079 257.61926 L 382.50012 258.63699 L 385.11147 260.10845 L 387.44244 261.99286 L 389.42838 264.23794 L 391.01423 266.78146 L 392.15601 269.55287 L 392.82206 272.47532 L 393 275 L 393 307 L 425 307 L 427.98699 307.24957 L 430.89115 307.99134 L 433.63195 309.20476 L 436.13339 310.85618 L 438.3261 312.8998 L 440.14929 315.27894 L 441.5524 317.92766 L 442.49652 320.77248 L 443 325 L 443 357 L 457 357 L 457 293 L 425 293 L 422.01301 292.75043 L 419.10885 292.00866 L 416.36805 290.79524 L 413.86661 289.14382 L 411.6739 287.1002 L 409.85071 284.72106 L 408.4476 282.07234 L 407.50348 279.22752 L 407.04454 276.26547 L 407.08349 273.26833 L 407.61926 270.31921 L 408.63699 267.49988 L 410.10845 264.88853 L 411.99286 262.55756 L 414.23794 260.57162 L 416.78146 258.98577 L 419.55287 257.84399 L 422.47532 257.17794 L 425 257 L 475 257 L 477.98699 257.24957 L 480.89115 257.99134 L 483.63195 259.20476 L 486.13339 260.85618 L 488.3261 262.8998 L 490.14929 265.27894 L 491.5524 267.92766 L 492.49652 270.77248 L 493 275 L 493 407 L 507 407 L 507 375 L 507.24957 372.01301 L 507.99134 369.10885 L 509.20476 366.36805 L 510.85618 363.86661 L 512.8998 361.6739 L 515.27894 359.85071 L 517.92766 358.4476 L 520.77248 357.50348 L 523.73453 357.04454 L 526.73167 357.08349 L 529.68079 357.61926 L 532.50012 358.63699 L 535.11147 360.10845 L 537.44244 361.99286 L 539.42838 364.23794 L 541.01423 366.78146 L 542.15601 369.55287 L 542.82206 372.47532 L 543 375 L 543 457 L 557 457 L 557 343 L 525 343 L 522.01301 342.75043 L 519.10885 342.00866 L 516.36805 340.79524 L 513.86661 339.14382 L 511.6739 337.1002 L 509.85071 334.72106 L 508.4476 332.07234 L 507.50348 329.22752 L 507 325 L 507 275 L 507.24957 272.01301 L 507.99134 269.10885 L 509.20476 266.36805 L 510.85618 263.86661 L 512.8998 261.6739 L 515.27894 259.85071 L 517.92766 258.4476 L 520.77248 257.50348 L 523.73453 257.04454 L 526.73167 257.08349 L 529.68079 257.61926 L 532.50012 258.63699 L 535.11147 260.10845 L 537.44244 261.99286 L 539.42838 264.23794 L 541.01423 266.78146 L 542.15601 269.55287 L 542.82206 272.47532 L 543 275 L 543 307 L 557 307 L 557 275 L 557.24957 272.01301 L 557.99134 269.10885 L 559.20476 266.36805 L 560.85618 263.86661 L 562.8998 261.6739 L 565.27894 259.85071 L 567.92766 258.4476 L 570.77248 257.50348 L 573.73453 257.04454 L 576.73167 257.08349 L 579.68079 257.61926 L 582.50012 258.63699 L 585.11147 260.10845 L 587.44244 261.99286 L 589.42838 264.23794 L 591.01423 266.78146 L 592.15601 269.55287 L 592.82206 272.47532 L 593 275 L 593 357 L 607 357 L 607 275 L 607.24957 272.01301 L 607.99134 269.10885 L 609.20476 266.36805 L 610.85618 263.86661 L 612.8998 261.6739 L 615.27894 259.85071 L 617.92766 258.4476 L 620.77248 257.50348 L 623.73453 257.04454 L 626.73167 257.08349 L 629.68079 257.61926 L 632.50012 258.63699 L 635.11147 260.10845 L 637.44244 261.99286 L 639.42838 264.23794 L 641.01423 266.78146 L 642.15601 269.55287 L 642.82206 272.47532 L 643 275 L 643 375 L 642.75043 377.98699 L 642.00866 380.89115 L 640.79524 383.63195 L 639.14382 386.13339 L 637.1002 388.3261 L 634.72106 390.14929 L 632.07234 391.5524 L 629.22752 392.49652 L 625 393 L 593 393 L 593 407 L 625 407 L 627.98699 407.24957 L 630.89115 407.99134 L 633.63195 409.20476 L 636.13339 410.85618 L 638.3261 412.8998 L 640.14929 415.27894 L 641.5524 417.92766 L 642.49652 420.77248 L 642.95546 423.73453 L 642.91651 426.73167 L 642.38074 429.68079 L 641.36301 432.50012 L 639.89155 435.11147 L 638.00714 437.44244 L 635.76206 439.42838 L 633.21854 441.01423 L 630.44713 442.15601 L 627.52468 442.82206 L 625 443 L 593 443 L 593 457 L 625 457 L 627.98699 457.24957 L 630.89115 457.99134 L 633.63195 459.20476 L 636.13339 460.85618 L 638.3261 462.8998 L 640.14929 465.27894 L 641.5524 467.92766 L 642.49652 470.77248 L 642.95546 473.73453 L 642.91651 476.73167 L 642.38074 479.68079 L 641.36301 482.50012 L 639.89155 485.11147 L 638.00714 487.44244 L 635.76206 489.42838 L 633.21854 491.01423 L 630.44713 492.15601 L 627.52468 492.82206 L 625 493 L 543 493 L 543 507 L 625 507 L 625.86435 507.07222 L 626.73167 507.08349 L 627.35535 507.1968 L 627.98699 507.24957 L 628.82739 507.46422 L 629.68079 507.61926 L 630.27695 507.83446 L 630.89115 507.99134 L 631.68437 508.34252 L 632.50012 508.63699 L 633.05229 508.94813 L 633.63195 509.20476 L 634.35584 509.68266 L 635.11147 510.10845 L 635.60441 510.50695 L 636.13339 510.85618 L 636.76789 511.44754 L 637.44244 511.99286 L 637.86245 512.46767 L 638.3261 512.8998 L 638.85364 513.5882 L 639.42838 514.23794 L 639.76376 514.77584 L 640.14929 515.27894 L 640.55531 516.04541 L 641.01423 516.78146 L 641.25568 517.36754 L 641.5524 517.92766 L 641.82562 518.75092 L 642.15601 519.55287 L 642.29685 520.17083 L 642.49652 520.77248 L 642.62934 521.62972 L 642.82206 522.47532 L 642.87355 523.20587 L 642.95546 523.73453 L 642.94851 524.26942 L 643 525 L 643 625 L 642.75043 627.98699 L 642.00866 630.89115 L 640.79524 633.63195 L 639.14382 636.13339 L 637.1002 638.3261 L 634.72106 640.14929 L 632.07234 641.5524 L 629.22752 642.49652 L 626.26547 642.95546 L 623.26833 642.91651 L 620.31921 642.38074 L 617.49988 641.36301 L 614.88853 639.89155 L 612.55756 638.00714 L 610.57162 635.76206 L 608.98577 633.21854 L 607.84399 630.44713 L 607.17794 627.52468 L 607 625 L 607 543 L 593 543 L 593 625 L 592.75043 627.98699 L 592.00866 630.89115 L 590.79524 633.63195 L 589.14382 636.13339 L 587.1002 638.3261 L 584.72106 640.14929 L 582.07234 641.5524 L 579.22752 642.49652 L 576.26547 642.95546 L 573.26833 642.91651 L 570.31921 642.38074 L 567.49988 641.36301 L 564.88853 639.89155 L 562.55756 638.00714 L 560.57162 635.76206 L 558.98577 633.21854 L 557.84399 630.44713 L 557.17794 627.52468 L 557 625 L 557 593 L 475 593 L 472.01301 592.75043 L 469.10885 592.00866 L 466.36805 590.79524 L 463.86661 589.14382 L 461.6739 587.1002 L 459.85071 584.72106 L 458.4476 582.07234 L 457.50348 579.22752 L 457.04454 576.26547 L 457.08349 573.26833 L 457.61926 570.31921 L 458.63699 567.49988 L 460.10845 564.88853 L 461.99286 562.55756 L 464.23794 560.57162 L 466.78146 558.98577 L 469.55287 557.84399 L 472.47532 557.17794 L 475 557 L 557 557 L 557 543 L 443 543 L 443 607 L 525 607 L 527.98699 607.24957 L 530.89115 607.99134 L 533.63195 609.20476 L 536.13339 610.85618 L 538.3261 612.8998 L 540.14929 615.27894 L 541.5524 617.92766 L 542.49652 620.77248 L 542.95546 623.73453 L 542.91651 626.73167 L 542.38074 629.68079 L 541.36301 632.50012 L 539.89155 635.11147 L 538.00714 637.44244 L 535.76206 639.42838 L 533.21854 641.01423 L 530.44713 642.15601 L 527.52468 642.82206 L 525 643 L 425 643 L 422.01301 642.75043 L 419.10885 642.00866 L 416.36805 640.79524 L 413.86661 639.14382 L 411.6739 637.1002 L 409.85071 634.72106 L 408.4476 632.07234 L 407.50348 629.22752 L 407 625 L 407 593 L 343 593 L 343 607 L 375 607 L 377.98699 607.24957 L 380.89115 607.99134 L 383.63195 609.20476 L 386.13339 610.85618 L 388.3261 612.8998 L 390.14929 615.27894 L 391.5524 617.92766 L 392.49652 620.77248 L 392.95546 623.73453 L 392.91651 626.73167 L 392.38074 629.68079 L 391.36301 632.50012 L 389.89155 635.11147 L 388.00714 637.44244 L 385.76206 639.42838 L 383.21854 641.01423 L 380.44713 642.15601 L 377.52468 642.82206 L 375 643 L 275 643 L 272.01301 642.75043 L 269.10885 642.00866 L 266.36805 640.79524 L 263.86661 639.14382 L 261.6739 637.1002 L 259.85071 634.72106 L 258.4476 632.07234 L 257.50348 629.22752 L 257.04454 626.26547 L 257.08349 623.26833 L 257.61926 620.31921 L 258.63699 617.49988 L 260.10845 614.88853 L 261.99286 612.55756 L 264.23794 610.57162 L 266.78146 608.98577 L 269.55287 607.84399 L 272.47532 607.17794 L 275 607 L 307 607 L 307 593 L 275 593 L 272.01301 592.75043 L 269.10885 592.00866 L 266.36805 590.79524 L 263.86661 589.14382 L 261.6739 587.1002 L 259.85071 584.72106 L 258.4476 582.07234 L 257.50348 579.22752 L 257.04454 576.26547 L 257.08349 573.26833 L 257.61926 570.31921 L 258.63699 567.49988 L 260.10845 564.88853 L 261.99286 562.55756 L 264.23794 560.57162 L 266.78146 558.98577 L 269.55287 557.84399 L 272.47532 557.17794 L 275 557 L 357 557 L 357 525 L 357.24957 522.01301 L 357.99134 519.10885 L 359.20476 516.36805 L 360.85618 513.86661 L 362.8998 511.6739 L 365.27894 509.85071 L 367.92766 508.4476 L 370.77248 507.50348 L 373.73453 507.04454 L 376.73167 507.08349 L 379.68079 507.61926 L 382.50012 508.63699 L 385.11147 510.10845 L 387.44244 511.99286 L 389.42838 514.23794 L 391.01423 516.78146 L 392.15601 519.55287 L 392.82206 522.47532 L 393 525 L 393 557 L 407 557 L 407 525 L 407.24957 522.01301 L 407.99134 519.10885 L 409.20476 516.36805 L 410.85618 513.86661 L 412.8998 511.6739 L 415.27894 509.85071 L 417.92766 508.4476 L 420.77248 507.50348 L 425 507 L 457 507 L 457 493 L 343 493 L 343 525 L 342.92778 525.86435 L 342.91651 526.73167 L 342.8032 527.35535 L 342.75043 527.98699 L 342.53578 528.82739 L 342.38074 529.68079 L 342.16554 530.27695 L 342.00866 530.89115 L 341.65748 531.68437 L 341.36301 532.50012 L 341.05187 533.05229 L 340.79524 533.63195 L 340.31734 534.35584 L 339.89155 535.11147 L 339.49305 535.60441 L 339.14382 536.13339 L 338.55246 536.76789 L 338.00714 537.44244 L 337.53233 537.86245 L 337.1002 538.3261 L 336.4118 538.85364 L 335.76206 539.42838 L 335.22416 539.76376 L 334.72106 540.14929 L 333.95459 540.55531 L 333.21854 541.01423 L 332.63246 541.25568 L 332.07234 541.5524 L 331.24908 541.82562 L 330.44713 542.15601 L 329.82917 542.29685 L 329.22752 542.49652 L 328.37028 542.62934 L 327.52468 542.82206 L 326.79413 542.87355 L 326.26547 542.95546 L 325.73058 542.94851 L 325 543 L 275 543 L 272.01301 542.75043 L 269.10885 542.00866 L 266.36805 540.79524 L 263.86661 539.14382 L 261.6739 537.1002 L 259.85071 534.72106 L 258.4476 532.07234 L 257.50348 529.22752 L 257 525 L 257 475 L 257.24957 472.01301 L 257.99134 469.10885 L 259.20476 466.36805 L 260.85618 463.86661 L 262.8998 461.6739 L 265.27894 459.85071 L 267.92766 458.4476 L 270.77248 457.50348 L 273.73453 457.04454 L 276.73167 457.08349 L 279.68079 457.61926 L 282.50012 458.63699 L 285.11147 460.10845 L 287.44244 461.99286 L 289.42838 464.23794 L 291.01423 466.78146 L 292.15601 469.55287 L 292.82206 472.47532 L 293 475 L 293 507 L 307 507 L 307 443 L 275 443 L 272.01301 442.75043 L 269.10885 442.00866 L 266.36805 440.79524 L 263.86661 439.14382 L 261.6739 437.1002 L 259.85071 434.72106 L 258.4476 432.07234 L 257.50348 429.22752 L 257 425 L 257 375 L 257.24957 372.01301 L 257.99134 369.10885 L 259.20476 366.36805 L 260.85618 363.86661 L 262.8998 361.6739 L 265.27894 359.85071 L 267.92766 358.4476 L 270.77248 357.50348 L 273.73453 357.04454 L 276.73167 357.08349 L 279.68079 357.61926 L 282.50012 358.63699 L 285.11147 360.10845 L 287.44244 361.99286 L 289.42838 364.23794 L 291.01423 366.78146 L 292.15601 369.55287 L 292.82206 372.47532 L 293 375 L 293 407 L 307 407 L 307 375 L 307.24957 372.01301 L 307.99134 369.10885 L 309.20476 366.36805 L 310.85618 363.86661 L 312.8998 361.6739 L 315.27894 359.85071 L 317.92766 358.4476 L 320.77248 357.50348 L 323.73453 357.04454 L 326.73167 357.08349 L 329.68079 357.61926 L 332.50012 358.63699 L 335.11147 360.10845 L 337.44244 361.99286 L 339.42838 364.23794 L 341.01423 366.78146 L 342.15601 369.55287 L 342.82206 372.47532 L 343 375 L 343 457 L 357 457 L 357 375 L 357.24957 372.01301 L 357.99134 369.10885 L 359.20476 366.36805 L 360.85618 363.86661 L 362.8998 361.6739 L 365.27894 359.85071 L 367.92766 358.4476 L 370.77248 357.50348 L 373.73453 357.04454 L 376.73167 357.08349 L 379.68079 357.61926 L 382.50012 358.63699 L 385.11147 360.10845 L 387.44244 361.99286 L 389.42838 364.23794 L 391.01423 366.78146 L 392.15601 369.55287 L 392.82206 372.47532 L 393 375 L 393 457 L 407 457 L 407 425 L 407.24957 422.01301 L 407.99134 419.10885 L 409.20476 416.36805 L 410.85618 413.86661 L 412.8998 411.6739 L 415.27894 409.85071 L 417.92766 408.4476 L 420.77248 407.50348 L 423.73453 407.04454 L 426.73167 407.08349 L 429.68079 407.61926 L 432.50012 408.63699 L 435.11147 410.10845 L 437.44244 411.99286 L 439.42838 414.23794 L 441.01423 416.78146 L 442.15601 419.55287 L 442.82206 422.47532 L 443 425 L 443 457 L 475 457 L 475.86435 457.07222 L 476.73167 457.08349 L 477.35535 457.1968 L 477.98699 457.24957 L 478.82739 457.46422 L 479.68079 457.61926 L 480.27695 457.83446 L 480.89115 457.99134 L 481.68437 458.34252 L 482.50012 458.63699 L 483.05229 458.94813 L 483.63195 459.20476 L 484.35584 459.68266 L 485.11147 460.10845 L 485.60441 460.50695 L 486.13339 460.85618 L 486.76789 461.44754 L 487.44244 461.99286 L 487.86245 462.46767 L 488.3261 462.8998 L 488.85364 463.5882 L 489.42838 464.23794 L 489.76376 464.77584 L 490.14929 465.27894 L 490.55531 466.04541 L 491.01423 466.78146 L 491.25568 467.36754 L 491.5524 467.92766 L 491.82562 468.75092 L 492.15601 469.55287 L 492.29685 470.17083 L 492.49652 470.77248 L 492.62934 471.62972 L 492.82206 472.47532 L 492.87355 473.20587 L 492.95546 473.73453 L 492.94851 474.26942 L 493 475 L 493 507 L 507 507 L 507 443 L 475 443 L 472.01301 442.75043 L 469.10885 442.00866 L 466.36805 440.79524 L 463.86661 439.14382 L 461.6739 437.1002 L 459.85071 434.72106 L 458.4476 432.07234 L 457.50348 429.22752 L 457 425 L 457 393 L 425 393 L 422.01301 392.75043 L 419.10885 392.00866 L 416.36805 390.79524 L 413.86661 389.14382 L 411.6739 387.1002 L 409.85071 384.72106 L 408.4476 382.07234 L 407.50348 379.22752 L 407 375 L 407 343 L 275 343 L 272.01301 342.75043 L 269.10885 342.00866 L 266.36805 340.79524 L 263.86661 339.14382 L 261.6739 337.1002 L 259.85071 334.72106 L 258.4476 332.07234 L 257.50348 329.22752 L 257 325 L 257 275 L 257.24957 272.01301 L 257.99134 269.10885 L 259.20476 266.36805 L 260.85618 263.86661 L 262.8998 261.6739 L 265.27894 259.85071 L 267.92766 258.4476 L 270.77248 257.50348 L 275 257 L 325 257 Z M 282 275 L 281.8654969628226 273.6343677458871 L 281.467156727579 272.3212159734444 L 280.82028728611783 271.11100836886277 L 279.9497474683058 270.0502525316942 L 278.88899163113723 269.17971271388217 L 277.6787840265556 268.532843272421 L 276.3656322541129 268.1345030371774 L 275 268 L 273.6343677458871 268.1345030371774 L 272.3212159734444 268.532843272421 L 271.11100836886277 269.17971271388217 L 270.0502525316942 270.0502525316942 L 269.17971271388217 271.11100836886277 L 268.532843272421 272.3212159734444 L 268.1345030371774 273.6343677458871 L 268 275 L 268.1345030371774 276.3656322541129 L 268.532843272421 277.6787840265556 L 269.17971271388217 278.88899163113723 L 270.0502525316942 279.9497474683058 L 271.11100836886277 280.82028728611783 L 272.3212159734444 281.467156727579 L 273.6343677458871 281.8654969628226 L 275 282 L 276.3656322541129 281.8654969628226 L 277.6787840265556 281.467156727579 L 278.88899163113723 280.82028728611783 L 279.9497474683058 279.9497474683058 L 280.82028728611783 278.88899163113723 L 281.467156727579 277.6787840265556 L 281.8654969628226 276.3656322541129 Z" stroke-miterlimit="10"/></g></svg>