<svg version="1.1" xmlns="http://www.w3.org/2000/svg" xmlns:xlink="http://www.w3.org/1999/xlink" width="900" height="1600"><defs/><g><path fill="#222222" stroke="#cccccc" paint-order="fill stroke markers" d=" M 520.2171 135.7759 L 520.2171 171.69696 L 543.32565 185.03869 L 574.4342 167.07816 L 613.54275 189.65749 L 613.54275 225.57855 L 644.65131 243.53908 L 644.65131 288.69774 L 605.54275 311.27707 L 574.4342 293.31654 L 551.32565 306.65827 L 551.32565 333.34173 L 574.4342 346.68346 L 605.54275 328.72293 L 644.65131 351.30226 L 644.65131 396.46092 L 613.54275 414.42145 L 613.54275 450.34251 L 574.4342 472.92184 L 543.32565 454.96131 L 520.2171 468.30304 L 520.2171 504.2241 L 481.10855 526.80343 L 450 508.8429 L 418.89145 526.80343 L 379.7829 504.2241 L 379.7829 459.06544 L 410.89145 441.10491 L 410.89145 414.42145 L 387.7829 401.07972 L 364.67435 414.42145 L 364.67435 450.34251 L 325.5658 472.92184 L 286.45725 450.34251 L 286.45725 414.42145 L 255.34869 396.46092 L 255.34869 351.30226 L 286.45725 333.34173 L 286.45725 306.65827 L 255.34869 288.69774 L 255.34869 243.53908 L 286.45725 225.57855 L 286.45725 189.65749 L 325.5658 167.07816 L 364.67435 189.65749 L 364.67435 225.57855 L 387.7829 238.92028 L 410.89145 225.57855 L 410.89145 198.89509 L 379.7829 180.93456 L 379.7829 135.7759 L 418.89145 113.19657 L 450 131.1571 L 481.10855 113.19657 Z M 395.7829 468.30304 L 395.7829 494.9865 L 418.89145 508.32823 L 442 494.9865 L 442 468.30304 L 418.89145 454.96131 Z M 512.2171 365.15866 L 481.10855 347.19813 L 458 360.53986 L 458 396.46092 L 426.89145 414.42145 L 426.89145 441.10491 L 458 459.06544 L 458 494.9865 L 481.10855 508.32823 L 504.2171 494.9865 L 504.2171 459.06544 L 543.32565 436.48611 L 574.4342 454.44664 L 597.54275 441.10491 L 597.54275 414.42145 L 566.4342 396.46092 L 566.4342 360.53986 L 543.32565 347.19813 Z M 302.45725 414.42145 L 302.45725 441.10491 L 325.5658 454.44664 L 348.67435 441.10491 L 348.67435 414.42145 L 325.5658 401.07972 Z M 325.5658 257.39548 L 294.45725 239.43495 L 271.34869 252.77668 L 271.34869 279.46014 L 302.45725 297.42067 L 302.45725 342.57933 L 271.34869 360.53986 L 271.34869 387.22332 L 294.45725 400.56505 L 321.5658 384.91392 L 322.14488 384.6701 L 322.6988 384.3735 L 323.06135 384.28422 L 323.40547 384.13933 L 324.02688 384.04646 L 324.63699 383.89622 L 325.01039 383.89948 L 325.37964 383.84429 L 326.00464 383.90814 L 326.63301 383.91362 L 326.99399 384.00922 L 327.36539 384.04716 L 327.95514 384.26375 L 328.56258 384.42462 L 329.07912 384.67655 L 329.23911 384.73531 L 329.3357 384.80169 L 329.5658 384.91392 L 356.67435 400.56505 L 379.7829 387.22332 L 379.7829 351.30226 L 410.89145 333.34173 L 410.89145 306.65827 L 383.7829 291.00714 L 383.28221 290.62755 L 382.74838 290.29614 L 382.48978 290.0268 L 382.19225 289.80123 L 381.80113 289.30953 L 381.36595 288.85626 L 381.18207 288.53126 L 380.94966 288.23908 L 380.69244 287.66585 L 380.38302 287.11896 L 380.28533 286.75859 L 380.13247 286.41793 L 380.02515 285.7988 L 379.86077 285.1924 L 379.82068 284.61918 L 379.79156 284.45117 L 379.80076 284.33429 L 379.7829 284.07894 L 379.7829 252.77668 L 356.67435 239.43495 Z M 395.7829 252.77668 L 395.7829 279.46014 L 426.89145 297.42067 L 426.89145 342.57933 L 395.7829 360.53986 L 395.7829 387.22332 L 418.89145 400.56505 L 442 387.22332 L 442 351.30226 L 481.10855 328.72293 L 512.2171 346.68346 L 535.32565 333.34173 L 535.32565 306.65827 L 512.2171 293.31654 L 481.10855 311.27707 L 442 288.69774 L 442 252.77668 L 418.89145 239.43495 Z M 582.4342 360.53986 L 582.4342 387.22332 L 605.54275 400.56505 L 628.65131 387.22332 L 628.65131 360.53986 L 605.54275 347.19813 Z M 458 145.0135 L 458 180.93456 L 426.89145 198.89509 L 426.89145 225.57855 L 458 243.53908 L 458 279.46014 L 481.10855 292.80187 L 512.2171 274.84134 L 543.32565 292.80187 L 566.4342 279.46014 L 566.4342 243.53908 L 597.54275 225.57855 L 597.54275 198.89509 L 574.4342 185.55336 L 543.32565 203.51389 L 504.2171 180.93456 L 504.2171 145.0135 L 481.10855 131.67177 Z M 582.4342 252.77668 L 582.4342 279.46014 L 605.54275 292.80187 L 628.65131 279.46014 L 628.65131 252.77668 L 605.54275 239.43495 Z M 302.45725 198.89509 L 302.45725 225.57855 L 325.5658 238.92028 L 348.67435 225.57855 L 348.67435 198.89509 L 325.5658 185.55336 Z M 395.7829 145.0135 L 395.7829 171.69696 L 418.89145 185.03869 L 442 171.69696 L 442 145.0135 L 418.89145 131.67177 Z" stroke-miterlimit="10"/><path fill="#222222" stroke="#cccccc" paint-order="fill stroke markers" d=" M 516.2171 138.0853 L 516.2171 174.00636 L 543.32565 189.65749 L 574.4342 171.69696 L 609.54275 191.96689 L 609.54275 227.88795 L 640.65131 245.84848 L 640.65131 286.38834 L 605.54275 306.65827 L 574.4342 288.69774 L 547.32565 304.34887 L 547.32565 335.65113 L 574.4342 351.30226 L 605.54275 333.34173 L 640.65131 353.61166 L 640.65131 394.15152 L 609.54275 412.11205 L 609.54275 448.03311 L 574.4342 468.30304 L 543.32565 450.34251 L 516.2171 465.99364 L 516.2171 501.9147 L 481.10855 522.18463 L 450 504.2241 L 418.89145 522.18463 L 383.7829 501.9147 L 383.7829 461.37484 L 414.89145 443.41431 L 414.89145 412.11205 L 387.7829 396.46092 L 360.67435 412.11205 L 360.67435 448.03311 L 325.5658 468.30304 L 290.45725 448.03311 L 290.45725 412.11205 L 259.34869 394.15152 L 259.34869 353.61166 L 290.45725 335.65113 L 290.45725 304.34887 L 259.34869 286.38834 L 259.34869 245.84848 L 290.45725 227.88795 L 290.45725 191.96689 L 325.5658 171.69696 L 360.67435 191.96689 L 360.67435 227.88795 L 387.7829 243.53908 L 414.89145 227.88795 L 414.89145 196.58569 L 383.7829 178.62516 L 383.7829 138.0853 L 418.89145 117.81537 L 450 135.7759 L 481.10855 117.81537 Z M 391.7829 465.99364 L 391.7829 497.2959 L 418.89145 512.94703 L 446 497.2959 L 446 465.99364 L 418.89145 450.34251 Z M 512.2171 360.53986 L 481.10855 342.57933 L 454 358.23046 L 454 394.15152 L 422.89145 412.11205 L 422.89145 443.41431 L 454 461.37484 L 454 497.2959 L 481.10855 512.94703 L 508.2171 497.2959 L 508.2171 461.37484 L 543.32565 441.10491 L 574.4342 459.06544 L 601.54275 443.41431 L 601.54275 412.11205 L 570.4342 394.15152 L 570.4342 358.23046 L 543.32565 342.57933 Z M 298.45725 412.11205 L 298.45725 443.41431 L 325.5658 459.06544 L 352.67435 443.41431 L 352.67435 412.11205 L 325.5658 396.46092 Z M 325.5658 252.77668 L 294.45725 234.81615 L 267.34869 250.46728 L 267.34869 281.76954 L 298.45725 299.73007 L 298.45725 340.26993 L 267.34869 358.23046 L 267.34869 389.53272 L 294.45725 405.18385 L 323.5658 388.37802 L 323.6224 388.35758 L 323.66954 388.32016 L 324.2833 388.11888 L 324.89071 387.8995 L 324.95089 387.89995 L 325.00808 387.88119 L 325.65365 387.90517 L 326.29935 387.90996 L 326.35563 387.93124 L 326.41579 387.93347 L 327.5658 388.37802 L 356.67435 405.18385 L 383.7829 389.53272 L 383.7829 353.61166 L 414.89145 335.65113 L 414.89145 304.34887 L 385.7829 287.54304 L 385.7369 287.50425 L 385.68092 287.48213 L 385.1997 287.05121 L 384.70603 286.63489 L 384.67633 286.58255 L 384.6315 286.54241 L 384.32961 285.97158 L 384.01077 285.40975 L 384.00105 285.35034 L 383.97292 285.29715 L 383.7829 284.07894 L 383.7829 250.46728 L 356.67435 234.81615 Z M 391.7829 250.46728 L 391.7829 281.76954 L 422.89145 299.73007 L 422.89145 340.26993 L 391.7829 358.23046 L 391.7829 389.53272 L 418.89145 405.18385 L 446 389.53272 L 446 353.61166 L 481.10855 333.34173 L 512.2171 351.30226 L 539.32565 335.65113 L 539.32565 304.34887 L 512.2171 288.69774 L 481.10855 306.65827 L 446 286.38834 L 446 250.46728 L 418.89145 234.81615 Z M 578.4342 358.23046 L 578.4342 389.53272 L 605.54275 405.18385 L 632.65131 389.53272 L 632.65131 358.23046 L 605.54275 342.57933 Z M 454 142.7041 L 454 178.62516 L 422.89145 196.58569 L 422.89145 227.88795 L 454 245.84848 L 454 281.76954 L 481.10855 297.42067 L 512.2171 279.46014 L 543.32565 297.42067 L 570.4342 281.76954 L 570.4342 245.84848 L 601.54275 227.88795 L 601.54275 196.58569 L 574.4342 180.93456 L 543.32565 198.89509 L 508.2171 178.62516 L 508.2171 142.7041 L 481.10855 127.05297 Z M 578.4342 250.46728 L 578.4342 281.76954 L 605.54275 297.42067 L 632.65131 281.76954 L 632.65131 250.46728 L 605.54275 234.81615 Z M 298.45725 196.58569 L 298.45725 227.88795 L 325.5658 243.53908 L 352.67435 227.88795 L 352.67435 196.58569 L 325.5658 180.93456 Z M 391.7829 142.7041 L 391.7829 174.00636 L 418.89145 189.65749 L 446 174.00636 L 446 142.7041 L 418.89145 127.05297 Z" stroke-miterlimit="10"/><path fill="none" stroke="0xFFFFFF" paint-order="fill stroke markers" d=" M 387.7828983161744 284.07893959464485 L 387.7828983161744 248.15787918928987 L 418.89144915808714 230.19734898661238 L 449.9999999999999 248.15787918928993 L 449.99999999999994 284.0789395946449 L 481.1085508419127 302.03946979732234 L 512.2171016838254 284.07893959464485 L 543.3256525257381 302.03946979732234 L 543.3256525257381 337.9605302026773 L 512.2171016838254 355.9210604053548 L 481.10855084191263 337.96053020267743 L 449.99999999999994 355.9210604053549 L 449.99999999999994 391.84212081070984 L 418.8914491580872 409.80265101338733 L 387.7828983161744 391.84212081070984 L 387.78289831617445 355.92106040535504 L 418.8914491580872 337.9605302026775 L 418.89144915808714 302.03946979732234 L 387.7828983161744 284.07893959464485" stroke-miterlimit="10"/><path fill="none" stroke="0xFFFFFF" paint-order="fill stroke markers" d=" M 387.7828983161744 248.15787918928987 L 356.6743474742616 230.19734898661238 L 325.5657966323489 248.15787918928987 L 294.4572457904361 230.19734898661238 L 294.4572457904361 194.2762885812574 L 325.5657966323489 176.31575837857994 L 356.6743474742616 194.2762885812574 L 356.6743474742616 230.19734898661238" stroke-miterlimit="10"/><path fill="none" stroke="0xFFFFFF" paint-order="fill stroke markers" d=" M 418.89144915808714 230.19734898661238 L 418.89144915808714 194.2762885812574 L 387.7828983161743 176.31575837858 L 387.7828983161743 140.39469797322505 L 418.891449158087 122.43416777054756 L 449.9999999999998 140.394697973225 L 481.1085508419127 122.43416777054753 L 512.2171016838254 140.394697973225 L 512.2171016838254 176.31575837857997 L 543.3256525257381 194.27628858125746 L 574.4342033676509 176.31575837857997 L 605.5427542095636 194.27628858125746 L 605.5427542095636 230.1973489866124 L 636.6513050514765 248.15787918928982 L 636.6513050514765 284.0789395946448 L 605.5427542095638 302.03946979732234 L 574.434203367651 284.07893959464485 L 543.3256525257381 302.0394697973224" stroke-miterlimit="10"/><path fill="none" stroke="0xFFFFFF" paint-order="fill stroke markers" d=" M 418.89144915808714 194.2762885812574 L 449.9999999999999 176.31575837857997 L 449.99999999999994 140.394697973225" stroke-miterlimit="10"/><path fill="none" stroke="0xFFFFFF" paint-order="fill stroke markers" d=" M 605.5427542095636 230.1973489866124 L 574.4342033676509 248.15787918928993 L 574.4342033676509 284.0789395946449" stroke-miterlimit="10"/><path fill="none" stroke="0xFFFFFF" paint-order="fill stroke markers" d=" M 543.3256525257381 337.9605302026773 L 574.4342033676509 355.9210604053548 L 605.5427542095636 337.9605302026773 L 636.6513050514764 355.9210604053548 L 636.6513050514764 391.8421208107098 L 605.5427542095636 409.8026510133873 L 605.5427542095639 445.72371141874214 L 574.4342033676511 463.6842416214197 L 543.3256525257384 445.72371141874225 L 512.2171016838256 463.6842416214198 L 512.2171016838256 499.6053020267748 L 481.108550841913 517.5658322294523 L 450.0000000000001 499.60530202677484 L 418.8914491580872 517.5658322294522 L 387.78289831617445 499.6053020267748 L 387.7828983161744 463.6842416214198 L 418.89144915808714 445.7237114187423 L 449.9999999999999 463.6842416214198 L 449.99999999999994 499.6053020267748" stroke-miterlimit="10"/><path fill="none" stroke="0xFFFFFF" paint-order="fill stroke markers" d=" M 605.5427542095636 409.8026510133873 L 574.4342033676509 391.8421208107098 L 574.4342033676509 355.9210604053548" stroke-miterlimit="10"/><path fill="none" stroke="0xFFFFFF" paint-order="fill stroke markers" d=" M 418.8914491580872 409.80265101338733 L 418.8914491580872 445.7237114187423" stroke-miterlimit="10"/><path fill="none" stroke="0xFFFFFF" paint-order="fill stroke markers" d=" M 387.7828983161744 391.84212081070984 L 356.6743474742616 409.80265101338733 L 356.6743474742618 445.7237114187425 L 325.56579663234913 463.68424162142003 L 294.45724579043633 445.7237114187425 L 294.4572457904363 409.80265101338756 L 263.3486949485234 391.84212081070984 L 263.3486949485234 355.9210604053549 L 294.4572457904361 337.96053020267743 L 294.4572457904361 302.03946979732245 L 263.3486949485234 284.07893959464496 L 263.3486949485234 248.15787918928999 L 294.4572457904361 230.19734898661252" stroke-miterlimit="10"/><path fill="none" stroke="0xFFFFFF" paint-order="fill stroke markers" d=" M 356.6743474742616 409.80265101338733 L 325.5657966323489 391.84212081070984" stroke-miterlimit="10"/><path fill="none" stroke="0xFFFFFF" paint-order="fill stroke markers" d=" M 325.5657966323489 391.84212081070984 L 294.4572457904361 409.80265101338733" stroke-miterlimit="10"/><path fill="#222222" stroke="#cccccc" paint-order="fill stroke markers" d=" M 600.3737 630.98221 L 600.3737 663.86201 L 628.84844 680.30191 L 628.84844 722.41931 L 600.3737 738.85921 L 600.3737 771.739 L 571.89896 788.1789 L 571.89896 811.8211 L 600.3737 828.261 L 600.3737 861.14079 L 628.84844 877.58069 L 628.84844 919.69809 L 600.3737 936.13799 L 600.3737 969.01779 L 563.89896 990.07649 L 535.42422 973.63659 L 506.94948 990.07649 L 470.47474 969.01779 L 470.47474 936.13799 L 442 919.69809 L 442 886.81829 L 421.52526 874.99719 L 393.05052 891.43709 L 364.57578 874.99719 L 336.10104 891.43709 L 299.6263 870.37839 L 299.6263 837.4986 L 271.15156 821.0587 L 271.15156 778.9413 L 299.6263 762.5014 L 299.6263 729.62161 L 336.10104 708.56291 L 364.57578 725.00281 L 393.05052 708.56291 L 421.52526 725.00281 L 442 713.18171 L 442 680.30191 L 470.47474 663.86201 L 470.47474 630.98221 L 506.94948 609.92351 L 535.42422 626.36341 L 563.89896 609.92351 Z M 543.42422 837.4986 L 543.42422 870.37839 L 506.94948 891.43709 L 478.47474 874.99719 L 458 886.81829 L 458 910.46049 L 486.47474 926.90039 L 486.47474 959.78019 L 506.94948 971.60129 L 527.42422 959.78019 L 527.42422 926.90039 L 563.89896 905.84169 L 592.3737 922.28159 L 612.84844 910.46049 L 612.84844 886.81829 L 584.3737 870.37839 L 584.3737 837.4986 L 563.89896 825.6775 Z M 543.42422 936.13799 L 543.42422 959.78019 L 563.89896 971.60129 L 584.3737 959.78019 L 584.3737 936.13799 L 563.89896 924.31689 Z M 364.57578 743.47801 L 336.10104 727.03811 L 315.6263 738.85921 L 315.6263 762.5014 L 344.10104 778.9413 L 344.10104 821.0587 L 315.6263 837.4986 L 315.6263 861.14079 L 336.10104 872.96189 L 364.57578 856.52199 L 393.05052 872.96189 L 413.52526 861.14079 L 413.52526 837.4986 L 385.05052 821.0587 L 385.05052 778.9413 L 413.52526 762.5014 L 413.52526 738.85921 L 393.05052 727.03811 Z M 429.52526 837.4986 L 429.52526 861.14079 L 450 872.96189 L 470.47474 861.14079 L 470.47474 837.4986 L 450 825.6775 Z M 486.47474 837.4986 L 486.47474 861.14079 L 506.94948 872.96189 L 527.42422 861.14079 L 527.42422 837.4986 L 506.94948 825.6775 Z M 287.15156 788.1789 L 287.15156 811.8211 L 307.6263 823.6422 L 328.10104 811.8211 L 328.10104 788.1789 L 307.6263 776.3578 Z M 401.05052 788.1789 L 401.05052 811.8211 L 421.52526 823.6422 L 442 811.8211 L 442 788.1789 L 421.52526 776.3578 Z M 458 788.1789 L 458 811.8211 L 478.47474 823.6422 L 498.94948 811.8211 L 498.94948 788.1789 L 478.47474 776.3578 Z M 514.94948 788.1789 L 514.94948 811.8211 L 535.42422 823.6422 L 555.89896 811.8211 L 555.89896 788.1789 L 535.42422 776.3578 Z M 429.52526 738.85921 L 429.52526 762.5014 L 450 774.3225 L 470.47474 762.5014 L 470.47474 738.85921 L 450 727.03811 Z M 486.47474 738.85921 L 486.47474 762.5014 L 506.94948 774.3225 L 527.42422 762.5014 L 527.42422 738.85921 L 506.94948 727.03811 Z M 486.47474 640.21981 L 486.47474 673.09961 L 458 689.53951 L 458 713.18171 L 478.47474 725.00281 L 506.94948 708.56291 L 543.42422 729.62161 L 543.42422 762.5014 L 563.89896 774.3225 L 584.3737 762.5014 L 584.3737 729.62161 L 612.84844 713.18171 L 612.84844 689.53951 L 592.3737 677.71841 L 563.89896 694.15831 L 527.42422 673.09961 L 527.42422 640.21981 L 506.94948 628.39871 Z M 543.42422 640.21981 L 543.42422 663.86201 L 563.89896 675.68311 L 584.3737 663.86201 L 584.3737 640.21981 L 563.89896 628.39871 Z" stroke-miterlimit="10"/><path fill="#222222" stroke="#cccccc" paint-order="fill stroke markers" d=" M 596.3737 633.29161 L 596.3737 666.17141 L 624.84844 682.61131 L 624.84844 720.10991 L 596.3737 736.54981 L 596.3737 769.4296 L 567.89896 785.8695 L 567.89896 814.1305 L 596.3737 830.5704 L 596.3737 863.45019 L 624.84844 879.89009 L 624.84844 917.38869 L 596.3737 933.82859 L 596.3737 966.70839 L 563.89896 985.45769 L 535.42422 969.01779 L 506.94948 985.45769 L 474.47474 966.70839 L 474.47474 933.82859 L 446 917.38869 L 446 884.50889 L 421.52526 870.37839 L 393.05052 886.81829 L 364.57578 870.37839 L 336.10104 886.81829 L 303.6263 868.06899 L 303.6263 835.1892 L 275.15156 818.7493 L 275.15156 781.2507 L 303.6263 764.8108 L 303.6263 731.93101 L 336.10104 713.18171 L 364.57578 729.62161 L 393.05052 713.18171 L 421.52526 729.62161 L 446 715.49111 L 446 682.61131 L 474.47474 666.17141 L 474.47474 633.29161 L 506.94948 614.54231 L 535.42422 630.98221 L 563.89896 614.54231 Z M 539.42422 835.1892 L 539.42422 868.06899 L 506.94948 886.81829 L 478.47474 870.37839 L 454 884.50889 L 454 912.76989 L 482.47474 929.20979 L 482.47474 962.08959 L 506.94948 976.22009 L 531.42422 962.08959 L 531.42422 929.20979 L 563.89896 910.46049 L 592.3737 926.90039 L 616.84844 912.76989 L 616.84844 884.50889 L 588.3737 868.06899 L 588.3737 835.1892 L 563.89896 821.0587 Z M 539.42422 933.82859 L 539.42422 962.08959 L 563.89896 976.22009 L 588.3737 962.08959 L 588.3737 933.82859 L 563.89896 919.69809 Z M 364.57578 738.85921 L 336.10104 722.41931 L 311.6263 736.54981 L 311.6263 764.8108 L 340.10104 781.2507 L 340.10104 818.7493 L 311.6263 835.1892 L 311.6263 863.45019 L 336.10104 877.58069 L 364.57578 861.14079 L 393.05052 877.58069 L 417.52526 863.45019 L 417.52526 835.1892 L 389.05052 818.7493 L 389.05052 781.2507 L 417.52526 764.8108 L 417.52526 736.54981 L 393.05052 722.41931 Z M 425.52526 835.1892 L 425.52526 863.45019 L 450 877.58069 L 474.47474 863.45019 L 474.47474 835.1892 L 450 821.0587 Z M 482.47474 835.1892 L 482.47474 863.45019 L 506.94948 877.58069 L 531.42422 863.45019 L 531.42422 835.1892 L 506.94948 821.0587 Z M 283.15156 785.8695 L 283.15156 814.1305 L 307.6263 828.261 L 332.10104 814.1305 L 332.10104 785.8695 L 307.6263 771.739 Z M 397.05052 785.8695 L 397.05052 814.1305 L 421.52526 828.261 L 446 814.1305 L 446 785.8695 L 421.52526 771.739 Z M 454 785.8695 L 454 814.1305 L 478.47474 828.261 L 502.94948 814.1305 L 502.94948 785.8695 L 478.47474 771.739 Z M 510.94948 785.8695 L 510.94948 814.1305 L 535.42422 828.261 L 559.89896 814.1305 L 559.89896 785.8695 L 535.42422 771.739 Z M 425.52526 736.54981 L 425.52526 764.8108 L 450 778.9413 L 474.47474 764.8108 L 474.47474 736.54981 L 450 722.41931 Z M 482.47474 736.54981 L 482.47474 764.8108 L 506.94948 778.9413 L 531.42422 764.8108 L 531.42422 736.54981 L 506.94948 722.41931 Z M 482.47474 637.91041 L 482.47474 670.79021 L 454 687.23011 L 454 715.49111 L 478.47474 729.62161 L 506.94948 713.18171 L 539.42422 731.93101 L 539.42422 764.8108 L 563.89896 778.9413 L 588.3737 764.8108 L 588.3737 731.93101 L 616.84844 715.49111 L 616.84844 687.23011 L 592.3737 673.09961 L 563.89896 689.53951 L 531.42422 670.79021 L 531.42422 637.91041 L 506.94948 623.77991 Z M 539.42422 637.91041 L 539.42422 666.17141 L 563.89896 680.30191 L 588.3737 666.17141 L 588.3737 637.91041 L 563.89896 623.77991 Z" stroke-miterlimit="10"/><path fill="none" stroke="0xFFFFFF" paint-order="fill stroke markers" d=" M 592.3736993628746 931.5191898442857 L 592.3736993628747 964.3989873053572 L 563.8989594902998 980.838886035893 L 535.4242196177249 964.3989873053572 L 535.4242196177247 931.5191898442857 L 563.8989594902998 915.0792911137501 L 592.3736993628746 931.5191898442857 L 620.8484392354496 915.07929111375 L 620.8484392354496 882.1994936526785 L 592.3736993628746 865.7595949221427 L 592.3736993628746 832.8797974610713 L 563.8989594902996 816.4398987305357 L 563.8989594902996 783.5601012694643 L 535.4242196177246 767.1202025389285 L 506.9494797451497 783.5601012694643 L 506.9494797451497 816.4398987305357 L 478.4747398725748 832.8797974610715 L 449.9999999999998 816.4398987305357 L 421.5252601274249 832.8797974610716 L 393.05052025484986 816.4398987305358 L 393.05052025484986 783.5601012694643 L 421.5252601274248 767.1202025389285 L 449.9999999999998 783.5601012694643 L 478.47473987257473 767.1202025389285 L 478.4747398725747 734.2404050778571 L 506.9494797451497 717.8005063473214 L 535.4242196177246 734.2404050778571 L 535.4242196177246 767.1202025389285" stroke-miterlimit="10"/><path fill="none" stroke="0xFFFFFF" paint-order="fill stroke markers" d=" M 478.47473987257473 767.1202025389285 L 506.9494797451497 783.5601012694643" stroke-miterlimit="10"/><path fill="none" stroke="0xFFFFFF" paint-order="fill stroke markers" d=" M 506.9494797451497 816.4398987305357 L 535.4242196177246 832.8797974610715 L 535.4242196177246 865.7595949221429 L 506.9494797451497 882.1994936526786 L 478.47473987257473 865.7595949221429 L 478.47473987257473 832.8797974610715" stroke-miterlimit="10"/><path fill="none" stroke="0xFFFFFF" paint-order="fill stroke markers" d=" M 535.4242196177246 832.8797974610715 L 563.8989594902996 816.4398987305357" stroke-miterlimit="10"/><path fill="none" stroke="0xFFFFFF" paint-order="fill stroke markers" d=" M 563.8989594902996 783.5601012694643 L 592.3736993628745 767.1202025389285 L 592.3736993628745 734.2404050778571 L 620.8484392354495 717.8005063473214 L 620.8484392354495 684.9207088862499 L 592.3736993628745 668.4808101557143 L 563.8989594902996 684.9207088862499 L 535.4242196177246 668.4808101557143 L 535.4242196177246 635.6010126946428 L 506.9494797451497 619.161113964107 L 478.47473987257473 635.6010126946428 L 478.47473987257473 668.4808101557143 L 449.9999999999998 684.9207088862499 L 449.9999999999998 717.8005063473214 L 421.5252601274248 734.2404050778571 L 393.0505202548498 717.8005063473214 L 364.5757803822749 734.2404050778571 L 336.10104050969994 717.8005063473215 L 307.626300637125 734.2404050778573 L 307.626300637125 767.1202025389287 L 336.10104050969994 783.5601012694644 L 336.10104050969994 816.4398987305358 L 307.626300637125 832.8797974610716 L 307.626300637125 865.759594922143 L 336.10104050969994 882.1994936526787 L 364.5757803822749 865.759594922143 L 393.0505202548499 882.1994936526786 L 421.5252601274248 865.7595949221429 L 449.99999999999983 882.1994936526786 L 449.9999999999999 915.0792911137502 L 478.47473987257484 931.5191898442857 L 478.4747398725749 964.3989873053572 L 506.94947974514986 980.838886035893 L 535.4242196177247 964.3989873053572" stroke-miterlimit="10"/><path fill="none" stroke="0xFFFFFF" paint-order="fill stroke markers" d=" M 535.4242196177246 635.6010126946428 L 563.8989594902996 619.161113964107 L 592.3736993628745 635.6010126946428 L 592.3736993628745 668.4808101557143" stroke-miterlimit="10"/><path fill="none" stroke="0xFFFFFF" paint-order="fill stroke markers" d=" M 421.5252601274248 734.2404050778571 L 421.5252601274248 767.1202025389285" stroke-miterlimit="10"/><path fill="none" stroke="0xFFFFFF" paint-order="fill stroke markers" d=" M 449.9999999999998 816.4398987305357 L 449.9999999999998 783.5601012694643" stroke-miterlimit="10"/><path fill="none" stroke="0xFFFFFF" paint-order="fill stroke markers" d=" M 478.4747398725747 734.2404050778571 L 449.9999999999997 717.8005063473214" stroke-miterlimit="10"/><path fill="none" stroke="0xFFFFFF" paint-order="fill stroke markers" d=" M 307.626300637125 832.8797974610716 L 279.15156076455 816.4398987305358 L 279.1515607645499 783.5601012694644 L 307.6263006371249 767.1202025389287" stroke-miterlimit="10"/><path fill="none" stroke="0xFFFFFF" paint-order="fill stroke markers" d=" M 449.99999999999983 882.1994936526786 L 478.47473987257473 865.7595949221429" stroke-miterlimit="10"/><path fill="none" stroke="0xFFFFFF" paint-order="fill stroke markers" d=" M 421.5252601274249 832.8797974610716 L 421.52526012742493 865.759594922143" stroke-miterlimit="10"/><path fill="#222222" stroke="#cccccc" paint-order="fill stroke markers" d=" M 429.52526 1110.98221 L 429.52526 1143.86201 L 458 1160.30191 L 458 1193.18171 L 478.47474 1205.00281 L 506.94948 1188.56291 L 535.42422 1205.00281 L 563.89896 1188.56291 L 600.3737 1209.62161 L 600.3737 1242.5014 L 628.84844 1258.9413 L 628.84844 1301.0587 L 600.3737 1317.4986 L 600.3737 1350.37839 L 563.89896 1371.43709 L 535.42422 1354.99719 L 506.94948 1371.43709 L 478.47474 1354.99719 L 458 1366.81829 L 458 1399.69809 L 429.52526 1416.13799 L 429.52526 1449.01779 L 393.05052 1470.07649 L 364.57578 1453.63659 L 336.10104 1470.07649 L 299.6263 1449.01779 L 299.6263 1416.13799 L 271.15156 1399.69809 L 271.15156 1357.58069 L 299.6263 1341.14079 L 299.6263 1308.261 L 328.10104 1291.8211 L 328.10104 1268.1789 L 299.6263 1251.739 L 299.6263 1218.85921 L 271.15156 1202.41931 L 271.15156 1160.30191 L 299.6263 1143.86201 L 299.6263 1110.98221 L 336.10104 1089.92351 L 364.57578 1106.36341 L 393.05052 1089.92351 Z M 287.15156 1366.81829 L 287.15156 1390.46049 L 315.6263 1406.90039 L 315.6263 1439.78019 L 336.10104 1451.60129 L 364.57578 1435.16139 L 393.05052 1451.60129 L 413.52526 1439.78019 L 413.52526 1416.13799 L 393.05052 1404.31689 L 364.57578 1420.75679 L 328.10104 1399.69809 L 328.10104 1366.81829 L 307.6263 1354.99719 Z M 344.10104 1366.81829 L 344.10104 1390.46049 L 364.57578 1402.28159 L 385.05052 1390.46049 L 385.05052 1366.81829 L 364.57578 1354.99719 Z M 401.05052 1366.81829 L 401.05052 1390.46049 L 421.52526 1402.28159 L 442 1390.46049 L 442 1366.81829 L 421.52526 1354.99719 Z M 315.6263 1317.4986 L 315.6263 1341.14079 L 336.10104 1352.96189 L 356.57578 1341.14079 L 356.57578 1317.4986 L 336.10104 1305.6775 Z M 421.52526 1223.47801 L 393.05052 1207.03811 L 372.57578 1218.85921 L 372.57578 1251.739 L 344.10104 1268.1789 L 344.10104 1291.8211 L 368.57578 1305.9516 L 369.07647 1306.33119 L 369.6103 1306.6626 L 369.8689 1306.93194 L 370.16643 1307.15751 L 370.55755 1307.64921 L 370.99273 1308.10248 L 371.17661 1308.42748 L 371.40902 1308.71966 L 371.66624 1309.29289 L 371.97566 1309.83978 L 372.07335 1310.20015 L 372.22621 1310.54081 L 372.33353 1311.15994 L 372.49791 1311.76634 L 372.538 1312.33956 L 372.56712 1312.50757 L 372.55792 1312.62445 L 372.57578 1312.8798 L 372.57578 1341.14079 L 393.05052 1352.96189 L 421.52526 1336.52199 L 450 1352.96189 L 470.47474 1341.14079 L 470.47474 1308.261 L 498.94948 1291.8211 L 498.94948 1268.1789 L 470.47474 1251.739 L 470.47474 1218.85921 L 450 1207.03811 Z M 486.47474 1317.4986 L 486.47474 1341.14079 L 506.94948 1352.96189 L 527.42422 1341.14079 L 527.42422 1317.4986 L 506.94948 1305.6775 Z M 543.42422 1218.85921 L 543.42422 1242.5014 L 571.89896 1258.9413 L 571.89896 1301.0587 L 543.42422 1317.4986 L 543.42422 1341.14079 L 563.89896 1352.96189 L 584.3737 1341.14079 L 584.3737 1308.261 L 612.84844 1291.8211 L 612.84844 1268.1789 L 584.3737 1251.739 L 584.3737 1218.85921 L 563.89896 1207.03811 Z M 514.94948 1268.1789 L 514.94948 1291.8211 L 535.42422 1303.6422 L 555.89896 1291.8211 L 555.89896 1268.1789 L 535.42422 1256.3578 Z M 315.6263 1218.85921 L 315.6263 1242.5014 L 336.10104 1254.3225 L 356.57578 1242.5014 L 356.57578 1218.85921 L 336.10104 1207.03811 Z M 486.47474 1218.85921 L 486.47474 1242.5014 L 506.94948 1254.3225 L 527.42422 1242.5014 L 527.42422 1218.85921 L 506.94948 1207.03811 Z M 364.57578 1124.83861 L 336.10104 1108.39871 L 315.6263 1120.21981 L 315.6263 1153.09961 L 287.15156 1169.53951 L 287.15156 1193.18171 L 307.6263 1205.00281 L 328.10104 1193.18171 L 328.10104 1160.30191 L 364.57578 1139.24321 L 393.05052 1155.68311 L 413.52526 1143.86201 L 413.52526 1120.21981 L 393.05052 1108.39871 Z M 344.10104 1169.53951 L 344.10104 1193.18171 L 364.57578 1205.00281 L 385.05052 1193.18171 L 385.05052 1169.53951 L 364.57578 1157.71841 Z M 401.05052 1169.53951 L 401.05052 1193.18171 L 421.52526 1205.00281 L 442 1193.18171 L 442 1169.53951 L 421.52526 1157.71841 Z" stroke-miterlimit="10"/><path fill="#222222" stroke="#cccccc" paint-order="fill stroke markers" d=" M 425.52526 1113.29161 L 425.52526 1146.17141 L 454 1162.61131 L 454 1195.49111 L 478.47474 1209.62161 L 506.94948 1193.18171 L 535.42422 1209.62161 L 563.89896 1193.18171 L 596.3737 1211.93101 L 596.3737 1244.8108 L 624.84844 1261.2507 L 624.84844 1298.7493 L 596.3737 1315.1892 L 596.3737 1348.06899 L 563.89896 1366.81829 L 535.42422 1350.37839 L 506.94948 1366.81829 L 478.47474 1350.37839 L 454 1364.50889 L 454 1397.38869 L 425.52526 1413.82859 L 425.52526 1446.70839 L 393.05052 1465.45769 L 364.57578 1449.01779 L 336.10104 1465.45769 L 303.6263 1446.70839 L 303.6263 1413.82859 L 275.15156 1397.38869 L 275.15156 1359.89009 L 303.6263 1343.45019 L 303.6263 1310.5704 L 332.10104 1294.1305 L 332.10104 1265.8695 L 303.6263 1249.4296 L 303.6263 1216.54981 L 275.15156 1200.10991 L 275.15156 1162.61131 L 303.6263 1146.17141 L 303.6263 1113.29161 L 336.10104 1094.54231 L 364.57578 1110.98221 L 393.05052 1094.54231 Z M 283.15156 1364.50889 L 283.15156 1392.76989 L 311.6263 1409.20979 L 311.6263 1442.08959 L 336.10104 1456.22009 L 364.57578 1439.78019 L 393.05052 1456.22009 L 417.52526 1442.08959 L 417.52526 1413.82859 L 393.05052 1399.69809 L 364.57578 1416.13799 L 332.10104 1397.38869 L 332.10104 1364.50889 L 307.6263 1350.37839 Z M 340.10104 1364.50889 L 340.10104 1392.76989 L 364.57578 1406.90039 L 389.05052 1392.76989 L 389.05052 1364.50889 L 364.57578 1350.37839 Z M 397.05052 1364.50889 L 397.05052 1392.76989 L 421.52526 1406.90039 L 446 1392.76989 L 446 1364.50889 L 421.52526 1350.37839 Z M 311.6263 1315.1892 L 311.6263 1343.45019 L 336.10104 1357.58069 L 360.57578 1343.45019 L 360.57578 1315.1892 L 336.10104 1301.0587 Z M 421.52526 1218.85921 L 393.05052 1202.41931 L 368.57578 1216.54981 L 368.57578 1249.4296 L 340.10104 1265.8695 L 340.10104 1294.1305 L 366.57578 1309.4157 L 366.62178 1309.45449 L 366.67776 1309.47661 L 367.15898 1309.90753 L 367.65265 1310.32385 L 367.68235 1310.37619 L 367.72718 1310.41633 L 368.02907 1310.98716 L 368.34791 1311.54899 L 368.35763 1311.6084 L 368.38576 1311.66159 L 368.57578 1312.8798 L 368.57578 1343.45019 L 393.05052 1357.58069 L 421.52526 1341.14079 L 450 1357.58069 L 474.47474 1343.45019 L 474.47474 1310.5704 L 502.94948 1294.1305 L 502.94948 1265.8695 L 474.47474 1249.4296 L 474.47474 1216.54981 L 450 1202.41931 Z M 482.47474 1315.1892 L 482.47474 1343.45019 L 506.94948 1357.58069 L 531.42422 1343.45019 L 531.42422 1315.1892 L 506.94948 1301.0587 Z M 539.42422 1216.54981 L 539.42422 1244.8108 L 567.89896 1261.2507 L 567.89896 1298.7493 L 539.42422 1315.1892 L 539.42422 1343.45019 L 563.89896 1357.58069 L 588.3737 1343.45019 L 588.3737 1310.5704 L 616.84844 1294.1305 L 616.84844 1265.8695 L 588.3737 1249.4296 L 588.3737 1216.54981 L 563.89896 1202.41931 Z M 510.94948 1265.8695 L 510.94948 1294.1305 L 535.42422 1308.261 L 559.89896 1294.1305 L 559.89896 1265.8695 L 535.42422 1251.739 Z M 311.6263 1216.54981 L 311.6263 1244.8108 L 336.10104 1258.9413 L 360.57578 1244.8108 L 360.57578 1216.54981 L 336.10104 1202.41931 Z M 482.47474 1216.54981 L 482.47474 1244.8108 L 506.94948 1258.9413 L 531.42422 1244.8108 L 531.42422 1216.54981 L 506.94948 1202.41931 Z M 364.57578 1120.21981 L 336.10104 1103.77991 L 311.6263 1117.91041 L 311.6263 1150.79021 L 283.15156 1167.23011 L 283.15156 1195.49111 L 307.6263 1209.62161 L 332.10104 1195.49111 L 332.10104 1162.61131 L 364.57578 1143.86201 L 393.05052 1160.30191 L 417.52526 1146.17141 L 417.52526 1117.91041 L 393.05052 1103.77991 Z M 340.10104 1167.23011 L 340.10104 1195.49111 L 364.57578 1209.62161 L 389.05052 1195.49111 L 389.05052 1167.23011 L 364.57578 1153.09961 Z M 397.05052 1167.23011 L 397.05052 1195.49111 L 421.52526 1209.62161 L 446 1195.49111 L 446 1167.23011 L 421.52526 1153.09961 Z" stroke-miterlimit="10"/><path fill="none" stroke="0xFFFFFF" paint-order="fill stroke markers" d=" M 336.10104050970017 1296.4398987305353 L 336.10104050970017 1263.5601012694638 L 307.62630063712515 1247.120202538928 L 307.62630063712515 1214.2404050778566 L 336.10104050970017 1197.8005063473208 L 336.10104050970017 1164.9207088862495 L 364.5757803822751 1148.4808101557137 L 393.0505202548501 1164.9207088862495 L 421.52526012742504 1148.4808101557137 L 421.52526012742493 1115.6010126946426 L 393.0505202548499 1099.1611139641068 L 364.57578038227496 1115.6010126946426 L 336.10104050969994 1099.1611139641068 L 307.62630063712504 1115.6010126946426 L 307.62630063712504 1148.480810155714 L 279.15156076455014 1164.92070888625 L 279.15156076455014 1197.8005063473213 L 307.62630063712515 1214.2404050778568" stroke-miterlimit="10"/><path fill="none" stroke="0xFFFFFF" paint-order="fill stroke markers" d=" M 393.0505202548501 1164.9207088862495 L 393.0505202548501 1197.8005063473208 L 364.5757803822751 1214.2404050778566 L 336.10104050970017 1197.800506347321" stroke-miterlimit="10"/><path fill="none" stroke="0xFFFFFF" paint-order="fill stroke markers" d=" M 364.5757803822751 1214.2404050778566 L 364.5757803822751 1247.120202538928 L 336.10104050970017 1263.5601012694638" stroke-miterlimit="10"/><path fill="none" stroke="0xFFFFFF" paint-order="fill stroke markers" d=" M 336.10104050970017 1296.4398987305353 L 307.62630063712515 1312.879797461071 L 307.62630063712515 1345.7595949221425 L 279.15156076455025 1362.199493652678 L 279.15156076455025 1395.0792911137496 L 307.62630063712515 1411.5191898442854 L 307.62630063712515 1444.3989873053567 L 336.10104050970017 1460.8388860358925 L 364.5757803822751 1444.3989873053567 L 393.0505202548501 1460.8388860358925 L 421.52526012742504 1444.3989873053567 L 421.52526012742504 1411.5191898442854 L 393.05052025485014 1395.0792911137498 L 364.5757803822752 1411.5191898442856 L 336.1010405097002 1395.0792911137498 L 336.1010405097002 1362.1994936526785 L 307.62630063712527 1345.759594922143" stroke-miterlimit="10"/><path fill="none" stroke="0xFFFFFF" paint-order="fill stroke markers" d=" M 421.52526012742504 1411.5191898442854 L 450 1395.0792911137496 L 450.00000000000006 1362.199493652678 L 478.474739872575 1345.7595949221425 L 478.474739872575 1312.879797461071 L 506.94947974515 1296.4398987305353 L 506.94947974515 1263.5601012694638 L 478.47473987257496 1247.1202025389282 L 478.47473987257496 1214.2404050778568 L 450 1197.8005063473208 L 421.52526012742504 1214.2404050778566 L 393.0505202548501 1197.800506347321" stroke-miterlimit="10"/><path fill="none" stroke="0xFFFFFF" paint-order="fill stroke markers" d=" M 506.94947974515 1263.5601012694638 L 535.424219617725 1247.120202538928 L 563.8989594902998 1263.5601012694638 L 563.8989594902998 1296.4398987305353 L 535.424219617725 1312.879797461071 L 506.94947974515 1296.4398987305353" stroke-miterlimit="10"/><path fill="none" stroke="0xFFFFFF" paint-order="fill stroke markers" d=" M 535.424219617725 1312.879797461071 L 535.424219617725 1345.7595949221425 L 563.8989594902998 1362.199493652678 L 592.3736993628748 1345.7595949221425 L 592.3736993628748 1312.879797461071 L 620.8484392354497 1296.4398987305353 L 620.8484392354497 1263.5601012694638 L 592.3736993628748 1247.120202538928 L 592.3736993628748 1214.2404050778566 L 563.8989594902998 1197.8005063473208 L 535.4242196177249 1214.2404050778566 L 535.4242196177249 1247.120202538928" stroke-miterlimit="10"/><path fill="none" stroke="0xFFFFFF" paint-order="fill stroke markers" d=" M 535.424219617725 1345.7595949221425 L 506.94947974515 1362.199493652678 L 478.474739872575 1345.7595949221425" stroke-miterlimit="10"/><path fill="none" stroke="0xFFFFFF" paint-order="fill stroke markers" d=" M 336.1010405097002 1362.1994936526785 L 364.5757803822752 1345.7595949221427 L 393.05052025485014 1362.1994936526785 L 393.0505202548502 1395.0792911137498" stroke-miterlimit="10"/><path fill="none" stroke="0xFFFFFF" paint-order="fill stroke markers" d=" M 393.05052025485014 1362.1994936526785 L 421.52526012742504 1345.7595949221425 L 450 1362.199493652678" stroke-miterlimit="10"/><path fill="none" stroke="0xFFFFFF" paint-order="fill stroke markers" d=" M 535.4242196177249 1214.2404050778566 L 506.9494797451499 1197.8005063473208 L 478.47473987257496 1214.2404050778566" stroke-miterlimit="10"/><path fill="none" stroke="0xFFFFFF" paint-order="fill stroke markers" d=" M 421.52526012742504 1148.4808101557137 L 450 1164.9207088862495 L 450 1197.8005063473208" stroke-miterlimit="10"/><path fill="none" stroke="0xFFFFFF" paint-order="fill stroke markers" d=" M 336.10104050970017 1296.4398987305356 L 364.5757803822751 1312.8797974610711" stroke-miterlimit="10"/><path fill="none" stroke="0xFFFFFF" paint-order="fill stroke markers" d=" M 364.5757803822751 1312.8797974610711 L 364.5757803822752 1345.7595949221427" stroke-miterlimit="10"/></g></svg>