<svg version="1.1" xmlns="http://www.w3.org/2000/svg" xmlns:xlink="http://www.w3.org/1999/xlink" width="900" height="900"><defs/><g><path fill="#222222" stroke="#cccccc" paint-order="fill stroke markers" d=" M 377.98699 257.24957 L 380.89115 257.99134 L 383.63195 259.20476 L 386.13339 260.85618 L 388.3261 262.8998 L 390.14929 265.27894 L 391.5524 267.92766 L 392.49652 270.77248 L 393 275 L 393 307 L 407 307 L 407 275 L 407.24957 272.01301 L 407.99134 269.10885 L 409.20476 266.36805 L 410.85618 263.86661 L 412.8998 261.6739 L 415.27894 259.85071 L 417.92766 258.4476 L 420.77248 257.50348 L 423.73453 257.04454 L 426.73167 257.08349 L 429.68079 257.61926 L 432.50012 258.63699 L 435.11147 260.10845 L 437.44244 261.99286 L 439.42838 264.23794 L 441.01423 266.78146 L 442.15601 269.55287 L 442.82206 272.47532 L 443 275 L 443 357 L 457 357 L 457 275 L 457.24957 272.01301 L 457.99134 269.10885 L 459.20476 266.36805 L 460.85618 263.86661 L 462.8998 261.6739 L 465.27894 259.85071 L 467.92766 258.4476 L 470.77248 257.50348 L 475 257 L 525 257 L 527.98699 257.24957 L 530.89115 257.99134 L 533.63195 259.20476 L 536.13339 260.85618 L 538.3261 262.8998 L 540.14929 265.27894 L 541.5524 267.92766 L 542.49652 270.77248 L 542.95546 273.73453 L 542.91651 276.73167 L 542.38074 279.68079 L 541.36301 282.50012 L 539.89155 285.11147 L 538.00714 287.44244 L 535.76206 289.42838 L 533.21854 291.01423 L 530.44713 292.15601 L 527.52468 292.82206 L 525 293 L 493 293 L 493 407 L 507 407 L 507 325 L 507.24957 322.01301 L 507.99134 319.10885 L 509.20476 316.36805 L 510.85618 313.86661 L 512.8998 311.6739 L 515.27894 309.85071 L 517.92766 308.4476 L 520.77248 307.50348 L 525 307 L 557 307 L 557 275 L 557.24957 272.01301 L 557.99134 269.10885 L 559.20476 266.36805 L 560.85618 263.86661 L 562.8998 261.6739 L 565.27894 259.85071 L 567.92766 258.4476 L 570.77248 257.50348 L 575 257 L 625 257 L 627.98699 257.24957 L 630.89115 257.99134 L 633.63195 259.20476 L 636.13339 260.85618 L 638.3261 262.8998 L 640.14929 265.27894 L 641.5524 267.92766 L 642.49652 270.77248 L 642.95546 273.73453 L 642.91651 276.73167 L 642.38074 279.68079 L 641.36301 282.50012 L 639.89155 285.11147 L 638.00714 287.44244 L 635.76206 289.42838 L 633.21854 291.01423 L 630.44713 292.15601 L 627.52468 292.82206 L 625 293 L 593 293 L 593 325 L 592.75043 327.98699 L 592.00866 330.89115 L 590.79524 333.63195 L 589.14382 336.13339 L 587.1002 338.3261 L 584.72106 340.14929 L 582.07234 341.5524 L 579.22752 342.49652 L 575 343 L 543 343 L 543 357 L 607 357 L 607 325 L 607.24957 322.01301 L 607.99134 319.10885 L 609.20476 316.36805 L 610.85618 313.86661 L 612.8998 311.6739 L 615.27894 309.85071 L 617.92766 308.4476 L 620.77248 307.50348 L 623.73453 307.04454 L 626.73167 307.08349 L 629.68079 307.61926 L 632.50012 308.63699 L 635.11147 310.10845 L 637.44244 311.99286 L 639.42838 314.23794 L 641.01423 316.78146 L 642.15601 319.55287 L 642.82206 322.47532 L 643 325 L 643 375 L 642.75043 377.98699 L 642.00866 380.89115 L 640.79524 383.63195 L 639.14382 386.13339 L 637.1002 388.3261 L 634.72106 390.14929 L 632.07234 391.5524 L 629.22752 392.49652 L 625 393 L 593 393 L 593 407 L 625 407 L 627.98699 407.24957 L 630.89115 407.99134 L 633.63195 409.20476 L 636.13339 410.85618 L 638.3261 412.8998 L 640.14929 415.27894 L 641.5524 417.92766 L 642.49652 420.77248 L 643 425 L 643 475 L 642.75043 477.98699 L 642.00866 480.89115 L 640.79524 483.63195 L 639.14382 486.13339 L 637.1002 488.3261 L 634.72106 490.14929 L 632.07234 491.5524 L 629.22752 492.49652 L 626.26547 492.95546 L 623.26833 492.91651 L 620.31921 492.38074 L 617.49988 491.36301 L 614.88853 489.89155 L 612.55756 488.00714 L 610.57162 485.76206 L 608.98577 483.21854 L 607.84399 480.44713 L 607.17794 477.52468 L 607 475 L 607 443 L 575 443 L 572.01301 442.75043 L 569.10885 442.00866 L 566.36805 440.79524 L 563.86661 439.14382 L 561.6739 437.1002 L 559.85071 434.72106 L 558.4476 432.07234 L 557.50348 429.22752 L 557 425 L 557 393 L 543 393 L 543 457 L 575 457 L 577.98699 457.24957 L 580.89115 457.99134 L 583.63195 459.20476 L 586.13339 460.85618 L 588.3261 462.8998 L 590.14929 465.27894 L 591.5524 467.92766 L 592.49652 470.77248 L 593 475 L 593 507 L 625 507 L 627.98699 507.24957 L 630.89115 507.99134 L 633.63195 509.20476 L 636.13339 510.85618 L 638.3261 512.8998 L 640.14929 515.27894 L 641.5524 517.92766 L 642.49652 520.77248 L 643 525 L 643 625 L 642.75043 627.98699 L 642.00866 630.89115 L 640.79524 633.63195 L 639.14382 636.13339 L 637.1002 638.3261 L 634.72106 640.14929 L 632.07234 641.5524 L 629.22752 642.49652 L 626.26547 642.95546 L 623.26833 642.91651 L 620.31921 642.38074 L 617.49988 641.36301 L 614.88853 639.89155 L 612.55756 638.00714 L 610.57162 635.76206 L 608.98577 633.21854 L 607.84399 630.44713 L 607.17794 627.52468 L 607 625 L 607 593 L 575 593 L 572.01301 592.75043 L 569.10885 592.00866 L 566.36805 590.79524 L 563.86661 589.14382 L 561.6739 587.1002 L 559.85071 584.72106 L 558.4476 582.07234 L 557.50348 579.22752 L 557.04454 576.26547 L 557.08349 573.26833 L 557.61926 570.31921 L 558.63699 567.49988 L 560.10845 564.88853 L 561.99286 562.55756 L 564.23794 560.57162 L 566.78146 558.98577 L 569.55287 557.84399 L 572.47532 557.17794 L 575 557 L 607 557 L 607 543 L 575 543 L 572.01301 542.75043 L 569.10885 542.00866 L 566.36805 540.79524 L 563.86661 539.14382 L 561.6739 537.1002 L 559.85071 534.72106 L 558.4476 532.07234 L 557.50348 529.22752 L 557 525 L 557 493 L 525 493 L 524.13565 492.92778 L 523.26833 492.91651 L 522.64465 492.8032 L 522.01301 492.75043 L 521.17261 492.53578 L 520.31921 492.38074 L 519.72305 492.16554 L 519.10885 492.00866 L 518.31563 491.65748 L 517.49988 491.36301 L 516.94771 491.05187 L 516.36805 490.79524 L 515.64416 490.31734 L 514.88853 489.89155 L 514.39559 489.49305 L 513.86661 489.14382 L 513.23211 488.55246 L 512.55756 488.00714 L 512.13755 487.53233 L 511.6739 487.1002 L 511.14636 486.4118 L 510.57162 485.76206 L 510.23624 485.22416 L 509.85071 484.72106 L 509.44469 483.95459 L 508.98577 483.21854 L 508.74432 482.63246 L 508.4476 482.07234 L 508.17438 481.24908 L 507.84399 480.44713 L 507.70315 479.82917 L 507.50348 479.22752 L 507.37066 478.37028 L 507.17794 477.52468 L 507.12645 476.79413 L 507.04454 476.26547 L 507.05149 475.73058 L 507 475 L 507 443 L 393 443 L 393 457 L 475 457 L 475.86435 457.07222 L 476.73167 457.08349 L 477.35535 457.1968 L 477.98699 457.24957 L 478.82739 457.46422 L 479.68079 457.61926 L 480.27695 457.83446 L 480.89115 457.99134 L 481.68437 458.34252 L 482.50012 458.63699 L 483.05229 458.94813 L 483.63195 459.20476 L 484.35584 459.68266 L 485.11147 460.10845 L 485.60441 460.50695 L 486.13339 460.85618 L 486.76789 461.44754 L 487.44244 461.99286 L 487.86245 462.46767 L 488.3261 462.8998 L 488.85364 463.5882 L 489.42838 464.23794 L 489.76376 464.77584 L 490.14929 465.27894 L 490.55531 466.04541 L 491.01423 466.78146 L 491.25568 467.36754 L 491.5524 467.92766 L 491.82562 468.75092 L 492.15601 469.55287 L 492.29685 470.17083 L 492.49652 470.77248 L 492.62934 471.62972 L 492.82206 472.47532 L 492.87355 473.20587 L 492.95546 473.73453 L 492.94851 474.26942 L 493 475 L 493 507 L 525 507 L 527.98699 507.24957 L 530.89115 507.99134 L 533.63195 509.20476 L 536.13339 510.85618 L 538.3261 512.8998 L 540.14929 515.27894 L 541.5524 517.92766 L 542.49652 520.77248 L 542.95546 523.73453 L 542.91651 526.73167 L 542.38074 529.68079 L 541.36301 532.50012 L 539.89155 535.11147 L 538.00714 537.44244 L 535.76206 539.42838 L 533.21854 541.01423 L 530.44713 542.15601 L 527.52468 542.82206 L 525 543 L 475 543 L 472.01301 542.75043 L 469.10885 542.00866 L 466.36805 540.79524 L 463.86661 539.14382 L 461.6739 537.1002 L 459.85071 534.72106 L 458.4476 532.07234 L 457.50348 529.22752 L 457 525 L 457 493 L 443 493 L 443 557 L 525 557 L 527.98699 557.24957 L 530.89115 557.99134 L 533.63195 559.20476 L 536.13339 560.85618 L 538.3261 562.8998 L 540.14929 565.27894 L 541.5524 567.92766 L 542.49652 570.77248 L 542.95546 573.73453 L 542.91651 576.73167 L 542.38074 579.68079 L 541.36301 582.50012 L 539.89155 585.11147 L 538.00714 587.44244 L 535.76206 589.42838 L 533.21854 591.01423 L 530.44713 592.15601 L 527.52468 592.82206 L 525 593 L 493 593 L 493 607 L 575 607 L 577.98699 607.24957 L 580.89115 607.99134 L 583.63195 609.20476 L 586.13339 610.85618 L 588.3261 612.8998 L 590.14929 615.27894 L 591.5524 617.92766 L 592.49652 620.77248 L 592.95546 623.73453 L 592.91651 626.73167 L 592.38074 629.68079 L 591.36301 632.50012 L 589.89155 635.11147 L 588.00714 637.44244 L 585.76206 639.42838 L 583.21854 641.01423 L 580.44713 642.15601 L 577.52468 642.82206 L 575 643 L 475 643 L 474.13565 642.92778 L 473.26833 642.91651 L 472.64465 642.8032 L 472.01301 642.75043 L 471.17261 642.53578 L 470.31921 642.38074 L 469.72305 642.16554 L 469.10885 642.00866 L 468.31563 641.65748 L 467.49988 641.36301 L 466.94771 641.05187 L 466.36805 640.79524 L 465.64416 640.31734 L 464.88853 639.89155 L 464.39559 639.49305 L 463.86661 639.14382 L 463.23211 638.55246 L 462.55756 638.00714 L 462.13755 637.53233 L 461.6739 637.1002 L 461.14636 636.4118 L 460.57162 635.76206 L 460.23624 635.22416 L 459.85071 634.72106 L 459.44469 633.95459 L 458.98577 633.21854 L 458.74432 632.63246 L 458.4476 632.07234 L 458.17438 631.24908 L 457.84399 630.44713 L 457.70315 629.82917 L 457.50348 629.22752 L 457.37066 628.37028 L 457.17794 627.52468 L 457.12645 626.79413 L 457.04454 626.26547 L 457.05149 625.73058 L 457 625 L 457 593 L 393 593 L 393 607 L 425 607 L 427.98699 607.24957 L 430.89115 607.99134 L 433.63195 609.20476 L 436.13339 610.85618 L 438.3261 612.8998 L 440.14929 615.27894 L 441.5524 617.92766 L 442.49652 620.77248 L 442.95546 623.73453 L 442.91651 626.73167 L 442.38074 629.68079 L 441.36301 632.50012 L 439.89155 635.11147 L 438.00714 637.44244 L 435.76206 639.42838 L 433.21854 641.01423 L 430.44713 642.15601 L 427.52468 642.82206 L 425 643 L 375 643 L 372.01301 642.75043 L 369.10885 642.00866 L 366.36805 640.79524 L 363.86661 639.14382 L 361.6739 637.1002 L 359.85071 634.72106 L 358.4476 632.07234 L 357.50348 629.22752 L 357 625 L 357 593 L 343 593 L 343 625 L 342.92778 625.86435 L 342.91651 626.73167 L 342.8032 627.35535 L 342.75043 627.98699 L 342.53578 628.82739 L 342.38074 629.68079 L 342.16554 630.27695 L 342.00866 630.89115 L 341.65748 631.68437 L 341.36301 632.50012 L 341.05187 633.05229 L 340.79524 633.63195 L 340.31734 634.35584 L 339.89155 635.11147 L 339.49305 635.60441 L 339.14382 636.13339 L 338.55246 636.76789 L 338.00714 637.44244 L 337.53233 637.86245 L 337.1002 638.3261 L 336.4118 638.85364 L 335.76206 639.42838 L 335.22416 639.76376 L 334.72106 640.14929 L 333.95459 640.55531 L 333.21854 641.01423 L 332.63246 641.25568 L 332.07234 641.5524 L 331.24908 641.82562 L 330.44713 642.15601 L 329.82917 642.29685 L 329.22752 642.49652 L 328.37028 642.62934 L 327.52468 642.82206 L 326.79413 642.87355 L 326.26547 642.95546 L 325.73058 642.94851 L 325 643 L 275 643 L 272.01301 642.75043 L 269.10885 642.00866 L 266.36805 640.79524 L 263.86661 639.14382 L 261.6739 637.1002 L 259.85071 634.72106 L 258.4476 632.07234 L 257.50348 629.22752 L 257 625 L 257 575 L 257.24957 572.01301 L 257.99134 569.10885 L 259.20476 566.36805 L 260.85618 563.86661 L 262.8998 561.6739 L 265.27894 559.85071 L 267.92766 558.4476 L 270.77248 557.50348 L 273.73453 557.04454 L 276.73167 557.08349 L 279.68079 557.61926 L 282.50012 558.63699 L 285.11147 560.10845 L 287.44244 561.99286 L 289.42838 564.23794 L 291.01423 566.78146 L 292.15601 569.55287 L 292.82206 572.47532 L 293 575 L 293 607 L 307 607 L 307 543 L 275 543 L 272.01301 542.75043 L 269.10885 542.00866 L 266.36805 540.79524 L 263.86661 539.14382 L 261.6739 537.1002 L 259.85071 534.72106 L 258.4476 532.07234 L 257.50348 529.22752 L 257 525 L 257 425 L 257.24957 422.01301 L 257.99134 419.10885 L 259.20476 416.36805 L 260.85618 413.86661 L 262.8998 411.6739 L 265.27894 409.85071 L 267.92766 408.4476 L 270.77248 407.50348 L 273.73453 407.04454 L 276.73167 407.08349 L 279.68079 407.61926 L 282.50012 408.63699 L 285.11147 410.10845 L 287.44244 411.99286 L 289.42838 414.23794 L 291.01423 416.78146 L 292.15601 419.55287 L 292.82206 422.47532 L 293 425 L 293 507 L 325 507 L 327.98699 507.24957 L 330.89115 507.99134 L 333.63195 509.20476 L 336.13339 510.85618 L 338.3261 512.8998 L 340.14929 515.27894 L 341.5524 517.92766 L 342.49652 520.77248 L 343 525 L 343 557 L 407 557 L 407 543 L 375 543 L 372.01301 542.75043 L 369.10885 542.00866 L 366.36805 540.79524 L 363.86661 539.14382 L 361.6739 537.1002 L 359.85071 534.72106 L 358.4476 532.07234 L 357.50348 529.22752 L 357.04454 526.26547 L 357.08349 523.26833 L 357.61926 520.31921 L 358.63699 517.49988 L 360.10845 514.88853 L 361.99286 512.55756 L 364.23794 510.57162 L 366.78146 508.98577 L 369.55287 507.84399 L 372.47532 507.17794 L 375 507 L 407 507 L 407 493 L 325 493 L 322.01301 492.75043 L 319.10885 492.00866 L 316.36805 490.79524 L 313.86661 489.14382 L 311.6739 487.1002 L 309.85071 484.72106 L 308.4476 482.07234 L 307.50348 479.22752 L 307.04454 476.26547 L 307.08349 473.26833 L 307.61926 470.31921 L 308.63699 467.49988 L 310.10845 464.88853 L 311.99286 462.55756 L 314.23794 460.57162 L 316.78146 458.98577 L 319.55287 457.84399 L 322.47532 457.17794 L 325 457 L 357 457 L 357 393 L 343 393 L 343 425 L 342.75043 427.98699 L 342.00866 430.89115 L 340.79524 433.63195 L 339.14382 436.13339 L 337.1002 438.3261 L 334.72106 440.14929 L 332.07234 441.5524 L 329.22752 442.49652 L 326.26547 442.95546 L 323.26833 442.91651 L 320.31921 442.38074 L 317.49988 441.36301 L 314.88853 439.89155 L 312.55756 438.00714 L 310.57162 435.76206 L 308.98577 433.21854 L 307.84399 430.44713 L 307.17794 427.52468 L 307 425 L 307 393 L 275 393 L 272.01301 392.75043 L 269.10885 392.00866 L 266.36805 390.79524 L 263.86661 389.14382 L 261.6739 387.1002 L 259.85071 384.72106 L 258.4476 382.07234 L 257.50348 379.22752 L 257 375 L 257 325 L 257.24957 322.01301 L 257.99134 319.10885 L 259.20476 316.36805 L 260.85618 313.86661 L 262.8998 311.6739 L 265.27894 309.85071 L 267.92766 308.4476 L 270.77248 307.50348 L 273.73453 307.04454 L 276.73167 307.08349 L 279.68079 307.61926 L 282.50012 308.63699 L 285.11147 310.10845 L 287.44244 311.99286 L 289.42838 314.23794 L 291.01423 316.78146 L 292.15601 319.55287 L 292.82206 322.47532 L 293 325 L 293 357 L 375 357 L 377.98699 357.24957 L 380.89115 357.99134 L 383.63195 359.20476 L 386.13339 360.85618 L 388.3261 362.8998 L 390.14929 365.27894 L 391.5524 367.92766 L 392.49652 370.77248 L 393 375 L 393 407 L 457 407 L 457 393 L 425 393 L 422.01301 392.75043 L 419.10885 392.00866 L 416.36805 390.79524 L 413.86661 389.14382 L 411.6739 387.1002 L 409.85071 384.72106 L 408.4476 382.07234 L 407.50348 379.22752 L 407 375 L 407 343 L 325 343 L 322.01301 342.75043 L 319.10885 342.00866 L 316.36805 340.79524 L 313.86661 339.14382 L 311.6739 337.1002 L 309.85071 334.72106 L 308.4476 332.07234 L 307.50348 329.22752 L 307.04454 326.26547 L 307.08349 323.26833 L 307.61926 320.31921 L 308.63699 317.49988 L 310.10845 314.88853 L 311.99286 312.55756 L 314.23794 310.57162 L 316.78146 308.98577 L 319.55287 307.84399 L 322.47532 307.17794 L 325 307 L 357 307 L 357 293 L 275 293 L 272.01301 292.75043 L 269.10885 292.00866 L 266.36805 290.79524 L 263.86661 289.14382 L 261.6739 287.1002 L 259.85071 284.72106 L 258.4476 282.07234 L 257.50348 279.22752 L 257.04454 276.26547 L 257.08349 273.26833 L 257.61926 270.31921 L 258.63699 267.49988 L 260.10845 264.88853 L 261.99286 262.55756 L 264.23794 260.57162 L 266.78146 258.98577 L 269.55287 257.84399 L 272.47532 257.17794 L 275 257 L 375 257 Z" stroke-miterlimit="10"/></g></svg>