<svg version="1.1" xmlns="http://www.w3.org/2000/svg" xmlns:xlink="http://www.w3.org/1999/xlink" width="900" height="900"><defs/><g><rect fill="#000000" stroke="none" x="0" y="0" width="900" height="900"/><path fill="#333333" stroke="#999999" paint-order="fill stroke markers" d=" M 474.61109500000003 125.31306000000006 L 474.77557500000006 125.30011000000005 L 601.266085 166.39937000000006 L 601.3915450000001 166.50652000000005 L 601.5560350000001 166.51947000000007 L 601.765005 166.76414000000005 L 602.062265 166.88727000000006 L 602.125405 167.03970000000004 L 602.266085 167.12591000000006 L 758.6169650000002 382.32443000000006 L 758.655485 382.4848600000001 L 758.780945 382.59202000000005 L 758.8061950000001 382.91279000000003 L 758.974305 383.1871300000001 L 758.9357950000001 383.34756000000004 L 758.9989350000001 383.50000000000006 L 758.9989350000001 516.5 L 758.9357950000001 516.6524400000001 L 758.974305 516.81287 L 758.8061950000001 517.0872100000001 L 758.780945 517.4079800000001 L 758.655485 517.51514 L 758.6169650000002 517.6755700000001 L 602.266085 732.87409 L 602.125405 732.9603 L 602.062265 733.11273 L 601.765005 733.23586 L 601.5560350000001 733.48053 L 601.391555 733.4934700000001 L 601.266085 733.6006300000001 L 474.77557500000006 774.6998900000001 L 474.61109500000003 774.68695 L 474.470405 774.77316 L 474.15753500000005 774.69804 L 473.8446650000001 774.77316 L 473.70397500000007 774.68694 L 473.5395050000001 774.6998900000001 L 283.80372500000004 713.0510000000002 L 220.55847500000004 692.50137 L 220.43300500000004 692.3942100000002 L 220.26852500000007 692.3812700000001 L 220.05955500000005 692.1366 L 219.76229500000005 692.0134700000001 L 219.69915500000008 691.86104 L 219.55847500000004 691.7748300000001 L 141.38303500000006 584.1755700000001 L 141.34451500000006 584.01514 L 141.21905500000005 583.90798 L 141.19380500000005 583.5872200000001 L 141.02568500000007 583.31287 L 141.06420500000004 583.1524300000001 L 141.00106500000007 583 L 141.00106500000007 317.00000000000006 L 141.06420500000004 316.84757 L 141.02568500000007 316.68713 L 141.19381500000006 316.41278000000005 L 141.21905500000005 316.09202000000005 L 141.34451500000006 315.98486 L 141.38303500000006 315.82443000000006 L 219.55847500000004 208.22517000000005 L 219.69915500000008 208.13896000000005 L 219.76229500000005 207.98653000000004 L 220.05955500000005 207.86340000000007 L 220.26852500000007 207.61873000000006 L 220.43301500000007 207.60578000000007 L 220.55847500000004 207.49863000000005 L 283.80372500000004 186.94900000000007 L 473.5395050000001 125.30011000000005 L 473.70398500000005 125.31305000000006 L 473.8446650000001 125.22684000000007 L 474.15753500000005 125.30196000000007 L 474.470405 125.22684000000007 Z M 435.55065500000006 705.24632 L 429.07852500000007 707.34924 L 474.15753500000005 769.39517 L 519.2365550000001 707.34924 L 474.1575450000001 692.70218 Z M 479.39360500000004 768.9935600000001 L 594.175935 731.6985200000001 L 523.2365550000001 708.6489200000001 Z M 359.99324500000006 729.7964100000002 L 354.1391450000001 731.6985200000001 L 468.92147500000004 768.9935600000001 L 425.07852500000007 708.6489200000001 Z M 553.569055 666.8998200000001 L 525.7086850000001 705.24632 L 598.6480550000001 728.9457600000001 L 598.6480550000001 652.2527600000001 Z M 227.64862500000004 690.59926 L 342.43095500000004 727.8943000000002 L 316.71648500000003 692.50137 L 298.58800500000007 667.5496600000001 Z M 352.90308500000003 727.8943000000002 L 422.6063950000001 705.24632 L 395.98210500000005 668.60113 Z M 302.58800500000007 666.24998 L 304.2962150000001 668.60113 L 345.6670250000001 725.54315 L 345.6670250000001 652.2527600000001 Z M 359.99324500000006 596.7964100000002 L 349.6670250000001 600.1516000000001 L 349.6670250000001 725.54315 L 402.91561500000006 652.2527600000001 L 423.37032500000004 624.09926 L 422.85017500000004 623.3833300000001 L 404.07537500000007 597.54204 L 395.21816500000006 585.35114 Z M 627.9044550000001 642.74678 L 602.6480550000001 650.95308 L 602.6480550000001 725.54315 L 673.5874250000002 627.90348 Z M 476.15753500000005 609.85382 L 476.15753500000005 689.14618 L 521.7086850000001 703.9466400000001 L 549.860845 665.1985200000001 L 503.25396500000005 601.0496600000001 Z M 427.07853500000004 625.8005600000001 L 398.45423500000004 665.1985200000001 L 426.6063950000001 703.9466400000001 L 472.15753500000005 689.14618 L 472.15753500000005 611.1535000000001 Z M 223.17650500000008 687.8465000000001 L 283.80372500000004 668.14752 L 296.1158750000001 664.14706 L 268.2555050000001 625.8005600000001 L 223.17650500000008 611.1535000000001 Z M 183.70681500000006 635.6240600000001 L 219.17650500000008 684.4439 L 219.17650500000008 609.85382 L 205.62829500000007 605.45174 L 148.23713500000005 586.80422 Z M 272.48387500000007 623.3833300000001 L 271.96371500000004 624.09926 L 300.1158750000001 662.8473800000002 L 345.6670250000001 648.04692 L 345.6670250000001 599.3483700000002 L 317.8066550000001 561.00187 Z M 507.25396500000005 599.74998 L 511.39653500000003 605.45174 L 520.4726350000001 617.94391 L 553.0969150000001 662.8473800000002 L 598.6480550000001 648.04692 L 598.6480550000001 600.1516000000001 L 552.332985 585.10292 Z M 602.6480550000001 646.7472400000001 L 614.9602050000001 642.74678 L 672.351365 624.09926 L 614.9602050000001 605.45174 L 602.6480550000001 601.45128 Z M 230.44310500000006 556.69128 L 223.17650500000008 559.0523400000001 L 223.17650500000008 606.94766 L 268.72764500000005 621.74812 L 269.78337500000004 620.29504 L 280.4250850000001 605.64798 L 315.3345250000001 557.5992600000001 L 298.87980500000003 534.95128 L 298.58800500000007 534.5496600000001 Z M 461.68541500000003 563.75462 L 421.3984750000001 576.84464 L 399.21816500000006 584.0514600000001 L 425.84246500000006 620.6966600000001 L 468.92147500000004 561.4034800000001 Z M 431.07852500000007 620.29504 L 472.15753500000005 606.94766 L 472.15753500000005 563.7546300000001 Z M 572.207895 527.84369 L 554.332975 533.6516 L 554.332975 581.54692 L 601.266085 596.7964100000002 L 673.5874250000002 620.29504 L 599.884125 518.85114 Z M 633.7444750000001 558.6507200000001 L 676.8234950000001 617.94391 L 676.8234950000001 544.6535000000001 Z M 680.8234950000001 543.35382 L 680.8234950000001 617.94388 L 751.7628650000001 520.30422 Z M 476.15753500000005 605.64798 L 500.78183500000006 597.64706 L 497.0736350000001 592.54316 L 476.15753500000005 563.75462 Z M 183.70681500000006 530.3759400000001 L 146.23713500000005 581.9485400000001 L 219.17650500000008 605.64798 L 219.17650500000008 558.24909 L 191.31614500000006 519.9026000000001 Z M 504.78183500000006 596.3473800000002 L 545.8608550000001 583 L 479.39360500000004 561.4034800000001 Z M 349.6670250000001 595.9457600000001 L 392.74603500000006 581.9485400000001 L 361.50702500000006 538.95174 L 349.6670250000001 522.6553700000001 Z M 336.59094500000003 535.14752 L 320.27879500000006 557.5992600000001 L 339.3932050000001 583.90798 L 339.4710550000001 584.01514 L 345.6670250000001 592.54316 L 345.6670250000001 522.65536 Z M 396.74603500000006 580.64886 L 467.68541500000003 557.5992600000001 L 464.89093500000007 556.69128 L 352.90308500000003 520.30422 Z M 538.020835 538.95174 L 480.62966500000005 557.5992600000001 L 550.332975 580.2472400000001 L 550.332975 534.95128 Z M 145.00106500000007 576.84464 L 188.84401500000007 516.5 L 186.37188500000005 513.0974000000001 L 145.00106500000007 456.15536000000003 Z M 193.78827500000006 516.5 L 221.94043500000004 555.24812 L 283.80372500000004 535.14752 L 296.1158750000001 531.14706 L 282.71023500000007 512.69578 L 268.2555050000001 492.8005600000001 L 221.94043500000004 477.7518800000001 Z M 602.6480550000001 515.8501600000001 L 613.4701050000001 530.74544 L 630.216625 553.79504 L 631.2723450000001 555.24812 L 676.8234950000001 540.44766 L 676.8234950000001 492.5523400000001 L 614.9602050000001 472.45174000000003 L 602.6480550000001 468.45128000000005 Z M 302.58800500000007 533.24998 L 313.21926500000006 547.88266 L 317.80666500000007 554.1966500000001 L 342.43095500000004 520.30422 Z M 354.1391550000001 516.5 L 389.0514350000001 527.84369 L 468.92147500000004 553.79504 L 467.21327500000007 551.4439 L 425.07852500000007 493.45040000000006 Z M 523.7086850000001 492.8005600000001 L 479.39360500000004 553.79504 L 550.332975 530.74544 L 550.332975 456.15537000000006 Z M 506.01790500000004 467.15160000000003 L 476.15753500000005 476.85382000000004 L 476.15753500000005 551.4439 L 547.0969150000001 453.80422000000004 Z M 435.55065500000006 490.04780000000005 L 429.07852500000007 492.15072000000004 L 431.07852500000007 494.90348000000006 L 472.15753500000005 551.4438700000001 L 472.15753500000005 478.15350000000007 Z M 680.8234950000001 491.7490900000001 L 680.8234950000001 539.1479800000001 L 693.1356350000001 535.14752 L 753.7628650000001 515.4485400000001 L 708.683855 453.40260000000006 Z M 300.1158750000001 529.84738 L 333.95882500000005 518.85114 L 337.02039500000006 517.8563800000001 L 341.1948950000001 516.5 L 283.80372500000004 497.85248000000007 L 274.72764500000005 494.90348000000006 Z M 554.332975 529.4457600000001 L 575.231655 522.6553700000001 L 590.001425 517.8563800000001 L 597.411995 515.4485400000001 L 554.332975 456.15536000000003 Z M 183.70681500000006 502.62406000000004 L 191.31614500000006 513.0974000000001 L 217.94044500000007 476.45220000000006 L 205.62829500000007 472.45174000000003 L 148.23713500000005 453.80422000000004 Z M 352.90308500000003 512.69578 L 422.6063950000001 490.04780000000005 L 395.9820950000001 453.40260000000006 Z M 284.22346500000003 474.22517000000005 L 272.72764500000005 490.04780000000005 L 342.430965 512.69578 L 315.9942050000001 476.30872000000005 L 314.27879500000006 473.94766000000004 L 299.351935 453.40261000000004 Z M 711.1559850000001 450.00000000000006 L 754.9989350000001 510.3446400000001 L 754.9989350000001 389.65536000000003 Z M 349.6670250000001 510.34463000000005 L 393.5099650000001 450.00000000000006 L 393.399215 449.8475700000001 L 349.6670250000001 389.65537000000006 Z M 593.0387350000001 502.62406000000004 L 598.6480550000001 510.34463000000005 L 598.6480550000001 467.15160000000003 L 557.5690450000001 453.80422000000004 Z M 302.05139500000007 449.6871300000001 L 301.82407500000005 450.00000000000006 L 321.66075500000005 477.30285000000003 L 345.6670250000001 510.34463000000005 L 345.6670250000001 389.65536000000003 Z M 602.6480550000001 435.7545600000001 L 602.6480550000001 464.24544000000003 L 639.775015 476.30872000000005 L 678.059555 488.74812000000003 L 706.2117150000001 450.00000000000006 L 678.059555 411.2518800000001 Z M 149.47319500000006 450.00000000000006 L 268.72764500000005 488.74812000000003 L 279.48081500000006 473.94766000000004 L 296.87980500000003 450.00000000000006 L 295.72088500000007 448.4048900000001 L 268.72764500000005 411.2518800000001 Z M 400.92637500000006 446.59740000000005 L 398.45423500000004 450.00000000000006 L 400.92637500000006 453.40261000000004 L 426.6063950000001 488.74812000000003 L 472.15753500000005 473.94766000000004 L 472.15753500000005 426.0523400000001 L 469.58751500000005 425.21729000000005 L 461.83132500000005 422.6971500000001 L 426.6063950000001 411.2518800000001 Z M 476.15753500000005 472.6479800000001 L 545.8608550000001 450.00000000000006 L 542.242825 448.82443000000006 L 476.15753500000005 427.35202000000004 Z M 558.8051050000001 450.00000000000006 L 570.513295 453.80422000000004 L 598.6480550000001 462.94576000000006 L 598.6480550000001 437.05424000000005 Z M 272.72764500000005 409.95220000000006 L 299.351935 446.59740000000005 L 299.64373500000005 446.19578000000007 L 342.43095500000004 387.30422000000004 Z M 680.8234950000001 408.25091000000003 L 708.683845 446.59740000000005 L 753.7628650000001 384.5514600000001 L 693.1356350000001 364.85248000000007 L 680.8234950000001 360.85202000000004 Z M 395.9820950000001 446.59740000000005 L 396.27389500000004 446.19578000000007 L 422.6063950000001 409.95220000000006 L 407.66214500000007 405.09652000000006 L 352.90308500000003 387.30422000000004 Z M 476.15753500000005 423.1461800000001 L 547.0969150000001 446.19578000000007 L 476.15753500000005 348.5561000000001 Z M 183.70681500000006 397.37594000000007 L 148.23713500000005 446.19578000000007 L 205.62829500000007 427.5482600000001 L 217.94044500000007 423.54780000000005 L 191.31614500000006 386.90260000000006 Z M 593.0387350000001 397.37594000000007 L 557.5690450000001 446.19578000000007 L 598.6480550000001 432.8484000000001 L 598.6480550000001 389.65537000000006 Z M 145.00106500000007 443.8446400000001 L 188.84401500000007 383.50000000000006 L 145.00106500000007 323.1553600000001 Z M 554.332975 443.8446400000001 L 597.411995 384.5514600000001 L 593.7067750000001 383.34756000000004 L 593.213025 383.1871300000001 L 554.332975 370.55424000000005 Z M 550.332975 443.84461000000005 L 550.332975 369.2545600000001 L 541.388735 366.3484000000001 L 479.39360500000004 346.2049600000001 Z M 602.6480550000001 384.14984000000004 L 602.6480550000001 431.54872000000006 L 614.9602050000001 427.5482600000001 L 676.8234950000001 407.44766000000004 L 676.8234950000001 359.5523400000001 L 631.2723450000001 344.7518800000001 Z M 193.78827500000006 383.50000000000006 L 221.94043500000004 422.24812000000003 L 268.2555050000001 407.19944000000004 L 296.1158750000001 368.85294000000005 L 283.80372500000004 364.85248000000007 L 221.94043500000004 344.7518800000001 Z M 457.41102500000005 368.85294000000005 L 429.37032500000004 407.44766000000004 L 429.07852500000007 407.8492800000001 L 472.15753500000005 421.84650000000005 L 472.15753500000005 348.5561200000001 Z M 354.6083050000001 383.34756000000004 L 354.1391450000001 383.50000000000006 L 364.6112750000001 386.90260000000006 L 425.07852500000007 406.54960000000005 L 426.13425500000005 405.09652000000006 L 468.92147500000004 346.2049600000001 Z M 274.72764500000005 405.09652000000006 L 283.80372500000004 402.14752000000004 L 341.1948950000001 383.50000000000006 L 300.1158750000001 370.15262000000007 Z M 554.332975 318.45308000000006 L 554.332975 366.3484000000001 L 564.414425 369.62406000000004 L 567.277225 370.55424000000005 L 599.884125 381.14886000000007 L 600.9398550000001 379.69578000000007 L 625.564145 345.80334000000005 L 673.5874250000002 279.70496 Z M 146.23713500000005 318.05146 L 183.70681500000006 369.62406000000004 L 191.31614500000006 380.09740000000005 L 219.17650500000008 341.75091000000003 L 219.17650500000008 294.35202000000004 Z M 352.90308500000003 379.69578000000007 L 467.68541500000003 342.40074000000004 L 461.83132500000005 340.49863000000005 L 396.74603500000006 319.35114000000004 Z M 680.8234950000001 356.6461800000001 L 751.7628650000001 379.69578000000007 L 680.8234950000001 282.05611000000005 Z M 302.58800500000007 366.75002000000006 L 342.43095500000004 379.69578000000007 L 318.64945500000005 346.9633600000001 L 317.8066550000001 345.80334000000005 Z M 320.27879500000006 342.40074000000004 L 345.6670250000001 377.34463000000005 L 345.6670250000001 307.45684000000006 Z M 349.6670250000001 377.34463000000005 L 392.74603500000006 318.05146 L 349.6670250000001 304.05424000000005 Z M 223.17650500000008 293.0523400000001 L 223.17650500000008 340.94766000000004 L 234.88469500000005 344.7518800000001 L 267.49158500000004 355.34650000000005 L 298.58800500000007 365.45034000000004 L 312.570595 346.2049600000001 L 312.862385 345.80334000000005 L 315.3345250000001 342.40074000000004 L 314.4804250000001 341.22517000000005 L 314.27880500000003 340.94766000000004 L 269.78337500000004 279.70497000000006 L 268.72764500000005 278.25188 Z M 480.62966500000005 342.40074000000004 L 538.020835 361.0482600000001 L 550.332975 365.04872000000006 L 550.332975 319.7527600000001 Z M 633.7444750000001 341.3492800000001 L 676.8234950000001 355.34650000000005 L 676.8234950000001 282.0561 Z M 272.99120500000004 274.48653 L 271.96371500000004 275.90074000000004 L 317.8066550000001 338.99814000000003 L 345.6670250000001 300.65163000000007 L 345.6670250000001 251.95308000000006 L 300.1158750000001 237.15262000000007 Z M 399.21816500000006 315.9485400000001 L 468.92147500000004 338.59652000000006 L 425.84246500000006 279.30334000000005 Z M 479.39360500000004 338.59652000000006 L 545.8608550000001 317.00000000000006 L 504.78183500000006 303.65262000000007 Z M 476.15753500000005 336.24538000000007 L 500.78183500000006 302.35294000000005 L 476.15753500000005 294.35202000000004 Z M 472.15753500000005 336.24537000000004 L 472.15753500000005 293.0523400000001 L 463.2132950000001 290.1461800000001 L 431.0785450000001 279.70497000000006 Z M 507.25396500000005 300.25002000000006 L 515.399275 302.89659000000006 L 517.726095 303.65262000000007 L 552.332975 314.8970800000001 L 598.6480550000001 299.8484000000001 L 598.6480550000001 251.95308000000006 L 589.7038150000001 249.04692000000006 L 553.0969150000001 237.15262000000007 Z M 349.6670250000001 299.8484000000001 L 395.21816500000006 314.64886000000007 L 423.37032500000004 275.90074000000004 L 422.34284500000007 274.48653 L 349.6670250000001 174.45685000000006 Z M 183.70681500000006 264.37594000000007 L 148.23713500000005 313.19578000000007 L 205.62829500000007 294.54826 L 219.17650500000008 290.1461800000001 L 219.17650500000008 215.55610000000004 Z M 476.15753500000005 210.85382000000007 L 476.15753500000005 290.1461800000001 L 503.25396500000005 298.9503400000001 L 549.860845 234.80148000000005 L 521.7086850000001 196.05336000000005 Z M 602.6480550000001 298.54872000000006 L 614.9602050000001 294.54826 L 672.351365 275.90074000000004 L 614.9602050000001 257.25322000000006 L 602.6480550000001 253.25276000000005 Z M 223.17650500000008 288.84650000000005 L 268.2555050000001 274.1994400000001 L 275.39270500000003 264.37594000000007 L 280.56766500000003 257.25322000000006 L 296.1158750000001 235.85294000000005 L 283.80372500000004 231.85248000000007 L 223.17650500000008 212.15350000000007 Z M 398.45423500000004 234.80148000000005 L 427.07853500000004 274.1994400000001 L 438.16868500000004 277.80285000000003 L 472.15753500000005 288.84650000000005 L 472.15753500000005 210.85382000000007 L 467.68541500000003 209.40074000000007 L 426.6063950000001 196.05336000000005 Z M 602.6480550000001 249.04692000000006 L 615.5923050000001 253.25276000000005 L 673.5874250000002 272.09652000000006 L 602.6480550000001 174.45684000000006 Z M 525.7086850000001 194.75368000000006 L 553.569055 233.10018000000005 L 598.6480550000001 247.74724000000006 L 598.6480550000001 171.05424000000005 Z M 303.53228500000006 232.45034000000007 L 302.58800500000007 233.75002000000006 L 345.6670250000001 247.74724000000006 L 345.6670250000001 174.45684000000006 Z M 227.64862500000004 209.40074000000007 L 298.58800500000007 232.45034000000007 L 342.43095500000004 172.10570000000007 Z M 395.9820950000001 231.39888000000005 L 422.6063950000001 194.75368000000006 L 412.1342650000001 191.35108000000005 L 360.1391450000001 174.45684000000006 L 352.90308500000003 172.10570000000007 Z M 429.07852500000007 192.65076000000005 L 438.97355500000003 195.86585000000005 L 439.55065500000006 196.05336000000005 L 474.1575450000001 207.29782000000006 L 519.2365550000001 192.65076000000005 L 474.1575450000001 130.60483000000005 Z M 523.2365550000001 191.35108000000005 L 594.175935 168.30148000000005 L 479.39360500000004 131.00644000000005 Z M 354.1391450000001 168.30148000000005 L 361.7304650000001 170.76805000000007 L 365.84733500000004 172.10570000000007 L 425.07852500000007 191.35108000000005 L 468.92147500000004 131.00644000000005 Z" stroke-miterlimit="10"/><path fill="none" stroke="#999999" paint-order="fill stroke markers" d=" M 477.49705 770.97668 L 475.99015 771.4663 L 476.92147 770.18446 L 477.49705 770.97668 Z M 472.32492 771.4663 L 470.81804 770.97668 L 471.39362 770.18447 L 472.32492 771.4663 Z M 349.99832 728.48974 L 351.43915 730.47287 L 351.43915 732.18813 L 344.32752 729.87742 L 345.33573 728.48974 L 347.66703 727.73225 L 349.99832 728.48974 Z M 598.3828 731.69852 L 596.87594 732.18813 L 596.87594 731.20891 L 598.3828 731.69852 Z M 602.27936 728.2623 L 601.34806 729.54413 L 601.34806 727.9597 L 602.27936 728.2623 Z M 224.94863 691.08887 L 223.44177 690.59926 L 224.94863 690.10965 L 224.94863 691.08887 Z M 220.47651 688.44487 L 219.54521 687.16305 L 220.47651 686.86045 L 220.47651 688.44487 Z M 680.45481 620.66303 L 676.05956 626.71257 L 675.05137 625.32491 L 675.05137 622.87361 L 676.49218 620.89051 L 678.82355 620.133 L 680.45481 620.66303 Z M 429.18197 622.27816 L 427.6751 622.76778 L 428.6064 621.48595 L 429.18197 622.27816 Z M 346.96703 596.54416 L 346.03572 595.26231 L 346.96703 594.95971 L 346.96703 596.54416 Z M 146.34058 584.82109 L 145.76501 585.61331 L 144.8337 584.33148 L 146.34058 584.82109 Z M 550.06772 583 L 548.56086 583.48961 L 548.56086 582.51039 L 550.06772 583 Z M 144.63238 579.56379 L 143.70107 580.84562 L 143.70107 579.26119 L 144.63238 579.56379 Z M 476.48885 554.3905 L 477.92967 556.37361 L 477.92967 558.82491 L 476.48885 560.80802 L 474.15752 561.56552 L 471.82625 560.80804 L 470.38542 558.82491 L 470.38542 556.37361 L 471.82627 554.39045 L 474.15749 553.63299 L 476.48885 554.3905 Z M 349.99832 513.29122 L 351.43916 515.27437 L 351.43916 517.72563 L 349.99832 519.70878 L 347.66706 520.46626 L 345.33571 519.70876 L 343.8949 517.72565 L 343.8949 515.27437 L 345.33574 513.29122 L 347.66703 512.53373 L 349.99832 513.29122 Z M 754.235 519.11331 L 753.65943 518.32109 L 755.16631 517.83148 L 754.235 519.11331 Z M 756.29894 514.34562 L 755.36763 513.06379 L 756.29894 512.76119 L 756.29894 514.34562 Z M 599.94806 514.34561 L 599.01675 513.06378 L 599.94806 512.76118 L 599.94806 514.34561 Z M 272.83109 492.92035 L 272.25551 493.71257 L 271.3242 492.43074 L 272.83109 492.92035 Z M 554.66429 446.79124 L 556.10511 448.77435 L 556.10511 451.22565 L 554.66429 453.20876 L 552.33296 453.96626 L 550.00169 453.20878 L 548.56086 451.22565 L 548.56086 448.77435 L 550.00171 446.79119 L 552.33293 446.03373 L 554.66429 446.79124 Z M 145.33238 446.79124 L 146.7732 448.77435 L 146.7732 451.22565 L 145.33239 453.20876 L 143.70107 453.7388 L 143.70107 446.26119 L 145.33238 446.79124 Z M 272.83109 407.07965 L 271.3242 407.56926 L 272.25551 406.28743 L 272.83109 407.07965 Z M 349.99832 380.29122 L 351.43915 382.27435 L 351.43915 384.72565 L 349.99832 386.70878 L 347.66705 387.46626 L 345.33572 386.70876 L 343.8949 384.72565 L 343.8949 382.27435 L 345.33573 380.29122 L 347.66703 379.53373 L 349.99832 380.29122 Z M 599.94806 387.23881 L 599.01676 386.93622 L 599.94806 385.65439 L 599.94806 387.23881 Z M 756.29894 387.23881 L 755.36763 386.93621 L 756.29894 385.65437 L 756.29894 387.23881 Z M 755.16631 382.16852 L 753.65943 381.67891 L 754.235 380.88669 L 755.16631 382.16852 Z M 476.48885 339.19198 L 477.92967 341.17509 L 477.92967 343.62639 L 476.48885 345.6095 L 474.15751 346.36701 L 471.82626 345.60953 L 470.38542 343.62638 L 470.38542 341.17509 L 471.82625 339.19196 L 474.15754 338.43448 L 476.48885 339.19198 Z M 144.63238 320.43621 L 143.70107 320.73881 L 143.70107 319.15438 L 144.63238 320.43621 Z M 550.06772 317 L 548.56086 317.48961 L 548.56086 316.51039 L 550.06772 317 Z M 146.34058 315.17891 L 144.8337 315.66852 L 145.76501 314.38669 L 146.34058 315.17891 Z M 346.96703 305.04029 L 346.03572 304.73769 L 346.96703 303.45584 L 346.96703 305.04029 Z M 680.4548 279.33696 L 678.82352 279.867 L 676.49219 279.1095 L 675.05137 277.12638 L 675.05137 274.67509 L 676.05956 273.28743 L 680.4548 279.33696 Z M 429.18199 277.72184 L 428.60641 278.51407 L 427.6751 277.23222 L 429.18199 277.72184 Z M 220.47651 213.13955 L 219.54521 212.83695 L 220.47651 211.55513 L 220.47651 213.13955 Z M 224.94863 209.89035 L 223.44177 209.40074 L 224.94863 208.91113 L 224.94863 209.89035 Z M 351.43915 169.52713 L 349.99832 171.51026 L 347.66703 172.26774 L 345.33572 171.51024 L 344.32752 170.12258 L 351.43915 167.81187 L 351.43915 169.52713 Z M 602.27936 171.73769 L 601.34806 172.04029 L 601.34806 170.45587 L 602.27936 171.73769 Z M 598.3828 168.30148 L 596.87594 168.79109 L 596.87594 167.81187 L 598.3828 168.30148 Z M 471.39362 129.81554 L 470.81804 129.02332 L 472.32494 128.5337 L 471.39362 129.81554 Z M 477.49705 129.02332 L 476.92147 129.81553 L 475.99017 128.5337 L 477.49705 129.02332 Z M 474.82016 556.68725 L 475.22967 557.2509 L 475.22967 557.94762 L 474.82016 558.51127 L 474.15752 558.72657 L 473.49495 558.51128 L 473.08542 557.94762 L 473.08542 557.25089 L 473.49496 556.68721 L 474.1575 556.47194 L 474.82016 556.68725 Z M 348.32962 515.58798 L 348.73916 516.15165 L 348.73916 516.84835 L 348.32962 517.41202 L 347.66705 517.62731 L 347.00441 517.41201 L 346.5949 516.84836 L 346.5949 516.15165 L 347.00444 515.58798 L 347.66703 515.37269 L 348.32962 515.58798 Z M 552.9956 449.08799 L 553.40511 449.65164 L 553.40511 450.34836 L 552.9956 450.91201 L 552.33296 451.12731 L 551.67039 450.91202 L 551.26086 450.34836 L 551.26086 449.65164 L 551.67041 449.08795 L 552.33293 448.87268 L 552.9956 449.08799 Z M 348.32962 382.58798 L 348.73915 383.15164 L 348.73915 383.84836 L 348.32962 384.41202 L 347.66705 384.62731 L 347.00441 384.41201 L 346.5949 383.84836 L 346.5949 383.15164 L 347.00442 382.58798 L 347.66703 382.37269 L 348.32962 382.58798 Z M 474.82016 341.48873 L 475.22967 342.05238 L 475.22967 342.7491 L 474.82016 343.31275 L 474.15751 343.52805 L 473.49496 343.31278 L 473.08542 342.7491 L 473.08542 342.05238 L 473.49495 341.48872 L 474.15752 341.27343 L 474.82016 341.48873 Z" stroke-miterlimit="10"/></g></svg>