<svg version="1.1" xmlns="http://www.w3.org/2000/svg" xmlns:xlink="http://www.w3.org/1999/xlink" width="900" height="900"><defs/><g><path fill="#222222" stroke="#cccccc" paint-order="fill stroke markers" d=" M 389.06082 53.38281 L 389.55846 53.36973 L 390.46554 53.50734 L 391.37954 53.58836 L 391.86001 53.71888 L 392.35216 53.79354 L 393.22085 54.08855 L 394.10638 54.32911 L 394.55639 54.54211 L 395.02774 54.70219 L 395.83111 55.14549 L 396.66038 55.53801 L 397.06582 55.82679 L 397.50175 56.06734 L 398.21464 56.64507 L 398.9619 57.17733 L 399.31024 57.53296 L 399.69703 57.84642 L 400.29712 58.54049 L 400.93915 59.19596 L 401.24042 59.63153 L 401.54511 59.98394 L 401.91618 60.60853 L 402.42132 61.33885 L 433.13886 114.54319 L 433.39528 115.09473 L 433.70589 115.61756 L 433.9897 116.37331 L 434.33009 117.10548 L 434.48549 117.69354 L 434.69928 118.26285 L 434.76671 118.75775 L 435.052 119.83737 L 435.25896 122.3708 L 435.28245 122.54319 L 435.27756 122.5984 L 435.28207 122.65365 L 435.15285 124.00517 L 435.03294 125.35782 L 435.0184 125.41133 L 435.01313 125.46649 L 434.64831 126.77371 L 434.29219 128.08466 L 434.26846 128.13479 L 434.25357 128.18815 L 433.13886 130.54319 L 407.04012 175.74754 L 428.52006 212.95188 L 471.47993 212.95188 L 492.95987 175.74754 L 466.86113 130.54319 L 466.74441 130.29212 L 466.59328 130.06019 L 466.14956 129.01264 L 465.6699 127.9809 L 465.59917 127.71323 L 465.49119 127.45831 L 465.23867 126.34902 L 464.94799 125.24901 L 464.92545 124.97306 L 464.864 124.70313 L 464.81056 123.56675 L 464.71792 122.43272 L 464.74427 122.1571 L 464.73127 121.88059 L 464.87856 120.75259 L 464.98686 119.61989 L 465.06129 119.3532 L 465.09713 119.07871 L 465.44057 117.99416 L 465.74642 116.89823 L 465.87087 116.63531 L 465.95017 116.38488 L 466.34825 115.62675 L 466.86113 114.54319 L 497.57867 61.33885 L 497.80124 61.02176 L 497.98133 60.67879 L 498.61169 59.86715 L 499.20207 59.02607 L 499.47691 58.75312 L 499.71456 58.44713 L 500.4779 57.75902 L 501.207 57.03493 L 501.52559 56.81457 L 501.81334 56.55518 L 502.68577 56.01211 L 503.53094 55.42754 L 503.88336 55.26665 L 504.21222 55.06194 L 505.16652 54.68084 L 506.10139 54.25403 L 506.4766 54.15765 L 506.83637 54.01397 L 507.8429 53.80667 L 508.8382 53.551 L 509.24611 53.51768 L 509.60394 53.44398 L 510.40641 53.42289 L 511.43508 53.33885 L 572.87017 53.33885 L 573.36608 53.38281 L 573.86372 53.36973 L 574.7708 53.50734 L 575.6848 53.58836 L 576.16527 53.71888 L 576.65742 53.79354 L 577.52611 54.08855 L 578.41164 54.32911 L 578.86165 54.54211 L 579.333 54.70219 L 580.13637 55.14549 L 580.96564 55.53801 L 581.37108 55.82679 L 581.80701 56.06734 L 582.5199 56.64507 L 583.26716 57.17733 L 583.6155 57.53296 L 584.00229 57.84642 L 584.60238 58.54049 L 585.24441 59.19596 L 585.54568 59.63153 L 585.85037 59.98394 L 586.22144 60.60853 L 586.72658 61.33885 L 617.44412 114.54319 L 617.70054 115.09473 L 618.01115 115.61756 L 618.29496 116.37331 L 618.63535 117.10548 L 618.79075 117.69354 L 619.00454 118.26285 L 619.07197 118.75775 L 619.35726 119.83737 L 619.56422 122.3708 L 619.58771 122.54319 L 619.58282 122.5984 L 619.58733 122.65365 L 619.45811 124.00517 L 619.3382 125.35782 L 619.32366 125.41133 L 619.31839 125.46649 L 618.95357 126.77371 L 618.59745 128.08466 L 618.57372 128.13479 L 618.55883 128.18815 L 617.44412 130.54319 L 586.72658 183.74754 L 585.10318 186.06032 L 583.09825 188.05146 L 580.77432 189.65885 L 578.20386 190.83236 L 575.46705 191.53539 L 572.87017 191.74754 L 520.67269 191.74754 L 499.19275 228.95188 L 523.1479 270.44341 L 568.92662 296.87377 L 616.83691 296.87377 L 638.31685 259.66943 L 612.21811 214.46508 L 612.10139 214.21401 L 611.95026 213.98208 L 611.50654 212.93453 L 611.02688 211.90279 L 610.95615 211.63512 L 610.84817 211.3802 L 610.59565 210.27091 L 610.30497 209.1709 L 610.28243 208.89495 L 610.22098 208.62502 L 610.16754 207.48864 L 610.0749 206.35461 L 610.10125 206.07899 L 610.08825 205.80248 L 610.23554 204.67448 L 610.34384 203.54178 L 610.41827 203.27509 L 610.45411 203.0006 L 610.79755 201.91605 L 611.1034 200.82012 L 611.22785 200.5572 L 611.30715 200.30677 L 611.70523 199.54864 L 612.21811 198.46508 L 642.93565 145.26074 L 643.15822 144.94365 L 643.33831 144.60068 L 643.96867 143.78904 L 644.55905 142.94796 L 644.83389 142.67501 L 645.07154 142.36902 L 645.83488 141.68091 L 646.56398 140.95682 L 646.88257 140.73646 L 647.17032 140.47707 L 648.04275 139.934 L 648.88792 139.34943 L 649.24034 139.18854 L 649.5692 138.98383 L 650.5235 138.60273 L 651.45837 138.17592 L 651.83358 138.07954 L 652.19335 137.93586 L 653.19988 137.72856 L 654.19518 137.47289 L 654.60309 137.43957 L 654.96092 137.36587 L 655.76339 137.34478 L 656.79206 137.26074 L 718.22715 137.26074 L 718.72306 137.3047 L 719.2207 137.29162 L 720.12778 137.42923 L 721.04178 137.51025 L 721.52225 137.64077 L 722.0144 137.71543 L 722.88309 138.01044 L 723.76862 138.251 L 724.21863 138.464 L 724.68998 138.62408 L 725.49335 139.06738 L 726.32262 139.4599 L 726.72806 139.74868 L 727.16399 139.98923 L 727.87688 140.56696 L 728.62414 141.09922 L 728.97248 141.45485 L 729.35927 141.76831 L 729.95936 142.46238 L 730.60139 143.11785 L 730.90266 143.55342 L 731.20735 143.90583 L 731.57842 144.53042 L 732.08356 145.26074 L 762.8011 198.46508 L 763.05752 199.01662 L 763.36813 199.53945 L 763.65194 200.2952 L 763.99233 201.02737 L 764.14773 201.61543 L 764.36152 202.18474 L 764.42895 202.67964 L 764.71424 203.75926 L 764.9212 206.29269 L 764.94469 206.46508 L 764.9398 206.52029 L 764.94431 206.57554 L 764.81509 207.92706 L 764.69518 209.27971 L 764.68064 209.33322 L 764.67537 209.38838 L 764.31055 210.6956 L 763.95443 212.00655 L 763.9307 212.05668 L 763.91581 212.11004 L 762.8011 214.46508 L 732.08356 267.66943 L 730.46016 269.98221 L 728.45523 271.97335 L 726.1313 273.58074 L 723.56084 274.75425 L 720.82403 275.45728 L 718.22715 275.66943 L 666.02967 275.66943 L 644.54973 312.87377 L 666.02967 350.07812 L 708.98954 350.07812 L 735.08828 304.87377 L 735.31085 304.55668 L 735.49094 304.21371 L 736.1213 303.40207 L 736.71168 302.56099 L 736.98652 302.28804 L 737.22417 301.98205 L 737.98751 301.29394 L 738.71661 300.56985 L 739.03521 300.34949 L 739.32295 300.0901 L 740.19532 299.54707 L 741.04054 298.96246 L 741.39299 298.80155 L 741.72183 298.59686 L 742.6761 298.21577 L 743.611 297.78895 L 743.98621 297.69257 L 744.34598 297.54889 L 745.35251 297.34159 L 746.34781 297.08592 L 746.75572 297.0526 L 747.11355 296.9789 L 747.91602 296.95781 L 748.94469 296.87377 L 810.37978 296.87377 L 810.87569 296.91773 L 811.37333 296.90465 L 812.28041 297.04226 L 813.19441 297.12328 L 813.67488 297.2538 L 814.16703 297.32846 L 815.03572 297.62347 L 815.92125 297.86403 L 816.37126 298.07703 L 816.84261 298.23711 L 817.64598 298.68041 L 818.47525 299.07293 L 818.88069 299.36171 L 819.31662 299.60226 L 820.02951 300.17999 L 820.77677 300.71225 L 821.12511 301.06788 L 821.5119 301.38134 L 822.11199 302.07541 L 822.75402 302.73088 L 823.05529 303.16645 L 823.35998 303.51886 L 823.73105 304.14345 L 824.23619 304.87377 L 854.95373 358.07812 L 855.21015 358.62966 L 855.52076 359.15249 L 855.80457 359.90824 L 856.14496 360.64041 L 856.30036 361.22847 L 856.51415 361.79778 L 856.58158 362.29268 L 856.86687 363.3723 L 857.07383 365.90572 L 857.09732 366.07812 L 857.09243 366.13333 L 857.09694 366.18859 L 856.96771 367.54017 L 856.84781 368.89275 L 856.83327 368.94626 L 856.828 369.00142 L 856.46318 370.30864 L 856.10706 371.61959 L 856.08333 371.66972 L 856.06844 371.72308 L 854.95373 374.07812 L 824.23619 427.28247 L 822.61279 429.59525 L 820.60786 431.58639 L 818.28393 433.19378 L 815.71347 434.36729 L 812.97666 435.07032 L 810.37978 435.28247 L 748.94469 435.28247 L 746.13006 435.03296 L 743.40322 434.29221 L 740.84922 433.08331 L 738.5477 431.44399 L 736.57045 429.42536 L 735.08828 427.28247 L 708.98954 382.07812 L 666.02967 382.07812 L 642.07452 423.56966 L 642.07452 476.43036 L 666.02967 517.9219 L 708.98954 517.9219 L 735.08828 472.71755 L 735.31085 472.40046 L 735.49094 472.05749 L 736.1213 471.24585 L 736.71168 470.40477 L 736.98652 470.13182 L 737.22417 469.82583 L 737.98751 469.13772 L 738.71661 468.41363 L 739.03521 468.19327 L 739.32295 467.93388 L 740.19532 467.39085 L 741.04054 466.80624 L 741.39299 466.64533 L 741.72183 466.44064 L 742.6761 466.05955 L 743.611 465.63273 L 743.98621 465.53635 L 744.34598 465.39267 L 745.35251 465.18537 L 746.34781 464.9297 L 746.75572 464.89638 L 747.11355 464.82268 L 747.91602 464.80159 L 748.94469 464.71755 L 810.37978 464.71755 L 810.87569 464.76151 L 811.37333 464.74843 L 812.28041 464.88604 L 813.19441 464.96706 L 813.67488 465.09758 L 814.16703 465.17224 L 815.03572 465.46725 L 815.92125 465.70781 L 816.37126 465.92081 L 816.84261 466.08089 L 817.64598 466.52419 L 818.47525 466.91671 L 818.88069 467.20549 L 819.31662 467.44604 L 820.02951 468.02377 L 820.77677 468.55603 L 821.12511 468.91166 L 821.5119 469.22512 L 822.11199 469.91919 L 822.75402 470.57466 L 823.05529 471.01023 L 823.35998 471.36264 L 823.73105 471.98723 L 824.23619 472.71755 L 854.95373 525.9219 L 855.21015 526.47344 L 855.52076 526.99627 L 855.80457 527.75202 L 856.14496 528.48419 L 856.30036 529.07225 L 856.51415 529.64156 L 856.58158 530.13646 L 856.86687 531.21608 L 857.07383 533.7495 L 857.09732 533.9219 L 857.09243 533.97711 L 857.09694 534.03237 L 856.96771 535.38395 L 856.84781 536.73653 L 856.83327 536.79004 L 856.828 536.8452 L 856.46318 538.15242 L 856.10706 539.46337 L 856.08333 539.5135 L 856.06844 539.56686 L 854.95373 541.9219 L 824.23619 595.12624 L 822.61279 597.43902 L 820.60786 599.43016 L 818.28392 601.03755 L 815.71347 602.21106 L 812.97666 602.91409 L 810.37978 603.12624 L 748.94469 603.12624 L 746.13006 602.87673 L 743.40322 602.13598 L 740.84922 600.92708 L 738.5477 599.28776 L 736.57045 597.26913 L 735.08828 595.12624 L 708.98954 549.9219 L 666.02967 549.9219 L 644.54973 587.12624 L 666.02967 624.33059 L 718.22715 624.33059 L 718.72306 624.37455 L 719.2207 624.36147 L 720.12778 624.49908 L 721.04178 624.5801 L 721.52225 624.71062 L 722.0144 624.78528 L 722.88309 625.08029 L 723.76862 625.32085 L 724.21863 625.53385 L 724.68998 625.69393 L 725.49335 626.13723 L 726.32262 626.52975 L 726.72806 626.81853 L 727.16399 627.05908 L 727.87688 627.63681 L 728.62414 628.16907 L 728.97248 628.5247 L 729.35927 628.83816 L 729.95936 629.53223 L 730.60139 630.1877 L 730.90266 630.62327 L 731.20735 630.97568 L 731.57842 631.60027 L 732.08356 632.33059 L 762.8011 685.53494 L 763.05752 686.08648 L 763.36813 686.60931 L 763.65194 687.36506 L 763.99233 688.09723 L 764.14773 688.68529 L 764.36152 689.2546 L 764.42895 689.7495 L 764.71424 690.82912 L 764.9212 693.36254 L 764.94469 693.53494 L 764.9398 693.59015 L 764.94431 693.64541 L 764.81508 694.99699 L 764.69518 696.34957 L 764.68064 696.40308 L 764.67537 696.45824 L 764.31055 697.76546 L 763.95443 699.07641 L 763.9307 699.12654 L 763.91581 699.1799 L 762.8011 701.53494 L 732.08356 754.73928 L 730.46016 757.05206 L 728.45523 759.0432 L 726.13129 760.65059 L 723.56084 761.8241 L 720.82403 762.52713 L 718.22715 762.73928 L 656.79206 762.73928 L 653.97743 762.48977 L 651.25059 761.74902 L 648.69659 760.54012 L 646.39507 758.9008 L 644.41782 756.88217 L 642.93565 754.73928 L 612.21811 701.53494 L 612.10139 701.28387 L 611.95026 701.05194 L 611.50654 700.00439 L 611.02688 698.97265 L 610.95615 698.70498 L 610.84817 698.45006 L 610.59565 697.34077 L 610.30497 696.24076 L 610.28243 695.96481 L 610.22098 695.69488 L 610.16754 694.55851 L 610.0749 693.42448 L 610.10125 693.14885 L 610.08825 692.87234 L 610.23554 691.74433 L 610.34384 690.61164 L 610.41827 690.34495 L 610.45411 690.07046 L 610.79755 688.98591 L 611.1034 687.88998 L 611.22785 687.62706 L 611.30715 687.37663 L 611.70523 686.6185 L 612.21811 685.53494 L 638.31685 640.33059 L 616.83691 603.12624 L 568.92662 603.12624 L 523.1479 629.5566 L 499.19275 671.04813 L 520.67269 708.25248 L 572.87017 708.25248 L 573.36608 708.29644 L 573.86372 708.28336 L 574.7708 708.42097 L 575.6848 708.50199 L 576.16527 708.63251 L 576.65742 708.70717 L 577.52611 709.00218 L 578.41164 709.24274 L 578.86165 709.45574 L 579.333 709.61582 L 580.13637 710.05912 L 580.96564 710.45164 L 581.37108 710.74042 L 581.80701 710.98097 L 582.5199 711.5587 L 583.26716 712.09096 L 583.6155 712.44659 L 584.00229 712.76005 L 584.60238 713.45412 L 585.24441 714.10959 L 585.54568 714.54516 L 585.85037 714.89757 L 586.22144 715.52216 L 586.72658 716.25248 L 617.44412 769.45682 L 617.70054 770.00836 L 618.01115 770.53119 L 618.29496 771.28694 L 618.63535 772.01911 L 618.79075 772.60717 L 619.00454 773.17648 L 619.07197 773.67138 L 619.35726 774.751 L 619.56422 777.28443 L 619.58771 777.45682 L 619.58282 777.51203 L 619.58733 777.56728 L 619.45811 778.9188 L 619.3382 780.27145 L 619.32366 780.32496 L 619.31839 780.38012 L 618.95357 781.68734 L 618.59745 782.99829 L 618.57372 783.04842 L 618.55883 783.10178 L 617.44412 785.45682 L 586.72658 838.66117 L 585.10318 840.97395 L 583.09825 842.96509 L 580.77432 844.57248 L 578.20386 845.74599 L 575.46705 846.44902 L 572.87017 846.66117 L 511.43508 846.66117 L 508.62045 846.41166 L 505.89361 845.67091 L 503.33961 844.46201 L 501.03809 842.82269 L 499.06084 840.80406 L 497.57867 838.66117 L 466.86113 785.45682 L 466.74441 785.20575 L 466.59328 784.97382 L 466.14956 783.92627 L 465.6699 782.89453 L 465.59917 782.62686 L 465.49119 782.37194 L 465.23867 781.26265 L 464.94799 780.16264 L 464.92545 779.88669 L 464.864 779.61676 L 464.81056 778.48038 L 464.71792 777.34635 L 464.74427 777.07073 L 464.73127 776.79422 L 464.87856 775.66622 L 464.98686 774.53352 L 465.06129 774.26683 L 465.09713 773.99234 L 465.44057 772.90779 L 465.74642 771.81186 L 465.87087 771.54894 L 465.95017 771.29851 L 466.34825 770.54038 L 466.86113 769.45682 L 492.95987 724.25248 L 471.47993 687.04813 L 428.52006 687.04813 L 407.04012 724.25248 L 433.13886 769.45682 L 433.39528 770.00836 L 433.70589 770.53119 L 433.9897 771.28694 L 434.33009 772.01911 L 434.48549 772.60717 L 434.69928 773.17648 L 434.76671 773.67138 L 435.052 774.751 L 435.25896 777.28443 L 435.28245 777.45682 L 435.27756 777.51203 L 435.28207 777.56728 L 435.15285 778.9188 L 435.03294 780.27145 L 435.0184 780.32496 L 435.01313 780.38012 L 434.64831 781.68734 L 434.29219 782.99829 L 434.26846 783.04842 L 434.25357 783.10178 L 433.13886 785.45682 L 402.42132 838.66117 L 400.79792 840.97395 L 398.79299 842.96509 L 396.46906 844.57248 L 393.8986 845.74599 L 391.16179 846.44902 L 388.56491 846.66117 L 327.12982 846.66117 L 324.31519 846.41166 L 321.58835 845.67091 L 319.03435 844.46201 L 316.73283 842.82269 L 314.75558 840.80406 L 313.27341 838.66117 L 282.55587 785.45682 L 282.43915 785.20575 L 282.28802 784.97382 L 281.8443 783.92627 L 281.36464 782.89453 L 281.29391 782.62686 L 281.18593 782.37194 L 280.93341 781.26265 L 280.64273 780.16264 L 280.62019 779.88669 L 280.55874 779.61676 L 280.5053 778.48038 L 280.41266 777.34635 L 280.43901 777.07073 L 280.42601 776.79422 L 280.5733 775.66622 L 280.6816 774.53352 L 280.75603 774.26683 L 280.79187 773.99234 L 281.13531 772.90779 L 281.44116 771.81186 L 281.56561 771.54894 L 281.64491 771.29851 L 282.04299 770.54038 L 282.55587 769.45682 L 313.27341 716.25248 L 313.49598 715.93539 L 313.67607 715.59242 L 314.30643 714.78078 L 314.89681 713.9397 L 315.17165 713.66675 L 315.4093 713.36076 L 316.17264 712.67265 L 316.90174 711.94856 L 317.22033 711.7282 L 317.50808 711.46881 L 318.38051 710.92574 L 319.22568 710.34117 L 319.5781 710.18028 L 319.90696 709.97557 L 320.86126 709.59447 L 321.79613 709.16766 L 322.17134 709.07128 L 322.53111 708.9276 L 323.53764 708.7203 L 324.53294 708.46463 L 324.94085 708.43131 L 325.29868 708.35761 L 326.10115 708.33652 L 327.12982 708.25248 L 379.3273 708.25248 L 400.80724 671.04813 L 376.85209 629.5566 L 331.07337 603.12624 L 283.16309 603.12624 L 261.68314 640.33059 L 287.78189 685.53494 L 288.03831 686.08648 L 288.34892 686.60931 L 288.63273 687.36506 L 288.97312 688.09723 L 289.12852 688.68529 L 289.34231 689.2546 L 289.40974 689.7495 L 289.69503 690.82912 L 289.90199 693.36255 L 289.92548 693.53494 L 289.92059 693.59015 L 289.9251 693.6454 L 289.79588 694.99692 L 289.67597 696.34957 L 289.66143 696.40308 L 289.65616 696.45824 L 289.29134 697.76546 L 288.93522 699.07641 L 288.91149 699.12654 L 288.8966 699.1799 L 287.78189 701.53494 L 257.06434 754.73928 L 255.44094 757.05206 L 253.43601 759.0432 L 251.11207 760.65059 L 248.54162 761.8241 L 245.80481 762.52713 L 243.20793 762.73928 L 181.77285 762.73928 L 178.95822 762.48977 L 176.23138 761.74902 L 173.67738 760.54012 L 171.37586 758.9008 L 169.39861 756.88217 L 167.91644 754.73928 L 137.19889 701.53494 L 137.08217 701.28387 L 136.93104 701.05194 L 136.48732 700.00439 L 136.00766 698.97265 L 135.93693 698.70498 L 135.82895 698.45006 L 135.57639 697.34061 L 135.28576 696.24076 L 135.26322 695.96487 L 135.20176 695.69488 L 135.14832 694.55839 L 135.05568 693.42448 L 135.08203 693.14885 L 135.06903 692.87234 L 135.21632 691.74433 L 135.32462 690.61164 L 135.39905 690.34495 L 135.43489 690.07046 L 135.77833 688.98591 L 136.08418 687.88998 L 136.20863 687.62706 L 136.28793 687.37663 L 136.68601 686.6185 L 137.19889 685.53494 L 167.91644 632.33059 L 168.13901 632.0135 L 168.3191 631.67053 L 168.94946 630.85889 L 169.53984 630.01781 L 169.81468 629.74486 L 170.05233 629.43887 L 170.81567 628.75076 L 171.54477 628.02667 L 171.86336 627.80631 L 172.15111 627.54692 L 173.02354 627.00385 L 173.86871 626.41928 L 174.22113 626.25839 L 174.54999 626.05368 L 175.50429 625.67258 L 176.43916 625.24577 L 176.81437 625.14939 L 177.17414 625.00571 L 178.18067 624.79841 L 179.17597 624.54274 L 179.58388 624.50942 L 179.94171 624.43572 L 180.74418 624.41463 L 181.77285 624.33059 L 233.97032 624.33059 L 255.45027 587.12624 L 233.97032 549.9219 L 191.01046 549.9219 L 164.91171 595.12624 L 163.28831 597.43902 L 161.28338 599.43016 L 158.95944 601.03755 L 156.38899 602.21106 L 153.65218 602.91409 L 151.0553 603.12624 L 89.62022 603.12624 L 86.80559 602.87673 L 84.07875 602.13598 L 81.52475 600.92708 L 79.22323 599.28776 L 77.24598 597.26913 L 75.76381 595.12624 L 45.04626 541.9219 L 44.92954 541.67083 L 44.77841 541.4389 L 44.33469 540.39135 L 43.85503 539.35961 L 43.7843 539.09194 L 43.67632 538.83702 L 43.42376 537.72757 L 43.13313 536.62772 L 43.11059 536.35183 L 43.04913 536.08184 L 42.99569 534.94535 L 42.90305 533.81144 L 42.9294 533.53581 L 42.9164 533.2593 L 43.06369 532.13129 L 43.17199 530.9986 L 43.24642 530.73191 L 43.28226 530.45742 L 43.6257 529.37287 L 43.93155 528.27694 L 44.056 528.01402 L 44.1353 527.76359 L 44.53338 527.00546 L 45.04626 525.9219 L 75.76381 472.71755 L 75.98638 472.40046 L 76.16647 472.05749 L 76.79683 471.24585 L 77.38721 470.40477 L 77.66205 470.13182 L 77.8997 469.82583 L 78.66304 469.13772 L 79.39214 468.41363 L 79.71073 468.19327 L 79.99848 467.93388 L 80.87091 467.39081 L 81.71608 466.80624 L 82.0685 466.64535 L 82.39736 466.44064 L 83.35166 466.05954 L 84.28653 465.63273 L 84.66174 465.53635 L 85.02151 465.39267 L 86.02804 465.18537 L 87.02334 464.9297 L 87.43125 464.89638 L 87.78908 464.82268 L 88.59155 464.80159 L 89.62022 464.71755 L 151.0553 464.71755 L 151.55121 464.76151 L 152.04885 464.74843 L 152.95593 464.88604 L 153.86993 464.96706 L 154.3504 465.09758 L 154.84255 465.17224 L 155.71124 465.46725 L 156.59677 465.70781 L 157.04678 465.92081 L 157.51813 466.08089 L 158.3215 466.52419 L 159.15077 466.91671 L 159.55621 467.20549 L 159.99214 467.44604 L 160.70503 468.02377 L 161.45229 468.55603 L 161.80063 468.91166 L 162.18742 469.22512 L 162.78751 469.91919 L 163.42954 470.57466 L 163.73081 471.01023 L 164.0355 471.36264 L 164.40657 471.98723 L 164.91171 472.71755 L 191.01046 517.9219 L 233.97032 517.9219 L 257.92548 476.43036 L 257.92548 423.56966 L 233.97032 382.07812 L 191.01046 382.07812 L 164.91171 427.28247 L 163.28831 429.59525 L 161.28338 431.58639 L 158.95944 433.19378 L 156.38899 434.36729 L 153.65218 435.07032 L 151.0553 435.28247 L 89.62022 435.28247 L 86.80559 435.03296 L 84.07875 434.29221 L 81.52475 433.08331 L 79.22323 431.44399 L 77.24598 429.42536 L 75.76381 427.28247 L 45.04626 374.07812 L 44.92954 373.82705 L 44.77841 373.59512 L 44.33469 372.54757 L 43.85503 371.51583 L 43.7843 371.24816 L 43.67632 370.99324 L 43.4238 369.88395 L 43.13312 368.78394 L 43.11058 368.50799 L 43.04913 368.23806 L 42.99569 367.10169 L 42.90305 365.96766 L 42.9294 365.69203 L 42.9164 365.41552 L 43.06369 364.28751 L 43.17199 363.15482 L 43.24642 362.88813 L 43.28226 362.61364 L 43.6257 361.52909 L 43.93155 360.43316 L 44.056 360.17024 L 44.1353 359.91981 L 44.53338 359.16168 L 45.04626 358.07812 L 75.76381 304.87377 L 75.98638 304.55668 L 76.16647 304.21371 L 76.79683 303.40207 L 77.38721 302.56099 L 77.66205 302.28804 L 77.8997 301.98205 L 78.66304 301.29394 L 79.39214 300.56985 L 79.71073 300.34949 L 79.99848 300.0901 L 80.87091 299.54703 L 81.71608 298.96246 L 82.0685 298.80157 L 82.39736 298.59686 L 83.35166 298.21576 L 84.28653 297.78895 L 84.66174 297.69257 L 85.02151 297.54889 L 86.02804 297.34159 L 87.02334 297.08592 L 87.43125 297.0526 L 87.78908 296.9789 L 88.59155 296.95781 L 89.62022 296.87377 L 151.0553 296.87377 L 151.55121 296.91773 L 152.04885 296.90465 L 152.95593 297.04226 L 153.86993 297.12328 L 154.3504 297.2538 L 154.84255 297.32846 L 155.71124 297.62347 L 156.59677 297.86403 L 157.04678 298.07703 L 157.51813 298.23711 L 158.3215 298.68041 L 159.15077 299.07293 L 159.55621 299.36171 L 159.99214 299.60226 L 160.70503 300.17999 L 161.45229 300.71225 L 161.80063 301.06788 L 162.18742 301.38134 L 162.78751 302.07541 L 163.42954 302.73088 L 163.73081 303.16645 L 164.0355 303.51886 L 164.40657 304.14345 L 164.91171 304.87377 L 191.01046 350.07812 L 233.97032 350.07812 L 255.45027 312.87377 L 233.97032 275.66943 L 181.77285 275.66943 L 178.95822 275.41992 L 176.23138 274.67917 L 173.67738 273.47027 L 171.37586 271.83095 L 169.39861 269.81232 L 167.91644 267.66943 L 137.19889 214.46508 L 137.08217 214.21401 L 136.93104 213.98208 L 136.48732 212.93453 L 136.00766 211.90279 L 135.93693 211.63512 L 135.82895 211.3802 L 135.57643 210.27091 L 135.28575 209.1709 L 135.26321 208.89495 L 135.20176 208.62502 L 135.14832 207.48865 L 135.05568 206.35462 L 135.08203 206.07899 L 135.06903 205.80248 L 135.21632 204.67447 L 135.32462 203.54178 L 135.39905 203.27509 L 135.43489 203.0006 L 135.77833 201.91605 L 136.08418 200.82012 L 136.20863 200.5572 L 136.28793 200.30677 L 136.68601 199.54864 L 137.19889 198.46508 L 167.91644 145.26074 L 168.13901 144.94365 L 168.3191 144.60068 L 168.94946 143.78904 L 169.53984 142.94796 L 169.81468 142.67501 L 170.05233 142.36902 L 170.81567 141.68091 L 171.54477 140.95682 L 171.86336 140.73646 L 172.15111 140.47707 L 173.02354 139.934 L 173.86871 139.34943 L 174.22113 139.18854 L 174.54999 138.98383 L 175.50429 138.60273 L 176.43916 138.17592 L 176.81437 138.07954 L 177.17414 137.93586 L 178.18067 137.72856 L 179.17597 137.47289 L 179.58388 137.43957 L 179.94171 137.36587 L 180.74418 137.34478 L 181.77285 137.26074 L 243.20793 137.26074 L 243.70384 137.3047 L 244.20148 137.29162 L 245.10856 137.42923 L 246.02256 137.51025 L 246.50303 137.64077 L 246.99518 137.71543 L 247.86387 138.01044 L 248.7494 138.251 L 249.19941 138.464 L 249.67076 138.62408 L 250.47413 139.06738 L 251.3034 139.4599 L 251.70884 139.74868 L 252.14477 139.98923 L 252.85766 140.56696 L 253.60492 141.09922 L 253.95326 141.45485 L 254.34005 141.76831 L 254.94014 142.46238 L 255.58217 143.11785 L 255.88344 143.55342 L 256.18813 143.90583 L 256.5592 144.53042 L 257.06434 145.26074 L 287.78189 198.46508 L 288.03831 199.01662 L 288.34892 199.53945 L 288.63273 200.2952 L 288.97312 201.02737 L 289.12851 201.61542 L 289.34231 202.18474 L 289.40974 202.67969 L 289.69502 203.75926 L 289.90199 206.29268 L 289.92548 206.46508 L 289.92059 206.52029 L 289.9251 206.57554 L 289.79588 207.92706 L 289.67597 209.27971 L 289.66143 209.33322 L 289.65616 209.38838 L 289.29134 210.6956 L 288.93522 212.00655 L 288.91149 212.05668 L 288.8966 212.11004 L 287.78189 214.46508 L 261.68314 259.66943 L 283.16309 296.87377 L 331.07337 296.87377 L 376.85209 270.44341 L 400.80724 228.95188 L 379.3273 191.74754 L 327.12982 191.74754 L 324.31519 191.49803 L 321.58835 190.75728 L 319.03435 189.54838 L 316.73283 187.90906 L 314.75558 185.89043 L 313.27341 183.74754 L 282.55587 130.54319 L 282.43915 130.29212 L 282.28802 130.06019 L 281.8443 129.01264 L 281.36464 127.9809 L 281.29391 127.71323 L 281.18593 127.45831 L 280.93341 126.34902 L 280.64273 125.24901 L 280.62019 124.97306 L 280.55874 124.70313 L 280.5053 123.56675 L 280.41266 122.43272 L 280.43901 122.1571 L 280.42601 121.88059 L 280.5733 120.75259 L 280.6816 119.61989 L 280.75603 119.3532 L 280.79187 119.07871 L 281.13531 117.99416 L 281.44116 116.89823 L 281.56561 116.63531 L 281.64491 116.38488 L 282.04299 115.62675 L 282.55587 114.54319 L 313.27341 61.33885 L 313.49598 61.02176 L 313.67607 60.67879 L 314.30643 59.86715 L 314.89681 59.02607 L 315.17165 58.75312 L 315.4093 58.44713 L 316.17264 57.75902 L 316.90174 57.03493 L 317.22033 56.81457 L 317.50808 56.55518 L 318.38051 56.01211 L 319.22568 55.42754 L 319.5781 55.26665 L 319.90696 55.06194 L 320.86126 54.68084 L 321.79613 54.25403 L 322.17134 54.15765 L 322.53111 54.01397 L 323.53764 53.80667 L 324.53294 53.551 L 324.94085 53.51768 L 325.29868 53.44398 L 326.10115 53.42289 L 327.12982 53.33885 L 388.56491 53.33885 Z M 520.67269 740.25248 L 499.19275 777.45682 L 520.67269 814.66117 L 563.63256 814.66117 L 585.1125 777.45682 L 563.63256 740.25248 Z M 336.36743 740.25248 L 314.88749 777.45682 L 336.36743 814.66117 L 379.3273 814.66117 L 400.80724 777.45682 L 379.3273 740.25248 Z M 666.02967 656.33059 L 644.54973 693.53494 L 666.02967 730.73928 L 708.98954 730.73928 L 730.46948 693.53494 L 708.98954 656.33059 Z M 191.01046 656.33059 L 169.53051 693.53494 L 191.01046 730.73928 L 233.97032 730.73928 L 255.45027 693.53494 L 233.97032 656.33059 Z M 449.76925 600.98265 L 410.42132 623.7002 L 428.52006 655.04813 L 471.47993 655.04813 L 489.57867 623.7002 L 450.23074 600.98265 L 450.04939 600.85535 L 449.99356 600.8275 Z M 351.36056 534.92877 L 351.36056 577.88863 L 388.56491 599.36858 L 425.76925 577.88863 L 425.76925 534.92877 L 388.56491 513.44882 Z M 474.23074 534.92877 L 474.23074 577.88863 L 511.43508 599.36858 L 548.63943 577.88863 L 548.63943 534.92877 L 511.43508 513.44882 Z M 758.1823 496.71755 L 736.70236 533.9219 L 758.1823 571.12624 L 801.14217 571.12624 L 822.62211 533.9219 L 801.14217 496.71755 Z M 580.87017 525.29151 L 580.61642 525.40948 L 580.63943 525.69116 L 580.63943 571.12624 L 616.83691 571.12624 L 638.31685 533.9219 L 620.21811 502.57396 Z M 261.68314 533.9219 L 283.16309 571.12624 L 319.36056 571.12624 L 319.36056 525.69116 L 319.38527 525.41242 L 319.12982 525.29151 L 279.78189 502.57396 Z M 98.85783 496.71755 L 77.37788 533.9219 L 98.85783 571.12624 L 141.81769 571.12624 L 163.29764 533.9219 L 141.81769 496.71755 Z M 449.76925 388.16527 L 396.56491 418.88281 L 396.31116 419.00078 L 396.33417 419.28247 L 396.33417 480.71755 L 396.30946 480.99629 L 396.56491 481.1172 L 449.76925 511.83475 L 449.9983 511.99552 L 450.23074 511.83475 L 503.43508 481.1172 L 503.68883 480.99923 L 503.66582 480.71755 L 503.66582 419.28247 L 503.69053 419.00372 L 503.43508 418.88281 L 450.23074 388.16527 L 450.00169 388.0045 Z M 289.92548 428.52008 L 289.92548 471.47994 L 327.12982 492.95989 L 364.33417 471.47994 L 364.33417 428.52008 L 327.12982 407.04013 Z M 535.66582 428.52008 L 535.66582 471.47994 L 572.87017 492.95989 L 610.07452 471.47994 L 610.07452 428.52008 L 572.87017 407.04013 Z M 758.1823 328.87377 L 736.70236 366.07812 L 758.1823 403.28247 L 801.14217 403.28247 L 822.62211 366.07812 L 801.14217 328.87377 Z M 98.85783 328.87377 L 77.37788 366.07812 L 98.85783 403.28247 L 141.81769 403.28247 L 163.29764 366.07812 L 141.81769 328.87377 Z M 283.16309 328.87377 L 261.68314 366.07812 L 279.78189 397.42606 L 319.12982 374.70851 L 319.38357 374.59054 L 319.36056 374.30886 L 319.36056 328.87377 Z M 580.63943 328.87377 L 580.63943 374.30886 L 580.61472 374.5876 L 580.87017 374.70851 L 620.21811 397.42606 L 638.31685 366.07812 L 616.83691 328.87377 Z M 351.36056 322.11138 L 351.36056 365.07125 L 388.56491 386.55119 L 425.76925 365.07125 L 425.76925 322.11138 L 388.56491 300.63144 Z M 474.23074 322.11138 L 474.23074 365.07125 L 511.43508 386.55119 L 548.63943 365.07125 L 548.63943 322.11138 L 511.43508 300.63144 Z M 428.52006 244.95188 L 410.42132 276.29982 L 449.76925 299.01736 L 449.9983 299.17813 L 450.23074 299.01736 L 489.57867 276.29982 L 471.47993 244.95188 Z M 666.02967 169.26074 L 644.54973 206.46508 L 666.02967 243.66943 L 708.98954 243.66943 L 730.46948 206.46508 L 708.98954 169.26074 Z M 191.01046 169.26074 L 169.53051 206.46508 L 191.01046 243.66943 L 233.97032 243.66943 L 255.45027 206.46508 L 233.97032 169.26074 Z M 520.67269 85.33885 L 499.19275 122.54319 L 520.67269 159.74754 L 563.63256 159.74754 L 585.1125 122.54319 L 563.63256 85.33885 Z M 336.36743 85.33885 L 314.88749 122.54319 L 336.36743 159.74754 L 379.3273 159.74754 L 400.80724 122.54319 L 379.3273 85.33885 Z" stroke-miterlimit="10"/><path fill="none" stroke="#cccccc" paint-order="fill stroke markers" d=" M 511.4350825196388 282.15623002072243 L 458.230736625734 312.87377344462607 L 458.230736625734 312.87377344462607 L 458.23073662573364 374.3088602924338 L 458.23073662573364 374.3088602924338 L 511.4350825196381 405.0264037163379 L 511.4350825196381 405.0264037163379 L 564.6394284135431 374.30886029243436 L 564.6394284135431 374.30886029243436 L 564.6394284135434 312.87377344462664 L 511.4350825196388 282.15623002072243 L 511.4350825196388 282.15623002072243 L 480.71753909573533 228.95188412681762 L 480.71753909573533 228.95188412681762 L 419.2824522479276 228.95188412681728 L 419.2824522479276 228.95188412681728 L 388.5649088240234 282.15623002072186 L 335.36056293011785 312.8737734446263 L 335.36056293011785 312.8737734446263 L 335.3605629301181 374.3088602924331 L 335.3605629301181 374.3088602924331 L 388.5649088240227 405.0264037163373 L 388.5649088240227 405.0264037163373 L 441.76925471792754 374.3088602924337 L 441.76925471792754 374.3088602924337 L 441.7692547179273 312.8737734446263 L 388.56490882402255 282.15623002072243 L 388.56490882402255 282.15623002072243" stroke-miterlimit="10"/><path fill="none" stroke="#cccccc" paint-order="fill stroke markers" d=" M 441.7692547179273 312.8737734446263 L 441.7692547179273 312.8737734446263" stroke-miterlimit="10"/><path fill="none" stroke="#cccccc" paint-order="fill stroke markers" d=" M 335.36056293011785 312.8737734446263 L 273.9254760823101 312.8737734446263 L 243.20793265840615 366.07811933853105 L 273.92547608231 419.2824652324359 L 273.92547608231 480.71755208024365 L 243.20793265840604 533.9218979741484 L 273.9254760823099 587.1262438680529 L 243.20793265840604 640.3305897619578 L 181.7728458105983 640.3305897619578 L 151.05530238669445 693.5349356558625 L 181.7728458105982 746.7392815497672 L 243.20793265840592 746.7392815497672 L 273.9254760823099 693.5349356558627 L 243.20793265840604 640.3305897619578 L 243.20793265840604 640.3305897619578" stroke-miterlimit="10"/><path fill="none" stroke="#cccccc" paint-order="fill stroke markers" d=" M 273.9254760823101 312.8737734446263 L 273.9254760823101 312.8737734446263 L 243.20793265840626 259.6694275507216 L 273.9254760823101 206.46508165681686 L 243.20793265840626 153.26073576291213 L 181.77284581059854 153.26073576291213 L 151.05530238669468 206.46508165681686 L 181.77284581059854 259.6694275507216 L 243.20793265840626 259.6694275507216" stroke-miterlimit="10"/><path fill="none" stroke="#cccccc" paint-order="fill stroke markers" d=" M 273.9254760823101 206.46508165681686 L 273.9254760823101 206.46508165681686" stroke-miterlimit="10"/><path fill="none" stroke="#cccccc" paint-order="fill stroke markers" d=" M 243.20793265840626 153.26073576291213 L 243.20793265840626 153.26073576291213" stroke-miterlimit="10"/><path fill="none" stroke="#cccccc" paint-order="fill stroke markers" d=" M 181.77284581059854 153.26073576291213 L 181.77284581059854 153.26073576291213" stroke-miterlimit="10"/><path fill="none" stroke="#cccccc" paint-order="fill stroke markers" d=" M 151.05530238669468 206.46508165681686 L 151.05530238669468 206.46508165681686" stroke-miterlimit="10"/><path fill="none" stroke="#cccccc" paint-order="fill stroke markers" d=" M 243.20793265840615 366.07811933853105 L 243.20793265840615 366.07811933853105 L 181.77284581059843 366.07811933853105 L 151.05530238669468 312.8737734446263 L 89.62021553888701 312.8737734446263 L 58.90267211498315 366.07811933853105 L 89.6202155388869 419.2824652324358 L 151.05530238669456 419.2824652324359 L 181.77284581059843 366.07811933853117 L 181.77284581059843 366.07811933853105" stroke-miterlimit="10"/><path fill="none" stroke="#cccccc" paint-order="fill stroke markers" d=" M 151.05530238669468 312.8737734446263 L 151.05530238669468 312.8737734446263" stroke-miterlimit="10"/><path fill="none" stroke="#cccccc" paint-order="fill stroke markers" d=" M 89.62021553888701 312.8737734446263 L 89.62021553888701 312.8737734446263" stroke-miterlimit="10"/><path fill="none" stroke="#cccccc" paint-order="fill stroke markers" d=" M 58.90267211498315 366.07811933853105 L 58.90267211498315 366.07811933853105" stroke-miterlimit="10"/><path fill="none" stroke="#cccccc" paint-order="fill stroke markers" d=" M 273.92547608231 480.71755208024365 L 273.92547608231 480.71755208024365 L 327.12982197621477 511.4350955041476 L 327.12982197621477 511.4350955041476 L 380.3341678701195 480.71755208024376 L 380.3341678701195 480.71755208024376 L 380.3341678701195 419.28246523243604 L 380.3341678701195 419.28246523243604 L 327.12982197621477 388.56492180853206 L 327.12982197621477 388.56492180853206 L 273.92547608231 419.2824652324359 L 273.92547608231 419.2824652324359" stroke-miterlimit="10"/><path fill="none" stroke="#cccccc" paint-order="fill stroke markers" d=" M 243.20793265840604 533.9218979741484 L 243.20793265840604 533.9218979741484 L 181.7728458105983 533.9218979741482 L 151.05530238669445 480.71755208024354 L 89.62021553888678 480.71755208024354 L 58.90267211498292 533.9218979741482 L 89.62021553888678 587.1262438680529 L 151.05530238669445 587.1262438680529 L 181.7728458105983 533.9218979741482 L 181.7728458105983 533.9218979741482" stroke-miterlimit="10"/><path fill="none" stroke="#cccccc" paint-order="fill stroke markers" d=" M 151.05530238669445 480.71755208024354 L 151.05530238669445 480.71755208024354" stroke-miterlimit="10"/><path fill="none" stroke="#cccccc" paint-order="fill stroke markers" d=" M 89.62021553888678 480.71755208024354 L 89.62021553888678 480.71755208024354" stroke-miterlimit="10"/><path fill="none" stroke="#cccccc" paint-order="fill stroke markers" d=" M 58.90267211498292 533.9218979741482 L 58.90267211498292 533.9218979741482" stroke-miterlimit="10"/><path fill="none" stroke="#cccccc" paint-order="fill stroke markers" d=" M 273.9254760823099 587.1262438680529 L 335.3605629301176 587.1262438680532 L 388.5649088240223 617.843787291957 L 419.2824522479262 671.0481331858618 L 388.5649088240222 724.2524790797665 L 327.12982197621454 724.2524790797665 L 296.41227855231057 777.456824973671 L 327.12982197621443 830.661170867576 L 388.5649088240221 830.661170867576 L 419.28245224792596 777.4568249736712 L 388.5649088240222 724.2524790797665 L 388.5649088240222 724.2524790797665" stroke-miterlimit="10"/><path fill="none" stroke="#cccccc" paint-order="fill stroke markers" d=" M 181.7728458105983 640.3305897619578 L 181.7728458105983 640.3305897619578" stroke-miterlimit="10"/><path fill="none" stroke="#cccccc" paint-order="fill stroke markers" d=" M 151.05530238669445 693.5349356558625 L 151.05530238669445 693.5349356558625" stroke-miterlimit="10"/><path fill="none" stroke="#cccccc" paint-order="fill stroke markers" d=" M 273.9254760823099 693.5349356558627 L 273.9254760823099 693.5349356558627" stroke-miterlimit="10"/><path fill="none" stroke="#cccccc" paint-order="fill stroke markers" d=" M 388.5649088240223 617.843787291957 L 388.5649088240223 617.843787291957 L 441.7692547179271 587.1262438680532 L 441.7692547179272 525.6911570202456 L 388.56490882402244 494.97361359634164 L 335.36056293011774 525.6911570202453 L 335.3605629301176 587.1262438680532" stroke-miterlimit="10"/><path fill="none" stroke="#cccccc" paint-order="fill stroke markers" d=" M 441.7692547179271 587.1262438680532 L 441.7692547179271 587.1262438680532" stroke-miterlimit="10"/><path fill="none" stroke="#cccccc" paint-order="fill stroke markers" d=" M 441.7692547179272 525.6911570202456 L 441.7692547179272 525.6911570202456" stroke-miterlimit="10"/><path fill="none" stroke="#cccccc" paint-order="fill stroke markers" d=" M 388.56490882402244 494.97361359634164 L 388.56490882402244 494.97361359634164" stroke-miterlimit="10"/><path fill="none" stroke="#cccccc" paint-order="fill stroke markers" d=" M 335.36056293011774 525.6911570202453 L 335.36056293011774 525.6911570202453" stroke-miterlimit="10"/><path fill="none" stroke="#cccccc" paint-order="fill stroke markers" d=" M 419.2824522479262 671.0481331858618 L 480.7175390957339 671.0481331858621 L 511.4350825196379 617.8437872919573 L 564.6394284135426 587.1262438680535 L 564.6394284135428 525.6911570202458 L 511.4350825196381 494.97361359634186 L 458.23073662573324 525.6911570202456 L 458.23073662573313 587.1262438680535 L 511.4350825196379 617.8437872919573 L 511.4350825196379 617.8437872919573" stroke-miterlimit="10"/><path fill="none" stroke="#cccccc" paint-order="fill stroke markers" d=" M 327.12982197621454 724.2524790797665 L 327.12982197621454 724.2524790797665" stroke-miterlimit="10"/><path fill="none" stroke="#cccccc" paint-order="fill stroke markers" d=" M 296.41227855231057 777.456824973671 L 296.41227855231057 777.456824973671" stroke-miterlimit="10"/><path fill="none" stroke="#cccccc" paint-order="fill stroke markers" d=" M 419.28245224792596 777.4568249736712 L 419.28245224792596 777.4568249736712" stroke-miterlimit="10"/><path fill="none" stroke="#cccccc" paint-order="fill stroke markers" d=" M 480.7175390957339 671.0481331858621 L 511.43508251963766 724.2524790797668 L 480.7175390957338 777.4568249736715 L 511.43508251963755 830.6611708675762 L 572.8701693674452 830.6611708675764 L 603.5877127913491 777.4568249736717 L 572.8701693674454 724.252479079767 L 511.4350825196378 724.2524790797668 L 511.43508251963766 724.2524790797668" stroke-miterlimit="10"/><path fill="none" stroke="#cccccc" paint-order="fill stroke markers" d=" M 480.7175390957338 777.4568249736715 L 480.7175390957338 777.4568249736715" stroke-miterlimit="10"/><path fill="none" stroke="#cccccc" paint-order="fill stroke markers" d=" M 603.5877127913491 777.4568249736717 L 603.5877127913491 777.4568249736717" stroke-miterlimit="10"/><path fill="none" stroke="#cccccc" paint-order="fill stroke markers" d=" M 572.8701693674454 724.252479079767 L 572.8701693674454 724.252479079767" stroke-miterlimit="10"/><path fill="none" stroke="#cccccc" paint-order="fill stroke markers" d=" M 564.6394284135426 587.1262438680535 L 626.0745152613505 587.1262438680537 L 656.7920586852543 533.921897974149 L 626.0745152613507 480.7175520802442 L 626.0745152613507 419.2824652324365 L 656.7920586852548 366.0781193385319 L 626.0745152613512 312.8737734446269 L 564.6394284135434 312.8737734446265 L 564.6394284135434 312.8737734446265" stroke-miterlimit="10"/><path fill="none" stroke="#cccccc" paint-order="fill stroke markers" d=" M 564.6394284135428 525.6911570202458 L 564.6394284135428 525.6911570202458" stroke-miterlimit="10"/><path fill="none" stroke="#cccccc" paint-order="fill stroke markers" d=" M 511.4350825196381 494.97361359634186 L 511.4350825196381 494.97361359634186" stroke-miterlimit="10"/><path fill="none" stroke="#cccccc" paint-order="fill stroke markers" d=" M 458.23073662573324 525.6911570202456 L 458.23073662573324 525.6911570202456" stroke-miterlimit="10"/><path fill="none" stroke="#cccccc" paint-order="fill stroke markers" d=" M 458.23073662573313 587.1262438680535 L 458.23073662573313 587.1262438680535" stroke-miterlimit="10"/><path fill="none" stroke="#cccccc" paint-order="fill stroke markers" d=" M 626.0745152613505 587.1262438680537 L 656.792058685254 640.3305897619587 L 626.0745152613503 693.5349356558631 L 656.7920586852538 746.7392815497681 L 718.2271455330615 746.7392815497681 L 748.9446889569656 693.5349356558636 L 718.2271455330617 640.3305897619587 L 656.792058685254 640.3305897619587 L 656.792058685254 640.3305897619587" stroke-miterlimit="10"/><path fill="none" stroke="#cccccc" paint-order="fill stroke markers" d=" M 626.0745152613503 693.5349356558631 L 626.0745152613503 693.5349356558631" stroke-miterlimit="10"/><path fill="none" stroke="#cccccc" paint-order="fill stroke markers" d=" M 748.9446889569656 693.5349356558636 L 748.9446889569656 693.5349356558636" stroke-miterlimit="10"/><path fill="none" stroke="#cccccc" paint-order="fill stroke markers" d=" M 718.2271455330617 640.3305897619587 L 718.2271455330617 640.3305897619587" stroke-miterlimit="10"/><path fill="none" stroke="#cccccc" paint-order="fill stroke markers" d=" M 656.7920586852543 533.921897974149 L 718.227145533062 533.9218979741491 L 748.9446889569658 587.1262438680542 L 810.3797758047735 587.1262438680542 L 841.0973192286774 533.9218979741495 L 810.3797758047738 480.7175520802447 L 748.944688956966 480.71755208024456 L 718.227145533062 533.9218979741491" stroke-miterlimit="10"/><path fill="none" stroke="#cccccc" paint-order="fill stroke markers" d=" M 841.0973192286774 533.9218979741495 L 841.0973192286774 533.9218979741495" stroke-miterlimit="10"/><path fill="none" stroke="#cccccc" paint-order="fill stroke markers" d=" M 810.3797758047738 480.7175520802447 L 810.3797758047738 480.7175520802447" stroke-miterlimit="10"/><path fill="none" stroke="#cccccc" paint-order="fill stroke markers" d=" M 748.944688956966 480.71755208024456 L 748.944688956966 480.71755208024456" stroke-miterlimit="10"/><path fill="none" stroke="#cccccc" paint-order="fill stroke markers" d=" M 626.0745152613507 419.2824652324365 L 626.0745152613507 419.2824652324365 L 572.8701693674461 388.5649218085324 L 572.8701693674461 388.5649218085324 L 519.6658234735413 419.28246523243615 L 519.6658234735413 419.28246523243615 L 519.6658234735411 480.7175520802439 L 519.6658234735411 480.7175520802439 L 572.8701693674457 511.43509550414785 L 572.8701693674457 511.43509550414785 L 626.0745152613505 480.7175520802442 L 626.0745152613507 480.7175520802442" stroke-miterlimit="10"/><path fill="none" stroke="#cccccc" paint-order="fill stroke markers" d=" M 656.7920586852548 366.0781193385319 L 718.2271455330624 366.07811933853213 L 748.944688956966 419.28246523243695 L 810.3797758047738 419.2824652324373 L 841.0973192286779 366.0781193385327 L 810.3797758047742 312.8737734446277 L 748.9446889569665 312.8737734446275 L 718.2271455330624 366.07811933853213" stroke-miterlimit="10"/><path fill="none" stroke="#cccccc" paint-order="fill stroke markers" d=" M 841.0973192286779 366.0781193385327 L 841.0973192286779 366.0781193385327" stroke-miterlimit="10"/><path fill="none" stroke="#cccccc" paint-order="fill stroke markers" d=" M 810.3797758047742 312.8737734446277 L 810.3797758047742 312.8737734446277" stroke-miterlimit="10"/><path fill="none" stroke="#cccccc" paint-order="fill stroke markers" d=" M 748.9446889569665 312.8737734446275 L 748.9446889569665 312.8737734446275" stroke-miterlimit="10"/><path fill="none" stroke="#cccccc" paint-order="fill stroke markers" d=" M 626.0745152613512 312.8737734446269 L 626.0745152613512 312.8737734446269 L 656.7920586852553 259.6694275507223 L 718.227145533063 259.6694275507226 L 748.9446889569671 206.46508165681803 L 718.2271455330634 153.26073576291316 L 656.7920586852557 153.26073576291282 L 626.0745152613516 206.46508165681743 L 656.7920586852553 259.6694275507223" stroke-miterlimit="10"/><path fill="none" stroke="#cccccc" paint-order="fill stroke markers" d=" M 748.9446889569671 206.46508165681803 L 748.9446889569671 206.46508165681803" stroke-miterlimit="10"/><path fill="none" stroke="#cccccc" paint-order="fill stroke markers" d=" M 718.2271455330634 153.26073576291316 L 718.2271455330634 153.26073576291316" stroke-miterlimit="10"/><path fill="none" stroke="#cccccc" paint-order="fill stroke markers" d=" M 656.7920586852557 153.26073576291282 L 656.7920586852557 153.26073576291282" stroke-miterlimit="10"/><path fill="none" stroke="#cccccc" paint-order="fill stroke markers" d=" M 626.0745152613516 206.46508165681743 L 626.0745152613516 206.46508165681743" stroke-miterlimit="10"/><path fill="none" stroke="#cccccc" paint-order="fill stroke markers" d=" M 480.71753909573533 228.95188412681762 L 511.4350825196394 175.74753823291303 L 572.8701693674471 175.74753823291348 L 603.5877127913515 122.54319233900884 L 572.8701693674478 69.33884644510402 L 511.4350825196401 69.33884644510351 L 480.7175390957359 122.54319233900816 L 511.4350825196394 175.74753823291303" stroke-miterlimit="10"/><path fill="none" stroke="#cccccc" paint-order="fill stroke markers" d=" M 603.5877127913515 122.54319233900884 L 603.5877127913515 122.54319233900884" stroke-miterlimit="10"/><path fill="none" stroke="#cccccc" paint-order="fill stroke markers" d=" M 572.8701693674478 69.33884644510402 L 572.8701693674478 69.33884644510402" stroke-miterlimit="10"/><path fill="none" stroke="#cccccc" paint-order="fill stroke markers" d=" M 511.4350825196401 69.33884644510351 L 511.4350825196401 69.33884644510351" stroke-miterlimit="10"/><path fill="none" stroke="#cccccc" paint-order="fill stroke markers" d=" M 480.7175390957359 122.54319233900816 L 480.7175390957359 122.54319233900816" stroke-miterlimit="10"/><path fill="none" stroke="#cccccc" paint-order="fill stroke markers" d=" M 419.2824522479276 228.95188412681728 L 388.564908824024 175.7475382329123 L 419.2824522479282 122.54319233900782 L 388.56490882402454 69.33884644510283 L 327.1298219762168 69.3388464451026 L 296.4122785523126 122.54319233900713 L 327.12982197621625 175.74753823291206 L 388.564908824024 175.7475382329123" stroke-miterlimit="10"/><path fill="none" stroke="#cccccc" paint-order="fill stroke markers" d=" M 419.2824522479282 122.54319233900782 L 419.2824522479282 122.54319233900782" stroke-miterlimit="10"/><path fill="none" stroke="#cccccc" paint-order="fill stroke markers" d=" M 388.56490882402454 69.33884644510283 L 388.56490882402454 69.33884644510283" stroke-miterlimit="10"/><path fill="none" stroke="#cccccc" paint-order="fill stroke markers" d=" M 327.1298219762168 69.3388464451026 L 327.1298219762168 69.3388464451026" stroke-miterlimit="10"/><path fill="none" stroke="#cccccc" paint-order="fill stroke markers" d=" M 296.4122785523126 122.54319233900713 L 296.4122785523126 122.54319233900713" stroke-miterlimit="10"/></g></svg>