<svg version="1.1" xmlns="http://www.w3.org/2000/svg" xmlns:xlink="http://www.w3.org/1999/xlink" width="900" height="900"><defs/><g><rect fill="#000000" stroke="none" x="0" y="0" width="900" height="900"/><path fill="none" stroke="cyan" paint-order="fill stroke markers" d=" M 262.90067270632255 227.1884705062547 L 262.90067270632255 248.43458848123575 L 283.1069316524039 254.99999999999994 L 295.59508646656377 237.81152949374524 L 295.59508646656377 216.56541151876417 L 275.38882752048244 209.99999999999997 L 262.90067270632255 227.18847050625484 L 242.69441376024122 220.62305898749065 L 242.69441376024122 199.37694101250958 L 262.90067270632255 192.81152949374538 L 275.38882752048244 210.0000000000001 L 295.59508646656377 203.4345884812359 L 295.59508646656377 182.18847050625482 L 283.1069316524039 165.00000000000009 L 262.90067270632255 171.56541151876428 L 275.38882752048244 154.37694101250952 L 262.90067270632255 137.18847050625482 L 242.69441376024122 130.6230589874906 L 230.2062589460813 147.81152949374533 L 230.2062589460813 126.56541151876417 L 209.99999999999997 119.99999999999996 L 189.79374105391864 126.56541151876417 L 189.79374105391864 147.81152949374524 L 177.30558623975875 130.62305898749048 L 157.09932729367742 137.18847050625465 L 144.6111724795175 154.37694101250938 L 157.09932729367742 171.5654115187641 L 136.89306834759606 165.00000000000006 L 124.40491353343619 182.18847050625476 L 124.40491353343619 203.4345884812358 L 144.6111724795175 210.00000000000003 L 124.40491353343619 216.5654115187642 L 124.40491353343619 237.81152949374527 L 136.89306834759606 255 L 157.09932729367742 248.4345884812358 L 157.09932729367742 227.18847050625482 L 144.6111724795175 210 L 157.09932729367742 192.8115294937453 L 157.09932729367742 171.56541151876428 L 177.30558623975875 165.00000000000009 L 189.79374105391864 147.8115294937452 L 209.99999999999997 154.37694101250943 L 230.2062589460813 147.81152949374535 L 242.69441376024122 165.00000000000009 L 262.90067270632255 171.56541151876428 L 262.90067270632255 192.81152949374535" stroke-miterlimit="10" stroke-width="0.5"/><path fill="none" stroke="cyan" paint-order="fill stroke markers" d=" M 242.69441376024122 220.62305898749065 L 230.2062589460813 237.81152949374538 L 242.69441376024122 255.00000000000009 L 230.2062589460813 272.1884705062548 L 242.69441376024122 289.3769410125094 L 262.90067270632255 282.81152949374524 L 275.38882752048244 265.6230589874905 L 262.90067270632255 248.43458848123575 L 242.69441376024122 254.99999999999994" stroke-miterlimit="10" stroke-width="0.5"/><path fill="none" stroke="cyan" paint-order="fill stroke markers" d=" M 157.09932729367742 248.4345884812359 L 144.6111724795175 265.6230589874906 L 157.09932729367742 282.81152949374535 L 177.30558623975875 289.3769410125095 L 189.79374105391864 272.1884705062548 L 189.79374105391864 293.4345884812359 L 209.99999999999997 300.0000000000001 L 230.2062589460813 293.4345884812359 L 230.2062589460813 272.1884705062548 L 209.99999999999997 265.6230589874906 L 189.79374105391864 272.1884705062548 L 177.30558623975875 255.00000000000009 L 157.09932729367742 248.4345884812359" stroke-miterlimit="10" stroke-width="0.5"/><path fill="none" stroke="cyan" paint-order="fill stroke markers" d=" M 209.99999999999997 265.6230589874906 L 209.99999999999997 244.37694101250955 L 230.2062589460813 237.8115294937453" stroke-miterlimit="10" stroke-width="0.5"/><path fill="none" stroke="cyan" paint-order="fill stroke markers" d=" M 209.99999999999997 244.37694101250955 L 189.79374105391864 237.81152949374535 L 177.30558623975875 255.00000000000009" stroke-miterlimit="10" stroke-width="0.5"/><path fill="none" stroke="cyan" paint-order="fill stroke markers" d=" M 157.09932729367742 227.18847050625482 L 177.30558623975875 220.62305898749062 L 189.79374105391864 237.8115294937452" stroke-miterlimit="10" stroke-width="0.5"/><path fill="none" stroke="cyan" paint-order="fill stroke markers" d=" M 177.30558623975875 220.62305898749062 L 177.30558623975875 199.37694101250955 L 157.09932729367742 192.81152949374535" stroke-miterlimit="10" stroke-width="0.5"/><path fill="none" stroke="cyan" paint-order="fill stroke markers" d=" M 177.30558623975875 165.00000000000009 L 189.79374105391864 182.18847050625482 L 209.99999999999997 175.62305898749062 L 209.99999999999997 154.37694101250955" stroke-miterlimit="10" stroke-width="0.5"/><path fill="none" stroke="cyan" paint-order="fill stroke markers" d=" M 189.79374105391864 182.18847050625482 L 177.30558623975875 199.37694101250955" stroke-miterlimit="10" stroke-width="0.5"/><path fill="none" stroke="cyan" paint-order="fill stroke markers" d=" M 242.69441376024122 165.00000000000009 L 230.2062589460813 182.18847050625482 L 209.99999999999997 175.62305898749054" stroke-miterlimit="10" stroke-width="0.5"/><path fill="none" stroke="cyan" paint-order="fill stroke markers" d=" M 230.2062589460813 182.18847050625482 L 242.69441376024122 199.37694101250952" stroke-miterlimit="10" stroke-width="0.5"/><path fill="none" stroke="cyan" paint-order="fill stroke markers" d=" M 491.75832972821536 228.37980735340602 L 491.75832972821536 191.51336505395366 L 421.6341893651885 168.72865066860516" stroke-miterlimit="10" stroke-width="0.5"/><path fill="none" stroke="cyan" paint-order="fill stroke markers" d=" M 513.4278808163249 221.33894339635367 L 513.4278808163249 258.20538569580606 L 421.6341893651885 131.8622083691526 L 421.63418936518855 288.0309640382063 L 513.4278808163249 161.68778671155275 L 364.9025680955655 209.94658620367974 L 386.572119183675 180.12100786127922 L 513.4278808163249 221.33894339635367 L 535.0974319044344 191.51336505395327 L 491.7583297282155 131.86220836915234 L 456.696259546702 143.2545655618265 L 456.6962595467019 276.63860684553254 L 421.6341893651885 288.03096403820666 L 399.9646382770789 258.2053856958062 L 478.3658106348114 150.29542951887896 L 456.6962595467019 120.46985117647856 L 386.57211918367506 143.25456556182678 L 421.6341893651885 154.64692275450085" stroke-miterlimit="10" stroke-width="0.5"/><path fill="none" stroke="cyan" paint-order="fill stroke markers" d=" M 491.75832972821536 251.16452173875388 L 491.7583297282155 288.0309640382062 L 456.696259546702 299.42332123088045 L 478.36581063481145 269.5977428884802 L 399.9646382770789 161.6877867115533 L 364.9025680955655 173.080143904227 L 386.57211918367506 143.2545655618267 L 386.57211918367506 180.12100786127917" stroke-miterlimit="10" stroke-width="0.5"/><path fill="none" stroke="cyan" paint-order="fill stroke markers" d=" M 399.9646382770789 161.6877867115533 L 421.6341893651885 131.8622083691529 L 456.6962595467019 143.25456556182706" stroke-miterlimit="10" stroke-width="0.5"/><path fill="none" stroke="cyan" paint-order="fill stroke markers" d=" M 491.75832972821536 228.379807353406 L 421.63418936518855 251.164521738754 L 399.96463827707896 221.33894339635356 L 443.303740453298 161.68778671155297 L 478.36581063481145 173.08014390422716 L 478.36581063481145 246.813028503132 L 443.303740453298 258.20538569580617 L 399.9646382770789 198.5542290110056 L 421.6341893651885 168.72865066860516" stroke-miterlimit="10" stroke-width="0.5"/><path fill="none" stroke="cyan" paint-order="fill stroke markers" d=" M 456.6962595467019 276.63860684553254 L 491.75832972821536 288.0309640382067 L 535.0974319044343 228.37980735340582 L 500.0353617229209 239.77216454607992" stroke-miterlimit="10" stroke-width="0.5"/><path fill="none" stroke="cyan" paint-order="fill stroke markers" d=" M 435.02670845859245 150.29542951887905 L 456.6962595467019 120.46985117647866 L 491.75832972821536 131.86220836915288 L 491.75832972821536 168.7286506686052" stroke-miterlimit="10" stroke-width="0.5"/><path fill="none" stroke="cyan" paint-order="fill stroke markers" d=" M 500.0353617229209 180.1210078612792 L 535.0974319044344 191.51336505395335 L 535.0974319044344 228.3798073534057 L 513.4278808163249 198.55422901100545 L 386.572119183675 239.77216454608 L 386.572119183675 276.6386068455323 L 456.696259546702 299.4233212308805 L 435.02670845859245 269.59774288848" stroke-miterlimit="10" stroke-width="0.5"/><path fill="none" stroke="cyan" paint-order="fill stroke markers" d=" M 386.57211918367506 202.90572224662742 L 364.9025680955655 173.08014390422704 L 364.9025680955655 246.8130285031321 L 386.572119183675 216.98745016073167" stroke-miterlimit="10" stroke-width="0.5"/><path fill="none" stroke="cyan" paint-order="fill stroke markers" d=" M 421.6341893651885 265.24624965285824 L 386.572119183675 276.63860684553237 L 364.9025680955655 246.813028503132 L 399.9646382770789 258.2053856958063" stroke-miterlimit="10" stroke-width="0.5"/><path fill="none" stroke="cyan" paint-order="fill stroke markers" d=" M 478.3658106348114 150.29542951887896 L 513.4278808163249 161.6877867115532 L 513.4278808163249 198.55422901100553" stroke-miterlimit="10" stroke-width="0.5"/><path fill="none" stroke="cyan" paint-order="fill stroke markers" d=" M 364.9025680955655 209.94658620367932 L 513.4278808163249 258.20538569580617 L 478.36581063481145 269.59774288848024" stroke-miterlimit="10" stroke-width="0.5"/><path fill="none" stroke="cyan" paint-order="fill stroke markers" d=" M 386.572119183675 239.77216454608 L 364.9025680955655 209.9465862036796" stroke-miterlimit="10" stroke-width="0.5"/><path fill="none" stroke="cyan" paint-order="fill stroke markers" d=" M 658.9204832548114 226.3764826369453 L 678.1377774954293 220.13240522986536 L 690.0147185079388 236.47961210998596 L 690.0147185079388 216.27335316390474 L 709.2320127485566 210.0292757568248 L 690.0147185079388 203.78519834974472 L 690.0147185079388 183.57893940366338 L 678.1377774954293 199.92614628378405 L 658.9204832548114 193.6820688767041 L 670.7974242673208 210.02927575682483 L 658.9204832548114 226.37648263694547 L 639.7031890141935 220.1324052298655 L 639.7031890141935 199.92614628378416 L 627.826248001684 183.57893940366333 L 608.6089537610662 189.8230168107433 L 608.6089537610662 230.23553470290616 L 627.826248001684 236.47961210998608 L 639.7031890141935 252.82681899010672 L 639.7031890141935 273.03307793618796 L 678.1377774954293 285.5212327503478 L 690.0147185079388 269.1740258702272 L 709.2320127485566 262.9299484631474 L 721.1089537610661 279.277155343268 L 709.2320127485566 295.6243622233886 L 690.0147185079388 289.3802848163087 L 690.0147185079388 269.17402587022735" stroke-miterlimit="10" stroke-width="0.5"/><path fill="none" stroke="cyan" paint-order="fill stroke markers" d=" M 639.7031890141935 220.1324052298655 L 627.826248001684 203.7851983497449 L 608.6089537610662 210.02927575682483 L 627.826248001684 216.27335316390457 L 639.7031890141935 199.92614628378394 L 658.9204832548114 193.68206887670422 L 658.9204832548114 173.47580993062277 L 670.7974242673208 157.12860305050216 L 658.9204832548114 140.78139617038153 L 658.9204832548114 160.9876551164629 L 678.1377774954293 167.23173252354286 L 690.0147185079388 150.88452564342225 L 690.0147185079388 130.6782666973409 L 709.2320127485566 124.43418929026093 L 721.1089537610661 140.78139617038156 L 709.2320127485566 157.12860305050216 L 690.0147185079388 150.88452564342222 L 678.1377774954293 134.53731876330164 L 639.7031890141935 147.02547357746147 L 639.7031890141935 167.2317325235428 L 627.826248001684 183.57893940366344 L 608.6089537610662 177.3348619965835 L 608.6089537610662 157.12860305050216 L 627.826248001684 150.88452564342222 L 639.7031890141935 167.23173252354283" stroke-miterlimit="10" stroke-width="0.5"/><path fill="none" stroke="cyan" paint-order="fill stroke markers" d=" M 639.7031890141935 220.1324052298655 L 627.826248001684 236.47961210998614" stroke-miterlimit="10" stroke-width="0.5"/><path fill="none" stroke="cyan" paint-order="fill stroke markers" d=" M 658.9204832548114 226.3764826369454 L 658.9204832548114 246.58274158302675 L 678.1377774954293 252.82681899010672 L 658.9204832548114 259.0708963971865 L 658.9204832548114 279.27715534326785 L 670.7974242673208 262.9299484631473 L 658.9204832548114 246.58274158302663 L 639.7031890141935 252.8268189901066 L 627.826248001684 269.17402587022735 L 608.6089537610662 262.9299484631474 L 608.6089537610662 242.72368951706605 L 627.826248001684 236.4796121099861" stroke-miterlimit="10" stroke-width="0.5"/><path fill="none" stroke="cyan" paint-order="fill stroke markers" d=" M 678.1377774954293 252.82681899010672 L 690.0147185079388 236.47961210998608 L 709.2320127485566 242.72368951706605 L 709.2320127485566 262.9299484631474 L 728.4493069891746 269.17402587022735 L 752.2031890141935 236.47961210998608 L 740.3262480016841 220.13240522986544 L 740.3262480016841 199.92614628378413 L 752.2031890141935 183.57893940366338 L 728.4493069891746 150.88452564342214 L 709.2320127485566 157.12860305050208" stroke-miterlimit="10" stroke-width="0.5"/><path fill="none" stroke="cyan" paint-order="fill stroke markers" d=" M 709.2320127485566 210.0292757568248 L 721.1089537610661 226.3764826369454 L 721.1089537610661 246.58274158302675 L 740.3262480016841 252.8268189901067 L 728.4493069891746 236.47961210998608 L 709.2320127485566 242.72368951706605" stroke-miterlimit="10" stroke-width="0.5"/><path fill="none" stroke="cyan" paint-order="fill stroke markers" d=" M 721.1089537610661 226.3764826369454 L 709.2320127485566 242.72368951706605" stroke-miterlimit="10" stroke-width="0.5"/><path fill="none" stroke="cyan" paint-order="fill stroke markers" d=" M 721.1089537610661 226.3764826369454 L 740.3262480016841 220.13240522986547" stroke-miterlimit="10" stroke-width="0.5"/><path fill="none" stroke="cyan" paint-order="fill stroke markers" d=" M 709.2320127485566 210.02927575682477 L 721.1089537610661 193.68206887670416 L 709.2320127485566 177.33486199658353 L 728.4493069891746 183.57893940366336 L 740.3262480016841 167.23173252354275 L 721.1089537610661 173.47580993062272 L 721.1089537610661 193.68206887670408 L 740.3262480016841 199.926146283784 L 759.5435422423019 193.6820688767042 L 771.4204832548114 210.02927575682477 L 759.5435422423019 226.3764826369454 L 740.3262480016841 220.13240522986544" stroke-miterlimit="10" stroke-width="0.5"/><path fill="none" stroke="cyan" paint-order="fill stroke markers" d=" M 709.2320127485566 177.33486199658353 L 690.0147185079388 183.5789394036635 L 678.1377774954293 167.23173252354286" stroke-miterlimit="10" stroke-width="0.5"/><path fill="none" stroke="cyan" paint-order="fill stroke markers" d=" M 658.9204832548114 173.47580993062277 L 678.1377774954293 167.23173252354283" stroke-miterlimit="10" stroke-width="0.5"/><path fill="none" stroke="cyan" paint-order="fill stroke markers" d=" M 658.9204832548114 173.47580993062277 L 639.7031890141935 167.23173252354283" stroke-miterlimit="10" stroke-width="0.5"/><path fill="none" stroke="cyan" paint-order="fill stroke markers" d=" M 678.1377774954293 252.8268189901066 L 690.0147185079388 269.1740258702272" stroke-miterlimit="10" stroke-width="0.5"/><path fill="none" stroke="cyan" paint-order="fill stroke markers" d=" M 709.2320127485566 177.3348619965834 L 709.2320127485566 157.12860305050208" stroke-miterlimit="10" stroke-width="0.5"/><path fill="none" stroke="cyan" paint-order="fill stroke markers" d=" M 145.90617555207655 433.1781325856262 L 158.14990458188873 450.03017986140776 L 177.96067430116864 443.5932705820792 L 197.77144402044854 450.03017986140776 L 210.01517305026076 433.1781325856262 L 197.77144402044854 416.32608530984453 L 197.77144402044854 395.49580931693845 L 177.96067430116864 389.05890003761 L 177.96067430116864 368.2286240447038 L 197.77144402044854 361.7917147653753 L 210.01517305026076 378.64376204115683 L 197.77144402044854 395.4958093169384 L 210.01517305026076 412.34785659271984 L 210.01517305026076 433.1781325856261 L 229.82594276954063 439.6150418649546 L 242.06967179935282 422.762994589173 L 261.8804415186328 416.32608530984453 L 249.63671248882054 433.17813258562614 L 229.82594276954063 439.6150418649545 L 229.82594276954063 460.4453178578608 L 249.63671248882054 466.88222713718926 L 261.8804415186328 483.7342744129707 L 242.06967179935282 477.2973651336423 L 229.82594276954063 460.44531785786074 L 210.01517305026076 466.88222713718926 L 210.01517305026076 487.7125031300954 L 197.77144402044854 504.56455040587696 L 210.01517305026076 521.4165976816586 L 197.77144402044854 538.2686449574401 L 177.96067430116864 531.8317356781115 L 177.96067430116864 511.00145968520536 L 197.77144402044854 504.5645504058769 L 197.77144402044854 483.7342744129707 L 210.01517305026076 466.8822271371892 L 197.77144402044854 450.03017986140765 L 177.96067430116864 456.46708914073605 L 158.14990458188873 450.03017986140765 L 145.90617555207655 466.8822271371893 L 126.09540583279666 460.4453178578608 L 126.09540583279666 439.61504186495466 L 145.90617555207655 433.1781325856262 L 145.90617555207655 412.34785659272 L 165.71694527135645 405.91094731339155 L 177.96067430116864 422.7629945891731 L 177.96067430116864 443.59327058207924" stroke-miterlimit="10" stroke-width="0.5"/><path fill="none" stroke="cyan" paint-order="fill stroke markers" d=" M 177.96067430116864 389.05890003761 L 158.14990458188873 395.49580931693845 L 158.14990458188873 416.3260853098446 L 177.96067430116864 422.7629945891731 L 197.77144402044854 416.3260853098446" stroke-miterlimit="10" stroke-width="0.5"/><path fill="none" stroke="cyan" paint-order="fill stroke markers" d=" M 249.63671248882054 466.88222713718926 L 261.8804415186328 450.0301798614077 L 281.6912112379126 443.59327058207924 L 293.9349402677248 460.4453178578608 L 281.6912112379126 477.29736513364236 L 293.9349402677248 494.1494124094239 L 281.6912112379126 511.0014596852055 L 261.8804415186328 504.56455040587696 L 249.63671248882054 521.4165976816586 L 229.82594276954063 514.97968840233 L 229.82594276954063 494.1494124094239 L 242.06967179935282 477.2973651336423" stroke-miterlimit="10" stroke-width="0.5"/><path fill="none" stroke="cyan" paint-order="fill stroke markers" d=" M 249.63671248882054 433.17813258562614 L 261.8804415186328 450.0301798614077 L 281.6912112379126 456.4670891407362 L 293.9349402677248 439.6150418649546 L 281.6912112379126 422.76299458917305 L 261.8804415186328 416.3260853098446 L 261.8804415186328 395.4958093169384 L 281.6912112379126 389.0589000376099 L 293.9349402677248 405.9109473133914 L 281.6912112379126 422.76299458917293" stroke-miterlimit="10" stroke-width="0.5"/><path fill="none" stroke="cyan" paint-order="fill stroke markers" d=" M 261.8804415186328 504.56455040587696 L 261.8804415186328 483.7342744129709 L 281.6912112379126 477.29736513364236" stroke-miterlimit="10" stroke-width="0.5"/><path fill="none" stroke="cyan" paint-order="fill stroke markers" d=" M 210.01517305026076 521.4165976816586 L 229.82594276954063 527.853506960987 L 242.06967179935282 511.0014596852055 L 229.82594276954063 494.1494124094239 L 210.01517305026076 487.7125031300954" stroke-miterlimit="10" stroke-width="0.5"/><path fill="none" stroke="cyan" paint-order="fill stroke markers" d=" M 210.01517305026076 378.64376204115683 L 229.82594276954063 372.2068527618284 L 242.06967179935282 389.05890003760993 L 229.82594276954063 405.91094731339143 L 210.01517305026076 412.34785659271995" stroke-miterlimit="10" stroke-width="0.5"/><path fill="none" stroke="cyan" paint-order="fill stroke markers" d=" M 261.8804415186328 395.4958093169384 L 249.63671248882054 378.64376204115683 L 229.82594276954063 385.0806713204853 L 229.82594276954063 405.91094731339143 L 242.06967179935282 422.76299458917305" stroke-miterlimit="10" stroke-width="0.5"/><path fill="none" stroke="cyan" paint-order="fill stroke markers" d=" M 177.96067430116864 511.00145968520536 L 158.14990458188873 504.5645504058769 L 158.14990458188873 483.73427441297076 L 177.96067430116864 477.2973651336423 L 197.77144402044854 483.73427441297076" stroke-miterlimit="10" stroke-width="0.5"/><path fill="none" stroke="cyan" paint-order="fill stroke markers" d=" M 145.90617555207655 487.71250313009534 L 165.71694527135645 494.1494124094238 L 177.96067430116864 477.2973651336423 L 177.96067430116864 456.4670891407361" stroke-miterlimit="10" stroke-width="0.5"/><path fill="none" stroke="cyan" paint-order="fill stroke markers" d=" M 145.90617555207655 466.8822271371892 L 145.90617555207655 487.71250313009534" stroke-miterlimit="10" stroke-width="0.5"/><path fill="none" stroke="cyan" paint-order="fill stroke markers" d=" M 470.1661527976083 420.68664222701204 L 470.1661527976083 394.50191043490196 L 454.77515361497206 415.68580344786903 L 404.9688340183178 399.50274921404497 L 389.57783483568164 420.68664222701204 L 420.3598332009539 463.054428252946 L 404.9688340183178 484.2383212659131 L 429.87199381664493 476.14679414900115 L 460.65399218191726 518.5145801749352 L 485.55715198024444 510.42305305802313 L 485.55715198024444 458.05358947380296 L 510.46031177857157 449.96206235689095 L 485.55715198024444 441.870535239979 L 470.1661527976083 420.686642227012 L 420.3598332009539 436.86969646083594 L 420.3598332009539 463.05442825294597 L 470.1661527976083 479.2374824867699 L 485.55715198024444 458.0535894738029 L 454.7751536149721 415.6858034478688 L 429.87199381664493 423.77733056478075 L 404.9688340183178 415.6858034478688 L 420.3598332009539 436.86969646083594 L 389.57783483568164 479.23748248676986 L 404.9688340183178 500.4213754997369 L 454.7751536149721 484.2383212659129 L 470.1661527976083 505.4222142788799 L 470.1661527976083 479.23748248676986 L 519.9724723942626 463.05442825294585 L 519.9724723942626 436.86969646083605 L 470.1661527976083 420.68664222701204" stroke-miterlimit="10" stroke-width="0.5"/><path fill="none" stroke="cyan" paint-order="fill stroke markers" d=" M 429.87199381664493 534.6976344087591 L 445.26299299928115 513.513741395792 L 495.06931259593546 497.3306871619679 L 495.0693125959354 402.59343755181396 L 445.2629929992811 386.41038331798995 L 429.87199381664493 365.2264903050229" stroke-miterlimit="10" stroke-width="0.5"/><path fill="none" stroke="cyan" paint-order="fill stroke markers" d=" M 429.87199381664493 407.59427633095703 L 429.87199381664493 381.40954453884694 L 445.26299299928115 402.5934375518138 L 445.26299299928115 428.778169343924 L 429.87199381664493 407.5942763309569" stroke-miterlimit="10" stroke-width="0.5"/><path fill="none" stroke="cyan" paint-order="fill stroke markers" d=" M 404.9688340183178 389.5010716557588 L 454.77515361497206 373.318017421935" stroke-miterlimit="10" stroke-width="0.5"/><path fill="none" stroke="cyan" paint-order="fill stroke markers" d=" M 445.26299299928115 360.2256515258798 L 470.1661527976083 394.501910434902 L 510.46031177857157 381.4095445388468" stroke-miterlimit="10" stroke-width="0.5"/><path fill="none" stroke="cyan" paint-order="fill stroke markers" d=" M 445.2629929992811 386.41038331798995 L 389.5778348356816 463.0544282529461 L 420.3598332009539 505.4222142788801 L 420.3598332009539 531.60694607099" stroke-miterlimit="10" stroke-width="0.5"/><path fill="none" stroke="cyan" paint-order="fill stroke markers" d=" M 414.48099463400877 428.77816934392405 L 389.5778348356816 420.68664222701204" stroke-miterlimit="10" stroke-width="0.5"/><path fill="none" stroke="cyan" paint-order="fill stroke markers" d=" M 445.26299299928115 360.2256515258798 L 404.9688340183178 373.3180174219349 L 404.9688340183178 415.6858034478688 L 364.67467503735446 428.77816934392405 L 364.67467503735446 471.14595536985786" stroke-miterlimit="10" stroke-width="0.5"/><path fill="none" stroke="cyan" paint-order="fill stroke markers" d=" M 364.67467503735446 454.96290113603413 L 389.5778348356816 463.0544282529461" stroke-miterlimit="10" stroke-width="0.5"/><path fill="none" stroke="cyan" paint-order="fill stroke markers" d=" M 404.96883401831775 441.8705352399791 L 429.87199381664493 449.96206235689107 L 404.9688340183178 458.0535894738028 L 380.0656742199906 449.96206235689095 L 404.9688340183178 441.870535239979" stroke-miterlimit="10" stroke-width="0.5"/><path fill="none" stroke="cyan" paint-order="fill stroke markers" d=" M 454.77515361497206 484.2383212659131 L 485.55715198024444 441.870535239979 L 485.55715198024444 389.5010716557588 L 460.65399218191726 381.40954453884683 L 429.87199381664493 423.7773305647808 L 429.87199381664493 476.14679414900115 L 454.77515361497206 484.2383212659131" stroke-miterlimit="10" stroke-width="0.5"/><path fill="none" stroke="cyan" paint-order="fill stroke markers" d=" M 470.1661527976083 463.0544282529461 L 495.0693125959354 471.1459553698581 L 510.46031177857157 492.32984838282493 L 485.55715198024444 484.23832126591304 L 470.1661527976083 463.054428252946" stroke-miterlimit="10" stroke-width="0.5"/><path fill="none" stroke="cyan" paint-order="fill stroke markers" d=" M 495.0693125959354 497.33068716196817 L 519.9724723942626 505.4222142788801" stroke-miterlimit="10" stroke-width="0.5"/><path fill="none" stroke="cyan" paint-order="fill stroke markers" d=" M 404.9688340183178 526.606107291847 L 445.26299299928115 539.6984731879021 L 470.1661527976083 505.4222142788799 L 510.46031177857157 518.5145801749352 L 535.3634715768987 484.2383212659131 L 510.46031177857157 449.96206235689095" stroke-miterlimit="10" stroke-width="0.5"/><path fill="none" stroke="cyan" paint-order="fill stroke markers" d=" M 519.9724723942626 463.0544282529461 L 495.0693125959354 454.9629011360341" stroke-miterlimit="10" stroke-width="0.5"/><path fill="none" stroke="cyan" paint-order="fill stroke markers" d=" M 495.0693125959354 386.41038331799 L 525.8513109612078 428.778169343924" stroke-miterlimit="10" stroke-width="0.5"/><path fill="none" stroke="cyan" paint-order="fill stroke markers" d=" M 510.46031177857157 407.594276330957 L 495.0693125959354 428.778169343924 L 470.1661527976083 436.86969646083577 L 485.55715198024444 415.6858034478688 L 510.46031177857157 407.5942763309569" stroke-miterlimit="10" stroke-width="0.5"/><path fill="none" stroke="cyan" paint-order="fill stroke markers" d=" M 445.26299299928115 497.3306871619681 L 429.87199381664493 518.5145801749352 L 429.87199381664493 492.3298483828249 L 445.26299299928115 471.1459553698579 L 445.26299299928115 497.33068716196806" stroke-miterlimit="10" stroke-width="0.5"/><path fill="none" stroke="cyan" paint-order="fill stroke markers" d=" M 454.7751536149721 526.6061072918469 L 404.9688340183178 510.42305305802313" stroke-miterlimit="10" stroke-width="0.5"/><path fill="none" stroke="cyan" paint-order="fill stroke markers" d=" M 404.9688340183178 526.606107291847 L 404.9688340183178 484.2383212659131 L 364.67467503735446 471.14595536985786" stroke-miterlimit="10" stroke-width="0.5"/><path fill="none" stroke="cyan" paint-order="fill stroke markers" d=" M 420.3598332009539 505.4222142788801 L 510.46031177857157 476.1467941490011 L 510.46031177857157 423.77733056478087 L 525.8513109612078 402.5934375518138" stroke-miterlimit="10" stroke-width="0.5"/><path fill="none" stroke="cyan" paint-order="fill stroke markers" d=" M 470.1661527976083 489.2391600450561 L 485.55715198024444 510.42305305802313" stroke-miterlimit="10" stroke-width="0.5"/><path fill="none" stroke="cyan" paint-order="fill stroke markers" d=" M 525.8513109612078 497.3306871619681 L 510.46031177857157 476.1467941490011" stroke-miterlimit="10" stroke-width="0.5"/><path fill="none" stroke="cyan" paint-order="fill stroke markers" d=" M 404.9688340183178 399.5027492140449 L 420.3598332009539 420.686642227012" stroke-miterlimit="10" stroke-width="0.5"/><path fill="none" stroke="cyan" paint-order="fill stroke markers" d=" M 380.0656742199906 476.1467941490011 L 380.0656742199906 423.77733056478087" stroke-miterlimit="10" stroke-width="0.5"/><path fill="none" stroke="cyan" paint-order="fill stroke markers" d=" M 535.3634715768987 415.6858034478688 L 510.46031177857157 449.962062356891" stroke-miterlimit="10" stroke-width="0.5"/><path fill="none" stroke="cyan" paint-order="fill stroke markers" d=" M 510.46031177857157 423.77733056478087 L 420.3598332009539 394.5019104349019 L 389.57783483568164 436.8696964608358 L 364.67467503735446 444.9612235777478" stroke-miterlimit="10" stroke-width="0.5"/><path fill="none" stroke="cyan" paint-order="fill stroke markers" d=" M 460.65399218191726 407.5942763309569 L 460.65399218191726 381.40954453884683" stroke-miterlimit="10" stroke-width="0.5"/><path fill="none" stroke="cyan" paint-order="fill stroke markers" d=" M 420.3598332009539 368.3171786427918 L 420.3598332009539 394.5019104349019" stroke-miterlimit="10" stroke-width="0.5"/><path fill="none" stroke="cyan" paint-order="fill stroke markers" d=" M 460.65399218191726 518.5145801749351 L 460.65399218191726 492.32984838282505" stroke-miterlimit="10" stroke-width="0.5"/><path fill="none" stroke="cyan" paint-order="fill stroke markers" d=" M 525.8513109612078 471.145955369858 L 495.06931259593546 513.513741395792" stroke-miterlimit="10" stroke-width="0.5"/><path fill="none" stroke="cyan" paint-order="fill stroke markers" d=" M 389.57783483568164 436.8696964608358 L 445.26299299928115 513.513741395792" stroke-miterlimit="10" stroke-width="0.5"/><path fill="none" stroke="cyan" paint-order="fill stroke markers" d=" M 420.3598332009539 479.2374824867699 L 404.9688340183178 500.42137549973694" stroke-miterlimit="10" stroke-width="0.5"/><path fill="none" stroke="cyan" paint-order="fill stroke markers" d=" M 535.3634715768987 415.6858034478688 L 510.46031177857157 381.4095445388468" stroke-miterlimit="10" stroke-width="0.5"/><path fill="none" stroke="cyan" paint-order="fill stroke markers" d=" M 485.55715198024444 389.5010716557588 L 470.1661527976083 410.6849646687258" stroke-miterlimit="10" stroke-width="0.5"/><path fill="none" stroke="cyan" paint-order="fill stroke markers" d=" M 495.06931259593546 444.96122357774783 L 519.9724723942626 436.8696964608358" stroke-miterlimit="10" stroke-width="0.5"/><path fill="none" stroke="cyan" paint-order="fill stroke markers" d=" M 519.9724723942626 394.50191043490173 L 495.0693125959354 402.59343755181374" stroke-miterlimit="10" stroke-width="0.5"/><path fill="none" stroke="cyan" paint-order="fill stroke markers" d=" M 389.57783483568164 479.2374824867698 L 414.48099463400877 471.14595536985786" stroke-miterlimit="10" stroke-width="0.5"/><path fill="none" stroke="cyan" paint-order="fill stroke markers" d=" M 690.0147185079389 476.42106059633664 L 690.0147185079389 456.2148016502553 L 709.2320127485568 449.97072424317537 L 721.1089537610662 466.317931123296 L 709.2320127485568 482.6651380034166 L 690.0147185079389 476.42106059633664 L 678.1377774954294 492.7682674764572 L 658.9204832548115 486.52419006937725 L 639.7031890141936 492.76826747645725 L 627.8262480016842 476.4210605963366 L 608.6089537610662 482.6651380034165 L 608.6089537610662 502.87139694949786 L 627.8262480016842 509.1154743565778 L 639.7031890141936 492.7682674764572 L 658.9204832548115 499.01234488353714 L 670.797424267321 482.6651380034165 L 647.0435422423021 449.9707242431752 L 627.8262480016842 456.21480165025514 L 627.8262480016842 476.4210605963365 L 639.7031890141936 460.07385371621604 L 639.7031890141936 439.86759477013476 L 627.8262480016842 423.52038789001415 L 627.8262480016842 443.7266468360955 L 647.0435422423021 449.97072424317537 L 670.797424267321 417.2763104829341 L 709.2320127485568 429.7644652970939 L 721.1089537610662 413.41725841697325 L 709.2320127485568 397.07005153685265 L 721.1089537610662 380.72284465673215 L 709.2320127485568 364.3756377766115 L 690.0147185079389 370.6197151836915 L 690.0147185079389 390.8259741297728 L 670.797424267321 397.07005153685276 L 670.797424267321 417.2763104829341 L 658.9204832548116 400.9291036028135 L 639.7031890141936 407.1731810098934 L 658.9204832548115 413.41725841697337 L 678.1377774954294 407.1731810098934 L 690.0147185079389 390.82597412977293 L 709.2320127485568 397.0700515368528 L 709.2320127485568 417.27631048293415 L 721.1089537610662 433.6235173630546 L 740.3262480016841 439.8675947701346 L 728.4493069891747 423.5203878900139 L 709.2320127485568 429.76446529709386 L 709.2320127485568 470.1769831892567 L 670.797424267321 482.66513800341653 L 670.797424267321 502.87139694949786 L 690.0147185079388 509.1154743565778 L 678.1377774954294 492.7682674764572" stroke-miterlimit="10" stroke-width="0.5"/><path fill="none" stroke="cyan" paint-order="fill stroke markers" d=" M 639.7031890141936 439.86759477013476 L 658.9204832548116 433.6235173630548 L 658.9204832548115 413.41725841697337" stroke-miterlimit="10" stroke-width="0.5"/><path fill="none" stroke="cyan" paint-order="fill stroke markers" d=" M 658.9204832548116 433.6235173630548 L 670.797424267321 449.9707242431754 L 658.9204832548116 466.31793112329603 L 658.9204832548116 486.5241900693773" stroke-miterlimit="10" stroke-width="0.5"/><path fill="none" stroke="cyan" paint-order="fill stroke markers" d=" M 690.0147185079389 476.42106059633664 L 678.1377774954294 460.07385371621604 L 658.9204832548116 466.317931123296 L 639.7031890141936 460.0738537162161" stroke-miterlimit="10" stroke-width="0.5"/><path fill="none" stroke="cyan" paint-order="fill stroke markers" d=" M 627.8262480016842 390.82597412977293 L 608.6089537610663 397.0700515368529 L 608.6089537610663 417.2763104829342 L 627.8262480016842 423.52038789001415 L 639.7031890141936 407.17318100989354 L 627.8262480016842 390.82597412977293" stroke-miterlimit="10" stroke-width="0.5"/><path fill="none" stroke="cyan" paint-order="fill stroke markers" d=" M 658.9204832548116 433.62351736305476 L 678.1377774954294 439.8675947701347 L 690.0147185079389 423.5203878900141 L 690.0147185079389 443.7266468360954 L 709.2320127485568 449.97072424317537 L 721.1089537610662 433.62351736305465" stroke-miterlimit="10" stroke-width="0.5"/><path fill="none" stroke="cyan" paint-order="fill stroke markers" d=" M 709.2320127485568 417.27631048293415 L 690.0147185079389 423.5203878900141 L 678.1377774954294 407.17318100989354" stroke-miterlimit="10" stroke-width="0.5"/><path fill="none" stroke="cyan" paint-order="fill stroke markers" d=" M 709.2320127485568 482.6651380034166 L 709.2320127485568 502.8713969494979 L 690.0147185079389 509.11547435657786 L 690.0147185079389 529.3217333026593 L 709.2320127485568 535.5658107097391 L 721.1089537610662 519.2186038296186 L 709.2320127485568 502.8713969494979 L 721.1089537610662 486.5241900693773 L 709.2320127485568 470.1769831892567 L 728.4493069891747 476.42106059633664 L 740.3262480016842 460.07385371621604 L 721.1089537610662 466.317931123296" stroke-miterlimit="10" stroke-width="0.5"/><path fill="none" stroke="cyan" paint-order="fill stroke markers" d=" M 771.4204832548115 449.97072424317537 L 759.5435422423021 433.62351736305476 L 740.3262480016842 439.8675947701347 L 740.3262480016842 460.07385371621604 L 759.5435422423021 466.317931123296" stroke-miterlimit="10" stroke-width="0.5"/><path fill="none" stroke="cyan" paint-order="fill stroke markers" d=" M 759.5435422423021 466.317931123296 L 771.4204832548115 449.97072424317537" stroke-miterlimit="10" stroke-width="0.5"/><path fill="none" stroke="cyan" paint-order="fill stroke markers" d=" M 260.00850771569924 641.6877867115527 L 238.33895662758974 611.8622083691523 L 203.2768864460763 623.2545655618264 L 203.2768864460763 660.1210078612788 L 181.60733535796678 630.2954295188786 L 146.54526517645334 641.6877867115528 L 181.60733535796678 653.0801439042266 L 181.60733535796678 726.8130285031317 L 146.54526517645334 738.2053856958058 L 181.60733535796678 749.5977428884798 L 203.27688644607628 719.7721645460795 L 203.2768864460763 756.6386068455319 L 238.33895662758974 768.0309640382061 L 216.6694055394802 738.2053856958057 L 260.00850771569924 678.554229011005 L 295.0705778972127 689.9465862036792 L 260.0085077156992 701.3389433963532 L 216.66940553948024 641.6877867115525 L 238.3389566275897 611.8622083691521 L 238.33895662758974 648.7286506686046 L 168.21481626456284 671.5133650539531 L 146.54526517645337 641.6877867115527 L 146.54526517645334 678.5542290110051 L 181.60733535796678 689.9465862036793 L 146.54526517645334 701.3389433963532 L 146.54526517645334 738.2053856958056 L 168.21481626456284 708.3798073534052 L 238.3389566275897 731.1645217387536 L 238.3389566275897 768.030964038206 L 260.00850771569924 738.2053856958057 L 238.33895662758974 708.3798073534053 L 238.3389566275897 671.5133650539532 L 260.00850771569924 641.6877867115527 L 295.0705778972127 653.0801439042267 L 295.0705778972127 726.8130285031316 L 260.00850771569924 738.2053856958057" stroke-miterlimit="10" stroke-width="0.5"/><path fill="none" stroke="cyan" paint-order="fill stroke markers" d=" M 238.3389566275897 671.5133650539532 L 273.40102680910314 660.1210078612789 L 295.0705778972127 689.9465862036793 L 273.40102680910314 719.7721645460797 L 273.40102680910314 756.6386068455319 L 203.27688644607628 779.4233212308802 L 181.60733535796678 749.5977428884798" stroke-miterlimit="10" stroke-width="0.5"/><path fill="none" stroke="cyan" paint-order="fill stroke markers" d=" M 273.40102680910314 719.7721645460797 L 238.3389566275897 708.3798073534055" stroke-miterlimit="10" stroke-width="0.5"/><path fill="none" stroke="cyan" paint-order="fill stroke markers" d=" M 238.3389566275897 671.5133650539532 L 203.27688644607628 660.1210078612789 L 181.60733535796678 689.9465862036793 L 203.2768864460763 719.7721645460796 L 238.3389566275897 708.3798073534053" stroke-miterlimit="10" stroke-width="0.5"/><path fill="none" stroke="cyan" paint-order="fill stroke markers" d=" M 203.27688644607628 756.6386068455317 L 168.21481626456284 768.030964038206 L 124.87571408834384 708.3798073534055 L 146.54526517645334 678.5542290110051" stroke-miterlimit="10" stroke-width="0.5"/><path fill="none" stroke="cyan" paint-order="fill stroke markers" d=" M 181.60733535796678 726.8130285031317 L 216.6694055394802 738.2053856958058" stroke-miterlimit="10" stroke-width="0.5"/><path fill="none" stroke="cyan" paint-order="fill stroke markers" d=" M 260.00850771569924 678.554229011005 L 238.33895662758974 648.7286506686046" stroke-miterlimit="10" stroke-width="0.5"/><path fill="none" stroke="cyan" paint-order="fill stroke markers" d=" M 181.6073353579668 630.2954295188784 L 203.27688644607628 600.4698511764781 L 273.40102680910314 623.2545655618263 L 273.40102680910314 660.1210078612787" stroke-miterlimit="10" stroke-width="0.5"/><path fill="none" stroke="cyan" paint-order="fill stroke markers" d=" M 146.54526517645334 701.3389433963531 L 124.87571408834384 671.5133650539527 L 168.21481626456284 611.8622083691523 L 203.27688644607628 623.2545655618264" stroke-miterlimit="10" stroke-width="0.5"/><path fill="none" stroke="cyan" paint-order="fill stroke markers" d=" M 168.21481626456284 671.5133650539531 L 168.21481626456284 708.3798073534053" stroke-miterlimit="10" stroke-width="0.5"/><path fill="none" stroke="cyan" paint-order="fill stroke markers" d=" M 238.3389566275897 731.1645217387536 L 260.0085077156992 701.3389433963532" stroke-miterlimit="10" stroke-width="0.5"/><path fill="none" stroke="cyan" paint-order="fill stroke markers" d=" M 216.66940553948024 641.6877867115523 L 181.6073353579668 653.0801439042266" stroke-miterlimit="10" stroke-width="0.5"/><path fill="none" stroke="cyan" paint-order="fill stroke markers" d=" M 482.0790492601269 771.752723775171 L 501.88981897940687 744.4855385029364 L 462.268279540847 689.9511679584668 L 501.88981897940687 635.4167974139973 L 482.0790492601269 608.1496121417626 L 450.0245505110348 618.5647501382158 L 450.0245505110348 652.2688446897789 L 417.9700517619427 662.6839826862321 L 398.1592820426628 635.4167974139974 L 366.1047832935708 645.8319354104506 L 366.1047832935708 679.5360299620137 L 430.2137807917549 700.3663059549201 L 462.268279540847 689.9511679584668 L 430.2137807917549 679.5360299620138 L 450.0245505110348 706.8032152342483 L 450.0245505110348 673.0991206826856 L 430.2137807917549 700.3663059549201 L 430.2137807917549 767.7744950580461 L 462.268279540847 778.1896330544992 L 482.0790492601269 750.9224477822645 L 450.0245505110348 761.3375857787175 L 482.0790492601269 771.752723775171" stroke-miterlimit="10" stroke-width="0.5"/><path fill="none" stroke="cyan" paint-order="fill stroke markers" d=" M 450.0245505110348 652.268844689779 L 410.403011072475 706.8032152342483 L 378.3485123233829 717.2183532307015 L 378.3485123233829 750.9224477822646 L 410.403011072475 761.3375857787178 L 450.0245505110348 706.8032152342482 L 514.133548009219 727.6334912271547 L 533.9443177284988 700.36630595492 L 514.133548009219 673.0991206826853 L 482.0790492601269 683.5142586791384 L 417.9700517619427 662.6839826862325" stroke-miterlimit="10" stroke-width="0.5"/><path fill="none" stroke="cyan" paint-order="fill stroke markers" d=" M 450.0245505110348 618.5647501382163 L 378.3485123233829 717.2183532307016" stroke-miterlimit="10" stroke-width="0.5"/><path fill="none" stroke="cyan" paint-order="fill stroke markers" d=" M 450.0245505110348 618.5647501382163 L 482.0790492601269 628.9798881346694 L 482.0790492601269 750.9224477822644 L 462.268279540847 723.6552625100298 L 462.268279540847 656.2470734069037 L 482.0790492601269 628.9798881346693 L 462.268279540847 601.7127028624346 L 430.2137807917549 612.1278408588877 L 430.2137807917549 679.5360299620137 L 366.1047832935708 700.3663059549201 L 366.1047832935708 734.0704005064832 L 398.1592820426628 744.4855385029363 L 417.9700517619427 717.2183532307016 L 482.0790492601269 696.3880772377952 L 514.133548009219 706.8032152342483 L 533.9443177284988 679.5360299620137 L 514.133548009219 652.268844689779 L 450.0245505110348 673.0991206826856 L 410.403011072475 618.564750138216 L 378.3485123233829 628.9798881346692 L 378.3485123233829 662.6839826862322 L 450.0245505110348 761.3375857787175" stroke-miterlimit="10" stroke-width="0.5"/><path fill="none" stroke="cyan" paint-order="fill stroke markers" d=" M 417.9700517619427 717.2183532307018 L 450.0245505110348 727.6334912271549 L 450.0245505110348 761.337585778718" stroke-miterlimit="10" stroke-width="0.5"/><path fill="none" stroke="cyan" paint-order="fill stroke markers" d=" M 462.268279540847 635.4167974139976 L 398.1592820426629 656.2470734069038 L 398.1592820426628 723.6552625100298 L 462.268279540847 744.4855385029362 L 501.88981897940687 689.9511679584672 L 462.268279540847 635.4167974139976" stroke-miterlimit="10" stroke-width="0.5"/><path fill="none" stroke="cyan" paint-order="fill stroke markers" d=" M 398.1592820426628 744.4855385029363 L 514.133548009219 706.8032152342485" stroke-miterlimit="10" stroke-width="0.5"/><path fill="none" stroke="cyan" paint-order="fill stroke markers" d=" M 378.3485123233829 662.6839826862322 L 410.403011072475 673.0991206826852 L 450.0245505110348 727.6334912271548" stroke-miterlimit="10" stroke-width="0.5"/><path fill="none" stroke="cyan" paint-order="fill stroke markers" d=" M 482.0790492601269 683.5142586791385 L 462.268279540847 656.2470734069038" stroke-miterlimit="10" stroke-width="0.5"/><path fill="none" stroke="cyan" paint-order="fill stroke markers" d=" M 398.1592820426628 744.4855385029363 L 378.3485123233829 717.2183532307016" stroke-miterlimit="10" stroke-width="0.5"/><path fill="none" stroke="cyan" paint-order="fill stroke markers" d=" M 514.1335480092189 673.0991206826853 L 398.1592820426628 635.4167974139974" stroke-miterlimit="10" stroke-width="0.5"/><path fill="none" stroke="cyan" paint-order="fill stroke markers" d=" M 410.403011072475 673.0991206826853 L 410.403011072475 706.8032152342485" stroke-miterlimit="10" stroke-width="0.5"/><path fill="none" stroke="cyan" paint-order="fill stroke markers" d=" M 514.1335480092189 673.0991206826853 L 514.133548009219 706.8032152342485" stroke-miterlimit="10" stroke-width="0.5"/><path fill="none" stroke="cyan" paint-order="fill stroke markers" d=" M 462.268279540847 723.6552625100298 L 482.0790492601269 696.3880772377953" stroke-miterlimit="10" stroke-width="0.5"/><path fill="none" stroke="cyan" paint-order="fill stroke markers" d=" M 378.3485123233829 662.6839826862321 L 398.1592820426628 635.4167974139974" stroke-miterlimit="10" stroke-width="0.5"/><path fill="none" stroke="cyan" paint-order="fill stroke markers" d=" M 677.4963692307452 617.1576881538678 L 689.9845240449051 599.969217647613 L 710.1907829909865 606.5346291663773 L 710.1907829909865 627.7807471413583 L 722.6789378051463 610.5922766351035 L 742.8851967512277 617.1576881538678 L 742.8851967512277 638.4038061288488 L 755.3733515653876 655.5922766351035 L 775.5796105114689 662.1576881538676 L 775.5796105114689 683.4038061288487 L 755.3733515653876 689.9692176476129 L 775.5796105114689 696.534629166377 L 775.5796105114689 717.7807471413581 L 755.3733515653876 724.3461586601223 L 742.8851967512277 741.5346291663772 L 742.8851967512277 762.7807471413581 L 722.6789378051463 769.3461586601223 L 710.1907829909865 752.1576881538675 L 710.1907829909865 773.4038061288486 L 689.9845240449051 779.9692176476128 L 677.4963692307452 762.7807471413581 L 657.2901102846639 756.215335622594 L 637.0838513385826 762.7807471413582 L 624.5956965244227 745.5922766351035 L 637.0838513385826 728.4038061288488 L 616.8775923925012 734.9692176476129 L 604.3894375783414 717.7807471413582 L 616.8775923925012 700.5922766351035 L 616.8775923925012 679.3461586601226 L 604.3894375783414 662.1576881538676 L 616.8775923925012 644.9692176476129 L 637.0838513385826 651.534629166377 L 624.5956965244226 634.3461586601223 L 637.0838513385826 617.1576881538676 L 657.2901102846638 623.7230996726319 L 677.4963692307452 617.1576881538678 L 689.9845240449051 634.3461586601226 L 689.9845240449051 655.5922766351036 L 702.472678859065 672.7807471413582 L 722.6789378051463 666.215335622594 L 710.1907829909865 683.4038061288487 L 722.6789378051463 700.5922766351034 L 742.8851967512277 707.1576881538676 L 755.3733515653876 724.3461586601225" stroke-miterlimit="10" stroke-width="0.5"/><path fill="none" stroke="cyan" paint-order="fill stroke markers" d=" M 616.8775923925012 679.3461586601226 L 637.0838513385826 672.7807471413583 L 657.2901102846638 679.3461586601223 L 677.4963692307452 672.7807471413581 L 677.4963692307452 651.534629166377 L 657.2901102846638 644.9692176476129 L 657.2901102846639 623.723099672632" stroke-miterlimit="10" stroke-width="0.5"/><path fill="none" stroke="cyan" paint-order="fill stroke markers" d=" M 637.0838513385826 672.7807471413583 L 637.0838513385826 651.5346291663773 L 657.2901102846639 644.969217647613" stroke-miterlimit="10" stroke-width="0.5"/><path fill="none" stroke="cyan" paint-order="fill stroke markers" d=" M 755.3733515653876 655.5922766351035 L 742.8851967512277 672.7807471413582 L 722.6789378051463 666.215335622594 L 722.6789378051463 644.9692176476129 L 710.1907829909865 627.7807471413583 L 689.9845240449051 634.3461586601226 L 677.4963692307452 651.5346291663773 L 689.9845240449051 668.723099672632 L 710.1907829909865 662.1576881538678 L 722.6789378051463 644.969217647613" stroke-miterlimit="10" stroke-width="0.5"/><path fill="none" stroke="cyan" paint-order="fill stroke markers" d=" M 689.9845240449051 655.5922766351036 L 710.1907829909865 662.1576881538678" stroke-miterlimit="10" stroke-width="0.5"/><path fill="none" stroke="cyan" paint-order="fill stroke markers" d=" M 742.8851967512277 638.4038061288488 L 722.6789378051463 644.969217647613" stroke-miterlimit="10" stroke-width="0.5"/><path fill="none" stroke="cyan" paint-order="fill stroke markers" d=" M 742.8851967512277 672.7807471413582 L 755.3733515653876 689.9692176476129 L 742.8851967512277 707.1576881538678" stroke-miterlimit="10" stroke-width="0.5"/><path fill="none" stroke="cyan" paint-order="fill stroke markers" d=" M 742.8851967512277 741.5346291663772 L 722.6789378051463 734.9692176476129 L 710.1907829909865 717.7807471413581 L 689.9845240449051 711.2153356225939 L 677.4963692307452 728.4038061288486 L 689.9845240449051 745.5922766351034 L 677.4963692307452 762.7807471413582" stroke-miterlimit="10" stroke-width="0.5"/><path fill="none" stroke="cyan" paint-order="fill stroke markers" d=" M 722.6789378051463 734.9692176476129 L 710.1907829909865 752.1576881538678 L 689.9845240449051 745.5922766351035" stroke-miterlimit="10" stroke-width="0.5"/><path fill="none" stroke="cyan" paint-order="fill stroke markers" d=" M 657.2901102846639 756.215335622594 L 657.2901102846639 734.9692176476129 L 669.7782650988238 717.7807471413582 L 669.7782650988238 696.534629166377 L 649.5720061527425 689.9692176476129 L 669.7782650988238 683.4038061288487 L 669.7782650988238 662.1576881538676 L 657.2901102846638 644.9692176476129" stroke-miterlimit="10" stroke-width="0.5"/><path fill="none" stroke="cyan" paint-order="fill stroke markers" d=" M 637.0838513385826 672.7807471413581 L 649.5720061527425 689.9692176476129 L 637.0838513385826 707.1576881538676 L 637.0838513385826 728.4038061288488 L 657.2901102846639 734.9692176476129 L 677.4963692307452 728.4038061288488 L 677.4963692307452 707.1576881538678 L 657.2901102846639 700.5922766351035 L 637.0838513385826 707.1576881538678" stroke-miterlimit="10" stroke-width="0.5"/><path fill="none" stroke="cyan" paint-order="fill stroke markers" d=" M 669.7782650988238 717.7807471413582 L 657.2901102846639 700.5922766351035" stroke-miterlimit="10" stroke-width="0.5"/><path fill="none" stroke="cyan" paint-order="fill stroke markers" d=" M 616.8775923925012 700.5922766351035 L 637.0838513385826 707.1576881538678" stroke-miterlimit="10" stroke-width="0.5"/><path fill="none" stroke="cyan" paint-order="fill stroke markers" d=" M 742.8851967512277 672.7807471413581 L 722.6789378051463 679.3461586601223 L 710.1907829909865 696.534629166377 L 722.6789378051463 713.7230996726319 L 702.472678859065 707.1576881538675 L 689.9845240449051 724.3461586601222 L 689.9845240449051 745.5922766351034" stroke-miterlimit="10" stroke-width="0.5"/><path fill="none" stroke="cyan" paint-order="fill stroke markers" d=" M 722.6789378051463 679.3461586601223 L 722.6789378051463 700.5922766351034" stroke-miterlimit="10" stroke-width="0.5"/><path fill="none" stroke="cyan" paint-order="fill stroke markers" d=" M 722.6789378051463 734.9692176476128 L 722.6789378051463 713.7230996726317 L 742.8851967512277 707.1576881538676" stroke-miterlimit="10" stroke-width="0.5"/><path fill="none" stroke="cyan" paint-order="fill stroke markers" d=" M 657.2901102846638 679.3461586601223 L 669.7782650988238 662.1576881538676" stroke-miterlimit="10" stroke-width="0.5"/><path fill="none" stroke="cyan" paint-order="fill stroke markers" d=" M 710.1907829909865 717.7807471413581 L 689.9845240449051 724.3461586601222" stroke-miterlimit="10" stroke-width="0.5"/></g></svg>