<?xml version="1.0" encoding="UTF-8" standalone="no"?>
<svg
   version="1.1"
   width="4.5in"
   height="6.5in"
   id="svg1"
   sodipodi:docname="stamp-2024-01-28T21_38_48.823Z.svg"
   inkscape:version="1.3 (0e150ed, 2023-07-21)"
   xmlns:inkscape="http://www.inkscape.org/namespaces/inkscape"
   xmlns:sodipodi="http://sodipodi.sourceforge.net/DTD/sodipodi-0.dtd"
   xmlns="http://www.w3.org/2000/svg"
   xmlns:svg="http://www.w3.org/2000/svg">
  <sodipodi:namedview
     id="namedview1"
     pagecolor="#505050"
     bordercolor="#eeeeee"
     borderopacity="1"
     inkscape:showpageshadow="0"
     inkscape:pageopacity="0"
     inkscape:pagecheckerboard="0"
     inkscape:deskcolor="#2b2b2b"
     inkscape:zoom="0.89333333"
     inkscape:cx="449.4403"
     inkscape:cy="270.89552"
     inkscape:window-width="1920"
     inkscape:window-height="1044"
     inkscape:window-x="1920"
     inkscape:window-y="0"
     inkscape:window-maximized="1"
     inkscape:current-layer="svg1"
     inkscape:document-units="in" />
  <defs
     id="defs1" />
  <path
     fill="none"
     stroke="#00ffff"
     paint-order="fill stroke markers"
     d="m 201.1386,378.42225 v -132.84451 0 l 78.08404,107.47347 v 0 -132.8445 0 l 78.08403,107.47345 v 0 L 230.96404,286.62895 v 0 l 126.34263,-41.05121 v 0 l -126.34263,-41.0512 v 0 l 126.34263,-41.05121 v 0 l -78.08403,107.47346 v 0 l 78.08403,107.47346 v 0 L 230.96404,337.37104 v 0 l 78.08405,107.47346 v 0 V 312 v 0 l -78.08405,107.47345 v 0 l 126.34263,-41.0512 v 0 L 230.96404,337.37104 v 0 l 126.34263,-41.05121 v 0 l -78.08403,107.47346 v 0 -132.8445 0 L 201.1386,378.42225 v 0 l 126.34263,-41.05121 v 0 L 249.39719,444.8445 v 0 V 312 v 0 l 78.08404,107.47345 v 0 -132.8445 0 l -78.08404,107.47347 v 0 l 126.34263,-41.05121 v 0 L 249.39719,312 v 0 l 78.08404,107.47345 v 0 L 201.1386,378.42225 v 0 l -78.08405,107.47346 v 0 -132.8445 0 l 78.08405,107.47346 v 0 -132.84451 0 l 78.08404,107.47347 v 0 L 152.88001,394.10242 v 0 l 126.34263,-41.05121 v 0 L 152.88001,312 v 0 l 126.34263,-41.05121 v 0 L 201.1386,378.42225 v 0 l 126.34263,-41.05121 v 0 L 249.39719,444.8445 v 0 V 312 v 0 l 78.08404,107.47345 v 0 -132.8445 0 l 78.08403,107.47347 v 0 L 279.22264,353.05121 v 0 L 201.1386,460.52467 v 0 -132.84451 0 l -78.08405,107.47347 v 0 l 126.34264,-41.05121 v 0 L 123.05455,353.05121 v 0 l 78.08405,107.47346 v 0 -132.84451 0 l 78.08404,107.47347 v 0 L 152.88001,394.10242 v 0 l 126.34263,-41.05121 v 0 L 152.88001,312 v 0 l 78.08403,107.47345 v 0 l -126.34263,-41.0512 v 0 l 126.34263,-41.05121 v 0 L 152.88001,444.8445 v 0 l 126.34263,-41.05121 v 0 L 152.88001,362.74208 v 0 l 78.08403,107.47346 v 0 -132.8445 0 L 152.88001,444.8445 v 0 V 312 312 L 26.537369,270.94879 v 0 L 152.88001,229.89757 v 0 L 74.795965,337.37104 v 0 L 201.1386,296.31983 v 0 l -78.08405,107.47346 v 0 -132.8445 0 l 78.08405,107.47346 v 0 -132.84451 0 l 78.08404,107.47347 v 0 L 152.88001,312 v 0 l 78.08403,107.47345 v 0 l -126.34263,-41.0512 v 0 l 126.34263,-41.05121 v 0 L 152.88001,444.8445 v 0 l 126.34263,-41.05121 v 0 L 201.1386,511.26676 v 0 -132.84451 0 L 74.795965,337.37104 v 0 L 201.1386,296.31983 v 0 L 74.795965,255.26862 v 0 l 78.084045,107.47346 v 0 -132.84451 0 L 74.795965,337.37104 v 0 L 201.1386,296.31983 v 0 l -78.08405,107.47346 v 0 -132.8445 0 l 78.08405,107.47346 v 0 -132.84451 0 l -78.08405,107.47347 v 0 -132.8445 0 l 78.08405,107.47345 v 0 L 74.795965,286.62895 v 0 l 78.084045,107.47347 v 0 -132.8445 0 L 74.795965,368.73138 v 0 L 201.1386,327.68016 v 0 L 74.795965,286.62895 v 0 L 201.1386,245.57774 v 0 -132.8445 0 l 78.08404,107.47347 v 0 L 152.88001,179.15549 v 0 l 78.08403,107.47346 v 0 L 104.62141,245.57774 v 0 l 126.34263,-41.0512 v 0 L 152.88001,312 v 0 l 126.34263,-41.05121 v 0 L 201.1386,378.42225 v 0 -132.84451 0 l -78.08405,107.47347 v 0 -132.8445 0 l 78.08405,107.47345 v 0 L 74.795965,286.62895 v 0 l 78.084045,107.47347 v 0 L 26.537369,353.05121 v 0 L 152.88001,312 v 0 -132.84451 0 l 78.08403,107.47346 v 0 -132.8445 0 l -78.08403,107.47347 v 0 l 126.34263,-41.05121 v 0 L 152.88001,179.15549 v 0 l 78.08403,107.47346 v 0 L 104.62141,245.57774 v 0 l 126.34263,-41.0512 v 0 L 152.88001,312 v 0 l 126.34263,-41.05121 v 0 L 152.88001,229.89757 v 0 l 126.34263,-41.05121 v 0 L 201.1386,296.31983 v 0 -132.8445 0 l -78.08405,107.47346 v 0 l 126.34264,-41.05122 v 0 L 123.05455,188.84636 v 0 l 78.08405,107.47347 v 0 -132.8445 0 l 78.08404,107.47346 v 0 l 126.34262,-41.05122 v 0 l -78.08403,107.47347 v 0 -132.8445 0 L 249.39719,312 v 0 -132.84451 0 l 78.08404,107.47346 v 0 L 201.1386,245.57774 v 0 l 78.08404,107.47347 v 0 L 152.88001,312 v 0 l 126.34263,-41.05121 v 0 L 152.88001,229.89757 v 0 l 126.34263,-41.05121 v 0 L 201.1386,296.31983 v 0 -132.8445 0 l -78.08405,107.47346 v 0 -132.84451 0 l 78.08405,107.47346 v 0 l 126.34263,-41.0512 v 0 L 249.39719,312 v 0 l 126.34263,-41.05121 v 0 L 249.39719,229.89757 v 0 l 78.08404,107.47347 v 0 -132.8445 0 L 249.39719,312 v 0 -132.84451 0 l 78.08404,107.47346 v 0 L 201.1386,245.57774 v 0 l 78.08404,107.47347 v 0 -132.8445 0 l 78.08403,107.47345 v 0 L 230.96404,286.62895 v 0 l 126.34263,-41.05121 v 0 l -126.34263,-41.0512 v 0 L 309.04809,312 v 0 -132.84451 0 l -78.08405,107.47346 v 0 l 126.34263,-41.05121 v 0 l -78.08403,107.47347 v 0 l 78.08403,107.47346 v 0 L 230.96404,419.47345 v 0 l 126.34263,-41.0512 v 0 L 230.96404,337.37104 v 0 l 126.34263,-41.05121 v 0 l -78.08403,107.47346 v 0 -132.8445 0 L 201.1386,378.42225 v 0 -132.84451 0 l 78.08404,107.47347 v 0 -132.8445 0 l 78.08403,107.47345 v 0 L 230.96404,286.62895 v 0 l 126.34263,-41.05121 v 0 l -126.34263,-41.0512 v 0 l 126.34263,-41.05121 v 0 l -78.08403,107.47346 v 0 l 78.08403,107.47346 v 0 L 230.96404,337.37104 v 0"
     stroke-miterlimit="10"
     stroke-width="0.332111"
     id="path1" />
  <plotdata
     application="axidraw"
     model="1"
     plob_version="n/a"
     layer="-2"
     pause_dist="-25400"
     pause_ref="-25400"
     last_x="5.6839949413856055e-14"
     last_y="-5.150845028278894e-14"
     rand_seed="1"
     row="0" />
</svg>
