<svg version="1.1" xmlns="http://www.w3.org/2000/svg" xmlns:xlink="http://www.w3.org/1999/xlink" width="900" height="900"><defs/><g><rect fill="#000000" stroke="none" x="0" y="0" width="900" height="900"/><path fill="none" stroke="cyan" paint-order="fill stroke markers" d=" M 277.0881287873691 217.66464337680915 L 277.0881287873691 202.29080798431482 L 291.7095151178499 197.54003157931103 L 291.7095151178499 182.1661961868167 L 306.3309014483307 177.41541978181286 L 320.9522877788114 182.16619618681665 L 320.9522877788114 197.54003157931098 L 306.3309014483307 202.29080798431477 L 306.3309014483306 217.6646433768091 L 320.9522877788114 222.41541978181286 L 320.9522877788114 237.7892551743072 L 329.98880149369165 225.35156107305622 L 344.61018782417244 230.10233747806 L 353.6467015390527 217.66464337680904 L 344.61018782417244 205.2269492755581 L 353.6467015390527 192.78925517430716 L 339.0253152085719 197.5400315793109 L 329.98880149369165 185.10233747805995 L 315.36741516321086 189.85311388306374 L 315.36741516321086 205.22694927555807 L 300.7460288327301 209.97772568056183 L 291.70951511784983 197.5400315793109" stroke-miterlimit="10" stroke-width="0.5"/><path fill="none" stroke="cyan" paint-order="fill stroke markers" d=" M 306.3309014483307 177.41541978181286 L 306.3309014483307 162.04158438931853 L 297.29438773345044 149.6038902880676 L 282.67300140296965 154.35466669307138 L 282.67300140296965 169.7285020855657 L 291.7095151178499 182.16619618681665 L 277.0881287873691 177.41541978181294 L 262.46674245688826 182.1661961868167 L 262.46674245688826 197.54003157931103 L 277.0881287873691 202.29080798431482" stroke-miterlimit="10" stroke-width="0.5"/><path fill="none" stroke="cyan" paint-order="fill stroke markers" d=" M 277.0881287873691 177.41541978181294 L 277.0881287873691 162.0415843893186 L 268.05161507248886 149.60389028806765 L 277.0881287873691 137.1661961868167 L 291.7095151178499 141.91697259182047 L 291.7095151178499 157.29080798431482 L 277.0881287873691 162.0415843893186" stroke-miterlimit="10" stroke-width="0.5"/><path fill="none" stroke="cyan" paint-order="fill stroke markers" d=" M 277.0881287873691 217.66464337680915 L 291.7095151178499 222.41541978181294 L 300.7460288327301 209.97772568056197 L 315.3674151632109 214.72850208556576 L 315.3674151632109 230.10233747806012 L 329.98880149369165 234.8531138830639 L 339.0253152085719 222.41541978181294 L 353.64670153905274 227.16619618681673 L 344.6101878241725 214.72850208556574 L 353.64670153905274 202.2908079843148 L 344.6101878241725 189.85311388306383 L 329.98880149369165 194.60389028806762 L 320.95228777881147 182.16619618681668 L 329.98880149369165 169.7285020855657 L 344.61018782417244 164.97772568056192 L 353.6467015390527 177.41541978181277 L 353.6467015390527 192.78925517430713 L 368.26808786953353 197.54003157931092 L 377.3046015844137 209.97772568056186 L 391.9259879148945 205.22694927555807 L 400.96250162977475 192.78925517430713 L 391.9259879148945 180.35156107305616 L 377.3046015844137 185.10233747805995 L 368.26808786953353 172.664643376809 L 377.3046015844137 160.22694927555807 L 368.26808786953353 147.7892551743071 L 353.6467015390527 152.5400315793109 L 344.61018782417244 164.97772568056183 L 344.61018782417244 149.6038902880676 L 335.57367410929226 137.16619618681662 L 320.9522877788114 141.9169725918204 L 320.9522877788114 157.29080798431474 L 306.3309014483307 162.04158438931853" stroke-miterlimit="10" stroke-width="0.5"/><path fill="none" stroke="cyan" paint-order="fill stroke markers" d=" M 368.26808786953353 222.41541978181291 L 377.3046015844138 234.85311388306388 L 391.9259879148945 239.60389028806767 L 400.96250162977475 227.16619618681673 L 391.9259879148945 214.72850208556576 L 377.3046015844138 209.97772568056197 L 368.26808786953353 222.41541978181291 L 353.64670153905274 227.1661961868167 L 353.64670153905274 242.54003157931106 L 344.6101878241725 254.977725680562 L 329.98880149369165 250.22694927555813 L 320.9522877788114 237.7892551743072 L 306.3309014483307 242.54003157931098 L 291.70951511784983 237.7892551743072 L 291.70951511784983 222.41541978181277" stroke-miterlimit="10" stroke-width="0.5"/><path fill="none" stroke="cyan" paint-order="fill stroke markers" d=" M 353.64670153905274 242.54003157931106 L 368.26808786953353 247.29080798431482 L 377.3046015844138 234.85311388306388" stroke-miterlimit="10" stroke-width="0.5"/><path fill="none" stroke="cyan" paint-order="fill stroke markers" d=" M 391.9259879148945 214.72850208556576 L 400.96250162977475 202.2908079843148 L 391.9259879148945 189.85311388306386 L 400.96250162977475 177.41541978181291 L 415.58388796025554 182.1661961868167 L 415.58388796025554 197.54003157931103 L 400.96250162977475 202.2908079843148" stroke-miterlimit="10" stroke-width="0.5"/><path fill="none" stroke="cyan" paint-order="fill stroke markers" d=" M 329.98880149369165 250.22694927555813 L 320.9522877788114 262.6646433768091 L 320.9522877788114 278.0384787693034 L 335.57367410929226 282.78925517430724 L 344.61018782417244 270.35156107305625 L 344.61018782417244 254.97772568056195 L 353.64670153905274 267.41541978181294 L 368.26808786953353 272.1661961868167 L 377.3046015844138 259.72850208556576 L 368.26808786953353 247.29080798431482" stroke-miterlimit="10" stroke-width="0.5"/><path fill="none" stroke="cyan" paint-order="fill stroke markers" d=" M 353.64670153905274 267.41541978181294 L 344.6101878241725 279.8531138830639 L 344.6101878241725 295.22694927555824 L 329.98880149369165 299.977725680562 L 320.95228777881147 287.54003157931106 L 329.98880149369165 275.1023374780601 L 344.6101878241725 279.8531138830639" stroke-miterlimit="10" stroke-width="0.5"/><path fill="none" stroke="cyan" paint-order="fill stroke markers" d=" M 329.98880149369165 169.7285020855657 L 320.95228777881147 157.29080798431477" stroke-miterlimit="10" stroke-width="0.5"/><path fill="none" stroke="cyan" paint-order="fill stroke markers" d=" M 282.67300140296965 169.7285020855657 L 268.05161507248886 174.4792784905695 L 268.05161507248886 189.85311388306383 L 253.43022874200807 194.6038902880676 L 244.39371502712783 182.16619618681665 L 253.43022874200807 169.7285020855657 L 268.05161507248886 174.47927849056947" stroke-miterlimit="10" stroke-width="0.5"/><path fill="none" stroke="cyan" paint-order="fill stroke markers" d=" M 344.61018782417244 149.6038902880676 L 359.23157415465323 144.85311388306377 L 368.26808786953353 132.41541978181283 L 382.88947420001426 137.16619618681662 L 382.88947420001426 152.54003157931095 L 368.26808786953353 157.29080798431474 L 359.23157415465323 144.85311388306377" stroke-miterlimit="10" stroke-width="0.5"/><path fill="none" stroke="cyan" paint-order="fill stroke markers" d=" M 306.3309014483307 242.54003157931098 L 306.3309014483306 257.9138669718053 L 320.9522877788114 262.6646433768091" stroke-miterlimit="10" stroke-width="0.5"/><path fill="none" stroke="cyan" paint-order="fill stroke markers" d=" M 344.61018782417244 270.35156107305625 L 359.23157415465323 275.10233747806006 L 368.26808786953353 262.6646433768091 L 382.88947420001426 267.4154197818129 L 382.88947420001426 282.78925517430724 L 368.26808786953353 287.540031579311 L 359.23157415465323 275.10233747806006" stroke-miterlimit="10" stroke-width="0.5"/><path fill="none" stroke="cyan" paint-order="fill stroke markers" d=" M 277.08812878736904 217.664643376809 L 262.46674245688826 222.4154197818128 L 262.46674245688826 237.78925517430713 L 277.08812878736904 242.54003157931092 L 291.70951511784983 237.7892551743071 L 282.67300140296965 250.22694927555813 L 282.67300140296965 265.6007846680525 L 297.29438773345044 270.35156107305625 L 306.3309014483307 257.9138669718053" stroke-miterlimit="10" stroke-width="0.5"/><path fill="none" stroke="cyan" paint-order="fill stroke markers" d=" M 282.67300140296965 250.22694927555813 L 268.05161507248886 245.47617287055436 L 253.43022874200804 250.22694927555813 L 244.39371502712783 237.7892551743072 L 253.43022874200804 225.35156107305622 L 268.05161507248886 230.10233747806 L 268.05161507248886 245.47617287055436" stroke-miterlimit="10" stroke-width="0.5"/><path fill="none" stroke="cyan" paint-order="fill stroke markers" d=" M 368.26808786953353 197.54003157931092 L 377.3046015844137 185.10233747805998" stroke-miterlimit="10" stroke-width="0.5"/><path fill="none" stroke="cyan" paint-order="fill stroke markers" d=" M 353.6467015390527 152.5400315793109 L 344.61018782417244 140.10233747805995 L 329.98880149369165 144.85311388306374 L 320.9522877788114 132.41541978181277 L 329.98880149369165 119.97772568056182 L 344.61018782417244 124.72850208556562 L 344.61018782417244 140.10233747805995" stroke-miterlimit="10" stroke-width="0.5"/><path fill="none" stroke="cyan" paint-order="fill stroke markers" d=" M 353.6467015390527 177.41541978181277 L 368.26808786953353 172.664643376809" stroke-miterlimit="10" stroke-width="0.5"/><path fill="none" stroke="cyan" paint-order="fill stroke markers" d=" M 391.9259879148945 205.22694927555807 L 400.96250162977475 217.66464337680904 L 415.58388796025554 222.4154197818128 L 415.58388796025554 237.78925517430716 L 400.96250162977475 242.54003157931092 L 391.9259879148945 230.10233747805998 L 400.96250162977475 217.664643376809" stroke-miterlimit="10" stroke-width="0.5"/><path fill="none" stroke="cyan" paint-order="fill stroke markers" d=" M 277.08812878736904 242.54003157931092 L 277.08812878736904 257.91386697180525 L 291.70951511784983 262.664643376809 L 291.70951511784983 278.0384787693033 L 277.08812878736904 282.78925517430713 L 268.0516150724888 270.3515610730562" stroke-miterlimit="10" stroke-width="0.5"/><path fill="none" stroke="cyan" paint-order="fill stroke markers" d=" M 268.0516150724888 270.3515610730562 L 277.08812878736904 257.9138669718052" stroke-miterlimit="10" stroke-width="0.5"/><path fill="none" stroke="cyan" paint-order="fill stroke markers" d=" M 531.7570488713435 250.2530807496894 L 531.7570488713435 231.2611455047757 L 567.881856414805 219.5234840112819 L 567.881856414805 200.53154876636836 L 579.045035864259 215.89634713557194 L 560.9826320925282 210.02751638882512 L 579.045035864259 204.15868564207827 L 579.045035864259 166.1748151522508 L 597.1074396359897 160.30598440550398" stroke-miterlimit="10" stroke-width="0.5"/><path fill="none" stroke="cyan" paint-order="fill stroke markers" d=" M 579.045035864259 154.43715365875715 L 590.2082153137129 169.80195202796085 L 567.881856414805 200.53154876636825 L 531.7570488713435 188.79388727287457 L 531.7570488713435 169.80195202796085" stroke-miterlimit="10" stroke-width="0.5"/><path fill="none" stroke="cyan" paint-order="fill stroke markers" d=" M 560.9826320925282 240.75711312723254 L 597.1074396359897 229.01945163373887 L 597.1074396359897 191.03558114391137 L 560.9826320925282 179.29791965041773 L 538.6562731936205 210.0275163888252 L 560.9826320925282 240.75711312723254" stroke-miterlimit="10" stroke-width="0.5"/><path fill="none" stroke="cyan" paint-order="fill stroke markers" d=" M 520.5938694218896 185.1667503971645 L 538.6562731936205 179.2979196504176 L 560.9826320925282 210.02751638882515 L 538.6562731936205 240.7571131272326 L 520.5938694218896 234.88828238048575" stroke-miterlimit="10" stroke-width="0.5"/><path fill="none" stroke="cyan" paint-order="fill stroke markers" d=" M 531.7570488713435 219.52348401128205 L 549.8194526430742 225.3923147580289 L 549.8194526430743 244.3842500029426 L 567.881856414805 250.25308074968945 L 579.045035864259 234.88828238048575 L 597.1074396359897 240.7571131272326 L 608.2706190854436 225.39231475802882 L 597.1074396359897 210.02751638882518 L 608.2706190854436 194.66271801962145 L 597.1074396359897 179.29791965041773 L 579.045035864259 185.1667503971646 L 567.881856414805 169.80195202796088 L 549.8194526430743 175.67078277470765 L 549.8194526430743 194.66271801962142 L 531.7570488713435 200.53154876636827 L 531.7570488713435 219.523484011282 L 509.4306899724357 250.25308074968945" stroke-miterlimit="10" stroke-width="0.5"/><path fill="none" stroke="cyan" paint-order="fill stroke markers" d=" M 502.53146565015885 259.7490483721463 L 502.53146565015885 240.7571131272326 L 484.4690618784281 234.8882823804857 L 484.4690618784281 215.896347135572 L 502.53146565015885 210.02751638882512 L 513.6946450996128 225.39231475802885 L 502.53146565015885 240.75711312723254 L 520.5938694218896 265.6178791188932 L 502.53146565015885 259.7490483721463" stroke-miterlimit="10" stroke-width="0.5"/><path fill="none" stroke="cyan" paint-order="fill stroke markers" d=" M 531.7570488713435 250.2530807496894 L 520.5938694218896 265.6178791188931 L 538.6562731936205 259.7490483721463 L 549.8194526430743 275.11384674135 L 567.881856414805 269.24501599460314 L 579.045035864259 284.6098143638069 L 579.045035864259 265.6178791188931" stroke-miterlimit="10" stroke-width="0.5"/><path fill="none" stroke="cyan" paint-order="fill stroke markers" d=" M 579.045035864259 284.6098143638069 L 608.2706190854436 275.11384674134996 L 608.2706190854436 256.12191149643627 L 626.3330228571745 250.2530807496894 L 626.3330228571745 231.26114550477567 L 644.3954266289052 225.3923147580288 L 655.5586060783592 240.75711312723254 L 644.3954266289052 256.1219114964362 L 626.3330228571745 250.25308074968936 L 637.4962023066283 265.6178791188931 L 626.3330228571745 280.98267748809684 L 608.2706190854436 275.11384674134996 L 597.1074396359897 290.47864511055377 L 579.045035864259 284.6098143638069 L 567.881856414805 299.9746127330106 L 549.8194526430743 294.1057819862637 L 549.8194526430743 275.11384674135 L 538.6562731936205 290.47864511055377 L 520.5938694218896 284.6098143638069 L 520.5938694218896 265.6178791188932" stroke-miterlimit="10" stroke-width="0.5"/><path fill="none" stroke="cyan" paint-order="fill stroke markers" d=" M 502.53146565015885 240.7571131272326 L 520.5938694218896 234.88828238048575" stroke-miterlimit="10" stroke-width="0.5"/><path fill="none" stroke="cyan" paint-order="fill stroke markers" d=" M 597.1074396359897 240.7571131272326 L 597.1074396359897 278.74098361706" stroke-miterlimit="10" stroke-width="0.5"/><path fill="none" stroke="cyan" paint-order="fill stroke markers" d=" M 597.1074396359897 259.7490483721463 L 608.2706190854436 275.11384674135" stroke-miterlimit="10" stroke-width="0.5"/><path fill="none" stroke="cyan" paint-order="fill stroke markers" d=" M 597.1074396359897 259.7490483721463 L 579.045035864259 253.88021762539944 L 579.045035864259 215.89634713557197 L 615.1698434077206 204.15868564207832 L 626.3330228571745 219.52348401128202" stroke-miterlimit="10" stroke-width="0.5"/><path fill="none" stroke="cyan" paint-order="fill stroke markers" d=" M 626.3330228571745 200.53154876636825 L 615.1698434077206 215.89634713557194 L 579.045035864259 204.15868564207832 L 567.881856414805 219.52348401128202 L 590.2082153137129 250.2530807496894 L 579.045035864259 265.6178791188931" stroke-miterlimit="10" stroke-width="0.5"/><path fill="none" stroke="cyan" paint-order="fill stroke markers" d=" M 608.2706190854436 225.3923147580289 L 644.3954266289052 213.65465326453517" stroke-miterlimit="10" stroke-width="0.5"/><path fill="none" stroke="cyan" paint-order="fill stroke markers" d=" M 655.5586060783592 210.02751638882518 L 644.3954266289052 225.3923147580289 L 644.3954266289052 194.66271801962148 L 655.5586060783592 210.02751638882518" stroke-miterlimit="10" stroke-width="0.5"/><path fill="none" stroke="cyan" paint-order="fill stroke markers" d=" M 626.3330228571745 200.53154876636825 L 644.3954266289052 194.66271801962137 L 626.3330228571745 188.7938872728746 L 626.3330228571745 169.8019520279609 L 608.2706190854436 163.93312128121403 L 608.2706190854436 144.9411860363003 L 597.1074396359897 160.30598440550395" stroke-miterlimit="10" stroke-width="0.5"/><path fill="none" stroke="cyan" paint-order="fill stroke markers" d=" M 608.2706190854436 144.9411860363003 L 579.045035864259 135.4452184138434 L 567.881856414805 150.8100167830471 L 549.8194526430743 144.94118603630022 L 538.6562731936205 160.30598440550392 L 520.5938694218896 154.43715365875707 L 520.5938694218896 135.44521841384338 L 538.6562731936205 129.57638766709653 L 549.8194526430743 144.94118603630022 L 549.8194526430743 125.94925079138655 L 567.881856414805 120.08042004463967 L 579.045035864259 135.4452184138434 L 597.1074396359897 129.57638766709658 L 608.2706190854436 144.9411860363003 L 626.3330228571745 139.07235528955346 L 637.4962023066283 154.43715365875715 L 626.3330228571745 169.80195202796085 L 644.3954266289052 163.93312128121406 L 655.5586060783592 179.29791965041775 L 644.3954266289052 194.66271801962145" stroke-miterlimit="10" stroke-width="0.5"/><path fill="none" stroke="cyan" paint-order="fill stroke markers" d=" M 644.3954266289052 225.3923147580289 L 626.3330228571745 219.52348401128202" stroke-miterlimit="10" stroke-width="0.5"/><path fill="none" stroke="cyan" paint-order="fill stroke markers" d=" M 567.881856414805 169.80195202796088 L 590.2082153137129 139.07235528955346" stroke-miterlimit="10" stroke-width="0.5"/><path fill="none" stroke="cyan" paint-order="fill stroke markers" d=" M 579.045035864259 154.43715365875715 L 579.045035864259 135.44521841384346" stroke-miterlimit="10" stroke-width="0.5"/><path fill="none" stroke="cyan" paint-order="fill stroke markers" d=" M 549.8194526430743 175.67078277470773 L 513.6946450996128 163.93312128121403" stroke-miterlimit="10" stroke-width="0.5"/><path fill="none" stroke="cyan" paint-order="fill stroke markers" d=" M 502.53146565015885 160.305984405504 L 520.5938694218896 154.43715365875715 L 502.53146565015885 179.29791965041773 L 502.53146565015885 160.305984405504" stroke-miterlimit="10" stroke-width="0.5"/><path fill="none" stroke="cyan" paint-order="fill stroke markers" d=" M 520.5938694218896 185.1667503971645 L 502.53146565015885 179.2979196504176 L 513.6946450996128 194.66271801962142 L 502.53146565015885 210.02751638882515 L 484.4690618784281 204.15868564207827 L 484.4690618784281 185.16675039716458 L 502.53146565015885 179.29791965041773" stroke-miterlimit="10" stroke-width="0.5"/><path fill="none" stroke="cyan" paint-order="fill stroke markers" d=" M 520.5938694218896 154.43715365875715 L 531.7570488713435 169.80195202796085" stroke-miterlimit="10" stroke-width="0.5"/><path fill="none" stroke="cyan" paint-order="fill stroke markers" d=" M 549.8194526430743 244.38425000294257 L 513.6946450996128 256.12191149643627" stroke-miterlimit="10" stroke-width="0.5"/><path fill="none" stroke="cyan" paint-order="fill stroke markers" d=" M 567.881856414805 250.2530807496894 L 590.2082153137129 280.98267748809684" stroke-miterlimit="10" stroke-width="0.5"/><path fill="none" stroke="cyan" paint-order="fill stroke markers" d=" M 608.2706190854436 194.66271801962137 L 644.3954266289052 206.4003795131151" stroke-miterlimit="10" stroke-width="0.5"/><path fill="none" stroke="cyan" paint-order="fill stroke markers" d=" M 597.1074396359897 179.29791965041764 L 597.1074396359897 141.31404916059026" stroke-miterlimit="10" stroke-width="0.5"/><path fill="none" stroke="cyan" paint-order="fill stroke markers" d=" M 531.7570488713435 200.53154876636822 L 509.4306899724357 169.80195202796077" stroke-miterlimit="10" stroke-width="0.5"/><path fill="none" stroke="cyan" paint-order="fill stroke markers" d=" M 392.03145929121473 434.04984704324863 L 392.03145929121473 414.33437373718454 L 373.28092993163926 408.2419574334651 L 392.03145929121473 402.1495411297456 L 392.03145929121473 382.43406782368146 L 373.28092993163926 376.34165151996206 L 361.6924654803688 392.29180447671354 L 373.28092993163926 408.2419574334651 L 361.6924654803688 424.1921103902166 L 324.19140676121793 412.00727778277763 L 324.19140676121793 392.2918044767135 L 305.44087740164247 386.1993881729941 L 293.852412950372 402.14954112974556 L 305.44087740164247 418.0996940864971 L 293.852412950372 434.04984704324863 L 275.10188359079655 427.9574307395292 L 263.51341913952615 443.9075836962807 L 275.10188359079655 459.85773665303225 L 256.3513542312211 453.7653203493128 L 244.76288977995068 469.71547330606427 L 256.3513542312211 485.6656262628158 L 275.10188359079655 479.57320995909635 L 275.10188359079655 459.85773665303225 L 293.852412950372 453.7653203493128 L 317.0293418529129 485.6656262628158 L 305.44087740164247 501.6157792195673 L 317.0293418529129 517.5659321763188 L 335.77987121248833 511.47351587259936 L 335.77987121248833 491.7580425665352 L 354.53040057206385 485.6656262628158 L 366.11886502333425 501.6157792195673 L 384.8693943829097 495.5233629158478 L 384.8693943829097 475.80788960978373 L 396.4578588341802 491.7580425665352 L 415.2083881937556 485.66562626281575 L 415.2083881937556 465.9501529567516 L 396.4578588341802 459.8577366530322 L 384.8693943829097 475.8078896097837 L 366.11886502333425 469.71547330606427 L 366.11886502333425 430.28452669393596 L 384.8693943829097 424.1921103902165 L 384.8693943829097 404.47663708415234 L 366.11886502333425 398.3842207804329 L 354.53040057206385 414.3343737371844 L 335.77987121248833 408.24195743346496 L 335.77987121248833 388.52648412740086 L 317.0293418529129 382.4340678236814 L 305.44087740164247 398.3842207804329 L 305.44087740164247 378.66874747436873 L 286.690348042067 372.5763311706493 L 275.10188359079655 388.52648412740086 L 286.690348042067 404.47663708415234 L 305.44087740164247 398.3842207804329 L 317.0293418529129 414.3343737371844 L 293.852412950372 446.23467965068744 L 275.10188359079655 440.142263346968 L 263.51341913952615 456.0924163037195 L 275.10188359079655 472.042569260471 L 293.852412950372 465.9501529567516 L 305.44087740164247 481.9003059135031 L 293.852412950372 497.85045887025456 L 305.44087740164247 513.8006118270062 L 324.19140676121793 507.7081955232867 L 312.60294230994754 523.6583484800382 L 324.19140676121793 539.6085014367898 L 342.9419361207934 533.5160851330703 L 342.9419361207934 513.8006118270062 L 324.19140676121793 507.7081955232867 L 324.19140676121793 487.99272221722254 L 361.69246548036887 475.8078896097836 L 373.28092993163926 491.75804256653515 L 392.0314592912148 485.6656262628157 L 392.0314592912148 465.95015295675154 L 373.28092993163926 459.8577366530321 L 373.28092993163926 440.1422633469681 L 392.03145929121473 434.04984704324863" stroke-miterlimit="10" stroke-width="0.5"/><path fill="none" stroke="cyan" paint-order="fill stroke markers" d=" M 361.6924654803688 392.29180447671354 L 342.9419361207934 386.1993881729941 L 324.1914067612179 392.29180447671354 L 312.6029423099475 376.34165151996206 L 324.1914067612179 360.3914985632105 L 342.9419361207934 366.48391486693 L 342.9419361207934 386.1993881729941 L 354.5304005720638 402.14954112974556 L 342.9419361207934 418.0996940864971 L 342.9419361207934 398.384220780433 L 361.6924654803688 392.29180447671354" stroke-miterlimit="10" stroke-width="0.5"/><path fill="none" stroke="cyan" paint-order="fill stroke markers" d=" M 275.10188359079655 479.57320995909635 L 286.690348042067 495.5233629158479 L 305.44087740164247 501.61577921956734 L 305.44087740164247 521.3312525256315 L 286.690348042067 527.4236688293508 L 275.10188359079655 511.4735158725994 L 286.690348042067 495.5233629158478 L 286.690348042067 475.80788960978373 L 305.44087740164247 469.71547330606427 L 293.852412950372 485.6656262628158 L 275.10188359079655 479.57320995909635" stroke-miterlimit="10" stroke-width="0.5"/><path fill="none" stroke="cyan" paint-order="fill stroke markers" d=" M 396.4578588341802 459.8577366530322 L 396.4578588341802 440.14226334696804 L 384.8693943829097 424.1921103902165 L 396.4578588341802 408.24195743346496 L 415.2083881937556 414.3343737371844 L 415.2083881937556 434.0498470432486 L 396.4578588341802 440.142263346968 L 384.8693943829097 456.0924163037195 L 366.11886502333425 450.00000000000006 L 384.8693943829097 443.90758369628065 L 396.4578588341802 459.8577366530322" stroke-miterlimit="10" stroke-width="0.5"/><path fill="none" stroke="cyan" paint-order="fill stroke markers" d=" M 286.690348042067 404.47663708415234 L 275.10188359079655 420.4267900409039 L 275.10188359079655 440.142263346968 L 256.3513542312211 446.23467965068744 L 244.76288977995068 430.28452669393596 L 256.3513542312211 414.3343737371844 L 275.10188359079655 420.4267900409039 L 293.852412950372 414.3343737371844 L 305.44087740164247 430.2845266939359 L 286.690348042067 424.1921103902165 L 286.690348042067 404.47663708415234" stroke-miterlimit="10" stroke-width="0.5"/><path fill="none" stroke="cyan" paint-order="fill stroke markers" d=" M 342.9419361207934 513.8006118270062 L 361.69246548036887 507.7081955232867 L 373.28092993163926 491.75804256653515 L 392.0314592912148 497.85045887025456 L 392.0314592912148 517.5659321763187 L 373.28092993163926 523.6583484800382 L 361.69246548036887 507.7081955232867 L 342.9419361207934 501.61577921956723 L 342.9419361207934 481.9003059135031 L 354.53040057206385 497.85045887025456" stroke-miterlimit="10" stroke-width="0.5"/><path fill="none" stroke="cyan" paint-order="fill stroke markers" d=" M 354.53040057206385 497.85045887025456 L 342.9419361207934 513.8006118270062" stroke-miterlimit="10" stroke-width="0.5"/><path fill="none" stroke="cyan" paint-order="fill stroke markers" d=" M 607.8814503274796 425.4272269790085 L 607.8814503274796 394.9991162746686 L 578.9425973635668 385.5963129603052 L 561.0574026364332 410.2131716268385 L 578.9425973635668 434.8300302933716 L 607.8814503274796 425.42722697900837 L 589.9962556003459 450.0440856455417 L 607.8814503274796 474.66094431207466 L 636.8203032913923 465.2581409977115 L 636.8203032913923 434.83003029337175 L 607.8814503274796 425.4272269790085" stroke-miterlimit="10" stroke-width="0.5"/><path fill="none" stroke="cyan" paint-order="fill stroke markers" d=" M 607.8814503274796 394.9991162746686 L 636.8203032913923 385.59631296030534 L 607.8814503274796 376.1935096459421 L 589.9962556003459 400.8103683124753 L 625.7666450546133 450.0440856455416 L 589.9962556003459 499.2778029786079 L 607.8814503274796 523.8946616451411 L 636.8203032913923 514.4918583307779 L 636.8203032913923 484.0637476264379 L 607.8814503274797 444.2328336077348 L 543.1722079092995 465.2581409977116 L 543.1722079092995 514.4918583307776 L 561.0574026364332 539.1087169973109 L 589.9962556003459 529.7059136829477 L 589.9962556003459 499.27780297860784 L 532.1185496725204 480.4721963498815 L 532.1185496725204 419.61597494120167 L 503.17969670860765 410.2131716268384 L 485.294501981474 434.8300302933716 L 503.17969670860765 459.4468889599048 L 550.0037443996542 474.6609443120747 L 589.9962556003459 419.6159749412016 L 561.0574026364332 379.7850609224985 L 532.1185496725204 370.38225760813526 L 514.2333549453867 394.9991162746684 L 532.1185496725204 419.6159749412016 L 589.9962556003459 400.8103683124753 L 589.9962556003459 370.38225760813543 L 561.0574026364332 360.97945429377216 L 578.9425973635668 385.59631296030534" stroke-miterlimit="10" stroke-width="0.5"/><path fill="none" stroke="cyan" paint-order="fill stroke markers" d=" M 607.8814503274796 455.8553376833483 L 636.8203032913923 416.0244236646452 L 636.8203032913923 385.59631296030534 L 654.7054980185261 410.2131716268386 L 625.7666450546133 400.8103683124752 L 578.9425973635668 416.02442366464516 L 578.9425973635668 484.06374762643793 L 625.7666450546133 499.27780297860795 L 654.7054980185261 489.8749996642447 L 654.7054980185261 459.4468889599048 L 625.7666450546133 450.04408564554154 L 654.7054980185261 440.64128233117833 L 654.7054980185261 410.21317162683846 L 636.8203032913923 434.83003029337175" stroke-miterlimit="10" stroke-width="0.5"/><path fill="none" stroke="cyan" paint-order="fill stroke markers" d=" M 607.8814503274796 455.8553376833483 L 543.1722079092995 434.83003029337146" stroke-miterlimit="10" stroke-width="0.5"/><path fill="none" stroke="cyan" paint-order="fill stroke markers" d=" M 636.8203032913923 465.2581409977115 L 654.7054980185261 489.8749996642447 L 636.8203032913923 514.4918583307779 L 607.8814503274796 505.08905501641465 L 607.8814503274796 474.6609443120748 L 578.9425973635668 465.2581409977115 L 561.0574026364332 489.8749996642448 L 578.9425973635668 514.4918583307779 L 561.0574026364332 539.1087169973111 L 532.1185496725204 529.7059136829479 L 561.0574026364332 520.3031103685846 L 589.9962556003459 480.4721963498815 L 550.0037443996542 425.42722697900837 L 503.17969670860765 440.64128233117833 L 485.294501981474 465.2581409977115 L 485.294501981474 434.8300302933717 L 514.2333549453867 425.4272269790084 L 532.1185496725204 450.04408564554166 L 514.2333549453867 474.66094431207483 L 532.1185496725204 499.2778029786079 L 561.0574026364332 489.8749996642447 L 561.0574026364332 459.44688895990475 L 532.1185496725204 450.04408564554154 L 561.0574026364332 440.6412823311784 L 561.0574026364332 410.2131716268386 L 532.1185496725204 400.81036831247525 L 514.2333549453867 425.4272269790084" stroke-miterlimit="10" stroke-width="0.5"/><path fill="none" stroke="cyan" paint-order="fill stroke markers" d=" M 532.1185496725204 400.81036831247525 L 532.1185496725204 370.38225760813543 L 561.0574026364332 360.97945429377216 L 543.1722079092995 385.59631296030534 L 543.1722079092995 434.83003029337146" stroke-miterlimit="10" stroke-width="0.5"/><path fill="none" stroke="cyan" paint-order="fill stroke markers" d=" M 543.1722079092995 416.0244236646452 L 572.1110608732122 425.4272269790085 L 572.1110608732122 474.6609443120746 L 543.1722079092995 484.0637476264379" stroke-miterlimit="10" stroke-width="0.5"/><path fill="none" stroke="cyan" paint-order="fill stroke markers" d=" M 543.1722079092995 495.6862517020515 L 572.1110608732122 505.0890550164147" stroke-miterlimit="10" stroke-width="0.5"/><path fill="none" stroke="cyan" paint-order="fill stroke markers" d=" M 578.9425973635668 495.68625170205144 L 561.0574026364332 471.0693930355182 L 589.9962556003459 431.2384790168151 L 618.9351085642586 440.6412823311784" stroke-miterlimit="10" stroke-width="0.5"/><path fill="none" stroke="cyan" paint-order="fill stroke markers" d=" M 514.2333549453867 474.66094431207483 L 485.294501981474 465.25814099771156 L 503.17969670860765 489.8749996642447 L 532.1185496725204 480.4721963498814 L 514.2333549453867 505.0890550164147 L 532.1185496725204 529.7059136829479 L 532.1185496725204 499.277802978608" stroke-miterlimit="10" stroke-width="0.5"/><path fill="none" stroke="cyan" paint-order="fill stroke markers" d=" M 625.7666450546133 431.23847901681506 L 607.8814503274796 406.6216203502819" stroke-miterlimit="10" stroke-width="0.5"/><path fill="none" stroke="cyan" paint-order="fill stroke markers" d=" M 596.8277920907005 410.21317162683846 L 596.8277920907005 440.64128233117833 L 550.0037443996542 455.8553376833483 L 532.1185496725204 431.23847901681506" stroke-miterlimit="10" stroke-width="0.5"/><path fill="none" stroke="cyan" paint-order="fill stroke markers" d=" M 578.9425973635668 514.4918583307779 L 607.8814503274796 505.08905501641465" stroke-miterlimit="10" stroke-width="0.5"/><path fill="none" stroke="cyan" paint-order="fill stroke markers" d=" M 521.0648914357414 434.8300302933716 L 521.0648914357414 465.25814099771145" stroke-miterlimit="10" stroke-width="0.5"/><path fill="none" stroke="cyan" paint-order="fill stroke markers" d=" M 532.1185496725204 468.849692274268 L 550.0037443996542 444.23283360773485 L 596.8277920907005 459.4468889599048 L 596.8277920907005 489.8749996642447" stroke-miterlimit="10" stroke-width="0.5"/><path fill="none" stroke="cyan" paint-order="fill stroke markers" d=" M 607.8814503274797 493.4665509408012 L 625.7666450546133 468.849692274268" stroke-miterlimit="10" stroke-width="0.5"/><path fill="none" stroke="cyan" paint-order="fill stroke markers" d=" M 618.9351085642586 459.44688895990475 L 589.9962556003459 468.84969227426797 L 561.0574026364332 429.0187782555649 L 578.9425973635668 404.4019195890317" stroke-miterlimit="10" stroke-width="0.5"/><path fill="none" stroke="cyan" paint-order="fill stroke markers" d=" M 572.1110608732122 394.9991162746684 L 543.1722079092995 404.40191958903165" stroke-miterlimit="10" stroke-width="0.5"/><path fill="none" stroke="cyan" paint-order="fill stroke markers" d=" M 331.53531673791696 687.3509584678097 L 357.72004853002704 678.8430233679773 L 365.81157564693905 689.9800550006972 L 357.72004853002704 701.117086633417 L 365.81157564693905 712.2541182661369 L 378.90394154299406 708.0001507162206 L 378.90394154299406 694.2340225506133 L 352.719209750884 685.7260874507808 L 344.62768263397203 696.8631190835008 L 344.62768263397203 683.0969909178935 L 352.719209750884 694.2340225506134 L 378.90394154299406 685.7260874507809 L 378.90394154299406 671.9599592851737 L 386.99546865990607 660.8229276524537 L 400.0878345559611 665.07689520237 L 400.0878345559611 678.8430233679773 L 413.18020045201615 683.0969909178935 L 413.18020045201615 696.8631190835008 L 400.0878345559611 701.117086633417 L 400.0878345559611 714.8832147990242 L 386.99546865990607 719.1371823489405 L 378.90394154299406 708.0001507162207 L 365.81157564693905 703.7461831663044 L 365.81157564693905 676.2139268350899 L 378.90394154299406 671.9599592851736 L 365.81157564693905 667.7059917352574 L 357.72004853002704 678.8430233679773 L 344.62768263397203 674.589055818061 L 344.62768263397203 660.8229276524537 L 357.72004853002704 656.5689601025374 L 357.72004853002704 642.8028319369301 L 344.62768263397203 638.5488643870139 L 328.444628400148 660.8229276524537 L 336.53615551706 671.9599592851737 L 323.44378962100495 667.7059917352573 L 336.53615551706 663.4520241853411 L 336.53615551706 635.9197678541266 L 323.44378962100495 631.6658003042103 L 315.352262504093 642.8028319369301 L 323.44378962100495 653.93986356965 L 315.352262504093 665.07689520237 L 323.44378962100495 676.2139268350899 L 310.35142372495 694.2340225506133 L 297.2590578288949 689.9800550006971 L 289.1675307119829 701.117086633417 L 276.0751648159279 696.8631190835008 L 267.9836376990159 708.0001507162206 L 276.0751648159279 719.1371823489405 L 302.259896608038 710.6292472491081 L 302.259896608038 696.8631190835008 L 310.35142372495 708.0001507162206 L 297.2590578288949 703.7461831663045 L 281.0760035950709 726.0202464317441 L 289.1675307119829 737.1572780644641 L 302.259896608038 732.9033105145478 L 302.259896608038 719.1371823489405 L 315.352262504093 714.8832147990242 L 315.352262504093 701.117086633417 L 336.53615551706 694.2340225506133 L 344.62768263397203 705.3710541833333 L 357.72004853002704 701.117086633417 L 331.53531673791696 692.6091515335845" stroke-miterlimit="10" stroke-width="0.5"/><path fill="none" stroke="cyan" paint-order="fill stroke markers" d=" M 328.444628400148 696.8631190835008 L 344.62768263397203 719.1371823489405 L 336.53615551706 730.2742139816604 L 323.44378962100495 726.0202464317442 L 315.352262504093 737.1572780644641 L 323.44378962100495 748.294309697184 L 336.53615551706 744.0403421472677 L 336.53615551706 716.5080858160532 L 323.44378962100495 712.2541182661369 L 336.53615551706 708.0001507162207 L 328.444628400148 719.1371823489405 L 344.62768263397203 741.4112456143804 L 357.72004853002704 737.1572780644641 L 370.8124144260821 741.4112456143803 L 370.8124144260821 755.1773737799875 L 357.72004853002704 759.4313413299038 L 357.72004853002704 773.1974694955111 L 344.62768263397203 777.4514370454274 L 336.53615551706 766.3144054127075 L 323.44378962100495 770.5683729626237 L 315.352262504093 759.4313413299038 L 323.44378962100495 748.294309697184 L 323.44378962100495 734.5281815315767 L 349.62852141311504 726.0202464317441 L 357.72004853002704 737.1572780644641 L 357.72004853002704 723.3911498988568 L 344.62768263397203 719.1371823489405 L 344.62768263397203 705.3710541833333 L 331.53531673791696 701.117086633417 L 331.53531673791696 678.8430233679773 L 344.62768263397203 674.589055818061 L 336.53615551706 685.7260874507809 L 315.352262504093 678.8430233679773 L 315.352262504093 665.07689520237 L 302.259896608038 660.8229276524537 L 318.44295084186194 683.0969909178935" stroke-miterlimit="10" stroke-width="0.5"/><path fill="none" stroke="cyan" paint-order="fill stroke markers" d=" M 323.44378962100495 681.4721199008646 L 323.44378962100495 653.93986356965 L 336.53615551706 649.6858960197338 L 344.62768263397203 660.8229276524537 L 328.444628400148 683.0969909178935" stroke-miterlimit="10" stroke-width="0.5"/><path fill="none" stroke="cyan" paint-order="fill stroke markers" d=" M 323.44378962100495 631.6658003042103 L 315.352262504093 620.5287686714904 L 323.44378962100495 609.3917370387705 L 336.53615551706 613.6457045886868 L 344.62768263397203 602.5086729559669 L 357.72004853002704 606.7626405058832 L 357.72004853002704 620.5287686714904 L 370.8124144260821 624.7827362214067 L 370.8124144260821 638.548864387014 L 357.72004853002704 642.8028319369303 L 349.62852141311504 653.9398635696501 L 323.44378962100495 645.4319284698175 L 323.44378962100495 631.6658003042103" stroke-miterlimit="10" stroke-width="0.5"/><path fill="none" stroke="cyan" paint-order="fill stroke markers" d=" M 289.1675307119829 642.8028319369303 L 281.0760035950709 653.9398635696501 L 297.2590578288949 676.2139268350899 L 310.35142372495 671.9599592851736 L 302.259896608038 683.0969909178935 L 302.259896608038 669.3308627522862 L 276.0751648159279 660.8229276524537 L 267.9836376990159 671.9599592851737 L 254.8912718029609 676.2139268350899 L 246.79974468604888 665.07689520237 L 254.8912718029609 653.93986356965 L 246.79974468604888 642.8028319369301 L 254.8912718029609 631.6658003042103 L 267.9836376990159 635.9197678541266 L 276.0751648159279 624.7827362214066 L 289.1675307119829 629.0367037713229 L 289.1675307119829 642.8028319369301 L 297.2590578288949 653.93986356965 L 281.0760035950709 676.2139268350899 L 267.9836376990159 671.9599592851736 L 276.0751648159279 683.0969909178935 L 289.1675307119829 678.8430233679773 L 289.1675307119829 665.07689520237 L 302.259896608038 660.8229276524537 L 302.259896608038 647.0567994868464 L 289.1675307119829 642.8028319369303" stroke-miterlimit="10" stroke-width="0.5"/><path fill="none" stroke="cyan" paint-order="fill stroke markers" d=" M 315.352262504093 687.3509584678097 L 289.1675307119829 678.8430233679773 L 297.2590578288949 689.9800550006972 L 310.35142372495 685.7260874507809 L 323.44378962100495 703.7461831663045 L 315.352262504093 714.8832147990244 L 323.44378962100495 726.0202464317442 L 323.44378962100495 698.4879901005296" stroke-miterlimit="10" stroke-width="0.5"/><path fill="none" stroke="cyan" paint-order="fill stroke markers" d=" M 318.44295084186194 696.8631190835008 L 302.259896608038 719.1371823489405 L 289.1675307119829 714.8832147990242 L 289.1675307119829 701.117086633417 L 315.352262504093 692.6091515335845" stroke-miterlimit="10" stroke-width="0.5"/><path fill="none" stroke="cyan" paint-order="fill stroke markers" d=" M 289.1675307119829 737.1572780644641 L 289.1675307119829 750.9234062300714 L 276.0751648159279 755.1773737799876 L 267.9836376990159 744.0403421472678 L 254.8912718029609 748.294309697184 L 246.79974468604888 737.1572780644641 L 254.8912718029609 726.0202464317442 L 246.79974468604888 714.8832147990244 L 254.8912718029609 703.7461831663045 L 267.9836376990159 708.0001507162207 L 281.0760035950709 703.7461831663045 L 297.2590578288949 726.0202464317442" stroke-miterlimit="10" stroke-width="0.5"/><path fill="none" stroke="cyan" paint-order="fill stroke markers" d=" M 297.2590578288949 726.0202464317442 L 289.1675307119829 737.1572780644641" stroke-miterlimit="10" stroke-width="0.5"/><path fill="none" stroke="cyan" paint-order="fill stroke markers" d=" M 484.440211954952 719.6664875511186 L 484.440211954952 660.2761474790034 L 522.0959252419989 648.0410645563429 L 522.0959252419989 628.2442845323045 L 540.9237818855222 622.1267430709742" stroke-miterlimit="10" stroke-width="0.5"/><path fill="none" stroke="cyan" paint-order="fill stroke markers" d=" M 514.9043239394834 689.9713175150611 L 484.440211954952 680.0729275030418 L 503.26806859847545 673.9553860417116 L 503.26806859847545 654.1586060176733" stroke-miterlimit="10" stroke-width="0.5"/><path fill="none" stroke="cyan" paint-order="fill stroke markers" d=" M 522.0959252419989 648.0410645563429 L 533.7321805830069 664.0569960296924 L 514.9043239394834 657.939454568362 L 514.9043239394834 618.3458945202851" stroke-miterlimit="10" stroke-width="0.5"/><path fill="none" stroke="cyan" paint-order="fill stroke markers" d=" M 514.9043239394834 638.1426745443237 L 533.7321805830069 632.0251330829933 L 545.3684359240148 648.0410645563428 L 522.0959252419989 680.0729275030419 L 503.26806859847545 673.9553860417116" stroke-miterlimit="10" stroke-width="0.5"/><path fill="none" stroke="cyan" paint-order="fill stroke markers" d=" M 533.7321805830069 632.0251330829933 L 533.7321805830069 612.2283530589549 L 552.5600372265303 638.1426745443237" stroke-miterlimit="10" stroke-width="0.5"/><path fill="none" stroke="cyan" paint-order="fill stroke markers" d=" M 514.9043239394834 638.1426745443235 L 533.7321805830069 644.2602160056539 L 571.3878938700537 632.0251330829933 L 571.3878938700537 651.8219131070317 L 590.2157505135772 657.9394545683621 L 601.8520058545852 641.9235230950126 L 625.124516536601 673.9553860417116 L 606.2966598930777 680.0729275030419 L 606.2966598930777 699.8697075270802 L 625.1245165366012 705.9872489884106 L 601.8520058545852 738.0191119351095 L 590.2157505135772 722.00318046176 L 571.3878938700537 728.1207219230904 L 571.3878938700537 747.9175019471288 L 552.5600372265303 754.0350434084592" stroke-miterlimit="10" stroke-width="0.5"/><path fill="none" stroke="cyan" paint-order="fill stroke markers" d=" M 552.5600372265303 625.907591621663 L 571.3878938700537 632.0251330829933 L 583.0241492110617 616.0092016096438" stroke-miterlimit="10" stroke-width="0.5"/><path fill="none" stroke="cyan" paint-order="fill stroke markers" d=" M 594.6604045520696 632.0251330829933 L 571.3878938700537 599.9932701362943 L 514.9043239394834 618.3458945202851" stroke-miterlimit="10" stroke-width="0.5"/><path fill="none" stroke="cyan" paint-order="fill stroke markers" d=" M 552.5600372265303 606.1108115976247 L 552.5600372265303 638.1426745443235" stroke-miterlimit="10" stroke-width="0.5"/><path fill="none" stroke="cyan" paint-order="fill stroke markers" d=" M 601.8520058545852 622.1267430709742 L 601.8520058545852 641.9235230950126 L 620.6798624981085 648.0410645563429" stroke-miterlimit="10" stroke-width="0.5"/><path fill="none" stroke="cyan" paint-order="fill stroke markers" d=" M 613.4882611955932 657.939454568362 L 632.3161178391165 632.0251330829933" stroke-miterlimit="10" stroke-width="0.5"/><path fill="none" stroke="cyan" paint-order="fill stroke markers" d=" M 632.3161178391165 696.0888589763913 L 655.5886285211326 664.0569960296923 L 620.6798624981085 616.0092016096438 L 583.0241492110617 628.2442845323044" stroke-miterlimit="10" stroke-width="0.5"/><path fill="none" stroke="cyan" paint-order="fill stroke markers" d=" M 613.4882611955932 657.9394545683621 L 643.9523731801246 648.0410645563428 L 632.3161178391165 664.0569960296923 L 643.9523731801246 680.0729275030418" stroke-miterlimit="10" stroke-width="0.5"/><path fill="none" stroke="cyan" paint-order="fill stroke markers" d=" M 632.3161178391165 651.8219131070317 L 643.9523731801246 667.8378445803812 L 632.3161178391165 683.8537760537308 L 655.5886285211326 715.8856390004298 L 620.6798624981086 763.9334334204783 L 583.0241492110617 751.6983504978177 L 571.3878938700537 767.7142819711672 L 552.5600372265303 761.5967405098369" stroke-miterlimit="10" stroke-width="0.5"/><path fill="none" stroke="cyan" paint-order="fill stroke markers" d=" M 643.9523731801246 699.8697075270803 L 632.3161178391165 715.8856390004298 L 643.9523731801246 731.9015704737793" stroke-miterlimit="10" stroke-width="0.5"/><path fill="none" stroke="cyan" paint-order="fill stroke markers" d=" M 632.3161178391165 715.8856390004298 L 613.4882611955932 709.7680975390995 L 613.4882611955932 670.1745374910226 L 632.3161178391165 664.0569960296923" stroke-miterlimit="10" stroke-width="0.5"/><path fill="none" stroke="cyan" paint-order="fill stroke markers" d=" M 632.3161178391165 696.0888589763913 L 613.4882611955932 689.971317515061 L 632.3161178391165 683.8537760537308" stroke-miterlimit="10" stroke-width="0.5"/><path fill="none" stroke="cyan" paint-order="fill stroke markers" d=" M 613.4882611955932 722.0031804617602 L 632.3161178391165 747.9175019471288 L 613.4882611955932 741.7999604857985 L 601.8520058545852 757.8158919591481" stroke-miterlimit="10" stroke-width="0.5"/><path fill="none" stroke="cyan" paint-order="fill stroke markers" d=" M 583.0241492110617 751.6983504978177 L 583.0241492110617 731.9015704737793 L 594.6604045520697 747.9175019471288 L 571.3878938700537 779.9493648938278" stroke-miterlimit="10" stroke-width="0.5"/><path fill="none" stroke="cyan" paint-order="fill stroke markers" d=" M 583.0241492110617 763.9334334204783 L 564.1962925675383 757.8158919591481 L 564.1962925675383 738.0191119351097 L 601.8520058545852 725.784029012449 L 613.4882611955932 741.7999604857985" stroke-miterlimit="10" stroke-width="0.5"/><path fill="none" stroke="cyan" paint-order="fill stroke markers" d=" M 564.1962925675383 757.8158919591481 L 552.5600372265303 773.8318234324975 L 552.5600372265303 741.7999604857985" stroke-miterlimit="10" stroke-width="0.5"/><path fill="none" stroke="cyan" paint-order="fill stroke markers" d=" M 583.0241492110617 763.9334334204783 L 571.3878938700537 747.9175019471287 L 533.7321805830069 735.6824190244681 L 545.3684359240148 719.6664875511186 L 533.7321805830069 703.6505560777691 L 514.9043239394834 709.7680975390995 L 514.9043239394834 670.1745374910226 L 533.7321805830069 676.292078952353 L 545.3684359240149 660.2761474790034 L 533.7321805830069 644.260216005654 L 545.3684359240149 628.2442845323044" stroke-miterlimit="10" stroke-width="0.5"/><path fill="none" stroke="cyan" paint-order="fill stroke markers" d=" M 545.3684359240148 751.6983504978177 L 533.7321805830069 735.6824190244681 L 514.9043239394834 741.7999604857985" stroke-miterlimit="10" stroke-width="0.5"/><path fill="none" stroke="cyan" paint-order="fill stroke markers" d=" M 514.9043239394834 722.0031804617602 L 514.9043239394834 761.5967405098369 L 571.3878938700537 779.9493648938278" stroke-miterlimit="10" stroke-width="0.5"/><path fill="none" stroke="cyan" paint-order="fill stroke markers" d=" M 533.7321805830069 767.7142819711672 L 552.5600372265303 741.7999604857985" stroke-miterlimit="10" stroke-width="0.5"/><path fill="none" stroke="cyan" paint-order="fill stroke markers" d=" M 503.26806859847545 725.784029012449 L 514.9043239394834 709.7680975390995 L 503.26806859847545 693.7521660657499" stroke-miterlimit="10" stroke-width="0.5"/><path fill="none" stroke="cyan" paint-order="fill stroke markers" d=" M 514.9043239394834 689.9713175150611 L 484.440211954952 699.8697075270802" stroke-miterlimit="10" stroke-width="0.5"/><path fill="none" stroke="cyan" paint-order="fill stroke markers" d=" M 484.440211954952 719.6664875511186 L 522.0959252419989 731.9015704737792" stroke-miterlimit="10" stroke-width="0.5"/><path fill="none" stroke="cyan" paint-order="fill stroke markers" d=" M 496.07646729596 683.8537760537307 L 496.07646729596 664.0569960296923 L 514.9043239394834 657.939454568362" stroke-miterlimit="10" stroke-width="0.5"/><path fill="none" stroke="cyan" paint-order="fill stroke markers" d=" M 552.5600372265303 606.1108115976247 L 564.1962925675383 622.126743070974 L 583.0241492110617 616.0092016096438" stroke-miterlimit="10" stroke-width="0.5"/><path fill="none" stroke="cyan" paint-order="fill stroke markers" d=" M 594.6604045520696 632.0251330829933 L 583.0241492110617 648.0410645563428 L 583.0241492110617 628.2442845323044" stroke-miterlimit="10" stroke-width="0.5"/><path fill="none" stroke="cyan" paint-order="fill stroke markers" d=" M 601.8520058545852 622.126743070974 L 613.4882611955932 638.1426745443235 L 601.8520058545852 654.158606017673 L 564.1962925675383 641.9235230950125 L 564.1962925675383 622.126743070974" stroke-miterlimit="10" stroke-width="0.5"/><path fill="none" stroke="cyan" paint-order="fill stroke markers" d=" M 594.6604045520696 632.0251330829933 L 613.4882611955932 625.907591621663 L 625.124516536601 641.9235230950125" stroke-miterlimit="10" stroke-width="0.5"/><path fill="none" stroke="cyan" paint-order="fill stroke markers" d=" M 625.1245165366012 654.1586060176732 L 625.1245165366012 673.9553860417116 L 643.9523731801246 680.0729275030419" stroke-miterlimit="10" stroke-width="0.5"/><path fill="none" stroke="cyan" paint-order="fill stroke markers" d=" M 643.9523731801246 699.8697075270802 L 625.1245165366012 705.9872489884106 L 625.1245165366012 725.784029012449" stroke-miterlimit="10" stroke-width="0.5"/><path fill="none" stroke="cyan" paint-order="fill stroke markers" d=" M 613.4882611955932 722.00318046176 L 643.9523731801246 731.9015704737793" stroke-miterlimit="10" stroke-width="0.5"/><path fill="none" stroke="cyan" paint-order="fill stroke markers" d=" M 625.1245165366012 738.0191119351097 L 613.4882611955932 754.0350434084592 L 594.6604045520697 747.9175019471288" stroke-miterlimit="10" stroke-width="0.5"/><path fill="none" stroke="cyan" paint-order="fill stroke markers" d=" M 533.7321805830069 767.7142819711672 L 533.7321805830069 747.9175019471288 L 514.9043239394834 741.7999604857985" stroke-miterlimit="10" stroke-width="0.5"/><path fill="none" stroke="cyan" paint-order="fill stroke markers" d=" M 514.9043239394834 722.0031804617602 L 533.7321805830069 715.8856390004298 L 522.0959252419989 731.9015704737792" stroke-miterlimit="10" stroke-width="0.5"/><path fill="none" stroke="cyan" paint-order="fill stroke markers" d=" M 503.26806859847545 725.7840290124489 L 503.26806859847545 705.9872489884106 L 522.0959252419989 699.8697075270802 L 545.3684359240149 731.9015704737792 L 533.7321805830069 747.9175019471288" stroke-miterlimit="10" stroke-width="0.5"/><path fill="none" stroke="cyan" paint-order="fill stroke markers" d=" M 514.9043239394834 722.00318046176 L 496.07646729596 715.8856390004298 L 496.07646729596 696.0888589763914" stroke-miterlimit="10" stroke-width="0.5"/><path fill="none" stroke="cyan" paint-order="fill stroke markers" d=" M 503.26806859847545 686.1904689643721 L 514.9043239394834 670.1745374910226 L 503.26806859847545 654.1586060176732" stroke-miterlimit="10" stroke-width="0.5"/><path fill="none" stroke="cyan" paint-order="fill stroke markers" d=" M 552.5600372265303 618.3458945202851 L 571.3878938700537 612.2283530589549 L 583.0241492110617 628.2442845323044" stroke-miterlimit="10" stroke-width="0.5"/><path fill="none" stroke="cyan" paint-order="fill stroke markers" d=" M 613.4882611955932 638.1426745443235 L 632.3161178391165 632.0251330829933" stroke-miterlimit="10" stroke-width="0.5"/><path fill="none" stroke="cyan" paint-order="fill stroke markers" d=" M 632.3161178391165 696.0888589763913 L 643.9523731801246 712.1047904497409 L 632.3161178391165 728.1207219230904" stroke-miterlimit="10" stroke-width="0.5"/><path fill="none" stroke="cyan" paint-order="fill stroke markers" d=" M 620.6798624981086 731.9015704737792 L 601.8520058545852 738.0191119351095 L 601.8520058545852 757.815891959148" stroke-miterlimit="10" stroke-width="0.5"/><path fill="none" stroke="cyan" paint-order="fill stroke markers" d=" M 540.9237818855223 757.8158919591478 L 522.0959252419989 751.6983504978176 L 522.0959252419989 731.9015704737792" stroke-miterlimit="10" stroke-width="0.5"/><path fill="none" stroke="cyan" paint-order="fill stroke markers" d=" M 503.26806859847545 705.9872489884106 L 484.440211954952 699.8697075270802" stroke-miterlimit="10" stroke-width="0.5"/></g></svg>