<svg version="1.1" xmlns="http://www.w3.org/2000/svg" xmlns:xlink="http://www.w3.org/1999/xlink" width="900" height="900"><defs/><g><path fill="#222222" stroke="#cccccc" paint-order="fill stroke markers" d=" M 452.98699 282.24957 L 455.89115 282.99134 L 458.63195 284.20476 L 461.13339 285.85618 L 463.3261 287.8998 L 465.14929 290.27894 L 466.5524 292.92766 L 467.49652 295.77248 L 467.95546 298.73453 L 467.91651 301.73167 L 467.38074 304.68079 L 466.36301 307.50012 L 464.89155 310.11147 L 463.00714 312.44244 L 460.76206 314.42838 L 458.21854 316.01423 L 455.44713 317.15601 L 452.52468 317.82206 L 450 318 L 418 318 L 418 332 L 450 332 L 452.98699 332.24957 L 455.89115 332.99134 L 458.63195 334.20476 L 461.13339 335.85618 L 463.3261 337.8998 L 465.14929 340.27894 L 466.5524 342.92766 L 467.49652 345.77248 L 467.95546 348.73453 L 467.91651 351.73167 L 467.38074 354.68079 L 466.36301 357.50012 L 464.89155 360.11147 L 463.00714 362.44244 L 460.76206 364.42838 L 458.21854 366.01423 L 455.44713 367.15601 L 452.52468 367.82206 L 450 368 L 418 368 L 418 382 L 482 382 L 482 300 L 482.24957 297.01301 L 482.99134 294.10885 L 484.20476 291.36805 L 485.85618 288.86661 L 487.8998 286.6739 L 490.27894 284.85071 L 492.92766 283.4476 L 495.77248 282.50348 L 498.73453 282.04454 L 501.73167 282.08349 L 504.68079 282.61926 L 507.50012 283.63699 L 510.11147 285.10845 L 512.44244 286.99286 L 514.42838 289.23794 L 516.01423 291.78146 L 517.15601 294.55287 L 517.82206 297.47532 L 518 300 L 518 382 L 532 382 L 532 350 L 532.24957 347.01301 L 532.99134 344.10885 L 534.20476 341.36805 L 535.85618 338.86661 L 537.8998 336.6739 L 540.27894 334.85071 L 542.92766 333.4476 L 545.77248 332.50348 L 548.73453 332.04454 L 551.73167 332.08349 L 554.68079 332.61926 L 557.50012 333.63699 L 560.11147 335.10845 L 562.44244 336.99286 L 564.42838 339.23794 L 566.01423 341.78146 L 567.15601 344.55287 L 567.82206 347.47532 L 568 350 L 568 382 L 582 382 L 582 318 L 550 318 L 547.01301 317.75043 L 544.10885 317.00866 L 541.36805 315.79524 L 538.86661 314.14382 L 536.6739 312.1002 L 534.85071 309.72106 L 533.4476 307.07234 L 532.50348 304.22752 L 532.04454 301.26547 L 532.08349 298.26833 L 532.61926 295.31921 L 533.63699 292.49988 L 535.10845 289.88853 L 536.99286 287.55756 L 539.23794 285.57162 L 541.78146 283.98577 L 544.55287 282.84399 L 547.47532 282.17794 L 550 282 L 600 282 L 602.98699 282.24957 L 605.89115 282.99134 L 608.63195 284.20476 L 611.13339 285.85618 L 613.3261 287.8998 L 615.14929 290.27894 L 616.5524 292.92766 L 617.49652 295.77248 L 618 300 L 618 400 L 617.92778 400.86435 L 617.91651 401.73167 L 617.8032 402.35535 L 617.75043 402.98699 L 617.53578 403.82739 L 617.38074 404.68079 L 617.16554 405.27695 L 617.00866 405.89115 L 616.65748 406.68437 L 616.36301 407.50012 L 616.05187 408.05229 L 615.79524 408.63195 L 615.31734 409.35584 L 614.89155 410.11147 L 614.49305 410.60441 L 614.14382 411.13339 L 613.55246 411.76789 L 613.00714 412.44244 L 612.53233 412.86245 L 612.1002 413.3261 L 611.4118 413.85364 L 610.76206 414.42838 L 610.22416 414.76376 L 609.72106 415.14929 L 608.95459 415.55531 L 608.21854 416.01423 L 607.63246 416.25568 L 607.07234 416.5524 L 606.24908 416.82562 L 605.44713 417.15601 L 604.82917 417.29685 L 604.22752 417.49652 L 603.37028 417.62934 L 602.52468 417.82206 L 601.79413 417.87355 L 601.26547 417.95546 L 600.73058 417.94851 L 600 418 L 468 418 L 468 482 L 582 482 L 582 468 L 500 468 L 497.01301 467.75043 L 494.10885 467.00866 L 491.36805 465.79524 L 488.86661 464.14382 L 486.6739 462.1002 L 484.85071 459.72106 L 483.4476 457.07234 L 482.50348 454.22752 L 482.04454 451.26547 L 482.08349 448.26833 L 482.61926 445.31921 L 483.63699 442.49988 L 485.10845 439.88853 L 486.99286 437.55756 L 489.23794 435.57162 L 491.78146 433.98577 L 494.55287 432.84399 L 497.47532 432.17794 L 500 432 L 600 432 L 602.98699 432.24957 L 605.89115 432.99134 L 608.63195 434.20476 L 611.13339 435.85618 L 613.3261 437.8998 L 615.14929 440.27894 L 616.5524 442.92766 L 617.49652 445.77248 L 618 450 L 618 550 L 617.75043 552.98699 L 617.00866 555.89115 L 615.79524 558.63195 L 614.14382 561.13339 L 612.1002 563.3261 L 609.72106 565.14929 L 607.07234 566.5524 L 604.22752 567.49652 L 601.26547 567.95546 L 598.26833 567.91651 L 595.31921 567.38074 L 592.49988 566.36301 L 589.88853 564.89155 L 587.55756 563.00714 L 585.57162 560.76206 L 583.98577 558.21854 L 582.84399 555.44713 L 582.17794 552.52468 L 582 550 L 582 518 L 518 518 L 518 532 L 550 532 L 552.98699 532.24957 L 555.89115 532.99134 L 558.63195 534.20476 L 561.13339 535.85618 L 563.3261 537.8998 L 565.14929 540.27894 L 566.5524 542.92766 L 567.49652 545.77248 L 568 550 L 568 582 L 600 582 L 602.98699 582.24957 L 605.89115 582.99134 L 608.63195 584.20476 L 611.13339 585.85618 L 613.3261 587.8998 L 615.14929 590.27894 L 616.5524 592.92766 L 617.49652 595.77248 L 617.95546 598.73453 L 617.91651 601.73167 L 617.38074 604.68079 L 616.36301 607.50012 L 614.89155 610.11147 L 613.00714 612.44244 L 610.76206 614.42838 L 608.21854 616.01423 L 605.44713 617.15601 L 602.52468 617.82206 L 600 618 L 550 618 L 547.01301 617.75043 L 544.10885 617.00866 L 541.36805 615.79524 L 538.86661 614.14382 L 536.6739 612.1002 L 534.85071 609.72106 L 533.4476 607.07234 L 532.50348 604.22752 L 532 600 L 532 568 L 518 568 L 518 600 L 517.75043 602.98699 L 517.00866 605.89115 L 515.79524 608.63195 L 514.14382 611.13339 L 512.1002 613.3261 L 509.72106 615.14929 L 507.07234 616.5524 L 504.22752 617.49652 L 500 618 L 400 618 L 397.01301 617.75043 L 394.10885 617.00866 L 391.36805 615.79524 L 388.86661 614.14382 L 386.6739 612.1002 L 384.85071 609.72106 L 383.4476 607.07234 L 382.50348 604.22752 L 382.04454 601.26547 L 382.08349 598.26833 L 382.61926 595.31921 L 383.63699 592.49988 L 385.10845 589.88853 L 386.99286 587.55756 L 389.23794 585.57162 L 391.78146 583.98577 L 394.55287 582.84399 L 397.47532 582.17794 L 400 582 L 482 582 L 482 518 L 418 518 L 418 532 L 450 532 L 452.98699 532.24957 L 455.89115 532.99134 L 458.63195 534.20476 L 461.13339 535.85618 L 463.3261 537.8998 L 465.14929 540.27894 L 466.5524 542.92766 L 467.49652 545.77248 L 467.95546 548.73453 L 467.91651 551.73167 L 467.38074 554.68079 L 466.36301 557.50012 L 464.89155 560.11147 L 463.00714 562.44244 L 460.76206 564.42838 L 458.21854 566.01423 L 455.44713 567.15601 L 452.52468 567.82206 L 450 568 L 368 568 L 368 600 L 367.92778 600.86435 L 367.91651 601.73167 L 367.8032 602.35535 L 367.75043 602.98699 L 367.53578 603.82739 L 367.38074 604.68079 L 367.16554 605.27695 L 367.00866 605.89115 L 366.65748 606.68437 L 366.36301 607.50012 L 366.05187 608.05229 L 365.79524 608.63195 L 365.31734 609.35584 L 364.89155 610.11147 L 364.49305 610.60441 L 364.14382 611.13339 L 363.55246 611.76789 L 363.00714 612.44244 L 362.53233 612.86245 L 362.1002 613.3261 L 361.4118 613.85364 L 360.76206 614.42838 L 360.22416 614.76376 L 359.72106 615.14929 L 358.95459 615.55531 L 358.21854 616.01423 L 357.63246 616.25568 L 357.07234 616.5524 L 356.24908 616.82562 L 355.44713 617.15601 L 354.82917 617.29685 L 354.22752 617.49652 L 353.37028 617.62934 L 352.52468 617.82206 L 351.79413 617.87355 L 351.26547 617.95546 L 350.73058 617.94851 L 350 618 L 300 618 L 297.01301 617.75043 L 294.10885 617.00866 L 291.36805 615.79524 L 288.86661 614.14382 L 286.6739 612.1002 L 284.85071 609.72106 L 283.4476 607.07234 L 282.50348 604.22752 L 282.04454 601.26547 L 282.08349 598.26833 L 282.61926 595.31921 L 283.63699 592.49988 L 285.10845 589.88853 L 286.99286 587.55756 L 289.23794 585.57162 L 291.78146 583.98577 L 294.55287 582.84399 L 297.47532 582.17794 L 300 582 L 332 582 L 332 568 L 300 568 L 297.01301 567.75043 L 294.10885 567.00866 L 291.36805 565.79524 L 288.86661 564.14382 L 286.6739 562.1002 L 284.85071 559.72106 L 283.4476 557.07234 L 282.50348 554.22752 L 282.04454 551.26547 L 282.08349 548.26833 L 282.61926 545.31921 L 283.63699 542.49988 L 285.10845 539.88853 L 286.99286 537.55756 L 289.23794 535.57162 L 291.78146 533.98577 L 294.55287 532.84399 L 297.47532 532.17794 L 300 532 L 382 532 L 382 518 L 300 518 L 297.01301 517.75043 L 294.10885 517.00866 L 291.36805 515.79524 L 288.86661 514.14382 L 286.6739 512.1002 L 284.85071 509.72106 L 283.4476 507.07234 L 282.50348 504.22752 L 282 500 L 282 400 L 282.24957 397.01301 L 282.99134 394.10885 L 284.20476 391.36805 L 285.85618 388.86661 L 287.8998 386.6739 L 290.27894 384.85071 L 292.92766 383.4476 L 295.77248 382.50348 L 298.73453 382.04454 L 301.73167 382.08349 L 304.68079 382.61926 L 307.50012 383.63699 L 310.11147 385.10845 L 312.44244 386.99286 L 314.42838 389.23794 L 316.01423 391.78146 L 317.15601 394.55287 L 317.82206 397.47532 L 318 400 L 318 482 L 332 482 L 332 350 L 332.24957 347.01301 L 332.99134 344.10885 L 334.20476 341.36805 L 335.85618 338.86661 L 337.8998 336.6739 L 340.27894 334.85071 L 342.92766 333.4476 L 345.77248 332.50348 L 348.73453 332.04454 L 351.73167 332.08349 L 354.68079 332.61926 L 357.50012 333.63699 L 360.11147 335.10845 L 362.44244 336.99286 L 364.42838 339.23794 L 366.01423 341.78146 L 367.15601 344.55287 L 367.82206 347.47532 L 368 350 L 368 432 L 400 432 L 402.98699 432.24957 L 405.89115 432.99134 L 408.63195 434.20476 L 411.13339 435.85618 L 413.3261 437.8998 L 415.14929 440.27894 L 416.5524 442.92766 L 417.49652 445.77248 L 417.95546 448.73453 L 417.91651 451.73167 L 417.38074 454.68079 L 416.36301 457.50012 L 414.89155 460.11147 L 413.00714 462.44244 L 410.76206 464.42838 L 408.21854 466.01423 L 405.44713 467.15601 L 402.52468 467.82206 L 400 468 L 368 468 L 368 482 L 432 482 L 432 418 L 400 418 L 397.01301 417.75043 L 394.10885 417.00866 L 391.36805 415.79524 L 388.86661 414.14382 L 386.6739 412.1002 L 384.85071 409.72106 L 383.4476 407.07234 L 382.50348 404.22752 L 382 400 L 382 318 L 318 318 L 318 350 L 317.75043 352.98699 L 317.00866 355.89115 L 315.79524 358.63195 L 314.14382 361.13339 L 312.1002 363.3261 L 309.72106 365.14929 L 307.07234 366.5524 L 304.22752 367.49652 L 301.26547 367.95546 L 298.26833 367.91651 L 295.31921 367.38074 L 292.49988 366.36301 L 289.88853 364.89155 L 287.55756 363.00714 L 285.57162 360.76206 L 283.98577 358.21854 L 282.84399 355.44713 L 282.17794 352.52468 L 282 350 L 282 300 L 282.24957 297.01301 L 282.99134 294.10885 L 284.20476 291.36805 L 285.85618 288.86661 L 287.8998 286.6739 L 290.27894 284.85071 L 292.92766 283.4476 L 295.77248 282.50348 L 300 282 L 450 282 Z" stroke-miterlimit="10"/></g></svg>