<svg version="1.1" xmlns="http://www.w3.org/2000/svg" xmlns:xlink="http://www.w3.org/1999/xlink" width="900" height="1600"><defs/><g><path fill="#222222" stroke="#cccccc" paint-order="fill stroke markers" d=" M 482.74358 129.66691 L 482.74358 167.47594 L 458 181.76166 L 458 201.09549 L 474.74358 210.7624 L 499.48717 196.47669 L 532.23075 215.3812 L 532.23075 243.95263 L 548.97433 253.61954 L 565.71791 243.95263 L 565.71791 215.3812 L 598.4615 196.47669 L 631.20508 215.3812 L 631.20508 253.19023 L 598.4615 272.09474 L 573.71791 257.80903 L 548.97433 272.09474 L 524.23075 257.80903 L 507.48717 267.47594 L 507.48717 296.04737 L 482.74358 310.33309 L 482.74358 329.66691 L 507.48717 343.95263 L 507.48717 372.52406 L 524.23075 382.19097 L 548.97433 367.90526 L 573.71791 382.19097 L 598.4615 367.90526 L 631.20508 386.80977 L 631.20508 424.6188 L 598.4615 443.52331 L 569.71791 426.9282 L 569.21719 426.5486 L 568.68339 426.2172 L 568.42482 425.94789 L 568.12726 425.7223 L 567.73611 425.23055 L 567.30096 424.77732 L 567.11709 424.45233 L 566.88467 424.16014 L 566.62745 423.58691 L 566.31803 423.04002 L 566.22034 422.67965 L 566.06748 422.33899 L 565.96016 421.71986 L 565.79578 421.11346 L 565.75569 420.54024 L 565.72657 420.37223 L 565.73577 420.25535 L 565.71791 420 L 565.71791 396.04737 L 548.97433 386.38046 L 532.23075 396.04737 L 532.23075 424.6188 L 499.48717 443.52331 L 474.74358 429.2376 L 458 438.90451 L 458 458.23834 L 482.74358 472.52406 L 482.74358 510.33309 L 450 529.2376 L 417.25642 510.33309 L 417.25642 472.52406 L 442 458.23834 L 442 429.66691 L 466.74358 415.3812 L 466.74358 396.04737 L 442 381.76166 L 442 353.19023 L 425.25642 343.52331 L 400.51283 357.80904 L 375.76925 343.52331 L 359.02567 353.19023 L 359.02567 381.76166 L 334.28209 396.04737 L 334.28209 424.6188 L 301.5385 443.52331 L 268.79492 424.6188 L 268.79492 386.80977 L 301.5385 367.90526 L 326.28209 382.19097 L 343.02567 372.52406 L 343.02567 353.19023 L 318.28209 338.90451 L 318.28209 301.09549 L 343.02567 286.80977 L 343.02567 267.47594 L 326.28209 257.80903 L 301.5385 272.09474 L 268.79492 253.19023 L 268.79492 215.3812 L 301.5385 196.47669 L 334.28209 215.3812 L 334.28209 243.95263 L 359.02567 258.23834 L 359.02567 286.80977 L 375.76925 296.47669 L 400.51283 282.19096 L 425.25642 296.47669 L 442 286.80977 L 442 258.23834 L 466.74358 243.95263 L 466.74358 224.6188 L 442 210.33309 L 442 181.76166 L 417.25642 167.47594 L 417.25642 129.66691 L 450 110.7624 Z M 433.25642 481.76166 L 433.25642 501.09549 L 450 510.7624 L 466.74358 501.09549 L 466.74358 481.76166 L 450 472.09474 Z M 284.79492 396.04737 L 284.79492 415.3812 L 301.5385 425.04811 L 318.28209 415.3812 L 318.28209 396.04737 L 301.5385 386.38046 Z M 482.74358 396.04737 L 482.74358 415.3812 L 499.48717 425.04811 L 516.23075 415.3812 L 516.23075 396.04737 L 499.48717 386.38046 Z M 581.71791 396.04737 L 581.71791 415.3812 L 598.4615 425.04811 L 615.20508 415.3812 L 615.20508 396.04737 L 598.4615 386.38046 Z M 458 267.47594 L 458 296.04737 L 425.25642 314.9519 L 400.51283 300.66617 L 383.76925 310.33309 L 383.76925 329.66691 L 400.51283 339.33383 L 425.25642 325.0481 L 458 343.95263 L 458 372.52406 L 474.74358 382.19097 L 491.48717 372.52406 L 491.48717 353.19023 L 466.74358 338.90451 L 466.74358 301.09549 L 491.48717 286.80977 L 491.48717 267.47594 L 474.74358 257.80903 Z M 334.28209 310.33309 L 334.28209 329.66691 L 351.02567 339.33383 L 367.76925 329.66691 L 367.76925 310.33309 L 351.02567 300.66617 Z M 284.79492 224.6188 L 284.79492 243.95263 L 301.5385 253.61954 L 318.28209 243.95263 L 318.28209 224.6188 L 301.5385 214.95189 Z M 482.74358 224.6188 L 482.74358 243.95263 L 499.48717 253.61954 L 516.23075 243.95263 L 516.23075 224.6188 L 499.48717 214.95189 Z M 581.71791 224.6188 L 581.71791 243.95263 L 598.4615 253.61954 L 615.20508 243.95263 L 615.20508 224.6188 L 598.4615 214.95189 Z M 433.25642 138.90451 L 433.25642 158.23834 L 450 167.90526 L 466.74358 158.23834 L 466.74358 138.90451 L 450 129.2376 Z" stroke-miterlimit="10"/><path fill="none" stroke="0xFFFFFF" paint-order="fill stroke markers" d=" M 499.4871659305392 377.142857142857 L 474.7435829652696 391.4285714285713 L 474.7435829652697 419.9999999999999 L 499.48716593053933 434.2857142857141 L 524.2307488958089 419.9999999999998 L 524.2307488958089 391.4285714285712 L 499.4871659305392 377.142857142857 L 499.4871659305392 348.57142857142844 L 474.7435829652695 334.2857142857142 L 474.74358296526947 305.71428571428567 L 499.48716593053916 291.4285714285714 L 499.48716593053916 262.8571428571428 L 524.2307488958088 248.57142857142853 L 524.2307488958088 220 L 499.48716593053916 205.71428571428572 L 474.74358296526947 220 L 449.9999999999998 205.7142857142857 L 449.9999999999998 177.1428571428571 L 425.25641703473013 162.8571428571428 L 425.25641703473013 134.28571428571425 L 449.99999999999983 119.99999999999994 L 474.7435829652695 134.28571428571425 L 474.7435829652695 162.8571428571428 L 449.99999999999983 177.1428571428571" stroke-miterlimit="10"/><path fill="none" stroke="0xFFFFFF" paint-order="fill stroke markers" d=" M 524.2307488958088 248.57142857142853 L 548.9743318610784 262.8571428571428 L 573.7179148263482 248.57142857142853 L 573.7179148263482 219.99999999999994 L 598.4614977916178 205.71428571428567 L 623.2050807568875 219.99999999999994 L 623.2050807568875 248.57142857142853 L 598.4614977916178 262.8571428571428 L 573.7179148263482 248.57142857142853" stroke-miterlimit="10"/><path fill="none" stroke="0xFFFFFF" paint-order="fill stroke markers" d=" M 474.74358296526947 220 L 474.74358296526947 248.57142857142856 L 449.99999999999983 262.8571428571428 L 449.99999999999983 291.4285714285714 L 425.25641703473013 305.71428571428567 L 400.5128340694605 291.4285714285714 L 375.7692511041908 305.71428571428567 L 351.0256681389211 291.42857142857144 L 326.2820851736515 305.7142857142857 L 326.2820851736516 334.2857142857143 L 351.0256681389212 348.57142857142856 L 351.0256681389212 377.1428571428571 L 326.2820851736515 391.42857142857144 L 326.2820851736515 420 L 301.53850220838183 434.2857142857143 L 276.7949192431122 420 L 276.7949192431122 391.42857142857144 L 301.53850220838183 377.1428571428571 L 326.2820851736515 391.42857142857144" stroke-miterlimit="10"/><path fill="none" stroke="0xFFFFFF" paint-order="fill stroke markers" d=" M 474.74358296526947 248.57142857142856 L 499.48716593053916 262.8571428571429" stroke-miterlimit="10"/><path fill="none" stroke="0xFFFFFF" paint-order="fill stroke markers" d=" M 351.0256681389211 291.42857142857144 L 351.0256681389211 262.8571428571429 L 326.28208517365147 248.57142857142856 L 301.53850220838183 262.8571428571429 L 276.7949192431121 248.57142857142856 L 276.7949192431121 220 L 301.53850220838183 205.71428571428572 L 326.28208517365147 220 L 326.2820851736515 248.57142857142856" stroke-miterlimit="10"/><path fill="none" stroke="0xFFFFFF" paint-order="fill stroke markers" d=" M 351.0256681389212 348.57142857142856 L 375.7692511041909 334.2857142857142 L 400.51283406946055 348.5714285714285 L 425.2564170347302 334.2857142857142 L 449.9999999999999 348.57142857142844 L 449.99999999999994 377.14285714285705 L 474.74358296526964 391.42857142857133" stroke-miterlimit="10"/><path fill="none" stroke="0xFFFFFF" paint-order="fill stroke markers" d=" M 375.7692511041909 334.2857142857142 L 375.7692511041909 305.71428571428567" stroke-miterlimit="10"/><path fill="none" stroke="0xFFFFFF" paint-order="fill stroke markers" d=" M 474.7435829652697 419.9999999999999 L 450 434.28571428571416 L 450.00000000000006 462.8571428571428 L 474.74358296526975 477.142857142857 L 474.74358296526975 505.7142857142856 L 450.0000000000001 519.9999999999999 L 425.25641703473036 505.71428571428567 L 425.2564170347303 477.1428571428571 L 450 462.8571428571428" stroke-miterlimit="10"/><path fill="none" stroke="0xFFFFFF" paint-order="fill stroke markers" d=" M 524.2307488958089 391.4285714285713 L 548.9743318610786 377.14285714285694 L 573.7179148263483 391.4285714285712 L 598.461497791618 377.14285714285694 L 623.2050807568876 391.4285714285712 L 623.2050807568876 419.9999999999998 L 598.4614977916181 434.28571428571405 L 573.7179148263483 419.99999999999983" stroke-miterlimit="10"/><path fill="none" stroke="0xFFFFFF" paint-order="fill stroke markers" d=" M 573.7179148263483 419.99999999999983 L 573.7179148263483 391.4285714285713" stroke-miterlimit="10"/><path fill="#222222" stroke="#cccccc" paint-order="fill stroke markers" d=" M 409.96155 615.10364 L 409.96155 642.83865 L 425.98078 652.08735 L 450 638.21985 L 482.01922 656.70615 L 482.01922 684.44116 L 498.03845 693.68987 L 522.05767 679.82235 L 554.07689 698.30867 L 554.07689 726.04368 L 570.09612 735.29238 L 594.11534 721.42488 L 626.13456 739.91118 L 626.13456 776.88379 L 594.11534 795.37011 L 570.09612 781.50259 L 554.07689 790.7513 L 554.07689 809.2487 L 570.09612 818.49741 L 594.11534 804.62989 L 626.13456 823.11621 L 626.13456 860.08882 L 594.11534 878.57512 L 570.09612 864.70762 L 554.07689 873.95632 L 554.07689 901.69133 L 522.05767 920.17765 L 498.03845 906.31013 L 482.01922 915.55884 L 482.01922 943.29385 L 450 961.78015 L 425.98078 947.91265 L 409.96155 957.16135 L 409.96155 984.89636 L 377.94233 1003.38268 L 345.92311 984.89636 L 345.92311 947.92375 L 369.94233 934.05625 L 369.94233 915.55884 L 353.92311 906.31013 L 337.90388 915.55884 L 337.90388 943.29385 L 305.88466 961.78015 L 273.86544 943.29385 L 273.86544 906.32124 L 297.88466 892.45373 L 297.88466 873.95632 L 273.86544 860.08882 L 273.86544 823.11621 L 297.88466 809.2487 L 297.88466 790.7513 L 273.86544 776.88379 L 273.86544 739.91118 L 297.88466 726.04368 L 297.88466 707.54627 L 273.86544 693.67876 L 273.86544 656.70615 L 305.88466 638.21985 L 337.90388 656.70615 L 337.90388 684.44116 L 353.92311 693.68987 L 369.94233 684.44116 L 369.94233 665.94375 L 345.92311 652.07625 L 345.92311 615.10364 L 377.94233 596.61732 Z M 570.09612 836.97261 L 546.07689 823.1051 L 530.05767 832.35381 L 530.05767 860.08882 L 498.03845 878.57512 L 466.01922 860.08882 L 466.01922 832.35381 L 450 823.1051 L 433.98078 832.35381 L 433.98078 850.85122 L 458 864.71872 L 458 901.69133 L 425.98078 920.17764 L 401.96155 906.31013 L 385.94233 915.55884 L 385.94233 938.67505 L 385.86395 939.29845 L 385.84385 939.92647 L 385.73989 940.28508 L 385.69331 940.65555 L 385.46301 941.24019 L 385.28808 941.84363 L 385.09859 942.16533 L 384.96174 942.51274 L 384.59393 943.0221 L 384.27501 943.56353 L 384.01173 943.82835 L 383.79317 944.13102 L 383.31069 944.53349 L 382.86768 944.97909 L 382.3913 945.30041 L 382.26036 945.40964 L 382.15453 945.46012 L 381.94233 945.60325 L 361.92311 957.16135 L 361.92311 975.65876 L 377.94233 984.90747 L 393.96155 975.65876 L 393.96155 947.92375 L 425.98078 929.43745 L 450 943.30495 L 466.01922 934.05625 L 466.01922 906.32124 L 498.03845 887.83493 L 522.05767 901.70244 L 538.07689 892.45373 L 538.07689 864.71872 L 570.09612 846.23242 L 594.11534 860.09992 L 610.13456 850.85122 L 610.13456 832.35381 L 594.11534 823.1051 Z M 289.86544 665.94375 L 289.86544 684.44116 L 313.88466 698.30867 L 313.88466 735.28128 L 289.86544 749.14878 L 289.86544 767.64619 L 313.88466 781.5137 L 313.88466 818.4863 L 289.86544 832.35381 L 289.86544 850.85122 L 313.88466 864.71872 L 313.88466 901.69133 L 289.86544 915.55884 L 289.86544 934.05625 L 305.88466 943.30495 L 321.90388 934.05625 L 321.90388 906.32124 L 345.92311 892.45373 L 345.92311 873.95632 L 321.90388 860.08882 L 321.90388 823.11621 L 353.92311 804.6299 L 377.94233 818.49741 L 393.96155 809.2487 L 393.96155 790.7513 L 377.94233 781.50259 L 353.92311 795.3701 L 321.90388 776.88379 L 321.90388 739.91118 L 345.92311 726.04368 L 345.92311 707.54627 L 321.90388 693.67876 L 321.90388 665.94375 L 305.88466 656.69505 Z M 401.96155 712.16507 L 377.94233 698.29756 L 361.92311 707.54627 L 361.92311 735.28128 L 337.90388 749.14878 L 337.90388 767.64619 L 353.92311 776.8949 L 377.94233 763.02738 L 409.96155 781.5137 L 409.96155 818.4863 L 377.94233 836.97262 L 353.92311 823.1051 L 337.90388 832.35381 L 337.90388 850.85122 L 361.92311 864.71872 L 361.92311 892.45373 L 377.94233 901.70244 L 401.96155 887.83493 L 425.98078 901.70244 L 442 892.45373 L 442 873.95632 L 417.98078 860.08882 L 417.98078 823.11621 L 450 804.62989 L 482.01922 823.11621 L 482.01922 850.85122 L 498.03845 860.09992 L 514.05767 850.85122 L 514.05767 823.11621 L 538.07689 809.2487 L 538.07689 790.7513 L 514.05767 776.88379 L 514.05767 749.14878 L 498.03845 739.90008 L 482.01922 749.14878 L 482.01922 776.88379 L 450 795.37011 L 417.98078 776.88379 L 417.98078 739.91118 L 442 726.04368 L 442 707.54627 L 425.98078 698.29756 Z M 361.92311 624.34124 L 361.92311 642.83865 L 385.94233 656.70615 L 385.94233 684.44116 L 401.96155 693.68987 L 425.98078 679.82236 L 458 698.30867 L 458 735.28128 L 433.98078 749.14878 L 433.98078 767.64619 L 450 776.8949 L 466.01922 767.64619 L 466.01922 739.91118 L 498.03845 721.42488 L 530.05767 739.91118 L 530.05767 767.64619 L 546.07689 776.8949 L 570.09612 763.02739 L 594.11534 776.8949 L 610.13456 767.64619 L 610.13456 749.14878 L 594.11534 739.90008 L 570.09612 753.76758 L 538.07689 735.28128 L 538.07689 707.54627 L 522.05767 698.29756 L 498.03845 712.16507 L 466.01922 693.67876 L 466.01922 665.94375 L 450 656.69505 L 425.98078 670.56255 L 393.96155 652.07625 L 393.96155 624.34124 L 377.94233 615.09253 Z" stroke-miterlimit="10"/><path fill="none" stroke="0xFFFFFF" paint-order="fill stroke markers" d=" M 353.9231077169477 897.0725343394151 L 353.9231077169477 869.3375245281536 L 329.9038846461846 855.470019622523 L 329.90388464618457 827.7350098112614 L 353.92310771694764 813.8675049056308 L 377.9423307877107 827.7350098112614 L 401.96155385847374 813.8675049056308 L 401.96155385847374 786.1324950943692 L 377.9423307877107 772.2649901887386 L 353.92310771694764 786.1324950943692 L 329.90388464618457 772.2649901887386 L 329.90388464618457 744.529980377477 L 353.92310771694764 730.6624754718464 L 353.92310771694764 702.9274656605849 L 377.94233078771083 689.0599607549541 L 377.94233078771066 661.3249509436928 L 353.9231077169476 647.457446038062 L 353.9231077169476 619.7224362268006 L 377.94233078771066 605.8549313211698 L 401.96155385847374 619.7224362268005 L 401.96155385847374 647.4574460380619 L 425.9807769292368 661.3249509436927 L 449.9999999999999 647.4574460380619 L 474.01922307076296 661.3249509436927 L 474.01922307076296 689.0599607549541 L 498.03844614152604 702.9274656605849 L 522.057669212289 689.059960754954 L 546.0768922830522 702.9274656605847 L 546.0768922830523 730.6624754718462 L 570.0961153538152 744.5299803774769 L 594.1153384245783 730.6624754718462 L 618.1345614953414 744.5299803774769 L 618.1345614953415 772.2649901887384 L 594.1153384245783 786.1324950943691 L 570.0961153538153 772.2649901887384 L 546.0768922830523 786.1324950943691 L 546.0768922830523 813.8675049056307 L 522.0576692122893 827.7350098112613 L 522.0576692122893 855.4700196225228 L 498.03844614152626 869.3375245281535 L 474.0192230707632 855.470019622523 L 474.0192230707632 827.7350098112614 L 450.00000000000006 813.8675049056308 L 425.98077692923704 827.7350098112614 L 425.98077692923704 855.470019622523 L 450.0000000000001 869.3375245281536 L 450.0000000000001 897.0725343394151 L 425.9807769292371 910.9400392450458 L 401.961553858474 897.0725343394151 L 377.94233078771094 910.9400392450459 L 353.9231077169477 897.0725343394151 L 329.9038846461848 910.9400392450459 L 329.90388464618485 938.6750490563073 L 305.8846615754218 952.5425539619381 L 281.86543850465875 938.6750490563074 L 281.86543850465864 910.940039245046 L 305.88466157542166 897.0725343394151 L 305.88466157542166 869.3375245281537 L 281.86543850465864 855.4700196225231 L 281.8654385046586 827.7350098112615 L 305.8846615754216 813.8675049056309 L 305.8846615754216 786.1324950943691 L 281.8654385046585 772.2649901887385 L 281.8654385046585 744.5299803774769 L 305.8846615754216 730.6624754718463 L 305.8846615754216 702.9274656605849 L 281.8654385046585 689.0599607549541 L 281.8654385046585 661.3249509436927 L 305.8846615754216 647.4574460380619 L 329.9038846461847 661.3249509436927 L 329.9038846461847 689.0599607549541 L 353.9231077169477 702.9274656605849" stroke-miterlimit="10"/><path fill="none" stroke="0xFFFFFF" paint-order="fill stroke markers" d=" M 377.94233078771083 689.0599607549541 L 401.96155385847385 702.9274656605849 L 425.9807769292369 689.0599607549541 L 450 702.9274656605849 L 450 730.6624754718463 L 425.9807769292369 744.5299803774769 L 425.9807769292369 772.2649901887385 L 450 786.1324950943691 L 474.0192230707631 772.2649901887385 L 474.0192230707631 744.5299803774769 L 498.03844614152615 730.6624754718463 L 522.0576692122892 744.5299803774769 L 522.0576692122892 772.2649901887385 L 546.0768922830523 786.1324950943691" stroke-miterlimit="10"/><path fill="none" stroke="0xFFFFFF" paint-order="fill stroke markers" d=" M 546.0768922830523 813.8675049056307 L 570.0961153538153 827.7350098112613 L 594.1153384245783 813.8675049056307 L 618.1345614953415 827.7350098112614 L 618.1345614953415 855.470019622523 L 594.1153384245783 869.3375245281536 L 570.0961153538153 855.470019622523 L 546.0768922830523 869.3375245281536 L 546.0768922830523 897.0725343394151 L 522.0576692122892 910.9400392450458 L 498.03844614152615 897.0725343394151 L 474.0192230707631 910.9400392450458 L 474.0192230707631 938.6750490563072 L 450 952.542553961938 L 425.9807769292369 938.6750490563072 L 401.96155385847385 952.542553961938 L 401.96155385847385 980.2775637731994 L 377.94233078771083 994.1450686788302 L 353.9231077169477 980.2775637731994 L 353.9231077169477 952.542553961938 L 377.94233078771083 938.6750490563072" stroke-miterlimit="10"/><path fill="none" stroke="0xFFFFFF" paint-order="fill stroke markers" d=" M 377.94233078771083 938.6750490563072 L 377.9423307877107 910.9400392450458" stroke-miterlimit="10"/><path fill="#222222" stroke="#cccccc" paint-order="fill stroke markers" d=" M 482.74358 1089.66691 L 482.74358 1118.23834 L 507.48717 1132.52406 L 507.48717 1170.33309 L 482.74358 1184.6188 L 482.74358 1203.95263 L 499.48717 1213.61954 L 516.23075 1203.95263 L 516.23075 1175.3812 L 548.97433 1156.47669 L 573.71791 1170.7624 L 598.4615 1156.47669 L 631.20508 1175.3812 L 631.20508 1213.19023 L 598.4615 1232.09474 L 573.71791 1217.80903 L 556.97433 1227.47594 L 556.97433 1256.04737 L 532.23075 1270.33309 L 532.23075 1289.66691 L 556.97433 1303.95263 L 556.97433 1332.52406 L 573.71791 1342.19097 L 598.4615 1327.90526 L 631.20508 1346.80977 L 631.20508 1384.6188 L 598.4615 1403.52331 L 573.71791 1389.2376 L 548.97433 1403.52331 L 516.23075 1384.6188 L 516.23075 1356.04737 L 499.48717 1346.38046 L 482.74358 1356.04737 L 482.74358 1375.3812 L 507.48717 1389.66691 L 507.48717 1427.47594 L 482.74358 1441.76166 L 482.74358 1470.33309 L 450 1489.2376 L 417.25642 1470.33309 L 417.25642 1432.52406 L 442 1418.23834 L 442 1398.90451 L 417.25642 1384.6188 L 417.25642 1356.04737 L 400.51283 1346.38046 L 375.76925 1360.66617 L 351.02567 1346.38046 L 334.28209 1356.04737 L 334.28209 1384.6188 L 301.5385 1403.52331 L 268.79492 1384.6188 L 268.79492 1346.80977 L 293.5385 1332.52406 L 293.5385 1303.95263 L 326.28209 1285.0481 L 351.02567 1299.33383 L 367.76925 1289.66691 L 367.76925 1270.33309 L 351.02567 1260.66617 L 326.28209 1274.9519 L 293.5385 1256.04737 L 293.5385 1227.47594 L 268.79492 1213.19023 L 268.79492 1175.3812 L 301.5385 1156.47669 L 334.28209 1175.3812 L 334.28209 1203.95263 L 351.02567 1213.61954 L 375.76925 1199.33383 L 400.51283 1213.61954 L 417.25642 1203.95263 L 417.25642 1175.3812 L 442 1161.09549 L 442 1141.76166 L 417.25642 1127.47594 L 417.25642 1089.66691 L 450 1070.7624 Z M 433.25642 1356.04737 L 433.25642 1375.3812 L 458 1389.66691 L 458 1427.47594 L 433.25642 1441.76166 L 433.25642 1461.09549 L 450 1470.7624 L 466.74358 1461.09549 L 466.74358 1432.52406 L 491.48717 1418.23834 L 491.48717 1398.90451 L 466.74358 1384.6188 L 466.74358 1356.04737 L 450 1346.38046 Z M 351.02567 1317.80904 L 326.28209 1303.52331 L 309.5385 1313.19023 L 309.5385 1341.76166 L 284.79492 1356.04737 L 284.79492 1375.3812 L 301.5385 1385.04811 L 318.28209 1375.3812 L 318.28209 1346.80977 L 351.02567 1327.90526 L 375.76925 1342.19097 L 392.51283 1332.52406 L 392.51283 1313.19023 L 375.76925 1303.52331 Z M 507.48717 1313.19023 L 507.48717 1332.52406 L 532.23075 1346.80977 L 532.23075 1375.3812 L 548.97433 1385.04811 L 573.71791 1370.7624 L 598.4615 1385.04811 L 615.20508 1375.3812 L 615.20508 1356.04737 L 598.4615 1346.38046 L 573.71791 1360.66617 L 540.97433 1341.76166 L 540.97433 1313.19023 L 524.23075 1303.52331 Z M 450 1232.09474 L 425.25642 1217.80903 L 408.51283 1227.47594 L 408.51283 1256.04737 L 383.76925 1270.33309 L 383.76925 1289.66691 L 408.51283 1303.95263 L 408.51283 1332.52406 L 425.25642 1342.19097 L 450 1327.90526 L 474.74358 1342.19097 L 491.48717 1332.52406 L 491.48717 1303.95263 L 516.23075 1289.66691 L 516.23075 1270.33309 L 491.48717 1256.04737 L 491.48717 1227.47594 L 474.74358 1217.80903 Z M 284.79492 1184.6188 L 284.79492 1203.95263 L 309.5385 1218.23834 L 309.5385 1246.80977 L 326.28209 1256.47669 L 351.02567 1242.19096 L 375.76925 1256.47669 L 392.51283 1246.80977 L 392.51283 1227.47594 L 375.76925 1217.80903 L 351.02567 1232.09474 L 318.28209 1213.19023 L 318.28209 1184.6188 L 301.5385 1174.95189 Z M 573.71791 1189.2376 L 548.97433 1174.95189 L 532.23075 1184.6188 L 532.23075 1213.19023 L 507.48717 1227.47594 L 507.48717 1246.80977 L 524.23075 1256.47669 L 540.97433 1246.80977 L 540.97433 1218.23834 L 573.71791 1199.33383 L 598.4615 1213.61954 L 615.20508 1203.95263 L 615.20508 1184.6188 L 598.4615 1174.95189 Z M 433.25642 1098.90451 L 433.25642 1118.23834 L 458 1132.52406 L 458 1170.33309 L 433.25642 1184.6188 L 433.25642 1203.95263 L 450 1213.61954 L 466.74358 1203.95263 L 466.74358 1175.3812 L 491.48717 1161.09549 L 491.48717 1141.76166 L 466.74358 1127.47594 L 466.74358 1098.90451 L 450 1089.2376 Z" stroke-miterlimit="10"/><path fill="none" stroke="0xFFFFFF" paint-order="fill stroke markers" d=" M 524.2307488958088 1294.285714285714 L 548.9743318610784 1308.5714285714282 L 548.9743318610784 1337.1428571428569 L 573.7179148263481 1351.428571428571 L 598.4614977916178 1337.1428571428569 L 623.2050807568875 1351.428571428571 L 623.2050807568876 1379.9999999999998 L 598.4614977916178 1394.285714285714 L 573.7179148263483 1379.9999999999998 L 548.9743318610786 1394.285714285714 L 524.2307488958089 1379.9999999999998 L 524.2307488958088 1351.428571428571 L 499.48716593053916 1337.1428571428569 L 499.48716593053916 1308.5714285714282 L 524.2307488958088 1294.285714285714 L 524.2307488958087 1265.7142857142856 L 499.48716593053905 1251.4285714285713 L 499.48716593053905 1222.8571428571427 L 524.2307488958087 1208.5714285714284 L 524.2307488958087 1180 L 548.9743318610783 1165.7142857142856 L 573.7179148263481 1180 L 598.4614977916177 1165.7142857142856 L 623.2050807568874 1180 L 623.2050807568874 1208.5714285714284 L 598.4614977916177 1222.8571428571427 L 573.7179148263481 1208.5714285714284 L 548.9743318610783 1222.8571428571427 L 548.9743318610783 1251.4285714285713 L 524.2307488958087 1265.7142857142856" stroke-miterlimit="10"/><path fill="none" stroke="0xFFFFFF" paint-order="fill stroke markers" d=" M 499.48716593053905 1222.8571428571427 L 474.7435829652694 1208.5714285714284 L 449.9999999999998 1222.8571428571427 L 425.25641703473013 1208.5714285714284 L 400.5128340694605 1222.857142857143 L 400.5128340694605 1251.4285714285716 L 375.76925110419086 1265.7142857142858 L 351.0256681389212 1251.4285714285713 L 326.2820851736515 1265.7142857142858 L 301.5385022083819 1251.4285714285716 L 301.5385022083819 1222.857142857143 L 276.79491924311225 1208.5714285714287 L 276.79491924311225 1180 L 301.5385022083819 1165.7142857142858 L 326.2820851736515 1180 L 326.2820851736515 1208.5714285714284 L 351.0256681389212 1222.8571428571427 L 375.76925110419086 1208.5714285714284 L 400.5128340694605 1222.8571428571427" stroke-miterlimit="10"/><path fill="none" stroke="0xFFFFFF" paint-order="fill stroke markers" d=" M 425.25641703473013 1208.5714285714284 L 425.25641703473013 1180 L 449.9999999999998 1165.7142857142856 L 449.9999999999998 1137.142857142857 L 425.25641703473013 1122.857142857143 L 425.25641703473013 1094.2857142857142 L 449.9999999999998 1080 L 474.7435829652694 1094.2857142857142 L 474.7435829652694 1122.857142857143 L 499.48716593053905 1137.142857142857 L 499.48716593053905 1165.7142857142856 L 474.7435829652694 1180 L 474.7435829652694 1208.5714285714284" stroke-miterlimit="10"/><path fill="none" stroke="0xFFFFFF" paint-order="fill stroke markers" d=" M 375.76925110419086 1265.7142857142858 L 375.76925110419086 1294.2857142857142 L 400.5128340694605 1308.5714285714284 L 400.5128340694605 1337.142857142857 L 425.25641703473025 1351.428571428571 L 449.9999999999999 1337.1428571428569 L 474.7435829652696 1351.428571428571 L 474.7435829652696 1380 L 499.4871659305392 1394.285714285714 L 499.4871659305393 1422.8571428571427 L 474.74358296526964 1437.1428571428569 L 474.7435829652697 1465.7142857142856 L 450.00000000000006 1479.9999999999998 L 425.2564170347304 1465.7142857142856 L 425.25641703473036 1437.1428571428569 L 450 1422.8571428571427 L 449.99999999999994 1394.2857142857142 L 425.25641703473025 1380 L 425.25641703473025 1351.4285714285713" stroke-miterlimit="10"/><path fill="none" stroke="0xFFFFFF" paint-order="fill stroke markers" d=" M 400.5128340694605 1337.142857142857 L 375.76925110419086 1351.4285714285713 L 351.0256681389212 1337.142857142857 L 326.2820851736515 1351.4285714285713 L 326.2820851736515 1380 L 301.5385022083819 1394.2857142857142 L 276.79491924311225 1380 L 276.79491924311225 1351.4285714285713 L 301.5385022083819 1337.142857142857 L 301.5385022083819 1308.5714285714284 L 326.2820851736515 1294.2857142857142 L 351.0256681389212 1308.5714285714282 L 375.76925110419086 1294.285714285714" stroke-miterlimit="10"/><path fill="none" stroke="0xFFFFFF" paint-order="fill stroke markers" d=" M 474.7435829652696 1351.428571428571 L 499.48716593053916 1337.1428571428569" stroke-miterlimit="10"/></g></svg>