<svg version="1.1" xmlns="http://www.w3.org/2000/svg" xmlns:xlink="http://www.w3.org/1999/xlink" width="900" height="900"><defs/><g><path fill="#222222" stroke="#cccccc" paint-order="fill stroke markers" d=" M 360 310 L 360 210 L 440 210 L 440 240 L 390 240 L 390 260 L 460 260 L 460 210 L 540 210 L 540 240 L 490 240 L 490 260 L 540 260 L 540 290 L 440 290 L 440 340 L 410 340 L 410 290 L 390 290 L 390 360 L 490 360 L 490 390 L 390 390 L 390 410 L 510 410 L 510 340 L 460 340 L 460 310 L 560 310 L 560 210 L 590 210 L 590 260 L 640 260 L 640 290 L 590 290 L 590 340 L 540 340 L 540 440 L 440 440 L 440 460 L 560 460 L 560 360 L 590 360 L 590 410 L 610 410 L 610 360 L 640 360 L 640 410 L 660 410 L 660 340 L 610 340 L 610 310 L 660 310 L 660 240 L 610 240 L 610 210 L 690 210 L 690 440 L 590 440 L 590 560 L 660 560 L 660 540 L 610 540 L 610 510 L 660 510 L 660 490 L 610 490 L 610 460 L 690 460 L 690 590 L 640 590 L 640 660 L 660 660 L 660 610 L 690 610 L 690 690 L 610 690 L 610 640 L 560 640 L 560 610 L 610 610 L 610 590 L 540 590 L 540 660 L 590 660 L 590 690 L 510 690 L 510 560 L 560 560 L 560 490 L 540 490 L 540 540 L 510 540 L 510 490 L 490 490 L 490 690 L 460 690 L 460 490 L 440 490 L 440 640 L 360 640 L 360 610 L 410 610 L 410 590 L 360 590 L 360 560 L 410 560 L 410 540 L 340 540 L 340 660 L 440 660 L 440 690 L 260 690 L 260 660 L 310 660 L 310 590 L 290 590 L 290 640 L 260 640 L 260 590 L 240 590 L 240 690 L 210 690 L 210 460 L 240 460 L 240 510 L 290 510 L 290 540 L 240 540 L 240 560 L 310 560 L 310 510 L 410 510 L 410 440 L 390 440 L 390 490 L 310 490 L 310 440 L 290 440 L 290 490 L 260 490 L 260 440 L 210 440 L 210 360 L 240 360 L 240 410 L 310 410 L 310 360 L 340 360 L 340 460 L 360 460 L 360 340 L 290 340 L 290 390 L 260 390 L 260 340 L 210 340 L 210 310 L 310 310 L 310 290 L 210 290 L 210 260 L 260 260 L 260 240 L 210 240 L 210 210 L 290 210 L 290 260 L 310 260 L 310 210 L 340 210 L 340 310 Z" stroke-miterlimit="10"/></g></svg>