<svg version="1.1" xmlns="http://www.w3.org/2000/svg" xmlns:xlink="http://www.w3.org/1999/xlink" width="900" height="900"><defs/><g><rect fill="#000000" stroke="none" x="0" y="0" width="900" height="900"/><path fill="none" stroke="cyan" paint-order="fill stroke markers" d=" M 428.51196999999996 551 L 428.51196999999996 351 L 428.51196999999996 351 L 546.0690204584946 512.8033988749894 L 546.0690204584946 512.8033988749894 L 546.0690204584946 312.80339887498945 L 546.0690204584946 312.80339887498945 L 663.6260709169892 474.6067977499789 L 663.6260709169892 474.6067977499789 L 473.4147676579586 412.8033988749894 L 473.4147676579586 412.8033988749894 L 663.6260709169892 350.99999999999994 L 663.6260709169892 350.99999999999994 L 473.4147676579586 289.19660112501043 L 473.4147676579586 289.19660112501043 L 663.6260709169892 227.39320225002092 L 663.6260709169892 227.39320225002092 L 546.0690204584946 389.1966011250104 L 546.0690204584946 389.1966011250104 L 663.6260709169892 550.9999999999998 L 663.6260709169892 550.9999999999998 L 473.4147676579586 489.1966011250103 L 473.4147676579586 489.1966011250103 L 590.9718181164532 650.9999999999998 L 590.9718181164532 650.9999999999998 L 590.9718181164532 450.9999999999998 L 590.9718181164532 450.9999999999998 L 473.4147676579586 612.8033988749893 L 473.4147676579586 612.8033988749893 L 663.6260709169892 550.9999999999998 L 663.6260709169892 550.9999999999998 L 473.4147676579586 489.19660112501026 L 473.4147676579586 489.19660112501026 L 663.6260709169892 427.39320225002075 L 663.6260709169892 427.39320225002075 L 546.0690204584946 589.1966011250103 L 546.0690204584946 589.1966011250103 L 546.0690204584946 389.19660112501026 L 546.0690204584946 389.19660112501026 L 428.51196999999996 550.9999999999997 L 428.51196999999996 550.9999999999997 L 618.7232732590306 489.1966011250102 L 618.7232732590306 489.1966011250102 L 501.16622280053605 650.9999999999997 L 501.16622280053605 650.9999999999997 L 501.16622280053605 450.99999999999966 L 501.16622280053605 450.99999999999966 L 618.7232732590306 612.8033988749892 L 618.7232732590306 612.8033988749892 L 618.7232732590306 412.8033988749891 L 618.7232732590306 412.8033988749891 L 501.16622280053605 574.6067977499786 L 501.16622280053605 574.6067977499786 L 691.3775260595667 512.803398874989 L 691.3775260595667 512.803398874989 L 501.16622280053605 450.9999999999996 L 501.16622280053605 450.9999999999996 L 618.7232732590306 612.803398874989 L 618.7232732590306 612.803398874989 L 428.51196999999996 550.9999999999995 L 428.51196999999996 550.9999999999995 L 310.9549195415053 712.8033988749889 L 310.9549195415053 712.8033988749889 L 310.9549195415053 512.8033988749889 L 310.9549195415053 512.8033988749889 L 428.51196999999996 674.6067977499785 L 428.51196999999996 674.6067977499785 L 428.51196999999996 474.60679774997845 L 428.51196999999996 474.60679774997845 L 546.0690204584946 636.410196624968 L 546.0690204584946 636.410196624968 L 355.8577171994639 574.6067977499785 L 355.8577171994639 574.6067977499785 L 546.0690204584946 512.8033988749889 L 546.0690204584946 512.8033988749889 L 355.8577171994639 450.99999999999943 L 355.8577171994639 450.99999999999943 L 546.0690204584946 389.1966011250099 L 546.0690204584946 389.1966011250099 L 428.51196999999996 550.9999999999994 L 428.51196999999996 550.9999999999994 L 618.7232732590306 489.1966011250099 L 618.7232732590306 489.1966011250099 L 501.16622280053605 650.9999999999993 L 501.16622280053605 650.9999999999993 L 501.16622280053605 450.9999999999994 L 501.16622280053605 450.9999999999994 L 618.7232732590306 612.8033988749888 L 618.7232732590306 612.8033988749888 L 618.7232732590306 412.80339887498883 L 618.7232732590306 412.80339887498883 L 736.2803237175253 574.6067977499783 L 736.2803237175253 574.6067977499783 L 546.0690204584946 512.8033988749888 L 546.0690204584946 512.8033988749888 L 428.5119699999999 674.6067977499782 L 428.5119699999999 674.6067977499782 L 428.5119699999999 474.6067977499782 L 428.5119699999999 474.6067977499782 L 310.9549195415053 636.4101966249677 L 310.9549195415053 636.4101966249677 L 501.166222800536 574.6067977499782 L 501.166222800536 574.6067977499782 L 310.9549195415053 512.8033988749887 L 310.9549195415053 512.8033988749887 L 428.5119699999999 674.6067977499781 L 428.5119699999999 674.6067977499781 L 428.5119699999999 474.60679774997817 L 428.5119699999999 474.60679774997817 L 546.0690204584946 636.4101966249676 L 546.0690204584946 636.4101966249676 L 355.8577171994639 574.6067977499781 L 355.8577171994639 574.6067977499781 L 546.0690204584946 512.8033988749887 L 546.0690204584946 512.8033988749887 L 355.8577171994639 450.9999999999992 L 355.8577171994639 450.9999999999992 L 473.4147676579585 612.8033988749886 L 473.4147676579585 612.8033988749886 L 283.20346439892785 550.9999999999991 L 283.20346439892785 550.9999999999991 L 473.4147676579585 489.19660112500964 L 473.4147676579585 489.19660112500964 L 355.8577171994639 650.9999999999991 L 355.8577171994639 650.9999999999991 L 546.0690204584946 589.1966011250096 L 546.0690204584946 589.1966011250096 L 355.8577171994639 527.3932022500201 L 355.8577171994639 527.3932022500201 L 473.4147676579585 689.1966011250096 L 473.4147676579585 689.1966011250096 L 473.4147676579585 489.1966011250096 L 473.4147676579585 489.1966011250096 L 355.8577171994639 650.9999999999991 L 355.8577171994639 650.9999999999991 L 355.8577171994639 450.99999999999903 L 355.8577171994639 450.99999999999903 L 165.6464139404332 389.1966011250096 L 165.6464139404332 389.1966011250096 L 355.8577171994639 327.39320225002007 L 355.8577171994639 327.39320225002007 L 238.30066674096926 489.1966011250095 L 238.30066674096926 489.1966011250095 L 428.51196999999996 427.39320225002007 L 428.51196999999996 427.39320225002007 L 310.9549195415053 589.1966011250095 L 310.9549195415053 589.1966011250095 L 310.9549195415053 389.19660112500947 L 310.9549195415053 389.19660112500947 L 428.51196999999996 550.999999999999 L 428.51196999999996 550.999999999999 L 428.51196999999996 350.999999999999 L 428.51196999999996 350.999999999999 L 546.0690204584946 512.8033988749884 L 546.0690204584946 512.8033988749884 L 355.8577171994639 450.9999999999989 L 355.8577171994639 450.9999999999989 L 473.4147676579586 612.8033988749884 L 473.4147676579586 612.8033988749884 L 283.20346439892785 550.9999999999989 L 283.20346439892785 550.9999999999989 L 473.4147676579586 489.1966011250094 L 473.4147676579586 489.1966011250094 L 355.8577171994639 650.9999999999989 L 355.8577171994639 650.9999999999989 L 546.0690204584946 589.1966011250094 L 546.0690204584946 589.1966011250094 L 428.51196999999996 750.9999999999989 L 428.51196999999996 750.9999999999989 L 428.51196999999996 550.9999999999989 L 428.51196999999996 550.9999999999989 L 238.30066674096926 489.1966011250093 L 238.30066674096926 489.1966011250093 L 428.51196999999996 427.39320225001984 L 428.51196999999996 427.39320225001984 L 238.30066674096926 365.58980337503033 L 238.30066674096926 365.58980337503033 L 355.8577171994639 527.3932022500198 L 355.8577171994639 527.3932022500198 L 355.8577171994639 327.3932022500198 L 355.8577171994639 327.3932022500198 L 238.30066674096926 489.19660112500924 L 238.30066674096926 489.19660112500924 L 428.51196999999996 427.3932022500197 L 428.51196999999996 427.3932022500197 L 310.9549195415053 589.1966011250092 L 310.9549195415053 589.1966011250092 L 310.9549195415053 389.19660112500924 L 310.9549195415053 389.19660112500924 L 428.51196999999996 550.9999999999986 L 428.51196999999996 550.9999999999986 L 428.51196999999996 350.99999999999864 L 428.51196999999996 350.99999999999864 L 310.9549195415053 512.8033988749881 L 310.9549195415053 512.8033988749881 L 310.9549195415053 312.80339887498815 L 310.9549195415053 312.80339887498815 L 428.51196999999996 474.60679774997755 L 428.51196999999996 474.60679774997755 L 238.30066674096926 412.8033988749881 L 238.30066674096926 412.8033988749881 L 355.8577171994639 574.6067977499775 L 355.8577171994639 574.6067977499775 L 355.8577171994639 374.60679774997755 L 355.8577171994639 374.60679774997755 L 238.30066674096926 536.410196624967 L 238.30066674096926 536.410196624967 L 428.51196999999996 474.60679774997755 L 428.51196999999996 474.60679774997755 L 238.30066674096926 412.80339887498803 L 238.30066674096926 412.80339887498803 L 428.51196999999996 350.9999999999985 L 428.51196999999996 350.9999999999985 L 428.51196999999996 150.99999999999852 L 428.51196999999996 150.99999999999852 L 546.0690204584946 312.803398874988 L 546.0690204584946 312.803398874988 L 355.8577171994639 250.99999999999847 L 355.8577171994639 250.99999999999847 L 473.4147676579586 412.8033988749879 L 473.4147676579586 412.8033988749879 L 283.20346439892785 350.9999999999984 L 283.20346439892785 350.9999999999984 L 473.4147676579586 289.19660112500895 L 473.4147676579586 289.19660112500895 L 355.8577171994639 450.9999999999984 L 355.8577171994639 450.9999999999984 L 546.0690204584946 389.1966011250089 L 546.0690204584946 389.1966011250089 L 428.51196999999996 550.9999999999984 L 428.51196999999996 550.9999999999984 L 428.51196999999996 350.9999999999984 L 428.51196999999996 350.9999999999984 L 310.9549195415053 512.8033988749878 L 310.9549195415053 512.8033988749878 L 310.9549195415053 312.8033988749878 L 310.9549195415053 312.8033988749878 L 428.51196999999996 474.6067977499773 L 428.51196999999996 474.6067977499773 L 238.30066674096926 412.8033988749878 L 238.30066674096926 412.8033988749878 L 355.8577171994639 574.6067977499772 L 355.8577171994639 574.6067977499772 L 165.6464139404332 512.8033988749878 L 165.6464139404332 512.8033988749878 L 355.8577171994639 450.9999999999983 L 355.8577171994639 450.9999999999983 L 355.8577171994639 250.9999999999983 L 355.8577171994639 250.9999999999983 L 473.4147676579586 412.80339887498775 L 473.4147676579586 412.80339887498775 L 473.4147676579586 212.80339887498775 L 473.4147676579586 212.80339887498775 L 355.8577171994639 374.6067977499772 L 355.8577171994639 374.6067977499772 L 546.0690204584946 312.8033988749877 L 546.0690204584946 312.8033988749877 L 355.8577171994639 250.99999999999824 L 355.8577171994639 250.99999999999824 L 473.4147676579586 412.8033988749877 L 473.4147676579586 412.8033988749877 L 283.20346439892785 350.9999999999982 L 283.20346439892785 350.9999999999982 L 473.4147676579586 289.1966011250087 L 473.4147676579586 289.1966011250087 L 355.8577171994639 450.9999999999982 L 355.8577171994639 450.9999999999982 L 546.0690204584946 389.19660112500867 L 546.0690204584946 389.19660112500867 L 355.8577171994639 327.3932022500192 L 355.8577171994639 327.3932022500192 L 546.0690204584946 265.5898033750297 L 546.0690204584946 265.5898033750297 L 428.51196999999996 427.39320225001916 L 428.51196999999996 427.39320225001916 L 428.51196999999996 227.39320225001916 L 428.51196999999996 227.39320225001916 L 310.9549195415053 389.1966011250086 L 310.9549195415053 389.1966011250086 L 501.16622280053605 327.39320225001916 L 501.16622280053605 327.39320225001916 L 310.9549195415053 265.58980337502965 L 310.9549195415053 265.58980337502965 L 428.51196999999996 427.3932022500191 L 428.51196999999996 427.3932022500191 L 428.51196999999996 227.3932022500191 L 428.51196999999996 227.3932022500191 L 546.0690204584946 389.19660112500856 L 546.0690204584946 389.19660112500856 L 736.2803237175253 327.39320225001904 L 736.2803237175253 327.39320225001904 L 618.7232732590306 489.19660112500856 L 618.7232732590306 489.19660112500856 L 618.7232732590306 289.19660112500856 L 618.7232732590306 289.19660112500856 L 501.166222800536 450.999999999998 L 501.166222800536 450.999999999998 L 501.166222800536 250.999999999998 L 501.166222800536 250.999999999998 L 618.7232732590306 412.80339887498747 L 618.7232732590306 412.80339887498747 L 428.5119699999999 350.99999999999795 L 428.5119699999999 350.99999999999795 L 546.0690204584946 512.8033988749875 L 546.0690204584946 512.8033988749875 L 355.8577171994639 450.99999999999795 L 355.8577171994639 450.99999999999795 L 546.0690204584946 389.19660112500844 L 546.0690204584946 389.19660112500844 L 355.8577171994639 327.393202250019 L 355.8577171994639 327.393202250019 L 546.0690204584946 265.5898033750295 L 546.0690204584946 265.5898033750295 L 428.5119699999999 427.39320225001893 L 428.5119699999999 427.39320225001893 L 428.5119699999999 227.39320225001893 L 428.5119699999999 227.39320225001893 L 310.9549195415053 389.1966011250084 L 310.9549195415053 389.1966011250084 L 310.9549195415053 189.19660112500839 L 310.9549195415053 189.19660112500839 L 428.5119699999999 350.99999999999784 L 428.5119699999999 350.99999999999784 L 618.7232732590306 289.1966011250083 L 618.7232732590306 289.1966011250083 L 501.166222800536 450.9999999999978 L 501.166222800536 450.9999999999978 L 691.3775260595667 389.1966011250083 L 691.3775260595667 389.1966011250083 L 501.16622280053605 327.3932022500188 L 501.16622280053605 327.3932022500188 L 618.7232732590306 489.19660112500827 L 618.7232732590306 489.19660112500827 L 618.7232732590306 289.19660112500827 L 618.7232732590306 289.19660112500827 L 501.16622280053605 450.9999999999977 L 501.16622280053605 450.9999999999977 L 501.16622280053605 250.99999999999773 L 501.16622280053605 250.99999999999773 L 618.7232732590306 412.8033988749872 L 618.7232732590306 412.8033988749872 L 428.51196999999996 350.9999999999977 L 428.51196999999996 350.9999999999977 L 546.0690204584946 512.8033988749871 L 546.0690204584946 512.8033988749871 L 546.0690204584946 312.8033988749871 L 546.0690204584946 312.8033988749871 L 663.6260709169892 474.60679774997664 L 663.6260709169892 474.60679774997664 L 473.4147676579586 412.8033988749871 L 473.4147676579586 412.8033988749871 L 663.6260709169892 350.9999999999976 L 663.6260709169892 350.9999999999976 L 473.4147676579586 289.19660112500816 L 473.4147676579586 289.19660112500816 L 590.9718181164532 450.9999999999976 L 590.9718181164532 450.9999999999976 L 590.9718181164532 250.9999999999976 L 590.9718181164532 250.9999999999976 L 473.4147676579586 412.80339887498707 L 473.4147676579586 412.80339887498707 L 663.6260709169892 350.9999999999976 L 663.6260709169892 350.9999999999976 L 546.0690204584946 512.803398874987 L 546.0690204584946 512.803398874987 L 663.6260709169892 674.6067977499765 L 663.6260709169892 674.6067977499765 L 473.4147676579586 612.803398874987 L 473.4147676579586 612.803398874987 L 663.6260709169892 550.9999999999975 L 663.6260709169892 550.9999999999975 L 473.4147676579586 489.19660112500804 L 473.4147676579586 489.19660112500804 L 663.6260709169892 427.39320225001853 L 663.6260709169892 427.39320225001853 L 546.0690204584946 589.196601125008 L 546.0690204584946 589.196601125008 L 546.0690204584946 389.196601125008 L 546.0690204584946 389.196601125008 L 428.51196999999996 550.9999999999975 L 428.51196999999996 550.9999999999975 L 428.51196999999996 350.99999999999744 L 428.51196999999996 350.99999999999744 L 546.0690204584946 512.8033988749869 L 546.0690204584946 512.8033988749869 L 546.0690204584946 312.8033988749869 L 546.0690204584946 312.8033988749869 L 663.6260709169892 474.60679774997635 L 663.6260709169892 474.60679774997635 L 473.4147676579586 412.8033988749869 L 473.4147676579586 412.8033988749869 L 663.6260709169892 350.9999999999974 L 663.6260709169892 350.9999999999974 L 473.4147676579586 289.1966011250079 L 473.4147676579586 289.1966011250079 L 663.6260709169892 227.39320225001836 L 663.6260709169892 227.39320225001836 L 546.0690204584946 389.1966011250078 L 546.0690204584946 389.1966011250078 L 663.6260709169892 550.9999999999973 L 663.6260709169892 550.9999999999973 L 473.4147676579586 489.19660112500776 L 473.4147676579586 489.19660112500776" stroke-miterlimit="10" stroke-width="0.5"/></g></svg>