<?xml version="1.0" encoding="UTF-8" standalone="no"?>
<svg
   version="1.1"
   width="6in"
   height="12in"
   id="svg42"
   sodipodi:docname="three-hex-simple-01.svg"
   inkscape:version="1.3 (0e150ed, 2023-07-21)"
   xmlns:inkscape="http://www.inkscape.org/namespaces/inkscape"
   xmlns:sodipodi="http://sodipodi.sourceforge.net/DTD/sodipodi-0.dtd"
   xmlns="http://www.w3.org/2000/svg"
   xmlns:svg="http://www.w3.org/2000/svg">
  <sodipodi:namedview
     id="namedview42"
     pagecolor="#505050"
     bordercolor="#eeeeee"
     borderopacity="1"
     inkscape:showpageshadow="0"
     inkscape:pageopacity="0"
     inkscape:pagecheckerboard="0"
     inkscape:deskcolor="#171717"
     showgrid="false"
     inkscape:zoom="1.005"
     inkscape:cx="195.52239"
     inkscape:cy="674.62687"
     inkscape:window-width="1920"
     inkscape:window-height="1044"
     inkscape:window-x="1920"
     inkscape:window-y="0"
     inkscape:window-maximized="1"
     inkscape:current-layer="g42"
     inkscape:document-units="in" />
  <defs
     id="defs1" />
  <g
     id="g42"
     style="stroke:#808080"
     transform="matrix(0.75,0,0,0.75,-49.5,-23.999999)">
    <path
       fill="#222222"
       stroke="#cccccc"
       paint-order="fill stroke markers"
       d="m 500.71211,150.98221 v 32.8798 l 20.47474,11.8211 28.47474,-16.4399 36.47474,21.0587 v 32.8798 l 28.47474,16.4399 v 32.87979 l 28.47474,16.4399 v 42.1174 l -28.47474,16.4399 v 32.87979 l -28.47474,16.4399 v 32.8798 l -36.47474,21.0587 -28.47474,-16.4399 -20.47474,11.8211 v 32.8798 l -36.47474,21.0587 -28.47474,-16.4399 -28.47474,16.4399 -28.47474,-16.4399 -28.47474,16.4399 -36.47474,-21.0587 v -32.8798 l -28.47474,-16.4399 v -32.8798 l -28.47474,-16.4399 V 348.261 l 28.47474,-16.4399 V 308.1789 L 256.91419,291.739 v -42.11739 l 28.47474,-16.4399 v -32.8798 l 28.47474,-16.4399 v -32.8798 l 36.47474,-21.0587 28.47474,16.4399 28.47474,-16.4399 28.47474,16.4399 28.47474,-16.4399 z m -121.89896,13.8564 -28.47474,-16.4399 -20.47474,11.8211 v 32.8798 l -28.47474,16.4399 v 23.6422 l 28.47474,16.4399 v 32.87979 l 20.47474,11.8211 28.47474,-16.4399 36.47474,21.0587 v 42.1174 l -36.47474,21.0587 -28.47474,-16.4399 -20.47474,11.8211 v 32.87979 l -28.47474,16.4399 v 23.6422 l 28.47474,16.4399 v 32.8798 l 20.47474,11.8211 28.47474,-16.4399 28.47474,16.4399 20.47474,-11.8211 v -32.8798 l 28.47474,-16.4399 v -23.6422 l -28.47474,-16.4399 V 348.261 l 36.47474,-21.0587 36.47474,21.0587 v 32.87979 l 20.47474,11.8211 28.47474,-16.4399 28.47474,16.4399 20.47474,-11.8211 V 348.261 l 28.47474,-16.4399 V 308.1789 L 598.61107,291.739 v -32.87979 l -20.47474,-11.8211 -28.47474,16.4399 -28.47474,-16.4399 -20.47474,11.8211 V 291.739 l -36.47474,21.0587 -36.47474,-21.0587 v -42.11739 l 28.47474,-16.4399 v -23.6422 l -28.47474,-16.4399 v -32.8798 l -20.47474,-11.8211 z m 64.94948,291.29938 v 23.6422 l 20.47474,11.8211 20.47474,-11.8211 v -23.6422 l -20.47474,-11.8211 z m 0,-98.63939 v 23.64219 l 24.47474,14.1305 0.50069,0.37959 0.53383,0.33141 0.2586,0.26934 0.29753,0.22557 0.39112,0.4917 0.43518,0.45327 0.18388,0.325 0.23241,0.29218 0.25722,0.57323 0.30942,0.54689 0.0977,0.36037 0.15286,0.34066 0.10732,0.61913 0.16438,0.6064 0.0401,0.57322 0.0291,0.16801 -0.009,0.11688 0.0179,0.25535 v 28.261 l 20.47474,11.8211 20.47474,-11.8211 v -23.6422 l -28.47474,-16.4399 V 357.4986 l -20.47474,-11.8211 z m 85.42422,49.31969 v 23.6422 l 20.47474,11.8211 20.47474,-11.8211 v -23.6422 l -20.47474,-11.8211 z M 272.91419,357.4986 v 23.64219 l 20.47474,11.8211 20.47474,-11.8211 V 357.4986 l -20.47474,-11.8211 z m 77.42422,-44.7009 -28.47474,-16.4399 -20.47474,11.8211 v 23.6422 l 20.47474,11.8211 28.47474,-16.4399 28.47474,16.4399 20.47474,-11.8211 v -23.6422 l -20.47474,-11.8211 z m -77.42422,-53.93849 v 23.64219 l 20.47474,11.8211 20.47474,-11.8211 v -23.64219 l -20.47474,-11.8211 z m 199.32318,-49.3197 v 32.8798 l -28.47474,16.4399 v 23.64219 l 20.47474,11.8211 20.47474,-11.8211 v -32.87979 l 28.47474,-16.4399 v -23.6422 l -20.47474,-11.8211 z m 56.94948,0 v 23.6422 l 20.47474,11.8211 20.47474,-11.8211 v -23.6422 l -20.47474,-11.8211 z m -85.42422,-49.3197 v 23.6422 l 20.47474,11.8211 20.47474,-11.8211 v -23.6422 l -20.47474,-11.8211 z"
       stroke-miterlimit="10"
       id="path1"
       style="stroke:#808080" />
    <path
       fill="none"
       stroke="0xFFFFFF"
       paint-order="fill stroke markers"
       d="m 578.13633,402.19949 v 32.8798 l -28.47474,16.4399 -28.47474,-16.4399 v -32.8798 l 28.47474,-16.4399 28.47474,16.4399 28.47474,-16.4399 V 352.8798 l 28.47474,-16.4399 v -32.8798 l -28.47474,-16.4399 v -32.87979 l -28.47474,-16.4399 -28.47474,16.4399 -28.47474,-16.4399 v -32.8798 l -28.47474,-16.4399 -28.47474,16.4399 v 32.8798 l -28.47474,16.4399 v 32.87979 l 28.47474,16.4399 28.47474,-16.4399 v -32.87979 l 28.47474,-16.4399"
       stroke-miterlimit="10"
       id="path3"
       style="stroke:#808080" />
    <path
       fill="none"
       stroke="0xFFFFFF"
       paint-order="fill stroke markers"
       d="m 578.13633,237.80051 v -32.8798 l -28.47474,-16.4399 -28.47474,16.4399"
       stroke-miterlimit="10"
       id="path4"
       style="stroke:#808080" />
    <path
       fill="none"
       stroke="0xFFFFFF"
       paint-order="fill stroke markers"
       d="m 464.23737,204.92071 -28.47474,-16.4399 v -32.8798 l -28.47474,-16.4399 -28.47474,16.4399 -28.47474,-16.4399 -28.47474,16.4399 v 32.8798 l -28.47474,16.4399 v 32.8798 l 28.47474,16.4399 v 32.87979 l -28.47474,16.4399 v 32.8798 l 28.47474,16.4399 28.47474,-16.4399 28.47474,16.4399 28.47474,-16.4399 v -32.8798 l -28.47474,-16.4399 -28.47474,16.4399 -28.47474,-16.4399"
       stroke-miterlimit="10"
       id="path5"
       style="stroke:#808080" />
    <path
       fill="none"
       stroke="0xFFFFFF"
       paint-order="fill stroke markers"
       d="m 435.76263,155.60101 28.47474,-16.4399 28.47474,16.4399 v 32.8798"
       stroke-miterlimit="10"
       id="path6"
       style="stroke:#808080" />
    <path
       fill="none"
       stroke="0xFFFFFF"
       paint-order="fill stroke markers"
       d="m 293.38893,237.80051 -28.47474,16.4399 v 32.87979 l 28.47474,16.4399"
       stroke-miterlimit="10"
       id="path7"
       style="stroke:#808080" />
    <path
       fill="none"
       stroke="0xFFFFFF"
       paint-order="fill stroke markers"
       d="m 321.86367,352.8798 v 32.87979 l -28.47474,16.4399 v 32.8798 l 28.47474,16.4399 v 32.8798 l 28.47474,16.4399 28.47474,-16.4399 28.47474,16.4399 28.47474,-16.4399 v -32.8798 l 28.47474,-16.4399 28.47474,16.4399 28.47474,-16.4399"
       stroke-miterlimit="10"
       id="path8"
       style="stroke:#808080" />
    <path
       fill="none"
       stroke="0xFFFFFF"
       paint-order="fill stroke markers"
       d="m 293.38893,402.19949 -28.47474,-16.4399 V 352.8798 l 28.47474,-16.4399"
       stroke-miterlimit="10"
       id="path9"
       style="stroke:#808080" />
    <path
       fill="none"
       stroke="0xFFFFFF"
       paint-order="fill stroke markers"
       d="m 435.76263,484.39899 28.47474,16.4399 28.47474,-16.4399 v -32.8798"
       stroke-miterlimit="10"
       id="path10"
       style="stroke:#808080" />
    <path
       fill="none"
       stroke="0xFFFFFF"
       paint-order="fill stroke markers"
       d="m 521.18685,402.19949 -28.47474,-16.4399 V 352.8798 l -28.47474,-16.4399 -28.47474,16.4399 v 32.87979 l 28.47474,16.4399"
       stroke-miterlimit="10"
       id="path11"
       style="stroke:#808080" />
    <path
       fill="none"
       stroke="0xFFFFFF"
       paint-order="fill stroke markers"
       d="m 464.23737,402.19949 v 32.8798"
       stroke-miterlimit="10"
       id="path12"
       style="stroke:#808080" />
    <path
       fill="#222222"
       stroke="#cccccc"
       paint-order="fill stroke markers"
       d="m 600.3737,630.98221 v 32.8798 l 28.47474,16.4399 v 42.1174 l -28.47474,16.4399 V 771.739 l -28.47474,16.4399 v 23.6422 l 28.47474,16.4399 v 32.87979 l 28.47474,16.4399 v 42.1174 l -28.47474,16.4399 v 32.8798 l -36.47474,21.0587 -28.47474,-16.4399 -28.47474,16.4399 -36.47474,-21.0587 v -32.8798 L 442,919.69809 v -32.8798 l -20.47474,-11.8211 -28.47474,16.4399 -28.47474,-16.4399 -28.47474,16.4399 -36.47474,-21.0587 V 837.4986 l -28.47474,-16.4399 v -42.1174 l 28.47474,-16.4399 v -32.87979 l 36.47474,-21.0587 28.47474,16.4399 28.47474,-16.4399 28.47474,16.4399 L 442,713.18171 v -32.8798 l 28.47474,-16.4399 v -32.8798 l 36.47474,-21.0587 28.47474,16.4399 28.47474,-16.4399 z M 543.42422,837.4986 v 32.87979 l -36.47474,21.0587 -28.47474,-16.4399 L 458,886.81829 v 23.6422 l 28.47474,16.4399 v 32.8798 l 20.47474,11.8211 20.47474,-11.8211 v -32.8798 l 36.47474,-21.0587 28.47474,16.4399 20.47474,-11.8211 v -23.6422 L 584.3737,870.37839 V 837.4986 l -20.47474,-11.8211 z m 0,98.63939 v 23.6422 l 20.47474,11.8211 20.47474,-11.8211 v -23.6422 l -20.47474,-11.8211 z m -178.84844,-192.65998 -28.47474,-16.4399 -20.47474,11.8211 v 23.64219 l 28.47474,16.4399 v 42.1174 l -28.47474,16.4399 v 23.64219 l 20.47474,11.8211 28.47474,-16.4399 28.47474,16.4399 20.47474,-11.8211 V 837.4986 l -28.47474,-16.4399 v -42.1174 l 28.47474,-16.4399 v -23.64219 l -20.47474,-11.8211 z m 64.94948,94.02059 v 23.64219 L 450,872.96189 470.47474,861.14079 V 837.4986 L 450,825.6775 Z m 56.94948,0 v 23.64219 l 20.47474,11.8211 20.47474,-11.8211 V 837.4986 L 506.94948,825.6775 Z M 287.15156,788.1789 v 23.6422 l 20.47474,11.8211 20.47474,-11.8211 V 788.1789 L 307.6263,776.3578 Z m 113.89896,0 v 23.6422 L 421.52526,823.6422 442,811.8211 v -23.6422 l -20.47474,-11.8211 z m 56.94948,0 v 23.6422 l 20.47474,11.8211 20.47474,-11.8211 v -23.6422 l -20.47474,-11.8211 z m 56.94948,0 v 23.6422 l 20.47474,11.8211 20.47474,-11.8211 V 788.1789 L 535.42422,776.3578 Z M 429.52526,738.85921 V 762.5014 L 450,774.3225 470.47474,762.5014 V 738.85921 L 450,727.03811 Z m 56.94948,0 v 23.64219 l 20.47474,11.8211 20.47474,-11.8211 v -23.64219 l -20.47474,-11.8211 z m 0,-98.6394 v 32.8798 L 458,689.53951 v 23.6422 l 20.47474,11.8211 28.47474,-16.4399 36.47474,21.0587 v 32.87979 l 20.47474,11.8211 20.47474,-11.8211 v -32.87979 l 28.47474,-16.4399 v -23.6422 l -20.47474,-11.8211 -28.47474,16.4399 -36.47474,-21.0587 v -32.8798 l -20.47474,-11.8211 z m 56.94948,0 v 23.6422 l 20.47474,11.8211 20.47474,-11.8211 v -23.6422 l -20.47474,-11.8211 z"
       stroke-miterlimit="10"
       id="path13"
       style="stroke:#808080" />
    <path
       fill="none"
       stroke="0xFFFFFF"
       paint-order="fill stroke markers"
       d="m 592.3737,931.51919 v 32.8798 l -28.47474,16.4399 -28.47474,-16.4399 v -32.8798 l 28.47474,-16.4399 28.47474,16.4399 28.47474,-16.4399 v -32.8798 L 592.3737,865.75959 V 832.8798 l -28.47474,-16.4399 v -32.8798 l -28.47474,-16.4399 -28.47474,16.4399 v 32.8798 L 478.47474,832.8798 450,816.4399 421.52526,832.8798 393.05052,816.4399 V 783.5601 L 421.52526,767.1202 450,783.5601 478.47474,767.1202 v -32.87979 l 28.47474,-16.4399 28.47474,16.4399 v 32.87979"
       stroke-miterlimit="10"
       id="path15"
       style="stroke:#808080" />
    <path
       fill="none"
       stroke="0xFFFFFF"
       paint-order="fill stroke markers"
       d="m 478.47474,767.1202 28.47474,16.4399"
       stroke-miterlimit="10"
       id="path16"
       style="stroke:#808080" />
    <path
       fill="none"
       stroke="0xFFFFFF"
       paint-order="fill stroke markers"
       d="m 506.94948,816.4399 28.47474,16.4399 v 32.87979 l -28.47474,16.4399 -28.47474,-16.4399 V 832.8798"
       stroke-miterlimit="10"
       id="path17"
       style="stroke:#808080" />
    <path
       fill="none"
       stroke="0xFFFFFF"
       paint-order="fill stroke markers"
       d="m 535.42422,832.8798 28.47474,-16.4399"
       stroke-miterlimit="10"
       id="path18"
       style="stroke:#808080" />
    <path
       fill="none"
       stroke="0xFFFFFF"
       paint-order="fill stroke markers"
       d="m 563.89896,783.5601 28.47474,-16.4399 v -32.87979 l 28.47474,-16.4399 v -32.8798 l -28.47474,-16.4399 -28.47474,16.4399 -28.47474,-16.4399 v -32.8798 l -28.47474,-16.4399 -28.47474,16.4399 v 32.8798 L 450,684.92071 v 32.8798 l -28.47474,16.4399 -28.47474,-16.4399 -28.47474,16.4399 -28.47474,-16.4399 -28.47474,16.4399 v 32.87979 l 28.47474,16.4399 v 32.8798 l -28.47474,16.4399 v 32.87979 l 28.47474,16.4399 28.47474,-16.4399 28.47474,16.4399 28.47474,-16.4399 L 450,882.19949 v 32.8798 l 28.47474,16.4399 v 32.8798 l 28.47474,16.4399 28.47474,-16.4399"
       stroke-miterlimit="10"
       id="path19"
       style="stroke:#808080" />
    <path
       fill="none"
       stroke="0xFFFFFF"
       paint-order="fill stroke markers"
       d="m 535.42422,635.60101 28.47474,-16.4399 28.47474,16.4399 v 32.8798"
       stroke-miterlimit="10"
       id="path20"
       style="stroke:#808080" />
    <path
       fill="none"
       stroke="0xFFFFFF"
       paint-order="fill stroke markers"
       d="M 421.52526,734.24041 V 767.1202"
       stroke-miterlimit="10"
       id="path21"
       style="stroke:#808080" />
    <path
       fill="none"
       stroke="0xFFFFFF"
       paint-order="fill stroke markers"
       d="M 450,816.4399 V 783.5601"
       stroke-miterlimit="10"
       id="path22"
       style="stroke:#808080" />
    <path
       fill="none"
       stroke="0xFFFFFF"
       paint-order="fill stroke markers"
       d="M 478.47474,734.24041 450,717.80051"
       stroke-miterlimit="10"
       id="path23"
       style="stroke:#808080" />
    <path
       fill="none"
       stroke="0xFFFFFF"
       paint-order="fill stroke markers"
       d="M 307.6263,832.8798 279.15156,816.4399 V 783.5601 L 307.6263,767.1202"
       stroke-miterlimit="10"
       id="path24"
       style="stroke:#808080" />
    <path
       fill="none"
       stroke="0xFFFFFF"
       paint-order="fill stroke markers"
       d="m 450,882.19949 28.47474,-16.4399"
       stroke-miterlimit="10"
       id="path25"
       style="stroke:#808080" />
    <path
       fill="none"
       stroke="0xFFFFFF"
       paint-order="fill stroke markers"
       d="m 421.52526,832.8798 v 32.87979"
       stroke-miterlimit="10"
       id="path26"
       style="stroke:#808080" />
    <path
       fill="#222222"
       stroke="#cccccc"
       paint-order="fill stroke markers"
       d="m 429.52526,1110.9822 v 32.8798 L 458,1160.3019 v 32.8798 l 20.47474,11.8211 28.47474,-16.4399 28.47474,16.4399 28.47474,-16.4399 36.47474,21.0587 v 32.8798 l 28.47474,16.4399 v 42.1174 l -28.47474,16.4399 v 32.8798 l -36.47474,21.0587 -28.47474,-16.4399 -28.47474,16.4399 -28.47474,-16.4399 L 458,1366.8183 v 32.8798 l -28.47474,16.4399 v 32.8798 l -36.47474,21.0587 -28.47474,-16.4399 -28.47474,16.4399 -36.47474,-21.0587 v -32.8798 l -28.47474,-16.4399 v -42.1174 l 28.47474,-16.4399 v -32.8798 l 28.47474,-16.4399 v -23.6422 L 299.6263,1251.739 v -32.8798 l -28.47474,-16.4399 v -42.1174 l 28.47474,-16.4399 v -32.8798 l 36.47474,-21.0587 28.47474,16.4399 28.47474,-16.4399 z m -142.3737,255.8361 v 23.6422 l 28.47474,16.4399 v 32.8798 l 20.47474,11.8211 28.47474,-16.4399 28.47474,16.4399 20.47474,-11.8211 v -23.6422 l -20.47474,-11.8211 -28.47474,16.4399 -36.47474,-21.0587 v -32.8798 l -20.47474,-11.8211 z m 56.94948,0 v 23.6422 l 20.47474,11.8211 20.47474,-11.8211 v -23.6422 l -20.47474,-11.8211 z m 56.94948,0 v 23.6422 l 20.47474,11.8211 L 442,1390.4605 v -23.6422 l -20.47474,-11.8211 z m -85.42422,-49.3197 v 23.6422 l 20.47474,11.8211 20.47474,-11.8211 v -23.6422 l -20.47474,-11.8211 z m 105.89896,-94.0206 -28.47474,-16.4399 -20.47474,11.8211 v 32.8798 l -28.47474,16.4399 v 23.6422 l 24.47474,14.1305 0.50069,0.3796 0.53383,0.3314 0.2586,0.2693 0.29753,0.2256 0.39112,0.4917 0.43518,0.4533 0.18388,0.325 0.23241,0.2922 0.25722,0.5732 0.30942,0.5469 0.0977,0.3603 0.15286,0.3407 0.10732,0.6191 0.16438,0.6064 0.0401,0.5733 0.0291,0.168 -0.009,0.1169 0.0179,0.2553 v 28.261 l 20.47474,11.8211 28.47474,-16.4399 28.47474,16.4399 20.47474,-11.8211 v -32.8798 l 28.47474,-16.4399 v -23.6422 l -28.47474,-16.4399 v -32.8798 L 450,1207.0381 Z m 64.94948,94.0206 v 23.6422 l 20.47474,11.8211 20.47474,-11.8211 v -23.6422 l -20.47474,-11.8211 z m 56.94948,-98.6394 v 23.6422 l 28.47474,16.4399 v 42.1174 l -28.47474,16.4399 v 23.6422 l 20.47474,11.8211 20.47474,-11.8211 v -32.8798 l 28.47474,-16.4399 v -23.6422 L 584.3737,1251.739 v -32.8798 l -20.47474,-11.8211 z m -28.47474,49.3197 v 23.6422 l 20.47474,11.8211 20.47474,-11.8211 v -23.6422 l -20.47474,-11.8211 z M 315.6263,1218.8592 v 23.6422 l 20.47474,11.8211 20.47474,-11.8211 v -23.6422 l -20.47474,-11.8211 z m 170.84844,0 v 23.6422 l 20.47474,11.8211 20.47474,-11.8211 v -23.6422 l -20.47474,-11.8211 z m -121.89896,-94.0206 -28.47474,-16.4399 -20.47474,11.8211 v 32.8798 l -28.47474,16.4399 v 23.6422 l 20.47474,11.8211 20.47474,-11.8211 v -32.8798 l 36.47474,-21.0587 28.47474,16.4399 20.47474,-11.8211 v -23.6422 l -20.47474,-11.8211 z m -20.47474,44.7009 v 23.6422 l 20.47474,11.8211 20.47474,-11.8211 v -23.6422 l -20.47474,-11.8211 z m 56.94948,0 v 23.6422 l 20.47474,11.8211 L 442,1193.1817 v -23.6422 l -20.47474,-11.8211 z"
       stroke-miterlimit="10"
       id="path27"
       style="stroke:#808080" />
    <path
       fill="none"
       stroke="0xFFFFFF"
       paint-order="fill stroke markers"
       d="m 336.10104,1296.4399 v -32.8798 l -28.47474,-16.4399 v -32.8798 l 28.47474,-16.4399 v -32.8798 l 28.47474,-16.4399 28.47474,16.4399 28.47474,-16.4399 v -32.8798 l -28.47474,-16.4399 -28.47474,16.4399 -28.47474,-16.4399 -28.47474,16.4399 v 32.8798 l -28.47474,16.4399 v 32.8798 l 28.47474,16.4399"
       stroke-miterlimit="10"
       id="path29"
       style="stroke:#808080" />
    <path
       fill="none"
       stroke="0xFFFFFF"
       paint-order="fill stroke markers"
       d="m 393.05052,1164.9207 v 32.8798 l -28.47474,16.4399 -28.47474,-16.4399"
       stroke-miterlimit="10"
       id="path30"
       style="stroke:#808080" />
    <path
       fill="none"
       stroke="0xFFFFFF"
       paint-order="fill stroke markers"
       d="m 364.57578,1214.2404 v 32.8798 l -28.47474,16.4399"
       stroke-miterlimit="10"
       id="path31"
       style="stroke:#808080" />
    <path
       fill="none"
       stroke="0xFFFFFF"
       paint-order="fill stroke markers"
       d="m 336.10104,1296.4399 -28.47474,16.4399 v 32.8798 l -28.47474,16.4399 v 32.8798 l 28.47474,16.4399 v 32.8798 l 28.47474,16.4399 28.47474,-16.4399 28.47474,16.4399 28.47474,-16.4399 v -32.8798 l -28.47474,-16.4399 -28.47474,16.4399 -28.47474,-16.4399 v -32.8798 l -28.47474,-16.4399"
       stroke-miterlimit="10"
       id="path32"
       style="stroke:#808080" />
    <path
       fill="none"
       stroke="0xFFFFFF"
       paint-order="fill stroke markers"
       d="M 421.52526,1411.5192 450,1395.0793 v -32.8798 l 28.47474,-16.4399 v -32.8798 l 28.47474,-16.4399 v -32.8798 l -28.47474,-16.4399 v -32.8798 L 450,1197.8005 l -28.47474,16.4399 -28.47474,-16.4399"
       stroke-miterlimit="10"
       id="path33"
       style="stroke:#808080" />
    <path
       fill="none"
       stroke="0xFFFFFF"
       paint-order="fill stroke markers"
       d="m 506.94948,1263.5601 28.47474,-16.4399 28.47474,16.4399 v 32.8798 l -28.47474,16.4399 -28.47474,-16.4399"
       stroke-miterlimit="10"
       id="path34"
       style="stroke:#808080" />
    <path
       fill="none"
       stroke="0xFFFFFF"
       paint-order="fill stroke markers"
       d="m 535.42422,1312.8798 v 32.8798 l 28.47474,16.4399 28.47474,-16.4399 v -32.8798 l 28.47474,-16.4399 v -32.8798 l -28.47474,-16.4399 v -32.8798 l -28.47474,-16.4399 -28.47474,16.4399 v 32.8798"
       stroke-miterlimit="10"
       id="path35"
       style="stroke:#808080" />
    <path
       fill="none"
       stroke="0xFFFFFF"
       paint-order="fill stroke markers"
       d="m 535.42422,1345.7596 -28.47474,16.4399 -28.47474,-16.4399"
       stroke-miterlimit="10"
       id="path36"
       style="stroke:#808080" />
    <path
       fill="none"
       stroke="0xFFFFFF"
       paint-order="fill stroke markers"
       d="m 336.10104,1362.1995 28.47474,-16.4399 28.47474,16.4399 v 32.8798"
       stroke-miterlimit="10"
       id="path37"
       style="stroke:#808080" />
    <path
       fill="none"
       stroke="0xFFFFFF"
       paint-order="fill stroke markers"
       d="M 393.05052,1362.1995 421.52526,1345.7596 450,1362.1995"
       stroke-miterlimit="10"
       id="path38"
       style="stroke:#808080" />
    <path
       fill="none"
       stroke="0xFFFFFF"
       paint-order="fill stroke markers"
       d="m 535.42422,1214.2404 -28.47474,-16.4399 -28.47474,16.4399"
       stroke-miterlimit="10"
       id="path39"
       style="stroke:#808080" />
    <path
       fill="none"
       stroke="0xFFFFFF"
       paint-order="fill stroke markers"
       d="M 421.52526,1148.4808 450,1164.9207 v 32.8798"
       stroke-miterlimit="10"
       id="path40"
       style="stroke:#808080" />
    <path
       fill="none"
       stroke="0xFFFFFF"
       paint-order="fill stroke markers"
       d="m 336.10104,1296.4399 28.47474,16.4399"
       stroke-miterlimit="10"
       id="path41"
       style="stroke:#808080" />
    <path
       fill="none"
       stroke="0xFFFFFF"
       paint-order="fill stroke markers"
       d="m 364.57578,1312.8798 v 32.8798"
       stroke-miterlimit="10"
       id="path42"
       style="stroke:#808080" />
  </g>
</svg>
