  0
SECTION
  2
HEADER
  9
$ACADVER
  1
AC1014
  9
$HANDSEED
  5
FFFF
  9
$INSUNITS
 70
     1
  9
$MEASUREMENT
 70
     1
  0
ENDSEC
  0
SECTION
  2
TABLES
  0
TABLE
  2
VPORT
  5
8
330
0
100
AcDbSymbolTable
 70
     4
  0
VPORT
  5
2E
330
8
100
AcDbSymbolTableRecord
100
AcDbViewportTableRecord
  2
*ACTIVE
 70
     0
 10
0.0
 20
0.0
 11
1.0
 21
1.0
 12
210.0
 22
148.5
 13
0.0
 23
0.0
 14
10.0
 24
10.0
 15
10.0
 25
10.0
 16
0.0
 26
0.0
 36
1.0
 17
0.0
 27
0.0
 37
0.0
 40
341.0
 41
1.24
 42
50.0
 43
0.0
 44
0.0
 50
0.0
 51
0.0
 71
     0
 72
   100
 73
     1
 74
     3
 75
     0
 76
     0
 77
     0
 78
     0
  0
ENDTAB
  0
TABLE
  2
LTYPE
  5
5
330
0
100
AcDbSymbolTable
 70
     1
  0
LTYPE
  5
14
330
5
100
AcDbSymbolTableRecord
100
AcDbLinetypeTableRecord
  2
BYBLOCK
 70
     0
  3

 72
    65
 73
     0
 40
0.0
  0
LTYPE
  5
15
330
5
100
AcDbSymbolTableRecord
100
AcDbLinetypeTableRecord
  2
BYLAYER
 70
     0
  3

 72
    65
 73
     0
 40
0.0
  0
LTYPE
  5
16
330
5
100
AcDbSymbolTableRecord
100
AcDbLinetypeTableRecord
  2
CONTINUOUS
 70
     0
  3
Solid line
 72
    65
 73
     0
 40
0.0
  0
ENDTAB
  0
TABLE
  2
LAYER
  5
2
100
AcDbSymbolTable
 70
1
  0
LAYER
  5
50
100
AcDbSymbolTableRecord
100
AcDbLayerTableRecord
  2
0
 70
0
  6
CONTINUOUS
  0
ENDTAB
  0
TABLE
  2
STYLE
  5
3
330
0
100
AcDbSymbolTable
 70
     1
  0
STYLE
  5
11
330
3
100
AcDbSymbolTableRecord
100
AcDbTextStyleTableRecord
  2
STANDARD
 70
     0
 40
0.0
 41
1.0
 50
0.0
 71
     0
 42
2.5
  3
txt
  4

  0
ENDTAB
  0
TABLE
  2
VIEW
  5
6
330
0
100
AcDbSymbolTable
 70
     0
  0
ENDTAB
  0
TABLE
  2
UCS
  5
7
330
0
100
AcDbSymbolTable
 70
     0
  0
ENDTAB
  0
TABLE
  2
APPID
  5
9
330
0
100
AcDbSymbolTable
 70
     2
  0
APPID
  5
12
330
9
100
AcDbSymbolTableRecord
100
AcDbRegAppTableRecord
  2
ACAD
 70
     0
  0
ENDTAB
  0
TABLE
  2
DIMSTYLE
  5
A
330
0
100
AcDbSymbolTable
 70
     1
  0
DIMSTYLE
105
27
330
A
100
AcDbSymbolTableRecord
100
AcDbDimStyleTableRecord
  2
ISO-25
 70
     0
  3

  4

  5

  6

  7

 40
1.0
 41
2.5
 42
0.625
 43
3.75
 44
1.25
 45
0.0
 46
0.0
 47
0.0
 48
0.0
140
2.5
141
2.5
142
0.0
143
0.03937007874016
144
1.0
145
0.0
146
1.0
147
0.625
 71
     0
 72
     0
 73
     0
 74
     0
 75
     0
 76
     0
 77
     1
 78
     8
170
     0
171
     3
172
     1
173
     0
174
     0
175
     0
176
     0
177
     0
178
     0
270
     2
271
     2
272
     2
273
     2
274
     3
340
11
275
     0
280
     0
281
     0
282
     0
283
     0
284
     8
285
     0
286
     0
287
     3
288
     0
  0
ENDTAB
  0
TABLE
  2
BLOCK_RECORD
  5
1
330
0
100
AcDbSymbolTable
 70
     1
  0
BLOCK_RECORD
  5
1F
330
1
100
AcDbSymbolTableRecord
100
AcDbBlockTableRecord
  2
*MODEL_SPACE
  0
BLOCK_RECORD
  5
1B
330
1
100
AcDbSymbolTableRecord
100
AcDbBlockTableRecord
  2
*PAPER_SPACE
  0
ENDTAB
  0
ENDSEC
  0
SECTION
  2
BLOCKS
  0
BLOCK
  5
20
330
1F
100
AcDbEntity
  8
0
100
AcDbBlockBegin
  2
*MODEL_SPACE
 70
     0
 10
0.0
 20
0.0
 30
0.0
  3
*MODEL_SPACE
  1

  0
ENDBLK
  5
21
330
1F
100
AcDbEntity
  8
0
100
AcDbBlockEnd
  0
BLOCK
  5
1C
330
1B
100
AcDbEntity
 67
     1
  8
0
100
AcDbBlockBegin
  2
*PAPER_SPACE
  1

  0
ENDBLK
  5
1D
330
1B
100
AcDbEntity
 67
     1
  8
0
100
AcDbBlockEnd
  0
ENDSEC
  0
SECTION
  2
ENTITIES
  0
LWPOLYLINE
  5
100
100
AcDbEntity
  8
0
 62
7
100
AcDbPolyline
 90
1090
 70
1
 10
4.099649
 20
7.174057
 30
0.0
 10
4.115671
 20
7.170870
 30
0.0
 10
4.131304
 20
7.166128
 30
0.0
 10
4.146397
 20
7.159876
 30
0.0
 10
4.160804
 20
7.152175
 30
0.0
 10
4.174388
 20
7.143099
 30
0.0
 10
4.187016
 20
7.132736
 30
0.0
 10
4.198567
 20
7.121184
 30
0.0
 10
4.208930
 20
7.108556
 30
0.0
 10
4.218006
 20
7.094973
 30
0.0
 10
4.225707
 20
7.080566
 30
0.0
 10
4.231959
 20
7.065474
 30
0.0
 10
4.236701
 20
7.049841
 30
0.0
 10
4.239888
 20
7.033818
 30
0.0
 10
4.241489
 20
7.017560
 30
0.0
 10
4.241489
 20
7.001225
 30
0.0
 10
4.239888
 20
6.984967
 30
0.0
 10
4.236701
 20
6.968945
 30
0.0
 10
4.231959
 20
6.953312
 30
0.0
 10
4.225707
 20
6.938219
 30
0.0
 10
4.218006
 20
6.923812
 30
0.0
 10
4.208930
 20
6.910229
 30
0.0
 10
4.198567
 20
6.897601
 30
0.0
 10
4.187016
 20
6.886050
 30
0.0
 10
4.174388
 20
6.875686
 30
0.0
 10
4.160804
 20
6.866610
 30
0.0
 10
4.158557
 20
6.865409
 30
0.0
 10
4.158557
 20
6.484386
 30
0.0
 10
4.258907
 20
6.346267
 30
0.0
 10
4.375171
 20
6.506291
 30
0.0
 10
4.389396
 20
6.521457
 30
0.0
 10
4.406932
 20
6.532629
 30
0.0
 10
4.426689
 20
6.539112
 30
0.0
 10
4.447435
 20
6.540502
 30
0.0
 10
4.467879
 20
6.536713
 30
0.0
 10
4.486749
 20
6.527980
 30
0.0
 10
4.502870
 20
6.514848
 30
0.0
 10
4.515238
 20
6.498134
 30
0.0
 10
4.523083
 20
6.478878
 30
0.0
 10
4.525917
 20
6.458280
 30
0.0
 10
4.523564
 20
6.437621
 30
0.0
 10
4.516169
 20
6.418188
 30
0.0
 10
4.510008
 20
6.408327
 30
0.0
 10
4.342240
 20
6.177415
 30
0.0
 10
4.342240
 20
5.762818
 30
0.0
 10
4.442589
 20
5.624699
 30
0.0
 10
4.558854
 20
5.784724
 30
0.0
 10
4.573079
 20
5.799889
 30
0.0
 10
4.590615
 20
5.811061
 30
0.0
 10
4.610371
 20
5.817544
 30
0.0
 10
4.631117
 20
5.818934
 30
0.0
 10
4.651562
 20
5.815145
 30
0.0
 10
4.670432
 20
5.806413
 30
0.0
 10
4.686553
 20
5.793280
 30
0.0
 10
4.698921
 20
5.776566
 30
0.0
 10
4.706766
 20
5.757310
 30
0.0
 10
4.709600
 20
5.736712
 30
0.0
 10
4.707246
 20
5.716053
 30
0.0
 10
4.699852
 20
5.696620
 30
0.0
 10
4.693691
 20
5.686759
 30
0.0
 10
4.525923
 20
5.455847
 30
0.0
 10
4.525923
 20
5.041250
 30
0.0
 10
4.687500
 20
4.818859
 30
0.0
 10
4.849077
 20
5.041250
 30
0.0
 10
4.849077
 20
5.482924
 30
0.0
 10
4.851671
 20
5.503554
 30
0.0
 10
4.859292
 20
5.522900
 30
0.0
 10
4.871464
 20
5.539757
 30
0.0
 10
4.887431
 20
5.553076
 30
0.0
 10
4.906198
 20
5.562027
 30
0.0
 10
4.926597
 20
5.566054
 30
0.0
 10
4.947358
 20
5.564906
 30
0.0
 10
4.967188
 20
5.558653
 30
0.0
 10
4.984853
 20
5.547686
 30
0.0
 10
4.999254
 20
5.532688
 30
0.0
 10
5.009493
 20
5.514591
 30
0.0
 10
5.014933
 20
5.494522
 30
0.0
 10
5.015744
 20
5.482924
 30
0.0
 10
5.015744
 20
5.128872
 30
0.0
 10
5.326716
 20
5.229913
 30
0.0
 10
5.478568
 20
5.438920
 30
0.0
 10
5.478568
 20
5.853517
 30
0.0
 10
5.326716
 20
6.062524
 30
0.0
 10
4.906659
 20
6.199008
 30
0.0
 10
4.887841
 20
6.207850
 30
0.0
 10
4.871796
 20
6.221076
 30
0.0
 10
4.859526
 20
6.237862
 30
0.0
 10
4.851793
 20
6.257163
 30
0.0
 10
4.849079
 20
6.277778
 30
0.0
 10
4.851553
 20
6.298423
 30
0.0
 10
4.859061
 20
6.317812
 30
0.0
 10
4.871135
 20
6.334740
 30
0.0
 10
4.887024
 20
6.348152
 30
0.0
 10
4.905738
 20
6.357212
 30
0.0
 10
4.926114
 20
6.361358
 30
0.0
 10
4.946881
 20
6.360330
 30
0.0
 10
4.958162
 20
6.357517
 30
0.0
 10
5.294885
 20
6.248109
 30
0.0
 10
5.294885
 20
6.541510
 30
0.0
 10
5.292638
 20
6.542711
 30
0.0
 10
5.279055
 20
6.551787
 30
0.0
 10
5.266427
 20
6.562151
 30
0.0
 10
5.254875
 20
6.573702
 30
0.0
 10
5.244512
 20
6.586330
 30
0.0
 10
5.235436
 20
6.599913
 30
0.0
 10
5.227735
 20
6.614321
 30
0.0
 10
5.221484
 20
6.629413
 30
0.0
 10
5.216742
 20
6.645046
 30
0.0
 10
5.213554
 20
6.661068
 30
0.0
 10
5.211953
 20
6.677326
 30
0.0
 10
5.211953
 20
6.693662
 30
0.0
 10
5.213554
 20
6.709920
 30
0.0
 10
5.216742
 20
6.725942
 30
0.0
 10
5.221484
 20
6.741575
 30
0.0
 10
5.227735
 20
6.756667
 30
0.0
 10
5.235436
 20
6.771074
 30
0.0
 10
5.244512
 20
6.784658
 30
0.0
 10
5.254875
 20
6.797286
 30
0.0
 10
5.266427
 20
6.808837
 30
0.0
 10
5.279055
 20
6.819201
 30
0.0
 10
5.292638
 20
6.828277
 30
0.0
 10
5.307045
 20
6.835977
 30
0.0
 10
5.322138
 20
6.842229
 30
0.0
 10
5.337770
 20
6.846971
 30
0.0
 10
5.353793
 20
6.850158
 30
0.0
 10
5.370051
 20
6.851759
 30
0.0
 10
5.386386
 20
6.851759
 30
0.0
 10
5.402644
 20
6.850158
 30
0.0
 10
5.418667
 20
6.846971
 30
0.0
 10
5.434299
 20
6.842229
 30
0.0
 10
5.449392
 20
6.835977
 30
0.0
 10
5.463799
 20
6.828277
 30
0.0
 10
5.477382
 20
6.819201
 30
0.0
 10
5.490010
 20
6.808837
 30
0.0
 10
5.501562
 20
6.797286
 30
0.0
 10
5.511925
 20
6.784658
 30
0.0
 10
5.521001
 20
6.771074
 30
0.0
 10
5.528702
 20
6.756667
 30
0.0
 10
5.534953
 20
6.741575
 30
0.0
 10
5.539696
 20
6.725942
 30
0.0
 10
5.542883
 20
6.709919
 30
0.0
 10
5.544484
 20
6.693661
 30
0.0
 10
5.544484
 20
6.677326
 30
0.0
 10
5.542883
 20
6.661069
 30
0.0
 10
5.539696
 20
6.645046
 30
0.0
 10
5.534953
 20
6.629413
 30
0.0
 10
5.528702
 20
6.614321
 30
0.0
 10
5.521001
 20
6.599913
 30
0.0
 10
5.511925
 20
6.586330
 30
0.0
 10
5.501562
 20
6.573702
 30
0.0
 10
5.490010
 20
6.562151
 30
0.0
 10
5.477382
 20
6.551787
 30
0.0
 10
5.463799
 20
6.542711
 30
0.0
 10
5.461552
 20
6.541510
 30
0.0
 10
5.461552
 20
6.160487
 30
0.0
 10
5.561901
 20
6.022368
 30
0.0
 10
5.678166
 20
6.182393
 30
0.0
 10
5.692391
 20
6.197558
 30
0.0
 10
5.709927
 20
6.208730
 30
0.0
 10
5.729683
 20
6.215213
 30
0.0
 10
5.750429
 20
6.216603
 30
0.0
 10
5.770874
 20
6.212814
 30
0.0
 10
5.789744
 20
6.204081
 30
0.0
 10
5.805865
 20
6.190949
 30
0.0
 10
5.818233
 20
6.174235
 30
0.0
 10
5.826078
 20
6.154979
 30
0.0
 10
5.828912
 20
6.134381
 30
0.0
 10
5.826558
 20
6.113722
 30
0.0
 10
5.819164
 20
6.094289
 30
0.0
 10
5.813002
 20
6.084428
 30
0.0
 10
5.645235
 20
5.853516
 30
0.0
 10
5.645235
 20
5.526541
 30
0.0
 10
5.956206
 20
5.627582
 30
0.0
 10
6.108059
 20
5.836589
 30
0.0
 10
6.108059
 20
6.278262
 30
0.0
 10
6.110653
 20
6.298893
 30
0.0
 10
6.118273
 20
6.318238
 30
0.0
 10
6.130446
 20
6.335095
 30
0.0
 10
6.146413
 20
6.348414
 30
0.0
 10
6.165180
 20
6.357366
 30
0.0
 10
6.185579
 20
6.361393
 30
0.0
 10
6.206339
 20
6.360244
 30
0.0
 10
6.226170
 20
6.353992
 30
0.0
 10
6.243835
 20
6.343025
 30
0.0
 10
6.258235
 20
6.328026
 30
0.0
 10
6.268474
 20
6.309929
 30
0.0
 10
6.273914
 20
6.289861
 30
0.0
 10
6.274726
 20
6.278262
 30
0.0
 10
6.274726
 20
5.924211
 30
0.0
 10
6.553767
 20
6.014877
 30
0.0
 10
6.554215
 20
6.017385
 30
0.0
 10
6.558649
 20
6.033108
 30
0.0
 10
6.564603
 20
6.048320
 30
0.0
 10
6.572019
 20
6.062876
 30
0.0
 10
6.580827
 20
6.076635
 30
0.0
 10
6.590940
 20
6.089464
 30
0.0
 10
6.602263
 20
6.101240
 30
0.0
 10
6.614685
 20
6.111849
 30
0.0
 10
6.628087
 20
6.121190
 30
0.0
 10
6.642341
 20
6.129173
 30
0.0
 10
6.657308
 20
6.135719
 30
0.0
 10
6.672844
 20
6.140767
 30
0.0
 10
6.688801
 20
6.144268
 30
0.0
 10
6.705024
 20
6.146188
 30
0.0
 10
6.721357
 20
6.146509
 30
0.0
 10
6.737643
 20
6.145228
 30
0.0
 10
6.753725
 20
6.142356
 30
0.0
 10
6.769447
 20
6.137921
 30
0.0
 10
6.784660
 20
6.131967
 30
0.0
 10
6.799215
 20
6.124551
 30
0.0
 10
6.812974
 20
6.115744
 30
0.0
 10
6.825804
 20
6.105629
 30
0.0
 10
6.837580
 20
6.094307
 30
0.0
 10
6.848188
 20
6.081886
 30
0.0
 10
6.857529
 20
6.068483
 30
0.0
 10
6.865512
 20
6.054230
 30
0.0
 10
6.872059
 20
6.039263
 30
0.0
 10
6.877107
 20
6.023726
 30
0.0
 10
6.880608
 20
6.007769
 30
0.0
 10
6.882528
 20
5.991547
 30
0.0
 10
6.882849
 20
5.975214
 30
0.0
 10
6.881567
 20
5.958927
 30
0.0
 10
6.878695
 20
5.942846
 30
0.0
 10
6.874261
 20
5.927123
 30
0.0
 10
6.868307
 20
5.911910
 30
0.0
 10
6.860890
 20
5.897355
 30
0.0
 10
6.852082
 20
5.883596
 30
0.0
 10
6.841969
 20
5.870767
 30
0.0
 10
6.830647
 20
5.858991
 30
0.0
 10
6.818224
 20
5.848382
 30
0.0
 10
6.804822
 20
5.839041
 30
0.0
 10
6.790569
 20
5.831058
 30
0.0
 10
6.775602
 20
5.824512
 30
0.0
 10
6.760066
 20
5.819464
 30
0.0
 10
6.744109
 20
5.815963
 30
0.0
 10
6.727886
 20
5.814043
 30
0.0
 10
6.711552
 20
5.813722
 30
0.0
 10
6.695267
 20
5.815003
 30
0.0
 10
6.679185
 20
5.817875
 30
0.0
 10
6.663462
 20
5.822310
 30
0.0
 10
6.648250
 20
5.828264
 30
0.0
 10
6.633694
 20
5.835680
 30
0.0
 10
6.619936
 20
5.844488
 30
0.0
 10
6.607106
 20
5.854601
 30
0.0
 10
6.605269
 20
5.856367
 30
0.0
 10
6.242895
 20
5.738625
 30
0.0
 10
6.142546
 20
5.600505
 30
0.0
 10
6.330666
 20
5.539381
 30
0.0
 10
6.349485
 20
5.530539
 30
0.0
 10
6.365529
 20
5.517314
 30
0.0
 10
6.377799
 20
5.500528
 30
0.0
 10
6.385532
 20
5.481227
 30
0.0
 10
6.388246
 20
5.460612
 30
0.0
 10
6.385773
 20
5.439967
 30
0.0
 10
6.378265
 20
5.420577
 30
0.0
 10
6.366191
 20
5.403649
 30
0.0
 10
6.350302
 20
5.390238
 30
0.0
 10
6.331587
 20
5.381177
 30
0.0
 10
6.311212
 20
5.377032
 30
0.0
 10
6.290445
 20
5.378059
 30
0.0
 10
6.279163
 20
5.380871
 30
0.0
 10
6.007709
 20
5.469072
 30
0.0
 10
5.613405
 20
5.340955
 30
0.0
 10
5.513055
 20
5.202835
 30
0.0
 10
5.701175
 20
5.141711
 30
0.0
 10
5.719994
 20
5.132869
 30
0.0
 10
5.736038
 20
5.119643
 30
0.0
 10
5.748309
 20
5.102858
 30
0.0
 10
5.756042
 20
5.083556
 30
0.0
 10
5.758756
 20
5.062942
 30
0.0
 10
5.756282
 20
5.042297
 30
0.0
 10
5.748774
 20
5.022907
 30
0.0
 10
5.736700
 20
5.005979
 30
0.0
 10
5.720811
 20
4.992568
 30
0.0
 10
5.702096
 20
4.983507
 30
0.0
 10
5.681721
 20
4.979361
 30
0.0
 10
5.660954
 20
4.980390
 30
0.0
 10
5.649672
 20
4.983202
 30
0.0
 10
5.378219
 20
5.071403
 30
0.0
 10
4.983914
 20
4.943286
 30
0.0
 10
4.822337
 20
4.720894
 30
0.0
 10
5.083774
 20
4.635948
 30
0.0
 10
5.503830
 20
4.772432
 30
0.0
 10
5.524252
 20
4.776340
 30
0.0
 10
5.545006
 20
4.775071
 30
0.0
 10
5.564800
 20
4.768703
 30
0.0
 10
5.582401
 20
4.757634
 30
0.0
 10
5.596714
 20
4.742551
 30
0.0
 10
5.606847
 20
4.724395
 30
0.0
 10
5.612170
 20
4.704295
 30
0.0
 10
5.612351
 20
4.683504
 30
0.0
 10
5.607380
 20
4.663314
 30
0.0
 10
5.597565
 20
4.644984
 30
0.0
 10
5.583518
 20
4.629654
 30
0.0
 10
5.566113
 20
4.618278
 30
0.0
 10
5.555333
 20
4.613923
 30
0.0
 10
5.218610
 20
4.504515
 30
0.0
 10
5.410801
 20
4.239987
 30
0.0
 10
5.656503
 20
4.160153
 30
0.0
 10
6.050808
 20
4.288270
 30
0.0
 10
6.202661
 20
4.497277
 30
0.0
 10
6.202661
 20
4.938951
 30
0.0
 10
6.205254
 20
4.959581
 30
0.0
 10
6.212875
 20
4.978927
 30
0.0
 10
6.225048
 20
4.995784
 30
0.0
 10
6.241014
 20
5.009103
 30
0.0
 10
6.259781
 20
5.018054
 30
0.0
 10
6.280180
 20
5.022081
 30
0.0
 10
6.300941
 20
5.020933
 30
0.0
 10
6.320772
 20
5.014680
 30
0.0
 10
6.338437
 20
5.003713
 30
0.0
 10
6.352837
 20
4.988714
 30
0.0
 10
6.363076
 20
4.970618
 30
0.0
 10
6.368516
 20
4.950549
 30
0.0
 10
6.369327
 20
4.938951
 30
0.0
 10
6.369327
 20
4.584899
 30
0.0
 10
6.648369
 20
4.675565
 30
0.0
 10
6.648816
 20
4.678074
 30
0.0
 10
6.653251
 20
4.693796
 30
0.0
 10
6.659205
 20
4.709009
 30
0.0
 10
6.666621
 20
4.723564
 30
0.0
 10
6.675428
 20
4.737323
 30
0.0
 10
6.685542
 20
4.750152
 30
0.0
 10
6.696865
 20
4.761928
 30
0.0
 10
6.709287
 20
4.772538
 30
0.0
 10
6.722689
 20
4.781879
 30
0.0
 10
6.736942
 20
4.789861
 30
0.0
 10
6.751909
 20
4.796408
 30
0.0
 10
6.767446
 20
4.801456
 30
0.0
 10
6.783402
 20
4.804957
 30
0.0
 10
6.799626
 20
4.806877
 30
0.0
 10
6.815959
 20
4.807198
 30
0.0
 10
6.832245
 20
4.805916
 30
0.0
 10
6.848326
 20
4.803044
 30
0.0
 10
6.864049
 20
4.798610
 30
0.0
 10
6.879262
 20
4.792656
 30
0.0
 10
6.893817
 20
4.785239
 30
0.0
 10
6.907576
 20
4.776432
 30
0.0
 10
6.920405
 20
4.766318
 30
0.0
 10
6.932181
 20
4.754996
 30
0.0
 10
6.942791
 20
4.742574
 30
0.0
 10
6.952131
 20
4.729171
 30
0.0
 10
6.960114
 20
4.714918
 30
0.0
 10
6.966660
 20
4.699951
 30
0.0
 10
6.971708
 20
4.684415
 30
0.0
 10
6.975209
 20
4.668458
 30
0.0
 10
6.977130
 20
4.652235
 30
0.0
 10
6.977450
 20
4.635902
 30
0.0
 10
6.976169
 20
4.619616
 30
0.0
 10
6.973297
 20
4.603534
 30
0.0
 10
6.968862
 20
4.587811
 30
0.0
 10
6.962908
 20
4.572599
 30
0.0
 10
6.955492
 20
4.558043
 30
0.0
 10
6.946684
 20
4.544285
 30
0.0
 10
6.936571
 20
4.531456
 30
0.0
 10
6.925249
 20
4.519680
 30
0.0
 10
6.912826
 20
4.509070
 30
0.0
 10
6.899424
 20
4.499729
 30
0.0
 10
6.885171
 20
4.491747
 30
0.0
 10
6.870203
 20
4.485200
 30
0.0
 10
6.854667
 20
4.480152
 30
0.0
 10
6.838711
 20
4.476651
 30
0.0
 10
6.822487
 20
4.474731
 30
0.0
 10
6.806154
 20
4.474410
 30
0.0
 10
6.789869
 20
4.475692
 30
0.0
 10
6.773787
 20
4.478564
 30
0.0
 10
6.758064
 20
4.482998
 30
0.0
 10
6.742852
 20
4.488952
 30
0.0
 10
6.728296
 20
4.496369
 30
0.0
 10
6.714537
 20
4.505176
 30
0.0
 10
6.701708
 20
4.515290
 30
0.0
 10
6.699871
 20
4.517056
 30
0.0
 10
6.337497
 20
4.399313
 30
0.0
 10
6.237147
 20
4.261194
 30
0.0
 10
6.425268
 20
4.200070
 30
0.0
 10
6.444087
 20
4.191228
 30
0.0
 10
6.460131
 20
4.178002
 30
0.0
 10
6.472401
 20
4.161216
 30
0.0
 10
6.480134
 20
4.141915
 30
0.0
 10
6.482848
 20
4.121300
 30
0.0
 10
6.480375
 20
4.100655
 30
0.0
 10
6.472867
 20
4.081266
 30
0.0
 10
6.460793
 20
4.064338
 30
0.0
 10
6.444904
 20
4.050926
 30
0.0
 10
6.426189
 20
4.041866
 30
0.0
 10
6.405814
 20
4.037720
 30
0.0
 10
6.385047
 20
4.038748
 30
0.0
 10
6.373765
 20
4.041561
 30
0.0
 10
6.102311
 20
4.129762
 30
0.0
 10
5.791340
 20
4.028721
 30
0.0
 10
5.983531
 20
3.764193
 30
0.0
 10
6.229233
 20
3.684359
 30
0.0
 10
6.649289
 20
3.820844
 30
0.0
 10
6.669711
 20
3.824752
 30
0.0
 10
6.690465
 20
3.823482
 30
0.0
 10
6.710259
 20
3.817115
 30
0.0
 10
6.727860
 20
3.806045
 30
0.0
 10
6.742173
 20
3.790963
 30
0.0
 10
6.752306
 20
3.772807
 30
0.0
 10
6.757629
 20
3.752707
 30
0.0
 10
6.757810
 20
3.731915
 30
0.0
 10
6.752839
 20
3.711726
 30
0.0
 10
6.743024
 20
3.693395
 30
0.0
 10
6.728977
 20
3.678065
 30
0.0
 10
6.711572
 20
3.666690
 30
0.0
 10
6.700792
 20
3.662334
 30
0.0
 10
6.364069
 20
3.552926
 30
0.0
 10
6.536526
 20
3.315560
 30
0.0
 10
6.539050
 20
3.315909
 30
0.0
 10
6.555373
 20
3.316550
 30
0.0
 10
6.571681
 20
3.315589
 30
0.0
 10
6.587817
 20
3.313033
 30
0.0
 10
6.603623
 20
3.308909
 30
0.0
 10
6.618950
 20
3.303254
 30
0.0
 10
6.633648
 20
3.296125
 30
0.0
 10
6.647577
 20
3.287589
 30
0.0
 10
6.660602
 20
3.277730
 30
0.0
 10
6.672598
 20
3.266641
 30
0.0
 10
6.683450
 20
3.254429
 30
0.0
 10
6.693052
 20
3.241213
 30
0.0
 10
6.701312
 20
3.227119
 30
0.0
 10
6.708152
 20
3.212283
 30
0.0
 10
6.713504
 20
3.196849
 30
0.0
 10
6.717317
 20
3.180964
 30
0.0
 10
6.719556
 20
3.164782
 30
0.0
 10
6.720197
 20
3.148459
 30
0.0
 10
6.719236
 20
3.132151
 30
0.0
 10
6.716680
 20
3.116015
 30
0.0
 10
6.712556
 20
3.100208
 30
0.0
 10
6.706901
 20
3.084882
 30
0.0
 10
6.699772
 20
3.070184
 30
0.0
 10
6.691236
 20
3.056255
 30
0.0
 10
6.681377
 20
3.043230
 30
0.0
 10
6.670287
 20
3.031234
 30
0.0
 10
6.658076
 20
3.020382
 30
0.0
 10
6.644860
 20
3.010780
 30
0.0
 10
6.630766
 20
3.002520
 30
0.0
 10
6.615930
 20
2.995680
 30
0.0
 10
6.600496
 20
2.990328
 30
0.0
 10
6.584611
 20
2.986514
 30
0.0
 10
6.568429
 20
2.984276
 30
0.0
 10
6.552106
 20
2.983634
 30
0.0
 10
6.535798
 20
2.984596
 30
0.0
 10
6.519662
 20
2.987152
 30
0.0
 10
6.503856
 20
2.991276
 30
0.0
 10
6.488529
 20
2.996931
 30
0.0
 10
6.473831
 20
3.004060
 30
0.0
 10
6.459902
 20
3.012596
 30
0.0
 10
6.446877
 20
3.022455
 30
0.0
 10
6.434881
 20
3.033544
 30
0.0
 10
6.424029
 20
3.045756
 30
0.0
 10
6.414427
 20
3.058972
 30
0.0
 10
6.406167
 20
3.073066
 30
0.0
 10
6.399327
 20
3.087901
 30
0.0
 10
6.393975
 20
3.103336
 30
0.0
 10
6.390161
 20
3.119221
 30
0.0
 10
6.387923
 20
3.135403
 30
0.0
 10
6.387281
 20
3.151727
 30
0.0
 10
6.388243
 20
3.168035
 30
0.0
 10
6.390798
 20
3.184169
 30
0.0
 10
6.394923
 20
3.199976
 30
0.0
 10
6.400577
 20
3.215303
 30
0.0
 10
6.401689
 20
3.217595
 30
0.0
 10
6.177730
 20
3.525849
 30
0.0
 10
6.015361
 20
3.578606
 30
0.0
 10
6.015361
 20
3.380805
 30
0.0
 10
6.012767
 20
3.360175
 30
0.0
 10
6.005146
 20
3.340829
 30
0.0
 10
5.992974
 20
3.323972
 30
0.0
 10
5.977007
 20
3.310653
 30
0.0
 10
5.958240
 20
3.301701
 30
0.0
 10
5.937841
 20
3.297674
 30
0.0
 10
5.917080
 20
3.298823
 30
0.0
 10
5.897250
 20
3.305075
 30
0.0
 10
5.879584
 20
3.316042
 30
0.0
 10
5.865184
 20
3.331041
 30
0.0
 10
5.854945
 20
3.349138
 30
0.0
 10
5.849505
 20
3.369206
 30
0.0
 10
5.848694
 20
3.380805
 30
0.0
 10
5.848694
 20
3.666228
 30
0.0
 10
5.605000
 20
4.001644
 30
0.0
 10
5.442631
 20
4.054401
 30
0.0
 10
5.442631
 20
3.856600
 30
0.0
 10
5.440037
 20
3.835969
 30
0.0
 10
5.432417
 20
3.816624
 30
0.0
 10
5.420244
 20
3.799767
 30
0.0
 10
5.404277
 20
3.786448
 30
0.0
 10
5.385510
 20
3.777496
 30
0.0
 10
5.365111
 20
3.773469
 30
0.0
 10
5.344351
 20
3.774618
 30
0.0
 10
5.324520
 20
3.780870
 30
0.0
 10
5.306855
 20
3.791837
 30
0.0
 10
5.292455
 20
3.806836
 30
0.0
 10
5.282216
 20
3.824933
 30
0.0
 10
5.276776
 20
3.845001
 30
0.0
 10
5.275964
 20
3.856600
 30
0.0
 10
5.275964
 20
4.142023
 30
0.0
 10
5.032271
 20
4.477439
 30
0.0
 10
4.770833
 20
4.562385
 30
0.0
 10
4.770833
 20
4.287493
 30
0.0
 10
5.030442
 20
3.930172
 30
0.0
 10
5.040470
 20
3.911957
 30
0.0
 10
5.045676
 20
3.891827
 30
0.0
 10
5.045739
 20
3.871034
 30
0.0
 10
5.040650
 20
3.850874
 30
0.0
 10
5.030728
 20
3.832601
 30
0.0
 10
5.016592
 20
3.817353
 30
0.0
 10
4.999121
 20
3.806079
 30
0.0
 10
4.979403
 20
3.799482
 30
0.0
 10
4.958666
 20
3.797971
 30
0.0
 10
4.938199
 20
3.801641
 30
0.0
 10
4.919279
 20
3.810263
 30
0.0
 10
4.903082
 20
3.823301
 30
0.0
 10
4.895608
 20
3.832208
 30
0.0
 10
4.687500
 20
4.118642
 30
0.0
 10
4.495309
 20
3.854113
 30
0.0
 10
4.495309
 20
3.595767
 30
0.0
 10
4.739003
 20
3.260351
 30
0.0
 10
4.984705
 20
3.180517
 30
0.0
 10
5.404761
 20
3.317002
 30
0.0
 10
5.425184
 20
3.320910
 30
0.0
 10
5.445937
 20
3.319641
 30
0.0
 10
5.465731
 20
3.313273
 30
0.0
 10
5.483332
 20
3.302203
 30
0.0
 10
5.497645
 20
3.287121
 30
0.0
 10
5.507778
 20
3.268965
 30
0.0
 10
5.513101
 20
3.248865
 30
0.0
 10
5.513282
 20
3.228073
 30
0.0
 10
5.508311
 20
3.207884
 30
0.0
 10
5.498496
 20
3.189553
 30
0.0
 10
5.484449
 20
3.174223
 30
0.0
 10
5.467044
 20
3.162848
 30
0.0
 10
5.456264
 20
3.158493
 30
0.0
 10
5.119541
 20
3.049084
 30
0.0
 10
5.291998
 20
2.811718
 30
0.0
 10
5.294522
 20
2.812067
 30
0.0
 10
5.310845
 20
2.812709
 30
0.0
 10
5.327153
 20
2.811747
 30
0.0
 10
5.343289
 20
2.809192
 30
0.0
 10
5.359096
 20
2.805067
 30
0.0
 10
5.374422
 20
2.799412
 30
0.0
 10
5.389120
 20
2.792283
 30
0.0
 10
5.403049
 20
2.783748
 30
0.0
 10
5.416074
 20
2.773888
 30
0.0
 10
5.428070
 20
2.762799
 30
0.0
 10
5.438922
 20
2.750587
 30
0.0
 10
5.448524
 20
2.737371
 30
0.0
 10
5.456784
 20
2.723278
 30
0.0
 10
5.463624
 20
2.708442
 30
0.0
 10
5.468976
 20
2.693007
 30
0.0
 10
5.472789
 20
2.677123
 30
0.0
 10
5.475028
 20
2.660941
 30
0.0
 10
5.475669
 20
2.644616
 30
0.0
 10
5.474708
 20
2.628309
 30
0.0
 10
5.472152
 20
2.612174
 30
0.0
 10
5.468028
 20
2.596367
 30
0.0
 10
5.462374
 20
2.581041
 30
0.0
 10
5.455244
 20
2.566342
 30
0.0
 10
5.446709
 20
2.552413
 30
0.0
 10
5.436849
 20
2.539388
 30
0.0
 10
5.425760
 20
2.527392
 30
0.0
 10
5.413549
 20
2.516541
 30
0.0
 10
5.400332
 20
2.506938
 30
0.0
 10
5.386238
 20
2.498678
 30
0.0
 10
5.371403
 20
2.491838
 30
0.0
 10
5.355968
 20
2.486486
 30
0.0
 10
5.340083
 20
2.482673
 30
0.0
 10
5.323901
 20
2.480434
 30
0.0
 10
5.307578
 20
2.479793
 30
0.0
 10
5.291270
 20
2.480754
 30
0.0
 10
5.275135
 20
2.483310
 30
0.0
 10
5.259328
 20
2.487435
 30
0.0
 10
5.244001
 20
2.493089
 30
0.0
 10
5.229303
 20
2.500218
 30
0.0
 10
5.215374
 20
2.508754
 30
0.0
 10
5.202349
 20
2.518613
 30
0.0
 10
5.190353
 20
2.529703
 30
0.0
 10
5.179501
 20
2.541914
 30
0.0
 10
5.169899
 20
2.555130
 30
0.0
 10
5.161639
 20
2.569224
 30
0.0
 10
5.154800
 20
2.584059
 30
0.0
 10
5.149447
 20
2.599494
 30
0.0
 10
5.145634
 20
2.615379
 30
0.0
 10
5.143395
 20
2.631561
 30
0.0
 10
5.142754
 20
2.647885
 30
0.0
 10
5.143715
 20
2.664193
 30
0.0
 10
5.146271
 20
2.680327
 30
0.0
 10
5.150395
 20
2.696134
 30
0.0
 10
5.156050
 20
2.711461
 30
0.0
 10
5.157162
 20
2.713754
 30
0.0
 10
4.933202
 20
3.022008
 30
0.0
 10
4.770833
 20
3.074765
 30
0.0
 10
4.770833
 20
2.876963
 30
0.0
 10
4.768239
 20
2.856333
 30
0.0
 10
4.760619
 20
2.836987
 30
0.0
 10
4.748446
 20
2.820130
 30
0.0
 10
4.732479
 20
2.806811
 30
0.0
 10
4.713712
 20
2.797860
 30
0.0
 10
4.693313
 20
2.793833
 30
0.0
 10
4.672553
 20
2.794981
 30
0.0
 10
4.652722
 20
2.801234
 30
0.0
 10
4.635057
 20
2.812201
 30
0.0
 10
4.620657
 20
2.827199
 30
0.0
 10
4.610418
 20
2.845296
 30
0.0
 10
4.604978
 20
2.865365
 30
0.0
 10
4.604167
 20
2.876963
 30
0.0
 10
4.604167
 20
3.162387
 30
0.0
 10
4.411976
 20
3.426915
 30
0.0
 10
4.219785
 20
3.162387
 30
0.0
 10
4.219785
 20
2.904040
 30
0.0
 10
4.479394
 20
2.546719
 30
0.0
 10
4.489421
 20
2.528504
 30
0.0
 10
4.494627
 20
2.508374
 30
0.0
 10
4.494690
 20
2.487581
 30
0.0
 10
4.489601
 20
2.467421
 30
0.0
 10
4.479680
 20
2.449148
 30
0.0
 10
4.465544
 20
2.433900
 30
0.0
 10
4.448073
 20
2.422626
 30
0.0
 10
4.428354
 20
2.416028
 30
0.0
 10
4.407617
 20
2.414517
 30
0.0
 10
4.387151
 20
2.418187
 30
0.0
 10
4.368230
 20
2.426810
 30
0.0
 10
4.352033
 20
2.439848
 30
0.0
 10
4.344559
 20
2.448754
 30
0.0
 10
4.136453
 20
2.735188
 30
0.0
 10
3.963996
 20
2.497822
 30
0.0
 10
3.965108
 20
2.495529
 30
0.0
 10
3.970763
 20
2.480203
 30
0.0
 10
3.974887
 20
2.464396
 30
0.0
 10
3.977443
 20
2.448260
 30
0.0
 10
3.978405
 20
2.431952
 30
0.0
 10
3.977763
 20
2.415629
 30
0.0
 10
3.975525
 20
2.399447
 30
0.0
 10
3.971711
 20
2.383562
 30
0.0
 10
3.966359
 20
2.368127
 30
0.0
 10
3.959519
 20
2.353292
 30
0.0
 10
3.951259
 20
2.339198
 30
0.0
 10
3.941657
 20
2.325982
 30
0.0
 10
3.930805
 20
2.313771
 30
0.0
 10
3.918809
 20
2.302682
 30
0.0
 10
3.905784
 20
2.292822
 30
0.0
 10
3.891855
 20
2.284286
 30
0.0
 10
3.877157
 20
2.277157
 30
0.0
 10
3.861831
 20
2.271503
 30
0.0
 10
3.846024
 20
2.267378
 30
0.0
 10
3.829888
 20
2.264822
 30
0.0
 10
3.813580
 20
2.263861
 30
0.0
 10
3.797257
 20
2.264502
 30
0.0
 10
3.781075
 20
2.266741
 30
0.0
 10
3.765190
 20
2.270554
 30
0.0
 10
3.749756
 20
2.275906
 30
0.0
 10
3.734920
 20
2.282746
 30
0.0
 10
3.720826
 20
2.291006
 30
0.0
 10
3.707610
 20
2.300608
 30
0.0
 10
3.695399
 20
2.311460
 30
0.0
 10
3.684309
 20
2.323456
 30
0.0
 10
3.674450
 20
2.336481
 30
0.0
 10
3.665914
 20
2.350410
 30
0.0
 10
3.658785
 20
2.365108
 30
0.0
 10
3.653131
 20
2.380435
 30
0.0
 10
3.649006
 20
2.396242
 30
0.0
 10
3.646450
 20
2.412377
 30
0.0
 10
3.645489
 20
2.428685
 30
0.0
 10
3.646130
 20
2.445008
 30
0.0
 10
3.648369
 20
2.461190
 30
0.0
 10
3.652182
 20
2.477075
 30
0.0
 10
3.657534
 20
2.492510
 30
0.0
 10
3.664374
 20
2.507346
 30
0.0
 10
3.672634
 20
2.521439
 30
0.0
 10
3.682236
 20
2.534655
 30
0.0
 10
3.693088
 20
2.546867
 30
0.0
 10
3.705084
 20
2.557956
 30
0.0
 10
3.718109
 20
2.567816
 30
0.0
 10
3.732038
 20
2.576351
 30
0.0
 10
3.746736
 20
2.583481
 30
0.0
 10
3.762063
 20
2.589135
 30
0.0
 10
3.777869
 20
2.593260
 30
0.0
 10
3.794005
 20
2.595815
 30
0.0
 10
3.810313
 20
2.596777
 30
0.0
 10
3.826636
 20
2.596135
 30
0.0
 10
3.829160
 20
2.595786
 30
0.0
 10
4.053120
 20
2.904040
 30
0.0
 10
4.053120
 20
3.074765
 30
0.0
 10
3.865000
 20
3.013641
 30
0.0
 10
3.844578
 20
3.009733
 30
0.0
 10
3.823824
 20
3.011002
 30
0.0
 10
3.804030
 20
3.017370
 30
0.0
 10
3.786429
 20
3.028439
 30
0.0
 10
3.772116
 20
3.043522
 30
0.0
 10
3.761983
 20
3.061678
 30
0.0
 10
3.756660
 20
3.081778
 30
0.0
 10
3.756479
 20
3.102569
 30
0.0
 10
3.761450
 20
3.122759
 30
0.0
 10
3.771265
 20
3.141089
 30
0.0
 10
3.785312
 20
3.156419
 30
0.0
 10
3.802717
 20
3.167795
 30
0.0
 10
3.813497
 20
3.172150
 30
0.0
 10
4.084951
 20
3.260351
 30
0.0
 10
4.328645
 20
3.595767
 30
0.0
 10
4.328645
 20
3.766492
 30
0.0
 10
4.140524
 20
3.705368
 30
0.0
 10
4.120102
 20
3.701460
 30
0.0
 10
4.099348
 20
3.702729
 30
0.0
 10
4.079555
 20
3.709097
 30
0.0
 10
4.061954
 20
3.720166
 30
0.0
 10
4.047641
 20
3.735249
 30
0.0
 10
4.037508
 20
3.753405
 30
0.0
 10
4.032184
 20
3.773504
 30
0.0
 10
4.032003
 20
3.794296
 30
0.0
 10
4.036975
 20
3.814486
 30
0.0
 10
4.046789
 20
3.832816
 30
0.0
 10
4.060836
 20
3.848146
 30
0.0
 10
4.078241
 20
3.859522
 30
0.0
 10
4.089022
 20
3.863877
 30
0.0
 10
4.360475
 20
3.952078
 30
0.0
 10
4.604167
 20
4.287493
 30
0.0
 10
4.604167
 20
4.562385
 30
0.0
 10
4.342729
 20
4.477439
 30
0.0
 10
4.083120
 20
4.120118
 30
0.0
 10
4.068895
 20
4.104952
 30
0.0
 10
4.051359
 20
4.093780
 30
0.0
 10
4.031603
 20
4.087297
 30
0.0
 10
4.010857
 20
4.085907
 30
0.0
 10
3.990412
 20
4.089696
 30
0.0
 10
3.971542
 20
4.098429
 30
0.0
 10
3.955422
 20
4.111561
 30
0.0
 10
3.943054
 20
4.128275
 30
0.0
 10
3.935208
 20
4.147531
 30
0.0
 10
3.932374
 20
4.168129
 30
0.0
 10
3.934728
 20
4.188788
 30
0.0
 10
3.942123
 20
4.208221
 30
0.0
 10
3.948284
 20
4.218082
 30
0.0
 10
4.156390
 20
4.504515
 30
0.0
 10
3.845419
 20
4.605556
 30
0.0
 10
3.599716
 20
4.525723
 30
0.0
 10
3.356023
 20
4.190307
 30
0.0
 10
3.356023
 20
3.931960
 30
0.0
 10
3.615632
 20
3.574639
 30
0.0
 10
3.625659
 20
3.556424
 30
0.0
 10
3.630865
 20
3.536294
 30
0.0
 10
3.630928
 20
3.515501
 30
0.0
 10
3.625839
 20
3.495341
 30
0.0
 10
3.615918
 20
3.477068
 30
0.0
 10
3.601781
 20
3.461820
 30
0.0
 10
3.584311
 20
3.450546
 30
0.0
 10
3.564592
 20
3.443949
 30
0.0
 10
3.543855
 20
3.442438
 30
0.0
 10
3.523389
 20
3.446108
 30
0.0
 10
3.504468
 20
3.454730
 30
0.0
 10
3.488271
 20
3.467768
 30
0.0
 10
3.480797
 20
3.476675
 30
0.0
 10
3.272691
 20
3.763108
 30
0.0
 10
3.100234
 20
3.525742
 30
0.0
 10
3.101346
 20
3.523449
 30
0.0
 10
3.107001
 20
3.508122
 30
0.0
 10
3.111125
 20
3.492316
 30
0.0
 10
3.113681
 20
3.476181
 30
0.0
 10
3.114642
 20
3.459873
 30
0.0
 10
3.114001
 20
3.443549
 30
0.0
 10
3.111762
 20
3.427367
 30
0.0
 10
3.107949
 20
3.411482
 30
0.0
 10
3.102596
 20
3.396048
 30
0.0
 10
3.095757
 20
3.381212
 30
0.0
 10
3.087497
 20
3.367118
 30
0.0
 10
3.077894
 20
3.353902
 30
0.0
 10
3.067043
 20
3.341691
 30
0.0
 10
3.055047
 20
3.330602
 30
0.0
 10
3.042022
 20
3.320742
 30
0.0
 10
3.028093
 20
3.312206
 30
0.0
 10
3.013395
 20
3.305077
 30
0.0
 10
2.998068
 20
3.299423
 30
0.0
 10
2.982261
 20
3.295298
 30
0.0
 10
2.966126
 20
3.292742
 30
0.0
 10
2.949818
 20
3.291781
 30
0.0
 10
2.933495
 20
3.292423
 30
0.0
 10
2.917313
 20
3.294661
 30
0.0
 10
2.901428
 20
3.298474
 30
0.0
 10
2.885993
 20
3.303827
 30
0.0
 10
2.871158
 20
3.310666
 30
0.0
 10
2.857064
 20
3.318926
 30
0.0
 10
2.843847
 20
3.328529
 30
0.0
 10
2.831636
 20
3.339380
 30
0.0
 10
2.820547
 20
3.351376
 30
0.0
 10
2.810687
 20
3.364401
 30
0.0
 10
2.802151
 20
3.378331
 30
0.0
 10
2.795022
 20
3.393029
 30
0.0
 10
2.789368
 20
3.408355
 30
0.0
 10
2.785243
 20
3.424162
 30
0.0
 10
2.782688
 20
3.440297
 30
0.0
 10
2.781726
 20
3.456605
 30
0.0
 10
2.782368
 20
3.472929
 30
0.0
 10
2.784606
 20
3.489111
 30
0.0
 10
2.788420
 20
3.504995
 30
0.0
 10
2.793772
 20
3.520430
 30
0.0
 10
2.800612
 20
3.535266
 30
0.0
 10
2.808872
 20
3.549359
 30
0.0
 10
2.818474
 20
3.562576
 30
0.0
 10
2.829326
 20
3.574787
 30
0.0
 10
2.841322
 20
3.585876
 30
0.0
 10
2.854347
 20
3.595736
 30
0.0
 10
2.868276
 20
3.604271
 30
0.0
 10
2.882974
 20
3.611401
 30
0.0
 10
2.898300
 20
3.617055
 30
0.0
 10
2.914107
 20
3.621180
 30
0.0
 10
2.930243
 20
3.623735
 30
0.0
 10
2.946551
 20
3.624697
 30
0.0
 10
2.962874
 20
3.624055
 30
0.0
 10
2.965398
 20
3.623706
 30
0.0
 10
3.189358
 20
3.931960
 30
0.0
 10
3.189358
 20
4.102685
 30
0.0
 10
3.001237
 20
4.041561
 30
0.0
 10
2.980815
 20
4.037653
 30
0.0
 10
2.960061
 20
4.038922
 30
0.0
 10
2.940268
 20
4.045290
 30
0.0
 10
2.922667
 20
4.056360
 30
0.0
 10
2.908354
 20
4.071442
 30
0.0
 10
2.898221
 20
4.089598
 30
0.0
 10
2.892898
 20
4.109698
 30
0.0
 10
2.892716
 20
4.130490
 30
0.0
 10
2.897688
 20
4.150679
 30
0.0
 10
2.907502
 20
4.169010
 30
0.0
 10
2.921550
 20
4.184340
 30
0.0
 10
2.938955
 20
4.195715
 30
0.0
 10
2.949735
 20
4.200071
 30
0.0
 10
3.221188
 20
4.288271
 30
0.0
 10
3.413380
 20
4.552799
 30
0.0
 10
3.102408
 20
4.653840
 30
0.0
 10
2.856706
 20
4.574007
 30
0.0
 10
2.597097
 20
4.216686
 30
0.0
 10
2.582872
 20
4.201520
 30
0.0
 10
2.565336
 20
4.190348
 30
0.0
 10
2.545579
 20
4.183865
 30
0.0
 10
2.524833
 20
4.182475
 30
0.0
 10
2.504389
 20
4.186264
 30
0.0
 10
2.485519
 20
4.194997
 30
0.0
 10
2.469398
 20
4.208129
 30
0.0
 10
2.457030
 20
4.224843
 30
0.0
 10
2.449185
 20
4.244099
 30
0.0
 10
2.446351
 20
4.264697
 30
0.0
 10
2.448704
 20
4.285356
 30
0.0
 10
2.456099
 20
4.304789
 30
0.0
 10
2.462260
 20
4.314650
 30
0.0
 10
2.670367
 20
4.601083
 30
0.0
 10
2.391326
 20
4.691749
 30
0.0
 10
2.389489
 20
4.689983
 30
0.0
 10
2.376660
 20
4.679870
 30
0.0
 10
2.362901
 20
4.671062
 30
0.0
 10
2.348346
 20
4.663646
 30
0.0
 10
2.333133
 20
4.657692
 30
0.0
 10
2.317410
 20
4.653257
 30
0.0
 10
2.301329
 20
4.650385
 30
0.0
 10
2.285043
 20
4.649104
 30
0.0
 10
2.268710
 20
4.649424
 30
0.0
 10
2.252486
 20
4.651345
 30
0.0
 10
2.236530
 20
4.654846
 30
0.0
 10
2.220993
 20
4.659894
 30
0.0
 10
2.206026
 20
4.666440
 30
0.0
 10
2.191773
 20
4.674423
 30
0.0
 10
2.178371
 20
4.683763
 30
0.0
 10
2.165948
 20
4.694373
 30
0.0
 10
2.154626
 20
4.706149
 30
0.0
 10
2.144513
 20
4.718978
 30
0.0
 10
2.135705
 20
4.732737
 30
0.0
 10
2.128289
 20
4.747292
 30
0.0
 10
2.122334
 20
4.762505
 30
0.0
 10
2.117900
 20
4.778228
 30
0.0
 10
2.115028
 20
4.794310
 30
0.0
 10
2.113747
 20
4.810595
 30
0.0
 10
2.114067
 20
4.826928
 30
0.0
 10
2.115988
 20
4.843151
 30
0.0
 10
2.119489
 20
4.859108
 30
0.0
 10
2.124537
 20
4.874645
 30
0.0
 10
2.131084
 20
4.889612
 30
0.0
 10
2.139066
 20
4.903865
 30
0.0
 10
2.148406
 20
4.917267
 30
0.0
 10
2.159016
 20
4.929689
 30
0.0
 10
2.170792
 20
4.941012
 30
0.0
 10
2.183621
 20
4.951126
 30
0.0
 10
2.197380
 20
4.959933
 30
0.0
 10
2.211935
 20
4.967349
 30
0.0
 10
2.227148
 20
4.973303
 30
0.0
 10
2.242871
 20
4.977738
 30
0.0
 10
2.258952
 20
4.980609
 30
0.0
 10
2.275238
 20
4.981891
 30
0.0
 10
2.291571
 20
4.981570
 30
0.0
 10
2.307795
 20
4.979650
 30
0.0
 10
2.323751
 20
4.976149
 30
0.0
 10
2.339287
 20
4.971101
 30
0.0
 10
2.354254
 20
4.964555
 30
0.0
 10
2.368508
 20
4.956572
 30
0.0
 10
2.381910
 20
4.947231
 30
0.0
 10
2.394332
 20
4.936622
 30
0.0
 10
2.405655
 20
4.924846
 30
0.0
 10
2.415768
 20
4.912017
 30
0.0
 10
2.424576
 20
4.898258
 30
0.0
 10
2.431992
 20
4.883703
 30
0.0
 10
2.437946
 20
4.868490
 30
0.0
 10
2.442381
 20
4.852767
 30
0.0
 10
2.442829
 20
4.850259
 30
0.0
 10
2.805203
 20
4.732516
 30
0.0
 10
2.967572
 20
4.785273
 30
0.0
 10
2.851307
 20
4.945298
 30
0.0
 10
2.841279
 20
4.963513
 30
0.0
 10
2.836073
 20
4.983643
 30
0.0
 10
2.836011
 20
5.004435
 30
0.0
 10
2.841100
 20
5.024596
 30
0.0
 10
2.851021
 20
5.042869
 30
0.0
 10
2.865157
 20
5.058117
 30
0.0
 10
2.882628
 20
5.069390
 30
0.0
 10
2.902346
 20
5.075988
 30
0.0
 10
2.923084
 20
5.077499
 30
0.0
 10
2.943550
 20
5.073829
 30
0.0
 10
2.962471
 20
5.065207
 30
0.0
 10
2.978667
 20
5.052169
 30
0.0
 10
2.986141
 20
5.043262
 30
0.0
 10
3.153909
 20
4.812350
 30
0.0
 10
3.548214
 20
4.684232
 30
0.0
 10
3.710583
 20
4.736989
 30
0.0
 10
3.594318
 20
4.897014
 30
0.0
 10
3.584290
 20
4.915229
 30
0.0
 10
3.579084
 20
4.935359
 30
0.0
 10
3.579022
 20
4.956151
 30
0.0
 10
3.584111
 20
4.976312
 30
0.0
 10
3.594032
 20
4.994585
 30
0.0
 10
3.608168
 20
5.009833
 30
0.0
 10
3.625639
 20
5.021106
 30
0.0
 10
3.645357
 20
5.027704
 30
0.0
 10
3.666095
 20
5.029215
 30
0.0
 10
3.686561
 20
5.025545
 30
0.0
 10
3.705481
 20
5.016923
 30
0.0
 10
3.721678
 20
5.003885
 30
0.0
 10
3.729152
 20
4.994978
 30
0.0
 10
3.896920
 20
4.764066
 30
0.0
 10
4.291225
 20
4.635948
 30
0.0
 10
4.552662
 20
4.720894
 30
0.0
 10
4.391085
 20
4.943286
 30
0.0
 10
3.971029
 20
5.079771
 30
0.0
 10
3.952210
 20
5.088613
 30
0.0
 10
3.936166
 20
5.101839
 30
0.0
 10
3.923895
 20
5.118625
 30
0.0
 10
3.916162
 20
5.137926
 30
0.0
 10
3.913448
 20
5.158541
 30
0.0
 10
3.915922
 20
5.179185
 30
0.0
 10
3.923430
 20
5.198575
 30
0.0
 10
3.935504
 20
5.215503
 30
0.0
 10
3.951393
 20
5.228914
 30
0.0
 10
3.970108
 20
5.237975
 30
0.0
 10
3.990483
 20
5.242121
 30
0.0
 10
4.011250
 20
5.241094
 30
0.0
 10
4.022531
 20
5.238281
 30
0.0
 10
4.359254
 20
5.128873
 30
0.0
 10
4.359254
 20
5.455848
 30
0.0
 10
4.207402
 20
5.664855
 30
0.0
 10
3.813097
 20
5.792972
 30
0.0
 10
3.567395
 20
5.713139
 30
0.0
 10
3.307786
 20
5.355817
 30
0.0
 10
3.293561
 20
5.340652
 30
0.0
 10
3.276025
 20
5.329480
 30
0.0
 10
3.256269
 20
5.322997
 30
0.0
 10
3.235523
 20
5.321607
 30
0.0
 10
3.215078
 20
5.325396
 30
0.0
 10
3.196208
 20
5.334129
 30
0.0
 10
3.180087
 20
5.347261
 30
0.0
 10
3.167719
 20
5.363975
 30
0.0
 10
3.159874
 20
5.383231
 30
0.0
 10
3.157040
 20
5.403829
 30
0.0
 10
3.159394
 20
5.424488
 30
0.0
 10
3.166788
 20
5.443921
 30
0.0
 10
3.172949
 20
5.453782
 30
0.0
 10
3.381056
 20
5.740215
 30
0.0
 10
3.102015
 20
5.830881
 30
0.0
 10
3.100178
 20
5.829115
 30
0.0
 10
3.087349
 20
5.819002
 30
0.0
 10
3.073590
 20
5.810194
 30
0.0
 10
3.059035
 20
5.802778
 30
0.0
 10
3.043822
 20
5.796823
 30
0.0
 10
3.028099
 20
5.792389
 30
0.0
 10
3.012017
 20
5.789517
 30
0.0
 10
2.995732
 20
5.788236
 30
0.0
 10
2.979399
 20
5.788556
 30
0.0
 10
2.963176
 20
5.790477
 30
0.0
 10
2.947219
 20
5.793978
 30
0.0
 10
2.931682
 20
5.799026
 30
0.0
 10
2.916715
 20
5.805573
 30
0.0
 10
2.902462
 20
5.813555
 30
0.0
 10
2.889060
 20
5.822895
 30
0.0
 10
2.876638
 20
5.833505
 30
0.0
 10
2.865315
 20
5.845281
 30
0.0
 10
2.855201
 20
5.858110
 30
0.0
 10
2.846394
 20
5.871869
 30
0.0
 10
2.838978
 20
5.886424
 30
0.0
 10
2.833024
 20
5.901637
 30
0.0
 10
2.828589
 20
5.917359
 30
0.0
 10
2.825718
 20
5.933441
 30
0.0
 10
2.824436
 20
5.949727
 30
0.0
 10
2.824757
 20
5.966060
 30
0.0
 10
2.826677
 20
5.982283
 30
0.0
 10
2.830178
 20
5.998240
 30
0.0
 10
2.835226
 20
6.013776
 30
0.0
 10
2.841772
 20
6.028743
 30
0.0
 10
2.849755
 20
6.042997
 30
0.0
 10
2.859096
 20
6.056399
 30
0.0
 10
2.869705
 20
6.068821
 30
0.0
 10
2.881481
 20
6.080144
 30
0.0
 10
2.894310
 20
6.090257
 30
0.0
 10
2.908068
 20
6.099065
 30
0.0
 10
2.922624
 20
6.106481
 30
0.0
 10
2.937837
 20
6.112435
 30
0.0
 10
2.953560
 20
6.116870
 30
0.0
 10
2.969642
 20
6.119741
 30
0.0
 10
2.985927
 20
6.121023
 30
0.0
 10
3.002260
 20
6.120702
 30
0.0
 10
3.018483
 20
6.118782
 30
0.0
 10
3.034440
 20
6.115281
 30
0.0
 10
3.049977
 20
6.110233
 30
0.0
 10
3.064944
 20
6.103686
 30
0.0
 10
3.079197
 20
6.095704
 30
0.0
 10
3.092599
 20
6.086363
 30
0.0
 10
3.105021
 20
6.075754
 30
0.0
 10
3.116344
 20
6.063978
 30
0.0
 10
3.126457
 20
6.051149
 30
0.0
 10
3.135265
 20
6.037390
 30
0.0
 10
3.142681
 20
6.022834
 30
0.0
 10
3.148635
 20
6.007622
 30
0.0
 10
3.153070
 20
5.991899
 30
0.0
 10
3.153518
 20
5.989391
 30
0.0
 10
3.515892
 20
5.871648
 30
0.0
 10
3.678261
 20
5.924405
 30
0.0
 10
3.561996
 20
6.084430
 30
0.0
 10
3.551969
 20
6.102644
 30
0.0
 10
3.546763
 20
6.122775
 30
0.0
 10
3.546700
 20
6.143567
 30
0.0
 10
3.551789
 20
6.163728
 30
0.0
 10
3.561710
 20
6.182001
 30
0.0
 10
3.575846
 20
6.197249
 30
0.0
 10
3.593317
 20
6.208522
 30
0.0
 10
3.613035
 20
6.215120
 30
0.0
 10
3.633773
 20
6.216631
 30
0.0
 10
3.654239
 20
6.212961
 30
0.0
 10
3.673160
 20
6.204339
 30
0.0
 10
3.689357
 20
6.191301
 30
0.0
 10
3.696830
 20
6.182394
 30
0.0
 10
3.864598
 20
5.951481
 30
0.0
 10
4.175569
 20
5.850441
 30
0.0
 10
4.175569
 20
6.177416
 30
0.0
 10
4.023717
 20
6.386423
 30
0.0
 10
3.603661
 20
6.522907
 30
0.0
 10
3.584842
 20
6.531749
 30
0.0
 10
3.568798
 20
6.544975
 30
0.0
 10
3.556527
 20
6.561761
 30
0.0
 10
3.548794
 20
6.581062
 30
0.0
 10
3.546080
 20
6.601677
 30
0.0
 10
3.548554
 20
6.622322
 30
0.0
 10
3.556062
 20
6.641711
 30
0.0
 10
3.568136
 20
6.658639
 30
0.0
 10
3.584025
 20
6.672051
 30
0.0
 10
3.602740
 20
6.681111
 30
0.0
 10
3.623115
 20
6.685257
 30
0.0
 10
3.643882
 20
6.684230
 30
0.0
 10
3.655164
 20
6.681417
 30
0.0
 10
3.991887
 20
6.572009
 30
0.0
 10
3.991887
 20
6.865410
 30
0.0
 10
3.989639
 20
6.866611
 30
0.0
 10
3.976056
 20
6.875688
 30
0.0
 10
3.963428
 20
6.886051
 30
0.0
 10
3.951877
 20
6.897602
 30
0.0
 10
3.941513
 20
6.910230
 30
0.0
 10
3.932438
 20
6.923813
 30
0.0
 10
3.924737
 20
6.938220
 30
0.0
 10
3.918485
 20
6.953313
 30
0.0
 10
3.913743
 20
6.968946
 30
0.0
 10
3.910556
 20
6.984968
 30
0.0
 10
3.908954
 20
7.001226
 30
0.0
 10
3.908954
 20
7.017562
 30
0.0
 10
3.910556
 20
7.033820
 30
0.0
 10
3.913743
 20
7.049842
 30
0.0
 10
3.918485
 20
7.065475
 30
0.0
 10
3.924737
 20
7.080568
 30
0.0
 10
3.932438
 20
7.094975
 30
0.0
 10
3.941513
 20
7.108558
 30
0.0
 10
3.951877
 20
7.121186
 30
0.0
 10
3.963428
 20
7.132737
 30
0.0
 10
3.976056
 20
7.143100
 30
0.0
 10
3.989639
 20
7.152177
 30
0.0
 10
4.004047
 20
7.159878
 30
0.0
 10
4.019139
 20
7.166129
 30
0.0
 10
4.034772
 20
7.170871
 30
0.0
 10
4.050794
 20
7.174058
 30
0.0
 10
4.067052
 20
7.175659
 30
0.0
 10
4.083388
 20
7.175659
 30
0.0
  0
ENDSEC
  0
SECTION
  2
OBJECTS
  0
DICTIONARY
  5
C
330
0
100
AcDbDictionary
  3
ACAD_GROUP
350
D
  3
ACAD_MLINESTYLE
350
17
  0
DICTIONARY
  5
D
330
C
100
AcDbDictionary
  0
DICTIONARY
  5
1A
330
C
100
AcDbDictionary
  0
DICTIONARY
  5
17
330
C
100
AcDbDictionary
  3
STANDARD
350
18
  0
DICTIONARY
  5
19
330
C
100
AcDbDictionary
  0
ENDSEC
  0
EOF
