  0
SECTION
  2
HEADER
  9
$ACADVER
  1
AC1014
  9
$HANDSEED
  5
FFFF
  9
$INSUNITS
 70
     1
  9
$MEASUREMENT
 70
     1
  0
ENDSEC
  0
SECTION
  2
TABLES
  0
TABLE
  2
VPORT
  5
8
330
0
100
AcDbSymbolTable
 70
     4
  0
VPORT
  5
2E
330
8
100
AcDbSymbolTableRecord
100
AcDbViewportTableRecord
  2
*ACTIVE
 70
     0
 10
0.0
 20
0.0
 11
1.0
 21
1.0
 12
210.0
 22
148.5
 13
0.0
 23
0.0
 14
10.0
 24
10.0
 15
10.0
 25
10.0
 16
0.0
 26
0.0
 36
1.0
 17
0.0
 27
0.0
 37
0.0
 40
341.0
 41
1.24
 42
50.0
 43
0.0
 44
0.0
 50
0.0
 51
0.0
 71
     0
 72
   100
 73
     1
 74
     3
 75
     0
 76
     0
 77
     0
 78
     0
  0
ENDTAB
  0
TABLE
  2
LTYPE
  5
5
330
0
100
AcDbSymbolTable
 70
     1
  0
LTYPE
  5
14
330
5
100
AcDbSymbolTableRecord
100
AcDbLinetypeTableRecord
  2
BYBLOCK
 70
     0
  3

 72
    65
 73
     0
 40
0.0
  0
LTYPE
  5
15
330
5
100
AcDbSymbolTableRecord
100
AcDbLinetypeTableRecord
  2
BYLAYER
 70
     0
  3

 72
    65
 73
     0
 40
0.0
  0
LTYPE
  5
16
330
5
100
AcDbSymbolTableRecord
100
AcDbLinetypeTableRecord
  2
CONTINUOUS
 70
     0
  3
Solid line
 72
    65
 73
     0
 40
0.0
  0
ENDTAB
  0
TABLE
  2
LAYER
  5
2
100
AcDbSymbolTable
 70
1
  0
LAYER
  5
50
100
AcDbSymbolTableRecord
100
AcDbLayerTableRecord
  2
0
 70
0
  6
CONTINUOUS
  0
ENDTAB
  0
TABLE
  2
STYLE
  5
3
330
0
100
AcDbSymbolTable
 70
     1
  0
STYLE
  5
11
330
3
100
AcDbSymbolTableRecord
100
AcDbTextStyleTableRecord
  2
STANDARD
 70
     0
 40
0.0
 41
1.0
 50
0.0
 71
     0
 42
2.5
  3
txt
  4

  0
ENDTAB
  0
TABLE
  2
VIEW
  5
6
330
0
100
AcDbSymbolTable
 70
     0
  0
ENDTAB
  0
TABLE
  2
UCS
  5
7
330
0
100
AcDbSymbolTable
 70
     0
  0
ENDTAB
  0
TABLE
  2
APPID
  5
9
330
0
100
AcDbSymbolTable
 70
     2
  0
APPID
  5
12
330
9
100
AcDbSymbolTableRecord
100
AcDbRegAppTableRecord
  2
ACAD
 70
     0
  0
ENDTAB
  0
TABLE
  2
DIMSTYLE
  5
A
330
0
100
AcDbSymbolTable
 70
     1
  0
DIMSTYLE
105
27
330
A
100
AcDbSymbolTableRecord
100
AcDbDimStyleTableRecord
  2
ISO-25
 70
     0
  3

  4

  5

  6

  7

 40
1.0
 41
2.5
 42
0.625
 43
3.75
 44
1.25
 45
0.0
 46
0.0
 47
0.0
 48
0.0
140
2.5
141
2.5
142
0.0
143
0.03937007874016
144
1.0
145
0.0
146
1.0
147
0.625
 71
     0
 72
     0
 73
     0
 74
     0
 75
     0
 76
     0
 77
     1
 78
     8
170
     0
171
     3
172
     1
173
     0
174
     0
175
     0
176
     0
177
     0
178
     0
270
     2
271
     2
272
     2
273
     2
274
     3
340
11
275
     0
280
     0
281
     0
282
     0
283
     0
284
     8
285
     0
286
     0
287
     3
288
     0
  0
ENDTAB
  0
TABLE
  2
BLOCK_RECORD
  5
1
330
0
100
AcDbSymbolTable
 70
     1
  0
BLOCK_RECORD
  5
1F
330
1
100
AcDbSymbolTableRecord
100
AcDbBlockTableRecord
  2
*MODEL_SPACE
  0
BLOCK_RECORD
  5
1B
330
1
100
AcDbSymbolTableRecord
100
AcDbBlockTableRecord
  2
*PAPER_SPACE
  0
ENDTAB
  0
ENDSEC
  0
SECTION
  2
BLOCKS
  0
BLOCK
  5
20
330
1F
100
AcDbEntity
  8
0
100
AcDbBlockBegin
  2
*MODEL_SPACE
 70
     0
 10
0.0
 20
0.0
 30
0.0
  3
*MODEL_SPACE
  1

  0
ENDBLK
  5
21
330
1F
100
AcDbEntity
  8
0
100
AcDbBlockEnd
  0
BLOCK
  5
1C
330
1B
100
AcDbEntity
 67
     1
  8
0
100
AcDbBlockBegin
  2
*PAPER_SPACE
  1

  0
ENDBLK
  5
1D
330
1B
100
AcDbEntity
 67
     1
  8
0
100
AcDbBlockEnd
  0
ENDSEC
  0
SECTION
  2
ENTITIES
  0
LWPOLYLINE
  5
100
100
AcDbEntity
  8
0
 62
7
100
AcDbPolyline
 90
1130
 70
1
 10
4.115907
 20
7.339122
 30
0.0
 10
4.131929
 20
7.335935
 30
0.0
 10
4.163195
 20
7.326451
 30
0.0
 10
4.178287
 20
7.320199
 30
0.0
 10
4.207102
 20
7.304798
 30
0.0
 10
4.220685
 20
7.295722
 30
0.0
 10
4.245941
 20
7.274995
 30
0.0
 10
4.257492
 20
7.263443
 30
0.0
 10
4.278219
 20
7.238187
 30
0.0
 10
4.287295
 20
7.224604
 30
0.0
 10
4.302697
 20
7.195790
 30
0.0
 10
4.308949
 20
7.180697
 30
0.0
 10
4.318433
 20
7.149431
 30
0.0
 10
4.321620
 20
7.133409
 30
0.0
 10
4.324822
 20
7.100894
 30
0.0
 10
4.324822
 20
7.084558
 30
0.0
 10
4.321620
 20
7.052043
 30
0.0
 10
4.318433
 20
7.036021
 30
0.0
 10
4.308949
 20
7.004755
 30
0.0
 10
4.302697
 20
6.989662
 30
0.0
 10
4.287295
 20
6.960848
 30
0.0
 10
4.278219
 20
6.947265
 30
0.0
 10
4.257492
 20
6.922009
 30
0.0
 10
4.245941
 20
6.910457
 30
0.0
 10
4.220685
 20
6.889730
 30
0.0
 10
4.207102
 20
6.880654
 30
0.0
 10
4.178287
 20
6.865253
 30
0.0
 10
4.163195
 20
6.859001
 30
0.0
 10
4.158557
 20
6.857594
 30
0.0
 10
4.158557
 20
6.484386
 30
0.0
 10
4.258907
 20
6.346267
 30
0.0
 10
4.375171
 20
6.506291
 30
0.0
 10
4.389396
 20
6.521457
 30
0.0
 10
4.406932
 20
6.532629
 30
0.0
 10
4.426689
 20
6.539112
 30
0.0
 10
4.447435
 20
6.540502
 30
0.0
 10
4.467879
 20
6.536713
 30
0.0
 10
4.486749
 20
6.527980
 30
0.0
 10
4.502870
 20
6.514848
 30
0.0
 10
4.515238
 20
6.498134
 30
0.0
 10
4.523083
 20
6.478878
 30
0.0
 10
4.525917
 20
6.458280
 30
0.0
 10
4.523564
 20
6.437621
 30
0.0
 10
4.516169
 20
6.418188
 30
0.0
 10
4.510008
 20
6.408327
 30
0.0
 10
4.342240
 20
6.177415
 30
0.0
 10
4.342240
 20
5.762818
 30
0.0
 10
4.442589
 20
5.624699
 30
0.0
 10
4.558854
 20
5.784724
 30
0.0
 10
4.573079
 20
5.799889
 30
0.0
 10
4.590615
 20
5.811061
 30
0.0
 10
4.610371
 20
5.817544
 30
0.0
 10
4.631117
 20
5.818934
 30
0.0
 10
4.651562
 20
5.815145
 30
0.0
 10
4.670432
 20
5.806413
 30
0.0
 10
4.686553
 20
5.793280
 30
0.0
 10
4.698921
 20
5.776566
 30
0.0
 10
4.706766
 20
5.757310
 30
0.0
 10
4.709600
 20
5.736712
 30
0.0
 10
4.707246
 20
5.716053
 30
0.0
 10
4.699852
 20
5.696620
 30
0.0
 10
4.693691
 20
5.686759
 30
0.0
 10
4.525923
 20
5.455847
 30
0.0
 10
4.525923
 20
5.041250
 30
0.0
 10
4.687500
 20
4.818859
 30
0.0
 10
4.849077
 20
5.041250
 30
0.0
 10
4.849077
 20
5.482924
 30
0.0
 10
4.851671
 20
5.503554
 30
0.0
 10
4.859292
 20
5.522900
 30
0.0
 10
4.871464
 20
5.539757
 30
0.0
 10
4.887431
 20
5.553076
 30
0.0
 10
4.906198
 20
5.562027
 30
0.0
 10
4.926597
 20
5.566054
 30
0.0
 10
4.947358
 20
5.564906
 30
0.0
 10
4.967188
 20
5.558653
 30
0.0
 10
4.984853
 20
5.547686
 30
0.0
 10
4.999254
 20
5.532688
 30
0.0
 10
5.009493
 20
5.514591
 30
0.0
 10
5.014933
 20
5.494522
 30
0.0
 10
5.015744
 20
5.482924
 30
0.0
 10
5.015744
 20
5.128872
 30
0.0
 10
5.326716
 20
5.229913
 30
0.0
 10
5.478568
 20
5.438920
 30
0.0
 10
5.478568
 20
5.853517
 30
0.0
 10
5.326716
 20
6.062524
 30
0.0
 10
4.906659
 20
6.199008
 30
0.0
 10
4.887841
 20
6.207850
 30
0.0
 10
4.871796
 20
6.221076
 30
0.0
 10
4.859526
 20
6.237862
 30
0.0
 10
4.851793
 20
6.257163
 30
0.0
 10
4.849079
 20
6.277778
 30
0.0
 10
4.851553
 20
6.298423
 30
0.0
 10
4.859061
 20
6.317812
 30
0.0
 10
4.871135
 20
6.334740
 30
0.0
 10
4.887024
 20
6.348152
 30
0.0
 10
4.905738
 20
6.357212
 30
0.0
 10
4.926114
 20
6.361358
 30
0.0
 10
4.946881
 20
6.360330
 30
0.0
 10
4.958162
 20
6.357517
 30
0.0
 10
5.294885
 20
6.248109
 30
0.0
 10
5.294885
 20
6.533696
 30
0.0
 10
5.290248
 20
6.535102
 30
0.0
 10
5.275155
 20
6.541354
 30
0.0
 10
5.246340
 20
6.556756
 30
0.0
 10
5.232757
 20
6.565831
 30
0.0
 10
5.207501
 20
6.586559
 30
0.0
 10
5.195950
 20
6.598110
 30
0.0
 10
5.175223
 20
6.623366
 30
0.0
 10
5.166147
 20
6.636949
 30
0.0
 10
5.150745
 20
6.665764
 30
0.0
 10
5.144494
 20
6.680856
 30
0.0
 10
5.135009
 20
6.712122
 30
0.0
 10
5.131822
 20
6.728144
 30
0.0
 10
5.128620
 20
6.760659
 30
0.0
 10
5.128620
 20
6.776995
 30
0.0
 10
5.131822
 20
6.809511
 30
0.0
 10
5.135009
 20
6.825533
 30
0.0
 10
5.144494
 20
6.856798
 30
0.0
 10
5.150745
 20
6.871891
 30
0.0
 10
5.166147
 20
6.900705
 30
0.0
 10
5.175223
 20
6.914288
 30
0.0
 10
5.195950
 20
6.939544
 30
0.0
 10
5.207501
 20
6.951096
 30
0.0
 10
5.232757
 20
6.971823
 30
0.0
 10
5.246340
 20
6.980899
 30
0.0
 10
5.275155
 20
6.996301
 30
0.0
 10
5.290248
 20
7.002552
 30
0.0
 10
5.321513
 20
7.012036
 30
0.0
 10
5.337536
 20
7.015224
 30
0.0
 10
5.370051
 20
7.018426
 30
0.0
 10
5.386386
 20
7.018426
 30
0.0
 10
5.418902
 20
7.015224
 30
0.0
 10
5.434924
 20
7.012036
 30
0.0
 10
5.466189
 20
7.002552
 30
0.0
 10
5.481282
 20
6.996301
 30
0.0
 10
5.510097
 20
6.980899
 30
0.0
 10
5.523680
 20
6.971823
 30
0.0
 10
5.548936
 20
6.951096
 30
0.0
 10
5.560487
 20
6.939545
 30
0.0
 10
5.581214
 20
6.914289
 30
0.0
 10
5.590290
 20
6.900705
 30
0.0
 10
5.605692
 20
6.871891
 30
0.0
 10
5.611944
 20
6.856798
 30
0.0
 10
5.621428
 20
6.825533
 30
0.0
 10
5.624615
 20
6.809510
 30
0.0
 10
5.627817
 20
6.776995
 30
0.0
 10
5.627817
 20
6.760659
 30
0.0
 10
5.624615
 20
6.728144
 30
0.0
 10
5.621428
 20
6.712122
 30
0.0
 10
5.611944
 20
6.680856
 30
0.0
 10
5.605692
 20
6.665764
 30
0.0
 10
5.590290
 20
6.636949
 30
0.0
 10
5.581214
 20
6.623366
 30
0.0
 10
5.560487
 20
6.598110
 30
0.0
 10
5.548936
 20
6.586559
 30
0.0
 10
5.523680
 20
6.565832
 30
0.0
 10
5.510097
 20
6.556756
 30
0.0
 10
5.481282
 20
6.541354
 30
0.0
 10
5.466189
 20
6.535102
 30
0.0
 10
5.461552
 20
6.533696
 30
0.0
 10
5.461552
 20
6.160487
 30
0.0
 10
5.561901
 20
6.022368
 30
0.0
 10
5.678166
 20
6.182393
 30
0.0
 10
5.692391
 20
6.197558
 30
0.0
 10
5.709927
 20
6.208730
 30
0.0
 10
5.729683
 20
6.215213
 30
0.0
 10
5.750429
 20
6.216603
 30
0.0
 10
5.770874
 20
6.212814
 30
0.0
 10
5.789744
 20
6.204081
 30
0.0
 10
5.805865
 20
6.190949
 30
0.0
 10
5.818233
 20
6.174235
 30
0.0
 10
5.826078
 20
6.154979
 30
0.0
 10
5.828912
 20
6.134381
 30
0.0
 10
5.826558
 20
6.113722
 30
0.0
 10
5.819164
 20
6.094289
 30
0.0
 10
5.813002
 20
6.084428
 30
0.0
 10
5.645235
 20
5.853516
 30
0.0
 10
5.645235
 20
5.526541
 30
0.0
 10
5.956206
 20
5.627582
 30
0.0
 10
6.108059
 20
5.836589
 30
0.0
 10
6.108059
 20
6.278262
 30
0.0
 10
6.110653
 20
6.298893
 30
0.0
 10
6.118273
 20
6.318238
 30
0.0
 10
6.130446
 20
6.335095
 30
0.0
 10
6.146413
 20
6.348414
 30
0.0
 10
6.165180
 20
6.357366
 30
0.0
 10
6.185579
 20
6.361393
 30
0.0
 10
6.206339
 20
6.360244
 30
0.0
 10
6.226170
 20
6.353992
 30
0.0
 10
6.243835
 20
6.343025
 30
0.0
 10
6.258235
 20
6.328026
 30
0.0
 10
6.268474
 20
6.309929
 30
0.0
 10
6.273914
 20
6.289861
 30
0.0
 10
6.274726
 20
6.278262
 30
0.0
 10
6.274726
 20
5.924211
 30
0.0
 10
6.546334
 20
6.012462
 30
0.0
 10
6.546241
 20
6.017307
 30
0.0
 10
6.547522
 20
6.033593
 30
0.0
 10
6.553266
 20
6.065757
 30
0.0
 10
6.557700
 20
6.081479
 30
0.0
 10
6.569608
 20
6.111904
 30
0.0
 10
6.577025
 20
6.126460
 30
0.0
 10
6.594640
 20
6.153977
 30
0.0
 10
6.604754
 20
6.166806
 30
0.0
 10
6.627398
 20
6.190358
 30
0.0
 10
6.639821
 20
6.200968
 30
0.0
 10
6.666625
 20
6.219650
 30
0.0
 10
6.680878
 20
6.227632
 30
0.0
 10
6.710812
 20
6.240725
 30
0.0
 10
6.726349
 20
6.245773
 30
0.0
 10
6.758262
 20
6.252775
 30
0.0
 10
6.774485
 20
6.254696
 30
0.0
 10
6.807151
 20
6.255337
 30
0.0
 10
6.823437
 20
6.254055
 30
0.0
 10
6.855601
 20
6.248312
 30
0.0
 10
6.871324
 20
6.243878
 30
0.0
 10
6.901749
 20
6.231969
 30
0.0
 10
6.916304
 20
6.224553
 30
0.0
 10
6.943821
 20
6.206938
 30
0.0
 10
6.956651
 20
6.196824
 30
0.0
 10
6.980203
 20
6.174179
 30
0.0
 10
6.990812
 20
6.161758
 30
0.0
 10
7.009494
 20
6.134953
 30
0.0
 10
7.017476
 20
6.120699
 30
0.0
 10
7.030569
 20
6.090765
 30
0.0
 10
7.035617
 20
6.075229
 30
0.0
 10
7.042619
 20
6.043316
 30
0.0
 10
7.044540
 20
6.027093
 30
0.0
 10
7.045181
 20
5.994427
 30
0.0
 10
7.043899
 20
5.978141
 30
0.0
 10
7.038156
 20
5.945977
 30
0.0
 10
7.033721
 20
5.930254
 30
0.0
 10
7.021813
 20
5.899829
 30
0.0
 10
7.014397
 20
5.885274
 30
0.0
 10
6.996782
 20
5.857757
 30
0.0
 10
6.986668
 20
5.844927
 30
0.0
 10
6.964024
 20
5.821375
 30
0.0
 10
6.951601
 20
5.810766
 30
0.0
 10
6.924797
 20
5.792084
 30
0.0
 10
6.910544
 20
5.784102
 30
0.0
 10
6.880610
 20
5.771009
 30
0.0
 10
6.865073
 20
5.765960
 30
0.0
 10
6.833160
 20
5.758958
 30
0.0
 10
6.816937
 20
5.757038
 30
0.0
 10
6.784271
 20
5.756397
 30
0.0
 10
6.767985
 20
5.757678
 30
0.0
 10
6.735821
 20
5.763422
 30
0.0
 10
6.720098
 20
5.767856
 30
0.0
 10
6.689673
 20
5.779764
 30
0.0
 10
6.675118
 20
5.787181
 30
0.0
 10
6.647601
 20
5.804796
 30
0.0
 10
6.634771
 20
5.814909
 30
0.0
 10
6.611219
 20
5.837554
 30
0.0
 10
6.600610
 20
5.849977
 30
0.0
 10
6.597839
 20
5.853952
 30
0.0
 10
6.242897
 20
5.738625
 30
0.0
 10
6.142547
 20
5.600505
 30
0.0
 10
6.330668
 20
5.539381
 30
0.0
 10
6.349486
 20
5.530539
 30
0.0
 10
6.365531
 20
5.517314
 30
0.0
 10
6.377801
 20
5.500528
 30
0.0
 10
6.385534
 20
5.481227
 30
0.0
 10
6.388248
 20
5.460612
 30
0.0
 10
6.385774
 20
5.439967
 30
0.0
 10
6.378266
 20
5.420577
 30
0.0
 10
6.366192
 20
5.403649
 30
0.0
 10
6.350303
 20
5.390238
 30
0.0
 10
6.331589
 20
5.381177
 30
0.0
 10
6.311213
 20
5.377032
 30
0.0
 10
6.290446
 20
5.378059
 30
0.0
 10
6.279165
 20
5.380871
 30
0.0
 10
6.007711
 20
5.469072
 30
0.0
 10
5.613406
 20
5.340955
 30
0.0
 10
5.513056
 20
5.202835
 30
0.0
 10
5.701177
 20
5.141711
 30
0.0
 10
5.719996
 20
5.132869
 30
0.0
 10
5.736040
 20
5.119643
 30
0.0
 10
5.748310
 20
5.102858
 30
0.0
 10
5.756043
 20
5.083556
 30
0.0
 10
5.758757
 20
5.062942
 30
0.0
 10
5.756284
 20
5.042297
 30
0.0
 10
5.748776
 20
5.022907
 30
0.0
 10
5.736702
 20
5.005979
 30
0.0
 10
5.720813
 20
4.992568
 30
0.0
 10
5.702098
 20
4.983507
 30
0.0
 10
5.681723
 20
4.979361
 30
0.0
 10
5.660956
 20
4.980390
 30
0.0
 10
5.649674
 20
4.983202
 30
0.0
 10
5.378220
 20
5.071403
 30
0.0
 10
4.983916
 20
4.943286
 30
0.0
 10
4.822338
 20
4.720894
 30
0.0
 10
5.083776
 20
4.635948
 30
0.0
 10
5.503832
 20
4.772432
 30
0.0
 10
5.524254
 20
4.776340
 30
0.0
 10
5.545008
 20
4.775071
 30
0.0
 10
5.564801
 20
4.768703
 30
0.0
 10
5.582402
 20
4.757634
 30
0.0
 10
5.596715
 20
4.742551
 30
0.0
 10
5.606849
 20
4.724395
 30
0.0
 10
5.612172
 20
4.704295
 30
0.0
 10
5.612353
 20
4.683504
 30
0.0
 10
5.607382
 20
4.663314
 30
0.0
 10
5.597567
 20
4.644984
 30
0.0
 10
5.583520
 20
4.629654
 30
0.0
 10
5.566115
 20
4.618278
 30
0.0
 10
5.555334
 20
4.613923
 30
0.0
 10
5.218612
 20
4.504515
 30
0.0
 10
5.410803
 20
4.239987
 30
0.0
 10
5.656505
 20
4.160153
 30
0.0
 10
6.050810
 20
4.288270
 30
0.0
 10
6.202662
 20
4.497277
 30
0.0
 10
6.202662
 20
4.938951
 30
0.0
 10
6.205256
 20
4.959581
 30
0.0
 10
6.212877
 20
4.978927
 30
0.0
 10
6.225049
 20
4.995784
 30
0.0
 10
6.241016
 20
5.009103
 30
0.0
 10
6.259783
 20
5.018054
 30
0.0
 10
6.280182
 20
5.022081
 30
0.0
 10
6.300943
 20
5.020933
 30
0.0
 10
6.320773
 20
5.014680
 30
0.0
 10
6.338438
 20
5.003713
 30
0.0
 10
6.352839
 20
4.988714
 30
0.0
 10
6.363078
 20
4.970618
 30
0.0
 10
6.368518
 20
4.950549
 30
0.0
 10
6.369329
 20
4.938951
 30
0.0
 10
6.369329
 20
4.584899
 30
0.0
 10
6.640938
 20
4.673150
 30
0.0
 10
6.640844
 20
4.677995
 30
0.0
 10
6.642126
 20
4.694282
 30
0.0
 10
6.647870
 20
4.726445
 30
0.0
 10
6.652304
 20
4.742168
 30
0.0
 10
6.664212
 20
4.772593
 30
0.0
 10
6.671628
 20
4.787148
 30
0.0
 10
6.689243
 20
4.814666
 30
0.0
 10
6.699357
 20
4.827495
 30
0.0
 10
6.722002
 20
4.851047
 30
0.0
 10
6.734424
 20
4.861656
 30
0.0
 10
6.761229
 20
4.880338
 30
0.0
 10
6.775482
 20
4.888320
 30
0.0
 10
6.805416
 20
4.901414
 30
0.0
 10
6.820952
 20
4.906462
 30
0.0
 10
6.852866
 20
4.913464
 30
0.0
 10
6.869089
 20
4.915384
 30
0.0
 10
6.901755
 20
4.916026
 30
0.0
 10
6.918041
 20
4.914744
 30
0.0
 10
6.950204
 20
4.909000
 30
0.0
 10
6.965927
 20
4.904566
 30
0.0
 10
6.996352
 20
4.892658
 30
0.0
 10
7.010908
 20
4.885241
 30
0.0
 10
7.038425
 20
4.867626
 30
0.0
 10
7.051254
 20
4.857513
 30
0.0
 10
7.074806
 20
4.834868
 30
0.0
 10
7.085416
 20
4.822446
 30
0.0
 10
7.104097
 20
4.795641
 30
0.0
 10
7.112079
 20
4.781388
 30
0.0
 10
7.125173
 20
4.751454
 30
0.0
 10
7.130221
 20
4.735917
 30
0.0
 10
7.137223
 20
4.704004
 30
0.0
 10
7.139143
 20
4.687781
 30
0.0
 10
7.139785
 20
4.655115
 30
0.0
 10
7.138503
 20
4.638829
 30
0.0
 10
7.132759
 20
4.606666
 30
0.0
 10
7.128325
 20
4.590943
 30
0.0
 10
7.116417
 20
4.560518
 30
0.0
 10
7.109000
 20
4.545962
 30
0.0
 10
7.091385
 20
4.518445
 30
0.0
 10
7.081272
 20
4.505616
 30
0.0
 10
7.058627
 20
4.482064
 30
0.0
 10
7.046205
 20
4.471454
 30
0.0
 10
7.019400
 20
4.452773
 30
0.0
 10
7.005147
 20
4.444791
 30
0.0
 10
6.975213
 20
4.431697
 30
0.0
 10
6.959676
 20
4.426649
 30
0.0
 10
6.927763
 20
4.419647
 30
0.0
 10
6.911540
 20
4.417727
 30
0.0
 10
6.878874
 20
4.417085
 30
0.0
 10
6.862589
 20
4.418367
 30
0.0
 10
6.830425
 20
4.424111
 30
0.0
 10
6.814702
 20
4.428545
 30
0.0
 10
6.784277
 20
4.440453
 30
0.0
 10
6.769721
 20
4.447869
 30
0.0
 10
6.742204
 20
4.465484
 30
0.0
 10
6.729375
 20
4.475598
 30
0.0
 10
6.705823
 20
4.498243
 30
0.0
 10
6.695214
 20
4.510665
 30
0.0
 10
6.692442
 20
4.514641
 30
0.0
 10
6.337500
 20
4.399313
 30
0.0
 10
6.237151
 20
4.261194
 30
0.0
 10
6.425271
 20
4.200070
 30
0.0
 10
6.444090
 20
4.191228
 30
0.0
 10
6.460134
 20
4.178002
 30
0.0
 10
6.472405
 20
4.161216
 30
0.0
 10
6.480138
 20
4.141915
 30
0.0
 10
6.482852
 20
4.121300
 30
0.0
 10
6.480378
 20
4.100655
 30
0.0
 10
6.472870
 20
4.081266
 30
0.0
 10
6.460796
 20
4.064338
 30
0.0
 10
6.444907
 20
4.050926
 30
0.0
 10
6.426192
 20
4.041866
 30
0.0
 10
6.405817
 20
4.037720
 30
0.0
 10
6.385050
 20
4.038748
 30
0.0
 10
6.373768
 20
4.041561
 30
0.0
 10
6.102314
 20
4.129762
 30
0.0
 10
5.791343
 20
4.028721
 30
0.0
 10
5.983534
 20
3.764193
 30
0.0
 10
6.229236
 20
3.684359
 30
0.0
 10
6.649293
 20
3.820844
 30
0.0
 10
6.669715
 20
3.824752
 30
0.0
 10
6.690469
 20
3.823482
 30
0.0
 10
6.710262
 20
3.817115
 30
0.0
 10
6.727863
 20
3.806045
 30
0.0
 10
6.742176
 20
3.790963
 30
0.0
 10
6.752309
 20
3.772807
 30
0.0
 10
6.757632
 20
3.752707
 30
0.0
 10
6.757814
 20
3.731915
 30
0.0
 10
6.752842
 20
3.711726
 30
0.0
 10
6.743028
 20
3.693395
 30
0.0
 10
6.728980
 20
3.678065
 30
0.0
 10
6.711575
 20
3.666690
 30
0.0
 10
6.700795
 20
3.662334
 30
0.0
 10
6.364072
 20
3.552926
 30
0.0
 10
6.531936
 20
3.321882
 30
0.0
 10
6.536515
 20
3.323470
 30
0.0
 10
6.552399
 20
3.327283
 30
0.0
 10
6.584763
 20
3.331760
 30
0.0
 10
6.601087
 20
3.332402
 30
0.0
 10
6.633703
 20
3.330478
 30
0.0
 10
6.649838
 20
3.327923
 30
0.0
 10
6.681452
 20
3.319673
 30
0.0
 10
6.696778
 20
3.314019
 30
0.0
 10
6.726175
 20
3.299760
 30
0.0
 10
6.740104
 20
3.291225
 30
0.0
 10
6.766154
 20
3.271505
 30
0.0
 10
6.778150
 20
3.260416
 30
0.0
 10
6.799853
 20
3.235993
 30
0.0
 10
6.809455
 20
3.222777
 30
0.0
 10
6.825976
 20
3.194589
 30
0.0
 10
6.832816
 20
3.179753
 30
0.0
 10
6.843520
 20
3.148884
 30
0.0
 10
6.847334
 20
3.133000
 30
0.0
 10
6.851810
 20
3.100636
 30
0.0
 10
6.852452
 20
3.084312
 30
0.0
 10
6.850528
 20
3.051696
 30
0.0
 10
6.847973
 20
3.035561
 30
0.0
 10
6.839723
 20
3.003947
 30
0.0
 10
6.834069
 20
2.988621
 30
0.0
 10
6.819810
 20
2.959224
 30
0.0
 10
6.811275
 20
2.945295
 30
0.0
 10
6.791555
 20
2.919245
 30
0.0
 10
6.780466
 20
2.907249
 30
0.0
 10
6.756043
 20
2.885546
 30
0.0
 10
6.742827
 20
2.875944
 30
0.0
 10
6.714639
 20
2.859423
 30
0.0
 10
6.699804
 20
2.852583
 30
0.0
 10
6.668935
 20
2.841879
 30
0.0
 10
6.653050
 20
2.838066
 30
0.0
 10
6.620686
 20
2.833589
 30
0.0
 10
6.604362
 20
2.832947
 30
0.0
 10
6.571746
 20
2.834871
 30
0.0
 10
6.555611
 20
2.837426
 30
0.0
 10
6.523998
 20
2.845676
 30
0.0
 10
6.508671
 20
2.851330
 30
0.0
 10
6.479274
 20
2.865589
 30
0.0
 10
6.465345
 20
2.874124
 30
0.0
 10
6.439295
 20
2.893844
 30
0.0
 10
6.427299
 20
2.904933
 30
0.0
 10
6.405596
 20
2.929356
 30
0.0
 10
6.395994
 20
2.942572
 30
0.0
 10
6.379473
 20
2.970760
 30
0.0
 10
6.372634
 20
2.985595
 30
0.0
 10
6.361929
 20
3.016464
 30
0.0
 10
6.358116
 20
3.032349
 30
0.0
 10
6.353639
 20
3.064713
 30
0.0
 10
6.352997
 20
3.081037
 30
0.0
 10
6.354921
 20
3.113653
 30
0.0
 10
6.357477
 20
3.129788
 30
0.0
 10
6.365726
 20
3.161401
 30
0.0
 10
6.371380
 20
3.176728
 30
0.0
 10
6.385639
 20
3.206125
 30
0.0
 10
6.394174
 20
3.220054
 30
0.0
 10
6.397099
 20
3.223918
 30
0.0
 10
6.177733
 20
3.525850
 30
0.0
 10
6.015364
 20
3.578606
 30
0.0
 10
6.015364
 20
3.380805
 30
0.0
 10
6.012770
 20
3.360175
 30
0.0
 10
6.005150
 20
3.340829
 30
0.0
 10
5.992977
 20
3.323972
 30
0.0
 10
5.977010
 20
3.310653
 30
0.0
 10
5.958243
 20
3.301702
 30
0.0
 10
5.937844
 20
3.297675
 30
0.0
 10
5.917083
 20
3.298823
 30
0.0
 10
5.897253
 20
3.305076
 30
0.0
 10
5.879588
 20
3.316043
 30
0.0
 10
5.865188
 20
3.331041
 30
0.0
 10
5.854949
 20
3.349138
 30
0.0
 10
5.849509
 20
3.369206
 30
0.0
 10
5.848697
 20
3.380805
 30
0.0
 10
5.848697
 20
3.666228
 30
0.0
 10
5.605000
 20
4.001644
 30
0.0
 10
5.442631
 20
4.054401
 30
0.0
 10
5.442631
 20
3.856600
 30
0.0
 10
5.440037
 20
3.835969
 30
0.0
 10
5.432417
 20
3.816624
 30
0.0
 10
5.420244
 20
3.799767
 30
0.0
 10
5.404277
 20
3.786448
 30
0.0
 10
5.385510
 20
3.777496
 30
0.0
 10
5.365111
 20
3.773469
 30
0.0
 10
5.344351
 20
3.774618
 30
0.0
 10
5.324520
 20
3.780870
 30
0.0
 10
5.306855
 20
3.791837
 30
0.0
 10
5.292455
 20
3.806836
 30
0.0
 10
5.282216
 20
3.824933
 30
0.0
 10
5.276776
 20
3.845001
 30
0.0
 10
5.275964
 20
3.856600
 30
0.0
 10
5.275964
 20
4.142023
 30
0.0
 10
5.032271
 20
4.477439
 30
0.0
 10
4.770833
 20
4.562385
 30
0.0
 10
4.770833
 20
4.287493
 30
0.0
 10
5.030442
 20
3.930172
 30
0.0
 10
5.040470
 20
3.911957
 30
0.0
 10
5.045676
 20
3.891827
 30
0.0
 10
5.045739
 20
3.871034
 30
0.0
 10
5.040650
 20
3.850874
 30
0.0
 10
5.030728
 20
3.832601
 30
0.0
 10
5.016592
 20
3.817353
 30
0.0
 10
4.999121
 20
3.806079
 30
0.0
 10
4.979403
 20
3.799482
 30
0.0
 10
4.958666
 20
3.797971
 30
0.0
 10
4.938199
 20
3.801641
 30
0.0
 10
4.919279
 20
3.810263
 30
0.0
 10
4.903082
 20
3.823301
 30
0.0
 10
4.895608
 20
3.832208
 30
0.0
 10
4.687500
 20
4.118642
 30
0.0
 10
4.495309
 20
3.854113
 30
0.0
 10
4.495309
 20
3.595767
 30
0.0
 10
4.739003
 20
3.260351
 30
0.0
 10
4.984705
 20
3.180517
 30
0.0
 10
5.404761
 20
3.317002
 30
0.0
 10
5.425184
 20
3.320910
 30
0.0
 10
5.445937
 20
3.319641
 30
0.0
 10
5.465731
 20
3.313273
 30
0.0
 10
5.483332
 20
3.302203
 30
0.0
 10
5.497645
 20
3.287121
 30
0.0
 10
5.507778
 20
3.268965
 30
0.0
 10
5.513101
 20
3.248865
 30
0.0
 10
5.513282
 20
3.228073
 30
0.0
 10
5.508311
 20
3.207884
 30
0.0
 10
5.498496
 20
3.189553
 30
0.0
 10
5.484449
 20
3.174223
 30
0.0
 10
5.467044
 20
3.162848
 30
0.0
 10
5.456264
 20
3.158493
 30
0.0
 10
5.119541
 20
3.049084
 30
0.0
 10
5.287404
 20
2.818040
 30
0.0
 10
5.291983
 20
2.819628
 30
0.0
 10
5.307868
 20
2.823442
 30
0.0
 10
5.340232
 20
2.827918
 30
0.0
 10
5.356556
 20
2.828560
 30
0.0
 10
5.389172
 20
2.826636
 30
0.0
 10
5.405307
 20
2.824081
 30
0.0
 10
5.436921
 20
2.815831
 30
0.0
 10
5.452247
 20
2.810177
 30
0.0
 10
5.481644
 20
2.795918
 30
0.0
 10
5.495573
 20
2.787383
 30
0.0
 10
5.521623
 20
2.767663
 30
0.0
 10
5.533619
 20
2.756574
 30
0.0
 10
5.555322
 20
2.732151
 30
0.0
 10
5.564924
 20
2.718935
 30
0.0
 10
5.581445
 20
2.690747
 30
0.0
 10
5.588284
 20
2.675912
 30
0.0
 10
5.598989
 20
2.645043
 30
0.0
 10
5.602802
 20
2.629158
 30
0.0
 10
5.607279
 20
2.596794
 30
0.0
 10
5.607921
 20
2.580470
 30
0.0
 10
5.605997
 20
2.547854
 30
0.0
 10
5.603442
 20
2.531719
 30
0.0
 10
5.595192
 20
2.500106
 30
0.0
 10
5.589538
 20
2.484779
 30
0.0
 10
5.575279
 20
2.455382
 30
0.0
 10
5.566744
 20
2.441453
 30
0.0
 10
5.547024
 20
2.415403
 30
0.0
 10
5.535935
 20
2.403407
 30
0.0
 10
5.511512
 20
2.381704
 30
0.0
 10
5.498296
 20
2.372102
 30
0.0
 10
5.470108
 20
2.355581
 30
0.0
 10
5.455272
 20
2.348742
 30
0.0
 10
5.424403
 20
2.338037
 30
0.0
 10
5.408519
 20
2.334224
 30
0.0
 10
5.376155
 20
2.329747
 30
0.0
 10
5.359831
 20
2.329106
 30
0.0
 10
5.327215
 20
2.331029
 30
0.0
 10
5.311080
 20
2.333585
 30
0.0
 10
5.279466
 20
2.341834
 30
0.0
 10
5.264140
 20
2.347488
 30
0.0
 10
5.234743
 20
2.361747
 30
0.0
 10
5.220814
 20
2.370282
 30
0.0
 10
5.194764
 20
2.390002
 30
0.0
 10
5.182768
 20
2.401091
 30
0.0
 10
5.161065
 20
2.425514
 30
0.0
 10
5.151463
 20
2.438730
 30
0.0
 10
5.134942
 20
2.466918
 30
0.0
 10
5.128103
 20
2.481753
 30
0.0
 10
5.117398
 20
2.512622
 30
0.0
 10
5.113585
 20
2.528507
 30
0.0
 10
5.109108
 20
2.560871
 30
0.0
 10
5.108466
 20
2.577195
 30
0.0
 10
5.110390
 20
2.609811
 30
0.0
 10
5.112945
 20
2.625946
 30
0.0
 10
5.121195
 20
2.657560
 30
0.0
 10
5.126849
 20
2.672886
 30
0.0
 10
5.141108
 20
2.702283
 30
0.0
 10
5.149643
 20
2.716212
 30
0.0
 10
5.152568
 20
2.720076
 30
0.0
 10
4.933202
 20
3.022008
 30
0.0
 10
4.770833
 20
3.074765
 30
0.0
 10
4.770833
 20
2.876963
 30
0.0
 10
4.768239
 20
2.856333
 30
0.0
 10
4.760619
 20
2.836987
 30
0.0
 10
4.748446
 20
2.820130
 30
0.0
 10
4.732479
 20
2.806811
 30
0.0
 10
4.713712
 20
2.797860
 30
0.0
 10
4.693313
 20
2.793833
 30
0.0
 10
4.672553
 20
2.794981
 30
0.0
 10
4.652722
 20
2.801234
 30
0.0
 10
4.635057
 20
2.812201
 30
0.0
 10
4.620657
 20
2.827199
 30
0.0
 10
4.610418
 20
2.845296
 30
0.0
 10
4.604978
 20
2.865365
 30
0.0
 10
4.604167
 20
2.876963
 30
0.0
 10
4.604167
 20
3.162387
 30
0.0
 10
4.411976
 20
3.426915
 30
0.0
 10
4.219785
 20
3.162387
 30
0.0
 10
4.219785
 20
2.904040
 30
0.0
 10
4.479394
 20
2.546719
 30
0.0
 10
4.489421
 20
2.528504
 30
0.0
 10
4.494627
 20
2.508374
 30
0.0
 10
4.494690
 20
2.487581
 30
0.0
 10
4.489601
 20
2.467421
 30
0.0
 10
4.479680
 20
2.449148
 30
0.0
 10
4.465544
 20
2.433900
 30
0.0
 10
4.448073
 20
2.422626
 30
0.0
 10
4.428354
 20
2.416028
 30
0.0
 10
4.407617
 20
2.414517
 30
0.0
 10
4.387151
 20
2.418187
 30
0.0
 10
4.368230
 20
2.426810
 30
0.0
 10
4.352033
 20
2.439848
 30
0.0
 10
4.344559
 20
2.448754
 30
0.0
 10
4.136453
 20
2.735188
 30
0.0
 10
3.968590
 20
2.504144
 30
0.0
 10
3.971515
 20
2.500280
 30
0.0
 10
3.980050
 20
2.486351
 30
0.0
 10
3.994309
 20
2.456954
 30
0.0
 10
3.999963
 20
2.441628
 30
0.0
 10
4.008213
 20
2.410014
 30
0.0
 10
4.010768
 20
2.393879
 30
0.0
 10
4.012692
 20
2.361263
 30
0.0
 10
4.012050
 20
2.344940
 30
0.0
 10
4.007574
 20
2.312575
 30
0.0
 10
4.003760
 20
2.296690
 30
0.0
 10
3.993056
 20
2.265821
 30
0.0
 10
3.986216
 20
2.250986
 30
0.0
 10
3.969695
 20
2.222798
 30
0.0
 10
3.960093
 20
2.209582
 30
0.0
 10
3.938390
 20
2.185159
 30
0.0
 10
3.926394
 20
2.174070
 30
0.0
 10
3.900344
 20
2.154350
 30
0.0
 10
3.886415
 20
2.145815
 30
0.0
 10
3.857018
 20
2.131556
 30
0.0
 10
3.841692
 20
2.125902
 30
0.0
 10
3.810078
 20
2.117652
 30
0.0
 10
3.793943
 20
2.115097
 30
0.0
 10
3.761327
 20
2.113173
 30
0.0
 10
3.745003
 20
2.113815
 30
0.0
 10
3.712639
 20
2.118292
 30
0.0
 10
3.696755
 20
2.122105
 30
0.0
 10
3.665886
 20
2.132809
 30
0.0
 10
3.651050
 20
2.139649
 30
0.0
 10
3.622862
 20
2.156170
 30
0.0
 10
3.609646
 20
2.165772
 30
0.0
 10
3.585223
 20
2.187475
 30
0.0
 10
3.574134
 20
2.199471
 30
0.0
 10
3.554414
 20
2.225521
 30
0.0
 10
3.545879
 20
2.239450
 30
0.0
 10
3.531620
 20
2.268847
 30
0.0
 10
3.525966
 20
2.284173
 30
0.0
 10
3.517716
 20
2.315787
 30
0.0
 10
3.515161
 20
2.331922
 30
0.0
 10
3.513237
 20
2.364538
 30
0.0
 10
3.513879
 20
2.380862
 30
0.0
 10
3.518356
 20
2.413226
 30
0.0
 10
3.522169
 20
2.429111
 30
0.0
 10
3.532874
 20
2.459980
 30
0.0
 10
3.539713
 20
2.474815
 30
0.0
 10
3.556234
 20
2.503003
 30
0.0
 10
3.565836
 20
2.516219
 30
0.0
 10
3.587539
 20
2.540642
 30
0.0
 10
3.599535
 20
2.551731
 30
0.0
 10
3.625585
 20
2.571451
 30
0.0
 10
3.639514
 20
2.579986
 30
0.0
 10
3.668911
 20
2.594245
 30
0.0
 10
3.684238
 20
2.599899
 30
0.0
 10
3.715851
 20
2.608149
 30
0.0
 10
3.731986
 20
2.610704
 30
0.0
 10
3.764602
 20
2.612627
 30
0.0
 10
3.780926
 20
2.611986
 30
0.0
 10
3.813290
 20
2.607509
 30
0.0
 10
3.829175
 20
2.603696
 30
0.0
 10
3.833754
 20
2.602108
 30
0.0
 10
4.053120
 20
2.904040
 30
0.0
 10
4.053120
 20
3.074765
 30
0.0
 10
3.864999
 20
3.013641
 30
0.0
 10
3.844577
 20
3.009733
 30
0.0
 10
3.823824
 20
3.011002
 30
0.0
 10
3.804030
 20
3.017370
 30
0.0
 10
3.786429
 20
3.028439
 30
0.0
 10
3.772116
 20
3.043522
 30
0.0
 10
3.761983
 20
3.061678
 30
0.0
 10
3.756660
 20
3.081777
 30
0.0
 10
3.756478
 20
3.102569
 30
0.0
 10
3.761450
 20
3.122759
 30
0.0
 10
3.771264
 20
3.141089
 30
0.0
 10
3.785312
 20
3.156419
 30
0.0
 10
3.802717
 20
3.167794
 30
0.0
 10
3.813497
 20
3.172150
 30
0.0
 10
4.084951
 20
3.260351
 30
0.0
 10
4.328644
 20
3.595767
 30
0.0
 10
4.328644
 20
3.766491
 30
0.0
 10
4.140524
 20
3.705367
 30
0.0
 10
4.120102
 20
3.701459
 30
0.0
 10
4.099348
 20
3.702729
 30
0.0
 10
4.079555
 20
3.709096
 30
0.0
 10
4.061954
 20
3.720166
 30
0.0
 10
4.047641
 20
3.735248
 30
0.0
 10
4.037508
 20
3.753404
 30
0.0
 10
4.032184
 20
3.773504
 30
0.0
 10
4.032003
 20
3.794296
 30
0.0
 10
4.036974
 20
3.814486
 30
0.0
 10
4.046789
 20
3.832816
 30
0.0
 10
4.060836
 20
3.848146
 30
0.0
 10
4.078241
 20
3.859521
 30
0.0
 10
4.089022
 20
3.863877
 30
0.0
 10
4.360475
 20
3.952077
 30
0.0
 10
4.604167
 20
4.287493
 30
0.0
 10
4.604167
 20
4.562385
 30
0.0
 10
4.342729
 20
4.477439
 30
0.0
 10
4.083120
 20
4.120118
 30
0.0
 10
4.068895
 20
4.104952
 30
0.0
 10
4.051359
 20
4.093780
 30
0.0
 10
4.031603
 20
4.087297
 30
0.0
 10
4.010857
 20
4.085907
 30
0.0
 10
3.990412
 20
4.089696
 30
0.0
 10
3.971542
 20
4.098429
 30
0.0
 10
3.955422
 20
4.111561
 30
0.0
 10
3.943054
 20
4.128275
 30
0.0
 10
3.935208
 20
4.147531
 30
0.0
 10
3.932374
 20
4.168129
 30
0.0
 10
3.934728
 20
4.188788
 30
0.0
 10
3.942123
 20
4.208221
 30
0.0
 10
3.948284
 20
4.218082
 30
0.0
 10
4.156390
 20
4.504515
 30
0.0
 10
3.845419
 20
4.605556
 30
0.0
 10
3.599716
 20
4.525723
 30
0.0
 10
3.356023
 20
4.190307
 30
0.0
 10
3.356023
 20
3.931960
 30
0.0
 10
3.615632
 20
3.574639
 30
0.0
 10
3.625659
 20
3.556424
 30
0.0
 10
3.630865
 20
3.536294
 30
0.0
 10
3.630928
 20
3.515501
 30
0.0
 10
3.625839
 20
3.495341
 30
0.0
 10
3.615918
 20
3.477068
 30
0.0
 10
3.601781
 20
3.461820
 30
0.0
 10
3.584311
 20
3.450546
 30
0.0
 10
3.564592
 20
3.443949
 30
0.0
 10
3.543855
 20
3.442438
 30
0.0
 10
3.523389
 20
3.446108
 30
0.0
 10
3.504468
 20
3.454730
 30
0.0
 10
3.488271
 20
3.467768
 30
0.0
 10
3.480797
 20
3.476675
 30
0.0
 10
3.272691
 20
3.763108
 30
0.0
 10
3.104828
 20
3.532064
 30
0.0
 10
3.107753
 20
3.528200
 30
0.0
 10
3.116288
 20
3.514271
 30
0.0
 10
3.130547
 20
3.484874
 30
0.0
 10
3.136201
 20
3.469548
 30
0.0
 10
3.144451
 20
3.437934
 30
0.0
 10
3.147006
 20
3.421799
 30
0.0
 10
3.148930
 20
3.389183
 30
0.0
 10
3.148288
 20
3.372859
 30
0.0
 10
3.143811
 20
3.340495
 30
0.0
 10
3.139998
 20
3.324610
 30
0.0
 10
3.129293
 20
3.293741
 30
0.0
 10
3.122454
 20
3.278906
 30
0.0
 10
3.105933
 20
3.250718
 30
0.0
 10
3.096331
 20
3.237502
 30
0.0
 10
3.074628
 20
3.213079
 30
0.0
 10
3.062632
 20
3.201990
 30
0.0
 10
3.036582
 20
3.182270
 30
0.0
 10
3.022653
 20
3.173735
 30
0.0
 10
2.993256
 20
3.159476
 30
0.0
 10
2.977930
 20
3.153822
 30
0.0
 10
2.946316
 20
3.145573
 30
0.0
 10
2.930181
 20
3.143017
 30
0.0
 10
2.897565
 20
3.141094
 30
0.0
 10
2.881241
 20
3.141735
 30
0.0
 10
2.848877
 20
3.146212
 30
0.0
 10
2.832993
 20
3.150025
 30
0.0
 10
2.802124
 20
3.160730
 30
0.0
 10
2.787288
 20
3.167569
 30
0.0
 10
2.759100
 20
3.184090
 30
0.0
 10
2.745884
 20
3.193692
 30
0.0
 10
2.721461
 20
3.215395
 30
0.0
 10
2.710372
 20
3.227391
 30
0.0
 10
2.690652
 20
3.253441
 30
0.0
 10
2.682117
 20
3.267370
 30
0.0
 10
2.667858
 20
3.296767
 30
0.0
 10
2.662204
 20
3.312094
 30
0.0
 10
2.653954
 20
3.343707
 30
0.0
 10
2.651399
 20
3.359842
 30
0.0
 10
2.649475
 20
3.392458
 30
0.0
 10
2.650117
 20
3.408782
 30
0.0
 10
2.654594
 20
3.441146
 30
0.0
 10
2.658407
 20
3.457031
 30
0.0
 10
2.669112
 20
3.487900
 30
0.0
 10
2.675951
 20
3.502736
 30
0.0
 10
2.692472
 20
3.530923
 30
0.0
 10
2.702074
 20
3.544139
 30
0.0
 10
2.723777
 20
3.568562
 30
0.0
 10
2.735773
 20
3.579651
 30
0.0
 10
2.761823
 20
3.599371
 30
0.0
 10
2.775752
 20
3.607906
 30
0.0
 10
2.805149
 20
3.622165
 30
0.0
 10
2.820476
 20
3.627819
 30
0.0
 10
2.852089
 20
3.636069
 30
0.0
 10
2.868224
 20
3.638624
 30
0.0
 10
2.900840
 20
3.640548
 30
0.0
 10
2.917164
 20
3.639906
 30
0.0
 10
2.949528
 20
3.635430
 30
0.0
 10
2.965413
 20
3.631616
 30
0.0
 10
2.969992
 20
3.630028
 30
0.0
 10
3.189358
 20
3.931960
 30
0.0
 10
3.189358
 20
4.102685
 30
0.0
 10
3.001237
 20
4.041561
 30
0.0
 10
2.980815
 20
4.037653
 30
0.0
 10
2.960062
 20
4.038922
 30
0.0
 10
2.940268
 20
4.045290
 30
0.0
 10
2.922667
 20
4.056359
 30
0.0
 10
2.908354
 20
4.071442
 30
0.0
 10
2.898221
 20
4.089598
 30
0.0
 10
2.892898
 20
4.109698
 30
0.0
 10
2.892716
 20
4.130489
 30
0.0
 10
2.897688
 20
4.150679
 30
0.0
 10
2.907503
 20
4.169009
 30
0.0
 10
2.921550
 20
4.184339
 30
0.0
 10
2.938955
 20
4.195715
 30
0.0
 10
2.949735
 20
4.200070
 30
0.0
 10
3.221189
 20
4.288271
 30
0.0
 10
3.413380
 20
4.552799
 30
0.0
 10
3.102408
 20
4.653840
 30
0.0
 10
2.856706
 20
4.574007
 30
0.0
 10
2.597097
 20
4.216685
 30
0.0
 10
2.582872
 20
4.201520
 30
0.0
 10
2.565336
 20
4.190348
 30
0.0
 10
2.545580
 20
4.183865
 30
0.0
 10
2.524834
 20
4.182475
 30
0.0
 10
2.504389
 20
4.186264
 30
0.0
 10
2.485519
 20
4.194996
 30
0.0
 10
2.469398
 20
4.208129
 30
0.0
 10
2.457030
 20
4.224843
 30
0.0
 10
2.449185
 20
4.244099
 30
0.0
 10
2.446351
 20
4.264697
 30
0.0
 10
2.448705
 20
4.285356
 30
0.0
 10
2.456099
 20
4.304789
 30
0.0
 10
2.462261
 20
4.314649
 30
0.0
 10
2.670367
 20
4.601083
 30
0.0
 10
2.398758
 20
4.689334
 30
0.0
 10
2.395987
 20
4.685358
 30
0.0
 10
2.385377
 20
4.672936
 30
0.0
 10
2.361825
 20
4.650291
 30
0.0
 10
2.348996
 20
4.640178
 30
0.0
 10
2.321479
 20
4.622563
 30
0.0
 10
2.306923
 20
4.615146
 30
0.0
 10
2.276498
 20
4.603238
 30
0.0
 10
2.260775
 20
4.598804
 30
0.0
 10
2.228612
 20
4.593060
 30
0.0
 10
2.212326
 20
4.591778
 30
0.0
 10
2.179660
 20
4.592420
 30
0.0
 10
2.163437
 20
4.594340
 30
0.0
 10
2.131524
 20
4.601342
 30
0.0
 10
2.115987
 20
4.606390
 30
0.0
 10
2.086053
 20
4.619484
 30
0.0
 10
2.071800
 20
4.627466
 30
0.0
 10
2.044995
 20
4.646148
 30
0.0
 10
2.032573
 20
4.656757
 30
0.0
 10
2.009929
 20
4.680309
 30
0.0
 10
1.999815
 20
4.693138
 30
0.0
 10
1.982200
 20
4.720656
 30
0.0
 10
1.974783
 20
4.735211
 30
0.0
 10
1.962875
 20
4.765636
 30
0.0
 10
1.958441
 20
4.781359
 30
0.0
 10
1.952697
 20
4.813523
 30
0.0
 10
1.951416
 20
4.829808
 30
0.0
 10
1.952057
 20
4.862474
 30
0.0
 10
1.953977
 20
4.878698
 30
0.0
 10
1.960979
 20
4.910611
 30
0.0
 10
1.966028
 20
4.926147
 30
0.0
 10
1.979121
 20
4.956081
 30
0.0
 10
1.987103
 20
4.970335
 30
0.0
 10
2.005785
 20
4.997139
 30
0.0
 10
2.016394
 20
5.009561
 30
0.0
 10
2.039946
 20
5.032206
 30
0.0
 10
2.052776
 20
5.042320
 30
0.0
 10
2.080293
 20
5.059935
 30
0.0
 10
2.094848
 20
5.067351
 30
0.0
 10
2.125273
 20
5.079259
 30
0.0
 10
2.140996
 20
5.083694
 30
0.0
 10
2.173160
 20
5.089437
 30
0.0
 10
2.189446
 20
5.090719
 30
0.0
 10
2.222112
 20
5.090077
 30
0.0
 10
2.238335
 20
5.088157
 30
0.0
 10
2.270248
 20
5.081155
 30
0.0
 10
2.285785
 20
5.076107
 30
0.0
 10
2.315719
 20
5.063014
 30
0.0
 10
2.329972
 20
5.055031
 30
0.0
 10
2.356776
 20
5.036350
 30
0.0
 10
2.369198
 20
5.025740
 30
0.0
 10
2.391843
 20
5.002188
 30
0.0
 10
2.401957
 20
4.989359
 30
0.0
 10
2.419572
 20
4.961842
 30
0.0
 10
2.426988
 20
4.947286
 30
0.0
 10
2.438896
 20
4.916861
 30
0.0
 10
2.443331
 20
4.901138
 30
0.0
 10
2.449074
 20
4.868975
 30
0.0
 10
2.450356
 20
4.852689
 30
0.0
 10
2.450262
 20
4.847844
 30
0.0
 10
2.805204
 20
4.732516
 30
0.0
 10
2.967574
 20
4.785273
 30
0.0
 10
2.851309
 20
4.945298
 30
0.0
 10
2.841281
 20
4.963512
 30
0.0
 10
2.836075
 20
4.983643
 30
0.0
 10
2.836013
 20
5.004435
 30
0.0
 10
2.841101
 20
5.024596
 30
0.0
 10
2.851023
 20
5.042868
 30
0.0
 10
2.865159
 20
5.058116
 30
0.0
 10
2.882630
 20
5.069390
 30
0.0
 10
2.902348
 20
5.075988
 30
0.0
 10
2.923086
 20
5.077499
 30
0.0
 10
2.943552
 20
5.073829
 30
0.0
 10
2.962472
 20
5.065206
 30
0.0
 10
2.978669
 20
5.052168
 30
0.0
 10
2.986143
 20
5.043262
 30
0.0
 10
3.153911
 20
4.812349
 30
0.0
 10
3.548216
 20
4.684232
 30
0.0
 10
3.710584
 20
4.736989
 30
0.0
 10
3.594320
 20
4.897014
 30
0.0
 10
3.584292
 20
4.915228
 30
0.0
 10
3.579086
 20
4.935359
 30
0.0
 10
3.579024
 20
4.956151
 30
0.0
 10
3.584112
 20
4.976312
 30
0.0
 10
3.594034
 20
4.994584
 30
0.0
 10
3.608170
 20
5.009833
 30
0.0
 10
3.625641
 20
5.021106
 30
0.0
 10
3.645359
 20
5.027704
 30
0.0
 10
3.666096
 20
5.029215
 30
0.0
 10
3.686563
 20
5.025545
 30
0.0
 10
3.705483
 20
5.016923
 30
0.0
 10
3.721680
 20
5.003884
 30
0.0
 10
3.729154
 20
4.994978
 30
0.0
 10
3.896922
 20
4.764065
 30
0.0
 10
4.291226
 20
4.635948
 30
0.0
 10
4.552664
 20
4.720894
 30
0.0
 10
4.391086
 20
4.943286
 30
0.0
 10
3.971030
 20
5.079771
 30
0.0
 10
3.952211
 20
5.088613
 30
0.0
 10
3.936167
 20
5.101839
 30
0.0
 10
3.923897
 20
5.118624
 30
0.0
 10
3.916164
 20
5.137926
 30
0.0
 10
3.913450
 20
5.158540
 30
0.0
 10
3.915924
 20
5.179185
 30
0.0
 10
3.923431
 20
5.198575
 30
0.0
 10
3.935506
 20
5.215503
 30
0.0
 10
3.951395
 20
5.228914
 30
0.0
 10
3.970109
 20
5.237975
 30
0.0
 10
3.990484
 20
5.242121
 30
0.0
 10
4.011252
 20
5.241093
 30
0.0
 10
4.022533
 20
5.238281
 30
0.0
 10
4.359256
 20
5.128873
 30
0.0
 10
4.359256
 20
5.455848
 30
0.0
 10
4.207404
 20
5.664855
 30
0.0
 10
3.813099
 20
5.792972
 30
0.0
 10
3.567396
 20
5.713138
 30
0.0
 10
3.307787
 20
5.355817
 30
0.0
 10
3.293563
 20
5.340652
 30
0.0
 10
3.276026
 20
5.329480
 30
0.0
 10
3.256270
 20
5.322997
 30
0.0
 10
3.235524
 20
5.321607
 30
0.0
 10
3.215080
 20
5.325396
 30
0.0
 10
3.196210
 20
5.334128
 30
0.0
 10
3.180089
 20
5.347260
 30
0.0
 10
3.167721
 20
5.363975
 30
0.0
 10
3.159876
 20
5.383230
 30
0.0
 10
3.157042
 20
5.403829
 30
0.0
 10
3.159395
 20
5.424488
 30
0.0
 10
3.166790
 20
5.443921
 30
0.0
 10
3.172951
 20
5.453781
 30
0.0
 10
3.381057
 20
5.740215
 30
0.0
 10
3.109449
 20
5.828466
 30
0.0
 10
3.106678
 20
5.824490
 30
0.0
 10
3.096068
 20
5.812068
 30
0.0
 10
3.072516
 20
5.789423
 30
0.0
 10
3.059687
 20
5.779309
 30
0.0
 10
3.032169
 20
5.761695
 30
0.0
 10
3.017614
 20
5.754278
 30
0.0
 10
2.987189
 20
5.742370
 30
0.0
 10
2.971466
 20
5.737936
 30
0.0
 10
2.939303
 20
5.732192
 30
0.0
 10
2.923017
 20
5.730910
 30
0.0
 10
2.890351
 20
5.731552
 30
0.0
 10
2.874128
 20
5.733472
 30
0.0
 10
2.842214
 20
5.740474
 30
0.0
 10
2.826678
 20
5.745522
 30
0.0
 10
2.796744
 20
5.758616
 30
0.0
 10
2.782491
 20
5.766598
 30
0.0
 10
2.755686
 20
5.785280
 30
0.0
 10
2.743264
 20
5.795889
 30
0.0
 10
2.720619
 20
5.819441
 30
0.0
 10
2.710506
 20
5.832270
 30
0.0
 10
2.692891
 20
5.859787
 30
0.0
 10
2.685474
 20
5.874343
 30
0.0
 10
2.673566
 20
5.904768
 30
0.0
 10
2.669132
 20
5.920491
 30
0.0
 10
2.663388
 20
5.952655
 30
0.0
 10
2.662106
 20
5.968940
 30
0.0
 10
2.662748
 20
6.001606
 30
0.0
 10
2.664668
 20
6.017829
 30
0.0
 10
2.671670
 20
6.049743
 30
0.0
 10
2.676718
 20
6.065279
 30
0.0
 10
2.689812
 20
6.095213
 30
0.0
 10
2.697794
 20
6.109466
 30
0.0
 10
2.716476
 20
6.136271
 30
0.0
 10
2.727085
 20
6.148693
 30
0.0
 10
2.750637
 20
6.171338
 30
0.0
 10
2.763466
 20
6.181451
 30
0.0
 10
2.790983
 20
6.199066
 30
0.0
 10
2.805539
 20
6.206483
 30
0.0
 10
2.835964
 20
6.218391
 30
0.0
 10
2.851687
 20
6.222825
 30
0.0
 10
2.883850
 20
6.228569
 30
0.0
 10
2.900136
 20
6.229851
 30
0.0
 10
2.932802
 20
6.229209
 30
0.0
 10
2.949025
 20
6.227289
 30
0.0
 10
2.980939
 20
6.220287
 30
0.0
 10
2.996475
 20
6.215239
 30
0.0
 10
3.026409
 20
6.202145
 30
0.0
 10
3.040663
 20
6.194163
 30
0.0
 10
3.067467
 20
6.175481
 30
0.0
 10
3.079889
 20
6.164872
 30
0.0
 10
3.102534
 20
6.141320
 30
0.0
 10
3.112648
 20
6.128491
 30
0.0
 10
3.130263
 20
6.100974
 30
0.0
 10
3.137679
 20
6.086418
 30
0.0
 10
3.149587
 20
6.055993
 30
0.0
 10
3.154021
 20
6.040270
 30
0.0
 10
3.159765
 20
6.008107
 30
0.0
 10
3.161047
 20
5.991821
 30
0.0
 10
3.160953
 20
5.986975
 30
0.0
 10
3.515895
 20
5.871648
 30
0.0
 10
3.678264
 20
5.924405
 30
0.0
 10
3.561999
 20
6.084429
 30
0.0
 10
3.551972
 20
6.102644
 30
0.0
 10
3.546766
 20
6.122774
 30
0.0
 10
3.546703
 20
6.143567
 30
0.0
 10
3.551792
 20
6.163727
 30
0.0
 10
3.561713
 20
6.182000
 30
0.0
 10
3.575849
 20
6.197248
 30
0.0
 10
3.593320
 20
6.208522
 30
0.0
 10
3.613039
 20
6.215120
 30
0.0
 10
3.633776
 20
6.216631
 30
0.0
 10
3.654242
 20
6.212961
 30
0.0
 10
3.673163
 20
6.204338
 30
0.0
 10
3.689360
 20
6.191300
 30
0.0
 10
3.696834
 20
6.182394
 30
0.0
 10
3.864601
 20
5.951481
 30
0.0
 10
4.175573
 20
5.850440
 30
0.0
 10
4.175573
 20
6.177415
 30
0.0
 10
4.023720
 20
6.386422
 30
0.0
 10
3.603664
 20
6.522907
 30
0.0
 10
3.584845
 20
6.531749
 30
0.0
 10
3.568801
 20
6.544975
 30
0.0
 10
3.556531
 20
6.561761
 30
0.0
 10
3.548798
 20
6.581062
 30
0.0
 10
3.546084
 20
6.601676
 30
0.0
 10
3.548557
 20
6.622321
 30
0.0
 10
3.556065
 20
6.641711
 30
0.0
 10
3.568139
 20
6.658639
 30
0.0
 10
3.584028
 20
6.672050
 30
0.0
 10
3.602743
 20
6.681111
 30
0.0
 10
3.623118
 20
6.685257
 30
0.0
 10
3.643885
 20
6.684229
 30
0.0
 10
3.655167
 20
6.681417
 30
0.0
 10
3.991890
 20
6.572009
 30
0.0
 10
3.991890
 20
6.857595
 30
0.0
 10
3.987252
 20
6.859002
 30
0.0
 10
3.972159
 20
6.865254
 30
0.0
 10
3.943345
 20
6.880655
 30
0.0
 10
3.929762
 20
6.889731
 30
0.0
 10
3.904506
 20
6.910458
 30
0.0
 10
3.892955
 20
6.922010
 30
0.0
 10
3.872227
 20
6.947266
 30
0.0
 10
3.863152
 20
6.960849
 30
0.0
 10
3.847750
 20
6.989663
 30
0.0
 10
3.841498
 20
7.004756
 30
0.0
 10
3.832014
 20
7.036022
 30
0.0
 10
3.828827
 20
7.052044
 30
0.0
 10
3.825624
 20
7.084559
 30
0.0
 10
3.825624
 20
7.100895
 30
0.0
 10
3.828827
 20
7.133410
 30
0.0
 10
3.832014
 20
7.149432
 30
0.0
 10
3.841498
 20
7.180698
 30
0.0
 10
3.847750
 20
7.195791
 30
0.0
 10
3.863151
 20
7.224605
 30
0.0
 10
3.872227
 20
7.238188
 30
0.0
 10
3.892955
 20
7.263444
 30
0.0
 10
3.904506
 20
7.274996
 30
0.0
 10
3.929762
 20
7.295723
 30
0.0
 10
3.943345
 20
7.304799
 30
0.0
 10
3.972159
 20
7.320200
 30
0.0
 10
3.987252
 20
7.326452
 30
0.0
 10
4.018518
 20
7.335936
 30
0.0
 10
4.034540
 20
7.339123
 30
0.0
 10
4.067055
 20
7.342326
 30
0.0
 10
4.083391
 20
7.342326
 30
0.0
  0
LWPOLYLINE
  5
101
100
AcDbEntity
  8
0
 62
7
100
AcDbPolyline
 90
32
 70
1
 10
3.749990
 20
2.444810
 30
0.0
 10
3.734259
 20
2.440705
 30
0.0
 10
3.719632
 20
2.433610
 30
0.0
 10
3.706670
 20
2.423798
 30
0.0
 10
3.695871
 20
2.411646
 30
0.0
 10
3.687651
 20
2.397620
 30
0.0
 10
3.682324
 20
2.382260
 30
0.0
 10
3.680097
 20
2.366157
 30
0.0
 10
3.681054
 20
2.349927
 30
0.0
 10
3.685159
 20
2.334197
 30
0.0
 10
3.692253
 20
2.319569
 30
0.0
 10
3.702065
 20
2.306608
 30
0.0
 10
3.714218
 20
2.295808
 30
0.0
 10
3.728243
 20
2.287588
 30
0.0
 10
3.743603
 20
2.282262
 30
0.0
 10
3.759707
 20
2.280034
 30
0.0
 10
3.775937
 20
2.280991
 30
0.0
 10
3.791666
 20
2.285096
 30
0.0
 10
3.806294
 20
2.292191
 30
0.0
 10
3.819256
 20
2.302003
 30
0.0
 10
3.830055
 20
2.314155
 30
0.0
 10
3.838275
 20
2.328181
 30
0.0
 10
3.843602
 20
2.343541
 30
0.0
 10
3.845829
 20
2.359644
 30
0.0
 10
3.844872
 20
2.375874
 30
0.0
 10
3.840767
 20
2.391604
 30
0.0
 10
3.833673
 20
2.406231
 30
0.0
 10
3.823860
 20
2.419194
 30
0.0
 10
3.811708
 20
2.429992
 30
0.0
 10
3.797683
 20
2.438213
 30
0.0
 10
3.782322
 20
2.443539
 30
0.0
 10
3.766219
 20
2.445767
 30
0.0
  0
LWPOLYLINE
  5
102
100
AcDbEntity
  8
0
 62
7
100
AcDbPolyline
 90
32
 70
1
 10
5.338834
 20
2.659471
 30
0.0
 10
5.323474
 20
2.654145
 30
0.0
 10
5.309449
 20
2.645924
 30
0.0
 10
5.297296
 20
2.635125
 30
0.0
 10
5.287484
 20
2.622163
 30
0.0
 10
5.280389
 20
2.607536
 30
0.0
 10
5.276285
 20
2.591806
 30
0.0
 10
5.275327
 20
2.575576
 30
0.0
 10
5.277555
 20
2.559473
 30
0.0
 10
5.282881
 20
2.544113
 30
0.0
 10
5.291102
 20
2.530087
 30
0.0
 10
5.301900
 20
2.517935
 30
0.0
 10
5.314863
 20
2.508123
 30
0.0
 10
5.329490
 20
2.501028
 30
0.0
 10
5.345220
 20
2.496924
 30
0.0
 10
5.361450
 20
2.495966
 30
0.0
 10
5.377553
 20
2.498194
 30
0.0
 10
5.392913
 20
2.503520
 30
0.0
 10
5.406939
 20
2.511741
 30
0.0
 10
5.419091
 20
2.522539
 30
0.0
 10
5.428903
 20
2.535502
 30
0.0
 10
5.435998
 20
2.550129
 30
0.0
 10
5.440103
 20
2.565859
 30
0.0
 10
5.441060
 20
2.582089
 30
0.0
 10
5.438832
 20
2.598192
 30
0.0
 10
5.433506
 20
2.613552
 30
0.0
 10
5.425286
 20
2.627577
 30
0.0
 10
5.414487
 20
2.639730
 30
0.0
 10
5.401524
 20
2.649542
 30
0.0
 10
5.386897
 20
2.656637
 30
0.0
 10
5.371167
 20
2.660741
 30
0.0
 10
5.354937
 20
2.661699
 30
0.0
  0
LWPOLYLINE
  5
103
100
AcDbEntity
  8
0
 62
7
100
AcDbPolyline
 90
32
 70
1
 10
6.583361
 20
3.163313
 30
0.0
 10
6.568002
 20
3.157987
 30
0.0
 10
6.553976
 20
3.149766
 30
0.0
 10
6.541824
 20
3.138967
 30
0.0
 10
6.532011
 20
3.126005
 30
0.0
 10
6.524917
 20
3.111378
 30
0.0
 10
6.520812
 20
3.095648
 30
0.0
 10
6.519855
 20
3.079418
 30
0.0
 10
6.522082
 20
3.063314
 30
0.0
 10
6.527409
 20
3.047955
 30
0.0
 10
6.535629
 20
3.033929
 30
0.0
 10
6.546428
 20
3.021777
 30
0.0
 10
6.559390
 20
3.011965
 30
0.0
 10
6.574018
 20
3.004870
 30
0.0
 10
6.589747
 20
3.000765
 30
0.0
 10
6.605977
 20
2.999808
 30
0.0
 10
6.622081
 20
3.002036
 30
0.0
 10
6.637441
 20
3.007362
 30
0.0
 10
6.651466
 20
3.015582
 30
0.0
 10
6.663619
 20
3.026381
 30
0.0
 10
6.673431
 20
3.039343
 30
0.0
 10
6.680525
 20
3.053971
 30
0.0
 10
6.684630
 20
3.069701
 30
0.0
 10
6.685587
 20
3.085930
 30
0.0
 10
6.683360
 20
3.102034
 30
0.0
 10
6.678034
 20
3.117394
 30
0.0
 10
6.669813
 20
3.131419
 30
0.0
 10
6.659014
 20
3.143572
 30
0.0
 10
6.646052
 20
3.153384
 30
0.0
 10
6.631425
 20
3.160479
 30
0.0
 10
6.615695
 20
3.164583
 30
0.0
 10
6.599465
 20
3.165541
 30
0.0
  0
LWPOLYLINE
  5
104
100
AcDbEntity
  8
0
 62
7
100
AcDbPolyline
 90
32
 70
1
 10
2.886227
 20
3.472730
 30
0.0
 10
2.870497
 20
3.468625
 30
0.0
 10
2.855870
 20
3.461530
 30
0.0
 10
2.842908
 20
3.451718
 30
0.0
 10
2.832109
 20
3.439565
 30
0.0
 10
2.823888
 20
3.425540
 30
0.0
 10
2.818562
 20
3.410180
 30
0.0
 10
2.816334
 20
3.394077
 30
0.0
 10
2.817292
 20
3.377847
 30
0.0
 10
2.821396
 20
3.362117
 30
0.0
 10
2.828491
 20
3.347490
 30
0.0
 10
2.838303
 20
3.334527
 30
0.0
 10
2.850456
 20
3.323729
 30
0.0
 10
2.864481
 20
3.315508
 30
0.0
 10
2.879841
 20
3.310182
 30
0.0
 10
2.895945
 20
3.307954
 30
0.0
 10
2.912174
 20
3.308912
 30
0.0
 10
2.927904
 20
3.313016
 30
0.0
 10
2.942532
 20
3.320111
 30
0.0
 10
2.955494
 20
3.329923
 30
0.0
 10
2.966292
 20
3.342075
 30
0.0
 10
2.974513
 20
3.356101
 30
0.0
 10
2.979840
 20
3.371461
 30
0.0
 10
2.982067
 20
3.387564
 30
0.0
 10
2.981110
 20
3.403794
 30
0.0
 10
2.977005
 20
3.419524
 30
0.0
 10
2.969910
 20
3.434151
 30
0.0
 10
2.960098
 20
3.447114
 30
0.0
 10
2.947946
 20
3.457913
 30
0.0
 10
2.933920
 20
3.466133
 30
0.0
 10
2.918560
 20
3.471459
 30
0.0
 10
2.902457
 20
3.473687
 30
0.0
  0
LWPOLYLINE
  5
105
100
AcDbEntity
  8
0
 62
7
100
AcDbPolyline
 90
32
 70
1
 10
6.880563
 20
4.748911
 30
0.0
 10
6.864684
 20
4.745427
 30
0.0
 10
6.849789
 20
4.738912
 30
0.0
 10
6.836452
 20
4.729616
 30
0.0
 10
6.825184
 20
4.717897
 30
0.0
 10
6.816420
 20
4.704205
 30
0.0
 10
6.810494
 20
4.689066
 30
0.0
 10
6.807636
 20
4.673062
 30
0.0
 10
6.807956
 20
4.656808
 30
0.0
 10
6.811440
 20
4.640929
 30
0.0
 10
6.817955
 20
4.626034
 30
0.0
 10
6.827251
 20
4.612697
 30
0.0
 10
6.838970
 20
4.601429
 30
0.0
 10
6.852662
 20
4.592664
 30
0.0
 10
6.867801
 20
4.586739
 30
0.0
 10
6.883804
 20
4.583881
 30
0.0
 10
6.900059
 20
4.584200
 30
0.0
 10
6.915938
 20
4.587684
 30
0.0
 10
6.930833
 20
4.594199
 30
0.0
 10
6.944170
 20
4.603495
 30
0.0
 10
6.955438
 20
4.615214
 30
0.0
 10
6.964203
 20
4.628906
 30
0.0
 10
6.970128
 20
4.644045
 30
0.0
 10
6.972986
 20
4.660049
 30
0.0
 10
6.972667
 20
4.676303
 30
0.0
 10
6.969183
 20
4.692182
 30
0.0
 10
6.962668
 20
4.707077
 30
0.0
 10
6.953373
 20
4.720414
 30
0.0
 10
6.941653
 20
4.731682
 30
0.0
 10
6.927961
 20
4.740447
 30
0.0
 10
6.912822
 20
4.746372
 30
0.0
 10
6.896819
 20
4.749230
 30
0.0
  0
LWPOLYLINE
  5
106
100
AcDbEntity
  8
0
 62
7
100
AcDbPolyline
 90
32
 70
1
 10
2.178373
 20
4.921065
 30
0.0
 10
2.163234
 20
4.915140
 30
0.0
 10
2.149542
 20
4.906375
 30
0.0
 10
2.137823
 20
4.895107
 30
0.0
 10
2.128527
 20
4.881770
 30
0.0
 10
2.122012
 20
4.866876
 30
0.0
 10
2.118528
 20
4.850996
 30
0.0
 10
2.118209
 20
4.834742
 30
0.0
 10
2.121067
 20
4.818738
 30
0.0
 10
2.126993
 20
4.803599
 30
0.0
 10
2.135757
 20
4.789907
 30
0.0
 10
2.147025
 20
4.778188
 30
0.0
 10
2.160362
 20
4.768892
 30
0.0
 10
2.175257
 20
4.762377
 30
0.0
 10
2.191137
 20
4.758893
 30
0.0
 10
2.207391
 20
4.758575
 30
0.0
 10
2.223394
 20
4.761432
 30
0.0
 10
2.238534
 20
4.767358
 30
0.0
 10
2.252225
 20
4.776122
 30
0.0
 10
2.263945
 20
4.787390
 30
0.0
 10
2.273240
 20
4.800727
 30
0.0
 10
2.279755
 20
4.815622
 30
0.0
 10
2.283239
 20
4.831502
 30
0.0
 10
2.283558
 20
4.847756
 30
0.0
 10
2.280700
 20
4.863759
 30
0.0
 10
2.274775
 20
4.878899
 30
0.0
 10
2.266010
 20
4.892591
 30
0.0
 10
2.254742
 20
4.904310
 30
0.0
 10
2.241405
 20
4.913605
 30
0.0
 10
2.226510
 20
4.920120
 30
0.0
 10
2.210631
 20
4.923604
 30
0.0
 10
2.194377
 20
4.923923
 30
0.0
  0
LWPOLYLINE
  5
107
100
AcDbEntity
  8
0
 62
7
100
AcDbPolyline
 90
32
 70
1
 10
2.889066
 20
6.060196
 30
0.0
 10
2.873927
 20
6.054271
 30
0.0
 10
2.860235
 20
6.045507
 30
0.0
 10
2.848516
 20
6.034239
 30
0.0
 10
2.839220
 20
6.020901
 30
0.0
 10
2.832705
 20
6.006007
 30
0.0
 10
2.829221
 20
5.990127
 30
0.0
 10
2.828902
 20
5.973873
 30
0.0
 10
2.831760
 20
5.957870
 30
0.0
 10
2.837686
 20
5.942731
 30
0.0
 10
2.846450
 20
5.929039
 30
0.0
 10
2.857718
 20
5.917319
 30
0.0
 10
2.871055
 20
5.908024
 30
0.0
 10
2.885950
 20
5.901509
 30
0.0
 10
2.901830
 20
5.898025
 30
0.0
 10
2.918084
 20
5.897706
 30
0.0
 10
2.934087
 20
5.900564
 30
0.0
 10
2.949226
 20
5.906489
 30
0.0
 10
2.962919
 20
5.915254
 30
0.0
 10
2.974638
 20
5.926522
 30
0.0
 10
2.983933
 20
5.939859
 30
0.0
 10
2.990448
 20
5.954753
 30
0.0
 10
2.993932
 20
5.970633
 30
0.0
 10
2.994251
 20
5.986888
 30
0.0
 10
2.991393
 20
6.002891
 30
0.0
 10
2.985468
 20
6.018030
 30
0.0
 10
2.976703
 20
6.031722
 30
0.0
 10
2.965435
 20
6.043441
 30
0.0
 10
2.952098
 20
6.052737
 30
0.0
 10
2.937204
 20
6.059252
 30
0.0
 10
2.921324
 20
6.062736
 30
0.0
 10
2.905070
 20
6.063055
 30
0.0
  0
LWPOLYLINE
  5
108
100
AcDbEntity
  8
0
 62
7
100
AcDbPolyline
 90
32
 70
1
 10
6.785962
 20
6.088223
 30
0.0
 10
6.770082
 20
6.084739
 30
0.0
 10
6.755187
 20
6.078224
 30
0.0
 10
6.741850
 20
6.068928
 30
0.0
 10
6.730582
 20
6.057209
 30
0.0
 10
6.721818
 20
6.043517
 30
0.0
 10
6.715892
 20
6.028378
 30
0.0
 10
6.713034
 20
6.012374
 30
0.0
 10
6.713353
 20
5.996120
 30
0.0
 10
6.716837
 20
5.980240
 30
0.0
 10
6.723352
 20
5.965346
 30
0.0
 10
6.732648
 20
5.952009
 30
0.0
 10
6.744367
 20
5.940741
 30
0.0
 10
6.758059
 20
5.931976
 30
0.0
 10
6.773198
 20
5.926051
 30
0.0
 10
6.789202
 20
5.923193
 30
0.0
 10
6.805456
 20
5.923512
 30
0.0
 10
6.821336
 20
5.926996
 30
0.0
 10
6.836230
 20
5.933511
 30
0.0
 10
6.849567
 20
5.942806
 30
0.0
 10
6.860835
 20
5.954525
 30
0.0
 10
6.869600
 20
5.968217
 30
0.0
 10
6.875525
 20
5.983357
 30
0.0
 10
6.878383
 20
5.999360
 30
0.0
 10
6.878064
 20
6.015614
 30
0.0
 10
6.874580
 20
6.031494
 30
0.0
 10
6.868065
 20
6.046388
 30
0.0
 10
6.858770
 20
6.059726
 30
0.0
 10
6.847051
 20
6.070993
 30
0.0
 10
6.833359
 20
6.079758
 30
0.0
 10
6.818219
 20
6.085684
 30
0.0
 10
6.802216
 20
6.088541
 30
0.0
  0
LWPOLYLINE
  5
109
100
AcDbEntity
  8
0
 62
7
100
AcDbPolyline
 90
32
 70
1
 10
5.362039
 20
6.850164
 30
0.0
 10
5.346483
 20
6.845445
 30
0.0
 10
5.332145
 20
6.837782
 30
0.0
 10
5.319578
 20
6.827468
 30
0.0
 10
5.309264
 20
6.814901
 30
0.0
 10
5.301601
 20
6.800563
 30
0.0
 10
5.296882
 20
6.785007
 30
0.0
 10
5.295288
 20
6.768828
 30
0.0
 10
5.296882
 20
6.752649
 30
0.0
 10
5.301601
 20
6.737092
 30
0.0
 10
5.309264
 20
6.722754
 30
0.0
 10
5.319578
 20
6.710187
 30
0.0
 10
5.332145
 20
6.699874
 30
0.0
 10
5.346483
 20
6.692210
 30
0.0
 10
5.362039
 20
6.687491
 30
0.0
 10
5.378218
 20
6.685898
 30
0.0
 10
5.394398
 20
6.687491
 30
0.0
 10
5.409954
 20
6.692210
 30
0.0
 10
5.424292
 20
6.699874
 30
0.0
 10
5.436859
 20
6.710187
 30
0.0
 10
5.447172
 20
6.722754
 30
0.0
 10
5.454836
 20
6.737092
 30
0.0
 10
5.459555
 20
6.752649
 30
0.0
 10
5.461148
 20
6.768828
 30
0.0
 10
5.459555
 20
6.785007
 30
0.0
 10
5.454836
 20
6.800563
 30
0.0
 10
5.447172
 20
6.814901
 30
0.0
 10
5.436859
 20
6.827468
 30
0.0
 10
5.424292
 20
6.837782
 30
0.0
 10
5.409954
 20
6.845445
 30
0.0
 10
5.394398
 20
6.850164
 30
0.0
 10
5.378218
 20
6.851758
 30
0.0
  0
LWPOLYLINE
  5
10a
100
AcDbEntity
  8
0
 62
7
100
AcDbPolyline
 90
32
 70
1
 10
4.059044
 20
7.174063
 30
0.0
 10
4.043488
 20
7.169344
 30
0.0
 10
4.029150
 20
7.161680
 30
0.0
 10
4.016583
 20
7.151366
 30
0.0
 10
4.006270
 20
7.138800
 30
0.0
 10
3.998606
 20
7.124462
 30
0.0
 10
3.993887
 20
7.108905
 30
0.0
 10
3.992294
 20
7.092726
 30
0.0
 10
3.993887
 20
7.076547
 30
0.0
 10
3.998606
 20
7.060990
 30
0.0
 10
4.006270
 20
7.046653
 30
0.0
 10
4.016583
 20
7.034086
 30
0.0
 10
4.029150
 20
7.023772
 30
0.0
 10
4.043488
 20
7.016109
 30
0.0
 10
4.059045
 20
7.011389
 30
0.0
 10
4.075224
 20
7.009796
 30
0.0
 10
4.091402
 20
7.011389
 30
0.0
 10
4.106960
 20
7.016109
 30
0.0
 10
4.121297
 20
7.023772
 30
0.0
 10
4.133864
 20
7.034086
 30
0.0
 10
4.144178
 20
7.046653
 30
0.0
 10
4.151841
 20
7.060990
 30
0.0
 10
4.156560
 20
7.076547
 30
0.0
 10
4.158154
 20
7.092726
 30
0.0
 10
4.156560
 20
7.108905
 30
0.0
 10
4.151841
 20
7.124462
 30
0.0
 10
4.144177
 20
7.138800
 30
0.0
 10
4.133864
 20
7.151366
 30
0.0
 10
4.121297
 20
7.161680
 30
0.0
 10
4.106959
 20
7.169344
 30
0.0
 10
4.091403
 20
7.174063
 30
0.0
 10
4.075224
 20
7.175656
 30
0.0
  0
ENDSEC
  0
SECTION
  2
OBJECTS
  0
DICTIONARY
  5
C
330
0
100
AcDbDictionary
  3
ACAD_GROUP
350
D
  3
ACAD_MLINESTYLE
350
17
  0
DICTIONARY
  5
D
330
C
100
AcDbDictionary
  0
DICTIONARY
  5
1A
330
C
100
AcDbDictionary
  0
DICTIONARY
  5
17
330
C
100
AcDbDictionary
  3
STANDARD
350
18
  0
DICTIONARY
  5
19
330
C
100
AcDbDictionary
  0
ENDSEC
  0
EOF
